<svg width="311" height="250" viewBox="0 0 311 250" fill="none" xmlns="http://www.w3.org/2000/svg">
<circle cx="125.526" cy="124.526" r="124.526" fill="#F1D9FF"/>
<g filter="url(#filter0_d_267_2078)">
<g clip-path="url(#clip0_267_2078)">
<rect x="5.04883" y="47" width="270.903" height="152" rx="9.80645" fill="white"/>
<rect width="34.3226" height="29.4194" transform="translate(5.04883 47)" fill="#F9F9F9"/>
<rect x="18.8377" y="58.3357" width="6.74194" height="6.74194" fill="#D8D2EC" stroke="#D8D2EC" stroke-width="0.612903"/>
<path fill-rule="evenodd" clip-rule="evenodd" d="M22.0285 56.8047C19.4196 56.8047 17.3047 58.9196 17.3047 61.5285V61.8873C17.3047 64.4962 19.4196 66.6111 22.0285 66.6111C24.6374 66.6111 26.7524 64.4962 26.7524 61.8873V61.5285C26.7524 58.9196 24.6374 56.8047 22.0285 56.8047ZM22.0284 58.0291C20.0718 58.0291 18.4856 59.6153 18.4856 61.572V61.8411C18.4856 63.7978 20.0718 65.384 22.0284 65.384C23.9851 65.384 25.5713 63.7978 25.5713 61.8411V61.572C25.5713 59.6153 23.9851 58.0291 22.0284 58.0291Z" fill="#D8D2EC"/>
<rect width="97.1452" height="29.4194" transform="translate(39.3711 47)" fill="#F9F9F9"/>
<rect x="118.588" y="62.6328" width="6.43548" height="4.59677" rx="2.29839" fill="#D8D2EC"/>
<rect x="118.588" y="56.1953" width="6.43548" height="4.59677" rx="2.29839" fill="#D8D2EC"/>
<rect x="46.7256" y="57.1113" width="20.8387" height="6.43548" rx="3.21774" fill="#D8D2EC"/>
<rect width="97.1452" height="29.4194" transform="translate(136.517 47)" fill="#F9F9F9"/>
<rect x="215.733" y="62.6328" width="6.43548" height="4.59677" rx="2.29839" fill="#D8D2EC"/>
<rect x="215.733" y="56.1953" width="6.43548" height="4.59677" rx="2.29839" fill="#D8D2EC"/>
<rect x="143.871" y="57.1113" width="28.8065" height="6.43548" rx="3.21774" fill="#D8D2EC"/>
<rect width="42.2903" height="29.4194" transform="translate(233.661 47)" fill="#F9F9F9"/>
<rect x="242.855" y="57.1113" width="23.2903" height="6.43548" rx="3.21774" fill="#D8D2EC"/>
<g clip-path="url(#clip1_267_2078)">
<rect width="270.903" height="24.5161" transform="translate(5.04883 76.4219)" fill="white"/>
<rect width="34.3226" height="24.5161" transform="translate(5.04883 76.4219)" fill="white"/>
<rect x="18.8377" y="85.3084" width="6.74194" height="6.74194" fill="#D8D2EC" stroke="#D8D2EC" stroke-width="0.612903"/>
<path fill-rule="evenodd" clip-rule="evenodd" d="M22.0285 83.7793C19.4196 83.7793 17.3047 85.8942 17.3047 88.5031V88.8619C17.3047 91.4708 19.4196 93.5857 22.0285 93.5857C24.6374 93.5857 26.7524 91.4708 26.7524 88.8619V88.5031C26.7524 85.8942 24.6374 83.7793 22.0285 83.7793ZM22.0284 85.0037C20.0718 85.0037 18.4856 86.5899 18.4856 88.5466V88.8157C18.4856 90.7724 20.0718 92.3586 22.0284 92.3586C23.9851 92.3586 25.5713 90.7724 25.5713 88.8157V88.5466C25.5713 86.5899 23.9851 85.0037 22.0284 85.0037Z" fill="#D8D2EC"/>
<rect width="97.1452" height="24.5161" transform="translate(39.3711 76.4219)" fill="white"/>
<rect x="46.7256" y="83.1641" width="73.5484" height="6.43548" rx="3.21774" fill="#D8D2EC"/>
<rect width="97.1452" height="24.5161" transform="translate(136.517 76.4219)" fill="white"/>
<rect x="143.871" y="83.1641" width="44.129" height="6.43548" rx="3.21774" fill="#D8D2EC"/>
<rect width="42.2903" height="24.5161" transform="translate(233.661 76.4219)" fill="white"/>
<rect x="253.581" y="83.1641" width="2.45161" height="11.0323" rx="1.22581" fill="#D8D2EC"/>
</g>
<g clip-path="url(#clip2_267_2078)">
<rect width="270.903" height="24.5161" transform="translate(5.04883 100.938)" fill="white"/>
<rect width="34.3226" height="24.5161" transform="translate(5.04883 100.938)" fill="white"/>
<rect x="18.8387" y="109.822" width="6.74194" height="6.74194" fill="#D8D2EC" stroke="#D8D2EC" stroke-width="0.612903"/>
<path fill-rule="evenodd" clip-rule="evenodd" d="M22.0295 108.291C19.4206 108.291 17.3057 110.406 17.3057 113.015V113.374C17.3057 115.983 19.4206 118.097 22.0295 118.097C24.6384 118.097 26.7533 115.983 26.7533 113.374V113.015C26.7533 110.406 24.6384 108.291 22.0295 108.291ZM22.0284 109.515C20.0717 109.515 18.4855 111.102 18.4855 113.058V113.327C18.4855 115.284 20.0717 116.87 22.0284 116.87C23.9851 116.87 25.5713 115.284 25.5713 113.327V113.058C25.5713 111.102 23.9851 109.515 22.0284 109.515Z" fill="#D8D2EC"/>
<rect width="97.1452" height="24.5161" transform="translate(39.3711 100.938)" fill="white"/>
<rect x="46.7256" y="107.68" width="52.0968" height="6.43548" rx="3.21774" fill="#D8D2EC"/>
<rect width="97.1452" height="24.5161" transform="translate(136.517 100.938)" fill="white"/>
<rect x="143.871" y="107.68" width="77.8387" height="6.43548" rx="3.21774" fill="#D8D2EC"/>
<rect width="42.2903" height="24.5161" transform="translate(233.661 100.938)" fill="white"/>
<rect x="253.581" y="107.68" width="2.45161" height="11.0323" rx="1.22581" fill="#D8D2EC"/>
</g>
<g clip-path="url(#clip3_267_2078)">
<rect width="270.903" height="24.5161" transform="translate(5.04883 125.453)" fill="white"/>
<rect width="34.3226" height="24.5161" transform="translate(5.04883 125.453)" fill="white"/>
<rect x="18.8377" y="134.346" width="6.74194" height="6.74194" fill="#D8D2EC" stroke="#D8D2EC" stroke-width="0.612903"/>
<path fill-rule="evenodd" clip-rule="evenodd" d="M22.0285 132.814C19.4196 132.814 17.3047 134.929 17.3047 137.538V137.897C17.3047 140.506 19.4196 142.621 22.0285 142.621C24.6374 142.621 26.7524 140.506 26.7524 137.897V137.538C26.7524 134.929 24.6374 132.814 22.0285 132.814ZM22.0284 134.043C20.0718 134.043 18.4856 135.629 18.4856 137.586V137.855C18.4856 139.812 20.0718 141.398 22.0284 141.398C23.9851 141.398 25.5713 139.812 25.5713 137.855V137.586C25.5713 135.629 23.9851 134.043 22.0284 134.043Z" fill="#D8D2EC"/>
<rect width="97.1452" height="24.5161" transform="translate(39.3711 125.453)" fill="white"/>
<rect x="46.7256" y="132.195" width="70.4839" height="6.43548" rx="3.21774" fill="#D8D2EC"/>
<rect width="97.1452" height="24.5161" transform="translate(136.517 125.453)" fill="white"/>
<rect x="143.871" y="132.195" width="44.7419" height="6.43548" rx="3.21774" fill="#D8D2EC"/>
<rect width="42.2903" height="24.5161" transform="translate(233.661 125.453)" fill="white"/>
<rect x="253.581" y="132.195" width="2.45161" height="11.0323" rx="1.22581" fill="#D8D2EC"/>
</g>
<g clip-path="url(#clip4_267_2078)">
<rect width="270.903" height="24.5161" transform="translate(5.04883 149.969)" fill="white"/>
<rect width="34.3226" height="24.5161" transform="translate(5.04883 149.969)" fill="white"/>
<rect x="18.8377" y="158.859" width="6.74194" height="6.74194" fill="#D8D2EC" stroke="#D8D2EC" stroke-width="0.612903"/>
<path fill-rule="evenodd" clip-rule="evenodd" d="M22.0285 157.328C19.4196 157.328 17.3047 159.443 17.3047 162.052V162.411C17.3047 165.02 19.4196 167.135 22.0285 167.135C24.6374 167.135 26.7524 165.02 26.7524 162.411V162.052C26.7524 159.443 24.6374 157.328 22.0285 157.328ZM22.0284 158.557C20.0718 158.557 18.4856 160.143 18.4856 162.1V162.369C18.4856 164.325 20.0718 165.911 22.0284 165.911C23.9851 165.911 25.5713 164.325 25.5713 162.369V162.1C25.5713 160.143 23.9851 158.557 22.0284 158.557Z" fill="#D8D2EC"/>
<rect width="97.1452" height="24.5161" transform="translate(39.3711 149.969)" fill="white"/>
<rect x="46.7256" y="156.711" width="43.5161" height="6.43548" rx="3.21774" fill="#D8D2EC"/>
<rect width="97.1452" height="24.5161" transform="translate(136.517 149.969)" fill="white"/>
<rect x="143.871" y="156.711" width="48.4194" height="6.43548" rx="3.21774" fill="#D8D2EC"/>
<rect width="42.2903" height="24.5161" transform="translate(233.661 149.969)" fill="white"/>
<rect x="253.581" y="156.711" width="2.45161" height="11.0323" rx="1.22581" fill="#D8D2EC"/>
</g>
<g clip-path="url(#clip5_267_2078)">
<rect width="270.903" height="24.5161" transform="translate(5.04883 174.484)" fill="white"/>
<rect width="34.3226" height="24.5161" transform="translate(5.04883 174.484)" fill="white"/>
<rect x="18.8377" y="183.371" width="6.74194" height="6.74194" fill="#D8D2EC" stroke="#D8D2EC" stroke-width="0.612903"/>
<path fill-rule="evenodd" clip-rule="evenodd" d="M22.0285 181.838C19.4196 181.838 17.3047 183.953 17.3047 186.562V186.921C17.3047 189.529 19.4196 191.644 22.0285 191.644C24.6374 191.644 26.7524 189.529 26.7524 186.921V186.562C26.7524 183.953 24.6374 181.838 22.0285 181.838ZM22.0284 183.066C20.0718 183.066 18.4856 184.653 18.4856 186.609V186.878C18.4856 188.835 20.0718 190.421 22.0284 190.421C23.9851 190.421 25.5713 188.835 25.5713 186.878V186.609C25.5713 184.653 23.9851 183.066 22.0284 183.066Z" fill="#D8D2EC"/>
<rect width="97.1452" height="24.5161" transform="translate(39.3711 174.484)" fill="white"/>
<rect x="46.7256" y="181.227" width="58.8387" height="6.43548" rx="3.21774" fill="#D8D2EC"/>
<rect width="97.1452" height="24.5161" transform="translate(136.517 174.484)" fill="white"/>
<rect x="143.871" y="181.227" width="46.5806" height="6.43548" rx="3.21774" fill="#D8D2EC"/>
<rect width="42.2903" height="24.5161" transform="translate(233.661 174.484)" fill="white"/>
<rect x="253.581" y="181.227" width="2.45161" height="11.0323" rx="1.22581" fill="#D8D2EC"/>
</g>
</g>
</g>
<rect x="238" y="15" width="66" height="66" rx="33" fill="#A58CF0"/>
<path d="M280.723 38.2754C282 39.5522 283.013 41.0681 283.704 42.7364C284.395 44.4046 284.751 46.1927 284.751 47.9985C284.751 49.8042 284.395 51.5923 283.704 53.2605C283.013 54.9288 282 56.4447 280.723 57.7215M280.723 57.7215L276.402 53.4008M280.723 57.7215L284.75 61.7489M276.402 53.4008C277.112 52.6915 277.675 51.8492 278.059 50.9223C278.443 49.9953 278.641 49.0018 278.641 47.9985C278.641 46.9951 278.443 46.0016 278.059 45.0746C277.675 44.1477 277.112 43.3055 276.402 42.5961M276.402 53.4008L272.08 49.0786M272.08 49.0786C272.226 48.9377 272.343 48.7691 272.423 48.5827C272.503 48.3963 272.545 48.1958 272.547 47.993C272.548 47.7901 272.51 47.5889 272.433 47.4011C272.356 47.2134 272.243 47.0428 272.099 46.8993C271.956 46.7559 271.785 46.6424 271.597 46.5656C271.41 46.4888 271.208 46.4502 271.006 46.4519C270.803 46.4537 270.602 46.4958 270.416 46.5759C270.229 46.656 270.061 46.7724 269.92 46.9183M272.08 49.0786L269.92 46.9183M265.598 53.4008C264.427 52.2328 263.668 50.7149 263.437 49.0771M261.277 57.7215C259.465 55.9108 258.195 53.63 257.61 51.1363C257.025 48.6425 257.149 46.035 257.966 43.6075M269.92 46.9183L257.25 34.248" stroke="white" stroke-width="2.77786" stroke-linecap="round" stroke-linejoin="round"/>
<defs>
<filter id="filter0_d_267_2078" x="0.897055" y="44.9241" width="279.207" height="160.304" filterUnits="userSpaceOnUse" color-interpolation-filters="sRGB">
<feFlood flood-opacity="0" result="BackgroundImageFix"/>
<feColorMatrix in="SourceAlpha" type="matrix" values="0 0 0 0 0 0 0 0 0 0 0 0 0 0 0 0 0 0 127 0" result="hardAlpha"/>
<feOffset dy="2.07589"/>
<feGaussianBlur stdDeviation="2.07589"/>
<feComposite in2="hardAlpha" operator="out"/>
<feColorMatrix type="matrix" values="0 0 0 0 0 0 0 0 0 0 0 0 0 0 0 0 0 0 0.08 0"/>
<feBlend mode="normal" in2="BackgroundImageFix" result="effect1_dropShadow_267_2078"/>
<feBlend mode="normal" in="SourceGraphic" in2="effect1_dropShadow_267_2078" result="shape"/>
</filter>
<clipPath id="clip0_267_2078">
<rect x="5.04883" y="47" width="270.903" height="152" rx="9.80645" fill="white"/>
</clipPath>
<clipPath id="clip1_267_2078">
<rect width="270.903" height="24.5161" fill="white" transform="translate(5.04883 76.4219)"/>
</clipPath>
<clipPath id="clip2_267_2078">
<rect width="270.903" height="24.5161" fill="white" transform="translate(5.04883 100.938)"/>
</clipPath>
<clipPath id="clip3_267_2078">
<rect width="270.903" height="24.5161" fill="white" transform="translate(5.04883 125.453)"/>
</clipPath>
<clipPath id="clip4_267_2078">
<rect width="270.903" height="24.5161" fill="white" transform="translate(5.04883 149.969)"/>
</clipPath>
<clipPath id="clip5_267_2078">
<rect width="270.903" height="24.5161" fill="white" transform="translate(5.04883 174.484)"/>
</clipPath>
</defs>
</svg>
