<svg width="453" height="209" viewBox="0 0 453 209" fill="none" xmlns="http://www.w3.org/2000/svg">
<path fill-rule="evenodd" clip-rule="evenodd" d="M57.0354 117.634C59.2737 122.746 120.783 100.753 194.421 68.5123C268.058 36.2712 325.939 5.99054 323.701 0.87853C321.462 -4.23348 259.953 17.759 186.315 50.0001C112.678 82.2412 54.7972 112.522 57.0354 117.634ZM64.5808 140.264C66.819 145.377 128.329 123.384 201.966 91.1429C275.604 58.9018 333.484 28.6211 331.246 23.5091C329.008 18.3971 267.498 40.3896 193.861 72.6307C120.223 104.872 62.3425 135.152 64.5808 140.264ZM209.501 113.763C135.864 146.004 74.3541 167.997 72.1158 162.885C69.8775 157.773 127.758 127.492 201.396 95.2509C243.41 76.8554 281.477 61.7962 306.839 53.2042C300.696 59.6125 295.629 67.0598 291.927 75.2561C269.659 86.5188 241.024 99.9613 209.501 113.763ZM288.204 85.2798C265.696 93.8058 238.281 105.025 208.941 117.871C135.303 150.112 77.4229 180.393 79.6611 185.505C81.8994 190.617 143.409 168.624 217.046 136.383C242.122 125.405 265.37 114.653 285.039 105.045C285.254 98.1998 286.345 91.5752 288.204 85.2798ZM285.123 111.992C264.836 119.893 241.35 129.613 216.481 140.502C142.844 172.743 84.9631 203.024 87.2013 208.136C89.4396 213.248 150.949 191.255 224.587 159.014C247.823 148.84 269.491 138.862 288.196 129.807C286.516 124.111 285.466 118.146 285.123 111.992Z" fill="#F1D9FF"/>
<path d="M71.0805 84.8823C71.0805 89.6171 66.9257 93.4554 61.8004 93.4554C56.6752 93.4554 52.5203 89.6171 52.5203 84.8823C52.5203 80.1475 56.6752 76.4421 61.8004 76.4421C66.9257 76.4421 71.0805 80.1475 71.0805 84.8823Z" fill="#6434D0"/>
<path d="M103.561 84.9488C103.561 89.6469 99.4061 93.4554 94.2808 93.4554C89.1556 93.4554 85.0007 89.6469 85.0007 84.9488C85.0007 80.2507 89.1556 76.4421 94.2808 76.4421C99.4061 76.4421 103.561 80.2507 103.561 84.9488Z" fill="#6434D0"/>
<path fill-rule="evenodd" clip-rule="evenodd" d="M39.7602 34.8203C32.7129 34.8203 27 40.8052 27 48.1879V161.812C27 169.195 32.7129 175.18 39.7602 175.18H116.321C123.368 175.18 129.081 169.195 129.081 161.812V48.1879C129.081 40.8052 123.368 34.8203 116.321 34.8203H39.7602ZM55.7104 68.2393C46.9013 68.2393 39.7602 75.7204 39.7602 84.9488C39.7602 94.1772 46.9013 101.658 55.7104 101.658H100.371C109.18 101.658 116.321 94.1772 116.321 84.9488C116.321 75.7204 109.18 68.2393 100.371 68.2393H55.7104Z" fill="#6434D0"/>
<path d="M203.472 136.976V89.604H211.511V136.976H203.472ZM183.806 117.309V109.27H231.177V117.309H183.806Z" fill="#171717"/>
<g clip-path="url(#clip0_9473_9092)">
<path d="M328.03 78.1242H320.279L341.411 137.858L353.241 104.052L344.069 78.1242H335.89V72.4323H372.106V78.1242H363.625L384.757 137.858L392.353 116.151C402.318 88.3406 384.186 79.6774 384.186 73.4707C384.186 67.2641 389.218 62.2328 395.424 62.2328C395.76 62.2328 396.086 62.251 396.406 62.2808C385.889 52.3535 371.709 46.2656 356.106 46.2656C335.717 46.2656 317.758 56.6579 307.23 72.4323H328.029V78.1242H328.03Z" fill="#00769D"/>
<path d="M297.379 104.978C297.379 127.459 310.015 146.986 328.57 156.854L302.07 81.9453C299.052 89.0173 297.379 96.802 297.379 104.978Z" fill="#00769D"/>
<path d="M407.207 76.0469C408.047 80.9925 407.793 86.5511 406.504 92.1313H406.738L405.85 94.6684C405.324 96.5004 404.661 98.3744 403.909 100.216L383.703 156.821C402.22 146.942 414.823 127.435 414.823 104.982C414.823 94.4612 412.054 84.5878 407.207 76.0469Z" fill="#00769D"/>
<path d="M337.992 160.856C343.697 162.704 349.782 163.706 356.103 163.706C362.131 163.706 367.947 162.796 373.422 161.109L356.245 112.555L337.992 160.856Z" fill="#00769D"/>
<path d="M405.728 55.3598C392.473 42.1046 374.848 34.8047 356.102 34.8047C337.356 34.8047 319.733 42.1046 306.477 55.3598C293.222 68.6149 285.922 86.2385 285.922 104.985C285.922 123.73 293.222 141.354 306.477 154.609C319.733 167.864 337.357 175.164 356.103 175.164C374.849 175.164 392.473 167.864 405.728 154.609C418.984 141.354 426.284 123.73 426.284 104.985C426.283 86.2385 418.983 68.6149 405.728 55.3598ZM356.102 170.213C320.135 170.213 290.873 140.952 290.873 104.985C290.873 69.0172 320.135 39.7553 356.102 39.7553C392.07 39.7553 421.332 69.0172 421.332 104.985C421.332 140.952 392.071 170.213 356.102 170.213Z" fill="#00769D"/>
</g>
<defs>
<clipPath id="clip0_9473_9092">
<rect width="140.362" height="140.36" fill="white" transform="translate(285.914 34.8203)"/>
</clipPath>
</defs>
</svg>
