<svg width="458" height="358" viewBox="0 0 458 358" fill="none" xmlns="http://www.w3.org/2000/svg">
<ellipse cx="365.978" cy="208.92" rx="92.0211" ry="92.0218" fill="#F1D9FF"/>
<g filter="url(#filter0_d_9471_10508)">
<g clip-path="url(#clip0_9471_10508)">
<rect width="354.048" height="38.1127" transform="translate(6 138.734)" fill="#23282D"/>
<g clip-path="url(#clip1_9471_10508)">
<path d="M21.6022 154.479H20.6455L23.2536 161.852L24.7136 157.679L23.5816 154.479H22.5723V153.777H27.042V154.479H25.9953L28.6033 161.852L29.5408 159.173C30.7706 155.74 28.5328 154.671 28.5328 153.905C28.5328 153.139 29.1538 152.518 29.9198 152.518C29.9612 152.518 30.0015 152.52 30.0409 152.524C28.743 151.298 26.9929 150.547 25.0672 150.547C22.5509 150.547 20.3345 151.83 19.0352 153.777H21.6021V154.479H21.6022Z" fill="white"/>
<path d="M17.8164 157.796C17.8164 160.571 19.3759 162.981 21.666 164.199L18.3954 154.953C18.0228 155.826 17.8164 156.787 17.8164 157.796Z" fill="white"/>
<path d="M31.3657 154.219C31.4693 154.829 31.4379 155.515 31.2789 156.204H31.3077L31.1981 156.517C31.1332 156.743 31.0514 156.975 30.9585 157.202L28.4648 164.188C30.7501 162.969 32.3056 160.561 32.3056 157.79C32.3056 156.492 31.9638 155.273 31.3657 154.219Z" fill="white"/>
<path d="M22.8281 164.688C23.5322 164.916 24.2832 165.04 25.0633 165.04C25.8073 165.04 26.5251 164.928 27.2008 164.719L25.0809 158.727L22.8281 164.688Z" fill="white"/>
<path d="M31.1885 151.67C29.5525 150.034 27.3774 149.133 25.0638 149.133C22.7503 149.133 20.5752 150.034 18.9392 151.67C17.3033 153.306 16.4023 155.481 16.4023 157.795C16.4023 160.108 17.3033 162.284 18.9392 163.92C20.5752 165.556 22.7503 166.457 25.0639 166.457C27.3774 166.457 29.5525 165.556 31.1885 163.92C32.8244 162.284 33.7254 160.108 33.7254 157.795C33.7254 155.481 32.8244 153.306 31.1885 151.67ZM25.0638 165.846C20.6248 165.846 17.0133 162.234 17.0133 157.795C17.0133 153.356 20.6248 149.744 25.0638 149.744C29.5029 149.744 33.1143 153.356 33.1143 157.795C33.1143 162.234 29.5029 165.846 25.0638 165.846Z" fill="white"/>
</g>
<rect x="44.1133" y="155.836" width="29.4505" height="3.89789" rx="1.73239" fill="#C9C9C9"/>
<rect x="85.6914" y="155.836" width="29.4505" height="3.89789" rx="1.73239" fill="#C9C9C9"/>
<rect x="127.27" y="155.836" width="29.4505" height="3.89789" rx="1.73239" fill="#C9C9C9"/>
<rect x="168.844" y="155.836" width="29.4505" height="3.89789" rx="1.73239" fill="#C9C9C9"/>
<rect x="210.422" y="155.836" width="29.4505" height="3.89789" rx="1.73239" fill="#C9C9C9"/>
<rect x="252" y="155.836" width="29.4505" height="3.89789" rx="1.73239" fill="#C9C9C9"/>
<rect x="306.344" y="149.125" width="43.3096" height="17.324" rx="8.66198" fill="#3858E9"/>
<rect width="354.048" height="172.373" transform="translate(6 176.844)" fill="#0073AA"/>
<path d="M148.173 249.047V233.559H153.406C154.622 233.559 155.615 233.778 156.386 234.217C157.163 234.65 157.737 235.238 158.11 235.979C158.483 236.72 158.67 237.547 158.67 238.459C158.67 239.372 158.483 240.201 158.11 240.947C157.742 241.694 157.173 242.288 156.401 242.732C155.63 243.171 154.642 243.39 153.437 243.39H149.686V241.726H153.376C154.208 241.726 154.876 241.583 155.38 241.295C155.884 241.008 156.25 240.62 156.477 240.131C156.709 239.637 156.825 239.079 156.825 238.459C156.825 237.839 156.709 237.285 156.477 236.796C156.25 236.306 155.882 235.923 155.373 235.646C154.864 235.364 154.188 235.222 153.346 235.222H150.049V249.047H148.173ZM163.234 233.559V249.047H161.449V233.559H163.234ZM173.824 244.298V237.431H175.608V249.047H173.824V247.081H173.703C173.43 247.67 173.007 248.172 172.432 248.586C171.857 248.994 171.131 249.198 170.254 249.198C169.528 249.198 168.883 249.039 168.318 248.722C167.753 248.399 167.31 247.915 166.987 247.27C166.664 246.619 166.503 245.8 166.503 244.812V237.431H168.288V244.691C168.288 245.538 168.525 246.213 168.999 246.718C169.478 247.222 170.088 247.474 170.829 247.474C171.272 247.474 171.724 247.36 172.182 247.134C172.646 246.907 173.034 246.559 173.347 246.09C173.665 245.621 173.824 245.024 173.824 244.298ZM183.566 253.645C182.704 253.645 181.963 253.534 181.343 253.312C180.722 253.095 180.206 252.808 179.792 252.45C179.384 252.097 179.059 251.719 178.817 251.316L180.238 250.317C180.4 250.529 180.604 250.771 180.851 251.043C181.098 251.321 181.436 251.56 181.864 251.762C182.298 251.969 182.865 252.072 183.566 252.072C184.504 252.072 185.278 251.845 185.888 251.391C186.498 250.938 186.803 250.227 186.803 249.259V246.899H186.652C186.52 247.111 186.334 247.373 186.092 247.686C185.855 247.993 185.512 248.268 185.063 248.51C184.62 248.747 184.02 248.865 183.263 248.865C182.326 248.865 181.484 248.644 180.738 248.2C179.996 247.756 179.409 247.111 178.976 246.264C178.547 245.417 178.333 244.388 178.333 243.178C178.333 241.988 178.542 240.952 178.96 240.07C179.379 239.183 179.961 238.497 180.707 238.013C181.454 237.524 182.316 237.28 183.294 237.28C184.05 237.28 184.65 237.406 185.094 237.658C185.542 237.905 185.885 238.187 186.122 238.505C186.364 238.817 186.551 239.074 186.682 239.276H186.863V237.431H188.588V249.38C188.588 250.378 188.361 251.19 187.907 251.815C187.458 252.445 186.853 252.906 186.092 253.199C185.336 253.496 184.494 253.645 183.566 253.645ZM183.505 247.262C184.221 247.262 184.826 247.098 185.321 246.771C185.815 246.443 186.19 245.971 186.447 245.356C186.704 244.741 186.833 244.005 186.833 243.148C186.833 242.311 186.707 241.573 186.455 240.932C186.203 240.292 185.83 239.79 185.336 239.427C184.842 239.064 184.231 238.883 183.505 238.883C182.749 238.883 182.119 239.074 181.615 239.458C181.116 239.841 180.74 240.355 180.488 241C180.241 241.646 180.117 242.362 180.117 243.148C180.117 243.955 180.243 244.668 180.496 245.288C180.753 245.903 181.131 246.387 181.63 246.74C182.134 247.088 182.759 247.262 183.505 247.262ZM191.855 249.047V237.431H193.639V249.047H191.855ZM192.762 235.495C192.414 235.495 192.114 235.376 191.862 235.139C191.615 234.902 191.492 234.617 191.492 234.285C191.492 233.952 191.615 233.667 191.862 233.43C192.114 233.193 192.414 233.075 192.762 233.075C193.11 233.075 193.407 233.193 193.654 233.43C193.907 233.667 194.033 233.952 194.033 234.285C194.033 234.617 193.907 234.902 193.654 235.139C193.407 235.376 193.11 235.495 192.762 235.495ZM198.693 242.059V249.047H196.908V237.431H198.633V239.246H198.784C199.056 238.656 199.469 238.182 200.024 237.824C200.579 237.461 201.295 237.28 202.172 237.28C202.958 237.28 203.647 237.441 204.236 237.764C204.826 238.081 205.285 238.565 205.613 239.216C205.94 239.861 206.104 240.678 206.104 241.666V249.047H204.32V241.787C204.32 240.874 204.083 240.163 203.609 239.654C203.135 239.14 202.484 238.883 201.658 238.883C201.088 238.883 200.579 239.006 200.13 239.253C199.686 239.5 199.336 239.861 199.079 240.335C198.822 240.809 198.693 241.383 198.693 242.059ZM217.594 240.032L215.991 240.486C215.89 240.219 215.741 239.959 215.544 239.707C215.353 239.45 215.091 239.238 214.758 239.072C214.425 238.905 213.999 238.822 213.48 238.822C212.769 238.822 212.176 238.986 211.703 239.314C211.234 239.637 210.999 240.047 210.999 240.547C210.999 240.99 211.161 241.341 211.483 241.598C211.806 241.855 212.31 242.069 212.996 242.241L214.72 242.664C215.759 242.916 216.532 243.302 217.042 243.821C217.551 244.335 217.806 244.998 217.806 245.81C217.806 246.476 217.614 247.071 217.231 247.595C216.853 248.119 216.323 248.533 215.643 248.835C214.962 249.138 214.17 249.289 213.268 249.289C212.083 249.289 211.103 249.032 210.326 248.517C209.55 248.003 209.058 247.252 208.851 246.264L210.545 245.84C210.707 246.466 211.012 246.934 211.461 247.247C211.914 247.56 212.507 247.716 213.238 247.716C214.07 247.716 214.73 247.539 215.219 247.186C215.713 246.829 215.96 246.4 215.96 245.901C215.96 245.498 215.819 245.16 215.537 244.887C215.254 244.61 214.821 244.403 214.236 244.267L212.3 243.814C211.236 243.561 210.455 243.171 209.956 242.641C209.461 242.107 209.214 241.439 209.214 240.637C209.214 239.982 209.398 239.402 209.767 238.898C210.14 238.394 210.646 237.998 211.287 237.711C211.932 237.423 212.663 237.28 213.48 237.28C214.629 237.28 215.532 237.532 216.187 238.036C216.848 238.54 217.316 239.205 217.594 240.032Z" fill="white"/>
<rect x="48.1445" y="274.367" width="268.863" height="26.6203" rx="6.92956" fill="white"/>
<path d="M303.622 291.143C305.815 291.143 307.592 289.366 307.592 287.173C307.592 284.981 305.815 283.203 303.622 283.203C301.43 283.203 299.652 284.981 299.652 287.173C299.652 289.366 301.43 291.143 303.622 291.143Z" stroke="#525252" stroke-width="1.29929" stroke-linecap="round" stroke-linejoin="round"/>
<path d="M308.591 292.165L306.457 290.031" stroke="#525252" stroke-width="1.29929" stroke-linecap="round" stroke-linejoin="round"/>
</g>
</g>
<g filter="url(#filter1_d_9471_10508)">
<g clip-path="url(#clip2_9471_10508)">
<rect width="354.048" height="38.1127" transform="translate(69.6211 3.42188)" fill="#23282D"/>
<g clip-path="url(#clip3_9471_10508)">
<path d="M85.2115 19.1509H84.2549L86.8629 26.5236L88.323 22.351L87.191 19.1509H86.1817V18.4484H90.6513V19.1509H89.6046L92.2127 26.5236L93.1501 23.8444C94.3799 20.4119 92.1422 19.3426 92.1422 18.5766C92.1422 17.8105 92.7632 17.1895 93.5292 17.1895C93.5706 17.1895 93.6108 17.1918 93.6503 17.1954C92.3524 15.9701 90.6023 15.2188 88.6766 15.2188C86.1603 15.2188 83.9439 16.5014 82.6445 18.4484H85.2114V19.1509H85.2115Z" fill="white"/>
<path d="M81.4258 22.4678C81.4258 25.2426 82.9853 27.6527 85.2753 28.8706L82.0048 19.625C81.6322 20.4979 81.4258 21.4587 81.4258 22.4678Z" fill="white"/>
<path d="M94.975 18.8906C95.0787 19.501 95.0473 20.1871 94.8882 20.8759H94.9171L94.8075 21.189C94.7426 21.4151 94.6608 21.6464 94.5679 21.8737L92.0742 28.8602C94.3595 27.6408 95.915 25.2333 95.915 22.462C95.915 21.1634 95.5732 19.9448 94.975 18.8906Z" fill="white"/>
<path d="M86.4375 29.3601C87.1416 29.5881 87.8926 29.7119 88.6726 29.7119C89.4167 29.7119 90.1344 29.5996 90.8101 29.3912L88.6902 23.3984L86.4375 29.3601Z" fill="white"/>
<path d="M94.7978 16.3417C93.1619 14.7057 90.9868 13.8047 88.6732 13.8047C86.3596 13.8047 84.1845 14.7057 82.5486 16.3417C80.9127 17.9777 80.0117 20.1529 80.0117 22.4667C80.0117 24.7804 80.9127 26.9556 82.5486 28.5916C84.1845 30.2276 86.3597 31.1286 88.6732 31.1286C90.9868 31.1286 93.1619 30.2276 94.7979 28.5916C96.4338 26.9556 97.3348 24.7803 97.3348 22.4667C97.3347 20.1529 96.4338 17.9777 94.7978 16.3417ZM88.6732 30.5176C84.2342 30.5176 80.6227 26.906 80.6227 22.4667C80.6227 18.0274 84.2342 14.4157 88.6732 14.4157C93.1123 14.4157 96.7237 18.0274 96.7237 22.4667C96.7237 26.906 93.1123 30.5176 88.6732 30.5176Z" fill="white"/>
</g>
<rect x="107.734" y="20.5234" width="29.4505" height="3.89789" rx="1.73239" fill="#C9C9C9"/>
<rect x="149.312" y="20.5234" width="29.4505" height="3.89789" rx="1.73239" fill="#C9C9C9"/>
<rect x="190.891" y="20.5234" width="29.4505" height="3.89789" rx="1.73239" fill="#C9C9C9"/>
<rect x="232.465" y="20.5234" width="29.4505" height="3.89789" rx="1.73239" fill="#C9C9C9"/>
<rect x="274.043" y="20.5234" width="29.4505" height="3.89789" rx="1.73239" fill="#C9C9C9"/>
<rect x="315.621" y="20.5234" width="29.4505" height="3.89789" rx="1.73239" fill="#C9C9C9"/>
<rect x="369.965" y="13.8125" width="43.3096" height="17.324" rx="8.66198" fill="#3858E9"/>
<rect width="354.048" height="172.373" transform="translate(69.6211 41.5312)" fill="white"/>
<path d="M139.248 100.5L135.013 85.0119H136.919L140.156 97.6262H140.307L143.604 85.0119H145.722L149.019 97.6262H149.17L152.407 85.0119H154.313L150.078 100.5H148.142L144.723 88.1579H144.602L141.184 100.5H139.248ZM160.045 100.742C158.997 100.742 158.076 100.492 157.285 99.9933C156.498 99.4942 155.883 98.7959 155.44 97.8985C155.001 97.0011 154.782 95.9524 154.782 94.7524C154.782 93.5424 155.001 92.4862 155.44 91.5837C155.883 90.6813 156.498 89.9805 157.285 89.4813C158.076 88.9822 158.997 88.7326 160.045 88.7326C161.094 88.7326 162.011 88.9822 162.798 89.4813C163.59 89.9805 164.205 90.6813 164.643 91.5837C165.087 92.4862 165.309 93.5424 165.309 94.7524C165.309 95.9524 165.087 97.0011 164.643 97.8985C164.205 98.7959 163.59 99.4942 162.798 99.9933C162.011 100.492 161.094 100.742 160.045 100.742ZM160.045 99.1387C160.842 99.1387 161.497 98.9345 162.011 98.5262C162.526 98.1178 162.906 97.5808 163.153 96.9153C163.4 96.2498 163.524 95.5289 163.524 94.7524C163.524 93.976 163.4 93.2525 163.153 92.582C162.906 91.9114 162.526 91.3695 162.011 90.956C161.497 90.5426 160.842 90.3359 160.045 90.3359C159.249 90.3359 158.593 90.5426 158.079 90.956C157.565 91.3695 157.184 91.9114 156.937 92.582C156.69 93.2525 156.566 93.976 156.566 94.7524C156.566 95.5289 156.69 96.2498 156.937 96.9153C157.184 97.5808 157.565 98.1178 158.079 98.5262C158.593 98.9345 159.249 99.1387 160.045 99.1387ZM168.033 100.5V88.8839H169.757V90.6384H169.878C170.09 90.0637 170.473 89.5973 171.028 89.2393C171.583 88.8814 172.208 88.7024 172.903 88.7024C173.035 88.7024 173.198 88.7049 173.395 88.71C173.592 88.715 173.74 88.7226 173.841 88.7326V90.5477C173.781 90.5325 173.642 90.5098 173.425 90.4796C173.214 90.4443 172.989 90.4267 172.752 90.4267C172.188 90.4267 171.683 90.5451 171.24 90.7821C170.801 91.014 170.453 91.3367 170.196 91.7501C169.944 92.1585 169.818 92.6248 169.818 93.1492V100.5H168.033ZM179.99 100.742C179.022 100.742 178.167 100.497 177.426 100.008C176.685 99.5143 176.105 98.8186 175.687 97.9212C175.268 97.0187 175.059 95.9524 175.059 94.7222C175.059 93.5021 175.268 92.4433 175.687 91.5459C176.105 90.6485 176.687 89.9553 177.433 89.4662C178.18 88.9772 179.042 88.7326 180.02 88.7326C180.776 88.7326 181.374 88.8587 181.812 89.1108C182.256 89.3578 182.594 89.6401 182.826 89.9578C183.063 90.2704 183.247 90.5275 183.378 90.7292H183.529V85.0119H185.314V100.5H183.589V98.7152H183.378C183.247 98.927 183.06 99.1942 182.818 99.5169C182.576 99.8345 182.231 100.119 181.782 100.371C181.333 100.618 180.736 100.742 179.99 100.742ZM180.232 99.1387C180.948 99.1387 181.553 98.9522 182.047 98.5791C182.541 98.201 182.916 97.6792 183.173 97.0137C183.431 96.3431 183.559 95.5692 183.559 94.6919C183.559 93.8248 183.433 93.066 183.181 92.4156C182.929 91.7602 182.556 91.251 182.062 90.888C181.568 90.5199 180.958 90.3359 180.232 90.3359C179.475 90.3359 178.845 90.53 178.341 90.9182C177.842 91.3014 177.466 91.8232 177.214 92.4837C176.967 93.1391 176.844 93.8752 176.844 94.6919C176.844 95.5188 176.97 96.27 177.222 96.9456C177.479 97.6161 177.857 98.1506 178.356 98.5489C178.86 98.9421 179.485 99.1387 180.232 99.1387ZM189.072 100.5V85.0119H194.306C195.521 85.0119 196.514 85.2312 197.285 85.6698C198.062 86.1034 198.636 86.6907 199.009 87.4319C199.383 88.173 199.569 88.9999 199.569 89.9124C199.569 90.825 199.383 91.6543 199.009 92.4005C198.641 93.1467 198.072 93.7416 197.3 94.1853C196.529 94.6239 195.541 94.8432 194.336 94.8432H190.585V93.1794H194.275C195.107 93.1794 195.775 93.0357 196.279 92.7484C196.784 92.461 197.149 92.0728 197.376 91.5837C197.608 91.0896 197.724 90.5325 197.724 89.9124C197.724 89.2923 197.608 88.7377 197.376 88.2486C197.149 87.7596 196.781 87.3764 196.272 87.0991C195.763 86.8168 195.087 86.6756 194.245 86.6756H190.948V100.5H189.072ZM202.348 100.5V88.8839H204.073V90.6384H204.194C204.405 90.0637 204.789 89.5973 205.343 89.2393C205.898 88.8814 206.523 88.7024 207.219 88.7024C207.35 88.7024 207.514 88.7049 207.71 88.71C207.907 88.715 208.056 88.7226 208.156 88.7326V90.5477C208.096 90.5325 207.957 90.5098 207.74 90.4796C207.529 90.4443 207.304 90.4267 207.067 90.4267C206.503 90.4267 205.999 90.5451 205.555 90.7821C205.116 91.014 204.768 91.3367 204.511 91.7501C204.259 92.1585 204.133 92.6248 204.133 93.1492V100.5H202.348ZM214.789 100.742C213.67 100.742 212.704 100.495 211.892 100.001C211.086 99.5017 210.463 98.806 210.024 97.9136C209.591 97.0162 209.374 95.9725 209.374 94.7827C209.374 93.5929 209.591 92.5442 210.024 91.6367C210.463 90.7241 211.073 90.0132 211.855 89.504C212.641 88.9898 213.559 88.7326 214.607 88.7326C215.212 88.7326 215.81 88.8335 216.4 89.0351C216.989 89.2368 217.526 89.5645 218.01 90.0183C218.494 90.467 218.88 91.0619 219.168 91.803C219.455 92.5442 219.599 93.4567 219.599 94.5407V95.297H210.644V93.7542H217.784C217.784 93.0988 217.652 92.5139 217.39 91.9997C217.133 91.4854 216.765 91.0796 216.286 90.7821C215.812 90.4846 215.253 90.3359 214.607 90.3359C213.896 90.3359 213.281 90.5124 212.762 90.8653C212.248 91.2132 211.852 91.6669 211.575 92.2265C211.297 92.7862 211.159 93.3861 211.159 94.0264V95.0549C211.159 95.9322 211.31 96.6759 211.613 97.2859C211.92 97.8909 212.346 98.3522 212.891 98.6699C213.435 98.9824 214.068 99.1387 214.789 99.1387C215.258 99.1387 215.681 99.0732 216.059 98.9421C216.442 98.806 216.773 98.6043 217.05 98.3371C217.327 98.0649 217.542 97.7271 217.693 97.3237L219.417 97.8077C219.236 98.3926 218.931 98.9068 218.502 99.3505C218.073 99.7891 217.544 100.132 216.914 100.379C216.284 100.621 215.575 100.742 214.789 100.742ZM230.542 91.4854L228.938 91.9392C228.838 91.672 228.689 91.4123 228.492 91.1602C228.301 90.9031 228.038 90.6913 227.706 90.525C227.373 90.3586 226.947 90.2754 226.428 90.2754C225.717 90.2754 225.124 90.4393 224.65 90.767C224.181 91.0896 223.947 91.5005 223.947 91.9997C223.947 92.4433 224.108 92.7937 224.431 93.0509C224.754 93.308 225.258 93.5223 225.944 93.6937L227.668 94.1172C228.706 94.3693 229.48 94.755 229.99 95.2743C230.499 95.7885 230.753 96.4515 230.753 97.2632C230.753 97.9287 230.562 98.5236 230.179 99.048C229.8 99.5723 229.271 99.9857 228.59 100.288C227.91 100.591 227.118 100.742 226.216 100.742C225.031 100.742 224.05 100.485 223.274 99.9706C222.498 99.4564 222.006 98.7051 221.799 97.717L223.493 97.2935C223.655 97.9186 223.96 98.3875 224.408 98.7001C224.862 99.0127 225.455 99.169 226.186 99.169C227.017 99.169 227.678 98.9925 228.167 98.6396C228.661 98.2816 228.908 97.8531 228.908 97.354C228.908 96.9506 228.767 96.6128 228.485 96.3406C228.202 96.0633 227.769 95.8566 227.184 95.7205L225.248 95.2667C224.184 95.0146 223.403 94.6239 222.903 94.0945C222.409 93.5601 222.162 92.8921 222.162 92.0904C222.162 91.435 222.346 90.8552 222.714 90.351C223.087 89.8469 223.594 89.4511 224.234 89.1637C224.88 88.8763 225.611 88.7326 226.428 88.7326C227.577 88.7326 228.48 88.9847 229.135 89.4889C229.795 89.9931 230.264 90.6586 230.542 91.4854ZM241.668 91.4854L240.065 91.9392C239.964 91.672 239.815 91.4123 239.619 91.1602C239.427 90.9031 239.165 90.6913 238.832 90.525C238.499 90.3586 238.073 90.2754 237.554 90.2754C236.843 90.2754 236.251 90.4393 235.777 90.767C235.308 91.0896 235.073 91.5005 235.073 91.9997C235.073 92.4433 235.235 92.7937 235.557 93.0509C235.88 93.308 236.384 93.5223 237.07 93.6937L238.794 94.1172C239.833 94.3693 240.607 94.755 241.116 95.2743C241.625 95.7885 241.88 96.4515 241.88 97.2632C241.88 97.9287 241.688 98.5236 241.305 99.048C240.927 99.5723 240.398 99.9857 239.717 100.288C239.036 100.591 238.245 100.742 237.342 100.742C236.157 100.742 235.177 100.485 234.4 99.9706C233.624 99.4564 233.132 98.7051 232.926 97.717L234.62 97.2935C234.781 97.9186 235.086 98.3875 235.535 98.7001C235.989 99.0127 236.581 99.169 237.312 99.169C238.144 99.169 238.804 98.9925 239.293 98.6396C239.787 98.2816 240.035 97.8531 240.035 97.354C240.035 96.9506 239.893 96.6128 239.611 96.3406C239.329 96.0633 238.895 95.8566 238.31 95.7205L236.374 95.2667C235.31 95.0146 234.529 94.6239 234.03 94.0945C233.536 93.5601 233.289 92.8921 233.289 92.0904C233.289 91.435 233.473 90.8552 233.841 90.351C234.214 89.8469 234.721 89.4511 235.361 89.1637C236.006 88.8763 236.737 88.7326 237.554 88.7326C238.704 88.7326 239.606 88.9847 240.261 89.4889C240.922 89.9931 241.391 90.6586 241.668 91.4854ZM245.867 100.621C245.494 100.621 245.174 100.487 244.907 100.22C244.64 99.953 244.506 99.6328 244.506 99.2597C244.506 98.8867 244.64 98.5665 244.907 98.2993C245.174 98.0321 245.494 97.8985 245.867 97.8985C246.24 97.8985 246.56 98.0321 246.828 98.2993C247.095 98.5665 247.228 98.8867 247.228 99.2597C247.228 99.5068 247.165 99.7337 247.039 99.9404C246.918 100.147 246.755 100.313 246.548 100.439C246.346 100.561 246.119 100.621 245.867 100.621ZM245.867 91.9997C245.494 91.9997 245.174 91.8661 244.907 91.5989C244.64 91.3316 244.506 91.0115 244.506 90.6384C244.506 90.2653 244.64 89.9452 244.907 89.678C245.174 89.4108 245.494 89.2771 245.867 89.2771C246.24 89.2771 246.56 89.4108 246.828 89.678C247.095 89.9452 247.228 90.2653 247.228 90.6384C247.228 90.8855 247.165 91.1123 247.039 91.319C246.918 91.5257 246.755 91.6921 246.548 91.8182C246.346 91.9392 246.119 91.9997 245.867 91.9997ZM267.25 89.8519C267.084 89.3427 266.865 88.8864 266.592 88.4831C266.325 88.0747 266.005 87.7268 265.632 87.4394C265.264 87.1521 264.845 86.9327 264.377 86.7815C263.908 86.6302 263.393 86.5546 262.834 86.5546C261.916 86.5546 261.082 86.7916 260.331 87.2655C259.579 87.7394 258.982 88.4377 258.538 89.3603C258.095 90.283 257.873 91.4148 257.873 92.7559C257.873 94.097 258.097 95.2289 258.546 96.1515C258.995 97.0742 259.602 97.7724 260.368 98.2464C261.135 98.7203 261.997 98.9572 262.955 98.9572C263.842 98.9572 264.624 98.7682 265.299 98.39C265.98 98.0069 266.509 97.4674 266.887 96.7717C267.27 96.0709 267.462 95.2465 267.462 94.2987L268.037 94.4197H263.378V92.7559H269.277V94.4197C269.277 95.6952 269.005 96.8044 268.46 97.7472C267.921 98.69 267.175 99.4211 266.222 99.9404C265.274 100.455 264.185 100.712 262.955 100.712C261.583 100.712 260.378 100.389 259.34 99.7437C258.306 99.0984 257.5 98.1808 256.92 96.991C256.345 95.8011 256.058 94.3894 256.058 92.7559C256.058 91.5308 256.222 90.4292 256.549 89.4511C256.882 88.468 257.351 87.631 257.956 86.9403C258.561 86.2496 259.277 85.7202 260.104 85.3522C260.931 84.9841 261.841 84.8001 262.834 84.8001C263.651 84.8001 264.412 84.9236 265.118 85.1707C265.829 85.4127 266.461 85.758 267.016 86.2067C267.576 86.6504 268.042 87.1823 268.415 87.8024C268.788 88.4175 269.045 89.1007 269.186 89.8519H267.25ZM272.247 100.5V88.8839H273.972V90.6384H274.093C274.304 90.0637 274.687 89.5973 275.242 89.2393C275.797 88.8814 276.422 88.7024 277.118 88.7024C277.249 88.7024 277.413 88.7049 277.609 88.71C277.806 88.715 277.955 88.7226 278.055 88.7326V90.5477C277.995 90.5325 277.856 90.5098 277.639 90.4796C277.428 90.4443 277.203 90.4267 276.966 90.4267C276.402 90.4267 275.897 90.5451 275.454 90.7821C275.015 91.014 274.667 91.3367 274.41 91.7501C274.158 92.1585 274.032 92.6248 274.032 93.1492V100.5H272.247ZM284.536 100.742C283.488 100.742 282.568 100.492 281.776 99.9933C280.99 99.4942 280.375 98.7959 279.931 97.8985C279.492 97.0011 279.273 95.9524 279.273 94.7524C279.273 93.5424 279.492 92.4862 279.931 91.5837C280.375 90.6813 280.99 89.9805 281.776 89.4813C282.568 88.9822 283.488 88.7326 284.536 88.7326C285.585 88.7326 286.503 88.9822 287.289 89.4813C288.081 89.9805 288.696 90.6813 289.135 91.5837C289.578 92.4862 289.8 93.5424 289.8 94.7524C289.8 95.9524 289.578 97.0011 289.135 97.8985C288.696 98.7959 288.081 99.4942 287.289 99.9933C286.503 100.492 285.585 100.742 284.536 100.742ZM284.536 99.1387C285.333 99.1387 285.989 98.9345 286.503 98.5262C287.017 98.1178 287.398 97.5808 287.645 96.9153C287.892 96.2498 288.015 95.5289 288.015 94.7524C288.015 93.976 287.892 93.2525 287.645 92.582C287.398 91.9114 287.017 91.3695 286.503 90.956C285.989 90.5426 285.333 90.3359 284.536 90.3359C283.74 90.3359 283.084 90.5426 282.57 90.956C282.056 91.3695 281.675 91.9114 281.428 92.582C281.181 93.2525 281.058 93.976 281.058 94.7524C281.058 95.5289 281.181 96.2498 281.428 96.9153C281.675 97.5808 282.056 98.1178 282.57 98.5262C283.084 98.9345 283.74 99.1387 284.536 99.1387ZM294.761 100.5L291.222 88.8839H293.097L295.608 97.7775H295.729L298.21 88.8839H300.115L302.566 97.7472H302.687L305.197 88.8839H307.073L303.534 100.5H301.779L299.238 91.5762H299.057L296.516 100.5H294.761ZM316.572 104.856C316.269 104.856 315.999 104.831 315.762 104.78C315.525 104.735 315.362 104.69 315.271 104.644L315.725 103.071C316.158 103.182 316.541 103.223 316.874 103.192C317.207 103.162 317.502 103.013 317.759 102.746C318.021 102.484 318.261 102.058 318.477 101.468L318.81 100.561L314.515 88.8839H316.451L319.657 98.1405H319.778L322.985 88.8839H324.921L319.99 102.194C319.768 102.794 319.493 103.291 319.166 103.684C318.838 104.082 318.457 104.377 318.024 104.569C317.595 104.76 317.111 104.856 316.572 104.856ZM331.579 100.742C330.531 100.742 329.611 100.492 328.819 99.9933C328.033 99.4942 327.418 98.7959 326.974 97.8985C326.535 97.0011 326.316 95.9524 326.316 94.7524C326.316 93.5424 326.535 92.4862 326.974 91.5837C327.418 90.6813 328.033 89.9805 328.819 89.4813C329.611 88.9822 330.531 88.7326 331.579 88.7326C332.628 88.7326 333.546 88.9822 334.332 89.4813C335.124 89.9805 335.739 90.6813 336.178 91.5837C336.621 92.4862 336.843 93.5424 336.843 94.7524C336.843 95.9524 336.621 97.0011 336.178 97.8985C335.739 98.7959 335.124 99.4942 334.332 99.9933C333.546 100.492 332.628 100.742 331.579 100.742ZM331.579 99.1387C332.376 99.1387 333.031 98.9345 333.546 98.5262C334.06 98.1178 334.441 97.5808 334.688 96.9153C334.935 96.2498 335.058 95.5289 335.058 94.7524C335.058 93.976 334.935 93.2525 334.688 92.582C334.441 91.9114 334.06 91.3695 333.546 90.956C333.031 90.5426 332.376 90.3359 331.579 90.3359C330.783 90.3359 330.127 90.5426 329.613 90.956C329.099 91.3695 328.718 91.9114 328.471 92.582C328.224 93.2525 328.101 93.976 328.101 94.7524C328.101 95.5289 328.224 96.2498 328.471 96.9153C328.718 97.5808 329.099 98.1178 329.613 98.5262C330.127 98.9345 330.783 99.1387 331.579 99.1387ZM346.888 95.7507V88.8839H348.673V100.5H346.888V98.5337H346.767C346.495 99.1236 346.071 99.6253 345.496 100.039C344.922 100.447 344.196 100.651 343.318 100.651C342.592 100.651 341.947 100.492 341.382 100.175C340.818 99.8521 340.374 99.3681 340.051 98.7228C339.729 98.0724 339.567 97.2531 339.567 96.265V88.8839H341.352V96.144C341.352 96.991 341.589 97.6666 342.063 98.1707C342.542 98.6749 343.152 98.927 343.893 98.927C344.337 98.927 344.788 98.8135 345.247 98.5867C345.711 98.3598 346.099 98.0119 346.412 97.543C346.729 97.0742 346.888 96.4767 346.888 95.7507ZM351.942 100.5V88.8839H353.666V90.6384H353.787C353.999 90.0637 354.382 89.5973 354.936 89.2393C355.491 88.8814 356.116 88.7024 356.812 88.7024C356.943 88.7024 357.107 88.7049 357.304 88.71C357.5 88.715 357.649 88.7226 357.75 88.7326V90.5477C357.689 90.5325 357.551 90.5098 357.334 90.4796C357.122 90.4443 356.898 90.4267 356.661 90.4267C356.096 90.4267 355.592 90.5451 355.148 90.7821C354.71 91.014 354.362 91.3367 354.105 91.7501C353.852 92.1585 353.726 92.6248 353.726 93.1492V100.5H351.942ZM202.839 130.5L205.41 115.012H207.195L206.257 120.729H206.409C206.57 120.527 206.794 120.27 207.082 119.958C207.369 119.64 207.755 119.358 208.239 119.111C208.723 118.859 209.343 118.733 210.099 118.733C211.077 118.733 211.896 118.977 212.557 119.466C213.222 119.955 213.689 120.648 213.956 121.546C214.228 122.443 214.264 123.502 214.062 124.722C213.86 125.952 213.474 127.019 212.905 127.921C212.34 128.819 211.644 129.514 210.817 130.008C209.996 130.497 209.101 130.742 208.133 130.742C207.387 130.742 206.809 130.618 206.401 130.371C205.998 130.119 205.7 129.834 205.509 129.517C205.322 129.194 205.178 128.927 205.078 128.715H204.866L204.563 130.5H202.839ZM205.562 124.692C205.42 125.569 205.423 126.343 205.569 127.014C205.715 127.679 206.005 128.201 206.439 128.579C206.872 128.952 207.447 129.139 208.163 129.139C208.909 129.139 209.565 128.942 210.129 128.549C210.694 128.151 211.158 127.616 211.521 126.946C211.884 126.27 212.136 125.519 212.277 124.692C212.408 123.875 212.403 123.139 212.262 122.484C212.126 121.823 211.838 121.301 211.4 120.918C210.966 120.53 210.371 120.336 209.615 120.336C208.889 120.336 208.246 120.52 207.687 120.888C207.132 121.251 206.673 121.76 206.31 122.416C205.952 123.066 205.703 123.825 205.562 124.692ZM223.931 125.751L225.081 118.884H226.865L224.929 130.5H223.144L223.477 128.534H223.356C222.993 129.124 222.487 129.625 221.836 130.039C221.186 130.447 220.422 130.651 219.545 130.651C218.819 130.651 218.199 130.492 217.684 130.175C217.175 129.852 216.812 129.368 216.595 128.723C216.384 128.072 216.358 127.253 216.52 126.265L217.76 118.884H219.545L218.335 126.144C218.199 126.991 218.327 127.667 218.72 128.171C219.114 128.675 219.681 128.927 220.422 128.927C220.866 128.927 221.335 128.814 221.829 128.587C222.328 128.36 222.771 128.012 223.16 127.543C223.553 127.074 223.81 126.477 223.931 125.751ZM237.939 121.485L236.245 121.939C236.184 121.667 236.078 121.405 235.927 121.153C235.781 120.896 235.554 120.686 235.246 120.525C234.944 120.359 234.531 120.275 234.006 120.275C233.295 120.275 232.678 120.439 232.153 120.767C231.629 121.09 231.329 121.501 231.253 122C231.178 122.438 231.279 122.789 231.556 123.051C231.833 123.313 232.297 123.527 232.947 123.694L234.611 124.117C235.609 124.374 236.32 124.76 236.744 125.274C237.172 125.783 237.319 126.446 237.183 127.263C237.072 127.929 236.782 128.524 236.313 129.048C235.844 129.572 235.244 129.986 234.513 130.288C233.782 130.591 232.968 130.742 232.07 130.742C230.875 130.742 229.933 130.485 229.242 129.971C228.551 129.451 228.183 128.7 228.138 127.717L229.922 127.293C229.968 127.914 230.19 128.382 230.588 128.7C230.991 129.013 231.556 129.169 232.282 129.169C233.114 129.169 233.807 128.993 234.362 128.64C234.916 128.282 235.231 127.853 235.307 127.354C235.383 126.946 235.302 126.605 235.065 126.333C234.833 126.061 234.43 125.857 233.855 125.72L232.01 125.267C230.981 125.01 230.26 124.616 229.847 124.087C229.438 123.558 229.302 122.892 229.438 122.09C229.549 121.435 229.832 120.855 230.285 120.351C230.744 119.847 231.319 119.451 232.01 119.164C232.705 118.876 233.462 118.733 234.278 118.733C235.428 118.733 236.288 118.985 236.857 119.489C237.427 119.988 237.788 120.654 237.939 121.485ZM239.325 130.5L241.261 118.884H243.045L241.109 130.5H239.325ZM242.698 116.918C242.35 116.918 242.05 116.799 241.798 116.562C241.551 116.325 241.427 116.04 241.427 115.708C241.427 115.375 241.551 115.09 241.798 114.853C242.05 114.616 242.35 114.498 242.698 114.498C243.045 114.498 243.343 114.616 243.59 114.853C243.842 115.09 243.968 115.375 243.968 115.708C243.968 116.04 243.842 116.325 243.59 116.562C243.343 116.799 243.045 116.918 242.698 116.918ZM247.313 123.512L246.163 130.5H244.378L246.314 118.884H248.039L247.736 120.699H247.887C248.25 120.109 248.742 119.635 249.362 119.277C249.982 118.914 250.731 118.733 251.608 118.733C252.385 118.733 253.04 118.894 253.574 119.217C254.114 119.534 254.494 120.018 254.716 120.669C254.943 121.314 254.976 122.131 254.815 123.119L253.574 130.5H251.79L253 123.24C253.151 122.332 253.032 121.622 252.644 121.107C252.261 120.593 251.653 120.336 250.822 120.336C250.247 120.336 249.715 120.459 249.226 120.706C248.742 120.954 248.331 121.314 247.993 121.788C247.66 122.262 247.434 122.837 247.313 123.512ZM261.676 130.742C260.562 130.742 259.641 130.495 258.915 130.001C258.189 129.502 257.683 128.806 257.395 127.914C257.108 127.016 257.063 125.973 257.259 124.783C257.456 123.593 257.847 122.544 258.431 121.637C259.016 120.724 259.745 120.013 260.617 119.504C261.489 118.99 262.447 118.733 263.491 118.733C264.096 118.733 264.678 118.833 265.238 119.035C265.797 119.237 266.281 119.565 266.69 120.018C267.098 120.467 267.383 121.062 267.544 121.803C267.706 122.544 267.696 123.457 267.514 124.541L267.393 125.297H258.439L258.681 123.754H265.82C265.936 123.099 265.906 122.514 265.729 122C265.558 121.485 265.258 121.08 264.829 120.782C264.406 120.485 263.869 120.336 263.219 120.336C262.548 120.336 261.923 120.517 261.343 120.88C260.763 121.238 260.279 121.692 259.891 122.242C259.503 122.786 259.261 123.341 259.165 123.905L258.953 125.236C258.802 126.199 258.825 126.966 259.021 127.535C259.223 128.105 259.573 128.516 260.073 128.768C260.572 129.015 261.197 129.139 261.948 129.139C262.427 129.139 262.868 129.073 263.271 128.942C263.675 128.806 264.035 128.604 264.353 128.337C264.671 128.065 264.938 127.727 265.155 127.324L266.788 127.808C266.511 128.393 266.12 128.907 265.616 129.35C265.117 129.789 264.532 130.132 263.861 130.379C263.196 130.621 262.467 130.742 261.676 130.742ZM279.013 121.485L277.319 121.939C277.258 121.667 277.153 121.405 277.001 121.153C276.855 120.896 276.628 120.686 276.321 120.525C276.018 120.359 275.605 120.275 275.08 120.275C274.37 120.275 273.752 120.439 273.228 120.767C272.703 121.09 272.403 121.501 272.328 122C272.252 122.438 272.353 122.789 272.63 123.051C272.907 123.313 273.371 123.527 274.022 123.694L275.685 124.117C276.684 124.374 277.395 124.76 277.818 125.274C278.247 125.783 278.393 126.446 278.257 127.263C278.146 127.929 277.856 128.524 277.387 129.048C276.918 129.572 276.318 129.986 275.587 130.288C274.856 130.591 274.042 130.742 273.144 130.742C271.95 130.742 271.007 130.485 270.316 129.971C269.625 129.451 269.257 128.7 269.212 127.717L270.997 127.293C271.042 127.914 271.264 128.382 271.662 128.7C272.065 129.013 272.63 129.169 273.356 129.169C274.188 129.169 274.881 128.993 275.436 128.64C275.99 128.282 276.306 127.853 276.381 127.354C276.457 126.946 276.376 126.605 276.139 126.333C275.907 126.061 275.504 125.857 274.929 125.72L273.084 125.267C272.055 125.01 271.334 124.616 270.921 124.087C270.513 123.558 270.377 122.892 270.513 122.09C270.624 121.435 270.906 120.855 271.36 120.351C271.818 119.847 272.393 119.451 273.084 119.164C273.78 118.876 274.536 118.733 275.353 118.733C276.502 118.733 277.362 118.985 277.932 119.489C278.501 119.988 278.862 120.654 279.013 121.485ZM290.139 121.485L288.445 121.939C288.385 121.667 288.279 121.405 288.128 121.153C287.982 120.896 287.755 120.686 287.447 120.525C287.145 120.359 286.731 120.275 286.207 120.275C285.496 120.275 284.878 120.439 284.354 120.767C283.83 121.09 283.53 121.501 283.454 122C283.378 122.438 283.479 122.789 283.757 123.051C284.034 123.313 284.498 123.527 285.148 123.694L286.812 124.117C287.81 124.374 288.521 124.76 288.945 125.274C289.373 125.783 289.519 126.446 289.383 127.263C289.272 127.929 288.982 128.524 288.513 129.048C288.045 129.572 287.445 129.986 286.714 130.288C285.983 130.591 285.168 130.742 284.271 130.742C283.076 130.742 282.133 130.485 281.442 129.971C280.752 129.451 280.384 128.7 280.338 127.717L282.123 127.293C282.168 127.914 282.39 128.382 282.789 128.7C283.192 129.013 283.757 129.169 284.483 129.169C285.314 129.169 286.008 128.993 286.562 128.64C287.117 128.282 287.432 127.853 287.508 127.354C287.583 126.946 287.503 126.605 287.266 126.333C287.034 126.061 286.63 125.857 286.056 125.72L284.21 125.267C283.182 125.01 282.461 124.616 282.047 124.087C281.639 123.558 281.503 122.892 281.639 122.09C281.75 121.435 282.032 120.855 282.486 120.351C282.945 119.847 283.52 119.451 284.21 119.164C284.906 118.876 285.662 118.733 286.479 118.733C287.629 118.733 288.488 118.985 289.058 119.489C289.628 119.988 289.988 120.654 290.139 121.485Z" fill="#171717"/>
<rect x="216.195" y="154.82" width="60.4016" height="23.3555" rx="10.3943" fill="#3858E9"/>
</g>
</g>
<defs>
<filter id="filter0_d_9471_10508" x="0.489506" y="135.979" width="365.068" height="221.505" filterUnits="userSpaceOnUse" color-interpolation-filters="sRGB">
<feFlood flood-opacity="0" result="BackgroundImageFix"/>
<feColorMatrix in="SourceAlpha" type="matrix" values="0 0 0 0 0 0 0 0 0 0 0 0 0 0 0 0 0 0 127 0" result="hardAlpha"/>
<feOffset dy="2.75525"/>
<feGaussianBlur stdDeviation="2.75525"/>
<feComposite in2="hardAlpha" operator="out"/>
<feColorMatrix type="matrix" values="0 0 0 0 0 0 0 0 0 0 0 0 0 0 0 0 0 0 0.08 0"/>
<feBlend mode="normal" in2="BackgroundImageFix" result="effect1_dropShadow_9471_10508"/>
<feBlend mode="normal" in="SourceGraphic" in2="effect1_dropShadow_9471_10508" result="shape"/>
</filter>
<filter id="filter1_d_9471_10508" x="64.1106" y="0.666628" width="365.068" height="221.505" filterUnits="userSpaceOnUse" color-interpolation-filters="sRGB">
<feFlood flood-opacity="0" result="BackgroundImageFix"/>
<feColorMatrix in="SourceAlpha" type="matrix" values="0 0 0 0 0 0 0 0 0 0 0 0 0 0 0 0 0 0 127 0" result="hardAlpha"/>
<feOffset dy="2.75525"/>
<feGaussianBlur stdDeviation="2.75525"/>
<feComposite in2="hardAlpha" operator="out"/>
<feColorMatrix type="matrix" values="0 0 0 0 0 0 0 0 0 0 0 0 0 0 0 0 0 0 0.08 0"/>
<feBlend mode="normal" in2="BackgroundImageFix" result="effect1_dropShadow_9471_10508"/>
<feBlend mode="normal" in="SourceGraphic" in2="effect1_dropShadow_9471_10508" result="shape"/>
</filter>
<clipPath id="clip0_9471_10508">
<rect x="6" y="138.734" width="354.048" height="210.486" rx="5.51049" fill="white"/>
</clipPath>
<clipPath id="clip1_9471_10508">
<rect width="17.3231" height="17.324" fill="white" transform="translate(16.3945 149.125)"/>
</clipPath>
<clipPath id="clip2_9471_10508">
<rect x="69.6211" y="3.42188" width="354.048" height="210.486" rx="5.51049" fill="white"/>
</clipPath>
<clipPath id="clip3_9471_10508">
<rect width="17.3231" height="17.324" fill="white" transform="translate(80.0156 13.8125)"/>
</clipPath>
</defs>
</svg>
