<svg width="732" height="549" viewBox="0 0 732 549" fill="none" xmlns="http://www.w3.org/2000/svg">
<g clip-path="url(#clip0_455_3065)">
<rect width="732" height="549" fill="#F3F3F3"/>
<g filter="url(#filter0_ddd_455_3065)">
<rect x="86.01" y="120.78" width="247.05" height="307.48" rx="14.64" fill="white"/>
<rect x="146.4" y="172.02" width="126.27" height="12.81" rx="6.405" fill="#C1B4E6"/>
<rect x="146.4" y="199.47" width="126.27" height="12.81" rx="6.405" fill="#C1B4E6"/>
<rect x="146.4" y="226.92" width="126.27" height="14.64" rx="7.32" fill="#C1B4E6"/>
<rect x="146.4" y="256.2" width="126.27" height="14.64" rx="7.32" fill="#C1B4E6"/>
<rect x="146.4" y="285.48" width="126.27" height="12.81" rx="6.405" fill="#C1B4E6"/>
<rect x="146.4" y="312.93" width="126.27" height="12.81" rx="6.405" fill="#C1B4E6"/>
<rect x="163.895" y="340.38" width="91.28" height="36.64" rx="14.64" fill="#4F3895"/>
<path d="M187.256 355.887C187.187 355.272 186.901 354.796 186.398 354.458C185.896 354.115 185.263 353.944 184.501 353.944C183.955 353.944 183.483 354.031 183.084 354.204C182.686 354.373 182.376 354.607 182.155 354.906C181.938 355.201 181.83 355.536 181.83 355.913C181.83 356.23 181.904 356.503 182.051 356.732C182.203 356.962 182.4 357.155 182.642 357.311C182.889 357.462 183.153 357.59 183.435 357.694C183.717 357.794 183.987 357.876 184.247 357.941L185.547 358.279C185.972 358.383 186.407 358.524 186.853 358.701C187.3 358.879 187.713 359.113 188.095 359.403C188.476 359.693 188.783 360.053 189.017 360.482C189.256 360.911 189.375 361.424 189.375 362.022C189.375 362.776 189.18 363.445 188.79 364.03C188.404 364.615 187.843 365.076 187.107 365.414C186.375 365.752 185.489 365.921 184.449 365.921C183.452 365.921 182.59 365.763 181.862 365.447C181.135 365.13 180.565 364.682 180.153 364.102C179.742 363.517 179.514 362.823 179.471 362.022H181.486C181.525 362.503 181.68 362.904 181.953 363.224C182.231 363.541 182.584 363.777 183.013 363.933C183.446 364.084 183.92 364.16 184.436 364.16C185.003 364.16 185.508 364.071 185.95 363.894C186.396 363.712 186.747 363.46 187.003 363.14C187.258 362.815 187.386 362.436 187.386 362.003C187.386 361.608 187.274 361.285 187.048 361.034C186.827 360.783 186.526 360.575 186.145 360.41C185.768 360.246 185.341 360.101 184.865 359.975L183.292 359.546C182.226 359.256 181.382 358.829 180.758 358.266C180.138 357.703 179.828 356.957 179.828 356.03C179.828 355.263 180.036 354.594 180.452 354.022C180.868 353.45 181.431 353.006 182.142 352.69C182.852 352.369 183.654 352.209 184.546 352.209C185.447 352.209 186.242 352.367 186.931 352.684C187.625 353 188.17 353.435 188.569 353.99C188.968 354.54 189.175 355.172 189.193 355.887H187.256ZM197.942 361.561V355.718H199.891V365.7H197.981V363.972H197.877C197.647 364.504 197.279 364.949 196.772 365.304C196.269 365.655 195.643 365.83 194.894 365.83C194.253 365.83 193.685 365.689 193.191 365.408C192.702 365.122 192.316 364.699 192.034 364.141C191.757 363.582 191.618 362.891 191.618 362.067V355.718H193.561V361.834C193.561 362.514 193.75 363.055 194.127 363.458C194.504 363.861 194.993 364.063 195.596 364.063C195.959 364.063 196.321 363.972 196.681 363.79C197.045 363.608 197.346 363.333 197.584 362.964C197.827 362.596 197.946 362.128 197.942 361.561ZM202.658 365.7V352.391H204.601V357.337H204.718C204.831 357.129 204.993 356.888 205.205 356.615C205.418 356.342 205.712 356.104 206.089 355.9C206.466 355.692 206.964 355.588 207.584 355.588C208.39 355.588 209.109 355.792 209.741 356.199C210.374 356.607 210.87 357.194 211.23 357.96C211.593 358.727 211.775 359.65 211.775 360.729C211.775 361.808 211.596 362.733 211.236 363.504C210.876 364.271 210.383 364.862 209.754 365.278C209.126 365.689 208.409 365.895 207.603 365.895C206.997 365.895 206.501 365.793 206.115 365.59C205.734 365.386 205.435 365.148 205.218 364.875C205.002 364.602 204.835 364.359 204.718 364.147H204.555V365.7H202.658ZM204.562 360.709C204.562 361.411 204.664 362.026 204.867 362.555C205.071 363.083 205.366 363.497 205.751 363.796C206.137 364.091 206.609 364.238 207.168 364.238C207.748 364.238 208.234 364.084 208.624 363.777C209.013 363.465 209.308 363.042 209.507 362.509C209.711 361.977 209.813 361.376 209.813 360.709C209.813 360.051 209.713 359.459 209.514 358.935C209.319 358.411 209.024 357.997 208.63 357.694C208.24 357.391 207.753 357.239 207.168 357.239C206.605 357.239 206.128 357.384 205.738 357.674C205.353 357.965 205.06 358.37 204.861 358.89C204.662 359.41 204.562 360.016 204.562 360.709ZM213.957 365.7V355.718H215.822V357.343H215.946C216.154 356.793 216.494 356.364 216.966 356.056C217.438 355.744 218.004 355.588 218.662 355.588C219.329 355.588 219.888 355.744 220.339 356.056C220.794 356.368 221.13 356.797 221.346 357.343H221.45C221.688 356.81 222.068 356.386 222.587 356.069C223.107 355.749 223.727 355.588 224.446 355.588C225.351 355.588 226.09 355.872 226.662 356.44C227.238 357.007 227.526 357.863 227.526 359.007V365.7H225.583V359.189C225.583 358.513 225.399 358.023 225.031 357.72C224.663 357.417 224.223 357.265 223.712 357.265C223.079 357.265 222.587 357.46 222.236 357.85C221.886 358.235 221.71 358.732 221.71 359.338V365.7H219.774V359.065C219.774 358.524 219.605 358.088 219.267 357.759C218.929 357.43 218.489 357.265 217.947 357.265C217.579 357.265 217.239 357.363 216.927 357.557C216.62 357.748 216.37 358.015 216.18 358.357C215.994 358.699 215.9 359.095 215.9 359.546V365.7H213.957ZM230.131 365.7V355.718H232.074V365.7H230.131ZM231.112 354.178C230.774 354.178 230.484 354.066 230.241 353.84C230.003 353.611 229.884 353.338 229.884 353.021C229.884 352.701 230.003 352.428 230.241 352.203C230.484 351.973 230.774 351.858 231.112 351.858C231.45 351.858 231.738 351.973 231.976 352.203C232.219 352.428 232.34 352.701 232.34 353.021C232.34 353.338 232.219 353.611 231.976 353.84C231.738 354.066 231.45 354.178 231.112 354.178ZM239.347 355.718V357.278H233.895V355.718H239.347ZM235.357 353.327H237.3V362.769C237.3 363.146 237.357 363.43 237.469 363.621C237.582 363.807 237.727 363.935 237.905 364.004C238.087 364.069 238.284 364.102 238.496 364.102C238.652 364.102 238.788 364.091 238.905 364.069C239.022 364.047 239.113 364.03 239.178 364.017L239.529 365.622C239.417 365.666 239.256 365.709 239.048 365.752C238.84 365.8 238.58 365.826 238.268 365.83C237.757 365.839 237.281 365.748 236.839 365.557C236.397 365.367 236.039 365.072 235.767 364.673C235.494 364.275 235.357 363.774 235.357 363.172V353.327Z" fill="white"/>
</g>
<g filter="url(#filter1_ddd_455_3065)">
<path d="M413.58 135.42C413.58 127.334 420.135 120.78 428.22 120.78H645.99C654.076 120.78 660.63 127.334 660.63 135.42V398.94C660.63 407.025 654.076 413.58 645.99 413.58H428.22C420.135 413.58 413.58 407.025 413.58 398.94V135.42Z" fill="white"/>
<rect x="473.97" y="234.24" width="126.27" height="12.81" rx="6.405" fill="#C1B4E6"/>
<rect x="473.97" y="261.69" width="126.27" height="14.64" rx="7.32" fill="#C1B4E6"/>
<rect x="567.3" y="305.61" width="71.28" height="36.64" rx="14.64" fill="#4F3895"/>
<path d="M594.144 317.621V330.93H592.299L585.534 321.169H585.41V330.93H583.402V317.621H585.261L592.032 327.395H592.156V317.621H594.144ZM601.22 331.132C600.236 331.132 599.389 330.922 598.679 330.501C597.972 330.077 597.427 329.481 597.041 328.714C596.66 327.943 596.469 327.04 596.469 326.004C596.469 324.982 596.66 324.081 597.041 323.301C597.427 322.521 597.964 321.912 598.653 321.475C599.346 321.037 600.156 320.818 601.083 320.818C601.646 320.818 602.192 320.912 602.721 321.098C603.249 321.284 603.724 321.577 604.144 321.975C604.564 322.374 604.896 322.891 605.138 323.528C605.381 324.161 605.502 324.93 605.502 325.835V326.524H597.567V325.068H603.598C603.598 324.557 603.494 324.105 603.286 323.71C603.078 323.312 602.786 322.998 602.409 322.768C602.036 322.538 601.599 322.424 601.096 322.424C600.55 322.424 600.074 322.558 599.666 322.826C599.264 323.091 598.952 323.437 598.731 323.866C598.514 324.291 598.406 324.752 598.406 325.25V326.388C598.406 327.055 598.523 327.622 598.757 328.09C598.995 328.558 599.326 328.916 599.751 329.163C600.175 329.405 600.672 329.526 601.239 329.526C601.607 329.526 601.943 329.474 602.246 329.371C602.55 329.262 602.812 329.102 603.033 328.89C603.254 328.677 603.423 328.415 603.54 328.103L605.379 328.435C605.231 328.976 604.967 329.451 604.586 329.858C604.209 330.261 603.735 330.575 603.163 330.8C602.595 331.021 601.947 331.132 601.22 331.132ZM608.959 320.948L611.162 324.835L613.385 320.948H615.51L612.397 325.939L615.536 330.93H613.411L611.162 327.2L608.92 330.93H606.789L609.895 325.939L606.828 320.948H608.959ZM622.165 320.948V322.508H616.712V320.948H622.165ZM618.174 318.557H620.117V327.999C620.117 328.376 620.174 328.66 620.286 328.851C620.399 329.037 620.544 329.165 620.722 329.234C620.904 329.299 621.101 329.332 621.313 329.332C621.469 329.332 621.606 329.321 621.723 329.299C621.84 329.277 621.931 329.26 621.996 329.247L622.346 330.852C622.234 330.896 622.074 330.939 621.866 330.982C621.658 331.03 621.398 331.056 621.086 331.06C620.575 331.069 620.098 330.978 619.656 330.787C619.214 330.597 618.857 330.302 618.584 329.903C618.311 329.505 618.174 329.004 618.174 328.402V318.557Z" fill="white"/>
<path d="M464.452 330.93V317.621H469.196C470.232 317.621 471.089 317.81 471.77 318.186C472.45 318.563 472.959 319.079 473.297 319.733C473.635 320.383 473.804 321.115 473.804 321.93C473.804 322.748 473.632 323.485 473.29 324.139C472.952 324.789 472.441 325.305 471.757 325.686C471.076 326.063 470.221 326.251 469.19 326.251H465.927V324.549H469.008C469.662 324.549 470.193 324.436 470.6 324.211C471.007 323.981 471.306 323.669 471.497 323.275C471.687 322.881 471.783 322.432 471.783 321.93C471.783 321.427 471.687 320.981 471.497 320.591C471.306 320.201 471.005 319.896 470.593 319.675C470.186 319.454 469.649 319.343 468.982 319.343H466.46V330.93H464.452ZM476.002 330.93V320.948H477.88V322.534H477.984C478.166 321.997 478.486 321.574 478.946 321.267C479.409 320.955 479.933 320.799 480.518 320.799C480.64 320.799 480.783 320.803 480.947 320.812C481.116 320.821 481.248 320.831 481.344 320.844V322.703C481.266 322.681 481.127 322.657 480.928 322.631C480.728 322.601 480.529 322.586 480.33 322.586C479.871 322.586 479.461 322.683 479.102 322.878C478.746 323.069 478.465 323.336 478.257 323.678C478.049 324.016 477.945 324.401 477.945 324.835V330.93H476.002ZM486.97 331.132C485.986 331.132 485.139 330.922 484.429 330.501C483.723 330.077 483.177 329.481 482.791 328.714C482.41 327.943 482.219 327.04 482.219 326.004C482.219 324.982 482.41 324.081 482.791 323.301C483.177 322.521 483.714 321.912 484.403 321.475C485.096 321.037 485.906 320.818 486.833 320.818C487.396 320.818 487.942 320.912 488.471 321.098C488.999 321.284 489.474 321.577 489.894 321.975C490.314 322.374 490.646 322.891 490.888 323.528C491.131 324.161 491.252 324.93 491.252 325.835V326.524H483.318V325.068H489.348C489.348 324.557 489.244 324.105 489.036 323.71C488.828 323.312 488.536 322.998 488.159 322.768C487.786 322.538 487.349 322.424 486.846 322.424C486.3 322.424 485.824 322.558 485.417 322.826C485.014 323.091 484.702 323.437 484.481 323.866C484.264 324.291 484.156 324.752 484.156 325.25V326.388C484.156 327.055 484.273 327.622 484.507 328.09C484.745 328.558 485.076 328.916 485.501 329.163C485.926 329.405 486.422 329.526 486.989 329.526C487.358 329.526 487.693 329.474 487.997 329.371C488.3 329.262 488.562 329.102 488.783 328.89C489.004 328.677 489.173 328.415 489.29 328.103L491.129 328.435C490.982 328.976 490.717 329.451 490.336 329.858C489.959 330.261 489.485 330.575 488.913 330.8C488.345 331.021 487.698 331.132 486.97 331.132ZM501.661 320.948L498.042 330.93H495.962L492.336 320.948H494.422L496.95 328.63H497.054L499.575 320.948H501.661Z" fill="#4F3895"/>
<rect x="449.265" y="306.525" width="67.45" height="34.81" rx="13.725" stroke="#4F3895" stroke-width="1.83"/>
<path d="M413.58 135.42C413.58 120.26 425.87 107.97 441.03 107.97H633.18C648.34 107.97 660.63 120.26 660.63 135.42C660.63 134.409 654.076 133.59 645.99 133.59H428.22C420.135 133.59 413.58 134.409 413.58 135.42ZM660.63 413.58H413.58H660.63ZM413.58 413.58V120.78V413.58ZM660.63 120.78V413.58V120.78Z" fill="#FDE7FD"/>
</g>
<path d="M107.284 448.52C107.173 447.535 106.715 446.773 105.911 446.232C105.107 445.685 104.095 445.411 102.875 445.411C102.002 445.411 101.246 445.549 100.608 445.827C99.9708 446.097 99.4751 446.471 99.1216 446.95C98.775 447.421 98.6017 447.958 98.6017 448.561C98.6017 449.067 98.7196 449.504 98.9552 449.871C99.1979 450.239 99.5133 450.547 99.9014 450.797C100.297 451.039 100.719 451.244 101.17 451.41C101.621 451.57 102.054 451.701 102.47 451.805L104.549 452.346C105.229 452.512 105.925 452.738 106.639 453.022C107.353 453.306 108.015 453.68 108.625 454.145C109.235 454.609 109.727 455.185 110.102 455.871C110.483 456.557 110.673 457.379 110.673 458.335C110.673 459.541 110.362 460.612 109.738 461.548C109.121 462.484 108.223 463.222 107.045 463.763C105.873 464.303 104.456 464.574 102.792 464.574C101.198 464.574 99.8183 464.321 98.6537 463.815C97.4892 463.309 96.5776 462.591 95.9191 461.662C95.2606 460.727 94.8967 459.617 94.8274 458.335H98.0506C98.113 459.105 98.3626 459.746 98.7993 460.259C99.2429 460.765 99.8079 461.142 100.494 461.392C101.187 461.635 101.946 461.756 102.771 461.756C103.679 461.756 104.487 461.614 105.194 461.33C105.908 461.039 106.469 460.636 106.878 460.124C107.287 459.604 107.492 458.997 107.492 458.304C107.492 457.673 107.312 457.157 106.951 456.755C106.598 456.353 106.116 456.02 105.506 455.756C104.903 455.493 104.22 455.261 103.457 455.06L100.941 454.374C99.236 453.909 97.8843 453.226 96.8861 452.325C95.8949 451.424 95.3992 450.232 95.3992 448.748C95.3992 447.521 95.732 446.45 96.3974 445.535C97.0629 444.62 97.964 443.91 99.1008 443.404C100.238 442.891 101.52 442.635 102.948 442.635C104.39 442.635 105.662 442.888 106.764 443.394C107.873 443.9 108.746 444.596 109.384 445.484C110.022 446.364 110.355 447.376 110.382 448.52H107.284ZM120.991 464.543C119.445 464.543 118.114 464.192 116.998 463.492C115.889 462.785 115.036 461.811 114.44 460.571C113.844 459.33 113.546 457.909 113.546 456.308C113.546 454.685 113.851 453.254 114.461 452.013C115.071 450.766 115.93 449.792 117.039 449.092C118.149 448.391 119.455 448.041 120.959 448.041C122.173 448.041 123.254 448.267 124.204 448.717C125.153 449.161 125.919 449.785 126.501 450.589C127.091 451.393 127.441 452.332 127.552 453.407H124.526C124.359 452.658 123.978 452.013 123.382 451.473C122.793 450.932 122.003 450.662 121.011 450.662C120.145 450.662 119.386 450.89 118.734 451.348C118.09 451.798 117.587 452.443 117.227 453.282C116.866 454.114 116.686 455.098 116.686 456.235C116.686 457.399 116.863 458.404 117.216 459.25C117.57 460.096 118.069 460.751 118.714 461.215C119.365 461.68 120.131 461.912 121.011 461.912C121.601 461.912 122.134 461.804 122.613 461.59C123.098 461.368 123.503 461.052 123.829 460.643C124.162 460.234 124.394 459.742 124.526 459.167H127.552C127.441 460.2 127.104 461.122 126.543 461.933C125.982 462.744 125.229 463.381 124.287 463.846C123.351 464.31 122.252 464.543 120.991 464.543ZM130.876 464.22V448.249H133.881V450.786H134.048C134.339 449.927 134.852 449.251 135.586 448.759C136.328 448.26 137.167 448.01 138.103 448.01C138.297 448.01 138.526 448.017 138.789 448.031C139.059 448.045 139.271 448.062 139.423 448.083V451.057C139.298 451.022 139.077 450.984 138.758 450.942C138.439 450.894 138.12 450.87 137.801 450.87C137.066 450.87 136.411 451.025 135.836 451.337C135.268 451.642 134.817 452.069 134.484 452.616C134.152 453.157 133.985 453.774 133.985 454.467V464.22H130.876ZM148.269 464.543C146.772 464.543 145.465 464.199 144.349 463.513C143.233 462.827 142.367 461.867 141.75 460.633C141.133 459.399 140.824 457.957 140.824 456.308C140.824 454.651 141.133 453.202 141.75 451.961C142.367 450.72 143.233 449.757 144.349 449.071C145.465 448.384 146.772 448.041 148.269 448.041C149.766 448.041 151.073 448.384 152.189 449.071C153.305 449.757 154.172 450.72 154.788 451.961C155.405 453.202 155.714 454.651 155.714 456.308C155.714 457.957 155.405 459.399 154.788 460.633C154.172 461.867 153.305 462.827 152.189 463.513C151.073 464.199 149.766 464.543 148.269 464.543ZM148.279 461.933C149.25 461.933 150.054 461.676 150.692 461.163C151.329 460.65 151.801 459.968 152.106 459.115C152.418 458.262 152.574 457.323 152.574 456.297C152.574 455.278 152.418 454.342 152.106 453.49C151.801 452.63 151.329 451.94 150.692 451.421C150.054 450.901 149.25 450.641 148.279 450.641C147.302 450.641 146.491 450.901 145.846 451.421C145.209 451.94 144.734 452.63 144.422 453.49C144.117 454.342 143.964 455.278 143.964 456.297C143.964 457.323 144.117 458.262 144.422 459.115C144.734 459.968 145.209 460.65 145.846 461.163C146.491 461.676 147.302 461.933 148.279 461.933ZM162.293 442.926V464.22H159.184V442.926H162.293ZM169.584 442.926V464.22H166.475V442.926H169.584ZM191.633 457.597V448.249H194.752V464.22H191.695V461.454H191.529C191.161 462.307 190.572 463.018 189.761 463.586C188.957 464.147 187.955 464.428 186.756 464.428C185.73 464.428 184.822 464.203 184.032 463.752C183.249 463.295 182.632 462.619 182.181 461.725C181.738 460.831 181.516 459.725 181.516 458.408V448.249H184.625V458.034C184.625 459.122 184.926 459.988 185.529 460.633C186.132 461.278 186.916 461.6 187.879 461.6C188.461 461.6 189.04 461.454 189.616 461.163C190.198 460.872 190.68 460.432 191.061 459.843C191.449 459.254 191.64 458.505 191.633 457.597ZM198.929 470.209V448.249H201.966V450.838H202.225C202.406 450.506 202.666 450.121 203.005 449.684C203.345 449.247 203.816 448.866 204.419 448.54C205.022 448.208 205.82 448.041 206.811 448.041C208.1 448.041 209.251 448.367 210.263 449.019C211.275 449.67 212.069 450.61 212.644 451.837C213.226 453.063 213.517 454.54 213.517 456.266C213.517 457.992 213.23 459.472 212.654 460.706C212.079 461.933 211.289 462.879 210.284 463.544C209.279 464.203 208.131 464.532 206.842 464.532C205.872 464.532 205.078 464.369 204.461 464.043C203.851 463.718 203.373 463.336 203.026 462.9C202.68 462.463 202.413 462.075 202.225 461.735H202.038V470.209H198.929ZM201.976 456.235C201.976 457.358 202.139 458.342 202.465 459.188C202.79 460.033 203.262 460.695 203.879 461.174C204.496 461.645 205.251 461.881 206.145 461.881C207.074 461.881 207.851 461.635 208.475 461.142C209.098 460.643 209.57 459.968 209.889 459.115C210.214 458.262 210.377 457.302 210.377 456.235C210.377 455.181 210.218 454.235 209.899 453.396C209.587 452.557 209.116 451.895 208.485 451.41C207.861 450.925 207.081 450.682 206.145 450.682C205.244 450.682 204.482 450.915 203.858 451.379C203.241 451.843 202.773 452.492 202.454 453.323C202.135 454.155 201.976 455.126 201.976 456.235ZM232.205 448.249V450.745H223.481V448.249H232.205ZM225.821 444.423H228.929V459.531C228.929 460.134 229.02 460.588 229.2 460.893C229.38 461.191 229.612 461.395 229.896 461.506C230.188 461.61 230.503 461.662 230.843 461.662C231.092 461.662 231.311 461.645 231.498 461.61C231.685 461.576 231.83 461.548 231.934 461.527L232.496 464.095C232.316 464.165 232.059 464.234 231.726 464.303C231.394 464.38 230.978 464.421 230.479 464.428C229.661 464.442 228.898 464.296 228.191 463.991C227.484 463.686 226.912 463.215 226.476 462.577C226.039 461.94 225.821 461.139 225.821 460.175V444.423ZM242.2 464.543C240.702 464.543 239.396 464.199 238.28 463.513C237.164 462.827 236.297 461.867 235.68 460.633C235.063 459.399 234.755 457.957 234.755 456.308C234.755 454.651 235.063 453.202 235.68 451.961C236.297 450.72 237.164 449.757 238.28 449.071C239.396 448.384 240.702 448.041 242.2 448.041C243.697 448.041 245.003 448.384 246.119 449.071C247.236 449.757 248.102 450.72 248.719 451.961C249.336 453.202 249.644 454.651 249.644 456.308C249.644 457.957 249.336 459.399 248.719 460.633C248.102 461.867 247.236 462.827 246.119 463.513C245.003 464.199 243.697 464.543 242.2 464.543ZM242.21 461.933C243.18 461.933 243.984 461.676 244.622 461.163C245.26 460.65 245.731 459.968 246.036 459.115C246.348 458.262 246.504 457.323 246.504 456.297C246.504 455.278 246.348 454.342 246.036 453.49C245.731 452.63 245.26 451.94 244.622 451.421C243.984 450.901 243.18 450.641 242.21 450.641C241.233 450.641 240.422 450.901 239.777 451.421C239.139 451.94 238.664 452.63 238.352 453.49C238.047 454.342 237.895 455.278 237.895 456.297C237.895 457.323 238.047 458.262 238.352 459.115C238.664 459.968 239.139 460.65 239.777 461.163C240.422 461.676 241.233 461.933 242.21 461.933ZM267.747 464.543C266.173 464.543 264.818 464.206 263.681 463.534C262.551 462.855 261.678 461.902 261.061 460.675C260.451 459.441 260.146 457.995 260.146 456.339C260.146 454.703 260.451 453.261 261.061 452.013C261.678 450.766 262.537 449.792 263.64 449.092C264.749 448.391 266.045 448.041 267.528 448.041C268.43 448.041 269.303 448.19 270.149 448.488C270.994 448.787 271.753 449.254 272.426 449.892C273.098 450.53 273.628 451.358 274.017 452.377C274.405 453.389 274.599 454.62 274.599 456.068V457.171H261.903V454.841H271.552C271.552 454.024 271.386 453.299 271.053 452.668C270.721 452.031 270.253 451.528 269.65 451.161C269.053 450.793 268.353 450.61 267.549 450.61C266.676 450.61 265.913 450.824 265.262 451.254C264.617 451.677 264.118 452.232 263.764 452.918C263.418 453.597 263.245 454.335 263.245 455.133V456.952C263.245 458.02 263.432 458.928 263.806 459.676C264.187 460.425 264.718 460.997 265.397 461.392C266.076 461.78 266.87 461.974 267.778 461.974C268.367 461.974 268.904 461.891 269.39 461.725C269.875 461.551 270.294 461.295 270.648 460.955C271.001 460.616 271.272 460.196 271.459 459.697L274.401 460.227C274.166 461.094 273.743 461.853 273.133 462.505C272.53 463.149 271.771 463.652 270.856 464.012C269.948 464.366 268.911 464.543 267.747 464.543ZM284.027 464.532C282.738 464.532 281.587 464.203 280.575 463.544C279.57 462.879 278.78 461.933 278.204 460.706C277.636 459.472 277.352 457.992 277.352 456.266C277.352 454.54 277.639 453.063 278.215 451.837C278.797 450.61 279.594 449.67 280.606 449.019C281.618 448.367 282.765 448.041 284.048 448.041C285.039 448.041 285.836 448.208 286.439 448.54C287.049 448.866 287.521 449.247 287.853 449.684C288.193 450.121 288.456 450.506 288.644 450.838H288.831V442.926H291.94V464.22H288.904V461.735H288.644C288.456 462.075 288.186 462.463 287.833 462.9C287.486 463.336 287.008 463.718 286.398 464.043C285.788 464.369 284.997 464.532 284.027 464.532ZM284.713 461.881C285.607 461.881 286.363 461.645 286.98 461.174C287.604 460.695 288.075 460.033 288.394 459.188C288.72 458.342 288.883 457.358 288.883 456.235C288.883 455.126 288.723 454.155 288.404 453.323C288.086 452.492 287.618 451.843 287.001 451.379C286.384 450.915 285.621 450.682 284.713 450.682C283.777 450.682 282.998 450.925 282.374 451.41C281.75 451.895 281.279 452.557 280.96 453.396C280.648 454.235 280.492 455.181 280.492 456.235C280.492 457.302 280.651 458.262 280.97 459.115C281.289 459.968 281.76 460.643 282.384 461.142C283.015 461.635 283.791 461.881 284.713 461.881ZM296.377 464.22V448.249H299.486V464.22H296.377ZM297.947 445.785C297.406 445.785 296.942 445.605 296.554 445.244C296.172 444.877 295.982 444.44 295.982 443.934C295.982 443.421 296.172 442.985 296.554 442.624C296.942 442.257 297.406 442.073 297.947 442.073C298.488 442.073 298.949 442.257 299.33 442.624C299.718 442.985 299.912 443.421 299.912 443.934C299.912 444.44 299.718 444.877 299.33 445.244C298.949 445.605 298.488 445.785 297.947 445.785ZM311.123 448.249V450.745H302.4V448.249H311.123ZM304.739 444.423H307.848V459.531C307.848 460.134 307.938 460.588 308.119 460.893C308.299 461.191 308.531 461.395 308.815 461.506C309.106 461.61 309.422 461.662 309.761 461.662C310.011 461.662 310.229 461.645 310.416 461.61C310.604 461.576 310.749 461.548 310.853 461.527L311.415 464.095C311.234 464.165 310.978 464.234 310.645 464.303C310.312 464.38 309.897 464.421 309.397 464.428C308.58 464.442 307.817 464.296 307.11 463.991C306.403 463.686 305.831 463.215 305.394 462.577C304.958 461.94 304.739 461.139 304.739 460.175V444.423Z" fill="black"/>
<path d="M118.638 91.5619C118.544 90.7716 118.165 90.1582 117.499 89.7215C116.834 89.2848 116.018 89.0664 115.051 89.0664C114.344 89.0664 113.725 89.1808 113.195 89.4095C112.67 89.6383 112.259 89.9528 111.963 90.3531C111.672 90.7534 111.526 91.2083 111.526 91.7178C111.526 92.1441 111.627 92.5106 111.83 92.8174C112.038 93.1189 112.303 93.3711 112.626 93.5738C112.948 93.7714 113.286 93.9351 113.639 94.0651C113.993 94.1899 114.318 94.2913 114.614 94.3692L116.236 94.8059C116.652 94.9151 117.115 95.0659 117.624 95.2582C118.139 95.4506 118.63 95.7131 119.098 96.0459C119.571 96.3734 119.961 96.7945 120.268 97.3092C120.575 97.8239 120.728 98.4556 120.728 99.2042C120.728 100.067 120.502 100.847 120.05 101.544C119.602 102.24 118.947 102.794 118.084 103.205C117.227 103.615 116.184 103.821 114.957 103.821C113.813 103.821 112.823 103.636 111.986 103.267C111.154 102.898 110.499 102.383 110.021 101.723C109.548 101.063 109.28 100.296 109.218 99.4225H111.214C111.266 100.026 111.469 100.525 111.822 100.92C112.181 101.31 112.633 101.601 113.179 101.793C113.73 101.98 114.323 102.074 114.957 102.074C115.695 102.074 116.358 101.954 116.946 101.715C117.533 101.471 117.999 101.133 118.342 100.701C118.685 100.265 118.856 99.7553 118.856 99.173C118.856 98.6427 118.708 98.2112 118.412 97.8785C118.116 97.5457 117.726 97.2754 117.242 97.0675C116.759 96.8595 116.236 96.6775 115.675 96.5216L113.71 95.9601C112.462 95.6014 111.474 95.0893 110.746 94.4238C110.018 93.7584 109.654 92.8876 109.654 91.8114C109.654 90.9172 109.896 90.1374 110.38 89.4719C110.868 88.8013 111.523 88.2814 112.345 87.9123C113.171 87.5379 114.094 87.3508 115.113 87.3508C116.143 87.3508 117.058 87.5353 117.858 87.9045C118.659 88.2684 119.293 88.7675 119.761 89.4017C120.234 90.036 120.484 90.756 120.51 91.5619H118.638ZM126.281 87.5691V103.54H124.347V87.5691H126.281ZM143.262 87.5691V103.54H141.391L132.688 91.0004H132.532V103.54H130.598V87.5691H132.469L141.204 100.14H141.359V87.5691H143.262ZM158.489 92.56C158.317 92.035 158.091 91.5645 157.811 91.1485C157.535 90.7274 157.205 90.3687 156.82 90.0724C156.441 89.776 156.009 89.5499 155.526 89.3939C155.042 89.238 154.512 89.16 153.935 89.16C152.989 89.16 152.128 89.4043 151.354 89.893C150.579 90.3817 149.963 91.1018 149.505 92.0531C149.048 93.0045 148.819 94.1717 148.819 95.5546C148.819 96.9375 149.05 98.1046 149.513 99.056C149.976 100.007 150.602 100.727 151.393 101.216C152.183 101.705 153.072 101.949 154.06 101.949C154.975 101.949 155.78 101.754 156.477 101.364C157.179 100.969 157.725 100.413 158.115 99.6955C158.51 98.9728 158.707 98.1228 158.707 97.1454L159.3 97.2702H154.496V95.5546H160.579V97.2702C160.579 98.5855 160.298 99.7293 159.737 100.701C159.18 101.674 158.411 102.427 157.428 102.963C156.451 103.493 155.328 103.758 154.06 103.758C152.645 103.758 151.403 103.426 150.332 102.76C149.266 102.095 148.434 101.149 147.836 99.9216C147.244 98.6947 146.947 97.239 146.947 95.5546C146.947 94.2913 147.116 93.1553 147.454 92.1467C147.798 91.133 148.281 90.2699 148.905 89.5577C149.529 88.8455 150.267 88.2996 151.12 87.9201C151.972 87.5405 152.911 87.3508 153.935 87.3508C154.777 87.3508 155.562 87.4781 156.29 87.7329C157.023 87.9824 157.675 88.3386 158.247 88.8013C158.824 89.2588 159.305 89.8072 159.69 90.4467C160.075 91.081 160.34 91.7854 160.485 92.56H158.489ZM164.33 103.54V87.5691H166.264V101.824H173.688V103.54H164.33ZM177.122 103.54V87.5691H186.761V89.2848H179.056V94.6812H186.262V96.3968H179.056V101.824H186.886V103.54H177.122ZM197.301 103.54V87.5691H202.698C203.951 87.5691 204.975 87.7953 205.77 88.2476C206.571 88.6947 207.164 89.3004 207.548 90.0646C207.933 90.8288 208.125 91.6814 208.125 92.6224C208.125 93.5634 207.933 94.4186 207.548 95.1881C207.169 95.9575 206.581 96.571 205.786 97.0285C204.99 97.4808 203.971 97.7069 202.729 97.7069H198.861V95.9913H202.667C203.524 95.9913 204.213 95.8431 204.733 95.5468C205.253 95.2505 205.63 94.8501 205.864 94.3458C206.103 93.8364 206.223 93.2619 206.223 92.6224C206.223 91.983 206.103 91.4111 205.864 90.9068C205.63 90.4025 205.25 90.0074 204.725 89.7215C204.2 89.4303 203.504 89.2848 202.635 89.2848H199.235V103.54H197.301ZM210.705 103.54H208.678L214.542 87.5691H216.538L222.403 103.54H220.375L215.603 90.0958H215.478L210.705 103.54ZM211.454 97.3014H219.626V99.017H211.454V97.3014ZM235.497 92.56C235.325 92.035 235.099 91.5645 234.818 91.1485C234.543 90.7274 234.212 90.3687 233.828 90.0724C233.448 89.776 233.017 89.5499 232.533 89.3939C232.05 89.238 231.519 89.16 230.942 89.16C229.996 89.16 229.136 89.4043 228.361 89.893C227.586 90.3817 226.97 91.1018 226.513 92.0531C226.055 93.0045 225.827 94.1717 225.827 95.5546C225.827 96.9375 226.058 98.1046 226.521 99.056C226.983 100.007 227.61 100.727 228.4 101.216C229.19 101.705 230.079 101.949 231.067 101.949C231.982 101.949 232.788 101.754 233.485 101.364C234.186 100.969 234.732 100.413 235.122 99.6955C235.517 98.9728 235.715 98.1228 235.715 97.1454L236.308 97.2702H231.504V95.5546H237.586V97.2702C237.586 98.5855 237.306 99.7293 236.744 100.701C236.188 101.674 235.419 102.427 234.436 102.963C233.459 103.493 232.336 103.758 231.067 103.758C229.653 103.758 228.41 103.426 227.34 102.76C226.274 102.095 225.442 101.149 224.844 99.9216C224.251 98.6947 223.955 97.239 223.955 95.5546C223.955 94.2913 224.124 93.1553 224.462 92.1467C224.805 91.133 225.289 90.2699 225.912 89.5577C226.536 88.8455 227.275 88.2996 228.127 87.9201C228.98 87.5405 229.918 87.3508 230.942 87.3508C231.785 87.3508 232.57 87.4781 233.297 87.7329C234.03 87.9824 234.683 88.3386 235.255 88.8013C235.832 89.2588 236.313 89.8072 236.697 90.4467C237.082 91.081 237.347 91.7854 237.493 92.56H235.497ZM241.338 103.54V87.5691H250.977V89.2848H243.272V94.6812H250.478V96.3968H243.272V101.824H251.101V103.54H241.338ZM261.517 103.54V87.5691H271.093V89.2848H263.451V94.6812H270.376V96.3968H263.451V103.54H261.517ZM288.32 95.5546C288.32 97.239 288.016 98.6947 287.408 99.9216C286.8 101.149 285.965 102.095 284.905 102.76C283.844 103.426 282.633 103.758 281.271 103.758C279.909 103.758 278.697 103.426 277.637 102.76C276.576 102.095 275.742 101.149 275.134 99.9216C274.525 98.6947 274.221 97.239 274.221 95.5546C274.221 93.8702 274.525 92.4145 275.134 91.1875C275.742 89.9606 276.576 89.0144 277.637 88.349C278.697 87.6835 279.909 87.3508 281.271 87.3508C282.633 87.3508 283.844 87.6835 284.905 88.349C285.965 89.0144 286.8 89.9606 287.408 91.1875C288.016 92.4145 288.32 93.8702 288.32 95.5546ZM286.449 95.5546C286.449 94.1717 286.218 93.0045 285.755 92.0531C285.297 91.1018 284.676 90.3817 283.891 89.893C283.111 89.4043 282.238 89.16 281.271 89.16C280.304 89.16 279.428 89.4043 278.643 89.893C277.863 90.3817 277.242 91.1018 276.779 92.0531C276.321 93.0045 276.093 94.1717 276.093 95.5546C276.093 96.9375 276.321 98.1046 276.779 99.056C277.242 100.007 277.863 100.727 278.643 101.216C279.428 101.705 280.304 101.949 281.271 101.949C282.238 101.949 283.111 101.705 283.891 101.216C284.676 100.727 285.297 100.007 285.755 99.056C286.218 98.1046 286.449 96.9375 286.449 95.5546ZM292.012 103.54V87.5691H297.408C298.656 87.5691 299.68 87.7823 300.481 88.2086C301.281 88.6297 301.874 89.2094 302.259 89.9476C302.643 90.6858 302.836 91.5255 302.836 92.4665C302.836 93.4075 302.643 94.2419 302.259 94.9697C301.874 95.6976 301.284 96.2694 300.488 96.6853C299.693 97.096 298.676 97.3014 297.439 97.3014H293.072V95.5546H297.377C298.229 95.5546 298.916 95.4298 299.436 95.1803C299.961 94.9307 300.34 94.5772 300.574 94.1197C300.813 93.657 300.933 93.1059 300.933 92.4665C300.933 91.827 300.813 91.2681 300.574 90.7898C300.335 90.3115 299.953 89.9424 299.428 89.6825C298.903 89.4173 298.209 89.2848 297.346 89.2848H293.946V103.54H292.012ZM299.529 96.3656L303.459 103.54H301.214L297.346 96.3656H299.529ZM306.497 87.5691H308.806L314.233 100.826H314.42L319.848 87.5691H322.156V103.54H320.347V91.4059H320.191L315.2 103.54H313.454L308.463 91.4059H308.307V103.54H306.497V87.5691Z" fill="black"/>
<path d="M435.644 87.5691H437.952L443.38 100.826H443.567L448.995 87.5691H451.303V103.54H449.494V91.4059H449.338L444.347 103.54H442.6L437.609 91.4059H437.453V103.54H435.644V87.5691ZM466.101 87.5691H468.035V98.1436C468.035 99.2354 467.777 100.21 467.263 101.068C466.753 101.921 466.033 102.594 465.103 103.088C464.172 103.576 463.08 103.821 461.827 103.821C460.574 103.821 459.483 103.576 458.552 103.088C457.621 102.594 456.899 101.921 456.384 101.068C455.875 100.21 455.62 99.2354 455.62 98.1436V87.5691H457.554V97.9877C457.554 98.7675 457.725 99.4615 458.068 100.07C458.412 100.673 458.9 101.149 459.535 101.497C460.174 101.84 460.938 102.012 461.827 102.012C462.716 102.012 463.481 101.84 464.12 101.497C464.759 101.149 465.248 100.673 465.586 100.07C465.929 99.4615 466.101 98.7675 466.101 97.9877V87.5691ZM472.336 103.54V87.5691H474.27V101.824H481.694V103.54H472.336ZM482.131 89.2848V87.5691H494.109V89.2848H489.087V103.54H487.153V89.2848H482.131ZM499.467 87.5691V103.54H497.533V87.5691H499.467ZM510.397 94.6968V96.4124H503.41V94.6968H510.397ZM514.324 103.54V87.5691H519.721C520.974 87.5691 521.998 87.7953 522.793 88.2476C523.594 88.6947 524.186 89.3004 524.571 90.0646C524.956 90.8288 525.148 91.6814 525.148 92.6224C525.148 93.5634 524.956 94.4186 524.571 95.1881C524.192 95.9575 523.604 96.571 522.809 97.0285C522.013 97.4808 520.994 97.7069 519.752 97.7069H515.884V95.9913H519.689C520.547 95.9913 521.236 95.8431 521.756 95.5468C522.276 95.2505 522.653 94.8501 522.887 94.3458C523.126 93.8364 523.245 93.2619 523.245 92.6224C523.245 91.983 523.126 91.4111 522.887 90.9068C522.653 90.4025 522.273 90.0074 521.748 89.7215C521.223 89.4303 520.526 89.2848 519.658 89.2848H516.258V103.54H514.324ZM527.728 103.54H525.701L531.565 87.5691H533.561L539.426 103.54H537.398L532.625 90.0958H532.501L527.728 103.54ZM528.477 97.3014H536.649V99.017H528.477V97.3014ZM552.519 92.56C552.348 92.035 552.122 91.5645 551.841 91.1485C551.565 90.7274 551.235 90.3687 550.851 90.0724C550.471 89.776 550.04 89.5499 549.556 89.3939C549.073 89.238 548.542 89.16 547.965 89.16C547.019 89.16 546.159 89.4043 545.384 89.893C544.609 90.3817 543.993 91.1018 543.536 92.0531C543.078 93.0045 542.85 94.1717 542.85 95.5546C542.85 96.9375 543.081 98.1046 543.544 99.056C544.006 100.007 544.633 100.727 545.423 101.216C546.213 101.705 547.102 101.949 548.09 101.949C549.005 101.949 549.811 101.754 550.507 101.364C551.209 100.969 551.755 100.413 552.145 99.6955C552.54 98.9728 552.738 98.1228 552.738 97.1454L553.33 97.2702H548.527V95.5546H554.609V97.2702C554.609 98.5855 554.329 99.7293 553.767 100.701C553.211 101.674 552.441 102.427 551.459 102.963C550.481 103.493 549.359 103.758 548.09 103.758C546.676 103.758 545.433 103.426 544.362 102.76C543.297 102.095 542.465 101.149 541.867 99.9216C541.274 98.6947 540.978 97.239 540.978 95.5546C540.978 94.2913 541.147 93.1553 541.485 92.1467C541.828 91.133 542.311 90.2699 542.935 89.5577C543.559 88.8455 544.297 88.2996 545.15 87.9201C546.003 87.5405 546.941 87.3508 547.965 87.3508C548.807 87.3508 549.592 87.4781 550.32 87.7329C551.053 87.9824 551.706 88.3386 552.278 88.8013C552.855 89.2588 553.336 89.8072 553.72 90.4467C554.105 91.081 554.37 91.7854 554.516 92.56H552.519ZM558.361 103.54V87.5691H568V89.2848H560.295V94.6812H567.5V96.3968H560.295V101.824H568.124V103.54H558.361ZM578.54 103.54V87.5691H588.116V89.2848H580.474V94.6812H587.399V96.3968H580.474V103.54H578.54ZM605.343 95.5546C605.343 97.239 605.039 98.6947 604.431 99.9216C603.823 101.149 602.988 102.095 601.928 102.76C600.867 103.426 599.656 103.758 598.294 103.758C596.932 103.758 595.72 103.426 594.66 102.76C593.599 102.095 592.765 101.149 592.156 99.9216C591.548 98.6947 591.244 97.239 591.244 95.5546C591.244 93.8702 591.548 92.4145 592.156 91.1875C592.765 89.9606 593.599 89.0144 594.66 88.349C595.72 87.6835 596.932 87.3508 598.294 87.3508C599.656 87.3508 600.867 87.6835 601.928 88.349C602.988 89.0144 603.823 89.9606 604.431 91.1875C605.039 92.4145 605.343 93.8702 605.343 95.5546ZM603.472 95.5546C603.472 94.1717 603.24 93.0045 602.778 92.0531C602.32 91.1018 601.699 90.3817 600.914 89.893C600.134 89.4043 599.261 89.16 598.294 89.16C597.327 89.16 596.451 89.4043 595.666 89.893C594.886 90.3817 594.265 91.1018 593.802 92.0531C593.344 93.0045 593.116 94.1717 593.116 95.5546C593.116 96.9375 593.344 98.1046 593.802 99.056C594.265 100.007 594.886 100.727 595.666 101.216C596.451 101.705 597.327 101.949 598.294 101.949C599.261 101.949 600.134 101.705 600.914 101.216C601.699 100.727 602.32 100.007 602.778 99.056C603.24 98.1046 603.472 96.9375 603.472 95.5546ZM609.034 103.54V87.5691H614.431C615.679 87.5691 616.703 87.7823 617.503 88.2086C618.304 88.6297 618.897 89.2094 619.281 89.9476C619.666 90.6858 619.858 91.5255 619.858 92.4665C619.858 93.4075 619.666 94.2419 619.281 94.9697C618.897 95.6976 618.307 96.2694 617.511 96.6853C616.716 97.096 615.699 97.3014 614.462 97.3014H610.095V95.5546H614.4C615.252 95.5546 615.939 95.4298 616.458 95.1803C616.984 94.9307 617.363 94.5772 617.597 94.1197C617.836 93.657 617.956 93.1059 617.956 92.4665C617.956 91.827 617.836 91.2681 617.597 90.7898C617.358 90.3115 616.976 89.9424 616.451 89.6825C615.926 89.4173 615.231 89.2848 614.368 89.2848H610.968V103.54H609.034ZM616.552 96.3656L620.482 103.54H618.236L614.368 96.3656H616.552ZM623.52 87.5691H625.829L631.256 100.826H631.443L636.871 87.5691H639.179V103.54H637.37V91.4059H637.214L632.223 103.54H630.476L625.485 91.4059H625.33V103.54H623.52V87.5691Z" fill="black"/>
<path d="M421.41 458.73V437.435H429C430.657 437.435 432.029 437.737 433.117 438.34C434.206 438.943 435.02 439.768 435.561 440.815C436.102 441.854 436.372 443.026 436.372 444.329C436.372 445.639 436.098 446.818 435.55 447.864C435.01 448.904 434.192 449.729 433.097 450.339C432.008 450.942 430.639 451.244 428.99 451.244H423.77V448.519H428.698C429.745 448.519 430.594 448.339 431.246 447.979C431.897 447.611 432.376 447.112 432.681 446.481C432.986 445.851 433.138 445.133 433.138 444.329C433.138 443.525 432.986 442.811 432.681 442.187C432.376 441.563 431.894 441.075 431.235 440.721C430.584 440.368 429.724 440.191 428.657 440.191H424.622V458.73H421.41ZM439.889 458.73V442.759H442.894V445.296H443.06C443.351 444.437 443.864 443.761 444.599 443.269C445.341 442.769 446.18 442.52 447.115 442.52C447.309 442.52 447.538 442.527 447.802 442.541C448.072 442.555 448.283 442.572 448.436 442.593V445.566C448.311 445.532 448.089 445.494 447.77 445.452C447.452 445.404 447.133 445.379 446.814 445.379C446.079 445.379 445.424 445.535 444.849 445.847C444.28 446.152 443.83 446.579 443.497 447.126C443.164 447.667 442.998 448.284 442.998 448.977V458.73H439.889ZM457.438 459.052C455.864 459.052 454.509 458.716 453.372 458.044C452.242 457.364 451.369 456.411 450.752 455.184C450.142 453.95 449.837 452.505 449.837 450.849C449.837 449.213 450.142 447.771 450.752 446.523C451.369 445.275 452.228 444.301 453.331 443.601C454.44 442.901 455.736 442.551 457.219 442.551C458.12 442.551 458.994 442.7 459.84 442.998C460.685 443.296 461.444 443.764 462.117 444.402C462.789 445.04 463.319 445.868 463.708 446.887C464.096 447.899 464.29 449.129 464.29 450.578V451.68H451.594V449.351H461.243C461.243 448.533 461.077 447.809 460.744 447.178C460.411 446.54 459.944 446.038 459.34 445.67C458.744 445.303 458.044 445.119 457.24 445.119C456.367 445.119 455.604 445.334 454.953 445.764C454.308 446.187 453.809 446.741 453.455 447.428C453.109 448.107 452.935 448.845 452.935 449.642V451.462C452.935 452.529 453.123 453.438 453.497 454.186C453.878 454.935 454.408 455.507 455.088 455.902C455.767 456.29 456.561 456.484 457.469 456.484C458.058 456.484 458.595 456.401 459.081 456.235C459.566 456.061 459.985 455.805 460.339 455.465C460.692 455.125 460.963 454.706 461.15 454.207L464.092 454.737C463.857 455.604 463.434 456.363 462.824 457.014C462.221 457.659 461.462 458.162 460.547 458.522C459.639 458.876 458.602 459.052 457.438 459.052ZM480.944 442.759L475.153 458.73H471.826L466.024 442.759H469.361L473.406 455.049H473.572L477.607 442.759H480.944ZM491.865 458.73V437.435H494.973V445.348H495.161C495.341 445.015 495.601 444.631 495.94 444.194C496.28 443.757 496.751 443.376 497.355 443.05C497.958 442.717 498.755 442.551 499.746 442.551C501.035 442.551 502.186 442.877 503.198 443.529C504.21 444.18 505.004 445.119 505.579 446.346C506.161 447.573 506.453 449.05 506.453 450.776C506.453 452.502 506.165 453.982 505.59 455.216C505.014 456.442 504.224 457.389 503.219 458.054C502.214 458.713 501.067 459.042 499.777 459.042C498.807 459.042 498.013 458.879 497.396 458.553C496.786 458.227 496.308 457.846 495.961 457.409C495.615 456.973 495.348 456.585 495.161 456.245H494.901V458.73H491.865ZM494.911 450.745C494.911 451.867 495.074 452.852 495.4 453.697C495.726 454.543 496.197 455.205 496.814 455.683C497.431 456.155 498.186 456.39 499.081 456.39C500.009 456.39 500.786 456.144 501.41 455.652C502.034 455.153 502.505 454.477 502.824 453.625C503.15 452.772 503.312 451.812 503.312 450.745C503.312 449.691 503.153 448.745 502.834 447.906C502.522 447.067 502.051 446.405 501.42 445.92C500.796 445.435 500.016 445.192 499.081 445.192C498.179 445.192 497.417 445.424 496.793 445.889C496.176 446.353 495.708 447.001 495.389 447.833C495.071 448.665 494.911 449.635 494.911 450.745ZM520.061 452.107V442.759H523.18V458.73H520.123V455.964H519.957C519.589 456.817 519 457.527 518.189 458.096C517.385 458.657 516.383 458.938 515.184 458.938C514.158 458.938 513.25 458.713 512.46 458.262C511.677 457.805 511.06 457.129 510.609 456.235C510.165 455.34 509.944 454.235 509.944 452.918V442.759H513.053V452.543C513.053 453.632 513.354 454.498 513.957 455.143C514.56 455.787 515.343 456.11 516.307 456.11C516.889 456.11 517.468 455.964 518.043 455.673C518.626 455.382 519.107 454.942 519.489 454.353C519.877 453.763 520.068 453.015 520.061 452.107ZM534.812 442.759V445.255H526.089V442.759H534.812ZM528.428 438.933H531.537V454.041C531.537 454.644 531.627 455.098 531.807 455.403C531.988 455.701 532.22 455.905 532.504 456.016C532.795 456.12 533.111 456.172 533.45 456.172C533.7 456.172 533.918 456.155 534.105 456.12C534.292 456.085 534.438 456.058 534.542 456.037L535.104 458.605C534.923 458.675 534.667 458.744 534.334 458.813C534.001 458.889 533.585 458.931 533.086 458.938C532.268 458.952 531.506 458.806 530.799 458.501C530.092 458.196 529.52 457.725 529.083 457.087C528.647 456.449 528.428 455.649 528.428 454.685V438.933ZM545.707 442.759V445.255H536.983V442.759H545.707ZM539.322 438.933H542.431V454.041C542.431 454.644 542.521 455.098 542.702 455.403C542.882 455.701 543.114 455.905 543.398 456.016C543.689 456.12 544.005 456.172 544.344 456.172C544.594 456.172 544.812 456.155 545 456.12C545.187 456.085 545.332 456.058 545.436 456.037L545.998 458.605C545.817 458.675 545.561 458.744 545.228 458.813C544.896 458.889 544.48 458.931 543.981 458.938C543.163 458.952 542.4 458.806 541.693 458.501C540.986 458.196 540.414 457.725 539.977 457.087C539.541 456.449 539.322 455.649 539.322 454.685V438.933ZM555.701 459.052C554.204 459.052 552.897 458.709 551.781 458.023C550.665 457.337 549.799 456.377 549.182 455.143C548.565 453.909 548.257 452.467 548.257 450.817C548.257 449.161 548.565 447.712 549.182 446.471C549.799 445.23 550.665 444.267 551.781 443.58C552.897 442.894 554.204 442.551 555.701 442.551C557.199 442.551 558.505 442.894 559.621 443.58C560.737 444.267 561.604 445.23 562.221 446.471C562.838 447.712 563.146 449.161 563.146 450.817C563.146 452.467 562.838 453.909 562.221 455.143C561.604 456.377 560.737 457.337 559.621 458.023C558.505 458.709 557.199 459.052 555.701 459.052ZM555.712 456.442C556.682 456.442 557.486 456.186 558.124 455.673C558.762 455.16 559.233 454.477 559.538 453.625C559.85 452.772 560.006 451.833 560.006 450.807C560.006 449.788 559.85 448.852 559.538 448C559.233 447.14 558.762 446.45 558.124 445.93C557.486 445.41 556.682 445.151 555.712 445.151C554.734 445.151 553.923 445.41 553.279 445.93C552.641 446.45 552.166 447.14 551.854 448C551.549 448.852 551.397 449.788 551.397 450.807C551.397 451.833 551.549 452.772 551.854 453.625C552.166 454.477 552.641 455.16 553.279 455.673C553.923 456.186 554.734 456.442 555.712 456.442ZM569.725 449.247V458.73H566.616V442.759H569.601V445.359H569.798C570.166 444.513 570.741 443.834 571.524 443.321C572.314 442.808 573.309 442.551 574.508 442.551C575.597 442.551 576.55 442.78 577.368 443.237C578.186 443.688 578.82 444.36 579.27 445.255C579.721 446.149 579.946 447.254 579.946 448.571V458.73H576.837V448.946C576.837 447.788 576.536 446.884 575.933 446.232C575.33 445.573 574.501 445.244 573.448 445.244C572.727 445.244 572.086 445.4 571.524 445.712C570.97 446.024 570.529 446.481 570.204 447.085C569.885 447.681 569.725 448.402 569.725 449.247ZM599.32 442.759V445.255H590.596V442.759H599.32ZM592.936 438.933H596.045V454.041C596.045 454.644 596.135 455.098 596.315 455.403C596.495 455.701 596.727 455.905 597.012 456.016C597.303 456.12 597.618 456.172 597.958 456.172C598.207 456.172 598.426 456.155 598.613 456.12C598.8 456.085 598.946 456.058 599.05 456.037L599.611 458.605C599.431 458.675 599.174 458.744 598.842 458.813C598.509 458.889 598.093 458.931 597.594 458.938C596.776 458.952 596.013 458.806 595.306 458.501C594.599 458.196 594.027 457.725 593.591 457.087C593.154 456.449 592.936 455.649 592.936 454.685V438.933ZM609.315 459.052C607.817 459.052 606.511 458.709 605.395 458.023C604.279 457.337 603.412 456.377 602.795 455.143C602.178 453.909 601.87 452.467 601.87 450.817C601.87 449.161 602.178 447.712 602.795 446.471C603.412 445.23 604.279 444.267 605.395 443.58C606.511 442.894 607.817 442.551 609.315 442.551C610.812 442.551 612.119 442.894 613.235 443.58C614.351 444.267 615.217 445.23 615.834 446.471C616.451 447.712 616.759 449.161 616.759 450.817C616.759 452.467 616.451 453.909 615.834 455.143C615.217 456.377 614.351 457.337 613.235 458.023C612.119 458.709 610.812 459.052 609.315 459.052ZM609.325 456.442C610.296 456.442 611.1 456.186 611.737 455.673C612.375 455.16 612.846 454.477 613.151 453.625C613.463 452.772 613.619 451.833 613.619 450.807C613.619 449.788 613.463 448.852 613.151 448C612.846 447.14 612.375 446.45 611.737 445.93C611.1 445.41 610.296 445.151 609.325 445.151C608.348 445.151 607.537 445.41 606.892 445.93C606.254 446.45 605.779 447.14 605.468 448C605.163 448.852 605.01 449.788 605.01 450.807C605.01 451.833 605.163 452.772 605.468 453.625C605.779 454.477 606.254 455.16 606.892 455.673C607.537 456.186 608.348 456.442 609.325 456.442ZM634.862 459.052C633.288 459.052 631.933 458.716 630.796 458.044C629.667 457.364 628.793 456.411 628.176 455.184C627.566 453.95 627.261 452.505 627.261 450.849C627.261 449.213 627.566 447.771 628.176 446.523C628.793 445.275 629.653 444.301 630.755 443.601C631.864 442.901 633.16 442.551 634.644 442.551C635.545 442.551 636.418 442.7 637.264 442.998C638.109 443.296 638.869 443.764 639.541 444.402C640.213 445.04 640.744 445.868 641.132 446.887C641.52 447.899 641.714 449.129 641.714 450.578V451.68H629.018V449.351H638.667C638.667 448.533 638.501 447.809 638.168 447.178C637.836 446.54 637.368 446.038 636.765 445.67C636.169 445.303 635.468 445.119 634.664 445.119C633.791 445.119 633.028 445.334 632.377 445.764C631.732 446.187 631.233 446.741 630.88 447.428C630.533 448.107 630.36 448.845 630.36 449.642V451.462C630.36 452.529 630.547 453.438 630.921 454.186C631.302 454.935 631.833 455.507 632.512 455.902C633.191 456.29 633.985 456.484 634.893 456.484C635.482 456.484 636.02 456.401 636.505 456.235C636.99 456.061 637.409 455.805 637.763 455.465C638.116 455.125 638.387 454.706 638.574 454.207L641.516 454.737C641.281 455.604 640.858 456.363 640.248 457.014C639.645 457.659 638.886 458.162 637.971 458.522C637.063 458.876 636.026 459.052 634.862 459.052ZM651.142 459.042C649.853 459.042 648.702 458.713 647.69 458.054C646.685 457.389 645.895 456.442 645.319 455.216C644.751 453.982 644.467 452.502 644.467 450.776C644.467 449.05 644.754 447.573 645.33 446.346C645.912 445.119 646.709 444.18 647.721 443.529C648.733 442.877 649.881 442.551 651.163 442.551C652.154 442.551 652.951 442.717 653.554 443.05C654.164 443.376 654.636 443.757 654.969 444.194C655.308 444.631 655.572 445.015 655.759 445.348H655.946V437.435H659.055V458.73H656.019V456.245H655.759C655.572 456.585 655.301 456.973 654.948 457.409C654.601 457.846 654.123 458.227 653.513 458.553C652.903 458.879 652.113 459.042 651.142 459.042ZM651.828 456.39C652.723 456.39 653.478 456.155 654.095 455.683C654.719 455.205 655.19 454.543 655.509 453.697C655.835 452.852 655.998 451.867 655.998 450.745C655.998 449.635 655.838 448.665 655.52 447.833C655.201 447.001 654.733 446.353 654.116 445.889C653.499 445.424 652.736 445.192 651.828 445.192C650.893 445.192 650.113 445.435 649.489 445.92C648.865 446.405 648.394 447.067 648.075 447.906C647.763 448.745 647.607 449.691 647.607 450.745C647.607 451.812 647.766 452.772 648.085 453.625C648.404 454.477 648.875 455.153 649.499 455.652C650.13 456.144 650.906 456.39 651.828 456.39ZM663.492 458.73V442.759H666.601V458.73H663.492ZM665.062 440.295C664.521 440.295 664.057 440.115 663.669 439.754C663.288 439.387 663.097 438.95 663.097 438.444C663.097 437.931 663.288 437.494 663.669 437.134C664.057 436.767 664.521 436.583 665.062 436.583C665.603 436.583 666.064 436.767 666.445 437.134C666.833 437.494 667.027 437.931 667.027 438.444C667.027 438.95 666.833 439.387 666.445 439.754C666.064 440.115 665.603 440.295 665.062 440.295ZM678.239 442.759V445.255H669.515V442.759H678.239ZM671.854 438.933H674.963V454.041C674.963 454.644 675.053 455.098 675.234 455.403C675.414 455.701 675.646 455.905 675.93 456.016C676.221 456.12 676.537 456.172 676.877 456.172C677.126 456.172 677.344 456.155 677.532 456.12C677.719 456.085 677.864 456.058 677.968 456.037L678.53 458.605C678.35 458.675 678.093 458.744 677.76 458.813C677.428 458.889 677.012 458.931 676.513 458.938C675.695 458.952 674.932 458.806 674.225 458.501C673.518 458.196 672.946 457.725 672.509 457.087C672.073 456.449 671.854 455.649 671.854 454.685V438.933Z" fill="black"/>
<g clip-path="url(#clip1_455_3065)">
<path fill-rule="evenodd" clip-rule="evenodd" d="M188.49 497.76C188.49 493.877 190.032 490.154 192.778 487.408C195.523 484.663 199.247 483.12 203.13 483.12C207.013 483.12 210.737 484.663 213.482 487.408C216.228 490.154 217.77 493.877 217.77 497.76C217.77 501.643 216.228 505.367 213.482 508.112C210.737 510.858 207.013 512.4 203.13 512.4C199.247 512.4 195.523 510.858 192.778 508.112C190.032 505.367 188.49 501.643 188.49 497.76V497.76ZM202.295 504.026L210.723 493.489L209.201 492.271L202.013 501.252L196.923 497.011L195.673 498.51L202.295 504.028V504.026Z" fill="#27AE60"/>
</g>
<g clip-path="url(#clip2_455_3065)">
<path d="M548.414 487.365C542.704 481.655 533.335 481.655 527.625 487.365C521.916 493.074 521.916 502.444 527.625 508.154C533.335 513.863 542.558 513.863 548.268 508.154C553.977 502.444 554.124 493.074 548.414 487.365V487.365ZM542.119 503.908L538.02 499.809L533.92 503.908L531.871 501.858L535.97 497.759L531.871 493.66L533.92 491.61L538.02 495.71L542.119 491.61L544.168 493.66L540.069 497.759L544.168 501.858L542.119 503.908V503.908Z" fill="#EB5757"/>
</g>
</g>
<defs>
<filter id="filter0_ddd_455_3065" x="-98.5034" y="52.1786" width="616.077" height="676.507" filterUnits="userSpaceOnUse" color-interpolation-filters="sRGB">
<feFlood flood-opacity="0" result="BackgroundImageFix"/>
<feColorMatrix in="SourceAlpha" type="matrix" values="0 0 0 0 0 0 0 0 0 0 0 0 0 0 0 0 0 0 127 0" result="hardAlpha"/>
<feOffset dy="9.4447"/>
<feGaussianBlur stdDeviation="7.51721"/>
<feColorMatrix type="matrix" values="0 0 0 0 0.215686 0 0 0 0 0 0 0 0 0 0.423529 0 0 0 0.0157037 0"/>
<feBlend mode="normal" in2="BackgroundImageFix" result="effect1_dropShadow_455_3065"/>
<feColorMatrix in="SourceAlpha" type="matrix" values="0 0 0 0 0 0 0 0 0 0 0 0 0 0 0 0 0 0 127 0" result="hardAlpha"/>
<feOffset dy="44.6477"/>
<feGaussianBlur stdDeviation="29.3855"/>
<feColorMatrix type="matrix" values="0 0 0 0 0.215686 0 0 0 0 0 0 0 0 0 0.423529 0 0 0 0.0242963 0"/>
<feBlend mode="normal" in2="effect1_dropShadow_455_3065" result="effect2_dropShadow_455_3065"/>
<feColorMatrix in="SourceAlpha" type="matrix" values="0 0 0 0 0 0 0 0 0 0 0 0 0 0 0 0 0 0 127 0" result="hardAlpha"/>
<feOffset dy="115.912"/>
<feGaussianBlur stdDeviation="92.2567"/>
<feColorMatrix type="matrix" values="0 0 0 0 0.215 0 0 0 0 0 0 0 0 0 0.425 0 0 0 0.04 0"/>
<feBlend mode="normal" in2="effect2_dropShadow_455_3065" result="effect3_dropShadow_455_3065"/>
<feBlend mode="normal" in="SourceGraphic" in2="effect3_dropShadow_455_3065" result="shape"/>
</filter>
<filter id="filter1_ddd_455_3065" x="229.067" y="52.1786" width="616.077" height="661.827" filterUnits="userSpaceOnUse" color-interpolation-filters="sRGB">
<feFlood flood-opacity="0" result="BackgroundImageFix"/>
<feColorMatrix in="SourceAlpha" type="matrix" values="0 0 0 0 0 0 0 0 0 0 0 0 0 0 0 0 0 0 127 0" result="hardAlpha"/>
<feOffset dy="9.4447"/>
<feGaussianBlur stdDeviation="7.51721"/>
<feColorMatrix type="matrix" values="0 0 0 0 0.215686 0 0 0 0 0 0 0 0 0 0.423529 0 0 0 0.0157037 0"/>
<feBlend mode="normal" in2="BackgroundImageFix" result="effect1_dropShadow_455_3065"/>
<feColorMatrix in="SourceAlpha" type="matrix" values="0 0 0 0 0 0 0 0 0 0 0 0 0 0 0 0 0 0 127 0" result="hardAlpha"/>
<feOffset dy="44.6477"/>
<feGaussianBlur stdDeviation="29.3855"/>
<feColorMatrix type="matrix" values="0 0 0 0 0.215686 0 0 0 0 0 0 0 0 0 0.423529 0 0 0 0.0242963 0"/>
<feBlend mode="normal" in2="effect1_dropShadow_455_3065" result="effect2_dropShadow_455_3065"/>
<feColorMatrix in="SourceAlpha" type="matrix" values="0 0 0 0 0 0 0 0 0 0 0 0 0 0 0 0 0 0 127 0" result="hardAlpha"/>
<feOffset dy="115.912"/>
<feGaussianBlur stdDeviation="92.2567"/>
<feColorMatrix type="matrix" values="0 0 0 0 0.215 0 0 0 0 0 0 0 0 0 0.425 0 0 0 0.04 0"/>
<feBlend mode="normal" in2="effect2_dropShadow_455_3065" result="effect3_dropShadow_455_3065"/>
<feBlend mode="normal" in="SourceGraphic" in2="effect3_dropShadow_455_3065" result="shape"/>
</filter>
<clipPath id="clip0_455_3065">
<rect width="732" height="549" fill="white"/>
</clipPath>
<clipPath id="clip1_455_3065">
<rect width="29.28" height="29.28" fill="white" transform="translate(188.49 483.12)"/>
</clipPath>
<clipPath id="clip2_455_3065">
<rect width="29.28" height="29.28" fill="white" transform="translate(523.38 483.12)"/>
</clipPath>
</defs>
</svg>
