<svg width="732" height="549" viewBox="0 0 732 549" fill="none" xmlns="http://www.w3.org/2000/svg">
<g clip-path="url(#clip0_455_3043)">
<rect width="732" height="549" fill="#F3F3F3"/>
<g filter="url(#filter0_ddd_455_3043)">
<rect x="86.01" y="120.78" width="247.05" height="292.8" rx="14.64" fill="white"/>
<rect x="146.4" y="172.02" width="126.27" height="12.81" rx="6.405" fill="#C1B4E6"/>
<rect x="146.4" y="199.47" width="126.27" height="12.81" rx="6.405" fill="#C1B4E6"/>
<rect x="146.4" y="226.92" width="126.27" height="14.64" rx="7.32" fill="#C1B4E6"/>
<rect x="146.4" y="256.2" width="126.27" height="14.64" rx="7.32" fill="#C1B4E6"/>
<rect x="146.4" y="285.48" width="126.27" height="12.81" rx="6.405" fill="#C1B4E6"/>
<rect x="146.4" y="312.93" width="126.27" height="12.81" rx="6.405" fill="#C1B4E6"/>
<rect x="179.34" y="340.38" width="60.39" height="21.96" rx="10.98" fill="#4F3895"/>
</g>
<g filter="url(#filter1_ddd_455_3043)">
<path d="M411.75 135.42C411.75 127.335 418.305 120.78 426.39 120.78H644.16C652.245 120.78 658.8 127.335 658.8 135.42V398.94C658.8 407.025 652.245 413.58 644.16 413.58H426.39C418.305 413.58 411.75 407.025 411.75 398.94V135.42Z" fill="white"/>
<rect x="472.14" y="234.24" width="126.27" height="12.81" rx="6.405" fill="#C1B4E6"/>
<rect x="472.14" y="261.69" width="126.27" height="14.64" rx="7.32" fill="#C1B4E6"/>
<rect x="581.94" y="298.29" width="60.39" height="21.96" rx="10.98" fill="#4F3895"/>
<rect x="454.755" y="302.865" width="34.77" height="12.81" rx="6.405" stroke="#4F3895" stroke-width="1.83"/>
<path d="M411.75 135.42C411.75 120.26 424.04 107.97 439.2 107.97H631.35C646.51 107.97 658.8 120.26 658.8 135.42C658.8 134.409 652.245 133.59 644.16 133.59H426.39C418.305 133.59 411.75 134.409 411.75 135.42ZM658.8 413.58H411.75H658.8ZM411.75 413.58V120.78V413.58ZM658.8 120.78V413.58V120.78Z" fill="#FDE7FD"/>
</g>
<path d="M68.2194 458.73V437.435H71.4323V455.964H81.0814V458.73H68.2194ZM91.2243 459.052C89.7271 459.052 88.4204 458.709 87.3044 458.023C86.1884 457.337 85.3219 456.377 84.705 455.143C84.088 453.909 83.7796 452.467 83.7796 450.817C83.7796 449.161 84.088 447.712 84.705 446.471C85.3219 445.23 86.1884 444.267 87.3044 443.58C88.4204 442.894 89.7271 442.551 91.2243 442.551C92.7216 442.551 94.0283 442.894 95.1443 443.58C96.2603 444.267 97.1268 445.23 97.7437 446.471C98.3607 447.712 98.6691 449.161 98.6691 450.817C98.6691 452.467 98.3607 453.909 97.7437 455.143C97.1268 456.377 96.2603 457.337 95.1443 458.023C94.0283 458.709 92.7216 459.052 91.2243 459.052ZM91.2347 456.442C92.2052 456.442 93.0093 456.186 93.647 455.673C94.2847 455.16 94.7561 454.477 95.0611 453.625C95.373 452.772 95.529 451.833 95.529 450.807C95.529 449.788 95.373 448.852 95.0611 448C94.7561 447.14 94.2847 446.45 93.647 445.93C93.0093 445.41 92.2052 445.151 91.2347 445.151C90.2574 445.151 89.4463 445.41 88.8017 445.93C88.1639 446.45 87.6891 447.14 87.3772 448C87.0722 448.852 86.9197 449.788 86.9197 450.807C86.9197 451.833 87.0722 452.772 87.3772 453.625C87.6891 454.477 88.1639 455.16 88.8017 455.673C89.4463 456.186 90.2574 456.442 91.2347 456.442ZM108.867 459.052C107.369 459.052 106.063 458.709 104.947 458.023C103.831 457.337 102.964 456.377 102.347 455.143C101.73 453.909 101.422 452.467 101.422 450.817C101.422 449.161 101.73 447.712 102.347 446.471C102.964 445.23 103.831 444.267 104.947 443.58C106.063 442.894 107.369 442.551 108.867 442.551C110.364 442.551 111.671 442.894 112.787 443.58C113.903 444.267 114.769 445.23 115.386 446.471C116.003 447.712 116.311 449.161 116.311 450.817C116.311 452.467 116.003 453.909 115.386 455.143C114.769 456.377 113.903 457.337 112.787 458.023C111.671 458.709 110.364 459.052 108.867 459.052ZM108.877 456.442C109.848 456.442 110.652 456.186 111.289 455.673C111.927 455.16 112.398 454.477 112.703 453.625C113.015 452.772 113.171 451.833 113.171 450.807C113.171 449.788 113.015 448.852 112.703 448C112.398 447.14 111.927 446.45 111.289 445.93C110.652 445.41 109.848 445.151 108.877 445.151C107.9 445.151 107.089 445.41 106.444 445.93C105.806 446.45 105.331 447.14 105.02 448C104.715 448.852 104.562 449.788 104.562 450.807C104.562 451.833 104.715 452.772 105.02 453.625C105.331 454.477 105.806 455.16 106.444 455.673C107.089 456.186 107.9 456.442 108.877 456.442ZM122.641 453.313L122.62 449.518H123.161L129.524 442.759H133.247L125.989 450.453H125.5L122.641 453.313ZM119.782 458.73V437.435H122.891V458.73H119.782ZM129.867 458.73L124.149 451.14L126.291 448.967L133.683 458.73H129.867ZM148.048 446.658L145.23 447.157C145.112 446.797 144.925 446.454 144.669 446.128C144.419 445.802 144.079 445.535 143.65 445.327C143.22 445.119 142.683 445.015 142.038 445.015C141.158 445.015 140.423 445.213 139.834 445.608C139.245 445.996 138.95 446.499 138.95 447.116C138.95 447.649 139.147 448.079 139.543 448.405C139.938 448.731 140.575 448.998 141.456 449.206L143.993 449.788C145.462 450.128 146.558 450.651 147.278 451.358C147.999 452.065 148.36 452.984 148.36 454.113C148.36 455.07 148.083 455.923 147.528 456.671C146.98 457.413 146.214 457.995 145.23 458.418C144.253 458.841 143.119 459.052 141.83 459.052C140.042 459.052 138.583 458.671 137.453 457.909C136.323 457.139 135.63 456.047 135.373 454.633L138.378 454.176C138.565 454.959 138.95 455.552 139.532 455.954C140.114 456.349 140.873 456.546 141.809 456.546C142.828 456.546 143.643 456.335 144.253 455.912C144.863 455.482 145.168 454.959 145.168 454.342C145.168 453.843 144.981 453.424 144.606 453.084C144.239 452.744 143.674 452.488 142.911 452.315L140.208 451.722C138.718 451.382 137.616 450.842 136.902 450.1C136.195 449.358 135.841 448.419 135.841 447.282C135.841 446.339 136.104 445.514 136.631 444.807C137.158 444.1 137.886 443.549 138.815 443.154C139.744 442.752 140.808 442.551 142.007 442.551C143.733 442.551 145.092 442.925 146.083 443.674C147.074 444.416 147.729 445.41 148.048 446.658ZM166.254 459.052C164.757 459.052 163.45 458.709 162.334 458.023C161.218 457.337 160.352 456.377 159.735 455.143C159.118 453.909 158.81 452.467 158.81 450.817C158.81 449.161 159.118 447.712 159.735 446.471C160.352 445.23 161.218 444.267 162.334 443.58C163.45 442.894 164.757 442.551 166.254 442.551C167.752 442.551 169.058 442.894 170.174 443.58C171.29 444.267 172.157 445.23 172.774 446.471C173.391 447.712 173.699 449.161 173.699 450.817C173.699 452.467 173.391 453.909 172.774 455.143C172.157 456.377 171.29 457.337 170.174 458.023C169.058 458.709 167.752 459.052 166.254 459.052ZM166.265 456.442C167.235 456.442 168.039 456.186 168.677 455.673C169.315 455.16 169.786 454.477 170.091 453.625C170.403 452.772 170.559 451.833 170.559 450.807C170.559 449.788 170.403 448.852 170.091 448C169.786 447.14 169.315 446.45 168.677 445.93C168.039 445.41 167.235 445.151 166.265 445.151C165.287 445.151 164.476 445.41 163.832 445.93C163.194 446.45 162.719 447.14 162.407 448C162.102 448.852 161.95 449.788 161.95 450.807C161.95 451.833 162.102 452.772 162.407 453.625C162.719 454.477 163.194 455.16 163.832 455.673C164.476 456.186 165.287 456.442 166.265 456.442ZM190.289 442.759L184.497 458.73H181.17L175.368 442.759H178.706L182.75 455.049H182.917L186.951 442.759H190.289ZM199.55 459.052C197.977 459.052 196.622 458.716 195.485 458.044C194.355 457.364 193.482 456.411 192.865 455.184C192.255 453.95 191.95 452.505 191.95 450.849C191.95 449.213 192.255 447.771 192.865 446.523C193.482 445.275 194.341 444.301 195.443 443.601C196.552 442.901 197.849 442.551 199.332 442.551C200.233 442.551 201.107 442.7 201.952 442.998C202.798 443.296 203.557 443.764 204.229 444.402C204.902 445.04 205.432 445.868 205.82 446.887C206.208 447.899 206.403 449.129 206.403 450.578V451.68H193.707V449.351H203.356C203.356 448.533 203.19 447.809 202.857 447.178C202.524 446.54 202.056 446.038 201.453 445.67C200.857 445.303 200.157 445.119 199.353 445.119C198.479 445.119 197.717 445.334 197.065 445.764C196.421 446.187 195.922 446.741 195.568 447.428C195.222 448.107 195.048 448.845 195.048 449.642V451.462C195.048 452.529 195.235 453.438 195.61 454.186C195.991 454.935 196.521 455.507 197.201 455.902C197.88 456.29 198.674 456.484 199.582 456.484C200.171 456.484 200.708 456.401 201.193 456.235C201.679 456.061 202.098 455.805 202.451 455.465C202.805 455.125 203.075 454.706 203.262 454.207L206.205 454.737C205.969 455.604 205.546 456.363 204.936 457.014C204.333 457.659 203.574 458.162 202.659 458.522C201.751 458.876 200.715 459.052 199.55 459.052ZM209.852 458.73V442.759H212.857V445.296H213.023C213.314 444.437 213.827 443.761 214.562 443.269C215.304 442.769 216.143 442.52 217.078 442.52C217.273 442.52 217.501 442.527 217.765 442.541C218.035 442.555 218.246 442.572 218.399 442.593V445.566C218.274 445.532 218.052 445.494 217.733 445.452C217.415 445.404 217.096 445.379 216.777 445.379C216.042 445.379 215.387 445.535 214.812 445.847C214.243 446.152 213.793 446.579 213.46 447.126C213.127 447.667 212.961 448.284 212.961 448.977V458.73H209.852ZM224.809 458.73L220.109 442.759H223.322L226.452 454.488H226.608L229.748 442.759H232.961L236.08 454.436H236.236L239.345 442.759H242.558L237.869 458.73H234.697L231.453 447.199H231.214L227.97 458.73H224.809ZM248.617 449.247V458.73H245.508V437.435H248.576V445.359H248.773C249.148 444.499 249.719 443.816 250.489 443.31C251.258 442.804 252.263 442.551 253.504 442.551C254.599 442.551 255.556 442.776 256.374 443.227C257.199 443.678 257.837 444.35 258.287 445.244C258.745 446.131 258.973 447.24 258.973 448.571V458.73H255.865V448.946C255.865 447.774 255.563 446.866 254.96 446.222C254.357 445.57 253.518 445.244 252.444 445.244C251.709 445.244 251.05 445.4 250.468 445.712C249.893 446.024 249.439 446.481 249.106 447.085C248.78 447.681 248.617 448.402 248.617 449.247ZM270.005 459.052C268.432 459.052 267.077 458.716 265.94 458.044C264.81 457.364 263.937 456.411 263.32 455.184C262.71 453.95 262.405 452.505 262.405 450.849C262.405 449.213 262.71 447.771 263.32 446.523C263.937 445.275 264.796 444.301 265.898 443.601C267.007 442.901 268.304 442.551 269.787 442.551C270.688 442.551 271.562 442.7 272.407 442.998C273.253 443.296 274.012 443.764 274.684 444.402C275.357 445.04 275.887 445.868 276.275 446.887C276.663 447.899 276.858 449.129 276.858 450.578V451.68H264.162V449.351H273.811C273.811 448.533 273.645 447.809 273.312 447.178C272.979 446.54 272.511 446.038 271.908 445.67C271.312 445.303 270.612 445.119 269.808 445.119C268.934 445.119 268.172 445.334 267.52 445.764C266.876 446.187 266.377 446.741 266.023 447.428C265.677 448.107 265.503 448.845 265.503 449.642V451.462C265.503 452.529 265.69 453.438 266.065 454.186C266.446 454.935 266.976 455.507 267.656 455.902C268.335 456.29 269.129 456.484 270.037 456.484C270.626 456.484 271.163 456.401 271.648 456.235C272.134 456.061 272.553 455.805 272.906 455.465C273.26 455.125 273.53 454.706 273.717 454.207L276.66 454.737C276.424 455.604 276.001 456.363 275.391 457.014C274.788 457.659 274.029 458.162 273.114 458.522C272.206 458.876 271.17 459.052 270.005 459.052ZM283.416 437.435V458.73H280.307V437.435H283.416ZM287.598 458.73V442.759H290.583V445.359H290.78C291.113 444.478 291.657 443.792 292.413 443.3C293.168 442.801 294.073 442.551 295.126 442.551C296.194 442.551 297.088 442.801 297.809 443.3C298.537 443.799 299.074 444.485 299.421 445.359H299.587C299.968 444.506 300.575 443.827 301.407 443.321C302.238 442.808 303.23 442.551 304.38 442.551C305.829 442.551 307.011 443.005 307.926 443.913C308.848 444.821 309.309 446.19 309.309 448.02V458.73H306.2V448.311C306.2 447.23 305.905 446.447 305.316 445.962C304.727 445.476 304.023 445.234 303.205 445.234C302.193 445.234 301.407 445.546 300.845 446.17C300.284 446.786 300.003 447.58 300.003 448.551V458.73H296.904V448.114C296.904 447.247 296.634 446.551 296.093 446.024C295.553 445.497 294.849 445.234 293.983 445.234C293.393 445.234 292.849 445.39 292.35 445.702C291.858 446.007 291.459 446.433 291.154 446.981C290.856 447.528 290.707 448.162 290.707 448.883V458.73H287.598ZM313.476 458.73V442.759H316.585V458.73H313.476ZM315.046 440.295C314.505 440.295 314.041 440.115 313.653 439.754C313.271 439.387 313.081 438.95 313.081 438.444C313.081 437.931 313.271 437.494 313.653 437.134C314.041 436.767 314.505 436.583 315.046 436.583C315.587 436.583 316.047 436.767 316.429 437.134C316.817 437.494 317.011 437.931 317.011 438.444C317.011 438.95 316.817 439.387 316.429 439.754C316.047 440.115 315.587 440.295 315.046 440.295ZM323.876 449.247V458.73H320.767V442.759H323.751V445.359H323.949C324.316 444.513 324.892 443.834 325.675 443.321C326.465 442.808 327.46 442.551 328.659 442.551C329.747 442.551 330.7 442.78 331.518 443.237C332.336 443.688 332.971 444.36 333.421 445.255C333.872 446.149 334.097 447.254 334.097 448.571V458.73H330.988V448.946C330.988 447.788 330.687 446.884 330.084 446.232C329.48 445.573 328.652 445.244 327.598 445.244C326.878 445.244 326.236 445.4 325.675 445.712C325.12 446.024 324.68 446.481 324.354 447.085C324.036 447.681 323.876 448.402 323.876 449.247ZM344.963 465.052C343.694 465.052 342.602 464.885 341.687 464.553C340.779 464.22 340.038 463.78 339.462 463.232C338.887 462.685 338.457 462.085 338.173 461.433L340.845 460.331C341.032 460.636 341.282 460.959 341.594 461.298C341.913 461.645 342.342 461.939 342.883 462.182C343.431 462.425 344.134 462.546 344.994 462.546C346.172 462.546 347.146 462.258 347.916 461.683C348.685 461.115 349.07 460.206 349.07 458.959V455.819H348.872C348.685 456.158 348.415 456.536 348.061 456.952C347.715 457.368 347.236 457.728 346.626 458.033C346.016 458.338 345.223 458.491 344.245 458.491C342.984 458.491 341.847 458.196 340.835 457.607C339.83 457.011 339.033 456.134 338.443 454.976C337.861 453.812 337.57 452.38 337.57 450.682C337.57 448.984 337.858 447.528 338.433 446.315C339.015 445.102 339.812 444.173 340.824 443.529C341.836 442.877 342.984 442.551 344.266 442.551C345.257 442.551 346.058 442.717 346.668 443.05C347.278 443.376 347.753 443.757 348.092 444.194C348.439 444.631 348.706 445.015 348.893 445.348H349.122V442.759H352.168V459.084C352.168 460.456 351.849 461.582 351.212 462.463C350.574 463.343 349.711 463.995 348.623 464.418C347.541 464.84 346.321 465.052 344.963 465.052ZM344.931 455.912C345.826 455.912 346.581 455.704 347.198 455.288C347.822 454.865 348.293 454.262 348.612 453.479C348.938 452.689 349.101 451.743 349.101 450.641C349.101 449.566 348.942 448.62 348.623 447.802C348.304 446.984 347.836 446.346 347.219 445.889C346.602 445.424 345.84 445.192 344.931 445.192C343.996 445.192 343.216 445.435 342.592 445.92C341.968 446.398 341.497 447.05 341.178 447.875C340.866 448.7 340.71 449.622 340.71 450.641C340.71 451.687 340.869 452.606 341.188 453.396C341.507 454.186 341.979 454.803 342.602 455.247C343.233 455.69 344.01 455.912 344.931 455.912Z" fill="black"/>
<path d="M118.638 91.5619C118.544 90.7716 118.165 90.1582 117.499 89.7215C116.834 89.2848 116.018 89.0664 115.051 89.0664C114.344 89.0664 113.725 89.1808 113.195 89.4095C112.67 89.6383 112.259 89.9528 111.963 90.3531C111.672 90.7534 111.526 91.2083 111.526 91.7178C111.526 92.1441 111.627 92.5106 111.83 92.8174C112.038 93.1189 112.303 93.3711 112.626 93.5738C112.948 93.7714 113.286 93.9351 113.639 94.0651C113.993 94.1899 114.318 94.2913 114.614 94.3692L116.236 94.8059C116.652 94.9151 117.115 95.0659 117.624 95.2582C118.139 95.4506 118.63 95.7131 119.098 96.0459C119.571 96.3734 119.961 96.7945 120.268 97.3092C120.575 97.8239 120.728 98.4556 120.728 99.2042C120.728 100.067 120.502 100.847 120.05 101.544C119.602 102.24 118.947 102.794 118.084 103.205C117.227 103.615 116.184 103.821 114.957 103.821C113.813 103.821 112.823 103.636 111.986 103.267C111.154 102.898 110.499 102.383 110.021 101.723C109.548 101.063 109.28 100.296 109.218 99.4225H111.214C111.266 100.026 111.469 100.525 111.822 100.92C112.181 101.31 112.633 101.601 113.179 101.793C113.73 101.98 114.323 102.074 114.957 102.074C115.695 102.074 116.358 101.954 116.946 101.715C117.533 101.471 117.999 101.133 118.342 100.701C118.685 100.265 118.856 99.7553 118.856 99.173C118.856 98.6427 118.708 98.2112 118.412 97.8785C118.116 97.5457 117.726 97.2754 117.242 97.0675C116.759 96.8595 116.236 96.6775 115.675 96.5216L113.71 95.9601C112.462 95.6014 111.474 95.0893 110.746 94.4238C110.018 93.7584 109.654 92.8876 109.654 91.8114C109.654 90.9172 109.896 90.1374 110.38 89.4719C110.868 88.8013 111.523 88.2814 112.345 87.9123C113.171 87.5379 114.094 87.3508 115.113 87.3508C116.143 87.3508 117.058 87.5353 117.858 87.9045C118.659 88.2684 119.293 88.7675 119.761 89.4017C120.234 90.036 120.484 90.756 120.51 91.5619H118.638ZM126.281 87.5691V103.54H124.347V87.5691H126.281ZM143.262 87.5691V103.54H141.391L132.688 91.0004H132.532V103.54H130.598V87.5691H132.469L141.204 100.14H141.359V87.5691H143.262ZM158.489 92.56C158.317 92.035 158.091 91.5645 157.811 91.1485C157.535 90.7274 157.205 90.3687 156.82 90.0724C156.441 89.776 156.009 89.5499 155.526 89.3939C155.042 89.238 154.512 89.16 153.935 89.16C152.989 89.16 152.128 89.4043 151.354 89.893C150.579 90.3817 149.963 91.1018 149.505 92.0531C149.048 93.0045 148.819 94.1717 148.819 95.5546C148.819 96.9375 149.05 98.1046 149.513 99.056C149.976 100.007 150.602 100.727 151.393 101.216C152.183 101.705 153.072 101.949 154.06 101.949C154.975 101.949 155.78 101.754 156.477 101.364C157.179 100.969 157.725 100.413 158.115 99.6955C158.51 98.9728 158.707 98.1228 158.707 97.1454L159.3 97.2702H154.496V95.5546H160.579V97.2702C160.579 98.5855 160.298 99.7293 159.737 100.701C159.18 101.674 158.411 102.427 157.428 102.963C156.451 103.493 155.328 103.758 154.06 103.758C152.645 103.758 151.403 103.426 150.332 102.76C149.266 102.095 148.434 101.149 147.836 99.9216C147.244 98.6947 146.947 97.239 146.947 95.5546C146.947 94.2913 147.116 93.1553 147.454 92.1467C147.798 91.133 148.281 90.2699 148.905 89.5577C149.529 88.8455 150.267 88.2996 151.12 87.9201C151.972 87.5405 152.911 87.3508 153.935 87.3508C154.777 87.3508 155.562 87.4781 156.29 87.7329C157.023 87.9824 157.675 88.3386 158.247 88.8013C158.824 89.2588 159.305 89.8072 159.69 90.4467C160.075 91.081 160.34 91.7854 160.485 92.56H158.489ZM164.33 103.54V87.5691H166.264V101.824H173.688V103.54H164.33ZM177.122 103.54V87.5691H186.761V89.2848H179.056V94.6812H186.262V96.3968H179.056V101.824H186.886V103.54H177.122ZM197.301 103.54V87.5691H202.698C203.951 87.5691 204.975 87.7953 205.77 88.2476C206.571 88.6947 207.164 89.3004 207.548 90.0646C207.933 90.8288 208.125 91.6814 208.125 92.6224C208.125 93.5634 207.933 94.4186 207.548 95.1881C207.169 95.9575 206.581 96.571 205.786 97.0285C204.99 97.4808 203.971 97.7069 202.729 97.7069H198.861V95.9913H202.667C203.524 95.9913 204.213 95.8431 204.733 95.5468C205.253 95.2505 205.63 94.8501 205.864 94.3458C206.103 93.8364 206.223 93.2619 206.223 92.6224C206.223 91.983 206.103 91.4111 205.864 90.9068C205.63 90.4025 205.25 90.0074 204.725 89.7215C204.2 89.4303 203.504 89.2848 202.635 89.2848H199.235V103.54H197.301ZM210.705 103.54H208.678L214.542 87.5691H216.538L222.403 103.54H220.375L215.603 90.0958H215.478L210.705 103.54ZM211.454 97.3014H219.626V99.017H211.454V97.3014ZM235.497 92.56C235.325 92.035 235.099 91.5645 234.818 91.1485C234.543 90.7274 234.212 90.3687 233.828 90.0724C233.448 89.776 233.017 89.5499 232.533 89.3939C232.05 89.238 231.519 89.16 230.942 89.16C229.996 89.16 229.136 89.4043 228.361 89.893C227.586 90.3817 226.97 91.1018 226.513 92.0531C226.055 93.0045 225.827 94.1717 225.827 95.5546C225.827 96.9375 226.058 98.1046 226.521 99.056C226.983 100.007 227.61 100.727 228.4 101.216C229.19 101.705 230.079 101.949 231.067 101.949C231.982 101.949 232.788 101.754 233.485 101.364C234.186 100.969 234.732 100.413 235.122 99.6955C235.517 98.9728 235.715 98.1228 235.715 97.1454L236.308 97.2702H231.504V95.5546H237.586V97.2702C237.586 98.5855 237.306 99.7293 236.744 100.701C236.188 101.674 235.419 102.427 234.436 102.963C233.459 103.493 232.336 103.758 231.067 103.758C229.653 103.758 228.41 103.426 227.34 102.76C226.274 102.095 225.442 101.149 224.844 99.9216C224.251 98.6947 223.955 97.239 223.955 95.5546C223.955 94.2913 224.124 93.1553 224.462 92.1467C224.805 91.133 225.289 90.2699 225.912 89.5577C226.536 88.8455 227.275 88.2996 228.127 87.9201C228.98 87.5405 229.918 87.3508 230.942 87.3508C231.785 87.3508 232.57 87.4781 233.297 87.7329C234.03 87.9824 234.683 88.3386 235.255 88.8013C235.832 89.2588 236.313 89.8072 236.697 90.4467C237.082 91.081 237.347 91.7854 237.493 92.56H235.497ZM241.338 103.54V87.5691H250.977V89.2848H243.272V94.6812H250.478V96.3968H243.272V101.824H251.101V103.54H241.338ZM261.517 103.54V87.5691H271.093V89.2848H263.451V94.6812H270.376V96.3968H263.451V103.54H261.517ZM288.32 95.5546C288.32 97.239 288.016 98.6947 287.408 99.9216C286.8 101.149 285.965 102.095 284.905 102.76C283.844 103.426 282.633 103.758 281.271 103.758C279.909 103.758 278.697 103.426 277.637 102.76C276.576 102.095 275.742 101.149 275.134 99.9216C274.525 98.6947 274.221 97.239 274.221 95.5546C274.221 93.8702 274.525 92.4145 275.134 91.1875C275.742 89.9606 276.576 89.0144 277.637 88.349C278.697 87.6835 279.909 87.3508 281.271 87.3508C282.633 87.3508 283.844 87.6835 284.905 88.349C285.965 89.0144 286.8 89.9606 287.408 91.1875C288.016 92.4145 288.32 93.8702 288.32 95.5546ZM286.449 95.5546C286.449 94.1717 286.218 93.0045 285.755 92.0531C285.297 91.1018 284.676 90.3817 283.891 89.893C283.111 89.4043 282.238 89.16 281.271 89.16C280.304 89.16 279.428 89.4043 278.643 89.893C277.863 90.3817 277.242 91.1018 276.779 92.0531C276.321 93.0045 276.093 94.1717 276.093 95.5546C276.093 96.9375 276.321 98.1046 276.779 99.056C277.242 100.007 277.863 100.727 278.643 101.216C279.428 101.705 280.304 101.949 281.271 101.949C282.238 101.949 283.111 101.705 283.891 101.216C284.676 100.727 285.297 100.007 285.755 99.056C286.218 98.1046 286.449 96.9375 286.449 95.5546ZM292.012 103.54V87.5691H297.408C298.656 87.5691 299.68 87.7823 300.481 88.2086C301.281 88.6297 301.874 89.2094 302.259 89.9476C302.643 90.6858 302.836 91.5255 302.836 92.4665C302.836 93.4075 302.643 94.2419 302.259 94.9697C301.874 95.6976 301.284 96.2694 300.488 96.6853C299.693 97.096 298.676 97.3014 297.439 97.3014H293.072V95.5546H297.377C298.229 95.5546 298.916 95.4298 299.436 95.1803C299.961 94.9307 300.34 94.5772 300.574 94.1197C300.813 93.657 300.933 93.1059 300.933 92.4665C300.933 91.827 300.813 91.2681 300.574 90.7898C300.335 90.3115 299.953 89.9424 299.428 89.6825C298.903 89.4173 298.209 89.2848 297.346 89.2848H293.946V103.54H292.012ZM299.529 96.3656L303.459 103.54H301.214L297.346 96.3656H299.529ZM306.497 87.5691H308.806L314.233 100.826H314.42L319.848 87.5691H322.156V103.54H320.347V91.4059H320.191L315.2 103.54H313.454L308.463 91.4059H308.307V103.54H306.497V87.5691Z" fill="black"/>
<path d="M435.644 87.5691H437.952L443.38 100.826H443.567L448.995 87.5691H451.303V103.54H449.494V91.4059H449.338L444.347 103.54H442.6L437.609 91.4059H437.453V103.54H435.644V87.5691ZM466.101 87.5691H468.035V98.1436C468.035 99.2354 467.777 100.21 467.263 101.068C466.753 101.921 466.033 102.594 465.103 103.088C464.172 103.576 463.08 103.821 461.827 103.821C460.574 103.821 459.483 103.576 458.552 103.088C457.621 102.594 456.899 101.921 456.384 101.068C455.875 100.21 455.62 99.2354 455.62 98.1436V87.5691H457.554V97.9877C457.554 98.7675 457.725 99.4615 458.068 100.07C458.412 100.673 458.9 101.149 459.535 101.497C460.174 101.84 460.938 102.012 461.827 102.012C462.716 102.012 463.481 101.84 464.12 101.497C464.759 101.149 465.248 100.673 465.586 100.07C465.929 99.4615 466.101 98.7675 466.101 97.9877V87.5691ZM472.336 103.54V87.5691H474.27V101.824H481.694V103.54H472.336ZM482.131 89.2848V87.5691H494.109V89.2848H489.087V103.54H487.153V89.2848H482.131ZM499.467 87.5691V103.54H497.533V87.5691H499.467ZM510.397 94.6968V96.4124H503.41V94.6968H510.397ZM514.324 103.54V87.5691H519.721C520.974 87.5691 521.998 87.7953 522.793 88.2476C523.594 88.6947 524.186 89.3004 524.571 90.0646C524.956 90.8288 525.148 91.6814 525.148 92.6224C525.148 93.5634 524.956 94.4186 524.571 95.1881C524.192 95.9575 523.604 96.571 522.809 97.0285C522.013 97.4808 520.994 97.7069 519.752 97.7069H515.884V95.9913H519.689C520.547 95.9913 521.236 95.8431 521.756 95.5468C522.276 95.2505 522.653 94.8501 522.887 94.3458C523.126 93.8364 523.245 93.2619 523.245 92.6224C523.245 91.983 523.126 91.4111 522.887 90.9068C522.653 90.4025 522.273 90.0074 521.748 89.7215C521.223 89.4303 520.526 89.2848 519.658 89.2848H516.258V103.54H514.324ZM527.728 103.54H525.701L531.565 87.5691H533.561L539.426 103.54H537.398L532.625 90.0958H532.501L527.728 103.54ZM528.477 97.3014H536.649V99.017H528.477V97.3014ZM552.519 92.56C552.348 92.035 552.122 91.5645 551.841 91.1485C551.565 90.7274 551.235 90.3687 550.851 90.0724C550.471 89.776 550.04 89.5499 549.556 89.3939C549.073 89.238 548.542 89.16 547.965 89.16C547.019 89.16 546.159 89.4043 545.384 89.893C544.609 90.3817 543.993 91.1018 543.536 92.0531C543.078 93.0045 542.85 94.1717 542.85 95.5546C542.85 96.9375 543.081 98.1046 543.544 99.056C544.006 100.007 544.633 100.727 545.423 101.216C546.213 101.705 547.102 101.949 548.09 101.949C549.005 101.949 549.811 101.754 550.507 101.364C551.209 100.969 551.755 100.413 552.145 99.6955C552.54 98.9728 552.738 98.1228 552.738 97.1454L553.33 97.2702H548.527V95.5546H554.609V97.2702C554.609 98.5855 554.329 99.7293 553.767 100.701C553.211 101.674 552.441 102.427 551.459 102.963C550.481 103.493 549.359 103.758 548.09 103.758C546.676 103.758 545.433 103.426 544.362 102.76C543.297 102.095 542.465 101.149 541.867 99.9216C541.274 98.6947 540.978 97.239 540.978 95.5546C540.978 94.2913 541.147 93.1553 541.485 92.1467C541.828 91.133 542.311 90.2699 542.935 89.5577C543.559 88.8455 544.297 88.2996 545.15 87.9201C546.003 87.5405 546.941 87.3508 547.965 87.3508C548.807 87.3508 549.592 87.4781 550.32 87.7329C551.053 87.9824 551.706 88.3386 552.278 88.8013C552.855 89.2588 553.336 89.8072 553.72 90.4467C554.105 91.081 554.37 91.7854 554.516 92.56H552.519ZM558.361 103.54V87.5691H568V89.2848H560.295V94.6812H567.5V96.3968H560.295V101.824H568.124V103.54H558.361ZM578.54 103.54V87.5691H588.116V89.2848H580.474V94.6812H587.399V96.3968H580.474V103.54H578.54ZM605.343 95.5546C605.343 97.239 605.039 98.6947 604.431 99.9216C603.823 101.149 602.988 102.095 601.928 102.76C600.867 103.426 599.656 103.758 598.294 103.758C596.932 103.758 595.72 103.426 594.66 102.76C593.599 102.095 592.765 101.149 592.156 99.9216C591.548 98.6947 591.244 97.239 591.244 95.5546C591.244 93.8702 591.548 92.4145 592.156 91.1875C592.765 89.9606 593.599 89.0144 594.66 88.349C595.72 87.6835 596.932 87.3508 598.294 87.3508C599.656 87.3508 600.867 87.6835 601.928 88.349C602.988 89.0144 603.823 89.9606 604.431 91.1875C605.039 92.4145 605.343 93.8702 605.343 95.5546ZM603.472 95.5546C603.472 94.1717 603.24 93.0045 602.778 92.0531C602.32 91.1018 601.699 90.3817 600.914 89.893C600.134 89.4043 599.261 89.16 598.294 89.16C597.327 89.16 596.451 89.4043 595.666 89.893C594.886 90.3817 594.265 91.1018 593.802 92.0531C593.344 93.0045 593.116 94.1717 593.116 95.5546C593.116 96.9375 593.344 98.1046 593.802 99.056C594.265 100.007 594.886 100.727 595.666 101.216C596.451 101.705 597.327 101.949 598.294 101.949C599.261 101.949 600.134 101.705 600.914 101.216C601.699 100.727 602.32 100.007 602.778 99.056C603.24 98.1046 603.472 96.9375 603.472 95.5546ZM609.034 103.54V87.5691H614.431C615.679 87.5691 616.703 87.7823 617.503 88.2086C618.304 88.6297 618.897 89.2094 619.281 89.9476C619.666 90.6858 619.858 91.5255 619.858 92.4665C619.858 93.4075 619.666 94.2419 619.281 94.9697C618.897 95.6976 618.307 96.2694 617.511 96.6853C616.716 97.096 615.699 97.3014 614.462 97.3014H610.095V95.5546H614.4C615.252 95.5546 615.939 95.4298 616.458 95.1803C616.984 94.9307 617.363 94.5772 617.597 94.1197C617.836 93.657 617.956 93.1059 617.956 92.4665C617.956 91.827 617.836 91.2681 617.597 90.7898C617.358 90.3115 616.976 89.9424 616.451 89.6825C615.926 89.4173 615.231 89.2848 614.368 89.2848H610.968V103.54H609.034ZM616.552 96.3656L620.482 103.54H618.236L614.368 96.3656H616.552ZM623.52 87.5691H625.829L631.256 100.826H631.443L636.871 87.5691H639.179V103.54H637.37V91.4059H637.214L632.223 103.54H630.476L625.485 91.4059H625.33V103.54H623.52V87.5691Z" fill="black"/>
<path d="M421.41 458.73V437.435H424.622V455.964H434.272V458.73H421.41ZM444.57 459.052C442.997 459.052 441.642 458.716 440.505 458.044C439.375 457.364 438.502 456.411 437.885 455.184C437.275 453.95 436.97 452.505 436.97 450.849C436.97 449.213 437.275 447.771 437.885 446.523C438.502 445.275 439.361 444.301 440.463 443.601C441.572 442.901 442.869 442.551 444.352 442.551C445.253 442.551 446.127 442.7 446.972 442.998C447.818 443.296 448.577 443.764 449.249 444.402C449.922 445.04 450.452 445.868 450.84 446.887C451.229 447.899 451.423 449.129 451.423 450.578V451.68H438.727V449.351H448.376C448.376 448.533 448.21 447.809 447.877 447.178C447.544 446.54 447.076 446.038 446.473 445.67C445.877 445.303 445.177 445.119 444.373 445.119C443.5 445.119 442.737 445.334 442.085 445.764C441.441 446.187 440.942 446.741 440.588 447.428C440.242 448.107 440.068 448.845 440.068 449.642V451.462C440.068 452.529 440.255 453.438 440.63 454.186C441.011 454.935 441.541 455.507 442.221 455.902C442.9 456.29 443.694 456.484 444.602 456.484C445.191 456.484 445.728 456.401 446.213 456.235C446.699 456.061 447.118 455.805 447.471 455.465C447.825 455.125 448.095 454.706 448.282 454.207L451.225 454.737C450.989 455.604 450.567 456.363 449.957 457.014C449.353 457.659 448.594 458.162 447.679 458.522C446.771 458.876 445.735 459.052 444.57 459.052ZM466.84 446.658L464.022 447.157C463.904 446.797 463.717 446.454 463.461 446.128C463.211 445.802 462.871 445.535 462.442 445.327C462.012 445.119 461.475 445.015 460.83 445.015C459.95 445.015 459.215 445.213 458.626 445.608C458.036 445.996 457.742 446.499 457.742 447.116C457.742 447.649 457.939 448.079 458.334 448.405C458.73 448.731 459.367 448.998 460.248 449.206L462.785 449.788C464.254 450.128 465.349 450.651 466.07 451.358C466.791 452.065 467.152 452.984 467.152 454.113C467.152 455.07 466.874 455.923 466.32 456.671C465.772 457.413 465.006 457.995 464.022 458.418C463.045 458.841 461.911 459.052 460.622 459.052C458.834 459.052 457.374 458.671 456.245 457.909C455.115 457.139 454.421 456.047 454.165 454.633L457.17 454.176C457.357 454.959 457.742 455.552 458.324 455.954C458.906 456.349 459.665 456.546 460.601 456.546C461.62 456.546 462.435 456.335 463.045 455.912C463.655 455.482 463.96 454.959 463.96 454.342C463.96 453.843 463.772 453.424 463.398 453.084C463.031 452.744 462.466 452.488 461.703 452.315L459 451.722C457.51 451.382 456.407 450.842 455.693 450.1C454.986 449.358 454.633 448.419 454.633 447.282C454.633 446.339 454.896 445.514 455.423 444.807C455.95 444.1 456.678 443.549 457.607 443.154C458.536 442.752 459.6 442.551 460.799 442.551C462.525 442.551 463.883 442.925 464.875 443.674C465.866 444.416 466.521 445.41 466.84 446.658ZM482.538 446.658L479.72 447.157C479.602 446.797 479.415 446.454 479.159 446.128C478.909 445.802 478.569 445.535 478.14 445.327C477.71 445.119 477.173 445.015 476.528 445.015C475.648 445.015 474.913 445.213 474.324 445.608C473.734 445.996 473.44 446.499 473.44 447.116C473.44 447.649 473.637 448.079 474.032 448.405C474.428 448.731 475.065 448.998 475.946 449.206L478.483 449.788C479.952 450.128 481.047 450.651 481.768 451.358C482.489 452.065 482.85 452.984 482.85 454.113C482.85 455.07 482.572 455.923 482.018 456.671C481.47 457.413 480.704 457.995 479.72 458.418C478.743 458.841 477.609 459.052 476.32 459.052C474.532 459.052 473.072 458.671 471.943 457.909C470.813 457.139 470.119 456.047 469.863 454.633L472.868 454.176C473.055 454.959 473.44 455.552 474.022 455.954C474.604 456.349 475.363 456.546 476.299 456.546C477.318 456.546 478.133 456.335 478.743 455.912C479.353 455.482 479.658 454.959 479.658 454.342C479.658 453.843 479.47 453.424 479.096 453.084C478.729 452.744 478.164 452.488 477.401 452.315L474.698 451.722C473.208 451.382 472.105 450.842 471.391 450.1C470.684 449.358 470.331 448.419 470.331 447.282C470.331 446.339 470.594 445.514 471.121 444.807C471.648 444.1 472.376 443.549 473.305 443.154C474.233 442.752 475.298 442.551 476.497 442.551C478.223 442.551 479.581 442.925 480.573 443.674C481.564 444.416 482.219 445.41 482.538 446.658ZM500.744 459.052C499.247 459.052 497.94 458.709 496.824 458.023C495.708 457.337 494.842 456.377 494.225 455.143C493.608 453.909 493.299 452.467 493.299 450.817C493.299 449.161 493.608 447.712 494.225 446.471C494.842 445.23 495.708 444.267 496.824 443.58C497.94 442.894 499.247 442.551 500.744 442.551C502.241 442.551 503.548 442.894 504.664 443.58C505.78 444.267 506.647 445.23 507.264 446.471C507.881 447.712 508.189 449.161 508.189 450.817C508.189 452.467 507.881 453.909 507.264 455.143C506.647 456.377 505.78 457.337 504.664 458.023C503.548 458.709 502.241 459.052 500.744 459.052ZM500.755 456.442C501.725 456.442 502.529 456.186 503.167 455.673C503.805 455.16 504.276 454.477 504.581 453.625C504.893 452.772 505.049 451.833 505.049 450.807C505.049 449.788 504.893 448.852 504.581 448C504.276 447.14 503.805 446.45 503.167 445.93C502.529 445.41 501.725 445.151 500.755 445.151C499.777 445.151 498.966 445.41 498.322 445.93C497.684 446.45 497.209 447.14 496.897 448C496.592 448.852 496.44 449.788 496.44 450.807C496.44 451.833 496.592 452.772 496.897 453.625C497.209 454.477 497.684 455.16 498.322 455.673C498.966 456.186 499.777 456.442 500.755 456.442ZM524.779 442.759L518.987 458.73H515.66L509.858 442.759H513.195L517.24 455.049H517.407L521.441 442.759H524.779ZM534.04 459.052C532.467 459.052 531.112 458.716 529.975 458.044C528.845 457.364 527.972 456.411 527.355 455.184C526.745 453.95 526.44 452.505 526.44 450.849C526.44 449.213 526.745 447.771 527.355 446.523C527.972 445.275 528.831 444.301 529.933 443.601C531.042 442.901 532.339 442.551 533.822 442.551C534.723 442.551 535.597 442.7 536.442 442.998C537.288 443.296 538.047 443.764 538.719 444.402C539.392 445.04 539.922 445.868 540.31 446.887C540.698 447.899 540.892 449.129 540.892 450.578V451.68H528.197V449.351H537.846C537.846 448.533 537.68 447.809 537.347 447.178C537.014 446.54 536.546 446.038 535.943 445.67C535.347 445.303 534.647 445.119 533.843 445.119C532.969 445.119 532.207 445.334 531.555 445.764C530.911 446.187 530.412 446.741 530.058 447.428C529.711 448.107 529.538 448.845 529.538 449.642V451.462C529.538 452.529 529.725 453.438 530.1 454.186C530.481 454.935 531.011 455.507 531.69 455.902C532.37 456.29 533.163 456.484 534.072 456.484C534.661 456.484 535.198 456.401 535.683 456.235C536.168 456.061 536.588 455.805 536.941 455.465C537.295 455.125 537.565 454.706 537.752 454.207L540.695 454.737C540.459 455.604 540.036 456.363 539.426 457.014C538.823 457.659 538.064 458.162 537.149 458.522C536.241 458.876 535.205 459.052 534.04 459.052ZM544.342 458.73V442.759H547.347V445.296H547.513C547.804 444.437 548.317 443.761 549.052 443.269C549.794 442.769 550.633 442.52 551.568 442.52C551.762 442.52 551.991 442.527 552.255 442.541C552.525 442.555 552.736 442.572 552.889 442.593V445.566C552.764 445.532 552.542 445.494 552.223 445.452C551.905 445.404 551.586 445.379 551.267 445.379C550.532 445.379 549.877 445.535 549.302 445.847C548.733 446.152 548.283 446.579 547.95 447.126C547.617 447.667 547.451 448.284 547.451 448.977V458.73H544.342ZM559.299 458.73L554.599 442.759H557.812L560.942 454.488H561.098L564.238 442.759H567.451L570.57 454.436H570.726L573.835 442.759H577.048L572.359 458.73H569.187L565.943 447.199H565.704L562.46 458.73H559.299ZM583.107 449.247V458.73H579.998V437.435H583.066V445.359H583.263C583.638 444.499 584.209 443.816 584.979 443.31C585.748 442.804 586.753 442.551 587.994 442.551C589.089 442.551 590.046 442.776 590.864 443.227C591.689 443.678 592.327 444.35 592.777 445.244C593.235 446.131 593.463 447.24 593.463 448.571V458.73H590.354V448.946C590.354 447.774 590.053 446.866 589.45 446.222C588.847 445.57 588.008 445.244 586.934 445.244C586.199 445.244 585.54 445.4 584.958 445.712C584.383 446.024 583.929 446.481 583.596 447.085C583.27 447.681 583.107 448.402 583.107 449.247ZM604.495 459.052C602.922 459.052 601.567 458.716 600.43 458.044C599.3 457.364 598.427 456.411 597.81 455.184C597.2 453.95 596.895 452.505 596.895 450.849C596.895 449.213 597.2 447.771 597.81 446.523C598.427 445.275 599.286 444.301 600.388 443.601C601.497 442.901 602.794 442.551 604.277 442.551C605.178 442.551 606.052 442.7 606.897 442.998C607.743 443.296 608.502 443.764 609.174 444.402C609.847 445.04 610.377 445.868 610.765 446.887C611.153 447.899 611.347 449.129 611.347 450.578V451.68H598.652V449.351H608.301C608.301 448.533 608.135 447.809 607.802 447.178C607.469 446.54 607.001 446.038 606.398 445.67C605.802 445.303 605.102 445.119 604.298 445.119C603.424 445.119 602.662 445.334 602.01 445.764C601.366 446.187 600.867 446.741 600.513 447.428C600.166 448.107 599.993 448.845 599.993 449.642V451.462C599.993 452.529 600.18 453.438 600.555 454.186C600.936 454.935 601.466 455.507 602.145 455.902C602.825 456.29 603.618 456.484 604.527 456.484C605.116 456.484 605.653 456.401 606.138 456.235C606.623 456.061 607.043 455.805 607.396 455.465C607.75 455.125 608.02 454.706 608.207 454.207L611.15 454.737C610.914 455.604 610.491 456.363 609.881 457.014C609.278 457.659 608.519 458.162 607.604 458.522C606.696 458.876 605.66 459.052 604.495 459.052ZM617.906 437.435V458.73H614.797V437.435H617.906ZM622.088 458.73V442.759H625.072V445.359H625.27C625.603 444.478 626.147 443.792 626.902 443.3C627.658 442.801 628.563 442.551 629.616 442.551C630.684 442.551 631.578 442.801 632.299 443.3C633.027 443.799 633.564 444.485 633.911 445.359H634.077C634.458 444.506 635.065 443.827 635.896 443.321C636.728 442.808 637.72 442.551 638.87 442.551C640.319 442.551 641.501 443.005 642.416 443.913C643.338 444.821 643.799 446.19 643.799 448.02V458.73H640.69V448.311C640.69 447.23 640.395 446.447 639.806 445.962C639.217 445.476 638.513 445.234 637.695 445.234C636.683 445.234 635.896 445.546 635.335 446.17C634.774 446.786 634.493 447.58 634.493 448.551V458.73H631.394V448.114C631.394 447.247 631.124 446.551 630.583 446.024C630.043 445.497 629.339 445.234 628.473 445.234C627.883 445.234 627.339 445.39 626.84 445.702C626.348 446.007 625.949 446.433 625.644 446.981C625.346 447.528 625.197 448.162 625.197 448.883V458.73H622.088ZM647.966 458.73V442.759H651.075V458.73H647.966ZM649.536 440.295C648.995 440.295 648.531 440.115 648.142 439.754C647.761 439.387 647.571 438.95 647.571 438.444C647.571 437.931 647.761 437.494 648.142 437.134C648.531 436.767 648.995 436.583 649.536 436.583C650.076 436.583 650.537 436.767 650.919 437.134C651.307 437.494 651.501 437.931 651.501 438.444C651.501 438.95 651.307 439.387 650.919 439.754C650.537 440.115 650.076 440.295 649.536 440.295ZM658.366 449.247V458.73H655.257V442.759H658.241V445.359H658.439C658.806 444.513 659.381 443.834 660.165 443.321C660.955 442.808 661.95 442.551 663.149 442.551C664.237 442.551 665.19 442.78 666.008 443.237C666.826 443.688 667.461 444.36 667.911 445.255C668.362 446.149 668.587 447.254 668.587 448.571V458.73H665.478V448.946C665.478 447.788 665.176 446.884 664.573 446.232C663.97 445.573 663.142 445.244 662.088 445.244C661.367 445.244 660.726 445.4 660.165 445.712C659.61 446.024 659.17 446.481 658.844 447.085C658.525 447.681 658.366 448.402 658.366 449.247ZM679.453 465.052C678.184 465.052 677.092 464.885 676.177 464.553C675.269 464.22 674.528 463.78 673.952 463.232C673.377 462.685 672.947 462.085 672.663 461.433L675.335 460.331C675.522 460.636 675.772 460.959 676.084 461.298C676.403 461.645 676.832 461.939 677.373 462.182C677.921 462.425 678.624 462.546 679.484 462.546C680.662 462.546 681.636 462.258 682.406 461.683C683.175 461.115 683.56 460.206 683.56 458.959V455.819H683.362C683.175 456.158 682.905 456.536 682.551 456.952C682.205 457.368 681.726 457.728 681.116 458.033C680.506 458.338 679.713 458.491 678.735 458.491C677.474 458.491 676.337 458.196 675.325 457.607C674.32 457.011 673.522 456.134 672.933 454.976C672.351 453.812 672.06 452.38 672.06 450.682C672.06 448.984 672.347 447.528 672.923 446.315C673.505 445.102 674.302 444.173 675.314 443.529C676.326 442.877 677.474 442.551 678.756 442.551C679.747 442.551 680.548 442.717 681.158 443.05C681.768 443.376 682.243 443.757 682.582 444.194C682.929 444.631 683.196 445.015 683.383 445.348H683.612V442.759H686.658V459.084C686.658 460.456 686.339 461.582 685.702 462.463C685.064 463.343 684.201 463.995 683.113 464.418C682.031 464.84 680.811 465.052 679.453 465.052ZM679.421 455.912C680.316 455.912 681.071 455.704 681.688 455.288C682.312 454.865 682.783 454.262 683.102 453.479C683.428 452.689 683.591 451.743 683.591 450.641C683.591 449.566 683.431 448.62 683.113 447.802C682.794 446.984 682.326 446.346 681.709 445.889C681.092 445.424 680.329 445.192 679.421 445.192C678.486 445.192 677.706 445.435 677.082 445.92C676.458 446.398 675.987 447.05 675.668 447.875C675.356 448.7 675.2 449.622 675.2 450.641C675.2 451.687 675.359 452.606 675.678 453.396C675.997 454.186 676.468 454.803 677.092 455.247C677.723 455.69 678.499 455.912 679.421 455.912Z" fill="black"/>
<g clip-path="url(#clip1_455_3043)">
<path fill-rule="evenodd" clip-rule="evenodd" d="M534.36 497.76C534.36 493.877 535.902 490.154 538.648 487.408C541.393 484.663 545.117 483.12 549 483.12C552.883 483.12 556.606 484.663 559.352 487.408C562.097 490.154 563.64 493.877 563.64 497.76C563.64 501.643 562.097 505.367 559.352 508.112C556.606 510.858 552.883 512.4 549 512.4C545.117 512.4 541.393 510.858 538.648 508.112C535.902 505.367 534.36 501.643 534.36 497.76V497.76ZM548.164 504.026L556.593 493.489L555.071 492.271L547.883 501.252L542.793 497.011L541.543 498.51L548.164 504.028V504.026Z" fill="#27AE60"/>
</g>
<g clip-path="url(#clip2_455_3043)">
<path d="M213.524 487.365C207.814 481.655 198.445 481.655 192.735 487.365C187.025 493.074 187.025 502.444 192.735 508.154C198.445 513.863 207.668 513.863 213.377 508.154C219.087 502.444 219.233 493.074 213.524 487.365V487.365ZM207.229 503.908L203.129 499.809L199.03 503.908L196.981 501.858L201.08 497.759L196.981 493.66L199.03 491.61L203.129 495.71L207.229 491.61L209.278 493.66L205.179 497.759L209.278 501.858L207.229 503.908V503.908Z" fill="#EB5757"/>
</g>
</g>
<defs>
<filter id="filter0_ddd_455_3043" x="-98.5034" y="52.1789" width="616.077" height="661.827" filterUnits="userSpaceOnUse" color-interpolation-filters="sRGB">
<feFlood flood-opacity="0" result="BackgroundImageFix"/>
<feColorMatrix in="SourceAlpha" type="matrix" values="0 0 0 0 0 0 0 0 0 0 0 0 0 0 0 0 0 0 127 0" result="hardAlpha"/>
<feOffset dy="9.4447"/>
<feGaussianBlur stdDeviation="7.51721"/>
<feColorMatrix type="matrix" values="0 0 0 0 0.215686 0 0 0 0 0 0 0 0 0 0.423529 0 0 0 0.0157037 0"/>
<feBlend mode="normal" in2="BackgroundImageFix" result="effect1_dropShadow_455_3043"/>
<feColorMatrix in="SourceAlpha" type="matrix" values="0 0 0 0 0 0 0 0 0 0 0 0 0 0 0 0 0 0 127 0" result="hardAlpha"/>
<feOffset dy="44.6477"/>
<feGaussianBlur stdDeviation="29.3855"/>
<feColorMatrix type="matrix" values="0 0 0 0 0.215686 0 0 0 0 0 0 0 0 0 0.423529 0 0 0 0.0242963 0"/>
<feBlend mode="normal" in2="effect1_dropShadow_455_3043" result="effect2_dropShadow_455_3043"/>
<feColorMatrix in="SourceAlpha" type="matrix" values="0 0 0 0 0 0 0 0 0 0 0 0 0 0 0 0 0 0 127 0" result="hardAlpha"/>
<feOffset dy="115.912"/>
<feGaussianBlur stdDeviation="92.2567"/>
<feColorMatrix type="matrix" values="0 0 0 0 0.215 0 0 0 0 0 0 0 0 0 0.425 0 0 0 0.04 0"/>
<feBlend mode="normal" in2="effect2_dropShadow_455_3043" result="effect3_dropShadow_455_3043"/>
<feBlend mode="normal" in="SourceGraphic" in2="effect3_dropShadow_455_3043" result="shape"/>
</filter>
<filter id="filter1_ddd_455_3043" x="227.237" y="52.1789" width="616.077" height="661.827" filterUnits="userSpaceOnUse" color-interpolation-filters="sRGB">
<feFlood flood-opacity="0" result="BackgroundImageFix"/>
<feColorMatrix in="SourceAlpha" type="matrix" values="0 0 0 0 0 0 0 0 0 0 0 0 0 0 0 0 0 0 127 0" result="hardAlpha"/>
<feOffset dy="9.4447"/>
<feGaussianBlur stdDeviation="7.51721"/>
<feColorMatrix type="matrix" values="0 0 0 0 0.215686 0 0 0 0 0 0 0 0 0 0.423529 0 0 0 0.0157037 0"/>
<feBlend mode="normal" in2="BackgroundImageFix" result="effect1_dropShadow_455_3043"/>
<feColorMatrix in="SourceAlpha" type="matrix" values="0 0 0 0 0 0 0 0 0 0 0 0 0 0 0 0 0 0 127 0" result="hardAlpha"/>
<feOffset dy="44.6477"/>
<feGaussianBlur stdDeviation="29.3855"/>
<feColorMatrix type="matrix" values="0 0 0 0 0.215686 0 0 0 0 0 0 0 0 0 0.423529 0 0 0 0.0242963 0"/>
<feBlend mode="normal" in2="effect1_dropShadow_455_3043" result="effect2_dropShadow_455_3043"/>
<feColorMatrix in="SourceAlpha" type="matrix" values="0 0 0 0 0 0 0 0 0 0 0 0 0 0 0 0 0 0 127 0" result="hardAlpha"/>
<feOffset dy="115.912"/>
<feGaussianBlur stdDeviation="92.2567"/>
<feColorMatrix type="matrix" values="0 0 0 0 0.215 0 0 0 0 0 0 0 0 0 0.425 0 0 0 0.04 0"/>
<feBlend mode="normal" in2="effect2_dropShadow_455_3043" result="effect3_dropShadow_455_3043"/>
<feBlend mode="normal" in="SourceGraphic" in2="effect3_dropShadow_455_3043" result="shape"/>
</filter>
<clipPath id="clip0_455_3043">
<rect width="732" height="549" fill="white"/>
</clipPath>
<clipPath id="clip1_455_3043">
<rect width="29.28" height="29.28" fill="white" transform="translate(534.36 483.12)"/>
</clipPath>
<clipPath id="clip2_455_3043">
<rect width="29.28" height="29.28" fill="white" transform="translate(188.49 483.12)"/>
</clipPath>
</defs>
</svg>
