<svg width="732" height="549" viewBox="0 0 732 549" fill="none" xmlns="http://www.w3.org/2000/svg">
<g clip-path="url(#clip0_455_3112)">
<rect width="732" height="549" fill="#F3F3F3"/>
<g filter="url(#filter0_ddd_455_3112)">
<path d="M408.09 118.95C408.09 110.865 414.645 104.31 422.73 104.31H640.5C648.585 104.31 655.14 110.865 655.14 118.95V382.47C655.14 390.555 648.585 397.11 640.5 397.11H422.73C414.645 397.11 408.09 390.555 408.09 382.47V118.95Z" fill="white"/>
<rect x="468.48" y="217.77" width="126.27" height="12.81" rx="6.405" fill="url(#paint0_linear_455_3112)"/>
<rect x="468.48" y="245.22" width="126.27" height="14.64" rx="7.32" fill="url(#paint1_linear_455_3112)"/>
<rect x="578.28" y="281.82" width="60.39" height="21.96" rx="10.98" fill="#4F3895"/>
<rect x="451.095" y="286.395" width="34.77" height="12.81" rx="6.405" stroke="#4F3895" stroke-width="1.83"/>
<path d="M408.09 118.95C408.09 103.79 420.38 91.5001 435.54 91.5001H627.69C642.85 91.5001 655.14 103.79 655.14 118.95C655.14 117.939 648.585 117.12 640.5 117.12H422.73C414.645 117.12 408.09 117.939 408.09 118.95ZM655.14 397.11H408.09H655.14ZM408.09 397.11V104.31V397.11ZM655.14 104.31V397.11V104.31Z" fill="#FDE7FD"/>
</g>
<path d="M109.803 428.946V450.24H106.694V428.946H109.803ZM120.869 450.563C119.295 450.563 117.94 450.226 116.803 449.554C115.673 448.875 114.8 447.922 114.183 446.695C113.573 445.461 113.268 444.015 113.268 442.359C113.268 440.723 113.573 439.281 114.183 438.033C114.8 436.786 115.659 435.812 116.761 435.112C117.871 434.411 119.167 434.061 120.65 434.061C121.551 434.061 122.425 434.21 123.27 434.508C124.116 434.807 124.875 435.274 125.548 435.912C126.22 436.55 126.75 437.378 127.138 438.397C127.527 439.409 127.721 440.64 127.721 442.088V443.191H115.025V440.861H124.674C124.674 440.044 124.508 439.319 124.175 438.688C123.842 438.051 123.374 437.548 122.771 437.181C122.175 436.813 121.475 436.63 120.671 436.63C119.798 436.63 119.035 436.844 118.383 437.274C117.739 437.697 117.24 438.252 116.886 438.938C116.54 439.617 116.366 440.355 116.366 441.153V442.972C116.366 444.04 116.553 444.948 116.928 445.696C117.309 446.445 117.839 447.017 118.519 447.412C119.198 447.8 119.992 447.994 120.9 447.994C121.489 447.994 122.026 447.911 122.511 447.745C122.997 447.571 123.416 447.315 123.769 446.975C124.123 446.636 124.393 446.216 124.581 445.717L127.523 446.248C127.287 447.114 126.865 447.873 126.255 448.525C125.651 449.169 124.892 449.672 123.977 450.032C123.069 450.386 122.033 450.563 120.869 450.563ZM143.138 438.168L140.32 438.668C140.202 438.307 140.015 437.964 139.759 437.638C139.509 437.312 139.169 437.046 138.74 436.838C138.31 436.63 137.773 436.526 137.128 436.526C136.248 436.526 135.513 436.723 134.924 437.118C134.334 437.506 134.04 438.009 134.04 438.626C134.04 439.16 134.237 439.589 134.633 439.915C135.028 440.241 135.665 440.508 136.546 440.716L139.083 441.298C140.552 441.638 141.648 442.161 142.368 442.868C143.089 443.575 143.45 444.494 143.45 445.624C143.45 446.58 143.173 447.433 142.618 448.181C142.07 448.923 141.304 449.505 140.32 449.928C139.343 450.351 138.209 450.563 136.92 450.563C135.132 450.563 133.672 450.181 132.543 449.419C131.413 448.649 130.72 447.558 130.463 446.144L133.468 445.686C133.655 446.469 134.04 447.062 134.622 447.464C135.204 447.859 135.963 448.057 136.899 448.057C137.918 448.057 138.733 447.845 139.343 447.422C139.953 446.993 140.258 446.469 140.258 445.852C140.258 445.353 140.071 444.934 139.696 444.594C139.329 444.255 138.764 443.998 138.001 443.825L135.298 443.232C133.808 442.893 132.705 442.352 131.991 441.61C131.284 440.868 130.931 439.929 130.931 438.792C130.931 437.85 131.194 437.025 131.721 436.318C132.248 435.611 132.976 435.06 133.905 434.664C134.834 434.262 135.898 434.061 137.097 434.061C138.823 434.061 140.181 434.436 141.173 435.184C142.164 435.926 142.819 436.921 143.138 438.168ZM158.836 438.168L156.018 438.668C155.9 438.307 155.713 437.964 155.457 437.638C155.207 437.312 154.867 437.046 154.438 436.838C154.008 436.63 153.471 436.526 152.826 436.526C151.946 436.526 151.211 436.723 150.622 437.118C150.032 437.506 149.738 438.009 149.738 438.626C149.738 439.16 149.935 439.589 150.33 439.915C150.726 440.241 151.363 440.508 152.244 440.716L154.781 441.298C156.25 441.638 157.345 442.161 158.066 442.868C158.787 443.575 159.148 444.494 159.148 445.624C159.148 446.58 158.87 447.433 158.316 448.181C157.768 448.923 157.002 449.505 156.018 449.928C155.041 450.351 153.907 450.563 152.618 450.563C150.83 450.563 149.37 450.181 148.241 449.419C147.111 448.649 146.417 447.558 146.161 446.144L149.166 445.686C149.353 446.469 149.738 447.062 150.32 447.464C150.902 447.859 151.661 448.057 152.597 448.057C153.616 448.057 154.431 447.845 155.041 447.422C155.651 446.993 155.956 446.469 155.956 445.852C155.956 445.353 155.769 444.934 155.394 444.594C155.027 444.255 154.462 443.998 153.699 443.825L150.996 443.232C149.506 442.893 148.403 442.352 147.689 441.61C146.982 440.868 146.629 439.929 146.629 438.792C146.629 437.85 146.892 437.025 147.419 436.318C147.946 435.611 148.674 435.06 149.603 434.664C150.532 434.262 151.596 434.061 152.795 434.061C154.521 434.061 155.879 434.436 156.871 435.184C157.862 435.926 158.517 436.921 158.836 438.168ZM173.424 428.946V450.24H170.315V428.946H173.424ZM184.334 450.563C182.836 450.563 181.53 450.219 180.414 449.533C179.298 448.847 178.431 447.887 177.814 446.653C177.197 445.419 176.889 443.977 176.889 442.328C176.889 440.671 177.197 439.222 177.814 437.981C178.431 436.741 179.298 435.777 180.414 435.091C181.53 434.404 182.836 434.061 184.334 434.061C185.831 434.061 187.138 434.404 188.254 435.091C189.37 435.777 190.236 436.741 190.853 437.981C191.47 439.222 191.778 440.671 191.778 442.328C191.778 443.977 191.47 445.419 190.853 446.653C190.236 447.887 189.37 448.847 188.254 449.533C187.138 450.219 185.831 450.563 184.334 450.563ZM184.344 447.953C185.315 447.953 186.119 447.696 186.756 447.183C187.394 446.67 187.865 445.988 188.17 445.135C188.482 444.282 188.638 443.343 188.638 442.317C188.638 441.298 188.482 440.362 188.17 439.51C187.865 438.65 187.394 437.961 186.756 437.441C186.119 436.921 185.315 436.661 184.344 436.661C183.367 436.661 182.556 436.921 181.911 437.441C181.273 437.961 180.798 438.65 180.487 439.51C180.182 440.362 180.029 441.298 180.029 442.317C180.029 443.343 180.182 444.282 180.487 445.135C180.798 445.988 181.273 446.67 181.911 447.183C182.556 447.696 183.367 447.953 184.344 447.953ZM199.896 450.594C198.884 450.594 197.969 450.407 197.151 450.032C196.334 449.651 195.685 449.1 195.207 448.379C194.736 447.658 194.5 446.774 194.5 445.728C194.5 444.826 194.673 444.085 195.02 443.503C195.367 442.92 195.834 442.459 196.424 442.12C197.013 441.78 197.671 441.523 198.399 441.35C199.127 441.177 199.869 441.045 200.624 440.955C201.581 440.844 202.357 440.754 202.953 440.685C203.55 440.608 203.983 440.487 204.253 440.321C204.523 440.154 204.659 439.884 204.659 439.51V439.437C204.659 438.529 204.402 437.825 203.889 437.326C203.383 436.827 202.628 436.578 201.622 436.578C200.576 436.578 199.751 436.81 199.148 437.274C198.552 437.732 198.139 438.241 197.91 438.803L194.989 438.137C195.335 437.167 195.841 436.384 196.507 435.787C197.179 435.184 197.952 434.748 198.825 434.477C199.699 434.2 200.617 434.061 201.581 434.061C202.219 434.061 202.894 434.138 203.608 434.29C204.329 434.436 205.002 434.706 205.626 435.101C206.256 435.496 206.773 436.061 207.175 436.796C207.577 437.524 207.778 438.47 207.778 439.635V450.24H204.742V448.057H204.617C204.416 448.459 204.114 448.854 203.712 449.242C203.31 449.63 202.794 449.953 202.163 450.209C201.532 450.466 200.777 450.594 199.896 450.594ZM200.572 448.098C201.432 448.098 202.167 447.928 202.777 447.589C203.394 447.249 203.861 446.806 204.18 446.258C204.506 445.703 204.669 445.111 204.669 444.48V442.421C204.558 442.532 204.343 442.636 204.024 442.733C203.712 442.823 203.355 442.903 202.953 442.972C202.551 443.035 202.16 443.094 201.778 443.149C201.397 443.198 201.078 443.239 200.822 443.274C200.219 443.35 199.668 443.478 199.169 443.658C198.676 443.839 198.281 444.099 197.983 444.438C197.692 444.771 197.547 445.215 197.547 445.769C197.547 446.539 197.831 447.121 198.399 447.516C198.968 447.904 199.692 448.098 200.572 448.098ZM217.898 450.552C216.608 450.552 215.458 450.223 214.445 449.564C213.44 448.899 212.65 447.953 212.075 446.726C211.506 445.492 211.222 444.012 211.222 442.286C211.222 440.56 211.51 439.083 212.085 437.857C212.667 436.63 213.465 435.69 214.477 435.039C215.489 434.387 216.636 434.061 217.918 434.061C218.91 434.061 219.707 434.228 220.31 434.56C220.92 434.886 221.391 435.268 221.724 435.704C222.064 436.141 222.327 436.526 222.514 436.858H222.701V428.946H225.81V450.24H222.774V447.755H222.514C222.327 448.095 222.057 448.483 221.703 448.92C221.357 449.356 220.878 449.738 220.268 450.063C219.658 450.389 218.868 450.552 217.898 450.552ZM218.584 447.901C219.478 447.901 220.234 447.665 220.85 447.194C221.474 446.715 221.946 446.053 222.265 445.208C222.59 444.362 222.753 443.378 222.753 442.255C222.753 441.146 222.594 440.175 222.275 439.343C221.956 438.512 221.488 437.863 220.871 437.399C220.254 436.935 219.492 436.702 218.584 436.702C217.648 436.702 216.868 436.945 216.244 437.43C215.62 437.915 215.149 438.577 214.83 439.416C214.518 440.255 214.362 441.201 214.362 442.255C214.362 443.322 214.522 444.282 214.841 445.135C215.159 445.988 215.631 446.663 216.255 447.163C216.885 447.655 217.662 447.901 218.584 447.901ZM230.247 450.24V434.269H233.356V450.24H230.247ZM231.817 431.805C231.277 431.805 230.812 431.625 230.424 431.264C230.043 430.897 229.852 430.46 229.852 429.954C229.852 429.441 230.043 429.005 230.424 428.644C230.812 428.277 231.277 428.093 231.817 428.093C232.358 428.093 232.819 428.277 233.2 428.644C233.589 429.005 233.783 429.441 233.783 429.954C233.783 430.46 233.589 430.897 233.2 431.264C232.819 431.625 232.358 431.805 231.817 431.805ZM240.648 440.758V450.24H237.539V434.269H240.523V436.869H240.721C241.088 436.023 241.663 435.344 242.447 434.831C243.237 434.318 244.231 434.061 245.431 434.061C246.519 434.061 247.472 434.29 248.29 434.748C249.108 435.198 249.742 435.871 250.193 436.765C250.643 437.659 250.869 438.765 250.869 440.082V450.24H247.76V440.456C247.76 439.298 247.458 438.394 246.855 437.742C246.252 437.084 245.424 436.754 244.37 436.754C243.649 436.754 243.008 436.91 242.447 437.222C241.892 437.534 241.452 437.992 241.126 438.595C240.807 439.191 240.648 439.912 240.648 440.758ZM261.734 456.562C260.466 456.562 259.374 456.396 258.459 456.063C257.551 455.73 256.809 455.29 256.234 454.742C255.659 454.195 255.229 453.595 254.945 452.944L257.617 451.841C257.804 452.146 258.054 452.469 258.365 452.808C258.684 453.155 259.114 453.45 259.655 453.692C260.202 453.935 260.906 454.056 261.766 454.056C262.944 454.056 263.918 453.769 264.687 453.193C265.457 452.625 265.841 451.717 265.841 450.469V447.329H265.644C265.457 447.669 265.186 448.046 264.833 448.462C264.486 448.878 264.008 449.239 263.398 449.544C262.788 449.849 261.994 450.001 261.017 450.001C259.755 450.001 258.618 449.706 257.606 449.117C256.601 448.521 255.804 447.644 255.215 446.487C254.633 445.322 254.342 443.891 254.342 442.192C254.342 440.494 254.629 439.038 255.205 437.825C255.787 436.612 256.584 435.683 257.596 435.039C258.608 434.387 259.755 434.061 261.038 434.061C262.029 434.061 262.83 434.228 263.44 434.56C264.05 434.886 264.524 435.268 264.864 435.704C265.211 436.141 265.478 436.526 265.665 436.858H265.893V434.269H268.94V450.594C268.94 451.966 268.621 453.093 267.983 453.973C267.346 454.853 266.483 455.505 265.394 455.928C264.313 456.351 263.093 456.562 261.734 456.562ZM261.703 447.422C262.597 447.422 263.353 447.214 263.97 446.799C264.594 446.376 265.065 445.773 265.384 444.989C265.71 444.199 265.873 443.253 265.873 442.151C265.873 441.076 265.713 440.13 265.394 439.312C265.075 438.494 264.608 437.857 263.991 437.399C263.374 436.935 262.611 436.702 261.703 436.702C260.767 436.702 259.988 436.945 259.364 437.43C258.74 437.909 258.268 438.56 257.95 439.385C257.638 440.21 257.482 441.132 257.482 442.151C257.482 443.198 257.641 444.116 257.96 444.906C258.279 445.696 258.75 446.313 259.374 446.757C260.005 447.201 260.781 447.422 261.703 447.422ZM288.314 434.269V436.765H279.59V434.269H288.314ZM281.929 430.443H285.038V445.551C285.038 446.154 285.128 446.608 285.309 446.913C285.489 447.211 285.721 447.416 286.005 447.526C286.296 447.63 286.612 447.682 286.951 447.682C287.201 447.682 287.419 447.665 287.606 447.63C287.794 447.596 287.939 447.568 288.043 447.547L288.605 450.115C288.424 450.185 288.168 450.254 287.835 450.323C287.503 450.4 287.087 450.441 286.588 450.448C285.77 450.462 285.007 450.316 284.3 450.011C283.593 449.706 283.021 449.235 282.584 448.597C282.148 447.96 281.929 447.159 281.929 446.196V430.443ZM291.753 450.24V434.269H294.862V450.24H291.753ZM293.323 431.805C292.782 431.805 292.318 431.625 291.929 431.264C291.548 430.897 291.357 430.46 291.357 429.954C291.357 429.441 291.548 429.005 291.929 428.644C292.318 428.277 292.782 428.093 293.323 428.093C293.863 428.093 294.324 428.277 294.706 428.644C295.094 429.005 295.288 429.441 295.288 429.954C295.288 430.46 295.094 430.897 294.706 431.264C294.324 431.625 293.863 431.805 293.323 431.805ZM299.044 450.24V434.269H302.028V436.869H302.226C302.558 435.988 303.103 435.302 303.858 434.81C304.614 434.311 305.518 434.061 306.572 434.061C307.639 434.061 308.534 434.311 309.255 434.81C309.982 435.309 310.52 435.995 310.866 436.869H311.033C311.414 436.016 312.02 435.337 312.852 434.831C313.684 434.318 314.675 434.061 315.826 434.061C317.275 434.061 318.457 434.515 319.372 435.423C320.293 436.332 320.754 437.701 320.754 439.531V450.24H317.646V439.822C317.646 438.74 317.351 437.957 316.762 437.472C316.173 436.987 315.469 436.744 314.651 436.744C313.639 436.744 312.852 437.056 312.291 437.68C311.729 438.297 311.448 439.09 311.448 440.061V450.24H308.35V439.624C308.35 438.758 308.08 438.061 307.539 437.534C306.998 437.007 306.295 436.744 305.428 436.744C304.839 436.744 304.295 436.9 303.796 437.212C303.304 437.517 302.905 437.943 302.6 438.491C302.302 439.038 302.153 439.673 302.153 440.394V450.24H299.044ZM331.805 450.563C330.231 450.563 328.876 450.226 327.739 449.554C326.609 448.875 325.736 447.922 325.119 446.695C324.509 445.461 324.204 444.015 324.204 442.359C324.204 440.723 324.509 439.281 325.119 438.033C325.736 436.786 326.595 435.812 327.698 435.112C328.807 434.411 330.103 434.061 331.586 434.061C332.487 434.061 333.361 434.21 334.207 434.508C335.052 434.807 335.811 435.274 336.484 435.912C337.156 436.55 337.686 437.378 338.074 438.397C338.463 439.409 338.657 440.64 338.657 442.088V443.191H325.961V440.861H335.61C335.61 440.044 335.444 439.319 335.111 438.688C334.778 438.051 334.31 437.548 333.707 437.181C333.111 436.813 332.411 436.63 331.607 436.63C330.734 436.63 329.971 436.844 329.32 437.274C328.675 437.697 328.176 438.252 327.822 438.938C327.476 439.617 327.302 440.355 327.302 441.153V442.972C327.302 444.04 327.49 444.948 327.864 445.696C328.245 446.445 328.775 447.017 329.455 447.412C330.134 447.8 330.928 447.994 331.836 447.994C332.425 447.994 332.962 447.911 333.447 447.745C333.933 447.571 334.352 447.315 334.706 446.975C335.059 446.636 335.329 446.216 335.517 445.717L338.459 446.248C338.223 447.114 337.801 447.873 337.191 448.525C336.588 449.169 335.829 449.672 334.914 450.032C334.005 450.386 332.969 450.563 331.805 450.563Z" fill="black"/>
<path d="M111.318 75.0916C111.225 74.3014 110.845 73.6879 110.18 73.2512C109.514 72.8145 108.698 72.5962 107.731 72.5962C107.024 72.5962 106.405 72.7106 105.875 72.9393C105.35 73.1681 104.939 73.4826 104.643 73.8829C104.352 74.2832 104.206 74.7381 104.206 75.2476C104.206 75.6739 104.307 76.0404 104.51 76.3472C104.718 76.6487 104.983 76.9008 105.306 77.1036C105.628 77.3012 105.966 77.4649 106.319 77.5949C106.673 77.7197 106.998 77.821 107.294 77.899L108.916 78.3357C109.332 78.4449 109.795 78.5957 110.304 78.788C110.819 78.9804 111.31 79.2429 111.778 79.5757C112.251 79.9032 112.641 80.3243 112.948 80.839C113.255 81.3537 113.408 81.9853 113.408 82.734C113.408 83.597 113.182 84.3768 112.73 85.0735C112.282 85.7701 111.627 86.3238 110.764 86.7345C109.907 87.1452 108.864 87.3506 107.637 87.3506C106.494 87.3506 105.503 87.166 104.666 86.7969C103.834 86.4278 103.179 85.9131 102.701 85.2528C102.228 84.5926 101.96 83.8257 101.898 82.9523H103.894C103.946 83.5554 104.149 84.0545 104.502 84.4496C104.861 84.8395 105.313 85.1306 105.859 85.323C106.41 85.5102 107.003 85.6037 107.637 85.6037C108.376 85.6037 109.038 85.4842 109.626 85.245C110.213 85.0007 110.679 84.6628 111.022 84.2312C111.365 83.7945 111.536 83.2851 111.536 82.7028C111.536 82.1725 111.388 81.741 111.092 81.4083C110.796 81.0755 110.406 80.8052 109.922 80.5972C109.439 80.3893 108.916 80.2073 108.355 80.0514L106.39 79.4899C105.142 79.1312 104.154 78.6191 103.426 77.9536C102.698 77.2882 102.334 76.4174 102.334 75.3412C102.334 74.447 102.576 73.6672 103.06 73.0017C103.548 72.331 104.203 71.8112 105.025 71.442C105.851 71.0677 106.774 70.8806 107.793 70.8806C108.823 70.8806 109.738 71.0651 110.538 71.4342C111.339 71.7982 111.973 72.2973 112.441 72.9315C112.914 73.5658 113.164 74.2858 113.19 75.0916H111.318ZM118.961 71.0989V87.0698H117.027V71.0989H118.961ZM135.942 71.0989V87.0698H134.071L125.368 74.5302H125.212V87.0698H123.278V71.0989H125.149L133.884 83.6698H134.04V71.0989H135.942ZM151.169 76.0898C150.997 75.5647 150.771 75.0942 150.491 74.6783C150.215 74.2572 149.885 73.8985 149.5 73.6022C149.121 73.3058 148.689 73.0797 148.206 72.9237C147.722 72.7677 147.192 72.6898 146.615 72.6898C145.669 72.6898 144.808 72.9341 144.034 73.4228C143.259 73.9115 142.643 74.6315 142.185 75.5829C141.728 76.5343 141.499 77.7015 141.499 79.0844C141.499 80.4673 141.73 81.6344 142.193 82.5858C142.656 83.5372 143.282 84.2572 144.073 84.7459C144.863 85.2346 145.752 85.479 146.74 85.479C147.655 85.479 148.46 85.284 149.157 84.8941C149.859 84.499 150.405 83.9427 150.795 83.2253C151.19 82.5026 151.387 81.6526 151.387 80.6752L151.98 80.8H147.176V79.0844H153.259V80.8C153.259 82.1153 152.978 83.2591 152.417 84.2312C151.86 85.2034 151.091 85.9573 150.108 86.4928C149.131 87.023 148.008 87.2882 146.74 87.2882C145.325 87.2882 144.083 86.9554 143.012 86.29C141.946 85.6245 141.114 84.6783 140.517 83.4514C139.924 82.2245 139.628 80.7688 139.628 79.0844C139.628 77.821 139.797 76.6851 140.134 75.6765C140.478 74.6627 140.961 73.7997 141.585 73.0875C142.209 72.3752 142.947 71.8294 143.8 71.4498C144.652 71.0703 145.591 70.8806 146.615 70.8806C147.457 70.8806 148.242 71.0079 148.97 71.2627C149.703 71.5122 150.355 71.8683 150.927 72.331C151.504 72.7885 151.985 73.337 152.37 73.9765C152.755 74.6107 153.02 75.3152 153.165 76.0898H151.169ZM157.01 87.0698V71.0989H158.944V85.3542H166.368V87.0698H157.01ZM169.802 87.0698V71.0989H179.441V72.8145H171.736V78.211H178.942V79.9266H171.736V85.3542H179.566V87.0698H169.802ZM189.981 87.0698V71.0989H195.378C196.631 71.0989 197.655 71.3251 198.45 71.7774C199.251 72.2245 199.844 72.8301 200.228 73.5944C200.613 74.3586 200.805 75.2112 200.805 76.1522C200.805 77.0932 200.613 77.9484 200.228 78.7178C199.849 79.4873 199.261 80.1007 198.466 80.5582C197.67 81.0105 196.652 81.2367 195.409 81.2367H191.541V79.5211H195.347C196.204 79.5211 196.893 79.3729 197.413 79.0766C197.933 78.7802 198.31 78.3799 198.544 77.8756C198.783 77.3661 198.903 76.7917 198.903 76.1522C198.903 75.5127 198.783 74.9409 198.544 74.4366C198.31 73.9323 197.93 73.5372 197.405 73.2512C196.88 72.9601 196.184 72.8145 195.315 72.8145H191.915V87.0698H189.981ZM203.385 87.0698H201.358L207.222 71.0989H209.218L215.083 87.0698H213.055L208.283 73.6256H208.158L203.385 87.0698ZM204.134 80.8312H212.306V82.5468H204.134V80.8312ZM228.177 76.0898C228.005 75.5647 227.779 75.0942 227.498 74.6783C227.223 74.2572 226.892 73.8985 226.508 73.6022C226.128 73.3058 225.697 73.0797 225.213 72.9237C224.73 72.7677 224.199 72.6898 223.622 72.6898C222.676 72.6898 221.816 72.9341 221.041 73.4228C220.267 73.9115 219.65 74.6315 219.193 75.5829C218.735 76.5343 218.507 77.7015 218.507 79.0844C218.507 80.4673 218.738 81.6344 219.201 82.5858C219.663 83.5372 220.29 84.2572 221.08 84.7459C221.87 85.2346 222.759 85.479 223.747 85.479C224.662 85.479 225.468 85.284 226.165 84.8941C226.866 84.499 227.412 83.9427 227.802 83.2253C228.197 82.5026 228.395 81.6526 228.395 80.6752L228.988 80.8H224.184V79.0844H230.267V80.8C230.267 82.1153 229.986 83.2591 229.424 84.2312C228.868 85.2034 228.099 85.9573 227.116 86.4928C226.139 87.023 225.016 87.2882 223.747 87.2882C222.333 87.2882 221.091 86.9554 220.02 86.29C218.954 85.6245 218.122 84.6783 217.524 83.4514C216.931 82.2245 216.635 80.7688 216.635 79.0844C216.635 77.821 216.804 76.6851 217.142 75.6765C217.485 74.6627 217.969 73.7997 218.592 73.0875C219.216 72.3752 219.955 71.8294 220.807 71.4498C221.66 71.0703 222.598 70.8806 223.622 70.8806C224.465 70.8806 225.25 71.0079 225.977 71.2627C226.71 71.5122 227.363 71.8683 227.935 72.331C228.512 72.7885 228.993 73.337 229.378 73.9765C229.762 74.6107 230.027 75.3152 230.173 76.0898H228.177ZM234.018 87.0698V71.0989H243.657V72.8145H235.952V78.211H243.158V79.9266H235.952V85.3542H243.782V87.0698H234.018ZM254.197 87.0698V71.0989H263.774V72.8145H256.131V78.211H263.056V79.9266H256.131V87.0698H254.197ZM281.001 79.0844C281.001 80.7688 280.696 82.2245 280.088 83.4514C279.48 84.6783 278.645 85.6245 277.585 86.29C276.524 86.9554 275.313 87.2882 273.951 87.2882C272.589 87.2882 271.377 86.9554 270.317 86.29C269.256 85.6245 268.422 84.6783 267.814 83.4514C267.205 82.2245 266.901 80.7688 266.901 79.0844C266.901 77.3999 267.205 75.9443 267.814 74.7173C268.422 73.4904 269.256 72.5442 270.317 71.8787C271.377 71.2133 272.589 70.8806 273.951 70.8806C275.313 70.8806 276.524 71.2133 277.585 71.8787C278.645 72.5442 279.48 73.4904 280.088 74.7173C280.696 75.9443 281.001 77.3999 281.001 79.0844ZM279.129 79.0844C279.129 77.7015 278.898 76.5343 278.435 75.5829C277.977 74.6315 277.356 73.9115 276.571 73.4228C275.791 72.9341 274.918 72.6898 273.951 72.6898C272.984 72.6898 272.108 72.9341 271.323 73.4228C270.543 73.9115 269.922 74.6315 269.459 75.5829C269.002 76.5343 268.773 77.7015 268.773 79.0844C268.773 80.4673 269.002 81.6344 269.459 82.5858C269.922 83.5372 270.543 84.2572 271.323 84.7459C272.108 85.2346 272.984 85.479 273.951 85.479C274.918 85.479 275.791 85.2346 276.571 84.7459C277.356 84.2572 277.977 83.5372 278.435 82.5858C278.898 81.6344 279.129 80.4673 279.129 79.0844ZM284.692 87.0698V71.0989H290.088C291.336 71.0989 292.36 71.3121 293.161 71.7384C293.961 72.1595 294.554 72.7392 294.939 73.4774C295.323 74.2156 295.516 75.0552 295.516 75.9962C295.516 76.9372 295.323 77.7717 294.939 78.4995C294.554 79.2273 293.964 79.7992 293.168 80.2151C292.373 80.6258 291.357 80.8312 290.119 80.8312H285.752V79.0844H290.057C290.909 79.0844 291.596 78.9596 292.116 78.7101C292.641 78.4605 293.02 78.107 293.254 77.6495C293.493 77.1868 293.613 76.6357 293.613 75.9962C293.613 75.3568 293.493 74.7979 293.254 74.3196C293.015 73.8413 292.633 73.4722 292.108 73.2123C291.583 72.9471 290.889 72.8145 290.026 72.8145H286.626V87.0698H284.692ZM292.209 79.8954L296.14 87.0698H293.894L290.026 79.8954H292.209ZM299.177 71.0989H301.486L306.913 84.356H307.101L312.528 71.0989H314.836V87.0698H313.027V74.9357H312.871L307.88 87.0698H306.134L301.143 74.9357H300.987V87.0698H299.177V71.0989Z" fill="black"/>
<path d="M430.154 71.0989H432.462L437.89 84.356H438.077L443.505 71.0989H445.813V87.0698H444.004V74.9357H443.848L438.857 87.0698H437.11L432.119 74.9357H431.963V87.0698H430.154V71.0989ZM460.611 71.0989H462.545V81.6734C462.545 82.7652 462.287 83.74 461.773 84.5978C461.263 85.4504 460.543 86.1236 459.613 86.6175C458.682 87.1062 457.59 87.3506 456.337 87.3506C455.084 87.3506 453.993 87.1062 453.062 86.6175C452.131 86.1236 451.409 85.4504 450.894 84.5978C450.385 83.74 450.13 82.7652 450.13 81.6734V71.0989H452.064V81.5174C452.064 82.2973 452.235 82.9913 452.578 83.5996C452.922 84.2027 453.41 84.6783 454.045 85.0267C454.684 85.3698 455.448 85.5414 456.337 85.5414C457.226 85.5414 457.991 85.3698 458.63 85.0267C459.269 84.6783 459.758 84.2027 460.096 83.5996C460.439 82.9913 460.611 82.2973 460.611 81.5174V71.0989ZM466.846 87.0698V71.0989H468.78V85.3542H476.204V87.0698H466.846ZM476.641 72.8145V71.0989H488.619V72.8145H483.597V87.0698H481.663V72.8145H476.641ZM493.977 71.0989V87.0698H492.043V71.0989H493.977ZM504.907 78.2266V79.9422H497.92V78.2266H504.907ZM508.834 87.0698V71.0989H514.231C515.484 71.0989 516.508 71.3251 517.303 71.7774C518.104 72.2245 518.696 72.8301 519.081 73.5944C519.466 74.3586 519.658 75.2112 519.658 76.1522C519.658 77.0932 519.466 77.9484 519.081 78.7178C518.702 79.4873 518.114 80.1007 517.319 80.5582C516.523 81.0105 515.504 81.2367 514.262 81.2367H510.394V79.5211H514.199C515.057 79.5211 515.746 79.3729 516.266 79.0766C516.786 78.7802 517.163 78.3799 517.397 77.8756C517.636 77.3661 517.755 76.7917 517.755 76.1522C517.755 75.5127 517.636 74.9409 517.397 74.4366C517.163 73.9323 516.783 73.5372 516.258 73.2512C515.733 72.9601 515.036 72.8145 514.168 72.8145H510.768V87.0698H508.834ZM522.238 87.0698H520.211L526.075 71.0989H528.071L533.936 87.0698H531.908L527.135 73.6256H527.011L522.238 87.0698ZM522.987 80.8312H531.159V82.5468H522.987V80.8312ZM547.029 76.0898C546.858 75.5647 546.632 75.0942 546.351 74.6783C546.075 74.2572 545.745 73.8985 545.361 73.6022C544.981 73.3058 544.55 73.0797 544.066 72.9237C543.583 72.7677 543.052 72.6898 542.475 72.6898C541.529 72.6898 540.669 72.9341 539.894 73.4228C539.119 73.9115 538.503 74.6315 538.046 75.5829C537.588 76.5343 537.36 77.7015 537.36 79.0844C537.36 80.4673 537.591 81.6344 538.054 82.5858C538.516 83.5372 539.143 84.2572 539.933 84.7459C540.723 85.2346 541.612 85.479 542.6 85.479C543.515 85.479 544.321 85.284 545.017 84.8941C545.719 84.499 546.265 83.9427 546.655 83.2253C547.05 82.5026 547.248 81.6526 547.248 80.6752L547.84 80.8H543.037V79.0844H549.119V80.8C549.119 82.1153 548.839 83.2591 548.277 84.2312C547.721 85.2034 546.951 85.9573 545.969 86.4928C544.991 87.023 543.869 87.2882 542.6 87.2882C541.186 87.2882 539.943 86.9554 538.872 86.29C537.807 85.6245 536.975 84.6783 536.377 83.4514C535.784 82.2245 535.488 80.7688 535.488 79.0844C535.488 77.821 535.657 76.6851 535.995 75.6765C536.338 74.6627 536.821 73.7997 537.445 73.0875C538.069 72.3752 538.807 71.8294 539.66 71.4498C540.513 71.0703 541.451 70.8806 542.475 70.8806C543.317 70.8806 544.102 71.0079 544.83 71.2627C545.563 71.5122 546.216 71.8683 546.788 72.331C547.365 72.7885 547.846 73.337 548.23 73.9765C548.615 74.6107 548.88 75.3152 549.026 76.0898H547.029ZM552.871 87.0698V71.0989H562.51V72.8145H554.805V78.211H562.011V79.9266H554.805V85.3542H562.634V87.0698H552.871ZM573.05 87.0698V71.0989H582.626V72.8145H574.984V78.211H581.909V79.9266H574.984V87.0698H573.05ZM599.853 79.0844C599.853 80.7688 599.549 82.2245 598.941 83.4514C598.333 84.6783 597.498 85.6245 596.438 86.29C595.377 86.9554 594.166 87.2882 592.804 87.2882C591.442 87.2882 590.23 86.9554 589.17 86.29C588.109 85.6245 587.275 84.6783 586.666 83.4514C586.058 82.2245 585.754 80.7688 585.754 79.0844C585.754 77.3999 586.058 75.9443 586.666 74.7173C587.275 73.4904 588.109 72.5442 589.17 71.8787C590.23 71.2133 591.442 70.8806 592.804 70.8806C594.166 70.8806 595.377 71.2133 596.438 71.8787C597.498 72.5442 598.333 73.4904 598.941 74.7173C599.549 75.9443 599.853 77.3999 599.853 79.0844ZM597.982 79.0844C597.982 77.7015 597.75 76.5343 597.288 75.5829C596.83 74.6315 596.209 73.9115 595.424 73.4228C594.644 72.9341 593.771 72.6898 592.804 72.6898C591.837 72.6898 590.961 72.9341 590.176 73.4228C589.396 73.9115 588.775 74.6315 588.312 75.5829C587.854 76.5343 587.626 77.7015 587.626 79.0844C587.626 80.4673 587.854 81.6344 588.312 82.5858C588.775 83.5372 589.396 84.2572 590.176 84.7459C590.961 85.2346 591.837 85.479 592.804 85.479C593.771 85.479 594.644 85.2346 595.424 84.7459C596.209 84.2572 596.83 83.5372 597.288 82.5858C597.75 81.6344 597.982 80.4673 597.982 79.0844ZM603.544 87.0698V71.0989H608.941C610.189 71.0989 611.213 71.3121 612.013 71.7384C612.814 72.1595 613.407 72.7392 613.791 73.4774C614.176 74.2156 614.368 75.0552 614.368 75.9962C614.368 76.9372 614.176 77.7717 613.791 78.4995C613.407 79.2273 612.817 79.7992 612.021 80.2151C611.226 80.6258 610.209 80.8312 608.972 80.8312H604.605V79.0844H608.91C609.762 79.0844 610.449 78.9596 610.968 78.7101C611.494 78.4605 611.873 78.107 612.107 77.6495C612.346 77.1868 612.466 76.6357 612.466 75.9962C612.466 75.3568 612.346 74.7979 612.107 74.3196C611.868 73.8413 611.486 73.4722 610.961 73.2123C610.436 72.9471 609.741 72.8145 608.878 72.8145H605.478V87.0698H603.544ZM611.062 79.8954L614.992 87.0698H612.746L608.878 79.8954H611.062ZM618.03 71.0989H620.339L625.766 84.356H625.953L631.381 71.0989H633.689V87.0698H631.88V74.9357H631.724L626.733 87.0698H624.986L619.996 74.9357H619.84V87.0698H618.03V71.0989Z" fill="black"/>
<path d="M408.395 450.24V434.269H411.379V436.869H411.577C411.909 435.988 412.453 435.302 413.209 434.81C413.965 434.311 414.869 434.061 415.923 434.061C416.99 434.061 417.885 434.311 418.605 434.81C419.333 435.309 419.87 435.995 420.217 436.869H420.383C420.765 436.016 421.371 435.337 422.203 434.831C423.035 434.318 424.026 434.061 425.177 434.061C426.626 434.061 427.807 434.515 428.722 435.423C429.644 436.332 430.105 437.701 430.105 439.531V450.24H426.996V439.822C426.996 438.74 426.702 437.957 426.113 437.472C425.523 436.987 424.82 436.744 424.002 436.744C422.99 436.744 422.203 437.056 421.642 437.68C421.08 438.297 420.799 439.09 420.799 440.061V450.24H417.701V439.624C417.701 438.758 417.43 438.061 416.89 437.534C416.349 437.007 415.646 436.744 414.779 436.744C414.19 436.744 413.646 436.9 413.147 437.212C412.654 437.517 412.256 437.943 411.951 438.491C411.653 439.038 411.504 439.673 411.504 440.394V450.24H408.395ZM441 450.563C439.502 450.563 438.196 450.219 437.08 449.533C435.964 448.847 435.097 447.887 434.48 446.653C433.863 445.419 433.555 443.977 433.555 442.328C433.555 440.671 433.863 439.222 434.48 437.981C435.097 436.741 435.964 435.777 437.08 435.091C438.196 434.404 439.502 434.061 441 434.061C442.497 434.061 443.803 434.404 444.919 435.091C446.036 435.777 446.902 436.741 447.519 437.981C448.136 439.222 448.444 440.671 448.444 442.328C448.444 443.977 448.136 445.419 447.519 446.653C446.902 447.887 446.036 448.847 444.919 449.533C443.803 450.219 442.497 450.563 441 450.563ZM441.01 447.953C441.98 447.953 442.784 447.696 443.422 447.183C444.06 446.67 444.531 445.988 444.836 445.135C445.148 444.282 445.304 443.343 445.304 442.317C445.304 441.298 445.148 440.362 444.836 439.51C444.531 438.65 444.06 437.961 443.422 437.441C442.784 436.921 441.98 436.661 441.01 436.661C440.033 436.661 439.222 436.921 438.577 437.441C437.939 437.961 437.464 438.65 437.152 439.51C436.847 440.362 436.695 441.298 436.695 442.317C436.695 443.343 436.847 444.282 437.152 445.135C437.464 445.988 437.939 446.67 438.577 447.183C439.222 447.696 440.033 447.953 441.01 447.953ZM451.915 450.24V434.269H454.919V436.806H455.086C455.377 435.947 455.89 435.271 456.625 434.779C457.366 434.28 458.205 434.03 459.141 434.03C459.335 434.03 459.564 434.037 459.827 434.051C460.098 434.065 460.309 434.082 460.461 434.103V437.077C460.337 437.042 460.115 437.004 459.796 436.962C459.477 436.914 459.158 436.89 458.839 436.89C458.105 436.89 457.45 437.046 456.874 437.357C456.306 437.662 455.855 438.089 455.523 438.636C455.19 439.177 455.023 439.794 455.023 440.487V450.24H451.915ZM469.463 450.563C467.89 450.563 466.535 450.226 465.398 449.554C464.268 448.875 463.395 447.922 462.778 446.695C462.168 445.461 461.863 444.015 461.863 442.359C461.863 440.723 462.168 439.281 462.778 438.033C463.395 436.786 464.254 435.812 465.356 435.112C466.465 434.411 467.762 434.061 469.245 434.061C470.146 434.061 471.02 434.21 471.865 434.508C472.711 434.807 473.47 435.274 474.142 435.912C474.815 436.55 475.345 437.378 475.733 438.397C476.121 439.409 476.315 440.64 476.315 442.088V443.191H463.62V440.861H473.269C473.269 440.044 473.103 439.319 472.77 438.688C472.437 438.051 471.969 437.548 471.366 437.181C470.77 436.813 470.07 436.63 469.266 436.63C468.392 436.63 467.63 436.844 466.978 437.274C466.334 437.697 465.835 438.252 465.481 438.938C465.134 439.617 464.961 440.355 464.961 441.153V442.972C464.961 444.04 465.148 444.948 465.523 445.696C465.904 446.445 466.434 447.017 467.113 447.412C467.793 447.8 468.586 447.994 469.495 447.994C470.084 447.994 470.621 447.911 471.106 447.745C471.591 447.571 472.011 447.315 472.364 446.975C472.718 446.636 472.988 446.216 473.175 445.717L476.118 446.248C475.882 447.114 475.459 447.873 474.849 448.525C474.246 449.169 473.487 449.672 472.572 450.032C471.664 450.386 470.628 450.563 469.463 450.563ZM490.623 428.946V450.24H487.514V428.946H490.623ZM501.533 450.563C500.035 450.563 498.729 450.219 497.613 449.533C496.497 448.847 495.63 447.887 495.013 446.653C494.396 445.419 494.088 443.977 494.088 442.328C494.088 440.671 494.396 439.222 495.013 437.981C495.63 436.741 496.497 435.777 497.613 435.091C498.729 434.404 500.035 434.061 501.533 434.061C503.03 434.061 504.336 434.404 505.452 435.091C506.568 435.777 507.435 436.741 508.052 437.981C508.669 439.222 508.977 440.671 508.977 442.328C508.977 443.977 508.669 445.419 508.052 446.653C507.435 447.887 506.568 448.847 505.452 449.533C504.336 450.219 503.03 450.563 501.533 450.563ZM501.543 447.953C502.513 447.953 503.317 447.696 503.955 447.183C504.593 446.67 505.064 445.988 505.369 445.135C505.681 444.282 505.837 443.343 505.837 442.317C505.837 441.298 505.681 440.362 505.369 439.51C505.064 438.65 504.593 437.961 503.955 437.441C503.317 436.921 502.513 436.661 501.543 436.661C500.566 436.661 499.755 436.921 499.11 437.441C498.472 437.961 497.997 438.65 497.685 439.51C497.38 440.362 497.228 441.298 497.228 442.317C497.228 443.343 497.38 444.282 497.685 445.135C497.997 445.988 498.472 446.67 499.11 447.183C499.755 447.696 500.566 447.953 501.543 447.953ZM517.095 450.594C516.083 450.594 515.168 450.407 514.35 450.032C513.532 449.651 512.884 449.1 512.406 448.379C511.935 447.658 511.699 446.774 511.699 445.728C511.699 444.826 511.872 444.085 512.219 443.503C512.565 442.92 513.033 442.459 513.622 442.12C514.212 441.78 514.87 441.523 515.598 441.35C516.326 441.177 517.068 441.045 517.823 440.955C518.78 440.844 519.556 440.754 520.152 440.685C520.748 440.608 521.182 440.487 521.452 440.321C521.722 440.154 521.857 439.884 521.857 439.51V439.437C521.857 438.529 521.601 437.825 521.088 437.326C520.582 436.827 519.826 436.578 518.821 436.578C517.775 436.578 516.95 436.81 516.347 437.274C515.751 437.732 515.338 438.241 515.109 438.803L512.188 438.137C512.534 437.167 513.04 436.384 513.706 435.787C514.378 435.184 515.151 434.748 516.024 434.477C516.898 434.2 517.816 434.061 518.78 434.061C519.417 434.061 520.093 434.138 520.807 434.29C521.528 434.436 522.201 434.706 522.824 435.101C523.455 435.496 523.972 436.061 524.374 436.796C524.776 437.524 524.977 438.47 524.977 439.635V450.24H521.941V448.057H521.816C521.615 448.459 521.313 448.854 520.911 449.242C520.509 449.63 519.993 449.953 519.362 450.209C518.731 450.466 517.976 450.594 517.095 450.594ZM517.771 448.098C518.631 448.098 519.365 447.928 519.975 447.589C520.592 447.249 521.06 446.806 521.379 446.258C521.705 445.703 521.868 445.111 521.868 444.48V442.421C521.757 442.532 521.542 442.636 521.223 442.733C520.911 442.823 520.554 442.903 520.152 442.972C519.75 443.035 519.359 443.094 518.977 443.149C518.596 443.198 518.277 443.239 518.021 443.274C517.418 443.35 516.867 443.478 516.367 443.658C515.875 443.839 515.48 444.099 515.182 444.438C514.891 444.771 514.745 445.215 514.745 445.769C514.745 446.539 515.03 447.121 515.598 447.516C516.166 447.904 516.891 448.098 517.771 448.098ZM535.096 450.552C533.807 450.552 532.656 450.223 531.644 449.564C530.639 448.899 529.849 447.953 529.274 446.726C528.705 445.492 528.421 444.012 528.421 442.286C528.421 440.56 528.709 439.083 529.284 437.857C529.866 436.63 530.663 435.69 531.676 435.039C532.688 434.387 533.835 434.061 535.117 434.061C536.108 434.061 536.906 434.228 537.509 434.56C538.119 434.886 538.59 435.268 538.923 435.704C539.262 436.141 539.526 436.526 539.713 436.858H539.9V428.946H543.009V450.24H539.973V447.755H539.713C539.526 448.095 539.255 448.483 538.902 448.92C538.555 449.356 538.077 449.738 537.467 450.063C536.857 450.389 536.067 450.552 535.096 450.552ZM535.783 447.901C536.677 447.901 537.432 447.665 538.049 447.194C538.673 446.715 539.145 446.053 539.463 445.208C539.789 444.362 539.952 443.378 539.952 442.255C539.952 441.146 539.793 440.175 539.474 439.343C539.155 438.512 538.687 437.863 538.07 437.399C537.453 436.935 536.691 436.702 535.783 436.702C534.847 436.702 534.067 436.945 533.443 437.43C532.819 437.915 532.348 438.577 532.029 439.416C531.717 440.255 531.561 441.201 531.561 442.255C531.561 443.322 531.721 444.282 532.039 445.135C532.358 445.988 532.83 446.663 533.454 447.163C534.084 447.655 534.861 447.901 535.783 447.901ZM547.446 450.24V434.269H550.555V450.24H547.446ZM549.016 431.805C548.476 431.805 548.011 431.625 547.623 431.264C547.242 430.897 547.051 430.46 547.051 429.954C547.051 429.441 547.242 429.005 547.623 428.644C548.011 428.277 548.476 428.093 549.016 428.093C549.557 428.093 550.018 428.277 550.399 428.644C550.787 429.005 550.981 429.441 550.981 429.954C550.981 430.46 550.787 430.897 550.399 431.264C550.018 431.625 549.557 431.805 549.016 431.805ZM557.847 440.758V450.24H554.738V434.269H557.722V436.869H557.919C558.287 436.023 558.862 435.344 559.645 434.831C560.436 434.318 561.43 434.061 562.63 434.061C563.718 434.061 564.671 434.29 565.489 434.748C566.307 435.198 566.941 435.871 567.392 436.765C567.842 437.659 568.068 438.765 568.068 440.082V450.24H564.959V440.456C564.959 439.298 564.657 438.394 564.054 437.742C563.451 437.084 562.623 436.754 561.569 436.754C560.848 436.754 560.207 436.91 559.645 437.222C559.091 437.534 558.651 437.992 558.325 438.595C558.006 439.191 557.847 439.912 557.847 440.758ZM578.933 456.562C577.665 456.562 576.573 456.396 575.658 456.063C574.75 455.73 574.008 455.29 573.433 454.742C572.857 454.195 572.428 453.595 572.143 452.944L574.816 451.841C575.003 452.146 575.252 452.469 575.564 452.808C575.883 453.155 576.313 453.45 576.854 453.692C577.401 453.935 578.105 454.056 578.964 454.056C580.143 454.056 581.117 453.769 581.886 453.193C582.656 452.625 583.04 451.717 583.04 450.469V447.329H582.843C582.656 447.669 582.385 448.046 582.032 448.462C581.685 448.878 581.207 449.239 580.597 449.544C579.987 449.849 579.193 450.001 578.216 450.001C576.954 450.001 575.817 449.706 574.805 449.117C573.8 448.521 573.003 447.644 572.414 446.487C571.832 445.322 571.54 443.891 571.54 442.192C571.54 440.494 571.828 439.038 572.403 437.825C572.986 436.612 573.783 435.683 574.795 435.039C575.807 434.387 576.954 434.061 578.237 434.061C579.228 434.061 580.028 434.228 580.638 434.56C581.248 434.886 581.723 435.268 582.063 435.704C582.41 436.141 582.676 436.526 582.864 436.858H583.092V434.269H586.139V450.594C586.139 451.966 585.82 453.093 585.182 453.973C584.545 454.853 583.682 455.505 582.593 455.928C581.512 456.351 580.292 456.562 578.933 456.562ZM578.902 447.422C579.796 447.422 580.552 447.214 581.169 446.799C581.793 446.376 582.264 445.773 582.583 444.989C582.909 444.199 583.072 443.253 583.072 442.151C583.072 441.076 582.912 440.13 582.593 439.312C582.274 438.494 581.806 437.857 581.19 437.399C580.573 436.935 579.81 436.702 578.902 436.702C577.966 436.702 577.186 436.945 576.563 437.43C575.939 437.909 575.467 438.56 575.148 439.385C574.837 440.21 574.681 441.132 574.681 442.151C574.681 443.198 574.84 444.116 575.159 444.906C575.478 445.696 575.949 446.313 576.573 446.757C577.204 447.201 577.98 447.422 578.902 447.422ZM605.512 434.269V436.765H596.789V434.269H605.512ZM599.128 430.443H602.237V445.551C602.237 446.154 602.327 446.608 602.507 446.913C602.688 447.211 602.92 447.416 603.204 447.526C603.495 447.63 603.811 447.682 604.15 447.682C604.4 447.682 604.618 447.665 604.805 447.63C604.993 447.596 605.138 447.568 605.242 447.547L605.804 450.115C605.623 450.185 605.367 450.254 605.034 450.323C604.701 450.4 604.285 450.441 603.786 450.448C602.968 450.462 602.206 450.316 601.499 450.011C600.792 449.706 600.22 449.235 599.783 448.597C599.347 447.96 599.128 447.159 599.128 446.196V430.443ZM608.951 450.24V434.269H612.06V450.24H608.951ZM610.521 431.805C609.981 431.805 609.516 431.625 609.128 431.264C608.747 430.897 608.556 430.46 608.556 429.954C608.556 429.441 608.747 429.005 609.128 428.644C609.516 428.277 609.981 428.093 610.521 428.093C611.062 428.093 611.523 428.277 611.904 428.644C612.293 429.005 612.487 429.441 612.487 429.954C612.487 430.46 612.293 430.897 611.904 431.264C611.523 431.625 611.062 431.805 610.521 431.805ZM616.243 450.24V434.269H619.227V436.869H619.425C619.757 435.988 620.301 435.302 621.057 434.81C621.813 434.311 622.717 434.061 623.771 434.061C624.838 434.061 625.732 434.311 626.453 434.81C627.181 435.309 627.718 435.995 628.065 436.869H628.231C628.613 436.016 629.219 435.337 630.051 434.831C630.883 434.318 631.874 434.061 633.025 434.061C634.474 434.061 635.655 434.515 636.57 435.423C637.492 436.332 637.953 437.701 637.953 439.531V450.24H634.844V439.822C634.844 438.74 634.55 437.957 633.961 437.472C633.371 436.987 632.668 436.744 631.85 436.744C630.838 436.744 630.051 437.056 629.49 437.68C628.928 438.297 628.647 439.09 628.647 440.061V450.24H625.549V439.624C625.549 438.758 625.278 438.061 624.738 437.534C624.197 437.007 623.494 436.744 622.627 436.744C622.038 436.744 621.494 436.9 620.995 437.212C620.502 437.517 620.104 437.943 619.799 438.491C619.501 439.038 619.352 439.673 619.352 440.394V450.24H616.243ZM649.003 450.563C647.43 450.563 646.075 450.226 644.938 449.554C643.808 448.875 642.935 447.922 642.318 446.695C641.708 445.461 641.403 444.015 641.403 442.359C641.403 440.723 641.708 439.281 642.318 438.033C642.935 436.786 643.794 435.812 644.896 435.112C646.005 434.411 647.302 434.061 648.785 434.061C649.686 434.061 650.56 434.21 651.405 434.508C652.251 434.807 653.01 435.274 653.682 435.912C654.355 436.55 654.885 437.378 655.273 438.397C655.661 439.409 655.856 440.64 655.856 442.088V443.191H643.16V440.861H652.809C652.809 440.044 652.643 439.319 652.31 438.688C651.977 438.051 651.509 437.548 650.906 437.181C650.31 436.813 649.61 436.63 648.806 436.63C647.933 436.63 647.17 436.844 646.518 437.274C645.874 437.697 645.375 438.252 645.021 438.938C644.675 439.617 644.501 440.355 644.501 441.153V442.972C644.501 444.04 644.688 444.948 645.063 445.696C645.444 446.445 645.974 447.017 646.654 447.412C647.333 447.8 648.127 447.994 649.035 447.994C649.624 447.994 650.161 447.911 650.646 447.745C651.132 447.571 651.551 447.315 651.904 446.975C652.258 446.636 652.528 446.216 652.715 445.717L655.658 446.248C655.422 447.114 655 447.873 654.39 448.525C653.786 449.169 653.027 449.672 652.112 450.032C651.204 450.386 650.168 450.563 649.003 450.563Z" fill="black"/>
<g clip-path="url(#clip1_455_3112)">
<path fill-rule="evenodd" clip-rule="evenodd" d="M195.81 495.93C195.81 492.047 197.352 488.324 200.098 485.578C202.844 482.832 206.567 481.29 210.45 481.29C214.333 481.29 218.057 482.832 220.802 485.578C223.548 488.324 225.09 492.047 225.09 495.93C225.09 499.813 223.548 503.537 220.802 506.282C218.057 509.028 214.333 510.57 210.45 510.57C206.567 510.57 202.844 509.028 200.098 506.282C197.352 503.537 195.81 499.813 195.81 495.93V495.93ZM209.615 502.196L218.043 491.659L216.521 490.441L209.334 499.422L204.243 495.18L202.993 496.68L209.615 502.198V502.196Z" fill="#27AE60"/>
</g>
<g clip-path="url(#clip2_455_3112)">
<path d="M546.584 485.535C540.874 479.825 531.505 479.825 525.795 485.535C520.086 491.244 520.086 500.614 525.795 506.323C531.505 512.033 540.728 512.033 546.438 506.323C552.147 500.614 552.294 491.244 546.584 485.535V485.535ZM540.289 502.078L536.19 497.979L532.09 502.078L530.041 500.028L534.14 495.929L530.041 491.83L532.09 489.78L536.19 493.879L540.289 489.78L542.338 491.83L538.239 495.929L542.338 500.028L540.289 502.078V502.078Z" fill="#EB5757"/>
</g>
<g filter="url(#filter1_ddd_455_3112)">
<rect x="86.01" y="104.31" width="247.05" height="292.8" rx="14.64" fill="white"/>
<rect x="146.4" y="155.55" width="126.27" height="12.81" rx="6.405" fill="#C1B4E6"/>
<rect x="146.4" y="183" width="126.27" height="12.81" rx="6.405" fill="#C1B4E6"/>
<rect x="146.4" y="210.45" width="126.27" height="14.64" rx="7.32" fill="#C1B4E6"/>
<rect x="146.4" y="239.73" width="126.27" height="14.64" rx="7.32" fill="#C1B4E6"/>
<rect x="146.4" y="269.01" width="126.27" height="12.81" rx="6.405" fill="#C1B4E6"/>
<rect x="146.4" y="296.46" width="126.27" height="12.81" rx="6.405" fill="#C1B4E6"/>
<rect x="179.34" y="323.91" width="60.39" height="21.96" rx="10.98" fill="#4F3895"/>
</g>
</g>
<defs>
<filter id="filter0_ddd_455_3112" x="223.577" y="35.7089" width="616.077" height="661.827" filterUnits="userSpaceOnUse" color-interpolation-filters="sRGB">
<feFlood flood-opacity="0" result="BackgroundImageFix"/>
<feColorMatrix in="SourceAlpha" type="matrix" values="0 0 0 0 0 0 0 0 0 0 0 0 0 0 0 0 0 0 127 0" result="hardAlpha"/>
<feOffset dy="9.4447"/>
<feGaussianBlur stdDeviation="7.51721"/>
<feColorMatrix type="matrix" values="0 0 0 0 0.215686 0 0 0 0 0 0 0 0 0 0.423529 0 0 0 0.0157037 0"/>
<feBlend mode="normal" in2="BackgroundImageFix" result="effect1_dropShadow_455_3112"/>
<feColorMatrix in="SourceAlpha" type="matrix" values="0 0 0 0 0 0 0 0 0 0 0 0 0 0 0 0 0 0 127 0" result="hardAlpha"/>
<feOffset dy="44.6477"/>
<feGaussianBlur stdDeviation="29.3855"/>
<feColorMatrix type="matrix" values="0 0 0 0 0.215686 0 0 0 0 0 0 0 0 0 0.423529 0 0 0 0.0242963 0"/>
<feBlend mode="normal" in2="effect1_dropShadow_455_3112" result="effect2_dropShadow_455_3112"/>
<feColorMatrix in="SourceAlpha" type="matrix" values="0 0 0 0 0 0 0 0 0 0 0 0 0 0 0 0 0 0 127 0" result="hardAlpha"/>
<feOffset dy="115.912"/>
<feGaussianBlur stdDeviation="92.2567"/>
<feColorMatrix type="matrix" values="0 0 0 0 0.215 0 0 0 0 0 0 0 0 0 0.425 0 0 0 0.04 0"/>
<feBlend mode="normal" in2="effect2_dropShadow_455_3112" result="effect3_dropShadow_455_3112"/>
<feBlend mode="normal" in="SourceGraphic" in2="effect3_dropShadow_455_3112" result="shape"/>
</filter>
<filter id="filter1_ddd_455_3112" x="-98.5034" y="35.7089" width="616.077" height="661.827" filterUnits="userSpaceOnUse" color-interpolation-filters="sRGB">
<feFlood flood-opacity="0" result="BackgroundImageFix"/>
<feColorMatrix in="SourceAlpha" type="matrix" values="0 0 0 0 0 0 0 0 0 0 0 0 0 0 0 0 0 0 127 0" result="hardAlpha"/>
<feOffset dy="9.4447"/>
<feGaussianBlur stdDeviation="7.51721"/>
<feColorMatrix type="matrix" values="0 0 0 0 0.215686 0 0 0 0 0 0 0 0 0 0.423529 0 0 0 0.0157037 0"/>
<feBlend mode="normal" in2="BackgroundImageFix" result="effect1_dropShadow_455_3112"/>
<feColorMatrix in="SourceAlpha" type="matrix" values="0 0 0 0 0 0 0 0 0 0 0 0 0 0 0 0 0 0 127 0" result="hardAlpha"/>
<feOffset dy="44.6477"/>
<feGaussianBlur stdDeviation="29.3855"/>
<feColorMatrix type="matrix" values="0 0 0 0 0.215686 0 0 0 0 0 0 0 0 0 0.423529 0 0 0 0.0242963 0"/>
<feBlend mode="normal" in2="effect1_dropShadow_455_3112" result="effect2_dropShadow_455_3112"/>
<feColorMatrix in="SourceAlpha" type="matrix" values="0 0 0 0 0 0 0 0 0 0 0 0 0 0 0 0 0 0 127 0" result="hardAlpha"/>
<feOffset dy="115.912"/>
<feGaussianBlur stdDeviation="92.2567"/>
<feColorMatrix type="matrix" values="0 0 0 0 0.215 0 0 0 0 0 0 0 0 0 0.425 0 0 0 0.04 0"/>
<feBlend mode="normal" in2="effect2_dropShadow_455_3112" result="effect3_dropShadow_455_3112"/>
<feBlend mode="normal" in="SourceGraphic" in2="effect3_dropShadow_455_3112" result="shape"/>
</filter>
<linearGradient id="paint0_linear_455_3112" x1="468.48" y1="225.09" x2="594.75" y2="225.09" gradientUnits="userSpaceOnUse">
<stop stop-color="#C1B4E6"/>
<stop offset="1" stop-color="#C1B4E6" stop-opacity="0"/>
</linearGradient>
<linearGradient id="paint1_linear_455_3112" x1="468.48" y1="252.54" x2="591.09" y2="252.54" gradientUnits="userSpaceOnUse">
<stop stop-color="#C1B4E6"/>
<stop offset="1" stop-color="#C1B4E6" stop-opacity="0"/>
</linearGradient>
<clipPath id="clip0_455_3112">
<rect width="732" height="549" fill="white"/>
</clipPath>
<clipPath id="clip1_455_3112">
<rect width="29.28" height="29.28" fill="white" transform="translate(195.81 481.29)"/>
</clipPath>
<clipPath id="clip2_455_3112">
<rect width="29.28" height="29.28" fill="white" transform="translate(521.55 481.29)"/>
</clipPath>
</defs>
</svg>
