<?xml version="1.0" ?><!DOCTYPE svg  PUBLIC '-//W3C//DTD SVG 1.1//EN'  'http://www.w3.org/Graphics/SVG/1.1/DTD/svg11.dtd'><svg enable-background="new 0 0 64 64" id="Layer_1" version="1.1" viewBox="0 0 64 64" xml:space="preserve" xmlns="http://www.w3.org/2000/svg" xmlns:xlink="http://www.w3.org/1999/xlink"><g><polygon fill="#FFFFFF" points="18.6,1 4,15.6 4,63 51.3,63 51.3,1  "/><path d="M52.3,64H3V15.2L18.2,0h34V64z M5,62h45.2V2H19L5,16V62z" fill="#193651"/><polygon fill="#FDBF5E" points="8,59 8,17.3 20.3,5 47.3,5 47.3,59  "/><polygon fill="#E1E6E9" points="20.3,5 8,17.3 20.3,17.3  "/><path d="M56.8,50.9H33c-2.9,0-5.3-2.4-5.3-5.3l0,0c0-2.9,2.4-5.3,5.3-5.3h23.9" fill="#FFFFFF"/><path d="M56.8,51.9H33c-3.5,0-6.3-2.8-6.3-6.3c0-3.5,2.8-6.3,6.3-6.3h23.9v2H33c-2.4,0-4.3,1.9-4.3,4.3   c0,2.4,1.9,4.3,4.3,4.3h23.9V51.9z" fill="#193651"/><line fill="#FFFFFF" x1="56.8" x2="34.5" y1="45.6" y2="45.6"/><rect fill="#193651" height="2" width="22.3" x="34.5" y="44.6"/><path d="M61,63H27.9c-3.3,0-6-2.7-6-6l0,0c0-3.3,2.7-6,6-6l33.1,0" fill="#FFFFFF"/><path d="M61,64H27.9c-3.9,0-7-3.2-7-7s3.2-7,7-7H61v2H27.9c-2.8,0-5,2.3-5,5c0,2.8,2.3,5,5,5H61V64z" fill="#193651"/><line fill="#FFFFFF" x1="61" x2="29.7" y1="57" y2="57"/><rect fill="#193651" height="2" width="31.3" x="29.7" y="56"/><line fill="#FFFFFF" x1="27.3" x2="27.3" y1="12.1" y2="14.1"/><rect fill="#193651" height="2" width="2" x="26.3" y="12.1"/><line fill="#FFFFFF" x1="33.5" x2="33.5" y1="12.1" y2="14.1"/><rect fill="#193651" height="2" width="2" x="32.5" y="12.1"/><line fill="#FFFFFF" x1="39.7" x2="39.7" y1="12.1" y2="14.1"/><rect fill="#193651" height="2" width="2" x="38.7" y="12.1"/><line fill="#FFFFFF" x1="27.3" x2="41.9" y1="29.1" y2="29.1"/><rect fill="#193651" height="2" width="14.6" x="27.3" y="28.1"/><rect fill="#FFFFFF" height="5.8" width="5.8" x="15.4" y="26.2"/><path d="M22.1,33h-7.8v-7.8h7.8V33z M16.4,31h3.8v-3.8h-3.8V31z" fill="#193651"/><polygon fill="#FFFFFF" points="18.6,1 4,15.6 4,63 51.3,63 51.3,1  "/><polygon fill="#FDBF5E" points="8,59 8,17.3 20.3,5 47.3,5 47.3,59  "/><polygon fill="#E1E6E9" points="20.3,5 8,17.3 20.3,17.3  "/><path d="M56.8,50.9H33c-2.9,0-5.3-2.4-5.3-5.3l0,0c0-2.9,2.4-5.3,5.3-5.3h23.9" fill="#FFFFFF"/><line fill="#FFFFFF" x1="56.8" x2="34.5" y1="45.6" y2="45.6"/><rect fill="#193651" height="2" width="22.3" x="34.5" y="44.6"/><path d="M61,63H27.9c-3.3,0-6-2.7-6-6l0,0c0-3.3,2.7-6,6-6l33.1,0" fill="#FFFFFF"/><path d="M27.9,52H61v-2H33c-2.4,0-4.3-1.9-4.3-4.3c0-2.4,1.9-4.3,4.3-4.3h23.9v-2h-4.6V0h-34L3,15.2V64h58v-2H27.9   c-2.8,0-5-2.3-5-5C22.9,54.2,25.2,52,27.9,52z M20.9,57c0,2,0.8,3.7,2.1,5H5V16L19,2h31.2v37.3H33c-3.5,0-6.3,2.8-6.3,6.3   c0,1.7,0.7,3.2,1.7,4.3h-0.4C24.1,50,20.9,53.1,20.9,57z" fill="#193651"/><line fill="#FFFFFF" x1="61" x2="29.7" y1="57" y2="57"/><rect fill="#193651" height="2" width="31.3" x="29.7" y="56"/><line fill="#FFFFFF" x1="27.3" x2="27.3" y1="12.1" y2="14.1"/><rect fill="#193651" height="2" width="2" x="26.3" y="12.1"/><line fill="#FFFFFF" x1="33.5" x2="33.5" y1="12.1" y2="14.1"/><rect fill="#193651" height="2" width="2" x="32.5" y="12.1"/><line fill="#FFFFFF" x1="39.7" x2="39.7" y1="12.1" y2="14.1"/><rect fill="#193651" height="2" width="2" x="38.7" y="12.1"/><line fill="#FFFFFF" x1="27.3" x2="41.9" y1="29.1" y2="29.1"/><rect fill="#193651" height="2" width="14.6" x="27.3" y="28.1"/><rect fill="#FFFFFF" height="5.8" width="5.8" x="15.4" y="26.2"/><path d="M22.1,33h-7.8v-7.8h7.8V33z M16.4,31h3.8v-3.8h-3.8V31z" fill="#193651"/></g></svg>