<svg width="64" height="64" viewBox="0 0 64 64" fill="none" xmlns="http://www.w3.org/2000/svg">
<g filter="url(#filter0_i_135_11060)">
<circle cx="32" cy="32" r="32" fill="url(#paint0_linear_135_11060)"/>
</g>
<g filter="url(#filter1_d_135_11060)">
<path d="M23.2731 29.9349C22.9174 29.9349 22.576 29.9894 22.2362 30.0391C22.3463 29.6672 22.4595 29.2888 22.6414 28.9489C22.8233 28.4552 23.1072 28.0271 23.3896 27.5958C23.6257 27.1293 24.042 26.8135 24.3483 26.4143C24.669 26.0263 25.1061 25.7682 25.4522 25.4459C25.792 25.1093 26.2371 24.9409 26.5912 24.7036C26.9613 24.4904 27.2836 24.2548 27.6282 24.1425L28.488 23.7866L29.2441 23.4708L28.4704 20.3638L27.5181 20.5946C27.2134 20.6716 26.8417 20.7614 26.419 20.8688C25.9866 20.9489 25.5256 21.1686 25.0119 21.369C24.5047 21.5966 23.9176 21.7505 23.372 22.1161C22.8233 22.4656 22.1899 22.7574 21.6316 23.2255C21.0908 23.7081 20.4384 24.1265 19.9566 24.7405C19.4302 25.3145 18.9101 25.9173 18.5065 26.6034C18.0391 27.2576 17.7216 27.9758 17.3866 28.686C17.0835 29.3962 16.8395 30.1225 16.6401 30.8279C16.262 32.2419 16.0929 33.5854 16.0275 34.7349C15.9732 35.886 16.0051 36.8431 16.0721 37.5357C16.0961 37.8628 16.1407 38.1802 16.1726 38.3998L16.2125 38.6692L16.254 38.6596C16.5377 39.9916 17.1909 41.2156 18.1379 42.1901C19.085 43.1646 20.2872 43.8498 21.6055 44.1663C22.9238 44.4828 24.3044 44.4178 25.5874 43.9787C26.8705 43.5397 28.0037 42.7445 28.8559 41.6853C29.7081 40.626 30.2444 39.3459 30.403 37.9931C30.5615 36.6403 30.3357 35.27 29.7516 34.0408C29.1676 32.8115 28.2492 31.7736 27.1028 31.047C25.9563 30.3204 24.6285 29.9348 23.2731 29.9349ZM40.8209 29.9349C40.4651 29.9349 40.1238 29.9894 39.784 30.0391C39.894 29.6672 40.0073 29.2888 40.1892 28.9489C40.371 28.4552 40.655 28.0271 40.9373 27.5958C41.1734 27.1293 41.5898 26.8135 41.8961 26.4143C42.2167 26.0263 42.6538 25.7682 43 25.4459C43.3398 25.1093 43.7849 24.9409 44.139 24.7036C44.5091 24.4904 44.8313 24.2548 45.1759 24.1425L46.0358 23.7866L46.7919 23.4708L46.0182 20.3638L45.0658 20.5946C44.7612 20.6716 44.3895 20.7614 43.9667 20.8688C43.5344 20.9489 43.0734 21.1686 42.5597 21.369C42.054 21.5982 41.4654 21.7505 40.9198 22.1177C40.371 22.4672 39.7377 22.759 39.1794 23.2271C38.6386 23.7097 37.9861 24.1281 37.5044 24.7405C36.9779 25.3145 36.4579 25.9173 36.0543 26.6034C35.5869 27.2576 35.2694 27.9758 34.9344 28.686C34.6313 29.3962 34.3872 30.1225 34.1878 30.8279C33.8098 32.2419 33.6407 33.5854 33.5753 34.7349C33.521 35.886 33.5529 36.8431 33.6199 37.5357C33.6438 37.8628 33.6885 38.1802 33.7204 38.3998L33.7603 38.6692L33.8018 38.6596C34.0855 39.9916 34.7387 41.2156 35.6857 42.1901C36.6327 43.1646 37.835 43.8498 39.1533 44.1663C40.4716 44.4828 41.8521 44.4178 43.1352 43.9787C44.4183 43.5397 45.5514 42.7445 46.4036 41.6853C47.2558 40.626 47.7922 39.3459 47.9507 37.9931C48.1092 36.6403 47.8834 35.27 47.2994 34.0408C46.7154 32.8115 45.797 31.7736 44.6505 31.047C43.504 30.3204 42.1763 29.9348 40.8209 29.9349Z" fill="white"/>
</g>
<defs>
<filter id="filter0_i_135_11060" x="0" y="0" width="64" height="66.9091" filterUnits="userSpaceOnUse" color-interpolation-filters="sRGB">
<feFlood flood-opacity="0" result="BackgroundImageFix"/>
<feBlend mode="normal" in="SourceGraphic" in2="BackgroundImageFix" result="shape"/>
<feColorMatrix in="SourceAlpha" type="matrix" values="0 0 0 0 0 0 0 0 0 0 0 0 0 0 0 0 0 0 127 0" result="hardAlpha"/>
<feOffset dy="10.1818"/>
<feGaussianBlur stdDeviation="1.45455"/>
<feComposite in2="hardAlpha" operator="arithmetic" k2="-1" k3="1"/>
<feColorMatrix type="matrix" values="0 0 0 0 0 0 0 0 0 0 0 0 0 0 0 0 0 0 0.1 0"/>
<feBlend mode="normal" in2="shape" result="effect1_innerShadow_135_11060"/>
</filter>
<filter id="filter1_d_135_11060" x="11.6364" y="18.9092" width="40.7273" height="32.7273" filterUnits="userSpaceOnUse" color-interpolation-filters="sRGB">
<feFlood flood-opacity="0" result="BackgroundImageFix"/>
<feColorMatrix in="SourceAlpha" type="matrix" values="0 0 0 0 0 0 0 0 0 0 0 0 0 0 0 0 0 0 127 0" result="hardAlpha"/>
<feOffset dy="2.90909"/>
<feGaussianBlur stdDeviation="2.18182"/>
<feComposite in2="hardAlpha" operator="out"/>
<feColorMatrix type="matrix" values="0 0 0 0 0 0 0 0 0 0 0 0 0 0 0 0 0 0 0.08 0"/>
<feBlend mode="normal" in2="BackgroundImageFix" result="effect1_dropShadow_135_11060"/>
<feBlend mode="normal" in="SourceGraphic" in2="effect1_dropShadow_135_11060" result="shape"/>
</filter>
<linearGradient id="paint0_linear_135_11060" x1="8.25807" y1="8" x2="50.1055" y2="60.913" gradientUnits="userSpaceOnUse">
<stop stop-color="#1A21BF"/>
<stop offset="0.609063" stop-color="#A974FF" stop-opacity="0.2"/>
<stop offset="1" stop-color="#A974FF" stop-opacity="0.3"/>
</linearGradient>
</defs>
</svg>
