<svg width="453" height="209" viewBox="0 0 453 209" fill="none" xmlns="http://www.w3.org/2000/svg">
<path fill-rule="evenodd" clip-rule="evenodd" d="M57.0354 117.632C59.2737 122.744 120.783 100.752 194.421 68.5104C268.058 36.2693 325.939 5.98859 323.701 0.876577C321.462 -4.23543 259.953 17.7571 186.315 49.9982C112.678 82.2393 54.7972 112.52 57.0354 117.632ZM64.5784 140.263C66.8167 145.375 128.326 123.382 201.964 91.1413C275.601 58.9001 333.482 28.6194 331.243 23.5074C329.005 18.3954 267.496 40.3879 193.858 72.629C120.221 104.87 62.3401 135.151 64.5784 140.263ZM209.499 113.761C135.861 146.003 74.3519 167.995 72.1136 162.883C69.8753 157.771 127.756 127.49 201.393 95.2491C243.409 76.853 281.477 61.7934 306.839 53.2015C300.696 59.6098 295.629 67.0571 291.927 75.2533C269.659 86.5162 241.023 99.9591 209.499 113.761ZM288.203 85.2779C265.695 93.8038 238.281 105.023 208.94 117.869C135.303 150.11 77.4222 180.391 79.6604 185.503C81.8987 190.615 143.408 168.623 217.046 136.382C242.121 125.403 265.369 114.651 285.039 105.043C285.254 98.1979 286.345 91.5733 288.203 85.2779ZM285.122 111.99C264.835 119.891 241.349 129.611 216.479 140.5C142.842 172.741 84.9612 203.022 87.1995 208.134C89.4378 213.246 150.947 191.253 224.585 159.012C247.822 148.838 269.49 138.86 288.195 129.805C286.516 124.109 285.465 118.144 285.122 111.99Z" fill="#F1D9FF"/>
<path d="M71.0805 84.8833C71.0805 89.6181 66.9257 93.4564 61.8004 93.4564C56.6752 93.4564 52.5203 89.6181 52.5203 84.8833C52.5203 80.1484 56.6752 76.4431 61.8004 76.4431C66.9257 76.4431 71.0805 80.1484 71.0805 84.8833Z" fill="#6434D0"/>
<path d="M103.561 84.9498C103.561 89.6479 99.4061 93.4564 94.2808 93.4564C89.1556 93.4564 85.0007 89.6479 85.0007 84.9498C85.0007 80.2517 89.1556 76.4431 94.2808 76.4431C99.4061 76.4431 103.561 80.2517 103.561 84.9498Z" fill="#6434D0"/>
<path fill-rule="evenodd" clip-rule="evenodd" d="M39.7602 34.8213C32.7129 34.8213 27 40.8062 27 48.1889V161.813C27 169.196 32.7129 175.181 39.7602 175.181H116.321C123.368 175.181 129.081 169.196 129.081 161.813V48.1889C129.081 40.8062 123.368 34.8213 116.321 34.8213H39.7602ZM55.7104 68.2403C46.9013 68.2403 39.7602 75.7214 39.7602 84.9498C39.7602 94.1782 46.9013 101.659 55.7104 101.659H100.371C109.18 101.659 116.321 94.1782 116.321 84.9498C116.321 75.7214 109.18 68.2403 100.371 68.2403H55.7104Z" fill="#6434D0"/>
<path d="M203.472 136.977V89.605H211.511V136.977H203.472ZM183.806 117.31V109.271H231.177V117.31H183.806Z" fill="#171717"/>
<g clip-path="url(#clip0_318_3299)">
<path d="M356.094 175.181C394.853 175.181 426.274 143.761 426.274 105.001C426.274 66.2419 394.853 34.8213 356.094 34.8213C317.335 34.8213 285.914 66.2419 285.914 105.001C285.914 143.761 317.335 175.181 356.094 175.181Z" fill="#4353FF"/>
<path d="M376.709 96.6675L370.349 116.713C370.349 115.177 365.963 81.9297 365.963 81.9297C355.874 81.9297 350.523 89.0793 347.716 96.6675L339.952 116.757C339.952 115.309 338.856 96.8429 338.856 96.8429C338.481 92.8454 336.654 89.124 333.719 86.3836C330.785 83.6432 326.947 82.0741 322.934 81.9735L331.18 132.328C341.707 132.328 347.409 125.178 350.348 117.59L356.927 100.484C356.927 101.185 361.313 132.328 361.313 132.328C365.618 132.322 369.809 130.946 373.279 128.399C376.749 125.851 379.318 122.265 380.613 118.16L395.526 81.9297C384.999 81.9297 379.472 89.0793 376.665 96.6675H376.709Z" fill="white"/>
</g>
<defs>
<clipPath id="clip0_318_3299">
<rect width="140.36" height="140.36" fill="white" transform="translate(285.914 34.8213)"/>
</clipPath>
</defs>
</svg>
