<svg width="177" height="32" viewBox="0 0 177 32" fill="none" xmlns="http://www.w3.org/2000/svg">
<g clip-path="url(#clip0_177_7695)">
<path d="M96.3281 29.8469H119.151V27.0591H100.241V18.1388H114.444V15.3181H100.241V7.09972H119.151V4.32214H96.3281V29.8469Z" fill="#697586"/>
<path d="M108.19 0.196045L105.1 3.66735L114.8 0.196045H108.19Z" fill="#697586"/>
<path d="M157.466 27.0591V4.32214H153.898V29.8469H176.97V27.0591H157.466Z" fill="#697586"/>
<path d="M133.94 4.32214L120.961 29.8469H125.348L128.668 23.2403H144.234L147.583 29.8469H151.924L138.935 4.32214H133.94ZM130.311 20.0409L136.427 7.84916L142.614 20.0409H130.311Z" fill="#697586"/>
<path d="M83.9459 19.1737C89.7935 17.6133 90.3617 13.2624 90.332 11.7069C89.983 7.14703 86.9107 4.32214 81.3903 4.32214H65.3027V29.8469H68.9701V19.1396H79.4435L87.1486 29.8469H91.771C91.771 29.8469 86.226 22.6408 83.9459 19.1737ZM80.8895 16.1237H68.9701V7.34334H81.3049C84.1449 7.34334 85.7423 8.66912 86.3178 10.3533C86.6985 11.5077 86.4544 13.0232 85.8246 14.0549C84.7937 15.7607 82.8354 16.1237 80.8895 16.1237Z" fill="#697586"/>
<path d="M43.262 0C32.9095 0 25.8535 7.29919 25.8535 16.1337C25.8535 25.4343 33.6479 32 43.262 32C52.8696 32 60.6609 25.5281 60.6609 16.1337C60.6609 7.29919 53.5176 0 43.262 0ZM43.1377 28.8316C35.9754 28.8316 30.074 23.0759 30.074 16.1424C30.074 9.21834 35.6968 3.187 43.4154 3.187C50.9427 3.187 56.476 9.21834 56.476 16.1424C56.476 23.0757 50.297 28.8316 43.1377 28.8316Z" fill="#697586"/>
<path d="M16.6172 13.3519H19.2634L24.0667 4.32214H20.2015L16.6172 13.3519Z" fill="#697586"/>
<path d="M3.68057 27.0591V4.32214H0.111328V29.8469H23.1824V27.0591H3.68057Z" fill="#697586"/>
</g>
<defs>
<clipPath id="clip0_177_7695">
<rect width="176.859" height="32" fill="white" transform="translate(0.111328)"/>
</clipPath>
</defs>
</svg>
