<svg width="171" height="40" viewBox="0 0 171 40" fill="none" xmlns="http://www.w3.org/2000/svg">
<g clip-path="url(#clip0_177_7922)">
<path d="M80.4414 40H0.441406V0H80.4414V40Z" fill="#697586"/>
<path d="M66.0495 19.917C65.4223 19.988 64.9489 20.0117 64.6176 20.0117C64.2862 20.0117 63.8128 19.9644 63.1738 19.8934C63.2685 20.8401 63.2921 21.1951 63.3276 21.9644V23.2188V24.4969L63.3513 30.4496C63.3513 32.8283 63.4223 33.3253 64.0022 34.2721C64.3572 34.8519 64.8543 35.3727 65.4815 35.7987C66.6531 36.6271 67.9312 36.923 70.2626 36.923C72.4401 36.923 73.7892 36.6034 74.9844 35.7514C76.7359 34.5206 77.1146 33.42 77.1146 29.3727L77.0909 25.4437C77.0909 25.1123 77.1146 24.2721 77.1383 22.8875C77.1383 21.8342 77.162 21.0886 77.1856 20.6863C77.2093 20.5088 77.233 20.2602 77.2566 19.9052C76.6768 19.9525 76.2507 19.9999 75.9785 19.9999C75.7063 19.9999 75.2803 19.9525 74.7241 19.9052C74.8188 20.7809 74.8779 21.136 74.9016 21.8815C74.9726 22.8756 74.9963 24.0827 74.9963 25.4082V29.3135C74.9963 32.059 74.9253 32.6626 74.3927 33.4437C74.1915 33.7159 73.8483 34.0235 73.3868 34.2957C72.5347 34.8283 71.6117 35.0176 70.3572 35.0176C68.5821 35.0176 66.9253 34.3667 66.3099 33.4437C65.8128 32.6863 65.7892 32.3904 65.7537 29.7869V24.6863C65.7537 24.4141 65.7773 23.9407 65.801 23.3135C65.801 22.6863 65.8247 22.2839 65.8247 22.1419C65.8957 21.2661 65.9194 20.8875 66.0495 19.917ZM59.2448 22.3431C59.1975 21.8224 59.1738 21.42 59.1738 21.1478C59.1738 20.7928 59.1975 20.5206 59.2921 19.8934C58.3217 20.0117 57.9667 20.0117 57.3868 20.0117H54.8306L51.8839 19.988L50.1797 19.9407C50.2744 21.917 50.3099 22.7218 50.3572 23.9762V25.3253V30.8283C50.3572 32.6271 50.3336 33.8105 50.3099 34.3786C50.2625 34.8756 50.2152 35.6804 50.1087 36.7099C50.6886 36.6626 51.1146 36.6389 51.4105 36.6389C51.7655 36.6389 52.2862 36.6626 52.9844 36.7454C52.8069 34.5679 52.8069 34.1892 52.8069 31.1951V29.065H55.4341C56.4874 29.065 57.1383 29.1123 58.7123 29.3135C58.6649 28.7928 58.6412 28.3904 58.6412 28.1064C58.6412 27.7869 58.6649 27.4792 58.7714 26.8283C57.4223 27.0295 56.9489 27.0531 55.7892 27.0531H52.8424V25.9999V23.0768L52.8661 22.0709H55.5407C56.2152 22.0709 57.2921 22.1182 58.1915 22.2247C58.4164 22.2366 58.7714 22.2602 59.2448 22.3431ZM45.091 22.7928C45.2211 22.2484 45.2685 22.0709 45.446 21.5383C45.5998 21.1123 45.6472 20.994 45.8957 20.5443C45.1501 20.2721 44.8424 20.1656 44.2744 20.0472C43.4697 19.8697 42.7004 19.775 41.872 19.775C40.0969 19.775 38.9016 20.2011 37.943 21.1478C37.091 21.9999 36.5939 23.1951 36.5939 24.4733C36.5939 25.9525 37.1383 27.0295 38.3217 27.846C38.9253 28.2721 39.3986 28.5206 40.6768 29.1005C41.9785 29.704 42.3572 29.8815 42.9253 30.2721C43.801 30.8638 44.227 31.5738 44.227 32.4022C44.227 34.1064 42.8543 35.2543 40.8543 35.2543C39.9785 35.2543 39.0791 35.0531 38.2507 34.6271C37.6708 34.3549 37.3276 34.1064 36.5229 33.42C36.3217 34.5916 36.227 34.9466 35.7773 35.9289C36.9489 36.4969 37.4341 36.6508 38.6531 36.8283C39.2803 36.923 39.801 36.9821 40.3336 36.9821C42.5821 36.9821 44.2625 36.2602 45.3395 34.8519C46.0614 33.8815 46.4164 32.8756 46.4164 31.7987C46.4164 30.994 46.2152 30.2011 45.8365 29.6212C45.3631 28.8638 44.6412 28.3194 42.9608 27.491C40.6057 26.3194 40.2626 26.1419 39.7063 25.7159C39.0791 25.2188 38.7241 24.5443 38.7241 23.7869C38.7241 22.3312 39.7537 21.3845 41.304 21.3845C41.73 21.3845 42.3809 21.5028 42.9016 21.6567C43.7182 21.9407 44.1442 22.1419 45.091 22.7928Z" fill="white"/>
<path d="M94.322 22.0355C94.038 20.8876 93.3753 20.3432 92.5824 20.3432C91.7895 20.3432 91.328 20.8639 91.328 21.503C91.328 22.2249 91.7422 22.5207 93.0084 22.7456C94.5942 23.0296 95.328 23.6687 95.328 24.9704C95.328 25.7278 94.8427 27.2426 92.6061 27.2426C91.3753 27.2426 90.5942 26.8284 90.1445 26.4616V24.5207H90.6534C90.8428 25.8817 91.5528 26.6391 92.6297 26.6391C93.612 26.6391 94.1327 26.0829 94.1327 25.3255C94.1327 24.6864 93.8842 24.284 92.7836 24.0473C91.1623 23.7042 90.2274 23.3965 90.2274 21.9172C90.2274 21.1479 90.6889 19.7988 92.6771 19.7988C93.7658 19.7988 94.5232 20.142 94.8664 20.4142V22.0355H94.322Z" fill="#697586"/>
<path d="M98.7132 26.6272L99.2931 26.6628V27.1598H96.6777V26.6628L97.2813 26.6272L97.3523 26.5326V20.4616L97.2813 20.3669L96.6777 20.3314V19.8344H99.2931V20.3314L98.7132 20.3669L98.6422 20.4616V26.5326L98.7132 26.6272Z" fill="#697586"/>
<path d="M106.867 21.3255L105.198 26.071H104.098L102.37 21.2545H102.311V26.5326L102.382 26.6272L102.985 26.6628V27.1598H100.879V26.6628L101.482 26.6272L101.553 26.5326V20.4616L101.482 20.3669L100.879 20.3314V19.8344H103.246C103.482 20.5207 104.678 23.8225 104.914 24.5207H104.962L106.583 19.8344H108.82V20.3314L108.24 20.3669L108.169 20.4616V26.5326L108.24 26.6272L108.82 26.6628V27.1598H106.228V26.6628L106.843 26.6272L106.926 26.5326V21.3255H106.867Z" fill="#697586"/>
<path d="M115.978 23.4675C115.978 25.645 115.386 27.2189 113.067 27.2189C110.783 27.2189 110.25 25.645 110.25 23.5148C110.25 21.6095 110.901 19.7988 113.185 19.7988C115.386 19.7988 115.978 21.4201 115.978 23.4675ZM111.682 23.5266C111.682 25.0888 111.765 26.6272 113.149 26.6272C114.546 26.6272 114.558 25.1479 114.558 23.2426C114.558 21.6805 114.416 20.3432 113.149 20.3432C111.836 20.355 111.682 21.7042 111.682 23.5266Z" fill="#697586"/>
<path d="M122.832 25.2545L122.82 20.4616L122.749 20.3669L122.122 20.3314V19.8344H124.229V20.3314L123.649 20.3669L123.566 20.4616V27.1598H122.548L118.891 21.4201H118.844V26.5444L118.951 26.6391L119.507 26.6746V27.1716H117.412V26.6746L118.027 26.6391L118.099 26.5444V20.4734L118.027 20.3787L117.424 20.3432V19.8462H119.341L122.809 25.2663H122.832V25.2545Z" fill="#697586"/>
<path d="M130.523 26.5326L130.594 26.6273L131.21 26.6628V27.1598H128.547V26.6628L129.162 26.6273L129.233 26.5326V20.4734L129.162 20.3787L128.547 20.3432V19.8462H133.813V21.5503H133.328C133.032 20.4497 132.866 20.4024 131.849 20.4024H130.523V23.2781H131.328C132.204 23.2781 132.263 23.1716 132.44 22.3077H132.902V24.8284H132.44C132.263 23.9645 132.168 23.8462 131.34 23.8462H130.523V26.5326Z" fill="#697586"/>
<path d="M138.322 19.8343C140.109 19.8343 140.772 20.6864 140.772 21.8343C140.772 22.7338 140.299 23.5148 139.316 23.7633L140.843 26.4024C140.938 26.5562 140.985 26.5917 141.174 26.6272L141.612 26.7101V27.1361H139.79C139.553 26.6036 138.346 24.4379 138.097 23.9054H137.304V26.5207L137.375 26.6154L137.944 26.6509V27.148H135.328V26.6509L135.932 26.6154L136.015 26.5207V20.4497L135.932 20.3551L135.328 20.3196V19.8225H138.322V19.8343ZM138.145 20.3906H137.293V23.361H138.097C138.796 23.361 139.352 22.8284 139.352 21.8343C139.352 20.8403 138.843 20.3906 138.145 20.3906Z" fill="#697586"/>
<path d="M146.82 19.8462L149.092 26.5326L149.175 26.6273L149.66 26.6628V27.1598H147.057V26.6628L147.719 26.6273L147.779 26.5563L147.353 25.2663H144.678L144.252 26.5326L144.311 26.6273L144.986 26.6628V27.1598H142.855V26.6628L143.364 26.6273L143.435 26.5326L145.743 19.8462H146.82ZM144.879 24.6983H147.175L146.051 21.3136H146.003L144.879 24.6983Z" fill="#697586"/>
<path d="M155.291 22.0355C155.007 20.8876 154.344 20.3432 153.551 20.3432C152.758 20.3432 152.297 20.8639 152.297 21.503C152.297 22.2249 152.711 22.5207 153.977 22.7456C155.563 23.0296 156.297 23.6687 156.297 24.9704C156.297 25.7278 155.812 27.2426 153.563 27.2426C152.332 27.2426 151.551 26.8284 151.102 26.4616V24.5207H151.61C151.8 25.8817 152.51 26.6391 153.587 26.6391C154.557 26.6391 155.09 26.0829 155.09 25.3255C155.09 24.6864 154.841 24.284 153.741 24.0473C152.119 23.7042 151.184 23.3965 151.184 21.9172C151.184 21.1479 151.646 19.7988 153.634 19.7988C154.723 19.7988 155.48 20.142 155.823 20.4142V22.0355H155.291Z" fill="#697586"/>
<path d="M161.554 24.6273C161.388 23.7634 161.293 23.6568 160.477 23.6568H159.636V26.5918H160.962C161.992 26.5918 162.323 26.5799 162.536 25.1716H163.033V27.1598H157.66V26.6628L158.276 26.6273L158.347 26.5326V20.4734L158.276 20.3787L157.66 20.3432V19.8462H162.926V21.5503H162.441C162.145 20.4497 161.98 20.4024 160.962 20.4024H159.636V23.077H160.465C161.341 23.077 161.388 22.9468 161.554 22.0947H162.015V24.6154H161.554V24.6273Z" fill="#697586"/>
<path d="M167.564 19.8343C169.351 19.8343 170.014 20.6864 170.014 21.8343C170.014 22.7338 169.541 23.5148 168.558 23.7633L170.085 26.4024C170.18 26.5562 170.227 26.5917 170.416 26.6272L170.854 26.7101V27.1361H169.032C168.795 26.6036 167.588 24.4379 167.34 23.9054H166.547V26.5207L166.618 26.6154L167.186 26.6509V27.148H164.57V26.6509L165.174 26.6154L165.257 26.5207V20.4497L165.174 20.3551L164.57 20.3196V19.8225H167.564V19.8343ZM167.375 20.3906H166.523V23.361H167.328C168.026 23.361 168.582 22.8284 168.582 21.8343C168.594 20.8403 168.085 20.3906 167.375 20.3906Z" fill="#697586"/>
<path d="M95.1507 33.1359L94.5471 33.1004V32.6034H96.5945V33.1004L96.0383 33.1359L95.9554 33.2306V37.2898C95.9554 39.1004 95.0797 40.0117 93.3164 40.0117C91.1152 40.0117 90.5826 38.7572 90.5826 37.3371V33.2306L90.5235 33.1359L89.9199 33.1004V32.6034H92.5235V33.1004L91.9318 33.1359C91.9318 33.1596 91.8844 33.2188 91.8726 33.2306V37.3845C91.8726 38.4259 92.1566 39.349 93.5649 39.349C95.1507 39.349 95.2454 38.2129 95.2454 37.3016V33.2424L95.1507 33.1359Z" fill="#697586"/>
<path d="M103.518 38.0353L103.506 33.2424L103.435 33.1359L102.808 33.1004V32.6034H104.914V33.1004L104.334 33.1359L104.252 33.2306V39.9288H103.234L99.5651 34.1892H99.5296V39.3135L99.6361 39.4081L100.192 39.4436V39.9407H98.0977V39.4436L98.713 39.4081L98.784 39.3135V33.2424L98.713 33.1359L98.1095 33.1004V32.6034H100.027L103.506 38.0235H103.518V38.0353Z" fill="#697586"/>
<path d="M108.524 39.4081L109.104 39.4436V39.9407H106.488V39.4436L107.092 39.4081L107.163 39.3135V33.2424L107.104 33.1359L106.5 33.1004V32.6034H109.116V33.1004L108.524 33.1359L108.453 33.2306V39.3016L108.524 39.4081Z" fill="#697586"/>
<path d="M113.222 39.9288L111.091 33.2425L111.02 33.1478L110.523 33.1123V32.6152H113.139V33.1123L112.488 33.1478L112.417 33.2425L114.038 38.4969H114.086C114.322 37.6922 115.47 34.0472 115.719 33.2425L115.66 33.1478L114.985 33.1123V32.6152H117.091V33.1123L116.583 33.1478L116.512 33.2425L114.358 39.9288H113.222Z" fill="#697586"/>
<path d="M122.417 37.3963C122.251 36.5324 122.157 36.4259 121.34 36.4259H120.5V39.3608H121.825C122.855 39.3608 123.186 39.349 123.399 37.9407H123.896V39.9288H118.523V39.4318L119.139 39.3963L119.21 39.3016V33.2306L119.139 33.1359L118.523 33.1004V32.6034H123.79V34.3194H123.305C123.009 33.2188 122.843 33.1714 121.825 33.1714H120.5V35.846H121.328C122.204 35.846 122.251 35.7158 122.417 34.8637H122.878V37.3845H122.417V37.3963Z" fill="#697586"/>
<path d="M128.428 32.6152C130.215 32.6152 130.877 33.4673 130.877 34.6152C130.877 35.5146 130.404 36.2957 129.422 36.5442L130.948 39.1833C131.043 39.3371 131.09 39.3726 131.28 39.4081L131.718 39.491V39.917H129.895C129.658 39.3845 128.451 37.2188 128.203 36.6862H127.41V39.3016L127.481 39.3963L128.049 39.4318V39.9288H125.434V39.4318L126.037 39.3963L126.12 39.3016V33.2306L126.049 33.1359L125.445 33.1004V32.6034H128.428V32.6152ZM128.25 33.1714H127.398V36.1419H128.203C128.901 36.1419 129.457 35.6093 129.457 34.6152C129.469 33.6093 128.96 33.1714 128.25 33.1714Z" fill="#697586"/>
<path d="M137.304 34.8047C137.02 33.6567 136.358 33.1124 135.565 33.1124C134.772 33.1124 134.31 33.6331 134.31 34.2721C134.31 34.994 134.725 35.2899 135.991 35.5147C137.577 35.7988 138.31 36.4378 138.31 37.7396C138.31 38.497 137.825 40.0118 135.588 40.0118C134.358 40.0118 133.577 39.5976 133.127 39.2307V37.2899H133.636C133.825 38.6508 134.535 39.4082 135.612 39.4082C136.594 39.4082 137.115 38.852 137.115 38.0946C137.115 37.4556 136.867 37.0532 135.766 36.8165C134.145 36.4733 133.21 36.1656 133.21 34.6863C133.21 33.9171 133.671 32.568 135.659 32.568C136.748 32.568 137.506 32.9112 137.849 33.1834V34.8047H137.304Z" fill="#697586"/>
<path d="M141.694 39.4081L142.274 39.4436V39.9407H139.658V39.4436L140.262 39.4081L140.333 39.3135V33.2424L140.262 33.1359L139.658 33.1004V32.6034H142.274V33.1004L141.694 33.1359L141.623 33.2306V39.3016L141.694 39.4081Z" fill="#697586"/>
<path d="M144.181 34.3904H143.695V32.6271H149.435V34.3904H148.95C148.713 33.2543 148.512 33.1951 147.494 33.1951H147.198V39.3135L147.269 39.4081L147.849 39.4436V39.9407H145.222V39.4436L145.837 39.4081L145.908 39.3135V33.1951H145.624C144.618 33.1951 144.429 33.2898 144.181 34.3904Z" fill="#697586"/>
<path d="M154.37 36.9584V39.3135L154.441 39.4081L155.021 39.4436V39.9407H152.393V39.4436L153.009 39.4081L153.08 39.3135V37.0531L151.281 33.2306L151.21 33.1359L150.701 33.1004V32.6034H153.34V33.1004L152.701 33.1359L152.63 33.2188L153.979 36.13H154.027L155.376 33.2188L155.317 33.1359L154.642 33.1004V32.6034H156.749V33.1004L156.251 33.1359L156.18 33.2306L154.37 36.9584Z" fill="#697586"/>
</g>
<defs>
<clipPath id="clip0_177_7922">
<rect width="170.414" height="40" fill="white" transform="translate(0.441406)"/>
</clipPath>
</defs>
</svg>
