<svg width="139" height="42" viewBox="0 0 139 42" fill="none" xmlns="http://www.w3.org/2000/svg">
<path d="M50.8599 24.4708H44.6821L43.1243 28.7509H45.2777V30.4653H39.2832V28.7509H41.1274L47.0723 13.2797H49.6954L55.2776 28.7509H57.641V30.4653H49.6457V28.7509H52.3452L50.8599 24.4708ZM45.2548 22.9664H50.3407L47.9276 15.9829H47.8245L45.2548 22.9664Z" fill="#697586"/>
<path d="M58.1261 25.2992V15.1008H55.6328V13.3865H63.3417V15.1008H60.8026V24.4439C60.8026 27.739 62.4635 29.0105 65.6288 29.0105C67.0301 29.0105 67.9655 28.5447 68.7177 27.7887C69.5997 26.9067 69.7792 25.765 69.7792 23.8177V15.1008H67.1103V13.3865H74.1395V15.1008H71.6997V25.303C71.6997 28.2354 69.2866 30.8852 64.827 30.8852C60.4628 30.8814 58.1261 28.5714 58.1261 25.2992Z" fill="#697586"/>
<path d="M74.6816 24.6272H76.2395C78.1333 28.1056 79.3284 29.2739 81.7415 29.2739C83.7651 29.2739 84.9869 28.2354 84.9869 26.4447C84.9869 24.3408 82.78 23.7719 80.4433 23.0961C77.7705 22.3439 74.9145 21.4352 74.9145 17.9301C74.9145 15.3872 77.0413 12.9741 80.2867 12.9741C81.7415 12.9741 83.5322 13.5965 84.4905 14.7916L85.0365 13.0543H86.7509V18.9725H85.1931C83.6085 15.5972 82.1042 14.5854 80.1569 14.5854C78.496 14.5854 77.4575 15.6239 77.4575 17.1818C77.4575 19.4918 79.7407 20.011 82.1309 20.6334C84.754 21.2825 87.5298 22.0881 87.5298 25.5398C87.5298 28.5256 85.09 30.8852 81.7682 30.8852C79.8476 30.8852 78.0569 30.2094 77.0184 29.0143L76.396 30.805H74.6816V24.6272Z" fill="#697586"/>
<path d="M92.279 28.7547H95.2877V14.8412H94.146C91.8628 14.8412 91.3702 15.5934 90.095 19.4612H88.877V13.3865H104.375V19.4612H103.153C101.882 15.5934 101.389 14.8412 99.1059 14.8412H97.9642V28.7547H100.977V30.469H92.2828L92.279 28.7547Z" fill="#697586"/>
<path d="M106.453 28.7547H109.332V15.1008H106.453V13.3865H114.887V15.1008H112.005V28.7547H114.887V30.469H106.453V28.7547Z" fill="#697586"/>
<path d="M121.611 16.8381H121.378V28.7508H124.077V30.4652H116.834V28.7508H119.457V15.1008H116.834V13.3865H122.493L131.083 25.8452H131.316V15.1008H128.617V13.3865H135.86V15.1008H133.237V30.8814H131.267L121.611 16.8381Z" fill="#697586"/>
<path d="M39.5469 38.869H40.4212V34.7263H39.5469V34.207H42.1051V34.7263H41.2307V38.869H42.1051V39.3883H39.5469V38.869Z" fill="#697586"/>
<path d="M42.6465 38.8691H43.223V36.3033H42.6465V35.784H43.9447V36.6965C44.3532 36.0207 44.7808 35.7382 45.3001 35.7382C45.8728 35.7382 46.2623 36.1543 46.2623 36.8645V38.8729H46.835V39.3922H44.9947V38.8729H45.5216V37.1318C45.5216 36.8645 45.4567 36.6354 45.323 36.5018C45.2199 36.3987 45.0787 36.3453 44.8992 36.3453C44.4563 36.3453 43.9638 36.7805 43.9638 37.5022V38.8729H44.4907V39.3922H42.6503V38.8691H42.6465Z" fill="#697586"/>
<path d="M47.7441 39.0714C47.3966 38.7278 47.2324 38.1971 47.2324 37.6396C47.2324 37.0554 47.4386 36.4598 47.7746 36.12C48.0342 35.8604 48.3664 35.7191 48.7597 35.7191C49.2866 35.7191 49.6341 35.9787 49.8632 36.3491V34.5469H49.2637V33.9818H50.6001V38.8691H51.127V39.3884H49.8746V38.6476C49.6073 39.1898 49.1721 39.4571 48.6948 39.4571C48.3244 39.4571 47.977 39.3082 47.7441 39.0714ZM49.8746 37.5785C49.8746 36.8607 49.5921 36.2154 48.9544 36.2154C48.3779 36.2154 48.0495 36.7194 48.0495 37.5785C48.0495 38.4682 48.4657 38.9645 48.9544 38.9645C49.4279 38.9645 49.8746 38.4605 49.8746 37.5785Z" fill="#697586"/>
<path d="M52.2996 37.632C52.3225 38.5216 52.7081 38.9645 53.4031 38.9645C53.846 38.9645 54.1743 38.7774 54.3958 38.2964H54.7738C54.5676 39.0676 54.0025 39.4609 53.2083 39.4609C52.1049 39.4609 51.4863 38.6667 51.4863 37.6282C51.4863 36.5476 52.2347 35.7229 53.258 35.7229C54.3347 35.7229 54.8158 36.6851 54.7929 37.6358L52.2996 37.632ZM52.3111 37.2616H54.0369C53.9796 36.5934 53.7543 36.1353 53.2007 36.1353C52.7043 36.1353 52.3721 36.4522 52.3111 37.2616Z" fill="#697586"/>
<path d="M55.1582 40.0795H55.7347V36.2995H55.1582V35.7802H56.4564V36.6088C56.716 35.9788 57.1895 35.7191 57.6706 35.7191C58.0486 35.7191 58.354 35.8604 58.5908 36.0971C58.9229 36.4293 59.0718 36.9409 59.0718 37.5289C59.0718 38.1208 58.8733 38.6629 58.5449 38.9913C58.3006 39.2357 57.9722 39.3846 57.6324 39.3846C57.0826 39.3846 56.6969 39.0944 56.4755 38.7088V40.0757H57.2315V40.5949H55.162L55.1582 40.0795ZM58.2509 37.4908C58.2509 36.6164 57.8882 36.2155 57.3995 36.2155C56.9413 36.2155 56.4564 36.7882 56.4564 37.6168C56.4564 38.3346 56.7695 38.892 57.3766 38.892C57.9378 38.892 58.2509 38.4033 58.2509 37.4908Z" fill="#697586"/>
<path d="M60.4498 37.632C60.4727 38.5216 60.8584 38.9645 61.5495 38.9645C61.9924 38.9645 62.3207 38.7774 62.5422 38.2964H62.9202C62.714 39.0676 62.1489 39.4609 61.3547 39.4609C60.2513 39.4609 59.6289 38.6667 59.6289 37.6282C59.6289 36.5476 60.3773 35.7229 61.4005 35.7229C62.4773 35.7229 62.9584 36.6851 62.9355 37.6358L60.4498 37.632ZM60.4575 37.2616H62.1833C62.1298 36.5934 61.9007 36.1353 61.3471 36.1353C60.8507 36.1353 60.5185 36.4522 60.4575 37.2616Z" fill="#697586"/>
<path d="M63.4336 38.8691H64.0101V36.3033H63.4336V35.784H64.7318V36.6965C65.1403 36.0207 65.568 35.7382 66.0872 35.7382C66.6638 35.7382 67.0456 36.1543 67.0456 36.8645V38.8729H67.6221V39.3922H65.7818V38.8729H66.3087V37.1318C66.3087 36.8645 66.2476 36.6354 66.114 36.5018C66.0109 36.3987 65.8696 36.3453 65.6901 36.3453C65.251 36.3453 64.7547 36.7805 64.7547 37.5022V38.8729H65.2816V39.3922H63.4374L63.4336 38.8691Z" fill="#697586"/>
<path d="M68.5273 39.0714C68.1798 38.7278 68.0156 38.1971 68.0156 37.6396C68.0156 37.0554 68.2218 36.4598 68.5578 36.12C68.8174 35.8604 69.1458 35.7191 69.5391 35.7191C70.066 35.7191 70.4134 35.9787 70.6425 36.3491V34.5469H70.0431V33.9818H71.3794V38.8691H71.9064V39.3884H70.654V38.6476C70.3867 39.1898 69.9553 39.4571 69.4742 39.4571C69.1076 39.4571 68.764 39.3082 68.5273 39.0714ZM70.6578 37.5785C70.6578 36.8607 70.3753 36.2154 69.7376 36.2154C69.1649 36.2154 68.8327 36.7194 68.8327 37.5785C68.8327 38.4682 69.2489 38.9645 69.7376 38.9645C70.2111 38.9645 70.6578 38.4605 70.6578 37.5785Z" fill="#697586"/>
<path d="M73.0809 37.632C73.1038 38.5216 73.4894 38.9645 74.1843 38.9645C74.6234 38.9645 74.9556 38.7774 75.177 38.2964H75.555C75.3489 39.0676 74.7838 39.4609 73.9896 39.4609C72.8861 39.4609 72.2676 38.6667 72.2676 37.6282C72.2676 36.5476 73.0159 35.7229 74.0392 35.7229C75.1198 35.7229 75.597 36.6851 75.5741 37.6358L73.0809 37.632ZM73.0885 37.2616H74.8143C74.7609 36.5934 74.5318 36.1353 73.9781 36.1353C73.4818 36.1353 73.1534 36.4522 73.0885 37.2616Z" fill="#697586"/>
<path d="M76.0664 38.8691H76.6391V36.3033H76.0664V35.784H77.3646V36.6965C77.7731 36.0207 78.2008 35.7382 78.72 35.7382C79.2928 35.7382 79.6822 36.1543 79.6822 36.8645V38.8729H80.2588V39.3922H78.4146V38.8729H78.9415V37.1318C78.9415 36.8645 78.8766 36.6354 78.743 36.5018C78.6399 36.3987 78.4986 36.3453 78.3191 36.3453C77.8762 36.3453 77.3837 36.7805 77.3837 37.5022V38.8729H77.9106V39.3922H76.0702L76.0664 38.8691Z" fill="#697586"/>
<path d="M81.783 34.8447V35.8222H82.9667V36.2995H81.783V38.4262C81.783 38.7813 81.8861 38.9531 82.2183 38.9531C82.4398 38.9531 82.6116 38.7469 82.7681 38.3307L83.1232 38.4796C82.917 39.1707 82.5008 39.4571 81.9968 39.4571C81.3668 39.4571 81.0423 39.0867 81.0423 38.4949V36.2995H80.3359V35.8222H81.0423V34.9249L81.783 34.8447Z" fill="#697586"/>
<path d="M84.9102 37.6167H85.3836C85.9602 38.6705 86.3191 39.0256 87.0522 39.0256C87.6669 39.0256 88.0372 38.7087 88.0372 38.1665C88.0372 37.5289 87.3691 37.3571 86.6589 37.1509C85.8494 36.9218 84.9827 36.6469 84.9827 35.5854C84.9827 34.8141 85.628 34.0811 86.6131 34.0811C87.056 34.0811 87.5982 34.2681 87.8883 34.6309L88.0563 34.104H88.5756V35.8985H88.1022C87.6211 34.8752 87.1629 34.566 86.5749 34.566C86.0709 34.566 85.7578 34.8829 85.7578 35.3525C85.7578 36.0551 86.4489 36.2116 87.1743 36.3987C87.9685 36.5934 88.8123 36.8378 88.8123 37.884C88.8123 38.7889 88.0716 39.5067 87.0636 39.5067C86.4794 39.5067 85.9372 39.3005 85.6242 38.9416L85.4332 39.4838H84.914L84.9102 37.6167Z" fill="#697586"/>
<path d="M89.3359 37.6397C89.3359 36.5209 90.1378 35.7191 91.203 35.7191C91.9896 35.7191 92.589 36.2613 92.589 36.7348C92.589 37.1051 92.4096 37.3724 92.0774 37.3724C91.7605 37.3724 91.5887 37.1509 91.5887 36.8913C91.5887 36.6813 91.7605 36.4751 91.8941 36.4178C91.7834 36.246 91.5467 36.1009 91.1687 36.1009C90.6188 36.1009 90.153 36.6049 90.153 37.5404C90.153 38.4377 90.5387 38.9569 91.2718 38.9569C91.7147 38.9569 92.0736 38.6973 92.2569 38.1857H92.6348C92.4439 38.9951 91.8712 39.4533 91.077 39.4533C89.9736 39.4571 89.3359 38.6782 89.3359 37.6397Z" fill="#697586"/>
<path d="M92.9707 38.8691H93.5434V34.5469H92.9707V33.9818H94.2842V36.6813C94.6927 36.0016 95.1051 35.7382 95.6243 35.7382C96.2009 35.7382 96.5865 36.1544 96.5865 36.8645V38.8729H97.1631V39.3922H95.3227V38.8729H95.8496V37.1318C95.8496 36.8645 95.7885 36.6354 95.6549 36.5018C95.5518 36.3987 95.4105 36.3453 95.2311 36.3453C94.7882 36.3453 94.2918 36.7805 94.2918 37.5022V38.8729H94.8187V39.3922H92.9783V38.8691H92.9707Z" fill="#697586"/>
<path d="M97.5137 37.6015C97.5137 36.5095 98.2391 35.7191 99.3159 35.7191C100.427 35.7191 101.11 36.4751 101.11 37.5671C101.11 38.6668 100.385 39.4571 99.3159 39.4571C98.1895 39.4571 97.5137 38.7049 97.5137 37.6015ZM100.293 37.5862C100.293 36.5973 99.9077 36.1468 99.2777 36.1468C98.6553 36.1468 98.3346 36.5973 98.3346 37.5862C98.3346 38.5789 98.7202 39.0371 99.3502 39.0371C99.9611 39.0333 100.293 38.5751 100.293 37.5862Z" fill="#697586"/>
<path d="M101.633 37.6015C101.633 36.5095 102.358 35.7191 103.435 35.7191C104.546 35.7191 105.23 36.4751 105.23 37.5671C105.23 38.6668 104.504 39.4571 103.435 39.4571C102.309 39.4571 101.633 38.7049 101.633 37.6015ZM104.409 37.5862C104.409 36.5973 104.023 36.1468 103.393 36.1468C102.771 36.1468 102.45 36.5973 102.45 37.5862C102.45 38.5789 102.836 39.0371 103.466 39.0371C104.08 39.0333 104.409 38.5751 104.409 37.5862Z" fill="#697586"/>
<path d="M105.617 38.8691H106.27V34.5469H105.617V33.9818H107.011V38.8691H107.664V39.3884H105.617V38.8691Z" fill="#697586"/>
<path d="M109.404 38.869H110.279V34.7263H109.404V34.207H111.623C113.558 34.207 114.551 35.2303 114.551 36.7194C114.551 38.1512 113.677 39.3883 111.691 39.3883H109.4L109.404 38.869ZM111.703 38.869C113.024 38.869 113.608 38.2925 113.608 36.7194C113.608 35.341 113.016 34.7263 111.623 34.7263H111.088V38.869H111.703Z" fill="#697586"/>
<path d="M115.119 38.8691H115.772V36.3033H115.119V35.784H116.513V38.8691H117.166V39.3884H115.119V38.8691ZM115.581 34.5164C115.581 34.2033 115.787 33.9818 116.093 33.9818C116.402 33.9818 116.604 34.1842 116.604 34.5011C116.604 34.818 116.402 35.028 116.093 35.028C115.787 35.028 115.581 34.8294 115.581 34.5164Z" fill="#697586"/>
<path d="M117.598 38.0978H118.079C118.273 38.6705 118.724 39.0753 119.228 39.0753C119.652 39.0753 119.835 38.8614 119.835 38.5713C119.835 38.2582 119.591 38.1093 118.881 37.9107C118.014 37.6664 117.659 37.3685 117.659 36.792C117.659 36.2116 118.163 35.7229 118.903 35.7229C119.274 35.7229 119.606 35.8642 119.778 36.1391L119.858 35.7229H120.324V36.96H119.85C119.606 36.4331 119.377 36.1085 118.892 36.1085C118.617 36.1085 118.335 36.2651 118.335 36.5667C118.335 36.8836 118.609 37.0478 119.255 37.2196C120.087 37.4487 120.484 37.716 120.484 38.3307C120.484 38.8729 120.003 39.4647 119.194 39.4647C118.747 39.4647 118.377 39.2776 118.147 38.9913L118.06 39.4647H117.601V38.0978H117.598Z" fill="#697586"/>
<path d="M122.172 34.8447V35.8222H123.351V36.2995H122.172V38.4262C122.172 38.7813 122.275 38.9531 122.603 38.9531C122.824 38.9531 122.996 38.7469 123.153 38.3307L123.508 38.4796C123.302 39.1707 122.886 39.4571 122.382 39.4571C121.752 39.4571 121.427 39.0867 121.427 38.4949V36.2995H120.717V35.8222H121.427V34.9249L122.172 34.8447Z" fill="#697586"/>
<path d="M123.756 38.8691H124.329V36.3033H123.756V35.784H125.054V36.6202C125.237 36.0131 125.707 35.7382 126.115 35.7382C126.516 35.7382 126.745 36.0131 126.745 36.3529C126.745 36.6278 126.539 36.8645 126.272 36.8645C125.997 36.8645 125.776 36.7003 125.776 36.3987C125.776 36.3605 125.783 36.3109 125.791 36.2651C125.436 36.2498 125.191 36.6507 125.065 37.1242V38.8729H125.749V39.3922H123.752L123.756 38.8691Z" fill="#697586"/>
<path d="M127.072 38.8691H127.725V36.3033H127.072V35.784H128.466V38.8691H129.119V39.3884H127.072V38.8691ZM127.538 34.5164C127.538 34.2033 127.744 33.9818 128.05 33.9818C128.355 33.9818 128.561 34.1842 128.561 34.5011C128.561 34.818 128.355 35.028 128.05 35.028C127.74 35.028 127.538 34.8294 127.538 34.5164Z" fill="#697586"/>
<path d="M129.479 37.6397C129.479 36.5209 130.28 35.7191 131.342 35.7191C132.132 35.7191 132.728 36.2613 132.728 36.7348C132.728 37.1051 132.545 37.3724 132.216 37.3724C131.899 37.3724 131.727 37.1509 131.727 36.8913C131.727 36.6813 131.903 36.4751 132.037 36.4178C131.926 36.246 131.689 36.1009 131.311 36.1009C130.761 36.1009 130.296 36.6049 130.296 37.5404C130.296 38.4377 130.681 38.9569 131.414 38.9569C131.857 38.9569 132.22 38.6973 132.399 38.1857H132.777C132.59 38.9951 132.014 39.4533 131.22 39.4533C130.116 39.4571 129.479 38.6782 129.479 37.6397Z" fill="#697586"/>
<path d="M134.433 34.8447V35.8222H135.613V36.2995H134.433V38.4262C134.433 38.7813 134.537 38.9531 134.865 38.9531C135.086 38.9531 135.258 38.7469 135.419 38.3307L135.774 38.4796C135.567 39.1707 135.151 39.4571 134.647 39.4571C134.017 39.4571 133.697 39.0867 133.697 38.4949V36.2995H132.986V35.8222H133.697V34.9249L134.433 34.8447Z" fill="#697586"/>
<path d="M27.1457 39.1554C27.0656 36.0093 27.1457 29.778 27.1267 29.5833H26.4317C26.4203 28.5676 26.4088 26.2729 26.4088 26.2729C26.4088 26.2729 26.4547 23.2413 25.3627 20.7938C24.2707 18.3464 22.2699 17.8844 22.2699 17.8844C22.2967 17.8844 22.1287 17.4911 22.4303 17.4911C22.3463 17.472 21.9416 17.5025 21.9416 17.4834C21.9416 16.8878 21.9339 15.4445 21.9339 15.4445V14.9214C21.9416 14.9024 21.9492 14.8833 21.9607 14.8604H19.6201C19.6354 14.8909 19.6468 14.9176 19.6621 14.9482V15.4713C19.6621 15.4713 19.6507 16.9107 19.6507 17.5102C19.6507 17.5331 19.2421 17.4987 19.1619 17.5178C19.4636 17.5178 19.2917 17.9111 19.3223 17.9111C19.3223 17.9111 17.4552 18.2814 16.1799 20.7938C14.9008 23.31 15.1108 28.5753 15.0917 29.5947L14.4503 29.6024C14.4274 29.7971 14.4999 36.0054 14.4121 39.1554H15.7714V36.4331C15.7714 36.4331 15.9127 35.6351 16.7641 35.6351C17.6156 35.6351 17.8256 36.4331 17.8256 36.4331V39.1554H19.3987V35.6084H22.2814V39.1554H23.717V36.4331C23.717 36.4331 23.8545 35.6351 24.7097 35.6351C25.5612 35.6351 25.7712 36.4331 25.7712 36.4331V39.1554H27.1457ZM16.0616 27.5329C16.0616 27.5329 16.1417 27.0213 16.6305 27.0213C17.1192 27.0213 17.2376 27.5329 17.2376 27.5329V29.3313H16.0616V27.5329ZM17.4514 33.9704H15.7561V31.7024C15.7561 31.7024 15.8745 31.0647 16.577 31.0647C17.2796 31.0647 17.4514 31.7024 17.4514 31.7024V33.9704ZM17.2643 23.3444C17.2452 23.4513 17.2261 23.5887 17.207 23.7147H16.5656C16.5923 23.5925 16.6152 23.4474 16.6419 23.2985C16.7183 22.8594 16.8099 22.5845 16.8099 22.5845H17.4628C17.4667 22.5845 17.3101 23.0694 17.2643 23.3444ZM22.9343 22.6113C22.9343 22.6113 23.003 22.8518 23.0603 23.2871C23.0794 23.4398 23.0947 23.5887 23.1061 23.7147H22.3845C22.3539 23.5162 22.3119 23.2871 22.2776 23.1573C22.205 22.8824 22.1821 22.6113 22.1821 22.6113H22.9343ZM20.4296 22.6113H21.1703L21.1512 23.7147H20.4219L20.4296 22.6113ZM20.1279 27.5214C20.1279 27.5214 20.2883 27.0022 20.7732 27.0022C21.2619 27.0022 21.4528 27.5214 21.4528 27.5214V29.3274H20.1279V27.5214ZM18.5243 23.3138C18.5816 22.8785 18.6503 22.638 18.6503 22.638H19.4063C19.4063 22.638 19.3796 22.9091 19.307 23.184C19.2727 23.3138 19.2383 23.5276 19.2077 23.7185H18.4861C18.4937 23.5964 18.5052 23.4589 18.5243 23.3138ZM18.0967 27.5214C18.0967 27.5214 18.1768 27.0098 18.6656 27.0098C19.1543 27.0098 19.2727 27.5214 19.2727 27.5214V29.3274H18.0967V27.5214ZM20.2425 33.9704H18.5472V31.6794C18.5472 31.6794 18.6617 31.0418 19.3643 31.0418C20.0668 31.0418 20.2387 31.6794 20.2387 31.6794L20.2425 33.9704ZM23.0336 33.9704H21.3383V31.6794C21.3383 31.6794 21.4528 31.0418 22.1554 31.0418C22.8579 31.0418 23.0297 31.6794 23.0297 31.6794L23.0336 33.9704ZM23.4879 29.3274H22.3119V27.5214C22.3119 27.5214 22.3921 27.0098 22.8808 27.0098C23.3657 27.0098 23.4879 27.5214 23.4879 27.5214V29.3274ZM25.5192 27.5214V29.3274H24.3432V27.5214C24.3432 27.5214 24.4234 27.0098 24.9121 27.0098C25.4008 27.0098 25.5192 27.5214 25.5192 27.5214ZM24.7785 22.6189C24.7785 22.6189 24.8701 22.89 24.9465 23.3329C24.9694 23.4742 24.9961 23.604 25.0152 23.7185H24.3776C24.3623 23.604 24.347 23.478 24.3279 23.3787C24.2783 23.1 24.1256 22.6227 24.1256 22.6227H24.7785V22.6189ZM24.1332 33.9704V31.6794C24.1332 31.6794 24.2477 31.0418 24.9503 31.0418C25.6528 31.0418 25.8247 31.6794 25.8247 31.6794V33.9704H24.1332Z" fill="white"/>
<path d="M27.9704 5.03243C27.9743 4.90261 27.9743 4.77279 27.9743 4.64298C27.9628 4.1237 27.9094 3.60443 27.8406 3.08898C27.7834 2.65752 27.7414 2.20316 27.6154 1.78316C27.6077 1.75643 27.5504 1.54261 27.5046 1.55025C26.4088 1.65334 25.061 2.21461 24.1064 2.71861C21.7888 3.94425 20.5937 6.52534 20.8152 9.07588C20.8763 9.7517 20.9832 10.4275 21.155 11.0881C21.239 11.4012 21.4948 12.8101 21.4986 12.8101C23.4764 12.3252 25.8437 10.5497 26.9395 8.72843C27.497 7.80061 27.8254 6.69716 27.9323 5.59752C27.9514 5.41043 27.9628 5.21952 27.9704 5.03243Z" fill="#697586"/>
<path d="M19.2522 29.3274V27.5214C19.2522 27.5214 19.1338 27.0098 18.6451 27.0098C18.1564 27.0098 18.0762 27.5214 18.0762 27.5214V29.3274H19.2522Z" fill="#697586"/>
<path d="M23.469 29.3274V27.5214C23.469 27.5214 23.3506 27.0098 22.8619 27.0098C22.3732 27.0098 22.293 27.5214 22.293 27.5214V29.3274H23.469Z" fill="#697586"/>
<path d="M25.5041 29.3274V27.5214C25.5041 27.5214 25.3858 27.0098 24.897 27.0098C24.4083 27.0098 24.3281 27.5214 24.3281 27.5214V29.3274H25.5041Z" fill="#697586"/>
<path d="M21.4382 29.3273V27.5213C21.4382 27.5213 21.2473 27.0021 20.7624 27.0021C20.2736 27.0021 20.1133 27.5213 20.1133 27.5213V29.3273H21.4382Z" fill="#697586"/>
<path d="M17.2229 29.3275V27.5291C17.2229 27.5291 17.1045 27.0175 16.6158 27.0175C16.1271 27.0175 16.0469 27.5291 16.0469 27.5291V29.3275H17.2229Z" fill="#697586"/>
<path d="M17.4317 33.9703V31.7023C17.4317 31.7023 17.2599 31.0647 16.5573 31.0647C15.8548 31.0647 15.7402 31.7023 15.7402 31.7023V33.9703H17.4317Z" fill="#697586"/>
<path d="M20.2266 33.9703V31.6794C20.2266 31.6794 20.0548 31.0417 19.3522 31.0417C18.6497 31.0417 18.5352 31.6794 18.5352 31.6794V33.9703H20.2266Z" fill="#697586"/>
<path d="M23.0176 33.9703V31.6794C23.0176 31.6794 22.8458 31.0417 22.1433 31.0417C21.4407 31.0417 21.3262 31.6794 21.3262 31.6794V33.9703H23.0176Z" fill="#697586"/>
<path d="M25.8067 33.9703V31.6794C25.8067 31.6794 25.6349 31.0417 24.9323 31.0417C24.2298 31.0417 24.1152 31.6794 24.1152 31.6794V33.9703H25.8067Z" fill="#697586"/>
<path d="M17.7983 39.3464V36.4293C17.7983 36.4293 17.5883 35.6313 16.7369 35.6313C15.8854 35.6313 15.7441 36.4293 15.7441 36.4293V39.3464H17.7983Z" fill="#697586"/>
<path d="M25.7397 39.3463V36.433C25.7397 36.433 25.5297 35.635 24.6783 35.635C23.8268 35.635 23.6855 36.433 23.6855 36.433V39.3463H25.7397Z" fill="#697586"/>
<path d="M21.1316 23.6345L21.1507 22.5272H20.41L20.4023 23.6345H21.1316Z" fill="#697586"/>
<path d="M22.3722 23.6345H23.09C23.0786 23.5085 23.0633 23.3596 23.0442 23.2069C22.9869 22.7678 22.9182 22.5272 22.9182 22.5272H22.166C22.166 22.5272 22.1927 22.7983 22.2615 23.0732C22.2997 23.2069 22.3378 23.4321 22.3722 23.6345Z" fill="#697586"/>
<path d="M19.1884 23.6345C19.219 23.4436 19.2533 23.2298 19.2877 23.1C19.3603 22.8212 19.387 22.554 19.387 22.554H18.6348C18.6348 22.554 18.5661 22.7945 18.5088 23.2298C18.4897 23.3749 18.4744 23.5123 18.4668 23.6345H19.1884Z" fill="#697586"/>
<path d="M17.1904 23.6345C17.2095 23.5047 17.2286 23.3672 17.2476 23.2603C17.2973 22.9854 17.45 22.5005 17.45 22.5005H16.7971C16.7971 22.5005 16.7055 22.7716 16.6291 23.2145C16.6024 23.3634 16.5756 23.5085 16.5527 23.6345H17.1904Z" fill="#697586"/>
<path d="M24.3576 23.6345H24.999C24.9761 23.52 24.9532 23.3902 24.9303 23.2489C24.8539 22.8098 24.7623 22.5349 24.7623 22.5349H24.1094C24.1094 22.5349 24.2621 23.016 24.3117 23.2909C24.327 23.394 24.3461 23.5162 24.3576 23.6345Z" fill="#697586"/>
<path d="M21.9141 15.4408C21.9141 15.4408 21.9217 16.8802 21.9217 17.4797C21.9217 17.4988 22.3264 17.4682 22.4104 17.4911C22.1088 17.4911 22.2768 17.8844 22.2501 17.8844C22.2501 17.8844 24.2508 18.3502 25.3428 20.7938C26.4348 23.2413 26.389 26.2768 26.389 26.2768C26.389 26.2768 26.3966 28.5677 26.4081 29.5871H27.103C27.1259 29.7857 27.0419 36.0131 27.1259 39.1593C30.5088 36.7538 33.6397 34.0429 35.6672 30.2248C37.4655 26.8342 38.4582 21.9431 37.3395 18.1364C35.5373 11.9815 25.1061 7.60584 21.9141 14.9253V15.4408Z" fill="#697586"/>
<path d="M19.6396 15.4674C19.6396 15.4674 19.6281 16.9069 19.6281 17.5063C19.6281 17.5292 19.2234 17.4949 19.1394 17.514C19.441 17.514 19.2692 17.9072 19.2998 17.9072C19.2998 17.9072 17.4327 18.2776 16.1574 20.79C14.8783 23.3023 15.0883 28.5714 15.073 29.5909L14.4316 29.5985C14.4087 29.7932 14.4812 36.0245 14.3934 39.1669C11.0181 36.7576 7.89485 34.0391 5.87885 30.2132C4.08812 26.8189 3.10685 21.924 4.2294 18.1211C6.04303 11.97 16.4743 7.61724 19.651 14.9405L19.6396 15.4674Z" fill="#697586"/>
<path d="M27.7954 24.5089H13.7598V25.0816H27.7954V24.5089Z" fill="#697586"/>
<path d="M27.7954 25.3947H13.7598V25.9674H27.7954V25.3947Z" fill="#697586"/>
<path d="M20.5432 14.8604H20.1309V17.514H20.5432V14.8604Z" fill="#697586"/>
<path d="M21.4182 14.8604H21.0059V17.514H21.4182V14.8604Z" fill="#697586"/>
<path d="M22.0858 35.6084H19.5391V39.3235H22.0858V35.6084Z" fill="#697586"/>
<path d="M20.9562 13.6423C20.9562 13.6423 20.7194 4.98263 12.7662 1.81736C12.3194 1.63791 9.6009 2.40154 10.04 2.60772C18.8294 5.08954 20.1505 12.0348 20.5896 13.6423H20.9562Z" fill="#697586"/>
</svg>
