<svg width="30" height="30" viewBox="0 0 30 30" fill="none" xmlns="http://www.w3.org/2000/svg">
<circle cx="15" cy="15" r="15" fill="#FF5A5F"/>
<path d="M14.7031 6.32502C14.7943 6.27586 14.8962 6.25012 14.9998 6.25012C15.1034 6.25012 15.2053 6.27586 15.2965 6.32502L23.4215 10.7C23.5207 10.7536 23.6036 10.833 23.6613 10.9298C23.7191 11.0266 23.7496 11.1373 23.7496 11.25C23.7496 11.3628 23.7191 11.4734 23.6613 11.5702C23.6036 11.6671 23.5207 11.7465 23.4215 11.8L15.2965 16.175C15.2053 16.2242 15.1034 16.2499 14.9998 16.2499C14.8962 16.2499 14.7943 16.2242 14.7031 16.175L6.57814 11.8C6.47892 11.7465 6.39604 11.6671 6.33827 11.5702C6.2805 11.4734 6.25 11.3628 6.25 11.25C6.25 11.1373 6.2805 11.0266 6.33827 10.9298C6.39604 10.833 6.47892 10.7536 6.57814 10.7L14.7031 6.32502Z" fill="white"/>
<path d="M7.72176 13.835L14.1118 17.2758C14.385 17.423 14.6905 17.5001 15.0009 17.5001C15.3113 17.5001 15.6168 17.423 15.8901 17.2758L22.2801 13.8342L23.4218 14.45C23.521 14.5036 23.6039 14.5829 23.6616 14.6798C23.7194 14.7766 23.7499 14.8873 23.7499 15C23.7499 15.1128 23.7194 15.2234 23.6616 15.3202C23.6039 15.4171 23.521 15.4964 23.4218 15.55L15.2968 19.925C15.2058 19.9739 15.1042 19.9994 15.0009 19.9994C14.8977 19.9994 14.796 19.9739 14.7051 19.925L6.58009 15.55C6.48087 15.4964 6.39799 15.4171 6.34022 15.3202C6.28245 15.2234 6.25195 15.1128 6.25195 15C6.25195 14.8873 6.28245 14.7766 6.34022 14.6798C6.39799 14.5829 6.48087 14.5036 6.58009 14.45L7.72176 13.835Z" fill="white"/>
<path d="M14.1118 21.0258L7.72176 17.5842L6.58009 18.2C6.48087 18.2536 6.39799 18.333 6.34022 18.4298C6.28245 18.5266 6.25195 18.6373 6.25195 18.75C6.25195 18.8628 6.28245 18.9734 6.34022 19.0702C6.39799 19.1671 6.48087 19.2464 6.58009 19.3L14.7051 23.675C14.8893 23.775 15.1126 23.775 15.2968 23.675L23.4218 19.3C23.521 19.2464 23.6039 19.1671 23.6616 19.0702C23.7194 18.9734 23.7499 18.8628 23.7499 18.75C23.7499 18.6373 23.7194 18.5266 23.6616 18.4298C23.6039 18.333 23.521 18.2536 23.4218 18.2L22.2801 17.585L15.8901 21.0267C15.6168 21.1737 15.3112 21.2506 15.0008 21.2505C14.6904 21.2503 14.385 21.1732 14.1118 21.0258Z" fill="white"/>
</svg>
