<svg width="362" height="56" viewBox="0 0 362 56" fill="none" xmlns="http://www.w3.org/2000/svg">
<g clip-path="url(#clip0_9379_9176)">
<path d="M101.391 15.5286L95.4576 38.496L89.524 15.5286H83.5479L84.9303 20.4563L79.7198 39.2673L74.0201 15.5286H68.278L76.3595 45.5234H82.6546L87.5036 29.4762L92.0335 45.5234H98.3074L106.814 15.5286H101.391ZM161.769 24.2271C160.471 23.9246 159.145 23.7595 157.813 23.7343C150.582 23.7343 146.627 28.5978 146.627 35.7322C146.627 42.8238 150.582 46.059 155.24 46.059C157.716 45.9776 160.101 45.0991 162.045 43.5523V45.5234H167.001V15.5286H161.769V24.2271ZM161.769 39.3959C160.068 40.9599 158.473 41.8169 156.792 41.8169C153.9 41.8169 152.05 39.8886 152.05 35.368C152.05 30.4831 154.347 27.9336 158.345 27.9336C159.515 27.9336 160.684 28.1693 161.748 28.5978V39.3959H161.769ZM136.759 27.7408H136.567V24.2271H131.676V45.5234H136.929V32.8399C138.566 29.7119 140.565 28.6835 143.904 28.6835H144.436V24.0986C143.963 24.0459 143.487 24.0173 143.011 24.0129C140.161 24.0129 138.205 25.1269 136.759 27.7622V27.7408ZM313.575 23.6915C306.344 23.6915 302.92 28.4049 302.92 34.8967C302.92 41.367 306.323 46.0376 313.575 46.0376C320.827 46.0376 324.23 41.367 324.23 34.8967C324.23 28.4049 320.763 23.6915 313.554 23.6915H313.575ZM313.575 41.774C310.172 41.774 308.343 39.5458 308.343 34.8967C308.343 30.2261 310.151 27.9979 313.575 27.9979C316.978 27.9979 318.764 30.2261 318.764 34.8967C318.764 39.5458 316.978 41.774 313.554 41.774H313.575ZM354.238 23.6915C351.984 23.6915 349.389 24.9341 347.05 26.5196L346.412 26.9266C345.327 24.5485 343.094 23.7129 340.648 23.7129C338.394 23.7129 335.82 24.8698 333.46 26.4339V24.2271H328.483V45.5234H333.758V30.2475C335.389 29.0611 337.305 28.3362 339.308 28.1478C341.031 28.1478 342.116 29.0905 342.116 32.09V45.5234H347.347V30.3118C349.304 29.0263 351.388 28.1693 352.877 28.1693C354.621 28.1693 355.684 29.0905 355.684 32.1114V45.5234H360.916V30.8259C360.916 26.7124 358.491 23.7129 354.217 23.7129L354.238 23.6915ZM116.81 23.6915C109.579 23.6915 106.176 28.4049 106.176 34.8967C106.176 41.367 109.579 46.0376 116.81 46.0376C124.041 46.0376 127.486 41.367 127.486 34.8967C127.486 28.4049 123.998 23.6915 116.789 23.6915H116.81ZM116.81 41.774C113.407 41.774 111.578 39.5458 111.578 34.8967C111.578 30.2261 113.407 27.9979 116.831 27.9979C120.234 27.9979 122.02 30.2261 122.02 34.8967C122.02 39.5458 120.213 41.774 116.789 41.774H116.81ZM202.538 27.7193H202.368V24.2271H197.455V45.5234H202.687V32.8399C204.325 29.7119 206.324 28.6835 209.663 28.6835H210.195V24.0986C209.721 24.0459 209.246 24.0173 208.77 24.0129C205.941 24.0129 203.985 25.1269 202.517 27.7622H202.538V27.7193ZM183.228 15.5286H173.487V45.5234H179.102V35.0895H183.206C189.565 35.0895 194.18 31.6401 194.18 25.1912C194.18 18.7638 189.565 15.5286 183.206 15.5286H183.228ZM183.27 30.6974H179.102V19.9636H183.249C186.652 19.9636 188.311 21.8489 188.311 25.1912C188.311 28.5549 186.758 30.6974 183.249 30.6974H183.27ZM259.875 30.2046C259.875 28.5978 261.619 27.9764 263.49 27.9764C265.468 27.9979 267.446 28.3192 269.339 28.8977V24.527C267.299 23.9465 265.185 23.6721 263.065 23.7129C258.003 23.7129 254.452 26.1339 254.452 30.0761C254.452 37.7247 264.915 35.7537 264.915 39.4816C264.915 41.3027 263.278 41.7955 260.875 41.7955C259.173 41.7955 256.472 41.1527 254.516 40.4457V44.7949C256.48 45.5855 258.569 46.0137 260.683 46.059C265.617 46.059 270.317 44.5807 270.317 39.2673C270.381 31.8758 259.896 33.7826 259.896 30.2046H259.875ZM222.657 23.7129C215.894 23.7129 212.385 29.0048 212.385 34.7681C212.385 42.6953 216.511 46.059 223.231 46.059C225.867 46.0647 228.486 45.6525 230.994 44.8378V40.4457C228.803 41.2598 226.804 41.7526 224.678 41.7526C220.764 41.7526 218.149 40.6814 218.021 36.0322H231.547C231.675 34.9824 231.738 33.9325 231.717 32.9042C231.717 28.4049 229.356 23.7129 222.636 23.7129H222.657ZM218.063 32.5399C218.382 29.5833 219.978 27.6979 222.593 27.6979C225.401 27.6979 226.251 29.9475 226.251 32.5399H218.063ZM240.819 30.2046C240.819 28.5978 242.542 27.9764 244.414 27.9764C246.391 27.9979 248.369 28.3192 250.262 28.8977V24.527C248.229 23.9486 246.122 23.6742 244.01 23.7129C238.948 23.7129 235.375 26.1339 235.375 30.0761C235.375 37.7247 245.86 35.7537 245.86 39.4816C245.86 41.3027 244.201 41.7955 241.819 41.7955C240.118 41.7955 237.417 41.1527 235.439 40.4457V44.7949C237.403 45.586 239.492 46.0142 241.606 46.059C246.54 46.059 251.262 44.5807 251.262 39.2673C251.304 31.8758 240.819 33.7826 240.819 30.2046ZM287.544 34.7038C287.544 29.7119 290.245 28.0193 293.456 28.0193C295.455 28.0836 297.454 28.4906 299.326 29.2405V24.7413C297.416 24.0482 295.4 23.7001 293.371 23.7129C286.395 23.7129 282.078 27.9979 282.078 34.9609C282.078 41.5384 285.183 46.059 293.052 46.059C295.54 46.059 297.476 45.5662 299.602 44.8378V40.4671C297.199 41.3884 295.349 41.7526 293.711 41.7526C290.245 41.7526 287.544 40.1457 287.544 34.6824V34.7038ZM273.848 45.5234H279.101V40.06H273.848V45.5234ZM3.88063 28.3835C3.88063 37.9604 9.41012 46.209 17.4066 50.1297L5.96482 18.5495C4.5909 21.6432 3.88069 24.9943 3.88063 28.3835ZM27.8701 52.5507C30.6561 52.5507 33.3358 52.0579 35.8454 51.1795L35.6752 50.8582L28.2955 30.5046L21.1071 51.5652C23.2339 52.2079 25.5095 52.5507 27.8701 52.5507ZM31.1666 17.0498L39.8436 43.0381L42.2468 34.9824C43.2676 31.6401 44.0545 29.2405 44.0545 27.1623C44.0545 24.1628 42.9912 22.106 42.0979 20.5206C40.8644 18.5067 39.7373 16.8141 39.7373 14.843C39.7373 12.6148 41.3961 10.5581 43.7781 10.5581H44.0758C39.6555 6.47002 33.8707 4.20625 27.8701 4.21632C23.897 4.21557 19.986 5.20984 16.489 7.10968C12.9919 9.00953 10.0186 11.7553 7.83634 15.1001L9.36759 15.143C11.8771 15.143 15.7478 14.8216 15.7478 14.8216C17.0663 14.7573 17.2152 16.6641 15.9179 16.8141C15.9179 16.8141 14.6206 16.9855 13.1532 17.0498L21.9153 43.2309L27.1683 27.3765L23.4253 17.0498C22.5868 17.0032 21.75 16.9317 20.9157 16.8355C19.6184 16.7498 19.7673 14.7573 21.0646 14.8216C21.0646 14.8216 25.0203 15.143 27.381 15.143C29.8905 15.143 33.7612 14.8216 33.7612 14.8216C35.0585 14.7573 35.2286 16.6641 33.9313 16.8141C33.9313 16.8141 32.634 16.9641 31.1666 17.0498ZM39.9287 49.2727C43.5578 47.1469 46.5697 44.0989 48.6633 40.4333C50.757 36.7676 51.8591 32.6126 51.8596 28.3835C51.8596 24.1843 50.7963 20.2421 48.9247 16.7927C49.3048 20.5876 48.7345 24.418 47.2659 27.9336L39.9287 49.2727ZM27.8701 56.2358C20.5376 56.2358 13.5053 53.3014 8.32041 48.078C3.13551 42.8547 0.222656 35.7704 0.222656 28.3835C0.222656 20.9966 3.13551 13.9123 8.32041 8.68899C13.5053 3.46568 20.5376 0.53125 27.8701 0.53125C35.2027 0.53125 42.2349 3.46568 47.4198 8.68899C52.6047 13.9123 55.5176 20.9966 55.5176 28.3835C55.5176 35.7704 52.6047 42.8547 47.4198 48.078C42.2349 53.3014 35.2027 56.2358 27.8701 56.2358Z" fill="black"/>
</g>
<defs>
<clipPath id="clip0_9379_9176">
<rect width="361.544" height="56" fill="white" transform="translate(0.226562)"/>
</clipPath>
</defs>
</svg>
