<svg width="572" height="560" viewBox="0 0 572 560" fill="none" xmlns="http://www.w3.org/2000/svg">
<rect width="572" height="560" rx="4" fill="#CEC1F5"/>
<g filter="url(#filter0_dd_9405_9072)">
<rect x="32.5" y="32.5" width="507" height="495" rx="3.5" stroke="#CCCCCC" shape-rendering="crispEdges"/>
<rect x="32" y="32" width="508" height="432" rx="4" fill="white"/>
<rect x="65" y="65" width="442" height="62" rx="3" stroke="#357AB5" stroke-width="2"/>
<path d="M93.835 92.0909C93.7498 91.3712 93.4042 90.8125 92.7981 90.4148C92.1921 90.017 91.4487 89.8182 90.568 89.8182C89.9241 89.8182 89.3606 89.9223 88.8777 90.1307C88.3994 90.339 88.0254 90.6255 87.7555 90.9901C87.4904 91.3546 87.3578 91.7689 87.3578 92.233C87.3578 92.6212 87.4501 92.955 87.6348 93.2344C87.8242 93.509 88.0656 93.7386 88.3592 93.9233C88.6528 94.1032 88.9605 94.2524 89.2825 94.3707C89.6045 94.4844 89.9004 94.5767 90.1703 94.6477L91.6475 95.0455C92.0263 95.1449 92.4477 95.2822 92.9118 95.4574C93.3805 95.6326 93.8279 95.8717 94.2541 96.1747C94.685 96.473 95.0401 96.8565 95.3194 97.3253C95.5988 97.794 95.7385 98.3693 95.7385 99.0511C95.7385 99.8371 95.5325 100.547 95.1206 101.182C94.7134 101.816 94.1168 102.321 93.3308 102.695C92.5495 103.069 91.6002 103.256 90.4828 103.256C89.4411 103.256 88.5391 103.088 87.7768 102.751C87.0192 102.415 86.4226 101.946 85.987 101.345C85.5562 100.744 85.3123 100.045 85.2555 99.25H87.0737C87.121 99.7992 87.3057 100.254 87.6277 100.614C87.9544 100.969 88.3663 101.234 88.8635 101.409C89.3654 101.58 89.9051 101.665 90.4828 101.665C91.1551 101.665 91.7588 101.556 92.2939 101.338C92.8289 101.116 93.2527 100.808 93.5652 100.415C93.8777 100.017 94.0339 99.553 94.0339 99.0227C94.0339 98.5398 93.899 98.1468 93.6291 97.8438C93.3592 97.5407 93.0041 97.2945 92.5637 97.1051C92.1234 96.9157 91.6475 96.75 91.1362 96.608L89.3464 96.0966C88.21 95.7699 87.3104 95.3035 86.6475 94.6974C85.9847 94.0914 85.6532 93.2983 85.6532 92.3182C85.6532 91.5038 85.8734 90.7936 86.3137 90.1875C86.7588 89.5767 87.3554 89.1032 88.1035 88.767C88.8564 88.4261 89.6968 88.2557 90.6248 88.2557C91.5623 88.2557 92.3957 88.4238 93.1248 88.7599C93.854 89.0914 94.4316 89.5459 94.8578 90.1236C95.2886 90.7012 95.5159 91.357 95.5396 92.0909H93.835ZM102.981 103.227C101.93 103.227 101.023 102.995 100.261 102.531C99.5033 102.062 98.9185 101.409 98.5066 100.571C98.0994 99.7282 97.8958 98.7481 97.8958 97.6307C97.8958 96.5133 98.0994 95.5284 98.5066 94.6761C98.9185 93.8191 99.4914 93.1515 100.225 92.6733C100.964 92.1903 101.826 91.9489 102.811 91.9489C103.379 91.9489 103.94 92.0436 104.494 92.233C105.048 92.4223 105.552 92.7301 106.007 93.1562C106.461 93.5777 106.823 94.1364 107.093 94.8324C107.363 95.5284 107.498 96.3854 107.498 97.4034V98.1136H99.089V96.6648H105.794C105.794 96.0492 105.67 95.5 105.424 95.017C105.183 94.5341 104.837 94.1529 104.387 93.8736C103.942 93.5942 103.417 93.4545 102.811 93.4545C102.143 93.4545 101.565 93.6203 101.078 93.9517C100.595 94.2784 100.223 94.7045 99.9625 95.2301C99.7021 95.7557 99.5719 96.3191 99.5719 96.9205V97.8864C99.5719 98.7102 99.714 99.4086 99.998 99.9815C100.287 100.55 100.687 100.983 101.198 101.281C101.71 101.575 102.304 101.722 102.981 101.722C103.421 101.722 103.819 101.66 104.174 101.537C104.534 101.409 104.844 101.22 105.105 100.969C105.365 100.713 105.566 100.396 105.708 100.017L107.328 100.472C107.157 101.021 106.871 101.504 106.468 101.92C106.066 102.332 105.569 102.654 104.977 102.886C104.385 103.114 103.72 103.227 102.981 103.227ZM113.258 103.256C112.567 103.256 111.939 103.125 111.376 102.865C110.812 102.6 110.365 102.219 110.034 101.722C109.702 101.22 109.536 100.614 109.536 99.9034C109.536 99.2784 109.66 98.7718 109.906 98.3835C110.152 97.9905 110.481 97.6828 110.893 97.4602C111.305 97.2377 111.759 97.072 112.257 96.9631C112.758 96.8494 113.263 96.7595 113.769 96.6932C114.432 96.608 114.97 96.544 115.382 96.5014C115.798 96.4541 116.101 96.3759 116.291 96.267C116.485 96.1581 116.582 95.9687 116.582 95.6989V95.642C116.582 94.9413 116.39 94.3968 116.007 94.0085C115.628 93.6203 115.052 93.4261 114.281 93.4261C113.481 93.4261 112.853 93.6013 112.399 93.9517C111.944 94.3021 111.624 94.6761 111.44 95.0739L109.849 94.5057C110.133 93.8428 110.512 93.3267 110.985 92.9574C111.463 92.5833 111.984 92.3229 112.548 92.1761C113.116 92.0246 113.675 91.9489 114.224 91.9489C114.574 91.9489 114.977 91.9915 115.431 92.0767C115.891 92.1572 116.333 92.3253 116.759 92.581C117.19 92.8366 117.548 93.2225 117.832 93.7386C118.116 94.2547 118.258 94.946 118.258 95.8125V103H116.582V101.523H116.497C116.383 101.759 116.194 102.013 115.928 102.283C115.663 102.553 115.311 102.782 114.87 102.972C114.43 103.161 113.892 103.256 113.258 103.256ZM113.514 101.75C114.177 101.75 114.735 101.62 115.19 101.359C115.649 101.099 115.995 100.763 116.227 100.351C116.463 99.9389 116.582 99.5057 116.582 99.0511V97.517C116.511 97.6023 116.355 97.6804 116.113 97.7514C115.876 97.8177 115.602 97.8769 115.289 97.929C114.981 97.9763 114.681 98.0189 114.387 98.0568C114.098 98.09 113.864 98.1184 113.684 98.142C113.249 98.1989 112.841 98.2912 112.463 98.419C112.088 98.5421 111.785 98.7292 111.553 98.9801C111.326 99.2263 111.213 99.5625 111.213 99.9886C111.213 100.571 111.428 101.011 111.859 101.31C112.294 101.603 112.846 101.75 113.514 101.75ZM121.317 103V92.0909H122.937V93.7386H123.05C123.249 93.1989 123.609 92.7609 124.13 92.4247C124.651 92.0885 125.238 91.9205 125.891 91.9205C126.014 91.9205 126.168 91.9228 126.353 91.9276C126.537 91.9323 126.677 91.9394 126.772 91.9489V93.6534C126.715 93.6392 126.585 93.6179 126.381 93.5895C126.182 93.5563 125.972 93.5398 125.749 93.5398C125.219 93.5398 124.745 93.651 124.329 93.8736C123.917 94.0914 123.59 94.3944 123.349 94.7827C123.112 95.1662 122.993 95.6042 122.993 96.0966V103H121.317ZM132.858 103.227C131.836 103.227 130.955 102.986 130.216 102.503C129.478 102.02 128.91 101.355 128.512 100.507C128.114 99.6596 127.915 98.6913 127.915 97.6023C127.915 96.4943 128.119 95.5166 128.526 94.669C128.938 93.8168 129.511 93.1515 130.245 92.6733C130.983 92.1903 131.845 91.9489 132.83 91.9489C133.597 91.9489 134.288 92.0909 134.904 92.375C135.519 92.6591 136.024 93.0568 136.417 93.5682C136.81 94.0795 137.054 94.6761 137.148 95.358H135.472C135.344 94.8608 135.06 94.4205 134.62 94.0369C134.184 93.6487 133.597 93.4545 132.858 93.4545C132.205 93.4545 131.632 93.625 131.14 93.9659C130.652 94.3021 130.271 94.7779 129.996 95.3935C129.726 96.0043 129.591 96.7216 129.591 97.5455C129.591 98.3883 129.724 99.1222 129.989 99.7472C130.259 100.372 130.638 100.857 131.126 101.203C131.618 101.549 132.196 101.722 132.858 101.722C133.294 101.722 133.689 101.646 134.045 101.494C134.4 101.343 134.7 101.125 134.947 100.841C135.193 100.557 135.368 100.216 135.472 99.8182H137.148C137.054 100.462 136.819 101.042 136.445 101.558C136.076 102.07 135.586 102.477 134.975 102.78C134.369 103.078 133.663 103.227 132.858 103.227ZM141.275 96.4375V103H139.599V88.4545H141.275V93.7955H141.417C141.672 93.232 142.056 92.7846 142.567 92.4531C143.083 92.117 143.77 91.9489 144.627 91.9489C145.37 91.9489 146.021 92.098 146.58 92.3963C147.139 92.6899 147.572 93.142 147.88 93.7528C148.192 94.3589 148.349 95.1307 148.349 96.0682V103H146.672V96.1818C146.672 95.3153 146.448 94.6454 145.998 94.1719C145.553 93.6937 144.935 93.4545 144.144 93.4545C143.595 93.4545 143.102 93.5705 142.667 93.8026C142.236 94.0346 141.895 94.3731 141.644 94.8182C141.398 95.2633 141.275 95.803 141.275 96.4375Z" fill="#757575"/>
<path d="M477 103C472.582 103 469 99.4183 469 95C469 90.5817 472.582 87 477 87C481.418 87 485 90.5817 485 95C485 99.4183 481.418 103 477 103Z" stroke="black" stroke-width="2" stroke-linecap="round" stroke-linejoin="round"/>
<path d="M467.001 105.003L471.301 100.703" stroke="black" stroke-width="2" stroke-linecap="round" stroke-linejoin="round"/>
<path d="M119.305 204.84C119.305 206.054 118.239 207.039 116.925 207.039C115.611 207.039 114.545 206.054 114.545 204.84C114.545 203.626 115.611 202.675 116.925 202.675C118.239 202.675 119.305 203.626 119.305 204.84Z" fill="black"/>
<path d="M127.635 204.857C127.635 206.062 126.569 207.039 125.255 207.039C123.941 207.039 122.875 206.062 122.875 204.857C122.875 203.652 123.941 202.675 125.255 202.675C126.569 202.675 127.635 203.652 127.635 204.857Z" fill="black"/>
<path fill-rule="evenodd" clip-rule="evenodd" d="M111.272 192C109.465 192 108 193.535 108 195.429V224.571C108 226.465 109.465 228 111.272 228H130.907C132.715 228 134.18 226.465 134.18 224.571V195.429C134.18 193.535 132.715 192 130.907 192H111.272ZM115.363 200.571C113.104 200.571 111.272 202.49 111.272 204.857C111.272 207.224 113.104 209.143 115.363 209.143H126.817C129.076 209.143 130.907 207.224 130.907 204.857C130.907 202.49 129.076 200.571 126.817 200.571H115.363Z" fill="black"/>
<path d="M74.7536 271V256.455H83.4751V258.017H76.5149V262.932H82.8217V264.494H76.5149V271H74.7536ZM89.8956 271.227C88.9107 271.227 88.0466 270.993 87.3033 270.524C86.5646 270.055 85.987 269.4 85.5703 268.557C85.1584 267.714 84.9524 266.729 84.9524 265.602C84.9524 264.466 85.1584 263.474 85.5703 262.626C85.987 261.779 86.5646 261.121 87.3033 260.652C88.0466 260.183 88.9107 259.949 89.8956 259.949C90.8804 259.949 91.7422 260.183 92.4808 260.652C93.2242 261.121 93.8018 261.779 94.2138 262.626C94.6304 263.474 94.8388 264.466 94.8388 265.602C94.8388 266.729 94.6304 267.714 94.2138 268.557C93.8018 269.4 93.2242 270.055 92.4808 270.524C91.7422 270.993 90.8804 271.227 89.8956 271.227ZM89.8956 269.722C90.6437 269.722 91.2592 269.53 91.7422 269.146C92.2251 268.763 92.5826 268.259 92.8146 267.634C93.0466 267.009 93.1626 266.331 93.1626 265.602C93.1626 264.873 93.0466 264.194 92.8146 263.564C92.5826 262.934 92.2251 262.425 91.7422 262.037C91.2592 261.649 90.6437 261.455 89.8956 261.455C89.1475 261.455 88.532 261.649 88.049 262.037C87.5661 262.425 87.2086 262.934 86.9766 263.564C86.7446 264.194 86.6286 264.873 86.6286 265.602C86.6286 266.331 86.7446 267.009 86.9766 267.634C87.2086 268.259 87.5661 268.763 88.049 269.146C88.532 269.53 89.1475 269.722 89.8956 269.722ZM97.3974 271V260.091H99.0167V261.739H99.1303C99.3292 261.199 99.689 260.761 100.21 260.425C100.731 260.089 101.318 259.92 101.971 259.92C102.094 259.92 102.248 259.923 102.433 259.928C102.618 259.932 102.757 259.939 102.852 259.949V261.653C102.795 261.639 102.665 261.618 102.461 261.589C102.262 261.556 102.052 261.54 101.829 261.54C101.299 261.54 100.825 261.651 100.409 261.874C99.9968 262.091 99.6701 262.394 99.4286 262.783C99.1919 263.166 99.0735 263.604 99.0735 264.097V271H97.3974ZM104.839 271V260.091H106.458V261.795H106.6C106.827 261.213 107.194 260.761 107.701 260.439C108.208 260.112 108.816 259.949 109.526 259.949C110.246 259.949 110.845 260.112 111.323 260.439C111.806 260.761 112.183 261.213 112.452 261.795H112.566C112.845 261.232 113.264 260.785 113.823 260.453C114.382 260.117 115.052 259.949 115.833 259.949C116.808 259.949 117.606 260.254 118.227 260.865C118.847 261.471 119.157 262.416 119.157 263.699V271H117.481V263.699C117.481 262.894 117.261 262.319 116.82 261.973C116.38 261.627 115.862 261.455 115.265 261.455C114.498 261.455 113.904 261.687 113.482 262.151C113.061 262.61 112.85 263.192 112.85 263.898V271H111.146V263.528C111.146 262.908 110.944 262.409 110.542 262.03C110.139 261.646 109.621 261.455 108.987 261.455C108.551 261.455 108.144 261.571 107.765 261.803C107.391 262.035 107.088 262.357 106.856 262.768C106.629 263.176 106.515 263.647 106.515 264.182V271H104.839ZM126.795 271.227C125.744 271.227 124.838 270.995 124.075 270.531C123.318 270.062 122.733 269.409 122.321 268.571C121.914 267.728 121.71 266.748 121.71 265.631C121.71 264.513 121.914 263.528 122.321 262.676C122.733 261.819 123.306 261.152 124.04 260.673C124.778 260.19 125.64 259.949 126.625 259.949C127.193 259.949 127.754 260.044 128.308 260.233C128.862 260.422 129.366 260.73 129.821 261.156C130.276 261.578 130.638 262.136 130.908 262.832C131.178 263.528 131.312 264.385 131.312 265.403V266.114H122.903V264.665H129.608C129.608 264.049 129.485 263.5 129.239 263.017C128.997 262.534 128.652 262.153 128.202 261.874C127.757 261.594 127.231 261.455 126.625 261.455C125.957 261.455 125.38 261.62 124.892 261.952C124.409 262.278 124.037 262.705 123.777 263.23C123.517 263.756 123.386 264.319 123.386 264.92V265.886C123.386 266.71 123.528 267.409 123.812 267.982C124.101 268.55 124.501 268.983 125.013 269.281C125.524 269.575 126.118 269.722 126.795 269.722C127.236 269.722 127.634 269.66 127.989 269.537C128.348 269.409 128.659 269.22 128.919 268.969C129.179 268.713 129.381 268.396 129.523 268.017L131.142 268.472C130.972 269.021 130.685 269.504 130.283 269.92C129.88 270.332 129.383 270.654 128.791 270.886C128.199 271.114 127.534 271.227 126.795 271.227ZM141.589 262.534L140.084 262.96C139.989 262.709 139.849 262.465 139.665 262.229C139.485 261.987 139.239 261.788 138.926 261.632C138.614 261.476 138.214 261.398 137.726 261.398C137.058 261.398 136.502 261.552 136.057 261.859C135.616 262.162 135.396 262.548 135.396 263.017C135.396 263.434 135.548 263.763 135.851 264.004C136.154 264.246 136.627 264.447 137.271 264.608L138.891 265.006C139.866 265.242 140.593 265.605 141.071 266.092C141.549 266.575 141.788 267.198 141.788 267.96C141.788 268.585 141.608 269.144 141.249 269.636C140.893 270.129 140.396 270.517 139.757 270.801C139.118 271.085 138.375 271.227 137.527 271.227C136.414 271.227 135.493 270.986 134.764 270.503C134.035 270.02 133.573 269.314 133.379 268.386L134.97 267.989C135.122 268.576 135.408 269.016 135.83 269.31C136.256 269.603 136.812 269.75 137.499 269.75C138.28 269.75 138.9 269.584 139.359 269.253C139.823 268.917 140.055 268.514 140.055 268.045C140.055 267.667 139.923 267.349 139.658 267.094C139.393 266.833 138.985 266.639 138.436 266.511L136.618 266.085C135.619 265.848 134.885 265.482 134.416 264.984C133.952 264.482 133.72 263.855 133.72 263.102C133.72 262.487 133.893 261.942 134.239 261.469C134.589 260.995 135.065 260.624 135.666 260.354C136.272 260.084 136.959 259.949 137.726 259.949C138.805 259.949 139.653 260.186 140.268 260.659C140.889 261.133 141.329 261.758 141.589 262.534ZM149.056 260.091V261.511H143.402V260.091H149.056ZM145.05 257.477H146.726V267.875C146.726 268.348 146.795 268.704 146.932 268.94C147.074 269.172 147.254 269.329 147.472 269.409C147.694 269.485 147.929 269.523 148.175 269.523C148.36 269.523 148.511 269.513 148.63 269.494C148.748 269.471 148.843 269.452 148.914 269.438L149.255 270.943C149.141 270.986 148.982 271.028 148.779 271.071C148.575 271.118 148.317 271.142 148.005 271.142C147.531 271.142 147.067 271.04 146.613 270.837C146.163 270.633 145.789 270.323 145.49 269.906C145.197 269.49 145.05 268.964 145.05 268.33V257.477ZM156.034 271.227C154.983 271.227 154.076 270.995 153.314 270.531C152.556 270.062 151.971 269.409 151.559 268.571C151.152 267.728 150.949 266.748 150.949 265.631C150.949 264.513 151.152 263.528 151.559 262.676C151.971 261.819 152.544 261.152 153.278 260.673C154.017 260.19 154.878 259.949 155.863 259.949C156.431 259.949 156.993 260.044 157.547 260.233C158.1 260.422 158.605 260.73 159.059 261.156C159.514 261.578 159.876 262.136 160.146 262.832C160.416 263.528 160.551 264.385 160.551 265.403V266.114H152.142V264.665H158.846C158.846 264.049 158.723 263.5 158.477 263.017C158.235 262.534 157.89 262.153 157.44 261.874C156.995 261.594 156.469 261.455 155.863 261.455C155.196 261.455 154.618 261.62 154.13 261.952C153.647 262.278 153.276 262.705 153.015 263.23C152.755 263.756 152.625 264.319 152.625 264.92V265.886C152.625 266.71 152.767 267.409 153.051 267.982C153.34 268.55 153.74 268.983 154.251 269.281C154.762 269.575 155.357 269.722 156.034 269.722C156.474 269.722 156.872 269.66 157.227 269.537C157.587 269.409 157.897 269.22 158.157 268.969C158.418 268.713 158.619 268.396 158.761 268.017L160.38 268.472C160.21 269.021 159.923 269.504 159.521 269.92C159.118 270.332 158.621 270.654 158.029 270.886C157.438 271.114 156.772 271.227 156.034 271.227ZM163.1 271V260.091H164.72V261.739H164.833C165.032 261.199 165.392 260.761 165.913 260.425C166.434 260.089 167.021 259.92 167.674 259.92C167.797 259.92 167.951 259.923 168.136 259.928C168.321 259.932 168.46 259.939 168.555 259.949V261.653C168.498 261.639 168.368 261.618 168.164 261.589C167.966 261.556 167.755 261.54 167.532 261.54C167.002 261.54 166.529 261.651 166.112 261.874C165.7 262.091 165.373 262.394 165.132 262.783C164.895 263.166 164.777 263.604 164.777 264.097V271H163.1Z" fill="#1E1E1E"/>
<path fill-rule="evenodd" clip-rule="evenodd" d="M274.945 192.856C276.31 192.291 277.773 192 279.25 192H282.625H288.25H291.625H298.375V195.375L291.625 195.375V228H288.25V195.375L282.625 195.375V228H279.25L279.25 214.5C277.773 214.5 276.31 214.209 274.945 213.644C273.58 213.078 272.34 212.25 271.295 211.205C270.25 210.16 269.422 208.92 268.856 207.555C268.291 206.19 268 204.727 268 203.25C268 201.773 268.291 200.31 268.856 198.945C269.422 197.58 270.25 196.34 271.295 195.295C272.34 194.25 273.58 193.422 274.945 192.856Z" fill="#1E1E1E"/>
<path d="M235.972 271V256.455H240.887C242.028 256.455 242.961 256.661 243.685 257.072C244.415 257.48 244.954 258.031 245.305 258.727C245.655 259.423 245.83 260.2 245.83 261.057C245.83 261.914 245.655 262.693 245.305 263.393C244.959 264.094 244.424 264.653 243.7 265.07C242.975 265.482 242.047 265.688 240.915 265.688H237.393V264.125H240.859C241.64 264.125 242.267 263.99 242.741 263.72C243.214 263.45 243.558 263.086 243.771 262.626C243.988 262.162 244.097 261.639 244.097 261.057C244.097 260.474 243.988 259.954 243.771 259.494C243.558 259.035 243.212 258.675 242.734 258.415C242.255 258.15 241.621 258.017 240.83 258.017H237.734V271H235.972ZM251.651 271.256C250.959 271.256 250.332 271.125 249.768 270.865C249.205 270.6 248.758 270.219 248.426 269.722C248.095 269.22 247.929 268.614 247.929 267.903C247.929 267.278 248.052 266.772 248.298 266.384C248.545 265.991 248.874 265.683 249.286 265.46C249.697 265.238 250.152 265.072 250.649 264.963C251.151 264.849 251.655 264.759 252.162 264.693C252.825 264.608 253.362 264.544 253.774 264.501C254.191 264.454 254.494 264.376 254.683 264.267C254.877 264.158 254.974 263.969 254.974 263.699V263.642C254.974 262.941 254.783 262.397 254.399 262.009C254.02 261.62 253.445 261.426 252.673 261.426C251.873 261.426 251.246 261.601 250.791 261.952C250.337 262.302 250.017 262.676 249.832 263.074L248.241 262.506C248.526 261.843 248.904 261.327 249.378 260.957C249.856 260.583 250.377 260.323 250.94 260.176C251.509 260.025 252.067 259.949 252.616 259.949C252.967 259.949 253.369 259.991 253.824 260.077C254.283 260.157 254.726 260.325 255.152 260.581C255.583 260.837 255.94 261.223 256.224 261.739C256.509 262.255 256.651 262.946 256.651 263.812V271H254.974V269.523H254.889C254.776 269.759 254.586 270.013 254.321 270.283C254.056 270.553 253.703 270.782 253.263 270.972C252.822 271.161 252.285 271.256 251.651 271.256ZM251.906 269.75C252.569 269.75 253.128 269.62 253.582 269.359C254.042 269.099 254.387 268.763 254.619 268.351C254.856 267.939 254.974 267.506 254.974 267.051V265.517C254.903 265.602 254.747 265.68 254.506 265.751C254.269 265.818 253.994 265.877 253.682 265.929C253.374 265.976 253.073 266.019 252.78 266.057C252.491 266.09 252.257 266.118 252.077 266.142C251.641 266.199 251.234 266.291 250.855 266.419C250.481 266.542 250.178 266.729 249.946 266.98C249.719 267.226 249.605 267.562 249.605 267.989C249.605 268.571 249.821 269.011 250.251 269.31C250.687 269.603 251.239 269.75 251.906 269.75ZM259.71 271V260.091H261.329V261.739H261.443C261.642 261.199 262.002 260.761 262.522 260.425C263.043 260.089 263.63 259.92 264.284 259.92C264.407 259.92 264.561 259.923 264.745 259.928C264.93 259.932 265.07 259.939 265.164 259.949V261.653C265.108 261.639 264.977 261.618 264.774 261.589C264.575 261.556 264.364 261.54 264.142 261.54C263.611 261.54 263.138 261.651 262.721 261.874C262.309 262.091 261.983 262.394 261.741 262.783C261.504 263.166 261.386 263.604 261.386 264.097V271H259.71ZM270.362 271.256C269.67 271.256 269.043 271.125 268.479 270.865C267.916 270.6 267.469 270.219 267.137 269.722C266.806 269.22 266.64 268.614 266.64 267.903C266.64 267.278 266.763 266.772 267.009 266.384C267.255 265.991 267.585 265.683 267.996 265.46C268.408 265.238 268.863 265.072 269.36 264.963C269.862 264.849 270.366 264.759 270.873 264.693C271.536 264.608 272.073 264.544 272.485 264.501C272.902 264.454 273.205 264.376 273.394 264.267C273.588 264.158 273.685 263.969 273.685 263.699V263.642C273.685 262.941 273.494 262.397 273.11 262.009C272.731 261.62 272.156 261.426 271.384 261.426C270.584 261.426 269.957 261.601 269.502 261.952C269.048 262.302 268.728 262.676 268.543 263.074L266.952 262.506C267.237 261.843 267.615 261.327 268.089 260.957C268.567 260.583 269.088 260.323 269.651 260.176C270.219 260.025 270.778 259.949 271.327 259.949C271.678 259.949 272.08 259.991 272.535 260.077C272.994 260.157 273.437 260.325 273.863 260.581C274.294 260.837 274.651 261.223 274.935 261.739C275.219 262.255 275.362 262.946 275.362 263.812V271H273.685V269.523H273.6C273.487 269.759 273.297 270.013 273.032 270.283C272.767 270.553 272.414 270.782 271.974 270.972C271.533 271.161 270.996 271.256 270.362 271.256ZM270.617 269.75C271.28 269.75 271.839 269.62 272.293 269.359C272.753 269.099 273.098 268.763 273.33 268.351C273.567 267.939 273.685 267.506 273.685 267.051V265.517C273.614 265.602 273.458 265.68 273.217 265.751C272.98 265.818 272.705 265.877 272.393 265.929C272.085 265.976 271.784 266.019 271.491 266.057C271.202 266.09 270.968 266.118 270.788 266.142C270.352 266.199 269.945 266.291 269.566 266.419C269.192 266.542 268.889 266.729 268.657 266.98C268.43 267.226 268.316 267.562 268.316 267.989C268.316 268.571 268.531 269.011 268.962 269.31C269.398 269.603 269.95 269.75 270.617 269.75ZM282.824 275.318C282.015 275.318 281.319 275.214 280.736 275.006C280.154 274.802 279.668 274.532 279.28 274.196C278.897 273.865 278.591 273.509 278.364 273.131L279.699 272.193C279.851 272.392 280.042 272.619 280.275 272.875C280.507 273.135 280.824 273.36 281.226 273.55C281.633 273.744 282.166 273.841 282.824 273.841C283.705 273.841 284.432 273.628 285.005 273.202C285.578 272.776 285.864 272.108 285.864 271.199V268.983H285.722C285.599 269.182 285.424 269.428 285.196 269.722C284.974 270.01 284.652 270.268 284.23 270.496C283.814 270.718 283.25 270.83 282.54 270.83C281.659 270.83 280.869 270.621 280.168 270.205C279.472 269.788 278.92 269.182 278.513 268.386C278.111 267.591 277.909 266.625 277.909 265.489C277.909 264.371 278.106 263.398 278.499 262.57C278.892 261.736 279.439 261.092 280.14 260.638C280.84 260.179 281.65 259.949 282.569 259.949C283.279 259.949 283.842 260.067 284.259 260.304C284.68 260.536 285.002 260.801 285.225 261.099C285.452 261.393 285.627 261.634 285.75 261.824H285.921V260.091H287.54V271.312C287.54 272.25 287.327 273.012 286.901 273.599C286.48 274.191 285.911 274.625 285.196 274.899C284.486 275.179 283.695 275.318 282.824 275.318ZM282.767 269.324C283.44 269.324 284.008 269.17 284.472 268.862C284.936 268.554 285.289 268.112 285.53 267.534C285.772 266.956 285.892 266.265 285.892 265.46C285.892 264.674 285.774 263.981 285.537 263.379C285.301 262.778 284.95 262.307 284.486 261.966C284.022 261.625 283.449 261.455 282.767 261.455C282.057 261.455 281.465 261.634 280.992 261.994C280.523 262.354 280.17 262.837 279.934 263.443C279.702 264.049 279.586 264.722 279.586 265.46C279.586 266.218 279.704 266.888 279.941 267.47C280.182 268.048 280.537 268.502 281.006 268.834C281.48 269.161 282.067 269.324 282.767 269.324ZM290.608 271V260.091H292.228V261.739H292.341C292.54 261.199 292.9 260.761 293.421 260.425C293.942 260.089 294.529 259.92 295.182 259.92C295.305 259.92 295.459 259.923 295.644 259.928C295.828 259.932 295.968 259.939 296.063 259.949V261.653C296.006 261.639 295.876 261.618 295.672 261.589C295.473 261.556 295.263 261.54 295.04 261.54C294.51 261.54 294.036 261.651 293.62 261.874C293.208 262.091 292.881 262.394 292.64 262.783C292.403 263.166 292.284 263.604 292.284 264.097V271H290.608ZM301.26 271.256C300.569 271.256 299.941 271.125 299.378 270.865C298.814 270.6 298.367 270.219 298.036 269.722C297.704 269.22 297.538 268.614 297.538 267.903C297.538 267.278 297.661 266.772 297.908 266.384C298.154 265.991 298.483 265.683 298.895 265.46C299.307 265.238 299.761 265.072 300.259 264.963C300.76 264.849 301.265 264.759 301.771 264.693C302.434 264.608 302.972 264.544 303.384 264.501C303.8 264.454 304.103 264.376 304.293 264.267C304.487 264.158 304.584 263.969 304.584 263.699V263.642C304.584 262.941 304.392 262.397 304.009 262.009C303.63 261.62 303.054 261.426 302.283 261.426C301.482 261.426 300.855 261.601 300.401 261.952C299.946 262.302 299.626 262.676 299.442 263.074L297.851 262.506C298.135 261.843 298.514 261.327 298.987 260.957C299.465 260.583 299.986 260.323 300.55 260.176C301.118 260.025 301.677 259.949 302.226 259.949C302.576 259.949 302.979 259.991 303.433 260.077C303.893 260.157 304.335 260.325 304.761 260.581C305.192 260.837 305.55 261.223 305.834 261.739C306.118 262.255 306.26 262.946 306.26 263.812V271H304.584V269.523H304.499C304.385 269.759 304.196 270.013 303.93 270.283C303.665 270.553 303.313 270.782 302.872 270.972C302.432 271.161 301.894 271.256 301.26 271.256ZM301.516 269.75C302.179 269.75 302.737 269.62 303.192 269.359C303.651 269.099 303.997 268.763 304.229 268.351C304.465 267.939 304.584 267.506 304.584 267.051V265.517C304.513 265.602 304.357 265.68 304.115 265.751C303.878 265.818 303.604 265.877 303.291 265.929C302.983 265.976 302.683 266.019 302.389 266.057C302.1 266.09 301.866 266.118 301.686 266.142C301.25 266.199 300.843 266.291 300.464 266.419C300.09 266.542 299.787 266.729 299.555 266.98C299.328 267.226 299.214 267.562 299.214 267.989C299.214 268.571 299.43 269.011 299.861 269.31C300.296 269.603 300.848 269.75 301.516 269.75ZM309.319 275.091V260.091H310.939V261.824H311.137C311.261 261.634 311.431 261.393 311.649 261.099C311.871 260.801 312.189 260.536 312.6 260.304C313.017 260.067 313.581 259.949 314.291 259.949C315.209 259.949 316.019 260.179 316.72 260.638C317.421 261.097 317.967 261.748 318.36 262.591C318.753 263.434 318.95 264.428 318.95 265.574C318.95 266.729 318.753 267.731 318.36 268.578C317.967 269.421 317.423 270.074 316.727 270.538C316.031 270.998 315.228 271.227 314.319 271.227C313.618 271.227 313.057 271.111 312.636 270.879C312.215 270.643 311.89 270.375 311.663 270.077C311.436 269.774 311.261 269.523 311.137 269.324H310.995V275.091H309.319ZM310.967 265.545C310.967 266.369 311.088 267.096 311.329 267.726C311.571 268.351 311.923 268.841 312.387 269.196C312.851 269.546 313.42 269.722 314.092 269.722C314.793 269.722 315.377 269.537 315.846 269.168C316.32 268.794 316.675 268.292 316.912 267.662C317.153 267.027 317.274 266.322 317.274 265.545C317.274 264.778 317.155 264.087 316.919 263.472C316.687 262.851 316.334 262.361 315.86 262.001C315.392 261.637 314.802 261.455 314.092 261.455C313.41 261.455 312.837 261.627 312.373 261.973C311.909 262.314 311.559 262.792 311.322 263.408C311.085 264.018 310.967 264.731 310.967 265.545ZM323.183 264.438V271H321.507V256.455H323.183V261.795H323.325C323.581 261.232 323.964 260.785 324.475 260.453C324.992 260.117 325.678 259.949 326.535 259.949C327.279 259.949 327.93 260.098 328.488 260.396C329.047 260.69 329.48 261.142 329.788 261.753C330.1 262.359 330.257 263.131 330.257 264.068V271H328.581V264.182C328.581 263.315 328.356 262.645 327.906 262.172C327.461 261.694 326.843 261.455 326.052 261.455C325.503 261.455 325.011 261.571 324.575 261.803C324.144 262.035 323.803 262.373 323.552 262.818C323.306 263.263 323.183 263.803 323.183 264.438Z" fill="#1E1E1E"/>
<path fill-rule="evenodd" clip-rule="evenodd" d="M427 196C427 193.791 428.791 192 431 192H459C461.209 192 463 193.791 463 196V224C463 226.209 461.209 228 459 228H431C428.791 228 427 226.209 427 224V196ZM431 195H459C459.552 195 460 195.448 460 196V212.715L452.936 206.067L444.878 215.132L437.999 209.727L430 216.042V196C430 195.448 430.448 195 431 195ZM430 218.59V224C430 224.552 430.448 225 431 225H459C459.552 225 460 224.552 460 224V215.461L453.064 208.933L445.122 217.868L438.001 212.273L430 218.59Z" fill="#1E1E1E"/>
<path d="M419.636 256.455V271H417.875V256.455H419.636ZM422.94 271V260.091H424.56V261.795H424.702C424.929 261.213 425.296 260.761 425.803 260.439C426.309 260.112 426.918 259.949 427.628 259.949C428.348 259.949 428.946 260.112 429.425 260.439C429.908 260.761 430.284 261.213 430.554 261.795H430.668C430.947 261.232 431.366 260.785 431.925 260.453C432.483 260.117 433.153 259.949 433.935 259.949C434.91 259.949 435.708 260.254 436.328 260.865C436.948 261.471 437.259 262.416 437.259 263.699V271H435.582V263.699C435.582 262.894 435.362 262.319 434.922 261.973C434.482 261.627 433.963 261.455 433.366 261.455C432.599 261.455 432.005 261.687 431.584 262.151C431.162 262.61 430.952 263.192 430.952 263.898V271H429.247V263.528C429.247 262.908 429.046 262.409 428.643 262.03C428.241 261.646 427.723 261.455 427.088 261.455C426.652 261.455 426.245 261.571 425.866 261.803C425.492 262.035 425.189 262.357 424.957 262.768C424.73 263.176 424.616 263.647 424.616 264.182V271H422.94ZM443.533 271.256C442.842 271.256 442.215 271.125 441.651 270.865C441.088 270.6 440.64 270.219 440.309 269.722C439.978 269.22 439.812 268.614 439.812 267.903C439.812 267.278 439.935 266.772 440.181 266.384C440.427 265.991 440.756 265.683 441.168 265.46C441.58 265.238 442.035 265.072 442.532 264.963C443.034 264.849 443.538 264.759 444.045 264.693C444.708 264.608 445.245 264.544 445.657 264.501C446.074 264.454 446.377 264.376 446.566 264.267C446.76 264.158 446.857 263.969 446.857 263.699V263.642C446.857 262.941 446.665 262.397 446.282 262.009C445.903 261.62 445.328 261.426 444.556 261.426C443.756 261.426 443.129 261.601 442.674 261.952C442.219 262.302 441.9 262.676 441.715 263.074L440.124 262.506C440.408 261.843 440.787 261.327 441.261 260.957C441.739 260.583 442.26 260.323 442.823 260.176C443.391 260.025 443.95 259.949 444.499 259.949C444.85 259.949 445.252 259.991 445.707 260.077C446.166 260.157 446.609 260.325 447.035 260.581C447.466 260.837 447.823 261.223 448.107 261.739C448.391 262.255 448.533 262.946 448.533 263.812V271H446.857V269.523H446.772C446.658 269.759 446.469 270.013 446.204 270.283C445.939 270.553 445.586 270.782 445.146 270.972C444.705 271.161 444.168 271.256 443.533 271.256ZM443.789 269.75C444.452 269.75 445.011 269.62 445.465 269.359C445.924 269.099 446.27 268.763 446.502 268.351C446.739 267.939 446.857 267.506 446.857 267.051V265.517C446.786 265.602 446.63 265.68 446.388 265.751C446.152 265.818 445.877 265.877 445.565 265.929C445.257 265.976 444.956 266.019 444.663 266.057C444.374 266.09 444.139 266.118 443.96 266.142C443.524 266.199 443.117 266.291 442.738 266.419C442.364 266.542 442.061 266.729 441.829 266.98C441.602 267.226 441.488 267.562 441.488 267.989C441.488 268.571 441.703 269.011 442.134 269.31C442.57 269.603 443.121 269.75 443.789 269.75ZM455.996 275.318C455.186 275.318 454.49 275.214 453.908 275.006C453.326 274.802 452.84 274.532 452.452 274.196C452.069 273.865 451.763 273.509 451.536 273.131L452.871 272.193C453.023 272.392 453.214 272.619 453.446 272.875C453.678 273.135 453.996 273.36 454.398 273.55C454.805 273.744 455.338 273.841 455.996 273.841C456.877 273.841 457.604 273.628 458.176 273.202C458.749 272.776 459.036 272.108 459.036 271.199V268.983H458.894C458.771 269.182 458.596 269.428 458.368 269.722C458.146 270.01 457.824 270.268 457.402 270.496C456.986 270.718 456.422 270.83 455.712 270.83C454.831 270.83 454.041 270.621 453.34 270.205C452.644 269.788 452.092 269.182 451.685 268.386C451.283 267.591 451.081 266.625 451.081 265.489C451.081 264.371 451.278 263.398 451.671 262.57C452.064 261.736 452.611 261.092 453.311 260.638C454.012 260.179 454.822 259.949 455.74 259.949C456.451 259.949 457.014 260.067 457.431 260.304C457.852 260.536 458.174 260.801 458.397 261.099C458.624 261.393 458.799 261.634 458.922 261.824H459.093V260.091H460.712V271.312C460.712 272.25 460.499 273.012 460.073 273.599C459.651 274.191 459.083 274.625 458.368 274.899C457.658 275.179 456.867 275.318 455.996 275.318ZM455.939 269.324C456.612 269.324 457.18 269.17 457.644 268.862C458.108 268.554 458.461 268.112 458.702 267.534C458.944 266.956 459.064 266.265 459.064 265.46C459.064 264.674 458.946 263.981 458.709 263.379C458.472 262.778 458.122 262.307 457.658 261.966C457.194 261.625 456.621 261.455 455.939 261.455C455.229 261.455 454.637 261.634 454.164 261.994C453.695 262.354 453.342 262.837 453.105 263.443C452.873 264.049 452.757 264.722 452.757 265.46C452.757 266.218 452.876 266.888 453.113 267.47C453.354 268.048 453.709 268.502 454.178 268.834C454.651 269.161 455.239 269.324 455.939 269.324ZM468.354 271.227C467.303 271.227 466.396 270.995 465.634 270.531C464.876 270.062 464.292 269.409 463.88 268.571C463.472 267.728 463.269 266.748 463.269 265.631C463.269 264.513 463.472 263.528 463.88 262.676C464.292 261.819 464.864 261.152 465.598 260.673C466.337 260.19 467.199 259.949 468.184 259.949C468.752 259.949 469.313 260.044 469.867 260.233C470.421 260.422 470.925 260.73 471.38 261.156C471.834 261.578 472.196 262.136 472.466 262.832C472.736 263.528 472.871 264.385 472.871 265.403V266.114H464.462V264.665H471.167C471.167 264.049 471.043 263.5 470.797 263.017C470.556 262.534 470.21 262.153 469.76 261.874C469.315 261.594 468.79 261.455 468.184 261.455C467.516 261.455 466.938 261.62 466.451 261.952C465.968 262.278 465.596 262.705 465.336 263.23C465.075 263.756 464.945 264.319 464.945 264.92V265.886C464.945 266.71 465.087 267.409 465.371 267.982C465.66 268.55 466.06 268.983 466.571 269.281C467.083 269.575 467.677 269.722 468.354 269.722C468.794 269.722 469.192 269.66 469.547 269.537C469.907 269.409 470.217 269.22 470.478 268.969C470.738 268.713 470.939 268.396 471.081 268.017L472.701 268.472C472.53 269.021 472.244 269.504 471.841 269.92C471.439 270.332 470.942 270.654 470.35 270.886C469.758 271.114 469.093 271.227 468.354 271.227Z" fill="#1E1E1E"/>
<path d="M105 340V376L121 363.333L137 376V340H105Z" fill="black"/>
<path d="M83.3766 419V404.455H85.138V410.932H92.8936V404.455H94.655V419H92.8936V412.494H85.138V419H83.3766ZM102.528 419.227C101.477 419.227 100.57 418.995 99.8077 418.531C99.0501 418.062 98.4654 417.409 98.0534 416.571C97.6462 415.728 97.4426 414.748 97.4426 413.631C97.4426 412.513 97.6462 411.528 98.0534 410.676C98.4654 409.819 99.0383 409.152 99.7722 408.673C100.511 408.19 101.373 407.949 102.357 407.949C102.926 407.949 103.487 408.044 104.041 408.233C104.595 408.422 105.099 408.73 105.553 409.156C106.008 409.578 106.37 410.136 106.64 410.832C106.91 411.528 107.045 412.385 107.045 413.403V414.114H98.6358V412.665H105.34C105.34 412.049 105.217 411.5 104.971 411.017C104.73 410.534 104.384 410.153 103.934 409.874C103.489 409.594 102.963 409.455 102.357 409.455C101.69 409.455 101.112 409.62 100.624 409.952C100.142 410.278 99.7698 410.705 99.5094 411.23C99.249 411.756 99.1188 412.319 99.1188 412.92V413.886C99.1188 414.71 99.2608 415.409 99.5449 415.982C99.8337 416.55 100.234 416.983 100.745 417.281C101.257 417.575 101.851 417.722 102.528 417.722C102.968 417.722 103.366 417.66 103.721 417.537C104.081 417.409 104.391 417.22 104.651 416.969C104.912 416.713 105.113 416.396 105.255 416.017L106.874 416.472C106.704 417.021 106.418 417.504 106.015 417.92C105.613 418.332 105.115 418.654 104.524 418.886C103.932 419.114 103.267 419.227 102.528 419.227ZM112.805 419.256C112.114 419.256 111.486 419.125 110.923 418.865C110.359 418.6 109.912 418.219 109.58 417.722C109.249 417.22 109.083 416.614 109.083 415.903C109.083 415.278 109.206 414.772 109.453 414.384C109.699 413.991 110.028 413.683 110.44 413.46C110.852 413.238 111.306 413.072 111.803 412.963C112.305 412.849 112.81 412.759 113.316 412.693C113.979 412.608 114.517 412.544 114.928 412.501C115.345 412.454 115.648 412.376 115.838 412.267C116.032 412.158 116.129 411.969 116.129 411.699V411.642C116.129 410.941 115.937 410.397 115.553 410.009C115.175 409.62 114.599 409.426 113.828 409.426C113.027 409.426 112.4 409.601 111.945 409.952C111.491 410.302 111.171 410.676 110.987 411.074L109.396 410.506C109.68 409.843 110.059 409.327 110.532 408.957C111.01 408.583 111.531 408.323 112.095 408.176C112.663 408.025 113.222 407.949 113.771 407.949C114.121 407.949 114.524 407.991 114.978 408.077C115.437 408.157 115.88 408.325 116.306 408.581C116.737 408.837 117.095 409.223 117.379 409.739C117.663 410.255 117.805 410.946 117.805 411.812V419H116.129V417.523H116.044C115.93 417.759 115.74 418.013 115.475 418.283C115.21 418.553 114.857 418.782 114.417 418.972C113.977 419.161 113.439 419.256 112.805 419.256ZM113.061 417.75C113.723 417.75 114.282 417.62 114.737 417.359C115.196 417.099 115.542 416.763 115.774 416.351C116.01 415.939 116.129 415.506 116.129 415.051V413.517C116.058 413.602 115.901 413.68 115.66 413.751C115.423 413.818 115.149 413.877 114.836 413.929C114.528 413.976 114.228 414.019 113.934 414.057C113.645 414.09 113.411 414.118 113.231 414.142C112.795 414.199 112.388 414.291 112.009 414.419C111.635 414.542 111.332 414.729 111.1 414.98C110.873 415.226 110.759 415.562 110.759 415.989C110.759 416.571 110.975 417.011 111.406 417.31C111.841 417.603 112.393 417.75 113.061 417.75ZM124.983 419.227C124.074 419.227 123.272 418.998 122.576 418.538C121.88 418.074 121.335 417.421 120.942 416.578C120.549 415.731 120.353 414.729 120.353 413.574C120.353 412.428 120.549 411.434 120.942 410.591C121.335 409.748 121.882 409.097 122.583 408.638C123.284 408.179 124.093 407.949 125.012 407.949C125.722 407.949 126.283 408.067 126.695 408.304C127.112 408.536 127.429 408.801 127.647 409.099C127.869 409.393 128.042 409.634 128.165 409.824H128.307V404.455H129.983V419H128.364V417.324H128.165C128.042 417.523 127.867 417.774 127.64 418.077C127.412 418.375 127.088 418.643 126.667 418.879C126.245 419.111 125.684 419.227 124.983 419.227ZM125.211 417.722C125.883 417.722 126.451 417.546 126.915 417.196C127.379 416.841 127.732 416.351 127.974 415.726C128.215 415.096 128.336 414.369 128.336 413.545C128.336 412.731 128.217 412.018 127.981 411.408C127.744 410.792 127.394 410.314 126.93 409.973C126.465 409.627 125.893 409.455 125.211 409.455C124.501 409.455 123.909 409.637 123.435 410.001C122.966 410.361 122.614 410.851 122.377 411.472C122.145 412.087 122.029 412.778 122.029 413.545C122.029 414.322 122.147 415.027 122.384 415.662C122.626 416.292 122.981 416.794 123.449 417.168C123.923 417.537 124.51 417.722 125.211 417.722ZM133.286 419V408.091H134.962V419H133.286ZM134.138 406.273C133.812 406.273 133.53 406.161 133.293 405.939C133.061 405.716 132.945 405.449 132.945 405.136C132.945 404.824 133.061 404.556 133.293 404.334C133.53 404.111 133.812 404 134.138 404C134.465 404 134.744 404.111 134.976 404.334C135.213 404.556 135.331 404.824 135.331 405.136C135.331 405.449 135.213 405.716 134.976 405.939C134.744 406.161 134.465 406.273 134.138 406.273ZM139.708 412.438V419H138.032V408.091H139.651V409.795H139.794C140.049 409.241 140.437 408.796 140.958 408.46C141.479 408.119 142.151 407.949 142.975 407.949C143.714 407.949 144.36 408.1 144.914 408.403C145.468 408.702 145.899 409.156 146.207 409.767C146.515 410.373 146.669 411.14 146.669 412.068V419H144.992V412.182C144.992 411.325 144.77 410.657 144.325 410.179C143.88 409.696 143.269 409.455 142.492 409.455C141.957 409.455 141.479 409.571 141.058 409.803C140.641 410.035 140.312 410.373 140.07 410.818C139.829 411.263 139.708 411.803 139.708 412.438ZM154.135 423.318C153.325 423.318 152.629 423.214 152.047 423.006C151.464 422.802 150.979 422.532 150.591 422.196C150.207 421.865 149.902 421.509 149.675 421.131L151.01 420.193C151.161 420.392 151.353 420.619 151.585 420.875C151.817 421.135 152.134 421.36 152.537 421.55C152.944 421.744 153.477 421.841 154.135 421.841C155.015 421.841 155.742 421.628 156.315 421.202C156.888 420.776 157.175 420.108 157.175 419.199V416.983H157.032C156.909 417.182 156.734 417.428 156.507 417.722C156.284 418.01 155.962 418.268 155.541 418.496C155.124 418.718 154.561 418.83 153.851 418.83C152.97 418.83 152.179 418.621 151.479 418.205C150.782 417.788 150.231 417.182 149.824 416.386C149.421 415.591 149.22 414.625 149.22 413.489C149.22 412.371 149.416 411.398 149.809 410.57C150.202 409.736 150.749 409.092 151.45 408.638C152.151 408.179 152.961 407.949 153.879 407.949C154.589 407.949 155.153 408.067 155.569 408.304C155.991 408.536 156.313 408.801 156.535 409.099C156.763 409.393 156.938 409.634 157.061 409.824H157.231V408.091H158.851V419.312C158.851 420.25 158.638 421.012 158.211 421.599C157.79 422.191 157.222 422.625 156.507 422.899C155.797 423.179 155.006 423.318 154.135 423.318ZM154.078 417.324C154.75 417.324 155.318 417.17 155.782 416.862C156.247 416.554 156.599 416.112 156.841 415.534C157.082 414.956 157.203 414.265 157.203 413.46C157.203 412.674 157.085 411.981 156.848 411.379C156.611 410.778 156.261 410.307 155.797 409.966C155.333 409.625 154.76 409.455 154.078 409.455C153.368 409.455 152.776 409.634 152.302 409.994C151.834 410.354 151.481 410.837 151.244 411.443C151.012 412.049 150.896 412.722 150.896 413.46C150.896 414.218 151.015 414.888 151.251 415.47C151.493 416.048 151.848 416.502 152.317 416.834C152.79 417.161 153.377 417.324 154.078 417.324Z" fill="#1E1E1E"/>
<path fill-rule="evenodd" clip-rule="evenodd" d="M265 343.892C265 341.742 266.742 340 268.892 340H290.297C292.447 340 294.189 341.742 294.189 343.892V365.297C294.189 367.447 292.447 369.189 290.297 369.189H268.892C266.742 369.189 265 367.447 265 365.297V343.892ZM268.892 342.919H290.297C290.835 342.919 291.27 343.355 291.27 343.892V358.082L286.399 354.335L279.572 359.699L274.234 355.817L267.919 360.554V343.892C267.919 343.355 268.355 342.919 268.892 342.919ZM267.919 362.986V365.297C267.919 365.835 268.355 366.27 268.892 366.27H290.297C290.835 366.27 291.27 365.835 291.27 365.297V360.537L286.412 356.8L279.617 362.138L274.252 358.237L267.919 362.986Z" fill="black"/>
<path d="M301 349.73V372.595C301 374.475 299.475 376 297.595 376H270.838V373.081H297.595C297.863 373.081 298.081 372.863 298.081 372.595V349.73H301Z" fill="black"/>
<path d="M261.619 409C261.462 408.522 261.256 408.093 261.001 407.714C260.75 407.331 260.449 407.004 260.099 406.734C259.753 406.464 259.36 406.259 258.92 406.116C258.479 405.974 257.996 405.903 257.471 405.903C256.609 405.903 255.826 406.126 255.12 406.571C254.415 407.016 253.853 407.672 253.437 408.538C253.02 409.405 252.812 410.468 252.812 411.727C252.812 412.987 253.022 414.05 253.444 414.916C253.865 415.783 254.436 416.438 255.156 416.884C255.875 417.329 256.685 417.551 257.585 417.551C258.418 417.551 259.152 417.374 259.786 417.018C260.425 416.659 260.923 416.152 261.278 415.499C261.638 414.84 261.817 414.066 261.817 413.176L262.357 413.29H257.982V411.727H263.522V413.29C263.522 414.488 263.266 415.529 262.755 416.415C262.248 417.3 261.548 417.987 260.653 418.474C259.763 418.957 258.74 419.199 257.585 419.199C256.297 419.199 255.165 418.896 254.19 418.29C253.219 417.684 252.461 416.822 251.917 415.705C251.377 414.587 251.107 413.261 251.107 411.727C251.107 410.577 251.261 409.542 251.569 408.624C251.881 407.7 252.322 406.914 252.89 406.266C253.458 405.617 254.13 405.12 254.907 404.774C255.683 404.429 256.538 404.256 257.471 404.256C258.238 404.256 258.953 404.372 259.616 404.604C260.283 404.831 260.878 405.155 261.398 405.577C261.924 405.993 262.362 406.493 262.712 407.075C263.063 407.653 263.304 408.295 263.437 409H261.619ZM269.522 419.256C268.83 419.256 268.203 419.125 267.64 418.865C267.076 418.6 266.629 418.219 266.297 417.722C265.966 417.22 265.8 416.614 265.8 415.903C265.8 415.278 265.923 414.772 266.169 414.384C266.416 413.991 266.745 413.683 267.157 413.46C267.569 413.238 268.023 413.072 268.52 412.963C269.022 412.849 269.526 412.759 270.033 412.693C270.696 412.608 271.233 412.544 271.645 412.501C272.062 412.454 272.365 412.376 272.554 412.267C272.748 412.158 272.846 411.969 272.846 411.699V411.642C272.846 410.941 272.654 410.397 272.27 410.009C271.891 409.62 271.316 409.426 270.544 409.426C269.744 409.426 269.117 409.601 268.662 409.952C268.208 410.302 267.888 410.676 267.703 411.074L266.113 410.506C266.397 409.843 266.775 409.327 267.249 408.957C267.727 408.583 268.248 408.323 268.811 408.176C269.38 408.025 269.938 407.949 270.488 407.949C270.838 407.949 271.24 407.991 271.695 408.077C272.154 408.157 272.597 408.325 273.023 408.581C273.454 408.837 273.811 409.223 274.096 409.739C274.38 410.255 274.522 410.946 274.522 411.812V419H272.846V417.523H272.76C272.647 417.759 272.457 418.013 272.192 418.283C271.927 418.553 271.574 418.782 271.134 418.972C270.694 419.161 270.156 419.256 269.522 419.256ZM269.777 417.75C270.44 417.75 270.999 417.62 271.453 417.359C271.913 417.099 272.258 416.763 272.49 416.351C272.727 415.939 272.846 415.506 272.846 415.051V413.517C272.775 413.602 272.618 413.68 272.377 413.751C272.14 413.818 271.865 413.877 271.553 413.929C271.245 413.976 270.944 414.019 270.651 414.057C270.362 414.09 270.128 414.118 269.948 414.142C269.512 414.199 269.105 414.291 268.726 414.419C268.352 414.542 268.049 414.729 267.817 414.98C267.59 415.226 267.476 415.562 267.476 415.989C267.476 416.571 267.692 417.011 268.123 417.31C268.558 417.603 269.11 417.75 269.777 417.75ZM279.257 404.455V419H277.581V404.455H279.257ZM284.003 404.455V419H282.327V404.455H284.003ZM291.647 419.227C290.596 419.227 289.689 418.995 288.927 418.531C288.169 418.062 287.585 417.409 287.173 416.571C286.765 415.728 286.562 414.748 286.562 413.631C286.562 412.513 286.765 411.528 287.173 410.676C287.585 409.819 288.157 409.152 288.891 408.673C289.63 408.19 290.492 407.949 291.477 407.949C292.045 407.949 292.606 408.044 293.16 408.233C293.714 408.422 294.218 408.73 294.673 409.156C295.127 409.578 295.489 410.136 295.759 410.832C296.029 411.528 296.164 412.385 296.164 413.403V414.114H287.755V412.665H294.46C294.46 412.049 294.336 411.5 294.09 411.017C293.849 410.534 293.503 410.153 293.053 409.874C292.608 409.594 292.083 409.455 291.477 409.455C290.809 409.455 290.231 409.62 289.744 409.952C289.261 410.278 288.889 410.705 288.629 411.23C288.368 411.756 288.238 412.319 288.238 412.92V413.886C288.238 414.71 288.38 415.409 288.664 415.982C288.953 416.55 289.353 416.983 289.864 417.281C290.376 417.575 290.97 417.722 291.647 417.722C292.087 417.722 292.485 417.66 292.84 417.537C293.2 417.409 293.51 417.22 293.771 416.969C294.031 416.713 294.232 416.396 294.374 416.017L295.994 416.472C295.823 417.021 295.537 417.504 295.134 417.92C294.732 418.332 294.235 418.654 293.643 418.886C293.051 419.114 292.386 419.227 291.647 419.227ZM298.714 419V408.091H300.333V409.739H300.447C300.646 409.199 301.005 408.761 301.526 408.425C302.047 408.089 302.634 407.92 303.288 407.92C303.411 407.92 303.565 407.923 303.749 407.928C303.934 407.932 304.074 407.939 304.168 407.949V409.653C304.112 409.639 303.981 409.618 303.778 409.589C303.579 409.556 303.368 409.54 303.146 409.54C302.615 409.54 302.142 409.651 301.725 409.874C301.313 410.091 300.987 410.394 300.745 410.783C300.508 411.166 300.39 411.604 300.39 412.097V419H298.714ZM307.567 423.091C307.283 423.091 307.029 423.067 306.807 423.02C306.584 422.977 306.43 422.935 306.345 422.892L306.771 421.415C307.179 421.519 307.538 421.557 307.851 421.528C308.163 421.5 308.44 421.36 308.682 421.109C308.928 420.863 309.153 420.463 309.357 419.909L309.669 419.057L305.635 408.091H307.453L310.464 416.784H310.578L313.589 408.091H315.408L310.777 420.591C310.569 421.154 310.311 421.621 310.003 421.99C309.695 422.364 309.338 422.641 308.93 422.821C308.528 423.001 308.073 423.091 307.567 423.091Z" fill="#1E1E1E"/>
<path d="M463 340H427V343.375H463V340Z" fill="#1E1E1E"/>
<path d="M427 372.625V376H463V372.625H427Z" fill="#1E1E1E"/>
<path d="M445 355.75H463V359.125H445V355.75Z" fill="#1E1E1E"/>
<path d="M431.5 362.5C433.987 362.5 436 360.487 436 358C436 355.513 433.987 353.5 431.5 353.5C429.013 353.5 427 355.513 427 358C427 359.213 427.475 360.303 428.248 361.111C429.07 361.964 430.221 362.5 431.5 362.5Z" fill="#1E1E1E"/>
<path d="M429.906 419V404.455H431.667V417.438H438.429V419H429.906ZM440.929 419V408.091H442.605V419H440.929ZM441.781 406.273C441.454 406.273 441.172 406.161 440.936 405.939C440.704 405.716 440.588 405.449 440.588 405.136C440.588 404.824 440.704 404.556 440.936 404.334C441.172 404.111 441.454 404 441.781 404C442.108 404 442.387 404.111 442.619 404.334C442.856 404.556 442.974 404.824 442.974 405.136C442.974 405.449 442.856 405.716 442.619 405.939C442.387 406.161 442.108 406.273 441.781 406.273ZM453.402 410.534L451.896 410.96C451.802 410.709 451.662 410.465 451.477 410.229C451.297 409.987 451.051 409.788 450.739 409.632C450.426 409.476 450.026 409.398 449.538 409.398C448.871 409.398 448.314 409.552 447.869 409.859C447.429 410.162 447.209 410.548 447.209 411.017C447.209 411.434 447.36 411.763 447.663 412.004C447.966 412.246 448.44 412.447 449.084 412.608L450.703 413.006C451.679 413.242 452.405 413.605 452.884 414.092C453.362 414.575 453.601 415.198 453.601 415.96C453.601 416.585 453.421 417.144 453.061 417.636C452.706 418.129 452.209 418.517 451.57 418.801C450.93 419.085 450.187 419.227 449.339 419.227C448.227 419.227 447.306 418.986 446.577 418.503C445.848 418.02 445.386 417.314 445.192 416.386L446.783 415.989C446.934 416.576 447.221 417.016 447.642 417.31C448.068 417.603 448.625 417.75 449.311 417.75C450.092 417.75 450.713 417.584 451.172 417.253C451.636 416.917 451.868 416.514 451.868 416.045C451.868 415.667 451.735 415.349 451.47 415.094C451.205 414.833 450.798 414.639 450.249 414.511L448.43 414.085C447.431 413.848 446.697 413.482 446.229 412.984C445.765 412.482 445.533 411.855 445.533 411.102C445.533 410.487 445.705 409.942 446.051 409.469C446.402 408.995 446.877 408.624 447.479 408.354C448.085 408.084 448.771 407.949 449.538 407.949C450.618 407.949 451.465 408.186 452.081 408.659C452.701 409.133 453.142 409.758 453.402 410.534ZM460.868 408.091V409.511H455.215V408.091H460.868ZM456.863 405.477H458.539V415.875C458.539 416.348 458.607 416.704 458.745 416.94C458.887 417.172 459.067 417.329 459.284 417.409C459.507 417.485 459.741 417.523 459.988 417.523C460.172 417.523 460.324 417.513 460.442 417.494C460.56 417.471 460.655 417.452 460.726 417.438L461.067 418.943C460.953 418.986 460.795 419.028 460.591 419.071C460.388 419.118 460.13 419.142 459.817 419.142C459.344 419.142 458.88 419.04 458.425 418.837C457.975 418.633 457.601 418.323 457.303 417.906C457.009 417.49 456.863 416.964 456.863 416.33V405.477Z" fill="#1E1E1E"/>
<rect x="32" y="464" width="508" height="64" rx="4" fill="black"/>
<path d="M235.838 503V488.455H240.923C241.936 488.455 242.772 488.63 243.43 488.98C244.088 489.326 244.578 489.792 244.9 490.379C245.222 490.962 245.383 491.608 245.383 492.318C245.383 492.943 245.272 493.459 245.049 493.866C244.831 494.274 244.543 494.596 244.183 494.832C243.828 495.069 243.442 495.244 243.025 495.358V495.5C243.47 495.528 243.918 495.685 244.367 495.969C244.817 496.253 245.194 496.66 245.497 497.19C245.8 497.721 245.951 498.369 245.951 499.136C245.951 499.866 245.785 500.521 245.454 501.104C245.123 501.686 244.599 502.148 243.884 502.489C243.169 502.83 242.239 503 241.093 503H235.838ZM237.599 501.438H241.093C242.244 501.438 243.061 501.215 243.544 500.77C244.031 500.32 244.275 499.776 244.275 499.136C244.275 498.644 244.15 498.189 243.899 497.773C243.648 497.351 243.29 497.015 242.826 496.764C242.362 496.509 241.813 496.381 241.178 496.381H237.599V501.438ZM237.599 494.847H240.866C241.396 494.847 241.874 494.742 242.301 494.534C242.731 494.326 243.072 494.032 243.323 493.653C243.579 493.275 243.707 492.83 243.707 492.318C243.707 491.679 243.484 491.137 243.039 490.692C242.594 490.242 241.889 490.017 240.923 490.017H237.599V494.847ZM248.618 503V492.091H250.237V493.739H250.351C250.55 493.199 250.91 492.761 251.431 492.425C251.951 492.089 252.539 491.92 253.192 491.92C253.315 491.92 253.469 491.923 253.654 491.928C253.838 491.932 253.978 491.939 254.073 491.949V493.653C254.016 493.639 253.886 493.618 253.682 493.589C253.483 493.556 253.272 493.54 253.05 493.54C252.52 493.54 252.046 493.651 251.629 493.874C251.218 494.091 250.891 494.394 250.649 494.783C250.413 495.166 250.294 495.604 250.294 496.097V503H248.618ZM260.159 503.227C259.174 503.227 258.31 502.993 257.567 502.524C256.828 502.055 256.251 501.4 255.834 500.557C255.422 499.714 255.216 498.729 255.216 497.602C255.216 496.466 255.422 495.474 255.834 494.626C256.251 493.779 256.828 493.121 257.567 492.652C258.31 492.183 259.174 491.949 260.159 491.949C261.144 491.949 262.006 492.183 262.744 492.652C263.488 493.121 264.066 493.779 264.477 494.626C264.894 495.474 265.102 496.466 265.102 497.602C265.102 498.729 264.894 499.714 264.477 500.557C264.066 501.4 263.488 502.055 262.744 502.524C262.006 502.993 261.144 503.227 260.159 503.227ZM260.159 501.722C260.907 501.722 261.523 501.53 262.006 501.146C262.489 500.763 262.846 500.259 263.078 499.634C263.31 499.009 263.426 498.331 263.426 497.602C263.426 496.873 263.31 496.194 263.078 495.564C262.846 494.934 262.489 494.425 262.006 494.037C261.523 493.649 260.907 493.455 260.159 493.455C259.411 493.455 258.796 493.649 258.313 494.037C257.83 494.425 257.472 494.934 257.24 495.564C257.008 496.194 256.892 496.873 256.892 497.602C256.892 498.331 257.008 499.009 257.24 499.634C257.472 500.259 257.83 500.763 258.313 501.146C258.796 501.53 259.411 501.722 260.159 501.722ZM269.762 503L266.438 492.091H268.199L270.557 500.443H270.671L273 492.091H274.79L277.091 500.415H277.205L279.563 492.091H281.324L278 503H276.352L273.966 494.619H273.796L271.409 503H269.762ZM291.267 494.534L289.762 494.96C289.667 494.709 289.527 494.465 289.343 494.229C289.163 493.987 288.916 493.788 288.604 493.632C288.291 493.476 287.891 493.398 287.404 493.398C286.736 493.398 286.18 493.552 285.735 493.859C285.294 494.162 285.074 494.548 285.074 495.017C285.074 495.434 285.226 495.763 285.529 496.004C285.832 496.246 286.305 496.447 286.949 496.608L288.568 497.006C289.544 497.242 290.271 497.605 290.749 498.092C291.227 498.575 291.466 499.198 291.466 499.96C291.466 500.585 291.286 501.144 290.926 501.636C290.571 502.129 290.074 502.517 289.435 502.801C288.796 503.085 288.052 503.227 287.205 503.227C286.092 503.227 285.171 502.986 284.442 502.503C283.713 502.02 283.251 501.314 283.057 500.386L284.648 499.989C284.799 500.576 285.086 501.016 285.507 501.31C285.933 501.603 286.49 501.75 287.176 501.75C287.958 501.75 288.578 501.584 289.037 501.253C289.501 500.917 289.733 500.514 289.733 500.045C289.733 499.667 289.601 499.349 289.335 499.094C289.07 498.833 288.663 498.639 288.114 498.511L286.296 498.085C285.297 497.848 284.563 497.482 284.094 496.984C283.63 496.482 283.398 495.855 283.398 495.102C283.398 494.487 283.571 493.942 283.916 493.469C284.267 492.995 284.743 492.624 285.344 492.354C285.95 492.084 286.637 491.949 287.404 491.949C288.483 491.949 289.331 492.186 289.946 492.659C290.566 493.133 291.007 493.758 291.267 494.534ZM298.563 503.227C297.512 503.227 296.605 502.995 295.843 502.531C295.085 502.062 294.501 501.409 294.089 500.571C293.681 499.728 293.478 498.748 293.478 497.631C293.478 496.513 293.681 495.528 294.089 494.676C294.501 493.819 295.073 493.152 295.807 492.673C296.546 492.19 297.408 491.949 298.393 491.949C298.961 491.949 299.522 492.044 300.076 492.233C300.63 492.422 301.134 492.73 301.589 493.156C302.043 493.578 302.405 494.136 302.675 494.832C302.945 495.528 303.08 496.385 303.08 497.403V498.114H294.671V496.665H301.376C301.376 496.049 301.252 495.5 301.006 495.017C300.765 494.534 300.419 494.153 299.969 493.874C299.524 493.594 298.999 493.455 298.393 493.455C297.725 493.455 297.147 493.62 296.66 493.952C296.177 494.278 295.805 494.705 295.545 495.23C295.284 495.756 295.154 496.319 295.154 496.92V497.886C295.154 498.71 295.296 499.409 295.58 499.982C295.869 500.55 296.269 500.983 296.78 501.281C297.292 501.575 297.886 501.722 298.563 501.722C299.003 501.722 299.401 501.66 299.756 501.537C300.116 501.409 300.426 501.22 300.687 500.969C300.947 500.713 301.148 500.396 301.29 500.017L302.91 500.472C302.739 501.021 302.453 501.504 302.05 501.92C301.648 502.332 301.151 502.654 300.559 502.886C299.967 503.114 299.302 503.227 298.563 503.227ZM305.63 503V492.091H307.249V493.739H307.363C307.562 493.199 307.921 492.761 308.442 492.425C308.963 492.089 309.55 491.92 310.204 491.92C310.327 491.92 310.481 491.923 310.665 491.928C310.85 491.932 310.99 491.939 311.084 491.949V493.653C311.028 493.639 310.897 493.618 310.694 493.589C310.495 493.556 310.284 493.54 310.062 493.54C309.531 493.54 309.058 493.651 308.641 493.874C308.229 494.091 307.903 494.394 307.661 494.783C307.424 495.166 307.306 495.604 307.306 496.097V503H305.63ZM321.906 503.256C321.215 503.256 320.588 503.125 320.024 502.865C319.461 502.6 319.013 502.219 318.682 501.722C318.351 501.22 318.185 500.614 318.185 499.903C318.185 499.278 318.308 498.772 318.554 498.384C318.8 497.991 319.129 497.683 319.541 497.46C319.953 497.238 320.408 497.072 320.905 496.963C321.407 496.849 321.911 496.759 322.418 496.693C323.081 496.608 323.618 496.544 324.03 496.501C324.447 496.454 324.75 496.376 324.939 496.267C325.133 496.158 325.23 495.969 325.23 495.699V495.642C325.23 494.941 325.039 494.397 324.655 494.009C324.276 493.62 323.701 493.426 322.929 493.426C322.129 493.426 321.502 493.601 321.047 493.952C320.593 494.302 320.273 494.676 320.088 495.074L318.497 494.506C318.781 493.843 319.16 493.327 319.634 492.957C320.112 492.583 320.633 492.323 321.196 492.176C321.764 492.025 322.323 491.949 322.872 491.949C323.223 491.949 323.625 491.991 324.08 492.077C324.539 492.157 324.982 492.325 325.408 492.581C325.839 492.837 326.196 493.223 326.48 493.739C326.764 494.255 326.906 494.946 326.906 495.812V503H325.23V501.523H325.145C325.031 501.759 324.842 502.013 324.577 502.283C324.312 502.553 323.959 502.782 323.519 502.972C323.078 503.161 322.541 503.256 321.906 503.256ZM322.162 501.75C322.825 501.75 323.384 501.62 323.838 501.359C324.298 501.099 324.643 500.763 324.875 500.351C325.112 499.939 325.23 499.506 325.23 499.051V497.517C325.159 497.602 325.003 497.68 324.762 497.751C324.525 497.818 324.25 497.877 323.938 497.929C323.63 497.976 323.329 498.019 323.036 498.057C322.747 498.09 322.512 498.118 322.333 498.142C321.897 498.199 321.49 498.291 321.111 498.419C320.737 498.542 320.434 498.729 320.202 498.98C319.975 499.226 319.861 499.562 319.861 499.989C319.861 500.571 320.076 501.011 320.507 501.31C320.943 501.603 321.494 501.75 322.162 501.75ZM331.642 488.455V503H329.966V488.455H331.642ZM336.388 488.455V503H334.712V488.455H336.388Z" fill="white"/>
</g>
<defs>
<filter id="filter0_dd_9405_9072" x="24" y="28" width="524" height="512" filterUnits="userSpaceOnUse" color-interpolation-filters="sRGB">
<feFlood flood-opacity="0" result="BackgroundImageFix"/>
<feColorMatrix in="SourceAlpha" type="matrix" values="0 0 0 0 0 0 0 0 0 0 0 0 0 0 0 0 0 0 127 0" result="hardAlpha"/>
<feOffset dy="4"/>
<feGaussianBlur stdDeviation="4"/>
<feComposite in2="hardAlpha" operator="out"/>
<feColorMatrix type="matrix" values="0 0 0 0 0 0 0 0 0 0 0 0 0 0 0 0 0 0 0.05 0"/>
<feBlend mode="normal" in2="BackgroundImageFix" result="effect1_dropShadow_9405_9072"/>
<feColorMatrix in="SourceAlpha" type="matrix" values="0 0 0 0 0 0 0 0 0 0 0 0 0 0 0 0 0 0 127 0" result="hardAlpha"/>
<feOffset dy="2"/>
<feGaussianBlur stdDeviation="2"/>
<feComposite in2="hardAlpha" operator="out"/>
<feColorMatrix type="matrix" values="0 0 0 0 0 0 0 0 0 0 0 0 0 0 0 0 0 0 0.07 0"/>
<feBlend mode="normal" in2="effect1_dropShadow_9405_9072" result="effect2_dropShadow_9405_9072"/>
<feBlend mode="normal" in="SourceGraphic" in2="effect2_dropShadow_9405_9072" result="shape"/>
</filter>
</defs>
</svg>
