<svg width="583" height="200" viewBox="0 0 583 200" fill="none" xmlns="http://www.w3.org/2000/svg">
<rect width="583" height="200" rx="4" fill="#CEC1F5"/>
<rect x="32" y="32" width="519" height="136" rx="4" fill="white"/>
<rect x="65" y="65" width="453" height="62" rx="3" stroke="#262626" stroke-width="2"/>
<path d="M86.0797 103V88.4545H90.9945C92.1356 88.4545 93.0684 88.6605 93.7928 89.0724C94.522 89.4796 95.0617 90.0312 95.4121 90.7273C95.7625 91.4233 95.9377 92.1998 95.9377 93.0568C95.9377 93.9138 95.7625 94.6927 95.4121 95.3935C95.0665 96.0942 94.5314 96.6529 93.807 97.0696C93.0826 97.4815 92.1545 97.6875 91.0229 97.6875H87.5002V96.125H90.9661C91.7473 96.125 92.3747 95.9901 92.8482 95.7202C93.3217 95.4503 93.665 95.0857 93.878 94.6264C94.0958 94.1624 94.2047 93.6392 94.2047 93.0568C94.2047 92.4744 94.0958 91.9536 93.878 91.4943C93.665 91.035 93.3193 90.6752 92.8411 90.4148C92.3629 90.1496 91.7284 90.017 90.9377 90.017H87.8411V103H86.0797ZM101.758 103.256C101.067 103.256 100.439 103.125 99.8759 102.865C99.3124 102.6 98.865 102.219 98.5336 101.722C98.2021 101.22 98.0364 100.614 98.0364 99.9034C98.0364 99.2784 98.1595 98.7718 98.4057 98.3835C98.6519 97.9905 98.981 97.6828 99.3929 97.4602C99.8049 97.2377 100.259 97.072 100.757 96.9631C101.258 96.8494 101.763 96.7595 102.269 96.6932C102.932 96.608 103.47 96.544 103.882 96.5014C104.298 96.4541 104.601 96.3759 104.791 96.267C104.985 96.1581 105.082 95.9687 105.082 95.6989V95.642C105.082 94.9413 104.89 94.3968 104.507 94.0085C104.128 93.6203 103.552 93.4261 102.781 93.4261C101.981 93.4261 101.353 93.6013 100.899 93.9517C100.444 94.3021 100.124 94.6761 99.9398 95.0739L98.3489 94.5057C98.633 93.8428 99.0118 93.3267 99.4853 92.9574C99.9635 92.5833 100.484 92.3229 101.048 92.1761C101.616 92.0246 102.175 91.9489 102.724 91.9489C103.074 91.9489 103.477 91.9915 103.931 92.0767C104.391 92.1572 104.833 92.3253 105.259 92.581C105.69 92.8366 106.048 93.2225 106.332 93.7386C106.616 94.2547 106.758 94.946 106.758 95.8125V103H105.082V101.523H104.997C104.883 101.759 104.694 102.013 104.428 102.283C104.163 102.553 103.811 102.782 103.37 102.972C102.93 103.161 102.392 103.256 101.758 103.256ZM102.014 101.75C102.677 101.75 103.235 101.62 103.69 101.359C104.149 101.099 104.495 100.763 104.727 100.351C104.963 99.9389 105.082 99.5057 105.082 99.0511V97.517C105.011 97.6023 104.855 97.6804 104.613 97.7514C104.376 97.8177 104.102 97.8769 103.789 97.929C103.481 97.9763 103.181 98.0189 102.887 98.0568C102.598 98.09 102.364 98.1184 102.184 98.142C101.749 98.1989 101.341 98.2912 100.963 98.419C100.588 98.5421 100.285 98.7292 100.053 98.9801C99.8262 99.2263 99.7125 99.5625 99.7125 99.9886C99.7125 100.571 99.928 101.011 100.359 101.31C100.794 101.603 101.346 101.75 102.014 101.75ZM117.545 94.5341L116.039 94.9602C115.944 94.7093 115.805 94.4654 115.62 94.2287C115.44 93.9872 115.194 93.7884 114.881 93.6321C114.569 93.4759 114.169 93.3977 113.681 93.3977C113.013 93.3977 112.457 93.5516 112.012 93.8594C111.572 94.1624 111.351 94.5483 111.351 95.017C111.351 95.4337 111.503 95.7628 111.806 96.0043C112.109 96.2457 112.582 96.447 113.226 96.608L114.846 97.0057C115.821 97.2424 116.548 97.6046 117.026 98.0923C117.504 98.5753 117.743 99.1979 117.743 99.9602C117.743 100.585 117.564 101.144 117.204 101.636C116.849 102.129 116.351 102.517 115.712 102.801C115.073 103.085 114.33 103.227 113.482 103.227C112.369 103.227 111.448 102.986 110.719 102.503C109.99 102.02 109.528 101.314 109.334 100.386L110.925 99.9886C111.077 100.576 111.363 101.016 111.785 101.31C112.211 101.603 112.767 101.75 113.454 101.75C114.235 101.75 114.855 101.584 115.314 101.253C115.778 100.917 116.01 100.514 116.01 100.045C116.01 99.6667 115.878 99.3494 115.613 99.0938C115.348 98.8333 114.94 98.6392 114.391 98.5114L112.573 98.0852C111.574 97.8485 110.84 97.4815 110.371 96.9844C109.907 96.4825 109.675 95.8551 109.675 95.1023C109.675 94.4867 109.848 93.9422 110.194 93.4688C110.544 92.9953 111.02 92.6236 111.621 92.3537C112.227 92.0838 112.914 91.9489 113.681 91.9489C114.76 91.9489 115.608 92.1856 116.224 92.6591C116.844 93.1326 117.284 93.7576 117.545 94.5341ZM125.011 92.0909V93.5114H119.357V92.0909H125.011ZM121.005 89.4773H122.681V99.875C122.681 100.348 122.75 100.704 122.887 100.94C123.029 101.172 123.209 101.329 123.427 101.409C123.65 101.485 123.884 101.523 124.13 101.523C124.315 101.523 124.466 101.513 124.585 101.494C124.703 101.471 124.798 101.452 124.869 101.438L125.21 102.943C125.096 102.986 124.937 103.028 124.734 103.071C124.53 103.118 124.272 103.142 123.96 103.142C123.486 103.142 123.022 103.04 122.568 102.837C122.118 102.633 121.744 102.323 121.445 101.906C121.152 101.49 121.005 100.964 121.005 100.33V89.4773ZM131.989 103.227C130.938 103.227 130.031 102.995 129.269 102.531C128.511 102.062 127.926 101.409 127.514 100.571C127.107 99.7282 126.904 98.7481 126.904 97.6307C126.904 96.5133 127.107 95.5284 127.514 94.6761C127.926 93.8191 128.499 93.1515 129.233 92.6733C129.972 92.1903 130.834 91.9489 131.818 91.9489C132.387 91.9489 132.948 92.0436 133.502 92.233C134.056 92.4223 134.56 92.7301 135.014 93.1562C135.469 93.5777 135.831 94.1364 136.101 94.8324C136.371 95.5284 136.506 96.3854 136.506 97.4034V98.1136H128.097V96.6648H134.801C134.801 96.0492 134.678 95.5 134.432 95.017C134.191 94.5341 133.845 94.1529 133.395 93.8736C132.95 93.5942 132.424 93.4545 131.818 93.4545C131.151 93.4545 130.573 93.6203 130.085 93.9517C129.602 94.2784 129.231 94.7045 128.97 95.2301C128.71 95.7557 128.58 96.3191 128.58 96.9205V97.8864C128.58 98.7102 128.722 99.4086 129.006 99.9815C129.295 100.55 129.695 100.983 130.206 101.281C130.718 101.575 131.312 101.722 131.989 101.722C132.429 101.722 132.827 101.66 133.182 101.537C133.542 101.409 133.852 101.22 134.112 100.969C134.373 100.713 134.574 100.396 134.716 100.017L136.335 100.472C136.165 101.021 135.878 101.504 135.476 101.92C135.074 102.332 134.576 102.654 133.985 102.886C133.393 103.114 132.727 103.227 131.989 103.227ZM139.056 103V92.0909H140.675V93.7386H140.789C140.987 93.1989 141.347 92.7609 141.868 92.4247C142.389 92.0885 142.976 91.9205 143.629 91.9205C143.753 91.9205 143.906 91.9228 144.091 91.9276C144.276 91.9323 144.415 91.9394 144.51 91.9489V93.6534C144.453 93.6392 144.323 93.6179 144.119 93.5895C143.921 93.5563 143.71 93.5398 143.487 93.5398C142.957 93.5398 142.484 93.651 142.067 93.8736C141.655 94.0914 141.328 94.3944 141.087 94.7827C140.85 95.1662 140.732 95.6042 140.732 96.0966V103H139.056ZM161.895 88.4545H163.656V98.0852C163.656 99.0795 163.422 99.9673 162.953 100.749C162.489 101.525 161.833 102.138 160.986 102.588C160.138 103.033 159.144 103.256 158.003 103.256C156.862 103.256 155.867 103.033 155.02 102.588C154.172 102.138 153.514 101.525 153.045 100.749C152.581 99.9673 152.349 99.0795 152.349 98.0852V88.4545H154.111V97.9432C154.111 98.6534 154.267 99.2855 154.579 99.8395C154.892 100.389 155.337 100.822 155.915 101.139C156.497 101.452 157.193 101.608 158.003 101.608C158.812 101.608 159.508 101.452 160.091 101.139C160.673 100.822 161.118 100.389 161.426 99.8395C161.738 99.2855 161.895 98.6534 161.895 97.9432V88.4545ZM167.173 103V88.4545H172.088C173.225 88.4545 174.157 88.6487 174.887 89.0369C175.616 89.4205 176.155 89.9484 176.506 90.6207C176.856 91.2931 177.031 92.0578 177.031 92.9148C177.031 93.7718 176.856 94.5317 176.506 95.1946C176.155 95.8575 175.618 96.3783 174.894 96.7571C174.169 97.1312 173.244 97.3182 172.117 97.3182H168.139V95.7273H172.06C172.836 95.7273 173.461 95.6136 173.935 95.3864C174.413 95.1591 174.759 94.8371 174.972 94.4205C175.19 93.9991 175.298 93.4972 175.298 92.9148C175.298 92.3324 175.19 91.8234 174.972 91.3878C174.754 90.9522 174.406 90.616 173.928 90.3793C173.45 90.1378 172.817 90.017 172.031 90.017H168.935V103H167.173ZM174.02 96.4659L177.6 103H175.554L172.031 96.4659H174.02ZM179.966 103V88.4545H181.728V101.438H188.489V103H179.966ZM197.694 107.091C197.41 107.091 197.156 107.067 196.934 107.02C196.711 106.977 196.557 106.935 196.472 106.892L196.898 105.415C197.305 105.519 197.665 105.557 197.978 105.528C198.29 105.5 198.567 105.36 198.809 105.109C199.055 104.863 199.28 104.463 199.483 103.909L199.796 103.057L195.762 92.0909H197.58L200.591 100.784H200.705L203.716 92.0909H205.535L200.904 104.591C200.696 105.154 200.438 105.621 200.13 105.99C199.822 106.364 199.465 106.641 199.057 106.821C198.655 107.001 198.2 107.091 197.694 107.091ZM211.788 103.227C210.803 103.227 209.939 102.993 209.196 102.524C208.457 102.055 207.88 101.4 207.463 100.557C207.051 99.714 206.845 98.7292 206.845 97.6023C206.845 96.4659 207.051 95.474 207.463 94.6264C207.88 93.7789 208.457 93.1207 209.196 92.652C209.939 92.1832 210.803 91.9489 211.788 91.9489C212.773 91.9489 213.635 92.1832 214.373 92.652C215.117 93.1207 215.694 93.7789 216.106 94.6264C216.523 95.474 216.731 96.4659 216.731 97.6023C216.731 98.7292 216.523 99.714 216.106 100.557C215.694 101.4 215.117 102.055 214.373 102.524C213.635 102.993 212.773 103.227 211.788 103.227ZM211.788 101.722C212.536 101.722 213.152 101.53 213.635 101.146C214.118 100.763 214.475 100.259 214.707 99.6335C214.939 99.0085 215.055 98.3314 215.055 97.6023C215.055 96.8731 214.939 96.1937 214.707 95.5639C214.475 94.9342 214.118 94.4252 213.635 94.0369C213.152 93.6487 212.536 93.4545 211.788 93.4545C211.04 93.4545 210.425 93.6487 209.942 94.0369C209.459 94.4252 209.101 94.9342 208.869 95.5639C208.637 96.1937 208.521 96.8731 208.521 97.6023C208.521 98.3314 208.637 99.0085 208.869 99.6335C209.101 100.259 209.459 100.763 209.942 101.146C210.425 101.53 211.04 101.722 211.788 101.722ZM226.165 98.5398V92.0909H227.841V103H226.165V101.153H226.051C225.796 101.707 225.398 102.179 224.858 102.567C224.318 102.95 223.637 103.142 222.813 103.142C222.131 103.142 221.525 102.993 220.994 102.695C220.464 102.392 220.048 101.937 219.744 101.331C219.441 100.72 219.29 99.9508 219.29 99.0227V92.0909H220.966V98.9091C220.966 99.7045 221.189 100.339 221.634 100.812C222.084 101.286 222.656 101.523 223.352 101.523C223.769 101.523 224.193 101.416 224.624 101.203C225.059 100.99 225.424 100.663 225.718 100.223C226.016 99.7827 226.165 99.2216 226.165 98.5398ZM239.008 103L235.684 92.0909H237.445L239.803 100.443H239.917L242.246 92.0909H244.036L246.337 100.415H246.451L248.809 92.0909H250.57L247.246 103H245.599L243.212 94.6193H243.042L240.655 103H239.008ZM255.996 103.256C255.305 103.256 254.678 103.125 254.114 102.865C253.551 102.6 253.103 102.219 252.772 101.722C252.44 101.22 252.275 100.614 252.275 99.9034C252.275 99.2784 252.398 98.7718 252.644 98.3835C252.89 97.9905 253.219 97.6828 253.631 97.4602C254.043 97.2377 254.498 97.072 254.995 96.9631C255.497 96.8494 256.001 96.7595 256.508 96.6932C257.171 96.608 257.708 96.544 258.12 96.5014C258.537 96.4541 258.84 96.3759 259.029 96.267C259.223 96.1581 259.32 95.9687 259.32 95.6989V95.642C259.32 94.9413 259.128 94.3968 258.745 94.0085C258.366 93.6203 257.791 93.4261 257.019 93.4261C256.219 93.4261 255.591 93.6013 255.137 93.9517C254.682 94.3021 254.363 94.6761 254.178 95.0739L252.587 94.5057C252.871 93.8428 253.25 93.3267 253.724 92.9574C254.202 92.5833 254.723 92.3229 255.286 92.1761C255.854 92.0246 256.413 91.9489 256.962 91.9489C257.313 91.9489 257.715 91.9915 258.17 92.0767C258.629 92.1572 259.072 92.3253 259.498 92.581C259.929 92.8366 260.286 93.2225 260.57 93.7386C260.854 94.2547 260.996 94.946 260.996 95.8125V103H259.32V101.523H259.235C259.121 101.759 258.932 102.013 258.667 102.283C258.402 102.553 258.049 102.782 257.608 102.972C257.168 103.161 256.631 103.256 255.996 103.256ZM256.252 101.75C256.915 101.75 257.474 101.62 257.928 101.359C258.387 101.099 258.733 100.763 258.965 100.351C259.202 99.9389 259.32 99.5057 259.32 99.0511V97.517C259.249 97.6023 259.093 97.6804 258.851 97.7514C258.615 97.8177 258.34 97.8769 258.028 97.929C257.72 97.9763 257.419 98.0189 257.126 98.0568C256.837 98.09 256.602 98.1184 256.422 98.142C255.987 98.1989 255.58 98.2912 255.201 98.419C254.827 98.5421 254.524 98.7292 254.292 98.9801C254.064 99.2263 253.951 99.5625 253.951 99.9886C253.951 100.571 254.166 101.011 254.597 101.31C255.033 101.603 255.584 101.75 256.252 101.75ZM265.732 96.4375V103H264.056V92.0909H265.675V93.7955H265.817C266.073 93.2415 266.461 92.7964 266.982 92.4602C267.503 92.1193 268.175 91.9489 268.999 91.9489C269.737 91.9489 270.384 92.1004 270.938 92.4034C271.492 92.7017 271.923 93.1562 272.23 93.767C272.538 94.3731 272.692 95.1402 272.692 96.0682V103H271.016V96.1818C271.016 95.3248 270.793 94.6572 270.348 94.179C269.903 93.696 269.292 93.4545 268.516 93.4545C267.981 93.4545 267.503 93.5705 267.081 93.8026C266.664 94.0346 266.335 94.3731 266.094 94.8182C265.852 95.2633 265.732 95.803 265.732 96.4375ZM280.499 92.0909V93.5114H274.846V92.0909H280.499ZM276.493 89.4773H278.17V99.875C278.17 100.348 278.238 100.704 278.376 100.94C278.518 101.172 278.698 101.329 278.915 101.409C279.138 101.485 279.372 101.523 279.618 101.523C279.803 101.523 279.955 101.513 280.073 101.494C280.191 101.471 280.286 101.452 280.357 101.438L280.698 102.943C280.584 102.986 280.426 103.028 280.222 103.071C280.019 103.118 279.76 103.142 279.448 103.142C278.974 103.142 278.51 103.04 278.056 102.837C277.606 102.633 277.232 102.323 276.934 101.906C276.64 101.49 276.493 100.964 276.493 100.33V89.4773ZM293.39 92.0909V93.5114H287.736V92.0909H293.39ZM289.384 89.4773H291.06V99.875C291.06 100.348 291.129 100.704 291.266 100.94C291.408 101.172 291.588 101.329 291.806 101.409C292.028 101.485 292.263 101.523 292.509 101.523C292.694 101.523 292.845 101.513 292.964 101.494C293.082 101.471 293.177 101.452 293.248 101.438L293.589 102.943C293.475 102.986 293.316 103.028 293.113 103.071C292.909 103.118 292.651 103.142 292.339 103.142C291.865 103.142 291.401 103.04 290.947 102.837C290.497 102.633 290.123 102.323 289.824 101.906C289.531 101.49 289.384 100.964 289.384 100.33V89.4773ZM300.226 103.227C299.241 103.227 298.377 102.993 297.633 102.524C296.895 102.055 296.317 101.4 295.9 100.557C295.488 99.714 295.282 98.7292 295.282 97.6023C295.282 96.4659 295.488 95.474 295.9 94.6264C296.317 93.7789 296.895 93.1207 297.633 92.652C298.377 92.1832 299.241 91.9489 300.226 91.9489C301.211 91.9489 302.072 92.1832 302.811 92.652C303.554 93.1207 304.132 93.7789 304.544 94.6264C304.961 95.474 305.169 96.4659 305.169 97.6023C305.169 98.7292 304.961 99.714 304.544 100.557C304.132 101.4 303.554 102.055 302.811 102.524C302.072 102.993 301.211 103.227 300.226 103.227ZM300.226 101.722C300.974 101.722 301.589 101.53 302.072 101.146C302.555 100.763 302.913 100.259 303.145 99.6335C303.377 99.0085 303.493 98.3314 303.493 97.6023C303.493 96.8731 303.377 96.1937 303.145 95.5639C302.913 94.9342 302.555 94.4252 302.072 94.0369C301.589 93.6487 300.974 93.4545 300.226 93.4545C299.478 93.4545 298.862 93.6487 298.379 94.0369C297.896 94.4252 297.539 94.9342 297.307 95.5639C297.075 96.1937 296.959 96.8731 296.959 97.6023C296.959 98.3314 297.075 99.0085 297.307 99.6335C297.539 100.259 297.896 100.763 298.379 101.146C298.862 101.53 299.478 101.722 300.226 101.722ZM317.926 103.227C316.875 103.227 315.968 102.995 315.206 102.531C314.449 102.062 313.864 101.409 313.452 100.571C313.045 99.7282 312.841 98.7481 312.841 97.6307C312.841 96.5133 313.045 95.5284 313.452 94.6761C313.864 93.8191 314.437 93.1515 315.171 92.6733C315.909 92.1903 316.771 91.9489 317.756 91.9489C318.324 91.9489 318.885 92.0436 319.439 92.233C319.993 92.4223 320.497 92.7301 320.952 93.1562C321.406 93.5777 321.769 94.1364 322.039 94.8324C322.308 95.5284 322.443 96.3854 322.443 97.4034V98.1136H314.034V96.6648H320.739C320.739 96.0492 320.616 95.5 320.369 95.017C320.128 94.5341 319.782 94.1529 319.333 93.8736C318.887 93.5942 318.362 93.4545 317.756 93.4545C317.088 93.4545 316.511 93.6203 316.023 93.9517C315.54 94.2784 315.168 94.7045 314.908 95.2301C314.647 95.7557 314.517 96.3191 314.517 96.9205V97.8864C314.517 98.7102 314.659 99.4086 314.943 99.9815C315.232 100.55 315.632 100.983 316.144 101.281C316.655 101.575 317.249 101.722 317.926 101.722C318.367 101.722 318.764 101.66 319.119 101.537C319.479 101.409 319.789 101.22 320.05 100.969C320.31 100.713 320.512 100.396 320.654 100.017L322.273 100.472C322.102 101.021 321.816 101.504 321.414 101.92C321.011 102.332 320.514 102.654 319.922 102.886C319.33 103.114 318.665 103.227 317.926 103.227ZM324.993 103V92.0909H326.612V93.7955H326.754C326.982 93.2131 327.349 92.7609 327.855 92.4389C328.362 92.1122 328.97 91.9489 329.681 91.9489C330.4 91.9489 330.999 92.1122 331.477 92.4389C331.96 92.7609 332.337 93.2131 332.607 93.7955H332.72C333 93.232 333.419 92.7846 333.977 92.4531C334.536 92.117 335.206 91.9489 335.987 91.9489C336.963 91.9489 337.761 92.2543 338.381 92.8651C339.001 93.4711 339.311 94.4157 339.311 95.6989V103H337.635V95.6989C337.635 94.8939 337.415 94.3187 336.975 93.973C336.534 93.6274 336.016 93.4545 335.419 93.4545C334.652 93.4545 334.058 93.6866 333.637 94.1506C333.215 94.6098 333.004 95.1922 333.004 95.8977V103H331.3V95.5284C331.3 94.9081 331.099 94.4086 330.696 94.0298C330.294 93.6463 329.775 93.4545 329.141 93.4545C328.705 93.4545 328.298 93.5705 327.919 93.8026C327.545 94.0346 327.242 94.3565 327.01 94.7685C326.783 95.1757 326.669 95.6468 326.669 96.1818V103H324.993ZM342.603 103V88.4545H344.279V93.8239H344.421C344.544 93.6345 344.715 93.393 344.933 93.0994C345.155 92.8011 345.472 92.536 345.884 92.304C346.301 92.0672 346.865 91.9489 347.575 91.9489C348.493 91.9489 349.303 92.1785 350.004 92.6378C350.704 93.0971 351.251 93.7481 351.644 94.5909C352.037 95.4337 352.234 96.428 352.234 97.5739C352.234 98.7292 352.037 99.7306 351.644 100.578C351.251 101.421 350.707 102.074 350.011 102.538C349.315 102.998 348.512 103.227 347.603 103.227C346.902 103.227 346.341 103.111 345.92 102.879C345.499 102.643 345.174 102.375 344.947 102.077C344.72 101.774 344.544 101.523 344.421 101.324H344.222V103H342.603ZM344.251 97.5455C344.251 98.3693 344.372 99.0961 344.613 99.7259C344.855 100.351 345.207 100.841 345.671 101.196C346.135 101.546 346.704 101.722 347.376 101.722C348.077 101.722 348.661 101.537 349.13 101.168C349.604 100.794 349.959 100.292 350.195 99.6619C350.437 99.0275 350.558 98.322 350.558 97.5455C350.558 96.7784 350.439 96.0871 350.203 95.4716C349.971 94.8513 349.618 94.3613 349.144 94.0014C348.676 93.6368 348.086 93.4545 347.376 93.4545C346.694 93.4545 346.121 93.6274 345.657 93.973C345.193 94.3139 344.843 94.7921 344.606 95.4077C344.369 96.0185 344.251 96.7311 344.251 97.5455ZM359.372 103.227C358.32 103.227 357.414 102.995 356.651 102.531C355.894 102.062 355.309 101.409 354.897 100.571C354.49 99.7282 354.286 98.7481 354.286 97.6307C354.286 96.5133 354.49 95.5284 354.897 94.6761C355.309 93.8191 355.882 93.1515 356.616 92.6733C357.355 92.1903 358.216 91.9489 359.201 91.9489C359.769 91.9489 360.33 92.0436 360.884 92.233C361.438 92.4223 361.943 92.7301 362.397 93.1562C362.852 93.5777 363.214 94.1364 363.484 94.8324C363.754 95.5284 363.889 96.3854 363.889 97.4034V98.1136H355.48V96.6648H362.184C362.184 96.0492 362.061 95.5 361.815 95.017C361.573 94.5341 361.228 94.1529 360.778 93.8736C360.333 93.5942 359.807 93.4545 359.201 93.4545C358.534 93.4545 357.956 93.6203 357.468 93.9517C356.985 94.2784 356.614 94.7045 356.353 95.2301C356.093 95.7557 355.963 96.3191 355.963 96.9205V97.8864C355.963 98.7102 356.105 99.4086 356.389 99.9815C356.677 100.55 357.078 100.983 357.589 101.281C358.1 101.575 358.695 101.722 359.372 101.722C359.812 101.722 360.21 101.66 360.565 101.537C360.925 101.409 361.235 101.22 361.495 100.969C361.756 100.713 361.957 100.396 362.099 100.017L363.718 100.472C363.548 101.021 363.261 101.504 362.859 101.92C362.456 102.332 361.959 102.654 361.367 102.886C360.776 103.114 360.11 103.227 359.372 103.227ZM370.558 103.227C369.649 103.227 368.846 102.998 368.15 102.538C367.454 102.074 366.91 101.421 366.517 100.578C366.124 99.7306 365.927 98.7292 365.927 97.5739C365.927 96.428 366.124 95.4337 366.517 94.5909C366.91 93.7481 367.456 93.0971 368.157 92.6378C368.858 92.1785 369.668 91.9489 370.586 91.9489C371.296 91.9489 371.857 92.0672 372.269 92.304C372.686 92.536 373.003 92.8011 373.221 93.0994C373.444 93.393 373.616 93.6345 373.74 93.8239H373.882V88.4545H375.558V103H373.938V101.324H373.74C373.616 101.523 373.441 101.774 373.214 102.077C372.987 102.375 372.662 102.643 372.241 102.879C371.82 103.111 371.258 103.227 370.558 103.227ZM370.785 101.722C371.457 101.722 372.026 101.546 372.49 101.196C372.954 100.841 373.306 100.351 373.548 99.7259C373.789 99.0961 373.91 98.3693 373.91 97.5455C373.91 96.7311 373.792 96.0185 373.555 95.4077C373.318 94.7921 372.968 94.3139 372.504 93.973C372.04 93.6274 371.467 93.4545 370.785 93.4545C370.075 93.4545 369.483 93.6368 369.009 94.0014C368.541 94.3613 368.188 94.8513 367.951 95.4716C367.719 96.0871 367.603 96.7784 367.603 97.5455C367.603 98.322 367.722 99.0275 367.958 99.6619C368.2 100.292 368.555 100.794 369.024 101.168C369.497 101.537 370.084 101.722 370.785 101.722ZM386.161 96.4375V103H384.485V88.4545H386.161V93.7955H386.303C386.559 93.232 386.943 92.7846 387.454 92.4531C387.97 92.117 388.657 91.9489 389.514 91.9489C390.257 91.9489 390.908 92.098 391.467 92.3963C392.026 92.6899 392.459 93.142 392.767 93.7528C393.079 94.3589 393.235 95.1307 393.235 96.0682V103H391.559V96.1818C391.559 95.3153 391.334 94.6454 390.884 94.1719C390.439 93.6937 389.821 93.4545 389.031 93.4545C388.481 93.4545 387.989 93.5705 387.553 93.8026C387.123 94.0346 386.782 94.3731 386.531 94.8182C386.285 95.2633 386.161 95.803 386.161 96.4375ZM400.876 103.227C399.824 103.227 398.918 102.995 398.155 102.531C397.398 102.062 396.813 101.409 396.401 100.571C395.994 99.7282 395.79 98.7481 395.79 97.6307C395.79 96.5133 395.994 95.5284 396.401 94.6761C396.813 93.8191 397.386 93.1515 398.12 92.6733C398.858 92.1903 399.72 91.9489 400.705 91.9489C401.273 91.9489 401.834 92.0436 402.388 92.233C402.942 92.4223 403.447 92.7301 403.901 93.1562C404.356 93.5777 404.718 94.1364 404.988 94.8324C405.258 95.5284 405.393 96.3854 405.393 97.4034V98.1136H396.983V96.6648H403.688C403.688 96.0492 403.565 95.5 403.319 95.017C403.077 94.5341 402.732 94.1529 402.282 93.8736C401.837 93.5942 401.311 93.4545 400.705 93.4545C400.037 93.4545 399.46 93.6203 398.972 93.9517C398.489 94.2784 398.117 94.7045 397.857 95.2301C397.597 95.7557 397.466 96.3191 397.466 96.9205V97.8864C397.466 98.7102 397.608 99.4086 397.893 99.9815C398.181 100.55 398.581 100.983 399.093 101.281C399.604 101.575 400.198 101.722 400.876 101.722C401.316 101.722 401.714 101.66 402.069 101.537C402.429 101.409 402.739 101.22 402.999 100.969C403.26 100.713 403.461 100.396 403.603 100.017L405.222 100.472C405.052 101.021 404.765 101.504 404.363 101.92C403.96 102.332 403.463 102.654 402.871 102.886C402.279 103.114 401.614 103.227 400.876 103.227ZM407.942 103V92.0909H409.562V93.7386H409.675C409.874 93.1989 410.234 92.7609 410.755 92.4247C411.276 92.0885 411.863 91.9205 412.516 91.9205C412.639 91.9205 412.793 91.9228 412.978 91.9276C413.162 91.9323 413.302 91.9394 413.397 91.9489V93.6534C413.34 93.6392 413.21 93.6179 413.006 93.5895C412.807 93.5563 412.597 93.5398 412.374 93.5398C411.844 93.5398 411.37 93.651 410.954 93.8736C410.542 94.0914 410.215 94.3944 409.974 94.7827C409.737 95.1662 409.618 95.6042 409.618 96.0966V103H407.942ZM419.626 103.227C418.574 103.227 417.668 102.995 416.905 102.531C416.148 102.062 415.563 101.409 415.151 100.571C414.744 99.7282 414.54 98.7481 414.54 97.6307C414.54 96.5133 414.744 95.5284 415.151 94.6761C415.563 93.8191 416.136 93.1515 416.87 92.6733C417.608 92.1903 418.47 91.9489 419.455 91.9489C420.023 91.9489 420.584 92.0436 421.138 92.233C421.692 92.4223 422.197 92.7301 422.651 93.1562C423.106 93.5777 423.468 94.1364 423.738 94.8324C424.008 95.5284 424.143 96.3854 424.143 97.4034V98.1136H415.733V96.6648H422.438C422.438 96.0492 422.315 95.5 422.069 95.017C421.827 94.5341 421.482 94.1529 421.032 93.8736C420.587 93.5942 420.061 93.4545 419.455 93.4545C418.787 93.4545 418.21 93.6203 417.722 93.9517C417.239 94.2784 416.867 94.7045 416.607 95.2301C416.347 95.7557 416.216 96.3191 416.216 96.9205V97.8864C416.216 98.7102 416.358 99.4086 416.643 99.9815C416.931 100.55 417.331 100.983 417.843 101.281C418.354 101.575 418.948 101.722 419.626 101.722C420.066 101.722 420.464 101.66 420.819 101.537C421.179 101.409 421.489 101.22 421.749 100.969C422.01 100.713 422.211 100.396 422.353 100.017L423.972 100.472C423.802 101.021 423.515 101.504 423.113 101.92C422.71 102.332 422.213 102.654 421.621 102.886C421.029 103.114 420.364 103.227 419.626 103.227ZM427.914 103.114C427.564 103.114 427.263 102.988 427.012 102.737C426.761 102.486 426.635 102.186 426.635 101.835C426.635 101.485 426.761 101.184 427.012 100.933C427.263 100.682 427.564 100.557 427.914 100.557C428.264 100.557 428.565 100.682 428.816 100.933C429.067 101.184 429.192 101.485 429.192 101.835C429.192 102.067 429.133 102.28 429.015 102.474C428.901 102.669 428.747 102.825 428.553 102.943C428.364 103.057 428.151 103.114 427.914 103.114ZM433.422 103.114C433.071 103.114 432.771 102.988 432.52 102.737C432.269 102.486 432.143 102.186 432.143 101.835C432.143 101.485 432.269 101.184 432.52 100.933C432.771 100.682 433.071 100.557 433.422 100.557C433.772 100.557 434.073 100.682 434.324 100.933C434.575 101.184 434.7 101.485 434.7 101.835C434.7 102.067 434.641 102.28 434.523 102.474C434.409 102.669 434.255 102.825 434.061 102.943C433.872 103.057 433.658 103.114 433.422 103.114ZM438.93 103.114C438.579 103.114 438.278 102.988 438.028 102.737C437.777 102.486 437.651 102.186 437.651 101.835C437.651 101.485 437.777 101.184 438.028 100.933C438.278 100.682 438.579 100.557 438.93 100.557C439.28 100.557 439.581 100.682 439.831 100.933C440.082 101.184 440.208 101.485 440.208 101.835C440.208 102.067 440.149 102.28 440.03 102.474C439.917 102.669 439.763 102.825 439.569 102.943C439.379 103.057 439.166 103.114 438.93 103.114Z" fill="#757575"/>
</svg>
