<svg width="202" height="181" viewBox="0 0 202 181" fill="none" xmlns="http://www.w3.org/2000/svg">
<path fill-rule="evenodd" clip-rule="evenodd" d="M127.101 131.384C99.3791 151.086 65.7511 148.131 40.6526 132.921C15.1335 117.456 -2.60454 90.3411 8.54976 59.5407C20.2705 27.1761 53.8929 5.60064 88.2556 1.47493C124.809 -2.91381 161.865 8.05602 171.413 39.9868C181.017 72.1077 158.795 108.858 127.101 131.384Z" fill="#FCF7FF"/>
<rect x="36" y="21" width="128.916" height="128.916" rx="64.4582" fill="#EDE6FA"/>
<path d="M113.102 86.7435V113.906C113.102 117.746 110.091 120.86 106.314 120.86H76.9109C73.1259 120.86 70.1152 117.746 70.1152 113.906V72.1832C70.126 70.3423 70.8621 68.5799 72.1639 67.2781C73.4656 65.9764 75.2281 65.2403 77.069 65.2295H91.9437C92.4586 65.2303 92.9681 65.3335 93.4427 65.5332C93.9172 65.7329 94.3473 66.0251 94.7078 66.3927L111.958 83.9351C112.692 84.6856 113.103 85.6937 113.102 86.7435V86.7435Z" stroke="#7E5BC6" stroke-width="5.05728" stroke-linejoin="round"/>
<path d="M91.6094 65.2295V82.2978C91.6233 83.4671 92.094 84.5845 92.9209 85.4114C93.7477 86.2383 94.8652 86.709 96.0345 86.7229H113.103" stroke="#7E5BC6" stroke-width="5.05728" stroke-linecap="round" stroke-linejoin="round"/>
<path d="M87.8125 65.2294V57.0114C87.8233 55.1704 88.5594 53.408 89.8611 52.1062C91.1629 50.8045 92.9253 50.0684 94.7663 50.0576H109.622C110.14 50.0583 110.652 50.1615 111.13 50.3611C111.607 50.5607 112.041 50.8529 112.405 51.2208L129.655 68.7632C130.389 69.5057 130.8 70.5074 130.799 71.551V98.7339C130.799 102.574 127.789 105.688 124.012 105.688H114.363" stroke="#7E5BC6" stroke-width="5.05728" stroke-linejoin="round"/>
<path d="M109.309 50.0576V67.1259C109.323 68.2952 109.793 69.4127 110.62 70.2395C111.447 71.0664 112.564 71.5371 113.734 71.551H130.802" stroke="#7E5BC6" stroke-width="5.05728" stroke-linecap="round" stroke-linejoin="round"/>
<rect x="108" y="105" width="71.5094" height="76" rx="35.7547" fill="#EED2FF"/>
<path d="M127.588 129.309L143.762 124.589L159.92 129.309V138.989C159.92 143.95 158.359 148.785 155.458 152.81C152.557 156.834 148.463 159.843 143.757 161.411C139.049 159.843 134.954 156.834 132.052 152.808C129.15 148.783 127.588 143.947 127.588 138.985V129.309Z" stroke="#7E5BC6" stroke-width="3.59245" stroke-linejoin="round"/>
<path d="M135.67 141.653L141.957 147.939L152.734 137.162" stroke="#7E5BC6" stroke-width="3.59245" stroke-linecap="round" stroke-linejoin="round"/>
</svg>
