<svg width="235" height="206" viewBox="0 0 235 206" fill="none" xmlns="http://www.w3.org/2000/svg">
<path fill-rule="evenodd" clip-rule="evenodd" d="M149.713 159.195C113.681 185.072 72.258 184.407 42.4483 168.388C12.1391 152.101 -7.53572 121.245 8.90897 83.5321C26.1888 43.9037 69.6927 15.2893 112.629 7.44031C158.303 -0.90912 203.291 9.03095 212.406 46.3314C221.576 83.854 190.908 129.611 149.713 159.195Z" fill="#FCF7FF"/>
<rect x="47.7559" y="49.438" width="109.556" height="109.556" rx="54.7782" fill="#EDE6FA"/>
<path d="M88.233 128.057C86.9218 128.057 85.7997 127.591 84.8667 126.658C83.9321 125.723 83.4648 124.6 83.4648 123.289V99.4479C83.4648 98.1366 83.9321 97.0137 84.8667 96.0791C85.7997 95.1462 86.9218 94.6797 88.233 94.6797H90.6171V89.9115C90.6171 86.6135 91.7798 83.8018 94.1051 81.4765C96.4288 79.1528 99.2396 77.991 102.538 77.991C105.836 77.991 108.647 79.1528 110.973 81.4765C113.296 83.8018 114.458 86.6135 114.458 89.9115V94.6797H116.842C118.153 94.6797 119.276 95.1462 120.211 96.0791C121.144 97.0137 121.61 98.1366 121.61 99.4479V123.289C121.61 124.6 121.144 125.723 120.211 126.658C119.276 127.591 118.153 128.057 116.842 128.057H88.233ZM88.233 123.289H116.842V99.4479H88.233V123.289ZM102.538 116.137C103.849 116.137 104.972 115.67 105.906 114.737C106.839 113.803 107.306 112.68 107.306 111.368C107.306 110.057 106.839 108.934 105.906 108C104.972 107.067 103.849 106.6 102.538 106.6C101.226 106.6 100.104 107.067 99.1713 108C98.2367 108.934 97.7694 110.057 97.7694 111.368C97.7694 112.68 98.2367 113.803 99.1713 114.737C100.104 115.67 101.226 116.137 102.538 116.137ZM95.3853 94.6797H109.69V89.9115C109.69 87.9247 108.995 86.236 107.604 84.8453C106.213 83.4545 104.524 82.7592 102.538 82.7592C100.551 82.7592 98.8622 83.4545 97.4714 84.8453C96.0807 86.236 95.3853 87.9247 95.3853 89.9115V94.6797ZM88.233 123.289V99.4479V123.289Z" fill="#7E5BC6"/>
<rect x="121.459" y="114.508" width="90.9651" height="90.9651" rx="45.4825" fill="#DED2FF"/>
<path d="M166.937 182.783C163.822 182.783 160.878 182.185 158.105 180.987C155.332 179.791 152.911 178.158 150.841 176.087C148.77 174.017 147.136 171.596 145.941 168.823C144.743 166.05 144.145 163.106 144.145 159.991C144.145 156.838 144.743 153.885 145.941 151.131C147.136 148.376 148.77 145.964 150.841 143.895C152.911 141.824 155.332 140.189 158.105 138.992C160.878 137.796 163.822 137.198 166.937 137.198C168.153 137.198 169.321 137.283 170.443 137.453C171.562 137.625 172.673 137.882 173.775 138.224V144.036C173.775 145.29 173.329 146.362 172.437 147.254C171.543 148.148 170.47 148.594 169.216 148.594H164.658V153.153C164.658 153.799 164.44 154.34 164.004 154.776C163.566 155.213 163.024 155.432 162.379 155.432H157.82V159.991H171.496C172.141 159.991 172.683 160.209 173.121 160.645C173.557 161.083 173.775 161.624 173.775 162.27V169.108H176.054C177.08 169.108 177.982 169.412 178.762 170.02C179.54 170.627 180.081 171.387 180.385 172.299C181.866 170.627 183.035 168.757 183.89 166.687C184.744 164.616 185.171 162.384 185.171 159.991C185.171 159.573 185.152 159.193 185.114 158.851C185.076 158.509 185.019 158.129 184.943 157.712H189.616C189.692 158.129 189.73 158.509 189.73 158.851V159.991C189.73 163.106 189.131 166.05 187.934 168.823C186.738 171.596 185.104 174.017 183.033 176.087C180.964 178.158 178.551 179.791 175.797 180.987C173.043 182.185 170.09 182.783 166.937 182.783ZM164.658 178.111V173.666C163.404 173.666 162.331 173.22 161.44 172.328C160.546 171.435 160.099 170.361 160.099 169.108V166.829L149.159 155.888C149.045 156.572 148.94 157.256 148.844 157.939C148.75 158.623 148.703 159.307 148.703 159.991C148.703 164.701 150.232 168.756 153.291 172.155C156.348 175.556 160.137 177.541 164.658 178.111ZM180.613 153.153C179.967 153.153 179.426 152.934 178.99 152.497C178.552 152.06 178.333 151.52 178.333 150.874V144.036C178.333 143.39 178.552 142.848 178.99 142.411C179.426 141.975 179.967 141.757 180.613 141.757V139.477C180.613 138.224 181.059 137.15 181.951 136.257C182.844 135.365 183.918 134.919 185.171 134.919C186.425 134.919 187.498 135.365 188.392 136.257C189.284 137.15 189.73 138.224 189.73 139.477V141.757C190.375 141.757 190.916 141.975 191.353 142.411C191.79 142.848 192.009 143.39 192.009 144.036V150.874C192.009 151.52 191.79 152.06 191.353 152.497C190.916 152.934 190.375 153.153 189.73 153.153H180.613ZM182.892 141.757H187.45V139.477C187.45 138.832 187.232 138.29 186.794 137.852C186.358 137.416 185.817 137.198 185.171 137.198C184.525 137.198 183.984 137.416 183.548 137.852C183.111 138.29 182.892 138.832 182.892 139.477V141.757Z" fill="#7E5BC6"/>
<rect x="132.082" y="18.8953" width="80.3414" height="85.3866" rx="40.1707" fill="#EED2FF"/>
<path d="M154.09 46.2068L172.262 40.9033L190.415 46.2068V57.0822C190.415 62.6558 188.661 68.0881 185.402 72.6094C182.143 77.1307 177.543 80.5119 172.256 82.2738C166.966 80.5121 162.365 77.1305 159.105 72.6082C155.844 68.0859 154.09 62.6522 154.09 57.0772V46.2068Z" stroke="#7E5BC6" stroke-width="4.03614" stroke-linejoin="round"/>
<path d="M163.17 60.0747L170.233 67.138L182.342 55.0295" stroke="#7E5BC6" stroke-width="4.03614" stroke-linecap="round" stroke-linejoin="round"/>
</svg>
