<svg width="281" height="221" viewBox="0 0 281 221" fill="none" xmlns="http://www.w3.org/2000/svg">
<ellipse cx="167.524" cy="110.68" rx="110" ry="110" fill="#F1D9FF"/>
<rect x="69" y="135" width="199.875" height="39.6803" rx="4.55112" fill="black"/>
<path d="M146.113 159.344V149.642H149.751C150.497 149.642 151.122 149.781 151.627 150.059C152.136 150.337 152.519 150.719 152.778 151.205C153.04 151.688 153.171 152.238 153.171 152.854C153.171 153.476 153.04 154.029 152.778 154.512C152.516 154.995 152.129 155.376 151.618 155.653C151.106 155.928 150.476 156.066 149.727 156.066H147.316V154.621H149.491C149.926 154.621 150.283 154.545 150.561 154.393C150.839 154.242 151.044 154.033 151.177 153.768C151.313 153.503 151.381 153.198 151.381 152.854C151.381 152.51 151.313 152.206 151.177 151.944C151.044 151.682 150.838 151.478 150.557 151.333C150.279 151.185 149.92 151.11 149.481 151.11H147.871V159.344H146.113ZM159.26 156.284V152.067H160.975V159.344H159.312V158.05H159.236C159.072 158.458 158.802 158.791 158.426 159.05C158.054 159.309 157.594 159.438 157.048 159.438C156.571 159.438 156.149 159.333 155.783 159.121C155.42 158.906 155.135 158.595 154.93 158.188C154.725 157.777 154.622 157.281 154.622 156.7V152.067H156.337V156.435C156.337 156.896 156.463 157.263 156.716 157.534C156.969 157.806 157.3 157.942 157.711 157.942C157.964 157.942 158.208 157.88 158.445 157.757C158.682 157.634 158.876 157.45 159.028 157.207C159.183 156.961 159.26 156.653 159.26 156.284ZM162.814 159.344V149.642H164.529V153.271H164.6C164.688 153.094 164.813 152.906 164.974 152.707C165.135 152.505 165.353 152.333 165.628 152.191C165.903 152.045 166.253 151.973 166.68 151.973C167.242 151.973 167.749 152.116 168.2 152.404C168.655 152.688 169.015 153.11 169.28 153.669C169.549 154.224 169.683 154.907 169.683 155.715C169.683 156.514 169.552 157.193 169.29 157.752C169.028 158.311 168.671 158.737 168.219 159.031C167.768 159.325 167.256 159.472 166.684 159.472C166.267 159.472 165.922 159.402 165.647 159.263C165.372 159.124 165.151 158.957 164.984 158.761C164.819 158.562 164.692 158.374 164.6 158.197H164.501V159.344H162.814ZM164.496 155.706C164.496 156.176 164.562 156.588 164.695 156.942C164.831 157.296 165.025 157.572 165.277 157.771C165.533 157.967 165.843 158.065 166.206 158.065C166.585 158.065 166.902 157.964 167.158 157.762C167.414 157.556 167.607 157.277 167.736 156.923C167.869 156.566 167.935 156.16 167.935 155.706C167.935 155.254 167.87 154.853 167.741 154.502C167.611 154.152 167.419 153.877 167.163 153.678C166.907 153.479 166.588 153.38 166.206 153.38C165.84 153.38 165.528 153.476 165.273 153.669C165.017 153.861 164.823 154.131 164.69 154.479C164.561 154.826 164.496 155.235 164.496 155.706ZM172.856 149.642V159.344H171.141V149.642H172.856ZM174.619 159.344V152.067H176.334V159.344H174.619ZM175.481 151.035C175.21 151.035 174.976 150.945 174.78 150.765C174.584 150.581 174.487 150.362 174.487 150.106C174.487 149.847 174.584 149.628 174.78 149.448C174.976 149.265 175.21 149.173 175.481 149.173C175.756 149.173 175.99 149.265 176.182 149.448C176.378 149.628 176.476 149.847 176.476 150.106C176.476 150.362 176.378 150.581 176.182 150.765C175.99 150.945 175.756 151.035 175.481 151.035ZM183.848 153.991L182.285 154.161C182.241 154.003 182.164 153.855 182.053 153.716C181.946 153.577 181.8 153.465 181.617 153.38C181.434 153.294 181.21 153.252 180.945 153.252C180.588 153.252 180.288 153.329 180.044 153.484C179.804 153.639 179.686 153.839 179.689 154.085C179.686 154.297 179.763 154.469 179.921 154.602C180.082 154.734 180.348 154.843 180.717 154.929L181.958 155.194C182.647 155.342 183.158 155.578 183.493 155.9C183.831 156.222 184.002 156.644 184.005 157.165C184.002 157.623 183.867 158.027 183.602 158.377C183.34 158.725 182.975 158.996 182.508 159.192C182.04 159.388 181.504 159.486 180.897 159.486C180.007 159.486 179.29 159.3 178.746 158.927C178.203 158.551 177.88 158.028 177.775 157.359L179.448 157.198C179.523 157.526 179.684 157.774 179.931 157.942C180.177 158.109 180.498 158.193 180.892 158.193C181.3 158.193 181.627 158.109 181.873 157.942C182.123 157.774 182.247 157.567 182.247 157.321C182.247 157.113 182.167 156.94 182.006 156.805C181.848 156.669 181.601 156.565 181.267 156.492L180.026 156.231C179.328 156.086 178.811 155.841 178.476 155.497C178.142 155.15 177.976 154.711 177.979 154.18C177.976 153.732 178.097 153.343 178.344 153.015C178.593 152.683 178.939 152.427 179.381 152.247C179.827 152.064 180.34 151.973 180.921 151.973C181.774 151.973 182.445 152.154 182.934 152.517C183.427 152.881 183.732 153.372 183.848 153.991ZM187.134 155.08V159.344H185.419V149.642H187.096V153.304H187.181C187.352 152.893 187.615 152.57 187.972 152.333C188.332 152.093 188.79 151.973 189.346 151.973C189.851 151.973 190.292 152.078 190.668 152.29C191.044 152.502 191.334 152.811 191.539 153.219C191.748 153.626 191.852 154.123 191.852 154.711V159.344H190.137V154.976C190.137 154.487 190.011 154.106 189.758 153.834C189.509 153.56 189.158 153.422 188.706 153.422C188.403 153.422 188.132 153.489 187.892 153.621C187.655 153.751 187.469 153.939 187.333 154.185C187.2 154.431 187.134 154.73 187.134 155.08Z" fill="white"/>
<g filter="url(#filter0_d_9473_9095)">
<rect x="13" y="51" width="256" height="67.2446" rx="3.87878" fill="white" shape-rendering="crispEdges"/>
<rect x="29.2784" y="67.2745" width="223.445" height="30.7437" rx="1.47977" stroke="#262626" stroke-width="0.986511"/>
<path d="M39.8055 86.6484V78.8509H42.4402C43.0519 78.8509 43.5519 78.9614 43.9403 79.1822C44.3312 79.4005 44.6205 79.6962 44.8084 80.0693C44.9962 80.4424 45.0901 80.8587 45.0901 81.3181C45.0901 81.7775 44.9962 82.1951 44.8084 82.5707C44.6231 82.9464 44.3363 83.2459 43.9479 83.4693C43.5596 83.6901 43.0621 83.8005 42.4554 83.8005H40.567V82.9629H42.425C42.8438 82.9629 43.1801 82.8906 43.4339 82.7459C43.6877 82.6012 43.8718 82.4058 43.986 82.1596C44.1027 81.9108 44.1611 81.6303 44.1611 81.3181C44.1611 81.0059 44.1027 80.7267 43.986 80.4805C43.8718 80.2343 43.6865 80.0414 43.4301 79.9018C43.1737 79.7596 42.8336 79.6886 42.4097 79.6886H40.7497V86.6484H39.8055ZM48.2103 86.7855C47.8397 86.7855 47.5033 86.7157 47.2013 86.5761C46.8992 86.434 46.6594 86.2296 46.4817 85.9631C46.304 85.6941 46.2152 85.3692 46.2152 84.9884C46.2152 84.6534 46.2812 84.3818 46.4132 84.1736C46.5452 83.963 46.7216 83.798 46.9424 83.6787C47.1632 83.5594 47.4069 83.4706 47.6734 83.4122C47.9425 83.3513 48.2128 83.303 48.4844 83.2675C48.8397 83.2218 49.1278 83.1875 49.3487 83.1647C49.572 83.1393 49.7345 83.0974 49.836 83.0391C49.9401 82.9807 49.9921 82.8791 49.9921 82.7345V82.704C49.9921 82.3283 49.8893 82.0364 49.6837 81.8283C49.4806 81.6202 49.1722 81.5161 48.7585 81.5161C48.3295 81.5161 47.9932 81.61 47.7496 81.7979C47.5059 81.9857 47.3346 82.1862 47.2356 82.3994L46.3827 82.0948C46.535 81.7395 46.7381 81.4628 46.9919 81.2648C47.2483 81.0643 47.5275 80.9247 47.8295 80.846C48.1341 80.7648 48.4336 80.7242 48.7281 80.7242C48.9159 80.7242 49.1316 80.747 49.3753 80.7927C49.6215 80.8359 49.8588 80.926 50.0873 81.063C50.3183 81.2001 50.5099 81.407 50.6622 81.6836C50.8145 81.9603 50.8906 82.3309 50.8906 82.7954V86.6484H49.9921V85.8565H49.9464C49.8855 85.9834 49.784 86.1192 49.6418 86.2639C49.4997 86.4086 49.3106 86.5317 49.0745 86.6332C48.8385 86.7347 48.5504 86.7855 48.2103 86.7855ZM48.3473 85.9783C48.7027 85.9783 49.0022 85.9085 49.2459 85.7689C49.4921 85.6293 49.6774 85.4491 49.8017 85.2283C49.9286 85.0075 49.9921 84.7752 49.9921 84.5315V83.7091C49.954 83.7548 49.8703 83.7967 49.7408 83.8348C49.6139 83.8703 49.4667 83.9021 49.2992 83.93C49.1342 83.9554 48.973 83.9782 48.8156 83.9985C48.6608 84.0163 48.5351 84.0315 48.4387 84.0442C48.2052 84.0747 47.9869 84.1242 47.7838 84.1927C47.5833 84.2587 47.4209 84.3589 47.2965 84.4935C47.1746 84.6255 47.1137 84.8057 47.1137 85.0341C47.1137 85.3463 47.2292 85.5824 47.4602 85.7423C47.6937 85.8997 47.9894 85.9783 48.3473 85.9783ZM56.6731 82.1101L55.8659 82.3385C55.8151 82.204 55.7403 82.0733 55.6413 81.9463C55.5448 81.8169 55.4128 81.7103 55.2453 81.6265C55.0778 81.5428 54.8633 81.5009 54.6019 81.5009C54.244 81.5009 53.9457 81.5834 53.7071 81.7484C53.4711 81.9108 53.3531 82.1177 53.3531 82.369C53.3531 82.5923 53.4343 82.7687 53.5967 82.8982C53.7592 83.0276 54.013 83.1355 54.3582 83.2218L55.2263 83.435C55.7492 83.5619 56.1388 83.7561 56.3951 84.0175C56.6515 84.2764 56.7797 84.6102 56.7797 85.0189C56.7797 85.3539 56.6832 85.6534 56.4903 85.9174C56.3 86.1814 56.0334 86.3895 55.6908 86.5418C55.3481 86.6941 54.9496 86.7703 54.4953 86.7703C53.8988 86.7703 53.4051 86.6408 53.0142 86.3819C52.6233 86.123 52.3758 85.7448 52.2718 85.2473L53.1246 85.0341C53.2058 85.3489 53.3594 85.5849 53.5853 85.7423C53.8137 85.8997 54.112 85.9783 54.48 85.9783C54.8988 85.9783 55.2314 85.8895 55.4776 85.7118C55.7263 85.5316 55.8507 85.3159 55.8507 85.0646C55.8507 84.8615 55.7796 84.6915 55.6375 84.5544C55.4953 84.4148 55.277 84.3107 54.9826 84.2422L54.0079 84.0137C53.4723 83.8868 53.0789 83.6901 52.8276 83.4236C52.5789 83.1545 52.4545 82.8182 52.4545 82.4146C52.4545 82.0847 52.5472 81.7928 52.7325 81.539C52.9203 81.2851 53.1754 81.0859 53.4977 80.9412C53.8226 80.7965 54.1907 80.7242 54.6019 80.7242C55.1806 80.7242 55.6349 80.8511 55.9649 81.1049C56.2974 81.3587 56.5335 81.6938 56.6731 82.1101ZM60.6756 80.8003V81.5618H57.6449V80.8003H60.6756ZM58.5282 79.3992H59.4268V84.9732C59.4268 85.227 59.4636 85.4174 59.5372 85.5443C59.6133 85.6687 59.7098 85.7524 59.8265 85.7956C59.9458 85.8362 60.0715 85.8565 60.2035 85.8565C60.3025 85.8565 60.3837 85.8514 60.4471 85.8413C60.5106 85.8286 60.5614 85.8184 60.5994 85.8108L60.7822 86.618C60.7213 86.6408 60.6362 86.6637 60.5271 86.6865C60.4179 86.7119 60.2796 86.7246 60.1121 86.7246C59.8583 86.7246 59.6095 86.67 59.3658 86.5609C59.1247 86.4517 58.9242 86.2855 58.7643 86.0621C58.6069 85.8387 58.5282 85.557 58.5282 85.2169V79.3992ZM64.4163 86.7703C63.8528 86.7703 63.3667 86.6459 62.9581 86.3972C62.552 86.1459 62.2385 85.7956 62.0177 85.3463C61.7994 84.8945 61.6902 84.3691 61.6902 83.7701C61.6902 83.171 61.7994 82.6431 62.0177 82.1862C62.2385 81.7268 62.5456 81.3689 62.9391 81.1125C63.335 80.8536 63.797 80.7242 64.3249 80.7242C64.6295 80.7242 64.9303 80.7749 65.2273 80.8765C65.5243 80.978 65.7946 81.143 66.0383 81.3714C66.2819 81.5973 66.4761 81.8968 66.6208 82.27C66.7655 82.6431 66.8378 83.1025 66.8378 83.6482V84.029H62.3299V83.2523H65.924C65.924 82.9223 65.858 82.6279 65.726 82.369C65.5966 82.1101 65.4113 81.9057 65.1702 81.756C64.9316 81.6062 64.6498 81.5313 64.3249 81.5313C63.967 81.5313 63.6574 81.6202 63.3959 81.7979C63.137 81.973 62.9378 82.2014 62.7982 82.4832C62.6586 82.7649 62.5888 83.067 62.5888 83.3893V83.9071C62.5888 84.3488 62.6649 84.7232 62.8172 85.0303C62.9721 85.3349 63.1865 85.5671 63.4607 85.7271C63.7348 85.8844 64.0533 85.9631 64.4163 85.9631C64.6524 85.9631 64.8656 85.9301 65.0559 85.8641C65.2489 85.7956 65.4151 85.6941 65.5547 85.5595C65.6943 85.4225 65.8022 85.2524 65.8783 85.0493L66.7464 85.293C66.655 85.5875 66.5015 85.8464 66.2857 86.0697C66.07 86.2905 65.8035 86.4631 65.4862 86.5875C65.1689 86.7094 64.8123 86.7703 64.4163 86.7703ZM68.2046 86.6484V80.8003H69.0727V81.6836H69.1336C69.2402 81.3943 69.4332 81.1595 69.7124 80.9793C69.9916 80.7991 70.3063 80.7089 70.6566 80.7089C70.7226 80.7089 70.8051 80.7102 70.9041 80.7128C71.0031 80.7153 71.0779 80.7191 71.1287 80.7242V81.6379C71.0982 81.6303 71.0284 81.6189 70.9193 81.6037C70.8127 81.5859 70.6997 81.577 70.5804 81.577C70.2962 81.577 70.0423 81.6367 69.819 81.756C69.5981 81.8727 69.423 82.0352 69.2935 82.2433C69.1666 82.4489 69.1032 82.6837 69.1032 82.9477V86.6484H68.2046ZM80.4482 78.8509H81.3924V84.0137C81.3924 84.5468 81.2668 85.0227 81.0155 85.4415C80.7667 85.8578 80.4152 86.1865 79.9608 86.4276C79.5065 86.6662 78.9735 86.7855 78.3617 86.7855C77.75 86.7855 77.217 86.6662 76.7627 86.4276C76.3083 86.1865 75.9555 85.8578 75.7042 85.4415C75.4555 85.0227 75.3311 84.5468 75.3311 84.0137V78.8509H76.2753V83.9376C76.2753 84.3183 76.3591 84.6572 76.5266 84.9542C76.6941 85.2486 76.9327 85.4808 77.2424 85.6509C77.5546 85.8184 77.9277 85.9022 78.3617 85.9022C78.7958 85.9022 79.1689 85.8184 79.4811 85.6509C79.7933 85.4808 80.0319 85.2486 80.1969 84.9542C80.3644 84.6572 80.4482 84.3183 80.4482 83.9376V78.8509ZM83.278 86.6484V78.8509H85.9127C86.5219 78.8509 87.0219 78.955 87.4128 79.1632C87.8037 79.3688 88.0931 79.6518 88.2809 80.0122C88.4687 80.3726 88.5626 80.7826 88.5626 81.242C88.5626 81.7014 88.4687 82.1088 88.2809 82.4641C88.0931 82.8195 87.805 83.0987 87.4166 83.3018C87.0283 83.5023 86.532 83.6025 85.9279 83.6025H83.7958V82.7497H85.8975C86.3138 82.7497 86.6488 82.6888 86.9026 82.5669C87.159 82.4451 87.3443 82.2725 87.4585 82.0491C87.5753 81.8232 87.6336 81.5542 87.6336 81.242C87.6336 80.9298 87.5753 80.6569 87.4585 80.4234C87.3417 80.1899 87.1552 80.0097 86.8988 79.8827C86.6425 79.7533 86.3036 79.6886 85.8822 79.6886H84.2222V86.6484H83.278ZM86.9483 83.1457L88.8672 86.6484H87.7707L85.8822 83.1457H86.9483ZM90.136 86.6484V78.8509H91.0803V85.8108H94.7049V86.6484H90.136ZM99.6392 88.8415C99.4869 88.8415 99.3511 88.8288 99.2318 88.8034C99.1125 88.7806 99.03 88.7577 98.9844 88.7349L99.2128 87.9429C99.4311 87.9988 99.624 88.0191 99.7915 88.0039C99.959 87.9886 100.108 87.9138 100.237 87.7792C100.369 87.6472 100.49 87.4328 100.599 87.1358L100.766 86.6789L98.6036 80.8003H99.5783L101.193 85.4605H101.254L102.868 80.8003H103.843L101.36 87.5013C101.248 87.8033 101.11 88.0534 100.945 88.2513C100.78 88.4519 100.589 88.6003 100.37 88.6968C100.154 88.7933 99.9108 88.8415 99.6392 88.8415ZM107.195 86.7703C106.667 86.7703 106.204 86.6446 105.805 86.3933C105.409 86.1421 105.1 85.7905 104.876 85.3387C104.655 84.8869 104.545 84.3589 104.545 83.7548C104.545 83.1457 104.655 82.6139 104.876 82.1596C105.1 81.7052 105.409 81.3524 105.805 81.1011C106.204 80.8498 106.667 80.7242 107.195 80.7242C107.723 80.7242 108.185 80.8498 108.581 81.1011C108.979 81.3524 109.289 81.7052 109.51 82.1596C109.733 82.6139 109.845 83.1457 109.845 83.7548C109.845 84.3589 109.733 84.8869 109.51 85.3387C109.289 85.7905 108.979 86.1421 108.581 86.3933C108.185 86.6446 107.723 86.7703 107.195 86.7703ZM107.195 85.9631C107.596 85.9631 107.926 85.8603 108.185 85.6547C108.444 85.4491 108.635 85.1788 108.76 84.8437C108.884 84.5087 108.946 84.1457 108.946 83.7548C108.946 83.3639 108.884 82.9997 108.76 82.6621C108.635 82.3245 108.444 82.0517 108.185 81.8435C107.926 81.6354 107.596 81.5313 107.195 81.5313C106.794 81.5313 106.464 81.6354 106.205 81.8435C105.946 82.0517 105.754 82.3245 105.63 82.6621C105.506 82.9997 105.444 83.3639 105.444 83.7548C105.444 84.1457 105.506 84.5087 105.63 84.8437C105.754 85.1788 105.946 85.4491 106.205 85.6547C106.464 85.8603 106.794 85.9631 107.195 85.9631ZM114.902 84.2574V80.8003H115.801V86.6484H114.902V85.6585H114.841C114.704 85.9555 114.491 86.2081 114.201 86.4162C113.912 86.6218 113.547 86.7246 113.105 86.7246C112.739 86.7246 112.415 86.6446 112.13 86.4847C111.846 86.3223 111.623 86.0786 111.46 85.7537C111.298 85.4263 111.216 85.0138 111.216 84.5163V80.8003H112.115V84.4554C112.115 84.8818 112.234 85.2219 112.473 85.4758C112.714 85.7296 113.021 85.8565 113.394 85.8565C113.618 85.8565 113.845 85.7994 114.076 85.6852C114.309 85.571 114.505 85.3958 114.662 85.1598C114.822 84.9237 114.902 84.6229 114.902 84.2574ZM121.787 86.6484L120.005 80.8003H120.949L122.213 85.2778H122.274L123.523 80.8003H124.482L125.716 85.2626H125.777L127.041 80.8003H127.985L126.203 86.6484H125.32L124.041 82.1557H123.949L122.67 86.6484H121.787ZM130.894 86.7855C130.523 86.7855 130.187 86.7157 129.885 86.5761C129.583 86.434 129.343 86.2296 129.165 85.9631C128.988 85.6941 128.899 85.3692 128.899 84.9884C128.899 84.6534 128.965 84.3818 129.097 84.1736C129.229 83.963 129.405 83.798 129.626 83.6787C129.847 83.5594 130.091 83.4706 130.357 83.4122C130.626 83.3513 130.896 83.303 131.168 83.2675C131.523 83.2218 131.811 83.1875 132.032 83.1647C132.256 83.1393 132.418 83.0974 132.52 83.0391C132.624 82.9807 132.676 82.8791 132.676 82.7345V82.704C132.676 82.3283 132.573 82.0364 132.367 81.8283C132.164 81.6202 131.856 81.5161 131.442 81.5161C131.013 81.5161 130.677 81.61 130.433 81.7979C130.19 81.9857 130.018 82.1862 129.919 82.3994L129.066 82.0948C129.219 81.7395 129.422 81.4628 129.676 81.2648C129.932 81.0643 130.211 80.9247 130.513 80.846C130.818 80.7648 131.117 80.7242 131.412 80.7242C131.6 80.7242 131.815 80.747 132.059 80.7927C132.305 80.8359 132.542 80.926 132.771 81.063C133.002 81.2001 133.194 81.407 133.346 81.6836C133.498 81.9603 133.574 82.3309 133.574 82.7954V86.6484H132.676V85.8565H132.63C132.569 85.9834 132.468 86.1192 132.325 86.2639C132.183 86.4086 131.994 86.5317 131.758 86.6332C131.522 86.7347 131.234 86.7855 130.894 86.7855ZM131.031 85.9783C131.386 85.9783 131.686 85.9085 131.93 85.7689C132.176 85.6293 132.361 85.4491 132.485 85.2283C132.612 85.0075 132.676 84.7752 132.676 84.5315V83.7091C132.638 83.7548 132.554 83.7967 132.424 83.8348C132.298 83.8703 132.15 83.9021 131.983 83.93C131.818 83.9554 131.657 83.9782 131.499 83.9985C131.344 84.0163 131.219 84.0315 131.122 84.0442C130.889 84.0747 130.671 84.1242 130.467 84.1927C130.267 84.2587 130.105 84.3589 129.98 84.4935C129.858 84.6255 129.797 84.8057 129.797 85.0341C129.797 85.3463 129.913 85.5824 130.144 85.7423C130.377 85.8997 130.673 85.9783 131.031 85.9783ZM136.113 83.1304V86.6484H135.214V80.8003H136.082V81.7141H136.159C136.296 81.4171 136.504 81.1785 136.783 80.9983C137.062 80.8156 137.423 80.7242 137.864 80.7242C138.26 80.7242 138.607 80.8054 138.904 80.9678C139.201 81.1278 139.432 81.3714 139.597 81.6989C139.762 82.0238 139.844 82.435 139.844 82.9324V86.6484H138.946V82.9934C138.946 82.5339 138.826 82.176 138.588 81.9197C138.349 81.6608 138.022 81.5313 137.605 81.5313C137.319 81.5313 137.062 81.5935 136.836 81.7179C136.613 81.8423 136.436 82.0238 136.307 82.2623C136.178 82.5009 136.113 82.7903 136.113 83.1304ZM144.029 80.8003V81.5618H140.999V80.8003H144.029ZM141.882 79.3992H142.781V84.9732C142.781 85.227 142.817 85.4174 142.891 85.5443C142.967 85.6687 143.064 85.7524 143.18 85.7956C143.3 85.8362 143.425 85.8565 143.557 85.8565C143.656 85.8565 143.737 85.8514 143.801 85.8413C143.864 85.8286 143.915 85.8184 143.953 85.8108L144.136 86.618C144.075 86.6408 143.99 86.6637 143.881 86.6865C143.772 86.7119 143.633 86.7246 143.466 86.7246C143.212 86.7246 142.963 86.67 142.72 86.5609C142.478 86.4517 142.278 86.2855 142.118 86.0621C141.961 85.8387 141.882 85.557 141.882 85.2169V79.3992ZM150.94 80.8003V81.5618H147.909V80.8003H150.94ZM148.792 79.3992H149.691V84.9732C149.691 85.227 149.728 85.4174 149.801 85.5443C149.877 85.6687 149.974 85.7524 150.091 85.7956C150.21 85.8362 150.336 85.8565 150.468 85.8565C150.567 85.8565 150.648 85.8514 150.711 85.8413C150.775 85.8286 150.825 85.8184 150.864 85.8108L151.046 86.618C150.985 86.6408 150.9 86.6637 150.791 86.6865C150.682 86.7119 150.544 86.7246 150.376 86.7246C150.122 86.7246 149.874 86.67 149.63 86.5609C149.389 86.4517 149.188 86.2855 149.028 86.0621C148.871 85.8387 148.792 85.557 148.792 85.2169V79.3992ZM154.604 86.7703C154.076 86.7703 153.613 86.6446 153.215 86.3933C152.819 86.1421 152.509 85.7905 152.286 85.3387C152.065 84.8869 151.954 84.3589 151.954 83.7548C151.954 83.1457 152.065 82.6139 152.286 82.1596C152.509 81.7052 152.819 81.3524 153.215 81.1011C153.613 80.8498 154.076 80.7242 154.604 80.7242C155.132 80.7242 155.594 80.8498 155.99 81.1011C156.389 81.3524 156.698 81.7052 156.919 82.1596C157.143 82.6139 157.254 83.1457 157.254 83.7548C157.254 84.3589 157.143 84.8869 156.919 85.3387C156.698 85.7905 156.389 86.1421 155.99 86.3933C155.594 86.6446 155.132 86.7703 154.604 86.7703ZM154.604 85.9631C155.005 85.9631 155.335 85.8603 155.594 85.6547C155.853 85.4491 156.045 85.1788 156.169 84.8437C156.293 84.5087 156.356 84.1457 156.356 83.7548C156.356 83.3639 156.293 82.9997 156.169 82.6621C156.045 82.3245 155.853 82.0517 155.594 81.8435C155.335 81.6354 155.005 81.5313 154.604 81.5313C154.203 81.5313 153.873 81.6354 153.614 81.8435C153.355 82.0517 153.164 82.3245 153.039 82.6621C152.915 82.9997 152.853 83.3639 152.853 83.7548C152.853 84.1457 152.915 84.5087 153.039 84.8437C153.164 85.1788 153.355 85.4491 153.614 85.6547C153.873 85.8603 154.203 85.9631 154.604 85.9631ZM164.093 86.7703C163.53 86.7703 163.044 86.6459 162.635 86.3972C162.229 86.1459 161.915 85.7956 161.695 85.3463C161.476 84.8945 161.367 84.3691 161.367 83.7701C161.367 83.171 161.476 82.6431 161.695 82.1862C161.915 81.7268 162.223 81.3689 162.616 81.1125C163.012 80.8536 163.474 80.7242 164.002 80.7242C164.306 80.7242 164.607 80.7749 164.904 80.8765C165.201 80.978 165.471 81.143 165.715 81.3714C165.959 81.5973 166.153 81.8968 166.298 82.27C166.442 82.6431 166.515 83.1025 166.515 83.6482V84.029H162.007V83.2523H165.601C165.601 82.9223 165.535 82.6279 165.403 82.369C165.273 82.1101 165.088 81.9057 164.847 81.756C164.608 81.6062 164.327 81.5313 164.002 81.5313C163.644 81.5313 163.334 81.6202 163.073 81.7979C162.814 81.973 162.615 82.2014 162.475 82.4832C162.335 82.7649 162.266 83.067 162.266 83.3893V83.9071C162.266 84.3488 162.342 84.7232 162.494 85.0303C162.649 85.3349 162.863 85.5671 163.138 85.7271C163.412 85.8844 163.73 85.9631 164.093 85.9631C164.329 85.9631 164.542 85.9301 164.733 85.8641C164.926 85.7956 165.092 85.6941 165.232 85.5595C165.371 85.4225 165.479 85.2524 165.555 85.0493L166.423 85.293C166.332 85.5875 166.178 85.8464 165.963 86.0697C165.747 86.2905 165.48 86.4631 165.163 86.5875C164.846 86.7094 164.489 86.7703 164.093 86.7703ZM167.882 86.6484V80.8003H168.75V81.7141H168.826C168.948 81.4019 169.144 81.1595 169.416 80.9869C169.687 80.8117 170.014 80.7242 170.394 80.7242C170.78 80.7242 171.101 80.8117 171.358 80.9869C171.617 81.1595 171.818 81.4019 171.963 81.7141H172.024C172.174 81.412 172.398 81.1722 172.698 80.9945C172.997 80.8143 173.357 80.7242 173.775 80.7242C174.298 80.7242 174.726 80.8879 175.058 81.2153C175.391 81.5402 175.557 82.0466 175.557 82.7345V86.6484H174.659V82.7345C174.659 82.303 174.541 81.9946 174.305 81.8093C174.069 81.624 173.791 81.5313 173.471 81.5313C173.06 81.5313 172.741 81.6557 172.515 81.9045C172.289 82.1507 172.176 82.4629 172.176 82.8411V86.6484H171.262V82.6431C171.262 82.3106 171.155 82.0428 170.939 81.8397C170.723 81.6341 170.445 81.5313 170.105 81.5313C169.872 81.5313 169.653 81.5935 169.45 81.7179C169.25 81.8423 169.087 82.0149 168.963 82.2357C168.841 82.454 168.78 82.7065 168.78 82.9934V86.6484H167.882ZM177.322 86.6484V78.8509H178.22V81.7293H178.297C178.363 81.6278 178.454 81.4983 178.571 81.341C178.69 81.1811 178.86 81.0389 179.081 80.9145C179.304 80.7876 179.606 80.7242 179.987 80.7242C180.479 80.7242 180.913 80.8473 181.289 81.0935C181.665 81.3397 181.958 81.6887 182.169 82.1405C182.379 82.5923 182.485 83.1254 182.485 83.7396C182.485 84.3589 182.379 84.8958 182.169 85.3501C181.958 85.8019 181.666 86.1522 181.293 86.401C180.92 86.6472 180.49 86.7703 180.002 86.7703C179.627 86.7703 179.326 86.7081 179.1 86.5837C178.874 86.4568 178.7 86.3134 178.578 86.1535C178.456 85.991 178.363 85.8565 178.297 85.7499H178.19V86.6484H177.322ZM178.205 83.7244C178.205 84.166 178.27 84.5557 178.399 84.8932C178.529 85.2283 178.718 85.491 178.967 85.6814C179.215 85.8692 179.52 85.9631 179.88 85.9631C180.256 85.9631 180.57 85.8641 180.821 85.6661C181.075 85.4656 181.265 85.1966 181.392 84.859C181.521 84.5188 181.586 84.1407 181.586 83.7244C181.586 83.3132 181.523 82.9426 181.396 82.6126C181.271 82.2801 181.082 82.0174 180.828 81.8245C180.577 81.6291 180.261 81.5313 179.88 81.5313C179.515 81.5313 179.208 81.624 178.959 81.8093C178.71 81.992 178.522 82.2484 178.396 82.5784C178.269 82.9058 178.205 83.2878 178.205 83.7244ZM186.311 86.7703C185.748 86.7703 185.262 86.6459 184.853 86.3972C184.447 86.1459 184.133 85.7956 183.912 85.3463C183.694 84.8945 183.585 84.3691 183.585 83.7701C183.585 83.171 183.694 82.6431 183.912 82.1862C184.133 81.7268 184.44 81.3689 184.834 81.1125C185.23 80.8536 185.692 80.7242 186.22 80.7242C186.524 80.7242 186.825 80.7749 187.122 80.8765C187.419 80.978 187.689 81.143 187.933 81.3714C188.177 81.5973 188.371 81.8968 188.516 82.27C188.66 82.6431 188.733 83.1025 188.733 83.6482V84.029H184.225V83.2523H187.819C187.819 82.9223 187.753 82.6279 187.621 82.369C187.491 82.1101 187.306 81.9057 187.065 81.756C186.826 81.6062 186.545 81.5313 186.22 81.5313C185.862 81.5313 185.552 81.6202 185.291 81.7979C185.032 81.973 184.833 82.2014 184.693 82.4832C184.553 82.7649 184.484 83.067 184.484 83.3893V83.9071C184.484 84.3488 184.56 84.7232 184.712 85.0303C184.867 85.3349 185.081 85.5671 185.355 85.7271C185.63 85.8844 185.948 85.9631 186.311 85.9631C186.547 85.9631 186.76 85.9301 186.951 85.8641C187.144 85.7956 187.31 85.6941 187.449 85.5595C187.589 85.4225 187.697 85.2524 187.773 85.0493L188.641 85.293C188.55 85.5875 188.396 85.8464 188.18 86.0697C187.965 86.2905 187.698 86.4631 187.381 86.5875C187.064 86.7094 186.707 86.7703 186.311 86.7703ZM192.308 86.7703C191.82 86.7703 191.39 86.6472 191.017 86.401C190.644 86.1522 190.352 85.8019 190.141 85.3501C189.931 84.8958 189.825 84.3589 189.825 83.7396C189.825 83.1254 189.931 82.5923 190.141 82.1405C190.352 81.6887 190.645 81.3397 191.021 81.0935C191.396 80.8473 191.831 80.7242 192.323 80.7242C192.704 80.7242 193.004 80.7876 193.225 80.9145C193.449 81.0389 193.619 81.1811 193.735 81.341C193.855 81.4983 193.947 81.6278 194.013 81.7293H194.09V78.8509H194.988V86.6484H194.12V85.7499H194.013C193.947 85.8565 193.853 85.991 193.732 86.1535C193.61 86.3134 193.436 86.4568 193.21 86.5837C192.984 86.7081 192.683 86.7703 192.308 86.7703ZM192.43 85.9631C192.79 85.9631 193.095 85.8692 193.343 85.6814C193.592 85.491 193.781 85.2283 193.911 84.8932C194.04 84.5557 194.105 84.166 194.105 83.7244C194.105 83.2878 194.041 82.9058 193.914 82.5784C193.788 82.2484 193.6 81.992 193.351 81.8093C193.102 81.624 192.795 81.5313 192.43 81.5313C192.049 81.5313 191.732 81.6291 191.478 81.8245C191.226 82.0174 191.037 82.2801 190.91 82.6126C190.786 82.9426 190.724 83.3132 190.724 83.7244C190.724 84.1407 190.787 84.5188 190.914 84.859C191.044 85.1966 191.234 85.4656 191.485 85.6661C191.739 85.8641 192.054 85.9631 192.43 85.9631ZM200.672 83.1304V86.6484H199.774V78.8509H200.672V81.7141H200.749C200.886 81.412 201.091 81.1722 201.365 80.9945C201.642 80.8143 202.01 80.7242 202.47 80.7242C202.868 80.7242 203.217 80.8041 203.517 80.964C203.816 81.1214 204.048 81.3638 204.213 81.6912C204.381 82.0161 204.465 82.4299 204.465 82.9324V86.6484H203.566V82.9934C203.566 82.5289 203.446 82.1697 203.204 81.9159C202.966 81.6595 202.635 81.5313 202.211 81.5313C201.916 81.5313 201.652 81.5935 201.419 81.7179C201.188 81.8423 201.005 82.0238 200.87 82.2623C200.738 82.5009 200.672 82.7903 200.672 83.1304ZM208.56 86.7703C207.997 86.7703 207.511 86.6459 207.102 86.3972C206.696 86.1459 206.383 85.7956 206.162 85.3463C205.943 84.8945 205.834 84.3691 205.834 83.7701C205.834 83.171 205.943 82.6431 206.162 82.1862C206.383 81.7268 206.69 81.3689 207.083 81.1125C207.479 80.8536 207.941 80.7242 208.469 80.7242C208.774 80.7242 209.074 80.7749 209.371 80.8765C209.668 80.978 209.939 81.143 210.182 81.3714C210.426 81.5973 210.62 81.8968 210.765 82.27C210.91 82.6431 210.982 83.1025 210.982 83.6482V84.029H206.474V83.2523H210.068C210.068 82.9223 210.002 82.6279 209.87 82.369C209.741 82.1101 209.555 81.9057 209.314 81.756C209.076 81.6062 208.794 81.5313 208.469 81.5313C208.111 81.5313 207.801 81.6202 207.54 81.7979C207.281 81.973 207.082 82.2014 206.942 82.4832C206.803 82.7649 206.733 83.067 206.733 83.3893V83.9071C206.733 84.3488 206.809 84.7232 206.961 85.0303C207.116 85.3349 207.331 85.5671 207.605 85.7271C207.879 85.8844 208.197 85.9631 208.56 85.9631C208.796 85.9631 209.01 85.9301 209.2 85.8641C209.393 85.7956 209.559 85.6941 209.699 85.5595C209.838 85.4225 209.946 85.2524 210.022 85.0493L210.89 85.293C210.799 85.5875 210.646 85.8464 210.43 86.0697C210.214 86.2905 209.948 86.4631 209.63 86.5875C209.313 86.7094 208.956 86.7703 208.56 86.7703ZM212.349 86.6484V80.8003H213.217V81.6836H213.278C213.384 81.3943 213.577 81.1595 213.856 80.9793C214.136 80.7991 214.45 80.7089 214.801 80.7089C214.867 80.7089 214.949 80.7102 215.048 80.7128C215.147 80.7153 215.222 80.7191 215.273 80.7242V81.6379C215.242 81.6303 215.173 81.6189 215.063 81.6037C214.957 81.5859 214.844 81.577 214.725 81.577C214.44 81.577 214.186 81.6367 213.963 81.756C213.742 81.8727 213.567 82.0352 213.438 82.2433C213.311 82.4489 213.247 82.6837 213.247 82.9477V86.6484H212.349ZM218.612 86.7703C218.048 86.7703 217.562 86.6459 217.154 86.3972C216.747 86.1459 216.434 85.7956 216.213 85.3463C215.995 84.8945 215.886 84.3691 215.886 83.7701C215.886 83.171 215.995 82.6431 216.213 82.1862C216.434 81.7268 216.741 81.3689 217.135 81.1125C217.531 80.8536 217.992 80.7242 218.52 80.7242C218.825 80.7242 219.126 80.7749 219.423 80.8765C219.72 80.978 219.99 81.143 220.234 81.3714C220.477 81.5973 220.672 81.8968 220.816 82.27C220.961 82.6431 221.033 83.1025 221.033 83.6482V84.029H216.525V83.2523H220.12C220.12 82.9223 220.054 82.6279 219.922 82.369C219.792 82.1101 219.607 81.9057 219.366 81.756C219.127 81.6062 218.845 81.5313 218.52 81.5313C218.163 81.5313 217.853 81.6202 217.591 81.7979C217.333 81.973 217.133 82.2014 216.994 82.4832C216.854 82.7649 216.784 83.067 216.784 83.3893V83.9071C216.784 84.3488 216.86 84.7232 217.013 85.0303C217.168 85.3349 217.382 85.5671 217.656 85.7271C217.93 85.8844 218.249 85.9631 218.612 85.9631C218.848 85.9631 219.061 85.9301 219.251 85.8641C219.444 85.7956 219.611 85.6941 219.75 85.5595C219.89 85.4225 219.998 85.2524 220.074 85.0493L220.942 85.293C220.851 85.5875 220.697 85.8464 220.481 86.0697C220.265 86.2905 219.999 86.4631 219.682 86.5875C219.364 86.7094 219.008 86.7703 218.612 86.7703ZM223.055 86.7094C222.867 86.7094 222.706 86.6421 222.572 86.5076C222.437 86.373 222.37 86.2119 222.37 86.024C222.37 85.8362 222.437 85.675 222.572 85.5405C222.706 85.406 222.867 85.3387 223.055 85.3387C223.243 85.3387 223.404 85.406 223.539 85.5405C223.673 85.675 223.74 85.8362 223.74 86.024C223.74 86.1484 223.709 86.2626 223.645 86.3667C223.584 86.4708 223.502 86.5545 223.398 86.618C223.296 86.6789 223.182 86.7094 223.055 86.7094ZM226.008 86.7094C225.82 86.7094 225.659 86.6421 225.524 86.5076C225.39 86.373 225.322 86.2119 225.322 86.024C225.322 85.8362 225.39 85.675 225.524 85.5405C225.659 85.406 225.82 85.3387 226.008 85.3387C226.195 85.3387 226.357 85.406 226.491 85.5405C226.626 85.675 226.693 85.8362 226.693 86.024C226.693 86.1484 226.661 86.2626 226.598 86.3667C226.537 86.4708 226.454 86.5545 226.35 86.618C226.249 86.6789 226.135 86.7094 226.008 86.7094ZM228.96 86.7094C228.772 86.7094 228.611 86.6421 228.477 86.5076C228.342 86.373 228.275 86.2119 228.275 86.024C228.275 85.8362 228.342 85.675 228.477 85.5405C228.611 85.406 228.772 85.3387 228.96 85.3387C229.148 85.3387 229.309 85.406 229.444 85.5405C229.578 85.675 229.646 85.8362 229.646 86.024C229.646 86.1484 229.614 86.2626 229.55 86.3667C229.489 86.4708 229.407 86.5545 229.303 86.618C229.201 86.6789 229.087 86.7094 228.96 86.7094Z" fill="#757575"/>
</g>
<defs>
<filter id="filter0_d_9473_9095" x="9.32976" y="49.1649" width="263.34" height="74.5827" filterUnits="userSpaceOnUse" color-interpolation-filters="sRGB">
<feFlood flood-opacity="0" result="BackgroundImageFix"/>
<feColorMatrix in="SourceAlpha" type="matrix" values="0 0 0 0 0 0 0 0 0 0 0 0 0 0 0 0 0 0 127 0" result="hardAlpha"/>
<feOffset dy="1.83512"/>
<feGaussianBlur stdDeviation="1.83512"/>
<feComposite in2="hardAlpha" operator="out"/>
<feColorMatrix type="matrix" values="0 0 0 0 0 0 0 0 0 0 0 0 0 0 0 0 0 0 0.15 0"/>
<feBlend mode="normal" in2="BackgroundImageFix" result="effect1_dropShadow_9473_9095"/>
<feBlend mode="normal" in="SourceGraphic" in2="effect1_dropShadow_9473_9095" result="shape"/>
</filter>
</defs>
</svg>
