<svg width="24" height="25" viewBox="0 0 24 25" fill="none" xmlns="http://www.w3.org/2000/svg">
<g id="bell-03">
<path id="Icon" d="M14.9987 19.8398C14.9987 21.4967 13.6556 22.8398 11.9987 22.8398C10.3419 22.8398 8.99874 21.4967 8.99874 19.8398M13.7952 7.0784C14.2307 6.62848 14.4987 6.01546 14.4987 5.33984C14.4987 3.95913 13.3795 2.83984 11.9987 2.83984C10.618 2.83984 9.49874 3.95913 9.49874 5.33984C9.49874 6.01546 9.76675 6.62848 10.2022 7.0784M17.9987 12.0398C17.9987 10.6607 17.3666 9.33808 16.2414 8.36289C15.1162 7.3877 13.59 6.83984 11.9987 6.83984C10.4074 6.83984 8.88132 7.3877 7.7561 8.36289C6.63089 9.33808 5.99874 10.6607 5.99874 12.0398C5.99874 14.3216 5.43288 15.9904 4.72681 17.1845C3.92208 18.5455 3.51972 19.2259 3.53561 19.3885C3.55379 19.5745 3.58726 19.6331 3.73808 19.7434C3.86991 19.8398 4.53225 19.8398 5.85693 19.8398H18.1406C19.4652 19.8398 20.1276 19.8398 20.2594 19.7434C20.4102 19.6331 20.4437 19.5745 20.4619 19.3885C20.4778 19.2259 20.0754 18.5455 19.2707 17.1845C18.5646 15.9904 17.9987 14.3216 17.9987 12.0398Z" stroke="#5B2FBD" stroke-width="2" stroke-linecap="round" stroke-linejoin="round"/>
</g>
</svg>
