<svg width="33" height="32" viewBox="0 0 33 32" fill="none" xmlns="http://www.w3.org/2000/svg">
<path d="M28.5 2H20.5C19.9697 2.00053 19.4613 2.21141 19.0864 2.58637C18.7114 2.96133 18.5005 3.46973 18.5 4V28C18.5005 28.5303 18.7114 29.0387 19.0864 29.4136C19.4613 29.7886 19.9697 29.9995 20.5 30H28.5C29.0303 29.9995 29.5387 29.7886 29.9136 29.4136C30.2886 29.0387 30.4995 28.5303 30.5 28V4C30.4995 3.46973 30.2886 2.96133 29.9136 2.58637C29.5387 2.21141 29.0303 2.00053 28.5 2ZM28.5 4V11H20.5V4H28.5ZM28.5 13V19H20.5V13H28.5ZM20.5 28V21H28.5V28H20.5ZM12.5 15H10.5V13H8.5V15H6.5V17H8.5V19H10.5V17H12.5V15Z" fill="#A3A3A3"/>
<path d="M16.4993 6V4H10.4993C9.96906 4.00053 9.46066 4.21141 9.0857 4.58637C8.71074 4.96133 8.49986 5.46973 8.49933 6V9.08C6.83328 9.31757 5.30886 10.1482 4.20606 11.4195C3.10325 12.6907 2.49609 14.3171 2.49609 16C2.49609 17.6829 3.10325 19.3093 4.20606 20.5805C5.30886 21.8518 6.83328 22.6824 8.49933 22.92V26C8.49986 26.5303 8.71074 27.0387 9.0857 27.4136C9.46066 27.7886 9.96906 27.9995 10.4993 28H16.4993V26H10.4993V22.92C12.1654 22.6824 13.6898 21.8518 14.7926 20.5805C15.8954 19.3093 16.5026 17.6829 16.5026 16C16.5026 14.3171 15.8954 12.6907 14.7926 11.4195C13.6898 10.1482 12.1654 9.31757 10.4993 9.08V6H16.4993ZM14.4993 16C14.4993 16.9889 14.2061 17.9556 13.6567 18.7779C13.1073 19.6001 12.3264 20.241 11.4127 20.6194C10.4991 20.9978 9.49378 21.0969 8.52388 20.9039C7.55397 20.711 6.66306 20.2348 5.9638 19.5355C5.26453 18.8363 4.78833 17.9454 4.5954 16.9755C4.40248 16.0055 4.5015 15.0002 4.87993 14.0866C5.25837 13.173 5.89923 12.3921 6.72148 11.8427C7.54373 11.2932 8.51042 11 9.49933 11C10.8249 11.0016 12.0958 11.5289 13.0331 12.4662C13.9704 13.4036 14.4977 14.6744 14.4993 16Z" fill="#A3A3A3"/>
</svg>
