<svg width="64" height="66" viewBox="0 0 64 66" fill="none" xmlns="http://www.w3.org/2000/svg">
<g filter="url(#filter0_d_238_8006)">
<path d="M4 23.9111C4 16.9416 4 13.4568 5.35636 10.7948C6.54945 8.45321 8.45321 6.54945 10.7948 5.35636C13.4568 4 16.9416 4 23.9111 4H40.0889C47.0584 4 50.5432 4 53.2052 5.35636C55.5468 6.54945 57.4505 8.45321 58.6436 10.7948C60 13.4568 60 16.9416 60 23.9111V40.0889C60 47.0584 60 50.5432 58.6436 53.2052C57.4505 55.5468 55.5468 57.4505 53.2052 58.6436C50.5432 60 47.0584 60 40.0889 60H23.9111C16.9416 60 13.4568 60 10.7948 58.6436C8.45321 57.4505 6.54945 55.5468 5.35636 53.2052C4 50.5432 4 47.0584 4 40.0889V23.9111Z" fill="#004CFF"/>
<path d="M41.1051 31.9276L22.3067 44.4115C21.4357 44.9921 21 45.9355 21 46.8791V50L43.7905 35.0485C44.8066 34.3228 45.4599 33.1613 45.4599 31.9276C45.4599 30.6937 44.8793 29.5322 43.7905 28.8064L21 14V16.9031C21 17.9195 21.5082 18.8628 22.3067 19.371L41.1051 31.9276Z" fill="white"/>
<path d="M29.7824 32.9438C30.7985 33.5969 32.1051 33.5969 33.1212 32.9438L34.7178 31.855L22.8145 23.7987C22.0888 23.2905 21 23.7987 21 24.742V27.1372L27.1694 31.2744L29.7824 32.9438Z" fill="white"/>
</g>
<defs>
<filter id="filter0_d_238_8006" x="-4" y="-2" width="72" height="72" filterUnits="userSpaceOnUse" color-interpolation-filters="sRGB">
<feFlood flood-opacity="0" result="BackgroundImageFix"/>
<feColorMatrix in="SourceAlpha" type="matrix" values="0 0 0 0 0 0 0 0 0 0 0 0 0 0 0 0 0 0 127 0" result="hardAlpha"/>
<feOffset dy="2"/>
<feGaussianBlur stdDeviation="2"/>
<feColorMatrix type="matrix" values="0 0 0 0 0.0627451 0 0 0 0 0.0941176 0 0 0 0 0.156863 0 0 0 0.05 0"/>
<feBlend mode="normal" in2="BackgroundImageFix" result="effect1_dropShadow_238_8006"/>
<feBlend mode="normal" in="SourceGraphic" in2="effect1_dropShadow_238_8006" result="shape"/>
</filter>
</defs>
</svg>
