<svg width="64" height="64" viewBox="0 0 64 64" fill="none" xmlns="http://www.w3.org/2000/svg">
<path d="M28.5788 5.9061L4.71776 15.7801C3.39076 16.3301 3.40476 18.2141 4.73976 18.7431L28.6998 28.2451C30.805 29.0801 33.1495 29.0801 35.2548 28.2451L59.2148 18.7431C60.5498 18.2131 60.5648 16.3291 59.2368 15.7801L35.3768 5.9071C33.2 5.00623 30.7546 5.00623 28.5778 5.9071" fill="#FFCC00"/>
<path d="M34.1016 33.4326V57.1696C34.1019 57.4304 34.1659 57.6871 34.2881 57.9174C34.4103 58.1477 34.5869 58.3447 34.8026 58.4912C35.0183 58.6377 35.2665 58.7293 35.5257 58.7579C35.7848 58.7866 36.0471 58.7515 36.2896 58.6556L62.9896 48.2916C63.2871 48.1734 63.5424 47.9685 63.7223 47.7036C63.9021 47.4387 63.9984 47.1259 63.9986 46.8056V23.0696C63.9982 22.8089 63.9342 22.5522 63.812 22.3219C63.6898 22.0916 63.5132 21.8946 63.2975 21.7481C63.0818 21.6016 62.8336 21.51 62.5744 21.4814C62.3153 21.4527 62.053 21.4878 61.8106 21.5836L35.1106 31.9476C34.813 32.0659 34.5577 32.2708 34.3779 32.5357C34.198 32.8006 34.1017 33.1124 34.1016 33.4326Z" fill="#31C2F2"/>
<path d="M27.869 34.6579L19.141 38.8729L2.414 46.8879C1.354 47.3999 0 46.6279 0 45.4479V23.1699C0 22.7439 0.218 22.3759 0.512 22.0999C0.632174 21.9802 0.768493 21.8779 0.917 21.7959C1.317 21.5559 1.887 21.4919 2.372 21.6839L27.737 31.7339C29.037 32.2459 29.137 34.0519 27.87 34.6589" fill="#ED3049"/>
<path d="M27.8697 34.658L19.9457 38.484L0.511719 22.098C0.631893 21.9783 0.768212 21.8759 0.916719 21.794C1.31672 21.554 1.88672 21.49 2.37172 21.682L27.7367 31.732C29.0367 32.244 29.1367 34.051 27.8697 34.658Z" fill="#C62842"/>
</svg>
