<svg width="64" height="64" viewBox="0 0 64 64" fill="none" xmlns="http://www.w3.org/2000/svg">
<path d="M32 4C16.5562 4 4 16.5563 4 32C4 47.4438 16.5562 60 32 60C47.4437 60 60 47.4438 60 32C60 16.5563 47.4437 4 32 4Z" fill="url(#paint0_radial_238_7750)"/>
<path d="M41.0407 31.8822C37.1968 31.8822 34.0812 35.0424 34.0812 38.9409C34.0812 42.8396 37.1968 46 41.0407 46C44.8842 46 48 42.8396 48 38.9409C48 35.0424 44.8842 31.8822 41.0407 31.8822ZM22.9594 31.8827C19.1159 31.8827 16 35.0424 16 38.9412C16 42.8396 19.1159 46 22.9594 46C26.8031 46 29.9192 42.8396 29.9192 38.9412C29.9192 35.0424 26.8031 31.8827 22.9594 31.8827ZM38.9592 23.0586C38.9592 26.9571 35.8436 30.118 32.0002 30.118C28.1564 30.118 25.0407 26.9571 25.0407 23.0586C25.0407 19.1604 28.1564 16 32.0002 16C35.8436 16 38.9592 19.1604 38.9592 23.0586Z" fill="white"/>
<defs>
<radialGradient id="paint0_radial_238_7750" cx="0" cy="0" r="1" gradientUnits="userSpaceOnUse" gradientTransform="translate(32 34.6052) scale(37.1075)">
<stop stop-color="#FFB900"/>
<stop offset="0.6" stop-color="#F95D8F"/>
<stop offset="0.9991" stop-color="#F95353"/>
</radialGradient>
</defs>
</svg>
