<svg width="64" height="66" viewBox="0 0 64 66" fill="none" xmlns="http://www.w3.org/2000/svg">
<g filter="url(#filter0_d_238_8210)">
<g clip-path="url(#clip0_238_8210)">
<path d="M42.0923 40.1788C40.3153 41.7561 38.0982 43.7192 34.0665 43.7192H31.6623C28.748 43.7192 26.0981 42.6614 24.202 40.7412C22.3497 38.8659 21.3295 36.2986 21.3295 33.5118V30.2181C21.3295 27.4313 22.3497 24.8641 24.202 22.9888C26.0981 21.0686 28.748 20.0107 31.6623 20.0107H34.0665C38.0982 20.0107 40.3132 21.9738 42.0923 23.5512C43.9373 25.1871 45.5314 26.5993 49.7774 26.5993C50.4251 26.5994 51.0718 26.5477 51.7112 26.4446C51.7112 26.432 51.7028 26.4205 51.6976 26.408C51.443 25.7763 51.1443 25.1633 50.8039 24.5735L47.9648 19.6553C46.6848 17.4384 44.8439 15.5975 42.627 14.3175C40.4101 13.0375 37.8954 12.3635 35.3355 12.3633H29.6564C27.0965 12.3635 24.5818 13.0375 22.3649 14.3175C20.148 15.5975 18.307 17.4384 17.027 19.6553L14.188 24.5735C12.9081 26.7904 12.2344 29.3051 12.2344 31.865C12.2344 34.4248 12.9081 36.9395 14.188 39.1565L17.027 44.0746C18.3071 46.2914 20.1481 48.1321 22.365 49.412C24.5819 50.6918 27.0966 51.3656 29.6564 51.3656H35.3355C37.8953 51.3656 40.41 50.6918 42.6269 49.412C44.8438 48.1321 46.6848 46.2914 47.9648 44.0746L50.8039 39.1565C51.1443 38.5666 51.443 37.9536 51.6976 37.322C51.6976 37.3094 51.707 37.2979 51.7112 37.2854C51.0718 37.1823 50.4251 37.1305 49.7774 37.1307C45.5314 37.1307 43.9373 38.5429 42.0923 40.1788Z" fill="#006BFF"/>
<path d="M34.0652 22.9941H31.661C27.2268 22.9941 24.3125 26.1614 24.3125 30.2161V33.5099C24.3125 37.5646 27.2268 40.7319 31.661 40.7319H34.0652C40.5272 40.7319 40.0234 34.1465 49.7761 34.1465C50.7007 34.1457 51.6234 34.2301 52.5325 34.3984C52.8284 32.7228 52.8284 31.0084 52.5325 29.3329C51.6235 29.5021 50.7007 29.5867 49.7761 29.5858C40.0203 29.5848 40.5272 22.9941 34.0652 22.9941Z" fill="#006BFF"/>
<path d="M58.1391 36.8056C56.4767 35.5906 54.5603 34.7685 52.5342 34.4014C52.5342 34.4181 52.5289 34.4349 52.5258 34.4505C52.3519 35.4222 52.079 36.3735 51.7115 37.2896C53.3855 37.5486 54.9738 38.2021 56.3453 39.1962C56.3453 39.2109 56.337 39.2255 56.3317 39.2412C55.5544 41.7655 54.3798 44.1497 52.8519 46.3043C51.3416 48.4389 49.5077 50.3249 47.4164 51.8946C42.3537 55.7032 36.0344 57.4489 29.7346 56.7792C23.4347 56.1095 17.6237 53.0744 13.4748 48.2866C9.32587 43.4988 7.14823 37.315 7.38155 30.984C7.61487 24.653 10.2418 18.6463 14.7318 14.1769C17.7822 11.1289 21.5683 8.92066 25.7231 7.76639C29.878 6.61212 34.2606 6.55094 38.446 7.58878C42.6314 8.62663 46.4777 10.7283 49.6119 13.69C52.7462 16.6517 55.062 20.3729 56.3349 24.493C56.3401 24.5087 56.3443 24.5233 56.3485 24.5379C54.9759 25.5321 53.3865 26.1853 51.7115 26.4435C52.0789 27.3605 52.3521 28.3124 52.5268 29.2847C52.5268 29.3003 52.5268 29.316 52.5342 29.3307C54.5606 28.9645 56.4772 28.1424 58.1391 26.9265C59.7373 25.7442 59.4279 24.4083 59.1844 23.6181C55.6628 12.1772 45.0122 3.86499 32.4194 3.86499C16.9562 3.86499 4.41992 16.4013 4.41992 31.8645C4.41992 47.3276 16.9562 59.865 32.4194 59.865C45.0122 59.865 55.6628 51.5527 59.1792 40.115C59.4279 39.3248 59.7373 37.9889 58.1391 36.8056Z" fill="#006BFF"/>
<path d="M51.7098 26.4436C51.0704 26.5467 50.4237 26.5984 49.776 26.5983C45.53 26.5983 43.9359 25.1861 42.091 23.5502C40.314 21.9728 38.0969 20.0098 34.0651 20.0098H31.6609C28.7466 20.0098 26.0968 21.0676 24.2006 22.9878C22.3483 24.8631 21.3281 27.4304 21.3281 30.2171V33.5109C21.3281 36.2977 22.3483 38.8649 24.2006 40.7402C26.0968 42.6604 28.7466 43.7183 31.6609 43.7183H34.0651C38.0969 43.7183 40.3119 41.7552 42.091 40.1778C43.9359 38.5419 45.53 37.1297 49.776 37.1297C50.4237 37.1296 51.0704 37.1813 51.7098 37.2844C52.0774 36.3683 52.3502 35.417 52.5241 34.4454C52.5241 34.4297 52.5304 34.413 52.5325 34.3963C51.6234 34.2279 50.7006 34.1436 49.776 34.1444C40.0202 34.1444 40.5272 40.7298 34.0651 40.7298H31.6609C27.2268 40.7298 24.3125 37.5625 24.3125 33.5078V30.2182C24.3125 26.1635 27.2268 22.9962 31.6609 22.9962H34.0651C40.5272 22.9962 40.0234 29.5816 49.776 29.5816C50.7007 29.5825 51.6235 29.4978 52.5325 29.3286C52.5325 29.314 52.5325 29.2983 52.5252 29.2826C52.3503 28.3111 52.0771 27.3599 51.7098 26.4436Z" fill="#0AE9EF"/>
<path d="M51.7098 26.4436C51.0704 26.5467 50.4237 26.5984 49.776 26.5983C45.53 26.5983 43.9359 25.1861 42.091 23.5502C40.314 21.9728 38.0969 20.0098 34.0651 20.0098H31.6609C28.7466 20.0098 26.0968 21.0676 24.2006 22.9878C22.3483 24.8631 21.3281 27.4304 21.3281 30.2171V33.5109C21.3281 36.2977 22.3483 38.8649 24.2006 40.7402C26.0968 42.6604 28.7466 43.7183 31.6609 43.7183H34.0651C38.0969 43.7183 40.3119 41.7552 42.091 40.1778C43.9359 38.5419 45.53 37.1297 49.776 37.1297C50.4237 37.1296 51.0704 37.1813 51.7098 37.2844C52.0774 36.3683 52.3502 35.417 52.5241 34.4454C52.5241 34.4297 52.5304 34.413 52.5325 34.3963C51.6234 34.2279 50.7006 34.1436 49.776 34.1444C40.0202 34.1444 40.5272 40.7298 34.0651 40.7298H31.6609C27.2268 40.7298 24.3125 37.5625 24.3125 33.5078V30.2182C24.3125 26.1635 27.2268 22.9962 31.6609 22.9962H34.0651C40.5272 22.9962 40.0234 29.5816 49.776 29.5816C50.7007 29.5825 51.6235 29.4978 52.5325 29.3286C52.5325 29.314 52.5325 29.2983 52.5252 29.2826C52.3503 28.3111 52.0771 27.3599 51.7098 26.4436Z" fill="#0AE9EF"/>
</g>
</g>
<defs>
<filter id="filter0_d_238_8210" x="-4" y="-2" width="72" height="72" filterUnits="userSpaceOnUse" color-interpolation-filters="sRGB">
<feFlood flood-opacity="0" result="BackgroundImageFix"/>
<feColorMatrix in="SourceAlpha" type="matrix" values="0 0 0 0 0 0 0 0 0 0 0 0 0 0 0 0 0 0 127 0" result="hardAlpha"/>
<feOffset dy="2"/>
<feGaussianBlur stdDeviation="2"/>
<feColorMatrix type="matrix" values="0 0 0 0 0.0627451 0 0 0 0 0.0941176 0 0 0 0 0.156863 0 0 0 0.05 0"/>
<feBlend mode="normal" in2="BackgroundImageFix" result="effect1_dropShadow_238_8210"/>
<feBlend mode="normal" in="SourceGraphic" in2="effect1_dropShadow_238_8210" result="shape"/>
</filter>
<clipPath id="clip0_238_8210">
<rect width="54.962" height="56" fill="white" transform="translate(4.41992 3.86499)"/>
</clipPath>
</defs>
</svg>
