<svg width="64" height="66" viewBox="0 0 64 66" fill="none" xmlns="http://www.w3.org/2000/svg">
<g filter="url(#filter0_d_238_8034)">
<path d="M4 23.9111C4 16.9416 4 13.4568 5.35636 10.7948C6.54945 8.45321 8.45321 6.54945 10.7948 5.35636C13.4568 4 16.9416 4 23.9111 4H40.0889C47.0584 4 50.5432 4 53.2052 5.35636C55.5468 6.54945 57.4505 8.45321 58.6436 10.7948C60 13.4568 60 16.9416 60 23.9111V40.0889C60 47.0584 60 50.5432 58.6436 53.2052C57.4505 55.5468 55.5468 57.4505 53.2052 58.6436C50.5432 60 47.0584 60 40.0889 60H23.9111C16.9416 60 13.4568 60 10.7948 58.6436C8.45321 57.4505 6.54945 55.5468 5.35636 53.2052C4 50.5432 4 47.0584 4 40.0889V23.9111Z" fill="#43B1FE"/>
<g clip-path="url(#clip0_238_8034)">
<path d="M22.1336 30.3222C27.5848 31.3772 29.2768 36.4236 29.3214 41.4992C29.3224 41.6134 29.2302 41.7066 29.116 41.7066H22.254C22.1408 41.7066 22.0486 41.6152 22.048 41.5018C22.0274 37.564 21.3894 34.089 17.4876 33.939C17.3712 33.9346 17.2742 34.0278 17.2742 34.1444V41.5012C17.2742 41.6146 17.1822 41.7066 17.0688 41.7066H10.2054C10.092 41.7066 10 41.6148 10 41.5012V22.7558C10 22.6424 10.092 22.5504 10.2054 22.5504H17.0688C17.1822 22.5504 17.2742 22.6424 17.2742 22.7558V29.7778C17.2742 29.882 17.3586 29.9664 17.4628 29.9664C17.5454 29.9664 17.6188 29.9126 17.6428 29.8334C19.4108 24.0428 22.7126 22.5868 28.0742 22.551C28.188 22.5502 28.2812 22.6426 28.2812 22.7564V29.761C28.2812 29.8744 28.1892 29.9664 28.0758 29.9664H22.168C22.0688 29.9664 21.9884 30.0468 21.9884 30.146C21.9884 30.232 22.0494 30.306 22.1336 30.3222ZM54.2824 40.3556C54.2824 40.5078 54.1984 40.6478 54.0636 40.7188C53.418 41.0584 51.422 42 49.1386 42C44.4426 42 40.9914 40.055 40.9248 34.7118H40.9232V30.1718C40.9232 30.0584 41.0152 29.9664 41.1286 29.9664H46.1792C46.2786 29.9664 46.3592 29.8858 46.3592 29.7864C46.3592 29.7002 46.2978 29.6264 46.2132 29.6098C42.2616 28.826 40.4374 26.5512 40.3744 22.756C40.3726 22.6432 40.4632 22.5504 40.5758 22.5504H47.992C48.1054 22.5504 48.1974 22.6424 48.1974 22.7558V25.953C48.1974 26.0664 48.2894 26.1584 48.4028 26.1584H52.6552C52.7686 26.1584 52.8606 26.2504 52.8606 26.3638V29.761C52.8606 29.8744 52.7686 29.9664 52.6552 29.9664H48.4028C48.2894 29.9664 48.1974 30.0584 48.1974 30.1718V33.8338C48.1974 35.1276 48.9906 35.5542 50.0454 35.5542C51.6984 35.5542 53.329 34.8094 53.983 34.4718C54.1198 34.4012 54.2824 34.5006 54.2824 34.6544V40.3556ZM31.2692 41.5012V30.1714C31.2692 30.058 31.3612 29.966 31.4746 29.966H38.338C38.4514 29.966 38.5434 30.058 38.5434 30.1714V41.5012C38.5434 41.6146 38.4514 41.7066 38.338 41.7066H31.4746C31.3612 41.7066 31.2692 41.6148 31.2692 41.5012ZM30.8806 25.4918C30.8806 27.4202 32.2424 28.9836 34.8588 28.9836C37.4752 28.9836 38.837 27.4202 38.837 25.4918C38.837 23.5634 37.475 22 34.8588 22C32.2424 22 30.8806 23.5634 30.8806 25.4918Z" fill="black"/>
</g>
<g clip-path="url(#clip1_238_8034)">
<path d="M22.1336 30.3222C27.5848 31.3772 29.2768 36.4236 29.3214 41.4992C29.3224 41.6134 29.2302 41.7066 29.116 41.7066H22.254C22.1408 41.7066 22.0486 41.6152 22.048 41.5018C22.0274 37.564 21.3894 34.089 17.4876 33.939C17.3712 33.9346 17.2742 34.0278 17.2742 34.1444V41.5012C17.2742 41.6146 17.1822 41.7066 17.0688 41.7066H10.2054C10.092 41.7066 10 41.6148 10 41.5012V22.7558C10 22.6424 10.092 22.5504 10.2054 22.5504H17.0688C17.1822 22.5504 17.2742 22.6424 17.2742 22.7558V29.7778C17.2742 29.882 17.3586 29.9664 17.4628 29.9664C17.5454 29.9664 17.6188 29.9126 17.6428 29.8334C19.4108 24.0428 22.7126 22.5868 28.0742 22.551C28.188 22.5502 28.2812 22.6426 28.2812 22.7564V29.761C28.2812 29.8744 28.1892 29.9664 28.0758 29.9664H22.168C22.0688 29.9664 21.9884 30.0468 21.9884 30.146C21.9884 30.232 22.0494 30.306 22.1336 30.3222ZM54.2824 40.3556C54.2824 40.5078 54.1984 40.6478 54.0636 40.7188C53.418 41.0584 51.422 42 49.1386 42C44.4426 42 40.9914 40.055 40.9248 34.7118H40.9232V30.1718C40.9232 30.0584 41.0152 29.9664 41.1286 29.9664H46.1792C46.2786 29.9664 46.3592 29.8858 46.3592 29.7864C46.3592 29.7002 46.2978 29.6264 46.2132 29.6098C42.2616 28.826 40.4374 26.5512 40.3744 22.756C40.3726 22.6432 40.4632 22.5504 40.5758 22.5504H47.992C48.1054 22.5504 48.1974 22.6424 48.1974 22.7558V25.953C48.1974 26.0664 48.2894 26.1584 48.4028 26.1584H52.6552C52.7686 26.1584 52.8606 26.2504 52.8606 26.3638V29.761C52.8606 29.8744 52.7686 29.9664 52.6552 29.9664H48.4028C48.2894 29.9664 48.1974 30.0584 48.1974 30.1718V33.8338C48.1974 35.1276 48.9906 35.5542 50.0454 35.5542C51.6984 35.5542 53.329 34.8094 53.983 34.4718C54.1198 34.4012 54.2824 34.5006 54.2824 34.6544V40.3556ZM31.2692 41.5012V30.1714C31.2692 30.058 31.3612 29.966 31.4746 29.966H38.338C38.4514 29.966 38.5434 30.058 38.5434 30.1714V41.5012C38.5434 41.6146 38.4514 41.7066 38.338 41.7066H31.4746C31.3612 41.7066 31.2692 41.6148 31.2692 41.5012ZM30.8806 25.4918C30.8806 27.4202 32.2424 28.9836 34.8588 28.9836C37.4752 28.9836 38.837 27.4202 38.837 25.4918C38.837 23.5634 37.475 22 34.8588 22C32.2424 22 30.8806 23.5634 30.8806 25.4918Z" fill="black"/>
</g>
</g>
<defs>
<filter id="filter0_d_238_8034" x="-4" y="-2" width="72" height="72" filterUnits="userSpaceOnUse" color-interpolation-filters="sRGB">
<feFlood flood-opacity="0" result="BackgroundImageFix"/>
<feColorMatrix in="SourceAlpha" type="matrix" values="0 0 0 0 0 0 0 0 0 0 0 0 0 0 0 0 0 0 127 0" result="hardAlpha"/>
<feOffset dy="2"/>
<feGaussianBlur stdDeviation="2"/>
<feColorMatrix type="matrix" values="0 0 0 0 0.0627451 0 0 0 0 0.0941176 0 0 0 0 0.156863 0 0 0 0.05 0"/>
<feBlend mode="normal" in2="BackgroundImageFix" result="effect1_dropShadow_238_8034"/>
<feBlend mode="normal" in="SourceGraphic" in2="effect1_dropShadow_238_8034" result="shape"/>
</filter>
<clipPath id="clip0_238_8034">
<rect width="44.375" height="20" fill="white" transform="translate(10 22)"/>
</clipPath>
<clipPath id="clip1_238_8034">
<rect width="44.375" height="20" fill="white" transform="translate(10 22)"/>
</clipPath>
</defs>
</svg>
