<svg width="64" height="66" viewBox="0 0 64 66" fill="none" xmlns="http://www.w3.org/2000/svg">
<g filter="url(#filter0_d_238_7885)">
<path d="M4 23.9111C4 16.9416 4 13.4568 5.35636 10.7948C6.54945 8.45321 8.45321 6.54945 10.7948 5.35636C13.4568 4 16.9416 4 23.9111 4H40.0889C47.0584 4 50.5432 4 53.2052 5.35636C55.5468 6.54945 57.4505 8.45321 58.6436 10.7948C60 13.4568 60 16.9416 60 23.9111V40.0889C60 47.0584 60 50.5432 58.6436 53.2052C57.4505 55.5468 55.5468 57.4505 53.2052 58.6436C50.5432 60 47.0584 60 40.0889 60H23.9111C16.9416 60 13.4568 60 10.7948 58.6436C8.45321 57.4505 6.54945 55.5468 5.35636 53.2052C4 50.5432 4 47.0584 4 40.0889V23.9111Z" fill="white"/>
<path d="M32.0038 24.9019L25.082 12.6864C25.3119 12.4524 25.5763 12.299 25.8407 12.1958C23.7995 12.8676 22.8629 15.1597 22.8629 15.1597L10.2179 37.4696C10.04 38.169 9.99055 38.8005 10.0128 39.3566H23.8143L32.0038 24.9019Z" fill="#34A853"/>
<path d="M32.0039 24.9019L40.1934 39.3566H53.9949C54.0172 38.8005 53.9677 38.169 53.7898 37.4696L41.1448 15.1597C41.1448 15.1597 40.2057 12.8676 38.167 12.1958C38.429 12.299 38.6959 12.4524 38.9257 12.6864L32.0039 24.9019Z" fill="#FBBC05"/>
<path d="M32.0038 24.9024L38.9256 12.6869C38.6958 12.4529 38.4289 12.2995 38.1669 12.1963C37.8654 12.0982 37.5417 12.0327 37.1908 12.0151H36.8251H27.1825H26.8168C26.4684 12.0302 26.1422 12.0957 25.8407 12.1963C25.5787 12.2995 25.3119 12.4529 25.082 12.6869L32.0038 24.9024Z" fill="#188038"/>
<path d="M23.8164 39.3564L16.9737 51.4335C16.9737 51.4335 16.7464 51.3228 16.4375 51.0938C17.4087 51.8411 18.3527 51.9996 18.3527 51.9996H45.2267C46.7094 51.9996 47.0183 51.4335 47.0183 51.4335C47.0233 51.431 47.0257 51.4285 47.0307 51.426L40.1929 39.3564H23.8164Z" fill="#4285F4"/>
<path d="M23.8172 39.3564H10.0156C10.0848 40.9969 10.7965 41.9555 10.7965 41.9555L11.3155 42.8563C11.3525 42.9091 11.3748 42.9393 11.3748 42.9393L12.5041 44.922L15.0395 49.3351C15.1137 49.5138 15.2002 49.6773 15.2916 49.8333C15.3262 49.8861 15.3583 49.944 15.3954 49.9943C15.4053 50.0094 15.4151 50.0245 15.425 50.0396C15.7389 50.4824 16.0898 50.8246 16.4407 51.0938C16.7496 51.3253 16.9769 51.4335 16.9769 51.4335L23.8172 39.3564Z" fill="#1967D2"/>
<path d="M40.1953 39.3564H53.9968C53.9276 40.9969 53.216 41.9555 53.216 41.9555L52.697 42.8563C52.6599 42.9091 52.6377 42.9393 52.6377 42.9393L51.5084 44.922L48.9729 49.3351C48.8988 49.5138 48.8123 49.6773 48.7209 49.8333C48.6863 49.8861 48.6541 49.944 48.6171 49.9943C48.6072 50.0094 48.5973 50.0245 48.5874 50.0396C48.2736 50.4824 47.9227 50.8246 47.5718 51.0938C47.2629 51.3253 47.0355 51.4335 47.0355 51.4335L40.1953 39.3564Z" fill="#EA4335"/>
</g>
<defs>
<filter id="filter0_d_238_7885" x="-4" y="-2" width="72" height="72" filterUnits="userSpaceOnUse" color-interpolation-filters="sRGB">
<feFlood flood-opacity="0" result="BackgroundImageFix"/>
<feColorMatrix in="SourceAlpha" type="matrix" values="0 0 0 0 0 0 0 0 0 0 0 0 0 0 0 0 0 0 127 0" result="hardAlpha"/>
<feOffset dy="2"/>
<feGaussianBlur stdDeviation="2"/>
<feColorMatrix type="matrix" values="0 0 0 0 0.0627451 0 0 0 0 0.0941176 0 0 0 0 0.156863 0 0 0 0.05 0"/>
<feBlend mode="normal" in2="BackgroundImageFix" result="effect1_dropShadow_238_7885"/>
<feBlend mode="normal" in="SourceGraphic" in2="effect1_dropShadow_238_7885" result="shape"/>
</filter>
</defs>
</svg>
