<svg width="64" height="64" viewBox="0 0 64 64" fill="none" xmlns="http://www.w3.org/2000/svg">
<path fill-rule="evenodd" clip-rule="evenodd" d="M50.0267 8H14.0038C10.688 8 8 10.6863 8 14V50C8 53.3137 10.688 56 14.0038 56H50.0267C53.3306 55.9832 56 53.3019 56 50V14C56 10.6981 53.3306 8.01676 50.0267 8ZM18 14H26C28.2091 14 30 15.7909 30 18V46C30 48.2091 28.2091 50 26 50H18C15.7909 50 14 48.2091 14 46V18C14 15.7909 15.7909 14 18 14ZM46 14H38C35.7909 14 34 15.7909 34 18V32C34 34.2091 35.7909 36 38 36H46C48.2091 36 50 34.2091 50 32V18C50 15.7909 48.2091 14 46 14Z" fill="url(#paint0_linear_238_7735)"/>
<defs>
<linearGradient id="paint0_linear_238_7735" x1="32.0152" y1="56" x2="32.0152" y2="8" gradientUnits="userSpaceOnUse">
<stop stop-color="#0052CC"/>
<stop offset="0.51698" stop-color="#217EF8"/>
<stop offset="1" stop-color="#2684FF"/>
</linearGradient>
</defs>
</svg>
