<svg width="65" height="64" viewBox="0 0 65 64" fill="none" xmlns="http://www.w3.org/2000/svg">
<g filter="url(#filter0_d_238_8146)">
<g clip-path="url(#clip0_238_8146)">
<path d="M29.7725 39.0964C29.3405 39.0964 28.9086 39.0039 28.5075 38.8188L19.6215 34.8694C18.0171 34.1598 17.3075 32.3086 18.0171 30.7042L21.9664 21.8491C22.6761 20.2755 24.5273 19.535 26.1317 20.2446L35.0177 24.194C36.5912 24.9036 37.3317 26.7548 36.6221 28.3592L32.6419 37.2452C32.1174 38.4177 30.9758 39.0964 29.7725 39.0964ZM29.2171 37.1526C29.8959 37.4612 30.6673 37.1526 30.9758 36.4738L34.9251 27.5879C35.2337 26.9091 34.9251 26.1378 34.2463 25.8292L25.3912 21.9108C24.7124 21.6022 23.9411 21.9108 23.6326 22.5896L19.6832 31.4446C19.3747 32.1234 19.6832 32.8948 20.362 33.2033L29.2171 37.1526Z" fill="#089949"/>
<path d="M57.6024 39.0965H47.8834C46.1556 39.0965 44.7363 37.6772 44.7363 35.9494V26.2304C44.7363 24.5025 46.1556 23.0833 47.8834 23.0833H57.6024C59.3303 23.0833 60.7496 24.5025 60.7496 26.2304V35.9494C60.7496 37.6772 59.3303 39.0965 57.6024 39.0965ZM47.8834 24.9036C47.1429 24.9036 46.5567 25.4899 46.5567 26.2304V35.9494C46.5567 36.6899 47.1429 37.2761 47.8834 37.2761H57.6024C58.3429 37.2761 58.9292 36.6899 58.9292 35.9494V26.2304C58.9292 25.4899 58.3429 24.9036 57.6024 24.9036H47.8834Z" fill="#F9B21D"/>
<path d="M21.1947 28.0197L19.8989 30.9508C19.868 30.9817 19.868 31.0125 19.8371 31.0434L20.3617 34.1905C20.4851 34.931 19.9914 35.6098 19.2509 35.7023L9.65533 37.245C9.31594 37.3067 8.94569 37.2142 8.668 36.9982C8.39032 36.7822 8.20519 36.4737 8.14349 36.1343L6.60079 26.5387C6.53908 26.1993 6.63164 25.829 6.84762 25.5514C7.0636 25.2737 7.37214 25.0885 7.71153 25.0268L17.3071 23.4841C17.3688 23.4841 17.4614 23.4533 17.5231 23.4533C18.171 23.4533 18.7264 23.9161 18.8498 24.564L19.3743 27.742L20.7319 24.7183L20.6702 24.2863C20.3925 22.5585 18.7881 21.3861 17.0603 21.6637L7.4647 23.2064C6.63164 23.3299 5.89114 23.7927 5.42833 24.4715C4.93467 25.1503 4.74955 25.9833 4.87296 26.8164L6.41566 36.412C6.53908 37.245 7.00189 37.9855 7.68068 38.4792C8.20519 38.8803 8.85313 39.0654 9.53192 39.0654C9.68619 39.0654 9.87131 39.0654 10.0564 39.0345L19.652 37.4918C21.3798 37.2142 22.5523 35.6098 22.2746 33.8819L21.1947 28.0197Z" fill="#E42527"/>
<path d="M32.7028 32.5863L34.1221 29.4392L33.721 26.508C33.6593 26.1687 33.7519 25.7984 33.9679 25.5207C34.1838 25.243 34.4924 25.0579 34.8626 24.9962L44.4891 23.7003C44.5508 23.7003 44.6125 23.7003 44.6742 23.7003C44.9519 23.7003 45.2296 23.7929 45.4764 23.978C45.5072 24.0089 45.569 24.0397 45.5998 24.0706C46.0318 23.6078 46.5871 23.2992 47.2042 23.1758C47.0191 22.929 46.8031 22.713 46.5563 22.5279C45.8775 22.0034 45.0444 21.7874 44.2114 21.9108L34.5541 23.2067C33.721 23.3301 32.9805 23.762 32.4869 24.41C31.9623 25.0888 31.7464 25.9218 31.8698 26.7549L32.7028 32.5863Z" fill="#226DB4"/>
<path d="M49.1179 34.2215L47.8529 24.9036C47.1433 24.9344 46.557 25.5206 46.557 26.2303V28.9763L47.2975 34.4683C47.3592 34.8077 47.2667 35.1779 47.0507 35.4556C46.8347 35.7333 46.5262 35.9184 46.1559 35.9801L36.5295 37.276C36.1901 37.3377 35.8199 37.2452 35.5422 37.0292C35.2645 36.8132 35.0794 36.5047 35.0177 36.1344L34.5857 32.8639L33.1973 36.011L33.259 36.3813C33.3824 37.2143 33.8143 37.9548 34.4623 38.4485C35.0177 38.8804 35.6656 39.0964 36.3752 39.0964C36.5295 39.0964 36.6529 39.0964 36.8072 39.0655L46.4336 37.7697C47.2667 37.6463 48.0072 37.2143 48.5008 36.5664C48.9945 35.8876 49.2105 35.0545 49.1179 34.2215Z" fill="#226DB4"/>
<path d="M21.9352 43.7245L23.3236 41.6881H22.182C22.1203 41.6881 22.0586 41.6264 22.0586 41.5647V41.287C22.0586 41.2253 22.1203 41.1636 22.182 41.1636H24.0332C24.0949 41.1636 24.1566 41.2253 24.1566 41.287V41.3796C24.1566 41.4104 24.1566 41.4104 24.1258 41.4413L22.7682 43.4776H23.9715C24.0332 43.4776 24.0949 43.5393 24.0949 43.601V43.8787C24.0949 43.9404 24.0332 44.0021 23.9715 44.0021H22.0277C21.966 44.0021 21.9043 43.9404 21.9043 43.8787V43.7862C21.9043 43.7553 21.9352 43.7245 21.9352 43.7245Z" fill="black"/>
<path d="M27.7363 42.5829C27.7363 41.7498 28.3534 41.1636 29.1865 41.1636C30.0504 41.1636 30.6366 41.7498 30.6366 42.6137C30.6366 43.4776 30.0504 44.0639 29.1865 44.0639C28.2917 44.033 27.7363 43.4468 27.7363 42.5829ZM29.9578 42.5829C29.9578 42.0892 29.711 41.6572 29.1556 41.6572C28.6002 41.6572 28.3843 42.12 28.3843 42.6137C28.3843 43.1074 28.6311 43.5393 29.1865 43.5393C29.7418 43.5393 29.9578 43.0457 29.9578 42.5829Z" fill="black"/>
<path d="M34.5551 41.1946H34.9562C35.0179 41.1946 35.0796 41.2563 35.0796 41.318V42.3362H36.252V41.318C36.252 41.2563 36.3137 41.1946 36.3754 41.1946H36.7765C36.8383 41.1946 36.9 41.2563 36.9 41.318V43.9097C36.9 43.9714 36.8383 44.0331 36.7765 44.0331H36.3754C36.3137 44.0331 36.252 43.9714 36.252 43.9097V42.8607H35.0796V43.9097C35.0796 43.9714 35.0179 44.0331 34.9562 44.0331H34.5551C34.4933 44.0331 34.4316 43.9714 34.4316 43.9097V41.318C34.4316 41.2254 34.4933 41.1946 34.5551 41.1946Z" fill="black"/>
<path d="M40.6953 42.5829C40.6953 41.7498 41.3124 41.1636 42.1454 41.1636C43.0094 41.1636 43.5956 41.7498 43.5956 42.6137C43.5956 43.4776 43.0094 44.0639 42.1454 44.0639C41.2815 44.033 40.6953 43.4468 40.6953 42.5829ZM42.9168 42.5829C42.9168 42.0892 42.67 41.6572 42.1146 41.6572C41.5592 41.6572 41.3432 42.12 41.3432 42.6137C41.3432 43.1074 41.5901 43.5393 42.1454 43.5393C42.7008 43.5393 42.9168 43.0457 42.9168 42.5829Z" fill="black"/>
</g>
</g>
<defs>
<filter id="filter0_d_238_8146" x="-3" y="-2" width="72" height="72" filterUnits="userSpaceOnUse" color-interpolation-filters="sRGB">
<feFlood flood-opacity="0" result="BackgroundImageFix"/>
<feColorMatrix in="SourceAlpha" type="matrix" values="0 0 0 0 0 0 0 0 0 0 0 0 0 0 0 0 0 0 127 0" result="hardAlpha"/>
<feOffset dy="2"/>
<feGaussianBlur stdDeviation="2"/>
<feColorMatrix type="matrix" values="0 0 0 0 0.0627451 0 0 0 0 0.0941176 0 0 0 0 0.156863 0 0 0 0.05 0"/>
<feBlend mode="normal" in2="BackgroundImageFix" result="effect1_dropShadow_238_8146"/>
<feBlend mode="normal" in="SourceGraphic" in2="effect1_dropShadow_238_8146" result="shape"/>
</filter>
<clipPath id="clip0_238_8146">
<rect width="56" height="24.0661" fill="white" transform="translate(4.75 19.967)"/>
</clipPath>
</defs>
</svg>
