<svg width="30" height="30" viewBox="0 0 30 30" fill="none" xmlns="http://www.w3.org/2000/svg">
<circle cx="15" cy="15" r="15" fill="#00895D"/>
<path fill-rule="evenodd" clip-rule="evenodd" d="M12.5 6.25H9.6875C8.82417 6.25 8.125 6.95 8.125 7.8125V22.1875C8.125 23.05 8.825 23.75 9.6875 23.75H20.3125C21.175 23.75 21.875 23.05 21.875 22.1875V15.625C21.875 14.7962 21.5458 14.0013 20.9597 13.4153C20.3737 12.8292 19.5788 12.5 18.75 12.5H17.1875C16.7731 12.5 16.3757 12.3354 16.0826 12.0424C15.7896 11.7493 15.625 11.3519 15.625 10.9375V9.375C15.625 8.5462 15.2958 7.75134 14.7097 7.16529C14.1237 6.57924 13.3288 6.25 12.5 6.25ZM18.0083 15.3633C18.0583 15.2967 18.0945 15.2208 18.1147 15.14C18.135 15.0592 18.1388 14.9751 18.1261 14.8928C18.1134 14.8105 18.0844 14.7315 18.0407 14.6606C17.997 14.5896 17.9396 14.5281 17.8719 14.4797C17.8041 14.4313 17.7273 14.3969 17.6461 14.3785C17.5648 14.3602 17.4807 14.3583 17.3987 14.3729C17.3167 14.3875 17.2385 14.4184 17.1686 14.4637C17.0987 14.509 17.0385 14.5678 16.9917 14.6367L14.295 18.4117L12.9417 17.0583C12.8232 16.9479 12.6665 16.8878 12.5046 16.8907C12.3426 16.8935 12.1882 16.9591 12.0736 17.0736C11.9591 17.1882 11.8935 17.3426 11.8907 17.5046C11.8878 17.6665 11.9479 17.8232 12.0583 17.9417L13.9333 19.8167C13.9975 19.8808 14.0748 19.9302 14.16 19.9614C14.2451 19.9926 14.3361 20.0049 14.4265 19.9974C14.5169 19.99 14.6045 19.963 14.6834 19.9182C14.7623 19.8735 14.8305 19.8121 14.8833 19.7383L18.0083 15.3633Z" fill="white"/>
<path d="M15.8086 6.51331C16.4974 7.30744 16.8759 8.32376 16.8744 9.37497V10.9375C16.8744 11.11 17.0144 11.25 17.1869 11.25H18.7494C19.8006 11.2485 20.817 11.627 21.6111 12.3158C21.2445 10.9214 20.514 9.64939 19.4945 8.62988C18.475 7.61037 17.203 6.87994 15.8086 6.51331Z" fill="white"/>
</svg>
