<svg width="30" height="30" viewBox="0 0 30 30" fill="none" xmlns="http://www.w3.org/2000/svg">
<circle cx="15" cy="15" r="15" fill="#5B2FBD"/>
<path fill-rule="evenodd" clip-rule="evenodd" d="M12.7625 11.32C15.1625 8.23583 18.9125 6.25 23.125 6.25C23.2908 6.25 23.4497 6.31585 23.5669 6.43306C23.6842 6.55027 23.75 6.70924 23.75 6.875C23.75 11.0883 21.7642 14.8375 18.68 17.2383C18.8083 18.0419 18.7607 18.8637 18.5405 19.647C18.3203 20.4304 17.9328 21.1566 17.4047 21.7757C16.8766 22.3947 16.2205 22.8918 15.4816 23.2327C14.7427 23.5736 13.9387 23.75 13.125 23.75C12.9592 23.75 12.8003 23.6842 12.6831 23.5669C12.5658 23.4497 12.5 23.2908 12.5 23.125V19.6825C11.6899 19.0428 10.9577 18.3103 10.3183 17.5H6.875C6.70924 17.5 6.55027 17.4342 6.43306 17.3169C6.31585 17.1997 6.25 17.0408 6.25 16.875C6.24993 16.0612 6.42645 15.2571 6.76735 14.5182C7.10826 13.7792 7.60544 13.123 8.22459 12.5949C8.84374 12.0668 9.57011 11.6793 10.3536 11.4592C11.137 11.2391 11.9589 11.1916 12.7625 11.32ZM17.5 10.625C17.0027 10.625 16.5258 10.8225 16.1742 11.1742C15.8225 11.5258 15.625 12.0027 15.625 12.5C15.625 12.9973 15.8225 13.4742 16.1742 13.8258C16.5258 14.1775 17.0027 14.375 17.5 14.375C17.9973 14.375 18.4742 14.1775 18.8258 13.8258C19.1775 13.4742 19.375 12.9973 19.375 12.5C19.375 12.0027 19.1775 11.5258 18.8258 11.1742C18.4742 10.8225 17.9973 10.625 17.5 10.625Z" fill="white"/>
<path d="M9.38397 19.3683C9.4498 19.3192 9.50531 19.2577 9.54734 19.1871C9.58938 19.1166 9.6171 19.0385 9.62894 18.9572C9.64078 18.876 9.6365 18.7932 9.61635 18.7136C9.59619 18.634 9.56056 18.5591 9.51147 18.4933C9.46239 18.4275 9.40083 18.372 9.33029 18.33C9.25976 18.2879 9.18163 18.2602 9.10038 18.2484C9.01913 18.2365 8.93634 18.2408 8.85674 18.261C8.77715 18.2811 8.7023 18.3167 8.63647 18.3658C7.99722 18.8413 7.50015 19.4826 7.19904 20.2202C6.89794 20.9579 6.80426 21.7638 6.92814 22.5508C6.94829 22.6819 7.00961 22.8032 7.10324 22.8971C7.19687 22.991 7.31795 23.0528 7.44897 23.0733C8.23608 23.1971 9.04206 23.1033 9.7797 22.8021C10.5173 22.5008 11.1586 22.0036 11.634 21.3642C11.6846 21.2985 11.7217 21.2234 11.7431 21.1433C11.7644 21.0632 11.7697 20.9796 11.7584 20.8974C11.7471 20.8153 11.7196 20.7362 11.6775 20.6648C11.6354 20.5933 11.5794 20.531 11.513 20.4814C11.4465 20.4318 11.3709 20.3959 11.2904 20.3759C11.2099 20.3558 11.1263 20.352 11.0443 20.3646C10.9623 20.3771 10.8837 20.4059 10.813 20.4492C10.7422 20.4925 10.6808 20.5494 10.6323 20.6167C10.3417 21.0075 9.96362 21.3249 9.52834 21.5434C9.09307 21.7619 8.61268 21.8755 8.12564 21.875C8.12564 20.85 8.61897 19.9392 9.38397 19.3683Z" fill="white"/>
</svg>
