<svg width="30" height="30" viewBox="0 0 30 30" fill="none" xmlns="http://www.w3.org/2000/svg">
<circle cx="15" cy="15" r="15" fill="#5B2FBD"/>
<path fill-rule="evenodd" clip-rule="evenodd" d="M6.875 15C6.875 10.5125 10.5125 6.875 15 6.875C19.4875 6.875 23.125 10.5125 23.125 15C23.125 19.4875 19.4875 23.125 15 23.125C10.5125 23.125 6.875 19.4875 6.875 15ZM18.0083 13.4883C18.0583 13.4217 18.0945 13.3458 18.1147 13.265C18.135 13.1842 18.1388 13.1001 18.1261 13.0178C18.1134 12.9355 18.0844 12.8565 18.0407 12.7856C17.997 12.7146 17.9396 12.6531 17.8719 12.6047C17.8041 12.5563 17.7273 12.5219 17.6461 12.5035C17.5648 12.4852 17.4807 12.4833 17.3987 12.4979C17.3167 12.5125 17.2385 12.5434 17.1686 12.5887C17.0987 12.634 17.0385 12.6928 16.9917 12.7617L14.295 16.5367L12.9417 15.1833C12.8232 15.0729 12.6665 15.0128 12.5046 15.0157C12.3426 15.0185 12.1882 15.0841 12.0736 15.1986C11.9591 15.3132 11.8935 15.4676 11.8907 15.6296C11.8878 15.7915 11.9479 15.9482 12.0583 16.0667L13.9333 17.9417C13.9975 18.0058 14.0748 18.0552 14.16 18.0864C14.2451 18.1176 14.3361 18.1299 14.4265 18.1224C14.5169 18.115 14.6045 18.088 14.6834 18.0432C14.7623 17.9985 14.8305 17.9371 14.8833 17.8633L18.0083 13.4883Z" fill="white"/>
</svg>
