<svg width="69" height="69" viewBox="0 0 69 69" fill="none" xmlns="http://www.w3.org/2000/svg">
<rect width="68.14" height="68.14" rx="6.6208" fill="url(#paint0_linear_251_2129)"/>
<path fill-rule="evenodd" clip-rule="evenodd" d="M23.3333 15H44.6667C46.0812 15 47.4377 15.5619 48.4379 16.5621C49.4381 17.5623 50 18.9188 50 20.3333V47C50 48.4145 49.4381 49.771 48.4379 50.7712C47.4377 51.7714 46.0812 52.3333 44.6667 52.3333H23.3333C21.9188 52.3333 20.5623 51.7714 19.5621 50.7712C18.5619 49.771 18 48.4145 18 47V20.3333C18 18.9188 18.5619 17.5623 19.5621 16.5621C20.5623 15.5619 21.9188 15 23.3333 15Z" stroke="white" stroke-width="2.66667" stroke-linecap="round" stroke-linejoin="round"/>
<path d="M43.8692 52.3333L34.1492 47.1387C33.2975 46.6833 32.5854 46.0052 32.089 45.1767C31.5926 44.3482 31.3304 43.4005 31.3306 42.4347V24.8987C31.3304 23.9328 31.5926 22.9851 32.089 22.1566C32.5854 21.3282 33.2975 20.6501 34.1492 20.1947L43.8692 15" stroke="white" stroke-width="2.66667" stroke-linecap="round" stroke-linejoin="round"/>
<path d="M36.6686 36.3333C38.1414 36.3333 39.3353 35.1394 39.3353 33.6667C39.3353 32.1939 38.1414 31 36.6686 31C35.1959 31 34.002 32.1939 34.002 33.6667C34.002 35.1394 35.1959 36.3333 36.6686 36.3333Z" fill="white"/>
<defs>
<linearGradient id="paint0_linear_251_2129" x1="34.07" y1="0" x2="34.07" y2="68.14" gradientUnits="userSpaceOnUse">
<stop stop-color="#E87941"/>
<stop offset="1" stop-color="#DE3282"/>
</linearGradient>
</defs>
</svg>
