<svg width="69" height="69" viewBox="0 0 69 69" fill="none" xmlns="http://www.w3.org/2000/svg">
<rect width="68.14" height="68.14" rx="6.4" fill="url(#paint0_linear_251_2139)"/>
<path d="M19.3566 23.0344C20.3321 23.0344 21.2677 22.6469 21.9575 21.957C22.6474 21.2672 23.0349 20.3316 23.0349 19.3561C23.0349 18.3805 22.6474 17.4449 21.9575 16.7551C21.2677 16.0653 20.3321 15.6777 19.3566 15.6777C18.381 15.6777 17.4454 16.0653 16.7556 16.7551C16.0658 17.4449 15.6782 18.3805 15.6782 19.3561C15.6782 20.3316 16.0658 21.2672 16.7556 21.957C17.4454 22.6469 18.381 23.0344 19.3566 23.0344ZM21.1957 50.6219C22.6591 50.6219 24.0625 50.0406 25.0972 49.0059C26.1319 47.9711 26.7132 46.5677 26.7132 45.1044C26.7132 43.6411 26.1319 42.2377 25.0972 41.2029C24.0625 40.1682 22.6591 39.5869 21.1957 39.5869C19.7324 39.5869 18.329 40.1682 17.2943 41.2029C16.2595 42.2377 15.6782 43.6411 15.6782 45.1044C15.6782 46.5677 16.2595 47.9711 17.2943 49.0059C18.329 50.0406 19.7324 50.6219 21.1957 50.6219ZM46.9441 52.4611C48.4074 52.4611 49.8108 51.8798 50.8455 50.845C51.8802 49.8103 52.4616 48.4069 52.4616 46.9436C52.4616 45.4802 51.8802 44.0768 50.8455 43.0421C49.8108 42.0074 48.4074 41.4261 46.9441 41.4261C45.4807 41.4261 44.0773 42.0074 43.0426 43.0421C42.0079 44.0768 41.4266 45.4802 41.4266 46.9436C41.4266 48.4069 42.0079 49.8103 43.0426 50.845C44.0773 51.8798 45.4807 52.4611 46.9441 52.4611ZM32.2307 37.7477C34.1818 37.7477 36.053 36.9727 37.4327 35.593C38.8123 34.2134 39.5874 32.3422 39.5874 30.3911C39.5874 28.44 38.8123 26.5688 37.4327 25.1891C36.053 23.8095 34.1818 23.0344 32.2307 23.0344C30.2796 23.0344 28.4084 23.8095 27.0288 25.1891C25.6491 26.5688 24.8741 28.44 24.8741 30.3911C24.8741 32.3422 25.6491 34.2134 27.0288 35.593C28.4084 36.9727 30.2796 37.7477 32.2307 37.7477ZM43.2657 23.0344C44.2413 23.0344 45.1769 22.6469 45.8667 21.957C46.5565 21.2672 46.9441 20.3316 46.9441 19.3561C46.9441 18.3805 46.5565 17.4449 45.8667 16.7551C45.1769 16.0653 44.2413 15.6777 43.2657 15.6777C42.2902 15.6777 41.3546 16.0653 40.6647 16.7551C39.9749 17.4449 39.5874 18.3805 39.5874 19.3561C39.5874 20.3316 39.9749 21.2672 40.6647 21.957C41.3546 22.6469 42.2902 23.0344 43.2657 23.0344Z" stroke="white" stroke-width="3" stroke-linecap="round" stroke-linejoin="round"/>
<path d="M22.1152 22.1152L25.7936 25.7936M39.5873 23.0348L37.7482 24.874M43.2657 42.8059L37.7482 35.909M24.874 40.5069L28.5523 36.8286" stroke="white" stroke-width="3" stroke-linecap="round" stroke-linejoin="round"/>
<defs>
<linearGradient id="paint0_linear_251_2139" x1="34.07" y1="0" x2="34.07" y2="68.14" gradientUnits="userSpaceOnUse">
<stop stop-color="#BB57EA"/>
<stop offset="1" stop-color="#5E4BF5"/>
</linearGradient>
</defs>
</svg>
