<svg width="69" height="69" viewBox="0 0 69 69" fill="none" xmlns="http://www.w3.org/2000/svg">
<rect x="0.5" width="68.1387" height="68.1387" rx="6.13698" fill="url(#paint0_linear_251_2117)"/>
<path d="M47.4438 26.7127H51.1221C51.6099 26.7127 52.0777 26.9065 52.4226 27.2514C52.7675 27.5963 52.9613 28.0641 52.9613 28.5519V50.6219C52.9613 51.1097 52.7675 51.5775 52.4226 51.9224C52.0777 52.2673 51.6099 52.4611 51.1221 52.4611H36.4088C35.921 52.4611 35.4532 52.2673 35.1083 51.9224C34.7634 51.5775 34.5696 51.1097 34.5696 50.6219V48.7827H19.8563C19.3685 48.7827 18.9007 48.589 18.5558 48.2441C18.2109 47.8991 18.0171 47.4313 18.0171 46.9436V17.5169C18.0171 17.0291 18.2109 16.5613 18.5558 16.2164C18.9007 15.8715 19.3685 15.6777 19.8563 15.6777H45.6046C46.0924 15.6777 46.5602 15.8715 46.9051 16.2164C47.25 16.5613 47.4438 17.0291 47.4438 17.5169V26.7127ZM43.7654 26.7127V19.3561H21.6954V45.1044H34.5696V28.5519C34.5696 28.0641 34.7634 27.5963 35.1083 27.2514C35.4532 26.9065 35.921 26.7127 36.4088 26.7127H43.7654ZM38.2479 30.3911V48.7827H49.2829V30.3911H38.2479Z" fill="white"/>
<defs>
<linearGradient id="paint0_linear_251_2117" x1="34.5693" y1="0" x2="34.5693" y2="68.1387" gradientUnits="userSpaceOnUse">
<stop stop-color="#D579CC"/>
<stop offset="1" stop-color="#AC32A0"/>
</linearGradient>
</defs>
</svg>
