<svg width="69" height="69" viewBox="0 0 69 69" fill="none" xmlns="http://www.w3.org/2000/svg">
<rect y="0.140625" width="68.14" height="68.14" rx="6.13698" fill="url(#paint0_linear_251_2149)"/>
<path d="M45.1049 19.4961H23.9545C21.1957 19.4961 15.6782 21.3353 15.6782 26.8528C15.6782 32.3703 21.1957 34.2094 23.9545 34.2094H44.1853C46.9441 34.2094 52.4616 36.0486 52.4616 41.5661C52.4616 47.0836 46.9441 48.9228 44.1853 48.9228H23.0349" stroke="white" stroke-width="3.67833" stroke-linecap="round" stroke-linejoin="round"/>
<path d="M48.7832 23.175C49.7588 23.175 50.6944 22.7875 51.3842 22.0977C52.074 21.4078 52.4616 20.4722 52.4616 19.4967C52.4616 18.5211 52.074 17.5855 51.3842 16.8957C50.6944 16.2059 49.7588 15.8184 48.7832 15.8184C47.8077 15.8184 46.8721 16.2059 46.1822 16.8957C45.4924 17.5855 45.1049 18.5211 45.1049 19.4967C45.1049 20.4722 45.4924 21.4078 46.1822 22.0977C46.8721 22.7875 47.8077 23.175 48.7832 23.175ZM19.3566 52.6017C20.3321 52.6017 21.2677 52.2142 21.9575 51.5243C22.6474 50.8345 23.0349 49.8989 23.0349 48.9234C23.0349 47.9478 22.6474 47.0122 21.9575 46.3224C21.2677 45.6326 20.3321 45.245 19.3566 45.245C18.381 45.245 17.4454 45.6326 16.7556 46.3224C16.0658 47.0122 15.6782 47.9478 15.6782 48.9234C15.6782 49.8989 16.0658 50.8345 16.7556 51.5243C17.4454 52.2142 18.381 52.6017 19.3566 52.6017Z" stroke="white" stroke-width="3.67833" stroke-linejoin="round"/>
<defs>
<linearGradient id="paint0_linear_251_2149" x1="34.07" y1="0.140625" x2="34.07" y2="68.2806" gradientUnits="userSpaceOnUse">
<stop stop-color="#71CD98"/>
<stop offset="1" stop-color="#56AC32"/>
</linearGradient>
</defs>
</svg>
