<svg width="29" height="28" viewBox="0 0 29 28" fill="none" xmlns="http://www.w3.org/2000/svg">
<path d="M12.7621 17.5179C12.2975 17.5179 11.852 17.3333 11.5234 17.0048C11.1949 16.6763 11.0104 16.2307 11.0104 15.7661V5.40115C8.4177 5.84739 6.08652 7.2494 4.47703 9.33043C2.86754 11.4115 2.09671 14.0203 2.31669 16.6418C2.53668 19.2634 3.7315 21.7073 5.6653 23.491C7.59909 25.2747 10.1313 26.2686 12.7621 26.2765C15.246 26.2762 17.6496 25.3965 19.5468 23.7933C21.4441 22.1901 22.7124 19.9669 23.1271 17.5179H12.7621ZM11.0156 3.62664C11.9738 3.49001 12.7621 4.2888 12.7621 5.25575V15.7661H23.2725C24.2394 15.7661 25.0382 16.5544 24.9016 17.5126C24.4527 20.5759 22.8621 23.3561 20.4488 25.2954C18.0354 27.2347 14.978 28.1897 11.8899 27.9687C8.80185 27.7477 5.91159 26.367 3.79906 24.1038C1.68652 21.8405 0.508018 18.8621 0.5 15.7661C0.500155 12.8164 1.56332 9.96551 3.49464 7.73594C5.42596 5.50638 8.09607 4.04749 11.0156 3.62664ZM16.2656 12.2627V1.75229C19.0531 1.75229 21.7264 2.85963 23.6975 4.83071C25.6686 6.80179 26.7759 9.47515 26.7759 12.2627H16.2656ZM26.8846 14.0144C27.7569 14.0144 28.5084 13.3733 28.5259 12.5009L28.5277 12.2627C28.5278 10.6323 28.2027 9.01827 27.5715 7.51502C26.9403 6.01177 26.0157 4.64949 24.8517 3.50786C23.6878 2.36624 22.3078 1.4682 20.7926 0.866274C19.2774 0.264353 17.6574 -0.0293613 16.0273 0.00231467C15.155 0.019832 14.5138 0.773076 14.5138 1.64369V12.2627C14.5138 12.7273 14.6984 13.1728 15.0269 13.5013C15.3554 13.8298 15.801 14.0144 16.2656 14.0144H26.8846Z" fill="#A3A3A3"/>
</svg>
