<svg width="28" height="28" viewBox="0 0 28 28" fill="none" xmlns="http://www.w3.org/2000/svg">
<path d="M5 4C4.73478 4 4.48043 4.10536 4.29289 4.29289C4.10536 4.48043 4 4.73478 4 5C4 5.26522 4.10536 5.51957 4.29289 5.70711C4.48043 5.89464 4.73478 6 5 6H23C23.2652 6 23.5196 5.89464 23.7071 5.70711C23.8946 5.51957 24 5.26522 24 5C24 4.73478 23.8946 4.48043 23.7071 4.29289C23.5196 4.10536 23.2652 4 23 4H5ZM7 16C7.79565 16 8.55871 15.6839 9.12132 15.1213C9.68393 14.5587 10 13.7956 10 13C10 12.2044 9.68393 11.4413 9.12132 10.8787C8.55871 10.3161 7.79565 10 7 10C6.20435 10 5.44129 10.3161 4.87868 10.8787C4.31607 11.4413 4 12.2044 4 13C4 13.7956 4.31607 14.5587 4.87868 15.1213C5.44129 15.6839 6.20435 16 7 16ZM7 14C6.73478 14 6.48043 13.8946 6.29289 13.7071C6.10536 13.5196 6 13.2652 6 13C6 12.7348 6.10536 12.4804 6.29289 12.2929C6.48043 12.1054 6.73478 12 7 12C7.26522 12 7.51957 12.1054 7.70711 12.2929C7.89464 12.4804 8 12.7348 8 13C8 13.2652 7.89464 13.5196 7.70711 13.7071C7.51957 13.8946 7.26522 14 7 14ZM10 21C10 21.7956 9.68393 22.5587 9.12132 23.1213C8.55871 23.6839 7.79565 24 7 24C6.20435 24 5.44129 23.6839 4.87868 23.1213C4.31607 22.5587 4 21.7956 4 21C4 20.2044 4.31607 19.4413 4.87868 18.8787C5.44129 18.3161 6.20435 18 7 18C7.79565 18 8.55871 18.3161 9.12132 18.8787C9.68393 19.4413 10 20.2044 10 21ZM8 21C8 20.7348 7.89464 20.4804 7.70711 20.2929C7.51957 20.1054 7.26522 20 7 20C6.73478 20 6.48043 20.1054 6.29289 20.2929C6.10536 20.4804 6 20.7348 6 21C6 21.2652 6.10536 21.5196 6.29289 21.7071C6.48043 21.8946 6.73478 22 7 22C7.26522 22 7.51957 21.8946 7.70711 21.7071C7.89464 21.5196 8 21.2652 8 21ZM12 13C12 12.7348 12.1054 12.4804 12.2929 12.2929C12.4804 12.1054 12.7348 12 13 12H23C23.2652 12 23.5196 12.1054 23.7071 12.2929C23.8946 12.4804 24 12.7348 24 13C24 13.2652 23.8946 13.5196 23.7071 13.7071C23.5196 13.8946 23.2652 14 23 14H13C12.7348 14 12.4804 13.8946 12.2929 13.7071C12.1054 13.5196 12 13.2652 12 13ZM13 20C12.7348 20 12.4804 20.1054 12.2929 20.2929C12.1054 20.4804 12 20.7348 12 21C12 21.2652 12.1054 21.5196 12.2929 21.7071C12.4804 21.8946 12.7348 22 13 22H23C23.2652 22 23.5196 21.8946 23.7071 21.7071C23.8946 21.5196 24 21.2652 24 21C24 20.7348 23.8946 20.4804 23.7071 20.2929C23.5196 20.1054 23.2652 20 23 20H13ZM6 0C4.4087 0 2.88258 0.632141 1.75736 1.75736C0.632141 2.88258 0 4.4087 0 6V22C0 23.5913 0.632141 25.1174 1.75736 26.2426C2.88258 27.3679 4.4087 28 6 28H22C23.5913 28 25.1174 27.3679 26.2426 26.2426C27.3679 25.1174 28 23.5913 28 22V6C28 4.4087 27.3679 2.88258 26.2426 1.75736C25.1174 0.632141 23.5913 0 22 0H6ZM2 6C2 4.93913 2.42143 3.92172 3.17157 3.17157C3.92172 2.42143 4.93913 2 6 2H22C23.0609 2 24.0783 2.42143 24.8284 3.17157C25.5786 3.92172 26 4.93913 26 6V22C26 23.0609 25.5786 24.0783 24.8284 24.8284C24.0783 25.5786 23.0609 26 22 26H6C4.93913 26 3.92172 25.5786 3.17157 24.8284C2.42143 24.0783 2 23.0609 2 22V6Z" fill="#A3A3A3"/>
</svg>
