<svg width="29" height="28" viewBox="0 0 29 28" fill="none" xmlns="http://www.w3.org/2000/svg">
<g clip-path="url(#clip0_5613_15046)">
<path d="M5.5 15H7.5C8.03043 15 8.53914 15.2107 8.91421 15.5858C9.28929 15.9609 9.5 16.4696 9.5 17V25C9.5 25.5304 9.28929 26.0391 8.91421 26.4142C8.53914 26.7893 8.03043 27 7.5 27H3.5C2.96957 27 2.46086 26.7893 2.08579 26.4142C1.71071 26.0391 1.5 25.5304 1.5 25V14C1.5 10.5522 2.86964 7.24558 5.30761 4.80761C7.74558 2.36964 11.0522 1 14.5 1C17.9478 1 21.2544 2.36964 23.6924 4.80761C26.1304 7.24558 27.5 10.5522 27.5 14V25C27.5 25.5304 27.2893 26.0391 26.9142 26.4142C26.5391 26.7893 26.0304 27 25.5 27H21.5C20.9696 27 20.4609 26.7893 20.0858 26.4142C19.7107 26.0391 19.5 25.5304 19.5 25V17C19.5 16.4696 19.7107 15.9609 20.0858 15.5858C20.4609 15.2107 20.9696 15 21.5 15H23.5" stroke="#A3A3A3" stroke-width="2" stroke-linecap="round" stroke-linejoin="round"/>
</g>
<defs>
<clipPath id="clip0_5613_15046">
<rect width="28" height="28" fill="white" transform="translate(0.5)"/>
</clipPath>
</defs>
</svg>
