<svg width="444" height="215" viewBox="0 0 444 215" fill="none" xmlns="http://www.w3.org/2000/svg">
<rect x="81" y="138" width="35" height="35" rx="1.80445" fill="#FFF2E8"/>
<g clip-path="url(#clip0_4097_7360)">
<path d="M98.5503 169.391C98.5328 169.373 98.5153 169.356 98.4979 169.338C98.166 168.917 96.105 166.32 93.9915 163.003C93.3627 161.949 92.9435 161.107 93.0308 160.896C93.2404 160.335 96.9084 160.037 98.0263 160.545C98.3756 160.703 98.3581 160.896 98.3581 161.019C98.3581 161.528 98.3407 162.897 98.3407 162.897C98.3407 163.178 98.5677 163.406 98.8472 163.406C99.1267 163.406 99.3537 163.178 99.3537 162.897V159.492C99.3537 159.194 99.0393 159.124 98.9695 159.106C98.3756 159.106 97.1879 159.106 95.8954 159.106C93.0658 159.106 92.4195 159.229 91.9479 158.913C90.8999 158.229 89.2057 153.613 89.1533 151.016C89.1009 147.348 91.2667 144.171 94.3059 142.609C95.581 141.96 97.0132 141.609 98.5328 141.609C103.371 141.574 107.336 145.224 107.86 149.928C107.86 149.928 107.86 149.928 107.86 149.945C107.965 151.086 101.729 151.332 100.489 150.998C100.297 150.945 100.245 150.752 100.245 150.665C100.245 149.805 100.245 147.365 100.245 147.365C100.245 147.084 100.017 146.856 99.738 146.856C99.4585 146.856 99.2315 147.084 99.2315 147.365L99.2489 151.84C99.2489 152.121 99.4935 152.192 99.5633 152.209C100.262 152.209 101.904 152.209 103.441 152.209C105.502 152.209 106.375 152.455 106.952 152.894C107.336 153.192 107.476 153.753 107.353 154.473C106.166 161.002 98.8297 169.057 98.5503 169.391Z" fill="#FC8019"/>
</g>
<g filter="url(#filter0_d_4097_7360)">
<rect x="197" y="128" width="156.98" height="53.98" rx="6.49501" fill="white" shape-rendering="crispEdges"/>
<path d="M211.68 160.99V148.39H216.864C217.98 148.39 218.934 148.57 219.726 148.93C220.53 149.29 221.148 149.806 221.58 150.478C222.012 151.15 222.228 151.948 222.228 152.872C222.228 153.796 222.012 154.594 221.58 155.266C221.148 155.938 220.53 156.454 219.726 156.814C218.934 157.174 217.98 157.354 216.864 157.354H212.976L214.02 156.256V160.99H211.68ZM214.02 156.508L212.976 155.374H216.756C217.788 155.374 218.562 155.158 219.078 154.726C219.606 154.282 219.87 153.664 219.87 152.872C219.87 152.068 219.606 151.45 219.078 151.018C218.562 150.586 217.788 150.37 216.756 150.37H212.976L214.02 149.218V156.508ZM224.261 160.99V151.378H226.403V154.024L226.151 153.25C226.439 152.602 226.889 152.11 227.501 151.774C228.125 151.438 228.899 151.27 229.823 151.27V153.412C229.727 153.388 229.637 153.376 229.553 153.376C229.469 153.364 229.385 153.358 229.301 153.358C228.449 153.358 227.771 153.61 227.267 154.114C226.763 154.606 226.511 155.344 226.511 156.328V160.99H224.261ZM235.964 161.116C234.98 161.116 234.104 160.906 233.336 160.486C232.568 160.054 231.962 159.466 231.518 158.722C231.074 157.978 230.852 157.132 230.852 156.184C230.852 155.224 231.074 154.378 231.518 153.646C231.962 152.902 232.568 152.32 233.336 151.9C234.104 151.48 234.98 151.27 235.964 151.27C236.96 151.27 237.842 151.48 238.61 151.9C239.39 152.32 239.996 152.896 240.428 153.628C240.872 154.36 241.094 155.212 241.094 156.184C241.094 157.132 240.872 157.978 240.428 158.722C239.996 159.466 239.39 160.054 238.61 160.486C237.842 160.906 236.96 161.116 235.964 161.116ZM235.964 159.19C236.516 159.19 237.008 159.07 237.44 158.83C237.872 158.59 238.208 158.242 238.448 157.786C238.7 157.33 238.826 156.796 238.826 156.184C238.826 155.56 238.7 155.026 238.448 154.582C238.208 154.126 237.872 153.778 237.44 153.538C237.008 153.298 236.522 153.178 235.982 153.178C235.43 153.178 234.938 153.298 234.506 153.538C234.086 153.778 233.75 154.126 233.498 154.582C233.246 155.026 233.12 155.56 233.12 156.184C233.12 156.796 233.246 157.33 233.498 157.786C233.75 158.242 234.086 158.59 234.506 158.83C234.938 159.07 235.424 159.19 235.964 159.19ZM241.615 160.99L245.845 155.482L245.809 156.688L241.777 151.378H244.279L247.105 155.158H246.151L248.995 151.378H251.425L247.357 156.688L247.375 155.482L251.587 160.99H249.049L246.079 156.976L247.015 157.102L244.099 160.99H241.615ZM253.247 160.99V151.378H255.497V160.99H253.247ZM254.381 149.794C253.961 149.794 253.613 149.662 253.337 149.398C253.073 149.134 252.941 148.816 252.941 148.444C252.941 148.06 253.073 147.742 253.337 147.49C253.613 147.226 253.961 147.094 254.381 147.094C254.801 147.094 255.143 147.22 255.407 147.472C255.683 147.712 255.821 148.018 255.821 148.39C255.821 148.786 255.689 149.122 255.425 149.398C255.161 149.662 254.813 149.794 254.381 149.794ZM270.583 151.27C271.351 151.27 272.029 151.42 272.617 151.72C273.217 152.02 273.685 152.482 274.021 153.106C274.357 153.718 274.525 154.51 274.525 155.482V160.99H272.275V155.77C272.275 154.918 272.089 154.282 271.717 153.862C271.345 153.442 270.811 153.232 270.115 153.232C269.623 153.232 269.185 153.34 268.801 153.556C268.429 153.772 268.135 154.09 267.919 154.51C267.715 154.93 267.613 155.464 267.613 156.112V160.99H265.363V155.77C265.363 154.918 265.177 154.282 264.805 153.862C264.433 153.442 263.899 153.232 263.203 153.232C262.711 153.232 262.273 153.34 261.889 153.556C261.517 153.772 261.223 154.09 261.007 154.51C260.803 154.93 260.701 155.464 260.701 156.112V160.99H258.451V151.378H260.593V153.934L260.215 153.178C260.539 152.554 261.007 152.08 261.619 151.756C262.243 151.432 262.951 151.27 263.743 151.27C264.643 151.27 265.423 151.492 266.083 151.936C266.755 152.38 267.199 153.052 267.415 153.952L266.533 153.646C266.845 152.926 267.361 152.35 268.081 151.918C268.801 151.486 269.635 151.27 270.583 151.27ZM283.322 160.99V159.046L283.196 158.632V155.23C283.196 154.57 282.998 154.06 282.602 153.7C282.206 153.328 281.606 153.142 280.802 153.142C280.262 153.142 279.728 153.226 279.2 153.394C278.684 153.562 278.246 153.796 277.886 154.096L277.004 152.458C277.52 152.062 278.132 151.768 278.84 151.576C279.56 151.372 280.304 151.27 281.072 151.27C282.464 151.27 283.538 151.606 284.294 152.278C285.062 152.938 285.446 153.964 285.446 155.356V160.99H283.322ZM280.298 161.116C279.578 161.116 278.948 160.996 278.408 160.756C277.868 160.504 277.448 160.162 277.148 159.73C276.86 159.286 276.716 158.788 276.716 158.236C276.716 157.696 276.842 157.21 277.094 156.778C277.358 156.346 277.784 156.004 278.372 155.752C278.96 155.5 279.74 155.374 280.712 155.374H283.502V156.868H280.874C280.106 156.868 279.59 156.994 279.326 157.246C279.062 157.486 278.93 157.786 278.93 158.146C278.93 158.554 279.092 158.878 279.416 159.118C279.74 159.358 280.19 159.478 280.766 159.478C281.318 159.478 281.81 159.352 282.242 159.1C282.686 158.848 283.004 158.476 283.196 157.984L283.574 159.334C283.358 159.898 282.968 160.336 282.404 160.648C281.852 160.96 281.15 161.116 280.298 161.116ZM287.847 156.922V155.05H292.797V156.922H287.847ZM295.475 160.99V148.39H297.401L305.303 158.092H304.349V148.39H306.671V160.99H304.745L296.843 151.288H297.797V160.99H295.475ZM314.151 161.116C313.167 161.116 312.291 160.906 311.523 160.486C310.755 160.054 310.149 159.466 309.705 158.722C309.261 157.978 309.039 157.132 309.039 156.184C309.039 155.224 309.261 154.378 309.705 153.646C310.149 152.902 310.755 152.32 311.523 151.9C312.291 151.48 313.167 151.27 314.151 151.27C315.147 151.27 316.029 151.48 316.797 151.9C317.577 152.32 318.183 152.896 318.615 153.628C319.059 154.36 319.281 155.212 319.281 156.184C319.281 157.132 319.059 157.978 318.615 158.722C318.183 159.466 317.577 160.054 316.797 160.486C316.029 160.906 315.147 161.116 314.151 161.116ZM314.151 159.19C314.703 159.19 315.195 159.07 315.627 158.83C316.059 158.59 316.395 158.242 316.635 157.786C316.887 157.33 317.013 156.796 317.013 156.184C317.013 155.56 316.887 155.026 316.635 154.582C316.395 154.126 316.059 153.778 315.627 153.538C315.195 153.298 314.709 153.178 314.169 153.178C313.617 153.178 313.125 153.298 312.693 153.538C312.273 153.778 311.937 154.126 311.685 154.582C311.433 155.026 311.307 155.56 311.307 156.184C311.307 156.796 311.433 157.33 311.685 157.786C311.937 158.242 312.273 158.59 312.693 158.83C313.125 159.07 313.611 159.19 314.151 159.19ZM323.725 160.99L319.603 151.378H321.943L325.489 159.856H324.337L328.009 151.378H330.169L326.047 160.99H323.725ZM337.199 160.99V159.046L337.073 158.632V155.23C337.073 154.57 336.875 154.06 336.479 153.7C336.083 153.328 335.483 153.142 334.679 153.142C334.139 153.142 333.605 153.226 333.077 153.394C332.561 153.562 332.123 153.796 331.763 154.096L330.881 152.458C331.397 152.062 332.009 151.768 332.717 151.576C333.437 151.372 334.181 151.27 334.949 151.27C336.341 151.27 337.415 151.606 338.171 152.278C338.939 152.938 339.323 153.964 339.323 155.356V160.99H337.199ZM334.175 161.116C333.455 161.116 332.825 160.996 332.285 160.756C331.745 160.504 331.325 160.162 331.025 159.73C330.737 159.286 330.593 158.788 330.593 158.236C330.593 157.696 330.719 157.21 330.971 156.778C331.235 156.346 331.661 156.004 332.249 155.752C332.837 155.5 333.617 155.374 334.589 155.374H337.379V156.868H334.751C333.983 156.868 333.467 156.994 333.203 157.246C332.939 157.486 332.807 157.786 332.807 158.146C332.807 158.554 332.969 158.878 333.293 159.118C333.617 159.358 334.067 159.478 334.643 159.478C335.195 159.478 335.687 159.352 336.119 159.1C336.563 158.848 336.881 158.476 337.073 157.984L337.451 159.334C337.235 159.898 336.845 160.336 336.281 160.648C335.729 160.96 335.027 161.116 334.175 161.116Z" fill="black"/>
</g>
<g filter="url(#filter1_d_4097_7360)">
<path d="M34 43C34 38.5817 37.5817 35 42 35H342V88.98H42C37.5817 88.98 34 85.3983 34 80.98V43Z" fill="white" shape-rendering="crispEdges"/>
<path d="M49.8775 63.084V68.9902H48.369V55.8993H49.8775V60.7061H50.0053C50.2354 60.199 50.5806 59.7963 51.0408 59.498C51.5053 59.1955 52.1232 59.0442 52.8945 59.0442C53.5636 59.0442 54.1495 59.1784 54.6523 59.4469C55.1552 59.7111 55.5451 60.1181 55.8221 60.6678C56.1033 61.2132 56.244 61.9078 56.244 62.7516V68.9902H54.7354V62.8539C54.7354 62.074 54.533 61.4711 54.1282 61.0449C53.7276 60.6145 53.1715 60.3993 52.4599 60.3993C51.9656 60.3993 51.5224 60.5037 51.1303 60.7125C50.7425 60.9213 50.4357 61.226 50.2099 61.6266C49.9883 62.0272 49.8775 62.513 49.8775 63.084ZM63.2736 59.1721V60.4505H58.1855V59.1721H63.2736ZM59.6685 56.8198H61.177V66.1777C61.177 66.6039 61.2388 66.9235 61.3624 67.1365C61.4902 67.3453 61.6522 67.486 61.8482 67.5584C62.0485 67.6266 62.2594 67.6607 62.481 67.6607C62.6472 67.6607 62.7836 67.6522 62.8901 67.6351C62.9966 67.6138 63.0819 67.5968 63.1458 67.584L63.4526 68.9391C63.3503 68.9775 63.2076 69.0158 63.0243 69.0542C62.8411 69.0968 62.6088 69.1181 62.3276 69.1181C61.9015 69.1181 61.4838 69.0265 61.0748 68.8432C60.6699 68.66 60.3333 68.3809 60.0648 68.0059C59.8006 67.6309 59.6685 67.1578 59.6685 66.5868V56.8198ZM69.8127 59.1721V60.4505H64.7246V59.1721H69.8127ZM66.2076 56.8198H67.7161V66.1777C67.7161 66.6039 67.7779 66.9235 67.9015 67.1365C68.0293 67.3453 68.1912 67.486 68.3873 67.5584C68.5875 67.6266 68.7985 67.6607 69.0201 67.6607C69.1863 67.6607 69.3226 67.6522 69.4292 67.6351C69.5357 67.6138 69.6209 67.5968 69.6848 67.584L69.9917 68.9391C69.8894 68.9775 69.7466 69.0158 69.5634 69.0542C69.3801 69.0968 69.1479 69.1181 68.8667 69.1181C68.4405 69.1181 68.0229 69.0265 67.6138 68.8432C67.209 68.66 66.8723 68.3809 66.6039 68.0059C66.3397 67.6309 66.2076 67.1578 66.2076 66.5868V56.8198ZM72.0819 72.6721V59.1721H73.5392V60.7317H73.7182C73.829 60.5613 73.9824 60.3439 74.1784 60.0797C74.3787 59.8113 74.6642 59.5726 75.035 59.3638C75.41 59.1507 75.9171 59.0442 76.5563 59.0442C77.383 59.0442 78.1117 59.2509 78.7424 59.6642C79.373 60.0776 79.8652 60.6635 80.2189 61.4221C80.5726 62.1806 80.7495 63.0755 80.7495 64.1067C80.7495 65.1465 80.5726 66.0478 80.2189 66.8105C79.8652 67.5691 79.3752 68.1571 78.7488 68.5748C78.1223 68.9881 77.4 69.1948 76.5819 69.1948C75.9512 69.1948 75.4462 69.0904 75.0669 68.8816C74.6877 68.6685 74.3958 68.4277 74.1912 68.1593C73.9867 67.8865 73.829 67.6607 73.7182 67.4817H73.5904V72.6721H72.0819ZM73.5648 64.0811C73.5648 64.8226 73.6735 65.4767 73.8908 66.0435C74.1081 66.606 74.4256 67.0471 74.8432 67.3667C75.2608 67.682 75.7722 67.8397 76.3773 67.8397C77.008 67.8397 77.5343 67.6735 77.9561 67.3411C78.3823 67.0044 78.7019 66.5527 78.915 65.986C79.1323 65.415 79.2409 64.78 79.2409 64.0811C79.2409 63.3908 79.1344 62.7686 78.9213 62.2147C78.7125 61.6564 78.3951 61.2154 77.9689 60.8915C77.5471 60.5634 77.0165 60.3993 76.3773 60.3993C75.7637 60.3993 75.248 60.5549 74.8304 60.8659C74.4128 61.1728 74.0975 61.6032 73.8844 62.1571C73.6713 62.7069 73.5648 63.3482 73.5648 64.0811ZM90.0051 61.3709L88.65 61.7544C88.5648 61.5286 88.4391 61.3091 88.2729 61.0961C88.111 60.8787 87.8894 60.6998 87.6081 60.5591C87.3269 60.4185 86.9668 60.3482 86.5279 60.3482C85.927 60.3482 85.4263 60.4867 85.0257 60.7637C84.6294 61.0364 84.4313 61.3837 84.4313 61.8056C84.4313 62.1806 84.5676 62.4767 84.8404 62.6941C85.1131 62.9114 85.5392 63.0925 86.1188 63.2374L87.5762 63.5953C88.454 63.8084 89.1081 64.1344 89.5385 64.5733C89.9689 65.008 90.1841 65.5684 90.1841 66.2544C90.1841 66.8169 90.0222 67.3198 89.6983 67.763C89.3787 68.2061 88.9313 68.5556 88.356 68.8113C87.7807 69.0669 87.1117 69.1948 86.3489 69.1948C85.3475 69.1948 84.5186 68.9775 83.8624 68.5428C83.2061 68.1081 82.7907 67.4732 82.6159 66.638L84.0478 66.28C84.1841 66.8084 84.4419 67.2047 84.8212 67.4689C85.2047 67.7331 85.7054 67.8652 86.3233 67.8652C87.0265 67.8652 87.5847 67.7161 87.998 67.4178C88.4157 67.1152 88.6245 66.753 88.6245 66.3311C88.6245 65.9902 88.5051 65.7047 88.2665 65.4746C88.0279 65.2402 87.6614 65.0655 87.1671 64.9505L85.5307 64.5669C84.6316 64.3539 83.9711 64.0236 83.5492 63.5762C83.1316 63.1245 82.9228 62.5598 82.9228 61.8823C82.9228 61.3283 83.0783 60.8382 83.3894 60.4121C83.7047 59.986 84.133 59.6515 84.6742 59.4086C85.2196 59.1657 85.8375 59.0442 86.5279 59.0442C87.4995 59.0442 88.2623 59.2573 88.8162 59.6834C89.3745 60.1096 89.7708 60.6721 90.0051 61.3709ZM93.5543 69.0925C93.239 69.0925 92.9684 68.9796 92.7425 68.7537C92.5167 68.5279 92.4038 68.2573 92.4038 67.9419C92.4038 67.6266 92.5167 67.356 92.7425 67.1301C92.9684 66.9043 93.239 66.7914 93.5543 66.7914C93.8697 66.7914 94.1403 66.9043 94.3661 67.1301C94.592 67.356 94.7049 67.6266 94.7049 67.9419C94.7049 68.1507 94.6516 68.3425 94.5451 68.5172C94.4428 68.6919 94.3043 68.8326 94.1296 68.9391C93.9592 69.0414 93.7674 69.0925 93.5543 69.0925ZM93.5543 61.8056C93.239 61.8056 92.9684 61.6926 92.7425 61.4668C92.5167 61.2409 92.4038 60.9703 92.4038 60.655C92.4038 60.3397 92.5167 60.0691 92.7425 59.8432C92.9684 59.6174 93.239 59.5044 93.5543 59.5044C93.8697 59.5044 94.1403 59.6174 94.3661 59.8432C94.592 60.0691 94.7049 60.3397 94.7049 60.655C94.7049 60.8638 94.6516 61.0556 94.5451 61.2303C94.4428 61.405 94.3043 61.5456 94.1296 61.6522C93.9592 61.7544 93.7674 61.8056 93.5543 61.8056ZM102.04 55.2857L97.821 70.959H96.4403L100.659 55.2857H102.04ZM108.456 55.2857L104.237 70.959H102.856L107.075 55.2857H108.456ZM112.468 68.9902L109.477 59.1721H111.062L113.184 66.6891H113.287L115.383 59.1721H116.994L119.065 66.6635H119.167L121.289 59.1721H122.875L119.883 68.9902H118.4L116.252 61.4476H116.099L113.951 68.9902H112.468ZM127.093 68.9902L124.102 59.1721H125.687L127.809 66.6891H127.912L130.008 59.1721H131.619L133.69 66.6635H133.792L135.914 59.1721H137.5L134.508 68.9902H133.025L130.877 61.4476H130.724L128.576 68.9902H127.093ZM141.718 68.9902L138.727 59.1721H140.312L142.434 66.6891H142.537L144.633 59.1721H146.244L148.315 66.6635H148.417L150.539 59.1721H152.125L149.133 68.9902H147.65L145.502 61.4476H145.349L143.201 68.9902H141.718ZM153.882 69.0925C153.567 69.0925 153.297 68.9796 153.071 68.7537C152.845 68.5279 152.732 68.2573 152.732 67.9419C152.732 67.6266 152.845 67.356 153.071 67.1301C153.297 66.9043 153.567 66.7914 153.882 66.7914C154.198 66.7914 154.468 66.9043 154.694 67.1301C154.92 67.356 155.033 67.6266 155.033 67.9419C155.033 68.1507 154.98 68.3425 154.873 68.5172C154.771 68.6919 154.632 68.8326 154.458 68.9391C154.287 69.0414 154.096 69.0925 153.882 69.0925ZM164.695 61.3709L163.339 61.7544C163.254 61.5286 163.129 61.3091 162.962 61.0961C162.8 60.8787 162.579 60.6998 162.298 60.5591C162.016 60.4185 161.656 60.3482 161.217 60.3482C160.616 60.3482 160.116 60.4867 159.715 60.7637C159.319 61.0364 159.121 61.3837 159.121 61.8056C159.121 62.1806 159.257 62.4767 159.53 62.6941C159.803 62.9114 160.229 63.0925 160.808 63.2374L162.266 63.5953C163.143 63.8084 163.798 64.1344 164.228 64.5733C164.658 65.008 164.874 65.5684 164.874 66.2544C164.874 66.8169 164.712 67.3198 164.388 67.763C164.068 68.2061 163.621 68.5556 163.045 68.8113C162.47 69.0669 161.801 69.1948 161.038 69.1948C160.037 69.1948 159.208 68.9775 158.552 68.5428C157.896 68.1081 157.48 67.4732 157.305 66.638L158.737 66.28C158.874 66.8084 159.131 67.2047 159.511 67.4689C159.894 67.7331 160.395 67.8652 161.013 67.8652C161.716 67.8652 162.274 67.7161 162.688 67.4178C163.105 67.1152 163.314 66.753 163.314 66.3311C163.314 65.9902 163.195 65.7047 162.956 65.4746C162.717 65.2402 162.351 65.0655 161.857 64.9505L160.22 64.5669C159.321 64.3539 158.661 64.0236 158.239 63.5762C157.821 63.1245 157.612 62.5598 157.612 61.8823C157.612 61.3283 157.768 60.8382 158.079 60.4121C158.394 59.986 158.822 59.6515 159.364 59.4086C159.909 59.1657 160.527 59.0442 161.217 59.0442C162.189 59.0442 162.952 59.2573 163.506 59.6834C164.064 60.1096 164.46 60.6721 164.695 61.3709ZM169.369 68.9902L166.377 59.1721H167.963L170.085 66.6891H170.187L172.284 59.1721H173.894L175.965 66.6635H176.068L178.19 59.1721H179.775L176.784 68.9902H175.301L173.153 61.4476H172.999L170.852 68.9902H169.369ZM181.769 68.9902V59.1721H183.278V68.9902H181.769ZM182.536 57.5357C182.242 57.5357 181.989 57.4355 181.776 57.2353C181.567 57.035 181.463 56.7942 181.463 56.513C181.463 56.2317 181.567 55.9909 181.776 55.7907C181.989 55.5904 182.242 55.4902 182.536 55.4902C182.83 55.4902 183.082 55.5904 183.291 55.7907C183.504 55.9909 183.61 56.2317 183.61 56.513C183.61 56.7942 183.504 57.035 183.291 57.2353C183.082 57.4355 182.83 57.5357 182.536 57.5357ZM190.004 72.8766C189.275 72.8766 188.649 72.7828 188.125 72.5953C187.6 72.4121 187.164 72.1692 186.814 71.8667C186.469 71.5684 186.194 71.2488 185.99 70.9078L187.191 70.0641C187.328 70.2431 187.5 70.4476 187.709 70.6777C187.918 70.9121 188.203 71.1145 188.566 71.285C188.932 71.4597 189.412 71.5471 190.004 71.5471C190.797 71.5471 191.451 71.3553 191.966 70.9718C192.482 70.5882 192.74 69.9874 192.74 69.1692V67.1749H192.612C192.501 67.3539 192.343 67.5755 192.139 67.8397C191.939 68.0996 191.649 68.3319 191.27 68.5364C190.895 68.7367 190.387 68.8368 189.748 68.8368C188.956 68.8368 188.244 68.6493 187.613 68.2743C186.987 67.8993 186.49 67.3539 186.124 66.638C185.762 65.9221 185.581 65.0527 185.581 64.03C185.581 63.0243 185.757 62.1486 186.111 61.4029C186.465 60.6529 186.957 60.0733 187.588 59.6642C188.218 59.2509 188.947 59.0442 189.774 59.0442C190.413 59.0442 190.92 59.1507 191.295 59.3638C191.674 59.5726 191.964 59.8113 192.164 60.0797C192.369 60.3439 192.527 60.5613 192.637 60.7317H192.791V59.1721H194.248V69.2715C194.248 70.1152 194.056 70.8013 193.673 71.3297C193.294 71.8624 192.782 72.2523 192.139 72.4995C191.5 72.7509 190.788 72.8766 190.004 72.8766ZM189.953 67.4817C190.558 67.4817 191.069 67.3432 191.487 67.0662C191.904 66.7892 192.222 66.3908 192.439 65.8709C192.657 65.351 192.765 64.7289 192.765 64.0044C192.765 63.2971 192.659 62.6728 192.446 62.1316C192.233 61.5904 191.917 61.1664 191.5 60.8596C191.082 60.5527 190.566 60.3993 189.953 60.3993C189.314 60.3993 188.781 60.5613 188.355 60.8851C187.933 61.209 187.615 61.6436 187.402 62.1891C187.194 62.7346 187.089 63.3397 187.089 64.0044C187.089 64.6863 187.196 65.2892 187.409 65.8134C187.626 66.3333 187.946 66.7424 188.368 67.0407C188.794 67.3347 189.322 67.4817 189.953 67.4817ZM200.973 72.8766C200.244 72.8766 199.618 72.7828 199.093 72.5953C198.569 72.4121 198.132 72.1692 197.783 71.8667C197.438 71.5684 197.163 71.2488 196.958 70.9078L198.16 70.0641C198.297 70.2431 198.469 70.4476 198.678 70.6777C198.887 70.9121 199.172 71.1145 199.534 71.285C199.901 71.4597 200.38 71.5471 200.973 71.5471C201.765 71.5471 202.419 71.3553 202.935 70.9718C203.451 70.5882 203.708 69.9874 203.708 69.1692V67.1749H203.581C203.47 67.3539 203.312 67.5755 203.108 67.8397C202.907 68.0996 202.618 68.3319 202.238 68.5364C201.863 68.7367 201.356 68.8368 200.717 68.8368C199.924 68.8368 199.213 68.6493 198.582 68.2743C197.956 67.8993 197.459 67.3539 197.093 66.638C196.73 65.9221 196.549 65.0527 196.549 64.03C196.549 63.0243 196.726 62.1486 197.08 61.4029C197.434 60.6529 197.926 60.0733 198.556 59.6642C199.187 59.2509 199.916 59.0442 200.743 59.0442C201.382 59.0442 201.889 59.1507 202.264 59.3638C202.643 59.5726 202.933 59.8113 203.133 60.0797C203.338 60.3439 203.495 60.5613 203.606 60.7317H203.76V59.1721H205.217V69.2715C205.217 70.1152 205.025 70.8013 204.642 71.3297C204.262 71.8624 203.751 72.2523 203.108 72.4995C202.468 72.7509 201.757 72.8766 200.973 72.8766ZM200.922 67.4817C201.527 67.4817 202.038 67.3432 202.456 67.0662C202.873 66.7892 203.191 66.3908 203.408 65.8709C203.625 65.351 203.734 64.7289 203.734 64.0044C203.734 63.2971 203.627 62.6728 203.414 62.1316C203.201 61.5904 202.886 61.1664 202.468 60.8596C202.051 60.5527 201.535 60.3993 200.922 60.3993C200.282 60.3993 199.75 60.5613 199.324 60.8851C198.902 61.209 198.584 61.6436 198.371 62.1891C198.162 62.7346 198.058 63.3397 198.058 64.0044C198.058 64.6863 198.164 65.2892 198.377 65.8134C198.595 66.3333 198.914 66.7424 199.336 67.0407C199.762 67.3347 200.291 67.4817 200.922 67.4817ZM208.95 72.6721C208.694 72.6721 208.466 72.6507 208.266 72.6081C208.066 72.5698 207.927 72.5314 207.85 72.4931L208.234 71.1635C208.6 71.2573 208.924 71.2914 209.206 71.2658C209.487 71.2402 209.736 71.1145 209.953 70.8887C210.175 70.6671 210.377 70.307 210.561 69.8084L210.842 69.0414L207.211 59.1721H208.848L211.558 66.9959H211.66L214.37 59.1721H216.007L211.839 70.4221C211.652 70.9292 211.419 71.3489 211.142 71.6813C210.865 72.0179 210.544 72.2672 210.177 72.4292C209.815 72.5911 209.406 72.6721 208.95 72.6721ZM218.482 69.0925C218.167 69.0925 217.896 68.9796 217.67 68.7537C217.444 68.5279 217.331 68.2573 217.331 67.9419C217.331 67.6266 217.444 67.356 217.67 67.1301C217.896 66.9043 218.167 66.7914 218.482 66.7914C218.797 66.7914 219.068 66.9043 219.294 67.1301C219.52 67.356 219.633 67.6266 219.633 67.9419C219.633 68.1507 219.579 68.3425 219.473 68.5172C219.371 68.6919 219.232 68.8326 219.057 68.9391C218.887 69.0414 218.695 69.0925 218.482 69.0925ZM226.328 69.1948C225.408 69.1948 224.615 68.9775 223.95 68.5428C223.286 68.1081 222.774 67.5094 222.416 66.7466C222.058 65.9838 221.879 65.1124 221.879 64.1323C221.879 63.1351 222.063 62.2551 222.429 61.4924C222.8 60.7253 223.316 60.1266 223.976 59.6962C224.641 59.2615 225.416 59.0442 226.303 59.0442C226.993 59.0442 227.615 59.1721 228.169 59.4277C228.723 59.6834 229.177 60.0414 229.531 60.5016C229.884 60.9618 230.104 61.4988 230.189 62.1124H228.681C228.566 61.665 228.31 61.2686 227.914 60.9235C227.521 60.574 226.993 60.3993 226.328 60.3993C225.74 60.3993 225.225 60.5527 224.781 60.8596C224.343 61.1621 223.999 61.5904 223.752 62.1444C223.509 62.6941 223.388 63.3397 223.388 64.0811C223.388 64.8397 223.507 65.5002 223.746 66.0627C223.989 66.6252 224.33 67.062 224.769 67.373C225.212 67.6841 225.732 67.8397 226.328 67.8397C226.72 67.8397 227.076 67.7715 227.396 67.6351C227.715 67.4988 227.986 67.3027 228.208 67.0471C228.429 66.7914 228.587 66.4846 228.681 66.1266H230.189C230.104 66.7061 229.893 67.2282 229.556 67.6926C229.224 68.1529 228.783 68.5194 228.233 68.7921C227.688 69.0605 227.053 69.1948 226.328 69.1948ZM236.383 69.1948C235.497 69.1948 234.719 68.9838 234.05 68.562C233.385 68.1401 232.865 67.5499 232.49 66.7914C232.119 66.0328 231.934 65.1465 231.934 64.1323C231.934 63.1096 232.119 62.2168 232.49 61.454C232.865 60.6912 233.385 60.0989 234.05 59.677C234.719 59.2551 235.497 59.0442 236.383 59.0442C237.269 59.0442 238.045 59.2551 238.71 59.677C239.379 60.0989 239.899 60.6912 240.269 61.454C240.644 62.2168 240.832 63.1096 240.832 64.1323C240.832 65.1465 240.644 66.0328 240.269 66.7914C239.899 67.5499 239.379 68.1401 238.71 68.562C238.045 68.9838 237.269 69.1948 236.383 69.1948ZM236.383 67.8397C237.056 67.8397 237.61 67.6671 238.045 67.3219C238.48 66.9767 238.801 66.5229 239.01 65.9604C239.219 65.3979 239.323 64.7885 239.323 64.1323C239.323 63.476 239.219 62.8645 239.01 62.2978C238.801 61.731 238.48 61.2729 238.045 60.9235C237.61 60.574 237.056 60.3993 236.383 60.3993C235.71 60.3993 235.156 60.574 234.721 60.9235C234.286 61.2729 233.965 61.731 233.756 62.2978C233.547 62.8645 233.443 63.476 233.443 64.1323C233.443 64.7885 233.547 65.3979 233.756 65.9604C233.965 66.5229 234.286 66.9767 234.721 67.3219C235.156 67.6671 235.71 67.8397 236.383 67.8397ZM243.135 68.9902V59.1721H244.592V60.7061H244.72C244.924 60.182 245.255 59.775 245.711 59.4853C246.167 59.1912 246.714 59.0442 247.353 59.0442C248.001 59.0442 248.54 59.1912 248.971 59.4853C249.405 59.775 249.744 60.182 249.987 60.7061H250.089C250.341 60.199 250.718 59.7963 251.221 59.498C251.723 59.1955 252.326 59.0442 253.029 59.0442C253.907 59.0442 254.625 59.3191 255.184 59.8688C255.742 60.4142 256.021 61.2644 256.021 62.4192V68.9902H254.512V62.4192C254.512 61.6948 254.314 61.177 253.918 60.8659C253.522 60.5549 253.055 60.3993 252.518 60.3993C251.828 60.3993 251.293 60.6081 250.914 61.0257C250.534 61.4391 250.345 61.9632 250.345 62.5982V68.9902H248.811V62.2658C248.811 61.7076 248.63 61.258 248.267 60.9171C247.905 60.5719 247.439 60.3993 246.868 60.3993C246.475 60.3993 246.109 60.5037 245.768 60.7125C245.431 60.9213 245.159 61.2111 244.95 61.5819C244.745 61.9483 244.643 62.3723 244.643 62.8539V68.9902H243.135ZM263.407 55.2857L259.188 70.959H257.808L262.026 55.2857H263.407Z" fill="black"/>
<a href="https://www.swiggy.com/">
<rect fill="black" fill-opacity="0" y="3.10795" width="216.828" height="21.7841"/>
</a>
</g>
<path d="M342 35H435C439.418 35 443 38.5817 443 43V80.98C443 85.3983 439.418 88.98 435 88.98H342V35Z" fill="#4F3895"/>
<path d="M363.585 68V54.9091H371.435V56.3153H365.17V60.7386H370.847V62.1449H365.17V68H363.585ZM374.51 68V54.9091H382.41V56.3153H376.095V60.7386H382.001V62.1449H376.095V66.5938H382.513V68H374.51ZM384.912 56.3153V54.9091H394.73V56.3153H390.613V68H389.028V56.3153H384.912ZM407.525 59H405.94C405.847 58.544 405.682 58.1435 405.448 57.7983C405.218 57.4531 404.937 57.1634 404.604 56.929C404.276 56.6903 403.912 56.5114 403.511 56.392C403.111 56.2727 402.693 56.2131 402.258 56.2131C401.466 56.2131 400.748 56.4134 400.104 56.8139C399.465 57.2145 398.956 57.8047 398.577 58.5845C398.202 59.3643 398.014 60.321 398.014 61.4545C398.014 62.5881 398.202 63.5447 398.577 64.3246C398.956 65.1044 399.465 65.6946 400.104 66.0952C400.748 66.4957 401.466 66.696 402.258 66.696C402.693 66.696 403.111 66.6364 403.511 66.517C403.912 66.3977 404.276 66.2209 404.604 65.9865C404.937 65.7479 405.218 65.456 405.448 65.1108C405.682 64.7614 405.847 64.3608 405.94 63.9091H407.525C407.406 64.5781 407.189 65.1768 406.874 65.7053C406.558 66.2337 406.166 66.6832 405.697 67.054C405.229 67.4205 404.702 67.6996 404.119 67.8913C403.539 68.0831 402.919 68.179 402.258 68.179C401.142 68.179 400.149 67.9062 399.28 67.3608C398.41 66.8153 397.726 66.0398 397.228 65.0341C396.729 64.0284 396.48 62.8352 396.48 61.4545C396.48 60.0739 396.729 58.8807 397.228 57.875C397.726 56.8693 398.41 56.0938 399.28 55.5483C400.149 55.0028 401.142 54.7301 402.258 54.7301C402.919 54.7301 403.539 54.826 404.119 55.0178C404.702 55.2095 405.229 55.4908 405.697 55.8615C406.166 56.228 406.558 56.6754 406.874 57.2038C407.189 57.728 407.406 58.3267 407.525 59ZM410.447 68V54.9091H412.032V60.7386H419.012V54.9091H420.598V68H419.012V62.1449H412.032V68H410.447Z" fill="white"/>
<path d="M419.183 53C419.66 53 420.118 53.1903 420.455 53.529C420.792 53.8677 420.982 54.327 420.982 54.806V60.8261C420.982 61.3051 420.792 61.7644 420.455 62.1031C420.118 62.4418 419.66 62.6321 419.183 62.6321C418.707 62.6321 418.249 62.4418 417.912 62.1031C417.575 61.7644 417.385 61.3051 417.385 60.8261V54.806C417.385 54.327 417.575 53.8677 417.912 53.529C418.249 53.1903 418.707 53 419.183 53ZM407.723 57.7438C408.06 57.4056 408.517 57.2156 408.994 57.2156C409.47 57.2156 409.927 57.4056 410.265 57.7438L414.46 61.9579C414.637 62.1232 414.779 62.3226 414.877 62.5441C414.975 62.7657 415.028 63.0048 415.032 63.2473C415.037 63.4898 414.992 63.7307 414.902 63.9556C414.811 64.1804 414.677 64.3847 414.506 64.5562C414.335 64.7277 414.132 64.8629 413.908 64.9537C413.684 65.0446 413.444 65.0892 413.203 65.0849C412.961 65.0806 412.723 65.0276 412.503 64.9288C412.282 64.8301 412.083 64.6878 411.919 64.5104L407.723 60.2963C407.386 59.9577 407.197 59.4987 407.197 59.0201C407.197 58.5415 407.386 58.0824 407.723 57.7438ZM430.644 57.7438C430.98 58.0824 431.17 58.5415 431.17 59.0201C431.17 59.4987 430.98 59.9577 430.644 60.2963L426.448 64.5104C426.283 64.6878 426.085 64.8301 425.864 64.9288C425.644 65.0276 425.406 65.0806 425.164 65.0849C424.923 65.0892 424.683 65.0446 424.459 64.9537C424.235 64.8629 424.032 64.7277 423.861 64.5562C423.69 64.3847 423.556 64.1804 423.465 63.9556C423.375 63.7307 423.33 63.4898 423.335 63.2473C423.339 63.0048 423.392 62.7657 423.49 62.5441C423.588 62.3226 423.73 62.1232 423.907 61.9579L428.102 57.7438C428.439 57.4056 428.896 57.2156 429.373 57.2156C429.85 57.2156 430.307 57.4056 430.644 57.7438ZM403 69.2542C403 68.7752 403.189 68.3158 403.527 67.9771C403.864 67.6384 404.321 67.4482 404.798 67.4482H410.792C411.269 67.4482 411.726 67.6384 412.064 67.9771C412.401 68.3158 412.59 68.7752 412.59 69.2542C412.59 69.7332 412.401 70.1925 412.064 70.5312C411.726 70.8699 411.269 71.0602 410.792 71.0602H404.798C404.321 71.0602 403.864 70.8699 403.527 70.5312C403.189 70.1925 403 69.7332 403 69.2542ZM417.385 71.0289C417.385 68.3151 420.555 66.851 422.605 68.6185L442.89 86.0815C445.072 87.9598 443.83 91.5501 440.96 91.6681L431.754 92.0365C430.764 92.0751 429.833 92.5182 429.172 93.2574L422.904 100.294C420.97 102.468 417.385 101.091 417.385 98.1746V71.0313V71.0289Z" fill="#A58CF0"/>
<rect y="85" width="70" height="70" rx="3.60891" fill="#FFF2E8"/>
<g clip-path="url(#clip1_4097_7360)">
<path d="M35.0888 147.783C35.0539 147.748 35.019 147.712 34.984 147.677C34.3203 146.835 30.1982 141.64 25.9713 135.006C24.7137 132.9 23.8753 131.215 24.05 130.794C24.4692 129.671 31.8051 129.074 34.0408 130.092C34.7395 130.408 34.7046 130.794 34.7046 131.04C34.7046 132.058 34.6696 134.795 34.6696 134.795C34.6696 135.357 35.1238 135.813 35.6827 135.813C36.2416 135.813 36.6958 135.357 36.6958 134.795V127.986C36.6958 127.389 36.067 127.249 35.9272 127.214C34.7395 127.214 32.3641 127.214 29.779 127.214C24.1198 127.214 22.8273 127.459 21.8841 126.828C19.7881 125.459 16.3996 116.227 16.2948 111.032C16.19 103.696 20.5217 97.343 26.6001 94.219C29.1502 92.9203 32.0147 92.2183 35.0539 92.2183C44.7304 92.1481 52.6602 99.449 53.7082 108.856C53.7082 108.856 53.7082 108.856 53.7082 108.891C53.9178 111.173 41.4467 111.664 38.9664 110.997C38.5821 110.892 38.4773 110.506 38.4773 110.33C38.4773 108.61 38.4773 103.731 38.4773 103.731C38.4773 103.17 38.0232 102.713 37.4643 102.713C36.9054 102.713 36.4512 103.17 36.4512 103.731L36.4862 112.682C36.4862 113.244 36.9752 113.384 37.115 113.419C38.5123 113.419 41.796 113.419 44.8701 113.419C48.9922 113.419 50.7389 113.91 51.8917 114.788C52.6602 115.385 52.9396 116.508 52.6951 117.947C50.3197 131.005 35.6478 147.116 35.0888 147.783Z" fill="#FC8019"/>
</g>
<defs>
<filter id="filter0_d_4097_7360" x="190.505" y="124.752" width="169.97" height="66.97" filterUnits="userSpaceOnUse" color-interpolation-filters="sRGB">
<feFlood flood-opacity="0" result="BackgroundImageFix"/>
<feColorMatrix in="SourceAlpha" type="matrix" values="0 0 0 0 0 0 0 0 0 0 0 0 0 0 0 0 0 0 127 0" result="hardAlpha"/>
<feOffset dy="3.2475"/>
<feGaussianBlur stdDeviation="3.2475"/>
<feComposite in2="hardAlpha" operator="out"/>
<feColorMatrix type="matrix" values="0 0 0 0 0 0 0 0 0 0 0 0 0 0 0 0 0 0 0.1 0"/>
<feBlend mode="normal" in2="BackgroundImageFix" result="effect1_dropShadow_4097_7360"/>
<feBlend mode="normal" in="SourceGraphic" in2="effect1_dropShadow_4097_7360" result="shape"/>
</filter>
<filter id="filter1_d_4097_7360" x="27.505" y="31.7525" width="320.99" height="66.97" filterUnits="userSpaceOnUse" color-interpolation-filters="sRGB">
<feFlood flood-opacity="0" result="BackgroundImageFix"/>
<feColorMatrix in="SourceAlpha" type="matrix" values="0 0 0 0 0 0 0 0 0 0 0 0 0 0 0 0 0 0 127 0" result="hardAlpha"/>
<feOffset dy="3.2475"/>
<feGaussianBlur stdDeviation="3.2475"/>
<feComposite in2="hardAlpha" operator="out"/>
<feColorMatrix type="matrix" values="0 0 0 0 0 0 0 0 0 0 0 0 0 0 0 0 0 0 0.1 0"/>
<feBlend mode="normal" in2="BackgroundImageFix" result="effect1_dropShadow_4097_7360"/>
<feBlend mode="normal" in="SourceGraphic" in2="effect1_dropShadow_4097_7360" result="shape"/>
</filter>
<clipPath id="clip0_4097_7360">
<rect width="18.7067" height="27.7822" fill="white" transform="translate(89.1484 141.609)"/>
</clipPath>
<clipPath id="clip1_4097_7360">
<rect width="37.4133" height="55.5644" fill="white" transform="translate(16.293 92.2178)"/>
</clipPath>
</defs>
</svg>
