<svg width="376" height="220" viewBox="0 0 376 220" fill="none" xmlns="http://www.w3.org/2000/svg">
<g filter="url(#filter0_dd_4097_7363)">
<g clip-path="url(#clip0_4097_7363)">
<rect x="6" y="2.91992" width="338.859" height="208.16" rx="8.53598" fill="white"/>
<path d="M26.2829 30.1416C25.9484 30.1416 25.6894 30.0499 25.506 29.8664C25.3225 29.6722 25.2308 29.4078 25.2308 29.0733V19.7333C25.2308 19.3879 25.3171 19.129 25.4898 18.9563C25.6732 18.7728 25.9322 18.6811 26.2668 18.6811C26.6013 18.6811 26.8549 18.7728 27.0276 18.9563C27.211 19.129 27.3027 19.3879 27.3027 19.7333V28.3772H31.997C32.2884 28.3772 32.5096 28.4527 32.6607 28.6038C32.8226 28.7549 32.9035 28.9707 32.9035 29.2513C32.9035 29.5319 32.8226 29.7531 32.6607 29.915C32.5096 30.0661 32.2884 30.1416 31.997 30.1416H26.2829ZM37.9481 30.3035C37.0524 30.3035 36.2808 30.1362 35.6333 29.8017C34.9858 29.4671 34.484 28.9923 34.1279 28.3772C33.7826 27.7621 33.6099 27.0337 33.6099 26.1919C33.6099 25.3718 33.7772 24.6542 34.1117 24.0391C34.457 23.4239 34.9265 22.9437 35.52 22.5984C36.1243 22.2423 36.8096 22.0642 37.5758 22.0642C38.1369 22.0642 38.6387 22.1559 39.0812 22.3394C39.5344 22.5229 39.9175 22.7872 40.2304 23.1326C40.5542 23.4779 40.797 23.8988 40.9589 24.3952C41.1315 24.8808 41.2179 25.4311 41.2179 26.0463C41.2179 26.2405 41.1477 26.3916 41.0074 26.4995C40.8779 26.5966 40.6891 26.6452 40.4409 26.6452H35.2448V25.4797H39.7934L39.5344 25.7225C39.5344 25.2261 39.4589 24.8106 39.3078 24.4761C39.1675 24.1416 38.9571 23.888 38.6765 23.7153C38.4067 23.5319 38.0668 23.4401 37.6567 23.4401C37.2034 23.4401 36.815 23.548 36.4912 23.7639C36.1783 23.9689 35.9355 24.2657 35.7628 24.6542C35.6009 25.0319 35.52 25.4851 35.52 26.0139V26.1272C35.52 27.0121 35.725 27.6758 36.1351 28.1182C36.556 28.5499 37.1711 28.7657 37.9804 28.7657C38.261 28.7657 38.574 28.7333 38.9193 28.6686C39.2754 28.593 39.6099 28.4689 39.9229 28.2963C40.1495 28.1668 40.3491 28.1128 40.5218 28.1344C40.6945 28.1452 40.8294 28.2045 40.9265 28.3125C41.0344 28.4204 41.0991 28.5553 41.1207 28.7171C41.1423 28.8682 41.1099 29.0247 41.0236 29.1866C40.9481 29.3484 40.8132 29.4887 40.6189 29.6074C40.2412 29.8448 39.8042 30.0229 39.3078 30.1416C38.8222 30.2495 38.3689 30.3035 37.9481 30.3035ZM45.4264 30.3035C44.8544 30.3035 44.3418 30.1956 43.8886 29.9797C43.4462 29.7531 43.0954 29.451 42.8364 29.0733C42.5882 28.6956 42.4641 28.2693 42.4641 27.7945C42.4641 27.2117 42.6152 26.7531 42.9174 26.4186C43.2195 26.0732 43.7105 25.825 44.3904 25.674C45.0703 25.5229 45.9821 25.4473 47.126 25.4473H47.9354V26.6128H47.1422C46.4732 26.6128 45.939 26.6452 45.5397 26.7099C45.1404 26.7747 44.8544 26.888 44.6818 27.0499C44.5199 27.2009 44.439 27.4168 44.439 27.6973C44.439 28.0535 44.5631 28.3448 44.8113 28.5714C45.0595 28.7981 45.4048 28.9114 45.8472 28.9114C46.2034 28.9114 46.5163 28.8304 46.7861 28.6686C47.0667 28.4959 47.2879 28.2639 47.4498 27.9725C47.6116 27.6812 47.6926 27.3466 47.6926 26.9689V25.1074C47.6926 24.5678 47.5739 24.1793 47.3365 23.9419C47.0991 23.7045 46.6998 23.5858 46.1386 23.5858C45.8257 23.5858 45.4857 23.6236 45.1188 23.6991C44.7627 23.7747 44.385 23.9042 43.9857 24.0876C43.7807 24.1847 43.5972 24.2117 43.4354 24.1685C43.2843 24.1254 43.1656 24.0391 43.0792 23.9096C42.9929 23.7693 42.9498 23.6182 42.9498 23.4563C42.9498 23.2944 42.9929 23.138 43.0792 22.9869C43.1656 22.825 43.3113 22.7063 43.5163 22.6308C44.0127 22.4257 44.4875 22.28 44.9408 22.1937C45.4048 22.1074 45.8257 22.0642 46.2034 22.0642C46.9803 22.0642 47.617 22.1829 48.1134 22.4203C48.6206 22.6577 48.9983 23.0193 49.2465 23.5049C49.4947 23.9797 49.6189 24.5948 49.6189 25.3502V29.2351C49.6189 29.5697 49.5379 29.8287 49.376 30.0121C49.2142 30.1848 48.9822 30.2711 48.68 30.2711C48.3778 30.2711 48.1404 30.1848 47.9678 30.0121C47.8059 29.8287 47.725 29.5697 47.725 29.2351V28.4581H47.8545C47.7789 28.8358 47.6278 29.165 47.4012 29.4456C47.1854 29.7153 46.9102 29.9258 46.5757 30.0769C46.2411 30.2279 45.858 30.3035 45.4264 30.3035ZM54.7158 30.3035C54.0251 30.3035 53.4154 30.1362 52.8866 29.8017C52.3686 29.4671 51.964 28.9923 51.6726 28.3772C51.3812 27.7513 51.2355 27.0175 51.2355 26.1758C51.2355 25.3232 51.3812 24.5948 51.6726 23.9905C51.964 23.3754 52.3686 22.9006 52.8866 22.566C53.4154 22.2315 54.0251 22.0642 54.7158 22.0642C55.3741 22.0642 55.946 22.2261 56.4316 22.5498C56.928 22.8736 57.2626 23.2998 57.4352 23.8286H57.2572V19.62C57.2572 19.2854 57.3435 19.0318 57.5161 18.8592C57.6888 18.6865 57.937 18.6002 58.2608 18.6002C58.5845 18.6002 58.8327 18.6865 59.0054 18.8592C59.1888 19.0318 59.2805 19.2854 59.2805 19.62V29.2351C59.2805 29.5697 59.1942 29.8287 59.0216 30.0121C58.8489 30.1848 58.6007 30.2711 58.2769 30.2711C57.9532 30.2711 57.705 30.1848 57.5323 30.0121C57.3597 29.8287 57.2733 29.5697 57.2733 29.2351V27.9725L57.4514 28.4581C57.2895 29.0193 56.9604 29.4671 56.464 29.8017C55.9676 30.1362 55.3848 30.3035 54.7158 30.3035ZM55.2823 28.7657C55.6816 28.7657 56.0323 28.6686 56.3345 28.4743C56.6366 28.2801 56.8687 27.9941 57.0305 27.6164C57.2032 27.2279 57.2895 26.7477 57.2895 26.1758C57.2895 25.3124 57.1061 24.6704 56.7392 24.2495C56.3723 23.8178 55.8866 23.602 55.2823 23.602C54.883 23.602 54.5323 23.6991 54.2302 23.8934C53.928 24.0768 53.6906 24.3628 53.5179 24.7513C53.3561 25.129 53.2751 25.6038 53.2751 26.1758C53.2751 27.0283 53.4586 27.6758 53.8255 28.1182C54.1924 28.5499 54.678 28.7657 55.2823 28.7657ZM71.2767 30.3035C70.0897 30.3035 69.0699 30.0661 68.2174 29.5912C67.3756 29.1056 66.7281 28.4258 66.2749 27.5517C65.8217 26.6668 65.595 25.6254 65.595 24.4275C65.595 23.5319 65.7245 22.7279 65.9835 22.0157C66.2425 21.2926 66.6148 20.6775 67.1004 20.1703C67.5861 19.6523 68.1796 19.2585 68.881 18.9887C69.5933 18.7081 70.3918 18.5678 71.2767 18.5678C71.8703 18.5678 72.453 18.6433 73.0249 18.7944C73.5969 18.9455 74.0987 19.1613 74.5303 19.4419C74.757 19.5822 74.908 19.7549 74.9836 19.9599C75.0591 20.1541 75.0753 20.3484 75.0321 20.5426C74.989 20.7261 74.8973 20.8826 74.757 21.0121C74.6275 21.1416 74.4602 21.2171 74.2552 21.2387C74.0609 21.2495 73.8451 21.1793 73.6077 21.0282C73.2731 20.8124 72.9116 20.6559 72.5231 20.5588C72.1346 20.4617 71.7408 20.4131 71.3415 20.4131C70.5753 20.4131 69.9278 20.5696 69.399 20.8826C68.8702 21.1955 68.471 21.6488 68.2012 22.2423C67.9314 22.8358 67.7965 23.5642 67.7965 24.4275C67.7965 25.2801 67.9314 26.0085 68.2012 26.6128C68.471 27.2171 68.8702 27.6758 69.399 27.9887C69.9278 28.3017 70.5753 28.4581 71.3415 28.4581C71.7516 28.4581 72.1562 28.4096 72.5555 28.3125C72.9548 28.2045 73.3325 28.0427 73.6886 27.8268C73.926 27.6866 74.1365 27.6272 74.3199 27.6488C74.5142 27.6596 74.676 27.7243 74.8055 27.843C74.935 27.9617 75.0214 28.1128 75.0645 28.2963C75.1077 28.4689 75.0969 28.6524 75.0321 28.8466C74.9674 29.0301 74.8379 29.192 74.6437 29.3322C74.212 29.6452 73.694 29.888 73.0897 30.0607C72.4962 30.2225 71.8918 30.3035 71.2767 30.3035ZM79.0969 30.3035C78.5249 30.3035 78.0123 30.1956 77.5591 29.9797C77.1167 29.7531 76.7659 29.451 76.5069 29.0733C76.2587 28.6956 76.1346 28.2693 76.1346 27.7945C76.1346 27.2117 76.2857 26.7531 76.5879 26.4186C76.89 26.0732 77.3811 25.825 78.0609 25.674C78.7408 25.5229 79.6526 25.4473 80.7965 25.4473H81.6059V26.6128H80.8127C80.1437 26.6128 79.6095 26.6452 79.2102 26.7099C78.8109 26.7747 78.5249 26.888 78.3523 27.0499C78.1904 27.2009 78.1095 27.4168 78.1095 27.6973C78.1095 28.0535 78.2336 28.3448 78.4818 28.5714C78.73 28.7981 79.0753 28.9114 79.5178 28.9114C79.8739 28.9114 80.1868 28.8304 80.4566 28.6686C80.7372 28.4959 80.9584 28.2639 81.1203 27.9725C81.2822 27.6812 81.3631 27.3466 81.3631 26.9689V25.1074C81.3631 24.5678 81.2444 24.1793 81.007 23.9419C80.7696 23.7045 80.3703 23.5858 79.8091 23.5858C79.4962 23.5858 79.1562 23.6236 78.7893 23.6991C78.4332 23.7747 78.0555 23.9042 77.6562 24.0876C77.4512 24.1847 77.2677 24.2117 77.1059 24.1685C76.9548 24.1254 76.8361 24.0391 76.7498 23.9096C76.6634 23.7693 76.6203 23.6182 76.6203 23.4563C76.6203 23.2944 76.6634 23.138 76.7498 22.9869C76.8361 22.825 76.9818 22.7063 77.1868 22.6308C77.6832 22.4257 78.158 22.28 78.6113 22.1937C79.0753 22.1074 79.4962 22.0642 79.8739 22.0642C80.6509 22.0642 81.2875 22.1829 81.784 22.4203C82.2911 22.6577 82.6688 23.0193 82.9171 23.5049C83.1653 23.9797 83.2894 24.5948 83.2894 25.3502V29.2351C83.2894 29.5697 83.2084 29.8287 83.0465 30.0121C82.8847 30.1848 82.6527 30.2711 82.3505 30.2711C82.0483 30.2711 81.8109 30.1848 81.6383 30.0121C81.4764 29.8287 81.3955 29.5697 81.3955 29.2351V28.4581H81.525C81.4494 28.8358 81.2983 29.165 81.0717 29.4456C80.8559 29.7153 80.5807 29.9258 80.2462 30.0769C79.9116 30.2279 79.5285 30.3035 79.0969 30.3035ZM86.3467 33.1848C86.023 33.1848 85.7748 33.0985 85.6021 32.9258C85.4294 32.7531 85.3431 32.4995 85.3431 32.165V23.1164C85.3431 22.7819 85.4294 22.5283 85.6021 22.3556C85.7748 22.1829 86.0176 22.0966 86.3305 22.0966C86.6543 22.0966 86.9025 22.1829 87.0751 22.3556C87.2478 22.5283 87.3341 22.7819 87.3341 23.1164V24.379L87.1561 23.8934C87.3179 23.343 87.6471 22.9006 88.1435 22.566C88.6507 22.2315 89.2388 22.0642 89.9079 22.0642C90.5985 22.0642 91.2028 22.2315 91.7208 22.566C92.2496 22.9006 92.6597 23.3754 92.951 23.9905C93.2424 24.5948 93.3881 25.3232 93.3881 26.1758C93.3881 27.0175 93.2424 27.7513 92.951 28.3772C92.6597 28.9923 92.255 29.4671 91.737 29.8017C91.219 30.1362 90.6093 30.3035 89.9079 30.3035C89.2496 30.3035 88.6722 30.1416 88.1758 29.8179C87.6794 29.4833 87.3449 29.0517 87.1722 28.5229H87.3665V32.165C87.3665 32.4995 87.2748 32.7531 87.0913 32.9258C86.9186 33.0985 86.6704 33.1848 86.3467 33.1848ZM89.3413 28.7657C89.7406 28.7657 90.0913 28.6686 90.3935 28.4743C90.6956 28.2801 90.9277 27.9941 91.0895 27.6164C91.2622 27.2279 91.3485 26.7477 91.3485 26.1758C91.3485 25.3124 91.1651 24.6704 90.7982 24.2495C90.4313 23.8178 89.9456 23.602 89.3413 23.602C88.942 23.602 88.5913 23.6991 88.2892 23.8934C87.987 24.0768 87.7496 24.3628 87.5769 24.7513C87.415 25.129 87.3341 25.6038 87.3341 26.1758C87.3341 27.0283 87.5176 27.6758 87.8845 28.1182C88.2514 28.5499 88.737 28.7657 89.3413 28.7657ZM98.5959 30.3035C97.8945 30.3035 97.3064 30.1848 96.8315 29.9474C96.3675 29.7099 96.0222 29.3646 95.7956 28.9114C95.5689 28.4473 95.4556 27.8754 95.4556 27.1955V23.7477H94.6139C94.3549 23.7477 94.1553 23.6829 94.015 23.5534C93.8747 23.4131 93.8045 23.2243 93.8045 22.9869C93.8045 22.7387 93.8747 22.5498 94.015 22.4203C94.1553 22.2908 94.3549 22.2261 94.6139 22.2261H95.4556V20.7531C95.4556 20.4185 95.542 20.1649 95.7146 19.9923C95.8981 19.8196 96.1517 19.7333 96.4754 19.7333C96.7992 19.7333 97.0474 19.8196 97.22 19.9923C97.3927 20.1649 97.479 20.4185 97.479 20.7531V22.2261H99.1949C99.4539 22.2261 99.6535 22.2908 99.7938 22.4203C99.9341 22.5498 100.004 22.7387 100.004 22.9869C100.004 23.2243 99.9341 23.4131 99.7938 23.5534C99.6535 23.6829 99.4539 23.7477 99.1949 23.7477H97.479V27.0822C97.479 27.6002 97.5923 27.9887 97.819 28.2477C98.0456 28.5067 98.4125 28.6362 98.9197 28.6362C99.1031 28.6362 99.265 28.62 99.4053 28.5876C99.5456 28.5553 99.6697 28.5337 99.7776 28.5229C99.9071 28.5121 100.015 28.5553 100.101 28.6524C100.188 28.7387 100.231 28.9222 100.231 29.2027C100.231 29.4186 100.193 29.6128 100.118 29.7855C100.053 29.9474 99.9287 30.0607 99.7452 30.1254C99.6049 30.1686 99.4215 30.2064 99.1949 30.2387C98.9682 30.2819 98.7686 30.3035 98.5959 30.3035ZM104.048 30.3035C103.389 30.3035 102.844 30.1848 102.413 29.9474C101.981 29.6992 101.657 29.3322 101.441 28.8466C101.236 28.361 101.134 27.7567 101.134 27.0337V23.1164C101.134 22.7711 101.22 22.5175 101.393 22.3556C101.566 22.1829 101.814 22.0966 102.137 22.0966C102.461 22.0966 102.709 22.1829 102.882 22.3556C103.066 22.5175 103.157 22.7711 103.157 23.1164V27.066C103.157 27.6272 103.271 28.0427 103.497 28.3125C103.724 28.5822 104.085 28.7171 104.582 28.7171C105.121 28.7171 105.564 28.5337 105.909 28.1668C106.254 27.7891 106.427 27.2927 106.427 26.6776V23.1164C106.427 22.7711 106.513 22.5175 106.686 22.3556C106.859 22.1829 107.107 22.0966 107.431 22.0966C107.754 22.0966 108.003 22.1829 108.175 22.3556C108.359 22.5175 108.45 22.7711 108.45 23.1164V29.2351C108.45 29.9258 108.121 30.2711 107.463 30.2711C107.15 30.2711 106.907 30.1848 106.735 30.0121C106.562 29.8287 106.476 29.5697 106.476 29.2351V28.0049L106.702 28.4905C106.476 29.0733 106.13 29.5211 105.666 29.834C105.213 30.147 104.673 30.3035 104.048 30.3035ZM111.592 30.2711C111.258 30.2711 110.999 30.1848 110.815 30.0121C110.643 29.8287 110.556 29.5697 110.556 29.2351V23.1164C110.556 22.7819 110.643 22.5283 110.815 22.3556C110.988 22.1829 111.231 22.0966 111.544 22.0966C111.857 22.0966 112.1 22.1829 112.272 22.3556C112.445 22.5283 112.531 22.7819 112.531 23.1164V24.1362H112.369C112.52 23.4887 112.817 22.9977 113.26 22.6631C113.702 22.3286 114.29 22.129 115.024 22.0642C115.251 22.0426 115.429 22.102 115.558 22.2423C115.699 22.3718 115.78 22.5768 115.801 22.8574C115.823 23.1272 115.758 23.3484 115.607 23.5211C115.467 23.6829 115.251 23.7801 114.959 23.8124L114.603 23.8448C113.945 23.9096 113.449 24.1146 113.114 24.4599C112.779 24.7945 112.612 25.2693 112.612 25.8844V29.2351C112.612 29.5697 112.526 29.8287 112.353 30.0121C112.181 30.1848 111.927 30.2711 111.592 30.2711ZM120.67 30.3035C119.774 30.3035 119.003 30.1362 118.355 29.8017C117.708 29.4671 117.206 28.9923 116.85 28.3772C116.505 27.7621 116.332 27.0337 116.332 26.1919C116.332 25.3718 116.499 24.6542 116.834 24.0391C117.179 23.4239 117.648 22.9437 118.242 22.5984C118.846 22.2423 119.532 22.0642 120.298 22.0642C120.859 22.0642 121.361 22.1559 121.803 22.3394C122.256 22.5229 122.639 22.7872 122.952 23.1326C123.276 23.4779 123.519 23.8988 123.681 24.3952C123.853 24.8808 123.94 25.4311 123.94 26.0463C123.94 26.2405 123.87 26.3916 123.729 26.4995C123.6 26.5966 123.411 26.6452 123.163 26.6452H117.967V25.4797H122.515L122.256 25.7225C122.256 25.2261 122.181 24.8106 122.03 24.4761C121.889 24.1416 121.679 23.888 121.398 23.7153C121.129 23.5319 120.789 23.4401 120.379 23.4401C119.925 23.4401 119.537 23.548 119.213 23.7639C118.9 23.9689 118.657 24.2657 118.485 24.6542C118.323 25.0319 118.242 25.4851 118.242 26.0139V26.1272C118.242 27.0121 118.447 27.6758 118.857 28.1182C119.278 28.5499 119.893 28.7657 120.702 28.7657C120.983 28.7657 121.296 28.7333 121.641 28.6686C121.997 28.593 122.332 28.4689 122.645 28.2963C122.871 28.1668 123.071 28.1128 123.244 28.1344C123.416 28.1452 123.551 28.2045 123.648 28.3125C123.756 28.4204 123.821 28.5553 123.843 28.7171C123.864 28.8682 123.832 29.0247 123.746 29.1866C123.67 29.3484 123.535 29.4887 123.341 29.6074C122.963 29.8448 122.526 30.0229 122.03 30.1416C121.544 30.2495 121.091 30.3035 120.67 30.3035ZM131.199 30.2711C130.865 30.2711 130.6 30.1794 130.406 29.9959C130.223 29.8017 130.131 29.5265 130.131 29.1704V19.8304C130.131 19.4743 130.223 19.2045 130.406 19.021C130.6 18.8268 130.876 18.7297 131.232 18.7297H136.881C137.162 18.7297 137.372 18.7998 137.512 18.9401C137.653 19.0804 137.723 19.28 137.723 19.539C137.723 19.8088 137.653 20.0192 137.512 20.1703C137.372 20.3106 137.162 20.3808 136.881 20.3808H132.203V23.602H136.541C136.811 23.602 137.016 23.6721 137.156 23.8124C137.307 23.9527 137.383 24.1524 137.383 24.4114C137.383 24.6811 137.307 24.8916 137.156 25.0427C137.016 25.1829 136.811 25.2531 136.541 25.2531H132.203V29.1704C132.203 29.9042 131.868 30.2711 131.199 30.2711ZM142.351 30.3035C141.531 30.3035 140.819 30.1362 140.215 29.8017C139.61 29.4671 139.141 28.9923 138.806 28.3772C138.472 27.7513 138.305 27.0175 138.305 26.1758C138.305 25.5391 138.396 24.9725 138.58 24.4761C138.774 23.9689 139.049 23.5373 139.405 23.1811C139.761 22.8142 140.188 22.539 140.684 22.3556C141.181 22.1613 141.736 22.0642 142.351 22.0642C143.172 22.0642 143.884 22.2315 144.488 22.566C145.092 22.9006 145.562 23.3754 145.896 23.9905C146.231 24.6056 146.398 25.334 146.398 26.1758C146.398 26.8124 146.301 27.3844 146.107 27.8916C145.923 28.3988 145.654 28.8358 145.297 29.2027C144.941 29.5589 144.515 29.834 144.019 30.0283C143.522 30.2117 142.967 30.3035 142.351 30.3035ZM142.351 28.7657C142.751 28.7657 143.101 28.6686 143.404 28.4743C143.706 28.2801 143.938 27.9941 144.1 27.6164C144.272 27.2279 144.359 26.7477 144.359 26.1758C144.359 25.3124 144.175 24.6704 143.808 24.2495C143.441 23.8178 142.956 23.602 142.351 23.602C141.952 23.602 141.601 23.6991 141.299 23.8934C140.997 24.0768 140.76 24.3628 140.587 24.7513C140.425 25.129 140.344 25.6038 140.344 26.1758C140.344 27.0283 140.528 27.6758 140.895 28.1182C141.261 28.5499 141.747 28.7657 142.351 28.7657ZM149.104 30.2711C148.77 30.2711 148.511 30.1848 148.327 30.0121C148.155 29.8287 148.068 29.5697 148.068 29.2351V23.1164C148.068 22.7819 148.155 22.5283 148.327 22.3556C148.5 22.1829 148.743 22.0966 149.056 22.0966C149.369 22.0966 149.611 22.1829 149.784 22.3556C149.957 22.5283 150.043 22.7819 150.043 23.1164V24.1362H149.881C150.032 23.4887 150.329 22.9977 150.771 22.6631C151.214 22.3286 151.802 22.129 152.536 22.0642C152.763 22.0426 152.941 22.102 153.07 22.2423C153.21 22.3718 153.291 22.5768 153.313 22.8574C153.334 23.1272 153.27 23.3484 153.119 23.5211C152.978 23.6829 152.763 23.7801 152.471 23.8124L152.115 23.8448C151.457 23.9096 150.96 24.1146 150.626 24.4599C150.291 24.7945 150.124 25.2693 150.124 25.8844V29.2351C150.124 29.5697 150.038 29.8287 149.865 30.0121C149.692 30.1848 149.439 30.2711 149.104 30.2711ZM155.443 30.2711C155.119 30.2711 154.871 30.1848 154.699 30.0121C154.526 29.8287 154.44 29.5697 154.44 29.2351V23.1164C154.44 22.7819 154.526 22.5283 154.699 22.3556C154.871 22.1829 155.114 22.0966 155.427 22.0966C155.74 22.0966 155.983 22.1829 156.155 22.3556C156.328 22.5283 156.414 22.7819 156.414 23.1164V24.298L156.236 23.8124C156.452 23.2729 156.787 22.8466 157.24 22.5336C157.693 22.2207 158.233 22.0642 158.859 22.0642C159.495 22.0642 160.019 22.2153 160.429 22.5175C160.839 22.8196 161.125 23.2837 161.287 23.9096H161.06C161.276 23.3376 161.632 22.8898 162.128 22.566C162.625 22.2315 163.197 22.0642 163.844 22.0642C164.449 22.0642 164.945 22.1829 165.333 22.4203C165.733 22.6577 166.03 23.0193 166.224 23.5049C166.418 23.9797 166.515 24.584 166.515 25.3178V29.2351C166.515 29.5697 166.423 29.8287 166.24 30.0121C166.067 30.1848 165.819 30.2711 165.495 30.2711C165.172 30.2711 164.923 30.1848 164.751 30.0121C164.578 29.8287 164.492 29.5697 164.492 29.2351V25.3988C164.492 24.7945 164.389 24.352 164.184 24.0714C163.99 23.7908 163.655 23.6506 163.181 23.6506C162.652 23.6506 162.236 23.8394 161.934 24.2171C161.632 24.584 161.481 25.0966 161.481 25.7549V29.2351C161.481 29.5697 161.395 29.8287 161.222 30.0121C161.049 30.1848 160.801 30.2711 160.477 30.2711C160.154 30.2711 159.9 30.1848 159.717 30.0121C159.544 29.8287 159.458 29.5697 159.458 29.2351V25.3988C159.458 24.7945 159.355 24.352 159.15 24.0714C158.956 23.7908 158.627 23.6506 158.163 23.6506C157.634 23.6506 157.218 23.8394 156.916 24.2171C156.614 24.584 156.463 25.0966 156.463 25.7549V29.2351C156.463 29.9258 156.123 30.2711 155.443 30.2711Z" fill="#211447"/>
<line x1="6" y1="47.138" x2="344.859" y2="47.138" stroke="#F2F2F2" stroke-width="0.449643"/>
<path d="M28.4026 69.8018C28.3114 69.8018 28.2419 69.7778 28.1939 69.7299C28.146 69.6771 28.122 69.6028 28.122 69.5069V64.9313C28.122 64.8354 28.146 64.761 28.1939 64.7083C28.2419 64.6555 28.3043 64.6291 28.381 64.6291C28.4577 64.6291 28.5129 64.6435 28.5465 64.6723C28.5848 64.6963 28.628 64.7418 28.676 64.809L31.8127 68.9889H31.64V64.9169C31.64 64.8258 31.664 64.7562 31.7119 64.7083C31.7599 64.6555 31.8294 64.6291 31.9206 64.6291C32.0069 64.6291 32.0717 64.6555 32.1148 64.7083C32.1628 64.7562 32.1868 64.8258 32.1868 64.9169V69.5141C32.1868 69.6052 32.1652 69.6771 32.122 69.7299C32.0836 69.7778 32.0261 69.8018 31.9494 69.8018C31.8774 69.8018 31.8199 69.7874 31.7767 69.7587C31.7335 69.7299 31.688 69.6843 31.64 69.622L28.5105 65.4421H28.676V69.5069C28.676 69.6028 28.652 69.6771 28.604 69.7299C28.5561 69.7778 28.4889 69.8018 28.4026 69.8018ZM34.469 69.8162C34.2292 69.8162 34.0134 69.7706 33.8216 69.6795C33.6345 69.5836 33.4858 69.4541 33.3755 69.291C33.2652 69.128 33.21 68.9457 33.21 68.7443C33.21 68.4853 33.2748 68.2814 33.4043 68.1328C33.5386 67.9841 33.7568 67.8786 34.059 67.8162C34.3659 67.7539 34.7832 67.7227 35.3108 67.7227H35.6345V68.104H35.318C34.9295 68.104 34.6225 68.1232 34.3971 68.1615C34.1765 68.1951 34.0206 68.2551 33.9295 68.3414C33.8431 68.4277 33.8 68.55 33.8 68.7083C33.8 68.9049 33.8671 69.0656 34.0014 69.1903C34.1405 69.315 34.3276 69.3774 34.5626 69.3774C34.7544 69.3774 34.9223 69.3318 35.0662 69.2407C35.2148 69.1495 35.33 69.0248 35.4115 68.8666C35.4978 68.7083 35.541 68.526 35.541 68.3198V67.4997C35.541 67.2023 35.481 66.9889 35.3611 66.8594C35.2412 66.7251 35.0446 66.6579 34.7712 66.6579C34.6033 66.6579 34.4355 66.6795 34.2676 66.7227C34.0997 66.7658 33.9223 66.8354 33.7352 66.9313C33.6681 66.9649 33.6105 66.9769 33.5626 66.9673C33.5146 66.9529 33.4762 66.9265 33.4475 66.8881C33.4187 66.8498 33.4019 66.8066 33.3971 66.7586C33.3923 66.7059 33.4019 66.6555 33.4259 66.6076C33.4546 66.5596 33.4978 66.5212 33.5554 66.4925C33.7664 66.3869 33.975 66.3102 34.1813 66.2622C34.3875 66.2143 34.5841 66.1903 34.7712 66.1903C35.0734 66.1903 35.3228 66.2407 35.5194 66.3414C35.716 66.4373 35.8623 66.586 35.9583 66.7874C36.0542 66.9841 36.1021 67.2383 36.1021 67.55V69.4997C36.1021 69.5956 36.0782 69.6699 36.0302 69.7227C35.987 69.7754 35.9223 69.8018 35.836 69.8018C35.7448 69.8018 35.6753 69.7754 35.6273 69.7227C35.5794 69.6699 35.5554 69.5956 35.5554 69.4997V68.9385H35.6201C35.5818 69.1208 35.5074 69.2766 35.3971 69.4061C35.2916 69.5356 35.1597 69.6364 35.0014 69.7083C34.8431 69.7802 34.6657 69.8162 34.469 69.8162ZM37.4854 69.8018C37.3895 69.8018 37.3175 69.7754 37.2696 69.7227C37.2216 69.6699 37.1976 69.5956 37.1976 69.4997V66.4996C37.1976 66.4037 37.2216 66.3318 37.2696 66.2838C37.3175 66.2311 37.3871 66.2047 37.4782 66.2047C37.5693 66.2047 37.6389 66.2311 37.6868 66.2838C37.7396 66.3318 37.766 66.4037 37.766 66.4996V67.1327L37.6868 67.032C37.778 66.7634 37.9243 66.5572 38.1257 66.4133C38.3319 66.2646 38.5765 66.1903 38.8595 66.1903C39.1569 66.1903 39.3967 66.2622 39.5789 66.4061C39.766 66.5452 39.8907 66.7634 39.953 67.0608H39.8451C39.9315 66.7922 40.0849 66.5812 40.3056 66.4277C40.531 66.2694 40.7924 66.1903 41.0897 66.1903C41.3535 66.1903 41.5694 66.2407 41.7372 66.3414C41.9099 66.4421 42.0394 66.5956 42.1257 66.8018C42.2121 67.0032 42.2552 67.2598 42.2552 67.5716V69.4997C42.2552 69.5956 42.2288 69.6699 42.1761 69.7227C42.1281 69.7754 42.0562 69.8018 41.9603 69.8018C41.8691 69.8018 41.7972 69.7754 41.7444 69.7227C41.6965 69.6699 41.6725 69.5956 41.6725 69.4997V67.6004C41.6725 67.279 41.6173 67.044 41.507 66.8953C41.3967 66.7419 41.2096 66.6651 40.9459 66.6651C40.6581 66.6651 40.4303 66.7658 40.2624 66.9673C40.0993 67.1639 40.0178 67.4325 40.0178 67.773V69.4997C40.0178 69.5956 39.9914 69.6699 39.9387 69.7227C39.8907 69.7754 39.8188 69.8018 39.7228 69.8018C39.6317 69.8018 39.5598 69.7754 39.507 69.7227C39.459 69.6699 39.4351 69.5956 39.4351 69.4997V67.6004C39.4351 67.279 39.3775 67.044 39.2624 66.8953C39.1521 66.7419 38.9674 66.6651 38.7084 66.6651C38.4207 66.6651 38.1928 66.7658 38.025 66.9673C37.8619 67.1639 37.7804 67.4325 37.7804 67.773V69.4997C37.7804 69.7011 37.6821 69.8018 37.4854 69.8018ZM44.9203 69.8162C44.551 69.8162 44.2321 69.7443 43.9635 69.6004C43.6997 69.4517 43.4934 69.2431 43.3448 68.9745C43.2009 68.7059 43.1289 68.3846 43.1289 68.0104C43.1289 67.6459 43.2009 67.3294 43.3448 67.0608C43.4886 66.7874 43.6853 66.574 43.9347 66.4205C44.1889 66.267 44.4815 66.1903 44.8124 66.1903C45.0474 66.1903 45.2584 66.2311 45.4455 66.3126C45.6325 66.3893 45.7908 66.502 45.9203 66.6507C46.0546 66.7994 46.1553 66.9793 46.2225 67.1903C46.2944 67.4013 46.3304 67.6387 46.3304 67.9025C46.3304 67.9793 46.3088 68.0368 46.2656 68.0752C46.2225 68.1088 46.1601 68.1256 46.0786 68.1256H43.575V67.7443H45.9419L45.8268 67.8378C45.8268 67.5788 45.7884 67.3606 45.7117 67.1831C45.6349 67.0009 45.5222 66.8618 45.3735 66.7658C45.2297 66.6699 45.0474 66.622 44.8268 66.622C44.5822 66.622 44.3735 66.6795 44.2009 66.7946C44.033 66.9049 43.9059 67.0608 43.8196 67.2622C43.7332 67.4589 43.6901 67.6891 43.6901 67.9529V67.9961C43.6901 68.4373 43.7956 68.773 44.0066 69.0033C44.2225 69.2335 44.527 69.3486 44.9203 69.3486C45.0834 69.3486 45.244 69.327 45.4023 69.2838C45.5654 69.2407 45.7237 69.1687 45.8771 69.068C45.9443 69.0248 46.0042 69.0057 46.057 69.0105C46.1146 69.0105 46.1601 69.0272 46.1937 69.0608C46.2273 69.0896 46.2488 69.128 46.2584 69.1759C46.2728 69.2191 46.268 69.267 46.2441 69.3198C46.2249 69.3726 46.1841 69.4181 46.1218 69.4565C45.9635 69.5716 45.7764 69.6603 45.5606 69.7227C45.3448 69.785 45.1313 69.8162 44.9203 69.8162Z" fill="#211447"/>
<rect x="27.7209" y="74.7746" width="144.785" height="17.5361" rx="3.37232" stroke="#E0E0E0" stroke-width="0.449643"/>
<path d="M27.9713 101.334V97.4098H30.3242V97.8314H28.4465V99.1573H30.148V99.5788H28.4465V101.334H27.9713ZM31.0768 101.334V98.3909H31.529V101.334H31.0768ZM31.3067 97.9003C31.2186 97.9003 31.1426 97.8703 31.0787 97.8103C31.0161 97.7503 30.9848 97.6781 30.9848 97.5938C30.9848 97.5095 31.0161 97.4373 31.0787 97.3773C31.1426 97.3172 31.2186 97.2872 31.3067 97.2872C31.3949 97.2872 31.4702 97.3172 31.5328 97.3773C31.5967 97.4373 31.6286 97.5095 31.6286 97.5938C31.6286 97.6781 31.5967 97.7503 31.5328 97.8103C31.4702 97.8703 31.3949 97.9003 31.3067 97.9003ZM32.3572 101.334V98.3909H32.7941V98.8354H32.8247C32.8784 98.6898 32.9755 98.5716 33.116 98.4809C33.2565 98.3902 33.4149 98.3449 33.5912 98.3449C33.6244 98.3449 33.6659 98.3455 33.7157 98.3468C33.7655 98.3481 33.8032 98.35 33.8288 98.3525V98.8124C33.8134 98.8086 33.7783 98.8028 33.7234 98.7952C33.6697 98.7862 33.6129 98.7818 33.5529 98.7818C33.4098 98.7818 33.282 98.8118 33.1696 98.8718C33.0585 98.9306 32.9704 99.0123 32.9052 99.1171C32.8413 99.2205 32.8094 99.3387 32.8094 99.4715V101.334H32.3572ZM36.4495 99.05L36.0433 99.165C36.0177 99.0973 35.9801 99.0315 35.9302 98.9676C35.8817 98.9025 35.8153 98.8488 35.731 98.8067C35.6467 98.7645 35.5387 98.7434 35.4072 98.7434C35.227 98.7434 35.0769 98.7849 34.9569 98.868C34.8381 98.9497 34.7787 99.0538 34.7787 99.1803C34.7787 99.2927 34.8196 99.3815 34.9013 99.4466C34.9831 99.5118 35.1108 99.5661 35.2845 99.6095L35.7214 99.7168C35.9845 99.7807 36.1806 99.8784 36.3096 100.01C36.4386 100.14 36.5032 100.308 36.5032 100.514C36.5032 100.683 36.4546 100.833 36.3575 100.966C36.2617 101.099 36.1276 101.204 35.9552 101.28C35.7827 101.357 35.5822 101.395 35.3535 101.395C35.0533 101.395 34.8049 101.33 34.6081 101.2C34.4114 101.07 34.2869 100.879 34.2345 100.629L34.6637 100.522C34.7046 100.68 34.7819 100.799 34.8956 100.878C35.0105 100.957 35.1606 100.997 35.3458 100.997C35.5566 100.997 35.7239 100.952 35.8479 100.863C35.973 100.772 36.0356 100.663 36.0356 100.537C36.0356 100.435 35.9999 100.349 35.9283 100.28C35.8568 100.21 35.7469 100.158 35.5988 100.123L35.1082 100.008C34.8387 99.9442 34.6407 99.8452 34.5143 99.7111C34.3891 99.5757 34.3265 99.4064 34.3265 99.2033C34.3265 99.0372 34.3731 98.8903 34.4664 98.7626C34.5609 98.6349 34.6893 98.5346 34.8515 98.4618C35.015 98.389 35.2002 98.3525 35.4072 98.3525C35.6984 98.3525 35.9271 98.4164 36.0931 98.5442C36.2605 98.6719 36.3793 98.8405 36.4495 99.05ZM38.4638 98.3909V98.7741H36.9386V98.3909H38.4638ZM37.3831 97.6857H37.8353V100.491C37.8353 100.619 37.8538 100.714 37.8909 100.778C37.9292 100.841 37.9777 100.883 38.0365 100.905C38.0965 100.925 38.1598 100.935 38.2262 100.935C38.276 100.935 38.3169 100.933 38.3488 100.928C38.3808 100.921 38.4063 100.916 38.4255 100.912L38.5174 101.319C38.4868 101.33 38.444 101.342 38.3891 101.353C38.3341 101.366 38.2645 101.372 38.1802 101.372C38.0525 101.372 37.9273 101.345 37.8047 101.29C37.6833 101.235 37.5824 101.151 37.5019 101.039C37.4227 100.926 37.3831 100.785 37.3831 100.614V97.6857ZM43.8346 97.4098V101.334H43.3747L41.2364 98.2529H41.1981V101.334H40.7229V97.4098H41.1827L43.3288 100.499H43.3671V97.4098H43.8346ZM45.5902 101.403C45.4037 101.403 45.2345 101.368 45.0825 101.298C44.9304 101.226 44.8097 101.123 44.7203 100.989C44.6309 100.854 44.5862 100.69 44.5862 100.499C44.5862 100.33 44.6194 100.193 44.6858 100.089C44.7522 99.9825 44.841 99.8995 44.9522 99.8394C45.0633 99.7794 45.1859 99.7347 45.32 99.7053C45.4555 99.6746 45.5915 99.6504 45.7282 99.6325C45.907 99.6095 46.052 99.5923 46.1631 99.5808C46.2755 99.568 46.3573 99.5469 46.4084 99.5175C46.4608 99.4882 46.4869 99.4371 46.4869 99.3642V99.3489C46.4869 99.1599 46.4352 99.013 46.3317 98.9082C46.2296 98.8035 46.0743 98.7511 45.8661 98.7511C45.6503 98.7511 45.481 98.7984 45.3584 98.8929C45.2357 98.9874 45.1495 99.0883 45.0997 99.1956L44.6705 99.0423C44.7471 98.8635 44.8493 98.7243 44.9771 98.6246C45.1061 98.5237 45.2466 98.4535 45.3986 98.4139C45.5519 98.373 45.7026 98.3525 45.8508 98.3525C45.9453 98.3525 46.0539 98.364 46.1765 98.387C46.3004 98.4088 46.4199 98.4541 46.5348 98.5231C46.6511 98.5921 46.7475 98.6962 46.8242 98.8354C46.9008 98.9746 46.9391 99.1611 46.9391 99.3949V101.334H46.4869V100.935H46.464C46.4333 100.999 46.3822 101.068 46.3107 101.14C46.2391 101.213 46.144 101.275 46.0252 101.326C45.9064 101.377 45.7614 101.403 45.5902 101.403ZM45.6592 100.997C45.838 100.997 45.9888 100.962 46.1114 100.891C46.2353 100.821 46.3286 100.73 46.3911 100.619C46.455 100.508 46.4869 100.391 46.4869 100.269V99.8548C46.4678 99.8778 46.4256 99.8988 46.3605 99.918C46.2966 99.9359 46.2225 99.9518 46.1382 99.9659C46.0552 99.9787 45.9741 99.9902 45.8949 100C45.817 100.009 45.7537 100.017 45.7052 100.023C45.5877 100.039 45.4778 100.064 45.3756 100.098C45.2747 100.131 45.1929 100.182 45.1304 100.249C45.069 100.316 45.0384 100.407 45.0384 100.522C45.0384 100.679 45.0965 100.797 45.2127 100.878C45.3303 100.957 45.4791 100.997 45.6592 100.997ZM47.7645 101.334V98.3909H48.2014V98.8507H48.2397C48.301 98.6936 48.4 98.5716 48.5367 98.4848C48.6734 98.3966 48.8375 98.3525 49.0291 98.3525C49.2233 98.3525 49.3849 98.3966 49.5139 98.4848C49.6442 98.5716 49.7457 98.6936 49.8186 98.8507H49.8492C49.9246 98.6987 50.0376 98.578 50.1884 98.4886C50.3391 98.3979 50.5198 98.3525 50.7306 98.3525C50.9938 98.3525 51.209 98.4349 51.3763 98.5997C51.5437 98.7632 51.6273 99.0181 51.6273 99.3642V101.334H51.1751V99.3642C51.1751 99.1471 51.1157 98.9919 50.9969 98.8986C50.8781 98.8054 50.7383 98.7588 50.5773 98.7588C50.3704 98.7588 50.2101 98.8214 50.0964 98.9465C49.9827 99.0704 49.9259 99.2276 49.9259 99.4179V101.334H49.466V99.3183C49.466 99.1509 49.4117 99.0162 49.3031 98.914C49.1945 98.8105 49.0547 98.7588 48.8835 98.7588C48.766 98.7588 48.6561 98.7901 48.5539 98.8526C48.453 98.9152 48.3713 99.0021 48.3087 99.1132C48.2474 99.2231 48.2167 99.3502 48.2167 99.4945V101.334H47.7645ZM53.6881 101.395C53.4045 101.395 53.1599 101.333 52.9542 101.208C52.7499 101.081 52.5921 100.905 52.481 100.679C52.3711 100.451 52.3162 100.187 52.3162 99.8854C52.3162 99.584 52.3711 99.3183 52.481 99.0883C52.5921 98.8571 52.7467 98.677 52.9447 98.548C53.1439 98.4177 53.3764 98.3525 53.6421 98.3525C53.7954 98.3525 53.9468 98.3781 54.0962 98.4292C54.2457 98.4803 54.3817 98.5633 54.5044 98.6783C54.627 98.792 54.7247 98.9427 54.7975 99.1305C54.8703 99.3183 54.9067 99.5495 54.9067 99.8241V100.016H52.6381V99.6248H54.4469C54.4469 99.4588 54.4137 99.3106 54.3472 99.1803C54.2821 99.05 54.1888 98.9472 54.0675 98.8718C53.9474 98.7964 53.8056 98.7588 53.6421 98.7588C53.462 98.7588 53.3062 98.8035 53.1746 98.8929C53.0443 98.981 52.944 99.096 52.8738 99.2378C52.8035 99.3796 52.7684 99.5316 52.7684 99.6938V99.9544C52.7684 100.177 52.8067 100.365 52.8833 100.52C52.9613 100.673 53.0692 100.79 53.2072 100.87C53.3451 100.949 53.5054 100.989 53.6881 100.989C53.8069 100.989 53.9142 100.972 54.01 100.939C54.1071 100.905 54.1908 100.854 54.261 100.786C54.3313 100.717 54.3856 100.631 54.4239 100.529L54.8607 100.652C54.8148 100.8 54.7375 100.93 54.6289 101.043C54.5203 101.154 54.3862 101.241 54.2265 101.303C54.0668 101.365 53.8874 101.395 53.6881 101.395Z" fill="#6A676F"/>
<rect x="178.35" y="74.7746" width="144.785" height="17.5361" rx="3.37232" stroke="#E0E0E0" stroke-width="0.449643"/>
<path d="M178.6 101.334V97.4098H179.075V100.912H180.899V101.334H178.6ZM182.44 101.403C182.254 101.403 182.084 101.368 181.932 101.298C181.78 101.226 181.66 101.123 181.57 100.989C181.481 100.854 181.436 100.69 181.436 100.499C181.436 100.33 181.469 100.193 181.536 100.089C181.602 99.9825 181.691 99.8995 181.802 99.8394C181.913 99.7794 182.036 99.7347 182.17 99.7053C182.305 99.6746 182.441 99.6504 182.578 99.6325C182.757 99.6095 182.902 99.5923 183.013 99.5808C183.125 99.568 183.207 99.5469 183.258 99.5175C183.311 99.4882 183.337 99.4371 183.337 99.3642V99.3489C183.337 99.1599 183.285 99.013 183.182 98.9082C183.079 98.8035 182.924 98.7511 182.716 98.7511C182.5 98.7511 182.331 98.7984 182.208 98.8929C182.086 98.9874 181.999 99.0883 181.95 99.1956L181.52 99.0423C181.597 98.8635 181.699 98.7243 181.827 98.6246C181.956 98.5237 182.096 98.4535 182.248 98.4139C182.402 98.373 182.552 98.3525 182.701 98.3525C182.795 98.3525 182.904 98.364 183.026 98.387C183.15 98.4088 183.27 98.4541 183.385 98.5231C183.501 98.5921 183.597 98.6962 183.674 98.8354C183.751 98.9746 183.789 99.1611 183.789 99.3949V101.334H183.337V100.935H183.314C183.283 100.999 183.232 101.068 183.16 101.14C183.089 101.213 182.994 101.275 182.875 101.326C182.756 101.377 182.611 101.403 182.44 101.403ZM182.509 100.997C182.688 100.997 182.839 100.962 182.961 100.891C183.085 100.821 183.178 100.73 183.241 100.619C183.305 100.508 183.337 100.391 183.337 100.269V99.8548C183.318 99.8778 183.275 99.8988 183.21 99.918C183.146 99.9359 183.072 99.9518 182.988 99.9659C182.905 99.9787 182.824 99.9902 182.745 100C182.667 100.009 182.604 100.017 182.555 100.023C182.437 100.039 182.328 100.064 182.225 100.098C182.125 100.131 182.043 100.182 181.98 100.249C181.919 100.316 181.888 100.407 181.888 100.522C181.888 100.679 181.946 100.797 182.063 100.878C182.18 100.957 182.329 100.997 182.509 100.997ZM186.699 99.05L186.293 99.165C186.267 99.0973 186.23 99.0315 186.18 98.9676C186.131 98.9025 186.065 98.8488 185.98 98.8067C185.896 98.7645 185.788 98.7434 185.657 98.7434C185.477 98.7434 185.326 98.7849 185.206 98.868C185.088 98.9497 185.028 99.0538 185.028 99.1803C185.028 99.2927 185.069 99.3815 185.151 99.4466C185.233 99.5118 185.36 99.5661 185.534 99.6095L185.971 99.7168C186.234 99.7807 186.43 99.8784 186.559 100.01C186.688 100.14 186.753 100.308 186.753 100.514C186.753 100.683 186.704 100.833 186.607 100.966C186.511 101.099 186.377 101.204 186.205 101.28C186.032 101.357 185.832 101.395 185.603 101.395C185.303 101.395 185.054 101.33 184.858 101.2C184.661 101.07 184.536 100.879 184.484 100.629L184.913 100.522C184.954 100.68 185.031 100.799 185.145 100.878C185.26 100.957 185.41 100.997 185.595 100.997C185.806 100.997 185.973 100.952 186.097 100.863C186.223 100.772 186.285 100.663 186.285 100.537C186.285 100.435 186.249 100.349 186.178 100.28C186.106 100.21 185.996 100.158 185.848 100.123L185.358 100.008C185.088 99.9442 184.89 99.8452 184.764 99.7111C184.639 99.5757 184.576 99.4064 184.576 99.2033C184.576 99.0372 184.623 98.8903 184.716 98.7626C184.81 98.6349 184.939 98.5346 185.101 98.4618C185.265 98.389 185.45 98.3525 185.657 98.3525C185.948 98.3525 186.177 98.4164 186.343 98.5442C186.51 98.6719 186.629 98.8405 186.699 99.05ZM188.713 98.3909V98.7741H187.188V98.3909H188.713ZM187.633 97.6857H188.085V100.491C188.085 100.619 188.103 100.714 188.14 100.778C188.179 100.841 188.227 100.883 188.286 100.905C188.346 100.925 188.409 100.935 188.476 100.935C188.526 100.935 188.566 100.933 188.598 100.928C188.63 100.921 188.656 100.916 188.675 100.912L188.767 101.319C188.736 101.33 188.694 101.342 188.639 101.353C188.584 101.366 188.514 101.372 188.43 101.372C188.302 101.372 188.177 101.345 188.054 101.29C187.933 101.235 187.832 101.151 187.751 101.039C187.672 100.926 187.633 100.785 187.633 100.614V97.6857ZM194.084 97.4098V101.334H193.624L191.486 98.2529H191.448V101.334H190.972V97.4098H191.432L193.578 100.499H193.617V97.4098H194.084ZM195.84 101.403C195.653 101.403 195.484 101.368 195.332 101.298C195.18 101.226 195.059 101.123 194.97 100.989C194.88 100.854 194.836 100.69 194.836 100.499C194.836 100.33 194.869 100.193 194.935 100.089C195.002 99.9825 195.091 99.8995 195.202 99.8394C195.313 99.7794 195.435 99.7347 195.57 99.7053C195.705 99.6746 195.841 99.6504 195.978 99.6325C196.157 99.6095 196.302 99.5923 196.413 99.5808C196.525 99.568 196.607 99.5469 196.658 99.5175C196.71 99.4882 196.736 99.4371 196.736 99.3642V99.3489C196.736 99.1599 196.685 99.013 196.581 98.9082C196.479 98.8035 196.324 98.7511 196.116 98.7511C195.9 98.7511 195.731 98.7984 195.608 98.8929C195.485 98.9874 195.399 99.0883 195.349 99.1956L194.92 99.0423C194.997 98.8635 195.099 98.7243 195.227 98.6246C195.356 98.5237 195.496 98.4535 195.648 98.4139C195.801 98.373 195.952 98.3525 196.1 98.3525C196.195 98.3525 196.303 98.364 196.426 98.387C196.55 98.4088 196.669 98.4541 196.784 98.5231C196.901 98.5921 196.997 98.6962 197.074 98.8354C197.15 98.9746 197.189 99.1611 197.189 99.3949V101.334H196.736V100.935H196.713C196.683 100.999 196.632 101.068 196.56 101.14C196.489 101.213 196.393 101.275 196.275 101.326C196.156 101.377 196.011 101.403 195.84 101.403ZM195.909 100.997C196.088 100.997 196.238 100.962 196.361 100.891C196.485 100.821 196.578 100.73 196.641 100.619C196.705 100.508 196.736 100.391 196.736 100.269V99.8548C196.717 99.8778 196.675 99.8988 196.61 99.918C196.546 99.9359 196.472 99.9518 196.388 99.9659C196.305 99.9787 196.224 99.9902 196.144 100C196.066 100.009 196.003 100.017 195.955 100.023C195.837 100.039 195.727 100.064 195.625 100.098C195.524 100.131 195.442 100.182 195.38 100.249C195.319 100.316 195.288 100.407 195.288 100.522C195.288 100.679 195.346 100.797 195.462 100.878C195.58 100.957 195.729 100.997 195.909 100.997ZM198.014 101.334V98.3909H198.451V98.8507H198.489C198.551 98.6936 198.65 98.5716 198.786 98.4848C198.923 98.3966 199.087 98.3525 199.279 98.3525C199.473 98.3525 199.634 98.3966 199.763 98.4848C199.894 98.5716 199.995 98.6936 200.068 98.8507H200.099C200.174 98.6987 200.287 98.578 200.438 98.4886C200.589 98.3979 200.769 98.3525 200.98 98.3525C201.243 98.3525 201.459 98.4349 201.626 98.5997C201.793 98.7632 201.877 99.0181 201.877 99.3642V101.334H201.425V99.3642C201.425 99.1471 201.365 98.9919 201.246 98.8986C201.128 98.8054 200.988 98.7588 200.827 98.7588C200.62 98.7588 200.46 98.8214 200.346 98.9465C200.232 99.0704 200.175 99.2276 200.175 99.4179V101.334H199.716V99.3183C199.716 99.1509 199.661 99.0162 199.553 98.914C199.444 98.8105 199.304 98.7588 199.133 98.7588C199.015 98.7588 198.906 98.7901 198.803 98.8526C198.703 98.9152 198.621 99.0021 198.558 99.1132C198.497 99.2231 198.466 99.3502 198.466 99.4945V101.334H198.014ZM203.938 101.395C203.654 101.395 203.409 101.333 203.204 101.208C202.999 101.081 202.842 100.905 202.73 100.679C202.621 100.451 202.566 100.187 202.566 99.8854C202.566 99.584 202.621 99.3183 202.73 99.0883C202.842 98.8571 202.996 98.677 203.194 98.548C203.393 98.4177 203.626 98.3525 203.892 98.3525C204.045 98.3525 204.196 98.3781 204.346 98.4292C204.495 98.4803 204.631 98.5633 204.754 98.6783C204.877 98.792 204.974 98.9427 205.047 99.1305C205.12 99.3183 205.156 99.5495 205.156 99.8241V100.016H202.888V99.6248H204.696C204.696 99.4588 204.663 99.3106 204.597 99.1803C204.532 99.05 204.438 98.9472 204.317 98.8718C204.197 98.7964 204.055 98.7588 203.892 98.7588C203.712 98.7588 203.556 98.8035 203.424 98.8929C203.294 98.981 203.194 99.096 203.123 99.2378C203.053 99.3796 203.018 99.5316 203.018 99.6938V99.9544C203.018 100.177 203.056 100.365 203.133 100.52C203.211 100.673 203.319 100.79 203.457 100.87C203.595 100.949 203.755 100.989 203.938 100.989C204.056 100.989 204.164 100.972 204.26 100.939C204.357 100.905 204.44 100.854 204.511 100.786C204.581 100.717 204.635 100.631 204.673 100.529L205.11 100.652C205.064 100.8 204.987 100.93 204.878 101.043C204.77 101.154 204.636 101.241 204.476 101.303C204.316 101.365 204.137 101.395 203.938 101.395Z" fill="#6A676F"/>
<path d="M28.4457 120.548C28.3402 120.548 28.2587 120.522 28.2011 120.469C28.1484 120.412 28.122 120.33 28.122 120.225V115.8C28.122 115.695 28.1484 115.615 28.2011 115.563C28.2587 115.505 28.3402 115.476 28.4457 115.476H31.122C31.2035 115.476 31.2659 115.498 31.3091 115.541C31.3522 115.584 31.3738 115.644 31.3738 115.721C31.3738 115.803 31.3522 115.865 31.3091 115.908C31.2659 115.951 31.2035 115.973 31.122 115.973H28.6975V117.728H30.9709C31.0525 117.728 31.1148 117.75 31.158 117.793C31.2011 117.831 31.2227 117.891 31.2227 117.973C31.2227 118.054 31.2011 118.117 31.158 118.16C31.1148 118.203 31.0525 118.225 30.9709 118.225H28.6975V120.052H31.122C31.2035 120.052 31.2659 120.074 31.3091 120.117C31.3522 120.16 31.3738 120.22 31.3738 120.297C31.3738 120.378 31.3522 120.44 31.3091 120.484C31.2659 120.527 31.2035 120.548 31.122 120.548H28.4457ZM32.5393 120.599C32.4434 120.599 32.3715 120.572 32.3235 120.52C32.2756 120.467 32.2516 120.392 32.2516 120.297V117.297C32.2516 117.201 32.2756 117.129 32.3235 117.081C32.3715 117.028 32.441 117.002 32.5321 117.002C32.6233 117.002 32.6928 117.028 32.7408 117.081C32.7935 117.129 32.8199 117.201 32.8199 117.297V117.93L32.7408 117.829C32.8319 117.56 32.9782 117.354 33.1796 117.21C33.3859 117.062 33.6305 116.987 33.9134 116.987C34.2108 116.987 34.4506 117.059 34.6329 117.203C34.8199 117.342 34.9446 117.56 35.007 117.858H34.8991C34.9854 117.589 35.1389 117.378 35.3595 117.225C35.5849 117.066 35.8463 116.987 36.1437 116.987C36.4075 116.987 36.6233 117.038 36.7912 117.138C36.9638 117.239 37.0933 117.392 37.1797 117.599C37.266 117.8 37.3091 118.057 37.3091 118.368V120.297C37.3091 120.392 37.2828 120.467 37.23 120.52C37.1821 120.572 37.1101 120.599 37.0142 120.599C36.9231 120.599 36.8511 120.572 36.7984 120.52C36.7504 120.467 36.7264 120.392 36.7264 120.297V118.397C36.7264 118.076 36.6713 117.841 36.5609 117.692C36.4506 117.539 36.2636 117.462 35.9998 117.462C35.712 117.462 35.4842 117.563 35.3163 117.764C35.1533 117.961 35.0717 118.229 35.0717 118.57V120.297C35.0717 120.392 35.0453 120.467 34.9926 120.52C34.9446 120.572 34.8727 120.599 34.7768 120.599C34.6856 120.599 34.6137 120.572 34.5609 120.52C34.513 120.467 34.489 120.392 34.489 120.297V118.397C34.489 118.076 34.4314 117.841 34.3163 117.692C34.206 117.539 34.0214 117.462 33.7624 117.462C33.4746 117.462 33.2468 117.563 33.0789 117.764C32.9158 117.961 32.8343 118.229 32.8343 118.57V120.297C32.8343 120.498 32.736 120.599 32.5393 120.599ZM39.4994 120.613C39.2596 120.613 39.0438 120.568 38.8519 120.476C38.6649 120.38 38.5162 120.251 38.4059 120.088C38.2956 119.925 38.2404 119.743 38.2404 119.541C38.2404 119.282 38.3052 119.078 38.4347 118.93C38.569 118.781 38.7872 118.675 39.0893 118.613C39.3963 118.551 39.8136 118.52 40.3411 118.52H40.6649V118.901H40.3483C39.9598 118.901 39.6529 118.92 39.4275 118.958C39.2068 118.992 39.051 119.052 38.9598 119.138C38.8735 119.225 38.8303 119.347 38.8303 119.505C38.8303 119.702 38.8975 119.862 39.0318 119.987C39.1709 120.112 39.3579 120.174 39.5929 120.174C39.7848 120.174 39.9527 120.129 40.0965 120.038C40.2452 119.946 40.3603 119.822 40.4419 119.663C40.5282 119.505 40.5714 119.323 40.5714 119.117V118.297C40.5714 117.999 40.5114 117.786 40.3915 117.656C40.2716 117.522 40.075 117.455 39.8016 117.455C39.6337 117.455 39.4658 117.476 39.298 117.52C39.1301 117.563 38.9526 117.632 38.7656 117.728C38.6985 117.762 38.6409 117.774 38.5929 117.764C38.545 117.75 38.5066 117.723 38.4778 117.685C38.4491 117.647 38.4323 117.603 38.4275 117.556C38.4227 117.503 38.4323 117.452 38.4562 117.404C38.485 117.356 38.5282 117.318 38.5857 117.289C38.7968 117.184 39.0054 117.107 39.2116 117.059C39.4179 117.011 39.6145 116.987 39.8016 116.987C40.1037 116.987 40.3531 117.038 40.5498 117.138C40.7464 117.234 40.8927 117.383 40.9886 117.584C41.0846 117.781 41.1325 118.035 41.1325 118.347V120.297C41.1325 120.392 41.1085 120.467 41.0606 120.52C41.0174 120.572 40.9527 120.599 40.8663 120.599C40.7752 120.599 40.7057 120.572 40.6577 120.52C40.6097 120.467 40.5858 120.392 40.5858 120.297V119.735H40.6505C40.6121 119.918 40.5378 120.074 40.4275 120.203C40.322 120.333 40.1901 120.433 40.0318 120.505C39.8735 120.577 39.6961 120.613 39.4994 120.613ZM42.5014 120.584C42.4055 120.584 42.3335 120.558 42.2856 120.505C42.2376 120.448 42.2136 120.368 42.2136 120.268V117.325C42.2136 117.225 42.2376 117.148 42.2856 117.095C42.3335 117.042 42.4055 117.016 42.5014 117.016C42.5925 117.016 42.6645 117.042 42.7172 117.095C42.77 117.148 42.7964 117.225 42.7964 117.325V120.268C42.7964 120.368 42.77 120.448 42.7172 120.505C42.6693 120.558 42.5973 120.584 42.5014 120.584ZM42.5014 116.21C42.3815 116.21 42.288 116.179 42.2208 116.117C42.1537 116.05 42.1201 115.961 42.1201 115.85C42.1201 115.735 42.1537 115.649 42.2208 115.591C42.288 115.529 42.3815 115.498 42.5014 115.498C42.6261 115.498 42.7196 115.529 42.782 115.591C42.8491 115.649 42.8827 115.735 42.8827 115.85C42.8827 115.961 42.8491 116.05 42.782 116.117C42.7196 116.179 42.6261 116.21 42.5014 116.21ZM44.9505 120.613C44.6052 120.613 44.3414 120.508 44.1591 120.297C43.9769 120.086 43.8857 119.783 43.8857 119.39V115.721C43.8857 115.625 43.9097 115.553 43.9577 115.505C44.0056 115.452 44.0776 115.426 44.1735 115.426C44.2646 115.426 44.3366 115.452 44.3893 115.505C44.4421 115.553 44.4685 115.625 44.4685 115.721V119.347C44.4685 119.606 44.5188 119.8 44.6196 119.93C44.7251 120.054 44.8785 120.117 45.08 120.117C45.1232 120.117 45.1615 120.114 45.1951 120.109C45.2287 120.105 45.2622 120.102 45.2958 120.102C45.3486 120.097 45.3845 120.109 45.4037 120.138C45.4277 120.167 45.4397 120.225 45.4397 120.311C45.4397 120.397 45.4205 120.462 45.3821 120.505C45.3438 120.548 45.2814 120.577 45.1951 120.592C45.1567 120.596 45.116 120.601 45.0728 120.606C45.0296 120.611 44.9889 120.613 44.9505 120.613Z" fill="#211447"/>
<rect x="27.7209" y="125.572" width="144.785" height="17.5361" rx="3.37232" stroke="#E0E0E0" stroke-width="0.449643"/>
<path d="M27.9713 152.131V148.207H30.3396V148.629H28.4465V149.955H30.2169V150.376H28.4465V151.71H30.3702V152.131H27.9713ZM31.5869 150.361V152.131H31.1347V149.188H31.5716V149.648H31.6099C31.6789 149.499 31.7837 149.379 31.9242 149.288C32.0647 149.196 32.2461 149.15 32.4683 149.15C32.6676 149.15 32.842 149.191 32.9914 149.273C33.1409 149.353 33.2571 149.476 33.3402 149.64C33.4232 149.804 33.4647 150.011 33.4647 150.261V152.131H33.0125V150.292C33.0125 150.061 32.9525 149.881 32.8324 149.752C32.7123 149.621 32.5475 149.556 32.3381 149.556C32.1937 149.556 32.0647 149.587 31.951 149.65C31.8386 149.713 31.7498 149.804 31.6847 149.924C31.6195 150.044 31.5869 150.19 31.5869 150.361ZM35.571 149.188V149.571H34.0458V149.188H35.571ZM34.4903 148.483H34.9425V151.288C34.9425 151.416 34.961 151.512 34.9981 151.576C35.0364 151.638 35.0849 151.68 35.1437 151.702C35.2037 151.723 35.267 151.733 35.3334 151.733C35.3832 151.733 35.4241 151.73 35.456 151.725C35.4879 151.719 35.5135 151.714 35.5327 151.71L35.6246 152.116C35.594 152.128 35.5512 152.139 35.4963 152.151C35.4413 152.163 35.3717 152.17 35.2874 152.17C35.1597 152.17 35.0345 152.142 34.9118 152.087C34.7905 152.032 34.6896 151.949 34.6091 151.836C34.5299 151.724 34.4903 151.582 34.4903 151.411V148.483ZM37.4535 152.193C37.17 152.193 36.9253 152.13 36.7197 152.005C36.5153 151.878 36.3575 151.702 36.2464 151.476C36.1365 151.249 36.0816 150.984 36.0816 150.683C36.0816 150.381 36.1365 150.116 36.2464 149.886C36.3575 149.654 36.5121 149.474 36.7101 149.345C36.9094 149.215 37.1419 149.15 37.4076 149.15C37.5608 149.15 37.7122 149.175 37.8617 149.227C38.0111 149.278 38.1472 149.361 38.2698 149.476C38.3924 149.589 38.4901 149.74 38.563 149.928C38.6358 150.116 38.6722 150.347 38.6722 150.621V150.813H36.4035V150.422H38.2123C38.2123 150.256 38.1791 150.108 38.1127 149.978C38.0475 149.847 37.9543 149.745 37.8329 149.669C37.7128 149.594 37.5711 149.556 37.4076 149.556C37.2274 149.556 37.0716 149.601 36.94 149.69C36.8097 149.778 36.7095 149.893 36.6392 150.035C36.5689 150.177 36.5338 150.329 36.5338 150.491V150.752C36.5338 150.974 36.5721 151.162 36.6488 151.317C36.7267 151.47 36.8346 151.587 36.9726 151.668C37.1106 151.747 37.2709 151.786 37.4535 151.786C37.5723 151.786 37.6796 151.77 37.7754 151.737C37.8725 151.702 37.9562 151.651 38.0264 151.583C38.0967 151.514 38.151 151.429 38.1893 151.327L38.6262 151.449C38.5802 151.597 38.5029 151.728 38.3943 151.84C38.2858 151.951 38.1516 152.038 37.992 152.101C37.8323 152.162 37.6528 152.193 37.4535 152.193ZM39.36 152.131V149.188H39.7969V149.633H39.8276C39.8812 149.487 39.9783 149.369 40.1188 149.278C40.2593 149.188 40.4177 149.142 40.594 149.142C40.6272 149.142 40.6687 149.143 40.7186 149.144C40.7684 149.145 40.8061 149.147 40.8316 149.15V149.61C40.8163 149.606 40.7811 149.6 40.7262 149.593C40.6726 149.584 40.6157 149.579 40.5557 149.579C40.4126 149.579 40.2849 149.609 40.1725 149.669C40.0613 149.728 39.9732 149.81 39.9081 149.914C39.8442 150.018 39.8122 150.136 39.8122 150.269V152.131H39.36ZM43.1764 153.235C43.0998 153.235 43.0314 153.229 42.9714 153.216C42.9114 153.204 42.8698 153.193 42.8469 153.181L42.9618 152.783C43.0717 152.811 43.1688 152.821 43.2531 152.813C43.3374 152.806 43.4121 152.768 43.4772 152.7C43.5437 152.634 43.6043 152.526 43.6593 152.377L43.7436 152.147L42.6552 149.188H43.1458L43.9582 151.534H43.9888L44.8013 149.188H45.2918L44.0425 152.561C43.9863 152.713 43.9167 152.838 43.8336 152.938C43.7506 153.039 43.6542 153.114 43.5443 153.162C43.4357 153.211 43.3131 153.235 43.1764 153.235ZM46.9789 152.193C46.7132 152.193 46.4801 152.129 46.2795 152.003C46.0803 151.877 45.9244 151.7 45.812 151.472C45.7009 151.245 45.6453 150.979 45.6453 150.675C45.6453 150.369 45.7009 150.101 45.812 149.872C45.9244 149.644 46.0803 149.466 46.2795 149.34C46.4801 149.213 46.7132 149.15 46.9789 149.15C47.2446 149.15 47.4771 149.213 47.6764 149.34C47.8769 149.466 48.0328 149.644 48.1439 149.872C48.2563 150.101 48.3125 150.369 48.3125 150.675C48.3125 150.979 48.2563 151.245 48.1439 151.472C48.0328 151.7 47.8769 151.877 47.6764 152.003C47.4771 152.129 47.2446 152.193 46.9789 152.193ZM46.9789 151.786C47.1807 151.786 47.3468 151.735 47.4771 151.631C47.6074 151.528 47.7038 151.392 47.7664 151.223C47.829 151.055 47.8603 150.872 47.8603 150.675C47.8603 150.478 47.829 150.295 47.7664 150.125C47.7038 149.955 47.6074 149.818 47.4771 149.713C47.3468 149.608 47.1807 149.556 46.9789 149.556C46.7771 149.556 46.611 149.608 46.4807 149.713C46.3504 149.818 46.254 149.955 46.1914 150.125C46.1288 150.295 46.0975 150.478 46.0975 150.675C46.0975 150.872 46.1288 151.055 46.1914 151.223C46.254 151.392 46.3504 151.528 46.4807 151.631C46.611 151.735 46.7771 151.786 46.9789 151.786ZM50.8576 150.928V149.188H51.3097V152.131H50.8576V151.633H50.8269C50.7579 151.783 50.6506 151.91 50.505 152.014C50.3594 152.118 50.1754 152.17 49.9532 152.17C49.7692 152.17 49.6057 152.129 49.4626 152.049C49.3196 151.967 49.2072 151.845 49.1254 151.681C49.0437 151.516 49.0028 151.309 49.0028 151.058V149.188H49.455V151.028C49.455 151.242 49.515 151.413 49.6351 151.541C49.7564 151.669 49.911 151.733 50.0988 151.733C50.2112 151.733 50.3255 151.704 50.4418 151.647C50.5593 151.589 50.6576 151.501 50.7368 151.382C50.8173 151.263 50.8576 151.112 50.8576 150.928ZM52.138 152.131V149.188H52.5748V149.633H52.6055C52.6592 149.487 52.7562 149.369 52.8967 149.278C53.0373 149.188 53.1957 149.142 53.3719 149.142C53.4052 149.142 53.4467 149.143 53.4965 149.144C53.5463 149.145 53.584 149.147 53.6095 149.15V149.61C53.5942 149.606 53.5591 149.6 53.5042 149.593C53.4505 149.584 53.3937 149.579 53.3336 149.579C53.1906 149.579 53.0628 149.609 52.9504 149.669C52.8393 149.728 52.7511 149.81 52.686 149.914C52.6221 150.018 52.5902 150.136 52.5902 150.269V152.131H52.138ZM56.8971 152.193C56.6135 152.193 56.3689 152.13 56.1632 152.005C55.9588 151.878 55.8011 151.702 55.6899 151.476C55.5801 151.249 55.5251 150.984 55.5251 150.683C55.5251 150.381 55.5801 150.116 55.6899 149.886C55.8011 149.654 55.9556 149.474 56.1536 149.345C56.3529 149.215 56.5854 149.15 56.8511 149.15C57.0044 149.15 57.1557 149.175 57.3052 149.227C57.4547 149.278 57.5907 149.361 57.7133 149.476C57.836 149.589 57.9337 149.74 58.0065 149.928C58.0793 150.116 58.1157 150.347 58.1157 150.621V150.813H55.8471V150.422H57.6558C57.6558 150.256 57.6226 150.108 57.5562 149.978C57.4911 149.847 57.3978 149.745 57.2765 149.669C57.1564 149.594 57.0146 149.556 56.8511 149.556C56.671 149.556 56.5151 149.601 56.3836 149.69C56.2533 149.778 56.153 149.893 56.0827 150.035C56.0125 150.177 55.9773 150.329 55.9773 150.491V150.752C55.9773 150.974 56.0157 151.162 56.0923 151.317C56.1702 151.47 56.2782 151.587 56.4161 151.668C56.5541 151.747 56.7144 151.786 56.8971 151.786C57.0159 151.786 57.1232 151.77 57.219 151.737C57.3161 151.702 57.3997 151.651 57.47 151.583C57.5402 151.514 57.5945 151.429 57.6328 151.327L58.0697 151.449C58.0237 151.597 57.9464 151.728 57.8379 151.84C57.7293 151.951 57.5952 152.038 57.4355 152.101C57.2758 152.162 57.0963 152.193 56.8971 152.193ZM58.8036 152.131V149.188H59.2404V149.648H59.2788C59.3401 149.491 59.4391 149.369 59.5758 149.282C59.7124 149.194 59.8766 149.15 60.0682 149.15C60.2624 149.15 60.424 149.194 60.553 149.282C60.6833 149.369 60.7848 149.491 60.8576 149.648H60.8883C60.9637 149.496 61.0767 149.375 61.2274 149.286C61.3782 149.195 61.5589 149.15 61.7697 149.15C62.0328 149.15 62.2481 149.232 62.4154 149.397C62.5827 149.561 62.6664 149.815 62.6664 150.162V152.131H62.2142V150.162C62.2142 149.944 62.1548 149.789 62.036 149.696C61.9172 149.603 61.7774 149.556 61.6164 149.556C61.4095 149.556 61.2491 149.619 61.1355 149.744C61.0218 149.868 60.9649 150.025 60.9649 150.215V152.131H60.5051V150.116C60.5051 149.948 60.4508 149.814 60.3422 149.711C60.2336 149.608 60.0937 149.556 59.9226 149.556C59.8051 149.556 59.6952 149.587 59.593 149.65C59.4921 149.713 59.4103 149.799 59.3477 149.911C59.2864 150.02 59.2558 150.148 59.2558 150.292V152.131H58.8036ZM64.3593 152.2C64.1728 152.2 64.0035 152.165 63.8515 152.095C63.6995 152.023 63.5788 151.921 63.4894 151.786C63.4 151.651 63.3553 151.488 63.3553 151.296C63.3553 151.127 63.3885 150.991 63.4549 150.886C63.5213 150.78 63.6101 150.697 63.7212 150.637C63.8324 150.577 63.955 150.532 64.0891 150.503C64.2245 150.472 64.3606 150.448 64.4972 150.43C64.6761 150.407 64.8211 150.39 64.9322 150.378C65.0446 150.365 65.1264 150.344 65.1775 150.315C65.2298 150.286 65.256 150.234 65.256 150.162V150.146C65.256 149.957 65.2043 149.81 65.1008 149.706C64.9986 149.601 64.8434 149.548 64.6352 149.548C64.4193 149.548 64.2501 149.596 64.1274 149.69C64.0048 149.785 63.9186 149.886 63.8688 149.993L63.4396 149.84C63.5162 149.661 63.6184 149.522 63.7461 149.422C63.8752 149.321 64.0157 149.251 64.1677 149.211C64.321 149.17 64.4717 149.15 64.6199 149.15C64.7144 149.15 64.823 149.161 64.9456 149.184C65.0695 149.206 65.189 149.251 65.3039 149.32C65.4202 149.389 65.5166 149.494 65.5932 149.633C65.6699 149.772 65.7082 149.959 65.7082 150.192V152.131H65.256V151.733H65.233C65.2024 151.797 65.1513 151.865 65.0797 151.938C65.0082 152.011 64.913 152.073 64.7942 152.124C64.6754 152.175 64.5305 152.2 64.3593 152.2ZM64.4283 151.794C64.6071 151.794 64.7578 151.759 64.8805 151.689C65.0044 151.618 65.0976 151.528 65.1602 151.417C65.2241 151.306 65.256 151.189 65.256 151.066V150.652C65.2369 150.675 65.1947 150.696 65.1296 150.715C65.0657 150.733 64.9916 150.749 64.9073 150.763C64.8243 150.776 64.7431 150.788 64.6639 150.798C64.586 150.807 64.5228 150.814 64.4742 150.821C64.3567 150.836 64.2469 150.861 64.1447 150.895C64.0438 150.929 63.962 150.979 63.8994 151.047C63.8381 151.113 63.8074 151.204 63.8074 151.319C63.8074 151.476 63.8656 151.595 63.9818 151.675C64.0993 151.755 64.2481 151.794 64.4283 151.794ZM66.5336 152.131V149.188H66.9858V152.131H66.5336ZM66.7635 148.698C66.6754 148.698 66.5994 148.668 66.5355 148.608C66.4729 148.548 66.4416 148.475 66.4416 148.391C66.4416 148.307 66.4729 148.235 66.5355 148.175C66.5994 148.115 66.6754 148.085 66.7635 148.085C66.8516 148.085 66.927 148.115 66.9896 148.175C67.0535 148.235 67.0854 148.307 67.0854 148.391C67.0854 148.475 67.0535 148.548 66.9896 148.608C66.927 148.668 66.8516 148.698 66.7635 148.698ZM68.2662 148.207V152.131H67.814V148.207H68.2662ZM71.478 152.2C71.2915 152.2 71.1223 152.165 70.9703 152.095C70.8183 152.023 70.6976 151.921 70.6081 151.786C70.5187 151.651 70.474 151.488 70.474 151.296C70.474 151.127 70.5072 150.991 70.5736 150.886C70.6401 150.78 70.7288 150.697 70.84 150.637C70.9511 150.577 71.0737 150.532 71.2079 150.503C71.3433 150.472 71.4793 150.448 71.616 150.43C71.7948 150.407 71.9398 150.39 72.0509 150.378C72.1634 150.365 72.2451 150.344 72.2962 150.315C72.3486 150.286 72.3748 150.234 72.3748 150.162V150.146C72.3748 149.957 72.323 149.81 72.2196 149.706C72.1174 149.601 71.9622 149.548 71.754 149.548C71.5381 149.548 71.3688 149.596 71.2462 149.69C71.1236 149.785 71.0373 149.886 70.9875 149.993L70.5583 149.84C70.635 149.661 70.7371 149.522 70.8649 149.422C70.9939 149.321 71.1344 149.251 71.2864 149.211C71.4397 149.17 71.5904 149.15 71.7386 149.15C71.8332 149.15 71.9417 149.161 72.0644 149.184C72.1883 149.206 72.3077 149.251 72.4227 149.32C72.5389 149.389 72.6354 149.494 72.712 149.633C72.7886 149.772 72.827 149.959 72.827 150.192V152.131H72.3748V151.733H72.3518C72.3211 151.797 72.27 151.865 72.1985 151.938C72.127 152.011 72.0318 152.073 71.913 152.124C71.7942 152.175 71.6492 152.2 71.478 152.2ZM71.547 151.794C71.7259 151.794 71.8766 151.759 71.9992 151.689C72.1231 151.618 72.2164 151.528 72.279 151.417C72.3428 151.306 72.3748 151.189 72.3748 151.066V150.652C72.3556 150.675 72.3135 150.696 72.2483 150.715C72.1844 150.733 72.1103 150.749 72.026 150.763C71.943 150.776 71.8619 150.788 71.7827 150.798C71.7048 150.807 71.6415 150.814 71.593 150.821C71.4755 150.836 71.3656 150.861 71.2634 150.895C71.1625 150.929 71.0808 150.979 71.0182 151.047C70.9569 151.113 70.9262 151.204 70.9262 151.319C70.9262 151.476 70.9843 151.595 71.1006 151.675C71.2181 151.755 71.3669 151.794 71.547 151.794ZM74.7637 152.193C74.5184 152.193 74.3019 152.131 74.1141 152.007C73.9263 151.882 73.7794 151.705 73.6734 151.478C73.5674 151.249 73.5144 150.979 73.5144 150.667C73.5144 150.358 73.5674 150.09 73.6734 149.863C73.7794 149.635 73.927 149.46 74.116 149.336C74.3051 149.212 74.5235 149.15 74.7713 149.15C74.9629 149.15 75.1143 149.182 75.2254 149.246C75.3378 149.308 75.4234 149.38 75.4822 149.46C75.5422 149.54 75.5889 149.605 75.6221 149.656H75.6604V148.207H76.1126V152.131H75.6757V151.679H75.6221C75.5889 151.733 75.5416 151.801 75.4803 151.882C75.419 151.963 75.3315 152.035 75.2178 152.099C75.1041 152.161 74.9527 152.193 74.7637 152.193ZM74.825 151.786C75.0064 151.786 75.1596 151.739 75.2848 151.645C75.41 151.549 75.5052 151.417 75.5703 151.248C75.6355 151.078 75.6681 150.882 75.6681 150.66C75.6681 150.44 75.6361 150.248 75.5722 150.083C75.5084 149.917 75.4139 149.788 75.2887 149.696C75.1635 149.603 75.0089 149.556 74.825 149.556C74.6334 149.556 74.4737 149.605 74.3459 149.704C74.2195 149.801 74.1243 149.933 74.0605 150.1C73.9979 150.266 73.9666 150.453 73.9666 150.66C73.9666 150.869 73.9985 151.06 74.0624 151.231C74.1275 151.401 74.2233 151.536 74.3498 151.637C74.4775 151.737 74.6359 151.786 74.825 151.786ZM78.1149 152.193C77.8696 152.193 77.6531 152.131 77.4653 152.007C77.2776 151.882 77.1307 151.705 77.0246 151.478C76.9186 151.249 76.8656 150.979 76.8656 150.667C76.8656 150.358 76.9186 150.09 77.0246 149.863C77.1307 149.635 77.2782 149.46 77.4673 149.336C77.6563 149.212 77.8747 149.15 78.1226 149.15C78.3142 149.15 78.4655 149.182 78.5767 149.246C78.6891 149.308 78.7747 149.38 78.8334 149.46C78.8935 149.54 78.9401 149.605 78.9733 149.656H79.0116V148.207H79.4638V152.131H79.027V151.679H78.9733C78.9401 151.733 78.8928 151.801 78.8315 151.882C78.7702 151.963 78.6827 152.035 78.569 152.099C78.4553 152.161 78.304 152.193 78.1149 152.193ZM78.1762 151.786C78.3576 151.786 78.5109 151.739 78.6361 151.645C78.7613 151.549 78.8564 151.417 78.9216 151.248C78.9867 151.078 79.0193 150.882 79.0193 150.66C79.0193 150.44 78.9874 150.248 78.9235 150.083C78.8596 149.917 78.7651 149.788 78.6399 149.696C78.5147 149.603 78.3602 149.556 78.1762 149.556C77.9846 149.556 77.8249 149.605 77.6972 149.704C77.5707 149.801 77.4756 149.933 77.4117 150.1C77.3491 150.266 77.3178 150.453 77.3178 150.66C77.3178 150.869 77.3497 151.06 77.4136 151.231C77.4788 151.401 77.5746 151.536 77.701 151.637C77.8288 151.737 77.9872 151.786 78.1762 151.786ZM80.3548 152.131V149.188H80.7917V149.633H80.8223C80.876 149.487 80.9731 149.369 81.1136 149.278C81.2541 149.188 81.4125 149.142 81.5888 149.142C81.622 149.142 81.6635 149.143 81.7133 149.144C81.7631 149.145 81.8008 149.147 81.8264 149.15V149.61C81.811 149.606 81.7759 149.6 81.721 149.593C81.6673 149.584 81.6105 149.579 81.5504 149.579C81.4074 149.579 81.2796 149.609 81.1672 149.669C81.0561 149.728 80.968 149.81 80.9028 149.914C80.8389 150.018 80.807 150.136 80.807 150.269V152.131H80.3548ZM83.5068 152.193C83.2232 152.193 82.9786 152.13 82.7729 152.005C82.5685 151.878 82.4108 151.702 82.2996 151.476C82.1898 151.249 82.1349 150.984 82.1349 150.683C82.1349 150.381 82.1898 150.116 82.2996 149.886C82.4108 149.654 82.5653 149.474 82.7633 149.345C82.9626 149.215 83.1951 149.15 83.4608 149.15C83.6141 149.15 83.7655 149.175 83.9149 149.227C84.0644 149.278 84.2004 149.361 84.323 149.476C84.4457 149.589 84.5434 149.74 84.6162 149.928C84.689 150.116 84.7254 150.347 84.7254 150.621V150.813H82.4568V150.422H84.2656C84.2656 150.256 84.2323 150.108 84.1659 149.978C84.1008 149.847 84.0075 149.745 83.8862 149.669C83.7661 149.594 83.6243 149.556 83.4608 149.556C83.2807 149.556 83.1248 149.601 82.9933 149.69C82.863 149.778 82.7627 149.893 82.6924 150.035C82.6222 150.177 82.5871 150.329 82.5871 150.491V150.752C82.5871 150.974 82.6254 151.162 82.702 151.317C82.7799 151.47 82.8879 151.587 83.0258 151.668C83.1638 151.747 83.3241 151.786 83.5068 151.786C83.6256 151.786 83.7329 151.77 83.8287 151.737C83.9258 151.702 84.0094 151.651 84.0797 151.583C84.1499 151.514 84.2042 151.429 84.2426 151.327L84.6794 151.449C84.6334 151.597 84.5562 151.728 84.4476 151.84C84.339 151.951 84.2049 152.038 84.0452 152.101C83.8855 152.162 83.7061 152.193 83.5068 152.193ZM87.498 149.847L87.0918 149.962C87.0662 149.895 87.0286 149.829 86.9787 149.765C86.9302 149.7 86.8638 149.646 86.7795 149.604C86.6952 149.562 86.5872 149.541 86.4556 149.541C86.2755 149.541 86.1254 149.582 86.0054 149.665C85.8866 149.747 85.8272 149.851 85.8272 149.978C85.8272 150.09 85.868 150.179 85.9498 150.244C86.0315 150.309 86.1593 150.363 86.333 150.407L86.7699 150.514C87.033 150.578 87.2291 150.676 87.3581 150.807C87.4871 150.938 87.5516 151.106 87.5516 151.311C87.5516 151.48 87.5031 151.631 87.406 151.763C87.3102 151.896 87.1761 152.001 87.0036 152.078C86.8312 152.154 86.6306 152.193 86.402 152.193C86.1018 152.193 85.8534 152.128 85.6566 151.997C85.4599 151.867 85.3354 151.677 85.283 151.426L85.7122 151.319C85.7531 151.477 85.8304 151.596 85.944 151.675C86.059 151.755 86.2091 151.794 86.3943 151.794C86.6051 151.794 86.7724 151.749 86.8963 151.66C87.0215 151.569 87.0841 151.461 87.0841 151.334C87.0841 151.232 87.0484 151.146 86.9768 151.077C86.9053 151.007 86.7954 150.955 86.6473 150.92L86.1567 150.805C85.8872 150.742 85.6892 150.643 85.5627 150.508C85.4376 150.373 85.375 150.204 85.375 150.001C85.375 149.835 85.4216 149.688 85.5148 149.56C85.6094 149.432 85.7377 149.332 85.9 149.259C86.0635 149.186 86.2487 149.15 86.4556 149.15C86.7469 149.15 86.9755 149.214 87.1416 149.342C87.3089 149.469 87.4277 149.638 87.498 149.847ZM90.317 149.847L89.9108 149.962C89.8853 149.895 89.8476 149.829 89.7978 149.765C89.7492 149.7 89.6828 149.646 89.5985 149.604C89.5142 149.562 89.4063 149.541 89.2747 149.541C89.0946 149.541 88.9445 149.582 88.8244 149.665C88.7056 149.747 88.6462 149.851 88.6462 149.978C88.6462 150.09 88.6871 150.179 88.7688 150.244C88.8506 150.309 88.9783 150.363 89.1521 150.407L89.5889 150.514C89.8521 150.578 90.0482 150.676 90.1772 150.807C90.3062 150.938 90.3707 151.106 90.3707 151.311C90.3707 151.48 90.3222 151.631 90.2251 151.763C90.1293 151.896 89.9951 152.001 89.8227 152.078C89.6502 152.154 89.4497 152.193 89.221 152.193C88.9209 152.193 88.6724 152.128 88.4757 151.997C88.279 151.867 88.1544 151.677 88.102 151.426L88.5312 151.319C88.5721 151.477 88.6494 151.596 88.7631 151.675C88.8781 151.755 89.0282 151.794 89.2134 151.794C89.4241 151.794 89.5915 151.749 89.7154 151.66C89.8406 151.569 89.9032 151.461 89.9032 151.334C89.9032 151.232 89.8674 151.146 89.7959 151.077C89.7243 151.007 89.6145 150.955 89.4663 150.92L88.9758 150.805C88.7063 150.742 88.5083 150.643 88.3818 150.508C88.2566 150.373 88.194 150.204 88.194 150.001C88.194 149.835 88.2406 149.688 88.3339 149.56C88.4284 149.432 88.5568 149.332 88.719 149.259C88.8825 149.186 89.0678 149.15 89.2747 149.15C89.5659 149.15 89.7946 149.214 89.9607 149.342C90.128 149.469 90.2468 149.638 90.317 149.847Z" fill="#6A676F"/>
<g filter="url(#filter1_d_4097_7363)">
<rect x="99.6797" y="163.325" width="151.499" height="33.3655" rx="3.06668" fill="white" shape-rendering="crispEdges"/>
<path d="M115.356 177.102C115.356 177.786 114.755 178.34 114.015 178.34C113.275 178.34 112.675 177.786 112.675 177.102C112.675 176.418 113.275 175.883 114.015 175.883C114.755 175.883 115.356 176.418 115.356 177.102Z" fill="#5C3EB6"/>
<path d="M120.047 177.112C120.047 177.79 119.447 178.34 118.707 178.34C118.707 178.34 117.366 177.79 117.366 177.112C117.366 176.433 117.966 175.883 118.707 175.883C119.447 175.883 120.047 176.433 120.047 177.112Z" fill="#5C3EB6"/>
<path fill-rule="evenodd" clip-rule="evenodd" d="M110.831 169.871C109.813 169.871 108.988 170.735 108.988 171.802V188.214C108.988 189.281 109.813 190.145 110.831 190.145H121.89C122.908 190.145 123.733 189.281 123.733 188.214V171.802C123.733 170.735 122.908 169.871 121.89 169.871H110.831ZM113.135 174.698C111.863 174.698 110.831 175.779 110.831 177.112C110.831 178.445 111.863 179.525 113.135 179.525H119.586C120.859 179.525 121.89 178.445 121.89 177.112C121.89 175.779 120.859 174.698 119.586 174.698H113.135Z" fill="#5C3EB6"/>
<path d="M133.725 175.702H135.761L137.91 180.946H138.002L140.152 175.702H142.187V183.508H140.586V178.427H140.521L138.501 183.47H137.411L135.391 178.408H135.326V183.508H133.725V175.702ZM145.186 183.618C144.812 183.618 144.479 183.554 144.187 183.424C143.895 183.292 143.664 183.097 143.493 182.841C143.326 182.582 143.242 182.259 143.242 181.873C143.242 181.547 143.302 181.274 143.421 181.053C143.54 180.832 143.703 180.654 143.909 180.52C144.115 180.385 144.349 180.283 144.61 180.215C144.875 180.146 145.151 180.098 145.441 180.07C145.782 180.034 146.056 180.001 146.264 179.971C146.473 179.938 146.624 179.889 146.718 179.826C146.812 179.762 146.859 179.668 146.859 179.544V179.521C146.859 179.28 146.783 179.093 146.63 178.961C146.48 178.828 146.267 178.762 145.99 178.762C145.698 178.762 145.465 178.827 145.293 178.957C145.12 179.084 145.005 179.244 144.949 179.437L143.448 179.315C143.524 178.959 143.674 178.652 143.897 178.393C144.121 178.131 144.409 177.93 144.763 177.79C145.118 177.648 145.53 177.577 145.998 177.577C146.323 177.577 146.634 177.615 146.931 177.691C147.231 177.768 147.497 177.886 147.728 178.046C147.962 178.206 148.146 178.412 148.281 178.663C148.415 178.912 148.483 179.211 148.483 179.559V183.508H146.943V182.696H146.897C146.803 182.879 146.677 183.04 146.52 183.18C146.362 183.317 146.173 183.425 145.952 183.504C145.731 183.58 145.475 183.618 145.186 183.618ZM145.651 182.498C145.89 182.498 146.101 182.451 146.284 182.357C146.466 182.26 146.61 182.131 146.714 181.968C146.818 181.805 146.87 181.621 146.87 181.415V180.794C146.82 180.827 146.75 180.857 146.661 180.885C146.574 180.911 146.477 180.935 146.367 180.958C146.258 180.978 146.149 180.997 146.04 181.015C145.93 181.03 145.831 181.044 145.742 181.057C145.552 181.085 145.385 181.129 145.243 181.19C145.101 181.251 144.99 181.334 144.911 181.438C144.833 181.54 144.793 181.667 144.793 181.819C144.793 182.04 144.873 182.209 145.033 182.326C145.196 182.441 145.402 182.498 145.651 182.498ZM151.9 183.603C151.455 183.603 151.052 183.489 150.692 183.26C150.333 183.029 150.049 182.69 149.838 182.242C149.629 181.793 149.525 181.241 149.525 180.588C149.525 179.917 149.633 179.36 149.849 178.915C150.065 178.468 150.352 178.133 150.711 177.912C151.071 177.689 151.467 177.577 151.896 177.577C152.224 177.577 152.497 177.633 152.716 177.745C152.937 177.854 153.114 177.991 153.249 178.156C153.386 178.319 153.491 178.479 153.562 178.637H153.611V175.702H155.231V183.508H153.63V182.57H153.562C153.485 182.733 153.377 182.894 153.238 183.054C153.101 183.212 152.921 183.343 152.7 183.447C152.482 183.551 152.215 183.603 151.9 183.603ZM152.414 182.311C152.676 182.311 152.897 182.24 153.078 182.098C153.261 181.953 153.4 181.751 153.497 181.491C153.596 181.232 153.646 180.929 153.646 180.581C153.646 180.232 153.597 179.93 153.501 179.673C153.404 179.417 153.264 179.219 153.081 179.079C152.899 178.939 152.676 178.869 152.414 178.869C152.148 178.869 151.923 178.942 151.74 179.086C151.557 179.231 151.418 179.432 151.324 179.689C151.23 179.945 151.183 180.243 151.183 180.581C151.183 180.921 151.23 181.222 151.324 181.484C151.421 181.743 151.559 181.946 151.74 182.094C151.923 182.239 152.148 182.311 152.414 182.311ZM159.234 183.622C158.632 183.622 158.114 183.5 157.679 183.256C157.247 183.01 156.914 182.662 156.681 182.212C156.447 181.76 156.33 181.225 156.33 180.607C156.33 180.005 156.447 179.476 156.681 179.022C156.914 178.567 157.243 178.212 157.668 177.958C158.095 177.704 158.595 177.577 159.169 177.577C159.556 177.577 159.915 177.639 160.248 177.764C160.584 177.886 160.876 178.07 161.125 178.316C161.376 178.563 161.572 178.873 161.712 179.246C161.852 179.617 161.921 180.052 161.921 180.55V180.996H156.978V179.99H160.393C160.393 179.756 160.342 179.549 160.241 179.368C160.139 179.188 159.998 179.047 159.817 178.945C159.64 178.841 159.432 178.789 159.196 178.789C158.95 178.789 158.731 178.846 158.541 178.961C158.353 179.072 158.205 179.224 158.098 179.414C157.992 179.602 157.937 179.812 157.935 180.043V181C157.935 181.289 157.988 181.54 158.095 181.751C158.204 181.962 158.358 182.124 158.556 182.239C158.754 182.353 158.989 182.41 159.261 182.41C159.441 182.41 159.607 182.385 159.756 182.334C159.906 182.283 160.035 182.207 160.141 182.105C160.248 182.004 160.329 181.879 160.385 181.732L161.887 181.831C161.811 182.192 161.655 182.507 161.418 182.776C161.185 183.043 160.882 183.251 160.511 183.401C160.143 183.548 159.717 183.622 159.234 183.622ZM166.62 183.508L165.027 177.653H166.67L167.577 181.587H167.63L168.576 177.653H170.188L171.148 181.564H171.198L172.09 177.653H173.729L172.139 183.508H170.42L169.414 179.826H169.342L168.335 183.508H166.62ZM174.595 183.508V177.653H176.219V183.508H174.595ZM175.411 176.899C175.169 176.899 174.962 176.819 174.789 176.658C174.619 176.496 174.534 176.301 174.534 176.075C174.534 175.852 174.619 175.66 174.789 175.5C174.962 175.337 175.169 175.256 175.411 175.256C175.652 175.256 175.858 175.337 176.028 175.5C176.201 175.66 176.287 175.852 176.287 176.075C176.287 176.301 176.201 176.496 176.028 176.658C175.858 176.819 175.652 176.899 175.411 176.899ZM180.633 177.653V178.873H177.108V177.653H180.633ZM177.908 176.251H179.532V181.709C179.532 181.859 179.555 181.976 179.6 182.059C179.646 182.141 179.71 182.198 179.791 182.231C179.875 182.264 179.971 182.28 180.081 182.28C180.157 182.28 180.233 182.274 180.309 182.261C180.386 182.246 180.444 182.235 180.485 182.227L180.74 183.435C180.659 183.461 180.544 183.49 180.397 183.523C180.25 183.559 180.071 183.58 179.86 183.588C179.468 183.603 179.125 183.551 178.831 183.432C178.538 183.312 178.311 183.127 178.148 182.875C177.986 182.624 177.906 182.306 177.908 181.922V176.251ZM183.441 180.123V183.508H181.817V175.702H183.395V178.686H183.464C183.596 178.341 183.809 178.07 184.104 177.874C184.399 177.676 184.768 177.577 185.213 177.577C185.62 177.577 185.974 177.666 186.276 177.844C186.581 178.019 186.818 178.272 186.985 178.602C187.156 178.93 187.24 179.323 187.237 179.78V183.508H185.613V180.07C185.616 179.709 185.524 179.428 185.339 179.227C185.156 179.027 184.899 178.926 184.569 178.926C184.348 178.926 184.152 178.973 183.982 179.067C183.814 179.161 183.682 179.299 183.585 179.479C183.491 179.657 183.443 179.872 183.441 180.123ZM191.029 183.508V175.702H196.198V177.062H192.68V178.922H195.855V180.283H192.68V183.508H191.029ZM199.493 183.622C198.901 183.622 198.389 183.496 197.957 183.245C197.528 182.991 197.196 182.638 196.962 182.185C196.728 181.73 196.612 181.203 196.612 180.603C196.612 179.999 196.728 179.47 196.962 179.018C197.196 178.563 197.528 178.21 197.957 177.958C198.389 177.704 198.901 177.577 199.493 177.577C200.085 177.577 200.596 177.704 201.025 177.958C201.457 178.21 201.79 178.563 202.024 179.018C202.258 179.47 202.375 179.999 202.375 180.603C202.375 181.203 202.258 181.73 202.024 182.185C201.79 182.638 201.457 182.991 201.025 183.245C200.596 183.496 200.085 183.622 199.493 183.622ZM199.501 182.364C199.77 182.364 199.995 182.288 200.175 182.136C200.356 181.981 200.492 181.77 200.583 181.503C200.677 181.236 200.724 180.932 200.724 180.592C200.724 180.251 200.677 179.948 200.583 179.681C200.492 179.414 200.356 179.203 200.175 179.048C199.995 178.893 199.77 178.816 199.501 178.816C199.229 178.816 199 178.893 198.815 179.048C198.632 179.203 198.493 179.414 198.399 179.681C198.308 179.948 198.262 180.251 198.262 180.592C198.262 180.932 198.308 181.236 198.399 181.503C198.493 181.77 198.632 181.981 198.815 182.136C199 182.288 199.229 182.364 199.501 182.364ZM203.43 183.508V177.653H205.005V178.675H205.066C205.172 178.311 205.351 178.037 205.603 177.851C205.855 177.663 206.144 177.569 206.472 177.569C206.553 177.569 206.641 177.574 206.735 177.585C206.829 177.595 206.912 177.609 206.983 177.627V179.067C206.907 179.044 206.801 179.024 206.666 179.006C206.532 178.989 206.409 178.98 206.297 178.98C206.058 178.98 205.844 179.032 205.656 179.136C205.471 179.238 205.324 179.38 205.214 179.563C205.108 179.746 205.054 179.957 205.054 180.196V183.508H203.43ZM207.822 183.508V177.653H209.37V178.686H209.438C209.56 178.343 209.764 178.073 210.048 177.874C210.333 177.676 210.673 177.577 211.07 177.577C211.471 177.577 211.813 177.677 212.095 177.878C212.377 178.076 212.565 178.346 212.659 178.686H212.72C212.84 178.351 213.056 178.083 213.368 177.882C213.683 177.679 214.056 177.577 214.485 177.577C215.031 177.577 215.475 177.751 215.815 178.099C216.158 178.445 216.33 178.935 216.33 179.57V183.508H214.71V179.891C214.71 179.565 214.623 179.321 214.451 179.159C214.278 178.996 214.062 178.915 213.803 178.915C213.508 178.915 213.278 179.009 213.113 179.197C212.948 179.382 212.865 179.628 212.865 179.933V183.508H211.291V179.856C211.291 179.569 211.208 179.34 211.043 179.17C210.88 179 210.666 178.915 210.399 178.915C210.219 178.915 210.056 178.961 209.911 179.052C209.769 179.141 209.656 179.267 209.572 179.429C209.488 179.59 209.446 179.778 209.446 179.994V183.508H207.822ZM220.28 183.622C219.678 183.622 219.16 183.5 218.725 183.256C218.293 183.01 217.96 182.662 217.727 182.212C217.493 181.76 217.376 181.225 217.376 180.607C217.376 180.005 217.493 179.476 217.727 179.022C217.96 178.567 218.29 178.212 218.714 177.958C219.141 177.704 219.641 177.577 220.216 177.577C220.602 177.577 220.961 177.639 221.294 177.764C221.63 177.886 221.922 178.07 222.171 178.316C222.423 178.563 222.618 178.873 222.758 179.246C222.898 179.617 222.968 180.052 222.968 180.55V180.996H218.024V179.99H221.439C221.439 179.756 221.388 179.549 221.287 179.368C221.185 179.188 221.044 179.047 220.864 178.945C220.686 178.841 220.479 178.789 220.242 178.789C219.996 178.789 219.777 178.846 219.587 178.961C219.399 179.072 219.251 179.224 219.145 179.414C219.038 179.602 218.983 179.812 218.981 180.043V181C218.981 181.289 219.034 181.54 219.141 181.751C219.25 181.962 219.404 182.124 219.602 182.239C219.8 182.353 220.035 182.41 220.307 182.41C220.488 182.41 220.653 182.385 220.803 182.334C220.953 182.283 221.081 182.207 221.188 182.105C221.294 182.004 221.376 181.879 221.432 181.732L222.933 181.831C222.857 182.192 222.701 182.507 222.464 182.776C222.231 183.043 221.928 183.251 221.557 183.401C221.189 183.548 220.763 183.622 220.28 183.622ZM228.898 179.323L227.412 179.414C227.386 179.287 227.332 179.173 227.248 179.071C227.164 178.967 227.054 178.884 226.916 178.823C226.782 178.76 226.62 178.728 226.432 178.728C226.181 178.728 225.969 178.781 225.796 178.888C225.623 178.992 225.537 179.132 225.537 179.307C225.537 179.447 225.593 179.565 225.704 179.662C225.816 179.758 226.008 179.836 226.28 179.894L227.339 180.108C227.909 180.225 228.333 180.413 228.613 180.672C228.892 180.931 229.032 181.272 229.032 181.694C229.032 182.077 228.919 182.414 228.693 182.704C228.469 182.993 228.162 183.219 227.77 183.382C227.381 183.542 226.933 183.622 226.425 183.622C225.65 183.622 225.032 183.461 224.572 183.138C224.115 182.813 223.847 182.371 223.768 181.812L225.365 181.728C225.413 181.964 225.53 182.145 225.716 182.269C225.901 182.391 226.139 182.452 226.429 182.452C226.713 182.452 226.942 182.397 227.115 182.288C227.29 182.176 227.379 182.033 227.381 181.857C227.379 181.71 227.317 181.589 227.195 181.495C227.073 181.399 226.885 181.325 226.631 181.274L225.617 181.072C225.045 180.958 224.619 180.76 224.34 180.478C224.063 180.196 223.924 179.836 223.924 179.399C223.924 179.023 224.026 178.699 224.229 178.427C224.435 178.155 224.723 177.945 225.094 177.798C225.468 177.651 225.905 177.577 226.406 177.577C227.145 177.577 227.727 177.733 228.151 178.046C228.578 178.358 228.827 178.784 228.898 179.323ZM233.168 177.653V178.873H229.643V177.653H233.168ZM230.443 176.251H232.067V181.709C232.067 181.859 232.09 181.976 232.135 182.059C232.181 182.141 232.245 182.198 232.326 182.231C232.41 182.264 232.506 182.28 232.616 182.28C232.692 182.28 232.768 182.274 232.844 182.261C232.921 182.246 232.979 182.235 233.02 182.227L233.275 183.435C233.194 183.461 233.079 183.49 232.932 183.523C232.785 183.559 232.605 183.58 232.395 183.588C232.003 183.603 231.66 183.551 231.365 183.432C231.073 183.312 230.846 183.127 230.683 182.875C230.521 182.624 230.441 182.306 230.443 181.922V176.251ZM236.831 183.622C236.229 183.622 235.711 183.5 235.276 183.256C234.844 183.01 234.511 182.662 234.277 182.212C234.044 181.76 233.927 181.225 233.927 180.607C233.927 180.005 234.044 179.476 234.277 179.022C234.511 178.567 234.84 178.212 235.265 177.958C235.692 177.704 236.192 177.577 236.766 177.577C237.153 177.577 237.512 177.639 237.845 177.764C238.181 177.886 238.473 178.07 238.722 178.316C238.973 178.563 239.169 178.873 239.309 179.246C239.449 179.617 239.518 180.052 239.518 180.55V180.996H234.575V179.99H237.99C237.99 179.756 237.939 179.549 237.837 179.368C237.736 179.188 237.595 179.047 237.414 178.945C237.237 178.841 237.029 178.789 236.793 178.789C236.547 178.789 236.328 178.846 236.138 178.961C235.949 179.072 235.802 179.224 235.695 179.414C235.589 179.602 235.534 179.812 235.531 180.043V181C235.531 181.289 235.585 181.54 235.692 181.751C235.801 181.962 235.955 182.124 236.153 182.239C236.351 182.353 236.586 182.41 236.858 182.41C237.038 182.41 237.204 182.385 237.353 182.334C237.503 182.283 237.632 182.207 237.738 182.105C237.845 182.004 237.926 181.879 237.982 181.732L239.484 181.831C239.408 182.192 239.252 182.507 239.015 182.776C238.781 183.043 238.479 183.251 238.108 183.401C237.74 183.548 237.314 183.622 236.831 183.622ZM240.578 183.508V177.653H242.152V178.675H242.213C242.32 178.311 242.499 178.037 242.751 177.851C243.002 177.663 243.292 177.569 243.62 177.569C243.701 177.569 243.789 177.574 243.883 177.585C243.977 177.595 244.059 177.609 244.13 177.627V179.067C244.054 179.044 243.949 179.024 243.814 179.006C243.679 178.989 243.556 178.98 243.444 178.98C243.205 178.98 242.992 179.032 242.804 179.136C242.618 179.238 242.471 179.38 242.362 179.563C242.255 179.746 242.202 179.957 242.202 180.196V183.508H240.578Z" fill="#211447"/>
<rect x="98.8018" y="162.447" width="153.255" height="35.1212" rx="3.94456" stroke="#C4B8E9" stroke-width="1.75575" shape-rendering="crispEdges"/>
</g>
</g>
</g>
<rect x="206.156" y="109.195" width="151.115" height="36.092" rx="7.02299" fill="#4F3895"/>
<path d="M224.643 131.241V123.579H227.231C227.83 123.579 228.321 123.682 228.705 123.886C229.089 124.088 229.374 124.366 229.558 124.72C229.743 125.074 229.835 125.477 229.835 125.929C229.835 126.38 229.743 126.78 229.558 127.129C229.374 127.479 229.091 127.753 228.709 127.952C228.327 128.149 227.84 128.248 227.246 128.248H225.151V127.41H227.216C227.625 127.41 227.955 127.35 228.204 127.23C228.456 127.111 228.638 126.941 228.75 126.722C228.865 126.5 228.922 126.235 228.922 125.929C228.922 125.622 228.865 125.354 228.75 125.124C228.635 124.895 228.452 124.718 228.2 124.593C227.948 124.466 227.615 124.402 227.201 124.402H225.57V131.241H224.643ZM228.249 127.799L230.134 131.241H229.057L227.201 127.799H228.249ZM231.592 131.241V123.579H236.215V124.402H232.519V126.991H235.976V127.814H232.519V130.418H236.275V131.241H231.592ZM238.098 123.579H239.206L241.809 129.939H241.899L244.503 123.579H245.61V131.241H244.742V125.42H244.667L242.273 131.241H241.435L239.041 125.42H238.966V131.241H238.098V123.579ZM254.145 127.41C254.145 128.218 253.999 128.916 253.708 129.505C253.416 130.094 253.016 130.547 252.507 130.867C251.998 131.186 251.417 131.345 250.764 131.345C250.11 131.345 249.529 131.186 249.02 130.867C248.512 130.547 248.111 130.094 247.819 129.505C247.528 128.916 247.382 128.218 247.382 127.41C247.382 126.602 247.528 125.904 247.819 125.315C248.111 124.727 248.512 124.273 249.02 123.953C249.529 123.634 250.11 123.475 250.764 123.475C251.417 123.475 251.998 123.634 252.507 123.953C253.016 124.273 253.416 124.727 253.708 125.315C253.999 125.904 254.145 126.602 254.145 127.41ZM253.248 127.41C253.248 126.747 253.137 126.187 252.915 125.73C252.695 125.274 252.397 124.929 252.021 124.694C251.646 124.46 251.227 124.342 250.764 124.342C250.3 124.342 249.879 124.46 249.503 124.694C249.129 124.929 248.831 125.274 248.609 125.73C248.389 126.187 248.28 126.747 248.28 127.41C248.28 128.073 248.389 128.633 248.609 129.09C248.831 129.546 249.129 129.891 249.503 130.126C249.879 130.36 250.3 130.478 250.764 130.478C251.227 130.478 251.646 130.36 252.021 130.126C252.397 129.891 252.695 129.546 252.915 129.09C253.137 128.633 253.248 128.073 253.248 127.41ZM255.87 123.579L258.145 130.029H258.234L260.509 123.579H261.482L258.668 131.241H257.711L254.898 123.579H255.87ZM262.886 131.241V123.579H267.509V124.402H263.813V126.991H267.27V127.814H263.813V130.418H267.569V131.241H262.886ZM273.957 131.241L271.863 123.579H272.805L274.406 129.819H274.481L276.112 123.579H277.16L278.791 129.819H278.866L280.467 123.579H281.409L279.315 131.241H278.357L276.666 125.136H276.606L274.915 131.241H273.957ZM282.494 131.241H281.521L284.334 123.579H285.292L288.105 131.241H287.132L284.843 124.791H284.783L282.494 131.241ZM282.853 128.248H286.773V129.071H282.853V128.248ZM288.195 124.402V123.579H293.941V124.402H291.532V131.241H290.604V124.402H288.195ZM295.584 131.241V123.579H300.207V124.402H296.511V126.991H299.968V127.814H296.511V130.418H300.267V131.241H295.584ZM302.09 131.241V123.579H304.679C305.278 123.579 305.769 123.682 306.153 123.886C306.537 124.088 306.821 124.366 307.006 124.72C307.191 125.074 307.283 125.477 307.283 125.929C307.283 126.38 307.191 126.78 307.006 127.129C306.821 127.479 306.538 127.753 306.157 127.952C305.775 128.149 305.288 128.248 304.694 128.248H302.599V127.41H304.664C305.073 127.41 305.402 127.35 305.652 127.23C305.904 127.111 306.086 126.941 306.198 126.722C306.313 126.5 306.37 126.235 306.37 125.929C306.37 125.622 306.313 125.354 306.198 125.124C306.083 124.895 305.9 124.718 305.648 124.593C305.396 124.466 305.063 124.402 304.649 124.402H303.018V131.241H302.09ZM305.697 127.799L307.582 131.241H306.505L304.649 127.799H305.697ZM309.039 123.579H310.147L312.75 129.939H312.84L315.444 123.579H316.551V131.241H315.683V125.42H315.609L313.214 131.241H312.376L309.982 125.42H309.907V131.241H309.039V123.579ZM318.936 131.241H317.964L320.777 123.579H321.735L324.548 131.241H323.575L321.286 124.791H321.226L318.936 131.241ZM319.295 128.248H323.216V129.071H319.295V128.248ZM325.952 131.241V123.579H328.541C329.139 123.579 329.63 123.682 330.014 123.886C330.399 124.088 330.683 124.366 330.867 124.72C331.052 125.074 331.144 125.477 331.144 125.929C331.144 126.38 331.052 126.78 330.867 127.129C330.683 127.479 330.4 127.753 330.018 127.952C329.637 128.149 329.149 128.248 328.556 128.248H326.461V127.41H328.526C328.935 127.41 329.264 127.35 329.513 127.23C329.765 127.111 329.947 126.941 330.059 126.722C330.174 126.5 330.231 126.235 330.231 125.929C330.231 125.622 330.174 125.354 330.059 125.124C329.945 124.895 329.761 124.718 329.509 124.593C329.258 124.466 328.925 124.402 328.511 124.402H326.88V131.241H325.952ZM329.558 127.799L331.444 131.241H330.366L328.511 127.799H329.558ZM332.901 131.241V123.579H333.829V127.38H333.918L337.36 123.579H338.572L335.355 127.036L338.572 131.241H337.45L334.786 127.679L333.829 128.757V131.241H332.901Z" fill="white"/>
<path d="M353.801 117.974C354.219 117.974 354.621 118.141 354.917 118.438C355.213 118.735 355.379 119.139 355.379 119.559V124.844C355.379 125.264 355.213 125.668 354.917 125.965C354.621 126.262 354.219 126.429 353.801 126.429C353.382 126.429 352.981 126.262 352.685 125.965C352.389 125.668 352.222 125.264 352.222 124.844V119.559C352.222 119.139 352.389 118.735 352.685 118.438C352.981 118.141 353.382 117.974 353.801 117.974ZM343.74 122.138C344.036 121.841 344.437 121.674 344.856 121.674C345.274 121.674 345.675 121.841 345.971 122.138L349.654 125.838C349.81 125.983 349.934 126.158 350.02 126.352C350.106 126.547 350.153 126.757 350.157 126.969C350.16 127.182 350.121 127.394 350.042 127.591C349.963 127.789 349.844 127.968 349.694 128.119C349.545 128.269 349.366 128.388 349.169 128.468C348.973 128.547 348.762 128.586 348.55 128.583C348.338 128.579 348.129 128.532 347.936 128.446C347.742 128.359 347.568 128.234 347.423 128.078L343.74 124.379C343.444 124.082 343.278 123.679 343.278 123.258C343.278 122.838 343.444 122.435 343.74 122.138ZM363.861 122.138C364.157 122.435 364.323 122.838 364.323 123.258C364.323 123.679 364.157 124.082 363.861 124.379L360.178 128.078C360.034 128.234 359.859 128.359 359.666 128.446C359.472 128.532 359.263 128.579 359.051 128.583C358.839 128.586 358.629 128.547 358.432 128.468C358.235 128.388 358.057 128.269 357.907 128.119C357.757 127.968 357.639 127.789 357.56 127.591C357.48 127.394 357.441 127.182 357.445 126.969C357.449 126.757 357.495 126.547 357.581 126.352C357.668 126.158 357.792 125.983 357.947 125.838L361.63 122.138C361.926 121.841 362.328 121.674 362.746 121.674C363.164 121.674 363.565 121.841 363.861 122.138ZM339.594 132.243C339.594 131.822 339.76 131.419 340.056 131.122C340.352 130.824 340.754 130.657 341.172 130.657H346.434C346.853 130.657 347.254 130.824 347.55 131.122C347.846 131.419 348.013 131.822 348.013 132.243C348.013 132.663 347.846 133.067 347.55 133.364C347.254 133.661 346.853 133.828 346.434 133.828H341.172C340.754 133.828 340.352 133.661 340.056 133.364C339.76 133.067 339.594 132.663 339.594 132.243ZM352.222 133.801C352.222 131.418 355.005 130.133 356.804 131.685L374.612 147.015C376.528 148.664 375.438 151.816 372.918 151.919L364.836 152.243C363.967 152.277 363.15 152.666 362.569 153.315L357.067 159.491C355.369 161.4 352.222 160.191 352.222 157.631V133.803V133.801Z" fill="#A58CF0"/>
<defs>
<filter id="filter0_dd_4097_7363" x="0.604289" y="0.222066" width="349.651" height="218.951" filterUnits="userSpaceOnUse" color-interpolation-filters="sRGB">
<feFlood flood-opacity="0" result="BackgroundImageFix"/>
<feColorMatrix in="SourceAlpha" type="matrix" values="0 0 0 0 0 0 0 0 0 0 0 0 0 0 0 0 0 0 127 0" result="hardAlpha"/>
<feOffset dy="2.69786"/>
<feGaussianBlur stdDeviation="2.69786"/>
<feComposite in2="hardAlpha" operator="out"/>
<feColorMatrix type="matrix" values="0 0 0 0 0 0 0 0 0 0 0 0 0 0 0 0 0 0 0.04 0"/>
<feBlend mode="normal" in2="BackgroundImageFix" result="effect1_dropShadow_4097_7363"/>
<feColorMatrix in="SourceAlpha" type="matrix" values="0 0 0 0 0 0 0 0 0 0 0 0 0 0 0 0 0 0 127 0" result="hardAlpha"/>
<feOffset dy="0.899285"/>
<feGaussianBlur stdDeviation="0.899285"/>
<feComposite in2="hardAlpha" operator="out"/>
<feColorMatrix type="matrix" values="0 0 0 0 0 0 0 0 0 0 0 0 0 0 0 0 0 0 0.06 0"/>
<feBlend mode="normal" in2="effect1_dropShadow_4097_7363" result="effect2_dropShadow_4097_7363"/>
<feBlend mode="normal" in="SourceGraphic" in2="effect2_dropShadow_4097_7363" result="shape"/>
</filter>
<filter id="filter1_d_4097_7363" x="94.8591" y="160.036" width="161.141" height="43.0103" filterUnits="userSpaceOnUse" color-interpolation-filters="sRGB">
<feFlood flood-opacity="0" result="BackgroundImageFix"/>
<feColorMatrix in="SourceAlpha" type="matrix" values="0 0 0 0 0 0 0 0 0 0 0 0 0 0 0 0 0 0 127 0" result="hardAlpha"/>
<feOffset dy="1.53334"/>
<feGaussianBlur stdDeviation="1.53334"/>
<feComposite in2="hardAlpha" operator="out"/>
<feColorMatrix type="matrix" values="0 0 0 0 0 0 0 0 0 0 0 0 0 0 0 0 0 0 0.15 0"/>
<feBlend mode="normal" in2="BackgroundImageFix" result="effect1_dropShadow_4097_7363"/>
<feBlend mode="normal" in="SourceGraphic" in2="effect1_dropShadow_4097_7363" result="shape"/>
</filter>
<clipPath id="clip0_4097_7363">
<rect x="6" y="2.91992" width="338.859" height="208.16" rx="8.53598" fill="white"/>
</clipPath>
</defs>
</svg>
