<svg width="30" height="30" viewBox="0 0 30 30" fill="none" xmlns="http://www.w3.org/2000/svg">
<circle cx="15" cy="15" r="15" fill="#FF5C00"/>
<path d="M20.3125 6.875C19.45 6.875 18.75 7.575 18.75 8.4375V21.5625C18.75 22.425 19.45 23.125 20.3125 23.125H20.9375C21.8 23.125 22.5 22.425 22.5 21.5625V8.4375C22.5 7.57417 21.8 6.875 20.9375 6.875H20.3125ZM13.125 12.1875C13.125 11.3242 13.825 10.625 14.6875 10.625H15.3125C16.1758 10.625 16.875 11.325 16.875 12.1875V21.5625C16.875 22.425 16.175 23.125 15.3125 23.125H14.6875C14.2731 23.125 13.8757 22.9604 13.5826 22.6674C13.2896 22.3743 13.125 21.9769 13.125 21.5625V12.1875ZM7.5 15.9375C7.5 15.0742 8.2 14.375 9.0625 14.375H9.6875C10.5508 14.375 11.25 15.075 11.25 15.9375V21.5625C11.25 22.425 10.55 23.125 9.6875 23.125H9.0625C8.6481 23.125 8.25067 22.9604 7.95765 22.6674C7.66462 22.3743 7.5 21.9769 7.5 21.5625V15.9375Z" fill="white"/>
</svg>
