<svg width="32" height="32" viewBox="0 0 32 32" fill="none" xmlns="http://www.w3.org/2000/svg">
<path d="M29.3327 16.0013H23.9993M2.66602 12.0013H9.33268M2.66602 20.0013H9.33268M7.99935 6.66797C22.222 9.46797 22.222 23.468 7.99935 25.3346C10.4073 19.112 10.4073 12.8906 7.99935 6.66797Z" stroke="#A3A3A3" stroke-width="2.33333" stroke-linecap="round" stroke-linejoin="round"/>
<path d="M18.666 16.0026C18.666 16.7098 18.947 17.3881 19.4471 17.8882C19.9472 18.3883 20.6254 18.6693 21.3327 18.6693C22.0399 18.6693 22.7182 18.3883 23.2183 17.8882C23.7184 17.3881 23.9993 16.7098 23.9993 16.0026C23.9993 15.2954 23.7184 14.6171 23.2183 14.117C22.7182 13.6169 22.0399 13.3359 21.3327 13.3359C20.6254 13.3359 19.9472 13.6169 19.4471 14.117C18.947 14.6171 18.666 15.2954 18.666 16.0026Z" stroke="#A3A3A3" stroke-width="2.33333" stroke-linecap="round" stroke-linejoin="round"/>
</svg>
