<svg width="32" height="32" viewBox="0 0 32 32" fill="none" xmlns="http://www.w3.org/2000/svg">
<path d="M26.3993 7.56104C28.0679 9.58203 29.09 12.0582 29.3327 14.6677H26.586C26.3194 12.761 25.546 10.961 24.346 9.46771L26.3993 7.56104ZM17.3327 2.73438C19.946 2.98771 22.4127 4.00104 24.4394 5.68104L22.5327 7.58771C21.0264 6.40635 19.2305 5.65117 17.3327 5.40104V2.73438ZM14.666 2.74771C12.0527 3.01437 9.58602 4.04104 7.55935 5.69437L9.46602 7.58771C10.9732 6.41028 12.7692 5.65965 14.666 5.41437V2.74771ZM5.67935 7.56104L7.50602 9.41437V9.46771C6.32859 10.9749 5.57795 12.7709 5.33268 14.6677H2.66602C2.94602 12.0544 3.99935 9.57437 5.67935 7.56104ZM2.66602 18.6677V25.3344L4.79935 23.201C7.17268 26.8944 11.2927 29.3344 15.9993 29.3344C22.426 29.3344 27.826 24.7344 29.066 18.6677H26.3327C25.146 23.2677 20.9593 26.6677 15.9993 26.6677C12.066 26.6677 8.51935 24.521 6.66602 21.3344L9.33268 18.6677H2.66602ZM15.9993 22.6677L18.0793 18.1077L22.666 16.001L18.0793 13.921L15.9993 9.33437L13.906 13.921L9.33268 16.001L13.906 18.1077L15.9993 22.6677Z" fill="#A3A3A3"/>
</svg>
