<svg width="33" height="32" viewBox="0 0 33 32" fill="none" xmlns="http://www.w3.org/2000/svg">
<path d="M16.4994 22.9028V25.2114M16.4994 11.4514V13.5999M16.4994 30.8342C24.4994 30.8342 30.2137 27.9999 30.2137 21.6914C30.2137 14.8342 26.7852 10.2628 19.928 6.83422L22.6252 3.35993C22.7622 3.13198 22.8365 2.87185 22.8406 2.60592C22.8447 2.33999 22.7784 2.0777 22.6484 1.84564C22.5185 1.61359 22.3295 1.42001 22.1006 1.28454C21.8717 1.14906 21.6111 1.0765 21.3452 1.07422H11.6537C11.3878 1.0765 11.1271 1.14906 10.8983 1.28454C10.6694 1.42001 10.4804 1.61359 10.3505 1.84564C10.2205 2.0777 10.1542 2.33999 10.1583 2.60592C10.1624 2.87185 10.2367 3.13198 10.3737 3.35993L13.0709 6.85708C6.21373 10.3085 2.78516 14.8799 2.78516 21.7371C2.78516 27.9999 8.49944 30.8342 16.4994 30.8342Z" stroke="#A3A3A3" stroke-width="2" stroke-linecap="round" stroke-linejoin="round"/>
<path d="M14.2136 21.8517C14.4925 22.1827 14.8435 22.4455 15.2397 22.6198C15.6359 22.7941 16.0668 22.8754 16.4993 22.8574C17.1603 22.9024 17.8131 22.6894 18.3204 22.2632C18.8276 21.8369 19.1498 21.2306 19.2193 20.5717C19.1498 19.9127 18.8276 19.3064 18.3204 18.8801C17.8131 18.4539 17.1603 18.2409 16.4993 18.2859C15.8383 18.331 15.1855 18.118 14.6782 17.6917C14.171 17.2655 13.8488 16.6592 13.7793 16.0002C13.8432 15.339 14.1638 14.7292 14.6724 14.3018C15.181 13.8744 15.8369 13.6636 16.4993 13.7145C16.9242 13.6885 17.3495 13.757 17.7448 13.9151C18.14 14.0732 18.4953 14.317 18.785 14.6288" stroke="#A3A3A3" stroke-width="2" stroke-linecap="round" stroke-linejoin="round"/>
</svg>
