<svg width="33" height="32" viewBox="0 0 33 32" fill="none" xmlns="http://www.w3.org/2000/svg">
<path d="M30.207 19.293L27.207 16.293C27.0195 16.1055 26.7652 16.0002 26.5 16.0002C26.2348 16.0002 25.9805 16.1055 25.793 16.293L16.5 25.586V30H20.914L30.207 20.707C30.3945 20.5195 30.4998 20.2652 30.4998 20C30.4998 19.7348 30.3945 19.4805 30.207 19.293ZM20.086 28H18.5V26.414L23.5 21.414L25.086 23L20.086 28ZM26.5 21.586L24.914 20L26.5 18.414L28.086 20L26.5 21.586ZM18.5 18V14H20.5V18H18.5ZM14.5 18V12H16.5V18H14.5ZM10.5 18V8H12.5V18H10.5Z" fill="#A3A3A3"/>
<path d="M12.5 30H6.5C5.96973 29.9995 5.46133 29.7886 5.08637 29.4136C4.71141 29.0387 4.50053 28.5303 4.5 28V4C4.50053 3.46973 4.71141 2.96133 5.08637 2.58637C5.46133 2.21141 5.96973 2.00053 6.5 2H22.5C23.0303 2.00053 23.5387 2.21141 23.9136 2.58637C24.2886 2.96133 24.4995 3.46973 24.5 4V14H22.5V4H6.5V28H12.5V30Z" fill="#A3A3A3"/>
</svg>
