<svg width="32" height="32" viewBox="0 0 32 32" fill="none" xmlns="http://www.w3.org/2000/svg">
<path d="M19.234 4.43372C19.5956 4.0632 20.0271 3.76813 20.5036 3.56562C20.98 3.36311 21.4919 3.25718 22.0096 3.25398C22.5273 3.25078 23.0405 3.35037 23.5194 3.54697C23.9984 3.74358 24.4335 4.03328 24.7996 4.3993C25.1658 4.76533 25.4556 5.20038 25.6523 5.67924C25.8491 6.15811 25.9488 6.67126 25.9458 7.18896C25.9427 7.70666 25.8369 8.2186 25.6346 8.69512C25.4322 9.17163 25.1372 9.60324 24.7668 9.96492L22.7316 11.9985L22.8692 12.1361C23.1665 12.4333 23.4023 12.7861 23.5632 13.1744C23.7241 13.5628 23.8069 13.979 23.8069 14.3993C23.8069 14.8197 23.7241 15.2359 23.5632 15.6242C23.4023 16.0125 23.1665 16.3654 22.8692 16.6625L20.5652 18.9649C20.4143 19.1106 20.2123 19.1913 20.0025 19.1895C19.7928 19.1876 19.5921 19.1035 19.4438 18.9552C19.2954 18.8068 19.2113 18.6062 19.2095 18.3964C19.2077 18.1867 19.2883 17.9846 19.434 17.8337L21.738 15.5297C22.038 15.2297 22.2065 14.8228 22.2065 14.3985C22.2065 13.9743 22.038 13.5674 21.738 13.2673L21.6004 13.1297L10.9668 23.7649C10.8639 23.8673 10.735 23.9398 10.594 23.9745L4.19403 25.5745C4.05505 25.609 3.90936 25.6056 3.77215 25.5646C3.63494 25.5236 3.51125 25.4466 3.414 25.3415C3.31674 25.2363 3.24947 25.1071 3.21922 24.9671C3.18897 24.8271 3.19685 24.6816 3.24203 24.5457L5.24203 18.5457C5.28103 18.4283 5.34676 18.3215 5.43403 18.2337L19.2356 4.43372H19.234ZM23.634 5.56492C23.2005 5.13208 22.613 4.88898 22.0004 4.88898C21.3879 4.88898 20.8003 5.13208 20.3668 5.56492L6.69963 19.2305L5.21963 23.6689L9.99083 22.4769L23.634 8.83371C24.0674 8.40017 24.3108 7.81228 24.3108 7.19932C24.3108 6.58635 24.0674 5.99846 23.634 5.56492ZM5.14763 26.9857L5.22923 27.0465C6.41803 27.9105 8.17963 28.7985 10.4004 28.7985C11.5892 28.7985 12.6788 28.3825 13.6468 27.8321C14.6116 27.2817 15.5076 26.5681 16.3044 25.9201L16.4916 25.7681C17.234 25.1633 17.8708 24.6465 18.4564 24.3009C19.1012 23.9201 19.4868 23.8721 19.7476 23.9585C20.1716 24.0993 20.4132 24.4273 20.834 25.8289C20.9732 26.2961 21.2228 26.8049 21.5876 27.2161C21.954 27.6273 22.498 28.0001 23.2004 28.0001C23.9588 28.0001 24.7092 27.6337 25.2884 27.2929C25.6708 27.0673 26.0804 26.7841 26.4132 26.5569C26.578 26.4449 26.722 26.3441 26.8356 26.2689C27.2644 25.9921 27.626 25.8129 27.874 25.7041C27.9972 25.6497 28.0916 25.6129 28.1524 25.5921L28.2164 25.5697L28.226 25.5665C28.4297 25.5069 28.6014 25.3688 28.7032 25.1826C28.8051 24.9964 28.8288 24.7774 28.7692 24.5737C28.7096 24.37 28.5715 24.1984 28.3853 24.0965C28.1991 23.9946 27.9801 23.9709 27.7764 24.0305H27.7748L27.77 24.0337L27.7588 24.0369L27.7252 24.0481L27.6132 24.0849C27.4834 24.1315 27.3553 24.1827 27.2292 24.2385C26.7901 24.4336 26.3674 24.6637 25.9652 24.9265C25.778 25.0497 25.5972 25.1729 25.418 25.2977C25.1118 25.5149 24.7974 25.7204 24.4756 25.9137C23.93 26.2369 23.4996 26.3985 23.2004 26.3985C23.1044 26.3985 22.9604 26.3505 22.7844 26.1521C22.592 25.9228 22.4498 25.6557 22.3668 25.3681C21.9828 24.0881 21.5668 22.8785 20.2548 22.4401C19.314 22.1265 18.3988 22.4769 17.6436 22.9217C16.9476 23.3329 16.2164 23.9297 15.5044 24.5089L15.2964 24.6785C14.4932 25.3297 13.69 25.9649 12.8548 26.4417C12.0228 26.9153 11.2116 27.1985 10.4004 27.1985C9.20683 27.1985 8.16683 26.8785 7.30603 26.4465L5.14763 26.9857Z" fill="#A3A3A3"/>
</svg>
