<svg width="32" height="32" viewBox="0 0 32 32" fill="none" xmlns="http://www.w3.org/2000/svg">
<path d="M8.80078 8.00078C8.58861 8.00078 8.38513 8.08507 8.2351 8.2351C8.08507 8.38513 8.00078 8.58861 8.00078 8.80078C8.00078 9.01296 8.08507 9.21644 8.2351 9.36647C8.38513 9.5165 8.58861 9.60078 8.80078 9.60078H23.2008C23.413 9.60078 23.6164 9.5165 23.7665 9.36647C23.9165 9.21644 24.0008 9.01296 24.0008 8.80078C24.0008 8.58861 23.9165 8.38513 23.7665 8.2351C23.6164 8.08507 23.413 8.00078 23.2008 8.00078H8.80078ZM10.4008 17.6008C11.0373 17.6008 11.6478 17.3479 12.0978 16.8978C12.5479 16.4478 12.8008 15.8373 12.8008 15.2008C12.8008 14.5643 12.5479 13.9538 12.0978 13.5037C11.6478 13.0536 11.0373 12.8008 10.4008 12.8008C9.76426 12.8008 9.15381 13.0536 8.70373 13.5037C8.25364 13.9538 8.00078 14.5643 8.00078 15.2008C8.00078 15.8373 8.25364 16.4478 8.70373 16.8978C9.15381 17.3479 9.76426 17.6008 10.4008 17.6008ZM10.4008 16.0008C10.1886 16.0008 9.98513 15.9165 9.8351 15.7665C9.68507 15.6164 9.60078 15.413 9.60078 15.2008C9.60078 14.9886 9.68507 14.7851 9.8351 14.6351C9.98513 14.4851 10.1886 14.4008 10.4008 14.4008C10.613 14.4008 10.8164 14.4851 10.9665 14.6351C11.1165 14.7851 11.2008 14.9886 11.2008 15.2008C11.2008 15.413 11.1165 15.6164 10.9665 15.7665C10.8164 15.9165 10.613 16.0008 10.4008 16.0008ZM12.8008 21.6008C12.8008 22.2373 12.5479 22.8478 12.0978 23.2978C11.6478 23.7479 11.0373 24.0008 10.4008 24.0008C9.76426 24.0008 9.15381 23.7479 8.70373 23.2978C8.25364 22.8478 8.00078 22.2373 8.00078 21.6008C8.00078 20.9643 8.25364 20.3538 8.70373 19.9037C9.15381 19.4536 9.76426 19.2008 10.4008 19.2008C11.0373 19.2008 11.6478 19.4536 12.0978 19.9037C12.5479 20.3538 12.8008 20.9643 12.8008 21.6008ZM11.2008 21.6008C11.2008 21.3886 11.1165 21.1851 10.9665 21.0351C10.8164 20.8851 10.613 20.8008 10.4008 20.8008C10.1886 20.8008 9.98513 20.8851 9.8351 21.0351C9.68507 21.1851 9.60078 21.3886 9.60078 21.6008C9.60078 21.813 9.68507 22.0164 9.8351 22.1665C9.98513 22.3165 10.1886 22.4008 10.4008 22.4008C10.613 22.4008 10.8164 22.3165 10.9665 22.1665C11.1165 22.0164 11.2008 21.813 11.2008 21.6008ZM14.4008 15.2008C14.4008 14.9886 14.4851 14.7851 14.6351 14.6351C14.7851 14.4851 14.9886 14.4008 15.2008 14.4008H23.2008C23.413 14.4008 23.6164 14.4851 23.7665 14.6351C23.9165 14.7851 24.0008 14.9886 24.0008 15.2008C24.0008 15.413 23.9165 15.6164 23.7665 15.7665C23.6164 15.9165 23.413 16.0008 23.2008 16.0008H15.2008C14.9886 16.0008 14.7851 15.9165 14.6351 15.7665C14.4851 15.6164 14.4008 15.413 14.4008 15.2008ZM15.2008 20.8008C14.9886 20.8008 14.7851 20.8851 14.6351 21.0351C14.4851 21.1851 14.4008 21.3886 14.4008 21.6008C14.4008 21.813 14.4851 22.0164 14.6351 22.1665C14.7851 22.3165 14.9886 22.4008 15.2008 22.4008H23.2008C23.413 22.4008 23.6164 22.3165 23.7665 22.1665C23.9165 22.0164 24.0008 21.813 24.0008 21.6008C24.0008 21.3886 23.9165 21.1851 23.7665 21.0351C23.6164 20.8851 23.413 20.8008 23.2008 20.8008H15.2008ZM9.60078 4.80078C8.32774 4.80078 7.10684 5.30649 6.20667 6.20667C5.30649 7.10684 4.80078 8.32774 4.80078 9.60078V22.4008C4.80078 23.6738 5.30649 24.8947 6.20667 25.7949C7.10684 26.6951 8.32774 27.2008 9.60078 27.2008H22.4008C23.6738 27.2008 24.8947 26.6951 25.7949 25.7949C26.6951 24.8947 27.2008 23.6738 27.2008 22.4008V9.60078C27.2008 8.32774 26.6951 7.10684 25.7949 6.20667C24.8947 5.30649 23.6738 4.80078 22.4008 4.80078H9.60078ZM6.40078 9.60078C6.40078 8.75209 6.73792 7.93816 7.33804 7.33804C7.93816 6.73792 8.75209 6.40078 9.60078 6.40078H22.4008C23.2495 6.40078 24.0634 6.73792 24.6635 7.33804C25.2636 7.93816 25.6008 8.75209 25.6008 9.60078V22.4008C25.6008 23.2495 25.2636 24.0634 24.6635 24.6635C24.0634 25.2636 23.2495 25.6008 22.4008 25.6008H9.60078C8.75209 25.6008 7.93816 25.2636 7.33804 24.6635C6.73792 24.0634 6.40078 23.2495 6.40078 22.4008V9.60078Z" fill="#A3A3A3"/>
</svg>
