<svg width="32" height="32" viewBox="0 0 32 32" fill="none" xmlns="http://www.w3.org/2000/svg">
<path d="M21.7151 3.42969H25.1437C25.7499 3.42969 26.3313 3.6705 26.7599 4.09916C27.1886 4.52781 27.4294 5.10919 27.4294 5.7154V28.5725C27.4294 29.1788 27.1886 29.7601 26.7599 30.1888C26.3313 30.6174 25.7499 30.8583 25.1437 30.8583H6.85798C6.25177 30.8583 5.67039 30.6174 5.24174 30.1888C4.81308 29.7601 4.57227 29.1788 4.57227 28.5725V5.7154C4.57227 5.10919 4.81308 4.52781 5.24174 4.09916C5.67039 3.6705 6.25177 3.42969 6.85798 3.42969H10.2866" stroke="#A3A3A3" stroke-width="2" stroke-linecap="round" stroke-linejoin="round"/>
<path d="M19.43 1.14062H12.5728C11.3105 1.14062 10.2871 2.16397 10.2871 3.42634V4.5692C10.2871 5.83156 11.3105 6.85491 12.5728 6.85491H19.43C20.6923 6.85491 21.7157 5.83156 21.7157 4.5692V3.42634C21.7157 2.16397 20.6923 1.14062 19.43 1.14062Z" stroke="#A3A3A3" stroke-width="2" stroke-linecap="round" stroke-linejoin="round"/>
<path d="M10.2871 12.5703H21.7157M10.2871 18.2846H21.7157M10.2871 23.9989H21.7157" stroke="#A3A3A3" stroke-width="2" stroke-linecap="round" stroke-linejoin="round"/>
</svg>
