<svg width="33" height="32" viewBox="0 0 33 32" fill="none" xmlns="http://www.w3.org/2000/svg">
<path d="M16.25 19C16.25 19.1989 16.171 19.3897 16.0303 19.5303C15.8897 19.671 15.6989 19.75 15.5 19.75H14.25V26C14.25 26.1989 14.171 26.3897 14.0303 26.5303C13.8897 26.671 13.6989 26.75 13.5 26.75C13.3011 26.75 13.1103 26.671 12.9697 26.5303C12.829 26.3897 12.75 26.1989 12.75 26V19.75H11.5C11.3011 19.75 11.1103 19.671 10.9697 19.5303C10.829 19.3897 10.75 19.1989 10.75 19C10.75 18.8011 10.829 18.6103 10.9697 18.4697C11.1103 18.329 11.3011 18.25 11.5 18.25H15.5C15.6989 18.25 15.8897 18.329 16.0303 18.4697C16.171 18.6103 16.25 18.8011 16.25 19ZM8.5 18.25C8.30109 18.25 8.11032 18.329 7.96967 18.4697C7.82902 18.6103 7.75 18.8011 7.75 19V21.75H5.25V19C5.25 18.8011 5.17098 18.6103 5.03033 18.4697C4.88968 18.329 4.69891 18.25 4.5 18.25C4.30109 18.25 4.11032 18.329 3.96967 18.4697C3.82902 18.6103 3.75 18.8011 3.75 19V26C3.75 26.1989 3.82902 26.3897 3.96967 26.5303C4.11032 26.671 4.30109 26.75 4.5 26.75C4.69891 26.75 4.88968 26.671 5.03033 26.5303C5.17098 26.3897 5.25 26.1989 5.25 26V23.25H7.75V26C7.75 26.1989 7.82902 26.3897 7.96967 26.5303C8.11032 26.671 8.30109 26.75 8.5 26.75C8.69891 26.75 8.88968 26.671 9.03033 26.5303C9.17098 26.3897 9.25 26.1989 9.25 26V19C9.25 18.8011 9.17098 18.6103 9.03033 18.4697C8.88968 18.329 8.69891 18.25 8.5 18.25ZM30.5 25.25H28.75V19C28.75 18.8011 28.671 18.6103 28.5303 18.4697C28.3897 18.329 28.1989 18.25 28 18.25C27.8011 18.25 27.6103 18.329 27.4697 18.4697C27.329 18.6103 27.25 18.8011 27.25 19V26C27.25 26.1989 27.329 26.3897 27.4697 26.5303C27.6103 26.671 27.8011 26.75 28 26.75H30.5C30.6989 26.75 30.8897 26.671 31.0303 26.5303C31.171 26.3897 31.25 26.1989 31.25 26C31.25 25.8011 31.171 25.6103 31.0303 25.4697C30.8897 25.329 30.6989 25.25 30.5 25.25ZM24.7 18.2775C24.5419 18.2336 24.3738 18.2426 24.2214 18.3034C24.069 18.3641 23.9408 18.4731 23.8563 18.6138L21.5 22.5425L19.1437 18.6138C19.0595 18.4728 18.9313 18.3634 18.7788 18.3023C18.6263 18.2413 18.458 18.2319 18.2997 18.2758C18.1414 18.3197 18.0019 18.4143 17.9026 18.5451C17.8033 18.6759 17.7497 18.8358 17.75 19V26C17.75 26.1989 17.829 26.3897 17.9697 26.5303C18.1103 26.671 18.3011 26.75 18.5 26.75C18.6989 26.75 18.8897 26.671 19.0303 26.5303C19.171 26.3897 19.25 26.1989 19.25 26V21.7075L20.8563 24.3862C20.9228 24.4976 21.0171 24.5898 21.1299 24.6538C21.2428 24.7178 21.3703 24.7514 21.5 24.7514C21.6297 24.7514 21.7572 24.7178 21.8701 24.6538C21.9829 24.5898 22.0772 24.4976 22.1437 24.3862L23.75 21.7075V26C23.75 26.1989 23.829 26.3897 23.9697 26.5303C24.1103 26.671 24.3011 26.75 24.5 26.75C24.6989 26.75 24.8897 26.671 25.0303 26.5303C25.171 26.3897 25.25 26.1989 25.25 26V19C25.2499 18.836 25.1961 18.6765 25.0968 18.5461C24.9974 18.4156 24.8581 18.3212 24.7 18.2775ZM27.25 14C27.25 14.1989 27.171 14.3897 27.0303 14.5303C26.8897 14.671 26.6989 14.75 26.5 14.75C26.3011 14.75 26.1103 14.671 25.9697 14.5303C25.829 14.3897 25.75 14.1989 25.75 14V11.75H19.5C19.3011 11.75 19.1103 11.671 18.9697 11.5303C18.829 11.3897 18.75 11.1989 18.75 11V4.75H7.5C7.4337 4.75 7.37011 4.77634 7.32322 4.82322C7.27634 4.87011 7.25 4.9337 7.25 5V14C7.25 14.1989 7.17098 14.3897 7.03033 14.5303C6.88968 14.671 6.69891 14.75 6.5 14.75C6.30109 14.75 6.11032 14.671 5.96967 14.5303C5.82902 14.3897 5.75 14.1989 5.75 14V5C5.75 4.53587 5.93437 4.09075 6.26256 3.76256C6.59075 3.43437 7.03587 3.25 7.5 3.25H19.5C19.5987 3.24992 19.6964 3.26932 19.7875 3.30707C19.8787 3.34482 19.9615 3.40019 20.0312 3.47L27.0312 10.47C27.1715 10.6107 27.2502 10.8013 27.25 11V14ZM24.69 10.25L20.25 5.81V10.25H24.69Z" fill="#A3A3A3"/>
</svg>
