<svg width="33" height="32" viewBox="0 0 33 32" fill="none" xmlns="http://www.w3.org/2000/svg">
<path d="M17.5 22V14H13.5V16H15.5V22H12.5V24H20.5V22H17.5ZM16.5 8C16.2033 8 15.9133 8.08797 15.6666 8.2528C15.42 8.41762 15.2277 8.65189 15.1142 8.92597C15.0006 9.20006 14.9709 9.50166 15.0288 9.79264C15.0867 10.0836 15.2296 10.3509 15.4393 10.5607C15.6491 10.7704 15.9164 10.9133 16.2074 10.9712C16.4983 11.0291 16.7999 10.9994 17.074 10.8858C17.3481 10.7723 17.5824 10.58 17.7472 10.3334C17.912 10.0867 18 9.79667 18 9.5C18 9.10218 17.842 8.72064 17.5607 8.43934C17.2794 8.15804 16.8978 8 16.5 8Z" fill="#A3A3A3"/>
<path d="M16.5 30C13.7311 30 11.0243 29.1789 8.72202 27.6406C6.41973 26.1022 4.62532 23.9157 3.56569 21.3576C2.50607 18.7994 2.22882 15.9845 2.76901 13.2687C3.30921 10.553 4.64258 8.05845 6.60051 6.10051C8.55845 4.14258 11.053 2.80921 13.7687 2.26901C16.4845 1.72882 19.2994 2.00607 21.8576 3.06569C24.4157 4.12532 26.6022 5.91973 28.1406 8.22202C29.6789 10.5243 30.5 13.2311 30.5 16C30.5 19.713 29.025 23.274 26.3995 25.8995C23.774 28.525 20.213 30 16.5 30ZM16.5 4.00001C14.1266 4.00001 11.8066 4.70379 9.83316 6.02237C7.85977 7.34095 6.3217 9.21509 5.41345 11.4078C4.5052 13.6005 4.26756 16.0133 4.73058 18.3411C5.19361 20.6689 6.33649 22.8071 8.01472 24.4853C9.69296 26.1635 11.8312 27.3064 14.1589 27.7694C16.4867 28.2325 18.8995 27.9948 21.0922 27.0866C23.2849 26.1783 25.1591 24.6402 26.4776 22.6668C27.7962 20.6935 28.5 18.3734 28.5 16C28.5 12.8174 27.2357 9.76516 24.9853 7.51472C22.7348 5.26429 19.6826 4.00001 16.5 4.00001Z" fill="#A3A3A3"/>
</svg>
