<svg width="32" height="32" viewBox="0 0 32 32" fill="none" xmlns="http://www.w3.org/2000/svg">
<path d="M22.6673 6.66406H26.6673L24.6673 9.33073L22.6673 6.66406ZM4.00065 2.66406H28.0006C28.7079 2.66406 29.3862 2.94501 29.8863 3.44511C30.3864 3.94521 30.6673 4.62349 30.6673 5.33073V10.6641C30.6673 12.1441 29.4806 13.3307 28.0006 13.3307H21.334V26.6641C21.334 28.1441 20.1473 29.3307 18.6673 29.3307H4.00065C3.29341 29.3307 2.61513 29.0498 2.11503 28.5497C1.61494 28.0496 1.33398 27.3713 1.33398 26.6641V5.33073C1.33398 3.86406 2.53398 2.66406 4.00065 2.66406ZM4.00065 5.33073V10.6641H18.6673V5.33073H4.00065ZM28.0006 10.6641V5.33073H21.334V10.6641H28.0006ZM4.00065 26.6641H18.6673V13.3307H4.00065V26.6641ZM6.66732 15.9974H16.0006V18.6641H6.66732V15.9974ZM6.66732 21.3307H16.0006V23.9974H6.66732V21.3307Z" fill="#A3A3A3"/>
</svg>
