<svg width="33" height="32" viewBox="0 0 33 32" fill="none" xmlns="http://www.w3.org/2000/svg">
<g clip-path="url(#clip0_6182_4448)">
<path d="M11.3459 0.00136014C11.0607 0.0555908 10.8039 0.208846 10.6208 0.434053C10.4378 0.659261 10.3401 0.94193 10.3453 1.23213V2.4629H5.92187C4.93725 2.4629 4.19141 3.20874 4.19141 4.19336V30.1552C4.19141 31.2629 4.93725 32.0014 5.92187 32.0014H26.9606C27.9453 32.0014 28.6911 31.2555 28.6911 30.2709V4.19336C28.8142 3.20874 28.0609 2.4629 27.0763 2.4629H22.6529V1.23213C22.6529 0.905709 22.5233 0.592658 22.2925 0.361844C22.0616 0.13103 21.7486 0.00136014 21.4222 0.00136014H11.576C11.5375 -0.000453379 11.4989 -0.000453379 11.4603 0.00136014C11.4218 -0.000453379 11.3844 -0.000453379 11.3459 0.00136014ZM12.8068 2.4629H20.1914V4.92444H12.8068V2.4629ZM6.65294 4.92444H10.3453V6.15521C10.3453 6.48163 10.4749 6.79468 10.7057 7.02549C10.9366 7.25631 11.2496 7.38598 11.576 7.38598H21.4222C21.7486 7.38598 22.0616 7.25631 22.2925 7.02549C22.5233 6.79468 22.6529 6.48163 22.6529 6.15521V4.92444H26.3453V29.5398H6.65294V4.92444ZM9.11448 11.0783V16.0014H14.0376V11.0783H9.11448ZM10.3453 12.3091H12.8068V14.7706H10.3453V12.3091ZM16.4991 12.3091V14.7706H23.8837V12.3091H16.4991ZM9.11448 18.4629V23.386H14.0376V18.4629H9.11448ZM16.4991 19.6937V22.1552H23.8837V19.6937H16.4991Z" fill="#A3A3A3"/>
</g>
<defs>
<clipPath id="clip0_6182_4448">
<rect width="32" height="32" fill="white" transform="translate(0.5)"/>
</clipPath>
</defs>
</svg>
