<svg width="32" height="32" viewBox="0 0 32 32" fill="none" xmlns="http://www.w3.org/2000/svg">
<path d="M6.66602 4H23.9993C25.0602 4 26.0776 4.42143 26.8278 5.17157C27.5779 5.92172 27.9993 6.93913 27.9993 8V25.3333C27.9993 26.3942 27.5779 27.4116 26.8278 28.1618C26.0776 28.9119 25.0602 29.3333 23.9993 29.3333H6.66602C5.60515 29.3333 4.58773 28.9119 3.83759 28.1618C3.08744 27.4116 2.66602 26.3942 2.66602 25.3333V8C2.66602 6.93913 3.08744 5.92172 3.83759 5.17157C4.58773 4.42143 5.60515 4 6.66602 4ZM6.66602 5.33333C5.95877 5.33333 5.28049 5.61428 4.7804 6.11438C4.2803 6.61448 3.99935 7.29276 3.99935 8V12H10.666V5.33333H6.66602ZM3.99935 25.3333C3.99935 26.0406 4.2803 26.7189 4.7804 27.2189C5.28049 27.719 5.95877 28 6.66602 28H10.666V21.3333H3.99935V25.3333ZM10.666 13.3333H3.99935V20H10.666V13.3333ZM23.9993 28C24.7066 28 25.3849 27.719 25.885 27.2189C26.3851 26.7189 26.666 26.0406 26.666 25.3333V21.3333H19.9993V28H23.9993ZM26.666 13.3333H19.9993V20H26.666V13.3333ZM26.666 8C26.666 7.29276 26.3851 6.61448 25.885 6.11438C25.3849 5.61428 24.7066 5.33333 23.9993 5.33333H19.9993V12H26.666V8ZM11.9993 5.33333V12H18.666V5.33333H11.9993ZM11.9993 28H18.666V21.3333H11.9993V28ZM18.666 13.3333H11.9993V20H18.666V13.3333Z" fill="#A3A3A3"/>
</svg>
