<svg width="32" height="32" viewBox="0 0 32 32" fill="none" xmlns="http://www.w3.org/2000/svg">
<path d="M15.986 2.66797C8.62602 2.66797 2.66602 8.6413 2.66602 16.0013C2.66602 23.3613 8.62602 29.3346 15.986 29.3346C23.3594 29.3346 29.3327 23.3613 29.3327 16.0013C29.3327 8.6413 23.3594 2.66797 15.986 2.66797ZM15.9993 26.668C10.106 26.668 5.33268 21.8946 5.33268 16.0013C5.33268 10.108 10.106 5.33464 15.9993 5.33464C21.8927 5.33464 26.666 10.108 26.666 16.0013C26.666 21.8946 21.8927 26.668 15.9993 26.668ZM16.666 9.33464H14.666V17.3346L21.666 21.5346L22.666 19.8946L16.666 16.3346V9.33464Z" fill="#A3A3A3"/>
</svg>
