<svg width="33" height="32" viewBox="0 0 33 32" fill="none" xmlns="http://www.w3.org/2000/svg">
<path d="M22.6208 9.87836C22.0582 9.31595 21.2952 9 20.4998 9C19.7043 9 18.9413 9.31595 18.3788 9.87836L17.9138 10.3424L19.3278 11.7564L19.7928 11.2924C19.9814 11.1102 20.234 11.0094 20.4962 11.0117C20.7584 11.014 21.0092 11.1191 21.1946 11.3045C21.38 11.4899 21.4852 11.7408 21.4874 12.003C21.4897 12.2652 21.3889 12.5178 21.2068 12.7064L17.9138 15.9994L19.3278 17.4134L22.6208 14.1204C23.1832 13.5578 23.4991 12.7949 23.4991 11.9994C23.4991 11.2039 23.1832 10.4409 22.6208 9.87836ZM13.2068 20.7064C13.0182 20.8885 12.7656 20.9893 12.5034 20.987C12.2412 20.9848 11.9903 20.8796 11.8049 20.6942C11.6195 20.5088 11.5144 20.258 11.5121 19.9958C11.5098 19.7336 11.6106 19.481 11.7928 19.2924L15.0858 15.9994L13.6718 14.5854L10.3788 17.8784C10.0922 18.1551 9.86368 18.4861 9.70645 18.8521C9.54922 19.2182 9.46647 19.6118 9.463 20.0102C9.45954 20.4085 9.53545 20.8035 9.68629 21.1722C9.83713 21.5409 10.0599 21.8759 10.3416 22.1575C10.6232 22.4392 10.9582 22.662 11.3269 22.8128C11.6956 22.9637 12.0906 23.0396 12.489 23.0361C12.8873 23.0326 13.281 22.9499 13.647 22.7927C14.013 22.6354 14.344 22.4069 14.6208 22.1204L15.0858 21.6564L13.6718 20.2424L13.2068 20.7064ZM14.6208 9.87936C14.0527 9.34613 13.2994 9.05484 12.5203 9.06712C11.7413 9.0794 10.9976 9.3943 10.4466 9.94518C9.89555 10.4961 9.58048 11.2397 9.56801 12.0187C9.55554 12.7978 9.84666 13.5511 10.3798 14.1194L10.8438 14.5844L12.2578 13.1704L11.7938 12.7054C11.6116 12.5168 11.5108 12.2642 11.5131 12.002C11.5154 11.7398 11.6205 11.4889 11.8059 11.3035C11.9913 11.1181 12.2422 11.013 12.5044 11.0107C12.7666 11.0084 13.0192 11.1092 13.2078 11.2914L16.4998 14.5854L17.9138 13.1714L14.6208 9.87936Z" fill="#A3A3A3"/>
<path d="M22.6209 17.8791L22.1569 17.4141L20.7429 18.8281L21.2069 19.2931C21.3891 19.4817 21.4899 19.7343 21.4876 19.9965C21.4853 20.2587 21.3802 20.5095 21.1948 20.6949C21.0093 20.8803 20.7585 20.9855 20.4963 20.9877C20.2341 20.99 19.9815 20.8892 19.7929 20.7071L16.4999 17.4141L15.0859 18.8281L18.3789 22.1211C18.9447 22.6675 19.7026 22.9699 20.4891 22.9631C21.2757 22.9562 22.0282 22.6407 22.5844 22.0845C23.1406 21.5283 23.4561 20.7759 23.463 19.9893C23.4698 19.2027 23.1674 18.4449 22.6209 17.8791Z" fill="#A3A3A3"/>
<path d="M16.5 31.0003C16.3229 31.0004 16.149 30.9535 15.996 30.8643L3.996 23.8643C3.84502 23.7762 3.71978 23.6501 3.63275 23.4985C3.54572 23.3469 3.49995 23.1751 3.5 23.0003V9.0003C3.49995 8.82549 3.54572 8.65373 3.63275 8.50213C3.71978 8.35053 3.84502 8.2244 3.996 8.1363L15.996 1.1363C16.149 1.04704 16.3229 1 16.5 1C16.6771 1 16.851 1.04704 17.004 1.1363L29.004 8.1363L27.996 9.8643L16.5 3.1583L5.5 9.5743V22.4263L16.5 28.8433L27.5 22.4263V15.0003H29.5V23.0003C29.5001 23.1751 29.4543 23.3469 29.3673 23.4985C29.2802 23.6501 29.155 23.7762 29.004 23.8643L17.004 30.8643C16.851 30.9535 16.6771 31.0004 16.5 31.0003Z" fill="#A3A3A3"/>
</svg>
