<svg width="29" height="28" viewBox="0 0 29 28" fill="none" xmlns="http://www.w3.org/2000/svg">
<path d="M9.99935 9.33594H7.66602V17.5026C7.66602 18.7859 8.71602 19.8359 9.99935 19.8359H20.4993V17.5026H9.99935V9.33594Z" fill="#4F3895"/>
<path d="M24 3.5H14.6667C13.3833 3.5 12.3333 4.55 12.3333 5.83333V12.8333C12.3333 14.1167 13.3833 15.1667 14.6667 15.1667H24C25.2833 15.1667 26.3333 14.1167 26.3333 12.8333V5.83333C26.3333 4.55 25.2833 3.5 24 3.5ZM24 12.8333H14.6667V8.16667H24V12.8333ZM5.33333 14H3V22.1667C3 23.45 4.05 24.5 5.33333 24.5H15.8333V22.1667H5.33333V14Z" fill="#4F3895"/>
</svg>
