<svg width="28" height="28" viewBox="0 0 28 28" fill="none" xmlns="http://www.w3.org/2000/svg">
<path d="M22.1673 24.5C21.409 24.5 20.7284 24.2811 20.1257 23.8432C19.5229 23.4053 19.1048 22.8464 18.8715 22.1667H12.834C11.5507 22.1667 10.452 21.7097 9.53815 20.7958C8.62426 19.8819 8.16732 18.7833 8.16732 17.5C8.16732 16.2167 8.62426 15.1181 9.53815 14.2042C10.452 13.2903 11.5507 12.8333 12.834 12.8333H15.1673C15.809 12.8333 16.3585 12.6047 16.8158 12.1473C17.2732 11.69 17.5014 11.1409 17.5007 10.5C17.5007 9.85833 17.272 9.30883 16.8147 8.8515C16.3573 8.39417 15.8082 8.16589 15.1673 8.16667H9.12982C8.87704 8.84722 8.45393 9.40644 7.86048 9.84433C7.26704 10.2822 6.59154 10.5008 5.83398 10.5C4.86176 10.5 4.03537 10.1597 3.35482 9.47917C2.67426 8.79861 2.33398 7.97222 2.33398 7C2.33398 6.02778 2.67426 5.20139 3.35482 4.52083C4.03537 3.84028 4.86176 3.5 5.83398 3.5C6.59232 3.5 7.26821 3.71894 7.86165 4.15683C8.4551 4.59472 8.87743 5.15356 9.12865 5.83333H15.1673C16.4507 5.83333 17.5493 6.29028 18.4632 7.20417C19.377 8.11806 19.834 9.21667 19.834 10.5C19.834 11.7833 19.377 12.8819 18.4632 13.7958C17.5493 14.7097 16.4507 15.1667 15.1673 15.1667H12.834C12.1923 15.1667 11.6428 15.3953 11.1855 15.8527C10.7282 16.31 10.4999 16.8591 10.5007 17.5C10.5007 18.1417 10.7293 18.6912 11.1867 19.1485C11.644 19.6058 12.1931 19.8341 12.834 19.8333H18.8715C19.1243 19.1528 19.5474 18.5936 20.1408 18.1557C20.7343 17.7178 21.4098 17.4992 22.1673 17.5C23.1395 17.5 23.9659 17.8403 24.6465 18.5208C25.327 19.2014 25.6673 20.0278 25.6673 21C25.6673 21.9722 25.327 22.7986 24.6465 23.4792C23.9659 24.1597 23.1395 24.5 22.1673 24.5ZM5.83398 8.16667C6.16454 8.16667 6.44182 8.05467 6.66582 7.83067C6.88982 7.60667 7.00143 7.32978 7.00065 7C7.00065 6.66944 6.88865 6.39217 6.66465 6.16817C6.44065 5.94417 6.16376 5.83256 5.83398 5.83333C5.50343 5.83333 5.22615 5.94533 5.00215 6.16933C4.77815 6.39333 4.66654 6.67022 4.66732 7C4.66732 7.33056 4.77932 7.60783 5.00332 7.83183C5.22732 8.05583 5.50421 8.16744 5.83398 8.16667Z" fill="#4F3895"/>
</svg>
