<svg width="29" height="28" viewBox="0 0 29 28" fill="none" xmlns="http://www.w3.org/2000/svg">
<path d="M13.4993 17.5H20.4993V19.8333H13.4993V17.5ZM11.166 8.16667H8.83268V10.5H11.166V8.16667ZM13.4993 15.1667H20.4993V12.8333H13.4993V15.1667ZM13.4993 10.5H20.4993V8.16667H13.4993V10.5ZM11.166 12.8333H8.83268V15.1667H11.166V12.8333ZM25.166 5.83333V22.1667C25.166 23.45 24.116 24.5 22.8327 24.5H6.49935C5.21602 24.5 4.16602 23.45 4.16602 22.1667V5.83333C4.16602 4.55 5.21602 3.5 6.49935 3.5H22.8327C24.116 3.5 25.166 4.55 25.166 5.83333ZM22.8327 5.83333H6.49935V22.1667H22.8327V5.83333ZM11.166 17.5H8.83268V19.8333H11.166V17.5Z" fill="#4F3895"/>
</svg>
