<svg width="29" height="28" viewBox="0 0 29 28" fill="none" xmlns="http://www.w3.org/2000/svg">
<path d="M20.0209 8.64356C19.5287 8.15145 18.8611 7.875 18.1651 7.875C17.469 7.875 16.8015 8.15145 16.3092 8.64356L15.9023 9.04956L17.1396 10.2868L17.5464 9.88081C17.7115 9.72143 17.9325 9.63323 18.1619 9.63522C18.3913 9.63722 18.6108 9.72924 18.773 9.89147C18.9353 10.0537 19.0273 10.2732 19.0293 10.5026C19.0313 10.732 18.9431 10.953 18.7837 11.1181L15.9023 13.9994L17.1396 15.2367L20.0209 12.3553C20.5131 11.8631 20.7895 11.1955 20.7895 10.4994C20.7895 9.80338 20.5131 9.13582 20.0209 8.64356ZM11.7837 18.1181C11.6187 18.2775 11.3976 18.3656 11.1682 18.3637C10.9388 18.3617 10.7193 18.2696 10.5571 18.1074C10.3949 17.9452 10.3028 17.7257 10.3009 17.4963C10.2989 17.2669 10.3871 17.0458 10.5464 16.8808L13.4278 13.9994L12.1906 12.7622L9.30919 15.6436C9.05848 15.8857 8.8585 16.1754 8.72093 16.4956C8.58335 16.8159 8.51094 17.1603 8.50791 17.5089C8.50488 17.8574 8.5713 18.2031 8.70329 18.5257C8.83527 18.8483 9.03019 19.1414 9.27666 19.3878C9.52313 19.6343 9.81621 19.8292 10.1388 19.9612C10.4614 20.0932 10.8071 20.1596 11.1556 20.1566C11.5042 20.1536 11.8486 20.0812 12.1689 19.9436C12.4891 19.806 12.7788 19.606 13.0209 19.3553L13.4278 18.9493L12.1906 17.7121L11.7837 18.1181ZM13.0209 8.64444C12.5239 8.17786 11.8647 7.92298 11.1831 7.93373C10.5014 7.94448 9.85065 8.22001 9.36852 8.70203C8.88639 9.18405 8.6107 9.83473 8.59979 10.5164C8.58888 11.1981 8.84361 11.8572 9.31007 12.3544L9.71607 12.7613L10.9533 11.5241L10.5473 11.1172C10.3879 10.9522 10.2997 10.7311 10.3017 10.5017C10.3037 10.2723 10.3957 10.0528 10.558 9.8906C10.7202 9.72837 10.9397 9.63634 11.1691 9.63435C11.3985 9.63236 11.6195 9.72055 11.7846 9.87994L14.6651 12.7622L15.9023 11.5249L13.0209 8.64444Z" fill="#4F3895"/>
<path d="M20.0228 15.6413L19.6168 15.2344L18.3796 16.4716L18.7856 16.8785C18.945 17.0435 19.0331 17.2646 19.0312 17.494C19.0292 17.7234 18.9371 17.9429 18.7749 18.1051C18.6127 18.2673 18.3932 18.3593 18.1638 18.3613C17.9344 18.3633 17.7133 18.2751 17.5483 18.1158L14.6669 15.2344L13.4297 16.4716L16.3111 19.353C16.8061 19.8312 17.4692 20.0958 18.1575 20.0898C18.8458 20.0838 19.5041 19.8077 19.9908 19.321C20.4775 18.8343 20.7536 18.1759 20.7596 17.4877C20.7656 16.7994 20.501 16.1363 20.0228 15.6413Z" fill="#4F3895"/>
<path d="M14.666 27.1253C14.5111 27.1254 14.3589 27.0843 14.225 27.0063L3.72502 20.8813C3.59291 20.8042 3.48332 20.6938 3.40717 20.5611C3.33102 20.4285 3.29097 20.2782 3.29102 20.1253V7.87526C3.29097 7.72231 3.33102 7.57201 3.40717 7.43937C3.48332 7.30672 3.59291 7.19635 3.72502 7.11926L14.225 0.994259C14.3589 0.916156 14.511 0.875 14.666 0.875C14.821 0.875 14.9732 0.916156 15.107 0.994259L25.607 7.11926L24.725 8.63126L14.666 2.76351L5.04102 8.37751V19.623L14.666 25.2379L24.291 19.623V13.1253H26.041V20.1253C26.0411 20.2782 26.001 20.4285 25.9249 20.5611C25.8487 20.6938 25.7391 20.8042 25.607 20.8813L15.107 27.0063C14.9732 27.0843 14.821 27.1254 14.666 27.1253Z" fill="#4F3895"/>
</svg>
