<svg width="124" height="42" viewBox="0 0 124 42" fill="none" xmlns="http://www.w3.org/2000/svg">
<g clip-path="url(#clip0_177_7657)">
<mask id="mask0_177_7657" style="mask-type:luminance" maskUnits="userSpaceOnUse" x="0" y="0" width="124" height="43">
<path d="M0.490234 42.155H123.011V0.498021H0.490234V42.155Z" fill="white"/>
</mask>
<g mask="url(#mask0_177_7657)">
<path d="M7.97377 13.4774V12.9829V6.50145C7.97377 6.50145 10.1506 6.12787 10.1279 9.11894L10.1291 12.9829V13.2296V13.4774L10.1279 17.3402C10.1506 20.3313 7.97377 19.9577 7.97377 19.9577V13.4774ZM7.94742 25.9973L10.0201 25.9913C11.6378 25.9913 12.9477 25.747 13.9499 25.2573C14.9521 24.7688 15.6406 24.0671 16.0166 23.1535C16.3914 22.2387 16.5794 20.7839 16.5794 18.7878V13.3589C16.5794 13.0236 16.5758 12.7087 16.5698 12.4034C16.571 12.2597 16.5746 12.1184 16.5746 11.9675V9.24586C16.5746 7.28814 16.4776 5.84409 16.2824 4.91013C16.0872 3.97737 15.7149 3.18111 15.1665 2.52494C14.6157 1.86877 13.7188 1.34432 12.6256 0.997074C11.5324 0.648635 10.0452 0.497764 8.01208 0.497764H0.496094V31.7627H7.94742V25.9973Z" fill="#697586"/>
<path d="M0.490234 35.6165C0.490234 39.6373 3.40826 40.8407 5.5911 41.1867C5.91319 41.237 6.21853 41.2694 6.49752 41.2897C6.54541 41.2933 6.89984 41.2981 6.89984 41.2981H113.416V34.5676L0.490234 34.5688V35.6165Z" fill="#697586"/>
<path d="M96.0851 21.3096L96.0863 20.5684L96.0851 17.0828L96.0863 16.3428L96.0851 14.2211C96.0863 12.9183 96.1438 11.8455 96.9197 11.6682C96.994 11.6515 97.0754 11.6431 97.1628 11.6431C97.1748 11.6431 97.3699 11.6646 97.4454 11.685C98.1842 11.8898 98.2404 12.9435 98.2416 14.2211V16.3428V17.0792V20.5732V21.3096V23.4314C98.2404 24.709 98.1842 25.7627 97.4454 25.9662C97.3699 25.9878 97.1748 26.0093 97.1628 26.0093C97.0754 26.0093 96.994 26.0009 96.9197 25.9842C96.1438 25.8058 96.0863 24.7341 96.0851 23.4314V21.3096ZM89.6971 30.0673C90.0755 30.6719 90.6251 31.1413 91.3447 31.4766C92.0655 31.8119 92.9181 31.9795 93.8975 31.9795C94.125 31.9795 94.3465 31.9627 94.5657 31.94C96.0217 31.7843 98.2404 30.7833 98.2404 30.7833V31.7795H105.403V21.3096V16.3428V0.497835H98.2404V6.53864C98.2404 6.53864 96.0217 5.86811 94.5657 5.71245C94.3465 5.6885 94.125 5.67293 93.8975 5.67293C92.9181 5.67293 92.0655 5.84057 91.3447 6.17464C90.6251 6.50991 90.0755 6.98048 89.6971 7.58516C89.3187 8.18984 89.0912 8.78135 89.0134 9.36088C88.9368 9.94042 88.8984 11.1761 88.8984 13.0692V16.3428V21.3096V24.5832C88.8984 26.4751 88.9368 27.712 89.0134 28.2903C89.0912 28.8699 89.3187 29.4626 89.6971 30.0673Z" fill="#697586"/>
<path d="M43.38 20.1959C43.7631 19.857 44.2062 19.4882 44.7246 19.1027L44.7235 23.4743C44.7235 24.734 44.6672 25.7733 43.9595 25.9996C43.8745 26.026 43.7811 26.0427 43.6769 26.0451C43.6769 26.0451 43.4027 26.0344 43.3034 25.9996C42.6184 25.7566 42.567 24.722 42.5658 23.4743V21.8615C42.5658 21.8615 42.4712 20.9993 43.38 20.1959ZM36.489 30.06C36.859 30.6646 37.4469 31.1412 38.1522 31.4765C38.8599 31.8117 39.6932 31.9794 40.6535 31.9794C40.8763 31.9794 41.093 31.9626 41.3073 31.9399C42.7334 31.7842 44.9078 30.7832 44.9078 30.7832V31.7794H51.9233V26.6295L51.9245 18.9003C51.9245 14.6664 51.8012 11.8693 51.5533 10.5102C51.3043 9.15241 50.5655 8.00652 49.337 7.07256C48.1073 6.13979 46.2812 5.67281 43.8589 5.67281C41.8378 5.67281 40.1949 6.08471 38.9317 6.90851C37.6661 7.73232 36.8231 8.68304 36.4052 9.75709C35.9849 10.8323 35.7754 12.3614 35.7754 14.3443V15.9775H42.5658V14.2221C42.567 12.9278 42.6256 11.8645 43.392 11.6801C43.459 11.6645 43.6338 11.6442 43.6446 11.6442C43.7284 11.6442 43.8063 11.6514 43.8781 11.6681C44.6648 11.837 44.7223 12.9134 44.7235 14.2221V15.6901L40.1614 17.8382C38.2995 18.6609 37.6936 19.1841 37.0997 19.7612C35.9227 20.9036 35.7754 22.0231 35.7754 23.9425V26.0451C35.7754 26.1409 35.8209 27.9142 35.8688 28.2902C35.9442 28.8698 36.1178 29.4553 36.489 30.06Z" fill="#697586"/>
<path d="M25.1027 14.2104C25.1051 12.8897 25.165 11.8097 25.9756 11.6576C26.0295 11.648 26.1708 11.6325 26.1816 11.6325C26.3217 11.6325 26.4438 11.654 26.5492 11.6959C27.2077 11.957 27.2592 12.9807 27.2604 14.2104V16.6974H25.1027V14.2104ZM19.6642 29.5513C20.3084 30.3823 21.2088 31.0349 22.3679 31.5103C23.5258 31.9868 24.8608 32.2251 26.3743 32.2251C27.9345 32.2251 29.2313 31.9844 30.2646 31.5019C31.2992 31.0181 32.1529 30.2949 32.827 29.3286C33.5 28.3635 33.9286 27.4559 34.1118 26.6058C34.2819 25.8179 34.3717 24.7115 34.3848 23.2926H34.392V21.0212H27.2604V23.4052C27.258 24.6876 27.2017 25.7437 26.4558 25.9424C26.3827 25.9616 26.1923 25.9843 26.1804 25.9843C26.0594 25.9843 25.9505 25.9676 25.8547 25.9352C25.1566 25.7005 25.1039 24.66 25.1027 23.4052V19.4023H34.3872V16.0041C34.3872 13.5207 34.1238 11.5918 33.5982 10.2207C33.0725 8.84974 32.1565 7.74934 30.8502 6.91836C29.5438 6.08857 27.8866 5.67308 25.8774 5.67308C24.2346 5.67308 22.781 6.01792 21.5165 6.70642C20.2521 7.39492 19.3421 8.38635 18.7865 9.68073C18.2309 10.9739 17.9531 12.7412 17.9531 14.9804V22.4544C17.9531 24.3595 18.0777 25.8107 18.3255 26.8093C18.5746 27.8067 19.02 28.7204 19.6642 29.5513Z" fill="#697586"/>
<path d="M80.483 20.5689V23.4259C80.4818 24.731 80.4231 25.8015 79.6376 25.9727C79.5754 25.9859 79.4161 26.0038 79.4041 26.0038C79.3155 26.0038 79.2353 25.9955 79.1599 25.9775C78.384 25.8003 78.3277 24.7286 78.3265 23.4259V17.0785V14.2216C78.3289 12.9128 78.3864 11.84 79.1766 11.6735C79.2377 11.6604 79.3934 11.6424 79.4053 11.6424C79.4628 11.6424 79.5179 11.6472 79.5706 11.6532C80.4231 11.7765 80.4818 12.8757 80.483 14.2216V20.5689ZM85.9814 8.49209C85.3563 7.65631 84.4655 6.9774 83.3136 6.45534C82.1617 5.93447 80.7823 5.67344 79.1742 5.67344C77.2596 5.67344 75.6887 6.07816 74.4589 6.88999C73.2304 7.70061 72.3791 8.77587 71.9061 10.1145C71.4332 11.4544 71.1973 13.314 71.1973 15.6956V22.2608C71.1973 24.4365 71.3266 26.0685 71.5876 27.1569C71.8462 28.2442 72.2821 29.1709 72.8904 29.9373C73.4986 30.7036 74.3524 31.2759 75.4516 31.6567C76.5508 32.0363 77.8918 32.2255 79.476 32.2255C80.8949 32.2255 82.1497 32.0039 83.243 31.5597C84.3362 31.1155 85.2318 30.427 85.9287 29.493C86.6256 28.5603 87.0806 27.5557 87.2937 26.4816C87.5069 25.4064 87.6134 23.7168 87.6134 21.4107V15.1352C87.6134 13.3199 87.4985 11.9681 87.2674 11.0796C87.0375 10.1912 86.6076 9.33026 85.9814 8.49209Z" fill="#697586"/>
<path d="M62.6266 16.3425L62.6254 17.0837L62.6266 20.5692L62.6254 21.3092L62.6266 23.431C62.6254 24.7337 62.568 25.8066 61.7921 25.9838C61.7178 26.0006 61.6364 26.009 61.549 26.009C61.537 26.009 61.3419 25.9874 61.2664 25.9671C60.5276 25.7623 60.4702 24.7098 60.469 23.431V21.3092V20.574V17.0789V16.3425V14.2219C60.4702 12.9431 60.5276 11.8894 61.2664 11.6858C61.3419 11.6643 61.537 11.6427 61.549 11.6427C61.6364 11.6427 61.7178 11.6511 61.7921 11.6679C62.568 11.8463 62.6254 12.9179 62.6266 14.2219V16.3425ZM64.8143 31.9791C65.7937 31.9791 66.6451 31.8115 67.3671 31.4774C68.0867 31.1422 68.6363 30.6716 69.0147 30.0669C69.3931 29.4622 69.6206 28.8707 69.6972 28.2912C69.7738 27.7116 69.8134 26.4759 69.8134 24.5841V21.3092V16.3425V13.0688C69.8134 11.1769 69.7738 9.94005 69.6972 9.36171C69.6206 8.78218 69.3931 8.18947 69.0147 7.58479C68.6363 6.98011 68.0867 6.51074 67.3671 6.17547C66.6451 5.8402 65.7937 5.67257 64.8143 5.67257C64.5868 5.67257 64.3641 5.68813 64.1461 5.71208C62.6901 5.86774 60.4702 6.53947 60.4702 6.53947V0.497468H53.3086V16.3425V21.3092V31.7792H60.4702V30.8308C60.4702 30.8308 62.6901 31.784 64.1461 31.9396C64.3641 31.9636 64.5868 31.9791 64.8143 31.9791Z" fill="#697586"/>
<path d="M115.535 6.5002V18.1101V19.4978V25.9793C115.535 25.9793 113.358 26.3517 113.381 23.3618V19.4978V18.3567V18.1101V6.5002H106.934V16.4265L106.932 17.3832V24.7663C106.941 26.6833 107.127 28.0915 107.492 28.9823C107.867 29.8959 108.555 30.5976 109.559 31.0861C110.561 31.5758 111.871 31.8201 113.489 31.8201L115.561 31.8249V41.4315C115.561 41.4315 123.013 42.1547 123.013 35.7272V6.5002H115.535Z" fill="#697586"/>
</g>
</g>
<defs>
<clipPath id="clip0_177_7657">
<rect width="123.501" height="42" fill="white"/>
</clipPath>
</defs>
</svg>
