<svg width="149" height="42" viewBox="0 0 149 42" fill="none" xmlns="http://www.w3.org/2000/svg">
<path d="M129.065 11.4423C130.372 11.4423 131.624 10.8152 132.414 9.76541C132.961 9.03505 133.251 8.16853 133.251 7.25572C133.251 6.34375 132.961 5.47519 132.414 4.74484C131.624 3.69569 130.372 3.0686 129.065 3.0686C126.755 3.0686 124.877 4.94646 124.877 7.25555C124.877 9.56395 126.755 11.4423 129.065 11.4423Z" fill="#697586"/>
<path d="M145.006 11.6933C144.96 11.6378 144.868 11.6319 144.759 11.6656C144.739 11.6729 144.721 11.6802 144.7 11.688C141.558 12.8408 134.634 14.0963 125.313 12.4396C114.212 10.4676 110.228 11.4589 108.27 12.175C108.252 12.1811 108.237 12.1866 108.22 12.1939C108.102 12.2432 108.028 12.3198 108.034 12.3984C108.038 12.4799 108.125 12.5457 108.25 12.5796C108.257 12.5801 108.261 12.5813 108.268 12.5837C122.282 15.7313 113.608 27.4485 94.4748 38.5018C94.4402 38.5181 94.4076 38.5361 94.3798 38.5561C94.2706 38.6309 94.213 38.7238 94.2352 38.8023C94.2615 38.8917 94.3902 38.9382 94.5531 38.9304C94.5682 38.9292 94.5833 38.9285 94.5964 38.9268C97.9331 38.6263 102.849 36.8414 108.752 34.214C108.754 34.2123 108.755 34.2116 108.759 34.211C109.448 33.9049 110.15 33.5862 110.865 33.2568C113.848 31.9512 117.235 30.7289 119.384 31.4055C122.218 32.2983 122.763 34.4095 123.102 38.4111C123.104 38.4316 123.107 38.4515 123.108 38.4734C123.122 38.5771 123.163 38.6526 123.23 38.6731C123.302 38.6953 123.388 38.6441 123.462 38.5505C123.47 38.5385 123.478 38.5269 123.488 38.5149C124.865 36.6209 129.975 29.2194 130.264 23.376C137.129 19.3955 142.856 15.3116 144.927 12.047C144.953 12.0126 144.975 11.9758 144.993 11.9402C145.045 11.8413 145.053 11.7489 145.006 11.6933Z" fill="#697586"/>
<path d="M78.0792 13.8271V15.0302C77.2679 14.4525 76.3353 14.0365 75.3251 13.8271C74.8439 13.7282 74.3467 13.6761 73.8354 13.6761C73.325 13.6761 72.8258 13.728 72.3454 13.8271C69.0285 14.5127 66.5329 17.4407 66.5124 20.9553C66.5117 20.9692 66.5117 20.9849 66.5117 20.9999C66.5117 21.0151 66.5117 21.0307 66.5124 21.0446C66.536 25.0691 69.8053 28.3243 73.8356 28.3243C75.417 28.3243 76.8827 27.8235 78.0794 26.9711V28.1723H81.0081H81.1607H81.1614V13.8271H81.0081H78.0792ZM73.8353 25.2436C71.4918 25.2436 69.5922 23.343 69.5922 20.9999C69.5922 18.6567 71.4918 16.7563 73.8353 16.7563C76.1789 16.7563 78.0785 18.6569 78.0785 20.9999C78.0785 23.3429 76.1791 25.2436 73.8353 25.2436Z" fill="#697586"/>
<path d="M39.594 13.8271V15.0302C38.7828 14.4525 37.849 14.0365 36.8398 13.8271C36.3593 13.7282 35.8602 13.6761 35.3491 13.6761C34.839 13.6761 34.341 13.728 33.8601 13.8271C31.9224 14.2284 30.2646 15.3939 29.2173 16.994C28.4768 18.1264 28.041 19.4754 28.0266 20.9259C28.0266 20.9507 28.0254 20.976 28.0254 21C28.0254 21.025 28.0266 21.0501 28.0266 21.0743C28.0412 22.5248 28.4768 23.875 29.2173 25.0062C30.5254 27.0046 32.7831 28.3244 35.3491 28.3244C36.9329 28.3244 38.3965 27.8237 39.594 26.9712V28.1725H42.5214H42.6754V13.8271H42.5214H39.594ZM35.3491 25.2436C33.0061 25.2436 31.1059 23.343 31.1059 20.9999C31.1059 18.6567 33.0061 16.7563 35.3491 16.7563C37.6933 16.7563 39.5934 18.6569 39.5934 20.9999C39.5934 23.3429 37.6933 25.2436 35.3491 25.2436Z" fill="#697586"/>
<path d="M15.1424 13.8271V15.0302C14.3325 14.4525 13.3986 14.0365 12.3888 13.8271C11.9077 13.7282 11.4094 13.6761 10.8993 13.6761C10.3882 13.6761 9.89016 13.728 9.40857 13.8271C6.0778 14.5164 3.57422 17.4659 3.57422 20.9999C3.57422 25.0457 6.85411 28.3243 10.8993 28.3243C12.4807 28.3243 13.9464 27.8235 15.1424 26.9711V28.1723H18.0712H18.2235H18.2242V13.8271H18.0712H15.1424ZM10.8991 25.2436C8.55477 25.2436 6.6552 23.343 6.6552 20.9999C6.6552 18.6567 8.55477 16.7563 10.8991 16.7563C13.242 16.7563 15.1422 18.6569 15.1422 20.9999C15.1422 23.3429 13.2421 25.2436 10.8991 25.2436Z" fill="#697586"/>
<path d="M88.5857 13.8271C87.7508 14.0389 87.0023 14.4596 86.3971 15.0317V13.8271H83.3145V28.1723H86.3971V20.1695C86.3965 20.1695 86.3965 20.1695 86.3959 20.1695C86.3959 18.2847 87.9233 16.757 89.8091 16.757H90.8098V13.8271V13.6761H89.8091C89.386 13.6761 88.9769 13.7285 88.5857 13.8271Z" fill="#697586"/>
<path d="M60.6248 13.8271C60.2006 13.7282 59.7588 13.6761 59.3042 13.6761C59.2615 13.6761 59.2186 13.6761 59.1775 13.6773C59.1431 13.6773 59.1099 13.6799 59.0754 13.6811C59.0709 13.6811 59.0643 13.6811 59.0587 13.6811C57.4494 13.7521 56.2368 14.5079 55.5838 15.0302C55.2312 15.3113 55.0425 15.525 55.0425 15.525C55.0425 15.525 54.7864 15.2406 54.3369 14.8937C53.7152 14.4143 52.7247 13.8181 51.5374 13.6968C51.5277 13.6968 51.5169 13.6962 51.5072 13.695C51.4843 13.6924 51.4609 13.6902 51.4373 13.6895C51.4192 13.6878 51.4029 13.6872 51.386 13.6848C51.368 13.6834 51.3488 13.6829 51.3302 13.6817C51.3068 13.6812 51.283 13.68 51.2605 13.6792C51.2471 13.6782 51.2344 13.6773 51.2201 13.6773C51.183 13.6761 51.1458 13.6761 51.1089 13.6761C50.6792 13.6761 50.2705 13.7262 49.8844 13.8271C49.1498 14.0214 48.4907 14.4034 47.9065 14.9878C47.9065 14.3293 47.9065 13.8271 47.9065 13.8271H44.8262V28.1723H47.9065V19.6596C47.9065 18.0564 49.1305 16.7563 50.7792 16.7563C52.4283 16.7563 53.5021 18.0564 53.5021 19.6596V28.1723H56.5814V19.6596C56.5814 18.0564 57.7735 16.7563 59.3778 16.7563C60.9826 16.7563 62.0253 18.0564 62.0253 19.6596V28.1723H65.1063V19.4779C65.1065 16.7319 63.1893 14.427 60.6248 13.8271Z" fill="#697586"/>
<path d="M104.102 13.827H100.388L95.4018 19.8617V10.3299V9.04541H92.3203V28.1721H93.0083H95.4018V22.1292L100.388 28.1721H104.102L98.1798 20.9998L104.102 13.827Z" fill="#697586"/>
<path d="M25.6455 13.8271C24.8124 14.0389 24.0631 14.4596 23.457 15.0317V13.8271H20.375V28.1723H23.457C23.457 28.1723 23.457 22.319 23.457 20.4508C23.457 18.2423 24.8935 16.7568 27.0977 16.7568H27.8691V13.8271V13.6761H26.8685C26.4471 13.6761 26.0369 13.7285 25.6455 13.8271Z" fill="#697586"/>
<path d="M128.661 34.9647H128.303V35.9784H127.992V34.9647H127.635V34.7205H128.661L128.661 34.9647ZM130.364 35.9782H130.07V35.0866H130.064L129.741 35.9782H129.53L129.206 35.0866H129.2V35.9782H128.907V34.7203H129.322L129.637 35.5477L129.951 34.7203H130.363L130.364 35.9782Z" fill="#697586"/>
</svg>
