<svg width="138" height="42" viewBox="0 0 138 42" fill="none" xmlns="http://www.w3.org/2000/svg">
<g clip-path="url(#clip0_177_7704)">
<path fill-rule="evenodd" clip-rule="evenodd" d="M8.7381 24.913L19.1572 14.3714L21.3043 16.5431L10.8825 27.083L8.7381 24.913ZM29.3025 17.5162L11.9885 0.00390625L8.48705 3.54561L14.979 10.1123L0.970703 24.2809L18.2839 41.7941L21.7853 38.2524L15.2933 31.6821L29.3025 17.5162Z" fill="#697586"/>
<path fill-rule="evenodd" clip-rule="evenodd" d="M41.2397 5.09143V10.4568H47.0014V13.5555H41.2397V25.6269C41.2397 28.4033 42.0165 29.9757 44.2575 29.9757C45.3547 29.9757 45.9955 29.8825 46.5897 29.6987L46.7723 32.7973C45.9955 33.0744 44.7604 33.3523 43.2059 33.3523C41.331 33.3523 39.8221 32.7032 38.8618 31.6405C37.7646 30.3921 37.3073 28.4033 37.3073 25.7654V13.5555H33.877V10.4568H37.3073V6.2936L41.2397 5.09143Z" fill="#697586"/>
<path fill-rule="evenodd" clip-rule="evenodd" d="M51.1345 21.6953C51.1345 26.599 53.8776 30.2979 57.8108 30.2979C61.652 30.2979 64.5328 26.6443 64.5328 21.603C64.5328 17.81 62.657 13.0466 57.9021 13.0466C53.192 13.0466 51.1345 17.4869 51.1345 21.6953ZM68.6478 21.4645C68.6478 29.743 62.9318 33.3522 57.6283 33.3522C51.6831 33.3522 47.0195 28.911 47.0195 21.8347C47.0195 14.3882 51.9122 9.99414 57.9943 9.99414C64.3494 9.99414 68.6478 14.6652 68.6478 21.4645Z" fill="#697586"/>
<path fill-rule="evenodd" clip-rule="evenodd" d="M74.6274 23.7312C74.6274 24.3332 74.6731 24.8881 74.8109 25.396C75.5429 28.2176 77.9647 30.1594 80.8473 30.1594C85.0984 30.1594 87.5675 26.6443 87.5675 21.5107C87.5675 17.0704 85.2362 13.2313 80.9842 13.2313C78.2395 13.2313 75.6334 15.1748 74.9013 18.2264C74.7644 18.7352 74.6274 19.3372 74.6274 19.845V23.7312ZM70.6494 17.7648C70.6494 14.8969 70.5572 12.5841 70.4668 10.4567H74.0323L74.2623 14.295H74.3527C75.9537 11.5666 78.6064 9.99414 82.2184 9.99414C87.614 9.99414 91.6377 14.5729 91.6377 21.3251C91.6377 29.3736 86.7442 33.3522 81.5328 33.3522C78.6064 33.3522 76.045 32.0568 74.7178 29.8371H74.6274V42H70.6494V17.7648Z" fill="#697586"/>
<path fill-rule="evenodd" clip-rule="evenodd" d="M99.3198 5.09143V10.4568H105.081V13.5555H99.3198V25.6269C99.3198 28.4033 100.097 29.9757 102.338 29.9757C103.435 29.9757 104.074 29.8825 104.669 29.6987L104.852 32.7973C104.074 33.0744 102.84 33.3523 101.285 33.3523C99.4111 33.3523 97.9022 32.7032 96.9419 31.6405C95.8438 30.3921 95.3874 28.4033 95.3874 25.7654V13.5555H91.957V10.4568H95.3874V6.2936L99.3198 5.09143Z" fill="#697586"/>
<path fill-rule="evenodd" clip-rule="evenodd" d="M119.513 21.4183C115.122 21.3251 110.139 22.1118 110.139 26.4605C110.139 29.1419 111.875 30.345 113.888 30.345C116.814 30.345 118.69 28.4946 119.329 26.599C119.467 26.1365 119.513 25.673 119.513 25.3036V21.4183ZM123.399 27.4771C123.399 29.4207 123.491 31.3163 123.718 32.8425H120.106L119.787 30.0209H119.65C118.414 31.7789 116.038 33.3522 112.882 33.3522C108.4 33.3522 106.115 30.1594 106.115 26.9222C106.115 21.5107 110.871 18.5505 119.42 18.5967V18.135C119.42 16.33 118.918 12.9543 114.39 13.0005C112.287 13.0005 110.139 13.6015 108.584 14.6652L107.67 11.9368C109.497 10.7799 112.196 9.99414 114.985 9.99414C121.754 9.99414 123.399 14.6652 123.399 19.1054V27.4771Z" fill="#697586"/>
<path fill-rule="evenodd" clip-rule="evenodd" d="M126.379 32.8426H130.403V0.00390625H126.379V32.8426Z" fill="#697586"/>
<path fill-rule="evenodd" clip-rule="evenodd" d="M135.032 4.2C133.873 4.2 132.932 3.25896 132.932 2.1C132.932 0.931132 133.873 0 135.032 0C136.201 0 137.132 0.931132 137.132 2.1C137.132 3.25896 136.201 4.2 135.032 4.2ZM135.032 0.29717C134.031 0.29717 133.219 1.08962 133.219 2.1C133.219 3.09057 134.031 3.91274 135.032 3.91274C136.032 3.91274 136.834 3.09057 136.834 2.1C136.834 1.08962 136.032 0.29717 135.032 0.29717ZM135.606 3.30849L134.982 2.35755H134.546V3.30849H134.229V0.901415H135.21C135.626 0.901415 135.973 1.18868 135.973 1.63443C135.973 2.16934 135.497 2.34764 135.359 2.34764L136.002 3.30849H135.606ZM135.21 1.18868H134.546V2.06038H135.21C135.438 2.06038 135.646 1.88208 135.646 1.63443C135.646 1.36698 135.438 1.18868 135.21 1.18868Z" fill="#697586"/>
</g>
<defs>
<clipPath id="clip0_177_7704">
<rect width="136.216" height="42" fill="white" transform="translate(0.970703)"/>
</clipPath>
</defs>
</svg>
