<svg width="119" height="42" viewBox="0 0 119 42" fill="none" xmlns="http://www.w3.org/2000/svg">
<g clip-path="url(#clip0_177_7716)">
<path d="M17.9609 41.9466C13.1739 41.521 8.98433 39.6247 5.80166 36.4432C2.79615 33.4389 0.951963 29.6256 0.32523 25.1195C0.171204 24.0121 0.136889 21.4105 0.260901 20.2423C0.663324 16.4516 2.04345 13.0645 4.37446 10.1467C5.00266 9.36033 6.30797 8.02704 7.05954 7.40404C11.0434 4.10169 16.072 2.49293 21.515 2.77944C24.083 2.91461 25.846 3.2299 27.8191 3.90679C29.1884 4.37655 31.1563 5.37041 31.7634 5.89875L31.9167 6.03222L31.8994 7.52551L31.882 9.0188L31.2323 8.61897C28.252 6.78468 24.4716 5.81387 20.3185 5.81633C16.7986 5.81841 13.5498 6.76145 10.7838 8.58403C7.93788 10.4593 5.79354 13.1065 4.5382 16.2944C2.83877 20.6101 3.10172 25.8836 5.22862 30.1405C7.65322 34.9933 12.12 38.1156 17.6619 38.8312C19.2925 39.0418 21.6974 38.9459 23.4056 38.6022C28.9953 37.4776 32.5029 33.6547 33.25 27.8728C33.328 27.2695 33.3556 26.5427 33.3604 24.9649L33.3669 22.8612L26.7621 22.8455L20.1574 22.8297V19.8605H36.3058L36.3052 22.5364C36.3046 25.5538 36.2387 27.1328 36.0609 28.3959C35.5237 32.2097 34.1035 35.2455 31.7603 37.5887C29.3856 39.9634 26.3465 41.3565 22.4466 41.8581C21.5364 41.9752 18.8729 42.0278 17.9609 41.9466ZM93.2893 6.50383V-0.000244141H96.321V10.9941L96.059 11.1117C95.5173 11.355 94.749 11.879 93.3667 12.9481C93.3049 12.9959 93.2893 11.6977 93.2893 6.50383ZM88.7109 8.85974V-0.000244141H91.7426V14.182L91.2688 14.6856C90.7835 15.2014 89.9111 16.2268 89.2086 17.1072C88.9914 17.3794 88.7905 17.6286 88.7623 17.6609C88.734 17.6933 88.7109 13.7327 88.7109 8.85974Z" fill="#697586"/>
<path d="M18.7662 37.3326C14.9592 37.0332 11.7534 35.5638 9.22958 32.9613C8.48836 32.197 8.06109 31.6661 7.4914 30.8017C5.38033 27.5987 4.55941 23.4153 5.27858 19.5253C6.20061 14.538 9.64258 10.3978 14.4636 8.47714C15.6895 7.98873 17.2022 7.62849 18.6396 7.48263C19.5723 7.38798 22.0772 7.44094 23.0663 7.57622C26.2511 8.01179 29.0942 8.99571 31.3722 10.4507L31.9133 10.7963L31.9136 12.2635C31.9139 13.6007 31.9043 13.736 31.8051 13.7891C31.7199 13.8347 31.5281 13.7408 30.9234 13.3575C28.5373 11.845 25.997 10.9615 23.0044 10.6032C21.864 10.4667 19.4001 10.4491 18.5497 10.5715C13.0812 11.3582 9.18569 15.2919 8.49312 20.7266C8.30459 22.206 8.43282 24.292 8.80119 25.7382C9.62384 28.968 11.6118 31.5944 14.2733 32.9677C16.0793 33.8995 17.6673 34.2765 19.7871 34.2765C22.7553 34.2765 25.1426 33.4325 26.7801 31.8042C27.8415 30.7488 28.4618 29.469 28.6029 28.0429L28.6473 27.5944H20.1583V24.4389H31.7902V25.7007C31.7902 27.6471 31.6347 28.8037 31.1975 30.1106C30.3114 32.7591 28.4324 34.8616 25.8505 36.0937C24.1713 36.8951 22.3841 37.2848 20.1675 37.3331C19.5669 37.3462 18.9364 37.346 18.7662 37.3325V37.3326ZM102.985 37.3663C100.58 37.1529 98.4622 36.0918 96.6543 34.1943C95.3583 32.8339 94.4399 31.2107 94.0404 29.5742C93.8089 28.6261 93.7361 28.8112 95.0572 26.9899C95.7018 26.1012 96.2474 25.3725 96.2697 25.3705C96.2919 25.3686 96.3282 25.6663 96.3503 26.0321C96.4063 26.9578 96.4896 27.5245 96.6755 28.244C97.501 31.4389 99.8212 33.7476 102.715 34.2536C103.483 34.388 104.804 34.3391 105.541 34.1491C108.206 33.4622 109.978 31.4479 110.654 28.3368C110.818 27.5856 110.819 25.3786 110.656 24.6389C110.325 23.131 109.678 21.8583 108.743 20.8735C107.406 19.4664 105.653 18.7468 103.561 18.7468C100.876 18.7468 98.9237 19.8358 96.3479 22.7695C93.8297 25.6376 89.6475 30.9529 87.5449 33.9576L86.7938 35.0308V30.0383L87.8632 28.5843C88.4513 27.7846 89.4819 26.4204 90.1533 25.5526C90.8248 24.6849 91.7565 23.4739 92.2237 22.8615C94.3708 20.0479 95.7561 18.6363 97.5161 17.4684C101.147 15.0594 105.924 14.9987 109.389 17.3177C112.925 19.6841 114.624 24.3121 113.676 28.9944C112.911 32.7717 110.492 35.6862 107.146 36.8627C106.422 37.1172 105.589 37.2888 104.705 37.3659C103.89 37.437 103.782 37.437 102.985 37.3665L102.985 37.3663ZM77.6369 33.3409C77.6369 26.6116 77.6237 25.4487 77.541 24.8916C77.2381 22.8522 76.2964 21.1531 74.8797 20.0898C73.9611 19.4003 72.9307 18.9719 71.7069 18.7705C70.83 18.6263 69.5203 18.6826 68.6965 18.9C65.9454 19.6262 63.9674 21.8669 63.3701 24.9339C63.1997 25.809 63.2144 27.4599 63.4004 28.3368C64.0126 31.2236 65.8436 33.308 68.418 34.049C70.684 34.7012 73.8068 34.2125 75.7354 32.9039L76.0922 32.6618L76.0757 34.2566L76.0592 35.8513L75.4404 36.1749C73.8751 36.9934 71.4216 37.5158 69.6864 37.3998C66.3647 37.178 63.6913 35.6699 61.9125 33.0146C60.0188 30.1879 59.5347 26.0856 60.6865 22.6257C62.2081 18.0551 66.4748 15.2633 71.3415 15.654C73.9803 15.8659 75.9622 16.7512 77.7011 18.4948C79.3086 20.1066 80.1707 21.847 80.5842 24.3152C80.6834 24.9071 80.6949 25.6837 80.7145 33.0545L80.736 41.1442H77.6369V33.3409ZM42.9279 33.1473C42.9289 24.9455 42.9548 23.8464 43.1728 22.7768C43.7327 20.0294 45.3623 17.8443 47.7448 16.6465C48.3087 16.3629 49.4809 15.9888 50.166 15.8736C52.2312 15.5264 54.3777 15.8403 55.902 16.7124L56.2243 16.8968L55.9691 17.3113C55.8287 17.5393 55.5217 18.1226 55.2868 18.6075C55.0519 19.0925 54.8546 19.4892 54.8485 19.4892C54.8423 19.4892 54.5728 19.3948 54.2495 19.2795C52.8663 18.786 51.6022 18.7061 50.3096 19.0302C49.0995 19.3337 47.997 20.0486 47.2831 20.9927C46.8849 21.5194 46.4245 22.4908 46.2215 23.2324L46.0522 23.8511L46.0347 32.4977L46.0173 41.1442H42.927L42.9279 33.1473Z" fill="#697586"/>
<path d="M38.4102 32.6215C38.4103 24.1044 38.4249 23.4158 38.633 22.1497C39.2745 18.2477 41.3166 15.0636 44.3647 13.2131C47.2622 11.454 51.1062 10.8521 54.8061 11.5782C56.1238 11.8368 57.7619 12.4741 58.7717 13.121L59.1797 13.3824L58.4558 14.1002C58.0577 14.495 57.6064 14.9664 57.4528 15.1478L57.1736 15.4777L56.8096 15.2941C55.5939 14.6809 53.537 14.2302 51.9544 14.2302C46.977 14.2302 43.0951 17.12 41.879 21.7306C41.4613 23.3145 41.4806 22.8232 41.4577 32.4359L41.437 41.1443H38.4102L38.4102 32.6215ZM102.509 41.9722C97.8646 41.5489 94.0172 39.3197 91.653 35.6821C91.28 35.1082 90.6314 33.8032 90.5035 33.3693L90.4276 33.1117L91.5031 31.6487L92.5786 30.1858L92.633 30.3905C93.3291 33.0055 94.8555 35.2299 97.0073 36.765C97.6764 37.2423 98.8922 37.8881 99.6977 38.194C101.719 38.962 103.96 39.1468 106.142 38.7257C107.562 38.4517 109.248 37.7302 110.428 36.8914C111.154 36.3755 112.501 35.0395 112.99 34.3487C114.188 32.6598 114.976 30.6522 115.294 28.4824C115.439 27.4881 115.441 25.4817 115.296 24.4972C114.793 21.062 113.229 18.2979 110.707 16.385C108.584 14.775 105.593 13.9396 102.74 14.1596C98.4201 14.4928 95.4434 16.4577 91.1612 21.8025C90.7219 22.3508 89.5695 23.8574 88.6004 25.1505C87.6312 26.4436 86.8282 27.5132 86.8159 27.5274C86.8036 27.5416 86.7936 26.5386 86.7936 25.2987V23.0442L87.8311 21.5915C90.0301 18.5124 90.9817 17.3359 92.4837 15.8388C94.0479 14.2798 95.2996 13.3564 96.9715 12.5278C98.3762 11.8317 99.7266 11.413 101.395 11.1565C102.396 11.0025 104.849 11.0025 105.85 11.1565C109.261 11.6809 111.975 13.0633 114.265 15.4425C116.507 17.7725 117.85 20.6631 118.358 24.2534C118.469 25.0418 118.469 27.9163 118.358 28.7081C117.997 31.2757 117.165 33.5794 115.91 35.483C113.58 39.0162 110.187 41.1996 106.005 41.8567C105.407 41.9507 103.107 42.0267 102.509 41.9722H102.509ZM68.9128 41.9398C62.2078 41.3258 57.0317 36.6129 55.7399 29.9455C55.4953 28.6829 55.4557 28.2089 55.4557 26.5426C55.4557 24.5018 55.5933 23.4479 56.0777 21.7774C57.3458 17.4042 60.5672 13.7796 64.6746 12.1045C66.6365 11.3043 68.3397 10.9824 70.5833 10.9877C72.7592 10.9929 74.3623 11.2749 76.1826 11.9728C78.1254 12.7176 79.6946 13.7523 81.1683 15.2603C83.3118 17.4538 84.5882 20.0939 85.1403 23.4758C85.2696 24.268 85.2727 24.4539 85.293 32.7143L85.3137 41.1443H82.2151L82.2145 33.3949C82.2139 28.5835 82.1896 25.364 82.1499 24.903C81.8862 21.8439 80.6396 19.147 78.5943 17.2114C76.2997 15.0398 72.9379 13.8941 69.6398 14.1598C63.9735 14.6162 59.7623 18.5015 58.7664 24.1915C58.4885 25.7795 58.5372 27.8974 58.8921 29.6536C59.1479 30.9201 59.7954 32.5878 60.4339 33.6253C61.769 35.7944 63.7349 37.3782 66.1484 38.2291C68.2158 38.958 70.583 39.1424 72.5983 38.7316C73.7497 38.4969 75.12 37.9696 75.807 37.4969L76.0899 37.3023V40.3753L75.7341 40.61C74.7214 41.2778 73.2325 41.7667 71.666 41.9458C71.0192 42.0197 69.7557 42.017 68.9128 41.9398Z" fill="#697586"/>
</g>
<defs>
<clipPath id="clip0_177_7716">
<rect width="118.256" height="42" fill="white" transform="translate(0.185547)"/>
</clipPath>
</defs>
</svg>
