<svg width="381" height="38" viewBox="0 0 381 38" fill="none" xmlns="http://www.w3.org/2000/svg">
<path d="M127.322 8.97444C130.948 8.97444 133.204 13.7165 133.212 20.1528C133.204 26.4386 131.052 31.0809 127.569 31.2599H125.503V8.97444H127.322ZM119.861 6.54719V33.7029H128.434C135.02 33.7029 138.836 28.6458 138.847 20.1512V20.1338C138.836 11.6629 135.02 6.54719 128.434 6.54719H119.861ZM72.1683 20.167V8.97602H73.6725C76.7426 8.97602 78.0045 11.1167 78.0045 14.486C78.0045 18.2971 76.4877 20.167 73.6709 20.167H72.1683ZM85.3971 33.7045L79.4897 21.6949C82.3476 20.5328 83.6934 18.2005 83.6934 14.4844C83.6934 9.15494 80.6091 6.54719 73.7722 6.54719H66.5269V33.7029H72.1683V22.599H73.7722C73.8229 22.599 73.8657 22.5943 73.9147 22.5943L79.3772 33.7029H85.3971V33.7045ZM25.0325 6.54719L21.5792 21.63L18.0484 6.54719H15.2142L11.7562 21.6364L8.22541 6.54719H2.64258L8.99174 33.7029H11.8275L15.3504 18.3304L18.8147 33.6966L18.8116 33.7029H21.6489L28.0662 6.54877L25.0325 6.54719ZM45.8454 31.662C43.2931 31.662 41.5546 29.382 41.5546 20.1243C41.5546 10.8697 43.2931 8.58494 45.8454 8.58494C48.4041 8.58494 50.1394 10.8697 50.1442 20.1243C50.1394 29.382 48.4041 31.662 45.847 31.662H45.8454ZM56.3318 20.1053C56.3207 15.6514 55.252 12.0287 53.2364 9.61094C51.3633 7.36261 48.9345 6.17511 45.847 6.17511C42.7627 6.17511 40.3338 7.36261 38.4576 9.61094C36.442 12.0287 35.3732 15.6514 35.3653 20.1053H35.3622V20.1449H35.3653C35.3732 24.6004 36.442 28.2199 38.4576 30.6376C40.3338 32.8859 42.7627 34.0766 45.847 34.0766C48.9345 34.0766 51.3633 32.8859 53.2364 30.6376C55.252 28.2199 56.3207 24.6004 56.3318 20.1449V20.1053ZM193.089 33.7029H198.73V20.2604H208.101V17.8316H198.73V8.97444H209.682V6.54719H193.089V33.7029ZM172.411 31.6636C169.857 31.6636 168.117 29.3836 168.114 20.1259C168.117 10.8681 169.855 8.58653 172.411 8.58653C174.965 8.58653 176.703 10.8665 176.708 20.1259C176.703 29.3836 174.965 31.6636 172.411 31.6636ZM182.894 20.1069C182.884 15.6529 181.816 12.0303 179.799 9.61253C177.927 7.36419 175.495 6.17669 172.411 6.17194C169.325 6.17511 166.898 7.36261 165.021 9.61253C163.006 12.0303 161.937 15.6529 161.926 20.1069V20.1464C161.937 24.5988 163.006 28.2214 165.021 30.6376C166.898 32.8859 169.325 34.0782 172.411 34.0782C175.495 34.0782 177.927 32.8875 179.799 30.6376C181.816 28.2214 182.884 24.5988 182.894 20.1464V20.1084V20.1069ZM244.799 18.951H237.421V6.54719H231.779V33.7029H237.421V21.4004H244.799V33.7029H250.426V6.54877H244.799V18.951ZM318.316 8.99978H324.491V33.7029H330.134V8.98078H336.311V6.54561H318.316V8.99978ZM345.14 8.99978H351.315V33.7029H356.958V8.98078H363.134V6.54561H345.14V8.99978ZM295.452 24.1697L298.447 15.3648L301.266 24.1697H295.452ZM304.318 33.7045H310.165L301.473 6.55036V6.54719H297.884L288.64 33.7045H292.206L294.627 26.5906H302.041L304.318 33.7045ZM279.528 6.54719L273.241 18.1847L266.88 6.54719H260.78L268.779 21.1028V33.7029H274.468V21.2928L282.419 6.54719H279.528ZM111.419 31.2741H101.507V6.54561H95.8661V33.7029H111.419V31.2741ZM373.464 8.89211C374.045 8.89211 374.351 8.63878 374.351 8.14794V8.12419C374.351 7.59061 374.024 7.40377 373.464 7.40377H372.812V8.89211H373.464ZM371.695 6.54244H373.485C374.672 6.54244 375.44 7.03169 375.44 8.07828V8.10361C375.44 8.87153 375 9.28636 374.393 9.47794L375.746 11.6408H374.58L373.345 9.66161H372.812V11.6408H371.695V6.54244ZM377.696 9.15019C377.696 6.61528 375.929 4.84669 373.464 4.84669C371 4.84669 369.229 6.63586 369.229 9.17236C369.229 11.7326 371.091 13.4521 373.464 13.4521C375.861 13.4521 377.696 11.6867 377.696 9.15019ZM368.299 9.17236C368.295 8.49305 368.426 7.81973 368.685 7.1914C368.943 6.56307 369.323 5.9922 369.803 5.51184C370.284 5.03149 370.855 4.65119 371.483 4.39298C372.111 4.13476 372.785 4.00375 373.464 4.00753C376.395 4.00753 378.629 6.28753 378.629 9.15019C378.629 12.0556 376.349 14.2913 373.464 14.2913C370.601 14.2913 368.299 12.0809 368.299 9.17236Z" fill="#697586"/>
</svg>
