<svg width="225" height="40" viewBox="0 0 225 40" fill="none" xmlns="http://www.w3.org/2000/svg">
<g clip-path="url(#clip0_177_7952)">
<path d="M139.463 19.1575C142.947 19.9063 144.503 21.2167 144.503 23.5881C144.503 26.2714 142.263 28.0187 139.214 28.0187C136.725 28.0187 134.734 27.2074 132.867 25.5226L133.925 24.2121C135.543 25.7098 137.098 26.3962 139.276 26.3962C141.392 26.3962 142.761 25.2729 142.761 23.7129C142.761 22.2152 141.952 21.4039 138.716 20.7175C135.17 19.9687 133.49 18.7831 133.49 16.2246C133.49 13.7285 135.667 11.9188 138.592 11.9188C140.832 11.9188 142.45 12.5428 144.067 13.8533L143.072 15.2261C141.641 14.0405 140.21 13.5413 138.592 13.5413C136.601 13.5413 135.294 14.6645 135.294 16.0998C135.232 17.5975 136.041 18.4087 139.463 19.1575Z" fill="#697586"/>
<path d="M154.207 28.0187C149.727 28.0187 146.43 24.4617 146.43 19.9688C146.43 15.5382 149.727 11.8564 154.27 11.8564C157.07 11.8564 158.811 12.8548 160.367 14.3525L159.185 15.663C157.878 14.4149 156.385 13.5413 154.27 13.5413C150.847 13.5413 148.234 16.3494 148.234 19.9688C148.234 23.5881 150.847 26.4586 154.27 26.4586C156.385 26.4586 157.816 25.6474 159.31 24.2121L160.492 25.3354C158.812 26.9578 157.007 28.0187 154.207 28.0187Z" fill="#697586"/>
<path d="M164.476 20.78V27.8315H162.734V12.2309H164.476V19.1576H173.436V12.1685H175.178V27.7691H173.436V20.78H164.476Z" fill="#697586"/>
<path d="M186.066 28.0187C181.338 28.0187 178.164 24.2745 178.164 19.9688C178.164 15.663 181.4 11.8564 186.129 11.8564C190.858 11.8564 194.031 15.6006 194.031 19.9064C194.031 24.2745 190.858 28.0187 186.066 28.0187ZM186.066 13.5413C182.52 13.5413 179.969 16.4118 179.969 19.9688C179.969 23.5257 182.52 26.4586 186.129 26.4586C189.675 26.4586 192.226 23.5881 192.226 20.0312C192.226 16.4742 189.675 13.5413 186.066 13.5413Z" fill="#697586"/>
<path d="M204.111 28.0187C199.383 28.0187 196.209 24.2745 196.209 19.9688C196.209 15.663 199.444 11.8564 204.173 11.8564C208.903 11.8564 212.075 15.6006 212.075 19.9064C212.075 24.2745 208.84 28.0187 204.111 28.0187ZM204.111 13.5413C200.564 13.5413 198.013 16.4118 198.013 19.9688C198.013 23.5257 200.564 26.4586 204.173 26.4586C207.72 26.4586 210.271 23.5881 210.271 20.0312C210.271 16.4742 207.658 13.5413 204.111 13.5413Z" fill="#697586"/>
<path d="M215.062 12.1685H216.804V26.1466H224.831V27.7691H215.062V12.1685Z" fill="#697586"/>
<path d="M49.1777 27.7691V12.1685H52.6V27.7067H49.1777V27.7691Z" fill="#697586"/>
<path d="M63.6743 28.0187C58.8832 28.0187 55.4609 24.4617 55.4609 20.0311V19.9687C55.4609 15.5382 58.9454 11.9188 63.7365 11.9188C68.5277 11.9188 71.9498 15.4758 71.9498 19.9063V19.9687C71.9498 24.3993 68.4654 28.0187 63.6743 28.0187ZM68.4032 19.9687C68.4032 17.2854 66.4743 15.1013 63.6743 15.1013C60.9365 15.1013 59.0077 17.2854 59.0077 19.9687V20.0311C59.0077 22.7144 60.9365 24.8985 63.7365 24.8985C66.4743 24.8985 68.4032 22.7144 68.4032 19.9687Z" fill="#697586"/>
<path d="M98.8311 27.7691L97.3999 24.2746H90.8039L89.3735 27.7691H85.8887L92.5463 12.1061H95.7199L102.377 27.7691H98.8311ZM94.1023 16.2246L92.0487 21.2793H96.1551L94.1023 16.2246Z" fill="#697586"/>
<path d="M78.2347 12.1685H74.8125V27.7691H83.2745L84.5817 24.6489H78.2347V12.1685Z" fill="#697586"/>
<path d="M115.008 27.7691L107.479 17.8471V27.7691H104.119V12.1685H107.293L114.573 21.7785V12.1685H117.933V27.7067H115.008V27.7691Z" fill="#697586"/>
<path d="M121.541 27.7691V12.1685H124.963V27.7067H121.541V27.7691Z" fill="#697586"/>
<path d="M46.7507 12.1685V17.4727C46.7507 17.4727 44.1996 16.7238 43.9507 16.6614C43.764 16.599 43.7641 16.4742 43.8263 16.3494C43.8885 16.2246 45.4441 12.2309 45.4441 12.2309H46.7507V12.1685Z" fill="#697586"/>
<path d="M35.0777 2.93292C29.9132 1.43526 18.8377 0 18.5266 0C18.2777 0 7.26436 1.43526 2.03769 2.93292C1.47769 3.05772 0.855469 3.74415 0.855469 4.49298C0.855469 7.05148 1.10436 20.3432 4.27769 27.3947C6.8288 33.0734 15.0421 38.2527 17.4688 39.688C17.7799 39.8752 18.1532 40 18.5266 40C18.8999 40 19.211 39.8752 19.5221 39.7504C22.011 38.3151 30.2244 33.1358 32.7755 27.4571C35.9488 20.3432 36.1977 7.05148 36.1977 4.49298C36.2599 3.68174 35.6377 3.12013 35.0777 2.93292Z" fill="white"/>
<path d="M17.9677 38.7521V29.1421H12.3055V26.2716H14.2965C15.1055 26.2716 15.541 25.7724 15.541 24.9612V11.4198C15.541 10.8581 15.1055 10.6085 14.2965 10.6085H12.3055V7.73806H17.9677V1.18579C15.6655 1.49781 6.89211 2.68346 2.3499 3.99391C2.22545 4.05631 1.97656 4.30592 1.97656 4.55553C1.97656 7.11403 2.22545 20.1561 5.27434 27.0205C7.70101 32.387 15.7277 37.4417 17.9677 38.7521Z" fill="#697586"/>
<path d="M24.8728 10.546H22.8818C22.0728 10.546 21.6373 10.6708 21.6373 11.8565V25.0234C21.6373 25.8346 22.0728 26.3338 22.8818 26.3338H24.8728V29.2044H19.2107V38.8143C21.4507 37.4415 29.4773 32.3869 31.904 27.0203C35.0151 20.0936 35.2018 6.80187 35.2018 4.49297C35.2018 4.24337 34.9528 4.05616 34.8284 4.05616C30.3484 2.74571 21.5128 1.56006 19.1484 1.24805V7.80031H24.8107V10.546H24.8728Z" fill="#697586"/>
</g>
<defs>
<clipPath id="clip0_177_7952">
<rect width="224" height="40" fill="white" transform="translate(0.855469)"/>
</clipPath>
</defs>
</svg>
