<svg width="69" height="70" viewBox="0 0 69 70" fill="none" xmlns="http://www.w3.org/2000/svg">
<rect y="0.140625" width="69" height="69" rx="6.4" fill="url(#paint0_linear_6469_13822)"/>
<path d="M41.5309 45.8903H27.4684C26.7225 45.8903 26.0072 46.1866 25.4797 46.7141C24.9523 47.2415 24.6559 47.9569 24.6559 48.7028V51.5153C24.6559 52.2612 24.9523 52.9766 25.4797 53.5041C26.0072 54.0315 26.7225 54.3278 27.4684 54.3278H41.5309C42.2769 54.3278 42.9922 54.0315 43.5197 53.5041C44.0471 52.9766 44.3434 52.2612 44.3434 51.5153V48.7028C44.3434 47.9569 44.0471 47.2415 43.5197 46.7141C42.9922 46.1866 42.2769 45.8903 41.5309 45.8903ZM41.5309 51.5153H27.4684V48.7028H41.5309V51.5153ZM52.3689 32.2399L35.4939 15.3649C35.2302 15.1012 34.8726 14.9531 34.4997 14.9531C34.1268 14.9531 33.7692 15.1012 33.5055 15.3649L16.6305 32.2399C16.4339 32.4365 16.3 32.6871 16.2458 32.9598C16.1915 33.2326 16.2194 33.5153 16.3258 33.7722C16.4322 34.0291 16.6124 34.2487 16.8436 34.4032C17.0748 34.5578 17.3466 34.6403 17.6247 34.6403H24.6559V40.2653C24.6567 41.011 24.9532 41.726 25.4805 42.2532C26.0078 42.7805 26.7228 43.0771 27.4684 43.0778H41.5309C42.2765 43.0767 42.9912 42.78 43.5185 42.2528C44.0457 41.7256 44.3423 41.0109 44.3434 40.2653V34.6403H51.3747C51.6528 34.6403 51.9246 34.5578 52.1558 34.4032C52.387 34.2487 52.5672 34.0291 52.6736 33.7722C52.78 33.5153 52.8079 33.2326 52.7536 32.9598C52.6994 32.6871 52.5655 32.4365 52.3689 32.2399ZM41.5309 31.8278V40.2653H27.4684V31.8278H21.0194L34.4997 18.3475L47.98 31.8278H41.5309Z" fill="white"/>
<defs>
<linearGradient id="paint0_linear_6469_13822" x1="34.5" y1="0.140625" x2="34.5" y2="69.1406" gradientUnits="userSpaceOnUse">
<stop stop-color="#FEE609"/>
<stop offset="1" stop-color="#F7A300"/>
</linearGradient>
</defs>
</svg>
