<svg width="69" height="70" viewBox="0 0 69 70" fill="none" xmlns="http://www.w3.org/2000/svg">
<rect y="0.140625" width="69" height="69" rx="6.13698" fill="url(#paint0_linear_6469_13832)"/>
<path d="M51.5491 23.3906C50.9207 23.3908 50.3009 23.5375 49.739 23.8191C49.1772 24.1007 48.6887 24.5094 48.3124 25.0127C47.9361 25.5161 47.6823 26.1002 47.5712 26.7188C47.4601 27.3374 47.4947 27.9733 47.6723 28.5762L41.3995 34.848C40.5723 34.5725 39.678 34.5725 38.8507 34.848L34.2004 30.1978C34.3534 29.6006 34.3679 28.9764 34.2427 28.3729C34.1175 27.7693 33.8559 27.2024 33.478 26.7154C33.1001 26.2284 32.6158 25.8343 32.0623 25.5632C31.5087 25.2921 30.9004 25.1511 30.284 25.1511C29.6676 25.1511 29.0593 25.2921 28.5058 25.5632C27.9522 25.8343 27.4679 26.2284 27.09 26.7154C26.7121 27.2024 26.4505 27.7693 26.3253 28.3729C26.2001 28.9764 26.2146 29.6006 26.3676 30.1978L18.5902 37.9699C17.7267 37.7143 16.8027 37.7538 15.9641 38.0821C15.1256 38.4104 14.4204 39.0088 13.96 39.7827C13.4996 40.5566 13.3102 41.4618 13.4219 42.3554C13.5335 43.249 13.9397 44.0798 14.5764 44.7167C15.213 45.3535 16.0438 45.76 16.9373 45.872C17.8308 45.9839 18.7361 45.7948 19.5102 45.3346C20.2843 44.8745 20.8829 44.1695 21.2114 43.3311C21.54 42.4926 21.5798 41.5686 21.3244 40.7051L29.0034 33.027C29.8307 33.3027 30.725 33.3027 31.5523 33.027L36.2034 37.6781C36.0504 38.2752 36.036 38.8994 36.1612 39.503C36.2864 40.1066 36.5479 40.6735 36.9258 41.1605C37.3038 41.6475 37.788 42.0416 38.3416 42.3127C38.8952 42.5838 39.5034 42.7248 40.1198 42.7248C40.7363 42.7248 41.3445 42.5838 41.8981 42.3127C42.4517 42.0416 42.9359 41.6475 43.3139 41.1605C43.6918 40.6735 43.9533 40.1066 44.0785 39.503C44.2037 38.8994 44.1893 38.2752 44.0363 37.6781L50.4066 31.3113C50.9627 31.4754 51.5476 31.5179 52.1216 31.436C52.6957 31.3541 53.2453 31.1497 53.7334 30.8367C54.2215 30.5236 54.6365 30.1092 54.9503 29.6217C55.2641 29.1341 55.4693 28.5847 55.5521 28.0108C55.6349 27.4369 55.5933 26.852 55.4301 26.2956C55.2669 25.7392 54.9859 25.2244 54.6062 24.7862C54.2265 24.348 53.757 23.9965 53.2295 23.7557C52.7021 23.5149 52.129 23.3904 51.5491 23.3906Z" fill="white"/>
<defs>
<linearGradient id="paint0_linear_6469_13832" x1="34.5" y1="0.140625" x2="34.5" y2="69.1406" gradientUnits="userSpaceOnUse">
<stop stop-color="#D579CC"/>
<stop offset="1" stop-color="#AC32A0"/>
</linearGradient>
</defs>
</svg>
