<svg width="69" height="69" viewBox="0 0 69 69" fill="none" xmlns="http://www.w3.org/2000/svg">
<rect width="69" height="68.14" rx="6.4" fill="url(#paint0_linear_6469_13807)"/>
<path fill-rule="evenodd" clip-rule="evenodd" d="M33.073 17.2478C31.9218 17.3997 30.5005 17.726 28.4793 18.1928L26.1749 18.7253C24.4686 19.1191 23.2911 19.3928 22.393 19.7003C21.5249 19.9985 21.0336 20.291 20.6643 20.6622C20.293 21.0316 20.0005 21.5228 19.7024 22.391C19.3949 23.2891 19.1211 24.4647 18.7274 26.1728L18.1949 28.4753C17.728 30.4985 17.4018 31.9197 17.2499 33.071C17.0999 34.1922 17.1355 34.9516 17.3343 35.6416C17.5311 36.3316 17.9043 36.9935 18.6243 37.8653C19.3649 38.7616 20.3943 39.7947 21.8624 41.2628L25.2936 44.6941C27.8418 47.2422 29.6549 49.0516 31.2149 50.2403C32.7411 51.4066 33.8586 51.8435 34.993 51.8435C36.1293 51.8435 37.2449 51.4066 38.773 50.2403C40.3311 49.0516 42.1461 47.2403 44.6943 44.6922C47.2443 42.1422 49.0536 40.3291 50.2443 38.771C51.4068 37.2428 51.8455 36.1272 51.8455 34.991C51.8455 33.8566 51.4086 32.741 50.2424 31.2128C49.0536 29.6528 47.2424 27.8378 44.6943 25.2897L41.263 21.8585C39.7968 20.3922 38.7636 19.3628 37.8693 18.6222C36.9955 17.9022 36.3336 17.5291 35.6436 17.3322C34.9536 17.1335 34.1943 17.0997 33.0749 17.2478H33.073ZM32.7055 14.4597C34.0499 14.2816 35.2293 14.2872 36.418 14.6285C37.6086 14.9697 38.6118 15.5903 39.658 16.4528C40.6705 17.2891 41.7955 18.4141 43.2036 19.8222L46.7586 23.3772C49.2149 25.8335 51.1611 27.7797 52.4774 29.5085C53.8349 31.2841 54.658 32.9941 54.658 34.991C54.658 36.9897 53.8349 38.6997 52.4793 40.4753C51.1611 42.2041 49.2168 44.1503 46.7586 46.6066L46.6086 46.7566C44.1524 49.2128 42.2061 51.1591 40.4774 52.4753C38.7018 53.8328 36.9899 54.656 34.993 54.656C32.9961 54.656 31.2861 53.8328 29.5086 52.4772C27.7818 51.1591 25.8355 49.2147 23.3774 46.7566L19.8261 43.1997C18.4199 41.7935 17.293 40.6666 16.4568 39.656C15.5943 38.6078 14.9736 37.6047 14.6324 36.416C14.2911 35.2253 14.2855 34.046 14.4636 32.7016C14.6343 31.4003 14.9943 29.8478 15.4405 27.9091L16.003 25.466C16.378 23.8478 16.6818 22.5278 17.0436 21.476C17.4224 20.3753 17.8968 19.451 18.6768 18.671C19.4568 17.891 20.383 17.4147 21.4818 17.0397C22.5336 16.676 23.8536 16.3722 25.4718 15.9991L27.9149 15.4366C29.8536 14.9866 31.4061 14.6303 32.7074 14.4578L32.7055 14.4597ZM29.7955 26.9903C29.3559 26.5508 28.7597 26.3038 28.138 26.3038C27.5163 26.3038 26.9201 26.5508 26.4805 26.9903C26.0409 27.4299 25.7939 28.0262 25.7939 28.6478C25.7939 29.2695 26.0409 29.8658 26.4805 30.3053C26.6982 30.523 26.9566 30.6957 27.241 30.8135C27.5254 30.9313 27.8302 30.9919 28.138 30.9919C28.4458 30.9919 28.7506 30.9313 29.035 30.8135C29.3194 30.6957 29.5778 30.523 29.7955 30.3053C30.0132 30.0877 30.1858 29.8293 30.3036 29.5449C30.4214 29.2605 30.4821 28.9557 30.4821 28.6478C30.4821 28.34 30.4214 28.0352 30.3036 27.7508C30.1858 27.4664 30.0132 27.208 29.7955 26.9903ZM24.4911 25.0028C25.4581 24.0356 26.7697 23.4922 28.1373 23.492C29.505 23.4918 30.8167 24.0349 31.7839 25.0019C32.7512 25.9689 33.2946 27.2805 33.2948 28.6481C33.295 30.0158 32.7518 31.3275 31.7849 32.2947C30.8177 33.2619 29.5058 33.8053 28.138 33.8053C26.7702 33.8053 25.4583 33.2619 24.4911 32.2947C23.5239 31.3275 22.9805 30.0157 22.9805 28.6478C22.9805 27.28 23.5239 25.9701 24.4911 25.0028ZM36.3599 34.7003C35.9264 34.7169 35.5168 34.9035 35.2199 35.2197C34.4924 35.9472 34.6836 36.6728 34.888 36.8772C35.0943 37.0816 35.8199 37.271 36.5455 36.5453C38.0155 35.0753 40.5543 34.5878 42.1799 36.2135C43.4418 37.4753 43.4324 39.2866 42.6768 40.721C42.8626 40.9912 42.9482 41.318 42.9186 41.6446C42.8891 41.9713 42.7462 42.2774 42.5149 42.5099C42.2835 42.7424 41.9781 42.8867 41.6516 42.9178C41.325 42.9489 40.9979 42.8649 40.7268 42.6803C39.8853 43.1417 38.9093 43.2955 37.9668 43.1153C37.7858 43.0782 37.6139 43.0057 37.4609 42.9021C37.3079 42.7985 37.1769 42.6658 37.0752 42.5115C36.9735 42.3572 36.9032 42.1845 36.8683 42.003C36.8334 41.8216 36.8346 41.6351 36.8718 41.4541C36.9089 41.2731 36.9814 41.1012 37.085 40.9483C37.1886 40.7953 37.3213 40.6642 37.4756 40.5625C37.6299 40.4609 37.8026 40.3906 37.9841 40.3557C38.1655 40.3207 38.352 40.3219 38.533 40.3591C38.8649 40.4285 39.4011 40.3216 39.8605 39.8603C40.5861 39.1328 40.3968 38.4072 40.1924 38.2028C39.9861 37.9985 39.2605 37.8091 38.5349 38.5347C37.0649 40.0047 34.5261 40.4922 32.9005 38.8666C31.6386 37.6047 31.648 35.7935 32.4036 34.3591C32.2177 34.0888 32.1322 33.7621 32.1617 33.4354C32.1913 33.1088 32.3341 32.8027 32.5655 32.5702C32.7969 32.3377 33.1023 32.1934 33.4288 32.1623C33.7553 32.1311 34.0825 32.2151 34.3536 32.3997C34.9911 32.0603 35.6905 31.8803 36.388 31.8878C36.761 31.8913 37.1173 32.0428 37.3785 32.309C37.6398 32.5752 37.7846 32.9343 37.7811 33.3072C37.7776 33.6802 37.6262 34.0365 37.36 34.2977C37.0938 34.559 36.7328 34.7038 36.3599 34.7003Z" fill="white"/>
<defs>
<linearGradient id="paint0_linear_6469_13807" x1="34.5" y1="0" x2="34.5" y2="68.14" gradientUnits="userSpaceOnUse">
<stop stop-color="#BB57EA"/>
<stop offset="1" stop-color="#5E4BF5"/>
</linearGradient>
</defs>
</svg>
