<svg width="281" height="221" viewBox="0 0 281 221" fill="none" xmlns="http://www.w3.org/2000/svg">
<ellipse cx="110.522" cy="110.531" rx="109.998" ry="110" fill="#F1D9FF"/>
<g filter="url(#filter0_d_9473_9094)">
<rect x="23.1953" y="7.19527" width="226.609" height="202.829" rx="3.63839" stroke="#CCCCCC" stroke-width="0.390535" shape-rendering="crispEdges"/>
<rect x="24.5" y="7" width="224" height="177.598" rx="1.56214" fill="white"/>
<rect x="37.3866" y="19.8905" width="198.225" height="24.8403" rx="1.17161" stroke="#357AB5" stroke-width="0.781071"/>
<path d="M48.7619 31.0521C48.7286 30.771 48.5936 30.5528 48.3569 30.3975C48.1202 30.2422 47.8299 30.1645 47.486 30.1645C47.2345 30.1645 47.0144 30.2052 46.8258 30.2866C46.6391 30.3679 46.493 30.4798 46.3876 30.6222C46.284 30.7646 46.2323 30.9264 46.2323 31.1076C46.2323 31.2592 46.2683 31.3896 46.3404 31.4987C46.4144 31.6059 46.5087 31.6956 46.6233 31.7677C46.738 31.838 46.8582 31.8962 46.9839 31.9425C47.1097 31.9868 47.2252 32.0229 47.3306 32.0506L47.9076 32.206C48.0555 32.2448 48.2201 32.2984 48.4013 32.3668C48.5843 32.4353 48.7591 32.5286 48.9255 32.647C49.0938 32.7635 49.2325 32.9133 49.3416 33.0963C49.4507 33.2794 49.5052 33.5041 49.5052 33.7703C49.5052 34.0773 49.4248 34.3547 49.2639 34.6024C49.1049 34.8502 48.8719 35.0472 48.5649 35.1932C48.2598 35.3393 47.8891 35.4124 47.4527 35.4124C47.0459 35.4124 46.6936 35.3467 46.3959 35.2154C46.1 35.0841 45.8671 34.9011 45.6969 34.6662C45.5287 34.4314 45.4334 34.1586 45.4112 33.848H46.1213C46.1398 34.0625 46.2119 34.24 46.3377 34.3805C46.4652 34.5192 46.6261 34.6228 46.8203 34.6912C47.0163 34.7578 47.2271 34.791 47.4527 34.791C47.7153 34.791 47.951 34.7485 48.16 34.6635C48.3689 34.5765 48.5344 34.4564 48.6565 34.3029C48.7785 34.1476 48.8395 33.9663 48.8395 33.7592C48.8395 33.5706 48.7868 33.4171 48.6814 33.2988C48.576 33.1805 48.4373 33.0843 48.2654 33.0103C48.0934 32.9364 47.9076 32.8717 47.7079 32.8162L47.0089 32.6165C46.5651 32.4889 46.2138 32.3067 45.9549 32.0701C45.696 31.8334 45.5666 31.5236 45.5666 31.1409C45.5666 30.8228 45.6526 30.5455 45.8245 30.3088C45.9983 30.0702 46.2313 29.8853 46.5235 29.754C46.8175 29.6209 47.1457 29.5543 47.5082 29.5543C47.8743 29.5543 48.1997 29.62 48.4845 29.7513C48.7693 29.8807 48.9949 30.0582 49.1613 30.2838C49.3295 30.5094 49.4183 30.7655 49.4275 31.0521H48.7619ZM52.3337 35.4013C51.9232 35.4013 51.5691 35.3107 51.2714 35.1294C50.9755 34.9464 50.7471 34.6912 50.5863 34.3639C50.4272 34.0348 50.3477 33.652 50.3477 33.2156C50.3477 32.7792 50.4272 32.3946 50.5863 32.0617C50.7471 31.727 50.9709 31.4663 51.2575 31.2796C51.546 31.0909 51.8825 30.9966 52.2671 30.9966C52.489 30.9966 52.7081 31.0336 52.9245 31.1076C53.1408 31.1816 53.3378 31.3017 53.5153 31.4682C53.6928 31.6327 53.8342 31.8509 53.9396 32.1228C54.045 32.3946 54.0977 32.7293 54.0977 33.1268V33.4042H50.8137V32.8384H53.4321C53.4321 32.598 53.384 32.3835 53.2878 32.1949C53.1935 32.0063 53.0585 31.8574 52.8829 31.7483C52.7091 31.6392 52.5038 31.5847 52.2671 31.5847C52.0064 31.5847 51.7808 31.6494 51.5903 31.7788C51.4017 31.9064 51.2566 32.0728 51.1549 32.2781C51.0532 32.4833 51.0023 32.7034 51.0023 32.9382V33.3154C51.0023 33.6372 51.0578 33.9099 51.1687 34.1337C51.2815 34.3556 51.4378 34.5248 51.6375 34.6413C51.8372 34.7559 52.0693 34.8132 52.3337 34.8132C52.5056 34.8132 52.661 34.7892 52.7997 34.7411C52.9402 34.6912 53.0613 34.6172 53.163 34.5192C53.2647 34.4194 53.3433 34.2955 53.3988 34.1476L54.0312 34.3251C53.9646 34.5396 53.8527 34.7282 53.6956 34.8909C53.5384 35.0518 53.3442 35.1775 53.1131 35.2681C52.8819 35.3569 52.6221 35.4013 52.3337 35.4013ZM56.3472 35.4124C56.0772 35.4124 55.8322 35.3615 55.6122 35.2598C55.3921 35.1562 55.2174 35.0074 55.088 34.8132C54.9585 34.6172 54.8938 34.3805 54.8938 34.1032C54.8938 33.8591 54.9419 33.6612 55.038 33.5096C55.1342 33.3561 55.2627 33.2359 55.4236 33.149C55.5844 33.0621 55.762 32.9974 55.9561 32.9549C56.1521 32.9105 56.3491 32.8754 56.5469 32.8495C56.8058 32.8162 57.0157 32.7912 57.1765 32.7746C57.3393 32.7561 57.4576 32.7256 57.5316 32.683C57.6074 32.6405 57.6453 32.5665 57.6453 32.4611V32.439C57.6453 32.1653 57.5704 31.9526 57.4206 31.801C57.2727 31.6494 57.048 31.5736 56.7466 31.5736C56.4341 31.5736 56.1891 31.642 56.0116 31.7788C55.8341 31.9157 55.7093 32.0617 55.6371 32.2171L55.0158 31.9952C55.1268 31.7363 55.2747 31.5347 55.4596 31.3905C55.6464 31.2444 55.8498 31.1427 56.0698 31.0854C56.2917 31.0262 56.5099 30.9966 56.7244 30.9966C56.8613 30.9966 57.0184 31.0133 57.196 31.0466C57.3753 31.078 57.5482 31.1436 57.7146 31.2435C57.8829 31.3434 58.0225 31.4941 58.1335 31.6956C58.2444 31.8972 58.2999 32.1671 58.2999 32.5055V35.3125H57.6453V34.7356H57.612C57.5676 34.828 57.4937 34.927 57.3901 35.0324C57.2866 35.1378 57.1488 35.2274 56.9768 35.3014C56.8049 35.3754 56.595 35.4124 56.3472 35.4124ZM56.4471 34.8243C56.7059 34.8243 56.9241 34.7735 57.1016 34.6718C57.281 34.5701 57.416 34.4388 57.5066 34.2779C57.5991 34.117 57.6453 33.9478 57.6453 33.7703V33.1712C57.6176 33.2045 57.5565 33.235 57.4622 33.2627C57.3698 33.2886 57.2625 33.3117 57.1405 33.3321C57.0203 33.3506 56.9029 33.3672 56.7882 33.382C56.6754 33.395 56.5839 33.4061 56.5136 33.4153C56.3435 33.4375 56.1845 33.4735 56.0366 33.5235C55.8905 33.5715 55.7721 33.6446 55.6815 33.7426C55.5928 33.8387 55.5484 33.97 55.5484 34.1365C55.5484 34.3639 55.6325 34.5359 55.8008 34.6524C55.9709 34.767 56.1863 34.8243 56.4471 34.8243ZM59.4947 35.3125V31.0521H60.1271V31.6956H60.1714C60.2491 31.4848 60.3896 31.3138 60.593 31.1825C60.7964 31.0512 61.0257 30.9855 61.2809 30.9855C61.329 30.9855 61.3891 30.9865 61.4612 30.9883C61.5333 30.9902 61.5879 30.9929 61.6248 30.9966V31.6623C61.6027 31.6568 61.5518 31.6485 61.4723 31.6374C61.3946 31.6244 61.3123 31.6179 61.2254 31.6179C61.0183 31.6179 60.8334 31.6614 60.6707 31.7483C60.5098 31.8334 60.3822 31.9517 60.2879 32.1033C60.1955 32.2531 60.1492 32.4242 60.1492 32.6165V35.3125H59.4947ZM64.0019 35.4013C63.6025 35.4013 63.2585 35.307 62.9701 35.1183C62.6816 34.9297 62.4597 34.6699 62.3044 34.3389C62.1491 34.0079 62.0714 33.6298 62.0714 33.2045C62.0714 32.7718 62.1509 32.39 62.3099 32.059C62.4708 31.7261 62.6946 31.4663 62.9812 31.2796C63.2696 31.0909 63.6062 30.9966 63.9908 30.9966C64.2904 30.9966 64.5603 31.0521 64.8007 31.1631C65.0411 31.274 65.238 31.4293 65.3915 31.629C65.545 31.8287 65.6402 32.0617 65.6772 32.328H65.0226C64.9727 32.1339 64.8617 31.9619 64.6898 31.8121C64.5197 31.6605 64.2904 31.5847 64.0019 31.5847C63.7467 31.5847 63.523 31.6512 63.3307 31.7844C63.1402 31.9157 62.9913 32.1015 62.8841 32.3419C62.7787 32.5804 62.726 32.8606 62.726 33.1823C62.726 33.5115 62.7778 33.7981 62.8813 34.0422C62.9867 34.2862 63.1347 34.4758 63.3251 34.6108C63.5174 34.7457 63.743 34.8132 64.0019 34.8132C64.172 34.8132 64.3264 34.7836 64.4651 34.7245C64.6038 34.6653 64.7212 34.5802 64.8174 34.4693C64.9135 34.3584 64.9819 34.2252 65.0226 34.0699H65.6772C65.6402 34.3214 65.5487 34.5479 65.4026 34.7494C65.2584 34.9491 65.067 35.1082 64.8285 35.2265C64.5918 35.343 64.3162 35.4013 64.0019 35.4013ZM67.2887 32.7496V35.3125H66.6341V29.632H67.2887V31.7178H67.3442C67.444 31.4978 67.5938 31.323 67.7935 31.1936C67.9951 31.0623 68.2632 30.9966 68.5979 30.9966C68.8882 30.9966 69.1425 31.0549 69.3607 31.1714C69.5789 31.286 69.7481 31.4626 69.8682 31.7012C69.9903 31.9378 70.0513 32.2393 70.0513 32.6054V35.3125H69.3967V32.6498C69.3967 32.3114 69.3089 32.0497 69.1332 31.8648C68.9594 31.678 68.7181 31.5847 68.4093 31.5847C68.1948 31.5847 68.0025 31.63 67.8324 31.7206C67.6641 31.8112 67.531 31.9434 67.4329 32.1172C67.3368 32.291 67.2887 32.5018 67.2887 32.7496Z" fill="#757575"/>
<path d="M223.895 35.0377C222.17 35.0377 220.771 33.6389 220.771 31.9134C220.771 30.1879 222.17 28.7891 223.895 28.7891C225.621 28.7891 227.02 30.1879 227.02 31.9134C227.02 33.6389 225.621 35.0377 223.895 35.0377Z" stroke="black" stroke-width="0.781071" stroke-linecap="round" stroke-linejoin="round"/>
<path d="M219.989 35.8356L221.668 34.1562" stroke="black" stroke-width="0.781071" stroke-linecap="round" stroke-linejoin="round"/>
<path d="M71.3994 75.1239C71.3994 75.5982 70.9832 75.9826 70.4699 75.9826C69.9566 75.9826 69.5404 75.5982 69.5404 75.1239C69.5404 74.6496 69.9566 74.2785 70.4699 74.2785C70.9832 74.2785 71.3994 74.6496 71.3994 75.1239Z" fill="black"/>
<path d="M74.6525 75.1305C74.6525 75.6011 74.2364 75.9826 73.723 75.9826C73.2097 75.9826 72.7936 75.6011 72.7936 75.1305C72.7936 74.66 73.2097 74.2785 73.723 74.2785C74.2364 74.2785 74.6525 74.66 74.6525 75.1305Z" fill="black"/>
<path fill-rule="evenodd" clip-rule="evenodd" d="M68.2624 70.1094C67.5566 70.1094 66.9844 70.7089 66.9844 71.4484V82.8297C66.9844 83.5692 67.5566 84.1686 68.2624 84.1686H75.9305C76.6364 84.1686 77.2086 83.5692 77.2086 82.8297V71.4484C77.2086 70.7089 76.6364 70.1094 75.9305 70.1094H68.2624ZM69.8599 73.4568C68.9776 73.4568 68.2624 74.2062 68.2624 75.1305C68.2624 76.0549 68.9776 76.8043 69.8599 76.8043H74.333C75.2153 76.8043 75.9305 76.0549 75.9305 75.1305C75.9305 74.2062 75.2153 73.4568 74.333 73.4568H69.8599Z" fill="black"/>
<path d="M49.3786 101.539V94.4045H53.6566V95.1709H50.2426V97.5816H53.3361V98.348H50.2426V101.539H49.3786ZM56.8058 101.651C56.3227 101.651 55.8989 101.536 55.5343 101.306C55.172 101.076 54.8886 100.754 54.6842 100.341C54.4822 99.9273 54.3812 99.4442 54.3812 98.8915C54.3812 98.3341 54.4822 97.8475 54.6842 97.4318C54.8886 97.0161 55.172 96.6933 55.5343 96.4634C55.8989 96.2334 56.3227 96.1185 56.8058 96.1185C57.2889 96.1185 57.7115 96.2334 58.0738 96.4634C58.4385 96.6933 58.7218 97.0161 58.9239 97.4318C59.1282 97.8475 59.2304 98.3341 59.2304 98.8915C59.2304 99.4442 59.1282 99.9273 58.9239 100.341C58.7218 100.754 58.4385 101.076 58.0738 101.306C57.7115 101.536 57.2889 101.651 56.8058 101.651ZM56.8058 100.912C57.1727 100.912 57.4747 100.818 57.7115 100.63C57.9484 100.442 58.1238 100.194 58.2376 99.8878C58.3514 99.5812 58.4083 99.2491 58.4083 98.8915C58.4083 98.5338 58.3514 98.2006 58.2376 97.8917C58.1238 97.5828 57.9484 97.3331 57.7115 97.1427C57.4747 96.9522 57.1727 96.857 56.8058 96.857C56.4388 96.857 56.1369 96.9522 55.9 97.1427C55.6631 97.3331 55.4878 97.5828 55.374 97.8917C55.2602 98.2006 55.2033 98.5338 55.2033 98.8915C55.2033 99.2491 55.2602 99.5812 55.374 99.8878C55.4878 100.194 55.6631 100.442 55.9 100.63C56.1369 100.818 56.4388 100.912 56.8058 100.912ZM60.4854 101.539V96.1882H61.2797V96.9964H61.3354C61.433 96.7316 61.6095 96.5168 61.8649 96.3519C62.1204 96.187 62.4084 96.1045 62.7289 96.1045C62.7893 96.1045 62.8648 96.1057 62.9553 96.108C63.0459 96.1104 63.1144 96.1138 63.1609 96.1185V96.9546C63.133 96.9476 63.0691 96.9371 62.9693 96.9232C62.8717 96.9069 62.7684 96.8988 62.6592 96.8988C62.3991 96.8988 62.1669 96.9534 61.9625 97.0626C61.7604 97.1694 61.6002 97.318 61.4817 97.5085C61.3656 97.6966 61.3076 97.9114 61.3076 98.1529V101.539H60.4854ZM64.1354 101.539V96.1882H64.9297V97.0242H64.9994C65.1108 96.7386 65.2908 96.5168 65.5393 96.3589C65.7878 96.1986 66.0863 96.1185 66.4346 96.1185C66.7877 96.1185 67.0814 96.1986 67.316 96.3589C67.5529 96.5168 67.7375 96.7386 67.8699 97.0242H67.9256C68.0627 96.7479 68.2682 96.5284 68.5423 96.3658C68.8163 96.2009 69.1449 96.1185 69.5281 96.1185C70.0066 96.1185 70.3979 96.2683 70.7021 96.5679C71.0064 96.8651 71.1585 97.3285 71.1585 97.9579V101.539H70.3363V97.9579C70.3363 97.563 70.2284 97.2809 70.0124 97.1113C69.7964 96.9418 69.5421 96.857 69.2494 96.857C68.8732 96.857 68.5817 96.9708 68.375 97.1984C68.1683 97.4237 68.065 97.7094 68.065 98.0554V101.539H67.2289V97.8742C67.2289 97.57 67.1302 97.325 66.9328 97.1392C66.7354 96.9511 66.4811 96.857 66.1699 96.857C65.9562 96.857 65.7565 96.9139 65.5707 97.0277C65.3872 97.1415 65.2386 97.2994 65.1248 97.5015C65.0133 97.7012 64.9576 97.9323 64.9576 98.1947V101.539H64.1354ZM74.9052 101.651C74.3896 101.651 73.9448 101.537 73.5709 101.309C73.1993 101.079 72.9125 100.759 72.7105 100.348C72.5107 99.9343 72.4109 99.4535 72.4109 98.9054C72.4109 98.3573 72.5107 97.8742 72.7105 97.4562C72.9125 97.0358 73.1935 96.7084 73.5535 96.4738C73.9158 96.2369 74.3385 96.1185 74.8216 96.1185C75.1003 96.1185 75.3755 96.1649 75.6472 96.2578C75.9189 96.3507 76.1663 96.5017 76.3892 96.7107C76.6122 96.9174 76.7898 97.1914 76.9222 97.5328C77.0546 97.8742 77.1208 98.2946 77.1208 98.7939V99.1423H72.9961V98.4316H76.2847C76.2847 98.1297 76.2243 97.8603 76.1036 97.6234C75.9851 97.3865 75.8156 97.1996 75.5949 97.0626C75.3766 96.9255 75.1188 96.857 74.8216 96.857C74.4941 96.857 74.2108 96.9383 73.9715 97.1009C73.7347 97.2611 73.5523 97.4701 73.4246 97.7279C73.2969 97.9857 73.233 98.2621 73.233 98.557V99.0308C73.233 99.4349 73.3027 99.7775 73.442 100.059C73.5837 100.337 73.7799 100.55 74.0308 100.696C74.2816 100.84 74.5731 100.912 74.9052 100.912C75.1212 100.912 75.3162 100.882 75.4904 100.821C75.6669 100.759 75.8191 100.666 75.9468 100.543C76.0745 100.417 76.1732 100.262 76.2429 100.076L77.0372 100.299C76.9536 100.568 76.8131 100.805 76.6157 101.01C76.4182 101.212 76.1744 101.37 75.8841 101.483C75.5938 101.595 75.2675 101.651 74.9052 101.651ZM82.1616 97.3865L81.4231 97.5956C81.3767 97.4725 81.3081 97.3529 81.2176 97.2367C81.1293 97.1183 81.0086 97.0207 80.8553 96.9441C80.702 96.8675 80.5057 96.8291 80.2665 96.8291C79.9391 96.8291 79.6662 96.9046 79.4479 97.0556C79.2319 97.2042 79.1239 97.3935 79.1239 97.6234C79.1239 97.8278 79.1982 97.9892 79.3468 98.1077C79.4955 98.2261 79.7277 98.3248 80.0436 98.4038L80.8379 98.5988C81.3163 98.715 81.6728 98.8926 81.9073 99.1318C82.1419 99.3687 82.2592 99.6741 82.2592 100.048C82.2592 100.355 82.1709 100.629 81.9944 100.87C81.8202 101.112 81.5764 101.302 81.2629 101.442C80.9493 101.581 80.5847 101.651 80.169 101.651C79.6232 101.651 79.1715 101.532 78.8138 101.295C78.4562 101.058 78.2297 100.712 78.1345 100.257L78.9149 100.062C78.9892 100.35 79.1297 100.566 79.3364 100.71C79.5454 100.854 79.8183 100.926 80.1551 100.926C80.5383 100.926 80.8425 100.845 81.0678 100.682C81.2954 100.517 81.4092 100.32 81.4092 100.09C81.4092 99.9041 81.3441 99.7485 81.2141 99.623C81.084 99.4953 80.8843 99.4001 80.6149 99.3374L79.7231 99.1284C79.233 99.0122 78.8731 98.8323 78.6431 98.5884C78.4155 98.3422 78.3017 98.0345 78.3017 97.6652C78.3017 97.3633 78.3865 97.0962 78.5561 96.864C78.7279 96.6317 78.9613 96.4494 79.2563 96.317C79.5535 96.1847 79.8903 96.1185 80.2665 96.1185C80.796 96.1185 81.2118 96.2346 81.5137 96.4668C81.8179 96.6991 82.0339 97.0057 82.1616 97.3865ZM85.8238 96.1882V96.8849H83.0509V96.1882H85.8238ZM83.8591 94.9062H84.6812V100.006C84.6812 100.238 84.7149 100.413 84.7822 100.529C84.8519 100.643 84.9402 100.719 85.047 100.759C85.1561 100.796 85.2711 100.814 85.3919 100.814C85.4825 100.814 85.5568 100.81 85.6148 100.801C85.6729 100.789 85.7193 100.78 85.7542 100.773L85.9214 101.511C85.8657 101.532 85.7879 101.553 85.688 101.574C85.5881 101.597 85.4615 101.609 85.3083 101.609C85.076 101.609 84.8484 101.559 84.6255 101.459C84.4048 101.359 84.2214 101.207 84.075 101.003C83.9311 100.798 83.8591 100.54 83.8591 100.229V94.9062ZM89.2465 101.651C88.731 101.651 88.2862 101.537 87.9123 101.309C87.5407 101.079 87.2539 100.759 87.0518 100.348C86.8521 99.9343 86.7522 99.4535 86.7522 98.9054C86.7522 98.3573 86.8521 97.8742 87.0518 97.4562C87.2539 97.0358 87.5349 96.7084 87.8949 96.4738C88.2572 96.2369 88.6799 96.1185 89.1629 96.1185C89.4416 96.1185 89.7168 96.1649 89.9886 96.2578C90.2603 96.3507 90.5076 96.5017 90.7306 96.7107C90.9535 96.9174 91.1312 97.1914 91.2636 97.5328C91.396 97.8742 91.4622 98.2946 91.4622 98.7939V99.1423H87.3375V98.4316H90.6261C90.6261 98.1297 90.5657 97.8603 90.4449 97.6234C90.3265 97.3865 90.1569 97.1996 89.9363 97.0626C89.718 96.9255 89.4602 96.857 89.1629 96.857C88.8355 96.857 88.5521 96.9383 88.3129 97.1009C88.076 97.2611 87.8937 97.4701 87.766 97.7279C87.6383 97.9857 87.5744 98.2621 87.5744 98.557V99.0308C87.5744 99.4349 87.6441 99.7775 87.7834 100.059C87.9251 100.337 88.1213 100.55 88.3721 100.696C88.623 100.84 88.9144 100.912 89.2465 100.912C89.4625 100.912 89.6576 100.882 89.8318 100.821C90.0083 100.759 90.1604 100.666 90.2882 100.543C90.4159 100.417 90.5146 100.262 90.5843 100.076L91.3786 100.299C91.2949 100.568 91.1544 100.805 90.957 101.01C90.7596 101.212 90.5158 101.37 90.2255 101.483C89.9352 101.595 89.6088 101.651 89.2465 101.651ZM92.7128 101.539V96.1882H93.5071V96.9964H93.5628C93.6604 96.7316 93.8369 96.5168 94.0923 96.3519C94.3478 96.187 94.6358 96.1045 94.9563 96.1045C95.0167 96.1045 95.0921 96.1057 95.1827 96.108C95.2733 96.1104 95.3418 96.1138 95.3882 96.1185V96.9546C95.3604 96.9476 95.2965 96.9371 95.1966 96.9232C95.0991 96.9069 94.9958 96.8988 94.8866 96.8988C94.6265 96.8988 94.3942 96.9534 94.1899 97.0626C93.9878 97.1694 93.8276 97.318 93.7091 97.5085C93.593 97.6966 93.5349 97.9114 93.5349 98.1529V101.539H92.7128Z" fill="#1E1E1E"/>
<path fill-rule="evenodd" clip-rule="evenodd" d="M132.181 70.4438C132.714 70.223 133.285 70.1094 133.862 70.1094H135.18H137.377H138.695H141.331V71.4274L138.695 71.4274V84.1686H137.377V71.4274H135.18V84.1686H133.862L133.862 78.8964C133.285 78.8964 132.714 78.7828 132.181 78.562C131.648 78.3412 131.164 78.0176 130.756 77.6096C130.348 77.2016 130.024 76.7173 129.803 76.1842C129.582 75.6512 129.469 75.0799 129.469 74.5029C129.469 73.9259 129.582 73.3546 129.803 72.8216C130.024 72.2885 130.348 71.8042 130.756 71.3962C131.164 70.9882 131.648 70.6646 132.181 70.4438Z" fill="#1E1E1E"/>
<path d="M112.261 101.539V94.4045H114.672C115.231 94.4045 115.689 94.5055 116.044 94.7076C116.402 94.9073 116.667 95.1779 116.839 95.5193C117.01 95.8607 117.096 96.2416 117.096 96.6619C117.096 97.0823 117.01 97.4643 116.839 97.8081C116.669 98.1518 116.407 98.4258 116.051 98.6302C115.696 98.8323 115.241 98.9333 114.686 98.9333H112.958V98.1669H114.658C115.041 98.1669 115.349 98.1007 115.581 97.9683C115.813 97.8359 115.982 97.6571 116.086 97.4318C116.193 97.2042 116.246 96.9476 116.246 96.6619C116.246 96.3763 116.193 96.1208 116.086 95.8955C115.982 95.6702 115.812 95.4937 115.577 95.366C115.343 95.236 115.032 95.1709 114.644 95.1709H113.125V101.539H112.261ZM119.951 101.664C119.612 101.664 119.304 101.601 119.028 101.473C118.752 101.343 118.532 101.156 118.37 100.912C118.207 100.666 118.126 100.369 118.126 100.02C118.126 99.7136 118.186 99.4651 118.307 99.2747C118.428 99.0819 118.589 98.931 118.791 98.8218C118.993 98.7126 119.216 98.6314 119.46 98.5779C119.706 98.5222 119.954 98.4781 120.202 98.4456C120.527 98.4038 120.791 98.3724 120.993 98.3515C121.197 98.3283 121.346 98.29 121.439 98.2365C121.534 98.1831 121.582 98.0902 121.582 97.9579V97.93C121.582 97.5863 121.488 97.3192 121.299 97.1287C121.114 96.9383 120.831 96.8431 120.453 96.8431C120.06 96.8431 119.753 96.929 119.53 97.1009C119.307 97.2727 119.15 97.4562 119.059 97.6513L118.279 97.3726C118.418 97.0475 118.604 96.7943 118.836 96.6132C119.071 96.4297 119.326 96.302 119.603 96.23C119.882 96.1556 120.156 96.1185 120.425 96.1185C120.597 96.1185 120.794 96.1394 121.017 96.1812C121.243 96.2207 121.46 96.3031 121.669 96.4285C121.88 96.5539 122.055 96.7432 122.195 96.9964C122.334 97.2495 122.404 97.5886 122.404 98.0136V101.539H121.582V100.814H121.54C121.484 100.931 121.391 101.055 121.261 101.187C121.131 101.32 120.958 101.432 120.742 101.525C120.526 101.618 120.262 101.664 119.951 101.664ZM120.077 100.926C120.402 100.926 120.676 100.862 120.899 100.734C121.124 100.607 121.294 100.442 121.407 100.24C121.524 100.038 121.582 99.8251 121.582 99.6021V98.8497C121.547 98.8915 121.47 98.9298 121.352 98.9646C121.236 98.9971 121.101 99.0262 120.948 99.0517C120.797 99.075 120.649 99.0959 120.505 99.1144C120.363 99.1307 120.249 99.1446 120.16 99.1562C119.947 99.1841 119.747 99.2294 119.561 99.2921C119.378 99.3525 119.229 99.4442 119.115 99.5673C119.004 99.6881 118.948 99.853 118.948 100.062C118.948 100.348 119.054 100.564 119.265 100.71C119.479 100.854 119.749 100.926 120.077 100.926ZM123.904 101.539V96.1882H124.699V96.9964H124.754C124.852 96.7316 125.028 96.5168 125.284 96.3519C125.539 96.187 125.827 96.1045 126.148 96.1045C126.208 96.1045 126.284 96.1057 126.374 96.108C126.465 96.1104 126.533 96.1138 126.58 96.1185V96.9546C126.552 96.9476 126.488 96.9371 126.388 96.9232C126.291 96.9069 126.187 96.8988 126.078 96.8988C125.818 96.8988 125.586 96.9534 125.381 97.0626C125.179 97.1694 125.019 97.318 124.901 97.5085C124.785 97.6966 124.726 97.9114 124.726 98.1529V101.539H123.904ZM129.129 101.664C128.79 101.664 128.482 101.601 128.206 101.473C127.929 101.343 127.71 101.156 127.547 100.912C127.385 100.666 127.304 100.369 127.304 100.02C127.304 99.7136 127.364 99.4651 127.485 99.2747C127.605 99.0819 127.767 98.931 127.969 98.8218C128.171 98.7126 128.394 98.6314 128.638 98.5779C128.884 98.5222 129.131 98.4781 129.38 98.4456C129.705 98.4038 129.969 98.3724 130.171 98.3515C130.375 98.3283 130.524 98.29 130.616 98.2365C130.712 98.1831 130.759 98.0902 130.759 97.9579V97.93C130.759 97.5863 130.665 97.3192 130.477 97.1287C130.291 96.9383 130.009 96.8431 129.631 96.8431C129.238 96.8431 128.93 96.929 128.707 97.1009C128.484 97.2727 128.328 97.4562 128.237 97.6513L127.457 97.3726C127.596 97.0475 127.782 96.7943 128.014 96.6132C128.249 96.4297 128.504 96.302 128.781 96.23C129.059 96.1556 129.333 96.1185 129.603 96.1185C129.775 96.1185 129.972 96.1394 130.195 96.1812C130.42 96.2207 130.637 96.3031 130.846 96.4285C131.058 96.5539 131.233 96.7432 131.372 96.9964C131.512 97.2495 131.581 97.5886 131.581 98.0136V101.539H130.759V100.814H130.717C130.662 100.931 130.569 101.055 130.439 101.187C130.309 101.32 130.136 101.432 129.92 101.525C129.704 101.618 129.44 101.664 129.129 101.664ZM129.254 100.926C129.579 100.926 129.854 100.862 130.077 100.734C130.302 100.607 130.471 100.442 130.585 100.24C130.701 100.038 130.759 99.8251 130.759 99.6021V98.8497C130.724 98.8915 130.648 98.9298 130.529 98.9646C130.413 98.9971 130.279 99.0262 130.125 99.0517C129.974 99.075 129.827 99.0959 129.683 99.1144C129.541 99.1307 129.426 99.1446 129.338 99.1562C129.124 99.1841 128.925 99.2294 128.739 99.2921C128.555 99.3525 128.407 99.4442 128.293 99.5673C128.181 99.6881 128.126 99.853 128.126 100.062C128.126 100.348 128.231 100.564 128.443 100.71C128.656 100.854 128.927 100.926 129.254 100.926ZM135.242 103.657C134.845 103.657 134.503 103.606 134.218 103.504C133.932 103.404 133.694 103.272 133.504 103.107C133.315 102.944 133.166 102.77 133.054 102.584L133.709 102.124C133.783 102.222 133.877 102.333 133.991 102.459C134.105 102.586 134.261 102.697 134.458 102.79C134.658 102.885 134.919 102.933 135.242 102.933C135.674 102.933 136.03 102.828 136.311 102.619C136.592 102.41 136.733 102.083 136.733 101.637V100.55H136.663C136.603 100.647 136.517 100.768 136.405 100.912C136.296 101.054 136.138 101.18 135.932 101.292C135.727 101.401 135.451 101.455 135.103 101.455C134.671 101.455 134.283 101.353 133.939 101.149C133.598 100.945 133.327 100.647 133.127 100.257C132.93 99.8669 132.831 99.3931 132.831 98.8357C132.831 98.2876 132.928 97.8104 133.12 97.404C133.313 96.9952 133.581 96.6793 133.925 96.4564C134.269 96.2311 134.666 96.1185 135.116 96.1185C135.465 96.1185 135.741 96.1765 135.946 96.2927C136.152 96.4065 136.31 96.5365 136.419 96.6828C136.531 96.8268 136.617 96.9453 136.677 97.0382H136.761V96.1882H137.555V101.692C137.555 102.152 137.451 102.526 137.242 102.814C137.035 103.104 136.756 103.317 136.405 103.452C136.057 103.589 135.669 103.657 135.242 103.657ZM135.214 100.717C135.544 100.717 135.823 100.641 136.05 100.49C136.278 100.34 136.451 100.122 136.569 99.839C136.688 99.5557 136.747 99.2166 136.747 98.8218C136.747 98.4363 136.689 98.096 136.573 97.8011C136.457 97.5061 136.285 97.2751 136.057 97.1078C135.829 96.9406 135.548 96.857 135.214 96.857C134.866 96.857 134.575 96.9453 134.343 97.1218C134.113 97.2983 133.94 97.5352 133.824 97.8324C133.71 98.1297 133.653 98.4595 133.653 98.8218C133.653 99.1934 133.711 99.522 133.828 99.8077C133.946 100.091 134.12 100.314 134.35 100.477C134.582 100.637 134.87 100.717 135.214 100.717ZM139.06 101.539V96.1882H139.854V96.9964H139.91C140.008 96.7316 140.184 96.5168 140.44 96.3519C140.695 96.187 140.983 96.1045 141.303 96.1045C141.364 96.1045 141.439 96.1057 141.53 96.108C141.62 96.1104 141.689 96.1138 141.735 96.1185V96.9546C141.708 96.9476 141.644 96.9371 141.544 96.9232C141.446 96.9069 141.343 96.8988 141.234 96.8988C140.974 96.8988 140.741 96.9534 140.537 97.0626C140.335 97.1694 140.175 97.318 140.056 97.5085C139.94 97.6966 139.882 97.9114 139.882 98.1529V101.539H139.06ZM144.285 101.664C143.946 101.664 143.638 101.601 143.361 101.473C143.085 101.343 142.866 101.156 142.703 100.912C142.54 100.666 142.459 100.369 142.459 100.02C142.459 99.7136 142.52 99.4651 142.64 99.2747C142.761 99.0819 142.923 98.931 143.125 98.8218C143.327 98.7126 143.55 98.6314 143.793 98.5779C144.04 98.5222 144.287 98.4781 144.535 98.4456C144.861 98.4038 145.124 98.3724 145.326 98.3515C145.531 98.3283 145.679 98.29 145.772 98.2365C145.867 98.1831 145.915 98.0902 145.915 97.9579V97.93C145.915 97.5863 145.821 97.3192 145.633 97.1287C145.447 96.9383 145.165 96.8431 144.786 96.8431C144.394 96.8431 144.086 96.929 143.863 97.1009C143.64 97.2727 143.483 97.4562 143.393 97.6513L142.612 97.3726C142.752 97.0475 142.938 96.7943 143.17 96.6132C143.404 96.4297 143.66 96.302 143.936 96.23C144.215 96.1556 144.489 96.1185 144.758 96.1185C144.93 96.1185 145.128 96.1394 145.351 96.1812C145.576 96.2207 145.793 96.3031 146.002 96.4285C146.213 96.5539 146.389 96.7432 146.528 96.9964C146.667 97.2495 146.737 97.5886 146.737 98.0136V101.539H145.915V100.814H145.873C145.817 100.931 145.725 101.055 145.594 101.187C145.464 101.32 145.291 101.432 145.075 101.525C144.859 101.618 144.596 101.664 144.285 101.664ZM144.41 100.926C144.735 100.926 145.009 100.862 145.232 100.734C145.457 100.607 145.627 100.442 145.741 100.24C145.857 100.038 145.915 99.8251 145.915 99.6021V98.8497C145.88 98.8915 145.804 98.9298 145.685 98.9646C145.569 98.9971 145.434 99.0262 145.281 99.0517C145.13 99.075 144.983 99.0959 144.839 99.1144C144.697 99.1307 144.582 99.1446 144.494 99.1562C144.28 99.1841 144.08 99.2294 143.894 99.2921C143.711 99.3525 143.562 99.4442 143.449 99.5673C143.337 99.6881 143.281 99.853 143.281 100.062C143.281 100.348 143.387 100.564 143.598 100.71C143.812 100.854 144.083 100.926 144.41 100.926ZM148.238 103.546V96.1882H149.032V97.0382H149.13C149.19 96.9453 149.274 96.8268 149.38 96.6828C149.49 96.5365 149.645 96.4065 149.847 96.2927C150.052 96.1765 150.328 96.1185 150.676 96.1185C151.127 96.1185 151.524 96.2311 151.868 96.4564C152.211 96.6817 152.48 97.001 152.672 97.4144C152.865 97.8278 152.962 98.3155 152.962 98.8775C152.962 99.4442 152.865 99.9354 152.672 100.351C152.48 100.765 152.213 101.085 151.871 101.313C151.53 101.538 151.136 101.651 150.69 101.651C150.346 101.651 150.071 101.594 149.865 101.48C149.658 101.364 149.499 101.232 149.387 101.086C149.276 100.938 149.19 100.814 149.13 100.717H149.06V103.546H148.238ZM149.046 98.8636C149.046 99.2677 149.105 99.6242 149.224 99.9331C149.342 100.24 149.515 100.48 149.743 100.654C149.97 100.826 150.249 100.912 150.579 100.912C150.922 100.912 151.209 100.821 151.439 100.64C151.671 100.457 151.846 100.211 151.962 99.9017C152.08 99.5905 152.139 99.2445 152.139 98.8636C152.139 98.4874 152.081 98.1483 151.965 97.8464C151.851 97.5421 151.678 97.3018 151.446 97.1253C151.216 96.9464 150.927 96.857 150.579 96.857C150.244 96.857 149.963 96.9418 149.736 97.1113C149.508 97.2785 149.336 97.5131 149.22 97.815C149.104 98.1146 149.046 98.4641 149.046 98.8636ZM155.038 98.3202V101.539H154.216V94.4045H155.038V97.0242H155.108C155.233 96.7479 155.421 96.5284 155.672 96.3658C155.925 96.2009 156.262 96.1185 156.682 96.1185C157.047 96.1185 157.366 96.1916 157.64 96.338C157.914 96.4819 158.127 96.7037 158.278 97.0033C158.431 97.3006 158.508 97.6792 158.508 98.139V101.539H157.685V98.1947C157.685 97.7697 157.575 97.4411 157.354 97.2089C157.136 96.9743 156.833 96.857 156.445 96.857C156.176 96.857 155.934 96.9139 155.721 97.0277C155.509 97.1415 155.342 97.3076 155.219 97.5259C155.098 97.7442 155.038 98.0089 155.038 98.3202Z" fill="#1E1E1E"/>
<path fill-rule="evenodd" clip-rule="evenodd" d="M191.562 71.6715C191.562 70.8088 192.262 70.1094 193.125 70.1094H204.06C204.922 70.1094 205.622 70.8088 205.622 71.6715V82.6065C205.622 83.4693 204.922 84.1686 204.06 84.1686H193.125C192.262 84.1686 191.562 83.4693 191.562 82.6065V71.6715ZM193.125 71.281H204.06C204.275 71.281 204.45 71.4558 204.45 71.6715V78.1993L201.691 75.6029L198.544 79.1433L195.858 77.0324L192.734 79.4985V71.6715C192.734 71.4558 192.909 71.281 193.125 71.281ZM192.734 80.4937V82.6065C192.734 82.8222 192.909 82.997 193.125 82.997H204.06C204.275 82.997 204.45 82.8222 204.45 82.6065V79.2719L201.741 76.7224L198.64 80.2116L195.859 78.0267L192.734 80.4937Z" fill="#1E1E1E"/>
<path d="M186.153 94.4045V101.539H185.289V94.4045H186.153ZM187.773 101.539V96.1882H188.568V97.0242H188.637C188.749 96.7386 188.929 96.5168 189.177 96.3589C189.426 96.1986 189.724 96.1185 190.073 96.1185C190.426 96.1185 190.72 96.1986 190.954 96.3589C191.191 96.5168 191.376 96.7386 191.508 97.0242H191.564C191.701 96.7479 191.906 96.5284 192.18 96.3658C192.454 96.2009 192.783 96.1185 193.166 96.1185C193.645 96.1185 194.036 96.2683 194.34 96.5679C194.644 96.8651 194.797 97.3285 194.797 97.9579V101.539H193.974V97.9579C193.974 97.563 193.866 97.2809 193.65 97.1113C193.434 96.9418 193.18 96.857 192.888 96.857C192.511 96.857 192.22 96.9708 192.013 97.1984C191.806 97.4237 191.703 97.7094 191.703 98.0554V101.539H190.867V97.8742C190.867 97.57 190.768 97.325 190.571 97.1392C190.373 96.9511 190.119 96.857 189.808 96.857C189.594 96.857 189.395 96.9139 189.209 97.0277C189.025 97.1415 188.877 97.2994 188.763 97.5015C188.651 97.7012 188.596 97.9323 188.596 98.1947V101.539H187.773ZM197.874 101.664C197.535 101.664 197.228 101.601 196.951 101.473C196.675 101.343 196.455 101.156 196.293 100.912C196.13 100.666 196.049 100.369 196.049 100.02C196.049 99.7136 196.109 99.4651 196.23 99.2747C196.351 99.0819 196.512 98.931 196.714 98.8218C196.916 98.7126 197.139 98.6314 197.383 98.5779C197.629 98.5222 197.877 98.4781 198.125 98.4456C198.45 98.4038 198.714 98.3724 198.916 98.3515C199.12 98.3283 199.269 98.29 199.362 98.2365C199.457 98.1831 199.505 98.0902 199.505 97.9579V97.93C199.505 97.5863 199.411 97.3192 199.223 97.1287C199.037 96.9383 198.755 96.8431 198.376 96.8431C197.984 96.8431 197.676 96.929 197.453 97.1009C197.23 97.2727 197.073 97.4562 196.983 97.6513L196.202 97.3726C196.342 97.0475 196.527 96.7943 196.76 96.6132C196.994 96.4297 197.25 96.302 197.526 96.23C197.805 96.1556 198.079 96.1185 198.348 96.1185C198.52 96.1185 198.717 96.1394 198.94 96.1812C199.166 96.2207 199.383 96.3031 199.592 96.4285C199.803 96.5539 199.979 96.7432 200.118 96.9964C200.257 97.2495 200.327 97.5886 200.327 98.0136V101.539H199.505V100.814H199.463C199.407 100.931 199.314 101.055 199.184 101.187C199.054 101.32 198.881 101.432 198.665 101.525C198.449 101.618 198.186 101.664 197.874 101.664ZM198 100.926C198.325 100.926 198.599 100.862 198.822 100.734C199.047 100.607 199.217 100.442 199.331 100.24C199.447 100.038 199.505 99.8251 199.505 99.6021V98.8497C199.47 98.8915 199.393 98.9298 199.275 98.9646C199.159 98.9971 199.024 99.0262 198.871 99.0517C198.72 99.075 198.572 99.0959 198.428 99.1144C198.287 99.1307 198.172 99.1446 198.083 99.1562C197.87 99.1841 197.67 99.2294 197.484 99.2921C197.301 99.3525 197.152 99.4442 197.038 99.5673C196.927 99.6881 196.871 99.853 196.871 100.062C196.871 100.348 196.977 100.564 197.188 100.71C197.402 100.854 197.672 100.926 198 100.926ZM203.987 103.657C203.59 103.657 203.249 103.606 202.963 103.504C202.677 103.404 202.439 103.272 202.249 103.107C202.061 102.944 201.911 102.77 201.8 102.584L202.455 102.124C202.529 102.222 202.623 102.333 202.737 102.459C202.85 102.586 203.006 102.697 203.204 102.79C203.403 102.885 203.665 102.933 203.987 102.933C204.419 102.933 204.776 102.828 205.057 102.619C205.338 102.41 205.478 102.083 205.478 101.637V100.55H205.409C205.348 100.647 205.262 100.768 205.151 100.912C205.042 101.054 204.884 101.18 204.677 101.292C204.473 101.401 204.196 101.455 203.848 101.455C203.416 101.455 203.028 101.353 202.684 101.149C202.343 100.945 202.072 100.647 201.873 100.257C201.675 99.8669 201.577 99.3931 201.577 98.8357C201.577 98.2876 201.673 97.8104 201.866 97.404C202.059 96.9952 202.327 96.6793 202.671 96.4564C203.014 96.2311 203.411 96.1185 203.862 96.1185C204.21 96.1185 204.487 96.1765 204.691 96.2927C204.898 96.4065 205.056 96.5365 205.165 96.6828C205.276 96.8268 205.362 96.9453 205.423 97.0382H205.506V96.1882H206.3V101.692C206.3 102.152 206.196 102.526 205.987 102.814C205.78 103.104 205.502 103.317 205.151 103.452C204.803 103.589 204.415 103.657 203.987 103.657ZM203.959 100.717C204.289 100.717 204.568 100.641 204.796 100.49C205.023 100.34 205.196 100.122 205.315 99.839C205.433 99.5557 205.492 99.2166 205.492 98.8218C205.492 98.4363 205.434 98.096 205.318 97.8011C205.202 97.5061 205.03 97.2751 204.803 97.1078C204.575 96.9406 204.294 96.857 203.959 96.857C203.611 96.857 203.321 96.9453 203.089 97.1218C202.859 97.2983 202.686 97.5352 202.569 97.8324C202.456 98.1297 202.399 98.4595 202.399 98.8218C202.399 99.1934 202.457 99.522 202.573 99.8077C202.691 100.091 202.866 100.314 203.096 100.477C203.328 100.637 203.616 100.717 203.959 100.717ZM210.049 101.651C209.533 101.651 209.089 101.537 208.715 101.309C208.343 101.079 208.056 100.759 207.854 100.348C207.654 99.9343 207.555 99.4535 207.555 98.9054C207.555 98.3573 207.654 97.8742 207.854 97.4562C208.056 97.0358 208.337 96.7084 208.697 96.4738C209.06 96.2369 209.482 96.1185 209.965 96.1185C210.244 96.1185 210.519 96.1649 210.791 96.2578C211.063 96.3507 211.31 96.5017 211.533 96.7107C211.756 96.9174 211.934 97.1914 212.066 97.5328C212.198 97.8742 212.265 98.2946 212.265 98.7939V99.1423H208.14V98.4316H211.428C211.428 98.1297 211.368 97.8603 211.247 97.6234C211.129 97.3865 210.959 97.1996 210.739 97.0626C210.52 96.9255 210.263 96.857 209.965 96.857C209.638 96.857 209.355 96.9383 209.115 97.1009C208.878 97.2611 208.696 97.4701 208.568 97.7279C208.441 97.9857 208.377 98.2621 208.377 98.557V99.0308C208.377 99.4349 208.446 99.7775 208.586 100.059C208.727 100.337 208.924 100.55 209.175 100.696C209.425 100.84 209.717 100.912 210.049 100.912C210.265 100.912 210.46 100.882 210.634 100.821C210.811 100.759 210.963 100.666 211.091 100.543C211.218 100.417 211.317 100.262 211.387 100.076L212.181 100.299C212.097 100.568 211.957 100.805 211.759 101.01C211.562 101.212 211.318 101.37 211.028 101.483C210.738 101.595 210.411 101.651 210.049 101.651Z" fill="#1E1E1E"/>
<path d="M65.8125 135.539V149.598L72.0611 144.652L78.3096 149.598V135.539H65.8125Z" fill="black"/>
<path d="M53.6082 166.969V159.834H54.4722V163.011H58.2763V159.834H59.1403V166.969H58.2763V163.778H54.4722V166.969H53.6082ZM63.0019 167.08C62.4863 167.08 62.0416 166.966 61.6677 166.739C61.2961 166.509 61.0093 166.188 60.8072 165.777C60.6075 165.364 60.5076 164.883 60.5076 164.335C60.5076 163.787 60.6075 163.304 60.8072 162.886C61.0093 162.466 61.2903 162.138 61.6503 161.904C62.0126 161.667 62.4352 161.548 62.9183 161.548C63.197 161.548 63.4722 161.595 63.7439 161.688C64.0157 161.78 64.263 161.931 64.486 162.14C64.7089 162.347 64.8866 162.621 65.019 162.963C65.1513 163.304 65.2175 163.724 65.2175 164.224V164.572H61.0929V163.861H64.3815C64.3815 163.559 64.3211 163.29 64.2003 163.053C64.0819 162.816 63.9123 162.629 63.6917 162.492C63.4734 162.355 63.2156 162.287 62.9183 162.287C62.5909 162.287 62.3075 162.368 62.0683 162.531C61.8314 162.691 61.6491 162.9 61.5214 163.158C61.3936 163.415 61.3298 163.692 61.3298 163.987V164.461C61.3298 164.865 61.3994 165.207 61.5388 165.488C61.6805 165.767 61.8767 165.979 62.1275 166.126C62.3783 166.27 62.6698 166.342 63.0019 166.342C63.2179 166.342 63.413 166.311 63.5872 166.251C63.7637 166.188 63.9158 166.096 64.0435 165.972C64.1713 165.847 64.27 165.691 64.3397 165.506L65.1339 165.729C65.0503 165.998 64.9098 166.235 64.7124 166.439C64.515 166.641 64.2711 166.799 63.9808 166.913C63.6905 167.024 63.3642 167.08 63.0019 167.08ZM68.0428 167.094C67.7037 167.094 67.396 167.03 67.1196 166.903C66.8432 166.773 66.6238 166.586 66.4612 166.342C66.2986 166.096 66.2173 165.798 66.2173 165.45C66.2173 165.143 66.2777 164.895 66.3985 164.704C66.5193 164.512 66.6807 164.361 66.8827 164.251C67.0848 164.142 67.3077 164.061 67.5516 164.008C67.7978 163.952 68.0451 163.908 68.2936 163.875C68.6188 163.833 68.8823 163.802 69.0844 163.781C69.2888 163.758 69.4374 163.72 69.5303 163.666C69.6255 163.613 69.6731 163.52 69.6731 163.388V163.36C69.6731 163.016 69.5791 162.749 69.391 162.558C69.2052 162.368 68.923 162.273 68.5444 162.273C68.1519 162.273 67.8442 162.359 67.6213 162.531C67.3983 162.702 67.2415 162.886 67.151 163.081L66.3706 162.802C66.51 162.477 66.6958 162.224 66.928 162.043C67.1626 161.859 67.418 161.732 67.6944 161.66C67.9731 161.585 68.2472 161.548 68.5166 161.548C68.6884 161.548 68.8858 161.569 69.1088 161.611C69.3341 161.65 69.5512 161.733 69.7602 161.858C69.9716 161.984 70.1469 162.173 70.2863 162.426C70.4256 162.679 70.4953 163.018 70.4953 163.443V166.969H69.6731V166.244H69.6313C69.5756 166.36 69.4827 166.485 69.3526 166.617C69.2226 166.749 69.0496 166.862 68.8336 166.955C68.6176 167.048 68.354 167.094 68.0428 167.094ZM68.1682 166.356C68.4933 166.356 68.7674 166.292 68.9903 166.164C69.2156 166.036 69.3852 165.871 69.499 165.669C69.6151 165.467 69.6731 165.255 69.6731 165.032V164.279C69.6383 164.321 69.5617 164.359 69.4432 164.394C69.3271 164.427 69.1924 164.456 69.0391 164.481C68.8882 164.505 68.7407 164.526 68.5967 164.544C68.455 164.56 68.3401 164.574 68.2518 164.586C68.0381 164.614 67.8384 164.659 67.6526 164.722C67.4691 164.782 67.3205 164.874 67.2067 164.997C67.0952 165.118 67.0395 165.283 67.0395 165.492C67.0395 165.777 67.1452 165.993 67.3565 166.14C67.5702 166.284 67.8407 166.356 68.1682 166.356ZM74.0164 167.08C73.5705 167.08 73.1768 166.968 72.8354 166.742C72.494 166.515 72.227 166.194 72.0342 165.781C71.8414 165.365 71.7451 164.874 71.7451 164.307C71.7451 163.745 71.8414 163.257 72.0342 162.844C72.227 162.431 72.4952 162.111 72.8389 161.886C73.1826 161.661 73.5798 161.548 74.0303 161.548C74.3787 161.548 74.6539 161.606 74.856 161.722C75.0603 161.836 75.2159 161.966 75.3228 162.113C75.4319 162.257 75.5167 162.375 75.5771 162.468H75.6468V159.834H76.4689V166.969H75.6746V166.147H75.5771C75.5167 166.244 75.4308 166.367 75.3193 166.516C75.2078 166.662 75.0487 166.793 74.842 166.91C74.6353 167.023 74.3601 167.08 74.0164 167.08ZM74.1279 166.342C74.4577 166.342 74.7364 166.256 74.964 166.084C75.1916 165.91 75.3646 165.669 75.483 165.363C75.6015 165.054 75.6607 164.697 75.6607 164.293C75.6607 163.894 75.6026 163.544 75.4865 163.245C75.3704 162.943 75.1985 162.708 74.9709 162.541C74.7433 162.371 74.4623 162.287 74.1279 162.287C73.7795 162.287 73.4892 162.376 73.257 162.555C73.027 162.731 72.854 162.972 72.7379 163.276C72.6241 163.578 72.5672 163.917 72.5672 164.293C72.5672 164.674 72.6253 165.02 72.7414 165.331C72.8598 165.64 73.034 165.886 73.2639 166.07C73.4962 166.251 73.7842 166.342 74.1279 166.342ZM78.0888 166.969V161.618H78.911V166.969H78.0888ZM78.5068 160.726C78.3466 160.726 78.2084 160.671 78.0923 160.562C77.9785 160.453 77.9216 160.322 77.9216 160.169C77.9216 160.015 77.9785 159.884 78.0923 159.775C78.2084 159.666 78.3466 159.611 78.5068 159.611C78.6671 159.611 78.8041 159.666 78.9179 159.775C79.034 159.884 79.0921 160.015 79.0921 160.169C79.0921 160.322 79.034 160.453 78.9179 160.562C78.8041 160.671 78.6671 160.726 78.5068 160.726ZM81.2389 163.75V166.969H80.4168V161.618H81.211V162.454H81.2807C81.4061 162.182 81.5966 161.964 81.852 161.799C82.1075 161.632 82.4373 161.548 82.8414 161.548C83.2037 161.548 83.5207 161.622 83.7924 161.771C84.0642 161.917 84.2755 162.14 84.4265 162.44C84.5774 162.737 84.6529 163.113 84.6529 163.569V166.969H83.8308V163.624C83.8308 163.204 83.7216 162.877 83.5033 162.642C83.285 162.405 82.9854 162.287 82.6045 162.287C82.3421 162.287 82.1075 162.344 81.9008 162.457C81.6964 162.571 81.535 162.737 81.4166 162.956C81.2981 163.174 81.2389 163.439 81.2389 163.75ZM88.3151 169.087C87.918 169.087 87.5766 169.036 87.2909 168.934C87.0052 168.834 86.7672 168.701 86.5768 168.536C86.3886 168.374 86.2388 168.2 86.1274 168.014L86.7823 167.554C86.8566 167.652 86.9507 167.763 87.0645 167.888C87.1783 168.016 87.3339 168.126 87.5313 168.219C87.731 168.315 87.9923 168.362 88.3151 168.362C88.7471 168.362 89.1036 168.258 89.3846 168.049C89.6656 167.84 89.8061 167.512 89.8061 167.066V165.979H89.7364C89.6761 166.077 89.5901 166.198 89.4787 166.342C89.3695 166.483 89.2116 166.61 89.0049 166.721C88.8005 166.831 88.5241 166.885 88.1758 166.885C87.7438 166.885 87.3559 166.783 87.0122 166.579C86.6708 166.374 86.4003 166.077 86.2005 165.687C86.0031 165.297 85.9044 164.823 85.9044 164.265C85.9044 163.717 86.0008 163.24 86.1936 162.834C86.3863 162.425 86.6546 162.109 86.9983 161.886C87.342 161.661 87.7391 161.548 88.1897 161.548C88.5381 161.548 88.8144 161.606 89.0188 161.722C89.2255 161.836 89.3834 161.966 89.4926 162.113C89.6041 162.257 89.69 162.375 89.7504 162.468H89.834V161.618H90.6283V167.122C90.6283 167.582 90.5238 167.956 90.3147 168.244C90.108 168.534 89.8293 168.747 89.4787 168.881C89.1303 169.018 88.7424 169.087 88.3151 169.087ZM88.2872 166.147C88.617 166.147 88.8957 166.071 89.1233 165.92C89.3509 165.769 89.5239 165.552 89.6424 165.269C89.7608 164.985 89.8201 164.646 89.8201 164.251C89.8201 163.866 89.762 163.526 89.6459 163.231C89.5297 162.936 89.3579 162.705 89.1303 162.538C88.9027 162.37 88.6217 162.287 88.2872 162.287C87.9389 162.287 87.6486 162.375 87.4163 162.551C87.1864 162.728 87.0134 162.965 86.8973 163.262C86.7835 163.559 86.7266 163.889 86.7266 164.251C86.7266 164.623 86.7846 164.952 86.9007 165.237C87.0192 165.521 87.1934 165.744 87.4233 165.906C87.6555 166.066 87.9435 166.147 88.2872 166.147Z" fill="#1E1E1E"/>
<path fill-rule="evenodd" clip-rule="evenodd" d="M128.297 137.059C128.297 136.22 128.977 135.539 129.817 135.539H138.176C139.016 135.539 139.696 136.22 139.696 137.059V145.419C139.696 146.258 139.016 146.938 138.176 146.938H129.817C128.977 146.938 128.297 146.258 128.297 145.419V137.059ZM129.817 136.679H138.176C138.386 136.679 138.556 136.849 138.556 137.059V142.601L136.654 141.137L133.988 143.232L131.903 141.716L129.437 143.566V137.059C129.437 136.849 129.607 136.679 129.817 136.679ZM129.437 144.516V145.419C129.437 145.628 129.607 145.799 129.817 145.799H138.176C138.386 145.799 138.556 145.628 138.556 145.419V143.56L136.659 142.1L134.005 144.185L131.91 142.661L129.437 144.516Z" fill="black"/>
<path d="M142.356 139.339V148.268C142.356 149.003 141.761 149.598 141.026 149.598H130.577V148.458H141.026C141.131 148.458 141.216 148.373 141.216 148.268V139.339H142.356Z" fill="black"/>
<path d="M124.841 162.064C124.764 161.829 124.663 161.619 124.537 161.433C124.414 161.245 124.267 161.085 124.095 160.952C123.926 160.82 123.733 160.719 123.517 160.649C123.301 160.58 123.064 160.545 122.806 160.545C122.383 160.545 121.999 160.654 121.653 160.872C121.307 161.091 121.032 161.412 120.827 161.837C120.623 162.262 120.521 162.784 120.521 163.401C120.521 164.019 120.624 164.541 120.831 164.966C121.038 165.391 121.317 165.712 121.67 165.931C122.023 166.149 122.421 166.258 122.862 166.258C123.271 166.258 123.631 166.171 123.942 165.997C124.255 165.82 124.499 165.572 124.673 165.251C124.85 164.928 124.938 164.549 124.938 164.112L125.203 164.168H123.057V163.401H125.774V164.168C125.774 164.755 125.649 165.266 125.398 165.701C125.149 166.135 124.806 166.472 124.367 166.711C123.93 166.948 123.429 167.066 122.862 167.066C122.23 167.066 121.675 166.918 121.197 166.62C120.721 166.323 120.349 165.9 120.082 165.352C119.817 164.804 119.685 164.154 119.685 163.401C119.685 162.837 119.76 162.33 119.911 161.879C120.064 161.426 120.28 161.041 120.559 160.723C120.838 160.404 121.168 160.161 121.548 159.991C121.929 159.821 122.349 159.737 122.806 159.737C123.182 159.737 123.533 159.794 123.858 159.907C124.186 160.019 124.477 160.178 124.733 160.385C124.99 160.589 125.205 160.834 125.377 161.12C125.549 161.403 125.667 161.718 125.732 162.064H124.841ZM128.717 167.094C128.378 167.094 128.07 167.03 127.794 166.903C127.517 166.773 127.298 166.586 127.135 166.342C126.973 166.096 126.892 165.798 126.892 165.45C126.892 165.143 126.952 164.895 127.073 164.704C127.193 164.512 127.355 164.361 127.557 164.251C127.759 164.142 127.982 164.061 128.226 164.008C128.472 163.952 128.719 163.908 128.968 163.875C129.293 163.833 129.557 163.802 129.759 163.781C129.963 163.758 130.112 163.72 130.205 163.666C130.3 163.613 130.347 163.52 130.347 163.388V163.36C130.347 163.016 130.253 162.749 130.065 162.558C129.879 162.368 129.597 162.273 129.219 162.273C128.826 162.273 128.518 162.359 128.295 162.531C128.073 162.702 127.916 162.886 127.825 163.081L127.045 162.802C127.184 162.477 127.37 162.224 127.602 162.043C127.837 161.859 128.092 161.732 128.369 161.66C128.647 161.585 128.921 161.548 129.191 161.548C129.363 161.548 129.56 161.569 129.783 161.611C130.008 161.65 130.225 161.733 130.434 161.858C130.646 161.984 130.821 162.173 130.96 162.426C131.1 162.679 131.17 163.018 131.17 163.443V166.969H130.347V166.244H130.306C130.25 166.36 130.157 166.485 130.027 166.617C129.897 166.749 129.724 166.862 129.508 166.955C129.292 167.048 129.028 167.094 128.717 167.094ZM128.842 166.356C129.168 166.356 129.442 166.292 129.665 166.164C129.89 166.036 130.059 165.871 130.173 165.669C130.289 165.467 130.347 165.255 130.347 165.032V164.279C130.313 164.321 130.236 164.359 130.117 164.394C130.001 164.427 129.867 164.456 129.713 164.481C129.562 164.505 129.415 164.526 129.271 164.544C129.129 164.56 129.014 164.574 128.926 164.586C128.712 164.614 128.513 164.659 128.327 164.722C128.143 164.782 127.995 164.874 127.881 164.997C127.769 165.118 127.714 165.283 127.714 165.492C127.714 165.777 127.819 165.993 128.031 166.14C128.244 166.284 128.515 166.356 128.842 166.356ZM133.492 159.834V166.969H132.67V159.834H133.492ZM135.82 159.834V166.969H134.998V159.834H135.82ZM139.569 167.08C139.054 167.08 138.609 166.966 138.235 166.739C137.864 166.509 137.577 166.188 137.375 165.777C137.175 165.364 137.075 164.883 137.075 164.335C137.075 163.787 137.175 163.304 137.375 162.886C137.577 162.466 137.858 162.138 138.218 161.904C138.58 161.667 139.003 161.548 139.486 161.548C139.765 161.548 140.04 161.595 140.312 161.688C140.583 161.78 140.831 161.931 141.054 162.14C141.276 162.347 141.454 162.621 141.587 162.963C141.719 163.304 141.785 163.724 141.785 164.224V164.572H137.66V163.861H140.949C140.949 163.559 140.889 163.29 140.768 163.053C140.649 162.816 140.48 162.629 140.259 162.492C140.041 162.355 139.783 162.287 139.486 162.287C139.158 162.287 138.875 162.368 138.636 162.531C138.399 162.691 138.217 162.9 138.089 163.158C137.961 163.415 137.897 163.692 137.897 163.987V164.461C137.897 164.865 137.967 165.207 138.106 165.488C138.248 165.767 138.444 165.979 138.695 166.126C138.946 166.27 139.237 166.342 139.569 166.342C139.785 166.342 139.981 166.311 140.155 166.251C140.331 166.188 140.483 166.096 140.611 165.972C140.739 165.847 140.838 165.691 140.907 165.506L141.701 165.729C141.618 165.998 141.477 166.235 141.28 166.439C141.083 166.641 140.839 166.799 140.548 166.913C140.258 167.024 139.932 167.08 139.569 167.08ZM143.036 166.969V161.618H143.83V162.426H143.886C143.983 162.161 144.16 161.946 144.415 161.782C144.671 161.617 144.959 161.534 145.279 161.534C145.34 161.534 145.415 161.535 145.506 161.538C145.596 161.54 145.665 161.544 145.711 161.548V162.384C145.683 162.377 145.619 162.367 145.52 162.353C145.422 162.337 145.319 162.329 145.21 162.329C144.949 162.329 144.717 162.383 144.513 162.492C144.311 162.599 144.151 162.748 144.032 162.938C143.916 163.126 143.858 163.341 143.858 163.583V166.969H143.036ZM147.378 168.975C147.239 168.975 147.115 168.964 147.005 168.941C146.896 168.92 146.821 168.899 146.779 168.878L146.988 168.153C147.188 168.204 147.364 168.223 147.517 168.209C147.671 168.195 147.807 168.126 147.925 168.003C148.046 167.883 148.156 167.686 148.256 167.415L148.409 166.997L146.431 161.618H147.322L148.799 165.882H148.855L150.332 161.618H151.224L148.953 167.749C148.851 168.025 148.724 168.254 148.573 168.435C148.422 168.619 148.247 168.755 148.047 168.843C147.85 168.931 147.627 168.975 147.378 168.975Z" fill="#1E1E1E"/>
<path d="M205.622 135.539H191.562V136.857H205.622V135.539Z" fill="#1E1E1E"/>
<path d="M191.562 148.28V149.598H205.622V148.28H191.562Z" fill="#1E1E1E"/>
<path d="M198.592 141.69H205.622V143.008H198.592V141.69Z" fill="#1E1E1E"/>
<path d="M193.32 144.326C194.291 144.326 195.077 143.54 195.077 142.569C195.077 141.597 194.291 140.811 193.32 140.811C192.349 140.811 191.562 141.597 191.562 142.569C191.562 143.042 191.748 143.468 192.05 143.784C192.371 144.117 192.82 144.326 193.32 144.326Z" fill="#1E1E1E"/>
<path d="M191.19 166.969V159.834H192.054V166.202H195.37V166.969H191.19ZM196.597 166.969V161.618H197.419V166.969H196.597ZM197.015 160.726C196.855 160.726 196.716 160.671 196.6 160.562C196.486 160.453 196.43 160.322 196.43 160.169C196.43 160.015 196.486 159.884 196.6 159.775C196.716 159.666 196.855 159.611 197.015 159.611C197.175 159.611 197.312 159.666 197.426 159.775C197.542 159.884 197.6 160.015 197.6 160.169C197.6 160.322 197.542 160.453 197.426 160.562C197.312 160.671 197.175 160.726 197.015 160.726ZM202.715 162.816L201.976 163.025C201.93 162.902 201.861 162.783 201.771 162.666C201.683 162.548 201.562 162.45 201.409 162.374C201.255 162.297 201.059 162.259 200.82 162.259C200.492 162.259 200.219 162.334 200.001 162.485C199.785 162.634 199.677 162.823 199.677 163.053C199.677 163.257 199.751 163.419 199.9 163.537C200.049 163.656 200.281 163.754 200.597 163.833L201.391 164.029C201.87 164.145 202.226 164.322 202.461 164.562C202.695 164.798 202.812 165.104 202.812 165.478C202.812 165.784 202.724 166.058 202.548 166.3C202.374 166.541 202.13 166.732 201.816 166.871C201.503 167.011 201.138 167.08 200.722 167.08C200.176 167.08 199.725 166.962 199.367 166.725C199.009 166.488 198.783 166.142 198.688 165.687L199.468 165.492C199.542 165.78 199.683 165.996 199.89 166.14C200.099 166.284 200.372 166.356 200.708 166.356C201.092 166.356 201.396 166.274 201.621 166.112C201.849 165.947 201.962 165.749 201.962 165.52C201.962 165.334 201.897 165.178 201.767 165.053C201.637 164.925 201.438 164.83 201.168 164.767L200.276 164.558C199.786 164.442 199.426 164.262 199.196 164.018C198.969 163.772 198.855 163.464 198.855 163.095C198.855 162.793 198.94 162.526 199.109 162.294C199.281 162.061 199.515 161.879 199.81 161.747C200.107 161.614 200.444 161.548 200.82 161.548C201.349 161.548 201.765 161.664 202.067 161.897C202.371 162.129 202.587 162.435 202.715 162.816ZM206.377 161.618V162.315H203.604V161.618H206.377ZM204.412 160.336H205.234V165.436C205.234 165.668 205.268 165.842 205.336 165.958C205.405 166.072 205.493 166.149 205.6 166.188C205.709 166.226 205.824 166.244 205.945 166.244C206.036 166.244 206.11 166.24 206.168 166.23C206.226 166.219 206.273 166.209 206.307 166.202L206.475 166.941C206.419 166.962 206.341 166.983 206.241 167.004C206.141 167.027 206.015 167.038 205.862 167.038C205.629 167.038 205.402 166.988 205.179 166.889C204.958 166.789 204.775 166.637 204.628 166.432C204.484 166.228 204.412 165.97 204.412 165.659V160.336Z" fill="#1E1E1E"/>
<rect x="23" y="184.602" width="227" height="25.6214" rx="1.56214" fill="black"/>
<path d="M116.91 200.414V194.734H118.896C119.291 194.734 119.618 194.802 119.875 194.939C120.132 195.074 120.323 195.256 120.449 195.485C120.575 195.713 120.638 195.965 120.638 196.242C120.638 196.487 120.594 196.688 120.507 196.847C120.422 197.006 120.309 197.132 120.169 197.224C120.03 197.317 119.879 197.385 119.717 197.43V197.485C119.891 197.496 120.065 197.557 120.241 197.668C120.417 197.779 120.564 197.938 120.682 198.145C120.8 198.352 120.86 198.606 120.86 198.905C120.86 199.19 120.795 199.446 120.665 199.673C120.536 199.901 120.332 200.081 120.052 200.214C119.773 200.347 119.41 200.414 118.962 200.414H116.91ZM117.598 199.804H118.962C119.412 199.804 119.731 199.717 119.919 199.543C120.11 199.367 120.205 199.155 120.205 198.905C120.205 198.713 120.156 198.535 120.058 198.373C119.96 198.208 119.82 198.077 119.639 197.979C119.458 197.879 119.243 197.829 118.996 197.829H117.598V199.804ZM117.598 197.23H118.874C119.081 197.23 119.267 197.189 119.434 197.108C119.602 197.026 119.735 196.912 119.833 196.764C119.933 196.616 119.983 196.442 119.983 196.242C119.983 195.993 119.896 195.781 119.722 195.607C119.548 195.432 119.273 195.344 118.896 195.344H117.598V197.23ZM121.901 200.414V196.154H122.533V196.797H122.578C122.655 196.586 122.796 196.415 122.999 196.284C123.203 196.153 123.432 196.087 123.687 196.087C123.735 196.087 123.795 196.088 123.868 196.09C123.94 196.092 123.994 196.095 124.031 196.098V196.764C124.009 196.758 123.958 196.75 123.879 196.739C123.801 196.726 123.719 196.72 123.632 196.72C123.425 196.72 123.24 196.763 123.077 196.85C122.916 196.935 122.789 197.053 122.694 197.205C122.602 197.355 122.556 197.526 122.556 197.718V200.414H121.901ZM126.408 200.503C126.024 200.503 125.686 200.411 125.396 200.228C125.107 200.045 124.882 199.789 124.719 199.46C124.558 199.131 124.478 198.746 124.478 198.306C124.478 197.862 124.558 197.475 124.719 197.144C124.882 196.813 125.107 196.556 125.396 196.373C125.686 196.19 126.024 196.098 126.408 196.098C126.793 196.098 127.129 196.19 127.418 196.373C127.708 196.556 127.934 196.813 128.095 197.144C128.257 197.475 128.339 197.862 128.339 198.306C128.339 198.746 128.257 199.131 128.095 199.46C127.934 199.789 127.708 200.045 127.418 200.228C127.129 200.411 126.793 200.503 126.408 200.503ZM126.408 199.915C126.7 199.915 126.941 199.84 127.129 199.69C127.318 199.54 127.458 199.343 127.548 199.099C127.639 198.855 127.684 198.591 127.684 198.306C127.684 198.021 127.639 197.756 127.548 197.51C127.458 197.264 127.318 197.065 127.129 196.914C126.941 196.762 126.7 196.686 126.408 196.686C126.116 196.686 125.876 196.762 125.687 196.914C125.499 197.065 125.359 197.264 125.268 197.51C125.178 197.756 125.132 198.021 125.132 198.306C125.132 198.591 125.178 198.855 125.268 199.099C125.359 199.343 125.499 199.54 125.687 199.69C125.876 199.84 126.116 199.915 126.408 199.915ZM130.158 200.414L128.86 196.154H129.548L130.469 199.416H130.513L131.423 196.154H132.122L133.021 199.404H133.065L133.986 196.154H134.674L133.376 200.414H132.732L131.8 197.141H131.734L130.802 200.414H130.158ZM138.557 197.108L137.969 197.274C137.932 197.176 137.877 197.081 137.805 196.989C137.735 196.894 137.639 196.817 137.517 196.756C137.395 196.695 137.239 196.664 137.048 196.664C136.787 196.664 136.57 196.724 136.396 196.844C136.224 196.963 136.138 197.113 136.138 197.296C136.138 197.459 136.198 197.588 136.316 197.682C136.434 197.776 136.619 197.855 136.871 197.918L137.503 198.073C137.884 198.166 138.168 198.307 138.355 198.497C138.541 198.686 138.635 198.929 138.635 199.227C138.635 199.471 138.564 199.689 138.424 199.882C138.285 200.074 138.091 200.225 137.841 200.336C137.592 200.447 137.301 200.503 136.97 200.503C136.536 200.503 136.176 200.409 135.892 200.22C135.607 200.031 135.426 199.756 135.351 199.393L135.972 199.238C136.031 199.467 136.143 199.639 136.308 199.754C136.474 199.869 136.691 199.926 136.959 199.926C137.264 199.926 137.507 199.861 137.686 199.732C137.867 199.6 137.958 199.443 137.958 199.26C137.958 199.112 137.906 198.988 137.803 198.889C137.699 198.787 137.54 198.711 137.326 198.661L136.615 198.495C136.225 198.402 135.939 198.259 135.756 198.065C135.574 197.869 135.484 197.624 135.484 197.33C135.484 197.089 135.551 196.877 135.686 196.692C135.823 196.507 136.009 196.362 136.244 196.256C136.48 196.151 136.749 196.098 137.048 196.098C137.47 196.098 137.801 196.191 138.041 196.376C138.283 196.56 138.455 196.805 138.557 197.108ZM141.406 200.503C140.996 200.503 140.642 200.412 140.344 200.231C140.048 200.048 139.82 199.793 139.659 199.465C139.5 199.136 139.42 198.754 139.42 198.317C139.42 197.881 139.5 197.496 139.659 197.163C139.82 196.829 140.044 196.568 140.33 196.381C140.619 196.193 140.955 196.098 141.34 196.098C141.562 196.098 141.781 196.135 141.997 196.209C142.213 196.283 142.41 196.403 142.588 196.57C142.765 196.734 142.907 196.952 143.012 197.224C143.118 197.496 143.17 197.831 143.17 198.228V198.506H139.886V197.94H142.505C142.505 197.7 142.457 197.485 142.36 197.296C142.266 197.108 142.131 196.959 141.956 196.85C141.782 196.741 141.576 196.686 141.34 196.686C141.079 196.686 140.853 196.751 140.663 196.88C140.474 197.008 140.329 197.174 140.227 197.38C140.126 197.585 140.075 197.805 140.075 198.04V198.417C140.075 198.739 140.13 199.012 140.241 199.235C140.354 199.457 140.51 199.626 140.71 199.743C140.91 199.857 141.142 199.915 141.406 199.915C141.578 199.915 141.734 199.891 141.872 199.843C142.013 199.793 142.134 199.719 142.236 199.621C142.337 199.521 142.416 199.397 142.471 199.249L143.104 199.427C143.037 199.641 142.925 199.83 142.768 199.992C142.611 200.153 142.417 200.279 142.186 200.37C141.955 200.458 141.695 200.503 141.406 200.503ZM144.166 200.414V196.154H144.799V196.797H144.843C144.921 196.586 145.061 196.415 145.265 196.284C145.468 196.153 145.697 196.087 145.952 196.087C146 196.087 146.061 196.088 146.133 196.09C146.205 196.092 146.259 196.095 146.296 196.098V196.764C146.274 196.758 146.223 196.75 146.144 196.739C146.066 196.726 145.984 196.72 145.897 196.72C145.69 196.72 145.505 196.763 145.342 196.85C145.181 196.935 145.054 197.053 144.959 197.205C144.867 197.355 144.821 197.526 144.821 197.718V200.414H144.166ZM150.523 200.514C150.253 200.514 150.008 200.463 149.788 200.361C149.568 200.258 149.393 200.109 149.263 199.915C149.134 199.719 149.069 199.482 149.069 199.205C149.069 198.961 149.117 198.763 149.214 198.611C149.31 198.458 149.438 198.337 149.599 198.251C149.76 198.164 149.937 198.099 150.132 198.056C150.328 198.012 150.525 197.977 150.722 197.951C150.981 197.918 151.191 197.893 151.352 197.876C151.515 197.858 151.633 197.827 151.707 197.785C151.783 197.742 151.821 197.668 151.821 197.563V197.541C151.821 197.267 151.746 197.054 151.596 196.903C151.448 196.751 151.224 196.675 150.922 196.675C150.61 196.675 150.365 196.744 150.187 196.88C150.01 197.017 149.885 197.163 149.813 197.319L149.191 197.097C149.302 196.838 149.45 196.636 149.635 196.492C149.822 196.346 150.025 196.244 150.245 196.187C150.467 196.128 150.685 196.098 150.9 196.098C151.037 196.098 151.194 196.115 151.371 196.148C151.551 196.18 151.724 196.245 151.89 196.345C152.058 196.445 152.198 196.596 152.309 196.797C152.42 196.999 152.475 197.269 152.475 197.607V200.414H151.821V199.837H151.788C151.743 199.93 151.669 200.029 151.566 200.134C151.462 200.239 151.324 200.329 151.152 200.403C150.98 200.477 150.771 200.514 150.523 200.514ZM150.623 199.926C150.881 199.926 151.1 199.875 151.277 199.773C151.457 199.672 151.592 199.54 151.682 199.379C151.775 199.219 151.821 199.049 151.821 198.872V198.273C151.793 198.306 151.732 198.337 151.638 198.364C151.545 198.39 151.438 198.413 151.316 198.434C151.196 198.452 151.078 198.469 150.964 198.484C150.851 198.497 150.759 198.508 150.689 198.517C150.519 198.539 150.36 198.575 150.212 198.625C150.066 198.673 149.948 198.746 149.857 198.844C149.768 198.94 149.724 199.072 149.724 199.238C149.724 199.465 149.808 199.637 149.976 199.754C150.146 199.869 150.362 199.926 150.623 199.926ZM154.325 194.734V200.414H153.67V194.734H154.325ZM156.178 194.734V200.414H155.524V194.734H156.178Z" fill="white"/>
</g>
<defs>
<filter id="filter0_d_9473_9094" x="18.6397" y="4.81987" width="235.721" height="211.947" filterUnits="userSpaceOnUse" color-interpolation-filters="sRGB">
<feFlood flood-opacity="0" result="BackgroundImageFix"/>
<feColorMatrix in="SourceAlpha" type="matrix" values="0 0 0 0 0 0 0 0 0 0 0 0 0 0 0 0 0 0 127 0" result="hardAlpha"/>
<feOffset dy="2.18013"/>
<feGaussianBlur stdDeviation="2.18013"/>
<feComposite in2="hardAlpha" operator="out"/>
<feColorMatrix type="matrix" values="0 0 0 0 0 0 0 0 0 0 0 0 0 0 0 0 0 0 0.15 0"/>
<feBlend mode="normal" in2="BackgroundImageFix" result="effect1_dropShadow_9473_9094"/>
<feBlend mode="normal" in="SourceGraphic" in2="effect1_dropShadow_9473_9094" result="shape"/>
</filter>
</defs>
</svg>
