<svg width="442" height="320" viewBox="0 0 442 320" fill="none" xmlns="http://www.w3.org/2000/svg">
<path fill-rule="evenodd" clip-rule="evenodd" d="M219.632 28.9778C255.113 34.5213 288.124 55.1917 305.898 86.3348C322.65 115.687 316.462 151.075 307.965 183.749C300.155 213.784 285.949 241.696 260.764 259.893C234.764 278.681 203.061 284.102 170.971 282.738C131.648 281.067 87.1839 281.453 61.7843 251.437C35.0048 219.79 31.9048 172.665 44.446 133.216C55.8938 97.206 90.8217 77.1601 123.339 57.8118C153.255 40.0113 185.199 23.598 219.632 28.9778Z" fill="#FCF7FF"/>
<g filter="url(#filter0_dd_624_325)">
<rect x="194.286" y="49.5238" width="207.619" height="246.043" rx="10.0851" fill="white"/>
<circle cx="249.048" cy="79.9999" r="14.7619" fill="#F8F8F8" stroke="#EBEBEB" stroke-width="0.952381"/>
<rect x="246.06" y="72.8291" width="5.97572" height="5.97572" fill="#BCBABA"/>
<rect x="252.036" y="78.8048" width="5.97572" height="5.97572" fill="#BCBABA"/>
<rect x="240.084" y="78.8048" width="5.97572" height="5.97572" fill="#BCBABA"/>
<path d="M280.956 75.478C281.116 75.478 281.238 75.5285 281.322 75.6293C281.414 75.7218 281.461 75.8478 281.461 76.0075V83.9874C281.461 84.1386 281.419 84.2605 281.334 84.353C281.25 84.4454 281.133 84.4916 280.981 84.4916C280.83 84.4916 280.717 84.4454 280.641 84.353C280.565 84.2605 280.528 84.1386 280.528 83.9874V77.5455L277.792 82.7898C277.674 83.0335 277.502 83.1553 277.275 83.1553C277.057 83.1553 276.884 83.0335 276.758 82.7898L274.01 77.6085V83.9874C274.01 84.1386 273.968 84.2605 273.884 84.353C273.808 84.4454 273.695 84.4916 273.544 84.4916C273.392 84.4916 273.275 84.4454 273.191 84.353C273.107 84.2605 273.065 84.1386 273.065 83.9874V76.0075C273.065 75.8478 273.111 75.7218 273.203 75.6293C273.296 75.5285 273.422 75.478 273.582 75.478C273.792 75.478 273.96 75.5999 274.086 75.8436L277.288 81.9829L280.452 75.8436C280.519 75.7092 280.591 75.6167 280.666 75.5663C280.75 75.5075 280.847 75.478 280.956 75.478ZM286.06 84.5168C285.48 84.5168 284.967 84.3866 284.522 84.126C284.085 83.8655 283.744 83.4957 283.501 83.0167C283.265 82.5292 283.148 81.9661 283.148 81.3274C283.148 80.6887 283.265 80.1298 283.501 79.6508C283.744 79.1633 284.085 78.7893 284.522 78.5288C284.967 78.2683 285.48 78.138 286.06 78.138C286.639 78.138 287.152 78.2683 287.598 78.5288C288.043 78.7893 288.383 79.1633 288.619 79.6508C288.862 80.1298 288.984 80.6887 288.984 81.3274C288.984 81.9661 288.862 82.5292 288.619 83.0167C288.383 83.4957 288.043 83.8655 287.598 84.126C287.152 84.3866 286.639 84.5168 286.06 84.5168ZM286.06 83.6722C286.665 83.6722 287.127 83.4747 287.446 83.0797C287.774 82.6763 287.938 82.0922 287.938 81.3274C287.938 80.5794 287.774 80.0037 287.446 79.6003C287.119 79.1885 286.656 78.9826 286.06 78.9826C285.463 78.9826 285.001 79.1885 284.673 79.6003C284.345 80.0037 284.181 80.5794 284.181 81.3274C284.181 82.0838 284.341 82.6637 284.66 83.0671C284.988 83.4705 285.454 83.6722 286.06 83.6722ZM293.607 78.138C294.33 78.138 294.876 78.3439 295.246 78.7557C295.616 79.1591 295.8 79.7642 295.8 80.571V83.9874C295.8 84.147 295.754 84.2731 295.662 84.3656C295.569 84.4496 295.447 84.4916 295.296 84.4916C295.136 84.4916 295.01 84.4496 294.918 84.3656C294.826 84.2731 294.779 84.147 294.779 83.9874V80.5962C294.779 80.05 294.666 79.6466 294.439 79.386C294.22 79.1255 293.867 78.9952 293.38 78.9952C292.817 78.9952 292.367 79.1675 292.031 79.5121C291.695 79.8567 291.527 80.3231 291.527 80.9114V83.9874C291.527 84.147 291.481 84.2731 291.388 84.3656C291.304 84.4496 291.182 84.4916 291.023 84.4916C290.863 84.4916 290.737 84.4496 290.644 84.3656C290.552 84.2731 290.506 84.147 290.506 83.9874V75.9697C290.506 75.8268 290.552 75.7092 290.644 75.6167C290.745 75.5243 290.871 75.478 291.023 75.478C291.182 75.478 291.304 75.5243 291.388 75.6167C291.481 75.7008 291.527 75.8184 291.527 75.9697V79.2726C291.729 78.9028 292.01 78.6212 292.371 78.4279C292.733 78.2346 293.145 78.138 293.607 78.138ZM298.188 84.4916C298.036 84.4916 297.91 84.4496 297.809 84.3656C297.717 84.2731 297.671 84.147 297.671 83.9874V78.6675C297.671 78.5078 297.717 78.3859 297.809 78.3019C297.91 78.2094 298.036 78.1632 298.188 78.1632C298.339 78.1632 298.461 78.2094 298.553 78.3019C298.646 78.3859 298.692 78.5078 298.692 78.6675V83.9874C298.692 84.1555 298.646 84.2815 298.553 84.3656C298.461 84.4496 298.339 84.4916 298.188 84.4916ZM298.188 76.8395C297.986 76.8395 297.822 76.7807 297.696 76.6631C297.57 76.5454 297.507 76.3899 297.507 76.1966C297.507 76.0117 297.57 75.8604 297.696 75.7428C297.822 75.6251 297.986 75.5663 298.188 75.5663C298.389 75.5663 298.553 75.6251 298.679 75.7428C298.805 75.8604 298.868 76.0117 298.868 76.1966C298.868 76.3899 298.805 76.5454 298.679 76.6631C298.553 76.7807 298.389 76.8395 298.188 76.8395ZM303.536 83.6848C303.83 83.71 303.977 83.8445 303.977 84.0882C303.977 84.2311 303.922 84.3403 303.813 84.416C303.712 84.4832 303.557 84.5084 303.347 84.4916L303.006 84.4664C302.334 84.416 301.838 84.2143 301.519 83.8613C301.199 83.5083 301.04 82.9747 301.04 82.2603V79.0961H300.195C300.052 79.0961 299.939 79.0625 299.855 78.9952C299.779 78.9196 299.741 78.8229 299.741 78.7053C299.741 78.5792 299.779 78.4784 299.855 78.4027C299.939 78.3271 300.052 78.2893 300.195 78.2893H301.04V76.8648C301.04 76.7051 301.086 76.5832 301.178 76.4992C301.271 76.4067 301.397 76.3605 301.556 76.3605C301.708 76.3605 301.83 76.4067 301.922 76.4992C302.014 76.5832 302.061 76.7051 302.061 76.8648V78.2893H303.46C303.594 78.2893 303.699 78.3271 303.775 78.4027C303.859 78.4784 303.901 78.5792 303.901 78.7053C303.901 78.8229 303.859 78.9196 303.775 78.9952C303.699 79.0625 303.594 79.0961 303.46 79.0961H302.061V82.3107C302.061 82.7729 302.153 83.1091 302.338 83.3192C302.531 83.5209 302.817 83.6344 303.195 83.6596L303.536 83.6848ZM313.251 86.3448C312.167 86.3448 311.221 86.122 310.414 85.6766C309.608 85.2312 308.986 84.6051 308.549 83.7983C308.12 82.9831 307.906 82.046 307.906 80.987C307.906 79.8777 308.137 78.907 308.599 78.075C309.07 77.2429 309.708 76.6 310.515 76.1462C311.33 75.6924 312.242 75.4654 313.251 75.4654C314.327 75.4654 315.247 75.6882 316.012 76.1336C316.785 76.5706 317.365 77.1421 317.751 77.8481C318.146 78.554 318.344 79.302 318.344 80.092C318.344 80.9156 318.218 81.5922 317.966 82.1216C317.722 82.6427 317.407 83.0251 317.02 83.2688C316.642 83.5041 316.239 83.6218 315.81 83.6218C315.364 83.6218 315.011 83.5251 314.751 83.3318C314.499 83.1301 314.356 82.8528 314.322 82.4998H314.297C314.087 82.8444 313.822 83.1175 313.503 83.3192C313.192 83.5209 312.826 83.6218 312.406 83.6218C311.851 83.6218 311.402 83.4285 311.057 83.0419C310.713 82.6469 310.54 82.1048 310.54 81.4157C310.54 80.8442 310.65 80.3063 310.868 79.802C311.095 79.2978 311.41 78.8944 311.814 78.5918C312.217 78.2893 312.679 78.138 313.2 78.138C313.595 78.138 313.94 78.2346 314.234 78.4279C314.528 78.6128 314.722 78.8566 314.814 79.1591H314.827L314.927 78.6044C314.944 78.5036 314.99 78.4237 315.066 78.3649C315.142 78.3061 315.234 78.2767 315.343 78.2767C315.486 78.2767 315.591 78.3229 315.659 78.4153C315.726 78.4994 315.747 78.6128 315.722 78.7557L315.205 81.7056C315.171 81.9409 315.154 82.0922 315.154 82.1594C315.154 82.4452 315.222 82.6469 315.356 82.7645C315.491 82.8822 315.692 82.941 315.961 82.941C316.196 82.941 316.436 82.8486 316.68 82.6637C316.923 82.4704 317.129 82.1636 317.297 81.7434C317.466 81.3148 317.55 80.7643 317.55 80.092C317.55 79.4281 317.39 78.8019 317.071 78.2136C316.751 77.6253 316.268 77.1505 315.621 76.7891C314.974 76.4193 314.184 76.2344 313.251 76.2344C312.394 76.2344 311.62 76.4277 310.931 76.8143C310.25 77.1925 309.713 77.743 309.318 78.4658C308.923 79.1801 308.725 80.0206 308.725 80.987C308.725 81.9115 308.906 82.7225 309.267 83.4201C309.629 84.1092 310.15 84.6387 310.83 85.0085C311.511 85.3867 312.318 85.5758 313.251 85.5758C314.528 85.5758 315.524 85.2312 316.239 84.542C316.356 84.4328 316.478 84.3782 316.604 84.3782C316.705 84.3782 316.789 84.416 316.856 84.4916C316.923 84.5673 316.957 84.6597 316.957 84.769C316.957 84.9034 316.907 85.0169 316.806 85.1093C316.428 85.4875 315.928 85.7859 315.306 86.0044C314.692 86.2313 314.007 86.3448 313.251 86.3448ZM312.57 82.941C312.99 82.941 313.352 82.815 313.654 82.5628C313.965 82.3023 314.2 81.9703 314.36 81.5669C314.52 81.1635 314.6 80.7391 314.6 80.2937C314.6 79.8231 314.482 79.4659 314.247 79.2221C314.02 78.97 313.709 78.844 313.314 78.844C312.91 78.844 312.557 78.9658 312.255 79.2095C311.961 79.4533 311.734 79.7726 311.574 80.1676C311.423 80.5542 311.347 80.9576 311.347 81.3778C311.347 81.8737 311.465 82.2603 311.7 82.5376C311.936 82.8066 312.225 82.941 312.57 82.941ZM326.838 83.7857C326.897 83.8781 326.926 83.9748 326.926 84.0756C326.926 84.2017 326.876 84.3067 326.775 84.3908C326.682 84.4664 326.573 84.5042 326.447 84.5042C326.254 84.5042 326.102 84.4202 325.993 84.2521L324.304 81.5795C324.085 81.235 323.858 80.9996 323.623 80.8736C323.388 80.7391 323.068 80.6719 322.665 80.6719H321.077V83.9622C321.077 84.1218 321.03 84.2521 320.938 84.353C320.845 84.4454 320.724 84.4916 320.572 84.4916C320.413 84.4916 320.287 84.4454 320.194 84.353C320.102 84.2521 320.055 84.1218 320.055 83.9622V76.0453C320.055 75.8941 320.102 75.7722 320.194 75.6798C320.295 75.5873 320.425 75.5411 320.585 75.5411H323.711C324.678 75.5411 325.413 75.7554 325.917 76.184C326.43 76.6126 326.686 77.2429 326.686 78.075C326.686 78.7809 326.481 79.3482 326.069 79.7768C325.665 80.2054 325.085 80.466 324.329 80.5584C324.539 80.6257 324.728 80.7349 324.896 80.8862C325.064 81.0375 325.233 81.2476 325.401 81.5165L326.838 83.7857ZM323.623 79.8146C324.312 79.8146 324.825 79.6718 325.161 79.386C325.506 79.1003 325.678 78.6675 325.678 78.0876C325.678 77.5161 325.51 77.0917 325.174 76.8143C324.838 76.537 324.321 76.3983 323.623 76.3983H321.077V79.8146H323.623ZM331.043 78.138C332.581 78.138 333.35 78.9448 333.35 80.5584V83.9874C333.35 84.1386 333.304 84.2605 333.211 84.353C333.127 84.4454 333.009 84.4916 332.858 84.4916C332.707 84.4916 332.585 84.4454 332.493 84.353C332.4 84.2605 332.354 84.1386 332.354 83.9874V83.3823C332.194 83.7436 331.951 84.0252 331.623 84.2269C331.295 84.4202 330.917 84.5168 330.488 84.5168C330.093 84.5168 329.728 84.437 329.391 84.2773C329.064 84.1176 328.803 83.8949 328.61 83.6092C328.417 83.3234 328.32 83.0083 328.32 82.6637C328.32 82.2015 328.438 81.8443 328.673 81.5922C328.908 81.3316 329.295 81.1467 329.833 81.0375C330.371 80.9198 331.118 80.861 332.077 80.861H332.354V80.445C332.354 79.9407 332.249 79.5709 332.039 79.3356C331.837 79.1003 331.505 78.9826 331.043 78.9826C330.471 78.9826 329.891 79.1381 329.303 79.4491C329.076 79.5919 328.917 79.6634 328.824 79.6634C328.723 79.6634 328.639 79.6256 328.572 79.5499C328.505 79.4743 328.471 79.3776 328.471 79.26C328.471 79.1423 328.505 79.0415 328.572 78.9574C328.648 78.865 328.765 78.7725 328.925 78.6801C329.219 78.512 329.551 78.3817 329.921 78.2893C330.299 78.1884 330.673 78.138 331.043 78.138ZM330.627 83.71C331.131 83.71 331.543 83.5419 331.862 83.2058C332.19 82.8612 332.354 82.42 332.354 81.8821V81.5165H332.127C331.387 81.5165 330.824 81.5501 330.438 81.6174C330.051 81.6762 329.774 81.7812 329.606 81.9325C329.446 82.0754 329.366 82.2897 329.366 82.5754C329.366 82.9032 329.484 83.1764 329.719 83.3949C329.963 83.605 330.265 83.71 330.627 83.71ZM342.052 78.138C343.413 78.138 344.094 78.949 344.094 80.571V83.9874C344.094 84.147 344.048 84.2731 343.955 84.3656C343.863 84.4496 343.741 84.4916 343.59 84.4916C343.438 84.4916 343.312 84.4496 343.211 84.3656C343.119 84.2731 343.073 84.147 343.073 83.9874V80.5962C343.073 80.0332 342.972 79.6256 342.77 79.3734C342.569 79.1213 342.253 78.9952 341.825 78.9952C341.312 78.9952 340.909 79.1675 340.615 79.5121C340.32 79.8567 340.173 80.3231 340.173 80.9114V83.9874C340.173 84.147 340.123 84.2731 340.022 84.3656C339.93 84.4496 339.808 84.4916 339.656 84.4916C339.505 84.4916 339.383 84.4496 339.291 84.3656C339.198 84.2731 339.152 84.147 339.152 83.9874V80.5962C339.152 80.0332 339.051 79.6256 338.85 79.3734C338.648 79.1213 338.329 78.9952 337.892 78.9952C337.387 78.9952 336.984 79.1675 336.681 79.5121C336.387 79.8567 336.24 80.3231 336.24 80.9114V83.9874C336.24 84.147 336.194 84.2731 336.101 84.3656C336.009 84.4496 335.887 84.4916 335.736 84.4916C335.585 84.4916 335.459 84.4496 335.358 84.3656C335.265 84.2731 335.219 84.147 335.219 83.9874V78.6675C335.219 78.5162 335.265 78.3943 335.358 78.3019C335.459 78.2094 335.585 78.1632 335.736 78.1632C335.879 78.1632 335.996 78.2094 336.089 78.3019C336.181 78.3859 336.228 78.5036 336.228 78.6549V79.26C336.412 78.8986 336.669 78.6212 336.997 78.4279C337.324 78.2346 337.702 78.138 338.131 78.138C339.089 78.138 339.715 78.5414 340.009 79.3482C340.186 78.9784 340.455 78.6843 340.816 78.4658C341.178 78.2473 341.589 78.138 342.052 78.138ZM346.471 84.4916C346.32 84.4916 346.194 84.4496 346.093 84.3656C346 84.2731 345.954 84.147 345.954 83.9874V78.6675C345.954 78.5078 346 78.3859 346.093 78.3019C346.194 78.2094 346.32 78.1632 346.471 78.1632C346.622 78.1632 346.744 78.2094 346.837 78.3019C346.929 78.3859 346.975 78.5078 346.975 78.6675V83.9874C346.975 84.1555 346.929 84.2815 346.837 84.3656C346.744 84.4496 346.622 84.4916 346.471 84.4916ZM346.471 76.8395C346.269 76.8395 346.105 76.7807 345.979 76.6631C345.853 76.5454 345.79 76.3899 345.79 76.1966C345.79 76.0117 345.853 75.8604 345.979 75.7428C346.105 75.6251 346.269 75.5663 346.471 75.5663C346.673 75.5663 346.837 75.6251 346.963 75.7428C347.089 75.8604 347.152 76.0117 347.152 76.1966C347.152 76.3899 347.089 76.5454 346.963 76.6631C346.837 76.7807 346.673 76.8395 346.471 76.8395ZM353.864 78.1632C354.023 78.1632 354.149 78.2094 354.242 78.3019C354.334 78.3943 354.381 78.5162 354.381 78.6675V84.0126C354.381 84.9286 354.145 85.6178 353.675 86.08C353.204 86.5507 352.506 86.786 351.582 86.786C350.683 86.786 349.935 86.6095 349.338 86.2565C349.035 86.0884 348.884 85.8951 348.884 85.6766C348.884 85.559 348.914 85.4623 348.972 85.3867C349.04 85.311 349.124 85.2732 349.225 85.2732C349.309 85.2732 349.46 85.332 349.678 85.4497C349.972 85.601 350.262 85.7228 350.548 85.8153C350.834 85.9077 351.174 85.954 351.569 85.954C352.166 85.954 352.616 85.7943 352.918 85.4749C353.221 85.164 353.372 84.7059 353.372 84.1008V83.0167C353.196 83.4117 352.922 83.7142 352.553 83.9243C352.191 84.1344 351.763 84.2395 351.267 84.2395C350.729 84.2395 350.25 84.1134 349.83 83.8613C349.418 83.6092 349.094 83.252 348.859 82.7898C348.632 82.3275 348.519 81.7939 348.519 81.1887C348.519 80.5836 348.632 80.05 348.859 79.5877C349.094 79.1255 349.418 78.7683 349.83 78.5162C350.25 78.2641 350.729 78.138 351.267 78.138C351.754 78.138 352.179 78.2431 352.54 78.4532C352.901 78.6633 353.175 78.9616 353.359 79.3482V78.6675C353.359 78.5162 353.401 78.3943 353.485 78.3019C353.578 78.2094 353.704 78.1632 353.864 78.1632ZM351.468 83.3949C352.057 83.3949 352.519 83.2016 352.855 82.815C353.191 82.42 353.359 81.8779 353.359 81.1887C353.359 80.508 353.191 79.9743 352.855 79.5877C352.527 79.1927 352.065 78.9952 351.468 78.9952C350.872 78.9952 350.401 79.1927 350.057 79.5877C349.72 79.9743 349.552 80.508 349.552 81.1887C349.552 81.8779 349.72 82.42 350.057 82.815C350.401 83.2016 350.872 83.3949 351.468 83.3949ZM358.817 84.5168C358.237 84.5168 357.725 84.3866 357.279 84.126C356.842 83.8655 356.502 83.4957 356.258 83.0167C356.023 82.5292 355.905 81.9661 355.905 81.3274C355.905 80.6887 356.023 80.1298 356.258 79.6508C356.502 79.1633 356.842 78.7893 357.279 78.5288C357.725 78.2683 358.237 78.138 358.817 78.138C359.397 78.138 359.91 78.2683 360.355 78.5288C360.801 78.7893 361.141 79.1633 361.376 79.6508C361.62 80.1298 361.742 80.6887 361.742 81.3274C361.742 81.9661 361.62 82.5292 361.376 83.0167C361.141 83.4957 360.801 83.8655 360.355 84.126C359.91 84.3866 359.397 84.5168 358.817 84.5168ZM358.817 83.6722C359.422 83.6722 359.885 83.4747 360.204 83.0797C360.532 82.6763 360.696 82.0922 360.696 81.3274C360.696 80.5794 360.532 80.0037 360.204 79.6003C359.876 79.1885 359.414 78.9826 358.817 78.9826C358.22 78.9826 357.758 79.1885 357.43 79.6003C357.103 80.0037 356.939 80.5794 356.939 81.3274C356.939 82.0838 357.099 82.6637 357.418 83.0671C357.746 83.4705 358.212 83.6722 358.817 83.6722Z" fill="black"/>
<path d="M259.026 138.619C258.588 138.619 258.226 138.486 257.94 138.219C257.673 137.933 257.54 137.571 257.54 137.133V120.79H251.826C250.911 120.79 250.454 120.381 250.454 119.562C250.454 119.162 250.569 118.857 250.797 118.648C251.045 118.438 251.388 118.333 251.826 118.333H266.226C266.664 118.333 266.997 118.438 267.226 118.648C267.473 118.857 267.597 119.162 267.597 119.562C267.597 120.381 267.14 120.79 266.226 120.79H260.511V137.133C260.511 137.571 260.378 137.933 260.111 138.219C259.845 138.486 259.483 138.619 259.026 138.619ZM278.802 124.19C282.116 124.19 283.773 126.067 283.773 129.819V137.248C283.773 137.667 283.64 138 283.373 138.248C283.106 138.495 282.754 138.619 282.316 138.619C281.878 138.619 281.525 138.495 281.259 138.248C281.011 138 280.887 137.667 280.887 137.248V129.848C280.887 128.705 280.649 127.867 280.173 127.333C279.716 126.8 278.992 126.533 278.002 126.533C276.84 126.533 275.906 126.895 275.202 127.619C274.497 128.343 274.144 129.314 274.144 130.533V137.248C274.144 137.667 274.011 138 273.744 138.248C273.497 138.495 273.154 138.619 272.716 138.619C272.278 138.619 271.925 138.495 271.659 138.248C271.392 138 271.259 137.667 271.259 137.248V119.562C271.259 119.143 271.392 118.81 271.659 118.562C271.944 118.314 272.306 118.19 272.744 118.19C273.164 118.19 273.497 118.314 273.744 118.562C274.011 118.79 274.144 119.105 274.144 119.505V126.648C274.621 125.848 275.259 125.238 276.059 124.819C276.859 124.4 277.773 124.19 278.802 124.19ZM293.578 124.19C295.426 124.19 296.797 124.657 297.692 125.59C298.607 126.524 299.064 127.943 299.064 129.848V137.248C299.064 137.686 298.94 138.029 298.692 138.276C298.445 138.505 298.102 138.619 297.664 138.619C297.245 138.619 296.911 138.495 296.664 138.248C296.416 138 296.292 137.667 296.292 137.248V136.19C295.93 136.99 295.387 137.61 294.664 138.048C293.959 138.467 293.13 138.676 292.178 138.676C291.264 138.676 290.426 138.495 289.664 138.133C288.921 137.752 288.33 137.238 287.892 136.59C287.454 135.943 287.235 135.21 287.235 134.39C287.216 133.362 287.473 132.562 288.007 131.99C288.54 131.4 289.407 130.981 290.607 130.733C291.807 130.467 293.473 130.333 295.607 130.333H296.264V129.505C296.264 128.438 296.045 127.667 295.607 127.19C295.168 126.714 294.464 126.476 293.492 126.476C292.826 126.476 292.197 126.562 291.607 126.733C291.016 126.905 290.368 127.152 289.664 127.476C289.149 127.762 288.787 127.905 288.578 127.905C288.292 127.905 288.054 127.8 287.864 127.59C287.692 127.381 287.607 127.114 287.607 126.79C287.607 126.505 287.683 126.257 287.835 126.048C288.007 125.819 288.273 125.6 288.635 125.39C289.302 125.029 290.083 124.743 290.978 124.533C291.873 124.305 292.74 124.19 293.578 124.19ZM292.692 136.533C293.74 136.533 294.597 136.181 295.264 135.476C295.93 134.752 296.264 133.829 296.264 132.705V131.962H295.749C294.264 131.962 293.121 132.029 292.321 132.162C291.521 132.295 290.949 132.524 290.607 132.848C290.264 133.152 290.092 133.6 290.092 134.19C290.092 134.876 290.34 135.438 290.835 135.876C291.33 136.314 291.949 136.533 292.692 136.533ZM310.525 124.19C313.859 124.19 315.525 126.067 315.525 129.819V137.248C315.525 137.686 315.392 138.029 315.125 138.276C314.878 138.505 314.525 138.619 314.068 138.619C313.63 138.619 313.278 138.495 313.011 138.248C312.763 138 312.64 137.667 312.64 137.248V129.962C312.64 128.781 312.401 127.914 311.925 127.362C311.468 126.81 310.744 126.533 309.754 126.533C308.592 126.533 307.659 126.895 306.954 127.619C306.249 128.343 305.897 129.314 305.897 130.533V137.248C305.897 137.667 305.763 138 305.497 138.248C305.249 138.495 304.906 138.619 304.468 138.619C304.03 138.619 303.678 138.495 303.411 138.248C303.144 138 303.011 137.667 303.011 137.248V125.619C303.011 125.219 303.144 124.895 303.411 124.648C303.697 124.381 304.049 124.248 304.468 124.248C304.887 124.248 305.22 124.371 305.468 124.619C305.716 124.867 305.84 125.19 305.84 125.59V126.762C306.297 125.924 306.935 125.286 307.754 124.848C308.573 124.41 309.497 124.19 310.525 124.19ZM331.187 136.219C331.53 136.505 331.702 136.857 331.702 137.276C331.702 137.638 331.578 137.952 331.33 138.219C331.083 138.486 330.787 138.619 330.444 138.619C330.083 138.619 329.759 138.486 329.473 138.219L322.359 131.933V137.219C322.359 137.676 322.225 138.029 321.959 138.276C321.692 138.505 321.349 138.619 320.93 138.619C320.511 138.619 320.159 138.505 319.873 138.276C319.606 138.029 319.473 137.676 319.473 137.219V119.59C319.473 119.133 319.606 118.79 319.873 118.562C320.159 118.314 320.511 118.19 320.93 118.19C321.349 118.19 321.692 118.314 321.959 118.562C322.225 118.79 322.359 119.133 322.359 119.59V130.79L328.873 124.705C329.197 124.419 329.511 124.276 329.816 124.276C330.178 124.276 330.492 124.41 330.759 124.676C331.025 124.943 331.159 125.257 331.159 125.619C331.159 125.981 330.997 126.314 330.673 126.619L325.587 131.276L331.187 136.219ZM338.867 138.676C336.924 138.676 335.334 138.276 334.096 137.476C333.753 137.267 333.505 137.048 333.353 136.819C333.219 136.59 333.153 136.333 333.153 136.048C333.153 135.743 333.238 135.486 333.41 135.276C333.581 135.067 333.8 134.962 334.067 134.962C334.315 134.962 334.705 135.114 335.238 135.419C335.81 135.724 336.362 135.971 336.896 136.162C337.448 136.352 338.134 136.448 338.953 136.448C339.867 136.448 340.581 136.286 341.096 135.962C341.61 135.638 341.867 135.181 341.867 134.59C341.867 134.21 341.762 133.905 341.553 133.676C341.362 133.448 341.019 133.248 340.524 133.076C340.029 132.886 339.296 132.686 338.324 132.476C336.648 132.114 335.438 131.629 334.696 131.019C333.972 130.39 333.61 129.543 333.61 128.476C333.61 127.657 333.848 126.924 334.324 126.276C334.8 125.61 335.457 125.095 336.296 124.733C337.134 124.371 338.086 124.19 339.153 124.19C339.915 124.19 340.657 124.295 341.381 124.505C342.105 124.695 342.743 124.981 343.296 125.362C343.924 125.781 344.238 126.267 344.238 126.819C344.238 127.124 344.143 127.381 343.953 127.59C343.781 127.8 343.572 127.905 343.324 127.905C343.153 127.905 342.981 127.867 342.81 127.79C342.638 127.714 342.41 127.59 342.124 127.419C341.61 127.114 341.124 126.876 340.667 126.705C340.229 126.533 339.677 126.448 339.01 126.448C338.21 126.448 337.562 126.619 337.067 126.962C336.591 127.305 336.353 127.771 336.353 128.362C336.353 128.895 336.572 129.314 337.01 129.619C337.467 129.905 338.315 130.181 339.553 130.448C340.829 130.714 341.829 131.019 342.553 131.362C343.277 131.705 343.791 132.133 344.096 132.648C344.419 133.143 344.581 133.781 344.581 134.562C344.581 135.8 344.057 136.8 343.01 137.562C341.981 138.305 340.6 138.676 338.867 138.676Z" fill="black"/>
<rect x="251.133" y="164.466" width="93.9245" height="65.6814" rx="4.5977" stroke="#BCBABA" stroke-width="1.31363" stroke-linecap="round" stroke-dasharray="6.57 6.57"/>
<path d="M233.59 250.53C233.688 250.407 233.806 250.346 233.945 250.346C234.06 250.346 234.162 250.391 234.252 250.481C234.342 250.571 234.387 250.681 234.387 250.812C234.387 250.934 234.35 251.037 234.276 251.118L231.296 254.884V258.589C231.296 258.752 231.247 258.879 231.148 258.969C231.058 259.059 230.94 259.104 230.793 259.104C230.646 259.104 230.523 259.059 230.425 258.969C230.335 258.879 230.29 258.752 230.29 258.589V254.872L227.309 251.118C227.227 251.029 227.186 250.926 227.186 250.812C227.186 250.681 227.231 250.571 227.321 250.481C227.419 250.391 227.53 250.346 227.652 250.346C227.791 250.346 227.91 250.407 228.008 250.53L230.805 254.099L233.59 250.53ZM236.943 259.129C236.379 259.129 235.88 259.002 235.447 258.748C235.022 258.495 234.69 258.135 234.453 257.669C234.224 257.195 234.11 256.647 234.11 256.025C234.11 255.404 234.224 254.86 234.453 254.394C234.69 253.919 235.022 253.555 235.447 253.302C235.88 253.048 236.379 252.922 236.943 252.922C237.508 252.922 238.007 253.048 238.44 253.302C238.873 253.555 239.205 253.919 239.434 254.394C239.671 254.86 239.789 255.404 239.789 256.025C239.789 256.647 239.671 257.195 239.434 257.669C239.205 258.135 238.873 258.495 238.44 258.748C238.007 259.002 237.508 259.129 236.943 259.129ZM236.943 258.307C237.532 258.307 237.982 258.115 238.293 257.73C238.612 257.338 238.771 256.769 238.771 256.025C238.771 255.297 238.612 254.737 238.293 254.345C237.974 253.944 237.524 253.744 236.943 253.744C236.363 253.744 235.913 253.944 235.594 254.345C235.275 254.737 235.116 255.297 235.116 256.025C235.116 256.761 235.271 257.325 235.582 257.718C235.901 258.11 236.355 258.307 236.943 258.307ZM245.808 252.946C245.964 252.946 246.082 252.991 246.164 253.081C246.254 253.171 246.299 253.29 246.299 253.437V258.626C246.299 258.765 246.254 258.879 246.164 258.969C246.082 259.059 245.964 259.104 245.808 259.104C245.661 259.104 245.543 259.063 245.453 258.981C245.371 258.891 245.33 258.777 245.33 258.638V258.025C245.142 258.384 244.876 258.658 244.533 258.846C244.197 259.035 243.817 259.129 243.392 259.129C242.68 259.129 242.145 258.932 241.785 258.54C241.425 258.139 241.245 257.55 241.245 256.773V253.437C241.245 253.29 241.29 253.171 241.38 253.081C241.47 252.991 241.593 252.946 241.748 252.946C241.903 252.946 242.022 252.991 242.104 253.081C242.194 253.171 242.239 253.29 242.239 253.437V256.749C242.239 257.28 242.345 257.673 242.558 257.926C242.77 258.172 243.106 258.294 243.564 258.294C244.087 258.294 244.508 258.127 244.827 257.792C245.146 257.448 245.305 256.998 245.305 256.442V253.437C245.305 253.29 245.35 253.171 245.44 253.081C245.53 252.991 245.653 252.946 245.808 252.946ZM251.102 252.946C251.445 252.922 251.617 253.061 251.617 253.363C251.617 253.494 251.58 253.6 251.507 253.682C251.433 253.756 251.306 253.801 251.127 253.817L250.759 253.854C250.211 253.903 249.802 254.099 249.532 254.443C249.27 254.778 249.139 255.175 249.139 255.633V258.613C249.139 258.777 249.094 258.9 249.004 258.981C248.914 259.063 248.796 259.104 248.649 259.104C248.501 259.104 248.379 259.063 248.281 258.981C248.191 258.891 248.146 258.769 248.146 258.613V253.437C248.146 253.281 248.195 253.163 248.293 253.081C248.391 252.991 248.51 252.946 248.649 252.946C248.78 252.946 248.89 252.991 248.98 253.081C249.07 253.163 249.115 253.277 249.115 253.425V254.112C249.287 253.752 249.528 253.478 249.839 253.29C250.157 253.102 250.521 252.991 250.93 252.958L251.102 252.946ZM257.644 259.129C257.268 259.129 256.908 259.084 256.565 258.994C256.23 258.904 255.931 258.777 255.67 258.613C255.522 258.515 255.416 258.425 255.351 258.344C255.293 258.254 255.265 258.147 255.265 258.025C255.265 257.918 255.293 257.832 255.351 257.767C255.416 257.693 255.498 257.657 255.596 257.657C255.694 257.657 255.837 257.718 256.025 257.841C256.271 257.988 256.512 258.106 256.749 258.196C256.994 258.278 257.297 258.319 257.657 258.319C258.098 258.319 258.442 258.241 258.687 258.086C258.932 257.931 259.055 257.706 259.055 257.411C259.055 257.231 259.01 257.088 258.92 256.982C258.83 256.867 258.675 256.769 258.454 256.688C258.233 256.598 257.91 256.508 257.485 256.418C256.765 256.262 256.25 256.054 255.939 255.792C255.629 255.53 255.473 255.175 255.473 254.725C255.473 254.373 255.571 254.062 255.768 253.793C255.964 253.523 256.234 253.31 256.577 253.155C256.929 252.999 257.326 252.922 257.767 252.922C258.086 252.922 258.393 252.967 258.687 253.057C258.99 253.138 259.255 253.257 259.484 253.412C259.762 253.609 259.902 253.813 259.902 254.026C259.902 254.132 259.869 254.222 259.803 254.296C259.738 254.369 259.66 254.406 259.57 254.406C259.472 254.406 259.325 254.336 259.129 254.197C258.9 254.05 258.683 253.936 258.479 253.854C258.274 253.772 258.021 253.731 257.718 253.731C257.334 253.731 257.023 253.817 256.786 253.989C256.557 254.161 256.442 254.39 256.442 254.676C256.442 254.856 256.483 255.003 256.565 255.117C256.655 255.224 256.798 255.322 256.994 255.412C257.199 255.494 257.489 255.575 257.865 255.657C258.421 255.78 258.851 255.915 259.153 256.062C259.464 256.209 259.685 256.389 259.816 256.602C259.946 256.814 260.012 257.084 260.012 257.411C260.012 257.926 259.795 258.344 259.362 258.662C258.928 258.973 258.356 259.129 257.644 259.129ZM266.065 252.946C266.221 252.946 266.339 252.991 266.421 253.081C266.511 253.171 266.556 253.29 266.556 253.437V258.626C266.556 258.765 266.511 258.879 266.421 258.969C266.339 259.059 266.221 259.104 266.065 259.104C265.918 259.104 265.799 259.063 265.709 258.981C265.628 258.891 265.587 258.777 265.587 258.638V258.025C265.399 258.384 265.133 258.658 264.789 258.846C264.454 259.035 264.074 259.129 263.649 259.129C262.937 259.129 262.401 258.932 262.042 258.54C261.682 258.139 261.502 257.55 261.502 256.773V253.437C261.502 253.29 261.547 253.171 261.637 253.081C261.727 252.991 261.849 252.946 262.005 252.946C262.16 252.946 262.279 252.991 262.361 253.081C262.451 253.171 262.496 253.29 262.496 253.437V256.749C262.496 257.28 262.602 257.673 262.814 257.926C263.027 258.172 263.362 258.294 263.82 258.294C264.344 258.294 264.765 258.127 265.084 257.792C265.403 257.448 265.562 256.998 265.562 256.442V253.437C265.562 253.29 265.607 253.171 265.697 253.081C265.787 252.991 265.91 252.946 266.065 252.946ZM271.408 252.922C271.931 252.922 272.393 253.048 272.794 253.302C273.195 253.555 273.505 253.915 273.726 254.381C273.947 254.848 274.057 255.387 274.057 256.001C274.057 256.622 273.947 257.17 273.726 257.644C273.505 258.11 273.195 258.474 272.794 258.736C272.393 258.998 271.931 259.129 271.408 259.129C270.942 259.129 270.533 259.026 270.181 258.822C269.838 258.617 269.576 258.327 269.396 257.951V258.613C269.396 258.761 269.351 258.879 269.261 258.969C269.179 259.059 269.061 259.104 268.905 259.104C268.75 259.104 268.627 259.059 268.537 258.969C268.447 258.879 268.403 258.761 268.403 258.613V250.812C268.403 250.673 268.447 250.558 268.537 250.468C268.627 250.378 268.75 250.333 268.905 250.333C269.061 250.333 269.179 250.378 269.261 250.468C269.351 250.55 269.396 250.665 269.396 250.812V254.099C269.576 253.723 269.838 253.433 270.181 253.228C270.533 253.024 270.942 252.922 271.408 252.922ZM271.212 258.307C271.792 258.307 272.242 258.106 272.561 257.706C272.88 257.297 273.039 256.728 273.039 256.001C273.039 255.289 272.88 254.737 272.561 254.345C272.242 253.952 271.792 253.756 271.212 253.756C270.631 253.756 270.181 253.952 269.862 254.345C269.551 254.737 269.396 255.297 269.396 256.025C269.396 256.753 269.551 257.317 269.862 257.718C270.181 258.11 270.631 258.307 271.212 258.307ZM282.191 252.922C283.515 252.922 284.178 253.711 284.178 255.289V258.613C284.178 258.769 284.133 258.891 284.043 258.981C283.953 259.063 283.834 259.104 283.687 259.104C283.54 259.104 283.417 259.063 283.319 258.981C283.229 258.891 283.184 258.769 283.184 258.613V255.314C283.184 254.766 283.086 254.369 282.89 254.124C282.694 253.878 282.387 253.756 281.97 253.756C281.471 253.756 281.078 253.923 280.792 254.259C280.506 254.594 280.363 255.048 280.363 255.62V258.613C280.363 258.769 280.314 258.891 280.216 258.981C280.126 259.063 280.007 259.104 279.86 259.104C279.713 259.104 279.594 259.063 279.504 258.981C279.414 258.891 279.369 258.769 279.369 258.613V255.314C279.369 254.766 279.271 254.369 279.075 254.124C278.879 253.878 278.568 253.756 278.143 253.756C277.652 253.756 277.259 253.923 276.965 254.259C276.679 254.594 276.536 255.048 276.536 255.62V258.613C276.536 258.769 276.491 258.891 276.401 258.981C276.311 259.063 276.192 259.104 276.045 259.104C275.898 259.104 275.775 259.063 275.677 258.981C275.587 258.891 275.542 258.769 275.542 258.613V253.437C275.542 253.29 275.587 253.171 275.677 253.081C275.775 252.991 275.898 252.946 276.045 252.946C276.184 252.946 276.299 252.991 276.388 253.081C276.478 253.163 276.523 253.277 276.523 253.425V254.013C276.703 253.662 276.953 253.392 277.272 253.204C277.591 253.016 277.959 252.922 278.376 252.922C279.308 252.922 279.917 253.314 280.203 254.099C280.375 253.739 280.637 253.453 280.988 253.241C281.34 253.028 281.741 252.922 282.191 252.922ZM286.491 259.104C286.344 259.104 286.221 259.063 286.123 258.981C286.033 258.891 285.988 258.769 285.988 258.613V253.437C285.988 253.281 286.033 253.163 286.123 253.081C286.221 252.991 286.344 252.946 286.491 252.946C286.638 252.946 286.757 252.991 286.847 253.081C286.937 253.163 286.982 253.281 286.982 253.437V258.613C286.982 258.777 286.937 258.9 286.847 258.981C286.757 259.063 286.638 259.104 286.491 259.104ZM286.491 251.658C286.295 251.658 286.135 251.601 286.012 251.486C285.89 251.372 285.828 251.221 285.828 251.033C285.828 250.853 285.89 250.705 286.012 250.591C286.135 250.477 286.295 250.419 286.491 250.419C286.687 250.419 286.847 250.477 286.969 250.591C287.092 250.705 287.153 250.853 287.153 251.033C287.153 251.221 287.092 251.372 286.969 251.486C286.847 251.601 286.687 251.658 286.491 251.658ZM290.851 259.129C290.475 259.129 290.115 259.084 289.771 258.994C289.436 258.904 289.137 258.777 288.876 258.613C288.729 258.515 288.622 258.425 288.557 258.344C288.5 258.254 288.471 258.147 288.471 258.025C288.471 257.918 288.5 257.832 288.557 257.767C288.622 257.693 288.704 257.657 288.802 257.657C288.9 257.657 289.043 257.718 289.231 257.841C289.477 257.988 289.718 258.106 289.955 258.196C290.201 258.278 290.503 258.319 290.863 258.319C291.305 258.319 291.648 258.241 291.893 258.086C292.139 257.931 292.261 257.706 292.261 257.411C292.261 257.231 292.216 257.088 292.126 256.982C292.036 256.867 291.881 256.769 291.66 256.688C291.439 256.598 291.116 256.508 290.691 256.418C289.972 256.262 289.456 256.054 289.146 255.792C288.835 255.53 288.679 255.175 288.679 254.725C288.679 254.373 288.778 254.062 288.974 253.793C289.17 253.523 289.44 253.31 289.783 253.155C290.135 252.999 290.532 252.922 290.973 252.922C291.292 252.922 291.599 252.967 291.893 253.057C292.196 253.138 292.462 253.257 292.691 253.412C292.969 253.609 293.108 253.813 293.108 254.026C293.108 254.132 293.075 254.222 293.01 254.296C292.944 254.369 292.867 254.406 292.777 254.406C292.678 254.406 292.531 254.336 292.335 254.197C292.106 254.05 291.889 253.936 291.685 253.854C291.48 253.772 291.227 253.731 290.924 253.731C290.54 253.731 290.229 253.817 289.992 253.989C289.763 254.161 289.649 254.39 289.649 254.676C289.649 254.856 289.689 255.003 289.771 255.117C289.861 255.224 290.004 255.322 290.201 255.412C290.405 255.494 290.695 255.575 291.071 255.657C291.628 255.78 292.057 255.915 292.359 256.062C292.67 256.209 292.891 256.389 293.022 256.602C293.153 256.814 293.218 257.084 293.218 257.411C293.218 257.926 293.001 258.344 292.568 258.662C292.135 258.973 291.562 259.129 290.851 259.129ZM296.744 259.129C296.368 259.129 296.008 259.084 295.665 258.994C295.33 258.904 295.031 258.777 294.77 258.613C294.622 258.515 294.516 258.425 294.451 258.344C294.393 258.254 294.365 258.147 294.365 258.025C294.365 257.918 294.393 257.832 294.451 257.767C294.516 257.693 294.598 257.657 294.696 257.657C294.794 257.657 294.937 257.718 295.125 257.841C295.371 257.988 295.612 258.106 295.849 258.196C296.094 258.278 296.397 258.319 296.757 258.319C297.198 258.319 297.542 258.241 297.787 258.086C298.032 257.931 298.155 257.706 298.155 257.411C298.155 257.231 298.11 257.088 298.02 256.982C297.93 256.867 297.775 256.769 297.554 256.688C297.333 256.598 297.01 256.508 296.585 256.418C295.865 256.262 295.35 256.054 295.039 255.792C294.729 255.53 294.573 255.175 294.573 254.725C294.573 254.373 294.671 254.062 294.868 253.793C295.064 253.523 295.334 253.31 295.677 253.155C296.029 252.999 296.426 252.922 296.867 252.922C297.186 252.922 297.493 252.967 297.787 253.057C298.09 253.138 298.355 253.257 298.584 253.412C298.862 253.609 299.002 253.813 299.002 254.026C299.002 254.132 298.969 254.222 298.903 254.296C298.838 254.369 298.76 254.406 298.67 254.406C298.572 254.406 298.425 254.336 298.229 254.197C298 254.05 297.783 253.936 297.579 253.854C297.374 253.772 297.121 253.731 296.818 253.731C296.434 253.731 296.123 253.817 295.886 253.989C295.657 254.161 295.542 254.39 295.542 254.676C295.542 254.856 295.583 255.003 295.665 255.117C295.755 255.224 295.898 255.322 296.094 255.412C296.299 255.494 296.589 255.575 296.965 255.657C297.521 255.78 297.951 255.915 298.253 256.062C298.564 256.209 298.785 256.389 298.916 256.602C299.046 256.814 299.112 257.084 299.112 257.411C299.112 257.926 298.895 258.344 298.462 258.662C298.028 258.973 297.456 259.129 296.744 259.129ZM301.129 259.104C300.982 259.104 300.86 259.063 300.761 258.981C300.671 258.891 300.626 258.769 300.626 258.613V253.437C300.626 253.281 300.671 253.163 300.761 253.081C300.86 252.991 300.982 252.946 301.129 252.946C301.277 252.946 301.395 252.991 301.485 253.081C301.575 253.163 301.62 253.281 301.62 253.437V258.613C301.62 258.777 301.575 258.9 301.485 258.981C301.395 259.063 301.277 259.104 301.129 259.104ZM301.129 251.658C300.933 251.658 300.774 251.601 300.651 251.486C300.528 251.372 300.467 251.221 300.467 251.033C300.467 250.853 300.528 250.705 300.651 250.591C300.774 250.477 300.933 250.419 301.129 250.419C301.326 250.419 301.485 250.477 301.608 250.591C301.73 250.705 301.792 250.853 301.792 251.033C301.792 251.221 301.73 251.372 301.608 251.486C301.485 251.601 301.326 251.658 301.129 251.658ZM305.955 259.129C305.391 259.129 304.892 259.002 304.459 258.748C304.034 258.495 303.702 258.135 303.465 257.669C303.236 257.195 303.122 256.647 303.122 256.025C303.122 255.404 303.236 254.86 303.465 254.394C303.702 253.919 304.034 253.555 304.459 253.302C304.892 253.048 305.391 252.922 305.955 252.922C306.52 252.922 307.018 253.048 307.452 253.302C307.885 253.555 308.217 253.919 308.446 254.394C308.683 254.86 308.801 255.404 308.801 256.025C308.801 256.647 308.683 257.195 308.446 257.669C308.217 258.135 307.885 258.495 307.452 258.748C307.018 259.002 306.52 259.129 305.955 259.129ZM305.955 258.307C306.544 258.307 306.994 258.115 307.305 257.73C307.624 257.338 307.783 256.769 307.783 256.025C307.783 255.297 307.624 254.737 307.305 254.345C306.986 253.944 306.536 253.744 305.955 253.744C305.375 253.744 304.925 253.944 304.606 254.345C304.287 254.737 304.128 255.297 304.128 256.025C304.128 256.761 304.283 257.325 304.594 257.718C304.913 258.11 305.367 258.307 305.955 258.307ZM313.287 252.922C314.718 252.922 315.434 253.711 315.434 255.289V258.613C315.434 258.769 315.389 258.891 315.299 258.981C315.217 259.063 315.098 259.104 314.943 259.104C314.788 259.104 314.665 259.063 314.575 258.981C314.485 258.891 314.44 258.769 314.44 258.613V255.35C314.44 254.794 314.33 254.39 314.109 254.136C313.896 253.883 313.553 253.756 313.078 253.756C312.531 253.756 312.093 253.923 311.766 254.259C311.439 254.594 311.275 255.048 311.275 255.62V258.613C311.275 258.769 311.23 258.891 311.14 258.981C311.059 259.063 310.94 259.104 310.785 259.104C310.629 259.104 310.507 259.063 310.417 258.981C310.327 258.891 310.282 258.769 310.282 258.613V253.437C310.282 253.29 310.327 253.171 310.417 253.081C310.507 252.991 310.629 252.946 310.785 252.946C310.932 252.946 311.046 252.991 311.128 253.081C311.218 253.171 311.263 253.286 311.263 253.425V254.05C311.459 253.682 311.733 253.404 312.085 253.216C312.437 253.02 312.837 252.922 313.287 252.922ZM323.434 252.922C324.137 252.922 324.668 253.122 325.028 253.523C325.388 253.915 325.568 254.504 325.568 255.289V258.613C325.568 258.769 325.523 258.891 325.433 258.981C325.343 259.063 325.225 259.104 325.077 259.104C324.922 259.104 324.799 259.063 324.709 258.981C324.619 258.891 324.574 258.769 324.574 258.613V255.314C324.574 254.782 324.464 254.39 324.243 254.136C324.031 253.883 323.687 253.756 323.213 253.756C322.665 253.756 322.227 253.923 321.9 254.259C321.573 254.594 321.41 255.048 321.41 255.62V258.613C321.41 258.769 321.365 258.891 321.275 258.981C321.193 259.063 321.074 259.104 320.919 259.104C320.764 259.104 320.641 259.063 320.551 258.981C320.461 258.891 320.416 258.769 320.416 258.613V250.812C320.416 250.673 320.461 250.558 320.551 250.468C320.649 250.378 320.772 250.333 320.919 250.333C321.074 250.333 321.193 250.378 321.275 250.468C321.365 250.55 321.41 250.665 321.41 250.812V254.026C321.606 253.666 321.88 253.392 322.232 253.204C322.583 253.016 322.984 252.922 323.434 252.922ZM329.829 252.922C331.326 252.922 332.074 253.707 332.074 255.277V258.613C332.074 258.761 332.029 258.879 331.939 258.969C331.857 259.059 331.743 259.104 331.595 259.104C331.448 259.104 331.33 259.059 331.24 258.969C331.15 258.879 331.105 258.761 331.105 258.613V258.025C330.949 258.376 330.712 258.65 330.393 258.846C330.074 259.035 329.706 259.129 329.289 259.129C328.905 259.129 328.549 259.051 328.222 258.896C327.903 258.74 327.65 258.523 327.462 258.245C327.273 257.967 327.179 257.661 327.179 257.325C327.179 256.876 327.294 256.528 327.523 256.283C327.752 256.029 328.128 255.849 328.651 255.743C329.175 255.629 329.903 255.571 330.835 255.571H331.105V255.166C331.105 254.676 331.002 254.316 330.798 254.087C330.602 253.858 330.279 253.744 329.829 253.744C329.273 253.744 328.709 253.895 328.136 254.197C327.915 254.336 327.76 254.406 327.67 254.406C327.572 254.406 327.49 254.369 327.425 254.296C327.359 254.222 327.327 254.128 327.327 254.013C327.327 253.899 327.359 253.801 327.425 253.719C327.498 253.629 327.613 253.539 327.768 253.449C328.054 253.286 328.377 253.159 328.737 253.069C329.105 252.971 329.469 252.922 329.829 252.922ZM329.424 258.344C329.915 258.344 330.316 258.18 330.626 257.853C330.945 257.518 331.105 257.088 331.105 256.565V256.209H330.884C330.164 256.209 329.616 256.242 329.24 256.307C328.864 256.365 328.594 256.467 328.431 256.614C328.275 256.753 328.198 256.961 328.198 257.24C328.198 257.558 328.312 257.824 328.541 258.037C328.778 258.241 329.073 258.344 329.424 258.344ZM335.904 259.129C335.528 259.129 335.168 259.084 334.825 258.994C334.49 258.904 334.191 258.777 333.929 258.613C333.782 258.515 333.676 258.425 333.61 258.344C333.553 258.254 333.525 258.147 333.525 258.025C333.525 257.918 333.553 257.832 333.61 257.767C333.676 257.693 333.758 257.657 333.856 257.657C333.954 257.657 334.097 257.718 334.285 257.841C334.53 257.988 334.772 258.106 335.009 258.196C335.254 258.278 335.557 258.319 335.917 258.319C336.358 258.319 336.702 258.241 336.947 258.086C337.192 257.931 337.315 257.706 337.315 257.411C337.315 257.231 337.27 257.088 337.18 256.982C337.09 256.867 336.935 256.769 336.714 256.688C336.493 256.598 336.17 256.508 335.745 256.418C335.025 256.262 334.51 256.054 334.199 255.792C333.889 255.53 333.733 255.175 333.733 254.725C333.733 254.373 333.831 254.062 334.028 253.793C334.224 253.523 334.494 253.31 334.837 253.155C335.189 252.999 335.585 252.922 336.027 252.922C336.346 252.922 336.653 252.967 336.947 253.057C337.25 253.138 337.515 253.257 337.744 253.412C338.022 253.609 338.161 253.813 338.161 254.026C338.161 254.132 338.129 254.222 338.063 254.296C337.998 254.369 337.92 254.406 337.83 254.406C337.732 254.406 337.585 254.336 337.389 254.197C337.16 254.05 336.943 253.936 336.738 253.854C336.534 253.772 336.281 253.731 335.978 253.731C335.594 253.731 335.283 253.817 335.046 253.989C334.817 254.161 334.702 254.39 334.702 254.676C334.702 254.856 334.743 255.003 334.825 255.117C334.915 255.224 335.058 255.322 335.254 255.412C335.459 255.494 335.749 255.575 336.125 255.657C336.681 255.78 337.111 255.915 337.413 256.062C337.724 256.209 337.945 256.389 338.076 256.602C338.206 256.814 338.272 257.084 338.272 257.411C338.272 257.926 338.055 258.344 337.622 258.662C337.188 258.973 336.616 259.129 335.904 259.129ZM345.954 252.922C346.478 252.922 346.94 253.048 347.34 253.302C347.741 253.555 348.052 253.915 348.273 254.381C348.493 254.848 348.604 255.387 348.604 256.001C348.604 256.622 348.493 257.17 348.273 257.644C348.052 258.11 347.741 258.474 347.34 258.736C346.94 258.998 346.478 259.129 345.954 259.129C345.488 259.129 345.079 259.026 344.728 258.822C344.384 258.617 344.122 258.327 343.942 257.951V258.613C343.942 258.761 343.897 258.879 343.808 258.969C343.726 259.059 343.607 259.104 343.452 259.104C343.296 259.104 343.174 259.059 343.084 258.969C342.994 258.879 342.949 258.761 342.949 258.613V250.812C342.949 250.673 342.994 250.558 343.084 250.468C343.174 250.378 343.296 250.333 343.452 250.333C343.607 250.333 343.726 250.378 343.808 250.468C343.897 250.55 343.942 250.665 343.942 250.812V254.099C344.122 253.723 344.384 253.433 344.728 253.228C345.079 253.024 345.488 252.922 345.954 252.922ZM345.758 258.307C346.339 258.307 346.788 258.106 347.107 257.706C347.426 257.297 347.586 256.728 347.586 256.001C347.586 255.289 347.426 254.737 347.107 254.345C346.788 253.952 346.339 253.756 345.758 253.756C345.177 253.756 344.728 253.952 344.409 254.345C344.098 254.737 343.942 255.297 343.942 256.025C343.942 256.753 344.098 257.317 344.409 257.718C344.728 258.11 345.177 258.307 345.758 258.307ZM354.713 257.657C354.803 257.657 354.881 257.693 354.946 257.767C355.011 257.841 355.044 257.935 355.044 258.049C355.044 258.254 354.901 258.442 354.615 258.613C354.32 258.785 354.01 258.916 353.683 259.006C353.355 259.088 353.037 259.129 352.726 259.129C351.802 259.129 351.07 258.855 350.53 258.307C349.998 257.759 349.733 257.002 349.733 256.037C349.733 255.424 349.851 254.884 350.088 254.418C350.326 253.944 350.657 253.576 351.082 253.314C351.515 253.053 352.006 252.922 352.554 252.922C353.331 252.922 353.948 253.175 354.406 253.682C354.864 254.189 355.093 254.876 355.093 255.743C355.093 255.907 355.061 256.025 354.995 256.099C354.93 256.172 354.823 256.209 354.676 256.209H350.726C350.8 257.616 351.466 258.319 352.726 258.319C353.045 258.319 353.319 258.278 353.548 258.196C353.777 258.106 354.022 257.988 354.284 257.841C354.496 257.718 354.639 257.657 354.713 257.657ZM352.566 253.694C352.043 253.694 351.622 253.858 351.303 254.185C350.992 254.512 350.808 254.974 350.751 255.571H354.222C354.206 254.966 354.055 254.504 353.768 254.185C353.482 253.858 353.082 253.694 352.566 253.694ZM361.182 257.657C361.272 257.657 361.349 257.693 361.415 257.767C361.48 257.841 361.513 257.935 361.513 258.049C361.513 258.254 361.37 258.442 361.084 258.613C360.789 258.785 360.478 258.916 360.151 259.006C359.824 259.088 359.505 259.129 359.195 259.129C358.27 259.129 357.539 258.855 356.999 258.307C356.467 257.759 356.201 257.002 356.201 256.037C356.201 255.424 356.32 254.884 356.557 254.418C356.794 253.944 357.126 253.576 357.551 253.314C357.984 253.053 358.475 252.922 359.023 252.922C359.8 252.922 360.417 253.175 360.875 253.682C361.333 254.189 361.562 254.876 361.562 255.743C361.562 255.907 361.529 256.025 361.464 256.099C361.398 256.172 361.292 256.209 361.145 256.209H357.195C357.269 257.616 357.935 258.319 359.195 258.319C359.513 258.319 359.787 258.278 360.016 258.196C360.245 258.106 360.491 257.988 360.752 257.841C360.965 257.718 361.108 257.657 361.182 257.657ZM359.035 253.694C358.512 253.694 358.091 253.858 357.772 254.185C357.461 254.512 357.277 254.974 357.22 255.571H360.691C360.675 254.966 360.523 254.504 360.237 254.185C359.951 253.858 359.55 253.694 359.035 253.694ZM366.031 252.922C367.462 252.922 368.178 253.711 368.178 255.289V258.613C368.178 258.769 368.133 258.891 368.043 258.981C367.961 259.063 367.843 259.104 367.687 259.104C367.532 259.104 367.409 259.063 367.319 258.981C367.229 258.891 367.184 258.769 367.184 258.613V255.35C367.184 254.794 367.074 254.39 366.853 254.136C366.641 253.883 366.297 253.756 365.823 253.756C365.275 253.756 364.837 253.923 364.51 254.259C364.183 254.594 364.02 255.048 364.02 255.62V258.613C364.02 258.769 363.975 258.891 363.885 258.981C363.803 259.063 363.684 259.104 363.529 259.104C363.373 259.104 363.251 259.063 363.161 258.981C363.071 258.891 363.026 258.769 363.026 258.613V253.437C363.026 253.29 363.071 253.171 363.161 253.081C363.251 252.991 363.373 252.946 363.529 252.946C363.676 252.946 363.791 252.991 363.872 253.081C363.962 253.171 364.007 253.286 364.007 253.425V254.05C364.204 253.682 364.477 253.404 364.829 253.216C365.181 253.02 365.581 252.922 366.031 252.922ZM277.72 269.946C278.063 269.922 278.235 270.061 278.235 270.363C278.235 270.494 278.198 270.6 278.125 270.682C278.051 270.756 277.924 270.801 277.744 270.817L277.376 270.854C276.828 270.903 276.419 271.099 276.15 271.443C275.888 271.778 275.757 272.175 275.757 272.633V275.613C275.757 275.777 275.712 275.9 275.622 275.981C275.532 276.063 275.414 276.104 275.266 276.104C275.119 276.104 274.997 276.063 274.898 275.981C274.808 275.891 274.763 275.769 274.763 275.613V270.437C274.763 270.281 274.813 270.163 274.911 270.081C275.009 269.991 275.127 269.946 275.266 269.946C275.397 269.946 275.508 269.991 275.598 270.081C275.688 270.163 275.733 270.277 275.733 270.425V271.112C275.904 270.752 276.145 270.478 276.456 270.29C276.775 270.102 277.139 269.991 277.548 269.958L277.72 269.946ZM283.593 274.657C283.683 274.657 283.76 274.693 283.826 274.767C283.891 274.841 283.924 274.935 283.924 275.049C283.924 275.254 283.781 275.442 283.495 275.613C283.2 275.785 282.889 275.916 282.562 276.006C282.235 276.088 281.916 276.129 281.605 276.129C280.681 276.129 279.949 275.855 279.41 275.307C278.878 274.759 278.612 274.002 278.612 273.037C278.612 272.424 278.731 271.884 278.968 271.418C279.205 270.944 279.536 270.576 279.962 270.314C280.395 270.053 280.886 269.922 281.434 269.922C282.211 269.922 282.828 270.175 283.286 270.682C283.744 271.189 283.973 271.876 283.973 272.743C283.973 272.907 283.94 273.025 283.875 273.099C283.809 273.172 283.703 273.209 283.556 273.209H279.606C279.68 274.616 280.346 275.319 281.605 275.319C281.924 275.319 282.198 275.278 282.427 275.196C282.656 275.106 282.902 274.988 283.163 274.841C283.376 274.718 283.519 274.657 283.593 274.657ZM281.446 270.694C280.923 270.694 280.501 270.858 280.183 271.185C279.872 271.512 279.688 271.974 279.631 272.571H283.102C283.086 271.966 282.934 271.504 282.648 271.185C282.362 270.858 281.961 270.694 281.446 270.694ZM287.902 276.129C287.346 276.129 286.852 276.002 286.418 275.748C285.993 275.495 285.662 275.135 285.425 274.669C285.196 274.203 285.081 273.663 285.081 273.05C285.081 272.436 285.2 271.893 285.437 271.418C285.682 270.944 286.022 270.576 286.455 270.314C286.888 270.053 287.387 269.922 287.952 269.922C288.262 269.922 288.569 269.967 288.872 270.057C289.182 270.138 289.452 270.261 289.681 270.425C289.828 270.523 289.931 270.621 289.988 270.719C290.053 270.809 290.086 270.911 290.086 271.026C290.086 271.14 290.053 271.234 289.988 271.308C289.931 271.381 289.853 271.418 289.755 271.418C289.698 271.418 289.636 271.402 289.571 271.369C289.505 271.336 289.448 271.304 289.399 271.271C289.358 271.238 289.33 271.218 289.313 271.21C289.101 271.071 288.896 270.96 288.7 270.878C288.512 270.797 288.279 270.756 288.001 270.756C287.404 270.756 286.938 270.96 286.602 271.369C286.275 271.77 286.112 272.33 286.112 273.05C286.112 273.769 286.275 274.325 286.602 274.718C286.938 275.11 287.404 275.307 288.001 275.307C288.279 275.307 288.516 275.266 288.712 275.184C288.917 275.102 289.121 274.992 289.325 274.853C289.415 274.796 289.501 274.747 289.583 274.706C289.665 274.665 289.734 274.644 289.792 274.644C289.882 274.644 289.955 274.681 290.012 274.755C290.078 274.828 290.11 274.922 290.11 275.037C290.11 275.143 290.082 275.241 290.025 275.331C289.967 275.413 289.861 275.507 289.706 275.613C289.477 275.769 289.199 275.896 288.872 275.994C288.553 276.084 288.23 276.129 287.902 276.129ZM295.931 274.657C296.021 274.657 296.099 274.693 296.164 274.767C296.23 274.841 296.262 274.935 296.262 275.049C296.262 275.254 296.119 275.442 295.833 275.613C295.539 275.785 295.228 275.916 294.901 276.006C294.574 276.088 294.255 276.129 293.944 276.129C293.02 276.129 292.288 275.855 291.748 275.307C291.217 274.759 290.951 274.002 290.951 273.037C290.951 272.424 291.07 271.884 291.307 271.418C291.544 270.944 291.875 270.576 292.3 270.314C292.734 270.053 293.224 269.922 293.772 269.922C294.549 269.922 295.167 270.175 295.625 270.682C296.082 271.189 296.311 271.876 296.311 272.743C296.311 272.907 296.279 273.025 296.213 273.099C296.148 273.172 296.042 273.209 295.894 273.209H291.945C292.018 274.616 292.685 275.319 293.944 275.319C294.263 275.319 294.537 275.278 294.766 275.196C294.995 275.106 295.24 274.988 295.502 274.841C295.714 274.718 295.858 274.657 295.931 274.657ZM293.785 270.694C293.261 270.694 292.84 270.858 292.521 271.185C292.21 271.512 292.026 271.974 291.969 272.571H295.441C295.424 271.966 295.273 271.504 294.987 271.185C294.7 270.858 294.3 270.694 293.785 270.694ZM298.278 276.104C298.131 276.104 298.008 276.063 297.91 275.981C297.82 275.891 297.775 275.769 297.775 275.613V270.437C297.775 270.281 297.82 270.163 297.91 270.081C298.008 269.991 298.131 269.946 298.278 269.946C298.426 269.946 298.544 269.991 298.634 270.081C298.724 270.163 298.769 270.281 298.769 270.437V275.613C298.769 275.777 298.724 275.9 298.634 275.981C298.544 276.063 298.426 276.104 298.278 276.104ZM298.278 268.658C298.082 268.658 297.923 268.601 297.8 268.486C297.677 268.372 297.616 268.221 297.616 268.033C297.616 267.853 297.677 267.705 297.8 267.591C297.923 267.477 298.082 267.419 298.278 267.419C298.475 267.419 298.634 267.477 298.757 267.591C298.879 267.705 298.941 267.853 298.941 268.033C298.941 268.221 298.879 268.372 298.757 268.486C298.634 268.601 298.475 268.658 298.278 268.658ZM304.932 270.253C305.022 270.057 305.165 269.958 305.361 269.958C305.484 269.958 305.594 269.999 305.693 270.081C305.791 270.163 305.84 270.265 305.84 270.388C305.84 270.461 305.823 270.527 305.791 270.584L303.399 275.736C303.35 275.842 303.276 275.928 303.178 275.994C303.08 276.051 302.973 276.08 302.859 276.08C302.753 276.08 302.65 276.051 302.552 275.994C302.454 275.928 302.377 275.842 302.319 275.736L299.94 270.584C299.907 270.527 299.89 270.465 299.89 270.4C299.89 270.277 299.944 270.171 300.05 270.081C300.164 269.991 300.287 269.946 300.418 269.946C300.5 269.946 300.577 269.971 300.651 270.02C300.733 270.069 300.794 270.138 300.835 270.228L302.884 274.828L304.932 270.253ZM311.48 274.657C311.57 274.657 311.648 274.693 311.713 274.767C311.779 274.841 311.811 274.935 311.811 275.049C311.811 275.254 311.668 275.442 311.382 275.613C311.088 275.785 310.777 275.916 310.45 276.006C310.123 276.088 309.804 276.129 309.493 276.129C308.569 276.129 307.837 275.855 307.297 275.307C306.766 274.759 306.5 274.002 306.5 273.037C306.5 272.424 306.618 271.884 306.856 271.418C307.093 270.944 307.424 270.576 307.849 270.314C308.283 270.053 308.773 269.922 309.321 269.922C310.098 269.922 310.716 270.175 311.173 270.682C311.631 271.189 311.86 271.876 311.86 272.743C311.86 272.907 311.828 273.025 311.762 273.099C311.697 273.172 311.591 273.209 311.443 273.209H307.493C307.567 274.616 308.234 275.319 309.493 275.319C309.812 275.319 310.086 275.278 310.315 275.196C310.544 275.106 310.789 274.988 311.051 274.841C311.263 274.718 311.407 274.657 311.48 274.657ZM309.333 270.694C308.81 270.694 308.389 270.858 308.07 271.185C307.759 271.512 307.575 271.974 307.518 272.571H310.989C310.973 271.966 310.822 271.504 310.536 271.185C310.249 270.858 309.849 270.694 309.333 270.694ZM318.121 267.333C318.276 267.333 318.399 267.378 318.489 267.468C318.579 267.558 318.624 267.673 318.624 267.812V275.613C318.624 275.761 318.579 275.879 318.489 275.969C318.399 276.059 318.276 276.104 318.121 276.104C317.965 276.104 317.843 276.059 317.753 275.969C317.671 275.879 317.63 275.761 317.63 275.613V274.951C317.45 275.327 317.184 275.617 316.833 275.822C316.489 276.026 316.084 276.129 315.618 276.129C315.095 276.129 314.633 275.998 314.232 275.736C313.831 275.474 313.521 275.11 313.3 274.644C313.079 274.17 312.969 273.622 312.969 273.001C312.969 272.387 313.079 271.848 313.3 271.381C313.521 270.915 313.831 270.555 314.232 270.302C314.633 270.048 315.095 269.922 315.618 269.922C316.084 269.922 316.489 270.024 316.833 270.228C317.184 270.433 317.45 270.723 317.63 271.099V267.812C317.63 267.665 317.671 267.55 317.753 267.468C317.843 267.378 317.965 267.333 318.121 267.333ZM315.815 275.307C316.395 275.307 316.841 275.11 317.152 274.718C317.471 274.317 317.63 273.753 317.63 273.025C317.63 272.297 317.471 271.737 317.152 271.345C316.841 270.952 316.395 270.756 315.815 270.756C315.234 270.756 314.78 270.952 314.453 271.345C314.134 271.737 313.975 272.289 313.975 273.001C313.975 273.728 314.134 274.297 314.453 274.706C314.78 275.106 315.234 275.307 315.815 275.307ZM320.955 276.104C320.758 276.104 320.595 276.043 320.464 275.92C320.333 275.789 320.268 275.622 320.268 275.417C320.268 275.213 320.333 275.045 320.464 274.914C320.595 274.783 320.758 274.718 320.955 274.718C321.143 274.718 321.298 274.783 321.421 274.914C321.552 275.045 321.617 275.213 321.617 275.417C321.617 275.622 321.552 275.789 321.421 275.92C321.298 276.043 321.143 276.104 320.955 276.104Z" fill="black"/>
</g>
<g filter="url(#filter1_d_624_325)">
<rect x="20.9524" y="88.5714" width="76.1905" height="51.4286" rx="3.08975" fill="white"/>
<path d="M66.9466 115.817L52.9695 123.927C51.7834 124.614 50.2611 123.782 50.2611 122.396V106.176C50.2611 104.792 51.7812 103.957 52.9695 104.647L66.9466 112.757C67.2165 112.911 67.4408 113.134 67.5968 113.402C67.7528 113.671 67.8349 113.976 67.8349 114.287C67.8349 114.598 67.7528 114.903 67.5968 115.172C67.4408 115.44 67.2165 115.663 66.9466 115.817Z" fill="#AA8EFF"/>
<rect x="21.1455" y="88.7645" width="75.8043" height="51.0424" rx="2.89664" stroke="#E7E1FF" stroke-width="0.386219"/>
</g>
<g filter="url(#filter2_d_624_325)">
<rect x="69.5238" y="125.714" width="120" height="90.4271" rx="3.9834" fill="white"/>
<path d="M159.064 191.743H99.893C98.7906 191.743 98.1032 190.548 98.6576 189.595L110.868 168.608C111.307 167.853 112.314 167.665 112.996 168.21L125.174 177.938C125.815 178.449 126.753 178.319 127.229 177.652L139.67 160.25C140.263 159.421 141.507 159.46 142.046 160.325L160.277 189.557C160.871 190.509 160.186 191.743 159.064 191.743Z" fill="#AB8EFF"/>
<circle cx="124.208" cy="158.51" r="8.39756" fill="#AB8EFF"/>
<rect x="69.7728" y="125.963" width="119.502" height="89.9292" rx="3.73444" stroke="#E7E1FF" stroke-width="0.497925"/>
</g>
<path d="M188.055 250.903L168.436 258.095L167.467 257.616C166.983 257.056 165.966 255.89 165.772 255.698C165.772 255.698 163.592 254.019 163.35 253.78L160.686 251.382C160.686 251.382 159.854 250.623 159.089 249.979C158.247 249.272 160.282 249.384 156.568 248.026C152.854 246.667 145.33 243.854 144.942 243.47L143.247 241.792C142.843 241.393 142.623 239.457 143.247 238.196C143.835 237.008 144.685 236.61 145.89 236.048L145.911 236.038C149.086 234.556 154.631 238.196 154.631 238.196L148.333 221.413C148.333 221.413 146.649 217.76 147.122 215.42C147.363 214.226 147.574 213.271 148.333 212.543C149.766 211.168 152.254 210.951 153.42 212.542C157.537 218.165 160.928 232.682 160.928 232.682L160.686 229.085C160.686 229.085 161.282 227.258 162.139 226.448C163.923 224.762 165.928 225.64 167.952 227.036C169.182 226.287 169.773 224.388 171.585 224.051C173.587 223.678 176.429 225.969 176.429 225.969C176.429 225.969 177.44 224.379 178.125 223.44C179.62 221.39 183.695 223.092 183.695 223.092C183.695 223.092 189.874 232.501 189.508 239.155C189.361 241.832 188.296 243.197 188.055 245.868C187.878 247.826 188.055 250.903 188.055 250.903Z" fill="#AB9ADC"/>
<path d="M176.429 225.969C176.429 225.969 177.44 224.379 178.125 223.44C179.62 221.39 183.695 223.092 183.695 223.092C183.695 223.092 189.874 232.501 189.508 239.155C189.361 241.832 188.296 243.197 188.055 245.868C187.878 247.826 188.055 250.903 188.055 250.903L168.436 258.095L167.467 257.616C166.983 257.056 165.966 255.89 165.772 255.698C165.772 255.698 163.592 254.019 163.35 253.78L160.686 251.382C160.686 251.382 159.854 250.623 159.089 249.979C158.247 249.272 160.282 249.384 156.568 248.026C152.854 246.667 145.33 243.854 144.942 243.47C144.942 243.47 143.651 242.192 143.247 241.792C142.843 241.393 142.623 239.457 143.247 238.196C143.838 237.001 144.695 236.606 145.911 236.038C149.086 234.556 154.631 238.196 154.631 238.196L148.333 221.413C148.333 221.413 146.649 217.76 147.122 215.42C147.363 214.226 147.574 213.271 148.333 212.543C149.766 211.168 152.254 210.951 153.42 212.542C157.537 218.165 160.928 232.682 160.928 232.682M176.429 225.969L178.851 233.641M176.429 225.969C176.429 225.969 173.587 223.678 171.585 224.051C169.773 224.388 169.182 226.287 167.952 227.036M167.952 227.036C168.898 230.687 170.858 235.319 170.858 235.319M167.952 227.036C165.928 225.64 163.923 224.762 162.139 226.448C161.282 227.258 160.686 229.085 160.686 229.085L160.928 232.682M160.928 232.682L162.139 236.997" stroke="#4C2BAC" stroke-width="1.36144"/>
<defs>
<filter id="filter0_dd_624_325" x="179.158" y="39.4387" width="231.571" height="266.213" filterUnits="userSpaceOnUse" color-interpolation-filters="sRGB">
<feFlood flood-opacity="0" result="BackgroundImageFix"/>
<feColorMatrix in="SourceAlpha" type="matrix" values="0 0 0 0 0 0 0 0 0 0 0 0 0 0 0 0 0 0 127 0" result="hardAlpha"/>
<feOffset dx="2.52128" dy="2.52128"/>
<feGaussianBlur stdDeviation="3.1516"/>
<feComposite in2="hardAlpha" operator="out"/>
<feColorMatrix type="matrix" values="0 0 0 0 0 0 0 0 0 0 0 0 0 0 0 0 0 0 0.05 0"/>
<feBlend mode="normal" in2="BackgroundImageFix" result="effect1_dropShadow_624_325"/>
<feColorMatrix in="SourceAlpha" type="matrix" values="0 0 0 0 0 0 0 0 0 0 0 0 0 0 0 0 0 0 127 0" result="hardAlpha"/>
<feOffset dx="-5.04256"/>
<feGaussianBlur stdDeviation="5.04256"/>
<feComposite in2="hardAlpha" operator="out"/>
<feColorMatrix type="matrix" values="0 0 0 0 0 0 0 0 0 0 0 0 0 0 0 0 0 0 0.05 0"/>
<feBlend mode="normal" in2="effect1_dropShadow_624_325" result="effect2_dropShadow_624_325"/>
<feBlend mode="normal" in="SourceGraphic" in2="effect2_dropShadow_624_325" result="shape"/>
</filter>
<filter id="filter1_d_624_325" x="15.2381" y="84.7619" width="83.8095" height="59.0476" filterUnits="userSpaceOnUse" color-interpolation-filters="sRGB">
<feFlood flood-opacity="0" result="BackgroundImageFix"/>
<feColorMatrix in="SourceAlpha" type="matrix" values="0 0 0 0 0 0 0 0 0 0 0 0 0 0 0 0 0 0 127 0" result="hardAlpha"/>
<feOffset dx="-1.90476"/>
<feGaussianBlur stdDeviation="1.90476"/>
<feComposite in2="hardAlpha" operator="out"/>
<feColorMatrix type="matrix" values="0 0 0 0 0 0 0 0 0 0 0 0 0 0 0 0 0 0 0.05 0"/>
<feBlend mode="normal" in2="BackgroundImageFix" result="effect1_dropShadow_624_325"/>
<feBlend mode="normal" in="SourceGraphic" in2="effect1_dropShadow_624_325" result="shape"/>
</filter>
<filter id="filter2_d_624_325" x="63.8095" y="121.905" width="127.619" height="98.0462" filterUnits="userSpaceOnUse" color-interpolation-filters="sRGB">
<feFlood flood-opacity="0" result="BackgroundImageFix"/>
<feColorMatrix in="SourceAlpha" type="matrix" values="0 0 0 0 0 0 0 0 0 0 0 0 0 0 0 0 0 0 127 0" result="hardAlpha"/>
<feOffset dx="-1.90476"/>
<feGaussianBlur stdDeviation="1.90476"/>
<feComposite in2="hardAlpha" operator="out"/>
<feColorMatrix type="matrix" values="0 0 0 0 0 0 0 0 0 0 0 0 0 0 0 0 0 0 0.05 0"/>
<feBlend mode="normal" in2="BackgroundImageFix" result="effect1_dropShadow_624_325"/>
<feBlend mode="normal" in="SourceGraphic" in2="effect1_dropShadow_624_325" result="shape"/>
</filter>
</defs>
</svg>
