<svg width="69" height="69" viewBox="0 0 69 69" fill="none" xmlns="http://www.w3.org/2000/svg">
<rect width="69" height="69" rx="6.13698" fill="url(#paint0_linear_5581_13749)"/>
<path d="M47.1562 34.5C47.1562 32.3906 45.4687 30.5625 43.3594 30.2812C41.8125 26.9062 38.4375 24.6562 34.5 24.6562C34.2188 24.6562 33.7969 24.6563 33.5156 24.7969C32.6719 23.8125 31.5469 23.25 30.2812 23.25C27.8906 23.25 26.0625 25.0781 26.0625 27.4688C26.0625 28.0312 26.2031 28.4531 26.3437 29.0156C25.2187 30.5625 24.6562 32.3906 24.6562 34.5C24.6562 36.6094 25.2187 38.4375 26.3437 39.9844C26.2031 40.5469 26.0625 40.9688 26.0625 41.5312C26.0625 43.9219 27.8906 45.75 30.2812 45.75C31.5469 45.75 32.6719 45.1875 33.5156 44.2031C33.7969 44.2031 34.2188 44.3438 34.5 44.3438C38.4375 44.3438 41.8125 41.9531 43.3594 38.7188C45.4687 38.4375 47.1562 36.6094 47.1562 34.5ZM30.2812 26.0625C31.125 26.0625 31.6875 26.625 31.6875 27.4688C31.6875 28.3125 31.125 28.875 30.2812 28.875C29.4375 28.875 28.875 28.3125 28.875 27.4688C28.875 26.625 29.4375 26.0625 30.2812 26.0625ZM30.2812 42.9375C29.4375 42.9375 28.875 42.375 28.875 41.5312C28.875 40.6875 29.4375 40.125 30.2812 40.125C31.125 40.125 31.6875 40.6875 31.6875 41.5312C31.6875 42.375 31.125 42.9375 30.2812 42.9375ZM34.5 41.5312C34.5 39.1406 32.6719 37.3125 30.2812 37.3125C29.5781 37.3125 28.875 37.4531 28.3125 37.875C27.75 36.8906 27.4688 35.7656 27.4688 34.5C27.4688 33.2344 27.75 32.1094 28.3125 31.125C28.875 31.5469 29.5781 31.6875 30.2812 31.6875C32.6719 31.6875 34.5 29.8594 34.5 27.4688C37.1719 27.4688 39.2812 28.875 40.5469 30.9844C39.4219 31.8281 38.7188 33.0938 38.7188 34.5C38.7188 35.9062 39.4219 37.1719 40.5469 38.0156C39.2812 40.125 37.1719 41.5312 34.5 41.5312ZM42.9375 35.9062C42.0938 35.9062 41.5312 35.3438 41.5312 34.5C41.5312 33.6562 42.0938 33.0938 42.9375 33.0938C43.7812 33.0938 44.3438 33.6562 44.3438 34.5C44.3438 35.3438 43.7812 35.9062 42.9375 35.9062Z" fill="white"/>
<path d="M34.5 55.5938C34.2188 55.5938 34.0781 55.5938 33.7969 55.4531L16.9219 45.6094C16.5 45.3281 16.2188 44.9062 16.2188 44.3437V24.6562C16.2188 24.0938 16.5 23.6719 16.9219 23.3906L33.7969 13.5469C34.2188 13.2656 34.7812 13.2656 35.2031 13.5469L52.0781 23.3906L50.6719 25.7813L34.5 16.5L19.0312 25.5V43.6406L34.5 52.6406L49.9688 43.6406V33.0938H52.7812V44.3437C52.7812 44.9062 52.5 45.3281 52.0781 45.6094L35.2031 55.4531C34.9219 55.5938 34.7812 55.5938 34.5 55.5938Z" fill="white"/>
<defs>
<linearGradient id="paint0_linear_5581_13749" x1="34.5" y1="0" x2="34.5" y2="69" gradientUnits="userSpaceOnUse">
<stop stop-color="#71CD98"/>
<stop offset="1" stop-color="#56AC32"/>
</linearGradient>
</defs>
</svg>
