<svg width="69" height="69" viewBox="0 0 69 69" fill="none" xmlns="http://www.w3.org/2000/svg">
<rect width="69" height="69" rx="6.13698" fill="url(#paint0_linear_5644_13658)"/>
<path d="M26.0625 18.5625C25.3166 18.5625 24.6012 18.8588 24.0738 19.3863C23.5463 19.9137 23.25 20.6291 23.25 21.375C23.25 22.1209 23.5463 22.8363 24.0738 23.3637C24.6012 23.8912 25.3166 24.1875 26.0625 24.1875C26.8084 24.1875 27.5238 23.8912 28.0512 23.3637C28.5787 22.8363 28.875 22.1209 28.875 21.375C28.875 20.6291 28.5787 19.9137 28.0512 19.3863C27.5238 18.8588 26.8084 18.5625 26.0625 18.5625ZM20.4375 21.375C20.4375 19.8832 21.0301 18.4524 22.085 17.3975C23.1399 16.3426 24.5707 15.75 26.0625 15.75C27.5543 15.75 28.9851 16.3426 30.04 17.3975C31.0949 18.4524 31.6875 19.8832 31.6875 21.375C31.6875 22.8668 31.0949 24.2976 30.04 25.3525C28.9851 26.4074 27.5543 27 26.0625 27C24.5707 27 23.1399 26.4074 22.085 25.3525C21.0301 24.2976 20.4375 22.8668 20.4375 21.375ZM19.065 28.875C17.2312 28.875 15.75 30.3581 15.75 32.19V32.865C15.75 33.2531 15.75 35.505 17.0625 37.6931C18.09 39.3994 19.8319 40.9312 22.6406 41.6175C23.0253 40.5949 23.7219 39.7192 24.6319 39.1144C21.6262 38.7938 20.205 37.4587 19.4756 36.2456C18.5681 34.7344 18.5625 33.1256 18.5625 32.8594V32.19C18.5625 31.9125 18.7875 31.6875 19.065 31.6875H27.0562C27.1801 30.696 27.5021 29.7395 28.0031 28.875H19.065ZM40.9969 28.875C41.4862 29.7225 41.8162 30.6731 41.9419 31.6875H49.935C50.2125 31.6875 50.4375 31.9125 50.4375 32.19V32.8594C50.4375 33.1256 50.4319 34.7344 49.5244 36.2438C48.795 37.4587 47.3738 38.7938 44.3681 39.1144C45.2681 39.7144 45.9731 40.5881 46.3594 41.6175C49.1681 40.9312 50.91 39.3994 51.9356 37.6931C53.25 35.505 53.25 33.255 53.25 32.8631V32.1881C53.25 30.36 51.7669 28.875 49.935 28.875H40.9969ZM40.125 21.375C40.125 20.6291 40.4213 19.9137 40.9488 19.3863C41.4762 18.8588 42.1916 18.5625 42.9375 18.5625C43.6834 18.5625 44.3988 18.8588 44.9262 19.3863C45.4537 19.9137 45.75 20.6291 45.75 21.375C45.75 22.1209 45.4537 22.8363 44.9262 23.3637C44.3988 23.8912 43.6834 24.1875 42.9375 24.1875C42.1916 24.1875 41.4762 23.8912 40.9488 23.3637C40.4213 22.8363 40.125 22.1209 40.125 21.375ZM42.9375 15.75C41.4457 15.75 40.0149 16.3426 38.96 17.3975C37.9051 18.4524 37.3125 19.8832 37.3125 21.375C37.3125 22.8668 37.9051 24.2976 38.96 25.3525C40.0149 26.4074 41.4457 27 42.9375 27C44.4293 27 45.8601 26.4074 46.915 25.3525C47.9699 24.2976 48.5625 22.8668 48.5625 21.375C48.5625 19.8832 47.9699 18.4524 46.915 17.3975C45.8601 16.3426 44.4293 15.75 42.9375 15.75ZM34.5 29.8125C34.1307 29.8125 33.7649 29.8852 33.4237 30.0266C33.0825 30.1679 32.7724 30.3751 32.5113 30.6363C32.2501 30.8974 32.0429 31.2075 31.9016 31.5487C31.7602 31.8899 31.6875 32.2557 31.6875 32.625C31.6875 32.9943 31.7602 33.3601 31.9016 33.7013C32.0429 34.0425 32.2501 34.3526 32.5113 34.6137C32.7724 34.8749 33.0825 35.0821 33.4237 35.2234C33.7649 35.3648 34.1307 35.4375 34.5 35.4375C35.2459 35.4375 35.9613 35.1412 36.4887 34.6137C37.0162 34.0863 37.3125 33.3709 37.3125 32.625C37.3125 31.8791 37.0162 31.1637 36.4887 30.6363C35.9613 30.1088 35.2459 29.8125 34.5 29.8125ZM28.875 32.625C28.875 31.1332 29.4676 29.7024 30.5225 28.6475C31.5774 27.5926 33.0082 27 34.5 27C35.9918 27 37.4226 27.5926 38.4775 28.6475C39.5324 29.7024 40.125 31.1332 40.125 32.625C40.125 34.1168 39.5324 35.5476 38.4775 36.6025C37.4226 37.6574 35.9918 38.25 34.5 38.25C33.0082 38.25 31.5774 37.6574 30.5225 36.6025C29.4676 35.5476 28.875 34.1168 28.875 32.625ZM24.1875 43.44C24.1875 41.6062 25.6706 40.125 27.5025 40.125H41.4975C43.3294 40.125 44.8125 41.6081 44.8125 43.44V44.115C44.8125 44.5031 44.8125 46.755 43.5 48.9431C42.1069 51.2569 39.3994 53.25 34.5 53.25C29.6006 53.25 26.8912 51.2569 25.5 48.9431C24.1875 46.755 24.1875 44.505 24.1875 44.1131V43.44ZM27.5025 42.9375C27.4365 42.9375 27.3712 42.9505 27.3102 42.9758C27.2492 43.001 27.1938 43.038 27.1472 43.0847C27.1005 43.1313 27.0635 43.1867 27.0382 43.2477C27.013 43.3087 27 43.374 27 43.44V44.1094C27 44.3756 27.0056 45.9844 27.9131 47.4938C28.7494 48.8869 30.495 50.4375 34.5 50.4375C38.505 50.4375 40.2506 48.8869 41.0869 47.4938C41.9944 45.9844 42 44.3756 42 44.1094V43.44C42 43.3067 41.9471 43.1789 41.8528 43.0847C41.7586 42.9904 41.6308 42.9375 41.4975 42.9375H27.5025Z" fill="white"/>
<defs>
<linearGradient id="paint0_linear_5644_13658" x1="34.5" y1="0" x2="34.5" y2="69" gradientUnits="userSpaceOnUse">
<stop stop-color="#D579CC"/>
<stop offset="1" stop-color="#AC32A0"/>
</linearGradient>
</defs>
</svg>
