<svg width="69" height="69" viewBox="0 0 69 69" fill="none" xmlns="http://www.w3.org/2000/svg">
<rect width="69" height="69" rx="6.4" fill="url(#paint0_linear_5644_13659)"/>
<path d="M21.5808 15.3828L19.6008 17.36L22.5469 20.3047L24.5241 18.3275L21.5794 15.3828H21.5808ZM47.4206 15.3828L44.4745 18.3275L46.4531 20.3047L49.3978 17.3614L47.4206 15.3828ZM34.5 16.2603C34.0359 16.2659 33.5662 16.2927 33.0938 16.3503C33.0797 16.3503 33.0656 16.3475 33.0516 16.3503C27.3478 17.0042 22.8084 21.6125 22.0195 27.2909C21.3895 31.8612 23.2739 36.0055 26.4141 38.6745C27.6985 39.7708 28.5674 41.2751 28.875 42.9355V51.373H32.0812C32.5706 52.2125 33.4636 52.7792 34.5 52.7792C35.5364 52.7792 36.4294 52.2125 36.9187 51.373H40.125V45.748H40.2572V44.0773C40.2572 42.0158 41.3288 39.9373 43.0697 38.3216C45.3984 35.99 47.1562 32.6783 47.1562 28.8744C47.1562 21.9275 41.4384 16.1956 34.5 16.2603ZM34.5 19.0728C39.9352 18.9969 44.3438 23.4462 44.3438 28.8744C44.3438 31.8191 42.9797 34.4122 41.0911 36.2994L41.1361 36.3444C39.2593 38.0751 38.0457 40.4068 37.7048 42.9369H31.5539C31.2445 40.5266 30.2109 38.1936 28.2577 36.5202C25.7728 34.4108 24.292 31.2327 24.787 27.6439C25.4016 23.2142 28.9959 19.6522 33.4003 19.1642C33.7639 19.1135 34.1302 19.0835 34.4972 19.0742L34.5 19.0728ZM14.8125 28.8744V31.6869H19.0312V28.8744H14.8125ZM49.9688 28.8744V31.6869H54.1875V28.8744H49.9688ZM22.5469 40.2566L19.6022 43.1998L21.5808 45.1784L24.5227 42.2337L22.5469 40.2566ZM46.4531 40.2566L44.4759 42.2337L47.4192 45.1784L49.3978 43.1998L46.4531 40.2566ZM31.6875 45.7494H37.3125V48.5619H31.6875V45.7494Z" fill="white"/>
<defs>
<linearGradient id="paint0_linear_5644_13659" x1="34.5" y1="0" x2="34.5" y2="69" gradientUnits="userSpaceOnUse">
<stop stop-color="#09A6FE"/>
<stop offset="1" stop-color="#0054F7"/>
</linearGradient>
</defs>
</svg>
