<svg width="69" height="69" viewBox="0 0 69 69" fill="none" xmlns="http://www.w3.org/2000/svg">
<rect width="69" height="69" rx="6.4" fill="url(#paint0_linear_5581_13754)"/>
<path d="M38.25 34.5H39C39.2984 34.5 39.5845 34.6185 39.7955 34.8295C40.0065 35.0405 40.125 35.3266 40.125 35.625V40.875C40.125 41.1734 40.0065 41.4595 39.7955 41.6705C39.5845 41.8815 39.2984 42 39 42H30C29.7016 42 29.4155 41.8815 29.2045 41.6705C28.9935 41.4595 28.875 41.1734 28.875 40.875V35.625C28.875 35.3266 28.9935 35.0405 29.2045 34.8295C29.4155 34.6185 29.7016 34.5 30 34.5H30.75M38.25 34.5V30.75C38.25 29.4994 37.5 27 34.5 27C31.5 27 30.75 29.4994 30.75 30.75V34.5M38.25 34.5H30.75" stroke="white" stroke-width="3" stroke-linecap="round" stroke-linejoin="round"/>
<path d="M15.75 27L33.9975 17.8763C34.1536 17.7984 34.3256 17.7578 34.5 17.7578C34.6744 17.7578 34.8464 17.7984 35.0025 17.8763L53.25 27M49.5 32.625V47.625C49.5 48.6196 49.1049 49.5734 48.4016 50.2767C47.6984 50.9799 46.7446 51.375 45.75 51.375H23.25C22.2554 51.375 21.3016 50.9799 20.5983 50.2767C19.8951 49.5734 19.5 48.6196 19.5 47.625V32.625" stroke="white" stroke-width="3" stroke-linecap="round" stroke-linejoin="round"/>
<defs>
<linearGradient id="paint0_linear_5581_13754" x1="34.5" y1="0" x2="34.5" y2="69" gradientUnits="userSpaceOnUse">
<stop stop-color="#FEE609"/>
<stop offset="1" stop-color="#F7A300"/>
</linearGradient>
</defs>
</svg>
