<svg width="60" height="62" viewBox="0 0 60 62" fill="none" xmlns="http://www.w3.org/2000/svg">
<path fill-rule="evenodd" clip-rule="evenodd" d="M43.2134 44.4406C38.6627 44.4406 34.9737 40.79 34.9737 36.2873C34.9737 31.7839 38.6627 28.1333 43.2134 28.1333C47.7641 28.1333 51.453 31.7839 51.453 36.2873C51.453 40.79 47.7641 44.4406 43.2134 44.4406ZM45.6801 20.5895V13.3359C47.5933 12.4417 48.9334 10.5264 48.9334 8.3036V8.13617C48.9334 5.06842 46.3971 2.55851 43.2972 2.55851H43.1288C40.0288 2.55851 37.4926 5.06842 37.4926 8.13617V8.3036C37.4926 10.5264 38.8327 12.4424 40.7459 13.3367V20.5895C37.8974 21.0252 35.2947 22.1879 33.1482 23.899L13.0235 8.40687C13.1563 7.90223 13.2496 7.38273 13.2504 6.83662C13.2536 3.36281 10.4121 0.542296 6.90029 0.537602C3.39002 0.53369 0.539113 3.34638 0.53516 6.82097C0.531207 10.2956 3.37263 13.1161 6.88448 13.12C8.02848 13.1216 9.08788 12.8 10.016 12.2774L29.8119 27.5175C28.1287 30.0321 27.142 33.0443 27.142 36.2873C27.142 39.6821 28.226 42.8226 30.057 45.4053L24.0374 51.3632C23.5614 51.2216 23.0681 51.123 22.5447 51.123C19.6598 51.123 17.3204 53.4373 17.3204 56.2922C17.3204 59.1479 19.6598 61.4623 22.5447 61.4623C25.4304 61.4623 27.769 59.1479 27.769 56.2922C27.769 55.7759 27.6694 55.2869 27.5263 54.8159L33.4811 48.9229C36.1842 50.9642 39.5505 52.1909 43.2134 52.1909C52.0895 52.1909 59.2839 45.0704 59.2839 36.2873C59.2839 28.3359 53.3813 21.767 45.6801 20.5895Z" fill="#FF7A59"/>
</svg>
