<svg width="86" height="60" viewBox="0 0 86 60" fill="none" xmlns="http://www.w3.org/2000/svg">
<mask id="mask0_483_3122" style="mask-type:alpha" maskUnits="userSpaceOnUse" x="0" y="0" width="86" height="60">
<path d="M0.0664062 0.0668945H85.6046V59.9333H0.0664062V0.0668945Z" fill="white"/>
</mask>
<g mask="url(#mask0_483_3122)">
<path fill-rule="evenodd" clip-rule="evenodd" d="M35.6505 6.59832C38.4096 3.72383 42.2514 1.94016 46.4999 1.94016C52.1474 1.94016 57.0753 5.0894 59.6986 9.76517C62.0458 8.71633 64.5884 8.17576 67.1593 8.17891C77.3457 8.17891 85.6039 16.5091 85.6039 26.7855C85.6039 37.0619 77.3457 45.3924 67.1593 45.3924C65.9154 45.3924 64.7007 45.2672 63.5256 45.0302C61.2154 49.1511 56.8112 51.936 51.7576 51.936C49.7135 51.9389 47.6958 51.4745 45.8587 50.5783C43.5167 56.0887 38.0582 59.9522 31.6984 59.9522C25.0739 59.9522 19.428 55.7612 17.2624 49.8833C16.2972 50.0869 15.3134 50.1893 14.3269 50.1888C6.43998 50.1888 0.046875 43.7288 0.046875 35.7601C0.046875 30.4191 2.91885 25.7563 7.18753 23.2618C6.28313 21.1793 5.81773 18.9326 5.82038 16.6622C5.82038 7.49707 13.2603 0.0668945 22.4377 0.0668945C27.8258 0.0668945 32.6144 2.62829 35.6505 6.59832Z" fill="#00A1E0"/>
<path fill-rule="evenodd" clip-rule="evenodd" d="M12.4374 31.1225C12.3837 31.2627 12.4566 31.2919 12.4739 31.3167C12.6345 31.433 12.7977 31.5173 12.9624 31.6119C13.8347 32.0737 14.6593 32.2092 15.5206 32.2092C17.2757 32.2092 18.3659 31.2762 18.3659 29.7735V29.744C18.3659 28.3545 17.1352 27.8497 15.9818 27.4853L15.8312 27.4366C14.9614 27.1543 14.2107 26.9101 14.2107 26.337V26.3077C14.2107 25.817 14.6496 25.4565 15.3295 25.4565C16.0855 25.4565 16.9815 25.7076 17.5593 26.0267C17.5593 26.0267 17.7296 26.1367 17.7916 25.9723C17.8252 25.8834 18.1172 25.0968 18.1484 25.0116C18.1817 24.9195 18.1232 24.8501 18.0632 24.8142C17.4033 24.4122 16.492 24.1387 15.5486 24.1387L15.3735 24.1393C13.7671 24.1393 12.6455 25.1107 12.6455 26.5008V26.5306C12.6455 27.9955 13.8828 28.4718 15.0419 28.8028L15.228 28.8607C16.072 29.1197 16.801 29.3435 16.801 29.9373V29.9669C16.801 30.5107 16.3273 30.9147 15.5643 30.9147C15.2685 30.9147 14.3242 30.9096 13.3038 30.2643C13.1802 30.1923 13.1098 30.1404 13.0146 30.0822C12.9643 30.0518 12.8385 29.9967 12.7838 30.1615L12.4374 31.1225ZM38.1299 31.1225C38.0762 31.2627 38.1491 31.2919 38.167 31.3167C38.327 31.433 38.4905 31.5173 38.6549 31.6119C39.5276 32.0737 40.3521 32.2092 41.2132 32.2092C42.9682 32.2092 44.0587 31.2762 44.0587 29.7735V29.744C44.0587 28.3545 42.8283 27.8497 41.6746 27.4853L41.5241 27.4366C40.6542 27.1543 39.9032 26.9101 39.9032 26.337V26.3077C39.9032 25.817 40.3424 25.4565 41.0227 25.4565C41.7784 25.4565 42.674 25.7076 43.2518 26.0267C43.2518 26.0267 43.4221 26.1367 43.4844 25.9723C43.5177 25.8834 43.8101 25.0968 43.8409 25.0116C43.8745 24.9195 43.8157 24.8501 43.756 24.8142C43.0958 24.4122 42.1848 24.1387 41.2414 24.1387L41.066 24.1393C39.46 24.1393 38.3383 25.1107 38.3383 26.5008V26.5306C38.3383 27.9955 39.5753 28.4718 40.7347 28.8028L40.9205 28.8607C41.7649 29.1197 42.4938 29.3435 42.4938 29.9373V29.9669C42.4938 30.5107 42.0198 30.9147 41.2575 30.9147C40.961 30.9147 40.0167 30.9096 38.9966 30.2643C38.8731 30.1923 38.8008 30.1426 38.7071 30.0822C38.6753 30.0621 38.5273 30.0043 38.4767 30.1615L38.1299 31.1225ZM55.6696 28.1788C55.6696 29.0276 55.5111 29.6978 55.1999 30.1703C54.8906 30.6387 54.4238 30.8666 53.7727 30.8666C53.1217 30.8666 52.6574 30.639 52.3531 30.1709C52.0459 29.6981 51.89 29.0276 51.89 28.1788C51.89 27.3307 52.0459 26.6627 52.3531 26.1949C52.6574 25.7312 53.1217 25.5061 53.7727 25.5061C54.4238 25.5061 54.8906 25.7315 55.1999 26.1952C55.5117 26.6627 55.6696 27.3307 55.6696 28.1788ZM57.1351 26.6048C56.9908 26.1179 56.7667 25.6894 56.4683 25.332C56.1694 24.9736 55.7912 24.6853 55.3429 24.4766C54.8953 24.2676 54.3672 24.1616 53.7727 24.1616C53.1783 24.1616 52.6498 24.2676 52.2019 24.4766C51.7542 24.6853 51.3757 24.9736 51.0768 25.3326C50.7788 25.6907 50.554 26.1185 50.4103 26.6048C50.2673 27.088 50.1947 27.6177 50.1947 28.1788C50.1947 28.7403 50.2673 29.2703 50.4103 29.7528C50.554 30.2388 50.7781 30.667 51.0771 31.0256C51.376 31.3846 51.7555 31.6704 52.2025 31.8741C52.6508 32.0778 53.1789 32.1815 53.7727 32.1815C54.3669 32.1815 54.8943 32.0778 55.3423 31.8741C55.79 31.6704 56.1688 31.3846 56.4683 31.0256C56.7667 30.6682 56.9908 30.2394 57.1351 29.7528C57.2778 29.2693 57.3504 28.7396 57.3504 28.1788C57.3504 27.6183 57.2778 27.0883 57.1351 26.6048ZM69.1646 30.6393C69.1166 30.4969 68.9776 30.5506 68.9776 30.5506C68.7648 30.6321 68.5384 30.7075 68.2964 30.7452C68.0524 30.7836 67.7824 30.8028 67.4935 30.8028C66.7853 30.8028 66.221 30.5918 65.8183 30.175C65.4137 29.7578 65.1864 29.0838 65.189 28.1722C65.1912 27.3436 65.3917 26.7192 65.7513 26.2433C66.1078 25.7705 66.6523 25.5278 67.3763 25.5278C67.9808 25.5278 68.4419 25.5979 68.9251 25.7494C68.9251 25.7494 69.0398 25.7994 69.0949 25.6482C69.2234 25.2921 69.3184 25.0387 69.4554 24.6473C69.4944 24.5357 69.3988 24.4886 69.364 24.475C69.1741 24.4008 68.7255 24.2792 68.3869 24.228C68.0704 24.1795 67.7004 24.1544 67.2876 24.1544C66.6724 24.1544 66.1239 24.2597 65.6548 24.4684C65.1868 24.6769 64.7897 24.9648 64.475 25.3229C64.1604 25.6815 63.9208 26.11 63.7624 26.596C63.6036 27.0795 63.5235 27.6101 63.5235 28.1728C63.5235 29.3878 63.8514 30.3696 64.498 31.0888C65.1468 31.8106 66.1201 32.1771 67.3904 32.1771C68.1408 32.1771 68.9106 32.0253 69.4652 31.8071C69.4652 31.8071 69.5708 31.7562 69.5249 31.633L69.1646 30.6393ZM71.7279 27.3649C71.798 26.8931 71.9272 26.5011 72.1287 26.1949C72.4327 25.7312 72.8955 25.4756 73.5465 25.4756C74.1978 25.4756 74.6269 25.7315 74.9363 26.1952C75.1406 26.5017 75.2299 26.9101 75.2648 27.3656L71.7279 27.3649ZM76.6599 26.3285C76.5351 25.8588 76.2277 25.3845 76.0255 25.1676C75.7065 24.8237 75.394 24.5829 75.0837 24.4499C74.6347 24.259 74.1517 24.161 73.6637 24.1616C73.0448 24.1616 72.4824 24.2663 72.0263 24.4801C71.5695 24.6945 71.1857 24.9874 70.8848 25.3515C70.5833 25.7152 70.3573 26.1481 70.213 26.6391C70.0684 27.1273 69.9955 27.6595 69.9955 28.2216C69.9955 28.7931 70.0713 29.3259 70.2203 29.805C70.3708 30.2882 70.6126 30.7122 70.9389 31.0652C71.2649 31.4195 71.6845 31.6974 72.1859 31.8911C72.6848 32.0844 73.2909 32.1847 73.986 32.1825C75.4188 32.1778 76.1723 31.8584 76.4835 31.6864C76.5386 31.6556 76.5904 31.6025 76.5257 31.4494L76.2012 30.5415C76.1516 30.406 76.0145 30.4551 76.0145 30.4551C75.659 30.5877 75.1557 30.8244 73.9787 30.8219C73.2098 30.8207 72.6402 30.5934 72.2821 30.2385C71.9159 29.8754 71.7361 29.3422 71.7056 28.589L76.6637 28.5928C76.6637 28.5928 76.7944 28.5916 76.808 28.4639C76.8133 28.4111 76.978 27.4454 76.6599 26.3285ZM32.0122 27.3649C32.0823 26.8931 32.2118 26.5011 32.413 26.1949C32.7173 25.7312 33.1794 25.4756 33.8311 25.4756C34.4824 25.4756 34.9115 25.7315 35.2209 26.1952C35.4249 26.5017 35.5142 26.9101 35.549 27.3656L32.0122 27.3649ZM36.9442 26.3285C36.8197 25.8588 36.5119 25.3845 36.3101 25.1676C35.991 24.8237 35.6789 24.5829 35.3683 24.4499C34.9192 24.2591 34.4362 24.1611 33.9483 24.1616C33.3294 24.1616 32.767 24.2663 32.3108 24.4801C31.8541 24.6945 31.4702 24.9874 31.1688 25.3515C30.8679 25.7152 30.6419 26.1481 30.497 26.6391C30.3527 27.1273 30.2801 27.6595 30.2801 28.2216C30.2801 28.7931 30.3552 29.3259 30.5052 29.805C30.6554 30.2882 30.8975 30.7122 31.2232 31.0652C31.5495 31.4195 31.9688 31.6974 32.4702 31.8911C32.9694 32.0844 33.5749 32.1847 34.2705 32.1825C35.7031 32.1778 36.4569 31.8584 36.7681 31.6864C36.8228 31.6556 36.875 31.6025 36.8099 31.4494L36.4858 30.5415C36.4358 30.406 36.2988 30.4551 36.2988 30.4551C35.9436 30.5877 35.4403 30.8244 34.263 30.8219C33.4944 30.8207 32.9245 30.5934 32.5664 30.2385C32.2005 29.8754 32.0204 29.3422 31.9899 28.589L36.9483 28.5928C36.9483 28.5928 37.079 28.5916 37.0925 28.4639C37.0979 28.4111 37.2626 27.4454 36.9442 26.3285ZM21.2935 30.6123C21.0989 30.457 21.0719 30.4189 21.0075 30.318C20.9091 30.1662 20.8588 29.9499 20.8588 29.673C20.8588 29.2376 21.0034 28.9238 21.3014 28.7132C21.2982 28.7138 21.7289 28.3416 22.7396 28.3548C23.1904 28.3629 23.6402 28.4012 24.086 28.4696V30.7235H24.0866C24.0866 30.7235 23.4563 30.859 22.7468 30.9018C21.7383 30.9625 21.2904 30.6113 21.2935 30.6123ZM23.2667 27.1273C23.0656 27.1125 22.805 27.1053 22.4925 27.1053C22.0678 27.1053 21.6569 27.1581 21.2712 27.2618C20.8839 27.3662 20.5356 27.5278 20.236 27.7419C19.9366 27.9557 19.6904 28.2356 19.5164 28.5598C19.3407 28.8871 19.2511 29.2715 19.2511 29.7025C19.2511 30.1423 19.3275 30.5233 19.4784 30.8345C19.626 31.1431 19.8483 31.4099 20.125 31.611C20.4007 31.8115 20.7409 31.9587 21.1354 32.0486C21.5249 32.1375 21.9662 32.1825 22.4485 32.1825C22.9577 32.1825 23.4642 32.1397 23.9549 32.057C24.3729 31.985 24.7893 31.9041 25.2038 31.8144C25.3692 31.7763 25.5515 31.7263 25.5515 31.7263C25.6741 31.6952 25.6647 31.5641 25.6647 31.5641L25.6618 27.0292C25.6618 26.0346 25.3965 25.2977 24.8737 24.84C24.3535 24.3845 23.5874 24.1544 22.5962 24.1544C22.224 24.1544 21.6261 24.2047 21.2671 24.2767C21.2671 24.2767 20.1845 24.4867 19.7387 24.8359C19.7387 24.8359 19.6406 24.8963 19.6941 25.033L20.0452 25.9761C20.0889 26.0984 20.208 26.0566 20.208 26.0566C20.208 26.0566 20.2454 26.0418 20.2895 26.0157C21.2432 25.497 22.45 25.5124 22.45 25.5124C22.9857 25.5124 23.3985 25.6209 23.6757 25.8331C23.9464 26.0409 24.0838 26.3536 24.0838 27.0147V27.2244C23.6584 27.1628 23.2667 27.1273 23.2667 27.1273ZM63.2641 24.5725C63.2713 24.5559 63.275 24.5381 63.2751 24.52C63.2752 24.502 63.2717 24.4841 63.2648 24.4674C63.2578 24.4507 63.2476 24.4357 63.2347 24.423C63.2218 24.4104 63.2065 24.4005 63.1896 24.3939C63.1051 24.3619 62.6835 24.2729 62.3585 24.2528C61.7351 24.2138 61.3896 24.3188 61.0797 24.4584C60.7722 24.597 60.4318 24.8211 60.2419 25.0767L60.2413 24.4719C60.2413 24.3889 60.1825 24.3219 60.0989 24.3219H58.8276C58.7452 24.3219 58.6855 24.3889 58.6855 24.4719V31.8694C58.6856 31.9093 58.7015 31.9475 58.7297 31.9758C58.7579 32.004 58.7962 32.0199 58.8361 32.02H60.1391C60.179 32.0199 60.2172 32.004 60.2454 31.9757C60.2735 31.9475 60.2894 31.9093 60.2894 31.8694V28.1741C60.2894 27.6777 60.3441 27.1832 60.4531 26.8723C60.5607 26.5646 60.7068 26.3194 60.8879 26.143C61.0595 25.9728 61.2695 25.8464 61.5003 25.7746C61.7166 25.7125 61.9404 25.681 62.1655 25.6809C62.4248 25.6809 62.7102 25.7476 62.7102 25.7476C62.8058 25.7582 62.8589 25.6998 62.8913 25.6136C62.9765 25.387 63.2179 24.7077 63.2641 24.5725Z" fill="#FFFFFE"/>
<path fill-rule="evenodd" clip-rule="evenodd" d="M51.0348 21.1438C50.8739 21.0952 50.7103 21.0564 50.5447 21.0275C50.322 20.9903 50.0965 20.9729 49.8707 20.9753C48.9739 20.9753 48.2669 21.2287 47.7705 21.7292C47.2776 22.2258 46.9422 22.9825 46.774 23.9781L46.7133 24.3141H45.5876C45.5876 24.3141 45.4502 24.3085 45.4213 24.4584L45.2365 25.4895C45.2236 25.5882 45.266 25.6498 45.398 25.6492H46.4939L45.382 31.8556C45.2949 32.3554 45.1953 32.7666 45.0849 33.0781C44.9762 33.3856 44.8699 33.616 44.7391 33.7832C44.6125 33.9451 44.4924 34.0643 44.2852 34.1337C44.1142 34.1913 43.9174 34.2177 43.7018 34.2177C43.5817 34.2177 43.422 34.1976 43.3041 34.174C43.1862 34.1507 43.1249 34.1243 43.0366 34.0872C43.0366 34.0872 42.908 34.0382 42.8574 34.1671C42.8162 34.2724 42.5242 35.0756 42.4896 35.1749C42.4544 35.273 42.5037 35.3503 42.566 35.3726C42.7118 35.4248 42.8203 35.4581 43.019 35.505C43.295 35.57 43.5276 35.5741 43.7455 35.5741C44.2019 35.5741 44.6178 35.51 44.9627 35.3855C45.3097 35.2601 45.6118 35.0416 45.879 34.7458C46.1679 34.4267 46.3496 34.0926 46.5234 33.6367C46.6954 33.185 46.8419 32.6242 46.9591 31.9706L48.0764 25.6492H49.7098C49.7098 25.6492 49.8475 25.6542 49.8761 25.5049L50.0609 24.4738C50.0738 24.3751 50.0317 24.3135 49.899 24.3141H48.3137C48.3216 24.2783 48.3936 23.7206 48.5756 23.1956C48.6532 22.9715 48.7994 22.7907 48.9233 22.6666C49.0389 22.5483 49.1813 22.4597 49.3385 22.4082C49.5108 22.3549 49.6904 22.329 49.8707 22.3315C50.0201 22.3315 50.1665 22.3494 50.2781 22.3726C50.4319 22.4053 50.4916 22.4226 50.5318 22.4346C50.6934 22.4839 50.7151 22.4361 50.7469 22.3579L51.126 21.3167C51.1649 21.2048 51.07 21.1577 51.0348 21.1438ZM28.8807 31.8688C28.8807 31.9518 28.8216 32.0194 28.7386 32.0194H27.4237C27.3404 32.0194 27.2812 31.9518 27.2812 31.8688V21.285C27.2812 21.2023 27.3404 21.1353 27.4237 21.1353H28.7386C28.8216 21.1353 28.8807 21.2023 28.8807 21.285V31.8688Z" fill="#FFFFFE"/>
</g>
</svg>
