<svg width="66" height="66" viewBox="0 0 66 66" fill="none" xmlns="http://www.w3.org/2000/svg">
<path fill-rule="evenodd" clip-rule="evenodd" d="M24.3789 0.682617C20.8061 0.685253 17.9146 3.5789 17.9172 7.14457C17.9146 10.7102 20.8087 13.6039 24.3815 13.6065H30.8459V7.14721C30.8485 3.58154 27.9543 0.687888 24.3789 0.682617C24.3815 0.682617 24.3815 0.682617 24.3789 0.682617V0.682617ZM24.3789 17.918H7.14597C3.57317 17.9206 0.679007 20.8143 0.681648 24.38C0.676367 27.9456 3.57053 30.8393 7.14333 30.8446H24.3789C27.9517 30.8419 30.8459 27.9483 30.8432 24.3826C30.8459 20.8143 27.9517 17.9206 24.3789 17.918Z" fill="#36C5F0"/>
<path fill-rule="evenodd" clip-rule="evenodd" d="M65.3159 24.38C65.3186 20.8143 62.4244 17.9206 58.8516 17.918C55.2788 17.9206 52.3846 20.8143 52.3873 24.38V30.8446H58.8516C62.4244 30.8419 65.3186 27.9483 65.3159 24.38ZM48.0803 24.38V7.14457C48.083 3.58154 45.1915 0.687888 41.6186 0.682617C38.0458 0.685253 35.1517 3.5789 35.1543 7.14457V24.38C35.149 27.9456 38.0432 30.8393 41.616 30.8446C45.1888 30.8419 48.083 27.9483 48.0803 24.38Z" fill="#2EB67D"/>
<path fill-rule="evenodd" clip-rule="evenodd" d="M41.6186 65.3159C45.1914 65.3133 48.0856 62.4197 48.083 58.854C48.0856 55.2883 45.1914 52.3947 41.6186 52.392H35.1543V58.854C35.1517 62.417 38.0458 65.3107 41.6186 65.3159ZM41.6186 48.0779H58.8542C62.427 48.0753 65.3212 45.1816 65.3185 41.616C65.3238 38.0503 62.4296 35.1566 58.8568 35.1514H41.6213C38.0485 35.154 35.1543 38.0476 35.1569 41.6133C35.1543 45.1816 38.0458 48.0753 41.6186 48.0779V48.0779Z" fill="#ECB22E"/>
<path fill-rule="evenodd" clip-rule="evenodd" d="M0.681642 41.6163C0.679002 45.1819 3.57316 48.0756 7.14598 48.0782C10.7188 48.0756 13.613 45.1819 13.6103 41.6163V35.1543H7.14598C3.57316 35.1569 0.679002 38.0506 0.681642 41.6163ZM17.9172 41.6163V58.8517C17.9119 62.4174 20.8061 65.311 24.3789 65.3163C27.9517 65.3136 30.8459 62.42 30.8433 58.8543V41.6215C30.8485 38.0559 27.9544 35.1622 24.3816 35.1569C20.8061 35.1569 17.9146 38.0506 17.9172 41.6163C17.9172 41.6163 17.9172 41.6189 17.9172 41.6163Z" fill="#E01E5A"/>
</svg>
