<svg width="29" height="28" viewBox="0 0 29 28" fill="none" xmlns="http://www.w3.org/2000/svg">
<g clip-path="url(#clip0_6777_4758)">
<path d="M21.7715 0H6.89648C6.31632 0 5.75992 0.230468 5.34969 0.640704C4.93945 1.05094 4.70898 1.60734 4.70898 2.1875V25.8125C4.70898 26.3927 4.93945 26.9491 5.34969 27.3593C5.75992 27.7695 6.31632 28 6.89648 28H21.7715C22.3516 28 22.908 27.7695 23.3183 27.3593C23.7285 26.9491 23.959 26.3927 23.959 25.8125V2.1875C23.959 1.60734 23.7285 1.05094 23.3183 0.640704C22.908 0.230468 22.3516 0 21.7715 0ZM21.7715 25.8125H6.89648V2.1875H21.7715V25.8125Z" fill="#4F3895"/>
<path d="M14.3336 23.625C15.1068 23.625 15.7336 23.0374 15.7336 22.3125C15.7336 21.5876 15.1068 21 14.3336 21C13.5604 21 12.9336 21.5876 12.9336 22.3125C12.9336 23.0374 13.5604 23.625 14.3336 23.625Z" fill="#4F3895"/>
</g>
<defs>
<clipPath id="clip0_6777_4758">
<rect width="28" height="28" fill="white" transform="translate(0.333984)"/>
</clipPath>
</defs>
</svg>
