<svg width="64" height="66" viewBox="0 0 64 66" fill="none" xmlns="http://www.w3.org/2000/svg">
<g filter="url(#filter0_d_238_8050)">
<path d="M9.33867 5.68C9.936 5.32533 11.056 4.80267 11.84 4.52267L13.24 4.03733L50.5733 4L52.0667 4.52267C52.888 4.80267 54.0453 5.32533 54.6427 5.68C55.24 6.03467 56.1733 6.8 56.7333 7.36C57.2933 7.92 58.04 8.89067 58.4133 9.50667C58.7867 10.1227 59.2907 11.2987 60 13.6133V31.9067C60 49.8453 60 50.2187 59.608 51.6C59.4027 52.3653 58.9547 53.504 58.6373 54.12C58.3013 54.792 57.48 55.8187 56.64 56.64C55.8373 57.4613 54.7733 58.2827 54.12 58.6187C53.504 58.936 52.44 59.384 51.7493 59.608C50.4987 60 50.312 60 13.52 60L12.0827 59.5333C11.28 59.272 10.1787 58.8053 9.656 58.5067C9.11467 58.1893 8.144 57.4613 7.50933 56.8453C6.856 56.248 6.016 55.2213 5.624 54.568C5.232 53.9147 4.70933 52.7013 4 50.3867V32.0933C4 14.1547 4 13.7813 4.392 12.4C4.59733 11.6347 5.04533 10.496 5.36267 9.88C5.69867 9.264 6.48267 8.21867 7.11733 7.54667C7.73333 6.87467 8.74133 6.03467 9.33867 5.68Z" fill="#574BCA"/>
<path d="M28.2672 16.4132C28.5286 15.8719 29.0139 15.2932 29.3686 15.0692C29.7979 14.7892 30.3019 14.6399 30.8246 14.6399C31.2726 14.6399 31.8512 14.7332 32.1499 14.8452C32.4299 14.9386 32.9339 15.3119 33.2699 15.6292C33.6059 15.9652 34.0539 16.6932 34.2592 17.2532C34.5579 18.0372 34.6326 18.7279 34.6326 20.1466C34.6326 21.3039 34.4832 22.6852 34.2592 23.7866C34.0539 24.7572 33.6992 26.1946 33.0646 28.3599L33.5872 29.2932C33.8859 29.8159 34.7259 31.0292 35.4726 31.9999C36.2192 32.9706 37.0592 34.0159 37.8806 34.8186L39.4672 34.6319C40.3446 34.5199 42.0246 34.4266 43.2006 34.4266C44.4326 34.4266 45.8512 34.5572 46.5232 34.7066C47.1579 34.8559 47.9979 35.1359 48.3899 35.3412C48.7632 35.5279 49.3046 35.9386 49.6032 36.2746C49.8832 36.5919 50.1819 37.1332 50.2752 37.4692C50.3686 37.8052 50.3686 38.3839 50.2939 38.8132C50.1819 39.2986 49.9019 39.7652 49.4726 40.1759C49.0992 40.4932 48.4459 40.8666 48.0166 40.9786C47.5499 41.1092 46.5792 41.1466 45.7206 41.0906C44.8059 41.0346 43.6859 40.7919 42.8272 40.4932C42.0619 40.2132 41.0166 39.7466 40.4939 39.4666C39.9899 39.1679 39.0192 38.5519 38.3472 38.0666C37.2646 37.2826 37.0592 37.2079 36.4806 37.3199C36.1323 37.3749 34.8665 37.6818 33.6546 37.9756L33.5872 37.9919C32.3552 38.2906 30.6752 38.7572 28.3606 39.4479L27.4272 40.9972C26.9232 41.8559 26.0272 43.1812 25.4486 43.9466C24.8699 44.7119 23.8059 45.9252 23.1152 46.6159C22.2566 47.4559 21.3792 48.1092 20.5206 48.5386C19.5312 49.0239 18.9899 49.1732 18.2806 49.1732C17.7766 49.1732 17.0112 49.0239 16.6006 48.8372C16.1899 48.6506 15.6672 48.2586 15.4432 47.9412C15.2192 47.6426 14.9766 47.0639 14.9019 46.6532C14.8272 46.1306 14.8832 45.6452 15.1259 45.0666C15.3126 44.5999 15.8912 43.7972 16.4139 43.2932C16.9179 42.7706 18.0192 41.9306 18.8406 41.4266C19.6806 40.9039 21.3232 40.0266 22.5179 39.4666C24.6272 38.4586 24.7019 38.4212 25.2432 37.4132C25.5606 36.8532 26.2699 35.3412 26.8299 34.0532C27.3899 32.7652 28.2486 30.6372 29.5926 26.8666L29.1259 25.6532C28.8646 24.9812 28.4726 23.7679 28.2486 22.9466C27.9686 21.9012 27.8379 20.8372 27.8192 19.3999C27.8006 17.5519 27.8566 17.2532 28.2672 16.4132Z" fill="white"/>
<path d="M32.8032 45.8132C32.9899 45.5706 33.3259 45.3279 33.5499 45.2346C33.7739 45.1599 34.3152 45.0852 34.7632 45.0852C35.1926 45.0666 35.6779 45.1039 35.8272 45.1599C35.9952 45.2159 36.1072 45.4772 36.1072 45.7759C36.1072 46.2612 36.0886 46.2799 35.1366 46.2052C34.4832 46.1679 34.0912 46.2239 33.9232 46.3919C33.7739 46.5412 33.6619 46.8399 33.6806 47.0826C33.6806 47.3812 33.9606 47.6612 34.8006 48.1466C35.4726 48.5386 36.0326 49.0239 36.2006 49.3599C36.3499 49.6772 36.4806 50.1439 36.4806 50.4426C36.4806 50.7226 36.3499 51.1332 36.2006 51.3759C36.0512 51.5999 35.6592 51.9172 35.3606 52.0666C35.0619 52.2159 34.4646 52.3466 34.0539 52.3466C33.6432 52.3466 33.1019 52.2719 32.8406 52.1599C32.4859 52.0106 32.3739 51.8426 32.3739 51.4132C32.3739 50.9279 32.4299 50.8719 32.8032 50.9652C33.0272 51.0399 33.5499 51.1332 33.9606 51.1706C34.4459 51.2266 34.7819 51.1706 34.9499 51.0212C35.0806 50.8719 35.1552 50.5546 35.1366 50.2932C35.0992 49.9946 34.8566 49.6959 34.4459 49.4532C34.1099 49.2479 33.5312 48.8372 33.1766 48.5199C32.5979 48.0346 32.5046 47.8479 32.4859 47.1012C32.4672 46.5039 32.5792 46.0932 32.8032 45.8132Z" fill="white"/>
<path d="M37.6006 52.3466V48.7066V45.0666H38.7206L38.6272 52.2532L37.6006 52.3466Z" fill="white"/>
<path d="M40.9046 45.9626C41.1846 45.6826 41.6326 45.3839 41.8939 45.2719C42.1552 45.1786 42.8086 45.0852 43.3499 45.0852C43.8726 45.0666 44.4512 45.1039 44.6006 45.1599C44.7686 45.2159 44.8806 45.4772 44.8806 46.3732L43.9099 46.2426C43.2192 46.1679 42.7152 46.2052 42.2859 46.3919C41.9499 46.5412 41.5392 46.8586 41.3899 47.1199C41.2406 47.3812 41.1286 47.8479 41.1286 48.1466C41.1099 48.4639 41.1099 48.9866 41.1286 49.3226C41.1472 49.7332 41.3339 50.1066 41.8006 50.5732C42.3046 51.0772 42.6032 51.2266 43.7606 51.2266V50.2932C43.7606 49.3786 43.7419 49.3599 43.2006 49.3599C42.6966 49.3599 42.6406 49.3039 42.6966 48.8559C42.7339 48.3519 42.7712 48.3332 44.9739 48.3332L44.9366 50.1066C44.8992 51.0772 44.7872 51.9732 44.6939 52.0666C44.5819 52.1786 44.0032 52.2719 43.4246 52.3092C42.6032 52.3652 42.1739 52.2719 41.5206 51.9359C40.9046 51.6186 40.5686 51.2826 40.2512 50.6666C39.9712 50.1066 39.8406 49.4906 39.8406 48.7999C39.8406 48.2399 39.9526 47.4746 40.1019 47.1199C40.2512 46.7652 40.6059 46.2426 40.9046 45.9626Z" fill="white"/>
<path d="M46.2432 48.8932C46.2246 47.0639 46.2432 45.4399 46.2806 45.3092C46.3366 45.1786 46.6352 45.0666 46.9712 45.0666C47.3072 45.0479 47.6806 45.1599 47.7926 45.2906C47.9046 45.4212 48.4086 46.4292 48.9126 47.5492C49.4166 48.6506 49.8832 49.5466 49.9766 49.5466C50.0512 49.5466 50.1259 48.5572 50.2006 45.1599L51.2272 45.0666V52.3466L49.8459 52.2532L48.8192 49.9759C48.2406 48.7066 47.6992 47.7172 47.5872 47.7359C47.4752 47.7732 47.3819 48.7626 47.3072 52.3466L46.2806 52.2532L46.2432 48.8932Z" fill="white"/>
<path d="M29.6294 18.8773C29.704 17.384 29.76 17.1786 30.208 16.768C30.6187 16.4133 30.7867 16.3573 31.0854 16.5066C31.272 16.6 31.5334 16.8613 31.6267 17.0666C31.7387 17.272 31.8134 17.9626 31.8134 18.5973C31.8134 19.2506 31.664 20.576 31.4587 21.5466C31.2534 22.5171 31.0481 23.5434 30.9921 23.8238L30.992 23.824C30.8987 24.272 30.8427 24.3093 30.6 24.104C30.432 23.992 30.1334 23.1146 29.928 22.2C29.6294 20.9306 29.5547 20.1093 29.6294 18.8773Z" fill="#574BCA"/>
<path d="M30.5814 34.9306C30.9174 34.2026 31.384 33.064 31.6267 32.4106C31.8507 31.776 32.0934 31.2533 32.168 31.2533C32.224 31.2533 32.448 31.5146 32.6534 31.8506C32.8587 32.1866 33.4934 33.0826 34.0907 33.8106C35.0427 35.0053 35.136 35.192 34.856 35.3413C34.6694 35.4346 33.9414 35.64 33.2134 35.7893C32.4854 35.9573 31.5147 36.2186 31.0294 36.3866C30.4507 36.5546 30.096 36.592 30.04 36.48C29.984 36.368 30.2267 35.6773 30.5814 34.9306Z" fill="#574BCA"/>
<path d="M39.6534 36.3866C39.8027 36.3493 40.3627 36.2746 40.8667 36.2186C41.3894 36.1813 42.6214 36.1813 43.6294 36.2186C44.656 36.256 45.72 36.4053 46.0934 36.5733C46.448 36.7226 46.84 37.0213 46.9334 37.2266C47.0454 37.432 47.064 37.824 46.9894 38.104C46.896 38.3653 46.6347 38.72 46.3734 38.888C46.0187 39.0933 45.608 39.1306 44.6934 39.056C43.76 38.9626 43.088 38.7386 41.8 38.0853C40.8854 37.6186 39.952 37.0773 39.7467 36.872C39.4294 36.5546 39.4294 36.4613 39.6534 36.3866Z" fill="#574BCA"/>
<path d="M18.616 43.7786C19.1387 43.368 20.352 42.6213 21.2667 42.0986C22.2 41.576 22.984 41.1466 23.04 41.1466C23.096 41.1466 23.1894 41.2026 23.264 41.2773C23.3387 41.3706 23.0214 41.968 22.536 42.64C22.0694 43.312 21.248 44.3386 20.7254 44.936C20.2027 45.5333 19.4 46.28 18.9334 46.5786C18.4667 46.8773 17.888 47.12 17.6267 47.12C17.3654 47.12 17.048 47.0266 16.9174 46.896C16.7867 46.7653 16.6934 46.448 16.6934 46.1866C16.6934 45.9253 16.9174 45.44 17.16 45.104C17.4214 44.7866 18.0747 44.1706 18.616 43.7786Z" fill="#574BCA"/>
</g>
<defs>
<filter id="filter0_d_238_8050" x="-4" y="-2" width="72" height="72" filterUnits="userSpaceOnUse" color-interpolation-filters="sRGB">
<feFlood flood-opacity="0" result="BackgroundImageFix"/>
<feColorMatrix in="SourceAlpha" type="matrix" values="0 0 0 0 0 0 0 0 0 0 0 0 0 0 0 0 0 0 127 0" result="hardAlpha"/>
<feOffset dy="2"/>
<feGaussianBlur stdDeviation="2"/>
<feColorMatrix type="matrix" values="0 0 0 0 0.0627451 0 0 0 0 0.0941176 0 0 0 0 0.156863 0 0 0 0.05 0"/>
<feBlend mode="normal" in2="BackgroundImageFix" result="effect1_dropShadow_238_8050"/>
<feBlend mode="normal" in="SourceGraphic" in2="effect1_dropShadow_238_8050" result="shape"/>
</filter>
</defs>
</svg>
