<svg width="64" height="66" viewBox="0 0 64 66" fill="none" xmlns="http://www.w3.org/2000/svg">
<g filter="url(#filter0_d_238_8176)">
<g clip-path="url(#clip0_238_8176)">
<path fill-rule="evenodd" clip-rule="evenodd" d="M8.08008 46.964L16.6758 40.3257C21.2716 46.2831 26.1226 49.0916 31.4843 49.0916C36.846 49.0916 41.612 46.3682 45.9524 40.4108L54.7184 46.8789C48.4205 55.3895 40.5907 59.9002 31.4843 59.9002C22.4631 59.9002 14.5482 55.3895 8.08008 46.964Z" fill="url(#paint0_linear_238_8176)"/>
<path fill-rule="evenodd" clip-rule="evenodd" d="M31.4845 18.2829L16.1654 31.4744L9.10156 23.2191L31.5696 3.8999L53.8675 23.2191L46.7186 31.3893L31.4845 18.2829Z" fill="url(#paint1_linear_238_8176)"/>
</g>
</g>
<defs>
<filter id="filter0_d_238_8176" x="-4" y="-2" width="72" height="72" filterUnits="userSpaceOnUse" color-interpolation-filters="sRGB">
<feFlood flood-opacity="0" result="BackgroundImageFix"/>
<feColorMatrix in="SourceAlpha" type="matrix" values="0 0 0 0 0 0 0 0 0 0 0 0 0 0 0 0 0 0 127 0" result="hardAlpha"/>
<feOffset dy="2"/>
<feGaussianBlur stdDeviation="2"/>
<feColorMatrix type="matrix" values="0 0 0 0 0.0627451 0 0 0 0 0.0941176 0 0 0 0 0.156863 0 0 0 0.05 0"/>
<feBlend mode="normal" in2="BackgroundImageFix" result="effect1_dropShadow_238_8176"/>
<feBlend mode="normal" in="SourceGraphic" in2="effect1_dropShadow_238_8176" result="shape"/>
</filter>
<linearGradient id="paint0_linear_238_8176" x1="8.08008" y1="50.1225" x2="54.7563" y2="50.1225" gradientUnits="userSpaceOnUse">
<stop stop-color="#8930FD"/>
<stop offset="1" stop-color="#49CCF9"/>
</linearGradient>
<linearGradient id="paint1_linear_238_8176" x1="9.09756" y1="17.6824" x2="53.8205" y2="17.6824" gradientUnits="userSpaceOnUse">
<stop stop-color="#FF02F0"/>
<stop offset="1" stop-color="#FFC800"/>
</linearGradient>
<clipPath id="clip0_238_8176">
<rect width="46.6383" height="56" fill="white" transform="translate(8.08008 3.8999)"/>
</clipPath>
</defs>
</svg>
