<svg width="65" height="66" viewBox="0 0 65 66" fill="none" xmlns="http://www.w3.org/2000/svg">
<g filter="url(#filter0_d_238_8078)">
<path d="M45.1871 44.1224V58.4406C45.1871 59.1926 44.5797 59.8001 43.8276 59.8001H6.19544C5.44337 59.8001 4.83594 59.1926 4.83594 58.4406V20.8373C4.83594 20.0852 5.44337 19.4778 6.19544 19.4778H20.4847V42.7629C20.4847 43.5149 21.0921 44.1224 21.8442 44.1224H45.1871Z" fill="#4C00FF"/>
<path d="M60.8649 23.9323C60.8649 35.9654 53.836 44.0935 45.1872 44.1224V28.9654C45.1872 28.5315 45.0136 28.0976 44.6955 27.8084L36.8277 19.9406C36.5095 19.6224 36.1046 19.4489 35.6707 19.4489H20.5137V5.15963C20.5137 4.40756 21.1211 3.80013 21.8732 3.80013H43.0756C53.1417 3.7712 60.8649 11.8704 60.8649 23.9323Z" fill="#FF5252"/>
<path d="M44.6955 27.7795C45.0136 28.0977 45.1872 28.5027 45.1872 28.9366V44.0936H21.8732C21.1211 44.0936 20.5137 43.4861 20.5137 42.7341V19.449H35.6707C36.1046 19.449 36.5384 19.6225 36.8277 19.9407L44.6955 27.7795Z" fill="black"/>
</g>
<defs>
<filter id="filter0_d_238_8078" x="-3" y="-2" width="72" height="72" filterUnits="userSpaceOnUse" color-interpolation-filters="sRGB">
<feFlood flood-opacity="0" result="BackgroundImageFix"/>
<feColorMatrix in="SourceAlpha" type="matrix" values="0 0 0 0 0 0 0 0 0 0 0 0 0 0 0 0 0 0 127 0" result="hardAlpha"/>
<feOffset dy="2"/>
<feGaussianBlur stdDeviation="2"/>
<feColorMatrix type="matrix" values="0 0 0 0 0.0627451 0 0 0 0 0.0941176 0 0 0 0 0.156863 0 0 0 0.05 0"/>
<feBlend mode="normal" in2="BackgroundImageFix" result="effect1_dropShadow_238_8078"/>
<feBlend mode="normal" in="SourceGraphic" in2="effect1_dropShadow_238_8078" result="shape"/>
</filter>
</defs>
</svg>
