<svg width="64" height="66" viewBox="0 0 64 66" fill="none" xmlns="http://www.w3.org/2000/svg">
<g filter="url(#filter0_d_238_7803)">
<path d="M4 23.9111C4 16.9416 4 13.4568 5.35636 10.7948C6.54945 8.45321 8.45321 6.54945 10.7948 5.35636C13.4568 4 16.9416 4 23.9111 4H40.0889C47.0584 4 50.5432 4 53.2052 5.35636C55.5468 6.54945 57.4505 8.45321 58.6436 10.7948C60 13.4568 60 16.9416 60 23.9111V40.0889C60 47.0584 60 50.5432 58.6436 53.2052C57.4505 55.5468 55.5468 57.4505 53.2052 58.6436C50.5432 60 47.0584 60 40.0889 60H23.9111C16.9416 60 13.4568 60 10.7948 58.6436C8.45321 57.4505 6.54945 55.5468 5.35636 53.2052C4 50.5432 4 47.0584 4 40.0889V23.9111Z" fill="white"/>
<path d="M48.987 12H42.4844V21.4225H51.9993V14.6569C52.0019 14.6569 51.5291 12.257 48.987 12Z" fill="#1967D2"/>
<path d="M42.4844 51.956V51.9791V51.9996L51.9993 42.5771H51.9141L42.4844 51.956Z" fill="#1967D2"/>
<path d="M51.9985 42.5772V42.4927L51.9141 42.5772H51.9985Z" fill="#FBBC05"/>
<path d="M51.9993 21.4229H42.4844V42.4931H51.9993V21.4229Z" fill="#FBBC05"/>
<path d="M51.9141 42.5771H42.4844V51.956L51.9141 42.5771Z" fill="#EA4335"/>
<path d="M42.4844 42.5772H51.9141L51.9993 42.4927H42.4844V42.5772Z" fill="#EA4335"/>
<path d="M42.4609 51.9796H42.484V51.9565L42.4609 51.9796Z" fill="#34A853"/>
<path d="M21.3008 42.4927V51.9794H42.4621L42.4853 42.4927H21.3008Z" fill="#34A853"/>
<path d="M42.484 42.5775V42.4927L42.4609 51.9794L42.484 51.9563V42.5775Z" fill="#34A853"/>
<path d="M12 42.4927V49.0887C12.0853 51.2291 14.4 51.9794 14.4 51.9794H21.3005V42.4927H12Z" fill="#188038"/>
<path d="M21.3005 21.4225H42.485V12H14.6687C14.6687 12 12.1705 12.257 12 14.9113V42.4927H21.3005V21.4225Z" fill="#4285F4"/>
<path d="M28.233 38.228C27.7483 38.228 27.281 38.1648 26.8309 38.0386C26.3924 37.9123 25.9885 37.723 25.6193 37.4705C25.25 37.2065 24.9211 36.8794 24.6326 36.4891C24.3557 36.0989 24.1422 35.6456 23.9922 35.1291L26.1212 34.2855C26.2712 34.8594 26.5251 35.2955 26.8828 35.5939C27.2406 35.8809 27.6906 36.0243 28.233 36.0243C28.4753 36.0243 28.7061 35.9899 28.9253 35.921C29.1446 35.8407 29.335 35.7316 29.4965 35.5939C29.6581 35.4562 29.785 35.2955 29.8774 35.1119C29.9812 34.9168 30.0331 34.6987 30.0331 34.4577C30.0331 33.9527 29.8427 33.5567 29.4619 33.2698C29.0927 32.9828 28.5792 32.8394 27.9214 32.8394H26.9002V30.7907H27.8349C28.0656 30.7907 28.2907 30.762 28.5099 30.7046C28.7292 30.6472 28.9196 30.5611 29.0811 30.4464C29.2542 30.3201 29.3869 30.1652 29.4792 29.9815C29.5831 29.7864 29.635 29.5626 29.635 29.3101C29.635 28.9199 29.4965 28.6043 29.2196 28.3632C28.9426 28.1107 28.5676 27.9845 28.0945 27.9845C27.5868 27.9845 27.1944 28.1222 26.9175 28.3977C26.6521 28.6617 26.4674 28.9601 26.3636 29.2929L24.2864 28.4493C24.3903 28.1624 24.5461 27.8697 24.7538 27.5713C24.9615 27.2614 25.2211 26.986 25.5327 26.7449C25.8558 26.4924 26.2309 26.2916 26.6578 26.1424C27.0848 25.9817 27.5752 25.9014 28.1291 25.9014C28.6945 25.9014 29.2081 25.9817 29.6696 26.1424C30.1428 26.3031 30.5466 26.5269 30.8813 26.8138C31.2159 27.0893 31.4756 27.4221 31.6602 27.8123C31.8448 28.1911 31.9372 28.6043 31.9372 29.0519C31.9372 29.3962 31.891 29.7061 31.7987 29.9815C31.7179 30.257 31.6083 30.5038 31.4698 30.7218C31.3313 30.9399 31.1698 31.1293 30.9851 31.2899C30.8121 31.4392 30.6332 31.5597 30.4486 31.6515V31.7892C31.0025 32.0073 31.4583 32.3573 31.816 32.8394C32.1853 33.3214 32.3699 33.9297 32.3699 34.6643C32.3699 35.1807 32.2718 35.657 32.0756 36.0932C31.8795 36.5178 31.5967 36.8909 31.2275 37.2122C30.8698 37.5336 30.437 37.7803 29.9293 37.9525C29.4215 38.1361 28.8561 38.228 28.233 38.228Z" fill="#4285F4"/>
<path d="M36.5034 37.9525V28.8281L34.409 29.7061L33.5782 27.7951L37.0573 26.1768H38.771V37.9525H36.5034Z" fill="#4285F4"/>
</g>
<defs>
<filter id="filter0_d_238_7803" x="-4" y="-2" width="72" height="72" filterUnits="userSpaceOnUse" color-interpolation-filters="sRGB">
<feFlood flood-opacity="0" result="BackgroundImageFix"/>
<feColorMatrix in="SourceAlpha" type="matrix" values="0 0 0 0 0 0 0 0 0 0 0 0 0 0 0 0 0 0 127 0" result="hardAlpha"/>
<feOffset dy="2"/>
<feGaussianBlur stdDeviation="2"/>
<feColorMatrix type="matrix" values="0 0 0 0 0.0627451 0 0 0 0 0.0941176 0 0 0 0 0.156863 0 0 0 0.05 0"/>
<feBlend mode="normal" in2="BackgroundImageFix" result="effect1_dropShadow_238_7803"/>
<feBlend mode="normal" in="SourceGraphic" in2="effect1_dropShadow_238_7803" result="shape"/>
</filter>
</defs>
</svg>
