<svg width="64" height="66" viewBox="0 0 64 66" fill="none" xmlns="http://www.w3.org/2000/svg">
<g filter="url(#filter0_d_238_7656)">
<path d="M4 23.9111C4 16.9416 4 13.4568 5.35636 10.7948C6.54945 8.45321 8.45321 6.54945 10.7948 5.35636C13.4568 4 16.9416 4 23.9111 4H40.0889C47.0584 4 50.5432 4 53.2052 5.35636C55.5468 6.54945 57.4505 8.45321 58.6436 10.7948C60 13.4568 60 16.9416 60 23.9111V40.0889C60 47.0584 60 50.5432 58.6436 53.2052C57.4505 55.5468 55.5468 57.4505 53.2052 58.6436C50.5432 60 47.0584 60 40.0889 60H23.9111C16.9416 60 13.4568 60 10.7948 58.6436C8.45321 57.4505 6.54945 55.5468 5.35636 53.2052C4 50.5432 4 47.0584 4 40.0889V23.9111Z" fill="white"/>
<path d="M44.1011 17.0459L32.1269 26.3907L19.8789 17.0459V17.0484L19.8937 17.0611V30.1464L31.9888 39.6932L44.1011 30.5151V17.0459Z" fill="#EA4335"/>
<path d="M47.2462 14.7728L44.1016 17.0458V30.515L53.9966 22.9179V18.3415C53.9966 18.3415 52.7955 11.8052 47.2462 14.7728Z" fill="#FBBC05"/>
<path d="M44.1016 30.5151V47.9849H51.6856C51.6856 47.9849 53.8437 47.7626 53.9991 45.3027V22.918L44.1016 30.5151Z" fill="#34A853"/>
<path d="M19.8943 48.0001V30.1464L19.8789 30.1338L19.8943 48.0001Z" fill="#C5221F"/>
<path d="M19.8803 17.0486L16.7529 14.7881C11.2036 11.8205 10 18.3543 10 18.3543V22.9308L19.8803 30.1339V17.0486Z" fill="#C5221F"/>
<path d="M19.8789 17.0483V30.1336L19.8943 30.1463V17.061L19.8789 17.0483Z" fill="#C5221F"/>
<path d="M10 22.9331V45.3178C10.1529 47.7803 12.3135 48 12.3135 48H19.8975L19.8803 30.1337L10 22.9331Z" fill="#4285F4"/>
</g>
<defs>
<filter id="filter0_d_238_7656" x="-4" y="-2" width="72" height="72" filterUnits="userSpaceOnUse" color-interpolation-filters="sRGB">
<feFlood flood-opacity="0" result="BackgroundImageFix"/>
<feColorMatrix in="SourceAlpha" type="matrix" values="0 0 0 0 0 0 0 0 0 0 0 0 0 0 0 0 0 0 127 0" result="hardAlpha"/>
<feOffset dy="2"/>
<feGaussianBlur stdDeviation="2"/>
<feColorMatrix type="matrix" values="0 0 0 0 0.0627451 0 0 0 0 0.0941176 0 0 0 0 0.156863 0 0 0 0.05 0"/>
<feBlend mode="normal" in2="BackgroundImageFix" result="effect1_dropShadow_238_7656"/>
<feBlend mode="normal" in="SourceGraphic" in2="effect1_dropShadow_238_7656" result="shape"/>
</filter>
</defs>
</svg>
