<svg width="64" height="64" viewBox="0 0 64 64" fill="none" xmlns="http://www.w3.org/2000/svg">
<mask id="mask0_127_10253" style="mask-type:alpha" maskUnits="userSpaceOnUse" x="9" y="0" width="46" height="64">
<path d="M37.8603 0.915527H13.8404C11.509 0.915527 9.60156 2.82299 9.60156 5.15434V58.8459C9.60156 61.1772 11.509 63.0847 13.8404 63.0847H50.5767C52.908 63.0847 54.8155 61.1772 54.8155 58.8459V17.8708L37.8603 0.915527Z" fill="white"/>
</mask>
<g mask="url(#mask0_127_10253)">
<path d="M37.8603 0.915527H13.8404C11.509 0.915527 9.60156 2.82299 9.60156 5.15434V58.8459C9.60156 61.1772 11.509 63.0847 13.8404 63.0847H50.5767C52.908 63.0847 54.8155 61.1772 54.8155 58.8459V17.8708L44.9249 10.806L37.8603 0.915527Z" fill="#0F9D58"/>
</g>
<mask id="mask1_127_10253" style="mask-type:alpha" maskUnits="userSpaceOnUse" x="9" y="0" width="46" height="64">
<path d="M37.8603 0.915527H13.8404C11.509 0.915527 9.60156 2.82299 9.60156 5.15434V58.8459C9.60156 61.1772 11.509 63.0847 13.8404 63.0847H50.5767C52.908 63.0847 54.8155 61.1772 54.8155 58.8459V17.8708L37.8603 0.915527Z" fill="white"/>
</mask>
<g mask="url(#mask1_127_10253)">
<path d="M20.9062 31.2939V51.7815H43.5132V31.2939H20.9062ZM30.7968 48.9556H23.7322V45.4233H30.7968V48.9556ZM30.7968 43.3039H23.7322V39.7715H30.7968V43.3039ZM30.7968 37.6522H23.7322V34.1198H30.7968V37.6522ZM40.6874 48.9556H33.6227V45.4233H40.6874V48.9556ZM40.6874 43.3039H33.6227V39.7715H40.6874V43.3039ZM40.6874 37.6522H33.6227V34.1198H40.6874V37.6522Z" fill="#F1F1F1"/>
</g>
<mask id="mask2_127_10253" style="mask-type:alpha" maskUnits="userSpaceOnUse" x="9" y="0" width="46" height="64">
<path d="M37.8603 0.915527H13.8404C11.509 0.915527 9.60156 2.82299 9.60156 5.15434V58.8459C9.60156 61.1772 11.509 63.0847 13.8404 63.0847H50.5767C52.908 63.0847 54.8155 61.1772 54.8155 58.8459V17.8708L37.8603 0.915527Z" fill="white"/>
</mask>
<g mask="url(#mask2_127_10253)">
<path d="M39.1016 16.6309L54.817 32.3427V17.8707L39.1016 16.6309Z" fill="url(#paint0_linear_127_10253)"/>
</g>
<mask id="mask3_127_10253" style="mask-type:alpha" maskUnits="userSpaceOnUse" x="9" y="0" width="46" height="64">
<path d="M37.8603 0.915527H13.8404C11.509 0.915527 9.60156 2.82299 9.60156 5.15434V58.8459C9.60156 61.1772 11.509 63.0847 13.8404 63.0847H50.5767C52.908 63.0847 54.8155 61.1772 54.8155 58.8459V17.8708L37.8603 0.915527Z" fill="white"/>
</mask>
<g mask="url(#mask3_127_10253)">
<path d="M37.8633 0.915527V13.632C37.8633 15.9739 39.7601 17.8708 42.1021 17.8708H54.8185L37.8633 0.915527Z" fill="#87CEAC"/>
</g>
<mask id="mask4_127_10253" style="mask-type:alpha" maskUnits="userSpaceOnUse" x="9" y="0" width="46" height="64">
<path d="M37.8603 0.915527H13.8404C11.509 0.915527 9.60156 2.82299 9.60156 5.15434V58.8459C9.60156 61.1772 11.509 63.0847 13.8404 63.0847H50.5767C52.908 63.0847 54.8155 61.1772 54.8155 58.8459V17.8708L37.8603 0.915527Z" fill="white"/>
</mask>
<g mask="url(#mask4_127_10253)">
<path d="M13.8404 0.915527C11.509 0.915527 9.60156 2.82299 9.60156 5.15434V5.50757C9.60156 3.17623 11.509 1.26876 13.8404 1.26876H37.8603V0.915527H13.8404Z" fill="white" fill-opacity="0.2"/>
</g>
<mask id="mask5_127_10253" style="mask-type:alpha" maskUnits="userSpaceOnUse" x="9" y="0" width="46" height="64">
<path d="M37.8603 0.915527H13.8404C11.509 0.915527 9.60156 2.82299 9.60156 5.15434V58.8459C9.60156 61.1772 11.509 63.0847 13.8404 63.0847H50.5767C52.908 63.0847 54.8155 61.1772 54.8155 58.8459V17.8708L37.8603 0.915527Z" fill="white"/>
</mask>
<g mask="url(#mask5_127_10253)">
<path d="M50.5767 62.7315H13.8404C11.509 62.7315 9.60156 60.824 9.60156 58.4927V58.8459C9.60156 61.1773 11.509 63.0847 13.8404 63.0847H50.5767C52.908 63.0847 54.8155 61.1773 54.8155 58.8459V58.4927C54.8155 60.824 52.908 62.7315 50.5767 62.7315Z" fill="#263238" fill-opacity="0.2"/>
</g>
<mask id="mask6_127_10253" style="mask-type:alpha" maskUnits="userSpaceOnUse" x="9" y="0" width="46" height="64">
<path d="M37.8603 0.915527H13.8404C11.509 0.915527 9.60156 2.82299 9.60156 5.15434V58.8459C9.60156 61.1772 11.509 63.0847 13.8404 63.0847H50.5767C52.908 63.0847 54.8155 61.1772 54.8155 58.8459V17.8708L37.8603 0.915527Z" fill="white"/>
</mask>
<g mask="url(#mask6_127_10253)">
<path d="M42.1021 17.8706C39.7601 17.8706 37.8633 15.9737 37.8633 13.6318V13.9851C37.8633 16.327 39.7601 18.2238 42.1021 18.2238H54.8185V17.8706H42.1021Z" fill="#263238" fill-opacity="0.1"/>
</g>
<path d="M37.8603 0.915527H13.8404C11.509 0.915527 9.60156 2.82299 9.60156 5.15434V58.8459C9.60156 61.1772 11.509 63.0847 13.8404 63.0847H50.5767C52.908 63.0847 54.8155 61.1772 54.8155 58.8459V17.8708L37.8603 0.915527Z" fill="url(#paint1_radial_127_10253)"/>
<defs>
<linearGradient id="paint0_linear_127_10253" x1="46.9601" y1="17.9799" x2="46.9601" y2="32.3449" gradientUnits="userSpaceOnUse">
<stop stop-color="#263238" stop-opacity="0.2"/>
<stop offset="1" stop-color="#263238" stop-opacity="0.02"/>
</linearGradient>
<radialGradient id="paint1_radial_127_10253" cx="0" cy="0" r="1" gradientUnits="userSpaceOnUse" gradientTransform="translate(11.034 2.15127) scale(72.9069 72.9069)">
<stop stop-color="white" stop-opacity="0.1"/>
<stop offset="1" stop-color="white" stop-opacity="0"/>
</radialGradient>
</defs>
</svg>
