<svg width="64" height="66" viewBox="0 0 64 66" fill="none" xmlns="http://www.w3.org/2000/svg">
<g filter="url(#filter0_d_238_7858)">
<path d="M4 23.9111C4 16.9416 4 13.4568 5.35636 10.7948C6.54945 8.45321 8.45321 6.54945 10.7948 5.35636C13.4568 4 16.9416 4 23.9111 4H40.0889C47.0584 4 50.5432 4 53.2052 5.35636C55.5468 6.54945 57.4505 8.45321 58.6436 10.7948C60 13.4568 60 16.9416 60 23.9111V40.0889C60 47.0584 60 50.5432 58.6436 53.2052C57.4505 55.5468 55.5468 57.4505 53.2052 58.6436C50.5432 60 47.0584 60 40.0889 60H23.9111C16.9416 60 13.4568 60 10.7948 58.6436C8.45321 57.4505 6.54945 55.5468 5.35636 53.2052C4 50.5432 4 47.0584 4 40.0889V23.9111Z" fill="white"/>
<path d="M16 43.0571V51.0447C16 52.6731 17.3338 53.993 18.9766 53.993H26.911V43.0571H16Z" fill="#188038"/>
<path d="M37.0977 53.9954H45.0247C46.6675 53.9954 48.0013 52.6756 48.0013 51.0472V43.0571H37.0977V53.9954Z" fill="#1967D2"/>
<path d="M37.093 43.0571H26.9102V53.9954H37.093V43.0571Z" fill="#34A853"/>
<path d="M18.9766 10C17.3338 10 16 11.3198 16 12.9482V43.0572H26.911V21.0191H37.0939V10H18.9766Z" fill="#FBBC05"/>
<path d="M48.0013 21.019H37.0977V43.0572H48.0013V21.019Z" fill="#4285F4"/>
<path d="M37.0977 21.0191H47.9989L37.0977 10V21.0191Z" fill="#EA4335"/>
</g>
<defs>
<filter id="filter0_d_238_7858" x="-4" y="-2" width="72" height="72" filterUnits="userSpaceOnUse" color-interpolation-filters="sRGB">
<feFlood flood-opacity="0" result="BackgroundImageFix"/>
<feColorMatrix in="SourceAlpha" type="matrix" values="0 0 0 0 0 0 0 0 0 0 0 0 0 0 0 0 0 0 127 0" result="hardAlpha"/>
<feOffset dy="2"/>
<feGaussianBlur stdDeviation="2"/>
<feColorMatrix type="matrix" values="0 0 0 0 0.0627451 0 0 0 0 0.0941176 0 0 0 0 0.156863 0 0 0 0.05 0"/>
<feBlend mode="normal" in2="BackgroundImageFix" result="effect1_dropShadow_238_7858"/>
<feBlend mode="normal" in="SourceGraphic" in2="effect1_dropShadow_238_7858" result="shape"/>
</filter>
</defs>
</svg>
