<svg width="64" height="64" viewBox="0 0 64 64" fill="none" xmlns="http://www.w3.org/2000/svg">
<path d="M48.0597 21.6644V14.1484C49.053 13.6842 49.8939 12.9474 50.4847 12.0238C51.0755 11.1002 51.3919 10.0279 51.3969 8.93152V8.75906C51.3969 5.56246 48.8056 2.9711 45.6092 2.9711H45.4365C42.2399 2.9711 39.6485 5.56246 39.6485 8.75906V8.93152C39.6536 10.0279 39.9699 11.1002 40.5607 12.0238C41.1515 12.9474 41.9925 13.6842 42.9858 14.1484V21.6644C40.1311 22.1016 37.4426 23.2853 35.1926 25.0956L14.5794 9.04003C14.7263 8.50943 14.803 7.9638 14.8117 7.41613C14.8142 6.1262 14.4341 4.8645 13.7194 3.79063C13.0048 2.71675 11.9877 1.87895 10.7969 1.38318C9.60602 0.88742 8.29488 0.755973 7.02931 1.00547C5.76374 1.25497 4.60059 1.8742 3.687 2.78483C2.7734 3.69547 2.1504 4.8566 1.8968 6.12136C1.6432 7.38612 1.77039 8.69767 2.26229 9.89013C2.75419 11.0826 3.5887 12.1024 4.66025 12.8205C5.7318 13.5386 6.99226 13.9228 8.28219 13.9245C9.41064 13.9191 10.518 13.6179 11.4936 13.0507L31.7917 28.8458C28.0599 34.4832 28.1597 41.8303 32.0431 47.3646L25.8695 53.54C25.3702 53.3805 24.8505 53.2957 24.3266 53.2886C21.3699 53.2911 18.9747 55.6889 18.9755 58.6455C18.9762 61.6019 21.373 63.9984 24.3294 63.9992C27.286 63.9999 29.6838 61.6047 29.6863 58.6481C29.6794 58.1242 29.5945 57.6043 29.4347 57.1054L35.5421 50.9957C40.9991 55.1967 48.494 55.5587 54.3306 51.9031C60.167 48.2472 63.1124 41.3456 61.714 34.6024C60.3155 27.8589 54.8686 22.6981 48.0597 21.6644ZM45.5282 46.3841C44.3999 46.4145 43.277 46.2185 42.2257 45.8077C41.1744 45.3968 40.216 44.7795 39.4072 43.9922C38.5985 43.2049 37.9556 42.2635 37.5167 41.2237C37.0777 40.1838 36.8516 39.0665 36.8516 37.9378C36.8516 36.8091 37.0777 35.6918 37.5167 34.6519C37.9556 33.6121 38.5985 32.6707 39.4072 31.8834C40.216 31.0961 41.1744 30.4788 42.2257 30.068C43.277 29.6571 44.3999 29.4611 45.5282 29.4915C50.0751 29.6507 53.6796 33.3817 53.6821 37.9317C53.6841 42.4812 50.0835 46.216 45.5366 46.3798" fill="#FF7A59"/>
</svg>
