<svg width="64" height="64" viewBox="0 0 64 64" fill="none" xmlns="http://www.w3.org/2000/svg">
<rect x="20" y="4" width="40" height="56" rx="4" fill="#1066B5"/>
<rect x="20" y="4" width="40" height="56" rx="4" fill="url(#paint0_linear_238_7691)"/>
<rect x="20" y="10" width="20" height="20" fill="#32A9E7"/>
<rect x="20" y="30" width="20" height="20" fill="#167EB4"/>
<rect x="40" y="30" width="20" height="20" fill="#32A9E7"/>
<rect x="40" y="10" width="20" height="20" fill="#58D9FD"/>
<mask id="mask0_238_7691" style="mask-type:alpha" maskUnits="userSpaceOnUse" x="16" y="28" width="48" height="32">
<path d="M16 28H60C62.2091 28 64 29.7909 64 32V56C64 58.2091 62.2091 60 60 60H20C17.7909 60 16 58.2091 16 56V28Z" fill="url(#paint1_linear_238_7691)"/>
</mask>
<g mask="url(#mask0_238_7691)">
<path d="M64 28V36H60V28H64Z" fill="#135298"/>
<path d="M64 60V32L14 60H64Z" fill="url(#paint2_linear_238_7691)"/>
<path d="M16 60V32L66 60H16Z" fill="url(#paint3_linear_238_7691)"/>
</g>
<path d="M16 24C16 20.6863 18.6863 18 22 18H34C37.3137 18 40 20.6863 40 24V48C40 51.3137 37.3137 54 34 54H16V24Z" fill="black" fill-opacity="0.3"/>
<rect y="14" width="36" height="36" rx="4" fill="url(#paint4_linear_238_7691)"/>
<path d="M28 32.1385V31.8061C28 26.0443 23.8544 22 18.0316 22C12.1772 22 8 26.072 8 31.8615V32.1939C8 37.9557 12.1456 42 18 42C23.8228 42 28 37.928 28 32.1385ZM23.2848 32.1939C23.2848 36.0166 21.1329 38.3158 18.0316 38.3158C14.9304 38.3158 12.7468 35.9612 12.7468 32.1385V31.8061C12.7468 27.9834 14.8987 25.6842 18 25.6842C21.0696 25.6842 23.2848 28.0388 23.2848 31.8615V32.1939Z" fill="white"/>
<defs>
<linearGradient id="paint0_linear_238_7691" x1="20" y1="32" x2="60" y2="32" gradientUnits="userSpaceOnUse">
<stop stop-color="#064484"/>
<stop offset="1" stop-color="#0F65B5"/>
</linearGradient>
<linearGradient id="paint1_linear_238_7691" x1="16" y1="53.5385" x2="64" y2="53.5385" gradientUnits="userSpaceOnUse">
<stop stop-color="#1B366F"/>
<stop offset="1" stop-color="#2657B0"/>
</linearGradient>
<linearGradient id="paint2_linear_238_7691" x1="64" y1="46" x2="16" y2="46" gradientUnits="userSpaceOnUse">
<stop stop-color="#44DCFD"/>
<stop offset="0.453125" stop-color="#259ED0"/>
</linearGradient>
<linearGradient id="paint3_linear_238_7691" x1="16" y1="46" x2="64" y2="46" gradientUnits="userSpaceOnUse">
<stop stop-color="#259ED0"/>
<stop offset="1" stop-color="#44DCFD"/>
</linearGradient>
<linearGradient id="paint4_linear_238_7691" x1="0" y1="32" x2="36" y2="32" gradientUnits="userSpaceOnUse">
<stop stop-color="#064484"/>
<stop offset="1" stop-color="#0F65B5"/>
</linearGradient>
</defs>
</svg>
