<svg width="64" height="64" viewBox="0 0 64 64" fill="none" xmlns="http://www.w3.org/2000/svg">
<mask id="mask0_238_7942" style="mask-type:alpha" maskUnits="userSpaceOnUse" x="0" y="12" width="64" height="40">
<path d="M15.6596 52C7.01097 52 0 45.1351 0 36.6667C0 28.3843 6.70645 21.6357 15.0923 21.3433C18.5507 15.7433 24.8288 12 32 12C41.2616 12 49.0337 18.2437 51.1657 26.667C58.2633 26.7205 64 32.3711 64 39.3333C64 46.1053 58 52 51.7447 51.9827L15.6596 52Z" fill="#C4C4C4"/>
</mask>
<g mask="url(#mask0_238_7942)">
<path d="M15.6603 52.0002C10.7565 52.0002 6.37913 49.7932 3.50781 46.3381L36.0858 32.667L61.4177 46.9294C59.1851 49.8423 55.8133 52.0002 52.0008 51.983C46.2508 52.0002 24.1258 52.0002 15.6603 52.0002Z" fill="url(#paint0_linear_238_7942)"/>
<path d="M51.157 26.6294L36.0859 32.6664L61.4179 46.9288C63.0399 44.8126 64.0009 42.1828 64.0009 39.3332C64.0009 32.371 58.2641 26.7204 51.1666 26.6669C51.1634 26.6544 51.1602 26.6419 51.157 26.6294Z" fill="url(#paint1_linear_238_7942)"/>
<path d="M14.1289 21.4057L36.0846 32.6667L51.1557 26.6297C49.0102 18.2252 41.2474 12 31.9995 12C24.8283 12 18.5502 15.7433 15.0917 21.3433C14.7682 21.3545 14.4472 21.3754 14.1289 21.4057Z" fill="url(#paint2_linear_238_7942)"/>
<path d="M3.507 46.3379L36.0851 32.6668L14.1294 21.4058C6.19893 22.1589 0 28.7039 0 36.6668C0 40.3335 1.31439 43.6996 3.507 46.3379Z" fill="url(#paint3_linear_238_7942)"/>
</g>
<defs>
<linearGradient id="paint0_linear_238_7942" x1="8.85181" y1="49.3337" x2="54.4619" y2="46.5527" gradientUnits="userSpaceOnUse">
<stop stop-color="#2086B8"/>
<stop offset="1" stop-color="#46D3F6"/>
</linearGradient>
<linearGradient id="paint1_linear_238_7942" x1="47.6604" y1="39.333" x2="60.4216" y2="30.4159" gradientUnits="userSpaceOnUse">
<stop stop-color="#1694DB"/>
<stop offset="1" stop-color="#62C3FE"/>
</linearGradient>
<linearGradient id="paint2_linear_238_7942" x1="17.0207" y1="14.6667" x2="46.667" y2="31.8695" gradientUnits="userSpaceOnUse">
<stop stop-color="#0D3D78"/>
<stop offset="1" stop-color="#063B83"/>
</linearGradient>
<linearGradient id="paint3_linear_238_7942" x1="-0.680858" y1="40.0001" x2="29.1269" y2="28.9303" gradientUnits="userSpaceOnUse">
<stop stop-color="#16589B"/>
<stop offset="1" stop-color="#1464B7"/>
</linearGradient>
</defs>
</svg>
