<svg width="64" height="64" viewBox="0 0 64 64" fill="none" xmlns="http://www.w3.org/2000/svg">
<path fill-rule="evenodd" clip-rule="evenodd" d="M11.432 58.4356L4.55327 49.8663C2.89826 47.8045 2 45.2692 2 42.6597V11.63C2 7.72128 5.12717 4.47794 9.16143 4.2025L41.0643 2.02437C43.382 1.86612 45.6856 2.48218 47.5895 3.76941L58.7985 11.3478C60.8049 12.7044 62 14.922 62 17.2885V52.5663C62 56.3915 58.9251 59.5586 54.9752 59.8017L19.5667 61.9813C16.4147 62.1754 13.368 60.8474 11.432 58.4356Z" fill="white"/>
<path d="M22.4962 27.1574V26.7512C22.4962 25.7214 23.3209 24.8673 24.3839 24.7964L32.1266 24.2794L42.8341 40.047V26.2083L40.078 25.8409V25.6479C40.078 24.6061 40.9216 23.7464 41.9982 23.6912L49.0432 23.3303V24.3442C49.0432 24.8201 48.6893 25.2272 48.2042 25.3092L46.5089 25.596V48.0074L44.3812 48.7391C42.6036 49.3504 40.6248 48.696 39.6072 47.1605L29.2121 31.4744V46.4459L32.4117 47.0583L32.3671 47.355C32.2275 48.2847 31.4249 48.9877 30.454 49.0309L22.4962 49.3851C22.391 48.3855 23.1402 47.4911 24.1738 47.3825L25.2206 47.2726V27.3105L22.4962 27.1574Z" fill="black"/>
<path fill-rule="evenodd" clip-rule="evenodd" d="M41.3498 5.93356L9.44694 8.1117C7.53598 8.24217 6.05469 9.77849 6.05469 11.63V42.6598C6.05469 44.3994 6.65353 46.0896 7.75687 47.4641L14.6356 56.0334C15.7478 57.4189 17.498 58.1818 19.3087 58.0703L54.7173 55.8907C56.5321 55.779 57.9449 54.3239 57.9449 52.5663V17.2885C57.9449 16.2012 57.3958 15.1823 56.4739 14.559L45.2649 6.98059C44.1226 6.20825 42.7404 5.83862 41.3498 5.93356ZM11.0289 12.114C10.5852 11.7855 10.7964 11.1011 11.3538 11.0611L41.5644 8.89422C42.5269 8.82518 43.4834 9.09024 44.2618 9.64176L50.3234 13.9363C50.5535 14.0993 50.4455 14.4513 50.1606 14.4668L18.1677 16.2067C17.1995 16.2594 16.2439 15.9749 15.474 15.405L11.0289 12.114ZM16.6671 21.6614C16.6671 20.6221 17.5068 19.7635 18.5805 19.7051L52.4061 17.8629C53.4525 17.8059 54.3335 18.6107 54.3335 19.6236V50.1705C54.3335 51.208 53.4968 52.0656 52.4252 52.1266L18.8138 54.0391C17.6492 54.1053 16.6671 53.2104 16.6671 52.083V21.6614Z" fill="black"/>
</svg>
