<svg width="65" height="64" viewBox="0 0 65 64" fill="none" xmlns="http://www.w3.org/2000/svg">
<g filter="url(#filter0_d_238_8117)">
<g clip-path="url(#clip0_238_8117)">
<mask id="mask0_238_8117" style="mask-type:luminance" maskUnits="userSpaceOnUse" x="4" y="12" width="57" height="40">
<path d="M4.01172 12.1033H60.2845V51.4875H4.01172V12.1033Z" fill="white"/>
</mask>
<g mask="url(#mask0_238_8117)">
<path fill-rule="evenodd" clip-rule="evenodd" d="M27.4225 16.4001C29.2376 14.509 31.765 13.3356 34.56 13.3356C38.2752 13.3356 41.5171 15.4074 43.2429 18.4835C44.7871 17.7935 46.4598 17.4378 48.1511 17.4399C54.8524 17.4399 60.2852 22.9201 60.2852 29.6806C60.2852 36.4411 54.8524 41.9214 48.1511 41.9214C47.3327 41.9214 46.5336 41.8391 45.7606 41.6832C44.2408 44.3942 41.3434 46.2263 38.0188 46.2263C36.6741 46.2282 35.3467 45.9227 34.1381 45.3331C32.5974 48.9582 29.0064 51.4999 24.8225 51.4999C20.4645 51.4999 16.7502 48.7427 15.3255 44.8759C14.6906 45.0098 14.0433 45.0772 13.3944 45.0769C8.20582 45.0769 4 40.827 4 35.5847C4 32.071 5.88938 29.0035 8.6976 27.3625C8.10263 25.9924 7.79646 24.5144 7.7982 23.0208C7.7982 16.9913 12.6927 12.1033 18.7302 12.1033C22.2749 12.1033 25.4251 13.7883 27.4225 16.4001Z" fill="#00A1E0"/>
</g>
<path fill-rule="evenodd" clip-rule="evenodd" d="M12.1534 32.5336C12.1181 32.6259 12.166 32.6451 12.1774 32.6614C12.2831 32.7379 12.3904 32.7934 12.4988 32.8556C13.0727 33.1594 13.6151 33.2485 14.1818 33.2485C15.3364 33.2485 16.0536 32.6347 16.0536 31.6462V31.6268C16.0536 30.7127 15.2439 30.3806 14.4852 30.1409L14.3861 30.1088C13.8139 29.9231 13.32 29.7624 13.32 29.3854V29.3662C13.32 29.0433 13.6087 28.8061 14.056 28.8061C14.5534 28.8061 15.1428 28.9714 15.5229 29.1813C15.5229 29.1813 15.635 29.2537 15.6757 29.1455C15.6979 29.087 15.89 28.5696 15.9105 28.5135C15.9324 28.4529 15.8939 28.4072 15.8544 28.3836C15.4203 28.1191 14.8208 27.9392 14.2002 27.9392L14.085 27.9396C13.0282 27.9396 12.2903 28.5787 12.2903 29.4932V29.5128C12.2903 30.4765 13.1043 30.7898 13.8668 31.0076L13.9892 31.0456C14.5445 31.2161 15.0241 31.3633 15.0241 31.754V31.7734C15.0241 32.1312 14.7124 32.3969 14.2105 32.3969C14.0159 32.3969 13.3947 32.3936 12.7234 31.969C12.6421 31.9217 12.5958 31.8876 12.5331 31.8493C12.5 31.8292 12.4173 31.793 12.3813 31.9014L12.1534 32.5336ZM29.0557 32.5336C29.0203 32.6259 29.0683 32.6451 29.0801 32.6614C29.1854 32.7379 29.2929 32.7934 29.4011 32.8556C29.9752 33.1594 30.5176 33.2485 31.084 33.2485C32.2386 33.2485 32.9561 32.6347 32.9561 31.6462V31.6268C32.9561 30.7127 32.1466 30.3806 31.3876 30.1409L31.2886 30.1088C30.7163 29.9231 30.2223 29.7624 30.2223 29.3854V29.3662C30.2223 29.0433 30.5112 28.8061 30.9587 28.8061C31.4559 28.8061 32.0451 28.9714 32.4252 29.1813C32.4252 29.1813 32.5373 29.2537 32.5782 29.1455C32.6001 29.087 32.7925 28.5696 32.8127 28.5135C32.8349 28.4529 32.7962 28.4072 32.7569 28.3836C32.3226 28.1191 31.7233 27.9392 31.1027 27.9392L30.9873 27.9396C29.9307 27.9396 29.1928 28.5787 29.1928 29.4932V29.5128C29.1928 30.4765 30.0066 30.7898 30.7693 31.0076L30.8915 31.0456C31.447 31.2161 31.9266 31.3633 31.9266 31.754V31.7734C31.9266 32.1312 31.6147 32.3969 31.1132 32.3969C30.9182 32.3969 30.2969 32.3936 29.6259 31.969C29.5446 31.9217 29.497 31.889 29.4354 31.8493C29.4145 31.8361 29.3171 31.798 29.2838 31.9014L29.0557 32.5336ZM40.5944 30.5971C40.5944 31.1555 40.4902 31.5964 40.2855 31.9072C40.082 32.2153 39.7749 32.3653 39.3466 32.3653C38.9183 32.3653 38.6128 32.2156 38.4126 31.9076C38.2106 31.5966 38.108 31.1555 38.108 30.5971C38.108 30.0391 38.2106 29.5997 38.4126 29.2919C38.6128 28.9869 38.9183 28.8388 39.3466 28.8388C39.7749 28.8388 40.082 28.9871 40.2855 29.2921C40.4906 29.5997 40.5944 30.0391 40.5944 30.5971ZM41.5586 29.5616C41.4637 29.2413 41.3162 28.9594 41.1199 28.7242C40.9233 28.4885 40.6745 28.2988 40.3796 28.1615C40.0851 28.024 39.7376 27.9543 39.3466 27.9543C38.9555 27.9543 38.6079 28.024 38.3132 28.1615C38.0187 28.2988 37.7697 28.4885 37.573 28.7247C37.377 28.9602 37.2291 29.2417 37.1346 29.5616C37.0405 29.8795 36.9927 30.2279 36.9927 30.5971C36.9927 30.9664 37.0405 31.3151 37.1346 31.6326C37.2291 31.9523 37.3765 32.234 37.5732 32.4699C37.7699 32.7061 38.0195 32.8941 38.3136 33.0281C38.6085 33.1621 38.9559 33.2303 39.3466 33.2303C39.7374 33.2303 40.0845 33.1621 40.3792 33.0281C40.6737 32.8941 40.9229 32.7061 41.1199 32.4699C41.3162 32.2348 41.4637 31.9527 41.5586 31.6326C41.6525 31.3145 41.7002 30.966 41.7002 30.5971C41.7002 30.2283 41.6525 29.8797 41.5586 29.5616ZM49.4724 32.2158C49.4408 32.1221 49.3494 32.1574 49.3494 32.1574C49.2094 32.211 49.0605 32.2606 48.9012 32.2854C48.7408 32.3107 48.5631 32.3233 48.3731 32.3233C47.9071 32.3233 47.5359 32.1845 47.271 31.9103C47.0048 31.6359 46.8553 31.1925 46.857 30.5927C46.8584 30.0476 46.9903 29.6369 47.2269 29.3238C47.4615 29.0127 47.8196 28.8531 48.2959 28.8531C48.6936 28.8531 48.997 28.8992 49.3148 28.9989C49.3148 28.9989 49.3903 29.0318 49.4265 28.9323C49.5111 28.698 49.5736 28.5313 49.6637 28.2738C49.6894 28.2004 49.6265 28.1694 49.6035 28.1605C49.4786 28.1117 49.1835 28.0317 48.9608 27.9979C48.7525 27.9661 48.5091 27.9495 48.2376 27.9495C47.8329 27.9495 47.472 28.0188 47.1634 28.1561C46.8555 28.2933 46.5943 28.4827 46.3873 28.7182C46.1803 28.9542 46.0227 29.2361 45.9185 29.5558C45.814 29.8739 45.7613 30.223 45.7613 30.5932C45.7613 31.3925 45.977 32.0383 46.4024 32.5115C46.8292 32.9863 47.4695 33.2275 48.3052 33.2275C48.7989 33.2275 49.3053 33.1276 49.6701 32.984C49.6701 32.984 49.7396 32.9505 49.7094 32.8695L49.4724 32.2158ZM51.1587 30.0617C51.2049 29.7512 51.2898 29.4934 51.4224 29.2919C51.6224 28.9869 51.9268 28.8188 52.3551 28.8188C52.7836 28.8188 53.0659 28.9871 53.2694 29.2921C53.4038 29.4938 53.4626 29.7624 53.4855 30.0621L51.1587 30.0617ZM54.4033 29.3798C54.3212 29.0709 54.119 28.7588 53.986 28.6161C53.7761 28.3898 53.5705 28.2314 53.3664 28.1439C53.071 28.0184 52.7532 27.9539 52.4322 27.9543C52.025 27.9543 51.6551 28.0232 51.355 28.1638C51.0545 28.3048 50.802 28.4976 50.6041 28.7371C50.4057 28.9763 50.2571 29.2611 50.1621 29.5841C50.067 29.9053 50.019 30.2554 50.019 30.6252C50.019 31.0012 50.0689 31.3517 50.1669 31.6669C50.2659 31.9848 50.425 32.2637 50.6396 32.496C50.8541 32.7291 51.1302 32.9119 51.46 33.0393C51.7883 33.1664 52.187 33.2324 52.6442 33.231C53.5868 33.2279 54.0826 33.0178 54.2873 32.9046C54.3235 32.8844 54.3576 32.8494 54.315 32.7487L54.1016 32.1514C54.0689 32.0623 53.9787 32.0946 53.9787 32.0946C53.7448 32.1818 53.4137 32.3376 52.6395 32.3359C52.1336 32.3351 51.7589 32.1856 51.5233 31.9521C51.2824 31.7132 51.1641 31.3625 51.144 30.867L54.4058 30.8694C54.4058 30.8694 54.4918 30.8686 54.5007 30.7847C54.5042 30.7499 54.6126 30.1146 54.4033 29.3798ZM25.031 30.0617C25.0772 29.7512 25.1624 29.4934 25.2947 29.2919C25.4949 28.9869 25.7989 28.8188 26.2276 28.8188C26.6561 28.8188 26.9384 28.9871 27.1419 29.2921C27.2761 29.4938 27.3349 29.7624 27.3578 30.0621L25.031 30.0617ZM28.2756 29.3798C28.1937 29.0709 27.9913 28.7588 27.8585 28.6161C27.6486 28.3898 27.4432 28.2314 27.2389 28.1439C26.9435 28.0185 26.6257 27.954 26.3048 27.9543C25.8976 27.9543 25.5276 28.0232 25.2275 28.1638C24.927 28.3048 24.6745 28.4976 24.4762 28.7371C24.2783 28.9763 24.1296 29.2611 24.0342 29.5841C23.9393 29.9053 23.8915 30.2554 23.8915 30.6252C23.8915 31.0012 23.941 31.3517 24.0396 31.6669C24.1385 31.9848 24.2977 32.2637 24.512 32.496C24.7266 32.7291 25.0025 32.9119 25.3324 33.0393C25.6608 33.1664 26.0591 33.2324 26.5167 33.231C27.4591 33.2279 27.9551 33.0178 28.1598 32.9046C28.1958 32.8844 28.2301 32.8494 28.1873 32.7487L27.9741 32.1514C27.9412 32.0623 27.851 32.0946 27.851 32.0946C27.6174 32.1818 27.2863 32.3376 26.5118 32.3359C26.0061 32.3351 25.6312 32.1856 25.3956 31.9521C25.1549 31.7132 25.0364 31.3625 25.0164 30.867L28.2783 30.8694C28.2783 30.8694 28.3643 30.8686 28.3732 30.7847C28.3767 30.7499 28.4851 30.1146 28.2756 29.3798ZM17.9796 32.198C17.8515 32.0958 17.8338 32.0708 17.7914 32.0044C17.7266 31.9045 17.6935 31.7622 17.6935 31.58C17.6935 31.2936 17.7887 31.0872 17.9847 30.9487C17.9827 30.9491 18.266 30.7042 18.9309 30.7129C19.2275 30.7182 19.5234 30.7434 19.8166 30.7884V32.2712H19.817C19.817 32.2712 19.4024 32.3603 18.9356 32.3884C18.2722 32.4284 17.9775 32.1974 17.9796 32.198ZM19.2777 29.9053C19.1453 29.8956 18.9739 29.8908 18.7683 29.8908C18.4889 29.8908 18.2186 29.9256 17.9649 29.9938C17.7101 30.0625 17.481 30.1688 17.2839 30.3096C17.0869 30.4503 16.9249 30.6344 16.8105 30.8477C16.6949 31.063 16.6359 31.3159 16.6359 31.5995C16.6359 31.8888 16.6862 32.1394 16.7855 32.3442C16.8826 32.5472 17.0288 32.7227 17.2109 32.855C17.3922 32.9869 17.616 33.0837 17.8755 33.1429C18.1318 33.2014 18.4221 33.231 18.7394 33.231C19.0744 33.231 19.4076 33.2028 19.7304 33.1485C20.0054 33.1011 20.2793 33.0478 20.552 32.9888C20.6608 32.9638 20.7808 32.9309 20.7808 32.9309C20.8614 32.9104 20.8552 32.8242 20.8552 32.8242L20.8533 29.8408C20.8533 29.1865 20.6788 28.7017 20.3349 28.4006C19.9926 28.1009 19.4886 27.9495 18.8366 27.9495C18.5917 27.9495 18.1984 27.9826 17.9622 28.03C17.9622 28.03 17.2499 28.1681 16.9567 28.3979C16.9567 28.3979 16.8922 28.4376 16.9273 28.5276L17.1583 29.148C17.1871 29.2284 17.2655 29.2009 17.2655 29.2009C17.2655 29.2009 17.2901 29.1912 17.319 29.174C17.9465 28.8328 18.7404 28.843 18.7404 28.843C19.0928 28.843 19.3643 28.9143 19.5467 29.0539C19.7248 29.1906 19.8152 29.3964 19.8152 29.8313V29.9692C19.5354 29.9287 19.2777 29.9053 19.2777 29.9053ZM45.5907 28.2246C45.5954 28.2137 45.5978 28.202 45.5979 28.1901C45.598 28.1782 45.5957 28.1664 45.5911 28.1555C45.5865 28.1445 45.5798 28.1346 45.5713 28.1263C45.5628 28.118 45.5527 28.1115 45.5417 28.1071C45.486 28.086 45.2087 28.0275 44.9949 28.0143C44.5848 27.9886 44.3575 28.0577 44.1536 28.1495C43.9513 28.2407 43.7274 28.3882 43.6024 28.5563L43.602 28.1584C43.602 28.1038 43.5634 28.0598 43.5083 28.0598H42.672C42.6178 28.0598 42.5785 28.1038 42.5785 28.1584V33.025C42.5786 33.0512 42.5891 33.0764 42.6076 33.095C42.6262 33.1135 42.6514 33.124 42.6776 33.124H43.5348C43.5611 33.124 43.5862 33.1135 43.6047 33.095C43.6233 33.0764 43.6337 33.0512 43.6337 33.025V30.594C43.6337 30.2674 43.6697 29.9421 43.7414 29.7376C43.8121 29.5351 43.9083 29.3738 44.0274 29.2578C44.1403 29.1458 44.2785 29.0627 44.4303 29.0154C44.5726 28.9746 44.7199 28.9539 44.8679 28.9538C45.0385 28.9538 45.2263 28.9976 45.2263 28.9976C45.2892 29.0047 45.3241 28.9662 45.3454 28.9095C45.4015 28.7604 45.5603 28.3135 45.5907 28.2246Z" fill="#FFFFFE"/>
<path fill-rule="evenodd" clip-rule="evenodd" d="M37.5447 25.9694C37.4388 25.9374 37.3312 25.9119 37.2223 25.8929C37.0758 25.8684 36.9274 25.8569 36.7789 25.8585C36.1888 25.8585 35.7237 26.0252 35.3972 26.3545C35.0729 26.6812 34.8523 27.179 34.7416 27.834L34.7017 28.055H33.9611C33.9611 28.055 33.8707 28.0513 33.8517 28.15L33.7301 28.8283C33.7216 28.8932 33.7496 28.9338 33.8364 28.9333H34.5573L33.8259 33.0163C33.7686 33.3451 33.703 33.6156 33.6304 33.8206C33.5589 34.0228 33.489 34.1744 33.403 34.2845C33.3196 34.391 33.2406 34.4693 33.1043 34.515C32.9918 34.5529 32.8624 34.5703 32.7205 34.5703C32.6415 34.5703 32.5364 34.557 32.4589 34.5415C32.3813 34.5262 32.341 34.5088 32.2829 34.4844C32.2829 34.4844 32.1983 34.4522 32.165 34.537C32.1379 34.6062 31.9458 35.1346 31.9231 35.2C31.8999 35.2645 31.9324 35.3154 31.9733 35.3301C32.0693 35.3644 32.1406 35.3863 32.2713 35.4171C32.4529 35.4599 32.6059 35.4626 32.7492 35.4626C33.0495 35.4626 33.3231 35.4204 33.55 35.3385C33.7783 35.256 33.977 35.1123 34.1528 34.9177C34.3429 34.7078 34.4624 34.488 34.5768 34.1881C34.6899 33.8909 34.7863 33.522 34.8634 33.092L35.5984 28.9333H36.673C36.673 28.9333 36.7636 28.9367 36.7824 28.8384L36.904 28.1601C36.9125 28.0952 36.8847 28.0546 36.7975 28.055H35.7545C35.7597 28.0315 35.8071 27.6646 35.9268 27.3192C35.9779 27.1718 36.0741 27.0529 36.1555 26.9712C36.2316 26.8934 36.3253 26.8351 36.4287 26.8012C36.5421 26.7661 36.6602 26.7491 36.7789 26.7507C36.8771 26.7507 36.9735 26.7625 37.0469 26.7778C37.148 26.7993 37.1873 26.8107 37.2138 26.8185C37.3201 26.851 37.3343 26.8196 37.3552 26.7681L37.6046 26.0831C37.6303 26.0095 37.5678 25.9785 37.5447 25.9694ZM22.9702 33.025C22.9702 33.0796 22.9313 33.1241 22.8767 33.1241H22.0117C21.9568 33.1241 21.918 33.0796 21.918 33.025V26.0623C21.918 26.0079 21.9568 25.9638 22.0117 25.9638H22.8767C22.9313 25.9638 22.9702 26.0079 22.9702 26.0623V33.025Z" fill="#FFFFFE"/>
</g>
</g>
<defs>
<filter id="filter0_d_238_8117" x="-4" y="-2" width="72" height="72" filterUnits="userSpaceOnUse" color-interpolation-filters="sRGB">
<feFlood flood-opacity="0" result="BackgroundImageFix"/>
<feColorMatrix in="SourceAlpha" type="matrix" values="0 0 0 0 0 0 0 0 0 0 0 0 0 0 0 0 0 0 127 0" result="hardAlpha"/>
<feOffset dy="2"/>
<feGaussianBlur stdDeviation="2"/>
<feColorMatrix type="matrix" values="0 0 0 0 0.0627451 0 0 0 0 0.0941176 0 0 0 0 0.156863 0 0 0 0.05 0"/>
<feBlend mode="normal" in2="BackgroundImageFix" result="effect1_dropShadow_238_8117"/>
<feBlend mode="normal" in="SourceGraphic" in2="effect1_dropShadow_238_8117" result="shape"/>
</filter>
<clipPath id="clip0_238_8117">
<rect width="56.4581" height="39.5" fill="white" transform="translate(4 12)"/>
</clipPath>
</defs>
</svg>
