<svg width="64" height="64" viewBox="0 0 64 64" fill="none" xmlns="http://www.w3.org/2000/svg">
<path d="M53.0004 29.9996C55.7616 29.9996 58 27.7612 58 25.0001V25.0001C58 22.2389 55.7614 20.0005 53.0002 20.0005V20.0005C50.2388 20.0005 48 22.2391 48 25.0005V29.9996H53.0004ZM39 29.9996C41.7614 29.9996 44 27.7611 44 24.9996V11.0005C44 8.23906 41.7614 6.00049 39 6.00049V6.00049C36.2386 6.00049 34 8.23906 34 11.0005V24.9996C34 27.7611 36.2386 29.9996 39 29.9996V29.9996Z" fill="#2EB67D"/>
<path d="M10.9996 34.0004C8.23839 34.0004 6 36.2388 6 38.9999V38.9999C6 41.7611 8.2386 43.9995 10.9998 43.9995V43.9995C13.7612 43.9995 16 41.7609 16 38.9995V34.0004H10.9996ZM25 34.0004C22.2386 34.0004 20 36.2389 20 39.0004V52.9995C20 55.7609 22.2386 57.9995 25 57.9995V57.9995C27.7614 57.9995 30 55.7609 30 52.9995V39.0004C30 36.2389 27.7614 34.0004 25 34.0004V34.0004Z" fill="#E01E5A"/>
<path d="M34.0009 53.0004C34.0009 55.7616 36.2392 58 39.0004 58V58C41.7616 58 44 55.7614 44 53.0002V53.0002C44 50.2388 41.7614 48 39 48L34.0009 48L34.0009 53.0004ZM34.0009 39C34.0009 41.7614 36.2394 44 39.0009 44L53 44C55.7614 44 58 41.7614 58 39V39C58 36.2386 55.7614 34 53 34L39.0009 34C36.2394 34 34.0009 36.2386 34.0009 39V39Z" fill="#ECB22E"/>
<path d="M29.9991 10.9996C29.9991 8.23839 27.7608 6 24.9996 6V6C22.2384 6 20 8.2386 20 10.9998V10.9998C20 13.7612 22.2386 16 25 16L29.9991 16L29.9991 10.9996ZM29.9991 25C29.9991 22.2386 27.7606 20 24.9991 20L11 20C8.23858 20 6 22.2386 6 25V25C6 27.7614 8.23858 30 11 30L24.9991 30C27.7606 30 29.9991 27.7614 29.9991 25V25Z" fill="#36C5F0"/>
</svg>
