<svg width="69" height="69" viewBox="0 0 69 69" fill="none" xmlns="http://www.w3.org/2000/svg">
<rect width="69" height="69" rx="6.4" fill="url(#paint0_linear_5581_13743)"/>
<path d="M21.375 49.5C20.3438 49.5 19.4606 49.1325 18.7256 48.3975C17.9906 47.6625 17.6238 46.78 17.625 45.75V19.5C17.625 18.4688 17.9925 17.5856 18.7275 16.8506C19.4625 16.1156 20.345 15.7488 21.375 15.75H47.625C48.6563 15.75 49.5394 16.1175 50.2744 16.8525C51.0094 17.5875 51.3763 18.47 51.375 19.5V30.0938C50.7813 29.8125 50.1719 29.5856 49.5469 29.4131C48.9219 29.2406 48.2813 29.1081 47.625 29.0156V19.5H21.375V36.375H29.25C29.5313 37.2188 30 37.9531 30.6563 38.5781C31.3125 39.2031 32.0469 39.6406 32.8594 39.8906C32.7656 40.5156 32.7031 41.1481 32.6719 41.7881C32.6406 42.4281 32.6719 43.0613 32.7656 43.6875C31.6406 43.4688 30.5863 43.0544 29.6025 42.4444C28.6188 41.8344 27.7513 41.0613 27 40.125H21.375V45.75H33.2344C33.4531 46.4375 33.7031 47.0938 33.9844 47.7188C34.2656 48.3438 34.6094 48.9375 35.0156 49.5H21.375ZM43.9219 51.375L43.3594 48.5625C42.9844 48.4063 42.6325 48.2419 42.3038 48.0694C41.975 47.8969 41.6394 47.6863 41.2969 47.4375L38.5781 48.2813L36.7031 45.0938L38.8594 43.2188C38.7969 42.8438 38.7656 42.4375 38.7656 42C38.7656 41.5625 38.7969 41.1563 38.8594 40.7813L36.7031 38.9063L38.5781 35.7188L41.2969 36.5625C41.6406 36.3125 41.9763 36.1019 42.3038 35.9306C42.6313 35.7594 42.9831 35.595 43.3594 35.4375L43.9219 32.625H47.6719L48.2344 35.4375C48.6094 35.5938 48.9613 35.7581 49.29 35.9306C49.6188 36.1031 49.9544 36.3138 50.2969 36.5625L53.0156 35.7188L54.8906 38.9063L52.7344 40.7813C52.7969 41.1563 52.8281 41.5625 52.8281 42C52.8281 42.4375 52.7969 42.8438 52.7344 43.2188L54.8906 45.0938L53.0156 48.2813L50.2969 47.4375C49.9531 47.6875 49.6175 47.8988 49.29 48.0713C48.9625 48.2438 48.6106 48.4075 48.2344 48.5625L47.6719 51.375H43.9219ZM45.7969 45.75C46.8281 45.75 47.7113 45.3825 48.4463 44.6475C49.1813 43.9125 49.5475 43.03 49.545 42C49.545 40.9688 49.1781 40.0856 48.4444 39.3506C47.7106 38.6156 46.8281 38.2488 45.7969 38.25C44.7656 38.25 43.8831 38.6175 43.1494 39.3525C42.4156 40.0875 42.0475 40.97 42.045 42C42.045 43.0313 42.4125 43.9144 43.1475 44.6494C43.8825 45.3844 44.7669 45.7513 45.7969 45.75Z" fill="white"/>
<defs>
<linearGradient id="paint0_linear_5581_13743" x1="34.5" y1="0" x2="34.5" y2="69" gradientUnits="userSpaceOnUse">
<stop stop-color="#BB57EA"/>
<stop offset="1" stop-color="#5E4BF5"/>
</linearGradient>
</defs>
</svg>
