<svg width="69" height="69" viewBox="0 0 69 69" fill="none" xmlns="http://www.w3.org/2000/svg">
<rect width="69" height="69" rx="6.6208" fill="url(#paint0_linear_5581_13738)"/>
<g clip-path="url(#clip0_5581_13738)">
<path d="M21.6431 34.5043V26.0507C21.6682 24.389 22.021 22.7486 22.6812 21.2235C23.3413 19.6984 24.2959 18.3185 25.4903 17.1629C26.6847 16.0074 28.0953 15.0989 29.6414 14.4894C31.1875 13.88 32.8387 13.5816 34.5003 13.6114C36.1619 13.5816 37.813 13.88 39.3591 14.4894C40.9052 15.0989 42.3159 16.0074 43.5103 17.1629C44.7046 18.3185 45.6592 19.6984 46.3194 21.2235C46.9796 22.7486 47.3323 24.389 47.3574 26.0507V34.5043M40.9289 51.3793C42.6338 51.3793 44.2689 50.702 45.4745 49.4964C46.6801 48.2908 47.3574 46.6557 47.3574 44.9507V37.7185M40.9289 51.3793C40.9289 52.4449 40.5055 53.4668 39.752 54.2203C38.9986 54.9738 37.9766 55.3971 36.911 55.3971H32.0896C31.024 55.3971 30.002 54.9738 29.2485 54.2203C28.495 53.4668 28.0717 52.4449 28.0717 51.3793C28.0717 50.3137 28.495 49.2917 29.2485 48.5382C30.002 47.7847 31.024 47.3614 32.0896 47.3614H36.911C37.9766 47.3614 38.9986 47.7847 39.752 48.5382C40.5055 49.2917 40.9289 50.3137 40.9289 51.3793ZM16.8217 29.6828H20.036C20.4622 29.6828 20.871 29.8522 21.1724 30.1536C21.4738 30.455 21.6431 30.8637 21.6431 31.29V40.9328C21.6431 41.3591 21.4738 41.7679 21.1724 42.0693C20.871 42.3707 20.4622 42.54 20.036 42.54H16.8217C15.9692 42.54 15.1517 42.2013 14.5489 41.5985C13.9461 40.9957 13.6074 40.1782 13.6074 39.3257V32.8971C13.6074 32.0446 13.9461 31.2271 14.5489 30.6243C15.1517 30.0215 15.9692 29.6828 16.8217 29.6828ZM52.1789 42.54H48.9646C48.5383 42.54 48.1295 42.3707 47.8281 42.0693C47.5267 41.7679 47.3574 41.3591 47.3574 40.9328V31.29C47.3574 30.8637 47.5267 30.455 47.8281 30.1536C48.1295 29.8522 48.5383 29.6828 48.9646 29.6828H52.1789C53.0313 29.6828 53.8489 30.0215 54.4517 30.6243C55.0545 31.2271 55.3931 32.0446 55.3931 32.8971V39.3257C55.3931 40.1782 55.0545 40.9957 54.4517 41.5985C53.8489 42.2013 53.0313 42.54 52.1789 42.54Z" stroke="white" stroke-width="3" stroke-linecap="round" stroke-linejoin="round"/>
</g>
<defs>
<linearGradient id="paint0_linear_5581_13738" x1="34.5" y1="0" x2="34.5" y2="69" gradientUnits="userSpaceOnUse">
<stop stop-color="#E87941"/>
<stop offset="1" stop-color="#DE3282"/>
</linearGradient>
<clipPath id="clip0_5581_13738">
<rect width="45" height="45" fill="white" transform="translate(12 12)"/>
</clipPath>
</defs>
</svg>
