<svg width="69" height="69" viewBox="0 0 69 69" fill="none" xmlns="http://www.w3.org/2000/svg">
<rect y="0.724243" width="68.8" height="68.14" rx="6.4" fill="url(#paint0_linear_230_2408)"/>
<path d="M42.841 26.3511C42.065 25.5753 41.0127 25.1395 39.9154 25.1395C38.8181 25.1395 37.7657 25.5753 36.9897 26.3511L36.3483 26.9911L38.2988 28.9416L38.9402 28.3015C39.2003 28.0503 39.5487 27.9113 39.9104 27.9144C40.2721 27.9175 40.618 28.0626 40.8738 28.3184C41.1295 28.5741 41.2746 28.9201 41.2778 29.2817C41.2809 29.6434 41.1419 29.9918 40.8906 30.252L36.3483 34.7943L38.2988 36.7447L42.841 32.2024C43.6168 31.4264 44.0526 30.374 44.0526 29.2768C44.0526 28.1795 43.6168 27.1271 42.841 26.3511ZM29.8556 41.287C29.5954 41.5383 29.247 41.6773 28.8853 41.6741C28.5237 41.671 28.1777 41.5259 27.922 41.2702C27.6662 41.0144 27.5212 40.6685 27.518 40.3068C27.5149 39.9451 27.6539 39.5967 27.9052 39.3365L32.4474 34.7943L30.497 32.8438L25.9547 37.3861C25.5595 37.7678 25.2442 38.2245 25.0274 38.7293C24.8105 39.2342 24.6963 39.7772 24.6916 40.3267C24.6868 40.8761 24.7915 41.421 24.9996 41.9296C25.2076 42.4381 25.5149 42.9002 25.9034 43.2887C26.292 43.6773 26.754 43.9845 27.2626 44.1926C27.7711 44.4007 28.316 44.5054 28.8655 44.5006C29.4149 44.4958 29.958 44.3817 30.4628 44.1648C30.9677 43.9479 31.4243 43.6327 31.806 43.2374L32.4474 42.5974L30.497 40.647L29.8556 41.287ZM31.806 26.3525C31.0224 25.617 29.9834 25.2152 28.9088 25.2321C27.8342 25.2491 26.8083 25.6834 26.0482 26.4433C25.2882 27.2031 24.8536 28.2289 24.8364 29.3035C24.8192 30.3781 25.2208 31.4172 25.9561 32.201L26.5961 32.8425L28.5466 30.892L27.9065 30.2506C27.6553 29.9905 27.5162 29.642 27.5194 29.2804C27.5225 28.9187 27.6676 28.5727 27.9233 28.317C28.1791 28.0612 28.5251 27.9162 28.8867 27.913C29.2484 27.9099 29.5968 28.0489 29.857 28.3002L34.3979 32.8438L36.3483 30.8934L31.806 26.3525Z" fill="white"/>
<path d="M42.8428 37.3861L42.2028 36.7447L40.2523 38.6951L40.8924 39.3365C41.1436 39.5967 41.2827 39.9451 41.2795 40.3068C41.2764 40.6685 41.1313 41.0144 40.8756 41.2702C40.6198 41.5259 40.2739 41.671 39.9122 41.6741C39.5505 41.6773 39.2021 41.5382 38.9419 41.287L34.3997 36.7447L32.4492 38.6951L36.9915 43.2374C37.772 43.9912 38.8173 44.4083 39.9023 44.3989C40.9873 44.3894 42.0252 43.9542 42.7924 43.187C43.5596 42.4198 43.9948 41.3819 44.0043 40.2969C44.0137 39.2119 43.5966 38.1666 42.8428 37.3861Z" fill="white"/>
<path d="M34.3967 55.4849C34.1525 55.4851 33.9125 55.4203 33.7015 55.2973L17.149 45.6416C16.9408 45.5201 16.768 45.3461 16.648 45.137C16.5279 44.9279 16.4648 44.691 16.4648 44.4499V25.1386C16.4648 24.8975 16.5279 24.6606 16.648 24.4515C16.768 24.2424 16.9408 24.0684 17.149 23.9468L33.7015 14.2912C33.9125 14.1681 34.1524 14.1032 34.3967 14.1032C34.641 14.1032 34.8809 14.1681 35.0919 14.2912L51.6444 23.9468L50.254 26.3304L34.3967 17.0803L19.2236 25.9304V43.6581L34.3967 52.5096L49.5698 43.6581V33.4149H52.3286V44.4499C52.3287 44.691 52.2655 44.9279 52.1455 45.137C52.0254 45.3461 51.8527 45.5201 51.6444 45.6416L35.0919 55.2973C34.8809 55.4203 34.641 55.4851 34.3967 55.4849Z" fill="white"/>
<defs>
<linearGradient id="paint0_linear_230_2408" x1="34.4" y1="0.724243" x2="34.4" y2="68.8642" gradientUnits="userSpaceOnUse">
<stop stop-color="#09A6FE"/>
<stop offset="1" stop-color="#0054F7"/>
</linearGradient>
</defs>
</svg>
