<svg width="32" height="32" viewBox="0 0 32 32" fill="none" xmlns="http://www.w3.org/2000/svg">
<path opacity="0.1" fill-rule="evenodd" clip-rule="evenodd" d="M0 16C0 7.16344 7.16344 0 16 0C24.8366 0 32 7.16344 32 16C32 24.8366 24.8366 32 16 32C7.16344 32 0 24.8366 0 16Z" fill="#FCF7FF"/>
<path d="M11.545 9.8818C11.5215 8.8136 10.7576 8 9.51718 8C8.27676 8 7.46582 8.8136 7.46582 9.8818C7.46582 10.9279 8.25279 11.7649 9.47011 11.7649H9.49328C10.7576 11.7649 11.545 10.9279 11.545 9.8818Z" fill="#FCF7FF"/>
<path d="M11.3062 13.252H7.68024V24.1464H11.3062V13.252Z" fill="#FCF7FF"/>
<path d="M20.2079 12.9961C22.594 12.9961 24.3828 14.5535 24.3828 17.8998L24.3826 24.1464H20.7568V18.3178C20.7568 16.8538 20.2321 15.8548 18.9195 15.8548C17.9178 15.8548 17.3211 16.5283 17.059 17.1788C16.9632 17.4119 16.9396 17.7367 16.9396 18.0623V24.1467H13.3132C13.3132 24.1467 13.361 14.2745 13.3132 13.2522H16.9396V14.7953C17.4209 14.0535 18.2828 12.9961 20.2079 12.9961Z" fill="#FCF7FF"/>
</svg>
