<svg width="24" height="24" viewBox="0 0 32 32" fill="none" xmlns="http://www.w3.org/2000/svg">
  <path fill-rule="evenodd" clip-rule="evenodd" d="M26.667 15.9996C26.667 14.7083 25.619 13.6604 24.3278 13.6604C23.6916 13.6604 23.1302 13.9037 22.7185 14.3153C21.1278 13.1738 18.9196 12.4253 16.4869 12.3317L17.5535 7.33523L21.0155 8.06506C21.053 8.94459 21.7828 9.6557 22.681 9.6557C23.598 9.6557 24.3465 8.90716 24.3465 7.99021C24.3465 7.07325 23.598 6.32471 22.681 6.32471C22.0261 6.32471 21.4647 6.69898 21.2027 7.26038L17.329 6.43699C17.2167 6.41828 17.1044 6.43699 17.0109 6.49313C16.9173 6.54927 16.8612 6.64284 16.8237 6.75512L15.6448 12.3317C13.1559 12.4066 10.929 13.1364 9.31963 14.3153C8.90794 13.9224 8.32782 13.6604 7.71028 13.6604C6.41905 13.6604 5.37109 14.7083 5.37109 15.9996C5.37109 16.9539 5.9325 17.7586 6.75589 18.1329C6.71846 18.3575 6.69975 18.6007 6.69975 18.844C6.69975 22.437 10.8728 25.3376 16.0378 25.3376C21.2027 25.3376 25.3758 22.437 25.3758 18.844C25.3758 18.6007 25.3571 18.3762 25.3196 18.1516C26.0869 17.7773 26.667 16.9539 26.667 15.9996ZM12.3325 15.9996C11.4155 15.9996 10.667 16.7481 10.667 17.6651C10.667 18.582 11.4155 19.3306 12.3325 19.3306C13.2495 19.3306 13.998 18.582 13.998 17.6651C13.998 16.7481 13.2495 15.9996 12.3325 15.9996ZM16.019 23.2791C16.6553 23.2791 18.8261 23.2042 19.9676 22.0627C20.136 21.8943 20.136 21.6323 20.005 21.4452C19.8366 21.2768 19.5559 21.2768 19.3875 21.4452C18.6576 22.1563 17.1419 22.4183 16.0378 22.4183C14.9337 22.4183 13.3992 22.1563 12.6881 21.4452C12.5196 21.2768 12.2389 21.2768 12.0705 21.4452C11.9021 21.6136 11.9021 21.8943 12.0705 22.0627C13.1933 23.1855 15.3828 23.2791 16.019 23.2791ZM18.0027 17.6651C18.0027 18.582 18.7512 19.3306 19.6682 19.3306C20.5851 19.3306 21.3337 18.582 21.3337 17.6651C21.3337 16.7481 20.5851 15.9996 19.6682 15.9996C18.7512 15.9996 18.0027 16.7481 18.0027 17.6651Z" fill="#667085"/>
</svg>
