<svg width="32" height="32" viewBox="0 0 32 32" fill="none" xmlns="http://www.w3.org/2000/svg">
<path d="M16 0C24.8366 5.15406e-07 32 7.16344 32 16C32 24.8366 24.8366 32 16 32C7.16344 32 5.1544e-07 24.8366 0 16C0 7.16344 7.16344 0 16 0ZM22.6807 6.3252C22.0259 6.32534 21.4651 6.69945 21.2031 7.26074L17.3291 6.4375C17.2168 6.41879 17.1043 6.43702 17.0107 6.49316C16.9173 6.54927 16.8607 6.64271 16.8232 6.75488L15.6445 12.332C13.1557 12.4069 10.9286 13.1365 9.31934 14.3154C8.90765 13.9226 8.32741 13.6602 7.70996 13.6602C6.41888 13.6603 5.37109 14.7089 5.37109 16C5.3712 16.9542 5.93261 17.7586 6.75586 18.1328C6.71845 18.3572 6.70022 18.6006 6.7002 18.8438C6.7002 22.4367 10.8732 25.3379 16.0381 25.3379C21.2028 25.3378 25.376 22.4367 25.376 18.8438C25.376 18.6006 25.3567 18.3758 25.3193 18.1514C26.0865 17.7771 26.6669 16.9543 26.667 16C26.667 14.7089 25.6192 13.6603 24.3281 13.6602C23.692 13.6602 23.1304 13.9038 22.7188 14.3154C21.1282 13.174 18.9199 12.4257 16.4873 12.332L17.5537 7.33496L21.0156 8.06543C21.0532 8.94474 21.7827 9.65605 22.6807 9.65625C23.5976 9.65625 24.3467 8.90719 24.3467 7.99023C24.3466 7.07334 23.5976 6.3252 22.6807 6.3252ZM19.3877 21.4453C19.5561 21.277 19.8365 21.277 20.0049 21.4453C20.1358 21.6323 20.1359 21.8941 19.9678 22.0625C18.8265 23.2037 16.6564 23.2793 16.0195 23.2793C15.3833 23.2793 13.1931 23.1853 12.0703 22.0625C11.9022 21.8941 11.9021 21.6136 12.0703 21.4453C12.2387 21.2769 12.5201 21.2769 12.6885 21.4453C13.3997 22.1563 14.9341 22.418 16.0381 22.418C17.1422 22.4179 18.6579 22.1564 19.3877 21.4453ZM12.332 16C13.2489 16 13.9979 16.7482 13.998 17.665C13.998 18.582 13.249 19.3311 12.332 19.3311C11.4153 19.3308 10.667 18.5818 10.667 17.665C10.6671 16.7483 11.4153 16.0003 12.332 16ZM19.668 16C20.5849 16 21.3339 16.7482 21.334 17.665C21.334 18.582 20.5849 19.3311 19.668 19.3311C18.7511 19.3309 18.0029 18.5819 18.0029 17.665C18.003 16.7482 18.7512 16.0001 19.668 16Z" fill="#FCF7FF" fill-opacity="0.1"/>
<path fill-rule="evenodd" clip-rule="evenodd" d="M26.667 15.9996C26.667 14.7083 25.619 13.6604 24.3278 13.6604C23.6916 13.6604 23.1302 13.9037 22.7185 14.3153C21.1278 13.1738 18.9196 12.4253 16.4869 12.3317L17.5535 7.33523L21.0155 8.06506C21.053 8.94459 21.7828 9.6557 22.681 9.6557C23.598 9.6557 24.3465 8.90716 24.3465 7.99021C24.3465 7.07325 23.598 6.32471 22.681 6.32471C22.0261 6.32471 21.4647 6.69898 21.2027 7.26038L17.329 6.43699C17.2167 6.41828 17.1044 6.43699 17.0109 6.49313C16.9173 6.54927 16.8612 6.64284 16.8237 6.75512L15.6448 12.3317C13.1559 12.4066 10.929 13.1364 9.31963 14.3153C8.90794 13.9224 8.32782 13.6604 7.71028 13.6604C6.41905 13.6604 5.37109 14.7083 5.37109 15.9996C5.37109 16.9539 5.9325 17.7586 6.75589 18.1329C6.71846 18.3575 6.69975 18.6007 6.69975 18.844C6.69975 22.437 10.8728 25.3376 16.0378 25.3376C21.2027 25.3376 25.3758 22.437 25.3758 18.844C25.3758 18.6007 25.3571 18.3762 25.3196 18.1516C26.0869 17.7773 26.667 16.9539 26.667 15.9996ZM12.3325 15.9996C11.4155 15.9996 10.667 16.7481 10.667 17.6651C10.667 18.582 11.4155 19.3306 12.3325 19.3306C13.2495 19.3306 13.998 18.582 13.998 17.6651C13.998 16.7481 13.2495 15.9996 12.3325 15.9996ZM16.019 23.2791C16.6553 23.2791 18.8261 23.2042 19.9676 22.0627C20.136 21.8943 20.136 21.6323 20.005 21.4452C19.8366 21.2768 19.5559 21.2768 19.3875 21.4452C18.6576 22.1563 17.1419 22.4183 16.0378 22.4183C14.9337 22.4183 13.3992 22.1563 12.6881 21.4452C12.5196 21.2768 12.2389 21.2768 12.0705 21.4452C11.9021 21.6136 11.9021 21.8943 12.0705 22.0627C13.1933 23.1855 15.3828 23.2791 16.019 23.2791ZM18.0027 17.6651C18.0027 18.582 18.7512 19.3306 19.6682 19.3306C20.5851 19.3306 21.3337 18.582 21.3337 17.6651C21.3337 16.7481 20.5851 15.9996 19.6682 15.9996C18.7512 15.9996 18.0027 16.7481 18.0027 17.6651Z" fill="white"/>
</svg>
