<svg width="69" height="69" viewBox="0 0 69 69" fill="none" xmlns="http://www.w3.org/2000/svg">
<rect width="69" height="69" rx="6.6208" fill="url(#paint0_linear_6803_5062)"/>
<path d="M55.1835 27.0582L49.5585 32.6832C49.2946 32.9471 48.9367 33.0953 48.5636 33.0953C48.1904 33.0953 47.8325 32.9471 47.5687 32.6832C47.3048 32.4193 47.1565 32.0614 47.1565 31.6883C47.1565 31.3151 47.3048 30.9572 47.5687 30.6934L50.7942 27.4695H45.7511C45.4593 27.4695 38.4825 27.6049 37.2942 34.7311C36.4347 39.8797 33.4024 42.2352 31.0083 43.2898C29.4839 43.9597 27.841 44.3183 26.1761 44.3445H25.8878C25.5455 45.6701 24.7315 46.8254 23.5984 47.5938C22.4653 48.3622 21.0908 48.691 19.7326 48.5184C18.3745 48.3459 17.1258 47.684 16.2208 46.6567C15.3157 45.6295 14.8164 44.3074 14.8164 42.9383C14.8164 41.5692 15.3157 40.2471 16.2208 39.2198C17.1258 38.1926 18.3745 37.5306 19.7326 37.3581C21.0908 37.1856 22.4653 37.5144 23.5984 38.2827C24.7315 39.0511 25.5455 40.2064 25.8878 41.532H26.1216C26.4063 41.532 33.2882 41.6744 34.5222 34.2688C35.3483 29.3047 38.3683 26.9422 40.7677 25.84C42.3347 25.1215 44.0283 24.7195 45.7511 24.657H50.7942L47.5687 21.4332C47.3048 21.1693 47.1565 20.8114 47.1565 20.4383C47.1565 20.0651 47.3048 19.7072 47.5687 19.4434C47.8325 19.1795 48.1904 19.0313 48.5636 19.0312C48.9367 19.0312 49.2946 19.1795 49.5585 19.4434L55.1835 25.0684C55.3142 25.199 55.418 25.3541 55.4887 25.5248C55.5595 25.6955 55.5959 25.8785 55.5959 26.0633C55.5959 26.2481 55.5595 26.4311 55.4887 26.6018C55.418 26.7725 55.3142 26.9276 55.1835 27.0582Z" fill="white"/>
<defs>
<linearGradient id="paint0_linear_6803_5062" x1="34.5" y1="0" x2="34.5" y2="69" gradientUnits="userSpaceOnUse">
<stop stop-color="#E87941"/>
<stop offset="1" stop-color="#DE3282"/>
</linearGradient>
</defs>
</svg>
