<svg width="560" height="310" viewBox="0 0 560 310" fill="none" xmlns="http://www.w3.org/2000/svg">
<g filter="url(#filter0_dd_628_281)">
<g clip-path="url(#clip0_628_281)">
<rect x="28" y="108" width="355" height="86.8391" rx="9.96607" fill="white"/>
<path d="M61.5647 157.566C63.2224 157.513 64.8932 157.54 66.7218 157.605C68.6031 157.461 70.5501 157.263 72.4314 157.119C74.4311 156.987 74.51 157.763 72.9182 159.132C71.4447 160.395 69.5503 161.631 66.735 162.802C64.8668 163.341 63.104 163.605 61.4858 163.644C59.9071 163.618 58.4995 163.394 57.2365 162.986C56.6182 162.789 56.1972 162.539 55.9472 162.249C55.7499 162.013 55.6973 161.842 55.7762 161.684C55.8551 161.539 56.0525 161.46 56.3682 161.486C56.7103 161.5 57.1707 161.605 57.7496 161.776C59.1309 162.144 60.4334 162.328 61.6568 162.381C62.8803 162.381 64.117 162.236 65.4194 161.894C69.1162 160.395 70.0371 159.342 67.7085 159.026C66.3929 158.803 64.9589 158.684 63.5513 158.671C62.2094 158.566 60.6702 158.579 59.223 158.671L57.6575 158.592C57.2628 158.54 56.8418 158.408 56.434 158.184C56.013 157.948 55.6973 157.658 55.4736 157.369C55.2763 157.079 55.2237 156.856 55.3026 156.685C55.3947 156.5 55.6183 156.448 55.9735 156.54L57.0129 156.75C58.2758 156.908 59.0388 156.764 59.2493 156.329C59.5256 155.869 59.6177 155.251 59.7493 154.488C59.8282 153.777 59.6309 153.172 59.0915 152.646C58.5915 152.093 57.8548 151.659 56.9865 151.357C55.8025 150.883 54.5264 150.804 53.2503 151.238C52.974 151.343 52.7241 151.357 52.5399 151.264C52.3426 151.172 52.211 150.988 52.0926 150.712C52.0005 150.422 51.9742 150.094 52.0268 149.778C52.1058 149.37 52.2899 149.094 52.5794 148.975C53.1582 148.646 53.8292 148.581 54.5922 148.673C55.4342 148.778 56.2104 148.975 56.9865 149.317C58.3284 149.778 59.5914 150.449 60.6307 151.37C61.7621 152.172 62.433 153.159 62.5251 154.303C62.6041 155.014 62.5514 155.632 62.3673 156.185C62.4462 156.724 62.2225 157.198 61.5647 157.566ZM66.064 141.227C70.3002 138.661 74.5363 138.832 77.9305 140.056C81.5615 142.226 84.8504 145.002 87.5079 148.489C88.7051 151.278 88.5209 153.527 87.5737 155.211C86.2976 156.987 85.0741 158.145 83.9559 158.75C82.7192 159.46 81.7588 159.553 81.2195 159.026C80.8643 158.711 80.7722 158.171 80.8643 157.356C80.8643 156.592 80.8511 155.685 80.588 154.895C80.1933 154.672 79.8644 154.409 79.6145 154.027C79.3382 153.764 79.1935 153.501 79.2198 153.185C79.2066 152.896 79.3382 152.633 79.6408 152.383C79.8249 152.238 80.0223 152.133 80.2065 152.067C80.4301 152.001 80.6932 151.962 81.009 151.988C83.1402 153.04 83.7322 154.33 84.2716 154.803C84.6136 155.606 85.5082 155.119 86.7054 153.33C87.3106 151.712 86.2713 149.002 82.8771 145.2L82.785 145.108C83.4559 146.002 83.1928 146.226 82.2193 145.936C81.5878 146.028 80.6143 146.055 79.3119 146.278C78.3252 146.976 77.299 147.975 76.2334 149.475C75.0494 151.264 73.5102 152.804 71.5763 153.961C69.4714 154.659 67.8532 154.619 66.9981 154.053C66.4192 153.264 66.1298 152.317 65.9588 151.146C65.5904 149.857 65.2878 148.475 65.13 146.949C64.9063 145.094 65.1431 143.174 66.064 141.227ZM75.6414 144.502C77.0359 143.739 77.8647 143.305 77.9437 142.792C78.4304 142.529 78.1015 142.029 76.786 141.24C75.7072 140.608 73.9838 140.082 71.8262 139.885C69.8529 139.937 68.1426 140.977 67.0112 142.95C66.7218 144.95 66.9849 146.673 67.4848 148.239C67.8137 149.567 68.4321 150.62 69.4451 151.317C70.6685 151.659 72.1157 150.949 73.4444 149.344C74.4311 147.673 75.0494 145.976 75.6414 144.502Z" fill="#484455"/>
<path d="M99.649 151.908C99.7819 151.908 99.894 151.954 99.9854 152.045C100.077 152.128 100.122 152.236 100.122 152.369C100.122 152.502 100.077 152.614 99.9854 152.705C99.894 152.789 99.7819 152.83 99.649 152.83H97.5437V154.935C97.5437 155.068 97.498 155.18 97.4066 155.272C97.3236 155.363 97.2156 155.409 97.0827 155.409C96.9499 155.409 96.8377 155.363 96.7464 155.272C96.6633 155.18 96.6218 155.068 96.6218 154.935V152.83H94.5165C94.3836 152.83 94.2715 152.784 94.1801 152.693C94.0888 152.602 94.0431 152.494 94.0431 152.369C94.0431 152.236 94.0888 152.128 94.1801 152.045C94.2715 151.954 94.3836 151.908 94.5165 151.908H96.6218V149.803C96.6218 149.67 96.6633 149.558 96.7464 149.467C96.8377 149.375 96.9499 149.329 97.0827 149.329C97.2156 149.329 97.3236 149.375 97.4066 149.467C97.498 149.558 97.5437 149.67 97.5437 149.803V151.908H99.649Z" fill="black"/>
<path d="M116.206 141.893C116.511 141.763 116.772 141.697 116.957 141.763C117.121 141.85 117.23 142.024 117.241 142.253C117.251 142.492 117.175 142.732 117.077 143.037C117.077 143.037 115.422 146.794 114.529 150.833C114.388 155.57 113.789 159.915 113.789 159.915C113.56 160.416 113.288 160.732 112.939 160.884C112.732 160.993 112.547 160.971 112.384 160.819C112.199 160.656 112.123 160.449 112.123 160.165C112.155 159.991 112.21 159.773 112.297 159.523C112.297 159.523 112.831 155.93 112.929 151.748C113.342 148.002 114.703 144.354 114.703 144.354L107.506 148.394C107.179 148.503 106.896 148.503 106.711 148.394C106.482 148.285 106.384 148.089 106.351 147.839C106.297 147.262 106.613 146.924 107.331 146.75L116.206 141.893ZM125.462 150.714C126.17 151.334 126.605 152.01 126.758 152.761C127.052 153.567 127.008 154.351 126.79 155.233C126.518 156.474 125.843 157.149 124.83 157.291C123.927 157.476 122.903 157.236 121.749 156.55C121.117 156.224 120.518 155.875 119.93 155.396C119.429 155.08 119.005 154.732 118.656 154.296C118.471 154.078 118.362 153.817 118.319 153.425C118.308 153.131 118.34 152.859 118.428 152.619C118.515 152.369 118.624 152.227 118.743 152.162C118.896 152.14 119.07 152.195 119.233 152.369C119.658 152.902 120.05 153.371 120.398 153.708C120.79 154.089 121.248 154.372 121.749 154.612C123.349 155.592 124.308 155.309 124.613 153.708C124.743 152.902 124.667 152.206 124.373 151.628C124.133 151.095 123.535 150.539 122.631 150.049L121.683 149.57C121.466 149.472 121.335 149.32 121.302 149.167C121.27 148.982 121.313 148.808 121.444 148.645C121.553 148.503 121.705 148.383 121.89 148.318C122.075 148.242 122.282 148.275 122.522 148.394L123.251 148.765C124.155 149.255 124.928 149.483 125.593 149.451C126.333 149.483 126.888 149.189 127.139 148.612C127.291 148.057 127.128 147.523 126.66 146.957C126.224 146.402 125.582 145.912 124.721 145.454C123.393 144.714 122.119 144.398 120.801 144.529C120.486 144.55 120.246 144.529 120.028 144.442C119.832 144.365 119.669 144.213 119.538 144.039C119.397 143.832 119.331 143.647 119.353 143.418C119.408 143.157 119.56 142.928 119.843 142.83C120.464 142.645 121.172 142.645 122.021 142.863C122.979 143.124 123.937 143.549 124.896 144.093C126.409 144.91 127.672 145.726 128.533 146.608C129.404 147.403 129.796 148.242 129.578 149.233C129.404 149.897 128.946 150.42 128.162 150.746C127.259 150.986 126.344 150.921 125.462 150.714ZM139.465 158.989C139.77 158.968 139.977 159.033 140.086 159.175C140.217 159.349 140.239 159.567 140.162 159.871C140.032 160.514 139.65 160.895 139.008 160.917L130.623 161.102C130.253 161.058 129.948 160.884 129.687 160.645C129.513 160.416 129.415 160.122 129.436 159.871C129.48 159.567 129.665 159.294 129.981 159.12L138.398 153.142C139.607 152.391 140.554 151.781 141.349 151.247C142.188 150.823 142.721 150.343 143.004 149.875C143.135 149.222 142.841 148.699 142.199 148.296C141.611 147.883 140.837 147.621 139.89 147.523C138.355 147.403 136.874 147.752 135.371 148.514C135.164 148.579 134.968 148.645 134.805 148.721C134.663 148.765 134.522 148.775 134.369 148.786C134.119 148.797 133.912 148.732 133.759 148.579C133.585 148.427 133.509 148.231 133.509 148.013C133.52 147.719 133.705 147.48 134.075 147.316C134.761 146.881 135.611 146.565 136.612 146.293C137.56 146.064 138.474 145.988 139.367 146.031C140.957 146.151 142.384 146.598 143.647 147.327C144.899 148.079 145.563 148.982 145.465 150.028C145.052 150.768 144.333 151.432 143.298 151.999C142.22 152.587 140.99 153.414 139.454 154.383L133.019 159.229L139.465 158.989Z" fill="#484455"/>
<path d="M158.721 151.584C158.588 151.584 158.476 151.539 158.384 151.447C158.293 151.356 158.247 151.244 158.247 151.111C158.247 150.986 158.293 150.883 158.384 150.799C158.476 150.708 158.588 150.662 158.721 150.662H163.853C163.986 150.662 164.098 150.708 164.189 150.799C164.281 150.891 164.327 151.003 164.327 151.136C164.327 151.26 164.281 151.368 164.189 151.46C164.098 151.543 163.986 151.584 163.853 151.584H158.721ZM158.721 154.076C158.588 154.076 158.476 154.03 158.384 153.939C158.293 153.847 158.247 153.735 158.247 153.602C158.247 153.478 158.293 153.374 158.384 153.291C158.476 153.2 158.588 153.154 158.721 153.154H163.853C163.986 153.154 164.098 153.2 164.189 153.291C164.281 153.382 164.327 153.494 164.327 153.627C164.327 153.752 164.281 153.86 164.189 153.951C164.098 154.034 163.986 154.076 163.853 154.076H158.721Z" fill="black"/>
<path d="M195.132 155.92C194.932 155.92 194.775 155.866 194.658 155.758C194.55 155.641 194.496 155.488 194.496 155.297V147.76C194.496 147.569 194.55 147.419 194.658 147.311C194.775 147.195 194.932 147.137 195.132 147.137H199.716C199.907 147.137 200.052 147.183 200.152 147.274C200.26 147.365 200.314 147.494 200.314 147.66C200.314 147.826 200.26 147.955 200.152 148.046C200.052 148.129 199.907 148.171 199.716 148.171H195.755V150.937H199.467C199.658 150.937 199.803 150.982 199.903 151.074C200.011 151.165 200.065 151.294 200.065 151.46C200.065 151.626 200.011 151.755 199.903 151.846C199.803 151.937 199.658 151.983 199.467 151.983H195.755V154.886H199.716C200.115 154.886 200.314 155.056 200.314 155.396C200.314 155.562 200.26 155.691 200.152 155.783C200.052 155.874 199.907 155.92 199.716 155.92H195.132ZM204.91 149.691C206.364 149.691 207.091 150.509 207.091 152.145V155.384C207.091 155.575 207.032 155.724 206.916 155.832C206.808 155.932 206.654 155.982 206.455 155.982C206.264 155.982 206.111 155.928 205.994 155.82C205.886 155.712 205.832 155.567 205.832 155.384V152.207C205.832 151.692 205.728 151.314 205.521 151.074C205.322 150.833 205.006 150.712 204.574 150.712C204.067 150.712 203.661 150.87 203.353 151.186C203.046 151.501 202.892 151.925 202.892 152.456V155.384C202.892 155.567 202.834 155.712 202.718 155.82C202.61 155.928 202.46 155.982 202.269 155.982C202.078 155.982 201.925 155.928 201.808 155.82C201.692 155.712 201.634 155.567 201.634 155.384V150.314C201.634 150.139 201.692 149.998 201.808 149.89C201.933 149.774 202.087 149.716 202.269 149.716C202.452 149.716 202.597 149.77 202.705 149.878C202.813 149.986 202.867 150.127 202.867 150.301V150.812C203.067 150.447 203.345 150.168 203.702 149.977C204.059 149.786 204.462 149.691 204.91 149.691ZM211.789 155.023C211.972 155.039 212.101 155.089 212.175 155.172C212.258 155.247 212.3 155.355 212.3 155.496C212.3 155.662 212.233 155.791 212.101 155.882C211.976 155.965 211.789 155.998 211.54 155.982L211.204 155.957C210.531 155.907 210.028 155.704 209.696 155.347C209.364 154.981 209.198 154.445 209.198 153.739V150.812H208.451C208.085 150.812 207.902 150.65 207.902 150.326C207.902 150.177 207.948 150.06 208.039 149.977C208.139 149.886 208.276 149.84 208.451 149.84H209.198V148.557C209.198 148.366 209.252 148.217 209.36 148.109C209.476 148.001 209.63 147.947 209.821 147.947C210.012 147.947 210.166 148.001 210.282 148.109C210.398 148.217 210.456 148.366 210.456 148.557V149.84H211.689C211.864 149.84 211.997 149.886 212.088 149.977C212.188 150.06 212.238 150.177 212.238 150.326C212.238 150.484 212.188 150.604 212.088 150.687C211.997 150.77 211.864 150.812 211.689 150.812H210.456V153.827C210.456 154.217 210.535 154.504 210.693 154.686C210.859 154.869 211.108 154.973 211.44 154.998L211.789 155.023ZM217.962 154.387C218.079 154.387 218.174 154.433 218.249 154.524C218.324 154.616 218.361 154.732 218.361 154.873C218.361 155.114 218.212 155.317 217.913 155.484C217.622 155.65 217.302 155.778 216.953 155.87C216.613 155.961 216.285 156.007 215.969 156.007C215.006 156.007 214.246 155.729 213.689 155.172C213.133 154.607 212.855 153.839 212.855 152.867C212.855 152.245 212.975 151.692 213.216 151.211C213.465 150.729 213.81 150.355 214.25 150.089C214.698 149.824 215.205 149.691 215.77 149.691C216.584 149.691 217.227 149.952 217.701 150.476C218.174 150.999 218.411 151.705 218.411 152.593C218.411 152.926 218.261 153.092 217.962 153.092H214.113C214.196 154.379 214.815 155.023 215.969 155.023C216.276 155.023 216.542 154.981 216.766 154.898C216.991 154.815 217.227 154.707 217.477 154.574C217.501 154.558 217.568 154.524 217.676 154.474C217.792 154.416 217.888 154.387 217.962 154.387ZM215.795 150.613C215.313 150.613 214.927 150.766 214.636 151.074C214.346 151.381 214.171 151.813 214.113 152.369H217.327C217.302 151.804 217.157 151.373 216.891 151.074C216.634 150.766 216.268 150.613 215.795 150.613ZM222.986 149.716C223.385 149.691 223.584 149.861 223.584 150.226C223.584 150.409 223.539 150.546 223.447 150.638C223.356 150.729 223.198 150.783 222.974 150.799L222.6 150.837C222.077 150.887 221.687 151.069 221.429 151.385C221.18 151.701 221.056 152.083 221.056 152.531V155.384C221.056 155.583 220.997 155.733 220.881 155.832C220.765 155.932 220.615 155.982 220.433 155.982C220.25 155.982 220.096 155.932 219.972 155.832C219.855 155.733 219.797 155.583 219.797 155.384V150.314C219.797 150.123 219.855 149.977 219.972 149.878C220.096 149.77 220.25 149.716 220.433 149.716C220.599 149.716 220.736 149.77 220.844 149.878C220.96 149.977 221.018 150.118 221.018 150.301V150.899C221.184 150.534 221.425 150.256 221.741 150.064C222.056 149.873 222.413 149.761 222.812 149.728L222.986 149.716ZM229.762 156.007C228.915 156.007 228.221 155.832 227.682 155.484C227.532 155.392 227.424 155.297 227.358 155.197C227.299 155.097 227.27 154.985 227.27 154.861C227.27 154.728 227.308 154.616 227.383 154.524C227.457 154.433 227.553 154.387 227.669 154.387C227.777 154.387 227.947 154.454 228.18 154.587C228.429 154.719 228.67 154.827 228.902 154.91C229.143 154.994 229.442 155.035 229.799 155.035C230.198 155.035 230.509 154.964 230.734 154.823C230.958 154.682 231.07 154.483 231.07 154.225C231.07 154.059 231.024 153.926 230.933 153.827C230.85 153.727 230.7 153.64 230.484 153.565C230.269 153.482 229.949 153.395 229.525 153.303C228.794 153.146 228.267 152.934 227.943 152.668C227.628 152.394 227.47 152.024 227.47 151.559C227.47 151.202 227.574 150.883 227.781 150.6C227.989 150.309 228.275 150.085 228.641 149.927C229.006 149.77 229.421 149.691 229.887 149.691C230.219 149.691 230.543 149.736 230.858 149.828C231.174 149.911 231.452 150.035 231.693 150.202C231.967 150.384 232.104 150.596 232.104 150.837C232.104 150.97 232.062 151.082 231.979 151.173C231.905 151.265 231.813 151.31 231.705 151.31C231.631 151.31 231.556 151.294 231.481 151.26C231.406 151.227 231.307 151.173 231.182 151.098C230.958 150.966 230.746 150.862 230.547 150.787C230.356 150.712 230.115 150.675 229.824 150.675C229.475 150.675 229.193 150.75 228.977 150.899C228.769 151.049 228.666 151.252 228.666 151.51C228.666 151.742 228.761 151.925 228.952 152.058C229.152 152.182 229.521 152.303 230.061 152.419C230.617 152.535 231.053 152.668 231.369 152.818C231.685 152.967 231.909 153.154 232.042 153.378C232.183 153.594 232.253 153.872 232.253 154.213C232.253 154.753 232.025 155.189 231.568 155.521C231.12 155.845 230.518 156.007 229.762 156.007ZM238.363 149.716C238.554 149.716 238.703 149.77 238.811 149.878C238.928 149.986 238.986 150.135 238.986 150.326V155.396C238.986 155.571 238.928 155.712 238.811 155.82C238.695 155.928 238.541 155.982 238.35 155.982C238.176 155.982 238.035 155.932 237.927 155.832C237.819 155.724 237.765 155.583 237.765 155.409V154.935C237.574 155.284 237.308 155.55 236.968 155.733C236.635 155.915 236.262 156.007 235.846 156.007C234.368 156.007 233.629 155.193 233.629 153.565V150.326C233.629 150.135 233.683 149.986 233.791 149.878C233.907 149.77 234.065 149.716 234.264 149.716C234.455 149.716 234.605 149.77 234.713 149.878C234.829 149.986 234.887 150.135 234.887 150.326V153.553C234.887 154.043 234.987 154.404 235.186 154.636C235.386 154.869 235.693 154.985 236.108 154.985C236.598 154.985 236.988 154.827 237.279 154.512C237.578 154.196 237.728 153.777 237.728 153.254V150.326C237.728 150.143 237.786 149.998 237.902 149.89C238.018 149.774 238.172 149.716 238.363 149.716ZM247.723 149.691C249.085 149.691 249.766 150.509 249.766 152.145V155.384C249.766 155.575 249.708 155.724 249.591 155.832C249.475 155.932 249.321 155.982 249.13 155.982C248.948 155.982 248.798 155.932 248.682 155.832C248.566 155.724 248.508 155.575 248.508 155.384V152.157C248.508 151.651 248.416 151.285 248.234 151.061C248.051 150.829 247.764 150.712 247.374 150.712C246.917 150.712 246.556 150.87 246.29 151.186C246.024 151.493 245.891 151.917 245.891 152.456V155.384C245.891 155.575 245.833 155.724 245.717 155.832C245.601 155.932 245.447 155.982 245.256 155.982C245.073 155.982 244.924 155.932 244.808 155.832C244.691 155.724 244.633 155.575 244.633 155.384V152.157C244.633 151.651 244.542 151.285 244.359 151.061C244.176 150.829 243.89 150.712 243.5 150.712C243.043 150.712 242.677 150.87 242.403 151.186C242.138 151.493 242.005 151.917 242.005 152.456V155.384C242.005 155.575 241.947 155.724 241.83 155.832C241.714 155.932 241.565 155.982 241.382 155.982C241.199 155.982 241.045 155.932 240.921 155.832C240.805 155.724 240.747 155.575 240.747 155.384V150.314C240.747 150.131 240.809 149.986 240.933 149.878C241.058 149.77 241.207 149.716 241.382 149.716C241.556 149.716 241.697 149.77 241.805 149.878C241.922 149.977 241.98 150.118 241.98 150.301V150.762C242.163 150.413 242.416 150.148 242.74 149.965C243.064 149.782 243.437 149.691 243.861 149.691C244.326 149.691 244.708 149.786 245.007 149.977C245.314 150.168 245.543 150.463 245.692 150.862C245.875 150.505 246.145 150.222 246.502 150.015C246.859 149.799 247.266 149.691 247.723 149.691ZM257.414 156.007C256.817 156.007 256.289 155.878 255.832 155.621C255.384 155.363 255.035 154.998 254.786 154.524C254.545 154.043 254.425 153.486 254.425 152.855C254.425 152.216 254.545 151.659 254.786 151.186C255.035 150.704 255.384 150.334 255.832 150.077C256.289 149.819 256.817 149.691 257.414 149.691C258.012 149.691 258.536 149.819 258.984 150.077C259.441 150.334 259.79 150.704 260.031 151.186C260.28 151.659 260.404 152.216 260.404 152.855C260.404 153.486 260.28 154.043 260.031 154.524C259.79 154.998 259.441 155.363 258.984 155.621C258.536 155.878 258.012 156.007 257.414 156.007ZM257.414 155.01C257.971 155.01 258.394 154.827 258.685 154.462C258.984 154.097 259.134 153.561 259.134 152.855C259.134 152.157 258.984 151.626 258.685 151.26C258.386 150.887 257.963 150.7 257.414 150.7C256.866 150.7 256.443 150.887 256.144 151.26C255.845 151.626 255.695 152.157 255.695 152.855C255.695 153.561 255.841 154.097 256.131 154.462C256.43 154.827 256.858 155.01 257.414 155.01ZM264.646 148.096C264.231 148.129 263.924 148.262 263.724 148.495C263.525 148.719 263.425 149.051 263.425 149.491V149.84H264.659C264.833 149.84 264.966 149.886 265.057 149.977C265.157 150.06 265.207 150.177 265.207 150.326C265.207 150.476 265.157 150.596 265.057 150.687C264.966 150.77 264.833 150.812 264.659 150.812H263.425V155.371C263.425 155.571 263.363 155.724 263.238 155.832C263.122 155.932 262.973 155.982 262.79 155.982C262.607 155.982 262.458 155.932 262.341 155.832C262.225 155.724 262.167 155.571 262.167 155.371V150.812H261.42C261.245 150.812 261.108 150.77 261.008 150.687C260.917 150.596 260.871 150.476 260.871 150.326C260.871 150.177 260.917 150.06 261.008 149.977C261.108 149.886 261.245 149.84 261.42 149.84H262.167V149.678C262.167 148.914 262.362 148.316 262.753 147.884C263.143 147.444 263.695 147.199 264.409 147.149L264.733 147.125C264.999 147.108 265.19 147.137 265.306 147.212C265.431 147.286 265.493 147.407 265.493 147.573C265.493 147.864 265.319 148.03 264.97 148.071L264.646 148.096ZM272.6 149.691C274.053 149.691 274.78 150.509 274.78 152.145V155.384C274.78 155.575 274.722 155.724 274.606 155.832C274.498 155.932 274.344 155.982 274.145 155.982C273.954 155.982 273.8 155.928 273.684 155.82C273.576 155.712 273.522 155.567 273.522 155.384V152.207C273.522 151.692 273.418 151.314 273.21 151.074C273.011 150.833 272.695 150.712 272.264 150.712C271.757 150.712 271.35 150.87 271.043 151.186C270.735 151.501 270.582 151.925 270.582 152.456V155.384C270.582 155.567 270.524 155.712 270.407 155.82C270.299 155.928 270.15 155.982 269.959 155.982C269.768 155.982 269.614 155.928 269.498 155.82C269.382 155.712 269.324 155.567 269.324 155.384V150.314C269.324 150.139 269.382 149.998 269.498 149.89C269.623 149.774 269.776 149.716 269.959 149.716C270.142 149.716 270.287 149.77 270.395 149.878C270.503 149.986 270.557 150.127 270.557 150.301V150.812C270.756 150.447 271.034 150.168 271.391 149.977C271.749 149.786 272.151 149.691 272.6 149.691ZM281.21 149.716C281.401 149.716 281.551 149.77 281.659 149.878C281.775 149.986 281.833 150.135 281.833 150.326V155.396C281.833 155.571 281.775 155.712 281.659 155.82C281.542 155.928 281.389 155.982 281.198 155.982C281.023 155.982 280.882 155.932 280.774 155.832C280.666 155.724 280.612 155.583 280.612 155.409V154.935C280.421 155.284 280.155 155.55 279.815 155.733C279.483 155.915 279.109 156.007 278.694 156.007C277.215 156.007 276.476 155.193 276.476 153.565V150.326C276.476 150.135 276.53 149.986 276.638 149.878C276.755 149.77 276.912 149.716 277.112 149.716C277.303 149.716 277.452 149.77 277.56 149.878C277.676 149.986 277.735 150.135 277.735 150.326V153.553C277.735 154.043 277.834 154.404 278.034 154.636C278.233 154.869 278.54 154.985 278.955 154.985C279.445 154.985 279.836 154.827 280.126 154.512C280.425 154.196 280.575 153.777 280.575 153.254V150.326C280.575 150.143 280.633 149.998 280.749 149.89C280.866 149.774 281.019 149.716 281.21 149.716ZM290.57 149.691C291.932 149.691 292.613 150.509 292.613 152.145V155.384C292.613 155.575 292.555 155.724 292.439 155.832C292.322 155.932 292.169 155.982 291.978 155.982C291.795 155.982 291.646 155.932 291.529 155.832C291.413 155.724 291.355 155.575 291.355 155.384V152.157C291.355 151.651 291.264 151.285 291.081 151.061C290.898 150.829 290.612 150.712 290.221 150.712C289.764 150.712 289.403 150.87 289.137 151.186C288.872 151.493 288.739 151.917 288.739 152.456V155.384C288.739 155.575 288.681 155.724 288.564 155.832C288.448 155.932 288.294 155.982 288.103 155.982C287.921 155.982 287.771 155.932 287.655 155.832C287.539 155.724 287.481 155.575 287.481 155.384V152.157C287.481 151.651 287.389 151.285 287.206 151.061C287.024 150.829 286.737 150.712 286.347 150.712C285.89 150.712 285.525 150.87 285.251 151.186C284.985 151.493 284.852 151.917 284.852 152.456V155.384C284.852 155.575 284.794 155.724 284.678 155.832C284.561 155.932 284.412 155.982 284.229 155.982C284.046 155.982 283.893 155.932 283.768 155.832C283.652 155.724 283.594 155.575 283.594 155.384V150.314C283.594 150.131 283.656 149.986 283.781 149.878C283.905 149.77 284.055 149.716 284.229 149.716C284.404 149.716 284.545 149.77 284.653 149.878C284.769 149.977 284.827 150.118 284.827 150.301V150.762C285.01 150.413 285.263 150.148 285.587 149.965C285.911 149.782 286.285 149.691 286.708 149.691C287.173 149.691 287.555 149.786 287.854 149.977C288.162 150.168 288.39 150.463 288.539 150.862C288.722 150.505 288.992 150.222 289.349 150.015C289.706 149.799 290.113 149.691 290.57 149.691ZM297.6 149.691C298.131 149.691 298.601 149.819 299.008 150.077C299.415 150.334 299.73 150.7 299.954 151.173C300.187 151.647 300.303 152.199 300.303 152.83C300.303 153.453 300.187 154.005 299.954 154.487C299.73 154.969 299.41 155.342 298.995 155.608C298.588 155.874 298.123 156.007 297.6 156.007C297.143 156.007 296.74 155.911 296.392 155.72C296.043 155.521 295.777 155.239 295.594 154.873V155.371C295.594 155.554 295.536 155.704 295.42 155.82C295.312 155.928 295.162 155.982 294.971 155.982C294.78 155.982 294.627 155.928 294.51 155.82C294.394 155.704 294.336 155.554 294.336 155.371V147.673C294.336 147.49 294.394 147.345 294.51 147.237C294.635 147.129 294.793 147.075 294.984 147.075C295.167 147.075 295.312 147.129 295.42 147.237C295.536 147.336 295.594 147.473 295.594 147.648V150.837C295.777 150.471 296.043 150.189 296.392 149.99C296.74 149.79 297.143 149.691 297.6 149.691ZM297.301 155.01C297.841 155.01 298.26 154.819 298.559 154.437C298.866 154.055 299.02 153.519 299.02 152.83C299.02 152.149 298.871 151.626 298.572 151.26C298.273 150.887 297.849 150.7 297.301 150.7C296.753 150.7 296.329 150.887 296.03 151.26C295.74 151.634 295.594 152.166 295.594 152.855C295.594 153.544 295.74 154.076 296.03 154.45C296.329 154.823 296.753 155.01 297.301 155.01ZM306.455 154.387C306.571 154.387 306.667 154.433 306.742 154.524C306.816 154.616 306.854 154.732 306.854 154.873C306.854 155.114 306.704 155.317 306.405 155.484C306.114 155.65 305.795 155.778 305.446 155.87C305.105 155.961 304.777 156.007 304.462 156.007C303.498 156.007 302.738 155.729 302.182 155.172C301.626 154.607 301.347 153.839 301.347 152.867C301.347 152.245 301.468 151.692 301.709 151.211C301.958 150.729 302.302 150.355 302.743 150.089C303.191 149.824 303.698 149.691 304.262 149.691C305.076 149.691 305.72 149.952 306.193 150.476C306.667 150.999 306.903 151.705 306.903 152.593C306.903 152.926 306.754 153.092 306.455 153.092H302.606C302.689 154.379 303.307 155.023 304.462 155.023C304.769 155.023 305.035 154.981 305.259 154.898C305.483 154.815 305.72 154.707 305.969 154.574C305.994 154.558 306.061 154.524 306.168 154.474C306.285 154.416 306.38 154.387 306.455 154.387ZM304.287 150.613C303.806 150.613 303.42 150.766 303.129 151.074C302.838 151.381 302.664 151.813 302.606 152.369H305.82C305.795 151.804 305.649 151.373 305.384 151.074C305.126 150.766 304.761 150.613 304.287 150.613ZM311.479 149.716C311.878 149.691 312.077 149.861 312.077 150.226C312.077 150.409 312.031 150.546 311.94 150.638C311.849 150.729 311.691 150.783 311.467 150.799L311.093 150.837C310.57 150.887 310.179 151.069 309.922 151.385C309.673 151.701 309.548 152.083 309.548 152.531V155.384C309.548 155.583 309.49 155.733 309.374 155.832C309.258 155.932 309.108 155.982 308.925 155.982C308.743 155.982 308.589 155.932 308.464 155.832C308.348 155.733 308.29 155.583 308.29 155.384V150.314C308.29 150.123 308.348 149.977 308.464 149.878C308.589 149.77 308.743 149.716 308.925 149.716C309.091 149.716 309.228 149.77 309.336 149.878C309.453 149.977 309.511 150.118 309.511 150.301V150.899C309.677 150.534 309.918 150.256 310.233 150.064C310.549 149.873 310.906 149.761 311.305 149.728L311.479 149.716ZM314.909 156.007C314.062 156.007 313.368 155.832 312.829 155.484C312.679 155.392 312.571 155.297 312.505 155.197C312.447 155.097 312.418 154.985 312.418 154.861C312.418 154.728 312.455 154.616 312.53 154.524C312.604 154.433 312.7 154.387 312.816 154.387C312.924 154.387 313.094 154.454 313.327 154.587C313.576 154.719 313.817 154.827 314.049 154.91C314.29 154.994 314.589 155.035 314.946 155.035C315.345 155.035 315.656 154.964 315.881 154.823C316.105 154.682 316.217 154.483 316.217 154.225C316.217 154.059 316.171 153.926 316.08 153.827C315.997 153.727 315.848 153.64 315.632 153.565C315.416 153.482 315.096 153.395 314.672 153.303C313.941 153.146 313.414 152.934 313.09 152.668C312.775 152.394 312.617 152.024 312.617 151.559C312.617 151.202 312.721 150.883 312.928 150.6C313.136 150.309 313.422 150.085 313.788 149.927C314.153 149.77 314.569 149.691 315.034 149.691C315.366 149.691 315.69 149.736 316.005 149.828C316.321 149.911 316.599 150.035 316.84 150.202C317.114 150.384 317.251 150.596 317.251 150.837C317.251 150.97 317.21 151.082 317.126 151.173C317.052 151.265 316.96 151.31 316.852 151.31C316.778 151.31 316.703 151.294 316.628 151.26C316.553 151.227 316.454 151.173 316.329 151.098C316.105 150.966 315.893 150.862 315.694 150.787C315.503 150.712 315.262 150.675 314.971 150.675C314.623 150.675 314.34 150.75 314.124 150.899C313.917 151.049 313.813 151.252 313.813 151.51C313.813 151.742 313.908 151.925 314.099 152.058C314.299 152.182 314.668 152.303 315.208 152.419C315.764 152.535 316.2 152.668 316.516 152.818C316.832 152.967 317.056 153.154 317.189 153.378C317.33 153.594 317.401 153.872 317.401 154.213C317.401 154.753 317.172 155.189 316.715 155.521C316.267 155.845 315.665 156.007 314.909 156.007ZM325.375 149.691C326.82 149.691 327.542 150.509 327.542 152.145V155.384C327.542 155.567 327.484 155.712 327.368 155.82C327.252 155.928 327.098 155.982 326.907 155.982C326.716 155.982 326.562 155.928 326.446 155.82C326.338 155.712 326.284 155.567 326.284 155.384V152.157C326.284 151.659 326.18 151.294 325.973 151.061C325.773 150.829 325.458 150.712 325.026 150.712C324.519 150.712 324.112 150.87 323.805 151.186C323.498 151.501 323.344 151.925 323.344 152.456V155.384C323.344 155.567 323.286 155.712 323.17 155.82C323.062 155.928 322.912 155.982 322.721 155.982C322.53 155.982 322.376 155.928 322.26 155.82C322.144 155.712 322.086 155.567 322.086 155.384V147.673C322.086 147.49 322.144 147.345 322.26 147.237C322.385 147.129 322.543 147.075 322.734 147.075C322.916 147.075 323.062 147.129 323.17 147.237C323.286 147.336 323.344 147.473 323.344 147.648V150.762C323.552 150.413 323.83 150.148 324.179 149.965C324.527 149.782 324.926 149.691 325.375 149.691ZM334.022 154.387C334.139 154.387 334.234 154.433 334.309 154.524C334.384 154.616 334.421 154.732 334.421 154.873C334.421 155.114 334.271 155.317 333.972 155.484C333.682 155.65 333.362 155.778 333.013 155.87C332.673 155.961 332.345 156.007 332.029 156.007C331.066 156.007 330.306 155.729 329.749 155.172C329.193 154.607 328.915 153.839 328.915 152.867C328.915 152.245 329.035 151.692 329.276 151.211C329.525 150.729 329.87 150.355 330.31 150.089C330.758 149.824 331.265 149.691 331.83 149.691C332.644 149.691 333.287 149.952 333.761 150.476C334.234 150.999 334.471 151.705 334.471 152.593C334.471 152.926 334.321 153.092 334.022 153.092H330.173C330.256 154.379 330.875 155.023 332.029 155.023C332.336 155.023 332.602 154.981 332.826 154.898C333.051 154.815 333.287 154.707 333.536 154.574C333.561 154.558 333.628 154.524 333.736 154.474C333.852 154.416 333.948 154.387 334.022 154.387ZM331.855 150.613C331.373 150.613 330.987 150.766 330.696 151.074C330.405 151.381 330.231 151.813 330.173 152.369H333.387C333.362 151.804 333.217 151.373 332.951 151.074C332.693 150.766 332.328 150.613 331.855 150.613ZM339.046 149.716C339.445 149.691 339.644 149.861 339.644 150.226C339.644 150.409 339.599 150.546 339.507 150.638C339.416 150.729 339.258 150.783 339.034 150.799L338.66 150.837C338.137 150.887 337.747 151.069 337.489 151.385C337.24 151.701 337.115 152.083 337.115 152.531V155.384C337.115 155.583 337.057 155.733 336.941 155.832C336.825 155.932 336.675 155.982 336.493 155.982C336.31 155.982 336.156 155.932 336.032 155.832C335.915 155.733 335.857 155.583 335.857 155.384V150.314C335.857 150.123 335.915 149.977 336.032 149.878C336.156 149.77 336.31 149.716 336.493 149.716C336.659 149.716 336.796 149.77 336.904 149.878C337.02 149.977 337.078 150.118 337.078 150.301V150.899C337.244 150.534 337.485 150.256 337.801 150.064C338.116 149.873 338.473 149.761 338.872 149.728L339.046 149.716ZM345.056 154.387C345.173 154.387 345.268 154.433 345.343 154.524C345.418 154.616 345.455 154.732 345.455 154.873C345.455 155.114 345.306 155.317 345.007 155.484C344.716 155.65 344.396 155.778 344.047 155.87C343.707 155.961 343.379 156.007 343.063 156.007C342.1 156.007 341.34 155.729 340.784 155.172C340.227 154.607 339.949 153.839 339.949 152.867C339.949 152.245 340.069 151.692 340.31 151.211C340.559 150.729 340.904 150.355 341.344 150.089C341.793 149.824 342.299 149.691 342.864 149.691C343.678 149.691 344.321 149.952 344.795 150.476C345.268 150.999 345.505 151.705 345.505 152.593C345.505 152.926 345.355 153.092 345.056 153.092H341.207C341.29 154.379 341.909 155.023 343.063 155.023C343.371 155.023 343.636 154.981 343.861 154.898C344.085 154.815 344.321 154.707 344.571 154.574C344.596 154.558 344.662 154.524 344.77 154.474C344.886 154.416 344.982 154.387 345.056 154.387ZM342.889 150.613C342.407 150.613 342.021 150.766 341.73 151.074C341.44 151.381 341.265 151.813 341.207 152.369H344.421C344.396 151.804 344.251 151.373 343.985 151.074C343.728 150.766 343.362 150.613 342.889 150.613Z" fill="#B5B5B5"/>
<rect x="177.975" y="133.42" width="184" height="36" rx="10.5" stroke="#D8D1D8"/>
</g>
</g>
<g filter="url(#filter1_dd_628_281)">
<rect x="158" y="162" width="377.008" height="94" rx="9.96607" fill="white"/>
<path d="M198.717 190.205C198.883 190.156 198.991 190.156 199.05 190.215C199.119 190.264 199.119 190.352 199.08 190.499C199.031 190.637 198.952 190.764 198.834 190.882C198.717 190.98 198.579 191.048 198.403 191.107L193.048 192.99C192.871 193.059 192.744 193.059 192.665 192.99C192.606 192.902 192.596 192.775 192.655 192.608C192.724 192.431 192.851 192.235 193.048 192.019L199.384 185.713L195.578 186.399C195.421 186.429 195.323 186.409 195.264 186.341C195.225 186.262 195.235 186.164 195.294 186.017C195.362 185.86 195.451 185.723 195.568 185.625C195.696 185.507 195.833 185.438 195.98 185.419L200.57 184.781C200.727 184.771 200.855 184.801 200.924 184.889C200.992 184.958 201.012 185.056 200.963 185.183C200.914 185.311 200.806 185.448 200.659 185.585L194.44 191.578L198.717 190.205ZM201.385 190.411C201.188 190.45 201.051 190.431 200.973 190.352C200.884 190.274 200.884 190.146 200.943 189.979C200.943 189.979 201.61 188.008 202.385 186.184C202.964 184.399 202.905 182.515 202.905 182.515C202.885 182.368 202.915 182.251 203.003 182.172C203.081 182.084 203.209 182.045 203.376 182.064C203.533 182.084 203.67 182.152 203.788 182.26C203.905 182.358 203.964 182.476 203.984 182.633C203.984 182.633 204.062 184.457 203.562 186.174C202.807 187.92 202.179 189.793 202.179 189.793C202.13 189.96 202.032 190.097 201.895 190.205C201.747 190.313 201.571 190.381 201.385 190.411ZM209.28 184.644C208.78 184.467 208.407 184.477 208.162 184.614C207.907 184.742 207.799 185.007 207.789 185.409L207.76 185.732L209.319 186.35C209.466 186.429 209.584 186.527 209.653 186.645C209.721 186.743 209.741 186.851 209.712 186.949C209.692 187.057 209.633 187.115 209.535 187.115C209.437 187.125 209.3 187.096 209.153 187.017L207.603 186.37L206.514 190.205C206.485 190.342 206.397 190.44 206.24 190.489C206.092 190.548 205.926 190.558 205.72 190.538C205.514 190.509 205.357 190.46 205.229 190.372C205.131 190.274 205.092 190.156 205.131 190.009L206.446 186.036L205.524 185.762C205.367 185.713 205.249 185.654 205.18 185.575C205.112 185.487 205.092 185.399 205.121 185.301C205.141 185.193 205.2 185.114 205.288 185.085C205.396 185.046 205.524 185.046 205.681 185.095L206.602 185.389L206.622 185.203C206.642 184.575 206.808 184.134 207.191 183.918C207.554 183.692 208.152 183.673 208.966 183.859L209.319 183.967C209.574 184.055 209.741 184.153 209.849 184.261C209.967 184.369 210.045 184.506 210.075 184.644C210.104 184.879 209.967 184.928 209.643 184.791L209.28 184.644ZM219.441 192.834C219.618 192.873 219.785 192.932 219.922 193C220.079 193.079 220.167 193.157 220.197 193.226C220.246 193.344 219.991 193.373 219.432 193.324C218.843 193.285 218.215 193.236 217.558 193.157C216.891 193.079 216.244 192.99 215.626 192.873C213.812 192.5 212.419 192 211.438 191.343C210.496 190.695 210.084 190.028 210.104 189.303C210.124 188.832 210.32 188.479 210.663 188.253C210.987 188.018 211.438 187.92 212.007 187.959C212.605 188.008 213.301 188.194 214.106 188.518C215.293 188.94 216.371 189.45 217.323 190.038C218.323 190.617 219.029 191.205 219.412 191.774C219.481 191.882 219.471 191.951 219.392 191.97C219.304 191.99 219.118 191.97 218.853 191.921L211.703 189.96C211.909 190.99 213.145 191.813 215.548 192.363C216.165 192.5 216.725 192.588 217.166 192.637C217.627 192.677 218.107 192.716 218.618 192.745C219.02 192.765 219.294 192.794 219.441 192.834ZM214.312 189.136C213.498 188.832 212.88 188.724 212.438 188.793C211.987 188.861 211.742 189.116 211.703 189.518L217.774 191.313C217.509 190.882 217.068 190.489 216.46 190.126C215.861 189.744 215.136 189.42 214.312 189.136ZM232.447 196.315C232.624 196.384 232.781 196.472 232.908 196.58C233.055 196.688 233.143 196.796 233.183 196.904L233.83 199.366C233.859 199.523 233.83 199.621 233.742 199.66C233.673 199.709 233.526 199.699 233.3 199.65C232.83 199.552 232.251 199.376 231.545 199.101C230.858 198.836 230.152 198.522 229.436 198.169C228.082 197.483 226.866 196.718 225.817 195.982C224.748 195.256 223.855 194.53 223.129 193.814C222.364 193.138 221.786 192.471 221.383 191.833C220.952 191.205 220.854 190.744 221.099 190.45C221.315 190.117 221.835 189.94 222.668 189.96C223.433 189.96 224.493 190.166 225.856 190.646C226.778 190.96 227.67 191.333 228.524 191.794C229.377 192.265 230.172 192.765 230.878 193.304C231.182 193.53 231.378 193.716 231.486 193.873C231.564 193.991 231.584 194.079 231.545 194.128C231.505 194.177 231.417 194.167 231.26 194.099C231.123 194.04 230.927 193.922 230.672 193.746C229.838 193.177 229.112 192.726 228.514 192.402C227.896 192.059 227.249 191.764 226.533 191.5C224.914 190.911 223.875 190.784 223.335 190.99C222.757 191.156 222.747 191.657 223.286 192.5C223.718 193.334 224.414 194.167 225.434 195.001C226.425 195.864 227.739 196.718 229.357 197.532C230.525 198.101 231.555 198.503 232.467 198.748L231.927 196.669L229.142 195.413C228.926 195.315 228.73 195.197 228.573 195.08C228.416 194.972 228.318 194.864 228.279 194.776C228.23 194.677 228.259 194.628 228.377 194.638C228.485 194.638 228.651 194.687 228.877 194.776L232.447 196.315ZM240.254 191.196C240.401 191.068 240.529 191.029 240.647 191.088C240.764 191.107 240.862 191.215 240.941 191.392C240.941 191.392 242.294 193.559 243.697 195.57C244.845 197.443 245.502 199.366 245.502 199.366C245.541 199.513 245.531 199.65 245.482 199.788C245.433 199.925 245.345 200.033 245.207 200.121C245.08 200.199 244.972 200.209 244.884 200.16C244.796 200.111 244.737 200.023 244.707 199.876L241.412 193.775L241.892 199.68C241.814 199.905 241.667 200.023 241.431 200.043C241.206 200.062 241.01 199.984 240.833 199.797L235.958 195.766L237.832 200.817C237.851 200.935 237.812 201.023 237.714 201.092C237.626 201.161 237.488 201.2 237.292 201.19C237.116 201.18 236.959 201.131 236.851 201.053C236.733 200.965 236.674 200.866 236.655 200.739C236.655 200.739 236.39 199.15 235.909 197.561C235.017 195.864 233.791 194.001 233.791 194.001C233.683 193.844 233.663 193.736 233.712 193.677C233.761 193.608 233.889 193.608 234.095 193.667C234.35 193.746 234.644 193.903 234.958 194.177L241.225 199.072L240.097 192C240.048 191.804 240.048 191.637 240.068 191.529C240.097 191.392 240.166 191.284 240.254 191.196Z" fill="black"/>
<path d="M199.657 232C199.458 232 199.3 231.946 199.183 231.838C199.076 231.722 199.022 231.568 199.022 231.377V223.84C199.022 223.649 199.076 223.5 199.183 223.392C199.3 223.276 199.458 223.217 199.657 223.217H204.241C204.432 223.217 204.578 223.263 204.677 223.354C204.785 223.446 204.839 223.575 204.839 223.741C204.839 223.907 204.785 224.035 204.677 224.127C204.578 224.21 204.432 224.251 204.241 224.251H200.28V227.017H203.992C204.183 227.017 204.328 227.063 204.428 227.154C204.536 227.245 204.59 227.374 204.59 227.54C204.59 227.706 204.536 227.835 204.428 227.926C204.328 228.018 204.183 228.063 203.992 228.063H200.28V230.966H204.241C204.64 230.966 204.839 231.136 204.839 231.477C204.839 231.643 204.785 231.772 204.677 231.863C204.578 231.954 204.432 232 204.241 232H199.657ZM209.436 225.771C210.889 225.771 211.616 226.589 211.616 228.225V231.464C211.616 231.655 211.558 231.805 211.441 231.913C211.333 232.012 211.18 232.062 210.98 232.062C210.789 232.062 210.636 232.008 210.519 231.9C210.411 231.792 210.357 231.647 210.357 231.464V228.288C210.357 227.773 210.254 227.395 210.046 227.154C209.847 226.913 209.531 226.793 209.099 226.793C208.593 226.793 208.186 226.951 207.878 227.266C207.571 227.582 207.417 228.005 207.417 228.537V231.464C207.417 231.647 207.359 231.792 207.243 231.9C207.135 232.008 206.986 232.062 206.795 232.062C206.604 232.062 206.45 232.008 206.334 231.9C206.217 231.792 206.159 231.647 206.159 231.464V226.394C206.159 226.22 206.217 226.078 206.334 225.971C206.458 225.854 206.612 225.796 206.795 225.796C206.977 225.796 207.123 225.85 207.231 225.958C207.339 226.066 207.393 226.207 207.393 226.382V226.892C207.592 226.527 207.87 226.249 208.227 226.058C208.584 225.867 208.987 225.771 209.436 225.771ZM216.314 231.103C216.497 231.12 216.626 231.169 216.7 231.253C216.784 231.327 216.825 231.435 216.825 231.576C216.825 231.743 216.759 231.871 216.626 231.963C216.501 232.046 216.314 232.079 216.065 232.062L215.729 232.037C215.056 231.988 214.554 231.784 214.221 231.427C213.889 231.062 213.723 230.526 213.723 229.82V226.892H212.976C212.61 226.892 212.428 226.73 212.428 226.407C212.428 226.257 212.473 226.141 212.565 226.058C212.664 225.966 212.801 225.921 212.976 225.921H213.723V224.638C213.723 224.447 213.777 224.297 213.885 224.189C214.001 224.081 214.155 224.027 214.346 224.027C214.537 224.027 214.691 224.081 214.807 224.189C214.923 224.297 214.981 224.447 214.981 224.638V225.921H216.215C216.389 225.921 216.522 225.966 216.613 226.058C216.713 226.141 216.763 226.257 216.763 226.407C216.763 226.564 216.713 226.685 216.613 226.768C216.522 226.851 216.389 226.892 216.215 226.892H214.981V229.907C214.981 230.297 215.06 230.584 215.218 230.767C215.384 230.949 215.633 231.053 215.965 231.078L216.314 231.103ZM222.488 230.468C222.604 230.468 222.699 230.513 222.774 230.605C222.849 230.696 222.886 230.812 222.886 230.954C222.886 231.194 222.737 231.398 222.438 231.564C222.147 231.73 221.827 231.859 221.478 231.95C221.138 232.042 220.81 232.087 220.494 232.087C219.531 232.087 218.771 231.809 218.215 231.253C217.658 230.688 217.38 229.92 217.38 228.948C217.38 228.325 217.5 227.773 217.741 227.291C217.99 226.809 218.335 226.436 218.775 226.17C219.224 225.904 219.73 225.771 220.295 225.771C221.109 225.771 221.753 226.033 222.226 226.556C222.699 227.079 222.936 227.785 222.936 228.674C222.936 229.006 222.787 229.172 222.488 229.172H218.638C218.721 230.459 219.34 231.103 220.494 231.103C220.802 231.103 221.067 231.062 221.292 230.978C221.516 230.895 221.753 230.787 222.002 230.655C222.027 230.638 222.093 230.605 222.201 230.555C222.317 230.497 222.413 230.468 222.488 230.468ZM220.32 226.693C219.838 226.693 219.452 226.847 219.161 227.154C218.871 227.461 218.696 227.893 218.638 228.45H221.852C221.827 227.885 221.682 227.453 221.416 227.154C221.159 226.847 220.793 226.693 220.32 226.693ZM227.512 225.796C227.91 225.771 228.11 225.941 228.11 226.307C228.11 226.49 228.064 226.627 227.973 226.718C227.881 226.809 227.723 226.863 227.499 226.88L227.125 226.917C226.602 226.967 226.212 227.15 225.954 227.465C225.705 227.781 225.581 228.163 225.581 228.612V231.464C225.581 231.664 225.523 231.813 225.406 231.913C225.29 232.012 225.141 232.062 224.958 232.062C224.775 232.062 224.621 232.012 224.497 231.913C224.381 231.813 224.322 231.664 224.322 231.464V226.394C224.322 226.203 224.381 226.058 224.497 225.958C224.621 225.85 224.775 225.796 224.958 225.796C225.124 225.796 225.261 225.85 225.369 225.958C225.485 226.058 225.543 226.199 225.543 226.382V226.98C225.709 226.614 225.95 226.336 226.266 226.145C226.581 225.954 226.939 225.842 227.337 225.809L227.512 225.796ZM235.147 231.103C235.329 231.12 235.458 231.169 235.533 231.253C235.616 231.327 235.657 231.435 235.657 231.576C235.657 231.743 235.591 231.871 235.458 231.963C235.334 232.046 235.147 232.079 234.898 232.062L234.561 232.037C233.888 231.988 233.386 231.784 233.054 231.427C232.722 231.062 232.555 230.526 232.555 229.82V226.892H231.808C231.443 226.892 231.26 226.73 231.26 226.407C231.26 226.257 231.306 226.141 231.397 226.058C231.497 225.966 231.634 225.921 231.808 225.921H232.555V224.638C232.555 224.447 232.609 224.297 232.717 224.189C232.834 224.081 232.987 224.027 233.178 224.027C233.369 224.027 233.523 224.081 233.639 224.189C233.756 224.297 233.814 224.447 233.814 224.638V225.921H235.047C235.221 225.921 235.354 225.966 235.446 226.058C235.545 226.141 235.595 226.257 235.595 226.407C235.595 226.564 235.545 226.685 235.446 226.768C235.354 226.851 235.221 226.892 235.047 226.892H233.814V229.907C233.814 230.297 233.893 230.584 234.05 230.767C234.216 230.949 234.466 231.053 234.798 231.078L235.147 231.103ZM241.32 230.468C241.436 230.468 241.532 230.513 241.606 230.605C241.681 230.696 241.719 230.812 241.719 230.954C241.719 231.194 241.569 231.398 241.27 231.564C240.979 231.73 240.66 231.859 240.311 231.95C239.97 232.042 239.642 232.087 239.327 232.087C238.363 232.087 237.603 231.809 237.047 231.253C236.49 230.688 236.212 229.92 236.212 228.948C236.212 228.325 236.333 227.773 236.574 227.291C236.823 226.809 237.167 226.436 237.608 226.17C238.056 225.904 238.563 225.771 239.127 225.771C239.941 225.771 240.585 226.033 241.058 226.556C241.532 227.079 241.768 227.785 241.768 228.674C241.768 229.006 241.619 229.172 241.32 229.172H237.47C237.554 230.459 238.172 231.103 239.327 231.103C239.634 231.103 239.9 231.062 240.124 230.978C240.348 230.895 240.585 230.787 240.834 230.655C240.859 230.638 240.925 230.605 241.033 230.555C241.15 230.497 241.245 230.468 241.32 230.468ZM239.152 226.693C238.671 226.693 238.284 226.847 237.994 227.154C237.703 227.461 237.529 227.893 237.47 228.45H240.685C240.66 227.885 240.514 227.453 240.249 227.154C239.991 226.847 239.626 226.693 239.152 226.693ZM248.153 231.053C248.278 231.178 248.34 231.323 248.34 231.489C248.34 231.647 248.282 231.784 248.166 231.9C248.058 232.008 247.925 232.062 247.767 232.062C247.609 232.062 247.464 231.992 247.331 231.851L245.425 229.708L243.531 231.851C243.399 231.992 243.253 232.062 243.095 232.062C242.938 232.062 242.801 232.004 242.684 231.888C242.576 231.772 242.522 231.635 242.522 231.477C242.522 231.319 242.581 231.178 242.697 231.053L244.665 228.886L242.796 226.805C242.672 226.664 242.61 226.523 242.61 226.382C242.61 226.224 242.668 226.091 242.784 225.983C242.9 225.867 243.033 225.809 243.183 225.809C243.34 225.809 243.486 225.879 243.619 226.02L245.425 228.063L247.231 226.02C247.364 225.879 247.514 225.809 247.68 225.809C247.829 225.809 247.962 225.867 248.079 225.983C248.195 226.091 248.253 226.224 248.253 226.382C248.253 226.539 248.191 226.681 248.066 226.805L246.197 228.886L248.153 231.053ZM252.556 231.103C252.738 231.12 252.867 231.169 252.942 231.253C253.025 231.327 253.066 231.435 253.066 231.576C253.066 231.743 253 231.871 252.867 231.963C252.743 232.046 252.556 232.079 252.306 232.062L251.97 232.037C251.297 231.988 250.795 231.784 250.463 231.427C250.131 231.062 249.964 230.526 249.964 229.82V226.892H249.217C248.852 226.892 248.669 226.73 248.669 226.407C248.669 226.257 248.715 226.141 248.806 226.058C248.906 225.966 249.043 225.921 249.217 225.921H249.964V224.638C249.964 224.447 250.018 224.297 250.126 224.189C250.243 224.081 250.396 224.027 250.587 224.027C250.778 224.027 250.932 224.081 251.048 224.189C251.165 224.297 251.223 224.447 251.223 224.638V225.921H252.456C252.63 225.921 252.763 225.966 252.855 226.058C252.954 226.141 253.004 226.257 253.004 226.407C253.004 226.564 252.954 226.685 252.855 226.768C252.763 226.851 252.63 226.892 252.456 226.892H251.223V229.907C251.223 230.297 251.302 230.584 251.459 230.767C251.625 230.949 251.875 231.053 252.207 231.078L252.556 231.103Z" fill="#B5B5B5"/>
<rect x="182.5" y="209.5" width="193" height="36" rx="7.5" stroke="#D8D1D8"/>
<path d="M466.576 202.018C471.361 208.324 474.823 209.296 482.771 205.202L491.215 213.507C477.96 222.198 470.6 222.996 457.717 210.739L453.703 215.03V197.866H470.452L466.576 202.018Z" fill="#C3C3C3"/>
<path d="M493.429 184.578C487.493 177.387 483.383 176.451 475.85 175.58V187.484C479.973 188.134 482.049 189.047 484.571 193.436L480.695 197.45H497.305V180.425L493.429 184.578Z" fill="#B569B5"/>
<path d="M471.698 188.592C467.621 190.971 466.374 193.009 465.746 197.727H453.703C454.388 189.623 456.36 185.704 462.839 179.871L458.825 175.58H475.85V192.744L471.698 188.592Z" fill="#C97BC9"/>
<path d="M444.061 231.775C444.46 231.75 444.659 231.92 444.659 232.286C444.659 232.468 444.613 232.606 444.522 232.697C444.431 232.788 444.273 232.842 444.049 232.859L443.675 232.896C443.152 232.946 442.761 233.129 442.504 233.444C442.255 233.76 442.13 234.142 442.13 234.59V237.443C442.13 237.643 442.072 237.792 441.956 237.892C441.84 237.991 441.69 238.041 441.507 238.041C441.325 238.041 441.171 237.991 441.046 237.892C440.93 237.792 440.872 237.643 440.872 237.443V232.373C440.872 232.182 440.93 232.037 441.046 231.937C441.171 231.829 441.325 231.775 441.507 231.775C441.673 231.775 441.811 231.829 441.918 231.937C442.035 232.037 442.093 232.178 442.093 232.361V232.958C442.259 232.593 442.5 232.315 442.815 232.124C443.131 231.933 443.488 231.821 443.887 231.787L444.061 231.775ZM450.071 236.447C450.188 236.447 450.283 236.492 450.358 236.584C450.433 236.675 450.47 236.791 450.47 236.932C450.47 237.173 450.32 237.377 450.021 237.543C449.731 237.709 449.411 237.838 449.062 237.929C448.722 238.02 448.394 238.066 448.078 238.066C447.115 238.066 446.355 237.788 445.798 237.231C445.242 236.667 444.964 235.898 444.964 234.927C444.964 234.304 445.084 233.752 445.325 233.27C445.574 232.788 445.919 232.414 446.359 232.149C446.807 231.883 447.314 231.75 447.879 231.75C448.693 231.75 449.336 232.012 449.81 232.535C450.283 233.058 450.52 233.764 450.52 234.653C450.52 234.985 450.37 235.151 450.071 235.151H446.222C446.305 236.438 446.924 237.082 448.078 237.082C448.385 237.082 448.651 237.04 448.875 236.957C449.1 236.874 449.336 236.766 449.585 236.633C449.61 236.617 449.677 236.584 449.785 236.534C449.901 236.476 449.997 236.447 450.071 236.447ZM447.904 232.672C447.422 232.672 447.036 232.826 446.745 233.133C446.454 233.44 446.28 233.872 446.222 234.428H449.436C449.411 233.864 449.266 233.432 449 233.133C448.742 232.826 448.377 232.672 447.904 232.672ZM455.88 238.079C455.041 238.079 454.311 237.9 453.688 237.543C453.065 237.177 452.587 236.658 452.255 235.986C451.923 235.305 451.757 234.503 451.757 233.581C451.757 232.668 451.923 231.875 452.255 231.202C452.587 230.521 453.065 230.002 453.688 229.645C454.311 229.279 455.041 229.097 455.88 229.097C456.428 229.097 456.947 229.184 457.437 229.358C457.927 229.524 458.355 229.769 458.721 230.093C458.878 230.218 458.957 230.384 458.957 230.592C458.957 230.741 458.916 230.87 458.833 230.978C458.75 231.077 458.65 231.127 458.534 231.127C458.392 231.127 458.255 231.073 458.123 230.965C457.724 230.666 457.359 230.459 457.026 230.342C456.702 230.218 456.333 230.156 455.918 230.156C455.004 230.156 454.302 230.45 453.812 231.04C453.322 231.63 453.077 232.477 453.077 233.581C453.077 234.694 453.322 235.546 453.812 236.135C454.302 236.725 455.004 237.02 455.918 237.02C456.316 237.02 456.677 236.957 457.001 236.833C457.334 236.708 457.707 236.501 458.123 236.21C458.289 236.102 458.426 236.048 458.534 236.048C458.65 236.048 458.75 236.102 458.833 236.21C458.916 236.31 458.957 236.434 458.957 236.584C458.957 236.791 458.878 236.957 458.721 237.082C458.355 237.406 457.927 237.655 457.437 237.829C456.947 237.995 456.428 238.079 455.88 238.079ZM468.053 237.231C468.094 237.331 468.115 237.414 468.115 237.481C468.115 237.638 468.048 237.771 467.916 237.879C467.791 237.987 467.65 238.041 467.492 238.041C467.384 238.041 467.28 238.012 467.181 237.954C467.089 237.888 467.019 237.796 466.969 237.68L466.147 235.811H461.587L460.765 237.68C460.715 237.796 460.64 237.888 460.541 237.954C460.441 238.012 460.337 238.041 460.229 238.041C460.063 238.041 459.914 237.987 459.781 237.879C459.656 237.771 459.594 237.638 459.594 237.481C459.594 237.414 459.615 237.331 459.656 237.231L463.169 229.545C463.227 229.412 463.319 229.308 463.443 229.234C463.576 229.159 463.713 229.122 463.854 229.122C463.996 229.122 464.128 229.159 464.253 229.234C464.386 229.308 464.481 229.412 464.54 229.545L468.053 237.231ZM462.048 234.79H465.698L463.867 230.666L462.048 234.79ZM470.088 238.041C469.897 238.041 469.743 237.983 469.627 237.867C469.511 237.75 469.453 237.593 469.453 237.393V229.819C469.453 229.628 469.507 229.479 469.614 229.371C469.731 229.254 469.889 229.196 470.088 229.196H473.09C474.02 229.196 474.743 229.425 475.258 229.881C475.773 230.338 476.03 230.986 476.03 231.825C476.03 232.655 475.773 233.303 475.258 233.768C474.743 234.233 474.02 234.466 473.09 234.466H470.736V237.393C470.736 237.593 470.678 237.75 470.561 237.867C470.453 237.983 470.296 238.041 470.088 238.041ZM472.953 233.432C474.182 233.432 474.797 232.896 474.797 231.825C474.797 230.762 474.182 230.23 472.953 230.23H470.736V233.432H472.953ZM480.101 238.041C479.91 238.041 479.752 237.983 479.627 237.867C479.511 237.742 479.453 237.584 479.453 237.393V230.268H476.962C476.563 230.268 476.364 230.089 476.364 229.732C476.364 229.558 476.413 229.425 476.513 229.333C476.621 229.242 476.771 229.196 476.962 229.196H483.24C483.431 229.196 483.577 229.242 483.676 229.333C483.784 229.425 483.838 229.558 483.838 229.732C483.838 230.089 483.639 230.268 483.24 230.268H480.749V237.393C480.749 237.584 480.691 237.742 480.574 237.867C480.458 237.983 480.3 238.041 480.101 238.041ZM488.192 238.079C487.353 238.079 486.622 237.9 486 237.543C485.377 237.177 484.899 236.658 484.567 235.986C484.235 235.305 484.069 234.503 484.069 233.581C484.069 232.668 484.235 231.875 484.567 231.202C484.899 230.521 485.377 230.002 486 229.645C486.622 229.279 487.353 229.097 488.192 229.097C488.74 229.097 489.259 229.184 489.749 229.358C490.239 229.524 490.667 229.769 491.032 230.093C491.19 230.218 491.269 230.384 491.269 230.592C491.269 230.741 491.228 230.87 491.145 230.978C491.061 231.077 490.962 231.127 490.846 231.127C490.704 231.127 490.567 231.073 490.434 230.965C490.036 230.666 489.67 230.459 489.338 230.342C489.014 230.218 488.645 230.156 488.229 230.156C487.316 230.156 486.614 230.45 486.124 231.04C485.634 231.63 485.389 232.477 485.389 233.581C485.389 234.694 485.634 235.546 486.124 236.135C486.614 236.725 487.316 237.02 488.229 237.02C488.628 237.02 488.989 236.957 489.313 236.833C489.645 236.708 490.019 236.501 490.434 236.21C490.601 236.102 490.738 236.048 490.846 236.048C490.962 236.048 491.061 236.102 491.145 236.21C491.228 236.31 491.269 236.434 491.269 236.584C491.269 236.791 491.19 236.957 491.032 237.082C490.667 237.406 490.239 237.655 489.749 237.829C489.259 237.995 488.74 238.079 488.192 238.079ZM499.613 229.134C499.804 229.134 499.957 229.196 500.074 229.321C500.19 229.437 500.248 229.591 500.248 229.782V237.393C500.248 237.584 500.19 237.742 500.074 237.867C499.957 237.983 499.804 238.041 499.613 238.041C499.422 238.041 499.268 237.983 499.152 237.867C499.035 237.75 498.977 237.593 498.977 237.393V234.042H494.069V237.393C494.069 237.584 494.011 237.742 493.895 237.867C493.778 237.983 493.625 238.041 493.434 238.041C493.243 238.041 493.089 237.983 492.973 237.867C492.856 237.75 492.798 237.593 492.798 237.393V229.782C492.798 229.591 492.856 229.437 492.973 229.321C493.089 229.196 493.243 229.134 493.434 229.134C493.625 229.134 493.778 229.196 493.895 229.321C494.011 229.437 494.069 229.591 494.069 229.782V232.996H498.977V229.782C498.977 229.591 499.035 229.437 499.152 229.321C499.268 229.196 499.422 229.134 499.613 229.134ZM510.036 237.231C510.078 237.331 510.098 237.414 510.098 237.481C510.098 237.638 510.032 237.771 509.899 237.879C509.775 237.987 509.633 238.041 509.476 238.041C509.368 238.041 509.264 238.012 509.164 237.954C509.073 237.888 509.002 237.796 508.952 237.68L508.13 235.811H503.571L502.748 237.68C502.699 237.796 502.624 237.888 502.524 237.954C502.425 238.012 502.321 238.041 502.213 238.041C502.047 238.041 501.897 237.987 501.764 237.879C501.64 237.771 501.577 237.638 501.577 237.481C501.577 237.414 501.598 237.331 501.64 237.231L505.153 229.545C505.211 229.412 505.302 229.308 505.427 229.234C505.56 229.159 505.697 229.122 505.838 229.122C505.979 229.122 506.112 229.159 506.237 229.234C506.369 229.308 506.465 229.412 506.523 229.545L510.036 237.231ZM504.032 234.79H507.682L505.85 230.666L504.032 234.79Z" fill="#797979"/>
</g>
<path d="M363.44 64.205L368.695 61.0688C370.266 60.1306 372.285 61.1067 372.526 62.9213L373.403 69.5244C373.546 70.6009 374.355 71.4686 375.419 71.6856L384.615 73.5612C386.883 74.0239 387.409 77.0273 385.432 78.2329L377.675 82.9648C376.584 83.6308 375.167 83.3843 374.365 82.3884L362.762 67.9917C361.79 66.7857 362.11 64.9988 363.44 64.205Z" fill="#A894E6"/>
<path d="M387.634 71.4785L375.265 59.5441C374.534 58.8382 373.319 59.4273 373.421 60.4389L374.366 69.8647C374.413 70.3347 374.757 70.7211 375.218 70.8224L386.642 73.3309C387.717 73.567 388.427 72.2431 387.634 71.4785Z" fill="#A894E6"/>
<path d="M487.291 95.4389L488.319 83.0766C488.484 81.0926 490.759 80.0558 492.364 81.2328L502.189 88.4345C503.129 89.1231 504.416 89.0869 505.315 88.3465L517.239 78.5298C519.026 77.0584 521.691 78.5403 521.384 80.8348L519.347 96.0545C519.177 97.3221 518.094 98.2676 516.815 98.2644L489.824 98.198C488.336 98.1943 487.167 96.9217 487.291 95.4389Z" fill="#A894E6"/>
<path d="M517.487 74.6789L491.136 76.7623C490.121 76.8425 489.758 78.145 490.585 78.7382L503.093 87.7092C503.491 87.9942 504.029 87.9803 504.411 87.6752L518.255 76.6208C519.096 75.949 518.56 74.5941 517.487 74.6789Z" fill="#A894E6"/>
<path d="M407.115 129.722L407.297 111.366C407.319 109.221 409.818 108.061 411.47 109.429L424.959 120.6C425.848 121.336 427.121 121.383 428.061 120.714L449.75 105.288C451.452 104.077 453.809 105.317 453.774 107.407L453.378 131.098C453.355 132.52 452.171 133.648 450.75 133.603L409.582 132.294C408.197 132.25 407.101 131.108 407.115 129.722Z" fill="#FFC6C6"/>
<path d="M448.688 102.368L410.28 105.042C409.281 105.111 408.895 106.378 409.686 106.993L425.88 119.579C426.255 119.87 426.776 119.886 427.168 119.616L449.382 104.357C450.299 103.728 449.798 102.291 448.688 102.368Z" fill="#FFC6C6"/>
<defs>
<filter id="filter0_dd_628_281" x="13.0509" y="98.0339" width="378.669" height="106.771" filterUnits="userSpaceOnUse" color-interpolation-filters="sRGB">
<feFlood flood-opacity="0" result="BackgroundImageFix"/>
<feColorMatrix in="SourceAlpha" type="matrix" values="0 0 0 0 0 0 0 0 0 0 0 0 0 0 0 0 0 0 127 0" result="hardAlpha"/>
<feOffset dx="2.49152" dy="2.49152"/>
<feGaussianBlur stdDeviation="3.1144"/>
<feComposite in2="hardAlpha" operator="out"/>
<feColorMatrix type="matrix" values="0 0 0 0 0 0 0 0 0 0 0 0 0 0 0 0 0 0 0.05 0"/>
<feBlend mode="normal" in2="BackgroundImageFix" result="effect1_dropShadow_628_281"/>
<feColorMatrix in="SourceAlpha" type="matrix" values="0 0 0 0 0 0 0 0 0 0 0 0 0 0 0 0 0 0 127 0" result="hardAlpha"/>
<feOffset dx="-4.98303"/>
<feGaussianBlur stdDeviation="4.98303"/>
<feComposite in2="hardAlpha" operator="out"/>
<feColorMatrix type="matrix" values="0 0 0 0 0 0 0 0 0 0 0 0 0 0 0 0 0 0 0.05 0"/>
<feBlend mode="normal" in2="effect1_dropShadow_628_281" result="effect2_dropShadow_628_281"/>
<feBlend mode="normal" in="SourceGraphic" in2="effect2_dropShadow_628_281" result="shape"/>
</filter>
<filter id="filter1_dd_628_281" x="143.051" y="152.034" width="400.678" height="113.932" filterUnits="userSpaceOnUse" color-interpolation-filters="sRGB">
<feFlood flood-opacity="0" result="BackgroundImageFix"/>
<feColorMatrix in="SourceAlpha" type="matrix" values="0 0 0 0 0 0 0 0 0 0 0 0 0 0 0 0 0 0 127 0" result="hardAlpha"/>
<feOffset dx="2.49152" dy="2.49152"/>
<feGaussianBlur stdDeviation="3.1144"/>
<feComposite in2="hardAlpha" operator="out"/>
<feColorMatrix type="matrix" values="0 0 0 0 0 0 0 0 0 0 0 0 0 0 0 0 0 0 0.05 0"/>
<feBlend mode="normal" in2="BackgroundImageFix" result="effect1_dropShadow_628_281"/>
<feColorMatrix in="SourceAlpha" type="matrix" values="0 0 0 0 0 0 0 0 0 0 0 0 0 0 0 0 0 0 127 0" result="hardAlpha"/>
<feOffset dx="-4.98303"/>
<feGaussianBlur stdDeviation="4.98303"/>
<feComposite in2="hardAlpha" operator="out"/>
<feColorMatrix type="matrix" values="0 0 0 0 0 0 0 0 0 0 0 0 0 0 0 0 0 0 0.05 0"/>
<feBlend mode="normal" in2="effect1_dropShadow_628_281" result="effect2_dropShadow_628_281"/>
<feBlend mode="normal" in="SourceGraphic" in2="effect2_dropShadow_628_281" result="shape"/>
</filter>
<clipPath id="clip0_628_281">
<rect x="28" y="108" width="355" height="86.8391" rx="9.96607" fill="white"/>
</clipPath>
</defs>
</svg>
