<svg width="560" height="310" viewBox="0 0 560 310" fill="none" xmlns="http://www.w3.org/2000/svg">
<g filter="url(#filter0_dd_628_280)">
<g clip-path="url(#clip0_628_280)">
<rect x="107.594" y="157.663" width="325.979" height="87.354" rx="10.6168" fill="#E3C7C7"/>
<rect x="129.492" y="186.742" width="29.1961" height="29.1961" rx="4.64484" stroke="#A5A2A5" stroke-width="1.3271"/>
<path d="M175.299 206.179C174.991 206.179 174.743 206.085 174.555 205.897C174.367 205.71 174.273 205.455 174.273 205.133V192.834C174.273 192.526 174.367 192.277 174.555 192.089C174.743 191.888 174.991 191.787 175.299 191.787C175.621 191.787 175.876 191.881 176.064 192.069C176.252 192.257 176.346 192.512 176.346 192.834V205.133C176.346 205.455 176.252 205.71 176.064 205.897C175.89 206.085 175.635 206.179 175.299 206.179ZM180.344 191.787C180.746 191.787 181.062 191.935 181.29 192.23C181.531 192.526 181.652 192.962 181.652 193.539C181.652 194.679 181.269 195.666 180.505 196.498C180.344 196.659 180.169 196.739 179.981 196.739C179.807 196.739 179.659 196.685 179.538 196.578C179.418 196.457 179.357 196.316 179.357 196.155C179.357 196.008 179.418 195.867 179.538 195.733C179.914 195.343 180.156 194.881 180.263 194.344C179.928 194.317 179.646 194.189 179.418 193.961C179.203 193.733 179.096 193.445 179.096 193.096C179.096 192.72 179.216 192.411 179.458 192.17C179.699 191.915 179.995 191.787 180.344 191.787ZM195.466 196.014C197.666 196.014 198.767 197.336 198.767 199.98V205.213C198.767 205.522 198.673 205.763 198.485 205.938C198.297 206.099 198.049 206.179 197.74 206.179C197.445 206.179 197.203 206.099 197.016 205.938C196.828 205.763 196.734 205.522 196.734 205.213V200C196.734 199.181 196.586 198.591 196.291 198.229C195.996 197.853 195.533 197.665 194.902 197.665C194.164 197.665 193.58 197.92 193.151 198.43C192.722 198.926 192.507 199.611 192.507 200.483V205.213C192.507 205.522 192.413 205.763 192.225 205.938C192.037 206.099 191.789 206.179 191.48 206.179C191.185 206.179 190.943 206.099 190.756 205.938C190.568 205.763 190.474 205.522 190.474 205.213V200C190.474 199.181 190.326 198.591 190.031 198.229C189.736 197.853 189.273 197.665 188.642 197.665C187.904 197.665 187.314 197.92 186.871 198.43C186.441 198.926 186.227 199.611 186.227 200.483V205.213C186.227 205.522 186.133 205.763 185.945 205.938C185.757 206.099 185.516 206.179 185.22 206.179C184.925 206.179 184.677 206.099 184.476 205.938C184.288 205.763 184.194 205.522 184.194 205.213V197.021C184.194 196.726 184.294 196.491 184.496 196.316C184.697 196.142 184.939 196.055 185.22 196.055C185.502 196.055 185.73 196.142 185.905 196.316C186.093 196.477 186.186 196.705 186.186 197.001V197.745C186.482 197.182 186.891 196.752 187.414 196.457C187.938 196.162 188.542 196.014 189.226 196.014C189.977 196.014 190.595 196.169 191.078 196.477C191.574 196.786 191.943 197.262 192.185 197.906C192.48 197.329 192.916 196.873 193.493 196.538C194.07 196.189 194.728 196.014 195.466 196.014ZM212.152 196.014C214.5 196.014 215.674 197.336 215.674 199.98V205.213C215.674 205.522 215.58 205.763 215.392 205.938C215.218 206.099 214.97 206.179 214.648 206.179C214.339 206.179 214.091 206.092 213.903 205.918C213.728 205.743 213.641 205.508 213.641 205.213V200.08C213.641 199.248 213.473 198.638 213.138 198.249C212.816 197.86 212.306 197.665 211.608 197.665C210.79 197.665 210.132 197.92 209.636 198.43C209.139 198.94 208.891 199.624 208.891 200.483V205.213C208.891 205.508 208.797 205.743 208.609 205.918C208.435 206.092 208.193 206.179 207.884 206.179C207.576 206.179 207.328 206.092 207.14 205.918C206.952 205.743 206.858 205.508 206.858 205.213V197.021C206.858 196.739 206.952 196.511 207.14 196.336C207.341 196.149 207.589 196.055 207.884 196.055C208.18 196.055 208.414 196.142 208.589 196.316C208.763 196.491 208.851 196.719 208.851 197.001V197.826C209.173 197.236 209.622 196.786 210.199 196.477C210.776 196.169 211.427 196.014 212.152 196.014ZM222.722 206.22C221.756 206.22 220.904 206.012 220.166 205.596C219.442 205.18 218.878 204.589 218.475 203.824C218.086 203.046 217.892 202.147 217.892 201.127C217.892 200.094 218.086 199.195 218.475 198.43C218.878 197.652 219.442 197.054 220.166 196.638C220.904 196.222 221.756 196.014 222.722 196.014C223.689 196.014 224.534 196.222 225.259 196.638C225.997 197.054 226.56 197.652 226.949 198.43C227.352 199.195 227.553 200.094 227.553 201.127C227.553 202.147 227.352 203.046 226.949 203.824C226.56 204.589 225.997 205.18 225.259 205.596C224.534 206.012 223.689 206.22 222.722 206.22ZM222.722 204.609C223.622 204.609 224.306 204.314 224.776 203.724C225.259 203.133 225.5 202.268 225.5 201.127C225.5 200 225.259 199.141 224.776 198.551C224.293 197.947 223.608 197.645 222.722 197.645C221.837 197.645 221.152 197.947 220.669 198.551C220.186 199.141 219.945 200 219.945 201.127C219.945 202.268 220.18 203.133 220.649 203.724C221.132 204.314 221.823 204.609 222.722 204.609ZM234.588 204.629C234.883 204.656 235.091 204.737 235.212 204.871C235.346 204.992 235.413 205.166 235.413 205.394C235.413 205.663 235.306 205.871 235.091 206.018C234.89 206.152 234.588 206.206 234.186 206.179L233.642 206.139C232.555 206.058 231.743 205.73 231.207 205.153C230.67 204.562 230.401 203.697 230.401 202.556V197.826H229.194C228.603 197.826 228.308 197.564 228.308 197.041C228.308 196.799 228.382 196.612 228.53 196.477C228.691 196.33 228.912 196.256 229.194 196.256H230.401V194.183C230.401 193.874 230.489 193.633 230.663 193.458C230.851 193.284 231.099 193.196 231.408 193.196C231.717 193.196 231.965 193.284 232.153 193.458C232.341 193.633 232.434 193.874 232.434 194.183V196.256H234.427C234.709 196.256 234.924 196.33 235.071 196.477C235.232 196.612 235.313 196.799 235.313 197.041C235.313 197.296 235.232 197.491 235.071 197.625C234.924 197.759 234.709 197.826 234.427 197.826H232.434V202.697C232.434 203.328 232.562 203.791 232.817 204.086C233.085 204.381 233.488 204.549 234.025 204.589L234.588 204.629ZM246.307 196.014C247.609 196.014 248.575 196.343 249.206 197.001C249.85 197.658 250.172 198.658 250.172 200V205.213C250.172 205.522 250.085 205.763 249.91 205.938C249.736 206.099 249.494 206.179 249.185 206.179C248.89 206.179 248.655 206.092 248.481 205.918C248.307 205.743 248.219 205.508 248.219 205.213V204.468C247.964 205.032 247.582 205.468 247.072 205.777C246.576 206.072 245.992 206.22 245.321 206.22C244.677 206.22 244.086 206.092 243.55 205.837C243.026 205.569 242.61 205.206 242.302 204.75C241.993 204.294 241.839 203.777 241.839 203.2C241.825 202.476 242.006 201.912 242.382 201.509C242.758 201.093 243.368 200.798 244.214 200.624C245.059 200.436 246.233 200.342 247.736 200.342H248.199V199.758C248.199 199.007 248.045 198.463 247.736 198.128C247.428 197.792 246.931 197.625 246.247 197.625C245.777 197.625 245.334 197.685 244.918 197.806C244.502 197.927 244.046 198.101 243.55 198.329C243.187 198.53 242.932 198.631 242.785 198.631C242.583 198.631 242.416 198.557 242.281 198.41C242.161 198.262 242.1 198.074 242.1 197.846C242.1 197.645 242.154 197.47 242.261 197.323C242.382 197.162 242.57 197.007 242.825 196.86C243.295 196.605 243.845 196.404 244.475 196.256C245.106 196.095 245.717 196.014 246.307 196.014ZM245.683 204.71C246.421 204.71 247.025 204.462 247.495 203.965C247.964 203.455 248.199 202.804 248.199 202.013V201.489H247.837C246.79 201.489 245.985 201.536 245.421 201.63C244.858 201.724 244.455 201.885 244.214 202.113C243.972 202.328 243.851 202.643 243.851 203.059C243.851 203.542 244.026 203.938 244.375 204.247C244.724 204.556 245.16 204.71 245.683 204.71ZM263.413 196.055C264.057 196.014 264.379 196.29 264.379 196.88C264.379 197.175 264.305 197.397 264.158 197.544C264.01 197.692 263.755 197.779 263.393 197.806L262.789 197.866C261.943 197.947 261.313 198.242 260.897 198.752C260.494 199.262 260.293 199.879 260.293 200.604V205.213C260.293 205.535 260.199 205.777 260.011 205.938C259.823 206.099 259.582 206.179 259.286 206.179C258.991 206.179 258.743 206.099 258.542 205.938C258.354 205.777 258.26 205.535 258.26 205.213V197.021C258.26 196.712 258.354 196.477 258.542 196.316C258.743 196.142 258.991 196.055 259.286 196.055C259.555 196.055 259.776 196.142 259.951 196.316C260.139 196.477 260.233 196.705 260.233 197.001V197.967C260.501 197.376 260.89 196.927 261.4 196.618C261.91 196.31 262.487 196.128 263.131 196.075L263.413 196.055ZM269.702 206.22C268.736 206.22 267.884 206.012 267.146 205.596C266.421 205.18 265.857 204.589 265.455 203.824C265.066 203.046 264.871 202.147 264.871 201.127C264.871 200.094 265.066 199.195 265.455 198.43C265.857 197.652 266.421 197.054 267.146 196.638C267.884 196.222 268.736 196.014 269.702 196.014C270.668 196.014 271.513 196.222 272.238 196.638C272.976 197.054 273.54 197.652 273.929 198.43C274.331 199.195 274.533 200.094 274.533 201.127C274.533 202.147 274.331 203.046 273.929 203.824C273.54 204.589 272.976 205.18 272.238 205.596C271.513 206.012 270.668 206.22 269.702 206.22ZM269.702 204.609C270.601 204.609 271.285 204.314 271.755 203.724C272.238 203.133 272.48 202.268 272.48 201.127C272.48 200 272.238 199.141 271.755 198.551C271.272 197.947 270.587 197.645 269.702 197.645C268.816 197.645 268.132 197.947 267.649 198.551C267.166 199.141 266.924 200 266.924 201.127C266.924 202.268 267.159 203.133 267.629 203.724C268.112 204.314 268.803 204.609 269.702 204.609ZM282.07 196.014C282.929 196.014 283.687 196.222 284.344 196.638C285.002 197.054 285.512 197.645 285.874 198.41C286.25 199.175 286.438 200.067 286.438 201.087C286.438 202.093 286.25 202.986 285.874 203.764C285.512 204.542 284.995 205.146 284.324 205.575C283.667 206.005 282.915 206.22 282.07 206.22C281.332 206.22 280.681 206.065 280.117 205.757C279.554 205.435 279.124 204.978 278.829 204.388V205.193C278.829 205.488 278.735 205.73 278.547 205.918C278.373 206.092 278.131 206.179 277.823 206.179C277.514 206.179 277.266 206.092 277.078 205.918C276.89 205.73 276.796 205.488 276.796 205.193V192.754C276.796 192.458 276.89 192.224 277.078 192.049C277.279 191.875 277.534 191.787 277.843 191.787C278.138 191.787 278.373 191.875 278.547 192.049C278.735 192.21 278.829 192.432 278.829 192.713V197.866C279.124 197.276 279.554 196.82 280.117 196.498C280.681 196.175 281.332 196.014 282.07 196.014ZM281.587 204.609C282.459 204.609 283.137 204.301 283.62 203.683C284.116 203.066 284.364 202.201 284.364 201.087C284.364 199.986 284.123 199.141 283.64 198.551C283.157 197.947 282.472 197.645 281.587 197.645C280.701 197.645 280.017 197.947 279.534 198.551C279.064 199.154 278.829 200.013 278.829 201.127C278.829 202.241 279.064 203.1 279.534 203.703C280.017 204.307 280.701 204.609 281.587 204.609ZM292.956 206.22C291.989 206.22 291.137 206.012 290.399 205.596C289.675 205.18 289.111 204.589 288.709 203.824C288.319 203.046 288.125 202.147 288.125 201.127C288.125 200.094 288.319 199.195 288.709 198.43C289.111 197.652 289.675 197.054 290.399 196.638C291.137 196.222 291.989 196.014 292.956 196.014C293.922 196.014 294.767 196.222 295.492 196.638C296.23 197.054 296.793 197.652 297.183 198.43C297.585 199.195 297.786 200.094 297.786 201.127C297.786 202.147 297.585 203.046 297.183 203.824C296.793 204.589 296.23 205.18 295.492 205.596C294.767 206.012 293.922 206.22 292.956 206.22ZM292.956 204.609C293.855 204.609 294.539 204.314 295.009 203.724C295.492 203.133 295.733 202.268 295.733 201.127C295.733 200 295.492 199.141 295.009 198.551C294.526 197.947 293.841 197.645 292.956 197.645C292.07 197.645 291.386 197.947 290.903 198.551C290.419 199.141 290.178 200 290.178 201.127C290.178 202.268 290.413 203.133 290.882 203.724C291.365 204.314 292.057 204.609 292.956 204.609ZM304.821 204.629C305.117 204.656 305.325 204.737 305.445 204.871C305.579 204.992 305.647 205.166 305.647 205.394C305.647 205.663 305.539 205.871 305.325 206.018C305.123 206.152 304.821 206.206 304.419 206.179L303.875 206.139C302.788 206.058 301.976 205.73 301.44 205.153C300.903 204.562 300.635 203.697 300.635 202.556V197.826H299.427C298.836 197.826 298.541 197.564 298.541 197.041C298.541 196.799 298.615 196.612 298.763 196.477C298.924 196.33 299.145 196.256 299.427 196.256H300.635V194.183C300.635 193.874 300.722 193.633 300.896 193.458C301.084 193.284 301.332 193.196 301.641 193.196C301.95 193.196 302.198 193.284 302.386 193.458C302.574 193.633 302.668 193.874 302.668 194.183V196.256H304.66C304.942 196.256 305.157 196.33 305.304 196.477C305.465 196.612 305.546 196.799 305.546 197.041C305.546 197.296 305.465 197.491 305.304 197.625C305.157 197.759 304.942 197.826 304.66 197.826H302.668V202.697C302.668 203.328 302.795 203.791 303.05 204.086C303.318 204.381 303.721 204.549 304.258 204.589L304.821 204.629Z" fill="#484455"/>
<path d="M407.961 193.903C413.058 200.62 416.746 201.656 425.213 197.294L434.208 206.141C420.087 215.4 412.248 216.25 398.524 203.192L394.247 207.763V189.479H412.089L407.961 193.903Z" fill="#C3C3C3"/>
<path d="M436.567 175.323C430.243 167.663 425.865 166.666 417.84 165.739V178.42C422.232 179.112 424.444 180.085 427.13 184.76L423.001 189.037H440.696V170.9L436.567 175.323Z" fill="#B569B5"/>
<path d="M413.416 179.599C409.073 182.134 407.745 184.305 407.076 189.331H394.247C394.977 180.698 397.077 176.523 403.979 170.31L399.703 165.739H417.84V184.023L413.416 179.599Z" fill="#C97BC9"/>
<path d="M383.976 224.753C384.4 224.727 384.613 224.908 384.613 225.298C384.613 225.492 384.564 225.638 384.467 225.736C384.369 225.833 384.201 225.89 383.962 225.908L383.564 225.948C383.007 226.001 382.591 226.196 382.317 226.532C382.051 226.868 381.919 227.275 381.919 227.753V230.792C381.919 231.004 381.857 231.163 381.733 231.27C381.609 231.376 381.45 231.429 381.255 231.429C381.06 231.429 380.897 231.376 380.764 231.27C380.64 231.163 380.578 231.004 380.578 230.792V225.39C380.578 225.187 380.64 225.032 380.764 224.926C380.897 224.811 381.06 224.753 381.255 224.753C381.432 224.753 381.578 224.811 381.693 224.926C381.817 225.032 381.879 225.183 381.879 225.377V226.014C382.056 225.625 382.312 225.329 382.648 225.125C382.985 224.922 383.365 224.802 383.79 224.767L383.976 224.753ZM390.378 229.73C390.502 229.73 390.604 229.779 390.683 229.876C390.763 229.973 390.803 230.097 390.803 230.248C390.803 230.504 390.643 230.721 390.325 230.898C390.015 231.075 389.675 231.212 389.303 231.309C388.94 231.407 388.591 231.455 388.255 231.455C387.228 231.455 386.419 231.159 385.826 230.566C385.233 229.965 384.937 229.146 384.937 228.111C384.937 227.447 385.065 226.859 385.322 226.346C385.587 225.833 385.954 225.435 386.423 225.152C386.901 224.869 387.441 224.727 388.042 224.727C388.909 224.727 389.595 225.006 390.099 225.563C390.604 226.12 390.856 226.872 390.856 227.819C390.856 228.173 390.697 228.35 390.378 228.35H386.277C386.366 229.721 387.025 230.407 388.255 230.407C388.582 230.407 388.865 230.363 389.104 230.274C389.343 230.186 389.595 230.071 389.86 229.929C389.887 229.911 389.958 229.876 390.073 229.823C390.197 229.761 390.298 229.73 390.378 229.73ZM388.069 225.709C387.556 225.709 387.144 225.873 386.835 226.2C386.525 226.527 386.339 226.987 386.277 227.58H389.701C389.675 226.979 389.52 226.519 389.237 226.2C388.962 225.873 388.573 225.709 388.069 225.709ZM396.566 231.469C395.673 231.469 394.894 231.278 394.231 230.898C393.567 230.509 393.058 229.956 392.704 229.239C392.35 228.514 392.174 227.66 392.174 226.678C392.174 225.705 392.35 224.86 392.704 224.143C393.058 223.418 393.567 222.865 394.231 222.484C394.894 222.095 395.673 221.9 396.566 221.9C397.15 221.9 397.703 221.993 398.225 222.179C398.747 222.356 399.203 222.617 399.592 222.962C399.76 223.095 399.844 223.272 399.844 223.493C399.844 223.652 399.8 223.789 399.711 223.904C399.623 224.01 399.517 224.063 399.393 224.063C399.243 224.063 399.097 224.006 398.955 223.891C398.53 223.572 398.141 223.351 397.787 223.227C397.442 223.095 397.048 223.028 396.606 223.028C395.633 223.028 394.885 223.342 394.363 223.97C393.841 224.599 393.58 225.501 393.58 226.678C393.58 227.863 393.841 228.77 394.363 229.398C394.885 230.026 395.633 230.341 396.606 230.341C397.031 230.341 397.416 230.274 397.761 230.141C398.115 230.009 398.513 229.788 398.955 229.478C399.132 229.363 399.278 229.305 399.393 229.305C399.517 229.305 399.623 229.363 399.711 229.478C399.8 229.584 399.844 229.717 399.844 229.876C399.844 230.097 399.76 230.274 399.592 230.407C399.203 230.752 398.747 231.017 398.225 231.203C397.703 231.38 397.15 231.469 396.566 231.469ZM409.533 230.566C409.578 230.672 409.6 230.761 409.6 230.832C409.6 231 409.529 231.141 409.387 231.256C409.255 231.371 409.104 231.429 408.936 231.429C408.821 231.429 408.711 231.398 408.604 231.336C408.507 231.265 408.432 231.168 408.379 231.044L407.503 229.053H402.646L401.77 231.044C401.717 231.168 401.637 231.265 401.531 231.336C401.425 231.398 401.314 231.429 401.199 231.429C401.022 231.429 400.863 231.371 400.721 231.256C400.589 231.141 400.522 231 400.522 230.832C400.522 230.761 400.545 230.672 400.589 230.566L404.331 222.378C404.393 222.236 404.49 222.126 404.623 222.046C404.765 221.967 404.911 221.927 405.061 221.927C405.212 221.927 405.353 221.967 405.486 222.046C405.627 222.126 405.729 222.236 405.791 222.378L409.533 230.566ZM403.137 227.965H407.025L405.074 223.572L403.137 227.965ZM411.702 231.429C411.498 231.429 411.334 231.367 411.211 231.243C411.087 231.119 411.025 230.951 411.025 230.739V222.67C411.025 222.466 411.082 222.307 411.197 222.192C411.321 222.068 411.489 222.006 411.702 222.006H414.9C415.891 222.006 416.66 222.25 417.209 222.736C417.758 223.223 418.032 223.913 418.032 224.807C418.032 225.691 417.758 226.381 417.209 226.877C416.66 227.372 415.891 227.62 414.9 227.62H412.392V230.739C412.392 230.951 412.33 231.119 412.206 231.243C412.091 231.367 411.923 231.429 411.702 231.429ZM414.754 226.519C416.063 226.519 416.718 225.948 416.718 224.807C416.718 223.674 416.063 223.108 414.754 223.108H412.392V226.519H414.754ZM422.368 231.429C422.165 231.429 421.997 231.367 421.864 231.243C421.74 231.11 421.678 230.942 421.678 230.739V223.148H419.024C418.599 223.148 418.387 222.957 418.387 222.577C418.387 222.391 418.44 222.25 418.546 222.152C418.661 222.055 418.821 222.006 419.024 222.006H425.713C425.916 222.006 426.071 222.055 426.177 222.152C426.292 222.25 426.35 222.391 426.35 222.577C426.35 222.957 426.137 223.148 425.713 223.148H423.058V230.739C423.058 230.942 422.996 231.11 422.873 231.243C422.749 231.367 422.581 231.429 422.368 231.429ZM430.988 231.469C430.094 231.469 429.316 231.278 428.652 230.898C427.989 230.509 427.48 229.956 427.126 229.239C426.772 228.514 426.595 227.66 426.595 226.678C426.595 225.705 426.772 224.86 427.126 224.143C427.48 223.418 427.989 222.865 428.652 222.484C429.316 222.095 430.094 221.9 430.988 221.9C431.572 221.9 432.125 221.993 432.647 222.179C433.169 222.356 433.624 222.617 434.014 222.962C434.182 223.095 434.266 223.272 434.266 223.493C434.266 223.652 434.221 223.789 434.133 223.904C434.045 224.01 433.938 224.063 433.815 224.063C433.664 224.063 433.518 224.006 433.377 223.891C432.952 223.572 432.563 223.351 432.209 223.227C431.864 223.095 431.47 223.028 431.028 223.028C430.054 223.028 429.307 223.342 428.785 223.97C428.263 224.599 428.002 225.501 428.002 226.678C428.002 227.863 428.263 228.77 428.785 229.398C429.307 230.026 430.054 230.341 431.028 230.341C431.452 230.341 431.837 230.274 432.182 230.141C432.536 230.009 432.934 229.788 433.377 229.478C433.554 229.363 433.699 229.305 433.815 229.305C433.938 229.305 434.045 229.363 434.133 229.478C434.221 229.584 434.266 229.717 434.266 229.876C434.266 230.097 434.182 230.274 434.014 230.407C433.624 230.752 433.169 231.017 432.647 231.203C432.125 231.38 431.572 231.469 430.988 231.469ZM443.154 221.94C443.358 221.94 443.521 222.006 443.645 222.139C443.769 222.263 443.831 222.427 443.831 222.63V230.739C443.831 230.942 443.769 231.11 443.645 231.243C443.521 231.367 443.358 231.429 443.154 231.429C442.951 231.429 442.787 231.367 442.663 231.243C442.539 231.119 442.477 230.951 442.477 230.739V227.169H437.248V230.739C437.248 230.942 437.187 231.11 437.063 231.243C436.939 231.367 436.775 231.429 436.572 231.429C436.368 231.429 436.204 231.367 436.081 231.243C435.957 231.119 435.895 230.951 435.895 230.739V222.63C435.895 222.427 435.957 222.263 436.081 222.139C436.204 222.006 436.368 221.94 436.572 221.94C436.775 221.94 436.939 222.006 437.063 222.139C437.187 222.263 437.248 222.427 437.248 222.63V226.054H442.477V222.63C442.477 222.427 442.539 222.263 442.663 222.139C442.787 222.006 442.951 221.94 443.154 221.94ZM454.258 230.566C454.302 230.672 454.324 230.761 454.324 230.832C454.324 231 454.254 231.141 454.112 231.256C453.979 231.371 453.829 231.429 453.661 231.429C453.546 231.429 453.435 231.398 453.329 231.336C453.232 231.265 453.157 231.168 453.104 231.044L452.228 229.053H447.37L446.495 231.044C446.442 231.168 446.362 231.265 446.256 231.336C446.15 231.398 446.039 231.429 445.924 231.429C445.747 231.429 445.588 231.371 445.446 231.256C445.313 231.141 445.247 231 445.247 230.832C445.247 230.761 445.269 230.672 445.313 230.566L449.056 222.378C449.118 222.236 449.215 222.126 449.348 222.046C449.489 221.967 449.635 221.927 449.786 221.927C449.936 221.927 450.078 221.967 450.21 222.046C450.352 222.126 450.454 222.236 450.516 222.378L454.258 230.566ZM447.862 227.965H451.75L449.799 223.572L447.862 227.965Z" fill="#797979"/>
</g>
</g>
<g filter="url(#filter1_dd_628_280)">
<rect x="92.6804" y="145.945" width="368.933" height="92.4367" rx="10.6168" fill="white"/>
<rect x="114.578" y="177.565" width="29.1961" height="29.1961" rx="4.64484" stroke="#A5A2A5" stroke-width="1.3271"/>
<path d="M160.385 197.002C160.077 197.002 159.828 196.909 159.641 196.721C159.453 196.533 159.359 196.278 159.359 195.956V183.657C159.359 183.349 159.453 183.1 159.641 182.913C159.828 182.711 160.077 182.611 160.385 182.611C160.707 182.611 160.962 182.705 161.15 182.892C161.338 183.08 161.432 183.335 161.432 183.657V195.956C161.432 196.278 161.338 196.533 161.15 196.721C160.976 196.909 160.721 197.002 160.385 197.002ZM165.43 182.611C165.832 182.611 166.147 182.758 166.376 183.054C166.617 183.349 166.738 183.785 166.738 184.362C166.738 185.502 166.355 186.489 165.591 187.321C165.43 187.482 165.255 187.562 165.067 187.562C164.893 187.562 164.745 187.509 164.624 187.401C164.504 187.28 164.443 187.14 164.443 186.979C164.443 186.831 164.504 186.69 164.624 186.556C165 186.167 165.242 185.704 165.349 185.167C165.014 185.14 164.732 185.013 164.504 184.785C164.289 184.556 164.182 184.268 164.182 183.919C164.182 183.543 164.302 183.235 164.544 182.993C164.785 182.738 165.081 182.611 165.43 182.611ZM180.552 186.838C182.752 186.838 183.853 188.159 183.853 190.803V196.036C183.853 196.345 183.759 196.587 183.571 196.761C183.383 196.922 183.135 197.002 182.826 197.002C182.531 197.002 182.289 196.922 182.101 196.761C181.914 196.587 181.82 196.345 181.82 196.036V190.823C181.82 190.005 181.672 189.414 181.377 189.052C181.082 188.676 180.619 188.488 179.988 188.488C179.25 188.488 178.666 188.743 178.237 189.253C177.807 189.75 177.593 190.434 177.593 191.306V196.036C177.593 196.345 177.499 196.587 177.311 196.761C177.123 196.922 176.875 197.002 176.566 197.002C176.271 197.002 176.029 196.922 175.842 196.761C175.654 196.587 175.56 196.345 175.56 196.036V190.823C175.56 190.005 175.412 189.414 175.117 189.052C174.822 188.676 174.359 188.488 173.728 188.488C172.99 188.488 172.4 188.743 171.957 189.253C171.527 189.75 171.313 190.434 171.313 191.306V196.036C171.313 196.345 171.219 196.587 171.031 196.761C170.843 196.922 170.601 197.002 170.306 197.002C170.011 197.002 169.763 196.922 169.562 196.761C169.374 196.587 169.28 196.345 169.28 196.036V187.844C169.28 187.549 169.38 187.314 169.582 187.14C169.783 186.965 170.024 186.878 170.306 186.878C170.588 186.878 170.816 186.965 170.991 187.14C171.178 187.301 171.272 187.529 171.272 187.824V188.569C171.568 188.005 171.977 187.576 172.5 187.28C173.024 186.985 173.627 186.838 174.312 186.838C175.063 186.838 175.681 186.992 176.164 187.301C176.66 187.609 177.029 188.086 177.271 188.73C177.566 188.153 178.002 187.696 178.579 187.361C179.156 187.012 179.814 186.838 180.552 186.838ZM197.238 186.838C199.586 186.838 200.76 188.159 200.76 190.803V196.036C200.76 196.345 200.666 196.587 200.478 196.761C200.304 196.922 200.056 197.002 199.733 197.002C199.425 197.002 199.177 196.915 198.989 196.741C198.814 196.566 198.727 196.332 198.727 196.036V190.904C198.727 190.072 198.559 189.461 198.224 189.072C197.902 188.683 197.392 188.488 196.694 188.488C195.876 188.488 195.218 188.743 194.722 189.253C194.225 189.763 193.977 190.447 193.977 191.306V196.036C193.977 196.332 193.883 196.566 193.695 196.741C193.521 196.915 193.279 197.002 192.97 197.002C192.662 197.002 192.413 196.915 192.226 196.741C192.038 196.566 191.944 196.332 191.944 196.036V187.844C191.944 187.562 192.038 187.334 192.226 187.16C192.427 186.972 192.675 186.878 192.97 186.878C193.266 186.878 193.5 186.965 193.675 187.14C193.849 187.314 193.937 187.542 193.937 187.824V188.649C194.259 188.059 194.708 187.609 195.285 187.301C195.862 186.992 196.513 186.838 197.238 186.838ZM207.808 197.043C206.842 197.043 205.99 196.835 205.252 196.419C204.528 196.003 203.964 195.412 203.561 194.647C203.172 193.869 202.978 192.97 202.978 191.95C202.978 190.917 203.172 190.018 203.561 189.253C203.964 188.475 204.528 187.878 205.252 187.462C205.99 187.046 206.842 186.838 207.808 186.838C208.775 186.838 209.62 187.046 210.345 187.462C211.083 187.878 211.646 188.475 212.035 189.253C212.438 190.018 212.639 190.917 212.639 191.95C212.639 192.97 212.438 193.869 212.035 194.647C211.646 195.412 211.083 196.003 210.345 196.419C209.62 196.835 208.775 197.043 207.808 197.043ZM207.808 195.432C208.707 195.432 209.392 195.137 209.862 194.547C210.345 193.956 210.586 193.091 210.586 191.95C210.586 190.823 210.345 189.964 209.862 189.374C209.378 188.77 208.694 188.468 207.808 188.468C206.923 188.468 206.238 188.77 205.755 189.374C205.272 189.964 205.031 190.823 205.031 191.95C205.031 193.091 205.266 193.956 205.735 194.547C206.218 195.137 206.909 195.432 207.808 195.432ZM219.674 195.453C219.969 195.479 220.177 195.56 220.298 195.694C220.432 195.815 220.499 195.989 220.499 196.217C220.499 196.486 220.392 196.694 220.177 196.841C219.976 196.976 219.674 197.029 219.272 197.002L218.728 196.962C217.641 196.882 216.829 196.553 216.293 195.976C215.756 195.386 215.487 194.52 215.487 193.379V188.649H214.28C213.689 188.649 213.394 188.388 213.394 187.864C213.394 187.623 213.468 187.435 213.615 187.301C213.776 187.153 213.998 187.079 214.28 187.079H215.487V185.006C215.487 184.697 215.575 184.456 215.749 184.281C215.937 184.107 216.185 184.02 216.494 184.02C216.802 184.02 217.051 184.107 217.239 184.281C217.426 184.456 217.52 184.697 217.52 185.006V187.079H219.513C219.795 187.079 220.01 187.153 220.157 187.301C220.318 187.435 220.399 187.623 220.399 187.864C220.399 188.119 220.318 188.314 220.157 188.448C220.01 188.582 219.795 188.649 219.513 188.649H217.52V193.52C217.52 194.151 217.648 194.614 217.903 194.909C218.171 195.204 218.574 195.372 219.111 195.412L219.674 195.453ZM231.393 186.838C232.695 186.838 233.661 187.166 234.292 187.824C234.936 188.481 235.258 189.481 235.258 190.823V196.036C235.258 196.345 235.171 196.587 234.996 196.761C234.822 196.922 234.58 197.002 234.271 197.002C233.976 197.002 233.741 196.915 233.567 196.741C233.392 196.566 233.305 196.332 233.305 196.036V195.292C233.05 195.855 232.668 196.291 232.158 196.6C231.661 196.895 231.078 197.043 230.407 197.043C229.763 197.043 229.172 196.915 228.635 196.66C228.112 196.392 227.696 196.03 227.388 195.573C227.079 195.117 226.925 194.601 226.925 194.023C226.911 193.299 227.092 192.735 227.468 192.333C227.844 191.917 228.454 191.622 229.3 191.447C230.145 191.259 231.319 191.165 232.822 191.165H233.285V190.582C233.285 189.83 233.131 189.287 232.822 188.951C232.514 188.616 232.017 188.448 231.333 188.448C230.863 188.448 230.42 188.508 230.004 188.629C229.588 188.75 229.132 188.924 228.635 189.152C228.273 189.354 228.018 189.454 227.871 189.454C227.669 189.454 227.502 189.381 227.367 189.233C227.247 189.085 227.186 188.897 227.186 188.669C227.186 188.468 227.24 188.294 227.347 188.146C227.468 187.985 227.656 187.831 227.911 187.683C228.381 187.428 228.931 187.227 229.561 187.079C230.192 186.918 230.803 186.838 231.393 186.838ZM230.769 195.533C231.507 195.533 232.111 195.285 232.581 194.788C233.05 194.278 233.285 193.628 233.285 192.836V192.313H232.923C231.876 192.313 231.071 192.36 230.507 192.453C229.944 192.547 229.541 192.708 229.3 192.937C229.058 193.151 228.937 193.467 228.937 193.883C228.937 194.366 229.112 194.762 229.461 195.07C229.81 195.379 230.246 195.533 230.769 195.533ZM248.499 186.878C249.143 186.838 249.465 187.113 249.465 187.703C249.465 187.998 249.391 188.22 249.243 188.367C249.096 188.515 248.841 188.602 248.479 188.629L247.875 188.689C247.029 188.77 246.399 189.065 245.983 189.575C245.58 190.085 245.379 190.702 245.379 191.427V196.036C245.379 196.358 245.285 196.6 245.097 196.761C244.909 196.922 244.668 197.002 244.372 197.002C244.077 197.002 243.829 196.922 243.628 196.761C243.44 196.6 243.346 196.358 243.346 196.036V187.844C243.346 187.535 243.44 187.301 243.628 187.14C243.829 186.965 244.077 186.878 244.372 186.878C244.641 186.878 244.862 186.965 245.037 187.14C245.225 187.301 245.318 187.529 245.318 187.824V188.79C245.587 188.2 245.976 187.75 246.486 187.442C246.996 187.133 247.573 186.952 248.217 186.898L248.499 186.878ZM254.788 197.043C253.822 197.043 252.969 196.835 252.231 196.419C251.507 196.003 250.943 195.412 250.541 194.647C250.152 193.869 249.957 192.97 249.957 191.95C249.957 190.917 250.152 190.018 250.541 189.253C250.943 188.475 251.507 187.878 252.231 187.462C252.969 187.046 253.822 186.838 254.788 186.838C255.754 186.838 256.599 187.046 257.324 187.462C258.062 187.878 258.626 188.475 259.015 189.253C259.417 190.018 259.619 190.917 259.619 191.95C259.619 192.97 259.417 193.869 259.015 194.647C258.626 195.412 258.062 196.003 257.324 196.419C256.599 196.835 255.754 197.043 254.788 197.043ZM254.788 195.432C255.687 195.432 256.371 195.137 256.841 194.547C257.324 193.956 257.565 193.091 257.565 191.95C257.565 190.823 257.324 189.964 256.841 189.374C256.358 188.77 255.673 188.468 254.788 188.468C253.902 188.468 253.218 188.77 252.735 189.374C252.252 189.964 252.01 190.823 252.01 191.95C252.01 193.091 252.245 193.956 252.715 194.547C253.198 195.137 253.889 195.432 254.788 195.432ZM267.156 186.838C268.015 186.838 268.773 187.046 269.43 187.462C270.088 187.878 270.598 188.468 270.96 189.233C271.336 189.998 271.524 190.89 271.524 191.91C271.524 192.916 271.336 193.809 270.96 194.587C270.598 195.365 270.081 195.969 269.41 196.399C268.753 196.828 268.001 197.043 267.156 197.043C266.418 197.043 265.767 196.888 265.203 196.58C264.64 196.258 264.21 195.802 263.915 195.211V196.016C263.915 196.311 263.821 196.553 263.633 196.741C263.459 196.915 263.217 197.002 262.909 197.002C262.6 197.002 262.352 196.915 262.164 196.741C261.976 196.553 261.882 196.311 261.882 196.016V183.577C261.882 183.282 261.976 183.047 262.164 182.872C262.365 182.698 262.62 182.611 262.929 182.611C263.224 182.611 263.459 182.698 263.633 182.872C263.821 183.033 263.915 183.255 263.915 183.537V188.689C264.21 188.099 264.64 187.643 265.203 187.321C265.767 186.999 266.418 186.838 267.156 186.838ZM266.673 195.432C267.545 195.432 268.223 195.124 268.706 194.507C269.202 193.889 269.45 193.024 269.45 191.91C269.45 190.81 269.209 189.964 268.726 189.374C268.243 188.77 267.558 188.468 266.673 188.468C265.787 188.468 265.103 188.77 264.62 189.374C264.15 189.978 263.915 190.837 263.915 191.95C263.915 193.064 264.15 193.923 264.62 194.527C265.103 195.131 265.787 195.432 266.673 195.432ZM278.042 197.043C277.075 197.043 276.223 196.835 275.485 196.419C274.761 196.003 274.197 195.412 273.794 194.647C273.405 193.869 273.211 192.97 273.211 191.95C273.211 190.917 273.405 190.018 273.794 189.253C274.197 188.475 274.761 187.878 275.485 187.462C276.223 187.046 277.075 186.838 278.042 186.838C279.008 186.838 279.853 187.046 280.578 187.462C281.316 187.878 281.879 188.475 282.269 189.253C282.671 190.018 282.872 190.917 282.872 191.95C282.872 192.97 282.671 193.869 282.269 194.647C281.879 195.412 281.316 196.003 280.578 196.419C279.853 196.835 279.008 197.043 278.042 197.043ZM278.042 195.432C278.941 195.432 279.625 195.137 280.095 194.547C280.578 193.956 280.819 193.091 280.819 191.95C280.819 190.823 280.578 189.964 280.095 189.374C279.612 188.77 278.927 188.468 278.042 188.468C277.156 188.468 276.472 188.77 275.988 189.374C275.505 189.964 275.264 190.823 275.264 191.95C275.264 193.091 275.499 193.956 275.968 194.547C276.451 195.137 277.142 195.432 278.042 195.432ZM289.907 195.453C290.202 195.479 290.41 195.56 290.531 195.694C290.665 195.815 290.732 195.989 290.732 196.217C290.732 196.486 290.625 196.694 290.41 196.841C290.209 196.976 289.907 197.029 289.505 197.002L288.961 196.962C287.874 196.882 287.062 196.553 286.526 195.976C285.989 195.386 285.721 194.52 285.721 193.379V188.649H284.513C283.922 188.649 283.627 188.388 283.627 187.864C283.627 187.623 283.701 187.435 283.849 187.301C284.01 187.153 284.231 187.079 284.513 187.079H285.721V185.006C285.721 184.697 285.808 184.456 285.982 184.281C286.17 184.107 286.418 184.02 286.727 184.02C287.036 184.02 287.284 184.107 287.472 184.281C287.66 184.456 287.753 184.697 287.753 185.006V187.079H289.746C290.028 187.079 290.243 187.153 290.39 187.301C290.551 187.435 290.632 187.623 290.632 187.864C290.632 188.119 290.551 188.314 290.39 188.448C290.243 188.582 290.028 188.649 289.746 188.649H287.753V193.52C287.753 194.151 287.881 194.614 288.136 194.909C288.404 195.204 288.807 195.372 289.344 195.412L289.907 195.453Z" fill="#484455"/>
<path d="M393.047 184.726C398.144 191.443 401.832 192.479 410.299 188.117L419.294 196.965C405.173 206.223 397.334 207.073 383.609 194.016L379.333 198.587V180.302H397.175L393.047 184.726Z" fill="#C3C3C3"/>
<path d="M421.653 166.146C415.329 158.486 410.95 157.489 402.926 156.562V169.243C407.318 169.935 409.53 170.908 412.216 175.584L408.087 179.86H425.782V161.723L421.653 166.146Z" fill="#B569B5"/>
<path d="M398.502 170.423C394.159 172.958 392.831 175.129 392.162 180.155H379.333C380.063 171.522 382.163 167.346 389.065 161.133L384.789 156.562H402.926V174.846L398.502 170.423Z" fill="#C97BC9"/>
<path d="M369.061 215.577C369.486 215.55 369.698 215.732 369.698 216.121C369.698 216.315 369.65 216.461 369.552 216.559C369.455 216.656 369.287 216.714 369.048 216.731L368.65 216.771C368.093 216.824 367.677 217.019 367.403 217.355C367.137 217.691 367.004 218.098 367.004 218.576V221.615C367.004 221.827 366.943 221.987 366.819 222.093C366.695 222.199 366.536 222.252 366.341 222.252C366.146 222.252 365.983 222.199 365.85 222.093C365.726 221.987 365.664 221.827 365.664 221.615V216.214C365.664 216.01 365.726 215.855 365.85 215.749C365.983 215.634 366.146 215.577 366.341 215.577C366.518 215.577 366.664 215.634 366.779 215.749C366.903 215.855 366.965 216.006 366.965 216.2V216.837C367.142 216.448 367.398 216.152 367.734 215.948C368.071 215.745 368.451 215.625 368.876 215.59L369.061 215.577ZM375.464 220.553C375.588 220.553 375.69 220.602 375.769 220.699C375.849 220.797 375.889 220.921 375.889 221.071C375.889 221.327 375.729 221.544 375.411 221.721C375.101 221.898 374.761 222.035 374.389 222.133C374.026 222.23 373.677 222.279 373.341 222.279C372.314 222.279 371.505 221.982 370.912 221.389C370.319 220.788 370.023 219.969 370.023 218.934C370.023 218.271 370.151 217.682 370.408 217.169C370.673 216.656 371.04 216.258 371.509 215.975C371.987 215.692 372.527 215.55 373.128 215.55C373.995 215.55 374.681 215.829 375.185 216.386C375.69 216.944 375.942 217.696 375.942 218.642C375.942 218.996 375.782 219.173 375.464 219.173H371.363C371.452 220.544 372.111 221.23 373.341 221.23C373.668 221.23 373.951 221.186 374.19 221.097C374.429 221.009 374.681 220.894 374.946 220.752C374.973 220.735 375.044 220.699 375.159 220.646C375.283 220.584 375.384 220.553 375.464 220.553ZM373.155 216.532C372.642 216.532 372.23 216.696 371.921 217.023C371.611 217.351 371.425 217.811 371.363 218.403H374.787C374.761 217.802 374.606 217.342 374.323 217.023C374.048 216.696 373.659 216.532 373.155 216.532ZM381.652 222.292C380.759 222.292 379.98 222.102 379.316 221.721C378.653 221.332 378.144 220.779 377.79 220.062C377.436 219.337 377.259 218.483 377.259 217.501C377.259 216.528 377.436 215.683 377.79 214.966C378.144 214.241 378.653 213.688 379.316 213.307C379.98 212.918 380.759 212.723 381.652 212.723C382.236 212.723 382.789 212.816 383.311 213.002C383.833 213.179 384.289 213.44 384.678 213.785C384.846 213.918 384.93 214.095 384.93 214.316C384.93 214.475 384.886 214.612 384.797 214.727C384.709 214.834 384.603 214.887 384.479 214.887C384.328 214.887 384.182 214.829 384.041 214.714C383.616 214.396 383.227 214.174 382.873 214.051C382.528 213.918 382.134 213.852 381.692 213.852C380.719 213.852 379.971 214.166 379.449 214.794C378.927 215.422 378.666 216.324 378.666 217.501C378.666 218.687 378.927 219.593 379.449 220.222C379.971 220.85 380.719 221.164 381.692 221.164C382.117 221.164 382.502 221.097 382.847 220.965C383.2 220.832 383.599 220.611 384.041 220.301C384.218 220.186 384.364 220.129 384.479 220.129C384.603 220.129 384.709 220.186 384.797 220.301C384.886 220.407 384.93 220.54 384.93 220.699C384.93 220.921 384.846 221.097 384.678 221.23C384.289 221.575 383.833 221.841 383.311 222.026C382.789 222.203 382.236 222.292 381.652 222.292ZM394.619 221.389C394.664 221.496 394.686 221.584 394.686 221.655C394.686 221.823 394.615 221.964 394.473 222.08C394.341 222.195 394.19 222.252 394.022 222.252C393.907 222.252 393.797 222.221 393.69 222.159C393.593 222.088 393.518 221.991 393.465 221.867L392.589 219.877H387.732L386.856 221.867C386.803 221.991 386.723 222.088 386.617 222.159C386.511 222.221 386.4 222.252 386.285 222.252C386.108 222.252 385.949 222.195 385.807 222.08C385.675 221.964 385.608 221.823 385.608 221.655C385.608 221.584 385.63 221.496 385.675 221.389L389.417 213.201C389.479 213.06 389.576 212.949 389.709 212.869C389.851 212.79 389.997 212.75 390.147 212.75C390.297 212.75 390.439 212.79 390.572 212.869C390.713 212.949 390.815 213.06 390.877 213.201L394.619 221.389ZM388.223 218.788H392.111L390.16 214.396L388.223 218.788ZM396.787 222.252C396.584 222.252 396.42 222.19 396.296 222.066C396.173 221.942 396.111 221.774 396.111 221.562V213.493C396.111 213.29 396.168 213.13 396.283 213.015C396.407 212.892 396.575 212.83 396.787 212.83H399.986C400.977 212.83 401.746 213.073 402.295 213.56C402.843 214.046 403.118 214.736 403.118 215.63C403.118 216.515 402.843 217.205 402.295 217.7C401.746 218.196 400.977 218.443 399.986 218.443H397.478V221.562C397.478 221.774 397.416 221.942 397.292 222.066C397.177 222.19 397.009 222.252 396.787 222.252ZM399.84 217.342C401.149 217.342 401.804 216.771 401.804 215.63C401.804 214.497 401.149 213.931 399.84 213.931H397.478V217.342H399.84ZM407.454 222.252C407.251 222.252 407.083 222.19 406.95 222.066C406.826 221.934 406.764 221.765 406.764 221.562V213.971H404.11C403.685 213.971 403.473 213.781 403.473 213.4C403.473 213.214 403.526 213.073 403.632 212.976C403.747 212.878 403.906 212.83 404.11 212.83H410.799C411.002 212.83 411.157 212.878 411.263 212.976C411.378 213.073 411.436 213.214 411.436 213.4C411.436 213.781 411.223 213.971 410.799 213.971H408.144V221.562C408.144 221.765 408.082 221.934 407.959 222.066C407.835 222.19 407.667 222.252 407.454 222.252ZM416.074 222.292C415.18 222.292 414.402 222.102 413.738 221.721C413.074 221.332 412.566 220.779 412.212 220.062C411.858 219.337 411.681 218.483 411.681 217.501C411.681 216.528 411.858 215.683 412.212 214.966C412.566 214.241 413.074 213.688 413.738 213.307C414.402 212.918 415.18 212.723 416.074 212.723C416.658 212.723 417.211 212.816 417.733 213.002C418.255 213.179 418.71 213.44 419.1 213.785C419.268 213.918 419.352 214.095 419.352 214.316C419.352 214.475 419.307 214.612 419.219 214.727C419.13 214.834 419.024 214.887 418.9 214.887C418.75 214.887 418.604 214.829 418.463 214.714C418.038 214.396 417.649 214.174 417.295 214.051C416.95 213.918 416.556 213.852 416.114 213.852C415.14 213.852 414.393 214.166 413.871 214.794C413.349 215.422 413.088 216.324 413.088 217.501C413.088 218.687 413.349 219.593 413.871 220.222C414.393 220.85 415.14 221.164 416.114 221.164C416.538 221.164 416.923 221.097 417.268 220.965C417.622 220.832 418.02 220.611 418.463 220.301C418.639 220.186 418.785 220.129 418.9 220.129C419.024 220.129 419.13 220.186 419.219 220.301C419.307 220.407 419.352 220.54 419.352 220.699C419.352 220.921 419.268 221.097 419.1 221.23C418.71 221.575 418.255 221.841 417.733 222.026C417.211 222.203 416.658 222.292 416.074 222.292ZM428.24 212.763C428.443 212.763 428.607 212.83 428.731 212.962C428.855 213.086 428.917 213.25 428.917 213.453V221.562C428.917 221.765 428.855 221.934 428.731 222.066C428.607 222.19 428.443 222.252 428.24 222.252C428.037 222.252 427.873 222.19 427.749 222.066C427.625 221.942 427.563 221.774 427.563 221.562V217.992H422.334V221.562C422.334 221.765 422.272 221.934 422.149 222.066C422.025 222.19 421.861 222.252 421.658 222.252C421.454 222.252 421.29 222.19 421.167 222.066C421.043 221.942 420.981 221.774 420.981 221.562V213.453C420.981 213.25 421.043 213.086 421.167 212.962C421.29 212.83 421.454 212.763 421.658 212.763C421.861 212.763 422.025 212.83 422.149 212.962C422.272 213.086 422.334 213.25 422.334 213.453V216.877H427.563V213.453C427.563 213.25 427.625 213.086 427.749 212.962C427.873 212.83 428.037 212.763 428.24 212.763ZM439.344 221.389C439.388 221.496 439.41 221.584 439.41 221.655C439.41 221.823 439.34 221.964 439.198 222.08C439.065 222.195 438.915 222.252 438.747 222.252C438.632 222.252 438.521 222.221 438.415 222.159C438.318 222.088 438.243 221.991 438.189 221.867L437.314 219.877H432.456L431.581 221.867C431.527 221.991 431.448 222.088 431.342 222.159C431.235 222.221 431.125 222.252 431.01 222.252C430.833 222.252 430.674 222.195 430.532 222.08C430.399 221.964 430.333 221.823 430.333 221.655C430.333 221.584 430.355 221.496 430.399 221.389L434.142 213.201C434.204 213.06 434.301 212.949 434.434 212.869C434.575 212.79 434.721 212.75 434.872 212.75C435.022 212.75 435.164 212.79 435.296 212.869C435.438 212.949 435.54 213.06 435.602 213.201L439.344 221.389ZM432.947 218.788H436.836L434.885 214.396L432.947 218.788Z" fill="#797979"/>
</g>
<path d="M478.049 207.322L473.02 189.492C472.399 187.293 474.609 185.358 476.707 186.263L492.946 193.269C494.075 193.756 495.391 193.423 496.152 192.458L512.891 171.248C514.27 169.501 517.049 170.064 517.639 172.21L524.002 195.364C524.403 196.826 523.53 198.333 522.062 198.712L481.339 209.213C479.91 209.581 478.449 208.741 478.049 207.322Z" fill="#FFC6C6"/>
<path d="M510.98 168.577L474.182 182.162C473.18 182.532 473.164 183.943 474.157 184.335L493.599 192.018C494.07 192.204 494.608 192.064 494.928 191.671L512.284 170.404C513.033 169.486 512.091 168.167 510.98 168.577Z" fill="#FFC6C6"/>
<path d="M475.153 113.871C475.226 113.71 475.457 113.708 475.537 113.862L478.862 120.296C479.293 121.129 478.963 122.153 478.125 122.582L464.97 129.312C464.132 129.741 463.103 129.412 462.672 128.579L459.348 122.148C459.267 121.991 459.402 121.811 459.579 121.843C460.57 122.029 461.868 122.243 466.299 122.924C467.216 123.067 468.869 123.511 469.988 122.93C471.122 122.362 471.731 120.733 472.133 119.939C474.153 115.958 474.728 114.781 475.153 113.871ZM469.466 121.92C470.206 121.558 470.781 120.086 471.114 119.43C473.744 114.254 473.927 113.826 474.504 112.576C474.614 112.341 474.608 112.066 474.488 111.833L474.179 111.235C473.748 110.401 472.718 110.073 471.881 110.502L458.726 117.232C457.888 117.66 457.558 118.685 457.989 119.518L458.298 120.116C458.418 120.349 458.638 120.511 458.896 120.562C460.252 120.819 460.71 120.923 466.472 121.805C467.202 121.917 468.739 122.308 469.466 121.92Z" fill="#A894E7"/>
<path d="M54.5526 139.2L41.0761 107.903C40.2373 105.955 41.8565 103.841 43.9558 104.143L76.395 108.812C77.6233 108.988 78.8151 108.31 79.2897 107.163L95.2556 68.5872C96.1987 66.3086 99.4463 66.3668 100.307 68.6778L114.908 107.876C115.383 109.153 114.839 110.584 113.635 111.222L58.3161 140.525C56.9154 141.267 55.1795 140.655 54.5526 139.2Z" fill="#A894E6"/>
<path d="M92.429 65.4314L39.2904 99.3786C38.3766 99.9623 38.688 101.369 39.7628 101.512L76.1587 106.367C76.6751 106.435 77.1742 106.153 77.3806 105.674L94.1234 66.8726C94.5777 65.8197 93.3954 64.8141 92.429 65.4314Z" fill="#A894E6"/>
<defs>
<filter id="filter0_dd_628_280" x="91.6693" y="147.046" width="351.194" height="108.588" filterUnits="userSpaceOnUse" color-interpolation-filters="sRGB">
<feFlood flood-opacity="0" result="BackgroundImageFix"/>
<feColorMatrix in="SourceAlpha" type="matrix" values="0 0 0 0 0 0 0 0 0 0 0 0 0 0 0 0 0 0 127 0" result="hardAlpha"/>
<feOffset dx="2.65419" dy="2.65419"/>
<feGaussianBlur stdDeviation="3.31774"/>
<feComposite in2="hardAlpha" operator="out"/>
<feColorMatrix type="matrix" values="0 0 0 0 0 0 0 0 0 0 0 0 0 0 0 0 0 0 0.05 0"/>
<feBlend mode="normal" in2="BackgroundImageFix" result="effect1_dropShadow_628_280"/>
<feColorMatrix in="SourceAlpha" type="matrix" values="0 0 0 0 0 0 0 0 0 0 0 0 0 0 0 0 0 0 127 0" result="hardAlpha"/>
<feOffset dx="-5.30839"/>
<feGaussianBlur stdDeviation="5.30839"/>
<feComposite in2="hardAlpha" operator="out"/>
<feColorMatrix type="matrix" values="0 0 0 0 0 0 0 0 0 0 0 0 0 0 0 0 0 0 0.05 0"/>
<feBlend mode="normal" in2="effect1_dropShadow_628_280" result="effect2_dropShadow_628_280"/>
<feBlend mode="normal" in="SourceGraphic" in2="effect2_dropShadow_628_280" result="shape"/>
</filter>
<filter id="filter1_dd_628_280" x="76.7553" y="135.328" width="394.148" height="113.67" filterUnits="userSpaceOnUse" color-interpolation-filters="sRGB">
<feFlood flood-opacity="0" result="BackgroundImageFix"/>
<feColorMatrix in="SourceAlpha" type="matrix" values="0 0 0 0 0 0 0 0 0 0 0 0 0 0 0 0 0 0 127 0" result="hardAlpha"/>
<feOffset dx="2.65419" dy="2.65419"/>
<feGaussianBlur stdDeviation="3.31774"/>
<feComposite in2="hardAlpha" operator="out"/>
<feColorMatrix type="matrix" values="0 0 0 0 0 0 0 0 0 0 0 0 0 0 0 0 0 0 0.05 0"/>
<feBlend mode="normal" in2="BackgroundImageFix" result="effect1_dropShadow_628_280"/>
<feColorMatrix in="SourceAlpha" type="matrix" values="0 0 0 0 0 0 0 0 0 0 0 0 0 0 0 0 0 0 127 0" result="hardAlpha"/>
<feOffset dx="-5.30839"/>
<feGaussianBlur stdDeviation="5.30839"/>
<feComposite in2="hardAlpha" operator="out"/>
<feColorMatrix type="matrix" values="0 0 0 0 0 0 0 0 0 0 0 0 0 0 0 0 0 0 0.05 0"/>
<feBlend mode="normal" in2="effect1_dropShadow_628_280" result="effect2_dropShadow_628_280"/>
<feBlend mode="normal" in="SourceGraphic" in2="effect2_dropShadow_628_280" result="shape"/>
</filter>
<clipPath id="clip0_628_280">
<rect x="107.594" y="157.663" width="325.979" height="87.354" rx="10.6168" fill="white"/>
</clipPath>
</defs>
</svg>
