<svg width="452" height="310" viewBox="0 0 452 310" fill="none" xmlns="http://www.w3.org/2000/svg">
<path d="M205.379 253.279L212.323 244.875C213.591 243.34 216.051 243.787 216.697 245.67L220.189 255.843C220.568 256.945 221.645 257.65 222.806 257.555L236.383 256.45C238.691 256.262 240.033 259 238.471 260.709L229.348 270.688C228.485 271.631 227.056 271.789 226.008 271.057L205.883 256.99C204.664 256.138 204.431 254.426 205.379 253.279Z" fill="#B39BFD"/>
<path d="M238.861 253.483L218.207 241.419C217.328 240.905 216.287 241.768 216.627 242.727L221.286 255.853C221.449 256.314 221.899 256.61 222.387 256.577L238.382 255.516C239.457 255.444 239.79 254.026 238.861 253.483Z" fill="#B39BFD"/>
<path d="M279.749 271.615L275.028 254.878C274.446 252.813 276.52 250.997 278.49 251.847L293.734 258.423C294.793 258.88 296.028 258.568 296.743 257.662L312.456 237.752C313.75 236.112 316.359 236.641 316.913 238.655L322.885 260.39C323.263 261.762 322.443 263.177 321.065 263.532L282.837 273.39C281.497 273.736 280.125 272.947 279.749 271.615Z" fill="#E69494"/>
<path d="M310.662 235.245L276.119 247.997C275.179 248.344 275.164 249.669 276.096 250.037L294.346 257.249C294.788 257.424 295.293 257.292 295.594 256.924L311.886 236.96C312.589 236.098 311.705 234.86 310.662 235.245Z" fill="#E69494"/>
<path d="M274.759 182.129C274.827 181.98 275.043 181.978 275.117 182.121L278.223 188.102C278.625 188.877 278.317 189.829 277.534 190.228L265.249 196.485C264.466 196.884 263.505 196.578 263.103 195.803L259.999 189.825C259.923 189.678 260.048 189.511 260.214 189.541C261.139 189.713 262.352 189.913 266.49 190.546C267.347 190.679 268.89 191.091 269.935 190.552C270.994 190.023 271.563 188.509 271.938 187.771C273.825 184.07 274.362 182.975 274.759 182.129ZM269.448 189.613C270.139 189.276 270.676 187.907 270.987 187.298C273.443 182.485 273.614 182.088 274.153 180.926C274.256 180.707 274.25 180.451 274.138 180.234L273.849 179.679C273.447 178.904 272.485 178.598 271.703 178.997L259.418 185.254C258.635 185.652 258.327 186.604 258.729 187.38L259.017 187.935C259.13 188.152 259.335 188.302 259.576 188.35C260.843 188.588 261.27 188.685 266.651 189.506C267.333 189.61 268.769 189.973 269.448 189.613Z" fill="#A894E7"/>
<path d="M342.209 205.668L329.558 176.289C328.771 174.461 330.291 172.476 332.262 172.76L362.713 177.142C363.866 177.308 364.984 176.671 365.43 175.595L380.417 139.384C381.303 137.245 384.351 137.299 385.159 139.469L398.865 176.264C399.311 177.463 398.8 178.807 397.67 179.405L345.742 206.912C344.427 207.608 342.797 207.035 342.209 205.668Z" fill="#B39BFD"/>
<path d="M377.764 136.421L327.882 168.288C327.024 168.836 327.317 170.156 328.326 170.29L362.491 174.847C362.976 174.912 363.444 174.647 363.638 174.198L379.354 137.774C379.781 136.786 378.671 135.842 377.764 136.421Z" fill="#B39BFD"/>
<path d="M225.125 54.4687L230.794 52.1638C232.489 51.4743 234.337 52.7447 234.301 54.5748L234.168 61.2345C234.146 62.3203 234.815 63.3004 235.834 63.676L244.64 66.9216C246.812 67.7222 246.877 70.7705 244.741 71.6632L236.357 75.1667C235.177 75.6598 233.814 75.2018 233.172 74.096L223.882 58.1092C223.104 56.77 223.69 55.0521 225.125 54.4687Z" fill="#B39BFD"/>
<path d="M247.94 65.3198L237.519 51.6511C236.903 50.8426 235.613 51.2411 235.56 52.2563L235.068 61.7166C235.043 62.1883 235.325 62.6223 235.766 62.7922L246.678 67.0006C247.706 67.3969 248.607 66.1955 247.94 65.3198Z" fill="#B39BFD"/>
<path d="M342.823 104.086L345.71 92.0215C346.173 90.0853 348.579 89.4047 349.988 90.8112L358.609 99.4167C359.434 100.24 360.711 100.399 361.713 99.8028L374.984 91.9036C376.974 90.7196 379.384 92.5877 378.733 94.8093L374.416 109.545C374.057 110.773 372.843 111.543 371.579 111.347L344.909 107.196C343.438 106.968 342.476 105.533 342.823 104.086Z" fill="#B39BFD"/>
<path d="M375.813 88.1346L349.45 86.2062C348.434 86.1319 347.879 87.3644 348.607 88.076L359.613 98.8366C359.962 99.1784 360.497 99.2461 360.921 99.0023L376.277 90.1702C377.211 89.6335 376.886 88.2131 375.813 88.1346Z" fill="#B39BFD"/>
<path d="M258.382 125.841L261.34 107.723C261.686 105.607 264.332 104.838 265.758 106.44L277.401 119.524C278.168 120.386 279.419 120.625 280.45 120.106L304.223 108.14C306.09 107.2 308.231 108.783 307.881 110.843L303.904 134.202C303.666 135.604 302.325 136.54 300.927 136.28L260.431 128.757C259.069 128.504 258.158 127.208 258.382 125.841Z" fill="#E69494"/>
<path d="M303.616 105.093L265.246 101.924C264.247 101.841 263.674 103.035 264.363 103.763L278.465 118.654C278.792 118.999 279.305 119.093 279.733 118.886L304.001 107.165C305.002 106.681 304.724 105.185 303.616 105.093Z" fill="#E69494"/>
<path d="M156.34 108.957L165 117.618L173.66 108.957L165 100.297L156.34 108.957ZM204.594 108.957L204.594 110.457L205.179 110.457L205.609 110.062L204.594 108.957ZM229.999 87.0637C230.034 86.236 229.391 85.5365 228.564 85.5014L215.076 84.9284C214.248 84.8932 213.549 85.5357 213.514 86.3633C213.478 87.191 214.121 87.8905 214.949 87.9256L226.938 88.435L226.428 100.424C226.393 101.252 227.036 101.951 227.863 101.986C228.691 102.022 229.39 101.379 229.426 100.551L229.999 87.0637ZM165 110.457L204.594 110.457L204.594 107.457L165 107.457L165 110.457ZM205.609 110.062L229.515 88.1047L227.485 85.8953L203.58 107.853L205.609 110.062Z" fill="#9782D8"/>
<path d="M154.34 151.988L163 160.648L171.66 151.988L163 143.327L154.34 151.988ZM202.594 151.988L202.594 153.488L202.594 151.988ZM238.061 153.048C238.646 152.463 238.646 151.513 238.061 150.927L228.515 141.381C227.929 140.795 226.979 140.795 226.393 141.381C225.808 141.967 225.808 142.917 226.393 143.502L234.879 151.988L226.393 160.473C225.808 161.059 225.808 162.008 226.393 162.594C226.979 163.18 227.929 163.18 228.515 162.594L238.061 153.048ZM163 153.488L202.594 153.488L202.594 150.488L163 150.488L163 153.488ZM202.594 153.488L237 153.488L237 150.488L202.594 150.488L202.594 153.488Z" fill="#9782D8"/>
<path d="M158.34 191.65L167 182.99L175.66 191.65L167 200.311L158.34 191.65ZM206.594 191.65L206.594 190.15L207.179 190.15L207.609 190.546L206.594 191.65ZM231.999 213.544C232.034 214.372 231.391 215.071 230.564 215.106L217.076 215.679C216.248 215.714 215.549 215.072 215.514 214.244C215.478 213.417 216.121 212.717 216.949 212.682L228.938 212.173L228.428 200.184C228.393 199.356 229.036 198.656 229.863 198.621C230.691 198.586 231.39 199.228 231.426 200.056L231.999 213.544ZM167 190.15L206.594 190.15L206.594 193.15L167 193.15L167 190.15ZM207.609 190.546L231.515 212.503L229.485 214.712L205.58 192.755L207.609 190.546Z" fill="#9782D8"/>
<path d="M97.0457 75.0137C106.448 61.3322 119.18 61.2421 139.406 70.102L139.963 92.6516V108.205V183.518L138.995 199.481V216.634C118.9 230.318 108.829 228.822 92.5218 213.36C81.7 209.091 74.4576 206.447 71.4288 196.616C70.6004 193.927 70.0872 190.7 69.9022 186.755C58.4152 173.308 56.9681 165.192 71.9585 148.689C66.5711 136.94 66.8548 130.375 68.2566 119.219C71.264 99.423 94.9888 103.256 94.9888 103.256C94.9888 103.256 91.5492 87.6604 95.5065 77.9165C95.9303 76.873 96.4389 75.8966 97.0457 75.0137Z" fill="#B39BFD"/>
<path d="M183 80.3347C168.475 64.2922 159.036 61.5436 139.406 70.102M139.406 70.102C119.18 61.2421 106.448 61.3322 97.0457 75.0137C96.4389 75.8966 95.9303 76.873 95.5065 77.9165M139.406 70.102L139.963 92.6516V108.205V183.518L138.995 199.481V216.634M94.9888 103.256C94.9888 103.256 71.264 99.423 68.2566 119.219C66.8548 130.375 66.5711 136.94 71.9585 148.689M94.9888 103.256C94.9888 103.256 91.5492 87.6604 95.5065 77.9165M94.9888 103.256L99.6589 108.205M71.9585 148.689C56.9681 165.192 58.4152 173.308 69.9022 186.755C70.0872 190.7 70.6004 193.927 71.4288 196.616M71.9585 148.689L82.3858 145.452M92.5218 213.36C108.829 228.822 118.9 230.318 138.995 216.634M92.5218 213.36L95.7395 203.984M92.5218 213.36C81.7 209.091 74.4576 206.447 71.4288 196.616M138.995 216.634C159.557 229.536 168.601 228.379 180.944 213.36M95.5065 77.9165C104.156 77.9165 121.045 79.6356 119.4 86.512M82.3858 145.452C85.3752 139.04 92.1846 127.279 95.5065 131.536M82.3858 145.452C84.8269 150.637 90.8686 160.351 95.5065 157.732M119.4 113.5C113.359 116.306 129.075 133.781 113.642 126.5C98.209 119.219 107.653 133.017 123.101 140.203M123.101 161.415C114.464 164.008 101.633 172.057 119.4 183.518M92.5218 181.881C90.1109 188.905 88.9035 199.709 95.7395 203.984M113.642 203.984C104.917 206.655 99.2609 206.186 95.7395 203.984M84.4421 171.239C79.5069 177.106 70.2946 189.903 72.9267 194.16L71.4288 196.616" stroke="url(#paint0_linear_632_100)" stroke-width="4"/>
<defs>
<linearGradient id="paint0_linear_632_100" x1="109" y1="145" x2="218" y2="140" gradientUnits="userSpaceOnUse">
<stop stop-color="#E4DBFF"/>
<stop offset="1" stop-color="#F4F0FF" stop-opacity="0"/>
</linearGradient>
</defs>
</svg>
