<svg width="668" height="506" viewBox="0 0 668 506" fill="none" xmlns="http://www.w3.org/2000/svg">
<path d="M168.125 308.469L173.793 306.164C175.489 305.474 177.337 306.745 177.3 308.575L177.168 315.235C177.146 316.32 177.815 317.3 178.834 317.676L187.639 320.922C189.812 321.722 189.877 324.771 187.741 325.663L179.357 329.167C178.177 329.66 176.814 329.202 176.172 328.096L166.881 312.109C166.103 310.77 166.69 309.052 168.125 308.469Z" fill="#B39BFD"/>
<path d="M190.939 319.32L180.519 305.651C179.903 304.843 178.613 305.241 178.56 306.256L178.068 315.717C178.043 316.188 178.325 316.622 178.765 316.792L189.678 321.001C190.705 321.397 191.607 320.196 190.939 319.32Z" fill="#B39BFD"/>
<path d="M285.822 358.086L288.71 346.021C289.173 344.085 291.578 343.405 292.987 344.811L301.609 353.417C302.434 354.24 303.711 354.399 304.712 353.803L317.984 345.904C319.974 344.72 322.383 346.588 321.733 348.809L317.416 363.545C317.056 364.773 315.843 365.543 314.579 365.347L287.908 361.196C286.438 360.968 285.476 359.533 285.822 358.086Z" fill="#B39BFD"/>
<path d="M318.812 342.135L292.449 340.206C291.434 340.132 290.879 341.364 291.606 342.076L302.613 352.837C302.962 353.178 303.496 353.246 303.92 353.002L319.277 344.17C320.21 343.634 319.886 342.213 318.812 342.135Z" fill="#B39BFD"/>
<path d="M201.381 379.841L204.34 361.723C204.685 359.607 207.332 358.838 208.758 360.44L220.401 373.524C221.168 374.386 222.419 374.625 223.45 374.106L247.223 362.14C249.089 361.2 251.231 362.783 250.88 364.843L246.904 388.202C246.665 389.604 245.325 390.54 243.927 390.28L203.43 382.757C202.068 382.504 201.158 381.208 201.381 379.841Z" fill="#E69494"/>
<path d="M246.616 359.093L208.246 355.924C207.247 355.841 206.674 357.035 207.363 357.763L221.465 372.654C221.792 372.999 222.305 373.093 222.733 372.886L247.001 361.165C248.002 360.681 247.724 359.185 246.616 359.093Z" fill="#E69494"/>
<path d="M90.209 287.668L77.5585 258.289C76.7711 256.461 78.291 254.476 80.2616 254.76L110.713 259.142C111.866 259.308 112.984 258.671 113.43 257.595L128.417 221.384C129.303 219.245 132.351 219.299 133.159 221.469L146.865 258.264C147.311 259.463 146.8 260.807 145.67 261.405L93.7418 288.912C92.4269 289.608 90.7975 289.035 90.209 287.668Z" fill="#B39BFD"/>
<path d="M125.764 218.421L75.8821 250.288C75.0244 250.836 75.3167 252.156 76.3256 252.29L110.491 256.847C110.976 256.912 111.444 256.647 111.638 256.198L127.354 219.774C127.781 218.786 126.671 217.842 125.764 218.421Z" fill="#B39BFD"/>
<path d="M426.379 115.279L433.323 106.875C434.591 105.34 437.051 105.787 437.697 107.67L441.189 117.843C441.568 118.945 442.645 119.65 443.806 119.555L457.383 118.45C459.691 118.262 461.033 121 459.471 122.709L450.348 132.688C449.485 133.631 448.056 133.789 447.008 133.057L426.883 118.99C425.664 118.138 425.431 116.426 426.379 115.279Z" fill="#B39BFD"/>
<path d="M459.861 115.483L439.207 103.419C438.328 102.905 437.287 103.768 437.627 104.727L442.286 117.853C442.449 118.314 442.899 118.61 443.387 118.577L459.382 117.516C460.457 117.444 460.79 116.026 459.861 115.483Z" fill="#B39BFD"/>
<path d="M500.749 133.615L496.028 116.878C495.446 114.813 497.52 112.997 499.49 113.847L514.734 120.423C515.793 120.881 517.028 120.568 517.743 119.662L533.456 99.7519C534.75 98.1119 537.359 98.6408 537.913 100.655L543.885 122.39C544.263 123.762 543.443 125.177 542.065 125.532L503.837 135.39C502.497 135.736 501.125 134.948 500.749 133.615Z" fill="#E69494"/>
<path d="M531.662 97.2447L497.119 109.997C496.179 110.344 496.164 111.669 497.096 112.037L515.346 119.249C515.788 119.424 516.293 119.292 516.594 118.924L532.886 98.9595C533.589 98.098 532.705 96.8596 531.662 97.2447Z" fill="#E69494"/>
<path d="M495.759 45.8919C495.827 45.7411 496.043 45.7387 496.117 45.8834L499.223 51.9226C499.625 52.7051 499.317 53.6666 498.534 54.069L486.249 60.3865C485.466 60.789 484.505 60.4806 484.103 59.698L480.999 53.6617C480.923 53.5141 481.048 53.3448 481.214 53.3756C482.139 53.5493 483.352 53.7509 487.49 54.3902C488.347 54.5245 489.89 54.9407 490.935 54.3957C491.994 53.8624 492.563 52.3337 492.938 51.5883C494.825 47.851 495.362 46.7459 495.759 45.8919ZM490.448 53.4478C491.139 53.1072 491.676 51.7259 491.987 51.1105C494.443 46.2514 494.614 45.8499 495.153 44.6764C495.256 44.4555 495.25 44.1971 495.138 43.9786L494.849 43.4175C494.447 42.6349 493.485 42.3265 492.703 42.7289L480.418 49.0464C479.635 49.4489 479.327 50.4103 479.729 51.1929L480.017 51.754C480.13 51.9725 480.335 52.1247 480.576 52.1724C481.843 52.4135 482.27 52.5112 487.651 53.3398C488.333 53.445 489.769 53.8119 490.448 53.4478Z" fill="#A894E7"/>
<g filter="url(#filter0_dd_628_349)">
<g clip-path="url(#clip0_628_349)">
<rect x="151" y="184" width="368" height="86.8391" rx="9.96607" fill="white"/>
<path d="M184.565 233.566C186.222 233.513 187.893 233.54 189.722 233.605C191.603 233.461 193.55 233.263 195.431 233.119C197.431 232.987 197.51 233.763 195.918 235.132C194.445 236.395 192.55 237.631 189.735 238.802C187.867 239.341 186.104 239.605 184.486 239.644C182.907 239.618 181.499 239.394 180.237 238.986C179.618 238.789 179.197 238.539 178.947 238.249C178.75 238.013 178.697 237.842 178.776 237.684C178.855 237.539 179.052 237.46 179.368 237.486C179.71 237.5 180.171 237.605 180.75 237.776C182.131 238.144 183.433 238.328 184.657 238.381C185.88 238.381 187.117 238.236 188.419 237.894C192.116 236.395 193.037 235.342 190.708 235.026C189.393 234.803 187.959 234.684 186.551 234.671C185.209 234.566 183.67 234.579 182.223 234.671L180.657 234.592C180.263 234.54 179.842 234.408 179.434 234.184C179.013 233.948 178.697 233.658 178.474 233.369C178.276 233.079 178.224 232.856 178.303 232.685C178.395 232.5 178.618 232.448 178.974 232.54L180.013 232.75C181.276 232.908 182.039 232.764 182.249 232.329C182.526 231.869 182.618 231.251 182.749 230.488C182.828 229.777 182.631 229.172 182.091 228.646C181.592 228.093 180.855 227.659 179.987 227.357C178.803 226.883 177.526 226.804 176.25 227.238C175.974 227.343 175.724 227.357 175.54 227.264C175.343 227.172 175.211 226.988 175.093 226.712C175.001 226.422 174.974 226.094 175.027 225.778C175.106 225.37 175.29 225.094 175.579 224.975C176.158 224.646 176.829 224.581 177.592 224.673C178.434 224.778 179.21 224.975 179.987 225.317C181.328 225.778 182.591 226.449 183.631 227.37C184.762 228.172 185.433 229.159 185.525 230.303C185.604 231.014 185.551 231.632 185.367 232.185C185.446 232.724 185.223 233.198 184.565 233.566ZM189.064 217.227C193.3 214.661 197.536 214.832 200.931 216.056C204.562 218.226 207.85 221.002 210.508 224.489C211.705 227.278 211.521 229.527 210.574 231.211C209.298 232.987 208.074 234.145 206.956 234.75C205.719 235.46 204.759 235.553 204.219 235.026C203.864 234.711 203.772 234.171 203.864 233.356C203.864 232.592 203.851 231.685 203.588 230.895C203.193 230.672 202.864 230.409 202.614 230.027C202.338 229.764 202.193 229.501 202.22 229.185C202.207 228.896 202.338 228.633 202.641 228.383C202.825 228.238 203.022 228.133 203.206 228.067C203.43 228.001 203.693 227.962 204.009 227.988C206.14 229.04 206.732 230.33 207.272 230.803C207.614 231.606 208.508 231.119 209.705 229.33C210.311 227.712 209.271 225.002 205.877 221.2L205.785 221.108C206.456 222.002 206.193 222.226 205.219 221.936C204.588 222.028 203.614 222.055 202.312 222.278C201.325 222.976 200.299 223.975 199.233 225.475C198.049 227.264 196.51 228.804 194.576 229.961C192.471 230.659 190.853 230.619 189.998 230.053C189.419 229.264 189.13 228.317 188.959 227.146C188.59 225.857 188.288 224.475 188.13 222.949C187.906 221.094 188.143 219.174 189.064 217.227ZM198.641 220.502C200.036 219.739 200.865 219.305 200.944 218.792C201.43 218.529 201.102 218.029 199.786 217.24C198.707 216.608 196.984 216.082 194.826 215.885C192.853 215.937 191.143 216.977 190.011 218.95C189.722 220.95 189.985 222.673 190.485 224.239C190.814 225.567 191.432 226.62 192.445 227.317C193.669 227.659 195.116 226.949 196.444 225.344C197.431 223.673 198.049 221.976 198.641 220.502Z" fill="#484455"/>
<path d="M222.649 227.908C222.782 227.908 222.894 227.954 222.985 228.045C223.077 228.128 223.122 228.236 223.122 228.369C223.122 228.502 223.077 228.614 222.985 228.705C222.894 228.789 222.782 228.83 222.649 228.83H220.544V230.935C220.544 231.068 220.498 231.18 220.407 231.272C220.324 231.363 220.216 231.409 220.083 231.409C219.95 231.409 219.838 231.363 219.746 231.272C219.663 231.18 219.622 231.068 219.622 230.935V228.83H217.516C217.384 228.83 217.271 228.784 217.18 228.693C217.089 228.602 217.043 228.494 217.043 228.369C217.043 228.236 217.089 228.128 217.18 228.045C217.271 227.954 217.384 227.908 217.516 227.908H219.622V225.803C219.622 225.67 219.663 225.558 219.746 225.467C219.838 225.375 219.95 225.329 220.083 225.329C220.216 225.329 220.324 225.375 220.407 225.467C220.498 225.558 220.544 225.67 220.544 225.803V227.908H222.649Z" fill="black"/>
<path d="M239.206 217.893C239.511 217.763 239.772 217.697 239.957 217.763C240.121 217.85 240.23 218.024 240.241 218.253C240.251 218.492 240.175 218.732 240.077 219.037C240.077 219.037 238.422 222.794 237.529 226.833C237.388 231.57 236.789 235.915 236.789 235.915C236.56 236.416 236.288 236.732 235.939 236.884C235.732 236.993 235.547 236.971 235.384 236.819C235.199 236.656 235.123 236.449 235.123 236.165C235.155 235.991 235.21 235.773 235.297 235.523C235.297 235.523 235.831 231.93 235.929 227.748C236.342 224.002 237.703 220.354 237.703 220.354L230.506 224.394C230.179 224.503 229.896 224.503 229.711 224.394C229.482 224.285 229.384 224.089 229.351 223.839C229.297 223.262 229.613 222.924 230.331 222.75L239.206 217.893ZM248.462 226.714C249.17 227.334 249.605 228.01 249.758 228.761C250.052 229.567 250.008 230.351 249.79 231.233C249.518 232.474 248.843 233.149 247.83 233.291C246.927 233.476 245.903 233.236 244.749 232.55C244.117 232.224 243.518 231.875 242.93 231.396C242.429 231.08 242.005 230.732 241.656 230.296C241.471 230.078 241.362 229.817 241.319 229.425C241.308 229.131 241.34 228.859 241.428 228.619C241.515 228.369 241.624 228.227 241.743 228.162C241.896 228.14 242.07 228.195 242.233 228.369C242.658 228.902 243.05 229.371 243.398 229.708C243.79 230.089 244.248 230.372 244.749 230.612C246.349 231.592 247.308 231.309 247.613 229.708C247.743 228.902 247.667 228.206 247.373 227.628C247.133 227.095 246.535 226.539 245.631 226.049L244.683 225.57C244.466 225.472 244.335 225.32 244.302 225.167C244.27 224.982 244.313 224.808 244.444 224.645C244.553 224.503 244.705 224.383 244.89 224.318C245.075 224.242 245.282 224.275 245.522 224.394L246.251 224.765C247.155 225.255 247.928 225.483 248.593 225.451C249.333 225.483 249.888 225.189 250.139 224.612C250.291 224.057 250.128 223.523 249.66 222.957C249.224 222.402 248.582 221.912 247.721 221.454C246.393 220.714 245.119 220.398 243.801 220.529C243.486 220.55 243.246 220.529 243.028 220.442C242.832 220.365 242.669 220.213 242.538 220.039C242.397 219.832 242.331 219.647 242.353 219.418C242.408 219.157 242.56 218.928 242.843 218.83C243.464 218.645 244.172 218.645 245.021 218.863C245.979 219.124 246.937 219.549 247.896 220.093C249.409 220.91 250.672 221.726 251.533 222.608C252.404 223.403 252.796 224.242 252.578 225.233C252.404 225.897 251.946 226.42 251.162 226.746C250.259 226.986 249.344 226.921 248.462 226.714ZM262.465 234.989C262.77 234.968 262.977 235.033 263.086 235.175C263.217 235.349 263.239 235.567 263.162 235.871C263.032 236.514 262.65 236.895 262.008 236.917L253.623 237.102C253.253 237.058 252.948 236.884 252.687 236.645C252.513 236.416 252.415 236.122 252.436 235.871C252.48 235.567 252.665 235.294 252.981 235.12L261.398 229.142C262.607 228.391 263.554 227.781 264.349 227.247C265.188 226.823 265.721 226.343 266.004 225.875C266.135 225.222 265.841 224.699 265.199 224.296C264.611 223.883 263.837 223.621 262.89 223.523C261.355 223.403 259.874 223.752 258.371 224.514C258.164 224.579 257.968 224.645 257.805 224.721C257.663 224.765 257.522 224.775 257.369 224.786C257.119 224.797 256.912 224.732 256.759 224.579C256.585 224.427 256.509 224.231 256.509 224.013C256.52 223.719 256.705 223.48 257.075 223.316C257.761 222.881 258.611 222.565 259.612 222.293C260.56 222.064 261.474 221.988 262.367 222.031C263.957 222.151 265.384 222.598 266.647 223.327C267.899 224.079 268.563 224.982 268.465 226.028C268.052 226.768 267.333 227.432 266.298 227.999C265.22 228.587 263.99 229.414 262.454 230.383L256.019 235.229L262.465 234.989Z" fill="#484455"/>
<path d="M281.721 227.584C281.588 227.584 281.476 227.539 281.384 227.447C281.293 227.356 281.247 227.244 281.247 227.111C281.247 226.986 281.293 226.883 281.384 226.799C281.476 226.708 281.588 226.662 281.721 226.662H286.853C286.986 226.662 287.098 226.708 287.189 226.799C287.281 226.891 287.327 227.003 287.327 227.136C287.327 227.26 287.281 227.368 287.189 227.46C287.098 227.543 286.986 227.584 286.853 227.584H281.721ZM281.721 230.076C281.588 230.076 281.476 230.03 281.384 229.939C281.293 229.847 281.247 229.735 281.247 229.602C281.247 229.478 281.293 229.374 281.384 229.291C281.476 229.2 281.588 229.154 281.721 229.154H286.853C286.986 229.154 287.098 229.2 287.189 229.291C287.281 229.382 287.327 229.494 287.327 229.627C287.327 229.752 287.281 229.86 287.189 229.951C287.098 230.034 286.986 230.076 286.853 230.076H281.721Z" fill="black"/>
<path d="M318.132 231.92C317.932 231.92 317.775 231.866 317.658 231.758C317.55 231.641 317.496 231.488 317.496 231.297V223.76C317.496 223.569 317.55 223.419 317.658 223.311C317.775 223.195 317.932 223.137 318.132 223.137H322.716C322.907 223.137 323.052 223.183 323.152 223.274C323.26 223.365 323.314 223.494 323.314 223.66C323.314 223.826 323.26 223.955 323.152 224.046C323.052 224.129 322.907 224.171 322.716 224.171H318.755V226.937H322.467C322.658 226.937 322.803 226.982 322.903 227.074C323.011 227.165 323.065 227.294 323.065 227.46C323.065 227.626 323.011 227.755 322.903 227.846C322.803 227.937 322.658 227.983 322.467 227.983H318.755V230.886H322.716C323.115 230.886 323.314 231.056 323.314 231.396C323.314 231.562 323.26 231.691 323.152 231.783C323.052 231.874 322.907 231.92 322.716 231.92H318.132ZM327.91 225.691C329.364 225.691 330.091 226.509 330.091 228.145V231.384C330.091 231.575 330.032 231.724 329.916 231.832C329.808 231.932 329.654 231.982 329.455 231.982C329.264 231.982 329.111 231.928 328.994 231.82C328.886 231.712 328.832 231.567 328.832 231.384V228.207C328.832 227.692 328.728 227.314 328.521 227.074C328.322 226.833 328.006 226.712 327.574 226.712C327.067 226.712 326.661 226.87 326.353 227.186C326.046 227.501 325.892 227.925 325.892 228.456V231.384C325.892 231.567 325.834 231.712 325.718 231.82C325.61 231.928 325.46 231.982 325.269 231.982C325.078 231.982 324.925 231.928 324.808 231.82C324.692 231.712 324.634 231.567 324.634 231.384V226.314C324.634 226.139 324.692 225.998 324.808 225.89C324.933 225.774 325.087 225.716 325.269 225.716C325.452 225.716 325.597 225.77 325.705 225.878C325.813 225.986 325.867 226.127 325.867 226.301V226.812C326.067 226.447 326.345 226.168 326.702 225.977C327.059 225.786 327.462 225.691 327.91 225.691ZM334.789 231.023C334.972 231.039 335.101 231.089 335.175 231.172C335.258 231.247 335.3 231.355 335.3 231.496C335.3 231.662 335.233 231.791 335.101 231.882C334.976 231.965 334.789 231.998 334.54 231.982L334.204 231.957C333.531 231.907 333.028 231.704 332.696 231.347C332.364 230.981 332.198 230.445 332.198 229.739V226.812H331.451C331.085 226.812 330.902 226.65 330.902 226.326C330.902 226.177 330.948 226.06 331.039 225.977C331.139 225.886 331.276 225.84 331.451 225.84H332.198V224.557C332.198 224.366 332.252 224.217 332.36 224.109C332.476 224.001 332.63 223.947 332.821 223.947C333.012 223.947 333.166 224.001 333.282 224.109C333.398 224.217 333.456 224.366 333.456 224.557V225.84H334.689C334.864 225.84 334.997 225.886 335.088 225.977C335.188 226.06 335.238 226.177 335.238 226.326C335.238 226.484 335.188 226.604 335.088 226.687C334.997 226.77 334.864 226.812 334.689 226.812H333.456V229.827C333.456 230.217 333.535 230.504 333.693 230.686C333.859 230.869 334.108 230.973 334.44 230.998L334.789 231.023ZM340.962 230.387C341.079 230.387 341.174 230.433 341.249 230.524C341.324 230.616 341.361 230.732 341.361 230.873C341.361 231.114 341.212 231.317 340.913 231.484C340.622 231.65 340.302 231.778 339.953 231.87C339.613 231.961 339.285 232.007 338.969 232.007C338.006 232.007 337.246 231.729 336.689 231.172C336.133 230.607 335.855 229.839 335.855 228.867C335.855 228.245 335.975 227.692 336.216 227.211C336.465 226.729 336.81 226.355 337.25 226.089C337.698 225.824 338.205 225.691 338.77 225.691C339.584 225.691 340.227 225.952 340.701 226.476C341.174 226.999 341.411 227.705 341.411 228.593C341.411 228.926 341.261 229.092 340.962 229.092H337.113C337.196 230.379 337.815 231.023 338.969 231.023C339.276 231.023 339.542 230.981 339.766 230.898C339.991 230.815 340.227 230.707 340.477 230.574C340.501 230.558 340.568 230.524 340.676 230.474C340.792 230.416 340.888 230.387 340.962 230.387ZM338.795 226.613C338.313 226.613 337.927 226.766 337.636 227.074C337.346 227.381 337.171 227.813 337.113 228.369H340.327C340.302 227.804 340.157 227.373 339.891 227.074C339.634 226.766 339.268 226.613 338.795 226.613ZM345.986 225.716C346.385 225.691 346.584 225.861 346.584 226.226C346.584 226.409 346.539 226.546 346.447 226.638C346.356 226.729 346.198 226.783 345.974 226.799L345.6 226.837C345.077 226.887 344.687 227.069 344.429 227.385C344.18 227.701 344.056 228.083 344.056 228.531V231.384C344.056 231.583 343.997 231.733 343.881 231.832C343.765 231.932 343.615 231.982 343.433 231.982C343.25 231.982 343.096 231.932 342.972 231.832C342.855 231.733 342.797 231.583 342.797 231.384V226.314C342.797 226.123 342.855 225.977 342.972 225.878C343.096 225.77 343.25 225.716 343.433 225.716C343.599 225.716 343.736 225.77 343.844 225.878C343.96 225.977 344.018 226.118 344.018 226.301V226.899C344.184 226.534 344.425 226.256 344.741 226.064C345.056 225.873 345.413 225.761 345.812 225.728L345.986 225.716ZM352.762 232.007C351.915 232.007 351.221 231.832 350.682 231.484C350.532 231.392 350.424 231.297 350.358 231.197C350.299 231.097 350.27 230.985 350.27 230.861C350.27 230.728 350.308 230.616 350.383 230.524C350.457 230.433 350.553 230.387 350.669 230.387C350.777 230.387 350.947 230.454 351.18 230.587C351.429 230.719 351.67 230.827 351.902 230.91C352.143 230.994 352.442 231.035 352.799 231.035C353.198 231.035 353.509 230.964 353.734 230.823C353.958 230.682 354.07 230.483 354.07 230.225C354.07 230.059 354.024 229.926 353.933 229.827C353.85 229.727 353.7 229.64 353.484 229.565C353.269 229.482 352.949 229.395 352.525 229.303C351.794 229.146 351.267 228.934 350.943 228.668C350.628 228.394 350.47 228.024 350.47 227.559C350.47 227.202 350.574 226.883 350.781 226.6C350.989 226.309 351.275 226.085 351.641 225.927C352.006 225.77 352.421 225.691 352.887 225.691C353.219 225.691 353.543 225.736 353.858 225.828C354.174 225.911 354.452 226.035 354.693 226.202C354.967 226.384 355.104 226.596 355.104 226.837C355.104 226.97 355.062 227.082 354.979 227.173C354.905 227.265 354.813 227.31 354.705 227.31C354.631 227.31 354.556 227.294 354.481 227.26C354.406 227.227 354.307 227.173 354.182 227.098C353.958 226.966 353.746 226.862 353.547 226.787C353.356 226.712 353.115 226.675 352.824 226.675C352.475 226.675 352.193 226.75 351.977 226.899C351.769 227.049 351.666 227.252 351.666 227.51C351.666 227.742 351.761 227.925 351.952 228.058C352.152 228.182 352.521 228.303 353.061 228.419C353.617 228.535 354.053 228.668 354.369 228.818C354.685 228.967 354.909 229.154 355.042 229.378C355.183 229.594 355.253 229.872 355.253 230.213C355.253 230.753 355.025 231.189 354.568 231.521C354.12 231.845 353.518 232.007 352.762 232.007ZM361.363 225.716C361.554 225.716 361.703 225.77 361.811 225.878C361.928 225.986 361.986 226.135 361.986 226.326V231.396C361.986 231.571 361.928 231.712 361.811 231.82C361.695 231.928 361.541 231.982 361.35 231.982C361.176 231.982 361.035 231.932 360.927 231.832C360.819 231.724 360.765 231.583 360.765 231.409V230.935C360.574 231.284 360.308 231.55 359.968 231.733C359.635 231.915 359.262 232.007 358.846 232.007C357.368 232.007 356.629 231.193 356.629 229.565V226.326C356.629 226.135 356.683 225.986 356.791 225.878C356.907 225.77 357.065 225.716 357.264 225.716C357.455 225.716 357.605 225.77 357.713 225.878C357.829 225.986 357.887 226.135 357.887 226.326V229.553C357.887 230.043 357.987 230.404 358.186 230.636C358.386 230.869 358.693 230.985 359.108 230.985C359.598 230.985 359.988 230.827 360.279 230.512C360.578 230.196 360.728 229.777 360.728 229.254V226.326C360.728 226.143 360.786 225.998 360.902 225.89C361.018 225.774 361.172 225.716 361.363 225.716ZM370.723 225.691C372.085 225.691 372.766 226.509 372.766 228.145V231.384C372.766 231.575 372.708 231.724 372.591 231.832C372.475 231.932 372.321 231.982 372.13 231.982C371.948 231.982 371.798 231.932 371.682 231.832C371.566 231.724 371.508 231.575 371.508 231.384V228.157C371.508 227.651 371.416 227.285 371.234 227.061C371.051 226.829 370.764 226.712 370.374 226.712C369.917 226.712 369.556 226.87 369.29 227.186C369.024 227.493 368.891 227.917 368.891 228.456V231.384C368.891 231.575 368.833 231.724 368.717 231.832C368.601 231.932 368.447 231.982 368.256 231.982C368.073 231.982 367.924 231.932 367.808 231.832C367.691 231.724 367.633 231.575 367.633 231.384V228.157C367.633 227.651 367.542 227.285 367.359 227.061C367.176 226.829 366.89 226.712 366.5 226.712C366.043 226.712 365.677 226.87 365.403 227.186C365.138 227.493 365.005 227.917 365.005 228.456V231.384C365.005 231.575 364.947 231.724 364.83 231.832C364.714 231.932 364.565 231.982 364.382 231.982C364.199 231.982 364.045 231.932 363.921 231.832C363.805 231.724 363.747 231.575 363.747 231.384V226.314C363.747 226.131 363.809 225.986 363.933 225.878C364.058 225.77 364.207 225.716 364.382 225.716C364.556 225.716 364.697 225.77 364.805 225.878C364.922 225.977 364.98 226.118 364.98 226.301V226.762C365.163 226.413 365.416 226.148 365.74 225.965C366.064 225.782 366.437 225.691 366.861 225.691C367.326 225.691 367.708 225.786 368.007 225.977C368.314 226.168 368.543 226.463 368.692 226.862C368.875 226.505 369.145 226.222 369.502 226.015C369.859 225.799 370.266 225.691 370.723 225.691ZM380.414 232.007C379.817 232.007 379.289 231.878 378.832 231.621C378.384 231.363 378.035 230.998 377.786 230.524C377.545 230.043 377.425 229.486 377.425 228.855C377.425 228.216 377.545 227.659 377.786 227.186C378.035 226.704 378.384 226.334 378.832 226.077C379.289 225.819 379.817 225.691 380.414 225.691C381.012 225.691 381.536 225.819 381.984 226.077C382.441 226.334 382.79 226.704 383.031 227.186C383.28 227.659 383.404 228.216 383.404 228.855C383.404 229.486 383.28 230.043 383.031 230.524C382.79 230.998 382.441 231.363 381.984 231.621C381.536 231.878 381.012 232.007 380.414 232.007ZM380.414 231.01C380.971 231.01 381.394 230.827 381.685 230.462C381.984 230.097 382.134 229.561 382.134 228.855C382.134 228.157 381.984 227.626 381.685 227.26C381.386 226.887 380.963 226.7 380.414 226.7C379.866 226.7 379.443 226.887 379.144 227.26C378.845 227.626 378.695 228.157 378.695 228.855C378.695 229.561 378.841 230.097 379.131 230.462C379.43 230.827 379.858 231.01 380.414 231.01ZM387.646 224.096C387.231 224.129 386.924 224.262 386.724 224.495C386.525 224.719 386.425 225.051 386.425 225.491V225.84H387.659C387.833 225.84 387.966 225.886 388.057 225.977C388.157 226.06 388.207 226.177 388.207 226.326C388.207 226.476 388.157 226.596 388.057 226.687C387.966 226.77 387.833 226.812 387.659 226.812H386.425V231.371C386.425 231.571 386.363 231.724 386.238 231.832C386.122 231.932 385.973 231.982 385.79 231.982C385.607 231.982 385.458 231.932 385.341 231.832C385.225 231.724 385.167 231.571 385.167 231.371V226.812H384.42C384.245 226.812 384.108 226.77 384.008 226.687C383.917 226.596 383.871 226.476 383.871 226.326C383.871 226.177 383.917 226.06 384.008 225.977C384.108 225.886 384.245 225.84 384.42 225.84H385.167V225.678C385.167 224.914 385.362 224.316 385.753 223.884C386.143 223.444 386.695 223.199 387.409 223.149L387.733 223.125C387.999 223.108 388.19 223.137 388.306 223.212C388.431 223.286 388.493 223.407 388.493 223.573C388.493 223.864 388.319 224.03 387.97 224.071L387.646 224.096ZM395.6 225.691C397.053 225.691 397.78 226.509 397.78 228.145V231.384C397.78 231.575 397.722 231.724 397.606 231.832C397.498 231.932 397.344 231.982 397.145 231.982C396.954 231.982 396.8 231.928 396.684 231.82C396.576 231.712 396.522 231.567 396.522 231.384V228.207C396.522 227.692 396.418 227.314 396.21 227.074C396.011 226.833 395.695 226.712 395.264 226.712C394.757 226.712 394.35 226.87 394.043 227.186C393.735 227.501 393.582 227.925 393.582 228.456V231.384C393.582 231.567 393.524 231.712 393.407 231.82C393.299 231.928 393.15 231.982 392.959 231.982C392.768 231.982 392.614 231.928 392.498 231.82C392.382 231.712 392.324 231.567 392.324 231.384V226.314C392.324 226.139 392.382 225.998 392.498 225.89C392.623 225.774 392.776 225.716 392.959 225.716C393.142 225.716 393.287 225.77 393.395 225.878C393.503 225.986 393.557 226.127 393.557 226.301V226.812C393.756 226.447 394.034 226.168 394.391 225.977C394.749 225.786 395.151 225.691 395.6 225.691ZM404.21 225.716C404.401 225.716 404.551 225.77 404.659 225.878C404.775 225.986 404.833 226.135 404.833 226.326V231.396C404.833 231.571 404.775 231.712 404.659 231.82C404.542 231.928 404.389 231.982 404.198 231.982C404.023 231.982 403.882 231.932 403.774 231.832C403.666 231.724 403.612 231.583 403.612 231.409V230.935C403.421 231.284 403.155 231.55 402.815 231.733C402.483 231.915 402.109 232.007 401.694 232.007C400.215 232.007 399.476 231.193 399.476 229.565V226.326C399.476 226.135 399.53 225.986 399.638 225.878C399.755 225.77 399.912 225.716 400.112 225.716C400.303 225.716 400.452 225.77 400.56 225.878C400.676 225.986 400.735 226.135 400.735 226.326V229.553C400.735 230.043 400.834 230.404 401.034 230.636C401.233 230.869 401.54 230.985 401.955 230.985C402.445 230.985 402.836 230.827 403.126 230.512C403.425 230.196 403.575 229.777 403.575 229.254V226.326C403.575 226.143 403.633 225.998 403.749 225.89C403.866 225.774 404.019 225.716 404.21 225.716ZM413.57 225.691C414.932 225.691 415.613 226.509 415.613 228.145V231.384C415.613 231.575 415.555 231.724 415.439 231.832C415.322 231.932 415.169 231.982 414.978 231.982C414.795 231.982 414.646 231.932 414.529 231.832C414.413 231.724 414.355 231.575 414.355 231.384V228.157C414.355 227.651 414.264 227.285 414.081 227.061C413.898 226.829 413.612 226.712 413.221 226.712C412.764 226.712 412.403 226.87 412.137 227.186C411.872 227.493 411.739 227.917 411.739 228.456V231.384C411.739 231.575 411.681 231.724 411.564 231.832C411.448 231.932 411.294 231.982 411.103 231.982C410.921 231.982 410.771 231.932 410.655 231.832C410.539 231.724 410.481 231.575 410.481 231.384V228.157C410.481 227.651 410.389 227.285 410.206 227.061C410.024 226.829 409.737 226.712 409.347 226.712C408.89 226.712 408.525 226.87 408.251 227.186C407.985 227.493 407.852 227.917 407.852 228.456V231.384C407.852 231.575 407.794 231.724 407.678 231.832C407.561 231.932 407.412 231.982 407.229 231.982C407.046 231.982 406.893 231.932 406.768 231.832C406.652 231.724 406.594 231.575 406.594 231.384V226.314C406.594 226.131 406.656 225.986 406.781 225.878C406.905 225.77 407.055 225.716 407.229 225.716C407.404 225.716 407.545 225.77 407.653 225.878C407.769 225.977 407.827 226.118 407.827 226.301V226.762C408.01 226.413 408.263 226.148 408.587 225.965C408.911 225.782 409.285 225.691 409.708 225.691C410.173 225.691 410.555 225.786 410.854 225.977C411.162 226.168 411.39 226.463 411.539 226.862C411.722 226.505 411.992 226.222 412.349 226.015C412.706 225.799 413.113 225.691 413.57 225.691ZM420.6 225.691C421.131 225.691 421.601 225.819 422.008 226.077C422.415 226.334 422.73 226.7 422.954 227.173C423.187 227.647 423.303 228.199 423.303 228.83C423.303 229.453 423.187 230.005 422.954 230.487C422.73 230.969 422.41 231.342 421.995 231.608C421.588 231.874 421.123 232.007 420.6 232.007C420.143 232.007 419.74 231.911 419.392 231.72C419.043 231.521 418.777 231.239 418.594 230.873V231.371C418.594 231.554 418.536 231.704 418.42 231.82C418.312 231.928 418.162 231.982 417.971 231.982C417.78 231.982 417.627 231.928 417.51 231.82C417.394 231.704 417.336 231.554 417.336 231.371V223.673C417.336 223.49 417.394 223.345 417.51 223.237C417.635 223.129 417.793 223.075 417.984 223.075C418.167 223.075 418.312 223.129 418.42 223.237C418.536 223.336 418.594 223.473 418.594 223.648V226.837C418.777 226.471 419.043 226.189 419.392 225.99C419.74 225.79 420.143 225.691 420.6 225.691ZM420.301 231.01C420.841 231.01 421.26 230.819 421.559 230.437C421.866 230.055 422.02 229.519 422.02 228.83C422.02 228.149 421.871 227.626 421.572 227.26C421.273 226.887 420.849 226.7 420.301 226.7C419.753 226.7 419.329 226.887 419.03 227.26C418.74 227.634 418.594 228.166 418.594 228.855C418.594 229.544 418.74 230.076 419.03 230.45C419.329 230.823 419.753 231.01 420.301 231.01ZM429.455 230.387C429.571 230.387 429.667 230.433 429.742 230.524C429.816 230.616 429.854 230.732 429.854 230.873C429.854 231.114 429.704 231.317 429.405 231.484C429.114 231.65 428.795 231.778 428.446 231.87C428.105 231.961 427.777 232.007 427.462 232.007C426.498 232.007 425.738 231.729 425.182 231.172C424.626 230.607 424.347 229.839 424.347 228.867C424.347 228.245 424.468 227.692 424.709 227.211C424.958 226.729 425.302 226.355 425.743 226.089C426.191 225.824 426.698 225.691 427.262 225.691C428.076 225.691 428.72 225.952 429.193 226.476C429.667 226.999 429.903 227.705 429.903 228.593C429.903 228.926 429.754 229.092 429.455 229.092H425.606C425.689 230.379 426.307 231.023 427.462 231.023C427.769 231.023 428.035 230.981 428.259 230.898C428.483 230.815 428.72 230.707 428.969 230.574C428.994 230.558 429.061 230.524 429.168 230.474C429.285 230.416 429.38 230.387 429.455 230.387ZM427.287 226.613C426.806 226.613 426.42 226.766 426.129 227.074C425.838 227.381 425.664 227.813 425.606 228.369H428.82C428.795 227.804 428.649 227.373 428.384 227.074C428.126 226.766 427.761 226.613 427.287 226.613ZM434.479 225.716C434.878 225.691 435.077 225.861 435.077 226.226C435.077 226.409 435.031 226.546 434.94 226.638C434.849 226.729 434.691 226.783 434.467 226.799L434.093 226.837C433.57 226.887 433.179 227.069 432.922 227.385C432.673 227.701 432.548 228.083 432.548 228.531V231.384C432.548 231.583 432.49 231.733 432.374 231.832C432.258 231.932 432.108 231.982 431.925 231.982C431.743 231.982 431.589 231.932 431.464 231.832C431.348 231.733 431.29 231.583 431.29 231.384V226.314C431.29 226.123 431.348 225.977 431.464 225.878C431.589 225.77 431.743 225.716 431.925 225.716C432.091 225.716 432.228 225.77 432.336 225.878C432.453 225.977 432.511 226.118 432.511 226.301V226.899C432.677 226.534 432.918 226.256 433.233 226.064C433.549 225.873 433.906 225.761 434.305 225.728L434.479 225.716ZM437.909 232.007C437.062 232.007 436.368 231.832 435.829 231.484C435.679 231.392 435.571 231.297 435.505 231.197C435.447 231.097 435.418 230.985 435.418 230.861C435.418 230.728 435.455 230.616 435.53 230.524C435.604 230.433 435.7 230.387 435.816 230.387C435.924 230.387 436.094 230.454 436.327 230.587C436.576 230.719 436.817 230.827 437.049 230.91C437.29 230.994 437.589 231.035 437.946 231.035C438.345 231.035 438.656 230.964 438.881 230.823C439.105 230.682 439.217 230.483 439.217 230.225C439.217 230.059 439.171 229.926 439.08 229.827C438.997 229.727 438.848 229.64 438.632 229.565C438.416 229.482 438.096 229.395 437.672 229.303C436.941 229.146 436.414 228.934 436.09 228.668C435.775 228.394 435.617 228.024 435.617 227.559C435.617 227.202 435.721 226.883 435.928 226.6C436.136 226.309 436.422 226.085 436.788 225.927C437.153 225.77 437.569 225.691 438.034 225.691C438.366 225.691 438.69 225.736 439.005 225.828C439.321 225.911 439.599 226.035 439.84 226.202C440.114 226.384 440.251 226.596 440.251 226.837C440.251 226.97 440.21 227.082 440.126 227.173C440.052 227.265 439.96 227.31 439.852 227.31C439.778 227.31 439.703 227.294 439.628 227.26C439.553 227.227 439.454 227.173 439.329 227.098C439.105 226.966 438.893 226.862 438.694 226.787C438.503 226.712 438.262 226.675 437.971 226.675C437.623 226.675 437.34 226.75 437.124 226.899C436.917 227.049 436.813 227.252 436.813 227.51C436.813 227.742 436.908 227.925 437.099 228.058C437.299 228.182 437.668 228.303 438.208 228.419C438.764 228.535 439.2 228.668 439.516 228.818C439.832 228.967 440.056 229.154 440.189 229.378C440.33 229.594 440.401 229.872 440.401 230.213C440.401 230.753 440.172 231.189 439.715 231.521C439.267 231.845 438.665 232.007 437.909 232.007ZM448.375 225.691C449.82 225.691 450.542 226.509 450.542 228.145V231.384C450.542 231.567 450.484 231.712 450.368 231.82C450.252 231.928 450.098 231.982 449.907 231.982C449.716 231.982 449.562 231.928 449.446 231.82C449.338 231.712 449.284 231.567 449.284 231.384V228.157C449.284 227.659 449.18 227.294 448.973 227.061C448.773 226.829 448.458 226.712 448.026 226.712C447.519 226.712 447.112 226.87 446.805 227.186C446.498 227.501 446.344 227.925 446.344 228.456V231.384C446.344 231.567 446.286 231.712 446.17 231.82C446.062 231.928 445.912 231.982 445.721 231.982C445.53 231.982 445.376 231.928 445.26 231.82C445.144 231.712 445.086 231.567 445.086 231.384V223.673C445.086 223.49 445.144 223.345 445.26 223.237C445.385 223.129 445.543 223.075 445.734 223.075C445.916 223.075 446.062 223.129 446.17 223.237C446.286 223.336 446.344 223.473 446.344 223.648V226.762C446.552 226.413 446.83 226.148 447.179 225.965C447.527 225.782 447.926 225.691 448.375 225.691ZM457.022 230.387C457.139 230.387 457.234 230.433 457.309 230.524C457.384 230.616 457.421 230.732 457.421 230.873C457.421 231.114 457.271 231.317 456.972 231.484C456.682 231.65 456.362 231.778 456.013 231.87C455.673 231.961 455.345 232.007 455.029 232.007C454.066 232.007 453.306 231.729 452.749 231.172C452.193 230.607 451.915 229.839 451.915 228.867C451.915 228.245 452.035 227.692 452.276 227.211C452.525 226.729 452.87 226.355 453.31 226.089C453.758 225.824 454.265 225.691 454.83 225.691C455.644 225.691 456.287 225.952 456.761 226.476C457.234 226.999 457.471 227.705 457.471 228.593C457.471 228.926 457.321 229.092 457.022 229.092H453.173C453.256 230.379 453.875 231.023 455.029 231.023C455.336 231.023 455.602 230.981 455.826 230.898C456.051 230.815 456.287 230.707 456.536 230.574C456.561 230.558 456.628 230.524 456.736 230.474C456.852 230.416 456.948 230.387 457.022 230.387ZM454.855 226.613C454.373 226.613 453.987 226.766 453.696 227.074C453.405 227.381 453.231 227.813 453.173 228.369H456.387C456.362 227.804 456.217 227.373 455.951 227.074C455.693 226.766 455.328 226.613 454.855 226.613ZM462.046 225.716C462.445 225.691 462.644 225.861 462.644 226.226C462.644 226.409 462.599 226.546 462.507 226.638C462.416 226.729 462.258 226.783 462.034 226.799L461.66 226.837C461.137 226.887 460.747 227.069 460.489 227.385C460.24 227.701 460.115 228.083 460.115 228.531V231.384C460.115 231.583 460.057 231.733 459.941 231.832C459.825 231.932 459.675 231.982 459.493 231.982C459.31 231.982 459.156 231.932 459.032 231.832C458.915 231.733 458.857 231.583 458.857 231.384V226.314C458.857 226.123 458.915 225.977 459.032 225.878C459.156 225.77 459.31 225.716 459.493 225.716C459.659 225.716 459.796 225.77 459.904 225.878C460.02 225.977 460.078 226.118 460.078 226.301V226.899C460.244 226.534 460.485 226.256 460.801 226.064C461.116 225.873 461.473 225.761 461.872 225.728L462.046 225.716ZM468.056 230.387C468.173 230.387 468.268 230.433 468.343 230.524C468.418 230.616 468.455 230.732 468.455 230.873C468.455 231.114 468.306 231.317 468.007 231.484C467.716 231.65 467.396 231.778 467.047 231.87C466.707 231.961 466.379 232.007 466.063 232.007C465.1 232.007 464.34 231.729 463.784 231.172C463.227 230.607 462.949 229.839 462.949 228.867C462.949 228.245 463.069 227.692 463.31 227.211C463.559 226.729 463.904 226.355 464.344 226.089C464.793 225.824 465.299 225.691 465.864 225.691C466.678 225.691 467.321 225.952 467.795 226.476C468.268 226.999 468.505 227.705 468.505 228.593C468.505 228.926 468.355 229.092 468.056 229.092H464.207C464.29 230.379 464.909 231.023 466.063 231.023C466.371 231.023 466.636 230.981 466.861 230.898C467.085 230.815 467.321 230.707 467.571 230.574C467.596 230.558 467.662 230.524 467.77 230.474C467.886 230.416 467.982 230.387 468.056 230.387ZM465.889 226.613C465.407 226.613 465.021 226.766 464.73 227.074C464.44 227.381 464.265 227.813 464.207 228.369H467.421C467.396 227.804 467.251 227.373 466.985 227.074C466.728 226.766 466.362 226.613 465.889 226.613Z" fill="#B5B5B5"/>
<rect x="300.975" y="209.42" width="184" height="36" rx="10.5" stroke="#D8D1D8"/>
</g>
</g>
<g filter="url(#filter1_dd_628_349)">
<rect x="34" y="76" width="346.321" height="86.7712" rx="9.96607" fill="white"/>
<rect x="54.555" y="105.682" width="27.4067" height="27.4067" rx="4.36015" stroke="#A5A2A5" stroke-width="1.24576"/>
<path d="M97.5552 124.154C97.2655 124.154 97.0325 124.066 96.8561 123.889C96.6798 123.713 96.5916 123.474 96.5916 123.171V111.627C96.5916 111.337 96.6798 111.104 96.8561 110.928C97.0325 110.739 97.2655 110.644 97.5552 110.644C97.8575 110.644 98.0969 110.732 98.2732 110.909C98.4496 111.085 98.5378 111.324 98.5378 111.627V123.171C98.5378 123.474 98.4496 123.713 98.2732 123.889C98.1095 124.066 97.8701 124.154 97.5552 124.154ZM102.29 110.644C102.668 110.644 102.964 110.783 103.178 111.06C103.405 111.337 103.518 111.746 103.518 112.288C103.518 113.359 103.159 114.284 102.441 115.065C102.29 115.217 102.127 115.292 101.95 115.292C101.786 115.292 101.648 115.242 101.534 115.141C101.421 115.028 101.364 114.895 101.364 114.744C101.364 114.606 101.421 114.473 101.534 114.347C101.887 113.982 102.114 113.548 102.215 113.044C101.9 113.019 101.635 112.899 101.421 112.685C101.22 112.471 101.119 112.2 101.119 111.872C101.119 111.52 101.232 111.23 101.459 111.003C101.686 110.764 101.963 110.644 102.29 110.644ZM116.486 114.612C118.551 114.612 119.584 115.853 119.584 118.334V123.247C119.584 123.537 119.496 123.763 119.32 123.927C119.143 124.078 118.91 124.154 118.621 124.154C118.343 124.154 118.117 124.078 117.94 123.927C117.764 123.763 117.676 123.537 117.676 123.247V118.353C117.676 117.585 117.537 117.03 117.26 116.69C116.983 116.338 116.548 116.161 115.956 116.161C115.264 116.161 114.716 116.401 114.313 116.879C113.91 117.345 113.708 117.988 113.708 118.807V123.247C113.708 123.537 113.62 123.763 113.443 123.927C113.267 124.078 113.034 124.154 112.744 124.154C112.467 124.154 112.241 124.078 112.064 123.927C111.888 123.763 111.8 123.537 111.8 123.247V118.353C111.8 117.585 111.661 117.03 111.384 116.69C111.107 116.338 110.672 116.161 110.08 116.161C109.387 116.161 108.833 116.401 108.417 116.879C108.014 117.345 107.813 117.988 107.813 118.807V123.247C107.813 123.537 107.725 123.763 107.548 123.927C107.372 124.078 107.145 124.154 106.868 124.154C106.591 124.154 106.358 124.078 106.169 123.927C105.993 123.763 105.904 123.537 105.904 123.247V115.557C105.904 115.28 105.999 115.059 106.188 114.895C106.377 114.732 106.604 114.65 106.868 114.65C107.133 114.65 107.347 114.732 107.511 114.895C107.687 115.047 107.775 115.261 107.775 115.538V116.237C108.052 115.708 108.436 115.305 108.928 115.028C109.419 114.751 109.986 114.612 110.628 114.612C111.334 114.612 111.913 114.757 112.366 115.047C112.833 115.336 113.179 115.783 113.406 116.388C113.683 115.846 114.092 115.418 114.634 115.103C115.175 114.776 115.793 114.612 116.486 114.612ZM132.149 114.612C134.353 114.612 135.455 115.853 135.455 118.334V123.247C135.455 123.537 135.367 123.763 135.191 123.927C135.027 124.078 134.794 124.154 134.492 124.154C134.202 124.154 133.969 124.072 133.793 123.908C133.629 123.744 133.547 123.524 133.547 123.247V118.429C133.547 117.648 133.39 117.075 133.075 116.709C132.772 116.344 132.294 116.161 131.639 116.161C130.87 116.161 130.253 116.401 129.787 116.879C129.321 117.358 129.088 118 129.088 118.807V123.247C129.088 123.524 129 123.744 128.823 123.908C128.66 124.072 128.433 124.154 128.143 124.154C127.853 124.154 127.62 124.072 127.444 123.908C127.268 123.744 127.179 123.524 127.179 123.247V115.557C127.179 115.292 127.268 115.078 127.444 114.914C127.633 114.738 127.866 114.65 128.143 114.65C128.42 114.65 128.641 114.732 128.804 114.895C128.968 115.059 129.05 115.273 129.05 115.538V116.312C129.352 115.758 129.774 115.336 130.316 115.047C130.858 114.757 131.469 114.612 132.149 114.612ZM142.072 124.192C141.165 124.192 140.365 123.996 139.672 123.606C138.992 123.215 138.463 122.661 138.085 121.943C137.72 121.213 137.537 120.369 137.537 119.411C137.537 118.441 137.72 117.597 138.085 116.879C138.463 116.149 138.992 115.588 139.672 115.198C140.365 114.807 141.165 114.612 142.072 114.612C142.979 114.612 143.772 114.807 144.452 115.198C145.145 115.588 145.674 116.149 146.04 116.879C146.418 117.597 146.606 118.441 146.606 119.411C146.606 120.369 146.418 121.213 146.04 121.943C145.674 122.661 145.145 123.215 144.452 123.606C143.772 123.996 142.979 124.192 142.072 124.192ZM142.072 122.68C142.916 122.68 143.558 122.403 143.999 121.849C144.452 121.294 144.679 120.482 144.679 119.411C144.679 118.353 144.452 117.547 143.999 116.993C143.546 116.426 142.903 116.142 142.072 116.142C141.24 116.142 140.598 116.426 140.144 116.993C139.691 117.547 139.464 118.353 139.464 119.411C139.464 120.482 139.685 121.294 140.126 121.849C140.579 122.403 141.228 122.68 142.072 122.68ZM153.21 122.699C153.487 122.724 153.683 122.8 153.796 122.926C153.922 123.039 153.985 123.203 153.985 123.417C153.985 123.669 153.884 123.864 153.683 124.003C153.494 124.129 153.21 124.179 152.832 124.154L152.322 124.116C151.302 124.04 150.54 123.732 150.036 123.19C149.532 122.636 149.28 121.823 149.28 120.753V116.312H148.146C147.592 116.312 147.315 116.067 147.315 115.576C147.315 115.349 147.384 115.173 147.523 115.047C147.674 114.908 147.882 114.839 148.146 114.839H149.28V112.893C149.28 112.603 149.362 112.376 149.526 112.212C149.702 112.049 149.935 111.967 150.225 111.967C150.515 111.967 150.748 112.049 150.924 112.212C151.1 112.376 151.188 112.603 151.188 112.893V114.839H153.059C153.324 114.839 153.525 114.908 153.664 115.047C153.815 115.173 153.89 115.349 153.89 115.576C153.89 115.815 153.815 115.998 153.664 116.124C153.525 116.25 153.324 116.312 153.059 116.312H151.188V120.885C151.188 121.477 151.308 121.912 151.547 122.189C151.799 122.466 152.177 122.623 152.681 122.661L153.21 122.699ZM164.211 114.612C165.433 114.612 166.34 114.921 166.932 115.538C167.536 116.155 167.839 117.093 167.839 118.353V123.247C167.839 123.537 167.757 123.763 167.593 123.927C167.429 124.078 167.203 124.154 166.913 124.154C166.636 124.154 166.415 124.072 166.252 123.908C166.088 123.744 166.006 123.524 166.006 123.247V122.548C165.767 123.077 165.408 123.486 164.929 123.776C164.463 124.053 163.915 124.192 163.285 124.192C162.68 124.192 162.126 124.072 161.622 123.833C161.131 123.581 160.741 123.241 160.451 122.812C160.161 122.384 160.016 121.899 160.016 121.357C160.004 120.677 160.174 120.148 160.526 119.77C160.879 119.38 161.452 119.103 162.246 118.939C163.039 118.763 164.142 118.674 165.552 118.674H165.987V118.126C165.987 117.421 165.842 116.911 165.552 116.596C165.263 116.281 164.797 116.124 164.154 116.124C163.713 116.124 163.298 116.18 162.907 116.294C162.517 116.407 162.088 116.571 161.622 116.785C161.282 116.974 161.043 117.068 160.904 117.068C160.715 117.068 160.558 116.999 160.432 116.86C160.319 116.722 160.262 116.546 160.262 116.331C160.262 116.142 160.312 115.979 160.413 115.84C160.526 115.689 160.703 115.544 160.942 115.406C161.383 115.166 161.899 114.977 162.491 114.839C163.084 114.688 163.657 114.612 164.211 114.612ZM163.625 122.774C164.318 122.774 164.885 122.541 165.326 122.075C165.767 121.597 165.987 120.986 165.987 120.243V119.751H165.647C164.664 119.751 163.909 119.795 163.38 119.884C162.85 119.972 162.473 120.123 162.246 120.337C162.019 120.539 161.906 120.835 161.906 121.225C161.906 121.679 162.069 122.05 162.397 122.34C162.725 122.63 163.134 122.774 163.625 122.774ZM180.268 114.65C180.873 114.612 181.175 114.87 181.175 115.424C181.175 115.702 181.106 115.909 180.967 116.048C180.829 116.187 180.589 116.268 180.249 116.294L179.682 116.35C178.889 116.426 178.297 116.703 177.906 117.182C177.528 117.66 177.339 118.24 177.339 118.92V123.247C177.339 123.549 177.251 123.776 177.075 123.927C176.899 124.078 176.672 124.154 176.395 124.154C176.118 124.154 175.885 124.078 175.696 123.927C175.519 123.776 175.431 123.549 175.431 123.247V115.557C175.431 115.267 175.519 115.047 175.696 114.895C175.885 114.732 176.118 114.65 176.395 114.65C176.647 114.65 176.855 114.732 177.018 114.895C177.195 115.047 177.283 115.261 177.283 115.538V116.445C177.535 115.891 177.9 115.469 178.379 115.179C178.857 114.889 179.399 114.719 180.004 114.669L180.268 114.65ZM186.172 124.192C185.265 124.192 184.465 123.996 183.772 123.606C183.092 123.215 182.563 122.661 182.185 121.943C181.82 121.213 181.637 120.369 181.637 119.411C181.637 118.441 181.82 117.597 182.185 116.879C182.563 116.149 183.092 115.588 183.772 115.198C184.465 114.807 185.265 114.612 186.172 114.612C187.079 114.612 187.872 114.807 188.552 115.198C189.245 115.588 189.774 116.149 190.14 116.879C190.517 117.597 190.706 118.441 190.706 119.411C190.706 120.369 190.517 121.213 190.14 121.943C189.774 122.661 189.245 123.215 188.552 123.606C187.872 123.996 187.079 124.192 186.172 124.192ZM186.172 122.68C187.016 122.68 187.658 122.403 188.099 121.849C188.552 121.294 188.779 120.482 188.779 119.411C188.779 118.353 188.552 117.547 188.099 116.993C187.646 116.426 187.003 116.142 186.172 116.142C185.34 116.142 184.698 116.426 184.244 116.993C183.791 117.547 183.564 118.353 183.564 119.411C183.564 120.482 183.785 121.294 184.226 121.849C184.679 122.403 185.328 122.68 186.172 122.68ZM197.782 114.612C198.588 114.612 199.3 114.807 199.917 115.198C200.534 115.588 201.013 116.142 201.353 116.86C201.705 117.578 201.882 118.416 201.882 119.373C201.882 120.318 201.705 121.156 201.353 121.886C201.013 122.617 200.528 123.184 199.898 123.587C199.281 123.99 198.575 124.192 197.782 124.192C197.089 124.192 196.478 124.047 195.949 123.757C195.42 123.455 195.017 123.026 194.74 122.472V123.228C194.74 123.505 194.651 123.732 194.475 123.908C194.311 124.072 194.085 124.154 193.795 124.154C193.505 124.154 193.272 124.072 193.096 123.908C192.919 123.732 192.831 123.505 192.831 123.228V111.551C192.831 111.274 192.919 111.053 193.096 110.89C193.285 110.726 193.524 110.644 193.814 110.644C194.091 110.644 194.311 110.726 194.475 110.89C194.651 111.041 194.74 111.249 194.74 111.513V116.35C195.017 115.796 195.42 115.368 195.949 115.065C196.478 114.763 197.089 114.612 197.782 114.612ZM197.328 122.68C198.147 122.68 198.783 122.39 199.237 121.811C199.703 121.231 199.936 120.419 199.936 119.373C199.936 118.341 199.709 117.547 199.255 116.993C198.802 116.426 198.16 116.142 197.328 116.142C196.497 116.142 195.854 116.426 195.401 116.993C194.96 117.56 194.74 118.366 194.74 119.411C194.74 120.457 194.96 121.263 195.401 121.83C195.854 122.397 196.497 122.68 197.328 122.68ZM208 124.192C207.093 124.192 206.293 123.996 205.601 123.606C204.92 123.215 204.391 122.661 204.013 121.943C203.648 121.213 203.466 120.369 203.466 119.411C203.466 118.441 203.648 117.597 204.013 116.879C204.391 116.149 204.92 115.588 205.601 115.198C206.293 114.807 207.093 114.612 208 114.612C208.907 114.612 209.701 114.807 210.381 115.198C211.074 115.588 211.603 116.149 211.968 116.879C212.346 117.597 212.535 118.441 212.535 119.411C212.535 120.369 212.346 121.213 211.968 121.943C211.603 122.661 211.074 123.215 210.381 123.606C209.701 123.996 208.907 124.192 208 124.192ZM208 122.68C208.844 122.68 209.487 122.403 209.928 121.849C210.381 121.294 210.608 120.482 210.608 119.411C210.608 118.353 210.381 117.547 209.928 116.993C209.474 116.426 208.832 116.142 208 116.142C207.169 116.142 206.526 116.426 206.073 116.993C205.62 117.547 205.393 118.353 205.393 119.411C205.393 120.482 205.613 121.294 206.054 121.849C206.508 122.403 207.156 122.68 208 122.68ZM219.139 122.699C219.416 122.724 219.611 122.8 219.724 122.926C219.85 123.039 219.913 123.203 219.913 123.417C219.913 123.669 219.813 123.864 219.611 124.003C219.422 124.129 219.139 124.179 218.761 124.154L218.251 124.116C217.23 124.04 216.468 123.732 215.964 123.19C215.461 122.636 215.209 121.823 215.209 120.753V116.312H214.075C213.521 116.312 213.244 116.067 213.244 115.576C213.244 115.349 213.313 115.173 213.451 115.047C213.603 114.908 213.81 114.839 214.075 114.839H215.209V112.893C215.209 112.603 215.29 112.376 215.454 112.212C215.631 112.049 215.864 111.967 216.153 111.967C216.443 111.967 216.676 112.049 216.852 112.212C217.029 112.376 217.117 112.603 217.117 112.893V114.839H218.988C219.252 114.839 219.454 114.908 219.592 115.047C219.743 115.173 219.819 115.349 219.819 115.576C219.819 115.815 219.743 115.998 219.592 116.124C219.454 116.25 219.252 116.312 218.988 116.312H217.117V120.885C217.117 121.477 217.237 121.912 217.476 122.189C217.728 122.466 218.106 122.623 218.61 122.661L219.139 122.699Z" fill="#484455"/>
<path d="M315.957 112.404C320.741 118.709 324.204 119.682 332.151 115.587L340.595 123.893C327.34 132.584 319.981 133.382 307.098 121.124L303.084 125.415V108.251H319.832L315.957 112.404Z" fill="#C3C3C3"/>
<path d="M342.81 94.9632C336.873 87.7723 332.763 86.8364 325.231 85.9661V97.87C329.354 98.5194 331.43 99.4327 333.951 103.822L330.075 107.836H346.685V90.8107L342.81 94.9632Z" fill="#B569B5"/>
<path d="M321.078 98.9773C317.001 101.357 315.754 103.395 315.126 108.113H303.084C303.769 100.009 305.74 96.0897 312.219 90.257L308.205 85.9661H325.231V103.13L321.078 98.9773Z" fill="#C97BC9"/>
<path d="M293.442 142.161C293.84 142.136 294.04 142.306 294.04 142.671C294.04 142.854 293.994 142.991 293.902 143.082C293.811 143.174 293.653 143.228 293.429 143.244L293.055 143.282C292.532 143.332 292.142 143.514 291.884 143.83C291.635 144.146 291.511 144.528 291.511 144.976V147.829C291.511 148.028 291.452 148.178 291.336 148.277C291.22 148.377 291.07 148.427 290.888 148.427C290.705 148.427 290.551 148.377 290.427 148.277C290.311 148.178 290.252 148.028 290.252 147.829V142.759C290.252 142.568 290.311 142.422 290.427 142.323C290.551 142.215 290.705 142.161 290.888 142.161C291.054 142.161 291.191 142.215 291.299 142.323C291.415 142.422 291.473 142.563 291.473 142.746V143.344C291.639 142.979 291.88 142.7 292.196 142.509C292.511 142.318 292.868 142.206 293.267 142.173L293.442 142.161ZM299.452 146.832C299.568 146.832 299.663 146.878 299.738 146.969C299.813 147.061 299.85 147.177 299.85 147.318C299.85 147.559 299.701 147.762 299.402 147.928C299.111 148.095 298.791 148.223 298.443 148.315C298.102 148.406 297.774 148.452 297.458 148.452C296.495 148.452 295.735 148.173 295.179 147.617C294.622 147.052 294.344 146.284 294.344 145.312C294.344 144.69 294.464 144.137 294.705 143.656C294.954 143.174 295.299 142.8 295.739 142.534C296.188 142.269 296.694 142.136 297.259 142.136C298.073 142.136 298.717 142.397 299.19 142.921C299.663 143.444 299.9 144.15 299.9 145.038C299.9 145.371 299.751 145.537 299.452 145.537H295.602C295.685 146.824 296.304 147.468 297.458 147.468C297.766 147.468 298.031 147.426 298.256 147.343C298.48 147.26 298.717 147.152 298.966 147.019C298.991 147.002 299.057 146.969 299.165 146.919C299.281 146.861 299.377 146.832 299.452 146.832ZM297.284 143.058C296.802 143.058 296.416 143.211 296.125 143.519C295.835 143.826 295.66 144.258 295.602 144.814H298.816C298.791 144.249 298.646 143.817 298.38 143.519C298.123 143.211 297.757 143.058 297.284 143.058ZM305.261 148.464C304.422 148.464 303.691 148.286 303.068 147.928C302.445 147.563 301.968 147.044 301.635 146.371C301.303 145.69 301.137 144.889 301.137 143.967C301.137 143.053 301.303 142.26 301.635 141.588C301.968 140.907 302.445 140.387 303.068 140.03C303.691 139.665 304.422 139.482 305.261 139.482C305.809 139.482 306.328 139.569 306.818 139.744C307.308 139.91 307.735 140.155 308.101 140.479C308.259 140.603 308.338 140.77 308.338 140.977C308.338 141.127 308.296 141.255 308.213 141.363C308.13 141.463 308.03 141.513 307.914 141.513C307.773 141.513 307.636 141.459 307.503 141.351C307.104 141.052 306.739 140.844 306.407 140.728C306.083 140.603 305.713 140.541 305.298 140.541C304.384 140.541 303.683 140.836 303.193 141.426C302.703 142.015 302.458 142.862 302.458 143.967C302.458 145.08 302.703 145.931 303.193 146.521C303.683 147.11 304.384 147.405 305.298 147.405C305.697 147.405 306.058 147.343 306.382 147.218C306.714 147.094 307.088 146.886 307.503 146.596C307.669 146.488 307.806 146.434 307.914 146.434C308.03 146.434 308.13 146.488 308.213 146.596C308.296 146.695 308.338 146.82 308.338 146.969C308.338 147.177 308.259 147.343 308.101 147.468C307.735 147.791 307.308 148.041 306.818 148.215C306.328 148.381 305.809 148.464 305.261 148.464ZM317.433 147.617C317.475 147.717 317.495 147.8 317.495 147.866C317.495 148.024 317.429 148.157 317.296 148.265C317.171 148.373 317.03 148.427 316.872 148.427C316.764 148.427 316.661 148.398 316.561 148.34C316.47 148.273 316.399 148.182 316.349 148.066L315.527 146.197H310.968L310.145 148.066C310.095 148.182 310.021 148.273 309.921 148.34C309.821 148.398 309.718 148.427 309.61 148.427C309.444 148.427 309.294 148.373 309.161 148.265C309.037 148.157 308.974 148.024 308.974 147.866C308.974 147.8 308.995 147.717 309.037 147.617L312.55 139.931C312.608 139.798 312.699 139.694 312.824 139.619C312.957 139.545 313.094 139.507 313.235 139.507C313.376 139.507 313.509 139.545 313.633 139.619C313.766 139.694 313.862 139.798 313.92 139.931L317.433 147.617ZM311.428 145.175H315.079L313.247 141.052L311.428 145.175ZM319.468 148.427C319.277 148.427 319.124 148.369 319.007 148.252C318.891 148.136 318.833 147.978 318.833 147.779V140.205C318.833 140.014 318.887 139.864 318.995 139.756C319.111 139.64 319.269 139.582 319.468 139.582H322.471C323.401 139.582 324.123 139.81 324.638 140.267C325.153 140.724 325.411 141.372 325.411 142.21C325.411 143.041 325.153 143.689 324.638 144.154C324.123 144.619 323.401 144.851 322.471 144.851H320.116V147.779C320.116 147.978 320.058 148.136 319.942 148.252C319.834 148.369 319.676 148.427 319.468 148.427ZM322.334 143.817C323.563 143.817 324.177 143.282 324.177 142.21C324.177 141.147 323.563 140.616 322.334 140.616H320.116V143.817H322.334ZM329.481 148.427C329.29 148.427 329.132 148.369 329.008 148.252C328.892 148.128 328.833 147.97 328.833 147.779V140.653H326.342C325.943 140.653 325.744 140.475 325.744 140.118C325.744 139.943 325.794 139.81 325.893 139.719C326.001 139.628 326.151 139.582 326.342 139.582H332.621C332.812 139.582 332.957 139.628 333.057 139.719C333.165 139.81 333.219 139.943 333.219 140.118C333.219 140.475 333.019 140.653 332.621 140.653H330.129V147.779C330.129 147.97 330.071 148.128 329.955 148.252C329.838 148.369 329.681 148.427 329.481 148.427ZM337.572 148.464C336.734 148.464 336.003 148.286 335.38 147.928C334.757 147.563 334.279 147.044 333.947 146.371C333.615 145.69 333.449 144.889 333.449 143.967C333.449 143.053 333.615 142.26 333.947 141.588C334.279 140.907 334.757 140.387 335.38 140.03C336.003 139.665 336.734 139.482 337.572 139.482C338.121 139.482 338.64 139.569 339.13 139.744C339.62 139.91 340.047 140.155 340.413 140.479C340.571 140.603 340.649 140.77 340.649 140.977C340.649 141.127 340.608 141.255 340.525 141.363C340.442 141.463 340.342 141.513 340.226 141.513C340.085 141.513 339.948 141.459 339.815 141.351C339.416 141.052 339.051 140.844 338.719 140.728C338.395 140.603 338.025 140.541 337.61 140.541C336.696 140.541 335.994 140.836 335.504 141.426C335.014 142.015 334.769 142.862 334.769 143.967C334.769 145.08 335.014 145.931 335.504 146.521C335.994 147.11 336.696 147.405 337.61 147.405C338.008 147.405 338.37 147.343 338.694 147.218C339.026 147.094 339.4 146.886 339.815 146.596C339.981 146.488 340.118 146.434 340.226 146.434C340.342 146.434 340.442 146.488 340.525 146.596C340.608 146.695 340.649 146.82 340.649 146.969C340.649 147.177 340.571 147.343 340.413 147.468C340.047 147.791 339.62 148.041 339.13 148.215C338.64 148.381 338.121 148.464 337.572 148.464ZM348.993 139.52C349.184 139.52 349.338 139.582 349.454 139.706C349.57 139.823 349.628 139.976 349.628 140.167V147.779C349.628 147.97 349.57 148.128 349.454 148.252C349.338 148.369 349.184 148.427 348.993 148.427C348.802 148.427 348.648 148.369 348.532 148.252C348.416 148.136 348.358 147.978 348.358 147.779V144.428H343.449V147.779C343.449 147.97 343.391 148.128 343.275 148.252C343.159 148.369 343.005 148.427 342.814 148.427C342.623 148.427 342.469 148.369 342.353 148.252C342.237 148.136 342.179 147.978 342.179 147.779V140.167C342.179 139.976 342.237 139.823 342.353 139.706C342.469 139.582 342.623 139.52 342.814 139.52C343.005 139.52 343.159 139.582 343.275 139.706C343.391 139.823 343.449 139.976 343.449 140.167V143.381H348.358V140.167C348.358 139.976 348.416 139.823 348.532 139.706C348.648 139.582 348.802 139.52 348.993 139.52ZM359.417 147.617C359.458 147.717 359.479 147.8 359.479 147.866C359.479 148.024 359.412 148.157 359.279 148.265C359.155 148.373 359.014 148.427 358.856 148.427C358.748 148.427 358.644 148.398 358.544 148.34C358.453 148.273 358.383 148.182 358.333 148.066L357.51 146.197H352.951L352.129 148.066C352.079 148.182 352.004 148.273 351.905 148.34C351.805 148.398 351.701 148.427 351.593 148.427C351.427 148.427 351.278 148.373 351.145 148.265C351.02 148.157 350.958 148.024 350.958 147.866C350.958 147.8 350.979 147.717 351.02 147.617L354.533 139.931C354.591 139.798 354.683 139.694 354.807 139.619C354.94 139.545 355.077 139.507 355.218 139.507C355.359 139.507 355.492 139.545 355.617 139.619C355.75 139.694 355.845 139.798 355.903 139.931L359.417 147.617ZM353.412 145.175H357.062L355.231 141.052L353.412 145.175Z" fill="#797979"/>
</g>
<g filter="url(#filter2_dd_628_349)">
<g clip-path="url(#clip1_628_349)">
<rect x="335" y="285" width="268" height="94" rx="9.96607" fill="white"/>
<path d="M375.717 313.205C375.883 313.156 375.991 313.156 376.05 313.215C376.119 313.264 376.119 313.352 376.08 313.499C376.031 313.637 375.952 313.764 375.834 313.882C375.717 313.98 375.579 314.048 375.403 314.107L370.048 315.99C369.871 316.059 369.744 316.059 369.665 315.99C369.606 315.902 369.596 315.775 369.655 315.608C369.724 315.431 369.851 315.235 370.048 315.019L376.384 308.713L372.578 309.399C372.421 309.429 372.323 309.409 372.264 309.341C372.225 309.262 372.235 309.164 372.294 309.017C372.362 308.86 372.451 308.723 372.568 308.625C372.696 308.507 372.833 308.438 372.98 308.419L377.57 307.781C377.727 307.771 377.855 307.801 377.924 307.889C377.992 307.958 378.012 308.056 377.963 308.183C377.914 308.311 377.806 308.448 377.659 308.585L371.44 314.578L375.717 313.205ZM378.385 313.411C378.188 313.45 378.051 313.431 377.973 313.352C377.884 313.274 377.884 313.146 377.943 312.979C377.943 312.979 378.61 311.008 379.385 309.184C379.964 307.399 379.905 305.515 379.905 305.515C379.885 305.368 379.915 305.251 380.003 305.172C380.081 305.084 380.209 305.045 380.376 305.064C380.533 305.084 380.67 305.152 380.788 305.26C380.905 305.358 380.964 305.476 380.984 305.633C380.984 305.633 381.062 307.457 380.562 309.174C379.807 310.92 379.179 312.793 379.179 312.793C379.13 312.96 379.032 313.097 378.895 313.205C378.747 313.313 378.571 313.381 378.385 313.411ZM386.28 307.644C385.78 307.467 385.407 307.477 385.162 307.614C384.907 307.742 384.799 308.007 384.789 308.409L384.76 308.732L386.319 309.35C386.466 309.429 386.584 309.527 386.653 309.645C386.721 309.743 386.741 309.851 386.712 309.949C386.692 310.057 386.633 310.115 386.535 310.115C386.437 310.125 386.3 310.096 386.153 310.017L384.603 309.37L383.514 313.205C383.485 313.342 383.397 313.44 383.24 313.489C383.092 313.548 382.926 313.558 382.72 313.538C382.514 313.509 382.357 313.46 382.229 313.372C382.131 313.274 382.092 313.156 382.131 313.009L383.446 309.036L382.524 308.762C382.367 308.713 382.249 308.654 382.18 308.575C382.112 308.487 382.092 308.399 382.121 308.301C382.141 308.193 382.2 308.114 382.288 308.085C382.396 308.046 382.524 308.046 382.681 308.095L383.602 308.389L383.622 308.203C383.642 307.575 383.808 307.134 384.191 306.918C384.554 306.692 385.152 306.673 385.966 306.859L386.319 306.967C386.574 307.055 386.741 307.153 386.849 307.261C386.967 307.369 387.045 307.506 387.075 307.644C387.104 307.879 386.967 307.928 386.643 307.791L386.28 307.644ZM396.441 315.834C396.618 315.873 396.785 315.932 396.922 316C397.079 316.079 397.167 316.157 397.197 316.226C397.246 316.344 396.991 316.373 396.432 316.324C395.843 316.285 395.215 316.236 394.558 316.157C393.891 316.079 393.244 315.99 392.626 315.873C390.812 315.5 389.419 315 388.438 314.343C387.496 313.695 387.084 313.028 387.104 312.303C387.124 311.832 387.32 311.479 387.663 311.253C387.987 311.018 388.438 310.92 389.007 310.959C389.605 311.008 390.301 311.194 391.106 311.518C392.293 311.94 393.371 312.45 394.323 313.038C395.323 313.617 396.029 314.205 396.412 314.774C396.481 314.882 396.471 314.951 396.392 314.97C396.304 314.99 396.118 314.97 395.853 314.921L388.703 312.96C388.909 313.99 390.145 314.813 392.548 315.363C393.165 315.5 393.725 315.588 394.166 315.637C394.627 315.677 395.107 315.716 395.618 315.745C396.02 315.765 396.294 315.794 396.441 315.834ZM391.312 312.136C390.498 311.832 389.88 311.724 389.438 311.793C388.987 311.861 388.742 312.116 388.703 312.518L394.774 314.313C394.509 313.882 394.068 313.489 393.46 313.126C392.861 312.744 392.136 312.42 391.312 312.136ZM409.447 319.315C409.624 319.384 409.781 319.472 409.908 319.58C410.055 319.688 410.143 319.796 410.183 319.904L410.83 322.366C410.859 322.523 410.83 322.621 410.742 322.66C410.673 322.709 410.526 322.699 410.3 322.65C409.83 322.552 409.251 322.376 408.545 322.101C407.858 321.836 407.152 321.522 406.436 321.169C405.082 320.483 403.866 319.718 402.817 318.982C401.748 318.256 400.855 317.53 400.129 316.814C399.364 316.138 398.786 315.471 398.383 314.833C397.952 314.205 397.854 313.744 398.099 313.45C398.315 313.117 398.835 312.94 399.668 312.96C400.433 312.96 401.493 313.166 402.856 313.646C403.778 313.96 404.67 314.333 405.524 314.794C406.377 315.265 407.172 315.765 407.878 316.304C408.182 316.53 408.378 316.716 408.486 316.873C408.564 316.991 408.584 317.079 408.545 317.128C408.505 317.177 408.417 317.167 408.26 317.099C408.123 317.04 407.927 316.922 407.672 316.746C406.838 316.177 406.112 315.726 405.514 315.402C404.896 315.059 404.249 314.764 403.533 314.5C401.914 313.911 400.875 313.784 400.335 313.99C399.757 314.156 399.747 314.657 400.286 315.5C400.718 316.334 401.414 317.167 402.434 318.001C403.425 318.864 404.739 319.718 406.357 320.532C407.525 321.101 408.555 321.503 409.467 321.748L408.927 319.669L406.142 318.413C405.926 318.315 405.73 318.197 405.573 318.08C405.416 317.972 405.318 317.864 405.279 317.776C405.23 317.677 405.259 317.628 405.377 317.638C405.485 317.638 405.651 317.687 405.877 317.776L409.447 319.315ZM417.254 314.196C417.401 314.068 417.529 314.029 417.647 314.088C417.764 314.107 417.862 314.215 417.941 314.392C417.941 314.392 419.294 316.559 420.697 318.57C421.845 320.443 422.502 322.366 422.502 322.366C422.541 322.513 422.531 322.65 422.482 322.788C422.433 322.925 422.345 323.033 422.207 323.121C422.08 323.199 421.972 323.209 421.884 323.16C421.796 323.111 421.737 323.023 421.707 322.876L418.412 316.775L418.892 322.68C418.814 322.905 418.667 323.023 418.431 323.043C418.206 323.062 418.01 322.984 417.833 322.797L412.958 318.766L414.832 323.817C414.851 323.935 414.812 324.023 414.714 324.092C414.626 324.161 414.488 324.2 414.292 324.19C414.116 324.18 413.959 324.131 413.851 324.053C413.733 323.965 413.674 323.866 413.655 323.739C413.655 323.739 413.39 322.15 412.909 320.561C412.017 318.864 410.791 317.001 410.791 317.001C410.683 316.844 410.663 316.736 410.712 316.677C410.761 316.608 410.889 316.608 411.095 316.667C411.35 316.746 411.644 316.903 411.958 317.177L418.225 322.072L417.097 315C417.048 314.804 417.048 314.637 417.068 314.529C417.097 314.392 417.166 314.284 417.254 314.196Z" fill="black"/>
<path d="M376.657 355C376.458 355 376.3 354.946 376.183 354.838C376.076 354.722 376.022 354.568 376.022 354.377V346.84C376.022 346.649 376.076 346.5 376.183 346.392C376.3 346.276 376.458 346.217 376.657 346.217H381.241C381.432 346.217 381.578 346.263 381.677 346.354C381.785 346.446 381.839 346.575 381.839 346.741C381.839 346.907 381.785 347.035 381.677 347.127C381.578 347.21 381.432 347.251 381.241 347.251H377.28V350.017H380.992C381.183 350.017 381.328 350.063 381.428 350.154C381.536 350.245 381.59 350.374 381.59 350.54C381.59 350.706 381.536 350.835 381.428 350.926C381.328 351.018 381.183 351.063 380.992 351.063H377.28V353.966H381.241C381.64 353.966 381.839 354.136 381.839 354.477C381.839 354.643 381.785 354.772 381.677 354.863C381.578 354.954 381.432 355 381.241 355H376.657ZM386.436 348.771C387.889 348.771 388.616 349.589 388.616 351.225V354.464C388.616 354.655 388.558 354.805 388.441 354.913C388.333 355.012 388.18 355.062 387.98 355.062C387.789 355.062 387.636 355.008 387.519 354.9C387.411 354.792 387.357 354.647 387.357 354.464V351.288C387.357 350.773 387.254 350.395 387.046 350.154C386.847 349.913 386.531 349.793 386.099 349.793C385.593 349.793 385.186 349.951 384.878 350.266C384.571 350.582 384.417 351.005 384.417 351.537V354.464C384.417 354.647 384.359 354.792 384.243 354.9C384.135 355.008 383.986 355.062 383.795 355.062C383.604 355.062 383.45 355.008 383.334 354.9C383.217 354.792 383.159 354.647 383.159 354.464V349.394C383.159 349.22 383.217 349.078 383.334 348.971C383.458 348.854 383.612 348.796 383.795 348.796C383.977 348.796 384.123 348.85 384.231 348.958C384.339 349.066 384.393 349.207 384.393 349.382V349.892C384.592 349.527 384.87 349.249 385.227 349.058C385.584 348.867 385.987 348.771 386.436 348.771ZM393.314 354.103C393.497 354.12 393.626 354.169 393.7 354.253C393.784 354.327 393.825 354.435 393.825 354.576C393.825 354.743 393.759 354.871 393.626 354.963C393.501 355.046 393.314 355.079 393.065 355.062L392.729 355.037C392.056 354.988 391.554 354.784 391.221 354.427C390.889 354.062 390.723 353.526 390.723 352.82V349.892H389.976C389.61 349.892 389.428 349.73 389.428 349.407C389.428 349.257 389.473 349.141 389.565 349.058C389.664 348.966 389.801 348.921 389.976 348.921H390.723V347.638C390.723 347.447 390.777 347.297 390.885 347.189C391.001 347.081 391.155 347.027 391.346 347.027C391.537 347.027 391.691 347.081 391.807 347.189C391.923 347.297 391.981 347.447 391.981 347.638V348.921H393.215C393.389 348.921 393.522 348.966 393.613 349.058C393.713 349.141 393.763 349.257 393.763 349.407C393.763 349.564 393.713 349.685 393.613 349.768C393.522 349.851 393.389 349.892 393.215 349.892H391.981V352.907C391.981 353.297 392.06 353.584 392.218 353.767C392.384 353.949 392.633 354.053 392.965 354.078L393.314 354.103ZM399.488 353.468C399.604 353.468 399.699 353.513 399.774 353.605C399.849 353.696 399.886 353.812 399.886 353.954C399.886 354.194 399.737 354.398 399.438 354.564C399.147 354.73 398.827 354.859 398.478 354.95C398.138 355.042 397.81 355.087 397.494 355.087C396.531 355.087 395.771 354.809 395.215 354.253C394.658 353.688 394.38 352.92 394.38 351.948C394.38 351.325 394.5 350.773 394.741 350.291C394.99 349.809 395.335 349.436 395.775 349.17C396.224 348.904 396.73 348.771 397.295 348.771C398.109 348.771 398.753 349.033 399.226 349.556C399.699 350.079 399.936 350.785 399.936 351.674C399.936 352.006 399.787 352.172 399.488 352.172H395.638C395.721 353.459 396.34 354.103 397.494 354.103C397.802 354.103 398.067 354.062 398.292 353.978C398.516 353.895 398.753 353.787 399.002 353.655C399.027 353.638 399.093 353.605 399.201 353.555C399.317 353.497 399.413 353.468 399.488 353.468ZM397.32 349.693C396.838 349.693 396.452 349.847 396.161 350.154C395.871 350.461 395.696 350.893 395.638 351.45H398.852C398.827 350.885 398.682 350.453 398.416 350.154C398.159 349.847 397.793 349.693 397.32 349.693ZM404.512 348.796C404.91 348.771 405.11 348.941 405.11 349.307C405.11 349.49 405.064 349.627 404.973 349.718C404.881 349.809 404.723 349.863 404.499 349.88L404.125 349.917C403.602 349.967 403.212 350.15 402.954 350.465C402.705 350.781 402.581 351.163 402.581 351.612V354.464C402.581 354.664 402.523 354.813 402.406 354.913C402.29 355.012 402.141 355.062 401.958 355.062C401.775 355.062 401.621 355.012 401.497 354.913C401.381 354.813 401.322 354.664 401.322 354.464V349.394C401.322 349.203 401.381 349.058 401.497 348.958C401.621 348.85 401.775 348.796 401.958 348.796C402.124 348.796 402.261 348.85 402.369 348.958C402.485 349.058 402.543 349.199 402.543 349.382V349.98C402.709 349.614 402.95 349.336 403.266 349.145C403.581 348.954 403.939 348.842 404.337 348.809L404.512 348.796ZM412.147 354.103C412.329 354.12 412.458 354.169 412.533 354.253C412.616 354.327 412.657 354.435 412.657 354.576C412.657 354.743 412.591 354.871 412.458 354.963C412.334 355.046 412.147 355.079 411.898 355.062L411.561 355.037C410.888 354.988 410.386 354.784 410.054 354.427C409.722 354.062 409.555 353.526 409.555 352.82V349.892H408.808C408.443 349.892 408.26 349.73 408.26 349.407C408.26 349.257 408.306 349.141 408.397 349.058C408.497 348.966 408.634 348.921 408.808 348.921H409.555V347.638C409.555 347.447 409.609 347.297 409.717 347.189C409.834 347.081 409.987 347.027 410.178 347.027C410.369 347.027 410.523 347.081 410.639 347.189C410.756 347.297 410.814 347.447 410.814 347.638V348.921H412.047C412.221 348.921 412.354 348.966 412.446 349.058C412.545 349.141 412.595 349.257 412.595 349.407C412.595 349.564 412.545 349.685 412.446 349.768C412.354 349.851 412.221 349.892 412.047 349.892H410.814V352.907C410.814 353.297 410.893 353.584 411.05 353.767C411.216 353.949 411.466 354.053 411.798 354.078L412.147 354.103ZM418.32 353.468C418.436 353.468 418.532 353.513 418.606 353.605C418.681 353.696 418.719 353.812 418.719 353.954C418.719 354.194 418.569 354.398 418.27 354.564C417.979 354.73 417.66 354.859 417.311 354.95C416.97 355.042 416.642 355.087 416.327 355.087C415.363 355.087 414.603 354.809 414.047 354.253C413.49 353.688 413.212 352.92 413.212 351.948C413.212 351.325 413.333 350.773 413.574 350.291C413.823 349.809 414.167 349.436 414.608 349.17C415.056 348.904 415.563 348.771 416.127 348.771C416.941 348.771 417.585 349.033 418.058 349.556C418.532 350.079 418.768 350.785 418.768 351.674C418.768 352.006 418.619 352.172 418.32 352.172H414.47C414.554 353.459 415.172 354.103 416.327 354.103C416.634 354.103 416.9 354.062 417.124 353.978C417.348 353.895 417.585 353.787 417.834 353.655C417.859 353.638 417.925 353.605 418.033 353.555C418.15 353.497 418.245 353.468 418.32 353.468ZM416.152 349.693C415.671 349.693 415.284 349.847 414.994 350.154C414.703 350.461 414.529 350.893 414.47 351.45H417.685C417.66 350.885 417.514 350.453 417.249 350.154C416.991 349.847 416.626 349.693 416.152 349.693ZM425.153 354.053C425.278 354.178 425.34 354.323 425.34 354.489C425.34 354.647 425.282 354.784 425.166 354.9C425.058 355.008 424.925 355.062 424.767 355.062C424.609 355.062 424.464 354.992 424.331 354.851L422.425 352.708L420.531 354.851C420.399 354.992 420.253 355.062 420.095 355.062C419.938 355.062 419.801 355.004 419.684 354.888C419.576 354.772 419.522 354.635 419.522 354.477C419.522 354.319 419.581 354.178 419.697 354.053L421.665 351.886L419.796 349.805C419.672 349.664 419.61 349.523 419.61 349.382C419.61 349.224 419.668 349.091 419.784 348.983C419.9 348.867 420.033 348.809 420.183 348.809C420.34 348.809 420.486 348.879 420.619 349.02L422.425 351.063L424.231 349.02C424.364 348.879 424.514 348.809 424.68 348.809C424.829 348.809 424.962 348.867 425.079 348.983C425.195 349.091 425.253 349.224 425.253 349.382C425.253 349.539 425.191 349.681 425.066 349.805L423.197 351.886L425.153 354.053ZM429.556 354.103C429.738 354.12 429.867 354.169 429.942 354.253C430.025 354.327 430.066 354.435 430.066 354.576C430.066 354.743 430 354.871 429.867 354.963C429.743 355.046 429.556 355.079 429.306 355.062L428.97 355.037C428.297 354.988 427.795 354.784 427.463 354.427C427.131 354.062 426.964 353.526 426.964 352.82V349.892H426.217C425.852 349.892 425.669 349.73 425.669 349.407C425.669 349.257 425.715 349.141 425.806 349.058C425.906 348.966 426.043 348.921 426.217 348.921H426.964V347.638C426.964 347.447 427.018 347.297 427.126 347.189C427.243 347.081 427.396 347.027 427.587 347.027C427.778 347.027 427.932 347.081 428.048 347.189C428.165 347.297 428.223 347.447 428.223 347.638V348.921H429.456C429.63 348.921 429.763 348.966 429.855 349.058C429.954 349.141 430.004 349.257 430.004 349.407C430.004 349.564 429.954 349.685 429.855 349.768C429.763 349.851 429.63 349.892 429.456 349.892H428.223V352.907C428.223 353.297 428.302 353.584 428.459 353.767C428.625 353.949 428.875 354.053 429.207 354.078L429.556 354.103Z" fill="#B5B5B5"/>
<rect x="359.5" y="332.5" width="193" height="36" rx="7.5" stroke="#D8D1D8"/>
</g>
</g>
<defs>
<filter id="filter0_dd_628_349" x="136.051" y="174.034" width="391.669" height="106.771" filterUnits="userSpaceOnUse" color-interpolation-filters="sRGB">
<feFlood flood-opacity="0" result="BackgroundImageFix"/>
<feColorMatrix in="SourceAlpha" type="matrix" values="0 0 0 0 0 0 0 0 0 0 0 0 0 0 0 0 0 0 127 0" result="hardAlpha"/>
<feOffset dx="2.49152" dy="2.49152"/>
<feGaussianBlur stdDeviation="3.1144"/>
<feComposite in2="hardAlpha" operator="out"/>
<feColorMatrix type="matrix" values="0 0 0 0 0 0 0 0 0 0 0 0 0 0 0 0 0 0 0.05 0"/>
<feBlend mode="normal" in2="BackgroundImageFix" result="effect1_dropShadow_628_349"/>
<feColorMatrix in="SourceAlpha" type="matrix" values="0 0 0 0 0 0 0 0 0 0 0 0 0 0 0 0 0 0 127 0" result="hardAlpha"/>
<feOffset dx="-4.98303"/>
<feGaussianBlur stdDeviation="4.98303"/>
<feComposite in2="hardAlpha" operator="out"/>
<feColorMatrix type="matrix" values="0 0 0 0 0 0 0 0 0 0 0 0 0 0 0 0 0 0 0.05 0"/>
<feBlend mode="normal" in2="effect1_dropShadow_628_349" result="effect2_dropShadow_628_349"/>
<feBlend mode="normal" in="SourceGraphic" in2="effect2_dropShadow_628_349" result="shape"/>
</filter>
<filter id="filter1_dd_628_349" x="19.0509" y="66.0339" width="369.99" height="106.703" filterUnits="userSpaceOnUse" color-interpolation-filters="sRGB">
<feFlood flood-opacity="0" result="BackgroundImageFix"/>
<feColorMatrix in="SourceAlpha" type="matrix" values="0 0 0 0 0 0 0 0 0 0 0 0 0 0 0 0 0 0 127 0" result="hardAlpha"/>
<feOffset dx="2.49152" dy="2.49152"/>
<feGaussianBlur stdDeviation="3.1144"/>
<feComposite in2="hardAlpha" operator="out"/>
<feColorMatrix type="matrix" values="0 0 0 0 0 0 0 0 0 0 0 0 0 0 0 0 0 0 0.05 0"/>
<feBlend mode="normal" in2="BackgroundImageFix" result="effect1_dropShadow_628_349"/>
<feColorMatrix in="SourceAlpha" type="matrix" values="0 0 0 0 0 0 0 0 0 0 0 0 0 0 0 0 0 0 127 0" result="hardAlpha"/>
<feOffset dx="-4.98303"/>
<feGaussianBlur stdDeviation="4.98303"/>
<feComposite in2="hardAlpha" operator="out"/>
<feColorMatrix type="matrix" values="0 0 0 0 0 0 0 0 0 0 0 0 0 0 0 0 0 0 0.05 0"/>
<feBlend mode="normal" in2="effect1_dropShadow_628_349" result="effect2_dropShadow_628_349"/>
<feBlend mode="normal" in="SourceGraphic" in2="effect2_dropShadow_628_349" result="shape"/>
</filter>
<filter id="filter2_dd_628_349" x="320.051" y="275.034" width="291.669" height="113.932" filterUnits="userSpaceOnUse" color-interpolation-filters="sRGB">
<feFlood flood-opacity="0" result="BackgroundImageFix"/>
<feColorMatrix in="SourceAlpha" type="matrix" values="0 0 0 0 0 0 0 0 0 0 0 0 0 0 0 0 0 0 127 0" result="hardAlpha"/>
<feOffset dx="2.49152" dy="2.49152"/>
<feGaussianBlur stdDeviation="3.1144"/>
<feComposite in2="hardAlpha" operator="out"/>
<feColorMatrix type="matrix" values="0 0 0 0 0 0 0 0 0 0 0 0 0 0 0 0 0 0 0.05 0"/>
<feBlend mode="normal" in2="BackgroundImageFix" result="effect1_dropShadow_628_349"/>
<feColorMatrix in="SourceAlpha" type="matrix" values="0 0 0 0 0 0 0 0 0 0 0 0 0 0 0 0 0 0 127 0" result="hardAlpha"/>
<feOffset dx="-4.98303"/>
<feGaussianBlur stdDeviation="4.98303"/>
<feComposite in2="hardAlpha" operator="out"/>
<feColorMatrix type="matrix" values="0 0 0 0 0 0 0 0 0 0 0 0 0 0 0 0 0 0 0.05 0"/>
<feBlend mode="normal" in2="effect1_dropShadow_628_349" result="effect2_dropShadow_628_349"/>
<feBlend mode="normal" in="SourceGraphic" in2="effect2_dropShadow_628_349" result="shape"/>
</filter>
<clipPath id="clip0_628_349">
<rect x="151" y="184" width="368" height="86.8391" rx="9.96607" fill="white"/>
</clipPath>
<clipPath id="clip1_628_349">
<rect x="335" y="285" width="268" height="94" rx="9.96607" fill="white"/>
</clipPath>
</defs>
</svg>
