<svg width="289" height="221" viewBox="0 0 289 221" fill="none" xmlns="http://www.w3.org/2000/svg">
<ellipse cx="145.115" cy="110.062" rx="110.002" ry="110" fill="#F1D9FF"/>
<g filter="url(#filter0_d_9473_9093)">
<g clip-path="url(#clip0_9473_9093)">
<rect width="279.728" height="30.1115" transform="translate(4.63672 27.2734)" fill="#23282D"/>
<g clip-path="url(#clip1_9473_9093)">
<path d="M16.9578 39.7082H16.202L18.2626 45.5332L19.4162 42.2365L18.5218 39.7082H17.7243V39.1532H21.2557V39.7082H20.4288L22.4893 45.5332L23.23 43.4164C24.2016 40.7045 22.4336 39.8597 22.4336 39.2544C22.4336 38.6492 22.9243 38.1586 23.5295 38.1586C23.5622 38.1586 23.594 38.1604 23.6252 38.1633C22.5997 37.1952 21.217 36.6016 19.6955 36.6016C17.7074 36.6016 15.9563 37.615 14.9297 39.1532H16.9578V39.7082H16.9578Z" fill="white"/>
<path d="M13.9688 42.3319C13.9688 44.5242 15.2009 46.4284 17.0102 47.3906L14.4262 40.0859C14.1319 40.7756 13.9688 41.5347 13.9688 42.3319Z" fill="white"/>
<path d="M24.6747 39.5078C24.7566 39.9901 24.7318 40.5321 24.6061 41.0763H24.6289L24.5423 41.3237C24.491 41.5023 24.4264 41.6851 24.3531 41.8646L22.3828 47.3844C24.1884 46.4211 25.4174 44.5189 25.4174 42.3294C25.4174 41.3035 25.1473 40.3407 24.6747 39.5078Z" fill="white"/>
<path d="M17.9297 47.7804C18.486 47.9606 19.0793 48.0583 19.6956 48.0583C20.2835 48.0583 20.8506 47.9696 21.3845 47.805L19.7095 43.0703L17.9297 47.7804Z" fill="white"/>
<path d="M24.5339 37.4888C23.2413 36.1962 21.5228 35.4844 19.6949 35.4844C17.867 35.4844 16.1485 36.1962 14.8559 37.4888C13.5634 38.7814 12.8516 40.4999 12.8516 42.3279C12.8516 44.1559 13.5634 45.8744 14.8559 47.167C16.1485 48.4596 17.867 49.1714 19.6949 49.1714C21.5228 49.1714 23.2413 48.4596 24.5339 47.167C25.8264 45.8744 26.5382 44.1558 26.5382 42.3279C26.5382 40.4999 25.8264 38.7814 24.5339 37.4888ZM19.6949 48.6886C16.1876 48.6886 13.3343 45.8352 13.3343 42.3279C13.3343 38.8206 16.1876 35.9671 19.6949 35.9671C23.2021 35.9671 26.0554 38.8206 26.0554 42.3279C26.0554 45.8352 23.2021 48.6886 19.6949 48.6886Z" fill="white"/>
</g>
<rect x="34.7461" y="40.7891" width="23.2684" height="3.07959" rx="1.36872" fill="#C9C9C9"/>
<rect x="67.5938" y="40.7891" width="23.2684" height="3.07959" rx="1.36872" fill="#C9C9C9"/>
<rect x="100.445" y="40.7891" width="23.2684" height="3.07959" rx="1.36872" fill="#C9C9C9"/>
<rect x="133.293" y="40.7891" width="23.2684" height="3.07959" rx="1.36872" fill="#C9C9C9"/>
<rect x="166.145" y="40.7891" width="23.2684" height="3.07959" rx="1.36872" fill="#C9C9C9"/>
<rect x="198.992" y="40.7891" width="23.2684" height="3.07959" rx="1.36872" fill="#C9C9C9"/>
<rect x="241.934" y="35.4844" width="34.2182" height="13.6871" rx="6.84353" fill="#3858E9"/>
<rect width="279.728" height="136.186" transform="translate(4.63672 57.3828)" fill="white"/>
<path d="M116.958 114.625V102.388H121.093C122.053 102.388 122.838 102.561 123.447 102.908C124.06 103.251 124.515 103.715 124.809 104.3C125.104 104.886 125.251 105.539 125.251 106.26C125.251 106.981 125.104 107.636 124.809 108.226C124.518 108.815 124.068 109.285 123.459 109.636C122.849 109.982 122.069 110.156 121.117 110.156H118.153V108.841H121.069C121.726 108.841 122.254 108.728 122.652 108.501C123.051 108.274 123.339 107.967 123.519 107.58C123.702 107.19 123.794 106.75 123.794 106.26C123.794 105.77 123.702 105.332 123.519 104.946C123.339 104.559 123.049 104.256 122.646 104.037C122.244 103.814 121.71 103.703 121.045 103.703H118.44V114.625H116.958ZM128.857 102.388V114.625H127.447V102.388H128.857ZM137.224 110.873V105.447H138.634V114.625H137.224V113.072H137.128C136.913 113.538 136.579 113.934 136.124 114.261C135.67 114.583 135.097 114.744 134.404 114.744C133.83 114.744 133.32 114.619 132.874 114.368C132.428 114.113 132.077 113.731 131.822 113.221C131.567 112.707 131.44 112.06 131.44 111.279V105.447H132.85V111.183C132.85 111.853 133.037 112.386 133.412 112.785C133.79 113.183 134.272 113.382 134.858 113.382C135.208 113.382 135.565 113.293 135.927 113.113C136.294 112.934 136.6 112.659 136.847 112.289C137.098 111.918 137.224 111.446 137.224 110.873ZM144.921 118.258C144.24 118.258 143.654 118.17 143.164 117.995C142.675 117.824 142.266 117.597 141.94 117.314C141.617 117.035 141.36 116.736 141.169 116.417L142.292 115.629C142.42 115.796 142.581 115.987 142.776 116.202C142.971 116.421 143.238 116.611 143.577 116.77C143.919 116.933 144.367 117.015 144.921 117.015C145.662 117.015 146.273 116.836 146.755 116.477C147.237 116.119 147.478 115.557 147.478 114.792V112.928H147.359C147.255 113.095 147.108 113.303 146.917 113.55C146.73 113.792 146.459 114.01 146.104 114.201C145.754 114.388 145.28 114.482 144.682 114.482C143.941 114.482 143.276 114.306 142.686 113.956C142.101 113.605 141.637 113.095 141.294 112.426C140.956 111.757 140.786 110.944 140.786 109.988C140.786 109.048 140.952 108.23 141.282 107.533C141.613 106.832 142.073 106.29 142.663 105.907C143.252 105.521 143.933 105.328 144.706 105.328C145.304 105.328 145.778 105.427 146.128 105.627C146.483 105.822 146.753 106.045 146.941 106.296C147.132 106.543 147.279 106.746 147.383 106.905H147.526V105.447H148.889V114.888C148.889 115.677 148.709 116.318 148.351 116.812C147.996 117.31 147.518 117.674 146.917 117.905C146.319 118.14 145.654 118.258 144.921 118.258ZM144.873 113.215C145.439 113.215 145.917 113.085 146.307 112.827C146.698 112.568 146.994 112.195 147.198 111.709C147.401 111.223 147.502 110.642 147.502 109.965C147.502 109.303 147.403 108.72 147.204 108.214C147.004 107.708 146.71 107.312 146.319 107.025C145.929 106.738 145.447 106.595 144.873 106.595C144.276 106.595 143.778 106.746 143.38 107.049C142.985 107.351 142.688 107.758 142.489 108.268C142.294 108.777 142.197 109.343 142.197 109.965C142.197 110.602 142.296 111.165 142.495 111.655C142.698 112.141 142.997 112.524 143.392 112.803C143.79 113.077 144.284 113.215 144.873 113.215ZM151.47 114.625V105.447H152.88V114.625H151.47ZM152.187 103.918C151.912 103.918 151.675 103.824 151.476 103.637C151.28 103.45 151.183 103.225 151.183 102.962C151.183 102.699 151.28 102.474 151.476 102.287C151.675 102.099 151.912 102.006 152.187 102.006C152.462 102.006 152.697 102.099 152.892 102.287C153.091 102.474 153.191 102.699 153.191 102.962C153.191 103.225 153.091 103.45 152.892 103.637C152.697 103.824 152.462 103.918 152.187 103.918ZM156.873 109.104V114.625H155.462V105.447H156.825V106.881H156.944C157.159 106.415 157.486 106.041 157.924 105.758C158.362 105.471 158.928 105.328 159.621 105.328C160.242 105.328 160.786 105.455 161.252 105.71C161.718 105.961 162.081 106.344 162.34 106.858C162.599 107.367 162.728 108.013 162.728 108.793V114.625H161.318V108.889C161.318 108.168 161.131 107.606 160.756 107.204C160.382 106.798 159.868 106.595 159.215 106.595C158.765 106.595 158.362 106.692 158.008 106.887C157.657 107.083 157.38 107.367 157.177 107.742C156.974 108.116 156.873 108.57 156.873 109.104ZM171.806 107.503L170.539 107.861C170.459 107.65 170.342 107.445 170.186 107.246C170.035 107.043 169.828 106.875 169.565 106.744C169.302 106.613 168.965 106.547 168.555 106.547C167.994 106.547 167.526 106.676 167.151 106.935C166.781 107.19 166.595 107.515 166.595 107.909C166.595 108.26 166.723 108.536 166.978 108.74C167.233 108.943 167.631 109.112 168.173 109.248L169.535 109.582C170.356 109.781 170.967 110.086 171.369 110.496C171.772 110.903 171.973 111.426 171.973 112.068C171.973 112.594 171.822 113.064 171.519 113.478C171.22 113.892 170.802 114.219 170.264 114.458C169.726 114.697 169.101 114.816 168.388 114.816C167.452 114.816 166.677 114.613 166.064 114.207C165.45 113.8 165.062 113.207 164.899 112.426L166.237 112.092C166.364 112.586 166.605 112.956 166.96 113.203C167.318 113.45 167.786 113.573 168.364 113.573C169.021 113.573 169.543 113.434 169.929 113.155C170.32 112.872 170.515 112.534 170.515 112.139C170.515 111.821 170.403 111.554 170.18 111.339C169.957 111.12 169.615 110.956 169.153 110.849L167.623 110.49C166.783 110.291 166.165 109.982 165.771 109.564C165.38 109.142 165.185 108.614 165.185 107.981C165.185 107.463 165.331 107.005 165.621 106.607C165.916 106.208 166.317 105.896 166.822 105.668C167.332 105.441 167.91 105.328 168.555 105.328C169.463 105.328 170.176 105.527 170.694 105.925C171.216 106.324 171.587 106.85 171.806 107.503Z" fill="#23282D"/>
<rect x="38.1008" y="134.484" width="212.083" height="20.6896" rx="5.30378" stroke="#A3A3A3" stroke-width="0.34218"/>
<g clip-path="url(#clip2_9473_9093)">
<path d="M239.785 147.57C241.517 147.57 242.922 146.166 242.922 144.433C242.922 142.701 241.517 141.297 239.785 141.297C238.053 141.297 236.648 142.701 236.648 144.433C236.648 146.166 238.053 147.57 239.785 147.57Z" stroke="#525252" stroke-width="1.02654" stroke-linecap="round" stroke-linejoin="round"/>
<path d="M243.709 148.366L242.023 146.68" stroke="#525252" stroke-width="1.02654" stroke-linecap="round" stroke-linejoin="round"/>
</g>
</g>
</g>
<defs>
<filter id="filter0_d_9473_9093" x="0.283014" y="25.0966" width="288.434" height="175.004" filterUnits="userSpaceOnUse" color-interpolation-filters="sRGB">
<feFlood flood-opacity="0" result="BackgroundImageFix"/>
<feColorMatrix in="SourceAlpha" type="matrix" values="0 0 0 0 0 0 0 0 0 0 0 0 0 0 0 0 0 0 127 0" result="hardAlpha"/>
<feOffset dy="2.17685"/>
<feGaussianBlur stdDeviation="2.17685"/>
<feComposite in2="hardAlpha" operator="out"/>
<feColorMatrix type="matrix" values="0 0 0 0 0 0 0 0 0 0 0 0 0 0 0 0 0 0 0.08 0"/>
<feBlend mode="normal" in2="BackgroundImageFix" result="effect1_dropShadow_9473_9093"/>
<feBlend mode="normal" in="SourceGraphic" in2="effect1_dropShadow_9473_9093" result="shape"/>
</filter>
<clipPath id="clip0_9473_9093">
<rect x="4.63672" y="27.2734" width="279.728" height="166.298" rx="4.3537" fill="white"/>
</clipPath>
<clipPath id="clip1_9473_9093">
<rect width="13.6867" height="13.6871" fill="white" transform="translate(12.8477 35.4844)"/>
</clipPath>
<clipPath id="clip2_9473_9093">
<rect width="9.41002" height="9.40986" fill="white" transform="translate(235.469 140.125)"/>
</clipPath>
</defs>
</svg>
