<svg width="129" height="288" viewBox="0 0 129 288" fill="none" xmlns="http://www.w3.org/2000/svg">
<rect x="46.1836" width="84" height="84" rx="5.29805" transform="rotate(9.72158 46.1836 0)" fill="url(#paint0_linear_9388_8955)"/>
<path d="M67.2337 27.9968L71.1834 25.2025C71.2786 25.1348 71.3529 25.0418 71.3978 24.9339C71.4428 24.8261 71.4565 24.7078 71.4376 24.5925C71.4186 24.4772 71.3676 24.3696 71.2905 24.2818C71.2134 24.1941 71.1132 24.1297 71.0013 24.0961L58.945 20.5362C58.5612 20.423 58.1666 20.6954 58.1443 21.1027L57.4879 33.6565C57.4625 34.174 58.0478 34.4956 58.4706 34.1965L62.4023 31.4149L70.9138 43.4362C71.1112 43.7151 71.5029 43.7822 71.7818 43.5849L75.5952 40.8937C75.8741 40.6964 75.9412 40.3047 75.7439 40.0258L67.2337 27.9968ZM91.8601 47.0247C92.0574 47.3036 92.4491 47.3707 92.728 47.1734L104.756 38.6709L107.537 42.6026C107.605 42.6978 107.698 42.7721 107.806 42.817C107.914 42.862 108.032 42.8757 108.147 42.8568C108.263 42.8378 108.37 42.7869 108.458 42.7097C108.546 42.6326 108.61 42.5324 108.644 42.4205L112.202 30.3719C112.315 29.988 112.043 29.5935 111.636 29.5712L99.082 28.9148C98.5645 28.8894 98.2429 29.4747 98.542 29.8975L101.336 33.8472L89.31 42.342C89.1758 42.4379 89.085 42.5829 89.0571 42.7454C89.0293 42.908 89.0667 43.0749 89.1613 43.21L91.8601 47.0247ZM103.83 70.5179C103.855 70.0004 103.27 69.6787 102.847 69.9779L98.9156 72.7594L90.4041 60.7382C90.3082 60.604 90.1633 60.5132 90.0007 60.4853C89.8382 60.4575 89.6712 60.4949 89.5362 60.5895L85.7228 63.2806C85.5886 63.3765 85.4977 63.5215 85.4699 63.684C85.4421 63.8465 85.4795 64.0135 85.5741 64.1486L94.0842 76.1775L90.1346 78.9718C90.0394 79.0395 89.9651 79.1326 89.9201 79.2404C89.8752 79.3483 89.8614 79.4666 89.8804 79.5818C89.8994 79.6971 89.9503 79.8048 90.0274 79.8925C90.1045 79.9803 90.2047 80.0446 90.3166 80.0783L102.373 83.6381C102.757 83.7513 103.151 83.4789 103.174 83.0716L103.83 70.5179ZM69.4579 57.1496C69.362 57.0155 69.217 56.9246 69.0545 56.8968C68.8919 56.8689 68.725 56.9064 68.5899 57.0009L56.5623 65.5034L53.7807 61.5718C53.713 61.4765 53.6199 61.4023 53.5121 61.3573C53.4042 61.3124 53.2859 61.2986 53.1707 61.3176C53.0554 61.3366 52.9477 61.3875 52.86 61.4646C52.7722 61.5417 52.7079 61.6419 52.6742 61.7538L49.1157 73.8025C49.0025 74.1863 49.2749 74.5809 49.6822 74.6032L62.236 75.2596C62.7534 75.285 63.0751 74.6997 62.7759 74.2768L59.9803 70.3348L72.008 61.8323C72.2869 61.635 72.354 61.2433 72.1567 60.9644L69.4579 57.1496Z" fill="white"/>
<rect y="157.555" width="56.8672" height="56.8672" rx="5.29805" transform="rotate(-7.63805 0 157.555)" fill="url(#paint1_linear_9388_8955)"/>
<g clip-path="url(#clip0_9388_8955)">
<path d="M14.8722 167.008C14.2182 167.096 13.6308 167.477 13.2392 168.068C12.8477 168.658 12.684 169.41 12.7842 170.157L16.5635 198.338C16.6637 199.086 17.0196 199.768 17.5529 200.234C18.0862 200.701 18.7533 200.914 19.4072 200.826L48.9976 196.858C49.6516 196.77 50.239 196.389 50.6306 195.798C51.0221 195.208 51.1858 194.456 51.0856 193.709L47.3063 165.528C47.2061 164.78 46.8502 164.098 46.3169 163.632C45.7835 163.165 45.1165 162.952 44.4625 163.04L14.8722 167.008ZM44.0846 160.222C45.3926 160.047 46.7266 160.472 47.7933 161.405C48.8599 162.338 49.5717 163.702 49.7722 165.197L53.5514 193.378C53.7519 194.873 53.4246 196.376 52.6414 197.557C51.8583 198.738 50.6835 199.5 49.3755 199.676L19.7852 203.644C18.4772 203.819 17.1432 203.394 16.0765 202.461C15.0099 201.528 14.2981 200.164 14.0976 198.669L10.3183 170.488C10.1179 168.993 10.4452 167.49 11.2284 166.309C12.0115 165.128 13.1863 164.366 14.4942 164.19L44.0846 160.222Z" fill="white"/>
<path d="M42.7179 169.011C42.6177 168.264 42.2618 167.582 41.7285 167.115C41.1952 166.649 40.5281 166.436 39.8742 166.524L34.9424 167.185C34.2884 167.273 33.7011 167.654 33.3095 168.244C32.9179 168.835 32.7543 169.586 32.8545 170.334L35.8779 192.879C35.9781 193.626 36.334 194.308 36.8673 194.775C37.4007 195.241 38.0677 195.454 38.7217 195.366L43.6534 194.705C44.3074 194.617 44.8948 194.236 45.2863 193.646C45.6779 193.055 45.8416 192.303 45.7413 191.556L42.7179 169.011Z" fill="white"/>
</g>
<rect x="63.8086" y="250" width="33.4278" height="33.4278" rx="5.29805" transform="rotate(6.54414 63.8086 250)" fill="url(#paint2_linear_9388_8955)"/>
<path d="M67.956 257.864C68.1033 256.58 69.2635 255.658 70.5474 255.806L89.1449 257.939C90.4288 258.086 91.3502 259.247 91.203 260.531L89.0695 279.128C88.9222 280.412 87.762 281.333 86.4781 281.186L67.8806 279.053C66.5967 278.905 65.6753 277.745 65.8225 276.461L67.956 257.864Z" fill="white"/>
<defs>
<linearGradient id="paint0_linear_9388_8955" x1="173.763" y1="41.0463" x2="44.0552" y2="41.962" gradientUnits="userSpaceOnUse">
<stop stop-color="#EEEBF7"/>
<stop offset="1" stop-color="#4F3895"/>
</linearGradient>
<linearGradient id="paint1_linear_9388_8955" x1="86.3701" y1="185.343" x2="-1.44093" y2="185.963" gradientUnits="userSpaceOnUse">
<stop stop-color="#EEEBF7"/>
<stop offset="1" stop-color="#4F3895"/>
</linearGradient>
<linearGradient id="paint2_linear_9388_8955" x1="114.579" y1="266.334" x2="62.9616" y2="266.699" gradientUnits="userSpaceOnUse">
<stop stop-color="#EEEBF7"/>
<stop offset="1" stop-color="#4F3895"/>
</linearGradient>
<clipPath id="clip0_9388_8955">
<rect width="39.807" height="45.4937" fill="white" transform="translate(9.1875 162.055) rotate(-7.63805)"/>
</clipPath>
</defs>
</svg>
