<svg width="69" height="69" viewBox="0 0 69 69" fill="none" xmlns="http://www.w3.org/2000/svg">
<rect y="0.724854" width="68.1387" height="68.1387" rx="6.13698" fill="url(#paint0_linear_230_2402)"/>
<g clip-path="url(#clip0_230_2402)">
<path d="M45.8634 46.5859L54.5653 55.2877M32.4953 52.1349C34.9795 52.1349 37.4394 51.6456 39.7345 50.6949C42.0297 49.7442 44.1151 48.3508 45.8717 46.5942C47.6283 44.8376 49.0218 42.7522 49.9724 40.457C50.9231 38.1619 51.4124 35.702 51.4124 33.2177C51.4124 30.7335 50.9231 28.2736 49.9724 25.9785C49.0218 23.6833 47.6283 21.5979 45.8717 19.8413C44.1151 18.0847 42.0297 16.6913 39.7345 15.7406C37.4394 14.7899 34.9795 14.3006 32.4953 14.3006C27.4781 14.3006 22.6665 16.2936 19.1188 19.8413C15.5712 23.389 13.5781 28.2006 13.5781 33.2177C13.5781 38.2349 15.5712 43.0465 19.1188 46.5942C22.6665 50.1418 27.4781 52.1349 32.4953 52.1349Z" stroke="white" stroke-width="3" stroke-linecap="round" stroke-linejoin="round"/>
<path d="M22.878 34.2519C21.7177 34.0501 21.7177 32.3854 22.878 32.1836C24.931 31.8251 26.8308 30.8637 28.3355 29.4218C29.8403 27.9799 30.8818 26.1229 31.3277 24.0871L31.397 23.7686C31.6492 22.621 33.2793 22.6147 33.541 23.7592L33.6261 24.1312C34.0893 26.1595 35.1419 28.0056 36.6515 29.4373C38.1612 30.8689 40.0604 31.8223 42.1104 32.1773C43.277 32.3823 43.277 34.0533 42.1104 34.2582C40.061 34.6138 38.1624 35.5674 36.6534 36.999C35.1443 38.4306 34.0922 40.2764 33.6292 42.3043L33.5441 42.6763C33.2824 43.8208 31.6524 43.8114 31.4002 42.6669L31.3308 42.3516C30.8859 40.3142 29.8443 38.4555 28.3389 37.0124C26.8335 35.5693 24.9324 34.6103 22.878 34.2519Z" stroke="white" stroke-width="3" stroke-linecap="round" stroke-linejoin="round"/>
</g>
<defs>
<linearGradient id="paint0_linear_230_2402" x1="34.0693" y1="0.724854" x2="34.0693" y2="68.8635" gradientUnits="userSpaceOnUse">
<stop stop-color="#D579CC"/>
<stop offset="1" stop-color="#AC32A0"/>
</linearGradient>
<clipPath id="clip0_230_2402">
<rect width="44.14" height="44.14" fill="white" transform="translate(12 12.7242)"/>
</clipPath>
</defs>
</svg>
