<svg width="69" height="69" viewBox="0 0 69 69" fill="none" xmlns="http://www.w3.org/2000/svg">
<rect width="68.14" height="68.14" rx="6.6208" fill="url(#paint0_linear_230_2375)"/>
<path d="M14.7578 25.1041C14.7578 23.4578 15.4118 21.879 16.5759 20.7149C17.7399 19.5509 19.3188 18.8969 20.965 18.8969H47.1731C48.8194 18.8969 50.3982 19.5509 51.5623 20.7149C52.7263 21.879 53.3803 23.4578 53.3803 25.1041V43.0359C53.3803 44.6822 52.7263 46.261 51.5623 47.4251C50.3982 48.5892 48.8194 49.2431 47.1731 49.2431H20.965C19.3188 49.2431 17.7399 48.5892 16.5759 47.4251C15.4118 46.261 14.7578 44.6822 14.7578 43.0359V25.1041ZM20.965 21.6556C20.0504 21.6556 19.1733 22.0189 18.5266 22.6657C17.8799 23.3124 17.5166 24.1895 17.5166 25.1041V27.1731H50.6216V25.1041C50.6216 24.1895 50.2582 23.3124 49.6115 22.6657C48.9648 22.0189 48.0877 21.6556 47.1731 21.6556H20.965ZM17.5166 43.0359C17.5166 43.9505 17.8799 44.8277 18.5266 45.4744C19.1733 46.1211 20.0504 46.4844 20.965 46.4844H47.1731C48.0877 46.4844 48.9648 46.1211 49.6115 45.4744C50.2582 44.8277 50.6216 43.9505 50.6216 43.0359V29.9319H17.5166V43.0359ZM40.9659 38.2081H45.1041C45.4699 38.2081 45.8207 38.3535 46.0794 38.6121C46.3381 38.8708 46.4834 39.2217 46.4834 39.5875C46.4834 39.9533 46.3381 40.3042 46.0794 40.5629C45.8207 40.8216 45.4699 40.9669 45.1041 40.9669H40.9659C40.6001 40.9669 40.2493 40.8216 39.9906 40.5629C39.7319 40.3042 39.5866 39.9533 39.5866 39.5875C39.5866 39.2217 39.7319 38.8708 39.9906 38.6121C40.2493 38.3535 40.6001 38.2081 40.9659 38.2081Z" fill="white"/>
<defs>
<linearGradient id="paint0_linear_230_2375" x1="34.07" y1="0" x2="34.07" y2="68.14" gradientUnits="userSpaceOnUse">
<stop stop-color="#E87941"/>
<stop offset="1" stop-color="#DE3282"/>
</linearGradient>
</defs>
</svg>
