<svg width="69" height="69" viewBox="0 0 69 69" fill="none" xmlns="http://www.w3.org/2000/svg">
<rect width="68.14" height="68.14" rx="6.4" fill="url(#paint0_linear_230_2381)"/>
<path d="M17.5166 14.7588H14.7578V50.6225C14.7578 51.3542 15.0485 52.0559 15.5658 52.5732C16.0832 53.0906 16.7849 53.3813 17.5166 53.3813H53.3803V50.6225H17.5166V14.7588Z" fill="white"/>
<path d="M53.3823 24.4144H43.7267V27.1731H48.6787L38.2092 37.6426L32.2917 31.7113C32.1635 31.582 32.0109 31.4794 31.8428 31.4093C31.6747 31.3393 31.4944 31.3032 31.3123 31.3032C31.1302 31.3032 30.95 31.3393 30.7819 31.4093C30.6138 31.4794 30.4612 31.582 30.333 31.7113L20.2773 41.7807L22.2223 43.7256L31.3123 34.6355L37.2299 40.5668C37.3581 40.6961 37.5107 40.7988 37.6787 40.8688C37.8468 40.9388 38.0271 40.9749 38.2092 40.9749C38.3913 40.9749 38.5716 40.9388 38.7397 40.8688C38.9078 40.7988 39.0603 40.6961 39.1886 40.5668L50.6236 29.118V34.07H53.3823V24.4144Z" fill="white"/>
<defs>
<linearGradient id="paint0_linear_230_2381" x1="34.07" y1="0" x2="34.07" y2="68.14" gradientUnits="userSpaceOnUse">
<stop stop-color="#BB57EA"/>
<stop offset="1" stop-color="#5E4BF5"/>
</linearGradient>
</defs>
</svg>
