<svg width="30" height="30" viewBox="0 0 30 30" fill="none" xmlns="http://www.w3.org/2000/svg">
<circle cx="15" cy="15" r="15" fill="#3F2AFF"/>
<path fill-rule="evenodd" clip-rule="evenodd" d="M15 6.875C10.5125 6.875 6.875 10.5125 6.875 15C6.875 19.4875 10.5125 23.125 15 23.125C19.4875 23.125 23.125 19.4875 23.125 15C23.125 10.5125 19.4875 6.875 15 6.875ZM10.2183 10.06C9.20416 11.0419 8.51683 12.3122 8.24973 13.6984C7.98262 15.0845 8.14868 16.5193 8.72535 17.8078C9.30201 19.0962 10.2613 20.176 11.473 20.9003C12.6846 21.6246 14.0899 21.9584 15.4978 21.8562C16.9058 21.7541 18.2481 21.2211 19.3426 20.3295C20.4371 19.438 21.2306 18.2311 21.6153 16.8729C22 15.5147 21.9573 14.071 21.493 12.7379C21.0287 11.4048 20.1652 10.247 19.02 9.42167C18.7381 9.87218 18.3638 10.2576 17.9217 10.5525L16.875 11.25L17.0125 11.525C17.0758 11.6516 17.0976 11.7949 17.0749 11.9346C17.0522 12.0743 16.9861 12.2033 16.886 12.3033C16.7858 12.4034 16.6568 12.4693 16.517 12.4919C16.3773 12.5145 16.234 12.4926 16.1075 12.4292L15.6042 12.1775C15.4283 12.0895 15.2292 12.0591 15.0351 12.0905C14.841 12.1219 14.6617 12.2136 14.5225 12.3525L14.4125 12.4617C14.0467 12.8283 14.0467 13.4217 14.4125 13.7875L14.6592 14.0342C14.8725 14.2483 15.1775 14.3458 15.4758 14.2958L16.4508 14.1333C16.72 14.0883 16.9958 14.1633 17.205 14.3375L18.3133 15.2608C18.58 15.4833 18.6967 15.8392 18.6117 16.1775C18.2928 17.4517 17.6338 18.6154 16.705 19.5442L16.1025 20.1475C15.9633 20.2864 15.784 20.3781 15.5899 20.4095C15.3958 20.4409 15.1967 20.4105 15.0208 20.3225L14.8933 20.2592C14.7376 20.1813 14.6067 20.0617 14.5151 19.9136C14.4236 19.7655 14.375 19.5949 14.375 19.4208V18.5133C14.375 18.265 14.2758 18.0258 14.1 17.85L12.9775 16.7275C12.8386 16.5883 12.7469 16.409 12.7155 16.2149C12.6841 16.0208 12.7145 15.8217 12.8025 15.6458L13.125 15L11.7583 13.6333C11.0212 12.8963 10.5329 11.9474 10.3617 10.9192L10.2183 10.06Z" fill="white"/>
</svg>
