<svg width="30" height="30" viewBox="0 0 30 30" fill="none" xmlns="http://www.w3.org/2000/svg">
<circle cx="15" cy="15" r="15" fill="#00895D"/>
<path d="M7.89507 7.0058C7.78676 6.97438 7.67196 6.97284 7.56284 7.00137C7.45373 7.02989 7.35437 7.08741 7.27529 7.16782C7.19621 7.24824 7.14037 7.34855 7.11367 7.45813C7.08698 7.5677 7.09044 7.68246 7.12367 7.79023L9.1526 14.377L16.2493 14.3746C16.415 14.3745 16.574 14.4403 16.6913 14.5575C16.8085 14.6747 16.8744 14.8336 16.8745 14.9994C16.8745 15.1651 16.8087 15.3241 16.6916 15.4414C16.5744 15.5586 16.4155 15.6245 16.2497 15.6246L9.15303 15.627L7.12862 22.2152C7.09566 22.323 7.09243 22.4376 7.11929 22.5471C7.14614 22.6565 7.20208 22.7566 7.28118 22.8369C7.36028 22.9171 7.4596 22.9745 7.56864 23.0029C7.67767 23.0313 7.79235 23.0297 7.90056 22.9983C13.4125 21.3933 18.6099 18.8591 23.2688 15.5047C23.3493 15.4468 23.4149 15.3705 23.4601 15.2823C23.5053 15.194 23.5289 15.0963 23.5289 14.9971C23.5288 14.8979 23.5052 14.8002 23.4599 14.712C23.4146 14.6237 23.349 14.5475 23.2685 14.4897C18.6073 11.1382 13.4082 8.60721 7.89507 7.0058Z" fill="white"/>
</svg>
