<svg width="70" height="70" viewBox="0 0 70 70" fill="none" xmlns="http://www.w3.org/2000/svg">
<rect width="70" height="70" rx="6.4" fill="url(#paint0_linear_7855_16252)"/>
<path d="M39.5462 18.7372C40.0547 18.2162 40.6615 17.8012 41.3315 17.5165C42.0015 17.2317 42.7214 17.0827 43.4494 17.0782C44.1774 17.0737 44.8991 17.2138 45.5726 17.4902C46.2461 17.7667 46.858 18.1741 47.3728 18.6888C47.8877 19.2036 48.2953 19.8154 48.5719 20.4888C48.8486 21.1622 48.9889 21.8838 48.9846 22.6118C48.9803 23.3398 48.8315 24.0597 48.547 24.7298C48.2624 25.3999 47.8476 26.0069 47.3267 26.5155L44.4647 29.3752L44.6582 29.5687C45.0763 29.9866 45.4079 30.4828 45.6342 31.0289C45.8604 31.5749 45.9769 32.1603 45.9769 32.7514C45.9769 33.3425 45.8604 33.9278 45.6342 34.4739C45.4079 35.0199 45.0763 35.5161 44.6582 35.934L41.4182 39.1717C41.206 39.3767 40.9219 39.4901 40.6269 39.4875C40.3319 39.4849 40.0497 39.3666 39.8412 39.158C39.6326 38.9494 39.5143 38.6673 39.5117 38.3723C39.5091 38.0773 39.6225 37.7932 39.8275 37.581L43.0675 34.341C43.4893 33.919 43.7262 33.3468 43.7262 32.7502C43.7262 32.1536 43.4893 31.5814 43.0675 31.1595L42.874 30.966L27.9205 45.9217C27.7757 46.0657 27.5945 46.1676 27.3962 46.2165L18.3962 48.4665C18.2008 48.515 17.9959 48.5102 17.8029 48.4526C17.61 48.3949 17.4361 48.2865 17.2993 48.1387C17.1625 47.9909 17.0679 47.8091 17.0254 47.6123C16.9828 47.4155 16.9939 47.2108 17.0575 47.0197L19.87 38.5822C19.9248 38.4171 20.0172 38.2669 20.14 38.1435L39.5485 18.7372H39.5462ZM45.7337 20.328C45.1241 19.7193 44.2979 19.3774 43.4365 19.3774C42.575 19.3774 41.7488 19.7193 41.1392 20.328L21.9197 39.5452L19.8385 45.7867L26.548 44.1105L45.7337 24.9247C46.3431 24.3151 46.6854 23.4883 46.6854 22.6264C46.6854 21.7644 46.3431 20.9377 45.7337 20.328ZM19.7372 50.451L19.852 50.5365C21.5237 51.7515 24.001 53.0002 27.124 53.0002C28.7957 53.0002 30.328 52.4152 31.6892 51.6412C33.046 50.8672 34.306 49.8637 35.4265 48.9525L35.6897 48.7387C36.7337 47.8882 37.6292 47.1615 38.4527 46.6755C39.3595 46.14 39.9017 46.0725 40.2685 46.194C40.8647 46.392 41.2045 46.8532 41.7962 48.8242C41.992 49.4812 42.343 50.1967 42.856 50.775C43.3712 51.3532 44.1362 51.8775 45.124 51.8775C46.1905 51.8775 47.2457 51.3622 48.0602 50.883C48.598 50.5657 49.174 50.1675 49.642 49.848C49.8737 49.6905 50.0762 49.5487 50.236 49.443C50.839 49.0537 51.3475 48.8017 51.6962 48.6487C51.8695 48.5722 52.0022 48.5205 52.0877 48.4912L52.1777 48.4597L52.1912 48.4552C52.4776 48.3714 52.719 48.1772 52.8623 47.9154C53.0055 47.6535 53.0389 47.3455 52.9551 47.0591C52.8712 46.7727 52.677 46.5313 52.4152 46.388C52.1534 46.2448 51.8454 46.2114 51.559 46.2952H51.5567L51.55 46.2997L51.5342 46.3042L51.487 46.32L51.3295 46.3717C51.1469 46.4372 50.9668 46.5092 50.7895 46.5877C50.172 46.8621 49.5776 47.1856 49.012 47.5552C48.7487 47.7285 48.4945 47.9017 48.2425 48.0772C47.8118 48.3826 47.3698 48.6716 46.9172 48.9435C46.15 49.398 45.5447 49.6252 45.124 49.6252C44.989 49.6252 44.7865 49.5577 44.539 49.2787C44.2684 48.9563 44.0683 48.5807 43.9517 48.1762C43.4117 46.3762 42.8267 44.6752 40.9817 44.0587C39.6587 43.6177 38.3717 44.1105 37.3097 44.736C36.331 45.3142 35.3027 46.1535 34.3015 46.968L34.009 47.2065C32.8795 48.1222 31.75 49.0155 30.5755 49.686C29.4055 50.352 28.2647 50.7502 27.124 50.7502C25.4455 50.7502 23.983 50.3002 22.7725 49.6927L19.7372 50.451Z" fill="white"/>
<defs>
<linearGradient id="paint0_linear_7855_16252" x1="35" y1="0" x2="35" y2="70" gradientUnits="userSpaceOnUse">
<stop stop-color="#FEE609"/>
<stop offset="1" stop-color="#F7A300"/>
</linearGradient>
</defs>
</svg>
