<svg width="69" height="69" viewBox="0 0 69 69" fill="none" xmlns="http://www.w3.org/2000/svg">
<rect width="69" height="69" rx="6.4" fill="url(#paint0_linear_7842_7318)"/>
<path d="M20.4375 41.5313V40.125H17.625V41.5313C17.625 44.142 18.6621 46.6458 20.5082 48.4918C22.3542 50.3379 24.858 51.375 27.4688 51.375H31.6875V48.5625H27.4688C25.6039 48.5625 23.8155 47.8217 22.4969 46.5031C21.1783 45.1845 20.4375 43.3961 20.4375 41.5313ZM45.75 27.4688V28.875H48.5625V27.4688C48.5625 24.858 47.5254 22.3542 45.6793 20.5082C43.8333 18.6621 41.3295 17.625 38.7188 17.625H34.5V20.4375H38.7188C39.6421 20.4375 40.5564 20.6194 41.4095 20.9727C42.2626 21.3261 43.0377 21.844 43.6906 22.4969C44.3435 23.1498 44.8614 23.9249 45.2148 24.778C45.5681 25.6311 45.75 26.5454 45.75 27.4688ZM27.4688 27.4688H19.0312C17.9124 27.4688 16.8393 27.9132 16.0481 28.7044C15.257 29.4956 14.8125 30.5686 14.8125 31.6875V34.5H17.625V31.6875C17.625 31.3145 17.7732 30.9569 18.0369 30.6931C18.3006 30.4294 18.6583 30.2813 19.0312 30.2813H27.4688C27.8417 30.2813 28.1994 30.4294 28.4631 30.6931C28.7268 30.9569 28.875 31.3145 28.875 31.6875V34.5H31.6875V31.6875C31.6875 30.5686 31.243 29.4956 30.4519 28.7044C29.6607 27.9132 28.5876 27.4688 27.4688 27.4688ZM23.25 26.0625C24.3625 26.0625 25.4501 25.7326 26.3751 25.1145C27.3001 24.4964 28.0211 23.6179 28.4468 22.5901C28.8726 21.5623 28.984 20.4313 28.7669 19.3401C28.5499 18.249 28.0141 17.2467 27.2275 16.46C26.4408 15.6734 25.4385 15.1376 24.3474 14.9206C23.2562 14.7035 22.1252 14.8149 21.0974 15.2407C20.0696 15.6664 19.1911 16.3874 18.573 17.3124C17.9549 18.2374 17.625 19.325 17.625 20.4375C17.625 21.9293 18.2176 23.3601 19.2725 24.415C20.3274 25.4699 21.7582 26.0625 23.25 26.0625ZM23.25 17.625C23.8063 17.625 24.35 17.79 24.8125 18.099C25.2751 18.408 25.6355 18.8473 25.8484 19.3612C26.0613 19.8751 26.117 20.4406 26.0085 20.9862C25.8999 21.5318 25.6321 22.0329 25.2387 22.4262C24.8454 22.8196 24.3443 23.0874 23.7987 23.196C23.2531 23.3045 22.6876 23.2488 22.1737 23.0359C21.6598 22.823 21.2205 22.4626 20.9115 22C20.6025 21.5375 20.4375 20.9938 20.4375 20.4375C20.4375 19.6916 20.7338 18.9762 21.2613 18.4488C21.7887 17.9213 22.5041 17.625 23.25 17.625ZM49.9688 47.1563H41.5312C40.4124 47.1563 39.3393 47.6007 38.5481 48.3919C37.757 49.1831 37.3125 50.2561 37.3125 51.375V54.1875H40.125V51.375C40.125 51.002 40.2732 50.6444 40.5369 50.3806C40.8006 50.1169 41.1583 49.9688 41.5312 49.9688H49.9688C50.3417 49.9688 50.6994 50.1169 50.9631 50.3806C51.2268 50.6444 51.375 51.002 51.375 51.375V54.1875H54.1875V51.375C54.1875 50.2561 53.743 49.1831 52.9519 48.3919C52.1607 47.6007 51.0876 47.1563 49.9688 47.1563ZM40.125 40.125C40.125 41.2375 40.4549 42.3251 41.073 43.2501C41.6911 44.1751 42.5696 44.8961 43.5974 45.3218C44.6252 45.7476 45.7562 45.859 46.8474 45.6419C47.9385 45.4249 48.9408 44.8891 49.7275 44.1025C50.5141 43.3158 51.0499 42.3135 51.2669 41.2224C51.484 40.1312 51.3726 39.0002 50.9468 37.9724C50.5211 36.9446 49.8001 36.0661 48.8751 35.448C47.9501 34.8299 46.8625 34.5 45.75 34.5C44.2582 34.5 42.8274 35.0926 41.7725 36.1475C40.7176 37.2024 40.125 38.6332 40.125 40.125ZM48.5625 40.125C48.5625 40.6813 48.3975 41.225 48.0885 41.6875C47.7795 42.1501 47.3402 42.5105 46.8263 42.7234C46.3124 42.9363 45.7469 42.992 45.2013 42.8835C44.6557 42.7749 44.1546 42.5071 43.7613 42.1137C43.3679 41.7204 43.1001 41.2193 42.9915 40.6737C42.883 40.1281 42.9387 39.5626 43.1516 39.0487C43.3645 38.5348 43.7249 38.0955 44.1875 37.7865C44.65 37.4775 45.1937 37.3125 45.75 37.3125C46.4959 37.3125 47.2113 37.6088 47.7387 38.1363C48.2662 38.6637 48.5625 39.3791 48.5625 40.125Z" fill="white"/>
<defs>
<linearGradient id="paint0_linear_7842_7318" x1="34.5" y1="0" x2="34.5" y2="69" gradientUnits="userSpaceOnUse">
<stop stop-color="#09A6FE"/>
<stop offset="1" stop-color="#0054F7"/>
</linearGradient>
</defs>
</svg>
