<svg width="70" height="70" viewBox="0 0 70 70" fill="none" xmlns="http://www.w3.org/2000/svg">
<rect width="70" height="70" rx="6.13698" fill="url(#paint0_linear_7842_7297)"/>
<path d="M32.3906 40.2263C31.698 40.2263 31.0337 39.9511 30.5439 39.4614C30.0542 38.9716 29.779 38.3073 29.779 37.6147V22.1618C25.9137 22.8271 22.4382 24.9173 20.0386 28.0199C17.6391 31.1224 16.4899 35.0118 16.8178 38.9203C17.1458 42.8287 18.9271 46.4722 21.8102 49.1315C24.6932 51.7907 28.4685 53.2725 32.3906 53.2843C36.0938 53.2838 39.6772 51.9723 42.5058 49.5821C45.3343 47.1919 47.2253 43.8775 47.8435 40.2263H32.3906ZM29.7869 19.5162C31.2154 19.3125 32.3906 20.5034 32.3906 21.945V37.6147H48.0603C49.5019 37.6147 50.6928 38.7899 50.4891 40.2184C49.8199 44.7854 47.4484 48.9304 43.8505 51.8216C40.2525 54.7129 35.6943 56.1367 31.0903 55.8071C26.4864 55.4776 22.1774 53.4193 19.0278 50.045C15.8783 46.6708 14.1213 42.2304 14.1094 37.6147C14.1096 33.217 15.6946 28.9667 18.574 25.6427C21.4534 22.3187 25.4342 20.1437 29.7869 19.5162ZM37.6138 32.3915V16.7218C41.7697 16.7218 45.7553 18.3727 48.6939 21.3114C51.6326 24.25 53.2835 28.2356 53.2835 32.3915H37.6138ZM53.4454 35.0031C54.746 35.0031 55.8664 34.0472 55.8925 32.7466L55.8951 32.3915C55.8952 29.9608 55.4106 27.5545 54.4696 25.3133C53.5286 23.0722 52.1501 21.0412 50.4147 19.3392C48.6794 17.6371 46.6221 16.2983 44.3631 15.4009C42.1041 14.5035 39.6889 14.0656 37.2587 14.1128C35.9581 14.1389 35.0022 15.2619 35.0022 16.5599V32.3915C35.0022 33.0841 35.2774 33.7484 35.7672 34.2381C36.2569 34.7279 36.9212 35.0031 37.6138 35.0031H53.4454Z" fill="white"/>
<defs>
<linearGradient id="paint0_linear_7842_7297" x1="35" y1="0" x2="35" y2="70" gradientUnits="userSpaceOnUse">
<stop stop-color="#71B1CD"/>
<stop offset="1" stop-color="#3287AC"/>
</linearGradient>
</defs>
</svg>
