<svg width="20" height="21" viewBox="0 0 20 21" fill="none" xmlns="http://www.w3.org/2000/svg">
<g id="MagnifyingGlass">
<path id="Vector" d="M17.9595 17.5751L14.0477 13.6641C15.1815 12.303 15.7469 10.5571 15.6262 8.78972C15.5055 7.02233 14.7081 5.3695 13.3999 4.17506C12.0916 2.98062 10.3732 2.33653 8.60219 2.37678C6.83115 2.41703 5.1438 3.13852 3.89116 4.39116C2.63852 5.6438 1.91703 7.33115 1.87678 9.10219C1.83653 10.8732 2.48062 12.5916 3.67506 13.8999C4.8695 15.2081 6.52233 16.0055 8.28972 16.1262C10.0571 16.2469 11.803 15.6815 13.1641 14.5477L17.0751 18.4595C17.1332 18.5175 17.2021 18.5636 17.278 18.595C17.3538 18.6264 17.4351 18.6426 17.5173 18.6426C17.5994 18.6426 17.6807 18.6264 17.7566 18.595C17.8324 18.5636 17.9014 18.5175 17.9595 18.4595C18.0175 18.4014 18.0636 18.3324 18.095 18.2566C18.1264 18.1807 18.1426 18.0994 18.1426 18.0173C18.1426 17.9351 18.1264 17.8538 18.095 17.778C18.0636 17.7021 18.0175 17.6332 17.9595 17.5751ZM3.14227 9.26727C3.14227 8.15475 3.47217 7.06721 4.09025 6.14219C4.70833 5.21716 5.58684 4.49619 6.61467 4.07045C7.64251 3.6447 8.77351 3.53331 9.86465 3.75035C10.9558 3.96739 11.9581 4.50312 12.7447 5.28979C13.5314 6.07646 14.0671 7.07874 14.2842 8.16989C14.5012 9.26103 14.3898 10.392 13.9641 11.4199C13.5383 12.4477 12.8174 13.3262 11.8924 13.9443C10.9673 14.5624 9.87979 14.8923 8.76727 14.8923C7.27593 14.8906 5.84615 14.2975 4.79162 13.2429C3.73709 12.1884 3.14392 10.7586 3.14227 9.26727Z" fill="#404040"/>
</g>
</svg>
