<svg width="484" height="280" viewBox="0 0 484 280" fill="none" xmlns="http://www.w3.org/2000/svg">
<path fill-rule="evenodd" clip-rule="evenodd" d="M299.317 246.303C249.346 281.951 189.851 278.182 145.99 252.607C101.393 226.602 71.0784 179.878 92.1405 125.497C114.272 68.3542 174.782 29.1823 235.876 20.5248C300.865 11.3153 366.102 28.9695 381.695 84.4645C397.382 140.29 356.448 205.549 299.317 246.303Z" fill="#FCF7FF"/>
<g filter="url(#filter0_dd_5186_13086)">
<rect x="26" y="14" width="348.849" height="116.502" rx="4.67853" fill="white" shape-rendering="crispEdges"/>
<rect x="49.3926" y="33.4492" width="33.5349" height="13.5349" rx="3.26745" fill="#4F3895"/>
<path d="M58.9004 36.9097V43.7148H57.9567L54.4977 38.724H54.4345V43.7148H53.4078V36.9097H54.3581L57.8205 41.9072H57.8836V36.9097H58.9004ZM61.8037 43.8278C61.4803 43.8278 61.1879 43.768 60.9265 43.6484C60.6651 43.5266 60.458 43.3504 60.3051 43.1201C60.1545 42.8897 60.0792 42.6072 60.0792 42.2727C60.0792 41.9848 60.1346 41.7477 60.2453 41.5617C60.3561 41.3756 60.5056 41.2283 60.6939 41.1197C60.8822 41.0112 61.0926 40.9292 61.3252 40.8738C61.5578 40.8185 61.7949 40.7764 62.0363 40.7476C62.342 40.7121 62.5901 40.6833 62.7806 40.6612C62.9711 40.6368 63.1096 40.598 63.196 40.5449C63.2824 40.4917 63.3256 40.4053 63.3256 40.2857V40.2624C63.3256 39.9722 63.2436 39.7474 63.0797 39.5879C62.918 39.4284 62.6765 39.3487 62.3553 39.3487C62.0208 39.3487 61.7572 39.4229 61.5645 39.5713C61.374 39.7175 61.2422 39.8803 61.1691 40.0597L60.2353 39.8471C60.3461 39.537 60.5078 39.2866 60.7205 39.0961C60.9354 38.9034 61.1824 38.7638 61.4615 38.6775C61.7406 38.5888 62.0341 38.5445 62.342 38.5445C62.5458 38.5445 62.7618 38.5689 62.99 38.6176C63.2203 38.6642 63.4352 38.7506 63.6346 38.8768C63.8362 39.0031 64.0012 39.1836 64.1297 39.4184C64.2582 39.651 64.3224 39.9534 64.3224 40.3256V43.7148H63.3522V43.0171H63.3123C63.248 43.1455 63.1517 43.2718 63.0232 43.3959C62.8947 43.5199 62.7297 43.6229 62.5281 43.7049C62.3265 43.7868 62.085 43.8278 61.8037 43.8278ZM62.0197 43.0303C62.2944 43.0303 62.5292 42.9761 62.7241 42.8675C62.9213 42.759 63.0708 42.6172 63.1727 42.4422C63.2768 42.265 63.3289 42.0756 63.3289 41.874V41.2161C63.2934 41.2515 63.2248 41.2848 63.1229 41.3158C63.0232 41.3446 62.9091 41.37 62.7806 41.3922C62.6521 41.4121 62.527 41.431 62.4051 41.4487C62.2833 41.4642 62.1814 41.4775 62.0994 41.4886C61.9067 41.5129 61.7306 41.5539 61.5711 41.6115C61.4138 41.6691 61.2876 41.7522 61.1923 41.8607C61.0993 41.967 61.0528 42.1088 61.0528 42.286C61.0528 42.5319 61.1436 42.718 61.3252 42.8443C61.5069 42.9683 61.7384 43.0303 62.0197 43.0303ZM65.6457 43.7148V38.611H66.5994V39.4417H66.6625C66.7688 39.1604 66.9427 38.9411 67.1842 38.7838C67.4256 38.6243 67.7147 38.5445 68.0514 38.5445C68.3926 38.5445 68.6783 38.6243 68.9087 38.7838C69.1413 38.9433 69.313 39.1626 69.4238 39.4417H69.4769C69.5988 39.1692 69.7926 38.9521 70.0584 38.7904C70.3243 38.6265 70.641 38.5445 71.0088 38.5445C71.4717 38.5445 71.8494 38.6896 72.1418 38.9798C72.4365 39.27 72.5838 39.7075 72.5838 40.2923V43.7148H71.5902V40.3854C71.5902 40.0398 71.4961 39.7895 71.3078 39.6344C71.1195 39.4794 70.8947 39.4018 70.6333 39.4018C70.3099 39.4018 70.0584 39.5015 69.879 39.7009C69.6996 39.898 69.6098 40.1517 69.6098 40.4618V43.7148H68.6196V40.3222C68.6196 40.0453 68.5333 39.8227 68.3605 39.6544C68.1877 39.486 67.9628 39.4018 67.6859 39.4018C67.4976 39.4018 67.3237 39.4517 67.1643 39.5514C67.007 39.6488 66.8796 39.7851 66.7821 39.9601C66.6869 40.1351 66.6392 40.3378 66.6392 40.5681V43.7148H65.6457ZM76.1151 43.8179C75.6122 43.8179 75.1792 43.7104 74.8159 43.4955C74.4548 43.2784 74.1757 42.9739 73.9785 42.5818C73.7836 42.1875 73.6861 41.7256 73.6861 41.1961C73.6861 40.6734 73.7836 40.2126 73.9785 39.8139C74.1757 39.4151 74.4504 39.1039 74.8026 38.8801C75.157 38.6564 75.5713 38.5445 76.0453 38.5445C76.3333 38.5445 76.6124 38.5922 76.8827 38.6874C77.1529 38.7827 77.3955 38.9322 77.6104 39.136C77.8252 39.3398 77.9947 39.6045 78.1187 39.9302C78.2428 40.2536 78.3048 40.6468 78.3048 41.1098V41.462H74.2477V40.7177H77.3312C77.3312 40.4563 77.2781 40.2248 77.1717 40.0232C77.0654 39.8194 76.9159 39.6588 76.7232 39.5414C76.5327 39.424 76.3089 39.3653 76.052 39.3653C75.7728 39.3653 75.5292 39.4339 75.3209 39.5713C75.1149 39.7064 74.9554 39.8836 74.8425 40.1029C74.7317 40.32 74.6763 40.556 74.6763 40.8107V41.3922C74.6763 41.7333 74.7361 42.0235 74.8557 42.2628C74.9776 42.502 75.147 42.6848 75.3641 42.811C75.5812 42.9351 75.8349 42.9971 76.1251 42.9971C76.3134 42.9971 76.485 42.9705 76.6401 42.9174C76.7952 42.862 76.9292 42.78 77.0422 42.6715C77.1551 42.5629 77.2415 42.4289 77.3013 42.2694L78.2417 42.4389C78.1664 42.7158 78.0312 42.9583 77.8363 43.1666C77.6436 43.3726 77.401 43.5332 77.1086 43.6484C76.8184 43.7614 76.4872 43.8179 76.1151 43.8179Z" fill="white"/>
<path d="M86.9585 41.7845L86.9087 42.1466C86.8754 42.4125 86.819 42.6894 86.7392 42.9773C86.6617 43.2675 86.5808 43.5367 86.4966 43.7848C86.4147 44.0329 86.3471 44.23 86.2939 44.3763H85.5895C85.6183 44.2389 85.6582 44.0528 85.7091 43.818C85.7601 43.5854 85.8099 43.3251 85.8587 43.0372C85.9074 42.7492 85.9439 42.4557 85.9683 42.1566L86.0015 41.7845H86.9585ZM91.8347 42.7148L90.3328 37.611H91.3596L92.3597 41.3591H92.4096L93.4131 37.611H94.4398L95.4367 41.3425H95.4865L96.48 37.611H97.5068L96.0082 42.7148H94.9947L93.958 39.0298H93.8816L92.8449 42.7148H91.8347ZM99.4432 39.6844V42.7148H98.4496V35.9097H99.4299V38.4417H99.493C99.6126 38.167 99.7954 37.9488 100.041 37.7871C100.287 37.6254 100.608 37.5445 101.005 37.5445C101.355 37.5445 101.661 37.6165 101.922 37.7605C102.186 37.9045 102.389 38.1194 102.533 38.4051C102.68 38.6887 102.753 39.0431 102.753 39.4685V42.7148H101.759V39.5881C101.759 39.2137 101.663 38.9235 101.47 38.7175C101.277 38.5093 101.009 38.4051 100.666 38.4051C100.431 38.4051 100.221 38.455 100.035 38.5547C99.8508 38.6544 99.7057 38.8006 99.5993 38.9933C99.4952 39.1838 99.4432 39.4142 99.4432 39.6844ZM105.564 42.8278C105.24 42.8278 104.948 42.768 104.687 42.6484C104.425 42.5266 104.218 42.3504 104.065 42.1201C103.915 41.8897 103.839 41.6072 103.839 41.2727C103.839 40.9848 103.895 40.7477 104.005 40.5617C104.116 40.3756 104.266 40.2283 104.454 40.1197C104.642 40.0112 104.853 39.9292 105.085 39.8738C105.318 39.8185 105.555 39.7764 105.796 39.7476C106.102 39.7121 106.35 39.6833 106.541 39.6612C106.731 39.6368 106.87 39.598 106.956 39.5449C107.042 39.4917 107.086 39.4053 107.086 39.2857V39.2624C107.086 38.9722 107.004 38.7474 106.84 38.5879C106.678 38.4284 106.437 38.3487 106.115 38.3487C105.781 38.3487 105.517 38.4229 105.325 38.5713C105.134 38.7175 105.002 38.8803 104.929 39.0597L103.995 38.8471C104.106 38.537 104.268 38.2866 104.481 38.0961C104.695 37.9034 104.942 37.7638 105.222 37.6775C105.501 37.5888 105.794 37.5445 106.102 37.5445C106.306 37.5445 106.522 37.5689 106.75 37.6176C106.98 37.6642 107.195 37.7506 107.395 37.8768C107.596 38.0031 107.761 38.1836 107.89 38.4184C108.018 38.651 108.082 38.9534 108.082 39.3256V42.7148H107.112V42.0171H107.072C107.008 42.1455 106.912 42.2718 106.783 42.3959C106.655 42.5199 106.49 42.6229 106.288 42.7049C106.087 42.7868 105.845 42.8278 105.564 42.8278ZM105.78 42.0303C106.054 42.0303 106.289 41.9761 106.484 41.8675C106.681 41.759 106.831 41.6172 106.933 41.4422C107.037 41.265 107.089 41.0756 107.089 40.874V40.2161C107.054 40.2515 106.985 40.2848 106.883 40.3158C106.783 40.3446 106.669 40.37 106.541 40.3922C106.412 40.4121 106.287 40.431 106.165 40.4487C106.043 40.4642 105.941 40.4775 105.86 40.4886C105.667 40.5129 105.491 40.5539 105.331 40.6115C105.174 40.6691 105.048 40.7522 104.952 40.8607C104.859 40.967 104.813 41.1088 104.813 41.286C104.813 41.5319 104.904 41.718 105.085 41.8443C105.267 41.9683 105.498 42.0303 105.78 42.0303ZM111.788 37.611V38.4085H109V37.611H111.788ZM109.748 36.3882H110.742V41.2163C110.742 41.409 110.77 41.5541 110.828 41.6515C110.886 41.7468 110.96 41.8121 111.051 41.8476C111.144 41.8808 111.244 41.8974 111.353 41.8974C111.433 41.8974 111.502 41.8919 111.562 41.8808C111.622 41.8697 111.669 41.8609 111.702 41.8542L111.881 42.675C111.824 42.6971 111.742 42.7193 111.635 42.7414C111.529 42.7658 111.396 42.7791 111.237 42.7813C110.975 42.7857 110.732 42.7392 110.506 42.6417C110.28 42.5443 110.097 42.3936 109.957 42.1898C109.818 41.986 109.748 41.7302 109.748 41.4223V36.3882ZM113.997 35.9097V36.5477C113.997 36.736 113.962 36.9342 113.891 37.1425C113.822 37.3485 113.725 37.5468 113.598 37.7373C113.472 37.9278 113.324 38.0917 113.153 38.229L112.661 37.8768C112.792 37.6863 112.905 37.4836 113 37.2687C113.098 37.0539 113.146 36.8168 113.146 36.5577V35.9097H113.997ZM118.137 38.8571L117.237 39.0165C117.199 38.9014 117.139 38.7917 117.057 38.6876C116.978 38.5835 116.869 38.4982 116.732 38.4317C116.594 38.3653 116.423 38.332 116.217 38.332C115.935 38.332 115.701 38.3952 115.512 38.5214C115.324 38.6455 115.23 38.8061 115.23 39.0033C115.23 39.1738 115.293 39.3112 115.419 39.4153C115.546 39.5194 115.749 39.6047 116.031 39.6711L116.841 39.8572C117.311 39.9658 117.661 40.133 117.891 40.359C118.122 40.5849 118.237 40.8784 118.237 41.2395C118.237 41.5452 118.148 41.8177 117.971 42.0569C117.796 42.294 117.551 42.48 117.237 42.6152C116.925 42.7503 116.562 42.8179 116.15 42.8179C115.579 42.8179 115.112 42.696 114.751 42.4523C114.39 42.2065 114.169 41.8576 114.087 41.4057L115.047 41.2594C115.107 41.5098 115.23 41.6992 115.416 41.8277C115.602 41.9539 115.845 42.0171 116.144 42.0171C116.469 42.0171 116.73 41.9495 116.925 41.8144C117.119 41.677 117.217 41.5098 117.217 41.3126C117.217 41.1531 117.157 41.0191 117.037 40.9106C116.92 40.802 116.74 40.72 116.496 40.6647L115.632 40.4753C115.156 40.3667 114.803 40.1939 114.575 39.9569C114.349 39.7199 114.236 39.4197 114.236 39.0564C114.236 38.7552 114.321 38.4915 114.489 38.2656C114.657 38.0396 114.89 37.8635 115.187 37.7373C115.484 37.6088 115.824 37.5445 116.207 37.5445C116.758 37.5445 117.193 37.6642 117.509 37.9034C117.826 38.1404 118.035 38.4583 118.137 38.8571ZM122.434 44.6288C122.285 44.6288 122.15 44.6166 122.028 44.5922C121.907 44.5701 121.816 44.5457 121.756 44.5191L121.995 43.705C122.177 43.7538 122.338 43.7748 122.48 43.7682C122.622 43.7615 122.747 43.7084 122.856 43.6087C122.966 43.509 123.064 43.3462 123.148 43.1202L123.271 42.7813L121.404 37.611H122.467L123.76 41.5718H123.813L125.105 37.611H126.172L124.069 43.396C123.971 43.6618 123.847 43.8867 123.696 44.0706C123.546 44.2566 123.366 44.3962 123.158 44.4892C122.95 44.5823 122.708 44.6288 122.434 44.6288ZM129.082 42.8179C128.603 42.8179 128.186 42.7082 127.829 42.4889C127.473 42.2696 127.196 41.9628 126.998 41.5685C126.801 41.1742 126.703 40.7134 126.703 40.1862C126.703 39.6567 126.801 39.1938 126.998 38.7972C127.196 38.4007 127.473 38.0928 127.829 37.8735C128.186 37.6542 128.603 37.5445 129.082 37.5445C129.56 37.5445 129.978 37.6542 130.335 37.8735C130.691 38.0928 130.968 38.4007 131.165 38.7972C131.362 39.1938 131.461 39.6567 131.461 40.1862C131.461 40.7134 131.362 41.1742 131.165 41.5685C130.968 41.9628 130.691 42.2696 130.335 42.4889C129.978 42.7082 129.56 42.8179 129.082 42.8179ZM129.085 41.9838C129.395 41.9838 129.652 41.9019 129.856 41.7379C130.06 41.574 130.211 41.3558 130.308 41.0833C130.408 40.8109 130.458 40.5107 130.458 40.1829C130.458 39.8572 130.408 39.5582 130.308 39.2857C130.211 39.011 130.06 38.7906 129.856 38.6245C129.652 38.4583 129.395 38.3752 129.085 38.3752C128.773 38.3752 128.514 38.4583 128.308 38.6245C128.104 38.7906 127.952 39.011 127.852 39.2857C127.755 39.5582 127.706 39.8572 127.706 40.1829C127.706 40.5107 127.755 40.8109 127.852 41.0833C127.952 41.3558 128.104 41.574 128.308 41.7379C128.514 41.9019 128.773 41.9838 129.085 41.9838ZM135.803 40.5982V37.611H136.8V42.7148H135.823V41.831H135.77C135.652 42.1034 135.464 42.3305 135.205 42.5122C134.948 42.6916 134.628 42.7813 134.245 42.7813C133.917 42.7813 133.627 42.7093 133.374 42.5653C133.124 42.4191 132.927 42.2031 132.783 41.9174C132.641 41.6316 132.57 41.2783 132.57 40.8574V37.611H133.564V40.7378C133.564 41.0856 133.66 41.3625 133.853 41.5685C134.045 41.7745 134.296 41.8775 134.604 41.8775C134.79 41.8775 134.975 41.831 135.158 41.7379C135.345 41.6449 135.498 41.5042 135.62 41.3159C135.744 41.1276 135.805 40.8884 135.803 40.5982ZM138.135 42.7148V37.611H139.095V38.4218H139.148C139.241 38.1471 139.405 37.9311 139.64 37.7738C139.877 37.6143 140.145 37.5346 140.444 37.5346C140.506 37.5346 140.579 37.5368 140.664 37.5412C140.75 37.5456 140.817 37.5512 140.866 37.5578V38.5082C140.826 38.4971 140.755 38.4849 140.654 38.4716C140.552 38.4561 140.45 38.4483 140.348 38.4483C140.113 38.4483 139.904 38.4982 139.72 38.5979C139.538 38.6953 139.394 38.8316 139.288 39.0066C139.182 39.1794 139.128 39.3765 139.128 39.598V42.7148H138.135ZM145.688 42.8278C145.364 42.8278 145.072 42.768 144.81 42.6484C144.549 42.5266 144.342 42.3504 144.189 42.1201C144.038 41.8897 143.963 41.6072 143.963 41.2727C143.963 40.9848 144.018 40.7477 144.129 40.5617C144.24 40.3756 144.39 40.2283 144.578 40.1197C144.766 40.0112 144.977 39.9292 145.209 39.8738C145.442 39.8185 145.679 39.7764 145.92 39.7476C146.226 39.7121 146.474 39.6833 146.665 39.6612C146.855 39.6368 146.994 39.598 147.08 39.5449C147.166 39.4917 147.209 39.4053 147.209 39.2857V39.2624C147.209 38.9722 147.128 38.7474 146.964 38.5879C146.802 38.4284 146.56 38.3487 146.239 38.3487C145.905 38.3487 145.641 38.4229 145.448 38.5713C145.258 38.7175 145.126 38.8803 145.053 39.0597L144.119 38.8471C144.23 38.537 144.392 38.2866 144.604 38.0961C144.819 37.9034 145.066 37.7638 145.345 37.6775C145.625 37.5888 145.918 37.5445 146.226 37.5445C146.43 37.5445 146.646 37.5689 146.874 37.6176C147.104 37.6642 147.319 37.7506 147.519 37.8768C147.72 38.0031 147.885 38.1836 148.014 38.4184C148.142 38.651 148.206 38.9534 148.206 39.3256V42.7148H147.236V42.0171H147.196C147.132 42.1455 147.036 42.2718 146.907 42.3959C146.779 42.5199 146.614 42.6229 146.412 42.7049C146.21 42.7868 145.969 42.8278 145.688 42.8278ZM145.904 42.0303C146.178 42.0303 146.413 41.9761 146.608 41.8675C146.805 41.759 146.955 41.6172 147.057 41.4422C147.161 41.265 147.213 41.0756 147.213 40.874V40.2161C147.177 40.2515 147.109 40.2848 147.007 40.3158C146.907 40.3446 146.793 40.37 146.665 40.3922C146.536 40.4121 146.411 40.431 146.289 40.4487C146.167 40.4642 146.065 40.4775 145.983 40.4886C145.791 40.5129 145.615 40.5539 145.455 40.6115C145.298 40.6691 145.171 40.7522 145.076 40.8607C144.983 40.967 144.937 41.1088 144.937 41.286C144.937 41.5319 145.028 41.718 145.209 41.8443C145.391 41.9683 145.622 42.0303 145.904 42.0303ZM151.67 44.7351C151.264 44.7351 150.915 44.682 150.623 44.5756C150.333 44.4693 150.096 44.3286 149.912 44.1536C149.728 43.9786 149.591 43.787 149.5 43.5788L150.354 43.2266C150.414 43.324 150.493 43.427 150.593 43.5356C150.695 43.6463 150.832 43.7405 151.005 43.818C151.18 43.8956 151.405 43.9343 151.68 43.9343C152.056 43.9343 152.367 43.8424 152.613 43.6585C152.859 43.4769 152.982 43.1867 152.982 42.7879V41.7845H152.919C152.859 41.893 152.773 42.0137 152.66 42.1466C152.549 42.2796 152.396 42.3947 152.201 42.4922C152.006 42.5897 151.753 42.6384 151.44 42.6384C151.037 42.6384 150.674 42.5443 150.35 42.356C150.029 42.1655 149.774 41.8852 149.586 41.5153C149.4 41.1432 149.307 40.6857 149.307 40.143C149.307 39.6003 149.399 39.1351 149.583 38.7474C149.769 38.3597 150.024 38.0629 150.347 37.8569C150.67 37.6487 151.037 37.5445 151.447 37.5445C151.764 37.5445 152.02 37.5977 152.214 37.704C152.409 37.8082 152.561 37.93 152.67 38.0695C152.78 38.2091 152.866 38.332 152.926 38.4384H152.999V37.611H153.972V42.8278C153.972 43.2664 153.87 43.6264 153.667 43.9077C153.463 44.1891 153.187 44.3973 152.839 44.5324C152.494 44.6676 152.104 44.7351 151.67 44.7351ZM151.66 41.8144C151.945 41.8144 152.187 41.7479 152.384 41.615C152.583 41.4799 152.734 41.2871 152.836 41.0368C152.94 40.7843 152.992 40.4819 152.992 40.1297C152.992 39.7863 152.941 39.484 152.839 39.2226C152.737 38.9612 152.588 38.7574 152.391 38.6112C152.193 38.4627 151.95 38.3885 151.66 38.3885C151.361 38.3885 151.111 38.4661 150.912 38.6211C150.713 38.774 150.562 38.9822 150.46 39.2458C150.36 39.5094 150.311 39.8041 150.311 40.1297C150.311 40.4642 150.361 40.7577 150.463 41.0102C150.565 41.2628 150.716 41.4599 150.915 41.6017C151.117 41.7435 151.365 41.8144 151.66 41.8144ZM157.504 42.8179C157.002 42.8179 156.568 42.7104 156.205 42.4955C155.844 42.2784 155.565 41.9739 155.368 41.5818C155.173 41.1875 155.075 40.7256 155.075 40.1961C155.075 39.6734 155.173 39.2126 155.368 38.8139C155.565 38.4151 155.84 38.1039 156.192 37.8801C156.546 37.6564 156.961 37.5445 157.435 37.5445C157.723 37.5445 158.002 37.5922 158.272 37.6874C158.542 37.7827 158.785 37.9322 159 38.136C159.215 38.3398 159.384 38.6045 159.508 38.9302C159.632 39.2536 159.694 39.6468 159.694 40.1098V40.462H155.637V39.7177H158.721C158.721 39.4563 158.667 39.2248 158.561 39.0232C158.455 38.8194 158.305 38.6588 158.112 38.5414C157.922 38.424 157.698 38.3653 157.441 38.3653C157.162 38.3653 156.918 38.4339 156.71 38.5713C156.504 38.7064 156.345 38.8836 156.232 39.1029C156.121 39.32 156.066 39.556 156.066 39.8107V40.3922C156.066 40.7333 156.125 41.0235 156.245 41.2628C156.367 41.502 156.536 41.6848 156.753 41.811C156.971 41.9351 157.224 41.9971 157.514 41.9971C157.703 41.9971 157.874 41.9705 158.029 41.9174C158.184 41.862 158.318 41.78 158.431 41.6715C158.544 41.5629 158.631 41.4289 158.691 41.2694L159.631 41.4389C159.556 41.7158 159.421 41.9583 159.226 42.1666C159.033 42.3726 158.79 42.5332 158.498 42.6484C158.208 42.7614 157.877 42.8179 157.504 42.8179ZM161.883 40.7577V40.6946C161.887 40.2825 161.928 39.9547 162.006 39.711C162.086 39.4673 162.199 39.2702 162.345 39.1196C162.491 38.9689 162.667 38.8316 162.873 38.7075C163.006 38.6233 163.126 38.5292 163.232 38.4251C163.338 38.321 163.423 38.2014 163.485 38.0662C163.547 37.9311 163.578 37.7816 163.578 37.6176C163.578 37.4205 163.531 37.2499 163.438 37.1059C163.345 36.9619 163.221 36.8512 163.066 36.7736C162.913 36.6939 162.743 36.654 162.554 36.654C162.384 36.654 162.221 36.6895 162.066 36.7604C161.911 36.8312 161.782 36.942 161.68 37.0926C161.578 37.2411 161.52 37.4327 161.504 37.6675H160.494C160.51 37.2687 160.61 36.932 160.796 36.6573C160.983 36.3804 161.228 36.1711 161.534 36.0293C161.842 35.8876 162.182 35.8167 162.554 35.8167C162.962 35.8167 163.319 35.8931 163.624 36.0459C163.93 36.1966 164.167 36.4081 164.335 36.6806C164.506 36.9509 164.591 37.2665 164.591 37.6276C164.591 37.8757 164.552 38.0995 164.475 38.2988C164.397 38.496 164.287 38.6721 164.143 38.8271C164.001 38.9822 163.83 39.1196 163.631 39.2392C163.443 39.3566 163.29 39.4784 163.172 39.6047C163.057 39.731 162.973 39.8805 162.92 40.0533C162.867 40.2261 162.838 40.4398 162.833 40.6946V40.7577H161.883ZM162.385 42.778C162.203 42.778 162.047 42.7137 161.916 42.5853C161.786 42.4546 161.72 42.2973 161.72 42.1134C161.72 41.9318 161.786 41.7767 161.916 41.6482C162.047 41.5175 162.203 41.4522 162.385 41.4522C162.564 41.4522 162.719 41.5175 162.85 41.6482C162.983 41.7767 163.049 41.9318 163.049 42.1134C163.049 42.2353 163.018 42.3471 162.956 42.449C162.897 42.5487 162.817 42.6285 162.717 42.6883C162.617 42.7481 162.507 42.778 162.385 42.778Z" fill="#333333"/>
<rect x="50.2094" y="50.7505" width="300.43" height="24.5055" rx="2.45059" fill="#F7F7F7"/>
<rect x="50.2094" y="50.7505" width="300.43" height="24.5055" rx="2.45059" stroke="#EFEFEF" stroke-width="1.63372"/>
<path d="M64.0989 102.109V95.3042H66.6509C67.1737 95.3042 67.6123 95.4017 67.9667 95.5967C68.3234 95.7916 68.5925 96.0596 68.7741 96.4008C68.958 96.7397 69.0499 97.1251 69.0499 97.5571C69.0499 97.9935 68.958 98.3812 68.7741 98.7201C68.5903 99.059 68.3189 99.326 67.9601 99.5209C67.6012 99.7136 67.1593 99.81 66.6343 99.81H64.9429V98.7965H66.4681C66.7738 98.7965 67.0241 98.7434 67.2191 98.637C67.414 98.5307 67.558 98.3845 67.651 98.1984C67.7463 98.0123 67.7939 97.7986 67.7939 97.5571C67.7939 97.3157 67.7463 97.103 67.651 96.9191C67.558 96.7353 67.4129 96.5924 67.2157 96.4905C67.0208 96.3864 66.7694 96.3343 66.4615 96.3343H65.3317V102.109H64.0989ZM70.0676 102.109V97.0055H71.2339V97.8562H71.287C71.3801 97.5615 71.5396 97.3345 71.7655 97.175C71.9937 97.0133 72.254 96.9324 72.5464 96.9324C72.6128 96.9324 72.687 96.9357 72.769 96.9424C72.8532 96.9468 72.923 96.9546 72.9783 96.9657V98.0722C72.9274 98.0544 72.8465 98.0389 72.7358 98.0256C72.6272 98.0101 72.522 98.0024 72.4201 98.0024C72.2008 98.0024 72.0036 98.05 71.8286 98.1453C71.6559 98.2383 71.5196 98.3679 71.4199 98.534C71.3203 98.7002 71.2704 98.8918 71.2704 99.1089V102.109H70.0676ZM75.8268 102.209C75.3151 102.209 74.8732 102.103 74.501 101.89C74.1311 101.675 73.8464 101.372 73.6471 100.98C73.4477 100.585 73.348 100.121 73.348 99.5874C73.348 99.0624 73.4477 98.6016 73.6471 98.2051C73.8486 97.8063 74.13 97.4962 74.4911 97.2747C74.8521 97.0509 75.2763 96.9391 75.7637 96.9391C76.0783 96.9391 76.3751 96.99 76.6542 97.0919C76.9355 97.1916 77.1836 97.3467 77.3985 97.5571C77.6156 97.7676 77.7862 98.0356 77.9102 98.3612C78.0343 98.6847 78.0963 99.0701 78.0963 99.5176V99.8864H73.9129V99.0756H76.9433C76.9411 98.8453 76.8912 98.6404 76.7938 98.4609C76.6963 98.2793 76.5601 98.1364 76.3851 98.0323C76.2123 97.9282 76.0107 97.8761 75.7803 97.8761C75.5344 97.8761 75.3184 97.9359 75.1324 98.0555C74.9463 98.1729 74.8012 98.328 74.6971 98.5207C74.5952 98.7112 74.5431 98.9206 74.5409 99.1487V99.8565C74.5409 100.153 74.5952 100.408 74.7037 100.621C74.8123 100.831 74.964 100.993 75.1589 101.106C75.3539 101.217 75.582 101.272 75.8434 101.272C76.0184 101.272 76.1768 101.248 76.3186 101.199C76.4604 101.148 76.5833 101.074 76.6874 100.976C76.7916 100.879 76.8702 100.758 76.9234 100.614L78.0465 100.74C77.9756 101.037 77.8405 101.296 77.6411 101.518C77.4439 101.737 77.1914 101.908 76.8835 102.03C76.5756 102.149 76.2233 102.209 75.8268 102.209ZM83.5266 97.0055L81.709 102.109H80.3799L78.5623 97.0055H79.8449L81.0179 100.797H81.0711L82.2473 97.0055H83.5266Z" fill="#A58CF0"/>
<rect x="49.685" y="85.7221" width="48.4863" height="25.7722" rx="4.38612" stroke="#A58CF0" stroke-width="0.584816"/>
<rect x="301.385" y="85.4297" width="50.0712" height="26.3571" rx="4.67853" fill="#A58CF0"/>
<path d="M321.683 95.3042V102.109H320.587L317.38 97.474H317.324V102.109H316.091V95.3042H317.194L320.398 99.9429H320.457V95.3042H321.683ZM325.233 102.209C324.721 102.209 324.279 102.103 323.907 101.89C323.537 101.675 323.253 101.372 323.053 100.98C322.854 100.585 322.754 100.121 322.754 99.5874C322.754 99.0624 322.854 98.6016 323.053 98.2051C323.255 97.8063 323.536 97.4962 323.897 97.2747C324.258 97.0509 324.683 96.9391 325.17 96.9391C325.484 96.9391 325.781 96.99 326.06 97.0919C326.342 97.1916 326.59 97.3467 326.805 97.5571C327.022 97.7676 327.192 98.0356 327.316 98.3612C327.44 98.6847 327.503 99.0701 327.503 99.5176V99.8864H323.319V99.0756H326.349C326.347 98.8453 326.297 98.6404 326.2 98.4609C326.103 98.2793 325.966 98.1364 325.791 98.0323C325.618 97.9282 325.417 97.8761 325.187 97.8761C324.941 97.8761 324.725 97.9359 324.539 98.0555C324.352 98.1729 324.207 98.328 324.103 98.5207C324.001 98.7112 323.949 98.9206 323.947 99.1487V99.8565C323.947 100.153 324.001 100.408 324.11 100.621C324.218 100.831 324.37 100.993 324.565 101.106C324.76 101.217 324.988 101.272 325.25 101.272C325.425 101.272 325.583 101.248 325.725 101.199C325.867 101.148 325.99 101.074 326.094 100.976C326.198 100.879 326.276 100.758 326.33 100.614L327.453 100.74C327.382 101.037 327.247 101.296 327.047 101.518C326.85 101.737 326.598 101.908 326.29 102.03C325.982 102.149 325.63 102.209 325.233 102.209ZM329.394 97.0055L330.424 98.8896L331.471 97.0055H332.743L331.205 99.5575L332.77 102.109H331.504L330.424 100.272L329.354 102.109H328.078L329.633 99.5575L328.118 97.0055H329.394ZM336.222 97.0055V97.9359H333.288V97.0055H336.222ZM334.013 95.7827H335.216V100.574C335.216 100.736 335.24 100.86 335.289 100.946C335.34 101.031 335.406 101.088 335.488 101.119C335.57 101.15 335.661 101.166 335.761 101.166C335.836 101.166 335.905 101.16 335.967 101.149C336.031 101.138 336.08 101.128 336.113 101.119L336.315 102.06C336.251 102.082 336.159 102.106 336.04 102.133C335.922 102.159 335.778 102.175 335.608 102.179C335.306 102.188 335.035 102.143 334.794 102.043C334.552 101.941 334.361 101.784 334.219 101.571C334.079 101.358 334.011 101.093 334.013 100.774V95.7827Z" fill="white"/>
</g>
<g filter="url(#filter1_dd_5186_13086)">
<rect x="115" y="146" width="354.154" height="117.786" rx="4.74967" fill="white" shape-rendering="crispEdges"/>
<path d="M143.276 170.906C143.24 170.587 143.092 170.34 142.831 170.164C142.57 169.986 142.242 169.898 141.846 169.898C141.562 169.898 141.317 169.943 141.11 170.033C140.903 170.12 140.743 170.242 140.628 170.397C140.516 170.55 140.459 170.724 140.459 170.92C140.459 171.084 140.498 171.226 140.574 171.345C140.653 171.464 140.755 171.564 140.881 171.645C141.009 171.724 141.146 171.79 141.293 171.844C141.439 171.896 141.579 171.938 141.714 171.972L142.389 172.148C142.609 172.202 142.835 172.275 143.067 172.367C143.299 172.459 143.513 172.581 143.711 172.731C143.909 172.882 144.069 173.069 144.19 173.291C144.314 173.514 144.376 173.78 144.376 174.091C144.376 174.482 144.275 174.829 144.072 175.133C143.872 175.437 143.581 175.676 143.198 175.852C142.818 176.027 142.358 176.115 141.819 176.115C141.302 176.115 140.854 176.033 140.476 175.868C140.098 175.704 139.803 175.472 139.589 175.17C139.375 174.867 139.257 174.507 139.235 174.091H140.281C140.301 174.34 140.382 174.548 140.523 174.715C140.667 174.879 140.851 175.001 141.073 175.082C141.298 175.161 141.544 175.201 141.812 175.201C142.107 175.201 142.369 175.154 142.598 175.062C142.83 174.968 143.012 174.837 143.144 174.671C143.277 174.502 143.344 174.305 143.344 174.081C143.344 173.876 143.285 173.708 143.168 173.578C143.053 173.448 142.897 173.34 142.699 173.254C142.504 173.169 142.282 173.093 142.035 173.028L141.218 172.805C140.665 172.655 140.227 172.433 139.903 172.141C139.581 171.849 139.42 171.462 139.42 170.98C139.42 170.582 139.528 170.235 139.744 169.938C139.96 169.641 140.252 169.411 140.621 169.247C140.99 169.08 141.406 168.997 141.869 168.997C142.337 168.997 142.75 169.079 143.107 169.243C143.467 169.407 143.751 169.633 143.957 169.921C144.164 170.207 144.272 170.535 144.281 170.906H143.276ZM145.54 176V170.819H146.549V176H145.54ZM146.05 170.019C145.874 170.019 145.724 169.961 145.598 169.844C145.474 169.724 145.412 169.583 145.412 169.419C145.412 169.252 145.474 169.111 145.598 168.994C145.724 168.874 145.874 168.815 146.05 168.815C146.225 168.815 146.375 168.874 146.498 168.994C146.624 169.111 146.687 169.252 146.687 169.419C146.687 169.583 146.624 169.724 146.498 169.844C146.375 169.961 146.225 170.019 146.05 170.019ZM148.915 172.924V176H147.906V170.819H148.874V171.662H148.938C149.057 171.388 149.244 171.167 149.498 171.001C149.755 170.834 150.077 170.751 150.466 170.751C150.819 170.751 151.129 170.825 151.394 170.974C151.659 171.12 151.865 171.338 152.011 171.628C152.157 171.918 152.231 172.277 152.231 172.704V176H151.222V172.826C151.222 172.45 151.124 172.157 150.928 171.945C150.733 171.732 150.464 171.625 150.122 171.625C149.888 171.625 149.68 171.675 149.498 171.777C149.318 171.878 149.175 172.026 149.07 172.222C148.966 172.415 148.915 172.649 148.915 172.924ZM155.766 176.105C155.264 176.105 154.833 175.991 154.47 175.764C154.111 175.534 153.834 175.219 153.641 174.816C153.447 174.413 153.351 173.952 153.351 173.433C153.351 172.907 153.449 172.442 153.647 172.04C153.845 171.635 154.124 171.319 154.484 171.092C154.844 170.865 155.268 170.751 155.756 170.751C156.149 170.751 156.5 170.824 156.808 170.97C157.116 171.114 157.365 171.317 157.554 171.578C157.745 171.838 157.858 172.143 157.894 172.492H156.913C156.859 172.249 156.735 172.04 156.542 171.864C156.351 171.689 156.094 171.601 155.773 171.601C155.491 171.601 155.245 171.675 155.034 171.824C154.825 171.97 154.662 172.179 154.545 172.451C154.428 172.721 154.369 173.04 154.369 173.409C154.369 173.787 154.427 174.113 154.541 174.388C154.656 174.662 154.818 174.874 155.027 175.025C155.238 175.176 155.487 175.251 155.773 175.251C155.964 175.251 156.137 175.216 156.292 175.147C156.45 175.075 156.581 174.972 156.687 174.84C156.795 174.707 156.87 174.547 156.913 174.361H157.894C157.858 174.696 157.749 174.995 157.567 175.258C157.385 175.521 157.141 175.728 156.835 175.879C156.532 176.029 156.175 176.105 155.766 176.105ZM161.206 176.105C160.696 176.105 160.256 175.996 159.887 175.777C159.521 175.557 159.237 175.248 159.037 174.85C158.839 174.449 158.74 173.98 158.74 173.443C158.74 172.912 158.839 172.444 159.037 172.04C159.237 171.635 159.516 171.319 159.874 171.092C160.234 170.865 160.654 170.751 161.135 170.751C161.428 170.751 161.711 170.799 161.985 170.896C162.26 170.993 162.506 171.145 162.724 171.352C162.942 171.558 163.114 171.827 163.24 172.158C163.366 172.486 163.429 172.885 163.429 173.355V173.713H159.31V172.957H162.441C162.441 172.692 162.387 172.457 162.279 172.252C162.171 172.045 162.019 171.882 161.824 171.763C161.63 171.644 161.403 171.584 161.142 171.584C160.859 171.584 160.611 171.654 160.4 171.793C160.191 171.931 160.029 172.111 159.914 172.333C159.802 172.554 159.746 172.793 159.746 173.052V173.642C159.746 173.988 159.806 174.283 159.928 174.526C160.051 174.769 160.223 174.954 160.444 175.082C160.664 175.208 160.922 175.271 161.216 175.271C161.407 175.271 161.582 175.244 161.739 175.19C161.897 175.134 162.033 175.051 162.147 174.941C162.262 174.831 162.35 174.695 162.41 174.533L163.365 174.705C163.289 174.986 163.152 175.232 162.954 175.443C162.758 175.653 162.512 175.816 162.215 175.933C161.92 176.047 161.584 176.105 161.206 176.105ZM168.071 172.924V176H167.062V169.091H168.057V171.662H168.122C168.243 171.383 168.429 171.162 168.678 170.997C168.928 170.833 169.254 170.751 169.656 170.751C170.012 170.751 170.322 170.824 170.587 170.97C170.855 171.117 171.062 171.335 171.208 171.625C171.357 171.913 171.431 172.272 171.431 172.704V176H170.422V172.826C170.422 172.446 170.324 172.151 170.129 171.942C169.933 171.73 169.661 171.625 169.312 171.625C169.074 171.625 168.86 171.675 168.671 171.777C168.485 171.878 168.337 172.026 168.23 172.222C168.124 172.415 168.071 172.649 168.071 172.924ZM174.959 176.105C174.474 176.105 174.05 175.993 173.688 175.771C173.326 175.548 173.044 175.237 172.844 174.836C172.644 174.436 172.544 173.968 172.544 173.433C172.544 172.895 172.644 172.425 172.844 172.023C173.044 171.62 173.326 171.308 173.688 171.085C174.05 170.862 174.474 170.751 174.959 170.751C175.445 170.751 175.869 170.862 176.231 171.085C176.593 171.308 176.874 171.62 177.074 172.023C177.275 172.425 177.375 172.895 177.375 173.433C177.375 173.968 177.275 174.436 177.074 174.836C176.874 175.237 176.593 175.548 176.231 175.771C175.869 175.993 175.445 176.105 174.959 176.105ZM174.963 175.258C175.278 175.258 175.538 175.175 175.745 175.008C175.952 174.842 176.105 174.62 176.204 174.344C176.305 174.067 176.356 173.762 176.356 173.43C176.356 173.099 176.305 172.795 176.204 172.519C176.105 172.24 175.952 172.016 175.745 171.847C175.538 171.679 175.278 171.594 174.963 171.594C174.646 171.594 174.382 171.679 174.173 171.847C173.966 172.016 173.812 172.24 173.711 172.519C173.612 172.795 173.563 173.099 173.563 173.43C173.563 173.762 173.612 174.067 173.711 174.344C173.812 174.62 173.966 174.842 174.173 175.008C174.382 175.175 174.646 175.258 174.963 175.258ZM179.466 176L177.941 170.819H178.984L179.999 174.624H180.05L181.068 170.819H182.111L183.123 174.607H183.173L184.182 170.819H185.224L183.703 176H182.674L181.622 172.259H181.544L180.492 176H179.466ZM189.704 169.091V176H188.696V169.091H189.704ZM193.244 176.105C192.758 176.105 192.334 175.993 191.972 175.771C191.61 175.548 191.329 175.237 191.129 174.836C190.928 174.436 190.828 173.968 190.828 173.433C190.828 172.895 190.928 172.425 191.129 172.023C191.329 171.62 191.61 171.308 191.972 171.085C192.334 170.862 192.758 170.751 193.244 170.751C193.729 170.751 194.153 170.862 194.515 171.085C194.878 171.308 195.159 171.62 195.359 172.023C195.559 172.425 195.659 172.895 195.659 173.433C195.659 173.968 195.559 174.436 195.359 174.836C195.159 175.237 194.878 175.548 194.515 175.771C194.153 175.993 193.729 176.105 193.244 176.105ZM193.247 175.258C193.562 175.258 193.823 175.175 194.03 175.008C194.237 174.842 194.389 174.62 194.488 174.344C194.59 174.067 194.64 173.762 194.64 173.43C194.64 173.099 194.59 172.795 194.488 172.519C194.389 172.24 194.237 172.016 194.03 171.847C193.823 171.679 193.562 171.594 193.247 171.594C192.93 171.594 192.667 171.679 192.458 171.847C192.251 172.016 192.097 172.24 191.996 172.519C191.897 172.795 191.847 173.099 191.847 173.43C191.847 173.762 191.897 174.067 191.996 174.344C192.097 174.62 192.251 174.842 192.458 175.008C192.667 175.175 192.93 175.258 193.247 175.258ZM197.793 172.924V176H196.785V170.819H197.753V171.662H197.817C197.936 171.388 198.123 171.167 198.377 171.001C198.633 170.834 198.956 170.751 199.345 170.751C199.698 170.751 200.008 170.825 200.273 170.974C200.538 171.12 200.744 171.338 200.89 171.628C201.036 171.918 201.109 172.277 201.109 172.704V176H200.101V172.826C200.101 172.45 200.003 172.157 199.807 171.945C199.612 171.732 199.343 171.625 199.001 171.625C198.767 171.625 198.559 171.675 198.377 171.777C198.197 171.878 198.054 172.026 197.949 172.222C197.845 172.415 197.793 172.649 197.793 172.924ZM204.635 178.051C204.223 178.051 203.869 177.997 203.572 177.889C203.277 177.781 203.037 177.638 202.85 177.461C202.663 177.283 202.524 177.088 202.432 176.877L203.299 176.519C203.359 176.618 203.44 176.723 203.542 176.833C203.645 176.946 203.785 177.041 203.96 177.12C204.138 177.199 204.366 177.238 204.645 177.238C205.027 177.238 205.343 177.145 205.593 176.958C205.842 176.774 205.967 176.479 205.967 176.074V175.055H205.903C205.842 175.166 205.755 175.288 205.64 175.423C205.527 175.558 205.372 175.675 205.174 175.774C204.976 175.873 204.719 175.922 204.402 175.922C203.993 175.922 203.624 175.827 203.295 175.636C202.969 175.442 202.711 175.158 202.52 174.782C202.331 174.404 202.236 173.94 202.236 173.389C202.236 172.838 202.33 172.366 202.516 171.972C202.705 171.579 202.964 171.277 203.292 171.068C203.62 170.857 203.993 170.751 204.409 170.751C204.73 170.751 204.99 170.805 205.188 170.913C205.386 171.019 205.54 171.142 205.65 171.284C205.762 171.426 205.849 171.551 205.91 171.659H205.984V170.819H206.972V176.115C206.972 176.56 206.869 176.925 206.662 177.211C206.455 177.497 206.175 177.708 205.822 177.845C205.471 177.982 205.075 178.051 204.635 178.051ZM204.624 175.086C204.915 175.086 205.16 175.018 205.36 174.883C205.562 174.746 205.715 174.551 205.819 174.296C205.924 174.04 205.977 173.733 205.977 173.376C205.977 173.027 205.925 172.72 205.822 172.455C205.719 172.189 205.567 171.982 205.367 171.834C205.166 171.683 204.919 171.608 204.624 171.608C204.321 171.608 204.068 171.687 203.865 171.844C203.663 171.999 203.51 172.211 203.407 172.478C203.306 172.746 203.255 173.045 203.255 173.376C203.255 173.715 203.307 174.013 203.41 174.269C203.514 174.526 203.666 174.726 203.869 174.87C204.074 175.014 204.325 175.086 204.624 175.086ZM211.477 177.943C211.326 177.943 211.189 177.931 211.065 177.906C210.941 177.883 210.849 177.859 210.788 177.832L211.031 177.005C211.216 177.055 211.38 177.076 211.524 177.069C211.668 177.063 211.795 177.009 211.905 176.907C212.017 176.806 212.116 176.641 212.202 176.412L212.327 176.067L210.431 170.819H211.51L212.823 174.84H212.877L214.189 170.819H215.272L213.136 176.692C213.037 176.961 212.911 177.19 212.758 177.376C212.606 177.565 212.423 177.707 212.212 177.801C212.001 177.896 211.755 177.943 211.477 177.943ZM218.226 176.105C217.74 176.105 217.316 175.993 216.954 175.771C216.592 175.548 216.311 175.237 216.111 174.836C215.911 174.436 215.811 173.968 215.811 173.433C215.811 172.895 215.911 172.425 216.111 172.023C216.311 171.62 216.592 171.308 216.954 171.085C217.316 170.862 217.74 170.751 218.226 170.751C218.712 170.751 219.135 170.862 219.498 171.085C219.86 171.308 220.141 171.62 220.341 172.023C220.541 172.425 220.641 172.895 220.641 173.433C220.641 173.968 220.541 174.436 220.341 174.836C220.141 175.237 219.86 175.548 219.498 175.771C219.135 175.993 218.712 176.105 218.226 176.105ZM218.229 175.258C218.544 175.258 218.805 175.175 219.012 175.008C219.219 174.842 219.372 174.62 219.471 174.344C219.572 174.067 219.622 173.762 219.622 173.43C219.622 173.099 219.572 172.795 219.471 172.519C219.372 172.24 219.219 172.016 219.012 171.847C218.805 171.679 218.544 171.594 218.229 171.594C217.912 171.594 217.649 171.679 217.44 171.847C217.233 172.016 217.079 172.24 216.978 172.519C216.879 172.795 216.829 173.099 216.829 173.43C216.829 173.762 216.879 174.067 216.978 174.344C217.079 174.62 217.233 174.842 217.44 175.008C217.649 175.175 217.912 175.258 218.229 175.258ZM225.049 173.851V170.819H226.061V176H225.069V175.103H225.016C224.896 175.379 224.705 175.61 224.442 175.794C224.181 175.976 223.856 176.067 223.467 176.067C223.134 176.067 222.84 175.994 222.583 175.848C222.329 175.7 222.129 175.481 221.983 175.19C221.839 174.9 221.767 174.542 221.767 174.114V170.819H222.776V173.993C222.776 174.346 222.873 174.627 223.069 174.836C223.265 175.045 223.519 175.15 223.831 175.15C224.02 175.15 224.208 175.103 224.395 175.008C224.584 174.914 224.74 174.771 224.864 174.58C224.99 174.389 225.051 174.146 225.049 173.851ZM230.939 172.924V176H229.93V169.091H230.926V171.662H230.99C231.111 171.383 231.297 171.162 231.546 170.997C231.796 170.833 232.122 170.751 232.525 170.751C232.88 170.751 233.19 170.824 233.456 170.97C233.723 171.117 233.93 171.335 234.076 171.625C234.225 171.913 234.299 172.272 234.299 172.704V176H233.29V172.826C233.29 172.446 233.192 172.151 232.997 171.942C232.801 171.73 232.529 171.625 232.18 171.625C231.942 171.625 231.728 171.675 231.54 171.777C231.353 171.878 231.206 172.026 231.098 172.222C230.992 172.415 230.939 172.649 230.939 172.924ZM237.153 176.115C236.824 176.115 236.528 176.054 236.262 175.933C235.997 175.809 235.787 175.63 235.631 175.396C235.478 175.162 235.402 174.876 235.402 174.536C235.402 174.244 235.458 174.003 235.571 173.814C235.683 173.625 235.835 173.476 236.026 173.365C236.217 173.255 236.431 173.172 236.667 173.116C236.903 173.06 237.144 173.017 237.389 172.988C237.699 172.952 237.951 172.922 238.145 172.9C238.338 172.875 238.479 172.836 238.566 172.782C238.654 172.728 238.698 172.64 238.698 172.519V172.495C238.698 172.2 238.615 171.972 238.448 171.81C238.284 171.648 238.039 171.567 237.713 171.567C237.373 171.567 237.106 171.643 236.91 171.793C236.717 171.942 236.583 172.107 236.508 172.289L235.561 172.073C235.673 171.759 235.837 171.504 236.053 171.311C236.271 171.115 236.522 170.974 236.805 170.886C237.089 170.796 237.387 170.751 237.699 170.751C237.906 170.751 238.125 170.776 238.357 170.825C238.591 170.873 238.809 170.96 239.012 171.088C239.216 171.217 239.384 171.4 239.514 171.638C239.645 171.874 239.71 172.181 239.71 172.559V176H238.725V175.292H238.684C238.619 175.422 238.521 175.55 238.391 175.676C238.26 175.802 238.093 175.907 237.888 175.99C237.684 176.073 237.438 176.115 237.153 176.115ZM237.372 175.305C237.651 175.305 237.889 175.25 238.087 175.14C238.287 175.03 238.439 174.886 238.543 174.708C238.648 174.528 238.701 174.336 238.701 174.131V173.463C238.665 173.499 238.595 173.533 238.492 173.564C238.391 173.594 238.275 173.62 238.145 173.642C238.014 173.662 237.887 173.681 237.763 173.699C237.64 173.715 237.536 173.729 237.453 173.74C237.257 173.765 237.079 173.806 236.917 173.865C236.757 173.923 236.629 174.007 236.532 174.118C236.438 174.226 236.39 174.37 236.39 174.549C236.39 174.799 236.483 174.988 236.667 175.116C236.851 175.242 237.086 175.305 237.372 175.305ZM245.3 170.819L243.421 176H242.342L240.46 170.819H241.542L242.855 174.806H242.909L244.217 170.819H245.3ZM248.305 176.105C247.795 176.105 247.355 175.996 246.986 175.777C246.62 175.557 246.336 175.248 246.136 174.85C245.938 174.449 245.839 173.98 245.839 173.443C245.839 172.912 245.938 172.444 246.136 172.04C246.336 171.635 246.615 171.319 246.973 171.092C247.332 170.865 247.753 170.751 248.234 170.751C248.527 170.751 248.81 170.799 249.084 170.896C249.359 170.993 249.605 171.145 249.823 171.352C250.041 171.558 250.213 171.827 250.339 172.158C250.465 172.486 250.528 172.885 250.528 173.355V173.713H246.409V172.957H249.54C249.54 172.692 249.486 172.457 249.378 172.252C249.27 172.045 249.118 171.882 248.922 171.763C248.729 171.644 248.502 171.584 248.241 171.584C247.958 171.584 247.71 171.654 247.499 171.793C247.29 171.931 247.128 172.111 247.013 172.333C246.901 172.554 246.844 172.793 246.844 173.052V173.642C246.844 173.988 246.905 174.283 247.027 174.526C247.15 174.769 247.322 174.954 247.543 175.082C247.763 175.208 248.021 175.271 248.315 175.271C248.506 175.271 248.681 175.244 248.838 175.19C248.995 175.134 249.132 175.051 249.246 174.941C249.361 174.831 249.449 174.695 249.509 174.533L250.464 174.705C250.388 174.986 250.25 175.232 250.052 175.443C249.857 175.653 249.611 175.816 249.314 175.933C249.019 176.047 248.683 176.105 248.305 176.105ZM254.242 176V169.091H255.251V171.659H255.311C255.37 171.551 255.454 171.426 255.564 171.284C255.675 171.142 255.828 171.019 256.023 170.913C256.219 170.805 256.478 170.751 256.799 170.751C257.217 170.751 257.591 170.857 257.919 171.068C258.247 171.28 258.505 171.584 258.692 171.982C258.88 172.38 258.975 172.859 258.975 173.419C258.975 173.979 258.882 174.46 258.695 174.86C258.508 175.258 258.252 175.565 257.926 175.781C257.6 175.994 257.228 176.101 256.809 176.101C256.494 176.101 256.237 176.048 256.037 175.943C255.839 175.837 255.684 175.713 255.571 175.572C255.459 175.43 255.372 175.304 255.311 175.194H255.227V176H254.242ZM255.231 173.409C255.231 173.774 255.283 174.093 255.389 174.367C255.495 174.642 255.648 174.856 255.848 175.012C256.048 175.165 256.293 175.241 256.583 175.241C256.885 175.241 257.136 175.161 257.339 175.001C257.541 174.84 257.694 174.62 257.798 174.344C257.903 174.067 257.956 173.756 257.956 173.409C257.956 173.067 257.904 172.76 257.801 172.488C257.7 172.216 257.547 172.001 257.342 171.844C257.14 171.687 256.887 171.608 256.583 171.608C256.291 171.608 256.044 171.683 255.841 171.834C255.641 171.985 255.489 172.195 255.386 172.465C255.282 172.735 255.231 173.049 255.231 173.409ZM262.341 176.105C261.83 176.105 261.391 175.996 261.022 175.777C260.655 175.557 260.372 175.248 260.172 174.85C259.974 174.449 259.875 173.98 259.875 173.443C259.875 172.912 259.974 172.444 260.172 172.04C260.372 171.635 260.651 171.319 261.008 171.092C261.368 170.865 261.789 170.751 262.27 170.751C262.562 170.751 262.846 170.799 263.12 170.896C263.394 170.993 263.641 171.145 263.859 171.352C264.077 171.558 264.249 171.827 264.375 172.158C264.501 172.486 264.564 172.885 264.564 173.355V173.713H260.445V172.957H263.575C263.575 172.692 263.521 172.457 263.413 172.252C263.305 172.045 263.154 171.882 262.958 171.763C262.765 171.644 262.537 171.584 262.277 171.584C261.993 171.584 261.746 171.654 261.534 171.793C261.325 171.931 261.163 172.111 261.049 172.333C260.936 172.554 260.88 172.793 260.88 173.052V173.642C260.88 173.988 260.941 174.283 261.062 174.526C261.186 174.769 261.358 174.954 261.578 175.082C261.799 175.208 262.056 175.271 262.351 175.271C262.542 175.271 262.716 175.244 262.874 175.19C263.031 175.134 263.167 175.051 263.282 174.941C263.397 174.831 263.484 174.695 263.545 174.533L264.5 174.705C264.423 174.986 264.286 175.232 264.088 175.443C263.892 175.653 263.646 175.816 263.349 175.933C263.055 176.047 262.719 176.105 262.341 176.105ZM267.916 176.105C267.405 176.105 266.966 175.996 266.597 175.777C266.23 175.557 265.947 175.248 265.747 174.85C265.549 174.449 265.45 173.98 265.45 173.443C265.45 172.912 265.549 172.444 265.747 172.04C265.947 171.635 266.226 171.319 266.584 171.092C266.943 170.865 267.364 170.751 267.845 170.751C268.138 170.751 268.421 170.799 268.695 170.896C268.97 170.993 269.216 171.145 269.434 171.352C269.652 171.558 269.824 171.827 269.95 172.158C270.076 172.486 270.139 172.885 270.139 173.355V173.713H266.02V172.957H269.151C269.151 172.692 269.097 172.457 268.989 172.252C268.881 172.045 268.729 171.882 268.533 171.763C268.34 171.644 268.113 171.584 267.852 171.584C267.569 171.584 267.321 171.654 267.11 171.793C266.901 171.931 266.739 172.111 266.624 172.333C266.512 172.554 266.455 172.793 266.455 173.052V173.642C266.455 173.988 266.516 174.283 266.637 174.526C266.761 174.769 266.933 174.954 267.154 175.082C267.374 175.208 267.632 175.271 267.926 175.271C268.117 175.271 268.292 175.244 268.449 175.19C268.606 175.134 268.742 175.051 268.857 174.941C268.972 174.831 269.06 174.695 269.12 174.533L270.075 174.705C269.998 174.986 269.861 175.232 269.663 175.443C269.468 175.653 269.221 175.816 268.925 175.933C268.63 176.047 268.294 176.105 267.916 176.105ZM272.267 172.924V176H271.258V170.819H272.226V171.662H272.29C272.41 171.388 272.596 171.167 272.85 171.001C273.107 170.834 273.429 170.751 273.819 170.751C274.172 170.751 274.481 170.825 274.746 170.974C275.012 171.12 275.217 171.338 275.363 171.628C275.51 171.918 275.583 172.277 275.583 172.704V176H274.574V172.826C274.574 172.45 274.476 172.157 274.281 171.945C274.085 171.732 273.816 171.625 273.474 171.625C273.241 171.625 273.033 171.675 272.85 171.777C272.67 171.878 272.528 172.026 272.422 172.222C272.318 172.415 272.267 172.649 272.267 172.924ZM280.458 169.091V176H279.449V169.091H280.458ZM281.815 176V170.819H282.824V176H281.815ZM282.324 170.019C282.149 170.019 281.998 169.961 281.872 169.844C281.749 169.724 281.687 169.583 281.687 169.419C281.687 169.252 281.749 169.111 281.872 168.994C281.998 168.874 282.149 168.815 282.324 168.815C282.5 168.815 282.649 168.874 282.773 168.994C282.899 169.111 282.962 169.252 282.962 169.419C282.962 169.583 282.899 169.724 282.773 169.844C282.649 169.961 282.5 170.019 282.324 170.019ZM288.613 170.819L286.734 176H285.655L283.772 170.819H284.855L286.167 174.806H286.221L287.53 170.819H288.613ZM289.561 176V170.819H290.57V176H289.561ZM290.07 170.019C289.895 170.019 289.744 169.961 289.618 169.844C289.495 169.724 289.433 169.583 289.433 169.419C289.433 169.252 289.495 169.111 289.618 168.994C289.744 168.874 289.895 168.815 290.07 168.815C290.246 168.815 290.395 168.874 290.519 168.994C290.645 169.111 290.708 169.252 290.708 169.419C290.708 169.583 290.645 169.724 290.519 169.844C290.395 169.961 290.246 170.019 290.07 170.019ZM292.935 172.924V176H291.927V170.819H292.895V171.662H292.959C293.078 171.388 293.265 171.167 293.519 171.001C293.775 170.834 294.098 170.751 294.487 170.751C294.84 170.751 295.149 170.825 295.415 170.974C295.68 171.12 295.886 171.338 296.032 171.628C296.178 171.918 296.251 172.277 296.251 172.704V176H295.243V172.826C295.243 172.45 295.145 172.157 294.949 171.945C294.753 171.732 294.485 171.625 294.143 171.625C293.909 171.625 293.701 171.675 293.519 171.777C293.339 171.878 293.196 172.026 293.09 172.222C292.987 172.415 292.935 172.649 292.935 172.924ZM299.776 178.051C299.365 178.051 299.011 177.997 298.714 177.889C298.419 177.781 298.179 177.638 297.992 177.461C297.805 177.283 297.666 177.088 297.574 176.877L298.441 176.519C298.501 176.618 298.582 176.723 298.683 176.833C298.787 176.946 298.926 177.041 299.102 177.12C299.279 177.199 299.508 177.238 299.786 177.238C300.169 177.238 300.485 177.145 300.734 176.958C300.984 176.774 301.109 176.479 301.109 176.074V175.055H301.045C300.984 175.166 300.896 175.288 300.782 175.423C300.669 175.558 300.514 175.675 300.316 175.774C300.118 175.873 299.861 175.922 299.544 175.922C299.134 175.922 298.765 175.827 298.437 175.636C298.111 175.442 297.852 175.158 297.661 174.782C297.472 174.404 297.378 173.94 297.378 173.389C297.378 172.838 297.471 172.366 297.658 171.972C297.847 171.579 298.105 171.277 298.434 171.068C298.762 170.857 299.134 170.751 299.55 170.751C299.872 170.751 300.132 170.805 300.33 170.913C300.527 171.019 300.682 171.142 300.792 171.284C300.904 171.426 300.991 171.551 301.051 171.659H301.126V170.819H302.114V176.115C302.114 176.56 302.011 176.925 301.804 177.211C301.597 177.497 301.317 177.708 300.964 177.845C300.613 177.982 300.217 178.051 299.776 178.051ZM299.766 175.086C300.056 175.086 300.301 175.018 300.502 174.883C300.704 174.746 300.857 174.551 300.96 174.296C301.066 174.04 301.119 173.733 301.119 173.376C301.119 173.027 301.067 172.72 300.964 172.455C300.86 172.189 300.709 171.982 300.508 171.834C300.308 171.683 300.061 171.608 299.766 171.608C299.463 171.608 299.21 171.687 299.007 171.844C298.805 171.999 298.652 172.211 298.548 172.478C298.447 172.746 298.397 173.045 298.397 173.376C298.397 173.715 298.448 174.013 298.552 174.269C298.655 174.526 298.808 174.726 299.011 174.87C299.215 175.014 299.467 175.086 299.766 175.086ZM305.981 176V170.819H306.989V176H305.981ZM306.49 170.019C306.315 170.019 306.164 169.961 306.038 169.844C305.914 169.724 305.853 169.583 305.853 169.419C305.853 169.252 305.914 169.111 306.038 168.994C306.164 168.874 306.315 168.815 306.49 168.815C306.666 168.815 306.815 168.874 306.939 168.994C307.065 169.111 307.128 169.252 307.128 169.419C307.128 169.583 307.065 169.724 306.939 169.844C306.815 169.961 306.666 170.019 306.49 170.019ZM309.355 172.924V176H308.346V170.819H309.314V171.662H309.379C309.498 171.388 309.684 171.167 309.939 171.001C310.195 170.834 310.518 170.751 310.907 170.751C311.26 170.751 311.569 170.825 311.834 170.974C312.1 171.12 312.306 171.338 312.452 171.628C312.598 171.918 312.671 172.277 312.671 172.704V176H311.662V172.826C311.662 172.45 311.565 172.157 311.369 171.945C311.173 171.732 310.904 171.625 310.563 171.625C310.329 171.625 310.121 171.675 309.939 171.777C309.759 171.878 309.616 172.026 309.51 172.222C309.407 172.415 309.355 172.649 309.355 172.924Z" fill="#333333"/>
<rect x="317.952" y="165.684" width="43.6343" height="13.6343" rx="3.31713" fill="#4F3895"/>
<path d="M322.956 169.091V176H321.948V169.091H322.956ZM326.496 176.105C326.01 176.105 325.586 175.993 325.224 175.771C324.862 175.548 324.581 175.237 324.381 174.836C324.18 174.436 324.08 173.968 324.08 173.433C324.08 172.895 324.18 172.425 324.381 172.023C324.581 171.62 324.862 171.308 325.224 171.085C325.586 170.862 326.01 170.751 326.496 170.751C326.981 170.751 327.405 170.862 327.767 171.085C328.13 171.308 328.411 171.62 328.611 172.023C328.811 172.425 328.911 172.895 328.911 173.433C328.911 173.968 328.811 174.436 328.611 174.836C328.411 175.237 328.13 175.548 327.767 175.771C327.405 175.993 326.981 176.105 326.496 176.105ZM326.499 175.258C326.814 175.258 327.075 175.175 327.282 175.008C327.489 174.842 327.641 174.62 327.74 174.344C327.842 174.067 327.892 173.762 327.892 173.43C327.892 173.099 327.842 172.795 327.74 172.519C327.641 172.24 327.489 172.016 327.282 171.847C327.075 171.679 326.814 171.594 326.499 171.594C326.182 171.594 325.919 171.679 325.71 171.847C325.503 172.016 325.349 172.24 325.248 172.519C325.149 172.795 325.099 173.099 325.099 173.43C325.099 173.762 325.149 174.067 325.248 174.344C325.349 174.62 325.503 174.842 325.71 175.008C325.919 175.175 326.182 175.258 326.499 175.258ZM332.219 176.105C331.718 176.105 331.286 175.991 330.924 175.764C330.564 175.534 330.288 175.219 330.094 174.816C329.901 174.413 329.804 173.952 329.804 173.433C329.804 172.907 329.903 172.442 330.101 172.04C330.299 171.635 330.578 171.319 330.938 171.092C331.297 170.865 331.721 170.751 332.209 170.751C332.603 170.751 332.954 170.824 333.262 170.97C333.57 171.114 333.818 171.317 334.007 171.578C334.198 171.838 334.312 172.143 334.348 172.492H333.366C333.312 172.249 333.189 172.04 332.995 171.864C332.804 171.689 332.548 171.601 332.226 171.601C331.945 171.601 331.699 171.675 331.487 171.824C331.278 171.97 331.115 172.179 330.998 172.451C330.881 172.721 330.823 173.04 330.823 173.409C330.823 173.787 330.88 174.113 330.995 174.388C331.11 174.662 331.271 174.874 331.481 175.025C331.692 175.176 331.941 175.251 332.226 175.251C332.417 175.251 332.59 175.216 332.746 175.147C332.903 175.075 333.035 174.972 333.14 174.84C333.248 174.707 333.324 174.547 333.366 174.361H334.348C334.312 174.696 334.203 174.995 334.021 175.258C333.839 175.521 333.595 175.728 333.289 175.879C332.985 176.029 332.629 176.105 332.219 176.105ZM336.934 176.115C336.606 176.115 336.309 176.054 336.044 175.933C335.779 175.809 335.568 175.63 335.413 175.396C335.26 175.162 335.184 174.876 335.184 174.536C335.184 174.244 335.24 174.003 335.352 173.814C335.465 173.625 335.617 173.476 335.808 173.365C335.999 173.255 336.213 173.172 336.449 173.116C336.685 173.06 336.925 173.017 337.171 172.988C337.481 172.952 337.733 172.922 337.926 172.9C338.12 172.875 338.26 172.836 338.348 172.782C338.436 172.728 338.479 172.64 338.479 172.519V172.495C338.479 172.2 338.396 171.972 338.23 171.81C338.066 171.648 337.821 171.567 337.494 171.567C337.155 171.567 336.887 171.643 336.692 171.793C336.498 171.942 336.364 172.107 336.29 172.289L335.342 172.073C335.455 171.759 335.619 171.504 335.835 171.311C336.053 171.115 336.304 170.974 336.587 170.886C336.87 170.796 337.168 170.751 337.481 170.751C337.688 170.751 337.907 170.776 338.139 170.825C338.373 170.873 338.591 170.96 338.793 171.088C338.998 171.217 339.165 171.4 339.296 171.638C339.426 171.874 339.491 172.181 339.491 172.559V176H338.506V175.292H338.466C338.401 175.422 338.303 175.55 338.173 175.676C338.042 175.802 337.875 175.907 337.67 175.99C337.465 176.073 337.22 176.115 336.934 176.115ZM337.154 175.305C337.433 175.305 337.671 175.25 337.869 175.14C338.069 175.03 338.221 174.886 338.324 174.708C338.43 174.528 338.483 174.336 338.483 174.131V173.463C338.447 173.499 338.377 173.533 338.274 173.564C338.173 173.594 338.057 173.62 337.926 173.642C337.796 173.662 337.669 173.681 337.545 173.699C337.421 173.715 337.318 173.729 337.235 173.74C337.039 173.765 336.86 173.806 336.698 173.865C336.539 173.923 336.41 174.007 336.314 174.118C336.219 174.226 336.172 174.37 336.172 174.549C336.172 174.799 336.264 174.988 336.449 175.116C336.633 175.242 336.868 175.305 337.154 175.305ZM343.254 170.819V171.628H340.423V170.819H343.254ZM341.182 169.577H342.191V174.479C342.191 174.674 342.22 174.822 342.279 174.921C342.337 175.017 342.413 175.084 342.505 175.12C342.599 175.153 342.702 175.17 342.812 175.17C342.893 175.17 342.963 175.165 343.024 175.153C343.085 175.142 343.132 175.133 343.166 175.126L343.348 175.96C343.29 175.982 343.206 176.004 343.098 176.027C342.99 176.052 342.856 176.065 342.694 176.067C342.428 176.072 342.181 176.025 341.951 175.926C341.722 175.827 341.537 175.674 341.395 175.467C341.253 175.26 341.182 175 341.182 174.688V169.577ZM344.369 176V170.819H345.378V176H344.369ZM344.879 170.019C344.703 170.019 344.553 169.961 344.427 169.844C344.303 169.724 344.241 169.583 344.241 169.419C344.241 169.252 344.303 169.111 344.427 168.994C344.553 168.874 344.703 168.815 344.879 168.815C345.054 168.815 345.204 168.874 345.327 168.994C345.453 169.111 345.516 169.252 345.516 169.419C345.516 169.583 345.453 169.724 345.327 169.844C345.204 169.961 345.054 170.019 344.879 170.019ZM348.917 176.105C348.432 176.105 348.008 175.993 347.646 175.771C347.284 175.548 347.003 175.237 346.802 174.836C346.602 174.436 346.502 173.968 346.502 173.433C346.502 172.895 346.602 172.425 346.802 172.023C347.003 171.62 347.284 171.308 347.646 171.085C348.008 170.862 348.432 170.751 348.917 170.751C349.403 170.751 349.827 170.862 350.189 171.085C350.551 171.308 350.832 171.62 351.033 172.023C351.233 172.425 351.333 172.895 351.333 173.433C351.333 173.968 351.233 174.436 351.033 174.836C350.832 175.237 350.551 175.548 350.189 175.771C349.827 175.993 349.403 176.105 348.917 176.105ZM348.921 175.258C349.236 175.258 349.497 175.175 349.703 175.008C349.91 174.842 350.063 174.62 350.162 174.344C350.263 174.067 350.314 173.762 350.314 173.43C350.314 173.099 350.263 172.795 350.162 172.519C350.063 172.24 349.91 172.016 349.703 171.847C349.497 171.679 349.236 171.594 348.921 171.594C348.604 171.594 348.341 171.679 348.131 171.847C347.925 172.016 347.771 172.24 347.669 172.519C347.57 172.795 347.521 173.099 347.521 173.43C347.521 173.762 347.57 174.067 347.669 174.344C347.771 174.62 347.925 174.842 348.131 175.008C348.341 175.175 348.604 175.258 348.921 175.258ZM353.467 172.924V176H352.459V170.819H353.427V171.662H353.491C353.61 171.388 353.797 171.167 354.051 171.001C354.307 170.834 354.63 170.751 355.019 170.751C355.372 170.751 355.681 170.825 355.947 170.974C356.212 171.12 356.418 171.338 356.564 171.628C356.71 171.918 356.783 172.277 356.783 172.704V176H355.775V172.826C355.775 172.45 355.677 172.157 355.481 171.945C355.285 171.732 355.017 171.625 354.675 171.625C354.441 171.625 354.233 171.675 354.051 171.777C353.871 171.878 353.728 172.026 353.622 172.222C353.519 172.415 353.467 172.649 353.467 172.924Z" fill="white"/>
<rect x="139.578" y="183.083" width="304.998" height="24.8781" rx="2.48785" fill="#F7F7F7"/>
<rect x="139.578" y="183.083" width="304.998" height="24.8781" rx="2.48785" stroke="#EFEFEF" stroke-width="1.65857"/>
<path d="M153.679 235.039V228.13H156.27C156.801 228.13 157.246 228.229 157.606 228.427C157.968 228.625 158.241 228.897 158.426 229.244C158.612 229.588 158.706 229.979 158.706 230.418C158.706 230.861 158.612 231.254 158.426 231.598C158.239 231.942 157.964 232.213 157.599 232.411C157.235 232.607 156.786 232.705 156.253 232.705H154.536V231.676H156.085C156.395 231.676 156.649 231.622 156.847 231.514C157.045 231.406 157.191 231.258 157.286 231.069C157.382 230.88 157.431 230.663 157.431 230.418C157.431 230.172 157.382 229.957 157.286 229.77C157.191 229.583 157.044 229.438 156.844 229.335C156.646 229.229 156.391 229.176 156.078 229.176H154.931V235.039H153.679ZM159.739 235.039V229.858H160.923V230.721H160.977C161.071 230.422 161.233 230.192 161.463 230.03C161.694 229.865 161.958 229.783 162.255 229.783C162.323 229.783 162.398 229.787 162.481 229.794C162.567 229.798 162.638 229.806 162.694 229.817V230.94C162.642 230.922 162.56 230.907 162.448 230.893C162.337 230.877 162.231 230.87 162.127 230.87C161.905 230.87 161.704 230.918 161.527 231.015C161.351 231.109 161.213 231.241 161.112 231.409C161.011 231.578 160.96 231.773 160.96 231.993V235.039H159.739ZM165.586 235.14C165.066 235.14 164.618 235.032 164.24 234.816C163.864 234.598 163.575 234.29 163.373 233.892C163.17 233.492 163.069 233.021 163.069 232.479C163.069 231.946 163.17 231.478 163.373 231.075C163.577 230.671 163.863 230.356 164.23 230.131C164.596 229.904 165.027 229.79 165.522 229.79C165.841 229.79 166.142 229.842 166.426 229.945C166.711 230.047 166.963 230.204 167.181 230.418C167.402 230.631 167.575 230.903 167.701 231.234C167.827 231.562 167.89 231.954 167.89 232.408V232.782H163.643V231.959H166.719C166.717 231.725 166.666 231.517 166.567 231.335C166.468 231.151 166.33 231.006 166.152 230.9C165.977 230.794 165.772 230.741 165.538 230.741C165.289 230.741 165.07 230.802 164.881 230.924C164.692 231.043 164.544 231.2 164.439 231.396C164.335 231.589 164.282 231.802 164.28 232.033V232.752C164.28 233.053 164.335 233.312 164.445 233.528C164.556 233.741 164.71 233.906 164.908 234.02C165.106 234.133 165.337 234.189 165.603 234.189C165.78 234.189 165.941 234.164 166.085 234.115C166.229 234.063 166.354 233.988 166.459 233.889C166.565 233.79 166.645 233.667 166.699 233.521L167.839 233.649C167.767 233.951 167.63 234.214 167.428 234.439C167.227 234.661 166.971 234.834 166.658 234.958C166.346 235.08 165.988 235.14 165.586 235.14ZM173.403 229.858L171.557 235.039H170.208L168.363 229.858H169.665L170.856 233.707H170.91L172.104 229.858H173.403Z" fill="#A58CF0"/>
<rect x="139.046" y="218.586" width="48.9043" height="25.9056" rx="4.45281" stroke="#A58CF0" stroke-width="0.593708"/>
<rect x="394.907" y="218.289" width="50.498" height="26.4993" rx="4.74967" fill="#A58CF0"/>
<path d="M415.515 228.13V235.039H414.402L411.147 230.333H411.089V235.039H409.838V228.13H410.958L414.21 232.84H414.27V228.13H415.515ZM419.119 235.14C418.599 235.14 418.15 235.032 417.773 234.816C417.397 234.598 417.108 234.29 416.906 233.892C416.703 233.492 416.602 233.021 416.602 232.479C416.602 231.946 416.703 231.478 416.906 231.075C417.11 230.671 417.396 230.356 417.762 230.131C418.129 229.904 418.56 229.79 419.054 229.79C419.374 229.79 419.675 229.842 419.959 229.945C420.244 230.047 420.496 230.204 420.714 230.418C420.935 230.631 421.108 230.903 421.234 231.234C421.36 231.562 421.423 231.954 421.423 232.408V232.782H417.176V231.959H420.252C420.25 231.725 420.199 231.517 420.1 231.335C420.001 231.151 419.863 231.006 419.685 230.9C419.51 230.794 419.305 230.741 419.071 230.741C418.822 230.741 418.602 230.802 418.414 230.924C418.225 231.043 418.077 231.2 417.972 231.396C417.868 231.589 417.815 231.802 417.813 232.033V232.752C417.813 233.053 417.868 233.312 417.978 233.528C418.089 233.741 418.243 233.906 418.441 234.02C418.638 234.133 418.87 234.189 419.135 234.189C419.313 234.189 419.474 234.164 419.618 234.115C419.762 234.063 419.887 233.988 419.992 233.889C420.098 233.79 420.178 233.667 420.232 233.521L421.372 233.649C421.3 233.951 421.163 234.214 420.96 234.439C420.76 234.661 420.504 234.834 420.191 234.958C419.879 235.08 419.521 235.14 419.119 235.14ZM423.343 229.858L424.389 231.77L425.451 229.858H426.743L425.181 232.448L426.77 235.039H425.485L424.389 233.174L423.302 235.039H422.007L423.586 232.448L422.047 229.858H423.343ZM430.275 229.858V230.802H427.296V229.858H430.275ZM428.032 228.616H429.253V233.481C429.253 233.645 429.278 233.771 429.327 233.858C429.379 233.944 429.446 234.002 429.53 234.034C429.613 234.065 429.705 234.081 429.806 234.081C429.883 234.081 429.952 234.075 430.015 234.064C430.081 234.053 430.13 234.043 430.164 234.034L430.37 234.988C430.304 235.011 430.211 235.036 430.09 235.063C429.97 235.09 429.824 235.105 429.651 235.11C429.345 235.119 429.07 235.073 428.825 234.972C428.579 234.868 428.385 234.708 428.241 234.493C428.099 234.277 428.03 234.007 428.032 233.683V228.616Z" fill="white"/>
</g>
<defs>
<filter id="filter0_dd_5186_13086" x="18.0036" y="10.0018" width="364.842" height="132.493" filterUnits="userSpaceOnUse" color-interpolation-filters="sRGB">
<feFlood flood-opacity="0" result="BackgroundImageFix"/>
<feColorMatrix in="SourceAlpha" type="matrix" values="0 0 0 0 0 0 0 0 0 0 0 0 0 0 0 0 0 0 127 0" result="hardAlpha"/>
<feOffset dy="3.99822"/>
<feGaussianBlur stdDeviation="3.99822"/>
<feComposite in2="hardAlpha" operator="out"/>
<feColorMatrix type="matrix" values="0 0 0 0 0 0 0 0 0 0 0 0 0 0 0 0 0 0 0.05 0"/>
<feBlend mode="normal" in2="BackgroundImageFix" result="effect1_dropShadow_5186_13086"/>
<feColorMatrix in="SourceAlpha" type="matrix" values="0 0 0 0 0 0 0 0 0 0 0 0 0 0 0 0 0 0 127 0" result="hardAlpha"/>
<feOffset dy="1.99911"/>
<feGaussianBlur stdDeviation="1.99911"/>
<feComposite in2="hardAlpha" operator="out"/>
<feColorMatrix type="matrix" values="0 0 0 0 0 0 0 0 0 0 0 0 0 0 0 0 0 0 0.07 0"/>
<feBlend mode="normal" in2="effect1_dropShadow_5186_13086" result="effect2_dropShadow_5186_13086"/>
<feBlend mode="normal" in="SourceGraphic" in2="effect2_dropShadow_5186_13086" result="shape"/>
</filter>
<filter id="filter1_dd_5186_13086" x="106.882" y="141.941" width="370.389" height="134.021" filterUnits="userSpaceOnUse" color-interpolation-filters="sRGB">
<feFlood flood-opacity="0" result="BackgroundImageFix"/>
<feColorMatrix in="SourceAlpha" type="matrix" values="0 0 0 0 0 0 0 0 0 0 0 0 0 0 0 0 0 0 127 0" result="hardAlpha"/>
<feOffset dy="4.05902"/>
<feGaussianBlur stdDeviation="4.05902"/>
<feComposite in2="hardAlpha" operator="out"/>
<feColorMatrix type="matrix" values="0 0 0 0 0 0 0 0 0 0 0 0 0 0 0 0 0 0 0.05 0"/>
<feBlend mode="normal" in2="BackgroundImageFix" result="effect1_dropShadow_5186_13086"/>
<feColorMatrix in="SourceAlpha" type="matrix" values="0 0 0 0 0 0 0 0 0 0 0 0 0 0 0 0 0 0 127 0" result="hardAlpha"/>
<feOffset dy="2.02951"/>
<feGaussianBlur stdDeviation="2.02951"/>
<feComposite in2="hardAlpha" operator="out"/>
<feColorMatrix type="matrix" values="0 0 0 0 0 0 0 0 0 0 0 0 0 0 0 0 0 0 0.07 0"/>
<feBlend mode="normal" in2="effect1_dropShadow_5186_13086" result="effect2_dropShadow_5186_13086"/>
<feBlend mode="normal" in="SourceGraphic" in2="effect2_dropShadow_5186_13086" result="shape"/>
</filter>
</defs>
</svg>
