<svg width="69" height="69" viewBox="0 0 69 69" fill="none" xmlns="http://www.w3.org/2000/svg">
<rect y="0.000488281" width="68.1387" height="68.1387" rx="6.13698" fill="url(#paint0_linear_467_2055)"/>
<path d="M46.9438 26.7132H50.6221C51.1099 26.7132 51.5777 26.907 51.9226 27.2519C52.2675 27.5968 52.4613 28.0646 52.4613 28.5524V50.6224C52.4613 51.1102 52.2675 51.578 51.9226 51.9229C51.5777 52.2678 51.1099 52.4616 50.6221 52.4616H35.9088C35.421 52.4616 34.9532 52.2678 34.6083 51.9229C34.2634 51.578 34.0696 51.1102 34.0696 50.6224V48.7832H19.3563C18.8685 48.7832 18.4007 48.5895 18.0558 48.2445C17.7109 47.8996 17.5171 47.4318 17.5171 46.9441V17.5174C17.5171 17.0296 17.7109 16.5618 18.0558 16.2169C18.4007 15.872 18.8685 15.6782 19.3563 15.6782H45.1046C45.5924 15.6782 46.0602 15.872 46.4051 16.2169C46.75 16.5618 46.9438 17.0296 46.9438 17.5174V26.7132ZM43.2654 26.7132V19.3566H21.1954V45.1049H34.0696V28.5524C34.0696 28.0646 34.2634 27.5968 34.6083 27.2519C34.9532 26.907 35.421 26.7132 35.9088 26.7132H43.2654ZM37.7479 30.3916V48.7832H48.7829V30.3916H37.7479Z" fill="white"/>
<defs>
<linearGradient id="paint0_linear_467_2055" x1="34.0693" y1="0.000488281" x2="34.0693" y2="68.1392" gradientUnits="userSpaceOnUse">
<stop stop-color="#D579CC"/>
<stop offset="1" stop-color="#AC32A0"/>
</linearGradient>
</defs>
</svg>
