<svg width="70" height="71" viewBox="0 0 70 71" fill="none" xmlns="http://www.w3.org/2000/svg">
<rect y="0.0698242" width="70" height="70" rx="6.13698" fill="url(#paint0_linear_467_2050)"/>
<path d="M31.2461 48.1948H21.8711C20.8765 48.1948 19.9227 47.7997 19.2194 47.0965C18.5162 46.3932 18.1211 45.4394 18.1211 44.4448V25.6948M18.1211 25.6948C18.1211 24.7003 18.5162 23.7464 19.2194 23.0432C19.9227 22.3399 20.8765 21.9448 21.8711 21.9448H48.1211C49.1157 21.9448 50.0695 22.3399 50.7727 23.0432C51.476 23.7464 51.8711 24.7003 51.8711 25.6948M18.1211 25.6948L33.1211 35.7167M51.8711 25.6948V33.1948M51.8711 25.6948L40.6211 33.1948" stroke="white" stroke-width="3" stroke-linecap="round" stroke-linejoin="round"/>
<path d="M38.7461 51.9448V44.4448C38.7461 43.4503 39.1412 42.4964 39.8444 41.7932C40.5477 41.0899 41.5015 40.6948 42.4961 40.6948C43.4907 40.6948 44.4445 41.0899 45.1477 41.7932C45.851 42.4964 46.2461 43.4503 46.2461 44.4448V51.9448M38.7461 48.1948H46.2461M51.8711 40.6948V51.9448" stroke="white" stroke-width="3" stroke-linecap="round" stroke-linejoin="round"/>
<defs>
<linearGradient id="paint0_linear_467_2050" x1="35" y1="0.0698242" x2="35" y2="70.0698" gradientUnits="userSpaceOnUse">
<stop stop-color="#71B1CD"/>
<stop offset="1" stop-color="#3287AC"/>
</linearGradient>
</defs>
</svg>
