<svg width="330" height="250" viewBox="0 0 330 250" fill="none" xmlns="http://www.w3.org/2000/svg">
<g clip-path="url(#clip0_1125_3386)">
<path fill-rule="evenodd" clip-rule="evenodd" d="M297.576 86.3118C309.351 119.905 287.48 154.618 267.711 182.989C251.1 206.827 225.731 219.567 198.557 228.412C170.997 237.383 142.356 243.243 114.801 232.762C82.8186 220.596 47.1207 201.73 38.6057 167.568C30.2519 134.052 59.7704 106.76 76.0338 77.2267C91.0726 49.9176 99.3957 14.2998 128.339 4.62017C157.505 -5.13413 186.138 17.2948 214.418 30.9459C245.4 45.9008 285.911 53.0322 297.576 86.3118Z" fill="#FCF7FF"/>
<g filter="url(#filter0_d_1125_3386)">
<rect x="18.5" y="10.2394" width="214.215" height="108.449" rx="7.49175" fill="#8B6DCB"/>
<path d="M48.5053 46.8833H47.1418L41.6579 38.5675V46.8833H40.2944V36.4248H41.6579L47.1418 44.7257V36.4248H48.5053V46.8833ZM54.4107 47.0182C53.6415 47.0182 52.9423 46.8433 52.313 46.4937C51.6937 46.1441 51.2042 45.6497 50.8446 45.0104C50.495 44.3611 50.3202 43.6119 50.3202 42.7628C50.3202 41.9238 50.5 41.1846 50.8596 40.5453C51.2292 39.896 51.7286 39.4015 52.3579 39.0619C52.9873 38.7123 53.6915 38.5375 54.4706 38.5375C55.2498 38.5375 55.954 38.7123 56.5833 39.0619C57.2126 39.4015 57.7071 39.891 58.0667 40.5303C58.4363 41.1696 58.6211 41.9138 58.6211 42.7628C58.6211 43.6119 58.4313 44.3611 58.0517 45.0104C57.6821 45.6497 57.1776 46.1441 56.5383 46.4937C55.899 46.8433 55.1898 47.0182 54.4107 47.0182ZM54.4107 45.8195C54.9001 45.8195 55.3596 45.7046 55.7892 45.4749C56.2187 45.2451 56.5633 44.9005 56.823 44.441C57.0927 43.9815 57.2276 43.4221 57.2276 42.7628C57.2276 42.1036 57.0977 41.5442 56.838 41.0847C56.5783 40.6252 56.2387 40.2856 55.8191 40.0658C55.3996 39.8361 54.9451 39.7212 54.4556 39.7212C53.9562 39.7212 53.4967 39.8361 53.0772 40.0658C52.6676 40.2856 52.338 40.6252 52.0882 41.0847C51.8385 41.5442 51.7137 42.1036 51.7137 42.7628C51.7137 43.4321 51.8335 43.9965 52.0733 44.456C52.323 44.9155 52.6526 45.2601 53.0622 45.4898C53.4717 45.7096 53.9212 45.8195 54.4107 45.8195ZM60.8483 46.9732C60.5886 46.9732 60.3689 46.8833 60.1891 46.7035C60.0092 46.5237 59.9193 46.3039 59.9193 46.0442C59.9193 45.7845 60.0092 45.5648 60.1891 45.385C60.3689 45.2051 60.5886 45.1152 60.8483 45.1152C61.0981 45.1152 61.3078 45.2051 61.4776 45.385C61.6574 45.5648 61.7473 45.7845 61.7473 46.0442C61.7473 46.3039 61.6574 46.5237 61.4776 46.7035C61.3078 46.8833 61.0981 46.9732 60.8483 46.9732ZM71.1354 47.0182C70.3663 47.0182 69.6671 46.8433 69.0377 46.4937C68.4184 46.1441 67.929 45.6497 67.5694 45.0104C67.2197 44.3611 67.0449 43.6119 67.0449 42.7628C67.0449 41.9238 67.2247 41.1846 67.5843 40.5453C67.9539 39.896 68.4534 39.4015 69.0827 39.0619C69.712 38.7123 70.4162 38.5375 71.1954 38.5375C71.9745 38.5375 72.6787 38.7123 73.308 39.0619C73.9374 39.4015 74.4318 39.891 74.7914 40.5303C75.161 41.1696 75.3458 41.9138 75.3458 42.7628C75.3458 43.6119 75.156 44.3611 74.7764 45.0104C74.4068 45.6497 73.9024 46.1441 73.2631 46.4937C72.6238 46.8433 71.9146 47.0182 71.1354 47.0182ZM71.1354 45.8195C71.6249 45.8195 72.0844 45.7046 72.5139 45.4749C72.9434 45.2451 73.2881 44.9005 73.5478 44.441C73.8175 43.9815 73.9523 43.4221 73.9523 42.7628C73.9523 42.1036 73.8225 41.5442 73.5628 41.0847C73.3031 40.6252 72.9634 40.2856 72.5439 40.0658C72.1243 39.8361 71.6698 39.7212 71.1804 39.7212C70.6809 39.7212 70.2214 39.8361 69.8019 40.0658C69.3924 40.2856 69.0627 40.6252 68.813 41.0847C68.5633 41.5442 68.4384 42.1036 68.4384 42.7628C68.4384 43.4321 68.5583 43.9965 68.798 44.456C69.0477 44.9155 69.3774 45.2601 69.7869 45.4898C70.1965 45.7096 70.646 45.8195 71.1354 45.8195ZM80.4799 39.7961H78.7568V46.8833H77.3933V39.7961H76.3294V38.6723H77.3933V38.088C77.3933 37.169 77.628 36.4997 78.0975 36.0802C78.577 35.6507 79.3411 35.4359 80.39 35.4359V36.5747C79.7906 36.5747 79.3661 36.6945 79.1164 36.9343C78.8766 37.164 78.7568 37.5486 78.7568 38.088V38.6723H80.4799V39.7961ZM94.6948 36.4398L90.7541 46.8833H89.1808L85.2402 36.4398H86.6936L89.975 45.4449L93.2564 36.4398H94.6948ZM96.8941 37.3388C96.6344 37.3388 96.4146 37.2489 96.2348 37.0691C96.055 36.8893 95.9651 36.6695 95.9651 36.4098C95.9651 36.1501 96.055 35.9304 96.2348 35.7506C96.4146 35.5708 96.6344 35.4809 96.8941 35.4809C97.1438 35.4809 97.3536 35.5708 97.5234 35.7506C97.7032 35.9304 97.7931 36.1501 97.7931 36.4098C97.7931 36.6695 97.7032 36.8893 97.5234 37.0691C97.3536 37.2489 97.1438 37.3388 96.8941 37.3388ZM97.5533 38.6723V46.8833H96.1898V38.6723H97.5533ZM107.369 42.4632C107.369 42.7229 107.354 42.9976 107.324 43.2873H100.761C100.811 44.0964 101.086 44.7307 101.585 45.1902C102.095 45.6397 102.709 45.8644 103.428 45.8644C104.018 45.8644 104.507 45.7296 104.897 45.4599C105.296 45.1802 105.576 44.8106 105.736 44.3511H107.204C106.984 45.1402 106.545 45.7845 105.886 46.284C105.226 46.7734 104.407 47.0182 103.428 47.0182C102.649 47.0182 101.95 46.8433 101.331 46.4937C100.721 46.1441 100.242 45.6497 99.8922 45.0104C99.5426 44.3611 99.3678 43.6119 99.3678 42.7628C99.3678 41.9138 99.5376 41.1696 99.8772 40.5303C100.217 39.891 100.691 39.4015 101.301 39.0619C101.92 38.7123 102.629 38.5375 103.428 38.5375C104.207 38.5375 104.897 38.7073 105.496 39.0469C106.095 39.3866 106.555 39.856 106.874 40.4554C107.204 41.0447 107.369 41.714 107.369 42.4632ZM105.96 42.1785C105.96 41.6591 105.846 41.2145 105.616 40.8449C105.386 40.4654 105.071 40.1807 104.672 39.9909C104.282 39.7911 103.848 39.6912 103.368 39.6912C102.679 39.6912 102.09 39.911 101.6 40.3505C101.121 40.79 100.846 41.3993 100.776 42.1785H105.96ZM120.107 38.6723L117.545 46.8833H116.136L114.158 40.3655L112.18 46.8833H110.772L108.195 38.6723H109.588L111.476 45.5648L113.514 38.6723H114.907L116.9 45.5797L118.758 38.6723H120.107ZM124.367 47.0182C123.737 47.0182 123.173 46.9133 122.674 46.7035C122.174 46.4837 121.78 46.1841 121.49 45.8045C121.2 45.4149 121.04 44.9704 121.01 44.471H122.419C122.459 44.8805 122.649 45.2151 122.988 45.4749C123.338 45.7346 123.792 45.8644 124.352 45.8644C124.871 45.8644 125.281 45.7495 125.58 45.5198C125.88 45.2901 126.03 45.0004 126.03 44.6508C126.03 44.2912 125.87 44.0264 125.55 43.8566C125.231 43.6768 124.736 43.502 124.067 43.3322C123.458 43.1724 122.958 43.0126 122.569 42.8527C122.189 42.6829 121.859 42.4382 121.58 42.1185C121.31 41.7889 121.175 41.3594 121.175 40.83C121.175 40.4104 121.3 40.0259 121.55 39.6762C121.8 39.3266 122.154 39.0519 122.614 38.8521C123.073 38.6424 123.598 38.5375 124.187 38.5375C125.096 38.5375 125.83 38.7672 126.389 39.2267C126.949 39.6862 127.249 40.3155 127.288 41.1147H125.925C125.895 40.6851 125.72 40.3405 125.401 40.0808C125.091 39.8211 124.671 39.6912 124.142 39.6912C123.652 39.6912 123.263 39.7961 122.973 40.0059C122.684 40.2156 122.539 40.4903 122.539 40.83C122.539 41.0997 122.624 41.3244 122.793 41.5042C122.973 41.674 123.193 41.8139 123.453 41.9238C123.722 42.0237 124.092 42.1385 124.561 42.2684C125.151 42.4282 125.63 42.588 126 42.7479C126.369 42.8977 126.684 43.1274 126.944 43.4371C127.214 43.7468 127.353 44.1513 127.363 44.6508C127.363 45.1003 127.239 45.5048 126.989 45.8644C126.739 46.224 126.384 46.5087 125.925 46.7185C125.475 46.9183 124.956 47.0182 124.367 47.0182Z" fill="white"/>
<g clip-path="url(#clip1_1125_3386)">
<path d="M203.068 50.8735C200.684 50.8735 198.397 49.9264 196.711 48.2404C195.025 46.5544 194.078 44.2678 194.078 41.8834C194.078 39.4991 195.025 37.2124 196.711 35.5265C198.397 33.8405 200.684 32.8933 203.068 32.8933C205.453 32.8933 207.739 33.8405 209.425 35.5265C211.111 37.2124 212.058 39.4991 212.058 41.8834C212.058 44.2678 211.111 46.5544 209.425 48.2404C207.739 49.9264 205.453 50.8735 203.068 50.8735V50.8735ZM199.918 44.2388C199.865 44.2907 199.822 44.3527 199.792 44.4212C199.763 44.4898 199.747 44.5635 199.747 44.6381C199.746 44.7127 199.76 44.7867 199.789 44.8558C199.817 44.9248 199.859 44.9875 199.911 45.0403C199.964 45.0931 200.027 45.1348 200.096 45.163C200.165 45.1913 200.239 45.2055 200.314 45.2049C200.388 45.2042 200.462 45.1887 200.53 45.1593C200.599 45.1298 200.661 45.087 200.713 45.0333L205.316 40.4304L205.316 43.541C205.316 43.69 205.375 43.8329 205.48 43.9383C205.586 44.0437 205.729 44.1029 205.878 44.1029C206.027 44.1029 206.17 44.0437 206.275 43.9383C206.38 43.8329 206.44 43.69 206.44 43.541L206.44 39.074C206.44 38.925 206.38 38.7821 206.275 38.6767C206.17 38.5713 206.027 38.5121 205.878 38.5121L201.411 38.5121C201.262 38.5121 201.119 38.5713 201.013 38.6767C200.908 38.7821 200.849 38.925 200.849 39.074C200.849 39.223 200.908 39.366 201.013 39.4713C201.119 39.5767 201.262 39.6359 201.411 39.6359L204.521 39.6359L199.918 44.2388Z" fill="white"/>
</g>
<path d="M53.7855 70.6464H45.0471V75.2583C45.4247 74.7908 45.9641 74.4132 46.6653 74.1255C47.3666 73.8199 48.1127 73.667 48.9039 73.667C50.3423 73.667 51.52 73.9817 52.437 74.611C53.354 75.2403 54.0192 76.0494 54.4328 77.0383C54.8463 78.0093 55.0531 79.0521 55.0531 80.1669C55.0531 82.2346 54.4598 83.8978 53.2731 85.1564C52.1044 86.415 50.4322 87.0443 48.2566 87.0443C46.2068 87.0443 44.5706 86.5319 43.348 85.507C42.1253 84.4821 41.4331 83.1426 41.2713 81.4884H44.9392C45.1011 82.2076 45.4607 82.783 46.0181 83.2145C46.5934 83.6461 47.3216 83.8618 48.2026 83.8618C49.2635 83.8618 50.0636 83.5292 50.603 82.8639C51.1424 82.1986 51.4121 81.3176 51.4121 80.2208C51.4121 79.106 51.1334 78.261 50.576 77.6856C50.0366 77.0923 49.2365 76.7956 48.1757 76.7956C47.4205 76.7956 46.7912 76.9844 46.2878 77.362C45.7843 77.7396 45.4247 78.243 45.2089 78.8723H41.5949V67.329H53.7855V70.6464ZM57.9269 76.9574C57.9269 73.8468 58.4843 71.4105 59.5991 69.6485C60.7318 67.8864 62.6018 67.0054 65.2089 67.0054C67.816 67.0054 69.677 67.8864 70.7918 69.6485C71.9245 71.4105 72.4909 73.8468 72.4909 76.9574C72.4909 80.086 71.9245 82.5403 70.7918 84.3203C69.677 86.1004 67.816 86.9904 65.2089 86.9904C62.6018 86.9904 60.7318 86.1004 59.5991 84.3203C58.4843 82.5403 57.9269 80.086 57.9269 76.9574ZM68.769 76.9574C68.769 75.6269 68.6791 74.5121 68.4993 73.6131C68.3375 72.6961 67.9958 71.9499 67.4744 71.3746C66.971 70.7992 66.2158 70.5115 65.2089 70.5115C64.202 70.5115 63.4379 70.7992 62.9164 71.3746C62.413 71.9499 62.0714 72.6961 61.8916 73.6131C61.7297 74.5121 61.6488 75.6269 61.6488 76.9574C61.6488 78.3239 61.7297 79.4746 61.8916 80.4096C62.0534 81.3266 62.395 82.0728 62.9164 82.6482C63.4379 83.2055 64.202 83.4842 65.2089 83.4842C66.2158 83.4842 66.98 83.2055 67.5014 82.6482C68.0228 82.0728 68.3644 81.3266 68.5263 80.4096C68.6881 79.4746 68.769 78.3239 68.769 76.9574Z" fill="white"/>
</g>
<g filter="url(#filter1_d_1125_3386)">
<rect x="153.844" y="156.709" width="167.477" height="85.5854" rx="5.85719" fill="#8B6DCB"/>
<path d="M177.306 185.849H176.24L171.952 179.348V185.849H170.886V177.672H171.952L176.24 184.162V177.672H177.306V185.849ZM181.923 185.954C181.321 185.954 180.775 185.818 180.283 185.544C179.799 185.271 179.416 184.885 179.135 184.385C178.861 183.877 178.725 183.291 178.725 182.628C178.725 181.972 178.865 181.394 179.146 180.894C179.435 180.386 179.826 180 180.318 179.734C180.81 179.461 181.36 179.324 181.97 179.324C182.579 179.324 183.129 179.461 183.621 179.734C184.113 180 184.5 180.382 184.781 180.882C185.07 181.382 185.215 181.964 185.215 182.628C185.215 183.291 185.066 183.877 184.769 184.385C184.48 184.885 184.086 185.271 183.586 185.544C183.086 185.818 182.532 185.954 181.923 185.954ZM181.923 185.017C182.305 185.017 182.665 184.927 183.001 184.748C183.336 184.568 183.606 184.299 183.809 183.94C184.02 183.58 184.125 183.143 184.125 182.628C184.125 182.112 184.024 181.675 183.821 181.316C183.617 180.956 183.352 180.691 183.024 180.519C182.696 180.339 182.341 180.25 181.958 180.25C181.567 180.25 181.208 180.339 180.88 180.519C180.56 180.691 180.302 180.956 180.107 181.316C179.912 181.675 179.814 182.112 179.814 182.628C179.814 183.151 179.908 183.592 180.095 183.951C180.291 184.311 180.548 184.58 180.868 184.76C181.189 184.931 181.54 185.017 181.923 185.017ZM186.956 185.919C186.753 185.919 186.581 185.849 186.44 185.708C186.3 185.568 186.23 185.396 186.23 185.193C186.23 184.99 186.3 184.818 186.44 184.678C186.581 184.537 186.753 184.467 186.956 184.467C187.151 184.467 187.315 184.537 187.448 184.678C187.588 184.818 187.659 184.99 187.659 185.193C187.659 185.396 187.588 185.568 187.448 185.708C187.315 185.849 187.151 185.919 186.956 185.919ZM194.999 185.954C194.397 185.954 193.85 185.818 193.358 185.544C192.874 185.271 192.492 184.885 192.21 184.385C191.937 183.877 191.8 183.291 191.8 182.628C191.8 181.972 191.941 181.394 192.222 180.894C192.511 180.386 192.902 180 193.394 179.734C193.886 179.461 194.436 179.324 195.045 179.324C195.655 179.324 196.205 179.461 196.697 179.734C197.189 180 197.576 180.382 197.857 180.882C198.146 181.382 198.29 181.964 198.29 182.628C198.29 183.291 198.142 183.877 197.845 184.385C197.556 184.885 197.162 185.271 196.662 185.544C196.162 185.818 195.608 185.954 194.999 185.954ZM194.999 185.017C195.381 185.017 195.74 184.927 196.076 184.748C196.412 184.568 196.681 184.299 196.885 183.94C197.095 183.58 197.201 183.143 197.201 182.628C197.201 182.112 197.099 181.675 196.896 181.316C196.693 180.956 196.428 180.691 196.1 180.519C195.772 180.339 195.416 180.25 195.034 180.25C194.643 180.25 194.284 180.339 193.956 180.519C193.636 180.691 193.378 180.956 193.183 181.316C192.988 181.675 192.89 182.112 192.89 182.628C192.89 183.151 192.984 183.592 193.171 183.951C193.366 184.311 193.624 184.58 193.944 184.76C194.264 184.931 194.616 185.017 194.999 185.017ZM202.304 180.308H200.957V185.849H199.891V180.308H199.059V179.43H199.891V178.973C199.891 178.254 200.075 177.731 200.442 177.403C200.816 177.067 201.414 176.899 202.234 176.899V177.79C201.765 177.79 201.433 177.883 201.238 178.071C201.051 178.25 200.957 178.551 200.957 178.973V179.43H202.304V180.308ZM210.969 185.849L209.025 182.51H207.736V185.849H206.67V177.684H209.306C209.923 177.684 210.442 177.79 210.864 178C211.293 178.211 211.614 178.496 211.824 178.856C212.035 179.215 212.141 179.625 212.141 180.086C212.141 180.648 211.977 181.144 211.649 181.573C211.329 182.003 210.844 182.288 210.196 182.428L212.246 185.849H210.969ZM207.736 181.655H209.306C209.884 181.655 210.317 181.515 210.606 181.234C210.895 180.945 211.04 180.562 211.04 180.086C211.04 179.601 210.895 179.226 210.606 178.961C210.325 178.695 209.892 178.563 209.306 178.563H207.736V181.655ZM219.654 182.393C219.654 182.596 219.643 182.811 219.619 183.038H214.488C214.527 183.67 214.742 184.166 215.133 184.525C215.531 184.877 216.011 185.052 216.573 185.052C217.034 185.052 217.417 184.947 217.721 184.736C218.034 184.517 218.253 184.229 218.377 183.869H219.525C219.354 184.486 219.01 184.99 218.495 185.38C217.979 185.763 217.339 185.954 216.573 185.954C215.964 185.954 215.418 185.818 214.933 185.544C214.457 185.271 214.082 184.885 213.809 184.385C213.536 183.877 213.399 183.291 213.399 182.628C213.399 181.964 213.532 181.382 213.797 180.882C214.063 180.382 214.434 180 214.91 179.734C215.394 179.461 215.949 179.324 216.573 179.324C217.183 179.324 217.721 179.457 218.19 179.722C218.659 179.988 219.018 180.355 219.268 180.824C219.525 181.284 219.654 181.808 219.654 182.393ZM218.553 182.171C218.553 181.765 218.463 181.417 218.284 181.128C218.104 180.831 217.858 180.609 217.546 180.46C217.241 180.304 216.901 180.226 216.527 180.226C215.988 180.226 215.527 180.398 215.144 180.742C214.769 181.085 214.555 181.562 214.5 182.171H218.553ZM223.334 185.954C222.842 185.954 222.401 185.872 222.01 185.708C221.62 185.537 221.311 185.302 221.085 185.006C220.858 184.701 220.733 184.353 220.71 183.963H221.811C221.842 184.283 221.991 184.545 222.256 184.748C222.53 184.951 222.885 185.052 223.322 185.052C223.728 185.052 224.049 184.963 224.283 184.783C224.517 184.603 224.634 184.377 224.634 184.104C224.634 183.822 224.509 183.615 224.259 183.483C224.01 183.342 223.623 183.205 223.1 183.073C222.623 182.948 222.233 182.823 221.928 182.698C221.632 182.565 221.374 182.374 221.155 182.124C220.944 181.866 220.839 181.53 220.839 181.116C220.839 180.788 220.936 180.488 221.132 180.214C221.327 179.941 221.604 179.726 221.963 179.57C222.323 179.406 222.733 179.324 223.193 179.324C223.904 179.324 224.478 179.504 224.915 179.863C225.353 180.222 225.587 180.714 225.618 181.339H224.552C224.529 181.003 224.392 180.734 224.142 180.531C223.9 180.328 223.572 180.226 223.158 180.226C222.776 180.226 222.471 180.308 222.245 180.472C222.018 180.636 221.905 180.851 221.905 181.116C221.905 181.327 221.971 181.503 222.104 181.644C222.245 181.776 222.416 181.886 222.619 181.972C222.83 182.05 223.119 182.139 223.486 182.241C223.947 182.366 224.322 182.491 224.611 182.616C224.9 182.733 225.146 182.913 225.349 183.155C225.56 183.397 225.669 183.713 225.677 184.104C225.677 184.455 225.579 184.771 225.384 185.052C225.189 185.334 224.912 185.556 224.552 185.72C224.201 185.876 223.795 185.954 223.334 185.954ZM228.248 180.613C228.459 180.246 228.771 179.941 229.185 179.699C229.607 179.449 230.095 179.324 230.649 179.324C231.219 179.324 231.735 179.461 232.195 179.734C232.664 180.007 233.031 180.394 233.297 180.894C233.562 181.386 233.695 181.96 233.695 182.616C233.695 183.264 233.562 183.842 233.297 184.35C233.031 184.857 232.664 185.252 232.195 185.533C231.735 185.814 231.219 185.954 230.649 185.954C230.103 185.954 229.618 185.833 229.197 185.591C228.783 185.341 228.466 185.033 228.248 184.666V188.895H227.182V179.43H228.248V180.613ZM232.605 182.616C232.605 182.132 232.508 181.71 232.313 181.351C232.117 180.991 231.852 180.718 231.516 180.531C231.188 180.343 230.825 180.25 230.427 180.25C230.036 180.25 229.673 180.347 229.337 180.542C229.009 180.73 228.744 181.007 228.541 181.374C228.345 181.733 228.248 182.151 228.248 182.628C228.248 183.112 228.345 183.537 228.541 183.904C228.744 184.264 229.009 184.541 229.337 184.736C229.673 184.924 230.036 185.017 230.427 185.017C230.825 185.017 231.188 184.924 231.516 184.736C231.852 184.541 232.117 184.264 232.313 183.904C232.508 183.537 232.605 183.108 232.605 182.616ZM237.898 185.954C237.296 185.954 236.75 185.818 236.258 185.544C235.774 185.271 235.391 184.885 235.11 184.385C234.836 183.877 234.7 183.291 234.7 182.628C234.7 181.972 234.84 181.394 235.122 180.894C235.41 180.386 235.801 180 236.293 179.734C236.785 179.461 237.336 179.324 237.945 179.324C238.554 179.324 239.104 179.461 239.596 179.734C240.088 180 240.475 180.382 240.756 180.882C241.045 181.382 241.19 181.964 241.19 182.628C241.19 183.291 241.041 183.877 240.744 184.385C240.455 184.885 240.061 185.271 239.561 185.544C239.061 185.818 238.507 185.954 237.898 185.954ZM237.898 185.017C238.28 185.017 238.64 184.927 238.976 184.748C239.311 184.568 239.581 184.299 239.784 183.94C239.995 183.58 240.1 183.143 240.1 182.628C240.1 182.112 239.999 181.675 239.796 181.316C239.593 180.956 239.327 180.691 238.999 180.519C238.671 180.339 238.316 180.25 237.933 180.25C237.542 180.25 237.183 180.339 236.855 180.519C236.535 180.691 236.277 180.956 236.082 181.316C235.887 181.675 235.789 182.112 235.789 182.628C235.789 183.151 235.883 183.592 236.07 183.951C236.266 184.311 236.523 184.58 236.844 184.76C237.164 184.931 237.515 185.017 237.898 185.017ZM245.719 179.312C246.5 179.312 247.132 179.551 247.617 180.027C248.101 180.496 248.343 181.175 248.343 182.065V185.849H247.289V182.218C247.289 181.577 247.129 181.089 246.808 180.753C246.488 180.41 246.051 180.238 245.496 180.238C244.934 180.238 244.485 180.414 244.149 180.765C243.821 181.116 243.657 181.628 243.657 182.3V185.849H242.591V179.43H243.657V180.343C243.868 180.015 244.153 179.761 244.512 179.582C244.879 179.402 245.282 179.312 245.719 179.312ZM252.357 185.954C251.865 185.954 251.424 185.872 251.033 185.708C250.643 185.537 250.334 185.302 250.108 185.006C249.881 184.701 249.756 184.353 249.733 183.963H250.834C250.865 184.283 251.014 184.545 251.279 184.748C251.552 184.951 251.908 185.052 252.345 185.052C252.751 185.052 253.071 184.963 253.306 184.783C253.54 184.603 253.657 184.377 253.657 184.104C253.657 183.822 253.532 183.615 253.282 183.483C253.032 183.342 252.646 183.205 252.123 183.073C251.646 182.948 251.256 182.823 250.951 182.698C250.654 182.565 250.397 182.374 250.178 182.124C249.967 181.866 249.862 181.53 249.862 181.116C249.862 180.788 249.959 180.488 250.155 180.214C250.35 179.941 250.627 179.726 250.986 179.57C251.346 179.406 251.756 179.324 252.216 179.324C252.927 179.324 253.501 179.504 253.938 179.863C254.376 180.222 254.61 180.714 254.641 181.339H253.575C253.552 181.003 253.415 180.734 253.165 180.531C252.923 180.328 252.595 180.226 252.181 180.226C251.798 180.226 251.494 180.308 251.267 180.472C251.041 180.636 250.928 180.851 250.928 181.116C250.928 181.327 250.994 181.503 251.127 181.644C251.267 181.776 251.439 181.886 251.642 181.972C251.853 182.05 252.142 182.139 252.509 182.241C252.97 182.366 253.345 182.491 253.634 182.616C253.923 182.733 254.169 182.913 254.372 183.155C254.583 183.397 254.692 183.713 254.7 184.104C254.7 184.455 254.602 184.771 254.407 185.052C254.212 185.334 253.934 185.556 253.575 185.72C253.224 185.876 252.818 185.954 252.357 185.954ZM262.062 182.393C262.062 182.596 262.05 182.811 262.027 183.038H256.896C256.935 183.67 257.15 184.166 257.54 184.525C257.938 184.877 258.419 185.052 258.981 185.052C259.442 185.052 259.824 184.947 260.129 184.736C260.441 184.517 260.66 184.229 260.785 183.869H261.933C261.761 184.486 261.417 184.99 260.902 185.38C260.387 185.763 259.746 185.954 258.981 185.954C258.372 185.954 257.825 185.818 257.341 185.544C256.864 185.271 256.49 184.885 256.216 184.385C255.943 183.877 255.806 183.291 255.806 182.628C255.806 181.964 255.939 181.382 256.205 180.882C256.47 180.382 256.841 180 257.317 179.734C257.802 179.461 258.356 179.324 258.981 179.324C259.59 179.324 260.129 179.457 260.597 179.722C261.066 179.988 261.425 180.355 261.675 180.824C261.933 181.284 262.062 181.808 262.062 182.393ZM260.961 182.171C260.961 181.765 260.871 181.417 260.691 181.128C260.512 180.831 260.266 180.609 259.953 180.46C259.649 180.304 259.309 180.226 258.934 180.226C258.395 180.226 257.934 180.398 257.552 180.742C257.177 181.085 256.962 181.562 256.907 182.171H260.961Z" fill="white"/>
<g clip-path="url(#clip2_1125_3386)">
<path d="M298.161 188.878C296.297 188.878 294.51 188.137 293.191 186.819C291.873 185.501 291.133 183.713 291.133 181.849C291.133 179.985 291.873 178.197 293.191 176.879C294.51 175.561 296.297 174.82 298.161 174.82C300.026 174.82 301.813 175.561 303.131 176.879C304.45 178.197 305.19 179.985 305.19 181.849C305.19 183.713 304.45 185.501 303.131 186.819C301.813 188.137 300.026 188.878 298.161 188.878V188.878ZM295.699 183.691C295.657 183.731 295.623 183.78 295.6 183.833C295.577 183.887 295.565 183.944 295.565 184.003C295.564 184.061 295.575 184.119 295.597 184.173C295.619 184.227 295.652 184.276 295.693 184.317C295.735 184.358 295.784 184.391 295.838 184.413C295.892 184.435 295.949 184.446 296.008 184.446C296.066 184.445 296.124 184.433 296.177 184.41C296.231 184.387 296.279 184.354 296.32 184.312L299.919 180.713L299.919 183.145C299.919 183.261 299.965 183.373 300.047 183.456C300.13 183.538 300.241 183.584 300.358 183.584C300.474 183.584 300.586 183.538 300.669 183.456C300.751 183.373 300.797 183.261 300.797 183.145L300.797 179.653C300.797 179.536 300.751 179.424 300.669 179.342C300.586 179.26 300.474 179.213 300.358 179.213L296.866 179.213C296.749 179.213 296.637 179.26 296.555 179.342C296.473 179.424 296.426 179.536 296.426 179.653C296.426 179.769 296.473 179.881 296.555 179.963C296.637 180.046 296.749 180.092 296.866 180.092L299.297 180.092L295.699 183.691Z" fill="white"/>
</g>
<path d="M171.144 206.561C171.214 205.155 171.706 204.073 172.62 203.314C173.548 202.541 174.764 202.154 176.268 202.154C177.294 202.154 178.173 202.337 178.904 202.702C179.635 203.054 180.183 203.539 180.548 204.157C180.928 204.762 181.118 205.45 181.118 206.224C181.118 207.109 180.886 207.861 180.422 208.48C179.972 209.084 179.431 209.492 178.798 209.703V209.787C179.614 210.04 180.246 210.49 180.696 211.137C181.16 211.783 181.392 212.613 181.392 213.625C181.392 214.468 181.195 215.22 180.801 215.881C180.422 216.542 179.853 217.062 179.093 217.441C178.348 217.807 177.449 217.989 176.394 217.989C174.806 217.989 173.513 217.589 172.515 216.788C171.517 215.986 170.989 214.805 170.933 213.245H173.801C173.829 213.934 174.061 214.489 174.497 214.911C174.947 215.319 175.558 215.522 176.331 215.522C177.048 215.522 177.596 215.326 177.976 214.932C178.37 214.524 178.566 214.004 178.566 213.372C178.566 212.528 178.299 211.924 177.765 211.558C177.231 211.193 176.402 211.01 175.277 211.01H174.665V208.585H175.277C177.273 208.585 178.271 207.917 178.271 206.582C178.271 205.978 178.088 205.507 177.723 205.169C177.371 204.832 176.858 204.663 176.184 204.663C175.523 204.663 175.01 204.846 174.644 205.211C174.293 205.563 174.089 206.013 174.033 206.561H171.144ZM184.652 214.552C186.002 213.428 187.077 212.493 187.879 211.748C188.68 210.989 189.348 210.202 189.882 209.386C190.416 208.571 190.683 207.77 190.683 206.983C190.683 206.266 190.514 205.703 190.177 205.296C189.84 204.888 189.319 204.684 188.617 204.684C187.914 204.684 187.372 204.923 186.993 205.401C186.613 205.865 186.417 206.505 186.403 207.32H183.535C183.591 205.633 184.09 204.354 185.032 203.482C185.988 202.611 187.197 202.175 188.659 202.175C190.261 202.175 191.491 202.604 192.349 203.461C193.206 204.305 193.635 205.422 193.635 206.814C193.635 207.91 193.34 208.958 192.749 209.956C192.159 210.954 191.484 211.825 190.725 212.57C189.966 213.301 188.975 214.187 187.752 215.227H193.972V217.673H183.556V215.48L184.652 214.552Z" fill="white"/>
</g>
<rect x="50.6328" y="173.903" width="46.7379" height="46.7379" rx="23.3689" fill="#EED2FF"/>
<path d="M74.0113 194.026C73.1523 194.032 72.33 194.376 71.7225 194.983C71.1151 195.591 70.7713 196.413 70.7656 197.272C70.7656 199.048 72.2348 200.518 74.0113 200.518C75.7867 200.518 77.257 199.048 77.257 197.272C77.257 195.497 75.7867 194.026 74.0113 194.026Z" fill="#525252"/>
<path d="M74.018 189.699C65.7599 189.699 63.278 196.858 63.2553 196.93L63.1406 197.272L63.2542 197.614C63.278 197.686 65.7599 204.845 74.018 204.845C82.2761 204.845 84.758 197.686 84.7807 197.614L84.8954 197.272L84.7818 196.93C84.758 196.858 82.2761 189.699 74.018 189.699ZM74.018 202.682C68.2288 202.682 65.986 198.521 65.4429 197.272C65.9882 196.019 68.232 191.863 74.018 191.863C79.8072 191.863 82.05 196.024 82.5931 197.272C82.0478 198.525 79.804 202.682 74.018 202.682V202.682Z" fill="#525252"/>
<rect x="252.188" y="61.927" width="59.3961" height="59.3961" rx="29.698" fill="#EED2FF"/>
<g clip-path="url(#clip3_1125_3386)">
<path d="M298.314 76.5408C298.389 76.3535 298.407 76.1482 298.367 75.9504C298.326 75.7527 298.228 75.5712 298.086 75.4285C297.943 75.2858 297.761 75.1881 297.564 75.1475C297.366 75.1069 297.161 75.1253 296.973 75.2003L266.972 87.2012C266.708 87.307 266.478 87.4836 266.308 87.7116C266.137 87.9396 266.033 88.2102 266.007 88.4935C265.98 88.7769 266.033 89.062 266.158 89.3176C266.283 89.5732 266.476 89.7893 266.716 89.9421L277.018 96.4963L280.175 101.458C280.324 101.683 280.556 101.841 280.82 101.897C281.084 101.954 281.36 101.904 281.588 101.759C281.816 101.615 281.978 101.386 282.039 101.123C282.101 100.86 282.056 100.584 281.916 100.353L279.078 95.8941L294.533 80.4387L290.625 90.2102C290.572 90.3365 290.544 90.4722 290.543 90.6094C290.542 90.7466 290.569 90.8826 290.622 91.0093C290.675 91.136 290.752 91.251 290.85 91.3474C290.947 91.4438 291.063 91.5198 291.19 91.5708C291.318 91.6219 291.454 91.647 291.591 91.6447C291.729 91.6424 291.864 91.6128 291.99 91.5575C292.115 91.5023 292.228 91.4225 292.323 91.3229C292.417 91.2232 292.491 91.1058 292.539 90.9774L298.314 76.5408V76.5408ZM293.075 78.9806L277.62 94.436L268.671 88.7418L293.075 78.9806V78.9806Z" fill="#525252"/>
<path d="M298.397 100.906C298.397 102.82 297.637 104.656 296.283 106.01C294.93 107.363 293.094 108.124 291.179 108.124C289.265 108.124 287.429 107.363 286.075 106.01C284.721 104.656 283.961 102.82 283.961 100.906C283.961 98.9911 284.721 97.1551 286.075 95.8014C287.429 94.4478 289.265 93.6873 291.179 93.6873C293.094 93.6873 294.93 94.4478 296.283 95.8014C297.637 97.1551 298.397 98.9911 298.397 100.906V100.906ZM294.287 97.4428C294.171 97.3732 294.042 97.3271 293.908 97.3073C293.774 97.2874 293.638 97.2942 293.506 97.3271C293.375 97.36 293.251 97.4185 293.143 97.4993C293.034 97.58 292.942 97.6813 292.872 97.7975L290.459 101.819L289.331 100.691C289.138 100.497 288.875 100.389 288.601 100.389C288.327 100.389 288.065 100.497 287.871 100.691C287.678 100.885 287.569 101.147 287.569 101.421C287.569 101.695 287.678 101.958 287.871 102.151L289.467 103.745C289.634 103.912 289.836 104.038 290.058 104.115C290.28 104.192 290.517 104.217 290.751 104.188C290.984 104.159 291.208 104.078 291.405 103.95C291.602 103.822 291.768 103.65 291.889 103.448L294.642 98.8576C294.712 98.7414 294.758 98.6127 294.777 98.4787C294.797 98.3447 294.791 98.2081 294.758 98.0767C294.725 97.9453 294.666 97.8217 294.585 97.713C294.505 97.6042 294.403 97.5124 294.287 97.4428V97.4428Z" fill="#525252"/>
</g>
</g>
<defs>
<filter id="filter0_d_1125_3386" x="14.3805" y="8.17962" width="222.458" height="116.688" filterUnits="userSpaceOnUse" color-interpolation-filters="sRGB">
<feFlood flood-opacity="0" result="BackgroundImageFix"/>
<feColorMatrix in="SourceAlpha" type="matrix" values="0 0 0 0 0 0 0 0 0 0 0 0 0 0 0 0 0 0 127 0" result="hardAlpha"/>
<feOffset dy="2.05976"/>
<feGaussianBlur stdDeviation="2.05976"/>
<feComposite in2="hardAlpha" operator="out"/>
<feColorMatrix type="matrix" values="0 0 0 0 0 0 0 0 0 0 0 0 0 0 0 0 0 0 0.05 0"/>
<feBlend mode="normal" in2="BackgroundImageFix" result="effect1_dropShadow_1125_3386"/>
<feBlend mode="normal" in="SourceGraphic" in2="effect1_dropShadow_1125_3386" result="shape"/>
</filter>
<filter id="filter1_d_1125_3386" x="150.008" y="154.791" width="175.148" height="93.257" filterUnits="userSpaceOnUse" color-interpolation-filters="sRGB">
<feFlood flood-opacity="0" result="BackgroundImageFix"/>
<feColorMatrix in="SourceAlpha" type="matrix" values="0 0 0 0 0 0 0 0 0 0 0 0 0 0 0 0 0 0 127 0" result="hardAlpha"/>
<feOffset dy="1.91788"/>
<feGaussianBlur stdDeviation="1.91788"/>
<feComposite in2="hardAlpha" operator="out"/>
<feColorMatrix type="matrix" values="0 0 0 0 0 0 0 0 0 0 0 0 0 0 0 0 0 0 0.05 0"/>
<feBlend mode="normal" in2="BackgroundImageFix" result="effect1_dropShadow_1125_3386"/>
<feBlend mode="normal" in="SourceGraphic" in2="effect1_dropShadow_1125_3386" result="shape"/>
</filter>
<clipPath id="clip0_1125_3386">
<rect width="329.724" height="250" fill="white"/>
</clipPath>
<clipPath id="clip1_1125_3386">
<rect width="17.9802" height="17.9802" fill="white" transform="translate(194.086 50.8734) rotate(-90)"/>
</clipPath>
<clipPath id="clip2_1125_3386">
<rect width="14.0573" height="14.0573" fill="white" transform="translate(291.125 188.878) rotate(-90)"/>
</clipPath>
<clipPath id="clip3_1125_3386">
<rect width="32.9978" height="32.9978" fill="white" transform="translate(265.383 75.1261)"/>
</clipPath>
</defs>
</svg>
