<svg width="458" height="358" viewBox="0 0 458 358" fill="none" xmlns="http://www.w3.org/2000/svg">
<ellipse cx="365.978" cy="208.504" rx="92.0211" ry="92.0218" fill="#F1D9FF"/>
<g filter="url(#filter0_d_354_2380)">
<g clip-path="url(#clip0_354_2380)">
<rect width="354.048" height="40.7887" transform="translate(70 3)" fill="#146EF5"/>
<g clip-path="url(#clip1_354_2380)">
<path d="M100.395 17.1572L94.0129 29.6322H88.0187L90.6895 24.4622H90.5695C88.3662 27.3222 85.0787 29.2056 80.3945 29.6322V24.5339C80.3945 24.5339 83.3912 24.3564 85.1529 22.5047H80.3945V17.1572H85.742V21.5556L85.862 21.5547L88.047 17.1572H92.092V21.5272H92.212L94.4787 17.1572H100.395Z" fill="white"/>
</g>
<rect x="116.699" y="21.4453" width="29.4505" height="3.89789" rx="1.73239" fill="#C9C9C9"/>
<rect x="158.277" y="21.4453" width="29.4505" height="3.89789" rx="1.73239" fill="#C9C9C9"/>
<rect x="199.855" y="21.4453" width="29.4505" height="3.89789" rx="1.73239" fill="#C9C9C9"/>
<rect x="241.43" y="21.4453" width="29.4505" height="3.89789" rx="1.73239" fill="#C9C9C9"/>
<rect x="283.008" y="21.4453" width="29.4505" height="3.89789" rx="1.73239" fill="#C9C9C9"/>
<rect x="324.586" y="21.4453" width="29.4505" height="3.89789" rx="1.73239" fill="#C9C9C9"/>
<rect x="370.344" y="14.7324" width="43.3096" height="17.324" rx="8.66198" fill="#3858E9"/>
<rect width="354.048" height="172.373" transform="translate(70 43.7891)" fill="#080808"/>
<path d="M156.088 107.111H154.212C154.102 106.571 153.907 106.097 153.63 105.689C153.358 105.281 153.025 104.938 152.632 104.66C152.244 104.378 151.813 104.166 151.339 104.025C150.865 103.884 150.371 103.813 149.856 103.813C148.919 103.813 148.069 104.05 147.308 104.524C146.552 104.998 145.949 105.696 145.5 106.619C145.057 107.542 144.835 108.674 144.835 110.015C144.835 111.356 145.057 112.488 145.5 113.41C145.949 114.333 146.552 115.031 147.308 115.505C148.069 115.979 148.919 116.216 149.856 116.216C150.371 116.216 150.865 116.145 151.339 116.004C151.813 115.863 152.244 115.654 152.632 115.377C153.025 115.094 153.358 114.749 153.63 114.341C153.907 113.927 154.102 113.453 154.212 112.919H156.088C155.947 113.71 155.69 114.419 155.317 115.044C154.943 115.669 154.48 116.201 153.925 116.64C153.37 117.073 152.748 117.403 152.057 117.63C151.371 117.857 150.638 117.971 149.856 117.971C148.535 117.971 147.361 117.648 146.332 117.003C145.304 116.357 144.495 115.44 143.905 114.25C143.315 113.06 143.02 111.648 143.02 110.015C143.02 108.381 143.315 106.97 143.905 105.78C144.495 104.59 145.304 103.672 146.332 103.027C147.361 102.382 148.535 102.059 149.856 102.059C150.638 102.059 151.371 102.172 152.057 102.399C152.748 102.626 153.37 102.959 153.925 103.397C154.48 103.831 154.943 104.36 155.317 104.986C155.69 105.606 155.947 106.314 156.088 107.111ZM163.596 118.001C162.547 118.001 161.627 117.751 160.835 117.252C160.049 116.753 159.434 116.055 158.99 115.157C158.551 114.26 158.332 113.211 158.332 112.011C158.332 110.801 158.551 109.745 158.99 108.843C159.434 107.94 160.049 107.239 160.835 106.74C161.627 106.241 162.547 105.991 163.596 105.991C164.644 105.991 165.562 106.241 166.348 106.74C167.14 107.239 167.755 107.94 168.194 108.843C168.637 109.745 168.859 110.801 168.859 112.011C168.859 113.211 168.637 114.26 168.194 115.157C167.755 116.055 167.14 116.753 166.348 117.252C165.562 117.751 164.644 118.001 163.596 118.001ZM163.596 116.398C164.392 116.398 165.048 116.193 165.562 115.785C166.076 115.377 166.457 114.84 166.704 114.174C166.951 113.509 167.074 112.788 167.074 112.011C167.074 111.235 166.951 110.511 166.704 109.841C166.457 109.17 166.076 108.628 165.562 108.215C165.048 107.801 164.392 107.595 163.596 107.595C162.799 107.595 162.144 107.801 161.629 108.215C161.115 108.628 160.735 109.17 160.487 109.841C160.24 110.511 160.117 111.235 160.117 112.011C160.117 112.788 160.24 113.509 160.487 114.174C160.735 114.84 161.115 115.377 161.629 115.785C162.144 116.193 162.799 116.398 163.596 116.398ZM175.97 118.001C175.002 118.001 174.147 117.756 173.406 117.267C172.665 116.773 172.085 116.077 171.667 115.18C171.248 114.277 171.039 113.211 171.039 111.981C171.039 110.761 171.248 109.702 171.667 108.805C172.085 107.907 172.668 107.214 173.414 106.725C174.16 106.236 175.022 105.991 176 105.991C176.756 105.991 177.354 106.117 177.793 106.37C178.236 106.617 178.574 106.899 178.806 107.217C179.043 107.529 179.227 107.786 179.358 107.988H179.509V102.271H181.294V117.759H179.57V115.974H179.358C179.227 116.186 179.04 116.453 178.798 116.776C178.556 117.093 178.211 117.378 177.762 117.63C177.314 117.877 176.716 118.001 175.97 118.001ZM176.212 116.398C176.928 116.398 177.533 116.211 178.027 115.838C178.521 115.46 178.897 114.938 179.154 114.272C179.411 113.602 179.539 112.828 179.539 111.951C179.539 111.084 179.413 110.325 179.161 109.674C178.909 109.019 178.536 108.51 178.042 108.147C177.548 107.779 176.938 107.595 176.212 107.595C175.456 107.595 174.825 107.789 174.321 108.177C173.822 108.56 173.447 109.082 173.194 109.742C172.947 110.398 172.824 111.134 172.824 111.951C172.824 112.778 172.95 113.529 173.202 114.204C173.459 114.875 173.837 115.409 174.336 115.808C174.841 116.201 175.466 116.398 176.212 116.398ZM189.681 118.001C188.562 118.001 187.596 117.754 186.784 117.26C185.978 116.761 185.355 116.065 184.916 115.172C184.483 114.275 184.266 113.231 184.266 112.041C184.266 110.852 184.483 109.803 184.916 108.895C185.355 107.983 185.965 107.272 186.747 106.763C187.533 106.249 188.451 105.991 189.499 105.991C190.104 105.991 190.702 106.092 191.292 106.294C191.882 106.496 192.419 106.823 192.903 107.277C193.387 107.726 193.772 108.321 194.06 109.062C194.347 109.803 194.491 110.716 194.491 111.799V112.556H185.537V111.013H192.676C192.676 110.358 192.545 109.773 192.282 109.258C192.025 108.744 191.657 108.338 191.178 108.041C190.704 107.743 190.145 107.595 189.499 107.595C188.788 107.595 188.173 107.771 187.654 108.124C187.14 108.472 186.744 108.926 186.467 109.485C186.189 110.045 186.051 110.645 186.051 111.285V112.314C186.051 113.191 186.202 113.935 186.505 114.545C186.812 115.15 187.238 115.611 187.783 115.929C188.327 116.241 188.96 116.398 189.681 116.398C190.15 116.398 190.573 116.332 190.951 116.201C191.335 116.065 191.665 115.863 191.942 115.596C192.219 115.324 192.434 114.986 192.585 114.583L194.309 115.067C194.128 115.651 193.823 116.166 193.394 116.609C192.966 117.048 192.436 117.391 191.806 117.638C191.176 117.88 190.467 118.001 189.681 118.001ZM205.827 117.759L202.288 106.143H204.163L206.674 115.036H206.795L209.275 106.143H211.181L213.632 115.006H213.753L216.263 106.143H218.139L214.6 117.759H212.845L210.304 108.835H210.123L207.581 117.759H205.827ZM220.498 117.759V106.143H222.283V117.759H220.498ZM221.406 104.207C221.058 104.207 220.758 104.088 220.506 103.851C220.259 103.614 220.135 103.329 220.135 102.997C220.135 102.664 220.259 102.379 220.506 102.142C220.758 101.905 221.058 101.787 221.406 101.787C221.754 101.787 222.051 101.905 222.298 102.142C222.55 102.379 222.676 102.664 222.676 102.997C222.676 103.329 222.55 103.614 222.298 103.851C222.051 104.088 221.754 104.207 221.406 104.207ZM230.604 106.143V107.655H224.584V106.143H230.604ZM226.339 103.36H228.123V114.431C228.123 114.935 228.196 115.314 228.343 115.566C228.494 115.813 228.685 115.979 228.917 116.065C229.154 116.145 229.404 116.186 229.666 116.186C229.863 116.186 230.024 116.176 230.15 116.156C230.276 116.13 230.377 116.11 230.453 116.095L230.816 117.698C230.695 117.744 230.526 117.789 230.309 117.834C230.092 117.885 229.817 117.91 229.485 117.91C228.98 117.91 228.486 117.802 228.002 117.585C227.523 117.368 227.125 117.038 226.807 116.594C226.495 116.15 226.339 115.591 226.339 114.915V103.36ZM235.323 110.771V117.759H233.538V102.271H235.323V107.958H235.474C235.746 107.358 236.155 106.881 236.699 106.528C237.249 106.17 237.98 105.991 238.892 105.991C239.684 105.991 240.377 106.15 240.972 106.468C241.567 106.78 242.028 107.262 242.356 107.912C242.689 108.558 242.855 109.379 242.855 110.378V117.759H241.07V110.499C241.07 109.576 240.831 108.863 240.352 108.359C239.878 107.849 239.22 107.595 238.378 107.595C237.793 107.595 237.269 107.718 236.805 107.965C236.346 108.212 235.983 108.573 235.716 109.047C235.454 109.521 235.323 110.095 235.323 110.771ZM250.839 118.001C249.791 118.001 248.871 117.751 248.079 117.252C247.293 116.753 246.677 116.055 246.234 115.157C245.795 114.26 245.576 113.211 245.576 112.011C245.576 110.801 245.795 109.745 246.234 108.843C246.677 107.94 247.293 107.239 248.079 106.74C248.871 106.241 249.791 105.991 250.839 105.991C251.888 105.991 252.806 106.241 253.592 106.74C254.384 107.239 254.999 107.94 255.437 108.843C255.881 109.745 256.103 110.801 256.103 112.011C256.103 113.211 255.881 114.26 255.437 115.157C254.999 116.055 254.384 116.753 253.592 117.252C252.806 117.751 251.888 118.001 250.839 118.001ZM250.839 116.398C251.636 116.398 252.291 116.193 252.806 115.785C253.32 115.377 253.701 114.84 253.948 114.174C254.195 113.509 254.318 112.788 254.318 112.011C254.318 111.235 254.195 110.511 253.948 109.841C253.701 109.17 253.32 108.628 252.806 108.215C252.291 107.801 251.636 107.595 250.839 107.595C250.043 107.595 249.387 107.801 248.873 108.215C248.359 108.628 247.978 109.17 247.731 109.841C247.484 110.511 247.361 111.235 247.361 112.011C247.361 112.788 247.484 113.509 247.731 114.174C247.978 114.84 248.359 115.377 248.873 115.785C249.387 116.193 250.043 116.398 250.839 116.398ZM266.148 113.009V106.143H267.933V117.759H266.148V115.793H266.027C265.755 116.382 265.331 116.884 264.756 117.297C264.182 117.706 263.456 117.91 262.578 117.91C261.852 117.91 261.207 117.751 260.642 117.434C260.078 117.111 259.634 116.627 259.311 115.982C258.989 115.331 258.827 114.512 258.827 113.524V106.143H260.612V113.403C260.612 114.25 260.849 114.925 261.323 115.43C261.802 115.934 262.412 116.186 263.153 116.186C263.597 116.186 264.048 116.072 264.507 115.845C264.971 115.619 265.359 115.271 265.671 114.802C265.989 114.333 266.148 113.736 266.148 113.009ZM276.253 106.143V107.655H270.234V106.143H276.253ZM271.988 103.36H273.773V114.431C273.773 114.935 273.846 115.314 273.992 115.566C274.143 115.813 274.335 115.979 274.567 116.065C274.804 116.145 275.053 116.186 275.316 116.186C275.512 116.186 275.674 116.176 275.8 116.156C275.926 116.13 276.027 116.11 276.102 116.095L276.465 117.698C276.344 117.744 276.175 117.789 275.958 117.834C275.742 117.885 275.467 117.91 275.134 117.91C274.63 117.91 274.136 117.802 273.652 117.585C273.173 117.368 272.775 117.038 272.457 116.594C272.144 116.15 271.988 115.591 271.988 114.915V103.36ZM287.559 117.759L284.02 106.143H285.896L288.406 115.036H288.527L291.008 106.143H292.914L295.364 115.006H295.485L297.996 106.143H299.871L296.332 117.759H294.578L292.036 108.835H291.855L289.314 117.759H287.559ZM302.231 117.759V106.143H303.955V107.897H304.076C304.288 107.322 304.671 106.856 305.226 106.498C305.78 106.14 306.405 105.961 307.101 105.961C307.232 105.961 307.396 105.964 307.593 105.969C307.789 105.974 307.938 105.981 308.039 105.991V107.806C307.978 107.791 307.84 107.769 307.623 107.738C307.411 107.703 307.187 107.685 306.95 107.685C306.385 107.685 305.881 107.804 305.437 108.041C304.999 108.273 304.651 108.595 304.394 109.009C304.142 109.417 304.016 109.884 304.016 110.408V117.759H302.231ZM310.155 117.759V106.143H311.939V117.759H310.155ZM311.062 104.207C310.714 104.207 310.414 104.088 310.162 103.851C309.915 103.614 309.792 103.329 309.792 102.997C309.792 102.664 309.915 102.379 310.162 102.142C310.414 101.905 310.714 101.787 311.062 101.787C311.41 101.787 311.707 101.905 311.954 102.142C312.207 102.379 312.333 102.664 312.333 102.997C312.333 103.329 312.207 103.614 311.954 103.851C311.707 104.088 311.41 104.207 311.062 104.207ZM320.26 106.143V107.655H314.24V106.143H320.26ZM315.995 103.36H317.779V114.431C317.779 114.935 317.853 115.314 317.999 115.566C318.15 115.813 318.342 115.979 318.574 116.065C318.811 116.145 319.06 116.186 319.322 116.186C319.519 116.186 319.68 116.176 319.806 116.156C319.932 116.13 320.033 116.11 320.109 116.095L320.472 117.698C320.351 117.744 320.182 117.789 319.965 117.834C319.748 117.885 319.473 117.91 319.141 117.91C318.637 117.91 318.142 117.802 317.658 117.585C317.18 117.368 316.781 117.038 316.464 116.594C316.151 116.15 315.995 115.591 315.995 114.915V103.36ZM322.945 117.759V106.143H324.729V117.759H322.945ZM323.852 104.207C323.504 104.207 323.204 104.088 322.952 103.851C322.705 103.614 322.582 103.329 322.582 102.997C322.582 102.664 322.705 102.379 322.952 102.142C323.204 101.905 323.504 101.787 323.852 101.787C324.2 101.787 324.498 101.905 324.745 102.142C324.997 102.379 325.123 102.664 325.123 102.997C325.123 103.329 324.997 103.614 324.745 103.851C324.498 104.088 324.2 104.207 323.852 104.207ZM329.783 110.771V117.759H327.998V106.143H329.723V107.958H329.874C330.146 107.368 330.56 106.894 331.114 106.536C331.669 106.173 332.385 105.991 333.262 105.991C334.048 105.991 334.737 106.153 335.327 106.475C335.916 106.793 336.375 107.277 336.703 107.927C337.031 108.573 337.194 109.39 337.194 110.378V117.759H335.41V110.499C335.41 109.586 335.173 108.875 334.699 108.366C334.225 107.852 333.575 107.595 332.748 107.595C332.178 107.595 331.669 107.718 331.22 107.965C330.776 108.212 330.426 108.573 330.169 109.047C329.912 109.521 329.783 110.095 329.783 110.771ZM345.145 122.357C344.283 122.357 343.541 122.246 342.921 122.024C342.301 121.807 341.784 121.52 341.371 121.162C340.963 120.809 340.637 120.431 340.395 120.028L341.817 119.029C341.978 119.241 342.183 119.483 342.43 119.755C342.677 120.033 343.015 120.272 343.443 120.474C343.877 120.68 344.444 120.784 345.145 120.784C346.082 120.784 346.856 120.557 347.466 120.103C348.076 119.649 348.381 118.939 348.381 117.971V115.611H348.23C348.099 115.823 347.913 116.085 347.671 116.398C347.434 116.705 347.091 116.98 346.642 117.222C346.198 117.459 345.598 117.577 344.842 117.577C343.904 117.577 343.062 117.355 342.316 116.912C341.575 116.468 340.988 115.823 340.554 114.976C340.126 114.129 339.911 113.1 339.911 111.89C339.911 110.7 340.121 109.664 340.539 108.782C340.957 107.895 341.54 107.209 342.286 106.725C343.032 106.236 343.894 105.991 344.872 105.991C345.629 105.991 346.229 106.117 346.672 106.37C347.121 106.617 347.464 106.899 347.701 107.217C347.943 107.529 348.129 107.786 348.26 107.988H348.442V106.143H350.166V118.092C350.166 119.09 349.939 119.902 349.486 120.527C349.037 121.157 348.432 121.618 347.671 121.911C346.914 122.208 346.072 122.357 345.145 122.357ZM345.084 115.974C345.8 115.974 346.405 115.81 346.899 115.482C347.393 115.155 347.769 114.683 348.026 114.068C348.283 113.453 348.412 112.717 348.412 111.86C348.412 111.023 348.286 110.284 348.034 109.644C347.781 109.004 347.408 108.502 346.914 108.139C346.42 107.776 345.81 107.595 345.084 107.595C344.328 107.595 343.698 107.786 343.193 108.169C342.694 108.553 342.319 109.067 342.067 109.712C341.82 110.358 341.696 111.073 341.696 111.86C341.696 112.667 341.822 113.38 342.074 114C342.331 114.615 342.709 115.099 343.209 115.452C343.713 115.8 344.338 115.974 345.084 115.974Z" fill="white"/>
<rect x="216.574" y="142.083" width="60.4016" height="23.3555" rx="10.3943" fill="#1870F5"/>
</g>
</g>
<g filter="url(#filter1_d_354_2380)">
<g clip-path="url(#clip2_354_2380)">
<rect width="354.048" height="40.7887" transform="translate(6 136)" fill="#23282D"/>
<g clip-path="url(#clip3_354_2380)">
<path d="M36.3945 150.157L30.0129 162.632H24.0187L26.6895 157.462H26.5695C24.3662 160.322 21.0787 162.206 16.3945 162.632V157.534C16.3945 157.534 19.3912 157.356 21.1529 155.505H16.3945V150.157H21.742V154.556L21.862 154.555L24.047 150.157H28.092V154.527H28.212L30.4787 150.157H36.3945Z" fill="white"/>
</g>
<rect x="112.316" y="154.445" width="29.4505" height="3.89789" rx="1.73239" fill="#C9C9C9"/>
<rect x="153.895" y="154.445" width="29.4505" height="3.89789" rx="1.73239" fill="#C9C9C9"/>
<rect x="195.473" y="154.445" width="29.4505" height="3.89789" rx="1.73239" fill="#C9C9C9"/>
<rect x="237.047" y="154.445" width="29.4505" height="3.89789" rx="1.73239" fill="#C9C9C9"/>
<rect x="278.625" y="154.445" width="29.4505" height="3.89789" rx="1.73239" fill="#C9C9C9"/>
<rect x="320.203" y="154.445" width="29.4505" height="3.89789" rx="1.73239" fill="#C9C9C9"/>
<g clip-path="url(#clip4_354_2380)">
<rect width="354.048" height="172.373" transform="translate(6 176.789)" fill="#404040"/>
<rect width="61" height="172" transform="translate(299 176.677)" fill="#292929"/>
<rect x="307" y="186.677" width="45" height="9" rx="1.73239" fill="#484848"/>
<rect x="307" y="205.677" width="45" height="29" rx="1.73239" fill="#484848"/>
<rect width="14" height="172" transform="translate(6 176.677)" fill="#292929"/>
<rect x="10" y="181.677" width="6" height="6" rx="1.73239" fill="#484848"/>
<rect x="10" y="195.677" width="6" height="6" rx="1.73239" fill="#484848"/>
<rect x="10" y="209.677" width="6" height="6" rx="1.73239" fill="#484848"/>
<rect x="10" y="223.677" width="6" height="6" rx="1.73239" fill="#484848"/>
<rect x="10" y="237.677" width="6" height="6" rx="1.73239" fill="#484848"/>
<rect x="10" y="251.677" width="6" height="6" rx="1.73239" fill="#484848"/>
<rect x="10" y="265.677" width="6" height="6" rx="1.73239" fill="#484848"/>
<rect x="10" y="337.677" width="6" height="6" rx="1.73239" fill="#484848"/>
<g clip-path="url(#clip5_354_2380)">
<rect width="230" height="172" transform="translate(42 177)" fill="#FDFEFF"/>
<circle cx="63.8787" cy="187.814" r="2.87872" fill="#98C1D5"/>
<rect x="69.0586" y="185.799" width="12" height="4.0302" rx="2.0151" fill="#B8D5E4"/>
<rect x="122.562" y="186.303" width="6" height="3.02265" rx="1.51133" fill="#B8D5E4"/>
<rect x="134.32" y="186.303" width="14" height="3.02265" rx="1.51133" fill="#B8D5E4"/>
<rect x="154.078" y="186.303" width="14" height="3.02265" rx="1.51133" fill="#B8D5E4"/>
<rect x="173.836" y="186.303" width="7" height="3.02265" rx="1.51133" fill="#B8D5E4"/>
<rect x="186.594" y="186.303" width="6" height="3.02265" rx="1.51133" fill="#B8D5E4"/>
<rect x="234.09" y="184" width="18.9089" height="7.6286" rx="3.8143" fill="#6189F6"/>
<rect x="75" y="280" width="165" height="92" rx="4.60595" fill="#EBF3F7"/>
</g>
<rect x="62.4095" y="222.409" width="193.181" height="42.8362" stroke="#3858E9" stroke-width="0.818966"/>
<path d="M118.986 249.827V237.143H120.522V242.791H127.285V237.143H128.821V249.827H127.285V244.154H120.522V249.827H118.986ZM135.687 250.025C134.77 250.025 133.98 249.823 133.315 249.418C132.654 249.01 132.144 248.44 131.785 247.709C131.43 246.974 131.252 246.119 131.252 245.145C131.252 244.17 131.43 243.312 131.785 242.568C132.144 241.821 132.644 241.239 133.284 240.822C133.928 240.401 134.679 240.19 135.538 240.19C136.034 240.19 136.523 240.273 137.006 240.438C137.489 240.603 137.929 240.871 138.325 241.243C138.722 241.61 139.038 242.098 139.273 242.705C139.508 243.312 139.626 244.059 139.626 244.947V245.566H132.293V244.303H138.14C138.14 243.766 138.032 243.287 137.818 242.866C137.607 242.445 137.306 242.112 136.913 241.869C136.525 241.625 136.067 241.503 135.538 241.503C134.956 241.503 134.452 241.648 134.027 241.937C133.606 242.222 133.282 242.593 133.055 243.051C132.828 243.51 132.714 244.001 132.714 244.526V245.368C132.714 246.086 132.838 246.695 133.086 247.195C133.338 247.69 133.686 248.068 134.132 248.328C134.578 248.584 135.097 248.712 135.687 248.712C136.071 248.712 136.418 248.659 136.727 248.551C137.041 248.44 137.312 248.275 137.539 248.056C137.766 247.833 137.941 247.556 138.065 247.226L139.477 247.622C139.329 248.101 139.079 248.522 138.728 248.886C138.377 249.245 137.943 249.526 137.427 249.728C136.911 249.926 136.331 250.025 135.687 250.025ZM144.649 250.05C144.046 250.05 143.499 249.937 143.008 249.709C142.516 249.478 142.126 249.146 141.837 248.712C141.548 248.275 141.404 247.746 141.404 247.127C141.404 246.582 141.511 246.14 141.726 245.801C141.94 245.459 142.227 245.19 142.586 244.996C142.946 244.802 143.342 244.658 143.776 244.563C144.213 244.464 144.653 244.385 145.095 244.327C145.673 244.253 146.142 244.197 146.501 244.16C146.864 244.119 147.128 244.051 147.294 243.956C147.463 243.861 147.547 243.696 147.547 243.46V243.411C147.547 242.8 147.38 242.325 147.046 241.986C146.715 241.648 146.214 241.478 145.541 241.478C144.843 241.478 144.296 241.631 143.9 241.937C143.503 242.242 143.224 242.568 143.063 242.915L141.676 242.42C141.924 241.842 142.254 241.392 142.667 241.07C143.084 240.743 143.538 240.516 144.03 240.388C144.525 240.256 145.012 240.19 145.491 240.19C145.797 240.19 146.148 240.227 146.544 240.302C146.945 240.372 147.331 240.518 147.702 240.741C148.078 240.964 148.39 241.301 148.638 241.751C148.885 242.201 149.009 242.804 149.009 243.559V249.827H147.547V248.539H147.473C147.374 248.745 147.209 248.966 146.978 249.202C146.746 249.437 146.439 249.637 146.055 249.802C145.671 249.968 145.202 250.05 144.649 250.05ZM144.872 248.737C145.45 248.737 145.937 248.624 146.334 248.396C146.734 248.169 147.035 247.876 147.238 247.517C147.444 247.158 147.547 246.78 147.547 246.384V245.046C147.486 245.12 147.349 245.188 147.139 245.25C146.932 245.308 146.693 245.36 146.42 245.405C146.152 245.446 145.89 245.483 145.634 245.516C145.382 245.545 145.177 245.57 145.021 245.591C144.641 245.64 144.286 245.721 143.955 245.832C143.629 245.94 143.365 246.103 143.162 246.322C142.964 246.536 142.865 246.83 142.865 247.201C142.865 247.709 143.053 248.093 143.429 248.353C143.809 248.609 144.29 248.737 144.872 248.737ZM155.269 250.025C154.476 250.025 153.777 249.825 153.17 249.425C152.563 249.02 152.088 248.45 151.745 247.715C151.402 246.976 151.231 246.103 151.231 245.095C151.231 244.096 151.402 243.229 151.745 242.494C152.088 241.759 152.565 241.191 153.176 240.791C153.787 240.39 154.493 240.19 155.294 240.19C155.913 240.19 156.403 240.293 156.762 240.5C157.125 240.702 157.402 240.933 157.592 241.193C157.786 241.449 157.937 241.66 158.044 241.825H158.168V237.143H159.629V249.827H158.217V248.365H158.044C157.937 248.539 157.784 248.758 157.586 249.022C157.387 249.282 157.105 249.515 156.737 249.722C156.37 249.924 155.88 250.025 155.269 250.025ZM155.467 248.712C156.054 248.712 156.549 248.56 156.954 248.254C157.358 247.944 157.666 247.517 157.877 246.972C158.087 246.423 158.193 245.789 158.193 245.071C158.193 244.36 158.089 243.739 157.883 243.206C157.676 242.67 157.371 242.253 156.966 241.955C156.562 241.654 156.062 241.503 155.467 241.503C154.848 241.503 154.332 241.662 153.919 241.98C153.51 242.294 153.203 242.721 152.996 243.262C152.794 243.799 152.693 244.402 152.693 245.071C152.693 245.748 152.796 246.363 153.002 246.916C153.213 247.465 153.523 247.903 153.931 248.229C154.344 248.551 154.856 248.712 155.467 248.712ZM162.509 249.827V240.314H163.971V249.827H162.509ZM163.253 238.728C162.968 238.728 162.722 238.631 162.516 238.437C162.313 238.243 162.212 238.01 162.212 237.737C162.212 237.465 162.313 237.232 162.516 237.038C162.722 236.844 162.968 236.747 163.253 236.747C163.538 236.747 163.781 236.844 163.983 237.038C164.19 237.232 164.293 237.465 164.293 237.737C164.293 238.01 164.19 238.243 163.983 238.437C163.781 238.631 163.538 238.728 163.253 238.728ZM168.11 244.104V249.827H166.648V240.314H168.06V241.8H168.184C168.407 241.317 168.746 240.929 169.2 240.636C169.654 240.339 170.24 240.19 170.959 240.19C171.603 240.19 172.167 240.322 172.65 240.586C173.133 240.847 173.508 241.243 173.777 241.776C174.045 242.304 174.179 242.973 174.179 243.782V249.827H172.718V243.881C172.718 243.134 172.524 242.552 172.136 242.135C171.747 241.714 171.215 241.503 170.538 241.503C170.071 241.503 169.654 241.604 169.287 241.807C168.923 242.009 168.636 242.304 168.426 242.692C168.215 243.08 168.11 243.551 168.11 244.104ZM180.69 253.593C179.984 253.593 179.377 253.502 178.869 253.32C178.362 253.143 177.938 252.907 177.6 252.614C177.265 252.325 176.999 252.016 176.801 251.685L177.965 250.868C178.097 251.041 178.265 251.239 178.467 251.462C178.669 251.689 178.946 251.885 179.297 252.051C179.652 252.22 180.116 252.305 180.69 252.305C181.458 252.305 182.092 252.119 182.592 251.747C183.091 251.376 183.341 250.793 183.341 250.001V248.068H183.217C183.11 248.242 182.957 248.456 182.759 248.712C182.565 248.964 182.284 249.189 181.917 249.387C181.553 249.581 181.062 249.679 180.443 249.679C179.675 249.679 178.985 249.497 178.374 249.133C177.767 248.77 177.286 248.242 176.931 247.548C176.58 246.854 176.404 246.012 176.404 245.021C176.404 244.047 176.576 243.198 176.919 242.475C177.261 241.749 177.738 241.187 178.349 240.791C178.96 240.39 179.666 240.19 180.467 240.19C181.087 240.19 181.578 240.293 181.941 240.5C182.309 240.702 182.59 240.933 182.784 241.193C182.982 241.449 183.135 241.66 183.242 241.825H183.391V240.314H184.803V250.1C184.803 250.917 184.617 251.582 184.245 252.094C183.878 252.61 183.382 252.988 182.759 253.227C182.14 253.471 181.45 253.593 180.69 253.593ZM180.641 248.365C181.227 248.365 181.723 248.231 182.127 247.963C182.532 247.695 182.839 247.308 183.05 246.805C183.261 246.301 183.366 245.698 183.366 244.996C183.366 244.311 183.263 243.706 183.056 243.182C182.85 242.657 182.544 242.246 182.14 241.949C181.735 241.652 181.235 241.503 180.641 241.503C180.021 241.503 179.505 241.66 179.092 241.974C178.684 242.288 178.376 242.709 178.17 243.237C177.967 243.766 177.866 244.352 177.866 244.996C177.866 245.657 177.969 246.241 178.176 246.749C178.386 247.253 178.696 247.649 179.105 247.938C179.518 248.223 180.03 248.365 180.641 248.365ZM188.544 249.926C188.238 249.926 187.976 249.817 187.757 249.598C187.538 249.379 187.429 249.117 187.429 248.811C187.429 248.506 187.538 248.244 187.757 248.025C187.976 247.806 188.238 247.697 188.544 247.697C188.849 247.697 189.111 247.806 189.33 248.025C189.549 248.244 189.659 248.506 189.659 248.811C189.659 249.014 189.607 249.2 189.504 249.369C189.405 249.538 189.27 249.674 189.101 249.778C188.936 249.877 188.75 249.926 188.544 249.926ZM193.347 249.926C193.041 249.926 192.779 249.817 192.56 249.598C192.341 249.379 192.232 249.117 192.232 248.811C192.232 248.506 192.341 248.244 192.56 248.025C192.779 247.806 193.041 247.697 193.347 247.697C193.652 247.697 193.914 247.806 194.133 248.025C194.352 248.244 194.462 248.506 194.462 248.811C194.462 249.014 194.41 249.2 194.307 249.369C194.208 249.538 194.073 249.674 193.904 249.778C193.739 249.877 193.553 249.926 193.347 249.926ZM198.15 249.926C197.844 249.926 197.582 249.817 197.363 249.598C197.144 249.379 197.035 249.117 197.035 248.811C197.035 248.506 197.144 248.244 197.363 248.025C197.582 247.806 197.844 247.697 198.15 247.697C198.455 247.697 198.718 247.806 198.936 248.025C199.155 248.244 199.265 248.506 199.265 248.811C199.265 249.014 199.213 249.2 199.11 249.369C199.011 249.538 198.876 249.674 198.707 249.778C198.542 249.877 198.356 249.926 198.15 249.926Z" fill="#2D3940"/>
</g>
</g>
</g>
<defs>
<filter id="filter0_d_354_2380" x="64.4895" y="0.244753" width="365.068" height="224.183" filterUnits="userSpaceOnUse" color-interpolation-filters="sRGB">
<feFlood flood-opacity="0" result="BackgroundImageFix"/>
<feColorMatrix in="SourceAlpha" type="matrix" values="0 0 0 0 0 0 0 0 0 0 0 0 0 0 0 0 0 0 127 0" result="hardAlpha"/>
<feOffset dy="2.75525"/>
<feGaussianBlur stdDeviation="2.75525"/>
<feComposite in2="hardAlpha" operator="out"/>
<feColorMatrix type="matrix" values="0 0 0 0 0 0 0 0 0 0 0 0 0 0 0 0 0 0 0.08 0"/>
<feBlend mode="normal" in2="BackgroundImageFix" result="effect1_dropShadow_354_2380"/>
<feBlend mode="normal" in="SourceGraphic" in2="effect1_dropShadow_354_2380" result="shape"/>
</filter>
<filter id="filter1_d_354_2380" x="0.489506" y="133.245" width="365.068" height="224.183" filterUnits="userSpaceOnUse" color-interpolation-filters="sRGB">
<feFlood flood-opacity="0" result="BackgroundImageFix"/>
<feColorMatrix in="SourceAlpha" type="matrix" values="0 0 0 0 0 0 0 0 0 0 0 0 0 0 0 0 0 0 127 0" result="hardAlpha"/>
<feOffset dy="2.75525"/>
<feGaussianBlur stdDeviation="2.75525"/>
<feComposite in2="hardAlpha" operator="out"/>
<feColorMatrix type="matrix" values="0 0 0 0 0 0 0 0 0 0 0 0 0 0 0 0 0 0 0.08 0"/>
<feBlend mode="normal" in2="BackgroundImageFix" result="effect1_dropShadow_354_2380"/>
<feBlend mode="normal" in="SourceGraphic" in2="effect1_dropShadow_354_2380" result="shape"/>
</filter>
<clipPath id="clip0_354_2380">
<rect x="70" y="3" width="354.048" height="213.162" rx="5.51049" fill="white"/>
</clipPath>
<clipPath id="clip1_354_2380">
<rect width="20" height="20" fill="white" transform="translate(80.3945 13.3945)"/>
</clipPath>
<clipPath id="clip2_354_2380">
<rect x="6" y="136" width="354.048" height="213.162" rx="5.51049" fill="white"/>
</clipPath>
<clipPath id="clip3_354_2380">
<rect width="20" height="20" fill="white" transform="translate(16.3945 146.395)"/>
</clipPath>
<clipPath id="clip4_354_2380">
<rect width="354.048" height="172.373" fill="white" transform="translate(6 176.789)"/>
</clipPath>
<clipPath id="clip5_354_2380">
<rect width="230" height="172" fill="white" transform="translate(42 177)"/>
</clipPath>
</defs>
</svg>
