<svg width="24" height="24" viewBox="0 0 24 24" fill="none" xmlns="http://www.w3.org/2000/svg">
<g id="eva:arrow-ios-downward-outline">
<g id="evaArrowIosDownwardOutline0">
<g id="evaArrowIosDownwardOutline1">
<path id="evaArrowIosDownwardOutline2" d="M12 16.0013C11.7664 16.0017 11.5399 15.9203 11.36 15.7713L5.36003 10.7713C5.15581 10.6015 5.02739 10.3576 5.00301 10.0932C4.97863 9.82875 5.06029 9.56547 5.23003 9.36125C5.39977 9.15704 5.64368 9.02861 5.90811 9.00423C6.17253 8.97985 6.43581 9.06151 6.64003 9.23125L12 13.7113L17.36 9.39125C17.4623 9.30819 17.58 9.24615 17.7064 9.20872C17.8327 9.17129 17.9652 9.1592 18.0962 9.17314C18.2272 9.18708 18.3542 9.22677 18.4699 9.28995C18.5855 9.35312 18.6875 9.43853 18.77 9.54125C18.8616 9.64407 18.931 9.7647 18.9738 9.89557C19.0166 10.0264 19.0319 10.1647 19.0187 10.3018C19.0056 10.4389 18.9643 10.5717 18.8974 10.6921C18.8305 10.8125 18.7395 10.9177 18.63 11.0013L12.63 15.8313C12.4449 15.9568 12.2231 16.0166 12 16.0013Z" fill="#737373"/>
</g>
</g>
</g>
</svg>
