<svg width="292" height="206" viewBox="0 0 292 206" fill="none" xmlns="http://www.w3.org/2000/svg">
<path d="M239.671 32.364C239.671 32.364 121.346 15.1877 26.878 102.738C-69.9418 192.468 137.679 39.0945 274.977 160.234C364.197 238.954 26.878 188.38 26.878 188.38" stroke="#F2E3FC" stroke-width="2.86268" stroke-linecap="round" stroke-dasharray="15.27 15.27"/>
<line x1="1.5" y1="-1.5" x2="20.3667" y2="-1.5" transform="matrix(0.272219 0.962235 -0.970405 0.241485 75.0618 1)" stroke="#DFC4F2" stroke-width="3" stroke-linecap="round"/>
<line x1="1.5" y1="-1.5" x2="21.2724" y2="-1.5" transform="matrix(-0.846153 -0.53294 0.582176 -0.813063 69.2688 30.5225)" stroke="#DFC4F2" stroke-width="3" stroke-linecap="round"/>
<line x1="1.5" y1="-1.5" x2="20.7653" y2="-1.5" transform="matrix(0.605162 0.796102 -0.831286 0.555844 60.9514 8.83496)" stroke="#DFC4F2" stroke-width="3" stroke-linecap="round"/>
<path d="M195.064 20.8583L211.112 151.562L213.227 168.788C213.535 171.295 211.752 173.578 209.245 173.886L190.851 176.144L100.194 187.275C99.2563 187.388 98.3151 187.143 97.5762 186.594C96.8373 186.045 96.3611 185.238 96.2519 184.349L77.9436 35.2388C77.8344 34.3495 78.1011 33.4509 78.6853 32.7398C79.2695 32.0288 80.1235 31.5634 81.0601 31.4456L191.111 17.933C192.05 17.8177 192.994 18.0611 193.735 18.6097C194.477 19.1583 194.955 19.9671 195.064 20.8583Z" fill="#8F75DA"/>
<path opacity="0.6" d="M190.922 19.9715C193.116 19.7021 195.113 21.2624 195.383 23.4565L213.297 169.356C213.566 171.55 212.006 173.547 209.812 173.816L100.194 187.276C99.2562 187.388 98.3129 187.126 97.5703 186.547C96.8277 185.968 96.3464 185.119 96.2319 184.187L78.2625 37.8371C77.9931 35.6429 79.5534 33.6459 81.7475 33.3765L190.922 19.9715Z" fill="white"/>
<path d="M156.118 45.4161L115.265 50.4323C114.972 50.4681 114.674 50.3521 114.435 50.1097C114.195 49.8673 114.035 49.5184 113.988 49.1397C113.942 48.761 114.013 48.3836 114.187 48.0905C114.36 47.7974 114.622 47.6126 114.914 47.5767L155.767 42.5605C156.059 42.5247 156.358 42.6407 156.597 42.8831C156.837 43.1255 156.997 43.4744 157.044 43.8531C157.09 44.2318 157.019 44.6092 156.845 44.9023C156.672 45.1954 156.41 45.3803 156.118 45.4161Z" fill="#8F75DA"/>
<path d="M148.181 54.3176L125.144 57.1462C124.852 57.182 124.554 57.066 124.314 56.8236C124.075 56.5812 123.914 56.2322 123.868 55.8536C123.821 55.4749 123.893 55.0975 124.066 54.8044C124.24 54.5113 124.502 54.3264 124.794 54.2906L147.918 51.4512C148.21 51.4154 148.509 51.5314 148.748 51.7738C148.988 52.0162 149.148 52.3651 149.195 52.7438C149.241 53.1225 149.17 53.4999 148.996 53.793C148.822 54.0861 148.561 54.271 148.269 54.3068L148.181 54.3176Z" fill="#8F75DA"/>
<path d="M177.369 80.0712L93.0951 90.4187C92.8329 90.4509 92.5621 90.325 92.3424 90.0685C92.1227 89.8121 91.972 89.4462 91.9235 89.0513C91.875 88.6565 91.9327 88.265 92.0839 87.963C92.235 87.661 92.4673 87.4733 92.7295 87.4411L177.003 77.0936C177.266 77.0614 177.536 77.1873 177.756 77.4438C177.976 77.7002 178.127 78.0661 178.175 78.461C178.223 78.8558 178.166 79.2473 178.015 79.5493C177.864 79.8513 177.631 80.039 177.369 80.0712Z" fill="#8F75DA"/>
<path d="M171.218 127.172L98.7052 136.075C98.4419 136.108 98.1702 135.982 97.9497 135.726C97.7293 135.469 97.5782 135.103 97.5297 134.709C97.4812 134.314 97.5393 133.922 97.6912 133.62C97.8431 133.318 98.0763 133.13 98.3396 133.098L170.803 124.2C171.066 124.168 171.338 124.294 171.558 124.55C171.779 124.807 171.93 125.173 171.978 125.567C172.027 125.962 171.969 126.354 171.817 126.656C171.665 126.958 171.432 127.146 171.169 127.178L171.218 127.172Z" fill="#8F75DA"/>
<path d="M94.0493 99.7722C94.1316 100.194 94.3318 100.571 94.6106 100.829C94.8895 101.088 95.2268 101.208 95.5564 101.168C95.886 101.127 96.1841 100.929 96.3921 100.611C96.6002 100.293 96.7033 99.8784 96.6811 99.4491C96.6687 99.2099 96.6178 98.9734 96.5315 98.7548C96.4453 98.5362 96.3257 98.3403 96.1802 98.1796C96.0348 98.0189 95.8668 97.8969 95.6869 97.8214C95.5071 97.7459 95.3193 97.7185 95.1356 97.7411C94.9519 97.7636 94.7763 97.8356 94.6201 97.9524C94.4638 98.0691 94.3303 98.2282 94.2281 98.4193C94.1259 98.6104 94.0572 98.8294 94.0264 99.0624C93.9956 99.2953 94.0034 99.5371 94.0493 99.7722Z" fill="#8F75DA"/>
<path d="M95.0063 107.567C95.0459 107.908 95.1627 108.232 95.3419 108.498C95.5211 108.764 95.7546 108.96 96.0127 109.062C96.2707 109.164 96.5416 109.166 96.7909 109.069C97.0402 108.972 97.2566 108.779 97.4125 108.516C97.5685 108.253 97.6569 107.931 97.6665 107.591C97.6762 107.251 97.6067 106.909 97.4668 106.607C97.3269 106.306 97.123 106.06 96.881 105.899C96.6391 105.739 96.37 105.672 96.1081 105.707C95.7605 105.75 95.4492 105.97 95.2426 106.319C95.0359 106.668 94.951 107.117 95.0063 107.567Z" fill="#8F75DA"/>
<path d="M95.9653 115.377C96.0476 115.799 96.2478 116.176 96.5267 116.434C96.8055 116.692 97.1428 116.813 97.4724 116.772C97.802 116.732 98.1001 116.533 98.3082 116.215C98.5162 115.897 98.6193 115.483 98.5971 115.054C98.5847 114.814 98.5338 114.578 98.4476 114.359C98.3613 114.141 98.2417 113.945 98.0962 113.784C97.9508 113.623 97.7828 113.501 97.603 113.426C97.4231 113.35 97.2353 113.323 97.0516 113.346C96.868 113.368 96.6924 113.44 96.5361 113.557C96.3799 113.674 96.2464 113.833 96.1441 114.024C96.0419 114.215 95.9732 114.434 95.9424 114.667C95.9116 114.9 95.9194 115.142 95.9653 115.377Z" fill="#8F75DA"/>
<path d="M96.9226 123.174C97.0049 123.595 97.2051 123.973 97.4839 124.231C97.7628 124.489 98.1001 124.61 98.4297 124.569C98.7593 124.529 99.0573 124.33 99.2654 124.012C99.4735 123.694 99.5766 123.28 99.5544 122.85C99.542 122.611 99.4911 122.375 99.4048 122.156C99.3186 121.938 99.1989 121.742 99.0535 121.581C98.9081 121.42 98.7401 121.298 98.5602 121.223C98.3804 121.147 98.1926 121.12 98.0089 121.142C97.8252 121.165 97.6496 121.237 97.4934 121.354C97.3371 121.471 97.2036 121.63 97.1014 121.821C96.9992 122.012 96.9305 122.231 96.8997 122.464C96.8689 122.697 96.8767 122.938 96.9226 123.174Z" fill="#8F75DA"/>
<path d="M114.42 98.7195L100.105 100.477C99.8131 100.513 99.5145 100.397 99.2751 100.155C99.0357 99.9122 98.8751 99.5633 98.8286 99.1846C98.7821 98.806 98.8536 98.4285 99.0272 98.1354C99.2008 97.8423 99.4624 97.6575 99.7545 97.6216L114.07 95.8639C114.362 95.8281 114.66 95.9441 114.9 96.1865C115.139 96.4289 115.3 96.7779 115.346 97.1565C115.393 97.5352 115.321 97.9126 115.148 98.2057C114.974 98.4988 114.712 98.6837 114.42 98.7195Z" fill="#8F75DA"/>
<path d="M128.822 104.866L101.04 108.277C100.748 108.313 100.449 108.197 100.21 107.954C99.9705 107.712 99.8099 107.363 99.7634 106.984C99.717 106.606 99.7884 106.228 99.962 105.935C100.136 105.642 100.397 105.457 100.689 105.421L128.472 102.01C128.764 101.974 129.062 102.09 129.302 102.333C129.541 102.575 129.702 102.924 129.748 103.303C129.795 103.681 129.723 104.059 129.55 104.352C129.376 104.645 129.115 104.83 128.822 104.866Z" fill="#8F75DA"/>
<path d="M113.264 114.703L101.999 116.087C101.707 116.122 101.408 116.006 101.169 115.764C100.929 115.522 100.769 115.173 100.722 114.794C100.676 114.415 100.747 114.038 100.921 113.745C101.094 113.452 101.356 113.267 101.648 113.231L112.913 111.848C113.205 111.812 113.504 111.928 113.743 112.17C113.982 112.413 114.143 112.762 114.19 113.14C114.236 113.519 114.165 113.897 113.991 114.19C113.817 114.483 113.556 114.668 113.264 114.703Z" fill="#8F75DA"/>
<path d="M126.334 121.011L102.956 123.882C102.664 123.917 102.365 123.801 102.126 123.559C101.887 123.317 101.726 122.968 101.679 122.589C101.633 122.21 101.704 121.833 101.878 121.54C102.052 121.247 102.313 121.062 102.605 121.026L125.983 118.155C126.275 118.12 126.574 118.236 126.813 118.478C127.053 118.72 127.213 119.069 127.26 119.448C127.306 119.827 127.235 120.204 127.061 120.497C126.887 120.79 126.626 120.975 126.334 121.011Z" fill="#8F75DA"/>
<path d="M98.6787 144.021C98.761 144.443 98.9612 144.82 99.24 145.078C99.5189 145.337 99.8562 145.457 100.186 145.417C100.515 145.376 100.813 145.178 101.022 144.86C101.23 144.542 101.333 144.127 101.31 143.698C101.298 143.459 101.247 143.222 101.161 143.004C101.075 142.785 100.955 142.589 100.81 142.429C100.664 142.268 100.496 142.146 100.316 142.07C100.136 141.995 99.9487 141.968 99.765 141.99C99.5813 142.013 99.4057 142.085 99.2495 142.201C99.0932 142.318 98.9597 142.477 98.8575 142.668C98.7553 142.859 98.6866 143.078 98.6558 143.311C98.625 143.544 98.6328 143.786 98.6787 144.021Z" fill="#8F75DA"/>
<path d="M99.6357 151.816C99.6753 152.157 99.7921 152.481 99.9713 152.747C100.151 153.013 100.384 153.209 100.642 153.311C100.9 153.413 101.171 153.415 101.42 153.318C101.67 153.221 101.886 153.028 102.042 152.765C102.198 152.502 102.286 152.18 102.296 151.84C102.306 151.5 102.236 151.158 102.096 150.856C101.956 150.555 101.752 150.309 101.51 150.149C101.268 149.988 100.999 149.921 100.737 149.956C100.39 149.999 100.079 150.219 99.872 150.568C99.6653 150.917 99.5803 151.366 99.6357 151.816Z" fill="#8F75DA"/>
<path d="M100.595 159.626C100.677 160.048 100.877 160.425 101.156 160.683C101.435 160.941 101.772 161.062 102.102 161.021C102.431 160.981 102.729 160.782 102.938 160.464C103.146 160.146 103.249 159.732 103.226 159.303C103.214 159.063 103.163 158.827 103.077 158.608C102.991 158.39 102.871 158.194 102.726 158.033C102.58 157.872 102.412 157.75 102.232 157.675C102.052 157.599 101.865 157.572 101.681 157.595C101.497 157.617 101.322 157.689 101.166 157.806C101.009 157.923 100.876 158.082 100.774 158.273C100.671 158.464 100.603 158.683 100.572 158.916C100.541 159.149 100.549 159.391 100.595 159.626Z" fill="#8F75DA"/>
<path d="M101.552 167.423C101.634 167.845 101.834 168.222 102.113 168.48C102.392 168.738 102.729 168.859 103.059 168.818C103.389 168.778 103.687 168.579 103.895 168.261C104.103 167.943 104.206 167.529 104.184 167.099C104.171 166.86 104.12 166.624 104.034 166.405C103.948 166.187 103.828 165.991 103.683 165.83C103.537 165.669 103.369 165.547 103.19 165.472C103.01 165.396 102.822 165.369 102.638 165.391C102.455 165.414 102.279 165.486 102.123 165.603C101.967 165.72 101.833 165.879 101.731 166.07C101.629 166.261 101.56 166.48 101.529 166.713C101.498 166.946 101.506 167.188 101.552 167.423Z" fill="#8F75DA"/>
<path d="M119.05 142.969L104.735 144.726C104.443 144.762 104.144 144.646 103.905 144.404C103.665 144.161 103.505 143.812 103.458 143.434C103.412 143.055 103.483 142.678 103.657 142.384C103.83 142.091 104.092 141.907 104.384 141.871L118.699 140.113C118.991 140.077 119.29 140.193 119.529 140.436C119.769 140.678 119.929 141.027 119.976 141.406C120.022 141.784 119.951 142.162 119.777 142.455C119.604 142.748 119.342 142.933 119.05 142.969Z" fill="#8F75DA"/>
<path d="M133.452 149.115L105.669 152.526C105.377 152.562 105.079 152.446 104.839 152.203C104.6 151.961 104.439 151.612 104.393 151.233C104.346 150.855 104.418 150.477 104.591 150.184C104.765 149.891 105.027 149.706 105.319 149.67L133.101 146.259C133.393 146.223 133.692 146.339 133.931 146.582C134.171 146.824 134.331 147.173 134.378 147.552C134.424 147.93 134.353 148.308 134.179 148.601C134.006 148.894 133.744 149.079 133.452 149.115Z" fill="#8F75DA"/>
<path d="M117.893 158.952L106.628 160.336C106.336 160.371 106.038 160.255 105.798 160.013C105.559 159.771 105.398 159.422 105.352 159.043C105.305 158.664 105.377 158.287 105.55 157.994C105.724 157.701 105.986 157.516 106.278 157.48L117.543 156.097C117.835 156.061 118.133 156.177 118.373 156.419C118.612 156.662 118.773 157.011 118.819 157.389C118.866 157.768 118.794 158.146 118.621 158.439C118.447 158.732 118.185 158.917 117.893 158.952Z" fill="#8F75DA"/>
<path d="M130.963 165.26L107.585 168.131C107.293 168.166 106.995 168.05 106.755 167.808C106.516 167.566 106.355 167.217 106.309 166.838C106.262 166.459 106.334 166.082 106.507 165.789C106.681 165.496 106.943 165.311 107.235 165.275L130.613 162.405C130.905 162.369 131.203 162.485 131.443 162.727C131.682 162.969 131.843 163.318 131.889 163.697C131.936 164.076 131.864 164.453 131.69 164.746C131.517 165.039 131.255 165.224 130.963 165.26Z" fill="#8F75DA"/>
<path d="M90.9141 131.398L88.2477 120.643L97.8798 111.4L109.02 118.092L116.884 109.066L128.024 115.759L135.447 106.787L146.587 113.479L154.009 104.508L165.591 111.146L173.014 102.174L184.596 108.812L192.902 99.7325L204.942 102.788L205.825 117.288L193.862 111.201L185.936 119.73L174.857 113.534L166.49 122.118L156.295 115.814L148.811 124.289L137.29 118.147L129.365 126.677L119.17 120.372L110.802 128.956L99.2813 122.814L90.9141 131.398Z" fill="#F0F0F0"/>
</svg>
