<svg width="292" height="270" viewBox="0 0 292 270" fill="none" xmlns="http://www.w3.org/2000/svg">
<path d="M239.671 32.364C239.671 32.364 121.346 15.1877 26.878 102.738C-69.9418 192.468 137.679 39.0945 274.977 160.234C364.197 238.954 26.878 188.38 26.878 188.38" stroke="#F2E3FC" stroke-width="2.86268" stroke-linecap="round" stroke-dasharray="15.27 15.27"/>
<path d="M56.3381 250.455V265H54.321L46.9276 254.332H46.7926V265H44.598V250.455H46.6293L54.0298 261.136H54.1648V250.455H56.3381ZM63.9641 265.22C62.9414 265.22 62.0489 264.986 61.2866 264.517C60.5243 264.048 59.9324 263.393 59.511 262.55C59.0896 261.707 58.8789 260.722 58.8789 259.595C58.8789 258.464 59.0896 257.474 59.511 256.626C59.9324 255.779 60.5243 255.121 61.2866 254.652C62.0489 254.183 62.9414 253.949 63.9641 253.949C64.9869 253.949 65.8794 254.183 66.6417 254.652C67.404 255.121 67.9959 255.779 68.4173 256.626C68.8387 257.474 69.0494 258.464 69.0494 259.595C69.0494 260.722 68.8387 261.707 68.4173 262.55C67.9959 263.393 67.404 264.048 66.6417 264.517C65.8794 264.986 64.9869 265.22 63.9641 265.22ZM63.9712 263.438C64.6341 263.438 65.1834 263.262 65.619 262.912C66.0546 262.562 66.3765 262.095 66.5849 261.513C66.7979 260.93 66.9045 260.289 66.9045 259.588C66.9045 258.892 66.7979 258.253 66.5849 257.67C66.3765 257.083 66.0546 256.612 65.619 256.257C65.1834 255.902 64.6341 255.724 63.9712 255.724C63.3036 255.724 62.7496 255.902 62.3093 256.257C61.8737 256.612 61.5494 257.083 61.3363 257.67C61.128 258.253 61.0238 258.892 61.0238 259.588C61.0238 260.289 61.128 260.93 61.3363 261.513C61.5494 262.095 61.8737 262.562 62.3093 262.912C62.7496 263.262 63.3036 263.438 63.9712 263.438ZM76.1658 252.344V250.455H87.4229V252.344H82.8846V265H80.6971V252.344H76.1658ZM92.8597 265.22C91.7849 265.22 90.8593 264.991 90.0827 264.531C89.311 264.067 88.7144 263.416 88.293 262.578C87.8763 261.735 87.668 260.748 87.668 259.616C87.668 258.499 87.8763 257.514 88.293 256.662C88.7144 255.81 89.3015 255.144 90.0543 254.666C90.8119 254.188 91.6973 253.949 92.7106 253.949C93.3261 253.949 93.9227 254.051 94.5004 254.254C95.078 254.458 95.5965 254.777 96.0558 255.213C96.515 255.649 96.8772 256.214 97.1424 256.911C97.4076 257.602 97.5401 258.442 97.5401 259.432V260.185H88.8683V258.594H95.4592C95.4592 258.035 95.3455 257.54 95.1183 257.109C94.891 256.674 94.5714 256.33 94.1594 256.08C93.7522 255.829 93.274 255.703 92.7248 255.703C92.1282 255.703 91.6074 255.85 91.1623 256.143C90.7219 256.432 90.381 256.811 90.1396 257.28C89.9028 257.744 89.7844 258.248 89.7844 258.793V260.036C89.7844 260.765 89.9123 261.385 90.168 261.896C90.4284 262.408 90.7906 262.798 91.2546 263.068C91.7186 263.333 92.2608 263.466 92.881 263.466C93.2835 263.466 93.6505 263.409 93.9819 263.295C94.3133 263.177 94.5998 263.002 94.8413 262.77C95.0827 262.538 95.2674 262.251 95.3952 261.911L97.4052 262.273C97.2442 262.865 96.9554 263.383 96.5387 263.828C96.1268 264.268 95.6083 264.612 94.9833 264.858C94.363 265.099 93.6552 265.22 92.8597 265.22ZM99.8963 265V254.091H101.935V255.866H102.07C102.297 255.265 102.669 254.796 103.185 254.46C103.701 254.119 104.319 253.949 105.038 253.949C105.768 253.949 106.378 254.119 106.871 254.46C107.368 254.801 107.735 255.27 107.972 255.866H108.085C108.346 255.284 108.76 254.82 109.328 254.474C109.896 254.124 110.573 253.949 111.359 253.949C112.349 253.949 113.156 254.259 113.781 254.879C114.411 255.5 114.726 256.435 114.726 257.685V265H112.602V257.884C112.602 257.145 112.401 256.61 111.999 256.278C111.596 255.947 111.116 255.781 110.557 255.781C109.866 255.781 109.328 255.994 108.945 256.42C108.561 256.842 108.369 257.384 108.369 258.047V265H106.253V257.749C106.253 257.157 106.068 256.681 105.699 256.321C105.33 255.961 104.849 255.781 104.257 255.781C103.855 255.781 103.483 255.888 103.142 256.101C102.806 256.309 102.534 256.6 102.325 256.974C102.122 257.348 102.02 257.782 102.02 258.274V265H99.8963ZM117.572 269.091V254.091H119.646V255.859H119.824C119.947 255.632 120.124 255.369 120.356 255.071C120.588 254.773 120.91 254.512 121.322 254.29C121.734 254.062 122.279 253.949 122.956 253.949C123.836 253.949 124.622 254.171 125.314 254.616C126.005 255.062 126.547 255.703 126.94 256.541C127.338 257.379 127.537 258.388 127.537 259.567C127.537 260.746 127.34 261.757 126.947 262.599C126.554 263.437 126.014 264.084 125.328 264.538C124.641 264.988 123.858 265.213 122.977 265.213C122.314 265.213 121.772 265.102 121.35 264.879C120.934 264.657 120.607 264.396 120.37 264.098C120.134 263.8 119.951 263.535 119.824 263.303H119.696V269.091H117.572ZM119.653 259.545C119.653 260.312 119.764 260.985 119.987 261.562C120.209 262.14 120.531 262.592 120.953 262.919C121.374 263.241 121.89 263.402 122.501 263.402C123.136 263.402 123.666 263.234 124.092 262.898C124.518 262.557 124.84 262.095 125.058 261.513C125.28 260.93 125.392 260.275 125.392 259.545C125.392 258.826 125.283 258.179 125.065 257.607C124.852 257.034 124.53 256.581 124.099 256.25C123.673 255.919 123.14 255.753 122.501 255.753C121.886 255.753 121.365 255.911 120.939 256.229C120.517 256.546 120.198 256.989 119.98 257.557C119.762 258.125 119.653 258.788 119.653 259.545ZM132.039 250.455V265H129.916V250.455H132.039ZM138.071 265.241C137.38 265.241 136.755 265.114 136.196 264.858C135.637 264.598 135.195 264.221 134.868 263.729C134.546 263.236 134.385 262.633 134.385 261.918C134.385 261.302 134.503 260.795 134.74 260.398C134.977 260 135.296 259.685 135.699 259.453C136.101 259.221 136.551 259.046 137.048 258.928C137.545 258.809 138.052 258.719 138.568 258.658C139.222 258.582 139.752 258.52 140.159 258.473C140.566 258.421 140.862 258.338 141.047 258.224C141.232 258.111 141.324 257.926 141.324 257.67V257.621C141.324 257 141.149 256.52 140.798 256.179C140.453 255.838 139.937 255.668 139.25 255.668C138.535 255.668 137.972 255.826 137.56 256.143C137.152 256.456 136.871 256.804 136.714 257.188L134.719 256.733C134.955 256.07 135.301 255.535 135.756 255.128C136.215 254.716 136.743 254.418 137.339 254.233C137.936 254.044 138.563 253.949 139.222 253.949C139.657 253.949 140.119 254.001 140.607 254.105C141.099 254.205 141.558 254.389 141.984 254.659C142.415 254.929 142.768 255.315 143.043 255.817C143.317 256.314 143.455 256.96 143.455 257.756V265H141.381V263.509H141.295C141.158 263.783 140.952 264.053 140.678 264.318C140.403 264.583 140.05 264.804 139.619 264.979C139.188 265.154 138.672 265.241 138.071 265.241ZM138.533 263.537C139.12 263.537 139.622 263.421 140.038 263.189C140.46 262.957 140.779 262.654 140.997 262.28C141.22 261.901 141.331 261.496 141.331 261.065V259.659C141.255 259.735 141.108 259.806 140.891 259.872C140.678 259.934 140.434 259.988 140.159 260.036C139.884 260.078 139.617 260.118 139.357 260.156C139.096 260.189 138.878 260.218 138.703 260.241C138.291 260.294 137.915 260.381 137.574 260.504C137.238 260.627 136.968 260.805 136.764 261.037C136.565 261.264 136.466 261.567 136.466 261.946C136.466 262.472 136.66 262.869 137.048 263.139C137.437 263.404 137.931 263.537 138.533 263.537ZM151.375 254.091V255.795H145.417V254.091H151.375ZM147.015 251.477H149.138V261.797C149.138 262.209 149.2 262.519 149.323 262.727C149.446 262.931 149.605 263.071 149.799 263.146C149.998 263.217 150.213 263.253 150.445 263.253C150.615 263.253 150.765 263.241 150.892 263.217C151.02 263.194 151.12 263.175 151.191 263.161L151.574 264.915C151.451 264.962 151.276 265.009 151.049 265.057C150.821 265.109 150.537 265.137 150.196 265.142C149.638 265.152 149.117 265.052 148.634 264.844C148.151 264.635 147.76 264.313 147.462 263.878C147.164 263.442 147.015 262.895 147.015 262.237V251.477ZM158.309 265.22C157.234 265.22 156.308 264.991 155.532 264.531C154.76 264.067 154.164 263.416 153.742 262.578C153.326 261.735 153.117 260.748 153.117 259.616C153.117 258.499 153.326 257.514 153.742 256.662C154.164 255.81 154.751 255.144 155.504 254.666C156.261 254.188 157.147 253.949 158.16 253.949C158.775 253.949 159.372 254.051 159.95 254.254C160.527 254.458 161.046 254.777 161.505 255.213C161.964 255.649 162.326 256.214 162.592 256.911C162.857 257.602 162.989 258.442 162.989 259.432V260.185H154.317V258.594H160.908C160.908 258.035 160.795 257.54 160.567 257.109C160.34 256.674 160.021 256.33 159.609 256.08C159.201 255.829 158.723 255.703 158.174 255.703C157.577 255.703 157.057 255.85 156.612 256.143C156.171 256.432 155.83 256.811 155.589 257.28C155.352 257.744 155.234 258.248 155.234 258.793V260.036C155.234 260.765 155.362 261.385 155.617 261.896C155.878 262.408 156.24 262.798 156.704 263.068C157.168 263.333 157.71 263.466 158.33 263.466C158.733 263.466 159.1 263.409 159.431 263.295C159.763 263.177 160.049 263.002 160.29 262.77C160.532 262.538 160.717 262.251 160.844 261.911L162.854 262.273C162.693 262.865 162.405 263.383 161.988 263.828C161.576 264.268 161.058 264.612 160.433 264.858C159.812 265.099 159.104 265.22 158.309 265.22ZM172.038 265H169.708L174.942 250.455H177.478L182.712 265H180.383L176.271 253.097H176.157L172.038 265ZM172.428 259.304H179.985V261.151H172.428V259.304ZM192.608 254.091L188.652 265H186.379L182.416 254.091H184.696L187.458 262.486H187.572L190.328 254.091H192.608ZM197.466 265.241C196.774 265.241 196.149 265.114 195.591 264.858C195.032 264.598 194.589 264.221 194.262 263.729C193.94 263.236 193.779 262.633 193.779 261.918C193.779 261.302 193.898 260.795 194.135 260.398C194.371 260 194.691 259.685 195.093 259.453C195.496 259.221 195.946 259.046 196.443 258.928C196.94 258.809 197.447 258.719 197.963 258.658C198.616 258.582 199.146 258.52 199.554 258.473C199.961 258.421 200.257 258.338 200.441 258.224C200.626 258.111 200.718 257.926 200.718 257.67V257.621C200.718 257 200.543 256.52 200.193 256.179C199.847 255.838 199.331 255.668 198.645 255.668C197.93 255.668 197.366 255.826 196.954 256.143C196.547 256.456 196.265 256.804 196.109 257.188L194.113 256.733C194.35 256.07 194.696 255.535 195.15 255.128C195.609 254.716 196.137 254.418 196.734 254.233C197.331 254.044 197.958 253.949 198.616 253.949C199.052 253.949 199.513 254.001 200.001 254.105C200.493 254.205 200.953 254.389 201.379 254.659C201.81 254.929 202.163 255.315 202.437 255.817C202.712 256.314 202.849 256.96 202.849 257.756V265H200.775V263.509H200.69C200.553 263.783 200.347 264.053 200.072 264.318C199.797 264.583 199.445 264.804 199.014 264.979C198.583 265.154 198.067 265.241 197.466 265.241ZM197.927 263.537C198.514 263.537 199.016 263.421 199.433 263.189C199.854 262.957 200.174 262.654 200.392 262.28C200.614 261.901 200.725 261.496 200.725 261.065V259.659C200.65 259.735 200.503 259.806 200.285 259.872C200.072 259.934 199.828 259.988 199.554 260.036C199.279 260.078 199.011 260.118 198.751 260.156C198.491 260.189 198.273 260.218 198.098 260.241C197.686 260.294 197.309 260.381 196.968 260.504C196.632 260.627 196.362 260.805 196.159 261.037C195.96 261.264 195.86 261.567 195.86 261.946C195.86 262.472 196.055 262.869 196.443 263.139C196.831 263.404 197.326 263.537 197.927 263.537ZM205.678 265V254.091H207.801V265H205.678ZM206.75 252.408C206.381 252.408 206.063 252.285 205.798 252.038C205.538 251.787 205.408 251.489 205.408 251.143C205.408 250.793 205.538 250.495 205.798 250.249C206.063 249.998 206.381 249.872 206.75 249.872C207.119 249.872 207.434 249.998 207.695 250.249C207.96 250.495 208.092 250.793 208.092 251.143C208.092 251.489 207.96 251.787 207.695 252.038C207.434 252.285 207.119 252.408 206.75 252.408ZM212.782 250.455V265H210.658V250.455H212.782ZM218.813 265.241C218.122 265.241 217.497 265.114 216.938 264.858C216.379 264.598 215.937 264.221 215.61 263.729C215.288 263.236 215.127 262.633 215.127 261.918C215.127 261.302 215.246 260.795 215.482 260.398C215.719 260 216.039 259.685 216.441 259.453C216.844 259.221 217.293 259.046 217.79 258.928C218.288 258.809 218.794 258.719 219.31 258.658C219.964 258.582 220.494 258.52 220.901 258.473C221.308 258.421 221.604 258.338 221.789 258.224C221.974 258.111 222.066 257.926 222.066 257.67V257.621C222.066 257 221.891 256.52 221.54 256.179C221.195 255.838 220.679 255.668 219.992 255.668C219.277 255.668 218.714 255.826 218.302 256.143C217.895 256.456 217.613 256.804 217.457 257.188L215.461 256.733C215.698 256.07 216.043 255.535 216.498 255.128C216.957 254.716 217.485 254.418 218.082 254.233C218.678 254.044 219.306 253.949 219.964 253.949C220.399 253.949 220.861 254.001 221.349 254.105C221.841 254.205 222.3 254.389 222.727 254.659C223.157 254.929 223.51 255.315 223.785 255.817C224.059 256.314 224.197 256.96 224.197 257.756V265H222.123V263.509H222.038C221.9 263.783 221.694 264.053 221.42 264.318C221.145 264.583 220.792 264.804 220.362 264.979C219.931 265.154 219.415 265.241 218.813 265.241ZM219.275 263.537C219.862 263.537 220.364 263.421 220.781 263.189C221.202 262.957 221.522 262.654 221.739 262.28C221.962 261.901 222.073 261.496 222.073 261.065V259.659C221.997 259.735 221.851 259.806 221.633 259.872C221.42 259.934 221.176 259.988 220.901 260.036C220.627 260.078 220.359 260.118 220.099 260.156C219.838 260.189 219.621 260.218 219.445 260.241C219.033 260.294 218.657 260.381 218.316 260.504C217.98 260.627 217.71 260.805 217.506 261.037C217.308 261.264 217.208 261.567 217.208 261.946C217.208 262.472 217.402 262.869 217.79 263.139C218.179 263.404 218.674 263.537 219.275 263.537ZM227.196 265V250.455H229.319V255.859H229.447C229.57 255.632 229.748 255.369 229.98 255.071C230.212 254.773 230.534 254.512 230.946 254.29C231.358 254.062 231.902 253.949 232.579 253.949C233.46 253.949 234.246 254.171 234.937 254.616C235.628 255.062 236.171 255.703 236.564 256.541C236.961 257.379 237.16 258.388 237.16 259.567C237.16 260.746 236.964 261.757 236.571 262.599C236.178 263.437 235.638 264.084 234.951 264.538C234.265 264.988 233.481 265.213 232.6 265.213C231.938 265.213 231.395 265.102 230.974 264.879C230.557 264.657 230.231 264.396 229.994 264.098C229.757 263.8 229.575 263.535 229.447 263.303H229.27V265H227.196ZM229.277 259.545C229.277 260.312 229.388 260.985 229.61 261.562C229.833 262.14 230.155 262.592 230.576 262.919C230.998 263.241 231.514 263.402 232.125 263.402C232.759 263.402 233.289 263.234 233.716 262.898C234.142 262.557 234.464 262.095 234.681 261.513C234.904 260.93 235.015 260.275 235.015 259.545C235.015 258.826 234.906 258.179 234.689 257.607C234.475 257.034 234.154 256.581 233.723 256.25C233.297 255.919 232.764 255.753 232.125 255.753C231.509 255.753 230.988 255.911 230.562 256.229C230.141 256.546 229.821 256.989 229.603 257.557C229.386 258.125 229.277 258.788 229.277 259.545ZM241.668 250.455V265H239.545V250.455H241.668ZM249.227 265.22C248.152 265.22 247.226 264.991 246.45 264.531C245.678 264.067 245.082 263.416 244.66 262.578C244.243 261.735 244.035 260.748 244.035 259.616C244.035 258.499 244.243 257.514 244.66 256.662C245.082 255.81 245.669 255.144 246.422 254.666C247.179 254.188 248.065 253.949 249.078 253.949C249.693 253.949 250.29 254.051 250.868 254.254C251.445 254.458 251.964 254.777 252.423 255.213C252.882 255.649 253.244 256.214 253.51 256.911C253.775 257.602 253.907 258.442 253.907 259.432V260.185H245.235V258.594H251.826C251.826 258.035 251.713 257.54 251.485 257.109C251.258 256.674 250.939 256.33 250.527 256.08C250.119 255.829 249.641 255.703 249.092 255.703C248.495 255.703 247.975 255.85 247.529 256.143C247.089 256.432 246.748 256.811 246.507 257.28C246.27 257.744 246.152 258.248 246.152 258.793V260.036C246.152 260.765 246.279 261.385 246.535 261.896C246.796 262.408 247.158 262.798 247.622 263.068C248.086 263.333 248.628 263.466 249.248 263.466C249.651 263.466 250.018 263.409 250.349 263.295C250.681 263.177 250.967 263.002 251.208 262.77C251.45 262.538 251.635 262.251 251.762 261.911L253.772 262.273C253.611 262.865 253.323 263.383 252.906 263.828C252.494 264.268 251.975 264.612 251.35 264.858C250.73 265.099 250.022 265.22 249.227 265.22Z" fill="#211447"/>
<line x1="1.5" y1="-1.5" x2="20.3667" y2="-1.5" transform="matrix(0.272219 0.962235 -0.970405 0.241485 75.062 1)" stroke="#DFC4F2" stroke-width="3" stroke-linecap="round"/>
<line x1="1.5" y1="-1.5" x2="21.2724" y2="-1.5" transform="matrix(-0.846153 -0.53294 0.582176 -0.813063 69.269 30.5225)" stroke="#DFC4F2" stroke-width="3" stroke-linecap="round"/>
<line x1="1.5" y1="-1.5" x2="20.7653" y2="-1.5" transform="matrix(0.605162 0.796102 -0.831286 0.555844 60.9517 8.83496)" stroke="#DFC4F2" stroke-width="3" stroke-linecap="round"/>
<path d="M195.064 20.8583L211.113 151.562L213.228 168.788C213.536 171.295 211.752 173.578 209.245 173.886L190.851 176.144L100.194 187.275C99.2565 187.388 98.3153 187.143 97.5764 186.594C96.8376 186.045 96.3614 185.238 96.2522 184.349L77.9438 35.2388C77.8346 34.3495 78.1013 33.4509 78.6855 32.7398C79.2697 32.0288 80.1237 31.5634 81.0604 31.4456L191.112 17.933C192.05 17.8177 192.994 18.0611 193.736 18.6097C194.477 19.1583 194.955 19.9671 195.064 20.8583Z" fill="#8F75DA"/>
<path opacity="0.6" d="M190.923 19.9715C193.117 19.7021 195.114 21.2624 195.383 23.4565L213.297 169.356C213.567 171.55 212.006 173.547 209.812 173.816L100.194 187.276C99.2564 187.388 98.3131 187.126 97.5705 186.547C96.8279 185.968 96.3467 185.119 96.2322 184.187L78.2627 37.8371C77.9933 35.6429 79.5536 33.6459 81.7477 33.3765L190.923 19.9715Z" fill="white"/>
<path d="M156.118 45.4161L115.265 50.4323C114.973 50.4681 114.674 50.3521 114.435 50.1097C114.195 49.8673 114.035 49.5184 113.988 49.1397C113.942 48.761 114.013 48.3836 114.187 48.0905C114.36 47.7974 114.622 47.6126 114.914 47.5767L155.768 42.5605C156.06 42.5247 156.358 42.6407 156.598 42.8831C156.837 43.1255 156.998 43.4744 157.044 43.8531C157.091 44.2318 157.019 44.6092 156.846 44.9023C156.672 45.1954 156.41 45.3803 156.118 45.4161Z" fill="#8F75DA"/>
<path d="M148.181 54.3176L125.145 57.1462C124.853 57.182 124.554 57.066 124.315 56.8236C124.075 56.5812 123.915 56.2322 123.868 55.8536C123.822 55.4749 123.893 55.0975 124.067 54.8044C124.24 54.5113 124.502 54.3264 124.794 54.2906L147.919 51.4512C148.211 51.4154 148.509 51.5314 148.749 51.7738C148.988 52.0162 149.149 52.3651 149.195 52.7438C149.242 53.1225 149.17 53.4999 148.997 53.793C148.823 54.0861 148.561 54.271 148.269 54.3068L148.181 54.3176Z" fill="#8F75DA"/>
<path d="M177.37 80.0712L93.0956 90.4187C92.8334 90.4509 92.5626 90.325 92.3429 90.0685C92.1232 89.8121 91.9725 89.4462 91.924 89.0513C91.8755 88.6565 91.9332 88.265 92.0844 87.963C92.2355 87.661 92.4678 87.4733 92.73 87.4411L177.004 77.0936C177.266 77.0614 177.537 77.1873 177.757 77.4438C177.976 77.7002 178.127 78.0661 178.176 78.461C178.224 78.8558 178.166 79.2473 178.015 79.5493C177.864 79.8513 177.632 80.039 177.37 80.0712Z" fill="#8F75DA"/>
<path d="M171.218 127.172L98.7054 136.075C98.4422 136.108 98.1704 135.982 97.95 135.726C97.7295 135.469 97.5785 135.103 97.53 134.709C97.4815 134.314 97.5396 133.922 97.6914 133.62C97.8433 133.318 98.0765 133.13 98.3398 133.098L170.803 124.2C171.066 124.168 171.338 124.294 171.559 124.55C171.779 124.807 171.93 125.173 171.979 125.567C172.027 125.962 171.969 126.354 171.817 126.656C171.665 126.958 171.432 127.146 171.169 127.178L171.218 127.172Z" fill="#8F75DA"/>
<path d="M94.0495 99.7722C94.1318 100.194 94.332 100.571 94.6109 100.829C94.8897 101.088 95.227 101.208 95.5566 101.168C95.8862 101.127 96.1843 100.929 96.3924 100.611C96.6005 100.293 96.7035 99.8784 96.6813 99.4491C96.6689 99.2099 96.618 98.9734 96.5318 98.7548C96.4455 98.5362 96.3259 98.3403 96.1805 98.1796C96.035 98.0189 95.867 97.8969 95.6872 97.8214C95.5073 97.7459 95.3196 97.7185 95.1359 97.7411C94.9522 97.7636 94.7766 97.8356 94.6203 97.9524C94.4641 98.0691 94.3306 98.2282 94.2284 98.4193C94.1261 98.6104 94.0574 98.8294 94.0266 99.0624C93.9958 99.2953 94.0036 99.5371 94.0495 99.7722V99.7722Z" fill="#8F75DA"/>
<path d="M95.0065 107.567C95.0461 107.908 95.1629 108.232 95.3422 108.498C95.5214 108.764 95.7549 108.96 96.0129 109.062C96.271 109.164 96.5419 109.166 96.7912 109.069C97.0404 108.972 97.2568 108.779 97.4128 108.516C97.5687 108.253 97.6571 107.931 97.6668 107.591C97.6764 107.251 97.6069 106.909 97.467 106.607C97.3271 106.306 97.1232 106.06 96.8813 105.899C96.6393 105.739 96.3702 105.672 96.1083 105.707C95.7608 105.75 95.4494 105.97 95.2428 106.319C95.0362 106.668 94.9512 107.117 95.0065 107.567V107.567Z" fill="#8F75DA"/>
<path d="M95.9655 115.377C96.0478 115.799 96.2481 116.176 96.5269 116.434C96.8057 116.692 97.143 116.813 97.4726 116.772C97.8022 116.732 98.1003 116.533 98.3084 116.215C98.5165 115.897 98.6195 115.483 98.5973 115.054C98.585 114.814 98.534 114.578 98.4478 114.359C98.3616 114.141 98.2419 113.945 98.0965 113.784C97.9511 113.623 97.7831 113.501 97.6032 113.426C97.4233 113.35 97.2356 113.323 97.0519 113.346C96.8682 113.368 96.6926 113.44 96.5364 113.557C96.3801 113.674 96.2466 113.833 96.1444 114.024C96.0422 114.215 95.9735 114.434 95.9427 114.667C95.9119 114.9 95.9197 115.142 95.9655 115.377V115.377Z" fill="#8F75DA"/>
<path d="M96.9231 123.174C97.0054 123.595 97.2056 123.973 97.4844 124.231C97.7632 124.489 98.1005 124.61 98.4301 124.569C98.7597 124.529 99.0578 124.33 99.2659 124.012C99.474 123.694 99.577 123.28 99.5549 122.85C99.5425 122.611 99.4916 122.375 99.4053 122.156C99.3191 121.938 99.1994 121.742 99.054 121.581C98.9086 121.42 98.7406 121.298 98.5607 121.223C98.3809 121.147 98.1931 121.12 98.0094 121.142C97.8257 121.165 97.6501 121.237 97.4939 121.354C97.3376 121.471 97.2041 121.63 97.1019 121.821C96.9997 122.012 96.931 122.231 96.9002 122.464C96.8694 122.697 96.8772 122.938 96.9231 123.174V123.174Z" fill="#8F75DA"/>
<path d="M114.421 98.7195L100.106 100.477C99.8136 100.513 99.515 100.397 99.2756 100.155C99.0362 99.9122 98.8756 99.5633 98.8291 99.1846C98.7826 98.806 98.854 98.4285 99.0277 98.1354C99.2013 97.8423 99.4629 97.6575 99.755 97.6216L114.07 95.8639C114.362 95.8281 114.661 95.9441 114.9 96.1865C115.14 96.4289 115.3 96.7779 115.347 97.1565C115.393 97.5352 115.322 97.9126 115.148 98.2057C114.974 98.4988 114.713 98.6837 114.421 98.7195Z" fill="#8F75DA"/>
<path d="M128.823 104.866L101.04 108.277C100.748 108.313 100.45 108.197 100.21 107.954C99.9708 107.712 99.8102 107.363 99.7637 106.984C99.7172 106.606 99.7886 106.228 99.9623 105.935C100.136 105.642 100.398 105.457 100.69 105.421L128.472 102.01C128.764 101.974 129.063 102.09 129.302 102.333C129.541 102.575 129.702 102.924 129.749 103.303C129.795 103.681 129.724 104.059 129.55 104.352C129.376 104.645 129.115 104.83 128.823 104.866V104.866Z" fill="#8F75DA"/>
<path d="M113.264 114.703L101.999 116.087C101.707 116.122 101.409 116.006 101.169 115.764C100.93 115.522 100.769 115.173 100.723 114.794C100.676 114.415 100.748 114.038 100.921 113.745C101.095 113.452 101.356 113.267 101.649 113.231L112.914 111.848C113.206 111.812 113.504 111.928 113.744 112.17C113.983 112.413 114.143 112.762 114.19 113.14C114.236 113.519 114.165 113.897 113.991 114.19C113.818 114.483 113.556 114.668 113.264 114.703V114.703Z" fill="#8F75DA"/>
<path d="M126.334 121.011L102.956 123.882C102.664 123.917 102.366 123.801 102.126 123.559C101.887 123.317 101.726 122.968 101.68 122.589C101.633 122.21 101.705 121.833 101.878 121.54C102.052 121.247 102.314 121.062 102.606 121.026L125.983 118.155C126.275 118.12 126.574 118.236 126.813 118.478C127.053 118.72 127.213 119.069 127.26 119.448C127.306 119.827 127.235 120.204 127.061 120.497C126.888 120.79 126.626 120.975 126.334 121.011V121.011Z" fill="#8F75DA"/>
<path d="M98.6789 144.021C98.7612 144.443 98.9614 144.82 99.2403 145.078C99.5191 145.337 99.8564 145.457 100.186 145.417C100.516 145.376 100.814 145.178 101.022 144.86C101.23 144.542 101.333 144.127 101.311 143.698C101.298 143.459 101.247 143.222 101.161 143.004C101.075 142.785 100.955 142.589 100.81 142.429C100.664 142.268 100.496 142.146 100.317 142.07C100.137 141.995 99.949 141.968 99.7653 141.99C99.5816 142.013 99.406 142.085 99.2497 142.201C99.0935 142.318 98.96 142.477 98.8578 142.668C98.7555 142.859 98.6868 143.078 98.656 143.311C98.6252 143.544 98.633 143.786 98.6789 144.021V144.021Z" fill="#8F75DA"/>
<path d="M99.6359 151.816C99.6755 152.157 99.7923 152.481 99.9715 152.747C100.151 153.013 100.384 153.209 100.642 153.311C100.9 153.413 101.171 153.415 101.421 153.318C101.67 153.221 101.886 153.028 102.042 152.765C102.198 152.502 102.287 152.18 102.296 151.84C102.306 151.5 102.236 151.158 102.096 150.856C101.957 150.555 101.753 150.309 101.511 150.149C101.269 149.988 101 149.921 100.738 149.956C100.39 149.999 100.079 150.219 99.8722 150.568C99.6656 150.917 99.5806 151.366 99.6359 151.816V151.816Z" fill="#8F75DA"/>
<path d="M100.595 159.626C100.677 160.048 100.877 160.425 101.156 160.683C101.435 160.941 101.772 161.062 102.102 161.021C102.432 160.981 102.73 160.782 102.938 160.464C103.146 160.146 103.249 159.732 103.227 159.303C103.214 159.063 103.163 158.827 103.077 158.608C102.991 158.39 102.871 158.194 102.726 158.033C102.58 157.872 102.412 157.75 102.233 157.675C102.053 157.599 101.865 157.572 101.681 157.595C101.498 157.617 101.322 157.689 101.166 157.806C101.009 157.923 100.876 158.082 100.774 158.273C100.672 158.464 100.603 158.683 100.572 158.916C100.541 159.149 100.549 159.391 100.595 159.626V159.626Z" fill="#8F75DA"/>
<path d="M101.552 167.423C101.635 167.845 101.835 168.222 102.114 168.48C102.393 168.738 102.73 168.859 103.06 168.818C103.389 168.778 103.687 168.579 103.895 168.261C104.103 167.943 104.206 167.529 104.184 167.099C104.172 166.86 104.121 166.624 104.035 166.405C103.948 166.187 103.829 165.991 103.683 165.83C103.538 165.669 103.37 165.547 103.19 165.472C103.01 165.396 102.822 165.369 102.639 165.391C102.455 165.414 102.28 165.486 102.123 165.603C101.967 165.72 101.834 165.879 101.731 166.07C101.629 166.261 101.56 166.48 101.53 166.713C101.499 166.946 101.507 167.188 101.552 167.423V167.423Z" fill="#8F75DA"/>
<path d="M119.05 142.969L104.735 144.726C104.443 144.762 104.144 144.646 103.905 144.404C103.666 144.161 103.505 143.812 103.459 143.434C103.412 143.055 103.483 142.678 103.657 142.384C103.831 142.091 104.092 141.907 104.384 141.871L118.7 140.113C118.992 140.077 119.29 140.193 119.53 140.436C119.769 140.678 119.93 141.027 119.976 141.406C120.023 141.784 119.951 142.162 119.778 142.455C119.604 142.748 119.342 142.933 119.05 142.969Z" fill="#8F75DA"/>
<path d="M133.452 149.115L105.67 152.526C105.378 152.562 105.079 152.446 104.84 152.203C104.6 151.961 104.44 151.612 104.393 151.233C104.347 150.855 104.418 150.477 104.592 150.184C104.765 149.891 105.027 149.706 105.319 149.67L133.101 146.259C133.394 146.223 133.692 146.339 133.931 146.582C134.171 146.824 134.331 147.173 134.378 147.552C134.424 147.93 134.353 148.308 134.179 148.601C134.006 148.894 133.744 149.079 133.452 149.115V149.115Z" fill="#8F75DA"/>
<path d="M117.894 158.952L106.629 160.336C106.337 160.371 106.038 160.255 105.799 160.013C105.559 159.771 105.399 159.422 105.352 159.043C105.306 158.664 105.377 158.287 105.551 157.994C105.724 157.701 105.986 157.516 106.278 157.48L117.543 156.097C117.835 156.061 118.134 156.177 118.373 156.419C118.612 156.662 118.773 157.011 118.819 157.389C118.866 157.768 118.794 158.146 118.621 158.439C118.447 158.732 118.186 158.917 117.894 158.952V158.952Z" fill="#8F75DA"/>
<path d="M130.963 165.26L107.586 168.131C107.294 168.166 106.995 168.05 106.756 167.808C106.516 167.566 106.356 167.217 106.309 166.838C106.263 166.459 106.334 166.082 106.508 165.789C106.681 165.496 106.943 165.311 107.235 165.275L130.613 162.405C130.905 162.369 131.203 162.485 131.443 162.727C131.682 162.969 131.843 163.318 131.889 163.697C131.936 164.076 131.864 164.453 131.691 164.746C131.517 165.039 131.255 165.224 130.963 165.26V165.26Z" fill="#8F75DA"/>
<path d="M90.9144 131.398L88.2479 120.643L97.8801 111.4L109.02 118.092L116.885 109.066L128.025 115.759L135.447 106.787L146.587 113.479L154.01 104.508L165.592 111.146L173.014 102.174L184.596 108.812L192.902 99.7325L204.942 102.788L205.825 117.288L193.862 111.201L185.937 119.73L174.857 113.534L166.49 122.118L156.295 115.814L148.812 124.289L137.29 118.147L129.365 126.677L119.17 120.372L110.803 128.956L99.2816 122.814L90.9144 131.398Z" fill="#F0F0F0"/>
</svg>
