<svg width="69" height="70" viewBox="0 0 69 70" fill="none" xmlns="http://www.w3.org/2000/svg">
<rect y="0.140625" width="69" height="69" rx="6.13698" fill="url(#paint0_linear_5532_13797)"/>
<path d="M21.375 49.6406C20.3438 49.6406 19.4606 49.2731 18.7256 48.5381C17.9906 47.8031 17.6238 46.9206 17.625 45.8906V19.6406C17.625 18.6094 17.9925 17.7263 18.7275 16.9913C19.4625 16.2563 20.345 15.8894 21.375 15.8906H47.625C48.6563 15.8906 49.5394 16.2581 50.2744 16.9931C51.0094 17.7281 51.3763 18.6106 51.375 19.6406V30.2344C50.7813 29.9531 50.1719 29.7263 49.5469 29.5538C48.9219 29.3813 48.2813 29.2488 47.625 29.1563V19.6406H21.375V36.5156H29.25C29.5313 37.3594 30 38.0938 30.6563 38.7188C31.3125 39.3438 32.0469 39.7813 32.8594 40.0313C32.7656 40.6563 32.7031 41.2888 32.6719 41.9288C32.6406 42.5688 32.6719 43.2019 32.7656 43.8281C31.6406 43.6094 30.5863 43.195 29.6025 42.585C28.6188 41.975 27.7513 41.2019 27 40.2656H21.375V45.8906H33.2344C33.4531 46.5781 33.7031 47.2344 33.9844 47.8594C34.2656 48.4844 34.6094 49.0781 35.0156 49.6406H21.375ZM43.9219 51.5156L43.3594 48.7031C42.9844 48.5469 42.6325 48.3825 42.3038 48.21C41.975 48.0375 41.6394 47.8269 41.2969 47.5781L38.5781 48.4219L36.7031 45.2344L38.8594 43.3594C38.7969 42.9844 38.7656 42.5781 38.7656 42.1406C38.7656 41.7031 38.7969 41.2969 38.8594 40.9219L36.7031 39.0469L38.5781 35.8594L41.2969 36.7031C41.6406 36.4531 41.9763 36.2425 42.3038 36.0713C42.6313 35.9 42.9831 35.7356 43.3594 35.5781L43.9219 32.7656H47.6719L48.2344 35.5781C48.6094 35.7344 48.9613 35.8988 49.29 36.0713C49.6188 36.2438 49.9544 36.4544 50.2969 36.7031L53.0156 35.8594L54.8906 39.0469L52.7344 40.9219C52.7969 41.2969 52.8281 41.7031 52.8281 42.1406C52.8281 42.5781 52.7969 42.9844 52.7344 43.3594L54.8906 45.2344L53.0156 48.4219L50.2969 47.5781C49.9531 47.8281 49.6175 48.0394 49.29 48.2119C48.9625 48.3844 48.6106 48.5481 48.2344 48.7031L47.6719 51.5156H43.9219ZM45.7969 45.8906C46.8281 45.8906 47.7113 45.5231 48.4463 44.7881C49.1813 44.0531 49.5475 43.1706 49.545 42.1406C49.545 41.1094 49.1781 40.2263 48.4444 39.4913C47.7106 38.7563 46.8281 38.3894 45.7969 38.3906C44.7656 38.3906 43.8831 38.7581 43.1494 39.4931C42.4156 40.2281 42.0475 41.1106 42.045 42.1406C42.045 43.1719 42.4125 44.055 43.1475 44.79C43.8825 45.525 44.7669 45.8919 45.7969 45.8906Z" fill="white"/>
<defs>
<linearGradient id="paint0_linear_5532_13797" x1="34.5" y1="0.140625" x2="34.5" y2="69.1406" gradientUnits="userSpaceOnUse">
<stop stop-color="#71CD98"/>
<stop offset="1" stop-color="#56AC32"/>
</linearGradient>
</defs>
</svg>
