<svg width="69" height="69" viewBox="0 0 69 69" fill="none" xmlns="http://www.w3.org/2000/svg">
<rect width="69" height="68.14" rx="6.4" fill="url(#paint0_linear_5532_13790)"/>
<path fill-rule="evenodd" clip-rule="evenodd" d="M33.0711 17.2478C31.9198 17.3997 30.4986 17.726 28.4773 18.1928L26.1729 18.7253C24.4667 19.1191 23.2892 19.3928 22.3911 19.7003C21.5229 19.9985 21.0317 20.291 20.6623 20.6622C20.2911 21.0316 19.9986 21.5228 19.7004 22.391C19.3929 23.2891 19.1192 24.4647 18.7254 26.1728L18.1929 28.4753C17.7261 30.4985 17.3998 31.9197 17.2479 33.071C17.0979 34.1922 17.1336 34.9516 17.3323 35.6416C17.5292 36.3316 17.9023 36.9935 18.6223 37.8653C19.3629 38.7616 20.3923 39.7947 21.8604 41.2628L25.2917 44.6941C27.8398 47.2422 29.6529 49.0516 31.2129 50.2403C32.7392 51.4066 33.8567 51.8435 34.9911 51.8435C36.1273 51.8435 37.2429 51.4066 38.7711 50.2403C40.3292 49.0516 42.1442 47.2403 44.6923 44.6922C47.2423 42.1422 49.0517 40.3291 50.2423 38.771C51.4048 37.2428 51.8436 36.1272 51.8436 34.991C51.8436 33.8566 51.4067 32.741 50.2404 31.2128C49.0517 29.6528 47.2404 27.8378 44.6923 25.2897L41.2611 21.8585C39.7948 20.3922 38.7617 19.3628 37.8673 18.6222C36.9936 17.9022 36.3317 17.5291 35.6417 17.3322C34.9517 17.1335 34.1923 17.0997 33.0729 17.2478H33.0711ZM32.7036 14.4597C34.0479 14.2816 35.2273 14.2872 36.4161 14.6285C37.6067 14.9697 38.6098 15.5903 39.6561 16.4528C40.6686 17.2891 41.7936 18.4141 43.2017 19.8222L46.7567 23.3772C49.2129 25.8335 51.1592 27.7797 52.4754 29.5085C53.8329 31.2841 54.6561 32.9941 54.6561 34.991C54.6561 36.9897 53.8329 38.6997 52.4773 40.4753C51.1592 42.2041 49.2148 44.1503 46.7567 46.6066L46.6067 46.7566C44.1504 49.2128 42.2042 51.1591 40.4754 52.4753C38.6998 53.8328 36.9879 54.656 34.9911 54.656C32.9942 54.656 31.2842 53.8328 29.5067 52.4772C27.7798 51.1591 25.8336 49.2147 23.3754 46.7566L19.8242 43.1997C18.4179 41.7935 17.2911 40.6666 16.4548 39.656C15.5923 38.6078 14.9717 37.6047 14.6304 36.416C14.2892 35.2253 14.2836 34.046 14.4617 32.7016C14.6323 31.4003 14.9923 29.8478 15.4386 27.9091L16.0011 25.466C16.3761 23.8478 16.6798 22.5278 17.0417 21.476C17.4204 20.3753 17.8948 19.451 18.6748 18.671C19.4548 17.891 20.3811 17.4147 21.4798 17.0397C22.5317 16.676 23.8517 16.3722 25.4698 15.9991L27.9129 15.4366C29.8517 14.9866 31.4042 14.6303 32.7054 14.4578L32.7036 14.4597ZM29.7936 26.9903C29.354 26.5508 28.7577 26.3038 28.1361 26.3038C27.5144 26.3038 26.9181 26.5508 26.4786 26.9903C26.039 27.4299 25.792 28.0262 25.792 28.6478C25.792 29.2695 26.039 29.8658 26.4786 30.3053C26.6962 30.523 26.9546 30.6957 27.239 30.8135C27.5234 30.9313 27.8282 30.9919 28.1361 30.9919C28.4439 30.9919 28.7487 30.9313 29.0331 30.8135C29.3175 30.6957 29.5759 30.523 29.7936 30.3053C30.0112 30.0877 30.1839 29.8293 30.3017 29.5449C30.4195 29.2605 30.4801 28.9557 30.4801 28.6478C30.4801 28.34 30.4195 28.0352 30.3017 27.7508C30.1839 27.4664 30.0112 27.208 29.7936 26.9903ZM24.4892 25.0028C25.4561 24.0356 26.7677 23.4922 28.1354 23.492C29.5031 23.4918 30.8148 24.0349 31.782 25.0019C32.7492 25.9689 33.2927 27.2805 33.2928 28.6481C33.293 30.0158 32.7499 31.3275 31.7829 32.2947C30.8157 33.2619 29.5039 33.8053 28.1361 33.8053C26.7682 33.8053 25.4564 33.2619 24.4892 32.2947C23.522 31.3275 22.9786 30.0157 22.9786 28.6478C22.9786 27.28 23.522 25.9701 24.4892 25.0028ZM36.3579 34.7003C35.9244 34.7169 35.5149 34.9035 35.2179 35.2197C34.4904 35.9472 34.6817 36.6728 34.8861 36.8772C35.0923 37.0816 35.8179 37.271 36.5436 36.5453C38.0136 35.0753 40.5523 34.5878 42.1779 36.2135C43.4398 37.4753 43.4304 39.2866 42.6748 40.721C42.8607 40.9912 42.9463 41.318 42.9167 41.6446C42.8871 41.9713 42.7443 42.2774 42.5129 42.5099C42.2815 42.7424 41.9762 42.8867 41.6496 42.9178C41.3231 42.9489 40.9959 42.8649 40.7248 42.6803C39.8833 43.1417 38.9074 43.2955 37.9648 43.1153C37.7838 43.0782 37.6119 43.0057 37.459 42.9021C37.306 42.7985 37.1749 42.6658 37.0732 42.5115C36.9716 42.3572 36.9013 42.1845 36.8664 42.003C36.8315 41.8216 36.8326 41.6351 36.8698 41.4541C36.907 41.2731 36.9794 41.1012 37.0831 40.9483C37.1867 40.7953 37.3194 40.6642 37.4736 40.5625C37.6279 40.4609 37.8007 40.3906 37.9821 40.3557C38.1635 40.3207 38.3501 40.3219 38.5311 40.3591C38.8629 40.4285 39.3992 40.3216 39.8586 39.8603C40.5842 39.1328 40.3948 38.4072 40.1904 38.2028C39.9842 37.9985 39.2586 37.8091 38.5329 38.5347C37.0629 40.0047 34.5242 40.4922 32.8986 38.8666C31.6367 37.6047 31.6461 35.7935 32.4017 34.3591C32.2158 34.0888 32.1302 33.7621 32.1598 33.4354C32.1894 33.1088 32.3322 32.8027 32.5636 32.5702C32.7949 32.3377 33.1003 32.1934 33.4269 32.1623C33.7534 32.1311 34.0805 32.2151 34.3517 32.3997C34.9892 32.0603 35.6886 31.8803 36.3861 31.8878C36.759 31.8913 37.1153 32.0428 37.3766 32.309C37.6378 32.5752 37.7827 32.9343 37.7792 33.3072C37.7757 33.6802 37.6242 34.0365 37.358 34.2977C37.0918 34.559 36.7309 34.7038 36.3579 34.7003Z" fill="white"/>
<defs>
<linearGradient id="paint0_linear_5532_13790" x1="34.5" y1="0" x2="34.5" y2="68.14" gradientUnits="userSpaceOnUse">
<stop stop-color="#BB57EA"/>
<stop offset="1" stop-color="#5E4BF5"/>
</linearGradient>
</defs>
</svg>
