<svg width="32" height="32" viewBox="0 0 32 32" fill="none" xmlns="http://www.w3.org/2000/svg">
<path d="M12.1664 28.1334L0.933073 16.9334C0.79974 16.8 0.705517 16.6556 0.650406 16.5C0.594406 16.3445 0.566406 16.1778 0.566406 16C0.566406 15.8223 0.594406 15.6556 0.650406 15.5C0.705517 15.3445 0.79974 15.2 0.933073 15.0667L12.1664 3.83337C12.4775 3.52225 12.8664 3.3667 13.3331 3.3667C13.7997 3.3667 14.1997 3.53337 14.5331 3.8667C14.8664 4.20003 15.0331 4.58892 15.0331 5.03337C15.0331 5.47781 14.8664 5.8667 14.5331 6.20003L4.73307 16L14.5331 25.8C14.8442 26.1111 14.9997 26.4943 14.9997 26.9494C14.9997 27.4054 14.8331 27.8 14.4997 28.1334C14.1664 28.4667 13.7775 28.6334 13.3331 28.6334C12.8886 28.6334 12.4997 28.4667 12.1664 28.1334Z" fill="#737373"/>
</svg>
