<svg width="177" height="26" viewBox="0 0 177 26" fill="none" xmlns="http://www.w3.org/2000/svg">
<mask id="path-1-outside-1_9142_8830" maskUnits="userSpaceOnUse" x="0.0703125" y="1.32031" width="18" height="23" fill="black">
<rect fill="white" x="0.0703125" y="1.32031" width="18" height="23"/>
<path d="M1.86083 2.87594H8.53379C9.64349 2.87594 10.6697 3.02816 11.6125 3.33259C12.5651 3.63702 13.331 4.13786 13.9104 4.83511C14.4997 5.52254 14.7943 6.45548 14.7943 7.63392C14.7943 8.40973 14.647 9.10207 14.3524 9.71093C14.0676 10.3198 13.6846 10.8206 13.2034 11.2135C12.732 11.5964 12.2164 11.8518 11.6567 11.9794C12.1477 12.0384 12.624 12.1808 13.0855 12.4066C13.5569 12.6227 13.9792 12.9271 14.3524 13.3199C14.7354 13.7029 15.0349 14.1841 15.2509 14.7635C15.4768 15.3331 15.5897 16.0107 15.5897 16.7963C15.5897 17.8864 15.3442 18.8488 14.8532 19.6835C14.372 20.5085 13.6649 21.1566 12.732 21.628C11.8089 22.0895 10.6746 22.3203 9.32924 22.3203H1.86083V2.87594ZM6.26528 18.7997H8.26863C8.89714 18.7997 9.4078 18.7064 9.80062 18.5198C10.2033 18.3234 10.4979 18.0484 10.6845 17.6949C10.871 17.3316 10.9643 16.8995 10.9643 16.3986C10.9643 15.613 10.7188 15.0385 10.2278 14.6751C9.7466 14.302 9.069 14.1154 8.19498 14.1154H6.26528V18.7997ZM6.26528 10.6684H8.04768C8.56816 10.6684 9.00025 10.5751 9.34397 10.3885C9.6975 10.202 9.96265 9.94171 10.1394 9.60782C10.326 9.26411 10.4193 8.87129 10.4193 8.42937C10.4193 7.63392 10.1934 7.09871 9.74169 6.82374C9.28996 6.53895 8.67127 6.39655 7.88564 6.39655H6.26528V10.6684Z"/>
</mask>
<path d="M1.86083 2.87594V1.36941H0.354295V2.87594H1.86083ZM11.6125 3.33259L11.1495 4.76624L11.1539 4.76763L11.6125 3.33259ZM13.9104 4.83511L12.7518 5.79797L12.7591 5.80682L12.7666 5.81555L13.9104 4.83511ZM14.3524 9.71093L12.9962 9.05475L12.9919 9.06366L12.9877 9.07264L14.3524 9.71093ZM13.2034 11.2135L14.1534 12.3827L14.1561 12.3805L13.2034 11.2135ZM11.6567 11.9794L11.3217 10.5106L11.4772 13.4752L11.6567 11.9794ZM13.0855 12.4066L12.4233 13.7598L12.4405 13.7682L12.4578 13.7762L13.0855 12.4066ZM14.3524 13.3199L13.2601 14.3576L13.2734 14.3716L13.2871 14.3852L14.3524 13.3199ZM15.2509 14.7635L13.8393 15.2899L13.8448 15.3044L13.8505 15.3189L15.2509 14.7635ZM14.8532 19.6835L13.5547 18.9197L13.5519 18.9244L14.8532 19.6835ZM12.732 21.628L13.4058 22.9755L13.4114 22.9726L12.732 21.628ZM1.86083 22.3203H0.354295V23.8268H1.86083V22.3203ZM6.26528 18.7997H4.75874V20.3062H6.26528V18.7997ZM9.80062 18.5198L10.447 19.8806L10.4541 19.8773L10.4611 19.8738L9.80062 18.5198ZM10.6845 17.6949L12.0168 18.3981L12.0208 18.3906L12.0246 18.3831L10.6845 17.6949ZM10.2278 14.6751L9.30456 15.8656L9.31799 15.876L9.33165 15.8862L10.2278 14.6751ZM6.26528 14.1154V12.6088H4.75874V14.1154H6.26528ZM6.26528 10.6684H4.75874V12.175H6.26528V10.6684ZM9.34397 10.3885L8.64078 9.05618L8.63297 9.0603L8.62521 9.06452L9.34397 10.3885ZM10.1394 9.60782L8.81539 8.88906L8.81164 8.89598L8.80796 8.90293L10.1394 9.60782ZM9.74169 6.82374L8.93825 8.09816L8.94827 8.10447L8.95837 8.11062L9.74169 6.82374ZM6.26528 6.39655V4.89002H4.75874V6.39655H6.26528ZM1.86083 4.38248H8.53379V1.36941H1.86083V4.38248ZM8.53379 4.38248C9.50497 4.38248 10.3731 4.51552 11.1495 4.76624L12.0754 1.89895C10.9663 1.5408 9.78201 1.36941 8.53379 1.36941V4.38248ZM11.1539 4.76763C11.8621 4.99396 12.3746 5.3441 12.7518 5.79797L15.0691 3.87226C14.2875 2.93163 13.268 2.28009 12.0711 1.89756L11.1539 4.76763ZM12.7666 5.81555C13.0587 6.15636 13.2877 6.70462 13.2877 7.63392H16.3008C16.3008 6.20633 15.9406 4.88872 15.0543 3.85467L12.7666 5.81555ZM13.2877 7.63392C13.2877 8.2159 13.1783 8.67858 12.9962 9.05475L15.7085 10.3671C16.1157 9.52556 16.3008 8.60357 16.3008 7.63392H13.2877ZM12.9877 9.07264C12.7908 9.49367 12.5425 9.80816 12.2507 10.0464L14.1561 12.3805C14.8266 11.8331 15.3444 11.1459 15.717 10.3492L12.9877 9.07264ZM12.2534 10.0442C11.9507 10.2902 11.6432 10.4373 11.3217 10.5106L11.9917 13.4483C12.7897 13.2663 13.5133 12.9027 14.1534 12.3827L12.2534 10.0442ZM11.4772 13.4752C11.7939 13.5133 12.1075 13.6053 12.4233 13.7598L13.7477 11.0534C13.1404 10.7562 12.5014 10.5635 11.8362 10.4836L11.4772 13.4752ZM12.4578 13.7762C12.7468 13.9086 13.0132 14.0976 13.2601 14.3576L15.4446 12.2823C14.9452 11.7566 14.367 11.3367 13.7132 11.0371L12.4578 13.7762ZM13.2871 14.3852C13.4971 14.5952 13.6881 14.8842 13.8393 15.2899L16.6625 14.2372C16.3817 13.484 15.9736 12.8106 15.4176 12.2546L13.2871 14.3852ZM13.8505 15.3189C13.9896 15.6696 14.0832 16.1496 14.0832 16.7963H17.0963C17.0963 15.8718 16.964 14.9966 16.6514 14.2082L13.8505 15.3189ZM14.0832 16.7963C14.0832 17.6523 13.893 18.3445 13.5547 18.9197L16.1517 20.4474C16.7954 19.3531 17.0963 18.1205 17.0963 16.7963H14.0832ZM13.5519 18.9244C13.2309 19.4747 12.7516 19.9302 12.0526 20.2833L13.4114 22.9726C14.5783 22.383 15.5131 21.5422 16.1545 20.4426L13.5519 18.9244ZM12.0583 20.2805C11.398 20.6106 10.5092 20.8138 9.32924 20.8138V23.8268C10.8401 23.8268 12.2198 23.5684 13.4057 22.9755L12.0583 20.2805ZM9.32924 20.8138H1.86083V23.8268H9.32924V20.8138ZM3.36737 22.3203V2.87594H0.354295V22.3203H3.36737ZM6.26528 20.3062H8.26863V17.2932H6.26528V20.3062ZM8.26863 20.3062C9.02861 20.3062 9.78287 20.1961 10.447 19.8806L9.15423 17.159C9.03273 17.2167 8.76567 17.2932 8.26863 17.2932V20.3062ZM10.4611 19.8738C11.1148 19.555 11.6632 19.0681 12.0168 18.3981L9.35209 16.9917C9.33253 17.0288 9.2917 17.0918 9.14011 17.1658L10.4611 19.8738ZM12.0246 18.3831C12.3425 17.764 12.4709 17.0855 12.4709 16.3986H9.45779C9.45779 16.7134 9.39953 16.8991 9.34429 17.0067L12.0246 18.3831ZM12.4709 16.3986C12.4709 15.2859 12.1056 14.1906 11.124 13.4641L9.33165 15.8862C9.35692 15.9049 9.37477 15.9235 9.39486 15.9706C9.41991 16.0292 9.45779 16.1587 9.45779 16.3986H12.4709ZM11.151 13.4846C10.3124 12.8342 9.26204 12.6088 8.19498 12.6088V15.6219C8.87595 15.6219 9.18084 15.7697 9.30456 15.8656L11.151 13.4846ZM8.19498 12.6088H6.26528V15.6219H8.19498V12.6088ZM4.75874 14.1154V18.7997H7.77181V14.1154H4.75874ZM6.26528 12.175H8.04768V9.16189H6.26528V12.175ZM8.04768 12.175C8.73926 12.175 9.43743 12.052 10.0627 11.7126L8.62521 9.06452C8.56308 9.09824 8.39705 9.16189 8.04768 9.16189V12.175ZM10.0472 11.7209C10.652 11.4017 11.144 10.9301 11.4709 10.3127L8.80796 8.90293C8.78127 8.95335 8.74302 9.00222 8.64078 9.05618L10.0472 11.7209ZM11.4634 10.3266C11.7847 9.73487 11.9258 9.08926 11.9258 8.42937H8.91276C8.91276 8.65332 8.86736 8.79334 8.81539 8.88906L11.4634 10.3266ZM11.9258 8.42937C11.9258 7.39319 11.6249 6.20638 10.525 5.53686L8.95837 8.11062C8.93072 8.09379 8.90371 8.07063 8.88252 8.04529C8.86223 8.02103 8.8578 8.00742 8.8619 8.01714C8.87344 8.04447 8.91276 8.16321 8.91276 8.42937H11.9258ZM10.5451 5.54932C9.76484 5.0574 8.82966 4.89002 7.88564 4.89002V7.90309C8.51288 7.90309 8.81507 8.0205 8.93825 8.09816L10.5451 5.54932ZM7.88564 4.89002H6.26528V7.90309H7.88564V4.89002ZM4.75874 6.39655V10.6684H7.77181V6.39655H4.75874Z" fill="url(#paint0_linear_9142_8830)" mask="url(#path-1-outside-1_9142_8830)"/>
<mask id="path-3-outside-2_9142_8830" maskUnits="userSpaceOnUse" x="15.0703" y="1.32031" width="15" height="23" fill="black">
<rect fill="white" x="15.0703" y="1.32031" width="15" height="23"/>
<path d="M16.6894 2.87594H21.0938V18.4609H28.1498V22.3203H16.6894V2.87594Z"/>
</mask>
<path d="M16.6894 2.87594V1.36941H15.1828V2.87594H16.6894ZM21.0938 2.87594H22.6003V1.36941H21.0938V2.87594ZM21.0938 18.4609H19.5873V19.9674H21.0938V18.4609ZM28.1498 18.4609H29.6563V16.9544H28.1498V18.4609ZM28.1498 22.3203V23.8268H29.6563V22.3203H28.1498ZM16.6894 22.3203H15.1828V23.8268H16.6894V22.3203ZM16.6894 4.38248H21.0938V1.36941H16.6894V4.38248ZM19.5873 2.87594V18.4609H22.6003V2.87594H19.5873ZM21.0938 19.9674H28.1498V16.9544H21.0938V19.9674ZM26.6432 18.4609V22.3203H29.6563V18.4609H26.6432ZM28.1498 20.8138H16.6894V23.8268H28.1498V20.8138ZM18.1959 22.3203V2.87594H15.1828V22.3203H18.1959Z" fill="url(#paint1_linear_9142_8830)" mask="url(#path-3-outside-2_9142_8830)"/>
<mask id="path-5-outside-3_9142_8830" maskUnits="userSpaceOnUse" x="27.0703" y="1.32031" width="26" height="23" fill="black">
<rect fill="white" x="27.0703" y="1.32031" width="26" height="23"/>
<path d="M37.8214 2.87594H42.1964L49.8711 22.3203H45.172L43.7579 18.4167H36.2747L34.8459 22.3203H30.1321L37.8214 2.87594ZM37.7478 14.5573H42.2995L40.0458 8.17895H40.0016L37.7478 14.5573Z"/>
</mask>
<path d="M37.8214 2.87594V1.36941H36.7971L36.4205 2.32192L37.8214 2.87594ZM42.1964 2.87594L43.5978 2.32284L43.2214 1.36941H42.1964V2.87594ZM49.8711 22.3203V23.8268H52.0853L51.2724 21.7672L49.8711 22.3203ZM45.172 22.3203L43.7555 22.8334L44.1154 23.8268H45.172V22.3203ZM43.7579 18.4167L45.1743 17.9036L44.8144 16.9102H43.7579V18.4167ZM36.2747 18.4167V16.9102H35.2219L34.86 17.8989L36.2747 18.4167ZM34.8459 22.3203V23.8268H35.8987L36.2606 22.8382L34.8459 22.3203ZM30.1321 22.3203L28.7311 21.7663L27.9162 23.8268H30.1321V22.3203ZM37.7478 14.5573L36.3273 14.0554L35.6176 16.0638H37.7478V14.5573ZM42.2995 14.5573V16.0638H44.4297L43.72 14.0554L42.2995 14.5573ZM40.0458 8.17895L41.4662 7.67703L41.1112 6.67242H40.0458V8.17895ZM40.0016 8.17895V6.67242H38.9361L38.5811 7.67703L40.0016 8.17895ZM37.8214 4.38248H42.1964V1.36941H37.8214V4.38248ZM40.7951 3.42905L48.4697 22.8734L51.2724 21.7672L43.5978 2.32284L40.7951 3.42905ZM49.8711 20.8138H45.172V23.8268H49.8711V20.8138ZM46.5885 21.8072L45.1743 17.9036L42.3414 18.9298L43.7555 22.8334L46.5885 21.8072ZM43.7579 16.9102H36.2747V19.9232H43.7579V16.9102ZM34.86 17.8989L33.4311 21.8025L36.2606 22.8382L37.6895 18.9346L34.86 17.8989ZM34.8459 20.8138H30.1321V23.8268H34.8459V20.8138ZM31.533 22.8743L39.2224 3.42996L36.4205 2.32192L28.7311 21.7663L31.533 22.8743ZM37.7478 16.0638H42.2995V13.0508H37.7478V16.0638ZM43.72 14.0554L41.4662 7.67703L38.6253 8.68087L40.8791 15.0592L43.72 14.0554ZM40.0458 6.67242H40.0016V9.68549H40.0458V6.67242ZM38.5811 7.67703L36.3273 14.0554L39.1683 15.0592L41.422 8.68087L38.5811 7.67703Z" fill="url(#paint2_linear_9142_8830)" mask="url(#path-5-outside-3_9142_8830)"/>
<mask id="path-7-outside-4_9142_8830" maskUnits="userSpaceOnUse" x="47.0703" y="0.320312" width="21" height="24" fill="black">
<rect fill="white" x="47.0703" y="0.320312" width="21" height="24"/>
<path d="M59.5953 18.3136C60.4988 18.3136 61.3188 18.181 62.0553 17.9159C62.8017 17.6507 63.3565 17.3905 63.7199 17.1351L65.6054 20.8767C65.1438 21.2695 64.3533 21.6673 63.2338 22.0699C62.1241 22.4725 60.8032 22.6738 59.2712 22.6738C57.8375 22.6738 56.4921 22.4234 55.2351 21.9226C53.978 21.4217 52.8683 20.7196 51.9059 19.8161C50.9534 18.9028 50.2021 17.8373 49.6522 16.6196C49.112 15.392 48.842 14.0614 48.842 12.6276C48.842 11.1938 49.112 9.86315 49.6522 8.6356C50.1923 7.39823 50.9386 6.3229 51.8912 5.40961C52.8536 4.49631 53.9633 3.78924 55.2203 3.2884C56.4872 2.77774 57.8375 2.52241 59.2712 2.52241C60.8032 2.52241 62.1241 2.72373 63.2338 3.12636C64.3533 3.529 65.1438 3.92673 65.6054 4.31954L63.7199 8.06111C63.3565 7.79596 62.8017 7.53572 62.0553 7.28039C61.3188 7.01524 60.4988 6.88266 59.5953 6.88266C58.5936 6.88266 57.7196 7.03979 56.9733 7.35404C56.2269 7.65847 55.6033 8.08075 55.1025 8.62087C54.6016 9.16099 54.2285 9.76986 53.983 10.4475C53.7374 11.1251 53.6147 11.837 53.6147 12.5834C53.6147 13.3396 53.7374 14.0614 53.983 14.7488C54.2285 15.4264 54.6016 16.0353 55.1025 16.5754C55.6033 17.1155 56.2269 17.5427 56.9733 17.8569C57.7196 18.1614 58.5936 18.3136 59.5953 18.3136Z"/>
</mask>
<path d="M62.0553 17.9159L61.551 16.4962L61.545 16.4984L62.0553 17.9159ZM63.7199 17.1351L65.0652 16.4572L64.2805 14.8999L62.8537 15.9025L63.7199 17.1351ZM65.6054 20.8767L66.5818 22.024L67.4837 21.2564L66.9507 20.1987L65.6054 20.8767ZM63.2338 22.0699L62.7239 20.6522L62.7199 20.6537L63.2338 22.0699ZM55.2351 21.9226L55.7927 20.523L55.7927 20.523L55.2351 21.9226ZM51.9059 19.8161L50.8633 20.9036L50.869 20.9091L50.8748 20.9145L51.9059 19.8161ZM49.6522 16.6196L48.2732 17.2263L48.2761 17.233L48.2792 17.2396L49.6522 16.6196ZM49.6522 8.6356L51.0311 9.24235L51.0329 9.2383L49.6522 8.6356ZM51.8912 5.40961L50.8542 4.3168L50.8486 4.32214L51.8912 5.40961ZM55.2203 3.2884L55.778 4.68795L55.7836 4.68569L55.2203 3.2884ZM63.2338 3.12636L62.7199 4.54257L62.7239 4.544L63.2338 3.12636ZM65.6054 4.31954L66.9507 4.99752L67.4837 3.93986L66.5818 3.17226L65.6054 4.31954ZM63.7199 8.06111L62.8318 9.27807L64.2662 10.3248L65.0652 8.73909L63.7199 8.06111ZM62.0553 7.28039L61.545 8.69787L61.5563 8.70193L61.5677 8.70582L62.0553 7.28039ZM56.9733 7.35404L57.5423 8.749L57.5501 8.7458L57.5579 8.74252L56.9733 7.35404ZM55.1025 8.62087L56.2072 9.64522L56.2072 9.64522L55.1025 8.62087ZM53.983 14.7488L52.5642 15.2555L52.5665 15.262L53.983 14.7488ZM55.1025 16.5754L56.2072 15.551L56.2072 15.551L55.1025 16.5754ZM56.9733 17.8569L56.3886 19.2454L56.3964 19.2487L56.4043 19.2519L56.9733 17.8569ZM59.5953 19.8201C60.6464 19.8201 61.6423 19.6657 62.5656 19.3333L61.545 16.4984C60.9953 16.6963 60.3512 16.8071 59.5953 16.8071V19.8201ZM62.5597 19.3355C63.3509 19.0544 64.0564 18.74 64.586 18.3678L62.8537 15.9025C62.6566 16.041 62.2524 16.2471 61.551 16.4963L62.5597 19.3355ZM62.3745 17.8131L64.26 21.5547L66.9507 20.1987L65.0652 16.4572L62.3745 17.8131ZM64.629 19.7294C64.3823 19.9394 63.8047 20.2635 62.7239 20.6523L63.7436 23.4875C64.9019 23.071 65.9054 22.5997 66.5818 22.024L64.629 19.7294ZM62.7199 20.6537C61.8158 20.9817 60.6774 21.1673 59.2712 21.1673V24.1804C60.929 24.1804 62.4323 23.9633 63.7476 23.4861L62.7199 20.6537ZM59.2712 21.1673C58.0169 21.1673 56.8619 20.9491 55.7927 20.523L54.6774 23.3221C56.1223 23.8978 57.658 24.1804 59.2712 24.1804V21.1673ZM55.7927 20.523C54.7065 20.0903 53.7584 19.4888 52.9371 18.7177L50.8748 20.9145C51.9783 21.9504 53.2496 22.7532 54.6774 23.3221L55.7927 20.523ZM52.9486 18.7286C52.1367 17.9503 51.4969 17.044 51.0252 15.9995L48.2792 17.2396C48.9073 18.6306 49.77 19.8553 50.8633 20.9036L52.9486 18.7286ZM51.0311 16.0128C50.5808 14.9895 50.3485 13.8671 50.3485 12.6276H47.3354C47.3354 14.2556 47.6432 15.7946 48.2732 17.2263L51.0311 16.0128ZM50.3485 12.6276C50.3485 11.3881 50.5808 10.2657 51.0311 9.24234L48.2732 8.02886C47.6432 9.46059 47.3354 10.9996 47.3354 12.6276H50.3485ZM51.0329 9.2383C51.4953 8.17895 52.1282 7.26947 52.9338 6.49707L50.8486 4.32214C49.7491 5.37633 48.8893 6.61751 48.2714 8.0329L51.0329 9.2383ZM52.9283 6.5024C53.749 5.72353 54.6952 5.11936 55.778 4.68794L54.6627 1.88886C53.2315 2.45912 51.9582 3.26909 50.8542 4.31681L52.9283 6.5024ZM55.7836 4.68569C56.8626 4.25074 58.0207 4.02895 59.2712 4.02895V1.01587C57.6542 1.01587 56.1117 1.30474 54.6571 1.89112L55.7836 4.68569ZM59.2712 4.02895C60.6774 4.02895 61.8158 4.21451 62.7199 4.54256L63.7476 1.71017C62.4323 1.23294 60.929 1.01587 59.2712 1.01587V4.02895ZM62.7239 4.544C63.8047 4.93271 64.3823 5.25687 64.629 5.46683L66.5818 3.17226C65.9054 2.59658 64.9019 2.12529 63.7436 1.70872L62.7239 4.544ZM64.26 3.64156L62.3745 7.38313L65.0652 8.73909L66.9507 4.99752L64.26 3.64156ZM64.6079 6.84414C64.0636 6.44695 63.3419 6.12829 62.543 5.85496L61.5677 8.70582C62.2614 8.94314 62.6494 9.14497 62.8318 9.27807L64.6079 6.84414ZM62.5656 5.86291C61.6423 5.53051 60.6464 5.37613 59.5953 5.37613V8.3892C60.3512 8.3892 60.9953 8.49996 61.545 8.69787L62.5656 5.86291ZM59.5953 5.37613C58.439 5.37613 57.3583 5.55729 56.3886 5.96556L57.5579 8.74252C58.0809 8.52229 58.7483 8.3892 59.5953 8.3892V5.37613ZM56.4043 5.95909C55.4739 6.33859 54.6617 6.88057 53.9978 7.59652L56.2072 9.64522C56.545 9.28093 56.9799 8.97836 57.5423 8.749L56.4043 5.95909ZM53.9978 7.59652C53.363 8.28111 52.8822 9.0629 52.5665 9.93426L55.3994 10.9607C55.5747 10.4768 55.8403 10.0409 56.2072 9.64522L53.9978 7.59652ZM52.5665 9.93426C52.2593 10.7822 52.1082 11.6684 52.1082 12.5834H55.1212C55.1212 12.0057 55.2156 11.4679 55.3994 10.9607L52.5665 9.93426ZM52.1082 12.5834C52.1082 13.506 52.2585 14.3996 52.5642 15.2555L55.4017 14.2421C55.2164 13.7231 55.1212 13.1732 55.1212 12.5834H52.1082ZM52.5665 15.262C52.8822 16.1334 53.363 16.9151 53.9978 17.5997L56.2072 15.551C55.8403 15.1554 55.5747 14.7194 55.3994 14.2356L52.5665 15.262ZM53.9978 17.5997C54.6581 18.3118 55.4648 18.8564 56.3886 19.2454L57.5579 16.4685C56.989 16.2289 56.5486 15.9192 56.2072 15.551L53.9978 17.5997ZM56.4043 19.2519C57.3693 19.6455 58.4443 19.8201 59.5953 19.8201V16.8071C58.7429 16.8071 58.0699 16.6772 57.5423 16.462L56.4043 19.2519Z" fill="url(#paint3_linear_9142_8830)" mask="url(#path-7-outside-4_9142_8830)"/>
<mask id="path-9-outside-5_9142_8830" maskUnits="userSpaceOnUse" x="66.0703" y="1.32031" width="22" height="23" fill="black">
<rect fill="white" x="66.0703" y="1.32031" width="22" height="23"/>
<path d="M76.7022 12.2741L84.097 22.3203H78.8382L72.8576 13.8208V22.3203H68.4531V2.87594H72.8576V10.8305L78.3668 2.87594H83.331L76.7022 12.2741Z"/>
</mask>
<path d="M76.7022 12.2741L75.4711 11.4057L74.8454 12.2928L75.4889 13.1671L76.7022 12.2741ZM84.097 22.3203V23.8268H87.0766L85.3103 21.4272L84.097 22.3203ZM78.8382 22.3203L77.6061 23.1873L78.0561 23.8268H78.8382V22.3203ZM72.8576 13.8208L74.0896 12.9538L71.351 9.06173V13.8208H72.8576ZM72.8576 22.3203V23.8268H74.3641V22.3203H72.8576ZM68.4531 22.3203H66.9466V23.8268H68.4531V22.3203ZM68.4531 2.87594V1.36941H66.9466V2.87594H68.4531ZM72.8576 2.87594H74.3641V1.36941H72.8576V2.87594ZM72.8576 10.8305H71.351V15.6517L74.096 11.6882L72.8576 10.8305ZM78.3668 2.87594V1.36941H77.5776L77.1283 2.01817L78.3668 2.87594ZM83.331 2.87594L84.5621 3.74428L86.2372 1.36941H83.331V2.87594ZM75.4889 13.1671L82.8837 23.2134L85.3103 21.4272L77.9155 11.381L75.4889 13.1671ZM84.097 20.8138H78.8382V23.8268H84.097V20.8138ZM80.0703 21.4534L74.0896 12.9538L71.6255 14.6877L77.6061 23.1873L80.0703 21.4534ZM71.351 13.8208V22.3203H74.3641V13.8208H71.351ZM72.8576 20.8138H68.4531V23.8268H72.8576V20.8138ZM69.9596 22.3203V2.87594H66.9466V22.3203H69.9596ZM68.4531 4.38248H72.8576V1.36941H68.4531V4.38248ZM71.351 2.87594V10.8305H74.3641V2.87594H71.351ZM74.096 11.6882L79.6053 3.73372L77.1283 2.01817L71.6191 9.97268L74.096 11.6882ZM78.3668 4.38248H83.331V1.36941H78.3668V4.38248ZM82.0999 2.0076L75.4711 11.4057L77.9333 13.1424L84.5621 3.74428L82.0999 2.0076Z" fill="url(#paint4_linear_9142_8830)" mask="url(#path-9-outside-5_9142_8830)"/>
<path d="M91.8176 2.87594H103.057V6.73536H96.2221V10.6537H102.542V14.4984H96.2221V22.3203H91.8176V2.87594ZM104.588 2.87594H112.513C113.643 2.87594 114.649 3.11163 115.533 3.58301C116.417 4.05439 117.114 4.73691 117.625 5.63056C118.145 6.5144 118.405 7.57009 118.405 8.79764C118.405 10.0252 118.184 11.0318 117.743 11.8174C117.31 12.5932 116.79 13.1775 116.181 13.5703C115.572 13.9533 115.008 14.1841 114.487 14.2627L119.216 22.3203H114.266L110.053 14.6015H108.993V22.3203H104.588V2.87594ZM108.993 11.5523H110.937C111.723 11.5523 112.41 11.3608 112.999 10.9778C113.589 10.5948 113.883 9.91716 113.883 8.94494C113.883 7.97273 113.593 7.30003 113.014 6.92685C112.435 6.54386 111.752 6.35236 110.966 6.35236H108.993V11.5523ZM121.095 2.87594H125.5V22.3203H121.095V2.87594ZM127.768 2.87594H133.616C135.688 2.87594 137.402 3.29331 138.757 4.12804C140.122 4.95296 141.144 6.09703 141.821 7.56027C142.499 9.02351 142.838 10.6979 142.838 12.5834C142.838 14.4787 142.499 16.158 141.821 17.6213C141.144 19.0845 140.122 20.2335 138.757 21.0682C137.402 21.9029 135.688 22.3203 133.616 22.3203H127.768V2.87594ZM132.158 6.77955V18.4167H133.219C134.328 18.4167 135.247 18.1663 135.973 17.6654C136.7 17.1548 137.245 16.4625 137.608 15.5884C137.982 14.7046 138.168 13.7127 138.168 12.6129C138.168 11.5032 137.986 10.5113 137.623 9.63728C137.27 8.75345 136.725 8.0562 135.988 7.54554C135.251 7.03488 134.328 6.77955 133.219 6.77955H132.158ZM149.739 2.87594H154.114L161.788 22.3203H157.089L155.675 18.4167H148.192L146.763 22.3203H142.049L149.739 2.87594ZM149.665 14.5573H154.217L151.963 8.17895H151.919L149.665 14.5573ZM165 15.3233L158.298 2.87594H163.645L167.195 10.2854L170.76 2.87594H176.077L169.405 15.3233V22.3203H165V15.3233Z" fill="white"/>
<defs>
<linearGradient id="paint0_linear_9142_8830" x1="0.158548" y1="11.5888" x2="22.1889" y2="12.6496" gradientUnits="userSpaceOnUse">
<stop stop-color="white"/>
<stop offset="1" stop-color="white" stop-opacity="0"/>
</linearGradient>
<linearGradient id="paint1_linear_9142_8830" x1="15.1585" y1="11.5888" x2="37.1889" y2="12.6496" gradientUnits="userSpaceOnUse">
<stop stop-color="white"/>
<stop offset="1" stop-color="white" stop-opacity="0"/>
</linearGradient>
<linearGradient id="paint2_linear_9142_8830" x1="30.1762" y1="11.5888" x2="56.5857" y2="13.1147" gradientUnits="userSpaceOnUse">
<stop stop-color="white"/>
<stop offset="1" stop-color="white" stop-opacity="0"/>
</linearGradient>
<linearGradient id="paint3_linear_9142_8830" x1="48.1821" y1="11.5888" x2="76.0482" y2="13.2883" gradientUnits="userSpaceOnUse">
<stop stop-color="white"/>
<stop offset="1" stop-color="white" stop-opacity="0"/>
</linearGradient>
<linearGradient id="paint4_linear_9142_8830" x1="67.1762" y1="11.5888" x2="93.5857" y2="13.1147" gradientUnits="userSpaceOnUse">
<stop stop-color="white"/>
<stop offset="1" stop-color="white" stop-opacity="0"/>
</linearGradient>
</defs>
</svg>
