<svg width="292" height="43" viewBox="0 0 292 43" fill="none" xmlns="http://www.w3.org/2000/svg">
<mask id="path-1-outside-1_9088_8805" maskUnits="userSpaceOnUse" x="0" y="2.5" width="28" height="38" fill="black">
<rect fill="white" y="2.5" width="28" height="38"/>
<path d="M2.55735 5.34183H13.5934C15.4287 5.34183 17.126 5.59358 18.6852 6.09706C20.2606 6.60055 21.5274 7.42887 22.4857 8.58201C23.4602 9.71892 23.9474 11.2619 23.9474 13.2108C23.9474 14.4939 23.7038 15.6389 23.2165 16.6459C22.7455 17.6529 22.1121 18.4812 21.3163 19.1309C20.5367 19.7643 19.684 20.1866 18.7582 20.3977C19.5703 20.4952 20.358 20.7307 21.1214 21.1042C21.901 21.4615 22.5994 21.965 23.2165 22.6147C23.8499 23.2481 24.3453 24.0439 24.7026 25.0022C25.0762 25.9442 25.263 27.0648 25.263 28.3642C25.263 30.167 24.8569 31.7586 24.0448 33.1392C23.249 34.5034 22.0796 35.5754 20.5367 36.355C19.01 37.1183 17.1341 37.5 14.909 37.5H2.55735V5.34183ZM9.84166 31.6774H13.1549C14.1944 31.6774 15.0389 31.5231 15.6886 31.2145C16.3545 30.8897 16.8417 30.4349 17.1503 29.8503C17.4589 29.2493 17.6132 28.5347 17.6132 27.7064C17.6132 26.4071 17.2072 25.4569 16.3951 24.856C15.5993 24.2388 14.4786 23.9302 13.0331 23.9302H9.84166V31.6774ZM9.84166 18.2295H12.7895C13.6503 18.2295 14.3649 18.0752 14.9334 17.7666C15.5181 17.458 15.9566 17.0276 16.2489 16.4754C16.5575 15.9069 16.7118 15.2573 16.7118 14.5264C16.7118 13.2108 16.3383 12.3257 15.5911 11.8709C14.844 11.3999 13.8208 11.1644 12.5215 11.1644H9.84166V18.2295Z"/>
</mask>
<path d="M2.55735 5.34183V2.85024H0.065753V5.34183H2.55735ZM18.6852 6.09706L17.9195 8.46811L17.9267 8.4704L18.6852 6.09706ZM22.4857 8.58201L20.5694 10.1744L20.5815 10.1891L20.5939 10.2035L22.4857 8.58201ZM23.2165 16.6459L20.9737 15.5607L20.9666 15.5754L20.9596 15.5903L23.2165 16.6459ZM21.3163 19.1309L22.8875 21.0646L22.8919 21.061L21.3163 19.1309ZM18.7582 20.3977L18.2042 17.9685L18.4614 22.8715L18.7582 20.3977ZM21.1214 21.1042L20.0262 23.3422L20.0545 23.3561L20.0832 23.3692L21.1214 21.1042ZM23.2165 22.6147L21.4101 24.3308L21.4321 24.3539L21.4547 24.3765L23.2165 22.6147ZM24.7026 25.0022L22.3681 25.8727L22.377 25.8968L22.3865 25.9206L24.7026 25.0022ZM24.0448 33.1392L21.8972 31.8759L21.8927 31.8837L24.0448 33.1392ZM20.5367 36.355L21.651 38.5835L21.6603 38.5788L20.5367 36.355ZM2.55735 37.5H0.065753V39.9916H2.55735V37.5ZM9.84166 31.6774H7.35006V34.169H9.84166V31.6774ZM15.6886 31.2145L16.7576 33.4651L16.7693 33.4596L16.781 33.4539L15.6886 31.2145ZM17.1503 29.8503L19.3539 31.0132L19.3604 31.0009L19.3668 30.9884L17.1503 29.8503ZM16.3951 24.856L14.8682 26.8249L14.8904 26.8421L14.913 26.8588L16.3951 24.856ZM9.84166 23.9302V21.4386H7.35006V23.9302H9.84166ZM9.84166 18.2295H7.35006V20.7211H9.84166V18.2295ZM14.9334 17.7666L13.7704 15.5631L13.7575 15.5699L13.7446 15.5768L14.9334 17.7666ZM16.2489 16.4754L14.0592 15.2867L14.053 15.2981L14.0469 15.3096L16.2489 16.4754ZM15.5911 11.8709L14.2624 13.9786L14.2789 13.9891L14.2957 13.9992L15.5911 11.8709ZM9.84166 11.1644V8.67282H7.35006V11.1644H9.84166ZM2.55735 7.83343H13.5934V2.85024H2.55735V7.83343ZM13.5934 7.83343C15.1996 7.83343 16.6354 8.05345 17.9195 8.4681L19.4508 3.72603C17.6165 3.1337 15.6578 2.85024 13.5934 2.85024V7.83343ZM17.9267 8.4704C19.0979 8.84473 19.9456 9.42381 20.5694 10.1744L24.402 6.98959C23.1092 5.43393 21.4232 4.35638 19.4436 3.72373L17.9267 8.4704ZM20.5939 10.2035C21.077 10.7672 21.4558 11.6739 21.4558 13.2108H26.439C26.439 10.8498 25.8433 8.67068 24.3774 6.96051L20.5939 10.2035ZM21.4558 13.2108C21.4558 14.1733 21.2747 14.9385 20.9737 15.5607L25.4594 17.7312C26.1328 16.3393 26.439 14.8145 26.439 13.2108H21.4558ZM20.9596 15.5903C20.6339 16.2866 20.2233 16.8067 19.7407 17.2007L22.8919 21.061C24.0009 20.1557 24.8571 19.0192 25.4734 17.7016L20.9596 15.5903ZM19.7451 17.1971C19.2445 17.6039 18.7359 17.8472 18.2042 17.9685L19.3123 22.8269C20.6321 22.5259 21.8289 21.9247 22.8875 21.0646L19.7451 17.1971ZM18.4614 22.8715C18.9852 22.9344 19.5039 23.0866 20.0262 23.3422L22.2166 18.8662C21.2121 18.3747 20.1554 18.0559 19.0551 17.9239L18.4614 22.8715ZM20.0832 23.3692C20.5612 23.5883 21.0017 23.9009 21.4101 24.3308L25.0229 20.8986C24.197 20.0292 23.2407 19.3347 22.1595 18.8392L20.0832 23.3692ZM21.4547 24.3765C21.8021 24.7238 22.1179 25.2018 22.3681 25.8727L27.0372 24.1317C26.5727 22.886 25.8978 21.7723 24.9784 20.8528L21.4547 24.3765ZM22.3865 25.9206C22.6165 26.5006 22.7714 27.2945 22.7714 28.3642H27.7546C27.7546 26.8352 27.5359 25.3877 27.0188 24.0837L22.3865 25.9206ZM22.7714 28.3642C22.7714 29.7798 22.4568 30.9246 21.8973 31.8759L26.1924 34.4024C27.257 32.5927 27.7546 30.5542 27.7546 28.3642H22.7714ZM21.8927 31.8837C21.3618 32.7937 20.5691 33.547 19.4131 34.1311L21.6603 38.5788C23.5902 37.6037 25.1362 36.2132 26.197 34.3946L21.8927 31.8837ZM19.4224 34.1264C18.3304 34.6724 16.8604 35.0084 14.909 35.0084V39.9916C17.4078 39.9916 19.6896 39.5642 21.651 38.5835L19.4224 34.1264ZM14.909 35.0084H2.55735V39.9916H14.909V35.0084ZM5.04894 37.5V5.34183H0.065753V37.5H5.04894ZM9.84166 34.169H13.1549V29.1858H9.84166V34.169ZM13.1549 34.169C14.4118 34.169 15.6592 33.9869 16.7576 33.4651L14.6196 28.9639C14.4186 29.0594 13.9769 29.1858 13.1549 29.1858V34.169ZM16.781 33.4539C17.8621 32.9265 18.769 32.1213 19.3539 31.0132L14.9468 28.6873C14.9145 28.7486 14.8469 28.8529 14.5962 28.9752L16.781 33.4539ZM19.3668 30.9884C19.8926 29.9645 20.1048 28.8424 20.1048 27.7064H15.1216C15.1216 28.227 15.0253 28.5342 14.9339 28.7121L19.3668 30.9884ZM20.1048 27.7064C20.1048 25.866 19.5007 24.0546 17.8772 22.8531L14.913 26.8588C14.9548 26.8898 14.9843 26.9207 15.0175 26.9984C15.059 27.0953 15.1216 27.3096 15.1216 27.7064H20.1048ZM17.922 22.8871C16.535 21.8114 14.7979 21.4386 13.0331 21.4386V26.4218C14.1593 26.4218 14.6636 26.6662 14.8682 26.8249L17.922 22.8871ZM13.0331 21.4386H9.84166V26.4218H13.0331V21.4386ZM7.35006 23.9302V31.6774H12.3333V23.9302H7.35006ZM9.84166 20.7211H12.7895V15.7379H9.84166V20.7211ZM12.7895 20.7211C13.9333 20.7211 15.0879 20.5177 16.1221 19.9563L13.7446 15.5768C13.6419 15.6326 13.3673 15.7379 12.7895 15.7379V20.7211ZM16.0963 19.9701C17.0966 19.4422 17.9104 18.6622 18.451 17.6412L14.0469 15.3096C14.0027 15.393 13.9395 15.4738 13.7704 15.5631L16.0963 19.9701ZM18.4387 17.6641C18.9699 16.6855 19.2034 15.6178 19.2034 14.5264H14.2202C14.2202 14.8968 14.1451 15.1284 14.0592 15.2867L18.4387 17.6641ZM19.2034 14.5264C19.2034 12.8127 18.7058 10.8499 16.8866 9.7426L14.2957 13.9992C14.2499 13.9714 14.2052 13.9331 14.1702 13.8912C14.1366 13.8511 14.1293 13.8286 14.1361 13.8446C14.1552 13.8898 14.2202 14.0862 14.2202 14.5264H19.2034ZM16.9199 9.76321C15.6294 8.94964 14.0828 8.67282 12.5215 8.67282V13.656C13.5589 13.656 14.0587 13.8502 14.2624 13.9786L16.9199 9.76321ZM12.5215 8.67282H9.84166V13.656H12.5215V8.67282ZM7.35006 11.1644V18.2295H12.3333V11.1644H7.35006Z" fill="url(#paint0_linear_9088_8805)" mask="url(#path-1-outside-1_9088_8805)"/>
<mask id="path-3-outside-2_9088_8805" maskUnits="userSpaceOnUse" x="23" y="2.5" width="25" height="38" fill="black">
<rect fill="white" x="23" y="2.5" width="25" height="38"/>
<path d="M26.2738 5.34183H33.5581V31.1171H45.2276V37.5H26.2738V5.34183Z"/>
</mask>
<path d="M26.2738 5.34183V2.85024H23.7822V5.34183H26.2738ZM33.5581 5.34183H36.0497V2.85024H33.5581V5.34183ZM33.5581 31.1171H31.0665V33.6087H33.5581V31.1171ZM45.2276 31.1171H47.7192V28.6255H45.2276V31.1171ZM45.2276 37.5V39.9916H47.7192V37.5H45.2276ZM26.2738 37.5H23.7822V39.9916H26.2738V37.5ZM26.2738 7.83343H33.5581V2.85024H26.2738V7.83343ZM31.0665 5.34183V31.1171H36.0497V5.34183H31.0665ZM33.5581 33.6087H45.2276V28.6255H33.5581V33.6087ZM42.736 31.1171V37.5H47.7192V31.1171H42.736ZM45.2276 35.0084H26.2738V39.9916H45.2276V35.0084ZM28.7653 37.5V5.34183H23.7822V37.5H28.7653Z" fill="url(#paint1_linear_9088_8805)" mask="url(#path-3-outside-2_9088_8805)"/>
<mask id="path-5-outside-3_9088_8805" maskUnits="userSpaceOnUse" x="44" y="2.5" width="41" height="38" fill="black">
<rect fill="white" x="44" y="2.5" width="41" height="38"/>
<path d="M60.9345 5.34183H68.1701L80.8629 37.5H73.0913L70.7525 31.044H58.3765L56.0134 37.5H48.2174L60.9345 5.34183ZM60.8127 24.6611H68.3407L64.6132 14.1122H64.5402L60.8127 24.6611Z"/>
</mask>
<path d="M60.9345 5.34183V2.85024H59.2405L58.6175 4.42557L60.9345 5.34183ZM68.1701 5.34183L70.4877 4.42708L69.8654 2.85024H68.1701V5.34183ZM80.8629 37.5V39.9916H84.5249L83.1805 36.5853L80.8629 37.5ZM73.0913 37.5L70.7487 38.3486L71.3439 39.9916H73.0913V37.5ZM70.7525 31.044L73.0951 30.1954L72.5 28.5524H70.7525V31.044ZM58.3765 31.044V28.5524H56.6353L56.0367 30.1876L58.3765 31.044ZM56.0134 37.5V39.9916H57.7546L58.3531 38.3564L56.0134 37.5ZM48.2174 37.5L45.9004 36.5837L44.5528 39.9916H48.2174V37.5ZM60.8127 24.6611L58.4635 23.831L57.2898 27.1527H60.8127V24.6611ZM68.3407 24.6611V27.1527H71.8636L70.6899 23.831L68.3407 24.6611ZM64.6132 14.1122L66.9625 13.2821L66.3754 11.6207H64.6132V14.1122ZM64.5402 14.1122V11.6207H62.778L62.1909 13.2821L64.5402 14.1122ZM60.9345 7.83343H68.1701V2.85024H60.9345V7.83343ZM65.8525 6.25658L78.5453 38.4147L83.1805 36.5853L70.4877 4.42708L65.8525 6.25658ZM80.8629 35.0084H73.0913V39.9916H80.8629V35.0084ZM75.4339 36.6514L73.0951 30.1954L68.4099 31.8926L70.7487 38.3486L75.4339 36.6514ZM70.7525 28.5524H58.3765V33.5356H70.7525V28.5524ZM56.0367 30.1876L53.6736 36.6436L58.3531 38.3564L60.7163 31.9004L56.0367 30.1876ZM56.0134 35.0084H48.2174V39.9916H56.0134V35.0084ZM50.5344 38.4163L63.2515 6.2581L58.6175 4.42557L45.9004 36.5837L50.5344 38.4163ZM60.8127 27.1527H68.3407V22.1695H60.8127V27.1527ZM70.6899 23.831L66.9625 13.2821L62.264 14.9423L65.9914 25.4912L70.6899 23.831ZM64.6132 11.6207H64.5402V16.6038H64.6132V11.6207ZM62.1909 13.2821L58.4635 23.831L63.162 25.4912L66.8894 14.9423L62.1909 13.2821Z" fill="url(#paint2_linear_9088_8805)" mask="url(#path-5-outside-3_9088_8805)"/>
<mask id="path-7-outside-4_9088_8805" maskUnits="userSpaceOnUse" x="77" y="1.5" width="34" height="40" fill="black">
<rect fill="white" x="77" y="1.5" width="34" height="40"/>
<path d="M97.349 30.8735C98.8433 30.8735 100.199 30.6542 101.418 30.2157C102.652 29.7772 103.57 29.3468 104.17 28.9245L107.289 35.1125C106.525 35.7622 105.218 36.4199 103.367 37.0858C101.531 37.7517 99.3468 38.0847 96.8131 38.0847C94.4418 38.0847 92.2167 37.6705 90.1378 36.8422C88.0589 36.0139 86.2236 34.8526 84.632 33.3584C83.0565 31.848 81.8141 30.0858 80.9045 28.0718C80.0112 26.0416 79.5646 23.8409 79.5646 21.4696C79.5646 19.0984 80.0112 16.8977 80.9045 14.8675C81.7978 12.821 83.0322 11.0426 84.6076 9.53214C86.1993 8.02168 88.0345 6.85229 90.1135 6.02398C92.2086 5.17942 94.4418 4.75714 96.8131 4.75714C99.3468 4.75714 101.531 5.09009 103.367 5.75599C105.218 6.42189 106.525 7.07967 107.289 7.72934L104.17 13.9173C103.57 13.4788 102.652 13.0484 101.418 12.6261C100.199 12.1876 98.8433 11.9684 97.349 11.9684C95.6924 11.9684 94.2469 12.2282 93.0126 12.748C91.7782 13.2514 90.7469 13.9498 89.9186 14.8431C89.0902 15.7364 88.4731 16.7434 88.067 17.864C87.661 18.9847 87.458 20.1622 87.458 21.3966C87.458 22.6472 87.661 23.8409 88.067 24.9778C88.4731 26.0985 89.0902 27.1054 89.9186 27.9987C90.7469 28.892 91.7782 29.5985 93.0126 30.1182C94.2469 30.6217 95.6924 30.8735 97.349 30.8735Z"/>
</mask>
<path d="M101.418 30.2157L100.583 27.8678L100.574 27.8714L101.418 30.2157ZM104.17 28.9245L106.396 27.8032L105.098 25.2277L102.738 26.8859L104.17 28.9245ZM107.289 35.1125L108.904 37.0099L110.395 35.7404L109.514 33.9912L107.289 35.1125ZM103.367 37.0858L102.523 34.7413L102.517 34.7437L103.367 37.0858ZM90.1378 36.8422L91.0601 34.5276L91.0601 34.5276L90.1378 36.8422ZM84.632 33.3584L82.9076 35.1569L82.9171 35.166L82.9266 35.175L84.632 33.3584ZM80.9045 28.0718L78.6239 29.0753L78.6288 29.0863L78.6338 29.0973L80.9045 28.0718ZM80.9045 14.8675L83.1851 15.8709L83.1881 15.8642L80.9045 14.8675ZM84.6076 9.53214L82.8925 7.72479L82.8832 7.73363L84.6076 9.53214ZM90.1135 6.02398L91.0357 8.33863L91.045 8.33488L90.1135 6.02398ZM103.367 5.75599L102.517 8.09819L102.523 8.10056L103.367 5.75599ZM107.289 7.72934L109.514 8.85061L110.395 7.1014L108.904 5.83189L107.289 7.72934ZM104.17 13.9173L102.702 15.93L105.074 17.6611L106.396 15.0386L104.17 13.9173ZM101.418 12.6261L100.574 14.9705L100.592 14.9772L100.611 14.9836L101.418 12.6261ZM93.0126 12.748L93.9536 15.055L93.9666 15.0497L93.9795 15.0443L93.0126 12.748ZM89.9186 14.8431L91.7456 16.5372L91.7456 16.5372L89.9186 14.8431ZM88.067 24.9778L85.7206 25.8158L85.7245 25.8266L88.067 24.9778ZM89.9186 27.9987L91.7456 26.3046L91.7456 26.3046L89.9186 27.9987ZM93.0126 30.1182L92.0457 32.4146L92.0586 32.42L92.0715 32.4253L93.0126 30.1182ZM97.349 33.3651C99.0874 33.3651 100.734 33.1097 102.261 32.56L100.574 27.8714C99.6644 28.1987 98.5992 28.3819 97.349 28.3819V33.3651ZM102.252 32.5635C103.56 32.0986 104.727 31.5786 105.603 30.9631L102.738 26.8859C102.412 27.1149 101.744 27.4557 100.583 27.8679L102.252 32.5635ZM101.945 30.0458L105.064 36.2338L109.514 33.9912L106.396 27.8032L101.945 30.0458ZM105.674 33.2151C105.266 33.5623 104.311 34.0984 102.523 34.7413L104.21 39.4304C106.125 38.7415 107.785 37.962 108.904 37.0099L105.674 33.2151ZM102.517 34.7437C101.021 35.2862 99.1387 35.5931 96.8131 35.5931V40.5763C99.5548 40.5763 102.041 40.2173 104.216 39.428L102.517 34.7437ZM96.8131 35.5931C94.7386 35.5931 92.8284 35.2321 91.0601 34.5276L89.2156 39.1569C91.6051 40.1089 94.145 40.5763 96.8131 40.5763V35.5931ZM91.0601 34.5276C89.2637 33.8118 87.6957 32.8171 86.3373 31.5419L82.9266 35.175C84.7516 36.8882 86.8542 38.216 89.2156 39.1569L91.0601 34.5276ZM86.3563 31.5599C85.0137 30.2726 83.9554 28.7737 83.1753 27.0463L78.6338 29.0973C79.6727 31.3978 81.0994 33.4233 82.9076 35.1569L86.3563 31.5599ZM83.1851 27.0683C82.4404 25.3759 82.0562 23.5196 82.0562 21.4696H77.073C77.073 24.1622 77.5821 26.7074 78.6239 29.0753L83.1851 27.0683ZM82.0562 21.4696C82.0562 19.4196 82.4404 17.5634 83.1851 15.8709L78.6239 13.864C77.5821 16.2319 77.073 18.7771 77.073 21.4696H82.0562ZM83.1881 15.8642C83.9528 14.1122 84.9996 12.6081 86.3319 11.3307L82.8832 7.73363C81.0648 9.47711 79.6428 11.5298 78.621 13.8707L83.1881 15.8642ZM86.3227 11.3395C87.6801 10.0513 89.2449 9.05211 91.0357 8.33861L89.1912 3.70935C86.8242 4.65247 84.7184 5.99203 82.8925 7.72482L86.3227 11.3395ZM91.045 8.33488C92.8295 7.61555 94.7449 7.24873 96.8131 7.24873V2.26555C94.1387 2.26555 91.5877 2.74329 89.1819 3.71307L91.045 8.33488ZM96.8131 7.24873C99.1387 7.24873 101.021 7.55563 102.517 8.09818L104.216 3.4138C102.041 2.62455 99.5548 2.26555 96.8131 2.26555V7.24873ZM102.523 8.10056C104.311 8.74343 105.266 9.27954 105.674 9.62678L108.904 5.83189C107.785 4.87981 106.125 4.10036 104.21 3.41142L102.523 8.10056ZM105.064 6.60806L101.945 12.7961L106.396 15.0386L109.514 8.85061L105.064 6.60806ZM105.639 11.9047C104.739 11.2478 103.545 10.7207 102.224 10.2687L100.611 14.9836C101.758 15.3761 102.4 15.7099 102.702 15.93L105.639 11.9047ZM102.261 10.2818C100.734 9.73211 99.0874 9.47677 97.349 9.47677V14.46C98.5992 14.46 99.6644 14.6431 100.574 14.9705L102.261 10.2818ZM97.349 9.47677C95.4366 9.47677 93.6494 9.77639 92.0457 10.4516L93.9795 15.0443C94.8445 14.6801 95.9482 14.46 97.349 14.46V9.47677ZM92.0715 10.4409C90.5328 11.0685 89.1895 11.9649 88.0916 13.149L91.7456 16.5372C92.3042 15.9347 93.0236 15.4343 93.9536 15.055L92.0715 10.4409ZM88.0916 13.149C87.0417 14.2812 86.2466 15.5742 85.7245 17.0153L90.4096 18.7128C90.6995 17.9126 91.1388 17.1916 91.7456 16.5372L88.0916 13.149ZM85.7245 17.0153C85.2163 18.4177 84.9664 19.8832 84.9664 21.3966H89.9496C89.9496 20.4412 90.1057 19.5517 90.4096 18.7128L85.7245 17.0153ZM84.9664 21.3966C84.9664 22.9223 85.2151 24.4003 85.7206 25.8158L90.4135 24.1398C90.1069 23.2815 89.9496 22.372 89.9496 21.3966H84.9664ZM85.7245 25.8266C86.2466 27.2677 87.0417 28.5606 88.0916 29.6929L91.7456 26.3046C91.1388 25.6502 90.6995 24.9293 90.4096 24.129L85.7245 25.8266ZM88.0916 29.6929C89.1836 30.8705 90.5178 31.7713 92.0457 32.4146L93.9794 27.8219C93.0386 27.4258 92.3102 26.9135 91.7456 26.3046L88.0916 29.6929ZM92.0715 32.4253C93.6676 33.0763 95.4455 33.3651 97.349 33.3651V28.3819C95.9394 28.3819 94.8263 28.1671 93.9536 27.8112L92.0715 32.4253Z" fill="url(#paint3_linear_9088_8805)" mask="url(#path-7-outside-4_9088_8805)"/>
<mask id="path-9-outside-5_9088_8805" maskUnits="userSpaceOnUse" x="109" y="2.5" width="34" height="38" fill="black">
<rect fill="white" x="109" y="2.5" width="34" height="38"/>
<path d="M125.545 20.8849L137.775 37.5H129.078L119.187 23.443V37.5H111.902V5.34183H119.187V18.4974L128.298 5.34183H136.508L125.545 20.8849Z"/>
</mask>
<path d="M125.545 20.8849L123.509 19.4488L122.474 20.916L123.538 22.362L125.545 20.8849ZM137.775 37.5V39.9916H142.703L139.782 36.023L137.775 37.5ZM129.078 37.5L127.04 38.9338L127.784 39.9916H129.078V37.5ZM119.187 23.443L121.224 22.0092L116.695 15.5722V23.443H119.187ZM119.187 37.5V39.9916H121.678V37.5H119.187ZM111.902 37.5H109.411V39.9916H111.902V37.5ZM111.902 5.34183V2.85024H109.411V5.34183H111.902ZM119.187 5.34183H121.678V2.85024H119.187V5.34183ZM119.187 18.4974H116.695V26.471L121.235 19.9161L119.187 18.4974ZM128.298 5.34183V2.85024H126.993L126.25 3.9232L128.298 5.34183ZM136.508 5.34183L138.544 6.77794L141.315 2.85024H136.508V5.34183ZM123.538 22.362L135.768 38.977L139.782 36.023L127.552 19.4079L123.538 22.362ZM137.775 35.0084H129.078V39.9916H137.775V35.0084ZM131.115 36.0662L121.224 22.0092L117.149 24.8768L127.04 38.9338L131.115 36.0662ZM116.695 23.443V37.5H121.678V23.443H116.695ZM119.187 35.0084H111.902V39.9916H119.187V35.0084ZM114.394 37.5V5.34183H109.411V37.5H114.394ZM111.902 7.83343H119.187V2.85024H111.902V7.83343ZM116.695 5.34183V18.4974H121.678V5.34183H116.695ZM121.235 19.9161L130.346 6.76047L126.25 3.9232L117.138 17.0788L121.235 19.9161ZM128.298 7.83343H136.508V2.85024H128.298V7.83343ZM134.472 3.90573L123.509 19.4488L127.581 22.3211L138.544 6.77794L134.472 3.90573Z" fill="url(#paint4_linear_9088_8805)" mask="url(#path-9-outside-5_9088_8805)"/>
<path d="M151.303 5.34183H169.891V11.7247H158.587V18.2051H169.039V24.5636H158.587V37.5H151.303V5.34183ZM172.423 5.34183H185.53C187.398 5.34183 189.063 5.73163 190.525 6.51122C191.986 7.29081 193.139 8.4196 193.984 9.89758C194.845 11.3593 195.275 13.1053 195.275 15.1355C195.275 17.1656 194.91 18.8304 194.179 20.1297C193.464 21.4128 192.604 22.3792 191.597 23.0288C190.59 23.6622 189.656 24.0439 188.795 24.1739L196.615 37.5H188.429L181.462 24.7342H179.708V37.5H172.423V5.34183ZM179.708 19.6912H182.924C184.223 19.6912 185.36 19.3745 186.334 18.7411C187.309 18.1077 187.796 16.987 187.796 15.3791C187.796 13.7712 187.317 12.6586 186.359 12.0415C185.4 11.408 184.272 11.0913 182.972 11.0913H179.708V19.6912ZM199.724 5.34183H207.008V37.5H199.724V5.34183ZM210.76 5.34183H220.432C223.859 5.34183 226.693 6.0321 228.934 7.41263C231.192 8.77691 232.881 10.669 234.002 13.089C235.122 15.509 235.683 18.2782 235.683 21.3966C235.683 24.5312 235.122 27.3085 234.002 29.7284C232.881 32.1484 231.192 34.0487 228.934 35.4292C226.693 36.8097 223.859 37.5 220.432 37.5H210.76V5.34183ZM218.02 11.7978V31.044H219.774C221.609 31.044 223.128 30.6298 224.33 29.8015C225.532 28.957 226.433 27.8119 227.034 26.3665C227.651 24.9047 227.96 23.2643 227.96 21.4453C227.96 19.61 227.659 17.9696 227.058 16.5241C226.474 15.0624 225.572 13.9092 224.354 13.0647C223.136 12.2201 221.609 11.7978 219.774 11.7978H218.02ZM247.096 5.34183H254.332L267.024 37.5H259.253L256.914 31.044H244.538L242.175 37.5H234.379L247.096 5.34183ZM246.974 24.6611H254.502L250.775 14.1122H250.702L246.974 24.6611ZM272.336 25.9279L261.251 5.34183H270.095L275.966 17.596L281.862 5.34183H290.656L279.62 25.9279V37.5H272.336V25.9279Z" fill="white"/>
<defs>
<linearGradient id="paint0_linear_9088_8805" x1="0.141176" y1="19.4259" x2="35.3977" y2="21.0386" gradientUnits="userSpaceOnUse">
<stop stop-color="white"/>
<stop offset="1" stop-color="white" stop-opacity="0"/>
</linearGradient>
<linearGradient id="paint1_linear_9088_8805" x1="24.1412" y1="19.4259" x2="59.3977" y2="21.0386" gradientUnits="userSpaceOnUse">
<stop stop-color="white"/>
<stop offset="1" stop-color="white" stop-opacity="0"/>
</linearGradient>
<linearGradient id="paint2_linear_9088_8805" x1="48.1765" y1="19.4259" x2="92.1954" y2="21.9428" gradientUnits="userSpaceOnUse">
<stop stop-color="white"/>
<stop offset="1" stop-color="white" stop-opacity="0"/>
</linearGradient>
<linearGradient id="paint3_linear_9088_8805" x1="78.1882" y1="19.4259" x2="125.121" y2="22.2883" gradientUnits="userSpaceOnUse">
<stop stop-color="white"/>
<stop offset="1" stop-color="white" stop-opacity="0"/>
</linearGradient>
<linearGradient id="paint4_linear_9088_8805" x1="110.171" y1="19.4259" x2="152.731" y2="21.7783" gradientUnits="userSpaceOnUse">
<stop stop-color="white"/>
<stop offset="1" stop-color="white" stop-opacity="0"/>
</linearGradient>
</defs>
</svg>
