<svg width="33" height="32" viewBox="0 0 33 32" fill="none" xmlns="http://www.w3.org/2000/svg">
<path d="M27.2106 19.9935C27.1323 19.9936 27.0549 19.9769 26.9836 19.9447C26.9123 19.9124 26.8486 19.8653 26.797 19.8065C26.2291 19.1598 25.5299 18.6417 24.7459 18.2866C23.962 17.9315 23.1113 17.7477 22.2507 17.7473C20.9637 17.7473 19.6844 18.1697 18.6504 18.9364C18.5924 18.9794 18.5265 19.0105 18.4564 19.0281C18.3864 19.0456 18.3136 19.0491 18.2422 19.0385C18.1708 19.0279 18.1022 19.0033 18.0403 18.9661C17.9784 18.929 17.9244 18.88 17.8815 18.822C17.8385 18.764 17.8074 18.6981 17.7899 18.6281C17.7723 18.5581 17.7688 18.4853 17.7794 18.4139C17.79 18.3425 17.8146 18.2739 17.8518 18.212C17.8889 18.1501 17.9379 18.0961 17.9959 18.0531C19.229 17.1442 20.7199 16.6522 22.2518 16.6484C24.3088 16.6484 26.2668 17.535 27.6253 19.0805C27.6947 19.1602 27.7397 19.2582 27.755 19.3628C27.7702 19.4674 27.7551 19.5741 27.7114 19.6703C27.6677 19.7666 27.5973 19.8482 27.5085 19.9055C27.4197 19.9628 27.3163 19.9934 27.2106 19.9935Z" fill="#F04C4D"/>
<path d="M14.4359 15.12C14.3427 15.12 14.2511 15.0963 14.1695 15.0512C14.088 15.0061 14.0193 14.941 13.9698 14.8621C13.9203 14.7831 13.8917 14.6929 13.8867 14.5999C13.8816 14.5068 13.9003 14.414 13.9409 14.3302C14.3402 13.507 14.5482 12.6041 14.5492 11.6891C14.5492 10.6287 14.2687 9.5815 13.7396 8.6641C13.7029 8.60152 13.679 8.53231 13.6691 8.46045C13.6593 8.38858 13.6638 8.31548 13.6823 8.24536C13.7009 8.17523 13.7331 8.10947 13.7772 8.05185C13.8212 7.99423 13.8762 7.9459 13.9391 7.90963C14.0019 7.87336 14.0712 7.84987 14.1432 7.84053C14.2151 7.83118 14.2882 7.83615 14.3582 7.85515C14.4282 7.87416 14.4937 7.90682 14.551 7.95126C14.6084 7.9957 14.6563 8.05104 14.6922 8.1141C15.2756 9.12599 15.6026 10.2653 15.6446 11.4326C15.6866 12.5999 15.4423 13.7597 14.9331 14.8109C14.8874 14.9038 14.8166 14.982 14.7287 15.0366C14.6408 15.0912 14.5394 15.1201 14.4359 15.12Z" fill="#499ED7"/>
<path d="M5.00039 27.6565L12.0459 14.2068C12.126 14.0539 12.2409 13.922 12.3813 13.8218C12.5218 13.7216 12.6838 13.6558 12.8544 13.6298C13.025 13.6037 13.1993 13.6182 13.3632 13.672C13.5272 13.7258 13.6762 13.8174 13.7982 13.9395L19.4599 19.6012C19.5819 19.7232 19.6735 19.8721 19.7273 20.0361C19.7811 20.2 19.7956 20.3744 19.7696 20.5449C19.7436 20.7155 19.6778 20.8776 19.5775 21.018C19.4773 21.1585 19.3454 21.2734 19.1926 21.3535L5.74289 28.399C5.63905 28.4534 5.52054 28.4732 5.40463 28.4556C5.28872 28.4379 5.1815 28.3837 5.09859 28.3008C5.01569 28.2178 4.96145 28.1106 4.94378 27.9947C4.92611 27.8788 4.94595 27.7603 5.00039 27.6565Z" fill="#FFCC5C"/>
<path d="M19.4666 19.6012L13.8049 13.9395C13.6829 13.8174 13.5339 13.7258 13.37 13.672C13.206 13.6182 13.0317 13.6037 12.8611 13.6298C12.6905 13.6558 12.5285 13.7216 12.388 13.8218C12.2476 13.922 12.1327 14.0539 12.0526 14.2068L11.991 14.3256L14.0513 16.3859C14.4174 16.7518 14.6922 17.1988 14.8536 17.6907C15.015 18.1825 15.0584 18.7055 14.9804 19.2172C14.9023 19.7289 14.7049 20.2151 14.4043 20.6365C14.1036 21.0578 13.7079 21.4025 13.2494 21.6428L6.2336 25.3179L5.0082 27.6565C4.95376 27.7603 4.93393 27.8788 4.95159 27.9947C4.96926 28.1106 5.0235 28.2178 5.1064 28.3008C5.18931 28.3837 5.29654 28.4379 5.41244 28.4556C5.52835 28.4732 5.64687 28.4534 5.7507 28.399L19.2004 21.3535C19.3532 21.2733 19.4849 21.1583 19.5851 21.0178C19.6852 20.8773 19.7509 20.7152 19.7768 20.5446C19.8027 20.3741 19.7881 20.1998 19.7342 20.0359C19.6803 19.872 19.5887 19.7231 19.4666 19.6012Z" fill="#F7B546"/>
<path d="M8.41674 26.9915L9.79504 26.2699L6.29154 25.1754L5.77344 26.1654L8.41674 26.9915ZM7.15174 23.5331L12.0797 25.0731L13.458 24.3515L7.67094 22.5431L7.15174 23.5331ZM8.53004 20.9008L15.7416 23.1547L17.1199 22.4331L9.04924 19.9108L8.53004 20.9008ZM9.90944 18.2696L19.3397 21.2165C19.493 21.0973 19.6109 20.9385 19.6809 20.7574C19.7509 20.5762 19.7702 20.3794 19.7368 20.188L10.4286 17.2796L9.90944 18.2696ZM11.2877 15.6384L17.4037 17.5491L15.7273 15.8738L11.8058 14.6484L11.2877 15.6384Z" fill="#F47423"/>
<path d="M19.7357 20.1891L14.9859 18.7052C14.987 19.0792 14.9298 19.4488 14.8077 19.8019L19.3397 21.2176C19.4937 21.0944 19.6037 20.9404 19.673 20.7721L19.6884 20.7336C19.7504 20.5591 19.7667 20.3717 19.7357 20.1891ZM13.458 24.3526L10.0755 23.2955L8.69724 24.0171L12.0797 25.0742L12.4009 24.9059L13.458 24.3526ZM14.0366 16.3842C14.0839 16.4315 14.1125 16.4865 14.1554 16.536L17.4026 17.5513L15.7262 15.8749L12.5263 14.875L14.0366 16.3842ZM5.77344 26.1665L8.41674 26.9926L9.79504 26.271L6.41254 25.2139L6.21894 25.3162L5.77344 26.1665ZM13.2347 21.6411L12.3602 22.0998L15.7427 23.1569L17.121 22.4353L13.656 21.3529C13.5185 21.4519 13.3898 21.5597 13.2347 21.6411Z" fill="#ED5D25"/>
<path d="M8.50269 13.3484C8.18468 13.3473 7.87376 13.2544 7.60726 13.0808C7.34075 12.9073 7.12998 12.6606 7.00025 12.3702C6.87052 12.0799 6.82735 11.7583 6.8759 11.444C6.92446 11.1297 7.06269 10.8361 7.27399 10.5984C7.00205 10.2966 6.85156 9.90472 6.85156 9.49844C6.85156 9.09216 7.00205 8.70028 7.27399 8.39844C7.06269 8.16078 6.92446 7.86718 6.8759 7.5529C6.82735 7.23861 6.87052 6.91699 7.00025 6.62664C7.12998 6.33629 7.34075 6.08955 7.60726 5.91603C7.87376 5.74251 8.18468 5.6496 8.50269 5.64844C8.64856 5.64844 8.78846 5.70638 8.8916 5.80953C8.99475 5.91267 9.05269 6.05257 9.05269 6.19844C9.05269 6.34431 8.99475 6.4842 8.8916 6.58735C8.78846 6.69049 8.64856 6.74844 8.50269 6.74844C8.35683 6.74844 8.21693 6.80638 8.11379 6.90953C8.01064 7.01267 7.95269 7.15257 7.95269 7.29844C7.95269 7.44431 8.01064 7.5842 8.11379 7.68735C8.21693 7.79049 8.35683 7.84844 8.50269 7.84844C8.64856 7.84844 8.78846 7.90638 8.8916 8.00953C8.99475 8.11267 9.05269 8.25257 9.05269 8.39844C9.05269 8.54431 8.99475 8.6842 8.8916 8.78735C8.78846 8.89049 8.64856 8.94844 8.50269 8.94844C8.35683 8.94844 8.21693 9.00638 8.11379 9.10953C8.01064 9.21267 7.95269 9.35257 7.95269 9.49844C7.95269 9.64431 8.01064 9.7842 8.11379 9.88735C8.21693 9.99049 8.35683 10.0484 8.50269 10.0484C8.64856 10.0484 8.78846 10.1064 8.8916 10.2095C8.99475 10.3127 9.05269 10.4526 9.05269 10.5984C9.05269 10.7443 8.99475 10.8842 8.8916 10.9873C8.78846 11.0905 8.64856 11.1484 8.50269 11.1484C8.35683 11.1484 8.21693 11.2064 8.11379 11.3095C8.01064 11.4127 7.95269 11.5526 7.95269 11.6984C7.95269 11.8443 8.01064 11.9842 8.11379 12.0873C8.21693 12.1905 8.35683 12.2484 8.50269 12.2484C8.64856 12.2484 8.78846 12.3064 8.8916 12.4095C8.99475 12.5127 9.05269 12.6526 9.05269 12.7984C9.05269 12.9443 8.99475 13.0842 8.8916 13.1873C8.78846 13.2905 8.64856 13.3484 8.50269 13.3484Z" fill="#92CA62"/>
<path d="M8.53938 8.93143C8.64557 8.92475 8.74746 8.88699 8.83235 8.82283C8.91723 8.75868 8.98137 8.67097 9.01678 8.57063C8.9107 8.57771 8.80901 8.61564 8.7242 8.67974C8.63939 8.74384 8.57515 8.83131 8.53938 8.93143ZM9.01678 6.37063C8.9107 6.37771 8.80901 6.41564 8.7242 6.47974C8.63939 6.54384 8.57515 6.63131 8.53938 6.73143C8.64557 6.72475 8.74746 6.68699 8.83235 6.62283C8.91723 6.55868 8.98137 6.47097 9.01678 6.37063ZM7.40308 11.3129C7.40308 10.8905 7.56258 10.5055 7.82438 10.2129C7.55244 9.91108 7.40194 9.5192 7.40194 9.11293C7.40194 8.70665 7.55244 8.31477 7.82438 8.01293C7.54534 7.7024 7.39494 7.29731 7.40373 6.87992C7.41251 6.46254 7.57982 6.06414 7.87168 5.76562C7.62858 5.86685 7.41322 6.02474 7.24357 6.22614C7.07392 6.42753 6.95491 6.66658 6.89645 6.92334C6.83799 7.18009 6.8418 7.44711 6.90754 7.70209C6.97328 7.95708 7.09906 8.19264 7.27438 8.38913C7.00221 8.69086 6.85156 9.08278 6.85156 9.48913C6.85156 9.89547 7.00221 10.2874 7.27438 10.5891C7.06307 10.8268 6.92484 11.1204 6.87629 11.4347C6.82773 11.749 6.87091 12.0706 7.00063 12.3609C7.13036 12.6513 7.34113 12.898 7.60764 13.0715C7.87414 13.245 8.18506 13.338 8.50308 13.3391C8.61813 13.3385 8.73004 13.3014 8.82272 13.2332C8.91541 13.1651 8.98411 13.0693 9.01898 12.9596C8.58788 12.9507 8.17739 12.7734 7.87538 12.4656C7.57338 12.1579 7.40385 11.7441 7.40308 11.3129Z" fill="#71BC58"/>
<path d="M8.53125 11.1421C8.63725 11.1352 8.7389 11.0973 8.82357 11.0332C8.90825 10.969 8.97222 10.8814 9.00755 10.7812C8.90163 10.7884 8.80011 10.8264 8.71549 10.8905C8.63086 10.9546 8.56682 11.042 8.53125 11.1421Z" fill="#71BC58"/>
<path d="M23.602 14.5062C23.1796 14.5062 22.7572 14.3456 22.4349 14.0244C22.3316 13.9212 22.2735 13.7813 22.2734 13.6354C22.2733 13.4894 22.3312 13.3494 22.4343 13.2461C22.5375 13.1428 22.6774 13.0848 22.8234 13.0847C22.9693 13.0846 23.1093 13.1424 23.2126 13.2456C23.2637 13.2966 23.3244 13.3371 23.3912 13.3647C23.458 13.3923 23.5296 13.4065 23.6018 13.4065C23.6741 13.4064 23.7456 13.3921 23.8124 13.3644C23.8791 13.3367 23.9398 13.2962 23.9908 13.245C24.0419 13.1939 24.0824 13.1332 24.11 13.0664C24.1376 12.9996 24.1518 12.928 24.1517 12.8558C24.1517 12.7835 24.1374 12.712 24.1097 12.6452C24.082 12.5785 24.0414 12.5178 23.9903 12.4668C23.9388 12.4158 23.8979 12.3552 23.87 12.2883C23.8422 12.2215 23.8278 12.1498 23.8278 12.0774C23.8278 12.0049 23.8422 11.9332 23.87 11.8664C23.8979 11.7996 23.9388 11.7389 23.9903 11.688C24.0934 11.5849 24.2333 11.5269 24.3791 11.5269C24.525 11.5269 24.6649 11.5849 24.768 11.688C24.8717 11.7882 25.0107 11.8436 25.1549 11.8423C25.2991 11.8411 25.437 11.7832 25.539 11.6813C25.641 11.5793 25.6988 11.4413 25.7001 11.2971C25.7013 11.1529 25.6459 11.014 25.5457 10.9103C25.4942 10.8593 25.4533 10.7987 25.4254 10.7318C25.3976 10.665 25.3832 10.5933 25.3832 10.5209C25.3832 10.4484 25.3976 10.3767 25.4254 10.3099C25.4533 10.2431 25.4942 10.1824 25.5457 10.1315C25.6488 10.0284 25.7887 9.97044 25.9345 9.97044C26.0804 9.97044 26.2203 10.0284 26.3234 10.1315C26.4284 10.231 26.5676 10.2864 26.7122 10.2864C26.8569 10.2864 26.9961 10.231 27.1011 10.1315C27.1524 10.0805 27.193 10.0198 27.2206 9.95293C27.2481 9.88607 27.2621 9.81439 27.2617 9.74207C27.262 9.66993 27.2479 9.59846 27.2204 9.5318C27.1928 9.46514 27.1523 9.40463 27.1011 9.35377C27.05 9.3027 27.0094 9.24207 26.9817 9.17532C26.954 9.10857 26.9397 9.03702 26.9396 8.96476C26.9396 8.89249 26.9538 8.82092 26.9814 8.75413C27.009 8.68735 27.0495 8.62665 27.1005 8.57552C27.1516 8.52438 27.2122 8.4838 27.279 8.4561C27.3457 8.4284 27.4173 8.41411 27.4896 8.41406C27.5618 8.41401 27.6334 8.42819 27.7002 8.4558C27.767 8.48341 27.8277 8.5239 27.8788 8.57497C28.1901 8.88627 28.3617 9.30097 28.3617 9.74207C28.362 10.164 28.2006 10.57 27.9107 10.8765C27.6207 11.1831 27.2243 11.3668 26.803 11.3899C26.7816 11.7957 26.6107 12.1793 26.3233 12.4667C26.0359 12.7541 25.6523 12.9249 25.2465 12.9464C25.2245 13.338 25.065 13.7241 24.7658 14.0222C24.4479 14.3456 24.0244 14.5062 23.602 14.5062Z" fill="#AE89BE"/>
<path d="M24.1769 11.6953C24.2667 11.7834 24.3844 11.8376 24.5098 11.8487C24.6352 11.8597 24.7605 11.8269 24.8644 11.7558C24.8347 11.736 24.8005 11.7228 24.7741 11.6953C24.6843 11.6071 24.5666 11.5529 24.4412 11.5419C24.3158 11.5308 24.1905 11.5637 24.0866 11.6348C24.1163 11.6546 24.1505 11.6689 24.1769 11.6953ZM25.7322 10.1399C25.8236 10.2255 25.9411 10.2778 26.0659 10.2884C26.1906 10.299 26.3153 10.2672 26.4197 10.1982C26.3889 10.1784 26.356 10.1663 26.3296 10.1399C26.2397 10.0517 26.122 9.9975 25.9966 9.98647C25.8712 9.97543 25.7459 10.0083 25.6421 10.0794C25.6718 10.0992 25.7058 10.1135 25.7322 10.1399ZM22.6215 13.2507C22.7113 13.3388 22.829 13.393 22.9544 13.4041C23.0798 13.4151 23.2051 13.3823 23.309 13.3112C23.2793 13.2914 23.2452 13.2782 23.2188 13.2507C23.1287 13.1629 23.0109 13.109 22.8856 13.0982C22.7603 13.0873 22.6351 13.1202 22.5312 13.1913C22.561 13.2111 22.5951 13.2243 22.6215 13.2507Z" fill="#9676B5"/>
<path d="M27.8829 8.58422C27.7928 8.49643 27.6751 8.44254 27.5497 8.43171C27.4244 8.42088 27.2992 8.45378 27.1954 8.52482C27.2251 8.54462 27.2592 8.55782 27.2856 8.58422C27.5969 8.89552 27.7685 9.31022 27.7685 9.75132C27.7688 10.1733 27.6074 10.5793 27.3175 10.8858C27.0275 11.1923 26.6311 11.376 26.2098 11.3991C26.1883 11.805 26.0175 12.1885 25.7301 12.4759C25.4427 12.7633 25.0591 12.9342 24.6533 12.9556C24.6313 13.3472 24.4718 13.7333 24.1726 14.0314C23.9284 14.2756 23.6215 14.3966 23.3047 14.4549C23.4048 14.4736 23.5016 14.5132 23.6028 14.5132C24.0247 14.5141 24.4309 14.353 24.7375 14.0632C25.0441 13.7734 25.2278 13.3769 25.2506 12.9556C25.6563 12.9337 26.0396 12.7627 26.3269 12.4754C26.6141 12.1881 26.7852 11.8048 26.8071 11.3991C27.2285 11.3763 27.6251 11.1927 27.9151 10.8861C28.2051 10.5795 28.3664 10.1733 28.3658 9.75132C28.3667 9.53449 28.3244 9.31964 28.2415 9.11928C28.1586 8.91892 28.0367 8.73704 27.8829 8.58422Z" fill="#9676B5"/>
<path d="M17.4874 27.6009C17.3919 27.6008 17.2981 27.576 17.2152 27.5287C17.1322 27.4815 17.063 27.4135 17.0144 27.3314C16.8508 27.0575 16.7703 26.7421 16.7825 26.4234C16.7947 26.1046 16.8991 25.7963 17.0831 25.5358C17.2671 25.2753 17.5228 25.0737 17.8191 24.9557C18.1154 24.8376 18.4396 24.8081 18.7524 24.8707C18.8701 24.4967 19.1209 24.1623 19.4839 23.9478C19.8458 23.7322 20.255 23.6728 20.6444 23.7487C20.7654 23.3604 21.0228 23.0348 21.3759 22.8258C21.562 22.7143 21.7684 22.6411 21.9832 22.6103C22.1979 22.5795 22.4166 22.5918 22.6266 22.6465C23.0534 22.7554 23.4131 23.0249 23.6375 23.4033C23.6743 23.4655 23.6985 23.5344 23.7087 23.606C23.7189 23.6777 23.7149 23.7506 23.6969 23.8206C23.679 23.8907 23.6474 23.9566 23.6039 24.0144C23.5605 24.0723 23.5061 24.121 23.4439 24.1579C23.3816 24.1947 23.3127 24.2189 23.2411 24.2291C23.1695 24.2393 23.0965 24.2353 23.0265 24.2173C22.9564 24.1994 22.8906 24.1678 22.8327 24.1243C22.7748 24.0809 22.7261 24.0265 22.6893 23.9643C22.6343 23.8699 22.5525 23.7942 22.4542 23.7467C22.3559 23.6992 22.2456 23.6822 22.1376 23.6978C22.0296 23.7134 21.9286 23.7609 21.8478 23.8343C21.767 23.9076 21.7099 24.0034 21.6839 24.1095C21.6659 24.1793 21.662 24.252 21.6724 24.3234C21.6828 24.3948 21.7072 24.4634 21.7444 24.5253C21.8046 24.6497 21.816 24.7923 21.7762 24.9248C21.7364 25.0573 21.6484 25.17 21.5294 25.2406C21.4105 25.3113 21.2694 25.3347 21.1341 25.3064C20.9987 25.278 20.8789 25.1998 20.7984 25.0874C20.7235 24.9621 20.6022 24.8715 20.4608 24.8354C20.3194 24.7994 20.1695 24.8207 20.0438 24.8949C19.9185 24.9697 19.8279 25.091 19.7918 25.2324C19.7558 25.3738 19.7771 25.5238 19.8513 25.6495C19.9257 25.7752 19.9471 25.9253 19.9107 26.0668C19.8744 26.2084 19.7834 26.3297 19.6577 26.4041C19.5319 26.4784 19.3818 26.4998 19.2403 26.4635C19.0988 26.4272 18.9775 26.3362 18.9031 26.2105C18.8667 26.1481 18.8182 26.0936 18.7603 26.0503C18.7025 26.0071 18.6366 25.9758 18.5665 25.9586C18.4612 25.932 18.3504 25.9371 18.2481 25.9734C18.1458 26.0096 18.0564 26.0754 17.9914 26.1623C17.9264 26.2492 17.8885 26.3534 17.8826 26.4618C17.8767 26.5702 17.903 26.678 17.9582 26.7715C18.0077 26.8547 18.0342 26.9496 18.0352 27.0464C18.0362 27.1433 18.0115 27.2387 17.9637 27.3229C17.9159 27.4072 17.8466 27.4772 17.763 27.5261C17.6793 27.5749 17.5842 27.6007 17.4874 27.6009Z" fill="#499ED7"/>
<path d="M17.6351 27.3347C17.5241 27.1484 17.451 26.9421 17.4199 26.7275C17.3888 26.5129 17.4004 26.2943 17.4539 26.0842C17.5075 25.8741 17.6019 25.6767 17.7319 25.5031C17.862 25.3296 18.0249 25.1835 18.2115 25.0731C18.3787 24.973 18.5613 24.9092 18.7483 24.874C18.3509 24.7935 17.9377 24.8645 17.59 25.0731C17.4033 25.1831 17.2403 25.3292 17.1104 25.5027C16.9804 25.6762 16.8863 25.8738 16.8332 26.084C16.779 26.294 16.7671 26.5127 16.798 26.7274C16.829 26.9421 16.9023 27.1485 17.0136 27.3347C17.0884 27.4596 17.2096 27.55 17.3507 27.5861C17.4919 27.6221 17.6415 27.6009 17.7671 27.5272C17.7814 27.5195 17.788 27.5052 17.8012 27.4964C17.7353 27.4545 17.6788 27.3994 17.6351 27.3347ZM19.526 26.2116C19.4896 26.1492 19.4411 26.0947 19.3833 26.0514C19.3255 26.0082 19.2595 25.977 19.1894 25.9597C19.1194 25.9415 19.0465 25.9375 18.9749 25.9479C18.9033 25.9583 18.8345 25.9828 18.7725 26.0202C18.7615 26.0268 18.7549 26.0378 18.745 26.0444C18.8077 26.0884 18.8638 26.1434 18.9034 26.2116C18.978 26.3371 19.0994 26.4278 19.2409 26.4639C19.3824 26.5 19.5324 26.4785 19.658 26.4041C19.669 26.3975 19.6723 26.3854 19.6833 26.3788C19.6196 26.3348 19.566 26.2778 19.526 26.2116ZM19.3742 24.874C19.4919 24.5 19.7427 24.1656 20.1057 23.9511C20.4676 23.7355 20.8768 23.6761 21.2662 23.752C21.3543 23.4688 21.5179 23.2151 21.7395 23.018C21.961 22.8208 22.2321 22.6879 22.5235 22.6333C22.1274 22.554 21.716 22.6246 21.3689 22.8312C21.0219 23.0379 20.7638 23.366 20.6447 23.752C20.2466 23.6715 19.8328 23.7425 19.4842 23.9511C19.1212 24.1667 18.8715 24.4989 18.7538 24.8729C18.9562 24.8344 19.1652 24.8311 19.3742 24.874ZM21.4202 25.0896C21.3454 24.9643 21.224 24.8737 21.0826 24.8376C20.9412 24.8016 20.7913 24.8229 20.6656 24.8971C20.6546 24.9037 20.648 24.9147 20.6381 24.9224C20.7008 24.9664 20.7558 25.0203 20.7976 25.0907C20.8722 25.2159 20.9935 25.3064 21.1348 25.3423C21.276 25.3782 21.4258 25.3565 21.5511 25.2821C21.5621 25.2755 21.5654 25.2634 21.5753 25.2568C21.5125 25.2124 21.4597 25.1555 21.4202 25.0896ZM23.3111 23.9676C23.2744 23.9053 23.2257 23.851 23.1679 23.8076C23.1101 23.7643 23.0442 23.7328 22.9742 23.715C22.9042 23.6972 22.8313 23.6935 22.7598 23.704C22.6883 23.7145 22.6196 23.739 22.5576 23.7762C22.5466 23.7828 22.54 23.7938 22.5301 23.8004C22.5928 23.8444 22.6489 23.8994 22.6885 23.9676C22.7631 24.0931 22.8845 24.1838 23.026 24.2199C23.1675 24.256 23.3175 24.2345 23.4431 24.1601C23.4541 24.1535 23.4596 24.1425 23.4706 24.1359C23.406 24.0919 23.3516 24.0345 23.3111 23.9676Z" fill="#2B8EC6"/>
<path d="M16.2016 6.2C16.8091 6.2 17.3016 5.70751 17.3016 5.1C17.3016 4.49249 16.8091 4 16.2016 4C15.594 4 15.1016 4.49249 15.1016 5.1C15.1016 5.70751 15.594 6.2 16.2016 6.2Z" fill="#AE89BE"/>
<path d="M24.9984 6.2C25.606 6.2 26.0984 5.70751 26.0984 5.1C26.0984 4.49249 25.606 4 24.9984 4C24.3909 4 23.8984 4.49249 23.8984 5.1C23.8984 5.70751 24.3909 6.2 24.9984 6.2Z" fill="#499ED7"/>
<path d="M29.3969 17.2C30.0044 17.2 30.4969 16.7075 30.4969 16.1C30.4969 15.4925 30.0044 15 29.3969 15C28.7894 15 28.2969 15.4925 28.2969 16.1C28.2969 16.7075 28.7894 17.2 29.3969 17.2Z" fill="#FFCC5C"/>
<path d="M4.1 21.5984C4.70751 21.5984 5.2 21.106 5.2 20.4984C5.2 19.8909 4.70751 19.3984 4.1 19.3984C3.49249 19.3984 3 19.8909 3 20.4984C3 21.106 3.49249 21.5984 4.1 21.5984Z" fill="#F04C4D"/>
<path d="M16.2016 4C16.06 4.00095 15.9199 4.02934 15.7891 4.0836C15.9914 4.16561 16.1647 4.30615 16.2867 4.48722C16.4087 4.6683 16.4738 4.88166 16.4738 5.1C16.4738 5.31834 16.4087 5.5317 16.2867 5.71278C16.1647 5.89385 15.9914 6.03439 15.7891 6.1164C15.9199 6.17066 16.06 6.19905 16.2016 6.2C16.4933 6.2 16.7731 6.08411 16.9794 5.87782C17.1857 5.67153 17.3016 5.39174 17.3016 5.1C17.3016 4.80826 17.1857 4.52847 16.9794 4.32218C16.7731 4.11589 16.4933 4 16.2016 4Z" fill="#9676B5"/>
<path d="M24.9984 4C24.8568 4.00095 24.7167 4.02934 24.5859 4.0836C24.7883 4.16561 24.9616 4.30615 25.0835 4.48722C25.2055 4.6683 25.2707 4.88166 25.2707 5.1C25.2707 5.31834 25.2055 5.5317 25.0835 5.71278C24.9616 5.89385 24.7883 6.03439 24.5859 6.1164C24.7167 6.17066 24.8568 6.19905 24.9984 6.2C25.2902 6.2 25.57 6.08411 25.7763 5.87782C25.9825 5.67153 26.0984 5.39174 26.0984 5.1C26.0984 4.80826 25.9825 4.52847 25.7763 4.32218C25.57 4.11589 25.2902 4 24.9984 4Z" fill="#2B8EC6"/>
<path d="M29.3969 15C29.2553 15.0009 29.1152 15.0293 28.9844 15.0836C29.1867 15.1656 29.36 15.3061 29.482 15.4872C29.604 15.6683 29.6691 15.8817 29.6691 16.1C29.6691 16.3183 29.604 16.5317 29.482 16.7128C29.36 16.8939 29.1867 17.0344 28.9844 17.1164C29.1152 17.1707 29.2553 17.1991 29.3969 17.2C29.6886 17.2 29.9684 17.0841 30.1747 16.8778C30.381 16.6715 30.4969 16.3917 30.4969 16.1C30.4969 15.8083 30.381 15.5285 30.1747 15.3222C29.9684 15.1159 29.6886 15 29.3969 15Z" fill="#F7B546"/>
<path d="M4.1 19.3984C3.95839 19.3994 3.8183 19.4278 3.6875 19.482C3.88985 19.564 4.06312 19.7046 4.18511 19.8857C4.30711 20.0667 4.37228 20.2801 4.37228 20.4984C4.37228 20.7168 4.30711 20.9301 4.18511 21.1112C4.06312 21.2923 3.88985 21.4328 3.6875 21.5148C3.8183 21.5691 3.95839 21.5975 4.1 21.5984C4.39174 21.5984 4.67153 21.4825 4.87782 21.2763C5.08411 21.07 5.2 20.7902 5.2 20.4984C5.2 20.2067 5.08411 19.9269 4.87782 19.7206C4.67153 19.5143 4.39174 19.3984 4.1 19.3984Z" fill="#E13340"/>
<path d="M26.1 28.2C26.7075 28.2 27.2 27.7075 27.2 27.1C27.2 26.4925 26.7075 26 26.1 26C25.4925 26 25 26.4925 25 27.1C25 27.7075 25.4925 28.2 26.1 28.2Z" fill="#F04C4D"/>
<path d="M26.1 26C25.9584 26.0009 25.8183 26.0293 25.6875 26.0836C25.8898 26.1656 26.0631 26.3061 26.1851 26.4872C26.3071 26.6683 26.3723 26.8817 26.3723 27.1C26.3723 27.3183 26.3071 27.5317 26.1851 27.7128C26.0631 27.8939 25.8898 28.0344 25.6875 28.1164C25.8183 28.1707 25.9584 28.1991 26.1 28.2C26.3917 28.2 26.6715 28.0841 26.8778 27.8778C27.0841 27.6715 27.2 27.3917 27.2 27.1C27.2 26.8083 27.0841 26.5285 26.8778 26.3222C26.6715 26.1159 26.3917 26 26.1 26Z" fill="#E13340"/>
<path d="M28.7648 23.2867C28.6342 23.2865 28.5078 23.2398 28.4085 23.155C28.3091 23.0701 28.2432 22.9527 28.2225 22.8236C28.1655 22.4655 28.0752 22.1135 27.953 21.772C27.9046 21.6343 27.9129 21.483 27.976 21.3514C28.0391 21.2198 28.1519 21.1187 28.2896 21.0702C28.4273 21.0218 28.5786 21.0301 28.7103 21.0932C28.8419 21.1563 28.943 21.2691 28.9915 21.4068C29.1334 21.8111 29.2397 22.227 29.3093 22.6498C29.3217 22.7285 29.317 22.8089 29.2953 22.8856C29.2736 22.9622 29.2356 23.0332 29.1839 23.0938C29.1321 23.1543 29.0679 23.2029 28.9955 23.2362C28.9232 23.2695 28.8445 23.2868 28.7648 23.2867Z" fill="#F04C4D"/>
<path d="M12.9144 7.3395C12.7792 7.33972 12.6488 7.28996 12.5481 7.1998C12.3976 7.06564 12.2408 6.93864 12.0784 6.8192C11.9655 6.73095 11.8916 6.60215 11.8722 6.46019C11.8529 6.31824 11.8897 6.17435 11.9748 6.05912C12.06 5.94389 12.1867 5.86643 12.3281 5.84321C12.4694 5.81999 12.6143 5.85285 12.7318 5.9348C12.9216 6.07501 13.1048 6.22404 13.2807 6.3814C13.363 6.45578 13.4209 6.55332 13.4468 6.6612C13.4727 6.76909 13.4653 6.88228 13.4257 6.98592C13.3861 7.08955 13.3161 7.17878 13.2248 7.24188C13.1335 7.30498 13.0253 7.33901 12.9144 7.3395Z" fill="#499ED7"/>
<path d="M18.1684 15.5616C18.0606 15.5619 17.9552 15.5304 17.8651 15.4712C17.7751 15.4121 17.7044 15.3277 17.6618 15.2287C17.6193 15.1297 17.6068 15.0204 17.6259 14.9143C17.6449 14.8082 17.6947 14.7101 17.7691 14.6321C19.233 13.1002 20.048 11.0618 20.0439 8.94292C20.0439 7.69662 19.7546 6.44592 19.209 5.32722C19.1737 5.26198 19.152 5.19028 19.1452 5.11643C19.1383 5.04258 19.1465 4.96811 19.1691 4.8975C19.1918 4.82688 19.2285 4.76158 19.2771 4.70552C19.3256 4.64946 19.385 4.6038 19.4517 4.57129C19.5183 4.53878 19.5909 4.52008 19.665 4.51633C19.739 4.51258 19.8131 4.52384 19.8827 4.54945C19.9523 4.57506 20.016 4.61448 20.07 4.66534C20.124 4.7162 20.1671 4.77746 20.1968 4.84542C20.818 6.12251 21.1414 7.52386 21.1428 8.94402C21.1473 11.3452 20.2234 13.6552 18.5644 15.3911C18.5137 15.4453 18.4523 15.4883 18.3842 15.5177C18.316 15.547 18.2426 15.562 18.1684 15.5616Z" fill="#92CA62"/>
<path d="M8.50313 15.5453C8.80688 15.5453 9.05313 15.2991 9.05313 14.9953C9.05313 14.6916 8.80688 14.4453 8.50313 14.4453C8.19937 14.4453 7.95312 14.6916 7.95312 14.9953C7.95312 15.2991 8.19937 15.5453 8.50313 15.5453Z" fill="#92CA62"/>
</svg>
