<svg width="54" height="54" viewBox="0 0 54 54" fill="none" xmlns="http://www.w3.org/2000/svg">
<path d="M53.719 26.5995C53.719 41.22 41.872 53.0667 27.2514 53.0667C12.6309 53.0667 0.784103 41.22 0.784103 26.5995C0.784103 11.9789 12.6309 0.132202 27.2514 0.132202C41.872 0.132202 53.719 11.9895 53.719 26.5995Z" fill="#FF492C"/>
<path d="M38.707 22.2798H31.868V21.9622C31.868 20.7976 32.101 19.8342 32.566 19.0825C33.032 18.3203 33.837 17.6533 35.001 17.0604L35.531 16.7958C36.473 16.3194 36.716 15.9065 36.716 15.4195C36.716 14.8372 36.208 14.4137 35.393 14.4137C34.419 14.4137 33.689 14.9219 33.18 15.9488L31.868 14.636C32.154 14.022 32.619 13.535 33.233 13.1433C33.858 12.7516 34.546 12.561 35.298 12.561C36.24 12.561 37.055 12.8045 37.722 13.3127C38.41 13.8208 38.749 14.5196 38.749 15.3983C38.749 16.8064 37.955 17.6639 36.473 18.4261L35.637 18.8496C34.747 19.2943 34.313 19.6966 34.186 20.4059H38.707V22.2798ZM38.103 24.4395H30.618L26.8812 30.9187H34.366L38.114 37.3979L41.851 30.9187L38.103 24.4395ZM27.527 35.2487C22.7629 35.2487 18.8881 31.3739 18.8881 26.6098C18.8881 21.8457 22.7629 17.9709 27.527 17.9709L30.491 11.7776C29.528 11.587 28.5434 11.4917 27.527 11.4917C19.174 11.4917 12.3983 18.2673 12.3983 26.6098C12.3983 34.9629 19.1634 41.7385 27.527 41.7385C30.851 41.7385 33.932 40.6586 36.431 38.8377L33.149 33.1631C31.645 34.4547 29.676 35.2487 27.527 35.2487Z" fill="white"/>
</svg>
