<svg width="169" height="24" viewBox="0 0 169 24" fill="none" xmlns="http://www.w3.org/2000/svg">
<path d="M7.53719 8.56006C7.53719 9.36966 6.82677 10.026 5.95041 10.026C5.07406 10.026 4.36364 9.36966 4.36364 8.56006C4.36364 7.75045 5.07406 7.11688 5.95041 7.11688C6.82677 7.11688 7.53719 7.75045 7.53719 8.56006Z" fill="white"/>
<path d="M13.0909 8.57143C13.0909 9.37475 12.3805 10.026 11.5041 10.026C10.6278 10.026 9.91736 9.37475 9.91736 8.57143C9.91736 7.76811 10.6278 7.11688 11.5041 7.11688C12.3805 7.11688 13.0909 7.76811 13.0909 8.57143Z" fill="white"/>
<path fill-rule="evenodd" clip-rule="evenodd" d="M2.18182 0C0.976833 0 0 1.02335 0 2.28571V21.7143C0 22.9767 0.976833 24 2.18182 24H15.2727C16.4777 24 17.4545 22.9767 17.4545 21.7143V2.28571C17.4545 1.02335 16.4777 0 15.2727 0H2.18182ZM4.90909 5.71429C3.40286 5.71429 2.18182 6.99347 2.18182 8.57143C2.18182 10.1494 3.40286 11.4286 4.90909 11.4286H12.5455C14.0517 11.4286 15.2727 10.1494 15.2727 8.57143C15.2727 6.99347 14.0517 5.71429 12.5455 5.71429H4.90909Z" fill="white"/>
<path d="M27.9218 21V1.12H41.2778V4.508H31.7858V9.632H39.6818V12.768H31.7858V21H27.9218ZM50.097 21.28C48.9023 21.28 47.829 21.084 46.877 20.692C45.925 20.2813 45.113 19.7213 44.441 19.012C43.7876 18.3027 43.2836 17.4907 42.929 16.576C42.5743 15.6613 42.397 14.7 42.397 13.692C42.397 12.6653 42.5743 11.6947 42.929 10.78C43.2836 9.86533 43.7876 9.05333 44.441 8.344C45.113 7.63467 45.925 7.084 46.877 6.692C47.829 6.28133 48.9023 6.076 50.097 6.076C51.2916 6.076 52.3556 6.28133 53.289 6.692C54.241 7.084 55.053 7.63467 55.725 8.344C56.397 9.05333 56.901 9.86533 57.237 10.78C57.5916 11.6947 57.769 12.6653 57.769 13.692C57.769 14.7 57.5916 15.6613 57.237 16.576C56.901 17.4907 56.397 18.3027 55.725 19.012C55.0716 19.7213 54.269 20.2813 53.317 20.692C52.365 21.084 51.2916 21.28 50.097 21.28ZM46.261 13.692C46.261 14.5507 46.429 15.316 46.765 15.988C47.101 16.6413 47.5583 17.1547 48.137 17.528C48.7156 17.9013 49.369 18.088 50.097 18.088C50.8063 18.088 51.4503 17.9013 52.029 17.528C52.6076 17.136 53.065 16.6133 53.401 15.96C53.7556 15.288 53.933 14.5227 53.933 13.664C53.933 12.824 53.7556 12.068 53.401 11.396C53.065 10.724 52.6076 10.2013 52.029 9.828C51.4503 9.45467 50.8063 9.268 50.097 9.268C49.369 9.268 48.7156 9.464 48.137 9.856C47.5583 10.2293 47.101 10.752 46.765 11.424C46.429 12.0773 46.261 12.8333 46.261 13.692ZM69.5974 9.576C68.4588 9.576 67.4414 9.8 66.5454 10.248C65.6494 10.6773 65.0054 11.3027 64.6134 12.124V21H60.8614V6.328H64.3054V9.464C64.8281 8.456 65.4908 7.66267 66.2934 7.084C67.0961 6.50533 67.9454 6.188 68.8414 6.132C69.0468 6.132 69.2054 6.132 69.3174 6.132C69.4294 6.132 69.5228 6.14133 69.5974 6.16V9.576ZM95.0416 21H91.2896V12.768C91.2896 11.6107 91.0842 10.7613 90.6736 10.22C90.2816 9.66 89.7309 9.38 89.0216 9.38C88.2936 9.38 87.5936 9.66933 86.9216 10.248C86.2682 10.808 85.8016 11.5453 85.5216 12.46V21H81.7696V12.768C81.7696 11.592 81.5642 10.7333 81.1536 10.192C80.7616 9.65067 80.2109 9.38 79.5016 9.38C78.7736 9.38 78.0736 9.66 77.4016 10.22C76.7482 10.78 76.2816 11.5173 76.0016 12.432V21H72.2496V6.328H75.6376V9.044C76.1976 8.092 76.9442 7.364 77.8776 6.86C78.8109 6.33733 79.8842 6.076 81.0976 6.076C82.3109 6.076 83.2536 6.37467 83.9256 6.972C84.6162 7.56933 85.0549 8.30667 85.2416 9.184C85.8389 8.176 86.5949 7.41067 87.5096 6.888C88.4429 6.34667 89.4882 6.076 90.6456 6.076C91.5602 6.076 92.2976 6.244 92.8576 6.58C93.4362 6.89733 93.8842 7.336 94.2016 7.896C94.5189 8.43733 94.7336 9.05333 94.8456 9.744C94.9762 10.4347 95.0416 11.1347 95.0416 11.844V21ZM105.672 21.28C104.496 21.28 103.432 21.084 102.48 20.692C101.528 20.2813 100.716 19.7307 100.044 19.04C99.3722 18.3307 98.8495 17.528 98.4762 16.632C98.1215 15.7173 97.9442 14.756 97.9442 13.748C97.9442 12.348 98.2522 11.0693 98.8682 9.912C99.5028 8.75467 100.399 7.83067 101.556 7.14C102.732 6.43067 104.113 6.076 105.7 6.076C107.305 6.076 108.677 6.43067 109.816 7.14C110.955 7.83067 111.823 8.75467 112.42 9.912C113.036 11.0507 113.344 12.2827 113.344 13.608C113.344 13.832 113.335 14.0653 113.316 14.308C113.297 14.532 113.279 14.7187 113.26 14.868H101.92C101.995 15.6147 102.209 16.268 102.564 16.828C102.937 17.388 103.404 17.8173 103.964 18.116C104.543 18.396 105.159 18.536 105.812 18.536C106.559 18.536 107.259 18.3587 107.912 18.004C108.584 17.6307 109.041 17.1453 109.284 16.548L112.504 17.444C112.149 18.1907 111.636 18.8533 110.964 19.432C110.311 20.0107 109.536 20.468 108.64 20.804C107.744 21.1213 106.755 21.28 105.672 21.28ZM101.836 12.488H109.508C109.433 11.7413 109.219 11.0973 108.864 10.556C108.528 9.996 108.08 9.56667 107.52 9.268C106.96 8.95067 106.335 8.792 105.644 8.792C104.972 8.792 104.356 8.95067 103.796 9.268C103.255 9.56667 102.807 9.996 102.452 10.556C102.116 11.0973 101.911 11.7413 101.836 12.488ZM121.594 21.28C120.343 21.28 119.149 21.0747 118.01 20.664C116.871 20.2533 115.891 19.6467 115.07 18.844L116.414 16.408C117.291 17.1173 118.15 17.64 118.99 17.976C119.849 18.312 120.67 18.48 121.454 18.48C122.182 18.48 122.761 18.3493 123.19 18.088C123.638 17.8267 123.862 17.4347 123.862 16.912C123.862 16.5573 123.741 16.2867 123.498 16.1C123.255 15.8947 122.901 15.7173 122.434 15.568C121.986 15.4187 121.435 15.2507 120.782 15.064C119.699 14.7093 118.794 14.364 118.066 14.028C117.338 13.692 116.787 13.272 116.414 12.768C116.059 12.2453 115.882 11.5827 115.882 10.78C115.882 9.80933 116.125 8.97867 116.61 8.288C117.114 7.57867 117.805 7.028 118.682 6.636C119.578 6.244 120.623 6.048 121.818 6.048C122.863 6.048 123.853 6.216 124.786 6.552C125.719 6.86933 126.569 7.392 127.334 8.12L125.822 10.5C125.075 9.92133 124.366 9.50133 123.694 9.24C123.022 8.96 122.341 8.82 121.65 8.82C121.258 8.82 120.885 8.86667 120.53 8.96C120.194 9.05333 119.914 9.212 119.69 9.436C119.485 9.64133 119.382 9.94 119.382 10.332C119.382 10.6867 119.475 10.9667 119.662 11.172C119.867 11.3587 120.166 11.5267 120.558 11.676C120.969 11.8253 121.463 11.9933 122.042 12.18C123.218 12.516 124.207 12.8613 125.01 13.216C125.831 13.5707 126.447 14.0093 126.858 14.532C127.269 15.036 127.474 15.736 127.474 16.632C127.474 18.088 126.942 19.2267 125.878 20.048C124.814 20.8693 123.386 21.28 121.594 21.28ZM139.296 20.244C138.978 20.3747 138.596 20.524 138.148 20.692C137.7 20.86 137.214 20.9907 136.692 21.084C136.188 21.196 135.674 21.252 135.152 21.252C134.461 21.252 133.826 21.1307 133.248 20.888C132.669 20.6453 132.202 20.2627 131.848 19.74C131.512 19.1987 131.344 18.4987 131.344 17.64V9.212H129.412V6.328H131.344V1.568H135.096V6.328H138.176V9.212H135.096V16.38C135.114 16.884 135.254 17.248 135.516 17.472C135.777 17.696 136.104 17.808 136.496 17.808C136.888 17.808 137.27 17.7427 137.644 17.612C138.017 17.4813 138.316 17.3693 138.54 17.276L139.296 20.244ZM148.422 21.28C147.246 21.28 146.182 21.084 145.23 20.692C144.278 20.2813 143.466 19.7307 142.794 19.04C142.122 18.3307 141.6 17.528 141.226 16.632C140.872 15.7173 140.694 14.756 140.694 13.748C140.694 12.348 141.002 11.0693 141.618 9.912C142.253 8.75467 143.149 7.83067 144.306 7.14C145.482 6.43067 146.864 6.076 148.45 6.076C150.056 6.076 151.428 6.43067 152.566 7.14C153.705 7.83067 154.573 8.75467 155.17 9.912C155.786 11.0507 156.094 12.2827 156.094 13.608C156.094 13.832 156.085 14.0653 156.066 14.308C156.048 14.532 156.029 14.7187 156.01 14.868H144.67C144.745 15.6147 144.96 16.268 145.314 16.828C145.688 17.388 146.154 17.8173 146.714 18.116C147.293 18.396 147.909 18.536 148.562 18.536C149.309 18.536 150.009 18.3587 150.662 18.004C151.334 17.6307 151.792 17.1453 152.034 16.548L155.254 17.444C154.9 18.1907 154.386 18.8533 153.714 19.432C153.061 20.0107 152.286 20.468 151.39 20.804C150.494 21.1213 149.505 21.28 148.422 21.28ZM144.586 12.488H152.258C152.184 11.7413 151.969 11.0973 151.614 10.556C151.278 9.996 150.83 9.56667 150.27 9.268C149.71 8.95067 149.085 8.792 148.394 8.792C147.722 8.792 147.106 8.95067 146.546 9.268C146.005 9.56667 145.557 9.996 145.202 10.556C144.866 11.0973 144.661 11.7413 144.586 12.488ZM167.676 9.576C166.538 9.576 165.52 9.8 164.624 10.248C163.728 10.6773 163.084 11.3027 162.692 12.124V21H158.94V6.328H162.384V9.464C162.907 8.456 163.57 7.66267 164.372 7.084C165.175 6.50533 166.024 6.188 166.92 6.132C167.126 6.132 167.284 6.132 167.396 6.132C167.508 6.132 167.602 6.14133 167.676 6.16V9.576Z" fill="white"/>
</svg>
