<svg width="65" height="65" viewBox="0 0 65 65" fill="none" xmlns="http://www.w3.org/2000/svg">
<rect x="0.5" y="0.5" width="64" height="64" rx="32" fill="white"/>
<path d="M41.3904 31.2812L28.3914 23.3292C28.1723 23.195 27.9213 23.1217 27.6643 23.1169C27.4074 23.1122 27.1538 23.1761 26.9299 23.3021C26.708 23.4261 26.5232 23.607 26.3945 23.8262C26.2657 24.0453 26.1976 24.2948 26.1973 24.5489V40.4512C26.1989 40.8325 26.3519 41.1974 26.6226 41.4659C26.8933 41.7344 27.2595 41.8844 27.6408 41.883C27.9069 41.8829 28.1678 41.8095 28.395 41.671L41.3904 33.7189C41.5993 33.5916 41.7719 33.4127 41.8917 33.1994C42.0115 32.9861 42.0744 32.7456 42.0744 32.501C42.0744 32.2563 42.0115 32.0158 41.8917 31.8025C41.7719 31.5892 41.5993 31.4103 41.3904 31.283V31.2812Z" fill="#6434D0"/>
</svg>
