<svg width="260" height="260" viewBox="0 0 260 260" fill="none" xmlns="http://www.w3.org/2000/svg">
<path d="M162.5 138.125L210.356 138.125C208.846 148.181 205.255 157.811 199.813 166.401C194.371 174.991 187.197 182.352 178.75 188.013L164.206 197.763L173.144 211.25L187.688 201.5C199.93 193.342 209.969 182.288 216.914 169.319C223.859 156.35 227.495 141.868 227.5 127.156L227.5 73.125C227.5 68.8152 225.788 64.682 222.74 61.6345C219.693 58.5871 215.56 56.875 211.25 56.875L162.5 56.875C158.19 56.875 154.057 58.5871 151.01 61.6345C147.962 64.682 146.25 68.8152 146.25 73.125L146.25 121.875C146.25 126.185 147.962 130.318 151.01 133.365C154.057 136.413 158.19 138.125 162.5 138.125Z" fill="url(#paint0_linear)"/>
<path d="M48.75 138.125L96.6062 138.125C95.0962 148.181 91.5055 157.811 86.0633 166.401C80.6212 174.991 73.4474 182.352 65 188.013L50.4562 197.763L59.3125 211.25L73.9375 201.5C86.1796 193.342 96.2186 182.288 103.164 169.319C110.109 156.35 113.745 141.868 113.75 127.156L113.75 73.125C113.75 68.8152 112.038 64.682 108.99 61.6345C105.943 58.5871 101.81 56.875 97.5 56.875L48.75 56.875C44.4402 56.875 40.307 58.5871 37.2595 61.6345C34.212 64.682 32.5 68.8152 32.5 73.125L32.5 121.875C32.5 126.185 34.212 130.318 37.2595 133.365C40.307 136.413 44.4402 138.125 48.75 138.125Z" fill="url(#paint1_linear)"/>
<defs>
<linearGradient id="paint0_linear" x1="186.875" y1="211.25" x2="186.875" y2="56.875" gradientUnits="userSpaceOnUse">
<stop stop-color="#634AB0" stop-opacity="0"/>
<stop offset="1" stop-color="#634AB0"/>
</linearGradient>
<linearGradient id="paint1_linear" x1="73.125" y1="211.25" x2="73.125" y2="56.875" gradientUnits="userSpaceOnUse">
<stop stop-color="#634AB0" stop-opacity="0"/>
<stop offset="1" stop-color="#634AB0"/>
</linearGradient>
</defs>
</svg>
