<svg width="150" height="52" viewBox="0 0 150 52" fill="none" xmlns="http://www.w3.org/2000/svg">
<g clip-path="url(#clip0_358_2965)">
<path d="M13.9975 26.0401C12.3997 26.0399 11.1045 24.7446 11.1045 23.1467C11.1045 21.5488 12.3998 20.2534 13.9978 20.2534C15.5958 20.2534 16.8912 21.5488 16.8912 23.1467C16.8912 24.7447 15.5955 26.0401 13.9975 26.0401Z" fill="#FCA916"/>
<path d="M25.0234 23.1467C25.0234 21.5488 26.3189 20.2534 27.9168 20.2534C29.5147 20.2534 30.8101 21.5488 30.8101 23.1467C30.8101 24.7447 29.5147 26.0401 27.9168 26.0401C26.3189 26.0401 25.0234 24.7447 25.0234 23.1467Z" fill="#FCA916"/>
<path fill-rule="evenodd" clip-rule="evenodd" d="M0 6.3341L20.9182 0L41.7582 6.3341L28.308 10.624V12.6436C28.412 12.7254 28.5153 12.8088 28.618 12.8938L35.1113 12.4336L32.4477 17.1748C34.8803 20.7406 36.5396 25.1682 37.135 29.42C28.6969 31.9918 22.2723 40.1728 22.7699 50.9505C22.1397 51.0254 21.496 51.0638 20.84 51.0638C20.2807 51.0638 19.7303 51.0359 19.1897 50.9813C19.2007 50.6842 19.2063 50.3856 19.2063 50.0859C19.2063 40.1106 13.0576 31.8664 4.58739 29.3556L4.55587 29.3424C5.15341 25.1644 6.77541 20.823 9.14676 17.301L6.41232 12.4336L13.0496 12.9039L13.1072 12.8564L13.172 12.8035C13.2384 12.7496 13.3051 12.6963 13.372 12.6436V10.5831L0 6.3341ZM27.917 18.0639C30.7241 18.0639 32.9999 20.3397 32.9999 23.1468C32.9999 25.954 30.7241 28.2298 27.917 28.2298C26.186 28.2298 24.6571 27.3646 23.7393 26.043L21.0746 29.2072L18.279 25.8876C17.3754 27.2963 15.7955 28.2298 13.9976 28.2298C11.1904 28.2298 8.91469 25.954 8.91469 23.1468C8.91469 20.3397 11.1904 18.0639 13.9976 18.0639C16.7787 18.0639 19.0382 20.2974 19.0799 23.0686H22.8347C22.8764 20.2974 25.1359 18.0639 27.917 18.0639Z" fill="#FCA916"/>
<path d="M24.9246 50.541C32.3271 48.5876 37.3786 41.3876 37.3786 32.8043C37.3786 32.4169 37.3683 32.0255 37.3479 31.6309C36.2137 32.0084 35.1212 32.5013 34.0868 33.1004C32.285 34.2159 30.8361 35.4369 29.6707 36.7135C27.3827 39.2936 25.7599 42.6098 25.1636 46.4632C25.0988 46.8921 25.0474 47.3148 25.0068 47.7297C24.9218 48.6404 24.8929 49.5783 24.9246 50.541Z" fill="#FCA916"/>
<path d="M16.7336 46.4647C16.9563 47.9419 17.0215 49.3449 17.0282 50.6105C9.47697 48.7641 4.30078 41.4929 4.30078 32.8043C4.30078 32.3916 4.31247 31.9742 4.33552 31.5532C10.6359 33.5833 15.5023 39.2283 16.7336 46.4647Z" fill="#FCA916"/>
<path d="M38.8652 18.2201L41.4459 7.97607L42.5407 18.2201H38.8652Z" fill="#FCA916"/>
<path d="M129.26 13.5874C129.26 11.4695 127.59 10.1255 125.634 10.1255C123.68 10.1255 122.01 11.4695 122.01 13.5874C122.01 15.6645 123.68 17.0086 125.634 17.0086C127.59 17.0086 129.26 15.6645 129.26 13.5874Z" fill="#FCA916"/>
<path d="M128.811 19.5109C128.811 19.1594 128.527 18.8745 128.174 18.8745H123.053C122.702 18.8745 122.417 19.1594 122.417 19.5109V36.5659C122.417 36.9174 122.702 37.2023 123.053 37.2023H128.174C128.527 37.2023 128.811 36.9174 128.811 36.5659V19.5109Z" fill="#FCA916"/>
<path d="M66.5441 18.9777C66.5441 18.8636 66.4834 18.7568 66.3773 18.7145C66.0433 18.5816 65.4752 18.4673 64.7928 18.4673C62.96 18.4673 61.5346 19.2819 60.6385 20.5037V18.8745H54.8805C54.529 18.8745 54.2441 19.1594 54.2441 19.5109V36.5659C54.2441 36.9174 54.529 37.2023 54.8805 37.2023H60.0021C60.3536 37.2023 60.6385 36.9174 60.6385 36.5659V26.4499C60.9644 25.1468 62.1454 24.3728 63.8968 24.3728C64.7092 24.3728 65.418 24.4765 66.0643 24.7255C66.2879 24.8114 66.5441 24.6555 66.5441 24.416V18.9777Z" fill="#FCA916"/>
<path d="M87.0733 19.5109C87.0733 19.1594 86.7884 18.8745 86.4369 18.8745H81.3153C80.9638 18.8745 80.6789 19.1594 80.6789 19.5109V29.9933C80.353 31.2559 79.2535 32.0297 78.0723 32.0297C76.4431 32.0297 75.7101 30.93 75.7101 29.3824V19.5109C75.7101 19.1594 75.4252 18.8745 75.0737 18.8745H69.9928C69.6413 18.8745 69.3564 19.1594 69.3564 19.5109V30.8894C69.3564 34.9622 71.7594 37.6095 75.7916 37.6095C77.8687 37.6095 79.7015 36.7542 80.6789 35.6139V36.5659C80.6789 36.9174 80.9638 37.2023 81.3153 37.2023H86.4369C86.7884 37.2023 87.0733 36.9174 87.0733 36.5659V19.5109Z" fill="#FCA916"/>
<path d="M101.916 18.4673C104.237 18.4673 105.866 19.3632 106.966 20.6665C108.065 19.5262 109.94 18.4673 112.627 18.4673C116.456 18.4673 118.818 21.0739 118.818 25.1874V36.5659C118.818 36.9174 118.533 37.2023 118.181 37.2023H113.06C112.709 37.2023 112.424 36.9174 112.424 36.5659V26.7352C112.424 25.1874 111.772 24.0878 110.346 24.0878C109.247 24.0878 108.31 24.7802 107.984 26.0427V36.5659C107.984 36.9174 107.699 37.2023 107.348 37.2023H102.267C101.915 37.2023 101.631 36.9174 101.631 36.5659V26.7352C101.631 25.1874 100.979 24.0878 99.5535 24.0878C98.4538 24.0878 97.4763 24.7802 97.1912 26.0427V36.5659C97.1912 36.9174 96.9063 37.2023 96.5549 37.2023H91.4333C91.0819 37.2023 90.7969 36.9174 90.7969 36.5659V19.5109C90.7969 19.1594 91.0819 18.8745 91.4333 18.8745H96.5549C96.9063 18.8745 97.1912 19.1594 97.1912 19.5109V20.3815C98.1279 19.2411 99.8793 18.4673 101.916 18.4673Z" fill="#FCA916"/>
<path fill-rule="evenodd" clip-rule="evenodd" d="M143.56 31.0346C143.61 30.9022 143.734 30.8079 143.875 30.8079H149.171C149.366 30.8079 149.515 30.9821 149.479 31.1736C148.704 35.1909 145.574 37.6095 140.948 37.6095C135.327 37.6095 131.621 33.7404 131.621 28.0383C131.621 22.3772 135.531 18.4673 140.825 18.4673C146.447 18.4673 149.623 22.2143 149.623 27.6719V28.6239C149.623 28.9754 149.338 29.2603 148.987 29.2603H137.771C137.974 31.4595 139.115 32.6407 140.948 32.6407C142.17 32.6407 143.142 32.139 143.56 31.0346ZM143.433 26.0835C143.351 24.5765 142.414 23.4361 140.825 23.4361C139.319 23.4361 138.301 24.3728 137.893 26.0835H143.433Z" fill="#FCA916"/>
</g>
<defs>
<clipPath id="clip0_358_2965">
<rect width="150" height="51.0638" fill="white"/>
</clipPath>
</defs>
</svg>
