<?xml version="1.0" standalone="no"?>
<!DOCTYPE svg PUBLIC "-//W3C//DTD SVG 20010904//EN"
 "http://www.w3.org/TR/2001/REC-SVG-20010904/DTD/svg10.dtd">
<svg version="1.0" xmlns="http://www.w3.org/2000/svg"
 width="220.000000pt" height="220.000000pt" viewBox="0 0 220.000000 220.000000"
 preserveAspectRatio="xMidYMid meet">
<metadata>
Created by potrace 1.14, written by Peter Selinger 2001-2017
</metadata>
<g transform="translate(0.000000,220.000000) scale(0.100000,-0.100000)"
fill="#000000" stroke="none">
<path d="M423 2183 c-45 -21 -82 -61 -104 -108 -18 -38 -18 -87 -16 -985 2
-903 3 -947 21 -979 23 -43 50 -67 103 -92 40 -19 67 -19 677 -19 477 0 642 4
664 13 46 20 91 63 112 109 19 42 19 74 20 980 l0 936 -28 53 c-22 43 -38 59
-81 81 l-54 28 -641 0 c-562 -1 -645 -3 -673 -17z m1129 -532 c87 -42 148
-140 148 -236 0 -98 -65 -200 -154 -241 -49 -23 -51 -23 -455 -21 -399 2 -407
3 -446 24 -59 33 -81 55 -109 107 -81 153 -6 341 152 381 29 8 175 11 430 11
383 -1 387 -2 434 -25z"/>
<path d="M805 1543 c-39 -10 -84 -53 -96 -92 -15 -51 -5 -87 35 -127 118 -118
322 40 216 168 -39 47 -95 65 -155 51z"/>
<path d="M1303 1539 c-35 -10 -80 -58 -89 -95 -22 -87 56 -167 154 -160 50 4
86 26 112 69 64 104 -51 224 -177 186z"/>
</g>
</svg>
