<svg width="260" height="36" viewBox="0 0 260 36" fill="none" xmlns="http://www.w3.org/2000/svg">
<path d="M9.94231 22.817L14.1538 21.7497L15.9135 27.1728L9.94231 22.817ZM19.6346 15.8074H12.2212L9.94231 8.82666L7.66346 15.8074H0.25L6.25 20.1344L3.97115 27.1151L9.97116 22.7882L13.6635 20.1344L19.6346 15.8074Z" fill="#F7F3FF"/>
<path d="M31.5081 12.1875V24H29.0823V12.1875H31.5081ZM35.1427 12.1875V14.0941H25.5045V12.1875H35.1427ZM38.1526 17.1364V24H35.8161V15.2218H38.0147L38.1526 17.1364ZM40.7975 15.165L40.7569 17.3311C40.6433 17.3149 40.5054 17.3014 40.3431 17.2906C40.1863 17.2743 40.043 17.2662 39.9132 17.2662C39.5832 17.2662 39.2966 17.3095 39.0532 17.396C38.8152 17.4772 38.6151 17.5989 38.4528 17.7611C38.296 17.9234 38.177 18.1208 38.0959 18.3534C38.0201 18.5859 37.9769 18.851 37.966 19.1484L37.4955 19.0024C37.4955 18.4345 37.5523 17.9126 37.6659 17.4366C37.7794 16.9552 37.9444 16.5361 38.1608 16.1791C38.3825 15.8221 38.6529 15.5463 38.9721 15.3516C39.2912 15.1569 39.6563 15.0595 40.0673 15.0595C40.1971 15.0595 40.3296 15.0703 40.4648 15.0919C40.6001 15.1082 40.7109 15.1325 40.7975 15.165ZM47.0932 21.8987V15.2218H49.4297V24H47.2311L47.0932 21.8987ZM47.3528 20.0977L48.0424 20.0814C48.0424 20.6656 47.9748 21.2091 47.8395 21.7121C47.7043 22.2097 47.5015 22.6424 47.2311 23.0102C46.9606 23.3726 46.6199 23.6566 46.2088 23.8621C45.7978 24.0622 45.3137 24.1623 44.7566 24.1623C44.3293 24.1623 43.9345 24.1028 43.5721 23.9838C43.2151 23.8594 42.9069 23.6674 42.6472 23.4078C42.393 23.1427 42.1929 22.8047 42.0469 22.3936C41.9063 21.9772 41.8359 21.4769 41.8359 20.8927V15.2218H44.1725V20.909C44.1725 21.1686 44.2022 21.3876 44.2617 21.5661C44.3266 21.7446 44.4159 21.8906 44.5294 22.0042C44.643 22.1178 44.7755 22.1989 44.927 22.2476C45.0838 22.2963 45.2569 22.3206 45.4462 22.3206C45.9276 22.3206 46.3062 22.2233 46.582 22.0285C46.8633 21.8338 47.0607 21.5688 47.1743 21.2335C47.2933 20.8927 47.3528 20.5141 47.3528 20.0977ZM55.9606 21.5742C55.9606 21.4066 55.912 21.2551 55.8146 21.1199C55.7172 20.9847 55.5361 20.8603 55.271 20.7467C55.0114 20.6277 54.6355 20.5195 54.1433 20.4222C53.6998 20.3248 53.2861 20.2031 52.902 20.0571C52.5234 19.9056 52.1935 19.7245 51.9123 19.5135C51.6364 19.3026 51.4201 19.0538 51.2632 18.7671C51.1064 18.4751 51.0279 18.1424 51.0279 17.7692C51.0279 17.4014 51.1064 17.0553 51.2632 16.7308C51.4255 16.4062 51.6554 16.1196 51.9528 15.8708C52.2557 15.6166 52.6235 15.4192 53.0562 15.2785C53.4943 15.1325 53.9865 15.0595 54.5328 15.0595C55.2954 15.0595 55.9498 15.1812 56.4961 15.4246C57.0478 15.668 57.4697 16.0033 57.7617 16.4306C58.0592 16.8525 58.2079 17.3338 58.2079 17.8747H55.8714C55.8714 17.6475 55.8227 17.4447 55.7254 17.2662C55.6334 17.0823 55.4874 16.939 55.2873 16.8362C55.0925 16.7281 54.8383 16.674 54.5246 16.674C54.265 16.674 54.0406 16.72 53.8513 16.8119C53.662 16.8984 53.5159 17.0174 53.4132 17.1689C53.3158 17.3149 53.2671 17.4772 53.2671 17.6556C53.2671 17.7909 53.2942 17.9126 53.3483 18.0207C53.4078 18.1235 53.5024 18.2181 53.6322 18.3047C53.762 18.3912 53.9297 18.4724 54.1352 18.5481C54.3462 18.6184 54.6058 18.6833 54.9141 18.7428C55.5469 18.8726 56.1121 19.043 56.6097 19.2539C57.1073 19.4594 57.5021 19.7407 57.7942 20.0977C58.0862 20.4492 58.2323 20.9117 58.2323 21.485C58.2323 21.8744 58.1457 22.2314 57.9727 22.5559C57.7996 22.8804 57.5508 23.1644 57.2263 23.4078C56.9017 23.6457 56.5123 23.8323 56.058 23.9675C55.6091 24.0974 55.1034 24.1623 54.5409 24.1623C53.7242 24.1623 53.0319 24.0162 52.4639 23.7242C51.9014 23.4321 51.4742 23.0616 51.1821 22.6127C50.8954 22.1584 50.7521 21.6932 50.7521 21.2172H52.9669C52.9778 21.5364 53.0589 21.7933 53.2103 21.988C53.3672 22.1827 53.5646 22.3233 53.8026 22.4099C54.046 22.4964 54.3083 22.5397 54.5895 22.5397C54.8924 22.5397 55.1439 22.4991 55.3441 22.418C55.5442 22.3314 55.6956 22.2178 55.7984 22.0772C55.9066 21.9312 55.9606 21.7635 55.9606 21.5742ZM64.0493 15.2218V16.8768H58.9381V15.2218H64.0493ZM60.2037 13.0556H62.5403V21.3552C62.5403 21.6094 62.5727 21.8041 62.6376 21.9393C62.7079 22.0745 62.8107 22.1692 62.9459 22.2233C63.0811 22.2719 63.2515 22.2963 63.457 22.2963C63.6031 22.2963 63.7329 22.2909 63.8465 22.28C63.9654 22.2638 64.0655 22.2476 64.1466 22.2314L64.1548 23.9513C63.9546 24.0162 63.7383 24.0676 63.5057 24.1055C63.2731 24.1433 63.0162 24.1623 62.735 24.1623C62.2212 24.1623 61.7722 24.0784 61.3882 23.9108C61.0096 23.7377 60.7176 23.4618 60.512 23.0832C60.3065 22.7046 60.2037 22.207 60.2037 21.5904V13.0556ZM67.7163 16.9093V27.375H65.3798V15.2218H67.546L67.7163 16.9093ZM73.2737 19.5135V19.6839C73.2737 20.3221 73.198 20.9144 73.0466 21.4606C72.9005 22.0069 72.6842 22.4829 72.3975 22.8885C72.1109 23.2888 71.7539 23.6025 71.3266 23.8296C70.9048 24.0514 70.418 24.1623 69.8663 24.1623C69.3308 24.1623 68.8657 24.0541 68.4709 23.8377C68.076 23.6214 67.7434 23.3185 67.473 22.9291C67.2079 22.5343 66.9943 22.0772 66.832 21.558C66.6698 21.0388 66.5454 20.4817 66.4588 19.8867V19.4405C66.5454 18.8023 66.6698 18.2181 66.832 17.6881C66.9943 17.1526 67.2079 16.6902 67.473 16.3008C67.7434 15.9059 68.0733 15.6004 68.4627 15.384C68.8576 15.1677 69.32 15.0595 69.8501 15.0595C70.4072 15.0595 70.8966 15.165 71.3185 15.3759C71.7458 15.5868 72.1028 15.8897 72.3894 16.2846C72.6815 16.6794 72.9005 17.1499 73.0466 17.6962C73.198 18.2425 73.2737 18.8483 73.2737 19.5135ZM70.9291 19.6839V19.5135C70.9291 19.1403 70.8966 18.7969 70.8317 18.4832C70.7722 18.1641 70.6749 17.8855 70.5397 17.6475C70.4099 17.4096 70.2368 17.2257 70.0204 17.0959C69.8095 16.9606 69.5526 16.893 69.2497 16.893C68.9306 16.893 68.6575 16.9444 68.4303 17.0472C68.2085 17.1499 68.0273 17.2987 67.8867 17.4934C67.7461 17.6881 67.6406 17.9207 67.5703 18.1911C67.5 18.4615 67.4567 18.7671 67.4405 19.1079V20.2356C67.4676 20.6358 67.5433 20.9955 67.6677 21.3146C67.7921 21.6283 67.9841 21.8771 68.2437 22.061C68.5033 22.2449 68.8441 22.3368 69.2659 22.3368C69.5742 22.3368 69.8338 22.2692 70.0448 22.134C70.2557 21.9934 70.4261 21.8014 70.5559 21.558C70.6911 21.3146 70.7858 21.0334 70.8398 20.7142C70.8993 20.3951 70.9291 20.0517 70.9291 19.6839ZM77.1923 15.2218V24H74.8477V15.2218H77.1923ZM74.7016 12.9339C74.7016 12.5931 74.8206 12.3119 75.0586 12.0901C75.2966 11.8684 75.6157 11.7575 76.0159 11.7575C76.4108 11.7575 76.7272 11.8684 76.9651 12.0901C77.2085 12.3119 77.3302 12.5931 77.3302 12.9339C77.3302 13.2746 77.2085 13.5559 76.9651 13.7776C76.7272 13.9994 76.4108 14.1103 76.0159 14.1103C75.6157 14.1103 75.2966 13.9994 75.0586 13.7776C74.8206 13.5559 74.7016 13.2746 74.7016 12.9339ZM81.5895 11.5385V24H79.2449V11.5385H81.5895ZM83.1472 19.7001V19.5297C83.1472 18.8861 83.2392 18.2939 83.4231 17.753C83.607 17.2067 83.8747 16.7335 84.2263 16.3332C84.5778 15.933 85.0105 15.622 85.5243 15.4002C86.0382 15.1731 86.6277 15.0595 87.293 15.0595C87.9582 15.0595 88.5505 15.1731 89.0697 15.4002C89.5889 15.622 90.0243 15.933 90.3759 16.3332C90.7329 16.7335 91.0033 17.2067 91.1872 17.753C91.3711 18.2939 91.463 18.8861 91.463 19.5297V19.7001C91.463 20.3383 91.3711 20.9306 91.1872 21.4769C91.0033 22.0177 90.7329 22.491 90.3759 22.8966C90.0243 23.2969 89.5917 23.6079 89.0778 23.8296C88.564 24.0514 87.9745 24.1623 87.3092 24.1623C86.6439 24.1623 86.0517 24.0514 85.5325 23.8296C85.0186 23.6079 84.5832 23.2969 84.2263 22.8966C83.8747 22.491 83.607 22.0177 83.4231 21.4769C83.2392 20.9306 83.1472 20.3383 83.1472 19.7001ZM85.4838 19.5297V19.7001C85.4838 20.0679 85.5162 20.4114 85.5811 20.7305C85.646 21.0496 85.7488 21.3308 85.8894 21.5742C86.0355 21.8122 86.2248 21.9988 86.4573 22.134C86.6899 22.2692 86.9739 22.3368 87.3092 22.3368C87.6337 22.3368 87.9123 22.2692 88.1448 22.134C88.3774 21.9988 88.564 21.8122 88.7046 21.5742C88.8453 21.3308 88.948 21.0496 89.0129 20.7305C89.0832 20.4114 89.1184 20.0679 89.1184 19.7001V19.5297C89.1184 19.1728 89.0832 18.8374 89.0129 18.5237C88.948 18.2046 88.8426 17.9234 88.6965 17.68C88.5559 17.4312 88.3693 17.2365 88.1367 17.0959C87.9042 16.9552 87.6229 16.8849 87.293 16.8849C86.963 16.8849 86.6818 16.9552 86.4492 17.0959C86.2221 17.2365 86.0355 17.4312 85.8894 17.68C85.7488 17.9234 85.646 18.2046 85.5811 18.5237C85.5162 18.8374 85.4838 19.1728 85.4838 19.5297ZM97.1989 15.2218V16.8768H92.0877V15.2218H97.1989ZM93.3534 13.0556H95.6899V21.3552C95.6899 21.6094 95.7224 21.8041 95.7873 21.9393C95.8576 22.0745 95.9603 22.1692 96.0956 22.2233C96.2308 22.2719 96.4011 22.2963 96.6067 22.2963C96.7527 22.2963 96.8825 22.2909 96.9961 22.28C97.1151 22.2638 97.2151 22.2476 97.2963 22.2314L97.3044 23.9513C97.1043 24.0162 96.8879 24.0676 96.6554 24.1055C96.4228 24.1433 96.1659 24.1623 95.8846 24.1623C95.3708 24.1623 94.9219 24.0784 94.5379 23.9108C94.1593 23.7377 93.8672 23.4618 93.6617 23.0832C93.4561 22.7046 93.3534 22.207 93.3534 21.5904V13.0556Z" fill="#F7F3FF"/>
<path d="M137.924 31.875H110.174V4.125H137.924V31.875ZM123.903 23.0029L129.874 27.6055L128.115 21.876L123.903 23.0029ZM121.624 15.5967H114.211L120.211 20.1689L117.932 27.5449L123.932 22.9727L127.624 20.1689L133.596 15.5967H126.182L123.903 8.2207L121.624 15.5967Z" fill="#F7F3FF"/>
<path d="M168.443 31.875H140.693V4.125H168.443V31.875ZM154.423 23.0029L160.394 27.6055L158.635 21.876L154.423 23.0029ZM152.144 15.5967H144.73L150.73 20.1689L148.451 27.5449L154.451 22.9727L158.144 20.1689L164.115 15.5967H156.701L154.423 8.2207L152.144 15.5967Z" fill="#F7F3FF"/>
<path d="M198.963 31.875H171.213V4.125H198.963V31.875ZM184.942 23.0029L190.913 27.6055L189.154 21.876L184.942 23.0029ZM182.663 15.5967H175.25L181.25 20.1689L178.971 27.5449L184.971 22.9727L188.663 20.1689L194.635 15.5967H187.221L184.942 8.2207L182.663 15.5967Z" fill="#F7F3FF"/>
<path d="M229.482 31.875H201.732V4.125H229.482V31.875ZM215.462 23.0029L221.433 27.6055L219.674 21.876L215.462 23.0029ZM213.183 15.5967H205.77L211.77 20.1689L209.49 27.5449L215.49 22.9727L219.183 20.1689L225.154 15.5967H217.74L215.462 8.2207L213.183 15.5967Z" fill="#F7F3FF"/>
<path d="M260 31.875H232.25V4.125H260V31.875ZM245.979 23.0029L251.95 27.6055L250.191 21.876L245.979 23.0029ZM243.7 15.5967H236.287L242.287 20.1689L240.008 27.5449L246.008 22.9727L249.7 20.1689L255.672 15.5967H248.258L245.979 8.2207L243.7 15.5967Z" fill="url(#paint0_linear_166_7757)"/>
<defs>
<linearGradient id="paint0_linear_166_7757" x1="232.25" y1="18" x2="260" y2="18" gradientUnits="userSpaceOnUse">
<stop stop-color="#F7F3FF"/>
<stop offset="0.5" stop-color="#F7F3FF"/>
<stop offset="0.5001" stop-color="#219653" stop-opacity="0"/>
<stop offset="0.5002" stop-color="#D5D5D5" stop-opacity="0.5"/>
<stop offset="0.9998" stop-color="#D5D5D5" stop-opacity="0.5"/>
</linearGradient>
</defs>
</svg>
