<svg width="133" height="56" viewBox="0 0 133 56" fill="none" xmlns="http://www.w3.org/2000/svg">
<g clip-path="url(#clip0_1627_3848)">
<path d="M14.5175 25.265L23.1302 1.7251H16.9246L11.6967 16.9456L6.46894 1.7251H0L8.61272 25.265H14.5175Z" fill="white"/>
<path d="M40.0429 8.0127H34.1381V18.4791C33.8373 19.6676 32.8218 20.3961 31.7311 20.3961C30.2268 20.3961 29.5498 19.3609 29.5498 17.9041V8.0127H23.6826V19.3226C23.6826 23.1564 25.9015 25.6485 29.625 25.6485C31.5431 25.6485 33.2356 24.8434 34.1381 23.7698V25.265H40.0429V8.0127Z" fill="white"/>
<path d="M53.3792 19.2461C53.0408 20.4346 52.1005 20.9712 50.897 20.9712C49.2045 20.9712 48.1514 19.8594 47.9634 17.7891H58.908V16.2939C58.908 11.1565 55.9744 7.62939 50.7842 7.62939C45.8949 7.62939 42.2842 11.3099 42.2842 16.639C42.2842 22.0064 45.7067 25.6486 50.897 25.6486C55.2973 25.6486 58.2309 23.2333 58.8327 19.2461H53.3792ZM50.7842 12.3067C52.2509 12.3067 53.116 13.3802 53.1912 14.7987H48.0762C48.4523 13.1885 49.3925 12.3067 50.7842 12.3067Z" fill="white"/>
<path d="M60.3955 13.4952C60.3955 20.6262 65.0214 25.6486 71.4904 25.6486C77.2448 25.6486 80.6297 22.1596 81.4571 17.3291H75.4395C74.8377 19.0926 73.5966 20.2428 71.4904 20.2428C68.2936 20.2428 66.4883 17.3291 66.4883 13.4952C66.4883 9.62295 68.2936 6.74754 71.4904 6.74754C73.5966 6.74754 74.8377 7.8977 75.4395 9.62295H81.4571C80.6297 4.83062 77.2448 1.3418 71.4904 1.3418C65.0214 1.3418 60.3955 6.36417 60.3955 13.4952Z" fill="white"/>
<path d="M100.244 16.639C100.244 11.3099 96.7462 7.62939 91.5938 7.62939C86.4787 7.62939 82.9434 11.3099 82.9434 16.639C82.9434 21.968 86.4787 25.6486 91.5938 25.6486C96.7462 25.6486 100.244 21.968 100.244 16.639ZM94.452 16.639C94.452 19.016 93.4366 20.6645 91.5938 20.6645C89.7883 20.6645 88.773 19.016 88.773 16.639C88.773 14.262 89.7883 12.5751 91.5938 12.5751C93.4366 12.5751 94.452 14.262 94.452 16.639Z" fill="white"/>
<path d="M102.541 25.2651H108.446V14.8371C108.747 13.6486 109.725 12.9585 110.89 12.9585C112.395 12.9585 113.109 13.9936 113.109 15.4121V25.2651H118.977V13.9553C118.977 10.1214 116.758 7.62939 112.997 7.62939C111.041 7.62939 109.386 8.43451 108.446 9.50799V8.01279H102.541V25.2651Z" fill="white"/>
<path d="M132.8 0.460066C132.086 0.191693 131.183 0 130.055 0C125.918 0 123.473 2.60702 123.473 6.7476V8.01278H120.953V12.6901H123.473V25.2651H129.303V12.6901H132.575V8.01278H129.303V7.09266C129.303 5.71246 130.092 5.02237 131.409 5.02237C131.935 5.02237 132.387 5.13738 132.8 5.36741V0.460066Z" fill="white"/>
<path d="M2.05566 37.3674H9.16398V55.6167H15.2192V37.3674H22.3651V32.0767H2.05566V37.3674Z" fill="white"/>
<path d="M38.784 46.9906C38.784 41.6614 35.2864 37.981 30.1338 37.981C25.0188 37.981 21.4834 41.6614 21.4834 46.9906C21.4834 52.3197 25.0188 56.0002 30.1338 56.0002C35.2864 56.0002 38.784 52.3197 38.784 46.9906ZM32.9922 46.9906C32.9922 49.3675 31.9767 51.0162 30.1338 51.0162C28.3285 51.0162 27.313 49.3675 27.313 46.9906C27.313 44.6136 28.3285 42.9267 30.1338 42.9267C31.9767 42.9267 32.9922 44.6136 32.9922 46.9906Z" fill="white"/>
<path d="M52.4393 38.2877C52.1761 38.1344 51.5743 37.981 50.822 37.981C49.1295 37.981 47.8132 38.7478 46.9859 39.8979V38.3643H41.0811V55.6168H46.9859V45.4954C47.2867 44.2685 48.3774 43.5402 49.9947 43.5402C50.935 43.5402 51.7247 43.6934 52.4393 44.0768V38.2877Z" fill="white"/>
<path d="M70.9951 46.9906C70.9951 41.6614 67.4974 37.981 62.3447 37.981C57.2297 37.981 53.6943 41.6614 53.6943 46.9906C53.6943 52.3197 57.2297 56.0002 62.3447 56.0002C67.4974 56.0002 70.9951 52.3197 70.9951 46.9906ZM65.2031 46.9906C65.2031 49.3675 64.1876 51.0162 62.3447 51.0162C60.5395 51.0162 59.5239 49.3675 59.5239 46.9906C59.5239 44.6136 60.5395 42.9267 62.3447 42.9267C64.1876 42.9267 65.2031 44.6136 65.2031 46.9906Z" fill="white"/>
<path d="M73.292 55.6168H79.1968V45.1886C79.4976 44.0002 80.4755 43.3101 81.6414 43.3101C83.1459 43.3101 83.8605 44.3453 83.8605 45.7637V55.6168H89.7277V44.3069C89.7277 40.473 87.5086 37.981 83.7477 37.981C81.7918 37.981 80.1369 38.7861 79.1968 39.8595V38.3643H73.292V55.6168Z" fill="white"/>
<path d="M94.036 49.6742C94.036 54.0449 96.2926 55.9617 100.279 55.9617C101.596 55.9617 102.874 55.7318 103.551 55.4251V50.326C103.025 50.5559 102.31 50.7094 101.671 50.7094C100.505 50.7094 99.8656 50.1343 99.8656 48.7924V43.0417H103.401V38.3643H99.8656V33.6104H94.036V38.3643H91.5537V43.0417H94.036V49.6742Z" fill="white"/>
<path d="M122.599 46.9906C122.599 41.6614 119.102 37.981 113.949 37.981C108.834 37.981 105.299 41.6614 105.299 46.9906C105.299 52.3197 108.834 56.0002 113.949 56.0002C119.102 56.0002 122.599 52.3197 122.599 46.9906ZM116.807 46.9906C116.807 49.3675 115.792 51.0162 113.949 51.0162C112.144 51.0162 111.128 49.3675 111.128 46.9906C111.128 44.6136 112.144 42.9267 113.949 42.9267C115.792 42.9267 116.807 44.6136 116.807 46.9906Z" fill="white"/>
</g>
<defs>
<clipPath id="clip0_1627_3848">
<rect width="132.8" height="56" fill="white"/>
</clipPath>
</defs>
</svg>
