<svg width="32" height="32" viewBox="0 0 32 32" fill="none" xmlns="http://www.w3.org/2000/svg">
<path d="M20 10.6667H20.0133M13.3333 28H8C6.93913 28 5.92172 27.5786 5.17157 26.8284C4.42143 26.0783 4 25.0609 4 24V8C4 6.93913 4.42143 5.92172 5.17157 5.17157C5.92172 4.42143 6.93913 4 8 4H24C25.0609 4 26.0783 4.42143 26.8284 5.17157C27.5786 5.92172 28 6.93913 28 8V14.6667" stroke="#A3A3A3" stroke-width="2.33333" stroke-linecap="round" stroke-linejoin="round"/>
<path d="M18.668 28V22.6667C18.668 21.9594 18.9489 21.2811 19.449 20.781C19.9491 20.281 20.6274 20 21.3346 20C22.0419 20 22.7202 20.281 23.2203 20.781C23.7204 21.2811 24.0013 21.9594 24.0013 22.6667V28M18.668 25.3333H24.0013M28.0013 20V28" stroke="#A3A3A3" stroke-width="2.33333" stroke-linecap="round" stroke-linejoin="round"/>
</svg>
