<svg width="33" height="32" viewBox="0 0 33 32" fill="none" xmlns="http://www.w3.org/2000/svg">
<g clip-path="url(#clip0_6471_13992)">
<path d="M23.168 5.33594C23.8407 5.33572 24.4887 5.58981 24.982 6.04727C25.4753 6.50472 25.7775 7.13173 25.828 7.8026L25.8346 8.0026V10.6693H27.168C27.8407 10.6691 28.4887 10.9231 28.982 11.3806C29.4753 11.8381 29.7775 12.4651 29.828 13.1359L29.8346 13.3359V25.3359C29.8348 26.0087 29.5808 26.6567 29.1233 27.15C28.6659 27.6433 28.0388 27.9455 27.368 27.9959L27.168 28.0026H21.8346C21.4024 28.0027 20.9766 27.8977 20.594 27.6965C20.2114 27.4954 19.8835 27.2041 19.6386 26.8479L19.5253 26.6693H5.83464C5.16187 26.6695 4.51388 26.4154 4.02057 25.9579C3.52726 25.5005 3.22509 24.8735 3.17464 24.2026L3.16797 24.0026V8.0026C3.16776 7.32984 3.42184 6.68185 3.8793 6.18854C4.33675 5.69523 4.96376 5.39306 5.63464 5.3426L5.83464 5.33594H23.168ZM27.168 13.3359H21.8346V25.3359H27.168V13.3359ZM23.168 8.0026H5.83464V24.0026H19.168V13.3359C19.168 12.6287 19.4489 11.9504 19.949 11.4503C20.4491 10.9502 21.1274 10.6693 21.8346 10.6693H23.168V8.0026Z" fill="#A3A3A3"/>
</g>
<defs>
<clipPath id="clip0_6471_13992">
<rect width="32" height="32" fill="white" transform="translate(0.5)"/>
</clipPath>
</defs>
</svg>
