<svg width="245" height="201" viewBox="0 0 245 201" fill="none" xmlns="http://www.w3.org/2000/svg">
<g clip-path="url(#clip0_5828_3820)">
<path d="M0.832031 -0.249717C0.832031 -4.16332 3.85828 -7.33594 7.59134 -7.33594H237.408C241.141 -7.33594 244.167 -4.16333 244.167 -0.249717V193.913C244.167 197.826 241.141 200.999 237.408 200.999H7.59134C3.85828 200.999 0.832031 197.826 0.832031 193.913V-0.249717Z" fill="white"/>
<path d="M29.165 19.227C29.165 12.8388 34.3437 7.66016 40.7319 7.66016H55.9318C62.32 7.66016 67.4987 12.8388 67.4987 19.227V34.4269C67.4987 40.815 62.32 45.9938 55.9318 45.9938H40.7319C34.3437 45.9938 29.165 40.815 29.165 34.4269V19.227Z" fill="#4A8CFF"/>
<path d="M53.3088 24.9251L57.6116 21.7806C57.9873 21.4746 58.2737 21.5457 58.2737 22.1117V31.7005C58.2737 32.3361 57.9161 32.2632 57.6116 32.0314L53.3088 28.8872V24.9251ZM38.7451 22.1349V29.2843C38.7534 30.9005 40.0697 32.2044 41.686 32.197H52.1122C52.4058 32.1979 52.645 31.961 52.6467 31.6674V24.5179C52.6386 22.9018 51.3222 21.5979 49.7058 21.6053H39.2796C38.986 21.6044 38.7469 21.8412 38.7451 22.1349Z" fill="white"/>
<path d="M192.582 154.332H208.696L223.849 180.458H207.7L192.582 154.332Z" fill="url(#paint0_linear_5828_3820)"/>
<path d="M223.847 180.469L215.772 194.428H185.537L193.63 180.469H223.847Z" fill="url(#paint1_linear_5828_3820)"/>
<path d="M185.539 194.417L177.501 180.458L192.582 154.332L200.675 168.328L185.539 194.417Z" fill="url(#paint2_linear_5828_3820)"/>
<path opacity="0.1" d="M185.537 194.417L200.583 180.458H193.63L185.537 194.417ZM223.847 180.458H207.715L204.167 174.338L223.847 180.458ZM192.58 154.332L197.233 174.248L200.672 168.328L192.58 154.332Z" fill="black"/>
<path d="M43.1833 167.218C44.498 168.493 43.5692 170.677 41.7009 170.677H30.0131C27.7063 170.677 25.8301 168.858 25.8301 166.622V155.291C25.8301 153.481 28.0841 152.58 29.3988 153.855L43.1833 167.218Z" fill="#0A1551"/>
<path d="M61.4556 168.032C57.9966 164.595 57.9966 159.022 61.4556 155.584L73.9427 143.179C77.4031 139.742 83.0118 139.742 86.4721 143.179C89.9325 146.617 89.9325 152.19 86.4721 155.626L73.985 168.032C70.526 171.47 64.9159 171.47 61.4556 168.032Z" fill="#FFB21D"/>
<path d="M28.4644 136.85C25.0054 133.412 25.0054 127.839 28.4644 124.401L49.4154 103.575C52.8744 100.137 58.4844 100.137 61.9435 103.575C65.4038 107.011 65.4038 112.584 61.9435 116.022L40.9938 136.85C37.5334 140.287 31.9247 140.287 28.4644 136.85Z" fill="#0099FF"/>
<path d="M45.647 151.737C42.188 148.3 42.188 142.727 45.647 139.29L74.0406 111.081C77.501 107.645 83.1097 107.645 86.57 111.081C90.029 114.519 90.029 120.092 86.57 123.529L58.1764 151.737C54.7174 155.175 49.1074 155.175 45.647 151.737Z" fill="#FF6100"/>
<path d="M178.232 80.716C180.226 78.6384 183.002 77.3497 186.072 77.3497C190.154 77.3497 193.714 79.6256 195.611 83.0041C197.259 82.2679 199.083 81.8583 201.002 81.8583C208.363 81.8583 214.331 87.8783 214.331 95.3038C214.331 102.73 208.363 108.75 201.002 108.75C200.12 108.751 199.24 108.663 198.377 108.489C196.707 111.467 193.525 113.48 189.872 113.48C188.343 113.48 186.897 113.127 185.609 112.499C183.917 116.481 179.972 119.272 175.376 119.272C170.589 119.272 166.509 116.244 164.943 111.996C164.259 112.141 163.55 112.217 162.823 112.217C157.123 112.217 152.503 107.549 152.503 101.79C152.503 97.9303 154.579 94.5605 157.663 92.7576C157.028 91.2965 156.675 89.6838 156.675 87.9882C156.675 81.3651 162.052 75.9961 168.684 75.9961C172.577 75.9961 176.039 77.8474 178.232 80.716Z" fill="#00A1E0"/>
<path fill-rule="evenodd" clip-rule="evenodd" d="M188.993 91.1463C189.129 91.1719 189.233 91.1957 189.348 91.2309C189.372 91.2406 189.442 91.2749 189.414 91.3561L189.14 92.1082C189.117 92.1646 189.101 92.1989 188.984 92.1637C188.954 92.1549 188.911 92.1426 188.8 92.1187C188.72 92.1019 188.614 92.0897 188.507 92.0897C188.365 92.0897 188.235 92.1072 188.121 92.1443C188.011 92.1805 187.909 92.243 187.821 92.331C187.732 92.4209 187.626 92.5522 187.57 92.7133C187.459 93.0334 187.405 93.3704 187.387 93.4835C187.383 93.5044 187.381 93.5178 187.38 93.5218H188.526C188.623 93.5218 188.652 93.5659 188.643 93.6371L188.51 94.3823C188.49 94.4906 188.39 94.487 188.39 94.487H187.21L186.402 99.0555C186.317 99.5275 186.211 99.9327 186.087 100.259C185.962 100.589 185.831 100.83 185.622 101.061C185.428 101.274 185.209 101.432 184.959 101.522C184.71 101.612 184.409 101.659 184.079 101.659C183.922 101.659 183.754 101.656 183.555 101.61C183.411 101.575 183.333 101.551 183.227 101.514C183.182 101.497 183.147 101.441 183.171 101.37C183.197 101.299 183.409 100.718 183.438 100.642C183.475 100.549 183.567 100.584 183.567 100.584C183.632 100.612 183.676 100.63 183.761 100.647C183.846 100.665 183.961 100.679 184.048 100.679C184.204 100.679 184.347 100.659 184.469 100.618C184.62 100.568 184.705 100.481 184.798 100.365C184.893 100.244 184.969 100.077 185.048 99.8552C185.128 99.6298 185.199 99.3329 185.262 98.9718L186.066 94.487H185.274C185.179 94.487 185.149 94.4422 185.158 94.3716L185.29 93.6257C185.312 93.5182 185.411 93.5218 185.411 93.5218H186.224L186.269 93.2795C186.39 92.56 186.632 92.013 186.989 91.6536C187.348 91.2926 187.858 91.1094 188.507 91.1094C188.692 91.1094 188.856 91.1217 188.993 91.1463ZM173.235 99.0899C173.295 99.0899 173.338 99.0414 173.338 98.9815V91.3331C173.338 91.2733 173.295 91.2248 173.235 91.2248H172.284C172.224 91.2248 172.182 91.2733 172.182 91.3331V98.9815C172.182 99.0414 172.224 99.0899 172.284 99.0899H173.235ZM161.471 98.5712C161.453 98.5538 161.422 98.5247 161.455 98.4411L161.705 97.747C161.745 97.6272 161.835 97.667 161.872 97.6898C161.94 97.7312 161.992 97.769 162.081 97.821C162.819 98.287 163.501 98.2914 163.715 98.2914C164.266 98.2914 164.608 97.999 164.608 97.6062V97.585C164.608 97.1559 164.084 96.9945 163.475 96.8073L163.472 96.8065L163.338 96.7651C162.499 96.5254 161.605 96.182 161.605 95.1225V95.1013C161.605 94.0964 162.416 93.3953 163.577 93.3953L163.704 93.3945C164.385 93.3945 165.044 93.5926 165.521 93.8824C165.564 93.9088 165.606 93.9581 165.582 94.0251C165.56 94.0867 165.348 94.6557 165.324 94.7192C165.279 94.838 165.157 94.7587 165.157 94.7587C164.739 94.528 164.091 94.3465 163.545 94.3465C163.054 94.3465 162.736 94.6073 162.736 94.9614V94.9833C162.736 95.3969 163.278 95.5731 163.905 95.7771L163.907 95.7777L164.016 95.813C164.85 96.0763 165.738 96.4409 165.738 97.445V97.4661C165.738 98.5522 164.952 99.2267 163.683 99.2267C163.06 99.2267 162.464 99.129 161.834 98.7944C161.808 98.7792 161.781 98.7645 161.755 98.7496C161.663 98.6983 161.572 98.6469 161.481 98.5812C161.479 98.5782 161.475 98.5749 161.471 98.5712ZM180.048 98.5812C180.036 98.5636 179.983 98.5425 180.022 98.4411L180.272 97.747C180.309 97.6334 180.417 97.6749 180.439 97.6898C180.506 97.7329 180.56 97.769 180.648 97.821C181.385 98.287 182.068 98.2914 182.282 98.2914C182.833 98.2914 183.176 97.999 183.176 97.6062V97.585C183.176 97.1556 182.65 96.9943 182.04 96.807L182.038 96.8065L181.904 96.7651C181.067 96.5254 180.173 96.182 180.173 95.1225V95.1013C180.173 94.0964 180.983 93.3953 182.143 93.3953L182.27 93.3945C182.952 93.3945 183.611 93.5926 184.087 93.8824C184.13 93.9088 184.172 93.9581 184.149 94.0251C184.127 94.0867 183.916 94.6557 183.891 94.7192C183.846 94.838 183.724 94.7587 183.724 94.7587C183.306 94.528 182.658 94.3465 182.112 94.3465C181.62 94.3465 181.304 94.6073 181.304 94.9614V94.9833C181.304 95.3974 181.845 95.5734 182.475 95.7777L182.583 95.813C183.417 96.0763 184.306 96.4409 184.306 97.445V97.4661C184.306 98.5522 183.518 99.2267 182.251 99.2267C181.628 99.2267 181.032 99.129 180.401 98.7944C180.376 98.7805 180.353 98.7669 180.328 98.7533C180.233 98.7007 180.14 98.6485 180.048 98.5812ZM192.357 97.7531C192.582 97.4114 192.697 96.9279 192.697 96.314C192.697 95.701 192.582 95.2183 192.358 94.8802C192.134 94.5455 191.797 94.3825 191.327 94.3825C190.856 94.3825 190.52 94.5455 190.301 94.8802C190.079 95.2184 189.966 95.701 189.966 96.314C189.966 96.9279 190.079 97.4123 190.301 97.7531C190.52 98.0922 190.856 98.2561 191.327 98.2561C191.797 98.2561 192.134 98.0913 192.357 97.7531ZM193.274 94.2566C193.489 94.5145 193.652 94.8246 193.756 95.176C193.86 95.5257 193.912 95.9088 193.912 96.314C193.912 96.7191 193.86 97.1023 193.756 97.4519C193.652 97.8033 193.49 98.1133 193.274 98.3713C193.058 98.6303 192.784 98.8373 192.461 98.9844C192.137 99.1314 191.756 99.2063 191.327 99.2063C190.897 99.2063 190.515 99.1314 190.191 98.9844C189.869 98.8373 189.595 98.6304 189.379 98.3713C189.161 98.1125 189.001 97.8025 188.896 97.4519C188.793 97.1032 188.741 96.72 188.741 96.314C188.741 95.9079 188.793 95.5257 188.896 95.176C189.001 94.8256 189.162 94.5155 189.378 94.2566C189.595 93.9977 189.868 93.7898 190.191 93.6383C190.514 93.4877 190.897 93.411 191.327 93.411C191.756 93.411 192.138 93.4877 192.461 93.6383C192.785 93.7898 193.058 93.9977 193.274 94.2566ZM202.314 98.0278C202.314 98.0278 202.414 97.989 202.45 98.0921L202.709 98.81C202.743 98.8988 202.666 98.9359 202.666 98.9359C202.266 99.0935 201.71 99.2036 201.167 99.2036C200.249 99.2036 199.545 98.9385 199.077 98.4171C198.609 97.8974 198.372 97.1876 198.372 96.3094C198.372 95.9034 198.43 95.5193 198.545 95.1697C198.66 94.8192 198.833 94.5092 199.06 94.2503C199.287 93.9913 199.574 93.7835 199.912 93.6329C200.251 93.4814 200.648 93.4056 201.093 93.4056C201.391 93.4056 201.659 93.4242 201.887 93.4594C202.132 93.4964 202.456 93.5835 202.594 93.6372C202.618 93.647 202.687 93.6813 202.659 93.7614C202.583 93.9787 202.525 94.1378 202.46 94.3165C202.441 94.3703 202.42 94.4259 202.399 94.4854C202.36 94.5946 202.276 94.5585 202.276 94.5585C201.927 94.4484 201.594 94.3982 201.157 94.3982C200.633 94.3982 200.241 94.5736 199.983 94.9153C199.723 95.2587 199.578 95.7097 199.576 96.3094C199.574 96.9683 199.738 97.4553 200.03 97.7565C200.322 98.0577 200.729 98.2101 201.242 98.2101C201.451 98.2101 201.646 98.1959 201.822 98.1688C201.997 98.1415 202.16 98.0869 202.314 98.0278ZM204.591 94.8804C204.446 95.1014 204.352 95.3851 204.302 95.7259H206.858C206.832 95.3975 206.768 95.1014 206.619 94.8804C206.397 94.5457 206.086 94.3608 205.616 94.3608C205.145 94.3608 204.811 94.5449 204.591 94.8804ZM207.407 94.1379C207.553 94.2946 207.776 94.6373 207.866 94.9764C208.08 95.7266 207.991 96.3818 207.975 96.5021C207.973 96.5115 207.972 96.5175 207.972 96.5202C207.963 96.6119 207.868 96.6136 207.868 96.6136L204.285 96.61C204.307 97.1543 204.437 97.5402 204.702 97.8026C204.961 98.0589 205.372 98.2227 205.928 98.2236C206.704 98.2252 207.074 98.0833 207.329 97.9862C207.353 97.9768 207.377 97.9678 207.399 97.9593C207.399 97.9593 207.499 97.9233 207.534 98.021L207.769 98.6772C207.816 98.7882 207.778 98.8269 207.738 98.8489C207.514 98.9731 206.968 99.2038 205.934 99.2074C205.431 99.2082 204.993 99.1361 204.632 98.9969C204.269 98.8569 203.967 98.656 203.732 98.3997C203.496 98.1452 203.322 97.8379 203.212 97.4891C203.104 97.143 203.05 96.7581 203.05 96.3449C203.05 95.939 203.102 95.5541 203.207 95.2009C203.311 94.846 203.474 94.5334 203.692 94.2709C203.91 94.0075 204.187 93.7962 204.518 93.6412C204.847 93.4861 205.253 93.4113 205.701 93.4113C206.084 93.4113 206.435 93.494 206.728 93.619C206.951 93.716 207.176 93.8894 207.407 94.1379ZM175.89 94.8804C175.745 95.1014 175.652 95.3851 175.601 95.7259H178.157C178.131 95.3975 178.067 95.1014 177.919 94.8804C177.696 94.5457 177.385 94.3608 176.915 94.3608C176.445 94.3608 176.11 94.5449 175.89 94.8804ZM178.706 94.1379C178.852 94.2946 179.074 94.6373 179.164 94.9764C179.382 95.7397 179.288 96.4047 179.274 96.508C179.272 96.5141 179.271 96.5202 179.271 96.5202C179.262 96.6119 179.167 96.6136 179.167 96.6136L175.584 96.61C175.608 97.1543 175.736 97.5402 176.002 97.8026C176.26 98.0589 176.672 98.2227 177.227 98.2236C178.005 98.2252 178.375 98.0828 178.629 97.9857C178.653 97.9765 178.677 97.9676 178.698 97.9593C178.698 97.9593 178.798 97.9233 178.834 98.021L179.068 98.6772C179.115 98.7882 179.078 98.8269 179.037 98.8489C178.813 98.9731 178.268 99.2038 177.233 99.2074C176.73 99.2082 176.292 99.1361 175.933 98.9969C175.57 98.8569 175.266 98.656 175.031 98.3997C174.795 98.1452 174.621 97.8379 174.511 97.4891C174.403 97.143 174.349 96.7581 174.349 96.3449C174.349 95.939 174.402 95.5541 174.506 95.2009C174.61 94.846 174.773 94.5334 174.991 94.2709C175.209 94.0075 175.486 93.7962 175.817 93.6412C176.146 93.4861 176.553 93.4113 177 93.4113C177.383 93.4113 177.734 93.494 178.027 93.619C178.25 93.716 178.475 93.8894 178.706 94.1379ZM167.647 97.8602C167.695 97.9324 167.714 97.9605 167.854 98.0725C167.852 98.0716 168.176 98.3261 168.905 98.2821C169.417 98.2512 169.873 98.1535 169.873 98.1535H169.872V96.5241C169.872 96.5241 169.413 96.4483 168.9 96.4413C168.169 96.4316 167.858 96.7012 167.861 96.7003C167.645 96.8526 167.541 97.0789 167.541 97.3943C167.541 97.5933 167.577 97.75 167.647 97.8602ZM168.721 95.5376C168.946 95.5376 169.135 95.5438 169.281 95.5544C169.281 95.5544 169.564 95.5799 169.871 95.6239V95.4724C169.871 94.995 169.772 94.7687 169.577 94.619C169.375 94.4649 169.078 94.3874 168.69 94.3874C168.69 94.3874 167.818 94.376 167.129 94.7511C167.097 94.7697 167.07 94.7802 167.07 94.7802C167.07 94.7802 166.984 94.8102 166.953 94.7221L166.699 94.0404C166.66 93.9418 166.731 93.8977 166.731 93.8977C167.053 93.6458 167.836 93.4942 167.836 93.4942C168.095 93.4424 168.527 93.4053 168.795 93.4053C169.512 93.4053 170.066 93.5718 170.442 93.9011C170.82 94.2315 171.012 94.7644 171.012 95.483L171.014 98.7603C171.014 98.7603 171.021 98.8555 170.932 98.8774C170.874 98.8929 170.818 98.9078 170.761 98.9222C170.734 98.9288 170.708 98.9353 170.68 98.9417C170.561 98.9689 170.129 99.0561 169.778 99.116C169.423 99.1769 169.057 99.2068 168.689 99.2068C168.341 99.2068 168.022 99.1742 167.74 99.11C167.455 99.0456 167.209 98.9391 167.011 98.7938C166.81 98.6485 166.653 98.46 166.543 98.2336C166.434 98.0081 166.38 97.7325 166.38 97.4154C166.38 97.1036 166.444 96.8253 166.57 96.5892C166.696 96.3549 166.874 96.1527 167.09 95.9982C167.307 95.8433 167.558 95.726 167.839 95.6513C168.117 95.5764 168.414 95.5376 168.721 95.5376ZM198.131 93.5793C198.155 93.5881 198.213 93.6267 198.185 93.7079C198.152 93.8056 197.977 94.2961 197.916 94.46C197.893 94.5226 197.854 94.5648 197.786 94.5569C197.786 94.5569 197.579 94.5085 197.391 94.5085C197.261 94.5085 197.077 94.5252 196.91 94.5763C196.748 94.6264 196.598 94.7154 196.467 94.8422C196.337 94.97 196.231 95.1479 196.154 95.3698C196.075 95.5944 196.035 95.952 196.035 96.3105V98.9808C196.035 99.0096 196.024 99.0374 196.004 99.0579C195.991 99.0712 195.974 99.0807 195.956 99.0858C195.947 99.0886 195.936 99.09 195.927 99.09H194.985C194.926 99.09 194.876 99.0407 194.876 98.9808V93.6356C194.876 93.5747 194.919 93.5264 194.979 93.5264H195.897C195.958 93.5264 196 93.5748 196 93.6356V94.0716C196.138 93.8875 196.385 93.7254 196.607 93.625C196.83 93.5247 197.08 93.4489 197.531 93.4762C197.766 93.4912 198.071 93.5555 198.131 93.5793Z" fill="white"/>
<path d="M129.161 42.4776C129.162 43.6212 128.936 44.7554 128.495 45.8255C127.326 46.2286 126.086 46.4352 124.836 46.4353H124.822C123.534 46.4339 122.301 46.2186 121.162 45.826C120.722 44.7557 120.497 43.6213 120.497 42.4776V42.4637C120.496 41.3204 120.721 40.1864 121.162 39.1163C122.331 38.7125 123.571 38.5058 124.822 38.5063H124.836C126.087 38.5057 127.326 38.7124 128.495 39.1162C128.937 40.1861 129.162 41.3203 129.161 42.4636V42.4776ZM141.917 39.8278H131.801L138.954 33.2826C138.393 32.561 137.766 31.8834 137.082 31.2572C136.397 30.6315 135.658 30.0585 134.869 29.5451L127.716 36.0903V26.834C126.765 26.6876 125.802 26.6138 124.837 26.6133H124.82C123.838 26.6138 122.877 26.6901 121.94 26.834V36.0903L114.788 29.5451C114 30.0583 113.26 30.6313 112.576 31.2577L112.573 31.2602C111.89 31.8858 111.264 32.5622 110.703 33.2826L117.856 39.8278H107.742C107.742 39.8278 107.5 41.5663 107.5 42.4652V42.4761C107.5 43.375 107.583 44.256 107.742 45.1135H117.856L110.703 51.6588C111.829 53.1038 113.209 54.3671 114.788 55.3968L121.94 48.851V58.1078C122.891 58.2535 123.853 58.3271 124.816 58.3281H124.841C125.804 58.3272 126.766 58.2536 127.716 58.1078V48.851L134.87 55.3968C135.658 54.8832 136.397 54.3105 137.082 53.6847L137.083 53.6832C137.767 53.0569 138.393 52.3798 138.954 51.6588L131.8 45.1135H141.917C142.075 44.2575 142.157 43.3791 142.158 42.4822V42.4591C142.157 41.5622 142.075 40.6839 141.917 39.8278Z" fill="#FF4A00"/>
<line x1="49.9984" y1="55.9961" x2="49.9984" y2="94.3297" stroke="#D4D4D4" stroke-width="1.66668" stroke-dasharray="3.33 3.33"/>
<line x1="109.522" y1="66.8842" x2="86.8176" y2="97.7707" stroke="#D4D4D4" stroke-width="1.66668" stroke-dasharray="3.33 3.33"/>
<line x1="142.688" y1="112.779" x2="105.41" y2="121.712" stroke="#D4D4D4" stroke-width="1.66668" stroke-dasharray="3.33 3.33"/>
<line x1="160.59" y1="168.458" x2="105.59" y2="151.791" stroke="#D4D4D4" stroke-width="1.66668" stroke-dasharray="3.33 3.33"/>
</g>
<defs>
<linearGradient id="paint0_linear_5828_3820" x1="192.582" y1="154.332" x2="218.292" y2="185.102" gradientUnits="userSpaceOnUse">
<stop stop-color="#F6C338"/>
<stop offset="0.523" stop-color="#FFD351"/>
<stop offset="1" stop-color="#F6C338"/>
</linearGradient>
<linearGradient id="paint1_linear_5828_3820" x1="223.847" y1="180.469" x2="214.868" y2="205.115" gradientUnits="userSpaceOnUse">
<stop stop-color="#286EE6"/>
<stop offset="0.521" stop-color="#4286FB"/>
<stop offset="1" stop-color="#286EE6"/>
</linearGradient>
<linearGradient id="paint2_linear_5828_3820" x1="192.631" y1="154.332" x2="175.083" y2="188.965" gradientUnits="userSpaceOnUse">
<stop stop-color="#069B5A"/>
<stop offset="0.531" stop-color="#11AA62"/>
<stop offset="1" stop-color="#069B5A"/>
</linearGradient>
<clipPath id="clip0_5828_3820">
<rect x="0.832031" y="0.996094" width="243.335" height="200.002" rx="3.33336" fill="white"/>
</clipPath>
</defs>
</svg>
