<svg width="187" height="208" viewBox="0 0 187 208" fill="none" xmlns="http://www.w3.org/2000/svg">
<g filter="url(#filter0_d_5828_3847)">
<rect x="3.57227" y="31.832" width="112.28" height="110.183" rx="3.50875" fill="white" shape-rendering="crispEdges"/>
<path d="M94.8179 51.1049L64.5264 41.6046C61.4268 40.6266 58.0454 40.6266 54.9458 41.6046L24.6543 51.1049C22.8227 51.6638 21.5547 53.4102 21.5547 55.2963V66.6129C21.5547 92.5293 34.3053 116.839 55.7207 131.718C56.8478 132.557 58.3272 132.976 59.6657 132.976C61.0041 132.976 62.4835 132.626 63.6106 131.718C74.3887 124.314 82.9126 114.534 88.7596 103.287C94.677 92.1801 97.8471 79.5362 97.8471 66.6129V55.2963C98.0584 53.4102 96.7904 51.6638 94.8179 51.1049Z" fill="#0C8FF2"/>
<path d="M71.6275 59.1509C69.6034 57.4793 68.1376 57.8972 66.1135 61.5189C64.7873 63.9566 62.6236 64.2352 61.2974 64.1655V63.678C62.833 62.9119 63.9498 61.3796 63.9498 59.5688C63.9498 56.9918 61.8558 54.9023 59.2733 54.9023C56.6908 54.9023 54.5969 56.9918 54.5969 59.5688C54.5969 61.3796 55.7136 62.9119 57.2492 63.678V64.1655C55.923 64.2352 53.7593 63.9566 52.4331 61.5189C50.409 57.8276 48.9433 57.4793 46.9191 59.1509C44.8252 60.8224 36.7287 70.5035 26.8174 69.5981C26.8174 69.5981 28.7717 74.0555 34.1461 73.0805C34.1461 73.0805 37.0079 76.0753 41.6145 73.9859C41.6145 73.9859 44.0574 76.145 47.8963 74.1948C47.8963 74.1948 50.758 76.3539 53.7593 74.4734C53.7593 74.4734 55.5042 75.7271 57.3888 75.3788L57.5284 86.5921C57.319 86.5225 57.1096 86.5225 56.9002 86.4529C56.9002 86.4529 53.5499 85.7564 50.06 84.7813C46.7097 83.8759 43.0104 82.4829 42.4521 81.7168C42.5219 81.6471 42.5917 81.6471 42.6615 81.5775C42.9407 81.4382 43.499 81.2293 44.0574 81.1596C45.3138 80.881 46.9889 80.8114 48.6641 80.7417C52.0144 80.6024 52.6425 80.7417 52.7123 80.8114C52.7123 80.6721 54.6667 81.0203 55.1552 79.0702C55.1552 79.0702 55.225 79.0005 55.1552 78.9309C55.0157 77.6076 53.9687 77.5379 53.1311 77.329C51.7352 77.12 52.4331 77.1897 50.6184 77.2593C47.5473 77.4683 38.0548 76.7021 36.8682 81.7168C36.8682 81.8561 36.8682 81.9257 36.8682 82.065C37.287 86.3832 46.2211 88.2637 52.7821 89.587C50.5486 91.1193 49.362 93.0694 48.9433 95.5767C48.7339 98.293 50.8976 100.87 55.8532 103.726C52.0842 106.442 49.5714 108.949 49.7808 111.944C50.1298 114.451 52.3633 117.725 56.621 119.814C56.621 119.814 53.6197 115.217 53.4103 112.71C53.2009 111.248 54.0385 109.088 57.7378 106.442L57.8774 115.635C57.8774 116.401 58.5055 117.028 59.2733 117.028C60.0411 117.028 60.6693 116.401 60.6693 115.635L60.8089 106.651C64.1592 109.158 64.9269 111.248 64.7873 112.64C64.5779 115.148 61.5766 119.745 61.5766 119.745C65.9041 117.655 68.0678 114.312 68.4168 111.874C68.6262 108.81 66.1135 106.303 62.3444 103.656C67.3699 100.8 69.4638 98.2234 69.2544 95.5071C68.7658 92.9998 67.5792 90.98 65.4155 89.5174C71.9067 88.1941 80.9106 86.3136 81.3294 81.9954C81.3294 81.8561 81.3294 81.7864 81.3294 81.6471C80.1428 76.7021 70.6503 77.4683 67.5792 77.1897C65.6947 77.1897 66.4625 77.12 65.0665 77.2593C64.229 77.3986 63.182 77.4683 63.0424 78.8612C63.0424 78.9309 63.0424 79.0005 63.0424 79.0005C63.6008 80.9507 65.4853 80.6024 65.4853 80.7417C65.5551 80.7417 66.1135 80.6024 69.5336 80.6721C71.2087 80.7417 72.8839 80.881 74.1402 81.09C74.7684 81.2293 75.257 81.3686 75.5362 81.5078C75.606 81.5775 75.7456 81.5775 75.7456 81.6471C75.1872 82.4133 71.4879 83.8062 68.1376 84.7117C64.6477 85.6867 61.2974 86.3832 61.2974 86.3832C61.2277 86.3832 61.1579 86.3832 61.0881 86.4529L61.2277 75.3788C63.182 75.7271 64.8571 74.4734 64.8571 74.4734C67.8584 76.3539 70.7201 74.1948 70.7201 74.1948C74.559 76.145 76.9321 73.9859 76.9321 73.9859C81.5388 76.0753 84.4005 73.0805 84.4005 73.0805C89.7749 74.0555 91.7292 69.5981 91.7292 69.5981C81.7482 70.5035 73.6516 60.8224 71.6275 59.1509ZM54.8063 98.7805C53.5499 98.0144 52.9915 96.9697 53.1311 96.2732C53.2009 95.2981 52.8519 92.9998 57.4586 91.2586L57.5982 100.522C56.6908 99.9646 55.7834 99.3377 54.8063 98.7805ZM64.8571 96.2732C64.9967 96.9697 64.3686 98.0144 63.182 98.7805C62.3444 99.2681 61.5766 99.8253 60.8089 100.313L60.9485 91.4675C65.0665 93.0694 64.7873 95.2981 64.8571 96.2732Z" fill="white"/>
</g>
<g filter="url(#filter1_d_5828_3847)">
<rect x="76.377" y="101.125" width="107.047" height="100.877" rx="3.50875" fill="white" shape-rendering="crispEdges"/>
<mask id="mask0_5828_3847" style="mask-type:luminance" maskUnits="userSpaceOnUse" x="85" y="112" width="79" height="18">
<path d="M85.418 112.074H163.024V129.903H85.418V112.074Z" fill="#61B4FF"/>
</mask>
<g mask="url(#mask0_5828_3847)">
<path d="M163.024 120.993C163.024 125.916 145.652 129.907 124.221 129.907C102.79 129.907 85.418 125.916 85.418 120.993C85.418 116.069 102.79 112.078 124.221 112.078C145.652 112.078 163.024 116.069 163.024 120.993Z" fill="#61B4FF"/>
</g>
<path d="M124.219 129.937C102.788 129.937 85.416 125.947 85.416 121.023V138.852C85.416 143.775 102.788 147.765 124.219 147.765C145.65 147.765 163.022 143.775 163.022 138.852V121.023C163.022 125.947 145.65 129.937 124.219 129.937Z" fill="#499FFF"/>
<path d="M124.219 147.758C102.788 147.758 85.416 143.768 85.416 138.844V156.673C85.416 161.596 102.788 165.585 124.219 165.585C145.65 165.585 163.022 161.596 163.022 156.673V138.844C163.022 143.768 145.65 147.758 124.219 147.758Z" fill="#0773EE"/>
<path d="M124.219 165.578C102.788 165.578 85.416 161.588 85.416 156.664V174.493C85.416 179.416 102.788 183.406 124.219 183.406C145.65 183.406 163.022 179.416 163.022 174.493V156.664C163.022 161.588 145.65 165.578 124.219 165.578Z" fill="#0653CE"/>
<path d="M166.791 147.564L118.834 154.29C117.416 154.49 116.407 155.719 116.591 157.023L121.121 189.017C121.306 190.32 122.617 191.224 124.035 191.025L172.119 184.279C173.539 184.081 174.547 182.851 174.362 181.548L169.834 149.553C169.65 148.25 168.337 147.346 166.791 147.564Z" fill="white"/>
<path d="M150.185 161.556L165.759 159.371C166.421 159.278 167.032 159.733 167.124 160.388C167.218 161.042 166.756 161.648 166.094 161.741L150.521 163.926C149.86 164.019 149.248 163.563 149.155 162.909C149.063 162.254 149.524 161.649 150.185 161.556ZM150.974 167.125L166.547 164.94C167.209 164.847 167.82 165.303 167.913 165.957C168.006 166.611 167.545 167.217 166.883 167.311L151.309 169.495C150.648 169.588 150.036 169.132 149.944 168.479V168.478C149.851 167.823 150.313 167.218 150.974 167.125ZM151.762 172.694L167.335 170.51C167.997 170.417 168.608 170.872 168.701 171.527C168.795 172.181 168.333 172.787 167.671 172.88L152.098 175.065C151.437 175.158 150.825 174.701 150.732 174.047C150.64 173.393 151.101 172.787 151.762 172.694Z" fill="#E2E2E2"/>
<path d="M132.487 157.827L136.917 184.09C144.203 182.872 149.117 176.006 147.894 168.754C146.67 161.501 139.772 156.609 132.487 157.827Z" fill="#214391"/>
<path d="M132.488 157.822C125.203 159.041 120.288 165.906 121.512 173.159C122.735 180.411 129.633 185.303 136.918 184.085C144.204 182.868 139.773 156.605 132.488 157.822Z" fill="#2B479D"/>
<path d="M134.71 159.719L133.274 159.958L132.6 158.672L132.385 160.108L130.947 160.348L132.253 160.995L132.037 162.43L133.058 161.394L134.364 162.04L133.69 160.754L134.71 159.719ZM136.719 180.381L136.045 179.095L135.83 180.529L134.394 180.771L135.698 181.417L135.483 182.852L136.504 181.817L137.808 182.463L137.135 181.176L138.156 180.142L136.719 180.381ZM139.625 161.623L140.646 160.589L139.209 160.828L138.535 159.54L138.321 160.976L136.883 161.217L138.189 161.863L137.973 163.299L138.994 162.263L140.299 162.911L139.625 161.623ZM142.452 166.43L143.472 165.394L144.777 166.04L144.103 164.754L145.124 163.718L143.688 163.958L143.014 162.673L142.798 164.107L141.361 164.347L142.666 164.994L142.452 166.43ZM146.824 173.236L145.386 173.475L144.712 172.189L144.498 173.625L143.06 173.865L144.365 174.511L144.15 175.947L145.172 174.91L146.477 175.557L145.803 174.27L146.824 173.236ZM123.646 169.573L124.668 168.538L125.973 169.185L125.299 167.898L126.319 166.863L124.883 167.102L124.209 165.815L123.994 167.25L122.558 167.491L123.862 168.138L123.646 169.573ZM144.456 168.505L143.018 168.744L144.324 169.391L144.108 170.826L145.129 169.791L146.434 170.438L145.76 169.151L146.781 168.116L145.344 168.356L144.67 167.068L144.456 168.505ZM124.562 173.23L125.866 173.876L125.192 172.589L126.213 171.555L124.776 171.794L124.102 170.508L123.888 171.943L122.451 172.184L123.756 172.829L123.54 174.264L124.562 173.23ZM126.367 176.655L125.693 175.369L125.478 176.804L124.041 177.045L125.346 177.69L125.131 179.126L126.151 178.091L127.456 178.737L126.783 177.451L127.804 176.416L126.367 176.655ZM142.283 178.039L141.609 176.752L141.395 178.187L139.958 178.428L141.263 179.074L141.046 180.509L142.068 179.474L143.373 180.121L142.699 178.834L143.72 177.8L142.283 178.039ZM128.547 163.475L129.568 162.441L128.131 162.68L127.456 161.394L127.242 162.829L125.805 163.07L127.11 163.715L126.896 165.151L127.916 164.115L129.222 164.763L128.547 163.475ZM130.611 179.92L129.937 178.632L129.722 180.067L128.284 180.308L129.59 180.954L129.374 182.389L130.395 181.355L131.7 182.002L131.027 180.714L132.047 179.679L130.611 179.92Z" fill="#F7C847"/>
</g>
<g filter="url(#filter2_d_5828_3847)">
<rect x="84.2734" y="2" width="65.7891" height="62.0315" rx="3.50875" fill="white" shape-rendering="crispEdges"/>
<path d="M116.277 43.3337L115.514 46.0738L112.595 56.4972L108.739 52.2224L103.217 53.8937L106.362 42.6699L107.04 40.25L112.407 40.8244L116.277 43.3337ZM131.102 53.8937L125.584 52.2224L121.729 56.5019L118.81 46.0738L118.042 43.3337L121.912 40.8244L127.284 40.25L127.962 42.6699L131.102 53.8937Z" fill="#0773EE"/>
<path d="M112.406 40.8244L116.281 43.3337L115.514 46.0785C114.454 45.4005 113.475 44.313 112.411 43.9693C110.763 43.4373 108.353 44.3554 106.983 43.3573C106.732 43.1716 106.521 42.9379 106.361 42.6699L107.039 40.25L112.406 40.8244ZM127.962 42.6699C127.802 42.9354 127.593 43.1672 127.345 43.3526C125.97 44.3507 123.578 43.4279 121.916 43.9646C120.852 44.3083 119.873 45.377 118.809 46.0785L118.042 43.3337L121.898 40.8244L127.269 40.2547L127.962 42.6699Z" fill="#0041A0"/>
<path d="M132.539 26.7938C132.539 25.0377 134.158 23.0274 133.64 21.4597C133.123 19.8919 130.604 19.1575 129.606 17.7921C128.608 16.4268 128.735 13.8374 127.346 12.8346C125.957 11.8318 123.58 12.7593 121.918 12.2226C120.256 11.6859 118.928 9.53906 117.163 9.53906C115.397 9.53906 113.999 11.7094 112.408 12.2226C110.816 12.7358 108.349 11.846 106.979 12.8299C105.609 13.8139 105.732 16.408 104.719 17.7874C103.707 19.1669 101.217 19.8119 100.685 21.455C100.153 23.098 101.786 25.033 101.786 26.7891C101.786 28.5452 100.167 30.5555 100.685 32.1232C101.203 33.691 103.721 34.4254 104.724 35.7907C105.727 37.1561 105.595 39.7454 106.984 40.7482C108.373 41.751 110.75 40.8236 112.412 41.3603C114.074 41.897 115.402 44.0438 117.167 44.0438C118.933 44.0438 120.331 41.8735 121.922 41.3603C123.514 40.8471 125.981 41.7463 127.351 40.7482C128.721 39.7502 128.598 37.1702 129.61 35.7907C130.623 34.4113 133.113 33.7663 133.65 32.1232C134.187 30.4801 132.548 28.5452 132.548 26.7891" fill="#499FFF"/>
<path d="M117.163 15.9219C119.311 15.9303 121.409 16.5749 123.191 17.7745C124.973 18.9741 126.36 20.6748 127.176 22.6619C127.992 24.6489 128.202 26.8333 127.777 28.9392C127.353 31.0452 126.314 32.9782 124.793 34.4942C123.271 36.0103 121.334 37.0414 119.226 37.4575C117.118 37.8735 114.935 37.6557 112.951 36.8317C110.967 36.0077 109.272 34.6144 108.079 32.8276C106.887 31.0409 106.25 28.9408 106.25 26.7926C106.252 25.3622 106.537 23.9463 107.087 22.6257C107.636 21.3052 108.441 20.1059 109.454 19.0964C110.468 18.0869 111.67 17.2869 112.993 16.7423C114.316 16.1976 115.733 15.9188 117.163 15.9219Z" fill="white"/>
<path d="M122.986 21.4731L115.369 29.0624L112.12 25.8233C111.82 25.5544 111.429 25.4105 111.026 25.421C110.623 25.4316 110.24 25.5958 109.955 25.8801C109.669 26.1643 109.503 26.547 109.491 26.9496C109.479 27.3523 109.621 27.7444 109.889 28.0454L114.258 32.3956C114.554 32.6906 114.955 32.8562 115.373 32.8562C115.792 32.8562 116.193 32.6906 116.489 32.3956L125.222 23.6953C125.49 23.3942 125.632 23.0021 125.62 22.5995C125.608 22.1968 125.442 21.8141 125.157 21.5299C124.871 21.2457 124.488 21.0814 124.085 21.0709C123.682 21.0603 123.291 21.2042 122.991 21.4731" fill="#2A55C5"/>
</g>
<defs>
<filter id="filter0_d_5828_3847" x="0.0635161" y="30.0777" width="119.298" height="117.201" filterUnits="userSpaceOnUse" color-interpolation-filters="sRGB">
<feFlood flood-opacity="0" result="BackgroundImageFix"/>
<feColorMatrix in="SourceAlpha" type="matrix" values="0 0 0 0 0 0 0 0 0 0 0 0 0 0 0 0 0 0 127 0" result="hardAlpha"/>
<feOffset dy="1.75437"/>
<feGaussianBlur stdDeviation="1.75437"/>
<feComposite in2="hardAlpha" operator="out"/>
<feColorMatrix type="matrix" values="0 0 0 0 0 0 0 0 0 0 0 0 0 0 0 0 0 0 0.1 0"/>
<feBlend mode="normal" in2="BackgroundImageFix" result="effect1_dropShadow_5828_3847"/>
<feBlend mode="normal" in="SourceGraphic" in2="effect1_dropShadow_5828_3847" result="shape"/>
</filter>
<filter id="filter1_d_5828_3847" x="72.8682" y="99.3706" width="114.064" height="107.892" filterUnits="userSpaceOnUse" color-interpolation-filters="sRGB">
<feFlood flood-opacity="0" result="BackgroundImageFix"/>
<feColorMatrix in="SourceAlpha" type="matrix" values="0 0 0 0 0 0 0 0 0 0 0 0 0 0 0 0 0 0 127 0" result="hardAlpha"/>
<feOffset dy="1.75437"/>
<feGaussianBlur stdDeviation="1.75437"/>
<feComposite in2="hardAlpha" operator="out"/>
<feColorMatrix type="matrix" values="0 0 0 0 0 0 0 0 0 0 0 0 0 0 0 0 0 0 0.1 0"/>
<feBlend mode="normal" in2="BackgroundImageFix" result="effect1_dropShadow_5828_3847"/>
<feBlend mode="normal" in="SourceGraphic" in2="effect1_dropShadow_5828_3847" result="shape"/>
</filter>
<filter id="filter2_d_5828_3847" x="80.7647" y="0.245625" width="72.8066" height="69.0487" filterUnits="userSpaceOnUse" color-interpolation-filters="sRGB">
<feFlood flood-opacity="0" result="BackgroundImageFix"/>
<feColorMatrix in="SourceAlpha" type="matrix" values="0 0 0 0 0 0 0 0 0 0 0 0 0 0 0 0 0 0 127 0" result="hardAlpha"/>
<feOffset dy="1.75437"/>
<feGaussianBlur stdDeviation="1.75437"/>
<feComposite in2="hardAlpha" operator="out"/>
<feColorMatrix type="matrix" values="0 0 0 0 0 0 0 0 0 0 0 0 0 0 0 0 0 0 0.1 0"/>
<feBlend mode="normal" in2="BackgroundImageFix" result="effect1_dropShadow_5828_3847"/>
<feBlend mode="normal" in="SourceGraphic" in2="effect1_dropShadow_5828_3847" result="shape"/>
</filter>
</defs>
</svg>
