<svg width="313" height="250" viewBox="0 0 313 250" fill="none" xmlns="http://www.w3.org/2000/svg">
<circle cx="209.68" cy="104.68" r="96.6797" fill="#F1D9FF"/>
<g filter="url(#filter0_d_335_2712)">
<rect x="11" y="125" width="254.665" height="108.579" rx="3.41544" fill="white" shape-rendering="crispEdges"/>
<rect x="28.0781" y="151.207" width="28.4448" height="5.22989" rx="2.61495" fill="#D8D2EC"/>
<rect x="28.0781" y="162.396" width="18.9632" height="5.22989" rx="2.61495" fill="#D8D2EC"/>
<rect x="28.0781" y="173.584" width="32.5084" height="5.22989" rx="2.61495" fill="#D8D2EC"/>
<rect x="28.0781" y="184.773" width="27.7676" height="5.22989" rx="2.61495" fill="#D8D2EC"/>
<rect x="28.0781" y="138.662" width="132.742" height="5.97702" rx="2.98851" fill="#D8D2EC"/>
<rect x="28.2916" y="201.299" width="35.0657" height="18.404" rx="3.20198" stroke="#322854" stroke-width="0.42693"/>
<path d="M38.8142 212.502V207.534H40.6772C41.0588 207.534 41.379 207.605 41.6378 207.748C41.8981 207.89 42.0946 208.085 42.2272 208.335C42.3615 208.582 42.4286 208.863 42.4286 209.179C42.4286 209.497 42.3615 209.78 42.2272 210.028C42.093 210.275 41.8949 210.47 41.6329 210.612C41.3709 210.753 41.0483 210.823 40.6651 210.823H39.4304V210.083H40.5438C40.7669 210.083 40.9497 210.045 41.092 209.967C41.2343 209.889 41.3394 209.783 41.4073 209.647C41.4769 209.511 41.5116 209.355 41.5116 209.179C41.5116 209.002 41.4769 208.847 41.4073 208.713C41.3394 208.579 41.2335 208.474 41.0896 208.4C40.9473 208.324 40.7637 208.286 40.5389 208.286H39.7142V212.502H38.8142ZM43.1715 212.502V208.776H44.0229V209.397H44.0617C44.1296 209.182 44.2461 209.016 44.411 208.9C44.5776 208.782 44.7676 208.723 44.9811 208.723C45.0296 208.723 45.0837 208.725 45.1436 208.73C45.205 208.733 45.256 208.739 45.2964 208.747V209.555C45.2592 209.542 45.2002 209.53 45.1193 209.521C45.0401 209.509 44.9633 209.504 44.8889 209.504C44.7288 209.504 44.5848 209.539 44.4571 209.608C44.331 209.676 44.2315 209.771 44.1587 209.892C44.086 210.013 44.0496 210.153 44.0496 210.312V212.502H43.1715ZM47.3759 212.575C47.0023 212.575 46.6797 212.497 46.408 212.342C46.1379 212.185 45.9301 211.963 45.7846 211.677C45.639 211.389 45.5663 211.051 45.5663 210.661C45.5663 210.278 45.639 209.941 45.7846 209.652C45.9317 209.361 46.1371 209.134 46.4007 208.973C46.6643 208.809 46.974 208.728 47.3298 208.728C47.5594 208.728 47.7761 208.765 47.9799 208.839C48.1853 208.912 48.3664 209.025 48.5232 209.179C48.6817 209.332 48.8062 209.528 48.8968 209.766C48.9874 210.002 49.0326 210.283 49.0326 210.61V210.879H45.9786V210.287H48.1909C48.1893 210.119 48.1529 209.969 48.0818 209.838C48.0106 209.706 47.9111 209.602 47.7834 209.526C47.6572 209.45 47.5101 209.412 47.3419 209.412C47.1624 209.412 47.0047 209.455 46.8689 209.543C46.733 209.628 46.6271 209.741 46.5511 209.882C46.4767 210.021 46.4387 210.174 46.4371 210.341V210.857C46.4371 211.074 46.4767 211.26 46.556 211.415C46.6352 211.569 46.746 211.687 46.8883 211.769C47.0306 211.85 47.1972 211.891 47.388 211.891C47.5157 211.891 47.6314 211.873 47.7349 211.837C47.8384 211.8 47.9281 211.746 48.0041 211.675C48.0801 211.604 48.1375 211.515 48.1764 211.41L48.9963 211.503C48.9445 211.719 48.8459 211.908 48.7003 212.07C48.5564 212.23 48.372 212.355 48.1472 212.444C47.9225 212.531 47.6653 212.575 47.3759 212.575ZM52.9969 208.776L51.67 212.502H50.6997L49.3729 208.776H50.3092L51.1655 211.544H51.2043L52.063 208.776H52.9969Z" fill="#2E254F"/>
<rect x="204.098" y="201.086" width="44.4926" height="18.8309" rx="3.41544" fill="#6434D0"/>
<path d="M217.534 208.9C217.511 208.688 217.416 208.523 217.247 208.405C217.081 208.287 216.864 208.228 216.597 208.228C216.41 208.228 216.249 208.256 216.115 208.313C215.98 208.369 215.878 208.446 215.806 208.543C215.735 208.64 215.699 208.751 215.697 208.875C215.697 208.979 215.721 209.069 215.768 209.145C215.816 209.221 215.882 209.285 215.964 209.339C216.047 209.391 216.138 209.434 216.238 209.47C216.339 209.505 216.44 209.535 216.541 209.56L217.007 209.676C217.195 209.72 217.375 209.779 217.548 209.853C217.723 209.927 217.879 210.021 218.016 210.134C218.155 210.248 218.265 210.384 218.346 210.544C218.427 210.704 218.468 210.892 218.468 211.107C218.468 211.398 218.393 211.655 218.244 211.876C218.096 212.096 217.88 212.268 217.599 212.393C217.319 212.516 216.981 212.577 216.583 212.577C216.196 212.577 215.861 212.517 215.576 212.398C215.293 212.278 215.071 212.103 214.911 211.874C214.753 211.644 214.667 211.364 214.654 211.034H215.54C215.553 211.207 215.606 211.351 215.7 211.466C215.794 211.581 215.916 211.667 216.066 211.723C216.218 211.78 216.388 211.808 216.575 211.808C216.771 211.808 216.943 211.779 217.09 211.721C217.238 211.661 217.355 211.579 217.439 211.473C217.523 211.367 217.566 211.242 217.568 211.1C217.566 210.971 217.528 210.864 217.454 210.78C217.379 210.694 217.275 210.623 217.141 210.566C217.008 210.508 216.853 210.456 216.675 210.411L216.11 210.265C215.701 210.16 215.377 210.001 215.139 209.788C214.903 209.572 214.785 209.287 214.785 208.931C214.785 208.639 214.864 208.382 215.023 208.162C215.183 207.942 215.401 207.772 215.675 207.65C215.95 207.528 216.262 207.466 216.609 207.466C216.962 207.466 217.271 207.528 217.536 207.65C217.803 207.772 218.012 207.941 218.164 208.157C218.316 208.373 218.395 208.62 218.4 208.9H217.534ZM221.606 210.935V208.776H222.484V212.502H221.632V211.84H221.594C221.51 212.048 221.371 212.219 221.179 212.352C220.988 212.484 220.753 212.55 220.473 212.55C220.229 212.55 220.013 212.496 219.825 212.388C219.639 212.278 219.494 212.119 219.389 211.91C219.284 211.7 219.231 211.446 219.231 211.148V208.776H220.109V211.013C220.109 211.249 220.174 211.436 220.303 211.575C220.433 211.714 220.602 211.784 220.813 211.784C220.942 211.784 221.067 211.752 221.189 211.689C221.31 211.626 221.409 211.532 221.487 211.408C221.566 211.282 221.606 211.124 221.606 210.935ZM223.426 212.502V207.534H224.304V209.392H224.34C224.385 209.302 224.449 209.205 224.532 209.103C224.614 209 224.726 208.912 224.867 208.839C225.007 208.765 225.187 208.728 225.405 208.728C225.693 208.728 225.953 208.801 226.184 208.948C226.417 209.094 226.601 209.31 226.737 209.596C226.874 209.881 226.943 210.23 226.943 210.644C226.943 211.053 226.876 211.401 226.742 211.687C226.607 211.973 226.425 212.191 226.193 212.342C225.962 212.492 225.7 212.567 225.408 212.567C225.194 212.567 225.017 212.532 224.876 212.461C224.736 212.39 224.622 212.304 224.537 212.204C224.453 212.102 224.387 212.005 224.34 211.915H224.289V212.502H223.426ZM224.287 210.639C224.287 210.88 224.321 211.091 224.389 211.272C224.458 211.453 224.558 211.595 224.687 211.697C224.818 211.797 224.977 211.847 225.163 211.847C225.357 211.847 225.519 211.795 225.65 211.692C225.781 211.587 225.88 211.444 225.946 211.262C226.014 211.08 226.048 210.872 226.048 210.639C226.048 210.408 226.015 210.202 225.948 210.023C225.882 209.843 225.784 209.703 225.653 209.601C225.522 209.499 225.358 209.448 225.163 209.448C224.975 209.448 224.816 209.497 224.685 209.596C224.554 209.695 224.454 209.833 224.386 210.011C224.32 210.189 224.287 210.398 224.287 210.639ZM227.69 212.502V208.776H228.529V209.409H228.573C228.65 209.196 228.779 209.029 228.958 208.909C229.138 208.788 229.352 208.728 229.601 208.728C229.853 208.728 230.066 208.789 230.239 208.912C230.414 209.033 230.537 209.199 230.608 209.409H230.647C230.729 209.202 230.868 209.037 231.064 208.914C231.261 208.79 231.495 208.728 231.765 208.728C232.108 208.728 232.387 208.836 232.604 209.053C232.821 209.269 232.929 209.585 232.929 210.001V212.502H232.049V210.137C232.049 209.906 231.987 209.737 231.864 209.63C231.741 209.522 231.591 209.467 231.413 209.467C231.201 209.467 231.035 209.534 230.916 209.666C230.798 209.797 230.739 209.968 230.739 210.178V212.502H229.878V210.1C229.878 209.908 229.819 209.754 229.703 209.64C229.588 209.525 229.438 209.467 229.252 209.467C229.126 209.467 229.011 209.5 228.907 209.564C228.804 209.627 228.721 209.717 228.66 209.834C228.598 209.948 228.568 210.083 228.568 210.236V212.502H227.69ZM233.82 212.502V208.776H234.698V212.502H233.82ZM234.261 208.247C234.122 208.247 234.003 208.201 233.902 208.109C233.802 208.015 233.752 207.903 233.752 207.772C233.752 207.639 233.802 207.527 233.902 207.435C234.003 207.341 234.122 207.294 234.261 207.294C234.402 207.294 234.522 207.341 234.621 207.435C234.721 207.527 234.771 207.639 234.771 207.772C234.771 207.903 234.721 208.015 234.621 208.109C234.522 208.201 234.402 208.247 234.261 208.247ZM237.462 208.776V209.455H235.32V208.776H237.462ZM235.849 207.883H236.727V211.381C236.727 211.499 236.744 211.59 236.78 211.653C236.817 211.714 236.866 211.756 236.926 211.779C236.985 211.802 237.052 211.813 237.124 211.813C237.179 211.813 237.23 211.809 237.275 211.801C237.322 211.793 237.357 211.786 237.382 211.779L237.53 212.466C237.483 212.482 237.416 212.5 237.328 212.519C237.243 212.538 237.137 212.55 237.013 212.553C236.793 212.559 236.595 212.526 236.419 212.453C236.242 212.379 236.102 212.264 235.999 212.109C235.897 211.954 235.847 211.76 235.849 211.527V207.883Z" fill="white"/>
</g>
<g filter="url(#filter1_d_335_2712)">
<rect x="101" y="27" width="200" height="99.4819" rx="5.37947" fill="white" shape-rendering="crispEdges"/>
<path d="M130.906 53.0965C130.125 53.0965 129.456 52.9329 128.898 52.6057C128.341 52.2785 127.909 51.8137 127.604 51.2113C127.307 50.6015 127.158 49.8839 127.158 49.0584C127.158 48.4412 127.244 47.8872 127.415 47.3964C127.586 46.8981 127.831 46.4742 128.151 46.1247C128.471 45.7678 128.861 45.4963 129.322 45.3104C129.791 45.1245 130.319 45.0316 130.906 45.0316C131.352 45.0316 131.78 45.0948 132.189 45.2212C132.605 45.3476 132.962 45.5261 133.26 45.7566C133.379 45.8384 133.457 45.9314 133.494 46.0355C133.531 46.1396 133.535 46.24 133.505 46.3367C133.483 46.4259 133.435 46.504 133.36 46.5709C133.293 46.6304 133.208 46.6639 133.104 46.6713C133 46.6713 132.888 46.6304 132.769 46.5486C132.509 46.3478 132.222 46.2028 131.91 46.1136C131.605 46.0169 131.278 45.9686 130.928 45.9686C130.356 45.9686 129.869 46.0913 129.467 46.3367C129.073 46.5746 128.772 46.9242 128.564 47.3852C128.363 47.8389 128.262 48.3966 128.262 49.0584C128.262 49.7129 128.363 50.2743 128.564 50.7428C128.772 51.2039 129.073 51.5571 129.467 51.8025C129.869 52.0405 130.356 52.1595 130.928 52.1595C131.278 52.1595 131.609 52.1111 131.921 52.0145C132.241 51.9178 132.535 51.7691 132.802 51.5683C132.921 51.4865 133.029 51.4493 133.126 51.4567C133.23 51.4642 133.316 51.4976 133.383 51.5571C133.449 51.6092 133.494 51.6835 133.516 51.7802C133.546 51.8695 133.546 51.9624 133.516 52.0591C133.487 52.1558 133.42 52.2413 133.316 52.3157C133.011 52.5759 132.646 52.773 132.222 52.9069C131.806 53.0333 131.367 53.0965 130.906 53.0965ZM138.093 53.0965C137.35 53.0965 136.707 52.9329 136.164 52.6057C135.621 52.271 135.197 51.8025 134.892 51.2002C134.595 50.5904 134.446 49.8765 134.446 49.0584C134.446 48.4412 134.531 47.8872 134.702 47.3964C134.873 46.8981 135.115 46.4742 135.427 46.1247C135.747 45.7678 136.13 45.4963 136.576 45.3104C137.03 45.1245 137.536 45.0316 138.093 45.0316C138.837 45.0316 139.48 45.1952 140.023 45.5224C140.566 45.8496 140.986 46.3144 141.284 46.9167C141.581 47.5191 141.73 48.2293 141.73 49.0473C141.73 49.6645 141.644 50.2223 141.473 50.7205C141.302 51.2188 141.057 51.6464 140.737 52.0033C140.425 52.3603 140.046 52.6317 139.599 52.8176C139.153 53.0035 138.651 53.0965 138.093 53.0965ZM138.093 52.1818C138.629 52.1818 139.086 52.0591 139.465 51.8137C139.845 51.5683 140.135 51.2113 140.336 50.7428C140.544 50.2743 140.648 49.7129 140.648 49.0584C140.648 48.0694 140.425 47.3034 139.979 46.7606C139.54 46.2177 138.911 45.9463 138.093 45.9463C137.558 45.9463 137.097 46.069 136.71 46.3144C136.331 46.5523 136.041 46.9056 135.84 47.3741C135.639 47.8351 135.539 48.3966 135.539 49.0584C135.539 50.0401 135.762 50.806 136.208 51.3563C136.654 51.9066 137.283 52.1818 138.093 52.1818ZM143.821 53.0742C143.673 53.0742 143.554 53.0296 143.464 52.9403C143.382 52.8511 143.342 52.7284 143.342 52.5722V45.5781C143.342 45.4071 143.382 45.277 143.464 45.1877C143.546 45.0985 143.654 45.0539 143.788 45.0539C143.914 45.0539 144.011 45.0762 144.078 45.1208C144.145 45.1654 144.219 45.2435 144.301 45.355L149.031 51.6241H148.752V45.5558C148.752 45.3922 148.793 45.2695 148.874 45.1877C148.964 45.0985 149.086 45.0539 149.242 45.0539C149.399 45.0539 149.518 45.0985 149.599 45.1877C149.681 45.2695 149.722 45.3922 149.722 45.5558V52.5722C149.722 52.7284 149.681 52.8511 149.599 52.9403C149.525 53.0296 149.425 53.0742 149.298 53.0742C149.179 53.0742 149.079 53.0481 148.997 52.9961C148.923 52.9515 148.845 52.8734 148.763 52.7618L144.044 46.4928H144.301V52.5722C144.301 52.7284 144.26 52.8511 144.178 52.9403C144.096 53.0296 143.977 53.0742 143.821 53.0742ZM155.235 53.0965C154.395 53.0965 153.681 52.9366 153.093 52.6168C152.513 52.2896 152.071 51.8248 151.766 51.2225C151.468 50.6201 151.32 49.9025 151.32 49.0696C151.32 48.4449 151.405 47.8872 151.576 47.3964C151.747 46.8981 151.996 46.4742 152.324 46.1247C152.658 45.7678 153.06 45.4963 153.528 45.3104C154.004 45.1245 154.54 45.0316 155.135 45.0316C155.596 45.0316 156.042 45.0948 156.473 45.2212C156.904 45.3402 157.299 45.5372 157.656 45.8124C157.745 45.8793 157.801 45.9574 157.823 46.0466C157.853 46.1359 157.856 46.2251 157.834 46.3144C157.812 46.4036 157.767 46.4817 157.7 46.5486C157.641 46.6155 157.563 46.6564 157.466 46.6713C157.377 46.6788 157.28 46.649 157.176 46.5821C156.871 46.359 156.551 46.1991 156.217 46.1024C155.889 46.0057 155.529 45.9574 155.135 45.9574C154.547 45.9574 154.049 46.0801 153.64 46.3255C153.231 46.5635 152.922 46.9167 152.714 47.3852C152.513 47.8463 152.413 48.4077 152.413 49.0696C152.413 50.0884 152.651 50.8618 153.127 51.3898C153.61 51.9178 154.324 52.1818 155.268 52.1818C155.618 52.1818 155.956 52.1483 156.284 52.0814C156.618 52.0145 156.938 51.9215 157.243 51.8025L157.02 52.3603V49.672H155.503C155.369 49.672 155.261 49.6348 155.179 49.5604C155.105 49.486 155.068 49.3857 155.068 49.2592C155.068 49.1328 155.105 49.0361 155.179 48.9692C155.261 48.9023 155.369 48.8688 155.503 48.8688H157.477C157.611 48.8688 157.715 48.906 157.789 48.9804C157.871 49.0547 157.912 49.1626 157.912 49.3039V52.1706C157.912 52.2896 157.89 52.3937 157.845 52.483C157.801 52.5648 157.726 52.6243 157.622 52.6614C157.31 52.7879 156.938 52.892 156.507 52.9738C156.075 53.0556 155.651 53.0965 155.235 53.0965ZM160.249 53.0742C160.086 53.0742 159.959 53.0296 159.87 52.9403C159.781 52.8436 159.736 52.7098 159.736 52.5387V45.6562C159.736 45.4852 159.781 45.355 159.87 45.2658C159.967 45.1766 160.097 45.132 160.26 45.132H162.915C163.763 45.132 164.414 45.3327 164.867 45.7343C165.328 46.1284 165.559 46.6899 165.559 47.4187C165.559 47.8946 165.455 48.3036 165.247 48.6457C165.038 48.9804 164.737 49.2369 164.343 49.4154C163.949 49.5939 163.473 49.6831 162.915 49.6831L163.027 49.5269H163.272C163.57 49.5269 163.826 49.6013 164.042 49.75C164.265 49.8988 164.462 50.1367 164.633 50.464L165.659 52.3491C165.726 52.4681 165.756 52.5834 165.749 52.6949C165.741 52.8065 165.7 52.8994 165.626 52.9738C165.551 53.0407 165.444 53.0742 165.302 53.0742C165.154 53.0742 165.035 53.0444 164.945 52.9849C164.856 52.918 164.778 52.8213 164.711 52.6949L163.506 50.4863C163.343 50.1739 163.157 49.9694 162.949 49.8727C162.74 49.7686 162.462 49.7166 162.112 49.7166H160.774V52.5387C160.774 52.7098 160.729 52.8436 160.64 52.9403C160.558 53.0296 160.428 53.0742 160.249 53.0742ZM160.774 48.9134H162.748C163.343 48.9134 163.789 48.7907 164.086 48.5453C164.384 48.2925 164.533 47.9244 164.533 47.441C164.533 46.9576 164.384 46.5932 164.086 46.3478C163.789 46.1024 163.343 45.9797 162.748 45.9797H160.774V48.9134ZM166.999 53.0742C166.866 53.0742 166.758 53.0444 166.676 52.9849C166.602 52.9254 166.557 52.8436 166.542 52.7395C166.527 52.6354 166.549 52.5202 166.609 52.3937L169.654 45.5001C169.721 45.3439 169.807 45.2323 169.911 45.1654C170.015 45.0911 170.13 45.0539 170.257 45.0539C170.383 45.0539 170.495 45.0911 170.591 45.1654C170.695 45.2323 170.785 45.3439 170.859 45.5001L173.904 52.3937C173.964 52.5202 173.986 52.6391 173.971 52.7507C173.964 52.8548 173.923 52.9366 173.848 52.9961C173.774 53.0481 173.67 53.0742 173.536 53.0742C173.387 53.0742 173.268 53.037 173.179 52.9626C173.09 52.8808 173.012 52.7656 172.945 52.6168L172.153 50.7651L172.633 51.0328H167.858L168.338 50.7651L167.546 52.6168C167.479 52.7804 167.405 52.8994 167.323 52.9738C167.241 53.0407 167.133 53.0742 166.999 53.0742ZM170.234 46.3032L168.494 50.4193L168.226 50.1851H172.264L172.008 50.4193L170.257 46.3032H170.234ZM176.874 53.0742C176.703 53.0742 176.573 53.0296 176.484 52.9403C176.395 52.8436 176.35 52.7098 176.35 52.5387V46.0132H173.907C173.766 46.0132 173.654 45.976 173.572 45.9016C173.491 45.8198 173.45 45.7083 173.45 45.567C173.45 45.4257 173.491 45.3179 173.572 45.2435C173.654 45.1691 173.766 45.132 173.907 45.132H179.83C179.979 45.132 180.09 45.1691 180.165 45.2435C180.247 45.3179 180.288 45.4257 180.288 45.567C180.288 45.7083 180.247 45.8198 180.165 45.9016C180.09 45.976 179.979 46.0132 179.83 46.0132H177.387V52.5387C177.387 52.7098 177.343 52.8436 177.253 52.9403C177.172 53.0296 177.045 53.0742 176.874 53.0742ZM183.511 53.0965C183.162 53.0965 182.823 53.0667 182.496 53.0072C182.169 52.9552 181.86 52.8734 181.57 52.7618C181.28 52.6503 181.02 52.5127 180.79 52.3491C180.693 52.2822 180.622 52.2004 180.578 52.1037C180.54 52.007 180.529 51.9141 180.544 51.8248C180.566 51.7282 180.607 51.6464 180.667 51.5794C180.734 51.5125 180.812 51.4716 180.901 51.4567C180.99 51.4419 181.087 51.4716 181.191 51.546C181.533 51.7765 181.89 51.9438 182.262 52.0479C182.641 52.152 183.058 52.2041 183.511 52.2041C184.166 52.2041 184.645 52.0851 184.95 51.8471C185.263 51.6092 185.419 51.2968 185.419 50.9101C185.419 50.5904 185.307 50.3412 185.084 50.1628C184.861 49.9769 184.486 49.8318 183.958 49.7277L182.775 49.4823C182.076 49.3336 181.552 49.0882 181.202 48.7461C180.86 48.404 180.689 47.9467 180.689 47.3741C180.689 47.0246 180.76 46.7085 180.901 46.4259C181.042 46.1359 181.243 45.8868 181.504 45.6785C181.764 45.4703 182.069 45.3104 182.418 45.1989C182.775 45.0873 183.169 45.0316 183.601 45.0316C184.062 45.0316 184.493 45.0948 184.895 45.2212C185.304 45.3476 185.672 45.5335 185.999 45.7789C186.088 45.8459 186.148 45.9277 186.177 46.0243C186.207 46.1136 186.211 46.2028 186.189 46.2921C186.174 46.3813 186.133 46.4557 186.066 46.5151C186.006 46.5746 185.928 46.6081 185.832 46.6155C185.742 46.623 185.642 46.5895 185.53 46.5151C185.233 46.3069 184.928 46.1582 184.616 46.069C184.303 45.9723 183.961 45.9239 183.589 45.9239C183.21 45.9239 182.879 45.9834 182.597 46.1024C182.322 46.2214 182.106 46.3887 181.95 46.6044C181.801 46.8126 181.727 47.058 181.727 47.3406C181.727 47.6827 181.831 47.9504 182.039 48.1438C182.247 48.3371 182.597 48.4858 183.087 48.5899L184.259 48.8242C185.002 48.9804 185.553 49.222 185.91 49.5493C186.274 49.869 186.456 50.3003 186.456 50.8432C186.456 51.1853 186.386 51.4939 186.244 51.7691C186.11 52.0442 185.917 52.2822 185.664 52.483C185.411 52.6763 185.103 52.8288 184.738 52.9403C184.374 53.0444 183.965 53.0965 183.511 53.0965ZM188.19 54.0893C188.115 54.1859 188.034 54.2417 187.944 54.2566C187.862 54.2715 187.788 54.2566 187.721 54.212C187.662 54.1673 187.628 54.1004 187.621 54.0112C187.613 53.9219 187.651 53.8253 187.732 53.7212C187.859 53.5576 187.944 53.3939 187.989 53.2303C188.041 53.0667 188.067 52.9143 188.067 52.773L188.112 53.0407C187.903 53.0407 187.732 52.9812 187.598 52.8622C187.472 52.7358 187.409 52.5722 187.409 52.3714C187.409 52.1781 187.468 52.0219 187.587 51.9029C187.706 51.7839 187.866 51.7244 188.067 51.7244C188.268 51.7244 188.428 51.7951 188.547 51.9364C188.673 52.0702 188.736 52.271 188.736 52.5387C188.736 52.6949 188.718 52.8585 188.68 53.0296C188.651 53.208 188.599 53.3865 188.524 53.565C188.45 53.7435 188.338 53.9182 188.19 54.0893ZM195.632 53.0742C195.468 53.0742 195.341 53.0296 195.252 52.9403C195.163 52.8436 195.118 52.7061 195.118 52.5276V48.9246L195.341 49.6162L192.575 45.7789C192.501 45.6748 192.464 45.567 192.464 45.4554C192.471 45.3365 192.516 45.2398 192.597 45.1654C192.679 45.0911 192.791 45.0539 192.932 45.0539C193.044 45.0539 193.144 45.0799 193.233 45.132C193.322 45.184 193.408 45.2695 193.49 45.3885L195.788 48.5565H195.531L197.829 45.3885C197.911 45.2621 197.993 45.1766 198.074 45.132C198.156 45.0799 198.26 45.0539 198.387 45.0539C198.521 45.0539 198.625 45.0911 198.699 45.1654C198.781 45.2323 198.822 45.3216 198.822 45.4331C198.829 45.5447 198.788 45.6599 198.699 45.7789L195.933 49.6162L196.156 48.9246V52.5276C196.156 52.892 195.981 53.0742 195.632 53.0742ZM202.8 53.0965C202.056 53.0965 201.413 52.9329 200.87 52.6057C200.327 52.271 199.904 51.8025 199.599 51.2002C199.301 50.5904 199.152 49.8765 199.152 49.0584C199.152 48.4412 199.238 47.8872 199.409 47.3964C199.58 46.8981 199.822 46.4742 200.134 46.1247C200.454 45.7678 200.837 45.4963 201.283 45.3104C201.737 45.1245 202.242 45.0316 202.8 45.0316C203.544 45.0316 204.187 45.1952 204.73 45.5224C205.273 45.8496 205.693 46.3144 205.99 46.9167C206.288 47.5191 206.437 48.2293 206.437 49.0473C206.437 49.6645 206.351 50.2223 206.18 50.7205C206.009 51.2188 205.764 51.6464 205.444 52.0033C205.131 52.3603 204.752 52.6317 204.306 52.8176C203.86 53.0035 203.358 53.0965 202.8 53.0965ZM202.8 52.1818C203.335 52.1818 203.793 52.0591 204.172 51.8137C204.551 51.5683 204.841 51.2113 205.042 50.7428C205.25 50.2743 205.354 49.7129 205.354 49.0584C205.354 48.0694 205.131 47.3034 204.685 46.7606C204.246 46.2177 203.618 45.9463 202.8 45.9463C202.265 45.9463 201.804 46.069 201.417 46.3144C201.038 46.5523 200.748 46.9056 200.547 47.3741C200.346 47.8351 200.246 48.3966 200.246 49.0584C200.246 50.0401 200.469 50.806 200.915 51.3563C201.361 51.9066 201.989 52.1818 202.8 52.1818ZM211.183 53.0965C210.662 53.0965 210.201 53.0296 209.8 52.8957C209.405 52.7544 209.074 52.5499 208.807 52.2822C208.539 52.007 208.335 51.6687 208.193 51.2671C208.059 50.8581 207.992 50.3859 207.992 49.8504V45.5781C207.992 45.3997 208.037 45.2695 208.126 45.1877C208.216 45.0985 208.342 45.0539 208.506 45.0539C208.677 45.0539 208.807 45.0985 208.896 45.1877C208.985 45.2695 209.03 45.3997 209.03 45.5781V49.817C209.03 50.6127 209.212 51.2076 209.576 51.6017C209.941 51.9884 210.476 52.1818 211.183 52.1818C211.889 52.1818 212.425 51.9884 212.789 51.6017C213.153 51.2076 213.336 50.6127 213.336 49.817V45.5781C213.336 45.3997 213.38 45.2695 213.469 45.1877C213.559 45.0985 213.685 45.0539 213.849 45.0539C214.012 45.0539 214.139 45.0985 214.228 45.1877C214.317 45.2695 214.362 45.3997 214.362 45.5781V49.8504C214.362 50.5569 214.239 51.1518 213.994 51.6352C213.756 52.1186 213.399 52.483 212.923 52.7284C212.454 52.9738 211.874 53.0965 211.183 53.0965ZM216.72 53.0742C216.557 53.0742 216.43 53.0296 216.341 52.9403C216.252 52.8436 216.207 52.7098 216.207 52.5387V45.6562C216.207 45.4852 216.252 45.355 216.341 45.2658C216.438 45.1766 216.568 45.132 216.732 45.132H219.386C220.234 45.132 220.885 45.3327 221.339 45.7343C221.8 46.1284 222.03 46.6899 222.03 47.4187C222.03 47.8946 221.926 48.3036 221.718 48.6457C221.51 48.9804 221.208 49.2369 220.814 49.4154C220.42 49.5939 219.944 49.6831 219.386 49.6831L219.498 49.5269H219.743C220.041 49.5269 220.297 49.6013 220.513 49.75C220.736 49.8988 220.933 50.1367 221.104 50.464L222.131 52.3491C222.197 52.4681 222.227 52.5834 222.22 52.6949C222.212 52.8065 222.171 52.8994 222.097 52.9738C222.023 53.0407 221.915 53.0742 221.774 53.0742C221.625 53.0742 221.506 53.0444 221.417 52.9849C221.327 52.918 221.249 52.8213 221.182 52.6949L219.978 50.4863C219.814 50.1739 219.628 49.9694 219.42 49.8727C219.212 49.7686 218.933 49.7166 218.583 49.7166H217.245V52.5387C217.245 52.7098 217.2 52.8436 217.111 52.9403C217.029 53.0296 216.899 53.0742 216.72 53.0742ZM217.245 48.9134H219.219C219.814 48.9134 220.26 48.7907 220.558 48.5453C220.855 48.2925 221.004 47.9244 221.004 47.441C221.004 46.9576 220.855 46.5932 220.558 46.3478C220.26 46.1024 219.814 45.9797 219.219 45.9797H217.245V48.9134ZM229.198 53.0965C228.849 53.0965 228.51 53.0667 228.183 53.0072C227.856 52.9552 227.547 52.8734 227.257 52.7618C226.967 52.6503 226.707 52.5127 226.476 52.3491C226.38 52.2822 226.309 52.2004 226.264 52.1037C226.227 52.007 226.216 51.9141 226.231 51.8248C226.253 51.7282 226.294 51.6464 226.354 51.5794C226.421 51.5125 226.499 51.4716 226.588 51.4567C226.677 51.4419 226.774 51.4716 226.878 51.546C227.22 51.7765 227.577 51.9438 227.949 52.0479C228.328 52.152 228.745 52.2041 229.198 52.2041C229.853 52.2041 230.332 52.0851 230.637 51.8471C230.949 51.6092 231.106 51.2968 231.106 50.9101C231.106 50.5904 230.994 50.3412 230.771 50.1628C230.548 49.9769 230.172 49.8318 229.644 49.7277L228.462 49.4823C227.763 49.3336 227.239 49.0882 226.889 48.7461C226.547 48.404 226.376 47.9467 226.376 47.3741C226.376 47.0246 226.447 46.7085 226.588 46.4259C226.729 46.1359 226.93 45.8868 227.19 45.6785C227.451 45.4703 227.755 45.3104 228.105 45.1989C228.462 45.0873 228.856 45.0316 229.287 45.0316C229.748 45.0316 230.18 45.0948 230.581 45.2212C230.99 45.3476 231.358 45.5335 231.686 45.7789C231.775 45.8459 231.834 45.9277 231.864 46.0243C231.894 46.1136 231.898 46.2028 231.875 46.2921C231.86 46.3813 231.82 46.4557 231.753 46.5151C231.693 46.5746 231.615 46.6081 231.518 46.6155C231.429 46.623 231.329 46.5895 231.217 46.5151C230.92 46.3069 230.615 46.1582 230.302 46.069C229.99 45.9723 229.648 45.9239 229.276 45.9239C228.897 45.9239 228.566 45.9834 228.283 46.1024C228.008 46.2214 227.793 46.3887 227.636 46.6044C227.488 46.8126 227.413 47.058 227.413 47.3406C227.413 47.6827 227.518 47.9504 227.726 48.1438C227.934 48.3371 228.283 48.4858 228.774 48.5899L229.946 48.8242C230.689 48.9804 231.239 49.222 231.596 49.5493C231.961 49.869 232.143 50.3003 232.143 50.8432C232.143 51.1853 232.072 51.4939 231.931 51.7691C231.797 52.0442 231.604 52.2822 231.351 52.483C231.098 52.6763 230.79 52.8288 230.425 52.9403C230.061 53.0444 229.652 53.0965 229.198 53.0965ZM236.975 53.0965C236.194 53.0965 235.525 52.9329 234.967 52.6057C234.409 52.2785 233.978 51.8137 233.673 51.2113C233.376 50.6015 233.227 49.8839 233.227 49.0584C233.227 48.4412 233.312 47.8872 233.483 47.3964C233.654 46.8981 233.9 46.4742 234.22 46.1247C234.539 45.7678 234.93 45.4963 235.391 45.3104C235.859 45.1245 236.387 45.0316 236.975 45.0316C237.421 45.0316 237.849 45.0948 238.258 45.2212C238.674 45.3476 239.031 45.5261 239.329 45.7566C239.448 45.8384 239.526 45.9314 239.563 46.0355C239.6 46.1396 239.604 46.24 239.574 46.3367C239.552 46.4259 239.503 46.504 239.429 46.5709C239.362 46.6304 239.277 46.6639 239.172 46.6713C239.068 46.6713 238.957 46.6304 238.838 46.5486C238.577 46.3478 238.291 46.2028 237.979 46.1136C237.674 46.0169 237.347 45.9686 236.997 45.9686C236.425 45.9686 235.937 46.0913 235.536 46.3367C235.142 46.5746 234.841 46.9242 234.632 47.3852C234.432 47.8389 234.331 48.3966 234.331 49.0584C234.331 49.7129 234.432 50.2743 234.632 50.7428C234.841 51.2039 235.142 51.5571 235.536 51.8025C235.937 52.0405 236.425 52.1595 236.997 52.1595C237.347 52.1595 237.678 52.1111 237.99 52.0145C238.31 51.9178 238.603 51.7691 238.871 51.5683C238.99 51.4865 239.098 51.4493 239.195 51.4567C239.299 51.4642 239.384 51.4976 239.451 51.5571C239.518 51.6092 239.563 51.6835 239.585 51.7802C239.615 51.8695 239.615 51.9624 239.585 52.0591C239.555 52.1558 239.488 52.2413 239.384 52.3157C239.079 52.5759 238.715 52.773 238.291 52.9069C237.875 53.0333 237.436 53.0965 236.975 53.0965ZM244.162 53.0965C243.419 53.0965 242.775 52.9329 242.232 52.6057C241.69 52.271 241.266 51.8025 240.961 51.2002C240.663 50.5904 240.515 49.8765 240.515 49.0584C240.515 48.4412 240.6 47.8872 240.771 47.3964C240.942 46.8981 241.184 46.4742 241.496 46.1247C241.816 45.7678 242.199 45.4963 242.645 45.3104C243.099 45.1245 243.604 45.0316 244.162 45.0316C244.906 45.0316 245.549 45.1952 246.092 45.5224C246.635 45.8496 247.055 46.3144 247.352 46.9167C247.65 47.5191 247.799 48.2293 247.799 49.0473C247.799 49.6645 247.713 50.2223 247.542 50.7205C247.371 51.2188 247.126 51.6464 246.806 52.0033C246.494 52.3603 246.114 52.6317 245.668 52.8176C245.222 53.0035 244.72 53.0965 244.162 53.0965ZM244.162 52.1818C244.698 52.1818 245.155 52.0591 245.534 51.8137C245.913 51.5683 246.203 51.2113 246.404 50.7428C246.613 50.2743 246.717 49.7129 246.717 49.0584C246.717 48.0694 246.494 47.3034 246.047 46.7606C245.609 46.2177 244.98 45.9463 244.162 45.9463C243.627 45.9463 243.166 46.069 242.779 46.3144C242.4 46.5523 242.11 46.9056 241.909 47.3741C241.708 47.8351 241.608 48.3966 241.608 49.0584C241.608 50.0401 241.831 50.806 242.277 51.3563C242.723 51.9066 243.352 52.1818 244.162 52.1818ZM249.923 53.0742C249.76 53.0742 249.633 53.0296 249.544 52.9403C249.455 52.8436 249.41 52.7098 249.41 52.5387V45.6562C249.41 45.4852 249.455 45.355 249.544 45.2658C249.641 45.1766 249.771 45.132 249.935 45.132H252.589C253.437 45.132 254.088 45.3327 254.542 45.7343C255.003 46.1284 255.233 46.6899 255.233 47.4187C255.233 47.8946 255.129 48.3036 254.921 48.6457C254.713 48.9804 254.411 49.2369 254.017 49.4154C253.623 49.5939 253.147 49.6831 252.589 49.6831L252.701 49.5269H252.946C253.244 49.5269 253.5 49.6013 253.716 49.75C253.939 49.8988 254.136 50.1367 254.307 50.464L255.334 52.3491C255.4 52.4681 255.43 52.5834 255.423 52.6949C255.415 52.8065 255.374 52.8994 255.3 52.9738C255.226 53.0407 255.118 53.0742 254.977 53.0742C254.828 53.0742 254.709 53.0444 254.62 52.9849C254.53 52.918 254.452 52.8213 254.385 52.6949L253.181 50.4863C253.017 50.1739 252.831 49.9694 252.623 49.8727C252.415 49.7686 252.136 49.7166 251.786 49.7166H250.448V52.5387C250.448 52.7098 250.403 52.8436 250.314 52.9403C250.232 53.0296 250.102 53.0742 249.923 53.0742ZM250.448 48.9134H252.422C253.017 48.9134 253.463 48.7907 253.761 48.5453C254.058 48.2925 254.207 47.9244 254.207 47.441C254.207 46.9576 254.058 46.5932 253.761 46.3478C253.463 46.1024 253.017 45.9797 252.422 45.9797H250.448V48.9134ZM257.474 52.9961C257.295 52.9961 257.158 52.9478 257.061 52.8511C256.964 52.7544 256.916 52.6168 256.916 52.4384V45.6897C256.916 45.5112 256.964 45.3736 257.061 45.277C257.158 45.1803 257.295 45.132 257.474 45.132H261.579C261.72 45.132 261.828 45.1691 261.902 45.2435C261.984 45.3104 262.025 45.4108 262.025 45.5447C262.025 45.686 261.984 45.7938 261.902 45.8682C261.828 45.9425 261.72 45.9797 261.579 45.9797H257.92V48.5788H261.344C261.486 48.5788 261.593 48.616 261.668 48.6903C261.742 48.7647 261.779 48.8688 261.779 49.0027C261.779 49.144 261.742 49.2518 261.668 49.3262C261.593 49.3931 261.486 49.4266 261.344 49.4266H257.92V52.1483H261.579C261.72 52.1483 261.828 52.1855 261.902 52.2599C261.984 52.3268 262.025 52.4309 262.025 52.5722C262.025 52.7135 261.984 52.8213 261.902 52.8957C261.828 52.9626 261.72 52.9961 261.579 52.9961H257.474ZM266.874 53.0742C266.71 53.0742 266.584 53.0296 266.494 52.9403C266.405 52.8436 266.36 52.7098 266.36 52.5387V45.5893C266.36 45.4108 266.405 45.277 266.494 45.1877C266.584 45.0985 266.71 45.0539 266.874 45.0539C267.045 45.0539 267.175 45.0985 267.264 45.1877C267.353 45.277 267.398 45.4108 267.398 45.5893V52.5387C267.398 52.7098 267.353 52.8436 267.264 52.9403C267.182 53.0296 267.052 53.0742 266.874 53.0742ZM271.857 53.0965C271.507 53.0965 271.169 53.0667 270.842 53.0072C270.514 52.9552 270.206 52.8734 269.916 52.7618C269.626 52.6503 269.365 52.5127 269.135 52.3491C269.038 52.2822 268.968 52.2004 268.923 52.1037C268.886 52.007 268.875 51.9141 268.889 51.8248C268.912 51.7282 268.953 51.6464 269.012 51.5794C269.079 51.5125 269.157 51.4716 269.246 51.4567C269.336 51.4419 269.432 51.4716 269.536 51.546C269.878 51.7765 270.235 51.9438 270.607 52.0479C270.987 52.152 271.403 52.2041 271.857 52.2041C272.511 52.2041 272.991 52.0851 273.296 51.8471C273.608 51.6092 273.764 51.2968 273.764 50.9101C273.764 50.5904 273.653 50.3412 273.429 50.1628C273.206 49.9769 272.831 49.8318 272.303 49.7277L271.12 49.4823C270.421 49.3336 269.897 49.0882 269.548 48.7461C269.205 48.404 269.034 47.9467 269.034 47.3741C269.034 47.0246 269.105 46.7085 269.246 46.4259C269.388 46.1359 269.588 45.8868 269.849 45.6785C270.109 45.4703 270.414 45.3104 270.763 45.1989C271.12 45.0873 271.515 45.0316 271.946 45.0316C272.407 45.0316 272.838 45.0948 273.24 45.2212C273.649 45.3476 274.017 45.5335 274.344 45.7789C274.433 45.8459 274.493 45.9277 274.523 46.0243C274.552 46.1136 274.556 46.2028 274.534 46.2921C274.519 46.3813 274.478 46.4557 274.411 46.5151C274.352 46.5746 274.273 46.6081 274.177 46.6155C274.088 46.623 273.987 46.5895 273.876 46.5151C273.578 46.3069 273.273 46.1582 272.961 46.069C272.649 45.9723 272.307 45.9239 271.935 45.9239C271.555 45.9239 271.224 45.9834 270.942 46.1024C270.667 46.2214 270.451 46.3887 270.295 46.6044C270.146 46.8126 270.072 47.058 270.072 47.3406C270.072 47.6827 270.176 47.9504 270.384 48.1438C270.592 48.3371 270.942 48.4858 271.433 48.5899L272.604 48.8242C273.348 48.9804 273.898 49.222 274.255 49.5493C274.619 49.869 274.801 50.3003 274.801 50.8432C274.801 51.1853 274.731 51.4939 274.59 51.7691C274.456 52.0442 274.262 52.2822 274.009 52.483C273.757 52.6763 273.448 52.8288 273.084 52.9403C272.719 53.0444 272.31 53.0965 271.857 53.0965Z" fill="#4F4F4F"/>
<path d="M184.024 99.758C183.345 99.758 182.813 99.5769 182.428 99.2147C182.043 98.8298 181.851 98.2865 181.851 97.5848V94.9362H173.464C172.762 94.9362 172.196 94.789 171.766 94.4947C171.358 94.2005 171.155 93.7364 171.155 93.1025C171.155 92.7403 171.245 92.3442 171.426 91.9141C171.63 91.4839 171.981 90.918 172.479 90.2162L181.783 76.7356C182.1 76.2602 182.451 75.898 182.836 75.649C183.22 75.4 183.662 75.2754 184.16 75.2754C184.748 75.2754 185.235 75.4566 185.62 75.8188C186.005 76.1583 186.197 76.7016 186.197 77.4487V91.3368H187.861C188.518 91.3368 189.004 91.4953 189.321 91.8122C189.661 92.1065 189.831 92.5479 189.831 93.1365C189.831 93.7251 189.661 94.1778 189.321 94.4947C189.004 94.789 188.518 94.9362 187.861 94.9362H186.197V97.5848C186.197 98.2865 186.005 98.8298 185.62 99.2147C185.235 99.5769 184.703 99.758 184.024 99.758ZM181.851 91.3368V80.7424H182.836L174.822 92.4913V91.3368H181.851ZM200.547 99.8259C197.718 99.8259 195.556 98.7619 194.062 96.634C192.568 94.4834 191.821 91.4274 191.821 87.4658C191.821 84.7945 192.149 82.5534 192.805 80.7424C193.485 78.9088 194.469 77.5279 195.76 76.5997C197.073 75.6716 198.669 75.2075 200.547 75.2075C203.4 75.2075 205.562 76.2489 207.033 78.3315C208.527 80.4142 209.274 83.4476 209.274 87.4318C209.274 90.0804 208.935 92.3329 208.256 94.1891C207.599 96.0228 206.626 97.4263 205.335 98.3997C204.045 99.3505 202.449 99.8259 200.547 99.8259ZM200.547 96.2605C202.087 96.2605 203.219 95.5474 203.943 94.1212C204.69 92.6951 205.064 90.4653 205.064 87.4318C205.064 84.3984 204.69 82.2025 203.943 80.8443C203.219 79.4634 202.087 78.773 200.547 78.773C199.031 78.773 197.899 79.4634 197.152 80.8443C196.405 82.2025 196.031 84.3984 196.031 87.4318C196.031 90.4653 196.405 92.6951 197.152 94.1212C197.899 95.5474 199.031 96.2605 200.547 96.2605ZM220.908 99.8259C218.078 99.8259 215.916 98.7619 214.422 96.634C212.928 94.4834 212.181 91.4274 212.181 87.4658C212.181 84.7945 212.509 82.5534 213.166 80.7424C213.845 78.9088 214.83 77.5279 216.12 76.5997C217.433 75.6716 219.029 75.2075 220.908 75.2075C223.76 75.2075 225.922 76.2489 227.394 78.3315C228.888 80.4142 229.635 83.4476 229.635 87.4318C229.635 90.0804 229.295 92.3329 228.616 94.1891C227.96 96.0228 226.986 97.4263 225.696 98.3997C224.405 99.3505 222.81 99.8259 220.908 99.8259ZM220.908 96.2605C222.447 96.2605 223.579 95.5474 224.304 94.1212C225.051 92.6951 225.424 90.4653 225.424 87.4318C225.424 84.3984 225.051 82.2025 224.304 80.8443C223.579 79.4634 222.447 78.773 220.908 78.773C219.391 78.773 218.259 79.4634 217.512 80.8443C216.765 82.2025 216.392 84.3984 216.392 87.4318C216.392 90.4653 216.765 92.6951 217.512 94.1212C218.259 95.5474 219.391 96.2605 220.908 96.2605Z" fill="#333333"/>
</g>
<g opacity="0.5">
<path fill-rule="evenodd" clip-rule="evenodd" d="M88.2174 38.9343C83.0914 38.9082 77.924 39.6053 72.9213 40.3179C71.8447 40.4749 71.0769 41.4628 71.2824 42.5004C71.4138 43.5592 72.4139 44.2854 73.416 44.1488C78.2637 43.4541 83.2711 42.7602 88.1604 42.7979C89.2037 42.8108 90.0871 41.9503 90.1129 40.881C90.1388 39.8125 89.2609 38.9479 88.2174 38.9343Z" fill="#9275EA"/>
<path fill-rule="evenodd" clip-rule="evenodd" d="M94.8969 31.2501C85.0883 25.542 74.5899 21.1058 64.8723 15.147C63.9969 14.5816 62.7962 14.8688 62.2452 15.773C61.6944 16.678 61.9444 17.8761 62.8941 18.421C72.618 24.4028 83.1226 28.8614 92.9375 34.5926C93.8824 35.1196 95.0746 34.8028 95.6201 33.8785C96.0915 32.9754 95.8418 31.7772 94.8969 31.2501Z" fill="#9275EA"/>
<path fill-rule="evenodd" clip-rule="evenodd" d="M90.4345 10.4155C91.8883 14.8272 93.3416 19.239 94.7956 23.6515C95.0775 24.6761 96.1878 25.2216 97.2151 24.8854C98.2421 24.5484 98.7452 23.4718 98.4631 22.4465C97.0073 18.0273 95.5521 13.6088 94.0965 9.1904C93.7403 8.18628 92.6317 7.64589 91.6061 7.98806C90.6548 8.30976 90.0785 9.41212 90.4345 10.4155Z" fill="#9275EA"/>
</g>
<defs>
<filter id="filter0_d_335_2712" x="6.12602" y="122.563" width="264.412" height="118.326" filterUnits="userSpaceOnUse" color-interpolation-filters="sRGB">
<feFlood flood-opacity="0" result="BackgroundImageFix"/>
<feColorMatrix in="SourceAlpha" type="matrix" values="0 0 0 0 0 0 0 0 0 0 0 0 0 0 0 0 0 0 127 0" result="hardAlpha"/>
<feOffset dy="2.43699"/>
<feGaussianBlur stdDeviation="2.43699"/>
<feComposite in2="hardAlpha" operator="out"/>
<feColorMatrix type="matrix" values="0 0 0 0 0 0 0 0 0 0 0 0 0 0 0 0 0 0 0.07 0"/>
<feBlend mode="normal" in2="BackgroundImageFix" result="effect1_dropShadow_335_2712"/>
<feBlend mode="normal" in="SourceGraphic" in2="effect1_dropShadow_335_2712" result="shape"/>
</filter>
<filter id="filter1_d_335_2712" x="89.4659" y="21.233" width="223.068" height="122.551" filterUnits="userSpaceOnUse" color-interpolation-filters="sRGB">
<feFlood flood-opacity="0" result="BackgroundImageFix"/>
<feColorMatrix in="SourceAlpha" type="matrix" values="0 0 0 0 0 0 0 0 0 0 0 0 0 0 0 0 0 0 127 0" result="hardAlpha"/>
<feOffset dy="5.76704"/>
<feGaussianBlur stdDeviation="5.76704"/>
<feComposite in2="hardAlpha" operator="out"/>
<feColorMatrix type="matrix" values="0 0 0 0 0 0 0 0 0 0 0 0 0 0 0 0 0 0 0.09 0"/>
<feBlend mode="normal" in2="BackgroundImageFix" result="effect1_dropShadow_335_2712"/>
<feBlend mode="normal" in="SourceGraphic" in2="effect1_dropShadow_335_2712" result="shape"/>
</filter>
</defs>
</svg>
