<svg width="484" height="280" viewBox="0 0 484 280" fill="none" xmlns="http://www.w3.org/2000/svg">
<path fill-rule="evenodd" clip-rule="evenodd" d="M262.249 239.303C212.278 274.951 152.783 271.182 108.921 245.607C64.3249 219.602 34.01 172.878 55.0721 118.497C77.2039 61.3542 137.714 22.1823 198.808 13.5248C263.796 4.31526 329.033 21.9695 344.627 77.4645C360.313 133.29 319.38 198.549 262.249 239.303Z" fill="#FCF7FF"/>
<g filter="url(#filter0_d_5199_19075)">
<rect x="123.023" y="98" width="337.94" height="167.026" rx="3.44707" fill="white" shape-rendering="crispEdges"/>
<path d="M143.849 116.562H142.854C142.795 116.276 142.692 116.024 142.544 115.807C142.4 115.591 142.223 115.409 142.014 115.261C141.808 115.111 141.58 114.999 141.328 114.924C141.076 114.849 140.814 114.812 140.541 114.812C140.043 114.812 139.592 114.938 139.188 115.189C138.787 115.441 138.467 115.811 138.229 116.301C137.993 116.791 137.875 117.392 137.875 118.104C137.875 118.816 137.993 119.417 138.229 119.906C138.467 120.396 138.787 120.767 139.188 121.018C139.592 121.27 140.043 121.396 140.541 121.396C140.814 121.396 141.076 121.358 141.328 121.283C141.58 121.208 141.808 121.097 142.014 120.95C142.223 120.8 142.4 120.617 142.544 120.4C142.692 120.181 142.795 119.929 142.854 119.645H143.849C143.774 120.066 143.638 120.442 143.44 120.774C143.242 121.105 142.995 121.388 142.701 121.621C142.407 121.851 142.076 122.026 141.709 122.147C141.345 122.267 140.956 122.327 140.541 122.327C139.84 122.327 139.216 122.156 138.67 121.813C138.124 121.471 137.695 120.984 137.381 120.352C137.068 119.72 136.912 118.971 136.912 118.104C136.912 117.237 137.068 116.487 137.381 115.856C137.695 115.224 138.124 114.737 138.67 114.394C139.216 114.052 139.84 113.88 140.541 113.88C140.956 113.88 141.345 113.941 141.709 114.061C142.076 114.181 142.407 114.358 142.701 114.591C142.995 114.821 143.242 115.102 143.44 115.434C143.638 115.763 143.774 116.139 143.849 116.562ZM147.144 122.359C146.753 122.359 146.399 122.286 146.08 122.139C145.762 121.989 145.509 121.773 145.322 121.492C145.134 121.208 145.041 120.866 145.041 120.464C145.041 120.111 145.11 119.825 145.249 119.605C145.388 119.383 145.575 119.209 145.807 119.083C146.04 118.958 146.297 118.864 146.578 118.802C146.862 118.738 147.147 118.687 147.433 118.65C147.808 118.602 148.112 118.565 148.345 118.541C148.58 118.515 148.751 118.47 148.859 118.409C148.968 118.347 149.023 118.24 149.023 118.088V118.056C149.023 117.659 148.915 117.352 148.698 117.132C148.484 116.913 148.159 116.803 147.722 116.803C147.27 116.803 146.915 116.902 146.658 117.1C146.402 117.298 146.221 117.51 146.116 117.734L145.217 117.413C145.378 117.039 145.592 116.747 145.86 116.538C146.13 116.327 146.424 116.179 146.743 116.096C147.064 116.011 147.38 115.968 147.69 115.968C147.888 115.968 148.116 115.992 148.373 116.04C148.632 116.086 148.883 116.181 149.124 116.325C149.367 116.47 149.569 116.688 149.73 116.98C149.89 117.271 149.971 117.662 149.971 118.152V122.215H149.023V121.38H148.975C148.911 121.514 148.804 121.657 148.654 121.809C148.504 121.962 148.305 122.092 148.056 122.199C147.807 122.306 147.503 122.359 147.144 122.359ZM147.289 121.508C147.663 121.508 147.979 121.435 148.236 121.287C148.496 121.14 148.691 120.95 148.822 120.717C148.956 120.485 149.023 120.24 149.023 119.983V119.115C148.983 119.164 148.895 119.208 148.758 119.248C148.624 119.285 148.469 119.319 148.292 119.348C148.118 119.375 147.949 119.399 147.783 119.421C147.619 119.439 147.487 119.455 147.385 119.469C147.139 119.501 146.909 119.553 146.695 119.625C146.483 119.695 146.312 119.801 146.181 119.943C146.052 120.082 145.988 120.272 145.988 120.513C145.988 120.842 146.11 121.091 146.353 121.259C146.6 121.425 146.911 121.508 147.289 121.508ZM151.7 122.215V116.048H152.615V116.98H152.68C152.792 116.675 152.995 116.427 153.29 116.237C153.584 116.047 153.916 115.952 154.285 115.952C154.355 115.952 154.442 115.953 154.546 115.956C154.651 115.959 154.73 115.963 154.783 115.968V116.931C154.751 116.923 154.678 116.911 154.562 116.895C154.45 116.877 154.331 116.867 154.205 116.867C153.905 116.867 153.638 116.93 153.402 117.056C153.169 117.179 152.985 117.35 152.848 117.57C152.714 117.787 152.647 118.034 152.647 118.313V122.215H151.7ZM158.047 122.343C157.533 122.343 157.08 122.214 156.686 121.954C156.293 121.692 155.985 121.322 155.763 120.846C155.541 120.367 155.43 119.801 155.43 119.148C155.43 118.5 155.541 117.938 155.763 117.461C155.985 116.985 156.294 116.617 156.69 116.357C157.086 116.098 157.544 115.968 158.063 115.968C158.465 115.968 158.782 116.035 159.015 116.169C159.25 116.3 159.43 116.45 159.553 116.618C159.678 116.784 159.776 116.921 159.846 117.028H159.926V113.993H160.874V122.215H159.958V121.267H159.846C159.776 121.38 159.677 121.522 159.549 121.693C159.42 121.862 159.237 122.013 158.999 122.147C158.76 122.278 158.443 122.343 158.047 122.343ZM158.176 121.492C158.556 121.492 158.877 121.393 159.139 121.195C159.401 120.994 159.601 120.717 159.737 120.364C159.874 120.008 159.942 119.597 159.942 119.132C159.942 118.671 159.875 118.268 159.741 117.923C159.608 117.575 159.41 117.305 159.147 117.112C158.885 116.917 158.561 116.819 158.176 116.819C157.774 116.819 157.44 116.922 157.172 117.128C156.907 117.332 156.708 117.609 156.574 117.959C156.443 118.307 156.377 118.698 156.377 119.132C156.377 119.57 156.444 119.969 156.578 120.328C156.714 120.684 156.915 120.968 157.18 121.179C157.448 121.388 157.78 121.492 158.176 121.492ZM172.568 113.993V122.215H171.605L167.124 115.759H167.044V122.215H166.048V113.993H167.012L171.508 120.464H171.589V113.993H172.568ZM178.318 119.694V116.048H179.266V122.215H178.318V121.171H178.254C178.11 121.484 177.885 121.75 177.58 121.97C177.275 122.187 176.889 122.295 176.423 122.295C176.038 122.295 175.695 122.211 175.396 122.042C175.096 121.871 174.86 121.614 174.689 121.271C174.518 120.926 174.432 120.491 174.432 119.967V116.048H175.38V119.902C175.38 120.352 175.505 120.711 175.757 120.978C176.011 121.246 176.335 121.38 176.729 121.38C176.964 121.38 177.204 121.32 177.447 121.199C177.693 121.079 177.9 120.894 178.066 120.645C178.234 120.396 178.318 120.079 178.318 119.694ZM181.001 122.215V116.048H181.917V117.012H181.997C182.125 116.683 182.333 116.427 182.619 116.245C182.906 116.06 183.249 115.968 183.651 115.968C184.058 115.968 184.396 116.06 184.667 116.245C184.94 116.427 185.152 116.683 185.305 117.012H185.369C185.527 116.693 185.764 116.44 186.08 116.253C186.396 116.063 186.774 115.968 187.216 115.968C187.767 115.968 188.218 116.141 188.569 116.486C188.92 116.828 189.095 117.362 189.095 118.088V122.215H188.147V118.088C188.147 117.633 188.023 117.308 187.774 117.112C187.525 116.917 187.232 116.819 186.895 116.819C186.461 116.819 186.125 116.95 185.887 117.213C185.649 117.472 185.53 117.801 185.53 118.2V122.215H184.566V117.991C184.566 117.641 184.453 117.358 184.225 117.144C183.998 116.927 183.704 116.819 183.346 116.819C183.1 116.819 182.869 116.885 182.655 117.016C182.444 117.147 182.273 117.329 182.141 117.562C182.013 117.792 181.949 118.058 181.949 118.361V122.215H181.001ZM190.956 122.215V113.993H191.903V117.028H191.983C192.053 116.921 192.149 116.784 192.273 116.618C192.398 116.45 192.578 116.3 192.811 116.169C193.046 116.035 193.365 115.968 193.766 115.968C194.285 115.968 194.743 116.098 195.139 116.357C195.535 116.617 195.844 116.985 196.066 117.461C196.289 117.938 196.4 118.5 196.4 119.148C196.4 119.801 196.289 120.367 196.066 120.846C195.844 121.322 195.537 121.692 195.143 121.954C194.75 122.214 194.296 122.343 193.782 122.343C193.386 122.343 193.069 122.278 192.831 122.147C192.592 122.013 192.409 121.862 192.281 121.693C192.152 121.522 192.053 121.38 191.983 121.267H191.871V122.215H190.956ZM191.887 119.132C191.887 119.597 191.955 120.008 192.092 120.364C192.228 120.717 192.428 120.994 192.69 121.195C192.952 121.393 193.274 121.492 193.654 121.492C194.05 121.492 194.38 121.388 194.645 121.179C194.913 120.968 195.114 120.684 195.247 120.328C195.384 119.969 195.452 119.57 195.452 119.132C195.452 118.698 195.385 118.307 195.251 117.959C195.12 117.609 194.921 117.332 194.653 117.128C194.388 116.922 194.055 116.819 193.654 116.819C193.268 116.819 192.944 116.917 192.682 117.112C192.42 117.305 192.222 117.575 192.088 117.923C191.954 118.268 191.887 118.671 191.887 119.132ZM200.434 122.343C199.84 122.343 199.328 122.212 198.897 121.95C198.469 121.685 198.138 121.316 197.905 120.842C197.675 120.365 197.56 119.811 197.56 119.18C197.56 118.548 197.675 117.991 197.905 117.51C198.138 117.025 198.462 116.648 198.877 116.377C199.294 116.104 199.781 115.968 200.338 115.968C200.659 115.968 200.976 116.021 201.29 116.129C201.603 116.236 201.888 116.41 202.145 116.65C202.402 116.889 202.606 117.204 202.759 117.598C202.912 117.991 202.988 118.476 202.988 119.051V119.453H198.234V118.634H202.024C202.024 118.286 201.955 117.975 201.815 117.702C201.679 117.429 201.484 117.214 201.229 117.056C200.978 116.898 200.681 116.819 200.338 116.819C199.961 116.819 199.634 116.913 199.358 117.1C199.085 117.285 198.875 117.526 198.728 117.823C198.581 118.12 198.507 118.438 198.507 118.778V119.324C198.507 119.79 198.588 120.185 198.748 120.509C198.912 120.83 199.138 121.075 199.427 121.243C199.716 121.409 200.052 121.492 200.434 121.492C200.683 121.492 200.908 121.457 201.109 121.388C201.312 121.316 201.488 121.208 201.635 121.067C201.782 120.922 201.896 120.743 201.976 120.529L202.891 120.786C202.795 121.096 202.633 121.369 202.406 121.605C202.178 121.837 201.897 122.019 201.563 122.151C201.228 122.279 200.852 122.343 200.434 122.343ZM204.429 122.215V116.048H205.344V116.98H205.409C205.521 116.675 205.724 116.427 206.019 116.237C206.313 116.047 206.645 115.952 207.015 115.952C207.084 115.952 207.171 115.953 207.275 115.956C207.38 115.959 207.459 115.963 207.512 115.968V116.931C207.48 116.923 207.407 116.911 207.292 116.895C207.179 116.877 207.06 116.867 206.934 116.867C206.634 116.867 206.367 116.93 206.131 117.056C205.898 117.179 205.714 117.35 205.577 117.57C205.443 117.787 205.377 118.034 205.377 118.313V122.215H204.429Z" fill="#333333"/>
<g filter="url(#filter1_d_5199_19075)">
<rect x="136.237" y="131.676" width="221.069" height="30.1043" rx="3.23012" fill="white"/>
<path d="M149.135 143.679V150.727H148.281V144.574H148.24L146.52 145.716V144.849L148.281 143.679H149.135ZM151.162 150.727V150.107L153.488 147.561C153.761 147.262 153.986 147.003 154.162 146.783C154.339 146.56 154.47 146.352 154.555 146.157C154.642 145.959 154.686 145.753 154.686 145.537C154.686 145.29 154.626 145.075 154.507 144.894C154.39 144.713 154.229 144.573 154.025 144.474C153.821 144.375 153.591 144.326 153.337 144.326C153.066 144.326 152.83 144.382 152.628 144.495C152.428 144.605 152.273 144.76 152.163 144.959C152.055 145.159 152.001 145.393 152.001 145.661H151.189C151.189 145.248 151.284 144.886 151.475 144.574C151.665 144.262 151.925 144.019 152.253 143.844C152.583 143.67 152.953 143.583 153.364 143.583C153.777 143.583 154.143 143.67 154.462 143.844C154.781 144.019 155.031 144.254 155.212 144.55C155.393 144.846 155.484 145.175 155.484 145.537C155.484 145.797 155.437 146.05 155.343 146.298C155.251 146.543 155.09 146.817 154.861 147.12C154.634 147.421 154.318 147.788 153.915 148.221L152.332 149.914V149.97H155.608V150.727H151.162ZM159.41 150.823C158.956 150.823 158.551 150.745 158.196 150.589C157.842 150.433 157.561 150.216 157.352 149.939C157.146 149.659 157.034 149.334 157.015 148.965H157.882C157.901 149.192 157.979 149.388 158.116 149.553C158.254 149.716 158.434 149.842 158.657 149.932C158.879 150.021 159.126 150.066 159.396 150.066C159.699 150.066 159.968 150.013 160.202 149.908C160.436 149.802 160.619 149.655 160.752 149.467C160.885 149.279 160.952 149.061 160.952 148.813C160.952 148.554 160.888 148.326 160.759 148.128C160.631 147.929 160.443 147.773 160.195 147.66C159.947 147.548 159.644 147.492 159.286 147.492H158.722V146.735H159.286C159.566 146.735 159.812 146.684 160.023 146.583C160.236 146.482 160.402 146.34 160.522 146.157C160.643 145.973 160.704 145.758 160.704 145.51C160.704 145.271 160.651 145.064 160.546 144.887C160.44 144.71 160.291 144.573 160.098 144.474C159.908 144.375 159.683 144.326 159.424 144.326C159.181 144.326 158.951 144.371 158.736 144.46C158.522 144.547 158.348 144.675 158.213 144.842C158.077 145.007 158.004 145.207 157.992 145.441H157.167C157.18 145.072 157.292 144.748 157.5 144.471C157.709 144.191 157.982 143.973 158.319 143.817C158.659 143.661 159.032 143.583 159.438 143.583C159.874 143.583 160.248 143.671 160.56 143.848C160.872 144.022 161.111 144.253 161.279 144.539C161.446 144.826 161.53 145.136 161.53 145.468C161.53 145.865 161.426 146.204 161.217 146.484C161.01 146.763 160.729 146.957 160.374 147.065V147.12C160.819 147.194 161.166 147.383 161.416 147.688C161.667 147.991 161.792 148.366 161.792 148.813C161.792 149.196 161.687 149.541 161.478 149.846C161.272 150.148 160.99 150.387 160.632 150.561C160.274 150.736 159.867 150.823 159.41 150.823ZM163.034 149.281V148.579L166.131 143.679H166.64V144.766H166.296L163.956 148.469V148.524H168.127V149.281H163.034ZM166.351 150.727V149.068V148.741V143.679H167.163V150.727H166.351ZM174.619 143.679V150.727H173.766V144.574H173.725L172.004 145.716V144.849L173.766 143.679H174.619ZM176.646 150.727V150.107L178.972 147.561C179.245 147.262 179.47 147.003 179.647 146.783C179.824 146.56 179.954 146.352 180.039 146.157C180.126 145.959 180.17 145.753 180.17 145.537C180.17 145.29 180.11 145.075 179.991 144.894C179.874 144.713 179.713 144.573 179.509 144.474C179.305 144.375 179.076 144.326 178.821 144.326C178.55 144.326 178.314 144.382 178.112 144.495C177.913 144.605 177.758 144.76 177.648 144.959C177.54 145.159 177.486 145.393 177.486 145.661H176.674C176.674 145.248 176.769 144.886 176.959 144.574C177.15 144.262 177.409 144.019 177.737 143.844C178.067 143.67 178.438 143.583 178.849 143.583C179.262 143.583 179.627 143.67 179.946 143.844C180.265 144.019 180.515 144.254 180.697 144.55C180.878 144.846 180.968 145.175 180.968 145.537C180.968 145.797 180.921 146.05 180.827 146.298C180.736 146.543 180.575 146.817 180.346 147.12C180.118 147.421 179.803 147.788 179.399 148.221L177.816 149.914V149.97H181.092V150.727H176.646ZM184.895 150.823C184.441 150.823 184.036 150.745 183.68 150.589C183.327 150.433 183.046 150.216 182.837 149.939C182.63 149.659 182.518 149.334 182.5 148.965H183.367C183.385 149.192 183.463 149.388 183.601 149.553C183.739 149.716 183.919 149.842 184.141 149.932C184.364 150.021 184.61 150.066 184.881 150.066C185.184 150.066 185.452 150.013 185.686 149.908C185.92 149.802 186.104 149.655 186.237 149.467C186.37 149.279 186.436 149.061 186.436 148.813C186.436 148.554 186.372 148.326 186.244 148.128C186.115 147.929 185.927 147.773 185.679 147.66C185.432 147.548 185.129 147.492 184.771 147.492H184.207V146.735H184.771C185.051 146.735 185.296 146.684 185.507 146.583C185.721 146.482 185.887 146.34 186.006 146.157C186.128 145.973 186.189 145.758 186.189 145.51C186.189 145.271 186.136 145.064 186.03 144.887C185.925 144.71 185.776 144.573 185.583 144.474C185.393 144.375 185.168 144.326 184.909 144.326C184.665 144.326 184.436 144.371 184.22 144.46C184.007 144.547 183.833 144.675 183.697 144.842C183.562 145.007 183.488 145.207 183.477 145.441H182.651C182.665 145.072 182.776 144.748 182.985 144.471C183.194 144.191 183.467 143.973 183.804 143.817C184.143 143.661 184.516 143.583 184.922 143.583C185.358 143.583 185.732 143.671 186.044 143.848C186.356 144.022 186.596 144.253 186.763 144.539C186.931 144.826 187.015 145.136 187.015 145.468C187.015 145.865 186.91 146.204 186.701 146.484C186.495 146.763 186.214 146.957 185.858 147.065V147.12C186.303 147.194 186.651 147.383 186.901 147.688C187.151 147.991 187.276 148.366 187.276 148.813C187.276 149.196 187.172 149.541 186.963 149.846C186.756 150.148 186.474 150.387 186.116 150.561C185.758 150.736 185.351 150.823 184.895 150.823ZM188.518 149.281V148.579L191.615 143.679H192.125V144.766H191.781L189.441 148.469V148.524H193.611V149.281H188.518ZM191.836 150.727V149.068V148.741V143.679H192.648V150.727H191.836ZM200.104 143.679V150.727H199.25V144.574H199.209L197.489 145.716V144.849L199.25 143.679H200.104ZM202.131 150.727V150.107L204.457 147.561C204.73 147.262 204.955 147.003 205.131 146.783C205.308 146.56 205.439 146.352 205.524 146.157C205.611 145.959 205.655 145.753 205.655 145.537C205.655 145.29 205.595 145.075 205.476 144.894C205.359 144.713 205.198 144.573 204.994 144.474C204.79 144.375 204.56 144.326 204.306 144.326C204.035 144.326 203.799 144.382 203.597 144.495C203.397 144.605 203.242 144.76 203.132 144.959C203.024 145.159 202.97 145.393 202.97 145.661H202.158C202.158 145.248 202.253 144.886 202.444 144.574C202.634 144.262 202.894 144.019 203.222 143.844C203.552 143.67 203.922 143.583 204.333 143.583C204.746 143.583 205.112 143.67 205.431 143.844C205.75 144.019 206 144.254 206.181 144.55C206.362 144.846 206.453 145.175 206.453 145.537C206.453 145.797 206.406 146.05 206.312 146.298C206.22 146.543 206.059 146.817 205.83 147.12C205.603 147.421 205.287 147.788 204.884 148.221L203.301 149.914V149.97H206.577V150.727H202.131ZM210.379 150.823C209.925 150.823 209.52 150.745 209.165 150.589C208.811 150.433 208.53 150.216 208.321 149.939C208.115 149.659 208.003 149.334 207.984 148.965H208.851C208.87 149.192 208.948 149.388 209.085 149.553C209.223 149.716 209.403 149.842 209.626 149.932C209.848 150.021 210.095 150.066 210.365 150.066C210.668 150.066 210.937 150.013 211.171 149.908C211.405 149.802 211.588 149.655 211.721 149.467C211.854 149.279 211.921 149.061 211.921 148.813C211.921 148.554 211.857 148.326 211.728 148.128C211.6 147.929 211.412 147.773 211.164 147.66C210.916 147.548 210.613 147.492 210.255 147.492H209.691V146.735H210.255C210.535 146.735 210.781 146.684 210.992 146.583C211.205 146.482 211.371 146.34 211.491 146.157C211.612 145.973 211.673 145.758 211.673 145.51C211.673 145.271 211.62 145.064 211.515 144.887C211.409 144.71 211.26 144.573 211.067 144.474C210.877 144.375 210.652 144.326 210.393 144.326C210.15 144.326 209.92 144.371 209.705 144.46C209.491 144.547 209.317 144.675 209.182 144.842C209.046 145.007 208.973 145.207 208.961 145.441H208.136C208.149 145.072 208.261 144.748 208.469 144.471C208.678 144.191 208.951 143.973 209.288 143.817C209.628 143.661 210.001 143.583 210.407 143.583C210.843 143.583 211.217 143.671 211.529 143.848C211.841 144.022 212.08 144.253 212.248 144.539C212.415 144.826 212.499 145.136 212.499 145.468C212.499 145.865 212.395 146.204 212.186 146.484C211.979 146.763 211.698 146.957 211.343 147.065V147.12C211.788 147.194 212.135 147.383 212.385 147.688C212.636 147.991 212.761 148.366 212.761 148.813C212.761 149.196 212.656 149.541 212.447 149.846C212.241 150.148 211.959 150.387 211.601 150.561C211.243 150.736 210.836 150.823 210.379 150.823ZM214.003 149.281V148.579L217.1 143.679H217.609V144.766H217.265L214.925 148.469V148.524H219.096V149.281H214.003ZM217.32 150.727V149.068V148.741V143.679H218.132V150.727H217.32ZM225.588 143.679V150.727H224.735V144.574H224.694L222.973 145.716V144.849L224.735 143.679H225.588ZM227.615 150.727V150.107L229.941 147.561C230.214 147.262 230.439 147.003 230.616 146.783C230.793 146.56 230.923 146.352 231.008 146.157C231.095 145.959 231.139 145.753 231.139 145.537C231.139 145.29 231.079 145.075 230.96 144.894C230.843 144.713 230.682 144.573 230.478 144.474C230.274 144.375 230.045 144.326 229.79 144.326C229.519 144.326 229.283 144.382 229.081 144.495C228.882 144.605 228.727 144.76 228.617 144.959C228.509 145.159 228.455 145.393 228.455 145.661H227.643C227.643 145.248 227.738 144.886 227.928 144.574C228.119 144.262 228.378 144.019 228.706 143.844C229.036 143.67 229.407 143.583 229.818 143.583C230.231 143.583 230.596 143.67 230.915 143.844C231.234 144.019 231.484 144.254 231.665 144.55C231.847 144.846 231.937 145.175 231.937 145.537C231.937 145.797 231.89 146.05 231.796 146.298C231.704 146.543 231.544 146.817 231.314 147.12C231.087 147.421 230.772 147.788 230.368 148.221L228.785 149.914V149.97H232.061V150.727H227.615ZM235.864 150.823C235.409 150.823 235.005 150.745 234.649 150.589C234.296 150.433 234.015 150.216 233.806 149.939C233.599 149.659 233.487 149.334 233.469 148.965H234.336C234.354 149.192 234.432 149.388 234.57 149.553C234.707 149.716 234.888 149.842 235.11 149.932C235.333 150.021 235.579 150.066 235.85 150.066C236.153 150.066 236.421 150.013 236.655 149.908C236.889 149.802 237.073 149.655 237.206 149.467C237.339 149.279 237.405 149.061 237.405 148.813C237.405 148.554 237.341 148.326 237.213 148.128C237.084 147.929 236.896 147.773 236.648 147.66C236.401 147.548 236.098 147.492 235.74 147.492H235.175V146.735H235.74C236.02 146.735 236.265 146.684 236.476 146.583C236.69 146.482 236.856 146.34 236.975 146.157C237.097 145.973 237.158 145.758 237.158 145.51C237.158 145.271 237.105 145.064 236.999 144.887C236.894 144.71 236.745 144.573 236.552 144.474C236.362 144.375 236.137 144.326 235.877 144.326C235.634 144.326 235.405 144.371 235.189 144.46C234.976 144.547 234.802 144.675 234.666 144.842C234.531 145.007 234.457 145.207 234.446 145.441H233.62C233.634 145.072 233.745 144.748 233.954 144.471C234.163 144.191 234.436 143.973 234.773 143.817C235.112 143.661 235.485 143.583 235.891 143.583C236.327 143.583 236.701 143.671 237.013 143.848C237.325 144.022 237.565 144.253 237.732 144.539C237.9 144.826 237.983 145.136 237.983 145.468C237.983 145.865 237.879 146.204 237.67 146.484C237.464 146.763 237.183 146.957 236.827 147.065V147.12C237.272 147.194 237.62 147.383 237.87 147.688C238.12 147.991 238.245 148.366 238.245 148.813C238.245 149.196 238.141 149.541 237.932 149.846C237.725 150.148 237.443 150.387 237.085 150.561C236.727 150.736 236.32 150.823 235.864 150.823ZM239.487 149.281V148.579L242.584 143.679H243.094V144.766H242.75L240.41 148.469V148.524H244.58V149.281H239.487ZM242.805 150.727V149.068V148.741V143.679H243.617V150.727H242.805Z" fill="#828282"/>
<g filter="url(#filter2_dd_5199_19075)">
<rect x="265.309" y="139.395" width="28.528" height="14.6649" rx="1.61506" fill="white"/>
<path d="M283.401 142.625C281.605 142.625 280 143.557 280 145.279C280 147.253 282.847 147.39 282.847 148.382C282.847 148.799 282.369 149.173 281.552 149.173C280.393 149.173 279.526 148.651 279.526 148.651L279.156 150.388C279.156 150.388 280.154 150.83 281.479 150.83C283.442 150.83 284.988 149.852 284.988 148.101C284.988 146.014 282.129 145.882 282.129 144.961C282.129 144.634 282.522 144.275 283.336 144.275C284.255 144.275 285.005 144.655 285.005 144.655L285.367 142.977C285.367 142.977 284.552 142.625 283.401 142.625ZM266.967 142.752L266.924 143.005C266.924 143.005 267.68 143.143 268.36 143.42C269.236 143.736 269.299 143.921 269.446 144.493L271.055 150.699H273.211L276.532 142.752H274.381L272.247 148.155L271.376 143.575C271.296 143.051 270.892 142.752 270.396 142.752H266.967ZM277.397 142.752L275.71 150.699H277.761L279.442 142.752H277.397ZM288.837 142.752C288.342 142.752 288.08 143.017 287.888 143.48L284.883 150.699H287.034L287.45 149.496H290.071L290.324 150.699H292.222L290.566 142.752H288.837ZM289.117 144.899L289.754 147.881H288.046L289.117 144.899Z" fill="#1434CB"/>
</g>
<rect x="300.297" y="138.168" width="23.675" height="17.1209" rx="1.61506" fill="#3C2511"/>
<path d="M314.463 142.539H309.809V150.92H314.463V142.539Z" fill="#FF5F00"/>
<path d="M310.102 146.729C310.102 145.922 310.284 145.125 310.636 144.399C310.988 143.673 311.5 143.036 312.134 142.538C311.349 141.92 310.407 141.536 309.414 141.429C308.422 141.322 307.42 141.497 306.522 141.934C305.624 142.372 304.867 143.053 304.338 143.901C303.808 144.749 303.527 145.729 303.527 146.729C303.527 147.729 303.808 148.709 304.338 149.557C304.867 150.405 305.624 151.086 306.522 151.523C307.42 151.96 308.422 152.135 309.414 152.029C310.407 151.922 311.349 151.538 312.134 150.919C311.5 150.421 310.988 149.785 310.636 149.059C310.284 148.333 310.102 147.536 310.102 146.729Z" fill="#EB001B"/>
<path d="M320.742 146.729C320.742 147.729 320.461 148.709 319.932 149.557C319.402 150.405 318.646 151.086 317.748 151.523C316.85 151.96 315.848 152.135 314.855 152.029C313.863 151.922 312.92 151.538 312.136 150.919C312.769 150.421 313.281 149.784 313.633 149.058C313.985 148.332 314.167 147.536 314.167 146.729C314.167 145.922 313.985 145.125 313.633 144.399C313.281 143.673 312.769 143.037 312.136 142.538C312.92 141.92 313.863 141.536 314.855 141.429C315.848 141.322 316.85 141.497 317.748 141.934C318.646 142.372 319.402 143.053 319.932 143.901C320.461 144.749 320.742 145.729 320.742 146.729Z" fill="#F79E1B"/>
<path d="M320.232 150.031V149.86H320.301V149.825H320.125V149.86H320.194V150.031H320.232ZM320.573 150.031V149.824H320.519L320.457 149.967L320.395 149.824H320.341V150.031H320.379V149.875L320.438 150.01H320.477L320.535 149.875V150.031H320.573Z" fill="#F79E1B"/>
<g clip-path="url(#clip0_5199_19075)">
<path d="M330.433 155.32H347.616V138.136H330.433V155.32Z" fill="#006FCF"/>
<path d="M336.658 152.595L343.453 152.609L344.52 151.419L345.595 152.605H347.617V150.868L346.35 149.502L347.617 148.148V146.448L336.658 146.438V152.595Z" fill="white"/>
<path fill-rule="evenodd" clip-rule="evenodd" d="M337.389 151.93V147.125H341.463V148.232H338.708V148.983H341.397V150.072H338.708V150.81H341.463V151.93L337.389 151.93Z" fill="#006FCF"/>
<path d="M345.945 147.125L344.564 148.648L343.186 147.125H341.441L343.696 149.525L341.441 151.93H343.139L344.526 150.392L345.928 151.93H347.615V151.861L345.409 149.525L347.615 147.163V147.125H345.945Z" fill="#006FCF"/>
<path d="M345.128 140.979L344.563 142.558L344.001 140.979H340.74V143.086L339.812 140.979H337.17L334.457 147.137H347.618V140.979H345.128Z" fill="white"/>
<path fill-rule="evenodd" clip-rule="evenodd" d="M337.852 144.411L338.491 142.882L339.13 144.411H337.852ZM337.669 141.649L335.537 146.449H336.999L337.401 145.488H339.581L339.983 146.449H341.481L339.358 141.649H337.669Z" fill="#006FCF"/>
<path d="M341.463 146.442L342.756 146.442V143.144L343.982 146.442H345.144L346.345 143.156V146.453L347.618 146.442V141.641H345.64L344.576 144.6L343.518 141.648L341.463 141.641V146.442Z" fill="#006FCF"/>
</g>
</g>
<path d="M371.222 124.809V116.586H376.184V117.47H372.218V120.248H375.927V121.131H372.218V123.925H376.249V124.809H371.222ZM378.557 118.642L380.034 121.163L381.512 118.642H382.604L380.613 121.725L382.604 124.809H381.512L380.034 122.416L378.557 124.809H377.465L379.424 121.725L377.465 118.642H378.557ZM383.956 127.121V118.642H384.871V119.622H384.984C385.053 119.515 385.15 119.378 385.273 119.212C385.398 119.043 385.578 118.894 385.811 118.762C386.046 118.629 386.365 118.562 386.766 118.562C387.285 118.562 387.743 118.692 388.139 118.951C388.535 119.211 388.844 119.579 389.067 120.055C389.289 120.532 389.4 121.094 389.4 121.741C389.4 122.394 389.289 122.96 389.067 123.44C388.844 123.916 388.537 124.285 388.143 124.548C387.75 124.807 387.296 124.937 386.782 124.937C386.386 124.937 386.069 124.871 385.831 124.74C385.593 124.607 385.409 124.455 385.281 124.287C385.152 124.115 385.053 123.974 384.984 123.861H384.903V127.121H383.956ZM384.887 121.725C384.887 122.191 384.956 122.602 385.092 122.958C385.229 123.311 385.428 123.588 385.69 123.789C385.952 123.987 386.274 124.086 386.654 124.086C387.05 124.086 387.38 123.982 387.645 123.773C387.913 123.561 388.114 123.278 388.248 122.922C388.384 122.563 388.452 122.164 388.452 121.725C388.452 121.292 388.385 120.901 388.252 120.553C388.12 120.202 387.921 119.925 387.653 119.722C387.388 119.516 387.055 119.413 386.654 119.413C386.268 119.413 385.944 119.511 385.682 119.706C385.42 119.899 385.222 120.169 385.088 120.517C384.954 120.862 384.887 121.265 384.887 121.725ZM390.845 124.809V118.642H391.793V124.809H390.845ZM391.327 117.614C391.142 117.614 390.983 117.551 390.849 117.426C390.718 117.3 390.652 117.149 390.652 116.972C390.652 116.795 390.718 116.644 390.849 116.518C390.983 116.392 391.142 116.33 391.327 116.33C391.512 116.33 391.669 116.392 391.801 116.518C391.934 116.644 392.001 116.795 392.001 116.972C392.001 117.149 391.934 117.3 391.801 117.426C391.669 117.551 391.512 117.614 391.327 117.614ZM393.528 124.809V118.642H394.443V119.573H394.507C394.62 119.268 394.823 119.021 395.118 118.831C395.412 118.641 395.744 118.546 396.113 118.546C396.183 118.546 396.27 118.547 396.374 118.55C396.479 118.552 396.558 118.556 396.611 118.562V119.525C396.579 119.517 396.505 119.505 396.39 119.489C396.278 119.47 396.159 119.461 396.033 119.461C395.733 119.461 395.466 119.524 395.23 119.65C394.997 119.773 394.813 119.944 394.676 120.164C394.542 120.38 394.475 120.628 394.475 120.906V124.809H393.528ZM399.549 124.953C399.158 124.953 398.804 124.88 398.485 124.732C398.167 124.582 397.914 124.367 397.726 124.086C397.539 123.802 397.445 123.46 397.445 123.058C397.445 122.705 397.515 122.419 397.654 122.199C397.793 121.977 397.979 121.803 398.212 121.677C398.445 121.551 398.702 121.458 398.983 121.396C399.267 121.332 399.552 121.281 399.838 121.244C400.213 121.195 400.517 121.159 400.749 121.135C400.985 121.108 401.156 121.064 401.263 121.003C401.373 120.941 401.428 120.834 401.428 120.681V120.649C401.428 120.253 401.319 119.945 401.103 119.726C400.889 119.507 400.563 119.397 400.127 119.397C399.675 119.397 399.32 119.496 399.063 119.694C398.806 119.892 398.626 120.103 398.521 120.328L397.622 120.007C397.782 119.632 397.997 119.341 398.264 119.132C398.535 118.92 398.829 118.773 399.147 118.69C399.469 118.605 399.784 118.562 400.095 118.562C400.293 118.562 400.521 118.586 400.777 118.634C401.037 118.679 401.287 118.774 401.528 118.919C401.772 119.064 401.974 119.282 402.134 119.573C402.295 119.865 402.375 120.256 402.375 120.746V124.809H401.428V123.974H401.38C401.315 124.107 401.208 124.251 401.058 124.403C400.909 124.556 400.709 124.685 400.46 124.793C400.211 124.9 399.908 124.953 399.549 124.953ZM399.693 124.102C400.068 124.102 400.384 124.028 400.641 123.881C400.901 123.734 401.096 123.544 401.227 123.311C401.361 123.078 401.428 122.833 401.428 122.576V121.709C401.388 121.757 401.299 121.802 401.163 121.842C401.029 121.879 400.874 121.913 400.697 121.942C400.523 121.969 400.353 121.993 400.187 122.014C400.024 122.033 399.892 122.049 399.79 122.063C399.544 122.095 399.313 122.147 399.099 122.219C398.888 122.289 398.717 122.394 398.585 122.536C398.457 122.675 398.393 122.865 398.393 123.106C398.393 123.436 398.515 123.684 398.758 123.853C399.004 124.019 399.316 124.102 399.693 124.102ZM406.786 118.642V119.445H403.591V118.642H406.786ZM404.522 117.165H405.47V123.042C405.47 123.31 405.508 123.511 405.586 123.644C405.666 123.775 405.768 123.864 405.891 123.909C406.017 123.952 406.149 123.974 406.289 123.974C406.393 123.974 406.479 123.968 406.546 123.957C406.613 123.944 406.666 123.933 406.706 123.925L406.899 124.776C406.835 124.801 406.745 124.825 406.63 124.849C406.515 124.876 406.369 124.889 406.192 124.889C405.925 124.889 405.662 124.831 405.405 124.716C405.151 124.601 404.94 124.426 404.771 124.19C404.605 123.955 404.522 123.658 404.522 123.299V117.165ZM408.212 124.809V118.642H409.159V124.809H408.212ZM408.693 117.614C408.509 117.614 408.35 117.551 408.216 117.426C408.085 117.3 408.019 117.149 408.019 116.972C408.019 116.795 408.085 116.644 408.216 116.518C408.35 116.392 408.509 116.33 408.693 116.33C408.878 116.33 409.036 116.392 409.167 116.518C409.301 116.644 409.368 116.795 409.368 116.972C409.368 117.149 409.301 117.3 409.167 117.426C409.036 117.551 408.878 117.614 408.693 117.614ZM413.4 124.937C412.843 124.937 412.355 124.805 411.934 124.54C411.517 124.275 411.19 123.904 410.955 123.428C410.722 122.951 410.605 122.394 410.605 121.757C410.605 121.115 410.722 120.554 410.955 120.075C411.19 119.596 411.517 119.224 411.934 118.959C412.355 118.694 412.843 118.562 413.4 118.562C413.956 118.562 414.444 118.694 414.861 118.959C415.281 119.224 415.608 119.596 415.841 120.075C416.076 120.554 416.194 121.115 416.194 121.757C416.194 122.394 416.076 122.951 415.841 123.428C415.608 123.904 415.281 124.275 414.861 124.54C414.444 124.805 413.956 124.937 413.4 124.937ZM413.4 124.086C413.823 124.086 414.171 123.978 414.444 123.761C414.717 123.544 414.919 123.259 415.05 122.906C415.181 122.552 415.246 122.17 415.246 121.757C415.246 121.345 415.181 120.961 415.05 120.605C414.919 120.249 414.717 119.962 414.444 119.742C414.171 119.523 413.823 119.413 413.4 119.413C412.977 119.413 412.629 119.523 412.356 119.742C412.083 119.962 411.881 120.249 411.75 120.605C411.619 120.961 411.553 121.345 411.553 121.757C411.553 122.17 411.619 122.552 411.75 122.906C411.881 123.259 412.083 123.544 412.356 123.761C412.629 123.978 412.977 124.086 413.4 124.086ZM418.588 121.099V124.809H417.64V118.642H418.556V119.606H418.636C418.78 119.292 419 119.041 419.294 118.851C419.589 118.658 419.969 118.562 420.434 118.562C420.852 118.562 421.217 118.647 421.53 118.819C421.844 118.987 422.087 119.244 422.261 119.589C422.435 119.932 422.522 120.366 422.522 120.89V124.809H421.575V120.954C421.575 120.47 421.449 120.093 421.197 119.822C420.946 119.549 420.6 119.413 420.161 119.413C419.859 119.413 419.589 119.478 419.35 119.61C419.115 119.741 418.929 119.932 418.792 120.184C418.656 120.435 418.588 120.74 418.588 121.099Z" fill="#333333"/>
<g filter="url(#filter3_d_5199_19075)">
<rect x="370.227" y="134.27" width="77.5228" height="24.9205" rx="3.23012" fill="white"/>
<path d="M380.77 143.683H381.789L384.184 149.533H384.267L386.662 143.683H387.68V150.73H386.882V145.376H386.813L384.611 150.73H383.84L381.638 145.376H381.569V150.73H380.77V143.683ZM389.391 143.683H390.41L392.805 149.533H392.888L395.283 143.683H396.301V150.73H395.503V145.376H395.434L393.232 150.73H392.461L390.259 145.376H390.19V150.73H389.391V143.683ZM403.119 143.353L400.848 151.79H400.105L402.376 143.353H403.119ZM406.312 143.683H407.289L409.244 146.973H409.326L411.281 143.683H412.258L409.712 147.826V150.73H408.858V147.826L406.312 143.683ZM412.756 143.683H413.733L415.688 146.973H415.771L417.725 143.683H418.702L416.156 147.826V150.73H415.303V147.826L412.756 143.683Z" fill="#828282"/>
</g>
<path d="M143.849 175.937H142.854C142.795 175.651 142.692 175.399 142.544 175.182C142.4 174.966 142.223 174.784 142.014 174.636C141.808 174.486 141.58 174.374 141.328 174.299C141.076 174.224 140.814 174.187 140.541 174.187C140.043 174.187 139.592 174.313 139.188 174.564C138.787 174.816 138.467 175.186 138.229 175.676C137.993 176.166 137.875 176.767 137.875 177.479C137.875 178.191 137.993 178.792 138.229 179.281C138.467 179.771 138.787 180.142 139.188 180.393C139.592 180.645 140.043 180.771 140.541 180.771C140.814 180.771 141.076 180.733 141.328 180.658C141.58 180.583 141.808 180.472 142.014 180.325C142.223 180.175 142.4 179.992 142.544 179.775C142.692 179.556 142.795 179.304 142.854 179.02H143.849C143.774 179.441 143.638 179.817 143.44 180.149C143.242 180.48 142.995 180.763 142.701 180.996C142.407 181.226 142.076 181.401 141.709 181.522C141.345 181.642 140.956 181.702 140.541 181.702C139.84 181.702 139.216 181.531 138.67 181.188C138.124 180.846 137.695 180.359 137.381 179.727C137.068 179.095 136.912 178.346 136.912 177.479C136.912 176.612 137.068 175.862 137.381 175.231C137.695 174.599 138.124 174.112 138.67 173.769C139.216 173.427 139.84 173.255 140.541 173.255C140.956 173.255 141.345 173.316 141.709 173.436C142.076 173.556 142.407 173.733 142.701 173.966C142.995 174.196 143.242 174.477 143.44 174.809C143.638 175.138 143.774 175.514 143.849 175.937ZM145.795 173.368L148.236 180.289H148.333L150.774 173.368H151.817L148.798 181.59H147.771L144.751 173.368H145.795ZM159.328 175.937H158.332C158.273 175.651 158.17 175.399 158.023 175.182C157.879 174.966 157.702 174.784 157.493 174.636C157.287 174.486 157.058 174.374 156.807 174.299C156.555 174.224 156.293 174.187 156.02 174.187C155.522 174.187 155.071 174.313 154.667 174.564C154.265 174.816 153.945 175.186 153.707 175.676C153.472 176.166 153.354 176.767 153.354 177.479C153.354 178.191 153.472 178.792 153.707 179.281C153.945 179.771 154.265 180.142 154.667 180.393C155.071 180.645 155.522 180.771 156.02 180.771C156.293 180.771 156.555 180.733 156.807 180.658C157.058 180.583 157.287 180.472 157.493 180.325C157.702 180.175 157.879 179.992 158.023 179.775C158.17 179.556 158.273 179.304 158.332 179.02H159.328C159.253 179.441 159.116 179.817 158.918 180.149C158.72 180.48 158.474 180.763 158.18 180.996C157.885 181.226 157.555 181.401 157.188 181.522C156.824 181.642 156.435 181.702 156.02 181.702C155.319 181.702 154.695 181.531 154.149 181.188C153.603 180.846 153.173 180.359 152.86 179.727C152.547 179.095 152.39 178.346 152.39 177.479C152.39 176.612 152.547 175.862 152.86 175.231C153.173 174.599 153.603 174.112 154.149 173.769C154.695 173.427 155.319 173.255 156.02 173.255C156.435 173.255 156.824 173.316 157.188 173.436C157.555 173.556 157.885 173.733 158.18 173.966C158.474 174.196 158.72 174.477 158.918 174.809C159.116 175.138 159.253 175.514 159.328 175.937Z" fill="#333333"/>
<g filter="url(#filter4_d_5199_19075)">
<rect x="136.237" y="191.051" width="77.5228" height="24.9205" rx="3.23012" fill="white"/>
<path d="M152.452 202.667H151.599C151.548 202.421 151.46 202.205 151.334 202.02C151.21 201.834 151.059 201.678 150.88 201.552C150.703 201.423 150.507 201.327 150.291 201.263C150.075 201.198 149.851 201.166 149.617 201.166C149.19 201.166 148.803 201.274 148.457 201.49C148.113 201.705 147.839 202.023 147.635 202.443C147.433 202.863 147.332 203.378 147.332 203.988C147.332 204.598 147.433 205.113 147.635 205.533C147.839 205.953 148.113 206.271 148.457 206.486C148.803 206.702 149.19 206.81 149.617 206.81C149.851 206.81 150.075 206.778 150.291 206.713C150.507 206.649 150.703 206.554 150.88 206.428C151.059 206.299 151.21 206.142 151.334 205.956C151.46 205.768 151.548 205.553 151.599 205.309H152.452C152.388 205.67 152.271 205.992 152.101 206.276C151.931 206.561 151.72 206.803 151.468 207.002C151.216 207.2 150.932 207.35 150.618 207.453C150.306 207.556 149.972 207.608 149.617 207.608C149.016 207.608 148.481 207.461 148.013 207.168C147.545 206.874 147.177 206.456 146.908 205.915C146.64 205.374 146.506 204.731 146.506 203.988C146.506 203.245 146.64 202.602 146.908 202.061C147.177 201.519 147.545 201.102 148.013 200.808C148.481 200.515 149.016 200.368 149.617 200.368C149.972 200.368 150.306 200.419 150.618 200.523C150.932 200.626 151.216 200.777 151.468 200.977C151.72 201.174 151.931 201.415 152.101 201.7C152.271 201.982 152.388 202.304 152.452 202.667ZM154.12 200.464L156.213 206.397H156.295L158.387 200.464H159.282L156.694 207.512H155.813L153.226 200.464H154.12ZM165.72 202.667H164.866C164.816 202.421 164.727 202.205 164.601 202.02C164.477 201.834 164.326 201.678 164.147 201.552C163.97 201.423 163.774 201.327 163.559 201.263C163.343 201.198 163.118 201.166 162.884 201.166C162.457 201.166 162.071 201.274 161.724 201.49C161.38 201.705 161.106 202.023 160.902 202.443C160.7 202.863 160.599 203.378 160.599 203.988C160.599 204.598 160.7 205.113 160.902 205.533C161.106 205.953 161.38 206.271 161.724 206.486C162.071 206.702 162.457 206.81 162.884 206.81C163.118 206.81 163.343 206.778 163.559 206.713C163.774 206.649 163.97 206.554 164.147 206.428C164.326 206.299 164.477 206.142 164.601 205.956C164.727 205.768 164.816 205.553 164.866 205.309H165.72C165.655 205.67 165.538 205.992 165.369 206.276C165.199 206.561 164.988 206.803 164.735 207.002C164.483 207.2 164.2 207.35 163.886 207.453C163.574 207.556 163.24 207.608 162.884 207.608C162.283 207.608 161.749 207.461 161.281 207.168C160.813 206.874 160.444 206.456 160.176 205.915C159.908 205.374 159.773 204.731 159.773 203.988C159.773 203.245 159.908 202.602 160.176 202.061C160.444 201.519 160.813 201.102 161.281 200.808C161.749 200.515 162.283 200.368 162.884 200.368C163.24 200.368 163.574 200.419 163.886 200.523C164.2 200.626 164.483 200.777 164.735 200.977C164.988 201.174 165.199 201.415 165.369 201.7C165.538 201.982 165.655 202.304 165.72 202.667Z" fill="#828282"/>
</g>
<path d="M234.293 175.937H233.297C233.238 175.651 233.135 175.399 232.988 175.182C232.843 174.966 232.667 174.784 232.458 174.636C232.252 174.486 232.023 174.374 231.771 174.299C231.52 174.224 231.257 174.187 230.984 174.187C230.487 174.187 230.036 174.313 229.631 174.564C229.23 174.816 228.91 175.186 228.672 175.676C228.436 176.166 228.319 176.767 228.319 177.479C228.319 178.191 228.436 178.792 228.672 179.281C228.91 179.771 229.23 180.142 229.631 180.393C230.036 180.645 230.487 180.771 230.984 180.771C231.257 180.771 231.52 180.733 231.771 180.658C232.023 180.583 232.252 180.472 232.458 180.325C232.667 180.175 232.843 179.992 232.988 179.775C233.135 179.556 233.238 179.304 233.297 179.02H234.293C234.218 179.441 234.081 179.817 233.883 180.149C233.685 180.48 233.439 180.763 233.144 180.996C232.85 181.226 232.519 181.401 232.153 181.522C231.789 181.642 231.399 181.702 230.984 181.702C230.283 181.702 229.66 181.531 229.114 181.188C228.568 180.846 228.138 180.359 227.825 179.727C227.512 179.095 227.355 178.346 227.355 177.479C227.355 176.612 227.512 175.862 227.825 175.231C228.138 174.599 228.568 174.112 229.114 173.769C229.66 173.427 230.283 173.255 230.984 173.255C231.399 173.255 231.789 173.316 232.153 173.436C232.519 173.556 232.85 173.733 233.144 173.966C233.439 174.196 233.685 174.477 233.883 174.809C234.081 175.138 234.218 175.514 234.293 175.937ZM238.278 181.718C237.721 181.718 237.233 181.586 236.813 181.321C236.395 181.056 236.069 180.685 235.833 180.209C235.6 179.732 235.484 179.176 235.484 178.539C235.484 177.896 235.6 177.336 235.833 176.857C236.069 176.377 236.395 176.005 236.813 175.74C237.233 175.475 237.721 175.343 238.278 175.343C238.835 175.343 239.322 175.475 239.739 175.74C240.16 176.005 240.486 176.377 240.719 176.857C240.955 177.336 241.072 177.896 241.072 178.539C241.072 179.176 240.955 179.732 240.719 180.209C240.486 180.685 240.16 181.056 239.739 181.321C239.322 181.586 238.835 181.718 238.278 181.718ZM238.278 180.867C238.701 180.867 239.049 180.759 239.322 180.542C239.595 180.325 239.797 180.04 239.928 179.687C240.059 179.334 240.125 178.951 240.125 178.539C240.125 178.126 240.059 177.742 239.928 177.386C239.797 177.03 239.595 176.743 239.322 176.523C239.049 176.304 238.701 176.194 238.278 176.194C237.855 176.194 237.507 176.304 237.234 176.523C236.961 176.743 236.759 177.03 236.628 177.386C236.497 177.742 236.431 178.126 236.431 178.539C236.431 178.951 236.497 179.334 236.628 179.687C236.759 180.04 236.961 180.325 237.234 180.542C237.507 180.759 237.855 180.867 238.278 180.867ZM246.405 179.069V175.423H247.352V181.59H246.405V180.546H246.341C246.196 180.859 245.971 181.125 245.666 181.345C245.361 181.562 244.976 181.67 244.51 181.67C244.125 181.67 243.782 181.586 243.482 181.417C243.182 181.246 242.947 180.989 242.776 180.646C242.604 180.301 242.519 179.866 242.519 179.342V175.423H243.466V179.277C243.466 179.727 243.592 180.086 243.844 180.353C244.098 180.621 244.422 180.755 244.815 180.755C245.051 180.755 245.29 180.695 245.534 180.574C245.78 180.454 245.986 180.269 246.152 180.02C246.321 179.771 246.405 179.454 246.405 179.069ZM250.035 177.88V181.59H249.088V175.423H250.003V176.387H250.083C250.228 176.074 250.447 175.822 250.742 175.632C251.036 175.439 251.416 175.343 251.882 175.343C252.299 175.343 252.665 175.429 252.978 175.6C253.291 175.769 253.535 176.025 253.709 176.371C253.883 176.713 253.97 177.147 253.97 177.671V181.59H253.022V177.736C253.022 177.251 252.896 176.874 252.645 176.604C252.393 176.331 252.048 176.194 251.609 176.194C251.307 176.194 251.036 176.26 250.798 176.391C250.562 176.522 250.376 176.713 250.24 176.965C250.103 177.216 250.035 177.522 250.035 177.88ZM258.383 175.423V176.226H255.187V175.423H258.383ZM256.118 173.946H257.066V179.823C257.066 180.091 257.105 180.292 257.182 180.426C257.263 180.557 257.364 180.645 257.488 180.691C257.613 180.733 257.746 180.755 257.885 180.755C257.989 180.755 258.075 180.749 258.142 180.739C258.209 180.725 258.262 180.715 258.302 180.707L258.495 181.558C258.431 181.582 258.341 181.606 258.226 181.63C258.111 181.657 257.965 181.67 257.789 181.67C257.521 181.67 257.259 181.613 257.002 181.498C256.747 181.382 256.536 181.207 256.367 180.972C256.201 180.736 256.118 180.439 256.118 180.08V173.946ZM259.808 181.59V175.423H260.723V176.355H260.788C260.9 176.05 261.103 175.802 261.398 175.612C261.692 175.422 262.024 175.327 262.393 175.327C262.463 175.327 262.55 175.328 262.654 175.331C262.759 175.334 262.838 175.338 262.891 175.343V176.306C262.859 176.298 262.786 176.286 262.67 176.27C262.558 176.252 262.439 176.242 262.313 176.242C262.013 176.242 261.746 176.305 261.51 176.431C261.277 176.554 261.093 176.725 260.956 176.945C260.822 177.162 260.755 177.409 260.755 177.688V181.59H259.808ZM264.812 183.902C264.652 183.902 264.509 183.889 264.383 183.862C264.257 183.838 264.17 183.814 264.122 183.79L264.363 182.955C264.593 183.014 264.796 183.035 264.973 183.019C265.15 183.003 265.306 182.924 265.443 182.782C265.582 182.643 265.709 182.417 265.824 182.104L266.001 181.622L263.72 175.423H264.748L266.45 180.337H266.515L268.217 175.423H269.245L266.627 182.489C266.509 182.808 266.363 183.071 266.189 183.28C266.015 183.491 265.813 183.648 265.583 183.75C265.356 183.851 265.099 183.902 264.812 183.902Z" fill="#333333"/>
<g filter="url(#filter5_d_5199_19075)">
<rect x="226.681" y="191.051" width="123.552" height="25.0334" rx="3.23012" fill="white"/>
<path d="M238.078 200.519V207.566H237.225V200.519H238.078ZM240.491 204.387V207.566H239.679V202.281H240.464V203.107H240.532C240.656 202.838 240.844 202.623 241.097 202.46C241.349 202.295 241.675 202.212 242.074 202.212C242.432 202.212 242.745 202.285 243.013 202.432C243.282 202.577 243.491 202.797 243.64 203.093C243.789 203.387 243.863 203.758 243.863 204.208V207.566H243.051V204.263C243.051 203.848 242.943 203.524 242.728 203.292C242.512 203.058 242.216 202.941 241.84 202.941C241.581 202.941 241.349 202.998 241.145 203.11C240.943 203.222 240.784 203.387 240.667 203.602C240.55 203.818 240.491 204.079 240.491 204.387ZM247.343 207.677C246.903 207.677 246.514 207.565 246.177 207.343C245.839 207.118 245.576 206.801 245.385 206.393C245.195 205.982 245.1 205.497 245.1 204.937C245.1 204.382 245.195 203.9 245.385 203.492C245.576 203.084 245.841 202.768 246.18 202.546C246.52 202.323 246.912 202.212 247.357 202.212C247.701 202.212 247.973 202.269 248.173 202.384C248.374 202.496 248.528 202.625 248.634 202.769C248.742 202.912 248.825 203.029 248.885 203.12H248.954V200.519H249.766V207.566H248.981V206.754H248.885C248.825 206.851 248.74 206.972 248.63 207.119C248.52 207.264 248.363 207.393 248.159 207.508C247.955 207.62 247.683 207.677 247.343 207.677ZM247.453 206.947C247.779 206.947 248.054 206.862 248.279 206.692C248.504 206.52 248.675 206.283 248.792 205.98C248.909 205.675 248.968 205.323 248.968 204.924C248.968 204.529 248.91 204.184 248.795 203.888C248.681 203.59 248.511 203.358 248.286 203.193C248.061 203.025 247.784 202.941 247.453 202.941C247.109 202.941 246.823 203.03 246.593 203.206C246.366 203.381 246.195 203.618 246.08 203.919C245.968 204.217 245.912 204.552 245.912 204.924C245.912 205.3 245.969 205.642 246.084 205.949C246.201 206.254 246.373 206.497 246.6 206.679C246.829 206.858 247.114 206.947 247.453 206.947ZM251.366 207.566V202.281H252.178V207.566H251.366ZM251.779 201.4C251.621 201.4 251.484 201.346 251.369 201.238C251.257 201.13 251.201 201.001 251.201 200.849C251.201 200.698 251.257 200.568 251.369 200.46C251.484 200.353 251.621 200.299 251.779 200.299C251.937 200.299 252.073 200.353 252.185 200.46C252.3 200.568 252.357 200.698 252.357 200.849C252.357 201.001 252.3 201.13 252.185 201.238C252.073 201.346 251.937 201.4 251.779 201.4ZM255.221 207.69C254.886 207.69 254.582 207.627 254.309 207.501C254.036 207.373 253.819 207.188 253.659 206.947C253.498 206.704 253.418 206.41 253.418 206.066C253.418 205.763 253.477 205.518 253.597 205.33C253.716 205.139 253.875 204.99 254.075 204.882C254.275 204.774 254.495 204.694 254.736 204.641C254.979 204.586 255.223 204.543 255.469 204.511C255.79 204.469 256.05 204.438 256.25 204.418C256.452 204.395 256.599 204.357 256.69 204.304C256.784 204.251 256.831 204.16 256.831 204.029V204.001C256.831 203.662 256.739 203.398 256.553 203.21C256.369 203.022 256.09 202.928 255.717 202.928C255.329 202.928 255.025 203.013 254.805 203.182C254.584 203.352 254.43 203.533 254.34 203.726L253.569 203.451C253.707 203.13 253.89 202.88 254.12 202.701C254.352 202.519 254.604 202.393 254.877 202.322C255.152 202.249 255.423 202.212 255.689 202.212C255.859 202.212 256.054 202.233 256.274 202.274C256.497 202.313 256.711 202.394 256.917 202.518C257.126 202.642 257.299 202.829 257.437 203.079C257.575 203.329 257.644 203.664 257.644 204.084V207.566H256.831V206.851H256.79C256.735 206.965 256.643 207.088 256.515 207.219C256.386 207.35 256.215 207.461 256.002 207.553C255.789 207.644 255.528 207.69 255.221 207.69ZM255.345 206.961C255.666 206.961 255.937 206.898 256.157 206.771C256.38 206.645 256.547 206.482 256.659 206.283C256.774 206.083 256.831 205.873 256.831 205.653V204.91C256.797 204.951 256.721 204.989 256.604 205.023C256.49 205.055 256.357 205.084 256.205 205.109C256.056 205.132 255.91 205.153 255.768 205.171C255.628 205.187 255.515 205.201 255.427 205.213C255.216 205.24 255.019 205.285 254.836 205.347C254.654 205.406 254.508 205.497 254.395 205.619C254.285 205.738 254.23 205.901 254.23 206.107C254.23 206.39 254.334 206.603 254.543 206.747C254.754 206.89 255.021 206.961 255.345 206.961Z" fill="#828282"/>
<path d="M332.247 202.103L335.998 205.865C336.043 205.91 336.091 205.942 336.143 205.96C336.195 205.979 336.251 205.988 336.311 205.988C336.37 205.988 336.426 205.979 336.478 205.96C336.53 205.942 336.579 205.91 336.623 205.865L340.386 202.103C340.49 201.999 340.542 201.869 340.542 201.712C340.542 201.556 340.486 201.422 340.375 201.311C340.263 201.199 340.133 201.143 339.984 201.143C339.835 201.143 339.705 201.199 339.593 201.311L336.311 204.593L333.029 201.311C332.924 201.206 332.796 201.154 332.644 201.154C332.491 201.154 332.359 201.21 332.247 201.322C332.136 201.433 332.08 201.564 332.08 201.712C332.08 201.861 332.136 201.992 332.247 202.103Z" fill="#828282"/>
</g>
<rect x="136.237" y="224.891" width="67.3807" height="26.9205" rx="3.23012" fill="#0071DF"/>
<path d="M146.923 242.352V234.129H149.702C150.347 234.129 150.874 234.246 151.283 234.479C151.696 234.709 152.001 235.021 152.199 235.414C152.397 235.808 152.496 236.247 152.496 236.731C152.496 237.215 152.397 237.656 152.199 238.052C152.003 238.448 151.701 238.764 151.291 238.999C150.882 239.232 150.357 239.349 149.718 239.349H147.726V238.465H149.685C150.127 238.465 150.482 238.389 150.749 238.236C151.017 238.084 151.211 237.878 151.332 237.618C151.455 237.356 151.516 237.06 151.516 236.731C151.516 236.402 151.455 236.107 151.332 235.848C151.211 235.588 151.016 235.385 150.745 235.238C150.475 235.088 150.116 235.013 149.669 235.013H147.919V242.352H146.923ZM155.786 242.496C155.395 242.496 155.04 242.422 154.722 242.275C154.403 242.125 154.151 241.91 153.963 241.629C153.776 241.345 153.682 241.003 153.682 240.601C153.682 240.248 153.752 239.961 153.891 239.742C154.03 239.52 154.216 239.346 154.449 239.22C154.682 239.094 154.939 239.001 155.22 238.939C155.503 238.875 155.789 238.824 156.075 238.787C156.45 238.738 156.753 238.702 156.986 238.678C157.222 238.651 157.393 238.607 157.5 238.546C157.61 238.484 157.665 238.377 157.665 238.224V238.192C157.665 237.796 157.556 237.488 157.34 237.269C157.125 237.049 156.8 236.94 156.364 236.94C155.912 236.94 155.557 237.039 155.3 237.237C155.043 237.435 154.862 237.646 154.758 237.871L153.859 237.55C154.019 237.175 154.233 236.884 154.501 236.675C154.771 236.463 155.066 236.316 155.384 236.233C155.706 236.148 156.021 236.105 156.332 236.105C156.53 236.105 156.757 236.129 157.014 236.177C157.274 236.222 157.524 236.317 157.765 236.462C158.009 236.607 158.211 236.825 158.371 237.116C158.532 237.408 158.612 237.799 158.612 238.289V242.352H157.665V241.517H157.617C157.552 241.65 157.445 241.794 157.295 241.946C157.145 242.099 156.946 242.228 156.697 242.336C156.448 242.443 156.144 242.496 155.786 242.496ZM155.93 241.645C156.305 241.645 156.621 241.571 156.878 241.424C157.137 241.277 157.333 241.087 157.464 240.854C157.598 240.621 157.665 240.376 157.665 240.119V239.252C157.625 239.3 157.536 239.345 157.4 239.385C157.266 239.422 157.111 239.456 156.934 239.485C156.76 239.512 156.59 239.536 156.424 239.557C156.261 239.576 156.128 239.592 156.027 239.606C155.78 239.638 155.55 239.69 155.336 239.762C155.125 239.832 154.953 239.937 154.822 240.079C154.694 240.218 154.63 240.408 154.63 240.649C154.63 240.979 154.751 241.227 154.995 241.396C155.241 241.562 155.553 241.645 155.93 241.645ZM160.731 244.664C160.57 244.664 160.427 244.651 160.301 244.624C160.176 244.6 160.089 244.576 160.04 244.552L160.281 243.717C160.511 243.775 160.715 243.797 160.892 243.781C161.068 243.765 161.225 243.686 161.361 243.544C161.5 243.405 161.628 243.179 161.743 242.865L161.919 242.384L159.639 236.185H160.667L162.369 241.099H162.433L164.135 236.185H165.163L162.546 243.251C162.428 243.569 162.282 243.833 162.108 244.042C161.934 244.253 161.732 244.41 161.502 244.511C161.274 244.613 161.017 244.664 160.731 244.664ZM176.242 234.129V242.352H175.278L170.798 235.896H170.718V242.352H169.722V234.129H170.685L175.182 240.601H175.262V234.129H176.242ZM180.611 242.48C180.054 242.48 179.566 242.348 179.145 242.083C178.728 241.818 178.401 241.447 178.166 240.971C177.933 240.494 177.817 239.937 177.817 239.3C177.817 238.658 177.933 238.097 178.166 237.618C178.401 237.139 178.728 236.767 179.145 236.502C179.566 236.237 180.054 236.105 180.611 236.105C181.167 236.105 181.655 236.237 182.072 236.502C182.492 236.767 182.819 237.139 183.052 237.618C183.287 238.097 183.405 238.658 183.405 239.3C183.405 239.937 183.287 240.494 183.052 240.971C182.819 241.447 182.492 241.818 182.072 242.083C181.655 242.348 181.167 242.48 180.611 242.48ZM180.611 241.629C181.034 241.629 181.382 241.521 181.655 241.304C181.928 241.087 182.13 240.802 182.261 240.449C182.392 240.095 182.458 239.713 182.458 239.3C182.458 238.888 182.392 238.504 182.261 238.148C182.13 237.792 181.928 237.504 181.655 237.285C181.382 237.066 181.034 236.956 180.611 236.956C180.188 236.956 179.84 237.066 179.567 237.285C179.294 237.504 179.092 237.792 178.961 238.148C178.83 238.504 178.764 238.888 178.764 239.3C178.764 239.713 178.83 240.095 178.961 240.449C179.092 240.802 179.294 241.087 179.567 241.304C179.84 241.521 180.188 241.629 180.611 241.629ZM186.039 242.352L184.16 236.185H185.155L186.488 240.906H186.553L187.869 236.185H188.881L190.182 240.89H190.246L191.579 236.185H192.575L190.696 242.352H189.764L188.415 237.614H188.319L186.97 242.352H186.039Z" fill="white"/>
</g>
<g filter="url(#filter6_d_5199_19075)">
<rect x="28" y="32" width="204.034" height="81.5065" rx="3.95106" fill="white" shape-rendering="crispEdges"/>
<path d="M44.6742 60.1445H43.4778L46.9383 50.7203H48.1163L51.5768 60.1445H50.3803L47.5641 52.2112H47.4905L44.6742 60.1445ZM45.116 56.4632H49.9386V57.4756H45.116V56.4632ZM52.8974 60.1445V53.0763H53.9466V54.1808H54.0387C54.1859 53.8034 54.4237 53.5104 54.7519 53.3018C55.0802 53.0902 55.4744 52.9843 55.9346 52.9843C56.4009 52.9843 56.7889 53.0902 57.0988 53.3018C57.4117 53.5104 57.6556 53.8034 57.8305 54.1808H57.9041C58.0851 53.8157 58.3566 53.5258 58.7186 53.311C59.0806 53.0932 59.5147 52.9843 60.0209 52.9843C60.6528 52.9843 61.1697 53.1822 61.5716 53.5779C61.9735 53.9706 62.1744 54.5826 62.1744 55.414V60.1445H61.0884V55.414C61.0884 54.8925 60.9458 54.5197 60.6605 54.2958C60.3752 54.0718 60.0393 53.9599 59.6527 53.9599C59.1557 53.9599 58.7707 54.1102 58.4977 54.4108C58.2247 54.7084 58.0881 55.0857 58.0881 55.5428V60.1445H56.9837V55.3036C56.9837 54.9017 56.8534 54.578 56.5926 54.3326C56.3318 54.0841 55.9959 53.9599 55.5848 53.9599C55.3026 53.9599 55.0388 54.035 54.7933 54.1854C54.551 54.3357 54.3546 54.5443 54.2043 54.8112C54.0571 55.075 53.9834 55.3803 53.9834 55.7269V60.1445H52.8974ZM67.0315 60.2918C66.3934 60.2918 65.8335 60.1399 65.3519 59.8362C64.8733 59.5325 64.4991 59.1076 64.2291 58.5616C63.9622 58.0155 63.8287 57.3774 63.8287 56.6473C63.8287 55.911 63.9622 55.2683 64.2291 54.7191C64.4991 54.17 64.8733 53.7436 65.3519 53.4399C65.8335 53.1362 66.3934 52.9843 67.0315 52.9843C67.6696 52.9843 68.2279 53.1362 68.7065 53.4399C69.1882 53.7436 69.5624 54.17 69.8293 54.7191C70.0993 55.2683 70.2343 55.911 70.2343 56.6473C70.2343 57.3774 70.0993 58.0155 69.8293 58.5616C69.5624 59.1076 69.1882 59.5325 68.7065 59.8362C68.2279 60.1399 67.6696 60.2918 67.0315 60.2918ZM67.0315 59.3162C67.5162 59.3162 67.915 59.192 68.2279 58.9435C68.5409 58.695 68.7725 58.3683 68.9228 57.9633C69.0731 57.5584 69.1483 57.1197 69.1483 56.6473C69.1483 56.1748 69.0731 55.7346 68.9228 55.3266C68.7725 54.9186 68.5409 54.5888 68.2279 54.3372C67.915 54.0857 67.5162 53.9599 67.0315 53.9599C66.5468 53.9599 66.148 54.0857 65.8351 54.3372C65.5222 54.5888 65.2905 54.9186 65.1402 55.3266C64.9899 55.7346 64.9147 56.1748 64.9147 56.6473C64.9147 57.1197 64.9899 57.5584 65.1402 57.9633C65.2905 58.3683 65.5222 58.695 65.8351 58.9435C66.148 59.192 66.5468 59.3162 67.0315 59.3162ZM76.3465 57.2547V53.0763H77.4325V60.1445H76.3465V58.9481H76.2728C76.1072 59.307 75.8495 59.6123 75.4998 59.8638C75.15 60.1123 74.7083 60.2366 74.1745 60.2366C73.7327 60.2366 73.34 60.1399 72.9964 59.9467C72.6528 59.7503 72.3829 59.4558 72.1865 59.0631C71.9902 58.6674 71.892 58.1689 71.892 57.5676V53.0763H72.978V57.494C72.978 58.0094 73.1222 58.4204 73.4106 58.7272C73.702 59.034 74.0732 59.1874 74.5242 59.1874C74.7942 59.1874 75.0687 59.1184 75.3479 58.9803C75.6301 58.8423 75.8664 58.6306 76.0566 58.3453C76.2498 58.06 76.3465 57.6964 76.3465 57.2547ZM80.5075 55.8926V60.1445H79.4215V53.0763H80.4707V54.1808H80.5628C80.7284 53.8218 80.98 53.5334 81.3174 53.3156C81.6549 53.0948 82.0905 52.9843 82.6243 52.9843C83.1029 52.9843 83.5216 53.0825 83.8806 53.2788C84.2395 53.4721 84.5187 53.7666 84.7181 54.1623C84.9175 54.555 85.0172 55.052 85.0172 55.6533V60.1445H83.9312V55.7269C83.9312 55.1716 83.787 54.7391 83.4986 54.4292C83.2103 54.1163 82.8145 53.9599 82.3114 53.9599C81.9647 53.9599 81.6549 54.035 81.3819 54.1854C81.1119 54.3357 80.8987 54.555 80.7422 54.8434C80.5858 55.1318 80.5075 55.4815 80.5075 55.8926ZM90.0756 53.0763V53.9967H86.4126V53.0763H90.0756ZM87.4802 51.3829H88.5662V58.1198C88.5662 58.4266 88.6107 58.6567 88.6997 58.81C88.7917 58.9604 88.9083 59.0616 89.0494 59.1138C89.1936 59.1628 89.3454 59.1874 89.505 59.1874C89.6246 59.1874 89.7228 59.1812 89.7995 59.169C89.8762 59.1536 89.9375 59.1414 89.9835 59.1322L90.2044 60.1077C90.1308 60.1353 90.028 60.1629 89.8961 60.1905C89.7642 60.2212 89.597 60.2366 89.3945 60.2366C89.0878 60.2366 88.7871 60.1706 88.4926 60.0387C88.2012 59.9068 87.9588 59.7058 87.7655 59.4359C87.5753 59.1659 87.4802 58.8254 87.4802 58.4143V51.3829Z" fill="#333333"/>
<g filter="url(#filter7_d_5199_19075)">
<rect x="43.1465" y="70.5508" width="173.742" height="27.8095" rx="3.70238" fill="white"/>
<path d="M57.4725 89.9668V79.8694H58.1193V89.9668H57.4725ZM59.6497 82.8986C59.6024 82.4989 59.4104 82.1886 59.0738 81.9677C58.7373 81.7469 58.3244 81.6364 57.8353 81.6364C57.4777 81.6364 57.1648 81.6943 56.8966 81.81C56.631 81.9257 56.4233 82.0847 56.2734 82.2872C56.1261 82.4897 56.0525 82.7198 56.0525 82.9775C56.0525 83.1931 56.1038 83.3785 56.2063 83.5336C56.3115 83.6861 56.4456 83.8137 56.6087 83.9162C56.7717 84.0161 56.9426 84.099 57.1214 84.1647C57.3002 84.2278 57.4646 84.2791 57.6144 84.3185L58.4349 84.5394C58.6452 84.5946 58.8793 84.6709 59.1369 84.7682C59.3973 84.8655 59.6458 84.9983 59.8824 85.1666C60.1217 85.3322 60.3189 85.5452 60.4741 85.8055C60.6292 86.0659 60.7068 86.3853 60.7068 86.764C60.7068 87.2005 60.5924 87.5949 60.3636 87.9473C60.1375 88.2996 59.8062 88.5797 59.3697 88.7874C58.9358 88.9952 58.4086 89.099 57.788 89.099C57.2095 89.099 56.7086 89.0057 56.2852 88.819C55.8645 88.6323 55.5332 88.372 55.2913 88.038C55.052 87.7041 54.9165 87.3162 54.885 86.8744H55.8947C55.921 87.1795 56.0236 87.4319 56.2024 87.6317C56.3838 87.829 56.6126 87.9762 56.8887 88.0735C57.1674 88.1682 57.4672 88.2155 57.788 88.2155C58.1614 88.2155 58.4967 88.155 58.7938 88.0341C59.0909 87.9105 59.3263 87.7396 59.4998 87.5213C59.6734 87.3004 59.7601 87.0427 59.7601 86.7482C59.7601 86.48 59.6852 86.2618 59.5353 86.0935C59.3854 85.9252 59.1882 85.7884 58.9437 85.6833C58.6991 85.5781 58.4349 85.486 58.1509 85.4072L57.1569 85.1232C56.5258 84.9417 56.0262 84.6827 55.6581 84.3461C55.2899 84.0096 55.1059 83.5691 55.1059 83.0248C55.1059 82.5725 55.2281 82.1781 55.4727 81.8415C55.7199 81.5023 56.0512 81.2394 56.4667 81.0527C56.8848 80.8633 57.3515 80.7687 57.8669 80.7687C58.3875 80.7687 58.8503 80.862 59.2553 81.0487C59.6602 81.2328 59.981 81.4852 60.2177 81.806C60.457 82.1268 60.5832 82.491 60.5963 82.8986H59.6497ZM64.9025 89.0675C64.3819 89.0675 63.9178 88.9781 63.5102 88.7993C63.1052 88.6205 62.7831 88.372 62.5438 88.0538C62.3072 87.733 62.1783 87.3609 62.1573 86.9376H63.1513C63.1723 87.1979 63.2617 87.4227 63.4195 87.612C63.5772 87.7987 63.7837 87.9433 64.0387 88.0459C64.2938 88.1484 64.5765 88.1997 64.8868 88.1997C65.2338 88.1997 65.5415 88.1392 65.8097 88.0183C66.0779 87.8973 66.2883 87.729 66.4408 87.5134C66.5933 87.2978 66.6696 87.048 66.6696 86.764C66.6696 86.4669 66.5959 86.2052 66.4487 85.9791C66.3014 85.7503 66.0858 85.5715 65.8018 85.4427C65.5178 85.3138 65.1707 85.2494 64.7605 85.2494H64.1137V84.3816H64.7605C65.0813 84.3816 65.3627 84.3238 65.6046 84.2081C65.8492 84.0924 66.0398 83.9294 66.1765 83.719C66.3159 83.5086 66.3856 83.2615 66.3856 82.9775C66.3856 82.704 66.3251 82.466 66.2041 82.2636C66.0832 82.0611 65.9123 81.9033 65.6914 81.7902C65.4731 81.6772 65.2154 81.6206 64.9183 81.6206C64.6396 81.6206 64.3766 81.6719 64.1294 81.7745C63.8849 81.8744 63.6851 82.0203 63.5299 82.2123C63.3748 82.4016 63.2906 82.6304 63.2775 82.8986H62.3308C62.3466 82.4752 62.4742 82.1045 62.7134 81.7863C62.9527 81.4655 63.2656 81.2157 63.6522 81.0369C64.0414 80.8581 64.4687 80.7687 64.9341 80.7687C65.4337 80.7687 65.8623 80.8699 66.2199 81.0724C66.5775 81.2722 66.8523 81.5365 67.0443 81.8652C67.2362 82.1939 67.3322 82.5489 67.3322 82.9301C67.3322 83.3851 67.2126 83.7729 66.9733 84.0937C66.7366 84.4145 66.4145 84.6367 66.0069 84.7603V84.8234C66.5171 84.9076 66.9154 85.1245 67.2021 85.4742C67.4887 85.8213 67.632 86.2512 67.632 86.764C67.632 87.2031 67.5123 87.5976 67.2731 87.9473C67.0364 88.2944 66.713 88.5679 66.3028 88.7677C65.8925 88.9675 65.4258 89.0675 64.9025 89.0675ZM69.0559 87.3004V86.4958L72.6057 80.8791H73.1895V82.1255H72.7951L70.1129 86.3696V86.4327H74.8934V87.3004H69.0559ZM72.8582 88.957V87.0559V86.6812V80.8791H73.789V88.957H72.8582ZM76.1822 87.3004V86.4958L79.7321 80.8791H80.3159V82.1255H79.9214L77.2393 86.3696V86.4327H82.0198V87.3004H76.1822ZM79.9845 88.957V87.0559V86.6812V80.8791H80.9154V88.957H79.9845ZM86.0696 80.7687C86.4009 80.7713 86.7323 80.8344 87.0636 80.958C87.3949 81.0816 87.6973 81.2867 87.9708 81.5733C88.2442 81.8573 88.4638 82.2451 88.6295 82.7369C88.7951 83.2286 88.8779 83.8452 88.8779 84.5867C88.8779 85.3046 88.8096 85.9423 88.6728 86.4997C88.5387 87.0546 88.3442 87.5226 88.0891 87.9039C87.8367 88.2852 87.529 88.5744 87.1661 88.7716C86.8059 88.9689 86.3983 89.0675 85.9434 89.0675C85.4911 89.0675 85.0875 88.9781 84.7325 88.7993C84.3801 88.6178 84.0909 88.3667 83.8647 88.0459C83.6412 87.7225 83.4979 87.3478 83.4348 86.9218H84.3972C84.484 87.2925 84.6562 87.5989 84.9139 87.8408C85.1743 88.0801 85.5174 88.1997 85.9434 88.1997C86.5666 88.1997 87.0583 87.9276 87.4186 87.3833C87.7814 86.8389 87.9629 86.0698 87.9629 85.0758H87.8998C87.7525 85.2967 87.5776 85.4874 87.3752 85.6478C87.1727 85.8082 86.9479 85.9318 86.7007 86.0185C86.4535 86.1053 86.1906 86.1487 85.9118 86.1487C85.449 86.1487 85.0244 86.0343 84.6378 85.8055C84.2539 85.5741 83.9463 85.2573 83.7149 84.855C83.4861 84.45 83.3717 83.9872 83.3717 83.4666C83.3717 82.9722 83.4821 82.5199 83.703 82.1097C83.9265 81.6969 84.2395 81.3682 84.6418 81.1237C85.0467 80.8791 85.5227 80.7608 86.0696 80.7687ZM86.0696 81.6364C85.7383 81.6364 85.4398 81.7192 85.1743 81.8849C84.9113 82.0479 84.7023 82.2688 84.5471 82.5475C84.3946 82.8236 84.3183 83.13 84.3183 83.4666C84.3183 83.8031 84.392 84.1095 84.5392 84.3856C84.6891 84.6591 84.8929 84.8773 85.1506 85.0403C85.4109 85.2007 85.7067 85.2809 86.0381 85.2809C86.2879 85.2809 86.5206 85.2323 86.7362 85.135C86.9518 85.0351 87.1398 84.8997 87.3002 84.7287C87.4633 84.5552 87.5908 84.3593 87.6828 84.141C87.7749 83.9202 87.8209 83.6901 87.8209 83.4508C87.8209 83.1352 87.7446 82.8394 87.5921 82.5633C87.4422 82.2872 87.2345 82.0637 86.9689 81.8928C86.706 81.7219 86.4062 81.6364 86.0696 81.6364Z" fill="#333333"/>
</g>
</g>
<defs>
<filter id="filter0_d_5199_19075" x="118.619" y="95.7976" width="346.75" height="175.837" filterUnits="userSpaceOnUse" color-interpolation-filters="sRGB">
<feFlood flood-opacity="0" result="BackgroundImageFix"/>
<feColorMatrix in="SourceAlpha" type="matrix" values="0 0 0 0 0 0 0 0 0 0 0 0 0 0 0 0 0 0 127 0" result="hardAlpha"/>
<feOffset dy="2.20236"/>
<feGaussianBlur stdDeviation="2.20236"/>
<feComposite in2="hardAlpha" operator="out"/>
<feColorMatrix type="matrix" values="0 0 0 0 0 0 0 0 0 0 0 0 0 0 0 0 0 0 0.1 0"/>
<feBlend mode="normal" in2="BackgroundImageFix" result="effect1_dropShadow_5199_19075"/>
<feBlend mode="normal" in="SourceGraphic" in2="effect1_dropShadow_5199_19075" result="shape"/>
</filter>
<filter id="filter1_d_5199_19075" x="135.43" y="130.868" width="222.683" height="31.7205" filterUnits="userSpaceOnUse" color-interpolation-filters="sRGB">
<feFlood flood-opacity="0" result="BackgroundImageFix"/>
<feColorMatrix in="SourceAlpha" type="matrix" values="0 0 0 0 0 0 0 0 0 0 0 0 0 0 0 0 0 0 127 0" result="hardAlpha"/>
<feMorphology radius="0.807529" operator="dilate" in="SourceAlpha" result="effect1_dropShadow_5199_19075"/>
<feOffset/>
<feComposite in2="hardAlpha" operator="out"/>
<feColorMatrix type="matrix" values="0 0 0 0 0 0 0 0 0 0 0 0 0 0 0 0 0 0 0.1 0"/>
<feBlend mode="normal" in2="BackgroundImageFix" result="effect1_dropShadow_5199_19075"/>
<feBlend mode="normal" in="SourceGraphic" in2="effect1_dropShadow_5199_19075" result="shape"/>
</filter>
<filter id="filter2_dd_5199_19075" x="263.694" y="137.779" width="31.7584" height="19.5092" filterUnits="userSpaceOnUse" color-interpolation-filters="sRGB">
<feFlood flood-opacity="0" result="BackgroundImageFix"/>
<feColorMatrix in="SourceAlpha" type="matrix" values="0 0 0 0 0 0 0 0 0 0 0 0 0 0 0 0 0 0 127 0" result="hardAlpha"/>
<feOffset dy="1.61506"/>
<feGaussianBlur stdDeviation="0.807529"/>
<feComposite in2="hardAlpha" operator="out"/>
<feColorMatrix type="matrix" values="0 0 0 0 0 0 0 0 0 0 0 0 0 0 0 0 0 0 0.05 0"/>
<feBlend mode="normal" in2="BackgroundImageFix" result="effect1_dropShadow_5199_19075"/>
<feColorMatrix in="SourceAlpha" type="matrix" values="0 0 0 0 0 0 0 0 0 0 0 0 0 0 0 0 0 0 127 0" result="hardAlpha"/>
<feOffset dy="-0.807529"/>
<feGaussianBlur stdDeviation="0.403765"/>
<feComposite in2="hardAlpha" operator="out"/>
<feColorMatrix type="matrix" values="0 0 0 0 0 0 0 0 0 0 0 0 0 0 0 0 0 0 0.02 0"/>
<feBlend mode="normal" in2="effect1_dropShadow_5199_19075" result="effect2_dropShadow_5199_19075"/>
<feBlend mode="normal" in="SourceGraphic" in2="effect2_dropShadow_5199_19075" result="shape"/>
</filter>
<filter id="filter3_d_5199_19075" x="369.419" y="133.462" width="79.1375" height="26.5369" filterUnits="userSpaceOnUse" color-interpolation-filters="sRGB">
<feFlood flood-opacity="0" result="BackgroundImageFix"/>
<feColorMatrix in="SourceAlpha" type="matrix" values="0 0 0 0 0 0 0 0 0 0 0 0 0 0 0 0 0 0 127 0" result="hardAlpha"/>
<feMorphology radius="0.807529" operator="dilate" in="SourceAlpha" result="effect1_dropShadow_5199_19075"/>
<feOffset/>
<feComposite in2="hardAlpha" operator="out"/>
<feColorMatrix type="matrix" values="0 0 0 0 0 0 0 0 0 0 0 0 0 0 0 0 0 0 0.1 0"/>
<feBlend mode="normal" in2="BackgroundImageFix" result="effect1_dropShadow_5199_19075"/>
<feBlend mode="normal" in="SourceGraphic" in2="effect1_dropShadow_5199_19075" result="shape"/>
</filter>
<filter id="filter4_d_5199_19075" x="135.43" y="190.243" width="79.1375" height="26.5369" filterUnits="userSpaceOnUse" color-interpolation-filters="sRGB">
<feFlood flood-opacity="0" result="BackgroundImageFix"/>
<feColorMatrix in="SourceAlpha" type="matrix" values="0 0 0 0 0 0 0 0 0 0 0 0 0 0 0 0 0 0 127 0" result="hardAlpha"/>
<feMorphology radius="0.807529" operator="dilate" in="SourceAlpha" result="effect1_dropShadow_5199_19075"/>
<feOffset/>
<feComposite in2="hardAlpha" operator="out"/>
<feColorMatrix type="matrix" values="0 0 0 0 0 0 0 0 0 0 0 0 0 0 0 0 0 0 0.1 0"/>
<feBlend mode="normal" in2="BackgroundImageFix" result="effect1_dropShadow_5199_19075"/>
<feBlend mode="normal" in="SourceGraphic" in2="effect1_dropShadow_5199_19075" result="shape"/>
</filter>
<filter id="filter5_d_5199_19075" x="225.873" y="190.243" width="125.167" height="26.6502" filterUnits="userSpaceOnUse" color-interpolation-filters="sRGB">
<feFlood flood-opacity="0" result="BackgroundImageFix"/>
<feColorMatrix in="SourceAlpha" type="matrix" values="0 0 0 0 0 0 0 0 0 0 0 0 0 0 0 0 0 0 127 0" result="hardAlpha"/>
<feMorphology radius="0.807529" operator="dilate" in="SourceAlpha" result="effect1_dropShadow_5199_19075"/>
<feOffset/>
<feComposite in2="hardAlpha" operator="out"/>
<feColorMatrix type="matrix" values="0 0 0 0 0 0 0 0 0 0 0 0 0 0 0 0 0 0 0.1 0"/>
<feBlend mode="normal" in2="BackgroundImageFix" result="effect1_dropShadow_5199_19075"/>
<feBlend mode="normal" in="SourceGraphic" in2="effect1_dropShadow_5199_19075" result="shape"/>
</filter>
<filter id="filter6_d_5199_19075" x="22.9513" y="29.4756" width="214.132" height="91.6052" filterUnits="userSpaceOnUse" color-interpolation-filters="sRGB">
<feFlood flood-opacity="0" result="BackgroundImageFix"/>
<feColorMatrix in="SourceAlpha" type="matrix" values="0 0 0 0 0 0 0 0 0 0 0 0 0 0 0 0 0 0 127 0" result="hardAlpha"/>
<feOffset dy="2.52435"/>
<feGaussianBlur stdDeviation="2.52435"/>
<feComposite in2="hardAlpha" operator="out"/>
<feColorMatrix type="matrix" values="0 0 0 0 0 0 0 0 0 0 0 0 0 0 0 0 0 0 0.1 0"/>
<feBlend mode="normal" in2="BackgroundImageFix" result="effect1_dropShadow_5199_19075"/>
<feBlend mode="normal" in="SourceGraphic" in2="effect1_dropShadow_5199_19075" result="shape"/>
</filter>
<filter id="filter7_d_5199_19075" x="42.2209" y="69.6252" width="175.593" height="29.6598" filterUnits="userSpaceOnUse" color-interpolation-filters="sRGB">
<feFlood flood-opacity="0" result="BackgroundImageFix"/>
<feColorMatrix in="SourceAlpha" type="matrix" values="0 0 0 0 0 0 0 0 0 0 0 0 0 0 0 0 0 0 127 0" result="hardAlpha"/>
<feMorphology radius="0.925595" operator="dilate" in="SourceAlpha" result="effect1_dropShadow_5199_19075"/>
<feOffset/>
<feComposite in2="hardAlpha" operator="out"/>
<feColorMatrix type="matrix" values="0 0 0 0 0 0 0 0 0 0 0 0 0 0 0 0 0 0 0.1 0"/>
<feBlend mode="normal" in2="BackgroundImageFix" result="effect1_dropShadow_5199_19075"/>
<feBlend mode="normal" in="SourceGraphic" in2="effect1_dropShadow_5199_19075" result="shape"/>
</filter>
<clipPath id="clip0_5199_19075">
<rect x="330.432" y="138.137" width="17.1838" height="17.1838" rx="2.26124" fill="white"/>
</clipPath>
</defs>
</svg>
