<svg width="28" height="28" viewBox="0 0 28 28" fill="none" xmlns="http://www.w3.org/2000/svg">
<path d="M17.5 24.4989H10.5M17.5 24.4989V14.6989C17.5 14.5132 17.4263 14.3352 17.295 14.2039C17.1637 14.0726 16.9857 13.9989 16.8 13.9989H11.2C11.0143 13.9989 10.8363 14.0726 10.705 14.2039C10.5737 14.3352 10.5 14.5132 10.5 14.6989V24.4989M17.5 24.4989H23.8C23.9857 24.4989 24.1637 24.4251 24.295 24.2939C24.4263 24.1626 24.5 23.9845 24.5 23.7989V21.1155C24.5 20.9299 24.4263 20.7518 24.295 20.6206C24.1637 20.4893 23.9857 20.4155 23.8 20.4155H18.2C18.0143 20.4155 17.8363 20.4893 17.705 20.6206C17.5737 20.7518 17.5 20.9299 17.5 21.1155V24.4989ZM10.5 24.4989V18.7822C10.5 18.5966 10.4263 18.4185 10.295 18.2872C10.1637 18.156 9.98565 18.0822 9.8 18.0822H4.2C4.01435 18.0822 3.8363 18.156 3.70503 18.2872C3.57375 18.4185 3.5 18.5966 3.5 18.7822V23.7989C3.5 23.9845 3.57375 24.1626 3.70503 24.2939C3.8363 24.4251 4.01435 24.4989 4.2 24.4989H10.5ZM12.607 5.96405L13.6675 3.71588C13.6961 3.65161 13.7428 3.59702 13.8018 3.5587C13.8608 3.52039 13.9296 3.5 14 3.5C14.0704 3.5 14.1392 3.52039 14.1982 3.5587C14.2572 3.59702 14.3039 3.65161 14.3325 3.71588L15.3942 5.96405L17.7648 6.32688C18.0693 6.37355 18.1907 6.76555 17.9702 6.98955L16.2552 8.73955L16.66 11.2105C16.7113 11.5279 16.394 11.7705 16.121 11.62L14 10.4534L11.879 11.62C11.6072 11.7694 11.2887 11.5279 11.34 11.2105L11.7448 8.73955L10.0298 6.98955C9.80817 6.76555 9.93067 6.37355 10.234 6.32688L12.607 5.96405Z" stroke="#4F3895" stroke-width="1.75" stroke-linecap="round" stroke-linejoin="round"/>
</svg>
