<svg width="29" height="28" viewBox="0 0 29 28" fill="none" xmlns="http://www.w3.org/2000/svg">
<g clip-path="url(#clip0_6787_3062)">
<path d="M22.1035 0H7.22852C6.64835 0 6.09196 0.230468 5.68172 0.640704C5.27148 1.05094 5.04102 1.60734 5.04102 2.1875V25.8125C5.04102 26.3927 5.27148 26.9491 5.68172 27.3593C6.09196 27.7695 6.64835 28 7.22852 28H22.1035C22.6837 28 23.2401 27.7695 23.6503 27.3593C24.0605 26.9491 24.291 26.3927 24.291 25.8125V2.1875C24.291 1.60734 24.0605 1.05094 23.6503 0.640704C23.2401 0.230468 22.6837 0 22.1035 0ZM22.1035 25.8125H7.22852V2.1875H22.1035V25.8125Z" fill="#4F3895"/>
<path d="M14.6656 23.625C15.4388 23.625 16.0656 23.0374 16.0656 22.3125C16.0656 21.5876 15.4388 21 14.6656 21C13.8924 21 13.2656 21.5876 13.2656 22.3125C13.2656 23.0374 13.8924 23.625 14.6656 23.625Z" fill="#4F3895"/>
</g>
<defs>
<clipPath id="clip0_6787_3062">
<rect width="28" height="28" fill="white" transform="translate(0.666016)"/>
</clipPath>
</defs>
</svg>
