<svg width="28" height="28" viewBox="0 0 28 28" fill="none" xmlns="http://www.w3.org/2000/svg">
<path d="M19.3549 8.64356C18.8627 8.15145 18.1951 7.875 17.4991 7.875C16.803 7.875 16.1354 8.15145 15.6432 8.64356L15.2363 9.04956L16.4736 10.2868L16.8804 9.88081C17.0455 9.72143 17.2665 9.63323 17.4959 9.63522C17.7253 9.63722 17.9448 9.72924 18.107 9.89147C18.2693 10.0537 18.3613 10.2732 18.3633 10.5026C18.3653 10.732 18.2771 10.953 18.1177 11.1181L15.2363 13.9994L16.4736 15.2367L19.3549 12.3553C19.847 11.8631 20.1235 11.1955 20.1235 10.4994C20.1235 9.80338 19.847 9.13582 19.3549 8.64356ZM11.1177 18.1181C10.9527 18.2775 10.7316 18.3656 10.5022 18.3637C10.2728 18.3617 10.0533 18.2696 9.89109 18.1074C9.72886 17.9452 9.63683 17.7257 9.63484 17.4963C9.63285 17.2669 9.72104 17.0458 9.88043 16.8808L12.7618 13.9994L11.5246 12.7622L8.64318 15.6436C8.39246 15.8857 8.19249 16.1754 8.05491 16.4956C7.91734 16.8159 7.84492 17.1603 7.8419 17.5089C7.83887 17.8574 7.90528 18.2031 8.03727 18.5257C8.16926 18.8483 8.36417 19.1414 8.61064 19.3878C8.85711 19.6343 9.1502 19.8292 9.4728 19.9612C9.7954 20.0932 10.1411 20.1596 10.4896 20.1566C10.8382 20.1536 11.1826 20.0812 11.5029 19.9436C11.8231 19.806 12.1128 19.606 12.3549 19.3553L12.7618 18.9493L11.5246 17.7121L11.1177 18.1181ZM12.3549 8.64444C11.8578 8.17786 11.1987 7.92298 10.5171 7.93373C9.83538 7.94448 9.18464 8.22001 8.7025 8.70203C8.22037 9.18405 7.94469 9.83473 7.93378 10.5164C7.92287 11.1981 8.17759 11.8572 8.64405 12.3544L9.05005 12.7613L10.2873 11.5241L9.8813 11.1172C9.72192 10.9522 9.63372 10.7311 9.63571 10.5017C9.63771 10.2723 9.72973 10.0528 9.89196 9.8906C10.0542 9.72837 10.2737 9.63634 10.5031 9.63435C10.7325 9.63236 10.9535 9.72055 11.1186 9.87994L13.9991 12.7622L15.2363 11.5249L12.3549 8.64444Z" fill="#4F3895"/>
<path d="M19.3568 15.6413L18.9508 15.2344L17.7135 16.4716L18.1195 16.8785C18.2789 17.0435 18.3671 17.2646 18.3651 17.494C18.3631 17.7234 18.2711 17.9429 18.1089 18.1051C17.9467 18.2673 17.7272 18.3593 17.4978 18.3613C17.2684 18.3633 17.0473 18.2751 16.8823 18.1158L14.0009 15.2344L12.7637 16.4716L15.645 19.353C16.1401 19.8312 16.8032 20.0958 17.4915 20.0898C18.1797 20.0838 18.8381 19.8077 19.3248 19.321C19.8115 18.8343 20.0876 18.1759 20.0936 17.4877C20.0995 16.7994 19.835 16.1363 19.3568 15.6413Z" fill="#4F3895"/>
<path d="M14 27.1253C13.8451 27.1254 13.6929 27.0843 13.559 27.0063L3.059 20.8813C2.92689 20.8042 2.8173 20.6938 2.74115 20.5611C2.665 20.4285 2.62495 20.2782 2.625 20.1253V7.87526C2.62495 7.72231 2.665 7.57201 2.74115 7.43937C2.8173 7.30672 2.92689 7.19635 3.059 7.11926L13.559 0.994259C13.6928 0.916156 13.845 0.875 14 0.875C14.155 0.875 14.3072 0.916156 14.441 0.994259L24.941 7.11926L24.059 8.63126L14 2.76351L4.375 8.37751V19.623L14 25.2379L23.625 19.623V13.1253H25.375V20.1253C25.375 20.2782 25.335 20.4285 25.2588 20.5611C25.1827 20.6938 25.0731 20.8042 24.941 20.8813L14.441 27.0063C14.3071 27.0843 14.1549 27.1254 14 27.1253Z" fill="#4F3895"/>
</svg>
