<svg width="17" height="17" viewBox="0 0 17 17" fill="none" xmlns="http://www.w3.org/2000/svg">
<path d="M11.6556 5.28064C11.8052 5.13815 12.0044 5.05937 12.2111 5.06094C12.4177 5.0625 12.6157 5.14428 12.7632 5.28902C12.9107 5.43376 12.9962 5.63014 13.0016 5.83673C13.0071 6.04331 12.9321 6.24393 12.7925 6.39627L8.55308 11.6981C8.48018 11.7767 8.3922 11.8397 8.29439 11.8834C8.19659 11.9271 8.09097 11.9507 7.98385 11.9527C7.87672 11.9547 7.7703 11.935 7.67094 11.895C7.57159 11.8549 7.48133 11.7952 7.40558 11.7194L4.5942 8.90802C4.51591 8.83506 4.45312 8.74709 4.40956 8.64934C4.36601 8.55159 4.34259 8.44607 4.3407 8.33907C4.33881 8.23207 4.3585 8.12579 4.39857 8.02657C4.43865 7.92734 4.49831 7.83721 4.57398 7.76154C4.64965 7.68587 4.73978 7.62621 4.83901 7.58614C4.93823 7.54606 5.04451 7.52637 5.15151 7.52826C5.25851 7.53015 5.36403 7.55357 5.46178 7.59712C5.55952 7.64068 5.6475 7.70347 5.72045 7.78177L7.94533 10.0056L11.6354 5.30402C11.642 5.29584 11.6491 5.28803 11.6566 5.28064H11.6556Z" fill="#4F3895"/>
</svg>