<svg width="20" height="20" viewBox="0 0 20 20" fill="none" xmlns="http://www.w3.org/2000/svg">
<path d="M14.348 14.849C14.123 15.074 13.8178 15.2004 13.4995 15.2004C13.1813 15.2004 12.8761 15.074 12.651 14.849L10 11.819L7.34901 14.848C7.23792 14.9609 7.10556 15.0507 6.95959 15.1122C6.81361 15.1737 6.6569 15.2057 6.49849 15.2064C6.34008 15.207 6.18311 15.1763 6.03664 15.116C5.89017 15.0557 5.75709 14.9669 5.64507 14.8549C5.53306 14.7429 5.44434 14.6098 5.38401 14.4634C5.32369 14.3169 5.29297 14.1599 5.29361 14.0015C5.29426 13.8431 5.32626 13.6864 5.38777 13.5404C5.44929 13.3944 5.53909 13.2621 5.65201 13.151L8.41001 10.001L5.65101 6.84899C5.53809 6.73789 5.44829 6.60554 5.38677 6.45956C5.32526 6.31358 5.29326 6.15687 5.29261 5.99847C5.29197 5.84006 5.32269 5.68309 5.38301 5.53662C5.44334 5.39014 5.53206 5.25706 5.64407 5.14505C5.75609 5.03304 5.88917 4.94431 6.03564 4.88399C6.18211 4.82367 6.33908 4.79294 6.49749 4.79359C6.6559 4.79423 6.81261 4.82624 6.95859 4.88775C7.10456 4.94926 7.23692 5.03907 7.34801 5.15199L10 8.18299L12.651 5.15199C12.7621 5.03907 12.8945 4.94926 13.0404 4.88775C13.1864 4.82624 13.3431 4.79423 13.5015 4.79359C13.6599 4.79294 13.8169 4.82367 13.9634 4.88399C14.1099 4.94431 14.2429 5.03304 14.355 5.14505C14.467 5.25706 14.5557 5.39014 14.616 5.53662C14.6763 5.68309 14.7071 5.84006 14.7064 5.99847C14.7058 6.15687 14.6738 6.31358 14.6123 6.45956C14.5507 6.60554 14.4609 6.73789 14.348 6.84899L11.59 10.001L14.348 13.151C14.4596 13.2624 14.5481 13.3948 14.6085 13.5405C14.6689 13.6861 14.7 13.8423 14.7 14C14.7 14.1577 14.6689 14.3138 14.6085 14.4595C14.5481 14.6052 14.4596 14.7375 14.348 14.849Z" fill="#DB6868"/>
</svg>
