<svg width="584" height="329" viewBox="0 0 584 329" fill="none" xmlns="http://www.w3.org/2000/svg">
<g clip-path="url(#clip0_191_8183)">
<mask id="mask0_191_8183" style="mask-type:luminance" maskUnits="userSpaceOnUse" x="-659" y="0" width="1243" height="329">
<path d="M584 0H-659V329H584V0Z" fill="white"/>
</mask>
<g mask="url(#mask0_191_8183)">
<mask id="mask1_191_8183" style="mask-type:alpha" maskUnits="userSpaceOnUse" x="-659" y="0" width="1243" height="330">
<path d="M583.01 0.5V328.928H-658.5V0.5H583.01Z" fill="#5B2FBD" stroke="#EFF0F7"/>
</mask>
<g mask="url(#mask1_191_8183)">
<path opacity="0.2" d="M219.865 0.987823C219.865 12.6104 222.154 24.1192 226.602 34.857C231.05 45.5949 237.569 55.3515 245.788 63.5699C254.006 71.7883 263.763 78.3075 274.5 82.7553C285.238 87.2031 296.747 89.4923 308.37 89.4923C319.992 89.4923 331.501 87.203 342.24 82.7553C352.98 78.3075 362.73 71.7883 370.95 63.5699C379.17 55.3515 385.69 45.5949 390.14 34.857C394.58 24.1192 396.87 12.6104 396.87 0.987793L308.37 0.987823H219.865Z" fill="white"/>
<path opacity="0.1" d="M219.068 147.188C219.068 160.819 216.384 174.317 211.167 186.911C205.951 199.504 198.305 210.947 188.666 220.586C179.028 230.224 167.585 237.87 154.991 243.087C142.398 248.303 128.9 250.988 115.269 250.988C101.638 250.988 88.1398 248.303 75.5468 243.087C62.9528 237.87 51.5098 230.224 41.8718 220.586C32.2328 210.947 24.5867 199.504 19.3707 186.911C14.1537 174.317 11.4688 160.819 11.4688 147.188H115.269H219.068Z" fill="white"/>
<path opacity="0.1" d="M396.85 266.653V89.0127H219.207V266.653H396.85Z" fill="white"/>
<path opacity="0.07" d="M210.088 340.861L309.532 244.139L396.75 154.198V340.861H210.088Z" fill="white"/>
<path opacity="0.07" d="M396.99 257.506C396.99 308.868 438.63 350.506 489.99 350.506C541.35 350.506 582.99 308.868 582.99 257.506C582.99 206.143 541.35 164.506 489.99 164.506C438.63 164.506 396.99 206.143 396.99 257.506Z" fill="white"/>
<path opacity="0.2" d="M583.51 165.587V-21.0771H396.84V165.587H583.51Z" fill="white"/>
<path opacity="0.2" d="M561.589 9.53674e-06L473.839 85.349L396.869 164.714V0L561.589 9.53674e-06Z" fill="white"/>
</g>
</g>
</g>
<defs>
<clipPath id="clip0_191_8183">
<rect width="584" height="329" fill="white"/>
</clipPath>
</defs>
</svg>
