<svg width="25" height="20" viewBox="0 0 17 13" fill="none" xmlns="http://www.w3.org/2000/svg">
    <path fill-rule="evenodd" clip-rule="evenodd" d="M8.33334 0C4.06447 0 1.21942 3.88443 0.206366 5.52865C-0.0687888 5.97523 -0.0687888 6.52477 0.206366 6.97135C1.21942 8.61557 4.06447 12.5 8.33334 12.5C12.6022 12.5 15.4472 8.61557 16.4603 6.97135C16.7354 6.52477 16.7354 5.97523 16.4603 5.52865C15.4472 3.88443 12.6022 0 8.33334 0ZM11.6655 6.25C11.6655 8.09095 10.1737 9.5833 8.33335 9.5833C6.49301 9.5833 5.00111 8.09095 5.00111 6.25C5.00111 4.40905 6.49301 2.91667 8.33335 2.91667C10.1737 2.91667 11.6655 4.40905 11.6655 6.25ZM8.33334 7.91667C9.25351 7.91667 9.99944 7.17047 9.99944 6.25C9.99944 5.32953 9.25351 4.58333 8.33334 4.58333C7.41317 4.58333 6.66722 5.32953 6.66722 6.25C6.66722 7.17047 7.41317 7.91667 8.33334 7.91667Z" fill="white"></path>
</svg>