<svg width="24" height="24" viewBox="0 0 24 24" fill="none" xmlns="http://www.w3.org/2000/svg">
<path d="M10.5 21.8531C10.2548 21.8507 10.0137 21.7896 9.79688 21.675C9.55606 21.5484 9.3545 21.3582 9.21403 21.1252C9.07356 20.8922 8.99954 20.6252 9.00001 20.3531V13.0406L2.83126 6.2625C2.63852 6.04583 2.51228 5.77822 2.46764 5.49169C2.423 5.20515 2.46184 4.91183 2.57953 4.64679C2.69721 4.38175 2.88875 4.15623 3.13124 3.99719C3.37373 3.83815 3.6569 3.75233 3.94688 3.75H20.0531C20.3431 3.75233 20.6263 3.83815 20.8688 3.99719C21.1113 4.15623 21.3028 4.38175 21.4205 4.64679C21.5382 4.91183 21.577 5.20515 21.5324 5.49169C21.4877 5.77822 21.3615 6.04583 21.1688 6.2625L15 13.0406V18.3469C15.0009 18.5936 14.9405 18.8366 14.8244 19.0542C14.7082 19.2718 14.5398 19.4572 14.3344 19.5937L11.3344 21.6C11.0875 21.7651 10.7971 21.8532 10.5 21.8531ZM3.94688 5.25L10.1063 12.0281C10.3586 12.3051 10.499 12.666 10.5 13.0406V20.3531L13.5 18.3469V13.0406C13.501 12.666 13.6414 12.3051 13.8938 12.0281L20.0531 5.25H3.94688Z" fill="#4F4F4F"/>
</svg>
