<svg width="169" height="24" viewBox="0 0 169 24" fill="none" xmlns="http://www.w3.org/2000/svg">
<path d="M7.53719 8.56006C7.53719 9.36966 6.82677 10.026 5.95041 10.026C5.07406 10.026 4.36364 9.36966 4.36364 8.56006C4.36364 7.75045 5.07406 7.11688 5.95041 7.11688C6.82677 7.11688 7.53719 7.75045 7.53719 8.56006Z" fill="white"/>
<path d="M13.0909 8.57143C13.0909 9.37475 12.3805 10.026 11.5041 10.026C10.6278 10.026 9.91736 9.37475 9.91736 8.57143C9.91736 7.76811 10.6278 7.11688 11.5041 7.11688C12.3805 7.11688 13.0909 7.76811 13.0909 8.57143Z" fill="white"/>
<path fill-rule="evenodd" clip-rule="evenodd" d="M2.18182 0C0.976833 0 0 1.02335 0 2.28571V21.7143C0 22.9767 0.976833 24 2.18182 24H15.2727C16.4777 24 17.4545 22.9767 17.4545 21.7143V2.28571C17.4545 1.02335 16.4777 0 15.2727 0H2.18182ZM4.90909 5.71429C3.40286 5.71429 2.18182 6.99347 2.18182 8.57143C2.18182 10.1494 3.40286 11.4286 4.90909 11.4286H12.5455C14.0517 11.4286 15.2727 10.1494 15.2727 8.57143C15.2727 6.99347 14.0517 5.71429 12.5455 5.71429H4.90909Z" fill="white"/>
<path d="M27.9082 21V1.12H41.2642V4.508H31.7722V9.632H39.6682V12.768H31.7722V21H27.9082ZM50.0833 21.28C48.8886 21.28 47.8153 21.084 46.8633 20.692C45.9113 20.2813 45.0993 19.7213 44.4273 19.012C43.774 18.3027 43.27 17.4907 42.9153 16.576C42.5606 15.6613 42.3833 14.7 42.3833 13.692C42.3833 12.6653 42.5606 11.6947 42.9153 10.78C43.27 9.86533 43.774 9.05333 44.4273 8.344C45.0993 7.63467 45.9113 7.084 46.8633 6.692C47.8153 6.28133 48.8886 6.076 50.0833 6.076C51.278 6.076 52.342 6.28133 53.2753 6.692C54.2273 7.084 55.0393 7.63467 55.7113 8.344C56.3833 9.05333 56.8873 9.86533 57.2233 10.78C57.578 11.6947 57.7553 12.6653 57.7553 13.692C57.7553 14.7 57.578 15.6613 57.2233 16.576C56.8873 17.4907 56.3833 18.3027 55.7113 19.012C55.058 19.7213 54.2553 20.2813 53.3033 20.692C52.3513 21.084 51.278 21.28 50.0833 21.28ZM46.2473 13.692C46.2473 14.5507 46.4153 15.316 46.7513 15.988C47.0873 16.6413 47.5446 17.1547 48.1233 17.528C48.702 17.9013 49.3553 18.088 50.0833 18.088C50.7926 18.088 51.4366 17.9013 52.0153 17.528C52.594 17.136 53.0513 16.6133 53.3873 15.96C53.742 15.288 53.9193 14.5227 53.9193 13.664C53.9193 12.824 53.742 12.068 53.3873 11.396C53.0513 10.724 52.594 10.2013 52.0153 9.828C51.4366 9.45467 50.7926 9.268 50.0833 9.268C49.3553 9.268 48.702 9.464 48.1233 9.856C47.5446 10.2293 47.0873 10.752 46.7513 11.424C46.4153 12.0773 46.2473 12.8333 46.2473 13.692ZM69.5838 9.576C68.4451 9.576 67.4278 9.8 66.5318 10.248C65.6358 10.6773 64.9918 11.3027 64.5998 12.124V21H60.8478V6.328H64.2918V9.464C64.8144 8.456 65.4771 7.66267 66.2798 7.084C67.0824 6.50533 67.9318 6.188 68.8278 6.132C69.0331 6.132 69.1918 6.132 69.3038 6.132C69.4158 6.132 69.5091 6.14133 69.5838 6.16V9.576ZM95.0279 21H91.2759V12.768C91.2759 11.6107 91.0706 10.7613 90.6599 10.22C90.2679 9.66 89.7172 9.38 89.0079 9.38C88.2799 9.38 87.5799 9.66933 86.9079 10.248C86.2546 10.808 85.7879 11.5453 85.5079 12.46V21H81.7559V12.768C81.7559 11.592 81.5506 10.7333 81.1399 10.192C80.7479 9.65067 80.1972 9.38 79.4879 9.38C78.7599 9.38 78.0599 9.66 77.3879 10.22C76.7346 10.78 76.2679 11.5173 75.9879 12.432V21H72.2359V6.328H75.6239V9.044C76.1839 8.092 76.9306 7.364 77.8639 6.86C78.7972 6.33733 79.8706 6.076 81.0839 6.076C82.2972 6.076 83.2399 6.37467 83.9119 6.972C84.6026 7.56933 85.0412 8.30667 85.2279 9.184C85.8252 8.176 86.5812 7.41067 87.4959 6.888C88.4292 6.34667 89.4746 6.076 90.6319 6.076C91.5466 6.076 92.2839 6.244 92.8439 6.58C93.4226 6.89733 93.8706 7.336 94.1879 7.896C94.5052 8.43733 94.7199 9.05333 94.8319 9.744C94.9626 10.4347 95.0279 11.1347 95.0279 11.844V21ZM105.658 21.28C104.482 21.28 103.418 21.084 102.466 20.692C101.514 20.2813 100.702 19.7307 100.03 19.04C99.3585 18.3307 98.8358 17.528 98.4625 16.632C98.1078 15.7173 97.9305 14.756 97.9305 13.748C97.9305 12.348 98.2385 11.0693 98.8545 9.912C99.4892 8.75467 100.385 7.83067 101.542 7.14C102.718 6.43067 104.1 6.076 105.686 6.076C107.292 6.076 108.664 6.43067 109.802 7.14C110.941 7.83067 111.809 8.75467 112.406 9.912C113.022 11.0507 113.33 12.2827 113.33 13.608C113.33 13.832 113.321 14.0653 113.302 14.308C113.284 14.532 113.265 14.7187 113.246 14.868H101.906C101.981 15.6147 102.196 16.268 102.55 16.828C102.924 17.388 103.39 17.8173 103.95 18.116C104.529 18.396 105.145 18.536 105.798 18.536C106.545 18.536 107.245 18.3587 107.898 18.004C108.57 17.6307 109.028 17.1453 109.27 16.548L112.49 17.444C112.136 18.1907 111.622 18.8533 110.95 19.432C110.297 20.0107 109.522 20.468 108.626 20.804C107.73 21.1213 106.741 21.28 105.658 21.28ZM101.822 12.488H109.494C109.42 11.7413 109.205 11.0973 108.85 10.556C108.514 9.996 108.066 9.56667 107.506 9.268C106.946 8.95067 106.321 8.792 105.63 8.792C104.958 8.792 104.342 8.95067 103.782 9.268C103.241 9.56667 102.793 9.996 102.438 10.556C102.102 11.0973 101.897 11.7413 101.822 12.488ZM121.58 21.28C120.33 21.28 119.135 21.0747 117.996 20.664C116.858 20.2533 115.878 19.6467 115.056 18.844L116.4 16.408C117.278 17.1173 118.136 17.64 118.976 17.976C119.835 18.312 120.656 18.48 121.44 18.48C122.168 18.48 122.747 18.3493 123.176 18.088C123.624 17.8267 123.848 17.4347 123.848 16.912C123.848 16.5573 123.727 16.2867 123.484 16.1C123.242 15.8947 122.887 15.7173 122.42 15.568C121.972 15.4187 121.422 15.2507 120.768 15.064C119.686 14.7093 118.78 14.364 118.052 14.028C117.324 13.692 116.774 13.272 116.4 12.768C116.046 12.2453 115.868 11.5827 115.868 10.78C115.868 9.80933 116.111 8.97867 116.596 8.288C117.1 7.57867 117.791 7.028 118.668 6.636C119.564 6.244 120.61 6.048 121.804 6.048C122.85 6.048 123.839 6.216 124.772 6.552C125.706 6.86933 126.555 7.392 127.32 8.12L125.808 10.5C125.062 9.92133 124.352 9.50133 123.68 9.24C123.008 8.96 122.327 8.82 121.636 8.82C121.244 8.82 120.871 8.86667 120.516 8.96C120.18 9.05333 119.9 9.212 119.676 9.436C119.471 9.64133 119.368 9.94 119.368 10.332C119.368 10.6867 119.462 10.9667 119.648 11.172C119.854 11.3587 120.152 11.5267 120.544 11.676C120.955 11.8253 121.45 11.9933 122.028 12.18C123.204 12.516 124.194 12.8613 124.996 13.216C125.818 13.5707 126.434 14.0093 126.844 14.532C127.255 15.036 127.46 15.736 127.46 16.632C127.46 18.088 126.928 19.2267 125.864 20.048C124.8 20.8693 123.372 21.28 121.58 21.28ZM139.282 20.244C138.965 20.3747 138.582 20.524 138.134 20.692C137.686 20.86 137.201 20.9907 136.678 21.084C136.174 21.196 135.661 21.252 135.138 21.252C134.447 21.252 133.813 21.1307 133.234 20.888C132.655 20.6453 132.189 20.2627 131.834 19.74C131.498 19.1987 131.33 18.4987 131.33 17.64V9.212H129.398V6.328H131.33V1.568H135.082V6.328H138.162V9.212H135.082V16.38C135.101 16.884 135.241 17.248 135.502 17.472C135.763 17.696 136.09 17.808 136.482 17.808C136.874 17.808 137.257 17.7427 137.63 17.612C138.003 17.4813 138.302 17.3693 138.526 17.276L139.282 20.244ZM148.436 21.28C147.26 21.28 146.196 21.084 145.244 20.692C144.292 20.2813 143.48 19.7307 142.808 19.04C142.136 18.3307 141.613 17.528 141.24 16.632C140.885 15.7173 140.708 14.756 140.708 13.748C140.708 12.348 141.016 11.0693 141.632 9.912C142.267 8.75467 143.163 7.83067 144.32 7.14C145.496 6.43067 146.877 6.076 148.464 6.076C150.069 6.076 151.441 6.43067 152.58 7.14C153.719 7.83067 154.587 8.75467 155.184 9.912C155.8 11.0507 156.108 12.2827 156.108 13.608C156.108 13.832 156.099 14.0653 156.08 14.308C156.061 14.532 156.043 14.7187 156.024 14.868H144.684C144.759 15.6147 144.973 16.268 145.328 16.828C145.701 17.388 146.168 17.8173 146.728 18.116C147.307 18.396 147.923 18.536 148.576 18.536C149.323 18.536 150.023 18.3587 150.676 18.004C151.348 17.6307 151.805 17.1453 152.048 16.548L155.268 17.444C154.913 18.1907 154.4 18.8533 153.728 19.432C153.075 20.0107 152.3 20.468 151.404 20.804C150.508 21.1213 149.519 21.28 148.436 21.28ZM144.6 12.488H152.272C152.197 11.7413 151.983 11.0973 151.628 10.556C151.292 9.996 150.844 9.56667 150.284 9.268C149.724 8.95067 149.099 8.792 148.408 8.792C147.736 8.792 147.12 8.95067 146.56 9.268C146.019 9.56667 145.571 9.996 145.216 10.556C144.88 11.0973 144.675 11.7413 144.6 12.488ZM167.69 9.576C166.551 9.576 165.534 9.8 164.638 10.248C163.742 10.6773 163.098 11.3027 162.706 12.124V21H158.954V6.328H162.398V9.464C162.921 8.456 163.583 7.66267 164.386 7.084C165.189 6.50533 166.038 6.188 166.934 6.132C167.139 6.132 167.298 6.132 167.41 6.132C167.522 6.132 167.615 6.14133 167.69 6.16V9.576Z" fill="white"/>
</svg>
