<svg width="175" height="24" viewBox="0 0 175 24" fill="none" xmlns="http://www.w3.org/2000/svg">
<path d="M7.53719 8.56006C7.53719 9.36966 6.82677 10.026 5.95041 10.026C5.07406 10.026 4.36364 9.36966 4.36364 8.56006C4.36364 7.75045 5.07406 7.11688 5.95041 7.11688C6.82677 7.11688 7.53719 7.75045 7.53719 8.56006Z" fill="#6434D0"/>
<path d="M13.0909 8.57143C13.0909 9.37475 12.3805 10.026 11.5041 10.026C10.6278 10.026 9.91736 9.37475 9.91736 8.57143C9.91736 7.76811 10.6278 7.11688 11.5041 7.11688C12.3805 7.11688 13.0909 7.76811 13.0909 8.57143Z" fill="#6434D0"/>
<path fill-rule="evenodd" clip-rule="evenodd" d="M2.18182 0C0.976833 0 0 1.02335 0 2.28571V21.7143C0 22.9767 0.976833 24 2.18182 24H15.2727C16.4777 24 17.4545 22.9767 17.4545 21.7143V2.28571C17.4545 1.02335 16.4777 0 15.2727 0H2.18182ZM4.90909 5.71429C3.40286 5.71429 2.18182 6.99347 2.18182 8.57143C2.18182 10.1494 3.40286 11.4286 4.90909 11.4286H12.5455C14.0517 11.4286 15.2727 10.1494 15.2727 8.57143C15.2727 6.99347 14.0517 5.71429 12.5455 5.71429H4.90909Z" fill="#6434D0"/>
<path d="M27.9076 23V3.12H41.2636V6.508H31.7716V11.632H39.6676V14.768H31.7716V23H27.9076ZM50.0828 23.28C48.8881 23.28 47.8148 23.084 46.8628 22.692C45.9108 22.2813 45.0988 21.7213 44.4268 21.012C43.7734 20.3027 43.2694 19.4907 42.9148 18.576C42.5601 17.6613 42.3828 16.7 42.3828 15.692C42.3828 14.6653 42.5601 13.6947 42.9148 12.78C43.2694 11.8653 43.7734 11.0533 44.4268 10.344C45.0988 9.63467 45.9108 9.084 46.8628 8.692C47.8148 8.28133 48.8881 8.076 50.0828 8.076C51.2774 8.076 52.3414 8.28133 53.2748 8.692C54.2268 9.084 55.0388 9.63467 55.7108 10.344C56.3828 11.0533 56.8868 11.8653 57.2228 12.78C57.5774 13.6947 57.7548 14.6653 57.7548 15.692C57.7548 16.7 57.5774 17.6613 57.2228 18.576C56.8868 19.4907 56.3828 20.3027 55.7108 21.012C55.0574 21.7213 54.2548 22.2813 53.3028 22.692C52.3508 23.084 51.2774 23.28 50.0828 23.28ZM46.2468 15.692C46.2468 16.5507 46.4148 17.316 46.7508 17.988C47.0868 18.6413 47.5441 19.1547 48.1228 19.528C48.7014 19.9013 49.3548 20.088 50.0828 20.088C50.7921 20.088 51.4361 19.9013 52.0148 19.528C52.5934 19.136 53.0508 18.6133 53.3868 17.96C53.7414 17.288 53.9188 16.5227 53.9188 15.664C53.9188 14.824 53.7414 14.068 53.3868 13.396C53.0508 12.724 52.5934 12.2013 52.0148 11.828C51.4361 11.4547 50.7921 11.268 50.0828 11.268C49.3548 11.268 48.7014 11.464 48.1228 11.856C47.5441 12.2293 47.0868 12.752 46.7508 13.424C46.4148 14.0773 46.2468 14.8333 46.2468 15.692ZM69.5832 11.576C68.4446 11.576 67.4272 11.8 66.5312 12.248C65.6352 12.6773 64.9912 13.3027 64.5992 14.124V23H60.8472V8.328H64.2912V11.464C64.8139 10.456 65.4766 9.66267 66.2792 9.084C67.0819 8.50533 67.9312 8.188 68.8272 8.132C69.0326 8.132 69.1912 8.132 69.3032 8.132C69.4152 8.132 69.5086 8.14133 69.5832 8.16V11.576ZM95.0273 23H91.2753V14.768C91.2753 13.6107 91.07 12.7613 90.6593 12.22C90.2673 11.66 89.7167 11.38 89.0073 11.38C88.2793 11.38 87.5793 11.6693 86.9073 12.248C86.254 12.808 85.7873 13.5453 85.5073 14.46V23H81.7553V14.768C81.7553 13.592 81.55 12.7333 81.1393 12.192C80.7473 11.6507 80.1967 11.38 79.4873 11.38C78.7593 11.38 78.0593 11.66 77.3873 12.22C76.734 12.78 76.2673 13.5173 75.9873 14.432V23H72.2353V8.328H75.6233V11.044C76.1833 10.092 76.93 9.364 77.8633 8.86C78.7967 8.33733 79.87 8.076 81.0833 8.076C82.2967 8.076 83.2393 8.37467 83.9113 8.972C84.602 9.56933 85.0407 10.3067 85.2273 11.184C85.8247 10.176 86.5807 9.41067 87.4953 8.888C88.4287 8.34667 89.474 8.076 90.6313 8.076C91.546 8.076 92.2833 8.244 92.8433 8.58C93.422 8.89733 93.87 9.336 94.1873 9.896C94.5047 10.4373 94.7193 11.0533 94.8313 11.744C94.962 12.4347 95.0273 13.1347 95.0273 13.844V23ZM105.658 23.28C104.482 23.28 103.418 23.084 102.466 22.692C101.514 22.2813 100.702 21.7307 100.03 21.04C99.3579 20.3307 98.8353 19.528 98.4619 18.632C98.1073 17.7173 97.9299 16.756 97.9299 15.748C97.9299 14.348 98.2379 13.0693 98.8539 11.912C99.4886 10.7547 100.385 9.83067 101.542 9.14C102.718 8.43067 104.099 8.076 105.686 8.076C107.291 8.076 108.663 8.43067 109.802 9.14C110.941 9.83067 111.809 10.7547 112.406 11.912C113.022 13.0507 113.33 14.2827 113.33 15.608C113.33 15.832 113.321 16.0653 113.302 16.308C113.283 16.532 113.265 16.7187 113.246 16.868H101.906C101.981 17.6147 102.195 18.268 102.55 18.828C102.923 19.388 103.39 19.8173 103.95 20.116C104.529 20.396 105.145 20.536 105.798 20.536C106.545 20.536 107.245 20.3587 107.898 20.004C108.57 19.6307 109.027 19.1453 109.27 18.548L112.49 19.444C112.135 20.1907 111.622 20.8533 110.95 21.432C110.297 22.0107 109.522 22.468 108.626 22.804C107.73 23.1213 106.741 23.28 105.658 23.28ZM101.822 14.488H109.494C109.419 13.7413 109.205 13.0973 108.85 12.556C108.514 11.996 108.066 11.5667 107.506 11.268C106.946 10.9507 106.321 10.792 105.63 10.792C104.958 10.792 104.342 10.9507 103.782 11.268C103.241 11.5667 102.793 11.996 102.438 12.556C102.102 13.0973 101.897 13.7413 101.822 14.488ZM121.58 23.28C120.329 23.28 119.134 23.0747 117.996 22.664C116.857 22.2533 115.877 21.6467 115.056 20.844L116.4 18.408C117.277 19.1173 118.136 19.64 118.976 19.976C119.834 20.312 120.656 20.48 121.44 20.48C122.168 20.48 122.746 20.3493 123.176 20.088C123.624 19.8267 123.848 19.4347 123.848 18.912C123.848 18.5573 123.726 18.2867 123.484 18.1C123.241 17.8947 122.886 17.7173 122.42 17.568C121.972 17.4187 121.421 17.2507 120.768 17.064C119.685 16.7093 118.78 16.364 118.052 16.028C117.324 15.692 116.773 15.272 116.4 14.768C116.045 14.2453 115.868 13.5827 115.868 12.78C115.868 11.8093 116.11 10.9787 116.596 10.288C117.1 9.57867 117.79 9.028 118.668 8.636C119.564 8.244 120.609 8.048 121.804 8.048C122.849 8.048 123.838 8.216 124.772 8.552C125.705 8.86933 126.554 9.392 127.32 10.12L125.808 12.5C125.061 11.9213 124.352 11.5013 123.68 11.24C123.008 10.96 122.326 10.82 121.636 10.82C121.244 10.82 120.87 10.8667 120.516 10.96C120.18 11.0533 119.9 11.212 119.676 11.436C119.47 11.6413 119.368 11.94 119.368 12.332C119.368 12.6867 119.461 12.9667 119.648 13.172C119.853 13.3587 120.152 13.5267 120.544 13.676C120.954 13.8253 121.449 13.9933 122.028 14.18C123.204 14.516 124.193 14.8613 124.996 15.216C125.817 15.5707 126.433 16.0093 126.844 16.532C127.254 17.036 127.46 17.736 127.46 18.632C127.46 20.088 126.928 21.2267 125.864 22.048C124.8 22.8693 123.372 23.28 121.58 23.28ZM139.282 22.244C138.964 22.3747 138.582 22.524 138.134 22.692C137.686 22.86 137.2 22.9907 136.678 23.084C136.174 23.196 135.66 23.252 135.138 23.252C134.447 23.252 133.812 23.1307 133.234 22.888C132.655 22.6453 132.188 22.2627 131.834 21.74C131.498 21.1987 131.33 20.4987 131.33 19.64V11.212H129.398V8.328H131.33V3.568H135.082V8.328H138.162V11.212H135.082V18.38C135.1 18.884 135.24 19.248 135.502 19.472C135.763 19.696 136.09 19.808 136.482 19.808C136.874 19.808 137.256 19.7427 137.63 19.612C138.003 19.4813 138.302 19.3693 138.526 19.276L139.282 22.244ZM148.436 23.28C147.26 23.28 146.196 23.084 145.244 22.692C144.292 22.2813 143.48 21.7307 142.808 21.04C142.136 20.3307 141.613 19.528 141.24 18.632C140.885 17.7173 140.708 16.756 140.708 15.748C140.708 14.348 141.016 13.0693 141.632 11.912C142.266 10.7547 143.162 9.83067 144.32 9.14C145.496 8.43067 146.877 8.076 148.464 8.076C150.069 8.076 151.441 8.43067 152.58 9.14C153.718 9.83067 154.586 10.7547 155.184 11.912C155.8 13.0507 156.108 14.2827 156.108 15.608C156.108 15.832 156.098 16.0653 156.08 16.308C156.061 16.532 156.042 16.7187 156.024 16.868H144.684C144.758 17.6147 144.973 18.268 145.328 18.828C145.701 19.388 146.168 19.8173 146.728 20.116C147.306 20.396 147.922 20.536 148.576 20.536C149.322 20.536 150.022 20.3587 150.676 20.004C151.348 19.6307 151.805 19.1453 152.048 18.548L155.268 19.444C154.913 20.1907 154.4 20.8533 153.728 21.432C153.074 22.0107 152.3 22.468 151.404 22.804C150.508 23.1213 149.518 23.28 148.436 23.28ZM144.6 14.488H152.272C152.197 13.7413 151.982 13.0973 151.628 12.556C151.292 11.996 150.844 11.5667 150.284 11.268C149.724 10.9507 149.098 10.792 148.408 10.792C147.736 10.792 147.12 10.9507 146.56 11.268C146.018 11.5667 145.57 11.996 145.216 12.556C144.88 13.0973 144.674 13.7413 144.6 14.488ZM167.689 11.576C166.551 11.576 165.533 11.8 164.637 12.248C163.741 12.6773 163.097 13.3027 162.705 14.124V23H158.953V8.328H162.397V11.464C162.92 10.456 163.583 9.66267 164.385 9.084C165.188 8.50533 166.037 8.188 166.933 8.132C167.139 8.132 167.297 8.132 167.409 8.132C167.521 8.132 167.615 8.14133 167.689 8.16V11.576Z" fill="#5B2FBD"/>
</svg>
