<svg width="134" height="23" viewBox="0 0 134 23" fill="none" xmlns="http://www.w3.org/2000/svg">
<rect y="1" width="16" height="21.3333" rx="1.45455" fill="#FCF7FF"/>
<rect x="2.1814" y="6.09106" width="11.6364" height="5.09091" rx="2.54545" fill="#4F3895"/>
<path d="M6.9086 8.62655C6.9086 9.33495 6.25738 9.90922 5.45406 9.90922C4.65073 9.90922 3.99951 9.33495 3.99951 8.62655C3.99951 7.91814 4.65073 7.36377 5.45406 7.36377C6.25738 7.36377 6.9086 7.91814 6.9086 8.62655Z" fill="#FCF7FF"/>
<ellipse cx="10.5451" cy="8.6365" rx="1.45455" ry="1.27273" fill="#FCF7FF"/>
<path d="M31.5187 12.76H38.5587V10.84H31.5187V4.44H40.1587V2.52H31.5187H28.9587V4.44V10.84V12.76V21.08H31.5187V12.76ZM45.6362 21.4C48.7082 21.4 51.2362 18.904 51.2362 15.8C51.2362 12.728 48.7082 10.2 45.6362 10.2C42.5322 10.2 40.0362 12.728 40.0362 15.8C40.0362 18.904 42.5322 21.4 45.6362 21.4ZM45.6362 12.12C47.3002 12.12 48.6762 13.784 48.6762 15.8C48.6762 17.848 47.3002 19.48 45.6362 19.48C43.9402 19.48 42.5962 17.848 42.5962 15.8C42.5962 13.784 43.9402 12.12 45.6362 12.12ZM55.8925 15.8C55.8925 13.784 57.2365 12.12 58.9325 12.12C59.1245 12.12 59.3485 12.152 59.5725 12.216V10.232C59.4125 10.232 59.2525 10.2 59.0925 10.2C57.8765 10.2 56.7885 10.616 55.8925 11.288V10.552H53.3325V21.08H55.8925V15.8ZM73.8162 10.2C72.4082 10.2 71.1282 10.872 70.2962 11.896C69.4322 10.872 68.1842 10.2 66.7762 10.2C65.8802 10.2 65.0482 10.456 64.3762 10.904V10.52H61.8162V21.08H64.3762V14.968C64.3762 13.4 65.3682 12.12 66.5842 12.12C67.8322 12.12 68.8242 13.432 68.8242 15V21.08H71.4162V15H71.3842C71.4162 13.4 72.4082 12.12 73.6242 12.12C74.8722 12.12 75.8642 13.432 75.8642 15V21.08H78.4562V15C78.4562 12.376 76.3762 10.2 73.8162 10.2ZM86.15 21.4C88.294 21.4 90.182 20.184 91.11 18.36H88.326C87.75 19.064 86.982 19.48 86.15 19.48C84.742 19.48 83.558 18.328 83.206 16.76H89.062H91.654C91.718 16.472 91.75 16.152 91.75 15.8C91.75 15.48 91.718 15.16 91.654 14.84C91.206 12.216 88.902 10.2 86.15 10.2C83.366 10.2 81.062 12.216 80.614 14.84C80.55 15.16 80.55 15.48 80.55 15.8C80.55 16.152 80.55 16.472 80.614 16.76C81.062 19.416 83.366 21.4 86.15 21.4ZM86.15 12.12C87.526 12.12 88.71 13.304 89.062 14.84H83.206C83.558 13.304 84.742 12.12 86.15 12.12ZM101.693 15.768C100.829 15.192 99.645 14.872 98.365 14.872C97.213 14.872 96.285 14.232 96.285 13.496C96.285 12.76 97.213 12.152 98.365 12.152C99.485 12.152 100.445 12.76 100.445 13.496H103.005C103.005 11.672 100.925 10.232 98.365 10.232C95.773 10.232 93.725 11.672 93.725 13.496C93.725 14.392 94.205 15.192 95.005 15.768C95.869 16.408 97.053 16.792 98.365 16.792C99.581 16.792 100.605 17.4 100.605 18.136C100.605 18.872 99.581 19.512 98.365 19.512C97.117 19.512 96.125 18.872 96.125 18.136H93.565C93.565 19.96 95.709 21.432 98.365 21.432C100.989 21.432 103.165 19.96 103.165 18.136C103.165 17.208 102.589 16.376 101.693 15.768ZM109.209 1.88H106.649V10.552H105.049V12.472H106.649V17.4C106.649 19.64 108.409 21.4 110.649 21.4H111.609V19.48H110.649C109.849 19.48 109.209 18.552 109.209 17.4V12.472H112.249V10.552H109.209V1.88ZM119.101 21.4C121.245 21.4 123.133 20.184 124.061 18.36H121.277C120.701 19.064 119.933 19.48 119.101 19.48C117.693 19.48 116.509 18.328 116.157 16.76H122.013H124.605C124.669 16.472 124.701 16.152 124.701 15.8C124.701 15.48 124.669 15.16 124.605 14.84C124.157 12.216 121.853 10.2 119.101 10.2C116.317 10.2 114.013 12.216 113.565 14.84C113.501 15.16 113.501 15.48 113.501 15.8C113.501 16.152 113.501 16.472 113.565 16.76C114.013 19.416 116.317 21.4 119.101 21.4ZM119.101 12.12C120.477 12.12 121.661 13.304 122.013 14.84H116.157C116.509 13.304 117.693 12.12 119.101 12.12ZM129.357 15.8C129.357 13.784 130.701 12.12 132.397 12.12C132.589 12.12 132.813 12.152 133.037 12.216V10.232C132.877 10.232 132.717 10.2 132.557 10.2C131.341 10.2 130.253 10.616 129.357 11.288V10.552H126.797V21.08H129.357V15.8Z" fill="#FCF7FF"/>
</svg>
