<svg width="1466" height="1304" viewBox="0 0 1466 1304" fill="none" xmlns="http://www.w3.org/2000/svg">
<path fill-rule="evenodd" clip-rule="evenodd" d="M638.791 1027.24C500.63 994.257 335.885 1143.26 223.961 1055.69C116.839 971.867 175.55 796.68 170.062 660.477C164.854 531.239 108.644 380.725 192.809 282.58C277.518 183.8 437.025 227.852 564.113 200.974C660.378 180.615 749.173 129.833 846.442 144.342C949.305 159.685 1039.62 214.111 1117.2 283.473C1204.7 361.704 1285.08 450.521 1315.83 563.988C1350.77 692.927 1355.86 833.782 1299.14 954.811C1238.97 1083.21 1139.32 1225.21 998.718 1240.63C856.586 1256.22 777.823 1060.43 638.791 1027.24Z" fill="#573BAA"/>
</svg>
