<svg width="53" height="22" viewBox="0 0 53 22" fill="none" xmlns="http://www.w3.org/2000/svg">
<g clip-path="url(#clip0_1627_3848)">
<path d="M5.70331 9.92554L9.08688 0.677734H6.64896L4.59515 6.65722L2.54137 0.677734H0L3.38357 9.92554H5.70331Z" fill="white"/>
<path d="M15.732 3.14795H13.4122V7.25975C13.294 7.72666 12.8951 8.01285 12.4666 8.01285C11.8756 8.01285 11.6097 7.60616 11.6097 7.03385V3.14795H9.30469V7.59114C9.30469 9.09726 10.1764 10.0763 11.6392 10.0763C12.3927 10.0763 13.0576 9.76002 13.4122 9.33825V9.92565H15.732V3.14795Z" fill="white"/>
<path d="M20.9701 7.56077C20.8372 8.02767 20.4677 8.23849 19.9949 8.23849C19.33 8.23849 18.9163 7.8017 18.8424 6.98839H23.1421V6.40099C23.1421 4.38274 21.9896 2.99707 19.9506 2.99707C18.0298 2.99707 16.6113 4.44299 16.6113 6.53657C16.6113 8.64518 17.9559 10.0761 19.9949 10.0761C21.7236 10.0761 22.8761 9.12717 23.1125 7.56077H20.9701ZM19.9506 4.83458C20.5268 4.83458 20.8667 5.25631 20.8962 5.81359H18.8868C19.0345 5.181 19.4039 4.83458 19.9506 4.83458Z" fill="white"/>
<path d="M23.7266 5.30188C23.7266 8.10335 25.5439 10.0764 28.0853 10.0764C30.3459 10.0764 31.6757 8.70578 32.0008 6.80806H29.6367C29.4003 7.50087 28.9127 7.95275 28.0853 7.95275C26.8294 7.95275 26.1202 6.80806 26.1202 5.30188C26.1202 3.78065 26.8294 2.65103 28.0853 2.65103C28.9127 2.65103 29.4003 3.10288 29.6367 3.78065H32.0008C31.6757 1.89795 30.3459 0.527344 28.0853 0.527344C25.5439 0.527344 23.7266 2.50042 23.7266 5.30188Z" fill="white"/>
<path d="M39.3807 6.53657C39.3807 4.44299 38.0065 2.99707 35.9824 2.99707C33.9729 2.99707 32.584 4.44299 32.584 6.53657C32.584 8.63009 33.9729 10.0761 35.9824 10.0761C38.0065 10.0761 39.3807 8.63009 39.3807 6.53657ZM37.1052 6.53657C37.1052 7.47038 36.7063 8.118 35.9824 8.118C35.2731 8.118 34.8742 7.47038 34.8742 6.53657C34.8742 5.60273 35.2731 4.94002 35.9824 4.94002C36.7063 4.94002 37.1052 5.60273 37.1052 6.53657Z" fill="white"/>
<path d="M40.2832 9.92539H42.6029V5.82865C42.7211 5.36174 43.1053 5.09063 43.5633 5.09063C44.1543 5.09063 44.435 5.4973 44.435 6.05458V9.92539H46.74V5.48223C46.74 3.97608 45.8683 2.99707 44.3907 2.99707C43.6224 2.99707 42.9723 3.31337 42.6029 3.73509V3.14769H40.2832V9.92539Z" fill="white"/>
<path d="M52.1718 0.18074C51.8911 0.0753079 51.5365 0 51.0932 0C49.4679 0 48.5075 1.02419 48.5075 2.65084V3.14788H47.5176V4.98539H48.5075V9.92558H50.7977V4.98539H52.0832V3.14788H50.7977V2.7864C50.7977 2.24418 51.108 1.97307 51.6252 1.97307C51.832 1.97307 52.0093 2.01825 52.1718 2.10862V0.18074Z" fill="white"/>
<path d="M0.808594 14.6801H3.60115V21.8494H5.98V14.6801H8.7873V12.6016H0.808594V14.6801Z" fill="white"/>
<path d="M15.2361 18.4604C15.2361 16.3668 13.8621 14.9209 11.8378 14.9209C9.82834 14.9209 8.43945 16.3668 8.43945 18.4604C8.43945 20.554 9.82834 21.9999 11.8378 21.9999C13.8621 21.9999 15.2361 20.554 15.2361 18.4604ZM12.9608 18.4604C12.9608 19.3942 12.5618 20.0419 11.8378 20.0419C11.1286 20.0419 10.7297 19.3942 10.7297 18.4604C10.7297 17.5266 11.1286 16.8639 11.8378 16.8639C12.5618 16.8639 12.9608 17.5266 12.9608 18.4604Z" fill="white"/>
<path d="M20.6008 15.0414C20.4974 14.9812 20.261 14.9209 19.9655 14.9209C19.3006 14.9209 18.7834 15.2222 18.4584 15.674V15.0715H16.1387V21.8493H18.4584V17.873C18.5766 17.391 19.0051 17.1049 19.6404 17.1049C20.0099 17.1049 20.3201 17.1651 20.6008 17.3157V15.0414Z" fill="white"/>
<path d="M27.8905 18.4604C27.8905 16.3668 26.5164 14.9209 24.4921 14.9209C22.4826 14.9209 21.0938 16.3668 21.0938 18.4604C21.0938 20.554 22.4826 21.9999 24.4921 21.9999C26.5164 21.9999 27.8905 20.554 27.8905 18.4604ZM25.6151 18.4604C25.6151 19.3942 25.2161 20.0419 24.4921 20.0419C23.7829 20.0419 23.384 19.3942 23.384 18.4604C23.384 17.5266 23.7829 16.8639 24.4921 16.8639C25.2161 16.8639 25.6151 17.5266 25.6151 18.4604Z" fill="white"/>
<path d="M28.793 21.8493H31.1127V17.7525C31.2309 17.2856 31.6151 17.0145 32.0731 17.0145C32.6642 17.0145 32.9449 17.4212 32.9449 17.9784V21.8493H35.2498V17.4061C35.2498 15.8999 34.3781 14.9209 32.9006 14.9209C32.1322 14.9209 31.4821 15.2372 31.1127 15.6589V15.0715H28.793V21.8493Z" fill="white"/>
<path d="M36.942 19.5149C36.942 21.232 37.8285 21.985 39.3947 21.985C39.9118 21.985 40.4142 21.8947 40.6801 21.7742V19.771C40.4733 19.8613 40.1926 19.9216 39.9414 19.9216C39.4833 19.9216 39.2322 19.6957 39.2322 19.1685V16.9093H40.6211V15.0717H39.2322V13.2041H36.942V15.0717H35.9668V16.9093H36.942V19.5149Z" fill="white"/>
<path d="M48.1639 18.4604C48.1639 16.3668 46.7897 14.9209 44.7655 14.9209C42.7561 14.9209 41.3672 16.3668 41.3672 18.4604C41.3672 20.554 42.7561 21.9999 44.7655 21.9999C46.7897 21.9999 48.1639 20.554 48.1639 18.4604ZM45.8884 18.4604C45.8884 19.3942 45.4895 20.0419 44.7655 20.0419C44.0563 20.0419 43.6574 19.3942 43.6574 18.4604C43.6574 17.5266 44.0563 16.8639 44.7655 16.8639C45.4895 16.8639 45.8884 17.5266 45.8884 18.4604Z" fill="white"/>
</g>
<defs>
<clipPath id="clip0_1627_3848">
<rect width="52.1714" height="22" fill="white"/>
</clipPath>
</defs>
</svg>
