<svg width="490" height="369" viewBox="0 0 490 369" fill="none" xmlns="http://www.w3.org/2000/svg">
<path fill-rule="evenodd" clip-rule="evenodd" d="M255.625 88.1903C297.441 83.1106 327.822 24.259 367.991 37.2039C406.437 49.5935 408.238 104.791 423.851 142.403C438.666 178.092 469.859 214.456 456.615 250.696C443.286 287.169 394.392 291.359 361.846 312.071C337.194 327.759 317.764 351.201 289.226 357.22C259.047 363.584 228.313 357.691 199.574 346.291C167.159 333.434 135.632 316.87 115.348 288.25C92.2984 255.729 76.3141 216.771 79.5619 176.963C83.0074 134.731 96.0175 84.5913 133.506 65.6894C171.402 46.5823 213.546 93.3021 255.625 88.1903Z" fill="#F1D9FF"/>
<path d="M118.056 235.905L122.407 234.136C123.709 233.607 125.127 234.582 125.099 235.987L124.997 241.099C124.981 241.932 125.494 242.685 126.276 242.973L133.036 245.464C134.703 246.079 134.753 248.419 133.113 249.104L126.678 251.793C125.772 252.172 124.726 251.82 124.233 250.971L117.102 238.7C116.504 237.672 116.955 236.353 118.056 235.905Z" fill="#9179DB"/>
<path d="M135.568 244.235L127.57 233.742C127.097 233.122 126.107 233.427 126.066 234.207L125.688 241.469C125.669 241.831 125.885 242.164 126.224 242.294L134.6 245.525C135.389 245.829 136.081 244.907 135.568 244.235Z" fill="#9179DB"/>
<path d="M208.402 273.992L210.618 264.731C210.974 263.245 212.821 262.723 213.902 263.802L220.52 270.408C221.153 271.04 222.134 271.162 222.902 270.705L233.09 264.641C234.617 263.732 236.467 265.166 235.967 266.871L232.654 278.183C232.378 279.125 231.446 279.717 230.476 279.566L210.003 276.38C208.875 276.204 208.136 275.103 208.402 273.992Z" fill="#9179DB"/>
<path d="M233.726 261.748L213.489 260.268C212.71 260.211 212.284 261.157 212.842 261.703L221.291 269.963C221.559 270.225 221.969 270.277 222.295 270.09L234.083 263.31C234.799 262.899 234.55 261.808 233.726 261.748Z" fill="#9179DB"/>
<path d="M143.584 290.691L145.855 276.784C146.12 275.159 148.152 274.569 149.246 275.799L158.184 285.842C158.773 286.504 159.733 286.687 160.524 286.289L178.773 277.103C180.206 276.382 181.85 277.597 181.58 279.179L178.528 297.109C178.345 298.186 177.316 298.904 176.243 298.704L145.157 292.929C144.112 292.735 143.413 291.741 143.584 290.691Z" fill="#E69494"/>
<path d="M178.307 274.765L148.853 272.332C148.087 272.268 147.647 273.185 148.176 273.743L159.001 285.174C159.252 285.439 159.645 285.511 159.974 285.352L178.602 276.355C179.371 275.984 179.158 274.835 178.307 274.765Z" fill="#E69494"/>
<path d="M58.2463 219.938L48.5355 197.387C47.9311 195.983 49.0978 194.46 50.6105 194.677L73.9853 198.042C74.8703 198.169 75.7291 197.68 76.071 196.854L87.5757 169.057C88.2552 167.415 90.5954 167.457 91.2156 169.122L101.736 197.367C102.079 198.287 101.686 199.319 100.819 199.778L60.9581 220.893C59.9488 221.428 58.698 220.987 58.2463 219.938Z" fill="#9179DB"/>
<path d="M85.5389 166.783L47.2487 191.244C46.5903 191.665 46.8147 192.678 47.5892 192.782L73.815 196.28C74.187 196.329 74.5467 196.126 74.6954 195.781L86.7598 167.822C87.0871 167.063 86.2352 166.338 85.5389 166.783Z" fill="#9179DB"/>
<path d="M316.296 87.6091L321.626 81.1577C322.6 79.9796 324.488 80.323 324.984 81.7685L327.665 89.5772C327.955 90.4229 328.782 90.964 329.673 90.8915L340.096 90.0432C341.867 89.899 342.897 92.0007 341.698 93.3122L334.695 100.972C334.033 101.697 332.936 101.818 332.131 101.256L316.683 90.4579C315.747 89.8036 315.568 88.4896 316.296 87.6091Z" fill="#9179DB"/>
<path d="M341.997 87.7657L326.143 78.5046C325.468 78.1106 324.669 78.7724 324.93 79.5088L328.506 89.5848C328.632 89.9385 328.977 90.1657 329.352 90.1408L341.63 89.3259C342.455 89.2711 342.711 88.1825 341.997 87.7657Z" fill="#9179DB"/>
<path d="M373.384 101.684L369.76 88.8364C369.313 87.2514 370.905 85.8573 372.417 86.5096L384.118 91.558C384.932 91.9089 385.88 91.6692 386.429 90.9738L398.49 75.6901C399.483 74.4313 401.486 74.8372 401.911 76.3835L406.496 93.0676C406.785 94.1209 406.156 95.207 405.098 95.4797L375.754 103.047C374.725 103.312 373.672 102.707 373.384 101.684Z" fill="#E69494"/>
<path d="M397.113 73.7653L370.598 83.5542C369.876 83.8207 369.864 84.8374 370.58 85.1201L384.589 90.656C384.928 90.7901 385.316 90.6892 385.546 90.4064L398.053 75.0816C398.593 74.4203 397.914 73.4697 397.113 73.7653Z" fill="#E69494"/>
<path d="M369.554 34.3461C369.606 34.2304 369.771 34.2285 369.828 34.3396L372.212 38.9754C372.521 39.5761 372.284 40.3141 371.684 40.623L362.253 45.4725C361.653 45.7814 360.915 45.5446 360.606 44.9439L358.223 40.3104C358.165 40.197 358.261 40.0671 358.388 40.0908C359.099 40.2241 360.03 40.3788 363.206 40.8696C363.864 40.9727 365.048 41.2922 365.851 40.8738C366.663 40.4644 367.1 39.2909 367.388 38.7188C368.837 35.85 369.249 35.0017 369.554 34.3461ZM365.476 40.1461C366.007 39.8847 366.419 38.8244 366.658 38.352C368.543 34.622 368.674 34.3139 369.088 33.4131C369.167 33.2435 369.163 33.0452 369.076 32.8774L368.855 32.4467C368.546 31.846 367.808 31.6092 367.207 31.9181L357.777 36.7676C357.176 37.0765 356.94 37.8145 357.249 38.4153L357.47 38.846C357.556 39.0137 357.714 39.1305 357.899 39.1672C358.871 39.3522 359.199 39.4272 363.33 40.0633C363.853 40.144 364.955 40.4256 365.476 40.1461Z" fill="#9179DB"/>
<g filter="url(#filter0_dd_1276_3734)">
<g clip-path="url(#clip0_1276_3734)">
<rect x="104.91" y="140.361" width="282.483" height="66.6592" rx="7.65013" fill="white"/>
<path d="M130.675 178.408C131.948 178.368 133.23 178.388 134.634 178.439C136.078 178.327 137.573 178.176 139.017 178.065C140.552 177.964 140.612 178.56 139.39 179.61C138.259 180.579 136.805 181.529 134.644 182.428C133.21 182.842 131.857 183.044 130.615 183.074C129.403 183.054 128.322 182.882 127.353 182.569C126.878 182.417 126.555 182.226 126.363 182.003C126.212 181.822 126.171 181.69 126.232 181.569C126.293 181.458 126.444 181.397 126.686 181.418C126.949 181.428 127.302 181.509 127.747 181.64C128.807 181.923 129.807 182.064 130.746 182.104C131.685 182.104 132.634 181.993 133.634 181.731C136.472 180.579 137.179 179.772 135.391 179.529C134.382 179.358 133.281 179.267 132.2 179.257C131.17 179.176 129.989 179.186 128.878 179.257L127.676 179.196C127.373 179.156 127.05 179.055 126.737 178.883C126.414 178.701 126.171 178.479 126 178.257C125.848 178.035 125.808 177.863 125.868 177.732C125.939 177.59 126.111 177.55 126.383 177.621L127.181 177.782C128.151 177.903 128.736 177.792 128.898 177.459C129.11 177.106 129.181 176.631 129.282 176.045C129.342 175.5 129.191 175.035 128.777 174.631C128.393 174.207 127.828 173.874 127.161 173.642C126.252 173.278 125.273 173.218 124.293 173.551C124.081 173.632 123.889 173.642 123.748 173.571C123.596 173.5 123.495 173.359 123.404 173.147C123.334 172.925 123.313 172.672 123.354 172.43C123.414 172.117 123.556 171.905 123.778 171.814C124.222 171.561 124.737 171.511 125.323 171.582C125.969 171.662 126.565 171.814 127.161 172.076C128.191 172.43 129.161 172.945 129.958 173.652C130.827 174.268 131.342 175.025 131.413 175.904C131.473 176.449 131.433 176.924 131.291 177.348C131.352 177.762 131.18 178.126 130.675 178.408ZM134.129 165.866C137.381 163.897 140.633 164.028 143.238 164.967C146.025 166.633 148.55 168.764 150.59 171.44C151.509 173.581 151.367 175.308 150.64 176.601C149.661 177.964 148.722 178.853 147.863 179.317C146.914 179.862 146.177 179.933 145.763 179.529C145.49 179.287 145.419 178.873 145.49 178.247C145.49 177.661 145.48 176.964 145.278 176.358C144.975 176.187 144.722 175.985 144.531 175.692C144.319 175.49 144.207 175.288 144.228 175.045C144.218 174.823 144.319 174.621 144.551 174.429C144.692 174.318 144.844 174.238 144.985 174.187C145.157 174.137 145.359 174.106 145.601 174.126C147.237 174.934 147.691 175.924 148.106 176.288C148.368 176.904 149.055 176.53 149.974 175.157C150.438 173.914 149.64 171.834 147.035 168.916L146.964 168.845C147.479 169.532 147.277 169.703 146.53 169.481C146.045 169.552 145.298 169.572 144.298 169.744C143.541 170.279 142.753 171.046 141.935 172.198C141.026 173.571 139.845 174.753 138.36 175.641C136.745 176.176 135.502 176.146 134.846 175.712C134.402 175.106 134.18 174.379 134.048 173.48C133.765 172.49 133.533 171.43 133.412 170.259C133.24 168.835 133.422 167.36 134.129 165.866ZM141.481 168.38C142.551 167.795 143.187 167.461 143.248 167.068C143.622 166.866 143.369 166.482 142.359 165.876C141.531 165.391 140.208 164.987 138.552 164.836C137.037 164.876 135.725 165.674 134.856 167.189C134.634 168.724 134.836 170.047 135.22 171.248C135.472 172.268 135.947 173.076 136.724 173.611C137.664 173.874 138.774 173.329 139.794 172.097C140.552 170.814 141.026 169.511 141.481 168.38Z" fill="#484455"/>
<path d="M159.91 174.086C160.012 174.086 160.098 174.121 160.168 174.192C160.238 174.255 160.273 174.338 160.273 174.44C160.273 174.542 160.238 174.628 160.168 174.698C160.098 174.762 160.012 174.794 159.91 174.794H158.293V176.41C158.293 176.512 158.258 176.598 158.188 176.668C158.124 176.738 158.042 176.773 157.94 176.773C157.838 176.773 157.752 176.738 157.681 176.668C157.618 176.598 157.586 176.512 157.586 176.41V174.794H155.97C155.868 174.794 155.782 174.759 155.711 174.689C155.641 174.619 155.606 174.536 155.606 174.44C155.606 174.338 155.641 174.255 155.711 174.192C155.782 174.121 155.868 174.086 155.97 174.086H157.586V172.47C157.586 172.368 157.618 172.282 157.681 172.212C157.752 172.142 157.838 172.107 157.94 172.107C158.042 172.107 158.124 172.142 158.188 172.212C158.258 172.282 158.293 172.368 158.293 172.47V174.086H159.91Z" fill="black"/>
<path d="M172.619 166.378C172.853 166.277 173.054 166.227 173.196 166.277C173.321 166.344 173.405 166.478 173.413 166.654C173.421 166.838 173.363 167.021 173.288 167.255C173.288 167.255 172.017 170.139 171.332 173.24C171.223 176.876 170.763 180.211 170.763 180.211C170.588 180.596 170.379 180.838 170.111 180.955C169.953 181.039 169.811 181.022 169.685 180.905C169.543 180.78 169.485 180.621 169.485 180.404C169.51 180.27 169.551 180.103 169.618 179.911C169.618 179.911 170.028 177.152 170.103 173.942C170.421 171.067 171.466 168.267 171.466 168.267L165.94 171.368C165.69 171.452 165.472 171.452 165.33 171.368C165.155 171.284 165.079 171.134 165.054 170.942C165.013 170.499 165.255 170.24 165.807 170.106L172.619 166.378ZM179.724 173.148C180.267 173.625 180.602 174.143 180.719 174.72C180.944 175.338 180.911 175.94 180.744 176.617C180.535 177.57 180.017 178.088 179.239 178.197C178.545 178.339 177.76 178.155 176.874 177.629C176.389 177.378 175.929 177.11 175.478 176.743C175.093 176.5 174.767 176.233 174.5 175.898C174.358 175.731 174.274 175.531 174.241 175.23C174.232 175.004 174.257 174.795 174.324 174.611C174.391 174.419 174.475 174.31 174.567 174.26C174.684 174.243 174.817 174.285 174.943 174.419C175.269 174.828 175.57 175.188 175.837 175.447C176.138 175.74 176.489 175.957 176.874 176.141C178.102 176.893 178.838 176.676 179.072 175.447C179.172 174.828 179.114 174.293 178.888 173.85C178.704 173.441 178.244 173.015 177.551 172.638L176.823 172.271C176.656 172.195 176.556 172.078 176.531 171.961C176.506 171.819 176.539 171.686 176.64 171.56C176.723 171.452 176.84 171.36 176.982 171.309C177.124 171.251 177.283 171.276 177.467 171.368L178.027 171.652C178.721 172.028 179.314 172.204 179.824 172.179C180.393 172.204 180.819 171.978 181.011 171.535C181.128 171.109 181.003 170.699 180.643 170.265C180.309 169.838 179.816 169.462 179.156 169.111C178.136 168.543 177.158 168.3 176.146 168.401C175.904 168.417 175.72 168.401 175.553 168.334C175.402 168.275 175.277 168.158 175.177 168.024C175.068 167.866 175.018 167.724 175.035 167.548C175.077 167.347 175.194 167.172 175.411 167.097C175.887 166.955 176.431 166.955 177.083 167.122C177.818 167.322 178.554 167.648 179.289 168.066C180.451 168.693 181.421 169.32 182.081 169.997C182.75 170.607 183.051 171.251 182.884 172.012C182.75 172.521 182.399 172.923 181.797 173.173C181.103 173.357 180.401 173.307 179.724 173.148ZM190.473 179.501C190.707 179.484 190.866 179.534 190.95 179.643C191.05 179.777 191.067 179.944 191.008 180.178C190.908 180.671 190.615 180.964 190.122 180.98L183.686 181.123C183.402 181.089 183.168 180.955 182.967 180.771C182.833 180.596 182.758 180.37 182.775 180.178C182.808 179.944 182.95 179.735 183.193 179.601L189.654 175.012C190.582 174.436 191.309 173.968 191.919 173.558C192.563 173.232 192.973 172.864 193.19 172.505C193.29 172.003 193.064 171.602 192.571 171.293C192.12 170.975 191.526 170.774 190.799 170.699C189.621 170.607 188.484 170.875 187.33 171.46C187.172 171.51 187.021 171.56 186.896 171.619C186.787 171.652 186.678 171.66 186.561 171.669C186.369 171.677 186.21 171.627 186.093 171.51C185.96 171.393 185.901 171.243 185.901 171.075C185.909 170.85 186.051 170.666 186.336 170.54C186.862 170.206 187.514 169.964 188.283 169.755C189.01 169.579 189.713 169.521 190.398 169.554C191.618 169.646 192.713 169.989 193.683 170.549C194.644 171.126 195.154 171.819 195.079 172.622C194.761 173.19 194.21 173.7 193.416 174.135C192.588 174.586 191.643 175.221 190.465 175.965L185.525 179.685L190.473 179.501Z" fill="#484455"/>
<path d="M205.254 173.838C205.152 173.838 205.066 173.803 204.996 173.733C204.926 173.662 204.89 173.576 204.89 173.474C204.89 173.379 204.926 173.299 204.996 173.235C205.066 173.165 205.152 173.13 205.254 173.13H209.194C209.296 173.13 209.382 173.165 209.452 173.235C209.522 173.305 209.557 173.391 209.557 173.493C209.557 173.589 209.522 173.672 209.452 173.742C209.382 173.806 209.296 173.838 209.194 173.838H205.254ZM205.254 175.75C205.152 175.75 205.066 175.715 204.996 175.645C204.926 175.575 204.89 175.489 204.89 175.387C204.89 175.291 204.926 175.212 204.996 175.148C205.066 175.078 205.152 175.043 205.254 175.043H209.194C209.296 175.043 209.382 175.078 209.452 175.148C209.522 175.218 209.557 175.304 209.557 175.406C209.557 175.502 209.522 175.585 209.452 175.655C209.382 175.718 209.296 175.75 209.194 175.75H205.254Z" fill="black"/>
<path d="M233.204 177.166C233.051 177.166 232.93 177.124 232.84 177.041C232.757 176.952 232.716 176.834 232.716 176.687V170.902C232.716 170.755 232.757 170.641 232.84 170.558C232.93 170.468 233.051 170.424 233.204 170.424H236.723C236.869 170.424 236.981 170.459 237.057 170.529C237.14 170.599 237.182 170.698 237.182 170.825C237.182 170.953 237.14 171.052 237.057 171.122C236.981 171.186 236.869 171.218 236.723 171.218H233.682V173.34H236.532C236.678 173.34 236.79 173.376 236.866 173.446C236.949 173.516 236.991 173.615 236.991 173.742C236.991 173.87 236.949 173.968 236.866 174.039C236.79 174.109 236.678 174.144 236.532 174.144H233.682V176.372H236.723C237.029 176.372 237.182 176.503 237.182 176.764C237.182 176.891 237.14 176.99 237.057 177.06C236.981 177.13 236.869 177.166 236.723 177.166H233.204ZM240.71 172.384C241.826 172.384 242.384 173.012 242.384 174.268V176.754C242.384 176.901 242.339 177.016 242.25 177.099C242.167 177.175 242.049 177.213 241.896 177.213C241.749 177.213 241.631 177.172 241.542 177.089C241.459 177.006 241.418 176.895 241.418 176.754V174.316C241.418 173.921 241.338 173.631 241.179 173.446C241.026 173.261 240.783 173.168 240.452 173.168C240.063 173.168 239.751 173.289 239.515 173.532C239.279 173.774 239.161 174.099 239.161 174.507V176.754C239.161 176.895 239.116 177.006 239.027 177.089C238.944 177.172 238.829 177.213 238.683 177.213C238.536 177.213 238.418 177.172 238.329 177.089C238.24 177.006 238.195 176.895 238.195 176.754V172.862C238.195 172.728 238.24 172.62 238.329 172.537C238.425 172.448 238.542 172.403 238.683 172.403C238.823 172.403 238.935 172.445 239.017 172.528C239.1 172.611 239.142 172.719 239.142 172.853V173.245C239.295 172.964 239.508 172.751 239.782 172.604C240.057 172.458 240.366 172.384 240.71 172.384ZM245.99 176.477C246.131 176.49 246.229 176.528 246.287 176.592C246.35 176.649 246.382 176.732 246.382 176.84C246.382 176.968 246.331 177.067 246.229 177.137C246.134 177.201 245.99 177.226 245.799 177.213L245.541 177.194C245.024 177.156 244.639 177 244.384 176.726C244.129 176.445 244.001 176.034 244.001 175.492V173.245H243.427C243.147 173.245 243.007 173.121 243.007 172.872C243.007 172.757 243.042 172.668 243.112 172.604C243.188 172.534 243.294 172.499 243.427 172.499H244.001V171.514C244.001 171.367 244.043 171.253 244.126 171.17C244.215 171.087 244.333 171.045 244.479 171.045C244.626 171.045 244.744 171.087 244.833 171.17C244.922 171.253 244.967 171.367 244.967 171.514V172.499H245.914C246.048 172.499 246.15 172.534 246.22 172.604C246.296 172.668 246.335 172.757 246.335 172.872C246.335 172.993 246.296 173.085 246.22 173.149C246.15 173.213 246.048 173.245 245.914 173.245H244.967V175.559C244.967 175.859 245.028 176.079 245.149 176.219C245.276 176.359 245.468 176.439 245.723 176.458L245.99 176.477ZM250.729 175.989C250.818 175.989 250.892 176.024 250.949 176.095C251.006 176.165 251.035 176.254 251.035 176.362C251.035 176.547 250.92 176.703 250.691 176.831C250.468 176.958 250.222 177.057 249.954 177.127C249.693 177.197 249.441 177.232 249.199 177.232C248.459 177.232 247.876 177.019 247.449 176.592C247.022 176.158 246.808 175.569 246.808 174.823C246.808 174.345 246.901 173.921 247.086 173.551C247.277 173.181 247.541 172.894 247.879 172.69C248.224 172.486 248.612 172.384 249.046 172.384C249.671 172.384 250.165 172.585 250.528 172.987C250.892 173.388 251.073 173.93 251.073 174.612C251.073 174.867 250.958 174.995 250.729 174.995H247.774C247.838 175.983 248.313 176.477 249.199 176.477C249.435 176.477 249.639 176.445 249.811 176.381C249.983 176.318 250.165 176.235 250.356 176.133C250.375 176.12 250.426 176.095 250.509 176.056C250.598 176.012 250.672 175.989 250.729 175.989ZM249.065 173.092C248.695 173.092 248.399 173.21 248.176 173.446C247.953 173.682 247.819 174.013 247.774 174.44H250.241C250.222 174.007 250.111 173.675 249.907 173.446C249.709 173.21 249.428 173.092 249.065 173.092ZM254.586 172.403C254.892 172.384 255.045 172.515 255.045 172.795C255.045 172.936 255.009 173.041 254.939 173.111C254.869 173.181 254.748 173.223 254.576 173.235L254.289 173.264C253.887 173.302 253.588 173.442 253.39 173.685C253.199 173.927 253.103 174.22 253.103 174.564V176.754C253.103 176.907 253.059 177.022 252.969 177.099C252.88 177.175 252.765 177.213 252.625 177.213C252.485 177.213 252.367 177.175 252.271 177.099C252.182 177.022 252.137 176.907 252.137 176.754V172.862C252.137 172.716 252.182 172.604 252.271 172.528C252.367 172.445 252.485 172.403 252.625 172.403C252.753 172.403 252.858 172.445 252.941 172.528C253.03 172.604 253.075 172.713 253.075 172.853V173.312C253.202 173.031 253.387 172.818 253.629 172.671C253.872 172.524 254.146 172.438 254.452 172.413L254.586 172.403ZM259.787 177.232C259.136 177.232 258.604 177.099 258.19 176.831C258.075 176.761 257.992 176.687 257.941 176.611C257.896 176.534 257.874 176.448 257.874 176.353C257.874 176.251 257.903 176.165 257.96 176.095C258.017 176.024 258.091 175.989 258.18 175.989C258.263 175.989 258.394 176.04 258.572 176.142C258.763 176.244 258.948 176.327 259.127 176.391C259.312 176.455 259.541 176.487 259.815 176.487C260.121 176.487 260.36 176.432 260.532 176.324C260.705 176.216 260.791 176.063 260.791 175.865C260.791 175.738 260.756 175.636 260.685 175.559C260.622 175.482 260.507 175.416 260.341 175.358C260.175 175.294 259.93 175.227 259.605 175.157C259.044 175.036 258.639 174.874 258.39 174.67C258.148 174.459 258.027 174.176 258.027 173.819C258.027 173.544 258.107 173.299 258.266 173.082C258.425 172.859 258.645 172.687 258.926 172.566C259.206 172.445 259.525 172.384 259.882 172.384C260.137 172.384 260.386 172.419 260.628 172.489C260.87 172.553 261.084 172.649 261.269 172.776C261.479 172.917 261.584 173.079 261.584 173.264C261.584 173.366 261.552 173.452 261.489 173.522C261.431 173.592 261.361 173.627 261.278 173.627C261.221 173.627 261.164 173.615 261.106 173.589C261.049 173.564 260.972 173.522 260.877 173.465C260.705 173.363 260.542 173.283 260.389 173.226C260.242 173.168 260.057 173.14 259.834 173.14C259.567 173.14 259.35 173.197 259.184 173.312C259.025 173.427 258.945 173.583 258.945 173.78C258.945 173.959 259.018 174.099 259.165 174.201C259.318 174.297 259.602 174.389 260.016 174.478C260.443 174.568 260.778 174.67 261.02 174.784C261.262 174.899 261.434 175.043 261.536 175.215C261.645 175.38 261.699 175.594 261.699 175.855C261.699 176.27 261.524 176.605 261.173 176.86C260.829 177.108 260.367 177.232 259.787 177.232ZM266.389 172.403C266.535 172.403 266.65 172.445 266.733 172.528C266.822 172.611 266.867 172.725 266.867 172.872V176.764C266.867 176.898 266.822 177.006 266.733 177.089C266.644 177.172 266.526 177.213 266.379 177.213C266.245 177.213 266.137 177.175 266.054 177.099C265.971 177.016 265.93 176.907 265.93 176.773V176.41C265.783 176.678 265.579 176.882 265.318 177.022C265.063 177.162 264.776 177.232 264.457 177.232C263.322 177.232 262.755 176.608 262.755 175.358V172.872C262.755 172.725 262.796 172.611 262.879 172.528C262.969 172.445 263.09 172.403 263.243 172.403C263.389 172.403 263.504 172.445 263.587 172.528C263.676 172.611 263.721 172.725 263.721 172.872V175.349C263.721 175.725 263.797 176.002 263.95 176.181C264.103 176.359 264.339 176.448 264.658 176.448C265.034 176.448 265.334 176.327 265.557 176.085C265.786 175.843 265.901 175.521 265.901 175.119V172.872C265.901 172.732 265.946 172.62 266.035 172.537C266.124 172.448 266.242 172.403 266.389 172.403ZM273.574 172.384C274.619 172.384 275.142 173.012 275.142 174.268V176.754C275.142 176.901 275.097 177.016 275.008 177.099C274.919 177.175 274.801 177.213 274.654 177.213C274.514 177.213 274.399 177.175 274.31 177.099C274.221 177.016 274.176 176.901 274.176 176.754V174.278C274.176 173.889 274.106 173.608 273.966 173.436C273.825 173.258 273.605 173.168 273.306 173.168C272.955 173.168 272.678 173.289 272.474 173.532C272.27 173.768 272.168 174.093 272.168 174.507V176.754C272.168 176.901 272.123 177.016 272.034 177.099C271.945 177.175 271.827 177.213 271.68 177.213C271.54 177.213 271.425 177.175 271.336 177.099C271.247 177.016 271.202 176.901 271.202 176.754V174.278C271.202 173.889 271.132 173.608 270.992 173.436C270.851 173.258 270.631 173.168 270.332 173.168C269.981 173.168 269.701 173.289 269.49 173.532C269.286 173.768 269.184 174.093 269.184 174.507V176.754C269.184 176.901 269.14 177.016 269.05 177.099C268.961 177.175 268.846 177.213 268.706 177.213C268.566 177.213 268.448 177.175 268.352 177.099C268.263 177.016 268.218 176.901 268.218 176.754V172.862C268.218 172.722 268.266 172.611 268.362 172.528C268.458 172.445 268.572 172.403 268.706 172.403C268.84 172.403 268.948 172.445 269.031 172.528C269.121 172.604 269.165 172.713 269.165 172.853V173.207C269.305 172.939 269.5 172.735 269.748 172.595C269.997 172.454 270.284 172.384 270.609 172.384C270.966 172.384 271.259 172.458 271.489 172.604C271.725 172.751 271.9 172.977 272.015 173.283C272.155 173.009 272.362 172.792 272.636 172.633C272.911 172.467 273.223 172.384 273.574 172.384ZM281.013 177.232C280.554 177.232 280.149 177.134 279.799 176.936C279.454 176.738 279.187 176.458 278.995 176.095C278.81 175.725 278.718 175.298 278.718 174.813C278.718 174.322 278.81 173.895 278.995 173.532C279.187 173.162 279.454 172.878 279.799 172.681C280.149 172.483 280.554 172.384 281.013 172.384C281.472 172.384 281.874 172.483 282.218 172.681C282.569 172.878 282.836 173.162 283.021 173.532C283.212 173.895 283.308 174.322 283.308 174.813C283.308 175.298 283.212 175.725 283.021 176.095C282.836 176.458 282.569 176.738 282.218 176.936C281.874 177.134 281.472 177.232 281.013 177.232ZM281.013 176.467C281.44 176.467 281.765 176.327 281.988 176.047C282.218 175.766 282.333 175.355 282.333 174.813C282.333 174.278 282.218 173.87 281.988 173.589C281.759 173.302 281.434 173.159 281.013 173.159C280.592 173.159 280.267 173.302 280.038 173.589C279.808 173.87 279.693 174.278 279.693 174.813C279.693 175.355 279.805 175.766 280.028 176.047C280.258 176.327 280.586 176.467 281.013 176.467ZM286.564 171.16C286.245 171.186 286.01 171.288 285.857 171.466C285.704 171.638 285.627 171.893 285.627 172.231V172.499H286.574C286.708 172.499 286.81 172.534 286.88 172.604C286.956 172.668 286.995 172.757 286.995 172.872C286.995 172.987 286.956 173.079 286.88 173.149C286.81 173.213 286.708 173.245 286.574 173.245H285.627V176.745C285.627 176.898 285.579 177.016 285.484 177.099C285.394 177.175 285.28 177.213 285.139 177.213C284.999 177.213 284.884 177.175 284.795 177.099C284.706 177.016 284.661 176.898 284.661 176.745V173.245H284.087C283.954 173.245 283.848 173.213 283.772 173.149C283.702 173.079 283.667 172.987 283.667 172.872C283.667 172.757 283.702 172.668 283.772 172.604C283.848 172.534 283.954 172.499 284.087 172.499H284.661V172.375C284.661 171.788 284.811 171.329 285.111 170.998C285.41 170.66 285.834 170.472 286.383 170.433L286.631 170.414C286.835 170.402 286.982 170.424 287.071 170.481C287.167 170.539 287.214 170.631 287.214 170.759C287.214 170.982 287.081 171.109 286.813 171.141L286.564 171.16ZM292.67 172.384C293.785 172.384 294.343 173.012 294.343 174.268V176.754C294.343 176.901 294.299 177.016 294.209 177.099C294.126 177.175 294.008 177.213 293.855 177.213C293.709 177.213 293.591 177.172 293.502 177.089C293.419 177.006 293.377 176.895 293.377 176.754V174.316C293.377 173.921 293.298 173.631 293.138 173.446C292.985 173.261 292.743 173.168 292.411 173.168C292.023 173.168 291.71 173.289 291.474 173.532C291.238 173.774 291.121 174.099 291.121 174.507V176.754C291.121 176.895 291.076 177.006 290.987 177.089C290.904 177.172 290.789 177.213 290.642 177.213C290.496 177.213 290.378 177.172 290.289 177.089C290.199 177.006 290.155 176.895 290.155 176.754V172.862C290.155 172.728 290.199 172.62 290.289 172.537C290.384 172.448 290.502 172.403 290.642 172.403C290.783 172.403 290.894 172.445 290.977 172.528C291.06 172.611 291.101 172.719 291.101 172.853V173.245C291.254 172.964 291.468 172.751 291.742 172.604C292.016 172.458 292.325 172.384 292.67 172.384ZM299.279 172.403C299.426 172.403 299.54 172.445 299.623 172.528C299.713 172.611 299.757 172.725 299.757 172.872V176.764C299.757 176.898 299.713 177.006 299.623 177.089C299.534 177.172 299.416 177.213 299.27 177.213C299.136 177.213 299.027 177.175 298.944 177.099C298.862 177.016 298.82 176.907 298.82 176.773V176.41C298.673 176.678 298.469 176.882 298.208 177.022C297.953 177.162 297.666 177.232 297.347 177.232C296.213 177.232 295.645 176.608 295.645 175.358V172.872C295.645 172.725 295.687 172.611 295.77 172.528C295.859 172.445 295.98 172.403 296.133 172.403C296.28 172.403 296.394 172.445 296.477 172.528C296.566 172.611 296.611 172.725 296.611 172.872V175.349C296.611 175.725 296.688 176.002 296.841 176.181C296.994 176.359 297.23 176.448 297.548 176.448C297.924 176.448 298.224 176.327 298.447 176.085C298.677 175.843 298.791 175.521 298.791 175.119V172.872C298.791 172.732 298.836 172.62 298.925 172.537C299.015 172.448 299.132 172.403 299.279 172.403ZM306.464 172.384C307.509 172.384 308.032 173.012 308.032 174.268V176.754C308.032 176.901 307.988 177.016 307.898 177.099C307.809 177.175 307.691 177.213 307.544 177.213C307.404 177.213 307.289 177.175 307.2 177.099C307.111 177.016 307.066 176.901 307.066 176.754V174.278C307.066 173.889 306.996 173.608 306.856 173.436C306.716 173.258 306.496 173.168 306.196 173.168C305.845 173.168 305.568 173.289 305.364 173.532C305.16 173.768 305.058 174.093 305.058 174.507V176.754C305.058 176.901 305.014 177.016 304.924 177.099C304.835 177.175 304.717 177.213 304.57 177.213C304.43 177.213 304.315 177.175 304.226 177.099C304.137 177.016 304.092 176.901 304.092 176.754V174.278C304.092 173.889 304.022 173.608 303.882 173.436C303.742 173.258 303.522 173.168 303.222 173.168C302.872 173.168 302.591 173.289 302.381 173.532C302.177 173.768 302.075 174.093 302.075 174.507V176.754C302.075 176.901 302.03 177.016 301.941 177.099C301.851 177.175 301.737 177.213 301.596 177.213C301.456 177.213 301.338 177.175 301.243 177.099C301.153 177.016 301.109 176.901 301.109 176.754V172.862C301.109 172.722 301.157 172.611 301.252 172.528C301.348 172.445 301.463 172.403 301.596 172.403C301.73 172.403 301.839 172.445 301.922 172.528C302.011 172.604 302.055 172.713 302.055 172.853V173.207C302.196 172.939 302.39 172.735 302.639 172.595C302.887 172.454 303.174 172.384 303.499 172.384C303.856 172.384 304.15 172.458 304.379 172.604C304.615 172.751 304.79 172.977 304.905 173.283C305.045 173.009 305.253 172.792 305.527 172.633C305.801 172.467 306.113 172.384 306.464 172.384ZM311.86 172.384C312.268 172.384 312.628 172.483 312.941 172.681C313.253 172.878 313.495 173.159 313.667 173.522C313.846 173.886 313.935 174.309 313.935 174.794C313.935 175.272 313.846 175.696 313.667 176.066C313.495 176.436 313.25 176.722 312.931 176.926C312.619 177.13 312.262 177.232 311.86 177.232C311.509 177.232 311.2 177.159 310.933 177.013C310.665 176.86 310.461 176.643 310.321 176.362V176.745C310.321 176.885 310.276 177 310.187 177.089C310.104 177.172 309.989 177.213 309.842 177.213C309.696 177.213 309.578 177.172 309.489 177.089C309.399 177 309.355 176.885 309.355 176.745V170.835C309.355 170.695 309.399 170.583 309.489 170.5C309.584 170.417 309.705 170.376 309.852 170.376C309.992 170.376 310.104 170.417 310.187 170.5C310.276 170.577 310.321 170.682 310.321 170.816V173.264C310.461 172.983 310.665 172.767 310.933 172.614C311.2 172.461 311.509 172.384 311.86 172.384ZM311.631 176.467C312.045 176.467 312.367 176.321 312.596 176.028C312.832 175.734 312.95 175.323 312.95 174.794C312.95 174.271 312.836 173.87 312.606 173.589C312.377 173.302 312.051 173.159 311.631 173.159C311.21 173.159 310.885 173.302 310.655 173.589C310.432 173.876 310.321 174.284 310.321 174.813C310.321 175.342 310.432 175.75 310.655 176.037C310.885 176.324 311.21 176.467 311.631 176.467ZM318.657 175.989C318.747 175.989 318.82 176.024 318.877 176.095C318.935 176.165 318.963 176.254 318.963 176.362C318.963 176.547 318.849 176.703 318.619 176.831C318.396 176.958 318.151 177.057 317.883 177.127C317.622 177.197 317.37 177.232 317.127 177.232C316.388 177.232 315.805 177.019 315.377 176.592C314.95 176.158 314.737 175.569 314.737 174.823C314.737 174.345 314.829 173.921 315.014 173.551C315.205 173.181 315.47 172.894 315.808 172.69C316.152 172.486 316.541 172.384 316.974 172.384C317.599 172.384 318.093 172.585 318.457 172.987C318.82 173.388 319.002 173.93 319.002 174.612C319.002 174.867 318.887 174.995 318.657 174.995H315.703C315.766 175.983 316.241 176.477 317.127 176.477C317.363 176.477 317.567 176.445 317.739 176.381C317.912 176.318 318.093 176.235 318.285 176.133C318.304 176.12 318.355 176.095 318.438 176.056C318.527 176.012 318.6 175.989 318.657 175.989ZM316.994 173.092C316.624 173.092 316.327 173.21 316.104 173.446C315.881 173.682 315.747 174.013 315.703 174.44H318.17C318.151 174.007 318.039 173.675 317.835 173.446C317.637 173.21 317.357 173.092 316.994 173.092ZM322.514 172.403C322.82 172.384 322.973 172.515 322.973 172.795C322.973 172.936 322.938 173.041 322.868 173.111C322.798 173.181 322.677 173.223 322.504 173.235L322.218 173.264C321.816 173.302 321.516 173.442 321.319 173.685C321.127 173.927 321.032 174.22 321.032 174.564V176.754C321.032 176.907 320.987 177.022 320.898 177.099C320.809 177.175 320.694 177.213 320.554 177.213C320.413 177.213 320.296 177.175 320.2 177.099C320.111 177.022 320.066 176.907 320.066 176.754V172.862C320.066 172.716 320.111 172.604 320.2 172.528C320.296 172.445 320.413 172.403 320.554 172.403C320.681 172.403 320.786 172.445 320.869 172.528C320.959 172.604 321.003 172.713 321.003 172.853V173.312C321.131 173.031 321.316 172.818 321.558 172.671C321.8 172.524 322.074 172.438 322.38 172.413L322.514 172.403ZM325.147 177.232C324.497 177.232 323.964 177.099 323.55 176.831C323.435 176.761 323.352 176.687 323.301 176.611C323.257 176.534 323.234 176.448 323.234 176.353C323.234 176.251 323.263 176.165 323.32 176.095C323.378 176.024 323.451 175.989 323.54 175.989C323.623 175.989 323.754 176.04 323.932 176.142C324.124 176.244 324.309 176.327 324.487 176.391C324.672 176.455 324.901 176.487 325.176 176.487C325.482 176.487 325.721 176.432 325.893 176.324C326.065 176.216 326.151 176.063 326.151 175.865C326.151 175.738 326.116 175.636 326.046 175.559C325.982 175.482 325.867 175.416 325.702 175.358C325.536 175.294 325.29 175.227 324.965 175.157C324.404 175.036 323.999 174.874 323.751 174.67C323.509 174.459 323.387 174.176 323.387 173.819C323.387 173.544 323.467 173.299 323.626 173.082C323.786 172.859 324.006 172.687 324.286 172.566C324.567 172.445 324.886 172.384 325.243 172.384C325.498 172.384 325.746 172.419 325.988 172.489C326.231 172.553 326.444 172.649 326.629 172.776C326.84 172.917 326.945 173.079 326.945 173.264C326.945 173.366 326.913 173.452 326.849 173.522C326.792 173.592 326.722 173.627 326.639 173.627C326.581 173.627 326.524 173.615 326.467 173.589C326.409 173.564 326.333 173.522 326.237 173.465C326.065 173.363 325.902 173.283 325.749 173.226C325.603 173.168 325.418 173.14 325.195 173.14C324.927 173.14 324.71 173.197 324.544 173.312C324.385 173.427 324.305 173.583 324.305 173.78C324.305 173.959 324.379 174.099 324.525 174.201C324.678 174.297 324.962 174.389 325.376 174.478C325.804 174.568 326.138 174.67 326.381 174.784C326.623 174.899 326.795 175.043 326.897 175.215C327.005 175.38 327.059 175.594 327.059 175.855C327.059 176.27 326.884 176.605 326.534 176.86C326.189 177.108 325.727 177.232 325.147 177.232ZM333.18 172.384C334.29 172.384 334.844 173.012 334.844 174.268V176.754C334.844 176.895 334.8 177.006 334.71 177.089C334.621 177.172 334.503 177.213 334.357 177.213C334.21 177.213 334.092 177.172 334.003 177.089C333.92 177.006 333.879 176.895 333.879 176.754V174.278C333.879 173.895 333.799 173.615 333.639 173.436C333.486 173.258 333.244 173.168 332.913 173.168C332.524 173.168 332.211 173.289 331.976 173.532C331.74 173.774 331.622 174.099 331.622 174.507V176.754C331.622 176.895 331.577 177.006 331.488 177.089C331.405 177.172 331.29 177.213 331.144 177.213C330.997 177.213 330.879 177.172 330.79 177.089C330.701 177.006 330.656 176.895 330.656 176.754V170.835C330.656 170.695 330.701 170.583 330.79 170.5C330.885 170.417 331.007 170.376 331.153 170.376C331.293 170.376 331.405 170.417 331.488 170.5C331.577 170.577 331.622 170.682 331.622 170.816V173.207C331.781 172.939 331.995 172.735 332.262 172.595C332.53 172.454 332.836 172.384 333.18 172.384ZM339.819 175.989C339.908 175.989 339.981 176.024 340.039 176.095C340.096 176.165 340.125 176.254 340.125 176.362C340.125 176.547 340.01 176.703 339.78 176.831C339.557 176.958 339.312 177.057 339.044 177.127C338.783 177.197 338.531 177.232 338.289 177.232C337.549 177.232 336.966 177.019 336.539 176.592C336.111 176.158 335.898 175.569 335.898 174.823C335.898 174.345 335.99 173.921 336.175 173.551C336.366 173.181 336.631 172.894 336.969 172.69C337.313 172.486 337.702 172.384 338.136 172.384C338.76 172.384 339.254 172.585 339.618 172.987C339.981 173.388 340.163 173.93 340.163 174.612C340.163 174.867 340.048 174.995 339.819 174.995H336.864C336.927 175.983 337.402 176.477 338.289 176.477C338.524 176.477 338.728 176.445 338.901 176.381C339.073 176.318 339.254 176.235 339.446 176.133C339.465 176.12 339.516 176.095 339.599 176.056C339.688 176.012 339.761 175.989 339.819 175.989ZM338.155 173.092C337.785 173.092 337.488 173.21 337.265 173.446C337.042 173.682 336.908 174.013 336.864 174.44H339.331C339.312 174.007 339.2 173.675 338.996 173.446C338.799 173.21 338.518 173.092 338.155 173.092ZM343.675 172.403C343.981 172.384 344.134 172.515 344.134 172.795C344.134 172.936 344.099 173.041 344.029 173.111C343.959 173.181 343.838 173.223 343.666 173.235L343.379 173.264C342.977 173.302 342.677 173.442 342.48 173.685C342.289 173.927 342.193 174.22 342.193 174.564V176.754C342.193 176.907 342.148 177.022 342.059 177.099C341.97 177.175 341.855 177.213 341.715 177.213C341.575 177.213 341.457 177.175 341.361 177.099C341.272 177.022 341.227 176.907 341.227 176.754V172.862C341.227 172.716 341.272 172.604 341.361 172.528C341.457 172.445 341.575 172.403 341.715 172.403C341.842 172.403 341.948 172.445 342.03 172.528C342.12 172.604 342.164 172.713 342.164 172.853V173.312C342.292 173.031 342.477 172.818 342.719 172.671C342.961 172.524 343.235 172.438 343.541 172.413L343.675 172.403ZM348.289 175.989C348.378 175.989 348.451 176.024 348.509 176.095C348.566 176.165 348.595 176.254 348.595 176.362C348.595 176.547 348.48 176.703 348.25 176.831C348.027 176.958 347.782 177.057 347.514 177.127C347.253 177.197 347.001 177.232 346.759 177.232C346.019 177.232 345.436 177.019 345.009 176.592C344.582 176.158 344.368 175.569 344.368 174.823C344.368 174.345 344.46 173.921 344.645 173.551C344.837 173.181 345.101 172.894 345.439 172.69C345.783 172.486 346.172 172.384 346.606 172.384C347.23 172.384 347.724 172.585 348.088 172.987C348.451 173.388 348.633 173.93 348.633 174.612C348.633 174.867 348.518 174.995 348.289 174.995H345.334C345.398 175.983 345.872 176.477 346.759 176.477C346.995 176.477 347.199 176.445 347.371 176.381C347.543 176.318 347.724 176.235 347.916 176.133C347.935 176.12 347.986 176.095 348.069 176.056C348.158 176.012 348.231 175.989 348.289 175.989ZM346.625 173.092C346.255 173.092 345.959 173.21 345.735 173.446C345.512 173.682 345.378 174.013 345.334 174.44H347.801C347.782 174.007 347.67 173.675 347.466 173.446C347.269 173.21 346.988 173.092 346.625 173.092Z" fill="#B5B5B5"/>
<rect x="220.034" y="159.873" width="141.242" height="27.6342" rx="8.05999" stroke="#D8D1D8" stroke-width="0.767618"/>
</g>
</g>
<g filter="url(#filter1_dd_1276_3734)">
<rect x="15.0989" y="57.458" width="265.842" height="66.6071" rx="7.65013" fill="white"/>
<rect x="30.8773" y="80.2425" width="21.0379" height="21.0379" rx="3.34693" stroke="#A5A2A5" stroke-width="0.956266"/>
<path d="M63.8851 94.8369C63.6627 94.8369 63.4838 94.7692 63.3484 94.6339C63.2131 94.4985 63.1454 94.3148 63.1454 94.0827V85.2208C63.1454 84.9984 63.2131 84.8196 63.3484 84.6842C63.4838 84.5391 63.6627 84.4666 63.8851 84.4666C64.1171 84.4666 64.3009 84.5343 64.4362 84.6697C64.5716 84.805 64.6393 84.9888 64.6393 85.2208V94.0827C64.6393 94.3148 64.5716 94.4985 64.4362 94.6339C64.3105 94.7692 64.1268 94.8369 63.8851 94.8369ZM67.5198 84.4666C67.8099 84.4666 68.0371 84.573 68.2015 84.7857C68.3755 84.9984 68.4625 85.3127 68.4625 85.7285C68.4625 86.5504 68.187 87.261 67.6358 87.8605C67.5198 87.9766 67.3941 88.0346 67.2587 88.0346C67.133 88.0346 67.0266 87.9959 66.9396 87.9186C66.8526 87.8315 66.8091 87.73 66.8091 87.614C66.8091 87.5076 66.8526 87.4061 66.9396 87.3094C67.2104 87.029 67.3844 86.6954 67.4618 86.3086C67.22 86.2893 67.017 86.1974 66.8526 86.033C66.6979 85.8687 66.6205 85.6608 66.6205 85.4094C66.6205 85.1386 66.7076 84.9162 66.8816 84.7422C67.0557 84.5585 67.2684 84.4666 67.5198 84.4666ZM78.4163 87.5124C80.0021 87.5124 80.7949 88.4649 80.7949 90.3697V94.1407C80.7949 94.3631 80.7273 94.5372 80.5919 94.6629C80.4565 94.7789 80.2776 94.8369 80.0552 94.8369C79.8425 94.8369 79.6685 94.7789 79.5331 94.6629C79.3977 94.5372 79.33 94.3631 79.33 94.1407V90.3842C79.33 89.7944 79.2237 89.3689 79.011 89.1079C78.7982 88.8371 78.4646 88.7018 78.0102 88.7018C77.4784 88.7018 77.0578 88.8855 76.7484 89.2529C76.4389 89.6107 76.2842 90.1038 76.2842 90.7323V94.1407C76.2842 94.3631 76.2165 94.5372 76.0812 94.6629C75.9458 94.7789 75.7669 94.8369 75.5445 94.8369C75.3318 94.8369 75.1578 94.7789 75.0224 94.6629C74.887 94.5372 74.8193 94.3631 74.8193 94.1407V90.3842C74.8193 89.7944 74.713 89.3689 74.5002 89.1079C74.2875 88.8371 73.9539 88.7018 73.4995 88.7018C72.9677 88.7018 72.5422 88.8855 72.2231 89.2529C71.9137 89.6107 71.759 90.1038 71.759 90.7323V94.1407C71.759 94.3631 71.6913 94.5372 71.5559 94.6629C71.4206 94.7789 71.2465 94.8369 71.0338 94.8369C70.8211 94.8369 70.6422 94.7789 70.4972 94.6629C70.3618 94.5372 70.2941 94.3631 70.2941 94.1407V88.2376C70.2941 88.0249 70.3666 87.8557 70.5117 87.73C70.6567 87.6043 70.8308 87.5415 71.0338 87.5415C71.2369 87.5415 71.4012 87.6043 71.5269 87.73C71.6623 87.846 71.73 88.0104 71.73 88.2231V88.7598C71.9427 88.3537 72.2376 88.0443 72.6147 87.8315C72.9918 87.6188 73.427 87.5124 73.9201 87.5124C74.4616 87.5124 74.9064 87.6236 75.2544 87.846C75.6122 88.0684 75.8781 88.4117 76.0522 88.8758C76.2649 88.46 76.5791 88.1313 76.9949 87.8895C77.4107 87.6381 77.8845 87.5124 78.4163 87.5124ZM90.4397 87.5124C92.1318 87.5124 92.9779 88.4649 92.9779 90.3697V94.1407C92.9779 94.3631 92.9102 94.5372 92.7748 94.6629C92.6491 94.7789 92.4703 94.8369 92.2382 94.8369C92.0158 94.8369 91.8369 94.7741 91.7015 94.6484C91.5758 94.5227 91.513 94.3535 91.513 94.1407V90.4422C91.513 89.8427 91.3921 89.4028 91.1504 89.1224C90.9183 88.842 90.5509 88.7018 90.0481 88.7018C89.4583 88.7018 88.9845 88.8855 88.6267 89.2529C88.269 89.6203 88.0901 90.1135 88.0901 90.7323V94.1407C88.0901 94.3535 88.0224 94.5227 87.887 94.6484C87.7613 94.7741 87.5873 94.8369 87.3649 94.8369C87.1425 94.8369 86.9636 94.7741 86.8282 94.6484C86.6929 94.5227 86.6252 94.3535 86.6252 94.1407V88.2376C86.6252 88.0346 86.6929 87.8702 86.8282 87.7445C86.9733 87.6091 87.1522 87.5415 87.3649 87.5415C87.5776 87.5415 87.7468 87.6043 87.8725 87.73C87.9982 87.8557 88.0611 88.0201 88.0611 88.2231V88.8178C88.2931 88.3923 88.617 88.0684 89.0328 87.846C89.4486 87.6236 89.9176 87.5124 90.4397 87.5124ZM98.0568 94.8659C97.3606 94.8659 96.7466 94.7161 96.2148 94.4163C95.6926 94.1166 95.2865 93.6911 94.9964 93.14C94.716 92.5791 94.5758 91.9313 94.5758 91.1964C94.5758 90.4519 94.716 89.8041 94.9964 89.2529C95.2865 88.6921 95.6926 88.2618 96.2148 87.9621C96.7466 87.6623 97.3606 87.5124 98.0568 87.5124C98.7529 87.5124 99.3621 87.6623 99.8843 87.9621C100.416 88.2618 100.822 88.6921 101.103 89.2529C101.393 89.8041 101.538 90.4519 101.538 91.1964C101.538 91.9313 101.393 92.5791 101.103 93.14C100.822 93.6911 100.416 94.1166 99.8843 94.4163C99.3621 94.7161 98.7529 94.8659 98.0568 94.8659ZM98.0568 93.7056C98.7046 93.7056 99.1977 93.4929 99.5362 93.0674C99.8843 92.642 100.058 92.0183 100.058 91.1964C100.058 90.3842 99.8843 89.7654 99.5362 89.3399C99.1881 88.9048 98.6949 88.6873 98.0568 88.6873C97.4186 88.6873 96.9255 88.9048 96.5774 89.3399C96.2293 89.7654 96.0552 90.3842 96.0552 91.1964C96.0552 92.0183 96.2244 92.642 96.5629 93.0674C96.9109 93.4929 97.4089 93.7056 98.0568 93.7056ZM106.607 93.7201C106.82 93.7395 106.969 93.7975 107.056 93.8942C107.153 93.9812 107.201 94.1069 107.201 94.2713C107.201 94.4647 107.124 94.6145 106.969 94.7209C106.824 94.8176 106.607 94.8563 106.317 94.8369L105.925 94.8079C105.142 94.7499 104.557 94.513 104.17 94.0972C103.783 93.6718 103.59 93.0481 103.59 92.2262V88.8178H102.72C102.294 88.8178 102.082 88.6292 102.082 88.2521C102.082 88.0781 102.135 87.9427 102.241 87.846C102.357 87.7397 102.517 87.6865 102.72 87.6865H103.59V86.1926C103.59 85.9702 103.653 85.7961 103.779 85.6704C103.914 85.5447 104.093 85.4819 104.315 85.4819C104.538 85.4819 104.716 85.5447 104.852 85.6704C104.987 85.7961 105.055 85.9702 105.055 86.1926V87.6865H106.491C106.694 87.6865 106.849 87.7397 106.955 87.846C107.071 87.9427 107.129 88.0781 107.129 88.2521C107.129 88.4359 107.071 88.5761 106.955 88.6728C106.849 88.7695 106.694 88.8178 106.491 88.8178H105.055V92.3277C105.055 92.7822 105.147 93.1158 105.33 93.3285C105.524 93.5412 105.814 93.6621 106.201 93.6911L106.607 93.7201ZM115.051 87.5124C115.989 87.5124 116.685 87.7493 117.14 88.2231C117.604 88.6969 117.836 89.4173 117.836 90.3842V94.1407C117.836 94.3631 117.773 94.5372 117.647 94.6629C117.522 94.7789 117.348 94.8369 117.125 94.8369C116.912 94.8369 116.743 94.7741 116.618 94.6484C116.492 94.5227 116.429 94.3535 116.429 94.1407V93.6041C116.245 94.0102 115.97 94.3245 115.602 94.5468C115.245 94.7596 114.824 94.8659 114.34 94.8659C113.876 94.8659 113.451 94.7741 113.064 94.5904C112.687 94.397 112.387 94.1359 112.165 93.8071C111.942 93.4784 111.831 93.1061 111.831 92.6903C111.822 92.1682 111.952 91.7621 112.223 91.472C112.494 91.1723 112.934 90.9595 113.543 90.8338C114.152 90.6985 114.998 90.6308 116.081 90.6308H116.415V90.2102C116.415 89.6687 116.303 89.2771 116.081 89.0354C115.859 88.7936 115.501 88.6728 115.008 88.6728C114.669 88.6728 114.35 88.7163 114.05 88.8033C113.751 88.8903 113.422 89.016 113.064 89.1804C112.803 89.3254 112.619 89.398 112.513 89.398C112.368 89.398 112.247 89.3448 112.15 89.2384C112.063 89.132 112.02 88.9967 112.02 88.8323C112.02 88.6873 112.059 88.5616 112.136 88.4552C112.223 88.3392 112.358 88.228 112.542 88.1216C112.88 87.9379 113.277 87.7929 113.731 87.6865C114.186 87.5705 114.626 87.5124 115.051 87.5124ZM114.602 93.7781C115.133 93.7781 115.568 93.5993 115.907 93.2415C116.245 92.8741 116.415 92.4051 116.415 91.8346V91.4575H116.153C115.399 91.4575 114.819 91.4914 114.413 91.559C114.007 91.6267 113.717 91.7428 113.543 91.9071C113.369 92.0618 113.282 92.2891 113.282 92.5888C113.282 92.9369 113.407 93.2222 113.659 93.4445C113.91 93.6669 114.224 93.7781 114.602 93.7781ZM127.377 87.5415C127.841 87.5124 128.073 87.7107 128.073 88.1361C128.073 88.3488 128.02 88.5084 127.914 88.6147C127.807 88.7211 127.624 88.784 127.362 88.8033L126.927 88.8468C126.318 88.9048 125.864 89.1175 125.564 89.485C125.274 89.8524 125.129 90.2972 125.129 90.8193V94.1407C125.129 94.3728 125.061 94.5468 124.926 94.6629C124.79 94.7789 124.616 94.8369 124.404 94.8369C124.191 94.8369 124.012 94.7789 123.867 94.6629C123.732 94.5468 123.664 94.3728 123.664 94.1407V88.2376C123.664 88.0152 123.732 87.846 123.867 87.73C124.012 87.6043 124.191 87.5415 124.404 87.5415C124.597 87.5415 124.757 87.6043 124.882 87.73C125.018 87.846 125.085 88.0104 125.085 88.2231V88.9193C125.279 88.4939 125.559 88.17 125.927 87.9476C126.294 87.7252 126.71 87.5946 127.174 87.556L127.377 87.5415ZM131.909 94.8659C131.212 94.8659 130.598 94.7161 130.067 94.4163C129.545 94.1166 129.138 93.6911 128.848 93.14C128.568 92.5791 128.428 91.9313 128.428 91.1964C128.428 90.4519 128.568 89.8041 128.848 89.2529C129.138 88.6921 129.545 88.2618 130.067 87.9621C130.598 87.6623 131.212 87.5124 131.909 87.5124C132.605 87.5124 133.214 87.6623 133.736 87.9621C134.268 88.2618 134.674 88.6921 134.954 89.2529C135.245 89.8041 135.39 90.4519 135.39 91.1964C135.39 91.9313 135.245 92.5791 134.954 93.14C134.674 93.6911 134.268 94.1166 133.736 94.4163C133.214 94.7161 132.605 94.8659 131.909 94.8659ZM131.909 93.7056C132.557 93.7056 133.05 93.4929 133.388 93.0674C133.736 92.642 133.91 92.0183 133.91 91.1964C133.91 90.3842 133.736 89.7654 133.388 89.3399C133.04 88.9048 132.547 88.6873 131.909 88.6873C131.27 88.6873 130.777 88.9048 130.429 89.3399C130.081 89.7654 129.907 90.3842 129.907 91.1964C129.907 92.0183 130.076 92.642 130.415 93.0674C130.763 93.4929 131.261 93.7056 131.909 93.7056ZM140.821 87.5124C141.439 87.5124 141.986 87.6623 142.46 87.9621C142.933 88.2618 143.301 88.6873 143.562 89.2384C143.833 89.7896 143.968 90.4326 143.968 91.1674C143.968 91.8926 143.833 92.5356 143.562 93.0965C143.301 93.6573 142.929 94.0924 142.445 94.4018C141.971 94.7112 141.43 94.8659 140.821 94.8659C140.289 94.8659 139.82 94.7547 139.414 94.5323C139.008 94.3003 138.698 93.9715 138.486 93.5461V94.1262C138.486 94.339 138.418 94.513 138.282 94.6484C138.157 94.7741 137.983 94.8369 137.76 94.8369C137.538 94.8369 137.359 94.7741 137.224 94.6484C137.088 94.513 137.021 94.339 137.021 94.1262V85.1628C137.021 84.9501 137.088 84.7809 137.224 84.6552C137.369 84.5295 137.552 84.4666 137.775 84.4666C137.988 84.4666 138.157 84.5295 138.282 84.6552C138.418 84.7712 138.486 84.9307 138.486 85.1338V88.8468C138.698 88.4214 139.008 88.0926 139.414 87.8605C139.82 87.6285 140.289 87.5124 140.821 87.5124ZM140.473 93.7056C141.101 93.7056 141.589 93.4832 141.937 93.0384C142.295 92.5937 142.474 91.97 142.474 91.1674C142.474 90.3746 142.3 89.7654 141.952 89.3399C141.604 88.9048 141.111 88.6873 140.473 88.6873C139.834 88.6873 139.341 88.9048 138.993 89.3399C138.655 89.7751 138.486 90.3939 138.486 91.1964C138.486 91.999 138.655 92.6178 138.993 93.0529C139.341 93.4881 139.834 93.7056 140.473 93.7056ZM148.665 94.8659C147.968 94.8659 147.354 94.7161 146.823 94.4163C146.301 94.1166 145.894 93.6911 145.604 93.14C145.324 92.5791 145.184 91.9313 145.184 91.1964C145.184 90.4519 145.324 89.8041 145.604 89.2529C145.894 88.6921 146.301 88.2618 146.823 87.9621C147.354 87.6623 147.968 87.5124 148.665 87.5124C149.361 87.5124 149.97 87.6623 150.492 87.9621C151.024 88.2618 151.43 88.6921 151.71 89.2529C152.001 89.8041 152.146 90.4519 152.146 91.1964C152.146 91.9313 152.001 92.5791 151.71 93.14C151.43 93.6911 151.024 94.1166 150.492 94.4163C149.97 94.7161 149.361 94.8659 148.665 94.8659ZM148.665 93.7056C149.313 93.7056 149.806 93.4929 150.144 93.0674C150.492 92.642 150.666 92.0183 150.666 91.1964C150.666 90.3842 150.492 89.7654 150.144 89.3399C149.796 88.9048 149.303 88.6873 148.665 88.6873C148.026 88.6873 147.533 88.9048 147.185 89.3399C146.837 89.7654 146.663 90.3842 146.663 91.1964C146.663 92.0183 146.832 92.642 147.171 93.0674C147.519 93.4929 148.017 93.7056 148.665 93.7056ZM157.215 93.7201C157.427 93.7395 157.577 93.7975 157.664 93.8942C157.761 93.9812 157.809 94.1069 157.809 94.2713C157.809 94.4647 157.732 94.6145 157.577 94.7209C157.432 94.8176 157.215 94.8563 156.925 94.8369L156.533 94.8079C155.75 94.7499 155.165 94.513 154.778 94.0972C154.391 93.6718 154.198 93.0481 154.198 92.2262V88.8178H153.328C152.902 88.8178 152.689 88.6292 152.689 88.2521C152.689 88.0781 152.743 87.9427 152.849 87.846C152.965 87.7397 153.125 87.6865 153.328 87.6865H154.198V86.1926C154.198 85.9702 154.261 85.7961 154.386 85.6704C154.522 85.5447 154.701 85.4819 154.923 85.4819C155.145 85.4819 155.324 85.5447 155.46 85.6704C155.595 85.7961 155.663 85.9702 155.663 86.1926V87.6865H157.099C157.302 87.6865 157.456 87.7397 157.563 87.846C157.679 87.9427 157.737 88.0781 157.737 88.2521C157.737 88.4359 157.679 88.5761 157.563 88.6728C157.456 88.7695 157.302 88.8178 157.099 88.8178H155.663V92.3277C155.663 92.7822 155.755 93.1158 155.938 93.3285C156.132 93.5412 156.422 93.6621 156.809 93.6911L157.215 93.7201Z" fill="#484455"/>
<path d="M231.534 85.4019C235.207 90.2419 237.864 90.9887 243.965 87.8457L250.447 94.2208C240.272 100.892 234.623 101.505 224.734 92.0958L221.652 95.3896V82.2144H234.509L231.534 85.4019Z" fill="#C3C3C3"/>
<path d="M252.147 72.0143C247.59 66.4944 244.435 65.776 238.653 65.1079V74.2456C241.818 74.7441 243.411 75.4452 245.347 78.8144L242.372 81.8957H255.122V68.8267L252.147 72.0143Z" fill="#B569B5"/>
<path d="M235.465 75.0958C232.335 76.9224 231.379 78.4868 230.896 82.1084H221.652C222.178 75.8877 223.692 72.8792 228.665 68.402L225.584 65.1082H238.653V78.2834L235.465 75.0958Z" fill="#C97BC9"/>
<path d="M214.251 108.265C214.557 108.246 214.71 108.377 214.71 108.657C214.71 108.797 214.675 108.903 214.605 108.973C214.535 109.043 214.414 109.084 214.241 109.097L213.955 109.126C213.553 109.164 213.253 109.304 213.056 109.547C212.864 109.789 212.769 110.082 212.769 110.426V112.616C212.769 112.769 212.724 112.884 212.635 112.96C212.546 113.037 212.431 113.075 212.291 113.075C212.15 113.075 212.032 113.037 211.937 112.96C211.848 112.884 211.803 112.769 211.803 112.616V108.724C211.803 108.578 211.848 108.466 211.937 108.389C212.032 108.307 212.15 108.265 212.291 108.265C212.418 108.265 212.523 108.307 212.606 108.389C212.695 108.466 212.74 108.574 212.74 108.715V109.174C212.868 108.893 213.052 108.68 213.295 108.533C213.537 108.386 213.811 108.3 214.117 108.275L214.251 108.265ZM218.864 111.851C218.954 111.851 219.027 111.886 219.084 111.956C219.142 112.026 219.17 112.116 219.17 112.224C219.17 112.409 219.056 112.565 218.826 112.693C218.603 112.82 218.358 112.919 218.09 112.989C217.828 113.059 217.577 113.094 217.334 113.094C216.595 113.094 216.012 112.881 215.584 112.454C215.157 112.02 214.944 111.43 214.944 110.684C214.944 110.206 215.036 109.782 215.221 109.413C215.412 109.043 215.677 108.756 216.015 108.552C216.359 108.348 216.748 108.246 217.181 108.246C217.806 108.246 218.3 108.447 218.664 108.848C219.027 109.25 219.209 109.792 219.209 110.474C219.209 110.729 219.094 110.857 218.864 110.857H215.91C215.973 111.845 216.448 112.339 217.334 112.339C217.57 112.339 217.774 112.307 217.946 112.243C218.119 112.179 218.3 112.097 218.491 111.995C218.511 111.982 218.562 111.956 218.644 111.918C218.734 111.873 218.807 111.851 218.864 111.851ZM217.201 108.954C216.831 108.954 216.534 109.072 216.311 109.307C216.088 109.543 215.954 109.875 215.91 110.302H218.377C218.358 109.868 218.246 109.537 218.042 109.307C217.844 109.072 217.564 108.954 217.201 108.954ZM223.323 113.104C222.68 113.104 222.119 112.967 221.64 112.693C221.162 112.412 220.796 112.014 220.541 111.497C220.286 110.975 220.158 110.359 220.158 109.652C220.158 108.95 220.286 108.342 220.541 107.825C220.796 107.302 221.162 106.904 221.64 106.63C222.119 106.349 222.68 106.209 223.323 106.209C223.744 106.209 224.143 106.276 224.519 106.41C224.895 106.537 225.223 106.726 225.504 106.974C225.625 107.07 225.685 107.197 225.685 107.357C225.685 107.471 225.654 107.57 225.59 107.653C225.526 107.73 225.45 107.768 225.36 107.768C225.252 107.768 225.147 107.726 225.045 107.644C224.739 107.414 224.458 107.255 224.203 107.165C223.955 107.07 223.671 107.022 223.352 107.022C222.651 107.022 222.112 107.248 221.736 107.701C221.36 108.154 221.172 108.804 221.172 109.652C221.172 110.506 221.36 111.159 221.736 111.612C222.112 112.065 222.651 112.291 223.352 112.291C223.658 112.291 223.935 112.243 224.184 112.148C224.439 112.052 224.726 111.893 225.045 111.669C225.172 111.587 225.277 111.545 225.36 111.545C225.45 111.545 225.526 111.587 225.59 111.669C225.654 111.746 225.685 111.842 225.685 111.956C225.685 112.116 225.625 112.243 225.504 112.339C225.223 112.587 224.895 112.779 224.519 112.913C224.143 113.04 223.744 113.104 223.323 113.104ZM232.667 112.454C232.699 112.53 232.715 112.594 232.715 112.645C232.715 112.766 232.664 112.868 232.562 112.951C232.466 113.034 232.358 113.075 232.237 113.075C232.154 113.075 232.074 113.053 231.998 113.008C231.928 112.957 231.874 112.887 231.835 112.798L231.204 111.363H227.704L227.073 112.798C227.035 112.887 226.977 112.957 226.901 113.008C226.824 113.053 226.745 113.075 226.662 113.075C226.534 113.075 226.42 113.034 226.318 112.951C226.222 112.868 226.174 112.766 226.174 112.645C226.174 112.594 226.19 112.53 226.222 112.454L228.919 106.553C228.963 106.451 229.033 106.372 229.129 106.314C229.231 106.257 229.336 106.228 229.445 106.228C229.553 106.228 229.655 106.257 229.751 106.314C229.853 106.372 229.926 106.451 229.971 106.553L232.667 112.454ZM228.058 110.579H230.86L229.454 107.414L228.058 110.579ZM234.23 113.075C234.083 113.075 233.965 113.031 233.876 112.941C233.786 112.852 233.742 112.731 233.742 112.578V106.764C233.742 106.617 233.783 106.502 233.866 106.42C233.955 106.33 234.077 106.286 234.23 106.286H236.534C237.248 106.286 237.803 106.461 238.198 106.812C238.593 107.162 238.791 107.66 238.791 108.303C238.791 108.941 238.593 109.438 238.198 109.795C237.803 110.152 237.248 110.331 236.534 110.331H234.727V112.578C234.727 112.731 234.682 112.852 234.593 112.941C234.51 113.031 234.389 113.075 234.23 113.075ZM236.429 109.537C237.372 109.537 237.844 109.126 237.844 108.303C237.844 107.487 237.372 107.079 236.429 107.079H234.727V109.537H236.429ZM241.916 113.075C241.769 113.075 241.648 113.031 241.552 112.941C241.463 112.846 241.418 112.725 241.418 112.578V107.108H239.506C239.2 107.108 239.047 106.971 239.047 106.697C239.047 106.563 239.085 106.461 239.162 106.391C239.245 106.321 239.359 106.286 239.506 106.286H244.325C244.472 106.286 244.584 106.321 244.66 106.391C244.743 106.461 244.784 106.563 244.784 106.697C244.784 106.971 244.631 107.108 244.325 107.108H242.413V112.578C242.413 112.725 242.368 112.846 242.279 112.941C242.19 113.031 242.069 113.075 241.916 113.075ZM248.127 113.104C247.483 113.104 246.922 112.967 246.444 112.693C245.965 112.412 245.599 112.014 245.344 111.497C245.089 110.975 244.961 110.359 244.961 109.652C244.961 108.95 245.089 108.342 245.344 107.825C245.599 107.302 245.965 106.904 246.444 106.63C246.922 106.349 247.483 106.209 248.127 106.209C248.547 106.209 248.946 106.276 249.322 106.41C249.698 106.537 250.026 106.726 250.307 106.974C250.428 107.07 250.489 107.197 250.489 107.357C250.489 107.471 250.457 107.57 250.393 107.653C250.329 107.73 250.253 107.768 250.163 107.768C250.055 107.768 249.95 107.726 249.848 107.644C249.542 107.414 249.261 107.255 249.006 107.165C248.758 107.07 248.474 107.022 248.155 107.022C247.454 107.022 246.915 107.248 246.539 107.701C246.163 108.154 245.975 108.804 245.975 109.652C245.975 110.506 246.163 111.159 246.539 111.612C246.915 112.065 247.454 112.291 248.155 112.291C248.461 112.291 248.739 112.243 248.987 112.148C249.242 112.052 249.529 111.893 249.848 111.669C249.975 111.587 250.081 111.545 250.163 111.545C250.253 111.545 250.329 111.587 250.393 111.669C250.457 111.746 250.489 111.842 250.489 111.956C250.489 112.116 250.428 112.243 250.307 112.339C250.026 112.587 249.698 112.779 249.322 112.913C248.946 113.04 248.547 113.104 248.127 113.104ZM256.893 106.238C257.04 106.238 257.158 106.286 257.247 106.381C257.336 106.471 257.381 106.588 257.381 106.735V112.578C257.381 112.725 257.336 112.846 257.247 112.941C257.158 113.031 257.04 113.075 256.893 113.075C256.747 113.075 256.629 113.031 256.539 112.941C256.45 112.852 256.406 112.731 256.406 112.578V110.006H252.638V112.578C252.638 112.725 252.593 112.846 252.504 112.941C252.415 113.031 252.297 113.075 252.15 113.075C252.004 113.075 251.886 113.031 251.796 112.941C251.707 112.852 251.663 112.731 251.663 112.578V106.735C251.663 106.588 251.707 106.471 251.796 106.381C251.886 106.286 252.004 106.238 252.15 106.238C252.297 106.238 252.415 106.286 252.504 106.381C252.593 106.471 252.638 106.588 252.638 106.735V109.202H256.406V106.735C256.406 106.588 256.45 106.471 256.539 106.381C256.629 106.286 256.747 106.238 256.893 106.238ZM264.895 112.454C264.926 112.53 264.942 112.594 264.942 112.645C264.942 112.766 264.891 112.868 264.789 112.951C264.694 113.034 264.585 113.075 264.464 113.075C264.381 113.075 264.302 113.053 264.225 113.008C264.155 112.957 264.101 112.887 264.063 112.798L263.431 111.363H259.932L259.3 112.798C259.262 112.887 259.205 112.957 259.128 113.008C259.052 113.053 258.972 113.075 258.889 113.075C258.762 113.075 258.647 113.034 258.545 112.951C258.449 112.868 258.401 112.766 258.401 112.645C258.401 112.594 258.417 112.53 258.449 112.454L261.146 106.553C261.191 106.451 261.261 106.372 261.356 106.314C261.458 106.257 261.564 106.228 261.672 106.228C261.78 106.228 261.882 106.257 261.978 106.314C262.08 106.372 262.153 106.451 262.198 106.553L264.895 112.454ZM260.285 110.579H263.087L261.681 107.414L260.285 110.579Z" fill="#797979"/>
</g>
<g filter="url(#filter2_dd_1276_3734)">
<g clip-path="url(#clip1_1276_3734)">
<rect x="246.152" y="217.89" width="205.722" height="72.1561" rx="7.65013" fill="white"/>
<path d="M277.407 239.541C277.535 239.503 277.618 239.503 277.663 239.548C277.716 239.586 277.716 239.654 277.685 239.767C277.648 239.872 277.588 239.97 277.497 240.06C277.407 240.135 277.301 240.188 277.166 240.233L273.055 241.679C272.92 241.732 272.822 241.732 272.762 241.679C272.716 241.611 272.709 241.513 272.754 241.385C272.807 241.25 272.905 241.099 273.055 240.934L277.919 236.092L274.998 236.619C274.877 236.642 274.802 236.627 274.757 236.574C274.727 236.514 274.734 236.439 274.779 236.326C274.832 236.205 274.9 236.1 274.99 236.025C275.088 235.934 275.193 235.882 275.306 235.867L278.83 235.377C278.95 235.37 279.048 235.392 279.101 235.46C279.154 235.513 279.169 235.588 279.131 235.686C279.093 235.784 279.011 235.889 278.898 235.995L274.124 240.595L277.407 239.541ZM279.455 239.699C279.304 239.729 279.199 239.714 279.139 239.654C279.071 239.593 279.071 239.495 279.116 239.367C279.116 239.367 279.628 237.854 280.223 236.454C280.667 235.084 280.622 233.638 280.622 233.638C280.607 233.525 280.629 233.435 280.697 233.374C280.757 233.307 280.855 233.277 280.983 233.292C281.104 233.307 281.209 233.359 281.299 233.442C281.39 233.518 281.435 233.608 281.45 233.728C281.45 233.728 281.51 235.129 281.126 236.446C280.546 237.786 280.065 239.224 280.065 239.224C280.027 239.352 279.952 239.458 279.846 239.541C279.733 239.623 279.598 239.676 279.455 239.699ZM285.516 235.272C285.132 235.136 284.845 235.144 284.657 235.249C284.461 235.347 284.379 235.55 284.371 235.859L284.349 236.107L285.546 236.582C285.659 236.642 285.749 236.717 285.802 236.808C285.854 236.883 285.869 236.966 285.847 237.041C285.832 237.124 285.787 237.169 285.711 237.169C285.636 237.177 285.531 237.154 285.418 237.094L284.228 236.597L283.392 239.541C283.37 239.646 283.302 239.721 283.182 239.759C283.069 239.804 282.941 239.812 282.783 239.797C282.624 239.774 282.504 239.736 282.406 239.669C282.331 239.593 282.301 239.503 282.331 239.39L283.34 236.341L282.632 236.13C282.511 236.092 282.421 236.047 282.368 235.987C282.316 235.919 282.301 235.851 282.323 235.776C282.338 235.693 282.383 235.633 282.451 235.611C282.534 235.58 282.632 235.58 282.752 235.618L283.46 235.844L283.475 235.701C283.49 235.219 283.618 234.88 283.912 234.715C284.19 234.541 284.65 234.526 285.275 234.669L285.546 234.752C285.741 234.82 285.869 234.895 285.952 234.978C286.043 235.061 286.103 235.166 286.125 235.272C286.148 235.452 286.043 235.49 285.794 235.385L285.516 235.272ZM293.316 241.558C293.451 241.589 293.579 241.634 293.684 241.686C293.805 241.747 293.873 241.807 293.895 241.86C293.933 241.95 293.737 241.973 293.308 241.935C292.856 241.905 292.374 241.867 291.87 241.807C291.358 241.747 290.861 241.679 290.387 241.589C288.994 241.302 287.925 240.918 287.172 240.414C286.449 239.917 286.133 239.405 286.148 238.848C286.163 238.487 286.314 238.216 286.577 238.042C286.826 237.862 287.172 237.786 287.609 237.817C288.068 237.854 288.602 237.997 289.22 238.246C290.131 238.569 290.959 238.961 291.689 239.413C292.457 239.857 292.999 240.309 293.293 240.745C293.346 240.828 293.338 240.881 293.278 240.896C293.21 240.911 293.067 240.896 292.864 240.858L287.375 239.352C287.533 240.143 288.482 240.775 290.327 241.197C290.801 241.302 291.23 241.37 291.569 241.408C291.923 241.438 292.292 241.468 292.683 241.491C292.992 241.506 293.203 241.528 293.316 241.558ZM289.378 238.72C288.753 238.487 288.279 238.404 287.94 238.456C287.594 238.509 287.405 238.705 287.375 239.014L292.036 240.391C291.832 240.06 291.494 239.759 291.027 239.48C290.567 239.187 290.01 238.938 289.378 238.72ZM303.299 244.231C303.434 244.284 303.555 244.352 303.653 244.434C303.766 244.517 303.833 244.6 303.864 244.683L304.36 246.573C304.383 246.693 304.36 246.768 304.293 246.799C304.24 246.836 304.127 246.829 303.954 246.791C303.593 246.716 303.148 246.58 302.606 246.369C302.079 246.166 301.537 245.925 300.987 245.654C299.948 245.127 299.015 244.54 298.209 243.975C297.389 243.418 296.704 242.861 296.146 242.311C295.559 241.792 295.115 241.28 294.806 240.79C294.475 240.309 294.4 239.955 294.588 239.729C294.754 239.473 295.153 239.337 295.793 239.352C296.38 239.352 297.193 239.511 298.239 239.879C298.947 240.12 299.632 240.406 300.287 240.76C300.942 241.122 301.552 241.506 302.094 241.92C302.328 242.093 302.478 242.236 302.561 242.356C302.621 242.447 302.636 242.515 302.606 242.552C302.576 242.59 302.508 242.582 302.388 242.53C302.282 242.484 302.132 242.394 301.936 242.259C301.296 241.822 300.739 241.476 300.28 241.227C299.805 240.964 299.309 240.738 298.759 240.534C297.517 240.083 296.719 239.985 296.304 240.143C295.86 240.271 295.853 240.655 296.267 241.302C296.598 241.942 297.133 242.582 297.916 243.222C298.676 243.885 299.685 244.54 300.927 245.165C301.823 245.601 302.614 245.91 303.314 246.098L302.9 244.502L300.762 243.539C300.596 243.463 300.445 243.373 300.325 243.283C300.204 243.2 300.129 243.117 300.099 243.049C300.061 242.974 300.084 242.936 300.174 242.944C300.257 242.944 300.385 242.981 300.558 243.049L303.299 244.231ZM309.292 240.301C309.405 240.203 309.503 240.173 309.593 240.218C309.683 240.233 309.759 240.316 309.819 240.452C309.819 240.452 310.858 242.116 311.935 243.659C312.815 245.097 313.32 246.573 313.32 246.573C313.35 246.686 313.342 246.791 313.305 246.896C313.267 247.002 313.199 247.085 313.094 247.152C312.996 247.213 312.913 247.22 312.846 247.183C312.778 247.145 312.733 247.077 312.71 246.964L310.18 242.281L310.549 246.814C310.489 246.987 310.376 247.077 310.195 247.092C310.022 247.107 309.872 247.047 309.736 246.904L305.994 243.81L307.432 247.687C307.447 247.777 307.417 247.845 307.342 247.898C307.274 247.95 307.169 247.981 307.018 247.973C306.883 247.966 306.762 247.928 306.679 247.868C306.589 247.8 306.544 247.725 306.529 247.627C306.529 247.627 306.326 246.407 305.957 245.187C305.271 243.885 304.33 242.454 304.33 242.454C304.248 242.334 304.232 242.251 304.27 242.206C304.308 242.153 304.406 242.153 304.564 242.198C304.759 242.259 304.985 242.379 305.226 242.59L310.037 246.347L309.171 240.918C309.134 240.768 309.134 240.64 309.149 240.557C309.171 240.452 309.224 240.369 309.292 240.301Z" fill="black"/>
<path d="M278.129 271.644C277.976 271.644 277.854 271.603 277.765 271.52C277.682 271.43 277.641 271.313 277.641 271.166V265.38C277.641 265.234 277.682 265.119 277.765 265.036C277.854 264.947 277.976 264.902 278.129 264.902H281.648C281.794 264.902 281.906 264.937 281.982 265.008C282.065 265.078 282.107 265.176 282.107 265.304C282.107 265.431 282.065 265.53 281.982 265.6C281.906 265.664 281.794 265.696 281.648 265.696H278.607V267.819H281.456C281.603 267.819 281.715 267.854 281.791 267.924C281.874 267.994 281.915 268.093 281.915 268.221C281.915 268.348 281.874 268.447 281.791 268.517C281.715 268.587 281.603 268.622 281.456 268.622H278.607V270.85H281.648C281.954 270.85 282.107 270.981 282.107 271.242C282.107 271.37 282.065 271.469 281.982 271.539C281.906 271.609 281.794 271.644 281.648 271.644H278.129ZM285.635 266.863C286.75 266.863 287.308 267.491 287.308 268.747V271.233C287.308 271.379 287.264 271.494 287.174 271.577C287.092 271.654 286.974 271.692 286.821 271.692C286.674 271.692 286.556 271.65 286.467 271.568C286.384 271.485 286.342 271.373 286.342 271.233V268.794C286.342 268.399 286.263 268.109 286.103 267.924C285.95 267.739 285.708 267.647 285.377 267.647C284.988 267.647 284.675 267.768 284.44 268.01C284.204 268.252 284.086 268.578 284.086 268.986V271.233C284.086 271.373 284.041 271.485 283.952 271.568C283.869 271.65 283.754 271.692 283.608 271.692C283.461 271.692 283.343 271.65 283.254 271.568C283.164 271.485 283.12 271.373 283.12 271.233V267.341C283.12 267.207 283.164 267.099 283.254 267.016C283.349 266.926 283.467 266.882 283.608 266.882C283.748 266.882 283.859 266.923 283.942 267.006C284.025 267.089 284.067 267.197 284.067 267.331V267.723C284.22 267.443 284.433 267.229 284.707 267.083C284.981 266.936 285.291 266.863 285.635 266.863ZM290.915 270.956C291.055 270.968 291.154 271.007 291.212 271.07C291.275 271.128 291.307 271.211 291.307 271.319C291.307 271.446 291.256 271.545 291.154 271.615C291.059 271.679 290.915 271.705 290.724 271.692L290.466 271.673C289.949 271.634 289.564 271.478 289.309 271.204C289.054 270.924 288.926 270.512 288.926 269.971V267.723H288.352C288.072 267.723 287.932 267.599 287.932 267.35C287.932 267.236 287.967 267.146 288.037 267.083C288.113 267.013 288.218 266.977 288.352 266.977H288.926V265.993C288.926 265.846 288.967 265.731 289.05 265.648C289.14 265.565 289.258 265.524 289.404 265.524C289.551 265.524 289.669 265.565 289.758 265.648C289.847 265.731 289.892 265.846 289.892 265.993V266.977H290.839C290.972 266.977 291.074 267.013 291.145 267.083C291.221 267.146 291.259 267.236 291.259 267.35C291.259 267.472 291.221 267.564 291.145 267.628C291.074 267.691 290.972 267.723 290.839 267.723H289.892V270.038C289.892 270.337 289.952 270.557 290.074 270.697C290.201 270.838 290.392 270.917 290.647 270.936L290.915 270.956ZM295.654 270.468C295.743 270.468 295.816 270.503 295.874 270.573C295.931 270.643 295.96 270.732 295.96 270.841C295.96 271.026 295.845 271.182 295.615 271.309C295.392 271.437 295.147 271.536 294.879 271.606C294.618 271.676 294.366 271.711 294.124 271.711C293.384 271.711 292.801 271.497 292.374 271.07C291.947 270.637 291.733 270.047 291.733 269.301C291.733 268.823 291.825 268.399 292.01 268.029C292.202 267.66 292.466 267.373 292.804 267.169C293.148 266.965 293.537 266.863 293.971 266.863C294.595 266.863 295.09 267.064 295.453 267.465C295.816 267.867 295.998 268.409 295.998 269.091C295.998 269.346 295.883 269.473 295.654 269.473H292.699C292.763 270.461 293.238 270.956 294.124 270.956C294.36 270.956 294.564 270.924 294.736 270.86C294.908 270.796 295.09 270.713 295.281 270.611C295.3 270.599 295.351 270.573 295.434 270.535C295.523 270.49 295.596 270.468 295.654 270.468ZM293.99 267.57C293.62 267.57 293.324 267.688 293.101 267.924C292.877 268.16 292.744 268.492 292.699 268.919H295.166C295.147 268.485 295.035 268.154 294.831 267.924C294.634 267.688 294.353 267.57 293.99 267.57ZM299.51 266.882C299.816 266.863 299.969 266.993 299.969 267.274C299.969 267.414 299.934 267.519 299.864 267.589C299.794 267.66 299.673 267.701 299.501 267.714L299.214 267.742C298.812 267.781 298.513 267.921 298.315 268.163C298.124 268.405 298.028 268.699 298.028 269.043V271.233C298.028 271.386 297.984 271.501 297.894 271.577C297.805 271.654 297.69 271.692 297.55 271.692C297.41 271.692 297.292 271.654 297.196 271.577C297.107 271.501 297.062 271.386 297.062 271.233V267.341C297.062 267.194 297.107 267.083 297.196 267.006C297.292 266.923 297.41 266.882 297.55 266.882C297.677 266.882 297.783 266.923 297.866 267.006C297.955 267.083 297.999 267.191 297.999 267.331V267.79C298.127 267.51 298.312 267.296 298.554 267.15C298.796 267.003 299.07 266.917 299.376 266.891L299.51 266.882ZM305.371 270.956C305.511 270.968 305.61 271.007 305.668 271.07C305.731 271.128 305.763 271.211 305.763 271.319C305.763 271.446 305.712 271.545 305.61 271.615C305.515 271.679 305.371 271.705 305.18 271.692L304.922 271.673C304.405 271.634 304.02 271.478 303.765 271.204C303.51 270.924 303.382 270.512 303.382 269.971V267.723H302.808C302.528 267.723 302.388 267.599 302.388 267.35C302.388 267.236 302.423 267.146 302.493 267.083C302.569 267.013 302.674 266.977 302.808 266.977H303.382V265.993C303.382 265.846 303.424 265.731 303.506 265.648C303.596 265.565 303.714 265.524 303.86 265.524C304.007 265.524 304.125 265.565 304.214 265.648C304.303 265.731 304.348 265.846 304.348 265.993V266.977H305.295C305.429 266.977 305.531 267.013 305.601 267.083C305.677 267.146 305.715 267.236 305.715 267.35C305.715 267.472 305.677 267.564 305.601 267.628C305.531 267.691 305.429 267.723 305.295 267.723H304.348V270.038C304.348 270.337 304.408 270.557 304.53 270.697C304.657 270.838 304.848 270.917 305.103 270.936L305.371 270.956ZM310.11 270.468C310.199 270.468 310.272 270.503 310.33 270.573C310.387 270.643 310.416 270.732 310.416 270.841C310.416 271.026 310.301 271.182 310.072 271.309C309.848 271.437 309.603 271.536 309.335 271.606C309.074 271.676 308.822 271.711 308.58 271.711C307.84 271.711 307.257 271.497 306.83 271.07C306.403 270.637 306.189 270.047 306.189 269.301C306.189 268.823 306.282 268.399 306.466 268.029C306.658 267.66 306.922 267.373 307.26 267.169C307.604 266.965 307.993 266.863 308.427 266.863C309.052 266.863 309.546 267.064 309.909 267.465C310.272 267.867 310.454 268.409 310.454 269.091C310.454 269.346 310.339 269.473 310.11 269.473H307.155C307.219 270.461 307.694 270.956 308.58 270.956C308.816 270.956 309.02 270.924 309.192 270.86C309.364 270.796 309.546 270.713 309.737 270.611C309.756 270.599 309.807 270.573 309.89 270.535C309.979 270.49 310.052 270.468 310.11 270.468ZM308.446 267.57C308.076 267.57 307.78 267.688 307.557 267.924C307.333 268.16 307.2 268.492 307.155 268.919H309.622C309.603 268.485 309.491 268.154 309.287 267.924C309.09 267.688 308.809 267.57 308.446 267.57ZM315.355 270.917C315.451 271.013 315.499 271.124 315.499 271.252C315.499 271.373 315.454 271.478 315.365 271.568C315.282 271.65 315.18 271.692 315.059 271.692C314.938 271.692 314.826 271.638 314.724 271.529L313.261 269.885L311.807 271.529C311.705 271.638 311.594 271.692 311.473 271.692C311.352 271.692 311.246 271.647 311.157 271.558C311.074 271.469 311.033 271.364 311.033 271.242C311.033 271.121 311.078 271.013 311.167 270.917L312.678 269.253L311.243 267.656C311.148 267.548 311.1 267.44 311.1 267.331C311.1 267.21 311.144 267.108 311.234 267.025C311.323 266.936 311.425 266.891 311.54 266.891C311.661 266.891 311.772 266.946 311.874 267.054L313.261 268.622L314.648 267.054C314.75 266.946 314.864 266.891 314.992 266.891C315.107 266.891 315.209 266.936 315.298 267.025C315.387 267.108 315.432 267.21 315.432 267.331C315.432 267.452 315.384 267.561 315.288 267.656L313.854 269.253L315.355 270.917ZM318.735 270.956C318.875 270.968 318.974 271.007 319.031 271.07C319.095 271.128 319.127 271.211 319.127 271.319C319.127 271.446 319.076 271.545 318.974 271.615C318.878 271.679 318.735 271.705 318.543 271.692L318.285 271.673C317.769 271.634 317.383 271.478 317.128 271.204C316.873 270.924 316.746 270.512 316.746 269.971V267.723H316.172C315.891 267.723 315.751 267.599 315.751 267.35C315.751 267.236 315.786 267.146 315.856 267.083C315.933 267.013 316.038 266.977 316.172 266.977H316.746V265.993C316.746 265.846 316.787 265.731 316.87 265.648C316.959 265.565 317.077 265.524 317.224 265.524C317.37 265.524 317.488 265.565 317.577 265.648C317.667 265.731 317.711 265.846 317.711 265.993V266.977H318.658C318.792 266.977 318.894 267.013 318.964 267.083C319.041 267.146 319.079 267.236 319.079 267.35C319.079 267.472 319.041 267.564 318.964 267.628C318.894 267.691 318.792 267.723 318.658 267.723H317.711V270.038C317.711 270.337 317.772 270.557 317.893 270.697C318.021 270.838 318.212 270.917 318.467 270.936L318.735 270.956Z" fill="#B5B5B5"/>
<rect x="264.959" y="254.352" width="148.15" height="27.6342" rx="5.75713" stroke="#D8D1D8" stroke-width="0.767618"/>
</g>
</g>
<defs>
<filter id="filter0_dd_1276_3734" x="93.4352" y="132.71" width="300.652" height="81.9594" filterUnits="userSpaceOnUse" color-interpolation-filters="sRGB">
<feFlood flood-opacity="0" result="BackgroundImageFix"/>
<feColorMatrix in="SourceAlpha" type="matrix" values="0 0 0 0 0 0 0 0 0 0 0 0 0 0 0 0 0 0 127 0" result="hardAlpha"/>
<feOffset dx="1.91253" dy="1.91253"/>
<feGaussianBlur stdDeviation="2.39067"/>
<feComposite in2="hardAlpha" operator="out"/>
<feColorMatrix type="matrix" values="0 0 0 0 0 0 0 0 0 0 0 0 0 0 0 0 0 0 0.05 0"/>
<feBlend mode="normal" in2="BackgroundImageFix" result="effect1_dropShadow_1276_3734"/>
<feColorMatrix in="SourceAlpha" type="matrix" values="0 0 0 0 0 0 0 0 0 0 0 0 0 0 0 0 0 0 127 0" result="hardAlpha"/>
<feOffset dx="-3.82507"/>
<feGaussianBlur stdDeviation="3.82507"/>
<feComposite in2="hardAlpha" operator="out"/>
<feColorMatrix type="matrix" values="0 0 0 0 0 0 0 0 0 0 0 0 0 0 0 0 0 0 0.05 0"/>
<feBlend mode="normal" in2="effect1_dropShadow_1276_3734" result="effect2_dropShadow_1276_3734"/>
<feBlend mode="normal" in="SourceGraphic" in2="effect2_dropShadow_1276_3734" result="shape"/>
</filter>
<filter id="filter1_dd_1276_3734" x="3.62368" y="49.8079" width="284.011" height="81.9074" filterUnits="userSpaceOnUse" color-interpolation-filters="sRGB">
<feFlood flood-opacity="0" result="BackgroundImageFix"/>
<feColorMatrix in="SourceAlpha" type="matrix" values="0 0 0 0 0 0 0 0 0 0 0 0 0 0 0 0 0 0 127 0" result="hardAlpha"/>
<feOffset dx="1.91253" dy="1.91253"/>
<feGaussianBlur stdDeviation="2.39067"/>
<feComposite in2="hardAlpha" operator="out"/>
<feColorMatrix type="matrix" values="0 0 0 0 0 0 0 0 0 0 0 0 0 0 0 0 0 0 0.05 0"/>
<feBlend mode="normal" in2="BackgroundImageFix" result="effect1_dropShadow_1276_3734"/>
<feColorMatrix in="SourceAlpha" type="matrix" values="0 0 0 0 0 0 0 0 0 0 0 0 0 0 0 0 0 0 127 0" result="hardAlpha"/>
<feOffset dx="-3.82507"/>
<feGaussianBlur stdDeviation="3.82507"/>
<feComposite in2="hardAlpha" operator="out"/>
<feColorMatrix type="matrix" values="0 0 0 0 0 0 0 0 0 0 0 0 0 0 0 0 0 0 0.05 0"/>
<feBlend mode="normal" in2="effect1_dropShadow_1276_3734" result="effect2_dropShadow_1276_3734"/>
<feBlend mode="normal" in="SourceGraphic" in2="effect2_dropShadow_1276_3734" result="shape"/>
</filter>
<filter id="filter2_dd_1276_3734" x="234.677" y="210.24" width="223.891" height="87.4563" filterUnits="userSpaceOnUse" color-interpolation-filters="sRGB">
<feFlood flood-opacity="0" result="BackgroundImageFix"/>
<feColorMatrix in="SourceAlpha" type="matrix" values="0 0 0 0 0 0 0 0 0 0 0 0 0 0 0 0 0 0 127 0" result="hardAlpha"/>
<feOffset dx="1.91253" dy="1.91253"/>
<feGaussianBlur stdDeviation="2.39067"/>
<feComposite in2="hardAlpha" operator="out"/>
<feColorMatrix type="matrix" values="0 0 0 0 0 0 0 0 0 0 0 0 0 0 0 0 0 0 0.05 0"/>
<feBlend mode="normal" in2="BackgroundImageFix" result="effect1_dropShadow_1276_3734"/>
<feColorMatrix in="SourceAlpha" type="matrix" values="0 0 0 0 0 0 0 0 0 0 0 0 0 0 0 0 0 0 127 0" result="hardAlpha"/>
<feOffset dx="-3.82507"/>
<feGaussianBlur stdDeviation="3.82507"/>
<feComposite in2="hardAlpha" operator="out"/>
<feColorMatrix type="matrix" values="0 0 0 0 0 0 0 0 0 0 0 0 0 0 0 0 0 0 0.05 0"/>
<feBlend mode="normal" in2="effect1_dropShadow_1276_3734" result="effect2_dropShadow_1276_3734"/>
<feBlend mode="normal" in="SourceGraphic" in2="effect2_dropShadow_1276_3734" result="shape"/>
</filter>
<clipPath id="clip0_1276_3734">
<rect x="104.91" y="140.361" width="282.483" height="66.6592" rx="7.65013" fill="white"/>
</clipPath>
<clipPath id="clip1_1276_3734">
<rect x="246.152" y="217.89" width="205.722" height="72.1561" rx="7.65013" fill="white"/>
</clipPath>
</defs>
</svg>
