<svg width="138" height="149" viewBox="0 0 138 149" fill="none" xmlns="http://www.w3.org/2000/svg">
<g filter="url(#filter0_ddi_254_9385)">
<g clip-path="url(#clip0_254_9385)">
<rect x="35.2461" y="4.88806" width="100.009" height="100.009" rx="31.25" transform="rotate(20.6355 35.2461 4.88806)" fill="white"/>
<g filter="url(#filter1_f_254_9385)">
<ellipse cx="47.5985" cy="11.1063" rx="47.5985" ry="11.1063" transform="matrix(0.634251 0.773127 0.773127 -0.634251 107.949 -3.77405)" fill="#3863C6"/>
</g>
<g filter="url(#filter2_f_254_9385)">
<ellipse cx="22.2126" cy="4.75985" rx="22.2126" ry="4.75985" transform="matrix(0.634251 0.773127 0.773127 -0.634251 128.959 11.8273)" fill="#ECEDEF"/>
</g>
<g filter="url(#filter3_f_254_9385)">
<ellipse cx="22.2126" cy="3.17323" rx="22.2126" ry="3.17323" transform="matrix(0.634251 0.773127 0.773127 -0.634251 131.41 9.81396)" fill="#ECEDEF"/>
</g>
<g filter="url(#filter4_f_254_9385)">
<path d="M42.1504 46.0999L106.554 124.606L163.7 49.1731L127.297 4.8002L42.1504 46.0999Z" fill="url(#paint0_linear_254_9385)" fill-opacity="0.25"/>
</g>
<path d="M85.0302 52.0173L86.5578 47.9619C86.9592 46.896 86.4083 45.6793 85.3424 45.2778C84.2766 44.8763 83.0598 45.4272 82.6583 46.4931L81.1895 50.3925L64.2921 44.0277L65.7609 40.1283C66.1623 39.0624 65.6114 37.8456 64.5455 37.4442C63.4797 37.0427 62.2629 37.5936 61.8614 38.6595L60.3339 42.7149C53.0701 40.7209 48.0881 43.6235 45.2279 49.6408C44.8919 50.3751 45.2808 51.234 46.0087 51.5082L89.9942 68.0763C90.7481 68.3602 91.6168 67.9453 91.813 67.1881C93.6333 60.7792 91.8044 55.311 85.0302 52.0173Z" fill="url(#paint1_linear_254_9385)"/>
<path d="M87.334 71.5251L45.7402 55.8579C44.3105 55.3193 42.7 56.0485 42.1614 57.4783L36.1295 73.4919C33.1919 81.2907 35.133 87.9587 44.2316 91.386L65.0285 99.2196C74.1271 102.647 79.985 98.9164 82.9226 91.1175L88.9544 75.1039C89.493 73.6741 88.7638 72.0637 87.334 71.5251ZM51.0883 82.7183C50.9192 82.7733 50.7402 82.8543 50.5809 82.8833C50.3857 82.9286 50.2004 82.9478 50.0248 82.941C49.8394 82.9603 49.6639 82.9535 49.4981 82.9208C49.3063 82.8782 49.1406 82.8455 48.9586 82.7769C48.6207 82.6496 48.3121 82.4443 48.0491 82.1968C47.7601 81.9396 47.5687 81.6597 47.3969 81.3278C47.115 80.6576 47.0836 79.874 47.3382 79.1981C47.5928 78.5222 48.1333 77.954 48.7873 77.6363C49.1354 77.5003 49.4639 77.4162 49.8508 77.4136C50.3971 77.3818 50.9366 77.5257 51.4173 77.8255C51.5635 77.9103 51.6999 78.021 51.8265 78.1578C51.9629 78.2685 52.0895 78.4052 52.2063 78.568C52.2971 78.7209 52.388 78.8739 52.4788 79.0268C52.7606 79.697 52.792 80.4806 52.5374 81.1565C52.2828 81.8324 51.7423 82.4006 51.0883 82.7183ZM54.5155 73.6196C53.8453 73.9015 53.0617 73.9329 52.3858 73.6783C51.7099 73.4237 51.1417 72.8831 50.8241 72.2291C50.5422 71.559 50.5108 70.7754 50.7654 70.0995C51.02 69.4236 51.5605 68.8554 52.2145 68.5377C53.2166 68.084 54.4485 68.2809 55.2537 69.0591C55.5427 69.3164 55.7601 69.6061 55.906 69.9282C56.1879 70.5983 56.2192 71.382 55.9646 72.0579C55.71 72.7338 55.1695 73.3019 54.5155 73.6196ZM60.1869 86.1455C59.5168 86.4273 58.7331 86.4587 58.0572 86.2041C57.3814 85.9495 56.8132 85.409 56.4955 84.755C56.2136 84.0848 56.1822 83.3012 56.4368 82.6253C56.6914 81.9494 57.232 81.3812 57.886 81.0636C59.2101 80.464 60.9779 81.1299 61.5774 82.454C61.8593 83.1242 61.8907 83.9078 61.6361 84.5837C61.3815 85.2596 60.8409 85.8278 60.1869 86.1455ZM63.6141 77.0468C63.445 77.1018 63.2759 77.1569 63.1067 77.2119C62.9116 77.2571 62.7262 77.2764 62.5506 77.2696C62.3653 77.2888 62.1897 77.2821 62.024 77.2493C61.8322 77.2068 61.6664 77.174 61.4845 77.1055C60.8086 76.8509 60.2404 76.3103 59.9227 75.6564C59.6408 74.9862 59.6095 74.2026 59.864 73.5267C60.1186 72.8508 60.6592 72.2826 61.3132 71.9649C61.6353 71.8191 61.9898 71.7448 62.3767 71.7421C63.4952 71.6885 64.5509 72.3533 65.0046 73.3554C65.2865 74.0256 65.3179 74.8092 65.0633 75.4851C64.8087 76.161 64.2681 76.7292 63.6141 77.0468ZM69.2856 89.5727C68.6154 89.8546 67.8318 89.8859 67.1559 89.6313C66.48 89.3767 65.9118 88.8362 65.5941 88.1822C65.3123 87.512 65.2809 86.7284 65.5355 86.0525C65.7901 85.3766 66.3306 84.8084 66.9846 84.4908C68.3088 83.8912 70.0765 84.5571 70.676 85.8812C70.9579 86.5514 70.9893 87.335 70.7347 88.0109C70.4801 88.6868 69.9396 89.255 69.2856 89.5727ZM72.7128 80.474C72.5436 80.5291 72.3745 80.5841 72.2053 80.6391C72.0102 80.6843 71.8248 80.7036 71.6493 80.6968C71.4639 80.716 71.2884 80.7093 71.1226 80.6765C70.9308 80.634 70.7391 80.5914 70.5831 80.5327C69.9072 80.2781 69.339 79.7375 69.0213 79.0836C68.7395 78.4134 68.7081 77.6298 68.9627 76.9539C69.2173 76.278 69.7578 75.7098 70.4118 75.3921C70.7599 75.2561 71.0884 75.172 71.4753 75.1693C72.0216 75.1376 72.5611 75.2815 73.0418 75.5813C73.188 75.666 73.3244 75.7768 73.451 75.9135C73.5874 76.0243 73.714 76.161 73.8308 76.3237C73.9216 76.4767 74.0124 76.6296 74.1033 76.7826C74.3851 77.4528 74.4165 78.2364 74.1619 78.9123C73.9073 79.5882 73.3668 80.1564 72.7128 80.474Z" fill="url(#paint2_linear_254_9385)"/>
</g>
<rect x="35.888" y="6.30557" width="97.8079" height="97.8079" rx="30.1497" transform="rotate(20.6355 35.888 6.30557)" stroke="#6A37E3" stroke-opacity="0.12" stroke-width="2.20066"/>
</g>
<defs>
<filter id="filter0_ddi_254_9385" x="-8.80263" y="0.486749" width="146.443" height="157.446" filterUnits="userSpaceOnUse" color-interpolation-filters="sRGB">
<feFlood flood-opacity="0" result="BackgroundImageFix"/>
<feColorMatrix in="SourceAlpha" type="matrix" values="0 0 0 0 0 0 0 0 0 0 0 0 0 0 0 0 0 0 127 0" result="hardAlpha"/>
<feMorphology radius="4.40131" operator="dilate" in="SourceAlpha" result="effect1_dropShadow_254_9385"/>
<feOffset/>
<feComposite in2="hardAlpha" operator="out"/>
<feColorMatrix type="matrix" values="0 0 0 0 0.745098 0 0 0 0 0.792157 0 0 0 0 0.917647 0 0 0 0.03 0"/>
<feBlend mode="normal" in2="BackgroundImageFix" result="effect1_dropShadow_254_9385"/>
<feColorMatrix in="SourceAlpha" type="matrix" values="0 0 0 0 0 0 0 0 0 0 0 0 0 0 0 0 0 0 127 0" result="hardAlpha"/>
<feMorphology radius="13.2039" operator="erode" in="SourceAlpha" result="effect2_dropShadow_254_9385"/>
<feOffset dy="15.4046"/>
<feGaussianBlur stdDeviation="11.0033"/>
<feComposite in2="hardAlpha" operator="out"/>
<feColorMatrix type="matrix" values="0 0 0 0 0.343791 0 0 0 0 0.101961 0 0 0 0 0.827451 0 0 0 0.6 0"/>
<feBlend mode="normal" in2="effect1_dropShadow_254_9385" result="effect2_dropShadow_254_9385"/>
<feBlend mode="normal" in="SourceGraphic" in2="effect2_dropShadow_254_9385" result="shape"/>
<feColorMatrix in="SourceAlpha" type="matrix" values="0 0 0 0 0 0 0 0 0 0 0 0 0 0 0 0 0 0 127 0" result="hardAlpha"/>
<feOffset dy="8.80262"/>
<feGaussianBlur stdDeviation="11.0033"/>
<feComposite in2="hardAlpha" operator="arithmetic" k2="-1" k3="1"/>
<feColorMatrix type="matrix" values="0 0 0 0 1 0 0 0 0 1 0 0 0 0 1 0 0 0 0.11 0"/>
<feBlend mode="normal" in2="shape" result="effect3_innerShadow_254_9385"/>
</filter>
<filter id="filter1_f_254_9385" x="104.327" y="-22.4966" width="84.7956" height="96.956" filterUnits="userSpaceOnUse" color-interpolation-filters="sRGB">
<feFlood flood-opacity="0" result="BackgroundImageFix"/>
<feBlend mode="normal" in="SourceGraphic" in2="BackgroundImageFix" result="shape"/>
<feGaussianBlur stdDeviation="5.50164" result="effect1_foregroundBlur_254_9385"/>
</filter>
<filter id="filter2_f_254_9385" x="125.56" y="1.94015" width="42.3328" height="48.0827" filterUnits="userSpaceOnUse" color-interpolation-filters="sRGB">
<feFlood flood-opacity="0" result="BackgroundImageFix"/>
<feBlend mode="normal" in="SourceGraphic" in2="BackgroundImageFix" result="shape"/>
<feGaussianBlur stdDeviation="3.30098" result="effect1_foregroundBlur_254_9385"/>
</filter>
<filter id="filter3_f_254_9385" x="127.046" y="1.08016" width="41.8094" height="47.7887" filterUnits="userSpaceOnUse" color-interpolation-filters="sRGB">
<feFlood flood-opacity="0" result="BackgroundImageFix"/>
<feBlend mode="normal" in="SourceGraphic" in2="BackgroundImageFix" result="shape"/>
<feGaussianBlur stdDeviation="3.30098" result="effect1_foregroundBlur_254_9385"/>
</filter>
<filter id="filter4_f_254_9385" x="37.7491" y="0.398859" width="130.351" height="128.608" filterUnits="userSpaceOnUse" color-interpolation-filters="sRGB">
<feFlood flood-opacity="0" result="BackgroundImageFix"/>
<feBlend mode="normal" in="SourceGraphic" in2="BackgroundImageFix" result="shape"/>
<feGaussianBlur stdDeviation="2.20066" result="effect1_foregroundBlur_254_9385"/>
</filter>
<linearGradient id="paint0_linear_254_9385" x1="74.3524" y1="85.3528" x2="132.259" y2="35.8602" gradientUnits="userSpaceOnUse">
<stop stop-color="#6434D0" stop-opacity="0.25"/>
<stop offset="1" stop-color="#F9F9F9"/>
</linearGradient>
<linearGradient id="paint1_linear_254_9385" x1="74.9458" y1="41.3616" x2="68.0032" y2="59.7929" gradientUnits="userSpaceOnUse">
<stop stop-color="#5B2FBD"/>
<stop offset="1" stop-color="#5B2FBD" stop-opacity="0.8"/>
</linearGradient>
<linearGradient id="paint2_linear_254_9385" x1="66.5371" y1="63.6915" x2="54.63" y2="95.3028" gradientUnits="userSpaceOnUse">
<stop stop-color="#5B2FBD"/>
<stop offset="1" stop-color="#5B2FBD" stop-opacity="0.8"/>
</linearGradient>
<clipPath id="clip0_254_9385">
<rect x="35.2461" y="4.88806" width="100.009" height="100.009" rx="31.25" transform="rotate(20.6355 35.2461 4.88806)" fill="white"/>
</clipPath>
</defs>
</svg>
