<svg width="69" height="70" viewBox="0 0 69 70" fill="none" xmlns="http://www.w3.org/2000/svg">
<rect y="0.569824" width="69" height="69" rx="6.6208" fill="url(#paint0_linear_445_2047)"/>
<path d="M14.812 25.9292C14.812 24.2509 15.4787 22.6413 16.6655 21.4545C17.8522 20.2678 19.4618 19.6011 21.1401 19.6011H47.8589C49.5372 19.6011 51.1468 20.2678 52.3335 21.4545C53.5203 22.6413 54.187 24.2509 54.187 25.9292V44.2105C54.187 45.8888 53.5203 47.4984 52.3335 48.6851C51.1468 49.8719 49.5372 50.5386 47.8589 50.5386H21.1401C19.4618 50.5386 17.8522 49.8719 16.6655 48.6851C15.4787 47.4984 14.812 45.8888 14.812 44.2105V25.9292ZM21.1401 22.4136C20.2077 22.4136 19.3135 22.784 18.6542 23.4433C17.9949 24.1026 17.6245 24.9968 17.6245 25.9292V28.0386H51.3745V25.9292C51.3745 24.9968 51.0041 24.1026 50.3448 23.4433C49.6855 22.784 48.7913 22.4136 47.8589 22.4136H21.1401ZM17.6245 44.2105C17.6245 45.1429 17.9949 46.0371 18.6542 46.6964C19.3135 47.3557 20.2077 47.7261 21.1401 47.7261H47.8589C48.7913 47.7261 49.6855 47.3557 50.3448 46.6964C51.0041 46.0371 51.3745 45.1429 51.3745 44.2105V30.8511H17.6245V44.2105ZM41.5308 39.2886H45.7495C46.1225 39.2886 46.4802 39.4367 46.7439 39.7005C47.0076 39.9642 47.1558 40.3219 47.1558 40.6948C47.1558 41.0678 47.0076 41.4255 46.7439 41.6892C46.4802 41.9529 46.1225 42.1011 45.7495 42.1011H41.5308C41.1578 42.1011 40.8001 41.9529 40.5364 41.6892C40.2727 41.4255 40.1245 41.0678 40.1245 40.6948C40.1245 40.3219 40.2727 39.9642 40.5364 39.7005C40.8001 39.4367 41.1578 39.2886 41.5308 39.2886Z" fill="white"/>
<defs>
<linearGradient id="paint0_linear_445_2047" x1="34.5" y1="0.569824" x2="34.5" y2="69.5698" gradientUnits="userSpaceOnUse">
<stop stop-color="#E87941"/>
<stop offset="1" stop-color="#DE3282"/>
</linearGradient>
</defs>
</svg>
