<svg width="28" height="28" viewBox="0 0 28 28" fill="none" xmlns="http://www.w3.org/2000/svg">
<path d="M14.0007 9.91406C20.444 9.91406 25.6673 8.34706 25.6673 6.41406C25.6673 4.48107 20.444 2.91406 14.0007 2.91406C7.55733 2.91406 2.33398 4.48107 2.33398 6.41406C2.33398 8.34706 7.55733 9.91406 14.0007 9.91406Z" stroke="#6434D0" stroke-width="2.33333" stroke-linecap="round" stroke-linejoin="round"/>
<path d="M6.28315 9.03906C3.86232 9.68073 2.33398 10.6187 2.33398 11.6641C2.33398 13.5972 7.55715 15.1641 14.0007 15.1641C20.4442 15.1641 25.6673 13.5972 25.6673 11.6641C25.6673 10.6187 24.1396 9.68073 21.7182 9.03906C19.6613 9.58331 16.9593 9.91406 14.0007 9.91406C11.042 9.91406 8.33998 9.58331 6.28315 9.03906Z" stroke="#6434D0" stroke-width="2.33333" stroke-linecap="round" stroke-linejoin="round"/>
<path d="M6.28315 14.2891C3.86232 14.9307 2.33398 15.8687 2.33398 16.9141C2.33398 18.8472 7.55715 20.4141 14.0007 20.4141C20.4442 20.4141 25.6673 18.8472 25.6673 16.9141C25.6673 15.8687 24.1396 14.9307 21.7182 14.2891C19.6613 14.8333 16.9593 15.1641 14.0007 15.1641C11.042 15.1641 8.33998 14.8333 6.28315 14.2891Z" stroke="#6434D0" stroke-width="2.33333" stroke-linecap="round" stroke-linejoin="round"/>
<path d="M6.28315 19.5391C3.86232 20.1807 2.33398 21.1187 2.33398 22.1641C2.33398 24.0972 7.55715 25.6641 14.0007 25.6641C20.4442 25.6641 25.6673 24.0972 25.6673 22.1641C25.6673 21.1187 24.1396 20.1807 21.7182 19.5391C19.6613 20.0839 16.9593 20.4141 14.0007 20.4141C11.042 20.4141 8.33998 20.0839 6.28315 19.5391Z" stroke="#6434D0" stroke-width="2.33333" stroke-linecap="round" stroke-linejoin="round"/>
</svg>
