<svg width="28" height="28" viewBox="0 0 28 28" fill="none" xmlns="http://www.w3.org/2000/svg">
<path d="M16.2773 6.66315C15.9157 6.29067 15.4836 5.99382 15.0061 5.78985C14.5287 5.58589 14.0155 5.47888 13.4963 5.47506C12.9771 5.47123 12.4624 5.57067 11.982 5.76758C11.5016 5.96449 11.0652 6.25495 10.6981 6.62207C10.331 6.98918 10.0405 7.42562 9.84359 7.906C9.64668 8.38639 9.54725 8.90113 9.55107 9.42029C9.55489 9.93945 9.6619 10.4527 9.86586 10.9301C10.0698 11.4075 10.3667 11.8397 10.7392 12.2013L11.6643 13.1265H15.3125C15.7803 13.1264 16.2429 13.2242 16.6706 13.4135C17.0983 13.6029 17.4817 13.8796 17.7962 14.2259C18.1106 14.5722 18.3492 14.9804 18.4965 15.4244C18.6438 15.8684 18.6966 16.3382 18.6515 16.8038L19.9628 16.5017L24.2632 12.2025C24.9947 11.4674 25.4048 10.4723 25.4036 9.43526C25.4025 8.39824 24.99 7.40403 24.2568 6.67067C23.5236 5.93731 22.5295 5.52467 21.4925 5.52326C20.4554 5.52185 19.4602 5.93179 18.725 6.66315L17.5 7.88582L16.2785 6.66315H16.2773ZM23.9832 15.7818L24.1267 15.8052C24.6004 15.8974 25.0447 16.1032 25.4215 16.4049C25.7982 16.7065 26.0962 17.0951 26.2898 17.5372C26.4834 17.9793 26.567 18.4617 26.5332 18.9432C26.4995 19.4246 26.3494 19.8907 26.096 20.3015C25.8043 20.7728 25.3878 21.1532 24.892 21.4005L24.8605 21.4168L20.4972 23.2777L13.2685 25.0848H0V16.6265H4.767L7.161 14.2325C7.57185 13.823 8.07116 13.5133 8.6205 13.3272C7.65811 12.117 7.17836 10.5931 7.27393 9.04994C7.36949 7.50673 8.0336 6.05369 9.13794 4.97154C10.2423 3.88939 11.7085 3.25492 13.2533 3.1907C14.7982 3.12648 16.312 3.63706 17.5023 4.62382C18.739 3.59557 20.3245 3.08366 21.929 3.19458C23.5335 3.3055 25.0335 4.0307 26.117 5.21934C27.2004 6.40798 27.7839 7.96855 27.7461 9.57644C27.7083 11.1843 27.0521 12.7157 25.914 13.8522L23.9832 15.7818ZM4.08333 18.9598H2.33333V22.7515H4.08333V18.9598ZM6.41667 22.7515H12.9815L19.7528 21.0598L23.8723 19.3005C24.0127 19.2246 24.1201 19.0996 24.174 18.9495C24.2278 18.7993 24.2243 18.6345 24.1642 18.4867C24.104 18.339 23.9915 18.2186 23.848 18.1487C23.7046 18.0789 23.5404 18.0644 23.387 18.1082L23.3637 18.114L15.883 19.8348H11.6667V17.5015H15.3125C15.5832 17.5015 15.8429 17.3939 16.0343 17.2025C16.2258 17.011 16.3333 16.7514 16.3333 16.4807C16.3333 16.2099 16.2258 15.9503 16.0343 15.7588C15.8429 15.5674 15.5832 15.4598 15.3125 15.4598H9.84083C9.64928 15.4593 9.4595 15.4966 9.28234 15.5694C9.10518 15.6423 8.94411 15.7494 8.80833 15.8845L6.41667 18.2762V22.7515Z" fill="#6434D0"/>
</svg>
