<svg width="29" height="28" viewBox="0 0 29 28" fill="none" xmlns="http://www.w3.org/2000/svg">
<g clip-path="url(#clip0_6923_11775)">
<path d="M23.084 14.875C23.6855 14.875 24.2507 14.9889 24.7793 15.2168C25.3079 15.4447 25.7728 15.7546 26.1738 16.1465C26.5749 16.5384 26.8893 17.0033 27.1172 17.541C27.3451 18.0788 27.459 18.6484 27.459 19.25C27.459 19.724 27.3861 20.1842 27.2402 20.6309C27.0944 21.0775 26.8757 21.4922 26.584 21.875V27.6719L23.084 25.9219L19.584 27.6719V21.875C19.3014 21.4922 19.0872 21.0775 18.9414 20.6309C18.7956 20.1842 18.7181 19.724 18.709 19.25C18.709 18.6484 18.8229 18.0833 19.0508 17.5547C19.2786 17.026 19.5885 16.5612 19.9805 16.1602C20.3724 15.7591 20.8372 15.4447 21.375 15.2168C21.9128 14.9889 22.4824 14.875 23.084 14.875ZM23.084 16.625C22.7194 16.625 22.3776 16.6934 22.0586 16.8301C21.7396 16.9668 21.4616 17.1536 21.2246 17.3906C20.9876 17.6276 20.8008 17.9056 20.6641 18.2246C20.5273 18.5436 20.459 18.8854 20.459 19.25C20.459 19.6146 20.5273 19.9564 20.6641 20.2754C20.8008 20.5944 20.9876 20.8724 21.2246 21.1094C21.4616 21.3464 21.7396 21.5332 22.0586 21.6699C22.3776 21.8066 22.7194 21.875 23.084 21.875C23.4486 21.875 23.7904 21.8066 24.1094 21.6699C24.4284 21.5332 24.7064 21.3464 24.9434 21.1094C25.1803 20.8724 25.3672 20.5944 25.5039 20.2754C25.6406 19.9564 25.709 19.6146 25.709 19.25C25.709 18.8854 25.6406 18.5436 25.5039 18.2246C25.3672 17.9056 25.1803 17.6276 24.9434 17.3906C24.7064 17.1536 24.4284 16.9668 24.1094 16.8301C23.7904 16.6934 23.4486 16.625 23.084 16.625ZM24.834 24.8281V23.2559C24.2871 23.502 23.7038 23.625 23.084 23.625C22.4642 23.625 21.8809 23.502 21.334 23.2559V24.8281L23.084 23.9531L24.834 24.8281ZM23.084 7C22.6009 7 22.1497 7.09115 21.7305 7.27344C21.3112 7.45573 20.9375 7.70638 20.6094 8.02539C20.2812 8.3444 20.0306 8.71354 19.8574 9.13281C19.6842 9.55208 19.5931 10.0078 19.584 10.5C19.584 11.3385 19.3971 12.127 19.0234 12.8652C18.6497 13.6035 18.1211 14.2279 17.4375 14.7383C17.6107 14.8203 17.7747 14.9115 17.9297 15.0117C18.0846 15.112 18.2441 15.2168 18.4082 15.3262L17.3828 16.748C16.9362 16.429 16.4531 16.1829 15.9336 16.0098C15.4141 15.8366 14.8809 15.75 14.334 15.75C13.6048 15.75 12.9258 15.8867 12.2969 16.1602C11.668 16.4336 11.112 16.8073 10.6289 17.2812C10.1458 17.7552 9.76758 18.3158 9.49414 18.9629C9.2207 19.61 9.08398 20.2891 9.08398 21H7.33398C7.33398 20.3346 7.42513 19.6921 7.60742 19.0723C7.78971 18.4525 8.04948 17.8691 8.38672 17.3223C8.72396 16.7754 9.12956 16.2832 9.60352 15.8457C10.0775 15.4082 10.6152 15.0345 11.2168 14.7246C10.5423 14.2233 10.0182 13.6035 9.64453 12.8652C9.27083 12.127 9.08398 11.3385 9.08398 10.5C9.08398 10.0169 8.99284 9.56575 8.81055 9.14648C8.62825 8.72721 8.3776 8.35352 8.05859 8.02539C7.73958 7.69727 7.37044 7.44661 6.95117 7.27344C6.5319 7.10026 6.07617 7.00911 5.58398 7C5.10091 7 4.64974 7.09115 4.23047 7.27344C3.8112 7.45573 3.4375 7.70638 3.10938 8.02539C2.78125 8.3444 2.5306 8.71354 2.35742 9.13281C2.18424 9.55208 2.0931 10.0078 2.08398 10.5H0.333984C0.333984 10.026 0.397786 9.56575 0.525391 9.11914C0.652995 8.67253 0.830729 8.2487 1.05859 7.84766C1.28646 7.44661 1.56901 7.08203 1.90625 6.75391C2.24349 6.42578 2.62174 6.14323 3.04102 5.90625C2.74023 5.58724 2.50781 5.2181 2.34375 4.79883C2.17969 4.37956 2.0931 3.94661 2.08398 3.5C2.08398 3.01693 2.17513 2.56576 2.35742 2.14648C2.53971 1.72721 2.79036 1.35352 3.10938 1.02539C3.42839 0.697266 3.79753 0.446615 4.2168 0.273438C4.63607 0.10026 5.0918 0.00911458 5.58398 0C6.06706 0 6.51823 0.0911458 6.9375 0.273438C7.35677 0.455729 7.73047 0.70638 8.05859 1.02539C8.38672 1.3444 8.63737 1.71354 8.81055 2.13281C8.98372 2.55208 9.07487 3.00781 9.08398 3.5C9.08398 3.94661 9.00195 4.37956 8.83789 4.79883C8.67383 5.2181 8.43685 5.58724 8.12695 5.90625C8.87435 6.31641 9.48503 6.88151 9.95898 7.60156C10.2051 7.23698 10.4876 6.90885 10.8066 6.61719C11.1257 6.32552 11.472 6.07943 11.8457 5.87891C12.2194 5.67839 12.6159 5.52344 13.0352 5.41406C13.4544 5.30469 13.8874 5.25 14.334 5.25C14.7715 5.25 15.1999 5.30469 15.6191 5.41406C16.0384 5.52344 16.4349 5.67839 16.8086 5.87891C17.1823 6.07943 17.5332 6.32552 17.8613 6.61719C18.1895 6.90885 18.472 7.23698 18.709 7.60156C19.1829 6.88151 19.7936 6.31641 20.541 5.90625C20.2402 5.58724 20.0078 5.2181 19.8438 4.79883C19.6797 4.37956 19.5931 3.94661 19.584 3.5C19.584 3.01693 19.6751 2.56576 19.8574 2.14648C20.0397 1.72721 20.2904 1.35352 20.6094 1.02539C20.9284 0.697266 21.2975 0.446615 21.7168 0.273438C22.1361 0.10026 22.5918 0.00911458 23.084 0C23.5671 0 24.0182 0.0911458 24.4375 0.273438C24.8568 0.455729 25.2305 0.70638 25.5586 1.02539C25.8867 1.3444 26.1374 1.71354 26.3105 2.13281C26.4837 2.55208 26.5749 3.00781 26.584 3.5C26.584 3.94661 26.502 4.37956 26.3379 4.79883C26.1738 5.2181 25.9368 5.58724 25.627 5.90625C26.0462 6.14323 26.4199 6.42578 26.748 6.75391C27.0762 7.08203 27.3587 7.44206 27.5957 7.83398C27.8327 8.22591 28.015 8.64974 28.1426 9.10547C28.2702 9.5612 28.334 10.026 28.334 10.5H26.584C26.584 10.0169 26.4928 9.56575 26.3105 9.14648C26.1283 8.72721 25.8776 8.35352 25.5586 8.02539C25.2396 7.69727 24.8704 7.44661 24.4512 7.27344C24.0319 7.10026 23.5762 7.00911 23.084 7ZM21.334 3.5C21.334 3.74609 21.3796 3.97396 21.4707 4.18359C21.5618 4.39323 21.6849 4.57552 21.8398 4.73047C21.9948 4.88542 22.1816 5.01302 22.4004 5.11328C22.6191 5.21354 22.847 5.25911 23.084 5.25C23.3301 5.25 23.5579 5.20443 23.7676 5.11328C23.9772 5.02214 24.1595 4.89909 24.3145 4.74414C24.4694 4.58919 24.597 4.40234 24.6973 4.18359C24.7975 3.96484 24.8431 3.73698 24.834 3.5C24.834 3.25391 24.7884 3.02604 24.6973 2.81641C24.6061 2.60677 24.4831 2.42448 24.3281 2.26953C24.1732 2.11458 23.9863 1.98698 23.7676 1.88672C23.5488 1.78646 23.321 1.74089 23.084 1.75C22.8379 1.75 22.61 1.79557 22.4004 1.88672C22.1908 1.97786 22.0085 2.10091 21.8535 2.25586C21.6986 2.41081 21.571 2.59766 21.4707 2.81641C21.3704 3.03516 21.3249 3.26302 21.334 3.5ZM3.83398 3.5C3.83398 3.74609 3.87956 3.97396 3.9707 4.18359C4.06185 4.39323 4.1849 4.57552 4.33984 4.73047C4.49479 4.88542 4.68164 5.01302 4.90039 5.11328C5.11914 5.21354 5.34701 5.25911 5.58398 5.25C5.83008 5.25 6.05794 5.20443 6.26758 5.11328C6.47721 5.02214 6.65951 4.89909 6.81445 4.74414C6.9694 4.58919 7.09701 4.40234 7.19727 4.18359C7.29753 3.96484 7.3431 3.73698 7.33398 3.5C7.33398 3.25391 7.28841 3.02604 7.19727 2.81641C7.10612 2.60677 6.98307 2.42448 6.82812 2.26953C6.67318 2.11458 6.48633 1.98698 6.26758 1.88672C6.04883 1.78646 5.82096 1.74089 5.58398 1.75C5.33789 1.75 5.11003 1.79557 4.90039 1.88672C4.69076 1.97786 4.50846 2.10091 4.35352 2.25586C4.19857 2.41081 4.07096 2.59766 3.9707 2.81641C3.87044 3.03516 3.82487 3.26302 3.83398 3.5ZM10.834 10.5C10.834 10.9831 10.9251 11.4342 11.1074 11.8535C11.2897 12.2728 11.5404 12.6465 11.8594 12.9746C12.1784 13.3027 12.5475 13.5534 12.9668 13.7266C13.3861 13.8997 13.8418 13.9909 14.334 14C14.8171 14 15.2682 13.9089 15.6875 13.7266C16.1068 13.5443 16.4805 13.2936 16.8086 12.9746C17.1367 12.6556 17.3874 12.2865 17.5605 11.8672C17.7337 11.4479 17.8249 10.9922 17.834 10.5C17.834 10.0169 17.7428 9.56575 17.5605 9.14648C17.3783 8.72721 17.1276 8.35352 16.8086 8.02539C16.4896 7.69727 16.1204 7.44661 15.7012 7.27344C15.2819 7.10026 14.8262 7.00911 14.334 7C13.8509 7 13.3997 7.09115 12.9805 7.27344C12.5612 7.45573 12.1875 7.70638 11.8594 8.02539C11.5312 8.3444 11.2806 8.71354 11.1074 9.13281C10.9342 9.55208 10.8431 10.0078 10.834 10.5Z" fill="#6434D0"/>
</g>
<defs>
<clipPath id="clip0_6923_11775">
<rect width="28" height="28" fill="white" transform="translate(0.333984)"/>
</clipPath>
</defs>
</svg>
