<svg width="20" height="20" viewBox="0 0 20 20" fill="none" xmlns="http://www.w3.org/2000/svg">
<g id="users-plus" clip-path="url(#clip0_1798_38423)">
<path id="Icon" d="M15.8332 17.5V12.5M13.3332 15H18.3332M9.9999 12.5H6.66657C5.11343 12.5 4.33686 12.5 3.72429 12.7537C2.90753 13.092 2.25861 13.741 1.9203 14.5577C1.66656 15.1703 1.66656 15.9469 1.66656 17.5M12.9166 2.7423C14.1382 3.23679 14.9999 4.43443 14.9999 5.83333C14.9999 7.23224 14.1382 8.42988 12.9166 8.92437M11.2499 5.83333C11.2499 7.67428 9.75751 9.16667 7.91657 9.16667C6.07562 9.16667 4.58323 7.67428 4.58323 5.83333C4.58323 3.99238 6.07562 2.5 7.91657 2.5C9.75751 2.5 11.2499 3.99238 11.2499 5.83333Z" stroke="#6434D0" stroke-width="1.66667" stroke-linecap="round" stroke-linejoin="round"/>
</g>
<defs>
<clipPath id="clip0_1798_38423">
<rect width="20" height="20" fill="white"/>
</clipPath>
</defs>
</svg>
