<svg width="70" height="70" viewBox="0 0 70 70" fill="none" xmlns="http://www.w3.org/2000/svg">
<rect width="70" height="70" rx="6.13698" fill="url(#paint0_linear_318_3480)"/>
<path d="M27.5 29.3711H42.5M27.5 36.8711H38.75M36.875 46.2461L27.5 51.8711V46.2461H23.75C22.2582 46.2461 20.8274 45.6535 19.7725 44.5986C18.7176 43.5437 18.125 42.1129 18.125 40.6211V25.6211C18.125 24.1293 18.7176 22.6985 19.7725 21.6436C20.8274 20.5887 22.2582 19.9961 23.75 19.9961H46.25C47.7418 19.9961 49.1726 20.5887 50.2275 21.6436C51.2824 22.6985 51.875 24.1293 51.875 25.6211V35.9336M48.125 42.4961L44.375 48.1211H51.875L48.125 53.7461" stroke="white" stroke-width="3" stroke-linecap="round" stroke-linejoin="round"/>
<defs>
<linearGradient id="paint0_linear_318_3480" x1="35" y1="0" x2="35" y2="70" gradientUnits="userSpaceOnUse">
<stop stop-color="#D579CC"/>
<stop offset="1" stop-color="#AC32A0"/>
</linearGradient>
</defs>
</svg>
