<svg width="69" height="69" viewBox="0 0 69 69" fill="none" xmlns="http://www.w3.org/2000/svg">
<rect width="69" height="69" rx="6.4" fill="url(#paint0_linear_318_3487)"/>
<path d="M31.8906 39.7263C31.198 39.7263 30.5337 39.4511 30.0439 38.9614C29.5542 38.4716 29.279 37.8073 29.279 37.1147V21.6618C25.4137 22.3271 21.9382 24.4173 19.5386 27.5199C17.1391 30.6224 15.9899 34.5118 16.3178 38.4203C16.6458 42.3287 18.4271 45.9722 21.3102 48.6315C24.1932 51.2907 27.9685 52.7725 31.8906 52.7843C35.5938 52.7838 39.1772 51.4723 42.0058 49.0821C44.8343 46.6919 46.7253 43.3775 47.3435 39.7263H31.8906ZM29.2869 19.0162C30.7154 18.8125 31.8906 20.0034 31.8906 21.445V37.1147H47.5603C49.0019 37.1147 50.1928 38.2899 49.9891 39.7184C49.3199 44.2854 46.9484 48.4304 43.3505 51.3216C39.7525 54.2129 35.1943 55.6367 30.5903 55.3071C25.9864 54.9776 21.6774 52.9193 18.5278 49.545C15.3783 46.1708 13.6213 41.7304 13.6094 37.1147C13.6096 32.717 15.1946 28.4667 18.074 25.1427C20.9534 21.8187 24.9342 19.6437 29.2869 19.0162ZM37.1138 31.8915V16.2218C41.2697 16.2218 45.2553 17.8727 48.1939 20.8114C51.1326 23.75 52.7835 27.7356 52.7835 31.8915H37.1138ZM52.9454 34.5031C54.246 34.5031 55.3664 33.5472 55.3925 32.2466L55.3951 31.8915C55.3952 29.4608 54.9106 27.0545 53.9696 24.8133C53.0286 22.5722 51.6501 20.5412 49.9147 18.8392C48.1794 17.1371 46.1221 15.7983 43.8631 14.9009C41.6041 14.0035 39.1889 13.5656 36.7587 13.6128C35.4581 13.6389 34.5022 14.7619 34.5022 16.0599V31.8915C34.5022 32.5841 34.7774 33.2484 35.2672 33.7381C35.7569 34.2279 36.4212 34.5031 37.1138 34.5031H52.9454Z" fill="white"/>
<defs>
<linearGradient id="paint0_linear_318_3487" x1="34.5" y1="0" x2="34.5" y2="69" gradientUnits="userSpaceOnUse">
<stop stop-color="#09A6FE"/>
<stop offset="1" stop-color="#0054F7"/>
</linearGradient>
</defs>
</svg>
