<svg width="70" height="70" viewBox="0 0 70 70" fill="none" xmlns="http://www.w3.org/2000/svg">
<rect width="70" height="70" rx="6.4" fill="url(#paint0_linear_318_3473)"/>
<path opacity="0.2" d="M49.0625 27.9688H39.2188V18.125L49.0625 27.9688Z" fill="white"/>
<path d="M35 39.2188C35 39.5917 34.8518 39.9494 34.5881 40.2131C34.3244 40.4768 33.9667 40.625 33.5938 40.625H32.1875V49.0625C32.1875 49.4355 32.0393 49.7931 31.7756 50.0569C31.5119 50.3206 31.1542 50.4688 30.7812 50.4688C30.4083 50.4688 30.0506 50.3206 29.7869 50.0569C29.5232 49.7931 29.375 49.4355 29.375 49.0625V40.625H27.9688C27.5958 40.625 27.2381 40.4768 26.9744 40.2131C26.7107 39.9494 26.5625 39.5917 26.5625 39.2188C26.5625 38.8458 26.7107 38.4881 26.9744 38.2244C27.2381 37.9607 27.5958 37.8125 27.9688 37.8125H33.5938C33.9667 37.8125 34.3244 37.9607 34.5881 38.2244C34.8518 38.4881 35 38.8458 35 39.2188ZM23.75 37.8125C23.377 37.8125 23.0194 37.9607 22.7556 38.2244C22.4919 38.4881 22.3438 38.8458 22.3438 39.2188V42.7344H19.5312V39.2188C19.5312 38.8458 19.3831 38.4881 19.1194 38.2244C18.8556 37.9607 18.498 37.8125 18.125 37.8125C17.752 37.8125 17.3944 37.9607 17.1306 38.2244C16.8669 38.4881 16.7188 38.8458 16.7188 39.2188V49.0625C16.7188 49.4355 16.8669 49.7931 17.1306 50.0569C17.3944 50.3206 17.752 50.4688 18.125 50.4688C18.498 50.4688 18.8556 50.3206 19.1194 50.0569C19.3831 49.7931 19.5312 49.4355 19.5312 49.0625V45.5469H22.3438V49.0625C22.3438 49.4355 22.4919 49.7931 22.7556 50.0569C23.0194 50.3206 23.377 50.4688 23.75 50.4688C24.123 50.4688 24.4806 50.3206 24.7444 50.0569C25.0081 49.7931 25.1562 49.4355 25.1562 49.0625V39.2188C25.1562 38.8458 25.0081 38.4881 24.7444 38.2244C24.4806 37.9607 24.123 37.8125 23.75 37.8125ZM54.6875 47.6562H52.5781V39.2188C52.5781 38.8458 52.43 38.4881 52.1662 38.2244C51.9025 37.9607 51.5448 37.8125 51.1719 37.8125C50.7989 37.8125 50.4412 37.9607 50.1775 38.2244C49.9138 38.4881 49.7656 38.8458 49.7656 39.2188V49.0625C49.7656 49.4355 49.9138 49.7931 50.1775 50.0569C50.4412 50.3206 50.7989 50.4688 51.1719 50.4688H54.6875C55.0605 50.4688 55.4181 50.3206 55.6819 50.0569C55.9456 49.7931 56.0938 49.4355 56.0938 49.0625C56.0938 48.6895 55.9456 48.3319 55.6819 48.0681C55.4181 47.8044 55.0605 47.6562 54.6875 47.6562ZM46.6262 37.8635C46.3298 37.7811 46.0145 37.7983 45.7288 37.9122C45.443 38.0262 45.2025 38.2308 45.0441 38.4945L42.0312 43.5166L39.0184 38.4945C38.8601 38.2308 38.6197 38.0262 38.3341 37.9121C38.0484 37.798 37.7332 37.7807 37.4368 37.8629C37.1404 37.9451 36.8791 38.1222 36.6929 38.3671C36.5068 38.612 36.4061 38.9111 36.4062 39.2188V49.0625C36.4062 49.4355 36.5544 49.7931 36.8181 50.0569C37.0819 50.3206 37.4395 50.4688 37.8125 50.4688C38.1855 50.4688 38.5431 50.3206 38.8069 50.0569C39.0706 49.7931 39.2188 49.4355 39.2188 49.0625V44.2953L40.8254 46.9742C40.9503 47.1825 41.1271 47.3548 41.3384 47.4744C41.5497 47.5941 41.7884 47.657 42.0312 47.657C42.2741 47.657 42.5128 47.5941 42.7241 47.4744C42.9354 47.3548 43.1122 47.1825 43.2371 46.9742L44.8438 44.2953V49.0625C44.8438 49.4355 44.9919 49.7931 45.2556 50.0569C45.5194 50.3206 45.877 50.4688 46.25 50.4688C46.623 50.4688 46.9806 50.3206 47.2444 50.0569C47.5081 49.7931 47.6562 49.4355 47.6562 49.0625V39.2188C47.6563 38.9113 47.5556 38.6123 47.3696 38.3675C47.1835 38.1228 46.9224 37.9457 46.6262 37.8635ZM49.0625 33.5938C48.6895 33.5938 48.3319 33.4456 48.0681 33.1819C47.8044 32.9181 47.6562 32.5605 47.6562 32.1875V29.375H39.2188C38.8458 29.375 38.4881 29.2268 38.2244 28.9631C37.9607 28.6994 37.8125 28.3417 37.8125 27.9688V19.5313H22.3438V32.1875C22.3438 32.5605 22.1956 32.9181 21.9319 33.1819C21.6681 33.4456 21.3105 33.5938 20.9375 33.5938C20.5645 33.5938 20.2069 33.4456 19.9431 33.1819C19.6794 32.9181 19.5312 32.5605 19.5312 32.1875V19.5313C19.5312 18.7853 19.8276 18.07 20.355 17.5425C20.8825 17.0151 21.5978 16.7188 22.3438 16.7188H39.2188C39.4035 16.7186 39.5864 16.7549 39.7571 16.8254C39.9278 16.896 40.083 16.9995 40.2137 17.1301L50.0574 26.9738C50.188 27.1045 50.2915 27.2597 50.3621 27.4304C50.4326 27.6011 50.4689 27.784 50.4688 27.9688V32.1875C50.4688 32.5605 50.3206 32.9181 50.0569 33.1819C49.7931 33.4456 49.4355 33.5938 49.0625 33.5938ZM45.6682 26.5625L40.625 21.5193V26.5625H45.6682Z" fill="white"/>
<defs>
<linearGradient id="paint0_linear_318_3473" x1="35" y1="0" x2="35" y2="70" gradientUnits="userSpaceOnUse">
<stop stop-color="#FEE609"/>
<stop offset="1" stop-color="#F7A300"/>
</linearGradient>
</defs>
</svg>
