<svg width="70" height="70" viewBox="0 0 70 70" fill="none" xmlns="http://www.w3.org/2000/svg">
<rect width="70" height="70" rx="6.6208" fill="url(#paint0_linear_318_3446)"/>
<path d="M34.9994 26.5629C33.3306 26.5629 31.6993 27.0577 30.3118 27.9849C28.9242 28.912 27.8428 30.2297 27.2042 31.7715C26.5656 33.3132 26.3985 35.0097 26.724 36.6465C27.0496 38.2832 27.8532 39.7866 29.0332 40.9666C30.2132 42.1466 31.7166 42.9502 33.3533 43.2758C34.9901 43.6013 36.6866 43.4342 38.2283 42.7956C39.7701 42.157 41.0878 41.0756 42.0149 39.688C42.9421 38.3005 43.4369 36.6692 43.4369 35.0004C43.4346 32.7633 42.5449 30.6186 40.9631 29.0367C39.3812 27.4549 37.2365 26.5652 34.9994 26.5629ZM34.9994 40.6254C33.8869 40.6254 32.7994 40.2955 31.8743 39.6774C30.9493 39.0593 30.2283 38.1808 29.8026 37.153C29.3768 36.1251 29.2655 34.9941 29.4825 33.903C29.6995 32.8119 30.2353 31.8096 31.0219 31.0229C31.8086 30.2362 32.8109 29.7005 33.902 29.4835C34.9932 29.2664 36.1242 29.3778 37.152 29.8036C38.1798 30.2293 39.0583 30.9503 39.6764 31.8753C40.2945 32.8003 40.6244 33.8879 40.6244 35.0004C40.6244 36.4922 40.0318 37.923 38.9769 38.9779C37.922 40.0328 36.4913 40.6254 34.9994 40.6254ZM50.4682 35.3801C50.4752 35.127 50.4752 34.8738 50.4682 34.6207L53.0908 31.3441C53.2283 31.1721 53.3235 30.9702 53.3687 30.7546C53.4139 30.5391 53.4078 30.3159 53.351 30.1031C52.921 28.487 52.2779 26.9353 51.4385 25.4889C51.3286 25.2996 51.176 25.1386 50.9929 25.0186C50.8098 24.8987 50.6012 24.8232 50.3838 24.798L46.2143 24.334C46.0408 24.1512 45.865 23.9754 45.6869 23.8066L45.1947 19.6266C45.1694 19.409 45.0936 19.2003 44.9734 19.0172C44.8531 18.8341 44.6918 18.6816 44.5021 18.5719C43.0552 17.734 41.5036 17.0915 39.8879 16.6611C39.675 16.6045 39.4517 16.5987 39.2362 16.6442C39.0206 16.6897 38.8188 16.7852 38.6469 16.923L35.3791 19.5316H34.6197L31.3432 16.9143C31.1711 16.7767 30.9692 16.6815 30.7536 16.6364C30.5381 16.5912 30.3149 16.5972 30.1021 16.6541C28.4863 17.0848 26.9347 17.7279 25.4879 18.5666C25.2986 18.6765 25.1376 18.8291 25.0177 19.0122C24.8977 19.1953 24.8222 19.4038 24.7971 19.6213L24.333 23.7978C24.1502 23.9725 23.9744 24.1482 23.8057 24.3252L19.6256 24.8051C19.408 24.8304 19.1993 24.9062 19.0162 25.0264C18.8331 25.1467 18.6806 25.308 18.5709 25.4977C17.733 26.9446 17.0905 28.4962 16.6602 30.1119C16.6035 30.3248 16.5978 30.5481 16.6432 30.7636C16.6887 30.9792 16.7842 31.181 16.9221 31.3529L19.5307 34.6207V35.3801L16.9133 38.6566C16.7758 38.8287 16.6806 39.0306 16.6354 39.2462C16.5902 39.4617 16.5963 39.6849 16.6531 39.8977C17.0831 41.5138 17.7262 43.0655 18.5656 44.5119C18.6755 44.7012 18.8281 44.8622 19.0112 44.9821C19.1943 45.1021 19.4029 45.1776 19.6203 45.2027L23.7898 45.6668C23.9644 45.8496 24.1402 46.0254 24.3172 46.1941L24.8041 50.3742C24.8294 50.5918 24.9052 50.8005 25.0255 50.9836C25.1457 51.1667 25.3071 51.3192 25.4967 51.4289C26.9436 52.2668 28.4952 52.9093 30.1109 53.3396C30.3238 53.3963 30.5471 53.402 30.7626 53.3565C30.9782 53.3111 31.1801 53.2155 31.3519 53.0777L34.6197 50.4691C34.8728 50.4762 35.126 50.4762 35.3791 50.4691L38.6557 53.0918C38.8277 53.2293 39.0296 53.3245 39.2452 53.3697C39.4607 53.4149 39.6839 53.4088 39.8967 53.352C41.5128 52.922 43.0645 52.2789 44.5109 51.4395C44.7002 51.3295 44.8612 51.177 44.9812 50.9939C45.1011 50.8108 45.1766 50.6022 45.2018 50.3848L45.6658 46.2152C45.8486 46.0418 46.0244 45.866 46.1932 45.6879L50.3732 45.1957C50.5908 45.1704 50.7995 45.0946 50.9826 44.9743C51.1657 44.8541 51.3182 44.6927 51.4279 44.5031C52.2658 43.0562 52.9083 41.5046 53.3387 39.8889C53.3953 39.6759 53.4011 39.4527 53.3556 39.2372C53.3101 39.0216 53.2146 38.8197 53.0768 38.6478L50.4682 35.3801ZM47.6381 34.2375C47.668 34.7457 47.668 35.2551 47.6381 35.7633C47.6171 36.1112 47.7261 36.4545 47.9439 36.7266L50.4383 39.8432C50.1521 40.7528 49.7856 41.6351 49.3432 42.4799L45.3705 42.9299C45.0245 42.9683 44.7051 43.1336 44.474 43.3939C44.1357 43.7745 43.7753 44.1349 43.3947 44.4732C43.1344 44.7043 42.9691 45.0238 42.9307 45.3697L42.4895 49.3389C41.6448 49.7815 40.7624 50.148 39.8527 50.434L36.7344 47.9396C36.4848 47.7403 36.1749 47.6318 35.8555 47.632H35.7711C35.2629 47.6619 34.7535 47.6619 34.2453 47.632C33.8974 47.6111 33.5541 47.7201 33.282 47.9379L30.1566 50.434C29.247 50.1478 28.3646 49.7813 27.5199 49.3389L27.0699 45.3715C27.0315 45.0255 26.8662 44.7061 26.6059 44.475C26.2253 44.1366 25.8649 43.7763 25.5266 43.3957C25.2955 43.1354 24.976 42.97 24.6301 42.9316L20.6609 42.4887C20.2183 41.644 19.8518 40.7616 19.5658 39.852L22.0602 36.7336C22.278 36.4615 22.387 36.1182 22.366 35.7703C22.3361 35.2622 22.3361 34.7527 22.366 34.2445C22.387 33.8966 22.278 33.5533 22.0602 33.2812L19.5658 30.1576C19.852 29.248 20.2185 28.3656 20.6609 27.5209L24.6283 27.0709C24.9743 27.0325 25.2937 26.8671 25.5248 26.6068C25.8632 26.2263 26.2235 25.8659 26.6041 25.5275C26.8654 25.2963 27.0315 24.9761 27.0699 24.6293L27.5111 20.6619C28.3558 20.2193 29.2382 19.8528 30.1478 19.5668L33.2662 22.0611C33.5383 22.2789 33.8816 22.3879 34.2295 22.367C34.7376 22.3371 35.2471 22.3371 35.7553 22.367C36.1032 22.3879 36.4465 22.2789 36.7186 22.0611L39.8422 19.5668C40.7518 19.853 41.6342 20.2195 42.4789 20.6619L42.9289 24.6293C42.9673 24.9753 43.1327 25.2947 43.393 25.5258C43.7735 25.8641 44.1339 26.2245 44.4723 26.6051C44.7034 26.8654 45.0228 27.0307 45.3687 27.0691L49.3379 27.5103C49.7805 28.355 50.147 29.2374 50.433 30.1471L47.9387 33.2654C47.7188 33.5398 47.6096 33.8866 47.6328 34.2375H47.6381Z" fill="white"/>
<defs>
<linearGradient id="paint0_linear_318_3446" x1="35" y1="0" x2="35" y2="70" gradientUnits="userSpaceOnUse">
<stop stop-color="#E87941"/>
<stop offset="1" stop-color="#DE3282"/>
</linearGradient>
</defs>
</svg>
