<svg width="70" height="70" viewBox="0 0 70 70" fill="none" xmlns="http://www.w3.org/2000/svg">
<rect width="70" height="70" rx="6.4" fill="url(#paint0_linear_318_3455)"/>
<path fill-rule="evenodd" clip-rule="evenodd" d="M33.5691 17.7478C32.4178 17.8997 30.9966 18.226 28.9753 18.6928L26.671 19.2253C24.9647 19.6191 23.7872 19.8928 22.8891 20.2003C22.021 20.4985 21.5297 20.791 21.1603 21.1622C20.7891 21.5316 20.4966 22.0228 20.1985 22.891C19.891 23.7891 19.6172 24.9647 19.2235 26.6728L18.691 28.9753C18.2241 30.9985 17.8978 32.4197 17.746 33.571C17.596 34.6922 17.6316 35.4516 17.8303 36.1416C18.0272 36.8316 18.4003 37.4935 19.1203 38.3653C19.861 39.2616 20.8903 40.2947 22.3585 41.7628L25.7897 45.1941C28.3378 47.7422 30.151 49.5516 31.711 50.7403C33.2372 51.9066 34.3547 52.3435 35.4891 52.3435C36.6253 52.3435 37.741 51.9066 39.2691 50.7403C40.8272 49.5516 42.6422 47.7403 45.1904 45.1922C47.7404 42.6422 49.5497 40.8291 50.7403 39.271C51.9028 37.7428 52.3416 36.6272 52.3416 35.491C52.3416 34.3566 51.9047 33.241 50.7385 31.7128C49.5497 30.1528 47.7385 28.3378 45.1904 25.7897L41.7591 22.3585C40.2928 20.8922 39.2597 19.8628 38.3653 19.1222C37.4916 18.4022 36.8297 18.0291 36.1397 17.8322C35.4497 17.6335 34.6903 17.5997 33.571 17.7478H33.5691ZM33.2016 14.9597C34.546 14.7816 35.7253 14.7872 36.9141 15.1285C38.1047 15.4697 39.1078 16.0903 40.1541 16.9528C41.1666 17.7891 42.2916 18.9141 43.6997 20.3222L47.2547 23.8772C49.711 26.3335 51.6572 28.2797 52.9735 30.0085C54.331 31.7841 55.1541 33.4941 55.1541 35.491C55.1541 37.4897 54.331 39.1997 52.9753 40.9753C51.6572 42.7041 49.7129 44.6503 47.2547 47.1066L47.1047 47.2566C44.6485 49.7128 42.7022 51.6591 40.9735 52.9753C39.1978 54.3328 37.486 55.156 35.4891 55.156C33.4922 55.156 31.7822 54.3328 30.0047 52.9772C28.2778 51.6591 26.3316 49.7147 23.8735 47.2566L20.3222 43.6997C18.916 42.2935 17.7891 41.1666 16.9528 40.156C16.0903 39.1078 15.4697 38.1047 15.1285 36.916C14.7872 35.7253 14.7816 34.546 14.9597 33.2016C15.1303 31.9003 15.4903 30.3478 15.9366 28.4091L16.4991 25.966C16.8741 24.3478 17.1778 23.0278 17.5397 21.976C17.9185 20.8753 18.3928 19.951 19.1728 19.171C19.9528 18.391 20.8791 17.9147 21.9778 17.5397C23.0297 17.176 24.3497 16.8722 25.9678 16.4991L28.411 15.9366C30.3497 15.4866 31.9022 15.1303 33.2035 14.9578L33.2016 14.9597ZM30.2916 27.4903C29.852 27.0508 29.2558 26.8038 28.6341 26.8038C28.0124 26.8038 27.4162 27.0508 26.9766 27.4903C26.537 27.9299 26.29 28.5262 26.29 29.1478C26.29 29.7695 26.537 30.3658 26.9766 30.8053C27.1943 31.023 27.4527 31.1957 27.7371 31.3135C28.0215 31.4313 28.3263 31.4919 28.6341 31.4919C28.9419 31.4919 29.2467 31.4313 29.5311 31.3135C29.8155 31.1957 30.0739 31.023 30.2916 30.8053C30.5093 30.5877 30.6819 30.3293 30.7997 30.0449C30.9175 29.7605 30.9782 29.4557 30.9782 29.1478C30.9782 28.84 30.9175 28.5352 30.7997 28.2508C30.6819 27.9664 30.5093 27.708 30.2916 27.4903ZM24.9872 25.5028C25.9542 24.5356 27.2658 23.9922 28.6334 23.992C30.0011 23.9918 31.3128 24.5349 32.28 25.5019C33.2472 26.4689 33.7907 27.7805 33.7909 29.1481C33.7911 30.5158 33.2479 31.8275 32.281 32.7947C31.3138 33.7619 30.0019 34.3053 28.6341 34.3053C27.2663 34.3053 25.9544 33.7619 24.9872 32.7947C24.02 31.8275 23.4766 30.5157 23.4766 29.1478C23.4766 27.78 24.02 26.4701 24.9872 25.5028ZM36.856 35.2003C36.4225 35.2169 36.0129 35.4035 35.716 35.7197C34.9885 36.4472 35.1797 37.1728 35.3841 37.3772C35.5903 37.5816 36.316 37.771 37.0416 37.0453C38.5116 35.5753 41.0503 35.0878 42.676 36.7135C43.9378 37.9753 43.9285 39.7866 43.1728 41.221C43.3587 41.4912 43.4443 41.818 43.4147 42.1446C43.3852 42.4713 43.2423 42.7774 43.011 43.0099C42.7796 43.2424 42.4742 43.3867 42.1477 43.4178C41.8211 43.4489 41.494 43.3649 41.2228 43.1803C40.3814 43.6417 39.4054 43.7955 38.4628 43.6153C38.2819 43.5782 38.11 43.5057 37.957 43.4021C37.804 43.2985 37.673 43.1658 37.5713 43.0115C37.4696 42.8572 37.3993 42.6845 37.3644 42.503C37.3295 42.3216 37.3307 42.1351 37.3678 41.9541C37.405 41.7731 37.4775 41.6012 37.5811 41.4483C37.6847 41.2953 37.8174 41.1642 37.9717 41.0625C38.126 40.9609 38.2987 40.8906 38.4802 40.8557C38.6616 40.8207 38.8481 40.8219 39.0291 40.8591C39.361 40.9285 39.8972 40.8216 40.3566 40.3603C41.0822 39.6328 40.8928 38.9072 40.6885 38.7028C40.4822 38.4985 39.7566 38.3091 39.031 39.0347C37.561 40.5047 35.0222 40.9922 33.3966 39.3666C32.1347 38.1047 32.1441 36.2935 32.8997 34.8591C32.7138 34.5888 32.6283 34.2621 32.6578 33.9354C32.6874 33.6088 32.8302 33.3027 33.0616 33.0702C33.293 32.8377 33.5984 32.6934 33.9249 32.6623C34.2514 32.6311 34.5786 32.7151 34.8497 32.8997C35.4872 32.5603 36.1866 32.3803 36.8841 32.3878C37.2571 32.3913 37.6134 32.5428 37.8746 32.809C38.1359 33.0752 38.2807 33.4343 38.2772 33.8072C38.2737 34.1802 38.1222 34.5365 37.8561 34.7977C37.5899 35.059 37.2289 35.2038 36.856 35.2003Z" fill="white"/>
<defs>
<linearGradient id="paint0_linear_318_3455" x1="35" y1="0" x2="35" y2="70" gradientUnits="userSpaceOnUse">
<stop stop-color="#BB57EA"/>
<stop offset="1" stop-color="#5E4BF5"/>
</linearGradient>
</defs>
</svg>
