<svg width="30" height="30" viewBox="0 0 30 30" fill="none" xmlns="http://www.w3.org/2000/svg">
<circle cx="15" cy="15" r="15" fill="#1450C2"/>
<path fill-rule="evenodd" clip-rule="evenodd" d="M14.2321 6.875C13.4679 6.875 12.8163 7.4275 12.6904 8.18083L12.5421 9.07417C12.5254 9.17417 12.4463 9.29083 12.2946 9.36417C12.0091 9.50143 11.7344 9.66022 11.4729 9.83917C11.3346 9.935 11.1946 9.94417 11.0979 9.90833L10.2504 9.59C9.90397 9.4602 9.52268 9.45755 9.17445 9.58253C8.82621 9.70751 8.53362 9.95201 8.34877 10.2725L7.58043 11.6033C7.39551 11.9236 7.3302 12.2991 7.39611 12.6631C7.46203 13.027 7.65491 13.3557 7.94043 13.5908L8.64043 14.1675C8.7196 14.2325 8.7821 14.3583 8.76877 14.5258C8.74502 14.8418 8.74502 15.1591 8.76877 15.475C8.78127 15.6417 8.7196 15.7683 8.64127 15.8333L7.94043 16.41C7.65491 16.6451 7.46203 16.9738 7.39611 17.3378C7.3302 17.7017 7.39551 18.0772 7.58043 18.3975L8.34877 19.7283C8.53376 20.0487 8.8264 20.293 9.17462 20.4178C9.52285 20.5426 9.90406 20.5399 10.2504 20.41L11.0996 20.0917C11.1954 20.0558 11.3354 20.0658 11.4746 20.16C11.7346 20.3383 12.0088 20.4975 12.2954 20.635C12.4471 20.7083 12.5263 20.825 12.5429 20.9267L12.6913 21.8192C12.8171 22.5725 13.4688 23.125 14.2329 23.125H15.7696C16.5329 23.125 17.1854 22.5725 17.3113 21.8192L17.4596 20.9258C17.4763 20.8258 17.5546 20.7092 17.7071 20.635C17.9938 20.4975 18.2679 20.3383 18.5279 20.16C18.6671 20.065 18.8071 20.0558 18.9029 20.0917L19.7529 20.41C20.0992 20.5394 20.4801 20.5418 20.828 20.4168C21.1758 20.2919 21.4681 20.0476 21.6529 19.7275L22.4221 18.3967C22.607 18.0764 22.6723 17.7009 22.6064 17.3369C22.5405 16.973 22.3476 16.6443 22.0621 16.4092L21.3621 15.8325C21.2829 15.7675 21.2204 15.6417 21.2338 15.4742C21.2575 15.1582 21.2575 14.8409 21.2338 14.525C21.2204 14.3583 21.2829 14.2317 21.3613 14.1667L22.0613 13.59C22.6513 13.105 22.8038 12.265 22.4221 11.6025L21.6538 10.2717C21.4688 9.95132 21.1761 9.707 20.8279 9.58218C20.4797 9.45735 20.0985 9.46013 19.7521 9.59L18.9021 9.90833C18.8071 9.94417 18.6671 9.93417 18.5279 9.83917C18.2668 9.66025 17.9924 9.50145 17.7071 9.36417C17.5546 9.29167 17.4763 9.175 17.4596 9.07417L17.3104 8.18083C17.2497 7.81589 17.0614 7.48435 16.779 7.24522C16.4967 7.0061 16.1387 6.87491 15.7688 6.875H14.2329H14.2321ZM15.0004 18.125C15.8292 18.125 16.6241 17.7958 17.2101 17.2097C17.7962 16.6237 18.1254 15.8288 18.1254 15C18.1254 14.1712 17.7962 13.3763 17.2101 12.7903C16.6241 12.2042 15.8292 11.875 15.0004 11.875C14.1716 11.875 13.3768 12.2042 12.7907 12.7903C12.2047 13.3763 11.8754 14.1712 11.8754 15C11.8754 15.8288 12.2047 16.6237 12.7907 17.2097C13.3768 17.7958 14.1716 18.125 15.0004 18.125Z" fill="white"/>
</svg>
