<svg width="30" height="30" viewBox="0 0 30 30" fill="none" xmlns="http://www.w3.org/2000/svg">
<circle cx="15" cy="15" r="15" fill="#1450C2"/>
<path fill-rule="evenodd" clip-rule="evenodd" d="M6.25 10.3125C6.25 9.44917 6.95 8.75 7.8125 8.75H22.1875C23.05 8.75 23.75 9.45 23.75 10.3125V12.8342C23.7501 12.9439 23.7212 13.0518 23.6664 13.1469C23.6115 13.242 23.5326 13.3209 23.4375 13.3758C23.1521 13.5402 22.915 13.7768 22.7502 14.062C22.5853 14.3471 22.4985 14.6706 22.4985 15C22.4985 15.3294 22.5853 15.6529 22.7502 15.938C22.915 16.2232 23.1521 16.4598 23.4375 16.6242C23.5326 16.6791 23.6115 16.758 23.6664 16.8531C23.7212 16.9482 23.7501 17.0561 23.75 17.1658V19.6875C23.75 20.55 23.05 21.25 22.1875 21.25H7.8125C7.3981 21.25 7.00067 21.0854 6.70765 20.7924C6.41462 20.4993 6.25 20.1019 6.25 19.6875V17.1658C6.24985 17.0561 6.27857 16.9483 6.33327 16.8532C6.38798 16.7582 6.46675 16.6792 6.56167 16.6242C6.84709 16.4598 7.08416 16.2232 7.24901 15.938C7.41385 15.6529 7.50064 15.3294 7.50064 15C7.50064 14.6706 7.41385 14.3471 7.24901 14.062C7.08416 13.7768 6.84709 13.5402 6.56167 13.3758C6.46675 13.3208 6.38798 13.2418 6.33327 13.1468C6.27857 13.0517 6.24985 12.9439 6.25 12.8342V10.3125ZM18.75 9.375C18.9158 9.375 19.0747 9.44085 19.1919 9.55806C19.3092 9.67527 19.375 9.83424 19.375 10V10.625C19.375 10.7908 19.3092 10.9497 19.1919 11.0669C19.0747 11.1842 18.9158 11.25 18.75 11.25C18.5842 11.25 18.4253 11.1842 18.3081 11.0669C18.1908 10.9497 18.125 10.7908 18.125 10.625V10C18.125 9.83424 18.1908 9.67527 18.3081 9.55806C18.4253 9.44085 18.5842 9.375 18.75 9.375ZM19.375 13.125C19.375 12.9592 19.3092 12.8003 19.1919 12.6831C19.0747 12.5658 18.9158 12.5 18.75 12.5C18.5842 12.5 18.4253 12.5658 18.3081 12.6831C18.1908 12.8003 18.125 12.9592 18.125 13.125V13.75C18.125 13.9158 18.1908 14.0747 18.3081 14.1919C18.4253 14.3092 18.5842 14.375 18.75 14.375C18.9158 14.375 19.0747 14.3092 19.1919 14.1919C19.3092 14.0747 19.375 13.9158 19.375 13.75V13.125ZM18.75 15.625C18.9158 15.625 19.0747 15.6908 19.1919 15.8081C19.3092 15.9253 19.375 16.0842 19.375 16.25V16.875C19.375 17.0408 19.3092 17.1997 19.1919 17.3169C19.0747 17.4342 18.9158 17.5 18.75 17.5C18.5842 17.5 18.4253 17.4342 18.3081 17.3169C18.1908 17.1997 18.125 17.0408 18.125 16.875V16.25C18.125 16.0842 18.1908 15.9253 18.3081 15.8081C18.4253 15.6908 18.5842 15.625 18.75 15.625ZM19.375 19.375C19.375 19.2092 19.3092 19.0503 19.1919 18.9331C19.0747 18.8158 18.9158 18.75 18.75 18.75C18.5842 18.75 18.4253 18.8158 18.3081 18.9331C18.1908 19.0503 18.125 19.2092 18.125 19.375V20C18.125 20.1658 18.1908 20.3247 18.3081 20.4419C18.4253 20.5592 18.5842 20.625 18.75 20.625C18.9158 20.625 19.0747 20.5592 19.1919 20.4419C19.3092 20.3247 19.375 20.1658 19.375 20V19.375ZM10 15C10 14.8342 10.0658 14.6753 10.1831 14.5581C10.3003 14.4408 10.4592 14.375 10.625 14.375H15C15.1658 14.375 15.3247 14.4408 15.4419 14.5581C15.5592 14.6753 15.625 14.8342 15.625 15C15.625 15.1658 15.5592 15.3247 15.4419 15.4419C15.3247 15.5592 15.1658 15.625 15 15.625H10.625C10.4592 15.625 10.3003 15.5592 10.1831 15.4419C10.0658 15.3247 10 15.1658 10 15ZM10.625 16.875C10.4592 16.875 10.3003 16.9408 10.1831 17.0581C10.0658 17.1753 10 17.3342 10 17.5C10 17.6658 10.0658 17.8247 10.1831 17.9419C10.3003 18.0592 10.4592 18.125 10.625 18.125H13.125C13.2908 18.125 13.4497 18.0592 13.5669 17.9419C13.6842 17.8247 13.75 17.6658 13.75 17.5C13.75 17.3342 13.6842 17.1753 13.5669 17.0581C13.4497 16.9408 13.2908 16.875 13.125 16.875H10.625Z" fill="white"/>
</svg>
