<svg width="30" height="30" viewBox="0 0 30 30" fill="none" xmlns="http://www.w3.org/2000/svg">
<circle cx="15" cy="15" r="15" fill="#1450C2"/>
<path fill-rule="evenodd" clip-rule="evenodd" d="M21.584 8.41498C21.2938 8.12471 20.9493 7.89445 20.5701 7.73735C20.1909 7.58025 19.7845 7.4994 19.374 7.4994C18.9636 7.4994 18.5571 7.58025 18.1779 7.73735C17.7987 7.89445 17.4542 8.12471 17.164 8.41498L13.414 12.165C13.0602 12.5185 12.7964 12.9517 12.6448 13.4282C12.4932 13.9048 12.4582 14.4108 12.5427 14.9037C12.6272 15.3966 12.8288 15.8621 13.1305 16.2609C13.4322 16.6598 13.8252 16.9804 14.2765 17.1958C14.4209 17.2702 14.5307 17.398 14.5825 17.552C14.6344 17.7059 14.6242 17.8741 14.5542 18.0207C14.4842 18.1673 14.3599 18.2809 14.2075 18.3374C14.0552 18.3939 13.8868 18.3888 13.7382 18.3233C13.1066 18.0216 12.5566 17.5728 12.1344 17.0145C11.7122 16.4563 11.4302 15.8049 11.3119 15.115C11.1936 14.4251 11.2425 13.717 11.4546 13.0499C11.6667 12.3829 12.0357 11.7765 12.5307 11.2816L16.2807 7.53165C16.685 7.11676 17.1676 6.78629 17.7006 6.55942C18.2337 6.33255 18.8064 6.2138 19.3857 6.21005C19.965 6.20631 20.5393 6.31764 21.0752 6.53759C21.6111 6.75755 22.098 7.08175 22.5076 7.49137C22.9172 7.90099 23.2414 8.38789 23.4614 8.9238C23.6813 9.45971 23.7927 10.034 23.7889 10.6133C23.7852 11.1925 23.6664 11.7653 23.4396 12.2983C23.2127 12.8314 22.8822 13.314 22.4673 13.7183L21.0032 15.1825C20.946 15.2439 20.877 15.2931 20.8003 15.3273C20.7236 15.3615 20.6409 15.3798 20.5569 15.3813C20.473 15.3828 20.3897 15.3673 20.3118 15.3359C20.234 15.3045 20.1633 15.2577 20.104 15.1983C20.0446 15.139 19.9978 15.0683 19.9664 14.9905C19.935 14.9127 19.9195 14.8293 19.921 14.7454C19.9225 14.6615 19.9409 14.5787 19.975 14.502C20.0092 14.4254 20.0584 14.3564 20.1198 14.2991L21.584 12.835C21.8743 12.5448 22.1045 12.2003 22.2616 11.8211C22.4187 11.4419 22.4996 11.0354 22.4996 10.625C22.4996 10.2145 22.4187 9.8081 22.2616 9.4289C22.1045 9.04971 21.8743 8.70517 21.584 8.41498ZM15.4265 11.9708C15.498 11.8213 15.626 11.7063 15.7823 11.6512C15.9385 11.596 16.1103 11.6052 16.2598 11.6766C16.8914 11.9783 17.4414 12.4272 17.8636 12.9854C18.2858 13.5437 18.5679 14.1951 18.6861 14.8849C18.8044 15.5748 18.7555 16.283 18.5434 16.95C18.3313 17.617 17.9623 18.2234 17.4673 18.7183L13.7173 22.4683C13.313 22.8832 12.8304 23.2137 12.2974 23.4405C11.7643 23.6674 11.1916 23.7862 10.6123 23.7899C10.033 23.7937 9.45874 23.6823 8.92282 23.4624C8.38691 23.2424 7.90002 22.9182 7.49039 22.5086C7.08077 22.099 6.75657 21.6121 6.53662 21.0762C6.31666 20.5402 6.20533 19.966 6.20908 19.3867C6.21282 18.8074 6.33158 18.2346 6.55844 17.7016C6.78531 17.1686 7.11578 16.6859 7.53067 16.2816L8.99484 14.8175C9.05205 14.7561 9.12105 14.7068 9.19772 14.6727C9.27439 14.6385 9.35715 14.6201 9.44107 14.6187C9.52499 14.6172 9.60834 14.6326 9.68617 14.664C9.76399 14.6955 9.83468 14.7423 9.89403 14.8016C9.95338 14.861 10.0002 14.9317 10.0316 15.0095C10.063 15.0873 10.0785 15.1707 10.077 15.2546C10.0755 15.3385 10.0571 15.4213 10.023 15.4979C9.98883 15.5746 9.93957 15.6436 9.87817 15.7008L8.414 17.165C8.12378 17.4552 7.89356 17.7997 7.7365 18.1789C7.57943 18.5581 7.49859 18.9645 7.49859 19.375C7.49859 19.7854 7.57943 20.1918 7.7365 20.571C7.89356 20.9502 8.12378 21.2948 8.414 21.585C8.70422 21.8752 9.04877 22.1054 9.42796 22.2625C9.80715 22.4196 10.2136 22.5004 10.624 22.5004C11.0344 22.5004 11.4409 22.4196 11.82 22.2625C12.1992 22.1054 12.5438 21.8752 12.834 21.585L16.584 17.835C16.9378 17.4815 17.2016 17.0483 17.3532 16.5717C17.5048 16.0952 17.5398 15.5892 17.4553 15.0962C17.3708 14.6033 17.1692 14.1379 16.8675 13.7391C16.5658 13.3402 16.1728 13.0196 15.7215 12.8041C15.6474 12.7688 15.581 12.7192 15.5261 12.6582C15.4711 12.5972 15.4288 12.526 15.4014 12.4486C15.374 12.3712 15.3621 12.2892 15.3664 12.2072C15.3707 12.1252 15.3911 12.0449 15.4265 11.9708Z" fill="white"/>
</svg>
