<svg width="30" height="30" viewBox="0 0 30 30" fill="none" xmlns="http://www.w3.org/2000/svg">
<circle cx="15" cy="15" r="15" fill="#1450C2"/>
<path fill-rule="evenodd" clip-rule="evenodd" d="M17.1791 6.32917C17.3011 6.39708 17.3969 6.5039 17.4511 6.63259C17.5053 6.76128 17.5149 6.90441 17.4783 7.03917L15.8183 13.125H21.875C21.9968 13.125 22.1159 13.1606 22.2177 13.2274C22.3196 13.2942 22.3997 13.3893 22.4482 13.5011C22.4967 13.6128 22.5115 13.7363 22.4908 13.8563C22.4701 13.9763 22.4148 14.0877 22.3316 14.1767L13.5816 23.5517C13.4863 23.654 13.3595 23.7214 13.2213 23.7431C13.0832 23.7648 12.9417 23.7396 12.8196 23.6715C12.6975 23.6033 12.6018 23.4962 12.5478 23.3672C12.4938 23.2382 12.4846 23.0948 12.5216 22.96L14.1816 16.875H8.12496C8.00316 16.875 7.88402 16.8394 7.78217 16.7726C7.68033 16.7058 7.60023 16.6107 7.55172 16.4989C7.5032 16.3872 7.48839 16.2638 7.5091 16.1437C7.52981 16.0237 7.58514 15.9123 7.66829 15.8233L16.4183 6.44834C16.5136 6.34638 16.6403 6.27925 16.7782 6.25765C16.9161 6.23605 17.0572 6.26123 17.1791 6.32917Z" fill="white"/>
</svg>
