<svg width="40" height="31" viewBox="0 0 40 31" fill="none" xmlns="http://www.w3.org/2000/svg">
<path d="M9.09139 12.3389C8.64672 12.3389 8.21999 12.4071 7.79525 12.4692C7.93284 12.0043 8.07442 11.5313 8.30174 11.1065C8.52907 10.4892 8.88401 9.95416 9.23696 9.41508C9.53208 8.83191 10.0525 8.43712 10.4354 7.93812C10.8362 7.45316 11.3826 7.13051 11.8153 6.7277C12.24 6.30686 12.7964 6.09644 13.239 5.79985C13.7017 5.53332 14.1045 5.23873 14.5352 5.09845L15.61 4.65356L16.5552 4.25877L15.5881 0.375L14.3976 0.663576C14.0167 0.759769 13.5521 0.871993 13.0237 1.00626C12.4833 1.10646 11.907 1.38101 11.2649 1.63151C10.6308 1.91608 9.89699 2.10847 9.21502 2.56538C8.52907 3.00225 7.73742 3.36698 7.0395 3.95215C6.36351 4.55536 5.54794 5.07841 4.94573 5.84594C4.28769 6.56338 3.63763 7.31688 3.13313 8.1746C2.54887 8.99223 2.15205 9.89003 1.73329 10.7778C1.35442 11.6656 1.04933 12.5734 0.800073 13.4552C0.32748 15.2227 0.116109 16.9021 0.0343523 18.3389C-0.0334459 19.7778 0.00643535 20.9742 0.090186 21.8399C0.120097 22.2487 0.175931 22.6455 0.215812 22.9201L0.265664 23.2568L0.317509 23.2447C0.672176 24.9097 1.48863 26.4398 2.67243 27.6579C3.85622 28.8761 5.35898 29.7325 7.00688 30.1282C8.65477 30.5238 10.3804 30.4425 11.9843 29.8937C13.5881 29.3449 15.0046 28.3509 16.0698 27.0269C17.1351 25.7028 17.8055 24.1027 18.0037 22.4117C18.2018 20.7206 17.9196 19.0078 17.1896 17.4712C16.4595 15.9347 15.3116 14.6373 13.8784 13.729C12.4453 12.8208 10.7857 12.3388 9.09139 12.3389ZM31.0261 12.3389C30.5814 12.3389 30.1547 12.4071 29.73 12.4692C29.8675 12.0043 30.0091 11.5313 30.2364 11.1065C30.4638 10.4892 30.8187 9.95416 31.1717 9.41508C31.4668 8.83191 31.9872 8.43712 32.3701 7.93812C32.7709 7.45316 33.3173 7.13051 33.75 6.7277C34.1747 6.30686 34.7311 6.09644 35.1738 5.79985C35.6364 5.53332 36.0392 5.23873 36.4699 5.09845L37.5447 4.65356L38.4899 4.25877L37.5228 0.375L36.3323 0.663576C35.9514 0.759769 35.4868 0.871993 34.9584 1.00626C34.418 1.10646 33.8417 1.38101 33.1996 1.63151C32.5675 1.91809 31.8317 2.10847 31.1497 2.56738C30.4638 3.00426 29.6721 3.36899 28.9742 3.95416C28.2982 4.55736 27.4826 5.08041 26.8804 5.84594C26.2224 6.56338 25.5723 7.31688 25.0678 8.1746C24.4836 8.99223 24.0868 9.89003 23.668 10.7778C23.2891 11.6656 22.984 12.5734 22.7348 13.4552C22.2622 15.2227 22.0508 16.9021 21.9691 18.3389C21.9013 19.7778 21.9411 20.9742 22.0249 21.8399C22.0548 22.2487 22.1106 22.6455 22.1505 22.9201L22.2004 23.2568L22.2522 23.2447C22.6069 24.9097 23.4233 26.4398 24.6071 27.6579C25.7909 28.8761 27.2937 29.7325 28.9416 30.1282C30.5895 30.5238 32.3152 30.4425 33.919 29.8937C35.5228 29.3449 36.9393 28.3509 38.0045 27.0269C39.0698 25.7028 39.7402 24.1027 39.9384 22.4117C40.1366 20.7206 39.8543 19.0078 39.1243 17.4712C38.3942 15.9347 37.2463 14.6373 35.8132 13.729C34.38 12.8208 32.7204 12.3388 31.0261 12.3389Z" fill="#5B2FBD"/>
</svg>
