<svg width="33" height="33" viewBox="0 0 33 33" fill="none" xmlns="http://www.w3.org/2000/svg">
<g id="quotation">
<path id="Vector" d="M12.375 17.5313H6.30097C6.49262 18.8076 6.9484 20.0299 7.63912 21.1201C8.32983 22.2104 9.24038 23.1447 10.3125 23.8632L12.1585 25.1007L11.024 26.8125L9.17806 25.575C7.62427 24.5396 6.35009 23.1366 5.46861 21.4905C4.58713 19.8444 4.12563 18.0063 4.125 16.139V9.28125C4.125 8.73424 4.34229 8.20964 4.72915 7.82284C5.11589 7.43605 5.64046 7.21875 6.1875 7.21875H12.375C12.922 7.21875 13.4466 7.43605 13.8333 7.82284C14.2202 8.20964 14.4375 8.73424 14.4375 9.28125V15.4688C14.4375 16.0158 14.2202 16.5404 13.8333 16.9271C13.4466 17.314 12.922 17.5313 12.375 17.5313Z" fill="url(#paint0_linear_1152_20826)"/>
<path id="Vector_2" d="M26.8125 17.5313H20.7385C20.9301 18.8076 21.3858 20.0299 22.0766 21.1201C22.7673 22.2104 23.6779 23.1447 24.75 23.8632L26.596 25.1007L25.4719 26.8125L23.6156 25.575C22.0618 24.5396 20.7876 23.1366 19.9061 21.4905C19.0246 19.8444 18.5631 18.0063 18.5625 16.139V9.28125C18.5625 8.73424 18.7798 8.20964 19.1667 7.82284C19.5534 7.43605 20.078 7.21875 20.625 7.21875H26.8125C27.3595 7.21875 27.8841 7.43605 28.271 7.82284C28.6577 8.20964 28.875 8.73424 28.875 9.28125V15.4688C28.875 16.0158 28.6577 16.5404 28.271 16.9271C27.8841 17.314 27.3595 17.5313 26.8125 17.5313Z" fill="url(#paint1_linear_1152_20826)"/>
</g>
<defs>
<linearGradient id="paint0_linear_1152_20826" x1="9.28125" y1="26.8125" x2="9.28125" y2="7.21875" gradientUnits="userSpaceOnUse">
<stop stop-color="#6434D0" stop-opacity="0.33"/>
<stop offset="1" stop-color="#6434D0"/>
</linearGradient>
<linearGradient id="paint1_linear_1152_20826" x1="23.7187" y1="26.8125" x2="23.7187" y2="7.21875" gradientUnits="userSpaceOnUse">
<stop stop-color="#6434D0" stop-opacity="0.33"/>
<stop offset="1" stop-color="#6434D0"/>
</linearGradient>
</defs>
</svg>
