<svg width="484" height="433" viewBox="0 0 484 433" fill="none" xmlns="http://www.w3.org/2000/svg">
<g clip-path="url(#clip0_262_1902)">
<g filter="url(#filter0_dd_262_1902)">
<mask id="path-1-inside-1_262_1902" fill="white">
<path d="M0 97C0 92.5817 3.58172 89 8 89H394C398.418 89 402 92.5817 402 97V166.894H0V97Z"/>
</mask>
<path d="M0 97C0 92.5817 3.58172 89 8 89H394C398.418 89 402 92.5817 402 97V166.894H0V97Z" fill="white"/>
<path d="M0 89H402H0ZM402 167.894H0V165.894H402V167.894ZM0 166.894V89V166.894ZM402 89V166.894V89Z" fill="#E7E5EF" mask="url(#path-1-inside-1_262_1902)"/>
<path opacity="0.78" d="M21.3258 135.447V120.26H26.7394C27.921 120.26 28.8999 120.475 29.6761 120.905C30.4523 121.335 31.0332 121.923 31.4188 122.67C31.8044 123.411 31.9973 124.247 31.9973 125.176C31.9973 126.111 31.802 126.951 31.4114 127.698C31.0258 128.439 30.4424 129.028 29.6612 129.463C28.8851 129.893 27.9086 130.108 26.732 130.108H23.0092V128.165H26.5243C27.2709 128.165 27.8765 128.036 28.3412 127.779C28.8059 127.517 29.1471 127.161 29.3646 126.711C29.5821 126.261 29.6909 125.75 29.6909 125.176C29.6909 124.603 29.5821 124.094 29.3646 123.649C29.1471 123.204 28.8035 122.855 28.3338 122.603C27.8691 122.351 27.256 122.225 26.4947 122.225H23.6173V135.447H21.3258ZM37.7186 135.699C36.9968 135.699 36.3442 135.566 35.7608 135.299C35.1774 135.027 34.7152 134.634 34.374 134.12C34.0379 133.606 33.8698 132.975 33.8698 132.229C33.8698 131.586 33.9934 131.057 34.2406 130.642C34.4877 130.226 34.8215 129.898 35.2417 129.655C35.6619 129.413 36.1316 129.23 36.6507 129.107C37.1698 128.983 37.6988 128.889 38.2377 128.825C38.92 128.746 39.4737 128.682 39.8989 128.632C40.324 128.578 40.633 128.491 40.8259 128.373C41.0187 128.254 41.1151 128.061 41.1151 127.794V127.742C41.1151 127.095 40.9321 126.593 40.5663 126.237C40.2054 125.881 39.6665 125.703 38.9496 125.703C38.2031 125.703 37.6148 125.868 37.1847 126.2C36.7595 126.526 36.4653 126.889 36.3022 127.29L34.2183 126.815C34.4655 126.123 34.8264 125.564 35.301 125.139C35.7806 124.709 36.3318 124.398 36.9548 124.205C37.5777 124.007 38.2328 123.908 38.92 123.908C39.3748 123.908 39.8568 123.963 40.3661 124.071C40.8802 124.175 41.3598 124.368 41.8047 124.65C42.2546 124.932 42.623 125.334 42.9097 125.859C43.1965 126.378 43.3398 127.052 43.3398 127.883V135.447H41.1744V133.89H41.0854C40.942 134.177 40.727 134.458 40.4402 134.735C40.1535 135.012 39.7852 135.242 39.3353 135.425C38.8854 135.608 38.3465 135.699 37.7186 135.699ZM38.2006 133.92C38.8137 133.92 39.3377 133.798 39.7728 133.556C40.2128 133.314 40.5465 132.998 40.7739 132.607C41.0063 132.211 41.1225 131.789 41.1225 131.339V129.871C41.0434 129.95 40.8901 130.024 40.6627 130.093C40.4402 130.157 40.1856 130.214 39.8989 130.264C39.6121 130.308 39.3328 130.35 39.0609 130.39C38.789 130.424 38.5615 130.454 38.3786 130.479C37.9485 130.533 37.5555 130.624 37.1995 130.753C36.8485 130.882 36.5667 131.067 36.3541 131.309C36.1464 131.547 36.0426 131.863 36.0426 132.258C36.0426 132.807 36.2453 133.223 36.6507 133.504C37.0561 133.781 37.5728 133.92 38.2006 133.92ZM51.069 139.956C50.1643 139.956 49.3856 139.837 48.733 139.6C48.0854 139.363 47.5564 139.049 47.146 138.658C46.7357 138.268 46.4292 137.84 46.2265 137.375L48.1323 136.589C48.2658 136.807 48.4438 137.037 48.6663 137.279C48.8937 137.526 49.2002 137.736 49.5859 137.909C49.9764 138.082 50.4782 138.169 51.0913 138.169C51.9318 138.169 52.6264 137.964 53.1751 137.553C53.7239 137.148 53.9983 136.5 53.9983 135.61V133.371H53.8574C53.7239 133.613 53.5311 133.883 53.279 134.179C53.0318 134.476 52.6906 134.733 52.2556 134.95C51.8205 135.168 51.2544 135.277 50.5573 135.277C49.6575 135.277 48.8467 135.067 48.1249 134.646C47.4081 134.221 46.8395 133.596 46.4193 132.77C46.004 131.94 45.7963 130.919 45.7963 129.707C45.7963 128.496 46.0015 127.458 46.4119 126.593C46.8272 125.728 47.3957 125.065 48.1175 124.605C48.8393 124.141 49.6575 123.908 50.5722 123.908C51.2792 123.908 51.8502 124.027 52.2852 124.264C52.7203 124.496 53.059 124.768 53.3012 125.08C53.5484 125.391 53.7388 125.666 53.8722 125.903H54.0354V124.056H56.2082V135.699C56.2082 136.678 55.9808 137.482 55.526 138.11C55.0711 138.737 54.4556 139.202 53.6794 139.504C52.9082 139.805 52.038 139.956 51.069 139.956ZM51.0468 133.438C51.6846 133.438 52.2234 133.289 52.6635 132.993C53.1084 132.691 53.4446 132.261 53.672 131.702C53.9044 131.139 54.0206 130.464 54.0206 129.678C54.0206 128.911 53.9068 128.237 53.6794 127.653C53.452 127.07 53.1183 126.615 52.6783 126.289C52.2383 125.957 51.6944 125.792 51.0468 125.792C50.3794 125.792 49.8232 125.965 49.3782 126.311C48.9333 126.652 48.5971 127.117 48.3697 127.705C48.1472 128.293 48.0359 128.951 48.0359 129.678C48.0359 130.424 48.1497 131.079 48.3771 131.643C48.6045 132.207 48.9407 132.647 49.3856 132.963C49.8355 133.279 50.3892 133.438 51.0468 133.438ZM64.0913 135.677C62.9691 135.677 62.0025 135.437 61.1917 134.958C60.3859 134.473 59.7629 133.794 59.3229 132.918C58.8878 132.038 58.6703 131.008 58.6703 129.826C58.6703 128.659 58.8878 127.631 59.3229 126.741C59.7629 125.851 60.376 125.156 61.162 124.657C61.9531 124.158 62.8776 123.908 63.9356 123.908C64.5783 123.908 65.2012 124.014 65.8044 124.227C66.4075 124.44 66.9489 124.773 67.4285 125.228C67.908 125.683 68.2862 126.274 68.5631 127.001C68.84 127.722 68.9784 128.6 68.9784 129.633V130.419H59.9236V128.758H66.8055C66.8055 128.175 66.6869 127.658 66.4496 127.208C66.2123 126.753 65.8785 126.395 65.4484 126.133C65.0233 125.871 64.5239 125.74 63.9504 125.74C63.3275 125.74 62.7837 125.893 62.3189 126.2C61.8591 126.501 61.5032 126.897 61.251 127.386C61.0038 127.871 60.8802 128.397 60.8802 128.966V130.264C60.8802 131.025 61.0137 131.673 61.2807 132.207C61.5526 132.74 61.9308 133.148 62.4153 133.43C62.8998 133.707 63.4659 133.845 64.1136 133.845C64.5338 133.845 64.917 133.786 65.263 133.667C65.6091 133.544 65.9082 133.361 66.1604 133.119C66.4125 132.876 66.6053 132.577 66.7388 132.221L68.8375 132.6C68.6694 133.218 68.3678 133.759 67.9327 134.224C67.5026 134.683 66.9613 135.042 66.3087 135.299C65.661 135.551 64.9219 135.677 64.0913 135.677ZM76.3943 122.232V120.26H88.1484V122.232H83.4097V135.447H81.1256V122.232H76.3943ZM89.385 135.447V124.056H91.5282V125.866H91.6469C91.8545 125.253 92.2204 124.771 92.7444 124.42C93.2734 124.064 93.8716 123.886 94.5391 123.886C94.6775 123.886 94.8406 123.891 95.0285 123.901C95.2213 123.911 95.3721 123.923 95.4809 123.938V126.059C95.3919 126.034 95.2337 126.007 95.0063 125.977C94.7788 125.943 94.5514 125.925 94.324 125.925C93.8 125.925 93.3328 126.037 92.9224 126.259C92.517 126.477 92.1956 126.781 91.9583 127.171C91.721 127.557 91.6024 127.997 91.6024 128.491V135.447H89.385ZM100.613 135.699C99.8909 135.699 99.2383 135.566 98.6549 135.299C98.0715 135.027 97.6092 134.634 97.2681 134.12C96.9319 133.606 96.7638 132.975 96.7638 132.229C96.7638 131.586 96.8874 131.057 97.1346 130.642C97.3818 130.226 97.7155 129.898 98.1358 129.655C98.556 129.413 99.0257 129.23 99.5448 129.107C100.064 128.983 100.593 128.889 101.132 128.825C101.814 128.746 102.368 128.682 102.793 128.632C103.218 128.578 103.527 128.491 103.72 128.373C103.913 128.254 104.009 128.061 104.009 127.794V127.742C104.009 127.095 103.826 126.593 103.46 126.237C103.099 125.881 102.561 125.703 101.844 125.703C101.097 125.703 100.509 125.868 100.079 126.2C99.6536 126.526 99.3594 126.889 99.1962 127.29L97.1124 126.815C97.3596 126.123 97.7205 125.564 98.1951 125.139C98.6747 124.709 99.2259 124.398 99.8488 124.205C100.472 124.007 101.127 123.908 101.814 123.908C102.269 123.908 102.751 123.963 103.26 124.071C103.774 124.175 104.254 124.368 104.699 124.65C105.149 124.932 105.517 125.334 105.804 125.859C106.091 126.378 106.234 127.052 106.234 127.883V135.447H104.068V133.89H103.979C103.836 134.177 103.621 134.458 103.334 134.735C103.048 135.012 102.679 135.242 102.229 135.425C101.779 135.608 101.241 135.699 100.613 135.699ZM101.095 133.92C101.708 133.92 102.232 133.798 102.667 133.556C103.107 133.314 103.441 132.998 103.668 132.607C103.9 132.211 104.017 131.789 104.017 131.339V129.871C103.937 129.95 103.784 130.024 103.557 130.093C103.334 130.157 103.08 130.214 102.793 130.264C102.506 130.308 102.227 130.35 101.955 130.39C101.683 130.424 101.456 130.454 101.273 130.479C100.843 130.533 100.45 130.624 100.094 130.753C99.7425 130.882 99.4607 131.067 99.2482 131.309C99.0405 131.547 98.9367 131.863 98.9367 132.258C98.9367 132.807 99.1394 133.223 99.5448 133.504C99.9502 133.781 100.467 133.92 101.095 133.92ZM111.405 128.684V135.447H109.187V124.056H111.316V125.91H111.457C111.719 125.307 112.129 124.823 112.688 124.457C113.251 124.091 113.961 123.908 114.816 123.908C115.592 123.908 116.272 124.071 116.855 124.398C117.439 124.719 117.891 125.199 118.212 125.836C118.534 126.474 118.694 127.263 118.694 128.202V135.447H116.477V128.469C116.477 127.643 116.262 126.998 115.832 126.533C115.402 126.064 114.811 125.829 114.06 125.829C113.545 125.829 113.088 125.94 112.688 126.163C112.292 126.385 111.978 126.711 111.746 127.141C111.518 127.567 111.405 128.081 111.405 128.684ZM130.204 126.837L128.194 127.193C128.11 126.936 127.977 126.692 127.794 126.459C127.616 126.227 127.373 126.037 127.067 125.888C126.76 125.74 126.377 125.666 125.918 125.666C125.29 125.666 124.766 125.807 124.345 126.088C123.925 126.365 123.715 126.724 123.715 127.164C123.715 127.544 123.856 127.851 124.138 128.083C124.419 128.316 124.874 128.506 125.502 128.654L127.312 129.07C128.36 129.312 129.141 129.685 129.655 130.189C130.169 130.694 130.426 131.349 130.426 132.155C130.426 132.837 130.229 133.445 129.833 133.979C129.443 134.508 128.896 134.923 128.194 135.225C127.497 135.526 126.689 135.677 125.769 135.677C124.494 135.677 123.453 135.405 122.647 134.861C121.841 134.313 121.347 133.534 121.164 132.525L123.307 132.199C123.441 132.758 123.715 133.18 124.13 133.467C124.546 133.749 125.087 133.89 125.754 133.89C126.481 133.89 127.062 133.739 127.497 133.438C127.932 133.131 128.15 132.758 128.15 132.318C128.15 131.962 128.016 131.663 127.749 131.42C127.487 131.178 127.084 130.995 126.54 130.872L124.612 130.449C123.549 130.207 122.763 129.821 122.254 129.292C121.75 128.763 121.498 128.093 121.498 127.282C121.498 126.61 121.686 126.022 122.061 125.517C122.437 125.013 122.956 124.62 123.619 124.338C124.281 124.052 125.04 123.908 125.895 123.908C127.126 123.908 128.095 124.175 128.802 124.709C129.509 125.238 129.976 125.948 130.204 126.837ZM132.864 135.447V124.056H135.082V135.447H132.864ZM133.984 122.299C133.599 122.299 133.267 122.17 132.99 121.913C132.718 121.651 132.583 121.34 132.583 120.979C132.583 120.613 132.718 120.302 132.99 120.044C133.267 119.782 133.599 119.651 133.984 119.651C134.37 119.651 134.699 119.782 134.97 120.044C135.247 120.302 135.386 120.613 135.386 120.979C135.386 121.34 135.247 121.651 134.97 121.913C134.699 122.17 134.37 122.299 133.984 122.299ZM143.382 124.056V125.836H137.16V124.056H143.382ZM138.829 121.327H141.046V132.103C141.046 132.533 141.11 132.857 141.239 133.074C141.367 133.287 141.533 133.433 141.736 133.512C141.943 133.586 142.168 133.623 142.41 133.623C142.588 133.623 142.744 133.611 142.878 133.586C143.011 133.561 143.115 133.541 143.189 133.527L143.59 135.358C143.461 135.408 143.278 135.457 143.041 135.507C142.803 135.561 142.507 135.591 142.151 135.596C141.567 135.605 141.024 135.502 140.519 135.284C140.015 135.067 139.607 134.73 139.296 134.276C138.984 133.821 138.829 133.25 138.829 132.562V121.327ZM145.835 135.447V124.056H148.052V135.447H145.835ZM146.954 122.299C146.569 122.299 146.238 122.17 145.961 121.913C145.689 121.651 145.553 121.34 145.553 120.979C145.553 120.613 145.689 120.302 145.961 120.044C146.238 119.782 146.569 119.651 146.954 119.651C147.34 119.651 147.669 119.782 147.941 120.044C148.218 120.302 148.356 120.613 148.356 120.979C148.356 121.34 148.218 121.651 147.941 121.913C147.669 122.17 147.34 122.299 146.954 122.299ZM155.833 135.677C154.765 135.677 153.833 135.432 153.037 134.943C152.241 134.454 151.623 133.769 151.183 132.889C150.743 132.009 150.523 130.98 150.523 129.804C150.523 128.622 150.743 127.589 151.183 126.704C151.623 125.819 152.241 125.132 153.037 124.642C153.833 124.153 154.765 123.908 155.833 123.908C156.901 123.908 157.833 124.153 158.629 124.642C159.425 125.132 160.043 125.819 160.483 126.704C160.923 127.589 161.143 128.622 161.143 129.804C161.143 130.98 160.923 132.009 160.483 132.889C160.043 133.769 159.425 134.454 158.629 134.943C157.833 135.432 156.901 135.677 155.833 135.677ZM155.841 133.816C156.533 133.816 157.106 133.633 157.561 133.267C158.016 132.901 158.352 132.414 158.57 131.806C158.792 131.198 158.903 130.528 158.903 129.796C158.903 129.07 158.792 128.402 158.57 127.794C158.352 127.181 158.016 126.689 157.561 126.318C157.106 125.948 156.533 125.762 155.841 125.762C155.143 125.762 154.565 125.948 154.105 126.318C153.65 126.689 153.312 127.181 153.089 127.794C152.872 128.402 152.763 129.07 152.763 129.796C152.763 130.528 152.872 131.198 153.089 131.806C153.312 132.414 153.65 132.901 154.105 133.267C154.565 133.633 155.143 133.816 155.841 133.816ZM165.835 128.684V135.447H163.618V124.056H165.746V125.91H165.887C166.149 125.307 166.56 124.823 167.118 124.457C167.682 124.091 168.391 123.908 169.247 123.908C170.023 123.908 170.703 124.071 171.286 124.398C171.869 124.719 172.322 125.199 172.643 125.836C172.964 126.474 173.125 127.263 173.125 128.202V135.447H170.908V128.469C170.908 127.643 170.693 126.998 170.263 126.533C169.832 126.064 169.242 125.829 168.49 125.829C167.976 125.829 167.519 125.94 167.118 126.163C166.723 126.385 166.409 126.711 166.176 127.141C165.949 127.567 165.835 128.081 165.835 128.684ZM181.804 135.447V120.26H191.326V122.232H184.095V126.86H190.829V128.825H184.095V133.475H191.415V135.447H181.804ZM199.629 124.056V125.836H193.193V124.056H199.629ZM194.957 135.447V122.736C194.957 122.025 195.113 121.434 195.425 120.964C195.736 120.489 196.149 120.136 196.663 119.904C197.177 119.666 197.736 119.548 198.339 119.548C198.784 119.548 199.165 119.585 199.481 119.659C199.798 119.728 200.032 119.792 200.186 119.852L199.667 121.646C199.563 121.617 199.429 121.582 199.266 121.542C199.103 121.498 198.905 121.476 198.673 121.476C198.134 121.476 197.748 121.609 197.516 121.876C197.289 122.143 197.175 122.529 197.175 123.033V135.447H194.957ZM207.338 124.056V125.836H200.901V124.056H207.338ZM202.666 135.447V122.736C202.666 122.025 202.822 121.434 203.133 120.964C203.445 120.489 203.858 120.136 204.372 119.904C204.886 119.666 205.445 119.548 206.048 119.548C206.493 119.548 206.874 119.585 207.19 119.659C207.506 119.728 207.741 119.792 207.894 119.852L207.375 121.646C207.272 121.617 207.138 121.582 206.975 121.542C206.812 121.498 206.614 121.476 206.382 121.476C205.843 121.476 205.457 121.609 205.225 121.876C204.997 122.143 204.884 122.529 204.884 123.033V135.447H202.666ZM214.087 135.677C212.964 135.677 211.998 135.437 211.187 134.958C210.381 134.473 209.758 133.794 209.318 132.918C208.883 132.038 208.666 131.008 208.666 129.826C208.666 128.659 208.883 127.631 209.318 126.741C209.758 125.851 210.371 125.156 211.157 124.657C211.949 124.158 212.873 123.908 213.931 123.908C214.574 123.908 215.197 124.014 215.8 124.227C216.403 124.44 216.944 124.773 217.424 125.228C217.903 125.683 218.282 126.274 218.559 127.001C218.835 127.722 218.974 128.6 218.974 129.633V130.419H209.919V128.758H216.801C216.801 128.175 216.682 127.658 216.445 127.208C216.208 126.753 215.874 126.395 215.444 126.133C215.019 125.871 214.519 125.74 213.946 125.74C213.323 125.74 212.779 125.893 212.314 126.2C211.855 126.501 211.499 126.897 211.246 127.386C210.999 127.871 210.876 128.397 210.876 128.966V130.264C210.876 131.025 211.009 131.673 211.276 132.207C211.548 132.74 211.926 133.148 212.411 133.43C212.895 133.707 213.461 133.845 214.109 133.845C214.529 133.845 214.912 133.786 215.258 133.667C215.605 133.544 215.904 133.361 216.156 133.119C216.408 132.876 216.601 132.577 216.734 132.221L218.833 132.6C218.665 133.218 218.363 133.759 217.928 134.224C217.498 134.683 216.957 135.042 216.304 135.299C215.656 135.551 214.917 135.677 214.087 135.677ZM226.232 135.677C225.13 135.677 224.18 135.427 223.384 134.928C222.593 134.424 221.985 133.729 221.56 132.844C221.135 131.959 220.922 130.946 220.922 129.804C220.922 128.647 221.14 127.626 221.575 126.741C222.01 125.851 222.623 125.156 223.414 124.657C224.205 124.158 225.137 123.908 226.21 123.908C227.075 123.908 227.846 124.069 228.524 124.39C229.201 124.707 229.747 125.152 230.163 125.725C230.583 126.299 230.832 126.968 230.912 127.735H228.754C228.635 127.201 228.363 126.741 227.938 126.355C227.518 125.97 226.954 125.777 226.247 125.777C225.629 125.777 225.088 125.94 224.623 126.266C224.163 126.588 223.805 127.048 223.548 127.646C223.29 128.239 223.162 128.941 223.162 129.752C223.162 130.582 223.288 131.299 223.54 131.902C223.792 132.506 224.148 132.973 224.608 133.304C225.073 133.635 225.619 133.801 226.247 133.801C226.667 133.801 227.048 133.724 227.389 133.571C227.735 133.413 228.024 133.188 228.257 132.896C228.494 132.605 228.66 132.253 228.754 131.843H230.912C230.832 132.58 230.593 133.237 230.192 133.816C229.792 134.394 229.255 134.849 228.583 135.18C227.916 135.512 227.132 135.677 226.232 135.677ZM238.6 124.056V125.836H232.378V124.056H238.6ZM234.047 121.327H236.264V132.103C236.264 132.533 236.328 132.857 236.457 133.074C236.585 133.287 236.751 133.433 236.954 133.512C237.161 133.586 237.386 133.623 237.628 133.623C237.806 133.623 237.962 133.611 238.096 133.586C238.229 133.561 238.333 133.541 238.407 133.527L238.808 135.358C238.679 135.408 238.496 135.457 238.259 135.507C238.021 135.561 237.725 135.591 237.369 135.596C236.786 135.605 236.242 135.502 235.737 135.284C235.233 135.067 234.825 134.73 234.514 134.276C234.202 133.821 234.047 133.25 234.047 132.562V121.327Z" fill="#6A676F"/>
<g opacity="0.78">
<rect x="313.221" y="108.656" width="69.1227" height="38.5801" rx="19.29" fill="#4F3895"/>
<circle cx="334.118" cy="127.946" r="14.4675" fill="#FAFAFF"/>
</g>
<g filter="url(#filter1_dd_262_1902)">
<rect width="402" height="120" transform="translate(0 166.895)" fill="white"/>
</g>
<path d="M0 286.895H402V356.788C402 361.207 398.418 364.788 394 364.788H8C3.58172 364.788 0 361.207 0 356.788V286.895Z" fill="white"/>
<path opacity="0.78" d="M29.6093 322.144C29.5302 321.442 29.2039 320.898 28.6304 320.512C28.0569 320.122 27.3351 319.926 26.465 319.926C25.8421 319.926 25.3032 320.025 24.8483 320.223C24.3935 320.416 24.04 320.683 23.7879 321.024C23.5407 321.36 23.4171 321.743 23.4171 322.173C23.4171 322.534 23.5011 322.846 23.6692 323.108C23.8423 323.37 24.0672 323.59 24.3441 323.768C24.6259 323.941 24.9274 324.087 25.2488 324.205C25.5702 324.319 25.8791 324.413 26.1758 324.487L27.659 324.873C28.1435 324.992 28.6403 325.152 29.1496 325.355C29.6588 325.558 30.1309 325.825 30.566 326.156C31.0011 326.487 31.3521 326.897 31.619 327.387C31.891 327.876 32.0269 328.462 32.0269 329.144C32.0269 330.005 31.8044 330.768 31.3595 331.436C30.9195 332.103 30.2792 332.63 29.4388 333.015C28.6032 333.401 27.5922 333.594 26.4057 333.594C25.2686 333.594 24.2847 333.413 23.4542 333.053C22.6236 332.692 21.9735 332.18 21.5038 331.517C21.0341 330.85 20.7746 330.059 20.7251 329.144H23.024C23.0685 329.693 23.2465 330.15 23.558 330.516C23.8744 330.877 24.2773 331.147 24.7668 331.325C25.2612 331.498 25.8025 331.584 26.3908 331.584C27.0385 331.584 27.6145 331.483 28.1187 331.28C28.628 331.073 29.0284 330.786 29.3201 330.42C29.6118 330.049 29.7577 329.617 29.7577 329.122C29.7577 328.672 29.6291 328.304 29.372 328.017C29.1199 327.73 28.7763 327.493 28.3412 327.305C27.9111 327.117 27.4241 326.952 26.8803 326.808L25.0857 326.319C23.8694 325.988 22.9054 325.501 22.1935 324.858C21.4865 324.215 21.133 323.365 21.133 322.307C21.133 321.432 21.3703 320.668 21.8449 320.015C22.3195 319.363 22.9622 318.856 23.773 318.495C24.5838 318.129 25.4985 317.946 26.5169 317.946C27.5453 317.946 28.4525 318.127 29.2385 318.488C30.0296 318.849 30.6525 319.346 31.1073 319.978C31.5622 320.606 31.7995 321.328 31.8193 322.144H29.6093ZM36.8046 326.579V333.342H34.5872V318.154H36.7749V323.805H36.9158C37.1828 323.192 37.5907 322.705 38.1395 322.344C38.6882 321.983 39.4051 321.803 40.2901 321.803C41.0712 321.803 41.7535 321.963 42.3368 322.285C42.9252 322.606 43.38 323.086 43.7014 323.723C44.0277 324.356 44.1908 325.147 44.1908 326.096V333.342H41.9735V326.363C41.9735 325.528 41.7584 324.88 41.3283 324.42C40.8982 323.956 40.2999 323.723 39.5336 323.723C39.0096 323.723 38.5399 323.835 38.1246 324.057C37.7143 324.28 37.3904 324.606 37.1531 325.036C36.9208 325.461 36.8046 325.975 36.8046 326.579ZM51.9478 333.572C50.8799 333.572 49.948 333.327 49.152 332.838C48.3561 332.348 47.7381 331.663 47.2981 330.783C46.8581 329.903 46.638 328.875 46.638 327.698C46.638 326.517 46.8581 325.483 47.2981 324.598C47.7381 323.714 48.3561 323.026 49.152 322.537C49.948 322.047 50.8799 321.803 51.9478 321.803C53.0157 321.803 53.9476 322.047 54.7436 322.537C55.5396 323.026 56.1576 323.714 56.5976 324.598C57.0376 325.483 57.2576 326.517 57.2576 327.698C57.2576 328.875 57.0376 329.903 56.5976 330.783C56.1576 331.663 55.5396 332.348 54.7436 332.838C53.9476 333.327 53.0157 333.572 51.9478 333.572ZM51.9552 331.71C52.6474 331.71 53.2209 331.527 53.6757 331.162C54.1306 330.796 54.4667 330.309 54.6843 329.701C54.9068 329.092 55.018 328.423 55.018 327.691C55.018 326.964 54.9068 326.297 54.6843 325.689C54.4667 325.076 54.1306 324.584 53.6757 324.213C53.2209 323.842 52.6474 323.657 51.9552 323.657C51.2581 323.657 50.6797 323.842 50.2199 324.213C49.7651 324.584 49.4264 325.076 49.2039 325.689C48.9864 326.297 48.8776 326.964 48.8776 327.691C48.8776 328.423 48.9864 329.092 49.2039 329.701C49.4264 330.309 49.7651 330.796 50.2199 331.162C50.6797 331.527 51.2581 331.71 51.9552 331.71ZM61.8554 333.342L58.5035 321.951H60.795L63.0271 330.316H63.1384L65.378 321.951H67.6695L69.8942 330.279H70.0055L72.2228 321.951H74.5143L71.1698 333.342H68.9079L66.5942 325.118H66.4236L64.1099 333.342H61.8554ZM87.9074 328.418H90.1618L91.7488 330.487L92.4978 331.406L95.0267 334.706H92.6832L90.9924 332.504L90.414 331.703L87.9074 328.418ZM95.5161 325.748C95.5161 327.37 95.2195 328.764 94.6262 329.93C94.0329 331.092 93.2197 331.987 92.1864 332.615C91.158 333.238 89.9888 333.549 88.6787 333.549C87.3636 333.549 86.1894 333.238 85.1561 332.615C84.1278 331.987 83.317 331.09 82.7237 329.923C82.1304 328.756 81.8338 327.365 81.8338 325.748C81.8338 324.126 82.1304 322.735 82.7237 321.573C83.317 320.406 84.1278 319.511 85.1561 318.888C86.1894 318.26 87.3636 317.946 88.6787 317.946C89.9888 317.946 91.158 318.26 92.1864 318.888C93.2197 319.511 94.0329 320.406 94.6262 321.573C95.2195 322.735 95.5161 324.126 95.5161 325.748ZM93.2468 325.748C93.2468 324.512 93.0466 323.471 92.6462 322.626C92.2506 321.775 91.7068 321.133 91.0147 320.698C90.3275 320.258 89.5488 320.038 88.6787 320.038C87.8036 320.038 87.0225 320.258 86.3352 320.698C85.648 321.133 85.1042 321.775 84.7038 322.626C84.3082 323.471 84.1105 324.512 84.1105 325.748C84.1105 326.984 84.3082 328.027 84.7038 328.877C85.1042 329.723 85.648 330.366 86.3352 330.806C87.0225 331.241 87.8036 331.458 88.6787 331.458C89.5488 331.458 90.3275 331.241 91.0147 330.806C91.7068 330.366 92.2506 329.723 92.6462 328.877C93.0466 328.027 93.2468 326.984 93.2468 325.748ZM105.411 328.618V321.951H107.636V333.342H105.455V331.369H105.337C105.075 331.977 104.654 332.484 104.076 332.889C103.502 333.29 102.788 333.49 101.933 333.49C101.201 333.49 100.553 333.329 99.9897 333.008C99.4311 332.682 98.9911 332.2 98.6697 331.562C98.3533 330.924 98.1951 330.136 98.1951 329.196V321.951H100.412V328.929C100.412 329.706 100.627 330.324 101.058 330.783C101.488 331.243 102.046 331.473 102.734 331.473C103.149 331.473 103.562 331.369 103.972 331.162C104.387 330.954 104.731 330.64 105.003 330.22C105.28 329.799 105.416 329.266 105.411 328.618ZM115.524 333.572C114.402 333.572 113.435 333.332 112.625 332.852C111.819 332.368 111.196 331.688 110.756 330.813C110.321 329.933 110.103 328.902 110.103 327.721C110.103 326.554 110.321 325.525 110.756 324.636C111.196 323.746 111.809 323.051 112.595 322.552C113.386 322.052 114.31 321.803 115.368 321.803C116.011 321.803 116.634 321.909 117.237 322.122C117.84 322.334 118.382 322.668 118.861 323.123C119.341 323.578 119.719 324.168 119.996 324.895C120.273 325.617 120.411 326.494 120.411 327.528V328.314H111.356V326.653H118.238C118.238 326.069 118.12 325.553 117.882 325.103C117.645 324.648 117.311 324.289 116.881 324.027C116.456 323.765 115.957 323.634 115.383 323.634C114.76 323.634 114.216 323.788 113.752 324.094C113.292 324.396 112.936 324.791 112.684 325.281C112.437 325.765 112.313 326.292 112.313 326.86V328.158C112.313 328.919 112.447 329.567 112.714 330.101C112.985 330.635 113.364 331.043 113.848 331.325C114.333 331.602 114.899 331.74 115.546 331.74C115.967 331.74 116.35 331.681 116.696 331.562C117.042 331.438 117.341 331.255 117.593 331.013C117.845 330.771 118.038 330.472 118.172 330.116L120.27 330.494C120.102 331.112 119.801 331.653 119.366 332.118C118.935 332.578 118.394 332.936 117.741 333.193C117.094 333.446 116.355 333.572 115.524 333.572ZM131.407 324.732L129.397 325.088C129.313 324.831 129.18 324.586 128.997 324.354C128.819 324.121 128.577 323.931 128.27 323.783C127.964 323.634 127.581 323.56 127.121 323.56C126.493 323.56 125.969 323.701 125.549 323.983C125.128 324.26 124.918 324.618 124.918 325.058C124.918 325.439 125.059 325.745 125.341 325.978C125.623 326.21 126.078 326.401 126.705 326.549L128.515 326.964C129.563 327.206 130.344 327.58 130.858 328.084C131.373 328.588 131.63 329.243 131.63 330.049C131.63 330.731 131.432 331.34 131.036 331.873C130.646 332.402 130.099 332.818 129.397 333.119C128.7 333.421 127.892 333.572 126.972 333.572C125.697 333.572 124.656 333.3 123.85 332.756C123.044 332.207 122.55 331.428 122.367 330.42L124.51 330.094C124.644 330.652 124.918 331.075 125.334 331.362C125.749 331.644 126.29 331.784 126.958 331.784C127.684 331.784 128.265 331.634 128.7 331.332C129.135 331.026 129.353 330.652 129.353 330.212C129.353 329.856 129.219 329.557 128.952 329.315C128.69 329.073 128.287 328.89 127.744 328.766L125.816 328.343C124.753 328.101 123.967 327.716 123.457 327.187C122.953 326.658 122.701 325.988 122.701 325.177C122.701 324.505 122.889 323.916 123.264 323.412C123.64 322.908 124.159 322.515 124.822 322.233C125.484 321.946 126.243 321.803 127.098 321.803C128.33 321.803 129.299 322.07 130.006 322.604C130.712 323.133 131.18 323.842 131.407 324.732ZM139.385 321.951V323.731H133.163V321.951H139.385ZM134.831 319.222H137.049V329.997C137.049 330.427 137.113 330.751 137.242 330.969C137.37 331.181 137.536 331.327 137.738 331.406C137.946 331.48 138.171 331.517 138.413 331.517C138.591 331.517 138.747 331.505 138.88 331.48C139.014 331.456 139.118 331.436 139.192 331.421L139.592 333.253C139.464 333.302 139.281 333.352 139.044 333.401C138.806 333.456 138.51 333.485 138.154 333.49C137.57 333.5 137.026 333.396 136.522 333.179C136.018 332.961 135.61 332.625 135.299 332.17C134.987 331.715 134.831 331.144 134.831 330.457V319.222ZM141.838 333.342V321.951H144.055V333.342H141.838ZM142.957 320.193C142.572 320.193 142.24 320.065 141.964 319.808C141.692 319.546 141.556 319.234 141.556 318.873C141.556 318.508 141.692 318.196 141.964 317.939C142.24 317.677 142.572 317.546 142.957 317.546C143.343 317.546 143.672 317.677 143.944 317.939C144.221 318.196 144.359 318.508 144.359 318.873C144.359 319.234 144.221 319.546 143.944 319.808C143.672 320.065 143.343 320.193 142.957 320.193ZM151.836 333.572C150.768 333.572 149.836 333.327 149.04 332.838C148.244 332.348 147.626 331.663 147.186 330.783C146.746 329.903 146.526 328.875 146.526 327.698C146.526 326.517 146.746 325.483 147.186 324.598C147.626 323.714 148.244 323.026 149.04 322.537C149.836 322.047 150.768 321.803 151.836 321.803C152.904 321.803 153.836 322.047 154.632 322.537C155.428 323.026 156.046 323.714 156.486 324.598C156.926 325.483 157.146 326.517 157.146 327.698C157.146 328.875 156.926 329.903 156.486 330.783C156.046 331.663 155.428 332.348 154.632 332.838C153.836 333.327 152.904 333.572 151.836 333.572ZM151.843 331.71C152.536 331.71 153.109 331.527 153.564 331.162C154.019 330.796 154.355 330.309 154.572 329.701C154.795 329.092 154.906 328.423 154.906 327.691C154.906 326.964 154.795 326.297 154.572 325.689C154.355 325.076 154.019 324.584 153.564 324.213C153.109 323.842 152.536 323.657 151.843 323.657C151.146 323.657 150.568 323.842 150.108 324.213C149.653 324.584 149.315 325.076 149.092 325.689C148.875 326.297 148.766 326.964 148.766 327.691C148.766 328.423 148.875 329.092 149.092 329.701C149.315 330.309 149.653 330.796 150.108 331.162C150.568 331.527 151.146 331.71 151.843 331.71ZM161.838 326.579V333.342H159.621V321.951H161.749V323.805H161.89C162.152 323.202 162.562 322.717 163.121 322.351C163.685 321.986 164.394 321.803 165.249 321.803C166.026 321.803 166.705 321.966 167.289 322.292C167.872 322.613 168.325 323.093 168.646 323.731C168.967 324.369 169.128 325.157 169.128 326.096V333.342H166.911V326.363C166.911 325.538 166.696 324.893 166.265 324.428C165.835 323.958 165.245 323.723 164.493 323.723C163.979 323.723 163.522 323.835 163.121 324.057C162.726 324.28 162.412 324.606 162.179 325.036C161.952 325.461 161.838 325.975 161.838 326.579ZM190.065 318.154V333.342H187.959L180.239 322.203H180.098V333.342H177.806V318.154H179.927L187.655 329.308H187.796V318.154H190.065ZM200.445 328.618V321.951H202.67V333.342H200.49V331.369H200.371C200.109 331.977 199.689 332.484 199.11 332.889C198.537 333.29 197.822 333.49 196.967 333.49C196.235 333.49 195.588 333.329 195.024 333.008C194.466 332.682 194.026 332.2 193.704 331.562C193.388 330.924 193.23 330.136 193.23 329.196V321.951H195.447V328.929C195.447 329.706 195.662 330.324 196.092 330.783C196.522 331.243 197.081 331.473 197.768 331.473C198.183 331.473 198.596 331.369 199.007 331.162C199.422 330.954 199.765 330.64 200.037 330.22C200.314 329.799 200.45 329.266 200.445 328.618ZM205.649 333.342V321.951H207.778V323.805H207.919C208.156 323.177 208.544 322.688 209.083 322.337C209.622 321.981 210.267 321.803 211.018 321.803C211.78 321.803 212.418 321.981 212.932 322.337C213.451 322.693 213.834 323.182 214.081 323.805H214.2C214.472 323.197 214.904 322.712 215.498 322.351C216.091 321.986 216.798 321.803 217.619 321.803C218.652 321.803 219.495 322.127 220.147 322.774C220.805 323.422 221.134 324.398 221.134 325.703V333.342H218.916V325.911C218.916 325.14 218.706 324.581 218.286 324.235C217.866 323.889 217.364 323.716 216.781 323.716C216.059 323.716 215.498 323.938 215.097 324.383C214.697 324.823 214.496 325.39 214.496 326.082V333.342H212.287V325.77C212.287 325.152 212.094 324.655 211.708 324.28C211.322 323.904 210.821 323.716 210.203 323.716C209.782 323.716 209.394 323.827 209.038 324.05C208.687 324.267 208.403 324.571 208.186 324.962C207.973 325.352 207.867 325.805 207.867 326.319V333.342H205.649ZM224.284 333.342V318.154H226.501V323.798H226.634C226.763 323.56 226.948 323.286 227.191 322.974C227.433 322.663 227.769 322.391 228.199 322.159C228.629 321.921 229.198 321.803 229.905 321.803C230.824 321.803 231.645 322.035 232.367 322.5C233.089 322.965 233.655 323.634 234.065 324.509C234.48 325.385 234.688 326.438 234.688 327.669C234.688 328.9 234.483 329.955 234.073 330.835C233.662 331.71 233.099 332.385 232.382 332.86C231.665 333.329 230.847 333.564 229.927 333.564C229.235 333.564 228.669 333.448 228.229 333.216C227.794 332.983 227.453 332.711 227.205 332.4C226.958 332.089 226.768 331.812 226.634 331.569H226.449V333.342H224.284ZM226.456 327.646C226.456 328.447 226.573 329.149 226.805 329.753C227.037 330.356 227.374 330.828 227.814 331.169C228.254 331.505 228.792 331.673 229.43 331.673C230.093 331.673 230.646 331.498 231.091 331.147C231.536 330.791 231.872 330.309 232.1 329.701C232.332 329.092 232.448 328.408 232.448 327.646C232.448 326.895 232.335 326.22 232.107 325.622C231.885 325.024 231.549 324.552 231.099 324.205C230.654 323.859 230.098 323.686 229.43 323.686C228.787 323.686 228.244 323.852 227.799 324.183C227.359 324.514 227.025 324.977 226.798 325.57C226.57 326.163 226.456 326.855 226.456 327.646ZM242.087 333.572C240.965 333.572 239.998 333.332 239.188 332.852C238.382 332.368 237.759 331.688 237.319 330.813C236.884 329.933 236.666 328.902 236.666 327.721C236.666 326.554 236.884 325.525 237.319 324.636C237.759 323.746 238.372 323.051 239.158 322.552C239.949 322.052 240.874 321.803 241.932 321.803C242.574 321.803 243.197 321.909 243.8 322.122C244.403 322.334 244.945 322.668 245.424 323.123C245.904 323.578 246.282 324.168 246.559 324.895C246.836 325.617 246.974 326.494 246.974 327.528V328.314H237.92V326.653H244.801C244.801 326.069 244.683 325.553 244.446 325.103C244.208 324.648 243.874 324.289 243.444 324.027C243.019 323.765 242.52 323.634 241.946 323.634C241.323 323.634 240.78 323.788 240.315 324.094C239.855 324.396 239.499 324.791 239.247 325.281C239 325.765 238.876 326.292 238.876 326.86V328.158C238.876 328.919 239.01 329.567 239.277 330.101C239.549 330.635 239.927 331.043 240.411 331.325C240.896 331.602 241.462 331.74 242.109 331.74C242.53 331.74 242.913 331.681 243.259 331.562C243.605 331.438 243.904 331.255 244.156 331.013C244.408 330.771 244.601 330.472 244.735 330.116L246.833 330.494C246.665 331.112 246.364 331.653 245.929 332.118C245.499 332.578 244.957 332.936 244.305 333.193C243.657 333.446 242.918 333.572 242.087 333.572ZM249.435 333.342V321.951H251.578V323.76H251.696C251.904 323.147 252.27 322.665 252.794 322.314C253.323 321.958 253.921 321.78 254.589 321.78C254.727 321.78 254.89 321.785 255.078 321.795C255.271 321.805 255.422 321.818 255.53 321.832V323.953C255.441 323.929 255.283 323.901 255.056 323.872C254.828 323.837 254.601 323.82 254.374 323.82C253.849 323.82 253.382 323.931 252.972 324.154C252.567 324.371 252.245 324.675 252.008 325.066C251.771 325.451 251.652 325.891 251.652 326.386V333.342H249.435Z" fill="#6A676F"/>
<g opacity="0.78">
<rect x="313.221" y="306.551" width="69.1227" height="38.5801" rx="19.29" fill="#4F3895"/>
<circle cx="334.118" cy="325.841" r="14.4675" fill="#FAFAFF"/>
</g>
<g filter="url(#filter2_ddd_262_1902)">
<rect x="13" y="181.85" width="471" height="91.2638" rx="6.76338" fill="white"/>
<path d="M39.4894 236.482H36.6395L43.0431 218.688H46.145L52.5486 236.482H49.6987L44.6679 221.92H44.5289L39.4894 236.482ZM39.9673 229.514H49.2121V231.773H39.9673V229.514ZM57.5077 218.688V236.482H54.9097V218.688H57.5077ZM63.6007 218.688V236.482H61.0027V218.688H63.6007ZM72.7173 236.752C71.4662 236.752 70.3743 236.465 69.4417 235.892C68.5091 235.318 67.785 234.516 67.2695 233.485C66.754 232.454 66.4962 231.249 66.4962 229.87C66.4962 228.486 66.754 227.275 67.2695 226.238C67.785 225.202 68.5091 224.396 69.4417 223.823C70.3743 223.249 71.4662 222.963 72.7173 222.963C73.9685 222.963 75.0604 223.249 75.993 223.823C76.9256 224.396 77.6497 225.202 78.1652 226.238C78.6807 227.275 78.9385 228.486 78.9385 229.87C78.9385 231.249 78.6807 232.454 78.1652 233.485C77.6497 234.516 76.9256 235.318 75.993 235.892C75.0604 236.465 73.9685 236.752 72.7173 236.752ZM72.726 234.571C73.537 234.571 74.2089 234.357 74.7418 233.928C75.2747 233.499 75.6686 232.929 75.9235 232.216C76.1842 231.504 76.3145 230.719 76.3145 229.862C76.3145 229.01 76.1842 228.228 75.9235 227.516C75.6686 226.797 75.2747 226.221 74.7418 225.787C74.2089 225.352 73.537 225.135 72.726 225.135C71.9093 225.135 71.2316 225.352 70.6929 225.787C70.16 226.221 69.7632 226.797 69.5025 227.516C69.2476 228.228 69.1202 229.01 69.1202 229.862C69.1202 230.719 69.2476 231.504 69.5025 232.216C69.7632 232.929 70.16 233.499 70.6929 233.928C71.2316 234.357 71.9093 234.571 72.726 234.571ZM84.3255 236.482L80.3982 223.136H83.083L85.6983 232.937H85.8287L88.4527 223.136H91.1375L93.7441 232.894H93.8745L96.4724 223.136H99.1572L95.2386 236.482H92.5885L89.8776 226.847H89.6778L86.9669 236.482H84.3255ZM114.449 223.136V225.222H106.908V223.136H114.449ZM108.976 236.482V221.59C108.976 220.756 109.158 220.064 109.523 219.513C109.888 218.957 110.372 218.543 110.974 218.271C111.576 217.993 112.231 217.854 112.938 217.854C113.459 217.854 113.905 217.897 114.276 217.984C114.646 218.065 114.922 218.14 115.101 218.21L114.493 220.313C114.371 220.278 114.215 220.237 114.024 220.191C113.833 220.139 113.601 220.113 113.329 220.113C112.697 220.113 112.245 220.269 111.973 220.582C111.707 220.895 111.573 221.347 111.573 221.937V236.482H108.976ZM122.226 236.752C120.975 236.752 119.883 236.465 118.95 235.892C118.018 235.318 117.294 234.516 116.778 233.485C116.262 232.454 116.005 231.249 116.005 229.87C116.005 228.486 116.262 227.275 116.778 226.238C117.294 225.202 118.018 224.396 118.95 223.823C119.883 223.249 120.975 222.963 122.226 222.963C123.477 222.963 124.569 223.249 125.502 223.823C126.434 224.396 127.158 225.202 127.674 226.238C128.189 227.275 128.447 228.486 128.447 229.87C128.447 231.249 128.189 232.454 127.674 233.485C127.158 234.516 126.434 235.318 125.502 235.892C124.569 236.465 123.477 236.752 122.226 236.752ZM122.235 234.571C123.046 234.571 123.717 234.357 124.25 233.928C124.783 233.499 125.177 232.929 125.432 232.216C125.693 231.504 125.823 230.719 125.823 229.862C125.823 229.01 125.693 228.228 125.432 227.516C125.177 226.797 124.783 226.221 124.25 225.787C123.717 225.352 123.046 225.135 122.235 225.135C121.418 225.135 120.74 225.352 120.201 225.787C119.668 226.221 119.272 226.797 119.011 227.516C118.756 228.228 118.629 229.01 118.629 229.862C118.629 230.719 118.756 231.504 119.011 232.216C119.272 232.929 119.668 233.499 120.201 233.928C120.74 234.357 121.418 234.571 122.235 234.571ZM131.347 236.482V223.136H133.858V225.257H133.997C134.24 224.538 134.669 223.974 135.283 223.562C135.903 223.145 136.604 222.937 137.386 222.937C137.548 222.937 137.739 222.942 137.959 222.954C138.185 222.966 138.362 222.98 138.489 222.997V225.482C138.385 225.453 138.199 225.422 137.933 225.387C137.667 225.346 137.4 225.326 137.134 225.326C136.52 225.326 135.972 225.456 135.491 225.717C135.016 225.972 134.64 226.328 134.362 226.786C134.084 227.238 133.945 227.753 133.945 228.332V236.482H131.347ZM140.737 236.482V223.136H143.231V225.309H143.396C143.674 224.573 144.129 224 144.76 223.588C145.392 223.171 146.147 222.963 147.028 222.963C147.92 222.963 148.667 223.171 149.27 223.588C149.878 224.005 150.327 224.579 150.616 225.309H150.755C151.074 224.596 151.581 224.029 152.276 223.606C152.971 223.177 153.799 222.963 154.761 222.963C155.972 222.963 156.959 223.342 157.724 224.101C158.494 224.86 158.879 226.004 158.879 227.533V236.482H156.281V227.776C156.281 226.873 156.035 226.218 155.543 225.813C155.051 225.407 154.463 225.204 153.779 225.204C152.933 225.204 152.276 225.465 151.807 225.986C151.338 226.502 151.103 227.165 151.103 227.976V236.482H148.514V227.611C148.514 226.887 148.288 226.305 147.836 225.865C147.384 225.425 146.796 225.204 146.072 225.204C145.58 225.204 145.125 225.335 144.708 225.595C144.297 225.85 143.964 226.207 143.709 226.664C143.46 227.122 143.335 227.652 143.335 228.254V236.482H140.737ZM175.067 223.136V225.222H167.777V223.136H175.067ZM169.732 219.939H172.33V232.564C172.33 233.068 172.405 233.447 172.555 233.702C172.706 233.951 172.9 234.122 173.138 234.215C173.381 234.302 173.644 234.345 173.928 234.345C174.137 234.345 174.319 234.331 174.476 234.302C174.632 234.273 174.754 234.249 174.841 234.232L175.31 236.378C175.159 236.436 174.945 236.494 174.667 236.552C174.389 236.616 174.041 236.65 173.624 236.656C172.941 236.668 172.303 236.546 171.713 236.291C171.122 236.036 170.644 235.643 170.279 235.11C169.914 234.577 169.732 233.908 169.732 233.102V219.939ZM183.419 236.752C182.167 236.752 181.076 236.465 180.143 235.892C179.21 235.318 178.486 234.516 177.971 233.485C177.455 232.454 177.197 231.249 177.197 229.87C177.197 228.486 177.455 227.275 177.971 226.238C178.486 225.202 179.21 224.396 180.143 223.823C181.076 223.249 182.167 222.963 183.419 222.963C184.67 222.963 185.762 223.249 186.694 223.823C187.627 224.396 188.351 225.202 188.866 226.238C189.382 227.275 189.64 228.486 189.64 229.87C189.64 231.249 189.382 232.454 188.866 233.485C188.351 234.516 187.627 235.318 186.694 235.892C185.762 236.465 184.67 236.752 183.419 236.752ZM183.427 234.571C184.238 234.571 184.91 234.357 185.443 233.928C185.976 233.499 186.37 232.929 186.625 232.216C186.885 231.504 187.016 230.719 187.016 229.862C187.016 229.01 186.885 228.228 186.625 227.516C186.37 226.797 185.976 226.221 185.443 225.787C184.91 225.352 184.238 225.135 183.427 225.135C182.611 225.135 181.933 225.352 181.394 225.787C180.861 226.221 180.464 226.797 180.204 227.516C179.949 228.228 179.821 229.01 179.821 229.862C179.821 230.719 179.949 231.504 180.204 232.216C180.464 232.929 180.861 233.499 181.394 233.928C181.933 234.357 182.611 234.571 183.427 234.571ZM201.908 236.482L197.981 223.136H200.666L203.281 232.937H203.411L206.035 223.136H208.72L211.327 232.894H211.457L214.055 223.136H216.74L212.821 236.482H210.171L207.46 226.847H207.261L204.55 236.482H201.908ZM224.421 236.752C223.17 236.752 222.078 236.465 221.145 235.892C220.213 235.318 219.488 234.516 218.973 233.485C218.457 232.454 218.2 231.249 218.2 229.87C218.2 228.486 218.457 227.275 218.973 226.238C219.488 225.202 220.213 224.396 221.145 223.823C222.078 223.249 223.17 222.963 224.421 222.963C225.672 222.963 226.764 223.249 227.696 223.823C228.629 224.396 229.353 225.202 229.869 226.238C230.384 227.275 230.642 228.486 230.642 229.87C230.642 231.249 230.384 232.454 229.869 233.485C229.353 234.516 228.629 235.318 227.696 235.892C226.764 236.465 225.672 236.752 224.421 236.752ZM224.43 234.571C225.24 234.571 225.912 234.357 226.445 233.928C226.978 233.499 227.372 232.929 227.627 232.216C227.888 231.504 228.018 230.719 228.018 229.862C228.018 229.01 227.888 228.228 227.627 227.516C227.372 226.797 226.978 226.221 226.445 225.787C225.912 225.352 225.24 225.135 224.43 225.135C223.613 225.135 222.935 225.352 222.396 225.787C221.863 226.221 221.467 226.797 221.206 227.516C220.951 228.228 220.824 229.01 220.824 229.862C220.824 230.719 220.951 231.504 221.206 232.216C221.467 232.929 221.863 233.499 222.396 233.928C222.935 234.357 223.613 234.571 224.43 234.571ZM233.542 236.482V223.136H236.053V225.257H236.192C236.435 224.538 236.864 223.974 237.478 223.562C238.098 223.145 238.799 222.937 239.581 222.937C239.743 222.937 239.934 222.942 240.154 222.954C240.38 222.966 240.557 222.98 240.684 222.997V225.482C240.58 225.453 240.394 225.422 240.128 225.387C239.861 225.346 239.595 225.326 239.329 225.326C238.715 225.326 238.167 225.456 237.686 225.717C237.211 225.972 236.835 226.328 236.557 226.786C236.279 227.238 236.14 227.753 236.14 228.332V236.482H233.542ZM245.322 231.956L245.304 228.784H245.756L251.074 223.136H254.184L248.119 229.566H247.711L245.322 231.956ZM242.932 236.482V218.688H245.53V236.482H242.932ZM251.36 236.482L246.581 230.14L248.371 228.324L254.549 236.482H251.36ZM268.649 236.752C267.398 236.752 266.306 236.465 265.373 235.892C264.44 235.318 263.716 234.516 263.201 233.485C262.685 232.454 262.428 231.249 262.428 229.87C262.428 228.486 262.685 227.275 263.201 226.238C263.716 225.202 264.44 224.396 265.373 223.823C266.306 223.249 267.398 222.963 268.649 222.963C269.9 222.963 270.992 223.249 271.924 223.823C272.857 224.396 273.581 225.202 274.097 226.238C274.612 227.275 274.87 228.486 274.87 229.87C274.87 231.249 274.612 232.454 274.097 233.485C273.581 234.516 272.857 235.318 271.924 235.892C270.992 236.465 269.9 236.752 268.649 236.752ZM268.657 234.571C269.468 234.571 270.14 234.357 270.673 233.928C271.206 233.499 271.6 232.929 271.855 232.216C272.116 231.504 272.246 230.719 272.246 229.862C272.246 229.01 272.116 228.228 271.855 227.516C271.6 226.797 271.206 226.221 270.673 225.787C270.14 225.352 269.468 225.135 268.657 225.135C267.841 225.135 267.163 225.352 266.624 225.787C266.091 226.221 265.695 226.797 265.434 227.516C265.179 228.228 265.052 229.01 265.052 229.862C265.052 230.719 265.179 231.504 265.434 232.216C265.695 232.929 266.091 233.499 266.624 233.928C267.163 234.357 267.841 234.571 268.657 234.571ZM284.121 223.136V225.222H276.579V223.136H284.121ZM278.647 236.482V221.59C278.647 220.756 278.83 220.064 279.195 219.513C279.56 218.957 280.043 218.543 280.646 218.271C281.248 217.993 281.903 217.854 282.609 217.854C283.131 217.854 283.577 217.897 283.947 217.984C284.318 218.065 284.593 218.14 284.773 218.21L284.165 220.313C284.043 220.278 283.887 220.237 283.696 220.191C283.504 220.139 283.273 220.113 283 220.113C282.369 220.113 281.917 220.269 281.645 220.582C281.378 220.895 281.245 221.347 281.245 221.937V236.482H278.647ZM293.153 223.136V225.222H285.611V223.136H293.153ZM287.679 236.482V221.59C287.679 220.756 287.862 220.064 288.227 219.513C288.592 218.957 289.075 218.543 289.678 218.271C290.28 217.993 290.935 217.854 291.641 217.854C292.163 217.854 292.609 217.897 292.979 217.984C293.35 218.065 293.625 218.14 293.805 218.21L293.197 220.313C293.075 220.278 292.919 220.237 292.727 220.191C292.536 220.139 292.305 220.113 292.032 220.113C291.401 220.113 290.949 220.269 290.677 220.582C290.41 220.895 290.277 221.347 290.277 221.937V236.482H287.679ZM298.432 218.688V236.482H295.834V218.688H298.432ZM301.927 236.482V223.136H304.525V236.482H301.927ZM303.239 221.077C302.787 221.077 302.399 220.927 302.074 220.625C301.756 220.318 301.597 219.954 301.597 219.531C301.597 219.102 301.756 218.737 302.074 218.436C302.399 218.129 302.787 217.975 303.239 217.975C303.69 217.975 304.076 218.129 304.394 218.436C304.719 218.737 304.881 219.102 304.881 219.531C304.881 219.954 304.719 220.318 304.394 220.625C304.076 220.927 303.69 221.077 303.239 221.077ZM310.618 228.558V236.482H308.02V223.136H310.513V225.309H310.678C310.985 224.602 311.466 224.034 312.121 223.606C312.781 223.177 313.612 222.963 314.614 222.963C315.524 222.963 316.32 223.154 317.004 223.536C317.687 223.913 318.217 224.475 318.594 225.222C318.97 225.969 319.159 226.893 319.159 227.994V236.482H316.561V228.306C316.561 227.339 316.309 226.583 315.805 226.039C315.301 225.488 314.609 225.213 313.728 225.213C313.126 225.213 312.59 225.343 312.121 225.604C311.657 225.865 311.29 226.247 311.017 226.751C310.751 227.249 310.618 227.852 310.618 228.558ZM328.395 236.752C327.08 236.752 325.947 236.471 324.997 235.909C324.053 235.341 323.323 234.545 322.808 233.52C322.298 232.488 322.043 231.281 322.043 229.896C322.043 228.529 322.298 227.324 322.808 226.282C323.323 225.239 324.042 224.425 324.963 223.84C325.89 223.255 326.973 222.963 328.212 222.963C328.965 222.963 329.695 223.087 330.402 223.336C331.109 223.585 331.743 223.976 332.305 224.509C332.867 225.042 333.31 225.734 333.634 226.586C333.958 227.432 334.121 228.46 334.121 229.67V230.591H323.512V228.645H331.575C331.575 227.962 331.436 227.356 331.158 226.829C330.88 226.296 330.489 225.876 329.985 225.569C329.487 225.262 328.902 225.109 328.23 225.109C327.5 225.109 326.863 225.288 326.318 225.648C325.779 226.001 325.362 226.464 325.067 227.038C324.777 227.605 324.633 228.222 324.633 228.888V230.409C324.633 231.301 324.789 232.06 325.102 232.685C325.42 233.311 325.863 233.789 326.431 234.119C326.999 234.443 327.662 234.606 328.421 234.606C328.913 234.606 329.362 234.536 329.768 234.397C330.173 234.252 330.524 234.038 330.819 233.754C331.114 233.47 331.34 233.12 331.497 232.703L333.956 233.146C333.759 233.87 333.405 234.504 332.896 235.049C332.392 235.587 331.757 236.007 330.993 236.309C330.234 236.604 329.368 236.752 328.395 236.752Z" fill="#211447"/>
<rect x="378.849" y="204.881" width="80.987" height="45.202" rx="22.601" fill="#4F3895"/>
<circle cx="403.333" cy="227.482" r="16.9508" fill="#FAFAFF"/>
</g>
</g>
</g>
<defs>
<filter id="filter0_dd_262_1902" x="-9.51479" y="84.2426" width="503.03" height="294.819" filterUnits="userSpaceOnUse" color-interpolation-filters="sRGB">
<feFlood flood-opacity="0" result="BackgroundImageFix"/>
<feColorMatrix in="SourceAlpha" type="matrix" values="0 0 0 0 0 0 0 0 0 0 0 0 0 0 0 0 0 0 127 0" result="hardAlpha"/>
<feOffset dy="2.3787"/>
<feGaussianBlur stdDeviation="2.3787"/>
<feComposite in2="hardAlpha" operator="out"/>
<feColorMatrix type="matrix" values="0 0 0 0 0 0 0 0 0 0 0 0 0 0 0 0 0 0 0.08 0"/>
<feBlend mode="normal" in2="BackgroundImageFix" result="effect1_dropShadow_262_1902"/>
<feColorMatrix in="SourceAlpha" type="matrix" values="0 0 0 0 0 0 0 0 0 0 0 0 0 0 0 0 0 0 127 0" result="hardAlpha"/>
<feOffset dy="4.7574"/>
<feGaussianBlur stdDeviation="4.7574"/>
<feComposite in2="hardAlpha" operator="out"/>
<feColorMatrix type="matrix" values="0 0 0 0 0 0 0 0 0 0 0 0 0 0 0 0 0 0 0.04 0"/>
<feBlend mode="normal" in2="effect1_dropShadow_262_1902" result="effect2_dropShadow_262_1902"/>
<feBlend mode="normal" in="SourceGraphic" in2="effect2_dropShadow_262_1902" result="shape"/>
</filter>
<filter id="filter1_dd_262_1902" x="-8.65885" y="162.565" width="419.318" height="137.318" filterUnits="userSpaceOnUse" color-interpolation-filters="sRGB">
<feFlood flood-opacity="0" result="BackgroundImageFix"/>
<feColorMatrix in="SourceAlpha" type="matrix" values="0 0 0 0 0 0 0 0 0 0 0 0 0 0 0 0 0 0 127 0" result="hardAlpha"/>
<feOffset dy="4.32943"/>
<feGaussianBlur stdDeviation="4.32943"/>
<feComposite in2="hardAlpha" operator="out"/>
<feColorMatrix type="matrix" values="0 0 0 0 0 0 0 0 0 0 0 0 0 0 0 0 0 0 0.04 0"/>
<feBlend mode="normal" in2="BackgroundImageFix" result="effect1_dropShadow_262_1902"/>
<feColorMatrix in="SourceAlpha" type="matrix" values="0 0 0 0 0 0 0 0 0 0 0 0 0 0 0 0 0 0 127 0" result="hardAlpha"/>
<feOffset dy="1.44314"/>
<feGaussianBlur stdDeviation="1.44314"/>
<feComposite in2="hardAlpha" operator="out"/>
<feColorMatrix type="matrix" values="0 0 0 0 0 0 0 0 0 0 0 0 0 0 0 0 0 0 0.06 0"/>
<feBlend mode="normal" in2="effect1_dropShadow_262_1902" result="effect2_dropShadow_262_1902"/>
<feBlend mode="normal" in="SourceGraphic" in2="effect2_dropShadow_262_1902" result="shape"/>
</filter>
<filter id="filter2_ddd_262_1902" x="-7.93333" y="171.383" width="512.867" height="133.13" filterUnits="userSpaceOnUse" color-interpolation-filters="sRGB">
<feFlood flood-opacity="0" result="BackgroundImageFix"/>
<feColorMatrix in="SourceAlpha" type="matrix" values="0 0 0 0 0 0 0 0 0 0 0 0 0 0 0 0 0 0 127 0" result="hardAlpha"/>
<feOffset dy="5.07254"/>
<feGaussianBlur stdDeviation="5.07254"/>
<feComposite in2="hardAlpha" operator="out"/>
<feColorMatrix type="matrix" values="0 0 0 0 0 0 0 0 0 0 0 0 0 0 0 0 0 0 0.04 0"/>
<feBlend mode="normal" in2="BackgroundImageFix" result="effect1_dropShadow_262_1902"/>
<feColorMatrix in="SourceAlpha" type="matrix" values="0 0 0 0 0 0 0 0 0 0 0 0 0 0 0 0 0 0 127 0" result="hardAlpha"/>
<feOffset dy="2.78698"/>
<feGaussianBlur stdDeviation="2.78698"/>
<feComposite in2="hardAlpha" operator="out"/>
<feColorMatrix type="matrix" values="0 0 0 0 0 0 0 0 0 0 0 0 0 0 0 0 0 0 0.06 0"/>
<feBlend mode="normal" in2="effect1_dropShadow_262_1902" result="effect2_dropShadow_262_1902"/>
<feColorMatrix in="SourceAlpha" type="matrix" values="0 0 0 0 0 0 0 0 0 0 0 0 0 0 0 0 0 0 127 0" result="hardAlpha"/>
<feOffset dy="10.4667"/>
<feGaussianBlur stdDeviation="10.4667"/>
<feComposite in2="hardAlpha" operator="out"/>
<feColorMatrix type="matrix" values="0 0 0 0 0 0 0 0 0 0 0 0 0 0 0 0 0 0 0.04 0"/>
<feBlend mode="normal" in2="effect2_dropShadow_262_1902" result="effect3_dropShadow_262_1902"/>
<feBlend mode="normal" in="SourceGraphic" in2="effect3_dropShadow_262_1902" result="shape"/>
</filter>
<clipPath id="clip0_262_1902">
<rect width="484" height="433" fill="white"/>
</clipPath>
</defs>
</svg>
