<svg width="484" height="433" viewBox="0 0 484 433" fill="none" xmlns="http://www.w3.org/2000/svg">
<g clip-path="url(#clip0_302_1822)">
<g filter="url(#filter0_dd_302_1822)">
<mask id="path-1-inside-1_302_1822" fill="white">
<path d="M0 97C0 92.5817 3.58172 89 8 89H394C398.418 89 402 92.5817 402 97V166.894H0V97Z"/>
</mask>
<path d="M0 97C0 92.5817 3.58172 89 8 89H394C398.418 89 402 92.5817 402 97V166.894H0V97Z" fill="white"/>
<path d="M0 89H402H0ZM402 167.894H0V165.894H402V167.894ZM0 166.894V89V166.894ZM402 89V166.894V89Z" fill="#E7E5EF" mask="url(#path-1-inside-1_302_1822)"/>
<path opacity="0.78" d="M21.3253 135.447V120.26H26.7389C27.9205 120.26 28.8994 120.475 29.6756 120.905C30.4518 121.335 31.0327 121.923 31.4183 122.67C31.8039 123.411 31.9968 124.247 31.9968 125.176C31.9968 126.111 31.8015 126.951 31.4109 127.698C31.0253 128.439 30.4419 129.028 29.6608 129.463C28.8846 129.893 27.9081 130.108 26.7315 130.108H23.0087V128.165H26.5238C27.2704 128.165 27.876 128.036 28.3407 127.779C28.8055 127.517 29.1466 127.161 29.3641 126.711C29.5817 126.261 29.6904 125.75 29.6904 125.176C29.6904 124.603 29.5817 124.094 29.3641 123.649C29.1466 123.204 28.803 122.855 28.3333 122.603C27.8686 122.351 27.2555 122.225 26.4942 122.225H23.6168V135.447H21.3253ZM37.7181 135.699C36.9963 135.699 36.3437 135.566 35.7603 135.299C35.1769 135.027 34.7147 134.634 34.3736 134.12C34.0374 133.606 33.8693 132.975 33.8693 132.229C33.8693 131.586 33.9929 131.057 34.2401 130.642C34.4873 130.226 34.821 129.898 35.2412 129.655C35.6614 129.413 36.1311 129.23 36.6502 129.107C37.1693 128.983 37.6983 128.889 38.2372 128.825C38.9195 128.746 39.4732 128.682 39.8984 128.632C40.3236 128.578 40.6326 128.491 40.8254 128.373C41.0182 128.254 41.1146 128.061 41.1146 127.794V127.742C41.1146 127.095 40.9317 126.593 40.5658 126.237C40.2049 125.881 39.666 125.703 38.9491 125.703C38.2026 125.703 37.6143 125.868 37.1842 126.2C36.759 126.526 36.4648 126.889 36.3017 127.29L34.2178 126.815C34.465 126.123 34.8259 125.564 35.3005 125.139C35.7801 124.709 36.3313 124.398 36.9543 124.205C37.5772 124.007 38.2323 123.908 38.9195 123.908C39.3743 123.908 39.8564 123.963 40.3656 124.071C40.8797 124.175 41.3593 124.368 41.8043 124.65C42.2542 124.932 42.6225 125.334 42.9092 125.859C43.196 126.378 43.3393 127.052 43.3393 127.883V135.447H41.1739V133.89H41.0849C40.9415 134.177 40.7265 134.458 40.4397 134.735C40.153 135.012 39.7847 135.242 39.3348 135.425C38.8849 135.608 38.346 135.699 37.7181 135.699ZM38.2001 133.92C38.8132 133.92 39.3372 133.798 39.7723 133.556C40.2123 133.314 40.546 132.998 40.7735 132.607C41.0058 132.211 41.122 131.789 41.122 131.339V129.871C41.0429 129.95 40.8896 130.024 40.6622 130.093C40.4397 130.157 40.1851 130.214 39.8984 130.264C39.6116 130.308 39.3323 130.35 39.0604 130.39C38.7885 130.424 38.5611 130.454 38.3781 130.479C37.948 130.533 37.555 130.624 37.199 130.753C36.848 130.882 36.5662 131.067 36.3536 131.309C36.1459 131.547 36.0421 131.863 36.0421 132.258C36.0421 132.807 36.2448 133.223 36.6502 133.504C37.0556 133.781 37.5723 133.92 38.2001 133.92ZM51.0685 139.956C50.1638 139.956 49.3851 139.837 48.7325 139.6C48.0849 139.363 47.5559 139.049 47.1455 138.658C46.7352 138.268 46.4287 137.84 46.226 137.375L48.1319 136.589C48.2653 136.807 48.4433 137.037 48.6658 137.279C48.8932 137.526 49.1997 137.736 49.5854 137.909C49.9759 138.082 50.4778 138.169 51.0908 138.169C51.9313 138.169 52.6259 137.964 53.1747 137.553C53.7234 137.148 53.9978 136.5 53.9978 135.61V133.371H53.8569C53.7234 133.613 53.5306 133.883 53.2785 134.179C53.0313 134.476 52.6902 134.733 52.2551 134.95C51.82 135.168 51.2539 135.277 50.5569 135.277C49.6571 135.277 48.8463 135.067 48.1244 134.646C47.4076 134.221 46.839 133.596 46.4188 132.77C46.0035 131.94 45.7959 130.919 45.7959 129.707C45.7959 128.496 46.001 127.458 46.4114 126.593C46.8267 125.728 47.3952 125.065 48.117 124.605C48.8388 124.141 49.6571 123.908 50.5717 123.908C51.2787 123.908 51.8497 124.027 52.2848 124.264C52.7198 124.496 53.0585 124.768 53.3007 125.08C53.5479 125.391 53.7383 125.666 53.8718 125.903H54.0349V124.056H56.2078V135.699C56.2078 136.678 55.9803 137.482 55.5255 138.11C55.0707 138.737 54.4551 139.202 53.6789 139.504C52.9077 139.805 52.0376 139.956 51.0685 139.956ZM51.0463 133.438C51.6841 133.438 52.223 133.289 52.663 132.993C53.1079 132.691 53.4441 132.261 53.6715 131.702C53.9039 131.139 54.0201 130.464 54.0201 129.678C54.0201 128.911 53.9064 128.237 53.6789 127.653C53.4515 127.07 53.1178 126.615 52.6778 126.289C52.2378 125.957 51.694 125.792 51.0463 125.792C50.3789 125.792 49.8227 125.965 49.3777 126.311C48.9328 126.652 48.5966 127.117 48.3692 127.705C48.1467 128.293 48.0355 128.951 48.0355 129.678C48.0355 130.424 48.1492 131.079 48.3766 131.643C48.604 132.207 48.9402 132.647 49.3851 132.963C49.835 133.279 50.3888 133.438 51.0463 133.438ZM64.0908 135.677C62.9686 135.677 62.002 135.437 61.1912 134.958C60.3854 134.473 59.7624 133.794 59.3224 132.918C58.8874 132.038 58.6698 131.008 58.6698 129.826C58.6698 128.659 58.8874 127.631 59.3224 126.741C59.7624 125.851 60.3755 125.156 61.1616 124.657C61.9526 124.158 62.8771 123.908 63.9351 123.908C64.5778 123.908 65.2007 124.014 65.8039 124.227C66.4071 124.44 66.9484 124.773 67.428 125.228C67.9075 125.683 68.2857 126.274 68.5626 127.001C68.8395 127.722 68.9779 128.6 68.9779 129.633V130.419H59.9231V128.758H66.805C66.805 128.175 66.6864 127.658 66.4491 127.208C66.2118 126.753 65.8781 126.395 65.4479 126.133C65.0228 125.871 64.5234 125.74 63.9499 125.74C63.327 125.74 62.7832 125.893 62.3184 126.2C61.8587 126.501 61.5027 126.897 61.2506 127.386C61.0034 127.871 60.8798 128.397 60.8798 128.966V130.264C60.8798 131.025 61.0132 131.673 61.2802 132.207C61.5521 132.74 61.9303 133.148 62.4148 133.43C62.8993 133.707 63.4654 133.845 64.1131 133.845C64.5333 133.845 64.9165 133.786 65.2625 133.667C65.6086 133.544 65.9077 133.361 66.1599 133.119C66.412 132.876 66.6048 132.577 66.7383 132.221L68.837 132.6C68.6689 133.218 68.3673 133.759 67.9323 134.224C67.5021 134.683 66.9608 135.042 66.3082 135.299C65.6605 135.551 64.9214 135.677 64.0908 135.677ZM76.3938 122.232V120.26H88.1479V122.232H83.4092V135.447H81.1251V122.232H76.3938ZM89.3845 135.447V124.056H91.5277V125.866H91.6464C91.854 125.253 92.2199 124.771 92.7439 124.42C93.2729 124.064 93.8712 123.886 94.5386 123.886C94.677 123.886 94.8402 123.891 95.028 123.901C95.2208 123.911 95.3716 123.923 95.4804 123.938V126.059C95.3914 126.034 95.2332 126.007 95.0058 125.977C94.7784 125.943 94.5509 125.925 94.3235 125.925C93.7995 125.925 93.3323 126.037 92.9219 126.259C92.5165 126.477 92.1952 126.781 91.9579 127.171C91.7205 127.557 91.6019 127.997 91.6019 128.491V135.447H89.3845ZM100.612 135.699C99.8904 135.699 99.2378 135.566 98.6544 135.299C98.071 135.027 97.6088 134.634 97.2676 134.12C96.9314 133.606 96.7633 132.975 96.7633 132.229C96.7633 131.586 96.8869 131.057 97.1341 130.642C97.3813 130.226 97.715 129.898 98.1353 129.655C98.5555 129.413 99.0252 129.23 99.5443 129.107C100.063 128.983 100.592 128.889 101.131 128.825C101.814 128.746 102.367 128.682 102.792 128.632C103.218 128.578 103.527 128.491 103.719 128.373C103.912 128.254 104.009 128.061 104.009 127.794V127.742C104.009 127.095 103.826 126.593 103.46 126.237C103.099 125.881 102.56 125.703 101.843 125.703C101.097 125.703 100.508 125.868 100.078 126.2C99.6531 126.526 99.3589 126.889 99.1958 127.29L97.1119 126.815C97.3591 126.123 97.72 125.564 98.1946 125.139C98.6742 124.709 99.2254 124.398 99.8483 124.205C100.471 124.007 101.126 123.908 101.814 123.908C102.268 123.908 102.75 123.963 103.26 124.071C103.774 124.175 104.253 124.368 104.698 124.65C105.148 124.932 105.517 125.334 105.803 125.859C106.09 126.378 106.233 127.052 106.233 127.883V135.447H104.068V133.89H103.979C103.836 134.177 103.621 134.458 103.334 134.735C103.047 135.012 102.679 135.242 102.229 135.425C101.779 135.608 101.24 135.699 100.612 135.699ZM101.094 133.92C101.707 133.92 102.231 133.798 102.666 133.556C103.106 133.314 103.44 132.998 103.668 132.607C103.9 132.211 104.016 131.789 104.016 131.339V129.871C103.937 129.95 103.784 130.024 103.556 130.093C103.334 130.157 103.079 130.214 102.792 130.264C102.506 130.308 102.226 130.35 101.954 130.39C101.683 130.424 101.455 130.454 101.272 130.479C100.842 130.533 100.449 130.624 100.093 130.753C99.7421 130.882 99.4603 131.067 99.2477 131.309C99.04 131.547 98.9362 131.863 98.9362 132.258C98.9362 132.807 99.1389 133.223 99.5443 133.504C99.9497 133.781 100.466 133.92 101.094 133.92ZM111.404 128.684V135.447H109.187V124.056H111.315V125.91H111.456C111.718 125.307 112.128 124.823 112.687 124.457C113.251 124.091 113.96 123.908 114.815 123.908C115.592 123.908 116.271 124.071 116.855 124.398C117.438 124.719 117.891 125.199 118.212 125.836C118.533 126.474 118.694 127.263 118.694 128.202V135.447H116.477V128.469C116.477 127.643 116.262 126.998 115.831 126.533C115.401 126.064 114.811 125.829 114.059 125.829C113.545 125.829 113.088 125.94 112.687 126.163C112.292 126.385 111.978 126.711 111.745 127.141C111.518 127.567 111.404 128.081 111.404 128.684ZM130.203 126.837L128.194 127.193C128.11 126.936 127.976 126.692 127.793 126.459C127.615 126.227 127.373 126.037 127.066 125.888C126.76 125.74 126.377 125.666 125.917 125.666C125.289 125.666 124.765 125.807 124.345 126.088C123.925 126.365 123.714 126.724 123.714 127.164C123.714 127.544 123.855 127.851 124.137 128.083C124.419 128.316 124.874 128.506 125.502 128.654L127.311 129.07C128.359 129.312 129.14 129.685 129.655 130.189C130.169 130.694 130.426 131.349 130.426 132.155C130.426 132.837 130.228 133.445 129.833 133.979C129.442 134.508 128.896 134.923 128.194 135.225C127.497 135.526 126.688 135.677 125.769 135.677C124.493 135.677 123.452 135.405 122.647 134.861C121.841 134.313 121.346 133.534 121.163 132.525L123.307 132.199C123.44 132.758 123.714 133.18 124.13 133.467C124.545 133.749 125.086 133.89 125.754 133.89C126.481 133.89 127.062 133.739 127.497 133.438C127.932 133.131 128.149 132.758 128.149 132.318C128.149 131.962 128.016 131.663 127.749 131.42C127.487 131.178 127.084 130.995 126.54 130.872L124.612 130.449C123.549 130.207 122.763 129.821 122.254 129.292C121.749 128.763 121.497 128.093 121.497 127.282C121.497 126.61 121.685 126.022 122.061 125.517C122.436 125.013 122.956 124.62 123.618 124.338C124.281 124.052 125.039 123.908 125.895 123.908C127.126 123.908 128.095 124.175 128.802 124.709C129.509 125.238 129.976 125.948 130.203 126.837ZM132.864 135.447V124.056H135.081V135.447H132.864ZM133.984 122.299C133.598 122.299 133.267 122.17 132.99 121.913C132.718 121.651 132.582 121.34 132.582 120.979C132.582 120.613 132.718 120.302 132.99 120.044C133.267 119.782 133.598 119.651 133.984 119.651C134.369 119.651 134.698 119.782 134.97 120.044C135.247 120.302 135.385 120.613 135.385 120.979C135.385 121.34 135.247 121.651 134.97 121.913C134.698 122.17 134.369 122.299 133.984 122.299ZM143.381 124.056V125.836H137.159V124.056H143.381ZM138.828 121.327H141.045V132.103C141.045 132.533 141.11 132.857 141.238 133.074C141.367 133.287 141.532 133.433 141.735 133.512C141.943 133.586 142.168 133.623 142.41 133.623C142.588 133.623 142.744 133.611 142.877 133.586C143.011 133.561 143.114 133.541 143.189 133.527L143.589 135.358C143.461 135.408 143.278 135.457 143.04 135.507C142.803 135.561 142.506 135.591 142.15 135.596C141.567 135.605 141.023 135.502 140.519 135.284C140.015 135.067 139.607 134.73 139.295 134.276C138.984 133.821 138.828 133.25 138.828 132.562V121.327ZM145.834 135.447V124.056H148.052V135.447H145.834ZM146.954 122.299C146.568 122.299 146.237 122.17 145.96 121.913C145.688 121.651 145.552 121.34 145.552 120.979C145.552 120.613 145.688 120.302 145.96 120.044C146.237 119.782 146.568 119.651 146.954 119.651C147.34 119.651 147.668 119.782 147.94 120.044C148.217 120.302 148.356 120.613 148.356 120.979C148.356 121.34 148.217 121.651 147.94 121.913C147.668 122.17 147.34 122.299 146.954 122.299ZM155.833 135.677C154.765 135.677 153.833 135.432 153.037 134.943C152.241 134.454 151.623 133.769 151.183 132.889C150.743 132.009 150.523 130.98 150.523 129.804C150.523 128.622 150.743 127.589 151.183 126.704C151.623 125.819 152.241 125.132 153.037 124.642C153.833 124.153 154.765 123.908 155.833 123.908C156.901 123.908 157.832 124.153 158.628 124.642C159.424 125.132 160.042 125.819 160.482 126.704C160.922 127.589 161.142 128.622 161.142 129.804C161.142 130.98 160.922 132.009 160.482 132.889C160.042 133.769 159.424 134.454 158.628 134.943C157.832 135.432 156.901 135.677 155.833 135.677ZM155.84 133.816C156.532 133.816 157.106 133.633 157.561 133.267C158.015 132.901 158.352 132.414 158.569 131.806C158.792 131.198 158.903 130.528 158.903 129.796C158.903 129.07 158.792 128.402 158.569 127.794C158.352 127.181 158.015 126.689 157.561 126.318C157.106 125.948 156.532 125.762 155.84 125.762C155.143 125.762 154.565 125.948 154.105 126.318C153.65 126.689 153.311 127.181 153.089 127.794C152.871 128.402 152.762 129.07 152.762 129.796C152.762 130.528 152.871 131.198 153.089 131.806C153.311 132.414 153.65 132.901 154.105 133.267C154.565 133.633 155.143 133.816 155.84 133.816ZM165.835 128.684V135.447H163.617V124.056H165.746V125.91H165.887C166.149 125.307 166.559 124.823 167.118 124.457C167.681 124.091 168.391 123.908 169.246 123.908C170.022 123.908 170.702 124.071 171.286 124.398C171.869 124.719 172.321 125.199 172.643 125.836C172.964 126.474 173.125 127.263 173.125 128.202V135.447H170.907V128.469C170.907 127.643 170.692 126.998 170.262 126.533C169.832 126.064 169.241 125.829 168.49 125.829C167.976 125.829 167.518 125.94 167.118 126.163C166.722 126.385 166.408 126.711 166.176 127.141C165.949 127.567 165.835 128.081 165.835 128.684ZM181.803 135.447V120.26H191.325V122.232H184.095V126.86H190.828V128.825H184.095V133.475H191.414V135.447H181.803ZM199.629 124.056V125.836H193.192V124.056H199.629ZM194.957 135.447V122.736C194.957 122.025 195.113 121.434 195.424 120.964C195.736 120.489 196.148 120.136 196.663 119.904C197.177 119.666 197.735 119.548 198.339 119.548C198.784 119.548 199.164 119.585 199.481 119.659C199.797 119.728 200.032 119.792 200.185 119.852L199.666 121.646C199.562 121.617 199.429 121.582 199.266 121.542C199.102 121.498 198.905 121.476 198.672 121.476C198.133 121.476 197.748 121.609 197.515 121.876C197.288 122.143 197.174 122.529 197.174 123.033V135.447H194.957ZM207.338 124.056V125.836H200.901V124.056H207.338ZM202.666 135.447V122.736C202.666 122.025 202.822 121.434 203.133 120.964C203.444 120.489 203.857 120.136 204.371 119.904C204.886 119.666 205.444 119.548 206.047 119.548C206.492 119.548 206.873 119.585 207.189 119.659C207.506 119.728 207.741 119.792 207.894 119.852L207.375 121.646C207.271 121.617 207.138 121.582 206.974 121.542C206.811 121.498 206.614 121.476 206.381 121.476C205.842 121.476 205.457 121.609 205.224 121.876C204.997 122.143 204.883 122.529 204.883 123.033V135.447H202.666ZM214.086 135.677C212.964 135.677 211.997 135.437 211.187 134.958C210.381 134.473 209.758 133.794 209.318 132.918C208.883 132.038 208.665 131.008 208.665 129.826C208.665 128.659 208.883 127.631 209.318 126.741C209.758 125.851 210.371 125.156 211.157 124.657C211.948 124.158 212.873 123.908 213.931 123.908C214.573 123.908 215.196 124.014 215.799 124.227C216.402 124.44 216.944 124.773 217.423 125.228C217.903 125.683 218.281 126.274 218.558 127.001C218.835 127.722 218.973 128.6 218.973 129.633V130.419H209.919V128.758H216.8C216.8 128.175 216.682 127.658 216.445 127.208C216.207 126.753 215.873 126.395 215.443 126.133C215.018 125.871 214.519 125.74 213.945 125.74C213.322 125.74 212.779 125.893 212.314 126.2C211.854 126.501 211.498 126.897 211.246 127.386C210.999 127.871 210.875 128.397 210.875 128.966V130.264C210.875 131.025 211.009 131.673 211.276 132.207C211.548 132.74 211.926 133.148 212.41 133.43C212.895 133.707 213.461 133.845 214.109 133.845C214.529 133.845 214.912 133.786 215.258 133.667C215.604 133.544 215.903 133.361 216.155 133.119C216.407 132.876 216.6 132.577 216.734 132.221L218.832 132.6C218.664 133.218 218.363 133.759 217.928 134.224C217.498 134.683 216.956 135.042 216.304 135.299C215.656 135.551 214.917 135.677 214.086 135.677ZM226.232 135.677C225.129 135.677 224.18 135.427 223.384 134.928C222.593 134.424 221.985 133.729 221.56 132.844C221.134 131.959 220.922 130.946 220.922 129.804C220.922 128.647 221.139 127.626 221.574 126.741C222.01 125.851 222.623 125.156 223.414 124.657C224.205 124.158 225.137 123.908 226.209 123.908C227.075 123.908 227.846 124.069 228.523 124.39C229.2 124.707 229.747 125.152 230.162 125.725C230.582 126.299 230.832 126.968 230.911 127.735H228.753C228.634 127.201 228.362 126.741 227.937 126.355C227.517 125.97 226.953 125.777 226.246 125.777C225.628 125.777 225.087 125.94 224.622 126.266C224.163 126.588 223.804 127.048 223.547 127.646C223.29 128.239 223.161 128.941 223.161 129.752C223.161 130.582 223.288 131.299 223.54 131.902C223.792 132.506 224.148 132.973 224.608 133.304C225.072 133.635 225.619 133.801 226.246 133.801C226.667 133.801 227.047 133.724 227.388 133.571C227.735 133.413 228.024 133.188 228.256 132.896C228.493 132.605 228.659 132.253 228.753 131.843H230.911C230.832 132.58 230.592 133.237 230.192 133.816C229.791 134.394 229.255 134.849 228.582 135.18C227.915 135.512 227.131 135.677 226.232 135.677ZM238.599 124.056V125.836H232.378V124.056H238.599ZM234.046 121.327H236.263V132.103C236.263 132.533 236.328 132.857 236.456 133.074C236.585 133.287 236.75 133.433 236.953 133.512C237.161 133.586 237.386 133.623 237.628 133.623C237.806 133.623 237.962 133.611 238.095 133.586C238.229 133.561 238.332 133.541 238.407 133.527L238.807 135.358C238.679 135.408 238.496 135.457 238.258 135.507C238.021 135.561 237.724 135.591 237.368 135.596C236.785 135.605 236.241 135.502 235.737 135.284C235.233 135.067 234.825 134.73 234.513 134.276C234.202 133.821 234.046 133.25 234.046 132.562V121.327Z" fill="#6A676F"/>
<g opacity="0.78">
<rect x="313.221" y="108.656" width="69.1227" height="38.5801" rx="19.29" fill="#D4D5E0"/>
<circle cx="334.118" cy="127.946" r="14.4675" fill="#FAFAFF"/>
</g>
<g filter="url(#filter1_dd_302_1822)">
<rect width="402" height="120" transform="translate(0 166.895)" fill="white"/>
</g>
<path d="M0 286.895H402V356.788C402 361.207 398.418 364.788 394 364.788H8C3.58172 364.788 0 361.207 0 356.788V286.895Z" fill="white"/>
<path opacity="0.78" d="M29.6088 322.144C29.5297 321.442 29.2034 320.898 28.63 320.512C28.0565 320.122 27.3346 319.926 26.4645 319.926C25.8416 319.926 25.3027 320.025 24.8479 320.223C24.393 320.416 24.0395 320.683 23.7874 321.024C23.5402 321.36 23.4166 321.743 23.4166 322.173C23.4166 322.534 23.5006 322.846 23.6687 323.108C23.8418 323.37 24.0667 323.59 24.3436 323.768C24.6254 323.941 24.927 324.087 25.2483 324.205C25.5697 324.319 25.8787 324.413 26.1753 324.487L27.6585 324.873C28.143 324.992 28.6398 325.152 29.1491 325.355C29.6583 325.558 30.1304 325.825 30.5655 326.156C31.0006 326.487 31.3516 326.897 31.6186 327.387C31.8905 327.876 32.0264 328.462 32.0264 329.144C32.0264 330.005 31.8039 330.768 31.359 331.436C30.919 332.103 30.2787 332.63 29.4383 333.015C28.6028 333.401 27.5917 333.594 26.4052 333.594C25.2681 333.594 24.2842 333.413 23.4537 333.053C22.6231 332.692 21.973 332.18 21.5033 331.517C21.0336 330.85 20.7741 330.059 20.7246 329.144H23.0235C23.068 329.693 23.246 330.15 23.5575 330.516C23.8739 330.877 24.2768 331.147 24.7663 331.325C25.2607 331.498 25.802 331.584 26.3904 331.584C27.038 331.584 27.614 331.483 28.1183 331.28C28.6275 331.073 29.0279 330.786 29.3196 330.42C29.6113 330.049 29.7572 329.617 29.7572 329.122C29.7572 328.672 29.6286 328.304 29.3715 328.017C29.1194 327.73 28.7758 327.493 28.3407 327.305C27.9106 327.117 27.4236 326.952 26.8798 326.808L25.0852 326.319C23.869 325.988 22.9049 325.501 22.193 324.858C21.486 324.215 21.1325 323.365 21.1325 322.307C21.1325 321.432 21.3698 320.668 21.8444 320.015C22.319 319.363 22.9617 318.856 23.7726 318.495C24.5834 318.129 25.498 317.946 26.5164 317.946C27.5448 317.946 28.452 318.127 29.2381 318.488C30.0291 318.849 30.652 319.346 31.1069 319.978C31.5617 320.606 31.799 321.328 31.8188 322.144H29.6088ZM36.8041 326.579V333.342H34.5868V318.154H36.7744V323.805H36.9153C37.1823 323.192 37.5902 322.705 38.139 322.344C38.6877 321.983 39.4046 321.803 40.2896 321.803C41.0707 321.803 41.753 321.963 42.3364 322.285C42.9247 322.606 43.3795 323.086 43.7009 323.723C44.0272 324.356 44.1903 325.147 44.1903 326.096V333.342H41.973V326.363C41.973 325.528 41.7579 324.88 41.3278 324.42C40.8977 323.956 40.2995 323.723 39.5331 323.723C39.0091 323.723 38.5394 323.835 38.1241 324.057C37.7138 324.28 37.39 324.606 37.1527 325.036C36.9203 325.461 36.8041 325.975 36.8041 326.579ZM51.9473 333.572C50.8794 333.572 49.9475 333.327 49.1515 332.838C48.3556 332.348 47.7376 331.663 47.2976 330.783C46.8576 329.903 46.6376 328.875 46.6376 327.698C46.6376 326.517 46.8576 325.483 47.2976 324.598C47.7376 323.714 48.3556 323.026 49.1515 322.537C49.9475 322.047 50.8794 321.803 51.9473 321.803C53.0152 321.803 53.9471 322.047 54.7431 322.537C55.5391 323.026 56.1571 323.714 56.5971 324.598C57.0371 325.483 57.2571 326.517 57.2571 327.698C57.2571 328.875 57.0371 329.903 56.5971 330.783C56.1571 331.663 55.5391 332.348 54.7431 332.838C53.9471 333.327 53.0152 333.572 51.9473 333.572ZM51.9547 331.71C52.6469 331.71 53.2204 331.527 53.6752 331.162C54.1301 330.796 54.4663 330.309 54.6838 329.701C54.9063 329.092 55.0175 328.423 55.0175 327.691C55.0175 326.964 54.9063 326.297 54.6838 325.689C54.4663 325.076 54.1301 324.584 53.6752 324.213C53.2204 323.842 52.6469 323.657 51.9547 323.657C51.2577 323.657 50.6792 323.842 50.2194 324.213C49.7646 324.584 49.4259 325.076 49.2035 325.689C48.9859 326.297 48.8772 326.964 48.8772 327.691C48.8772 328.423 48.9859 329.092 49.2035 329.701C49.4259 330.309 49.7646 330.796 50.2194 331.162C50.6792 331.527 51.2577 331.71 51.9547 331.71ZM61.8549 333.342L58.503 321.951H60.7945L63.0267 330.316H63.1379L65.3775 321.951H67.669L69.8938 330.279H70.005L72.2223 321.951H74.5139L71.1693 333.342H68.9074L66.5937 325.118H66.4231L64.1094 333.342H61.8549ZM87.9069 328.418H90.1614L91.7484 330.487L92.4974 331.406L95.0262 334.706H92.6828L90.9919 332.504L90.4135 331.703L87.9069 328.418ZM95.5156 325.748C95.5156 327.37 95.219 328.764 94.6257 329.93C94.0324 331.092 93.2192 331.987 92.1859 332.615C91.1576 333.238 89.9883 333.549 88.6782 333.549C87.3631 333.549 86.1889 333.238 85.1556 332.615C84.1273 331.987 83.3165 331.09 82.7232 329.923C82.13 328.756 81.8333 327.365 81.8333 325.748C81.8333 324.126 82.13 322.735 82.7232 321.573C83.3165 320.406 84.1273 319.511 85.1556 318.888C86.1889 318.26 87.3631 317.946 88.6782 317.946C89.9883 317.946 91.1576 318.26 92.1859 318.888C93.2192 319.511 94.0324 320.406 94.6257 321.573C95.219 322.735 95.5156 324.126 95.5156 325.748ZM93.2464 325.748C93.2464 324.512 93.0461 323.471 92.6457 322.626C92.2502 321.775 91.7063 321.133 91.0142 320.698C90.327 320.258 89.5483 320.038 88.6782 320.038C87.8031 320.038 87.022 320.258 86.3348 320.698C85.6476 321.133 85.1037 321.775 84.7033 322.626C84.3078 323.471 84.11 324.512 84.11 325.748C84.11 326.984 84.3078 328.027 84.7033 328.877C85.1037 329.723 85.6476 330.366 86.3348 330.806C87.022 331.241 87.8031 331.458 88.6782 331.458C89.5483 331.458 90.327 331.241 91.0142 330.806C91.7063 330.366 92.2502 329.723 92.6457 328.877C93.0461 328.027 93.2464 326.984 93.2464 325.748ZM105.41 328.618V321.951H107.635V333.342H105.455V331.369H105.336C105.074 331.977 104.654 332.484 104.075 332.889C103.502 333.29 102.788 333.49 101.932 333.49C101.201 333.49 100.553 333.329 99.9892 333.008C99.4306 332.682 98.9906 332.2 98.6692 331.562C98.3528 330.924 98.1946 330.136 98.1946 329.196V321.951H100.412V328.929C100.412 329.706 100.627 330.324 101.057 330.783C101.487 331.243 102.046 331.473 102.733 331.473C103.148 331.473 103.561 331.369 103.972 331.162C104.387 330.954 104.73 330.64 105.002 330.22C105.279 329.799 105.415 329.266 105.41 328.618ZM115.524 333.572C114.401 333.572 113.435 333.332 112.624 332.852C111.818 332.368 111.195 331.688 110.755 330.813C110.32 329.933 110.103 328.902 110.103 327.721C110.103 326.554 110.32 325.525 110.755 324.636C111.195 323.746 111.808 323.051 112.594 322.552C113.385 322.052 114.31 321.803 115.368 321.803C116.011 321.803 116.634 321.909 117.237 322.122C117.84 322.334 118.381 322.668 118.861 323.123C119.34 323.578 119.719 324.168 119.995 324.895C120.272 325.617 120.411 326.494 120.411 327.528V328.314H111.356V326.653H118.238C118.238 326.069 118.119 325.553 117.882 325.103C117.645 324.648 117.311 324.289 116.881 324.027C116.456 323.765 115.956 323.634 115.383 323.634C114.76 323.634 114.216 323.788 113.751 324.094C113.291 324.396 112.936 324.791 112.683 325.281C112.436 325.765 112.313 326.292 112.313 326.86V328.158C112.313 328.919 112.446 329.567 112.713 330.101C112.985 330.635 113.363 331.043 113.848 331.325C114.332 331.602 114.898 331.74 115.546 331.74C115.966 331.74 116.349 331.681 116.695 331.562C117.041 331.438 117.341 331.255 117.593 331.013C117.845 330.771 118.038 330.472 118.171 330.116L120.27 330.494C120.102 331.112 119.8 331.653 119.365 332.118C118.935 332.578 118.394 332.936 117.741 333.193C117.093 333.446 116.354 333.572 115.524 333.572ZM131.407 324.732L129.397 325.088C129.313 324.831 129.179 324.586 128.996 324.354C128.818 324.121 128.576 323.931 128.27 323.783C127.963 323.634 127.58 323.56 127.12 323.56C126.492 323.56 125.968 323.701 125.548 323.983C125.128 324.26 124.918 324.618 124.918 325.058C124.918 325.439 125.059 325.745 125.34 325.978C125.622 326.21 126.077 326.401 126.705 326.549L128.514 326.964C129.563 327.206 130.344 327.58 130.858 328.084C131.372 328.588 131.629 329.243 131.629 330.049C131.629 330.731 131.431 331.34 131.036 331.873C130.645 332.402 130.099 332.818 129.397 333.119C128.7 333.421 127.891 333.572 126.972 333.572C125.696 333.572 124.656 333.3 123.85 332.756C123.044 332.207 122.55 331.428 122.367 330.42L124.51 330.094C124.643 330.652 124.918 331.075 125.333 331.362C125.748 331.644 126.29 331.784 126.957 331.784C127.684 331.784 128.265 331.634 128.7 331.332C129.135 331.026 129.352 330.652 129.352 330.212C129.352 329.856 129.219 329.557 128.952 329.315C128.69 329.073 128.287 328.89 127.743 328.766L125.815 328.343C124.752 328.101 123.966 327.716 123.457 327.187C122.953 326.658 122.7 325.988 122.7 325.177C122.7 324.505 122.888 323.916 123.264 323.412C123.64 322.908 124.159 322.515 124.821 322.233C125.484 321.946 126.243 321.803 127.098 321.803C128.329 321.803 129.298 322.07 130.005 322.604C130.712 323.133 131.179 323.842 131.407 324.732ZM139.384 321.951V323.731H133.162V321.951H139.384ZM134.831 319.222H137.048V329.997C137.048 330.427 137.113 330.751 137.241 330.969C137.37 331.181 137.535 331.327 137.738 331.406C137.946 331.48 138.171 331.517 138.413 331.517C138.591 331.517 138.746 331.505 138.88 331.48C139.013 331.456 139.117 331.436 139.191 331.421L139.592 333.253C139.463 333.302 139.28 333.352 139.043 333.401C138.806 333.456 138.509 333.485 138.153 333.49C137.57 333.5 137.026 333.396 136.522 333.179C136.017 332.961 135.61 332.625 135.298 332.17C134.987 331.715 134.831 331.144 134.831 330.457V319.222ZM141.837 333.342V321.951H144.054V333.342H141.837ZM142.957 320.193C142.571 320.193 142.24 320.065 141.963 319.808C141.691 319.546 141.555 319.234 141.555 318.873C141.555 318.508 141.691 318.196 141.963 317.939C142.24 317.677 142.571 317.546 142.957 317.546C143.342 317.546 143.671 317.677 143.943 317.939C144.22 318.196 144.358 318.508 144.358 318.873C144.358 319.234 144.22 319.546 143.943 319.808C143.671 320.065 143.342 320.193 142.957 320.193ZM151.836 333.572C150.768 333.572 149.836 333.327 149.04 332.838C148.244 332.348 147.626 331.663 147.186 330.783C146.746 329.903 146.526 328.875 146.526 327.698C146.526 326.517 146.746 325.483 147.186 324.598C147.626 323.714 148.244 323.026 149.04 322.537C149.836 322.047 150.768 321.803 151.836 321.803C152.903 321.803 153.835 322.047 154.631 322.537C155.427 323.026 156.045 323.714 156.485 324.598C156.925 325.483 157.145 326.517 157.145 327.698C157.145 328.875 156.925 329.903 156.485 330.783C156.045 331.663 155.427 332.348 154.631 332.838C153.835 333.327 152.903 333.572 151.836 333.572ZM151.843 331.71C152.535 331.71 153.109 331.527 153.563 331.162C154.018 330.796 154.354 330.309 154.572 329.701C154.794 329.092 154.906 328.423 154.906 327.691C154.906 326.964 154.794 326.297 154.572 325.689C154.354 325.076 154.018 324.584 153.563 324.213C153.109 323.842 152.535 323.657 151.843 323.657C151.146 323.657 150.567 323.842 150.108 324.213C149.653 324.584 149.314 325.076 149.092 325.689C148.874 326.297 148.765 326.964 148.765 327.691C148.765 328.423 148.874 329.092 149.092 329.701C149.314 330.309 149.653 330.796 150.108 331.162C150.567 331.527 151.146 331.71 151.843 331.71ZM161.838 326.579V333.342H159.62V321.951H161.749V323.805H161.89C162.152 323.202 162.562 322.717 163.121 322.351C163.684 321.986 164.394 321.803 165.249 321.803C166.025 321.803 166.705 321.966 167.288 322.292C167.872 322.613 168.324 323.093 168.645 323.731C168.967 324.369 169.127 325.157 169.127 326.096V333.342H166.91V326.363C166.91 325.538 166.695 324.893 166.265 324.428C165.835 323.958 165.244 323.723 164.493 323.723C163.978 323.723 163.521 323.835 163.121 324.057C162.725 324.28 162.411 324.606 162.179 325.036C161.951 325.461 161.838 325.975 161.838 326.579ZM190.064 318.154V333.342H187.958L180.238 322.203H180.097V333.342H177.806V318.154H179.927L187.654 329.308H187.795V318.154H190.064ZM200.445 328.618V321.951H202.67V333.342H200.489V331.369H200.371C200.109 331.977 199.688 332.484 199.11 332.889C198.536 333.29 197.822 333.49 196.967 333.49C196.235 333.49 195.587 333.329 195.024 333.008C194.465 332.682 194.025 332.2 193.704 331.562C193.387 330.924 193.229 330.136 193.229 329.196V321.951H195.446V328.929C195.446 329.706 195.662 330.324 196.092 330.783C196.522 331.243 197.08 331.473 197.768 331.473C198.183 331.473 198.596 331.369 199.006 331.162C199.421 330.954 199.765 330.64 200.037 330.22C200.314 329.799 200.45 329.266 200.445 328.618ZM205.649 333.342V321.951H207.777V323.805H207.918C208.155 323.177 208.544 322.688 209.082 322.337C209.621 321.981 210.266 321.803 211.018 321.803C211.779 321.803 212.417 321.981 212.931 322.337C213.45 322.693 213.833 323.182 214.081 323.805H214.199C214.471 323.197 214.904 322.712 215.497 322.351C216.09 321.986 216.797 321.803 217.618 321.803C218.651 321.803 219.494 322.127 220.147 322.774C220.804 323.422 221.133 324.398 221.133 325.703V333.342H218.916V325.911C218.916 325.14 218.706 324.581 218.285 324.235C217.865 323.889 217.363 323.716 216.78 323.716C216.058 323.716 215.497 323.938 215.097 324.383C214.696 324.823 214.496 325.39 214.496 326.082V333.342H212.286V325.77C212.286 325.152 212.093 324.655 211.708 324.28C211.322 323.904 210.82 323.716 210.202 323.716C209.782 323.716 209.394 323.827 209.038 324.05C208.687 324.267 208.403 324.571 208.185 324.962C207.972 325.352 207.866 325.805 207.866 326.319V333.342H205.649ZM224.283 333.342V318.154H226.5V323.798H226.634C226.762 323.56 226.948 323.286 227.19 322.974C227.432 322.663 227.769 322.391 228.199 322.159C228.629 321.921 229.197 321.803 229.904 321.803C230.824 321.803 231.645 322.035 232.366 322.5C233.088 322.965 233.654 323.634 234.065 324.509C234.48 325.385 234.688 326.438 234.688 327.669C234.688 328.9 234.482 329.955 234.072 330.835C233.662 331.71 233.098 332.385 232.381 332.86C231.664 333.329 230.846 333.564 229.927 333.564C229.234 333.564 228.668 333.448 228.228 333.216C227.793 332.983 227.452 332.711 227.205 332.4C226.958 332.089 226.767 331.812 226.634 331.569H226.449V333.342H224.283ZM226.456 327.646C226.456 328.447 226.572 329.149 226.804 329.753C227.037 330.356 227.373 330.828 227.813 331.169C228.253 331.505 228.792 331.673 229.43 331.673C230.092 331.673 230.646 331.498 231.091 331.147C231.536 330.791 231.872 330.309 232.099 329.701C232.332 329.092 232.448 328.408 232.448 327.646C232.448 326.895 232.334 326.22 232.107 325.622C231.884 325.024 231.548 324.552 231.098 324.205C230.653 323.859 230.097 323.686 229.43 323.686C228.787 323.686 228.243 323.852 227.798 324.183C227.358 324.514 227.024 324.977 226.797 325.57C226.57 326.163 226.456 326.855 226.456 327.646ZM242.087 333.572C240.964 333.572 239.998 333.332 239.187 332.852C238.381 332.368 237.758 331.688 237.318 330.813C236.883 329.933 236.666 328.902 236.666 327.721C236.666 326.554 236.883 325.525 237.318 324.636C237.758 323.746 238.371 323.051 239.157 322.552C239.949 322.052 240.873 321.803 241.931 321.803C242.574 321.803 243.197 321.909 243.8 322.122C244.403 322.334 244.944 322.668 245.424 323.123C245.903 323.578 246.282 324.168 246.559 324.895C246.835 325.617 246.974 326.494 246.974 327.528V328.314H237.919V326.653H244.801C244.801 326.069 244.682 325.553 244.445 325.103C244.208 324.648 243.874 324.289 243.444 324.027C243.019 323.765 242.519 323.634 241.946 323.634C241.323 323.634 240.779 323.788 240.314 324.094C239.855 324.396 239.499 324.791 239.246 325.281C238.999 325.765 238.876 326.292 238.876 326.86V328.158C238.876 328.919 239.009 329.567 239.276 330.101C239.548 330.635 239.926 331.043 240.411 331.325C240.895 331.602 241.461 331.74 242.109 331.74C242.529 331.74 242.912 331.681 243.258 331.562C243.605 331.438 243.904 331.255 244.156 331.013C244.408 330.771 244.601 330.472 244.734 330.116L246.833 330.494C246.665 331.112 246.363 331.653 245.928 332.118C245.498 332.578 244.957 332.936 244.304 333.193C243.656 333.446 242.917 333.572 242.087 333.572ZM249.434 333.342V321.951H251.577V323.76H251.696C251.904 323.147 252.269 322.665 252.793 322.314C253.322 321.958 253.921 321.78 254.588 321.78C254.727 321.78 254.89 321.785 255.078 321.795C255.27 321.805 255.421 321.818 255.53 321.832V323.953C255.441 323.929 255.283 323.901 255.055 323.872C254.828 323.837 254.6 323.82 254.373 323.82C253.849 323.82 253.382 323.931 252.971 324.154C252.566 324.371 252.245 324.675 252.007 325.066C251.77 325.451 251.651 325.891 251.651 326.386V333.342H249.434Z" fill="#6A676F"/>
<g opacity="0.78">
<rect x="313.22" y="306.551" width="69.1227" height="38.5801" rx="19.29" fill="#D4D5E0"/>
<circle cx="334.118" cy="325.841" r="14.4675" fill="#FAFAFF"/>
</g>
<g filter="url(#filter2_ddd_302_1822)">
<rect x="13" y="181.85" width="471" height="91.2638" rx="6.76338" fill="white"/>
<path d="M39.4889 236.482H36.639L43.0426 218.688H46.1445L52.5481 236.482H49.6982L44.6674 221.92H44.5284L39.4889 236.482ZM39.9668 229.514H49.2116V231.773H39.9668V229.514ZM57.5072 218.688V236.482H54.9093V218.688H57.5072ZM63.6002 218.688V236.482H61.0022V218.688H63.6002ZM72.7169 236.752C71.4657 236.752 70.3738 236.465 69.4412 235.892C68.5086 235.318 67.7845 234.516 67.269 233.485C66.7535 232.454 66.4957 231.249 66.4957 229.87C66.4957 228.486 66.7535 227.275 67.269 226.238C67.7845 225.202 68.5086 224.396 69.4412 223.823C70.3738 223.249 71.4657 222.963 72.7169 222.963C73.968 222.963 75.0599 223.249 75.9925 223.823C76.9251 224.396 77.6492 225.202 78.1647 226.238C78.6802 227.275 78.938 228.486 78.938 229.87C78.938 231.249 78.6802 232.454 78.1647 233.485C77.6492 234.516 76.9251 235.318 75.9925 235.892C75.0599 236.465 73.968 236.752 72.7169 236.752ZM72.7255 234.571C73.5365 234.571 74.2084 234.357 74.7413 233.928C75.2742 233.499 75.6681 232.929 75.923 232.216C76.1837 231.504 76.314 230.719 76.314 229.862C76.314 229.01 76.1837 228.228 75.923 227.516C75.6681 226.797 75.2742 226.221 74.7413 225.787C74.2084 225.352 73.5365 225.135 72.7255 225.135C71.9088 225.135 71.2311 225.352 70.6924 225.787C70.1595 226.221 69.7627 226.797 69.502 227.516C69.2471 228.228 69.1197 229.01 69.1197 229.862C69.1197 230.719 69.2471 231.504 69.502 232.216C69.7627 232.929 70.1595 233.499 70.6924 233.928C71.2311 234.357 71.9088 234.571 72.7255 234.571ZM84.325 236.482L80.3977 223.136H83.0825L85.6979 232.937H85.8282L88.4522 223.136H91.137L93.7436 232.894H93.874L96.4719 223.136H99.1567L95.2381 236.482H92.588L89.8771 226.847H89.6773L86.9664 236.482H84.325ZM114.449 223.136V225.222H106.907V223.136H114.449ZM108.975 236.482V221.59C108.975 220.756 109.157 220.064 109.522 219.513C109.887 218.957 110.371 218.543 110.973 218.271C111.576 217.993 112.23 217.854 112.937 217.854C113.458 217.854 113.904 217.897 114.275 217.984C114.646 218.065 114.921 218.14 115.101 218.21L114.492 220.313C114.371 220.278 114.214 220.237 114.023 220.191C113.832 220.139 113.6 220.113 113.328 220.113C112.697 220.113 112.245 220.269 111.973 220.582C111.706 220.895 111.573 221.347 111.573 221.937V236.482H108.975ZM122.225 236.752C120.974 236.752 119.882 236.465 118.95 235.892C118.017 235.318 117.293 234.516 116.778 233.485C116.262 232.454 116.004 231.249 116.004 229.87C116.004 228.486 116.262 227.275 116.778 226.238C117.293 225.202 118.017 224.396 118.95 223.823C119.882 223.249 120.974 222.963 122.225 222.963C123.477 222.963 124.568 223.249 125.501 223.823C126.434 224.396 127.158 225.202 127.673 226.238C128.189 227.275 128.447 228.486 128.447 229.87C128.447 231.249 128.189 232.454 127.673 233.485C127.158 234.516 126.434 235.318 125.501 235.892C124.568 236.465 123.477 236.752 122.225 236.752ZM122.234 234.571C123.045 234.571 123.717 234.357 124.25 233.928C124.783 233.499 125.177 232.929 125.432 232.216C125.692 231.504 125.823 230.719 125.823 229.862C125.823 229.01 125.692 228.228 125.432 227.516C125.177 226.797 124.783 226.221 124.25 225.787C123.717 225.352 123.045 225.135 122.234 225.135C121.417 225.135 120.74 225.352 120.201 225.787C119.668 226.221 119.271 226.797 119.011 227.516C118.756 228.228 118.628 229.01 118.628 229.862C118.628 230.719 118.756 231.504 119.011 232.216C119.271 232.929 119.668 233.499 120.201 233.928C120.74 234.357 121.417 234.571 122.234 234.571ZM131.346 236.482V223.136H133.857V225.257H133.996C134.24 224.538 134.668 223.974 135.282 223.562C135.902 223.145 136.603 222.937 137.385 222.937C137.547 222.937 137.738 222.942 137.959 222.954C138.184 222.966 138.361 222.98 138.489 222.997V225.482C138.384 225.453 138.199 225.422 137.932 225.387C137.666 225.346 137.4 225.326 137.133 225.326C136.519 225.326 135.972 225.456 135.491 225.717C135.016 225.972 134.639 226.328 134.361 226.786C134.083 227.238 133.944 227.753 133.944 228.332V236.482H131.346ZM140.737 236.482V223.136H143.23V225.309H143.396C143.674 224.573 144.128 224 144.76 223.588C145.391 223.171 146.147 222.963 147.027 222.963C147.919 222.963 148.667 223.171 149.269 223.588C149.877 224.005 150.326 224.579 150.616 225.309H150.755C151.073 224.596 151.58 224.029 152.275 223.606C152.971 223.177 153.799 222.963 154.76 222.963C155.971 222.963 156.959 223.342 157.723 224.101C158.494 224.86 158.879 226.004 158.879 227.533V236.482H156.281V227.776C156.281 226.873 156.035 226.218 155.542 225.813C155.05 225.407 154.462 225.204 153.779 225.204C152.933 225.204 152.275 225.465 151.806 225.986C151.337 226.502 151.102 227.165 151.102 227.976V236.482H148.513V227.611C148.513 226.887 148.287 226.305 147.835 225.865C147.384 225.425 146.796 225.204 146.072 225.204C145.579 225.204 145.125 225.335 144.708 225.595C144.296 225.85 143.963 226.207 143.708 226.664C143.459 227.122 143.335 227.652 143.335 228.254V236.482H140.737ZM175.066 223.136V225.222H167.776V223.136H175.066ZM169.731 219.939H172.329V232.564C172.329 233.068 172.404 233.447 172.555 233.702C172.706 233.951 172.9 234.122 173.137 234.215C173.38 234.302 173.644 234.345 173.928 234.345C174.136 234.345 174.319 234.331 174.475 234.302C174.632 234.273 174.753 234.249 174.84 234.232L175.309 236.378C175.159 236.436 174.944 236.494 174.666 236.552C174.388 236.616 174.041 236.65 173.624 236.656C172.94 236.668 172.303 236.546 171.712 236.291C171.121 236.036 170.643 235.643 170.279 235.11C169.914 234.577 169.731 233.908 169.731 233.102V219.939ZM183.418 236.752C182.167 236.752 181.075 236.465 180.142 235.892C179.21 235.318 178.486 234.516 177.97 233.485C177.455 232.454 177.197 231.249 177.197 229.87C177.197 228.486 177.455 227.275 177.97 226.238C178.486 225.202 179.21 224.396 180.142 223.823C181.075 223.249 182.167 222.963 183.418 222.963C184.669 222.963 185.761 223.249 186.694 223.823C187.626 224.396 188.35 225.202 188.866 226.238C189.381 227.275 189.639 228.486 189.639 229.87C189.639 231.249 189.381 232.454 188.866 233.485C188.35 234.516 187.626 235.318 186.694 235.892C185.761 236.465 184.669 236.752 183.418 236.752ZM183.427 234.571C184.238 234.571 184.91 234.357 185.443 233.928C185.975 233.499 186.369 232.929 186.624 232.216C186.885 231.504 187.015 230.719 187.015 229.862C187.015 229.01 186.885 228.228 186.624 227.516C186.369 226.797 185.975 226.221 185.443 225.787C184.91 225.352 184.238 225.135 183.427 225.135C182.61 225.135 181.932 225.352 181.394 225.787C180.861 226.221 180.464 226.797 180.203 227.516C179.948 228.228 179.821 229.01 179.821 229.862C179.821 230.719 179.948 231.504 180.203 232.216C180.464 232.929 180.861 233.499 181.394 233.928C181.932 234.357 182.61 234.571 183.427 234.571ZM201.908 236.482L197.98 223.136H200.665L203.281 232.937H203.411L206.035 223.136H208.72L211.326 232.894H211.457L214.055 223.136H216.739L212.821 236.482H210.171L207.46 226.847H207.26L204.549 236.482H201.908ZM224.42 236.752C223.169 236.752 222.077 236.465 221.145 235.892C220.212 235.318 219.488 234.516 218.972 233.485C218.457 232.454 218.199 231.249 218.199 229.87C218.199 228.486 218.457 227.275 218.972 226.238C219.488 225.202 220.212 224.396 221.145 223.823C222.077 223.249 223.169 222.963 224.42 222.963C225.672 222.963 226.763 223.249 227.696 223.823C228.629 224.396 229.353 225.202 229.868 226.238C230.384 227.275 230.641 228.486 230.641 229.87C230.641 231.249 230.384 232.454 229.868 233.485C229.353 234.516 228.629 235.318 227.696 235.892C226.763 236.465 225.672 236.752 224.42 236.752ZM224.429 234.571C225.24 234.571 225.912 234.357 226.445 233.928C226.978 233.499 227.372 232.929 227.626 232.216C227.887 231.504 228.017 230.719 228.017 229.862C228.017 229.01 227.887 228.228 227.626 227.516C227.372 226.797 226.978 226.221 226.445 225.787C225.912 225.352 225.24 225.135 224.429 225.135C223.612 225.135 222.935 225.352 222.396 225.787C221.863 226.221 221.466 226.797 221.205 227.516C220.951 228.228 220.823 229.01 220.823 229.862C220.823 230.719 220.951 231.504 221.205 232.216C221.466 232.929 221.863 233.499 222.396 233.928C222.935 234.357 223.612 234.571 224.429 234.571ZM233.541 236.482V223.136H236.052V225.257H236.191C236.435 224.538 236.863 223.974 237.477 223.562C238.097 223.145 238.798 222.937 239.58 222.937C239.742 222.937 239.933 222.942 240.153 222.954C240.379 222.966 240.556 222.98 240.684 222.997V225.482C240.579 225.453 240.394 225.422 240.127 225.387C239.861 225.346 239.595 225.326 239.328 225.326C238.714 225.326 238.167 225.456 237.686 225.717C237.211 225.972 236.834 226.328 236.556 226.786C236.278 227.238 236.139 227.753 236.139 228.332V236.482H233.541ZM245.321 231.956L245.304 228.784H245.756L251.073 223.136H254.184L248.119 229.566H247.711L245.321 231.956ZM242.932 236.482V218.688H245.53V236.482H242.932ZM251.36 236.482L246.581 230.14L248.371 228.324L254.549 236.482H251.36ZM268.648 236.752C267.397 236.752 266.305 236.465 265.373 235.892C264.44 235.318 263.716 234.516 263.2 233.485C262.685 232.454 262.427 231.249 262.427 229.87C262.427 228.486 262.685 227.275 263.2 226.238C263.716 225.202 264.44 224.396 265.373 223.823C266.305 223.249 267.397 222.963 268.648 222.963C269.899 222.963 270.991 223.249 271.924 223.823C272.857 224.396 273.581 225.202 274.096 226.238C274.612 227.275 274.869 228.486 274.869 229.87C274.869 231.249 274.612 232.454 274.096 233.485C273.581 234.516 272.857 235.318 271.924 235.892C270.991 236.465 269.899 236.752 268.648 236.752ZM268.657 234.571C269.468 234.571 270.14 234.357 270.673 233.928C271.206 233.499 271.6 232.929 271.854 232.216C272.115 231.504 272.245 230.719 272.245 229.862C272.245 229.01 272.115 228.228 271.854 227.516C271.6 226.797 271.206 226.221 270.673 225.787C270.14 225.352 269.468 225.135 268.657 225.135C267.84 225.135 267.162 225.352 266.624 225.787C266.091 226.221 265.694 226.797 265.433 227.516C265.179 228.228 265.051 229.01 265.051 229.862C265.051 230.719 265.179 231.504 265.433 232.216C265.694 232.929 266.091 233.499 266.624 233.928C267.162 234.357 267.84 234.571 268.657 234.571ZM284.121 223.136V225.222H276.579V223.136H284.121ZM278.647 236.482V221.59C278.647 220.756 278.829 220.064 279.194 219.513C279.559 218.957 280.043 218.543 280.645 218.271C281.248 217.993 281.902 217.854 282.609 217.854C283.13 217.854 283.576 217.897 283.947 217.984C284.318 218.065 284.593 218.14 284.772 218.21L284.164 220.313C284.043 220.278 283.886 220.237 283.695 220.191C283.504 220.139 283.272 220.113 283 220.113C282.369 220.113 281.917 220.269 281.644 220.582C281.378 220.895 281.245 221.347 281.245 221.937V236.482H278.647ZM293.153 223.136V225.222H285.611V223.136H293.153ZM287.679 236.482V221.59C287.679 220.756 287.861 220.064 288.226 219.513C288.591 218.957 289.075 218.543 289.677 218.271C290.28 217.993 290.934 217.854 291.641 217.854C292.162 217.854 292.608 217.897 292.979 217.984C293.35 218.065 293.625 218.14 293.804 218.21L293.196 220.313C293.075 220.278 292.918 220.237 292.727 220.191C292.536 220.139 292.304 220.113 292.032 220.113C291.4 220.113 290.949 220.269 290.676 220.582C290.41 220.895 290.277 221.347 290.277 221.937V236.482H287.679ZM298.431 218.688V236.482H295.833V218.688H298.431ZM301.926 236.482V223.136H304.524V236.482H301.926ZM303.238 221.077C302.786 221.077 302.398 220.927 302.074 220.625C301.755 220.318 301.596 219.954 301.596 219.531C301.596 219.102 301.755 218.737 302.074 218.436C302.398 218.129 302.786 217.975 303.238 217.975C303.69 217.975 304.075 218.129 304.394 218.436C304.718 218.737 304.88 219.102 304.88 219.531C304.88 219.954 304.718 220.318 304.394 220.625C304.075 220.927 303.69 221.077 303.238 221.077ZM310.617 228.558V236.482H308.019V223.136H310.513V225.309H310.678C310.985 224.602 311.466 224.034 312.12 223.606C312.781 223.177 313.612 222.963 314.614 222.963C315.523 222.963 316.32 223.154 317.003 223.536C317.687 223.913 318.217 224.475 318.593 225.222C318.97 225.969 319.158 226.893 319.158 227.994V236.482H316.56V228.306C316.56 227.339 316.308 226.583 315.804 226.039C315.3 225.488 314.608 225.213 313.728 225.213C313.125 225.213 312.589 225.343 312.12 225.604C311.657 225.865 311.289 226.247 311.017 226.751C310.75 227.249 310.617 227.852 310.617 228.558ZM328.394 236.752C327.079 236.752 325.947 236.471 324.997 235.909C324.053 235.341 323.323 234.545 322.807 233.52C322.298 232.488 322.043 231.281 322.043 229.896C322.043 228.529 322.298 227.324 322.807 226.282C323.323 225.239 324.041 224.425 324.962 223.84C325.889 223.255 326.972 222.963 328.212 222.963C328.965 222.963 329.695 223.087 330.401 223.336C331.108 223.585 331.742 223.976 332.304 224.509C332.866 225.042 333.309 225.734 333.634 226.586C333.958 227.432 334.12 228.46 334.12 229.67V230.591H323.511V228.645H331.574C331.574 227.962 331.435 227.356 331.157 226.829C330.879 226.296 330.488 225.876 329.984 225.569C329.486 225.262 328.901 225.109 328.229 225.109C327.499 225.109 326.862 225.288 326.318 225.648C325.779 226.001 325.362 226.464 325.067 227.038C324.777 227.605 324.632 228.222 324.632 228.888V230.409C324.632 231.301 324.788 232.06 325.101 232.685C325.42 233.311 325.863 233.789 326.431 234.119C326.998 234.443 327.662 234.606 328.42 234.606C328.913 234.606 329.362 234.536 329.767 234.397C330.173 234.252 330.523 234.038 330.818 233.754C331.114 233.47 331.34 233.12 331.496 232.703L333.955 233.146C333.758 233.87 333.405 234.504 332.895 235.049C332.391 235.587 331.757 236.007 330.992 236.309C330.233 236.604 329.367 236.752 328.394 236.752Z" fill="#211447"/>
<rect x="378.849" y="204.881" width="80.987" height="45.202" rx="22.601" fill="#4F3895"/>
<circle cx="437.235" cy="227.482" r="16.9508" fill="#FAFAFF"/>
</g>
</g>
</g>
<defs>
<filter id="filter0_dd_302_1822" x="-9.51479" y="84.2426" width="503.03" height="294.819" filterUnits="userSpaceOnUse" color-interpolation-filters="sRGB">
<feFlood flood-opacity="0" result="BackgroundImageFix"/>
<feColorMatrix in="SourceAlpha" type="matrix" values="0 0 0 0 0 0 0 0 0 0 0 0 0 0 0 0 0 0 127 0" result="hardAlpha"/>
<feOffset dy="2.3787"/>
<feGaussianBlur stdDeviation="2.3787"/>
<feComposite in2="hardAlpha" operator="out"/>
<feColorMatrix type="matrix" values="0 0 0 0 0 0 0 0 0 0 0 0 0 0 0 0 0 0 0.08 0"/>
<feBlend mode="normal" in2="BackgroundImageFix" result="effect1_dropShadow_302_1822"/>
<feColorMatrix in="SourceAlpha" type="matrix" values="0 0 0 0 0 0 0 0 0 0 0 0 0 0 0 0 0 0 127 0" result="hardAlpha"/>
<feOffset dy="4.7574"/>
<feGaussianBlur stdDeviation="4.7574"/>
<feComposite in2="hardAlpha" operator="out"/>
<feColorMatrix type="matrix" values="0 0 0 0 0 0 0 0 0 0 0 0 0 0 0 0 0 0 0.04 0"/>
<feBlend mode="normal" in2="effect1_dropShadow_302_1822" result="effect2_dropShadow_302_1822"/>
<feBlend mode="normal" in="SourceGraphic" in2="effect2_dropShadow_302_1822" result="shape"/>
</filter>
<filter id="filter1_dd_302_1822" x="-8.65885" y="162.565" width="419.318" height="137.318" filterUnits="userSpaceOnUse" color-interpolation-filters="sRGB">
<feFlood flood-opacity="0" result="BackgroundImageFix"/>
<feColorMatrix in="SourceAlpha" type="matrix" values="0 0 0 0 0 0 0 0 0 0 0 0 0 0 0 0 0 0 127 0" result="hardAlpha"/>
<feOffset dy="4.32943"/>
<feGaussianBlur stdDeviation="4.32943"/>
<feComposite in2="hardAlpha" operator="out"/>
<feColorMatrix type="matrix" values="0 0 0 0 0 0 0 0 0 0 0 0 0 0 0 0 0 0 0.04 0"/>
<feBlend mode="normal" in2="BackgroundImageFix" result="effect1_dropShadow_302_1822"/>
<feColorMatrix in="SourceAlpha" type="matrix" values="0 0 0 0 0 0 0 0 0 0 0 0 0 0 0 0 0 0 127 0" result="hardAlpha"/>
<feOffset dy="1.44314"/>
<feGaussianBlur stdDeviation="1.44314"/>
<feComposite in2="hardAlpha" operator="out"/>
<feColorMatrix type="matrix" values="0 0 0 0 0 0 0 0 0 0 0 0 0 0 0 0 0 0 0.06 0"/>
<feBlend mode="normal" in2="effect1_dropShadow_302_1822" result="effect2_dropShadow_302_1822"/>
<feBlend mode="normal" in="SourceGraphic" in2="effect2_dropShadow_302_1822" result="shape"/>
</filter>
<filter id="filter2_ddd_302_1822" x="-7.93333" y="171.383" width="512.867" height="133.13" filterUnits="userSpaceOnUse" color-interpolation-filters="sRGB">
<feFlood flood-opacity="0" result="BackgroundImageFix"/>
<feColorMatrix in="SourceAlpha" type="matrix" values="0 0 0 0 0 0 0 0 0 0 0 0 0 0 0 0 0 0 127 0" result="hardAlpha"/>
<feOffset dy="5.07254"/>
<feGaussianBlur stdDeviation="5.07254"/>
<feComposite in2="hardAlpha" operator="out"/>
<feColorMatrix type="matrix" values="0 0 0 0 0 0 0 0 0 0 0 0 0 0 0 0 0 0 0.04 0"/>
<feBlend mode="normal" in2="BackgroundImageFix" result="effect1_dropShadow_302_1822"/>
<feColorMatrix in="SourceAlpha" type="matrix" values="0 0 0 0 0 0 0 0 0 0 0 0 0 0 0 0 0 0 127 0" result="hardAlpha"/>
<feOffset dy="2.78698"/>
<feGaussianBlur stdDeviation="2.78698"/>
<feComposite in2="hardAlpha" operator="out"/>
<feColorMatrix type="matrix" values="0 0 0 0 0 0 0 0 0 0 0 0 0 0 0 0 0 0 0.06 0"/>
<feBlend mode="normal" in2="effect1_dropShadow_302_1822" result="effect2_dropShadow_302_1822"/>
<feColorMatrix in="SourceAlpha" type="matrix" values="0 0 0 0 0 0 0 0 0 0 0 0 0 0 0 0 0 0 127 0" result="hardAlpha"/>
<feOffset dy="10.4667"/>
<feGaussianBlur stdDeviation="10.4667"/>
<feComposite in2="hardAlpha" operator="out"/>
<feColorMatrix type="matrix" values="0 0 0 0 0 0 0 0 0 0 0 0 0 0 0 0 0 0 0.04 0"/>
<feBlend mode="normal" in2="effect2_dropShadow_302_1822" result="effect3_dropShadow_302_1822"/>
<feBlend mode="normal" in="SourceGraphic" in2="effect3_dropShadow_302_1822" result="shape"/>
</filter>
<clipPath id="clip0_302_1822">
<rect width="484" height="433" fill="white"/>
</clipPath>
</defs>
</svg>
