<svg width="319" height="250" viewBox="0 0 319 250" fill="none" xmlns="http://www.w3.org/2000/svg">
<circle cx="126.526" cy="124.526" r="124.526" fill="#F1D9FF"/>
<g filter="url(#filter0_d_271_1879)">
<g clip-path="url(#clip0_271_1879)">
<rect x="9" y="68" width="240.63" height="161" rx="5.66189" fill="white"/>
<rect x="27.4014" y="84.9863" width="66.6361" height="7.40401" rx="3.702" fill="#D8D2EC"/>
<rect x="27.6833" y="94.9284" width="181.572" height="21.9916" rx="4.22915" stroke="#E0E0E0" stroke-width="0.563887"/>
<rect x="27.4014" y="127.109" width="101.188" height="7.89442" rx="3.94721" fill="#D8D2EC"/>
<rect x="27.4014" y="137.26" width="13.574" height="6.90762" rx="3.45381" fill="#D8D2EC"/>
<rect x="27.4014" y="146.422" width="39.488" height="6.90762" rx="3.45381" fill="#D8D2EC"/>
<rect x="27.4014" y="155.586" width="16.042" height="6.90762" rx="3.45381" fill="#D8D2EC"/>
<rect x="27.4014" y="164.748" width="56.7641" height="6.90762" rx="3.45381" fill="#D8D2EC"/>
<rect x="27.6833" y="181.846" width="181.572" height="19.7361" rx="4.22915" stroke="#E0E0E0" stroke-width="0.563887"/>
<rect x="36.4233" y="188.26" width="46.8921" height="6.90762" rx="3.45381" fill="#D8D2EC"/>
<path d="M190.929 190.021L194.876 193.969L198.824 190.021" stroke="#BDBDBD" stroke-width="1.31574"/>
<rect x="27.4014" y="204.119" width="80.2101" height="7.89442" rx="3.94721" fill="#D8D2EC"/>
<rect width="240.63" height="31.6476" transform="translate(9 197.568)" fill="#4F3895"/>
<path d="M22.0938 210.871L17.1396 215.825" stroke="white" stroke-width="0.707736" stroke-linecap="round" stroke-linejoin="round"/>
<path d="M17.1396 210.871L22.0938 215.825" stroke="white" stroke-width="0.707736" stroke-linecap="round" stroke-linejoin="round"/>
<path d="M30.911 216.393V210.216H34.7412V211.018H31.8429V212.9H34.4668V213.699H31.8429V216.393H30.911ZM37.4261 216.486C36.9919 216.486 36.6129 216.387 36.2891 216.187C35.9654 215.988 35.7141 215.71 35.5352 215.352C35.3562 214.994 35.2667 214.576 35.2667 214.097C35.2667 213.617 35.3562 213.197 35.5352 212.837C35.7141 212.477 35.9654 212.197 36.2891 211.998C36.6129 211.799 36.9919 211.7 37.4261 211.7C37.8604 211.7 38.2394 211.799 38.5631 211.998C38.8869 212.197 39.1382 212.477 39.3171 212.837C39.4961 213.197 39.5855 213.617 39.5855 214.097C39.5855 214.576 39.4961 214.994 39.3171 215.352C39.1382 215.71 38.8869 215.988 38.5631 216.187C38.2394 216.387 37.8604 216.486 37.4261 216.486ZM37.4292 215.729C37.7106 215.729 37.9439 215.655 38.1289 215.506C38.3138 215.357 38.4506 215.159 38.539 214.912C38.6295 214.664 38.6747 214.392 38.6747 214.094C38.6747 213.799 38.6295 213.527 38.539 213.28C38.4506 213.031 38.3138 212.831 38.1289 212.68C37.9439 212.529 37.7106 212.454 37.4292 212.454C37.1457 212.454 36.9104 212.529 36.7234 212.68C36.5385 212.831 36.4007 213.031 36.3103 213.28C36.2218 213.527 36.1776 213.799 36.1776 214.094C36.1776 214.392 36.2218 214.664 36.3103 214.912C36.4007 215.159 36.5385 215.357 36.7234 215.506C36.9104 215.655 37.1457 215.729 37.4292 215.729ZM40.5921 216.393V211.76H41.4637V212.496H41.512C41.5964 212.247 41.7452 212.051 41.9583 211.908C42.1735 211.763 42.4167 211.691 42.6882 211.691C42.7445 211.691 42.8108 211.693 42.8872 211.697C42.9656 211.701 43.027 211.706 43.0712 211.712V212.574C43.035 212.564 42.9707 212.553 42.8782 212.541C42.7857 212.527 42.6932 212.52 42.6007 212.52C42.3876 212.52 42.1976 212.565 42.0307 212.656C41.8658 212.744 41.7351 212.868 41.6386 213.027C41.5421 213.184 41.4939 213.363 41.4939 213.564V216.393H40.5921ZM43.8516 216.393V211.76H44.7171V212.514H44.7744C44.8709 212.259 45.0288 212.06 45.2479 211.917C45.4671 211.772 45.7295 211.7 46.0351 211.7C46.3447 211.7 46.6041 211.772 46.8132 211.917C47.0243 212.062 47.1801 212.261 47.2807 212.514H47.3289C47.4395 212.267 47.6154 212.07 47.8567 211.923C48.098 211.774 48.3855 211.7 48.7193 211.7C49.1395 211.7 49.4823 211.832 49.7477 212.095C50.0151 212.358 50.1488 212.755 50.1488 213.286V216.393H49.247V213.371C49.247 213.057 49.1616 212.83 48.9907 212.689C48.8198 212.548 48.6157 212.478 48.3785 212.478C48.0849 212.478 47.8567 212.568 47.6938 212.749C47.531 212.928 47.4496 213.159 47.4496 213.44V216.393H46.5508V213.313C46.5508 213.062 46.4724 212.86 46.3156 212.707C46.1587 212.554 45.9547 212.478 45.7033 212.478C45.5324 212.478 45.3746 212.523 45.2298 212.614C45.0871 212.702 44.9715 212.826 44.883 212.985C44.7966 213.143 44.7533 213.327 44.7533 213.537V216.393H43.8516ZM53.354 216.486C52.8976 216.486 52.5045 216.389 52.1748 216.194C51.847 215.996 51.5937 215.72 51.4147 215.364C51.2378 215.006 51.1493 214.587 51.1493 214.107C51.1493 213.632 51.2378 213.214 51.4147 212.852C51.5937 212.49 51.843 212.207 52.1627 212.004C52.4844 211.801 52.8604 211.7 53.2906 211.7C53.552 211.7 53.8054 211.743 54.0507 211.829C54.2959 211.916 54.5161 212.052 54.7111 212.237C54.9062 212.422 55.06 212.662 55.1726 212.957C55.2852 213.251 55.3415 213.608 55.3415 214.028V214.348H51.659V213.672H54.4578C54.4578 213.435 54.4095 213.225 54.313 213.042C54.2165 212.857 54.0808 212.711 53.9059 212.605C53.733 212.498 53.5299 212.445 53.2967 212.445C53.0433 212.445 52.8222 212.507 52.6332 212.632C52.4462 212.754 52.3014 212.915 52.1989 213.114C52.0983 213.311 52.0481 213.525 52.0481 213.757V214.284C52.0481 214.594 52.1024 214.857 52.2109 215.075C52.3215 215.292 52.4753 215.458 52.6724 215.572C52.8694 215.685 53.0996 215.741 53.363 215.741C53.5339 215.741 53.6897 215.717 53.8305 215.669C53.9712 215.618 54.0929 215.544 54.1954 215.446C54.298 215.347 54.3764 215.225 54.4307 215.081L55.2842 215.234C55.2158 215.486 55.0932 215.706 54.9162 215.895C54.7413 216.082 54.5211 216.228 54.2557 216.332C53.9923 216.435 53.6918 216.486 53.354 216.486ZM59.8133 212.891L58.996 213.036C58.9618 212.931 58.9075 212.832 58.8332 212.737C58.7608 212.643 58.6622 212.565 58.5376 212.505C58.4129 212.445 58.2571 212.415 58.0701 212.415C57.8148 212.415 57.6016 212.472 57.4307 212.586C57.2598 212.699 57.1744 212.845 57.1744 213.024C57.1744 213.179 57.2317 213.303 57.3463 213.398C57.4609 213.492 57.6459 213.57 57.9012 213.63L58.6371 213.799C59.0634 213.897 59.381 214.049 59.5901 214.254C59.7993 214.459 59.9038 214.726 59.9038 215.054C59.9038 215.331 59.8234 215.578 59.6625 215.795C59.5037 216.011 59.2815 216.179 58.996 216.302C58.7125 216.425 58.3838 216.486 58.0098 216.486C57.4911 216.486 57.0678 216.375 56.7401 216.154C56.4124 215.931 56.2113 215.614 56.1369 215.204L57.0085 215.072C57.0628 215.299 57.1744 215.471 57.3433 215.587C57.5122 215.702 57.7323 215.759 58.0038 215.759C58.2993 215.759 58.5356 215.698 58.7125 215.575C58.8894 215.451 58.9779 215.299 58.9779 215.12C58.9779 214.975 58.9236 214.853 58.8151 214.755C58.7085 214.656 58.5446 214.582 58.3235 214.532L57.5393 214.36C57.107 214.261 56.7874 214.104 56.5803 213.889C56.3752 213.674 56.2726 213.402 56.2726 213.072C56.2726 212.799 56.349 212.559 56.5018 212.354C56.6547 212.149 56.8658 211.989 57.1352 211.875C57.4046 211.758 57.7132 211.7 58.0611 211.7C58.5617 211.7 58.9558 211.808 59.2433 212.026C59.5308 212.241 59.7208 212.529 59.8133 212.891ZM63.0577 211.76V212.484H60.5273V211.76H63.0577ZM61.2059 210.65H62.1077V215.032C62.1077 215.207 62.1338 215.339 62.1861 215.427C62.2384 215.514 62.3057 215.573 62.3882 215.605C62.4726 215.636 62.5641 215.651 62.6626 215.651C62.735 215.651 62.7983 215.646 62.8526 215.636C62.9069 215.626 62.9491 215.617 62.9793 215.611L63.1421 216.356C63.0899 216.376 63.0155 216.397 62.919 216.417C62.8225 216.439 62.7018 216.451 62.5571 216.453C62.3198 216.457 62.0986 216.415 61.8936 216.326C61.6885 216.238 61.5226 216.101 61.3959 215.916C61.2693 215.731 61.2059 215.499 61.2059 215.219V210.65ZM66.002 216.486C65.5456 216.486 65.1525 216.389 64.8228 216.194C64.495 215.996 64.2417 215.72 64.0628 215.364C63.8858 215.006 63.7974 214.587 63.7974 214.107C63.7974 213.632 63.8858 213.214 64.0628 212.852C64.2417 212.49 64.491 212.207 64.8107 212.004C65.1324 211.801 65.5084 211.7 65.9387 211.7C66.2 211.7 66.4534 211.743 66.6987 211.829C66.944 211.916 67.1641 212.052 67.3592 212.237C67.5542 212.422 67.708 212.662 67.8206 212.957C67.9332 213.251 67.9895 213.608 67.9895 214.028V214.348H64.307V213.672H67.1058C67.1058 213.435 67.0576 213.225 66.9611 213.042C66.8645 212.857 66.7288 212.711 66.5539 212.605C66.381 212.498 66.1779 212.445 65.9447 212.445C65.6914 212.445 65.4702 212.507 65.2812 212.632C65.0942 212.754 64.9494 212.915 64.8469 213.114C64.7464 213.311 64.6961 213.525 64.6961 213.757V214.284C64.6961 214.594 64.7504 214.857 64.859 215.075C64.9695 215.292 65.1234 215.458 65.3204 215.572C65.5174 215.685 65.7477 215.741 66.011 215.741C66.1819 215.741 66.3378 215.717 66.4785 215.669C66.6193 215.618 66.7409 215.544 66.8434 215.446C66.946 215.347 67.0244 215.225 67.0787 215.081L67.9322 215.234C67.8638 215.486 67.7412 215.706 67.5642 215.895C67.3893 216.082 67.1692 216.228 66.9038 216.332C66.6404 216.435 66.3398 216.486 66.002 216.486ZM68.99 216.393V211.76H69.8616V212.496H69.9099C69.9943 212.247 70.1431 212.051 70.3562 211.908C70.5714 211.763 70.8146 211.691 71.0861 211.691C71.1424 211.691 71.2087 211.693 71.2851 211.697C71.3635 211.701 71.4249 211.706 71.4691 211.712V212.574C71.4329 212.564 71.3686 212.553 71.2761 212.541C71.1836 212.527 71.0911 212.52 70.9986 212.52C70.7855 212.52 70.5955 212.565 70.4286 212.656C70.2637 212.744 70.133 212.868 70.0365 213.027C69.94 213.184 69.8918 213.363 69.8918 213.564V216.393H68.99Z" fill="white"/>
<rect x="190.983" y="203.23" width="52.9857" height="20.3238" rx="2.83094" fill="white"/>
<path d="M200.722 210.745V215.893H200.099V210.745H200.722ZM202.485 213.57V215.893H201.891V212.032H202.464V212.635H202.515C202.605 212.439 202.743 212.282 202.927 212.163C203.111 212.042 203.349 211.982 203.641 211.982C203.902 211.982 204.131 212.036 204.327 212.143C204.523 212.248 204.675 212.409 204.784 212.625C204.893 212.84 204.948 213.111 204.948 213.44V215.893H204.354V213.48C204.354 213.177 204.276 212.94 204.118 212.771C203.961 212.6 203.745 212.515 203.47 212.515C203.28 212.515 203.111 212.556 202.962 212.638C202.815 212.72 202.698 212.84 202.613 212.997C202.527 213.155 202.485 213.346 202.485 213.57ZM208.766 212.897L208.233 213.048C208.2 212.959 208.15 212.872 208.085 212.789C208.021 212.703 207.934 212.633 207.823 212.578C207.713 212.522 207.571 212.495 207.399 212.495C207.162 212.495 206.966 212.549 206.808 212.658C206.652 212.765 206.574 212.902 206.574 213.068C206.574 213.215 206.628 213.332 206.735 213.417C206.842 213.502 207.01 213.574 207.238 213.631L207.811 213.771C208.156 213.855 208.413 213.983 208.582 214.156C208.752 214.327 208.836 214.547 208.836 214.817C208.836 215.038 208.773 215.236 208.645 215.41C208.52 215.584 208.344 215.722 208.117 215.822C207.891 215.923 207.628 215.973 207.328 215.973C206.935 215.973 206.609 215.888 206.351 215.717C206.093 215.546 205.929 215.296 205.861 214.968L206.424 214.827C206.477 215.035 206.578 215.191 206.728 215.294C206.878 215.398 207.075 215.45 207.318 215.45C207.595 215.45 207.814 215.392 207.977 215.274C208.141 215.155 208.223 215.013 208.223 214.847C208.223 214.713 208.176 214.601 208.082 214.51C207.988 214.418 207.844 214.349 207.65 214.304L207.007 214.153C206.653 214.07 206.393 213.94 206.227 213.764C206.063 213.586 205.981 213.364 205.981 213.098C205.981 212.88 206.042 212.687 206.165 212.52C206.289 212.352 206.457 212.221 206.67 212.125C206.884 212.03 207.127 211.982 207.399 211.982C207.781 211.982 208.081 212.066 208.298 212.233C208.518 212.401 208.674 212.622 208.766 212.897ZM211.408 212.032V212.535H209.407V212.032H211.408ZM209.99 211.107H210.584V214.787C210.584 214.954 210.608 215.08 210.656 215.164C210.707 215.246 210.77 215.301 210.847 215.33C210.926 215.356 211.009 215.37 211.096 215.37C211.162 215.37 211.215 215.366 211.257 215.36C211.299 215.351 211.333 215.345 211.358 215.34L211.478 215.872C211.438 215.888 211.382 215.903 211.31 215.918C211.238 215.934 211.147 215.943 211.036 215.943C210.868 215.943 210.704 215.907 210.543 215.835C210.384 215.763 210.252 215.653 210.146 215.506C210.042 215.358 209.99 215.172 209.99 214.948V211.107ZM213.436 215.983C213.192 215.983 212.97 215.937 212.77 215.845C212.571 215.751 212.412 215.616 212.295 215.44C212.178 215.263 212.119 215.048 212.119 214.797C212.119 214.576 212.163 214.396 212.25 214.259C212.337 214.12 212.453 214.011 212.599 213.932C212.745 213.853 212.906 213.795 213.082 213.756C213.259 213.716 213.438 213.684 213.617 213.661C213.852 213.631 214.042 213.608 214.188 213.593C214.335 213.576 214.442 213.549 214.509 213.51C214.578 213.471 214.612 213.404 214.612 213.309V213.289C214.612 213.041 214.545 212.848 214.409 212.711C214.275 212.573 214.071 212.505 213.798 212.505C213.515 212.505 213.293 212.567 213.132 212.691C212.971 212.815 212.858 212.947 212.793 213.088L212.23 212.887C212.33 212.652 212.464 212.47 212.632 212.339C212.801 212.206 212.985 212.114 213.185 212.062C213.386 212.009 213.584 211.982 213.778 211.982C213.902 211.982 214.044 211.997 214.205 212.027C214.368 212.056 214.524 212.115 214.675 212.206C214.828 212.296 214.954 212.433 215.055 212.615C215.155 212.798 215.205 213.043 215.205 213.349V215.893H214.612V215.37H214.582C214.542 215.454 214.475 215.543 214.381 215.639C214.287 215.734 214.162 215.816 214.007 215.883C213.851 215.95 213.661 215.983 213.436 215.983ZM213.527 215.45C213.761 215.45 213.959 215.404 214.12 215.312C214.282 215.22 214.405 215.101 214.487 214.955C214.57 214.809 214.612 214.656 214.612 214.495V213.952C214.587 213.982 214.532 214.01 214.446 214.035C214.363 214.059 214.266 214.08 214.155 214.098C214.046 214.115 213.94 214.13 213.836 214.143C213.734 214.155 213.651 214.165 213.587 214.174C213.433 214.194 213.289 214.226 213.155 214.272C213.022 214.315 212.915 214.381 212.833 214.47C212.753 214.557 212.712 214.676 212.712 214.827C212.712 215.033 212.789 215.189 212.941 215.294C213.095 215.398 213.29 215.45 213.527 215.45ZM216.881 210.745V215.893H216.288V210.745H216.881ZM218.561 210.745V215.893H217.968V210.745H218.561ZM221.929 215.893H221.276L223.166 210.745H223.809L225.699 215.893H225.046L223.507 211.56H223.467L221.929 215.893ZM222.17 213.882H224.804V214.435H222.17V213.882ZM226.42 217.34V212.032H226.993V212.645H227.064C227.107 212.578 227.168 212.493 227.245 212.389C227.323 212.284 227.436 212.19 227.581 212.108C227.729 212.024 227.928 211.982 228.18 211.982C228.505 211.982 228.791 212.063 229.039 212.226C229.287 212.388 229.481 212.619 229.62 212.917C229.759 213.215 229.828 213.567 229.828 213.972C229.828 214.381 229.759 214.736 229.62 215.036C229.481 215.334 229.288 215.565 229.042 215.729C228.795 215.892 228.511 215.973 228.19 215.973C227.942 215.973 227.743 215.932 227.594 215.85C227.445 215.766 227.33 215.671 227.25 215.566C227.169 215.459 227.107 215.37 227.064 215.299H227.013V217.34H226.42ZM227.003 213.962C227.003 214.254 227.046 214.511 227.132 214.734C227.217 214.955 227.342 215.129 227.506 215.254C227.67 215.378 227.871 215.44 228.109 215.44C228.357 215.44 228.564 215.375 228.73 215.244C228.898 215.112 229.023 214.934 229.107 214.711C229.192 214.487 229.235 214.237 229.235 213.962C229.235 213.691 229.193 213.446 229.11 213.229C229.027 213.009 228.903 212.836 228.735 212.708C228.569 212.579 228.361 212.515 228.109 212.515C227.868 212.515 227.665 212.576 227.501 212.698C227.337 212.819 227.213 212.988 227.129 213.206C227.045 213.422 227.003 213.674 227.003 213.962ZM230.733 217.34V212.032H231.306V212.645H231.376C231.42 212.578 231.48 212.493 231.557 212.389C231.636 212.284 231.748 212.19 231.894 212.108C232.042 212.024 232.241 211.982 232.492 211.982C232.817 211.982 233.104 212.063 233.352 212.226C233.6 212.388 233.793 212.619 233.932 212.917C234.072 213.215 234.141 213.567 234.141 213.972C234.141 214.381 234.072 214.736 233.932 215.036C233.793 215.334 233.601 215.565 233.354 215.729C233.108 215.892 232.824 215.973 232.502 215.973C232.254 215.973 232.056 215.932 231.907 215.85C231.758 215.766 231.643 215.671 231.562 215.566C231.482 215.459 231.42 215.37 231.376 215.299H231.326V217.34H230.733ZM231.316 213.962C231.316 214.254 231.359 214.511 231.444 214.734C231.53 214.955 231.655 215.129 231.819 215.254C231.983 215.378 232.184 215.44 232.422 215.44C232.67 215.44 232.877 215.375 233.043 215.244C233.21 215.112 233.336 214.934 233.42 214.711C233.505 214.487 233.548 214.237 233.548 213.962C233.548 213.691 233.506 213.446 233.422 213.229C233.34 213.009 233.215 212.836 233.048 212.708C232.882 212.579 232.673 212.515 232.422 212.515C232.181 212.515 231.978 212.576 231.814 212.698C231.65 212.819 231.526 212.988 231.442 213.206C231.358 213.422 231.316 213.674 231.316 213.962Z" fill="black"/>
</g>
</g>
<g filter="url(#filter1_dd_271_1879)">
<path d="M124 19.0237C124 17.906 124.906 17 126.024 17H292.976C294.094 17 295 17.906 295 19.0237V50.134H124V19.0237Z" fill="white"/>
<rect opacity="0.5" x="132.361" y="29.6797" width="94" height="7.77273" rx="3.88636" fill="#D8D2EC"/>
<g opacity="0.6">
<rect x="257.235" y="25.3613" width="29.4029" height="16.4109" rx="8.20547" fill="#DDDEE7"/>
<circle cx="266.125" cy="33.5662" r="6.1541" fill="#FAFAFF"/>
</g>
<g filter="url(#filter2_dd_271_1879)">
<rect width="171" height="41.4852" transform="translate(124 50.1348)" fill="white"/>
</g>
<path d="M124 91.6191H295V122.729C295 123.847 294.094 124.753 292.976 124.753H126.024C124.906 124.753 124 123.847 124 122.729V91.6191Z" fill="white"/>
<rect opacity="0.5" x="132.361" y="104.299" width="101" height="7.77273" rx="3.88636" fill="#D8D2EC"/>
<g opacity="0.6">
<rect x="257.235" y="99.9805" width="29.4029" height="16.4109" rx="8.20547" fill="#DDDEE7"/>
<circle cx="266.125" cy="108.185" r="6.1541" fill="#FAFAFF"/>
</g>
<g filter="url(#filter3_ddd_271_1879)">
<rect x="128.554" y="53.3613" width="182.13" height="35.2906" rx="2.61532" fill="white" shape-rendering="crispEdges"/>
<path d="M138.797 74.5059H137.695L140.171 67.6249H141.37L143.847 74.5059H142.745L140.799 68.8748H140.745L138.797 74.5059ZM138.981 71.8113H142.556V72.6848H138.981V71.8113ZM145.764 67.6249V74.5059H144.76V67.6249H145.764ZM148.12 67.6249V74.5059H147.116V67.6249H148.12ZM151.646 74.61C151.162 74.61 150.74 74.4991 150.379 74.2774C150.018 74.0556 149.738 73.7454 149.539 73.3467C149.34 72.948 149.24 72.4821 149.24 71.949C149.24 71.4137 149.34 70.9455 149.539 70.5446C149.738 70.1437 150.018 69.8323 150.379 69.6106C150.74 69.3888 151.162 69.2779 151.646 69.2779C152.129 69.2779 152.552 69.3888 152.912 69.6106C153.273 69.8323 153.553 70.1437 153.752 70.5446C153.952 70.9455 154.051 71.4137 154.051 71.949C154.051 72.4821 153.952 72.948 153.752 73.3467C153.553 73.7454 153.273 74.0556 152.912 74.2774C152.552 74.4991 152.129 74.61 151.646 74.61ZM151.649 73.7667C151.963 73.7667 152.222 73.6838 152.428 73.5181C152.634 73.3523 152.787 73.1317 152.885 72.8562C152.986 72.5807 153.037 72.2772 153.037 71.9457C153.037 71.6164 152.986 71.314 152.885 71.0385C152.787 70.7608 152.634 70.5379 152.428 70.3699C152.222 70.2019 151.963 70.1179 151.649 70.1179C151.333 70.1179 151.071 70.2019 150.863 70.3699C150.657 70.5379 150.503 70.7608 150.402 71.0385C150.304 71.314 150.255 71.6164 150.255 71.9457C150.255 72.2772 150.304 72.5807 150.402 72.8562C150.503 73.1317 150.657 73.3523 150.863 73.5181C151.071 73.6838 151.333 73.7667 151.649 73.7667ZM156.134 74.5059L154.616 69.3451H155.654L156.665 73.135H156.716L157.73 69.3451H158.768L159.776 73.1182H159.827L160.831 69.3451H161.87L160.354 74.5059H159.33L158.281 70.7798H158.204L157.156 74.5059H156.134ZM167.783 69.3451V70.1515H164.867V69.3451H167.783ZM165.666 74.5059V68.7471C165.666 68.4245 165.737 68.1569 165.878 67.9441C166.019 67.7291 166.206 67.5689 166.439 67.4636C166.672 67.3561 166.925 67.3024 167.198 67.3024C167.4 67.3024 167.572 67.3192 167.716 67.3528C167.859 67.3841 167.965 67.4132 168.035 67.4401L167.8 68.2532C167.753 68.2398 167.692 68.2241 167.618 68.2062C167.544 68.186 167.455 68.1759 167.349 68.1759C167.105 68.1759 166.931 68.2364 166.825 68.3574C166.722 68.4783 166.671 68.653 166.671 68.8815V74.5059H165.666ZM170.79 74.61C170.306 74.61 169.884 74.4991 169.523 74.2774C169.163 74.0556 168.883 73.7454 168.683 73.3467C168.484 72.948 168.384 72.4821 168.384 71.949C168.384 71.4137 168.484 70.9455 168.683 70.5446C168.883 70.1437 169.163 69.8323 169.523 69.6106C169.884 69.3888 170.306 69.2779 170.79 69.2779C171.274 69.2779 171.696 69.3888 172.057 69.6106C172.417 69.8323 172.697 70.1437 172.897 70.5446C173.096 70.9455 173.196 71.4137 173.196 71.949C173.196 72.4821 173.096 72.948 172.897 73.3467C172.697 73.7454 172.417 74.0556 172.057 74.2774C171.696 74.4991 171.274 74.61 170.79 74.61ZM170.793 73.7667C171.107 73.7667 171.367 73.6838 171.573 73.5181C171.779 73.3523 171.931 73.1317 172.03 72.8562C172.13 72.5807 172.181 72.2772 172.181 71.9457C172.181 71.6164 172.13 71.314 172.03 71.0385C171.931 70.7608 171.779 70.5379 171.573 70.3699C171.367 70.2019 171.107 70.1179 170.793 70.1179C170.477 70.1179 170.215 70.2019 170.007 70.3699C169.801 70.5379 169.648 70.7608 169.547 71.0385C169.448 71.314 169.399 71.6164 169.399 71.9457C169.399 72.2772 169.448 72.5807 169.547 72.8562C169.648 73.1317 169.801 73.3523 170.007 73.5181C170.215 73.6838 170.477 73.7667 170.793 73.7667ZM174.317 74.5059V69.3451H175.288V70.1649H175.342C175.436 69.8872 175.601 69.6688 175.839 69.5098C176.079 69.3485 176.35 69.2679 176.652 69.2679C176.715 69.2679 176.789 69.2701 176.874 69.2746C176.961 69.2791 177.029 69.2847 177.079 69.2914V70.2523C177.038 70.2411 176.967 70.2288 176.864 70.2153C176.761 70.1997 176.658 70.1918 176.555 70.1918C176.317 70.1918 176.105 70.2422 175.92 70.343C175.736 70.4416 175.59 70.5793 175.483 70.7563C175.375 70.931 175.322 71.1303 175.322 71.3543V74.5059H174.317ZM177.948 74.5059V69.3451H178.912V70.1851H178.976C179.084 69.9006 179.26 69.6789 179.504 69.5199C179.748 69.3586 180.04 69.2779 180.381 69.2779C180.726 69.2779 181.014 69.3586 181.247 69.5199C181.483 69.6811 181.656 69.9029 181.768 70.1851H181.822C181.945 69.9096 182.141 69.6901 182.41 69.5266C182.679 69.3608 182.999 69.2779 183.371 69.2779C183.839 69.2779 184.221 69.4247 184.517 69.7181C184.814 70.0115 184.963 70.4539 184.963 71.0452V74.5059H183.959V71.1393C183.959 70.7899 183.864 70.5368 183.673 70.38C183.483 70.2232 183.255 70.1448 182.991 70.1448C182.664 70.1448 182.41 70.2456 182.228 70.4472C182.047 70.6465 181.956 70.903 181.956 71.2166V74.5059H180.955V71.0755C180.955 70.7955 180.868 70.5704 180.693 70.4001C180.518 70.2299 180.291 70.1448 180.011 70.1448C179.821 70.1448 179.645 70.1952 179.484 70.296C179.324 70.3945 179.196 70.5323 179.097 70.7092C179.001 70.8862 178.953 71.0911 178.953 71.3241V74.5059H177.948ZM191.223 69.3451V70.1515H188.404V69.3451H191.223ZM189.16 68.1087H190.164V72.9906C190.164 73.1854 190.194 73.3322 190.252 73.4307C190.31 73.527 190.385 73.5931 190.477 73.6289C190.571 73.6625 190.673 73.6793 190.783 73.6793C190.863 73.6793 190.934 73.6737 190.994 73.6625C191.055 73.6513 191.102 73.6424 191.135 73.6357L191.317 74.4655C191.259 74.4879 191.176 74.5103 191.068 74.5327C190.961 74.5574 190.826 74.5708 190.665 74.5731C190.401 74.5775 190.154 74.5305 189.926 74.4319C189.697 74.3334 189.513 74.1811 189.372 73.975C189.23 73.7689 189.16 73.5102 189.16 73.1989V68.1087ZM194.452 74.61C193.969 74.61 193.546 74.4991 193.186 74.2774C192.825 74.0556 192.545 73.7454 192.346 73.3467C192.146 72.948 192.047 72.4821 192.047 71.949C192.047 71.4137 192.146 70.9455 192.346 70.5446C192.545 70.1437 192.825 69.8323 193.186 69.6106C193.546 69.3888 193.969 69.2779 194.452 69.2779C194.936 69.2779 195.358 69.3888 195.719 69.6106C196.08 69.8323 196.36 70.1437 196.559 70.5446C196.758 70.9455 196.858 71.4137 196.858 71.949C196.858 72.4821 196.758 72.948 196.559 73.3467C196.36 73.7454 196.08 74.0556 195.719 74.2774C195.358 74.4991 194.936 74.61 194.452 74.61ZM194.456 73.7667C194.769 73.7667 195.029 73.6838 195.235 73.5181C195.441 73.3523 195.594 73.1317 195.692 72.8562C195.793 72.5807 195.843 72.2772 195.843 71.9457C195.843 71.6164 195.793 71.314 195.692 71.0385C195.594 70.7608 195.441 70.5379 195.235 70.3699C195.029 70.2019 194.769 70.1179 194.456 70.1179C194.14 70.1179 193.878 70.2019 193.67 70.3699C193.464 70.5379 193.31 70.7608 193.209 71.0385C193.111 71.314 193.061 71.6164 193.061 71.9457C193.061 72.2772 193.111 72.5807 193.209 72.8562C193.31 73.1317 193.464 73.3523 193.67 73.5181C193.878 73.6838 194.14 73.7667 194.456 73.7667ZM201.602 74.5059L200.084 69.3451H201.122L202.133 73.135H202.183L203.198 69.3451H204.236L205.244 73.1182H205.295L206.299 69.3451H207.337L205.822 74.5059H204.797L203.749 70.7798H203.672L202.624 74.5059H201.602ZM210.308 74.61C209.824 74.61 209.401 74.4991 209.041 74.2774C208.68 74.0556 208.4 73.7454 208.201 73.3467C208.002 72.948 207.902 72.4821 207.902 71.949C207.902 71.4137 208.002 70.9455 208.201 70.5446C208.4 70.1437 208.68 69.8323 209.041 69.6106C209.401 69.3888 209.824 69.2779 210.308 69.2779C210.791 69.2779 211.214 69.3888 211.574 69.6106C211.935 69.8323 212.215 70.1437 212.414 70.5446C212.613 70.9455 212.713 71.4137 212.713 71.949C212.713 72.4821 212.613 72.948 212.414 73.3467C212.215 73.7454 211.935 74.0556 211.574 74.2774C211.214 74.4991 210.791 74.61 210.308 74.61ZM210.311 73.7667C210.624 73.7667 210.884 73.6838 211.09 73.5181C211.296 73.3523 211.449 73.1317 211.547 72.8562C211.648 72.5807 211.698 72.2772 211.698 71.9457C211.698 71.6164 211.648 71.314 211.547 71.0385C211.449 70.7608 211.296 70.5379 211.09 70.3699C210.884 70.2019 210.624 70.1179 210.311 70.1179C209.995 70.1179 209.733 70.2019 209.525 70.3699C209.319 70.5379 209.165 70.7608 209.064 71.0385C208.966 71.314 208.917 71.6164 208.917 71.9457C208.917 72.2772 208.966 72.5807 209.064 72.8562C209.165 73.1317 209.319 73.3523 209.525 73.5181C209.733 73.6838 209.995 73.7667 210.311 73.7667ZM213.835 74.5059V69.3451H214.806V70.1649H214.859C214.953 69.8872 215.119 69.6688 215.357 69.5098C215.596 69.3485 215.867 69.2679 216.17 69.2679C216.232 69.2679 216.306 69.2701 216.391 69.2746C216.479 69.2791 216.547 69.2847 216.596 69.2914V70.2523C216.556 70.2411 216.484 70.2288 216.381 70.2153C216.278 70.1997 216.175 70.1918 216.072 70.1918C215.835 70.1918 215.623 70.2422 215.437 70.343C215.253 70.4416 215.108 70.5793 215 70.7563C214.893 70.931 214.839 71.1303 214.839 71.3543V74.5059H213.835ZM218.39 72.7554L218.383 71.529H218.558L220.614 69.3451H221.817L219.471 71.8314H219.314L218.39 72.7554ZM217.466 74.5059V67.6249H218.47V74.5059H217.466ZM220.725 74.5059L218.877 72.0532L219.569 71.351L221.958 74.5059H220.725ZM227.41 74.61C226.926 74.61 226.504 74.4991 226.143 74.2774C225.783 74.0556 225.503 73.7454 225.303 73.3467C225.104 72.948 225.004 72.4821 225.004 71.949C225.004 71.4137 225.104 70.9455 225.303 70.5446C225.503 70.1437 225.783 69.8323 226.143 69.6106C226.504 69.3888 226.926 69.2779 227.41 69.2779C227.894 69.2779 228.316 69.3888 228.677 69.6106C229.037 69.8323 229.317 70.1437 229.517 70.5446C229.716 70.9455 229.816 71.4137 229.816 71.949C229.816 72.4821 229.716 72.948 229.517 73.3467C229.317 73.7454 229.037 74.0556 228.677 74.2774C228.316 74.4991 227.894 74.61 227.41 74.61ZM227.413 73.7667C227.727 73.7667 227.987 73.6838 228.193 73.5181C228.399 73.3523 228.551 73.1317 228.65 72.8562C228.751 72.5807 228.801 72.2772 228.801 71.9457C228.801 71.6164 228.751 71.314 228.65 71.0385C228.551 70.7608 228.399 70.5379 228.193 70.3699C227.987 70.2019 227.727 70.1179 227.413 70.1179C227.097 70.1179 226.835 70.2019 226.627 70.3699C226.421 70.5379 226.268 70.7608 226.167 71.0385C226.068 71.314 226.019 71.6164 226.019 71.9457C226.019 72.2772 226.068 72.5807 226.167 72.8562C226.268 73.1317 226.421 73.3523 226.627 73.5181C226.835 73.6838 227.097 73.7667 227.413 73.7667ZM233.393 69.3451V70.1515H230.477V69.3451H233.393ZM231.276 74.5059V68.7471C231.276 68.4245 231.347 68.1569 231.488 67.9441C231.629 67.7291 231.816 67.5689 232.049 67.4636C232.282 67.3561 232.535 67.3024 232.808 67.3024C233.01 67.3024 233.182 67.3192 233.326 67.3528C233.469 67.3841 233.576 67.4132 233.645 67.4401L233.41 68.2532C233.363 68.2398 233.302 68.2241 233.228 68.2062C233.154 68.186 233.065 68.1759 232.96 68.1759C232.715 68.1759 232.541 68.2364 232.435 68.3574C232.332 68.4783 232.281 68.653 232.281 68.8815V74.5059H231.276ZM236.886 69.3451V70.1515H233.969V69.3451H236.886ZM234.769 74.5059V68.7471C234.769 68.4245 234.839 68.1569 234.98 67.9441C235.122 67.7291 235.309 67.5689 235.542 67.4636C235.775 67.3561 236.028 67.3024 236.301 67.3024C236.503 67.3024 236.675 67.3192 236.818 67.3528C236.962 67.3841 237.068 67.4132 237.138 67.4401L236.902 68.2532C236.855 68.2398 236.795 68.2241 236.721 68.2062C236.647 68.186 236.557 68.1759 236.452 68.1759C236.208 68.1759 236.033 68.2364 235.928 68.3574C235.825 68.4783 235.773 68.653 235.773 68.8815V74.5059H234.769ZM238.927 67.6249V74.5059H237.922V67.6249H238.927ZM240.278 74.5059V69.3451H241.283V74.5059H240.278ZM240.785 68.5489C240.611 68.5489 240.461 68.4906 240.335 68.3742C240.212 68.2554 240.15 68.1143 240.15 67.9508C240.15 67.7851 240.212 67.6439 240.335 67.5275C240.461 67.4088 240.611 67.3494 240.785 67.3494C240.96 67.3494 241.109 67.4088 241.232 67.5275C241.358 67.6439 241.42 67.7851 241.42 67.9508C241.42 68.1143 241.358 68.2554 241.232 68.3742C241.109 68.4906 240.96 68.5489 240.785 68.5489ZM243.639 71.4417V74.5059H242.634V69.3451H243.598V70.1851H243.662C243.781 69.9118 243.967 69.6923 244.22 69.5266C244.475 69.3608 244.797 69.2779 245.184 69.2779C245.536 69.2779 245.844 69.3519 246.108 69.4997C246.373 69.6453 246.578 69.8626 246.723 70.1515C246.869 70.4405 246.942 70.7977 246.942 71.2233V74.5059H245.937V71.3443C245.937 70.9702 245.84 70.6779 245.645 70.4673C245.45 70.2545 245.182 70.1481 244.842 70.1481C244.609 70.1481 244.401 70.1985 244.22 70.2993C244.041 70.4001 243.899 70.548 243.793 70.7428C243.69 70.9355 243.639 71.1684 243.639 71.4417ZM250.513 74.61C250.005 74.61 249.567 74.5014 249.199 74.2841C248.834 74.0646 248.552 73.7566 248.353 73.3602C248.156 72.9615 248.057 72.4944 248.057 71.9591C248.057 71.4305 248.156 70.9646 248.353 70.5614C248.552 70.1582 248.83 69.8435 249.186 69.6173C249.544 69.3911 249.963 69.2779 250.442 69.2779C250.734 69.2779 251.016 69.3261 251.289 69.4224C251.562 69.5187 251.808 69.6699 252.025 69.876C252.242 70.0821 252.414 70.3497 252.539 70.679C252.664 71.006 252.727 71.4036 252.727 71.8717V72.2279H248.625V71.4753H251.743C251.743 71.211 251.689 70.9769 251.581 70.7731C251.474 70.567 251.323 70.4046 251.128 70.2859C250.935 70.1672 250.709 70.1078 250.449 70.1078C250.167 70.1078 249.921 70.1773 249.71 70.3161C249.502 70.4528 249.34 70.632 249.226 70.8537C249.114 71.0732 249.058 71.3118 249.058 71.5694V72.1573C249.058 72.5023 249.119 72.7957 249.24 73.0376C249.363 73.2795 249.534 73.4643 249.754 73.592C249.973 73.7174 250.23 73.7801 250.523 73.7801C250.714 73.7801 250.887 73.7533 251.044 73.6995C251.201 73.6435 251.336 73.5606 251.45 73.4509C251.565 73.3411 251.652 73.2056 251.712 73.0443L252.663 73.2157C252.587 73.4957 252.451 73.7409 252.253 73.9515C252.059 74.1598 251.813 74.3222 251.518 74.4387C251.224 74.5529 250.889 74.61 250.513 74.61Z" fill="#211447"/>
<rect x="270.017" y="62.2676" width="31.3167" height="17.4791" rx="8.73955" fill="#4F3895"/>
<circle cx="292.594" cy="71.0078" r="6.55466" fill="#FAFAFF"/>
</g>
</g>
<defs>
<filter id="filter0_d_271_1879" x="0.507168" y="63.7536" width="257.616" height="177.986" filterUnits="userSpaceOnUse" color-interpolation-filters="sRGB">
<feFlood flood-opacity="0" result="BackgroundImageFix"/>
<feColorMatrix in="SourceAlpha" type="matrix" values="0 0 0 0 0 0 0 0 0 0 0 0 0 0 0 0 0 0 127 0" result="hardAlpha"/>
<feOffset dy="4.24642"/>
<feGaussianBlur stdDeviation="4.24642"/>
<feComposite in2="hardAlpha" operator="out"/>
<feColorMatrix type="matrix" values="0 0 0 0 0 0 0 0 0 0 0 0 0 0 0 0 0 0 0.07 0"/>
<feBlend mode="normal" in2="BackgroundImageFix" result="effect1_dropShadow_271_1879"/>
<feBlend mode="normal" in="SourceGraphic" in2="effect1_dropShadow_271_1879" result="shape"/>
</filter>
<filter id="filter1_dd_271_1879" x="119.953" y="14.9763" width="194.779" height="115.849" filterUnits="userSpaceOnUse" color-interpolation-filters="sRGB">
<feFlood flood-opacity="0" result="BackgroundImageFix"/>
<feColorMatrix in="SourceAlpha" type="matrix" values="0 0 0 0 0 0 0 0 0 0 0 0 0 0 0 0 0 0 127 0" result="hardAlpha"/>
<feOffset dy="1.01183"/>
<feGaussianBlur stdDeviation="1.01183"/>
<feComposite in2="hardAlpha" operator="out"/>
<feColorMatrix type="matrix" values="0 0 0 0 0 0 0 0 0 0 0 0 0 0 0 0 0 0 0.08 0"/>
<feBlend mode="normal" in2="BackgroundImageFix" result="effect1_dropShadow_271_1879"/>
<feColorMatrix in="SourceAlpha" type="matrix" values="0 0 0 0 0 0 0 0 0 0 0 0 0 0 0 0 0 0 127 0" result="hardAlpha"/>
<feOffset dy="2.02367"/>
<feGaussianBlur stdDeviation="2.02367"/>
<feComposite in2="hardAlpha" operator="out"/>
<feColorMatrix type="matrix" values="0 0 0 0 0 0 0 0 0 0 0 0 0 0 0 0 0 0 0.04 0"/>
<feBlend mode="normal" in2="effect1_dropShadow_271_1879" result="effect2_dropShadow_271_1879"/>
<feBlend mode="normal" in="SourceGraphic" in2="effect2_dropShadow_271_1879" result="shape"/>
</filter>
<filter id="filter2_dd_271_1879" x="120.317" y="48.2931" width="178.366" height="48.8509" filterUnits="userSpaceOnUse" color-interpolation-filters="sRGB">
<feFlood flood-opacity="0" result="BackgroundImageFix"/>
<feColorMatrix in="SourceAlpha" type="matrix" values="0 0 0 0 0 0 0 0 0 0 0 0 0 0 0 0 0 0 127 0" result="hardAlpha"/>
<feOffset dy="1.84162"/>
<feGaussianBlur stdDeviation="1.84162"/>
<feComposite in2="hardAlpha" operator="out"/>
<feColorMatrix type="matrix" values="0 0 0 0 0 0 0 0 0 0 0 0 0 0 0 0 0 0 0.04 0"/>
<feBlend mode="normal" in2="BackgroundImageFix" result="effect1_dropShadow_271_1879"/>
<feColorMatrix in="SourceAlpha" type="matrix" values="0 0 0 0 0 0 0 0 0 0 0 0 0 0 0 0 0 0 127 0" result="hardAlpha"/>
<feOffset dy="0.613874"/>
<feGaussianBlur stdDeviation="0.613874"/>
<feComposite in2="hardAlpha" operator="out"/>
<feColorMatrix type="matrix" values="0 0 0 0 0 0 0 0 0 0 0 0 0 0 0 0 0 0 0.06 0"/>
<feBlend mode="normal" in2="effect1_dropShadow_271_1879" result="effect2_dropShadow_271_1879"/>
<feBlend mode="normal" in="SourceGraphic" in2="effect2_dropShadow_271_1879" result="shape"/>
</filter>
<filter id="filter3_ddd_271_1879" x="120.459" y="49.314" width="198.32" height="51.4804" filterUnits="userSpaceOnUse" color-interpolation-filters="sRGB">
<feFlood flood-opacity="0" result="BackgroundImageFix"/>
<feColorMatrix in="SourceAlpha" type="matrix" values="0 0 0 0 0 0 0 0 0 0 0 0 0 0 0 0 0 0 127 0" result="hardAlpha"/>
<feOffset dy="1.96149"/>
<feGaussianBlur stdDeviation="1.96149"/>
<feComposite in2="hardAlpha" operator="out"/>
<feColorMatrix type="matrix" values="0 0 0 0 0 0 0 0 0 0 0 0 0 0 0 0 0 0 0.04 0"/>
<feBlend mode="normal" in2="BackgroundImageFix" result="effect1_dropShadow_271_1879"/>
<feColorMatrix in="SourceAlpha" type="matrix" values="0 0 0 0 0 0 0 0 0 0 0 0 0 0 0 0 0 0 127 0" result="hardAlpha"/>
<feOffset dy="1.07769"/>
<feGaussianBlur stdDeviation="1.07769"/>
<feComposite in2="hardAlpha" operator="out"/>
<feColorMatrix type="matrix" values="0 0 0 0 0 0 0 0 0 0 0 0 0 0 0 0 0 0 0.06 0"/>
<feBlend mode="normal" in2="effect1_dropShadow_271_1879" result="effect2_dropShadow_271_1879"/>
<feColorMatrix in="SourceAlpha" type="matrix" values="0 0 0 0 0 0 0 0 0 0 0 0 0 0 0 0 0 0 127 0" result="hardAlpha"/>
<feOffset dy="4.04734"/>
<feGaussianBlur stdDeviation="4.04734"/>
<feComposite in2="hardAlpha" operator="out"/>
<feColorMatrix type="matrix" values="0 0 0 0 0 0 0 0 0 0 0 0 0 0 0 0 0 0 0.04 0"/>
<feBlend mode="normal" in2="effect2_dropShadow_271_1879" result="effect3_dropShadow_271_1879"/>
<feBlend mode="normal" in="SourceGraphic" in2="effect3_dropShadow_271_1879" result="shape"/>
</filter>
<clipPath id="clip0_271_1879">
<rect x="9" y="68" width="240.63" height="161" rx="5.66189" fill="white"/>
</clipPath>
</defs>
</svg>
