<svg width="310" height="250" viewBox="0 0 310 250" fill="none" xmlns="http://www.w3.org/2000/svg">
<circle cx="165.763" cy="119.763" r="110.763" fill="#F1D9FF"/>
<g filter="url(#filter0_d_354_2254)">
<g clip-path="url(#clip0_354_2254)">
<rect width="274.054" height="31.5728" transform="translate(8 19)" fill="#23282D"/>
<g clip-path="url(#clip1_354_2254)">
<path d="M31.528 29.9551L26.5883 39.6115H21.9484L24.0158 35.6096H23.9229C22.2174 37.8234 19.6727 39.2812 16.0469 39.6115V35.6651C16.0469 35.6651 18.3665 35.5277 19.7301 34.0944H16.0469V29.9551H20.1862V33.3596L20.279 33.359L21.9704 29.9551H25.1014V33.3377H25.1943L26.9488 29.9551H31.528Z" fill="white"/>
</g>
<rect x="90.2969" y="33.2773" width="22.7964" height="3.0172" rx="1.34097" fill="#C9C9C9"/>
<rect x="122.48" y="33.2773" width="22.7964" height="3.0172" rx="1.34097" fill="#C9C9C9"/>
<rect x="154.664" y="33.2773" width="22.7964" height="3.0172" rx="1.34097" fill="#C9C9C9"/>
<rect x="186.848" y="33.2773" width="22.7964" height="3.0172" rx="1.34097" fill="#C9C9C9"/>
<rect x="219.031" y="33.2773" width="22.7964" height="3.0172" rx="1.34097" fill="#C9C9C9"/>
<rect x="251.215" y="33.2773" width="22.7964" height="3.0172" rx="1.34097" fill="#C9C9C9"/>
<g clip-path="url(#clip2_354_2254)">
<rect width="274.054" height="133.427" transform="translate(8 50.5732)" fill="#404040"/>
<rect width="47.2176" height="133.138" transform="translate(234.797 50.4863)" fill="#292929"/>
<rect x="240.992" y="58.2256" width="34.8326" height="6.96653" rx="1.34097" fill="#484848"/>
<rect x="240.992" y="72.9355" width="34.8326" height="22.4477" rx="1.34097" fill="#484848"/>
<rect width="10.8368" height="133.138" transform="translate(8 50.4863)" fill="#292929"/>
<rect x="11.0977" y="54.3574" width="4.64435" height="4.64435" rx="1.34097" fill="#484848"/>
<rect x="11.0977" y="65.1943" width="4.64435" height="4.64435" rx="1.34097" fill="#484848"/>
<rect x="11.0977" y="76.0303" width="4.64435" height="4.64435" rx="1.34097" fill="#484848"/>
<rect x="11.0977" y="86.8672" width="4.64435" height="4.64435" rx="1.34097" fill="#484848"/>
<rect x="11.0977" y="97.7041" width="4.64435" height="4.64435" rx="1.34097" fill="#484848"/>
<rect x="11.0977" y="108.541" width="4.64435" height="4.64435" rx="1.34097" fill="#484848"/>
<rect x="11.0977" y="119.379" width="4.64435" height="4.64435" rx="1.34097" fill="#484848"/>
<rect x="11.0977" y="175.109" width="4.64435" height="4.64435" rx="1.34097" fill="#484848"/>
<rect width="170.42" height="133.572" transform="translate(41.3945 50.0908)" fill="#FDFEFF"/>
<circle cx="61.2537" cy="59.6629" r="2.87872" fill="#E0EDF3"/>
<rect x="66.4336" y="57.6475" width="12" height="4.0302" rx="2.0151" fill="#E0EDF3"/>
<rect x="102.617" y="58.1514" width="6" height="3.02265" rx="1.51133" fill="#E0EDF3"/>
<rect x="114.375" y="58.1514" width="14" height="3.02265" rx="1.51133" fill="#E0EDF3"/>
<rect x="134.133" y="58.1514" width="7" height="3.02265" rx="1.51133" fill="#E0EDF3"/>
<rect x="146.891" y="58.1514" width="6" height="3.02265" rx="1.51133" fill="#E0EDF3"/>
<rect x="177.07" y="55.8486" width="18.9089" height="7.6286" rx="3.8143" fill="#6189F6"/>
<rect x="58.9558" y="140.195" width="138.754" height="33.9689" rx="4.31807" fill="#E0EDF3"/>
<rect x="58.9558" y="140.195" width="138.754" height="33.9689" rx="4.31807" stroke="#B8D5E4" stroke-width="0.575743" stroke-dasharray="2.3 2.3"/>
<path d="M79.8449 160V154.909H83.156V155.682H80.7671V157.064H82.9845V157.837H80.7671V159.227H83.1759V160H79.8449ZM84.0969 154.909H85.2254L86.7368 158.598H86.7964L88.3078 154.909H89.4363V160H88.5514V156.502H88.5042L87.0972 159.985H86.436L85.029 156.495H84.9818V160H84.0969V154.909ZM90.4406 160V154.909H92.3895C92.7574 154.909 93.0631 154.967 93.3067 155.083C93.552 155.197 93.7351 155.354 93.8561 155.553C93.9787 155.752 94.04 155.977 94.04 156.229C94.04 156.436 94.0003 156.614 93.9207 156.761C93.8412 156.907 93.7343 157.025 93.6001 157.116C93.4658 157.208 93.3158 157.273 93.1501 157.313V157.363C93.3308 157.373 93.5039 157.428 93.6697 157.529C93.837 157.629 93.9738 157.769 94.0798 157.952C94.1859 158.134 94.2389 158.354 94.2389 158.613C94.2389 158.876 94.1751 159.113 94.0475 159.324C93.9199 159.533 93.7277 159.698 93.4708 159.819C93.2139 159.94 92.8908 160 92.5013 160H90.4406ZM91.3628 159.229H92.3547C92.6894 159.229 92.9305 159.166 93.078 159.038C93.2272 158.909 93.3018 158.743 93.3018 158.541C93.3018 158.39 93.2645 158.254 93.1899 158.133C93.1153 158.011 93.0093 157.914 92.8717 157.845C92.7342 157.774 92.5701 157.738 92.3795 157.738H91.3628V159.229ZM91.3628 157.074H92.2751C92.4342 157.074 92.5776 157.045 92.7052 156.987C92.8328 156.928 92.933 156.844 93.0059 156.736C93.0805 156.627 93.1178 156.498 93.1178 156.348C93.1178 156.151 93.0482 155.989 92.909 155.861C92.7715 155.734 92.5668 155.67 92.295 155.67H91.3628V157.074ZM95.0412 160V154.909H98.3523V155.682H95.9634V157.064H98.1808V157.837H95.9634V159.227H98.3722V160H95.0412ZM101.018 160H99.2931V154.909H101.053C101.559 154.909 101.993 155.011 102.356 155.215C102.72 155.417 103 155.708 103.196 156.087C103.391 156.467 103.489 156.921 103.489 157.45C103.489 157.98 103.391 158.436 103.193 158.817C102.998 159.198 102.715 159.49 102.346 159.694C101.978 159.898 101.535 160 101.018 160ZM100.215 159.202H100.974C101.328 159.202 101.624 159.137 101.861 159.008C102.098 158.877 102.276 158.683 102.395 158.424C102.515 158.164 102.574 157.839 102.574 157.45C102.574 157.06 102.515 156.737 102.395 156.48C102.276 156.222 102.1 156.029 101.866 155.901C101.634 155.772 101.346 155.707 101.001 155.707H100.215V159.202ZM105.754 154.909H106.795L108.041 157.161H108.09L109.336 154.909H110.377L108.525 158.101V160H107.606V158.101L105.754 154.909ZM115.292 157.455C115.292 158.003 115.19 158.473 114.984 158.864C114.78 159.253 114.502 159.552 114.149 159.759C113.798 159.966 113.399 160.07 112.953 160.07C112.507 160.07 112.108 159.966 111.755 159.759C111.404 159.55 111.125 159.251 110.92 158.862C110.716 158.47 110.614 158.001 110.614 157.455C110.614 156.906 110.716 156.437 110.92 156.048C111.125 155.656 111.404 155.357 111.755 155.15C112.108 154.943 112.507 154.839 112.953 154.839C113.399 154.839 113.798 154.943 114.149 155.15C114.502 155.357 114.78 155.656 114.984 156.048C115.19 156.437 115.292 156.906 115.292 157.455ZM114.365 157.455C114.365 157.068 114.305 156.743 114.184 156.478C114.064 156.211 113.899 156.009 113.687 155.874C113.474 155.736 113.23 155.667 112.953 155.667C112.676 155.667 112.432 155.736 112.22 155.874C112.008 156.009 111.841 156.211 111.72 156.478C111.601 156.743 111.541 157.068 111.541 157.455C111.541 157.841 111.601 158.167 111.72 158.434C111.841 158.699 112.008 158.9 112.22 159.038C112.432 159.174 112.676 159.242 112.953 159.242C113.23 159.242 113.474 159.174 113.687 159.038C113.899 158.9 114.064 158.699 114.184 158.434C114.305 158.167 114.365 157.841 114.365 157.455ZM119.373 154.909H120.296V158.235C120.296 158.6 120.209 158.92 120.037 159.197C119.866 159.474 119.626 159.69 119.316 159.846C119.006 160 118.644 160.077 118.23 160.077C117.814 160.077 117.451 160 117.141 159.846C116.831 159.69 116.591 159.474 116.42 159.197C116.25 158.92 116.164 158.6 116.164 158.235V154.909H117.086V158.158C117.086 158.37 117.133 158.559 117.226 158.725C117.32 158.891 117.453 159.021 117.623 159.115C117.794 159.208 117.996 159.254 118.23 159.254C118.464 159.254 118.666 159.208 118.836 159.115C119.009 159.021 119.141 158.891 119.234 158.725C119.327 158.559 119.373 158.37 119.373 158.158V154.909ZM121.298 160V154.909H123.207C123.598 154.909 123.926 154.977 124.191 155.113C124.458 155.249 124.66 155.439 124.796 155.685C124.933 155.928 125.002 156.212 125.002 156.537C125.002 156.864 124.932 157.147 124.793 157.387C124.656 157.626 124.453 157.811 124.184 157.942C123.916 158.071 123.586 158.136 123.195 158.136H121.835V157.37H123.07C123.299 157.37 123.486 157.339 123.632 157.276C123.778 157.211 123.886 157.117 123.955 156.995C124.027 156.87 124.062 156.718 124.062 156.537C124.062 156.357 124.027 156.203 123.955 156.075C123.884 155.946 123.776 155.848 123.63 155.782C123.484 155.714 123.296 155.68 123.065 155.68H122.22V160H121.298ZM123.928 157.693L125.188 160H124.159L122.921 157.693H123.928ZM127.587 160V154.909H130.848V155.682H128.509V157.064H130.625V157.837H128.509V160H127.587ZM136.238 157.455C136.238 158.003 136.135 158.473 135.929 158.864C135.726 159.253 135.447 159.552 135.094 159.759C134.743 159.966 134.344 160.07 133.899 160.07C133.453 160.07 133.053 159.966 132.7 159.759C132.349 159.55 132.071 159.251 131.865 158.862C131.661 158.47 131.559 158.001 131.559 157.455C131.559 156.906 131.661 156.437 131.865 156.048C132.071 155.656 132.349 155.357 132.7 155.15C133.053 154.943 133.453 154.839 133.899 154.839C134.344 154.839 134.743 154.943 135.094 155.15C135.447 155.357 135.726 155.656 135.929 156.048C136.135 156.437 136.238 156.906 136.238 157.455ZM135.31 157.455C135.31 157.068 135.25 156.743 135.129 156.478C135.01 156.211 134.844 156.009 134.632 155.874C134.42 155.736 134.175 155.667 133.899 155.667C133.622 155.667 133.377 155.736 133.165 155.874C132.953 156.009 132.787 156.211 132.666 156.478C132.546 156.743 132.487 157.068 132.487 157.455C132.487 157.841 132.546 158.167 132.666 158.434C132.787 158.699 132.953 158.9 133.165 159.038C133.377 159.174 133.622 159.242 133.899 159.242C134.175 159.242 134.42 159.174 134.632 159.038C134.844 158.9 135.01 158.699 135.129 158.434C135.25 158.167 135.31 157.841 135.31 157.455ZM137.11 160V154.909H139.019C139.41 154.909 139.738 154.977 140.003 155.113C140.27 155.249 140.471 155.439 140.607 155.685C140.745 155.928 140.813 156.212 140.813 156.537C140.813 156.864 140.744 157.147 140.605 157.387C140.467 157.626 140.264 157.811 139.996 157.942C139.727 158.071 139.397 158.136 139.006 158.136H137.646V157.37H138.882C139.111 157.37 139.298 157.339 139.444 157.276C139.59 157.211 139.697 157.117 139.767 156.995C139.838 156.87 139.874 156.718 139.874 156.537C139.874 156.357 139.838 156.203 139.767 156.075C139.696 155.946 139.587 155.848 139.441 155.782C139.295 155.714 139.107 155.68 138.877 155.68H138.032V160H137.11ZM139.74 157.693L141 160H139.971L138.733 157.693H139.74ZM141.662 154.909H142.791L144.302 158.598H144.362L145.873 154.909H147.002V160H146.117V156.502H146.07L144.663 159.985H144.001L142.594 156.495H142.547V160H141.662V154.909ZM149.742 160V154.909H150.665V157.064H153.024V154.909H153.948V160H153.024V157.837H150.665V160H149.742ZM154.951 160V154.909H158.262V155.682H155.874V157.064H158.091V157.837H155.874V159.227H158.282V160H154.951ZM159.203 160V154.909H161.112C161.503 154.909 161.832 154.977 162.097 155.113C162.364 155.249 162.565 155.439 162.701 155.685C162.838 155.928 162.907 156.212 162.907 156.537C162.907 156.864 162.838 157.147 162.698 157.387C162.561 157.626 162.358 157.811 162.089 157.942C161.821 158.071 161.491 158.136 161.1 158.136H159.74V157.37H160.976C161.204 157.37 161.392 157.339 161.537 157.276C161.683 157.211 161.791 157.117 161.861 156.995C161.932 156.87 161.968 156.718 161.968 156.537C161.968 156.357 161.932 156.203 161.861 156.075C161.789 155.946 161.681 155.848 161.535 155.782C161.389 155.714 161.201 155.68 160.971 155.68H160.126V160H159.203ZM161.833 157.693L163.094 160H162.064L160.827 157.693H161.833ZM163.756 160V154.909H167.067V155.682H164.678V157.064H166.896V157.837H164.678V159.227H167.087V160H163.756ZM168.523 160.055C168.372 160.055 168.242 160.002 168.135 159.896C168.027 159.79 167.974 159.66 167.976 159.508C167.974 159.359 168.027 159.231 168.135 159.125C168.242 159.019 168.372 158.966 168.523 158.966C168.668 158.966 168.795 159.019 168.903 159.125C169.012 159.231 169.068 159.359 169.069 159.508C169.068 159.609 169.041 159.701 168.99 159.784C168.94 159.867 168.874 159.933 168.791 159.983C168.71 160.031 168.62 160.055 168.523 160.055ZM170.553 160.055C170.402 160.055 170.273 160.002 170.165 159.896C170.057 159.79 170.004 159.66 170.006 159.508C170.004 159.359 170.057 159.231 170.165 159.125C170.273 159.019 170.402 158.966 170.553 158.966C170.699 158.966 170.825 159.019 170.933 159.125C171.043 159.231 171.098 159.359 171.1 159.508C171.098 159.609 171.072 159.701 171.02 159.784C170.97 159.867 170.904 159.933 170.821 159.983C170.74 160.031 170.651 160.055 170.553 160.055ZM172.583 160.055C172.432 160.055 172.303 160.002 172.195 159.896C172.088 159.79 172.035 159.66 172.036 159.508C172.035 159.359 172.088 159.231 172.195 159.125C172.303 159.019 172.432 158.966 172.583 158.966C172.729 158.966 172.856 159.019 172.963 159.125C173.073 159.231 173.128 159.359 173.13 159.508C173.128 159.609 173.102 159.701 173.05 159.784C173.001 159.867 172.934 159.933 172.852 159.983C172.77 160.031 172.681 160.055 172.583 160.055ZM174.613 160.055C174.463 160.055 174.333 160.002 174.226 159.896C174.118 159.79 174.065 159.66 174.066 159.508C174.065 159.359 174.118 159.231 174.226 159.125C174.333 159.019 174.463 158.966 174.613 158.966C174.759 158.966 174.886 159.019 174.994 159.125C175.103 159.231 175.159 159.359 175.16 159.508C175.159 159.609 175.132 159.701 175.081 159.784C175.031 159.867 174.965 159.933 174.882 159.983C174.801 160.031 174.711 160.055 174.613 160.055ZM176.644 160.055C176.493 160.055 176.364 160.002 176.256 159.896C176.148 159.79 176.095 159.66 176.097 159.508C176.095 159.359 176.148 159.231 176.256 159.125C176.364 159.019 176.493 158.966 176.644 158.966C176.789 158.966 176.916 159.019 177.024 159.125C177.133 159.231 177.189 159.359 177.191 159.508C177.189 159.609 177.162 159.701 177.111 159.784C177.061 159.867 176.995 159.933 176.912 159.983C176.831 160.031 176.741 160.055 176.644 160.055Z" fill="#2E251D"/>
<rect x="71" y="86" width="111" height="9" rx="4.5" fill="#B8D5E4"/>
<rect x="72.5" y="99" width="108" height="9" rx="4.5" fill="#B8D5E4"/>
<rect x="94" y="112" width="65" height="9" rx="4.5" fill="#B8D5E4"/>
</g>
</g>
</g>
<g filter="url(#filter1_d_354_2254)">
<rect x="151" y="140.788" width="149" height="99.3995" rx="3.82722" fill="white" shape-rendering="crispEdges"/>
<rect x="192.414" y="150.747" width="7.32014" height="9.76018" rx="0.665467" fill="#6434D0"/>
<g clip-path="url(#clip3_354_2254)">
<rect x="193.414" y="153.076" width="5.32373" height="2.32913" rx="1.16457" fill="white"/>
<path d="M195.577 154.236C195.577 154.56 195.279 154.823 194.912 154.823C194.544 154.823 194.246 154.56 194.246 154.236C194.246 153.912 194.544 153.658 194.912 153.658C195.279 153.658 195.577 153.912 195.577 154.236Z" fill="#6434D0"/>
<ellipse cx="197.24" cy="154.24" rx="0.665467" ry="0.582283" fill="#6434D0"/>
</g>
<path d="M206.567 156.356V160.62H205.255V156.356V155.373V152.093V151.109H206.567H210.994V152.093H206.567V155.373H210.174V156.356H206.567ZM213.801 160.784C212.21 160.784 210.931 159.505 210.931 157.914C210.931 156.34 212.21 155.045 213.801 155.045C215.375 155.045 216.67 156.34 216.67 157.914C216.67 159.505 215.375 160.784 213.801 160.784ZM213.801 156.028C212.932 156.028 212.243 156.881 212.243 157.914C212.243 158.964 212.932 159.8 213.801 159.8C214.654 159.8 215.359 158.964 215.359 157.914C215.359 156.881 214.654 156.028 213.801 156.028ZM219.056 157.914V160.62H217.745V155.225H219.056V155.602C219.516 155.258 220.073 155.045 220.696 155.045C220.778 155.045 220.86 155.061 220.942 155.061V156.078C220.827 156.045 220.713 156.028 220.614 156.028C219.745 156.028 219.056 156.881 219.056 157.914ZM228.241 155.045C229.553 155.045 230.618 156.16 230.618 157.504V160.62H229.29V157.504C229.29 156.701 228.782 156.028 228.142 156.028C227.519 156.028 227.011 156.684 226.995 157.504H227.011V160.62H225.683V157.504C225.683 156.701 225.175 156.028 224.535 156.028C223.912 156.028 223.404 156.684 223.404 157.488V160.62H222.092V155.209H223.404V155.405C223.748 155.176 224.174 155.045 224.633 155.045C225.355 155.045 225.994 155.389 226.437 155.914C226.863 155.389 227.519 155.045 228.241 155.045ZM234.561 160.784C233.134 160.784 231.954 159.767 231.724 158.406C231.691 158.258 231.691 158.095 231.691 157.914C231.691 157.75 231.691 157.586 231.724 157.422C231.954 156.078 233.134 155.045 234.561 155.045C235.971 155.045 237.152 156.078 237.381 157.422C237.414 157.586 237.43 157.75 237.43 157.914C237.43 158.095 237.414 158.258 237.381 158.406H236.053H233.052C233.233 159.21 233.839 159.8 234.561 159.8C234.987 159.8 235.381 159.587 235.676 159.226H237.102C236.627 160.161 235.659 160.784 234.561 160.784ZM234.561 156.028C233.839 156.028 233.233 156.635 233.052 157.422H236.053C235.873 156.635 235.266 156.028 234.561 156.028ZM242.525 157.898C242.984 158.209 243.28 158.636 243.28 159.111C243.28 160.046 242.165 160.8 240.82 160.8C239.459 160.8 238.36 160.046 238.36 159.111H239.672C239.672 159.488 240.18 159.816 240.82 159.816C241.443 159.816 241.968 159.488 241.968 159.111C241.968 158.734 241.443 158.422 240.82 158.422C240.148 158.422 239.541 158.226 239.098 157.898C238.688 157.603 238.442 157.193 238.442 156.734C238.442 155.799 239.492 155.061 240.82 155.061C242.132 155.061 243.198 155.799 243.198 156.734H241.886C241.886 156.356 241.394 156.045 240.82 156.045C240.23 156.045 239.754 156.356 239.754 156.734C239.754 157.111 240.23 157.439 240.82 157.439C241.476 157.439 242.083 157.603 242.525 157.898ZM246.376 150.781V155.225H247.934V156.209H246.376V158.734C246.376 159.324 246.704 159.8 247.114 159.8H247.606V160.784H247.114C245.967 160.784 245.065 159.882 245.065 158.734V156.209H244.245V155.225H245.065V150.781H246.376ZM251.446 160.784C250.019 160.784 248.838 159.767 248.609 158.406C248.576 158.258 248.576 158.095 248.576 157.914C248.576 157.75 248.576 157.586 248.609 157.422C248.838 156.078 250.019 155.045 251.446 155.045C252.856 155.045 254.036 156.078 254.266 157.422C254.299 157.586 254.315 157.75 254.315 157.914C254.315 158.095 254.299 158.258 254.266 158.406H252.938H249.937C250.117 159.21 250.724 159.8 251.446 159.8C251.872 159.8 252.265 159.587 252.561 159.226H253.987C253.512 160.161 252.544 160.784 251.446 160.784ZM251.446 156.028C250.724 156.028 250.117 156.635 249.937 157.422H252.938C252.757 156.635 252.151 156.028 251.446 156.028ZM256.701 157.914V160.62H255.389V155.225H256.701V155.602C257.16 155.258 257.718 155.045 258.341 155.045C258.423 155.045 258.505 155.061 258.587 155.061V156.078C258.472 156.045 258.357 156.028 258.259 156.028C257.39 156.028 256.701 156.881 256.701 157.914Z" fill="#6434D0"/>
<path d="M164.23 174.538H164.966V177.738C164.966 178.079 164.886 178.38 164.726 178.643C164.566 178.904 164.341 179.11 164.051 179.261C163.762 179.41 163.422 179.484 163.032 179.484C162.644 179.484 162.305 179.41 162.015 179.261C161.726 179.11 161.501 178.904 161.341 178.643C161.181 178.38 161.101 178.079 161.101 177.738V174.538H161.835V177.679C161.835 177.899 161.883 178.094 161.98 178.265C162.078 178.436 162.217 178.571 162.396 178.669C162.575 178.766 162.787 178.814 163.032 178.814C163.279 178.814 163.492 178.766 163.671 178.669C163.852 178.571 163.99 178.436 164.085 178.265C164.181 178.094 164.23 177.899 164.23 177.679V174.538ZM165.976 179.403V175.754H166.663V176.334H166.701C166.767 176.138 166.884 175.983 167.052 175.871C167.222 175.757 167.413 175.7 167.627 175.7C167.671 175.7 167.724 175.701 167.784 175.705C167.846 175.708 167.894 175.712 167.929 175.716V176.396C167.9 176.388 167.85 176.379 167.777 176.37C167.704 176.359 167.631 176.353 167.558 176.353C167.39 176.353 167.241 176.389 167.109 176.46C166.979 176.53 166.876 176.627 166.8 176.752C166.724 176.876 166.686 177.017 166.686 177.175V179.403H165.976ZM169.254 174.538V179.403H168.544V174.538H169.254Z" fill="#171717"/>
<rect x="160.806" y="184.448" width="129.385" height="15.2302" rx="1.67441" stroke="#E5E5E5" stroke-width="0.478403"/>
<rect x="166.309" y="189.95" width="76.0851" height="4.22695" rx="2.11348" fill="#E2DDF1"/>
<rect x="209.344" y="213.008" width="32.3089" height="17.6112" rx="1.91361" fill="#6434D0"/>
<path d="M217.924 224.313C217.804 224.313 217.71 224.282 217.643 224.22C217.58 224.153 217.549 224.059 217.549 223.938V219.967C217.549 219.846 217.58 219.755 217.643 219.692C217.71 219.625 217.804 219.592 217.924 219.592H219.217C219.994 219.592 220.592 219.795 221.012 220.201C221.436 220.603 221.648 221.186 221.648 221.949C221.648 222.329 221.595 222.666 221.487 222.961C221.38 223.255 221.222 223.503 221.012 223.704C220.806 223.9 220.554 224.052 220.255 224.159C219.956 224.262 219.61 224.313 219.217 224.313H217.924ZM218.246 223.731H219.177C219.471 223.731 219.726 223.695 219.94 223.624C220.159 223.548 220.342 223.436 220.489 223.289C220.637 223.141 220.746 222.956 220.818 222.733C220.889 222.51 220.925 222.248 220.925 221.949C220.925 221.355 220.777 220.911 220.483 220.616C220.193 220.322 219.757 220.174 219.177 220.174H218.246V223.731ZM223.925 224.374C223.595 224.374 223.309 224.305 223.068 224.166C222.831 224.028 222.646 223.831 222.512 223.577C222.378 223.322 222.311 223.023 222.311 222.679C222.311 222.416 222.349 222.181 222.425 221.976C222.501 221.771 222.608 221.594 222.746 221.447C222.889 221.295 223.059 221.181 223.255 221.105C223.456 221.025 223.68 220.985 223.925 220.985C224.251 220.985 224.532 221.054 224.769 221.192C225.01 221.331 225.198 221.527 225.332 221.782C225.466 222.032 225.533 222.331 225.533 222.679C225.533 222.938 225.495 223.173 225.419 223.383C225.343 223.592 225.233 223.771 225.091 223.918C224.952 224.066 224.783 224.18 224.582 224.26C224.385 224.336 224.166 224.374 223.925 224.374ZM223.925 223.851C224.108 223.851 224.269 223.807 224.407 223.717C224.546 223.628 224.653 223.496 224.729 223.322C224.809 223.148 224.849 222.934 224.849 222.679C224.849 222.295 224.765 222.005 224.595 221.809C224.425 221.612 224.202 221.514 223.925 221.514C223.738 221.514 223.575 221.559 223.436 221.648C223.298 221.733 223.188 221.862 223.108 222.036C223.032 222.21 222.994 222.425 222.994 222.679C222.994 223.059 223.079 223.349 223.249 223.55C223.418 223.751 223.644 223.851 223.925 223.851ZM226.627 224.36C226.52 224.36 226.437 224.331 226.379 224.273C226.321 224.211 226.292 224.126 226.292 224.019V221.34C226.292 221.228 226.321 221.143 226.379 221.085C226.437 221.027 226.518 220.998 226.621 220.998C226.728 220.998 226.808 221.027 226.862 221.085C226.92 221.143 226.949 221.228 226.949 221.34V221.862L226.875 221.742C226.973 221.492 227.127 221.304 227.337 221.179C227.547 221.049 227.788 220.985 228.061 220.985C228.319 220.985 228.534 221.034 228.703 221.132C228.878 221.226 229.007 221.371 229.092 221.567C229.177 221.759 229.219 222.003 229.219 222.297V224.019C229.219 224.126 229.19 224.211 229.132 224.273C229.074 224.331 228.991 224.36 228.884 224.36C228.773 224.36 228.688 224.331 228.63 224.273C228.572 224.211 228.543 224.126 228.543 224.019V222.338C228.543 222.056 228.487 221.851 228.375 221.721C228.268 221.592 228.098 221.527 227.866 221.527C227.594 221.527 227.375 221.612 227.21 221.782C227.049 221.951 226.969 222.179 226.969 222.465V224.019C226.969 224.247 226.855 224.36 226.627 224.36ZM231.685 224.374C231.328 224.374 231.02 224.307 230.761 224.173C230.506 224.034 230.308 223.84 230.165 223.59C230.026 223.336 229.957 223.034 229.957 222.686C229.957 222.347 230.026 222.05 230.165 221.795C230.303 221.541 230.493 221.342 230.734 221.199C230.975 221.056 231.25 220.985 231.558 220.985C231.786 220.985 231.989 221.023 232.167 221.099C232.346 221.17 232.498 221.277 232.623 221.42C232.752 221.559 232.848 221.728 232.911 221.929C232.978 222.13 233.011 222.356 233.011 222.606C233.011 222.681 232.989 222.74 232.944 222.78C232.9 222.815 232.833 222.833 232.743 222.833H230.493V222.418H232.556L232.442 222.512C232.442 222.289 232.408 222.099 232.341 221.943C232.279 221.786 232.183 221.668 232.053 221.588C231.928 221.503 231.772 221.46 231.585 221.46C231.375 221.46 231.196 221.509 231.049 221.608C230.906 221.706 230.797 221.842 230.721 222.016C230.645 222.19 230.607 222.393 230.607 222.626V222.666C230.607 223.059 230.698 223.356 230.881 223.557C231.069 223.753 231.339 223.851 231.692 223.851C231.826 223.851 231.966 223.833 232.114 223.798C232.266 223.762 232.408 223.702 232.542 223.617C232.618 223.572 232.685 223.552 232.743 223.557C232.806 223.561 232.855 223.581 232.891 223.617C232.931 223.653 232.955 223.697 232.964 223.751C232.973 223.804 232.964 223.86 232.938 223.918C232.911 223.972 232.864 224.021 232.797 224.066C232.645 224.168 232.469 224.247 232.268 224.3C232.067 224.349 231.873 224.374 231.685 224.374Z" fill="#FAFAFA"/>
</g>
<defs>
<filter id="filter0_d_354_2254" x="3.73455" y="16.8673" width="282.586" height="173.531" filterUnits="userSpaceOnUse" color-interpolation-filters="sRGB">
<feFlood flood-opacity="0" result="BackgroundImageFix"/>
<feColorMatrix in="SourceAlpha" type="matrix" values="0 0 0 0 0 0 0 0 0 0 0 0 0 0 0 0 0 0 127 0" result="hardAlpha"/>
<feOffset dy="2.13272"/>
<feGaussianBlur stdDeviation="2.13272"/>
<feComposite in2="hardAlpha" operator="out"/>
<feColorMatrix type="matrix" values="0 0 0 0 0 0 0 0 0 0 0 0 0 0 0 0 0 0 0.08 0"/>
<feBlend mode="normal" in2="BackgroundImageFix" result="effect1_dropShadow_354_2254"/>
<feBlend mode="normal" in="SourceGraphic" in2="effect1_dropShadow_354_2254" result="shape"/>
</filter>
<filter id="filter1_d_354_2254" x="145.209" y="137.893" width="160.581" height="110.981" filterUnits="userSpaceOnUse" color-interpolation-filters="sRGB">
<feFlood flood-opacity="0" result="BackgroundImageFix"/>
<feColorMatrix in="SourceAlpha" type="matrix" values="0 0 0 0 0 0 0 0 0 0 0 0 0 0 0 0 0 0 127 0" result="hardAlpha"/>
<feOffset dy="2.89531"/>
<feGaussianBlur stdDeviation="2.89531"/>
<feComposite in2="hardAlpha" operator="out"/>
<feColorMatrix type="matrix" values="0 0 0 0 0 0 0 0 0 0 0 0 0 0 0 0 0 0 0.09 0"/>
<feBlend mode="normal" in2="BackgroundImageFix" result="effect1_dropShadow_354_2254"/>
<feBlend mode="normal" in="SourceGraphic" in2="effect1_dropShadow_354_2254" result="shape"/>
</filter>
<clipPath id="clip0_354_2254">
<rect x="8" y="19" width="274.054" height="165" rx="4.26545" fill="white"/>
</clipPath>
<clipPath id="clip1_354_2254">
<rect width="15.4812" height="15.4812" fill="white" transform="translate(16.0469 27.0459)"/>
</clipPath>
<clipPath id="clip2_354_2254">
<rect width="274.054" height="133.427" fill="white" transform="translate(8 50.5732)"/>
</clipPath>
<clipPath id="clip3_354_2254">
<rect x="193.414" y="153.076" width="5.32373" height="2.32913" rx="1.16457" fill="white"/>
</clipPath>
</defs>
</svg>
