<svg width="484" height="280" viewBox="0 0 484 280" fill="none" xmlns="http://www.w3.org/2000/svg">
<path fill-rule="evenodd" clip-rule="evenodd" d="M145.116 254.627C109.915 243.583 83.1093 218.828 65.957 187.577C49.3114 157.249 41.7399 122.279 55.4252 91.2109C69.1258 60.1076 101.442 43.719 134.649 31.6315C174.831 17.0057 218.962 -2.50216 257.046 17.8213C298.848 40.1289 319.157 86.719 322.285 131.764C325.457 177.434 311.907 225.911 273.356 252.646C237.383 277.592 188.088 268.109 145.116 254.627Z" fill="#FCF7FF"/>
<g filter="url(#filter0_dd_5199_18966)">
<rect x="25" y="32.0664" width="375" height="146.748" rx="5.02935" fill="white" shape-rendering="crispEdges"/>
<path d="M52.2133 58.4136H53.8065L54.7501 59.6369L55.4234 60.4335L57.0403 62.5103H55.3333L54.2333 61.1163L53.7638 60.4525L52.2133 58.4136ZM57.2726 56.8204C57.2726 57.8667 57.0766 58.7629 56.6847 59.5089C56.2958 60.2517 55.7648 60.8207 55.0915 61.2158C54.4213 61.611 53.6611 61.8085 52.8108 61.8085C51.9604 61.8085 51.1986 61.611 50.5253 61.2158C49.8552 60.8176 49.3241 60.247 48.9322 59.5041C48.5433 58.7581 48.3489 57.8635 48.3489 56.8204C48.3489 55.7741 48.5433 54.8795 48.9322 54.1366C49.3241 53.3906 49.8552 52.8201 50.5253 52.4249C51.1986 52.0298 51.9604 51.8322 52.8108 51.8322C53.6611 51.8322 54.4213 52.0298 55.0915 52.4249C55.7648 52.8201 56.2958 53.3906 56.6847 54.1366C57.0766 54.8795 57.2726 55.7741 57.2726 56.8204ZM55.504 56.8204C55.504 56.0839 55.3886 55.4627 55.1579 54.9569C54.9303 54.448 54.6142 54.0639 54.2095 53.8047C53.8049 53.5424 53.3387 53.4112 52.8108 53.4112C52.2829 53.4112 51.8166 53.5424 51.412 53.8047C51.0074 54.0639 50.6897 54.448 50.4589 54.9569C50.2313 55.4627 50.1175 56.0839 50.1175 56.8204C50.1175 57.5569 50.2313 58.1796 50.4589 58.6886C50.6897 59.1943 51.0074 59.5784 51.412 59.8408C51.8166 60.1 52.2829 60.2296 52.8108 60.2296C53.3387 60.2296 53.8049 60.1 54.2095 59.8408C54.6142 59.5784 54.9303 59.1943 55.1579 58.6886C55.3886 58.1796 55.504 57.5569 55.504 56.8204ZM65.0702 51.965H66.8293V58.3093C66.8293 59.0047 66.6649 59.6163 66.3362 60.1442C66.0106 60.6721 65.5522 61.0847 64.9611 61.3818C64.37 61.6758 63.6793 61.8228 62.889 61.8228C62.0956 61.8228 61.4033 61.6758 60.8122 61.3818C60.2211 61.0847 59.7627 60.6721 59.4371 60.1442C59.1116 59.6163 58.9488 59.0047 58.9488 58.3093V51.965H60.7079V58.1623C60.7079 58.5669 60.7964 58.9272 60.9734 59.2433C61.1536 59.5595 61.4065 59.8076 61.7321 59.9878C62.0577 60.1648 62.4433 60.2533 62.889 60.2533C63.3347 60.2533 63.7204 60.1648 64.046 59.9878C64.3747 59.8076 64.6276 59.5595 64.8046 59.2433C64.9817 58.9272 65.0702 58.5669 65.0702 58.1623V51.965ZM70.5005 51.965V61.6758H68.7413V51.965H70.5005ZM72.2252 61.6758V60.5805L77.2039 53.4396H72.1968V51.965H79.385V53.0603L74.4111 60.2011H79.4135V61.6758H72.2252Z" fill="#333333"/>
<path d="M49.0593 87.8008H47.8877L50.5203 80.4854H51.7955L54.428 87.8008H53.2564L51.1882 81.8141H51.1311L49.0593 87.8008ZM49.2558 84.9361H53.0564V85.8648H49.2558V84.9361ZM57.3642 87.9079C56.9213 87.9079 56.526 87.7948 56.1783 87.5686C55.833 87.34 55.5615 87.0149 55.3639 86.5935C55.1686 86.1696 55.071 85.6612 55.071 85.0682C55.071 84.4753 55.1698 83.968 55.3675 83.5466C55.5675 83.1251 55.8413 82.8024 56.189 82.5785C56.5367 82.3547 56.9308 82.2428 57.3713 82.2428C57.7119 82.2428 57.9857 82.2999 58.1929 82.4142C58.4024 82.5262 58.5644 82.6571 58.6787 82.8072C58.7954 82.9572 58.8859 83.0893 58.9502 83.2036H59.0144V80.4854H60.0825V87.8008H59.0394V86.9471H58.9502C58.8859 87.0638 58.793 87.1971 58.6715 87.3471C58.5525 87.4972 58.3882 87.6281 58.1786 87.7401C57.969 87.852 57.6976 87.9079 57.3642 87.9079ZM57.5999 86.9971C57.9071 86.9971 58.1667 86.9161 58.3786 86.7542C58.593 86.5899 58.7549 86.3625 58.8644 86.0719C58.9763 85.7814 59.0323 85.4433 59.0323 85.0575C59.0323 84.6765 58.9775 84.3431 58.868 84.0573C58.7585 83.7716 58.5977 83.5489 58.3858 83.3894C58.1738 83.2298 57.9119 83.1501 57.5999 83.1501C57.2785 83.1501 57.0106 83.2334 56.7962 83.4001C56.5819 83.5668 56.42 83.7942 56.3105 84.0824C56.2033 84.3705 56.1497 84.6955 56.1497 85.0575C56.1497 85.4242 56.2045 85.754 56.314 86.0469C56.4236 86.3398 56.5855 86.572 56.7998 86.7435C57.0165 86.9125 57.2832 86.9971 57.5999 86.9971ZM63.6607 87.9079C63.2178 87.9079 62.8225 87.7948 62.4748 87.5686C62.1295 87.34 61.858 87.0149 61.6604 86.5935C61.4651 86.1696 61.3675 85.6612 61.3675 85.0682C61.3675 84.4753 61.4663 83.968 61.664 83.5466C61.864 83.1251 62.1378 82.8024 62.4855 82.5785C62.8332 82.3547 63.2273 82.2428 63.6678 82.2428C64.0084 82.2428 64.2822 82.2999 64.4894 82.4142C64.699 82.5262 64.8609 82.6571 64.9752 82.8072C65.0919 82.9572 65.1824 83.0893 65.2467 83.2036H65.3109V80.4854H66.379V87.8008H65.336V86.9471H65.2467C65.1824 87.0638 65.0895 87.1971 64.968 87.3471C64.849 87.4972 64.6847 87.6281 64.4751 87.7401C64.2656 87.852 63.9941 87.9079 63.6607 87.9079ZM63.8964 86.9971C64.2036 86.9971 64.4632 86.9161 64.6751 86.7542C64.8895 86.5899 65.0514 86.3625 65.1609 86.0719C65.2728 85.7814 65.3288 85.4433 65.3288 85.0575C65.3288 84.6765 65.274 84.3431 65.1645 84.0573C65.055 83.7716 64.8942 83.5489 64.6823 83.3894C64.4703 83.2298 64.2084 83.1501 63.8964 83.1501C63.575 83.1501 63.3071 83.2334 63.0928 83.4001C62.8784 83.5668 62.7165 83.7942 62.607 84.0824C62.4998 84.3705 62.4462 84.6955 62.4462 85.0575C62.4462 85.4242 62.501 85.754 62.6105 86.0469C62.7201 86.3398 62.882 86.572 63.0963 86.7435C63.313 86.9125 63.5797 86.9971 63.8964 86.9971ZM74.641 82.4071C74.6029 82.0689 74.4457 81.807 74.1695 81.6213C73.8932 81.4331 73.5455 81.3391 73.1264 81.3391C72.8264 81.3391 72.5668 81.3867 72.3477 81.482C72.1287 81.5748 71.9584 81.7034 71.837 81.8677C71.7179 82.0297 71.6584 82.2142 71.6584 82.4214C71.6584 82.5952 71.6988 82.7452 71.7798 82.8715C71.8631 82.9977 71.9715 83.1036 72.1049 83.1894C72.2406 83.2727 72.3858 83.343 72.5406 83.4001C72.6954 83.4549 72.8443 83.5001 72.9871 83.5358L73.7015 83.7216C73.9349 83.7787 74.1742 83.8561 74.4195 83.9538C74.6648 84.0514 74.8922 84.18 75.1017 84.3395C75.3113 84.4991 75.4804 84.6967 75.609 84.9325C75.7399 85.1682 75.8054 85.4504 75.8054 85.779C75.8054 86.1934 75.6983 86.5613 75.4839 86.8828C75.272 87.2043 74.9636 87.4579 74.5588 87.6436C74.1564 87.8294 73.6694 87.9222 73.0979 87.9222C72.5502 87.9222 72.0763 87.8353 71.6762 87.6615C71.2762 87.4876 70.963 87.2412 70.7368 86.9221C70.5106 86.6006 70.3855 86.2196 70.3617 85.779H71.469C71.4905 86.0434 71.5762 86.2636 71.7262 86.4399C71.8786 86.6137 72.0727 86.7435 72.3085 86.8292C72.5466 86.9125 72.8073 86.9542 73.0907 86.9542C73.4027 86.9542 73.6801 86.9054 73.923 86.8078C74.1683 86.7078 74.3612 86.5696 74.5016 86.3934C74.6421 86.2148 74.7124 86.0065 74.7124 85.7683C74.7124 85.5516 74.6505 85.3742 74.5267 85.2361C74.4052 85.098 74.2397 84.9837 74.0301 84.8932C73.823 84.8027 73.5884 84.7229 73.3265 84.6539L72.462 84.4181C71.8762 84.2586 71.4119 84.024 71.069 83.7144C70.7284 83.4049 70.5582 82.9953 70.5582 82.4857C70.5582 82.0642 70.6725 81.6963 70.9011 81.3819C71.1297 81.0676 71.4393 80.8235 71.8298 80.6497C72.2203 80.4735 72.6609 80.3854 73.1514 80.3854C73.6468 80.3854 74.0837 80.4723 74.4624 80.6461C74.8434 80.8199 75.1434 81.0593 75.3625 81.3641C75.5816 81.6665 75.6959 82.0142 75.7054 82.4071H74.641ZM79.3497 87.9115C78.8187 87.9115 78.3615 87.7913 77.9781 87.5507C77.5971 87.3078 77.3042 86.9733 77.0994 86.547C76.8946 86.1208 76.7922 85.6326 76.7922 85.0825C76.7922 84.5253 76.897 84.0335 77.1065 83.6073C77.3161 83.1786 77.6114 82.8441 77.9924 82.6036C78.3734 82.363 78.8223 82.2428 79.339 82.2428C79.7557 82.2428 80.1272 82.3202 80.4535 82.475C80.7797 82.6274 81.0428 82.8417 81.2429 83.1179C81.4453 83.3942 81.5655 83.7168 81.6036 84.0859H80.5642C80.507 83.8287 80.3761 83.6073 80.1713 83.4215C79.9689 83.2358 79.6974 83.1429 79.3569 83.1429C79.0592 83.1429 78.7984 83.2215 78.5746 83.3787C78.3531 83.5335 78.1805 83.7549 78.0567 84.0431C77.9328 84.3288 77.8709 84.667 77.8709 85.0575C77.8709 85.4576 77.9316 85.8029 78.0531 86.0934C78.1745 86.3839 78.346 86.6089 78.5675 86.7685C78.7913 86.928 79.0544 87.0078 79.3569 87.0078C79.5593 87.0078 79.7426 86.9709 79.9069 86.8971C80.0736 86.8209 80.2129 86.7125 80.3249 86.572C80.4392 86.4315 80.5189 86.2624 80.5642 86.0648H81.6036C81.5655 86.4196 81.45 86.7363 81.2572 87.0149C81.0643 87.2936 80.8059 87.5126 80.482 87.6722C80.1606 87.8317 79.7831 87.9115 79.3497 87.9115ZM85.0568 87.9115C84.5425 87.9115 84.0936 87.7936 83.7102 87.5579C83.3268 87.3221 83.0291 86.9923 82.8172 86.5684C82.6053 86.1446 82.4993 85.6493 82.4993 85.0825C82.4993 84.5134 82.6053 84.0157 82.8172 83.5894C83.0291 83.1632 83.3268 82.8322 83.7102 82.5964C84.0936 82.3607 84.5425 82.2428 85.0568 82.2428C85.5712 82.2428 86.0201 82.3607 86.4035 82.5964C86.7869 82.8322 87.0845 83.1632 87.2965 83.5894C87.5084 84.0157 87.6144 84.5134 87.6144 85.0825C87.6144 85.6493 87.5084 86.1446 87.2965 86.5684C87.0845 86.9923 86.7869 87.3221 86.4035 87.5579C86.0201 87.7936 85.5712 87.9115 85.0568 87.9115ZM85.0604 87.0149C85.3938 87.0149 85.67 86.9268 85.8891 86.7506C86.1082 86.5744 86.2701 86.3398 86.3749 86.0469C86.4821 85.754 86.5356 85.4314 86.5356 85.0789C86.5356 84.7289 86.4821 84.4074 86.3749 84.1145C86.2701 83.8192 86.1082 83.5823 85.8891 83.4037C85.67 83.2251 85.3938 83.1358 85.0604 83.1358C84.7246 83.1358 84.446 83.2251 84.2246 83.4037C84.0055 83.5823 83.8424 83.8192 83.7352 84.1145C83.6304 84.4074 83.578 84.7289 83.578 85.0789C83.578 85.4314 83.6304 85.754 83.7352 86.0469C83.8424 86.3398 84.0055 86.5744 84.2246 86.7506C84.446 86.9268 84.7246 87.0149 85.0604 87.0149ZM88.8065 87.8008V82.3142H89.8388V83.1858H89.896C89.996 82.8905 90.1722 82.6583 90.4246 82.4892C90.6794 82.3178 90.9676 82.2321 91.2891 82.2321C91.3557 82.2321 91.4343 82.2344 91.5248 82.2392C91.6177 82.244 91.6903 82.2499 91.7427 82.2571V83.2787C91.6998 83.2668 91.6236 83.2537 91.5141 83.2394C91.4045 83.2227 91.295 83.2144 91.1855 83.2144C90.933 83.2144 90.708 83.2679 90.5104 83.3751C90.3151 83.4799 90.1603 83.6263 90.046 83.8145C89.9317 84.0002 89.8746 84.2121 89.8746 84.4503V87.8008H88.8065ZM94.8351 87.9115C94.2946 87.9115 93.829 87.796 93.4385 87.565C93.0503 87.3317 92.7503 87.0042 92.5384 86.5827C92.3288 86.1589 92.224 85.6624 92.224 85.0932C92.224 84.5312 92.3288 84.0359 92.5384 83.6073C92.7503 83.1786 93.0456 82.8441 93.4242 82.6036C93.8052 82.363 94.2505 82.2428 94.7601 82.2428C95.0697 82.2428 95.3697 82.294 95.6603 82.3964C95.9508 82.4988 96.2115 82.6595 96.4425 82.8786C96.6735 83.0977 96.8557 83.3822 96.989 83.7323C97.1224 84.08 97.1891 84.5027 97.1891 85.0004V85.379H92.8277V84.5789H96.1425C96.1425 84.2979 96.0853 84.049 95.971 83.8323C95.8567 83.6132 95.696 83.4406 95.4888 83.3144C95.284 83.1882 95.0435 83.1251 94.7673 83.1251C94.4672 83.1251 94.2053 83.1989 93.9814 83.3465C93.76 83.4918 93.5885 83.6823 93.4671 83.918C93.348 84.1514 93.2885 84.405 93.2885 84.6789V85.304C93.2885 85.6707 93.3528 85.9826 93.4814 86.2398C93.6123 86.497 93.7945 86.6935 94.0279 86.8292C94.2612 86.9626 94.5339 87.0292 94.8459 87.0292C95.0483 87.0292 95.2328 87.0007 95.3995 86.9435C95.5662 86.884 95.7103 86.7959 95.8317 86.6792C95.9532 86.5625 96.046 86.4184 96.1103 86.247L97.1212 86.4291C97.0402 86.7268 96.895 86.9876 96.6854 87.2114C96.4782 87.4329 96.2175 87.6055 95.9032 87.7293C95.5912 87.8508 95.2352 87.9115 94.8351 87.9115ZM103.647 82.3142V83.1715H100.547V82.3142H103.647ZM101.397 87.8008V81.6784C101.397 81.3355 101.472 81.0509 101.622 80.8247C101.772 80.5961 101.971 80.4258 102.218 80.3139C102.466 80.1996 102.735 80.1425 103.026 80.1425C103.24 80.1425 103.423 80.1603 103.576 80.196C103.728 80.2294 103.841 80.2603 103.915 80.2889L103.665 81.1533C103.615 81.139 103.551 81.1224 103.472 81.1033C103.394 81.0819 103.298 81.0712 103.186 81.0712C102.927 81.0712 102.741 81.1355 102.629 81.2641C102.52 81.3927 102.465 81.5784 102.465 81.8213V87.8008H101.397ZM106.844 87.9115C106.33 87.9115 105.881 87.7936 105.497 87.5579C105.114 87.3221 104.816 86.9923 104.604 86.5684C104.393 86.1446 104.287 85.6493 104.287 85.0825C104.287 84.5134 104.393 84.0157 104.604 83.5894C104.816 83.1632 105.114 82.8322 105.497 82.5964C105.881 82.3607 106.33 82.2428 106.844 82.2428C107.358 82.2428 107.807 82.3607 108.191 82.5964C108.574 82.8322 108.872 83.1632 109.084 83.5894C109.296 84.0157 109.402 84.5134 109.402 85.0825C109.402 85.6493 109.296 86.1446 109.084 86.5684C108.872 86.9923 108.574 87.3221 108.191 87.5579C107.807 87.7936 107.358 87.9115 106.844 87.9115ZM106.848 87.0149C107.181 87.0149 107.457 86.9268 107.676 86.7506C107.895 86.5744 108.057 86.3398 108.162 86.0469C108.269 85.754 108.323 85.4314 108.323 85.0789C108.323 84.7289 108.269 84.4074 108.162 84.1145C108.057 83.8192 107.895 83.5823 107.676 83.4037C107.457 83.2251 107.181 83.1358 106.848 83.1358C106.512 83.1358 106.233 83.2251 106.012 83.4037C105.793 83.5823 105.63 83.8192 105.522 84.1145C105.418 84.4074 105.365 84.7289 105.365 85.0789C105.365 85.4314 105.418 85.754 105.522 86.0469C105.63 86.3398 105.793 86.5744 106.012 86.7506C106.233 86.9268 106.512 87.0149 106.848 87.0149ZM110.594 87.8008V82.3142H111.626V83.1858H111.683C111.783 82.8905 111.959 82.6583 112.212 82.4892C112.467 82.3178 112.755 82.2321 113.076 82.2321C113.143 82.2321 113.222 82.2344 113.312 82.2392C113.405 82.244 113.478 82.2499 113.53 82.2571V83.2787C113.487 83.2668 113.411 83.2537 113.301 83.2394C113.192 83.2227 113.082 83.2144 112.973 83.2144C112.72 83.2144 112.495 83.2679 112.298 83.3751C112.102 83.4799 111.948 83.6263 111.833 83.8145C111.719 84.0002 111.662 84.2121 111.662 84.4503V87.8008H110.594ZM119.677 82.3142V83.1715H116.68V82.3142H119.677ZM117.484 80.9997H118.552V86.1898C118.552 86.397 118.583 86.553 118.645 86.6577C118.707 86.7601 118.787 86.8304 118.884 86.8685C118.984 86.9042 119.093 86.9221 119.209 86.9221C119.295 86.9221 119.37 86.9161 119.434 86.9042C119.499 86.8923 119.549 86.8828 119.584 86.8756L119.777 87.7579C119.715 87.7817 119.627 87.8055 119.513 87.8294C119.399 87.8556 119.256 87.8698 119.084 87.8722C118.803 87.877 118.541 87.827 118.299 87.7222C118.056 87.6174 117.859 87.4555 117.709 87.2364C117.559 87.0173 117.484 86.7423 117.484 86.4113V80.9997ZM122.045 84.5431V87.8008H120.977V80.4854H122.03V83.2072H122.098C122.227 82.9119 122.423 82.6774 122.688 82.5035C122.952 82.3297 123.297 82.2428 123.724 82.2428C124.1 82.2428 124.428 82.3202 124.709 82.475C124.993 82.6297 125.212 82.8607 125.367 83.1679C125.524 83.4727 125.602 83.8537 125.602 84.311V87.8008H124.534V84.4395C124.534 84.0371 124.431 83.7252 124.224 83.5037C124.016 83.2798 123.728 83.1679 123.359 83.1679C123.107 83.1679 122.881 83.2215 122.68 83.3287C122.483 83.4358 122.327 83.593 122.213 83.8002C122.101 84.005 122.045 84.2526 122.045 84.5431ZM127.028 87.8008V82.3142H128.096V87.8008H127.028ZM127.567 81.4677C127.381 81.4677 127.222 81.4057 127.088 81.2819C126.957 81.1557 126.892 81.0057 126.892 80.8319C126.892 80.6556 126.957 80.5056 127.088 80.3818C127.222 80.2556 127.381 80.1925 127.567 80.1925C127.753 80.1925 127.911 80.2556 128.042 80.3818C128.175 80.5056 128.242 80.6556 128.242 80.8319C128.242 81.0057 128.175 81.1557 128.042 81.2819C127.911 81.4057 127.753 81.4677 127.567 81.4677ZM133.644 83.6537L132.676 83.8252C132.635 83.7013 132.571 83.5835 132.483 83.4715C132.397 83.3596 132.28 83.2679 132.133 83.1965C131.985 83.1251 131.801 83.0893 131.579 83.0893C131.277 83.0893 131.024 83.1572 130.822 83.2929C130.62 83.4263 130.518 83.5989 130.518 83.8109C130.518 83.9942 130.586 84.1419 130.722 84.2538C130.858 84.3657 131.077 84.4574 131.379 84.5288L132.251 84.7289C132.756 84.8456 133.132 85.0254 133.379 85.2682C133.627 85.5111 133.751 85.8267 133.751 86.2148C133.751 86.5434 133.656 86.8363 133.465 87.0935C133.277 87.3483 133.014 87.5484 132.676 87.6936C132.34 87.8389 131.951 87.9115 131.508 87.9115C130.893 87.9115 130.392 87.7805 130.004 87.5186C129.616 87.2543 129.378 86.8792 129.29 86.3934L130.322 86.2363C130.386 86.5053 130.518 86.7089 130.718 86.8471C130.918 86.9828 131.179 87.0507 131.501 87.0507C131.851 87.0507 132.13 86.978 132.34 86.8328C132.55 86.6851 132.654 86.5053 132.654 86.2934C132.654 86.122 132.59 85.9779 132.461 85.8612C132.335 85.7445 132.141 85.6564 131.879 85.5969L130.951 85.3933C130.439 85.2766 130.06 85.0908 129.815 84.836C129.572 84.5812 129.45 84.2586 129.45 83.868C129.45 83.5442 129.541 83.2608 129.722 83.0179C129.903 82.775 130.153 82.5857 130.472 82.45C130.791 82.3118 131.156 82.2428 131.568 82.2428C132.161 82.2428 132.628 82.3714 132.969 82.6286C133.309 82.8834 133.534 83.2251 133.644 83.6537ZM140.363 85.429H141.449L142.213 86.4256L142.574 86.8685L143.792 88.458H142.663L141.849 87.3971L141.57 87.0114L140.363 85.429ZM144.028 84.1431C144.028 84.9241 143.885 85.5957 143.599 86.1577C143.313 86.7173 142.921 87.1483 142.424 87.4507C141.928 87.7508 141.365 87.9008 140.734 87.9008C140.101 87.9008 139.535 87.7508 139.037 87.4507C138.542 87.1483 138.152 86.7161 137.866 86.1541C137.58 85.5921 137.437 84.9218 137.437 84.1431C137.437 83.362 137.58 82.6917 137.866 82.1321C138.152 81.5701 138.542 81.139 139.037 80.839C139.535 80.5366 140.101 80.3854 140.734 80.3854C141.365 80.3854 141.928 80.5366 142.424 80.839C142.921 81.139 143.313 81.5701 143.599 82.1321C143.885 82.6917 144.028 83.362 144.028 84.1431ZM142.934 84.1431C142.934 83.5477 142.838 83.0465 142.645 82.6393C142.455 82.2297 142.193 81.9201 141.859 81.7106C141.528 81.4986 141.153 81.3927 140.734 81.3927C140.313 81.3927 139.936 81.4986 139.605 81.7106C139.274 81.9201 139.012 82.2297 138.82 82.6393C138.629 83.0465 138.534 83.5477 138.534 84.1431C138.534 84.7384 138.629 85.2409 138.82 85.6505C139.012 86.0577 139.274 86.3672 139.605 86.5792C139.936 86.7887 140.313 86.8935 140.734 86.8935C141.153 86.8935 141.528 86.7887 141.859 86.5792C142.193 86.3672 142.455 86.0577 142.645 85.6505C142.838 85.2409 142.934 84.7384 142.934 84.1431ZM148.793 85.5254V82.3142H149.865V87.8008H148.815V86.8506H148.758C148.632 87.1435 148.429 87.3876 148.15 87.5829C147.874 87.7758 147.53 87.8722 147.118 87.8722C146.766 87.8722 146.454 87.7948 146.182 87.64C145.913 87.4829 145.701 87.2507 145.547 86.9435C145.394 86.6363 145.318 86.2565 145.318 85.804V82.3142H146.386V85.6755C146.386 86.0493 146.49 86.347 146.697 86.5684C146.904 86.7899 147.173 86.9006 147.504 86.9006C147.704 86.9006 147.903 86.8506 148.1 86.7506C148.3 86.6506 148.466 86.4994 148.597 86.297C148.73 86.0946 148.796 85.8374 148.793 85.5254ZM153.665 87.9115C153.124 87.9115 152.659 87.796 152.268 87.565C151.88 87.3317 151.58 87.0042 151.368 86.5827C151.158 86.1589 151.054 85.6624 151.054 85.0932C151.054 84.5312 151.158 84.0359 151.368 83.6073C151.58 83.1786 151.875 82.8441 152.254 82.6036C152.635 82.363 153.08 82.2428 153.59 82.2428C153.899 82.2428 154.199 82.294 154.49 82.3964C154.78 82.4988 155.041 82.6595 155.272 82.8786C155.503 83.0977 155.685 83.3822 155.819 83.7323C155.952 84.08 156.019 84.5027 156.019 85.0004V85.379H151.657V84.5789H154.972C154.972 84.2979 154.915 84.049 154.801 83.8323C154.686 83.6132 154.526 83.4406 154.318 83.3144C154.114 83.1882 153.873 83.1251 153.597 83.1251C153.297 83.1251 153.035 83.1989 152.811 83.3465C152.59 83.4918 152.418 83.6823 152.297 83.918C152.178 84.1514 152.118 84.405 152.118 84.6789V85.304C152.118 85.6707 152.182 85.9826 152.311 86.2398C152.442 86.497 152.624 86.6935 152.857 86.8292C153.091 86.9626 153.363 87.0292 153.675 87.0292C153.878 87.0292 154.062 87.0007 154.229 86.9435C154.396 86.884 154.54 86.7959 154.661 86.6792C154.783 86.5625 154.876 86.4184 154.94 86.247L155.951 86.4291C155.87 86.7268 155.725 86.9876 155.515 87.2114C155.308 87.4329 155.047 87.6055 154.733 87.7293C154.421 87.8508 154.065 87.9115 153.665 87.9115ZM161.315 83.6537L160.347 83.8252C160.307 83.7013 160.242 83.5835 160.154 83.4715C160.068 83.3596 159.952 83.2679 159.804 83.1965C159.656 83.1251 159.472 83.0893 159.25 83.0893C158.948 83.0893 158.696 83.1572 158.493 83.2929C158.291 83.4263 158.19 83.5989 158.19 83.8109C158.19 83.9942 158.257 84.1419 158.393 84.2538C158.529 84.3657 158.748 84.4574 159.05 84.5288L159.922 84.7289C160.427 84.8456 160.803 85.0254 161.051 85.2682C161.298 85.5111 161.422 85.8267 161.422 86.2148C161.422 86.5434 161.327 86.8363 161.136 87.0935C160.948 87.3483 160.685 87.5484 160.347 87.6936C160.011 87.8389 159.622 87.9115 159.179 87.9115C158.565 87.9115 158.063 87.7805 157.675 87.5186C157.287 87.2543 157.049 86.8792 156.961 86.3934L157.993 86.2363C158.057 86.5053 158.19 86.7089 158.39 86.8471C158.59 86.9828 158.85 87.0507 159.172 87.0507C159.522 87.0507 159.802 86.978 160.011 86.8328C160.221 86.6851 160.326 86.5053 160.326 86.2934C160.326 86.122 160.261 85.9779 160.133 85.8612C160.006 85.7445 159.812 85.6564 159.55 85.5969L158.622 85.3933C158.11 85.2766 157.731 85.0908 157.486 84.836C157.243 84.5812 157.121 84.2586 157.121 83.868C157.121 83.5442 157.212 83.2608 157.393 83.0179C157.574 82.775 157.824 82.5857 158.143 82.45C158.462 82.3118 158.828 82.2428 159.24 82.2428C159.833 82.2428 160.299 82.3714 160.64 82.6286C160.98 82.8834 161.205 83.2251 161.315 83.6537ZM165.158 82.3142V83.1715H162.161V82.3142H165.158ZM162.964 80.9997H164.032V86.1898C164.032 86.397 164.063 86.553 164.125 86.6577C164.187 86.7601 164.267 86.8304 164.365 86.8685C164.465 86.9042 164.573 86.9221 164.69 86.9221C164.775 86.9221 164.85 86.9161 164.915 86.9042C164.979 86.8923 165.029 86.8828 165.065 86.8756L165.258 87.7579C165.196 87.7817 165.108 87.8055 164.993 87.8294C164.879 87.8556 164.736 87.8698 164.565 87.8722C164.284 87.877 164.022 87.827 163.779 87.7222C163.536 87.6174 163.339 87.4555 163.189 87.2364C163.039 87.0173 162.964 86.7423 162.964 86.4113V80.9997ZM166.339 87.8008V82.3142H167.407V87.8008H166.339ZM166.878 81.4677C166.693 81.4677 166.533 81.4057 166.4 81.2819C166.269 81.1557 166.203 81.0057 166.203 80.8319C166.203 80.6556 166.269 80.5056 166.4 80.3818C166.533 80.2556 166.693 80.1925 166.878 80.1925C167.064 80.1925 167.222 80.2556 167.353 80.3818C167.487 80.5056 167.553 80.6556 167.553 80.8319C167.553 81.0057 167.487 81.1557 167.353 81.2819C167.222 81.4057 167.064 81.4677 166.878 81.4677ZM171.155 87.9115C170.641 87.9115 170.192 87.7936 169.808 87.5579C169.425 87.3221 169.127 86.9923 168.915 86.5684C168.703 86.1446 168.597 85.6493 168.597 85.0825C168.597 84.5134 168.703 84.0157 168.915 83.5894C169.127 83.1632 169.425 82.8322 169.808 82.5964C170.192 82.3607 170.641 82.2428 171.155 82.2428C171.669 82.2428 172.118 82.3607 172.502 82.5964C172.885 82.8322 173.183 83.1632 173.395 83.5894C173.606 84.0157 173.712 84.5134 173.712 85.0825C173.712 85.6493 173.606 86.1446 173.395 86.5684C173.183 86.9923 172.885 87.3221 172.502 87.5579C172.118 87.7936 171.669 87.9115 171.155 87.9115ZM171.158 87.0149C171.492 87.0149 171.768 86.9268 171.987 86.7506C172.206 86.5744 172.368 86.3398 172.473 86.0469C172.58 85.754 172.634 85.4314 172.634 85.0789C172.634 84.7289 172.58 84.4074 172.473 84.1145C172.368 83.8192 172.206 83.5823 171.987 83.4037C171.768 83.2251 171.492 83.1358 171.158 83.1358C170.823 83.1358 170.544 83.2251 170.323 83.4037C170.104 83.5823 169.94 83.8192 169.833 84.1145C169.728 84.4074 169.676 84.7289 169.676 85.0789C169.676 85.4314 169.728 85.754 169.833 86.0469C169.94 86.3398 170.104 86.5744 170.323 86.7506C170.544 86.9268 170.823 87.0149 171.158 87.0149ZM175.973 84.5431V87.8008H174.905V82.3142H175.93V83.2072H175.998C176.124 82.9167 176.321 82.6833 176.591 82.5071C176.862 82.3309 177.204 82.2428 177.616 82.2428C177.99 82.2428 178.317 82.3214 178.598 82.4785C178.879 82.6333 179.097 82.8643 179.252 83.1715C179.406 83.4787 179.484 83.8585 179.484 84.311V87.8008H178.416V84.4395C178.416 84.0419 178.312 83.7311 178.105 83.5073C177.898 83.281 177.613 83.1679 177.251 83.1679C177.004 83.1679 176.783 83.2215 176.591 83.3287C176.4 83.4358 176.249 83.593 176.137 83.8002C176.027 84.005 175.973 84.2526 175.973 84.5431Z" fill="#333333"/>
<rect x="47.6377" y="95.3164" width="47.8458" height="26.7046" rx="13.3523" fill="#D4D5E0"/>
<circle cx="82.1314" cy="108.67" r="10.0142" fill="#FAFAFF"/>
<rect x="47.6377" y="133.148" width="65.1761" height="28.0587" rx="5.02935" fill="#A58CF0"/>
<path d="M67.4227 144.875C67.3894 144.563 67.2489 144.32 67.0012 144.147C66.756 143.973 66.4369 143.886 66.044 143.886C65.7677 143.886 65.5308 143.928 65.3331 144.011C65.1355 144.094 64.9843 144.207 64.8795 144.35C64.7747 144.493 64.7211 144.656 64.7187 144.84C64.7187 144.992 64.7533 145.124 64.8223 145.236C64.8938 145.348 64.9902 145.443 65.1117 145.522C65.2331 145.598 65.3677 145.662 65.5153 145.715C65.6629 145.767 65.8118 145.811 65.9618 145.847L66.6476 146.018C66.9239 146.083 67.1894 146.17 67.4442 146.279C67.7014 146.389 67.9311 146.527 68.1336 146.693C68.3384 146.86 68.5003 147.061 68.6193 147.297C68.7384 147.533 68.7979 147.809 68.7979 148.126C68.7979 148.554 68.6884 148.932 68.4693 149.258C68.2502 149.582 67.9335 149.836 67.5192 150.019C67.1072 150.2 66.6083 150.29 66.0225 150.29C65.4534 150.29 64.9593 150.202 64.5402 150.026C64.1234 149.85 63.7972 149.593 63.5614 149.255C63.3281 148.916 63.2018 148.504 63.1828 148.019H64.4866C64.5056 148.273 64.5842 148.485 64.7223 148.654C64.8604 148.824 65.0402 148.95 65.2617 149.033C65.4855 149.116 65.7356 149.158 66.0118 149.158C66.2999 149.158 66.5524 149.115 66.7691 149.03C66.9881 148.941 67.1596 148.82 67.2834 148.665C67.4073 148.508 67.4704 148.325 67.4727 148.115C67.4704 147.925 67.4144 147.767 67.3049 147.644C67.1953 147.517 67.0417 147.413 66.8441 147.329C66.6488 147.244 66.4202 147.167 66.1583 147.101L65.326 146.886C64.7235 146.732 64.2472 146.497 63.8972 146.183C63.5495 145.866 63.3757 145.446 63.3757 144.922C63.3757 144.491 63.4924 144.113 63.7257 143.789C63.9615 143.466 64.2818 143.214 64.6866 143.036C65.0914 142.855 65.5498 142.764 66.0618 142.764C66.5809 142.764 67.0358 142.855 67.4263 143.036C67.8192 143.214 68.1276 143.463 68.3515 143.782C68.5753 144.099 68.6908 144.463 68.6979 144.875H67.4227ZM73.4192 147.872V144.693H74.7123V150.18H73.4585V149.205H73.4013C73.2775 149.512 73.0739 149.763 72.7905 149.958C72.5095 150.153 72.163 150.251 71.7511 150.251C71.3915 150.251 71.0736 150.171 70.7974 150.012C70.5235 149.85 70.3092 149.615 70.1544 149.308C69.9996 148.999 69.9222 148.625 69.9222 148.187V144.693H71.2153V147.986C71.2153 148.334 71.3105 148.61 71.501 148.815C71.6915 149.02 71.9416 149.122 72.2512 149.122C72.4417 149.122 72.6262 149.076 72.8048 148.983C72.9834 148.89 73.1299 148.752 73.2442 148.569C73.3609 148.383 73.4192 148.151 73.4192 147.872ZM76.0991 150.18V142.864H77.3921V145.6H77.4457C77.5124 145.467 77.6064 145.325 77.7279 145.175C77.8493 145.023 78.0137 144.893 78.2208 144.786C78.428 144.676 78.6923 144.622 79.0138 144.622C79.4377 144.622 79.8199 144.73 80.1604 144.947C80.5033 145.161 80.7748 145.479 80.9748 145.9C81.1772 146.32 81.2784 146.834 81.2784 147.444C81.2784 148.046 81.1796 148.558 80.982 148.98C80.7843 149.401 80.5152 149.722 80.1747 149.944C79.8342 150.165 79.4484 150.276 79.0174 150.276C78.703 150.276 78.4423 150.224 78.2351 150.119C78.0279 150.014 77.8612 149.888 77.735 149.74C77.6112 149.59 77.5148 149.449 77.4457 149.315H77.3707V150.18H76.0991ZM77.3671 147.436C77.3671 147.791 77.4171 148.102 77.5171 148.369C77.6195 148.635 77.766 148.844 77.9565 148.994C78.1494 149.141 78.3828 149.215 78.6566 149.215C78.9424 149.215 79.1817 149.139 79.3746 148.987C79.5675 148.832 79.7127 148.621 79.8104 148.354C79.9104 148.085 79.9604 147.779 79.9604 147.436C79.9604 147.096 79.9116 146.793 79.8139 146.529C79.7163 146.265 79.571 146.058 79.3781 145.908C79.1853 145.758 78.9447 145.683 78.6566 145.683C78.3804 145.683 78.1458 145.755 77.9529 145.9C77.76 146.046 77.6136 146.249 77.5136 146.511C77.4159 146.773 77.3671 147.082 77.3671 147.436ZM82.3777 150.18V144.693H83.6136V145.625H83.6779C83.7922 145.311 83.9815 145.066 84.2459 144.89C84.5102 144.711 84.8257 144.622 85.1924 144.622C85.5639 144.622 85.8771 144.712 86.1319 144.893C86.389 145.072 86.57 145.316 86.6748 145.625H86.732C86.8534 145.321 87.0582 145.078 87.3463 144.897C87.6369 144.713 87.981 144.622 88.3786 144.622C88.8835 144.622 89.2954 144.781 89.6145 145.1C89.9336 145.419 90.0932 145.885 90.0932 146.497V150.18H88.7966V146.697C88.7966 146.356 88.7061 146.108 88.5251 145.95C88.3441 145.791 88.1226 145.711 87.8607 145.711C87.5487 145.711 87.3047 145.809 87.1284 146.004C86.9546 146.197 86.8677 146.448 86.8677 146.758V150.18H85.5996V146.643C85.5996 146.36 85.5139 146.134 85.3425 145.965C85.1734 145.796 84.9519 145.711 84.6781 145.711C84.4923 145.711 84.3233 145.759 84.1708 145.854C84.0184 145.947 83.897 146.079 83.8065 146.251C83.716 146.42 83.6708 146.617 83.6708 146.843V150.18H82.3777ZM91.405 150.18V144.693H92.6981V150.18H91.405ZM92.0551 143.914C91.8503 143.914 91.6741 143.847 91.5264 143.711C91.3788 143.573 91.305 143.407 91.305 143.214C91.305 143.019 91.3788 142.854 91.5264 142.718C91.6741 142.58 91.8503 142.511 92.0551 142.511C92.2623 142.511 92.4385 142.58 92.5838 142.718C92.7314 142.854 92.8052 143.019 92.8052 143.214C92.8052 143.407 92.7314 143.573 92.5838 143.711C92.4385 143.847 92.2623 143.914 92.0551 143.914ZM96.7674 144.693V145.693H93.6134V144.693H96.7674ZM94.3921 143.379H95.6851V148.529C95.6851 148.703 95.7113 148.837 95.7637 148.929C95.8185 149.02 95.8899 149.082 95.978 149.115C96.0661 149.149 96.1638 149.165 96.2709 149.165C96.3519 149.165 96.4257 149.159 96.4924 149.147C96.5614 149.135 96.6138 149.125 96.6496 149.115L96.8674 150.126C96.7984 150.15 96.6996 150.176 96.571 150.205C96.4448 150.233 96.29 150.25 96.1066 150.255C95.7828 150.264 95.491 150.215 95.2315 150.108C94.9719 149.999 94.7659 149.83 94.6135 149.601C94.4635 149.372 94.3897 149.087 94.3921 148.744V143.379Z" fill="white"/>
</g>
<g filter="url(#filter1_d_5199_18966)">
<rect x="216.686" y="75.5273" width="249.571" height="185.135" rx="9.07531" fill="white"/>
<path d="M237.584 108.414V99.2265H243.344V100.42H238.97V103.219H243.043V104.408H238.97V107.221H243.398V108.414H237.584ZM246.429 104.323V108.414H245.088V101.523H246.375V102.645H246.46C246.619 102.28 246.867 101.987 247.205 101.766C247.546 101.544 247.975 101.434 248.493 101.434C248.962 101.434 249.373 101.532 249.726 101.73C250.079 101.924 250.353 102.214 250.547 102.6C250.742 102.986 250.839 103.463 250.839 104.031V108.414H249.498V104.193C249.498 103.693 249.367 103.303 249.107 103.022C248.847 102.738 248.49 102.596 248.035 102.596C247.724 102.596 247.447 102.663 247.205 102.797C246.966 102.932 246.776 103.129 246.635 103.39C246.498 103.647 246.429 103.958 246.429 104.323ZM255.854 101.523V102.6H252.091V101.523H255.854ZM253.1 99.8725H254.441V106.391C254.441 106.651 254.48 106.847 254.558 106.979C254.636 107.107 254.736 107.195 254.858 107.243C254.984 107.288 255.12 107.31 255.267 107.31C255.374 107.31 255.469 107.303 255.549 107.288C255.63 107.273 255.693 107.261 255.738 107.252L255.98 108.36C255.902 108.39 255.792 108.42 255.648 108.45C255.504 108.483 255.325 108.501 255.11 108.504C254.757 108.51 254.428 108.447 254.123 108.315C253.818 108.184 253.571 107.98 253.383 107.705C253.194 107.43 253.1 107.085 253.1 106.669V99.8725ZM260.234 108.553C259.555 108.553 258.97 108.408 258.48 108.118C257.992 107.825 257.616 107.414 257.349 106.884C257.086 106.352 256.955 105.728 256.955 105.014C256.955 104.308 257.086 103.686 257.349 103.147C257.616 102.609 257.986 102.189 258.462 101.887C258.94 101.585 259.5 101.434 260.14 101.434C260.529 101.434 260.905 101.498 261.27 101.627C261.635 101.755 261.963 101.957 262.253 102.232C262.543 102.507 262.772 102.865 262.939 103.304C263.107 103.741 263.19 104.272 263.19 104.897V105.372H257.713V104.368H261.876C261.876 104.015 261.804 103.702 261.66 103.43C261.517 103.155 261.315 102.938 261.055 102.78C260.798 102.621 260.496 102.542 260.149 102.542C259.772 102.542 259.443 102.634 259.162 102.82C258.884 103.002 258.668 103.242 258.516 103.538C258.366 103.831 258.291 104.149 258.291 104.493V105.278C258.291 105.739 258.372 106.131 258.534 106.454C258.698 106.777 258.927 107.023 259.22 107.194C259.513 107.361 259.856 107.445 260.247 107.445C260.502 107.445 260.733 107.409 260.943 107.337C261.152 107.263 261.333 107.152 261.486 107.005C261.638 106.859 261.755 106.678 261.835 106.463L263.105 106.691C263.003 107.065 262.821 107.393 262.558 107.674C262.298 107.952 261.97 108.169 261.575 108.324C261.183 108.477 260.736 108.553 260.234 108.553ZM264.679 108.414V101.523H265.975V102.618H266.047C266.172 102.247 266.394 101.956 266.711 101.743C267.031 101.528 267.393 101.42 267.796 101.42C267.88 101.42 267.979 101.423 268.092 101.429C268.209 101.435 268.3 101.443 268.366 101.452V102.735C268.312 102.72 268.217 102.703 268.079 102.685C267.941 102.664 267.804 102.654 267.666 102.654C267.349 102.654 267.067 102.721 266.818 102.856C266.573 102.987 266.379 103.171 266.235 103.408C266.092 103.641 266.02 103.907 266.02 104.206V108.414H264.679ZM277.989 101.64C277.941 101.215 277.744 100.886 277.397 100.653C277.05 100.417 276.613 100.299 276.087 100.299C275.71 100.299 275.384 100.359 275.109 100.478C274.834 100.595 274.62 100.756 274.467 100.963C274.318 101.166 274.243 101.398 274.243 101.658C274.243 101.876 274.294 102.065 274.395 102.223C274.5 102.382 274.636 102.515 274.804 102.623C274.974 102.727 275.157 102.815 275.351 102.887C275.545 102.956 275.732 103.013 275.912 103.058L276.809 103.291C277.102 103.363 277.403 103.46 277.711 103.583C278.019 103.705 278.304 103.867 278.567 104.067C278.831 104.267 279.043 104.516 279.205 104.812C279.369 105.108 279.451 105.462 279.451 105.875C279.451 106.395 279.317 106.857 279.048 107.261C278.781 107.665 278.394 107.983 277.886 108.217C277.38 108.45 276.769 108.567 276.051 108.567C275.363 108.567 274.768 108.457 274.265 108.239C273.763 108.021 273.37 107.711 273.085 107.31C272.801 106.907 272.644 106.428 272.614 105.875H274.005C274.032 106.207 274.14 106.484 274.328 106.705C274.52 106.923 274.763 107.086 275.059 107.194C275.358 107.299 275.686 107.351 276.042 107.351C276.434 107.351 276.782 107.29 277.087 107.167C277.395 107.041 277.637 106.868 277.814 106.647C277.99 106.422 278.079 106.161 278.079 105.861C278.079 105.589 278.001 105.367 277.845 105.193C277.693 105.02 277.485 104.876 277.222 104.762C276.961 104.649 276.667 104.549 276.338 104.462L275.252 104.166C274.517 103.965 273.933 103.671 273.503 103.282C273.075 102.893 272.861 102.379 272.861 101.739C272.861 101.209 273.005 100.747 273.292 100.353C273.579 99.9578 273.968 99.6512 274.458 99.4329C274.949 99.2116 275.502 99.1009 276.118 99.1009C276.74 99.1009 277.289 99.2101 277.764 99.4284C278.243 99.6467 278.62 99.9473 278.895 100.33C279.17 100.71 279.314 101.147 279.326 101.64H277.989ZM283.903 108.553C283.236 108.553 282.661 108.402 282.18 108.1C281.701 107.795 281.334 107.375 281.076 106.839C280.819 106.304 280.691 105.691 280.691 105C280.691 104.3 280.822 103.683 281.085 103.147C281.349 102.609 281.719 102.189 282.198 101.887C282.676 101.585 283.24 101.434 283.889 101.434C284.413 101.434 284.879 101.531 285.289 101.725C285.699 101.917 286.029 102.186 286.28 102.533C286.534 102.88 286.685 103.285 286.733 103.749H285.428C285.356 103.426 285.192 103.147 284.934 102.914C284.68 102.681 284.339 102.564 283.912 102.564C283.538 102.564 283.21 102.663 282.929 102.86C282.651 103.055 282.434 103.333 282.279 103.695C282.123 104.054 282.045 104.478 282.045 104.969C282.045 105.471 282.122 105.905 282.274 106.27C282.427 106.635 282.642 106.917 282.92 107.118C283.201 107.318 283.532 107.418 283.912 107.418C284.166 107.418 284.396 107.372 284.602 107.279C284.812 107.183 284.987 107.047 285.127 106.871C285.271 106.694 285.371 106.482 285.428 106.234H286.733C286.685 106.679 286.54 107.077 286.298 107.427C286.056 107.777 285.731 108.052 285.325 108.253C284.921 108.453 284.447 108.553 283.903 108.553ZM291.07 108.553C290.424 108.553 289.861 108.405 289.379 108.109C288.897 107.813 288.524 107.399 288.257 106.866C287.991 106.334 287.858 105.712 287.858 105C287.858 104.285 287.991 103.66 288.257 103.125C288.524 102.59 288.897 102.174 289.379 101.878C289.861 101.582 290.424 101.434 291.07 101.434C291.716 101.434 292.28 101.582 292.762 101.878C293.243 102.174 293.617 102.59 293.883 103.125C294.149 103.66 294.282 104.285 294.282 105C294.282 105.712 294.149 106.334 293.883 106.866C293.617 107.399 293.243 107.813 292.762 108.109C292.28 108.405 291.716 108.553 291.07 108.553ZM291.075 107.427C291.493 107.427 291.84 107.316 292.116 107.095C292.391 106.874 292.594 106.579 292.726 106.211C292.86 105.844 292.928 105.438 292.928 104.996C292.928 104.556 292.86 104.152 292.726 103.784C292.594 103.414 292.391 103.116 292.116 102.892C291.84 102.667 291.493 102.555 291.075 102.555C290.653 102.555 290.303 102.667 290.025 102.892C289.75 103.116 289.545 103.414 289.41 103.784C289.279 104.152 289.213 104.556 289.213 104.996C289.213 105.438 289.279 105.844 289.41 106.211C289.545 106.579 289.75 106.874 290.025 107.095C290.303 107.316 290.653 107.427 291.075 107.427ZM295.78 108.414V101.523H297.076V102.618H297.148C297.273 102.247 297.495 101.956 297.812 101.743C298.132 101.528 298.494 101.42 298.897 101.42C298.981 101.42 299.08 101.423 299.193 101.429C299.31 101.435 299.401 101.443 299.467 101.452V102.735C299.413 102.72 299.318 102.703 299.18 102.685C299.042 102.664 298.905 102.654 298.767 102.654C298.45 102.654 298.168 102.721 297.919 102.856C297.674 102.987 297.48 103.171 297.336 103.408C297.193 103.641 297.121 103.907 297.121 104.206V108.414H295.78ZM303.351 108.553C302.672 108.553 302.087 108.408 301.597 108.118C301.109 107.825 300.733 107.414 300.466 106.884C300.203 106.352 300.072 105.728 300.072 105.014C300.072 104.308 300.203 103.686 300.466 103.147C300.733 102.609 301.103 102.189 301.579 101.887C302.057 101.585 302.617 101.434 303.257 101.434C303.646 101.434 304.022 101.498 304.387 101.627C304.752 101.755 305.08 101.957 305.37 102.232C305.66 102.507 305.889 102.865 306.056 103.304C306.224 103.741 306.307 104.272 306.307 104.897V105.372H300.83V104.368H304.993C304.993 104.015 304.921 103.702 304.778 103.43C304.634 103.155 304.432 102.938 304.172 102.78C303.915 102.621 303.613 102.542 303.266 102.542C302.889 102.542 302.56 102.634 302.279 102.82C302.001 103.002 301.785 103.242 301.633 103.538C301.483 103.831 301.408 104.149 301.408 104.493V105.278C301.408 105.739 301.489 106.131 301.651 106.454C301.815 106.777 302.044 107.023 302.337 107.194C302.63 107.361 302.973 107.445 303.364 107.445C303.619 107.445 303.85 107.409 304.06 107.337C304.269 107.263 304.45 107.152 304.603 107.005C304.755 106.859 304.872 106.678 304.952 106.463L306.222 106.691C306.12 107.065 305.938 107.393 305.675 107.674C305.415 107.952 305.087 108.169 304.692 108.324C304.301 108.477 303.853 108.553 303.351 108.553ZM314.418 101.523V102.6H310.524V101.523H314.418ZM311.592 108.414V100.725C311.592 100.294 311.686 99.9368 311.875 99.6527C312.063 99.3656 312.313 99.1518 312.624 99.0112C312.935 98.8676 313.273 98.7959 313.638 98.7959C313.907 98.7959 314.137 98.8183 314.328 98.8632C314.52 98.905 314.662 98.9439 314.755 98.9798L314.441 100.065C314.378 100.047 314.297 100.027 314.198 100.003C314.1 99.9757 313.98 99.9622 313.839 99.9622C313.513 99.9622 313.28 100.043 313.14 100.204C313.002 100.366 312.933 100.599 312.933 100.904V108.414H311.592ZM318.433 108.553C317.787 108.553 317.223 108.405 316.742 108.109C316.26 107.813 315.887 107.399 315.62 106.866C315.354 106.334 315.221 105.712 315.221 105C315.221 104.285 315.354 103.66 315.62 103.125C315.887 102.59 316.26 102.174 316.742 101.878C317.223 101.582 317.787 101.434 318.433 101.434C319.079 101.434 319.643 101.582 320.124 101.878C320.606 102.174 320.98 102.59 321.246 103.125C321.512 103.66 321.645 104.285 321.645 105C321.645 105.712 321.512 106.334 321.246 106.866C320.98 107.399 320.606 107.813 320.124 108.109C319.643 108.405 319.079 108.553 318.433 108.553ZM318.438 107.427C318.856 107.427 319.203 107.316 319.478 107.095C319.754 106.874 319.957 106.579 320.089 106.211C320.223 105.844 320.29 105.438 320.29 104.996C320.29 104.556 320.223 104.152 320.089 103.784C319.957 103.414 319.754 103.116 319.478 102.892C319.203 102.667 318.856 102.555 318.438 102.555C318.016 102.555 317.666 102.667 317.388 102.892C317.113 103.116 316.908 103.414 316.773 103.784C316.642 104.152 316.576 104.556 316.576 104.996C316.576 105.438 316.642 105.844 316.773 106.211C316.908 106.579 317.113 106.874 317.388 107.095C317.666 107.316 318.016 107.427 318.438 107.427ZM323.143 108.414V101.523H324.439V102.618H324.511C324.636 102.247 324.858 101.956 325.175 101.743C325.495 101.528 325.857 101.42 326.26 101.42C326.344 101.42 326.443 101.423 326.556 101.429C326.673 101.435 326.764 101.443 326.83 101.452V102.735C326.776 102.72 326.681 102.703 326.543 102.685C326.405 102.664 326.268 102.654 326.13 102.654C325.813 102.654 325.531 102.721 325.282 102.856C325.037 102.987 324.843 103.171 324.699 103.408C324.556 103.641 324.484 103.907 324.484 104.206V108.414H323.143ZM331.442 108.414V99.2265H337.202V100.42H332.828V103.219H336.901V104.408H332.828V107.221H337.256V108.414H331.442ZM340.951 108.567C340.515 108.567 340.12 108.486 339.767 108.324C339.414 108.16 339.134 107.922 338.928 107.611C338.725 107.3 338.623 106.919 338.623 106.467C338.623 106.078 338.698 105.758 338.847 105.507C338.997 105.256 339.199 105.057 339.453 104.91C339.707 104.764 339.991 104.653 340.305 104.578C340.619 104.504 340.939 104.447 341.265 104.408C341.678 104.36 342.013 104.321 342.27 104.291C342.527 104.258 342.714 104.206 342.831 104.134C342.948 104.063 343.006 103.946 343.006 103.784V103.753C343.006 103.361 342.895 103.058 342.674 102.842C342.456 102.627 342.13 102.519 341.696 102.519C341.244 102.519 340.888 102.62 340.628 102.82C340.371 103.017 340.193 103.237 340.094 103.479L338.834 103.192C338.983 102.774 339.202 102.436 339.489 102.178C339.779 101.918 340.112 101.73 340.489 101.613C340.866 101.494 341.262 101.434 341.678 101.434C341.953 101.434 342.245 101.467 342.553 101.532C342.864 101.595 343.154 101.712 343.423 101.882C343.695 102.053 343.918 102.297 344.091 102.614C344.265 102.928 344.352 103.336 344.352 103.838V108.414H343.042V107.472H342.988C342.901 107.645 342.771 107.816 342.598 107.983C342.424 108.151 342.201 108.29 341.929 108.401C341.657 108.511 341.331 108.567 340.951 108.567ZM341.243 107.49C341.614 107.49 341.931 107.417 342.194 107.27C342.46 107.124 342.662 106.932 342.799 106.696C342.94 106.457 343.01 106.201 343.01 105.929V105.041C342.962 105.088 342.87 105.133 342.732 105.175C342.598 105.214 342.444 105.248 342.27 105.278C342.097 105.305 341.928 105.331 341.763 105.355C341.599 105.375 341.461 105.393 341.35 105.408C341.09 105.441 340.853 105.497 340.637 105.574C340.425 105.652 340.254 105.764 340.126 105.911C340 106.054 339.937 106.246 339.937 106.485C339.937 106.817 340.06 107.068 340.305 107.239C340.55 107.406 340.863 107.49 341.243 107.49ZM349.041 108.553C348.374 108.553 347.8 108.402 347.318 108.1C346.84 107.795 346.472 107.375 346.215 106.839C345.957 106.304 345.829 105.691 345.829 105C345.829 104.3 345.96 103.683 346.224 103.147C346.487 102.609 346.858 102.189 347.336 101.887C347.815 101.585 348.378 101.434 349.027 101.434C349.551 101.434 350.017 101.531 350.427 101.725C350.837 101.917 351.167 102.186 351.418 102.533C351.673 102.88 351.824 103.285 351.872 103.749H350.566C350.494 103.426 350.33 103.147 350.073 102.914C349.818 102.681 349.477 102.564 349.05 102.564C348.676 102.564 348.348 102.663 348.067 102.86C347.789 103.055 347.572 103.333 347.417 103.695C347.261 104.054 347.184 104.478 347.184 104.969C347.184 105.471 347.26 105.905 347.412 106.27C347.565 106.635 347.78 106.917 348.058 107.118C348.339 107.318 348.67 107.418 349.05 107.418C349.304 107.418 349.534 107.372 349.741 107.279C349.95 107.183 350.125 107.047 350.265 106.871C350.409 106.694 350.509 106.482 350.566 106.234H351.872C351.824 106.679 351.679 107.077 351.436 107.427C351.194 107.777 350.87 108.052 350.463 108.253C350.059 108.453 349.585 108.553 349.041 108.553ZM354.647 104.323V108.414H353.306V99.2265H354.629V102.645H354.715C354.876 102.274 355.123 101.979 355.455 101.761C355.787 101.543 356.22 101.434 356.756 101.434C357.228 101.434 357.641 101.531 357.994 101.725C358.35 101.92 358.625 102.21 358.819 102.596C359.017 102.978 359.115 103.457 359.115 104.031V108.414H357.774V104.193C357.774 103.687 357.644 103.295 357.384 103.017C357.124 102.736 356.762 102.596 356.298 102.596C355.981 102.596 355.697 102.663 355.446 102.797C355.198 102.932 355.002 103.129 354.858 103.39C354.718 103.647 354.647 103.958 354.647 104.323ZM364.356 108.414V99.2265H370.054V100.42H365.743V103.219H369.645V104.408H365.743V108.414H364.356ZM371.651 108.414V101.523H372.992V108.414H371.651ZM372.328 100.46C372.095 100.46 371.894 100.382 371.727 100.227C371.563 100.068 371.48 99.88 371.48 99.6617C371.48 99.4404 371.563 99.2519 371.727 99.0964C371.894 98.9379 372.095 98.8587 372.328 98.8587C372.561 98.8587 372.76 98.9379 372.925 99.0964C373.092 99.2519 373.176 99.4404 373.176 99.6617C373.176 99.88 373.092 100.068 372.925 100.227C372.76 100.382 372.561 100.46 372.328 100.46ZM377.766 108.553C377.088 108.553 376.503 108.408 376.012 108.118C375.525 107.825 375.148 107.414 374.882 106.884C374.619 106.352 374.487 105.728 374.487 105.014C374.487 104.308 374.619 103.686 374.882 103.147C375.148 102.609 375.519 102.189 375.994 101.887C376.473 101.585 377.032 101.434 377.672 101.434C378.061 101.434 378.438 101.498 378.803 101.627C379.168 101.755 379.495 101.957 379.785 102.232C380.075 102.507 380.304 102.865 380.472 103.304C380.639 103.741 380.723 104.272 380.723 104.897V105.372H375.245V104.368H379.408C379.408 104.015 379.337 103.702 379.193 103.43C379.049 103.155 378.848 102.938 378.587 102.78C378.33 102.621 378.028 102.542 377.681 102.542C377.304 102.542 376.975 102.634 376.694 102.82C376.416 103.002 376.201 103.242 376.048 103.538C375.899 103.831 375.824 104.149 375.824 104.493V105.278C375.824 105.739 375.905 106.131 376.066 106.454C376.231 106.777 376.459 107.023 376.753 107.194C377.046 107.361 377.388 107.445 377.78 107.445C378.034 107.445 378.266 107.409 378.475 107.337C378.685 107.263 378.865 107.152 379.018 107.005C379.171 106.859 379.287 106.678 379.368 106.463L380.638 106.691C380.536 107.065 380.353 107.393 380.09 107.674C379.83 107.952 379.503 108.169 379.108 108.324C378.716 108.477 378.269 108.553 377.766 108.553ZM383.552 99.2265V108.414H382.211V99.2265H383.552ZM387.936 108.549C387.38 108.549 386.884 108.407 386.447 108.122C386.013 107.835 385.672 107.427 385.424 106.898C385.179 106.365 385.056 105.727 385.056 104.982C385.056 104.238 385.18 103.6 385.429 103.071C385.68 102.542 386.024 102.137 386.46 101.855C386.897 101.574 387.392 101.434 387.945 101.434C388.373 101.434 388.717 101.505 388.977 101.649C389.24 101.79 389.444 101.954 389.587 102.142C389.734 102.331 389.847 102.497 389.928 102.64H390.009V99.2265H391.35V108.414H390.04V107.342H389.928C389.847 107.488 389.731 107.656 389.578 107.844C389.429 108.033 389.222 108.197 388.959 108.338C388.696 108.478 388.355 108.549 387.936 108.549ZM388.232 107.405C388.618 107.405 388.944 107.303 389.21 107.1C389.48 106.893 389.683 106.608 389.821 106.243C389.961 105.878 390.031 105.453 390.031 104.969C390.031 104.49 389.963 104.072 389.825 103.713C389.687 103.354 389.486 103.074 389.219 102.874C388.953 102.673 388.624 102.573 388.232 102.573C387.829 102.573 387.492 102.678 387.223 102.887C386.954 103.097 386.751 103.382 386.613 103.744C386.478 104.106 386.411 104.514 386.411 104.969C386.411 105.429 386.48 105.844 386.617 106.211C386.755 106.579 386.958 106.871 387.228 107.086C387.5 107.299 387.835 107.405 388.232 107.405Z" fill="#333333"/>
<path d="M236.865 128.989H238.012L240.305 132.849H240.402L242.695 128.989H243.842L240.854 133.85V137.258H239.853V133.85L236.865 128.989ZM246.731 137.387C246.133 137.387 245.618 137.255 245.184 136.991C244.754 136.725 244.421 136.353 244.187 135.877C243.955 135.398 243.84 134.841 243.84 134.205C243.84 133.57 243.955 133.01 244.187 132.526C244.421 132.039 244.747 131.659 245.164 131.387C245.584 131.113 246.074 130.975 246.634 130.975C246.957 130.975 247.276 131.029 247.591 131.137C247.905 131.245 248.192 131.42 248.45 131.662C248.709 131.901 248.915 132.219 249.068 132.615C249.222 133.01 249.298 133.498 249.298 134.076V134.48H244.518V133.656H248.329C248.329 133.306 248.259 132.994 248.119 132.72C247.982 132.445 247.786 132.228 247.53 132.07C247.277 131.911 246.978 131.831 246.634 131.831C246.254 131.831 245.926 131.926 245.648 132.114C245.374 132.3 245.163 132.542 245.015 132.841C244.867 133.14 244.793 133.46 244.793 133.802V134.351C244.793 134.819 244.873 135.216 245.035 135.542C245.199 135.865 245.426 136.111 245.717 136.281C246.008 136.448 246.346 136.531 246.731 136.531C246.981 136.531 247.207 136.496 247.409 136.426C247.613 136.353 247.79 136.246 247.938 136.103C248.086 135.958 248.2 135.777 248.281 135.562L249.201 135.82C249.105 136.133 248.942 136.407 248.713 136.644C248.484 136.878 248.202 137.061 247.865 137.193C247.529 137.322 247.15 137.387 246.731 137.387ZM255.141 132.445L254.285 132.687C254.231 132.545 254.151 132.406 254.046 132.272C253.944 132.134 253.804 132.021 253.627 131.932C253.449 131.844 253.221 131.799 252.944 131.799C252.565 131.799 252.248 131.887 251.995 132.062C251.745 132.234 251.62 132.453 251.62 132.72C251.62 132.957 251.706 133.144 251.878 133.281C252.051 133.418 252.32 133.533 252.686 133.624L253.606 133.85C254.161 133.985 254.574 134.191 254.846 134.468C255.118 134.742 255.254 135.096 255.254 135.53C255.254 135.885 255.151 136.203 254.947 136.483C254.745 136.763 254.462 136.983 254.099 137.145C253.736 137.306 253.313 137.387 252.831 137.387C252.199 137.387 251.675 137.25 251.261 136.975C250.846 136.701 250.584 136.3 250.473 135.772L251.378 135.546C251.464 135.88 251.627 136.13 251.866 136.297C252.108 136.464 252.425 136.547 252.815 136.547C253.259 136.547 253.612 136.453 253.873 136.265C254.137 136.073 254.269 135.845 254.269 135.578C254.269 135.363 254.193 135.183 254.042 135.037C253.892 134.889 253.66 134.779 253.348 134.706L252.314 134.464C251.746 134.329 251.329 134.121 251.063 133.838C250.799 133.553 250.667 133.196 250.667 132.768C250.667 132.418 250.765 132.109 250.962 131.839C251.161 131.57 251.432 131.359 251.773 131.206C252.118 131.052 252.508 130.975 252.944 130.975C253.558 130.975 254.04 131.11 254.39 131.379C254.742 131.648 254.993 132.004 255.141 132.445Z" fill="#211447"/>
<path d="M252.867 158.535V167.438H251.789V159.665H251.737L249.563 161.108V160.013L251.789 158.535H252.867Z" fill="#453F56"/>
<rect x="236.957" y="147.699" width="209.029" height="29.8379" rx="5.73806" stroke="#D9D8D9" stroke-width="0.765074"/>
<path d="M244.132 191.841V200.109H243.163L238.658 193.617H238.577V200.109H237.576V191.841H238.545L243.067 198.349H243.147V191.841H244.132ZM248.526 200.239C247.966 200.239 247.475 200.105 247.053 199.839C246.633 199.572 246.304 199.2 246.067 198.72C245.833 198.241 245.716 197.681 245.716 197.041C245.716 196.395 245.833 195.831 246.067 195.349C246.304 194.867 246.633 194.493 247.053 194.227C247.475 193.96 247.966 193.827 248.526 193.827C249.086 193.827 249.576 193.96 249.996 194.227C250.418 194.493 250.747 194.867 250.981 195.349C251.218 195.831 251.336 196.395 251.336 197.041C251.336 197.681 251.218 198.241 250.981 198.72C250.747 199.2 250.418 199.572 249.996 199.839C249.576 200.105 249.086 200.239 248.526 200.239ZM248.526 199.383C248.951 199.383 249.301 199.274 249.576 199.056C249.85 198.838 250.054 198.551 250.186 198.196C250.318 197.84 250.383 197.455 250.383 197.041C250.383 196.626 250.318 196.24 250.186 195.882C250.054 195.524 249.85 195.235 249.576 195.014C249.301 194.793 248.951 194.683 248.526 194.683C248.101 194.683 247.751 194.793 247.476 195.014C247.202 195.235 246.999 195.524 246.867 195.882C246.735 196.24 246.669 196.626 246.669 197.041C246.669 197.455 246.735 197.84 246.867 198.196C246.999 198.551 247.202 198.838 247.476 199.056C247.751 199.274 248.101 199.383 248.526 199.383Z" fill="#211447"/>
<path d="M252.641 230.407C251.986 230.407 251.428 230.229 250.967 229.872C250.506 229.513 250.154 228.993 249.911 228.312C249.667 227.628 249.546 226.802 249.546 225.834C249.546 224.872 249.667 224.05 249.911 223.369C250.157 222.685 250.511 222.163 250.972 221.804C251.435 221.442 251.992 221.261 252.641 221.261C253.29 221.261 253.845 221.442 254.306 221.804C254.769 222.163 255.123 222.685 255.366 223.369C255.613 224.05 255.736 224.872 255.736 225.834C255.736 226.802 255.614 227.628 255.371 228.312C255.127 228.993 254.775 229.513 254.314 229.872C253.854 230.229 253.296 230.407 252.641 230.407ZM252.641 229.451C253.29 229.451 253.794 229.138 254.154 228.512C254.513 227.886 254.693 226.993 254.693 225.834C254.693 225.063 254.61 224.407 254.445 223.865C254.283 223.323 254.048 222.91 253.741 222.626C253.436 222.342 253.07 222.2 252.641 222.2C251.997 222.2 251.495 222.517 251.132 223.152C250.77 223.783 250.589 224.678 250.589 225.834C250.589 226.605 250.67 227.26 250.832 227.799C250.995 228.338 251.228 228.748 251.532 229.029C251.84 229.31 252.209 229.451 252.641 229.451Z" fill="#453F56"/>
<rect x="236.957" y="210.551" width="209.029" height="29.8379" rx="5.73806" stroke="#D9D8D9" stroke-width="0.765074"/>
</g>
<defs>
<filter id="filter0_dd_5199_18966" x="16.4039" y="27.7684" width="392.192" height="163.938" filterUnits="userSpaceOnUse" color-interpolation-filters="sRGB">
<feFlood flood-opacity="0" result="BackgroundImageFix"/>
<feColorMatrix in="SourceAlpha" type="matrix" values="0 0 0 0 0 0 0 0 0 0 0 0 0 0 0 0 0 0 127 0" result="hardAlpha"/>
<feOffset dy="4.29803"/>
<feGaussianBlur stdDeviation="4.29803"/>
<feComposite in2="hardAlpha" operator="out"/>
<feColorMatrix type="matrix" values="0 0 0 0 0 0 0 0 0 0 0 0 0 0 0 0 0 0 0.05 0"/>
<feBlend mode="normal" in2="BackgroundImageFix" result="effect1_dropShadow_5199_18966"/>
<feColorMatrix in="SourceAlpha" type="matrix" values="0 0 0 0 0 0 0 0 0 0 0 0 0 0 0 0 0 0 127 0" result="hardAlpha"/>
<feOffset dy="2.14901"/>
<feGaussianBlur stdDeviation="2.14901"/>
<feComposite in2="hardAlpha" operator="out"/>
<feColorMatrix type="matrix" values="0 0 0 0 0 0 0 0 0 0 0 0 0 0 0 0 0 0 0.07 0"/>
<feBlend mode="normal" in2="effect1_dropShadow_5199_18966" result="effect2_dropShadow_5199_18966"/>
<feBlend mode="normal" in="SourceGraphic" in2="effect2_dropShadow_5199_18966" result="shape"/>
</filter>
<filter id="filter1_d_5199_18966" x="208.686" y="71.5273" width="265.571" height="201.133" filterUnits="userSpaceOnUse" color-interpolation-filters="sRGB">
<feFlood flood-opacity="0" result="BackgroundImageFix"/>
<feColorMatrix in="SourceAlpha" type="matrix" values="0 0 0 0 0 0 0 0 0 0 0 0 0 0 0 0 0 0 127 0" result="hardAlpha"/>
<feOffset dy="4"/>
<feGaussianBlur stdDeviation="4"/>
<feComposite in2="hardAlpha" operator="out"/>
<feColorMatrix type="matrix" values="0 0 0 0 0 0 0 0 0 0 0 0 0 0 0 0 0 0 0.1 0"/>
<feBlend mode="normal" in2="BackgroundImageFix" result="effect1_dropShadow_5199_18966"/>
<feBlend mode="normal" in="SourceGraphic" in2="effect1_dropShadow_5199_18966" result="shape"/>
</filter>
</defs>
</svg>
