<svg width="484" height="280" viewBox="0 0 484 280" fill="none" xmlns="http://www.w3.org/2000/svg">
<path fill-rule="evenodd" clip-rule="evenodd" d="M364.03 107.64C371.999 144.473 345.528 176.21 324.79 207.676C305.925 236.301 287.955 271.858 253.807 274.888C220.565 277.838 201.663 241.552 175.425 220.929C142.62 195.145 89.875 184.291 85.718 142.773C81.2086 97.7367 118.962 59.8749 156.815 35.0612C194.299 10.4898 240.498 -1.23357 282.797 13.5822C323.932 27.9901 354.814 65.0407 364.03 107.64Z" fill="#FCF7FF"/>
<g filter="url(#filter0_d_5199_19022)">
<rect x="15.1318" y="43.9297" width="258.912" height="166.178" rx="8.65114" fill="white"/>
<path d="M41.6844 66.6911V75.4492H40.4699L36.0182 69.026H35.9369V75.4492H34.6155V66.6911H35.8386L40.2946 73.1228H40.3759V66.6911H41.6844ZM46.2763 75.5818C45.6605 75.5818 45.1231 75.4407 44.664 75.1584C44.205 74.8762 43.8487 74.4813 43.5949 73.9739C43.3412 73.4664 43.2143 72.8734 43.2143 72.1949C43.2143 71.5135 43.3412 70.9176 43.5949 70.4073C43.8487 69.897 44.205 69.5007 44.664 69.2185C45.1231 68.9362 45.6605 68.7951 46.2763 68.7951C46.8921 68.7951 47.4295 68.9362 47.8885 69.2185C48.3475 69.5007 48.7038 69.897 48.9576 70.4073C49.2113 70.9176 49.3382 71.5135 49.3382 72.1949C49.3382 72.8734 49.2113 73.4664 48.9576 73.9739C48.7038 74.4813 48.3475 74.8762 47.8885 75.1584C47.4295 75.4407 46.8921 75.5818 46.2763 75.5818ZM46.2805 74.5084C46.6797 74.5084 47.0104 74.4029 47.2727 74.1919C47.535 73.981 47.7288 73.7002 47.8543 73.3495C47.9826 72.9988 48.0467 72.6125 48.0467 72.1906C48.0467 71.7715 47.9826 71.3866 47.8543 71.0359C47.7288 70.6824 47.535 70.3988 47.2727 70.1849C47.0104 69.9711 46.6797 69.8642 46.2805 69.8642C45.8786 69.8642 45.545 69.9711 45.2799 70.1849C45.0176 70.3988 44.8223 70.6824 44.694 71.0359C44.5685 71.3866 44.5058 71.7715 44.5058 72.1906C44.5058 72.6125 44.5685 72.9988 44.694 73.3495C44.8223 73.7002 45.0176 73.981 45.2799 74.1919C45.545 74.4029 45.8786 74.5084 46.2805 74.5084ZM51.6079 75.5305C51.3741 75.5305 51.1731 75.4478 51.0049 75.2824C50.8367 75.1142 50.7526 74.9118 50.7526 74.6752C50.7526 74.4414 50.8367 74.2418 51.0049 74.0765C51.1731 73.9083 51.3741 73.8242 51.6079 73.8242C51.8417 73.8242 52.0427 73.9083 52.2109 74.0765C52.3791 74.2418 52.4632 74.4414 52.4632 74.6752C52.4632 74.832 52.4233 74.976 52.3434 75.1071C52.2665 75.2354 52.1638 75.338 52.0355 75.415C51.9072 75.492 51.7647 75.5305 51.6079 75.5305ZM59.9886 75.5818C59.3728 75.5818 58.8354 75.4407 58.3764 75.1584C57.9174 74.8762 57.561 74.4813 57.3073 73.9739C57.0536 73.4664 56.9267 72.8734 56.9267 72.1949C56.9267 71.5135 57.0536 70.9176 57.3073 70.4073C57.561 69.897 57.9174 69.5007 58.3764 69.2185C58.8354 68.9362 59.3728 68.7951 59.9886 68.7951C60.6044 68.7951 61.1418 68.9362 61.6008 69.2185C62.0598 69.5007 62.4162 69.897 62.6699 70.4073C62.9237 70.9176 63.0505 71.5135 63.0505 72.1949C63.0505 72.8734 62.9237 73.4664 62.6699 73.9739C62.4162 74.4813 62.0598 74.8762 61.6008 75.1584C61.1418 75.4407 60.6044 75.5818 59.9886 75.5818ZM59.9929 74.5084C60.392 74.5084 60.7227 74.4029 60.985 74.1919C61.2473 73.981 61.4412 73.7002 61.5666 73.3495C61.6949 72.9988 61.7591 72.6125 61.7591 72.1906C61.7591 71.7715 61.6949 71.3866 61.5666 71.0359C61.4412 70.6824 61.2473 70.3988 60.985 70.1849C60.7227 69.9711 60.392 69.8642 59.9929 69.8642C59.5909 69.8642 59.2574 69.9711 58.9922 70.1849C58.7299 70.3988 58.5346 70.6824 58.4063 71.0359C58.2809 71.3866 58.2182 71.7715 58.2182 72.1906C58.2182 72.6125 58.2809 72.9988 58.4063 73.3495C58.5346 73.7002 58.7299 73.981 58.9922 74.1919C59.2574 74.4029 59.5909 74.5084 59.9929 74.5084ZM67.6039 68.8806V69.907H63.8919V68.8806H67.6039ZM64.9097 75.4492V68.1194C64.9097 67.7089 64.9995 67.3682 65.1791 67.0974C65.3587 66.8237 65.5968 66.6198 65.8933 66.4858C66.1898 66.349 66.512 66.2806 66.8598 66.2806C67.1164 66.2806 67.3359 66.3019 67.5183 66.3447C67.7008 66.3846 67.8362 66.4217 67.9246 66.4559L67.6253 67.4908C67.5654 67.4737 67.4884 67.4537 67.3943 67.4309C67.3002 67.4053 67.1862 67.3924 67.0522 67.3924C66.7415 67.3924 66.5191 67.4694 66.3851 67.6234C66.2539 67.7773 66.1884 67.9997 66.1884 68.2905V75.4492H64.9097ZM71.7809 67.8286V66.6911H78.559V67.8286H75.8264V75.4492H74.5092V67.8286H71.7809ZM79.2721 75.4492V68.8806H80.508V69.9241H80.5764C80.6962 69.5706 80.9071 69.2926 81.2093 69.0902C81.5144 68.8849 81.8593 68.7823 82.2442 68.7823C82.324 68.7823 82.4181 68.7851 82.5265 68.7908C82.6377 68.7965 82.7246 68.8037 82.7873 68.8122V70.0353C82.736 70.021 82.6448 70.0053 82.5136 69.9882C82.3825 69.9683 82.2513 69.9583 82.1202 69.9583C81.818 69.9583 81.5486 70.0224 81.312 70.1507C81.0782 70.2762 80.8929 70.4515 80.756 70.6767C80.6192 70.8991 80.5508 71.1528 80.5508 71.4379V75.4492H79.2721ZM85.7466 75.5946C85.3304 75.5946 84.954 75.5176 84.6176 75.3637C84.2812 75.2069 84.0147 74.9802 83.8179 74.6837C83.6241 74.3872 83.5271 74.0237 83.5271 73.5932C83.5271 73.2226 83.5984 72.9176 83.741 72.6781C83.8835 72.4386 84.076 72.249 84.3183 72.1093C84.5606 71.9696 84.8315 71.8641 85.1308 71.7929C85.4302 71.7216 85.7352 71.6674 86.046 71.6304C86.4394 71.5848 86.7587 71.5477 87.0039 71.5192C87.2491 71.4878 87.4272 71.4379 87.5384 71.3695C87.6496 71.3011 87.7052 71.1899 87.7052 71.0359V71.006C87.7052 70.6325 87.5997 70.3432 87.3888 70.1379C87.1806 69.9326 86.8699 69.83 86.4565 69.83C86.026 69.83 85.6867 69.9255 85.4387 70.1165C85.1935 70.3047 85.0239 70.5142 84.9298 70.7451L83.7281 70.4715C83.8707 70.0723 84.0788 69.7502 84.3525 69.505C84.629 69.257 84.9469 69.0773 85.3061 68.9662C85.6654 68.8521 86.0431 68.7951 86.4394 68.7951C86.7017 68.7951 86.9796 68.8265 87.2733 68.8892C87.5698 68.9491 87.8463 69.0602 88.1029 69.2227C88.3624 69.3852 88.5748 69.6176 88.7401 69.9198C88.9055 70.2191 88.9881 70.6083 88.9881 71.0873V75.4492H87.7394V74.5512H87.6881C87.6054 74.7165 87.4814 74.879 87.3161 75.0387C87.1507 75.1983 86.9383 75.3309 86.6789 75.4364C86.4194 75.5419 86.1087 75.5946 85.7466 75.5946ZM86.0246 74.5683C86.3781 74.5683 86.6803 74.4984 86.9312 74.3587C87.1849 74.219 87.3774 74.0366 87.5085 73.8113C87.6425 73.5833 87.7095 73.3395 87.7095 73.0801V72.2333C87.6639 72.279 87.5755 72.3217 87.4444 72.3616C87.3161 72.3987 87.1692 72.4315 87.0039 72.46C86.8385 72.4857 86.6774 72.5099 86.5206 72.5327C86.3638 72.5527 86.2327 72.5698 86.1272 72.584C85.8792 72.6154 85.6525 72.6681 85.4473 72.7422C85.2448 72.8164 85.0823 72.9233 84.9597 73.063C84.84 73.1998 84.7801 73.3823 84.7801 73.6104C84.7801 73.9268 84.897 74.1663 85.1308 74.3288C85.3646 74.4884 85.6625 74.5683 86.0246 74.5683ZM96.0752 68.8806L93.6933 75.4492H92.3248L89.9386 68.8806H91.3113L92.9748 73.9354H93.0433L94.7025 68.8806H96.0752ZM99.8845 75.5818C99.2373 75.5818 98.6799 75.4435 98.2124 75.167C97.7477 74.8876 97.3885 74.4956 97.1347 73.991C96.8839 73.4835 96.7584 72.8891 96.7584 72.2077C96.7584 71.5349 96.8839 70.9419 97.1347 70.4287C97.3885 69.9155 97.742 69.515 98.1953 69.227C98.6514 68.9391 99.1846 68.7951 99.7947 68.7951C100.165 68.7951 100.525 68.8564 100.872 68.979C101.22 69.1016 101.532 69.294 101.809 69.5563C102.085 69.8186 102.304 70.1593 102.463 70.5784C102.623 70.9946 102.703 71.5007 102.703 72.0965V72.5498H97.4811V71.5919H101.45C101.45 71.2555 101.381 70.9575 101.244 70.6981C101.108 70.4358 100.915 70.2291 100.667 70.078C100.422 69.9269 100.134 69.8514 99.8032 69.8514C99.444 69.8514 99.1304 69.9398 98.8624 70.1165C98.5973 70.2904 98.392 70.5185 98.2466 70.8007C98.1041 71.0801 98.0328 71.3838 98.0328 71.7116V72.46C98.0328 72.899 98.1098 73.2725 98.2637 73.5804C98.4205 73.8883 98.6386 74.1235 98.918 74.286C99.1974 74.4457 99.5238 74.5255 99.8973 74.5255C100.14 74.5255 100.361 74.4913 100.56 74.4229C100.76 74.3516 100.932 74.2461 101.078 74.1064C101.223 73.9667 101.334 73.7942 101.411 73.589L102.621 73.8071C102.524 74.1634 102.351 74.4756 102.1 74.7436C101.852 75.0087 101.539 75.2154 101.163 75.3637C100.79 75.5091 100.363 75.5818 99.8845 75.5818ZM105.4 66.6911V75.4492H104.121V66.6911H105.4ZM108.399 66.6911V75.4492H107.12V66.6911H108.399ZM112.95 75.5818C112.303 75.5818 111.746 75.4435 111.278 75.167C110.813 74.8876 110.454 74.4956 110.2 73.991C109.949 73.4835 109.824 72.8891 109.824 72.2077C109.824 71.5349 109.949 70.9419 110.2 70.4287C110.454 69.9155 110.808 69.515 111.261 69.227C111.717 68.9391 112.25 68.7951 112.86 68.7951C113.231 68.7951 113.59 68.8564 113.938 68.979C114.286 69.1016 114.598 69.294 114.874 69.5563C115.151 69.8186 115.369 70.1593 115.529 70.5784C115.688 70.9946 115.768 71.5007 115.768 72.0965V72.5498H110.547V71.5919H114.515C114.515 71.2555 114.447 70.9575 114.31 70.6981C114.173 70.4358 113.981 70.2291 113.733 70.078C113.487 69.9269 113.199 69.8514 112.869 69.8514C112.51 69.8514 112.196 69.9398 111.928 70.1165C111.663 70.2904 111.458 70.5185 111.312 70.8007C111.17 71.0801 111.098 71.3838 111.098 71.7116V72.46C111.098 72.899 111.175 73.2725 111.329 73.5804C111.486 73.8883 111.704 74.1235 111.984 74.286C112.263 74.4457 112.589 74.5255 112.963 74.5255C113.205 74.5255 113.426 74.4913 113.626 74.4229C113.825 74.3516 113.998 74.2461 114.143 74.1064C114.289 73.9667 114.4 73.7942 114.477 73.589L115.687 73.8071C115.59 74.1634 115.416 74.4756 115.165 74.7436C114.917 75.0087 114.605 75.2154 114.229 75.3637C113.855 75.5091 113.429 75.5818 112.95 75.5818ZM117.187 75.4492V68.8806H118.423V69.9241H118.491C118.611 69.5706 118.822 69.2926 119.124 69.0902C119.429 68.8849 119.774 68.7823 120.159 68.7823C120.239 68.7823 120.333 68.7851 120.441 68.7908C120.552 68.7965 120.639 68.8037 120.702 68.8122V70.0353C120.651 70.021 120.56 70.0053 120.428 69.9882C120.297 69.9683 120.166 69.9583 120.035 69.9583C119.733 69.9583 119.463 70.0224 119.227 70.1507C118.993 70.2762 118.808 70.4515 118.671 70.6767C118.534 70.8991 118.466 71.1528 118.466 71.4379V75.4492H117.187ZM126.731 70.4843L125.572 70.6896C125.523 70.5413 125.446 70.4002 125.341 70.2662C125.238 70.1322 125.099 70.0224 124.922 69.9369C124.745 69.8514 124.524 69.8086 124.259 69.8086C123.897 69.8086 123.595 69.8899 123.352 70.0524C123.11 70.212 122.989 70.4187 122.989 70.6725C122.989 70.892 123.07 71.0687 123.233 71.2027C123.395 71.3367 123.657 71.4465 124.02 71.532L125.063 71.7715C125.667 71.9112 126.118 72.1264 126.414 72.4172C126.711 72.708 126.859 73.0858 126.859 73.5505C126.859 73.9439 126.745 74.2946 126.517 74.6025C126.292 74.9075 125.977 75.147 125.572 75.3209C125.17 75.4948 124.704 75.5818 124.174 75.5818C123.438 75.5818 122.838 75.425 122.373 75.1114C121.908 74.7949 121.623 74.3459 121.518 73.7643L122.754 73.5761C122.831 73.8983 122.989 74.1421 123.228 74.3074C123.468 74.4699 123.78 74.5512 124.165 74.5512C124.584 74.5512 124.919 74.4642 125.17 74.2903C125.421 74.1135 125.546 73.8983 125.546 73.6446C125.546 73.4393 125.469 73.2668 125.315 73.1271C125.164 72.9874 124.932 72.8819 124.618 72.8107L123.506 72.5669C122.893 72.4272 122.44 72.2048 122.146 71.8998C121.856 71.5947 121.71 71.2084 121.71 70.7409C121.71 70.3531 121.819 70.0139 122.035 69.7231C122.252 69.4323 122.551 69.2056 122.933 69.0431C123.315 68.8778 123.753 68.7951 124.246 68.7951C124.956 68.7951 125.515 68.9491 125.923 69.257C126.33 69.562 126.6 69.9711 126.731 70.4843Z" fill="#333333"/>
<path d="M46.1392 108.852V108.159L48.741 105.311C49.0463 104.977 49.2978 104.687 49.4953 104.441C49.6929 104.192 49.8391 103.958 49.9341 103.74C50.0316 103.52 50.0803 103.289 50.0803 103.048C50.0803 102.77 50.0136 102.531 49.8802 102.328C49.7493 102.125 49.5697 101.969 49.3414 101.858C49.113 101.748 48.8564 101.693 48.5716 101.693C48.2688 101.693 48.0046 101.756 47.7788 101.881C47.5555 102.005 47.3823 102.178 47.2592 102.401C47.1386 102.624 47.0783 102.886 47.0783 103.186H46.17C46.17 102.724 46.2765 102.319 46.4894 101.97C46.7024 101.621 46.9923 101.349 47.3592 101.154C47.7287 100.959 48.1431 100.861 48.6024 100.861C49.0643 100.861 49.4735 100.959 49.8302 101.154C50.1868 101.349 50.4665 101.612 50.6692 101.943C50.8719 102.274 50.9733 102.642 50.9733 103.048C50.9733 103.338 50.9207 103.621 50.8155 103.898C50.7128 104.173 50.5332 104.479 50.2766 104.818C50.0226 105.154 49.6698 105.565 49.2182 106.05L47.4478 107.943V108.005H51.1118V108.852H46.1392Z" fill="#404040"/>
<rect x="34.018" y="88.2436" width="221.14" height="34.1937" rx="4.45231" stroke="#D9D8D9" stroke-width="0.729316"/>
<path d="M41.8897 138.324H40.5555C40.5042 138.039 40.4086 137.788 40.269 137.572C40.1293 137.355 39.9582 137.171 39.7558 137.02C39.5534 136.869 39.3267 136.755 39.0758 136.678C38.8278 136.601 38.5641 136.562 38.2847 136.562C37.7801 136.562 37.3282 136.689 36.9291 136.943C36.5328 137.197 36.2192 137.569 35.9882 138.059C35.7602 138.55 35.6461 139.148 35.6461 139.855C35.6461 140.568 35.7602 141.17 35.9882 141.66C36.2192 142.15 36.5342 142.521 36.9333 142.772C37.3325 143.023 37.7815 143.148 38.2804 143.148C38.557 143.148 38.8192 143.111 39.0673 143.037C39.3182 142.96 39.5448 142.847 39.7472 142.699C39.9496 142.551 40.1207 142.37 40.2604 142.156C40.4029 141.939 40.5013 141.691 40.5555 141.412L41.8897 141.416C41.8184 141.847 41.6802 142.243 41.4749 142.605C41.2725 142.964 41.0116 143.275 40.6923 143.537C40.3759 143.797 40.0138 143.998 39.6061 144.14C39.1984 144.283 38.7537 144.354 38.2719 144.354C37.5135 144.354 36.8378 144.175 36.2448 143.815C35.6518 143.453 35.1843 142.936 34.8422 142.263C34.5029 141.59 34.3333 140.788 34.3333 139.855C34.3333 138.92 34.5043 138.118 34.8464 137.448C35.1886 136.775 35.6561 136.259 36.2491 135.9C36.8421 135.538 37.5164 135.357 38.2719 135.357C38.7366 135.357 39.1699 135.424 39.5719 135.558C39.9767 135.689 40.3402 135.883 40.6624 136.139C40.9845 136.393 41.2511 136.704 41.4621 137.071C41.673 137.436 41.8156 137.854 41.8897 138.324ZM46.1351 144.367C45.5193 144.367 44.9819 144.226 44.5229 143.944C44.0639 143.661 43.7076 143.266 43.4538 142.759C43.2001 142.252 43.0732 141.659 43.0732 140.98C43.0732 140.299 43.2001 139.703 43.4538 139.192C43.7076 138.682 44.0639 138.286 44.5229 138.004C44.9819 137.721 45.5193 137.58 46.1351 137.58C46.7509 137.58 47.2884 137.721 47.7474 138.004C48.2064 138.286 48.5627 138.682 48.8165 139.192C49.0702 139.703 49.1971 140.299 49.1971 140.98C49.1971 141.659 49.0702 142.252 48.8165 142.759C48.5627 143.266 48.2064 143.661 47.7474 143.944C47.2884 144.226 46.7509 144.367 46.1351 144.367ZM46.1394 143.294C46.5386 143.294 46.8693 143.188 47.1315 142.977C47.3938 142.766 47.5877 142.485 47.7131 142.135C47.8414 141.784 47.9056 141.398 47.9056 140.976C47.9056 140.557 47.8414 140.172 47.7131 139.821C47.5877 139.468 47.3938 139.184 47.1315 138.97C46.8693 138.756 46.5386 138.649 46.1394 138.649C45.7374 138.649 45.4039 138.756 45.1387 138.97C44.8764 139.184 44.6812 139.468 44.5529 139.821C44.4274 140.172 44.3647 140.557 44.3647 140.976C44.3647 141.398 44.4274 141.784 44.5529 142.135C44.6812 142.485 44.8764 142.766 45.1387 142.977C45.4039 143.188 45.7374 143.294 46.1394 143.294ZM55.5465 139.269L54.3876 139.475C54.3391 139.326 54.2621 139.185 54.1566 139.051C54.054 138.917 53.9143 138.808 53.7376 138.722C53.5608 138.637 53.3398 138.594 53.0747 138.594C52.7126 138.594 52.4104 138.675 52.1681 138.838C51.9258 138.997 51.8046 139.204 51.8046 139.458C51.8046 139.677 51.8859 139.854 52.0484 139.988C52.2109 140.122 52.4732 140.232 52.8352 140.317L53.8787 140.557C54.4831 140.696 54.9335 140.912 55.23 141.202C55.5265 141.493 55.6748 141.871 55.6748 142.336C55.6748 142.729 55.5607 143.08 55.3327 143.388C55.1074 143.693 54.7924 143.932 54.3876 144.106C53.9856 144.28 53.5195 144.367 52.9892 144.367C52.2536 144.367 51.6535 144.21 51.1888 143.897C50.7241 143.58 50.439 143.131 50.3335 142.549L51.5694 142.361C51.6464 142.683 51.8046 142.927 52.0441 143.093C52.2836 143.255 52.5958 143.336 52.9806 143.336C53.3997 143.336 53.7347 143.249 53.9856 143.075C54.2365 142.899 54.3619 142.683 54.3619 142.43C54.3619 142.224 54.2849 142.052 54.131 141.912C53.9799 141.773 53.7475 141.667 53.4339 141.596L52.3221 141.352C51.7091 141.212 51.2558 140.99 50.9622 140.685C50.6714 140.38 50.526 139.994 50.526 139.526C50.526 139.138 50.6343 138.799 50.851 138.508C51.0676 138.217 51.367 137.991 51.749 137.828C52.131 137.663 52.5687 137.58 53.0619 137.58C53.7718 137.58 54.3306 137.734 54.7382 138.042C55.1459 138.347 55.4153 138.756 55.5465 139.269ZM60.1469 137.666V138.692H56.5589V137.666H60.1469ZM57.5211 136.092H58.7998V142.306C58.7998 142.554 58.8368 142.74 58.911 142.866C58.9851 142.989 59.0806 143.073 59.1975 143.118C59.3172 143.161 59.4469 143.182 59.5866 143.182C59.6893 143.182 59.7791 143.175 59.8561 143.161C59.933 143.147 59.9929 143.135 60.0357 143.127L60.2666 144.183C60.1925 144.212 60.087 144.24 59.9501 144.269C59.8133 144.3 59.6422 144.317 59.437 144.32C59.1006 144.326 58.7869 144.266 58.4962 144.14C58.2054 144.015 57.9702 143.821 57.7905 143.559C57.6109 143.296 57.5211 142.967 57.5211 142.571V136.092ZM64.7483 146.698V137.666H65.997V138.731H66.1039C66.178 138.594 66.2849 138.436 66.4246 138.256C66.5643 138.076 66.7582 137.92 67.0062 137.786C67.2543 137.649 67.5821 137.58 67.9898 137.58C68.5201 137.58 68.9934 137.714 69.4096 137.982C69.8258 138.25 70.1523 138.637 70.3889 139.141C70.6284 139.646 70.7481 140.253 70.7481 140.963C70.7481 141.673 70.6298 142.281 70.3932 142.789C70.1565 143.294 69.8315 143.683 69.4181 143.956C69.0048 144.227 68.5329 144.363 68.0026 144.363C67.6035 144.363 67.2771 144.296 67.0233 144.162C66.7725 144.028 66.5757 143.871 66.4332 143.691C66.2907 143.512 66.1809 143.352 66.1039 143.212H66.0269V146.698H64.7483ZM66.0013 140.95C66.0013 141.412 66.0683 141.817 66.2023 142.165C66.3363 142.512 66.5301 142.785 66.7839 142.981C67.0376 143.175 67.3484 143.272 67.7161 143.272C68.0982 143.272 68.4175 143.171 68.674 142.969C68.9306 142.763 69.1245 142.485 69.2556 142.135C69.3896 141.784 69.4566 141.389 69.4566 140.95C69.4566 140.517 69.3911 140.128 69.2599 139.783C69.1316 139.438 68.9378 139.165 68.6783 138.966C68.4217 138.766 68.101 138.666 67.7161 138.666C67.3455 138.666 67.0319 138.762 66.7753 138.953C66.5216 139.144 66.3291 139.411 66.198 139.753C66.0669 140.095 66.0013 140.494 66.0013 140.95ZM75.0117 144.367C74.3645 144.367 73.8072 144.229 73.3396 143.952C72.8749 143.673 72.5157 143.281 72.262 142.776C72.0111 142.269 71.8856 141.674 71.8856 140.993C71.8856 140.32 72.0111 139.727 72.262 139.214C72.5157 138.701 72.8692 138.3 73.3225 138.012C73.7787 137.724 74.3118 137.58 74.9219 137.58C75.2925 137.58 75.6518 137.642 75.9996 137.764C76.3474 137.887 76.6596 138.079 76.9361 138.341C77.2126 138.604 77.4307 138.944 77.5904 139.364C77.7501 139.78 77.8299 140.286 77.8299 140.882V141.335H72.6084V140.377H76.5769C76.5769 140.041 76.5085 139.743 76.3716 139.483C76.2348 139.221 76.0423 139.014 75.7943 138.863C75.5491 138.712 75.2612 138.637 74.9305 138.637C74.5712 138.637 74.2576 138.725 73.9896 138.902C73.7245 139.076 73.5192 139.304 73.3738 139.586C73.2313 139.865 73.16 140.169 73.16 140.497V141.245C73.16 141.684 73.237 142.058 73.3909 142.366C73.5477 142.673 73.7658 142.909 74.0452 143.071C74.3246 143.231 74.6511 143.311 75.0245 143.311C75.2669 143.311 75.4878 143.276 75.6874 143.208C75.887 143.137 76.0594 143.031 76.2048 142.892C76.3502 142.752 76.4614 142.579 76.5384 142.374L77.7486 142.592C77.6517 142.949 77.4778 143.261 77.2269 143.529C76.9789 143.794 76.6667 144.001 76.2904 144.149C75.9169 144.294 75.4907 144.367 75.0117 144.367ZM79.2486 144.234V137.666H80.4845V138.709H80.5529C80.6726 138.356 80.8836 138.078 81.1858 137.875C81.4909 137.67 81.8358 137.567 82.2207 137.567C82.3005 137.567 82.3946 137.57 82.5029 137.576C82.6141 137.582 82.7011 137.589 82.7638 137.597V138.82C82.7125 138.806 82.6213 138.79 82.4901 138.773C82.359 138.753 82.2278 138.743 82.0967 138.743C81.7945 138.743 81.5251 138.808 81.2884 138.936C81.0547 139.061 80.8693 139.237 80.7325 139.462C80.5957 139.684 80.5272 139.938 80.5272 140.223V144.234H79.2486ZM87.0573 146.698V137.666H88.3061V138.731H88.413C88.4871 138.594 88.594 138.436 88.7337 138.256C88.8734 138.076 89.0673 137.92 89.3153 137.786C89.5633 137.649 89.8912 137.58 90.2989 137.58C90.8291 137.58 91.3024 137.714 91.7186 137.982C92.1349 138.25 92.4613 138.637 92.6979 139.141C92.9374 139.646 93.0572 140.253 93.0572 140.963C93.0572 141.673 92.9389 142.281 92.7022 142.789C92.4656 143.294 92.1406 143.683 91.7272 143.956C91.3138 144.227 90.842 144.363 90.3117 144.363C89.9126 144.363 89.5861 144.296 89.3324 144.162C89.0815 144.028 88.8848 143.871 88.7423 143.691C88.5997 143.512 88.4899 143.352 88.413 143.212H88.336V146.698H87.0573ZM88.3103 140.95C88.3103 141.412 88.3773 141.817 88.5113 142.165C88.6453 142.512 88.8392 142.785 89.0929 142.981C89.3467 143.175 89.6574 143.272 90.0252 143.272C90.4072 143.272 90.7265 143.171 90.9831 142.969C91.2397 142.763 91.4335 142.485 91.5647 142.135C91.6987 141.784 91.7657 141.389 91.7657 140.95C91.7657 140.517 91.7001 140.128 91.569 139.783C91.4407 139.438 91.2468 139.165 90.9874 138.966C90.7308 138.766 90.4101 138.666 90.0252 138.666C89.6546 138.666 89.341 138.762 89.0844 138.953C88.8306 139.144 88.6382 139.411 88.507 139.753C88.3759 140.095 88.3103 140.494 88.3103 140.95ZM97.3208 144.367C96.6736 144.367 96.1162 144.229 95.6487 143.952C95.184 143.673 94.8248 143.281 94.571 142.776C94.3201 142.269 94.1947 141.674 94.1947 140.993C94.1947 140.32 94.3201 139.727 94.571 139.214C94.8248 138.701 95.1783 138.3 95.6316 138.012C96.0877 137.724 96.6209 137.58 97.231 137.58C97.6016 137.58 97.9608 137.642 98.3086 137.764C98.6564 137.887 98.9686 138.079 99.2452 138.341C99.5217 138.604 99.7398 138.944 99.8994 139.364C100.059 139.78 100.139 140.286 100.139 140.882V141.335H94.9174V140.377H98.8859C98.8859 140.041 98.8175 139.743 98.6807 139.483C98.5438 139.221 98.3514 139.014 98.1033 138.863C97.8582 138.712 97.5702 138.637 97.2395 138.637C96.8803 138.637 96.5667 138.725 96.2987 138.902C96.0336 139.076 95.8283 139.304 95.6829 139.586C95.5403 139.865 95.4691 140.169 95.4691 140.497V141.245C95.4691 141.684 95.546 142.058 95.7 142.366C95.8568 142.673 96.0749 142.909 96.3543 143.071C96.6337 143.231 96.9601 143.311 97.3336 143.311C97.5759 143.311 97.7969 143.276 97.9964 143.208C98.196 143.137 98.3685 143.031 98.5139 142.892C98.6593 142.752 98.7705 142.579 98.8474 142.374L100.058 142.592C99.9607 142.949 99.7868 143.261 99.5359 143.529C99.2879 143.794 98.9757 144.001 98.5994 144.149C98.2259 144.294 97.7997 144.367 97.3208 144.367ZM101.558 144.234V137.666H102.794V138.709H102.862C102.982 138.356 103.193 138.078 103.495 137.875C103.8 137.67 104.145 137.567 104.53 137.567C104.61 137.567 104.704 137.57 104.812 137.576C104.923 137.582 105.01 137.589 105.073 137.597V138.82C105.022 138.806 104.93 138.79 104.799 138.773C104.668 138.753 104.537 138.743 104.406 138.743C104.104 138.743 103.834 138.808 103.597 138.936C103.364 139.061 103.178 139.237 103.042 139.462C102.905 139.684 102.836 139.938 102.836 140.223V144.234H101.558ZM111.102 139.269L109.943 139.475C109.894 139.326 109.817 139.185 109.712 139.051C109.609 138.917 109.469 138.808 109.293 138.722C109.116 138.637 108.895 138.594 108.63 138.594C108.268 138.594 107.965 138.675 107.723 138.838C107.481 138.997 107.36 139.204 107.36 139.458C107.36 139.677 107.441 139.854 107.603 139.988C107.766 140.122 108.028 140.232 108.39 140.317L109.434 140.557C110.038 140.696 110.489 140.912 110.785 141.202C111.082 141.493 111.23 141.871 111.23 142.336C111.23 142.729 111.116 143.08 110.888 143.388C110.662 143.693 110.347 143.932 109.943 144.106C109.541 144.28 109.075 144.367 108.544 144.367C107.809 144.367 107.209 144.21 106.744 143.897C106.279 143.58 105.994 143.131 105.889 142.549L107.124 142.361C107.201 142.683 107.36 142.927 107.599 143.093C107.839 143.255 108.151 143.336 108.536 143.336C108.955 143.336 109.29 143.249 109.541 143.075C109.792 142.899 109.917 142.683 109.917 142.43C109.917 142.224 109.84 142.052 109.686 141.912C109.535 141.773 109.303 141.667 108.989 141.596L107.877 141.352C107.264 141.212 106.811 140.99 106.517 140.685C106.226 140.38 106.081 139.994 106.081 139.526C106.081 139.138 106.189 138.799 106.406 138.508C106.623 138.217 106.922 137.991 107.304 137.828C107.686 137.663 108.124 137.58 108.617 137.58C109.327 137.58 109.886 137.734 110.293 138.042C110.701 138.347 110.97 138.756 111.102 139.269ZM115.403 144.367C114.787 144.367 114.249 144.226 113.79 143.944C113.331 143.661 112.975 143.266 112.721 142.759C112.468 142.252 112.341 141.659 112.341 140.98C112.341 140.299 112.468 139.703 112.721 139.192C112.975 138.682 113.331 138.286 113.79 138.004C114.249 137.721 114.787 137.58 115.403 137.58C116.018 137.58 116.556 137.721 117.015 138.004C117.474 138.286 117.83 138.682 118.084 139.192C118.338 139.703 118.464 140.299 118.464 140.98C118.464 141.659 118.338 142.252 118.084 142.759C117.83 143.266 117.474 143.661 117.015 143.944C116.556 144.226 116.018 144.367 115.403 144.367ZM115.407 143.294C115.806 143.294 116.137 143.188 116.399 142.977C116.661 142.766 116.855 142.485 116.981 142.135C117.109 141.784 117.173 141.398 117.173 140.976C117.173 140.557 117.109 140.172 116.981 139.821C116.855 139.468 116.661 139.184 116.399 138.97C116.137 138.756 115.806 138.649 115.407 138.649C115.005 138.649 114.671 138.756 114.406 138.97C114.144 139.184 113.949 139.468 113.82 139.821C113.695 140.172 113.632 140.557 113.632 140.976C113.632 141.398 113.695 141.784 113.82 142.135C113.949 142.485 114.144 142.766 114.406 142.977C114.671 143.188 115.005 143.294 115.407 143.294ZM121.17 140.334V144.234H119.892V137.666H121.119V138.735H121.2C121.351 138.387 121.588 138.108 121.91 137.897C122.235 137.686 122.644 137.58 123.138 137.58C123.585 137.58 123.977 137.674 124.314 137.862C124.65 138.048 124.911 138.324 125.096 138.692C125.281 139.06 125.374 139.515 125.374 140.056V144.234H124.095V140.21C124.095 139.734 123.971 139.362 123.723 139.094C123.475 138.823 123.135 138.688 122.701 138.688C122.405 138.688 122.141 138.752 121.91 138.88C121.682 139.009 121.501 139.197 121.367 139.445C121.236 139.69 121.17 139.986 121.17 140.334Z" fill="#333333"/>
<path d="M48.6024 177.744C48.1508 177.744 47.7441 177.655 47.3823 177.475C47.0206 177.295 46.7306 177.049 46.5125 176.736C46.2944 176.423 46.1751 176.066 46.1546 175.666H47.0783C47.1142 176.023 47.2759 176.318 47.5632 176.551C47.8532 176.782 48.1996 176.898 48.6024 176.898C48.9257 176.898 49.2131 176.822 49.4645 176.671C49.7186 176.519 49.9174 176.311 50.0611 176.047C50.2073 175.78 50.2805 175.479 50.2805 175.143C50.2805 174.799 50.2048 174.492 50.0534 174.223C49.9046 173.951 49.6993 173.737 49.4376 173.58C49.1759 173.424 48.877 173.344 48.5408 173.341C48.2996 173.339 48.052 173.376 47.798 173.453C47.544 173.528 47.3349 173.624 47.1707 173.742L46.2777 173.634L46.755 169.754H50.8501V170.601H47.5555L47.2784 172.926H47.3246C47.4863 172.798 47.689 172.691 47.9327 172.606C48.1765 172.522 48.4305 172.479 48.6948 172.479C49.1772 172.479 49.6069 172.595 49.9841 172.826C50.3639 173.054 50.6615 173.367 50.877 173.765C51.0951 174.163 51.2042 174.617 51.2042 175.127C51.2042 175.63 51.0913 176.079 50.8655 176.474C50.6423 176.867 50.3344 177.177 49.9418 177.406C49.5492 177.632 49.1027 177.744 48.6024 177.744ZM55.3041 177.744C54.7242 177.744 54.2303 177.587 53.8223 177.271C53.4143 176.953 53.1026 176.492 52.8871 175.889C52.6715 175.284 52.5638 174.553 52.5638 173.696C52.5638 172.844 52.6715 172.116 52.8871 171.513C53.1052 170.908 53.4182 170.446 53.8262 170.128C54.2367 169.807 54.7293 169.647 55.3041 169.647C55.8789 169.647 56.3702 169.807 56.7782 170.128C57.1887 170.446 57.5018 170.908 57.7173 171.513C57.9354 172.116 58.0444 172.844 58.0444 173.696C58.0444 174.553 57.9367 175.284 57.7211 175.889C57.5056 176.492 57.1939 176.953 56.7859 177.271C56.3779 177.587 55.884 177.744 55.3041 177.744ZM55.3041 176.898C55.8789 176.898 56.3253 176.621 56.6435 176.066C56.9616 175.512 57.1207 174.722 57.1207 173.696C57.1207 173.013 57.0476 172.432 56.9013 171.952C56.7577 171.472 56.5498 171.107 56.2778 170.855C56.0084 170.604 55.6838 170.478 55.3041 170.478C54.7345 170.478 54.2893 170.759 53.9686 171.321C53.6478 171.88 53.4875 172.672 53.4875 173.696C53.4875 174.378 53.5593 174.958 53.703 175.435C53.8467 175.912 54.0532 176.276 54.3227 176.524C54.5946 176.773 54.9218 176.898 55.3041 176.898ZM62.078 177.744C61.4981 177.744 61.0042 177.587 60.5962 177.271C60.1882 176.953 59.8765 176.492 59.6609 175.889C59.4454 175.284 59.3376 174.553 59.3376 173.696C59.3376 172.844 59.4454 172.116 59.6609 171.513C59.879 170.908 60.1921 170.446 60.6 170.128C61.0106 169.807 61.5032 169.647 62.078 169.647C62.6527 169.647 63.1441 169.807 63.552 170.128C63.9626 170.446 64.2756 170.908 64.4911 171.513C64.7092 172.116 64.8183 172.844 64.8183 173.696C64.8183 174.553 64.7105 175.284 64.495 175.889C64.2795 176.492 63.9677 176.953 63.5597 177.271C63.1518 177.587 62.6578 177.744 62.078 177.744ZM62.078 176.898C62.6527 176.898 63.0992 176.621 63.4173 176.066C63.7355 175.512 63.8946 174.722 63.8946 173.696C63.8946 173.013 63.8215 172.432 63.6752 171.952C63.5315 171.472 63.3237 171.107 63.0517 170.855C62.7823 170.604 62.4577 170.478 62.078 170.478C61.5083 170.478 61.0632 170.759 60.7424 171.321C60.4217 171.88 60.2613 172.672 60.2613 173.696C60.2613 174.378 60.3332 174.958 60.4769 175.435C60.6206 175.912 60.8271 176.276 61.0965 176.524C61.3685 176.773 61.6956 176.898 62.078 176.898Z" fill="#404040"/>
<rect x="34.018" y="157.029" width="221.14" height="34.1937" rx="4.45231" stroke="#D9D8D9" stroke-width="0.729316"/>
</g>
<g filter="url(#filter1_d_5199_19022)">
<rect x="210.22" y="70.418" width="258.912" height="166.178" rx="8.65114" fill="white"/>
<path d="M229.271 94.3169V93.1794H236.05V94.3169H233.317V101.938H232V94.3169H229.271ZM239.259 102.07C238.643 102.07 238.106 101.929 237.647 101.647C237.188 101.364 236.831 100.97 236.578 100.462C236.324 99.9547 236.197 99.3617 236.197 98.6831C236.197 98.0018 236.324 97.4059 236.578 96.8956C236.831 96.3853 237.188 95.989 237.647 95.7067C238.106 95.4245 238.643 95.2834 239.259 95.2834C239.875 95.2834 240.412 95.4245 240.871 95.7067C241.33 95.989 241.687 96.3853 241.94 96.8956C242.194 97.4059 242.321 98.0018 242.321 98.6831C242.321 99.3617 242.194 99.9547 241.94 100.462C241.687 100.97 241.33 101.364 240.871 101.647C240.412 101.929 239.875 102.07 239.259 102.07ZM239.263 100.997C239.662 100.997 239.993 100.891 240.255 100.68C240.518 100.469 240.712 100.188 240.837 99.8378C240.965 99.4871 241.03 99.1008 241.03 98.6789C241.03 98.2598 240.965 97.8749 240.837 97.5242C240.712 97.1707 240.518 96.887 240.255 96.6732C239.993 96.4594 239.662 96.3525 239.263 96.3525C238.861 96.3525 238.528 96.4594 238.263 96.6732C238 96.887 237.805 97.1707 237.677 97.5242C237.551 97.8749 237.489 98.2598 237.489 98.6789C237.489 99.1008 237.551 99.4871 237.677 99.8378C237.805 100.188 238 100.469 238.263 100.68C238.528 100.891 238.861 100.997 239.263 100.997ZM246.814 95.3689V96.3953H243.227V95.3689H246.814ZM244.189 93.7952H245.467V100.009C245.467 100.257 245.504 100.444 245.579 100.569C245.653 100.692 245.748 100.776 245.865 100.821C245.985 100.864 246.115 100.885 246.254 100.885C246.357 100.885 246.447 100.878 246.524 100.864C246.601 100.85 246.661 100.838 246.703 100.83L246.934 101.886C246.86 101.915 246.755 101.943 246.618 101.972C246.481 102.003 246.31 102.02 246.105 102.023C245.768 102.029 245.455 101.969 245.164 101.843C244.873 101.718 244.638 101.524 244.458 101.262C244.279 101 244.189 100.67 244.189 100.274V93.7952ZM250.14 102.083C249.724 102.083 249.348 102.006 249.011 101.852C248.675 101.695 248.408 101.469 248.212 101.172C248.018 100.876 247.921 100.512 247.921 100.082C247.921 99.7109 247.992 99.4059 248.135 99.1664C248.277 98.9269 248.47 98.7373 248.712 98.5976C248.954 98.4579 249.225 98.3524 249.525 98.2812C249.824 98.2099 250.129 98.1557 250.44 98.1187C250.833 98.073 251.153 98.036 251.398 98.0075C251.643 97.9761 251.821 97.9262 251.932 97.8578C252.043 97.7894 252.099 97.6782 252.099 97.5242V97.4943C252.099 97.1208 251.994 96.8314 251.783 96.6262C251.574 96.4209 251.264 96.3183 250.85 96.3183C250.42 96.3183 250.081 96.4138 249.833 96.6048C249.587 96.793 249.418 97.0025 249.324 97.2334L248.122 96.9597C248.265 96.5606 248.473 96.2384 248.746 95.9933C249.023 95.7452 249.341 95.5656 249.7 95.4544C250.059 95.3404 250.437 95.2834 250.833 95.2834C251.096 95.2834 251.373 95.3147 251.667 95.3775C251.964 95.4373 252.24 95.5485 252.497 95.711C252.756 95.8735 252.969 96.1059 253.134 96.4081C253.299 96.7074 253.382 97.0966 253.382 97.5755V101.938H252.133V101.039H252.082C251.999 101.205 251.875 101.367 251.71 101.527C251.545 101.687 251.332 101.819 251.073 101.925C250.813 102.03 250.503 102.083 250.14 102.083ZM250.418 101.057C250.772 101.057 251.074 100.987 251.325 100.847C251.579 100.707 251.771 100.525 251.902 100.3C252.036 100.072 252.103 99.8278 252.103 99.5684V98.7216C252.058 98.7672 251.969 98.81 251.838 98.8499C251.71 98.887 251.563 98.9198 251.398 98.9483C251.232 98.9739 251.071 98.9982 250.914 99.021C250.758 99.0409 250.627 99.058 250.521 99.0723C250.273 99.1037 250.046 99.1564 249.841 99.2305C249.639 99.3046 249.476 99.4116 249.354 99.5513C249.234 99.6881 249.174 99.8706 249.174 100.099C249.174 100.415 249.291 100.655 249.525 100.817C249.758 100.977 250.056 101.057 250.418 101.057ZM256.364 93.1794V101.938H255.085V93.1794H256.364ZM261.374 101.938V93.1794H266.864V94.3169H262.695V96.9854H266.578V98.1187H262.695V100.8H266.916V101.938H261.374ZM269.536 95.3689L270.986 97.9262L272.448 95.3689H273.847L271.798 98.6532L273.864 101.938H272.466L270.986 99.4828L269.511 101.938H268.108L270.152 98.6532L268.134 95.3689H269.536ZM275.16 104.401V95.3689H276.408V96.4337H276.515C276.589 96.2969 276.696 96.1387 276.836 95.9591C276.976 95.7794 277.17 95.6226 277.418 95.4886C277.666 95.3518 277.994 95.2834 278.401 95.2834C278.931 95.2834 279.405 95.4174 279.821 95.6854C280.237 95.9534 280.564 96.3397 280.8 96.8443C281.04 97.3489 281.16 97.9561 281.16 98.666C281.16 99.3759 281.041 99.9846 280.805 100.492C280.568 100.997 280.243 101.386 279.83 101.66C279.416 101.93 278.944 102.066 278.414 102.066C278.015 102.066 277.688 101.999 277.435 101.865C277.184 101.731 276.987 101.574 276.845 101.394C276.702 101.215 276.592 101.055 276.515 100.915H276.438V104.401H275.16ZM276.413 98.6532C276.413 99.1151 276.48 99.5199 276.614 99.8677C276.748 100.216 276.942 100.488 277.195 100.685C277.449 100.878 277.76 100.975 278.128 100.975C278.51 100.975 278.829 100.874 279.085 100.672C279.342 100.466 279.536 100.188 279.667 99.8378C279.801 99.4871 279.868 99.0923 279.868 98.6532C279.868 98.2199 279.802 97.8307 279.671 97.4857C279.543 97.1408 279.349 96.8685 279.09 96.6689C278.833 96.4694 278.512 96.3696 278.128 96.3696C277.757 96.3696 277.443 96.4651 277.187 96.6561C276.933 96.8471 276.741 97.1137 276.609 97.4558C276.478 97.7979 276.413 98.1971 276.413 98.6532ZM285.423 102.07C284.776 102.07 284.219 101.932 283.751 101.655C283.286 101.376 282.927 100.984 282.673 100.479C282.422 99.9718 282.297 99.3773 282.297 98.696C282.297 98.0231 282.422 97.4301 282.673 96.917C282.927 96.4038 283.281 96.0032 283.734 95.7153C284.19 95.4274 284.723 95.2834 285.333 95.2834C285.704 95.2834 286.063 95.3447 286.411 95.4673C286.759 95.5899 287.071 95.7823 287.347 96.0446C287.624 96.3069 287.842 96.6476 288.002 97.0666C288.161 97.4829 288.241 97.9889 288.241 98.5848V99.0381H283.02V98.0802H286.988C286.988 97.7438 286.92 97.4458 286.783 97.1864C286.646 96.9241 286.454 96.7174 286.206 96.5663C285.961 96.4152 285.673 96.3397 285.342 96.3397C284.983 96.3397 284.669 96.428 284.401 96.6048C284.136 96.7787 283.931 97.0068 283.785 97.289C283.643 97.5684 283.571 97.872 283.571 98.1999V98.9483C283.571 99.3873 283.648 99.7608 283.802 100.069C283.959 100.377 284.177 100.612 284.457 100.774C284.736 100.934 285.062 101.014 285.436 101.014C285.678 101.014 285.899 100.98 286.099 100.911C286.298 100.84 286.471 100.734 286.616 100.595C286.762 100.455 286.873 100.283 286.95 100.077L288.16 100.295C288.063 100.652 287.889 100.964 287.638 101.232C287.39 101.497 287.078 101.704 286.702 101.852C286.328 101.997 285.902 102.07 285.423 102.07ZM290.939 98.0374V101.938H289.66V95.3689H290.887V96.438H290.969C291.12 96.0902 291.356 95.8108 291.678 95.5998C292.003 95.3889 292.413 95.2834 292.906 95.2834C293.353 95.2834 293.745 95.3775 294.082 95.5656C294.418 95.7509 294.679 96.0275 294.864 96.3953C295.05 96.763 295.142 97.2178 295.142 97.7594V101.938H293.864V97.9134C293.864 97.4373 293.74 97.0652 293.492 96.7972C293.244 96.5264 292.903 96.391 292.47 96.391C292.173 96.391 291.909 96.4551 291.678 96.5834C291.45 96.7117 291.269 96.8999 291.135 97.1479C291.004 97.3931 290.939 97.6896 290.939 98.0374ZM301.779 96.9726L300.62 97.1778C300.572 97.0296 300.495 96.8885 300.39 96.7545C300.287 96.6205 300.147 96.5107 299.97 96.4252C299.794 96.3397 299.573 96.2969 299.308 96.2969C298.946 96.2969 298.643 96.3781 298.401 96.5406C298.159 96.7003 298.037 96.907 298.037 97.1607C298.037 97.3803 298.119 97.557 298.281 97.691C298.444 97.825 298.706 97.9348 299.068 98.0203L300.112 98.2598C300.716 98.3995 301.166 98.6147 301.463 98.9055C301.759 99.1963 301.908 99.5741 301.908 100.039C301.908 100.432 301.794 100.783 301.566 101.091C301.34 101.396 301.025 101.635 300.62 101.809C300.218 101.983 299.752 102.07 299.222 102.07C298.487 102.07 297.886 101.913 297.422 101.6C296.957 101.283 296.672 100.834 296.566 100.253L297.802 100.064C297.879 100.387 298.037 100.63 298.277 100.796C298.516 100.958 298.829 101.039 299.214 101.039C299.633 101.039 299.968 100.952 300.218 100.779C300.469 100.602 300.595 100.387 300.595 100.133C300.595 99.9276 300.518 99.7551 300.364 99.6154C300.213 99.4757 299.98 99.3702 299.667 99.2989L298.555 99.0552C297.942 98.9155 297.489 98.6931 297.195 98.3881C296.904 98.083 296.759 97.6967 296.759 97.2292C296.759 96.8414 296.867 96.5022 297.084 96.2114C297.301 95.9206 297.6 95.6939 297.982 95.5314C298.364 95.3661 298.802 95.2834 299.295 95.2834C300.005 95.2834 300.563 95.4373 300.971 95.7452C301.379 96.0503 301.648 96.4594 301.779 96.9726ZM306.145 102.07C305.497 102.07 304.94 101.932 304.472 101.655C304.008 101.376 303.649 100.984 303.395 100.479C303.144 99.9718 303.018 99.3773 303.018 98.696C303.018 98.0231 303.144 97.4301 303.395 96.917C303.649 96.4038 304.002 96.0032 304.455 95.7153C304.911 95.4274 305.445 95.2834 306.055 95.2834C306.425 95.2834 306.785 95.3447 307.132 95.4673C307.48 95.5899 307.792 95.7823 308.069 96.0446C308.345 96.3069 308.564 96.6476 308.723 97.0666C308.883 97.4829 308.963 97.9889 308.963 98.5848V99.0381H303.741V98.0802H307.71C307.71 97.7438 307.641 97.4458 307.504 97.1864C307.368 96.9241 307.175 96.7174 306.927 96.5663C306.682 96.4152 306.394 96.3397 306.063 96.3397C305.704 96.3397 305.39 96.428 305.122 96.6048C304.857 96.7787 304.652 97.0068 304.507 97.289C304.364 97.5684 304.293 97.872 304.293 98.1999V98.9483C304.293 99.3873 304.37 99.7608 304.524 100.069C304.681 100.377 304.899 100.612 305.178 100.774C305.457 100.934 305.784 101.014 306.157 101.014C306.4 101.014 306.621 100.98 306.82 100.911C307.02 100.84 307.192 100.734 307.338 100.595C307.483 100.455 307.594 100.283 307.671 100.077L308.881 100.295C308.785 100.652 308.611 100.964 308.36 101.232C308.112 101.497 307.8 101.704 307.423 101.852C307.05 101.997 306.623 102.07 306.145 102.07Z" fill="#333333"/>
<path d="M247.615 127.461V135.344H246.691L242.396 129.155H242.319V135.344H241.365V127.461H242.288L246.599 133.666H246.676V127.461H247.615ZM251.804 135.467C251.27 135.467 250.802 135.34 250.399 135.086C249.998 134.832 249.685 134.476 249.46 134.02C249.236 133.563 249.125 133.029 249.125 132.419C249.125 131.803 249.236 131.265 249.46 130.806C249.685 130.347 249.998 129.99 250.399 129.736C250.802 129.482 251.27 129.355 251.804 129.355C252.337 129.355 252.804 129.482 253.204 129.736C253.607 129.99 253.92 130.347 254.144 130.806C254.369 131.265 254.482 131.803 254.482 132.419C254.482 133.029 254.369 133.563 254.144 134.02C253.92 134.476 253.607 134.832 253.204 135.086C252.804 135.34 252.337 135.467 251.804 135.467ZM251.804 134.651C252.209 134.651 252.542 134.547 252.804 134.339C253.066 134.131 253.26 133.858 253.385 133.519C253.511 133.181 253.574 132.814 253.574 132.419C253.574 132.024 253.511 131.655 253.385 131.314C253.26 130.973 253.066 130.697 252.804 130.487C252.542 130.276 252.209 130.171 251.804 130.171C251.398 130.171 251.065 130.276 250.803 130.487C250.541 130.697 250.347 130.973 250.222 131.314C250.096 131.655 250.033 132.024 250.033 132.419C250.033 132.814 250.096 133.181 250.222 133.519C250.347 133.858 250.541 134.131 250.803 134.339C251.065 134.547 251.398 134.651 251.804 134.651ZM256.531 135.405C256.341 135.405 256.178 135.337 256.042 135.201C255.906 135.065 255.838 134.902 255.838 134.713C255.838 134.523 255.906 134.36 256.042 134.224C256.178 134.088 256.341 134.02 256.531 134.02C256.721 134.02 256.884 134.088 257.02 134.224C257.156 134.36 257.224 134.523 257.224 134.713C257.224 134.838 257.191 134.954 257.127 135.059C257.066 135.164 256.982 135.249 256.877 135.313C256.775 135.375 256.659 135.405 256.531 135.405ZM264.303 135.467C263.77 135.467 263.301 135.34 262.899 135.086C262.498 134.832 262.185 134.476 261.959 134.02C261.736 133.563 261.625 133.029 261.625 132.419C261.625 131.803 261.736 131.265 261.959 130.806C262.185 130.347 262.498 129.99 262.899 129.736C263.301 129.482 263.77 129.355 264.303 129.355C264.837 129.355 265.304 129.482 265.704 129.736C266.107 129.99 266.42 130.347 266.643 130.806C266.869 131.265 266.982 131.803 266.982 132.419C266.982 133.029 266.869 133.563 266.643 134.02C266.42 134.476 266.107 134.832 265.704 135.086C265.304 135.34 264.837 135.467 264.303 135.467ZM264.303 134.651C264.709 134.651 265.042 134.547 265.304 134.339C265.566 134.131 265.76 133.858 265.885 133.519C266.011 133.181 266.074 132.814 266.074 132.419C266.074 132.024 266.011 131.655 265.885 131.314C265.76 130.973 265.566 130.697 265.304 130.487C265.042 130.276 264.709 130.171 264.303 130.171C263.898 130.171 263.564 130.276 263.303 130.487C263.041 130.697 262.847 130.973 262.722 131.314C262.596 131.655 262.533 132.024 262.533 132.419C262.533 132.814 262.596 133.181 262.722 133.519C262.847 133.858 263.041 134.131 263.303 134.339C263.564 134.547 263.898 134.651 264.303 134.651ZM271.001 129.432V130.202H267.814V129.432H271.001ZM268.769 135.344V128.616C268.769 128.277 268.849 127.995 269.008 127.769C269.167 127.544 269.373 127.374 269.627 127.261C269.881 127.148 270.149 127.092 270.432 127.092C270.655 127.092 270.837 127.11 270.978 127.146C271.119 127.182 271.224 127.215 271.294 127.246L271.032 128.031C270.986 128.016 270.922 127.996 270.84 127.973C270.76 127.95 270.655 127.939 270.524 127.939C270.224 127.939 270.007 128.014 269.874 128.166C269.743 128.317 269.677 128.539 269.677 128.832V135.344H268.769ZM275.015 128.308V127.461H280.926V128.308H278.448V135.344H277.493V128.308H275.015ZM281.662 135.344V129.432H282.54V130.325H282.601C282.709 130.032 282.904 129.795 283.187 129.613C283.469 129.431 283.787 129.34 284.141 129.34C284.208 129.34 284.291 129.341 284.391 129.343C284.491 129.346 284.567 129.35 284.618 129.355V130.279C284.587 130.271 284.517 130.26 284.407 130.244C284.299 130.226 284.185 130.217 284.064 130.217C283.777 130.217 283.52 130.277 283.294 130.398C283.071 130.516 282.894 130.68 282.763 130.891C282.635 131.099 282.571 131.336 282.571 131.603V135.344H281.662ZM287.435 135.482C287.06 135.482 286.72 135.412 286.415 135.271C286.109 135.127 285.867 134.92 285.687 134.651C285.508 134.379 285.418 134.051 285.418 133.666C285.418 133.327 285.485 133.052 285.618 132.842C285.751 132.629 285.93 132.462 286.153 132.342C286.376 132.221 286.623 132.131 286.892 132.072C287.164 132.011 287.437 131.962 287.712 131.926C288.071 131.88 288.362 131.845 288.585 131.822C288.811 131.796 288.975 131.754 289.078 131.695C289.183 131.636 289.236 131.533 289.236 131.387V131.356C289.236 130.977 289.132 130.682 288.924 130.471C288.719 130.261 288.407 130.156 287.989 130.156C287.555 130.156 287.215 130.251 286.969 130.44C286.723 130.63 286.549 130.833 286.449 131.049L285.587 130.741C285.741 130.381 285.946 130.102 286.203 129.902C286.462 129.699 286.744 129.558 287.05 129.478C287.358 129.396 287.66 129.355 287.958 129.355C288.148 129.355 288.366 129.378 288.612 129.424C288.861 129.468 289.101 129.559 289.332 129.698C289.566 129.836 289.759 130.045 289.913 130.325C290.067 130.605 290.144 130.979 290.144 131.449V135.344H289.236V134.543H289.19C289.128 134.671 289.025 134.809 288.882 134.955C288.738 135.101 288.547 135.226 288.308 135.328C288.07 135.431 287.778 135.482 287.435 135.482ZM287.573 134.666C287.932 134.666 288.235 134.596 288.481 134.455C288.73 134.314 288.918 134.131 289.043 133.908C289.172 133.685 289.236 133.45 289.236 133.204V132.372C289.197 132.419 289.113 132.461 288.982 132.499C288.854 132.535 288.705 132.567 288.535 132.596C288.369 132.621 288.206 132.644 288.047 132.665C287.89 132.683 287.763 132.698 287.666 132.711C287.429 132.742 287.209 132.792 287.004 132.861C286.801 132.928 286.637 133.029 286.511 133.165C286.388 133.299 286.326 133.481 286.326 133.712C286.326 134.027 286.443 134.266 286.676 134.428C286.912 134.587 287.211 134.666 287.573 134.666ZM296.424 129.432L294.238 135.344H293.315L291.128 129.432H292.114L293.746 134.143H293.807L295.439 129.432H296.424ZM299.89 135.467C299.321 135.467 298.829 135.341 298.416 135.09C298.006 134.836 297.689 134.482 297.465 134.027C297.245 133.571 297.134 133.04 297.134 132.434C297.134 131.829 297.245 131.295 297.465 130.833C297.689 130.369 297.999 130.007 298.397 129.748C298.797 129.486 299.264 129.355 299.798 129.355C300.106 129.355 300.41 129.406 300.71 129.509C301.01 129.612 301.283 129.778 301.53 130.009C301.776 130.238 301.972 130.54 302.119 130.918C302.265 131.295 302.338 131.759 302.338 132.311V132.696H297.781V131.911H301.414C301.414 131.577 301.348 131.279 301.214 131.018C301.083 130.756 300.896 130.549 300.652 130.398C300.411 130.247 300.126 130.171 299.798 130.171C299.436 130.171 299.123 130.261 298.859 130.44C298.597 130.617 298.396 130.848 298.254 131.133C298.113 131.418 298.043 131.723 298.043 132.049V132.573C298.043 133.019 298.12 133.398 298.274 133.708C298.43 134.016 298.647 134.251 298.924 134.412C299.201 134.571 299.523 134.651 299.89 134.651C300.129 134.651 300.344 134.618 300.537 134.551C300.732 134.482 300.9 134.379 301.041 134.243C301.182 134.104 301.291 133.933 301.368 133.727L302.246 133.974C302.153 134.271 301.998 134.533 301.78 134.759C301.562 134.982 301.292 135.156 300.972 135.282C300.651 135.405 300.291 135.467 299.89 135.467ZM304.628 127.461V135.344H303.72V127.461H304.628ZM307.2 127.461V135.344H306.292V127.461H307.2ZM311.342 135.467C310.773 135.467 310.281 135.341 309.868 135.09C309.458 134.836 309.141 134.482 308.918 134.027C308.697 133.571 308.587 133.04 308.587 132.434C308.587 131.829 308.697 131.295 308.918 130.833C309.141 130.369 309.451 130.007 309.849 129.748C310.249 129.486 310.716 129.355 311.25 129.355C311.558 129.355 311.862 129.406 312.162 129.509C312.462 129.612 312.736 129.778 312.982 130.009C313.228 130.238 313.424 130.54 313.571 130.918C313.717 131.295 313.79 131.759 313.79 132.311V132.696H309.233V131.911H312.866C312.866 131.577 312.8 131.279 312.666 131.018C312.535 130.756 312.348 130.549 312.104 130.398C311.863 130.247 311.578 130.171 311.25 130.171C310.888 130.171 310.575 130.261 310.311 130.44C310.049 130.617 309.848 130.848 309.707 131.133C309.565 131.418 309.495 131.723 309.495 132.049V132.573C309.495 133.019 309.572 133.398 309.726 133.708C309.882 134.016 310.099 134.251 310.376 134.412C310.653 134.571 310.975 134.651 311.342 134.651C311.581 134.651 311.796 134.618 311.989 134.551C312.184 134.482 312.352 134.379 312.493 134.243C312.634 134.104 312.743 133.933 312.82 133.727L313.698 133.974C313.605 134.271 313.45 134.533 313.232 134.759C313.014 134.982 312.745 135.156 312.424 135.282C312.103 135.405 311.743 135.467 311.342 135.467ZM315.172 135.344V129.432H316.049V130.325H316.111C316.219 130.032 316.414 129.795 316.696 129.613C316.978 129.431 317.296 129.34 317.65 129.34C317.717 129.34 317.801 129.341 317.901 129.343C318.001 129.346 318.076 129.35 318.128 129.355V130.279C318.097 130.271 318.026 130.26 317.916 130.244C317.808 130.226 317.694 130.217 317.573 130.217C317.286 130.217 317.03 130.277 316.804 130.398C316.58 130.516 316.403 130.68 316.273 130.891C316.144 131.099 316.08 131.336 316.08 131.603V135.344H315.172ZM323.392 130.756L322.576 130.987C322.525 130.851 322.449 130.719 322.349 130.591C322.251 130.46 322.118 130.352 321.949 130.267C321.779 130.183 321.562 130.14 321.298 130.14C320.936 130.14 320.635 130.224 320.394 130.39C320.155 130.555 320.036 130.764 320.036 131.018C320.036 131.244 320.118 131.422 320.282 131.553C320.446 131.684 320.703 131.793 321.052 131.88L321.929 132.095C322.458 132.224 322.852 132.42 323.111 132.684C323.37 132.946 323.5 133.283 323.5 133.696C323.5 134.035 323.402 134.338 323.207 134.605C323.015 134.872 322.745 135.082 322.399 135.236C322.052 135.39 321.65 135.467 321.19 135.467C320.587 135.467 320.088 135.336 319.693 135.074C319.298 134.813 319.048 134.43 318.943 133.927L319.805 133.712C319.887 134.03 320.042 134.269 320.27 134.428C320.501 134.587 320.803 134.666 321.175 134.666C321.598 134.666 321.934 134.577 322.183 134.397C322.435 134.215 322.561 133.997 322.561 133.743C322.561 133.537 322.489 133.365 322.345 133.227C322.201 133.086 321.981 132.981 321.683 132.911L320.698 132.68C320.156 132.552 319.759 132.353 319.505 132.084C319.253 131.812 319.127 131.472 319.127 131.064C319.127 130.73 319.221 130.435 319.408 130.179C319.598 129.922 319.856 129.721 320.182 129.574C320.51 129.428 320.882 129.355 321.298 129.355C321.883 129.355 322.342 129.483 322.676 129.74C323.012 129.997 323.251 130.335 323.392 130.756ZM329.424 131.895L329.485 130.202L328.054 131.11L327.684 130.463L329.193 129.678L327.684 128.893L328.054 128.247L329.485 129.155L329.424 127.461H330.163L330.101 129.155L331.533 128.247L331.902 128.893L330.394 129.678L331.902 130.463L331.533 131.11L330.101 130.202L330.163 131.895H329.424ZM342.848 129.925H341.894C341.837 129.65 341.739 129.409 341.598 129.201C341.459 128.993 341.29 128.819 341.09 128.678C340.892 128.534 340.673 128.426 340.431 128.354C340.19 128.283 339.939 128.247 339.677 128.247C339.2 128.247 338.767 128.367 338.38 128.608C337.995 128.85 337.688 129.205 337.46 129.674C337.234 130.144 337.121 130.72 337.121 131.403C337.121 132.085 337.234 132.661 337.46 133.131C337.688 133.6 337.995 133.956 338.38 134.197C338.767 134.438 339.2 134.559 339.677 134.559C339.939 134.559 340.19 134.523 340.431 134.451C340.673 134.379 340.892 134.273 341.09 134.131C341.29 133.988 341.459 133.812 341.598 133.604C341.739 133.394 341.837 133.153 341.894 132.881H342.848C342.777 133.283 342.646 133.644 342.456 133.962C342.266 134.28 342.03 134.551 341.748 134.774C341.465 134.995 341.149 135.163 340.797 135.278C340.448 135.394 340.075 135.452 339.677 135.452C339.005 135.452 338.407 135.287 337.883 134.959C337.36 134.63 336.948 134.163 336.648 133.558C336.348 132.952 336.198 132.234 336.198 131.403C336.198 130.571 336.348 129.853 336.648 129.247C336.948 128.642 337.36 128.175 337.883 127.846C338.407 127.518 339.005 127.354 339.677 127.354C340.075 127.354 340.448 127.411 340.797 127.527C341.149 127.642 341.465 127.812 341.748 128.035C342.03 128.256 342.266 128.525 342.456 128.843C342.646 129.159 342.777 129.519 342.848 129.925ZM346.669 135.467C346.136 135.467 345.667 135.34 345.265 135.086C344.864 134.832 344.551 134.476 344.325 134.02C344.102 133.563 343.991 133.029 343.991 132.419C343.991 131.803 344.102 131.265 344.325 130.806C344.551 130.347 344.864 129.99 345.265 129.736C345.667 129.482 346.136 129.355 346.669 129.355C347.203 129.355 347.67 129.482 348.07 129.736C348.473 129.99 348.786 130.347 349.009 130.806C349.235 131.265 349.348 131.803 349.348 132.419C349.348 133.029 349.235 133.563 349.009 134.02C348.786 134.476 348.473 134.832 348.07 135.086C347.67 135.34 347.203 135.467 346.669 135.467ZM346.669 134.651C347.075 134.651 347.408 134.547 347.67 134.339C347.932 134.131 348.125 133.858 348.251 133.519C348.377 133.181 348.44 132.814 348.44 132.419C348.44 132.024 348.377 131.655 348.251 131.314C348.125 130.973 347.932 130.697 347.67 130.487C347.408 130.276 347.075 130.171 346.669 130.171C346.264 130.171 345.93 130.276 345.669 130.487C345.407 130.697 345.213 130.973 345.087 131.314C344.962 131.655 344.899 132.024 344.899 132.419C344.899 132.814 344.962 133.181 345.087 133.519C345.213 133.858 345.407 134.131 345.669 134.339C345.93 134.547 346.264 134.651 346.669 134.651ZM354.922 130.756L354.106 130.987C354.055 130.851 353.979 130.719 353.879 130.591C353.782 130.46 353.648 130.352 353.479 130.267C353.309 130.183 353.093 130.14 352.828 130.14C352.467 130.14 352.165 130.224 351.924 130.39C351.685 130.555 351.566 130.764 351.566 131.018C351.566 131.244 351.648 131.422 351.812 131.553C351.976 131.684 352.233 131.793 352.582 131.88L353.46 132.095C353.988 132.224 354.382 132.42 354.641 132.684C354.9 132.946 355.03 133.283 355.03 133.696C355.03 134.035 354.932 134.338 354.737 134.605C354.545 134.872 354.275 135.082 353.929 135.236C353.583 135.39 353.18 135.467 352.721 135.467C352.118 135.467 351.619 135.336 351.223 135.074C350.828 134.813 350.578 134.43 350.473 133.927L351.335 133.712C351.417 134.03 351.572 134.269 351.801 134.428C352.032 134.587 352.333 134.666 352.705 134.666C353.129 134.666 353.465 134.577 353.714 134.397C353.965 134.215 354.091 133.997 354.091 133.743C354.091 133.537 354.019 133.365 353.875 133.227C353.732 133.086 353.511 132.981 353.213 132.911L352.228 132.68C351.687 132.552 351.289 132.353 351.035 132.084C350.783 131.812 350.658 131.472 350.658 131.064C350.658 130.73 350.751 130.435 350.939 130.179C351.128 129.922 351.386 129.721 351.712 129.574C352.041 129.428 352.413 129.355 352.828 129.355C353.413 129.355 353.873 129.483 354.206 129.74C354.542 129.997 354.781 130.335 354.922 130.756ZM358.968 129.432V130.202H355.904V129.432H358.968ZM356.797 128.016H357.706V133.65C357.706 133.907 357.743 134.099 357.817 134.228C357.894 134.353 357.992 134.438 358.11 134.482C358.23 134.523 358.357 134.543 358.491 134.543C358.591 134.543 358.673 134.538 358.737 134.528C358.801 134.515 358.853 134.505 358.891 134.497L359.076 135.313C359.014 135.336 358.928 135.359 358.818 135.382C358.708 135.408 358.568 135.421 358.398 135.421C358.142 135.421 357.89 135.366 357.644 135.255C357.4 135.145 357.198 134.977 357.036 134.751C356.877 134.525 356.797 134.24 356.797 133.897V128.016ZM363.383 137.561V129.432H364.26V130.371H364.368C364.435 130.268 364.527 130.138 364.645 129.979C364.766 129.817 364.938 129.673 365.161 129.547C365.387 129.419 365.692 129.355 366.077 129.355C366.575 129.355 367.013 129.479 367.393 129.728C367.773 129.977 368.069 130.33 368.282 130.787C368.495 131.244 368.602 131.782 368.602 132.403C368.602 133.029 368.495 133.572 368.282 134.031C368.069 134.488 367.774 134.842 367.397 135.094C367.02 135.342 366.585 135.467 366.092 135.467C365.712 135.467 365.408 135.404 365.18 135.278C364.952 135.15 364.776 135.005 364.653 134.843C364.53 134.679 364.435 134.543 364.368 134.435H364.291V137.561H363.383ZM364.276 132.388C364.276 132.834 364.341 133.228 364.472 133.569C364.603 133.908 364.794 134.174 365.045 134.366C365.297 134.556 365.605 134.651 365.969 134.651C366.349 134.651 366.666 134.551 366.92 134.351C367.176 134.148 367.369 133.876 367.497 133.535C367.628 133.191 367.693 132.809 367.693 132.388C367.693 131.972 367.629 131.598 367.501 131.264C367.375 130.928 367.184 130.662 366.927 130.467C366.673 130.27 366.354 130.171 365.969 130.171C365.6 130.171 365.289 130.265 365.038 130.452C364.786 130.637 364.596 130.896 364.468 131.229C364.34 131.56 364.276 131.947 364.276 132.388ZM372.466 135.467C371.896 135.467 371.405 135.341 370.992 135.09C370.581 134.836 370.264 134.482 370.041 134.027C369.82 133.571 369.71 133.04 369.71 132.434C369.71 131.829 369.82 131.295 370.041 130.833C370.264 130.369 370.575 130.007 370.972 129.748C371.373 129.486 371.84 129.355 372.373 129.355C372.681 129.355 372.985 129.406 373.286 129.509C373.586 129.612 373.859 129.778 374.105 130.009C374.352 130.238 374.548 130.54 374.694 130.918C374.84 131.295 374.914 131.759 374.914 132.311V132.696H370.357V131.911H373.99C373.99 131.577 373.923 131.279 373.79 131.018C373.659 130.756 373.472 130.549 373.228 130.398C372.987 130.247 372.702 130.171 372.373 130.171C372.012 130.171 371.699 130.261 371.434 130.44C371.173 130.617 370.971 130.848 370.83 131.133C370.689 131.418 370.618 131.723 370.618 132.049V132.573C370.618 133.019 370.695 133.398 370.849 133.708C371.006 134.016 371.223 134.251 371.5 134.412C371.777 134.571 372.099 134.651 372.466 134.651C372.704 134.651 372.92 134.618 373.112 134.551C373.307 134.482 373.475 134.379 373.617 134.243C373.758 134.104 373.867 133.933 373.944 133.727L374.821 133.974C374.729 134.271 374.574 134.533 374.356 134.759C374.137 134.982 373.868 135.156 373.547 135.282C373.227 135.405 372.866 135.467 372.466 135.467ZM376.295 135.344V129.432H377.173V130.325H377.234C377.342 130.032 377.537 129.795 377.819 129.613C378.102 129.431 378.42 129.34 378.774 129.34C378.841 129.34 378.924 129.341 379.024 129.343C379.124 129.346 379.2 129.35 379.251 129.355V130.279C379.22 130.271 379.15 130.26 379.04 130.244C378.932 130.226 378.818 130.217 378.697 130.217C378.41 130.217 378.153 130.277 377.927 130.398C377.704 130.516 377.527 130.68 377.396 130.891C377.268 131.099 377.204 131.336 377.204 131.603V135.344H376.295ZM383.376 137.561V129.432H384.254V130.371H384.361C384.428 130.268 384.52 130.138 384.639 129.979C384.759 129.817 384.931 129.673 385.154 129.547C385.38 129.419 385.685 129.355 386.07 129.355C386.568 129.355 387.007 129.479 387.387 129.728C387.766 129.977 388.063 130.33 388.276 130.787C388.489 131.244 388.595 131.782 388.595 132.403C388.595 133.029 388.489 133.572 388.276 134.031C388.063 134.488 387.768 134.842 387.39 135.094C387.013 135.342 386.578 135.467 386.086 135.467C385.706 135.467 385.402 135.404 385.174 135.278C384.945 135.15 384.769 135.005 384.646 134.843C384.523 134.679 384.428 134.543 384.361 134.435H384.284V137.561H383.376ZM384.269 132.388C384.269 132.834 384.334 133.228 384.465 133.569C384.596 133.908 384.787 134.174 385.039 134.366C385.29 134.556 385.598 134.651 385.963 134.651C386.342 134.651 386.659 134.551 386.913 134.351C387.17 134.148 387.362 133.876 387.49 133.535C387.621 133.191 387.687 132.809 387.687 132.388C387.687 131.972 387.623 131.598 387.494 131.264C387.369 130.928 387.177 130.662 386.921 130.467C386.667 130.27 386.347 130.171 385.963 130.171C385.593 130.171 385.283 130.265 385.031 130.452C384.78 130.637 384.59 130.896 384.461 131.229C384.333 131.56 384.269 131.947 384.269 132.388ZM392.459 135.467C391.89 135.467 391.398 135.341 390.985 135.09C390.575 134.836 390.258 134.482 390.035 134.027C389.814 133.571 389.704 133.04 389.704 132.434C389.704 131.829 389.814 131.295 390.035 130.833C390.258 130.369 390.568 130.007 390.966 129.748C391.366 129.486 391.833 129.355 392.367 129.355C392.675 129.355 392.979 129.406 393.279 129.509C393.579 129.612 393.853 129.778 394.099 130.009C394.345 130.238 394.541 130.54 394.688 130.918C394.834 131.295 394.907 131.759 394.907 132.311V132.696H390.35V131.911H393.983C393.983 131.577 393.917 131.279 393.783 131.018C393.652 130.756 393.465 130.549 393.221 130.398C392.98 130.247 392.695 130.171 392.367 130.171C392.005 130.171 391.692 130.261 391.428 130.44C391.166 130.617 390.965 130.848 390.824 131.133C390.682 131.418 390.612 131.723 390.612 132.049V132.573C390.612 133.019 390.689 133.398 390.843 133.708C390.999 134.016 391.216 134.251 391.493 134.412C391.77 134.571 392.092 134.651 392.459 134.651C392.698 134.651 392.913 134.618 393.106 134.551C393.301 134.482 393.469 134.379 393.61 134.243C393.751 134.104 393.86 133.933 393.937 133.727L394.815 133.974C394.722 134.271 394.567 134.533 394.349 134.759C394.131 134.982 393.861 135.156 393.541 135.282C393.22 135.405 392.86 135.467 392.459 135.467ZM396.289 135.344V129.432H397.166V130.325H397.228C397.336 130.032 397.531 129.795 397.813 129.613C398.095 129.431 398.413 129.34 398.767 129.34C398.834 129.34 398.918 129.341 399.018 129.343C399.118 129.346 399.193 129.35 399.245 129.355V130.279C399.214 130.271 399.143 130.26 399.033 130.244C398.925 130.226 398.811 130.217 398.69 130.217C398.403 130.217 398.146 130.277 397.921 130.398C397.697 130.516 397.52 130.68 397.39 130.891C397.261 131.099 397.197 131.336 397.197 131.603V135.344H396.289ZM404.509 130.756L403.693 130.987C403.642 130.851 403.566 130.719 403.466 130.591C403.368 130.46 403.235 130.352 403.066 130.267C402.896 130.183 402.679 130.14 402.415 130.14C402.053 130.14 401.752 130.224 401.511 130.39C401.272 130.555 401.153 130.764 401.153 131.018C401.153 131.244 401.235 131.422 401.399 131.553C401.563 131.684 401.82 131.793 402.169 131.88L403.046 132.095C403.575 132.224 403.969 132.42 404.228 132.684C404.487 132.946 404.617 133.283 404.617 133.696C404.617 134.035 404.519 134.338 404.324 134.605C404.132 134.872 403.862 135.082 403.516 135.236C403.169 135.39 402.767 135.467 402.307 135.467C401.704 135.467 401.205 135.336 400.81 135.074C400.415 134.813 400.165 134.43 400.06 133.927L400.922 133.712C401.004 134.03 401.159 134.269 401.387 134.428C401.618 134.587 401.92 134.666 402.292 134.666C402.715 134.666 403.051 134.577 403.3 134.397C403.552 134.215 403.677 133.997 403.677 133.743C403.677 133.537 403.606 133.365 403.462 133.227C403.318 133.086 403.098 132.981 402.8 132.911L401.815 132.68C401.273 132.552 400.876 132.353 400.622 132.084C400.37 131.812 400.244 131.472 400.244 131.064C400.244 130.73 400.338 130.435 400.525 130.179C400.715 129.922 400.973 129.721 401.299 129.574C401.627 129.428 401.999 129.355 402.415 129.355C403 129.355 403.459 129.483 403.793 129.74C404.129 129.997 404.368 130.335 404.509 130.756ZM408.386 135.467C407.852 135.467 407.384 135.34 406.981 135.086C406.58 134.832 406.267 134.476 406.042 134.02C405.818 133.563 405.707 133.029 405.707 132.419C405.707 131.803 405.818 131.265 406.042 130.806C406.267 130.347 406.58 129.99 406.981 129.736C407.384 129.482 407.852 129.355 408.386 129.355C408.919 129.355 409.386 129.482 409.786 129.736C410.189 129.99 410.502 130.347 410.726 130.806C410.951 131.265 411.064 131.803 411.064 132.419C411.064 133.029 410.951 133.563 410.726 134.02C410.502 134.476 410.189 134.832 409.786 135.086C409.386 135.34 408.919 135.467 408.386 135.467ZM408.386 134.651C408.791 134.651 409.124 134.547 409.386 134.339C409.648 134.131 409.842 133.858 409.967 133.519C410.093 133.181 410.156 132.814 410.156 132.419C410.156 132.024 410.093 131.655 409.967 131.314C409.842 130.973 409.648 130.697 409.386 130.487C409.124 130.276 408.791 130.171 408.386 130.171C407.98 130.171 407.647 130.276 407.385 130.487C407.123 130.697 406.929 130.973 406.804 131.314C406.678 131.655 406.615 132.024 406.615 132.419C406.615 132.814 406.678 133.181 406.804 133.519C406.929 133.858 407.123 134.131 407.385 134.339C407.647 134.547 407.98 134.651 408.386 134.651ZM413.359 131.787V135.344H412.451V129.432H413.328V130.356H413.405C413.544 130.056 413.754 129.814 414.036 129.632C414.319 129.447 414.683 129.355 415.13 129.355C415.53 129.355 415.88 129.437 416.18 129.601C416.48 129.763 416.714 130.009 416.881 130.34C417.048 130.669 417.131 131.084 417.131 131.587V135.344H416.223V131.649C416.223 131.184 416.102 130.823 415.861 130.564C415.62 130.302 415.289 130.171 414.868 130.171C414.578 130.171 414.319 130.234 414.09 130.36C413.865 130.485 413.686 130.669 413.555 130.91C413.425 131.151 413.359 131.444 413.359 131.787Z" fill="#404040"/>
<rect x="229.106" y="114.732" width="221.14" height="34.1937" rx="4.45231" stroke="#D9D8D9" stroke-width="0.729316"/>
<path d="M229.511 169.723V162.716H230.568V168.813H233.743V169.723H229.511ZM234.867 169.723V164.468H235.89V169.723H234.867ZM235.383 163.657C235.205 163.657 235.053 163.598 234.925 163.479C234.799 163.358 234.737 163.215 234.737 163.048C234.737 162.879 234.799 162.736 234.925 162.617C235.053 162.496 235.205 162.436 235.383 162.436C235.561 162.436 235.713 162.496 235.838 162.617C235.966 162.736 236.03 162.879 236.03 163.048C236.03 163.215 235.966 163.358 235.838 163.479C235.713 163.598 235.561 163.657 235.383 163.657ZM241.761 164.468L239.856 169.723H238.761L236.852 164.468H237.95L239.281 168.512H239.336L240.663 164.468H241.761ZM244.809 169.829C244.291 169.829 243.845 169.718 243.471 169.497C243.099 169.273 242.812 168.96 242.609 168.556C242.408 168.15 242.308 167.675 242.308 167.129C242.308 166.591 242.408 166.117 242.609 165.706C242.812 165.296 243.095 164.975 243.457 164.745C243.822 164.515 244.249 164.399 244.737 164.399C245.033 164.399 245.321 164.448 245.599 164.546C245.877 164.645 246.127 164.798 246.348 165.008C246.569 165.218 246.744 165.491 246.872 165.826C246.999 166.159 247.063 166.564 247.063 167.04V167.403H242.886V166.637H246.061C246.061 166.368 246.006 166.129 245.897 165.922C245.787 165.712 245.633 165.547 245.435 165.426C245.239 165.305 245.008 165.244 244.744 165.244C244.456 165.244 244.205 165.315 243.991 165.456C243.779 165.596 243.615 165.778 243.498 166.004C243.384 166.227 243.327 166.47 243.327 166.733V167.331C243.327 167.683 243.389 167.981 243.512 168.228C243.637 168.474 243.812 168.662 244.035 168.792C244.259 168.92 244.52 168.984 244.819 168.984C245.013 168.984 245.189 168.956 245.349 168.902C245.509 168.845 245.647 168.76 245.763 168.648C245.879 168.537 245.968 168.399 246.03 168.234L246.998 168.409C246.921 168.694 246.781 168.944 246.581 169.158C246.382 169.37 246.133 169.536 245.832 169.654C245.533 169.771 245.192 169.829 244.809 169.829ZM250.83 169.723V162.716H253.327C253.872 162.716 254.324 162.815 254.682 163.014C255.04 163.212 255.308 163.484 255.486 163.828C255.664 164.17 255.753 164.556 255.753 164.984C255.753 165.415 255.663 165.803 255.483 166.148C255.305 166.49 255.036 166.761 254.675 166.962C254.317 167.16 253.867 167.259 253.324 167.259H251.606V166.363H253.228C253.572 166.363 253.852 166.304 254.066 166.185C254.281 166.064 254.438 165.9 254.538 165.693C254.639 165.485 254.689 165.249 254.689 164.984C254.689 164.72 254.639 164.485 254.538 164.28C254.438 164.074 254.279 163.914 254.063 163.797C253.848 163.681 253.566 163.623 253.214 163.623H251.887V169.723H250.83ZM256.91 169.723V164.468H257.899V165.303H257.953C258.049 165.02 258.218 164.797 258.46 164.635C258.704 164.471 258.98 164.389 259.288 164.389C259.352 164.389 259.427 164.391 259.514 164.396C259.602 164.4 259.672 164.406 259.722 164.413V165.391C259.681 165.38 259.608 165.368 259.503 165.354C259.398 165.338 259.293 165.33 259.189 165.33C258.947 165.33 258.731 165.381 258.542 165.484C258.355 165.584 258.207 165.724 258.097 165.905C257.988 166.083 257.933 166.286 257.933 166.514V169.723H256.91ZM262.684 169.829C262.166 169.829 261.72 169.718 261.346 169.497C260.975 169.273 260.687 168.96 260.484 168.556C260.284 168.15 260.183 167.675 260.183 167.129C260.183 166.591 260.284 166.117 260.484 165.706C260.687 165.296 260.97 164.975 261.333 164.745C261.698 164.515 262.124 164.399 262.612 164.399C262.909 164.399 263.196 164.448 263.474 164.546C263.753 164.645 264.002 164.798 264.224 165.008C264.445 165.218 264.619 165.491 264.747 165.826C264.875 166.159 264.939 166.564 264.939 167.04V167.403H260.761V166.637H263.936C263.936 166.368 263.881 166.129 263.772 165.922C263.663 165.712 263.509 165.547 263.31 165.426C263.114 165.305 262.884 165.244 262.619 165.244C262.332 165.244 262.081 165.315 261.866 165.456C261.654 165.596 261.49 165.778 261.374 166.004C261.26 166.227 261.203 166.47 261.203 166.733V167.331C261.203 167.683 261.264 167.981 261.387 168.228C261.513 168.474 261.687 168.662 261.911 168.792C262.134 168.92 262.396 168.984 262.694 168.984C262.888 168.984 263.065 168.956 263.225 168.902C263.384 168.845 263.522 168.76 263.639 168.648C263.755 168.537 263.844 168.399 263.905 168.234L264.874 168.409C264.796 168.694 264.657 168.944 264.456 169.158C264.258 169.37 264.008 169.536 263.707 169.654C263.408 169.771 263.067 169.829 262.684 169.829ZM270.418 164.468L268.513 169.723H267.418L265.509 164.468H266.607L267.938 168.512H267.993L269.32 164.468H270.418ZM271.38 169.723V164.468H272.403V169.723H271.38ZM271.896 163.657C271.718 163.657 271.566 163.598 271.438 163.479C271.312 163.358 271.25 163.215 271.25 163.048C271.25 162.879 271.312 162.736 271.438 162.617C271.566 162.496 271.718 162.436 271.896 162.436C272.074 162.436 272.226 162.496 272.351 162.617C272.479 162.736 272.543 162.879 272.543 163.048C272.543 163.215 272.479 163.358 272.351 163.479C272.226 163.598 272.074 163.657 271.896 163.657ZM276.044 169.829C275.526 169.829 275.08 169.718 274.706 169.497C274.334 169.273 274.047 168.96 273.844 168.556C273.643 168.15 273.543 167.675 273.543 167.129C273.543 166.591 273.643 166.117 273.844 165.706C274.047 165.296 274.33 164.975 274.692 164.745C275.057 164.515 275.484 164.399 275.972 164.399C276.268 164.399 276.556 164.448 276.834 164.546C277.112 164.645 277.362 164.798 277.583 165.008C277.804 165.218 277.979 165.491 278.107 165.826C278.234 166.159 278.298 166.564 278.298 167.04V167.403H274.121V166.637H277.296C277.296 166.368 277.241 166.129 277.132 165.922C277.022 165.712 276.868 165.547 276.67 165.426C276.474 165.305 276.243 165.244 275.979 165.244C275.691 165.244 275.44 165.315 275.226 165.456C275.014 165.596 274.85 165.778 274.733 166.004C274.619 166.227 274.562 166.47 274.562 166.733V167.331C274.562 167.683 274.624 167.981 274.747 168.228C274.872 168.474 275.047 168.662 275.27 168.792C275.494 168.92 275.755 168.984 276.054 168.984C276.248 168.984 276.425 168.956 276.584 168.902C276.744 168.845 276.882 168.76 276.998 168.648C277.114 168.537 277.203 168.399 277.265 168.234L278.233 168.409C278.156 168.694 278.016 168.944 277.816 169.158C277.617 169.37 277.368 169.536 277.067 169.654C276.768 169.771 276.427 169.829 276.044 169.829ZM280.563 169.723L279.017 164.468H280.074L281.103 168.327H281.155L282.188 164.468H283.245L284.271 168.31H284.323L285.346 164.468H286.403L284.86 169.723H283.816L282.749 165.929H282.67L281.603 169.723H280.563Z" fill="#333333"/>
<path d="M243.997 196.247V204.129H243.043V197.247H242.997L241.072 198.525V197.555L243.043 196.247H243.997ZM248.835 204.237C248.255 204.237 247.761 204.079 247.353 203.763C246.945 203.445 246.634 202.985 246.418 202.382C246.203 201.776 246.095 201.045 246.095 200.188C246.095 199.336 246.203 198.608 246.418 198.005C246.636 197.4 246.949 196.938 247.357 196.62C247.768 196.299 248.26 196.139 248.835 196.139C249.41 196.139 249.901 196.299 250.309 196.62C250.72 196.938 251.033 197.4 251.248 198.005C251.466 198.608 251.575 199.336 251.575 200.188C251.575 201.045 251.468 201.776 251.252 202.382C251.037 202.985 250.725 203.445 250.317 203.763C249.909 204.079 249.415 204.237 248.835 204.237ZM248.835 203.39C249.41 203.39 249.856 203.113 250.175 202.559C250.493 202.004 250.652 201.214 250.652 200.188C250.652 199.505 250.579 198.924 250.432 198.444C250.289 197.964 250.081 197.599 249.809 197.347C249.539 197.096 249.215 196.97 248.835 196.97C248.266 196.97 247.82 197.251 247.5 197.813C247.179 198.372 247.019 199.164 247.019 200.188C247.019 200.87 247.09 201.45 247.234 201.927C247.378 202.405 247.584 202.768 247.854 203.017C248.126 203.265 248.453 203.39 248.835 203.39ZM255.609 204.237C255.029 204.237 254.535 204.079 254.127 203.763C253.719 203.445 253.408 202.985 253.192 202.382C252.976 201.776 252.869 201.045 252.869 200.188C252.869 199.336 252.976 198.608 253.192 198.005C253.41 197.4 253.723 196.938 254.131 196.62C254.542 196.299 255.034 196.139 255.609 196.139C256.184 196.139 256.675 196.299 257.083 196.62C257.494 196.938 257.807 197.4 258.022 198.005C258.24 198.608 258.349 199.336 258.349 200.188C258.349 201.045 258.242 201.776 258.026 202.382C257.811 202.985 257.499 203.445 257.091 203.763C256.683 204.079 256.189 204.237 255.609 204.237ZM255.609 203.39C256.184 203.39 256.63 203.113 256.948 202.559C257.267 202.004 257.426 201.214 257.426 200.188C257.426 199.505 257.353 198.924 257.206 198.444C257.063 197.964 256.855 197.599 256.583 197.347C256.313 197.096 255.989 196.97 255.609 196.97C255.039 196.97 254.594 197.251 254.273 197.813C253.953 198.372 253.792 199.164 253.792 200.188C253.792 200.87 253.864 201.45 254.008 201.927C254.152 202.405 254.358 202.768 254.628 203.017C254.9 203.265 255.227 203.39 255.609 203.39ZM262.383 204.237C261.803 204.237 261.309 204.079 260.901 203.763C260.493 203.445 260.181 202.985 259.966 202.382C259.75 201.776 259.643 201.045 259.643 200.188C259.643 199.336 259.75 198.608 259.966 198.005C260.184 197.4 260.497 196.938 260.905 196.62C261.315 196.299 261.808 196.139 262.383 196.139C262.958 196.139 263.449 196.299 263.857 196.62C264.267 196.938 264.581 197.4 264.796 198.005C265.014 198.608 265.123 199.336 265.123 200.188C265.123 201.045 265.015 201.776 264.8 202.382C264.584 202.985 264.273 203.445 263.865 203.763C263.457 204.079 262.963 204.237 262.383 204.237ZM262.383 203.39C262.958 203.39 263.404 203.113 263.722 202.559C264.04 202.004 264.199 201.214 264.199 200.188C264.199 199.505 264.126 198.924 263.98 198.444C263.836 197.964 263.629 197.599 263.357 197.347C263.087 197.096 262.763 196.97 262.383 196.97C261.813 196.97 261.368 197.251 261.047 197.813C260.727 198.372 260.566 199.164 260.566 200.188C260.566 200.87 260.638 201.45 260.782 201.927C260.925 202.405 261.132 202.768 261.401 203.017C261.673 203.265 262.001 203.39 262.383 203.39Z" fill="#404040"/>
<rect x="229.106" y="183.517" width="221.14" height="34.1937" rx="4.45231" stroke="#D9D8D9" stroke-width="0.729316"/>
</g>
<defs>
<filter id="filter0_d_5199_19022" x="7.13184" y="39.9297" width="274.912" height="182.176" filterUnits="userSpaceOnUse" color-interpolation-filters="sRGB">
<feFlood flood-opacity="0" result="BackgroundImageFix"/>
<feColorMatrix in="SourceAlpha" type="matrix" values="0 0 0 0 0 0 0 0 0 0 0 0 0 0 0 0 0 0 127 0" result="hardAlpha"/>
<feOffset dy="4"/>
<feGaussianBlur stdDeviation="4"/>
<feComposite in2="hardAlpha" operator="out"/>
<feColorMatrix type="matrix" values="0 0 0 0 0 0 0 0 0 0 0 0 0 0 0 0 0 0 0.1 0"/>
<feBlend mode="normal" in2="BackgroundImageFix" result="effect1_dropShadow_5199_19022"/>
<feBlend mode="normal" in="SourceGraphic" in2="effect1_dropShadow_5199_19022" result="shape"/>
</filter>
<filter id="filter1_d_5199_19022" x="202.22" y="66.418" width="274.912" height="182.176" filterUnits="userSpaceOnUse" color-interpolation-filters="sRGB">
<feFlood flood-opacity="0" result="BackgroundImageFix"/>
<feColorMatrix in="SourceAlpha" type="matrix" values="0 0 0 0 0 0 0 0 0 0 0 0 0 0 0 0 0 0 127 0" result="hardAlpha"/>
<feOffset dy="4"/>
<feGaussianBlur stdDeviation="4"/>
<feComposite in2="hardAlpha" operator="out"/>
<feColorMatrix type="matrix" values="0 0 0 0 0 0 0 0 0 0 0 0 0 0 0 0 0 0 0.1 0"/>
<feBlend mode="normal" in2="BackgroundImageFix" result="effect1_dropShadow_5199_19022"/>
<feBlend mode="normal" in="SourceGraphic" in2="effect1_dropShadow_5199_19022" result="shape"/>
</filter>
</defs>
</svg>
