<svg width="495" height="293" viewBox="0 0 495 293" fill="none" xmlns="http://www.w3.org/2000/svg">
<path fill-rule="evenodd" clip-rule="evenodd" d="M230.939 16.0019C336.527 15.6433 395.547 66.4385 428.473 113.632C461.818 161.425 479.221 219.005 393.595 249.135C305.517 280.127 183.343 262.542 97.9266 229.943C26.1568 202.552 16.0495 156.671 41.9922 114.944C71.2405 67.9005 126.745 16.3557 230.939 16.0019Z" fill="#FCF7FF"/>
<g filter="url(#filter0_d_5199_19214)">
<rect x="68.0957" y="75.6836" width="400.019" height="176.234" rx="13.366" fill="white"/>
<path d="M101.994 106.724H99.9324C99.8531 106.284 99.7055 105.896 99.4897 105.562C99.2739 105.227 99.0096 104.943 98.6968 104.709C98.3841 104.476 98.0339 104.3 97.6463 104.181C97.2631 104.062 96.8557 104.002 96.424 104.002C95.6444 104.002 94.9462 104.198 94.3296 104.59C93.7173 104.982 93.2328 105.557 92.876 106.315C92.5236 107.072 92.3475 107.997 92.3475 109.09C92.3475 110.191 92.5236 111.12 92.876 111.878C93.2328 112.636 93.7195 113.208 94.3362 113.596C94.9528 113.983 95.6466 114.177 96.4174 114.177C96.8447 114.177 97.2499 114.12 97.6331 114.005C98.0207 113.887 98.3709 113.713 98.6836 113.484C98.9964 113.254 99.2606 112.975 99.4765 112.644C99.6967 112.31 99.8487 111.926 99.9324 111.495L101.994 111.501C101.884 112.167 101.67 112.779 101.353 113.338C101.04 113.893 100.637 114.373 100.144 114.779C99.6549 115.179 99.0955 115.49 98.4656 115.71C97.8357 115.93 97.1486 116.04 96.4042 116.04C95.2325 116.04 94.1886 115.763 93.2724 115.208C92.3563 114.649 91.6339 113.849 91.1053 112.81C90.5812 111.77 90.3191 110.53 90.3191 109.09C90.3191 107.645 90.5834 106.405 91.1119 105.37C91.6405 104.331 92.3629 103.533 93.279 102.978C94.1952 102.419 95.2369 102.139 96.4042 102.139C97.1222 102.139 97.7917 102.243 98.4127 102.45C99.0382 102.652 99.5998 102.952 100.098 103.348C100.595 103.74 101.007 104.22 101.333 104.789C101.659 105.352 101.879 105.998 101.994 106.724ZM104.278 115.855V105.707H106.188V107.319H106.293C106.478 106.773 106.804 106.343 107.271 106.031C107.742 105.714 108.275 105.555 108.87 105.555C108.993 105.555 109.139 105.559 109.306 105.568C109.478 105.577 109.612 105.588 109.709 105.601V107.491C109.63 107.469 109.489 107.445 109.286 107.418C109.084 107.387 108.881 107.372 108.678 107.372C108.212 107.372 107.795 107.471 107.43 107.669C107.069 107.863 106.782 108.134 106.571 108.482C106.359 108.826 106.254 109.218 106.254 109.658V115.855H104.278ZM115.429 116.06C114.429 116.06 113.568 115.847 112.846 115.419C112.128 114.988 111.573 114.382 111.181 113.602C110.793 112.818 110.599 111.9 110.599 110.847C110.599 109.808 110.793 108.892 111.181 108.099C111.573 107.306 112.119 106.687 112.819 106.242C113.524 105.797 114.348 105.575 115.291 105.575C115.863 105.575 116.418 105.67 116.955 105.859C117.493 106.048 117.975 106.346 118.402 106.751C118.83 107.156 119.167 107.683 119.413 108.33C119.66 108.973 119.783 109.755 119.783 110.676V111.376H111.716V109.896H117.847C117.847 109.376 117.742 108.916 117.53 108.515C117.319 108.11 117.022 107.79 116.638 107.557C116.26 107.324 115.815 107.207 115.304 107.207C114.749 107.207 114.264 107.343 113.85 107.616C113.441 107.885 113.123 108.238 112.899 108.674C112.679 109.105 112.568 109.574 112.568 110.081V111.237C112.568 111.915 112.687 112.492 112.925 112.968C113.167 113.444 113.504 113.807 113.936 114.058C114.368 114.305 114.872 114.428 115.449 114.428C115.823 114.428 116.165 114.375 116.473 114.27C116.782 114.16 117.048 113.997 117.273 113.781C117.497 113.565 117.669 113.299 117.788 112.981L119.658 113.318C119.508 113.869 119.239 114.351 118.852 114.765C118.469 115.175 117.986 115.494 117.405 115.723C116.828 115.948 116.169 116.06 115.429 116.06ZM124.929 116.08C124.285 116.08 123.704 115.961 123.184 115.723C122.665 115.481 122.253 115.131 121.949 114.673C121.649 114.215 121.5 113.653 121.5 112.988C121.5 112.415 121.61 111.944 121.83 111.574C122.05 111.204 122.347 110.911 122.722 110.695C123.096 110.48 123.515 110.317 123.977 110.206C124.44 110.096 124.911 110.013 125.391 109.955C125.999 109.885 126.492 109.828 126.871 109.784C127.25 109.735 127.525 109.658 127.697 109.552C127.869 109.447 127.955 109.275 127.955 109.037V108.991C127.955 108.414 127.792 107.967 127.466 107.649C127.144 107.332 126.664 107.174 126.025 107.174C125.36 107.174 124.836 107.321 124.453 107.616C124.074 107.907 123.812 108.231 123.667 108.588L121.81 108.165C122.03 107.548 122.352 107.05 122.775 106.672C123.202 106.288 123.693 106.011 124.248 105.839C124.803 105.663 125.387 105.575 125.999 105.575C126.404 105.575 126.834 105.623 127.287 105.72C127.745 105.813 128.173 105.985 128.569 106.236C128.97 106.487 129.298 106.846 129.554 107.313C129.809 107.775 129.937 108.376 129.937 109.116V115.855H128.007V114.468H127.928C127.8 114.723 127.609 114.975 127.353 115.221C127.098 115.468 126.77 115.673 126.369 115.836C125.968 115.999 125.488 116.08 124.929 116.08ZM125.358 114.494C125.904 114.494 126.371 114.386 126.759 114.171C127.151 113.955 127.448 113.673 127.651 113.325C127.858 112.973 127.961 112.596 127.961 112.195V110.887C127.891 110.957 127.754 111.023 127.552 111.085C127.353 111.142 127.127 111.193 126.871 111.237C126.616 111.277 126.367 111.314 126.124 111.349C125.882 111.38 125.68 111.407 125.517 111.429C125.133 111.477 124.783 111.559 124.466 111.673C124.153 111.788 123.902 111.953 123.713 112.169C123.528 112.38 123.435 112.662 123.435 113.014C123.435 113.503 123.616 113.873 123.977 114.124C124.338 114.371 124.799 114.494 125.358 114.494ZM137.305 105.707V107.293H131.762V105.707H137.305ZM133.249 103.276H135.224V112.876C135.224 113.259 135.281 113.547 135.396 113.741C135.51 113.931 135.658 114.061 135.839 114.131C136.023 114.197 136.224 114.23 136.44 114.23C136.598 114.23 136.737 114.219 136.856 114.197C136.975 114.175 137.067 114.157 137.133 114.144L137.49 115.776C137.376 115.82 137.213 115.864 137.001 115.908C136.79 115.957 136.526 115.983 136.208 115.988C135.689 115.996 135.204 115.904 134.755 115.71C134.306 115.516 133.942 115.217 133.665 114.812C133.387 114.406 133.249 113.898 133.249 113.285V103.276ZM143.755 116.06C142.756 116.06 141.894 115.847 141.172 115.419C140.454 114.988 139.899 114.382 139.507 113.602C139.119 112.818 138.926 111.9 138.926 110.847C138.926 109.808 139.119 108.892 139.507 108.099C139.899 107.306 140.445 106.687 141.146 106.242C141.85 105.797 142.674 105.575 143.617 105.575C144.189 105.575 144.744 105.67 145.282 105.859C145.819 106.048 146.301 106.346 146.729 106.751C147.156 107.156 147.493 107.683 147.739 108.33C147.986 108.973 148.109 109.755 148.109 110.676V111.376H140.042V109.896H146.174C146.174 109.376 146.068 108.916 145.856 108.515C145.645 108.11 145.348 107.79 144.965 107.557C144.586 107.324 144.141 107.207 143.63 107.207C143.075 107.207 142.59 107.343 142.176 107.616C141.767 107.885 141.45 108.238 141.225 108.674C141.005 109.105 140.895 109.574 140.895 110.081V111.237C140.895 111.915 141.013 112.492 141.251 112.968C141.494 113.444 141.831 113.807 142.262 114.058C142.694 114.305 143.198 114.428 143.775 114.428C144.15 114.428 144.491 114.375 144.799 114.27C145.108 114.16 145.374 113.997 145.599 113.781C145.823 113.565 145.995 113.299 146.114 112.981L147.984 113.318C147.834 113.869 147.566 114.351 147.178 114.765C146.795 115.175 146.312 115.494 145.731 115.723C145.154 115.948 144.495 116.06 143.755 116.06ZM155.384 115.855V102.324H163.775V104.082H157.425V108.204H163.174V109.955H157.425V115.855H155.384ZM169.657 116.06C168.705 116.06 167.875 115.842 167.166 115.406C166.457 114.97 165.906 114.36 165.514 113.576C165.122 112.792 164.926 111.876 164.926 110.827C164.926 109.775 165.122 108.854 165.514 108.066C165.906 107.277 166.457 106.665 167.166 106.229C167.875 105.793 168.705 105.575 169.657 105.575C170.608 105.575 171.439 105.793 172.148 106.229C172.857 106.665 173.407 107.277 173.799 108.066C174.191 108.854 174.387 109.775 174.387 110.827C174.387 111.876 174.191 112.792 173.799 113.576C173.407 114.36 172.857 114.97 172.148 115.406C171.439 115.842 170.608 116.06 169.657 116.06ZM169.663 114.402C170.28 114.402 170.791 114.239 171.196 113.913C171.601 113.587 171.901 113.153 172.095 112.611C172.293 112.07 172.392 111.473 172.392 110.821C172.392 110.173 172.293 109.579 172.095 109.037C171.901 108.491 171.601 108.053 171.196 107.722C170.791 107.392 170.28 107.227 169.663 107.227C169.042 107.227 168.527 107.392 168.117 107.722C167.712 108.053 167.41 108.491 167.212 109.037C167.018 109.579 166.921 110.173 166.921 110.821C166.921 111.473 167.018 112.07 167.212 112.611C167.41 113.153 167.712 113.587 168.117 113.913C168.527 114.239 169.042 114.402 169.663 114.402ZM176.593 115.855V105.707H178.502V107.319H178.608C178.793 106.773 179.119 106.343 179.586 106.031C180.057 105.714 180.59 105.555 181.184 105.555C181.308 105.555 181.453 105.559 181.621 105.568C181.792 105.577 181.927 105.588 182.024 105.601V107.491C181.944 107.469 181.803 107.445 181.601 107.418C181.398 107.387 181.195 107.372 180.993 107.372C180.526 107.372 180.11 107.471 179.744 107.669C179.383 107.863 179.097 108.134 178.885 108.482C178.674 108.826 178.568 109.218 178.568 109.658V115.855H176.593ZM183.733 115.855V105.707H185.629V107.359H185.755C185.966 106.799 186.312 106.363 186.792 106.051C187.272 105.733 187.847 105.575 188.517 105.575C189.195 105.575 189.763 105.733 190.221 106.051C190.684 106.368 191.025 106.804 191.245 107.359H191.351C191.593 106.817 191.979 106.385 192.507 106.064C193.036 105.738 193.666 105.575 194.397 105.575C195.318 105.575 196.069 105.863 196.65 106.44C197.236 107.017 197.529 107.887 197.529 109.05V115.855H195.553V109.235C195.553 108.548 195.366 108.05 194.992 107.742C194.617 107.434 194.17 107.279 193.65 107.279C193.007 107.279 192.507 107.478 192.151 107.874C191.794 108.266 191.615 108.77 191.615 109.387V115.855H189.646V109.11C189.646 108.559 189.475 108.116 189.131 107.782C188.788 107.447 188.34 107.279 187.79 107.279C187.416 107.279 187.07 107.379 186.753 107.577C186.44 107.771 186.187 108.042 185.993 108.389C185.803 108.737 185.709 109.14 185.709 109.599V115.855H183.733ZM206.605 111.647V105.707H208.587V115.855H206.645V114.098H206.539C206.306 114.64 205.931 115.091 205.416 115.452C204.905 115.809 204.268 115.988 203.506 115.988C202.855 115.988 202.278 115.844 201.775 115.558C201.278 115.267 200.886 114.838 200.599 114.27C200.317 113.702 200.177 112.999 200.177 112.162V105.707H202.152V111.924C202.152 112.616 202.344 113.166 202.727 113.576C203.11 113.986 203.608 114.19 204.22 114.19C204.59 114.19 204.958 114.098 205.323 113.913C205.693 113.728 206 113.448 206.242 113.074C206.488 112.699 206.61 112.224 206.605 111.647ZM213.217 102.324V115.855H211.242V102.324H213.217ZM218.828 116.08C218.185 116.08 217.604 115.961 217.084 115.723C216.564 115.481 216.152 115.131 215.848 114.673C215.549 114.215 215.399 113.653 215.399 112.988C215.399 112.415 215.509 111.944 215.73 111.574C215.95 111.204 216.247 110.911 216.622 110.695C216.996 110.48 217.414 110.317 217.877 110.206C218.339 110.096 218.811 110.013 219.291 109.955C219.899 109.885 220.392 109.828 220.771 109.784C221.15 109.735 221.425 109.658 221.597 109.552C221.768 109.447 221.854 109.275 221.854 109.037V108.991C221.854 108.414 221.691 107.967 221.365 107.649C221.044 107.332 220.564 107.174 219.925 107.174C219.26 107.174 218.736 107.321 218.353 107.616C217.974 107.907 217.712 108.231 217.566 108.588L215.71 108.165C215.93 107.548 216.252 107.05 216.674 106.672C217.102 106.288 217.593 106.011 218.148 105.839C218.703 105.663 219.286 105.575 219.899 105.575C220.304 105.575 220.733 105.623 221.187 105.72C221.645 105.813 222.072 105.985 222.469 106.236C222.87 106.487 223.198 106.846 223.453 107.313C223.709 107.775 223.836 108.376 223.836 109.116V115.855H221.907V114.468H221.828C221.7 114.723 221.509 114.975 221.253 115.221C220.998 115.468 220.669 115.673 220.269 115.836C219.868 115.999 219.388 116.08 218.828 116.08ZM219.258 114.494C219.804 114.494 220.271 114.386 220.658 114.171C221.05 113.955 221.348 113.673 221.55 113.325C221.757 112.973 221.861 112.596 221.861 112.195V110.887C221.79 110.957 221.654 111.023 221.451 111.085C221.253 111.142 221.026 111.193 220.771 111.237C220.515 111.277 220.266 111.314 220.024 111.349C219.782 111.38 219.579 111.407 219.416 111.429C219.033 111.477 218.683 111.559 218.366 111.673C218.053 111.788 217.802 111.953 217.613 112.169C217.428 112.38 217.335 112.662 217.335 113.014C217.335 113.503 217.516 113.873 217.877 114.124C218.238 114.371 218.698 114.494 219.258 114.494Z" fill="#333333"/>
<path d="M101.935 155.424V146.973H103.369V155.424H101.935ZM98.4267 151.916V150.481H106.878V151.916H98.4267Z" fill="#404040"/>
<rect x="89.832" y="136.442" width="25.7576" height="26.7576" rx="3.15771" stroke="#D9D8D9" stroke-width="1.12679"/>
<path d="M141.927 149.995V151.403H136.191V149.995H141.927Z" fill="#404040"/>
<rect x="126.019" y="136.442" width="26.7815" height="26.7576" rx="3.15771" stroke="#D9D8D9" stroke-width="1.12679"/>
<path d="M179.139 142.594L174.914 158.292H173.531L177.756 142.594H179.139Z" fill="#404040"/>
<rect x="163.23" y="136.442" width="26.7815" height="26.7576" rx="3.15771" stroke="#D9D8D9" stroke-width="1.12679"/>
<path d="M212.725 150.584L212.827 147.767L210.445 149.278L209.831 148.202L212.34 146.896L209.831 145.59L210.445 144.515L212.827 146.026L212.725 143.209H213.954L213.851 146.026L216.233 144.515L216.848 145.59L214.338 146.896L216.848 148.202L216.233 149.278L213.851 147.767L213.954 150.584H212.725Z" fill="#404040"/>
<rect x="200.441" y="136.442" width="26.7815" height="26.7576" rx="3.15771" stroke="#D9D8D9" stroke-width="1.12679"/>
<path d="M251.584 153.862V153.17C251.584 152.692 251.682 152.255 251.879 151.858C252.079 151.457 252.37 151.137 252.749 150.898C253.133 150.654 253.599 150.533 254.145 150.533C254.7 150.533 255.165 150.654 255.541 150.898C255.916 151.137 256.2 151.457 256.392 151.858C256.584 152.255 256.68 152.692 256.68 153.17V153.862C256.68 154.34 256.582 154.78 256.386 155.181C256.194 155.578 255.908 155.898 255.528 156.141C255.152 156.38 254.691 156.5 254.145 156.5C253.59 156.5 253.123 156.38 252.743 156.141C252.363 155.898 252.075 155.578 251.879 155.181C251.682 154.78 251.584 154.34 251.584 153.862ZM252.89 153.17V153.862C252.89 154.259 252.984 154.615 253.172 154.931C253.36 155.243 253.684 155.398 254.145 155.398C254.593 155.398 254.909 155.243 255.093 154.931C255.28 154.615 255.374 154.259 255.374 153.862V153.17C255.374 152.773 255.285 152.419 255.105 152.108C254.926 151.792 254.606 151.634 254.145 151.634C253.697 151.634 253.375 151.792 253.178 152.108C252.986 152.419 252.89 152.773 252.89 153.17ZM245.054 146.358V145.667C245.054 145.189 245.152 144.751 245.348 144.355C245.549 143.953 245.839 143.633 246.219 143.394C246.603 143.151 247.068 143.029 247.615 143.029C248.17 143.029 248.635 143.151 249.01 143.394C249.386 143.633 249.67 143.953 249.862 144.355C250.054 144.751 250.15 145.189 250.15 145.667V146.358C250.15 146.836 250.052 147.276 249.856 147.677C249.663 148.074 249.378 148.394 248.998 148.638C248.622 148.877 248.161 148.996 247.615 148.996C247.06 148.996 246.593 148.877 246.213 148.638C245.833 148.394 245.545 148.074 245.348 147.677C245.152 147.276 245.054 146.836 245.054 146.358ZM246.36 145.667V146.358C246.36 146.755 246.454 147.112 246.642 147.428C246.829 147.739 247.154 147.895 247.615 147.895C248.063 147.895 248.379 147.739 248.562 147.428C248.75 147.112 248.844 146.755 248.844 146.358V145.667C248.844 145.27 248.754 144.916 248.575 144.604C248.396 144.288 248.076 144.13 247.615 144.13C247.167 144.13 246.844 144.288 246.648 144.604C246.456 144.916 246.36 145.27 246.36 145.667ZM245.54 156.32L254.555 143.209H256.015L247 156.32H245.54Z" fill="#404040"/>
<rect x="237.652" y="136.442" width="26.7815" height="26.7576" rx="3.15771" stroke="#D9D8D9" stroke-width="1.12679"/>
<path d="M118.428 193.623V205.801H117.001L110.365 196.239H110.246V205.801H108.772V193.623H110.199L116.859 203.208H116.978V193.623H118.428ZM124.9 205.991C124.075 205.991 123.352 205.795 122.729 205.402C122.111 205.01 121.627 204.461 121.278 203.755C120.933 203.05 120.761 202.225 120.761 201.282C120.761 200.33 120.933 199.5 121.278 198.79C121.627 198.08 122.111 197.529 122.729 197.137C123.352 196.744 124.075 196.548 124.9 196.548C125.724 196.548 126.446 196.744 127.064 197.137C127.686 197.529 128.17 198.08 128.515 198.79C128.864 199.5 129.038 200.33 129.038 201.282C129.038 202.225 128.864 203.05 128.515 203.755C128.17 204.461 127.686 205.01 127.064 205.402C126.446 205.795 125.724 205.991 124.9 205.991ZM124.9 204.73C125.526 204.73 126.041 204.57 126.446 204.249C126.85 203.928 127.149 203.505 127.344 202.982C127.538 202.459 127.635 201.892 127.635 201.282C127.635 200.671 127.538 200.102 127.344 199.575C127.149 199.048 126.85 198.622 126.446 198.296C126.041 197.971 125.526 197.809 124.9 197.809C124.273 197.809 123.758 197.971 123.354 198.296C122.949 198.622 122.65 199.048 122.456 199.575C122.261 200.102 122.164 200.671 122.164 201.282C122.164 201.892 122.261 202.459 122.456 202.982C122.65 203.505 122.949 203.928 123.354 204.249C123.758 204.57 124.273 204.73 124.9 204.73ZM132.203 205.896C131.91 205.896 131.658 205.791 131.448 205.581C131.238 205.371 131.133 205.119 131.133 204.826C131.133 204.532 131.238 204.28 131.448 204.07C131.658 203.86 131.91 203.755 132.203 203.755C132.497 203.755 132.748 203.86 132.958 204.07C133.169 204.28 133.274 204.532 133.274 204.826C133.274 205.02 133.224 205.198 133.125 205.361C133.03 205.523 132.901 205.654 132.738 205.753C132.58 205.848 132.401 205.896 132.203 205.896ZM144.212 205.991C143.387 205.991 142.664 205.795 142.041 205.402C141.423 205.01 140.939 204.461 140.591 203.755C140.246 203.05 140.073 202.225 140.073 201.282C140.073 200.33 140.246 199.5 140.591 198.79C140.939 198.08 141.423 197.529 142.041 197.137C142.664 196.744 143.387 196.548 144.212 196.548C145.036 196.548 145.758 196.744 146.376 197.137C146.999 197.529 147.482 198.08 147.827 198.79C148.176 199.5 148.351 200.33 148.351 201.282C148.351 202.225 148.176 203.05 147.827 203.755C147.482 204.461 146.999 205.01 146.376 205.402C145.758 205.795 145.036 205.991 144.212 205.991ZM144.212 204.73C144.838 204.73 145.354 204.57 145.758 204.249C146.162 203.928 146.462 203.505 146.656 202.982C146.85 202.459 146.947 201.892 146.947 201.282C146.947 200.671 146.85 200.102 146.656 199.575C146.462 199.048 146.162 198.622 145.758 198.296C145.354 197.971 144.838 197.809 144.212 197.809C143.586 197.809 143.07 197.971 142.666 198.296C142.261 198.622 141.962 199.048 141.768 199.575C141.574 200.102 141.477 200.671 141.477 201.282C141.477 201.892 141.574 202.459 141.768 202.982C141.962 203.505 142.261 203.928 142.666 204.249C143.07 204.57 143.586 204.73 144.212 204.73ZM154.56 196.667V197.856H149.636V196.667H154.56ZM151.111 205.801V195.407C151.111 194.883 151.234 194.447 151.48 194.098C151.726 193.749 152.045 193.488 152.437 193.313C152.83 193.139 153.244 193.052 153.68 193.052C154.025 193.052 154.306 193.08 154.524 193.135C154.742 193.191 154.905 193.242 155.012 193.29L154.608 194.503C154.536 194.479 154.437 194.449 154.31 194.413C154.187 194.378 154.025 194.36 153.823 194.36C153.359 194.36 153.024 194.477 152.818 194.711C152.616 194.945 152.515 195.288 152.515 195.74V205.801H151.111ZM160.761 194.931V193.623H169.894V194.931H166.065V205.801H164.59V194.931H160.761ZM171.031 205.801V196.667H172.387V198.047H172.482C172.649 197.595 172.95 197.228 173.386 196.947C173.822 196.665 174.314 196.524 174.861 196.524C174.964 196.524 175.093 196.526 175.247 196.53C175.402 196.534 175.519 196.54 175.598 196.548V197.975C175.551 197.963 175.442 197.946 175.271 197.922C175.105 197.894 174.928 197.88 174.742 197.88C174.298 197.88 173.902 197.973 173.553 198.16C173.208 198.342 172.934 198.596 172.732 198.921C172.534 199.242 172.435 199.609 172.435 200.021V205.801H171.031ZM179.95 206.015C179.371 206.015 178.846 205.906 178.374 205.688C177.902 205.466 177.527 205.147 177.25 204.73C176.972 204.31 176.834 203.803 176.834 203.208C176.834 202.685 176.937 202.261 177.143 201.936C177.349 201.607 177.625 201.349 177.969 201.163C178.314 200.976 178.695 200.838 179.111 200.746C179.531 200.651 179.954 200.576 180.378 200.52C180.933 200.449 181.383 200.396 181.728 200.36C182.076 200.32 182.33 200.255 182.489 200.164C182.651 200.072 182.732 199.914 182.732 199.688V199.64C182.732 199.054 182.572 198.598 182.251 198.273C181.934 197.948 181.452 197.785 180.806 197.785C180.136 197.785 179.611 197.932 179.23 198.225C178.849 198.518 178.582 198.832 178.427 199.165L177.095 198.689C177.333 198.134 177.65 197.702 178.047 197.393C178.447 197.079 178.883 196.861 179.355 196.739C179.831 196.612 180.298 196.548 180.758 196.548C181.052 196.548 181.389 196.584 181.769 196.655C182.154 196.723 182.524 196.863 182.881 197.077C183.242 197.292 183.541 197.615 183.779 198.047C184.017 198.479 184.136 199.058 184.136 199.783V205.801H182.732V204.564H182.661C182.566 204.762 182.407 204.974 182.185 205.2C181.963 205.426 181.668 205.618 181.299 205.777C180.931 205.936 180.481 206.015 179.95 206.015ZM180.164 204.754C180.719 204.754 181.186 204.645 181.567 204.427C181.952 204.209 182.241 203.928 182.435 203.583C182.633 203.238 182.732 202.875 182.732 202.495V201.21C182.673 201.282 182.542 201.347 182.34 201.406C182.142 201.462 181.912 201.511 181.65 201.555C181.393 201.595 181.141 201.63 180.895 201.662C180.653 201.69 180.457 201.714 180.306 201.733C179.942 201.781 179.601 201.858 179.284 201.965C178.97 202.068 178.717 202.225 178.522 202.435C178.332 202.641 178.237 202.923 178.237 203.28C178.237 203.767 178.417 204.136 178.778 204.386C179.143 204.631 179.605 204.754 180.164 204.754ZM193.839 196.667L190.461 205.801H189.034L185.657 196.667H187.179L189.7 203.946H189.795L192.317 196.667H193.839ZM199.193 205.991C198.313 205.991 197.554 205.797 196.916 205.408C196.282 205.016 195.792 204.469 195.447 203.767C195.106 203.061 194.936 202.241 194.936 201.305C194.936 200.37 195.106 199.545 195.447 198.832C195.792 198.114 196.272 197.555 196.886 197.155C197.505 196.75 198.226 196.548 199.051 196.548C199.526 196.548 199.996 196.628 200.46 196.786C200.924 196.945 201.346 197.202 201.727 197.559C202.107 197.912 202.41 198.38 202.636 198.962C202.862 199.545 202.975 200.263 202.975 201.115V201.71H195.935V200.497H201.548C201.548 199.981 201.445 199.521 201.239 199.117C201.037 198.713 200.747 198.394 200.371 198.16C199.998 197.926 199.558 197.809 199.051 197.809C198.492 197.809 198.008 197.948 197.6 198.225C197.196 198.499 196.884 198.855 196.666 199.295C196.448 199.735 196.339 200.207 196.339 200.711V201.519C196.339 202.209 196.458 202.794 196.696 203.274C196.938 203.749 197.273 204.112 197.701 204.362C198.129 204.608 198.627 204.73 199.193 204.73C199.562 204.73 199.895 204.679 200.192 204.576C200.494 204.469 200.753 204.31 200.971 204.1C201.189 203.886 201.358 203.62 201.477 203.303L202.833 203.684C202.69 204.144 202.45 204.548 202.113 204.897C201.776 205.242 201.36 205.511 200.864 205.706C200.369 205.896 199.812 205.991 199.193 205.991ZM206.513 193.623V205.801H205.11V193.623H206.513ZM210.487 193.623V205.801H209.084V193.623H210.487ZM216.887 205.991C216.007 205.991 215.248 205.797 214.609 205.408C213.975 205.016 213.486 204.469 213.141 203.767C212.8 203.061 212.629 202.241 212.629 201.305C212.629 200.37 212.8 199.545 213.141 198.832C213.486 198.114 213.965 197.555 214.58 197.155C215.198 196.75 215.92 196.548 216.744 196.548C217.22 196.548 217.69 196.628 218.153 196.786C218.617 196.945 219.039 197.202 219.42 197.559C219.801 197.912 220.104 198.38 220.33 198.962C220.556 199.545 220.669 200.263 220.669 201.115V201.71H213.628V200.497H219.242C219.242 199.981 219.139 199.521 218.932 199.117C218.73 198.713 218.441 198.394 218.064 198.16C217.692 197.926 217.252 197.809 216.744 197.809C216.185 197.809 215.702 197.948 215.293 198.225C214.889 198.499 214.578 198.855 214.36 199.295C214.142 199.735 214.033 200.207 214.033 200.711V201.519C214.033 202.209 214.152 202.794 214.389 203.274C214.631 203.749 214.966 204.112 215.394 204.362C215.822 204.608 216.32 204.73 216.887 204.73C217.256 204.73 217.589 204.679 217.886 204.576C218.187 204.469 218.447 204.31 218.665 204.1C218.883 203.886 219.051 203.62 219.17 203.303L220.526 203.684C220.383 204.144 220.144 204.548 219.807 204.897C219.47 205.242 219.053 205.511 218.558 205.706C218.062 205.896 217.505 205.991 216.887 205.991ZM222.804 205.801V196.667H224.159V198.047H224.254C224.421 197.595 224.722 197.228 225.158 196.947C225.594 196.665 226.086 196.524 226.633 196.524C226.736 196.524 226.865 196.526 227.019 196.53C227.174 196.534 227.291 196.54 227.37 196.548V197.975C227.323 197.963 227.214 197.946 227.043 197.922C226.877 197.894 226.7 197.88 226.514 197.88C226.07 197.88 225.674 197.973 225.325 198.16C224.98 198.342 224.706 198.596 224.504 198.921C224.306 199.242 224.207 199.609 224.207 200.021V205.801H222.804ZM235.503 198.713L234.243 199.069C234.164 198.859 234.047 198.655 233.892 198.457C233.741 198.255 233.535 198.088 233.274 197.958C233.012 197.827 232.677 197.761 232.269 197.761C231.71 197.761 231.244 197.89 230.871 198.148C230.503 198.402 230.318 198.725 230.318 199.117C230.318 199.466 230.445 199.741 230.699 199.944C230.953 200.146 231.349 200.314 231.888 200.449L233.244 200.782C234.06 200.98 234.669 201.284 235.069 201.692C235.47 202.096 235.67 202.617 235.67 203.256C235.67 203.779 235.519 204.247 235.218 204.659C234.921 205.071 234.504 205.396 233.969 205.634C233.434 205.872 232.812 205.991 232.102 205.991C231.171 205.991 230.4 205.789 229.789 205.385C229.179 204.98 228.792 204.39 228.629 203.613L229.961 203.28C230.088 203.771 230.328 204.14 230.681 204.386C231.038 204.631 231.504 204.754 232.078 204.754C232.732 204.754 233.252 204.615 233.636 204.338C234.025 204.057 234.219 203.72 234.219 203.327C234.219 203.01 234.108 202.744 233.886 202.53C233.664 202.312 233.323 202.15 232.863 202.043L231.341 201.686C230.505 201.488 229.89 201.18 229.498 200.764C229.109 200.344 228.915 199.819 228.915 199.188C228.915 198.673 229.06 198.217 229.349 197.821C229.642 197.424 230.041 197.113 230.544 196.887C231.052 196.661 231.626 196.548 232.269 196.548C233.172 196.548 233.882 196.746 234.397 197.143C234.917 197.539 235.285 198.063 235.503 198.713ZM244.823 200.473L244.918 197.856L242.706 199.26L242.135 198.261L244.466 197.048L242.135 195.835L242.706 194.836L244.918 196.239L244.823 193.623H245.965L245.869 196.239L248.082 194.836L248.652 195.835L246.321 197.048L248.652 198.261L248.082 199.26L245.869 197.856L245.965 200.473H244.823ZM265.564 197.428H264.089C264.002 197.004 263.849 196.631 263.631 196.31C263.417 195.989 263.156 195.72 262.846 195.502C262.541 195.28 262.202 195.113 261.83 195.002C261.457 194.891 261.068 194.836 260.664 194.836C259.927 194.836 259.259 195.022 258.66 195.395C258.065 195.767 257.592 196.316 257.239 197.042C256.89 197.767 256.716 198.657 256.716 199.712C256.716 200.766 256.89 201.656 257.239 202.382C257.592 203.107 258.065 203.656 258.66 204.029C259.259 204.401 259.927 204.588 260.664 204.588C261.068 204.588 261.457 204.532 261.83 204.421C262.202 204.31 262.541 204.146 262.846 203.928C263.156 203.706 263.417 203.434 263.631 203.113C263.849 202.788 264.002 202.415 264.089 201.995H265.564C265.453 202.617 265.251 203.174 264.957 203.666C264.664 204.158 264.299 204.576 263.863 204.921C263.427 205.262 262.938 205.521 262.394 205.7C261.855 205.878 261.278 205.967 260.664 205.967C259.625 205.967 258.702 205.714 257.893 205.206C257.084 204.699 256.448 203.977 255.984 203.042C255.52 202.106 255.289 200.996 255.289 199.712C255.289 198.427 255.52 197.317 255.984 196.382C256.448 195.446 257.084 194.725 257.893 194.217C258.702 193.71 259.625 193.456 260.664 193.456C261.278 193.456 261.855 193.545 262.394 193.724C262.938 193.902 263.427 194.164 263.863 194.509C264.299 194.85 264.664 195.266 264.957 195.757C265.251 196.245 265.453 196.802 265.564 197.428ZM271.467 205.991C270.643 205.991 269.919 205.795 269.297 205.402C268.678 205.01 268.195 204.461 267.846 203.755C267.501 203.05 267.328 202.225 267.328 201.282C267.328 200.33 267.501 199.5 267.846 198.79C268.195 198.08 268.678 197.529 269.297 197.137C269.919 196.744 270.643 196.548 271.467 196.548C272.292 196.548 273.013 196.744 273.632 197.137C274.254 197.529 274.738 198.08 275.082 198.79C275.431 199.5 275.606 200.33 275.606 201.282C275.606 202.225 275.431 203.05 275.082 203.755C274.738 204.461 274.254 205.01 273.632 205.402C273.013 205.795 272.292 205.991 271.467 205.991ZM271.467 204.73C272.093 204.73 272.609 204.57 273.013 204.249C273.417 203.928 273.717 203.505 273.911 202.982C274.105 202.459 274.202 201.892 274.202 201.282C274.202 200.671 274.105 200.102 273.911 199.575C273.717 199.048 273.417 198.622 273.013 198.296C272.609 197.971 272.093 197.809 271.467 197.809C270.841 197.809 270.325 197.971 269.921 198.296C269.517 198.622 269.217 199.048 269.023 199.575C268.829 200.102 268.732 200.671 268.732 201.282C268.732 201.892 268.829 202.459 269.023 202.982C269.217 203.505 269.517 203.928 269.921 204.249C270.325 204.57 270.841 204.73 271.467 204.73ZM284.218 198.713L282.957 199.069C282.878 198.859 282.761 198.655 282.606 198.457C282.455 198.255 282.249 198.088 281.988 197.958C281.726 197.827 281.391 197.761 280.983 197.761C280.424 197.761 279.958 197.89 279.585 198.148C279.217 198.402 279.032 198.725 279.032 199.117C279.032 199.466 279.159 199.741 279.413 199.944C279.667 200.146 280.063 200.314 280.602 200.449L281.958 200.782C282.775 200.98 283.383 201.284 283.783 201.692C284.184 202.096 284.384 202.617 284.384 203.256C284.384 203.779 284.233 204.247 283.932 204.659C283.635 205.071 283.219 205.396 282.683 205.634C282.148 205.872 281.526 205.991 280.816 205.991C279.885 205.991 279.114 205.789 278.503 205.385C277.893 204.98 277.506 204.39 277.344 203.613L278.676 203.28C278.802 203.771 279.042 204.14 279.395 204.386C279.752 204.631 280.218 204.754 280.792 204.754C281.447 204.754 281.966 204.615 282.35 204.338C282.739 204.057 282.933 203.72 282.933 203.327C282.933 203.01 282.822 202.744 282.6 202.53C282.378 202.312 282.037 202.15 281.577 202.043L280.055 201.686C279.219 201.488 278.604 201.18 278.212 200.764C277.823 200.344 277.629 199.819 277.629 199.188C277.629 198.673 277.774 198.217 278.063 197.821C278.356 197.424 278.755 197.113 279.258 196.887C279.766 196.661 280.341 196.548 280.983 196.548C281.887 196.548 282.596 196.746 283.112 197.143C283.631 197.539 284 198.063 284.218 198.713ZM290.469 196.667V197.856H285.735V196.667H290.469ZM287.115 194.479H288.518V203.184C288.518 203.581 288.576 203.878 288.691 204.076C288.81 204.271 288.96 204.401 289.143 204.469C289.329 204.532 289.525 204.564 289.731 204.564C289.886 204.564 290.013 204.556 290.112 204.54C290.211 204.52 290.29 204.504 290.35 204.493L290.635 205.753C290.54 205.789 290.407 205.825 290.237 205.86C290.066 205.9 289.85 205.92 289.589 205.92C289.192 205.92 288.804 205.834 288.423 205.664C288.047 205.494 287.733 205.234 287.484 204.885C287.238 204.536 287.115 204.096 287.115 203.565V194.479ZM297.289 209.226V196.667H298.645V198.118H298.811C298.915 197.96 299.057 197.757 299.24 197.512C299.426 197.262 299.692 197.04 300.036 196.846C300.385 196.647 300.857 196.548 301.452 196.548C302.221 196.548 302.899 196.741 303.485 197.125C304.072 197.51 304.53 198.055 304.859 198.76C305.188 199.466 305.352 200.298 305.352 201.258C305.352 202.225 305.188 203.063 304.859 203.773C304.53 204.479 304.074 205.026 303.491 205.414C302.908 205.799 302.237 205.991 301.475 205.991C300.889 205.991 300.419 205.894 300.066 205.7C299.713 205.501 299.442 205.278 299.251 205.028C299.061 204.774 298.915 204.564 298.811 204.397H298.693V209.226H297.289ZM298.669 201.234C298.669 201.924 298.77 202.532 298.972 203.06C299.174 203.583 299.47 203.993 299.858 204.29C300.247 204.584 300.722 204.73 301.285 204.73C301.872 204.73 302.361 204.576 302.754 204.267C303.15 203.953 303.448 203.533 303.646 203.006C303.848 202.475 303.949 201.884 303.949 201.234C303.949 200.592 303.85 200.013 303.652 199.498C303.458 198.978 303.162 198.568 302.766 198.267C302.373 197.961 301.88 197.809 301.285 197.809C300.714 197.809 300.235 197.954 299.846 198.243C299.458 198.528 299.164 198.929 298.966 199.444C298.768 199.956 298.669 200.552 298.669 201.234ZM311.323 205.991C310.443 205.991 309.683 205.797 309.045 205.408C308.411 205.016 307.921 204.469 307.576 203.767C307.235 203.061 307.065 202.241 307.065 201.305C307.065 200.37 307.235 199.545 307.576 198.832C307.921 198.114 308.401 197.555 309.015 197.155C309.634 196.75 310.355 196.548 311.18 196.548C311.656 196.548 312.125 196.628 312.589 196.786C313.053 196.945 313.475 197.202 313.856 197.559C314.236 197.912 314.54 198.38 314.766 198.962C314.991 199.545 315.104 200.263 315.104 201.115V201.71H308.064V200.497H313.677C313.677 199.981 313.574 199.521 313.368 199.117C313.166 198.713 312.877 198.394 312.5 198.16C312.127 197.926 311.687 197.809 311.18 197.809C310.621 197.809 310.137 197.948 309.729 198.225C309.325 198.499 309.013 198.855 308.795 199.295C308.577 199.735 308.468 200.207 308.468 200.711V201.519C308.468 202.209 308.587 202.794 308.825 203.274C309.067 203.749 309.402 204.112 309.83 204.362C310.258 204.608 310.756 204.73 311.323 204.73C311.691 204.73 312.024 204.679 312.322 204.576C312.623 204.469 312.883 204.31 313.101 204.1C313.319 203.886 313.487 203.62 313.606 203.303L314.962 203.684C314.819 204.144 314.579 204.548 314.242 204.897C313.905 205.242 313.489 205.511 312.994 205.706C312.498 205.896 311.941 205.991 311.323 205.991ZM317.239 205.801V196.667H318.595V198.047H318.69C318.857 197.595 319.158 197.228 319.594 196.947C320.03 196.665 320.522 196.524 321.069 196.524C321.172 196.524 321.301 196.526 321.455 196.53C321.61 196.534 321.727 196.54 321.806 196.548V197.975C321.758 197.963 321.649 197.946 321.479 197.922C321.312 197.894 321.136 197.88 320.95 197.88C320.506 197.88 320.109 197.973 319.76 198.16C319.416 198.342 319.142 198.596 318.94 198.921C318.742 199.242 318.643 199.609 318.643 200.021V205.801H317.239ZM328.179 209.226V196.667H329.535V198.118H329.701C329.804 197.96 329.947 197.757 330.129 197.512C330.316 197.262 330.581 197.04 330.926 196.846C331.275 196.647 331.747 196.548 332.342 196.548C333.111 196.548 333.788 196.741 334.375 197.125C334.962 197.51 335.42 198.055 335.749 198.76C336.078 199.466 336.242 200.298 336.242 201.258C336.242 202.225 336.078 203.063 335.749 203.773C335.42 204.479 334.964 205.026 334.381 205.414C333.798 205.799 333.126 205.991 332.365 205.991C331.779 205.991 331.309 205.894 330.956 205.7C330.603 205.501 330.332 205.278 330.141 205.028C329.951 204.774 329.804 204.564 329.701 204.397H329.582V209.226H328.179ZM329.559 201.234C329.559 201.924 329.66 202.532 329.862 203.06C330.064 203.583 330.359 203.993 330.748 204.29C331.136 204.584 331.612 204.73 332.175 204.73C332.762 204.73 333.251 204.576 333.644 204.267C334.04 203.953 334.338 203.533 334.536 203.006C334.738 202.475 334.839 201.884 334.839 201.234C334.839 200.592 334.74 200.013 334.542 199.498C334.347 198.978 334.052 198.568 333.656 198.267C333.263 197.961 332.77 197.809 332.175 197.809C331.604 197.809 331.124 197.954 330.736 198.243C330.347 198.528 330.054 198.929 329.856 199.444C329.658 199.956 329.559 200.552 329.559 201.234ZM342.212 205.991C341.332 205.991 340.573 205.797 339.935 205.408C339.301 205.016 338.811 204.469 338.466 203.767C338.125 203.061 337.955 202.241 337.955 201.305C337.955 200.37 338.125 199.545 338.466 198.832C338.811 198.114 339.291 197.555 339.905 197.155C340.524 196.75 341.245 196.548 342.07 196.548C342.545 196.548 343.015 196.628 343.479 196.786C343.943 196.945 344.365 197.202 344.746 197.559C345.126 197.912 345.429 198.38 345.655 198.962C345.881 199.545 345.994 200.263 345.994 201.115V201.71H338.954V200.497H344.567C344.567 199.981 344.464 199.521 344.258 199.117C344.056 198.713 343.766 198.394 343.39 198.16C343.017 197.926 342.577 197.809 342.07 197.809C341.511 197.809 341.027 197.948 340.619 198.225C340.214 198.499 339.903 198.855 339.685 199.295C339.467 199.735 339.358 200.207 339.358 200.711V201.519C339.358 202.209 339.477 202.794 339.715 203.274C339.957 203.749 340.292 204.112 340.72 204.362C341.148 204.608 341.646 204.73 342.212 204.73C342.581 204.73 342.914 204.679 343.211 204.576C343.513 204.469 343.772 204.31 343.99 204.1C344.208 203.886 344.377 203.62 344.496 203.303L345.852 203.684C345.709 204.144 345.469 204.548 345.132 204.897C344.795 205.242 344.379 205.511 343.883 205.706C343.388 205.896 342.831 205.991 342.212 205.991ZM348.129 205.801V196.667H349.485V198.047H349.58C349.747 197.595 350.048 197.228 350.484 196.947C350.92 196.665 351.411 196.524 351.959 196.524C352.062 196.524 352.19 196.526 352.345 196.53C352.5 196.534 352.617 196.54 352.696 196.548V197.975C352.648 197.963 352.539 197.946 352.369 197.922C352.202 197.894 352.026 197.88 351.84 197.88C351.396 197.88 350.999 197.973 350.65 198.16C350.305 198.342 350.032 198.596 349.83 198.921C349.632 199.242 349.532 199.609 349.532 200.021V205.801H348.129ZM360.829 198.713L359.568 199.069C359.489 198.859 359.372 198.655 359.218 198.457C359.067 198.255 358.861 198.088 358.599 197.958C358.338 197.827 358.003 197.761 357.594 197.761C357.035 197.761 356.569 197.89 356.197 198.148C355.828 198.402 355.644 198.725 355.644 199.117C355.644 199.466 355.771 199.741 356.024 199.944C356.278 200.146 356.675 200.314 357.214 200.449L358.569 200.782C359.386 200.98 359.995 201.284 360.395 201.692C360.795 202.096 360.996 202.617 360.996 203.256C360.996 203.779 360.845 204.247 360.544 204.659C360.246 205.071 359.83 205.396 359.295 205.634C358.76 205.872 358.137 205.991 357.428 205.991C356.496 205.991 355.725 205.789 355.115 205.385C354.504 204.98 354.118 204.39 353.955 203.613L355.287 203.28C355.414 203.771 355.654 204.14 356.007 204.386C356.363 204.631 356.829 204.754 357.404 204.754C358.058 204.754 358.577 204.615 358.962 204.338C359.35 204.057 359.545 203.72 359.545 203.327C359.545 203.01 359.434 202.744 359.212 202.53C358.99 202.312 358.649 202.15 358.189 202.043L356.667 201.686C355.83 201.488 355.216 201.18 354.823 200.764C354.435 200.344 354.24 199.819 354.24 199.188C354.24 198.673 354.385 198.217 354.675 197.821C354.968 197.424 355.366 197.113 355.87 196.887C356.377 196.661 356.952 196.548 357.594 196.548C358.498 196.548 359.208 196.746 359.723 197.143C360.242 197.539 360.611 198.063 360.829 198.713ZM366.819 205.991C365.994 205.991 365.27 205.795 364.648 205.402C364.03 205.01 363.546 204.461 363.197 203.755C362.852 203.05 362.68 202.225 362.68 201.282C362.68 200.33 362.852 199.5 363.197 198.79C363.546 198.08 364.03 197.529 364.648 197.137C365.27 196.744 365.994 196.548 366.819 196.548C367.643 196.548 368.365 196.744 368.983 197.137C369.605 197.529 370.089 198.08 370.434 198.79C370.783 199.5 370.957 200.33 370.957 201.282C370.957 202.225 370.783 203.05 370.434 203.755C370.089 204.461 369.605 205.01 368.983 205.402C368.365 205.795 367.643 205.991 366.819 205.991ZM366.819 204.73C367.445 204.73 367.96 204.57 368.365 204.249C368.769 203.928 369.068 203.505 369.262 202.982C369.457 202.459 369.554 201.892 369.554 201.282C369.554 200.671 369.457 200.102 369.262 199.575C369.068 199.048 368.769 198.622 368.365 198.296C367.96 197.971 367.445 197.809 366.819 197.809C366.192 197.809 365.677 197.971 365.272 198.296C364.868 198.622 364.569 199.048 364.375 199.575C364.18 200.102 364.083 200.671 364.083 201.282C364.083 201.892 364.18 202.459 364.375 202.982C364.569 203.505 364.868 203.928 365.272 204.249C365.677 204.57 366.192 204.73 366.819 204.73ZM374.503 200.306V205.801H373.099V196.667H374.455V198.094H374.574C374.788 197.63 375.113 197.258 375.549 196.976C375.985 196.691 376.548 196.548 377.238 196.548C377.856 196.548 378.398 196.675 378.861 196.929C379.325 197.179 379.686 197.559 379.944 198.071C380.201 198.578 380.33 199.22 380.33 199.997V205.801H378.927V200.092C378.927 199.375 378.74 198.816 378.368 198.415C377.995 198.011 377.484 197.809 376.834 197.809C376.386 197.809 375.985 197.906 375.633 198.1C375.284 198.294 375.008 198.578 374.806 198.951C374.604 199.323 374.503 199.775 374.503 200.306Z" fill="#404040"/>
<rect x="89.832" y="177.352" width="356.546" height="52.8292" rx="6.87881" stroke="#D9D8D9" stroke-width="1.12679"/>
</g>
<g filter="url(#filter1_dd_5199_19214)">
<rect x="16" y="31" width="179.864" height="59.5376" rx="7.44221" fill="white" shape-rendering="crispEdges"/>
<path d="M56.9321 60.763C56.9321 66.6101 56.9321 69.5337 55.2973 71.3496C53.6625 73.1667 51.0304 73.1667 45.7688 73.1667C40.5059 73.1667 37.8751 73.1667 36.2403 71.3496C34.6055 69.5349 34.6055 66.6101 34.6055 60.763C34.6055 54.916 34.6055 51.9924 36.2403 50.1753C37.8751 48.3594 40.5071 48.3594 45.7688 48.3594C51.0317 48.3594 53.6625 48.3594 55.2973 50.1753C56.3838 51.3834 56.7485 53.0815 56.8701 55.8016" stroke="#171717" stroke-width="1.86055" stroke-linecap="round"/>
<path d="M39.5664 55.8089C39.5664 55.2321 39.5664 54.9443 39.6297 54.7074C39.7142 54.3922 39.8803 54.1048 40.111 53.874C40.3418 53.6432 40.6292 53.4772 40.9445 53.3926C41.1838 53.3281 41.4716 53.3281 42.0471 53.3281H49.4893C50.0661 53.3281 50.3539 53.3281 50.5908 53.3914C50.906 53.476 51.1934 53.642 51.4242 53.8728C51.655 54.1035 51.821 54.391 51.9056 54.7062C51.9701 54.9456 51.9701 55.2333 51.9701 55.8089C51.9701 56.3844 51.9701 56.6734 51.9068 56.9103C51.8222 57.2255 51.6562 57.5129 51.4254 57.7437C51.1947 57.9745 50.9072 58.1405 50.592 58.2251C50.3539 58.2896 50.0649 58.2896 49.4893 58.2896H42.0471C41.4704 58.2896 41.1826 58.2896 40.9457 58.2263C40.6305 58.1418 40.3431 57.9757 40.1123 57.745C39.8815 57.5142 39.7155 57.2268 39.6309 56.9115C39.5664 56.6722 39.5664 56.3844 39.5664 55.8089Z" stroke="#171717" stroke-width="1.86055"/>
<path d="M40.8068 63.2464C41.4918 63.2464 42.0471 62.691 42.0471 62.006C42.0471 61.321 41.4918 60.7656 40.8068 60.7656C40.1217 60.7656 39.5664 61.321 39.5664 62.006C39.5664 62.691 40.1217 63.2464 40.8068 63.2464Z" fill="#171717"/>
<path d="M40.8068 68.1995C41.4918 68.1995 42.0471 67.6442 42.0471 66.9591C42.0471 66.2741 41.4918 65.7188 40.8068 65.7188C40.1217 65.7188 39.5664 66.2741 39.5664 66.9591C39.5664 67.6442 40.1217 68.1995 40.8068 68.1995Z" fill="#171717"/>
<path d="M45.7677 63.2464C46.4527 63.2464 47.0081 62.691 47.0081 62.006C47.0081 61.321 46.4527 60.7656 45.7677 60.7656C45.0827 60.7656 44.5273 61.321 44.5273 62.006C44.5273 62.691 45.0827 63.2464 45.7677 63.2464Z" fill="#171717"/>
<path d="M45.7677 68.1995C46.4527 68.1995 47.0081 67.6442 47.0081 66.9591C47.0081 66.2741 46.4527 65.7188 45.7677 65.7188C45.0827 65.7188 44.5273 66.2741 44.5273 66.9591C44.5273 67.6442 45.0827 68.1995 45.7677 68.1995Z" fill="#171717"/>
<path d="M50.7296 63.2464C51.4147 63.2464 51.97 62.691 51.97 62.006C51.97 61.321 51.4147 60.7656 50.7296 60.7656C50.0446 60.7656 49.4893 61.321 49.4893 62.006C49.4893 62.691 50.0446 63.2464 50.7296 63.2464Z" fill="#171717"/>
<path d="M50.7296 68.1995C51.4147 68.1995 51.97 67.6442 51.97 66.9591C51.97 66.2741 51.4147 65.7188 50.7296 65.7188C50.0446 65.7188 49.4893 66.2741 49.4893 66.9591C49.4893 67.6442 50.0446 68.1995 50.7296 68.1995Z" fill="#171717"/>
<path d="M95.5065 57.9668H93.8679C93.771 57.4955 93.6015 57.0814 93.3592 56.7246C93.1213 56.3679 92.8306 56.0683 92.4871 55.8261C92.1479 55.5794 91.7713 55.3944 91.3573 55.2711C90.9432 55.1478 90.5116 55.0861 90.0623 55.0861C89.243 55.0861 88.5008 55.2931 87.8357 55.7072C87.175 56.1212 86.6486 56.7313 86.2566 57.5373C85.869 58.3434 85.6752 59.3322 85.6752 60.5039C85.6752 61.6755 85.869 62.6644 86.2566 63.4705C86.6486 64.2765 87.175 64.8866 87.8357 65.3006C88.5008 65.7147 89.243 65.9217 90.0623 65.9217C90.5116 65.9217 90.9432 65.86 91.3573 65.7367C91.7713 65.6134 92.1479 65.4306 92.4871 65.1883C92.8306 64.9416 93.1213 64.6399 93.3592 64.2831C93.6015 63.9219 93.771 63.5079 93.8679 63.041H95.5065C95.3832 63.7325 95.1585 64.3514 94.8326 64.8976C94.5066 65.4438 94.1014 65.9085 93.6169 66.2917C93.1324 66.6705 92.5884 66.959 91.9849 67.1572C91.3859 67.3554 90.745 67.4545 90.0623 67.4545C88.9082 67.4545 87.8819 67.1726 86.9834 66.6088C86.0848 66.045 85.3779 65.2434 84.8625 64.2038C84.3472 63.1643 84.0895 61.931 84.0895 60.5039C84.0895 59.0768 84.3472 57.8434 84.8625 56.8039C85.3779 55.7644 86.0848 54.9628 86.9834 54.399C87.8819 53.8352 88.9082 53.5532 90.0623 53.5532C90.745 53.5532 91.3859 53.6524 91.9849 53.8506C92.5884 54.0488 93.1324 54.3395 93.6169 54.7227C94.1014 55.1015 94.5066 55.564 94.8326 56.1102C95.1585 56.652 95.3832 57.2708 95.5065 57.9668ZM100.929 67.5074C100.286 67.5074 99.7025 67.3863 99.1784 67.144C98.6542 66.8973 98.238 66.5428 97.9296 66.0803C97.6213 65.6134 97.4671 65.0496 97.4671 64.3888C97.4671 63.8074 97.5817 63.3361 97.8107 62.9749C98.0398 62.6093 98.3459 62.323 98.7291 62.116C99.1123 61.909 99.5352 61.7548 99.9977 61.6535C100.465 61.5478 100.934 61.4641 101.405 61.4025C102.022 61.3232 102.522 61.2637 102.905 61.2241C103.292 61.18 103.574 61.1073 103.75 61.006C103.931 60.9047 104.021 60.7285 104.021 60.4775V60.4246C104.021 59.7727 103.843 59.2662 103.486 58.905C103.134 58.5438 102.599 58.3632 101.881 58.3632C101.136 58.3632 100.553 58.5262 100.13 58.8521C99.7069 59.1781 99.4096 59.526 99.2378 59.896L97.7579 59.3675C98.0221 58.7508 98.3745 58.2707 98.815 57.9271C99.2599 57.5792 99.7444 57.3369 100.269 57.2004C100.797 57.0594 101.317 56.9889 101.828 56.9889C102.154 56.9889 102.528 57.0286 102.951 57.1079C103.378 57.1827 103.79 57.3391 104.187 57.577C104.587 57.8148 104.92 58.1738 105.184 58.6539C105.448 59.134 105.581 59.7771 105.581 60.5832V67.2695H104.021V65.8953H103.942C103.836 66.1155 103.66 66.3511 103.414 66.6022C103.167 66.8533 102.839 67.0669 102.429 67.2431C102.019 67.4193 101.519 67.5074 100.929 67.5074ZM101.167 66.1067C101.784 66.1067 102.304 65.9856 102.726 65.7433C103.154 65.501 103.475 65.1883 103.691 64.8051C103.911 64.4219 104.021 64.0189 104.021 63.596V62.1689C103.955 62.2482 103.81 62.3208 103.585 62.3869C103.365 62.4486 103.11 62.5036 102.819 62.5521C102.533 62.5961 102.253 62.6358 101.98 62.671C101.711 62.7018 101.493 62.7283 101.326 62.7503C100.92 62.8032 100.542 62.889 100.189 63.008C99.8413 63.1225 99.5594 63.2965 99.3436 63.5299C99.1321 63.759 99.0264 64.0717 99.0264 64.4681C99.0264 65.0099 99.2268 65.4196 99.6277 65.697C100.033 65.9701 100.546 66.1067 101.167 66.1067ZM109.986 53.7382V67.2695H108.427V53.7382H109.986ZM116.965 67.481C116.013 67.481 115.194 67.2563 114.507 66.807C113.82 66.3578 113.291 65.7389 112.921 64.9504C112.551 64.162 112.366 63.2612 112.366 62.2482C112.366 61.2175 112.555 60.3079 112.934 59.5194C113.318 58.7266 113.85 58.1077 114.533 57.6628C115.22 57.2136 116.022 56.9889 116.938 56.9889C117.652 56.9889 118.295 57.1211 118.867 57.3854C119.44 57.6496 119.909 58.0196 120.275 58.4953C120.64 58.971 120.867 59.526 120.955 60.1603H119.396C119.277 59.6978 119.013 59.2882 118.603 58.9314C118.198 58.5702 117.652 58.3896 116.965 58.3896C116.357 58.3896 115.824 58.5482 115.366 58.8653C114.912 59.1781 114.557 59.6207 114.302 60.1934C114.051 60.7616 113.925 61.4289 113.925 62.1953C113.925 62.9793 114.049 63.6621 114.295 64.2435C114.546 64.8249 114.899 65.2764 115.352 65.5979C115.811 65.9195 116.348 66.0803 116.965 66.0803C117.37 66.0803 117.738 66.0098 118.068 65.8688C118.398 65.7279 118.678 65.5253 118.907 65.261C119.136 64.9967 119.299 64.6796 119.396 64.3096H120.955C120.867 64.9086 120.649 65.4482 120.301 65.9283C119.958 66.404 119.502 66.7828 118.934 67.0647C118.37 67.3422 117.713 67.481 116.965 67.481ZM129.63 63.1203V57.1211H131.19V67.2695H129.63V65.5517H129.525C129.287 66.067 128.917 66.5053 128.415 66.8665C127.913 67.2233 127.278 67.4017 126.512 67.4017C125.878 67.4017 125.314 67.2629 124.82 66.9854C124.327 66.7035 123.939 66.2807 123.658 65.7169C123.376 65.1487 123.235 64.4329 123.235 63.5696V57.1211H124.794V63.4639C124.794 64.2038 125.001 64.7941 125.415 65.2346C125.834 65.675 126.366 65.8953 127.014 65.8953C127.402 65.8953 127.796 65.7962 128.197 65.5979C128.602 65.3997 128.941 65.0958 129.214 64.6862C129.492 64.2765 129.63 63.7546 129.63 63.1203ZM135.605 53.7382V67.2695H134.046V53.7382H135.605ZM141.447 67.5074C140.804 67.5074 140.22 67.3863 139.696 67.144C139.172 66.8973 138.756 66.5428 138.448 66.0803C138.139 65.6134 137.985 65.0496 137.985 64.3888C137.985 63.8074 138.1 63.3361 138.329 62.9749C138.558 62.6093 138.864 62.323 139.247 62.116C139.63 61.909 140.053 61.7548 140.516 61.6535C140.982 61.5478 141.452 61.4641 141.923 61.4025C142.539 61.3232 143.039 61.2637 143.423 61.2241C143.81 61.18 144.092 61.1073 144.268 61.006C144.449 60.9047 144.539 60.7285 144.539 60.4775V60.4246C144.539 59.7727 144.361 59.2662 144.004 58.905C143.652 58.5438 143.117 58.3632 142.399 58.3632C141.654 58.3632 141.071 58.5262 140.648 58.8521C140.225 59.1781 139.927 59.526 139.756 59.896L138.276 59.3675C138.54 58.7508 138.892 58.2707 139.333 57.9271C139.778 57.5792 140.262 57.3369 140.786 57.2004C141.315 57.0594 141.835 56.9889 142.346 56.9889C142.672 56.9889 143.046 57.0286 143.469 57.1079C143.896 57.1827 144.308 57.3391 144.704 57.577C145.105 57.8148 145.438 58.1738 145.702 58.6539C145.966 59.134 146.099 59.7771 146.099 60.5832V67.2695H144.539V65.8953H144.46C144.354 66.1155 144.178 66.3511 143.931 66.6022C143.685 66.8533 143.357 67.0669 142.947 67.2431C142.537 67.4193 142.037 67.5074 141.447 67.5074ZM141.685 66.1067C142.302 66.1067 142.821 65.9856 143.244 65.7433C143.672 65.501 143.993 65.1883 144.209 64.8051C144.429 64.4219 144.539 64.0189 144.539 63.596V62.1689C144.473 62.2482 144.328 62.3208 144.103 62.3869C143.883 62.4486 143.627 62.5036 143.337 62.5521C143.05 62.5961 142.771 62.6358 142.498 62.671C142.229 62.7018 142.011 62.7283 141.844 62.7503C141.438 62.8032 141.06 62.889 140.707 63.008C140.359 63.1225 140.077 63.2965 139.861 63.5299C139.65 63.759 139.544 64.0717 139.544 64.4681C139.544 65.0099 139.745 65.4196 140.146 65.697C140.551 65.9701 141.064 66.1067 141.685 66.1067ZM153.358 57.1211V58.4425H148.099V57.1211H153.358ZM149.632 54.6897H151.191V64.3624C151.191 64.8029 151.255 65.1332 151.383 65.3535C151.515 65.5693 151.682 65.7147 151.885 65.7895C152.092 65.86 152.31 65.8953 152.539 65.8953C152.711 65.8953 152.851 65.8865 152.962 65.8688C153.072 65.8468 153.16 65.8292 153.226 65.816L153.543 67.2167C153.437 67.2563 153.29 67.296 153.1 67.3356C152.911 67.3796 152.671 67.4017 152.38 67.4017C151.94 67.4017 151.508 67.307 151.085 67.1176C150.667 66.9282 150.319 66.6397 150.041 66.252C149.768 65.8644 149.632 65.3755 149.632 64.7853V54.6897ZM155.704 67.2695V57.1211H157.263V67.2695H155.704ZM156.496 55.4297C156.192 55.4297 155.93 55.3261 155.71 55.1191C155.494 54.9121 155.386 54.6632 155.386 54.3725C155.386 54.0818 155.494 53.8329 155.71 53.6259C155.93 53.4189 156.192 53.3154 156.496 53.3154C156.8 53.3154 157.06 53.4189 157.276 53.6259C157.496 53.8329 157.606 54.0818 157.606 54.3725C157.606 54.6632 157.496 54.9121 157.276 55.1191C157.06 55.3261 156.8 55.4297 156.496 55.4297ZM164.242 67.481C163.325 67.481 162.521 67.2629 161.83 66.8269C161.143 66.3908 160.605 65.7807 160.218 64.9967C159.835 64.2127 159.643 63.2965 159.643 62.2482C159.643 61.191 159.835 60.2682 160.218 59.4798C160.605 58.6913 161.143 58.0791 161.83 57.643C162.521 57.207 163.325 56.9889 164.242 56.9889C165.158 56.9889 165.959 57.207 166.646 57.643C167.338 58.0791 167.875 58.6913 168.259 59.4798C168.646 60.2682 168.84 61.191 168.84 62.2482C168.84 63.2965 168.646 64.2127 168.259 64.9967C167.875 65.7807 167.338 66.3908 166.646 66.8269C165.959 67.2629 165.158 67.481 164.242 67.481ZM164.242 66.0803C164.937 66.0803 165.51 65.9019 165.959 65.5451C166.409 65.1883 166.741 64.7192 166.957 64.1378C167.173 63.5564 167.281 62.9265 167.281 62.2482C167.281 61.5698 167.173 60.9378 166.957 60.3519C166.741 59.7661 166.409 59.2926 165.959 58.9314C165.51 58.5702 164.937 58.3896 164.242 58.3896C163.546 58.3896 162.973 58.5702 162.524 58.9314C162.074 59.2926 161.742 59.7661 161.526 60.3519C161.31 60.9378 161.202 61.5698 161.202 62.2482C161.202 62.9265 161.31 63.5564 161.526 64.1378C161.742 64.7192 162.074 65.1883 162.524 65.5451C162.973 65.9019 163.546 66.0803 164.242 66.0803ZM172.78 61.1646V67.2695H171.22V57.1211H172.727V58.7068H172.859C173.097 58.1914 173.458 57.7774 173.942 57.4646C174.427 57.1475 175.052 56.9889 175.819 56.9889C176.506 56.9889 177.107 57.1299 177.622 57.4118C178.138 57.6893 178.539 58.1121 178.825 58.6803C179.111 59.2441 179.254 59.9577 179.254 60.821V67.2695H177.695V60.9267C177.695 60.1295 177.488 59.5084 177.074 59.0635C176.66 58.6143 176.092 58.3896 175.369 58.3896C174.872 58.3896 174.427 58.4975 174.035 58.7134C173.647 58.9292 173.341 59.2441 173.116 59.6582C172.892 60.0722 172.78 60.5744 172.78 61.1646Z" fill="#171717"/>
</g>
<defs>
<filter id="filter0_d_5199_19214" x="41.3637" y="62.3176" width="453.483" height="229.698" filterUnits="userSpaceOnUse" color-interpolation-filters="sRGB">
<feFlood flood-opacity="0" result="BackgroundImageFix"/>
<feColorMatrix in="SourceAlpha" type="matrix" values="0 0 0 0 0 0 0 0 0 0 0 0 0 0 0 0 0 0 127 0" result="hardAlpha"/>
<feOffset dy="13.366"/>
<feGaussianBlur stdDeviation="13.366"/>
<feComposite in2="hardAlpha" operator="out"/>
<feColorMatrix type="matrix" values="0 0 0 0 0 0 0 0 0 0 0 0 0 0 0 0 0 0 0.1 0"/>
<feBlend mode="normal" in2="BackgroundImageFix" result="effect1_dropShadow_5199_19214"/>
<feBlend mode="normal" in="SourceGraphic" in2="effect1_dropShadow_5199_19214" result="shape"/>
</filter>
<filter id="filter1_dd_5199_19214" x="1.11559" y="23.5578" width="209.633" height="89.3079" filterUnits="userSpaceOnUse" color-interpolation-filters="sRGB">
<feFlood flood-opacity="0" result="BackgroundImageFix"/>
<feColorMatrix in="SourceAlpha" type="matrix" values="0 0 0 0 0 0 0 0 0 0 0 0 0 0 0 0 0 0 127 0" result="hardAlpha"/>
<feOffset dy="3.7211"/>
<feGaussianBlur stdDeviation="3.7211"/>
<feComposite in2="hardAlpha" operator="out"/>
<feColorMatrix type="matrix" values="0 0 0 0 0 0 0 0 0 0 0 0 0 0 0 0 0 0 0.07 0"/>
<feBlend mode="normal" in2="BackgroundImageFix" result="effect1_dropShadow_5199_19214"/>
<feColorMatrix in="SourceAlpha" type="matrix" values="0 0 0 0 0 0 0 0 0 0 0 0 0 0 0 0 0 0 127 0" result="hardAlpha"/>
<feOffset dy="7.44221"/>
<feGaussianBlur stdDeviation="7.44221"/>
<feComposite in2="hardAlpha" operator="out"/>
<feColorMatrix type="matrix" values="0 0 0 0 0 0 0 0 0 0 0 0 0 0 0 0 0 0 0.05 0"/>
<feBlend mode="normal" in2="effect1_dropShadow_5199_19214" result="effect2_dropShadow_5199_19214"/>
<feBlend mode="normal" in="SourceGraphic" in2="effect2_dropShadow_5199_19214" result="shape"/>
</filter>
</defs>
</svg>
