<svg width="36" height="36" viewBox="0 0 36 36" fill="none" xmlns="http://www.w3.org/2000/svg">
<path fill-rule="evenodd" clip-rule="evenodd" d="M6.69724 13.1504C5.72885 12.9528 4.83206 12.4966 4.10218 11.8302C3.37231 11.1639 2.8366 10.3122 2.55201 9.3657C2.26741 8.41923 2.24456 7.41333 2.48587 6.45491C2.72718 5.49649 3.22364 4.62136 3.9225 3.9225C4.62136 3.22364 5.49649 2.72718 6.45491 2.48587C7.41333 2.24456 8.41923 2.26741 9.3657 2.55201C10.3122 2.8366 11.1639 3.37231 11.8302 4.10218C12.4966 4.83206 12.9528 5.72885 13.1504 6.69724H22.8483C23.0458 5.72885 23.502 4.83206 24.1684 4.10218C24.8348 3.37231 25.6865 2.8366 26.6329 2.55201C27.5794 2.26741 28.5853 2.24456 29.5437 2.48587C30.5022 2.72718 31.3773 3.22364 32.0761 3.9225C32.775 4.62136 33.2715 5.49649 33.5128 6.45491C33.7541 7.41333 33.7312 8.41923 33.4466 9.3657C33.162 10.3122 32.6263 11.1639 31.8965 11.8302C31.1666 12.4966 30.2698 12.9528 29.3014 13.1504V22.8483C30.2698 23.0458 31.1666 23.502 31.8965 24.1684C32.6263 24.8348 33.162 25.6865 33.4466 26.6329C33.7312 27.5794 33.7541 28.5853 33.5128 29.5437C33.2715 30.5022 32.775 31.3773 32.0761 32.0761C31.3773 32.775 30.5022 33.2715 29.5437 33.5128C28.5853 33.7541 27.5794 33.7312 26.6329 33.4466C25.6865 33.162 24.8348 32.6263 24.1684 31.8965C23.502 31.1666 23.0458 30.2698 22.8483 29.3014H13.1504C12.9528 30.2698 12.4966 31.1666 11.8302 31.8965C11.1639 32.6263 10.3122 33.162 9.3657 33.4466C8.41923 33.7312 7.41333 33.7541 6.45491 33.5128C5.49649 33.2715 4.62136 32.775 3.9225 32.0761C3.22364 31.3773 2.72718 30.5022 2.48587 29.5437C2.24456 28.5853 2.26741 27.5794 2.55201 26.6329C2.8366 25.6865 3.37231 24.8348 4.10218 24.1684C4.83206 23.502 5.72885 23.0458 6.69724 22.8483V13.1504ZM4.50974 7.79099C4.50974 7.36009 4.59461 6.93341 4.75951 6.53531C4.92441 6.13721 5.1661 5.77549 5.47079 5.47079C5.77549 5.1661 6.13721 4.92441 6.53531 4.75951C6.93341 4.59461 7.36009 4.50974 7.79099 4.50974C8.22189 4.50974 8.64857 4.59461 9.04667 4.75951C9.44477 4.92441 9.80649 5.1661 10.1112 5.47079C10.4159 5.77549 10.6576 6.13721 10.8225 6.53531C10.9874 6.93341 11.0722 7.36009 11.0722 7.79099C11.0722 8.66123 10.7265 9.49583 10.1112 10.1112C9.49583 10.7265 8.66123 11.0722 7.79099 11.0722C6.92075 11.0722 6.08615 10.7265 5.47079 10.1112C4.85544 9.49583 4.50974 8.66123 4.50974 7.79099ZM8.88474 22.8483V13.1504C9.9354 12.9353 10.8998 12.4164 11.6581 11.6581C12.4164 10.8998 12.9353 9.9354 13.1504 8.88474H22.8483C23.0635 9.93532 23.5825 10.8996 24.3408 11.6579C25.0991 12.4162 26.0633 12.9351 27.1139 13.1504V22.8483C26.0633 23.0635 25.0991 23.5825 24.3408 24.3408C23.5825 25.0991 23.0635 26.0633 22.8483 27.1139H13.1504C12.9351 26.0633 12.4162 25.0991 11.6579 24.3408C10.8996 23.5825 9.93532 23.0635 8.88474 22.8483ZM7.79099 24.9264C6.92075 24.9264 6.08615 25.2721 5.47079 25.8875C4.85544 26.5028 4.50974 27.3374 4.50974 28.2077C4.50974 29.0779 4.85544 29.9125 5.47079 30.5278C6.08615 31.1432 6.92075 31.4889 7.79099 31.4889C8.66123 31.4889 9.49583 31.1432 10.1112 30.5278C10.7265 29.9125 11.0722 29.0779 11.0722 28.2077C11.0722 27.3374 10.7265 26.5028 10.1112 25.8875C9.49583 25.2721 8.66123 24.9264 7.79099 24.9264ZM31.4889 7.79099C31.4889 8.66123 31.1432 9.49583 30.5278 10.1112C29.9125 10.7265 29.0779 11.0722 28.2077 11.0722C27.3374 11.0722 26.5028 10.7265 25.8875 10.1112C25.2721 9.49583 24.9264 8.66123 24.9264 7.79099C24.9264 6.92075 25.2721 6.08615 25.8875 5.47079C26.5028 4.85544 27.3374 4.50974 28.2077 4.50974C29.0779 4.50974 29.9125 4.85544 30.5278 5.47079C31.1432 6.08615 31.4889 6.92075 31.4889 7.79099ZM24.9264 28.2077C24.9264 27.3374 25.2721 26.5028 25.8875 25.8875C26.5028 25.2721 27.3374 24.9264 28.2077 24.9264C29.0779 24.9264 29.9125 25.2721 30.5278 25.8875C31.1432 26.5028 31.4889 27.3374 31.4889 28.2077C31.4889 29.0779 31.1432 29.9125 30.5278 30.5278C29.9125 31.1432 29.0779 31.4889 28.2077 31.4889C27.3374 31.4889 26.5028 31.1432 25.8875 30.5278C25.2721 29.9125 24.9264 29.0779 24.9264 28.2077Z" fill="#4F3895"/>
</svg>
