<svg width="285" height="142" viewBox="0 0 285 142" fill="none" xmlns="http://www.w3.org/2000/svg">
<path d="M177.933 135.908L169.015 115.199C168.46 113.91 169.532 112.511 170.921 112.711L192.386 115.8C193.198 115.917 193.987 115.468 194.301 114.71L204.866 89.1843C205.49 87.6765 207.638 87.7151 208.208 89.2443L217.869 115.182C218.184 116.026 217.823 116.974 217.027 117.396L180.423 136.785C179.496 137.276 178.347 136.871 177.933 135.908Z" fill="#B39BFD"/>
<path d="M202.99 87.097L167.829 109.56C167.224 109.946 167.43 110.876 168.141 110.971L192.224 114.183C192.566 114.229 192.896 114.042 193.033 113.725L204.111 88.0506C204.412 87.3538 203.63 86.6884 202.99 87.097Z" fill="#B39BFD"/>
<path d="M157.119 14.0716L161.114 12.4469C162.31 11.9609 163.612 12.8563 163.587 14.1464L163.493 18.8408C163.478 19.6062 163.949 20.2971 164.668 20.5618L170.875 22.8496C172.406 23.4139 172.452 25.5627 170.946 26.1919L165.036 28.6616C164.205 29.0092 163.244 28.6863 162.791 27.9068L156.242 16.6377C155.694 15.6938 156.107 14.4828 157.119 14.0716Z" fill="#B39BFD"/>
<path d="M173.199 21.7203L165.854 12.0852C165.419 11.5153 164.51 11.7962 164.473 12.5119L164.126 19.1804C164.109 19.5129 164.307 19.8188 164.618 19.9386L172.31 22.9051C173.034 23.1844 173.67 22.3376 173.199 21.7203Z" fill="#B39BFD"/>
<path d="M240.085 49.0462L242.121 40.5421C242.447 39.1773 244.143 38.6976 245.136 39.689L251.214 45.755C251.795 46.335 252.695 46.4471 253.401 46.0271L262.756 40.459C264.158 39.6244 265.857 40.9412 265.398 42.5072L262.356 52.8947C262.102 53.7599 261.247 54.3031 260.356 54.1645L241.556 51.2389C240.52 51.0776 239.841 50.0662 240.085 49.0462Z" fill="#B39BFD"/>
<path d="M263.335 37.802L244.752 36.4426C244.036 36.3903 243.645 37.2591 244.158 37.7607L251.916 45.3458C252.162 45.5867 252.539 45.6345 252.838 45.4626L263.663 39.2369C264.32 38.8586 264.092 37.8574 263.335 37.802Z" fill="#B39BFD"/>
<path d="M180.557 64.3817L182.643 51.6107C182.886 50.1186 184.752 49.5768 185.757 50.7062L193.964 59.9288C194.505 60.5365 195.387 60.7048 196.113 60.3391L212.871 51.9043C214.187 51.2421 215.696 52.3579 215.449 53.8099L212.646 70.2756C212.478 71.2639 211.533 71.9231 210.547 71.74L182.002 66.4369C181.042 66.2585 180.4 65.3455 180.557 64.3817Z" fill="#E69494"/>
<path d="M212.445 49.7569L185.398 47.5227C184.694 47.4646 184.29 48.3062 184.775 48.8191L194.716 59.3157C194.946 59.559 195.308 59.6253 195.61 59.4795L212.716 51.2172C213.422 50.8762 213.226 49.8215 212.445 49.7569Z" fill="#E69494"/>
<path d="M83.6087 40.5376L90.8398 47.7687L98.071 40.5376L90.8398 33.3065L83.6087 40.5376ZM123.9 40.5376L123.9 41.7901L124.388 41.7901L124.748 41.46L123.9 40.5376ZM145.112 22.2569C145.142 21.5658 144.605 20.9818 143.914 20.9524L132.652 20.474C131.961 20.4446 131.377 20.981 131.348 21.6721C131.318 22.3632 131.855 22.9473 132.546 22.9766L142.556 23.4019L142.131 33.4126C142.102 34.1037 142.638 34.6878 143.329 34.7171C144.02 34.7465 144.605 34.2101 144.634 33.519L145.112 22.2569ZM90.8398 41.7901L123.9 41.7901L123.9 39.2851L90.8398 39.2851L90.8398 41.7901ZM124.748 41.46L144.708 23.1262L143.014 21.2813L123.053 39.6152L124.748 41.46Z" fill="#9782D8"/>
<path d="M81.9368 76.4678L89.168 83.6989L96.3991 76.4678L89.168 69.2366L81.9368 76.4678ZM122.228 76.4678L122.228 77.7202H122.228L122.228 76.4678ZM151.842 77.3534C152.331 76.8643 152.331 76.0713 151.842 75.5821L143.871 67.6115C143.382 67.1224 142.589 67.1224 142.1 67.6115C141.611 68.1006 141.611 68.8936 142.1 69.3827L149.185 76.4678L142.1 83.5528C141.611 84.0419 141.611 84.8349 142.1 85.3241C142.589 85.8132 143.382 85.8132 143.871 85.3241L151.842 77.3534ZM89.168 77.7202L122.228 77.7202L122.228 75.2153L89.168 75.2153L89.168 77.7202ZM122.228 77.7202L150.956 77.7202L150.956 75.2153L122.228 75.2153L122.228 77.7202Z" fill="#9782D8"/>
<path d="M85.2806 109.585L92.5117 102.354L99.7428 109.585L92.5117 116.816L85.2806 109.585ZM125.572 109.585L125.572 108.332L126.06 108.332L126.419 108.663L125.572 109.585ZM146.784 127.866C146.814 128.557 146.277 129.141 145.586 129.17L134.324 129.649C133.633 129.678 133.049 129.142 133.019 128.45C132.99 127.759 133.527 127.175 134.218 127.146L144.228 126.721L143.803 116.71C143.774 116.019 144.31 115.435 145.001 115.405C145.692 115.376 146.276 115.913 146.306 116.604L146.784 127.866ZM92.5117 108.332L125.572 108.332L125.572 110.837L92.5117 110.837L92.5117 108.332ZM126.419 108.663L146.38 126.996L144.686 128.841L124.725 110.507L126.419 108.663Z" fill="#9782D8"/>
<path d="M34.0974 12.1962C41.9479 0.772473 52.5787 0.697246 69.4673 8.09505L69.9323 26.9235V39.9105V102.795L69.1239 116.124V130.447C52.3454 141.872 43.9363 140.623 30.32 127.712C21.2841 124.147 15.2368 121.94 12.7079 113.731C12.0161 111.486 11.5876 108.792 11.4332 105.498C1.84172 94.2699 0.633438 87.4931 13.1502 73.7137C8.65178 63.9029 8.88861 58.4217 10.0591 49.1066C12.5702 32.5774 32.3799 35.7778 32.3799 35.7778C32.3799 35.7778 29.508 22.7559 32.8122 14.62C33.1661 13.7487 33.5907 12.9334 34.0974 12.1962Z" fill="#B39BFD"/>
<path d="M105.867 16.6391C93.7395 3.24395 85.8577 0.948939 69.4673 8.09505M69.4673 8.09505C52.5787 0.697246 41.9479 0.772473 34.0974 12.1962C33.5907 12.9334 33.1661 13.7487 32.8122 14.62M69.4673 8.09505L69.9322 26.9235V39.9105V102.795L69.1239 116.124V130.447M32.3799 35.7778C32.3799 35.7778 12.5702 32.5774 10.0591 49.1066C8.88861 58.4217 8.65178 63.9029 13.1502 73.7137M32.3799 35.7778C32.3799 35.7778 29.508 22.7559 32.8122 14.62M32.3799 35.7778L36.2793 39.9105M13.1502 73.7137C0.633438 87.4931 1.84172 94.2699 11.4332 105.498C11.5876 108.792 12.0161 111.486 12.7079 113.732M13.1502 73.7137L21.8567 71.011M30.32 127.712C43.9363 140.623 52.3454 141.872 69.1239 130.447M30.32 127.712L33.0067 119.883M30.32 127.712C21.2841 124.147 15.2368 121.94 12.7079 113.732M69.1239 130.447C86.2932 141.219 93.8447 140.253 104.15 127.712M32.8122 14.62C40.0346 14.62 54.136 16.0554 52.7624 21.797M21.8567 71.011C24.3528 65.6567 30.0385 55.8367 32.8122 59.391M21.8567 71.011C23.8949 75.34 28.9396 83.4512 32.8122 81.2639M52.7624 44.3314C47.7182 46.6742 60.841 61.2657 47.9548 55.1862C35.0687 49.1066 42.9539 60.6278 55.853 66.6281M55.853 84.3398C48.6416 86.5043 37.9276 93.2257 52.7624 102.795M30.32 101.428C28.3069 107.293 27.2988 116.314 33.0067 119.883M47.9548 119.883C40.6695 122.114 35.9471 121.722 33.0067 119.883M23.5736 92.5421C19.4529 97.4407 11.7608 108.127 13.9585 111.681L12.7079 113.732" stroke="url(#paint0_linear_3979_8529)" stroke-width="3.33991"/>
<defs>
<linearGradient id="paint0_linear_3979_8529" x1="44.079" y1="70.6333" x2="135.092" y2="66.4584" gradientUnits="userSpaceOnUse">
<stop stop-color="#E4DBFF"/>
<stop offset="1" stop-color="#F4F0FF" stop-opacity="0"/>
</linearGradient>
</defs>
</svg>
