<svg width="290" height="142" viewBox="0 0 290 142" fill="none" xmlns="http://www.w3.org/2000/svg">
<g filter="url(#filter0_dd_3979_7786)">
<rect x="98" y="25" width="182.408" height="92.5522" rx="6.37939" fill="#8B6DCB"/>
<path d="M119.38 56.6679C118.793 56.6679 118.266 56.5659 117.798 56.3617C117.339 56.1491 116.977 55.8599 116.714 55.4941C116.45 55.1199 116.314 54.6903 116.305 54.2055H117.543C117.586 54.6223 117.756 54.9753 118.053 55.2645C118.36 55.5452 118.802 55.6855 119.38 55.6855C119.933 55.6855 120.367 55.5494 120.682 55.2772C121.005 54.9965 121.166 54.6393 121.166 54.2055C121.166 53.8652 121.073 53.5888 120.886 53.3762C120.699 53.1635 120.465 53.0019 120.184 52.8913C119.903 52.7808 119.525 52.6617 119.049 52.5341C118.462 52.381 117.99 52.2279 117.632 52.0748C117.284 51.9217 116.982 51.6835 116.726 51.3603C116.48 51.0285 116.356 50.5862 116.356 50.0334C116.356 49.5485 116.48 49.119 116.726 48.7447C116.973 48.3705 117.318 48.0813 117.76 47.8771C118.211 47.673 118.725 47.5709 119.304 47.5709C120.137 47.5709 120.818 47.7793 121.345 48.1961C121.881 48.6129 122.183 49.1658 122.251 49.8547H120.975C120.933 49.5145 120.754 49.2168 120.439 48.9616C120.125 48.6979 119.708 48.5661 119.189 48.5661C118.704 48.5661 118.309 48.6937 118.002 48.9489C117.696 49.1955 117.543 49.5443 117.543 49.9951C117.543 50.3183 117.632 50.582 117.811 50.7861C117.998 50.9903 118.223 51.1476 118.487 51.2582C118.759 51.3603 119.138 51.4794 119.623 51.6154C120.21 51.7771 120.682 51.9387 121.039 52.1003C121.396 52.2534 121.702 52.4958 121.958 52.8275C122.213 53.1508 122.34 53.5931 122.34 54.1544C122.34 54.5882 122.225 54.9965 121.996 55.3793C121.766 55.7621 121.426 56.0725 120.975 56.3107C120.524 56.5488 119.993 56.6679 119.38 56.6679ZM130.25 49.5868V56.5786H129.089V55.5452C128.867 55.9024 128.557 56.1831 128.157 56.3872C127.766 56.5829 127.332 56.6807 126.856 56.6807C126.311 56.6807 125.822 56.5701 125.389 56.349C124.955 56.1193 124.61 55.7791 124.355 55.3283C124.108 54.8774 123.985 54.3288 123.985 53.6824V49.5868H125.133V53.5293C125.133 54.2182 125.308 54.7499 125.656 55.1241C126.005 55.4899 126.482 55.6727 127.085 55.6727C127.706 55.6727 128.195 55.4814 128.553 55.0986C128.91 54.7158 129.089 54.1587 129.089 53.4272V49.5868H130.25ZM133.371 50.8882C133.609 50.4714 133.958 50.1312 134.417 49.8675C134.877 49.6038 135.4 49.472 135.987 49.472C136.616 49.472 137.182 49.6208 137.684 49.9185C138.185 50.2162 138.581 50.6373 138.87 51.1817C139.159 51.7175 139.304 52.3427 139.304 53.0572C139.304 53.7632 139.159 54.3926 138.87 54.9455C138.581 55.4984 138.181 55.9279 137.671 56.2341C137.169 56.5403 136.608 56.6934 135.987 56.6934C135.383 56.6934 134.851 56.5616 134.392 56.2979C133.941 56.0342 133.601 55.6983 133.371 55.29V56.5786H132.21V47.1371H133.371V50.8882ZM138.117 53.0572C138.117 52.5298 138.011 52.0705 137.798 51.6792C137.586 51.288 137.296 50.9903 136.931 50.7861C136.573 50.582 136.178 50.4799 135.744 50.4799C135.319 50.4799 134.923 50.5862 134.558 50.7989C134.2 51.003 133.911 51.305 133.69 51.7048C133.477 52.096 133.371 52.5511 133.371 53.0699C133.371 53.5973 133.477 54.0609 133.69 54.4607C133.911 54.8519 134.2 55.1539 134.558 55.3665C134.923 55.5707 135.319 55.6727 135.744 55.6727C136.178 55.6727 136.573 55.5707 136.931 55.3665C137.296 55.1539 137.586 54.8519 137.798 54.4607C138.011 54.0609 138.117 53.5931 138.117 53.0572ZM149.24 49.4592C149.785 49.4592 150.269 49.574 150.695 49.8037C151.12 50.0249 151.456 50.3608 151.703 50.8116C151.949 51.2625 152.073 51.8111 152.073 52.4575V56.5786H150.924V52.6234C150.924 51.9259 150.75 51.3943 150.401 51.0285C150.061 50.6543 149.597 50.4672 149.011 50.4672C148.407 50.4672 147.926 50.6628 147.569 51.0541C147.212 51.4368 147.033 51.994 147.033 52.7255V56.5786H145.885V52.6234C145.885 51.9259 145.71 51.3943 145.361 51.0285C145.021 50.6543 144.558 50.4672 143.971 50.4672C143.367 50.4672 142.886 50.6628 142.529 51.0541C142.172 51.4368 141.993 51.994 141.993 52.7255V56.5786H140.832V49.5868H141.993V50.5947C142.223 50.229 142.529 49.9483 142.912 49.7527C143.303 49.557 143.733 49.4592 144.2 49.4592C144.787 49.4592 145.306 49.5911 145.757 49.8547C146.208 50.1184 146.544 50.5054 146.765 51.0158C146.961 50.5224 147.284 50.1397 147.735 49.8675C148.185 49.5953 148.687 49.4592 149.24 49.4592ZM154.577 48.4513C154.356 48.4513 154.169 48.3747 154.015 48.2216C153.862 48.0685 153.786 47.8814 153.786 47.6602C153.786 47.4391 153.862 47.2519 154.015 47.0988C154.169 46.9457 154.356 46.8692 154.577 46.8692C154.789 46.8692 154.968 46.9457 155.113 47.0988C155.266 47.2519 155.342 47.4391 155.342 47.6602C155.342 47.8814 155.266 48.0685 155.113 48.2216C154.968 48.3747 154.789 48.4513 154.577 48.4513ZM155.138 49.5868V56.5786H153.977V49.5868H155.138ZM159.592 56.6934C159.056 56.6934 158.576 56.6041 158.15 56.4255C157.725 56.2384 157.389 55.9832 157.143 55.66C156.896 55.3283 156.76 54.9497 156.734 54.5244H157.934C157.968 54.8732 158.129 55.1581 158.418 55.3793C158.716 55.6004 159.103 55.711 159.579 55.711C160.022 55.711 160.371 55.6132 160.626 55.4176C160.881 55.2219 161.008 54.9753 161.008 54.6776C161.008 54.3713 160.872 54.1459 160.6 54.0013C160.328 53.8482 159.907 53.6994 159.337 53.5548C158.818 53.4187 158.393 53.2826 158.061 53.1465C157.738 53.0019 157.457 52.7935 157.219 52.5213C156.989 52.2406 156.875 51.8749 156.875 51.4241C156.875 51.0668 156.981 50.7393 157.194 50.4416C157.406 50.1439 157.708 49.91 158.099 49.7399C158.491 49.5613 158.937 49.472 159.439 49.472C160.213 49.472 160.838 49.6676 161.315 50.0589C161.791 50.4501 162.046 50.986 162.08 51.6665H160.919C160.894 51.3007 160.745 51.0073 160.473 50.7861C160.209 50.565 159.852 50.4544 159.401 50.4544C158.984 50.4544 158.652 50.5437 158.406 50.7223C158.159 50.901 158.036 51.1349 158.036 51.4241C158.036 51.6537 158.108 51.8451 158.253 51.9982C158.406 52.1428 158.593 52.2619 158.814 52.3555C159.044 52.4405 159.358 52.5383 159.758 52.6489C160.26 52.785 160.668 52.9211 160.983 53.0572C161.298 53.1848 161.566 53.3804 161.787 53.6441C162.016 53.9078 162.135 54.2523 162.144 54.6776C162.144 55.0603 162.038 55.4048 161.825 55.711C161.612 56.0172 161.31 56.2596 160.919 56.4383C160.536 56.6084 160.094 56.6934 159.592 56.6934ZM166.258 56.6934C165.722 56.6934 165.242 56.6041 164.816 56.4255C164.391 56.2384 164.055 55.9832 163.808 55.66C163.562 55.3283 163.426 54.9497 163.4 54.5244H164.6C164.634 54.8732 164.795 55.1581 165.084 55.3793C165.382 55.6004 165.769 55.711 166.245 55.711C166.688 55.711 167.036 55.6132 167.292 55.4176C167.547 55.2219 167.674 54.9753 167.674 54.6776C167.674 54.3713 167.538 54.1459 167.266 54.0013C166.994 53.8482 166.573 53.6994 166.003 53.5548C165.484 53.4187 165.059 53.2826 164.727 53.1465C164.404 53.0019 164.123 52.7935 163.885 52.5213C163.655 52.2406 163.541 51.8749 163.541 51.4241C163.541 51.0668 163.647 50.7393 163.86 50.4416C164.072 50.1439 164.374 49.91 164.765 49.7399C165.157 49.5613 165.603 49.472 166.105 49.472C166.879 49.472 167.504 49.6676 167.981 50.0589C168.457 50.4501 168.712 50.986 168.746 51.6665H167.585C167.56 51.3007 167.411 51.0073 167.139 50.7861C166.875 50.565 166.518 50.4544 166.067 50.4544C165.65 50.4544 165.318 50.5437 165.072 50.7223C164.825 50.901 164.702 51.1349 164.702 51.4241C164.702 51.6537 164.774 51.8451 164.919 51.9982C165.072 52.1428 165.259 52.2619 165.48 52.3555C165.71 52.4405 166.024 52.5383 166.424 52.6489C166.926 52.785 167.334 52.9211 167.649 53.0572C167.964 53.1848 168.232 53.3804 168.453 53.6441C168.682 53.9078 168.801 54.2523 168.81 54.6776C168.81 55.0603 168.704 55.4048 168.491 55.711C168.278 56.0172 167.976 56.2596 167.585 56.4383C167.202 56.6084 166.76 56.6934 166.258 56.6934ZM171.049 48.4513C170.827 48.4513 170.64 48.3747 170.487 48.2216C170.334 48.0685 170.258 47.8814 170.258 47.6602C170.258 47.4391 170.334 47.2519 170.487 47.0988C170.64 46.9457 170.827 46.8692 171.049 46.8692C171.261 46.8692 171.44 46.9457 171.584 47.0988C171.738 47.2519 171.814 47.4391 171.814 47.6602C171.814 47.8814 171.738 48.0685 171.584 48.2216C171.44 48.3747 171.261 48.4513 171.049 48.4513ZM171.61 49.5868V56.5786H170.449V49.5868H171.61ZM176.638 56.6934C175.983 56.6934 175.388 56.5446 174.852 56.2469C174.325 55.9492 173.908 55.5281 173.602 54.9838C173.304 54.4309 173.155 53.7929 173.155 53.0699C173.155 52.3555 173.308 51.726 173.614 51.1817C173.929 50.6288 174.354 50.2077 174.89 49.9185C175.426 49.6208 176.026 49.472 176.689 49.472C177.353 49.472 177.952 49.6208 178.488 49.9185C179.024 50.2077 179.445 50.6245 179.751 51.1689C180.066 51.7133 180.223 52.347 180.223 53.0699C180.223 53.7929 180.062 54.4309 179.739 54.9838C179.424 55.5281 178.994 55.9492 178.45 56.2469C177.906 56.5446 177.302 56.6934 176.638 56.6934ZM176.638 55.6727C177.055 55.6727 177.446 55.5749 177.812 55.3793C178.178 55.1837 178.471 54.8902 178.692 54.4989C178.922 54.1077 179.037 53.6313 179.037 53.0699C179.037 52.5086 178.926 52.0322 178.705 51.641C178.484 51.2497 178.195 50.9605 177.837 50.7734C177.48 50.5777 177.093 50.4799 176.676 50.4799C176.251 50.4799 175.86 50.5777 175.503 50.7734C175.154 50.9605 174.873 51.2497 174.661 51.641C174.448 52.0322 174.342 52.5086 174.342 53.0699C174.342 53.6398 174.444 54.1204 174.648 54.5117C174.86 54.903 175.141 55.1964 175.49 55.392C175.839 55.5792 176.221 55.6727 176.638 55.6727ZM185.157 49.4592C186.007 49.4592 186.696 49.7186 187.223 50.2375C187.751 50.7479 188.014 51.4879 188.014 52.4575V56.5786H186.866V52.6234C186.866 51.9259 186.692 51.3943 186.343 51.0285C185.994 50.6543 185.518 50.4672 184.914 50.4672C184.302 50.4672 183.813 50.6585 183.447 51.0413C183.09 51.4241 182.911 51.9812 182.911 52.7127V56.5786H181.75V49.5868H182.911V50.582C183.141 50.2247 183.451 49.9483 183.842 49.7527C184.242 49.557 184.68 49.4592 185.157 49.4592ZM197.995 56.5786L195.877 52.9424H194.474V56.5786H193.313V47.6857H196.183C196.855 47.6857 197.421 47.8006 197.88 48.0302C198.348 48.2599 198.697 48.5704 198.926 48.9616C199.156 49.3529 199.271 49.7994 199.271 50.3013C199.271 50.9137 199.092 51.4538 198.735 51.9217C198.386 52.3895 197.859 52.6999 197.153 52.853L199.386 56.5786H197.995ZM194.474 52.011H196.183C196.813 52.011 197.285 51.8579 197.6 51.5517C197.914 51.2369 198.072 50.8202 198.072 50.3013C198.072 49.7739 197.914 49.3657 197.6 49.0765C197.293 48.7873 196.821 48.6427 196.183 48.6427H194.474V52.011ZM200.641 53.0572C200.641 52.3427 200.786 51.7175 201.075 51.1817C201.364 50.6373 201.76 50.2162 202.262 49.9185C202.772 49.6208 203.338 49.472 203.958 49.472C204.571 49.472 205.103 49.6038 205.553 49.8675C206.004 50.1312 206.34 50.4629 206.561 50.8627V49.5868H207.735V56.5786H206.561V55.2772C206.332 55.6855 205.987 56.0257 205.528 56.2979C205.077 56.5616 204.55 56.6934 203.946 56.6934C203.325 56.6934 202.763 56.5403 202.262 56.2341C201.76 55.9279 201.364 55.4984 201.075 54.9455C200.786 54.3926 200.641 53.7632 200.641 53.0572ZM206.561 53.0699C206.561 52.5426 206.455 52.0833 206.242 51.692C206.03 51.3007 205.74 51.003 205.375 50.7989C205.017 50.5862 204.622 50.4799 204.188 50.4799C203.754 50.4799 203.359 50.582 203.002 50.7861C202.644 50.9903 202.359 51.288 202.147 51.6792C201.934 52.0705 201.828 52.5298 201.828 53.0572C201.828 53.5931 201.934 54.0609 202.147 54.4607C202.359 54.8519 202.644 55.1539 203.002 55.3665C203.359 55.5707 203.754 55.6727 204.188 55.6727C204.622 55.6727 205.017 55.5707 205.375 55.3665C205.74 55.1539 206.03 54.8519 206.242 54.4607C206.455 54.0609 206.561 53.5973 206.561 53.0699ZM211.113 50.5437V54.6648C211.113 55.005 211.186 55.2474 211.33 55.392C211.475 55.5281 211.726 55.5962 212.083 55.5962H212.938V56.5786H211.892C211.245 56.5786 210.76 56.4298 210.437 56.1321C210.114 55.8344 209.952 55.3453 209.952 54.6648V50.5437H209.046V49.5868H209.952V47.8261H211.113V49.5868H212.938V50.5437H211.113ZM220.724 52.8148C220.724 53.0359 220.711 53.2698 220.686 53.5165H215.097C215.14 54.2055 215.374 54.7456 215.799 55.1369C216.233 55.5196 216.756 55.711 217.368 55.711C217.87 55.711 218.287 55.5962 218.619 55.3665C218.959 55.1284 219.197 54.8136 219.333 54.4224H220.584C220.397 55.0943 220.022 55.643 219.461 56.0683C218.9 56.485 218.202 56.6934 217.368 56.6934C216.705 56.6934 216.11 56.5446 215.582 56.2469C215.063 55.9492 214.655 55.5281 214.357 54.9838C214.06 54.4309 213.911 53.7929 213.911 53.0699C213.911 52.347 214.055 51.7133 214.345 51.1689C214.634 50.6245 215.038 50.2077 215.557 49.9185C216.084 49.6208 216.688 49.472 217.368 49.472C218.032 49.472 218.619 49.6166 219.129 49.9058C219.64 50.195 220.031 50.5947 220.303 51.1051C220.584 51.6069 220.724 52.1768 220.724 52.8148ZM219.525 52.5724C219.525 52.1301 219.427 51.7515 219.231 51.4368C219.036 51.1136 218.768 50.8712 218.427 50.7096C218.096 50.5395 217.726 50.4544 217.317 50.4544C216.731 50.4544 216.229 50.6415 215.812 51.0158C215.404 51.39 215.17 51.9089 215.11 52.5724H219.525Z" fill="white"/>
<g clip-path="url(#clip0_3979_7786)">
<path d="M255.179 59.7334C253.148 59.7334 251.201 58.9269 249.766 57.4912C248.33 56.0556 247.523 54.1084 247.523 52.0781C247.523 50.0478 248.33 48.1006 249.766 46.665C251.201 45.2294 253.148 44.4228 255.179 44.4228C257.209 44.4228 259.156 45.2294 260.592 46.665C262.027 48.1006 262.834 50.0478 262.834 52.0781C262.834 54.1084 262.027 56.0556 260.592 57.4912C259.156 58.9269 257.209 59.7334 255.179 59.7334V59.7334ZM252.496 54.0838C252.451 54.1279 252.414 54.1807 252.389 54.2391C252.364 54.2975 252.351 54.3603 252.35 54.4238C252.35 54.4873 252.362 54.5503 252.386 54.6091C252.41 54.6679 252.446 54.7213 252.491 54.7663C252.535 54.8112 252.589 54.8467 252.648 54.8708C252.706 54.8948 252.769 54.9069 252.833 54.9064C252.897 54.9058 252.959 54.8926 253.018 54.8676C253.076 54.8425 253.129 54.806 253.173 54.7603L257.092 50.8408L257.092 53.4896C257.092 53.6164 257.143 53.7381 257.233 53.8279C257.322 53.9176 257.444 53.968 257.571 53.968C257.698 53.968 257.82 53.9176 257.909 53.8279C257.999 53.7381 258.049 53.6164 258.049 53.4896L258.049 49.6858C258.049 49.5589 257.999 49.4372 257.909 49.3475C257.82 49.2578 257.698 49.2074 257.571 49.2074L253.767 49.2074C253.64 49.2074 253.519 49.2578 253.429 49.3475C253.339 49.4372 253.289 49.5589 253.289 49.6858C253.289 49.8127 253.339 49.9344 253.429 50.0242C253.519 50.1139 253.64 50.1643 253.767 50.1643L256.416 50.1643L252.496 54.0838Z" fill="white"/>
</g>
<path d="M128.049 77.0104H120.608V80.9376C120.929 80.5395 121.388 80.218 121.986 79.973C122.583 79.7127 123.218 79.5826 123.892 79.5826C125.117 79.5826 126.119 79.8505 126.9 80.3864C127.681 80.9223 128.248 81.6112 128.6 82.4533C128.952 83.2801 129.128 84.1681 129.128 85.1174C129.128 86.8781 128.623 88.2943 127.612 89.366C126.617 90.4378 125.193 90.9736 123.341 90.9736C121.595 90.9736 120.202 90.5373 119.161 89.6646C118.12 88.7919 117.53 87.6512 117.392 86.2427H120.516C120.654 86.8551 120.96 87.345 121.434 87.7125C121.924 88.0799 122.544 88.2637 123.295 88.2637C124.198 88.2637 124.879 87.9804 125.339 87.4139C125.798 86.8474 126.028 86.0972 126.028 85.1633C126.028 84.214 125.79 83.4944 125.316 83.0045C124.856 82.4993 124.175 82.2466 123.272 82.2466C122.629 82.2466 122.093 82.4074 121.664 82.7289C121.235 83.0504 120.929 83.4791 120.745 84.015H117.668V74.1856H128.049V77.0104ZM133.366 91.1344C132.785 91.1344 132.302 90.9583 131.92 90.6062C131.552 90.2387 131.368 89.7871 131.368 89.2512C131.368 88.7153 131.552 88.2713 131.92 87.9192C132.302 87.5517 132.785 87.368 133.366 87.368C133.933 87.368 134.4 87.5517 134.767 87.9192C135.135 88.2713 135.318 88.7153 135.318 89.2512C135.318 89.7871 135.135 90.2387 134.767 90.6062C134.4 90.9583 133.933 91.1344 133.366 91.1344ZM137.541 82.3844C137.541 79.7357 138.015 77.6611 138.965 76.1607C139.929 74.6603 141.522 73.91 143.742 73.91C145.962 73.91 147.546 74.6603 148.495 76.1607C149.46 77.6611 149.942 79.7357 149.942 82.3844C149.942 85.0485 149.46 87.1383 148.495 88.6541C147.546 90.1698 145.962 90.9277 143.742 90.9277C141.522 90.9277 139.929 90.1698 138.965 88.6541C138.015 87.1383 137.541 85.0485 137.541 82.3844ZM146.773 82.3844C146.773 81.2514 146.696 80.3022 146.543 79.5367C146.406 78.7558 146.115 78.1204 145.671 77.6305C145.242 77.1406 144.599 76.8956 143.742 76.8956C142.884 76.8956 142.233 77.1406 141.789 77.6305C141.361 78.1204 141.07 78.7558 140.917 79.5367C140.779 80.3022 140.71 81.2514 140.71 82.3844C140.71 83.548 140.779 84.5279 140.917 85.324C141.055 86.1049 141.345 86.7403 141.789 87.2302C142.233 87.7048 142.884 87.9421 143.742 87.9421C144.599 87.9421 145.25 87.7048 145.694 87.2302C146.138 86.7403 146.429 86.1049 146.566 85.324C146.704 84.5279 146.773 83.548 146.773 82.3844ZM152.02 78.3424C152.02 77.1788 152.357 76.2679 153.031 75.6095C153.72 74.9512 154.6 74.622 155.672 74.622C156.744 74.622 157.616 74.9512 158.29 75.6095C158.979 76.2679 159.323 77.1788 159.323 78.3424C159.323 79.5214 158.979 80.44 158.29 81.0983C157.616 81.7567 156.744 82.0859 155.672 82.0859C154.6 82.0859 153.72 81.7567 153.031 81.0983C152.357 80.44 152.02 79.5214 152.02 78.3424ZM166.764 74.8976L157.739 90.9736H154.615L163.618 74.8976H166.764ZM155.649 76.5511C154.807 76.5511 154.386 77.1482 154.386 78.3424C154.386 79.552 154.807 80.1567 155.649 80.1567C156.062 80.1567 156.384 80.0113 156.614 79.7204C156.843 79.4142 156.958 78.9549 156.958 78.3424C156.958 77.1482 156.522 76.5511 155.649 76.5511ZM162.102 87.5058C162.102 86.3269 162.439 85.4159 163.113 84.7729C163.802 84.1145 164.682 83.7853 165.754 83.7853C166.826 83.7853 167.691 84.1145 168.349 84.7729C169.023 85.4159 169.36 86.3269 169.36 87.5058C169.36 88.6847 169.023 89.6033 168.349 90.2617C167.691 90.92 166.826 91.2492 165.754 91.2492C164.667 91.2492 163.787 90.92 163.113 90.2617C162.439 89.6033 162.102 88.6847 162.102 87.5058ZM165.731 85.7145C164.858 85.7145 164.422 86.3116 164.422 87.5058C164.422 88.7153 164.858 89.3201 165.731 89.3201C166.588 89.3201 167.017 88.7153 167.017 87.5058C167.017 86.3116 166.588 85.7145 165.731 85.7145Z" fill="white"/>
</g>
<path d="M42.7099 18.4828C45.4039 13.7636 43.7621 7.75396 39.0429 5.05996C34.3236 2.36597 28.314 4.00777 25.6201 8.72702C22.9261 13.4463 24.5679 19.4559 29.2871 22.1499C34.0063 24.8439 40.0159 23.2021 42.7099 18.4828Z" fill="#8464E3"/>
<path opacity="0.5" d="M42.7099 18.4828C45.4039 13.7636 43.7621 7.75396 39.0429 5.05996C34.3236 2.36597 28.314 4.00777 25.6201 8.72702C22.9261 13.4463 24.5679 19.4559 29.2871 22.1499C34.0063 24.8439 40.0159 23.2021 42.7099 18.4828Z" fill="white"/>
<path d="M34.9037 10.5268C35.0729 10.8815 35.1332 11.2783 35.0769 11.6673C35.0207 12.0562 34.8504 12.4197 34.5877 12.7119C34.325 13.0042 33.9815 13.212 33.6008 13.3091C33.22 13.4063 32.819 13.3884 32.4484 13.2578C32.0777 13.1272 31.7541 12.8896 31.5184 12.5752C31.2827 12.2608 31.1455 11.8835 31.1241 11.4911C31.1026 11.0988 31.1979 10.7088 31.398 10.3706C31.598 10.0323 31.8938 9.76098 32.248 9.59075C32.4838 9.47744 32.7396 9.41176 33.0008 9.39749C33.262 9.38322 33.5234 9.42065 33.7701 9.5076C34.0168 9.59456 34.244 9.72934 34.4385 9.90423C34.633 10.0791 34.7911 10.2907 34.9037 10.5268V10.5268Z" fill="white"/>
<path d="M39.5743 15.9607C38.3553 13.421 35.8084 12.1077 33.8856 13.0582C31.9627 14.0088 31.3823 16.7733 32.5795 19.3202L39.5743 15.9607Z" fill="white"/>
<path d="M39.8872 30.6765C39.2371 31.2866 38.7826 32.0758 38.5813 32.9444C38.3799 33.8129 38.4407 34.7216 38.756 35.5556C39.0713 36.3895 39.6269 37.1112 40.3525 37.6293C41.0781 38.1473 41.941 38.4385 42.8322 38.466C43.7233 38.4934 44.6025 38.2559 45.3586 37.7834C46.1147 37.3109 46.7137 36.6248 47.0796 35.8118C47.4456 34.9989 47.5622 34.0956 47.4147 33.2163C47.2671 32.3371 46.8621 31.5213 46.2507 30.8724C45.4323 30.0035 44.3025 29.4949 43.1095 29.4582C41.9164 29.4215 40.7576 29.8596 39.8872 30.6765V30.6765Z" fill="#8464E3"/>
<path opacity="0.5" d="M39.8872 30.6765C39.2371 31.2866 38.7826 32.0758 38.5813 32.9444C38.3799 33.8129 38.4407 34.7216 38.756 35.5556C39.0713 36.3895 39.6269 37.1112 40.3525 37.6293C41.0781 38.1473 41.941 38.4385 42.8322 38.466C43.7233 38.4934 44.6025 38.2559 45.3586 37.7834C46.1147 37.3109 46.7137 36.6248 47.0796 35.8118C47.4456 34.9989 47.5622 34.0956 47.4147 33.2163C47.2671 32.3371 46.8621 31.5213 46.2507 30.8724C45.4323 30.0035 44.3025 29.4949 43.1095 29.4582C41.9164 29.4215 40.7576 29.8596 39.8872 30.6765V30.6765Z" fill="white"/>
<path d="M44.4178 33.8541C44.2864 33.9784 44.1211 34.061 43.9428 34.0914C43.7645 34.1218 43.5812 34.0986 43.4161 34.0248C43.251 33.951 43.1115 33.8298 43.0152 33.6767C42.9189 33.5235 42.8703 33.3453 42.8754 33.1645C42.8804 32.9837 42.939 32.8084 43.0437 32.6609C43.1484 32.5134 43.2945 32.4003 43.4635 32.3359C43.6325 32.2714 43.8169 32.2586 43.9932 32.2989C44.1695 32.3393 44.3299 32.431 44.4541 32.5625C44.6204 32.7387 44.71 32.9737 44.7032 33.2158C44.6964 33.458 44.5937 33.6876 44.4178 33.8541V33.8541Z" fill="white"/>
<path d="M42.7014 36.6472C43.6447 35.762 43.8624 34.4704 43.1876 33.7448C42.5128 33.0192 41.2212 33.1716 40.2852 34.0496L42.7014 36.6472Z" fill="white"/>
<path d="M23.2414 35.8605C23.6171 36.669 24.2241 37.348 24.9857 37.8115C25.7473 38.2749 26.6293 38.502 27.5201 38.464C28.4108 38.426 29.2703 38.1246 29.9897 37.598C30.7091 37.0713 31.2561 36.3431 31.5615 35.5055C31.8668 34.6679 31.9169 33.7585 31.7052 32.8924C31.4936 32.0263 31.0298 31.2425 30.3725 30.6401C29.7152 30.0378 28.894 29.6439 28.0128 29.5084C27.1316 29.3729 26.23 29.5019 25.4221 29.879C24.3405 30.3839 23.5035 31.2973 23.0946 32.4187C22.6858 33.5401 22.7386 34.7779 23.2414 35.8605V35.8605Z" fill="#8464E3"/>
<path opacity="0.5" d="M23.2414 35.8605C23.6171 36.669 24.2241 37.348 24.9857 37.8115C25.7473 38.2749 26.6293 38.502 27.5201 38.464C28.4108 38.426 29.2703 38.1246 29.9897 37.598C30.7091 37.0713 31.2561 36.3431 31.5615 35.5055C31.8668 34.6679 31.9169 33.7585 31.7052 32.8924C31.4936 32.0263 31.0298 31.2425 30.3725 30.6401C29.7152 30.0378 28.894 29.6439 28.0128 29.5084C27.1316 29.3729 26.23 29.5019 25.4221 29.879C24.3405 30.3839 23.5035 31.2973 23.0946 32.4187C22.6858 33.5401 22.7386 34.7779 23.2414 35.8605V35.8605Z" fill="white"/>
<path d="M27.6815 32.5604C27.7584 32.7241 27.785 32.907 27.758 33.0858C27.7309 33.2647 27.6514 33.4315 27.5296 33.5651C27.4077 33.6988 27.2489 33.7933 27.0733 33.8367C26.8978 33.8801 26.7132 33.8704 26.5431 33.8089C26.373 33.7475 26.225 33.6369 26.1178 33.4912C26.0105 33.3456 25.9489 33.1714 25.9407 32.9907C25.9324 32.81 25.978 32.6309 26.0716 32.4761C26.1652 32.3214 26.3026 32.1978 26.4664 32.1211C26.6858 32.0184 26.937 32.007 27.1648 32.0893C27.3927 32.1717 27.5785 32.3411 27.6815 32.5604V32.5604Z" fill="white"/>
<path d="M29.7913 35.066C29.2463 33.8927 28.088 33.2812 27.1875 33.6945C26.2869 34.1079 26.0268 35.3822 26.5671 36.5462L29.7913 35.066Z" fill="white"/>
<path d="M26.7344 55.354C26.7104 55.858 26.8364 56.3577 27.0965 56.7901C27.3565 57.2224 27.739 57.5678 28.1955 57.7827C28.652 57.9975 29.162 58.0721 29.6609 57.997C30.1598 57.922 30.6252 57.7006 30.9982 57.3609C31.3712 57.0212 31.6351 56.5785 31.7564 56.0888C31.8778 55.599 31.8511 55.0843 31.6798 54.6098C31.5085 54.1352 31.2003 53.7222 30.7941 53.4229C30.388 53.1236 29.9022 52.9514 29.3982 52.9283C28.7235 52.8974 28.064 53.1354 27.5646 53.5902C27.0652 54.045 26.7666 54.6794 26.7344 55.354V55.354Z" fill="#8464E3"/>
<path opacity="0.5" d="M26.7344 55.354C26.7104 55.858 26.8364 56.3577 27.0965 56.7901C27.3565 57.2224 27.739 57.5678 28.1955 57.7827C28.652 57.9975 29.162 58.0721 29.6609 57.997C30.1598 57.922 30.6252 57.7006 30.9982 57.3609C31.3712 57.0212 31.6351 56.5785 31.7564 56.0888C31.8778 55.599 31.8511 55.0843 31.6798 54.6098C31.5085 54.1352 31.2003 53.7222 30.7941 53.4229C30.388 53.1236 29.9022 52.9514 29.3982 52.9283C28.7235 52.8974 28.064 53.1354 27.5646 53.5902C27.0652 54.045 26.7666 54.6794 26.7344 55.354V55.354Z" fill="white"/>
<path d="M29.8305 54.8642C29.826 54.9665 29.7914 55.0651 29.7309 55.1477C29.6703 55.2302 29.5867 55.2929 29.4905 55.3279C29.3943 55.3629 29.2899 55.3686 29.1905 55.3443C29.0911 55.3199 29.0011 55.2666 28.932 55.1911C28.8629 55.1156 28.8177 55.0213 28.8022 54.9202C28.7867 54.819 28.8015 54.7155 28.8449 54.6228C28.8882 54.53 28.9581 54.4522 29.0456 54.3992C29.1332 54.3462 29.2345 54.3203 29.3367 54.3249C29.4737 54.331 29.6026 54.3913 29.6952 54.4924C29.7878 54.5935 29.8364 54.7272 29.8305 54.8642V54.8642Z" fill="white"/>
<path d="M30.2322 56.6757C30.2671 55.9445 29.8471 55.3338 29.2871 55.3045C28.7271 55.2752 28.2621 55.8457 28.2273 56.5711L30.2322 56.6757Z" fill="white"/>
<path d="M65.6508 46.3535C70.683 44.3029 73.1002 38.5611 71.0496 33.5288C68.9991 28.4965 63.2573 26.0793 58.225 28.1299C53.1927 30.1805 50.7756 35.9223 52.8261 40.9546C54.8767 45.9869 60.6185 48.404 65.6508 46.3535Z" fill="#8464E3"/>
<path opacity="0.5" d="M65.6508 46.3535C70.683 44.3029 73.1002 38.5611 71.0496 33.5288C68.9991 28.4965 63.2573 26.0793 58.225 28.1299C53.1927 30.1805 50.7756 35.9223 52.8261 40.9546C54.8767 45.9869 60.6185 48.404 65.6508 46.3535Z" fill="white"/>
<path d="M63.3651 33.8627C61.1883 32.9412 58.743 33.7466 57.9376 35.6695C57.6777 36.3438 57.6188 37.079 57.7682 37.786C57.9176 38.493 58.2688 39.1415 58.7793 39.6531C58.5172 39.9654 58.1871 40.2137 57.8142 40.3787C58.0979 40.4926 58.4019 40.5475 58.7076 40.54C59.0132 40.5326 59.3141 40.4628 59.5919 40.3351C59.8587 40.5159 60.1431 40.6691 60.4409 40.7923C62.6177 41.7138 65.063 40.9084 65.8684 38.9855C66.6738 37.0626 65.5564 34.7842 63.3651 33.8627Z" fill="white"/>
<path d="M45.586 52.1348C48.0821 51.1177 49.2811 48.2695 48.264 45.7733C47.2468 43.2771 44.3987 42.0781 41.9025 43.0953C39.4064 44.1124 38.2074 46.9606 39.2245 49.4568C40.2417 51.953 43.0898 53.152 45.586 52.1348Z" fill="#8464E3"/>
<path opacity="0.5" d="M45.586 52.1348C48.0821 51.1177 49.2811 48.2695 48.264 45.7733C47.2468 43.2771 44.3987 42.0781 41.9025 43.0953C39.4064 44.1124 38.2074 46.9606 39.2245 49.4568C40.2417 51.953 43.0898 53.152 45.586 52.1348Z" fill="white"/>
<path d="M44.4491 45.9396C43.3693 45.4825 42.1564 45.882 41.7568 46.8358C41.6279 47.1703 41.5988 47.535 41.6729 47.8857C41.747 48.2364 41.9212 48.5581 42.1744 48.8118C42.0444 48.9668 41.8806 49.0899 41.6957 49.1717C41.8364 49.2283 41.9872 49.2555 42.1388 49.2518C42.2904 49.2481 42.4397 49.2135 42.5775 49.1502C42.7098 49.2398 42.8509 49.3158 42.9986 49.3769C44.0784 49.834 45.2913 49.4345 45.6908 48.4807C46.0903 47.5269 45.536 46.3967 44.4491 45.9396Z" fill="white"/>
<path d="M50.2035 128.617C51.9769 125.51 50.8961 121.554 47.7895 119.781C44.6828 118.007 40.7267 119.088 38.9533 122.195C37.1798 125.301 38.2606 129.257 41.3673 131.031C44.4739 132.804 48.43 131.724 50.2035 128.617Z" fill="#8464E3"/>
<path opacity="0.5" d="M50.2035 128.617C51.9769 125.51 50.8961 121.554 47.7895 119.781C44.6828 118.007 40.7267 119.088 38.9533 122.195C37.1798 125.301 38.2606 129.257 41.3673 131.031C44.4739 132.804 48.43 131.724 50.2035 128.617Z" fill="white"/>
<path d="M45.0643 123.378C45.1757 123.611 45.2154 123.872 45.1783 124.128C45.1413 124.384 45.0292 124.624 44.8563 124.816C44.6833 125.009 44.4572 125.145 44.2066 125.209C43.9559 125.273 43.6919 125.261 43.448 125.176C43.204 125.09 42.9909 124.933 42.8358 124.726C42.6806 124.519 42.5903 124.271 42.5762 124.013C42.5621 123.754 42.6248 123.498 42.7565 123.275C42.8882 123.052 43.0829 122.874 43.3161 122.761C43.4713 122.687 43.6397 122.644 43.8116 122.634C43.9836 122.625 44.1557 122.65 44.3181 122.707C44.4805 122.764 44.63 122.853 44.7581 122.968C44.8861 123.083 44.9902 123.222 45.0643 123.378V123.378Z" fill="white"/>
<path d="M48.1433 126.955C47.3409 125.284 45.6643 124.419 44.3985 125.045C43.1327 125.67 42.7505 127.49 43.5387 129.167L48.1433 126.955Z" fill="white"/>
<path d="M58.1145 138.579C60.006 137.808 60.9145 135.65 60.1438 133.759C59.373 131.867 57.2148 130.959 55.3233 131.729C53.4318 132.5 52.5233 134.658 53.294 136.55C54.0648 138.441 56.223 139.35 58.1145 138.579Z" fill="#8464E3"/>
<path opacity="0.5" d="M58.1145 138.579C60.006 137.808 60.9145 135.65 60.1438 133.759C59.373 131.867 57.2148 130.959 55.3233 131.729C53.4318 132.5 52.5233 134.658 53.294 136.55C54.0648 138.441 56.223 139.35 58.1145 138.579Z" fill="white"/>
<path d="M57.2512 133.884C56.433 133.538 55.5139 133.84 55.2112 134.563C55.1135 134.817 55.0914 135.093 55.1475 135.359C55.2037 135.624 55.3357 135.868 55.5276 136.06C55.429 136.178 55.305 136.271 55.1648 136.333C55.2715 136.376 55.3857 136.397 55.5006 136.394C55.6155 136.391 55.7286 136.365 55.833 136.317C55.9333 136.385 56.0402 136.442 56.1521 136.489C56.9703 136.835 57.8894 136.532 58.1922 135.81C58.4949 135.087 58.0749 134.23 57.2512 133.884Z" fill="white"/>
<path d="M56.809 75.8391H29.8208L4.67969 54.0986H81.9501L56.809 75.8391Z" fill="#A491DF"/>
<path d="M56.816 75.8394L52.0151 109.33H34.6137L29.8203 75.8394H56.816Z" fill="#A491DF"/>
<path opacity="0.2" d="M81.9466 54.0986L56.8129 75.8391H29.8172L4.68359 54.0986H81.9466Z" fill="#A491DF"/>
<path opacity="0.2" d="M40.1145 109.33H34.6107L29.8172 75.8391L4.68359 54.0986H19.7967L37.4822 75.8391L40.1145 109.33Z" fill="#A491DF"/>
<path d="M81.6913 52.0186H4.92194C4.19919 52.0186 3.61328 52.52 3.61328 53.1385V55.0521C3.61328 55.6707 4.19919 56.1721 4.92194 56.1721H81.6913C82.4141 56.1721 83 55.6707 83 55.0521V53.1385C83 52.52 82.4141 52.0186 81.6913 52.0186Z" fill="#A491DF"/>
<path d="M51.9692 108.543H34.6575C34.0463 108.543 33.5508 108.967 33.5508 109.49V110.764C33.5508 111.287 34.0463 111.711 34.6575 111.711H51.9692C52.5804 111.711 53.0759 111.287 53.0759 110.764V109.49C53.0759 108.967 52.5804 108.543 51.9692 108.543Z" fill="#A491DF"/>
<path opacity="0.2" d="M51.9692 108.543H34.6575C34.0463 108.543 33.5508 108.967 33.5508 109.49V110.764C33.5508 111.287 34.0463 111.711 34.6575 111.711H51.9692C52.5804 111.711 53.0759 111.287 53.0759 110.764V109.49C53.0759 108.967 52.5804 108.543 51.9692 108.543Z" fill="#A491DF"/>
<rect x="243.742" y="102.569" width="36.66" height="36.6602" rx="18.33" fill="#C1B2F1"/>
<g clip-path="url(#clip1_3979_7786)">
<path fill-rule="evenodd" clip-rule="evenodd" d="M254.64 113.756C254.64 113.528 254.55 113.31 254.389 113.15C254.228 112.989 254.01 112.898 253.783 112.898C253.556 112.898 253.338 112.989 253.177 113.15C253.016 113.31 252.926 113.528 252.926 113.756V128.043C252.926 128.516 253.31 128.9 253.783 128.9H270.356C270.583 128.9 270.801 128.81 270.962 128.649C271.123 128.488 271.213 128.27 271.213 128.043C271.213 127.815 271.123 127.597 270.962 127.437C270.801 127.276 270.583 127.186 270.356 127.186H254.64V113.756ZM270.962 116.647C271.113 116.485 271.196 116.27 271.192 116.048C271.188 115.826 271.098 115.614 270.941 115.457C270.784 115.3 270.572 115.21 270.35 115.206C270.128 115.202 269.913 115.284 269.75 115.436L264.355 120.831L261.532 118.008C261.372 117.847 261.154 117.757 260.927 117.757C260.699 117.757 260.482 117.847 260.321 118.008L256.606 121.722C256.455 121.885 256.372 122.1 256.376 122.322C256.38 122.544 256.47 122.756 256.627 122.913C256.784 123.07 256.996 123.16 257.218 123.164C257.44 123.168 257.655 123.085 257.818 122.934L260.927 119.825L263.75 122.648C263.91 122.809 264.128 122.899 264.355 122.899C264.583 122.899 264.8 122.809 264.961 122.648L270.962 116.647V116.647Z" fill="white"/>
</g>
<defs>
<filter id="filter0_dd_3979_7786" x="88.7053" y="20.3526" width="201" height="111.142" filterUnits="userSpaceOnUse" color-interpolation-filters="sRGB">
<feFlood flood-opacity="0" result="BackgroundImageFix"/>
<feColorMatrix in="SourceAlpha" type="matrix" values="0 0 0 0 0 0 0 0 0 0 0 0 0 0 0 0 0 0 127 0" result="hardAlpha"/>
<feOffset dy="4.64736"/>
<feGaussianBlur stdDeviation="4.64736"/>
<feComposite in2="hardAlpha" operator="out"/>
<feColorMatrix type="matrix" values="0 0 0 0 0 0 0 0 0 0 0 0 0 0 0 0 0 0 0.05 0"/>
<feBlend mode="normal" in2="BackgroundImageFix" result="effect1_dropShadow_3979_7786"/>
<feColorMatrix in="SourceAlpha" type="matrix" values="0 0 0 0 0 0 0 0 0 0 0 0 0 0 0 0 0 0 127 0" result="hardAlpha"/>
<feOffset dy="2.32368"/>
<feGaussianBlur stdDeviation="2.32368"/>
<feComposite in2="hardAlpha" operator="out"/>
<feColorMatrix type="matrix" values="0 0 0 0 0 0 0 0 0 0 0 0 0 0 0 0 0 0 0.07 0"/>
<feBlend mode="normal" in2="effect1_dropShadow_3979_7786" result="effect2_dropShadow_3979_7786"/>
<feBlend mode="normal" in="SourceGraphic" in2="effect2_dropShadow_3979_7786" result="shape"/>
</filter>
<clipPath id="clip0_3979_7786">
<rect width="15.3106" height="15.3105" fill="white" transform="translate(247.52 59.7339) rotate(-90)"/>
</clipPath>
<clipPath id="clip1_3979_7786">
<rect width="18.2875" height="18.2876" fill="white" transform="translate(252.93 111.755)"/>
</clipPath>
</defs>
</svg>
