<svg width="295" height="147" viewBox="0 0 295 147" fill="none" xmlns="http://www.w3.org/2000/svg">
<g filter="url(#filter0_dd_3979_7751)">
<rect x="61.0586" y="6" width="226.547" height="130.287" rx="3.86604" fill="url(#paint0_radial_3979_7751)"/>
<rect x="61.0586" y="6" width="226.547" height="130.287" rx="3.86604" fill="white"/>
<path d="M87.3192 117.42V121.421H86.9133V118.226L85.4867 121.421H85.191L83.7644 118.238V121.421H83.3585V117.42H83.7876L85.3359 120.888L86.8843 117.42H87.3192ZM89.6261 121.468C89.3284 121.468 89.0597 121.402 88.82 121.271C88.5842 121.135 88.3967 120.946 88.2575 120.702C88.1222 120.455 88.0545 120.167 88.0545 119.838C88.0545 119.51 88.1241 119.224 88.2633 118.98C88.4025 118.733 88.5919 118.543 88.8316 118.412C89.0713 118.276 89.34 118.209 89.6377 118.209C89.9354 118.209 90.204 118.276 90.4437 118.412C90.6873 118.543 90.8767 118.733 91.012 118.98C91.1512 119.224 91.2208 119.51 91.2208 119.838C91.2208 120.163 91.1512 120.449 91.012 120.697C90.8729 120.944 90.6815 121.135 90.4379 121.271C90.1944 121.402 89.9238 121.468 89.6261 121.468ZM89.6261 121.114C89.8348 121.114 90.0281 121.068 90.206 120.975C90.3838 120.878 90.5269 120.735 90.6351 120.546C90.7472 120.352 90.8033 120.117 90.8033 119.838C90.8033 119.56 90.7492 119.326 90.6409 119.137C90.5327 118.943 90.3896 118.8 90.2118 118.707C90.0339 118.611 89.8406 118.562 89.6319 118.562C89.4231 118.562 89.2298 118.611 89.052 118.707C88.8741 118.8 88.7311 118.943 88.6228 119.137C88.5184 119.326 88.4663 119.56 88.4663 119.838C88.4663 120.117 88.5184 120.352 88.6228 120.546C88.7311 120.735 88.8722 120.878 89.0462 120.975C89.224 121.068 89.4173 121.114 89.6261 121.114ZM93.4453 118.197C93.8242 118.197 94.1335 118.315 94.3732 118.551C94.6129 118.783 94.7327 119.121 94.7327 119.566V121.421H94.3326V119.612C94.3326 119.268 94.2456 119.005 94.0716 118.823C93.9015 118.642 93.6676 118.551 93.37 118.551C93.0645 118.551 92.821 118.647 92.6393 118.841C92.4576 119.034 92.3667 119.318 92.3667 119.693V121.421H91.9608V118.255H92.3667V118.794C92.4672 118.601 92.6122 118.454 92.8016 118.354C92.9911 118.249 93.2056 118.197 93.4453 118.197Z" fill="#776181"/>
<path d="M120.035 117.368V117.704H118.91V121.421H118.504V117.704H117.373V117.368H120.035ZM123.419 118.255V121.421H123.013V120.865C122.92 121.062 122.777 121.213 122.584 121.317C122.391 121.421 122.174 121.474 121.934 121.474C121.555 121.474 121.246 121.358 121.006 121.126C120.767 120.89 120.647 120.55 120.647 120.105V118.255H121.047V120.059C121.047 120.403 121.132 120.666 121.302 120.847C121.476 121.029 121.712 121.12 122.01 121.12C122.315 121.12 122.559 121.023 122.74 120.83C122.922 120.637 123.013 120.352 123.013 119.977V118.255H123.419ZM127.21 119.676C127.21 119.815 127.207 119.921 127.199 119.995H124.572C124.583 120.235 124.641 120.439 124.746 120.61C124.85 120.78 124.987 120.909 125.158 120.998C125.328 121.083 125.513 121.126 125.714 121.126C125.977 121.126 126.197 121.062 126.375 120.934C126.557 120.807 126.677 120.635 126.735 120.418H127.164C127.087 120.727 126.92 120.981 126.665 121.178C126.414 121.371 126.097 121.468 125.714 121.468C125.417 121.468 125.15 121.402 124.914 121.271C124.678 121.135 124.493 120.946 124.357 120.702C124.226 120.455 124.16 120.167 124.16 119.838C124.16 119.51 124.226 119.222 124.357 118.974C124.489 118.727 124.672 118.537 124.908 118.406C125.144 118.274 125.413 118.209 125.714 118.209C126.016 118.209 126.279 118.274 126.503 118.406C126.731 118.537 126.905 118.715 127.025 118.939C127.149 119.16 127.21 119.405 127.21 119.676ZM126.799 119.664C126.803 119.428 126.754 119.227 126.654 119.061C126.557 118.895 126.424 118.769 126.254 118.684C126.083 118.599 125.898 118.557 125.697 118.557C125.395 118.557 125.138 118.653 124.926 118.847C124.713 119.04 124.595 119.312 124.572 119.664H126.799ZM129.043 121.468C128.68 121.468 128.382 121.385 128.15 121.218C127.922 121.048 127.795 120.818 127.768 120.528H128.185C128.204 120.706 128.288 120.851 128.434 120.963C128.585 121.072 128.786 121.126 129.038 121.126C129.258 121.126 129.43 121.073 129.554 120.969C129.681 120.865 129.745 120.735 129.745 120.581C129.745 120.472 129.71 120.383 129.641 120.314C129.571 120.244 129.482 120.19 129.374 120.151C129.269 120.109 129.126 120.064 128.945 120.018C128.709 119.956 128.518 119.894 128.371 119.832C128.224 119.771 128.098 119.68 127.994 119.56C127.893 119.436 127.843 119.272 127.843 119.067C127.843 118.912 127.889 118.769 127.982 118.638C128.075 118.506 128.206 118.402 128.376 118.325C128.547 118.247 128.74 118.209 128.956 118.209C129.297 118.209 129.571 118.296 129.78 118.47C129.989 118.64 130.101 118.876 130.116 119.177H129.71C129.699 118.992 129.625 118.843 129.49 118.731C129.358 118.615 129.177 118.557 128.945 118.557C128.74 118.557 128.574 118.605 128.446 118.702C128.318 118.798 128.255 118.918 128.255 119.061C128.255 119.185 128.291 119.287 128.365 119.369C128.442 119.446 128.537 119.508 128.649 119.554C128.761 119.597 128.912 119.645 129.101 119.699C129.329 119.761 129.511 119.821 129.646 119.879C129.782 119.937 129.898 120.022 129.994 120.134C130.091 120.246 130.141 120.395 130.145 120.581C130.145 120.751 130.099 120.903 130.006 121.039C129.913 121.17 129.784 121.274 129.617 121.352C129.451 121.429 129.26 121.468 129.043 121.468Z" fill="#776181"/>
<path d="M156.889 117.368L155.741 121.421H155.289L154.268 117.965L153.224 121.421L152.784 121.427L151.659 117.368H152.094L153.021 120.923L154.059 117.368H154.512L155.521 120.923L156.454 117.368H156.889ZM160.375 119.676C160.375 119.815 160.371 119.921 160.363 119.995H157.736C157.748 120.235 157.806 120.439 157.91 120.61C158.015 120.78 158.152 120.909 158.322 120.998C158.492 121.083 158.678 121.126 158.879 121.126C159.142 121.126 159.362 121.062 159.54 120.934C159.722 120.807 159.842 120.635 159.9 120.418H160.329C160.251 120.727 160.085 120.981 159.83 121.178C159.579 121.371 159.262 121.468 158.879 121.468C158.581 121.468 158.314 121.402 158.079 121.271C157.843 121.135 157.657 120.946 157.522 120.702C157.39 120.455 157.325 120.167 157.325 119.838C157.325 119.51 157.39 119.222 157.522 118.974C157.653 118.727 157.837 118.537 158.073 118.406C158.309 118.274 158.577 118.209 158.879 118.209C159.18 118.209 159.443 118.274 159.668 118.406C159.896 118.537 160.07 118.715 160.189 118.939C160.313 119.16 160.375 119.405 160.375 119.676ZM159.963 119.664C159.967 119.428 159.919 119.227 159.818 119.061C159.722 118.895 159.588 118.769 159.418 118.684C159.248 118.599 159.063 118.557 158.861 118.557C158.56 118.557 158.303 118.653 158.09 118.847C157.878 119.04 157.76 119.312 157.736 119.664H159.963ZM160.932 119.832C160.932 119.508 160.998 119.224 161.129 118.98C161.261 118.733 161.441 118.543 161.669 118.412C161.901 118.276 162.162 118.209 162.452 118.209C162.73 118.209 162.981 118.276 163.205 118.412C163.43 118.547 163.594 118.723 163.698 118.939V117.13H164.104V121.421H163.698V120.714C163.602 120.934 163.443 121.116 163.223 121.259C163.002 121.398 162.743 121.468 162.446 121.468C162.156 121.468 161.895 121.4 161.663 121.265C161.435 121.13 161.255 120.938 161.124 120.691C160.996 120.443 160.932 120.157 160.932 119.832ZM163.698 119.838C163.698 119.583 163.646 119.359 163.542 119.166C163.437 118.972 163.294 118.823 163.113 118.719C162.935 118.615 162.738 118.562 162.521 118.562C162.297 118.562 162.096 118.613 161.918 118.713C161.74 118.814 161.599 118.961 161.495 119.154C161.394 119.343 161.344 119.57 161.344 119.832C161.344 120.091 161.394 120.32 161.495 120.517C161.599 120.71 161.74 120.859 161.918 120.963C162.096 121.064 162.297 121.114 162.521 121.114C162.738 121.114 162.935 121.062 163.113 120.957C163.294 120.853 163.437 120.704 163.542 120.511C163.646 120.318 163.698 120.093 163.698 119.838Z" fill="#776181"/>
<path d="M190.265 117.368V117.704H189.14V121.421H188.734V117.704H187.604V117.368H190.265ZM192.414 118.197C192.654 118.197 192.868 118.247 193.058 118.348C193.251 118.448 193.402 118.603 193.51 118.812C193.622 119.017 193.678 119.268 193.678 119.566V121.421H193.278V119.612C193.278 119.268 193.191 119.005 193.017 118.823C192.847 118.642 192.613 118.551 192.316 118.551C192.01 118.551 191.767 118.647 191.585 118.841C191.403 119.034 191.312 119.318 191.312 119.693V121.421H190.906V117.13H191.312V118.794C191.413 118.605 191.56 118.458 191.753 118.354C191.95 118.249 192.171 118.197 192.414 118.197ZM197.319 118.255V121.421H196.913V120.865C196.82 121.062 196.677 121.213 196.484 121.317C196.291 121.421 196.074 121.474 195.835 121.474C195.456 121.474 195.146 121.358 194.907 121.126C194.667 120.89 194.547 120.55 194.547 120.105V118.255H194.947V120.059C194.947 120.403 195.032 120.666 195.202 120.847C195.376 121.029 195.612 121.12 195.91 121.12C196.215 121.12 196.459 121.023 196.641 120.83C196.822 120.637 196.913 120.352 196.913 119.977V118.255H197.319ZM198.652 118.818C198.741 118.62 198.876 118.468 199.058 118.359C199.243 118.251 199.469 118.197 199.736 118.197V118.62H199.626C199.332 118.62 199.096 118.7 198.919 118.858C198.741 119.017 198.652 119.282 198.652 119.653V121.421H198.246V118.255H198.652V118.818ZM201.437 121.468C201.074 121.468 200.776 121.385 200.544 121.218C200.316 121.048 200.188 120.818 200.161 120.528H200.579C200.598 120.706 200.681 120.851 200.828 120.963C200.979 121.072 201.18 121.126 201.431 121.126C201.652 121.126 201.824 121.073 201.947 120.969C202.075 120.865 202.139 120.735 202.139 120.581C202.139 120.472 202.104 120.383 202.034 120.314C201.965 120.244 201.876 120.19 201.768 120.151C201.663 120.109 201.52 120.064 201.339 120.018C201.103 119.956 200.911 119.894 200.764 119.832C200.618 119.771 200.492 119.68 200.387 119.56C200.287 119.436 200.237 119.272 200.237 119.067C200.237 118.912 200.283 118.769 200.376 118.638C200.469 118.506 200.6 118.402 200.77 118.325C200.94 118.247 201.134 118.209 201.35 118.209C201.69 118.209 201.965 118.296 202.174 118.47C202.382 118.64 202.494 118.876 202.51 119.177H202.104C202.092 118.992 202.019 118.843 201.884 118.731C201.752 118.615 201.57 118.557 201.339 118.557C201.134 118.557 200.967 118.605 200.84 118.702C200.712 118.798 200.648 118.918 200.648 119.061C200.648 119.185 200.685 119.287 200.759 119.369C200.836 119.446 200.931 119.508 201.043 119.554C201.155 119.597 201.306 119.645 201.495 119.699C201.723 119.761 201.905 119.821 202.04 119.879C202.176 119.937 202.292 120.022 202.388 120.134C202.485 120.246 202.535 120.395 202.539 120.581C202.539 120.751 202.493 120.903 202.4 121.039C202.307 121.17 202.177 121.274 202.011 121.352C201.845 121.429 201.654 121.468 201.437 121.468Z" fill="#776181"/>
<path d="M223.582 117.368V117.704H221.796V119.218H223.303V119.554H221.796V121.421H221.39V117.368H223.582ZM224.656 118.818C224.744 118.62 224.88 118.468 225.061 118.359C225.247 118.251 225.473 118.197 225.74 118.197V118.62H225.63C225.336 118.62 225.1 118.7 224.922 118.858C224.744 119.017 224.656 119.282 224.656 119.653V121.421H224.25V118.255H224.656V118.818ZM226.554 117.658C226.472 117.658 226.403 117.629 226.345 117.571C226.287 117.513 226.258 117.441 226.258 117.356C226.258 117.271 226.287 117.202 226.345 117.147C226.403 117.089 226.472 117.06 226.554 117.06C226.635 117.06 226.704 117.089 226.762 117.147C226.82 117.202 226.849 117.271 226.849 117.356C226.849 117.441 226.82 117.513 226.762 117.571C226.704 117.629 226.635 117.658 226.554 117.658ZM226.757 118.255V121.421H226.351V118.255H226.757Z" fill="#776181"/>
<path d="M256.924 121.462C256.657 121.462 256.421 121.416 256.216 121.323C256.015 121.23 255.857 121.101 255.741 120.934C255.625 120.768 255.563 120.582 255.555 120.378H255.984C256.004 120.575 256.091 120.749 256.245 120.899C256.4 121.046 256.626 121.12 256.924 121.12C257.198 121.12 257.415 121.05 257.573 120.911C257.736 120.768 257.817 120.588 257.817 120.372C257.817 120.198 257.772 120.059 257.683 119.954C257.595 119.846 257.484 119.767 257.353 119.716C257.221 119.662 257.04 119.604 256.808 119.542C256.537 119.469 256.323 119.398 256.164 119.328C256.006 119.258 255.87 119.15 255.758 119.003C255.646 118.856 255.59 118.657 255.59 118.406C255.59 118.197 255.644 118.012 255.752 117.849C255.861 117.683 256.013 117.553 256.211 117.461C256.408 117.368 256.634 117.321 256.889 117.321C257.264 117.321 257.566 117.414 257.794 117.6C258.026 117.782 258.159 118.017 258.194 118.307H257.753C257.726 118.141 257.635 117.994 257.481 117.867C257.326 117.735 257.117 117.669 256.854 117.669C256.611 117.669 256.408 117.735 256.245 117.867C256.083 117.994 256.002 118.17 256.002 118.394C256.002 118.564 256.046 118.702 256.135 118.806C256.224 118.91 256.334 118.99 256.466 119.044C256.601 119.098 256.783 119.156 257.011 119.218C257.274 119.291 257.486 119.365 257.649 119.438C257.811 119.508 257.948 119.616 258.06 119.763C258.173 119.91 258.229 120.107 258.229 120.354C258.229 120.544 258.178 120.724 258.078 120.894C257.977 121.064 257.828 121.201 257.631 121.305C257.434 121.41 257.198 121.462 256.924 121.462ZM258.827 119.832C258.827 119.508 258.891 119.224 259.019 118.98C259.15 118.733 259.33 118.543 259.558 118.412C259.79 118.276 260.051 118.209 260.341 118.209C260.643 118.209 260.902 118.278 261.118 118.417C261.338 118.557 261.497 118.734 261.594 118.951V118.255H262V121.421H261.594V120.72C261.493 120.936 261.333 121.116 261.112 121.259C260.896 121.398 260.637 121.468 260.335 121.468C260.049 121.468 259.79 121.4 259.558 121.265C259.33 121.13 259.15 120.938 259.019 120.691C258.891 120.443 258.827 120.157 258.827 119.832ZM261.594 119.838C261.594 119.583 261.541 119.359 261.437 119.166C261.333 118.972 261.19 118.823 261.008 118.719C260.83 118.615 260.633 118.562 260.416 118.562C260.192 118.562 259.991 118.613 259.813 118.713C259.635 118.814 259.494 118.961 259.39 119.154C259.289 119.343 259.239 119.57 259.239 119.832C259.239 120.091 259.289 120.32 259.39 120.517C259.494 120.71 259.635 120.859 259.813 120.963C259.991 121.064 260.192 121.114 260.416 121.114C260.633 121.114 260.83 121.062 261.008 120.957C261.19 120.853 261.333 120.704 261.437 120.511C261.541 120.318 261.594 120.093 261.594 119.838ZM263.454 118.597V120.563C263.454 120.756 263.491 120.89 263.564 120.963C263.638 121.037 263.767 121.073 263.953 121.073H264.324V121.421H263.889C263.603 121.421 263.39 121.356 263.251 121.224C263.112 121.089 263.042 120.869 263.042 120.563V118.597H262.601V118.255H263.042V117.461H263.454V118.255H264.324V118.597H263.454Z" fill="#776181"/>
<path d="M90.582 101.072L124.969 86.5078L158.951 53.334L190.506 101.072L225.297 71.9437L256.851 82.4622" stroke="#CF8CF8" stroke-width="0.809108" stroke-linecap="round"/>
<path d="M126.378 86.1026C126.378 86.8846 125.744 87.5186 124.962 87.5186C124.18 87.5186 123.546 86.8846 123.546 86.1026C123.546 85.3206 124.18 84.6867 124.962 84.6867C125.744 84.6867 126.378 85.3206 126.378 86.1026Z" fill="white" stroke="#F1D9FF" stroke-width="0.404554"/>
<path d="M93.206 100.667C93.206 101.449 92.5721 102.083 91.7901 102.083C91.0081 102.083 90.3742 101.449 90.3742 100.667C90.3742 99.8846 91.0081 99.2506 91.7901 99.2506C92.5721 99.2506 93.206 99.8846 93.206 100.667Z" fill="white" stroke="#F1D9FF" stroke-width="0.404554"/>
<path d="M160.374 53.7384C160.374 54.5204 159.74 55.1543 158.958 55.1543C158.176 55.1543 157.542 54.5204 157.542 53.7384C157.542 52.9563 158.176 52.3224 158.958 52.3224C159.74 52.3224 160.374 52.9563 160.374 53.7384Z" fill="#BF62F9" stroke="#BF62F9" stroke-width="0.404554"/>
<path d="M192.733 101.477C192.733 102.259 192.099 102.893 191.317 102.893C190.535 102.893 189.901 102.259 189.901 101.477C189.901 100.695 190.535 100.061 191.317 100.061C192.099 100.061 192.733 100.695 192.733 101.477Z" fill="white" stroke="#F1D9FF" stroke-width="0.404554"/>
<path d="M258.265 82.8668C258.265 83.6488 257.631 84.2827 256.849 84.2827C256.067 84.2827 255.433 83.6488 255.433 82.8668C255.433 82.0848 256.067 81.4508 256.849 81.4508C257.631 81.4508 258.265 82.0848 258.265 82.8668Z" fill="white" stroke="#F1D9FF" stroke-width="0.404554"/>
<path d="M226.722 72.3472C226.722 73.1293 226.088 73.7632 225.306 73.7632C224.524 73.7632 223.89 73.1293 223.89 72.3472C223.89 71.5652 224.524 70.9313 225.306 70.9313C226.088 70.9313 226.722 71.5652 226.722 72.3472Z" fill="white" stroke="#F1D9FF" stroke-width="0.404554"/>
<g opacity="0.7">
<line x1="83.1096" y1="46.2454" x2="265.556" y2="46.2454" stroke="#240631" stroke-opacity="0.1" stroke-width="0.422335" stroke-linecap="round" stroke-dasharray="2.11 2.11"/>
<line x1="83.1096" y1="64.8279" x2="265.556" y2="64.8279" stroke="#240631" stroke-opacity="0.1" stroke-width="0.422335" stroke-linecap="round" stroke-dasharray="2.11 2.11"/>
<line x1="83.1096" y1="83.4109" x2="265.556" y2="83.4109" stroke="#240631" stroke-opacity="0.1" stroke-width="0.422335" stroke-linecap="round" stroke-dasharray="2.11 2.11"/>
<line x1="83.1096" y1="101.994" x2="265.556" y2="101.994" stroke="#240631" stroke-opacity="0.1" stroke-width="0.422335" stroke-linecap="round" stroke-dasharray="2.11 2.11"/>
</g>
<g filter="url(#filter1_dd_3979_7751)">
<rect x="150.991" y="40.9247" width="15.1094" height="7.82778" rx="0.921893" fill="white"/>
<path d="M155.109 45.9302C155.445 45.6601 155.709 45.4389 155.899 45.2668C156.09 45.092 156.25 44.9105 156.38 44.7225C156.513 44.5318 156.579 44.3451 156.579 44.1623C156.579 43.9902 156.536 43.8551 156.452 43.7571C156.37 43.6565 156.236 43.6062 156.05 43.6062C155.87 43.6062 155.73 43.6631 155.629 43.777C155.531 43.8882 155.478 44.0379 155.47 44.2259H155.121C155.131 43.9293 155.221 43.7002 155.391 43.5386C155.56 43.3771 155.779 43.2963 156.046 43.2963C156.319 43.2963 156.535 43.3718 156.694 43.5227C156.856 43.6737 156.936 43.8816 156.936 44.1465C156.936 44.3663 156.87 44.5808 156.738 44.79C156.608 44.9966 156.46 45.1794 156.293 45.3383C156.126 45.4945 155.913 45.6773 155.653 45.8865H157.02V46.1884H155.109V45.9302ZM157.438 44.7543C157.438 44.2987 157.512 43.9438 157.66 43.6896C157.808 43.4327 158.068 43.3042 158.439 43.3042C158.807 43.3042 159.065 43.4327 159.213 43.6896C159.362 43.9438 159.436 44.2987 159.436 44.7543C159.436 45.2178 159.362 45.578 159.213 45.8349C159.065 46.0918 158.807 46.2202 158.439 46.2202C158.068 46.2202 157.808 46.0918 157.66 45.8349C157.512 45.578 157.438 45.2178 157.438 44.7543ZM159.078 44.7543C159.078 44.5239 159.062 44.3292 159.031 44.1703C159.002 44.0087 158.939 43.879 158.844 43.781C158.751 43.683 158.616 43.634 158.439 43.634C158.259 43.634 158.121 43.683 158.026 43.781C157.933 43.879 157.871 44.0087 157.839 44.1703C157.81 44.3292 157.795 44.5239 157.795 44.7543C157.795 44.9926 157.81 45.1926 157.839 45.3542C157.871 45.5157 157.933 45.6455 158.026 45.7435C158.121 45.8415 158.259 45.8905 158.439 45.8905C158.616 45.8905 158.751 45.8415 158.844 45.7435C158.939 45.6455 159.002 45.5157 159.031 45.3542C159.062 45.1926 159.078 44.9926 159.078 44.7543ZM161.494 46.2202L160.353 44.9569V46.2202H159.992V43.4512H160.353V44.7344L161.497 43.4512H161.954L160.699 44.8377L161.966 46.2202H161.494Z" fill="#6D07AB"/>
<rect x="150.991" y="40.9247" width="15.1094" height="7.82778" rx="0.921893" stroke="white" stroke-width="0.263398"/>
<path fill-rule="evenodd" clip-rule="evenodd" d="M158.173 50.6187C158.378 50.8244 158.712 50.8244 158.918 50.6187L160.652 48.884L156.438 48.884L158.173 50.6187Z" fill="white"/>
</g>
<path d="M110.253 25.9453H109.5L107.233 22.5157V25.9453H106.48V21.346H107.233L109.5 24.7691V21.346H110.253V25.9453ZM112.822 26.0048C112.478 26.0048 112.168 25.9277 111.89 25.7735C111.613 25.6149 111.395 25.3946 111.236 25.1127C111.077 24.8263 110.998 24.4959 110.998 24.1215C110.998 23.7514 111.08 23.4232 111.243 23.1368C111.406 22.8505 111.628 22.6302 111.91 22.476C112.192 22.3218 112.507 22.2447 112.855 22.2447C113.203 22.2447 113.518 22.3218 113.8 22.476C114.082 22.6302 114.304 22.8505 114.467 23.1368C114.63 23.4232 114.712 23.7514 114.712 24.1215C114.712 24.4915 114.628 24.8197 114.461 25.1061C114.293 25.3924 114.064 25.6149 113.773 25.7735C113.487 25.9277 113.17 26.0048 112.822 26.0048ZM112.822 25.3506C113.016 25.3506 113.196 25.3043 113.364 25.2118C113.536 25.1193 113.674 24.9805 113.78 24.7955C113.886 24.6105 113.939 24.3858 113.939 24.1215C113.939 23.8571 113.888 23.6347 113.787 23.454C113.685 23.269 113.551 23.1302 113.384 23.0377C113.216 22.9452 113.036 22.8989 112.842 22.8989C112.648 22.8989 112.467 22.9452 112.3 23.0377C112.137 23.1302 112.007 23.269 111.91 23.454C111.813 23.6347 111.765 23.8571 111.765 24.1215C111.765 24.5135 111.864 24.8175 112.062 25.0334C112.265 25.2448 112.518 25.3506 112.822 25.3506ZM115.76 25.9916C115.624 25.9916 115.509 25.9453 115.417 25.8528C115.324 25.7603 115.278 25.6457 115.278 25.5092C115.278 25.3726 115.324 25.2581 115.417 25.1655C115.509 25.073 115.624 25.0268 115.76 25.0268C115.893 25.0268 116.005 25.073 116.098 25.1655C116.19 25.2581 116.236 25.3726 116.236 25.5092C116.236 25.6457 116.19 25.7603 116.098 25.8528C116.005 25.9453 115.893 25.9916 115.76 25.9916ZM120.346 26.0048C120.003 26.0048 119.692 25.9277 119.415 25.7735C119.137 25.6149 118.919 25.3946 118.76 25.1127C118.602 24.8263 118.523 24.4959 118.523 24.1215C118.523 23.7514 118.604 23.4232 118.767 23.1368C118.93 22.8505 119.153 22.6302 119.434 22.476C119.716 22.3218 120.031 22.2447 120.379 22.2447C120.727 22.2447 121.042 22.3218 121.324 22.476C121.606 22.6302 121.829 22.8505 121.992 23.1368C122.155 23.4232 122.236 23.7514 122.236 24.1215C122.236 24.4915 122.153 24.8197 121.985 25.1061C121.818 25.3924 121.589 25.6149 121.298 25.7735C121.012 25.9277 120.694 26.0048 120.346 26.0048ZM120.346 25.3506C120.54 25.3506 120.721 25.3043 120.888 25.2118C121.06 25.1193 121.199 24.9805 121.305 24.7955C121.41 24.6105 121.463 24.3858 121.463 24.1215C121.463 23.8571 121.413 23.6347 121.311 23.454C121.21 23.269 121.076 23.1302 120.908 23.0377C120.741 22.9452 120.56 22.8989 120.366 22.8989C120.172 22.8989 119.992 22.9452 119.824 23.0377C119.661 23.1302 119.531 23.269 119.434 23.454C119.338 23.6347 119.289 23.8571 119.289 24.1215C119.289 24.5135 119.388 24.8175 119.586 25.0334C119.789 25.2448 120.042 25.3506 120.346 25.3506ZM124.508 22.9188H123.834V25.9453H123.074V22.9188H122.644V22.3042H123.074V22.0465C123.074 21.628 123.184 21.324 123.404 21.1346C123.629 20.9407 123.979 20.8438 124.455 20.8438V21.4716C124.226 21.4716 124.065 21.5156 123.972 21.6037C123.88 21.6874 123.834 21.835 123.834 22.0465V22.3042H124.508V22.9188ZM127.645 22.8395C127.773 22.6721 127.947 22.5311 128.167 22.4165C128.387 22.302 128.636 22.2447 128.914 22.2447C129.231 22.2447 129.52 22.324 129.78 22.4826C130.044 22.6368 130.251 22.8549 130.401 23.1368C130.55 23.4188 130.625 23.7426 130.625 24.1082C130.625 24.4739 130.55 24.8021 130.401 25.0929C130.251 25.3792 130.044 25.6039 129.78 25.7669C129.52 25.9255 129.231 26.0048 128.914 26.0048C128.636 26.0048 128.39 25.9497 128.174 25.8396C127.958 25.725 127.782 25.5841 127.645 25.4167V27.6767H126.892V22.3042H127.645V22.8395ZM129.859 24.1082C129.859 23.8571 129.806 23.6413 129.7 23.4606C129.599 23.2756 129.462 23.1368 129.291 23.0443C129.123 22.9474 128.942 22.8989 128.749 22.8989C128.559 22.8989 128.379 22.9474 128.207 23.0443C128.039 23.1412 127.903 23.2822 127.797 23.4672C127.696 23.6523 127.645 23.8703 127.645 24.1215C127.645 24.3726 127.696 24.5928 127.797 24.7823C127.903 24.9673 128.039 25.1083 128.207 25.2052C128.379 25.3021 128.559 25.3506 128.749 25.3506C128.942 25.3506 129.123 25.3021 129.291 25.2052C129.462 25.1039 129.599 24.9585 129.7 24.7691C129.806 24.5796 129.859 24.3594 129.859 24.1082ZM134.707 24.0356C134.707 24.1721 134.699 24.2955 134.681 24.4056H131.899C131.921 24.6964 132.029 24.9299 132.223 25.1061C132.417 25.2823 132.655 25.3704 132.936 25.3704C133.342 25.3704 133.628 25.2008 133.796 24.8616H134.608C134.498 25.1964 134.298 25.4717 134.007 25.6876C133.721 25.8991 133.364 26.0048 132.936 26.0048C132.588 26.0048 132.276 25.9277 131.998 25.7735C131.725 25.6149 131.509 25.3946 131.351 25.1127C131.196 24.8263 131.119 24.4959 131.119 24.1215C131.119 23.747 131.194 23.4188 131.344 23.1368C131.498 22.8505 131.712 22.6302 131.985 22.476C132.262 22.3218 132.58 22.2447 132.936 22.2447C133.28 22.2447 133.586 22.3196 133.855 22.4694C134.124 22.6192 134.333 22.8307 134.483 23.1038C134.633 23.3725 134.707 23.6831 134.707 24.0356ZM133.921 23.7977C133.917 23.5201 133.818 23.2976 133.624 23.1302C133.43 22.9628 133.19 22.8791 132.903 22.8791C132.644 22.8791 132.421 22.9628 132.236 23.1302C132.051 23.2932 131.941 23.5157 131.906 23.7977H133.921ZM137.028 26.0048C136.685 26.0048 136.374 25.9277 136.096 25.7735C135.819 25.6149 135.601 25.3946 135.442 25.1127C135.284 24.8263 135.204 24.4959 135.204 24.1215C135.204 23.7514 135.286 23.4232 135.449 23.1368C135.612 22.8505 135.834 22.6302 136.116 22.476C136.398 22.3218 136.713 22.2447 137.061 22.2447C137.409 22.2447 137.724 22.3218 138.006 22.476C138.288 22.6302 138.511 22.8505 138.674 23.1368C138.837 23.4232 138.918 23.7514 138.918 24.1215C138.918 24.4915 138.834 24.8197 138.667 25.1061C138.5 25.3924 138.271 25.6149 137.98 25.7735C137.693 25.9277 137.376 26.0048 137.028 26.0048ZM137.028 25.3506C137.222 25.3506 137.403 25.3043 137.57 25.2118C137.742 25.1193 137.881 24.9805 137.986 24.7955C138.092 24.6105 138.145 24.3858 138.145 24.1215C138.145 23.8571 138.094 23.6347 137.993 23.454C137.892 23.269 137.757 23.1302 137.59 23.0377C137.422 22.9452 137.242 22.8989 137.048 22.8989C136.854 22.8989 136.674 22.9452 136.506 23.0377C136.343 23.1302 136.213 23.269 136.116 23.454C136.019 23.6347 135.971 23.8571 135.971 24.1215C135.971 24.5135 136.07 24.8175 136.268 25.0334C136.471 25.2448 136.724 25.3506 137.028 25.3506ZM140.416 22.8395C140.544 22.6721 140.718 22.5311 140.938 22.4165C141.158 22.302 141.407 22.2447 141.685 22.2447C142.002 22.2447 142.291 22.324 142.551 22.4826C142.815 22.6368 143.022 22.8549 143.172 23.1368C143.322 23.4188 143.396 23.7426 143.396 24.1082C143.396 24.4739 143.322 24.8021 143.172 25.0929C143.022 25.3792 142.815 25.6039 142.551 25.7669C142.291 25.9255 142.002 26.0048 141.685 26.0048C141.407 26.0048 141.161 25.9497 140.945 25.8396C140.729 25.725 140.553 25.5841 140.416 25.4167V27.6767H139.663V22.3042H140.416V22.8395ZM142.63 24.1082C142.63 23.8571 142.577 23.6413 142.471 23.4606C142.37 23.2756 142.233 23.1368 142.062 23.0443C141.894 22.9474 141.714 22.8989 141.52 22.8989C141.33 22.8989 141.15 22.9474 140.978 23.0443C140.81 23.1412 140.674 23.2822 140.568 23.4672C140.467 23.6523 140.416 23.8703 140.416 24.1215C140.416 24.3726 140.467 24.5928 140.568 24.7823C140.674 24.9673 140.81 25.1083 140.978 25.2052C141.15 25.3021 141.33 25.3506 141.52 25.3506C141.714 25.3506 141.894 25.3021 142.062 25.2052C142.233 25.1039 142.37 24.9585 142.471 24.7691C142.577 24.5796 142.63 24.3594 142.63 24.1082ZM144.895 21.0553V25.9453H144.141V21.0553H144.895ZM149.221 24.0356C149.221 24.1721 149.212 24.2955 149.194 24.4056H146.412C146.434 24.6964 146.542 24.9299 146.736 25.1061C146.93 25.2823 147.168 25.3704 147.45 25.3704C147.855 25.3704 148.142 25.2008 148.309 24.8616H149.122C149.012 25.1964 148.811 25.4717 148.52 25.6876C148.234 25.8991 147.877 26.0048 147.45 26.0048C147.102 26.0048 146.789 25.9277 146.512 25.7735C146.238 25.6149 146.023 25.3946 145.864 25.1127C145.71 24.8263 145.633 24.4959 145.633 24.1215C145.633 23.747 145.708 23.4188 145.857 23.1368C146.012 22.8505 146.225 22.6302 146.498 22.476C146.776 22.3218 147.093 22.2447 147.45 22.2447C147.794 22.2447 148.1 22.3196 148.368 22.4694C148.637 22.6192 148.846 22.8307 148.996 23.1038C149.146 23.3725 149.221 23.6831 149.221 24.0356ZM148.435 23.7977C148.43 23.5201 148.331 23.2976 148.137 23.1302C147.943 22.9628 147.703 22.8791 147.417 22.8791C147.157 22.8791 146.934 22.9628 146.749 23.1302C146.564 23.2932 146.454 23.5157 146.419 23.7977H148.435ZM153 26.0048C152.714 26.0048 152.456 25.9541 152.227 25.8528C152.003 25.7471 151.824 25.6061 151.692 25.4299C151.56 25.2493 151.489 25.0488 151.481 24.8285H152.26C152.274 24.9827 152.346 25.1127 152.478 25.2184C152.615 25.3197 152.785 25.3704 152.987 25.3704C153.199 25.3704 153.362 25.3308 153.476 25.2515C153.595 25.1678 153.655 25.062 153.655 24.9343C153.655 24.7977 153.589 24.6964 153.456 24.6303C153.329 24.5642 153.124 24.4915 152.842 24.4122C152.569 24.3373 152.346 24.2646 152.174 24.1941C152.003 24.1237 151.853 24.0157 151.725 23.8703C151.602 23.725 151.54 23.5333 151.54 23.2954C151.54 23.1016 151.597 22.9254 151.712 22.7668C151.826 22.6038 151.989 22.476 152.201 22.3835C152.417 22.291 152.663 22.2447 152.941 22.2447C153.355 22.2447 153.688 22.3505 153.939 22.5619C154.194 22.769 154.331 23.0531 154.349 23.4144H153.595C153.582 23.2514 153.516 23.1214 153.397 23.0245C153.278 22.9276 153.117 22.8791 152.915 22.8791C152.716 22.8791 152.564 22.9166 152.459 22.9915C152.353 23.0664 152.3 23.1655 152.3 23.2888C152.3 23.3857 152.335 23.4672 152.406 23.5333C152.476 23.5994 152.562 23.6523 152.663 23.6919C152.765 23.7272 152.915 23.7734 153.113 23.8307C153.377 23.9012 153.593 23.9739 153.76 24.0488C153.932 24.1193 154.08 24.225 154.203 24.366C154.327 24.5069 154.39 24.6942 154.395 24.9277C154.395 25.1347 154.338 25.3197 154.223 25.4827C154.108 25.6457 153.945 25.7735 153.734 25.866C153.527 25.9585 153.282 26.0048 153 26.0048ZM158.506 22.3042V25.9453H157.753V25.5158C157.634 25.6656 157.478 25.7845 157.284 25.8726C157.094 25.9563 156.892 25.9982 156.676 25.9982C156.389 25.9982 156.132 25.9387 155.903 25.8198C155.678 25.7008 155.5 25.5246 155.367 25.2911C155.24 25.0576 155.176 24.7757 155.176 24.4453V22.3042H155.922V24.3329C155.922 24.6589 156.004 24.91 156.167 25.0862C156.33 25.2581 156.552 25.344 156.834 25.344C157.116 25.344 157.339 25.2581 157.502 25.0862C157.669 24.91 157.753 24.6589 157.753 24.3329V22.3042H158.506ZM160.254 22.8461C160.381 22.6699 160.555 22.5267 160.776 22.4165C161 22.302 161.249 22.2447 161.522 22.2447C161.844 22.2447 162.135 22.3218 162.395 22.476C162.655 22.6302 162.859 22.8505 163.009 23.1368C163.159 23.4188 163.234 23.7426 163.234 24.1082C163.234 24.4739 163.159 24.8021 163.009 25.0929C162.859 25.3792 162.652 25.6039 162.388 25.7669C162.128 25.9255 161.84 26.0048 161.522 26.0048C161.24 26.0048 160.989 25.9497 160.769 25.8396C160.553 25.7294 160.381 25.5885 160.254 25.4167V25.9453H159.5V21.0553H160.254V22.8461ZM162.467 24.1082C162.467 23.8571 162.414 23.6413 162.309 23.4606C162.207 23.2756 162.071 23.1368 161.899 23.0443C161.732 22.9474 161.551 22.8989 161.357 22.8989C161.168 22.8989 160.987 22.9474 160.815 23.0443C160.648 23.1412 160.511 23.2822 160.406 23.4672C160.304 23.6523 160.254 23.8703 160.254 24.1215C160.254 24.3726 160.304 24.5928 160.406 24.7823C160.511 24.9673 160.648 25.1083 160.815 25.2052C160.987 25.3021 161.168 25.3506 161.357 25.3506C161.551 25.3506 161.732 25.3021 161.899 25.2052C162.071 25.1039 162.207 24.9585 162.309 24.7691C162.414 24.5796 162.467 24.3594 162.467 24.1082ZM168.386 22.2447C168.673 22.2447 168.928 22.3042 169.153 22.4232C169.382 22.5421 169.561 22.7183 169.688 22.9518C169.82 23.1853 169.887 23.4672 169.887 23.7977V25.9453H169.14V23.91C169.14 23.584 169.058 23.3351 168.895 23.1633C168.732 22.9871 168.51 22.8989 168.228 22.8989C167.946 22.8989 167.721 22.9871 167.554 23.1633C167.391 23.3351 167.309 23.584 167.309 23.91V25.9453H166.563V23.91C166.563 23.584 166.481 23.3351 166.318 23.1633C166.155 22.9871 165.933 22.8989 165.651 22.8989C165.369 22.8989 165.144 22.9871 164.977 23.1633C164.814 23.3351 164.732 23.584 164.732 23.91V25.9453H163.979V22.3042H164.732V22.7205C164.856 22.5707 165.012 22.454 165.201 22.3703C165.391 22.2866 165.593 22.2447 165.809 22.2447C166.1 22.2447 166.36 22.3064 166.589 22.4298C166.818 22.5531 166.994 22.7315 167.118 22.965C167.228 22.7448 167.4 22.5707 167.633 22.443C167.867 22.3108 168.118 22.2447 168.386 22.2447ZM171.228 21.8218C171.092 21.8218 170.977 21.7756 170.885 21.683C170.792 21.5905 170.746 21.476 170.746 21.3394C170.746 21.2028 170.792 21.0883 170.885 20.9958C170.977 20.9033 171.092 20.857 171.228 20.857C171.361 20.857 171.473 20.9033 171.565 20.9958C171.658 21.0883 171.704 21.2028 171.704 21.3394C171.704 21.476 171.658 21.5905 171.565 21.683C171.473 21.7756 171.361 21.8218 171.228 21.8218ZM171.598 22.3042V25.9453H170.845V22.3042H171.598ZM173.466 22.9188V24.9343C173.466 25.0708 173.497 25.17 173.559 25.2316C173.625 25.2889 173.735 25.3175 173.889 25.3175H174.352V25.9453H173.757C173.418 25.9453 173.158 25.866 172.977 25.7074C172.797 25.5488 172.706 25.2911 172.706 24.9343V22.9188H172.277V22.3042H172.706V21.3989H173.466V22.3042H174.352V22.9188H173.466ZM175.925 22.9188V24.9343C175.925 25.0708 175.956 25.17 176.018 25.2316C176.084 25.2889 176.194 25.3175 176.348 25.3175H176.811V25.9453H176.216C175.877 25.9453 175.617 25.866 175.436 25.7074C175.255 25.5488 175.165 25.2911 175.165 24.9343V22.9188H174.736V22.3042H175.165V21.3989H175.925V22.3042H176.811V22.9188H175.925ZM180.842 24.0356C180.842 24.1721 180.833 24.2955 180.816 24.4056H178.034C178.056 24.6964 178.164 24.9299 178.357 25.1061C178.551 25.2823 178.789 25.3704 179.071 25.3704C179.476 25.3704 179.763 25.2008 179.93 24.8616H180.743C180.633 25.1964 180.432 25.4717 180.142 25.6876C179.855 25.8991 179.498 26.0048 179.071 26.0048C178.723 26.0048 178.41 25.9277 178.133 25.7735C177.86 25.6149 177.644 25.3946 177.485 25.1127C177.331 24.8263 177.254 24.4959 177.254 24.1215C177.254 23.747 177.329 23.4188 177.479 23.1368C177.633 22.8505 177.846 22.6302 178.119 22.476C178.397 22.3218 178.714 22.2447 179.071 22.2447C179.415 22.2447 179.721 22.3196 179.99 22.4694C180.258 22.6192 180.468 22.8307 180.617 23.1038C180.767 23.3725 180.842 23.6831 180.842 24.0356ZM180.056 23.7977C180.051 23.5201 179.952 23.2976 179.758 23.1302C179.564 22.9628 179.324 22.8791 179.038 22.8791C178.778 22.8791 178.556 22.9628 178.371 23.1302C178.186 23.2932 178.075 23.5157 178.04 23.7977H180.056ZM181.332 24.1082C181.332 23.7426 181.407 23.4188 181.557 23.1368C181.711 22.8549 181.918 22.6368 182.178 22.4826C182.442 22.324 182.735 22.2447 183.057 22.2447C183.295 22.2447 183.528 22.2976 183.758 22.4033C183.991 22.5047 184.176 22.6412 184.313 22.813V21.0553H185.073V25.9453H184.313V25.3968C184.189 25.5731 184.017 25.7184 183.797 25.833C183.581 25.9475 183.332 26.0048 183.05 26.0048C182.733 26.0048 182.442 25.9255 182.178 25.7669C181.918 25.6039 181.711 25.3792 181.557 25.0929C181.407 24.8021 181.332 24.4739 181.332 24.1082ZM184.313 24.1215C184.313 23.8703 184.26 23.6523 184.154 23.4672C184.053 23.2822 183.918 23.1412 183.751 23.0443C183.583 22.9474 183.403 22.8989 183.209 22.8989C183.015 22.8989 182.835 22.9474 182.667 23.0443C182.5 23.1368 182.363 23.2756 182.257 23.4606C182.156 23.6413 182.105 23.8571 182.105 24.1082C182.105 24.3594 182.156 24.5796 182.257 24.7691C182.363 24.9585 182.5 25.1039 182.667 25.2052C182.839 25.3021 183.02 25.3506 183.209 25.3506C183.403 25.3506 183.583 25.3021 183.751 25.2052C183.918 25.1083 184.053 24.9673 184.154 24.7823C184.26 24.5928 184.313 24.3726 184.313 24.1215ZM188.657 22.9188V24.9343C188.657 25.0708 188.688 25.17 188.75 25.2316C188.816 25.2889 188.926 25.3175 189.08 25.3175H189.543V25.9453H188.948C188.609 25.9453 188.349 25.866 188.168 25.7074C187.988 25.5488 187.898 25.2911 187.898 24.9343V22.9188H187.468V22.3042H187.898V21.3989H188.657V22.3042H189.543V22.9188H188.657ZM192.121 22.2447C192.398 22.2447 192.645 22.3042 192.861 22.4232C193.081 22.5421 193.253 22.7183 193.376 22.9518C193.504 23.1853 193.568 23.4672 193.568 23.7977V25.9453H192.821V23.91C192.821 23.584 192.74 23.3351 192.577 23.1633C192.414 22.9871 192.191 22.8989 191.909 22.8989C191.627 22.8989 191.403 22.9871 191.235 23.1633C191.072 23.3351 190.991 23.584 190.991 23.91V25.9453H190.237V21.0553H190.991V22.7271C191.118 22.5729 191.279 22.454 191.473 22.3703C191.671 22.2866 191.887 22.2447 192.121 22.2447ZM197.866 24.0356C197.866 24.1721 197.857 24.2955 197.839 24.4056H195.057C195.079 24.6964 195.187 24.9299 195.381 25.1061C195.575 25.2823 195.813 25.3704 196.095 25.3704C196.5 25.3704 196.787 25.2008 196.954 24.8616H197.767C197.657 25.1964 197.456 25.4717 197.165 25.6876C196.879 25.8991 196.522 26.0048 196.095 26.0048C195.747 26.0048 195.434 25.9277 195.157 25.7735C194.883 25.6149 194.667 25.3946 194.509 25.1127C194.355 24.8263 194.278 24.4959 194.278 24.1215C194.278 23.747 194.353 23.4188 194.502 23.1368C194.656 22.8505 194.87 22.6302 195.143 22.476C195.421 22.3218 195.738 22.2447 196.095 22.2447C196.438 22.2447 196.745 22.3196 197.013 22.4694C197.282 22.6192 197.491 22.8307 197.641 23.1038C197.791 23.3725 197.866 23.6831 197.866 24.0356ZM197.079 23.7977C197.075 23.5201 196.976 23.2976 196.782 23.1302C196.588 22.9628 196.348 22.8791 196.062 22.8791C195.802 22.8791 195.579 22.9628 195.394 23.1302C195.209 23.2932 195.099 23.5157 195.064 23.7977H197.079ZM201.85 22.9188H201.176V25.9453H200.416V22.9188H199.987V22.3042H200.416V22.0465C200.416 21.628 200.526 21.324 200.747 21.1346C200.971 20.9407 201.322 20.8438 201.797 20.8438V21.4716C201.568 21.4716 201.408 21.5156 201.315 21.6037C201.222 21.6874 201.176 21.835 201.176 22.0465V22.3042H201.85V22.9188ZM204.097 26.0048C203.754 26.0048 203.443 25.9277 203.166 25.7735C202.888 25.6149 202.67 25.3946 202.511 25.1127C202.353 24.8263 202.273 24.4959 202.273 24.1215C202.273 23.7514 202.355 23.4232 202.518 23.1368C202.681 22.8505 202.903 22.6302 203.185 22.476C203.467 22.3218 203.782 22.2447 204.13 22.2447C204.478 22.2447 204.793 22.3218 205.075 22.476C205.357 22.6302 205.58 22.8505 205.743 23.1368C205.906 23.4232 205.987 23.7514 205.987 24.1215C205.987 24.4915 205.903 24.8197 205.736 25.1061C205.569 25.3924 205.34 25.6149 205.049 25.7735C204.762 25.9277 204.445 26.0048 204.097 26.0048ZM204.097 25.3506C204.291 25.3506 204.472 25.3043 204.639 25.2118C204.811 25.1193 204.95 24.9805 205.055 24.7955C205.161 24.6105 205.214 24.3858 205.214 24.1215C205.214 23.8571 205.163 23.6347 205.062 23.454C204.961 23.269 204.826 23.1302 204.659 23.0377C204.492 22.9452 204.311 22.8989 204.117 22.8989C203.923 22.8989 203.743 22.9452 203.575 23.0377C203.412 23.1302 203.282 23.269 203.185 23.454C203.088 23.6347 203.04 23.8571 203.04 24.1215C203.04 24.5135 203.139 24.8175 203.337 25.0334C203.54 25.2448 203.793 25.3506 204.097 25.3506ZM207.485 22.8329C207.595 22.6478 207.741 22.5047 207.921 22.4033C208.106 22.2976 208.324 22.2447 208.576 22.2447V23.0245H208.384C208.089 23.0245 207.864 23.0994 207.71 23.2492C207.56 23.399 207.485 23.6589 207.485 24.0289V25.9453H206.732V22.3042H207.485V22.8329ZM213.676 22.2447C213.962 22.2447 214.218 22.3042 214.442 22.4232C214.671 22.5421 214.85 22.7183 214.978 22.9518C215.11 23.1853 215.176 23.4672 215.176 23.7977V25.9453H214.429V23.91C214.429 23.584 214.348 23.3351 214.185 23.1633C214.022 22.9871 213.799 22.8989 213.517 22.8989C213.235 22.8989 213.01 22.9871 212.843 23.1633C212.68 23.3351 212.599 23.584 212.599 23.91V25.9453H211.852V23.91C211.852 23.584 211.77 23.3351 211.607 23.1633C211.444 22.9871 211.222 22.8989 210.94 22.8989C210.658 22.8989 210.433 22.9871 210.266 23.1633C210.103 23.3351 210.021 23.584 210.021 23.91V25.9453H209.268V22.3042H210.021V22.7205C210.145 22.5707 210.301 22.454 210.491 22.3703C210.68 22.2866 210.883 22.2447 211.099 22.2447C211.389 22.2447 211.649 22.3064 211.878 22.4298C212.107 22.5531 212.284 22.7315 212.407 22.965C212.517 22.7448 212.689 22.5707 212.922 22.443C213.156 22.3108 213.407 22.2447 213.676 22.2447Z" fill="#615C64"/>
</g>
<rect x="18" y="22" width="69.7443" height="28.5582" rx="4.18607" fill="#A58CF0"/>
<path d="M31.8548 33.006V33.9793H29.9188V40.2793H28.7258V33.9793H26.7792V33.006H31.8548ZM36.0457 34.4188C36.4852 34.4188 36.8759 34.513 37.2178 34.7014C37.5666 34.8897 37.8387 35.1688 38.034 35.5386C38.2364 35.9083 38.3375 36.3549 38.3375 36.8781V40.2793H37.155V37.056C37.155 36.5397 37.0259 36.1456 36.7678 35.8735C36.5096 35.5944 36.1573 35.4549 35.7108 35.4549C35.2643 35.4549 34.9084 35.5944 34.6433 35.8735C34.3852 36.1456 34.2561 36.5397 34.2561 37.056V40.2793H33.0631V32.5351H34.2561V35.1828C34.4584 34.9386 34.7131 34.7502 35.0201 34.6176C35.334 34.4851 35.6759 34.4188 36.0457 34.4188ZM40.4663 33.749C40.25 33.749 40.0686 33.6758 39.9221 33.5293C39.7756 33.3827 39.7023 33.2014 39.7023 32.9851C39.7023 32.7688 39.7756 32.5874 39.9221 32.4409C40.0686 32.2944 40.25 32.2211 40.4663 32.2211C40.6756 32.2211 40.8535 32.2944 41 32.4409C41.1465 32.5874 41.2198 32.7688 41.2198 32.9851C41.2198 33.2014 41.1465 33.3827 41 33.5293C40.8535 33.6758 40.6756 33.749 40.4663 33.749ZM41.0523 34.513V40.2793H39.8593V34.513H41.0523ZM44.7117 40.3735C44.2582 40.3735 43.8501 40.2933 43.4873 40.1328C43.1315 39.9653 42.8489 39.7421 42.6396 39.463C42.4303 39.177 42.3187 38.8595 42.3047 38.5107H43.5396C43.5606 38.7549 43.6757 38.9607 43.885 39.1281C44.1013 39.2886 44.3699 39.3688 44.6908 39.3688C45.0257 39.3688 45.2838 39.306 45.4652 39.1805C45.6536 39.0479 45.7478 38.8805 45.7478 38.6781C45.7478 38.4618 45.6431 38.3014 45.4338 38.1967C45.2315 38.0921 44.9071 37.977 44.4606 37.8514C44.028 37.7328 43.6757 37.6177 43.4036 37.506C43.1315 37.3944 42.8943 37.2235 42.6919 36.9932C42.4966 36.763 42.3989 36.4595 42.3989 36.0828C42.3989 35.7758 42.4896 35.4967 42.671 35.2455C42.8524 34.9874 43.1105 34.7851 43.4454 34.6386C43.7873 34.4921 44.178 34.4188 44.6175 34.4188C45.2734 34.4188 45.8001 34.5862 46.1978 34.9211C46.6024 35.249 46.8187 35.699 46.8466 36.2711H45.6536C45.6327 36.013 45.528 35.8072 45.3396 35.6537C45.1513 35.5002 44.8966 35.4235 44.5757 35.4235C44.2617 35.4235 44.021 35.4828 43.8536 35.6014C43.6861 35.72 43.6024 35.8769 43.6024 36.0723C43.6024 36.2258 43.6582 36.3549 43.7699 36.4595C43.8815 36.5642 44.0175 36.6479 44.178 36.7107C44.3385 36.7665 44.5757 36.8397 44.8896 36.9304C45.3082 37.0421 45.6501 37.1572 45.9152 37.2758C46.1873 37.3874 46.421 37.5549 46.6164 37.7781C46.8117 38.0014 46.9129 38.2979 46.9199 38.6677C46.9199 38.9956 46.8292 39.2886 46.6478 39.5467C46.4664 39.8049 46.2082 40.0072 45.8734 40.1537C45.5454 40.3002 45.1582 40.3735 44.7117 40.3735ZM60.3984 33.006L58.2426 40.2793H56.8926L55.3647 34.7746L53.7426 40.2793L52.403 40.2898L50.3414 33.006H51.6077L53.1147 38.9293L54.7472 33.006H56.0868L57.6042 38.8979L59.1217 33.006H60.3984ZM66.6673 37.2549C66.6673 37.4711 66.6534 37.6665 66.6255 37.8409H62.2196C62.2545 38.3014 62.4254 38.6711 62.7324 38.9502C63.0394 39.2293 63.4161 39.3688 63.8627 39.3688C64.5045 39.3688 64.958 39.1002 65.2231 38.563H66.5103C66.3359 39.0932 66.0185 39.5293 65.558 39.8712C65.1045 40.206 64.5394 40.3735 63.8627 40.3735C63.3115 40.3735 62.8161 40.2514 62.3766 40.0072C61.944 39.756 61.6022 39.4072 61.351 38.9607C61.1068 38.5072 60.9847 37.9839 60.9847 37.3909C60.9847 36.7979 61.1033 36.2781 61.3406 35.8316C61.5847 35.3781 61.9231 35.0293 62.3557 34.7851C62.7952 34.5409 63.2975 34.4188 63.8627 34.4188C64.4068 34.4188 64.8917 34.5374 65.3173 34.7746C65.7429 35.0118 66.0743 35.3467 66.3115 35.7793C66.5487 36.2049 66.6673 36.6967 66.6673 37.2549ZM65.422 36.8781C65.415 36.4386 65.258 36.0863 64.951 35.8211C64.6441 35.556 64.2638 35.4235 63.8103 35.4235C63.3987 35.4235 63.0464 35.556 62.7534 35.8211C62.4603 36.0793 62.2859 36.4316 62.2301 36.8781H65.422ZM73.1263 37.2549C73.1263 37.4711 73.1123 37.6665 73.0844 37.8409H68.6786C68.7135 38.3014 68.8844 38.6711 69.1914 38.9502C69.4984 39.2293 69.8751 39.3688 70.3216 39.3688C70.9635 39.3688 71.417 39.1002 71.6821 38.563H72.9693C72.7949 39.0932 72.4775 39.5293 72.017 39.8712C71.5635 40.206 70.9984 40.3735 70.3216 40.3735C69.7705 40.3735 69.2751 40.2514 68.8356 40.0072C68.403 39.756 68.0612 39.4072 67.81 38.9607C67.5658 38.5072 67.4437 37.9839 67.4437 37.3909C67.4437 36.7979 67.5623 36.2781 67.7995 35.8316C68.0437 35.3781 68.3821 35.0293 68.8146 34.7851C69.2542 34.5409 69.7565 34.4188 70.3216 34.4188C70.8658 34.4188 71.3507 34.5374 71.7763 34.7746C72.2019 35.0118 72.5333 35.3467 72.7705 35.7793C73.0077 36.2049 73.1263 36.6967 73.1263 37.2549ZM71.8809 36.8781C71.874 36.4386 71.717 36.0863 71.41 35.8211C71.103 35.556 70.7228 35.4235 70.2693 35.4235C69.8577 35.4235 69.5054 35.556 69.2123 35.8211C68.9193 36.0793 68.7449 36.4316 68.6891 36.8781H71.8809ZM76.5818 37.4014L79.2399 40.2793H77.6283L75.4934 37.7991V40.2793H74.3004V32.5351H75.4934V37.0351L77.5864 34.513H79.2399L76.5818 37.4014Z" fill="white"/>
<path d="M45.7592 70.4326V71.1018H44.4279V75.4341H43.6075V71.1018H42.2689V70.4326H45.7592ZM48.641 71.4041C48.9433 71.4041 49.212 71.4689 49.447 71.5984C49.6869 71.7279 49.874 71.9198 50.0084 72.1741C50.1475 72.4284 50.2171 72.7354 50.2171 73.0952V75.4341H49.4039V73.2176C49.4039 72.8626 49.3151 72.5915 49.1376 72.4044C48.9601 72.2125 48.7178 72.1165 48.4108 72.1165C48.1037 72.1165 47.859 72.2125 47.6767 72.4044C47.4992 72.5915 47.4105 72.8626 47.4105 73.2176V75.4341H46.5901V70.1087H47.4105V71.9294C47.5496 71.7615 47.7247 71.632 47.9358 71.5408C48.1517 71.4497 48.3868 71.4041 48.641 71.4041ZM51.6809 70.9435C51.5322 70.9435 51.4074 70.8931 51.3067 70.7924C51.2059 70.6916 51.1556 70.5669 51.1556 70.4182C51.1556 70.2694 51.2059 70.1447 51.3067 70.044C51.4074 69.9432 51.5322 69.8928 51.6809 69.8928C51.8248 69.8928 51.9472 69.9432 52.0479 70.044C52.1487 70.1447 52.1991 70.2694 52.1991 70.4182C52.1991 70.5669 52.1487 70.6916 52.0479 70.7924C51.9472 70.8931 51.8248 70.9435 51.6809 70.9435ZM52.0839 71.4689V75.4341H51.2635V71.4689H52.0839ZM54.6003 75.4988C54.2885 75.4988 54.0078 75.4437 53.7583 75.3333C53.5136 75.2182 53.3193 75.0647 53.1754 74.8728C53.0315 74.6761 52.9547 74.4578 52.9451 74.2179H53.7943C53.8087 74.3858 53.8879 74.5273 54.0318 74.6425C54.1805 74.7528 54.3652 74.808 54.5859 74.808C54.8162 74.808 54.9937 74.7648 55.1184 74.6785C55.248 74.5873 55.3127 74.4722 55.3127 74.333C55.3127 74.1843 55.2408 74.074 55.0969 74.002C54.9577 73.93 54.7346 73.8509 54.4276 73.7645C54.1301 73.683 53.8879 73.6038 53.7007 73.527C53.5136 73.4503 53.3505 73.3327 53.2114 73.1744C53.0771 73.0161 53.0099 72.8074 53.0099 72.5483C53.0099 72.3372 53.0723 72.1453 53.197 71.9726C53.3217 71.7951 53.4992 71.656 53.7295 71.5552C53.9646 71.4545 54.2333 71.4041 54.5355 71.4041C54.9865 71.4041 55.3487 71.5192 55.6222 71.7495C55.9005 71.975 56.0492 72.2844 56.0684 72.6779H55.248C55.2336 72.5003 55.1616 72.3588 55.0321 72.2533C54.9025 72.1477 54.7274 72.0949 54.5067 72.0949C54.2909 72.0949 54.1253 72.1357 54.0102 72.2173C53.895 72.2988 53.8375 72.4068 53.8375 72.5411C53.8375 72.6467 53.8759 72.7354 53.9526 72.8074C54.0294 72.8794 54.1229 72.9369 54.2333 72.9801C54.3436 73.0185 54.5067 73.0689 54.7226 73.1312C55.0105 73.208 55.2456 73.2871 55.4279 73.3687C55.615 73.4455 55.7757 73.5606 55.91 73.7141C56.0444 73.8677 56.1139 74.0716 56.1187 74.3258C56.1187 74.5513 56.0564 74.7528 55.9316 74.9303C55.8069 75.1078 55.6294 75.247 55.3991 75.3477C55.1736 75.4485 54.9073 75.4988 54.6003 75.4988ZM64.1424 70.4326V75.4341H63.322V72.0086L61.7963 75.4341H61.2278L59.695 72.0086V75.4341H58.8746V70.4326H59.7597L61.5157 74.3546L63.2644 70.4326H64.1424ZM66.9406 75.4988C66.5664 75.4988 66.2281 75.4149 65.9259 75.247C65.6236 75.0743 65.3862 74.8344 65.2135 74.5273C65.0407 74.2155 64.9544 73.8557 64.9544 73.4479C64.9544 73.0449 65.0431 72.6874 65.2206 72.3756C65.3982 72.0638 65.6404 71.8239 65.9475 71.656C66.2545 71.488 66.5976 71.4041 66.9766 71.4041C67.3556 71.4041 67.6986 71.488 68.0057 71.656C68.3127 71.8239 68.555 72.0638 68.7325 72.3756C68.91 72.6874 68.9988 73.0449 68.9988 73.4479C68.9988 73.8509 68.9076 74.2083 68.7253 74.5201C68.543 74.832 68.2935 75.0743 67.9769 75.247C67.665 75.4149 67.3196 75.4988 66.9406 75.4988ZM66.9406 74.7864C67.1517 74.7864 67.3484 74.736 67.5307 74.6353C67.7178 74.5345 67.8689 74.3834 67.9841 74.1819C68.0992 73.9804 68.1568 73.7357 68.1568 73.4479C68.1568 73.16 68.1016 72.9177 67.9913 72.721C67.8809 72.5195 67.7346 72.3684 67.5523 72.2677C67.37 72.1669 67.1733 72.1165 66.9622 72.1165C66.7511 72.1165 66.5544 72.1669 66.3721 72.2677C66.1946 72.3684 66.053 72.5195 65.9475 72.721C65.8419 72.9177 65.7892 73.16 65.7892 73.4479C65.7892 73.8749 65.8971 74.2059 66.113 74.441C66.3337 74.6713 66.6096 74.7864 66.9406 74.7864ZM71.8104 71.4041C72.1222 71.4041 72.4005 71.4689 72.6452 71.5984C72.8946 71.7279 73.0889 71.9198 73.2281 72.1741C73.3672 72.4284 73.4368 72.7354 73.4368 73.0952V75.4341H72.6236V73.2176C72.6236 72.8626 72.5348 72.5915 72.3573 72.4044C72.1798 72.2125 71.9375 72.1165 71.6305 72.1165C71.3234 72.1165 71.0787 72.2125 70.8964 72.4044C70.7189 72.5915 70.6302 72.8626 70.6302 73.2176V75.4341H69.8098V71.4689H70.6302V71.9222C70.7645 71.7591 70.9348 71.632 71.1411 71.5408C71.3522 71.4497 71.5753 71.4041 71.8104 71.4041ZM75.4404 72.1381V74.333C75.4404 74.4818 75.4739 74.5897 75.5411 74.6569C75.6131 74.7192 75.733 74.7504 75.9009 74.7504H76.4047V75.4341H75.757C75.3876 75.4341 75.1045 75.3477 74.9078 75.175C74.7111 75.0023 74.6128 74.7216 74.6128 74.333V72.1381H74.145V71.4689H74.6128V70.4829H75.4404V71.4689H76.4047V72.1381H75.4404ZM79.2118 71.4041C79.514 71.4041 79.7827 71.4689 80.0178 71.5984C80.2577 71.7279 80.4448 71.9198 80.5791 72.1741C80.7182 72.4284 80.7878 72.7354 80.7878 73.0952V75.4341H79.9746V73.2176C79.9746 72.8626 79.8859 72.5915 79.7083 72.4044C79.5308 72.2125 79.2886 72.1165 78.9815 72.1165C78.6745 72.1165 78.4298 72.2125 78.2475 72.4044C78.07 72.5915 77.9812 72.8626 77.9812 73.2176V75.4341H77.1608V70.1087H77.9812V71.9294C78.1203 71.7615 78.2954 71.632 78.5065 71.5408C78.7224 71.4497 78.9575 71.4041 79.2118 71.4041Z" fill="#886FD4"/>
<rect x="36.5903" y="63.476" width="50.7946" height="18.9161" rx="2.51875" stroke="#886FD4" stroke-width="0.719643"/>
<path d="M57.0354 101.723V102.298H55.8906V106.023H55.1852V102.298H54.0343V101.723H57.0354ZM59.5133 102.558C59.7732 102.558 60.0042 102.614 60.2063 102.725C60.4126 102.837 60.5735 103.002 60.689 103.22C60.8086 103.439 60.8684 103.703 60.8684 104.012V106.023H60.1692V104.118C60.1692 103.812 60.0929 103.579 59.9403 103.418C59.7876 103.253 59.5793 103.171 59.3153 103.171C59.0513 103.171 58.8409 103.253 58.6841 103.418C58.5315 103.579 58.4552 103.812 58.4552 104.118V106.023H57.7498V101.444H58.4552V103.01C58.5748 102.866 58.7254 102.754 58.9069 102.676C59.0925 102.597 59.2947 102.558 59.5133 102.558ZM62.1271 102.162C61.9992 102.162 61.892 102.119 61.8054 102.032C61.7187 101.946 61.6754 101.838 61.6754 101.711C61.6754 101.583 61.7187 101.475 61.8054 101.389C61.892 101.302 61.9992 101.259 62.1271 101.259C62.2509 101.259 62.3561 101.302 62.4427 101.389C62.5293 101.475 62.5726 101.583 62.5726 101.711C62.5726 101.838 62.5293 101.946 62.4427 102.032C62.3561 102.119 62.2509 102.162 62.1271 102.162ZM62.4736 102.614V106.023H61.7682V102.614H62.4736ZM64.6373 106.079C64.3692 106.079 64.1279 106.032 63.9134 105.937C63.703 105.838 63.5359 105.706 63.4122 105.541C63.2884 105.372 63.2224 105.184 63.2142 104.978H63.9443C63.9567 105.122 64.0248 105.244 64.1485 105.343C64.2764 105.438 64.4352 105.485 64.625 105.485C64.823 105.485 64.9756 105.448 65.0829 105.374C65.1943 105.295 65.2499 105.196 65.2499 105.077C65.2499 104.949 65.1881 104.854 65.0643 104.792C64.9447 104.73 64.7529 104.662 64.4888 104.588C64.2331 104.518 64.0248 104.45 63.8639 104.384C63.703 104.318 63.5627 104.217 63.4431 104.08C63.3276 103.944 63.2698 103.765 63.2698 103.542C63.2698 103.361 63.3235 103.196 63.4307 103.047C63.538 102.894 63.6906 102.775 63.8886 102.688C64.0908 102.602 64.3218 102.558 64.5817 102.558C64.9694 102.558 65.2809 102.657 65.516 102.855C65.7553 103.049 65.8832 103.315 65.8997 103.654H65.1943C65.1819 103.501 65.12 103.379 65.0086 103.288C64.8972 103.198 64.7467 103.152 64.5569 103.152C64.3713 103.152 64.229 103.187 64.1299 103.257C64.0309 103.328 63.9814 103.42 63.9814 103.536C63.9814 103.627 64.0144 103.703 64.0804 103.765C64.1464 103.827 64.2269 103.876 64.3218 103.913C64.4166 103.946 64.5569 103.99 64.7425 104.043C64.9901 104.109 65.1922 104.177 65.3489 104.248C65.5098 104.314 65.648 104.413 65.7635 104.545C65.879 104.677 65.9389 104.852 65.943 105.071C65.943 105.264 65.8893 105.438 65.7821 105.59C65.6748 105.743 65.5222 105.863 65.3242 105.949C65.1303 106.036 64.9014 106.079 64.6373 106.079ZM71.4993 101.723L70.0761 104.464V106.023H69.3707V104.464L67.9413 101.723H68.7272L69.7234 103.833L70.7196 101.723H71.4993ZM75.1839 104.235C75.1839 104.363 75.1757 104.479 75.1592 104.582H72.5541C72.5747 104.854 72.6758 105.073 72.8573 105.238C73.0388 105.403 73.2616 105.485 73.5256 105.485C73.9051 105.485 74.1733 105.326 74.33 105.009H75.0911C74.988 105.322 74.8003 105.58 74.528 105.782C74.2599 105.98 73.9257 106.079 73.5256 106.079C73.1997 106.079 72.9068 106.007 72.6469 105.863C72.3912 105.714 72.189 105.508 72.0405 105.244C71.8961 104.976 71.824 104.666 71.824 104.316C71.824 103.965 71.8941 103.658 72.0343 103.394C72.1787 103.125 72.3788 102.919 72.6346 102.775C72.8944 102.63 73.1915 102.558 73.5256 102.558C73.8474 102.558 74.1341 102.628 74.3857 102.769C74.6373 102.909 74.8333 103.107 74.9736 103.363C75.1138 103.614 75.1839 103.905 75.1839 104.235ZM74.4476 104.012C74.4435 103.753 74.3506 103.544 74.1691 103.387C73.9876 103.231 73.7628 103.152 73.4947 103.152C73.2513 103.152 73.043 103.231 72.8697 103.387C72.6964 103.54 72.5933 103.748 72.5603 104.012H74.4476ZM75.643 104.303C75.643 103.961 75.7131 103.658 75.8534 103.394C75.9978 103.13 76.1916 102.925 76.435 102.781C76.6825 102.633 76.9548 102.558 77.2518 102.558C77.52 102.558 77.753 102.612 77.951 102.719C78.1532 102.822 78.3141 102.952 78.4337 103.109V102.614H79.1453V106.023H78.4337V105.516C78.3141 105.677 78.1511 105.811 77.9449 105.918C77.7386 106.026 77.5035 106.079 77.2395 106.079C76.9466 106.079 76.6784 106.005 76.435 105.856C76.1916 105.704 75.9978 105.493 75.8534 105.225C75.7131 104.953 75.643 104.646 75.643 104.303ZM78.4337 104.316C78.4337 104.08 78.3842 103.876 78.2852 103.703C78.1903 103.53 78.0645 103.398 77.9077 103.307C77.751 103.216 77.5818 103.171 77.4003 103.171C77.2188 103.171 77.0497 103.216 76.8929 103.307C76.7362 103.394 76.6083 103.524 76.5093 103.697C76.4144 103.866 76.367 104.068 76.367 104.303C76.367 104.538 76.4144 104.745 76.5093 104.922C76.6083 105.099 76.7362 105.236 76.8929 105.33C77.0538 105.421 77.223 105.467 77.4003 105.467C77.5818 105.467 77.751 105.421 77.9077 105.33C78.0645 105.24 78.1903 105.108 78.2852 104.934C78.3842 104.757 78.4337 104.551 78.4337 104.316ZM80.7772 103.109C80.8804 102.936 81.0165 102.802 81.1856 102.707C81.3589 102.608 81.5631 102.558 81.7982 102.558V103.288H81.6188C81.3424 103.288 81.132 103.359 80.9876 103.499C80.8474 103.639 80.7772 103.882 80.7772 104.229V106.023H80.0718V102.614H80.7772V103.109Z" fill="#886FD4"/>
<rect x="49.1531" y="95.6199" width="38.2817" height="15.8066" rx="2.16573" stroke="#886FD4" stroke-width="0.618781"/>
<defs>
<filter id="filter0_dd_3979_7751" x="54.2136" y="2.57749" width="240.237" height="143.977" filterUnits="userSpaceOnUse" color-interpolation-filters="sRGB">
<feFlood flood-opacity="0" result="BackgroundImageFix"/>
<feColorMatrix in="SourceAlpha" type="matrix" values="0 0 0 0 0 0 0 0 0 0 0 0 0 0 0 0 0 0 127 0" result="hardAlpha"/>
<feOffset dy="3.42251"/>
<feGaussianBlur stdDeviation="3.42251"/>
<feComposite in2="hardAlpha" operator="out"/>
<feColorMatrix type="matrix" values="0 0 0 0 0 0 0 0 0 0 0 0 0 0 0 0 0 0 0.05 0"/>
<feBlend mode="normal" in2="BackgroundImageFix" result="effect1_dropShadow_3979_7751"/>
<feColorMatrix in="SourceAlpha" type="matrix" values="0 0 0 0 0 0 0 0 0 0 0 0 0 0 0 0 0 0 127 0" result="hardAlpha"/>
<feOffset dy="1.71125"/>
<feGaussianBlur stdDeviation="1.71125"/>
<feComposite in2="hardAlpha" operator="out"/>
<feColorMatrix type="matrix" values="0 0 0 0 0 0 0 0 0 0 0 0 0 0 0 0 0 0 0.07 0"/>
<feBlend mode="normal" in2="effect1_dropShadow_3979_7751" result="effect2_dropShadow_3979_7751"/>
<feBlend mode="normal" in="SourceGraphic" in2="effect2_dropShadow_3979_7751" result="shape"/>
</filter>
<filter id="filter1_dd_3979_7751" x="148.963" y="39.7394" width="19.164" height="13.9912" filterUnits="userSpaceOnUse" color-interpolation-filters="sRGB">
<feFlood flood-opacity="0" result="BackgroundImageFix"/>
<feColorMatrix in="SourceAlpha" type="matrix" values="0 0 0 0 0 0 0 0 0 0 0 0 0 0 0 0 0 0 127 0" result="hardAlpha"/>
<feOffset dy="0.842874"/>
<feGaussianBlur stdDeviation="0.948233"/>
<feColorMatrix type="matrix" values="0 0 0 0 0.811765 0 0 0 0 0.54902 0 0 0 0 0.972549 0 0 0 0.15 0"/>
<feBlend mode="normal" in2="BackgroundImageFix" result="effect1_dropShadow_3979_7751"/>
<feColorMatrix in="SourceAlpha" type="matrix" values="0 0 0 0 0 0 0 0 0 0 0 0 0 0 0 0 0 0 127 0" result="hardAlpha"/>
<feOffset dy="0.158039"/>
<feGaussianBlur stdDeviation="0.237058"/>
<feColorMatrix type="matrix" values="0 0 0 0 0.811765 0 0 0 0 0.54902 0 0 0 0 0.972549 0 0 0 0.1 0"/>
<feBlend mode="normal" in2="effect1_dropShadow_3979_7751" result="effect2_dropShadow_3979_7751"/>
<feBlend mode="normal" in="SourceGraphic" in2="effect2_dropShadow_3979_7751" result="shape"/>
</filter>
<radialGradient id="paint0_radial_3979_7751" cx="0" cy="0" r="1" gradientUnits="userSpaceOnUse" gradientTransform="translate(278.948 11.2757) rotate(136.578) scale(53.3931 123.071)">
<stop stop-color="#FCF4FF"/>
<stop offset="1" stop-color="#FCF4FF" stop-opacity="0"/>
</radialGradient>
</defs>
</svg>
