<svg width="297" height="154" viewBox="0 0 297 154" fill="none" xmlns="http://www.w3.org/2000/svg">
<g filter="url(#filter0_dd_3979_8532)">
<rect x="6" y="3" width="240.128" height="81.8661" rx="3.22047" fill="white" shape-rendering="crispEdges"/>
<path d="M23.0119 22.8818H22.2617L23.9474 18.1975H24.7639L26.4497 22.8818H25.6994L24.3751 19.0484H24.3385L23.0119 22.8818ZM23.1377 21.0475H25.5713V21.6421H23.1377V21.0475ZM27.0712 22.8818V19.3686H27.7322V19.9267H27.7688C27.8329 19.7376 27.9457 19.5889 28.1073 19.4807C28.2705 19.3709 28.455 19.316 28.6609 19.316C28.7036 19.316 28.7539 19.3175 28.8118 19.3206C28.8713 19.3236 28.9178 19.3274 28.9513 19.332V19.9862C28.9239 19.9785 28.8751 19.9701 28.805 19.961C28.7348 19.9503 28.6647 19.945 28.5945 19.945C28.4329 19.945 28.2888 19.9793 28.1622 20.0479C28.0372 20.115 27.9381 20.2088 27.8649 20.3293C27.7917 20.4482 27.7551 20.5839 27.7551 20.7364V22.8818H27.0712ZM30.9315 22.9527C30.5854 22.9527 30.2873 22.8788 30.0372 22.7309C29.7887 22.5814 29.5965 22.3718 29.4608 22.1019C29.3266 21.8305 29.2596 21.5125 29.2596 21.1481C29.2596 20.7882 29.3266 20.4711 29.4608 20.1966C29.5965 19.9221 29.7856 19.7079 30.0281 19.5539C30.272 19.3999 30.5572 19.3229 30.8835 19.3229C31.0817 19.3229 31.2739 19.3556 31.4599 19.4212C31.6459 19.4868 31.8129 19.5897 31.9608 19.73C32.1087 19.8703 32.2254 20.0525 32.3108 20.2766C32.3962 20.4993 32.4388 20.7699 32.4388 21.0886V21.3311H29.6461V20.8187H31.7687C31.7687 20.6388 31.7321 20.4794 31.6589 20.3407C31.5857 20.2004 31.4828 20.0898 31.3501 20.009C31.219 19.9282 31.065 19.8878 30.8881 19.8878C30.696 19.8878 30.5282 19.9351 30.3849 20.0296C30.2431 20.1226 30.1333 20.2446 30.0555 20.3956C29.9793 20.545 29.9412 20.7074 29.9412 20.8828V21.283C29.9412 21.5179 29.9823 21.7176 30.0647 21.8823C30.1485 22.047 30.2652 22.1728 30.4146 22.2597C30.5641 22.3451 30.7386 22.3878 30.9384 22.3878C31.068 22.3878 31.1862 22.3695 31.2929 22.3329C31.3997 22.2948 31.4919 22.2384 31.5697 22.1636C31.6475 22.0889 31.7069 21.9967 31.7481 21.8869L32.3954 22.0035C32.3435 22.1941 32.2505 22.3611 32.1163 22.5044C31.9837 22.6462 31.8167 22.7568 31.6154 22.8361C31.4157 22.9139 31.1877 22.9527 30.9315 22.9527ZM35.3345 24.1993C35.2324 24.1993 35.1393 24.1909 35.0555 24.1741C34.9716 24.1589 34.9091 24.1421 34.8679 24.1238L35.0326 23.5634C35.1576 23.597 35.269 23.6115 35.3665 23.6069C35.4641 23.6023 35.5503 23.5657 35.625 23.4971C35.7012 23.4285 35.7683 23.3164 35.8263 23.1609L35.9109 22.9276L34.6255 19.3686H35.3574L36.2471 22.095H36.2837L37.1735 19.3686H37.9077L36.4599 23.3507C36.3928 23.5337 36.3074 23.6885 36.2037 23.815C36.1 23.9431 35.9765 24.0392 35.8331 24.1032C35.6898 24.1673 35.5236 24.1993 35.3345 24.1993ZM39.9108 22.9527C39.5814 22.9527 39.294 22.8773 39.0485 22.7263C38.803 22.5753 38.6124 22.3642 38.4767 22.0927C38.3409 21.8213 38.2731 21.5041 38.2731 21.1412C38.2731 20.7768 38.3409 20.4581 38.4767 20.1852C38.6124 19.9122 38.803 19.7003 39.0485 19.5493C39.294 19.3983 39.5814 19.3229 39.9108 19.3229C40.2401 19.3229 40.5276 19.3983 40.7731 19.5493C41.0186 19.7003 41.2092 19.9122 41.3449 20.1852C41.4806 20.4581 41.5484 20.7768 41.5484 21.1412C41.5484 21.5041 41.4806 21.8213 41.3449 22.0927C41.2092 22.3642 41.0186 22.5753 40.7731 22.7263C40.5276 22.8773 40.2401 22.9527 39.9108 22.9527ZM39.9131 22.3786C40.1265 22.3786 40.3034 22.3222 40.4437 22.2094C40.584 22.0965 40.6877 21.9463 40.7548 21.7588C40.8234 21.5712 40.8577 21.3646 40.8577 21.1389C40.8577 20.9148 40.8234 20.7089 40.7548 20.5214C40.6877 20.3323 40.584 20.1806 40.4437 20.0662C40.3034 19.9519 40.1265 19.8947 39.9131 19.8947C39.6981 19.8947 39.5196 19.9519 39.3778 20.0662C39.2375 20.1806 39.1331 20.3323 39.0645 20.5214C38.9974 20.7089 38.9638 20.9148 38.9638 21.1389C38.9638 21.3646 38.9974 21.5712 39.0645 21.7588C39.1331 21.9463 39.2375 22.0965 39.3778 22.2094C39.5196 22.3222 39.6981 22.3786 39.9131 22.3786ZM44.5373 21.4248V19.3686H45.2235V22.8818H44.5511V22.2734H44.5145C44.4336 22.461 44.304 22.6173 44.1256 22.7423C43.9487 22.8658 43.7284 22.9276 43.4646 22.9276C43.2389 22.9276 43.0392 22.878 42.8653 22.7789C42.693 22.6783 42.5573 22.5296 42.4582 22.3329C42.3606 22.1362 42.3118 21.893 42.3118 21.6033V19.3686H42.9957V21.5209C42.9957 21.7603 43.062 21.9509 43.1947 22.0927C43.3274 22.2345 43.4997 22.3054 43.7116 22.3054C43.8397 22.3054 43.967 22.2734 44.0936 22.2094C44.2217 22.1453 44.3277 22.0485 44.4115 21.9189C44.4969 21.7893 44.5389 21.6246 44.5373 21.4248ZM49.32 24.2725C49.0409 24.2725 48.8008 24.2359 48.5995 24.1627C48.3998 24.0895 48.2366 23.9927 48.11 23.8722C47.9835 23.7518 47.8889 23.6199 47.8264 23.4765L48.4142 23.2341C48.4554 23.3012 48.5103 23.3721 48.5789 23.4468C48.6491 23.523 48.7436 23.5878 48.8625 23.6412C48.983 23.6946 49.1378 23.7213 49.3269 23.7213C49.5861 23.7213 49.8003 23.658 49.9696 23.5314C50.1388 23.4064 50.2235 23.2066 50.2235 22.9322V22.2414H50.18C50.1388 22.3161 50.0794 22.3992 50.0016 22.4907C49.9254 22.5822 49.8201 22.6615 49.686 22.7286C49.5518 22.7957 49.3772 22.8292 49.1622 22.8292C48.8847 22.8292 48.6346 22.7644 48.412 22.6348C48.1908 22.5037 48.0155 22.3108 47.8859 22.0561C47.7578 21.8 47.6937 21.4851 47.6937 21.1115C47.6937 20.7379 47.757 20.4177 47.8836 20.1508C48.0117 19.884 48.187 19.6797 48.4097 19.5379C48.6323 19.3945 48.8847 19.3229 49.1667 19.3229C49.3848 19.3229 49.5609 19.3595 49.6951 19.4326C49.8293 19.5043 49.9337 19.5882 50.0085 19.6842C50.0847 19.7803 50.1434 19.8649 50.1846 19.9381H50.2349V19.3686H50.9051V22.9596C50.9051 23.2615 50.8349 23.5093 50.6946 23.703C50.5544 23.8966 50.3645 24.04 50.1251 24.133C49.8872 24.226 49.6189 24.2725 49.32 24.2725ZM49.3131 22.262C49.5098 22.262 49.676 22.2162 49.8118 22.1248C49.949 22.0317 50.0527 21.8991 50.1228 21.7268C50.1945 21.5529 50.2303 21.3448 50.2303 21.1023C50.2303 20.866 50.1953 20.6579 50.1251 20.4779C50.055 20.298 49.952 20.1577 49.8163 20.0571C49.6806 19.9549 49.5129 19.9038 49.3131 19.9038C49.1073 19.9038 48.9357 19.9572 48.7985 20.0639C48.6613 20.1691 48.5576 20.3125 48.4874 20.4939C48.4188 20.6754 48.3845 20.8782 48.3845 21.1023C48.3845 21.3326 48.4196 21.5346 48.4897 21.7085C48.5599 21.8823 48.6635 22.018 48.8008 22.1156C48.9395 22.2132 49.1103 22.262 49.3131 22.262ZM51.8223 22.8818V19.3686H52.4833V19.9267H52.5199C52.5839 19.7376 52.6968 19.5889 52.8584 19.4807C53.0215 19.3709 53.2061 19.316 53.4119 19.316C53.4546 19.316 53.5049 19.3175 53.5629 19.3206C53.6223 19.3236 53.6688 19.3274 53.7024 19.332V19.9862C53.6749 19.9785 53.6261 19.9701 53.556 19.961C53.4859 19.9503 53.4157 19.945 53.3456 19.945C53.1839 19.945 53.0398 19.9793 52.9133 20.0479C52.7882 20.115 52.6891 20.2088 52.6159 20.3293C52.5427 20.4482 52.5062 20.5839 52.5062 20.7364V22.8818H51.8223ZM55.2852 22.9596C55.0625 22.9596 54.8613 22.9184 54.6813 22.8361C54.5014 22.7522 54.3588 22.631 54.2536 22.4724C54.1499 22.3138 54.0981 22.1194 54.0981 21.8892C54.0981 21.6909 54.1362 21.5278 54.2125 21.3997C54.2887 21.2716 54.3916 21.1702 54.5212 21.0955C54.6508 21.0208 54.7957 20.9643 54.9558 20.9262C55.1159 20.8881 55.2791 20.8591 55.4453 20.8393C55.6557 20.8149 55.8265 20.7951 55.9576 20.7798C56.0888 20.7631 56.1841 20.7364 56.2435 20.6998C56.303 20.6632 56.3327 20.6037 56.3327 20.5214V20.5054C56.3327 20.3056 56.2763 20.1508 56.1635 20.0411C56.0522 19.9313 55.886 19.8764 55.6649 19.8764C55.4346 19.8764 55.2532 19.9275 55.1205 20.0296C54.9894 20.1303 54.8986 20.2423 54.8483 20.3658L54.2056 20.2195C54.2818 20.006 54.3931 19.8337 54.5395 19.7025C54.6874 19.5699 54.8575 19.4738 55.0496 19.4143C55.2417 19.3534 55.4438 19.3229 55.6557 19.3229C55.796 19.3229 55.9447 19.3396 56.1017 19.3732C56.2603 19.4052 56.4082 19.4647 56.5455 19.5516C56.6842 19.6385 56.7978 19.7628 56.8863 19.9244C56.9747 20.0845 57.0189 20.2927 57.0189 20.5488V22.8818H56.351V22.4015H56.3236C56.2794 22.49 56.213 22.5769 56.1246 22.6623C56.0362 22.7476 55.9226 22.8186 55.7838 22.875C55.645 22.9314 55.4788 22.9596 55.2852 22.9596ZM55.4338 22.4107C55.6229 22.4107 55.7846 22.3733 55.9187 22.2986C56.0545 22.2239 56.1574 22.1263 56.2275 22.0058C56.2992 21.8838 56.335 21.7535 56.335 21.6147V21.1618C56.3106 21.1862 56.2634 21.2091 56.1932 21.2304C56.1246 21.2503 56.0461 21.2678 55.9576 21.283C55.8692 21.2968 55.783 21.3097 55.6992 21.3219C55.6153 21.3326 55.5452 21.3417 55.4887 21.3494C55.3561 21.3661 55.2349 21.3944 55.1251 21.434C55.0168 21.4736 54.9299 21.5308 54.8643 21.6055C54.8003 21.6787 54.7683 21.7763 54.7683 21.8983C54.7683 22.0676 54.8308 22.1957 54.9558 22.2826C55.0808 22.368 55.2402 22.4107 55.4338 22.4107ZM59.245 22.9505C58.9614 22.9505 58.7083 22.878 58.4856 22.7332C58.2645 22.5868 58.0907 22.3786 57.9641 22.1087C57.8391 21.8373 57.7766 21.5118 57.7766 21.1321C57.7766 20.7524 57.8399 20.4276 57.9664 20.1577C58.0945 19.8878 58.2699 19.6812 58.4925 19.5379C58.7151 19.3945 58.9675 19.3229 59.2496 19.3229C59.4676 19.3229 59.643 19.3595 59.7756 19.4326C59.9098 19.5043 60.0135 19.5882 60.0867 19.6842C60.1614 19.7803 60.2194 19.8649 60.2605 19.9381H60.3017V18.1975H60.9856V22.8818H60.3177V22.3352H60.2605C60.2194 22.4099 60.1599 22.4953 60.0821 22.5914C60.0059 22.6874 59.9007 22.7713 59.7665 22.843C59.6323 22.9146 59.4585 22.9505 59.245 22.9505ZM59.396 22.3672C59.5927 22.3672 59.7589 22.3154 59.8946 22.2117C60.0318 22.1065 60.1355 21.9608 60.2057 21.7748C60.2773 21.5888 60.3132 21.3722 60.3132 21.1252C60.3132 20.8812 60.2781 20.6678 60.2079 20.4848C60.1378 20.3018 60.0349 20.1592 59.8992 20.0571C59.7634 19.9549 59.5957 19.9038 59.396 19.9038C59.1901 19.9038 59.0186 19.9572 58.8813 20.0639C58.7441 20.1707 58.6404 20.3163 58.5703 20.5008C58.5016 20.6853 58.4673 20.8934 58.4673 21.1252C58.4673 21.36 58.5024 21.5712 58.5725 21.7588C58.6427 21.9463 58.7464 22.095 58.8836 22.2048C59.0224 22.3131 59.1932 22.3672 59.396 22.3672ZM64.1872 21.4248V19.3686H64.8734V22.8818H64.2009V22.2734H64.1643C64.0835 22.461 63.9539 22.6173 63.7755 22.7423C63.5986 22.8658 63.3783 22.9276 63.1145 22.9276C62.8888 22.9276 62.689 22.878 62.5152 22.7789C62.3429 22.6783 62.2072 22.5296 62.1081 22.3329C62.0105 22.1362 61.9617 21.893 61.9617 21.6033V19.3686H62.6456V21.5209C62.6456 21.7603 62.7119 21.9509 62.8446 22.0927C62.9772 22.2345 63.1495 22.3054 63.3615 22.3054C63.4896 22.3054 63.6169 22.2734 63.7435 22.2094C63.8716 22.1453 63.9775 22.0485 64.0614 21.9189C64.1468 21.7893 64.1887 21.6246 64.1872 21.4248ZM66.8147 22.9596C66.5921 22.9596 66.3908 22.9184 66.2109 22.8361C66.0309 22.7522 65.8884 22.631 65.7831 22.4724C65.6795 22.3138 65.6276 22.1194 65.6276 21.8892C65.6276 21.6909 65.6657 21.5278 65.742 21.3997C65.8182 21.2716 65.9211 21.1702 66.0508 21.0955C66.1804 21.0208 66.3252 20.9643 66.4853 20.9262C66.6454 20.8881 66.8086 20.8591 66.9748 20.8393C67.1852 20.8149 67.356 20.7951 67.4872 20.7798C67.6183 20.7631 67.7136 20.7364 67.7731 20.6998C67.8325 20.6632 67.8623 20.6037 67.8623 20.5214V20.5054C67.8623 20.3056 67.8058 20.1508 67.693 20.0411C67.5817 19.9313 67.4155 19.8764 67.1944 19.8764C66.9641 19.8764 66.7827 19.9275 66.65 20.0296C66.5189 20.1303 66.4282 20.2423 66.3778 20.3658L65.7351 20.2195C65.8114 20.006 65.9227 19.8337 66.0691 19.7025C66.217 19.5699 66.387 19.4738 66.5791 19.4143C66.7712 19.3534 66.9733 19.3229 67.1852 19.3229C67.3255 19.3229 67.4742 19.3396 67.6313 19.3732C67.7898 19.4052 67.9377 19.4647 68.075 19.5516C68.2137 19.6385 68.3273 19.7628 68.4158 19.9244C68.5042 20.0845 68.5484 20.2927 68.5484 20.5488V22.8818H67.8806V22.4015H67.8531C67.8089 22.49 67.7426 22.5769 67.6541 22.6623C67.5657 22.7476 67.4521 22.8186 67.3133 22.875C67.1746 22.9314 67.0084 22.9596 66.8147 22.9596ZM66.9634 22.4107C67.1525 22.4107 67.3141 22.3733 67.4483 22.2986C67.584 22.2239 67.6869 22.1263 67.7571 22.0058C67.8287 21.8838 67.8646 21.7535 67.8646 21.6147V21.1618C67.8402 21.1862 67.7929 21.2091 67.7227 21.2304C67.6541 21.2503 67.5756 21.2678 67.4872 21.283C67.3987 21.2968 67.3126 21.3097 67.2287 21.3219C67.1448 21.3326 67.0747 21.3417 67.0183 21.3494C66.8856 21.3661 66.7644 21.3944 66.6546 21.434C66.5463 21.4736 66.4594 21.5308 66.3938 21.6055C66.3298 21.6787 66.2978 21.7763 66.2978 21.8983C66.2978 22.0676 66.3603 22.1957 66.4853 22.2826C66.6104 22.368 66.7697 22.4107 66.9634 22.4107ZM71.0993 19.3686V19.9175H69.1803V19.3686H71.0993ZM69.6949 18.5269H70.3788V21.8503C70.3788 21.9829 70.3986 22.0828 70.4383 22.1499C70.4779 22.2155 70.529 22.2605 70.5915 22.2849C70.6556 22.3077 70.725 22.3192 70.7997 22.3192C70.8546 22.3192 70.9026 22.3154 70.9438 22.3077C70.985 22.3001 71.017 22.294 71.0398 22.2894L71.1634 22.8544C71.1237 22.8696 71.0673 22.8849 70.9941 22.9001C70.9209 22.9169 70.8294 22.9261 70.7196 22.9276C70.5397 22.9306 70.372 22.8986 70.2164 22.8315C70.0609 22.7644 69.9351 22.6607 69.839 22.5204C69.743 22.3802 69.6949 22.204 69.6949 21.9921V18.5269ZM73.3323 22.9527C72.9861 22.9527 72.688 22.8788 72.4379 22.7309C72.1894 22.5814 71.9973 22.3718 71.8615 22.1019C71.7274 21.8305 71.6603 21.5125 71.6603 21.1481C71.6603 20.7882 71.7274 20.4711 71.8615 20.1966C71.9973 19.9221 72.1863 19.7079 72.4288 19.5539C72.6728 19.3999 72.9579 19.3229 73.2842 19.3229C73.4825 19.3229 73.6746 19.3556 73.8606 19.4212C74.0466 19.4868 74.2136 19.5897 74.3615 19.73C74.5094 19.8703 74.6261 20.0525 74.7115 20.2766C74.7969 20.4993 74.8396 20.7699 74.8396 21.0886V21.3311H72.0468V20.8187H74.1694C74.1694 20.6388 74.1328 20.4794 74.0596 20.3407C73.9864 20.2004 73.8835 20.0898 73.7508 20.009C73.6197 19.9282 73.4657 19.8878 73.2888 19.8878C73.0967 19.8878 72.9289 19.9351 72.7856 20.0296C72.6438 20.1226 72.534 20.2446 72.4562 20.3956C72.38 20.545 72.3419 20.7074 72.3419 20.8828V21.283C72.3419 21.5179 72.383 21.7176 72.4654 21.8823C72.5493 22.047 72.6659 22.1728 72.8153 22.2597C72.9648 22.3451 73.1394 22.3878 73.3391 22.3878C73.4687 22.3878 73.5869 22.3695 73.6936 22.3329C73.8004 22.2948 73.8926 22.2384 73.9704 22.1636C74.0482 22.0889 74.1076 21.9967 74.1488 21.8869L74.7961 22.0035C74.7443 22.1941 74.6512 22.3611 74.5171 22.5044C74.3844 22.6462 74.2174 22.7568 74.0161 22.8361C73.8164 22.9139 73.5884 22.9527 73.3323 22.9527ZM76.9135 22.9505C76.6299 22.9505 76.3768 22.878 76.1542 22.7332C75.9331 22.5868 75.7592 22.3786 75.6327 22.1087C75.5076 21.8373 75.4451 21.5118 75.4451 21.1321C75.4451 20.7524 75.5084 20.4276 75.635 20.1577C75.763 19.8878 75.9384 19.6812 76.161 19.5379C76.3837 19.3945 76.636 19.3229 76.9181 19.3229C77.1362 19.3229 77.3115 19.3595 77.4442 19.4326C77.5784 19.5043 77.6821 19.5882 77.7553 19.6842C77.83 19.7803 77.8879 19.8649 77.9291 19.9381H77.9703V18.1975H78.6541V22.8818H77.9863V22.3352H77.9291C77.8879 22.4099 77.8284 22.4953 77.7507 22.5914C77.6744 22.6874 77.5692 22.7713 77.435 22.843C77.3008 22.9146 77.127 22.9505 76.9135 22.9505ZM77.0645 22.3672C77.2612 22.3672 77.4274 22.3154 77.5631 22.2117C77.7004 22.1065 77.804 21.9608 77.8742 21.7748C77.9459 21.5888 77.9817 21.3722 77.9817 21.1252C77.9817 20.8812 77.9466 20.6678 77.8765 20.4848C77.8063 20.3018 77.7034 20.1592 77.5677 20.0571C77.432 19.9549 77.2643 19.9038 77.0645 19.9038C76.8586 19.9038 76.6871 19.9572 76.5499 20.0639C76.4126 20.1707 76.3089 20.3163 76.2388 20.5008C76.1702 20.6853 76.1359 20.8934 76.1359 21.1252C76.1359 21.36 76.1709 21.5712 76.2411 21.7588C76.3112 21.9463 76.4149 22.095 76.5522 22.2048C76.6909 22.3131 76.8617 22.3672 77.0645 22.3672ZM80.3782 21.5346V21.4912C80.3812 21.2076 80.4094 20.9819 80.4628 20.8141C80.5177 20.6464 80.5955 20.5107 80.6961 20.407C80.7967 20.3033 80.918 20.2088 81.0598 20.1234C81.1513 20.0655 81.2336 20.0006 81.3068 19.929C81.38 19.8573 81.4379 19.775 81.4806 19.682C81.5233 19.5889 81.5447 19.486 81.5447 19.3732C81.5447 19.2375 81.5127 19.1201 81.4486 19.0209C81.3846 18.9218 81.2992 18.8456 81.1924 18.7922C81.0872 18.7373 80.9698 18.7099 80.8402 18.7099C80.7228 18.7099 80.6107 18.7343 80.504 18.7831C80.3972 18.8319 80.3088 18.9081 80.2386 19.0118C80.1685 19.114 80.1281 19.2458 80.1174 19.4075H79.4221C79.4328 19.133 79.5021 18.9012 79.6302 18.7122C79.7583 18.5215 79.9276 18.3775 80.138 18.2799C80.35 18.1823 80.584 18.1335 80.8402 18.1335C81.1208 18.1335 81.3663 18.1861 81.5767 18.2913C81.7871 18.395 81.9503 18.5406 82.0662 18.7282C82.1836 18.9142 82.2423 19.1315 82.2423 19.38C82.2423 19.5508 82.2156 19.7048 82.1622 19.8421C82.1089 19.9778 82.0326 20.099 81.9335 20.2057C81.8359 20.3125 81.7185 20.407 81.5813 20.4894C81.4517 20.5702 81.3464 20.654 81.2656 20.741C81.1863 20.8279 81.1284 20.9308 81.0918 21.0497C81.0552 21.1687 81.0354 21.3158 81.0323 21.4912V21.5346H80.3782ZM80.7235 22.9253C80.5985 22.9253 80.491 22.8811 80.401 22.7926C80.3111 22.7027 80.2661 22.5944 80.2661 22.4678C80.2661 22.3428 80.3111 22.2361 80.401 22.1476C80.491 22.0577 80.5985 22.0127 80.7235 22.0127C80.8471 22.0127 80.9538 22.0577 81.0438 22.1476C81.1353 22.2361 81.181 22.3428 81.181 22.4678C81.181 22.5517 81.1597 22.6287 81.117 22.6989C81.0758 22.7675 81.0209 22.8224 80.9523 22.8635C80.8837 22.9047 80.8074 22.9253 80.7235 22.9253Z" fill="#333333"/>
<path d="M26.5801 31.9444C26.5801 33.1811 25.5776 34.1836 24.3408 34.1836C23.1041 34.1836 22.1016 33.1811 22.1016 31.9444C22.1016 30.7076 23.1041 29.7051 24.3408 29.7051C25.5776 29.7051 26.5801 30.7076 26.5801 31.9444ZM22.4579 31.9444C22.4579 32.9843 23.3009 33.8273 24.3408 33.8273C25.3807 33.8273 26.2238 32.9843 26.2238 31.9444C26.2238 30.9045 25.3807 30.0615 24.3408 30.0615C23.3009 30.0615 22.4579 30.9045 22.4579 31.9444Z" fill="#D9D9D9"/>
<path d="M28.4293 29.3934H28.9976L30.1344 31.3067H30.1824L31.3192 29.3934H31.8876L30.4066 31.803V33.4922H29.9103V31.803L28.4293 29.3934ZM33.3196 33.5562C33.0234 33.5562 32.7679 33.4909 32.553 33.3601C32.3396 33.228 32.1748 33.0439 32.0587 32.8077C31.944 32.5702 31.8866 32.294 31.8866 31.9792C31.8866 31.6643 31.944 31.3868 32.0587 31.1466C32.1748 30.9051 32.3362 30.717 32.543 30.5822C32.7512 30.4461 32.994 30.3781 33.2715 30.3781C33.4316 30.3781 33.5897 30.4048 33.7459 30.4581C33.902 30.5115 34.0441 30.5982 34.1721 30.7183C34.3002 30.8371 34.4023 30.9945 34.4784 31.1906C34.5544 31.3868 34.5924 31.6283 34.5924 31.9151V32.1153H32.2228V31.707H34.1121C34.1121 31.5335 34.0774 31.3788 34.008 31.2427C33.94 31.1066 33.8426 30.9992 33.7158 30.9204C33.5904 30.8417 33.4423 30.8024 33.2715 30.8024C33.0834 30.8024 32.9206 30.8491 32.7832 30.9425C32.6471 31.0345 32.5424 31.1546 32.469 31.3027C32.3956 31.4508 32.3589 31.6096 32.3589 31.779V32.0512C32.3589 32.2834 32.3989 32.4802 32.479 32.6416C32.5604 32.8017 32.6731 32.9238 32.8172 33.0079C32.9613 33.0906 33.1288 33.1319 33.3196 33.1319C33.4436 33.1319 33.5557 33.1146 33.6558 33.0799C33.7572 33.0439 33.8446 32.9905 33.918 32.9198C33.9914 32.8478 34.0481 32.7584 34.0881 32.6516L34.5444 32.7797C34.4964 32.9345 34.4156 33.0706 34.3022 33.188C34.1888 33.3041 34.0487 33.3948 33.8819 33.4602C33.7152 33.5242 33.5277 33.5562 33.3196 33.5562ZM37.4884 31.1066L37.0641 31.2267C37.0374 31.1559 36.9981 31.0872 36.946 31.0205C36.8953 30.9525 36.8259 30.8964 36.7379 30.8524C36.6498 30.8084 36.5371 30.7864 36.3997 30.7864C36.2115 30.7864 36.0548 30.8297 35.9293 30.9164C35.8052 31.0018 35.7432 31.1106 35.7432 31.2427C35.7432 31.3601 35.7859 31.4528 35.8713 31.5209C35.9567 31.5889 36.0901 31.6456 36.2716 31.691L36.7279 31.803C37.0027 31.8698 37.2075 31.9718 37.3423 32.1093C37.477 32.2453 37.5444 32.4208 37.5444 32.6356C37.5444 32.8117 37.4937 32.9692 37.3923 33.1079C37.2923 33.2467 37.1522 33.3561 36.972 33.4361C36.7919 33.5162 36.5824 33.5562 36.3436 33.5562C36.0301 33.5562 35.7706 33.4882 35.5651 33.3521C35.3596 33.216 35.2295 33.0172 35.1748 32.7557L35.6231 32.6436C35.6658 32.8091 35.7465 32.9331 35.8653 33.0159C35.9854 33.0986 36.1421 33.1399 36.3356 33.1399C36.5558 33.1399 36.7305 33.0933 36.86 32.9999C36.9907 32.9051 37.0561 32.7917 37.0561 32.6596C37.0561 32.5529 37.0187 32.4635 36.944 32.3914C36.8693 32.3181 36.7546 32.2634 36.5998 32.2273L36.0874 32.1072C35.8059 32.0405 35.5991 31.9371 35.467 31.797C35.3363 31.6556 35.2709 31.4788 35.2709 31.2667C35.2709 31.0932 35.3196 30.9398 35.417 30.8064C35.5157 30.6729 35.6498 30.5682 35.8193 30.4922C35.99 30.4161 36.1835 30.3781 36.3997 30.3781C36.7039 30.3781 36.9427 30.4448 37.1161 30.5782C37.2909 30.7116 37.415 30.8878 37.4884 31.1066Z" fill="#4F4F4F"/>
<path d="M26.5801 42.5547C26.5801 43.7914 25.5776 44.794 24.3408 44.794C23.1041 44.794 22.1016 43.7914 22.1016 42.5547C22.1016 41.318 23.1041 40.3154 24.3408 40.3154C25.5776 40.3154 26.5801 41.318 26.5801 42.5547ZM22.4579 42.5547C22.4579 43.5946 23.3009 44.4376 24.3408 44.4376C25.3807 44.4376 26.2238 43.5946 26.2238 42.5547C26.2238 41.5148 25.3807 40.6718 24.3408 40.6718C23.3009 40.6718 22.4579 41.5148 22.4579 42.5547Z" fill="#A58CF0"/>
<circle cx="24.3423" cy="42.5547" r="1.11964" fill="#A58CF0"/>
<path d="M32.0317 40.0038V44.1025H31.5514L29.3179 40.8844H29.2778V44.1025H28.7815V40.0038H29.2618L31.5033 43.2299H31.5434V40.0038H32.0317ZM34.2097 44.1666C33.9321 44.1666 33.6886 44.1005 33.4792 43.9684C33.271 43.8364 33.1083 43.6516 32.9908 43.4141C32.8748 43.1766 32.8167 42.8991 32.8167 42.5815C32.8167 42.2613 32.8748 41.9818 32.9908 41.7429C33.1083 41.5041 33.271 41.3187 33.4792 41.1866C33.6886 41.0545 33.9321 40.9884 34.2097 40.9884C34.4872 40.9884 34.73 41.0545 34.9382 41.1866C35.1476 41.3187 35.3104 41.5041 35.4265 41.7429C35.5439 41.9818 35.6026 42.2613 35.6026 42.5815C35.6026 42.8991 35.5439 43.1766 35.4265 43.4141C35.3104 43.6516 35.1476 43.8364 34.9382 43.9684C34.73 44.1005 34.4872 44.1666 34.2097 44.1666ZM34.2097 43.7423C34.4205 43.7423 34.5939 43.6883 34.73 43.5802C34.8661 43.4721 34.9668 43.33 35.0322 43.1539C35.0976 42.9778 35.1303 42.787 35.1303 42.5815C35.1303 42.376 35.0976 42.1846 35.0322 42.0071C34.9668 41.8297 34.8661 41.6862 34.73 41.5768C34.5939 41.4674 34.4205 41.4127 34.2097 41.4127C33.9989 41.4127 33.8254 41.4674 33.6893 41.5768C33.5532 41.6862 33.4525 41.8297 33.3871 42.0071C33.3217 42.1846 33.289 42.376 33.289 42.5815C33.289 42.787 33.3217 42.9778 33.3871 43.1539C33.4525 43.33 33.5532 43.4721 33.6893 43.5802C33.8254 43.6883 33.9989 43.7423 34.2097 43.7423Z" fill="#4F4F4F"/>
<path d="M32.2237 64.7642V60.0798H33.9804C34.3402 60.0798 34.6421 60.1469 34.8861 60.2811C35.1316 60.4153 35.3169 60.5998 35.4419 60.8346C35.5685 61.0679 35.6318 61.3333 35.6318 61.6306C35.6318 61.931 35.5685 62.1979 35.4419 62.4312C35.3154 62.6645 35.1286 62.8482 34.8815 62.9824C34.6345 63.115 34.3303 63.1814 33.9689 63.1814H32.8047V62.4838H33.8546C34.065 62.4838 34.2373 62.4472 34.3715 62.374C34.5057 62.3008 34.6048 62.2001 34.6688 62.0721C34.7344 61.944 34.7672 61.7968 34.7672 61.6306C34.7672 61.4644 34.7344 61.318 34.6688 61.1915C34.6048 61.0649 34.5049 60.9665 34.3692 60.8964C34.235 60.8247 34.0619 60.7889 33.85 60.7889H33.0723V64.7642H32.2237ZM36.3322 64.7642V61.2509H37.1351V61.8365H37.1717C37.2357 61.6337 37.3455 61.4774 37.501 61.3676C37.6581 61.2563 37.8373 61.2006 38.0385 61.2006C38.0843 61.2006 38.1354 61.2029 38.1918 61.2075C38.2497 61.2105 38.2978 61.2159 38.3359 61.2235V61.9851C38.3008 61.9729 38.2452 61.9623 38.1689 61.9531C38.0942 61.9424 38.0218 61.9371 37.9516 61.9371C37.8007 61.9371 37.665 61.9699 37.5445 62.0355C37.4256 62.0995 37.3318 62.1887 37.2632 62.3031C37.1945 62.4174 37.1602 62.5493 37.1602 62.6988V64.7642H36.3322ZM40.2966 64.8328C39.9444 64.8328 39.6402 64.7596 39.384 64.6132C39.1294 64.4653 38.9334 64.2564 38.7962 63.9865C38.659 63.7151 38.5903 63.3956 38.5903 63.0281C38.5903 62.6667 38.659 62.3496 38.7962 62.0766C38.935 61.8022 39.1286 61.5887 39.3772 61.4362C39.6257 61.2822 39.9177 61.2052 40.2532 61.2052C40.4697 61.2052 40.674 61.2402 40.8662 61.3104C41.0598 61.379 41.2306 61.4857 41.3785 61.6306C41.528 61.7755 41.6454 61.96 41.7308 62.1841C41.8161 62.4068 41.8588 62.6721 41.8588 62.9801V63.234H38.9792V62.6759H41.0652C41.0636 62.5173 41.0293 62.3763 40.9622 62.2527C40.8951 62.1277 40.8014 62.0294 40.6809 61.9577C40.562 61.886 40.4232 61.8502 40.2646 61.8502C40.0954 61.8502 39.9467 61.8914 39.8186 61.9737C39.6905 62.0545 39.5906 62.1613 39.519 62.2939C39.4488 62.4251 39.413 62.5691 39.4115 62.7262V63.2134C39.4115 63.4177 39.4488 63.5931 39.5235 63.7395C39.5983 63.8843 39.7027 63.9956 39.8369 64.0734C39.9711 64.1496 40.1281 64.1878 40.3081 64.1878C40.4285 64.1878 40.5376 64.171 40.6352 64.1375C40.7327 64.1024 40.8174 64.0513 40.889 63.9842C40.9607 63.9171 41.0148 63.834 41.0514 63.7349L41.8245 63.8218C41.7757 64.0261 41.6827 64.2045 41.5455 64.357C41.4098 64.508 41.2359 64.6254 41.024 64.7093C40.812 64.7916 40.5696 64.8328 40.2966 64.8328ZM45.5968 61.2509L44.3457 64.7642H43.4308L42.1796 61.2509H43.0625L43.8699 63.8607H43.9065L44.7162 61.2509H45.5968Z" fill="#A58CF0"/>
<rect x="22.3028" y="53.7447" width="32.9202" height="18.0384" rx="3.01919" stroke="#A58CF0" stroke-width="0.402558"/>
<rect x="195.703" y="53.5435" width="34.3228" height="18.4409" rx="3.22047" fill="#A58CF0"/>
<path d="M209.675 60.0798V64.7642H208.92L206.713 61.5734H206.674V64.7642H205.825V60.0798H206.585L208.79 63.2729H208.831V60.0798H209.675ZM212.118 64.8328C211.766 64.8328 211.462 64.7596 211.206 64.6132C210.951 64.4653 210.755 64.2564 210.618 63.9865C210.48 63.7151 210.412 63.3956 210.412 63.0281C210.412 62.6667 210.48 62.3496 210.618 62.0766C210.756 61.8022 210.95 61.5887 211.199 61.4362C211.447 61.2822 211.739 61.2052 212.075 61.2052C212.291 61.2052 212.496 61.2402 212.688 61.3104C212.881 61.379 213.052 61.4857 213.2 61.6306C213.349 61.7755 213.467 61.96 213.552 62.1841C213.638 62.4068 213.68 62.6721 213.68 62.9801V63.234H210.801V62.6759H212.887C212.885 62.5173 212.851 62.3763 212.784 62.2527C212.717 62.1277 212.623 62.0294 212.502 61.9577C212.383 61.886 212.245 61.8502 212.086 61.8502C211.917 61.8502 211.768 61.8914 211.64 61.9737C211.512 62.0545 211.412 62.1613 211.34 62.2939C211.27 62.4251 211.234 62.5691 211.233 62.7262V63.2134C211.233 63.4177 211.27 63.5931 211.345 63.7395C211.42 63.8843 211.524 63.9956 211.658 64.0734C211.793 64.1496 211.95 64.1878 212.13 64.1878C212.25 64.1878 212.359 64.171 212.457 64.1375C212.554 64.1024 212.639 64.0513 212.711 63.9842C212.782 63.9171 212.836 63.834 212.873 63.7349L213.646 63.8218C213.597 64.0261 213.504 64.2045 213.367 64.357C213.231 64.508 213.057 64.6254 212.845 64.7093C212.634 64.7916 212.391 64.8328 212.118 64.8328ZM214.982 61.2509L215.691 62.5478L216.412 61.2509H217.288L216.229 63.0075L217.306 64.7642H216.435L215.691 63.4993L214.955 64.7642H214.077L215.147 63.0075L214.104 61.2509H214.982ZM219.683 61.2509V61.8914H217.663V61.2509H219.683ZM218.162 60.4092H218.99V63.7074C218.99 63.8188 219.006 63.9041 219.04 63.9636C219.075 64.0216 219.121 64.0612 219.177 64.0826C219.234 64.1039 219.296 64.1146 219.365 64.1146C219.417 64.1146 219.464 64.1108 219.507 64.1031C219.551 64.0955 219.584 64.0887 219.607 64.0826L219.747 64.7299C219.703 64.7451 219.639 64.7619 219.557 64.7802C219.476 64.7985 219.377 64.8091 219.26 64.8122C219.052 64.8183 218.865 64.787 218.699 64.7184C218.533 64.6483 218.401 64.54 218.303 64.3936C218.207 64.2472 218.16 64.0643 218.162 63.8447V60.4092Z" fill="white"/>
</g>
<g filter="url(#filter1_dd_3979_8532)">
<rect x="50.8867" y="69.6875" width="240.128" height="75.133" rx="3.22047" fill="white" shape-rendering="crispEdges"/>
<path d="M68.4201 89.5693L67.1209 84.885H67.8643L68.7769 88.5126H68.8204L69.7696 84.885H70.5061L71.4553 88.5149H71.4988L72.4091 84.885H73.1547L71.8533 89.5693H71.142L70.1561 86.0607H70.1195L69.1337 89.5693H68.4201ZM74.4282 87.4834V89.5693H73.7443V84.885H74.419V86.6279H74.4625C74.5448 86.4388 74.6706 86.2886 74.8399 86.1773C75.0091 86.066 75.2302 86.0104 75.5032 86.0104C75.7441 86.0104 75.9545 86.0599 76.1345 86.159C76.3159 86.2581 76.4562 86.4061 76.5553 86.6028C76.656 86.7979 76.7063 87.0419 76.7063 87.3347V89.5693H76.0224V87.417C76.0224 87.1593 75.9561 86.9596 75.8234 86.8178C75.6907 86.6744 75.5062 86.6028 75.2699 86.6028C75.1083 86.6028 74.9634 86.6371 74.8353 86.7057C74.7087 86.7743 74.6089 86.8749 74.5357 87.0076C74.464 87.1387 74.4282 87.2973 74.4282 87.4834ZM78.6413 89.6471C78.4187 89.6471 78.2174 89.6059 78.0375 89.5236C77.8575 89.4397 77.715 89.3185 77.6098 89.1599C77.5061 89.0013 77.4542 88.8069 77.4542 88.5767C77.4542 88.3784 77.4923 88.2153 77.5686 88.0872C77.6448 87.9591 77.7478 87.8577 77.8774 87.783C78.007 87.7083 78.1518 87.6518 78.3119 87.6137C78.4721 87.5756 78.6352 87.5466 78.8014 87.5268C79.0119 87.5024 79.1826 87.4826 79.3138 87.4673C79.4449 87.4506 79.5402 87.4239 79.5997 87.3873C79.6591 87.3507 79.6889 87.2912 79.6889 87.2089V87.1929C79.6889 86.9931 79.6325 86.8383 79.5196 86.7286C79.4083 86.6188 79.2421 86.5639 79.021 86.5639C78.7907 86.5639 78.6093 86.615 78.4766 86.7171C78.3455 86.8178 78.2548 86.9298 78.2044 87.0533L77.5617 86.907C77.638 86.6935 77.7493 86.5212 77.8957 86.39C78.0436 86.2574 78.2136 86.1613 78.4057 86.1018C78.5979 86.0409 78.7999 86.0104 79.0119 86.0104C79.1521 86.0104 79.3008 86.0271 79.4579 86.0607C79.6165 86.0927 79.7644 86.1522 79.9016 86.2391C80.0404 86.326 80.154 86.4503 80.2424 86.6119C80.3308 86.772 80.3751 86.9802 80.3751 87.2363V89.5693H79.7072V89.089H79.6797C79.6355 89.1775 79.5692 89.2644 79.4807 89.3498C79.3923 89.4351 79.2787 89.5061 79.1399 89.5625C79.0012 89.6189 78.835 89.6471 78.6413 89.6471ZM78.79 89.0982C78.9791 89.0982 79.1407 89.0608 79.2749 88.9861C79.4106 88.9114 79.5135 88.8138 79.5837 88.6933C79.6553 88.5713 79.6912 88.441 79.6912 88.3022V87.8493C79.6668 87.8737 79.6195 87.8966 79.5494 87.9179C79.4807 87.9378 79.4022 87.9553 79.3138 87.9705C79.2253 87.9843 79.1392 87.9972 79.0553 88.0094C78.9714 88.0201 78.9013 88.0292 78.8449 88.0369C78.7122 88.0536 78.591 88.0819 78.4812 88.1215C78.3729 88.1611 78.286 88.2183 78.2205 88.293C78.1564 88.3662 78.1244 88.4638 78.1244 88.5858C78.1244 88.7551 78.1869 88.8832 78.3119 88.9701C78.437 89.0555 78.5963 89.0982 78.79 89.0982ZM82.9259 86.0561V86.605H81.0069V86.0561H82.9259ZM81.5216 85.2144H82.2054V88.5378C82.2054 88.6704 82.2253 88.7703 82.2649 88.8374C82.3046 88.903 82.3556 88.948 82.4182 88.9724C82.4822 88.9952 82.5516 89.0067 82.6263 89.0067C82.6812 89.0067 82.7292 89.0029 82.7704 88.9952C82.8116 88.9876 82.8436 88.9815 82.8665 88.9769L82.99 89.5419C82.9503 89.5571 82.8939 89.5724 82.8207 89.5876C82.7475 89.6044 82.656 89.6136 82.5462 89.6151C82.3663 89.6181 82.1986 89.5861 82.043 89.519C81.8875 89.4519 81.7617 89.3482 81.6656 89.2079C81.5696 89.0677 81.5216 88.8915 81.5216 88.6796V85.2144ZM86.4094 89.6471C86.1868 89.6471 85.9855 89.6059 85.8056 89.5236C85.6257 89.4397 85.4831 89.3185 85.3779 89.1599C85.2742 89.0013 85.2223 88.8069 85.2223 88.5767C85.2223 88.3784 85.2605 88.2153 85.3367 88.0872C85.4129 87.9591 85.5159 87.8577 85.6455 87.783C85.7751 87.7083 85.92 87.6518 86.0801 87.6137C86.2402 87.5756 86.4033 87.5466 86.5695 87.5268C86.78 87.5024 86.9508 87.4826 87.0819 87.4673C87.213 87.4506 87.3083 87.4239 87.3678 87.3873C87.4273 87.3507 87.457 87.2912 87.457 87.2089V87.1929C87.457 86.9931 87.4006 86.8383 87.2877 86.7286C87.1764 86.6188 87.0102 86.5639 86.7891 86.5639C86.5589 86.5639 86.3774 86.615 86.2447 86.7171C86.1136 86.8178 86.0229 86.9298 85.9726 87.0533L85.3298 86.907C85.4061 86.6935 85.5174 86.5212 85.6638 86.39C85.8117 86.2574 85.9817 86.1613 86.1738 86.1018C86.366 86.0409 86.568 86.0104 86.78 86.0104C86.9203 86.0104 87.0689 86.0271 87.226 86.0607C87.3846 86.0927 87.5325 86.1522 87.6697 86.2391C87.8085 86.326 87.9221 86.4503 88.0105 86.6119C88.099 86.772 88.1432 86.9802 88.1432 87.2363V89.5693H87.4753V89.089H87.4479C87.4036 89.1775 87.3373 89.2644 87.2489 89.3498C87.1604 89.4351 87.0468 89.5061 86.9081 89.5625C86.7693 89.6189 86.6031 89.6471 86.4094 89.6471ZM86.5581 89.0982C86.7472 89.0982 86.9088 89.0608 87.043 88.9861C87.1787 88.9114 87.2816 88.8138 87.3518 88.6933C87.4235 88.5713 87.4593 88.441 87.4593 88.3022V87.8493C87.4349 87.8737 87.3876 87.8966 87.3175 87.9179C87.2489 87.9378 87.1703 87.9553 87.0819 87.9705C86.9934 87.9843 86.9073 87.9972 86.8234 88.0094C86.7396 88.0201 86.6694 88.0292 86.613 88.0369C86.4803 88.0536 86.3591 88.0819 86.2493 88.1215C86.1411 88.1611 86.0541 88.2183 85.9886 88.293C85.9245 88.3662 85.8925 88.4638 85.8925 88.5858C85.8925 88.7551 85.955 88.8832 86.0801 88.9701C86.2051 89.0555 86.3644 89.0982 86.5581 89.0982ZM89.0541 89.5693V86.0561H89.7151V86.6142H89.7517C89.8157 86.4251 89.9286 86.2764 90.0902 86.1682C90.2534 86.0584 90.4379 86.0035 90.6437 86.0035C90.6864 86.0035 90.7367 86.005 90.7947 86.0081C90.8542 86.0111 90.9007 86.0149 90.9342 86.0195V86.6737C90.9068 86.666 90.858 86.6576 90.7878 86.6485C90.7177 86.6378 90.6475 86.6325 90.5774 86.6325C90.4158 86.6325 90.2717 86.6668 90.1451 86.7354C90.0201 86.8025 89.921 86.8963 89.8478 87.0168C89.7746 87.1357 89.738 87.2714 89.738 87.4239V89.5693H89.0541ZM92.9144 89.6402C92.5683 89.6402 92.2702 89.5663 92.0201 89.4184C91.7715 89.2689 91.5794 89.0593 91.4437 88.7894C91.3095 88.518 91.2424 88.2 91.2424 87.8356C91.2424 87.4757 91.3095 87.1586 91.4437 86.8841C91.5794 86.6096 91.7685 86.3954 92.0109 86.2414C92.2549 86.0874 92.5401 86.0104 92.8664 86.0104C93.0646 86.0104 93.2567 86.0431 93.4428 86.1087C93.6288 86.1743 93.7958 86.2772 93.9437 86.4175C94.0916 86.5578 94.2082 86.74 94.2936 86.9641C94.379 87.1868 94.4217 87.4574 94.4217 87.7761V88.0186H91.629V87.5062H93.7515C93.7515 87.3263 93.715 87.1669 93.6418 87.0282C93.5686 86.8879 93.4656 86.7773 93.333 86.6965C93.2018 86.6157 93.0478 86.5753 92.871 86.5753C92.6788 86.5753 92.5111 86.6226 92.3678 86.7171C92.2259 86.8101 92.1162 86.9321 92.0384 87.0831C91.9621 87.2325 91.924 87.3949 91.924 87.5703V87.9705C91.924 88.2054 91.9652 88.4051 92.0475 88.5698C92.1314 88.7345 92.2481 88.8603 92.3975 88.9472C92.5469 89.0326 92.7215 89.0753 92.9213 89.0753C93.0509 89.0753 93.1691 89.057 93.2758 89.0204C93.3825 88.9823 93.4748 88.9259 93.5526 88.8511C93.6303 88.7764 93.6898 88.6842 93.731 88.5744L94.3783 88.691C94.3264 88.8816 94.2334 89.0486 94.0992 89.1919C93.9666 89.3337 93.7996 89.4443 93.5983 89.5236C93.3985 89.6014 93.1706 89.6402 92.9144 89.6402ZM97.3174 90.8868C97.2152 90.8868 97.1222 90.8784 97.0383 90.8616C96.9545 90.8464 96.892 90.8296 96.8508 90.8113L97.0155 90.2509C97.1405 90.2845 97.2518 90.299 97.3494 90.2944C97.447 90.2898 97.5332 90.2532 97.6079 90.1846C97.6841 90.116 97.7512 90.0039 97.8092 89.8484L97.8938 89.6151L96.6083 86.0561H97.3403L98.23 88.7825H98.2666L99.1564 86.0561H99.8906L98.4427 90.0382C98.3756 90.2212 98.2902 90.376 98.1866 90.5025C98.0829 90.6306 97.9593 90.7267 97.816 90.7907C97.6727 90.8548 97.5065 90.8868 97.3174 90.8868ZM101.894 89.6402C101.564 89.6402 101.277 89.5648 101.031 89.4138C100.786 89.2628 100.595 89.0517 100.46 88.7802C100.324 88.5088 100.256 88.1916 100.256 87.8287C100.256 87.4643 100.324 87.1456 100.46 86.8727C100.595 86.5997 100.786 86.3878 101.031 86.2368C101.277 86.0858 101.564 86.0104 101.894 86.0104C102.223 86.0104 102.51 86.0858 102.756 86.2368C103.001 86.3878 103.192 86.5997 103.328 86.8727C103.463 87.1456 103.531 87.4643 103.531 87.8287C103.531 88.1916 103.463 88.5088 103.328 88.7802C103.192 89.0517 103.001 89.2628 102.756 89.4138C102.51 89.5648 102.223 89.6402 101.894 89.6402ZM101.896 89.0661C102.109 89.0661 102.286 89.0097 102.427 88.8969C102.567 88.784 102.671 88.6338 102.738 88.4463C102.806 88.2587 102.841 88.0521 102.841 87.8264C102.841 87.6023 102.806 87.3964 102.738 87.2089C102.671 87.0198 102.567 86.8681 102.427 86.7537C102.286 86.6394 102.109 86.5822 101.896 86.5822C101.681 86.5822 101.503 86.6394 101.361 86.7537C101.22 86.8681 101.116 87.0198 101.047 87.2089C100.98 87.3964 100.947 87.6023 100.947 87.8264C100.947 88.0521 100.98 88.2587 101.047 88.4463C101.116 88.6338 101.22 88.784 101.361 88.8969C101.503 89.0097 101.681 89.0661 101.896 89.0661ZM106.52 88.1123V86.0561H107.206V89.5693H106.534V88.9609H106.497C106.417 89.1485 106.287 89.3048 106.108 89.4298C105.932 89.5533 105.711 89.6151 105.447 89.6151C105.222 89.6151 105.022 89.5655 104.848 89.4664C104.676 89.3658 104.54 89.2171 104.441 89.0204C104.343 88.8237 104.295 88.5805 104.295 88.2908V86.0561H104.979V88.2084C104.979 88.4478 105.045 88.6384 105.178 88.7802C105.31 88.922 105.483 88.9929 105.694 88.9929C105.823 88.9929 105.95 88.9609 106.076 88.8969C106.205 88.8328 106.311 88.736 106.394 88.6064C106.48 88.4768 106.522 88.3121 106.52 88.1123ZM112.463 86.9138L111.843 87.0236C111.817 86.9443 111.776 86.8688 111.719 86.7972C111.664 86.7255 111.59 86.6668 111.495 86.6211C111.4 86.5753 111.282 86.5524 111.14 86.5524C110.947 86.5524 110.785 86.5959 110.656 86.6828C110.526 86.7682 110.461 86.8788 110.461 87.0145C110.461 87.1319 110.505 87.2264 110.592 87.2981C110.678 87.3698 110.819 87.4285 111.012 87.4742L111.57 87.6023C111.894 87.677 112.135 87.7921 112.293 87.9477C112.452 88.1032 112.531 88.3052 112.531 88.5538C112.531 88.7642 112.47 88.9518 112.348 89.1165C112.228 89.2796 112.059 89.4077 111.843 89.5007C111.628 89.5937 111.378 89.6402 111.095 89.6402C110.701 89.6402 110.38 89.5564 110.132 89.3886C109.883 89.2194 109.731 88.9792 109.674 88.6682L110.335 88.5675C110.377 88.7398 110.461 88.8702 110.589 88.9586C110.717 89.0456 110.884 89.089 111.09 89.089C111.314 89.089 111.493 89.0425 111.628 88.9495C111.762 88.8549 111.829 88.7398 111.829 88.6041C111.829 88.4943 111.788 88.4021 111.705 88.3274C111.625 88.2526 111.5 88.1962 111.333 88.1581L110.738 88.0277C110.41 87.953 110.168 87.8341 110.011 87.6709C109.855 87.5077 109.777 87.3011 109.777 87.0511C109.777 86.8437 109.835 86.6622 109.951 86.5067C110.067 86.3512 110.227 86.2299 110.431 86.143C110.636 86.0546 110.87 86.0104 111.134 86.0104C111.513 86.0104 111.812 86.0927 112.03 86.2574C112.248 86.4205 112.392 86.6394 112.463 86.9138ZM114.923 86.0561V86.605H113.004V86.0561H114.923ZM113.519 85.2144H114.203V88.5378C114.203 88.6704 114.222 88.7703 114.262 88.8374C114.302 88.903 114.353 88.948 114.415 88.9724C114.479 88.9952 114.549 89.0067 114.623 89.0067C114.678 89.0067 114.726 89.0029 114.767 88.9952C114.809 88.9876 114.841 88.9815 114.864 88.9769L114.987 89.5419C114.947 89.5571 114.891 89.5724 114.818 89.5876C114.745 89.6044 114.653 89.6136 114.543 89.6151C114.363 89.6181 114.196 89.5861 114.04 89.519C113.885 89.4519 113.759 89.3482 113.663 89.2079C113.567 89.0677 113.519 88.8915 113.519 88.6796V85.2144ZM117.905 88.1123V86.0561H118.591V89.5693H117.919V88.9609H117.882C117.801 89.1485 117.672 89.3048 117.493 89.4298C117.316 89.5533 117.096 89.6151 116.832 89.6151C116.607 89.6151 116.407 89.5655 116.233 89.4664C116.061 89.3658 115.925 89.2171 115.826 89.0204C115.728 88.8237 115.68 88.5805 115.68 88.2908V86.0561H116.363V88.2084C116.363 88.4478 116.43 88.6384 116.562 88.7802C116.695 88.922 116.867 88.9929 117.079 88.9929C117.207 88.9929 117.335 88.9609 117.461 88.8969C117.589 88.8328 117.695 88.736 117.779 88.6064C117.865 88.4768 117.907 88.3121 117.905 88.1123ZM120.825 89.638C120.542 89.638 120.289 89.5655 120.066 89.4207C119.845 89.2743 119.671 89.0661 119.544 88.7962C119.419 88.5248 119.357 88.1993 119.357 87.8196C119.357 87.4399 119.42 87.1151 119.547 86.8452C119.675 86.5753 119.85 86.3687 120.073 86.2254C120.295 86.082 120.548 86.0104 120.83 86.0104C121.048 86.0104 121.223 86.047 121.356 86.1201C121.49 86.1918 121.594 86.2757 121.667 86.3717C121.742 86.4678 121.8 86.5524 121.841 86.6256H121.882V84.885H122.566V89.5693H121.898V89.0227H121.841C121.8 89.0974 121.74 89.1828 121.662 89.2789C121.586 89.3749 121.481 89.4588 121.347 89.5305C121.213 89.6021 121.039 89.638 120.825 89.638ZM120.976 89.0547C121.173 89.0547 121.339 89.0029 121.475 88.8992C121.612 88.794 121.716 88.6483 121.786 88.4623C121.858 88.2763 121.893 88.0597 121.893 87.8127C121.893 87.5687 121.858 87.3553 121.788 87.1723C121.718 86.9893 121.615 86.8467 121.479 86.7446C121.344 86.6424 121.176 86.5913 120.976 86.5913C120.77 86.5913 120.599 86.6447 120.462 86.7514C120.324 86.8582 120.221 87.0038 120.151 87.1883C120.082 87.3728 120.048 87.5809 120.048 87.8127C120.048 88.0475 120.083 88.2587 120.153 88.4463C120.223 88.6338 120.327 88.7825 120.464 88.8923C120.603 89.0006 120.773 89.0547 120.976 89.0547ZM123.542 89.5693V86.0561H124.226V89.5693H123.542ZM123.887 85.514C123.768 85.514 123.666 85.4744 123.581 85.3951C123.497 85.3143 123.455 85.2182 123.455 85.1069C123.455 84.994 123.497 84.898 123.581 84.8187C123.666 84.7379 123.768 84.6975 123.887 84.6975C124.006 84.6975 124.108 84.7379 124.192 84.8187C124.277 84.898 124.32 84.994 124.32 85.1069C124.32 85.2182 124.277 85.3143 124.192 85.3951C124.108 85.4744 124.006 85.514 123.887 85.514ZM125.83 87.4834V89.5693H125.146V86.0561H125.802V86.6279H125.846C125.927 86.4419 126.053 86.2925 126.226 86.1796C126.399 86.0668 126.618 86.0104 126.882 86.0104C127.121 86.0104 127.331 86.0607 127.511 86.1613C127.691 86.2604 127.83 86.4083 127.93 86.605C128.029 86.8017 128.078 87.045 128.078 87.3347V89.5693H127.394V87.417C127.394 87.1624 127.328 86.9634 127.195 86.82C127.063 86.6752 126.88 86.6028 126.649 86.6028C126.49 86.6028 126.349 86.6371 126.226 86.7057C126.104 86.7743 126.007 86.8749 125.935 87.0076C125.865 87.1387 125.83 87.2973 125.83 87.4834ZM130.468 90.96C130.189 90.96 129.949 90.9234 129.748 90.8502C129.548 90.777 129.385 90.6802 129.258 90.5597C129.132 90.4393 129.037 90.3074 128.975 90.164L129.563 89.9216C129.604 89.9887 129.659 90.0596 129.727 90.1343C129.797 90.2105 129.892 90.2753 130.011 90.3287C130.131 90.3821 130.286 90.4088 130.475 90.4088C130.734 90.4088 130.949 90.3455 131.118 90.2189C131.287 90.0939 131.372 89.8941 131.372 89.6197V88.9289H131.328C131.287 89.0036 131.228 89.0867 131.15 89.1782C131.074 89.2697 130.969 89.349 130.834 89.4161C130.7 89.4832 130.526 89.5167 130.311 89.5167C130.033 89.5167 129.783 89.4519 129.56 89.3223C129.339 89.1912 129.164 88.9983 129.034 88.7436C128.906 88.4875 128.842 88.1726 128.842 87.799C128.842 87.4254 128.905 87.1052 129.032 86.8383C129.16 86.5715 129.335 86.3672 129.558 86.2254C129.781 86.082 130.033 86.0104 130.315 86.0104C130.533 86.0104 130.709 86.047 130.844 86.1201C130.978 86.1918 131.082 86.2757 131.157 86.3717C131.233 86.4678 131.292 86.5524 131.333 86.6256H131.383V86.0561H132.053V89.6471C132.053 89.949 131.983 90.1968 131.843 90.3905C131.703 90.5841 131.513 90.7275 131.274 90.8205C131.036 90.9135 130.767 90.96 130.468 90.96ZM130.462 88.9495C130.658 88.9495 130.824 88.9037 130.96 88.8123C131.097 88.7192 131.201 88.5866 131.271 88.4143C131.343 88.2404 131.379 88.0323 131.379 87.7898C131.379 87.5535 131.344 87.3454 131.274 87.1654C131.203 86.9855 131.1 86.8452 130.965 86.7446C130.829 86.6424 130.661 86.5913 130.462 86.5913C130.256 86.5913 130.084 86.6447 129.947 86.7514C129.81 86.8566 129.706 87 129.636 87.1814C129.567 87.3629 129.533 87.5657 129.533 87.7898C129.533 88.0201 129.568 88.2221 129.638 88.396C129.708 88.5698 129.812 88.7055 129.949 88.8031C130.088 88.9007 130.259 88.9495 130.462 88.9495ZM135.359 87.4834V89.5693H134.675V86.0561H135.332V86.6279H135.375C135.456 86.4419 135.583 86.2925 135.755 86.1796C135.929 86.0668 136.147 86.0104 136.411 86.0104C136.651 86.0104 136.86 86.0607 137.04 86.1613C137.22 86.2604 137.36 86.4083 137.459 86.605C137.558 86.8017 137.608 87.045 137.608 87.3347V89.5693H136.924V87.417C136.924 87.1624 136.857 86.9634 136.725 86.82C136.592 86.6752 136.41 86.6028 136.178 86.6028C136.019 86.6028 135.878 86.6371 135.755 86.7057C135.633 86.7743 135.536 86.8749 135.464 87.0076C135.394 87.1387 135.359 87.2973 135.359 87.4834ZM140.005 89.6402C139.675 89.6402 139.388 89.5648 139.142 89.4138C138.897 89.2628 138.706 89.0517 138.57 88.7802C138.435 88.5088 138.367 88.1916 138.367 87.8287C138.367 87.4643 138.435 87.1456 138.57 86.8727C138.706 86.5997 138.897 86.3878 139.142 86.2368C139.388 86.0858 139.675 86.0104 140.005 86.0104C140.334 86.0104 140.621 86.0858 140.867 86.2368C141.112 86.3878 141.303 86.5997 141.439 86.8727C141.574 87.1456 141.642 87.4643 141.642 87.8287C141.642 88.1916 141.574 88.5088 141.439 88.7802C141.303 89.0517 141.112 89.2628 140.867 89.4138C140.621 89.5648 140.334 89.6402 140.005 89.6402ZM140.007 89.0661C140.22 89.0661 140.397 89.0097 140.538 88.8969C140.678 88.784 140.781 88.6338 140.849 88.4463C140.917 88.2587 140.952 88.0521 140.952 87.8264C140.952 87.6023 140.917 87.3964 140.849 87.2089C140.781 87.0198 140.678 86.8681 140.538 86.7537C140.397 86.6394 140.22 86.5822 140.007 86.5822C139.792 86.5822 139.613 86.6394 139.472 86.7537C139.331 86.8681 139.227 87.0198 139.158 87.2089C139.091 87.3964 139.058 87.6023 139.058 87.8264C139.058 88.0521 139.091 88.2587 139.158 88.4463C139.227 88.6338 139.331 88.784 139.472 88.8969C139.613 89.0097 139.792 89.0661 140.007 89.0661ZM143.06 89.5693L142.027 86.0561H142.733L143.422 88.6361H143.456L144.147 86.0561H144.854L145.54 88.6247H145.574L146.258 86.0561H146.965L145.933 89.5693H145.236L144.522 87.0328H144.469L143.756 89.5693H143.06ZM148.362 88.2221V88.1787C148.365 87.8951 148.393 87.6694 148.446 87.5016C148.501 87.3339 148.579 87.1982 148.68 87.0945C148.78 86.9908 148.901 86.8963 149.043 86.8109C149.135 86.753 149.217 86.6881 149.29 86.6165C149.363 86.5448 149.421 86.4625 149.464 86.3695C149.507 86.2764 149.528 86.1735 149.528 86.0607C149.528 85.925 149.496 85.8076 149.432 85.7084C149.368 85.6093 149.283 85.5331 149.176 85.4797C149.071 85.4248 148.953 85.3974 148.824 85.3974C148.706 85.3974 148.594 85.4218 148.487 85.4706C148.381 85.5194 148.292 85.5956 148.222 85.6993C148.152 85.8015 148.112 85.9333 148.101 86.095H147.406C147.416 85.8205 147.486 85.5887 147.614 85.3997C147.742 85.209 147.911 85.065 148.122 84.9674C148.333 84.8698 148.568 84.821 148.824 84.821C149.104 84.821 149.35 84.8736 149.56 84.9788C149.771 85.0825 149.934 85.2281 150.05 85.4157C150.167 85.6017 150.226 85.819 150.226 86.0675C150.226 86.2383 150.199 86.3923 150.146 86.5296C150.092 86.6653 150.016 86.7865 149.917 86.8932C149.819 87 149.702 87.0945 149.565 87.1769C149.435 87.2577 149.33 87.3415 149.249 87.4285C149.17 87.5154 149.112 87.6183 149.075 87.7372C149.039 87.8562 149.019 88.0033 149.016 88.1787V88.2221H148.362ZM148.707 89.6128C148.582 89.6128 148.475 89.5686 148.385 89.4801C148.295 89.3902 148.25 89.2819 148.25 89.1553C148.25 89.0303 148.295 88.9236 148.385 88.8351C148.475 88.7452 148.582 88.7002 148.707 88.7002C148.831 88.7002 148.937 88.7452 149.027 88.8351C149.119 88.9236 149.165 89.0303 149.165 89.1553C149.165 89.2392 149.143 89.3162 149.1 89.3864C149.059 89.455 149.004 89.5099 148.936 89.551C148.867 89.5922 148.791 89.6128 148.707 89.6128Z" fill="#333333"/>
<rect x="67.3694" y="94.4788" width="122.637" height="12.197" rx="2.66808" stroke="#F2F2F2" stroke-width="0.76231"/>
<path d="M77.1105 124.718V120.034H78.8671C79.2269 120.034 79.5289 120.101 79.7728 120.235C80.0183 120.369 80.2036 120.554 80.3286 120.789C80.4552 121.022 80.5185 121.287 80.5185 121.585C80.5185 121.885 80.4552 122.152 80.3286 122.385C80.2021 122.619 80.0153 122.802 79.7683 122.936C79.5212 123.069 79.217 123.135 78.8556 123.135H77.6914V122.438H78.7413C78.9517 122.438 79.124 122.401 79.2582 122.328C79.3924 122.255 79.4915 122.154 79.5555 122.026C79.6211 121.898 79.6539 121.751 79.6539 121.585C79.6539 121.419 79.6211 121.272 79.5555 121.146C79.4915 121.019 79.3916 120.921 79.2559 120.85C79.1217 120.779 78.9487 120.743 78.7367 120.743H77.959V124.718H77.1105ZM81.219 124.718V121.205H82.0218V121.791H82.0584C82.1224 121.588 82.2322 121.431 82.3878 121.322C82.5448 121.21 82.724 121.155 82.9253 121.155C82.971 121.155 83.0221 121.157 83.0785 121.162C83.1365 121.165 83.1845 121.17 83.2226 121.178V121.939C83.1875 121.927 83.1319 121.916 83.0556 121.907C82.9809 121.897 82.9085 121.891 82.8383 121.891C82.6874 121.891 82.5517 121.924 82.4312 121.99C82.3123 122.054 82.2185 122.143 82.1499 122.257C82.0813 122.372 82.047 122.503 82.047 122.653V124.718H81.219ZM85.1834 124.787C84.8311 124.787 84.5269 124.714 84.2707 124.567C84.0161 124.419 83.8202 124.21 83.6829 123.941C83.5457 123.669 83.4771 123.35 83.4771 122.982C83.4771 122.621 83.5457 122.304 83.6829 122.031C83.8217 121.756 84.0153 121.543 84.2639 121.39C84.5124 121.236 84.8044 121.159 85.1399 121.159C85.3564 121.159 85.5608 121.194 85.7529 121.264C85.9465 121.333 86.1173 121.44 86.2652 121.585C86.4147 121.73 86.5321 121.914 86.6175 122.138C86.7029 122.361 86.7456 122.626 86.7456 122.934V123.188H83.8659V122.63H85.9519C85.9504 122.471 85.916 122.33 85.849 122.207C85.7819 122.082 85.6881 121.983 85.5676 121.912C85.4487 121.84 85.3099 121.804 85.1513 121.804C84.9821 121.804 84.8334 121.845 84.7053 121.928C84.5772 122.009 84.4774 122.115 84.4057 122.248C84.3355 122.379 84.2997 122.523 84.2982 122.68V123.167C84.2982 123.372 84.3355 123.547 84.4103 123.694C84.485 123.838 84.5894 123.95 84.7236 124.028C84.8578 124.104 85.0149 124.142 85.1948 124.142C85.3153 124.142 85.4243 124.125 85.5219 124.092C85.6195 124.056 85.7041 124.005 85.7758 123.938C85.8474 123.871 85.9016 123.788 85.9382 123.689L86.7113 123.776C86.6625 123.98 86.5694 124.159 86.4322 124.311C86.2965 124.462 86.1227 124.58 85.9107 124.663C85.6988 124.746 85.4563 124.787 85.1834 124.787ZM90.4835 121.205L89.2324 124.718H88.3175L87.0663 121.205H87.9492L88.7566 123.815H88.7932L89.6029 121.205H90.4835Z" fill="#A58CF0"/>
<rect x="67.1896" y="113.699" width="32.9202" height="18.0384" rx="3.01919" stroke="#A58CF0" stroke-width="0.402558"/>
<rect x="240.59" y="113.498" width="34.3228" height="18.4409" rx="3.22047" fill="#A58CF0"/>
<path d="M254.561 120.034V124.718H253.807L251.599 121.528H251.561V124.718H250.712V120.034H251.471L253.676 123.227H253.717V120.034H254.561ZM257.005 124.787C256.653 124.787 256.348 124.714 256.092 124.567C255.838 124.419 255.642 124.21 255.504 123.941C255.367 123.669 255.299 123.35 255.299 122.982C255.299 122.621 255.367 122.304 255.504 122.031C255.643 121.756 255.837 121.543 256.085 121.39C256.334 121.236 256.626 121.159 256.961 121.159C257.178 121.159 257.382 121.194 257.574 121.264C257.768 121.333 257.939 121.44 258.087 121.585C258.236 121.73 258.354 121.914 258.439 122.138C258.524 122.361 258.567 122.626 258.567 122.934V123.188H255.687V122.63H257.773C257.772 122.471 257.738 122.33 257.67 122.207C257.603 122.082 257.51 121.983 257.389 121.912C257.27 121.84 257.131 121.804 256.973 121.804C256.804 121.804 256.655 121.845 256.527 121.928C256.399 122.009 256.299 122.115 256.227 122.248C256.157 122.379 256.121 122.523 256.12 122.68V123.167C256.12 123.372 256.157 123.547 256.232 123.694C256.306 123.838 256.411 123.95 256.545 124.028C256.679 124.104 256.836 124.142 257.016 124.142C257.137 124.142 257.246 124.125 257.343 124.092C257.441 124.056 257.526 124.005 257.597 123.938C257.669 123.871 257.723 123.788 257.76 123.689L258.533 123.776C258.484 123.98 258.391 124.159 258.254 124.311C258.118 124.462 257.944 124.58 257.732 124.663C257.52 124.746 257.278 124.787 257.005 124.787ZM259.869 121.205L260.578 122.502L261.299 121.205H262.175L261.116 122.962L262.193 124.718H261.321L260.578 123.453L259.842 124.718H258.963L260.034 122.962L258.991 121.205H259.869ZM264.569 121.205V121.845H262.55V121.205H264.569ZM263.048 120.363H263.876V123.662C263.876 123.773 263.893 123.858 263.927 123.918C263.962 123.976 264.008 124.015 264.064 124.037C264.12 124.058 264.183 124.069 264.251 124.069C264.303 124.069 264.351 124.065 264.393 124.057C264.438 124.05 264.471 124.043 264.494 124.037L264.633 124.684C264.589 124.699 264.526 124.716 264.444 124.734C264.363 124.753 264.264 124.763 264.146 124.766C263.939 124.772 263.752 124.741 263.586 124.673C263.42 124.602 263.288 124.494 263.19 124.348C263.094 124.201 263.047 124.018 263.048 123.799V120.363Z" fill="white"/>
</g>
<defs>
<filter id="filter0_dd_3979_8532" x="0.495644" y="0.247822" width="251.138" height="92.8749" filterUnits="userSpaceOnUse" color-interpolation-filters="sRGB">
<feFlood flood-opacity="0" result="BackgroundImageFix"/>
<feColorMatrix in="SourceAlpha" type="matrix" values="0 0 0 0 0 0 0 0 0 0 0 0 0 0 0 0 0 0 127 0" result="hardAlpha"/>
<feOffset dy="2.75218"/>
<feGaussianBlur stdDeviation="2.75218"/>
<feComposite in2="hardAlpha" operator="out"/>
<feColorMatrix type="matrix" values="0 0 0 0 0 0 0 0 0 0 0 0 0 0 0 0 0 0 0.05 0"/>
<feBlend mode="normal" in2="BackgroundImageFix" result="effect1_dropShadow_3979_8532"/>
<feColorMatrix in="SourceAlpha" type="matrix" values="0 0 0 0 0 0 0 0 0 0 0 0 0 0 0 0 0 0 127 0" result="hardAlpha"/>
<feOffset dy="1.37609"/>
<feGaussianBlur stdDeviation="1.37609"/>
<feComposite in2="hardAlpha" operator="out"/>
<feColorMatrix type="matrix" values="0 0 0 0 0 0 0 0 0 0 0 0 0 0 0 0 0 0 0.07 0"/>
<feBlend mode="normal" in2="effect1_dropShadow_3979_8532" result="effect2_dropShadow_3979_8532"/>
<feBlend mode="normal" in="SourceGraphic" in2="effect2_dropShadow_3979_8532" result="shape"/>
</filter>
<filter id="filter1_dd_3979_8532" x="45.3824" y="66.9353" width="251.138" height="86.1415" filterUnits="userSpaceOnUse" color-interpolation-filters="sRGB">
<feFlood flood-opacity="0" result="BackgroundImageFix"/>
<feColorMatrix in="SourceAlpha" type="matrix" values="0 0 0 0 0 0 0 0 0 0 0 0 0 0 0 0 0 0 127 0" result="hardAlpha"/>
<feOffset dy="2.75218"/>
<feGaussianBlur stdDeviation="2.75218"/>
<feComposite in2="hardAlpha" operator="out"/>
<feColorMatrix type="matrix" values="0 0 0 0 0 0 0 0 0 0 0 0 0 0 0 0 0 0 0.05 0"/>
<feBlend mode="normal" in2="BackgroundImageFix" result="effect1_dropShadow_3979_8532"/>
<feColorMatrix in="SourceAlpha" type="matrix" values="0 0 0 0 0 0 0 0 0 0 0 0 0 0 0 0 0 0 127 0" result="hardAlpha"/>
<feOffset dy="1.37609"/>
<feGaussianBlur stdDeviation="1.37609"/>
<feComposite in2="hardAlpha" operator="out"/>
<feColorMatrix type="matrix" values="0 0 0 0 0 0 0 0 0 0 0 0 0 0 0 0 0 0 0.07 0"/>
<feBlend mode="normal" in2="effect1_dropShadow_3979_8532" result="effect2_dropShadow_3979_8532"/>
<feBlend mode="normal" in="SourceGraphic" in2="effect2_dropShadow_3979_8532" result="shape"/>
</filter>
</defs>
</svg>
