<svg width="294" height="148" viewBox="0 0 294 148" fill="none" xmlns="http://www.w3.org/2000/svg">
<g filter="url(#filter0_dd_3980_8779)">
<rect x="4" y="7" width="135.33" height="123.511" rx="2.82371" fill="url(#paint0_radial_3980_8779)"/>
<rect x="4" y="7" width="135.33" height="123.511" rx="2.82371" fill="white"/>
<path d="M104.602 99.7971C106.262 101.457 108.969 101.468 110.475 99.6675C115.601 93.5384 119.125 86.2029 120.692 78.322C122.537 69.0475 121.59 59.4343 117.972 50.6979C114.353 41.9615 108.225 34.4944 100.362 29.2408C93.6812 24.7766 86.0028 22.0811 78.0441 21.3718C75.7063 21.1635 73.7997 23.0859 73.7997 25.433L73.7997 30.7225C73.7997 33.0696 75.7098 34.945 78.0387 35.2374C83.2656 35.8938 88.2891 37.7579 92.7014 40.7061C98.2963 44.4445 102.657 49.7581 105.232 55.9748C107.807 62.1915 108.481 69.0322 107.168 75.6319C106.133 80.8365 103.899 85.7069 100.667 89.8669C99.2269 91.7205 99.2024 94.3972 100.862 96.0569L104.602 99.7971Z" fill="#BDD3F4"/>
<path d="M69.538 25.433C69.538 23.0859 67.6315 21.1635 65.2936 21.3719C58.9053 21.9412 52.6816 23.7916 46.9998 26.8286C40.0656 30.535 34.1525 35.8944 29.7842 42.4319C25.416 48.9694 22.7275 56.4834 21.9568 64.3082C21.1861 72.1329 22.3571 80.027 25.366 87.2911C28.3749 94.5552 33.1288 100.965 39.2067 105.953C45.2846 110.941 52.4989 114.353 60.2104 115.887C67.922 117.421 75.8928 117.03 83.4169 114.747C89.582 112.877 95.2912 109.785 100.211 105.67C102.011 104.164 102 101.457 100.341 99.7971L96.6004 96.0569C94.9407 94.3972 92.264 94.4217 90.4104 95.8617C87.1333 98.4076 83.4081 100.34 79.4141 101.552C74.06 103.176 68.388 103.454 62.9006 102.363C57.4131 101.271 52.2795 98.8434 47.9545 95.294C43.6296 91.7446 40.2467 87.1833 38.1056 82.0142C35.9645 76.8451 35.1312 71.2278 35.6796 65.6597C36.228 60.0917 38.1412 54.7449 41.2496 50.0928C44.358 45.4408 48.5657 41.6271 53.5 38.9896C57.181 37.0221 61.1815 35.7545 65.299 35.2374C67.6279 34.945 69.538 33.0696 69.538 30.7225V25.433Z" fill="#F4BDBD"/>
<path d="M59.5388 66.3941V65.3284L63.7022 59.3558H65.4123V65.1674H66.5646V66.3941H65.4123V68.2776H64.0244V66.3941H59.5388ZM64.0864 60.7932L61.162 65.1674H64.0864V60.7932ZM73.5591 60.4586H69.408V62.9245C69.5815 62.6932 69.8375 62.4991 70.1762 62.3421C70.5232 62.1852 70.8908 62.1067 71.2791 62.1067C71.973 62.1067 72.5347 62.2554 72.9643 62.5528C73.4021 62.8502 73.7119 63.226 73.8936 63.6804C74.0836 64.1347 74.1787 64.6139 74.1787 65.1178C74.1787 65.7291 74.0589 66.2743 73.8193 66.7535C73.588 67.2243 73.2369 67.5961 72.766 67.8687C72.3034 68.1413 71.7334 68.2776 71.056 68.2776C70.1556 68.2776 69.4328 68.0545 68.8875 67.6085C68.3423 67.1624 68.016 66.5717 67.9086 65.8365H69.2841C69.3749 66.2248 69.5773 66.5345 69.8912 66.7658C70.2052 66.9889 70.5975 67.1004 71.0684 67.1004C71.6549 67.1004 72.0928 66.9228 72.3819 66.5676C72.6793 66.2124 72.828 65.7415 72.828 65.155C72.828 64.5602 72.6793 64.1058 72.3819 63.7919C72.0845 63.4697 71.6467 63.3087 71.0684 63.3087C70.6636 63.3087 70.3208 63.4119 70.0399 63.6184C69.7673 63.8167 69.5691 64.0893 69.4452 64.4363H68.1069V59.2195H73.5591V60.4586ZM75.4261 61.4252C75.4261 60.8221 75.5996 60.3513 75.9465 60.0126C76.3018 59.6656 76.7561 59.4921 77.3096 59.4921C77.8631 59.4921 78.3133 59.6656 78.6603 60.0126C79.0155 60.3513 79.1931 60.8221 79.1931 61.4252C79.1931 62.0282 79.0155 62.5032 78.6603 62.8502C78.3133 63.1971 77.8631 63.3706 77.3096 63.3706C76.7561 63.3706 76.3018 63.1971 75.9465 62.8502C75.5996 62.5032 75.4261 62.0282 75.4261 61.4252ZM82.9848 59.6532L78.0407 68.2776H76.6529L81.597 59.6532H82.9848ZM77.3096 60.3471C76.7892 60.3471 76.5289 60.7065 76.5289 61.4252C76.5289 62.1521 76.7892 62.5156 77.3096 62.5156C77.5574 62.5156 77.7474 62.4289 77.8796 62.2554C78.02 62.0737 78.0903 61.7969 78.0903 61.4252C78.0903 60.7065 77.83 60.3471 77.3096 60.3471ZM80.4694 66.4932C80.4694 65.8902 80.6429 65.4193 80.9898 65.0806C81.345 64.7337 81.7994 64.5602 82.3529 64.5602C82.8981 64.5602 83.3442 64.7337 83.6911 65.0806C84.0464 65.4193 84.224 65.8902 84.224 66.4932C84.224 67.0963 84.0464 67.5713 83.6911 67.9182C83.3442 68.2652 82.8981 68.4387 82.3529 68.4387C81.7994 68.4387 81.345 68.2652 80.9898 67.9182C80.6429 67.5713 80.4694 67.0963 80.4694 66.4932ZM82.3405 65.4152C81.82 65.4152 81.5598 65.7745 81.5598 66.4932C81.5598 67.2119 81.82 67.5713 82.3405 67.5713C82.8609 67.5713 83.1211 67.2119 83.1211 66.4932C83.1211 65.7745 82.8609 65.4152 82.3405 65.4152Z" fill="#240631" fill-opacity="0.85"/>
<path d="M50.8462 79.0053C50.9509 78.868 51.0936 78.7525 51.2742 78.6586C51.4547 78.5647 51.6588 78.5177 51.8863 78.5177C52.1464 78.5177 52.3829 78.5827 52.596 78.7127C52.8127 78.8392 52.9825 79.0179 53.1053 79.2491C53.2281 79.4802 53.2895 79.7457 53.2895 80.0455C53.2895 80.3452 53.2281 80.6143 53.1053 80.8527C52.9825 81.0874 52.8127 81.2716 52.596 81.4052C52.3829 81.5353 52.1464 81.6003 51.8863 81.6003C51.6588 81.6003 51.4566 81.5551 51.2796 81.4648C51.1026 81.3709 50.9581 81.2554 50.8462 81.1181V82.9709H50.2286V78.5665H50.8462V79.0053ZM52.661 80.0455C52.661 79.8396 52.6177 79.6626 52.531 79.5145C52.448 79.3628 52.336 79.2491 52.1951 79.1732C52.0579 79.0938 51.9098 79.054 51.7509 79.054C51.5956 79.054 51.4475 79.0938 51.3067 79.1732C51.1694 79.2527 51.0575 79.3683 50.9708 79.52C50.8877 79.6716 50.8462 79.8504 50.8462 80.0563C50.8462 80.2622 50.8877 80.4427 50.9708 80.598C51.0575 80.7497 51.1694 80.8653 51.3067 80.9448C51.4475 81.0242 51.5956 81.0639 51.7509 81.0639C51.9098 81.0639 52.0579 81.0242 52.1951 80.9448C52.336 80.8617 52.448 80.7425 52.531 80.5872C52.6177 80.4319 52.661 80.2513 52.661 80.0455ZM56.636 79.9859C56.636 80.0978 56.6288 80.1989 56.6144 80.2892H54.3336C54.3517 80.5276 54.4402 80.719 54.5991 80.8635C54.758 81.008 54.953 81.0802 55.1842 81.0802C55.5164 81.0802 55.7512 80.9411 55.8884 80.663H56.5548C56.4645 80.9375 56.3002 81.1633 56.0618 81.3402C55.827 81.5136 55.5345 81.6003 55.1842 81.6003C54.8988 81.6003 54.6424 81.5371 54.4149 81.4107C54.1909 81.2806 54.014 81.1001 53.884 80.8689C53.7576 80.6342 53.6943 80.3633 53.6943 80.0563C53.6943 79.7493 53.7557 79.4802 53.8785 79.2491C54.0049 79.0143 54.1801 78.8337 54.404 78.7073C54.6316 78.5809 54.8916 78.5177 55.1842 78.5177C55.4659 78.5177 55.7169 78.5791 55.9372 78.7019C56.1575 78.8247 56.3291 78.9981 56.4518 79.222C56.5746 79.4423 56.636 79.6969 56.636 79.9859ZM55.9914 79.7908C55.9878 79.5633 55.9065 79.3809 55.7476 79.2437C55.5887 79.1064 55.3918 79.0378 55.1571 79.0378C54.944 79.0378 54.7616 79.1064 54.6099 79.2437C54.4582 79.3773 54.3679 79.5597 54.339 79.7908H55.9914ZM58.5386 81.6003C58.2569 81.6003 58.0023 81.5371 57.7747 81.4107C57.5472 81.2806 57.3684 81.1001 57.2384 80.8689C57.1084 80.6342 57.0434 80.3633 57.0434 80.0563C57.0434 79.7529 57.1102 79.4838 57.2438 79.2491C57.3775 79.0143 57.5598 78.8337 57.791 78.7073C58.0221 78.5809 58.2804 78.5177 58.5657 78.5177C58.851 78.5177 59.1092 78.5809 59.3404 78.7073C59.5715 78.8337 59.7539 79.0143 59.8876 79.2491C60.0212 79.4838 60.088 79.7529 60.088 80.0563C60.088 80.3597 60.0194 80.6287 59.8821 80.8635C59.7449 81.0983 59.5571 81.2806 59.3187 81.4107C59.084 81.5371 58.8239 81.6003 58.5386 81.6003ZM58.5386 81.0639C58.6975 81.0639 58.8456 81.026 58.9828 80.9502C59.1237 80.8743 59.2375 80.7606 59.3241 80.6089C59.4108 80.4572 59.4542 80.273 59.4542 80.0563C59.4542 79.8396 59.4126 79.6572 59.3296 79.5091C59.2465 79.3574 59.1363 79.2437 58.9991 79.1678C58.8618 79.092 58.7138 79.054 58.5549 79.054C58.3959 79.054 58.2479 79.092 58.1106 79.1678C57.977 79.2437 57.8704 79.3574 57.791 79.5091C57.7115 79.6572 57.6718 79.8396 57.6718 80.0563C57.6718 80.3777 57.7531 80.6269 57.9156 80.8039C58.0817 80.9773 58.2894 81.0639 58.5386 81.0639ZM61.3161 79.0053C61.4209 78.868 61.5635 78.7525 61.7441 78.6586C61.9247 78.5647 62.1287 78.5177 62.3563 78.5177C62.6163 78.5177 62.8529 78.5827 63.066 78.7127C63.2827 78.8392 63.4524 79.0179 63.5752 79.2491C63.698 79.4802 63.7594 79.7457 63.7594 80.0455C63.7594 80.3452 63.698 80.6143 63.5752 80.8527C63.4524 81.0874 63.2827 81.2716 63.066 81.4052C62.8529 81.5353 62.6163 81.6003 62.3563 81.6003C62.1287 81.6003 61.9265 81.5551 61.7495 81.4648C61.5726 81.3709 61.4281 81.2554 61.3161 81.1181V82.9709H60.6985V78.5665H61.3161V79.0053ZM63.131 80.0455C63.131 79.8396 63.0876 79.6626 63.001 79.5145C62.9179 79.3628 62.8059 79.2491 62.6651 79.1732C62.5278 79.0938 62.3798 79.054 62.2208 79.054C62.0655 79.054 61.9175 79.0938 61.7766 79.1732C61.6394 79.2527 61.5274 79.3683 61.4407 79.52C61.3577 79.6716 61.3161 79.8504 61.3161 80.0563C61.3161 80.2622 61.3577 80.4427 61.4407 80.598C61.5274 80.7497 61.6394 80.8653 61.7766 80.9448C61.9175 81.0242 62.0655 81.0639 62.2208 81.0639C62.3798 81.0639 62.5278 81.0242 62.6651 80.9448C62.8059 80.8617 62.9179 80.7425 63.001 80.5872C63.0876 80.4319 63.131 80.2513 63.131 80.0455ZM64.9877 77.5426V81.5515H64.3701V77.5426H64.9877ZM68.5344 79.9859C68.5344 80.0978 68.5272 80.1989 68.5128 80.2892H66.232C66.25 80.5276 66.3385 80.719 66.4974 80.8635C66.6564 81.008 66.8514 81.0802 67.0825 81.0802C67.4148 81.0802 67.6496 80.9411 67.7868 80.663H68.4532C68.3629 80.9375 68.1985 81.1633 67.9602 81.3402C67.7254 81.5136 67.4329 81.6003 67.0825 81.6003C66.7972 81.6003 66.5408 81.5371 66.3133 81.4107C66.0893 81.2806 65.9124 81.1001 65.7823 80.8689C65.6559 80.6342 65.5927 80.3633 65.5927 80.0563C65.5927 79.7493 65.6541 79.4802 65.7769 79.2491C65.9033 79.0143 66.0785 78.8337 66.3024 78.7073C66.53 78.5809 66.79 78.5177 67.0825 78.5177C67.3642 78.5177 67.6153 78.5791 67.8356 78.7019C68.0559 78.8247 68.2274 78.9981 68.3502 79.222C68.473 79.4423 68.5344 79.6969 68.5344 79.9859ZM67.8897 79.7908C67.8861 79.5633 67.8049 79.3809 67.646 79.2437C67.487 79.1064 67.2902 79.0378 67.0554 79.0378C66.8424 79.0378 66.66 79.1064 66.5083 79.2437C66.3566 79.3773 66.2663 79.5597 66.2374 79.7908H67.8897ZM70.3436 80.0563C70.3436 79.7493 70.405 79.4802 70.5278 79.2491C70.6542 79.0143 70.8276 78.8337 71.0479 78.7073C71.2682 78.5809 71.521 78.5177 71.8063 78.5177C72.1675 78.5177 72.4655 78.6044 72.7002 78.7778C72.9386 78.9475 73.0993 79.1913 73.1824 79.5091H72.516C72.4619 79.361 72.3752 79.2455 72.256 79.1624C72.1368 79.0793 71.9869 79.0378 71.8063 79.0378C71.5535 79.0378 71.3513 79.1281 71.1996 79.3087C71.0515 79.4856 70.9775 79.7348 70.9775 80.0563C70.9775 80.3777 71.0515 80.6287 71.1996 80.8093C71.3513 80.9899 71.5535 81.0802 71.8063 81.0802C72.1639 81.0802 72.4005 80.9231 72.516 80.6089H73.1824C73.0957 80.9122 72.9332 81.1542 72.6948 81.3348C72.4564 81.5118 72.1603 81.6003 71.8063 81.6003C71.521 81.6003 71.2682 81.5371 71.0479 81.4107C70.8276 81.2806 70.6542 81.1001 70.5278 80.8689C70.405 80.6342 70.3436 80.3633 70.3436 80.0563ZM75.3418 78.5177C75.5694 78.5177 75.7716 78.5665 75.9486 78.664C76.1292 78.7615 76.27 78.906 76.3712 79.0974C76.4759 79.2888 76.5283 79.52 76.5283 79.7908V81.5515H75.9161V79.8829C75.9161 79.6157 75.8493 79.4116 75.7156 79.2707C75.582 79.1263 75.3996 79.054 75.1685 79.054C74.9373 79.054 74.7531 79.1263 74.6159 79.2707C74.4823 79.4116 74.4155 79.6157 74.4155 79.8829V81.5515H73.7979V77.5426H74.4155V78.9132C74.5202 78.7868 74.652 78.6893 74.8109 78.6207C74.9735 78.552 75.1504 78.5177 75.3418 78.5177ZM80.0519 79.9859C80.0519 80.0978 80.0447 80.1989 80.0302 80.2892H77.7494C77.7675 80.5276 77.856 80.719 78.0149 80.8635C78.1738 81.008 78.3688 81.0802 78.6 81.0802C78.9323 81.0802 79.167 80.9411 79.3043 80.663H79.9706C79.8803 80.9375 79.716 81.1633 79.4776 81.3402C79.2429 81.5136 78.9503 81.6003 78.6 81.6003C78.3147 81.6003 78.0582 81.5371 77.8307 81.4107C77.6068 81.2806 77.4298 81.1001 77.2998 80.8689C77.1734 80.6342 77.1102 80.3633 77.1102 80.0563C77.1102 79.7493 77.1716 79.4802 77.2944 79.2491C77.4208 79.0143 77.596 78.8337 77.8199 78.7073C78.0474 78.5809 78.3075 78.5177 78.6 78.5177C78.8817 78.5177 79.1327 78.5791 79.353 78.7019C79.5733 78.8247 79.7449 78.9981 79.8677 79.222C79.9905 79.4423 80.0519 79.6969 80.0519 79.9859ZM79.4072 79.7908C79.4036 79.5633 79.3223 79.3809 79.1634 79.2437C79.0045 79.1064 78.8077 79.0378 78.5729 79.0378C78.3598 79.0378 78.1774 79.1064 78.0257 79.2437C77.8741 79.3773 77.7838 79.5597 77.7549 79.7908H79.4072ZM80.4538 80.0563C80.4538 79.7493 80.5152 79.4802 80.638 79.2491C80.7644 79.0143 80.9378 78.8337 81.1581 78.7073C81.3784 78.5809 81.6312 78.5177 81.9165 78.5177C82.2777 78.5177 82.5756 78.6044 82.8104 78.7778C83.0488 78.9475 83.2095 79.1913 83.2926 79.5091H82.6262C82.572 79.361 82.4854 79.2455 82.3662 79.1624C82.247 79.0793 82.0971 79.0378 81.9165 79.0378C81.6637 79.0378 81.4615 79.1281 81.3098 79.3087C81.1617 79.4856 81.0876 79.7348 81.0876 80.0563C81.0876 80.3777 81.1617 80.6287 81.3098 80.8093C81.4615 80.9899 81.6637 81.0802 81.9165 81.0802C82.2741 81.0802 82.5106 80.9231 82.6262 80.6089H83.2926C83.2059 80.9122 83.0434 81.1542 82.805 81.3348C82.5666 81.5118 82.2705 81.6003 81.9165 81.6003C81.6312 81.6003 81.3784 81.5371 81.1581 81.4107C80.9378 81.2806 80.7644 81.1001 80.638 80.8689C80.5152 80.6342 80.4538 80.3633 80.4538 80.0563ZM85.089 80.0617L86.4651 81.5515H85.6308L84.5256 80.2676V81.5515H83.908V77.5426H84.5256V79.8721L85.6091 78.5665H86.4651L85.089 80.0617ZM89.6436 79.9859C89.6436 80.0978 89.6364 80.1989 89.6219 80.2892H87.3412C87.3592 80.5276 87.4477 80.719 87.6066 80.8635C87.7655 81.008 87.9606 81.0802 88.1917 81.0802C88.524 81.0802 88.7587 80.9411 88.896 80.663H89.5623C89.472 80.9375 89.3077 81.1633 89.0693 81.3402C88.8346 81.5136 88.542 81.6003 88.1917 81.6003C87.9064 81.6003 87.65 81.5371 87.4224 81.4107C87.1985 81.2806 87.0215 81.1001 86.8915 80.8689C86.7651 80.6342 86.7019 80.3633 86.7019 80.0563C86.7019 79.7493 86.7633 79.4802 86.8861 79.2491C87.0125 79.0143 87.1877 78.8337 87.4116 78.7073C87.6391 78.5809 87.8992 78.5177 88.1917 78.5177C88.4734 78.5177 88.7244 78.5791 88.9447 78.7019C89.165 78.8247 89.3366 78.9981 89.4594 79.222C89.5822 79.4423 89.6436 79.6969 89.6436 79.9859ZM88.9989 79.7908C88.9953 79.5633 88.914 79.3809 88.7551 79.2437C88.5962 79.1064 88.3994 79.0378 88.1646 79.0378C87.9515 79.0378 87.7691 79.1064 87.6175 79.2437C87.4658 79.3773 87.3755 79.5597 87.3466 79.7908H88.9989ZM90.0455 80.0455C90.0455 79.7457 90.1069 79.4802 90.2297 79.2491C90.3561 79.0179 90.5259 78.8392 90.7389 78.7127C90.9556 78.5827 91.1958 78.5177 91.4595 78.5177C91.6545 78.5177 91.8459 78.5611 92.0337 78.6477C92.2251 78.7308 92.3768 78.8428 92.4888 78.9836V77.5426H93.1118V81.5515H92.4888V81.1019C92.3877 81.2463 92.2468 81.3655 92.0662 81.4594C91.8893 81.5533 91.6852 81.6003 91.4541 81.6003C91.194 81.6003 90.9556 81.5353 90.7389 81.4052C90.5259 81.2716 90.3561 81.0874 90.2297 80.8527C90.1069 80.6143 90.0455 80.3452 90.0455 80.0455ZM92.4888 80.0563C92.4888 79.8504 92.4455 79.6716 92.3588 79.52C92.2757 79.3683 92.1656 79.2527 92.0283 79.1732C91.8911 79.0938 91.743 79.054 91.5841 79.054C91.4252 79.054 91.2771 79.0938 91.1398 79.1732C91.0026 79.2491 90.8906 79.3628 90.804 79.5145C90.7209 79.6626 90.6794 79.8396 90.6794 80.0455C90.6794 80.2513 90.7209 80.4319 90.804 80.5872C90.8906 80.7425 91.0026 80.8617 91.1398 80.9448C91.2807 81.0242 91.4288 81.0639 91.5841 81.0639C91.743 81.0639 91.8911 81.0242 92.0283 80.9448C92.1656 80.8653 92.2757 80.7497 92.3588 80.598C92.4455 80.4427 92.4888 80.2622 92.4888 80.0563ZM59.9033 87.0703V88.7226C59.9033 88.8346 59.9286 88.9159 59.9792 88.9664C60.0333 89.0134 60.1236 89.0369 60.25 89.0369H60.6293V89.5515H60.1417C59.8636 89.5515 59.6505 89.4865 59.5024 89.3565C59.3543 89.2265 59.2803 89.0152 59.2803 88.7226V87.0703H58.9282V86.5665H59.2803V85.8243H59.9033V86.5665H60.6293V87.0703H59.9033ZM62.7425 86.5177C62.97 86.5177 63.1723 86.5665 63.3492 86.664C63.5298 86.7615 63.6707 86.906 63.7718 87.0974C63.8765 87.2888 63.9289 87.52 63.9289 87.7908V89.5515H63.3167V87.8829C63.3167 87.6157 63.2499 87.4116 63.1163 87.2707C62.9826 87.1263 62.8003 87.054 62.5691 87.054C62.338 87.054 62.1538 87.1263 62.0165 87.2707C61.8829 87.4116 61.8161 87.6157 61.8161 87.8829V89.5515H61.1985V85.5426H61.8161V86.9132C61.9208 86.7868 62.0526 86.6893 62.2116 86.6207C62.3741 86.552 62.5511 86.5177 62.7425 86.5177ZM67.4525 87.9859C67.4525 88.0978 67.4453 88.1989 67.4308 88.2892H65.1501C65.1681 88.5276 65.2566 88.719 65.4155 88.8635C65.5744 89.008 65.7695 89.0802 66.0006 89.0802C66.3329 89.0802 66.5677 88.9411 66.7049 88.663H67.3713C67.281 88.9375 67.1166 89.1633 66.8783 89.3402C66.6435 89.5136 66.351 89.6003 66.0006 89.6003C65.7153 89.6003 65.4589 89.5371 65.2313 89.4107C65.0074 89.2806 64.8304 89.1001 64.7004 88.8689C64.574 88.6342 64.5108 88.3633 64.5108 88.0563C64.5108 87.7493 64.5722 87.4802 64.695 87.2491C64.8214 87.0143 64.9966 86.8337 65.2205 86.7073C65.448 86.5809 65.7081 86.5177 66.0006 86.5177C66.2823 86.5177 66.5333 86.5791 66.7537 86.7019C66.974 86.8247 67.1455 86.9981 67.2683 87.222C67.3911 87.4423 67.4525 87.6969 67.4525 87.9859ZM66.8078 87.7908C66.8042 87.5633 66.723 87.3809 66.564 87.2437C66.4051 87.1064 66.2083 87.0378 65.9735 87.0378C65.7604 87.0378 65.5781 87.1064 65.4264 87.2437C65.2747 87.3773 65.1844 87.5597 65.1555 87.7908H66.8078ZM72.2034 87.9859C72.2034 88.0978 72.1962 88.1989 72.1817 88.2892H69.901C69.919 88.5276 70.0075 88.719 70.1664 88.8635C70.3253 89.008 70.5204 89.0802 70.7515 89.0802C71.0838 89.0802 71.3185 88.9411 71.4558 88.663H72.1221C72.0318 88.9375 71.8675 89.1633 71.6291 89.3402C71.3944 89.5136 71.1018 89.6003 70.7515 89.6003C70.4662 89.6003 70.2098 89.5371 69.9822 89.4107C69.7583 89.2806 69.5813 89.1001 69.4513 88.8689C69.3249 88.6342 69.2617 88.3633 69.2617 88.0563C69.2617 87.7493 69.3231 87.4802 69.4459 87.2491C69.5723 87.0143 69.7475 86.8337 69.9714 86.7073C70.1989 86.5809 70.459 86.5177 70.7515 86.5177C71.0332 86.5177 71.2842 86.5791 71.5045 86.7019C71.7249 86.8247 71.8964 86.9981 72.0192 87.222C72.142 87.4423 72.2034 87.6969 72.2034 87.9859ZM71.5587 87.7908C71.5551 87.5633 71.4738 87.3809 71.3149 87.2437C71.156 87.1064 70.9592 87.0378 70.7244 87.0378C70.5113 87.0378 70.3289 87.1064 70.1773 87.2437C70.0256 87.3773 69.9353 87.5597 69.9064 87.7908H71.5587ZM76.4246 86.5177C76.6594 86.5177 76.8689 86.5665 77.0531 86.664C77.2409 86.7615 77.3871 86.906 77.4919 87.0974C77.6002 87.2888 77.6544 87.52 77.6544 87.7908V89.5515H77.0422V87.8829C77.0422 87.6157 76.9754 87.4116 76.8418 87.2707C76.7082 87.1263 76.5258 87.054 76.2946 87.054C76.0635 87.054 75.8793 87.1263 75.742 87.2707C75.6084 87.4116 75.5416 87.6157 75.5416 87.8829V89.5515H74.9294V87.8829C74.9294 87.6157 74.8626 87.4116 74.729 87.2707C74.5953 87.1263 74.4129 87.054 74.1818 87.054C73.9507 87.054 73.7665 87.1263 73.6292 87.2707C73.4956 87.4116 73.4288 87.6157 73.4288 87.8829V89.5515H72.8112V86.5665H73.4288V86.9078C73.5299 86.785 73.6581 86.6893 73.8134 86.6207C73.9687 86.552 74.1348 86.5177 74.3118 86.5177C74.5502 86.5177 74.7633 86.5683 74.9511 86.6694C75.1389 86.7705 75.2834 86.9168 75.3845 87.1082C75.4748 86.9276 75.6156 86.785 75.807 86.6802C75.9985 86.5719 76.2043 86.5177 76.4246 86.5177ZM78.2344 88.0455C78.2344 87.7457 78.2958 87.4802 78.4186 87.2491C78.545 87.0179 78.7148 86.8392 78.9279 86.7127C79.1446 86.5827 79.3829 86.5177 79.643 86.5177C79.8777 86.5177 80.0818 86.5647 80.2551 86.6586C80.4321 86.7489 80.573 86.8626 80.6777 86.9999V86.5665H81.3007V89.5515H80.6777V89.1073C80.573 89.2481 80.4303 89.3655 80.2497 89.4594C80.0691 89.5533 79.8633 89.6003 79.6321 89.6003C79.3757 89.6003 79.1409 89.5353 78.9279 89.4052C78.7148 89.2716 78.545 89.0874 78.4186 88.8527C78.2958 88.6143 78.2344 88.3452 78.2344 88.0455ZM80.6777 88.0563C80.6777 87.8504 80.6344 87.6716 80.5477 87.52C80.4646 87.3683 80.3545 87.2527 80.2172 87.1732C80.08 87.0938 79.9319 87.054 79.773 87.054C79.6141 87.054 79.466 87.0938 79.3288 87.1732C79.1915 87.2491 79.0795 87.3628 78.9929 87.5145C78.9098 87.6626 78.8683 87.8396 78.8683 88.0455C78.8683 88.2513 78.9098 88.4319 78.9929 88.5872C79.0795 88.7425 79.1915 88.8617 79.3288 88.9448C79.4696 89.0242 79.6177 89.0639 79.773 89.0639C79.9319 89.0639 80.08 89.0242 80.2172 88.9448C80.3545 88.8653 80.4646 88.7497 80.5477 88.598C80.6344 88.4427 80.6777 88.2622 80.6777 88.0563ZM82.4261 86.171C82.3142 86.171 82.2203 86.1331 82.1444 86.0572C82.0686 85.9814 82.0306 85.8875 82.0306 85.7755C82.0306 85.6636 82.0686 85.5697 82.1444 85.4938C82.2203 85.418 82.3142 85.38 82.4261 85.38C82.5345 85.38 82.6266 85.418 82.7024 85.4938C82.7783 85.5697 82.8162 85.6636 82.8162 85.7755C82.8162 85.8875 82.7783 85.9814 82.7024 86.0572C82.6266 86.1331 82.5345 86.171 82.4261 86.171ZM82.7295 86.5665V89.5515H82.1119V86.5665H82.7295ZM84.1579 85.5426V89.5515H83.5403V85.5426H84.1579Z" fill="#615C64"/>
</g>
<g filter="url(#filter1_ddd_3980_8779)">
<rect x="130.074" y="49.5605" width="157.263" height="90.4394" rx="2.68366" fill="url(#paint1_radial_3980_8779)"/>
<rect x="130.074" y="49.5605" width="157.263" height="90.4394" rx="2.68366" fill="white"/>
<path d="M145.359 126.189V125.936H146.043V128.822H145.758V126.189H145.359ZM146.659 126.672C146.678 126.428 146.772 126.236 146.941 126.097C147.113 125.954 147.334 125.883 147.605 125.883C147.785 125.883 147.939 125.915 148.068 125.98C148.197 126.044 148.294 126.133 148.358 126.245C148.425 126.355 148.459 126.48 148.459 126.62C148.459 126.789 148.409 126.935 148.31 127.059C148.211 127.182 148.07 127.259 147.887 127.288V127.308C148.078 127.346 148.229 127.429 148.342 127.558C148.455 127.684 148.511 127.85 148.511 128.057C148.511 128.288 148.433 128.477 148.278 128.625C148.125 128.769 147.902 128.842 147.609 128.842C147.33 128.842 147.101 128.769 146.921 128.625C146.741 128.477 146.638 128.269 146.611 128.001H146.885C146.909 128.18 146.984 128.327 147.11 128.439C147.236 128.549 147.403 128.604 147.609 128.604C147.813 128.604 147.969 128.551 148.076 128.443C148.186 128.336 148.241 128.199 148.241 128.033C148.241 127.625 147.948 127.421 147.36 127.421H147.271V127.183H147.364C147.911 127.183 148.185 127.005 148.185 126.648C148.185 126.492 148.134 126.368 148.032 126.274C147.93 126.177 147.785 126.129 147.597 126.129C147.415 126.129 147.263 126.177 147.142 126.274C147.024 126.368 146.955 126.5 146.933 126.672H146.659ZM151.045 128.85C150.859 128.85 150.696 128.818 150.554 128.753C150.414 128.689 150.304 128.599 150.223 128.484C150.143 128.368 150.1 128.239 150.095 128.097H150.393C150.406 128.234 150.466 128.355 150.574 128.459C150.681 128.561 150.838 128.612 151.045 128.612C151.235 128.612 151.385 128.564 151.495 128.468C151.608 128.368 151.665 128.243 151.665 128.093C151.665 127.972 151.634 127.876 151.572 127.803C151.51 127.728 151.434 127.673 151.343 127.638C151.251 127.601 151.125 127.56 150.964 127.518C150.776 127.467 150.627 127.417 150.517 127.369C150.407 127.32 150.313 127.245 150.236 127.143C150.158 127.041 150.119 126.903 150.119 126.729C150.119 126.584 150.156 126.455 150.231 126.342C150.307 126.227 150.413 126.137 150.55 126.072C150.686 126.008 150.843 125.976 151.02 125.976C151.281 125.976 151.49 126.04 151.648 126.169C151.809 126.295 151.902 126.459 151.926 126.66H151.62C151.601 126.545 151.538 126.443 151.431 126.354C151.324 126.263 151.179 126.217 150.996 126.217C150.827 126.217 150.686 126.263 150.574 126.354C150.461 126.443 150.405 126.565 150.405 126.72C150.405 126.839 150.435 126.934 150.497 127.006C150.559 127.079 150.635 127.134 150.727 127.171C150.821 127.209 150.947 127.249 151.105 127.292C151.288 127.343 151.435 127.394 151.548 127.445C151.661 127.493 151.756 127.569 151.834 127.67C151.911 127.772 151.95 127.909 151.95 128.081C151.95 128.213 151.915 128.337 151.846 128.455C151.776 128.574 151.673 128.669 151.536 128.741C151.399 128.814 151.235 128.85 151.045 128.85ZM154.483 127.61C154.483 127.707 154.481 127.781 154.475 127.832H152.652C152.66 127.998 152.7 128.14 152.773 128.258C152.845 128.376 152.94 128.466 153.058 128.528C153.177 128.587 153.305 128.616 153.445 128.616C153.627 128.616 153.78 128.572 153.904 128.484C154.03 128.395 154.113 128.276 154.153 128.125H154.451C154.398 128.34 154.282 128.516 154.105 128.653C153.931 128.787 153.711 128.854 153.445 128.854C153.238 128.854 153.053 128.808 152.889 128.717C152.726 128.623 152.597 128.492 152.503 128.323C152.412 128.151 152.366 127.951 152.366 127.723C152.366 127.495 152.412 127.295 152.503 127.123C152.594 126.951 152.722 126.82 152.885 126.729C153.049 126.637 153.236 126.592 153.445 126.592C153.654 126.592 153.837 126.637 153.992 126.729C154.151 126.82 154.271 126.943 154.355 127.099C154.441 127.252 154.483 127.422 154.483 127.61ZM154.198 127.602C154.2 127.438 154.167 127.299 154.097 127.183C154.03 127.068 153.937 126.981 153.819 126.922C153.701 126.863 153.572 126.833 153.433 126.833C153.223 126.833 153.045 126.9 152.897 127.034C152.75 127.169 152.668 127.358 152.652 127.602H154.198ZM155.277 127.107C155.347 126.959 155.457 126.837 155.607 126.741C155.76 126.641 155.941 126.592 156.15 126.592C156.349 126.592 156.527 126.639 156.686 126.733C156.847 126.824 156.972 126.955 157.06 127.127C157.151 127.296 157.197 127.493 157.197 127.719C157.197 127.944 157.151 128.143 157.06 128.315C156.972 128.486 156.847 128.619 156.686 128.713C156.527 128.807 156.349 128.854 156.15 128.854C155.944 128.854 155.764 128.806 155.611 128.709C155.458 128.61 155.347 128.486 155.277 128.339V129.86H154.999V126.624H155.277V127.107ZM156.911 127.719C156.911 127.536 156.875 127.379 156.802 127.248C156.733 127.114 156.636 127.012 156.513 126.942C156.389 126.872 156.25 126.837 156.094 126.837C155.944 126.837 155.805 126.873 155.679 126.946C155.556 127.018 155.458 127.122 155.385 127.256C155.313 127.39 155.277 127.546 155.277 127.723C155.277 127.9 155.313 128.056 155.385 128.19C155.458 128.324 155.556 128.427 155.679 128.5C155.805 128.572 155.944 128.608 156.094 128.608C156.25 128.608 156.389 128.574 156.513 128.504C156.636 128.431 156.733 128.328 156.802 128.194C156.875 128.057 156.911 127.899 156.911 127.719Z" fill="#776181"/>
<path d="M169.252 128.6C169.746 128.23 170.127 127.899 170.395 127.606C170.666 127.311 170.802 127.022 170.802 126.741C170.802 126.555 170.755 126.408 170.661 126.298C170.57 126.185 170.42 126.129 170.21 126.129C170.006 126.129 169.848 126.193 169.735 126.322C169.625 126.448 169.563 126.617 169.55 126.829H169.276C169.292 126.531 169.384 126.3 169.55 126.137C169.719 125.97 169.939 125.887 170.21 125.887C170.471 125.887 170.681 125.961 170.842 126.109C171.003 126.254 171.084 126.46 171.084 126.729C171.084 127.053 170.948 127.369 170.677 127.675C170.409 127.978 170.077 128.274 169.683 128.564H171.172V128.802H169.252V128.6ZM171.475 126.189V125.936H172.16V128.822H171.874V126.189H171.475ZM174.806 128.85C174.621 128.85 174.457 128.818 174.315 128.753C174.175 128.689 174.065 128.599 173.985 128.484C173.904 128.368 173.861 128.239 173.856 128.097H174.154C174.167 128.234 174.228 128.355 174.335 128.459C174.442 128.561 174.599 128.612 174.806 128.612C174.997 128.612 175.147 128.564 175.257 128.468C175.37 128.368 175.426 128.243 175.426 128.093C175.426 127.972 175.395 127.876 175.333 127.803C175.272 127.728 175.195 127.673 175.104 127.638C175.013 127.601 174.887 127.56 174.726 127.518C174.538 127.467 174.389 127.417 174.279 127.369C174.169 127.32 174.075 127.245 173.997 127.143C173.919 127.041 173.88 126.903 173.88 126.729C173.88 126.584 173.918 126.455 173.993 126.342C174.068 126.227 174.174 126.137 174.311 126.072C174.448 126.008 174.605 125.976 174.782 125.976C175.042 125.976 175.252 126.04 175.41 126.169C175.571 126.295 175.663 126.459 175.688 126.66H175.382C175.363 126.545 175.3 126.443 175.192 126.354C175.085 126.263 174.94 126.217 174.758 126.217C174.589 126.217 174.448 126.263 174.335 126.354C174.222 126.443 174.166 126.565 174.166 126.72C174.166 126.839 174.197 126.934 174.259 127.006C174.32 127.079 174.397 127.134 174.488 127.171C174.582 127.209 174.708 127.249 174.866 127.292C175.049 127.343 175.197 127.394 175.309 127.445C175.422 127.493 175.517 127.569 175.595 127.67C175.673 127.772 175.712 127.909 175.712 128.081C175.712 128.213 175.677 128.337 175.607 128.455C175.537 128.574 175.434 128.669 175.297 128.741C175.16 128.814 174.997 128.85 174.806 128.85ZM178.245 127.61C178.245 127.707 178.242 127.781 178.237 127.832H176.413C176.421 127.998 176.462 128.14 176.534 128.258C176.606 128.376 176.702 128.466 176.82 128.528C176.938 128.587 177.067 128.616 177.206 128.616C177.389 128.616 177.542 128.572 177.665 128.484C177.791 128.395 177.875 128.276 177.915 128.125H178.213C178.159 128.34 178.044 128.516 177.866 128.653C177.692 128.787 177.472 128.854 177.206 128.854C177 128.854 176.814 128.808 176.651 128.717C176.487 128.623 176.358 128.492 176.264 128.323C176.173 128.151 176.127 127.951 176.127 127.723C176.127 127.495 176.173 127.295 176.264 127.123C176.356 126.951 176.483 126.82 176.647 126.729C176.81 126.637 176.997 126.592 177.206 126.592C177.416 126.592 177.598 126.637 177.754 126.729C177.912 126.82 178.033 126.943 178.116 127.099C178.202 127.252 178.245 127.422 178.245 127.61ZM177.959 127.602C177.962 127.438 177.928 127.299 177.858 127.183C177.791 127.068 177.699 126.981 177.581 126.922C177.463 126.863 177.334 126.833 177.194 126.833C176.985 126.833 176.806 126.9 176.659 127.034C176.511 127.169 176.429 127.358 176.413 127.602H177.959ZM179.038 127.107C179.108 126.959 179.218 126.837 179.368 126.741C179.521 126.641 179.702 126.592 179.912 126.592C180.11 126.592 180.289 126.639 180.447 126.733C180.608 126.824 180.733 126.955 180.821 127.127C180.913 127.296 180.958 127.493 180.958 127.719C180.958 127.944 180.913 128.143 180.821 128.315C180.733 128.486 180.608 128.619 180.447 128.713C180.289 128.807 180.11 128.854 179.912 128.854C179.705 128.854 179.525 128.806 179.372 128.709C179.219 128.61 179.108 128.486 179.038 128.339V129.86H178.76V126.624H179.038V127.107ZM180.673 127.719C180.673 127.536 180.636 127.379 180.564 127.248C180.494 127.114 180.397 127.012 180.274 126.942C180.151 126.872 180.011 126.837 179.855 126.837C179.705 126.837 179.567 126.873 179.441 126.946C179.317 127.018 179.219 127.122 179.147 127.256C179.074 127.39 179.038 127.546 179.038 127.723C179.038 127.9 179.074 128.056 179.147 128.19C179.219 128.324 179.317 128.427 179.441 128.5C179.567 128.572 179.705 128.608 179.855 128.608C180.011 128.608 180.151 128.574 180.274 128.504C180.397 128.431 180.494 128.328 180.564 128.194C180.636 128.057 180.673 127.899 180.673 127.719Z" fill="#776181"/>
<path d="M193.069 128.6C193.562 128.23 193.943 127.899 194.212 127.606C194.483 127.311 194.618 127.022 194.618 126.741C194.618 126.555 194.571 126.408 194.478 126.298C194.386 126.185 194.236 126.129 194.027 126.129C193.823 126.129 193.664 126.193 193.552 126.322C193.442 126.448 193.38 126.617 193.366 126.829H193.093C193.109 126.531 193.2 126.3 193.366 126.137C193.536 125.97 193.756 125.887 194.027 125.887C194.287 125.887 194.498 125.961 194.659 126.109C194.82 126.254 194.9 126.46 194.9 126.729C194.9 127.053 194.765 127.369 194.494 127.675C194.225 127.978 193.894 128.274 193.499 128.564H194.989V128.802H193.069V128.6ZM195.988 127.324C195.822 127.271 195.694 127.186 195.606 127.071C195.52 126.955 195.477 126.816 195.477 126.652C195.477 126.507 195.513 126.378 195.586 126.266C195.661 126.15 195.769 126.06 195.912 125.996C196.054 125.929 196.224 125.895 196.423 125.895C196.621 125.895 196.792 125.929 196.934 125.996C197.076 126.06 197.184 126.15 197.256 126.266C197.331 126.378 197.369 126.507 197.369 126.652C197.369 126.813 197.325 126.953 197.236 127.071C197.15 127.189 197.024 127.273 196.858 127.324C197.04 127.37 197.184 127.457 197.288 127.586C197.393 127.715 197.445 127.872 197.445 128.057C197.445 128.229 197.402 128.379 197.317 128.508C197.233 128.634 197.114 128.732 196.958 128.802C196.805 128.871 196.627 128.906 196.423 128.906C196.219 128.906 196.039 128.871 195.883 128.802C195.73 128.732 195.611 128.634 195.525 128.508C195.442 128.379 195.4 128.229 195.4 128.057C195.4 127.872 195.453 127.715 195.557 127.586C195.662 127.457 195.806 127.37 195.988 127.324ZM197.095 126.684C197.095 126.507 197.035 126.37 196.914 126.274C196.793 126.177 196.63 126.129 196.423 126.129C196.216 126.129 196.053 126.177 195.932 126.274C195.811 126.368 195.751 126.504 195.751 126.684C195.751 126.851 195.812 126.983 195.936 127.083C196.059 127.182 196.222 127.232 196.423 127.232C196.624 127.232 196.787 127.182 196.91 127.083C197.033 126.983 197.095 126.851 197.095 126.684ZM196.423 127.449C196.203 127.449 196.023 127.499 195.883 127.598C195.744 127.697 195.674 127.848 195.674 128.049C195.674 128.242 195.741 128.394 195.875 128.504C196.01 128.614 196.192 128.669 196.423 128.669C196.651 128.669 196.832 128.614 196.966 128.504C197.101 128.391 197.168 128.239 197.168 128.049C197.168 127.85 197.098 127.701 196.958 127.602C196.821 127.5 196.643 127.449 196.423 127.449ZM200.37 128.85C200.109 128.85 199.873 128.79 199.661 128.669C199.449 128.545 199.281 128.375 199.158 128.158C199.037 127.938 198.977 127.689 198.977 127.413C198.977 127.136 199.037 126.89 199.158 126.672C199.281 126.452 199.449 126.282 199.661 126.161C199.873 126.037 200.109 125.976 200.37 125.976C200.633 125.976 200.87 126.037 201.082 126.161C201.294 126.282 201.461 126.452 201.581 126.672C201.702 126.89 201.762 127.136 201.762 127.413C201.762 127.689 201.702 127.938 201.581 128.158C201.461 128.375 201.294 128.545 201.082 128.669C200.87 128.79 200.633 128.85 200.37 128.85ZM200.37 128.604C200.579 128.604 200.767 128.556 200.933 128.459C201.1 128.363 201.231 128.225 201.328 128.045C201.424 127.862 201.473 127.652 201.473 127.413C201.473 127.174 201.424 126.965 201.328 126.785C201.231 126.605 201.1 126.467 200.933 126.37C200.767 126.274 200.579 126.225 200.37 126.225C200.16 126.225 199.972 126.274 199.806 126.37C199.64 126.467 199.508 126.605 199.412 126.785C199.315 126.965 199.267 127.174 199.267 127.413C199.267 127.652 199.315 127.862 199.412 128.045C199.508 128.225 199.64 128.363 199.806 128.459C199.972 128.556 200.16 128.604 200.37 128.604ZM202.149 127.723C202.149 127.495 202.195 127.296 202.286 127.127C202.377 126.955 202.503 126.824 202.665 126.733C202.826 126.639 203.009 126.592 203.216 126.592C203.487 126.592 203.71 126.659 203.884 126.793C204.061 126.927 204.175 127.11 204.226 127.34H203.924C203.887 127.182 203.805 127.059 203.679 126.97C203.555 126.879 203.401 126.833 203.216 126.833C203.068 126.833 202.936 126.867 202.817 126.934C202.699 127.001 202.605 127.102 202.536 127.236C202.469 127.367 202.435 127.53 202.435 127.723C202.435 127.916 202.469 128.08 202.536 128.214C202.605 128.348 202.699 128.449 202.817 128.516C202.936 128.583 203.068 128.616 203.216 128.616C203.401 128.616 203.555 128.572 203.679 128.484C203.805 128.392 203.887 128.266 203.924 128.105H204.226C204.175 128.331 204.061 128.512 203.884 128.649C203.707 128.786 203.484 128.854 203.216 128.854C203.009 128.854 202.826 128.808 202.665 128.717C202.503 128.623 202.377 128.492 202.286 128.323C202.195 128.151 202.149 127.951 202.149 127.723ZM205.113 126.861V128.226C205.113 128.36 205.139 128.453 205.19 128.504C205.241 128.555 205.331 128.58 205.459 128.58H205.717V128.822H205.415C205.216 128.822 205.069 128.776 204.972 128.685C204.876 128.591 204.827 128.438 204.827 128.226V126.861H204.521V126.624H204.827V126.072H205.113V126.624H205.717V126.861H205.113Z" fill="#776181"/>
<path d="M217.926 126.189V125.936H218.61V128.822H218.324V126.189H217.926ZM219.181 128.6C219.675 128.23 220.056 127.899 220.325 127.606C220.596 127.311 220.731 127.022 220.731 126.741C220.731 126.555 220.684 126.408 220.59 126.298C220.499 126.185 220.349 126.129 220.14 126.129C219.936 126.129 219.777 126.193 219.665 126.322C219.555 126.448 219.493 126.617 219.479 126.829H219.206C219.222 126.531 219.313 126.3 219.479 126.137C219.648 125.97 219.869 125.887 220.14 125.887C220.4 125.887 220.611 125.961 220.772 126.109C220.933 126.254 221.013 126.46 221.013 126.729C221.013 127.053 220.878 127.369 220.607 127.675C220.338 127.978 220.007 128.274 219.612 128.564H221.102V128.802H219.181V128.6ZM223.971 128.85C223.71 128.85 223.474 128.79 223.262 128.669C223.05 128.545 222.882 128.375 222.759 128.158C222.638 127.938 222.578 127.689 222.578 127.413C222.578 127.136 222.638 126.89 222.759 126.672C222.882 126.452 223.05 126.282 223.262 126.161C223.474 126.037 223.71 125.976 223.971 125.976C224.234 125.976 224.471 126.037 224.683 126.161C224.895 126.282 225.061 126.452 225.182 126.672C225.303 126.89 225.363 127.136 225.363 127.413C225.363 127.689 225.303 127.938 225.182 128.158C225.061 128.375 224.895 128.545 224.683 128.669C224.471 128.79 224.234 128.85 223.971 128.85ZM223.971 128.604C224.18 128.604 224.368 128.556 224.534 128.459C224.7 128.363 224.832 128.225 224.929 128.045C225.025 127.862 225.074 127.652 225.074 127.413C225.074 127.174 225.025 126.965 224.929 126.785C224.832 126.605 224.7 126.467 224.534 126.37C224.368 126.274 224.18 126.225 223.971 126.225C223.761 126.225 223.573 126.274 223.407 126.37C223.241 126.467 223.109 126.605 223.012 126.785C222.916 126.965 222.868 127.174 222.868 127.413C222.868 127.652 222.916 127.862 223.012 128.045C223.109 128.225 223.241 128.363 223.407 128.459C223.573 128.556 223.761 128.604 223.971 128.604ZM225.75 127.723C225.75 127.495 225.796 127.296 225.887 127.127C225.978 126.955 226.104 126.824 226.265 126.733C226.426 126.639 226.61 126.592 226.817 126.592C227.088 126.592 227.311 126.659 227.485 126.793C227.662 126.927 227.776 127.11 227.827 127.34H227.525C227.488 127.182 227.406 127.059 227.28 126.97C227.156 126.879 227.002 126.833 226.817 126.833C226.669 126.833 226.536 126.867 226.418 126.934C226.3 127.001 226.206 127.102 226.137 127.236C226.07 127.367 226.036 127.53 226.036 127.723C226.036 127.916 226.07 128.08 226.137 128.214C226.206 128.348 226.3 128.449 226.418 128.516C226.536 128.583 226.669 128.616 226.817 128.616C227.002 128.616 227.156 128.572 227.28 128.484C227.406 128.392 227.488 128.266 227.525 128.105H227.827C227.776 128.331 227.662 128.512 227.485 128.649C227.308 128.786 227.085 128.854 226.817 128.854C226.61 128.854 226.426 128.808 226.265 128.717C226.104 128.623 225.978 128.492 225.887 128.323C225.796 128.151 225.75 127.951 225.75 127.723ZM228.714 126.861V128.226C228.714 128.36 228.74 128.453 228.791 128.504C228.842 128.555 228.931 128.58 229.06 128.58H229.318V128.822H229.016C228.817 128.822 228.67 128.776 228.573 128.685C228.477 128.591 228.428 128.438 228.428 128.226V126.861H228.122V126.624H228.428V126.072H228.714V126.624H229.318V126.861H228.714Z" fill="#776181"/>
<path d="M241.176 126.189V125.936H241.86V128.822H241.574V126.189H241.176ZM242.862 128.053C242.892 128.227 242.959 128.362 243.063 128.455C243.168 128.549 243.312 128.596 243.494 128.596C243.746 128.596 243.933 128.498 244.054 128.302C244.177 128.104 244.234 127.776 244.223 127.32C244.172 127.468 244.074 127.585 243.929 127.67C243.787 127.754 243.623 127.795 243.438 127.795C243.156 127.795 242.929 127.711 242.758 127.542C242.588 127.373 242.504 127.138 242.504 126.837C242.504 126.657 242.539 126.495 242.609 126.35C242.678 126.205 242.784 126.091 242.927 126.008C243.069 125.925 243.243 125.883 243.45 125.883C243.831 125.883 244.097 126.008 244.247 126.258C244.397 126.504 244.472 126.86 244.472 127.324C244.472 127.826 244.397 128.203 244.247 128.455C244.099 128.708 243.844 128.834 243.482 128.834C243.216 128.834 243.01 128.763 242.862 128.621C242.715 128.476 242.627 128.286 242.601 128.053H242.862ZM243.482 127.554C243.608 127.554 243.724 127.528 243.828 127.477C243.936 127.424 244.022 127.346 244.086 127.244C244.15 127.142 244.183 127.02 244.183 126.877C244.183 126.657 244.12 126.476 243.993 126.334C243.87 126.192 243.691 126.121 243.458 126.121C243.251 126.121 243.085 126.185 242.959 126.314C242.835 126.443 242.774 126.614 242.774 126.829C242.774 127.055 242.835 127.232 242.959 127.361C243.082 127.489 243.257 127.554 243.482 127.554ZM247.433 128.85C247.173 128.85 246.936 128.79 246.724 128.669C246.512 128.545 246.345 128.375 246.221 128.158C246.1 127.938 246.04 127.689 246.04 127.413C246.04 127.136 246.1 126.89 246.221 126.672C246.345 126.452 246.512 126.282 246.724 126.161C246.936 126.037 247.173 125.976 247.433 125.976C247.696 125.976 247.933 126.037 248.145 126.161C248.357 126.282 248.524 126.452 248.644 126.672C248.765 126.89 248.826 127.136 248.826 127.413C248.826 127.689 248.765 127.938 248.644 128.158C248.524 128.375 248.357 128.545 248.145 128.669C247.933 128.79 247.696 128.85 247.433 128.85ZM247.433 128.604C247.642 128.604 247.83 128.556 247.996 128.459C248.163 128.363 248.294 128.225 248.391 128.045C248.487 127.862 248.536 127.652 248.536 127.413C248.536 127.174 248.487 126.965 248.391 126.785C248.294 126.605 248.163 126.467 247.996 126.37C247.83 126.274 247.642 126.225 247.433 126.225C247.223 126.225 247.036 126.274 246.869 126.37C246.703 126.467 246.571 126.605 246.475 126.785C246.378 126.965 246.33 127.174 246.33 127.413C246.33 127.652 246.378 127.862 246.475 128.045C246.571 128.225 246.703 128.363 246.869 128.459C247.036 128.556 247.223 128.604 247.433 128.604ZM249.212 127.723C249.212 127.495 249.258 127.296 249.349 127.127C249.441 126.955 249.567 126.824 249.728 126.733C249.889 126.639 250.073 126.592 250.279 126.592C250.55 126.592 250.773 126.659 250.947 126.793C251.125 126.927 251.239 127.11 251.29 127.34H250.988C250.95 127.182 250.868 127.059 250.742 126.97C250.619 126.879 250.464 126.833 250.279 126.833C250.132 126.833 249.999 126.867 249.881 126.934C249.763 127.001 249.669 127.102 249.599 127.236C249.532 127.367 249.498 127.53 249.498 127.723C249.498 127.916 249.532 128.08 249.599 128.214C249.669 128.348 249.763 128.449 249.881 128.516C249.999 128.583 250.132 128.616 250.279 128.616C250.464 128.616 250.619 128.572 250.742 128.484C250.868 128.392 250.95 128.266 250.988 128.105H251.29C251.239 128.331 251.125 128.512 250.947 128.649C250.77 128.786 250.548 128.854 250.279 128.854C250.073 128.854 249.889 128.808 249.728 128.717C249.567 128.623 249.441 128.492 249.349 128.323C249.258 128.151 249.212 127.951 249.212 127.723ZM252.176 126.861V128.226C252.176 128.36 252.202 128.453 252.253 128.504C252.304 128.555 252.394 128.58 252.523 128.58H252.78V128.822H252.478C252.28 128.822 252.132 128.776 252.035 128.685C251.939 128.591 251.891 128.438 251.891 128.226V126.861H251.585V126.624H251.891V126.072H252.176V126.624H252.78V126.861H252.176Z" fill="#776181"/>
<path d="M266.836 126.008V126.241H266.055V128.822H265.773V126.241H264.988V126.008H266.836ZM268.243 128.854C268.036 128.854 267.85 128.808 267.683 128.717C267.519 128.623 267.389 128.492 267.293 128.323C267.199 128.151 267.152 127.951 267.152 127.723C267.152 127.495 267.2 127.296 267.297 127.127C267.393 126.955 267.525 126.824 267.691 126.733C267.858 126.639 268.044 126.592 268.251 126.592C268.457 126.592 268.644 126.639 268.81 126.733C268.979 126.824 269.111 126.955 269.205 127.127C269.301 127.296 269.35 127.495 269.35 127.723C269.35 127.948 269.301 128.147 269.205 128.319C269.108 128.49 268.975 128.623 268.806 128.717C268.637 128.808 268.449 128.854 268.243 128.854ZM268.243 128.608C268.388 128.608 268.522 128.576 268.645 128.512C268.769 128.445 268.868 128.345 268.943 128.214C269.021 128.08 269.06 127.916 269.06 127.723C269.06 127.53 269.022 127.367 268.947 127.236C268.872 127.102 268.773 127.002 268.649 126.938C268.526 126.871 268.392 126.837 268.247 126.837C268.102 126.837 267.968 126.871 267.844 126.938C267.721 127.002 267.621 127.102 267.546 127.236C267.474 127.367 267.438 127.53 267.438 127.723C267.438 127.916 267.474 128.08 267.546 128.214C267.621 128.345 267.719 128.445 267.84 128.512C267.964 128.576 268.098 128.608 268.243 128.608ZM269.735 127.719C269.735 127.493 269.78 127.296 269.871 127.127C269.963 126.955 270.087 126.824 270.246 126.733C270.407 126.639 270.588 126.592 270.789 126.592C270.982 126.592 271.157 126.639 271.313 126.733C271.468 126.826 271.582 126.949 271.655 127.099V125.843H271.936V128.822H271.655V128.331C271.588 128.484 271.478 128.61 271.325 128.709C271.172 128.806 270.992 128.854 270.785 128.854C270.584 128.854 270.403 128.807 270.242 128.713C270.083 128.619 269.959 128.486 269.867 128.315C269.779 128.143 269.735 127.944 269.735 127.719ZM271.655 127.723C271.655 127.546 271.618 127.39 271.546 127.256C271.474 127.122 271.374 127.018 271.248 126.946C271.125 126.873 270.988 126.837 270.838 126.837C270.682 126.837 270.542 126.872 270.419 126.942C270.295 127.012 270.197 127.114 270.125 127.248C270.055 127.379 270.02 127.536 270.02 127.719C270.02 127.899 270.055 128.057 270.125 128.194C270.197 128.328 270.295 128.431 270.419 128.504C270.542 128.574 270.682 128.608 270.838 128.608C270.988 128.608 271.125 128.572 271.248 128.5C271.374 128.427 271.474 128.324 271.546 128.19C271.618 128.056 271.655 127.9 271.655 127.723ZM272.451 127.719C272.451 127.493 272.495 127.296 272.584 127.127C272.675 126.955 272.8 126.824 272.958 126.733C273.119 126.639 273.3 126.592 273.502 126.592C273.711 126.592 273.891 126.64 274.041 126.737C274.194 126.833 274.304 126.957 274.371 127.107V126.624H274.653V128.822H274.371V128.335C274.301 128.485 274.19 128.61 274.037 128.709C273.887 128.806 273.707 128.854 273.498 128.854C273.299 128.854 273.119 128.807 272.958 128.713C272.8 128.619 272.675 128.486 272.584 128.315C272.495 128.143 272.451 127.944 272.451 127.719ZM274.371 127.723C274.371 127.546 274.335 127.39 274.262 127.256C274.19 127.122 274.091 127.018 273.965 126.946C273.841 126.873 273.704 126.837 273.554 126.837C273.398 126.837 273.259 126.872 273.135 126.942C273.012 127.012 272.914 127.114 272.841 127.248C272.772 127.379 272.737 127.536 272.737 127.719C272.737 127.899 272.772 128.057 272.841 128.194C272.914 128.328 273.012 128.431 273.135 128.504C273.259 128.574 273.398 128.608 273.554 128.608C273.704 128.608 273.841 128.572 273.965 128.5C274.091 128.427 274.19 128.324 274.262 128.19C274.335 128.056 274.371 127.9 274.371 127.723ZM277.108 126.624L275.803 129.856H275.51L275.936 128.81L275.035 126.624H275.345L276.093 128.5L276.818 126.624H277.108Z" fill="#776181"/>
<path d="M150.586 115.555L174.456 103.479L189.621 99.8287L199.73 89.719L220.792 109.377L247.19 94.7739L269.656 102.075" stroke="#CF8CF8" stroke-width="0.561652" stroke-linecap="round"/>
<g opacity="0.7">
<line x1="145.393" y1="77.4967" x2="272.042" y2="77.4967" stroke="#240631" stroke-opacity="0.1" stroke-width="0.293169" stroke-linecap="round" stroke-dasharray="1.47 1.47"/>
<line x1="145.393" y1="90.3961" x2="272.042" y2="90.3961" stroke="#240631" stroke-opacity="0.1" stroke-width="0.293169" stroke-linecap="round" stroke-dasharray="1.47 1.47"/>
<line x1="145.393" y1="103.296" x2="272.042" y2="103.296" stroke="#240631" stroke-opacity="0.1" stroke-width="0.293169" stroke-linecap="round" stroke-dasharray="1.47 1.47"/>
<line x1="145.393" y1="116.195" x2="272.042" y2="116.195" stroke="#240631" stroke-opacity="0.1" stroke-width="0.293169" stroke-linecap="round" stroke-dasharray="1.47 1.47"/>
</g>
<path d="M146.009 65.5474H145.337L143.314 62.4865V65.5474H142.642V61.4426H143.314L145.337 64.4976V61.4426H146.009V65.5474ZM148.302 65.6004C147.995 65.6004 147.718 65.5316 147.47 65.394C147.222 65.2525 147.028 65.0559 146.886 64.8043C146.745 64.5487 146.674 64.2538 146.674 63.9196C146.674 63.5893 146.747 63.2964 146.892 63.0409C147.037 62.7853 147.236 62.5887 147.488 62.4511C147.739 62.3135 148.02 62.2447 148.331 62.2447C148.642 62.2447 148.923 62.3135 149.174 62.4511C149.426 62.5887 149.625 62.7853 149.77 63.0409C149.916 63.2964 149.988 63.5893 149.988 63.9196C149.988 64.2499 149.914 64.5428 149.764 64.7984C149.615 65.0539 149.41 65.2525 149.151 65.394C148.895 65.5316 148.612 65.6004 148.302 65.6004ZM148.302 65.0166C148.475 65.0166 148.636 64.9753 148.785 64.8927C148.938 64.8102 149.062 64.6863 149.157 64.5212C149.251 64.356 149.298 64.1555 149.298 63.9196C149.298 63.6837 149.253 63.4852 149.163 63.324C149.072 63.1588 148.952 63.035 148.803 62.9524C148.653 62.8698 148.492 62.8286 148.319 62.8286C148.146 62.8286 147.985 62.8698 147.836 62.9524C147.69 63.035 147.574 63.1588 147.488 63.324C147.401 63.4852 147.358 63.6837 147.358 63.9196C147.358 64.2695 147.446 64.5408 147.623 64.7335C147.804 64.9222 148.03 65.0166 148.302 65.0166ZM150.924 65.5886C150.802 65.5886 150.7 65.5474 150.617 65.4648C150.535 65.3822 150.494 65.28 150.494 65.1581C150.494 65.0362 150.535 64.934 150.617 64.8514C150.7 64.7689 150.802 64.7276 150.924 64.7276C151.042 64.7276 151.142 64.7689 151.225 64.8514C151.308 64.934 151.349 65.0362 151.349 65.1581C151.349 65.28 151.308 65.3822 151.225 65.4648C151.142 65.5474 151.042 65.5886 150.924 65.5886ZM155.017 65.6004C154.71 65.6004 154.433 65.5316 154.185 65.394C153.938 65.2525 153.743 65.0559 153.602 64.8043C153.46 64.5487 153.389 64.2538 153.389 63.9196C153.389 63.5893 153.462 63.2964 153.607 63.0409C153.753 62.7853 153.951 62.5887 154.203 62.4511C154.455 62.3135 154.736 62.2447 155.046 62.2447C155.357 62.2447 155.638 62.3135 155.89 62.4511C156.141 62.5887 156.34 62.7853 156.485 63.0409C156.631 63.2964 156.704 63.5893 156.704 63.9196C156.704 64.2499 156.629 64.5428 156.48 64.7984C156.33 65.0539 156.126 65.2525 155.866 65.394C155.611 65.5316 155.328 65.6004 155.017 65.6004ZM155.017 65.0166C155.19 65.0166 155.351 64.9753 155.501 64.8927C155.654 64.8102 155.778 64.6863 155.872 64.5212C155.967 64.356 156.014 64.1555 156.014 63.9196C156.014 63.6837 155.968 63.4852 155.878 63.324C155.788 63.1588 155.668 63.035 155.518 62.9524C155.369 62.8698 155.208 62.8286 155.035 62.8286C154.862 62.8286 154.7 62.8698 154.551 62.9524C154.406 63.035 154.29 63.1588 154.203 63.324C154.117 63.4852 154.073 63.6837 154.073 63.9196C154.073 64.2695 154.162 64.5408 154.339 64.7335C154.52 64.9222 154.746 65.0166 155.017 65.0166ZM158.731 62.8462H158.129V65.5474H157.451V62.8462H157.068V62.2978H157.451V62.0678C157.451 61.6942 157.549 61.423 157.746 61.2539C157.946 61.0809 158.259 60.9944 158.684 60.9944V61.5547C158.479 61.5547 158.336 61.594 158.253 61.6726C158.17 61.7473 158.129 61.879 158.129 62.0678V62.2978H158.731V62.8462ZM161.531 62.7755C161.645 62.6261 161.8 62.5003 161.997 62.398C162.193 62.2958 162.416 62.2447 162.663 62.2447C162.946 62.2447 163.204 62.3155 163.436 62.457C163.672 62.5946 163.857 62.7892 163.99 63.0409C164.124 63.2925 164.191 63.5815 164.191 63.9078C164.191 64.2342 164.124 64.5271 163.99 64.7866C163.857 65.0421 163.672 65.2427 163.436 65.3881C163.204 65.5297 162.946 65.6004 162.663 65.6004C162.416 65.6004 162.195 65.5513 162.003 65.453C161.81 65.3508 161.653 65.225 161.531 65.0756V67.0925H160.859V62.2978H161.531V62.7755ZM163.507 63.9078C163.507 63.6837 163.459 63.4911 163.365 63.3299C163.275 63.1647 163.153 63.0409 162.999 62.9583C162.85 62.8718 162.689 62.8286 162.516 62.8286C162.347 62.8286 162.186 62.8718 162.032 62.9583C161.883 63.0448 161.761 63.1706 161.667 63.3358C161.576 63.5009 161.531 63.6955 161.531 63.9196C161.531 64.1437 161.576 64.3403 161.667 64.5094C161.761 64.6745 161.883 64.8003 162.032 64.8868C162.186 64.9733 162.347 65.0166 162.516 65.0166C162.689 65.0166 162.85 64.9733 162.999 64.8868C163.153 64.7964 163.275 64.6667 163.365 64.4976C163.459 64.3285 163.507 64.1319 163.507 63.9078ZM167.834 63.8429C167.834 63.9648 167.826 64.0749 167.81 64.1732H165.327C165.347 64.4327 165.443 64.6411 165.616 64.7984C165.789 64.9556 166.002 65.0343 166.253 65.0343C166.615 65.0343 166.871 64.8829 167.02 64.5802H167.745C167.647 64.879 167.468 65.1247 167.209 65.3174C166.953 65.5061 166.635 65.6004 166.253 65.6004C165.943 65.6004 165.664 65.5316 165.416 65.394C165.172 65.2525 164.979 65.0559 164.838 64.8043C164.7 64.5487 164.631 64.2538 164.631 63.9196C164.631 63.5854 164.698 63.2925 164.832 63.0409C164.97 62.7853 165.16 62.5887 165.404 62.4511C165.652 62.3135 165.935 62.2447 166.253 62.2447C166.56 62.2447 166.833 62.3115 167.073 62.4452C167.313 62.5789 167.5 62.7676 167.633 63.0114C167.767 63.2512 167.834 63.5284 167.834 63.8429ZM167.132 63.6306C167.128 63.3829 167.04 63.1844 166.867 63.035C166.694 62.8856 166.479 62.8109 166.224 62.8109C165.992 62.8109 165.793 62.8856 165.628 63.035C165.463 63.1804 165.365 63.379 165.333 63.6306H167.132ZM169.905 65.6004C169.598 65.6004 169.321 65.5316 169.073 65.394C168.826 65.2525 168.631 65.0559 168.49 64.8043C168.348 64.5487 168.277 64.2538 168.277 63.9196C168.277 63.5893 168.35 63.2964 168.496 63.0409C168.641 62.7853 168.84 62.5887 169.091 62.4511C169.343 62.3135 169.624 62.2447 169.935 62.2447C170.245 62.2447 170.526 62.3135 170.778 62.4511C171.03 62.5887 171.228 62.7853 171.374 63.0409C171.519 63.2964 171.592 63.5893 171.592 63.9196C171.592 64.2499 171.517 64.5428 171.368 64.7984C171.218 65.0539 171.014 65.2525 170.754 65.394C170.499 65.5316 170.216 65.6004 169.905 65.6004ZM169.905 65.0166C170.078 65.0166 170.239 64.9753 170.389 64.8927C170.542 64.8102 170.666 64.6863 170.76 64.5212C170.855 64.356 170.902 64.1555 170.902 63.9196C170.902 63.6837 170.857 63.4852 170.766 63.324C170.676 63.1588 170.556 63.035 170.406 62.9524C170.257 62.8698 170.096 62.8286 169.923 62.8286C169.75 62.8286 169.589 62.8698 169.439 62.9524C169.294 63.035 169.178 63.1588 169.091 63.324C169.005 63.4852 168.961 63.6837 168.961 63.9196C168.961 64.2695 169.05 64.5408 169.227 64.7335C169.408 64.9222 169.634 65.0166 169.905 65.0166ZM172.929 62.7755C173.043 62.6261 173.198 62.5003 173.395 62.398C173.591 62.2958 173.813 62.2447 174.061 62.2447C174.344 62.2447 174.602 62.3155 174.834 62.457C175.07 62.5946 175.254 62.7892 175.388 63.0409C175.522 63.2925 175.589 63.5815 175.589 63.9078C175.589 64.2342 175.522 64.5271 175.388 64.7866C175.254 65.0421 175.07 65.2427 174.834 65.3881C174.602 65.5297 174.344 65.6004 174.061 65.6004C173.813 65.6004 173.593 65.5513 173.401 65.453C173.208 65.3508 173.051 65.225 172.929 65.0756V67.0925H172.256V62.2978H172.929V62.7755ZM174.904 63.9078C174.904 63.6837 174.857 63.4911 174.763 63.3299C174.672 63.1647 174.551 63.0409 174.397 62.9583C174.248 62.8718 174.087 62.8286 173.914 62.8286C173.745 62.8286 173.583 62.8718 173.43 62.9583C173.281 63.0448 173.159 63.1706 173.064 63.3358C172.974 63.5009 172.929 63.6955 172.929 63.9196C172.929 64.1437 172.974 64.3403 173.064 64.5094C173.159 64.6745 173.281 64.8003 173.43 64.8868C173.583 64.9733 173.745 65.0166 173.914 65.0166C174.087 65.0166 174.248 64.9733 174.397 64.8868C174.551 64.7964 174.672 64.6667 174.763 64.4976C174.857 64.3285 174.904 64.1319 174.904 63.9078ZM176.926 61.1831V65.5474H176.253V61.1831H176.926ZM180.787 63.8429C180.787 63.9648 180.779 64.0749 180.763 64.1732H178.28C178.3 64.4327 178.396 64.6411 178.569 64.7984C178.742 64.9556 178.955 65.0343 179.206 65.0343C179.568 65.0343 179.823 64.8829 179.973 64.5802H180.698C180.6 64.879 180.421 65.1247 180.162 65.3174C179.906 65.5061 179.588 65.6004 179.206 65.6004C178.896 65.6004 178.616 65.5316 178.369 65.394C178.125 65.2525 177.932 65.0559 177.791 64.8043C177.653 64.5487 177.584 64.2538 177.584 63.9196C177.584 63.5854 177.651 63.2925 177.785 63.0409C177.922 62.7853 178.113 62.5887 178.357 62.4511C178.605 62.3135 178.888 62.2447 179.206 62.2447C179.513 62.2447 179.786 62.3115 180.026 62.4452C180.266 62.5789 180.453 62.7676 180.586 63.0114C180.72 63.2512 180.787 63.5284 180.787 63.8429ZM180.085 63.6306C180.081 63.3829 179.993 63.1844 179.82 63.035C179.647 62.8856 179.432 62.8109 179.177 62.8109C178.945 62.8109 178.746 62.8856 178.581 63.035C178.416 63.1804 178.318 63.379 178.286 63.6306H180.085ZM182.756 63.9196C182.756 63.5854 182.823 63.2925 182.957 63.0409C183.094 62.7853 183.283 62.5887 183.523 62.4511C183.763 62.3135 184.038 62.2447 184.349 62.2447C184.742 62.2447 185.066 62.3391 185.322 62.5278C185.581 62.7126 185.756 62.978 185.847 63.324H185.121C185.062 63.1628 184.968 63.0369 184.838 62.9465C184.708 62.8561 184.545 62.8109 184.349 62.8109C184.073 62.8109 183.853 62.9092 183.688 63.1057C183.527 63.2984 183.446 63.5697 183.446 63.9196C183.446 64.2695 183.527 64.5428 183.688 64.7394C183.853 64.936 184.073 65.0343 184.349 65.0343C184.738 65.0343 184.995 64.8632 185.121 64.5212H185.847C185.752 64.8514 185.575 65.1149 185.316 65.3115C185.056 65.5041 184.734 65.6004 184.349 65.6004C184.038 65.6004 183.763 65.5316 183.523 65.394C183.283 65.2525 183.094 65.0559 182.957 64.8043C182.823 64.5487 182.756 64.2538 182.756 63.9196ZM187.189 61.1831V65.5474H186.517V61.1831H187.189ZM188.414 61.8672C188.292 61.8672 188.19 61.826 188.107 61.7434C188.025 61.6608 187.983 61.5586 187.983 61.4367C187.983 61.3148 188.025 61.2126 188.107 61.13C188.19 61.0475 188.292 61.0062 188.414 61.0062C188.532 61.0062 188.632 61.0475 188.715 61.13C188.797 61.2126 188.838 61.3148 188.838 61.4367C188.838 61.5586 188.797 61.6608 188.715 61.7434C188.632 61.826 188.532 61.8672 188.414 61.8672ZM188.744 62.2978V65.5474H188.072V62.2978H188.744ZM189.403 63.9196C189.403 63.5854 189.469 63.2925 189.603 63.0409C189.741 62.7853 189.93 62.5887 190.169 62.4511C190.409 62.3135 190.684 62.2447 190.995 62.2447C191.388 62.2447 191.713 62.3391 191.968 62.5278C192.228 62.7126 192.403 62.978 192.493 63.324H191.768C191.709 63.1628 191.614 63.0369 191.485 62.9465C191.355 62.8561 191.192 62.8109 190.995 62.8109C190.72 62.8109 190.5 62.9092 190.334 63.1057C190.173 63.2984 190.093 63.5697 190.093 63.9196C190.093 64.2695 190.173 64.5428 190.334 64.7394C190.5 64.936 190.72 65.0343 190.995 65.0343C191.384 65.0343 191.642 64.8632 191.768 64.5212H192.493C192.399 64.8514 192.222 65.1149 191.962 65.3115C191.703 65.5041 191.38 65.6004 190.995 65.6004C190.684 65.6004 190.409 65.5316 190.169 65.394C189.93 65.2525 189.741 65.0559 189.603 64.8043C189.469 64.5487 189.403 64.2538 189.403 63.9196ZM194.449 63.9255L195.947 65.5474H195.038L193.835 64.1496V65.5474H193.163V61.1831H193.835V63.7191L195.015 62.2978H195.947L194.449 63.9255ZM199.407 63.8429C199.407 63.9648 199.399 64.0749 199.383 64.1732H196.9C196.92 64.4327 197.016 64.6411 197.189 64.7984C197.362 64.9556 197.575 65.0343 197.826 65.0343C198.188 65.0343 198.444 64.8829 198.593 64.5802H199.318C199.22 64.879 199.041 65.1247 198.782 65.3174C198.526 65.5061 198.208 65.6004 197.826 65.6004C197.516 65.6004 197.237 65.5316 196.989 65.394C196.745 65.2525 196.552 65.0559 196.411 64.8043C196.273 64.5487 196.205 64.2538 196.205 63.9196C196.205 63.5854 196.271 63.2925 196.405 63.0409C196.543 62.7853 196.733 62.5887 196.977 62.4511C197.225 62.3135 197.508 62.2447 197.826 62.2447C198.133 62.2447 198.406 62.3115 198.646 62.4452C198.886 62.5789 199.073 62.7676 199.206 63.0114C199.34 63.2512 199.407 63.5284 199.407 63.8429ZM198.705 63.6306C198.701 63.3829 198.613 63.1844 198.44 63.035C198.267 62.8856 198.052 62.8109 197.797 62.8109C197.565 62.8109 197.366 62.8856 197.201 63.035C197.036 63.1804 196.938 63.379 196.906 63.6306H198.705ZM199.844 63.9078C199.844 63.5815 199.911 63.2925 200.045 63.0409C200.183 62.7892 200.367 62.5946 200.599 62.457C200.835 62.3155 201.097 62.2447 201.384 62.2447C201.596 62.2447 201.804 62.2919 202.009 62.3862C202.217 62.4767 202.382 62.5985 202.504 62.7519V61.1831H203.183V65.5474H202.504V65.0579C202.394 65.2151 202.241 65.3449 202.044 65.4471C201.852 65.5493 201.629 65.6004 201.378 65.6004C201.095 65.6004 200.835 65.5297 200.599 65.3881C200.367 65.2427 200.183 65.0421 200.045 64.7866C199.911 64.5271 199.844 64.2342 199.844 63.9078ZM202.504 63.9196C202.504 63.6955 202.457 63.5009 202.363 63.3358C202.272 63.1706 202.152 63.0448 202.003 62.9583C201.854 62.8718 201.692 62.8286 201.519 62.8286C201.346 62.8286 201.185 62.8718 201.036 62.9583C200.886 63.0409 200.764 63.1647 200.67 63.3299C200.58 63.4911 200.534 63.6837 200.534 63.9078C200.534 64.1319 200.58 64.3285 200.67 64.4976C200.764 64.6667 200.886 64.7964 201.036 64.8868C201.189 64.9733 201.35 65.0166 201.519 65.0166C201.692 65.0166 201.854 64.9733 202.003 64.8868C202.152 64.8003 202.272 64.6745 202.363 64.5094C202.457 64.3403 202.504 64.1437 202.504 63.9196ZM206.382 62.8462V64.645C206.382 64.7669 206.41 64.8554 206.465 64.9104C206.524 64.9615 206.622 64.9871 206.759 64.9871H207.172V65.5474H206.641C206.339 65.5474 206.107 65.4766 205.946 65.335C205.784 65.1935 205.704 64.9635 205.704 64.645V62.8462H205.32V62.2978H205.704V61.4898H206.382V62.2978H207.172V62.8462H206.382ZM209.473 62.2447C209.72 62.2447 209.941 62.2978 210.133 62.4039C210.33 62.5101 210.483 62.6674 210.593 62.8757C210.707 63.0841 210.764 63.3358 210.764 63.6306V65.5474H210.098V63.7309C210.098 63.4399 210.025 63.2178 209.88 63.0645C209.734 62.9072 209.536 62.8286 209.284 62.8286C209.032 62.8286 208.832 62.9072 208.682 63.0645C208.537 63.2178 208.464 63.4399 208.464 63.7309V65.5474H207.792V61.1831H208.464V62.6752C208.578 62.5376 208.722 62.4314 208.895 62.3567C209.072 62.282 209.264 62.2447 209.473 62.2447ZM214.6 63.8429C214.6 63.9648 214.592 64.0749 214.577 64.1732H212.094C212.113 64.4327 212.21 64.6411 212.383 64.7984C212.556 64.9556 212.768 65.0343 213.02 65.0343C213.381 65.0343 213.637 64.8829 213.786 64.5802H214.512C214.413 64.879 214.235 65.1247 213.975 65.3174C213.72 65.5061 213.401 65.6004 213.02 65.6004C212.709 65.6004 212.43 65.5316 212.182 65.394C211.938 65.2525 211.746 65.0559 211.604 64.8043C211.467 64.5487 211.398 64.2538 211.398 63.9196C211.398 63.5854 211.465 63.2925 211.598 63.0409C211.736 62.7853 211.927 62.5887 212.17 62.4511C212.418 62.3135 212.701 62.2447 213.02 62.2447C213.326 62.2447 213.6 62.3115 213.839 62.4452C214.079 62.5789 214.266 62.7676 214.4 63.0114C214.533 63.2512 214.6 63.5284 214.6 63.8429ZM213.898 63.6306C213.894 63.3829 213.806 63.1844 213.633 63.035C213.46 62.8856 213.246 62.8109 212.99 62.8109C212.758 62.8109 212.56 62.8856 212.395 63.035C212.229 63.1804 212.131 63.379 212.1 63.6306H213.898ZM217.466 61.1831V65.5474H216.794V61.1831H217.466ZM218.691 61.8672C218.569 61.8672 218.467 61.826 218.384 61.7434C218.302 61.6608 218.26 61.5586 218.26 61.4367C218.26 61.3148 218.302 61.2126 218.384 61.13C218.467 61.0475 218.569 61.0062 218.691 61.0062C218.809 61.0062 218.909 61.0475 218.992 61.13C219.074 61.2126 219.116 61.3148 219.116 61.4367C219.116 61.5586 219.074 61.6608 218.992 61.7434C218.909 61.826 218.809 61.8672 218.691 61.8672ZM219.021 62.2978V65.5474H218.349V62.2978H219.021ZM221.544 62.2447C221.799 62.2447 222.027 62.2978 222.228 62.4039C222.432 62.5101 222.591 62.6674 222.705 62.8757C222.819 63.0841 222.876 63.3358 222.876 63.6306V65.5474H222.21V63.7309C222.21 63.4399 222.137 63.2178 221.992 63.0645C221.846 62.9072 221.648 62.8286 221.396 62.8286C221.144 62.8286 220.944 62.9072 220.795 63.0645C220.649 63.2178 220.576 63.4399 220.576 63.7309V65.5474H219.904V62.2978H220.576V62.6693C220.686 62.5356 220.826 62.4314 220.995 62.3567C221.168 62.282 221.351 62.2447 221.544 62.2447ZM225.02 63.9255L226.518 65.5474H225.609L224.406 64.1496V65.5474H223.734V61.1831H224.406V63.7191L225.586 62.2978H226.518L225.02 63.9255ZM229.978 63.8429C229.978 63.9648 229.97 64.0749 229.954 64.1732H227.471C227.491 64.4327 227.587 64.6411 227.76 64.7984C227.933 64.9556 228.146 65.0343 228.397 65.0343C228.759 65.0343 229.015 64.8829 229.164 64.5802H229.889C229.791 64.879 229.612 65.1247 229.353 65.3174C229.097 65.5061 228.779 65.6004 228.397 65.6004C228.087 65.6004 227.808 65.5316 227.56 65.394C227.316 65.2525 227.123 65.0559 226.982 64.8043C226.844 64.5487 226.775 64.2538 226.775 63.9196C226.775 63.5854 226.842 63.2925 226.976 63.0409C227.114 62.7853 227.304 62.5887 227.548 62.4511C227.796 62.3135 228.079 62.2447 228.397 62.2447C228.704 62.2447 228.977 62.3115 229.217 62.4452C229.457 62.5789 229.644 62.7676 229.777 63.0114C229.911 63.2512 229.978 63.5284 229.978 63.8429ZM229.276 63.6306C229.272 63.3829 229.184 63.1844 229.011 63.035C228.838 62.8856 228.623 62.8109 228.368 62.8109C228.136 62.8109 227.937 62.8856 227.772 63.035C227.607 63.1804 227.509 63.379 227.477 63.6306H229.276ZM230.415 63.9078C230.415 63.5815 230.482 63.2925 230.616 63.0409C230.754 62.7892 230.938 62.5946 231.17 62.457C231.406 62.3155 231.668 62.2447 231.955 62.2447C232.167 62.2447 232.375 62.2919 232.58 62.3862C232.788 62.4767 232.953 62.5985 233.075 62.7519V61.1831H233.753V65.5474H233.075V65.0579C232.965 65.2151 232.812 65.3449 232.615 65.4471C232.423 65.5493 232.2 65.6004 231.949 65.6004C231.666 65.6004 231.406 65.5297 231.17 65.3881C230.938 65.2427 230.754 65.0421 230.616 64.7866C230.482 64.5271 230.415 64.2342 230.415 63.9078ZM233.075 63.9196C233.075 63.6955 233.028 63.5009 232.934 63.3358C232.843 63.1706 232.723 63.0448 232.574 62.9583C232.425 62.8718 232.263 62.8286 232.09 62.8286C231.917 62.8286 231.756 62.8718 231.607 62.9583C231.457 63.0409 231.335 63.1647 231.241 63.3299C231.151 63.4911 231.105 63.6837 231.105 63.9078C231.105 64.1319 231.151 64.3285 231.241 64.4976C231.335 64.6667 231.457 64.7964 231.607 64.8868C231.76 64.9733 231.921 65.0166 232.09 65.0166C232.263 65.0166 232.425 64.9733 232.574 64.8868C232.723 64.8003 232.843 64.6745 232.934 64.5094C233.028 64.3403 233.075 64.1437 233.075 63.9196ZM236.511 61.8672C236.389 61.8672 236.286 61.826 236.204 61.7434C236.121 61.6608 236.08 61.5586 236.08 61.4367C236.08 61.3148 236.121 61.2126 236.204 61.13C236.286 61.0475 236.389 61.0062 236.511 61.0062C236.629 61.0062 236.729 61.0475 236.811 61.13C236.894 61.2126 236.935 61.3148 236.935 61.4367C236.935 61.5586 236.894 61.6608 236.811 61.7434C236.729 61.826 236.629 61.8672 236.511 61.8672ZM236.841 62.2978V65.5474H236.169V62.2978H236.841ZM239.363 62.2447C239.619 62.2447 239.847 62.2978 240.047 62.4039C240.252 62.5101 240.411 62.6674 240.525 62.8757C240.639 63.0841 240.696 63.3358 240.696 63.6306V65.5474H240.03V63.7309C240.03 63.4399 239.957 63.2178 239.811 63.0645C239.666 62.9072 239.467 62.8286 239.216 62.8286C238.964 62.8286 238.764 62.9072 238.614 63.0645C238.469 63.2178 238.396 63.4399 238.396 63.7309V65.5474H237.724V62.2978H238.396V62.6693C238.506 62.5356 238.646 62.4314 238.815 62.3567C238.988 62.282 239.17 62.2447 239.363 62.2447ZM243.87 62.8462V64.645C243.87 64.7669 243.897 64.8554 243.953 64.9104C244.011 64.9615 244.11 64.9871 244.247 64.9871H244.66V65.5474H244.129C243.827 65.5474 243.595 65.4766 243.434 65.335C243.272 65.1935 243.192 64.9635 243.192 64.645V62.8462H242.808V62.2978H243.192V61.4898H243.87V62.2978H244.66V62.8462H243.87ZM246.961 62.2447C247.208 62.2447 247.429 62.2978 247.621 62.4039C247.818 62.5101 247.971 62.6674 248.081 62.8757C248.195 63.0841 248.252 63.3358 248.252 63.6306V65.5474H247.586V63.7309C247.586 63.4399 247.513 63.2178 247.368 63.0645C247.222 62.9072 247.024 62.8286 246.772 62.8286C246.52 62.8286 246.32 62.9072 246.17 63.0645C246.025 63.2178 245.952 63.4399 245.952 63.7309V65.5474H245.28V61.1831H245.952V62.6752C246.066 62.5376 246.21 62.4314 246.383 62.3567C246.56 62.282 246.752 62.2447 246.961 62.2447ZM252.088 63.8429C252.088 63.9648 252.08 64.0749 252.065 64.1732H249.582C249.601 64.4327 249.698 64.6411 249.871 64.7984C250.044 64.9556 250.256 65.0343 250.508 65.0343C250.869 65.0343 251.125 64.8829 251.274 64.5802H252C251.901 64.879 251.723 65.1247 251.463 65.3174C251.207 65.5061 250.889 65.6004 250.508 65.6004C250.197 65.6004 249.918 65.5316 249.67 65.394C249.426 65.2525 249.234 65.0559 249.092 64.8043C248.955 64.5487 248.886 64.2538 248.886 63.9196C248.886 63.5854 248.953 63.2925 249.086 63.0409C249.224 62.7853 249.415 62.5887 249.658 62.4511C249.906 62.3135 250.189 62.2447 250.508 62.2447C250.814 62.2447 251.088 62.3115 251.327 62.4452C251.567 62.5789 251.754 62.7676 251.888 63.0114C252.021 63.2512 252.088 63.5284 252.088 63.8429ZM251.386 63.6306C251.382 63.3829 251.294 63.1844 251.121 63.035C250.948 62.8856 250.734 62.8109 250.478 62.8109C250.246 62.8109 250.048 62.8856 249.882 63.035C249.717 63.1804 249.619 63.379 249.588 63.6306H251.386ZM257.26 63.8429C257.26 63.9648 257.252 64.0749 257.237 64.1732H254.754C254.773 64.4327 254.87 64.6411 255.043 64.7984C255.216 64.9556 255.428 65.0343 255.68 65.0343C256.041 65.0343 256.297 64.8829 256.446 64.5802H257.172C257.073 64.879 256.894 65.1247 256.635 65.3174C256.379 65.5061 256.061 65.6004 255.68 65.6004C255.369 65.6004 255.09 65.5316 254.842 65.394C254.598 65.2525 254.406 65.0559 254.264 64.8043C254.127 64.5487 254.058 64.2538 254.058 63.9196C254.058 63.5854 254.125 63.2925 254.258 63.0409C254.396 62.7853 254.587 62.5887 254.83 62.4511C255.078 62.3135 255.361 62.2447 255.68 62.2447C255.986 62.2447 256.26 62.3115 256.499 62.4452C256.739 62.5789 256.926 62.7676 257.06 63.0114C257.193 63.2512 257.26 63.5284 257.26 63.8429ZM256.558 63.6306C256.554 63.3829 256.466 63.1844 256.293 63.035C256.12 62.8856 255.906 62.8109 255.65 62.8109C255.418 62.8109 255.22 62.8856 255.054 63.035C254.889 63.1804 254.791 63.379 254.76 63.6306H256.558ZM261.856 62.2447C262.111 62.2447 262.339 62.2978 262.54 62.4039C262.744 62.5101 262.903 62.6674 263.017 62.8757C263.135 63.0841 263.194 63.3358 263.194 63.6306V65.5474H262.528V63.7309C262.528 63.4399 262.455 63.2178 262.31 63.0645C262.164 62.9072 261.966 62.8286 261.714 62.8286C261.462 62.8286 261.262 62.9072 261.112 63.0645C260.967 63.2178 260.894 63.4399 260.894 63.7309V65.5474H260.228V63.7309C260.228 63.4399 260.155 63.2178 260.01 63.0645C259.864 62.9072 259.666 62.8286 259.414 62.8286C259.162 62.8286 258.962 62.9072 258.812 63.0645C258.667 63.2178 258.594 63.4399 258.594 63.7309V65.5474H257.922V62.2978H258.594V62.6693C258.704 62.5356 258.844 62.4314 259.013 62.3567C259.182 62.282 259.363 62.2447 259.555 62.2447C259.815 62.2447 260.047 62.2997 260.251 62.4098C260.456 62.5199 260.613 62.6791 260.723 62.8875C260.821 62.6909 260.975 62.5356 261.183 62.4216C261.392 62.3037 261.616 62.2447 261.856 62.2447ZM263.826 63.9078C263.826 63.5815 263.893 63.2925 264.026 63.0409C264.164 62.7892 264.349 62.5946 264.581 62.457C264.816 62.3155 265.076 62.2447 265.359 62.2447C265.615 62.2447 265.837 62.2958 266.026 62.398C266.218 62.4963 266.371 62.6202 266.486 62.7696V62.2978H267.164V65.5474H266.486V65.0638C266.371 65.2171 266.216 65.3449 266.02 65.4471C265.823 65.5493 265.599 65.6004 265.347 65.6004C265.068 65.6004 264.813 65.5297 264.581 65.3881C264.349 65.2427 264.164 65.0421 264.026 64.7866C263.893 64.5271 263.826 64.2342 263.826 63.9078ZM266.486 63.9196C266.486 63.6955 266.438 63.5009 266.344 63.3358C266.254 63.1706 266.134 63.0448 265.984 62.9583C265.835 62.8718 265.674 62.8286 265.501 62.8286C265.328 62.8286 265.166 62.8718 265.017 62.9583C264.868 63.0409 264.746 63.1647 264.651 63.3299C264.561 63.4911 264.516 63.6837 264.516 63.9078C264.516 64.1319 264.561 64.3285 264.651 64.4976C264.746 64.6667 264.868 64.7964 265.017 64.8868C265.17 64.9733 265.332 65.0166 265.501 65.0166C265.674 65.0166 265.835 64.9733 265.984 64.8868C266.134 64.8003 266.254 64.6745 266.344 64.5094C266.438 64.3403 266.486 64.1437 266.486 63.9196ZM268.389 61.8672C268.267 61.8672 268.165 61.826 268.082 61.7434C268 61.6608 267.958 61.5586 267.958 61.4367C267.958 61.3148 268 61.2126 268.082 61.13C268.165 61.0475 268.267 61.0062 268.389 61.0062C268.507 61.0062 268.607 61.0475 268.69 61.13C268.772 61.2126 268.814 61.3148 268.814 61.4367C268.814 61.5586 268.772 61.6608 268.69 61.7434C268.607 61.826 268.507 61.8672 268.389 61.8672ZM268.719 62.2978V65.5474H268.047V62.2978H268.719ZM270.274 61.1831V65.5474H269.602V61.1831H270.274Z" fill="#615C64"/>
<circle cx="175.002" cy="103.479" r="0.982891" fill="white" stroke="#F1D9FF" stroke-width="0.280826"/>
<circle cx="199.709" cy="90" r="0.982891" fill="#BF62F9" stroke="#BF62F9" stroke-width="0.280826"/>
<rect x="195.689" y="81.1039" width="10.4885" height="5.43368" rx="0.639943" fill="white"/>
<path d="M195.896 82.3955V81.9491H196.907V85.8379H196.412V82.3955H195.896ZM197.748 83.8532C197.748 83.2364 197.848 82.7559 198.049 82.4117C198.25 82.0638 198.601 81.8899 199.103 81.8899C199.602 81.8899 199.951 82.0638 200.152 82.4117C200.353 82.7559 200.453 83.2364 200.453 83.8532C200.453 84.4807 200.353 84.9683 200.152 85.3162C199.951 85.664 199.602 85.8379 199.103 85.8379C198.601 85.8379 198.25 85.664 198.049 85.3162C197.848 84.9683 197.748 84.4807 197.748 83.8532ZM199.969 83.8532C199.969 83.5412 199.948 83.2776 199.905 83.0625C199.865 82.8438 199.781 82.6681 199.652 82.5354C199.526 82.4027 199.343 82.3364 199.103 82.3364C198.859 82.3364 198.673 82.4027 198.544 82.5354C198.418 82.6681 198.334 82.8438 198.291 83.0625C198.252 83.2776 198.232 83.5412 198.232 83.8532C198.232 84.1759 198.252 84.4466 198.291 84.6653C198.334 84.8841 198.418 85.0598 198.544 85.1924C198.673 85.3251 198.859 85.3915 199.103 85.3915C199.343 85.3915 199.526 85.3251 199.652 85.1924C199.781 85.0598 199.865 84.8841 199.905 84.6653C199.948 84.4466 199.969 84.1759 199.969 83.8532ZM203.239 85.8379L201.695 84.1275V85.8379H201.206V82.0889H201.695V83.8263L203.244 82.0889H203.863L202.163 83.9661L203.879 85.8379H203.239Z" fill="#6D07AB"/>
<rect x="195.689" y="81.1039" width="10.4885" height="5.43368" rx="0.639943" stroke="white" stroke-width="0.182841"/>
<circle cx="247.455" cy="95.0542" r="0.982891" fill="white" stroke="#F1D9FF" stroke-width="0.280826"/>
<circle cx="221.053" cy="109.657" r="0.982891" fill="white" stroke="#F1D9FF" stroke-width="0.280826"/>
<circle cx="150.854" cy="115.836" r="0.982891" fill="white" stroke="#F1D9FF" stroke-width="0.280826"/>
<circle cx="270.483" cy="102.357" r="0.982891" fill="white" stroke="#F1D9FF" stroke-width="0.280826"/>
</g>
<defs>
<filter id="filter0_dd_3980_8779" x="0.454225" y="4" width="140.06" height="128.875" filterUnits="userSpaceOnUse" color-interpolation-filters="sRGB">
<feFlood flood-opacity="0" result="BackgroundImageFix"/>
<feColorMatrix in="SourceAlpha" type="matrix" values="0 0 0 0 0 0 0 0 0 0 0 0 0 0 0 0 0 0 127 0" result="hardAlpha"/>
<feOffset dx="-1.18193"/>
<feGaussianBlur stdDeviation="1.18193"/>
<feComposite in2="hardAlpha" operator="out"/>
<feColorMatrix type="matrix" values="0 0 0 0 0 0 0 0 0 0 0 0 0 0 0 0 0 0 0.05 0"/>
<feBlend mode="normal" in2="BackgroundImageFix" result="effect1_dropShadow_3980_8779"/>
<feColorMatrix in="SourceAlpha" type="matrix" values="0 0 0 0 0 0 0 0 0 0 0 0 0 0 0 0 0 0 127 0" result="hardAlpha"/>
<feOffset dx="-1" dy="-1"/>
<feGaussianBlur stdDeviation="1"/>
<feComposite in2="hardAlpha" operator="out"/>
<feColorMatrix type="matrix" values="0 0 0 0 0 0 0 0 0 0 0 0 0 0 0 0 0 0 0.03 0"/>
<feBlend mode="normal" in2="effect1_dropShadow_3980_8779" result="effect2_dropShadow_3980_8779"/>
<feBlend mode="normal" in="SourceGraphic" in2="effect2_dropShadow_3980_8779" result="shape"/>
</filter>
<filter id="filter1_ddd_3980_8779" x="123.334" y="45.0673" width="170.523" height="99.4259" filterUnits="userSpaceOnUse" color-interpolation-filters="sRGB">
<feFlood flood-opacity="0" result="BackgroundImageFix"/>
<feColorMatrix in="SourceAlpha" type="matrix" values="0 0 0 0 0 0 0 0 0 0 0 0 0 0 0 0 0 0 127 0" result="hardAlpha"/>
<feOffset dx="1.1233"/>
<feGaussianBlur stdDeviation="1.1233"/>
<feComposite in2="hardAlpha" operator="out"/>
<feColorMatrix type="matrix" values="0 0 0 0 0 0 0 0 0 0 0 0 0 0 0 0 0 0 0.05 0"/>
<feBlend mode="normal" in2="BackgroundImageFix" result="effect1_dropShadow_3980_8779"/>
<feColorMatrix in="SourceAlpha" type="matrix" values="0 0 0 0 0 0 0 0 0 0 0 0 0 0 0 0 0 0 127 0" result="hardAlpha"/>
<feOffset dx="-2.24661"/>
<feGaussianBlur stdDeviation="2.24661"/>
<feComposite in2="hardAlpha" operator="out"/>
<feColorMatrix type="matrix" values="0 0 0 0 0 0 0 0 0 0 0 0 0 0 0 0 0 0 0.05 0"/>
<feBlend mode="normal" in2="effect1_dropShadow_3980_8779" result="effect2_dropShadow_3980_8779"/>
<feColorMatrix in="SourceAlpha" type="matrix" values="0 0 0 0 0 0 0 0 0 0 0 0 0 0 0 0 0 0 127 0" result="hardAlpha"/>
<feOffset dx="2.17368"/>
<feGaussianBlur stdDeviation="2.17368"/>
<feComposite in2="hardAlpha" operator="out"/>
<feColorMatrix type="matrix" values="0 0 0 0 0 0 0 0 0 0 0 0 0 0 0 0 0 0 0.05 0"/>
<feBlend mode="normal" in2="effect2_dropShadow_3980_8779" result="effect3_dropShadow_3980_8779"/>
<feBlend mode="normal" in="SourceGraphic" in2="effect3_dropShadow_3980_8779" result="shape"/>
</filter>
<radialGradient id="paint0_radial_3980_8779" cx="0" cy="0" r="1" gradientUnits="userSpaceOnUse" gradientTransform="translate(134.159 12.0013) rotate(123.657) scale(41.7986 89.0265)">
<stop stop-color="#FCF4FF"/>
<stop offset="1" stop-color="#FCF4FF" stop-opacity="0"/>
</radialGradient>
<radialGradient id="paint1_radial_3980_8779" cx="0" cy="0" r="1" gradientUnits="userSpaceOnUse" gradientTransform="translate(281.327 53.2227) rotate(136.579) scale(37.0635 85.431)">
<stop stop-color="#FCF4FF"/>
<stop offset="1" stop-color="#FCF4FF" stop-opacity="0"/>
</radialGradient>
</defs>
</svg>
