<svg width="79" height="252" viewBox="0 0 79 252" fill="none" xmlns="http://www.w3.org/2000/svg">
<path d="M48.1862 26.3723C47.2386 28.0135 45.0304 28.5124 43.254 27.4868C41.4776 26.4612 40.8056 24.2993 41.7531 22.6582C42.7006 21.017 44.8822 20.5642 46.6586 21.5898C48.4351 22.6154 49.1337 24.7312 48.1862 26.3723Z" fill="#6434D0"/>
<path d="M59.4307 32.8951C58.4906 34.5235 56.2883 35.0122 54.5119 33.9865C52.7354 32.9609 52.0575 30.8094 52.9977 29.181C53.9378 27.5526 56.1401 27.0639 57.9165 28.0895C59.693 29.1152 60.3709 31.2667 59.4307 32.8951Z" fill="#6434D0"/>
<path fill-rule="evenodd" clip-rule="evenodd" d="M47.3485 2.75269C44.9059 1.34245 41.7281 2.27364 40.2507 4.83257L17.5127 44.216C16.0353 46.775 16.8177 49.9926 19.2603 51.4029L45.7968 66.7237C48.2394 68.1339 51.4172 67.2028 52.8946 64.6438L75.6327 25.2603C77.1101 22.7014 76.3276 19.4838 73.885 18.0735L47.3485 2.75269ZM46.1893 17.5279C43.136 15.7651 39.1638 16.9291 37.317 20.1278C35.4703 23.3264 36.4484 27.3485 39.5016 29.1113L54.9812 38.0484C58.0345 39.8112 62.0067 38.6472 63.8535 35.4486C65.7002 32.2499 64.7222 28.2279 61.6689 26.4651L46.1893 17.5279Z" fill="#6434D0"/>
<path d="M14.8141 229.784C15.2389 231.246 13.6633 232.422 12.3111 231.641L3.85113 226.757C2.182 225.793 1.57564 223.707 2.49981 222.106L7.1838 213.993C7.93227 212.697 9.93557 212.994 10.3608 214.456L14.8141 229.784Z" fill="#0A1551"/>
<path d="M27.6325 238.123C26.5497 234.216 28.8533 230.226 32.778 229.21L46.9439 225.547C50.8687 224.531 54.9289 226.875 56.0122 230.782C57.0959 234.689 54.792 238.679 50.867 239.694L36.7014 243.358C32.7763 244.373 28.7161 242.029 27.6325 238.123Z" fill="#FFB21D"/>
<path d="M16.6391 202.023C15.5556 198.116 17.8594 194.126 21.7843 193.111L43.0739 187.604C46.9992 186.589 51.0595 188.933 52.1428 192.84C53.2259 196.747 50.922 200.737 46.9976 201.752L25.7078 207.258C21.7824 208.274 17.7223 205.93 16.6391 202.023Z" fill="#0099FF"/>
<path d="M22.918 219.859C21.8346 215.952 24.1382 211.962 28.0635 210.947L60.2744 202.616C64.1998 201.6 68.26 203.944 69.3433 207.852C70.4264 211.758 68.1226 215.748 64.1981 216.763L31.9869 225.095C28.0615 226.11 24.0013 223.766 22.918 219.859Z" fill="#FF6100"/>
</svg>
