<svg width="622" height="501" viewBox="0 0 622 501" fill="none" xmlns="http://www.w3.org/2000/svg">
<circle cx="310.559" cy="250.164" r="217.551" fill="#F1D9FF"/>
<g clip-path="url(#clip0_4755_48791)">
<g filter="url(#filter0_d_4755_48791)">
<g clip-path="url(#clip1_4755_48791)">
<mask id="path-4-inside-1_4755_48791" fill="white">
<path d="M65 92H557.188V170.75H65V92Z"/>
</mask>
<path d="M65 92H557.188V170.75H65V92Z" fill="white"/>
<path d="M103.928 125.193C103.793 124.06 103.249 123.18 102.294 122.553C101.34 121.927 100.169 121.614 98.782 121.614C97.7678 121.614 96.8803 121.778 96.1197 122.106C95.3665 122.434 94.7773 122.885 94.3523 123.459C93.9347 124.034 93.7259 124.686 93.7259 125.417C93.7259 126.028 93.8713 126.554 94.1621 126.994C94.4604 127.427 94.8407 127.788 95.3031 128.079C95.7654 128.363 96.2502 128.597 96.7573 128.784C97.2644 128.963 97.7305 129.108 98.1555 129.22L100.482 129.847C101.079 130.003 101.743 130.219 102.473 130.495C103.212 130.771 103.916 131.148 104.588 131.625C105.266 132.095 105.825 132.699 106.265 133.437C106.705 134.176 106.925 135.082 106.925 136.156C106.925 137.393 106.601 138.512 105.952 139.511C105.311 140.511 104.371 141.305 103.133 141.894C101.903 142.483 100.408 142.778 98.6477 142.778C97.0071 142.778 95.5865 142.513 94.3858 141.983C93.1926 141.454 92.253 140.716 91.5669 139.769C90.8883 138.822 90.5043 137.722 90.4148 136.469H93.2784C93.353 137.334 93.6438 138.05 94.1509 138.616C94.6655 139.176 95.3143 139.593 96.0973 139.869C96.8878 140.138 97.7379 140.272 98.6477 140.272C99.7067 140.272 100.657 140.1 101.5 139.757C102.343 139.407 103.01 138.922 103.502 138.303C103.995 137.677 104.241 136.946 104.241 136.111C104.241 135.35 104.028 134.731 103.603 134.254C103.178 133.777 102.619 133.389 101.925 133.091C101.232 132.792 100.482 132.531 99.6768 132.308L96.858 131.502C95.0682 130.988 93.6513 130.253 92.6072 129.298C91.5632 128.344 91.0412 127.095 91.0412 125.551C91.0412 124.268 91.388 123.15 92.0815 122.195C92.7825 121.233 93.7221 120.488 94.9004 119.958C96.0861 119.421 97.4098 119.153 98.8714 119.153C100.348 119.153 101.661 119.417 102.809 119.947C103.957 120.469 104.867 121.185 105.538 122.095C106.217 123.004 106.575 124.037 106.612 125.193H103.928ZM118.332 142.733C116.677 142.733 115.249 142.368 114.048 141.637C112.855 140.898 111.934 139.869 111.285 138.549C110.644 137.222 110.323 135.678 110.323 133.918C110.323 132.158 110.644 130.607 111.285 129.265C111.934 127.915 112.836 126.864 113.992 126.11C115.156 125.35 116.513 124.969 118.064 124.969C118.959 124.969 119.843 125.119 120.715 125.417C121.588 125.715 122.382 126.2 123.098 126.871C123.814 127.535 124.384 128.415 124.809 129.511C125.234 130.607 125.447 131.957 125.447 133.56V134.679H112.202V132.397H122.762C122.762 131.428 122.568 130.562 122.18 129.802C121.8 129.041 121.256 128.441 120.547 128.001C119.846 127.561 119.019 127.341 118.064 127.341C117.012 127.341 116.103 127.602 115.335 128.124C114.574 128.638 113.989 129.31 113.578 130.137C113.168 130.965 112.963 131.853 112.963 132.8V134.321C112.963 135.619 113.187 136.719 113.634 137.621C114.089 138.516 114.719 139.198 115.525 139.668C116.33 140.13 117.266 140.362 118.332 140.362C119.026 140.362 119.652 140.265 120.212 140.071C120.778 139.869 121.267 139.571 121.677 139.176C122.087 138.773 122.404 138.273 122.628 137.677L125.178 138.393C124.91 139.258 124.459 140.018 123.825 140.675C123.191 141.324 122.408 141.831 121.476 142.196C120.544 142.554 119.496 142.733 118.332 142.733ZM132.102 119.466V142.375H129.463V119.466H132.102ZM144.142 142.733C142.486 142.733 141.058 142.368 139.857 141.637C138.664 140.898 137.743 139.869 137.094 138.549C136.453 137.222 136.132 135.678 136.132 133.918C136.132 132.158 136.453 130.607 137.094 129.265C137.743 127.915 138.645 126.864 139.801 126.11C140.965 125.35 142.322 124.969 143.873 124.969C144.768 124.969 145.652 125.119 146.524 125.417C147.397 125.715 148.191 126.2 148.907 126.871C149.623 127.535 150.193 128.415 150.618 129.511C151.043 130.607 151.256 131.957 151.256 133.56V134.679H138.012V132.397H148.571C148.571 131.428 148.377 130.562 147.99 129.802C147.609 129.041 147.065 128.441 146.356 128.001C145.655 127.561 144.828 127.341 143.873 127.341C142.822 127.341 141.912 127.602 141.144 128.124C140.383 128.638 139.798 129.31 139.387 130.137C138.977 130.965 138.772 131.853 138.772 132.8V134.321C138.772 135.619 138.996 136.719 139.443 137.621C139.898 138.516 140.528 139.198 141.334 139.668C142.139 140.13 143.075 140.362 144.142 140.362C144.835 140.362 145.461 140.265 146.021 140.071C146.588 139.869 147.076 139.571 147.486 139.176C147.896 138.773 148.213 138.273 148.437 137.677L150.987 138.393C150.719 139.258 150.268 140.018 149.634 140.675C149 141.324 148.217 141.831 147.285 142.196C146.353 142.554 145.305 142.733 144.142 142.733ZM162.252 142.733C160.641 142.733 159.254 142.353 158.091 141.592C156.927 140.831 156.032 139.784 155.406 138.449C154.779 137.114 154.466 135.589 154.466 133.874C154.466 132.129 154.787 130.589 155.428 129.254C156.077 127.911 156.979 126.864 158.135 126.11C159.299 125.35 160.656 124.969 162.207 124.969C163.415 124.969 164.504 125.193 165.473 125.641C166.443 126.088 167.237 126.714 167.856 127.52C168.475 128.325 168.859 129.265 169.008 130.339H166.368C166.167 129.556 165.719 128.862 165.026 128.258C164.34 127.647 163.415 127.341 162.252 127.341C161.223 127.341 160.32 127.609 159.545 128.146C158.777 128.676 158.176 129.425 157.744 130.395C157.319 131.357 157.106 132.487 157.106 133.784C157.106 135.112 157.315 136.267 157.733 137.252C158.158 138.236 158.754 139.001 159.522 139.545C160.298 140.089 161.208 140.362 162.252 140.362C162.938 140.362 163.561 140.242 164.12 140.004C164.679 139.765 165.153 139.422 165.54 138.974C165.928 138.527 166.204 137.99 166.368 137.364H169.008C168.859 138.378 168.49 139.291 167.901 140.104C167.319 140.91 166.547 141.551 165.585 142.028C164.631 142.498 163.52 142.733 162.252 142.733ZM180.34 125.193V127.43H171.436V125.193H180.34ZM174.031 121.077H176.671V137.453C176.671 138.199 176.779 138.758 176.995 139.131C177.219 139.496 177.502 139.743 177.845 139.869C178.196 139.989 178.565 140.048 178.953 140.048C179.243 140.048 179.482 140.033 179.669 140.004C179.855 139.966 180.004 139.936 180.116 139.914L180.653 142.286C180.474 142.353 180.224 142.42 179.903 142.487C179.583 142.561 179.176 142.599 178.684 142.599C177.938 142.599 177.208 142.438 176.492 142.118C175.783 141.797 175.194 141.309 174.724 140.652C174.262 139.996 174.031 139.168 174.031 138.169V121.077ZM193.528 142.375V119.466H201.269C203.066 119.466 204.535 119.79 205.676 120.439C206.825 121.08 207.675 121.949 208.227 123.045C208.778 124.142 209.054 125.365 209.054 126.714C209.054 128.064 208.778 129.291 208.227 130.395C207.682 131.498 206.839 132.378 205.699 133.035C204.558 133.683 203.096 134.008 201.314 134.008H195.765V131.547H201.224C202.455 131.547 203.443 131.334 204.188 130.909C204.934 130.484 205.475 129.91 205.81 129.187C206.153 128.456 206.325 127.632 206.325 126.714C206.325 125.797 206.153 124.977 205.81 124.254C205.475 123.53 204.93 122.963 204.177 122.553C203.424 122.136 202.425 121.927 201.179 121.927H196.302V142.375H193.528ZM215.805 119.466V142.375H213.165V119.466H215.805ZM225.696 142.778C224.608 142.778 223.62 142.573 222.732 142.162C221.845 141.745 221.14 141.145 220.618 140.362C220.096 139.571 219.835 138.616 219.835 137.498C219.835 136.513 220.029 135.716 220.417 135.104C220.804 134.485 221.323 134 221.971 133.65C222.62 133.299 223.336 133.038 224.119 132.867C224.91 132.688 225.704 132.546 226.502 132.442C227.546 132.308 228.392 132.207 229.041 132.14C229.697 132.065 230.175 131.942 230.473 131.771C230.779 131.599 230.932 131.301 230.932 130.876V130.786C230.932 129.683 230.629 128.825 230.025 128.213C229.429 127.602 228.523 127.296 227.307 127.296C226.047 127.296 225.059 127.572 224.343 128.124C223.627 128.676 223.124 129.265 222.833 129.891L220.327 128.996C220.775 127.952 221.371 127.14 222.117 126.558C222.87 125.969 223.69 125.559 224.578 125.327C225.473 125.089 226.353 124.969 227.218 124.969C227.77 124.969 228.403 125.037 229.119 125.171C229.843 125.298 230.54 125.562 231.211 125.965C231.89 126.368 232.453 126.975 232.9 127.788C233.348 128.601 233.571 129.69 233.571 131.055V142.375H230.932V140.048H230.797C230.618 140.421 230.32 140.82 229.902 141.245C229.485 141.67 228.929 142.032 228.236 142.33C227.542 142.629 226.696 142.778 225.696 142.778ZM226.099 140.406C227.143 140.406 228.023 140.201 228.739 139.791C229.462 139.381 230.007 138.851 230.372 138.203C230.745 137.554 230.932 136.871 230.932 136.156V133.739C230.82 133.874 230.574 133.997 230.193 134.108C229.82 134.213 229.388 134.306 228.896 134.388C228.411 134.463 227.937 134.53 227.475 134.589C227.02 134.642 226.651 134.686 226.368 134.724C225.682 134.813 225.04 134.959 224.444 135.16C223.854 135.354 223.377 135.648 223.012 136.044C222.654 136.431 222.475 136.961 222.475 137.632C222.475 138.549 222.814 139.243 223.493 139.713C224.179 140.175 225.048 140.406 226.099 140.406ZM241.03 132.039V142.375H238.39V125.193H240.94V127.878H241.164C241.567 127.005 242.178 126.304 242.998 125.775C243.819 125.238 244.878 124.969 246.175 124.969C247.339 124.969 248.357 125.208 249.229 125.685C250.102 126.155 250.78 126.871 251.265 127.833C251.75 128.788 251.992 129.996 251.992 131.457V142.375H249.352V131.636C249.352 130.287 249.002 129.235 248.301 128.482C247.6 127.721 246.638 127.341 245.415 127.341C244.572 127.341 243.819 127.524 243.155 127.889C242.499 128.254 241.981 128.788 241.6 129.489C241.22 130.19 241.03 131.04 241.03 132.039Z" fill="#101828"/>
<path d="M504.031 126.453L513.875 136.297L523.719 126.453" stroke="#475467" stroke-width="3.28125" stroke-linecap="round" stroke-linejoin="round"/>
</g>
<path d="M557.188 168.781H65V172.719H557.188V168.781Z" fill="#EAECF0" mask="url(#path-4-inside-1_4755_48791)"/>
</g>
<g clip-path="url(#clip2_4755_48791)" filter="url(#filter1_d_4755_48791)">
<rect width="492.188" height="78.75" transform="translate(65 170.75)" fill="white"/>
<path d="M91.3991 221.125V198.216H99.1399C100.937 198.216 102.406 198.54 103.547 199.189C104.696 199.83 105.546 200.699 106.098 201.795C106.65 202.892 106.925 204.115 106.925 205.464C106.925 206.814 106.65 208.041 106.098 209.145C105.553 210.248 104.711 211.128 103.57 211.785C102.429 212.433 100.967 212.758 99.1847 212.758H93.6364V210.297H99.0952C100.326 210.297 101.314 210.084 102.059 209.659C102.805 209.234 103.346 208.66 103.681 207.937C104.025 207.206 104.196 206.382 104.196 205.464C104.196 204.547 104.025 203.727 103.681 203.004C103.346 202.28 102.801 201.713 102.048 201.303C101.295 200.886 100.296 200.677 99.0504 200.677H94.1733V221.125H91.3991ZM118.056 221.483C116.4 221.483 114.972 221.118 113.771 220.387C112.578 219.648 111.657 218.619 111.008 217.299C110.367 215.972 110.046 214.428 110.046 212.668C110.046 210.908 110.367 209.357 111.008 208.015C111.657 206.665 112.559 205.614 113.715 204.86C114.879 204.1 116.236 203.719 117.787 203.719C118.682 203.719 119.566 203.869 120.438 204.167C121.311 204.465 122.105 204.95 122.821 205.621C123.537 206.285 124.107 207.165 124.532 208.261C124.957 209.357 125.17 210.707 125.17 212.31V213.429H111.926V211.147H122.485C122.485 210.178 122.291 209.312 121.904 208.552C121.523 207.791 120.979 207.191 120.27 206.751C119.569 206.311 118.742 206.091 117.787 206.091C116.736 206.091 115.826 206.352 115.058 206.874C114.297 207.388 113.712 208.06 113.301 208.887C112.891 209.715 112.686 210.603 112.686 211.55V213.071C112.686 214.369 112.91 215.469 113.357 216.371C113.812 217.266 114.442 217.948 115.248 218.418C116.053 218.88 116.989 219.112 118.056 219.112C118.749 219.112 119.376 219.015 119.935 218.821C120.502 218.619 120.99 218.321 121.4 217.926C121.81 217.523 122.127 217.023 122.351 216.427L124.901 217.143C124.633 218.008 124.182 218.768 123.548 219.425C122.914 220.074 122.131 220.581 121.199 220.946C120.267 221.304 119.219 221.483 118.056 221.483ZM129.186 221.125V203.943H131.736V206.538H131.915C132.228 205.688 132.795 204.998 133.615 204.469C134.436 203.939 135.36 203.675 136.39 203.675C136.583 203.675 136.826 203.678 137.117 203.686C137.407 203.693 137.627 203.705 137.777 203.719V206.404C137.687 206.382 137.482 206.348 137.161 206.303C136.848 206.251 136.516 206.225 136.166 206.225C135.331 206.225 134.585 206.4 133.929 206.751C133.28 207.094 132.765 207.571 132.385 208.183C132.012 208.787 131.826 209.477 131.826 210.252V221.125H129.186ZM153.076 207.791L150.705 208.462C150.556 208.067 150.336 207.683 150.045 207.31C149.762 206.93 149.374 206.617 148.882 206.371C148.389 206.124 147.759 206.001 146.991 206.001C145.94 206.001 145.063 206.244 144.362 206.729C143.669 207.206 143.322 207.814 143.322 208.552C143.322 209.208 143.561 209.726 144.038 210.107C144.515 210.487 145.261 210.804 146.275 211.058L148.826 211.684C150.362 212.057 151.507 212.627 152.26 213.395C153.013 214.156 153.39 215.137 153.39 216.337C153.39 217.322 153.106 218.202 152.539 218.977C151.98 219.753 151.197 220.364 150.19 220.812C149.184 221.259 148.013 221.483 146.678 221.483C144.925 221.483 143.475 221.103 142.327 220.342C141.178 219.581 140.451 218.47 140.145 217.009L142.651 216.382C142.89 217.307 143.341 218 144.004 218.463C144.676 218.925 145.552 219.156 146.633 219.156C147.864 219.156 148.841 218.895 149.564 218.373C150.295 217.844 150.66 217.21 150.66 216.472C150.66 215.875 150.451 215.375 150.034 214.973C149.616 214.562 148.975 214.257 148.11 214.055L145.246 213.384C143.673 213.011 142.517 212.433 141.778 211.65C141.048 210.86 140.682 209.872 140.682 208.686C140.682 207.717 140.954 206.859 141.499 206.113C142.051 205.368 142.8 204.782 143.747 204.357C144.702 203.932 145.783 203.719 146.991 203.719C148.691 203.719 150.026 204.092 150.996 204.838C151.973 205.584 152.666 206.568 153.076 207.791ZM164.344 221.483C162.792 221.483 161.431 221.114 160.261 220.376C159.097 219.637 158.188 218.604 157.531 217.277C156.882 215.95 156.558 214.398 156.558 212.624C156.558 210.834 156.882 209.271 157.531 207.937C158.188 206.602 159.097 205.565 160.261 204.827C161.431 204.089 162.792 203.719 164.344 203.719C165.895 203.719 167.252 204.089 168.415 204.827C169.586 205.565 170.496 206.602 171.145 207.937C171.801 209.271 172.129 210.834 172.129 212.624C172.129 214.398 171.801 215.95 171.145 217.277C170.496 218.604 169.586 219.637 168.415 220.376C167.252 221.114 165.895 221.483 164.344 221.483ZM164.344 219.112C165.522 219.112 166.491 218.809 167.252 218.205C168.013 217.601 168.576 216.807 168.941 215.823C169.306 214.838 169.489 213.772 169.489 212.624C169.489 211.475 169.306 210.405 168.941 209.413C168.576 208.421 168.013 207.62 167.252 207.008C166.491 206.397 165.522 206.091 164.344 206.091C163.165 206.091 162.196 206.397 161.435 207.008C160.675 207.62 160.112 208.421 159.746 209.413C159.381 210.405 159.198 211.475 159.198 212.624C159.198 213.772 159.381 214.838 159.746 215.823C160.112 216.807 160.675 217.601 161.435 218.205C162.196 218.809 163.165 219.112 164.344 219.112ZM178.799 210.789V221.125H176.159V203.943H178.709V206.628H178.933C179.336 205.755 179.947 205.054 180.768 204.525C181.588 203.988 182.647 203.719 183.944 203.719C185.108 203.719 186.126 203.958 186.998 204.435C187.871 204.905 188.549 205.621 189.034 206.583C189.519 207.538 189.761 208.746 189.761 210.207V221.125H187.121V210.386C187.121 209.037 186.771 207.985 186.07 207.232C185.369 206.471 184.407 206.091 183.184 206.091C182.341 206.091 181.588 206.274 180.924 206.639C180.268 207.004 179.75 207.538 179.369 208.239C178.989 208.94 178.799 209.79 178.799 210.789ZM199.641 221.528C198.552 221.528 197.564 221.323 196.677 220.912C195.79 220.495 195.085 219.895 194.563 219.112C194.041 218.321 193.78 217.366 193.78 216.248C193.78 215.263 193.974 214.466 194.361 213.854C194.749 213.235 195.267 212.75 195.916 212.4C196.565 212.049 197.281 211.788 198.064 211.617C198.854 211.438 199.649 211.296 200.447 211.192C201.491 211.058 202.337 210.957 202.986 210.89C203.642 210.815 204.119 210.692 204.418 210.521C204.723 210.349 204.876 210.051 204.876 209.626V209.536C204.876 208.433 204.574 207.575 203.97 206.963C203.374 206.352 202.468 206.046 201.252 206.046C199.992 206.046 199.004 206.322 198.288 206.874C197.572 207.426 197.068 208.015 196.778 208.641L194.272 207.746C194.719 206.702 195.316 205.89 196.062 205.308C196.815 204.719 197.635 204.309 198.523 204.077C199.418 203.839 200.297 203.719 201.163 203.719C201.714 203.719 202.348 203.787 203.064 203.921C203.788 204.048 204.485 204.312 205.156 204.715C205.835 205.118 206.398 205.725 206.845 206.538C207.293 207.351 207.516 208.44 207.516 209.805V221.125H204.876V218.798H204.742C204.563 219.171 204.265 219.57 203.847 219.995C203.43 220.42 202.874 220.782 202.18 221.08C201.487 221.379 200.641 221.528 199.641 221.528ZM200.044 219.156C201.088 219.156 201.968 218.951 202.684 218.541C203.407 218.131 203.952 217.601 204.317 216.953C204.69 216.304 204.876 215.621 204.876 214.906V212.489C204.764 212.624 204.518 212.747 204.138 212.858C203.765 212.963 203.333 213.056 202.84 213.138C202.356 213.213 201.882 213.28 201.42 213.339C200.965 213.392 200.596 213.436 200.312 213.474C199.626 213.563 198.985 213.709 198.388 213.91C197.799 214.104 197.322 214.398 196.957 214.794C196.599 215.181 196.42 215.711 196.42 216.382C196.42 217.299 196.759 217.993 197.438 218.463C198.124 218.925 198.992 219.156 200.044 219.156ZM214.975 198.216V221.125H212.335V198.216H214.975ZM238.513 210.073V212.534H228.49V210.073H238.513Z" fill="#475467"/>
<path d="M258.874 223.989V195.352H260.709V223.989H258.874ZM264.613 204.234C264.493 203.175 264.001 202.355 263.136 201.773C262.271 201.184 261.182 200.889 259.87 200.889C258.93 200.889 258.117 201.039 257.431 201.337C256.745 201.628 256.212 202.03 255.832 202.545C255.459 203.052 255.272 203.63 255.272 204.279C255.272 204.823 255.399 205.293 255.653 205.688C255.914 206.083 256.253 206.415 256.671 206.684C257.096 206.945 257.551 207.165 258.035 207.344C258.52 207.515 258.986 207.657 259.434 207.769L261.671 208.35C262.402 208.529 263.151 208.772 263.919 209.078C264.687 209.383 265.4 209.786 266.056 210.286C266.712 210.785 267.242 211.404 267.644 212.143C268.054 212.881 268.259 213.765 268.259 214.794C268.259 216.091 267.924 217.243 267.253 218.25C266.589 219.257 265.623 220.051 264.356 220.633C263.095 221.214 261.57 221.505 259.78 221.505C258.065 221.505 256.581 221.233 255.328 220.689C254.076 220.144 253.095 219.373 252.386 218.373C251.678 217.366 251.286 216.173 251.212 214.794H254.68C254.747 215.621 255.015 216.311 255.485 216.863C255.962 217.407 256.57 217.814 257.308 218.082C258.054 218.343 258.871 218.474 259.758 218.474C260.735 218.474 261.604 218.321 262.364 218.015C263.133 217.702 263.737 217.27 264.177 216.718C264.617 216.158 264.837 215.506 264.837 214.76C264.837 214.081 264.643 213.526 264.255 213.093C263.875 212.661 263.356 212.303 262.7 212.02C262.051 211.736 261.317 211.486 260.496 211.27L257.789 210.532C255.955 210.032 254.501 209.298 253.427 208.328C252.36 207.359 251.827 206.076 251.827 204.48C251.827 203.16 252.185 202.008 252.901 201.024C253.617 200.039 254.586 199.275 255.809 198.73C257.032 198.179 258.412 197.903 259.948 197.903C261.499 197.903 262.868 198.175 264.053 198.719C265.247 199.264 266.186 200.013 266.872 200.968C267.558 201.915 267.916 203.004 267.946 204.234H264.613ZM280.768 198.216V221.125H277.301V201.684H277.166L271.685 205.263V201.952L277.401 198.216H280.768ZM286.965 221.125V218.619L294.717 210.588C295.545 209.715 296.227 208.951 296.764 208.295C297.309 207.631 297.715 207.001 297.984 206.404C298.252 205.808 298.386 205.174 298.386 204.502C298.386 203.742 298.207 203.086 297.849 202.534C297.491 201.974 297.003 201.546 296.384 201.247C295.765 200.942 295.068 200.789 294.292 200.789C293.472 200.789 292.756 200.956 292.145 201.292C291.533 201.628 291.063 202.101 290.735 202.713C290.407 203.324 290.243 204.04 290.243 204.86H286.943C286.943 203.466 287.264 202.247 287.905 201.203C288.546 200.159 289.426 199.349 290.545 198.775C291.664 198.194 292.935 197.903 294.359 197.903C295.799 197.903 297.066 198.19 298.163 198.764C299.266 199.331 300.128 200.106 300.747 201.091C301.366 202.068 301.675 203.171 301.675 204.402C301.675 205.252 301.515 206.083 301.194 206.896C300.881 207.709 300.333 208.615 299.55 209.615C298.767 210.606 297.678 211.811 296.283 213.228L291.731 217.993V218.161H302.044V221.125H286.965ZM315.054 197.142L307.671 224.57H304.684L312.067 197.142H315.054ZM317.895 221.125V203.943H321.105V206.74H321.318C321.676 205.793 322.261 205.054 323.074 204.525C323.887 203.988 324.86 203.719 325.994 203.719C327.142 203.719 328.104 203.988 328.88 204.525C329.663 205.062 330.241 205.8 330.613 206.74H330.792C331.203 205.822 331.855 205.092 332.75 204.547C333.645 203.995 334.711 203.719 335.949 203.719C337.508 203.719 338.779 204.208 339.764 205.185C340.756 206.162 341.251 207.635 341.251 209.603V221.125H337.907V209.917C337.907 208.753 337.59 207.911 336.956 207.388C336.322 206.866 335.565 206.605 334.685 206.605C333.596 206.605 332.75 206.941 332.146 207.612C331.542 208.276 331.24 209.13 331.24 210.174V221.125H327.906V209.704C327.906 208.772 327.616 208.022 327.034 207.456C326.452 206.889 325.695 206.605 324.763 206.605C324.129 206.605 323.544 206.773 323.007 207.109C322.477 207.437 322.049 207.896 321.721 208.485C321.4 209.074 321.24 209.756 321.24 210.532V221.125H317.895ZM352.972 221.472C351.361 221.472 349.955 221.103 348.754 220.364C347.554 219.626 346.622 218.593 345.958 217.266C345.294 215.938 344.962 214.387 344.962 212.612C344.962 210.83 345.294 209.271 345.958 207.937C346.622 206.602 347.554 205.565 348.754 204.827C349.955 204.089 351.361 203.719 352.972 203.719C354.582 203.719 355.988 204.089 357.189 204.827C358.389 205.565 359.322 206.602 359.985 207.937C360.649 209.271 360.981 210.83 360.981 212.612C360.981 214.387 360.649 215.938 359.985 217.266C359.322 218.593 358.389 219.626 357.189 220.364C355.988 221.103 354.582 221.472 352.972 221.472ZM352.983 218.664C354.027 218.664 354.892 218.388 355.578 217.836C356.264 217.284 356.771 216.55 357.099 215.633C357.435 214.715 357.603 213.705 357.603 212.601C357.603 211.505 357.435 210.498 357.099 209.581C356.771 208.656 356.264 207.914 355.578 207.355C354.892 206.796 354.027 206.516 352.983 206.516C351.931 206.516 351.059 206.796 350.365 207.355C349.679 207.914 349.168 208.656 348.833 209.581C348.505 210.498 348.341 211.505 348.341 212.601C348.341 213.705 348.505 214.715 348.833 215.633C349.168 216.55 349.679 217.284 350.365 217.836C351.059 218.388 351.931 218.664 352.983 218.664Z" fill="#101828"/>
</g>
<g clip-path="url(#clip3_4755_48791)" filter="url(#filter2_d_4755_48791)">
<rect width="492.188" height="78.75" transform="translate(65 249.5)" fill="white"/>
<path d="M91.3991 299.875V276.966H99.1399C100.937 276.966 102.406 277.29 103.547 277.939C104.696 278.58 105.546 279.449 106.098 280.545C106.65 281.642 106.925 282.865 106.925 284.214C106.925 285.564 106.65 286.791 106.098 287.895C105.553 288.998 104.711 289.878 103.57 290.535C102.429 291.183 100.967 291.508 99.1847 291.508H93.6364V289.047H99.0952C100.326 289.047 101.314 288.834 102.059 288.409C102.805 287.984 103.346 287.41 103.681 286.687C104.025 285.956 104.196 285.132 104.196 284.214C104.196 283.297 104.025 282.477 103.681 281.754C103.346 281.03 102.801 280.463 102.048 280.053C101.295 279.636 100.296 279.427 99.0504 279.427H94.1733V299.875H91.3991ZM111.036 299.875V282.693H113.587V285.288H113.766C114.079 284.438 114.646 283.748 115.466 283.219C116.286 282.689 117.211 282.425 118.24 282.425C118.434 282.425 118.676 282.428 118.967 282.436C119.258 282.443 119.478 282.455 119.627 282.469V285.154C119.538 285.132 119.333 285.098 119.012 285.053C118.699 285.001 118.367 284.975 118.016 284.975C117.181 284.975 116.435 285.15 115.779 285.501C115.13 285.844 114.616 286.321 114.236 286.933C113.863 287.537 113.676 288.227 113.676 289.002V299.875H111.036ZM129.214 300.233C127.663 300.233 126.302 299.864 125.131 299.126C123.967 298.387 123.058 297.354 122.401 296.027C121.753 294.7 121.428 293.148 121.428 291.374C121.428 289.584 121.753 288.021 122.401 286.687C123.058 285.352 123.967 284.315 125.131 283.577C126.302 282.839 127.663 282.469 129.214 282.469C130.765 282.469 132.122 282.839 133.285 283.577C134.456 284.315 135.366 285.352 136.015 286.687C136.671 288.021 136.999 289.584 136.999 291.374C136.999 293.148 136.671 294.7 136.015 296.027C135.366 297.354 134.456 298.387 133.285 299.126C132.122 299.864 130.765 300.233 129.214 300.233ZM129.214 297.862C130.392 297.862 131.361 297.559 132.122 296.955C132.883 296.351 133.446 295.557 133.811 294.573C134.177 293.588 134.359 292.522 134.359 291.374C134.359 290.225 134.177 289.155 133.811 288.163C133.446 287.171 132.883 286.37 132.122 285.758C131.361 285.147 130.392 284.841 129.214 284.841C128.035 284.841 127.066 285.147 126.305 285.758C125.545 286.37 124.982 287.171 124.616 288.163C124.251 289.155 124.068 290.225 124.068 291.374C124.068 292.522 124.251 293.588 124.616 294.573C124.982 295.557 125.545 296.351 126.305 296.955C127.066 297.559 128.035 297.862 129.214 297.862ZM159.732 288.823V291.284H149.709V288.823H159.732Z" fill="#475467"/>
<path d="M180.094 302.739V274.102H181.928V302.739H180.094ZM185.832 282.984C185.713 281.925 185.221 281.105 184.355 280.523C183.49 279.934 182.402 279.639 181.089 279.639C180.15 279.639 179.337 279.789 178.651 280.087C177.964 280.378 177.431 280.78 177.051 281.295C176.678 281.802 176.492 282.38 176.492 283.029C176.492 283.573 176.618 284.043 176.872 284.438C177.133 284.833 177.472 285.165 177.89 285.434C178.315 285.695 178.77 285.915 179.255 286.094C179.739 286.265 180.205 286.407 180.653 286.519L182.89 287.1C183.621 287.279 184.37 287.522 185.138 287.828C185.907 288.133 186.619 288.536 187.275 289.036C187.931 289.535 188.461 290.154 188.863 290.893C189.274 291.631 189.479 292.515 189.479 293.544C189.479 294.841 189.143 295.993 188.472 297C187.808 298.007 186.843 298.801 185.575 299.383C184.314 299.964 182.789 300.255 181 300.255C179.284 300.255 177.8 299.983 176.548 299.439C175.295 298.894 174.314 298.123 173.606 297.123C172.897 296.116 172.506 294.923 172.431 293.544H175.899C175.966 294.371 176.234 295.061 176.704 295.613C177.181 296.157 177.789 296.564 178.528 296.832C179.273 297.093 180.09 297.224 180.977 297.224C181.954 297.224 182.823 297.071 183.584 296.765C184.352 296.452 184.956 296.02 185.396 295.468C185.836 294.908 186.056 294.256 186.056 293.51C186.056 292.831 185.862 292.276 185.474 291.843C185.094 291.411 184.575 291.053 183.919 290.77C183.27 290.486 182.536 290.236 181.716 290.02L179.009 289.282C177.174 288.782 175.72 288.048 174.646 287.078C173.58 286.109 173.046 284.826 173.046 283.23C173.046 281.91 173.404 280.758 174.12 279.774C174.836 278.789 175.806 278.025 177.029 277.48C178.252 276.929 179.631 276.653 181.167 276.653C182.719 276.653 184.087 276.925 185.273 277.469C186.466 278.014 187.406 278.763 188.092 279.718C188.778 280.665 189.136 281.754 189.165 282.984H185.832ZM201.272 300.188C199.735 300.188 198.363 299.923 197.155 299.394C195.955 298.865 195.004 298.13 194.303 297.19C193.609 296.243 193.236 295.147 193.184 293.902H196.697C196.741 294.58 196.969 295.169 197.379 295.669C197.796 296.161 198.341 296.542 199.012 296.81C199.683 297.078 200.429 297.213 201.249 297.213C202.152 297.213 202.95 297.056 203.643 296.743C204.344 296.43 204.892 295.993 205.287 295.434C205.683 294.867 205.88 294.215 205.88 293.477C205.88 292.708 205.683 292.034 205.287 291.452C204.9 290.863 204.329 290.4 203.576 290.065C202.83 289.729 201.928 289.561 200.869 289.561H198.934V286.743H200.869C201.719 286.743 202.465 286.59 203.106 286.284C203.755 285.978 204.262 285.553 204.627 285.009C204.993 284.457 205.176 283.812 205.176 283.074C205.176 282.365 205.015 281.75 204.695 281.228C204.381 280.698 203.934 280.284 203.352 279.986C202.778 279.688 202.099 279.539 201.316 279.539C200.571 279.539 199.873 279.677 199.225 279.953C198.583 280.221 198.061 280.609 197.659 281.116C197.256 281.616 197.04 282.216 197.01 282.917H193.665C193.702 281.679 194.068 280.59 194.761 279.651C195.462 278.711 196.387 277.976 197.535 277.447C198.684 276.917 199.959 276.653 201.361 276.653C202.83 276.653 204.098 276.94 205.164 277.514C206.238 278.081 207.066 278.838 207.648 279.785C208.237 280.732 208.528 281.768 208.52 282.895C208.528 284.177 208.17 285.266 207.446 286.161C206.73 287.056 205.776 287.656 204.583 287.962V288.141C206.104 288.372 207.282 288.976 208.117 289.953C208.96 290.93 209.378 292.142 209.37 293.588C209.378 294.849 209.027 295.979 208.319 296.978C207.618 297.977 206.66 298.764 205.444 299.338C204.228 299.905 202.838 300.188 201.272 300.188ZM213.599 299.875V297.369L221.351 289.338C222.178 288.465 222.861 287.701 223.398 287.045C223.942 286.381 224.349 285.751 224.617 285.154C224.885 284.558 225.02 283.924 225.02 283.252C225.02 282.492 224.841 281.836 224.483 281.284C224.125 280.724 223.636 280.296 223.017 279.997C222.398 279.692 221.701 279.539 220.926 279.539C220.105 279.539 219.389 279.706 218.778 280.042C218.166 280.378 217.697 280.851 217.368 281.463C217.04 282.074 216.876 282.79 216.876 283.61H213.576C213.576 282.216 213.897 280.997 214.538 279.953C215.18 278.909 216.06 278.099 217.178 277.525C218.297 276.944 219.568 276.653 220.993 276.653C222.432 276.653 223.7 276.94 224.796 277.514C225.9 278.081 226.761 278.856 227.38 279.841C227.999 280.818 228.308 281.921 228.308 283.152C228.308 284.002 228.148 284.833 227.827 285.646C227.514 286.459 226.966 287.365 226.183 288.365C225.4 289.356 224.311 290.561 222.917 291.978L218.364 296.743V296.911H228.678V299.875H213.599ZM241.687 275.892L234.304 303.32H231.317L238.7 275.892H241.687ZM244.528 299.875V282.693H247.739V285.49H247.951C248.309 284.543 248.894 283.804 249.707 283.275C250.52 282.738 251.493 282.469 252.627 282.469C253.775 282.469 254.737 282.738 255.513 283.275C256.296 283.812 256.874 284.55 257.247 285.49H257.426C257.836 284.572 258.488 283.842 259.383 283.297C260.278 282.745 261.345 282.469 262.583 282.469C264.141 282.469 265.413 282.958 266.397 283.935C267.389 284.912 267.885 286.385 267.885 288.353V299.875H264.54V288.667C264.54 287.503 264.223 286.661 263.589 286.138C262.955 285.616 262.198 285.355 261.318 285.355C260.23 285.355 259.383 285.691 258.779 286.362C258.175 287.026 257.873 287.88 257.873 288.924V299.875H254.54V288.454C254.54 287.522 254.249 286.772 253.667 286.206C253.086 285.639 252.329 285.355 251.396 285.355C250.763 285.355 250.177 285.523 249.64 285.859C249.111 286.187 248.682 286.646 248.354 287.235C248.033 287.824 247.873 288.506 247.873 289.282V299.875H244.528ZM279.605 300.222C277.994 300.222 276.588 299.853 275.388 299.114C274.187 298.376 273.255 297.343 272.591 296.016C271.928 294.688 271.596 293.137 271.596 291.362C271.596 289.58 271.928 288.021 272.591 286.687C273.255 285.352 274.187 284.315 275.388 283.577C276.588 282.839 277.994 282.469 279.605 282.469C281.216 282.469 282.621 282.839 283.822 283.577C285.023 284.315 285.955 285.352 286.619 286.687C287.282 288.021 287.614 289.58 287.614 291.362C287.614 293.137 287.282 294.688 286.619 296.016C285.955 297.343 285.023 298.376 283.822 299.114C282.621 299.853 281.216 300.222 279.605 300.222ZM279.616 297.414C280.66 297.414 281.525 297.138 282.211 296.586C282.897 296.034 283.404 295.3 283.733 294.383C284.068 293.465 284.236 292.455 284.236 291.351C284.236 290.255 284.068 289.248 283.733 288.331C283.404 287.406 282.897 286.664 282.211 286.105C281.525 285.546 280.66 285.266 279.616 285.266C278.565 285.266 277.692 285.546 276.999 286.105C276.313 286.664 275.802 287.406 275.466 288.331C275.138 289.248 274.974 290.255 274.974 291.351C274.974 292.455 275.138 293.465 275.466 294.383C275.802 295.3 276.313 296.034 276.999 296.586C277.692 297.138 278.565 297.414 279.616 297.414Z" fill="#101828"/>
</g>
<g clip-path="url(#clip4_4755_48791)" filter="url(#filter3_d_4755_48791)">
<rect width="492.188" height="78.75" transform="translate(65 328.25)" fill="white"/>
<path d="M91.3991 378.625V355.716H99.4084C101.004 355.716 102.32 355.992 103.357 356.544C104.394 357.088 105.165 357.823 105.673 358.747C106.18 359.665 106.433 360.683 106.433 361.801C106.433 362.786 106.258 363.598 105.907 364.24C105.564 364.881 105.11 365.388 104.543 365.761C103.983 366.134 103.376 366.41 102.719 366.589V366.812C103.42 366.857 104.125 367.103 104.834 367.551C105.542 367.998 106.135 368.64 106.612 369.475C107.089 370.31 107.328 371.332 107.328 372.54C107.328 373.688 107.067 374.721 106.545 375.638C106.023 376.556 105.199 377.283 104.073 377.82C102.947 378.357 101.482 378.625 99.6768 378.625H91.3991ZM94.1733 376.164H99.6768C101.489 376.164 102.775 375.814 103.536 375.113C104.304 374.404 104.688 373.547 104.688 372.54C104.688 371.764 104.491 371.048 104.095 370.392C103.7 369.728 103.137 369.199 102.406 368.804C101.675 368.401 100.81 368.2 99.8111 368.2H94.1733V376.164ZM94.1733 365.783H99.3189C100.154 365.783 100.907 365.619 101.578 365.291C102.257 364.963 102.794 364.501 103.189 363.904C103.592 363.308 103.793 362.607 103.793 361.801C103.793 360.794 103.443 359.941 102.742 359.24C102.041 358.531 100.93 358.177 99.4084 358.177H94.1733V365.783ZM122.357 371.6V361.443H124.997V378.625H122.357V375.717H122.178C121.775 376.589 121.149 377.331 120.298 377.943C119.448 378.547 118.374 378.849 117.077 378.849C116.003 378.849 115.048 378.614 114.213 378.144C113.378 377.667 112.722 376.951 112.244 375.996C111.767 375.034 111.528 373.822 111.528 372.361V361.443H114.168V372.182C114.168 373.435 114.519 374.434 115.22 375.18C115.928 375.925 116.831 376.298 117.927 376.298C118.583 376.298 119.251 376.131 119.929 375.795C120.615 375.459 121.19 374.945 121.652 374.251C122.122 373.558 122.357 372.674 122.357 371.6ZM142.002 365.291L139.631 365.962C139.482 365.567 139.262 365.183 138.971 364.81C138.687 364.43 138.3 364.117 137.807 363.871C137.315 363.624 136.685 363.501 135.917 363.501C134.865 363.501 133.989 363.744 133.288 364.229C132.595 364.706 132.248 365.314 132.248 366.052C132.248 366.708 132.487 367.226 132.964 367.607C133.441 367.987 134.187 368.304 135.201 368.558L137.751 369.184C139.288 369.557 140.432 370.127 141.186 370.895C141.939 371.656 142.315 372.637 142.315 373.837C142.315 374.822 142.032 375.702 141.465 376.477C140.906 377.253 140.123 377.864 139.116 378.312C138.109 378.759 136.939 378.983 135.604 378.983C133.851 378.983 132.401 378.603 131.252 377.842C130.104 377.081 129.377 375.97 129.071 374.509L131.577 373.882C131.815 374.807 132.267 375.5 132.93 375.963C133.601 376.425 134.478 376.656 135.559 376.656C136.789 376.656 137.766 376.395 138.49 375.873C139.221 375.344 139.586 374.71 139.586 373.972C139.586 373.375 139.377 372.875 138.96 372.473C138.542 372.062 137.901 371.757 137.036 371.555L134.172 370.884C132.598 370.511 131.443 369.933 130.704 369.15C129.973 368.36 129.608 367.372 129.608 366.186C129.608 365.217 129.88 364.359 130.425 363.613C130.976 362.868 131.726 362.282 132.673 361.857C133.628 361.432 134.709 361.219 135.917 361.219C137.617 361.219 138.952 361.592 139.922 362.338C140.898 363.084 141.592 364.068 142.002 365.291ZM146.289 378.625V361.443H148.929V378.625H146.289ZM147.632 358.58C147.117 358.58 146.673 358.404 146.3 358.054C145.935 357.703 145.752 357.282 145.752 356.79C145.752 356.298 145.935 355.876 146.3 355.526C146.673 355.175 147.117 355 147.632 355C148.146 355 148.586 355.175 148.952 355.526C149.324 355.876 149.511 356.298 149.511 356.79C149.511 357.282 149.324 357.703 148.952 358.054C148.586 358.404 148.146 358.58 147.632 358.58ZM156.404 368.289V378.625H153.764V361.443H156.315V364.128H156.538C156.941 363.255 157.553 362.554 158.373 362.025C159.193 361.488 160.252 361.219 161.55 361.219C162.713 361.219 163.731 361.458 164.604 361.935C165.476 362.405 166.155 363.121 166.64 364.083C167.124 365.038 167.367 366.246 167.367 367.707V378.625H164.727V367.886C164.727 366.537 164.376 365.485 163.675 364.732C162.974 363.971 162.012 363.591 160.789 363.591C159.947 363.591 159.193 363.774 158.53 364.139C157.873 364.504 157.355 365.038 156.975 365.739C156.594 366.44 156.404 367.29 156.404 368.289ZM179.394 378.983C177.739 378.983 176.311 378.618 175.11 377.887C173.917 377.148 172.996 376.119 172.347 374.799C171.706 373.472 171.385 371.928 171.385 370.168C171.385 368.408 171.706 366.857 172.347 365.515C172.996 364.165 173.898 363.114 175.054 362.36C176.218 361.6 177.575 361.219 179.126 361.219C180.021 361.219 180.905 361.369 181.777 361.667C182.65 361.965 183.444 362.45 184.16 363.121C184.876 363.785 185.446 364.665 185.871 365.761C186.296 366.857 186.509 368.207 186.509 369.81V370.929H173.264V368.647H183.824C183.824 367.678 183.63 366.812 183.242 366.052C182.862 365.291 182.318 364.691 181.609 364.251C180.908 363.811 180.081 363.591 179.126 363.591C178.074 363.591 177.165 363.852 176.397 364.374C175.636 364.888 175.051 365.56 174.64 366.387C174.23 367.215 174.025 368.103 174.025 369.05V370.571C174.025 371.869 174.249 372.969 174.696 373.871C175.151 374.766 175.781 375.448 176.587 375.918C177.392 376.38 178.328 376.612 179.394 376.612C180.088 376.612 180.714 376.515 181.274 376.321C181.84 376.119 182.329 375.821 182.739 375.426C183.149 375.023 183.466 374.523 183.69 373.927L186.24 374.643C185.972 375.508 185.521 376.268 184.887 376.925C184.253 377.574 183.47 378.081 182.538 378.446C181.606 378.804 180.558 378.983 179.394 378.983ZM202.695 365.291L200.324 365.962C200.174 365.567 199.954 365.183 199.664 364.81C199.38 364.43 198.992 364.117 198.5 363.871C198.008 363.624 197.378 363.501 196.61 363.501C195.558 363.501 194.682 363.744 193.981 364.229C193.288 364.706 192.941 365.314 192.941 366.052C192.941 366.708 193.179 367.226 193.657 367.607C194.134 367.987 194.88 368.304 195.894 368.558L198.444 369.184C199.981 369.557 201.125 370.127 201.878 370.895C202.632 371.656 203.008 372.637 203.008 373.837C203.008 374.822 202.725 375.702 202.158 376.477C201.599 377.253 200.816 377.864 199.809 378.312C198.802 378.759 197.631 378.983 196.297 378.983C194.544 378.983 193.094 378.603 191.945 377.842C190.797 377.081 190.07 375.97 189.764 374.509L192.27 373.882C192.508 374.807 192.959 375.5 193.623 375.963C194.294 376.425 195.171 376.656 196.252 376.656C197.482 376.656 198.459 376.395 199.183 375.873C199.913 375.344 200.279 374.71 200.279 373.972C200.279 373.375 200.07 372.875 199.652 372.473C199.235 372.062 198.593 371.757 197.728 371.555L194.865 370.884C193.291 370.511 192.135 369.933 191.397 369.15C190.666 368.36 190.301 367.372 190.301 366.186C190.301 365.217 190.573 364.359 191.117 363.613C191.669 362.868 192.419 362.282 193.366 361.857C194.32 361.432 195.402 361.219 196.61 361.219C198.31 361.219 199.645 361.592 200.614 362.338C201.591 363.084 202.285 364.068 202.695 365.291ZM219.153 365.291L216.781 365.962C216.632 365.567 216.412 365.183 216.121 364.81C215.838 364.43 215.45 364.117 214.958 363.871C214.466 363.624 213.835 363.501 213.067 363.501C212.016 363.501 211.14 363.744 210.439 364.229C209.745 364.706 209.398 365.314 209.398 366.052C209.398 366.708 209.637 367.226 210.114 367.607C210.591 367.987 211.337 368.304 212.351 368.558L214.902 369.184C216.438 369.557 217.583 370.127 218.336 370.895C219.089 371.656 219.466 372.637 219.466 373.837C219.466 374.822 219.182 375.702 218.616 376.477C218.056 377.253 217.273 377.864 216.267 378.312C215.26 378.759 214.089 378.983 212.754 378.983C211.002 378.983 209.551 378.603 208.403 377.842C207.254 377.081 206.527 375.97 206.221 374.509L208.727 373.882C208.966 374.807 209.417 375.5 210.081 375.963C210.752 376.425 211.628 376.656 212.709 376.656C213.94 376.656 214.917 376.395 215.64 375.873C216.371 375.344 216.736 374.71 216.736 373.972C216.736 373.375 216.528 372.875 216.11 372.473C215.692 372.062 215.051 371.757 214.186 371.555L211.322 370.884C209.749 370.511 208.593 369.933 207.855 369.15C207.124 368.36 206.758 367.372 206.758 366.186C206.758 365.217 207.031 364.359 207.575 363.613C208.127 362.868 208.876 362.282 209.823 361.857C210.778 361.432 211.859 361.219 213.067 361.219C214.768 361.219 216.102 361.592 217.072 362.338C218.049 363.084 218.742 364.068 219.153 365.291ZM242.143 367.573V370.034H232.12V367.573H242.143Z" fill="#475467"/>
<path d="M262.504 381.489V352.852H264.339V381.489H262.504ZM268.243 361.734C268.123 360.675 267.631 359.855 266.766 359.273C265.901 358.684 264.812 358.389 263.5 358.389C262.56 358.389 261.747 358.539 261.061 358.837C260.375 359.128 259.842 359.53 259.462 360.045C259.089 360.552 258.902 361.13 258.902 361.779C258.902 362.323 259.029 362.793 259.283 363.188C259.544 363.583 259.883 363.915 260.301 364.184C260.726 364.445 261.181 364.665 261.665 364.844C262.15 365.015 262.616 365.157 263.064 365.269L265.301 365.85C266.032 366.029 266.781 366.272 267.549 366.578C268.317 366.883 269.029 367.286 269.686 367.786C270.342 368.285 270.871 368.904 271.274 369.643C271.684 370.381 271.889 371.265 271.889 372.294C271.889 373.591 271.554 374.743 270.883 375.75C270.219 376.757 269.253 377.551 267.985 378.133C266.725 378.714 265.2 379.005 263.41 379.005C261.695 379.005 260.211 378.733 258.958 378.189C257.705 377.644 256.725 376.873 256.016 375.873C255.308 374.866 254.916 373.673 254.842 372.294H258.309C258.377 373.121 258.645 373.811 259.115 374.363C259.592 374.907 260.2 375.314 260.938 375.582C261.684 375.843 262.5 375.974 263.388 375.974C264.365 375.974 265.234 375.821 265.994 375.515C266.762 375.202 267.366 374.77 267.806 374.218C268.246 373.658 268.466 373.006 268.466 372.26C268.466 371.581 268.273 371.026 267.885 370.593C267.504 370.161 266.986 369.803 266.33 369.52C265.681 369.236 264.947 368.986 264.126 368.77L261.419 368.032C259.585 367.532 258.13 366.798 257.057 365.828C255.99 364.859 255.457 363.576 255.457 361.98C255.457 360.66 255.815 359.508 256.531 358.524C257.247 357.539 258.216 356.775 259.439 356.23C260.662 355.679 262.042 355.403 263.578 355.403C265.129 355.403 266.498 355.675 267.683 356.219C268.877 356.764 269.816 357.513 270.502 358.468C271.188 359.415 271.546 360.504 271.576 361.734H268.243ZM275.226 374.151V371.354L285.125 355.716H287.329V359.832H285.931L278.85 371.041V371.22H292.419V374.151H275.226ZM286.087 378.625V373.3L286.11 372.025V355.716H289.387V378.625H286.087ZM303.879 378.938C302.477 378.938 301.216 378.67 300.098 378.133C298.987 377.588 298.099 376.843 297.436 375.896C296.772 374.949 296.418 373.867 296.373 372.652H299.729C299.811 373.636 300.247 374.445 301.037 375.079C301.828 375.713 302.775 376.03 303.879 376.03C304.759 376.03 305.538 375.828 306.217 375.426C306.903 375.016 307.44 374.453 307.827 373.737C308.223 373.021 308.42 372.204 308.42 371.287C308.42 370.355 308.219 369.523 307.816 368.792C307.414 368.062 306.858 367.487 306.15 367.07C305.449 366.652 304.643 366.44 303.733 366.432C303.04 366.432 302.343 366.551 301.642 366.79C300.941 367.029 300.374 367.342 299.941 367.73L296.776 367.26L298.062 355.716H310.657V358.68H300.937L300.21 365.09H300.344C300.791 364.657 301.384 364.296 302.123 364.005C302.868 363.714 303.666 363.569 304.516 363.569C305.911 363.569 307.153 363.9 308.241 364.564C309.338 365.228 310.199 366.134 310.825 367.282C311.459 368.423 311.772 369.736 311.765 371.22C311.772 372.704 311.437 374.028 310.758 375.191C310.087 376.354 309.155 377.271 307.962 377.943C306.776 378.606 305.415 378.938 303.879 378.938ZM324.621 354.642L317.238 382.07H314.251L321.634 354.642H324.621ZM327.462 378.625V361.443H330.672V364.24H330.885C331.243 363.293 331.828 362.554 332.641 362.025C333.454 361.488 334.427 361.219 335.561 361.219C336.709 361.219 337.671 361.488 338.447 362.025C339.23 362.562 339.807 363.3 340.18 364.24H340.359C340.769 363.322 341.422 362.592 342.317 362.047C343.212 361.495 344.278 361.219 345.516 361.219C347.075 361.219 348.346 361.708 349.331 362.685C350.322 363.662 350.818 365.135 350.818 367.103V378.625H347.474V367.417C347.474 366.253 347.157 365.411 346.523 364.888C345.889 364.366 345.132 364.105 344.252 364.105C343.163 364.105 342.317 364.441 341.713 365.112C341.109 365.776 340.807 366.63 340.807 367.674V378.625H337.473V367.204C337.473 366.272 337.182 365.522 336.601 364.956C336.019 364.389 335.262 364.105 334.33 364.105C333.696 364.105 333.111 364.273 332.574 364.609C332.044 364.937 331.616 365.396 331.287 365.985C330.967 366.574 330.806 367.256 330.806 368.032V378.625H327.462ZM362.539 378.972C360.928 378.972 359.522 378.603 358.321 377.864C357.121 377.126 356.189 376.093 355.525 374.766C354.861 373.438 354.529 371.887 354.529 370.112C354.529 368.33 354.861 366.771 355.525 365.437C356.189 364.102 357.121 363.065 358.321 362.327C359.522 361.589 360.928 361.219 362.539 361.219C364.149 361.219 365.555 361.589 366.756 362.327C367.956 363.065 368.888 364.102 369.552 365.437C370.216 366.771 370.548 368.33 370.548 370.112C370.548 371.887 370.216 373.438 369.552 374.766C368.888 376.093 367.956 377.126 366.756 377.864C365.555 378.603 364.149 378.972 362.539 378.972ZM362.55 376.164C363.594 376.164 364.459 375.888 365.145 375.336C365.831 374.784 366.338 374.05 366.666 373.133C367.002 372.215 367.17 371.205 367.17 370.101C367.17 369.005 367.002 367.998 366.666 367.081C366.338 366.156 365.831 365.414 365.145 364.855C364.459 364.296 363.594 364.016 362.55 364.016C361.498 364.016 360.626 364.296 359.932 364.855C359.246 365.414 358.735 366.156 358.4 367.081C358.072 367.998 357.907 369.005 357.907 370.101C357.907 371.205 358.072 372.215 358.4 373.133C358.735 374.05 359.246 374.784 359.932 375.336C360.626 375.888 361.498 376.164 362.55 376.164Z" fill="#101828"/>
</g>
</g>
<rect x="65.9844" y="92.9844" width="490.219" height="313.031" rx="6.89062" stroke="#D0D5DD" stroke-width="1.96875"/>
<defs>
<filter id="filter0_d_4755_48791" x="61.0625" y="90.0312" width="500.062" height="86.625" filterUnits="userSpaceOnUse" color-interpolation-filters="sRGB">
<feFlood flood-opacity="0" result="BackgroundImageFix"/>
<feColorMatrix in="SourceAlpha" type="matrix" values="0 0 0 0 0 0 0 0 0 0 0 0 0 0 0 0 0 0 127 0" result="hardAlpha"/>
<feOffset dy="1.96875"/>
<feGaussianBlur stdDeviation="1.96875"/>
<feColorMatrix type="matrix" values="0 0 0 0 0.0627451 0 0 0 0 0.0941176 0 0 0 0 0.156863 0 0 0 0.05 0"/>
<feBlend mode="normal" in2="BackgroundImageFix" result="effect1_dropShadow_4755_48791"/>
<feBlend mode="normal" in="SourceGraphic" in2="effect1_dropShadow_4755_48791" result="shape"/>
</filter>
<filter id="filter1_d_4755_48791" x="61.0625" y="168.781" width="500.062" height="86.625" filterUnits="userSpaceOnUse" color-interpolation-filters="sRGB">
<feFlood flood-opacity="0" result="BackgroundImageFix"/>
<feColorMatrix in="SourceAlpha" type="matrix" values="0 0 0 0 0 0 0 0 0 0 0 0 0 0 0 0 0 0 127 0" result="hardAlpha"/>
<feOffset dy="1.96875"/>
<feGaussianBlur stdDeviation="1.96875"/>
<feColorMatrix type="matrix" values="0 0 0 0 0.0627451 0 0 0 0 0.0941176 0 0 0 0 0.156863 0 0 0 0.05 0"/>
<feBlend mode="normal" in2="BackgroundImageFix" result="effect1_dropShadow_4755_48791"/>
<feBlend mode="normal" in="SourceGraphic" in2="effect1_dropShadow_4755_48791" result="shape"/>
</filter>
<filter id="filter2_d_4755_48791" x="61.0625" y="247.531" width="500.062" height="86.625" filterUnits="userSpaceOnUse" color-interpolation-filters="sRGB">
<feFlood flood-opacity="0" result="BackgroundImageFix"/>
<feColorMatrix in="SourceAlpha" type="matrix" values="0 0 0 0 0 0 0 0 0 0 0 0 0 0 0 0 0 0 127 0" result="hardAlpha"/>
<feOffset dy="1.96875"/>
<feGaussianBlur stdDeviation="1.96875"/>
<feColorMatrix type="matrix" values="0 0 0 0 0.0627451 0 0 0 0 0.0941176 0 0 0 0 0.156863 0 0 0 0.05 0"/>
<feBlend mode="normal" in2="BackgroundImageFix" result="effect1_dropShadow_4755_48791"/>
<feBlend mode="normal" in="SourceGraphic" in2="effect1_dropShadow_4755_48791" result="shape"/>
</filter>
<filter id="filter3_d_4755_48791" x="61.0625" y="326.281" width="500.062" height="86.625" filterUnits="userSpaceOnUse" color-interpolation-filters="sRGB">
<feFlood flood-opacity="0" result="BackgroundImageFix"/>
<feColorMatrix in="SourceAlpha" type="matrix" values="0 0 0 0 0 0 0 0 0 0 0 0 0 0 0 0 0 0 127 0" result="hardAlpha"/>
<feOffset dy="1.96875"/>
<feGaussianBlur stdDeviation="1.96875"/>
<feColorMatrix type="matrix" values="0 0 0 0 0.0627451 0 0 0 0 0.0941176 0 0 0 0 0.156863 0 0 0 0.05 0"/>
<feBlend mode="normal" in2="BackgroundImageFix" result="effect1_dropShadow_4755_48791"/>
<feBlend mode="normal" in="SourceGraphic" in2="effect1_dropShadow_4755_48791" result="shape"/>
</filter>
<clipPath id="clip0_4755_48791">
<rect x="65" y="92" width="492.188" height="315" rx="7.875" fill="white"/>
</clipPath>
<clipPath id="clip1_4755_48791">
<path d="M65 92H557.188V170.75H65V92Z" fill="white"/>
</clipPath>
<clipPath id="clip2_4755_48791">
<rect width="492.188" height="78.75" fill="white" transform="translate(65 170.75)"/>
</clipPath>
<clipPath id="clip3_4755_48791">
<rect width="492.188" height="78.75" fill="white" transform="translate(65 249.5)"/>
</clipPath>
<clipPath id="clip4_4755_48791">
<rect width="492.188" height="78.75" fill="white" transform="translate(65 328.25)"/>
</clipPath>
</defs>
</svg>
