<svg width="388" height="204" viewBox="0 0 388 204" fill="none" xmlns="http://www.w3.org/2000/svg">
<g clip-path="url(#clip0_453_3025)">
<rect width="388" height="204" fill="#F3F3F3"/>
<g opacity="0.5" filter="url(#filter0_ddd_453_3025)">
<path d="M394.313 -40.4149C396.822 -44.0518 401.804 -44.9661 405.441 -42.4572L503.394 25.1164C507.03 27.6253 507.945 32.6074 505.436 36.2443L423.666 154.776C421.157 158.413 416.175 159.327 412.538 156.818L314.585 89.2443C310.948 86.7354 310.034 81.7533 312.543 78.1165L394.313 -40.4149Z" fill="white"/>
<rect x="374.812" y="38.7734" width="69" height="7" rx="3.5" transform="rotate(34.6002 374.812 38.7734)" fill="#C1B4E6"/>
<rect x="366.295" y="51.1201" width="69" height="8" rx="4" transform="rotate(34.6002 366.295 51.1201)" fill="#C1B4E6"/>
<rect x="345.698" y="64.2463" width="19" height="7" rx="3.5" transform="rotate(34.6002 345.698 64.2463)" stroke="#4F3895"/>
<path d="M394.313 -40.4149C399.017 -47.234 408.358 -48.9484 415.177 -44.2443L501.607 15.3796C508.426 20.0838 510.14 29.4252 505.436 36.2443C505.75 35.7897 503.056 33.3873 499.419 30.8784L401.466 -36.6953C397.829 -39.2042 394.626 -40.8695 394.313 -40.4149ZM419.123 161.361L308 84.7016L419.123 161.361ZM308 84.7016L398.855 -47L308 84.7016ZM509.979 29.6592L419.123 161.361L509.979 29.6592Z" fill="#FDE7FD"/>
</g>
<g opacity="0.5" filter="url(#filter1_ddd_453_3025)">
<rect x="-111" y="64.2617" width="135" height="160" rx="8" transform="rotate(-34.3957 -111 64.2617)" fill="white"/>
<rect x="-59.4785" y="81.1016" width="69" height="7" rx="3.5" transform="rotate(-34.3957 -59.4785 81.1016)" fill="#C1B4E6"/>
<rect x="-51.0059" y="93.4785" width="69" height="8" rx="4" transform="rotate(-34.3957 -51.0059 93.4785)" fill="#C1B4E6"/>
<rect x="-41.9668" y="106.682" width="69" height="8" rx="4" transform="rotate(-34.3957 -41.9668 106.682)" fill="#C1B4E6"/>
<rect x="-32.9277" y="119.884" width="69" height="7" rx="3.5" transform="rotate(-34.3957 -32.9277 119.884)" fill="#C1B4E6"/>
<rect x="-24.4551" y="132.261" width="69" height="7" rx="3.5" transform="rotate(-34.3957 -24.4551 132.261)" fill="#C1B4E6"/>
<rect x="-1.12891" y="134.471" width="33" height="12" rx="6" transform="rotate(-34.3957 -1.12891 134.471)" fill="#4F3895"/>
</g>
<path d="M91.5742 56.2344C91.5742 55.5391 91.707 54.8867 91.9727 54.2773C92.2383 53.668 92.5977 53.1367 93.0508 52.6836C93.5117 52.2227 94.0469 51.8594 94.6562 51.5938C95.2656 51.3281 95.918 51.1953 96.6133 51.1953H104.324V54.5586H96.6133C96.3789 54.5586 96.1602 54.6016 95.957 54.6875C95.7539 54.7734 95.5742 54.8945 95.418 55.0508C95.2695 55.1992 95.1523 55.375 95.0664 55.5781C94.9805 55.7812 94.9375 56 94.9375 56.2344C94.9375 56.4688 94.9805 56.6914 95.0664 56.9023C95.1523 57.1055 95.2695 57.2852 95.418 57.4414C95.5742 57.5898 95.7539 57.707 95.957 57.793C96.1602 57.8789 96.3789 57.9219 96.6133 57.9219H99.9766C100.672 57.9219 101.324 58.0547 101.934 58.3203C102.551 58.5781 103.086 58.9375 103.539 59.3984C104 59.8516 104.359 60.3867 104.617 61.0039C104.883 61.6133 105.016 62.2656 105.016 62.9609C105.016 63.6562 104.883 64.3086 104.617 64.918C104.359 65.5273 104 66.0625 103.539 66.5234C103.086 66.9766 102.551 67.3359 101.934 67.6016C101.324 67.8672 100.672 68 99.9766 68H92.5117V64.6367H99.9766C100.211 64.6367 100.43 64.5938 100.633 64.5078C100.836 64.4219 101.012 64.3047 101.16 64.1562C101.316 64 101.438 63.8203 101.523 63.6172C101.609 63.4141 101.652 63.1953 101.652 62.9609C101.652 62.7266 101.609 62.5078 101.523 62.3047C101.438 62.1016 101.316 61.9258 101.16 61.7773C101.012 61.6211 100.836 61.5 100.633 61.4141C100.43 61.3281 100.211 61.2852 99.9766 61.2852H96.6133C95.918 61.2852 95.2656 61.1523 94.6562 60.8867C94.0469 60.6211 93.5117 60.2617 93.0508 59.8086C92.5977 59.3477 92.2383 58.8125 91.9727 58.2031C91.707 57.5859 91.5742 56.9297 91.5742 56.2344ZM111.144 52.0391C111.144 52.3359 111.085 52.6133 110.968 52.8711C110.859 53.1289 110.707 53.3555 110.511 53.5508C110.316 53.7383 110.085 53.8906 109.82 54.0078C109.562 54.1172 109.285 54.1719 108.988 54.1719C108.691 54.1719 108.41 54.1172 108.144 54.0078C107.886 53.8906 107.66 53.7383 107.464 53.5508C107.277 53.3555 107.125 53.1289 107.007 52.8711C106.898 52.6133 106.843 52.3359 106.843 52.0391C106.843 51.75 106.898 51.4766 107.007 51.2188C107.125 50.9531 107.277 50.7266 107.464 50.5391C107.66 50.3438 107.886 50.1914 108.144 50.082C108.41 49.9648 108.691 49.9062 108.988 49.9062C109.285 49.9062 109.562 49.9648 109.82 50.082C110.085 50.1914 110.316 50.3438 110.511 50.5391C110.707 50.7266 110.859 50.9531 110.968 51.2188C111.085 51.4766 111.144 51.75 111.144 52.0391ZM110.593 68H107.371V55.4492H110.593V68ZM116.722 68H113.522V55.4492H114.296L115.351 56.668C115.866 56.1992 116.448 55.8398 117.097 55.5898C117.753 55.332 118.437 55.2031 119.147 55.2031C119.913 55.2031 120.636 55.3516 121.315 55.6484C121.995 55.9375 122.589 56.3398 123.097 56.8555C123.605 57.3633 124.003 57.9609 124.292 58.6484C124.589 59.3281 124.737 60.0547 124.737 60.8281V68H121.538V60.8281C121.538 60.5 121.476 60.1914 121.351 59.9023C121.226 59.6055 121.054 59.3477 120.835 59.1289C120.616 58.9102 120.362 58.7383 120.073 58.6133C119.784 58.4883 119.476 58.4258 119.147 58.4258C118.812 58.4258 118.495 58.4883 118.198 58.6133C117.901 58.7383 117.644 58.9102 117.425 59.1289C117.206 59.3477 117.034 59.6055 116.909 59.9023C116.784 60.1914 116.722 60.5 116.722 60.8281V68ZM136.432 61.6133C136.432 61.1758 136.346 60.7539 136.174 60.3477C136.01 59.9336 135.784 59.5703 135.495 59.2578C135.206 58.9375 134.866 58.6836 134.475 58.4961C134.092 58.3008 133.682 58.2031 133.245 58.2031C132.807 58.2031 132.393 58.2773 132.002 58.4258C131.62 58.5742 131.284 58.793 130.995 59.082C130.713 59.3711 130.491 59.7305 130.327 60.1602C130.163 60.582 130.081 61.0664 130.081 61.6133C130.081 62.1367 130.163 62.6094 130.327 63.0312C130.491 63.4453 130.713 63.8008 130.995 64.0977C131.284 64.3945 131.62 64.625 132.002 64.7891C132.393 64.9453 132.807 65.0234 133.245 65.0234C133.682 65.0234 134.092 64.9297 134.475 64.7422C134.866 64.5469 135.206 64.293 135.495 63.9805C135.784 63.6602 136.01 63.2969 136.174 62.8906C136.346 62.4766 136.432 62.0508 136.432 61.6133ZM139.655 66.418C139.655 67.3008 139.487 68.1289 139.151 68.9023C138.815 69.6758 138.354 70.3516 137.768 70.9297C137.19 71.5078 136.51 71.9648 135.729 72.3008C134.956 72.6367 134.127 72.8047 133.245 72.8047L131.639 72.7812V69.582L133.221 69.6055C133.721 69.6055 134.147 69.5391 134.499 69.4062C134.85 69.2812 135.147 69.1055 135.389 68.8789C135.631 68.6602 135.823 68.4062 135.963 68.1172C136.112 67.8281 136.229 67.5234 136.315 67.2031C136.19 67.4062 136.01 67.5742 135.776 67.707C135.542 67.832 135.28 67.9336 134.991 68.0117C134.71 68.0977 134.413 68.1562 134.1 68.1875C133.795 68.2188 133.51 68.2344 133.245 68.2344C132.362 68.2344 131.53 68.082 130.749 67.7773C129.975 67.4727 129.295 67.0391 128.71 66.4766C128.131 65.9062 127.674 65.2109 127.338 64.3906C127.002 63.5703 126.835 62.6445 126.835 61.6133C126.835 60.668 127.002 59.7891 127.338 58.9766C127.674 58.1641 128.131 57.4609 128.71 56.8672C129.295 56.2734 129.975 55.8086 130.749 55.4727C131.53 55.1367 132.362 54.9688 133.245 54.9688C133.651 54.9688 134.053 55.0195 134.452 55.1211C134.85 55.2227 135.237 55.3633 135.612 55.543C135.987 55.7227 136.342 55.9336 136.678 56.1758C137.022 56.418 137.342 56.6797 137.639 56.9609L138.881 55.4727H139.655V66.418ZM145.807 68H142.584V50.457H145.807V68ZM153.728 64.9297C153.853 64.9688 153.978 64.9961 154.103 65.0117C154.228 65.0195 154.353 65.0234 154.478 65.0234C154.791 65.0234 155.091 64.9805 155.38 64.8945C155.67 64.8086 155.939 64.6875 156.189 64.5312C156.447 64.3672 156.673 64.1719 156.869 63.9453C157.072 63.7109 157.236 63.4531 157.361 63.1719L159.705 65.5273C159.408 65.9492 159.064 66.3281 158.673 66.6641C158.291 67 157.873 67.2852 157.42 67.5195C156.974 67.7539 156.502 67.9297 156.002 68.0469C155.509 68.1719 155.002 68.2344 154.478 68.2344C153.595 68.2344 152.763 68.0703 151.982 67.7422C151.209 67.4141 150.529 66.957 149.943 66.3711C149.365 65.7852 148.908 65.0898 148.572 64.2852C148.236 63.4727 148.068 62.582 148.068 61.6133C148.068 60.6211 148.236 59.7148 148.572 58.8945C148.908 58.0742 149.365 57.375 149.943 56.7969C150.529 56.2188 151.209 55.7695 151.982 55.4492C152.763 55.1289 153.595 54.9688 154.478 54.9688C155.002 54.9688 155.513 55.0312 156.013 55.1562C156.513 55.2812 156.986 55.4609 157.431 55.6953C157.884 55.9297 158.306 56.2188 158.697 56.5625C159.088 56.8984 159.431 57.2773 159.728 57.6992L153.728 64.9297ZM155.369 58.332C155.22 58.2773 155.072 58.2422 154.923 58.2266C154.783 58.2109 154.634 58.2031 154.478 58.2031C154.041 58.2031 153.627 58.2852 153.236 58.4492C152.853 58.6055 152.517 58.832 152.228 59.1289C151.947 59.4258 151.724 59.7852 151.56 60.207C151.396 60.6211 151.314 61.0898 151.314 61.6133C151.314 61.7305 151.318 61.8633 151.326 62.0117C151.341 62.1602 151.361 62.3125 151.384 62.4688C151.416 62.6172 151.451 62.7617 151.49 62.9023C151.529 63.043 151.58 63.168 151.642 63.2773L155.369 58.332ZM172.735 54.5586V61.2852H176.098C176.559 61.2852 176.993 61.1992 177.399 61.0273C177.805 60.8477 178.161 60.6055 178.465 60.3008C178.77 59.9961 179.008 59.6406 179.18 59.2344C179.36 58.8203 179.45 58.3828 179.45 57.9219C179.45 57.4609 179.36 57.0273 179.18 56.6211C179.008 56.207 178.77 55.8477 178.465 55.543C178.161 55.2383 177.805 55 177.399 54.8281C176.993 54.6484 176.559 54.5586 176.098 54.5586H172.735ZM172.735 68H169.372V51.1953H176.098C176.715 51.1953 177.309 51.2773 177.88 51.4414C178.45 51.5977 178.981 51.8242 179.473 52.1211C179.973 52.4102 180.426 52.7617 180.833 53.1758C181.247 53.582 181.598 54.0352 181.887 54.5352C182.184 55.0352 182.411 55.5703 182.567 56.1406C182.731 56.7109 182.813 57.3047 182.813 57.9219C182.813 58.8438 182.637 59.7148 182.286 60.5352C181.934 61.3477 181.454 62.0586 180.844 62.668C180.235 63.2773 179.52 63.7578 178.7 64.1094C177.887 64.4609 177.02 64.6367 176.098 64.6367H172.735V68ZM197.086 68H196.313L195.07 66.2773C194.766 66.5508 194.442 66.8086 194.098 67.0508C193.762 67.2852 193.406 67.4922 193.031 67.6719C192.656 67.8438 192.27 67.9805 191.871 68.082C191.481 68.1836 191.082 68.2344 190.676 68.2344C189.793 68.2344 188.961 68.0859 188.18 67.7891C187.406 67.4922 186.727 67.0625 186.141 66.5C185.563 65.9297 185.106 65.2344 184.77 64.4141C184.434 63.5938 184.266 62.6602 184.266 61.6133C184.266 60.6367 184.434 59.7422 184.77 58.9297C185.106 58.1094 185.563 57.4062 186.141 56.8203C186.727 56.2344 187.406 55.7812 188.18 55.4609C188.961 55.1328 189.793 54.9688 190.676 54.9688C191.082 54.9688 191.485 55.0195 191.883 55.1211C192.281 55.2227 192.668 55.3633 193.043 55.543C193.418 55.7227 193.774 55.9336 194.11 56.1758C194.453 56.418 194.774 56.6797 195.07 56.9609L196.313 55.4727H197.086V68ZM193.863 61.6133C193.863 61.1758 193.777 60.7539 193.606 60.3477C193.442 59.9336 193.215 59.5703 192.926 59.2578C192.637 58.9375 192.297 58.6836 191.906 58.4961C191.524 58.3008 191.113 58.2031 190.676 58.2031C190.238 58.2031 189.824 58.2773 189.434 58.4258C189.051 58.5742 188.715 58.793 188.426 59.082C188.145 59.3711 187.922 59.7305 187.758 60.1602C187.594 60.582 187.512 61.0664 187.512 61.6133C187.512 62.1602 187.594 62.6484 187.758 63.0781C187.922 63.5 188.145 63.8555 188.426 64.1445C188.715 64.4336 189.051 64.6523 189.434 64.8008C189.824 64.9492 190.238 65.0234 190.676 65.0234C191.113 65.0234 191.524 64.9297 191.906 64.7422C192.297 64.5469 192.637 64.293 192.926 63.9805C193.215 63.6602 193.442 63.2969 193.606 62.8906C193.777 62.4766 193.863 62.0508 193.863 61.6133ZM208.945 61.6133C208.945 61.1758 208.859 60.7539 208.687 60.3477C208.523 59.9336 208.297 59.5703 208.007 59.2578C207.718 58.9375 207.379 58.6836 206.988 58.4961C206.605 58.3008 206.195 58.2031 205.757 58.2031C205.32 58.2031 204.906 58.2773 204.515 58.4258C204.132 58.5742 203.797 58.793 203.507 59.082C203.226 59.3711 203.004 59.7305 202.84 60.1602C202.675 60.582 202.593 61.0664 202.593 61.6133C202.593 62.1367 202.675 62.6094 202.84 63.0312C203.004 63.4453 203.226 63.8008 203.507 64.0977C203.797 64.3945 204.132 64.625 204.515 64.7891C204.906 64.9453 205.32 65.0234 205.757 65.0234C206.195 65.0234 206.605 64.9297 206.988 64.7422C207.379 64.5469 207.718 64.293 208.007 63.9805C208.297 63.6602 208.523 63.2969 208.687 62.8906C208.859 62.4766 208.945 62.0508 208.945 61.6133ZM212.168 66.418C212.168 67.3008 212 68.1289 211.664 68.9023C211.328 69.6758 210.867 70.3516 210.281 70.9297C209.703 71.5078 209.023 71.9648 208.242 72.3008C207.468 72.6367 206.64 72.8047 205.757 72.8047L204.152 72.7812V69.582L205.734 69.6055C206.234 69.6055 206.66 69.5391 207.011 69.4062C207.363 69.2812 207.66 69.1055 207.902 68.8789C208.144 68.6602 208.336 68.4062 208.476 68.1172C208.625 67.8281 208.742 67.5234 208.828 67.2031C208.703 67.4062 208.523 67.5742 208.289 67.707C208.054 67.832 207.793 67.9336 207.504 68.0117C207.222 68.0977 206.925 68.1562 206.613 68.1875C206.308 68.2188 206.023 68.2344 205.757 68.2344C204.875 68.2344 204.043 68.082 203.261 67.7773C202.488 67.4727 201.808 67.0391 201.222 66.4766C200.644 65.9062 200.187 65.2109 199.851 64.3906C199.515 63.5703 199.347 62.6445 199.347 61.6133C199.347 60.668 199.515 59.7891 199.851 58.9766C200.187 58.1641 200.644 57.4609 201.222 56.8672C201.808 56.2734 202.488 55.8086 203.261 55.4727C204.043 55.1367 204.875 54.9688 205.757 54.9688C206.164 54.9688 206.566 55.0195 206.965 55.1211C207.363 55.2227 207.75 55.3633 208.125 55.543C208.5 55.7227 208.855 55.9336 209.191 56.1758C209.535 56.418 209.855 56.6797 210.152 56.9609L211.394 55.4727H212.168V66.418ZM220.089 64.9297C220.214 64.9688 220.339 64.9961 220.464 65.0117C220.589 65.0195 220.714 65.0234 220.839 65.0234C221.152 65.0234 221.452 64.9805 221.741 64.8945C222.03 64.8086 222.3 64.6875 222.55 64.5312C222.808 64.3672 223.034 64.1719 223.23 63.9453C223.433 63.7109 223.597 63.4531 223.722 63.1719L226.066 65.5273C225.769 65.9492 225.425 66.3281 225.034 66.6641C224.652 67 224.234 67.2852 223.78 67.5195C223.335 67.7539 222.863 67.9297 222.363 68.0469C221.87 68.1719 221.363 68.2344 220.839 68.2344C219.956 68.2344 219.124 68.0703 218.343 67.7422C217.57 67.4141 216.89 66.957 216.304 66.3711C215.726 65.7852 215.269 65.0898 214.933 64.2852C214.597 63.4727 214.429 62.582 214.429 61.6133C214.429 60.6211 214.597 59.7148 214.933 58.8945C215.269 58.0742 215.726 57.375 216.304 56.7969C216.89 56.2188 217.57 55.7695 218.343 55.4492C219.124 55.1289 219.956 54.9688 220.839 54.9688C221.363 54.9688 221.874 55.0312 222.374 55.1562C222.874 55.2812 223.347 55.4609 223.792 55.6953C224.245 55.9297 224.667 56.2188 225.058 56.5625C225.448 56.8984 225.792 57.2773 226.089 57.6992L220.089 64.9297ZM221.73 58.332C221.581 58.2773 221.433 58.2422 221.284 58.2266C221.144 58.2109 220.995 58.2031 220.839 58.2031C220.402 58.2031 219.988 58.2852 219.597 58.4492C219.214 58.6055 218.878 58.832 218.589 59.1289C218.308 59.4258 218.085 59.7852 217.921 60.207C217.757 60.6211 217.675 61.0898 217.675 61.6133C217.675 61.7305 217.679 61.8633 217.687 62.0117C217.702 62.1602 217.722 62.3125 217.745 62.4688C217.777 62.6172 217.812 62.7617 217.851 62.9023C217.89 63.043 217.941 63.168 218.003 63.2773L221.73 58.332ZM239.096 68H235.733V51.1953H247.498V54.5586H239.096V57.9219H244.135V61.2852H239.096V68ZM260.025 61.6133C260.025 62.5508 259.857 63.4258 259.521 64.2383C259.185 65.043 258.728 65.7422 258.15 66.3359C257.572 66.9219 256.892 67.3867 256.111 67.7305C255.338 68.0664 254.506 68.2344 253.615 68.2344C252.732 68.2344 251.9 68.0664 251.119 67.7305C250.345 67.3867 249.666 66.9219 249.08 66.3359C248.502 65.7422 248.045 65.043 247.709 64.2383C247.373 63.4258 247.205 62.5508 247.205 61.6133C247.205 60.6602 247.373 59.7773 247.709 58.9648C248.045 58.1523 248.502 57.4531 249.08 56.8672C249.666 56.2734 250.345 55.8086 251.119 55.4727C251.9 55.1367 252.732 54.9688 253.615 54.9688C254.506 54.9688 255.338 55.1289 256.111 55.4492C256.892 55.7617 257.572 56.2109 258.15 56.7969C258.728 57.375 259.185 58.0742 259.521 58.8945C259.857 59.707 260.025 60.6133 260.025 61.6133ZM256.803 61.6133C256.803 61.0977 256.717 60.6328 256.545 60.2188C256.381 59.7969 256.154 59.4375 255.865 59.1406C255.576 58.8359 255.236 58.6055 254.845 58.4492C254.463 58.2852 254.053 58.2031 253.615 58.2031C253.178 58.2031 252.763 58.2852 252.373 58.4492C251.99 58.6055 251.654 58.8359 251.365 59.1406C251.084 59.4375 250.861 59.7969 250.697 60.2188C250.533 60.6328 250.451 61.0977 250.451 61.6133C250.451 62.0977 250.533 62.5469 250.697 62.9609C250.861 63.375 251.084 63.7344 251.365 64.0391C251.654 64.3438 251.99 64.5859 252.373 64.7656C252.763 64.9375 253.178 65.0234 253.615 65.0234C254.053 65.0234 254.463 64.9414 254.845 64.7773C255.236 64.6133 255.576 64.3828 255.865 64.0859C256.154 63.7891 256.381 63.4297 256.545 63.0078C256.717 62.5859 256.803 62.1211 256.803 61.6133ZM265.474 68H262.275V55.4492H263.048L264.103 56.9375C264.618 56.4688 265.204 56.1094 265.861 55.8594C266.517 55.6016 267.197 55.4727 267.9 55.4727H270.724V58.6602H267.9C267.564 58.6602 267.247 58.7227 266.95 58.8477C266.654 58.9727 266.396 59.1445 266.177 59.3633C265.958 59.582 265.786 59.8398 265.661 60.1367C265.536 60.4336 265.474 60.75 265.474 61.0859V68ZM288.653 68H285.466V60.0312C285.466 59.8125 285.423 59.6055 285.337 59.4102C285.259 59.2148 285.145 59.043 284.997 58.8945C284.848 58.7461 284.677 58.6328 284.481 58.5547C284.286 58.4688 284.079 58.4258 283.86 58.4258C283.641 58.4258 283.434 58.4688 283.239 58.5547C283.052 58.6328 282.884 58.7461 282.735 58.8945C282.595 59.043 282.481 59.2148 282.395 59.4102C282.317 59.6055 282.278 59.8125 282.278 60.0312V68H279.079V60.0312C279.079 59.8125 279.036 59.6055 278.95 59.4102C278.872 59.2148 278.759 59.043 278.61 58.8945C278.462 58.7461 278.29 58.6328 278.095 58.5547C277.899 58.4688 277.692 58.4258 277.473 58.4258C277.255 58.4258 277.048 58.4688 276.852 58.5547C276.665 58.6328 276.497 58.7461 276.348 58.8945C276.208 59.043 276.095 59.2148 276.009 59.4102C275.93 59.6055 275.891 59.8125 275.891 60.0312V68H272.692V55.4492H273.466L274.333 56.4102C274.778 56.0352 275.266 55.7461 275.798 55.543C276.337 55.332 276.895 55.2266 277.473 55.2266C278.059 55.2266 278.63 55.3359 279.184 55.5547C279.747 55.7734 280.239 56.1523 280.661 56.6914C280.856 56.4258 281.079 56.1992 281.329 56.0117C281.579 55.8242 281.841 55.6719 282.114 55.5547C282.395 55.4375 282.684 55.3555 282.981 55.3086C283.278 55.2539 283.571 55.2266 283.86 55.2266C284.524 55.2266 285.145 55.3516 285.723 55.6016C286.309 55.8516 286.817 56.1953 287.247 56.6328C287.684 57.0625 288.028 57.5703 288.278 58.1562C288.528 58.7422 288.653 59.3672 288.653 60.0312V68Z" fill="#171717"/>
<path d="M187.802 106.396L183.662 119H181.14L177.018 106.396H179.883L182.396 114.808L184.919 106.396H187.802ZM188.276 110.176C188.276 109.654 188.376 109.165 188.575 108.708C188.774 108.251 189.044 107.853 189.384 107.513C189.729 107.167 190.131 106.895 190.588 106.695C191.045 106.496 191.534 106.396 192.056 106.396H197.839V108.919H192.056C191.88 108.919 191.716 108.951 191.563 109.016C191.411 109.08 191.276 109.171 191.159 109.288C191.048 109.399 190.96 109.531 190.896 109.684C190.831 109.836 190.799 110 190.799 110.176C190.799 110.352 190.831 110.519 190.896 110.677C190.96 110.829 191.048 110.964 191.159 111.081C191.276 111.192 191.411 111.28 191.563 111.345C191.716 111.409 191.88 111.441 192.056 111.441H194.578C195.1 111.441 195.589 111.541 196.046 111.74C196.509 111.934 196.91 112.203 197.25 112.549C197.596 112.889 197.865 113.29 198.059 113.753C198.258 114.21 198.357 114.699 198.357 115.221C198.357 115.742 198.258 116.231 198.059 116.688C197.865 117.146 197.596 117.547 197.25 117.893C196.91 118.232 196.509 118.502 196.046 118.701C195.589 118.9 195.1 119 194.578 119H188.979V116.478H194.578C194.754 116.478 194.918 116.445 195.07 116.381C195.223 116.316 195.354 116.229 195.466 116.117C195.583 116 195.674 115.865 195.738 115.713C195.803 115.561 195.835 115.396 195.835 115.221C195.835 115.045 195.803 114.881 195.738 114.729C195.674 114.576 195.583 114.444 195.466 114.333C195.354 114.216 195.223 114.125 195.07 114.061C194.918 113.996 194.754 113.964 194.578 113.964H192.056C191.534 113.964 191.045 113.864 190.588 113.665C190.131 113.466 189.729 113.196 189.384 112.856C189.044 112.511 188.774 112.109 188.575 111.652C188.376 111.189 188.276 110.697 188.276 110.176Z" fill="#171717"/>
<path d="M122.234 174H118.883V162C118.883 161.766 118.836 161.547 118.742 161.344C118.656 161.141 118.535 160.965 118.379 160.816C118.23 160.66 118.055 160.539 117.852 160.453C117.648 160.367 117.43 160.324 117.195 160.324C116.961 160.324 116.742 160.367 116.539 160.453C116.336 160.539 116.156 160.66 116 160.816C115.852 160.965 115.734 161.141 115.648 161.344C115.562 161.547 115.52 161.766 115.52 162V174H112.156V162C112.156 161.766 112.113 161.547 112.027 161.344C111.941 161.141 111.82 160.965 111.664 160.816C111.516 160.66 111.34 160.539 111.137 160.453C110.934 160.367 110.715 160.324 110.48 160.324C110.246 160.324 110.027 160.367 109.824 160.453C109.621 160.539 109.441 160.66 109.285 160.816C109.137 160.965 109.02 161.141 108.934 161.344C108.848 161.547 108.805 161.766 108.805 162V174H105.441V162C105.441 161.305 105.57 160.652 105.828 160.043C106.094 159.426 106.453 158.891 106.906 158.438C107.367 157.977 107.902 157.617 108.512 157.359C109.129 157.094 109.785 156.961 110.48 156.961C111.105 156.961 111.707 157.074 112.285 157.301C112.863 157.52 113.383 157.84 113.844 158.262C114.305 157.84 114.82 157.52 115.391 157.301C115.969 157.074 116.57 156.961 117.195 156.961C117.891 156.961 118.543 157.094 119.152 157.359C119.77 157.617 120.305 157.977 120.758 158.438C121.219 158.891 121.578 159.426 121.836 160.043C122.102 160.652 122.234 161.305 122.234 162V174ZM133.988 172.535C133.73 172.77 133.453 172.992 133.156 173.203C132.867 173.406 132.562 173.586 132.242 173.742C131.922 173.891 131.59 174.008 131.246 174.094C130.91 174.188 130.566 174.234 130.215 174.234C129.441 174.234 128.715 174.098 128.035 173.824C127.355 173.551 126.758 173.164 126.242 172.664C125.734 172.156 125.332 171.543 125.035 170.824C124.746 170.098 124.602 169.285 124.602 168.387V161.449H127.789V168.387C127.789 168.809 127.852 169.188 127.977 169.523C128.109 169.852 128.285 170.129 128.504 170.355C128.723 170.582 128.977 170.754 129.266 170.871C129.562 170.988 129.879 171.047 130.215 171.047C130.543 171.047 130.852 170.973 131.141 170.824C131.438 170.668 131.695 170.465 131.914 170.215C132.133 169.965 132.305 169.684 132.43 169.371C132.555 169.051 132.617 168.723 132.617 168.387V161.449H135.816V174H135.043L133.988 172.535ZM141.488 174H138.266V156.457H141.488V174ZM150.23 174C149.457 174 148.73 173.855 148.051 173.566C147.371 173.27 146.773 172.867 146.258 172.359C145.75 171.844 145.348 171.246 145.051 170.566C144.762 169.887 144.617 169.16 144.617 168.387V164.66H143.059V161.473H144.617V156.457H147.805V161.473H152.656V164.66H147.805V168.387C147.805 168.723 147.867 169.039 147.992 169.336C148.117 169.625 148.289 169.879 148.508 170.098C148.727 170.316 148.984 170.492 149.281 170.625C149.578 170.75 149.895 170.812 150.23 170.812H152.656V174H150.23ZM158.234 158.039C158.234 158.336 158.176 158.613 158.059 158.871C157.949 159.129 157.797 159.355 157.602 159.551C157.406 159.738 157.176 159.891 156.91 160.008C156.652 160.117 156.375 160.172 156.078 160.172C155.781 160.172 155.5 160.117 155.234 160.008C154.977 159.891 154.75 159.738 154.555 159.551C154.367 159.355 154.215 159.129 154.098 158.871C153.988 158.613 153.934 158.336 153.934 158.039C153.934 157.75 153.988 157.477 154.098 157.219C154.215 156.953 154.367 156.727 154.555 156.539C154.75 156.344 154.977 156.191 155.234 156.082C155.5 155.965 155.781 155.906 156.078 155.906C156.375 155.906 156.652 155.965 156.91 156.082C157.176 156.191 157.406 156.344 157.602 156.539C157.797 156.727 157.949 156.953 158.059 157.219C158.176 157.477 158.234 157.75 158.234 158.039ZM157.684 174H154.461V161.449H157.684V174ZM170.562 160.559V167.285H173.926C174.387 167.285 174.82 167.199 175.227 167.027C175.633 166.848 175.988 166.605 176.293 166.301C176.598 165.996 176.836 165.641 177.008 165.234C177.188 164.82 177.277 164.383 177.277 163.922C177.277 163.461 177.188 163.027 177.008 162.621C176.836 162.207 176.598 161.848 176.293 161.543C175.988 161.238 175.633 161 175.227 160.828C174.82 160.648 174.387 160.559 173.926 160.559H170.562ZM170.562 174H167.199V157.195H173.926C174.543 157.195 175.137 157.277 175.707 157.441C176.277 157.598 176.809 157.824 177.301 158.121C177.801 158.41 178.254 158.762 178.66 159.176C179.074 159.582 179.426 160.035 179.715 160.535C180.012 161.035 180.238 161.57 180.395 162.141C180.559 162.711 180.641 163.305 180.641 163.922C180.641 164.844 180.465 165.715 180.113 166.535C179.762 167.348 179.281 168.059 178.672 168.668C178.062 169.277 177.348 169.758 176.527 170.109C175.715 170.461 174.848 170.637 173.926 170.637H170.562V174ZM194.434 174H193.66L192.418 172.277C192.113 172.551 191.789 172.809 191.445 173.051C191.109 173.285 190.754 173.492 190.379 173.672C190.004 173.844 189.617 173.98 189.219 174.082C188.828 174.184 188.43 174.234 188.023 174.234C187.141 174.234 186.309 174.086 185.527 173.789C184.754 173.492 184.074 173.062 183.488 172.5C182.91 171.93 182.453 171.234 182.117 170.414C181.781 169.594 181.613 168.66 181.613 167.613C181.613 166.637 181.781 165.742 182.117 164.93C182.453 164.109 182.91 163.406 183.488 162.82C184.074 162.234 184.754 161.781 185.527 161.461C186.309 161.133 187.141 160.969 188.023 160.969C188.43 160.969 188.832 161.02 189.23 161.121C189.629 161.223 190.016 161.363 190.391 161.543C190.766 161.723 191.121 161.934 191.457 162.176C191.801 162.418 192.121 162.68 192.418 162.961L193.66 161.473H194.434V174ZM191.211 167.613C191.211 167.176 191.125 166.754 190.953 166.348C190.789 165.934 190.562 165.57 190.273 165.258C189.984 164.938 189.645 164.684 189.254 164.496C188.871 164.301 188.461 164.203 188.023 164.203C187.586 164.203 187.172 164.277 186.781 164.426C186.398 164.574 186.062 164.793 185.773 165.082C185.492 165.371 185.27 165.73 185.105 166.16C184.941 166.582 184.859 167.066 184.859 167.613C184.859 168.16 184.941 168.648 185.105 169.078C185.27 169.5 185.492 169.855 185.773 170.145C186.062 170.434 186.398 170.652 186.781 170.801C187.172 170.949 187.586 171.023 188.023 171.023C188.461 171.023 188.871 170.93 189.254 170.742C189.645 170.547 189.984 170.293 190.273 169.98C190.562 169.66 190.789 169.297 190.953 168.891C191.125 168.477 191.211 168.051 191.211 167.613ZM205.812 167.613C205.812 167.176 205.727 166.754 205.555 166.348C205.391 165.934 205.164 165.57 204.875 165.258C204.586 164.938 204.246 164.684 203.855 164.496C203.473 164.301 203.062 164.203 202.625 164.203C202.188 164.203 201.773 164.277 201.383 164.426C201 164.574 200.664 164.793 200.375 165.082C200.094 165.371 199.871 165.73 199.707 166.16C199.543 166.582 199.461 167.066 199.461 167.613C199.461 168.137 199.543 168.609 199.707 169.031C199.871 169.445 200.094 169.801 200.375 170.098C200.664 170.395 201 170.625 201.383 170.789C201.773 170.945 202.188 171.023 202.625 171.023C203.062 171.023 203.473 170.93 203.855 170.742C204.246 170.547 204.586 170.293 204.875 169.98C205.164 169.66 205.391 169.297 205.555 168.891C205.727 168.477 205.812 168.051 205.812 167.613ZM209.035 172.418C209.035 173.301 208.867 174.129 208.531 174.902C208.195 175.676 207.734 176.352 207.148 176.93C206.57 177.508 205.891 177.965 205.109 178.301C204.336 178.637 203.508 178.805 202.625 178.805L201.02 178.781V175.582L202.602 175.605C203.102 175.605 203.527 175.539 203.879 175.406C204.23 175.281 204.527 175.105 204.77 174.879C205.012 174.66 205.203 174.406 205.344 174.117C205.492 173.828 205.609 173.523 205.695 173.203C205.57 173.406 205.391 173.574 205.156 173.707C204.922 173.832 204.66 173.934 204.371 174.012C204.09 174.098 203.793 174.156 203.48 174.188C203.176 174.219 202.891 174.234 202.625 174.234C201.742 174.234 200.91 174.082 200.129 173.777C199.355 173.473 198.676 173.039 198.09 172.477C197.512 171.906 197.055 171.211 196.719 170.391C196.383 169.57 196.215 168.645 196.215 167.613C196.215 166.668 196.383 165.789 196.719 164.977C197.055 164.164 197.512 163.461 198.09 162.867C198.676 162.273 199.355 161.809 200.129 161.473C200.91 161.137 201.742 160.969 202.625 160.969C203.031 160.969 203.434 161.02 203.832 161.121C204.23 161.223 204.617 161.363 204.992 161.543C205.367 161.723 205.723 161.934 206.059 162.176C206.402 162.418 206.723 162.68 207.02 162.961L208.262 161.473H209.035V172.418ZM216.477 170.93C216.602 170.969 216.727 170.996 216.852 171.012C216.977 171.02 217.102 171.023 217.227 171.023C217.539 171.023 217.84 170.98 218.129 170.895C218.418 170.809 218.688 170.688 218.938 170.531C219.195 170.367 219.422 170.172 219.617 169.945C219.82 169.711 219.984 169.453 220.109 169.172L222.453 171.527C222.156 171.949 221.812 172.328 221.422 172.664C221.039 173 220.621 173.285 220.168 173.52C219.723 173.754 219.25 173.93 218.75 174.047C218.258 174.172 217.75 174.234 217.227 174.234C216.344 174.234 215.512 174.07 214.73 173.742C213.957 173.414 213.277 172.957 212.691 172.371C212.113 171.785 211.656 171.09 211.32 170.285C210.984 169.473 210.816 168.582 210.816 167.613C210.816 166.621 210.984 165.715 211.32 164.895C211.656 164.074 212.113 163.375 212.691 162.797C213.277 162.219 213.957 161.77 214.73 161.449C215.512 161.129 216.344 160.969 217.227 160.969C217.75 160.969 218.262 161.031 218.762 161.156C219.262 161.281 219.734 161.461 220.18 161.695C220.633 161.93 221.055 162.219 221.445 162.562C221.836 162.898 222.18 163.277 222.477 163.699L216.477 170.93ZM218.117 164.332C217.969 164.277 217.82 164.242 217.672 164.227C217.531 164.211 217.383 164.203 217.227 164.203C216.789 164.203 216.375 164.285 215.984 164.449C215.602 164.605 215.266 164.832 214.977 165.129C214.695 165.426 214.473 165.785 214.309 166.207C214.145 166.621 214.062 167.09 214.062 167.613C214.062 167.73 214.066 167.863 214.074 168.012C214.09 168.16 214.109 168.312 214.133 168.469C214.164 168.617 214.199 168.762 214.238 168.902C214.277 169.043 214.328 169.168 214.391 169.277L218.117 164.332ZM234.523 174H231.16V157.195H242.926V160.559H234.523V163.922H239.562V167.285H234.523V174ZM254.973 167.613C254.973 168.551 254.805 169.426 254.469 170.238C254.133 171.043 253.676 171.742 253.098 172.336C252.52 172.922 251.84 173.387 251.059 173.73C250.285 174.066 249.453 174.234 248.562 174.234C247.68 174.234 246.848 174.066 246.066 173.73C245.293 173.387 244.613 172.922 244.027 172.336C243.449 171.742 242.992 171.043 242.656 170.238C242.32 169.426 242.152 168.551 242.152 167.613C242.152 166.66 242.32 165.777 242.656 164.965C242.992 164.152 243.449 163.453 244.027 162.867C244.613 162.273 245.293 161.809 246.066 161.473C246.848 161.137 247.68 160.969 248.562 160.969C249.453 160.969 250.285 161.129 251.059 161.449C251.84 161.762 252.52 162.211 253.098 162.797C253.676 163.375 254.133 164.074 254.469 164.895C254.805 165.707 254.973 166.613 254.973 167.613ZM251.75 167.613C251.75 167.098 251.664 166.633 251.492 166.219C251.328 165.797 251.102 165.438 250.812 165.141C250.523 164.836 250.184 164.605 249.793 164.449C249.41 164.285 249 164.203 248.562 164.203C248.125 164.203 247.711 164.285 247.32 164.449C246.938 164.605 246.602 164.836 246.312 165.141C246.031 165.438 245.809 165.797 245.645 166.219C245.48 166.633 245.398 167.098 245.398 167.613C245.398 168.098 245.48 168.547 245.645 168.961C245.809 169.375 246.031 169.734 246.312 170.039C246.602 170.344 246.938 170.586 247.32 170.766C247.711 170.938 248.125 171.023 248.562 171.023C249 171.023 249.41 170.941 249.793 170.777C250.184 170.613 250.523 170.383 250.812 170.086C251.102 169.789 251.328 169.43 251.492 169.008C251.664 168.586 251.75 168.121 251.75 167.613ZM259.941 174H256.742V161.449H257.516L258.57 162.938C259.086 162.469 259.672 162.109 260.328 161.859C260.984 161.602 261.664 161.473 262.367 161.473H265.191V164.66H262.367C262.031 164.66 261.715 164.723 261.418 164.848C261.121 164.973 260.863 165.145 260.645 165.363C260.426 165.582 260.254 165.84 260.129 166.137C260.004 166.434 259.941 166.75 259.941 167.086V174ZM282.641 174H279.453V166.031C279.453 165.812 279.41 165.605 279.324 165.41C279.246 165.215 279.133 165.043 278.984 164.895C278.836 164.746 278.664 164.633 278.469 164.555C278.273 164.469 278.066 164.426 277.848 164.426C277.629 164.426 277.422 164.469 277.227 164.555C277.039 164.633 276.871 164.746 276.723 164.895C276.582 165.043 276.469 165.215 276.383 165.41C276.305 165.605 276.266 165.812 276.266 166.031V174H273.066V166.031C273.066 165.812 273.023 165.605 272.938 165.41C272.859 165.215 272.746 165.043 272.598 164.895C272.449 164.746 272.277 164.633 272.082 164.555C271.887 164.469 271.68 164.426 271.461 164.426C271.242 164.426 271.035 164.469 270.84 164.555C270.652 164.633 270.484 164.746 270.336 164.895C270.195 165.043 270.082 165.215 269.996 165.41C269.918 165.605 269.879 165.812 269.879 166.031V174H266.68V161.449H267.453L268.32 162.41C268.766 162.035 269.254 161.746 269.785 161.543C270.324 161.332 270.883 161.227 271.461 161.227C272.047 161.227 272.617 161.336 273.172 161.555C273.734 161.773 274.227 162.152 274.648 162.691C274.844 162.426 275.066 162.199 275.316 162.012C275.566 161.824 275.828 161.672 276.102 161.555C276.383 161.438 276.672 161.355 276.969 161.309C277.266 161.254 277.559 161.227 277.848 161.227C278.512 161.227 279.133 161.352 279.711 161.602C280.297 161.852 280.805 162.195 281.234 162.633C281.672 163.062 282.016 163.57 282.266 164.156C282.516 164.742 282.641 165.367 282.641 166.031V174Z" fill="#171717"/>
</g>
<defs>
<filter id="filter0_ddd_453_3025" x="207.173" y="-84.487" width="403.633" height="410.014" filterUnits="userSpaceOnUse" color-interpolation-filters="sRGB">
<feFlood flood-opacity="0" result="BackgroundImageFix"/>
<feColorMatrix in="SourceAlpha" type="matrix" values="0 0 0 0 0 0 0 0 0 0 0 0 0 0 0 0 0 0 127 0" result="hardAlpha"/>
<feOffset dy="5.16104"/>
<feGaussianBlur stdDeviation="4.10777"/>
<feColorMatrix type="matrix" values="0 0 0 0 0.215686 0 0 0 0 0 0 0 0 0 0.423529 0 0 0 0.0157037 0"/>
<feBlend mode="normal" in2="BackgroundImageFix" result="effect1_dropShadow_453_3025"/>
<feColorMatrix in="SourceAlpha" type="matrix" values="0 0 0 0 0 0 0 0 0 0 0 0 0 0 0 0 0 0 127 0" result="hardAlpha"/>
<feOffset dy="24.3976"/>
<feGaussianBlur stdDeviation="16.0576"/>
<feColorMatrix type="matrix" values="0 0 0 0 0.215686 0 0 0 0 0 0 0 0 0 0.423529 0 0 0 0.0242963 0"/>
<feBlend mode="normal" in2="effect1_dropShadow_453_3025" result="effect2_dropShadow_453_3025"/>
<feColorMatrix in="SourceAlpha" type="matrix" values="0 0 0 0 0 0 0 0 0 0 0 0 0 0 0 0 0 0 127 0" result="hardAlpha"/>
<feOffset dy="63.34"/>
<feGaussianBlur stdDeviation="50.4135"/>
<feColorMatrix type="matrix" values="0 0 0 0 0.215 0 0 0 0 0 0 0 0 0 0.425 0 0 0 0.04 0"/>
<feBlend mode="normal" in2="effect2_dropShadow_453_3025" result="effect3_dropShadow_453_3025"/>
<feBlend mode="normal" in="SourceGraphic" in2="effect3_dropShadow_453_3025" result="shape"/>
</filter>
<filter id="filter1_ddd_453_3025" x="-211.827" y="-49.487" width="403.435" height="409.941" filterUnits="userSpaceOnUse" color-interpolation-filters="sRGB">
<feFlood flood-opacity="0" result="BackgroundImageFix"/>
<feColorMatrix in="SourceAlpha" type="matrix" values="0 0 0 0 0 0 0 0 0 0 0 0 0 0 0 0 0 0 127 0" result="hardAlpha"/>
<feOffset dy="5.16104"/>
<feGaussianBlur stdDeviation="4.10777"/>
<feColorMatrix type="matrix" values="0 0 0 0 0.215686 0 0 0 0 0 0 0 0 0 0.423529 0 0 0 0.0157037 0"/>
<feBlend mode="normal" in2="BackgroundImageFix" result="effect1_dropShadow_453_3025"/>
<feColorMatrix in="SourceAlpha" type="matrix" values="0 0 0 0 0 0 0 0 0 0 0 0 0 0 0 0 0 0 127 0" result="hardAlpha"/>
<feOffset dy="24.3976"/>
<feGaussianBlur stdDeviation="16.0576"/>
<feColorMatrix type="matrix" values="0 0 0 0 0.215686 0 0 0 0 0 0 0 0 0 0.423529 0 0 0 0.0242963 0"/>
<feBlend mode="normal" in2="effect1_dropShadow_453_3025" result="effect2_dropShadow_453_3025"/>
<feColorMatrix in="SourceAlpha" type="matrix" values="0 0 0 0 0 0 0 0 0 0 0 0 0 0 0 0 0 0 127 0" result="hardAlpha"/>
<feOffset dy="63.34"/>
<feGaussianBlur stdDeviation="50.4135"/>
<feColorMatrix type="matrix" values="0 0 0 0 0.215 0 0 0 0 0 0 0 0 0 0.425 0 0 0 0.04 0"/>
<feBlend mode="normal" in2="effect2_dropShadow_453_3025" result="effect3_dropShadow_453_3025"/>
<feBlend mode="normal" in="SourceGraphic" in2="effect3_dropShadow_453_3025" result="shape"/>
</filter>
<clipPath id="clip0_453_3025">
<rect width="388" height="204" fill="white"/>
</clipPath>
</defs>
</svg>
