<svg width="622" height="500" viewBox="0 0 622 500" fill="none" xmlns="http://www.w3.org/2000/svg">
<circle cx="310.551" cy="249.778" r="217.551" fill="#F1D9FF"/>
<g filter="url(#filter0_dd_4755_48813)">
<g clip-path="url(#clip0_4755_48813)">
<rect x="27" y="81" width="567.802" height="339" rx="4" fill="white"/>
<mask id="path-4-inside-1_4755_48813" fill="white">
<path d="M27 95.9414H168.95V121.156H27V95.9414Z"/>
</mask>
<path d="M168.95 120.689H27V121.623H168.95V120.689Z" fill="#EAECF0" mask="url(#path-4-inside-1_4755_48813)"/>
<mask id="path-6-inside-2_4755_48813" fill="white">
<path d="M168.951 95.9414H310.902V121.156H168.951V95.9414Z"/>
</mask>
<path d="M310.902 120.689H168.951V121.623H310.902V120.689Z" fill="#EAECF0" mask="url(#path-6-inside-2_4755_48813)"/>
<path d="M198.889 101.137C198.889 101.563 198.516 101.907 198.055 101.907C197.595 101.907 197.222 101.563 197.222 101.137C197.222 100.712 197.595 100.379 198.055 100.379C198.516 100.379 198.889 100.712 198.889 101.137Z" fill="#6434D0"/>
<path d="M201.806 101.143C201.806 101.565 201.433 101.907 200.973 101.907C200.513 101.907 200.139 101.565 200.139 101.143C200.139 100.721 200.513 100.379 200.973 100.379C201.433 100.379 201.806 100.721 201.806 101.143Z" fill="#6434D0"/>
<path fill-rule="evenodd" clip-rule="evenodd" d="M196.076 96.6406C195.443 96.6406 194.93 97.1782 194.93 97.8413V108.047C194.93 108.71 195.443 109.248 196.076 109.248H202.953C203.586 109.248 204.099 108.71 204.099 108.047V97.8413C204.099 97.1782 203.586 96.6406 202.953 96.6406H196.076ZM197.508 99.6424C196.717 99.6424 196.076 100.314 196.076 101.143C196.076 101.972 196.717 102.644 197.508 102.644H201.52C202.311 102.644 202.953 101.972 202.953 101.143C202.953 100.314 202.311 99.6424 201.52 99.6424H197.508Z" fill="#6434D0"/>
<path d="M210.979 107.945V97.5022H217.995V99.2819H213.009V101.974H217.157V103.621H213.009V107.945H210.979ZM222.628 108.092C222 108.092 221.436 107.989 220.936 107.784C220.436 107.568 220.01 107.274 219.657 106.901C219.313 106.528 219.049 106.102 218.862 105.621C218.676 105.141 218.583 104.636 218.583 104.106C218.583 103.567 218.676 103.057 218.862 102.577C219.049 102.096 219.313 101.67 219.657 101.297C220.01 100.924 220.436 100.635 220.936 100.429C221.436 100.213 222 100.106 222.628 100.106C223.255 100.106 223.814 100.213 224.305 100.429C224.805 100.635 225.231 100.924 225.584 101.297C225.937 101.67 226.202 102.096 226.379 102.577C226.565 103.057 226.658 103.567 226.658 104.106C226.658 104.636 226.565 105.141 226.379 105.621C226.202 106.102 225.937 106.528 225.584 106.901C225.241 107.274 224.819 107.568 224.319 107.784C223.819 107.989 223.255 108.092 222.628 108.092ZM220.613 104.106C220.613 104.557 220.701 104.959 220.877 105.312C221.054 105.656 221.294 105.925 221.598 106.121C221.902 106.318 222.245 106.416 222.628 106.416C223 106.416 223.339 106.318 223.643 106.121C223.947 105.916 224.187 105.641 224.363 105.298C224.55 104.945 224.643 104.543 224.643 104.092C224.643 103.65 224.55 103.253 224.363 102.9C224.187 102.547 223.947 102.273 223.643 102.077C223.339 101.88 223 101.782 222.628 101.782C222.245 101.782 221.902 101.885 221.598 102.091C221.294 102.287 221.054 102.562 220.877 102.915C220.701 103.258 220.613 103.655 220.613 104.106ZM232.872 101.944C232.273 101.944 231.739 102.062 231.268 102.297C230.798 102.523 230.459 102.851 230.253 103.283V107.945H228.282V100.238H230.092V101.885C230.366 101.356 230.714 100.939 231.136 100.635C231.558 100.331 232.004 100.164 232.474 100.135C232.582 100.135 232.666 100.135 232.724 100.135C232.783 100.135 232.832 100.14 232.872 100.15V101.944ZM246.238 107.945H244.267V103.621C244.267 103.013 244.159 102.567 243.943 102.282C243.737 101.988 243.448 101.841 243.075 101.841C242.693 101.841 242.325 101.993 241.972 102.297C241.629 102.591 241.384 102.979 241.237 103.459V107.945H239.266V103.621C239.266 103.003 239.158 102.552 238.942 102.268C238.736 101.983 238.447 101.841 238.074 101.841C237.692 101.841 237.324 101.988 236.971 102.282C236.628 102.577 236.383 102.964 236.236 103.444V107.945H234.265V100.238H236.045V101.665C236.339 101.165 236.731 100.782 237.221 100.517C237.711 100.243 238.275 100.106 238.913 100.106C239.55 100.106 240.045 100.262 240.398 100.576C240.761 100.89 240.992 101.277 241.09 101.738C241.403 101.209 241.801 100.807 242.281 100.532C242.771 100.248 243.32 100.106 243.928 100.106C244.409 100.106 244.796 100.194 245.09 100.37C245.394 100.537 245.63 100.767 245.796 101.062C245.963 101.346 246.076 101.67 246.135 102.032C246.203 102.395 246.238 102.763 246.238 103.136V107.945ZM251.822 108.092C251.204 108.092 250.645 107.989 250.145 107.784C249.645 107.568 249.219 107.279 248.866 106.916C248.513 106.543 248.238 106.121 248.042 105.651C247.856 105.17 247.762 104.665 247.762 104.136C247.762 103.4 247.924 102.729 248.248 102.121C248.581 101.513 249.052 101.027 249.66 100.665C250.278 100.292 251.003 100.106 251.837 100.106C252.68 100.106 253.401 100.292 253.999 100.665C254.597 101.027 255.053 101.513 255.367 102.121C255.69 102.719 255.852 103.366 255.852 104.062C255.852 104.18 255.847 104.302 255.837 104.43C255.828 104.548 255.818 104.646 255.808 104.724H249.851C249.89 105.116 250.003 105.46 250.189 105.754C250.385 106.048 250.631 106.273 250.925 106.43C251.229 106.577 251.552 106.651 251.896 106.651C252.288 106.651 252.655 106.558 252.999 106.371C253.352 106.175 253.592 105.92 253.719 105.607L255.411 106.077C255.225 106.47 254.955 106.818 254.602 107.122C254.259 107.426 253.852 107.666 253.381 107.842C252.91 108.009 252.391 108.092 251.822 108.092ZM249.807 103.474H253.837C253.798 103.082 253.685 102.743 253.499 102.459C253.322 102.165 253.087 101.939 252.793 101.782C252.499 101.616 252.17 101.532 251.807 101.532C251.454 101.532 251.131 101.616 250.837 101.782C250.552 101.939 250.317 102.165 250.13 102.459C249.954 102.743 249.846 103.082 249.807 103.474ZM260.186 108.092C259.529 108.092 258.901 107.985 258.303 107.769C257.705 107.553 257.19 107.234 256.759 106.813L257.465 105.533C257.926 105.906 258.377 106.18 258.818 106.357C259.269 106.533 259.7 106.622 260.112 106.622C260.495 106.622 260.799 106.553 261.024 106.416C261.26 106.278 261.377 106.072 261.377 105.798C261.377 105.612 261.313 105.469 261.186 105.371C261.059 105.263 260.872 105.17 260.627 105.092C260.392 105.013 260.102 104.925 259.759 104.827C259.191 104.641 258.715 104.459 258.333 104.283C257.95 104.106 257.661 103.886 257.465 103.621C257.278 103.346 257.185 102.998 257.185 102.577C257.185 102.067 257.313 101.63 257.568 101.268C257.832 100.895 258.195 100.606 258.656 100.4C259.127 100.194 259.676 100.091 260.303 100.091C260.853 100.091 261.372 100.179 261.863 100.356C262.353 100.522 262.799 100.797 263.201 101.179L262.407 102.43C262.015 102.126 261.642 101.905 261.289 101.768C260.936 101.621 260.578 101.547 260.215 101.547C260.009 101.547 259.813 101.572 259.627 101.621C259.45 101.67 259.303 101.753 259.186 101.871C259.078 101.978 259.024 102.135 259.024 102.341C259.024 102.528 259.073 102.675 259.171 102.783C259.279 102.881 259.436 102.969 259.642 103.047C259.857 103.126 260.117 103.214 260.421 103.312C261.039 103.489 261.559 103.67 261.98 103.856C262.412 104.043 262.735 104.273 262.951 104.548C263.167 104.812 263.275 105.18 263.275 105.651C263.275 106.416 262.995 107.014 262.436 107.445C261.877 107.877 261.127 108.092 260.186 108.092ZM269.485 107.548C269.318 107.617 269.117 107.695 268.882 107.784C268.646 107.872 268.391 107.94 268.117 107.989C267.852 108.048 267.582 108.078 267.308 108.078C266.945 108.078 266.612 108.014 266.308 107.886C266.004 107.759 265.759 107.558 265.572 107.283C265.396 106.999 265.308 106.631 265.308 106.18V101.753H264.293V100.238H265.308V97.7375H267.279V100.238H268.896V101.753H267.279V105.518C267.288 105.783 267.362 105.974 267.499 106.092C267.636 106.21 267.808 106.269 268.014 106.269C268.22 106.269 268.421 106.234 268.617 106.166C268.813 106.097 268.97 106.038 269.088 105.989L269.485 107.548ZM274.294 108.092C273.676 108.092 273.117 107.989 272.617 107.784C272.117 107.568 271.69 107.279 271.337 106.916C270.984 106.543 270.709 106.121 270.513 105.651C270.327 105.17 270.234 104.665 270.234 104.136C270.234 103.4 270.396 102.729 270.719 102.121C271.053 101.513 271.523 101.027 272.131 100.665C272.749 100.292 273.475 100.106 274.308 100.106C275.152 100.106 275.872 100.292 276.47 100.665C277.069 101.027 277.525 101.513 277.838 102.121C278.162 102.719 278.324 103.366 278.324 104.062C278.324 104.18 278.319 104.302 278.309 104.43C278.299 104.548 278.289 104.646 278.28 104.724H272.323C272.362 105.116 272.475 105.46 272.661 105.754C272.857 106.048 273.102 106.273 273.396 106.43C273.7 106.577 274.024 106.651 274.367 106.651C274.759 106.651 275.127 106.558 275.47 106.371C275.823 106.175 276.063 105.92 276.191 105.607L277.882 106.077C277.696 106.47 277.426 106.818 277.073 107.122C276.73 107.426 276.323 107.666 275.853 107.842C275.382 108.009 274.862 108.092 274.294 108.092ZM272.278 103.474H276.309C276.269 103.082 276.157 102.743 275.97 102.459C275.794 102.165 275.558 101.939 275.264 101.782C274.97 101.616 274.642 101.532 274.279 101.532C273.926 101.532 273.602 101.616 273.308 101.782C273.024 101.939 272.788 102.165 272.602 102.459C272.426 102.743 272.318 103.082 272.278 103.474ZM284.408 101.944C283.81 101.944 283.275 102.062 282.804 102.297C282.334 102.523 281.995 102.851 281.79 103.283V107.945H279.819V100.238H281.628V101.885C281.902 101.356 282.25 100.939 282.672 100.635C283.094 100.331 283.54 100.164 284.011 100.135C284.118 100.135 284.202 100.135 284.261 100.135C284.319 100.135 284.368 100.14 284.408 100.15V101.944Z" fill="#5B2FBD"/>
<mask id="path-10-inside-3_4755_48813" fill="white">
<path d="M310.9 95.9414H452.851V121.156H310.9V95.9414Z"/>
</mask>
<path d="M452.851 120.689H310.9V121.623H452.851V120.689Z" fill="#EAECF0" mask="url(#path-10-inside-3_4755_48813)"/>
<g clip-path="url(#clip1_4755_48813)">
<path d="M355.95 96.9336H351.935C348.322 96.9336 348.044 98.4898 348.044 100.574V104.451C348.044 106.618 348.322 108.091 351.949 108.091H355.95C359.563 108.091 359.841 106.535 359.841 104.465V100.574C359.841 98.5037 359.563 96.9336 355.95 96.9336ZM342.848 99.7264C342.848 97.8923 343.57 96.9336 344.793 96.9336C346.016 96.9336 346.738 97.8923 346.738 99.7264V105.298C346.738 107.132 346.016 108.091 344.793 108.091C343.57 108.091 342.848 107.132 342.848 105.298V99.7264Z" fill="#1A1A19"/>
<path d="M401.136 105.313C399.983 105.313 399.385 104.354 399.385 103.187C399.385 102.02 399.969 101.103 401.136 101.103C402.331 101.103 402.887 102.048 402.887 103.173C402.887 104.382 402.289 105.313 401.136 105.313ZM389.798 101.103C390.479 101.103 390.756 101.492 390.756 101.839C390.756 102.673 389.909 103.034 388.144 103.09C388.144 102.062 388.728 101.103 389.798 101.103ZM382.267 105.313C381.169 105.313 380.711 104.424 380.711 103.187C380.711 101.964 381.183 101.117 382.267 101.117C383.378 101.117 383.892 101.992 383.892 103.187C383.906 104.424 383.351 105.313 382.267 105.313ZM372.999 99.8939H371.29L374.138 106.411C373.596 107.619 373.305 107.911 372.929 107.911C372.527 107.911 372.151 107.592 371.887 107.314L371.137 108.314C371.651 108.856 372.346 109.162 373.068 109.162C373.972 109.162 374.652 108.648 375.055 107.703L378.335 99.88H376.653L374.944 104.549L372.999 99.8939ZM418.379 101.103C419.213 101.103 419.38 101.672 419.38 103.006V106.522H420.866V102.075C420.866 100.478 419.769 99.7828 418.754 99.7828C417.851 99.7828 417.031 100.339 416.573 101.381C416.309 100.38 415.475 99.7828 414.503 99.7828C413.655 99.7828 412.807 100.325 412.349 101.325V99.8939H410.862V106.522H412.349V103.687C412.349 102.256 413.099 101.103 414.127 101.103C414.961 101.103 415.114 101.672 415.114 103.006V106.522H416.601L416.587 103.673C416.587 102.256 417.351 101.103 418.379 101.103ZM406.485 99.8939H405.791V106.522H407.277V103.979C407.277 102.367 407.986 101.283 409.042 101.283C409.32 101.283 409.542 101.297 409.792 101.395L410.028 99.8245C409.834 99.8106 409.667 99.7828 409.5 99.7828C408.458 99.7828 407.708 100.505 407.263 101.422V99.8939H406.485ZM401.136 99.7967C399.177 99.7967 397.843 101.297 397.843 103.173C397.843 105.132 399.191 106.591 401.136 106.591C403.109 106.591 404.457 105.091 404.457 103.173C404.457 101.27 403.081 99.7967 401.136 99.7967ZM389.881 105.313C389.103 105.313 388.533 104.924 388.297 104.118C390.256 104.035 392.188 103.562 392.188 101.825C392.188 100.825 391.201 99.7967 389.798 99.7967C387.894 99.7967 386.616 101.339 386.616 103.173C386.616 105.091 387.88 106.591 389.77 106.591C391.09 106.591 391.924 106.063 392.577 105.299L391.854 104.326C391.076 105.118 390.604 105.313 389.881 105.313ZM382.559 99.7967C381.808 99.7967 381.058 100.227 380.766 100.922V99.9078H379.279V109.148H380.766V105.827C381.086 106.299 381.794 106.619 382.433 106.619C384.407 106.619 385.449 105.16 385.449 103.187C385.449 101.228 384.42 99.7967 382.559 99.7967ZM372.151 97.2401H365.148V98.6851H367.886V106.522H369.442V98.6851H372.151V97.2401ZM394.216 99.8939H393.327V101.228H394.216V106.522H395.703V101.228H397.148V99.8939H395.703V98.8518C395.703 98.1849 395.981 97.9626 396.592 97.9626C396.828 97.9626 397.037 98.0182 397.315 98.1154L397.648 96.8649C397.37 96.7121 396.828 96.6426 396.481 96.6426C395.064 96.6426 394.23 97.4902 394.23 98.963V99.8939H394.216Z" fill="#1A1A19"/>
</g>
<mask id="path-14-inside-4_4755_48813" fill="white">
<path d="M452.852 95.9414H594.802V121.156H452.852V95.9414Z"/>
</mask>
<path d="M594.802 120.689H452.852V121.623H594.802V120.689Z" fill="#EAECF0" mask="url(#path-14-inside-4_4755_48813)"/>
<path fill-rule="evenodd" clip-rule="evenodd" d="M535.105 105.738C534.731 105.738 534.374 105.601 534.111 105.337C533.849 105.074 533.672 104.675 533.672 104.137C533.672 103.591 533.849 103.193 534.111 102.932C534.374 102.669 534.73 102.535 535.105 102.535C535.48 102.535 535.837 102.669 536.099 102.932C536.361 103.193 536.538 103.591 536.538 104.137C536.538 104.682 536.361 105.08 536.099 105.341C535.837 105.604 535.48 105.738 535.105 105.738ZM535.105 100.795C533.204 100.795 531.764 102.194 531.764 104.137C531.764 106.067 533.203 107.478 535.105 107.478C537.007 107.478 538.447 106.067 538.447 104.137C538.447 102.194 537.007 100.795 535.105 100.795Z" fill="#0A1551"/>
<path fill-rule="evenodd" clip-rule="evenodd" d="M519.293 105.738C518.918 105.738 518.562 105.601 518.299 105.337C518.037 105.074 517.86 104.675 517.86 104.137C517.86 103.591 518.037 103.193 518.299 102.932C518.561 102.669 518.918 102.535 519.293 102.535C519.668 102.535 520.024 102.669 520.287 102.932C520.549 103.193 520.726 103.591 520.726 104.137C520.726 104.682 520.549 105.08 520.287 105.341C520.024 105.604 519.668 105.738 519.293 105.738ZM519.293 100.795C517.391 100.795 515.951 102.194 515.951 104.137C515.951 106.067 517.391 107.478 519.293 107.478C521.194 107.478 522.634 106.067 522.634 104.137C522.634 102.194 521.194 100.795 519.293 100.795Z" fill="#0A1551"/>
<path fill-rule="evenodd" clip-rule="evenodd" d="M543.643 107.476H545.54V103.689C545.54 103.377 545.637 103.106 545.809 102.914C545.979 102.724 546.231 102.603 546.557 102.603C546.9 102.603 547.133 102.717 547.282 102.892C547.434 103.07 547.513 103.328 547.513 103.639V107.476H549.398V103.689C549.398 103.384 549.495 103.112 549.666 102.918C549.836 102.726 550.084 102.603 550.403 102.603C550.752 102.603 550.984 102.717 551.132 102.891C551.282 103.069 551.358 103.327 551.358 103.639V107.476H553.206V103.302C553.206 102.451 552.926 101.833 552.485 101.429C552.047 101.026 551.463 100.848 550.874 100.848C550.457 100.848 550.074 100.919 549.73 101.091C549.438 101.238 549.178 101.457 548.953 101.758C548.586 101.163 547.918 100.848 547.128 100.848C546.552 100.848 545.885 101.076 545.465 101.52V101.022H543.643V107.476Z" fill="#0A1551"/>
<path fill-rule="evenodd" clip-rule="evenodd" d="M542.93 101.008V102.941L542.782 102.911C542.605 102.875 542.453 102.864 542.312 102.864C541.909 102.864 541.552 102.962 541.295 103.201C541.04 103.439 540.865 103.834 540.865 104.473V107.477H538.973V101.021H540.815V101.625C541.271 101.077 541.979 100.971 542.423 100.971C542.565 100.971 542.694 100.984 542.816 100.996L542.93 101.008Z" fill="#0A1551"/>
<path fill-rule="evenodd" clip-rule="evenodd" d="M508.877 104.295H510.717L510.738 104.315C510.752 104.329 510.762 104.348 510.764 104.37C510.799 104.772 510.958 105.076 511.195 105.278C511.43 105.479 511.735 105.572 512.053 105.572C512.441 105.572 512.758 105.43 512.978 105.182C513.195 104.935 513.309 104.593 513.309 104.206V98.8379H515.298V104.261C515.298 105.998 513.968 107.45 512.067 107.45C511.118 107.45 510.322 107.135 509.764 106.589C509.218 106.055 508.893 105.293 508.878 104.368L508.877 104.295Z" fill="#0A1551"/>
<path fill-rule="evenodd" clip-rule="evenodd" d="M531.495 99.7283L531.6 99.7583V98.2939L531.552 98.272C531.478 98.2384 531.359 98.2079 531.221 98.1858C531.082 98.1634 530.918 98.1484 530.75 98.1484C530.098 98.1484 529.365 98.3642 528.985 98.753C528.606 99.1416 528.397 99.6954 528.397 100.358V100.66H527.443V102.315H528.397V107.478H530.31V102.315H531.6V100.66H530.31V100.381C530.31 100.084 530.414 99.9122 530.547 99.8124C530.684 99.7093 530.865 99.6734 531.029 99.6734C531.277 99.6734 531.42 99.7071 531.495 99.7283Z" fill="#0A1551"/>
<path fill-rule="evenodd" clip-rule="evenodd" d="M526.759 105.891L526.858 105.861V107.331L526.812 107.353C526.743 107.387 526.631 107.417 526.502 107.439C526.371 107.462 526.216 107.477 526.059 107.477C525.446 107.477 524.761 107.26 524.404 106.87C524.048 106.48 523.851 105.924 523.851 105.259V102.338H522.955V100.679H523.851V98.8848H525.645V100.679H526.858V102.338H525.645V105.235C525.645 105.534 525.743 105.706 525.868 105.806C525.997 105.91 526.167 105.946 526.321 105.946C526.554 105.946 526.689 105.912 526.759 105.891Z" fill="#0A1551"/>
<path d="M498.222 107.713C498.438 107.921 498.285 108.276 497.978 108.276H496.057C495.678 108.276 495.369 107.98 495.369 107.617V105.774C495.369 105.48 495.74 105.333 495.956 105.54L498.222 107.713Z" fill="#0A1551"/>
<path d="M501.225 107.875C500.657 107.316 500.657 106.41 501.225 105.851L503.278 103.833C503.847 103.274 504.769 103.274 505.338 103.833C505.906 104.392 505.906 105.299 505.338 105.857L503.285 107.875C502.716 108.434 501.794 108.434 501.225 107.875Z" fill="#FFB21D"/>
<path d="M495.804 102.807C495.235 102.248 495.235 101.342 495.804 100.783L498.888 97.7513C499.457 97.1923 500.379 97.1923 500.948 97.7513C501.517 98.3102 501.517 99.2165 500.948 99.7754L497.863 102.807C497.294 103.366 496.372 103.366 495.804 102.807Z" fill="#0099FF"/>
<path d="M498.626 105.228C498.057 104.669 498.057 103.762 498.626 103.203L503.293 98.6165C503.862 98.0575 504.784 98.0575 505.353 98.6165C505.922 99.1754 505.922 100.082 505.353 100.641L500.686 105.228C500.117 105.787 499.195 105.787 498.626 105.228Z" fill="#FF6100"/>
<g clip-path="url(#clip2_4755_48813)">
<mask id="path-29-inside-5_4755_48813" fill="white">
<path d="M27 121.156H168.95V151.041H27V121.156Z"/>
</mask>
<path d="M27 121.156H168.95V151.041H27V121.156Z" fill="#F9FAFB"/>
<path d="M168.95 150.574H27V151.507H168.95V150.574Z" fill="#EAECF0" mask="url(#path-29-inside-5_4755_48813)"/>
<rect x="38.207" y="133.098" width="53" height="6" rx="3" fill="#D0D5DD"/>
<mask id="path-32-inside-6_4755_48813" fill="white">
<path d="M27 151.041H168.95V180.925H27V151.041Z"/>
</mask>
<path d="M27 151.041H168.95V180.925H27V151.041Z" fill="white"/>
<path d="M168.95 180.458H27V181.392H168.95V180.458Z" fill="#EAECF0" mask="url(#path-32-inside-6_4755_48813)"/>
<rect x="38.207" y="162.982" width="34" height="6" rx="3" fill="#98A2B3"/>
<mask id="path-35-inside-7_4755_48813" fill="white">
<path d="M27 180.926H168.95V210.81H27V180.926Z"/>
</mask>
<path d="M27 180.926H168.95V210.81H27V180.926Z" fill="white"/>
<path d="M168.95 210.343H27V211.277H168.95V210.343Z" fill="#EAECF0" mask="url(#path-35-inside-7_4755_48813)"/>
<rect x="38.207" y="192.867" width="53" height="6" rx="3" fill="#98A2B3"/>
<mask id="path-38-inside-8_4755_48813" fill="white">
<path d="M27 210.809H168.95V240.693H27V210.809Z"/>
</mask>
<path d="M27 210.809H168.95V240.693H27V210.809Z" fill="white"/>
<path d="M168.95 240.226H27V241.16H168.95V240.226Z" fill="#EAECF0" mask="url(#path-38-inside-8_4755_48813)"/>
<rect x="38.207" y="222.75" width="32" height="6" rx="3" fill="#98A2B3"/>
<mask id="path-41-inside-9_4755_48813" fill="white">
<path d="M27 240.693H168.95V270.578H27V240.693Z"/>
</mask>
<path d="M27 240.693H168.95V270.578H27V240.693Z" fill="white"/>
<path d="M168.95 270.111H27V271.045H168.95V270.111Z" fill="#EAECF0" mask="url(#path-41-inside-9_4755_48813)"/>
<rect x="38.207" y="253.135" width="63" height="5" rx="2.5" fill="#98A2B3"/>
<mask id="path-44-inside-10_4755_48813" fill="white">
<path d="M27 270.578H168.95V300.462H27V270.578Z"/>
</mask>
<path d="M27 270.578H168.95V300.462H27V270.578Z" fill="white"/>
<path d="M168.95 299.995H27V300.929H168.95V299.995Z" fill="#EAECF0" mask="url(#path-44-inside-10_4755_48813)"/>
<rect x="38.207" y="283.02" width="19" height="5" rx="2.5" fill="#98A2B3"/>
<mask id="path-47-inside-11_4755_48813" fill="white">
<path d="M27 300.463H168.95V330.347H27V300.463Z"/>
</mask>
<path d="M27 300.463H168.95V330.347H27V300.463Z" fill="white"/>
<path d="M168.95 329.88H27V330.814H168.95V329.88Z" fill="#EAECF0" mask="url(#path-47-inside-11_4755_48813)"/>
<rect x="38.207" y="312.904" width="32" height="5" rx="2.5" fill="#98A2B3"/>
<mask id="path-50-inside-12_4755_48813" fill="white">
<path d="M27 330.346H168.95V360.23H27V330.346Z"/>
</mask>
<path d="M27 330.346H168.95V360.23H27V330.346Z" fill="#F9FAFB"/>
<path d="M168.95 359.763H27V360.697H168.95V359.763Z" fill="#EAECF0" mask="url(#path-50-inside-12_4755_48813)"/>
<rect x="38.207" y="342.287" width="26" height="6" rx="3" fill="#D0D5DD"/>
<mask id="path-53-inside-13_4755_48813" fill="white">
<path d="M27 360.23H168.95V390.115H27V360.23Z"/>
</mask>
<path d="M27 360.23H168.95V390.115H27V360.23Z" fill="#F9FAFB"/>
<path d="M168.95 389.648H27V390.582H168.95V389.648Z" fill="#EAECF0" mask="url(#path-53-inside-13_4755_48813)"/>
<rect x="38.207" y="372.172" width="85" height="6" rx="3" fill="#D0D5DD"/>
<mask id="path-56-inside-14_4755_48813" fill="white">
<path d="M27 390.115H168.95V420H27V390.115Z"/>
</mask>
<path d="M27 390.115H168.95V420H27V390.115Z" fill="#F9FAFB"/>
<path d="M168.95 419.533H27V420.466H168.95V419.533Z" fill="#EAECF0" mask="url(#path-56-inside-14_4755_48813)"/>
<rect x="38.207" y="402.057" width="36" height="6" rx="3" fill="#D0D5DD"/>
<mask id="path-59-inside-15_4755_48813" fill="white">
<path d="M168.951 121.156H310.902V151.041H168.951V121.156Z"/>
</mask>
<path d="M168.951 121.156H310.902V151.041H168.951V121.156Z" fill="#F9FAFB"/>
<path d="M310.902 150.574H168.951V151.507H310.902V150.574Z" fill="#EAECF0" mask="url(#path-59-inside-15_4755_48813)"/>
<mask id="path-61-inside-16_4755_48813" fill="white">
<path d="M168.951 151.041H310.902V180.925H168.951V151.041Z"/>
</mask>
<path d="M168.951 151.041H310.902V180.925H168.951V151.041Z" fill="white"/>
<path d="M310.902 180.458H168.951V181.392H310.902V180.458Z" fill="#EAECF0" mask="url(#path-61-inside-16_4755_48813)"/>
<rect x="231.928" y="162.982" width="16" height="6" rx="3" fill="#D0D5DD"/>
<mask id="path-64-inside-17_4755_48813" fill="white">
<path d="M168.951 180.926H310.902V210.81H168.951V180.926Z"/>
</mask>
<path d="M168.951 180.926H310.902V210.81H168.951V180.926Z" fill="white"/>
<path d="M310.902 210.343H168.951V211.277H310.902V210.343Z" fill="#EAECF0" mask="url(#path-64-inside-17_4755_48813)"/>
<rect x="219.928" y="192.867" width="40" height="6" rx="3" fill="#D0D5DD"/>
<mask id="path-67-inside-18_4755_48813" fill="white">
<path d="M168.951 210.809H310.902V240.693H168.951V210.809Z"/>
</mask>
<path d="M168.951 210.809H310.902V240.693H168.951V210.809Z" fill="white"/>
<path d="M310.902 240.226H168.951V241.16H310.902V240.226Z" fill="#EAECF0" mask="url(#path-67-inside-18_4755_48813)"/>
<rect x="218.928" y="222.75" width="42" height="6" rx="3" fill="#D0D5DD"/>
<mask id="path-70-inside-19_4755_48813" fill="white">
<path d="M168.951 240.693H310.902V270.578H168.951V240.693Z"/>
</mask>
<path d="M168.951 240.693H310.902V270.578H168.951V240.693Z" fill="white"/>
<path d="M310.902 270.111H168.951V271.045H310.902V270.111Z" fill="#EAECF0" mask="url(#path-70-inside-19_4755_48813)"/>
<rect x="229.928" y="253.135" width="20" height="5" rx="2.5" fill="#D0D5DD"/>
<mask id="path-73-inside-20_4755_48813" fill="white">
<path d="M168.951 270.578H310.902V300.462H168.951V270.578Z"/>
</mask>
<path d="M168.951 270.578H310.902V300.462H168.951V270.578Z" fill="white"/>
<path d="M310.902 299.995H168.951V300.929H310.902V299.995Z" fill="#EAECF0" mask="url(#path-73-inside-20_4755_48813)"/>
<rect x="203.928" y="283.02" width="72" height="5" rx="2.5" fill="#D0D5DD"/>
<mask id="path-76-inside-21_4755_48813" fill="white">
<path d="M168.951 300.463H310.902V330.347H168.951V300.463Z"/>
</mask>
<path d="M168.951 300.463H310.902V330.347H168.951V300.463Z" fill="white"/>
<path d="M310.902 329.88H168.951V330.814H310.902V329.88Z" fill="#EAECF0" mask="url(#path-76-inside-21_4755_48813)"/>
<rect x="213.928" y="312.904" width="52" height="5" rx="2.5" fill="#D0D5DD"/>
<mask id="path-79-inside-22_4755_48813" fill="white">
<path d="M168.951 330.346H310.902V360.23H168.951V330.346Z"/>
</mask>
<path d="M168.951 330.346H310.902V360.23H168.951V330.346Z" fill="#F9FAFB"/>
<path d="M310.902 359.763H168.951V360.697H310.902V359.763Z" fill="#EAECF0" mask="url(#path-79-inside-22_4755_48813)"/>
<mask id="path-81-inside-23_4755_48813" fill="white">
<path d="M168.951 360.23H310.902V390.115H168.951V360.23Z"/>
</mask>
<path d="M168.951 360.23H310.902V390.115H168.951V360.23Z" fill="#F9FAFB"/>
<path d="M310.902 389.648H168.951V390.582H310.902V389.648Z" fill="#EAECF0" mask="url(#path-81-inside-23_4755_48813)"/>
<mask id="path-83-inside-24_4755_48813" fill="white">
<path d="M168.951 390.115H310.902V420H168.951V390.115Z"/>
</mask>
<path d="M168.951 390.115H310.902V420H168.951V390.115Z" fill="#F9FAFB"/>
<path d="M310.902 419.533H168.951V420.466H310.902V419.533Z" fill="#EAECF0" mask="url(#path-83-inside-24_4755_48813)"/>
<mask id="path-85-inside-25_4755_48813" fill="white">
<path d="M310.9 121.156H452.851V151.041H310.9V121.156Z"/>
</mask>
<path d="M310.9 121.156H452.851V151.041H310.9V121.156Z" fill="#F9FAFB"/>
<path d="M452.851 150.574H310.9V151.507H452.851V150.574Z" fill="#EAECF0" mask="url(#path-85-inside-25_4755_48813)"/>
<mask id="path-87-inside-26_4755_48813" fill="white">
<path d="M310.9 151.041H452.851V180.925H310.9V151.041Z"/>
</mask>
<path d="M310.9 151.041H452.851V180.925H310.9V151.041Z" fill="white"/>
<path d="M452.851 180.458H310.9V181.392H452.851V180.458Z" fill="#EAECF0" mask="url(#path-87-inside-26_4755_48813)"/>
<rect x="370.436" y="163.182" width="22.8802" height="5.60331" rx="2.80165" fill="#D0D5DD"/>
<mask id="path-90-inside-27_4755_48813" fill="white">
<path d="M310.9 180.926H452.851V210.81H310.9V180.926Z"/>
</mask>
<path d="M310.9 180.926H452.851V210.81H310.9V180.926Z" fill="white"/>
<path d="M452.851 210.343H310.9V211.277H452.851V210.343Z" fill="#EAECF0" mask="url(#path-90-inside-27_4755_48813)"/>
<rect x="361.877" y="192.867" width="40" height="6" rx="3" fill="#D0D5DD"/>
<mask id="path-93-inside-28_4755_48813" fill="white">
<path d="M310.9 210.809H452.851V240.693H310.9V210.809Z"/>
</mask>
<path d="M310.9 210.809H452.851V240.693H310.9V210.809Z" fill="white"/>
<path d="M452.851 240.226H310.9V241.16H452.851V240.226Z" fill="#EAECF0" mask="url(#path-93-inside-28_4755_48813)"/>
<rect x="360.877" y="222.75" width="42" height="6" rx="3" fill="#D0D5DD"/>
<mask id="path-96-inside-29_4755_48813" fill="white">
<path d="M310.9 240.693H452.851V270.578H310.9V240.693Z"/>
</mask>
<path d="M310.9 240.693H452.851V270.578H310.9V240.693Z" fill="white"/>
<path d="M452.851 270.111H310.9V271.045H452.851V270.111Z" fill="#EAECF0" mask="url(#path-96-inside-29_4755_48813)"/>
<rect x="371.877" y="253.135" width="20" height="5" rx="2.5" fill="#D0D5DD"/>
<mask id="path-99-inside-30_4755_48813" fill="white">
<path d="M310.9 270.578H452.851V300.462H310.9V270.578Z"/>
</mask>
<path d="M310.9 270.578H452.851V300.462H310.9V270.578Z" fill="white"/>
<path d="M452.851 299.995H310.9V300.929H452.851V299.995Z" fill="#EAECF0" mask="url(#path-99-inside-30_4755_48813)"/>
<rect x="345.877" y="283.02" width="72" height="5" rx="2.5" fill="#D0D5DD"/>
<mask id="path-102-inside-31_4755_48813" fill="white">
<path d="M310.9 300.463H452.851V330.347H310.9V300.463Z"/>
</mask>
<path d="M310.9 300.463H452.851V330.347H310.9V300.463Z" fill="white"/>
<path d="M452.851 329.88H310.9V330.814H452.851V329.88Z" fill="#EAECF0" mask="url(#path-102-inside-31_4755_48813)"/>
<rect x="355.877" y="312.904" width="52" height="5" rx="2.5" fill="#D0D5DD"/>
<mask id="path-105-inside-32_4755_48813" fill="white">
<path d="M310.9 330.346H452.851V360.23H310.9V330.346Z"/>
</mask>
<path d="M310.9 330.346H452.851V360.23H310.9V330.346Z" fill="#F9FAFB"/>
<path d="M452.851 359.763H310.9V360.697H452.851V359.763Z" fill="#EAECF0" mask="url(#path-105-inside-32_4755_48813)"/>
<mask id="path-107-inside-33_4755_48813" fill="white">
<path d="M310.9 360.23H452.851V390.115H310.9V360.23Z"/>
</mask>
<path d="M310.9 360.23H452.851V390.115H310.9V360.23Z" fill="#F9FAFB"/>
<path d="M452.851 389.648H310.9V390.582H452.851V389.648Z" fill="#EAECF0" mask="url(#path-107-inside-33_4755_48813)"/>
<mask id="path-109-inside-34_4755_48813" fill="white">
<path d="M310.9 390.115H452.851V420H310.9V390.115Z"/>
</mask>
<path d="M310.9 390.115H452.851V420H310.9V390.115Z" fill="#F9FAFB"/>
<path d="M452.851 419.533H310.9V420.466H452.851V419.533Z" fill="#EAECF0" mask="url(#path-109-inside-34_4755_48813)"/>
<mask id="path-111-inside-35_4755_48813" fill="white">
<path d="M452.852 121.156H594.802V151.041H452.852V121.156Z"/>
</mask>
<path d="M452.852 121.156H594.802V151.041H452.852V121.156Z" fill="#F9FAFB"/>
<path d="M594.802 150.574H452.852V151.507H594.802V150.574Z" fill="#EAECF0" mask="url(#path-111-inside-35_4755_48813)"/>
<mask id="path-113-inside-36_4755_48813" fill="white">
<path d="M452.852 151.041H594.802V180.925H452.852V151.041Z"/>
</mask>
<path d="M452.852 151.041H594.802V180.925H452.852V151.041Z" fill="white"/>
<path d="M594.802 180.458H452.852V181.392H594.802V180.458Z" fill="#EAECF0" mask="url(#path-113-inside-36_4755_48813)"/>
<rect x="512.387" y="163.182" width="22.8802" height="5.60331" rx="2.80165" fill="#D0D5DD"/>
<mask id="path-116-inside-37_4755_48813" fill="white">
<path d="M452.852 180.926H594.802V210.81H452.852V180.926Z"/>
</mask>
<path d="M452.852 180.926H594.802V210.81H452.852V180.926Z" fill="white"/>
<path d="M594.802 210.343H452.852V211.277H594.802V210.343Z" fill="#EAECF0" mask="url(#path-116-inside-37_4755_48813)"/>
<rect x="503.828" y="192.867" width="40" height="6" rx="3" fill="#D0D5DD"/>
<mask id="path-119-inside-38_4755_48813" fill="white">
<path d="M452.852 210.809H594.802V240.693H452.852V210.809Z"/>
</mask>
<path d="M452.852 210.809H594.802V240.693H452.852V210.809Z" fill="white"/>
<path d="M594.802 240.226H452.852V241.16H594.802V240.226Z" fill="#EAECF0" mask="url(#path-119-inside-38_4755_48813)"/>
<rect x="502.828" y="222.75" width="42" height="6" rx="3" fill="#D0D5DD"/>
<mask id="path-122-inside-39_4755_48813" fill="white">
<path d="M452.852 240.693H594.802V270.578H452.852V240.693Z"/>
</mask>
<path d="M452.852 240.693H594.802V270.578H452.852V240.693Z" fill="white"/>
<path d="M594.802 270.111H452.852V271.045H594.802V270.111Z" fill="#EAECF0" mask="url(#path-122-inside-39_4755_48813)"/>
<rect x="513.828" y="253.135" width="20" height="5" rx="2.5" fill="#D0D5DD"/>
<mask id="path-125-inside-40_4755_48813" fill="white">
<path d="M452.852 270.578H594.802V300.462H452.852V270.578Z"/>
</mask>
<path d="M452.852 270.578H594.802V300.462H452.852V270.578Z" fill="white"/>
<path d="M594.802 299.995H452.852V300.929H594.802V299.995Z" fill="#EAECF0" mask="url(#path-125-inside-40_4755_48813)"/>
<rect x="487.828" y="283.02" width="72" height="5" rx="2.5" fill="#D0D5DD"/>
<mask id="path-128-inside-41_4755_48813" fill="white">
<path d="M452.852 300.463H594.802V330.347H452.852V300.463Z"/>
</mask>
<path d="M452.852 300.463H594.802V330.347H452.852V300.463Z" fill="white"/>
<path d="M594.802 329.88H452.852V330.814H594.802V329.88Z" fill="#EAECF0" mask="url(#path-128-inside-41_4755_48813)"/>
<rect x="497.828" y="312.904" width="52" height="5" rx="2.5" fill="#D0D5DD"/>
<mask id="path-131-inside-42_4755_48813" fill="white">
<path d="M452.852 330.346H594.802V360.23H452.852V330.346Z"/>
</mask>
<path d="M452.852 330.346H594.802V360.23H452.852V330.346Z" fill="#F9FAFB"/>
<path d="M594.802 359.763H452.852V360.697H594.802V359.763Z" fill="#EAECF0" mask="url(#path-131-inside-42_4755_48813)"/>
<mask id="path-133-inside-43_4755_48813" fill="white">
<path d="M452.852 360.23H594.802V390.115H452.852V360.23Z"/>
</mask>
<path d="M452.852 360.23H594.802V390.115H452.852V360.23Z" fill="#F9FAFB"/>
<path d="M594.802 389.648H452.852V390.582H594.802V389.648Z" fill="#EAECF0" mask="url(#path-133-inside-43_4755_48813)"/>
<mask id="path-135-inside-44_4755_48813" fill="white">
<path d="M452.852 390.115H594.802V420H452.852V390.115Z"/>
</mask>
<path d="M452.852 390.115H594.802V420H452.852V390.115Z" fill="#F9FAFB"/>
<path d="M594.802 419.533H452.852V420.466H594.802V419.533Z" fill="#EAECF0" mask="url(#path-135-inside-44_4755_48813)"/>
</g>
<rect x="27.2335" y="121.39" width="567.335" height="298.376" rx="1.6343" stroke="#EAECF0" stroke-width="0.466942"/>
</g>
<rect x="27.5" y="81.5" width="566.802" height="338" rx="3.5" stroke="#D0D5DD"/>
</g>
<defs>
<filter id="filter0_dd_4755_48813" x="21" y="79" width="579.801" height="351" filterUnits="userSpaceOnUse" color-interpolation-filters="sRGB">
<feFlood flood-opacity="0" result="BackgroundImageFix"/>
<feColorMatrix in="SourceAlpha" type="matrix" values="0 0 0 0 0 0 0 0 0 0 0 0 0 0 0 0 0 0 127 0" result="hardAlpha"/>
<feMorphology radius="2" operator="erode" in="SourceAlpha" result="effect1_dropShadow_4755_48813"/>
<feOffset dy="2"/>
<feGaussianBlur stdDeviation="2"/>
<feColorMatrix type="matrix" values="0 0 0 0 0.0627451 0 0 0 0 0.0941176 0 0 0 0 0.156863 0 0 0 0.06 0"/>
<feBlend mode="normal" in2="BackgroundImageFix" result="effect1_dropShadow_4755_48813"/>
<feColorMatrix in="SourceAlpha" type="matrix" values="0 0 0 0 0 0 0 0 0 0 0 0 0 0 0 0 0 0 127 0" result="hardAlpha"/>
<feMorphology radius="2" operator="erode" in="SourceAlpha" result="effect2_dropShadow_4755_48813"/>
<feOffset dy="4"/>
<feGaussianBlur stdDeviation="4"/>
<feColorMatrix type="matrix" values="0 0 0 0 0.0627451 0 0 0 0 0.0941176 0 0 0 0 0.156863 0 0 0 0.1 0"/>
<feBlend mode="normal" in2="effect1_dropShadow_4755_48813" result="effect2_dropShadow_4755_48813"/>
<feBlend mode="normal" in="SourceGraphic" in2="effect2_dropShadow_4755_48813" result="shape"/>
</filter>
<clipPath id="clip0_4755_48813">
<rect x="27" y="81" width="567.802" height="339" rx="4" fill="white"/>
</clipPath>
<clipPath id="clip1_4755_48813">
<rect width="78.4463" height="14.0083" fill="white" transform="translate(342.652 95.9414)"/>
</clipPath>
<clipPath id="clip2_4755_48813">
<rect x="27" y="121.156" width="567.802" height="298.843" rx="1.86777" fill="white"/>
</clipPath>
</defs>
</svg>
