<svg width="156" height="165" viewBox="0 0 156 165" fill="none" xmlns="http://www.w3.org/2000/svg">
<path id="Vector 5" d="M121.795 164.739L122.354 153.206L132.063 159.456L121.795 164.739ZM152.5 96.4009L153.484 96.5812L152.5 96.4009ZM140.5 38.9009L141.274 38.2677L140.5 38.9009ZM79.5001 16.4009L79.6752 17.3855L79.6752 17.3855L79.5001 16.4009ZM43.5001 51.9009L42.5041 51.8115L43.5001 51.9009ZM76.0001 96.4009L76.1367 95.4103L76.0001 96.4009ZM128.5 75.8169L129.436 76.168L128.5 75.8169ZM91.5 6.31686L91.2207 7.27706L91.5 6.31686ZM1.04598 5.31581C0.494275 5.34118 0.0264691 4.9145 0.0011037 4.3628C-0.0242622 3.8111 0.402418 3.34329 0.95412 3.31793L1.04598 5.31581ZM6.61338 3.01752C7.16471 2.98502 7.63799 3.40562 7.67048 3.95695C7.70297 4.50828 7.28237 4.98156 6.73104 5.01405L6.61338 3.01752ZM18.0855 4.28063C17.5344 4.31751 17.0578 3.9007 17.0209 3.34965C16.984 2.7986 17.4008 2.32198 17.9519 2.28509L18.0855 4.28063ZM29.3093 1.56088C29.8607 1.52878 30.3336 1.94972 30.3657 2.50107C30.3978 3.05242 29.9769 3.5254 29.4255 3.55749L29.3093 1.56088ZM40.7619 3.0109C40.21 3.0308 39.7465 2.59951 39.7266 2.04759C39.7066 1.49566 40.1379 1.0321 40.6899 1.0122L40.7619 3.0109ZM52.0936 0.789797C52.6459 0.789455 53.0939 1.23689 53.0942 1.78918C53.0946 2.34146 52.6472 2.78945 52.0949 2.7898L52.0936 0.789797ZM63.4098 3.05458C62.8582 3.02681 62.4336 2.55714 62.4614 2.00556C62.4892 1.45397 62.9588 1.02934 63.5104 1.05711L63.4098 3.05458ZM74.91 2.01546C75.4582 2.08228 75.8485 2.58087 75.7817 3.1291C75.7148 3.67733 75.2162 4.06758 74.668 4.00077L74.91 2.01546ZM85.7764 5.88323C85.2375 5.76273 84.8982 5.22811 85.0187 4.68913C85.1392 4.15016 85.6738 3.81091 86.2128 3.93141L85.7764 5.88323ZM97.1369 7.16835C97.6519 7.3678 97.9077 7.94698 97.7083 8.46199C97.5088 8.97701 96.9296 9.23283 96.4146 9.03338L97.1369 7.16835ZM106.227 13.8813C105.756 13.5925 105.609 12.9767 105.897 12.506C106.186 12.0352 106.802 11.8877 107.273 12.1765L106.227 13.8813ZM116.309 18.9868C116.715 19.3608 116.742 19.9934 116.368 20.3998C115.994 20.8063 115.361 20.8326 114.955 20.4587L116.309 18.9868ZM122.183 28.6329C121.863 28.1829 121.968 27.5585 122.418 27.2383C122.868 26.9181 123.492 27.0234 123.812 27.4734L122.183 28.6329ZM129.327 37.3805C129.54 37.8902 129.3 38.4758 128.79 38.6886C128.28 38.9013 127.695 38.6607 127.482 38.151L129.327 37.3805ZM130.493 48.6095C130.402 48.0647 130.77 47.5496 131.315 47.4589C131.86 47.3683 132.375 47.7365 132.466 48.2813L130.493 48.6095ZM133.046 59.6054C133.012 60.1566 132.538 60.5765 131.987 60.5432C131.436 60.5098 131.016 60.0359 131.049 59.4846L133.046 59.6054ZM129.252 70.2506C129.397 69.7177 129.947 69.4035 130.48 69.5488C131.013 69.694 131.327 70.2437 131.182 70.7766L129.252 70.2506ZM127.186 80.9125C126.907 81.3891 126.295 81.5494 125.818 81.2704C125.341 80.9915 125.181 80.3789 125.46 79.9023L127.186 80.9125ZM119.114 87.3112C119.541 86.9607 120.171 87.0225 120.521 87.4494C120.872 87.8762 120.81 88.5063 120.383 88.8568L119.114 87.3112ZM111.419 94.1653C110.91 94.3784 110.324 94.1382 110.111 93.6287C109.898 93.1192 110.138 92.5334 110.648 92.3202L111.419 94.1653ZM101.113 95.1238C101.655 95.0206 102.179 95.3767 102.282 95.9193C102.385 96.4618 102.029 96.9854 101.487 97.0886L101.113 95.1238ZM91.2422 98.2091C90.6903 98.2295 90.2264 97.7986 90.206 97.2467C90.1857 96.6948 90.6166 96.2308 91.1685 96.2105L91.2422 98.2091ZM81.1319 95.9622C81.6823 96.0079 82.0915 96.4911 82.0458 97.0415C82.0002 97.5919 81.5169 98.001 80.9665 97.9554L81.1319 95.9622ZM70.7905 96.2906C70.2613 96.1326 69.9605 95.5754 70.1186 95.0463C70.2766 94.5171 70.8337 94.2162 71.3629 94.3743L70.7905 96.2906ZM62.5332 90.2292C62.9943 90.5331 63.1218 91.1533 62.8179 91.6144C62.514 92.0756 61.8938 92.2031 61.4326 91.8992L62.5332 90.2292ZM53.6479 85.1345C53.2804 84.7222 53.3167 84.0901 53.729 83.7226C54.1413 83.3551 54.7734 83.3915 55.1409 83.8038L53.6479 85.1345ZM49.5172 75.7458C49.779 76.2322 49.5969 76.8386 49.1106 77.1003C48.6242 77.3621 48.0178 77.18 47.7561 76.6937L49.5172 75.7458ZM43.9307 67.145C43.7842 66.6124 44.0973 66.062 44.6298 65.9156C45.1623 65.7692 45.7127 66.0822 45.8591 66.6147L43.9307 67.145ZM44.3635 56.9028C44.3826 57.4547 43.9506 57.9176 43.3987 57.9367C42.8467 57.9558 42.3838 57.5238 42.3647 56.9719L44.3635 56.9028ZM44.0099 45.0449C44.1932 44.5239 44.7641 44.2501 45.2851 44.4334C45.8061 44.6167 46.0799 45.1876 45.8966 45.7086L44.0099 45.0449ZM52.4011 34.4565C52.0523 34.8848 51.4225 34.9492 50.9942 34.6005C50.566 34.2518 50.5015 33.6219 50.8502 33.1936L52.4011 34.4565ZM60.7514 23.8344C61.1969 23.5079 61.8226 23.6042 62.1492 24.0497C62.4757 24.4951 62.3793 25.1209 61.9339 25.4474L60.7514 23.8344ZM73.4087 19.1386C72.8919 19.3334 72.3151 19.0723 72.1203 18.5555C71.9256 18.0387 72.1866 17.4619 72.7034 17.2671L73.4087 19.1386ZM85.0227 14.802C85.5745 14.7782 86.0411 15.2062 86.0649 15.758C86.0887 16.3097 85.6606 16.7763 85.1089 16.8001L85.0227 14.802ZM96.0774 17.4986C95.532 17.4118 95.1603 16.8992 95.2472 16.3538C95.334 15.8084 95.8466 15.4367 96.392 15.5235L96.0774 17.4986ZM107.429 18.1594C107.956 18.3251 108.249 18.8865 108.083 19.4134C107.918 19.9402 107.356 20.233 106.829 20.0673L107.429 18.1594ZM117.175 24.0403C116.672 23.8118 116.45 23.219 116.678 22.7162C116.907 22.2134 117.499 21.9909 118.002 22.2194L117.175 24.0403ZM128.017 27.5122C128.489 27.8001 128.637 28.4155 128.349 28.8868C128.061 29.3581 127.446 29.5068 126.975 29.2189L128.017 27.5122ZM135.916 35.6736C135.501 35.3098 135.459 34.6781 135.822 34.2625C136.186 33.8469 136.818 33.8048 137.233 34.1685L135.916 35.6736ZM144.386 42.3563C144.704 42.8079 144.596 43.4317 144.144 43.7495C143.692 44.0674 143.069 43.9588 142.751 43.5072L144.386 42.3563ZM147.764 52.1027C147.53 51.6027 147.745 51.0072 148.245 50.7726C148.745 50.538 149.34 50.7531 149.575 51.2531L147.764 52.1027ZM153.086 60.9407C153.227 61.4746 152.908 62.0219 152.374 62.163C151.841 62.3041 151.293 61.9856 151.152 61.4516L153.086 60.9407ZM152.896 71.2644C152.842 70.7147 153.243 70.2253 153.793 70.1713C154.343 70.1173 154.832 70.519 154.886 71.0687L152.896 71.2644ZM155.193 81.329C155.175 81.8809 154.712 82.3135 154.161 82.2951C153.609 82.2767 153.176 81.8143 153.194 81.2623L155.193 81.329ZM152.318 91.2531C152.393 90.7061 152.898 90.324 153.445 90.3998C153.992 90.4755 154.374 90.9804 154.299 91.5275L152.318 91.2531ZM152.056 102.762C151.911 103.294 151.362 103.609 150.829 103.464C150.296 103.319 149.982 102.769 150.127 102.236L152.056 102.762ZM146.221 114.064C146.417 113.547 146.994 113.287 147.51 113.482C148.027 113.678 148.287 114.255 148.092 114.771L146.221 114.064ZM143.286 126.417C143.062 126.922 142.472 127.15 141.967 126.926C141.462 126.702 141.234 126.112 141.458 125.607L143.286 126.417ZM136.15 136.934C136.394 136.438 136.993 136.234 137.489 136.478C137.984 136.722 138.188 137.322 137.944 137.817L136.15 136.934ZM132.198 149.002C131.937 149.489 131.331 149.673 130.844 149.412C130.358 149.151 130.174 148.545 130.435 148.059L132.198 149.002ZM124.319 158.973C124.6 158.498 125.214 158.341 125.689 158.622C126.164 158.903 126.321 159.517 126.04 159.992L124.319 158.973ZM0.95412 3.31793C2.79101 3.23347 4.67951 3.13149 6.61338 3.01752L6.73104 5.01405C4.791 5.12839 2.8936 5.23087 1.04598 5.31581L0.95412 3.31793ZM17.9519 2.28509C21.648 2.0377 25.4473 1.78569 29.3093 1.56088L29.4255 3.55749C25.5732 3.78175 21.7816 4.03323 18.0855 4.28063L17.9519 2.28509ZM40.6899 1.0122C44.4765 0.875628 48.289 0.792153 52.0936 0.789797L52.0949 2.7898C48.3184 2.79214 44.5299 2.875 40.7619 3.0109L40.6899 1.0122ZM63.5104 1.05711C67.364 1.25113 71.1761 1.56037 74.91 2.01546L74.668 4.00077C70.9879 3.55223 67.2236 3.2466 63.4098 3.05458L63.5104 1.05711ZM86.2128 3.93141C88.1026 4.35391 89.96 4.82739 91.7794 5.35667L91.2207 7.27706C89.4446 6.76037 87.6281 6.29721 85.7764 5.88323L86.2128 3.93141ZM91.7794 5.35667C93.6063 5.88813 95.3936 6.49324 97.1369 7.16835L96.4146 9.03338C94.7253 8.37918 92.9926 7.79252 91.2207 7.27706L91.7794 5.35667ZM107.273 12.1765C110.536 14.1784 113.563 16.46 116.309 18.9868L114.955 20.4587C112.306 18.0213 109.383 15.8173 106.227 13.8813L107.273 12.1765ZM123.812 27.4734C126.012 30.5648 127.866 33.8801 129.327 37.3805L127.482 38.151C126.079 34.7916 124.299 31.6064 122.183 28.6329L123.812 27.4734ZM132.466 48.2813C133.074 51.9371 133.28 55.7233 133.046 59.6054L131.049 59.4846C131.275 55.752 131.076 52.1164 130.493 48.6095L132.466 48.2813ZM131.182 70.7766C130.695 72.5628 130.114 74.3609 129.436 76.168L127.564 75.4657C128.22 73.7155 128.782 71.9761 129.252 70.2506L131.182 70.7766ZM129.436 76.168C128.802 77.8603 128.048 79.4402 127.186 80.9125L125.46 79.9023C126.263 78.5298 126.968 77.0532 127.564 75.4657L129.436 76.168ZM120.383 88.8568C117.709 91.0523 114.68 92.8011 111.419 94.1653L110.648 92.3202C113.755 91.0204 116.611 89.3667 119.114 87.3112L120.383 88.8568ZM101.487 97.0886C98.151 97.7232 94.7059 98.0812 91.2422 98.2091L91.1685 96.2105C94.5448 96.0858 97.8886 95.7373 101.113 95.1238L101.487 97.0886ZM80.9665 97.9554C79.2454 97.8125 77.5406 97.6227 75.8636 97.3915L76.1367 95.4103C77.7789 95.6366 79.4478 95.8224 81.1319 95.9622L80.9665 97.9554ZM75.8636 97.3915C74.1259 97.152 72.4329 96.7812 70.7905 96.2906L71.3629 94.3743C72.9088 94.836 74.5017 95.1849 76.1367 95.4103L75.8636 97.3915ZM61.4326 91.8992C58.5626 90.0077 55.9524 87.7201 53.6479 85.1345L55.1409 83.8038C57.3367 86.2673 59.8163 88.4387 62.5332 90.2292L61.4326 91.8992ZM47.7561 76.6937C46.1338 73.6793 44.844 70.4669 43.9307 67.145L45.8591 66.6147C46.7324 69.7911 47.9659 72.8634 49.5172 75.7458L47.7561 76.6937ZM42.3647 56.9719C42.3053 55.2541 42.3499 53.5303 42.5041 51.8115L44.4961 51.9902C44.3495 53.6247 44.3069 55.2656 44.3635 56.9028L42.3647 56.9719ZM42.5041 51.8115C42.7085 49.5335 43.2283 47.2667 44.0099 45.0449L45.8966 45.7086C45.1639 47.7912 44.6841 49.8951 44.4961 51.9902L42.5041 51.8115ZM50.8502 33.1936C53.6905 29.7058 57.08 26.5259 60.7514 23.8344L61.9339 25.4474C58.3915 28.0442 55.1278 31.1081 52.4011 34.4565L50.8502 33.1936ZM72.7034 17.2671C74.914 16.434 77.1363 15.8055 79.3251 15.4163L79.6752 17.3855C77.6208 17.7507 75.5174 18.3439 73.4087 19.1386L72.7034 17.2671ZM79.3251 15.4163C81.1868 15.0854 83.0911 14.8852 85.0227 14.802L85.1089 16.8001C83.2582 16.8799 81.4425 17.0713 79.6752 17.3855L79.3251 15.4163ZM96.392 15.5235C100.097 16.1137 103.808 17.0205 107.429 18.1594L106.829 20.0673C103.29 18.9541 99.6746 18.0716 96.0774 17.4986L96.392 15.5235ZM118.002 22.2194C121.579 23.8445 124.955 25.6418 128.017 27.5122L126.975 29.2189C123.983 27.3916 120.679 25.6323 117.175 24.0403L118.002 22.2194ZM137.233 34.1685C138.821 35.5581 140.185 36.9368 141.274 38.2677L139.726 39.5342C138.723 38.3083 137.442 37.0086 135.916 35.6736L137.233 34.1685ZM141.274 38.2677C142.324 39.5505 143.368 40.9093 144.386 42.3563L142.751 43.5072C141.764 42.1048 140.749 40.7846 139.726 39.5342L141.274 38.2677ZM149.575 51.2531C150.948 54.1799 152.148 57.392 153.086 60.9407L151.152 61.4516C150.246 58.0234 149.088 54.9245 147.764 52.1027L149.575 51.2531ZM154.886 71.0687C155.2 74.2612 155.315 77.6737 155.193 81.329L153.194 81.2623C153.314 77.6907 153.201 74.3659 152.896 71.2644L154.886 71.0687ZM154.299 91.5275C154.071 93.1695 153.8 94.8536 153.484 96.5812L151.516 96.2206C151.828 94.5207 152.094 92.8654 152.318 91.2531L154.299 91.5275ZM153.484 96.5812C153.123 98.5508 152.64 100.62 152.056 102.762L150.127 102.236C150.698 100.139 151.167 98.1248 151.516 96.2206L153.484 96.5812ZM148.092 114.771C146.637 118.62 145.004 122.544 143.286 126.417L141.458 125.607C143.164 121.761 144.782 117.871 146.221 114.064L148.092 114.771ZM137.944 137.817C135.98 141.807 134.025 145.591 132.198 149.002L130.435 148.059C132.252 144.665 134.197 140.902 136.15 136.934L137.944 137.817Z" fill="#CFC0F0"/>
</svg>
