<?xml version="1.0" ?><!DOCTYPE svg  PUBLIC '-//W3C//DTD SVG 1.1//EN'  'http://www.w3.org/Graphics/SVG/1.1/DTD/svg11.dtd'><svg enable-background="new 0 0 64 64" id="Layer_1" version="1.1" viewBox="0 0 64 64" xml:space="preserve" xmlns="http://www.w3.org/2000/svg" xmlns:xlink="http://www.w3.org/1999/xlink"><g><rect fill="#FFFFFF" height="52.9" width="62" x="1" y="10.1"/><path d="M64,64H0V9.1h64V64z M2,62h60V11.1H2V62z" fill="#193651"/><rect fill="#D3D7DA" height="44.9" width="54" x="5" y="14.1"/><rect fill="#FFFFFF" height="9.1" width="62" x="1" y="1"/><path d="M64,11.1H0V0h64V11.1z M2,9.1h60V2H2V9.1z" fill="#193651"/><path d="M20.8,45.6l4.6,3.6c1.3,1,2,2.5,2,4.2v1.2h16.9V43.4h0v-0.8c0-1.1-0.8-2.1-1.9-2.2   c-1.3-0.1-2.3,0.9-2.3,2.1v-1.3c0-1.1-0.8-2.1-1.9-2.2c-1.3-0.1-2.3,0.9-2.3,2.1v0.7l0,0l0-2.3c0-1.1-0.8-2.1-1.9-2.2   c-1.3-0.1-2.3,0.9-2.3,2.1v-8.7c0-1.1-0.8-2.1-1.9-2.2c-1.3-0.1-2.3,0.9-2.3,2.1c0,0,0,7.2,0,13.5l-3.3-2.6   c-1.2-0.9-2.8-0.7-3.7,0.4C19.4,43,19.6,44.6,20.8,45.6z" fill="#FFFFFF"/><path d="M45.2,55.5H26.4v-2.2c0-1.3-0.6-2.5-1.6-3.4l-4.6-3.6c-0.8-0.6-1.3-1.5-1.4-2.4c-0.1-1,0.2-1.9,0.8-2.7   c0.7-0.9,1.7-1.4,2.9-1.4c0.8,0,1.6,0.3,2.3,0.8l1.7,1.3l0-11.4c0-1.8,1.6-3.3,3.4-3.1c1.6,0.2,2.8,1.6,2.8,3.2v5.8   c0.4-0.2,0.9-0.2,1.4-0.2c1.2,0.1,2.2,0.9,2.6,2c0.5-0.2,1.1-0.3,1.6-0.3c1.1,0.1,2,0.8,2.4,1.7c0.5-0.3,1.1-0.4,1.8-0.4   c1.6,0.2,2.8,1.6,2.8,3.2L45.2,55.5z M28.4,53.5h14.9V42.5c0-0.6-0.5-1.1-1-1.1c-0.7-0.1-1.2,0.5-1.2,1.1h-2v-1.3   c0-0.6-0.4-1.2-1-1.2c-0.7-0.1-1.2,0.5-1.2,1.1v0.7l-2,0v-2.3c0-0.6-0.4-1.2-1-1.2c-0.7-0.1-1.2,0.5-1.2,1.1h-2v-8.7   c0-0.6-0.4-1.2-1-1.2c-0.7-0.1-1.2,0.5-1.2,1.1l0,15.6l-4.9-3.9c-0.7-0.6-1.8-0.4-2.3,0.3c-0.3,0.3-0.4,0.8-0.3,1.2   c0.1,0.4,0.3,0.8,0.6,1.1l4.6,3.6c1.5,1.2,2.4,3,2.4,4.9V53.5z" fill="#193651"/><line fill="#FFFFFF" x1="40" x2="40" y1="42.4" y2="45"/><rect fill="#193651" height="2.5" width="2" x="39" y="42.4"/><line fill="#FFFFFF" x1="35.8" x2="35.8" y1="41.8" y2="45"/><rect fill="#193651" height="3.2" width="2" x="34.8" y="41.8"/><line fill="#FFFFFF" x1="31.6" x2="31.6" y1="39.3" y2="45"/><rect fill="#193651" height="5.7" width="2" x="30.6" y="39.3"/><path d="M22.8,33c-0.5-0.5-1-1.1-1.4-1.8l1.7-1c0.3,0.5,0.7,1,1.1,1.4L22.8,33z M35.7,33l-1.4-1.4   c0.4-0.4,0.8-0.9,1.1-1.4l1.7,1C36.7,31.9,36.2,32.5,35.7,33z M20.5,29.2c-0.2-0.7-0.3-1.5-0.4-2.2l2-0.1c0,0.6,0.1,1.2,0.3,1.7   L20.5,29.2z M37.9,29.2L36,28.6c0.2-0.6,0.3-1.1,0.3-1.7l2,0.1C38.3,27.7,38.2,28.4,37.9,29.2z M22.3,25.2l-2-0.4   c0.2-0.7,0.4-1.4,0.7-2.1l1.8,0.9C22.6,24,22.4,24.6,22.3,25.2z M36.2,25.1c-0.1-0.6-0.3-1.1-0.6-1.6l1.8-0.9   c0.3,0.7,0.6,1.4,0.7,2.1L36.2,25.1z M23.8,22l-1.5-1.3c0.2-0.2,0.3-0.4,0.5-0.6c0.4-0.4,0.7-0.7,1.1-1l1.2,1.6   c-0.3,0.2-0.6,0.5-0.9,0.7C24.1,21.7,24,21.9,23.8,22z M34.6,22c-0.1-0.1-0.2-0.3-0.4-0.4c-0.3-0.3-0.6-0.5-0.9-0.8l1.2-1.6   c0.4,0.3,0.8,0.6,1.2,1c0.2,0.2,0.3,0.3,0.5,0.5L34.6,22z M26.7,20l-0.7-1.9c0.7-0.3,1.4-0.5,2.2-0.6l0.3,2   C27.8,19.7,27.2,19.8,26.7,20z M31.8,20c-0.5-0.2-1.1-0.4-1.7-0.4l0.2-2c0.7,0.1,1.5,0.3,2.2,0.5L31.8,20z" fill="#193651"/><line fill="#FFFFFF" x1="46" x2="46" y1="4.5" y2="6.5"/><rect fill="#193651" height="2" width="2" x="45" y="4.5"/><line fill="#FFFFFF" x1="51.2" x2="51.2" y1="4.5" y2="6.5"/><rect fill="#193651" height="2" width="2" x="50.2" y="4.5"/><line fill="#FFFFFF" x1="56.4" x2="56.4" y1="4.5" y2="6.5"/><rect fill="#193651" height="2" width="2" x="55.4" y="4.5"/><rect fill="#FFFFFF" height="52.9" width="62" x="1" y="10.1"/><rect fill="#D3D7DA" height="44.9" width="54" x="5" y="14.1"/><rect fill="#FFFFFF" height="9.1" width="62" x="1" y="1"/><path d="M0,0v64h64V0H0z M62,62H2V11.1h60V62z M62,9.1H2V2h60V9.1z" fill="#193651"/><path d="M20.8,45.6l4.6,3.6c1.3,1,2,2.5,2,4.2v1.2h16.9V43.4h0v-0.8c0-1.1-0.8-2.1-1.9-2.2   c-1.3-0.1-2.3,0.9-2.3,2.1v-1.3c0-1.1-0.8-2.1-1.9-2.2c-1.3-0.1-2.3,0.9-2.3,2.1v0.7l0,0l0-2.3c0-1.1-0.8-2.1-1.9-2.2   c-1.3-0.1-2.3,0.9-2.3,2.1v-8.7c0-1.1-0.8-2.1-1.9-2.2c-1.3-0.1-2.3,0.9-2.3,2.1c0,0,0,7.2,0,13.5l-3.3-2.6   c-1.2-0.9-2.8-0.7-3.7,0.4C19.4,43,19.6,44.6,20.8,45.6z" fill="#FFFFFF"/><line fill="#FFFFFF" x1="40" x2="40" y1="42.4" y2="45"/><line fill="#FFFFFF" x1="35.8" x2="35.8" y1="41.8" y2="45"/><line fill="#FFFFFF" x1="31.6" x2="31.6" y1="39.3" y2="45"/><path d="M42.5,39.3c-0.7-0.1-1.3,0.1-1.8,0.4c-0.5-0.9-1.4-1.6-2.4-1.7c-0.6-0.1-1.2,0-1.6,0.3   c-0.4-1.1-1.4-1.9-2.6-2c-0.5,0-1,0-1.4,0.2v-5.8c0-1.6-1.2-3.1-2.8-3.2c-1.9-0.2-3.4,1.3-3.4,3.1l0,11.4l-1.7-1.3   c-0.6-0.5-1.5-0.8-2.3-0.8c-1.1,0-2.2,0.5-2.9,1.4c-0.6,0.8-0.9,1.7-0.8,2.7c0.1,1,0.6,1.8,1.4,2.4l4.6,3.6c1,0.8,1.6,2,1.6,3.4   v2.2h18.9l0-13C45.3,40.9,44,39.5,42.5,39.3z M43.2,53.5H28.4v-0.2c0-1.9-0.9-3.7-2.4-4.9l-4.6-3.6c-0.3-0.3-0.6-0.7-0.6-1.1   c-0.1-0.4,0.1-0.9,0.3-1.2c0.5-0.7,1.6-0.8,2.3-0.3l4.9,3.9l0-15.6c0-0.7,0.6-1.2,1.2-1.1c0.5,0.1,1,0.6,1,1.2v8.7h0V45h2v-5.7h0   c0-0.7,0.6-1.2,1.2-1.1c0.5,0.1,1,0.6,1,1.2v5.4h2v-3.7c0-0.7,0.6-1.2,1.2-1.1c0.5,0.1,1,0.6,1,1.2v1.3h0V45h2v-2.5h0   c0-0.7,0.6-1.2,1.2-1.1c0.5,0.1,1,0.6,1,1.1V53.5z" fill="#193651"/><path d="M22.8,33c-0.5-0.5-1-1.1-1.4-1.8l1.7-1c0.3,0.5,0.7,1,1.1,1.4L22.8,33z M35.7,33l-1.4-1.4   c0.4-0.4,0.8-0.9,1.1-1.4l1.7,1C36.7,31.9,36.2,32.5,35.7,33z M20.5,29.2c-0.2-0.7-0.3-1.5-0.4-2.2l2-0.1c0,0.6,0.1,1.2,0.3,1.7   L20.5,29.2z M37.9,29.2L36,28.6c0.2-0.6,0.3-1.1,0.3-1.7l2,0.1C38.3,27.7,38.2,28.4,37.9,29.2z M22.3,25.2l-2-0.4   c0.2-0.7,0.4-1.4,0.7-2.1l1.8,0.9C22.6,24,22.4,24.6,22.3,25.2z M36.2,25.1c-0.1-0.6-0.3-1.1-0.6-1.6l1.8-0.9   c0.3,0.7,0.6,1.4,0.7,2.1L36.2,25.1z M23.8,22l-1.5-1.3c0.2-0.2,0.3-0.4,0.5-0.6c0.4-0.4,0.7-0.7,1.1-1l1.2,1.6   c-0.3,0.2-0.6,0.5-0.9,0.7C24.1,21.7,24,21.9,23.8,22z M34.6,22c-0.1-0.1-0.2-0.3-0.4-0.4c-0.3-0.3-0.6-0.5-0.9-0.8l1.2-1.6   c0.4,0.3,0.8,0.6,1.2,1c0.2,0.2,0.3,0.3,0.5,0.5L34.6,22z M26.7,20l-0.7-1.9c0.7-0.3,1.4-0.5,2.2-0.6l0.3,2   C27.8,19.7,27.2,19.8,26.7,20z M31.8,20c-0.5-0.2-1.1-0.4-1.7-0.4l0.2-2c0.7,0.1,1.5,0.3,2.2,0.5L31.8,20z" fill="#193651"/><line fill="#FFFFFF" x1="46" x2="46" y1="4.5" y2="6.5"/><rect fill="#193651" height="2" width="2" x="45" y="4.5"/><line fill="#FFFFFF" x1="51.2" x2="51.2" y1="4.5" y2="6.5"/><rect fill="#193651" height="2" width="2" x="50.2" y="4.5"/><line fill="#FFFFFF" x1="56.4" x2="56.4" y1="4.5" y2="6.5"/><rect fill="#193651" height="2" width="2" x="55.4" y="4.5"/></g></svg>