<?xml version="1.0" ?><!DOCTYPE svg  PUBLIC '-//W3C//DTD SVG 1.1//EN'  'http://www.w3.org/Graphics/SVG/1.1/DTD/svg11.dtd'><svg enable-background="new 0 0 64 64" id="Layer_1" version="1.1" viewBox="0 0 64 64" xml:space="preserve" xmlns="http://www.w3.org/2000/svg" xmlns:xlink="http://www.w3.org/1999/xlink"><g><circle cx="32" cy="32" fill="#E1E6E9" r="31"/><path d="M42.1,25.5L25.5,42.1c-0.6,0.6-1.7,0.7-2.4,0.2l-20.3-15c-0.9-0.7-1-2-0.2-2.8l22-22   c0.8-0.8,2.1-0.7,2.8,0.2l15,20.3C42.8,23.8,42.8,24.8,42.1,25.5z" fill="#FFFFFF"/><path d="M24.1,43.7c-0.6,0-1.2-0.2-1.7-0.6l-20.3-15C1.4,27.7,1,26.9,1,26.1c-0.1-0.8,0.2-1.6,0.8-2.2l22-22   c0.5-0.5,1.3-0.8,2-0.8c0.9,0,1.8,0.4,2.3,1.2l15,20.3c0.8,1.1,0.7,2.7-0.3,3.7L26.2,42.8C25.6,43.4,24.9,43.7,24.1,43.7z M25.8,3   c-0.2,0-0.4,0.1-0.6,0.2l-22,22C3,25.5,2.9,25.8,3,25.9c0,0.1,0.1,0.4,0.3,0.6l20.3,15c0.3,0.2,0.8,0.2,1.1-0.1l16.7-16.7   c0.3-0.3,0.3-0.8,0.1-1.1l-15-20.3C26.4,3.1,26.1,3,25.8,3z" fill="#193651"/><polygon fill="#F8D97C" points="6.9,25.6 25.6,6.9 38.1,24 23.9,38.1  "/><path d="M24.3,21.2l-3.1,3.1c-1,1-2.6,1-3.5,0l0,0c-1-1-1-2.6,0-3.5l3.1-3.1c1-1,2.6-1,3.5,0l0,0   C25.3,18.7,25.3,20.2,24.3,21.2z" fill="#FFFFFF"/><polygon fill="#FFFFFF" points="62,53.4 56.2,52.4 56.9,48.3 50.1,46.2 48.8,40.2 42.9,39.1 43.6,35 38.1,29.5 29.5,38.1 53.4,62    61.6,61.6  "/><path d="M53,63l-25-25l10-10l6.6,6.6l-0.6,3.6l5.5,1l1.3,6.1l7.1,2.2l-0.6,4l5.7,1l-0.5,10L53,63z M30.9,38.1   L53.8,61l6.9-0.3l0.3-6.4l-5.9-1.1l0.7-4.2l-6.6-2l-1.3-6l-6.1-1.2l0.7-4.5l-4.4-4.4L30.9,38.1z" fill="#193651"/><line fill="#FFFFFF" x1="32.6" x2="59.3" y1="35" y2="61.7"/><rect fill="#193651" height="2" transform="matrix(0.7071 0.7071 -0.7071 0.7071 47.6605 -18.3025)" width="37.8" x="27" y="47.4"/><circle cx="32" cy="32" fill="#E1E6E9" r="31"/><path d="M42.1,25.5L25.5,42.1c-0.6,0.6-1.7,0.7-2.4,0.2l-20.3-15c-0.9-0.7-1-2-0.2-2.8l22-22   c0.8-0.8,2.1-0.7,2.8,0.2l15,20.3C42.8,23.8,42.8,24.8,42.1,25.5z" fill="#FFFFFF"/><polygon fill="#F8D97C" points="6.9,25.6 25.6,6.9 38.1,24 23.9,38.1  "/><path d="M24.3,21.2l-3.1,3.1c-1,1-2.6,1-3.5,0l0,0c-1-1-1-2.6,0-3.5l3.1-3.1c1-1,2.6-1,3.5,0l0,0   C25.3,18.7,25.3,20.2,24.3,21.2z" fill="#FFFFFF"/><polygon fill="#FFFFFF" points="62,53.4 56.2,52.4 56.9,48.3 50.1,46.2 48.8,40.2 42.9,39.1 43.6,35 38.1,29.5 29.5,38.1 53.4,62    61.6,61.6  "/><line fill="#FFFFFF" x1="32.6" x2="59.3" y1="35" y2="61.7"/><path d="M57.4,51.6l0.6-4l-7.1-2.2l-1.3-6.1l-5.5-1l0.6-3.6l-5.2-5.2l3.3-3.3c1-1,1.1-2.6,0.3-3.7l-15-20.3   C27.6,1.4,26.7,1,25.8,1c-0.8,0-1.5,0.3-2,0.8l-22,22c-0.6,0.6-0.9,1.4-0.8,2.2c0.1,0.8,0.5,1.6,1.2,2.1l20.3,15   c0.5,0.4,1.1,0.6,1.7,0.6c0.8,0,1.5-0.3,2-0.8l3.3-3.3L53,63l9.6-0.4l0.5-10L57.4,51.6z M24.7,41.4c-0.3,0.3-0.8,0.3-1.1,0.1   l-20.3-15C3,26.3,3,26.1,3,25.9c0-0.1,0-0.4,0.2-0.7l22-22C25.4,3,25.6,3,25.8,3c0.3,0,0.5,0.1,0.7,0.3l15,20.3   c0.3,0.3,0.2,0.8-0.1,1.1L24.7,41.4z M53.8,61L30.9,38.1l1.7-1.7L57,60.9L53.8,61z M60.7,60.7l-1,0L34,35l4-4l0.1-0.1l4.4,4.4   l-0.7,4.5l6.1,1.2l1.3,6l6.6,2l-0.7,4.2l5.9,1.1L60.7,60.7z" fill="#193651"/></g></svg>
