<?xml version="1.0" ?><!DOCTYPE svg  PUBLIC '-//W3C//DTD SVG 1.1//EN'  'http://www.w3.org/Graphics/SVG/1.1/DTD/svg11.dtd'><svg enable-background="new 0 0 64 64" id="Layer_1" version="1.1" viewBox="0 0 64 64" xml:space="preserve" xmlns="http://www.w3.org/2000/svg" xmlns:xlink="http://www.w3.org/1999/xlink"><g><path d="M22.3,57.8l7.4,2.4l3.3-7c2.3,0.2,4.6,0,6.8-0.6l4.4,6.3l6.9-3.5l-2.6-7.3c1.7-1.5,3.2-3.2,4.4-5.2l7.6,1.4   l2.4-7.4l-7-3.3c0.2-2.3,0-4.6-0.6-6.8l6.3-4.4l-3.5-6.9l-7.3,2.6c-1.5-1.7-3.2-3.2-5.2-4.4L47,6.2l-7.4-2.4l-3.3,7   c-2.3-0.2-4.6,0-6.8,0.6L25.1,5l-6.9,3.5l2.6,7.3c-1.7,1.5-3.2,3.2-4.4,5.2l-7.6-1.4L6.5,27l7,3.3c-0.2,2.3,0,4.6,0.6,6.8l-6.3,4.4   l3.5,6.9l7.3-2.6c1.5,1.7,3.2,3.2,5.2,4.4L22.3,57.8z" fill="#FFFFFF"/><path d="M30.2,61.4l-9-2.9l1.4-7.8c-1.6-1-3.1-2.3-4.4-3.7l-7.4,2.7l-4.3-8.4l6.5-4.5c-0.4-1.9-0.6-3.8-0.5-5.8   l-7.1-3.4l2.9-9l7.8,1.4c1-1.6,2.3-3.1,3.7-4.4L17,8l8.4-4.3l4.5,6.5c1.9-0.4,3.8-0.6,5.8-0.5l3.4-7.1l9,2.9l-1.4,7.8   c1.6,1,3.1,2.3,4.4,3.7l7.4-2.7l4.3,8.4l-6.5,4.5c0.4,1.9,0.6,3.8,0.5,5.8l7.1,3.4l-2.9,9l-7.8-1.4c-1,1.6-2.3,3.1-3.7,4.4l2.7,7.4   l-8.4,4.3l-4.5-6.5c-1.9,0.4-3.8,0.6-5.8,0.5L30.2,61.4z M23.5,57.2l5.7,1.8l3.2-6.8l0.7,0.1c2.2,0.2,4.4,0,6.5-0.5l0.7-0.2   l4.3,6.2l5.3-2.7l-2.5-7.1l0.5-0.4c1.7-1.4,3.1-3.1,4.2-5l0.4-0.6l7.4,1.3l1.8-5.7l-6.8-3.2l0.1-0.7c0.2-2.2,0-4.4-0.5-6.5   l-0.2-0.7l6.2-4.3l-2.7-5.3l-7.1,2.5l-0.4-0.5c-1.4-1.7-3.1-3.1-5-4.2l-0.6-0.4l1.3-7.4L40.2,5L37,11.8l-0.7-0.1   c-2.2-0.2-4.4,0-6.5,0.5l-0.7,0.2l-4.3-6.2L19.5,9l2.5,7.1l-0.5,0.4c-1.7,1.4-3.1,3.1-4.2,5l-0.4,0.6l-7.4-1.3l-1.8,5.7l6.8,3.2   l-0.1,0.7c-0.2,2.2,0,4.4,0.5,6.5l0.2,0.7L9,41.9l2.7,5.3l7.1-2.5l0.4,0.5c1.4,1.7,3.1,3.1,5,4.2l0.6,0.4L23.5,57.2z" fill="#193651"/><path d="M31.9,47.1C22,45.2,16.5,34.6,20.8,25.5c2.9-6.2,9.8-9.8,16.6-8.6c9.9,1.9,15.4,12.5,11.1,21.6   C45.7,44.8,38.7,48.4,31.9,47.1z" fill="#F16051"/><path d="M34.2,38.2c-4.6-0.4-7.2-5.4-4.8-9.4c1-1.8,3.7-3.2,5.8-3c4.6,0.4,7.2,5.4,4.8,9.4   C39,37,36.3,38.4,34.2,38.2z" fill="#FFFFFF"/><path d="M34.6,39.2c-0.2,0-0.3,0-0.5,0c-2.5-0.2-4.7-1.7-5.8-3.9c-1.1-2.2-1.1-4.8,0.2-7c1.2-2.1,4.3-3.7,6.8-3.5   c2.5,0.2,4.7,1.7,5.8,3.9c1.1,2.2,1.1,4.8-0.2,7C39.7,37.7,37,39.2,34.6,39.2z M34.8,26.8c-1.7,0-3.8,1.1-4.6,2.5   c-0.9,1.6-1,3.5-0.2,5.1c0.8,1.6,2.4,2.6,4.2,2.8c1.7,0.2,4-1.1,4.9-2.5c0.9-1.6,1-3.5,0.2-5.1c-0.8-1.6-2.4-2.6-4.2-2.8   C35,26.8,34.9,26.8,34.8,26.8z" fill="#193651"/><path d="M31.8,1.1C14.7,1.1,0.9,14.9,0.9,32v0c0,17.1,13.8,30.9,30.9,30.9h0L31.8,1.1L31.8,1.1z" fill="#FFFFFF"/><path d="M32.8,63.9h-1C14.2,63.9-0.1,49.6-0.1,32c0-17.6,14.3-31.9,31.9-31.9h1L32.8,63.9z M30.8,2.1   C14.8,2.7,1.9,15.9,1.9,32c0,16.1,12.9,29.3,28.9,29.9V2.1z" fill="#193651"/><path d="M31.8,63.9C21.4,63.9,13,49.6,13,32c0-17.6,8.4-31.9,18.8-31.9l0,2C22.5,2.1,15,15.5,15,32   c0,16.5,7.5,29.9,16.8,29.9V63.9z" fill="#193651"/><line fill="#FFFFFF" x1="31.8" x2="2.6" y1="21.2" y2="21.2"/><rect fill="#193651" height="2" width="29.2" x="2.6" y="20.2"/><line fill="#FFFFFF" x1="31.8" x2="2.6" y1="42.8" y2="42.8"/><rect fill="#193651" height="2" width="29.2" x="2.6" y="41.8"/><line fill="#FFFFFF" x1="24.9" x2="22.9" y1="26.8" y2="26.8"/><rect fill="#193651" height="2" width="2" x="22.9" y="25.8"/><line fill="#FFFFFF" x1="24.9" x2="22.9" y1="32" y2="32"/><rect fill="#193651" height="2" width="2" x="22.9" y="31"/><line fill="#FFFFFF" x1="24.9" x2="22.9" y1="37.2" y2="37.2"/><rect fill="#193651" height="2" width="2" x="22.9" y="36.2"/><path d="M22.3,57.8l7.4,2.4l3.3-7c2.3,0.2,4.6,0,6.8-0.6l4.4,6.3l6.9-3.5l-2.6-7.3c1.7-1.5,3.2-3.2,4.4-5.2l7.6,1.4   l2.4-7.4l-7-3.3c0.2-2.3,0-4.6-0.6-6.8l6.3-4.4l-3.5-6.9l-7.3,2.6c-1.5-1.7-3.2-3.2-5.2-4.4L47,6.2l-7.4-2.4l-3.3,7   c-2.3-0.2-4.6,0-6.8,0.6L25.1,5l-6.9,3.5l2.6,7.3c-1.7,1.5-3.2,3.2-4.4,5.2l-7.6-1.4L6.5,27l7,3.3c-0.2,2.3,0,4.6,0.6,6.8l-6.3,4.4   l3.5,6.9l7.3-2.6c1.5,1.7,3.2,3.2,5.2,4.4L22.3,57.8z" fill="#FFFFFF"/><path d="M31.9,47.1C22,45.2,16.5,34.6,20.8,25.5c2.9-6.2,9.8-9.8,16.6-8.6c9.9,1.9,15.4,12.5,11.1,21.6   C45.7,44.8,38.7,48.4,31.9,47.1z" fill="#F16051"/><path d="M34.2,38.2c-4.6-0.4-7.2-5.4-4.8-9.4c1-1.8,3.7-3.2,5.8-3c4.6,0.4,7.2,5.4,4.8,9.4   C39,37,36.3,38.4,34.2,38.2z" fill="#FFFFFF"/><path d="M31.8,1.1C14.7,1.1,0.9,14.9,0.9,32v0c0,17.1,13.8,30.9,30.9,30.9h0L31.8,1.1L31.8,1.1z" fill="#FFFFFF"/><line fill="#FFFFFF" x1="31.8" x2="2.6" y1="21.2" y2="21.2"/><line fill="#FFFFFF" x1="31.8" x2="2.6" y1="42.8" y2="42.8"/><path d="M57,33.1c0.1-1.9-0.1-3.9-0.5-5.8l6.5-4.5l-4.3-8.4L51.2,17c-1.3-1.4-2.8-2.7-4.4-3.7l1.4-7.8l-9-2.9   l-3.4,7.1c-1,0-2,0-3,0.1V0.1h-1C14.2,0.1-0.1,14.4-0.1,32c0,17.6,14.3,31.9,31.9,31.9c0,0,0,0,0,0h0h1l0-7.8l0.9-1.8   c1.9,0.1,3.9-0.1,5.8-0.5l4.5,6.5l8.4-4.3l-2.7-7.4c1.4-1.3,2.7-2.8,3.7-4.4l7.8,1.4l2.9-9L57,33.1z M23.7,3.2   c-4.2,3.4-7.6,9.5-9.3,16.9l-10,0C7.9,12,15,5.7,23.7,3.2z M1.9,32c0-3.4,0.6-6.8,1.7-9.8l10.3,0C13.3,25.3,13,28.6,13,32   s0.3,6.7,0.9,9.8l-10.3,0C2.5,38.8,1.9,35.4,1.9,32z M4.3,43.8l10,0c1.8,7.4,5.1,13.5,9.3,16.9C15,58.3,7.9,52,4.3,43.8z    M30.8,61.8c-6.5-0.7-12-7.9-14.4-18l14.4,0V61.8z M30.8,41.8l-14.8,0C15.3,38.8,15,35.4,15,32s0.3-6.8,0.9-9.8l14.8,0V41.8z    M30.8,20.2l-14.4,0c2.5-10.1,7.9-17.3,14.4-18V20.2z M59.8,43.2l-7.4-1.3c-1.4,2.3-3.1,4.3-5.1,6l2.5,7.1l-5.3,2.7l-4.3-6.2   c-2.6,0.7-5.1,1-7.5,0.7l0-13.3c0.4,0.1,4.8,1.3,8.1-3.2c1.3-2.2,1.4-4.8,0.2-7c-1.1-2.2-3.3-3.7-5.8-3.9c-0.8-0.1-1.7,0.1-2.5,0.3   l0-13.4c1.2-0.1,4.2,0,4.2,0L40.2,5l5.7,1.8l-1.3,7.4c2.5,1.5,4.5,3.1,6,5.1l7.1-2.5l2.7,5.3l-6.2,4.3c0.7,2.7,1,5.3,0.6,7.8   l6.8,3.2L59.8,43.2z M32.8,27.3c0.7-0.3,4.4-1.5,6.5,2.3c0.8,1.6,0.8,3.5-0.2,5.1c-2.8,3.5-5.9,2.3-6.4,2.1L32.8,27.3z" fill="#193651"/><line fill="#FFFFFF" x1="24.9" x2="22.9" y1="26.8" y2="26.8"/><rect fill="#193651" height="2" width="2" x="22.9" y="25.8"/><line fill="#FFFFFF" x1="24.9" x2="22.9" y1="32" y2="32"/><rect fill="#193651" height="2" width="2" x="22.9" y="31"/><line fill="#FFFFFF" x1="24.9" x2="22.9" y1="37.2" y2="37.2"/><rect fill="#193651" height="2" width="2" x="22.9" y="36.2"/></g></svg>