<?xml version="1.0" ?><!DOCTYPE svg  PUBLIC '-//W3C//DTD SVG 1.1//EN'  'http://www.w3.org/Graphics/SVG/1.1/DTD/svg11.dtd'><svg enable-background="new 0 0 64 64" id="Layer_1" version="1.1" viewBox="0 0 64 64" xml:space="preserve" xmlns="http://www.w3.org/2000/svg" xmlns:xlink="http://www.w3.org/1999/xlink"><g><rect fill="#F16051" height="46" stroke="#193651" stroke-miterlimit="10" stroke-width="2" width="62" x="1" y="9"/><polygon fill="#FFFFFF" points="2,47.4 8.7,54 11.3,54 2,44.8  "/><polygon fill="#FFFFFF" points="2,37.7 18.5,54 21.1,54 2,35.1  "/><polygon fill="#FFFFFF" points="2,27.9 28.4,54 31,54 2,25.4  "/><polygon fill="#FFFFFF" points="2,18.2 38.2,54 40.8,54 2,15.6  "/><polygon fill="#FFFFFF" points="3.5,10 48,54 50.6,54 6.1,10  "/><polygon fill="#FFFFFF" points="13.3,10 57.9,54 60.5,54 16,10  "/><polygon fill="#FFFFFF" points="23.2,10 62,48.4 62,45.8 25.8,10  "/><polygon fill="#FFFFFF" points="33,10 62,38.7 62,36.1 35.6,10  "/><polygon fill="#FFFFFF" points="42.8,10 62,28.9 62,26.4 45.4,10  "/><polygon fill="#FFFFFF" points="55.3,10 52.7,10 62,19.2 62,16.6  "/><rect fill="#FFFFFF" height="38" width="54" x="5" y="13"/><line fill="#FFFFFF" stroke="#193651" stroke-miterlimit="10" stroke-width="2" x1="16.5" x2="47.5" y1="42.4" y2="42.4"/><line fill="#FFFFFF" stroke="#193651" stroke-miterlimit="10" stroke-width="2" x1="13.6" x2="50.4" y1="37.3" y2="37.3"/><rect fill="#2EA2DB" height="9.5" width="9.5" x="44.5" y="18"/><line fill="#FFFFFF" stroke="#193651" stroke-miterlimit="10" stroke-width="2" x1="13.1" x2="13.1" y1="20.8" y2="22.8"/><line fill="#FFFFFF" stroke="#193651" stroke-miterlimit="10" stroke-width="2" x1="18.3" x2="18.3" y1="20.8" y2="22.8"/><line fill="#FFFFFF" stroke="#193651" stroke-miterlimit="10" stroke-width="2" x1="23.6" x2="23.6" y1="20.8" y2="22.8"/><rect fill="#F16051" height="46" width="62" x="1" y="9"/><path d="M0,8v48h64V8H0z M62,54H2V10h60V54z" fill="#193651"/><polygon fill="#FFFFFF" points="2,47.4 8.7,54 11.3,54 2,44.8  "/><polygon fill="#FFFFFF" points="2,37.7 18.5,54 21.1,54 2,35.1  "/><polygon fill="#FFFFFF" points="2,27.9 28.4,54 31,54 2,25.4  "/><polygon fill="#FFFFFF" points="2,18.2 38.2,54 40.8,54 2,15.6  "/><polygon fill="#FFFFFF" points="3.5,10 48,54 50.6,54 6.1,10  "/><polygon fill="#FFFFFF" points="13.3,10 57.9,54 60.5,54 16,10  "/><polygon fill="#FFFFFF" points="23.2,10 62,48.4 62,45.8 25.8,10  "/><polygon fill="#FFFFFF" points="33,10 62,38.7 62,36.1 35.6,10  "/><polygon fill="#FFFFFF" points="42.8,10 62,28.9 62,26.4 45.4,10  "/><polygon fill="#FFFFFF" points="55.3,10 52.7,10 62,19.2 62,16.6  "/><rect fill="#FFFFFF" height="38" width="54" x="5" y="13"/><line fill="#FFFFFF" stroke="#193651" stroke-miterlimit="10" stroke-width="2" x1="16.5" x2="47.5" y1="42.4" y2="42.4"/><line fill="#FFFFFF" stroke="#193651" stroke-miterlimit="10" stroke-width="2" x1="13.6" x2="50.4" y1="37.3" y2="37.3"/><rect fill="#2EA2DB" height="9.5" width="9.5" x="44.5" y="18"/><line fill="#FFFFFF" stroke="#193651" stroke-miterlimit="10" stroke-width="2" x1="13.1" x2="13.1" y1="20.8" y2="22.8"/><line fill="#FFFFFF" stroke="#193651" stroke-miterlimit="10" stroke-width="2" x1="18.3" x2="18.3" y1="20.8" y2="22.8"/><line fill="#FFFFFF" stroke="#193651" stroke-miterlimit="10" stroke-width="2" x1="23.6" x2="23.6" y1="20.8" y2="22.8"/></g></svg>