<?xml version="1.0" ?><!DOCTYPE svg  PUBLIC '-//W3C//DTD SVG 1.1//EN'  'http://www.w3.org/Graphics/SVG/1.1/DTD/svg11.dtd'><svg enable-background="new 0 0 64 64" id="Layer_1" version="1.1" viewBox="0 0 64 64" xml:space="preserve" xmlns="http://www.w3.org/2000/svg" xmlns:xlink="http://www.w3.org/1999/xlink"><g><rect fill="#FFFFFF" height="42.5" width="50" x="7" y="8.9"/><path d="M58,52.4H6V7.9h52V52.4z M8,50.4h48V9.9H8V50.4z" fill="#193651"/><rect fill="#2EA2DB" height="34.5" width="42" x="11" y="12.9"/><path d="M7,51.4V60c0,1.7,1.3,3,3,3h44c1.7,0,3-1.3,3-3v-8.6H7z" fill="#FFFFFF"/><path d="M54,64H10c-2.2,0-4-1.8-4-4v-9.6h52V60C58,62.2,56.2,64,54,64z M8,52.4V60c0,1.1,0.9,2,2,2h44   c1.1,0,2-0.9,2-2v-7.6H8z" fill="#193651"/><path d="M57,8.9V4c0-1.7-1.3-3-3-3H10C8.3,1,7,2.3,7,4v4.9H57z" fill="#FFFFFF"/><path d="M58,9.9H6V4c0-2.2,1.8-4,4-4h44c2.2,0,4,1.8,4,4V9.9z M8,7.9h48V4c0-1.1-0.9-2-2-2H10C8.9,2,8,2.9,8,4V7.9z   " fill="#193651"/><line fill="#FFFFFF" x1="41.4" x2="41.4" y1="56.2" y2="58.2"/><rect fill="#193651" height="2" width="2" x="40.4" y="56.2"/><line fill="#FFFFFF" x1="22.6" x2="22.6" y1="56.2" y2="58.2"/><rect fill="#193651" height="2" width="2" x="21.6" y="56.2"/><line fill="#FFFFFF" x1="27.7" x2="36.3" y1="5" y2="5"/><rect fill="#193651" height="2" width="8.6" x="27.7" y="4"/><line fill="#FFFFFF" x1="26.6" x2="37.4" y1="57.2" y2="57.2"/><rect fill="#193651" height="2" width="10.8" x="26.6" y="56.2"/><rect fill="#FFFFFF" height="19.9" width="19.9" x="22" y="20.2"/><path d="M43,41.1H21V19.2H43V41.1z M23,39.1H41V21.2H23V39.1z" fill="#193651"/><path d="M29.6,20.2v3.9c0,1.3,1.1,2.4,2.4,2.4c1.3,0,2.4-1.1,2.4-2.4v-3.9H29.6z" fill="#FFFFFF"/><path d="M32,27.5c-1.9,0-3.4-1.5-3.4-3.4v-4.9h6.7v4.9C35.4,26,33.9,27.5,32,27.5z M30.6,21.2v2.9   c0,0.8,0.6,1.4,1.4,1.4c0.8,0,1.4-0.6,1.4-1.4v-2.9H30.6z" fill="#193651"/><polygon fill="#FDBF5E" points="32,29.8 33.1,32 35.4,32.3 33.7,34 34.1,36.3 32,35.2 29.9,36.3 30.3,34 28.6,32.3 30.9,32  "/><rect fill="#FFFFFF" height="42.5" width="50" x="7" y="8.9"/><rect fill="#2EA2DB" height="34.5" width="42" x="11" y="12.9"/><path d="M7,51.4V60c0,1.7,1.3,3,3,3h44c1.7,0,3-1.3,3-3v-8.6H7z" fill="#FFFFFF"/><path d="M57,8.9V4c0-1.7-1.3-3-3-3H10C8.3,1,7,2.3,7,4v4.9H57z" fill="#FFFFFF"/><path d="M54,0H10C7.8,0,6,1.8,6,4v56c0,2.2,1.8,4,4,4h44c2.2,0,4-1.8,4-4V4C58,1.8,56.2,0,54,0z M56,60   c0,1.1-0.9,2-2,2H10c-1.1,0-2-0.9-2-2v-7.6h48V60z M56,50.4H8V9.9h48V50.4z M56,7.9H8V4c0-1.1,0.9-2,2-2h44c1.1,0,2,0.9,2,2V7.9z" fill="#193651"/><line fill="#FFFFFF" x1="41.4" x2="41.4" y1="56.2" y2="58.2"/><rect fill="#193651" height="2" width="2" x="40.4" y="56.2"/><line fill="#FFFFFF" x1="22.6" x2="22.6" y1="56.2" y2="58.2"/><rect fill="#193651" height="2" width="2" x="21.6" y="56.2"/><line fill="#FFFFFF" x1="27.7" x2="36.3" y1="5" y2="5"/><rect fill="#193651" height="2" width="8.6" x="27.7" y="4"/><line fill="#FFFFFF" x1="26.6" x2="37.4" y1="57.2" y2="57.2"/><rect fill="#193651" height="2" width="10.8" x="26.6" y="56.2"/><rect fill="#FFFFFF" height="19.9" width="19.9" x="22" y="20.2"/><path d="M29.6,20.2v3.9c0,1.3,1.1,2.4,2.4,2.4c1.3,0,2.4-1.1,2.4-2.4v-3.9H29.6z" fill="#FFFFFF"/><path d="M21,19.2v21.9H43V19.2H21z M30.6,21.2h2.7v2.9c0,0.8-0.6,1.4-1.4,1.4c-0.8,0-1.4-0.6-1.4-1.4V21.2z    M41,39.1H23V21.2h5.6v2.9c0,1.9,1.5,3.4,3.4,3.4c1.9,0,3.4-1.5,3.4-3.4v-2.9H41V39.1z" fill="#193651"/><polygon fill="#FDBF5E" points="32,29.8 33.1,32 35.4,32.3 33.7,34 34.1,36.3 32,35.2 29.9,36.3 30.3,34 28.6,32.3 30.9,32  "/></g></svg>