<?xml version="1.0" ?><!DOCTYPE svg  PUBLIC '-//W3C//DTD SVG 1.1//EN'  'http://www.w3.org/Graphics/SVG/1.1/DTD/svg11.dtd'><svg enable-background="new 0 0 64 64" id="Layer_1" version="1.1" viewBox="0 0 64 64" xml:space="preserve" xmlns="http://www.w3.org/2000/svg" xmlns:xlink="http://www.w3.org/1999/xlink"><g><polygon fill="#FFFFFF" points="38.1,23.8 38.1,1 15.5,1 22.3,7.9 1,29.5 10.7,39.3 32,17.7  "/><path d="M10.7,40.7L-0.4,29.5L20.9,7.9L13.2,0l26,0l0,26.3L32,19.1L10.7,40.7z M2.4,29.5l8.3,8.4L32,16.2l5.1,5.2   l0-19.4L17.9,2l5.8,5.9L2.4,29.5z" fill="#193651"/><polygon fill="#FDBF5E" points="6.6,29.5 27.9,7.9 25.1,5 34.2,5 34.2,14.2 32,12 10.7,33.6  "/><polygon fill="#FFFFFF" points="63,35.2 52.6,24.7 31.3,46.3 25.2,40.2 25.2,63 47.8,63 41.7,56.8  "/><path d="M24.2,64l0-26.3l7.1,7.2l21.3-21.6l11.8,11.9L43.1,56.8l7.1,7.2L24.2,64z M26.2,42.6l0,19.4l19.2,0   l-5.1-5.2l21.3-21.6l-9-9.1L31.3,47.8L26.2,42.6z" fill="#193651"/><polygon fill="#2EA2DB" points="29.1,59 29.1,49.8 31.3,52 52.6,30.4 57.4,35.2 36.1,56.8 38.2,59  "/><line fill="#FFFFFF" x1="41.8" x2="43.2" y1="44.8" y2="46.2"/><rect fill="#193651" height="2" transform="matrix(0.703 0.7111 -0.7111 0.703 44.9579 -16.7269)" width="2" x="41.5" y="44.5"/><line fill="#FFFFFF" x1="46.4" x2="47.8" y1="40.1" y2="41.5"/><rect fill="#193651" height="2" transform="matrix(0.703 0.7112 -0.7112 0.703 43.0072 -21.4114)" width="2" x="46.1" y="39.8"/><line fill="#FFFFFF" x1="51.1" x2="52.5" y1="35.4" y2="36.8"/><rect fill="#193651" height="2" transform="matrix(0.7031 0.7111 -0.7111 0.7031 41.0432 -26.0943)" width="2" x="50.8" y="35.1"/><line fill="#FFFFFF" x1="10.8" x2="12.2" y1="27.2" y2="28.6"/><rect fill="#193651" height="2" transform="matrix(0.703 0.7112 -0.7112 0.703 23.2641 8.457632e-002)" width="2" x="10.5" y="26.9"/><line fill="#FFFFFF" x1="15.5" x2="16.9" y1="22.5" y2="23.9"/><rect fill="#193651" height="2" transform="matrix(0.7031 0.7111 -0.7111 0.7031 21.3058 -4.6001)" width="2" x="15.2" y="22.2"/><line fill="#FFFFFF" x1="20.1" x2="21.5" y1="17.8" y2="19.2"/><rect fill="#193651" height="2" transform="matrix(0.703 0.7112 -0.7112 0.703 19.3547 -9.2839)" width="2" x="19.8" y="17.5"/><polygon fill="#193651" points="2,22.5 0,22.5 0,0 8.6,0 8.6,2 2,2  "/><polygon fill="#193651" points="18.2,64 0,64 0,37.5 2,37.5 2,62 18.2,62  "/><polygon fill="#193651" points="63.3,64 53.7,64 53.7,62 61.3,62 61.3,40.5 63.3,40.5  "/><polygon fill="#193651" points="63.3,27.5 61.3,27.5 61.3,2 44.1,2 44.1,0 63.3,0  "/><polygon fill="#FFFFFF" points="38.1,23.8 38.1,1 15.5,1 22.3,7.9 1,29.5 10.7,39.3 32,17.7  "/><path d="M10.7,40.7L-0.4,29.5L20.9,7.9L13.2,0l26,0l0,26.3L32,19.1L10.7,40.7z M2.4,29.5l8.3,8.4L32,16.2l5.1,5.2   l0-19.4L17.9,2l5.8,5.9L2.4,29.5z" fill="#193651"/><polygon fill="#FDBF5E" points="6.6,29.5 27.9,7.9 25.1,5 34.2,5 34.2,14.2 32,12 10.7,33.6  "/><polygon fill="#FFFFFF" points="63,35.2 52.6,24.7 31.3,46.3 25.2,40.2 25.2,63 47.8,63 41.7,56.8  "/><path d="M24.2,64l0-26.3l7.1,7.2l21.3-21.6l11.8,11.9L43.1,56.8l7.1,7.2L24.2,64z M26.2,42.6l0,19.4l19.2,0   l-5.1-5.2l21.3-21.6l-9-9.1L31.3,47.8L26.2,42.6z" fill="#193651"/><polygon fill="#2EA2DB" points="29.1,59 29.1,49.8 31.3,52 52.6,30.4 57.4,35.2 36.1,56.8 38.2,59  "/><line fill="#FFFFFF" x1="41.8" x2="43.2" y1="44.8" y2="46.2"/><rect fill="#193651" height="2" transform="matrix(0.703 0.7111 -0.7111 0.703 44.9579 -16.7269)" width="2" x="41.5" y="44.5"/><line fill="#FFFFFF" x1="46.4" x2="47.8" y1="40.1" y2="41.5"/><rect fill="#193651" height="2" transform="matrix(0.703 0.7112 -0.7112 0.703 43.0072 -21.4114)" width="2" x="46.1" y="39.8"/><line fill="#FFFFFF" x1="51.1" x2="52.5" y1="35.4" y2="36.8"/><rect fill="#193651" height="2" transform="matrix(0.7031 0.7111 -0.7111 0.7031 41.0432 -26.0943)" width="2" x="50.8" y="35.1"/><line fill="#FFFFFF" x1="10.8" x2="12.2" y1="27.2" y2="28.6"/><rect fill="#193651" height="2" transform="matrix(0.703 0.7112 -0.7112 0.703 23.2641 8.457632e-002)" width="2" x="10.5" y="26.9"/><line fill="#FFFFFF" x1="15.5" x2="16.9" y1="22.5" y2="23.9"/><rect fill="#193651" height="2" transform="matrix(0.7031 0.7111 -0.7111 0.7031 21.3058 -4.6001)" width="2" x="15.2" y="22.2"/><line fill="#FFFFFF" x1="20.1" x2="21.5" y1="17.8" y2="19.2"/><rect fill="#193651" height="2" transform="matrix(0.703 0.7112 -0.7112 0.703 19.3547 -9.2839)" width="2" x="19.8" y="17.5"/><polygon fill="#193651" points="2,22.5 0,22.5 0,0 8.6,0 8.6,2 2,2  "/><polygon fill="#193651" points="18.2,64 0,64 0,37.5 2,37.5 2,62 18.2,62  "/><polygon fill="#193651" points="63.3,64 53.7,64 53.7,62 61.3,62 61.3,40.5 63.3,40.5  "/><polygon fill="#193651" points="63.3,27.5 61.3,27.5 61.3,2 44.1,2 44.1,0 63.3,0  "/></g></svg>