<?xml version="1.0" ?><!DOCTYPE svg  PUBLIC '-//W3C//DTD SVG 1.1//EN'  'http://www.w3.org/Graphics/SVG/1.1/DTD/svg11.dtd'><svg enable-background="new 0 0 64 64" id="Layer_1" version="1.1" viewBox="0 0 64 64" xml:space="preserve" xmlns="http://www.w3.org/2000/svg" xmlns:xlink="http://www.w3.org/1999/xlink"><g><path d="M7.8,36L28,56.2c9.1,9.1,23.9,9.1,33,0l0.9-0.9c1.5-1.5,1.5-3.8,0-5.3l-9.7-9.7c-1.5-1.5-3.8-1.5-5.3,0   l-4.1,4.1c-1.8,1.8-4.8,1.8-6.6,0L19.7,27.8c-1.8-1.8-1.8-4.8,0-6.6l4.1-4.1c1.5-1.5,1.5-3.8,0-5.3L14,2.1c-1.5-1.5-3.8-1.5-5.3,0   L7.8,3C-1.3,12.1-1.3,26.9,7.8,36z" fill="#FFFFFF"/><path d="M44.5,64c-6.5,0-12.6-2.5-17.2-7.1L7.1,36.7C2.5,32.1,0,26,0,19.5C0,13,2.5,6.9,7.1,2.3L8,1.4   C8.9,0.5,10.1,0,11.4,0c1.3,0,2.5,0.5,3.4,1.4l9.7,9.7c0.9,0.9,1.4,2.1,1.4,3.4c0,1.3-0.5,2.5-1.4,3.4l-4.1,4.1   c-0.7,0.7-1.1,1.6-1.1,2.6c0,1,0.4,1.9,1.1,2.6l16.5,16.5c1.4,1.4,3.8,1.4,5.2,0l4.1-4.1c0.9-0.9,2.1-1.4,3.4-1.4   c1.3,0,2.5,0.5,3.4,1.4l9.7,9.7c0.9,0.9,1.4,2.1,1.4,3.4c0,1.3-0.5,2.5-1.4,3.4l-0.9,0.9C57.1,61.5,51,64,44.5,64z M11.4,2   C10.6,2,10,2.3,9.4,2.8L8.5,3.7C4.3,7.9,2,13.5,2,19.5S4.3,31,8.5,35.2l20.2,20.2C33,59.7,38.6,62,44.5,62s11.6-2.3,15.8-6.5   l0.9-0.9c0.5-0.5,0.8-1.2,0.8-1.9s-0.3-1.4-0.8-1.9l-9.7-9.7c-1-1-2.9-1-3.9,0L43.5,45c-1.1,1.1-2.5,1.7-4,1.7   c-1.5,0-2.9-0.6-4-1.7L19,28.5c-1.1-1.1-1.7-2.5-1.7-4c0-1.5,0.6-2.9,1.7-4l4.1-4.1c0.5-0.5,0.8-1.2,0.8-1.9c0-0.7-0.3-1.4-0.8-1.9   l-9.7-9.7C12.8,2.3,12.1,2,11.4,2z" fill="#193651"/><path d="M44.5,59c-5.2,0-10-2-13.7-5.7L10.7,33.1c-7.5-7.5-7.5-19.8,0-27.3l0.7-0.7l9.4,9.4l-3.9,3.9   c-3.4,3.4-3.4,8.9,0,12.3l16.5,16.5c1.6,1.6,3.8,2.5,6.1,2.5c2.3,0,4.5-0.9,6.1-2.5l3.9-3.9l9.4,9.4l-0.7,0.7   C54.5,57,49.7,59,44.5,59z" fill="#4FBF9F"/><polygon fill="#FFFFFF" points="63,1 31,1 31,22.7 35.6,22.7 35.6,29.6 45.4,22.7 63,22.7  "/><path d="M34.6,31.5v-7.7H30V0h34v23.7H45.7L34.6,31.5z M32,21.7h4.6v5.9l8.5-5.9H62V2H32V21.7z" fill="#193651"/><rect fill="#FDBF5E" height="13.7" width="24" x="35" y="5"/><line fill="#FFFFFF" x1="41.7" x2="41.7" y1="10.9" y2="12.9"/><rect fill="#193651" height="2" width="2" x="40.7" y="10.9"/><line fill="#FFFFFF" x1="47" x2="47" y1="10.9" y2="12.9"/><rect fill="#193651" height="2" width="2" x="46" y="10.9"/><line fill="#FFFFFF" x1="52.3" x2="52.3" y1="10.9" y2="12.9"/><rect fill="#193651" height="2" width="2" x="51.3" y="10.9"/><path d="M7.8,36L28,56.2c9.1,9.1,23.9,9.1,33,0l0.9-0.9c1.5-1.5,1.5-3.8,0-5.3l-9.7-9.7c-1.5-1.5-3.8-1.5-5.3,0   l-4.1,4.1c-1.8,1.8-4.8,1.8-6.6,0L19.7,27.8c-1.8-1.8-1.8-4.8,0-6.6l4.1-4.1c1.5-1.5,1.5-3.8,0-5.3L14,2.1c-1.5-1.5-3.8-1.5-5.3,0   L7.8,3C-1.3,12.1-1.3,26.9,7.8,36z" fill="#FFFFFF"/><path d="M62.6,49.3l-9.7-9.7c-0.9-0.9-2.1-1.4-3.4-1.4c-1.3,0-2.5,0.5-3.4,1.4l-4.1,4.1c-1.4,1.4-3.8,1.4-5.2,0   L20.4,27.1c-0.7-0.7-1.1-1.6-1.1-2.6c0-1,0.4-1.9,1.1-2.6l4.1-4.1c0.9-0.9,1.4-2.1,1.4-3.4s-0.5-2.5-1.4-3.4l-9.7-9.7   C13.8,0.5,12.6,0,11.4,0C10.1,0,8.9,0.5,8,1.4c0,0-7.4,5.3-8,18.1C0,26,2.5,32.1,7.1,36.7l20.2,20.2C31.9,61.5,38,64,44.5,64   c11.2,0,18.1-8,18.1-8c0.9-0.9,1.4-2.1,1.4-3.4C64,51.4,63.5,50.2,62.6,49.3z M61.2,54.6c0,0-7.4,7.8-16.7,7.4   c-6,0-11.6-2.3-15.8-6.5L8.5,35.2C4.3,31,2,25.4,2,19.5C2,8.8,9.4,2.8,9.4,2.8C10,2.3,10.6,2,11.4,2c0.7,0,1.4,0.3,1.9,0.8l9.7,9.7   c0.5,0.5,0.8,1.2,0.8,1.9c0,0.7-0.3,1.4-0.8,1.9L19,20.5c-1.1,1.1-1.7,2.5-1.7,4c0,1.5,0.6,2.9,1.7,4L35.5,45   c1.1,1.1,2.5,1.7,4,1.7c1.5,0,2.9-0.6,4-1.7l4.1-4.1c1-1,2.9-1,3.9,0l9.7,9.7c0.5,0.5,0.8,1.2,0.8,1.9C62,53.4,61.7,54,61.2,54.6z" fill="#193651"/><path d="M44.5,59c-5.2,0-10-2-13.7-5.7L10.7,33.1c-7.5-7.5-7.5-19.8,0-27.3l0.7-0.7l9.4,9.4l-3.9,3.9   c-3.4,3.4-3.4,8.9,0,12.3l16.5,16.5c1.6,1.6,3.8,2.5,6.1,2.5c2.3,0,4.5-0.9,6.1-2.5l3.9-3.9l9.4,9.4l-0.7,0.7   C54.5,57,49.7,59,44.5,59z" fill="#4FBF9F"/><polygon fill="#FFFFFF" points="63,1 31,1 31,22.7 35.6,22.7 35.6,29.6 45.4,22.7 63,22.7  "/><path d="M34.6,31.5v-7.7H30V0h34v23.7H45.7L34.6,31.5z M32,21.7h4.6v5.9l8.5-5.9H62V2H32V21.7z" fill="#193651"/><rect fill="#FDBF5E" height="13.7" width="24" x="35" y="5"/><line fill="#FFFFFF" x1="41.7" x2="41.7" y1="10.9" y2="12.9"/><rect fill="#193651" height="2" width="2" x="40.7" y="10.9"/><line fill="#FFFFFF" x1="47" x2="47" y1="10.9" y2="12.9"/><rect fill="#193651" height="2" width="2" x="46" y="10.9"/><line fill="#FFFFFF" x1="52.3" x2="52.3" y1="10.9" y2="12.9"/><rect fill="#193651" height="2" width="2" x="51.3" y="10.9"/></g></svg>