<?xml version="1.0" ?><!DOCTYPE svg  PUBLIC '-//W3C//DTD SVG 1.1//EN'  'http://www.w3.org/Graphics/SVG/1.1/DTD/svg11.dtd'><svg enable-background="new 0 0 64 64" id="Layer_1" version="1.1" viewBox="0 0 64 64" xml:space="preserve" xmlns="http://www.w3.org/2000/svg" xmlns:xlink="http://www.w3.org/1999/xlink"><g><path d="M24,44.4c0-6.6-5.5-11.8-12.2-11.4C5.9,33.4,1.2,38.2,1,44.1c-0.1,3.8,1.6,7.2,4.4,9.3V63h13.3v-6.9h2.5   c1.2,0,2.2-1,2.2-2.2v-3.6h3.4L24,44.4z" fill="#4FBF9F"/><path d="M19.7,64H4.4V53.9c-2.9-2.5-4.5-6-4.4-9.9C0.2,37.7,5.3,32.4,11.7,32c7.2-0.4,13.1,5.2,13.3,12.2l3.5,7   h-4.1v2.6c0,1.8-1.5,3.2-3.2,3.2h-1.5V64z M6.4,62h11.3v-6.9h3.5c0.7,0,1.2-0.6,1.2-1.2v-4.6h2.8L23,44.7v-0.2   c0-6-5.1-10.8-11.1-10.4C6.5,34.3,2.2,38.8,2,44.1c-0.1,3.3,1.4,6.5,4,8.5L6.4,53V62z" fill="#193651"/><path d="M40,44.4c0-6.6,5.5-11.8,12.2-11.4c5.9,0.4,10.6,5.2,10.7,11.1c0.1,3.8-1.6,7.2-4.4,9.3V63H45.3v-6.9h-2.5   c-1.2,0-2.2-1-2.2-2.2v-3.6h-3.4L40,44.4z" fill="#E1E6E9"/><path d="M59.6,64H44.3v-6.9h-1.5c-1.8,0-3.2-1.5-3.2-3.2v-2.6h-4.1l3.5-7c0.1-7,6.1-12.6,13.3-12.2   c6.4,0.4,11.5,5.7,11.7,12.1c0.1,3.8-1.5,7.4-4.4,9.9V64z M46.3,62h11.3v-9l0.4-0.3c2.6-2.1,4.1-5.2,4-8.5   c-0.2-5.3-4.5-9.8-9.8-10.1C46.1,33.6,41,38.5,41,44.4v0.2l-2.3,4.5h2.8v4.6c0,0.7,0.6,1.2,1.2,1.2h3.5V62z" fill="#193651"/><path d="M56.6,12.2C43.1-1.4,20.9-1.4,7.4,12.2l-1.4-1.4c14.4-14.4,37.7-14.4,52.1,0L56.6,12.2z" fill="#193651"/><path d="M50.1,18.7c-0.4-0.4-0.8-0.8-1.3-1.2l1.3-1.5c0.5,0.4,0.9,0.8,1.4,1.3L50.1,18.7z M13.9,18.7l-1.4-1.4   c0.5-0.5,1-1,1.5-1.4l1.3,1.5C14.8,17.8,14.4,18.3,13.9,18.7z M47.3,16.3c-0.5-0.4-1-0.8-1.6-1.1l1.1-1.7c0.6,0.4,1.2,0.8,1.7,1.2   L47.3,16.3z M16.8,16.2l-1.2-1.6c0.6-0.4,1.1-0.8,1.7-1.2l1.1,1.7C17.9,15.5,17.3,15.8,16.8,16.2z M44.1,14.3   c-0.6-0.3-1.1-0.6-1.7-0.8l0.8-1.8c0.6,0.3,1.3,0.6,1.9,0.9L44.1,14.3z M20.1,14.2l-0.9-1.8c0.6-0.3,1.2-0.6,1.9-0.9l0.8,1.8   C21.2,13.6,20.6,13.9,20.1,14.2z M40.6,12.7c-0.6-0.2-1.2-0.4-1.8-0.6l0.5-1.9c0.7,0.2,1.3,0.4,2,0.6L40.6,12.7z M23.6,12.6   l-0.7-1.9c0.7-0.2,1.3-0.4,2-0.6l0.5,1.9C24.8,12.2,24.2,12.4,23.6,12.6z M36.9,11.7c-0.6-0.1-1.3-0.2-1.9-0.3l0.2-2   c0.7,0.1,1.4,0.2,2.1,0.3L36.9,11.7z M27.3,11.7l-0.4-2c0.7-0.1,1.4-0.2,2.1-0.3l0.2,2C28.6,11.5,27.9,11.6,27.3,11.7z M33.1,11.3   c-0.6,0-1.3,0-1.9,0l-0.1-2c0.7,0,1.4,0,2.1,0L33.1,11.3z" fill="#193651"/><path d="M43.6,25.3c-3.1-3.1-7.2-4.8-11.6-4.8c-4.4,0-8.5,1.7-11.6,4.8L19,23.9c3.5-3.5,8.1-5.4,13-5.4   s9.5,1.9,13,5.4L43.6,25.3z" fill="#193651"/><path d="M32,36.7c-2.4,0-4.4-2-4.4-4.4s2-4.4,4.4-4.4s4.4,2,4.4,4.4S34.4,36.7,32,36.7z M32,29.9   c-1.3,0-2.4,1.1-2.4,2.4s1.1,2.4,2.4,2.4c1.3,0,2.4-1.1,2.4-2.4S33.3,29.9,32,29.9z" fill="#193651"/><line fill="#FFFFFF" x1="46.2" x2="46.2" y1="43.5" y2="45.5"/><rect fill="#193651" height="2" width="2" x="45.2" y="43.5"/><line fill="#FFFFFF" x1="17.8" x2="17.8" y1="43.5" y2="45.5"/><rect fill="#193651" height="2" width="2" x="16.8" y="43.5"/><path d="M24,44.4c0-6.6-5.5-11.8-12.2-11.4C5.9,33.4,1.2,38.2,1,44.1c-0.1,3.8,1.6,7.2,4.4,9.3V63h13.3v-6.9h2.5   c1.2,0,2.2-1,2.2-2.2v-3.6h3.4L24,44.4z" fill="#4FBF9F"/><path d="M19.7,64H4.4V53.9c-2.9-2.5-4.5-6-4.4-9.9C0.2,37.7,5.3,32.4,11.7,32c7.2-0.4,13.1,5.2,13.3,12.2l3.5,7   h-4.1v2.6c0,1.8-1.5,3.2-3.2,3.2h-1.5V64z M6.4,62h11.3v-6.9h3.5c0.7,0,1.2-0.6,1.2-1.2v-4.6h2.8L23,44.7v-0.2   c0-6-5.1-10.8-11.1-10.4C6.5,34.3,2.2,38.8,2,44.1c-0.1,3.3,1.4,6.5,4,8.5L6.4,53V62z" fill="#193651"/><path d="M40,44.4c0-6.6,5.5-11.8,12.2-11.4c5.9,0.4,10.6,5.2,10.7,11.1c0.1,3.8-1.6,7.2-4.4,9.3V63H45.3v-6.9h-2.5   c-1.2,0-2.2-1-2.2-2.2v-3.6h-3.4L40,44.4z" fill="#E1E6E9"/><path d="M52.3,32c-7.2-0.4-13.1,5.2-13.3,12.2l-3.5,7h4.1v2.6c0,1.8,1.5,3.2,3.2,3.2h1.5V64h15.3V53.9   c2.9-2.5,4.5-6,4.4-9.9C63.8,37.7,58.7,32.4,52.3,32z M58,52.7L57.6,53v9H46.3v-6.9h-3.5c-0.7,0-1.2-0.6-1.2-1.2v-4.6h-2.8l2.3-4.5   v-0.2c0-6,5.1-10.8,11.1-10.4c5.3,0.3,9.6,4.8,9.8,10.1C62.1,47.5,60.6,50.6,58,52.7z" fill="#193651"/><path d="M56.6,12.2C43.1-1.4,20.9-1.4,7.4,12.2l-1.4-1.4c14.4-14.4,37.7-14.4,52.1,0L56.6,12.2z" fill="#193651"/><path d="M50.1,18.7c-0.4-0.4-0.8-0.8-1.3-1.2l1.3-1.5c0.5,0.4,0.9,0.8,1.4,1.3L50.1,18.7z M13.9,18.7l-1.4-1.4   c0.5-0.5,1-1,1.5-1.4l1.3,1.5C14.8,17.8,14.4,18.3,13.9,18.7z M47.3,16.3c-0.5-0.4-1-0.8-1.6-1.1l1.1-1.7c0.6,0.4,1.2,0.8,1.7,1.2   L47.3,16.3z M16.8,16.2l-1.2-1.6c0.6-0.4,1.1-0.8,1.7-1.2l1.1,1.7C17.9,15.5,17.3,15.8,16.8,16.2z M44.1,14.3   c-0.6-0.3-1.1-0.6-1.7-0.8l0.8-1.8c0.6,0.3,1.3,0.6,1.9,0.9L44.1,14.3z M20.1,14.2l-0.9-1.8c0.6-0.3,1.2-0.6,1.9-0.9l0.8,1.8   C21.2,13.6,20.6,13.9,20.1,14.2z M40.6,12.7c-0.6-0.2-1.2-0.4-1.8-0.6l0.5-1.9c0.7,0.2,1.3,0.4,2,0.6L40.6,12.7z M23.6,12.6   l-0.7-1.9c0.7-0.2,1.3-0.4,2-0.6l0.5,1.9C24.8,12.2,24.2,12.4,23.6,12.6z M36.9,11.7c-0.6-0.1-1.3-0.2-1.9-0.3l0.2-2   c0.7,0.1,1.4,0.2,2.1,0.3L36.9,11.7z M27.3,11.7l-0.4-2c0.7-0.1,1.4-0.2,2.1-0.3l0.2,2C28.6,11.5,27.9,11.6,27.3,11.7z M33.1,11.3   c-0.6,0-1.3,0-1.9,0l-0.1-2c0.7,0,1.4,0,2.1,0L33.1,11.3z" fill="#193651"/><path d="M43.6,25.3c-3.1-3.1-7.2-4.8-11.6-4.8c-4.4,0-8.5,1.7-11.6,4.8L19,23.9c3.5-3.5,8.1-5.4,13-5.4   s9.5,1.9,13,5.4L43.6,25.3z" fill="#193651"/><path d="M32,36.7c-2.4,0-4.4-2-4.4-4.4s2-4.4,4.4-4.4s4.4,2,4.4,4.4S34.4,36.7,32,36.7z M32,29.9   c-1.3,0-2.4,1.1-2.4,2.4s1.1,2.4,2.4,2.4c1.3,0,2.4-1.1,2.4-2.4S33.3,29.9,32,29.9z" fill="#193651"/><line fill="#FFFFFF" x1="46.2" x2="46.2" y1="43.5" y2="45.5"/><rect fill="#193651" height="2" width="2" x="45.2" y="43.5"/><line fill="#FFFFFF" x1="17.8" x2="17.8" y1="43.5" y2="45.5"/><rect fill="#193651" height="2" width="2" x="16.8" y="43.5"/></g></svg>