<?xml version="1.0" ?><!DOCTYPE svg  PUBLIC '-//W3C//DTD SVG 1.1//EN'  'http://www.w3.org/Graphics/SVG/1.1/DTD/svg11.dtd'><svg enable-background="new 0 0 64 64" id="Layer_1" version="1.1" viewBox="0 0 64 64" xml:space="preserve" xmlns="http://www.w3.org/2000/svg" xmlns:xlink="http://www.w3.org/1999/xlink"><g><g><path d="M32,1.1c0,0-11.6,7.8-29.5,7.2c0,0-3.1,11.1,0.1,23.8H32V1.1z" fill="#2EA2DB"/><path d="M61.7,32.1c3.2-12.7,0.1-23.8,0.1-23.8C43.8,8.9,32.2,1.1,32.2,1.1h0v31H61.7z" fill="#FFFFFF"/><path d="M2.7,32.1c2.8,11.2,10.5,23.7,29.5,31v-31H2.7z" fill="#FFFFFF"/><path d="M32,32.1v31h0c19-7.3,26.7-19.8,29.5-31H32z" fill="#2EA2DB"/><path d="M61.5,8.3C43.6,8.9,32,1.1,32,1.1    S20.4,8.9,2.5,8.3c0,0-11,39.2,29.5,54.8C72.6,47.5,61.5,8.3,61.5,8.3z" fill="none" stroke="#193651" stroke-miterlimit="10" stroke-width="2"/></g><path d="M32,1.1c0,0-11.6,7.8-29.5,7.2c0,0-3.1,11.1,0.1,23.8H32V1.1z" fill="#2EA2DB"/><path d="M61.7,32.1c3.2-12.7,0.1-23.8,0.1-23.8C43.8,8.9,32.2,1.1,32.2,1.1h0v31H61.7z" fill="#FFFFFF"/><path d="M2.7,32.1c2.8,11.2,10.5,23.7,29.5,31v-31H2.7z" fill="#FFFFFF"/><path d="M32,32.1v31h0c19-7.3,26.7-19.8,29.5-31H32z" fill="#2EA2DB"/><path d="M62.5,8l-0.2-0.8l-0.8,0c-17.3,0.6-28.8-7-29-7.1L32-0.1l-0.6,0.4c-0.1,0.1-11.6,7.6-29,7.1l-0.8,0L1.5,8   C1.4,8.4-9.3,48.2,31.6,64l0.4,0.1l0.4-0.1C73.3,48.2,62.6,8.4,62.5,8z M61,29.7C58,44.8,48.2,55.6,32,62C15.8,55.6,6,44.8,3,29.7   C1.1,20.1,2.7,11.8,3.2,9.3C18.8,9.6,29.5,3.8,32,2.2c2.5,1.5,13.2,7.3,28.8,7.1C61.3,11.8,62.9,20.1,61,29.7z" fill="#193651"/></g></svg>