<?xml version="1.0" ?><!DOCTYPE svg  PUBLIC '-//W3C//DTD SVG 1.1//EN'  'http://www.w3.org/Graphics/SVG/1.1/DTD/svg11.dtd'><svg enable-background="new 0 0 64 64" id="Layer_1" version="1.1" viewBox="0 0 64 64" xml:space="preserve" xmlns="http://www.w3.org/2000/svg" xmlns:xlink="http://www.w3.org/1999/xlink"><g><path d="M44,39.4c-2.1-0.4-3.6-2.1-3.6-4.2v-3.1l0-0.2H23.5v3.2c0,2.1-1.5,3.9-3.6,4.2L9.7,41.2   c-3.5,0.6-6.1,3.7-6.1,7.2l0.1,14.1h56.7V48.4c0-3.5-2.6-6.6-6.1-7.2L44,39.4z" fill="#4FBF9F"/><path d="M61.4,63.5H2.7L2.6,48.4c0-4.1,2.9-7.5,6.9-8.2l10.3-1.8c1.6-0.3,2.7-1.6,2.7-3.2V31h19.2l-0.4,1.3v2.9   c0,1.6,1.1,2.9,2.7,3.2l10.4,1.8c4,0.7,6.9,4.1,6.9,8.2V63.5z M4.7,61.5h54.7V48.4c0-3.1-2.2-5.7-5.2-6.2l-10.4-1.8   c-2.5-0.4-4.4-2.6-4.4-5.2V33H24.5v2.2c0,2.6-1.8,4.8-4.4,5.2L9.9,42.2c-3.1,0.5-5.3,3.2-5.2,6.2L4.7,61.5z" fill="#193651"/><path d="M20.1,30.6C22.6,34.3,24,38.6,24,43v2.8h15.2V43c0-4.4,1.3-8.7,3.9-12.3c0.4-0.6,0.8-1.2,1.1-1.9   c2.4-5,1.7-11-1.9-15.2C36.7,7,26.4,7,20.8,13.6c-3.7,4.4-4.3,10.8-1.5,15.8C19.6,29.8,19.8,30.3,20.1,30.6z" fill="#FFFFFF"/><path d="M40.2,46.8H23V43c0-4.2-1.3-8.3-3.7-11.8c-0.3-0.4-0.6-0.9-0.8-1.3c-3-5.4-2.4-12.2,1.6-16.9   c2.9-3.4,7.1-5.4,11.5-5.4c4.4,0,8.6,1.9,11.5,5.3c3.8,4.4,4.6,11,2,16.3c-0.3,0.7-0.7,1.4-1.2,2c-2.4,3.4-3.7,7.5-3.7,11.8V46.8z    M25,44.8h13.2V43c0-4.7,1.4-9.1,4-12.9c0.4-0.5,0.7-1.1,1-1.8c2.3-4.6,1.6-10.3-1.7-14.1c-2.5-2.9-6.1-4.6-10-4.6   c-3.9,0-7.5,1.7-10,4.6c-3.4,4.1-4,9.9-1.4,14.7c0.2,0.4,0.5,0.8,0.7,1.1C23.6,33.9,25,38.4,25,43V44.8z" fill="#193651"/><path d="M31.6,52.5L31.6,52.5c-3.1,0-5.7-2.5-5.7-5.7v-1h11.3v1C37.2,50,34.7,52.5,31.6,52.5z" fill="#FFFFFF"/><path d="M31.6,53.5c-3.7,0-6.7-3-6.7-6.7v-2h13.3v2C38.2,50.5,35.2,53.5,31.6,53.5z M26.9,46.8L26.9,46.8   c0,2.6,2.1,4.7,4.7,4.7c2.6,0,4.7-2.1,4.7-4.7v0H26.9z" fill="#193651"/><line fill="#FFFFFF" x1="32" x2="32" y1="0.5" y2="4.8"/><rect fill="#193651" height="4.3" width="2" x="31" y="0.5"/><line fill="#FFFFFF" x1="13.1" x2="16.9" y1="11.4" y2="13.6"/><rect fill="#193651" height="2" transform="matrix(0.8661 0.5 -0.5 0.8661 8.2482 -5.8383)" width="4.3" x="12.8" y="11.5"/><line fill="#FFFFFF" x1="47.1" x2="50.9" y1="13.6" y2="11.4"/><rect fill="#193651" height="4.3" transform="matrix(0.5 0.866 -0.866 0.5 35.2906 -36.1802)" width="2" x="48" y="10.3"/><line fill="#FFFFFF" x1="21.1" x2="23.3" y1="3.4" y2="7.2"/><rect fill="#193651" height="2" transform="matrix(0.5001 0.866 -0.866 0.5001 15.684 -16.5732)" width="4.3" x="20" y="4.3"/><line fill="#FFFFFF" x1="10.2" x2="14.6" y1="22.3" y2="22.3"/><rect fill="#193651" height="2" width="4.3" x="10.2" y="21.3"/><line fill="#FFFFFF" x1="49.4" x2="53.8" y1="22.3" y2="22.3"/><rect fill="#193651" height="2" width="4.3" x="49.4" y="21.3"/><line fill="#FFFFFF" x1="40.7" x2="42.9" y1="7.2" y2="3.4"/><rect fill="#193651" height="4.3" transform="matrix(0.8661 0.4999 -0.4999 0.8661 8.247 -20.1891)" width="2" x="40.8" y="3.1"/><path d="M36.8,31.4C36.8,31.4,36.8,31.4,36.8,31.4c-2.3,0-5.6-1.8-8.6-4.8c-3.7-3.7-6.2-8.5-4-10.7   c0.4-0.4,1-0.8,2.1-0.8c2.3,0,5.6,1.8,8.6,4.8c1.9,1.9,3.3,3.9,4.1,5.8c0.9,2.2,0.9,3.9-0.1,4.9C38.6,31,37.9,31.4,36.8,31.4z    M26.4,17.1c-0.2,0-0.5,0-0.7,0.2c-0.8,0.8,0.5,4.3,4,7.9c2.9,2.9,5.7,4.2,7.1,4.2c0,0,0,0,0,0c0.2,0,0.5,0,0.7-0.2   c0.3-0.3,0.4-1.2-0.3-2.7c-0.7-1.6-2-3.5-3.7-5.2C30.6,18.4,27.8,17.1,26.4,17.1z" fill="#193651"/><path d="M37.3,23.8l-1.6-1.2c2.1-2.9,2.4-4.9,1.9-5.4c-0.5-0.5-2.5-0.2-5.4,1.9c-0.5,0.4-1.1,0.8-1.6,1.3L29.3,19   c0.6-0.5,1.1-1,1.7-1.4c3.4-2.5,6.5-3.2,8-1.7C40.4,17.4,39.8,20.4,37.3,23.8z" fill="#193651"/><path d="M26.3,31.4c-0.9,0-1.6-0.3-2.1-0.8c-1.5-1.5-0.8-4.5,1.7-8l1.6,1.2c-2.1,2.9-2.4,4.9-1.9,5.4   c0.5,0.5,2.5,0.2,5.4-1.9c0.5-0.4,1.1-0.8,1.6-1.3l1.3,1.5c-0.6,0.5-1.1,1-1.7,1.4C30,30.6,27.9,31.4,26.3,31.4z" fill="#193651"/><line fill="#FFFFFF" x1="17.1" x2="17.1" y1="56.5" y2="58.5"/><rect fill="#193651" height="2" width="2" x="16.1" y="56.5"/><line fill="#FFFFFF" x1="24.5" x2="24.5" y1="56.5" y2="58.5"/><rect fill="#193651" height="2" width="2" x="23.5" y="56.5"/><line fill="#FFFFFF" x1="32" x2="32" y1="56.5" y2="58.5"/><rect fill="#193651" height="2" width="2" x="31" y="56.5"/><line fill="#FFFFFF" x1="39.5" x2="39.5" y1="56.5" y2="58.5"/><rect fill="#193651" height="2" width="2" x="38.5" y="56.5"/><line fill="#FFFFFF" x1="46.9" x2="46.9" y1="56.5" y2="58.5"/><rect fill="#193651" height="2" width="2" x="45.9" y="56.5"/><path d="M44,39.4c-2.1-0.4-3.6-2.1-3.6-4.2v-3.1l0-0.2H23.5v3.2c0,2.1-1.5,3.9-3.6,4.2L9.7,41.2   c-3.5,0.6-6.1,3.7-6.1,7.2l0.1,14.1h56.7V48.4c0-3.5-2.6-6.6-6.1-7.2L44,39.4z" fill="#4FBF9F"/><path d="M20.1,30.6C22.6,34.3,24,38.6,24,43v2.8h15.2V43c0-4.4,1.3-8.7,3.9-12.3c0.4-0.6,0.8-1.2,1.1-1.9   c2.4-5,1.7-11-1.9-15.2C36.7,7,26.4,7,20.8,13.6c-3.7,4.4-4.3,10.8-1.5,15.8C19.6,29.8,19.8,30.3,20.1,30.6z" fill="#FFFFFF"/><path d="M31.6,52.5L31.6,52.5c-3.1,0-5.7-2.5-5.7-5.7v-1h11.3v1C37.2,50,34.7,52.5,31.6,52.5z" fill="#FFFFFF"/><path d="M54.5,40.2l-10.4-1.8c-1.2-0.2-2.2-1.1-2.6-2.2h-0.2c0.6-1.8,1.5-3.4,2.5-5c0.4-0.6,0.8-1.3,1.2-2   c2.6-5.3,1.8-11.9-2-16.3C40.2,9.6,36,7.6,31.6,7.6c-4.5,0-8.7,2-11.5,5.4c-4,4.7-4.6,11.5-1.6,16.9c0.2,0.4,0.5,0.9,0.8,1.3   c1.2,1.8,2.2,3.7,2.8,5.7c-0.5,0.8-1.3,1.3-2.2,1.5L9.5,40.2c-4,0.7-6.9,4.2-6.9,8.2l0.1,15.1h58.6V48.4   C61.4,44.3,58.5,40.9,54.5,40.2z M20.2,28.9c-2.6-4.7-2.1-10.6,1.4-14.7c2.5-3,6.2-4.6,10-4.6c3.8,0,7.5,1.7,10,4.6   c3.3,3.8,4,9.5,1.7,14.1c-0.3,0.6-0.7,1.2-1,1.8c-2.6,3.8-4,8.2-4,12.9v1.8H25V43c0-4.6-1.4-9.1-4.1-12.9   C20.6,29.7,20.4,29.3,20.2,28.9z M26.9,46.8h9.3v0c0,2.6-2.1,4.7-4.7,4.7C29,51.5,26.9,49.4,26.9,46.8L26.9,46.8z M59.4,61.5H4.7   L4.6,48.4c0-3.1,2.2-5.7,5.2-6.2l10.3-1.8c0.9-0.2,1.8-0.6,2.5-1.2c0.2,1.2,0.4,2.5,0.4,3.7v3.8h1.9v0c0,3.7,3,6.7,6.7,6.7   s6.7-3,6.7-6.7v0h2V43c0-1.5,0.2-3,0.5-4.4c0.8,0.9,1.8,1.6,3.1,1.8l10.4,1.8c3,0.5,5.2,3.1,5.2,6.2V61.5z" fill="#193651"/><line fill="#FFFFFF" x1="32" x2="32" y1="0.5" y2="4.8"/><rect fill="#193651" height="4.3" width="2" x="31" y="0.5"/><line fill="#FFFFFF" x1="13.1" x2="16.9" y1="11.4" y2="13.6"/><rect fill="#193651" height="2" transform="matrix(0.8661 0.5 -0.5 0.8661 8.2482 -5.8383)" width="4.3" x="12.8" y="11.5"/><line fill="#FFFFFF" x1="47.1" x2="50.9" y1="13.6" y2="11.4"/><rect fill="#193651" height="4.3" transform="matrix(0.5 0.866 -0.866 0.5 35.2906 -36.1802)" width="2" x="48" y="10.3"/><line fill="#FFFFFF" x1="21.1" x2="23.3" y1="3.4" y2="7.2"/><rect fill="#193651" height="2" transform="matrix(0.5001 0.866 -0.866 0.5001 15.684 -16.5732)" width="4.3" x="20" y="4.3"/><line fill="#FFFFFF" x1="10.2" x2="14.6" y1="22.3" y2="22.3"/><rect fill="#193651" height="2" width="4.3" x="10.2" y="21.3"/><line fill="#FFFFFF" x1="49.4" x2="53.8" y1="22.3" y2="22.3"/><rect fill="#193651" height="2" width="4.3" x="49.4" y="21.3"/><line fill="#FFFFFF" x1="40.7" x2="42.9" y1="7.2" y2="3.4"/><rect fill="#193651" height="4.3" transform="matrix(0.8661 0.4999 -0.4999 0.8661 8.247 -20.1891)" width="2" x="40.8" y="3.1"/><path d="M39.1,25.7c-0.3-0.8-0.8-1.6-1.4-2.5c2.2-3.2,2.7-6,1.3-7.4c-1.4-1.4-4.2-0.9-7.3,1.3   c-1.9-1.3-3.8-2.1-5.2-2.1c-1.1,0-1.8,0.4-2.1,0.8c-1.6,1.6-0.7,4.5,1.3,7.4c-2.2,3.2-2.7,6-1.3,7.4c0.5,0.5,1.2,0.8,2.1,0.8   c1.4,0,3.3-0.7,5.2-2c1.9,1.3,3.8,2.1,5.2,2.1c0,0,0,0,0,0c1.1,0,1.8-0.4,2.1-0.8C40,29.6,40,27.9,39.1,25.7z M37.5,17.3   c0.4,0.4,0.3,2-1.1,4.3c-0.5-0.6-1-1.1-1.5-1.6c-0.5-0.5-1.1-1-1.6-1.5C35.5,17,37.1,16.9,37.5,17.3z M25.6,29.2   c-0.4-0.4-0.3-2,1.1-4.2c0.5,0.6,1,1.1,1.5,1.6c0.5,0.5,1.1,1,1.6,1.5C27.6,29.5,26.1,29.6,25.6,29.2z M37.5,29.2   c-0.2,0.2-0.5,0.2-0.7,0.2c0,0,0,0,0,0c-0.8,0-2.1-0.4-3.5-1.3c0.2-0.2,0.4-0.3,0.6-0.5L32.6,26c-0.3,0.3-0.7,0.6-1,0.8   c-0.6-0.5-1.3-1.1-1.9-1.7c-3.6-3.6-4.8-7.1-4-7.9c0.2-0.2,0.5-0.2,0.7-0.2c0.8,0,2.1,0.4,3.5,1.3c-0.2,0.2-0.4,0.3-0.6,0.5   l1.3,1.5c0.3-0.3,0.7-0.6,1-0.8c0.6,0.5,1.3,1.1,1.9,1.7c1.7,1.7,3,3.5,3.7,5.2C37.9,28,37.8,28.9,37.5,29.2z" fill="#193651"/><line fill="#FFFFFF" x1="17.1" x2="17.1" y1="56.5" y2="58.5"/><rect fill="#193651" height="2" width="2" x="16.1" y="56.5"/><line fill="#FFFFFF" x1="24.5" x2="24.5" y1="56.5" y2="58.5"/><rect fill="#193651" height="2" width="2" x="23.5" y="56.5"/><line fill="#FFFFFF" x1="32" x2="32" y1="56.5" y2="58.5"/><rect fill="#193651" height="2" width="2" x="31" y="56.5"/><line fill="#FFFFFF" x1="39.5" x2="39.5" y1="56.5" y2="58.5"/><rect fill="#193651" height="2" width="2" x="38.5" y="56.5"/><line fill="#FFFFFF" x1="46.9" x2="46.9" y1="56.5" y2="58.5"/><rect fill="#193651" height="2" width="2" x="45.9" y="56.5"/></g></svg>