<svg width="25" height="28" viewBox="0 0 25 28" fill="none" xmlns="http://www.w3.org/2000/svg">
<path d="M6.69238 15.8834H14.2308V17.768H6.69238V15.8834ZM6.69238 11.1719H18.0001V13.0565H6.69238V11.1719ZM6.69238 20.595H11.4039V22.4796H6.69238V20.595Z" fill="#A3A3A3"/>
<path d="M20.8266 3.63552H17.9997V2.69321C17.9997 2.19338 17.8011 1.71402 17.4477 1.36058C17.0943 1.00715 16.6149 0.808594 16.1151 0.808594H8.57662C8.07679 0.808594 7.59743 1.00715 7.244 1.36058C6.89056 1.71402 6.69201 2.19338 6.69201 2.69321V3.63552H3.86508C3.36525 3.63552 2.88589 3.83407 2.53246 4.18751C2.17903 4.54094 1.98047 5.0203 1.98047 5.52013V25.3086C1.98047 25.8084 2.17903 26.2878 2.53246 26.6412C2.88589 26.9946 3.36525 27.1932 3.86508 27.1932H20.8266C21.3265 27.1932 21.8058 26.9946 22.1592 26.6412C22.5127 26.2878 22.7112 25.8084 22.7112 25.3086V5.52013C22.7112 5.0203 22.5127 4.54094 22.1592 4.18751C21.8058 3.83407 21.3265 3.63552 20.8266 3.63552ZM8.57662 2.69321H16.1151V6.46244H8.57662V2.69321ZM20.8266 25.3086H3.86508V5.52013H6.69201V8.34705H17.9997V5.52013H20.8266V25.3086Z" fill="#A3A3A3"/>
</svg>
