<svg width="69" height="69" viewBox="0 0 69 69" fill="none" xmlns="http://www.w3.org/2000/svg">
<rect y="0.000488281" width="68.1387" height="68.1387" rx="6.13698" fill="url(#paint0_linear_445_2058)"/>
<g clip-path="url(#clip0_445_2058)">
<path d="M45.8605 45.8619L54.5623 54.5638M32.4923 51.4109C34.9766 51.4109 37.4365 50.9216 39.7316 49.971C42.0267 49.0203 44.1122 47.6269 45.8688 45.8702C47.6254 44.1136 49.0188 42.0282 49.9695 39.7331C50.9202 37.4379 51.4095 34.978 51.4095 32.4938C51.4095 30.0096 50.9202 27.5497 49.9695 25.2545C49.0188 22.9594 47.6254 20.874 45.8688 19.1174C44.1122 17.3607 42.0267 15.9673 39.7316 15.0166C37.4365 14.066 34.9766 13.5767 32.4923 13.5767C27.4752 13.5767 22.6636 15.5697 19.1159 19.1174C15.5682 22.665 13.5752 27.4767 13.5752 32.4938C13.5752 37.5109 15.5682 42.3226 19.1159 45.8702C22.6636 49.4179 27.4752 51.4109 32.4923 51.4109Z" stroke="white" stroke-width="3" stroke-linecap="round" stroke-linejoin="round"/>
<path d="M22.876 33.5277C21.7158 33.3259 21.7158 31.6612 22.876 31.4594C24.929 31.1009 26.8288 30.1395 28.3336 28.6976C29.8383 27.2558 30.8799 25.3987 31.3257 23.3629L31.3951 23.0445C31.6473 21.8968 33.2773 21.8905 33.539 23.035L33.6241 23.407C34.0873 25.4354 35.1399 27.2814 36.6496 28.7131C38.1592 30.1448 40.0585 31.0981 42.1085 31.4531C43.275 31.6581 43.275 33.3291 42.1085 33.534C40.059 33.8896 38.1605 34.8432 36.6514 36.2748C35.1424 37.7064 34.0903 39.5522 33.6273 41.5801L33.5422 41.9521C33.2805 43.0966 31.6504 43.0872 31.3982 41.9427L31.3289 41.6274C30.8839 39.59 29.8424 37.7313 28.3369 36.2882C26.8315 34.8451 24.9304 33.8861 22.876 33.5277Z" stroke="white" stroke-width="3" stroke-linecap="round" stroke-linejoin="round"/>
</g>
<defs>
<linearGradient id="paint0_linear_445_2058" x1="34.0693" y1="0.000488281" x2="34.0693" y2="68.1392" gradientUnits="userSpaceOnUse">
<stop stop-color="#D579CC"/>
<stop offset="1" stop-color="#AC32A0"/>
</linearGradient>
<clipPath id="clip0_445_2058">
<rect width="44.14" height="44.14" fill="white" transform="translate(11.999 12)"/>
</clipPath>
</defs>
</svg>
