<svg width="69" height="69" viewBox="0 0 69 69" fill="none" xmlns="http://www.w3.org/2000/svg">
<rect width="68.8" height="68.14" rx="6.4" fill="url(#paint0_linear_445_2053)"/>
<path d="M42.843 25.6266C42.067 24.8508 41.0146 24.415 39.9173 24.415C38.8201 24.415 37.7677 24.8508 36.9917 25.6266L36.3503 26.2667L38.3007 28.2171L38.9421 27.5771C39.2023 27.3258 39.5507 27.1868 39.9124 27.1899C40.274 27.1931 40.62 27.3381 40.8758 27.5939C41.1315 27.8496 41.2766 28.1956 41.2797 28.5572C41.2829 28.9189 41.1438 29.2673 40.8926 29.5275L36.3503 34.0698L38.3007 36.0202L42.843 31.4779C43.6188 30.7019 44.0546 29.6496 44.0546 28.5523C44.0546 27.455 43.6188 26.4026 42.843 25.6266ZM29.8576 40.5625C29.5974 40.8138 29.249 40.9528 28.8873 40.9497C28.5256 40.9465 28.1797 40.8014 27.9239 40.5457C27.6682 40.2899 27.5231 39.944 27.52 39.5823C27.5168 39.2206 27.6559 38.8722 27.9071 38.6121L32.4494 34.0698L30.499 32.1193L25.9567 36.6616C25.5614 37.0434 25.2462 37.5 25.0293 38.0048C24.8124 38.5097 24.6983 39.0527 24.6935 39.6022C24.6887 40.1516 24.7934 40.6965 25.0015 41.2051C25.2096 41.7137 25.5168 42.1757 25.9054 42.5642C26.2939 42.9528 26.756 43.26 27.2645 43.4681C27.7731 43.6762 28.318 43.7809 28.8674 43.7761C29.4169 43.7713 29.9599 43.6572 30.4648 43.4403C30.9696 43.2234 31.4263 42.9082 31.808 42.5129L32.4494 41.8729L30.499 39.9225L29.8576 40.5625ZM31.808 25.628C31.0244 24.8925 29.9853 24.4907 28.9107 24.5076C27.8361 24.5246 26.8102 24.9589 26.0502 25.7188C25.2902 26.4787 24.8556 27.5044 24.8384 28.579C24.8212 29.6536 25.2227 30.6928 25.9581 31.4766L26.5981 32.118L28.5485 30.1675L27.9085 29.5261C27.6572 29.266 27.5182 28.9175 27.5213 28.5559C27.5245 28.1942 27.6696 27.8482 27.9253 27.5925C28.181 27.3367 28.527 27.1917 28.8887 27.1885C29.2503 27.1854 29.5988 27.3244 29.8589 27.5757L34.3998 32.1193L36.3503 30.1689L31.808 25.628Z" fill="white"/>
<path d="M42.8428 36.6619L42.2028 36.0205L40.2523 37.9709L40.8924 38.6124C41.1436 38.8725 41.2827 39.2209 41.2795 39.5826C41.2764 39.9443 41.1313 40.2902 40.8756 40.546C40.6198 40.8017 40.2739 40.9468 39.9122 40.9499C39.5505 40.9531 39.2021 40.8141 38.9419 40.5628L34.3997 36.0205L32.4492 37.9709L36.9915 42.5132C37.772 43.267 38.8173 43.6841 39.9023 43.6747C40.9873 43.6653 42.0252 43.2301 42.7924 42.4628C43.5596 41.6956 43.9948 40.6577 44.0043 39.5727C44.0137 38.4877 43.5966 37.4424 42.8428 36.6619Z" fill="white"/>
<path d="M34.3996 54.7606C34.1554 54.7608 33.9155 54.696 33.7044 54.573L17.1519 44.9173C16.9437 44.7958 16.7709 44.6218 16.6509 44.4127C16.5308 44.2036 16.4677 43.9667 16.4678 43.7256V24.4143C16.4677 24.1732 16.5308 23.9363 16.6509 23.7272C16.7709 23.518 16.9437 23.3441 17.1519 23.2225L33.7044 13.5669C33.9154 13.4438 34.1554 13.3789 34.3996 13.3789C34.6439 13.3789 34.8839 13.4438 35.0949 13.5669L51.6474 23.2225L50.2569 25.6061L34.3996 16.356L19.2265 25.2061V42.9338L34.3996 51.7853L49.5728 42.9338V32.6906H52.3315V43.7256C52.3316 43.9667 52.2685 44.2036 52.1484 44.4127C52.0284 44.6218 51.8556 44.7958 51.6474 44.9173L35.0949 54.573C34.8838 54.696 34.6439 54.7608 34.3996 54.7606Z" fill="white"/>
<defs>
<linearGradient id="paint0_linear_445_2053" x1="34.4" y1="0" x2="34.4" y2="68.14" gradientUnits="userSpaceOnUse">
<stop stop-color="#09A6FE"/>
<stop offset="1" stop-color="#0054F7"/>
</linearGradient>
</defs>
</svg>
