<svg width="446" height="230" viewBox="0 0 446 230" fill="none" xmlns="http://www.w3.org/2000/svg">
<g filter="url(#filter0_d_2304_4428)">
<g clip-path="url(#clip0_2304_4428)">
<path d="M8 15.2174C8 9.02221 11.263 4 15.2881 4H287.379C291.404 4 294.667 9.02221 294.667 15.2174V168.522C294.667 172.652 291.319 176 287.188 176H15.4783C11.3481 176 8 172.652 8 168.522V15.2174Z" fill="white"/>
<path d="M202.435 152.63H34.1743C30.5605 152.63 27.6309 155.56 27.6309 159.174V224.609C27.6309 228.223 30.5605 231.152 34.1743 231.152H202.435C206.049 231.152 208.979 228.223 208.979 224.609V159.174C208.979 155.56 206.049 152.63 202.435 152.63Z" fill="#F7FAFC" stroke="#E3E8EE" stroke-width="1.86957"/>
<path d="M202.435 -56.7609H34.1743C30.5605 -56.7609 27.6309 -53.8312 27.6309 -50.2174V15.2174C27.6309 18.8313 30.5605 21.7609 34.1743 21.7609H202.435C206.049 21.7609 208.979 18.8313 208.979 15.2174V-50.2174C208.979 -53.8312 206.049 -56.7609 202.435 -56.7609Z" fill="#F7FAFC" stroke="#E3E8EE" stroke-width="1.86957"/>
<path d="M62.2603 52.6087C64.5098 52.6087 65.8608 51.4767 65.8608 49.6217C65.8608 48.2696 64.9398 47.2644 63.5513 47.0949C63.5152 47.0905 63.4873 47.06 63.4873 47.0236C63.4873 46.9889 63.5124 46.9595 63.5464 46.9527C64.555 46.7506 65.335 45.7814 65.335 44.6995C65.335 43.0783 64.1445 42.0706 62.1656 42.0706C59.8262 42.0706 57.9297 43.967 57.9297 46.3064V48.2781C57.9297 50.6698 59.8686 52.6087 62.2603 52.6087ZM59.5656 44.9954C59.5656 44.1464 60.2538 43.4581 61.1028 43.4581H61.7857C62.9981 43.4581 63.7065 44.0278 63.7065 44.999C63.7065 45.9994 62.9541 46.5326 61.5082 46.5326H61.1028C60.2538 46.5326 59.5656 45.8444 59.5656 44.9954ZM61.2635 51.2211C60.3258 51.2211 59.5656 50.461 59.5656 49.5232C59.5656 48.5855 60.3258 47.8253 61.2635 47.8253H61.8369C63.3778 47.8253 64.1884 48.4022 64.1884 49.5049C64.1884 50.6223 63.4069 51.2211 61.9319 51.2211H61.2635Z" fill="black"/>
<path d="M74.199 45.4407C74.199 45.0071 73.8476 44.6556 73.414 44.6556C72.9805 44.6556 72.629 45.0071 72.629 45.4407V49.3077C72.629 50.5564 71.9352 51.3087 70.6644 51.3087C69.5105 51.3087 68.9919 50.6953 68.9919 49.4099V45.4407C68.9919 45.0071 68.6405 44.6556 68.2069 44.6556C67.7733 44.6556 67.4219 45.0071 67.4219 45.4407V49.8188C67.4219 51.6884 68.4004 52.7619 70.1604 52.7619C71.3453 52.7619 72.1488 52.2678 72.5433 51.3905C72.5556 51.3632 72.5826 51.3451 72.6125 51.3451C72.6538 51.3451 72.6873 51.3786 72.6873 51.4199V51.9769C72.6873 52.3257 72.9701 52.6086 73.319 52.6086H73.4432C73.8606 52.6086 74.199 52.2702 74.199 51.8527V45.4407Z" fill="black"/>
<path d="M76.2177 51.8273C76.2177 52.2588 76.5675 52.6087 76.9991 52.6087C77.4306 52.6087 77.7804 52.2588 77.7804 51.8273V45.4371C77.7804 45.0056 77.4306 44.6557 76.9991 44.6557C76.5675 44.6557 76.2177 45.0056 76.2177 45.4371V51.8273ZM76.999 43.2754C77.5467 43.2754 77.9923 42.8153 77.9923 42.253C77.9923 41.6833 77.5467 41.2234 76.999 41.2234C76.4514 41.2234 76.0059 41.6833 76.0059 42.253C76.0059 42.8153 76.4514 43.2754 76.999 43.2754Z" fill="black"/>
<path d="M79.8711 51.8238C79.8711 52.2573 80.2226 52.6088 80.6561 52.6088C81.0897 52.6088 81.4412 52.2573 81.4412 51.8238V42.337C81.4412 41.9035 81.0897 41.552 80.6561 41.552C80.2226 41.552 79.8711 41.9035 79.8711 42.337V51.8238Z" fill="black"/>
<path d="M86.422 52.7402C87.5003 52.7402 88.4159 52.2378 88.897 51.3931C88.9111 51.3683 88.9373 51.3526 88.9658 51.3526C89.0088 51.3526 89.0437 51.3875 89.0437 51.4305V51.9807C89.0437 52.3276 89.3249 52.6088 89.6718 52.6088H89.7959C90.2114 52.6088 90.5481 52.272 90.5481 51.8566V42.337C90.5481 41.9035 90.1967 41.552 89.7631 41.552C89.3295 41.552 88.9781 41.9035 88.9781 42.337V45.8473C88.9781 45.8871 88.9458 45.9193 88.9061 45.9193C88.8786 45.9193 88.8536 45.9036 88.841 45.8792C88.402 45.0271 87.4934 44.5244 86.422 44.5244C84.4137 44.5244 83.1211 46.1164 83.1211 48.6287C83.1211 51.1483 84.3991 52.7402 86.422 52.7402ZM86.8675 45.9339C88.182 45.9339 89.0072 46.9782 89.0072 48.636C89.0072 50.301 88.1893 51.3308 86.8675 51.3308C85.5383 51.3308 84.7424 50.3156 84.7424 48.6287C84.7424 46.9564 85.5455 45.9339 86.8675 45.9339Z" fill="black"/>
<path d="M99.0194 51.4182C98.1649 51.4182 97.5442 51.0019 97.5442 50.2862C97.5442 49.5851 98.0407 49.2127 99.1363 49.1396L100.415 49.0578C100.775 49.0349 101.079 49.3201 101.079 49.6801C101.079 50.6659 100.202 51.4182 99.0194 51.4182ZM98.6177 52.74C99.6451 52.74 100.503 52.3018 100.982 51.5296C100.997 51.5059 101.023 51.4911 101.051 51.4911C101.095 51.4911 101.13 51.5266 101.13 51.5703V52.0498C101.13 52.3584 101.38 52.6086 101.689 52.6086H101.886C102.303 52.6086 102.642 52.2702 102.642 51.8527V47.1752C102.642 45.4954 101.517 44.5023 99.5233 44.5023C98.1377 44.5023 97.058 45.0194 96.559 45.8782C96.3134 46.3008 96.7029 46.7443 97.1917 46.7443C97.5491 46.7443 97.8494 46.4831 98.1214 46.2514C98.4185 45.9983 98.8764 45.8606 99.4502 45.8606C100.524 45.8606 101.079 46.3352 101.079 47.1752C101.079 47.5605 100.778 47.8789 100.394 47.901L98.9245 47.9857C97.033 48.1025 95.9668 48.9278 95.9668 50.3593C95.9668 51.8125 97.084 52.74 98.6177 52.74Z" fill="black"/>
<path d="M114.226 47.2554C114.703 47.2554 115.081 46.8284 114.897 46.3879C114.427 45.2589 113.332 44.5023 111.723 44.5023C109.408 44.5023 107.998 46.0578 107.998 48.6066C107.998 51.1991 109.415 52.7619 111.73 52.7619C113.315 52.7619 114.42 52.0394 114.895 50.9203C115.082 50.4805 114.703 50.0525 114.225 50.0525C113.858 50.0525 113.559 50.3202 113.355 50.6247C113.03 51.1076 112.464 51.3597 111.723 51.3597C110.415 51.3597 109.605 50.3299 109.605 48.6066C109.605 46.9122 110.408 45.9045 111.723 45.9045C112.492 45.9045 113.043 46.2134 113.354 46.6823C113.557 46.9882 113.859 47.2554 114.226 47.2554Z" fill="black"/>
<path d="M116.703 51.8237C116.703 52.2573 117.055 52.6088 117.488 52.6088C117.922 52.6088 118.273 52.2573 118.273 51.8237V47.964C118.273 46.7591 118.989 45.9485 120.274 45.9485C121.385 45.9485 121.976 46.591 121.976 47.8618V51.8238C121.976 52.2573 122.328 52.6088 122.761 52.6088C123.195 52.6088 123.546 52.2573 123.546 51.8238V47.4748C123.546 45.5833 122.502 44.5098 120.808 44.5098C119.63 44.5098 118.799 45.0249 118.403 45.8889C118.391 45.916 118.364 45.9339 118.334 45.9339C118.292 45.9339 118.259 45.9003 118.259 45.8589V42.3298C118.259 41.9002 117.911 41.552 117.481 41.552C117.051 41.552 116.703 41.9002 116.703 42.3298V51.8237Z" fill="black"/>
<path d="M128.741 45.8387C129.191 45.8387 129.58 45.9603 129.891 46.1819C130.767 46.8074 129.808 47.8982 128.731 47.8982C127.623 47.8982 126.684 46.7589 127.613 46.1556C127.928 45.951 128.31 45.8387 128.741 45.8387ZM131.194 50.4616C130.887 50.4616 130.621 50.6539 130.406 50.8736C130.055 51.2323 129.512 51.4255 128.799 51.4255C127.543 51.4255 126.732 50.5418 126.681 49.1469C126.681 49.0986 126.72 49.0594 126.769 49.0594H131.749C132.052 49.0594 132.297 48.8141 132.297 48.5116C132.297 46.0141 130.961 44.5023 128.748 44.5023C126.506 44.5023 125.082 46.1161 125.082 48.6576C125.082 51.1991 126.477 52.7619 128.755 52.7619C130.139 52.7619 131.215 52.25 131.801 51.3808C132.088 50.9549 131.708 50.4616 131.194 50.4616Z" fill="black"/>
<path d="M139.724 47.2554C140.201 47.2554 140.579 46.8281 140.395 46.3876C139.925 45.2587 138.83 44.5023 137.22 44.5023C134.906 44.5023 133.496 46.0578 133.496 48.6066C133.496 51.1991 134.913 52.7619 137.227 52.7619C138.812 52.7619 139.917 52.0396 140.392 50.9208C140.58 50.4809 140.201 50.0525 139.723 50.0525C139.356 50.0525 139.057 50.3205 138.852 50.6252C138.528 51.1078 137.962 51.3597 137.22 51.3597C135.913 51.3597 135.103 50.3299 135.103 48.6066C135.103 46.9122 135.905 45.9045 137.22 45.9045C137.989 45.9045 138.54 46.213 138.852 46.6816C139.055 46.9876 139.357 47.2554 139.724 47.2554Z" fill="black"/>
<path d="M143.928 47.9445C143.912 47.9616 143.889 47.9713 143.866 47.9713C143.818 47.9713 143.779 47.9327 143.779 47.885V42.3372C143.779 41.9036 143.428 41.552 142.994 41.552C142.561 41.552 142.209 41.9036 142.209 42.3372V51.8236C142.209 52.2572 142.561 52.6088 142.994 52.6088C143.428 52.6088 143.779 52.2572 143.779 51.8236V50.029C143.779 49.8577 143.85 49.694 143.974 49.5761C144.242 49.3228 144.669 49.355 144.895 49.6455L146.975 52.3138C147.12 52.5 147.342 52.6088 147.578 52.6088C148.213 52.6088 148.572 51.8804 148.185 51.3769L146.414 49.0713C145.97 48.4934 146.014 47.6777 146.519 47.1517L147.828 45.7873C148.236 45.3623 147.934 44.6559 147.345 44.6559C147.162 44.6559 146.987 44.7309 146.861 44.8635L143.928 47.9445Z" fill="black"/>
<path d="M153.238 52.7619C155.56 52.7619 156.983 51.2064 156.983 48.6285C156.983 46.0651 155.553 44.5023 153.238 44.5023C150.915 44.5023 149.484 46.0651 149.484 48.6285C149.484 51.2064 150.907 52.7619 153.238 52.7619ZM153.238 51.367C151.872 51.367 151.105 50.3666 151.105 48.6285C151.105 46.9049 151.872 45.8972 153.238 45.8972C154.596 45.8972 155.37 46.9049 155.37 48.6285C155.37 50.3593 154.596 51.367 153.238 51.367Z" fill="black"/>
<path d="M165.291 45.4409C165.291 45.0072 164.939 44.6556 164.506 44.6556C164.072 44.6556 163.72 45.0072 163.72 45.4409V49.3077C163.72 50.5564 163.027 51.3087 161.755 51.3087C160.602 51.3087 160.084 50.6953 160.084 49.4099V45.4409C160.084 45.0072 159.733 44.6556 159.299 44.6556C158.865 44.6556 158.514 45.0072 158.514 45.4409V49.8188C158.514 51.6884 159.493 52.7619 161.253 52.7619C162.436 52.7619 163.241 52.2677 163.635 51.3902C163.647 51.363 163.674 51.3451 163.704 51.3451C163.745 51.3451 163.778 51.3784 163.778 51.4194V51.9769C163.778 52.3257 164.061 52.6086 164.41 52.6086H164.535C164.952 52.6086 165.291 52.27 165.291 51.8523V45.4409Z" fill="black"/>
<path d="M168.623 42.6766C168.19 42.6766 167.838 43.0282 167.838 43.4618V44.0603C167.838 44.4093 167.555 44.6922 167.206 44.6922C166.857 44.6922 166.574 44.9751 166.574 45.3241V45.3823C166.574 45.7313 166.857 46.0142 167.206 46.0142C167.555 46.0142 167.838 46.2971 167.838 46.6461V50.5054C167.838 52.039 168.532 52.6524 170.276 52.6524C170.376 52.6524 170.474 52.6486 170.57 52.6419C170.895 52.6192 171.13 52.3335 171.13 52.0069V51.8646C171.13 51.5436 170.853 51.3015 170.532 51.3015C169.751 51.3015 169.408 50.9364 169.408 50.1039V46.8751C169.408 46.3996 169.794 46.0142 170.269 46.0142H170.469C170.834 46.0142 171.13 45.7182 171.13 45.3532C171.13 44.9881 170.834 44.6922 170.469 44.6922H170.269C169.794 44.6922 169.408 44.3068 169.408 43.8313V43.4618C169.408 43.0282 169.057 42.6766 168.623 42.6766Z" fill="black"/>
<path d="M180.618 44.5243C179.553 44.5243 178.629 45.0494 178.141 45.9319C178.128 45.9553 178.104 45.9702 178.077 45.9702C178.037 45.9702 178.005 45.9378 178.005 45.8978V45.313C178.005 44.95 177.71 44.6557 177.347 44.6557H177.248C176.831 44.6557 176.492 44.9943 176.492 45.412V54.4672C176.492 54.9009 176.844 55.2524 177.277 55.2524C177.711 55.2524 178.063 54.9009 178.063 54.4672V51.4799C178.063 51.4378 178.097 51.4037 178.139 51.4037C178.168 51.4037 178.194 51.4202 178.207 51.4459C178.633 52.2601 179.521 52.7401 180.633 52.7401C182.641 52.7401 183.92 51.1555 183.92 48.6286C183.92 46.1016 182.641 44.5243 180.618 44.5243ZM180.173 51.3306C178.859 51.3306 178.033 50.2936 178.033 48.6358C178.033 46.9708 178.859 45.9338 180.181 45.9338C181.51 45.9338 182.307 46.9489 182.307 48.6286C182.307 50.3155 181.51 51.3306 180.173 51.3306Z" fill="black"/>
<path d="M188.127 51.4182C187.273 51.4182 186.652 51.0019 186.652 50.2862C186.652 49.5851 187.149 49.2127 188.245 49.1396L189.524 49.0578C189.883 49.0349 190.187 49.3201 190.187 49.6801C190.187 50.6659 189.311 51.4182 188.127 51.4182ZM187.725 52.74C188.754 52.74 189.612 52.3017 190.091 51.5294C190.106 51.5058 190.132 51.4911 190.159 51.4911C190.203 51.4911 190.238 51.5264 190.238 51.5698V52.0498C190.238 52.3584 190.488 52.6086 190.797 52.6086H190.994C191.412 52.6086 191.75 52.27 191.75 51.8523V47.1752C191.75 45.4954 190.625 44.5023 188.632 44.5023C187.246 44.5023 186.166 45.0191 185.667 45.8775C185.421 46.3004 185.811 46.7443 186.3 46.7443C186.657 46.7443 186.958 46.4831 187.23 46.2513C187.527 45.9983 187.985 45.8606 188.559 45.8606C189.632 45.8606 190.187 46.3352 190.187 47.1752C190.187 47.5605 189.887 47.8789 189.502 47.901L188.032 47.9857C186.142 48.1025 185.074 48.9278 185.074 50.3593C185.074 51.8125 186.192 52.74 187.725 52.74Z" fill="black"/>
<path d="M197.023 51.1334C195.673 51.1334 194.912 50.1184 194.912 48.5336C194.912 46.9489 195.673 45.9338 197.023 45.9338C198.359 45.9338 199.178 46.9489 199.178 48.5336C199.178 50.1257 198.367 51.1334 197.023 51.1334ZM197.045 55.6467C199.294 55.6467 200.719 54.4928 200.719 52.6745V45.4082C200.719 44.9926 200.382 44.6557 199.966 44.6557H199.849C199.498 44.6557 199.214 44.9402 199.214 45.2911V45.8497C199.214 45.8921 199.179 45.9265 199.137 45.9265C199.108 45.9265 199.082 45.9104 199.069 45.8852C198.613 45.0474 197.671 44.5243 196.593 44.5243C194.562 44.5243 193.291 46.1162 193.291 48.5409C193.291 50.9218 194.547 52.4918 196.578 52.4918C197.657 52.4918 198.524 52.0311 199.009 51.1934C199.022 51.1701 199.047 51.1554 199.074 51.1554C199.115 51.1554 199.148 51.1887 199.148 51.2297V52.6818C199.148 53.7334 198.374 54.3541 197.068 54.3541C196.397 54.3541 195.885 54.2051 195.566 53.9496C195.263 53.7072 194.936 53.4047 194.548 53.4047C194.047 53.4047 193.65 53.8621 193.912 54.289C194.428 55.1308 195.533 55.6467 197.045 55.6467Z" fill="black"/>
<path d="M205.975 45.8387C206.425 45.8387 206.814 45.9601 207.124 46.1814C208.001 46.8067 207.042 47.8982 205.965 47.8982C204.857 47.8982 203.918 46.7591 204.847 46.1558C205.162 45.9511 205.545 45.8387 205.975 45.8387ZM208.428 50.4616C208.121 50.4616 207.855 50.6533 207.64 50.8729C207.29 51.232 206.746 51.4255 206.033 51.4255C204.777 51.4255 203.965 50.5418 203.915 49.1469C203.915 49.0986 203.954 49.0594 204.002 49.0594H208.983C209.286 49.0594 209.531 48.8141 209.531 48.5116C209.531 46.0141 208.194 44.5023 205.983 44.5023C203.739 44.5023 202.316 46.1161 202.316 48.6576C202.316 51.1991 203.711 52.7619 205.988 52.7619C207.373 52.7619 208.449 52.25 209.035 51.3807C209.322 50.9547 208.941 50.4616 208.428 50.4616Z" fill="black"/>
<path d="M37.9147 58.2174C44.1099 58.2174 49.132 53.1952 49.132 47C49.132 40.8048 44.1099 35.7826 37.9147 35.7826C31.7195 35.7826 26.6973 40.8048 26.6973 47C26.6973 53.1952 31.7195 58.2174 37.9147 58.2174Z" fill="#2A2F45"/>
<path d="M34.2551 43.9603C34.1636 44.3779 34.5204 44.7289 34.9479 44.7289C35.3754 44.7289 35.7025 44.3702 35.8531 43.97C36.1227 43.254 36.7905 42.8081 37.6938 42.8081C38.8623 42.8081 39.5561 43.5677 39.5561 44.5681C39.5561 45.4006 39.2056 45.912 37.8692 47.2848L34.4992 50.7571C34.3468 50.9142 34.2615 51.1245 34.2615 51.3434C34.2615 51.8082 34.6384 52.1851 35.1033 52.1851H40.6262C41.0315 52.1851 41.3601 51.8565 41.3601 51.4512C41.3601 51.0459 41.0315 50.7173 40.6262 50.7173H36.5837C36.5354 50.7173 36.4962 50.6781 36.4962 50.6298C36.4962 50.6064 36.5056 50.5839 36.5223 50.5675L38.8186 48.3073C40.6663 46.4816 41.1993 45.6198 41.1993 44.4002C41.1993 42.6548 39.7752 41.3914 37.7961 41.3914C35.9607 41.3914 34.5938 42.4155 34.2551 43.9603Z" fill="white"/>
<g filter="url(#filter1_dd_2304_4428)">
<path d="M202.436 71.3043H34.1755C30.0454 71.3043 26.6973 74.6525 26.6973 78.7826V131.13C26.6973 135.261 30.0454 138.609 34.1755 138.609H202.436C206.567 138.609 209.915 135.261 209.915 131.13V78.7826C209.915 74.6525 206.567 71.3043 202.436 71.3043Z" fill="white"/>
<path d="M202.438 71.7717H34.1769C30.3049 71.7717 27.166 74.9106 27.166 78.7826V131.13C27.166 135.002 30.3049 138.141 34.1769 138.141H202.438C206.31 138.141 209.449 135.002 209.449 131.13V78.7826C209.449 74.9106 206.31 71.7717 202.438 71.7717Z" stroke="#E3E8EE" stroke-width="0.934783"/>
</g>
<path d="M47.6783 102.335C47.6783 101.919 47.3415 101.583 46.9261 101.583H45.2098C43.8465 101.583 42.7413 100.477 42.7413 99.1141V93.3668C42.7413 92.915 42.3751 92.5488 41.9234 92.5488C41.4717 92.5488 41.1055 92.915 41.1055 93.3668V99.8006C41.1055 101.616 42.5768 103.087 44.3919 103.087H46.9261C47.3415 103.087 47.6783 102.75 47.6783 102.335Z" fill="#697386"/>
<path d="M52.2732 103.24C54.5956 103.24 56.0197 101.685 56.0197 99.1068C56.0197 96.5435 54.5883 94.9807 52.2732 94.9807C49.9511 94.9807 48.5195 96.5435 48.5195 99.1068C48.5195 101.685 49.9436 103.24 52.2732 103.24ZM52.2732 101.845C50.9077 101.845 50.1408 100.845 50.1408 99.1068C50.1408 97.3833 50.9077 96.3756 52.2732 96.3756C53.6317 96.3756 54.4059 97.3833 54.4059 99.1068C54.4059 100.838 53.6317 101.845 52.2732 101.845Z" fill="#697386"/>
<path d="M60.2245 101.897C59.3701 101.897 58.7492 101.48 58.7492 100.765C58.7492 100.063 59.246 99.6911 60.3414 99.618L61.6207 99.5362C61.98 99.5133 62.284 99.7985 62.284 100.158C62.284 101.144 61.4076 101.897 60.2245 101.897ZM59.8227 103.218C60.8501 103.218 61.708 102.78 62.1875 102.008C62.2022 101.984 62.228 101.97 62.2559 101.97C62.2996 101.97 62.3351 102.005 62.3351 102.049V102.528C62.3351 102.837 62.5852 103.087 62.8938 103.087H63.0909C63.5084 103.087 63.8468 102.749 63.8468 102.331V97.6536C63.8468 95.9738 62.7221 94.9807 60.7284 94.9807C59.3428 94.9807 58.2631 95.4978 57.7641 96.3566C57.5185 96.7792 57.908 97.2227 58.3968 97.2227C58.7541 97.2227 59.0545 96.9614 59.3265 96.7297C59.6236 96.4767 60.0816 96.339 60.6554 96.339C61.7289 96.339 62.284 96.8136 62.284 97.6536C62.284 98.0389 61.9835 98.3573 61.5988 98.3794L60.1295 98.4641C58.2381 98.5809 57.1719 99.4062 57.1719 100.838C57.1719 102.291 58.2891 103.218 59.8227 103.218Z" fill="#697386"/>
<path d="M68.6974 103.219C69.7757 103.219 70.6913 102.716 71.1724 101.871C71.1865 101.847 71.2127 101.831 71.2412 101.831C71.2842 101.831 71.3191 101.866 71.3191 101.909V102.459C71.3191 102.806 71.6003 103.087 71.9472 103.087H72.0713C72.4867 103.087 72.8235 102.75 72.8235 102.335V92.8154C72.8235 92.3819 72.472 92.0304 72.0385 92.0304C71.6049 92.0304 71.2535 92.3819 71.2535 92.8154V96.3257C71.2535 96.3655 71.2212 96.3977 71.1815 96.3977C71.154 96.3977 71.129 96.382 71.1164 96.3576C70.6774 95.5054 69.7688 95.0028 68.6974 95.0028C66.6891 95.0028 65.3965 96.5948 65.3965 99.1071C65.3965 101.627 66.6745 103.219 68.6974 103.219ZM69.1429 96.4123C70.4574 96.4123 71.2826 97.4566 71.2826 99.1144C71.2826 100.779 70.4647 101.809 69.1429 101.809C67.8136 101.809 67.0178 100.794 67.0178 99.1071C67.0178 97.4348 67.8209 96.4123 69.1429 96.4123Z" fill="#697386"/>
<path d="M79.2782 100.253C78.7951 100.253 78.3996 100.669 78.5592 101.126C79.0407 102.501 80.4579 103.343 82.4106 103.343C84.9081 103.343 86.4711 102.079 86.4711 100.063C86.4711 98.4788 85.5801 97.6024 83.4185 97.0986L82.2573 96.8136C80.8843 96.4924 80.3292 96.0615 80.3292 95.3092C80.3292 94.3598 81.1911 93.7391 82.4837 93.7391C83.3998 93.7391 84.1042 94.0771 84.4661 94.6528C84.6845 95.0002 85.0132 95.3167 85.4235 95.3167C85.9015 95.3167 86.2933 94.9066 86.1305 94.4572C85.6577 93.1519 84.2799 92.2932 82.5055 92.2932C80.205 92.2932 78.6714 93.5419 78.6714 95.4187C78.6714 96.9671 79.5406 97.8873 81.4466 98.3327L82.8049 98.6613C84.1998 98.99 84.8133 99.472 84.8133 100.275C84.8133 101.21 83.8492 101.889 82.5347 101.889C81.4774 101.889 80.6626 101.532 80.2629 100.931C80.0312 100.582 79.6965 100.253 79.2782 100.253Z" fill="#697386"/>
<path d="M89.4938 93.1549C89.0602 93.1549 88.7088 93.5064 88.7088 93.9399V94.5388C88.7088 94.8877 88.4259 95.1705 88.077 95.1705C87.7281 95.1705 87.4453 95.4533 87.4453 95.8022V95.8607C87.4453 96.2096 87.7281 96.4925 88.077 96.4925C88.4259 96.4925 88.7088 96.7753 88.7088 97.1242V100.984C88.7088 102.517 89.4024 103.131 91.1478 103.131C91.2474 103.131 91.3455 103.127 91.4412 103.12C91.7672 103.097 92.0024 102.812 92.0024 102.485V102.343C92.0024 102.022 91.7249 101.78 91.4035 101.78C90.6221 101.78 90.2788 101.415 90.2788 100.582V97.3542C90.2788 96.8783 90.6646 96.4925 91.1406 96.4925H91.3414C91.7064 96.4925 92.0024 96.1965 92.0024 95.8315C92.0024 95.4664 91.7064 95.1705 91.3414 95.1705H91.1406C90.6646 95.1705 90.2788 94.7847 90.2788 94.3087V93.9399C90.2788 93.5064 89.9273 93.1549 89.4938 93.1549Z" fill="#697386"/>
<path d="M93.5605 102.302C93.5605 102.735 93.912 103.087 94.3456 103.087C94.7791 103.087 95.1306 102.735 95.1306 102.302V98.3912C95.1306 97.2737 95.9704 96.5216 97.1608 96.5216C97.5952 96.5216 98.0372 96.1676 98.0372 95.7331V95.6219C98.0372 95.2958 97.8139 95.0171 97.488 95.0054C97.4357 95.0035 97.3845 95.0026 97.3361 95.0026C96.3204 95.0026 95.4517 95.549 95.2037 96.3056C95.1945 96.3338 95.1685 96.3535 95.1388 96.3535C95.102 96.3535 95.0721 96.3236 95.0721 96.2868V95.7438C95.0721 95.407 94.7991 95.134 94.4623 95.134H94.3163C93.8989 95.134 93.5605 95.4724 93.5605 95.8898V102.302Z" fill="#697386"/>
<path d="M99.2899 102.305C99.2899 102.737 99.6398 103.087 100.071 103.087C100.503 103.087 100.853 102.737 100.853 102.305V95.9153C100.853 95.4837 100.503 95.1339 100.071 95.1339C99.6398 95.1339 99.2899 95.4837 99.2899 95.9153V102.305ZM100.071 93.7536C100.619 93.7536 101.065 93.2935 101.065 92.7311C101.065 92.1614 100.619 91.7015 100.071 91.7015C99.5236 91.7015 99.0781 92.1614 99.0781 92.7311C99.0781 93.2935 99.5236 93.7536 100.071 93.7536Z" fill="#697386"/>
<path d="M106.999 95.0026C105.934 95.0026 105.01 95.5275 104.523 96.4099C104.51 96.4335 104.485 96.4485 104.458 96.4485C104.417 96.4485 104.385 96.4158 104.385 96.3755V95.7913C104.385 95.4283 104.091 95.134 103.728 95.134H103.629C103.211 95.134 102.873 95.4724 102.873 95.8899V104.946C102.873 105.379 103.225 105.731 103.658 105.731C104.092 105.731 104.443 105.379 104.443 104.946V101.959C104.443 101.916 104.478 101.882 104.52 101.882C104.549 101.882 104.576 101.899 104.589 101.924C105.014 102.739 105.901 103.218 107.014 103.218C109.022 103.218 110.3 101.634 110.3 99.1068C110.3 96.5799 109.022 95.0026 106.999 95.0026ZM106.554 101.809C105.239 101.809 104.414 100.772 104.414 99.1141C104.414 97.4491 105.239 96.412 106.561 96.412C107.89 96.412 108.686 97.4272 108.686 99.1068C108.686 100.794 107.89 101.809 106.554 101.809Z" fill="#697386"/>
<path d="M115.167 96.3171C115.617 96.3171 116.006 96.4387 116.317 96.6603C117.193 97.2858 116.234 98.3766 115.157 98.3766C114.049 98.3766 113.11 97.2373 114.039 96.634C114.354 96.4294 114.736 96.3171 115.167 96.3171ZM117.62 100.94C117.313 100.94 117.046 101.132 116.832 101.352C116.481 101.711 115.937 101.904 115.225 101.904C113.969 101.904 113.158 101.02 113.107 99.6253C113.107 99.577 113.146 99.5378 113.195 99.5378H118.175C118.478 99.5378 118.723 99.2925 118.723 98.99C118.723 96.4924 117.387 94.9807 115.174 94.9807C112.932 94.9807 111.508 96.5945 111.508 99.136C111.508 101.678 112.903 103.24 115.181 103.24C116.565 103.24 117.641 102.728 118.227 101.859C118.514 101.433 118.134 100.94 117.62 100.94Z" fill="#697386"/>
<path d="M121.542 103.211C122.163 103.211 122.616 102.736 122.616 102.123C122.616 101.509 122.163 101.035 121.542 101.035C120.929 101.035 120.469 101.509 120.469 102.123C120.469 102.736 120.929 103.211 121.542 103.211Z" fill="#697386"/>
<path d="M126.344 95.9153C126.344 95.4837 125.994 95.1339 125.562 95.1339C125.131 95.1339 124.781 95.4837 124.781 95.9153V103.401C124.781 104.168 124.489 104.482 123.649 104.482C123.528 104.482 123.43 104.58 123.43 104.701V105.445C123.43 105.649 123.576 105.803 123.78 105.803C125.504 105.803 126.344 105.044 126.344 103.415V95.9153ZM125.577 93.7536C126.125 93.7536 126.57 93.2935 126.57 92.7311C126.57 92.1614 126.125 91.7015 125.577 91.7015C125.029 91.7015 124.584 92.1614 124.584 92.7311C124.584 93.2935 125.029 93.7536 125.577 93.7536Z" fill="#697386"/>
<path d="M128.183 97.3833C128.183 98.5664 128.884 99.2456 130.396 99.6034L131.783 99.9248C132.579 100.115 132.952 100.421 132.952 100.896C132.952 101.531 132.258 101.97 131.279 101.97C130.645 101.97 130.173 101.8 129.871 101.504C129.606 101.243 129.296 100.976 128.924 100.976C128.417 100.976 128.006 101.432 128.252 101.875C128.734 102.74 129.796 103.24 131.243 103.24C133.142 103.24 134.537 102.24 134.537 100.743C134.537 99.5742 133.828 98.9242 132.316 98.5736L130.995 98.267C130.133 98.0698 129.731 97.7703 129.731 97.2956C129.731 96.6749 130.396 96.2588 131.272 96.2588C131.851 96.2588 132.294 96.4158 132.573 96.6859C132.835 96.9388 133.134 97.2154 133.498 97.2154C133.971 97.2154 134.352 96.7908 134.136 96.3706C133.682 95.4854 132.665 94.9807 131.272 94.9807C129.476 94.9807 128.183 95.9738 128.183 97.3833Z" fill="#697386"/>
<path d="M193.086 114.304H39.7817C38.7491 114.304 37.9121 115.141 37.9121 116.174C37.9121 117.206 38.7491 118.043 39.7817 118.043H193.086C194.119 118.043 194.956 117.206 194.956 116.174C194.956 115.141 194.119 114.304 193.086 114.304Z" fill="#E3E8EE"/>
<path d="M123.912 123.652H39.7817C38.7491 123.652 37.9121 124.489 37.9121 125.522C37.9121 126.554 38.7491 127.391 39.7817 127.391H123.912C124.945 127.391 125.782 126.554 125.782 125.522C125.782 124.489 124.945 123.652 123.912 123.652Z" fill="#E3E8EE"/>
</g>
</g>
<g filter="url(#filter2_dd_2304_4428)">
<path d="M146.999 100H429.434C433.612 100 436.999 103.387 436.999 107.565V216H139.434V107.565C139.434 103.387 142.821 100 146.999 100Z" fill="white"/>
<path d="M146.999 100H429.434C433.612 100 436.999 103.387 436.999 107.565V216H139.434V107.565C139.434 103.387 142.821 100 146.999 100Z" fill="url(#paint0_linear_2304_4428)" fill-opacity="0.1"/>
<path d="M176.213 169.496H177.609L173.679 158.835H172.364L168.434 169.496H169.83L170.901 166.444H175.142L176.213 169.496ZM172.962 160.556H173.081L174.75 165.315H171.293L172.962 160.556ZM187.465 161.391C186.379 161.391 185.426 161.945 184.916 162.861H184.798V161.531H183.586V172.155H184.857V168.299H184.975C185.411 169.141 186.327 169.636 187.465 169.636C189.489 169.636 190.812 168.003 190.812 165.514C190.812 163.009 189.497 161.391 187.465 161.391ZM187.162 168.491C185.729 168.491 184.82 167.338 184.82 165.514C184.82 163.681 185.729 162.536 187.169 162.536C188.625 162.536 189.497 163.652 189.497 165.514C189.497 167.375 188.625 168.491 187.162 168.491ZM195.023 169.636C196.086 169.636 196.958 169.17 197.475 168.32H197.594V169.496H198.805V164.043C198.805 162.388 197.719 161.391 195.776 161.391C194.077 161.391 192.821 162.233 192.651 163.511H193.937C194.114 162.883 194.779 162.521 195.732 162.521C196.921 162.521 197.535 163.061 197.535 164.043V164.767L195.237 164.907C193.383 165.018 192.334 165.839 192.334 167.264C192.334 168.72 193.479 169.636 195.023 169.636ZM195.259 168.521C194.336 168.521 193.648 168.048 193.648 167.235C193.648 166.437 194.18 166.016 195.392 165.935L197.535 165.794V166.526C197.535 167.664 196.567 168.521 195.259 168.521ZM201.539 172.377C202.95 172.377 203.585 171.831 204.265 169.984L207.375 161.531H206.023L203.844 168.085H203.726L201.539 161.531H200.165L203.112 169.503L202.965 169.976C202.632 170.937 202.233 171.284 201.502 171.284C201.325 171.284 201.125 171.276 200.97 171.247V172.333C201.147 172.362 201.369 172.377 201.539 172.377ZM212.052 169.636C214.32 169.636 215.723 168.07 215.723 165.514C215.723 162.95 214.32 161.391 212.052 161.391C209.784 161.391 208.38 162.95 208.38 165.514C208.38 168.07 209.784 169.636 212.052 169.636ZM212.052 168.491C210.545 168.491 209.695 167.398 209.695 165.514C209.695 163.622 210.545 162.536 212.052 162.536C213.558 162.536 214.408 163.622 214.408 165.514C214.408 167.398 213.558 168.491 212.052 168.491ZM224.161 161.531H222.89V166.245C222.89 167.641 222.121 168.476 220.718 168.476C219.447 168.476 218.915 167.811 218.915 166.377V161.531H217.645V166.688C217.645 168.573 218.575 169.636 220.363 169.636C221.583 169.636 222.431 169.134 222.831 168.247H222.949V169.496H224.161V161.531ZM227.086 159.47V161.531H225.8V162.595H227.086V167.427C227.086 168.948 227.743 169.555 229.384 169.555C229.635 169.555 229.879 169.525 230.13 169.48V168.41C229.893 168.431 229.768 168.439 229.539 168.439C228.712 168.439 228.357 168.041 228.357 167.102V162.595H230.13V161.531H228.357V159.47H227.086ZM239.594 169.636C241.862 169.636 243.266 168.07 243.266 165.514C243.266 162.95 241.862 161.391 239.594 161.391C237.326 161.391 235.923 162.95 235.923 165.514C235.923 168.07 237.326 169.636 239.594 169.636ZM239.594 168.491C238.086 168.491 237.238 167.398 237.238 165.514C237.238 163.622 238.086 162.536 239.594 162.536C241.101 162.536 241.951 163.622 241.951 165.514C241.951 167.398 241.101 168.491 239.594 168.491ZM245.793 169.496H247.064V162.595H248.888V161.531H247.064V160.682C247.064 159.81 247.447 159.367 248.364 159.367C248.593 159.367 248.806 159.374 248.961 159.404V158.369C248.696 158.318 248.415 158.296 248.105 158.296C246.591 158.296 245.793 159.057 245.793 160.645V161.531H244.47V162.595H245.793V169.496ZM254.377 165.661H255.678C256.18 168.054 257.908 169.511 260.295 169.511C262.585 169.511 264.04 168.366 264.513 166.548H263.184C262.807 167.575 261.809 168.276 260.303 168.276C258.722 168.276 257.517 167.294 257.074 165.661H261.366V164.775H256.911C256.89 164.576 256.882 164.376 256.882 164.162C256.882 163.94 256.896 163.726 256.911 163.519H261.366V162.632H257.081C257.546 161.029 258.743 160.054 260.295 160.054C261.758 160.054 262.851 160.911 263.184 162.034H264.513C264.189 160.194 262.548 158.82 260.295 158.82C257.939 158.82 256.202 160.276 255.685 162.632H254.377V163.519H255.559C255.537 163.726 255.529 163.94 255.529 164.162C255.529 164.368 255.537 164.576 255.552 164.775H254.377V165.661ZM268.99 169.496H270.32V158.835H268.998L266.161 160.874V162.278L268.872 160.312H268.99V169.496ZM273.948 172.206L275.108 168.003H273.697L272.995 172.206H273.948ZM277.265 161.842H278.55C278.55 160.578 279.4 159.744 280.678 159.744C281.934 159.744 282.694 160.586 282.694 161.716C282.694 162.654 282.296 163.209 280.937 164.679L277.331 168.579V169.496H284.231V168.299H279.178V168.181L281.601 165.676C283.523 163.689 284.055 162.802 284.055 161.576C284.055 159.847 282.629 158.584 280.767 158.584C278.728 158.584 277.265 159.943 277.265 161.842ZM290.06 169.747C292.455 169.747 293.828 167.723 293.828 164.184C293.828 160.652 292.432 158.584 290.06 158.584C287.675 158.584 286.278 160.645 286.278 164.162C286.278 167.708 287.66 169.747 290.06 169.747ZM290.06 168.587C288.487 168.587 287.616 167.013 287.616 164.162C287.616 161.347 288.502 159.751 290.06 159.751C291.62 159.751 292.491 161.332 292.491 164.162C292.491 167.021 291.634 168.587 290.06 168.587ZM299.591 169.747C301.985 169.747 303.359 167.723 303.359 164.184C303.359 160.652 301.963 158.584 299.591 158.584C297.205 158.584 295.809 160.645 295.809 164.162C295.809 167.708 297.189 169.747 299.591 169.747ZM299.591 168.587C298.018 168.587 297.145 167.013 297.145 164.162C297.145 161.347 298.032 159.751 299.591 159.751C301.15 159.751 302.022 161.332 302.022 164.162C302.022 167.021 301.165 168.587 299.591 168.587ZM306.004 169.57C306.536 169.57 306.964 169.134 306.964 168.609C306.964 168.077 306.536 167.648 306.004 167.648C305.48 167.648 305.043 168.077 305.043 168.609C305.043 169.134 305.48 169.57 306.004 169.57ZM312.431 169.747C314.825 169.747 316.2 167.723 316.2 164.184C316.2 160.652 314.803 158.584 312.431 158.584C310.045 158.584 308.648 160.645 308.648 164.162C308.648 167.708 310.03 169.747 312.431 169.747ZM312.431 168.587C310.857 168.587 309.986 167.013 309.986 164.162C309.986 161.347 310.872 159.751 312.431 159.751C313.991 159.751 314.862 161.332 314.862 164.162C314.862 167.021 314.004 168.587 312.431 168.587ZM321.962 169.747C324.355 169.747 325.729 167.723 325.729 164.184C325.729 160.652 324.333 158.584 321.962 158.584C319.575 158.584 318.179 160.645 318.179 164.162C318.179 167.708 319.561 169.747 321.962 169.747ZM321.962 168.587C320.388 168.587 319.517 167.013 319.517 164.162C319.517 161.347 320.403 159.751 321.962 159.751C323.52 159.751 324.393 161.332 324.393 164.162C324.393 167.021 323.535 168.587 321.962 168.587ZM342.205 161.531H340.926L339.36 167.899H339.242L337.462 161.531H336.242L334.462 167.899H334.343L332.777 161.531H331.493L333.723 169.496H335.009L336.782 163.334H336.9L338.681 169.496H339.973L342.205 161.531ZM344.569 159.995C345.056 159.995 345.456 159.596 345.456 159.108C345.456 158.621 345.056 158.222 344.569 158.222C344.081 158.222 343.683 158.621 343.683 159.108C343.683 159.596 344.081 159.995 344.569 159.995ZM343.934 169.496H345.205V161.531H343.934V169.496ZM347.701 169.496H348.972V158.369H347.701V169.496ZM351.513 169.496H352.784V158.369H351.513V169.496ZM363.482 169.636C365.498 169.636 366.821 168.003 366.821 165.514C366.821 163.009 365.506 161.391 363.482 161.391C362.388 161.391 361.421 161.93 360.984 162.787H360.866V158.369H359.596V169.496H360.808V168.225H360.925C361.428 169.111 362.374 169.636 363.482 169.636ZM363.186 162.536C364.642 162.536 365.506 163.652 365.506 165.514C365.506 167.375 364.642 168.491 363.186 168.491C361.738 168.491 360.837 167.353 360.837 165.514C360.837 163.674 361.738 162.536 363.186 162.536ZM374.091 167.434C373.758 168.136 373.064 168.513 372.037 168.513C370.686 168.513 369.805 167.516 369.74 165.942V165.883H375.465V165.395C375.465 162.92 374.157 161.391 372.007 161.391C369.821 161.391 368.417 163.016 368.417 165.521C368.417 168.041 369.798 169.636 372.007 169.636C373.751 169.636 374.993 168.793 375.362 167.434H374.091ZM371.993 162.514C373.256 162.514 374.099 163.445 374.128 164.856H369.74C369.836 163.445 370.722 162.514 371.993 162.514ZM172.068 189.809C173.169 189.809 174.115 189.285 174.617 188.399H174.735V189.67H175.947V178.544H174.676V182.962H174.566C174.115 182.089 173.177 181.565 172.068 181.565C170.044 181.565 168.722 183.19 168.722 185.688C168.722 188.192 170.029 189.809 172.068 189.809ZM172.364 182.71C173.805 182.71 174.706 183.863 174.706 185.688C174.706 187.527 173.812 188.665 172.364 188.665C170.909 188.665 170.037 187.549 170.037 185.688C170.037 183.833 170.916 182.71 172.364 182.71ZM183.69 187.608C183.357 188.31 182.663 188.687 181.636 188.687C180.284 188.687 179.405 187.69 179.338 186.116V186.057H185.064V185.569C185.064 183.094 183.756 181.565 181.606 181.565C179.419 181.565 178.016 183.19 178.016 185.695C178.016 188.214 179.397 189.809 181.606 189.809C183.35 189.809 184.591 188.967 184.96 187.608H183.69ZM181.591 182.688C182.855 182.688 183.697 183.619 183.727 185.03H179.338C179.434 183.619 180.321 182.688 181.591 182.688ZM190.937 181.565C189.851 181.565 188.898 182.119 188.388 183.035H188.27V181.706H187.059V192.329H188.329V188.473H188.447C188.883 189.315 189.799 189.809 190.937 189.809C192.961 189.809 194.284 188.177 194.284 185.688C194.284 183.182 192.969 181.565 190.937 181.565ZM190.634 188.665C189.201 188.665 188.292 187.512 188.292 185.688C188.292 183.856 189.201 182.71 190.642 182.71C192.097 182.71 192.969 183.825 192.969 185.688C192.969 187.549 192.097 188.665 190.634 188.665ZM199.551 189.809C201.82 189.809 203.223 188.243 203.223 185.688C203.223 183.124 201.82 181.565 199.551 181.565C197.283 181.565 195.88 183.124 195.88 185.688C195.88 188.243 197.283 189.809 199.551 189.809ZM199.551 188.665C198.044 188.665 197.195 187.571 197.195 185.688C197.195 183.796 198.044 182.71 199.551 182.71C201.059 182.71 201.908 183.796 201.908 185.688C201.908 187.571 201.059 188.665 199.551 188.665ZM205.033 183.885C205.033 185.037 205.713 185.68 207.205 186.042L208.572 186.375C209.422 186.582 209.835 186.951 209.835 187.497C209.835 188.228 209.067 188.739 207.996 188.739C206.976 188.739 206.341 188.31 206.127 187.638H204.819C204.959 188.961 206.178 189.809 207.952 189.809C209.761 189.809 211.143 188.827 211.143 187.401C211.143 186.256 210.419 185.606 208.919 185.244L207.693 184.949C206.755 184.719 206.311 184.38 206.311 183.833C206.311 183.124 207.05 182.644 207.996 182.644C208.956 182.644 209.577 183.065 209.747 183.701H211.003C210.833 182.393 209.673 181.565 208.003 181.565C206.311 181.565 205.033 182.562 205.033 183.885ZM213.803 180.169C214.29 180.169 214.689 179.769 214.689 179.282C214.689 178.795 214.29 178.396 213.803 178.396C213.315 178.396 212.916 178.795 212.916 179.282C212.916 179.769 213.315 180.169 213.803 180.169ZM213.167 189.67H214.439V181.706H213.167V189.67ZM217.393 179.644V181.706H216.108V182.769H217.393V187.6C217.393 189.122 218.051 189.729 219.691 189.729C219.942 189.729 220.186 189.699 220.437 189.654V188.584C220.201 188.605 220.075 188.613 219.846 188.613C219.018 188.613 218.664 188.214 218.664 187.276V182.769H220.437V181.706H218.664V179.644H217.393ZM227.515 187.608C227.182 188.31 226.487 188.687 225.461 188.687C224.109 188.687 223.229 187.69 223.164 186.116V186.057H228.889V185.569C228.889 183.094 227.581 181.565 225.431 181.565C223.244 181.565 221.841 183.19 221.841 185.695C221.841 188.214 223.222 189.809 225.431 189.809C227.175 189.809 228.417 188.967 228.786 187.608H227.515ZM225.417 182.688C226.68 182.688 227.523 183.619 227.552 185.03H223.164C223.26 183.619 224.146 182.688 225.417 182.688ZM233.831 189.809C234.933 189.809 235.878 189.285 236.38 188.399H236.499V189.67H237.71V178.544H236.439V182.962H236.329C235.878 182.089 234.939 181.565 233.831 181.565C231.807 181.565 230.484 183.19 230.484 185.688C230.484 188.192 231.792 189.809 233.831 189.809ZM234.127 182.71C235.567 182.71 236.468 183.863 236.468 185.688C236.468 187.527 235.575 188.665 234.127 188.665C232.672 188.665 231.799 187.549 231.799 185.688C231.799 183.833 232.678 182.71 234.127 182.71ZM244.979 179.644V181.706H243.695V182.769H244.979V187.6C244.979 189.122 245.638 189.729 247.278 189.729C247.529 189.729 247.772 189.699 248.023 189.654V188.584C247.787 188.605 247.661 188.613 247.433 188.613C246.605 188.613 246.25 188.214 246.25 187.276V182.769H248.023V181.706H246.25V179.644H244.979ZM253.099 189.809C255.368 189.809 256.771 188.243 256.771 185.688C256.771 183.124 255.368 181.565 253.099 181.565C250.831 181.565 249.428 183.124 249.428 185.688C249.428 188.243 250.831 189.809 253.099 189.809ZM253.099 188.665C251.591 188.665 250.743 187.571 250.743 185.688C250.743 183.796 251.591 182.71 253.099 182.71C254.606 182.71 255.456 183.796 255.456 185.688C255.456 187.571 254.606 188.665 253.099 188.665ZM263.716 192.551C265.127 192.551 265.762 192.005 266.442 190.157L269.552 181.706H268.2L266.021 188.259H265.902L263.716 181.706H262.342L265.289 189.677L265.142 190.15C264.809 191.111 264.409 191.457 263.678 191.457C263.502 191.457 263.302 191.45 263.146 191.421V192.506C263.324 192.535 263.546 192.551 263.716 192.551ZM274.229 189.809C276.496 189.809 277.901 188.243 277.901 185.688C277.901 183.124 276.496 181.565 274.229 181.565C271.961 181.565 270.556 183.124 270.556 185.688C270.556 188.243 271.961 189.809 274.229 189.809ZM274.229 188.665C272.721 188.665 271.871 187.571 271.871 185.688C271.871 183.796 272.721 182.71 274.229 182.71C275.736 182.71 276.586 183.796 276.586 185.688C276.586 187.571 275.736 188.665 274.229 188.665ZM286.337 181.706H285.066V186.419C285.066 187.815 284.298 188.649 282.895 188.649C281.624 188.649 281.092 187.985 281.092 186.551V181.706H279.821V186.862C279.821 188.747 280.751 189.809 282.539 189.809C283.759 189.809 284.608 189.308 285.007 188.421H285.125V189.67H286.337V181.706ZM288.73 189.67H290.001V184.734C290.001 183.611 290.881 182.799 292.093 182.799C292.344 182.799 292.802 182.843 292.905 182.872V181.602C292.742 181.58 292.476 181.565 292.27 181.565C291.213 181.565 290.298 182.112 290.06 182.887H289.942V181.706H288.73V189.67ZM302.723 189.809C304.741 189.809 306.063 188.177 306.063 185.688C306.063 183.182 304.748 181.565 302.723 181.565C301.63 181.565 300.662 182.104 300.227 182.962H300.108V178.544H298.837V189.67H300.049V188.399H300.168C300.669 189.285 301.615 189.809 302.723 189.809ZM302.428 182.71C303.883 182.71 304.748 183.825 304.748 185.688C304.748 187.549 303.883 188.665 302.428 188.665C300.98 188.665 300.078 187.527 300.078 185.688C300.078 183.848 300.98 182.71 302.428 182.71ZM310.273 189.809C311.338 189.809 312.21 189.344 312.727 188.494H312.846V189.67H314.056V184.218C314.056 182.562 312.97 181.565 311.027 181.565C309.328 181.565 308.072 182.407 307.903 183.685H309.188C309.366 183.058 310.03 182.696 310.983 182.696C312.172 182.696 312.786 183.234 312.786 184.218V184.941L310.488 185.081C308.634 185.192 307.585 186.013 307.585 187.438C307.585 188.894 308.73 189.809 310.273 189.809ZM310.511 188.695C309.588 188.695 308.9 188.222 308.9 187.409C308.9 186.611 309.431 186.19 310.643 186.109L312.786 185.968V186.7C312.786 187.837 311.818 188.695 310.511 188.695ZM316.406 189.67H317.677V184.956C317.677 183.559 318.497 182.71 319.768 182.71C321.039 182.71 321.644 183.39 321.644 184.823V189.67H322.915V184.513C322.915 182.621 321.918 181.565 320.13 181.565C318.91 181.565 318.135 182.082 317.735 182.962H317.618V181.706H316.406V189.67ZM326.705 185.185H326.587V178.544H325.316V189.67H326.587V186.648L327.347 185.939L330.333 189.67H331.95L328.293 185.119L331.721 181.706H330.162L326.705 185.185ZM339.944 189.809C341.007 189.809 341.88 189.344 342.397 188.494H342.515V189.67H343.727V184.218C343.727 182.562 342.64 181.565 340.697 181.565C338.999 181.565 337.743 182.407 337.573 183.685H338.857C339.035 183.058 339.7 182.696 340.653 182.696C341.843 182.696 342.456 183.234 342.456 184.218V184.941L340.159 185.081C338.304 185.192 337.255 186.013 337.255 187.438C337.255 188.894 338.4 189.809 339.944 189.809ZM340.18 188.695C339.257 188.695 338.57 188.222 338.57 187.409C338.57 186.611 339.102 186.19 340.314 186.109L342.456 185.968V186.7C342.456 187.837 341.488 188.695 340.18 188.695ZM352.666 184.143C352.445 182.725 351.262 181.565 349.326 181.565C347.096 181.565 345.677 183.176 345.677 185.657C345.677 188.192 347.102 189.809 349.334 189.809C351.248 189.809 352.437 188.731 352.666 187.269H351.38C351.143 188.17 350.398 188.665 349.326 188.665C347.908 188.665 346.993 187.497 346.993 185.657C346.993 183.856 347.893 182.71 349.326 182.71C350.471 182.71 351.174 183.353 351.38 184.143H352.666ZM361.132 184.143C360.911 182.725 359.729 181.565 357.793 181.565C355.561 181.565 354.143 183.176 354.143 185.657C354.143 188.192 355.569 189.809 357.801 189.809C359.713 189.809 360.904 188.731 361.132 187.269H359.847C359.61 188.17 358.865 188.665 357.793 188.665C356.375 188.665 355.458 187.497 355.458 185.657C355.458 183.856 356.36 182.71 357.793 182.71C358.938 182.71 359.64 183.353 359.847 184.143H361.132ZM366.281 189.809C368.55 189.809 369.953 188.243 369.953 185.688C369.953 183.124 368.55 181.565 366.281 181.565C364.014 181.565 362.61 183.124 362.61 185.688C362.61 188.243 364.014 189.809 366.281 189.809ZM366.281 188.665C364.775 188.665 363.925 187.571 363.925 185.688C363.925 183.796 364.775 182.71 366.281 182.71C367.789 182.71 368.639 183.796 368.639 185.688C368.639 187.571 367.789 188.665 366.281 188.665ZM378.391 181.706H377.12V186.419C377.12 187.815 376.352 188.649 374.947 188.649C373.678 188.649 373.145 187.985 373.145 186.551V181.706H371.875V186.862C371.875 188.747 372.805 189.809 374.593 189.809C375.812 189.809 376.662 189.308 377.06 188.421H377.179V189.67H378.391V181.706ZM380.784 189.67H382.055V184.956C382.055 183.559 382.876 182.71 384.145 182.71C385.416 182.71 386.023 183.39 386.023 184.823V189.67H387.292V184.513C387.292 182.621 386.295 181.565 384.507 181.565C383.289 181.565 382.512 182.082 382.114 182.962H381.995V181.706H380.784V189.67ZM390.152 179.644V181.706H388.866V182.769H390.152V187.6C390.152 189.122 390.809 189.729 392.449 189.729C392.7 189.729 392.945 189.699 393.196 189.654V188.584C392.96 188.605 392.834 188.613 392.604 188.613C391.777 188.613 391.423 188.214 391.423 187.276V182.769H393.196V181.706H391.423V179.644H390.152ZM396.351 190.404C396.882 190.404 397.31 189.968 397.31 189.443C397.31 188.911 396.882 188.483 396.351 188.483C395.826 188.483 395.39 188.911 395.39 189.443C395.39 189.968 395.826 190.404 396.351 190.404Z" fill="#4F566B"/>
<path d="M169.945 124.349V136.787H172.548V132.865H175.005C177.625 132.865 179.444 131.158 179.444 128.624C179.444 126.056 177.694 124.349 175.134 124.349H169.945ZM172.548 126.418H174.444C175.944 126.418 176.798 127.185 176.798 128.633C176.798 130.047 175.927 130.822 174.436 130.822H172.548V126.418ZM183.848 136.933C185.081 136.933 186.115 136.408 186.606 135.528H186.761V136.787H189.192V130.305C189.192 128.28 187.77 127.09 185.253 127.09C182.866 127.09 181.254 128.185 181.09 129.926H183.4C183.607 129.331 184.21 129.012 185.115 129.012C186.15 129.012 186.718 129.486 186.718 130.305V131.089L184.417 131.227C182.055 131.365 180.737 132.365 180.737 134.08C180.737 135.813 182.021 136.933 183.848 136.933ZM184.676 135.098C183.805 135.098 183.193 134.658 183.193 133.925C183.193 133.227 183.719 132.822 184.796 132.753L186.718 132.624V133.331C186.718 134.33 185.839 135.098 184.676 135.098ZM192.579 140.235C194.95 140.235 196.113 139.39 196.924 136.968L200.199 127.297H197.544L195.544 134.537H195.389L193.39 127.297H190.623L193.958 136.839L193.872 137.201C193.665 137.968 193.131 138.278 192.191 138.278C192.088 138.278 191.709 138.269 191.623 138.252V140.209C191.726 140.226 192.485 140.235 192.579 140.235ZM205.767 136.985C208.689 136.985 210.447 135.141 210.447 132.038C210.447 128.961 208.663 127.09 205.767 127.09C202.871 127.09 201.087 128.969 201.087 132.038C201.087 135.132 202.845 136.985 205.767 136.985ZM205.767 135.003C204.422 135.003 203.664 133.917 203.664 132.038C203.664 130.176 204.431 129.081 205.767 129.081C207.094 129.081 207.87 130.176 207.87 132.038C207.87 133.917 207.103 135.003 205.767 135.003ZM221.101 127.297H218.592V132.779C218.592 134.08 217.92 134.882 216.67 134.882C215.515 134.882 214.92 134.201 214.92 132.856V127.297H212.412V133.477C212.412 135.684 213.688 136.985 215.74 136.985C217.178 136.985 218.066 136.364 218.515 135.261H218.67V136.787H221.101V127.297ZM224.333 125.03V127.383H222.85V129.288H224.333V134.227C224.333 136.071 225.247 136.821 227.557 136.821C228.04 136.821 228.505 136.77 228.815 136.709V134.856C228.573 134.882 228.401 134.899 228.074 134.899C227.22 134.899 226.84 134.503 226.84 133.649V129.288H228.815V127.383H226.84V125.03H224.333ZM236.736 125.84C237.511 125.84 238.149 125.22 238.149 124.444C238.149 123.66 237.511 123.039 236.736 123.039C235.96 123.039 235.313 123.66 235.313 124.444C235.313 125.22 235.96 125.84 236.736 125.84ZM235.477 136.787H237.985V127.297H235.477V136.787ZM240.313 130.064C240.313 131.52 241.209 132.391 243.054 132.796L244.778 133.184C245.614 133.374 245.975 133.667 245.975 134.149C245.975 134.779 245.303 135.209 244.329 135.209C243.329 135.209 242.717 134.822 242.528 134.167H240.08C240.252 135.959 241.769 136.985 244.277 136.985C246.768 136.985 248.467 135.761 248.467 133.882C248.467 132.469 247.638 131.693 245.795 131.288L244.011 130.9C243.131 130.702 242.726 130.4 242.726 129.917C242.726 129.297 243.389 128.874 244.286 128.874C245.218 128.874 245.795 129.262 245.924 129.891H248.242C248.105 128.099 246.683 127.09 244.269 127.09C241.899 127.09 240.313 128.288 240.313 130.064ZM259.293 136.985C262.214 136.985 263.973 135.141 263.973 132.038C263.973 128.961 262.188 127.09 259.293 127.09C256.396 127.09 254.612 128.969 254.612 132.038C254.612 135.132 256.37 136.985 259.293 136.985ZM259.293 135.003C257.947 135.003 257.19 133.917 257.19 132.038C257.19 130.176 257.956 129.081 259.293 129.081C260.619 129.081 261.396 130.176 261.396 132.038C261.396 133.917 260.628 135.003 259.293 135.003ZM266.023 136.787H268.532V131.296C268.532 130.012 269.247 129.185 270.411 129.185C271.6 129.185 272.161 129.883 272.161 131.219V136.787H274.669V130.65C274.669 128.383 273.532 127.09 271.42 127.09C270.015 127.09 269.049 127.754 268.609 128.823H268.454V127.297H266.023V136.787ZM282.935 125.84C283.711 125.84 284.349 125.22 284.349 124.444C284.349 123.66 283.711 123.039 282.935 123.039C282.159 123.039 281.513 123.66 281.513 124.444C281.513 125.22 282.159 125.84 282.935 125.84ZM281.677 136.787H284.185V127.297H281.677V136.787ZM287.443 125.03V127.383H285.96V129.288H287.443V134.227C287.443 136.071 288.356 136.821 290.666 136.821C291.149 136.821 291.614 136.77 291.924 136.709V134.856C291.683 134.882 291.51 134.899 291.184 134.899C290.33 134.899 289.951 134.503 289.951 133.649V129.288H291.924V127.383H289.951V125.03H287.443ZM293.717 130.064C293.717 131.52 294.613 132.391 296.458 132.796L298.182 133.184C299.018 133.374 299.381 133.667 299.381 134.149C299.381 134.779 298.707 135.209 297.734 135.209C296.734 135.209 296.123 134.822 295.932 134.167H293.485C293.656 135.959 295.175 136.985 297.682 136.985C300.173 136.985 301.871 135.761 301.871 133.882C301.871 132.469 301.044 131.693 299.199 131.288L297.415 130.9C296.536 130.702 296.13 130.4 296.13 129.917C296.13 129.297 296.795 128.874 297.691 128.874C298.622 128.874 299.199 129.262 299.329 129.891H301.647C301.509 128.099 300.087 127.09 297.674 127.09C295.303 127.09 293.717 128.288 293.717 130.064ZM321.653 127.297H319.161L317.748 134.167H317.593L315.921 127.297H313.524L311.861 134.167H311.706L310.292 127.297H307.749L310.283 136.787H312.921L314.602 130.167H314.757L316.455 136.787H319.127L321.653 127.297ZM325.79 136.933C327.022 136.933 328.057 136.408 328.547 135.528H328.702V136.787H331.133V130.305C331.133 128.28 329.711 127.09 327.194 127.09C324.807 127.09 323.195 128.185 323.031 129.926H325.341C325.548 129.331 326.152 129.012 327.057 129.012C328.091 129.012 328.659 129.486 328.659 130.305V131.089L326.358 131.227C323.997 131.365 322.678 132.365 322.678 134.08C322.678 135.813 323.963 136.933 325.79 136.933ZM326.617 135.098C325.747 135.098 325.134 134.658 325.134 133.925C325.134 133.227 325.66 132.822 326.738 132.753L328.659 132.624V133.331C328.659 134.33 327.781 135.098 326.617 135.098ZM334.521 140.235C336.892 140.235 338.054 139.39 338.865 136.968L342.141 127.297H339.485L337.486 134.537H337.33L335.331 127.297H332.564L335.899 136.839L335.814 137.201C335.607 137.968 335.072 138.278 334.133 138.278C334.029 138.278 333.65 138.269 333.564 138.252V140.209C333.668 140.226 334.425 140.235 334.521 140.235Z" fill="#2A2F45"/>
<path d="M384.045 130.482C384.045 124.912 388.561 120.396 394.132 120.396C399.702 120.396 404.219 124.912 404.219 130.482C404.219 136.053 399.702 140.569 394.132 140.569C388.561 140.569 384.045 136.053 384.045 130.482ZM395.393 132.482V125.439C395.393 124.743 394.828 124.178 394.132 124.178C393.436 124.178 392.871 124.743 392.871 125.439V132.482L389.98 129.591C389.488 129.099 388.689 129.099 388.197 129.591C387.704 130.083 387.704 130.882 388.197 131.374L393.24 136.418C393.732 136.91 394.532 136.91 395.023 136.418L400.067 131.374C400.56 130.882 400.56 130.083 400.067 129.591C399.575 129.099 398.776 129.099 398.284 129.591L395.393 132.482Z" fill="#33C27F"/>
</g>
<defs>
<filter id="filter0_d_2304_4428" x="-2" y="0" width="304" height="187" filterUnits="userSpaceOnUse" color-interpolation-filters="sRGB">
<feFlood flood-opacity="0" result="BackgroundImageFix"/>
<feColorMatrix in="SourceAlpha" type="matrix" values="0 0 0 0 0 0 0 0 0 0 0 0 0 0 0 0 0 0 127 0" result="hardAlpha"/>
<feOffset dy="4"/>
<feGaussianBlur stdDeviation="4"/>
<feComposite in2="hardAlpha" operator="out"/>
<feColorMatrix type="matrix" values="0 0 0 0 0 0 0 0 0 0 0 0 0 0 0 0 0 0 0.07 0"/>
<feBlend mode="normal" in2="BackgroundImageFix" result="effect1_dropShadow_2304_4428"/>
<feBlend mode="normal" in="SourceGraphic" in2="effect1_dropShadow_2304_4428" result="shape"/>
</filter>
<filter id="filter1_dd_2304_4428" x="17.3494" y="65.6956" width="201.914" height="86" filterUnits="userSpaceOnUse" color-interpolation-filters="sRGB">
<feFlood flood-opacity="0" result="BackgroundImageFix"/>
<feColorMatrix in="SourceAlpha" type="matrix" values="0 0 0 0 0 0 0 0 0 0 0 0 0 0 0 0 0 0 127 0" result="hardAlpha"/>
<feOffset dy="1.86957"/>
<feGaussianBlur stdDeviation="0.934783"/>
<feColorMatrix type="matrix" values="0 0 0 0 0 0 0 0 0 0 0 0 0 0 0 0 0 0 0.08 0"/>
<feBlend mode="normal" in2="BackgroundImageFix" result="effect1_dropShadow_2304_4428"/>
<feColorMatrix in="SourceAlpha" type="matrix" values="0 0 0 0 0 0 0 0 0 0 0 0 0 0 0 0 0 0 127 0" result="hardAlpha"/>
<feOffset dy="3.73913"/>
<feGaussianBlur stdDeviation="4.67391"/>
<feColorMatrix type="matrix" values="0 0 0 0 0.235294 0 0 0 0 0.258824 0 0 0 0 0.341176 0 0 0 0.12 0"/>
<feBlend mode="normal" in2="effect1_dropShadow_2304_4428" result="effect2_dropShadow_2304_4428"/>
<feBlend mode="normal" in="SourceGraphic" in2="effect2_dropShadow_2304_4428" result="shape"/>
</filter>
<filter id="filter2_dd_2304_4428" x="130.679" y="95.6226" width="315.074" height="133.509" filterUnits="userSpaceOnUse" color-interpolation-filters="sRGB">
<feFlood flood-opacity="0" result="BackgroundImageFix"/>
<feColorMatrix in="SourceAlpha" type="matrix" values="0 0 0 0 0 0 0 0 0 0 0 0 0 0 0 0 0 0 127 0" result="hardAlpha"/>
<feOffset dy="2.18868"/>
<feGaussianBlur stdDeviation="2.18868"/>
<feComposite in2="hardAlpha" operator="out"/>
<feColorMatrix type="matrix" values="0 0 0 0 0 0 0 0 0 0 0 0 0 0 0 0 0 0 0.07 0"/>
<feBlend mode="normal" in2="BackgroundImageFix" result="effect1_dropShadow_2304_4428"/>
<feColorMatrix in="SourceAlpha" type="matrix" values="0 0 0 0 0 0 0 0 0 0 0 0 0 0 0 0 0 0 127 0" result="hardAlpha"/>
<feOffset dy="4.37736"/>
<feGaussianBlur stdDeviation="4.37736"/>
<feComposite in2="hardAlpha" operator="out"/>
<feColorMatrix type="matrix" values="0 0 0 0 0 0 0 0 0 0 0 0 0 0 0 0 0 0 0.05 0"/>
<feBlend mode="normal" in2="effect1_dropShadow_2304_4428" result="effect2_dropShadow_2304_4428"/>
<feBlend mode="normal" in="SourceGraphic" in2="effect2_dropShadow_2304_4428" result="shape"/>
</filter>
<linearGradient id="paint0_linear_2304_4428" x1="323.564" y1="258.53" x2="323.564" y2="100" gradientUnits="userSpaceOnUse">
<stop stop-color="#E3E8EE"/>
<stop offset="1" stop-color="#F7FAFC" stop-opacity="0.351"/>
</linearGradient>
<clipPath id="clip0_2304_4428">
<rect x="6" y="4" width="288" height="171" rx="4" fill="white"/>
</clipPath>
</defs>
</svg>
