<svg width="246" height="206" viewBox="0 0 246 206" fill="none" xmlns="http://www.w3.org/2000/svg">
<g clip-path="url(#clip0_5828_3676)">
<rect width="108.45" height="24.4928" transform="translate(1.60938)" fill="#3E4652"/>
<path d="M10.1037 14.7461V9.11234H13.3635V9.57448H10.6181V11.6954H13.1076V12.1575H10.6181V14.7461H10.1037ZM19.3388 11.9292C19.3388 12.5161 19.2342 13.0268 19.0252 13.4614C18.8161 13.8942 18.5282 14.2298 18.1614 14.4683C17.7965 14.7048 17.3765 14.8231 16.9015 14.8231C16.4265 14.8231 16.0056 14.7048 15.6389 14.4683C15.2739 14.2298 14.9869 13.8942 14.7778 13.4614C14.5706 13.0268 14.467 12.5161 14.467 11.9292C14.467 11.3424 14.5706 10.8325 14.7778 10.3997C14.9869 9.96511 15.2748 9.6295 15.6416 9.39293C16.0084 9.15452 16.4284 9.03532 16.9015 9.03532C17.3765 9.03532 17.7965 9.15452 18.1614 9.39293C18.5282 9.6295 18.8161 9.96511 19.0252 10.3997C19.2342 10.8325 19.3388 11.3424 19.3388 11.9292ZM18.8381 11.9292C18.8381 11.4249 18.7538 10.993 18.585 10.6336C18.4163 10.2723 18.1862 9.99628 17.8946 9.80556C17.603 9.61483 17.272 9.51947 16.9015 9.51947C16.5329 9.51947 16.2028 9.61483 15.9112 9.80556C15.6196 9.99628 15.3885 10.2714 15.218 10.6308C15.0493 10.9903 14.9649 11.4231 14.9649 11.9292C14.9649 12.4335 15.0493 12.8654 15.218 13.2249C15.3867 13.5843 15.6169 13.8603 15.9084 14.0529C16.2 14.2436 16.5311 14.339 16.9015 14.339C17.272 14.339 17.603 14.2436 17.8946 14.0529C18.188 13.8622 18.4191 13.5871 18.5878 13.2276C18.7565 12.8663 18.8399 12.4335 18.8381 11.9292ZM20.6603 14.7461V9.11234H22.4786C22.8784 9.11234 23.2122 9.18478 23.4799 9.32966C23.7495 9.4727 23.9522 9.67168 24.0879 9.92659C24.2254 10.1797 24.2942 10.4703 24.2942 10.7986C24.2942 11.1269 24.2254 11.4166 24.0879 11.6679C23.9522 11.9191 23.7504 12.1154 23.4827 12.2566C23.2149 12.3978 22.883 12.4684 22.4869 12.4684H20.9381V11.998H22.4731C22.7665 11.998 23.0105 11.9494 23.2048 11.8522C23.4011 11.755 23.5469 11.6165 23.6422 11.4368C23.7394 11.2571 23.788 11.0444 23.788 10.7986C23.788 10.5529 23.7394 10.3383 23.6422 10.1549C23.545 9.96969 23.3983 9.82665 23.2021 9.72578C23.0077 9.62492 22.762 9.57448 22.4649 9.57448H21.1747V14.7461H20.6603ZM23.1443 12.2043L24.5308 14.7461H23.9366L22.5639 12.2043H23.1443ZM25.6247 9.11234H26.2189L28.2627 14.0199H28.3123L30.3561 9.11234H30.9503V14.7461H30.4662V10.1989H30.4222L28.5213 14.7461H28.0537L26.1528 10.1989H26.1088V14.7461H25.6247V9.11234ZM34.7818 14.7461V9.11234H38.0498V9.57448H35.2962V11.6954H37.8765V12.1575H35.2962V14.2839H38.1048V14.7461H34.7818ZM39.4587 14.7461V9.11234H39.9731V14.2839H42.6579V14.7461H39.4587ZM43.8935 14.7461V9.11234H47.1615V9.57448H44.4079V11.6954H46.9882V12.1575H44.4079V14.2839H47.2165V14.7461H43.8935ZM48.5704 9.11234H49.1646L51.2085 14.0199H51.258L53.3019 9.11234H53.896V14.7461H53.4119V10.1989H53.3679L51.467 14.7461H50.9994L49.0985 10.1989H49.0545V14.7461H48.5704V9.11234ZM55.4714 14.7461V9.11234H58.7394V9.57448H55.9858V11.6954H58.5661V12.1575H55.9858V14.2839H58.7944V14.7461H55.4714ZM64.5359 9.11234V14.7461H64.0352L60.7067 10.0284H60.6627V14.7461H60.1482V9.11234H60.6462L63.9857 13.8356H64.0297V9.11234H64.5359ZM65.7701 9.57448V9.11234H69.8551V9.57448H68.0698V14.7461H67.5554V9.57448H65.7701ZM74.1496 10.5208C74.1184 10.2072 73.98 9.95777 73.7342 9.77254C73.4885 9.58732 73.1795 9.49471 72.8072 9.49471C72.5449 9.49471 72.3139 9.53964 72.114 9.6295C71.9159 9.71936 71.76 9.84407 71.6463 10.0036C71.5345 10.1613 71.4785 10.3411 71.4785 10.5428C71.4785 10.6913 71.5106 10.8215 71.5748 10.9334C71.639 11.0453 71.7252 11.1416 71.8334 11.2222C71.9434 11.3011 72.0645 11.369 72.1965 11.4258C72.3304 11.4827 72.4652 11.5303 72.6009 11.5689L73.1951 11.7394C73.3748 11.7889 73.5545 11.8522 73.7342 11.9292C73.914 12.0062 74.0781 12.1034 74.2266 12.2208C74.377 12.3363 74.4971 12.4785 74.587 12.6472C74.6787 12.8141 74.7245 13.0149 74.7245 13.2496C74.7245 13.5504 74.6466 13.8209 74.4907 14.0611C74.3348 14.3014 74.1111 14.4921 73.8195 14.6333C73.5279 14.7727 73.1786 14.8424 72.7714 14.8424C72.3881 14.8424 72.0553 14.7791 71.7729 14.6526C71.4905 14.5242 71.2685 14.3472 71.1072 14.1216C70.9458 13.8961 70.855 13.6347 70.8348 13.3377H71.363C71.3813 13.5596 71.4547 13.7475 71.5831 13.9016C71.7114 14.0556 71.8783 14.173 72.0837 14.2537C72.2891 14.3325 72.5184 14.372 72.7714 14.372C73.052 14.372 73.3014 14.3252 73.5197 14.2317C73.7397 14.1363 73.9121 14.0043 74.0368 13.8356C74.1634 13.665 74.2266 13.4669 74.2266 13.2414C74.2266 13.0506 74.1771 12.8911 74.0781 12.7627C73.9791 12.6325 73.8406 12.5234 73.6627 12.4354C73.4867 12.3473 73.2822 12.2694 73.0493 12.2016L72.3753 12.0035C71.9333 11.8714 71.5904 11.689 71.3465 11.4561C71.1026 11.2232 70.9806 10.9261 70.9806 10.5648C70.9806 10.2622 71.0613 9.99628 71.2227 9.76704C71.3859 9.53597 71.606 9.35625 71.8829 9.22788C72.1617 9.09767 72.4743 9.03256 72.8209 9.03256C73.1712 9.03256 73.4812 9.09675 73.7507 9.22512C74.0203 9.3535 74.234 9.53047 74.3917 9.75604C74.5512 9.97978 74.6365 10.2347 74.6475 10.5208H74.1496Z" fill="white"/>
<rect width="108.45" height="25.1758" transform="translate(1.60938 24.4922)" fill="#545F6F"/>
<g clip-path="url(#clip1_5828_3676)">
<path d="M17.8302 34.0541V40.106H18.4354C18.5156 40.106 18.5926 40.1379 18.6494 40.1946C18.7061 40.2514 18.738 40.3284 18.738 40.4086V41.0138C18.738 41.094 18.7061 41.171 18.6494 41.2278C18.5926 41.2845 18.5156 41.3164 18.4354 41.3164H15.4094C15.3292 41.3164 15.2522 41.2845 15.1955 41.2278C15.1387 41.171 15.1069 41.094 15.1069 41.0138V40.4086C15.1069 40.3284 15.1387 40.2514 15.1955 40.1946C15.2522 40.1379 15.3292 40.106 15.4094 40.106H16.0146V37.6853H12.3835V40.106H12.9887C13.0689 40.106 13.1459 40.1379 13.2027 40.1946C13.2594 40.2514 13.2913 40.3284 13.2913 40.4086V41.0138C13.2913 41.094 13.2594 41.171 13.2027 41.2278C13.1459 41.2845 13.0689 41.3164 12.9887 41.3164H9.96275C9.8825 41.3164 9.80553 41.2845 9.74878 41.2278C9.69204 41.171 9.66016 41.094 9.66016 41.0138V40.4086C9.66016 40.3284 9.69204 40.2514 9.74878 40.1946C9.80553 40.1379 9.8825 40.106 9.96275 40.106H10.5679V34.0541H9.96275C9.8825 34.0541 9.80553 34.0222 9.74878 33.9655C9.69204 33.9088 9.66016 33.8318 9.66016 33.7515V33.1463C9.66016 33.0661 9.69204 32.9891 9.74878 32.9324C9.80553 32.8756 9.8825 32.8438 9.96275 32.8438H12.9887C13.0689 32.8438 13.1459 32.8756 13.2027 32.9324C13.2594 32.9891 13.2913 33.0661 13.2913 33.1463V33.7515C13.2913 33.8318 13.2594 33.9088 13.2027 33.9655C13.1459 34.0222 13.0689 34.0541 12.9887 34.0541H12.3835V36.4749H16.0146V34.0541H15.4094C15.3292 34.0541 15.2522 34.0222 15.1955 33.9655C15.1387 33.9088 15.1069 33.8318 15.1069 33.7515V33.1463C15.1069 33.0661 15.1387 32.9891 15.1955 32.9324C15.2522 32.8756 15.3292 32.8438 15.4094 32.8438H18.4354C18.5156 32.8438 18.5926 32.8756 18.6494 32.9324C18.7061 32.9891 18.738 33.0661 18.738 33.1463V33.7515C18.738 33.8318 18.7061 33.9088 18.6494 33.9655C18.5926 34.0222 18.5156 34.0541 18.4354 34.0541H17.8302Z" fill="#FAFAFA"/>
</g>
<path d="M31.3404 39.582V33.9483H32.0226V36.4571H35.0266V33.9483H35.7088V39.582H35.0266V37.0622H32.0226V39.582H31.3404ZM38.7581 39.6701C38.351 39.6701 37.9998 39.5802 37.7045 39.4005C37.4111 39.2189 37.1846 38.9658 37.0251 38.6412C36.8673 38.3148 36.7885 37.9352 36.7885 37.5024C36.7885 37.0696 36.8673 36.6881 37.0251 36.358C37.1846 36.0261 37.4065 35.7675 37.6908 35.5823C37.9769 35.3952 38.3106 35.3017 38.6921 35.3017C38.9121 35.3017 39.1295 35.3384 39.344 35.4117C39.5586 35.4851 39.7539 35.6043 39.93 35.7693C40.106 35.9326 40.2463 36.149 40.3508 36.4185C40.4554 36.6881 40.5076 37.0201 40.5076 37.4144V37.6894H37.2506V37.1283H39.8474C39.8474 36.8899 39.7998 36.6771 39.7044 36.4901C39.6109 36.303 39.477 36.1554 39.3028 36.0472C39.1304 35.939 38.9268 35.8849 38.6921 35.8849C38.4335 35.8849 38.2098 35.9491 38.0209 36.0774C37.8338 36.204 37.6899 36.369 37.589 36.5726C37.4881 36.7762 37.4377 36.9944 37.4377 37.2273V37.6014C37.4377 37.9205 37.4927 38.191 37.6027 38.4129C37.7146 38.633 37.8696 38.8008 38.0676 38.9163C38.2657 39.03 38.4959 39.0869 38.7581 39.0869C38.9287 39.0869 39.0827 39.063 39.2202 39.0154C39.3596 38.9658 39.4797 38.8925 39.5806 38.7953C39.6815 38.6963 39.7594 38.5734 39.8144 38.4267L40.4416 38.6027C40.3756 38.8155 40.2647 39.0025 40.1088 39.1639C39.9529 39.3235 39.7603 39.4482 39.5311 39.538C39.3019 39.626 39.0442 39.6701 38.7581 39.6701ZM42.7386 39.6811C42.4708 39.6811 42.2278 39.6306 42.0096 39.5298C41.7914 39.4271 41.6181 39.2794 41.4897 39.0869C41.3613 38.8925 41.2971 38.6577 41.2971 38.3827C41.2971 38.1406 41.3448 37.9444 41.4402 37.794C41.5355 37.6418 41.663 37.5226 41.8226 37.4364C41.9821 37.3502 42.1582 37.286 42.3507 37.2438C42.5451 37.1998 42.7404 37.1649 42.9367 37.1393C43.1934 37.1063 43.4015 37.0815 43.5611 37.065C43.7225 37.0467 43.8398 37.0164 43.9132 36.9742C43.9884 36.932 44.026 36.8587 44.026 36.7542V36.7321C44.026 36.4607 43.9517 36.2498 43.8032 36.0994C43.6565 35.9491 43.4336 35.8739 43.1347 35.8739C42.8248 35.8739 42.5818 35.9417 42.4057 36.0774C42.2297 36.2131 42.1059 36.358 42.0344 36.5121L41.4182 36.292C41.5282 36.0353 41.6749 35.8354 41.8583 35.6923C42.0435 35.5474 42.2453 35.4466 42.4635 35.3897C42.6836 35.331 42.9 35.3017 43.1127 35.3017C43.2484 35.3017 43.4043 35.3182 43.5804 35.3512C43.7582 35.3824 43.9297 35.4475 44.0948 35.5465C44.2616 35.6456 44.4001 35.795 44.5101 35.9949C44.6202 36.1948 44.6752 36.4626 44.6752 36.7982V39.582H44.026V39.0099H43.993C43.949 39.1015 43.8756 39.1997 43.7729 39.3042C43.6702 39.4087 43.5336 39.4977 43.363 39.571C43.1925 39.6444 42.9843 39.6811 42.7386 39.6811ZM42.8376 39.0979C43.0944 39.0979 43.3108 39.0474 43.4868 38.9466C43.6647 38.8457 43.7986 38.7155 43.8884 38.556C43.9801 38.3964 44.026 38.2286 44.026 38.0526V37.4584C43.9985 37.4914 43.938 37.5216 43.8444 37.5491C43.7527 37.5748 43.6464 37.5977 43.5253 37.6179C43.4061 37.6363 43.2897 37.6528 43.176 37.6674C43.0641 37.6803 42.9733 37.6913 42.9036 37.7004C42.7349 37.7225 42.5772 37.7582 42.4305 37.8077C42.2856 37.8554 42.1682 37.9278 42.0784 38.025C41.9904 38.1204 41.9463 38.2506 41.9463 38.4157C41.9463 38.6412 42.0298 38.8118 42.1967 38.9273C42.3654 39.041 42.579 39.0979 42.8376 39.0979ZM47.4556 39.6701C47.1035 39.6701 46.7927 39.5811 46.5231 39.4032C46.2535 39.2235 46.0426 38.9704 45.8904 38.644C45.7382 38.3157 45.6621 37.9278 45.6621 37.4804C45.6621 37.0366 45.7382 36.6515 45.8904 36.325C46.0426 35.9986 46.2544 35.7464 46.5258 35.5685C46.7972 35.3906 47.1108 35.3017 47.4666 35.3017C47.7417 35.3017 47.959 35.3475 48.1186 35.4392C48.28 35.5291 48.4028 35.6318 48.4872 35.7473C48.5734 35.861 48.6403 35.9546 48.688 36.0279H48.743V33.9483H49.3922V39.582H48.765V38.9328H48.688C48.6403 39.0099 48.5725 39.1071 48.4844 39.2244C48.3964 39.34 48.2708 39.4436 48.1076 39.5353C47.9444 39.6251 47.727 39.6701 47.4556 39.6701ZM47.5436 39.0869C47.8041 39.0869 48.0241 39.019 48.2039 38.8833C48.3836 38.7458 48.5202 38.556 48.6137 38.3139C48.7073 38.07 48.754 37.7885 48.754 37.4694C48.754 37.1539 48.7082 36.8779 48.6165 36.6414C48.5248 36.403 48.3891 36.2177 48.2094 36.0857C48.0296 35.9518 47.8077 35.8849 47.5436 35.8849C47.2686 35.8849 47.0393 35.9555 46.8559 36.0967C46.6744 36.2361 46.5378 36.4259 46.4461 36.6661C46.3562 36.9045 46.3113 37.1723 46.3113 37.4694C46.3113 37.7701 46.3571 38.0434 46.4488 38.2891C46.5423 38.533 46.6799 38.7274 46.8614 38.8723C47.0448 39.0154 47.2722 39.0869 47.5436 39.0869ZM50.6714 39.582V35.3567H51.3206V39.582H50.6714ZM51.0015 34.6525C50.8749 34.6525 50.7658 34.6094 50.6741 34.5232C50.5843 34.437 50.5393 34.3334 50.5393 34.2124C50.5393 34.0913 50.5843 33.9877 50.6741 33.9015C50.7658 33.8153 50.8749 33.7722 51.0015 33.7722C51.128 33.7722 51.2362 33.8153 51.3261 33.9015C51.4178 33.9877 51.4636 34.0913 51.4636 34.2124C51.4636 34.3334 51.4178 34.437 51.3261 34.5232C51.2362 34.6094 51.128 34.6525 51.0015 34.6525ZM53.1588 37.0402V39.582H52.5096V35.3567H53.1368V36.0169H53.1918C53.2909 35.8024 53.4413 35.63 53.643 35.4998C53.8447 35.3677 54.1051 35.3017 54.4242 35.3017C54.7103 35.3017 54.9606 35.3604 55.1752 35.4778C55.3898 35.5933 55.5567 35.7693 55.6759 36.0059C55.7951 36.2407 55.8547 36.5378 55.8547 36.8972V39.582H55.2055V36.9412C55.2055 36.6093 55.1193 36.3507 54.9469 36.1655C54.7745 35.9784 54.5379 35.8849 54.2372 35.8849C54.0299 35.8849 53.8447 35.9298 53.6815 36.0197C53.5201 36.1095 53.3927 36.2407 53.2991 36.413C53.2056 36.5854 53.1588 36.7945 53.1588 37.0402ZM58.7465 41.2546C58.4329 41.2546 58.1633 41.2142 57.9378 41.1335C57.7122 41.0547 57.5242 40.9501 57.3738 40.8199C57.2253 40.6915 57.107 40.554 57.019 40.4073L57.5361 40.0442C57.5948 40.1212 57.6691 40.2092 57.759 40.3083C57.8488 40.4091 57.9717 40.4962 58.1276 40.5696C58.2853 40.6448 58.4916 40.6824 58.7465 40.6824C59.0876 40.6824 59.3691 40.5998 59.591 40.4348C59.8129 40.2697 59.9239 40.0112 59.9239 39.6591V38.8008H59.8689C59.8212 38.8778 59.7533 38.9732 59.6653 39.0869C59.5791 39.1987 59.4544 39.2987 59.2912 39.3867C59.1298 39.4729 58.9116 39.516 58.6365 39.516C58.2954 39.516 57.9891 39.4353 57.7177 39.2739C57.4481 39.1126 57.2345 38.8778 57.0767 38.5697C56.9209 38.2616 56.8429 37.8875 56.8429 37.4474C56.8429 37.0146 56.919 36.6377 57.0712 36.3168C57.2235 35.994 57.4353 35.7446 57.7067 35.5685C57.9781 35.3906 58.2917 35.3017 58.6475 35.3017C58.9226 35.3017 59.1408 35.3475 59.3022 35.4392C59.4654 35.5291 59.5901 35.6318 59.6763 35.7473C59.7643 35.861 59.8322 35.9546 59.8799 36.0279H59.9459V35.3567H60.5731V39.7031C60.5731 40.0662 60.4906 40.3614 60.3255 40.5888C60.1623 40.8181 59.9422 40.9859 59.6653 41.0923C59.3902 41.2005 59.0839 41.2546 58.7465 41.2546ZM58.7245 38.9328C58.9849 38.9328 59.205 38.8732 59.3847 38.754C59.5644 38.6348 59.7011 38.4633 59.7946 38.2396C59.8881 38.0159 59.9349 37.7481 59.9349 37.4364C59.9349 37.1319 59.889 36.8633 59.7973 36.6304C59.7056 36.3975 59.5699 36.215 59.3902 36.0829C59.2105 35.9509 58.9886 35.8849 58.7245 35.8849C58.4494 35.8849 58.2202 35.9546 58.0368 36.0939C57.8552 36.2333 57.7186 36.4204 57.6269 36.6551C57.5371 36.8899 57.4921 37.1503 57.4921 37.4364C57.4921 37.7298 57.538 37.9893 57.6297 38.2149C57.7232 38.4386 57.8607 38.6146 58.0423 38.743C58.2257 38.8696 58.4531 38.9328 58.7245 38.9328Z" fill="#FAFAFA"/>
<line x1="1.60938" y1="49.1838" x2="110.059" y2="49.1838" stroke="#616B78" stroke-width="0.968301"/>
<rect width="108.45" height="25.1758" transform="translate(1.60938 49.668)" fill="#545F6F"/>
<path d="M18.2214 65.3596C17.7028 64.4495 16.8931 63.7403 15.9225 63.3462C16.4051 62.9842 16.7617 62.4795 16.9416 61.9036C17.1215 61.3278 17.1156 60.7099 16.9248 60.1375C16.734 59.5651 16.368 59.0673 15.8785 58.7145C15.3891 58.3617 14.801 58.1719 14.1977 58.1719C13.5943 58.1719 13.0063 58.3617 12.5168 58.7145C12.0274 59.0673 11.6613 59.5651 11.4705 60.1375C11.2798 60.7099 11.2739 61.3278 11.4538 61.9036C11.6337 62.4795 11.9902 62.9842 12.4729 63.3462C11.5023 63.7403 10.6925 64.4495 10.1739 65.3596C10.1418 65.4113 10.1204 65.4689 10.1109 65.529C10.1015 65.5891 10.1043 65.6505 10.1191 65.7095C10.1338 65.7686 10.1603 65.824 10.1969 65.8726C10.2336 65.9212 10.2796 65.9619 10.3323 65.9923C10.385 66.0228 10.4432 66.0423 10.5036 66.0498C10.564 66.0573 10.6253 66.0525 10.6838 66.0358C10.7423 66.0191 10.7969 65.9909 10.8443 65.9527C10.8916 65.9145 10.9308 65.8672 10.9595 65.8135C11.6449 64.6289 12.8553 63.9223 14.1977 63.9223C15.5401 63.9223 16.7504 64.6292 17.4358 65.8135C17.498 65.9136 17.5967 65.9855 17.711 66.0141C17.8253 66.0427 17.9463 66.0258 18.0483 65.9668C18.1503 65.9079 18.2254 65.8116 18.2577 65.6983C18.29 65.5849 18.277 65.4635 18.2214 65.3596ZM12.2308 61.0477C12.2308 60.6586 12.3462 60.2784 12.5623 59.9549C12.7784 59.6315 13.0856 59.3794 13.445 59.2305C13.8044 59.0816 14.1999 59.0427 14.5814 59.1186C14.9629 59.1945 15.3134 59.3818 15.5885 59.6569C15.8635 59.9319 16.0509 60.2824 16.1267 60.6639C16.2026 61.0455 16.1637 61.4409 16.0148 61.8003C15.8659 62.1597 15.6139 62.4669 15.2904 62.683C14.967 62.8992 14.5867 63.0145 14.1977 63.0145C13.6762 63.0139 13.1763 62.8065 12.8076 62.4378C12.4388 62.069 12.2314 61.5691 12.2308 61.0477Z" fill="#FAFAFA"/>
<path d="M31.3404 64.7578V59.1241H34.7185V59.7292H32.0226V61.6328H34.4654V62.238H32.0226V64.7578H31.3404ZM38.1969 63.0303V60.5325H38.8461V64.7578H38.1969V64.0426H38.1529C38.0539 64.2572 37.8998 64.4396 37.6908 64.59C37.4817 64.7386 37.2176 64.8128 36.8985 64.8128C36.6344 64.8128 36.3997 64.7551 36.1943 64.6395C35.9889 64.5222 35.8275 64.3461 35.7102 64.1114C35.5928 63.8748 35.5341 63.5768 35.5341 63.2173V60.5325H36.1833V63.1733C36.1833 63.4814 36.2695 63.7272 36.4419 63.9105C36.6161 64.0939 36.838 64.1856 37.1076 64.1856C37.269 64.1856 37.4331 64.1444 37.6 64.0618C37.7687 63.9793 37.9099 63.8528 38.0236 63.6822C38.1392 63.5117 38.1969 63.2944 38.1969 63.0303ZM40.6844 59.1241V64.7578H40.0352V59.1241H40.6844ZM42.5226 59.1241V64.7578H41.8734V59.1241H42.5226ZM50.4458 59.1241V64.7578H49.7856L46.7156 60.3344H46.6606V64.7578H45.9784V59.1241H46.6386L49.7196 63.5584H49.7746V59.1241H50.4458ZM52.9663 64.8568C52.6985 64.8568 52.4555 64.8064 52.2373 64.7055C52.0191 64.6028 51.8458 64.4552 51.7174 64.2627C51.589 64.0683 51.5248 63.8335 51.5248 63.5584C51.5248 63.3164 51.5725 63.1201 51.6679 62.9698C51.7632 62.8175 51.8907 62.6983 52.0502 62.6121C52.2098 62.526 52.3858 62.4618 52.5784 62.4196C52.7728 62.3756 52.9681 62.3407 53.1643 62.3151C53.4211 62.282 53.6292 62.2573 53.7888 62.2408C53.9502 62.2224 54.0675 62.1922 54.1409 62.15C54.2161 62.1078 54.2537 62.0345 54.2537 61.9299V61.9079C54.2537 61.6365 54.1794 61.4256 54.0309 61.2752C53.8841 61.1248 53.6613 61.0497 53.3624 61.0497C53.0525 61.0497 52.8095 61.1175 52.6334 61.2532C52.4574 61.3889 52.3336 61.5338 52.2621 61.6879L51.6459 61.4678C51.7559 61.211 51.9026 61.0111 52.086 60.8681C52.2712 60.7232 52.473 60.6224 52.6912 60.5655C52.9113 60.5068 53.1277 60.4775 53.3404 60.4775C53.4761 60.4775 53.632 60.494 53.808 60.527C53.9859 60.5582 54.1574 60.6233 54.3224 60.7223C54.4893 60.8213 54.6278 60.9708 54.7378 61.1707C54.8479 61.3706 54.9029 61.6383 54.9029 61.9739V64.7578H54.2537V64.1856H54.2207C54.1767 64.2773 54.1033 64.3754 54.0006 64.48C53.8979 64.5845 53.7613 64.6735 53.5907 64.7468C53.4202 64.8202 53.212 64.8568 52.9663 64.8568ZM53.0653 64.2737C53.3221 64.2737 53.5385 64.2232 53.7145 64.1224C53.8924 64.0215 54.0263 63.8913 54.1161 63.7317C54.2078 63.5722 54.2537 63.4044 54.2537 63.2283V62.6342C54.2262 62.6672 54.1656 62.6974 54.0721 62.7249C53.9804 62.7506 53.8741 62.7735 53.753 62.7937C53.6338 62.812 53.5174 62.8285 53.4037 62.8432C53.2918 62.8561 53.201 62.8671 53.1313 62.8762C52.9626 62.8982 52.8049 62.934 52.6582 62.9835C52.5133 63.0312 52.3959 63.1036 52.3061 63.2008C52.218 63.2962 52.174 63.4264 52.174 63.5914C52.174 63.817 52.2575 63.9876 52.4244 64.1031C52.5931 64.2168 52.8067 64.2737 53.0653 64.2737ZM56.0878 64.7578V60.5325H56.715V61.1927H56.77C56.858 60.9671 57.0002 60.792 57.1964 60.6673C57.3926 60.5407 57.6283 60.4775 57.9034 60.4775C58.1821 60.4775 58.4141 60.5407 58.5993 60.6673C58.7864 60.792 58.9322 60.9671 59.0367 61.1927H59.0807C59.1889 60.9745 59.3512 60.8012 59.5676 60.6728C59.784 60.5426 60.0435 60.4775 60.3461 60.4775C60.7239 60.4775 61.0329 60.5958 61.2732 60.8323C61.5134 61.0671 61.6335 61.4329 61.6335 61.9299V64.7578H60.9843V61.9299C60.9843 61.6182 60.8991 61.3953 60.7285 61.2615C60.558 61.1276 60.3571 61.0607 60.1261 61.0607C59.829 61.0607 59.5988 61.1505 59.4356 61.3302C59.2724 61.5081 59.1908 61.7337 59.1908 62.007V64.7578H58.5306V61.8639C58.5306 61.6237 58.4526 61.4302 58.2967 61.2835C58.1409 61.1349 57.9401 61.0607 57.6943 61.0607C57.5256 61.0607 57.3679 61.1056 57.2212 61.1955C57.0763 61.2853 56.9589 61.41 56.8691 61.5696C56.781 61.7273 56.737 61.9098 56.737 62.117V64.7578H56.0878ZM64.5921 64.8458C64.185 64.8458 63.8338 64.756 63.5385 64.5763C63.2451 64.3947 63.0186 64.1416 62.859 63.817C62.7013 63.4906 62.6225 63.111 62.6225 62.6782C62.6225 62.2454 62.7013 61.8639 62.859 61.5338C63.0186 61.2019 63.2405 60.9433 63.5247 60.7581C63.8108 60.571 64.1446 60.4775 64.5261 60.4775C64.7461 60.4775 64.9634 60.5142 65.178 60.5875C65.3926 60.6609 65.5879 60.7801 65.7639 60.9451C65.94 61.1083 66.0803 61.3247 66.1848 61.5943C66.2894 61.8639 66.3416 62.1958 66.3416 62.5901V62.8652H63.0846V62.304H65.6814C65.6814 62.0656 65.6337 61.8529 65.5384 61.6658C65.4448 61.4788 65.311 61.3312 65.1368 61.223C64.9644 61.1148 64.7608 61.0607 64.5261 61.0607C64.2675 61.0607 64.0437 61.1248 63.8549 61.2532C63.6678 61.3798 63.5238 61.5448 63.423 61.7484C63.3221 61.9519 63.2717 62.1702 63.2717 62.4031V62.7772C63.2717 63.0963 63.3267 63.3668 63.4367 63.5887C63.5486 63.8088 63.7036 63.9766 63.9016 64.0921C64.0997 64.2058 64.3298 64.2627 64.5921 64.2627C64.7626 64.2627 64.9167 64.2388 65.0542 64.1911C65.1936 64.1416 65.3137 64.0683 65.4146 63.9711C65.5155 63.872 65.5934 63.7492 65.6484 63.6025L66.2756 63.7785C66.2096 63.9912 66.0986 64.1783 65.9428 64.3397C65.7869 64.4992 65.5943 64.6239 65.3651 64.7138C65.1358 64.8018 64.8782 64.8458 64.5921 64.8458Z" fill="#FAFAFA"/>
<line x1="1.60938" y1="74.3596" x2="110.059" y2="74.3596" stroke="#616B78" stroke-width="0.968301"/>
<rect width="108.45" height="25.1758" transform="translate(1.60938 74.8438)" fill="#545F6F"/>
<path d="M10.5658 84.6098V84.1055C10.2875 84.1055 10.0615 84.3314 10.0615 84.6098H10.5658ZM17.8281 84.6098H18.3324C18.3324 84.3314 18.1065 84.1055 17.8281 84.1055V84.6098ZM10.5658 85.1141H17.8281V84.1055H10.5658V85.1141ZM17.3238 84.6098V89.4513H18.3324V84.6098H17.3238ZM17.0212 89.7539H11.3728V90.7625H17.0212V89.7539ZM11.0702 89.4513V84.6098H10.0615V89.4513H11.0702ZM11.3728 89.7539C11.2925 89.7539 11.2155 89.722 11.1588 89.6653C11.1021 89.6085 11.0702 89.5316 11.0702 89.4513H10.0615C10.0615 89.7991 10.1997 90.1326 10.4456 90.3785C10.6915 90.6244 11.025 90.7625 11.3728 90.7625V89.7539ZM17.3238 89.4513C17.3238 89.5316 17.2919 89.6085 17.2352 89.6653C17.1784 89.722 17.1014 89.7539 17.0212 89.7539V90.7625C17.369 90.7625 17.7025 90.6244 17.9484 90.3785C18.1943 90.1326 18.3324 89.7991 18.3324 89.4513H17.3238Z" fill="#FAFAFA"/>
<path d="M10.5664 84.6094L14.1975 88.2405L17.8287 84.6094" stroke="#FAFAFA" stroke-width="1.00865" stroke-linecap="round" stroke-linejoin="round"/>
<path d="M31.3404 89.9336V84.2998H34.7405V84.905H32.0226V86.8086H34.5644V87.4138H32.0226V89.3284H34.7845V89.9336H31.3404ZM35.8821 89.9336V85.7083H36.5093V86.3685H36.5643C36.6523 86.1429 36.7944 85.9678 36.9907 85.8431C37.1869 85.7165 37.4226 85.6533 37.6976 85.6533C37.9764 85.6533 38.2084 85.7165 38.3936 85.8431C38.5807 85.9678 38.7265 86.1429 38.831 86.3685H38.875C38.9832 86.1502 39.1455 85.9769 39.3619 85.8486C39.5783 85.7184 39.8378 85.6533 40.1404 85.6533C40.5182 85.6533 40.8272 85.7715 41.0674 86.0081C41.3077 86.2429 41.4278 86.6087 41.4278 87.1057V89.9336H40.7786V87.1057C40.7786 86.7939 40.6933 86.5711 40.5228 86.4373C40.3522 86.3034 40.1514 86.2364 39.9203 86.2364C39.6232 86.2364 39.3931 86.3263 39.2299 86.506C39.0667 86.6839 38.985 86.9095 38.985 87.1827V89.9336H38.3248V87.0397C38.3248 86.7995 38.2469 86.606 38.091 86.4593C37.9351 86.3107 37.7343 86.2364 37.4886 86.2364C37.3199 86.2364 37.1621 86.2814 37.0154 86.3712C36.8706 86.4611 36.7532 86.5858 36.6633 86.7454C36.5753 86.9031 36.5313 87.0855 36.5313 87.2928V89.9336H35.8821ZM43.8582 90.0326C43.5904 90.0326 43.3474 89.9822 43.1292 89.8813C42.911 89.7786 42.7377 89.631 42.6093 89.4384C42.4809 89.244 42.4167 89.0093 42.4167 88.7342C42.4167 88.4921 42.4644 88.2959 42.5598 88.1455C42.6551 87.9933 42.7826 87.8741 42.9422 87.7879C43.1017 87.7017 43.2778 87.6375 43.4703 87.5954C43.6647 87.5514 43.86 87.5165 44.0563 87.4908C44.313 87.4578 44.5211 87.4331 44.6807 87.4166C44.8421 87.3982 44.9594 87.368 45.0328 87.3258C45.108 87.2836 45.1456 87.2102 45.1456 87.1057V87.0837C45.1456 86.8123 45.0713 86.6014 44.9228 86.451C44.7761 86.3006 44.5532 86.2254 44.2543 86.2254C43.9444 86.2254 43.7014 86.2933 43.5253 86.429C43.3493 86.5647 43.2255 86.7096 43.154 86.8636L42.5378 86.6436C42.6478 86.3868 42.7945 86.1869 42.9779 86.0439C43.1631 85.899 43.3649 85.7981 43.5831 85.7413C43.8032 85.6826 44.0196 85.6533 44.2323 85.6533C44.368 85.6533 44.5239 85.6698 44.7 85.7028C44.8778 85.734 45.0493 85.7991 45.2144 85.8981C45.3812 85.9971 45.5197 86.1466 45.6297 86.3465C45.7398 86.5464 45.7948 86.8141 45.7948 87.1497V89.9336H45.1456V89.3614H45.1126C45.0686 89.4531 44.9952 89.5512 44.8925 89.6558C44.7898 89.7603 44.6532 89.8492 44.4826 89.9226C44.3121 89.9959 44.1039 90.0326 43.8582 90.0326ZM43.9572 89.4494C44.214 89.4494 44.4304 89.399 44.6064 89.2981C44.7843 89.1973 44.9182 89.0671 45.008 88.9075C45.0997 88.748 45.1456 88.5802 45.1456 88.4041V87.8099C45.1181 87.8429 45.0576 87.8732 44.964 87.9007C44.8723 87.9264 44.766 87.9493 44.6449 87.9695C44.5257 87.9878 44.4093 88.0043 44.2956 88.019C44.1837 88.0318 44.0929 88.0428 44.0232 88.052C43.8545 88.074 43.6968 88.1098 43.5501 88.1593C43.4052 88.207 43.2878 88.2794 43.198 88.3766C43.11 88.472 43.0659 88.6022 43.0659 88.7672C43.0659 88.9928 43.1494 89.1634 43.3163 89.2789C43.485 89.3926 43.6986 89.4494 43.9572 89.4494ZM46.9797 89.9336V85.7083H47.6289V89.9336H46.9797ZM47.3098 85.0041C47.1833 85.0041 47.0742 84.961 46.9825 84.8748C46.8926 84.7886 46.8477 84.685 46.8477 84.5639C46.8477 84.4429 46.8926 84.3393 46.9825 84.2531C47.0742 84.1669 47.1833 84.1238 47.3098 84.1238C47.4364 84.1238 47.5446 84.1669 47.6344 84.2531C47.7261 84.3393 47.772 84.4429 47.772 84.5639C47.772 84.685 47.7261 84.7886 47.6344 84.8748C47.5446 84.961 47.4364 85.0041 47.3098 85.0041ZM49.4672 84.2998V89.9336H48.818V84.2998H49.4672Z" fill="#FAFAFA"/>
<line x1="1.60938" y1="99.5354" x2="110.059" y2="99.5354" stroke="#616B78" stroke-width="0.968301"/>
<rect width="108.45" height="25.1758" transform="translate(1.60938 100.02)" fill="#545F6F"/>
<path d="M17.8296 113.614L16.0484 112.816L16.0416 112.813C15.9258 112.763 15.7994 112.743 15.6739 112.754C15.5483 112.766 15.4277 112.809 15.323 112.879C15.3083 112.889 15.2941 112.899 15.2806 112.911L14.4367 113.629C13.945 113.363 13.437 112.859 13.17 112.373L13.8909 111.516C13.9025 111.502 13.9133 111.488 13.9231 111.473C13.9915 111.368 14.033 111.249 14.0439 111.124C14.0549 111 14.0349 110.875 13.9859 110.76C13.9847 110.758 13.9837 110.756 13.9828 110.754L13.1848 108.969C13.1192 108.82 13.0074 108.696 12.8659 108.615C12.7243 108.535 12.5605 108.502 12.3988 108.521C11.8497 108.593 11.3457 108.863 10.9808 109.279C10.6159 109.696 10.4152 110.231 10.416 110.785C10.416 113.872 12.9272 116.383 16.014 116.383C16.5678 116.384 17.103 116.183 17.5195 115.818C17.9361 115.453 18.2057 114.949 18.2778 114.4C18.2974 114.238 18.2644 114.075 18.1837 113.933C18.1029 113.791 17.9788 113.68 17.8296 113.614ZM16.014 115.475C14.7706 115.474 13.5784 114.979 12.6992 114.1C11.8199 113.22 11.3253 112.028 11.3238 110.785C11.3229 110.472 11.4293 110.167 11.6253 109.923C11.8213 109.678 12.095 109.508 12.401 109.441L13.1129 111.029L12.3882 111.892C12.3765 111.906 12.3656 111.921 12.3556 111.936C12.2842 112.045 12.2422 112.171 12.2337 112.301C12.2253 112.432 12.2506 112.562 12.3072 112.679C12.6635 113.408 13.3977 114.138 14.1345 114.495C14.2528 114.551 14.3836 114.575 14.5141 114.566C14.6447 114.556 14.7705 114.513 14.8793 114.44C14.8939 114.43 14.9079 114.419 14.9213 114.408L15.7697 113.686L17.3583 114.398C17.2908 114.704 17.1207 114.978 16.8762 115.174C16.6316 115.37 16.3274 115.476 16.014 115.475Z" fill="white"/>
<path d="M31.3404 115.109V109.476H33.244C33.686 109.476 34.0473 109.555 34.3278 109.715C34.6103 109.873 34.8193 110.086 34.955 110.356C35.0907 110.625 35.1586 110.926 35.1586 111.258C35.1586 111.59 35.0907 111.892 34.955 112.163C34.8212 112.435 34.6139 112.651 34.3333 112.812C34.0528 112.972 33.6933 113.052 33.255 113.052H31.8906V112.447H33.233C33.5356 112.447 33.7786 112.394 33.962 112.29C34.1454 112.185 34.2783 112.044 34.3609 111.866C34.4452 111.686 34.4874 111.484 34.4874 111.258C34.4874 111.033 34.4452 110.831 34.3609 110.653C34.2783 110.475 34.1445 110.336 33.9592 110.235C33.774 110.132 33.5283 110.081 33.222 110.081H32.0226V115.109H31.3404ZM36.8187 112.568V115.109H36.1695V109.476H36.8187V111.544H36.8738C36.9728 111.326 37.1213 111.153 37.3194 111.024C37.5193 110.894 37.7852 110.829 38.1172 110.829C38.4051 110.829 38.6572 110.887 38.8736 111.002C39.09 111.116 39.2578 111.291 39.377 111.528C39.4981 111.762 39.5586 112.061 39.5586 112.425V115.109H38.9094V112.469C38.9094 112.133 38.8223 111.873 38.6481 111.69C38.4757 111.505 38.2364 111.412 37.9301 111.412C37.7174 111.412 37.5266 111.457 37.3579 111.547C37.191 111.637 37.059 111.768 36.9618 111.94C36.8664 112.113 36.8187 112.322 36.8187 112.568ZM42.4628 115.197C42.0814 115.197 41.7467 115.107 41.4588 114.925C41.1727 114.744 40.9489 114.49 40.7875 114.163C40.628 113.837 40.5482 113.455 40.5482 113.019C40.5482 112.579 40.628 112.194 40.7875 111.866C40.9489 111.538 41.1727 111.283 41.4588 111.101C41.7467 110.92 42.0814 110.829 42.4628 110.829C42.8443 110.829 43.178 110.92 43.4641 111.101C43.7521 111.283 43.9758 111.538 44.1353 111.866C44.2967 112.194 44.3774 112.579 44.3774 113.019C44.3774 113.455 44.2967 113.837 44.1353 114.163C43.9758 114.49 43.7521 114.744 43.4641 114.925C43.178 115.107 42.8443 115.197 42.4628 115.197ZM42.4628 114.614C42.7526 114.614 42.991 114.54 43.178 114.391C43.3651 114.243 43.5036 114.048 43.5934 113.805C43.6833 113.563 43.7282 113.301 43.7282 113.019C43.7282 112.736 43.6833 112.473 43.5934 112.229C43.5036 111.985 43.3651 111.788 43.178 111.638C42.991 111.487 42.7526 111.412 42.4628 111.412C42.1731 111.412 41.9347 111.487 41.7476 111.638C41.5605 111.788 41.4221 111.985 41.3322 112.229C41.2424 112.473 41.1974 112.736 41.1974 113.019C41.1974 113.301 41.2424 113.563 41.3322 113.805C41.4221 114.048 41.5605 114.243 41.7476 114.391C41.9347 114.54 42.1731 114.614 42.4628 114.614ZM46.0176 112.568V115.109H45.3684V110.884H45.9956V111.544H46.0506C46.1497 111.33 46.3 111.157 46.5018 111.027C46.7035 110.895 46.9639 110.829 47.283 110.829C47.5691 110.829 47.8194 110.888 48.034 111.005C48.2486 111.121 48.4154 111.297 48.5346 111.533C48.6538 111.768 48.7134 112.065 48.7134 112.425V115.109H48.0642V112.469C48.0642 112.137 47.9781 111.878 47.8057 111.693C47.6333 111.506 47.3967 111.412 47.0959 111.412C46.8887 111.412 46.7035 111.457 46.5403 111.547C46.3789 111.637 46.2514 111.768 46.1579 111.94C46.0644 112.113 46.0176 112.322 46.0176 112.568ZM51.6713 115.197C51.2642 115.197 50.913 115.108 50.6177 114.928C50.3243 114.746 50.0978 114.493 49.9383 114.169C49.7806 113.842 49.7017 113.463 49.7017 113.03C49.7017 112.597 49.7806 112.215 49.9383 111.885C50.0978 111.553 50.3197 111.295 50.604 111.11C50.8901 110.923 51.2238 110.829 51.6053 110.829C51.8254 110.829 52.0427 110.866 52.2572 110.939C52.4718 111.012 52.6671 111.132 52.8432 111.297C53.0192 111.46 53.1595 111.676 53.2641 111.946C53.3686 112.215 53.4209 112.547 53.4209 112.942V113.217H50.1638V112.656H52.7606C52.7606 112.417 52.713 112.204 52.6176 112.017C52.5241 111.83 52.3902 111.683 52.216 111.575C52.0436 111.466 51.84 111.412 51.6053 111.412C51.3467 111.412 51.123 111.476 50.9341 111.605C50.747 111.731 50.6031 111.896 50.5022 112.1C50.4013 112.304 50.3509 112.522 50.3509 112.755V113.129C50.3509 113.448 50.4059 113.718 50.5159 113.94C50.6278 114.16 50.7828 114.328 50.9808 114.444C51.1789 114.557 51.4091 114.614 51.6713 114.614C51.8419 114.614 51.9959 114.59 52.1335 114.543C52.2728 114.493 52.3929 114.42 52.4938 114.323C52.5947 114.224 52.6726 114.101 52.7276 113.954L53.3548 114.13C53.2888 114.343 53.1779 114.53 53.022 114.691C52.8661 114.851 52.6735 114.975 52.4443 115.065C52.2151 115.153 51.9574 115.197 51.6713 115.197Z" fill="#FAFAFA"/>
<line x1="1.60938" y1="124.711" x2="110.059" y2="124.711" stroke="#616B78" stroke-width="0.968301"/>
<rect width="108.45" height="25.1758" transform="translate(1.60938 125.195)" fill="#545F6F"/>
<path d="M14.1973 135.558C14.4648 135.558 14.7213 135.664 14.9105 135.853C15.0996 136.042 15.2059 136.299 15.2059 136.566C15.2059 136.699 15.1798 136.83 15.1291 136.952C15.0784 137.075 15.0041 137.186 14.9105 137.28C14.8168 137.373 14.7056 137.448 14.5833 137.498C14.4609 137.549 14.3297 137.575 14.1973 137.575C13.9297 137.575 13.6732 137.469 13.484 137.28C13.2949 137.09 13.1886 136.834 13.1886 136.566C13.1886 136.299 13.2949 136.042 13.484 135.853C13.6732 135.664 13.9297 135.558 14.1973 135.558ZM14.1973 133.742C14.9463 133.742 15.6646 134.04 16.1943 134.569C16.7239 135.099 17.0215 135.817 17.0215 136.566C17.0215 138.685 14.1973 141.811 14.1973 141.811C14.1973 141.811 11.373 138.685 11.373 136.566C11.373 135.817 11.6706 135.099 12.2002 134.569C12.7299 134.04 13.4482 133.742 14.1973 133.742ZM14.1973 134.549C13.6622 134.549 13.1491 134.762 12.7708 135.14C12.3925 135.518 12.18 136.031 12.18 136.566C12.18 136.97 12.18 137.777 14.1973 140.484C16.2146 137.777 16.2146 136.97 16.2146 136.566C16.2146 136.031 16.002 135.518 15.6237 135.14C15.2454 134.762 14.7323 134.549 14.1973 134.549Z" fill="white"/>
<path d="M31.5715 140.285H30.8563L32.9249 134.651H33.6291L35.6978 140.285H34.9825L33.299 135.543H33.255L31.5715 140.285ZM31.8356 138.084H34.7185V138.69H31.8356V138.084ZM38.0828 140.373C37.7307 140.373 37.4198 140.284 37.1502 140.106C36.8806 139.927 36.6697 139.674 36.5175 139.347C36.3653 139.019 36.2892 138.631 36.2892 138.184C36.2892 137.74 36.3653 137.355 36.5175 137.028C36.6697 136.702 36.8816 136.45 37.153 136.272C37.4244 136.094 37.738 136.005 38.0938 136.005C38.3689 136.005 38.5862 136.051 38.7457 136.142C38.9071 136.232 39.03 136.335 39.1143 136.45C39.2005 136.564 39.2675 136.658 39.3151 136.731H39.3702V134.651H40.0194V140.285H39.3922V139.636H39.3151C39.2675 139.713 39.1996 139.81 39.1116 139.928C39.0236 140.043 38.8979 140.147 38.7347 140.238C38.5715 140.328 38.3542 140.373 38.0828 140.373ZM38.1708 139.79C38.4312 139.79 38.6513 139.722 38.831 139.586C39.0107 139.449 39.1473 139.259 39.2409 139.017C39.3344 138.773 39.3812 138.492 39.3812 138.172C39.3812 137.857 39.3353 137.581 39.2436 137.344C39.1519 137.106 39.0162 136.921 38.8365 136.789C38.6568 136.655 38.4349 136.588 38.1708 136.588C37.8957 136.588 37.6665 136.659 37.4831 136.8C37.3015 136.939 37.1649 137.129 37.0732 137.369C36.9833 137.608 36.9384 137.875 36.9384 138.172C36.9384 138.473 36.9843 138.747 37.076 138.992C37.1695 139.236 37.307 139.431 37.4886 139.575C37.672 139.718 37.8994 139.79 38.1708 139.79ZM42.894 140.373C42.5419 140.373 42.2311 140.284 41.9615 140.106C41.6919 139.927 41.481 139.674 41.3288 139.347C41.1766 139.019 41.1005 138.631 41.1005 138.184C41.1005 137.74 41.1766 137.355 41.3288 137.028C41.481 136.702 41.6928 136.45 41.9642 136.272C42.2356 136.094 42.5492 136.005 42.905 136.005C43.1801 136.005 43.3974 136.051 43.557 136.142C43.7184 136.232 43.8412 136.335 43.9256 136.45C44.0118 136.564 44.0787 136.658 44.1264 136.731H44.1814V134.651H44.8306V140.285H44.2034V139.636H44.1264C44.0787 139.713 44.0109 139.81 43.9228 139.928C43.8348 140.043 43.7092 140.147 43.546 140.238C43.3827 140.328 43.1654 140.373 42.894 140.373ZM42.982 139.79C43.2425 139.79 43.4625 139.722 43.6422 139.586C43.822 139.449 43.9586 139.259 44.0521 139.017C44.1457 138.773 44.1924 138.492 44.1924 138.172C44.1924 137.857 44.1466 137.581 44.0549 137.344C43.9632 137.106 43.8275 136.921 43.6477 136.789C43.468 136.655 43.2461 136.588 42.982 136.588C42.707 136.588 42.4777 136.659 42.2943 136.8C42.1128 136.939 41.9761 137.129 41.8844 137.369C41.7946 137.608 41.7497 137.875 41.7497 138.172C41.7497 138.473 41.7955 138.747 41.8872 138.992C41.9807 139.236 42.1183 139.431 42.2998 139.575C42.4832 139.718 42.7106 139.79 42.982 139.79ZM46.1098 140.285V136.06H46.737V136.698H46.781C46.858 136.489 46.9974 136.319 47.1991 136.189C47.4008 136.059 47.6282 135.994 47.8813 135.994C47.929 135.994 47.9886 135.995 48.0601 135.997C48.1316 135.998 48.1857 136.001 48.2224 136.005V136.665C48.2004 136.66 48.15 136.651 48.0711 136.64C47.9941 136.627 47.9125 136.621 47.8263 136.621C47.6209 136.621 47.4375 136.664 47.2761 136.75C47.1166 136.835 46.99 136.952 46.8965 137.102C46.8048 137.251 46.759 137.421 46.759 137.611V140.285H46.1098ZM50.6349 140.373C50.2278 140.373 49.8766 140.283 49.5813 140.104C49.2879 139.922 49.0614 139.669 48.9019 139.344C48.7442 139.018 48.6653 138.638 48.6653 138.206C48.6653 137.773 48.7442 137.391 48.9019 137.061C49.0614 136.729 49.2833 136.471 49.5676 136.285C49.8537 136.098 50.1874 136.005 50.5689 136.005C50.789 136.005 51.0063 136.042 51.2209 136.115C51.4354 136.188 51.6307 136.307 51.8068 136.472C51.9828 136.636 52.1231 136.852 52.2277 137.122C52.3322 137.391 52.3845 137.723 52.3845 138.117V138.393H49.1275V137.831H51.7243C51.7243 137.593 51.6766 137.38 51.5812 137.193C51.4877 137.006 51.3538 136.859 51.1796 136.75C51.0072 136.642 50.8036 136.588 50.5689 136.588C50.3103 136.588 50.0866 136.652 49.8977 136.781C49.7106 136.907 49.5667 137.072 49.4658 137.276C49.3649 137.479 49.3145 137.698 49.3145 137.93V138.305C49.3145 138.624 49.3695 138.894 49.4796 139.116C49.5914 139.336 49.7464 139.504 49.9445 139.619C50.1425 139.733 50.3727 139.79 50.6349 139.79C50.8055 139.79 50.9595 139.766 51.0971 139.718C51.2364 139.669 51.3566 139.596 51.4574 139.498C51.5583 139.399 51.6362 139.277 51.6913 139.13L52.3184 139.306C52.2524 139.519 52.1415 139.706 51.9856 139.867C51.8297 140.027 51.6372 140.151 51.4079 140.241C51.1787 140.329 50.921 140.373 50.6349 140.373ZM56.365 137.006L55.7818 137.171C55.7451 137.074 55.691 136.98 55.6195 136.888C55.5498 136.794 55.4544 136.717 55.3334 136.657C55.2123 136.596 55.0574 136.566 54.8685 136.566C54.6099 136.566 54.3944 136.626 54.222 136.745C54.0515 136.862 53.9662 137.012 53.9662 137.193C53.9662 137.355 54.0249 137.482 54.1423 137.576C54.2596 137.669 54.443 137.747 54.6924 137.809L55.3196 137.963C55.6974 138.055 55.9789 138.195 56.1641 138.384C56.3494 138.571 56.442 138.813 56.442 139.108C56.442 139.35 56.3723 139.566 56.2329 139.757C56.0954 139.948 55.9028 140.098 55.6552 140.208C55.4077 140.318 55.1197 140.373 54.7915 140.373C54.3605 140.373 54.0038 140.28 53.7214 140.093C53.439 139.906 53.2602 139.632 53.185 139.273L53.8012 139.119C53.8598 139.346 53.9708 139.517 54.134 139.63C54.2991 139.744 54.5145 139.801 54.7805 139.801C55.0831 139.801 55.3233 139.737 55.5012 139.608C55.6809 139.478 55.7708 139.322 55.7708 139.141C55.7708 138.994 55.7194 138.871 55.6167 138.772C55.514 138.671 55.3563 138.596 55.1436 138.547L54.4394 138.382C54.0524 138.29 53.7681 138.148 53.5866 137.955C53.4069 137.761 53.317 137.518 53.317 137.226C53.317 136.988 53.3839 136.777 53.5178 136.594C53.6535 136.41 53.8378 136.266 54.0707 136.162C54.3055 136.057 54.5714 136.005 54.8685 136.005C55.2866 136.005 55.6149 136.097 55.8533 136.28C56.0935 136.463 56.2641 136.705 56.365 137.006ZM60.4122 137.006L59.829 137.171C59.7923 137.074 59.7382 136.98 59.6667 136.888C59.597 136.794 59.5016 136.717 59.3806 136.657C59.2595 136.596 59.1046 136.566 58.9157 136.566C58.6571 136.566 58.4416 136.626 58.2692 136.745C58.0987 136.862 58.0134 137.012 58.0134 137.193C58.0134 137.355 58.0721 137.482 58.1895 137.576C58.3068 137.669 58.4902 137.747 58.7396 137.809L59.3668 137.963C59.7446 138.055 60.0261 138.195 60.2113 138.384C60.3966 138.571 60.4892 138.813 60.4892 139.108C60.4892 139.35 60.4195 139.566 60.2801 139.757C60.1426 139.948 59.95 140.098 59.7024 140.208C59.4549 140.318 59.1669 140.373 58.8387 140.373C58.4077 140.373 58.051 140.28 57.7686 140.093C57.4862 139.906 57.3074 139.632 57.2322 139.273L57.8484 139.119C57.907 139.346 58.018 139.517 58.1812 139.63C58.3463 139.744 58.5617 139.801 58.8277 139.801C59.1303 139.801 59.3705 139.737 59.5484 139.608C59.7281 139.478 59.818 139.322 59.818 139.141C59.818 138.994 59.7666 138.871 59.6639 138.772C59.5612 138.671 59.4035 138.596 59.1908 138.547L58.4866 138.382C58.0996 138.29 57.8153 138.148 57.6338 137.955C57.4541 137.761 57.3642 137.518 57.3642 137.226C57.3642 136.988 57.4311 136.777 57.565 136.594C57.7007 136.41 57.885 136.266 58.1179 136.162C58.3527 136.057 58.6186 136.005 58.9157 136.005C59.3338 136.005 59.6621 136.097 59.9005 136.28C60.1407 136.463 60.3113 136.705 60.4122 137.006Z" fill="#FAFAFA"/>
<line x1="1.60938" y1="149.887" x2="110.059" y2="149.887" stroke="#616B78" stroke-width="0.968301"/>
<rect width="108.45" height="25.1758" transform="translate(1.60938 150.371)" fill="#545F6F"/>
<g clip-path="url(#clip2_5828_3676)">
<path d="M12.9891 162.158H12.1822V162.965H12.9891V162.158ZM14.6029 162.158H13.796V162.965H14.6029V162.158ZM16.2168 162.158H15.4099V162.965H16.2168V162.158ZM17.0237 159.334H16.6202V158.527H15.8133V159.334H12.5857V158.527H11.7787V159.334H11.3753C11.1613 159.334 10.956 159.419 10.8047 159.571C10.6534 159.722 10.5684 159.927 10.5684 160.141V165.79C10.5684 166.004 10.6534 166.209 10.8047 166.36C10.956 166.512 11.1613 166.597 11.3753 166.597H17.0237C17.2377 166.597 17.443 166.512 17.5943 166.36C17.7456 166.209 17.8306 166.004 17.8306 165.79V160.141C17.8306 159.927 17.7456 159.722 17.5943 159.571C17.443 159.419 17.2377 159.334 17.0237 159.334ZM17.0237 165.79H11.3753V161.352H17.0237V165.79Z" fill="white"/>
</g>
<path d="M33.079 165.461H31.3404V159.827H33.156C33.7025 159.827 34.1701 159.94 34.5589 160.166C34.9477 160.389 35.2457 160.711 35.4529 161.131C35.6602 161.549 35.7638 162.05 35.7638 162.633C35.7638 163.22 35.6593 163.725 35.4502 164.149C35.2411 164.571 34.9367 164.895 34.5369 165.123C34.1371 165.348 33.6511 165.461 33.079 165.461ZM32.0226 164.856H33.0349C33.5008 164.856 33.8868 164.766 34.1931 164.586C34.4993 164.406 34.7276 164.151 34.878 163.819C35.0284 163.487 35.1036 163.092 35.1036 162.633C35.1036 162.178 35.0293 161.787 34.8808 161.458C34.7322 161.128 34.5103 160.875 34.2151 160.699C33.9198 160.521 33.5521 160.432 33.112 160.432H32.0226V164.856ZM38.0635 165.56C37.7958 165.56 37.5528 165.51 37.3345 165.409C37.1163 165.306 36.943 165.158 36.8146 164.966C36.6862 164.771 36.6221 164.537 36.6221 164.262C36.6221 164.019 36.6697 163.823 36.7651 163.673C36.8605 163.521 36.9879 163.401 37.1475 163.315C37.307 163.229 37.4831 163.165 37.6756 163.123C37.87 163.079 38.0653 163.044 38.2616 163.018C38.5183 162.985 38.7265 162.96 38.886 162.944C39.0474 162.926 39.1648 162.895 39.2381 162.853C39.3133 162.811 39.3509 162.738 39.3509 162.633V162.611C39.3509 162.34 39.2766 162.129 39.1281 161.978C38.9814 161.828 38.7586 161.753 38.4596 161.753C38.1497 161.753 37.9067 161.821 37.7307 161.956C37.5546 162.092 37.4308 162.237 37.3593 162.391L36.7431 162.171C36.8531 161.914 36.9998 161.714 37.1832 161.571C37.3685 161.426 37.5702 161.325 37.7884 161.269C38.0085 161.21 38.2249 161.181 38.4376 161.181C38.5733 161.181 38.7292 161.197 38.9053 161.23C39.0832 161.261 39.2546 161.326 39.4197 161.425C39.5866 161.524 39.725 161.674 39.8351 161.874C39.9451 162.074 40.0001 162.341 40.0001 162.677V165.461H39.3509V164.889H39.3179C39.2739 164.98 39.2005 165.079 39.0978 165.183C38.9951 165.288 38.8585 165.377 38.688 165.45C38.5174 165.523 38.3093 165.56 38.0635 165.56ZM38.1625 164.977C38.4193 164.977 38.6357 164.926 38.8117 164.825C38.9896 164.725 39.1235 164.594 39.2134 164.435C39.3051 164.275 39.3509 164.108 39.3509 163.931V163.337C39.3234 163.37 39.2629 163.401 39.1694 163.428C39.0777 163.454 38.9713 163.477 38.8503 163.497C38.731 163.515 38.6146 163.532 38.5009 163.546C38.389 163.559 38.2982 163.57 38.2286 163.579C38.0598 163.601 37.9021 163.637 37.7554 163.687C37.6105 163.734 37.4932 163.807 37.4033 163.904C37.3153 163.999 37.2713 164.13 37.2713 164.295C37.2713 164.52 37.3547 164.691 37.5216 164.806C37.6903 164.92 37.904 164.977 38.1625 164.977ZM43.0226 161.236V161.786H40.8329V161.236H43.0226ZM41.4711 160.223H42.1203V164.251C42.1203 164.434 42.1469 164.571 42.2001 164.663C42.2551 164.753 42.3248 164.814 42.4092 164.845C42.4954 164.874 42.5861 164.889 42.6815 164.889C42.753 164.889 42.8117 164.885 42.8576 164.878C42.9034 164.869 42.9401 164.861 42.9676 164.856L43.0996 165.439C43.0556 165.455 42.9942 165.472 42.9153 165.488C42.8365 165.507 42.7365 165.516 42.6155 165.516C42.4321 165.516 42.2524 165.477 42.0763 165.398C41.9021 165.319 41.7572 165.199 41.6417 165.037C41.528 164.876 41.4711 164.672 41.4711 164.427V160.223ZM45.7253 165.549C45.3182 165.549 44.967 165.459 44.6718 165.279C44.3783 165.098 44.1518 164.845 43.9923 164.52C43.8346 164.194 43.7557 163.814 43.7557 163.381C43.7557 162.948 43.8346 162.567 43.9923 162.237C44.1518 161.905 44.3737 161.646 44.658 161.461C44.9441 161.274 45.2779 161.181 45.6593 161.181C45.8794 161.181 46.0967 161.217 46.3113 161.291C46.5258 161.364 46.7211 161.483 46.8972 161.648C47.0733 161.811 47.2135 162.028 47.3181 162.297C47.4226 162.567 47.4749 162.899 47.4749 163.293V163.568H44.2179V163.007H46.8147C46.8147 162.769 46.767 162.556 46.6716 162.369C46.5781 162.182 46.4442 162.034 46.27 161.926C46.0976 161.818 45.8941 161.764 45.6593 161.764C45.4007 161.764 45.177 161.828 44.9881 161.956C44.801 162.083 44.6571 162.248 44.5562 162.452C44.4554 162.655 44.4049 162.873 44.4049 163.106V163.48C44.4049 163.799 44.4599 164.07 44.57 164.292C44.6818 164.512 44.8368 164.68 45.0349 164.795C45.2329 164.909 45.4631 164.966 45.7253 164.966C45.8959 164.966 46.0499 164.942 46.1875 164.894C46.3269 164.845 46.447 164.771 46.5478 164.674C46.6487 164.575 46.7266 164.452 46.7817 164.306L47.4089 164.482C47.3428 164.694 47.2319 164.881 47.076 165.043C46.9201 165.202 46.7276 165.327 46.4983 165.417C46.2691 165.505 46.0114 165.549 45.7253 165.549ZM50.7291 165.461V159.827H52.6327C53.0747 159.827 53.436 159.907 53.7166 160.067C53.999 160.224 54.2081 160.438 54.3438 160.707C54.4795 160.977 54.5473 161.278 54.5473 161.61C54.5473 161.942 54.4795 162.243 54.3438 162.515C54.2099 162.786 54.0027 163.003 53.7221 163.164C53.4415 163.324 53.082 163.403 52.6437 163.403H51.2793V162.798H52.6217C52.9243 162.798 53.1673 162.746 53.3507 162.641C53.5341 162.537 53.6671 162.396 53.7496 162.218C53.8339 162.038 53.8761 161.835 53.8761 161.61C53.8761 161.384 53.8339 161.182 53.7496 161.005C53.6671 160.827 53.5332 160.687 53.348 160.586C53.1627 160.484 52.917 160.432 52.6107 160.432H51.4114V165.461H50.7291ZM55.5583 165.461V161.236H56.2075V165.461H55.5583ZM55.8884 160.531C55.7618 160.531 55.6527 160.488 55.561 160.402C55.4712 160.316 55.4262 160.212 55.4262 160.091C55.4262 159.97 55.4712 159.867 55.561 159.78C55.6527 159.694 55.7618 159.651 55.8884 159.651C56.0149 159.651 56.1231 159.694 56.213 159.78C56.3047 159.867 56.3505 159.97 56.3505 160.091C56.3505 160.212 56.3047 160.316 56.213 160.402C56.1231 160.488 56.0149 160.531 55.8884 160.531ZM59.1131 165.549C58.7169 165.549 58.3758 165.455 58.0897 165.268C57.8037 165.081 57.5836 164.824 57.4295 164.495C57.2755 164.167 57.1985 163.792 57.1985 163.37C57.1985 162.941 57.2773 162.562 57.435 162.234C57.5946 161.904 57.8165 161.646 58.1007 161.461C58.3868 161.274 58.7206 161.181 59.1021 161.181C59.3992 161.181 59.6669 161.236 59.9053 161.346C60.1437 161.456 60.339 161.61 60.4912 161.808C60.6435 162.006 60.7379 162.237 60.7746 162.501H60.1254C60.0759 162.308 59.9658 162.138 59.7953 161.989C59.6266 161.839 59.3992 161.764 59.1131 161.764C58.86 161.764 58.6381 161.83 58.4474 161.962C58.2585 162.092 58.1108 162.276 58.0045 162.515C57.8999 162.751 57.8477 163.029 57.8477 163.348C57.8477 163.675 57.899 163.959 58.0017 164.201C58.1062 164.443 58.253 164.631 58.4419 164.765C58.6326 164.899 58.8563 164.966 59.1131 164.966C59.2818 164.966 59.4349 164.936 59.5725 164.878C59.71 164.819 59.8265 164.735 59.9218 164.625C60.0172 164.515 60.085 164.383 60.1254 164.229H60.7746C60.7379 164.478 60.6471 164.703 60.5022 164.903C60.3592 165.101 60.1694 165.258 59.9328 165.376C59.6981 165.491 59.4248 165.549 59.1131 165.549ZM62.3288 163.92L62.3178 163.117H62.4499L64.2984 161.236H65.1017L63.1321 163.227H63.077L62.3288 163.92ZM61.7236 165.461V159.827H62.3728V165.461H61.7236ZM64.4085 165.461L62.7579 163.37L63.2201 162.919L65.2337 165.461H64.4085ZM67.5348 165.549C67.1277 165.549 66.7765 165.459 66.4812 165.279C66.1878 165.098 65.9613 164.845 65.8018 164.52C65.6441 164.194 65.5652 163.814 65.5652 163.381C65.5652 162.948 65.6441 162.567 65.8018 162.237C65.9613 161.905 66.1832 161.646 66.4675 161.461C66.7536 161.274 67.0873 161.181 67.4688 161.181C67.6889 161.181 67.9062 161.217 68.1207 161.291C68.3353 161.364 68.5306 161.483 68.7067 161.648C68.8827 161.811 69.023 162.028 69.1276 162.297C69.2321 162.567 69.2844 162.899 69.2844 163.293V163.568H66.0273V163.007H68.6241C68.6241 162.769 68.5765 162.556 68.4811 162.369C68.3876 162.182 68.2537 162.034 68.0795 161.926C67.9071 161.818 67.7035 161.764 67.4688 161.764C67.2102 161.764 66.9865 161.828 66.7976 161.956C66.6105 162.083 66.4666 162.248 66.3657 162.452C66.2648 162.655 66.2144 162.873 66.2144 163.106V163.48C66.2144 163.799 66.2694 164.07 66.3794 164.292C66.4913 164.512 66.6463 164.68 66.8443 164.795C67.0424 164.909 67.2726 164.966 67.5348 164.966C67.7054 164.966 67.8594 164.942 67.997 164.894C68.1363 164.845 68.2564 164.771 68.3573 164.674C68.4582 164.575 68.5361 164.452 68.5911 164.306L69.2183 164.482C69.1523 164.694 69.0414 164.881 68.8855 165.043C68.7296 165.202 68.537 165.327 68.3078 165.417C68.0786 165.505 67.8209 165.549 67.5348 165.549ZM70.2719 165.461V161.236H70.8991V161.874H70.9431C71.0201 161.665 71.1595 161.495 71.3613 161.365C71.563 161.235 71.7904 161.17 72.0435 161.17C72.0911 161.17 72.1507 161.171 72.2223 161.172C72.2938 161.174 72.3479 161.177 72.3846 161.181V161.841C72.3626 161.835 72.3121 161.827 72.2333 161.816C72.1562 161.803 72.0746 161.797 71.9884 161.797C71.783 161.797 71.5997 161.84 71.4383 161.926C71.2787 162.01 71.1522 162.128 71.0587 162.278C70.967 162.427 70.9211 162.596 70.9211 162.787V165.461H70.2719Z" fill="#FAFAFA"/>
</g>
<g filter="url(#filter0_d_5828_3676)">
<g clip-path="url(#clip3_5828_3676)">
<rect width="168.444" height="24.5786" transform="translate(73.0488 22.8711)" fill="white"/>
<path d="M131.015 33.7655H130.329C130.288 33.5682 130.217 33.3948 130.116 33.2455C130.016 33.0961 129.895 32.9707 129.751 32.8693C129.609 32.766 129.451 32.6886 129.278 32.6369C129.105 32.5853 128.924 32.5595 128.736 32.5595C128.393 32.5595 128.082 32.6462 127.804 32.8195C127.527 32.9928 127.307 33.2482 127.142 33.5857C126.98 33.9232 126.899 34.3372 126.899 34.8277C126.899 35.3182 126.98 35.7322 127.142 36.0697C127.307 36.4071 127.527 36.6625 127.804 36.8359C128.082 37.0092 128.393 37.0959 128.736 37.0959C128.924 37.0959 129.105 37.0701 129.278 37.0184C129.451 36.9668 129.609 36.8903 129.751 36.7888C129.895 36.6856 130.016 36.5593 130.116 36.4099C130.217 36.2587 130.288 36.0853 130.329 35.8899H131.015C130.963 36.1794 130.869 36.4385 130.733 36.6671C130.596 36.8958 130.427 37.0903 130.224 37.2508C130.021 37.4094 129.793 37.5301 129.541 37.6131C129.29 37.6961 129.022 37.7376 128.736 37.7376C128.253 37.7376 127.823 37.6196 127.447 37.3835C127.071 37.1475 126.775 36.8119 126.559 36.3767C126.343 35.9415 126.235 35.4252 126.235 34.8277C126.235 34.2302 126.343 33.7139 126.559 33.2787C126.775 32.8435 127.071 32.5078 127.447 32.2718C127.823 32.0358 128.253 31.9177 128.736 31.9177C129.022 31.9177 129.29 31.9592 129.541 32.0422C129.793 32.1252 130.021 32.2469 130.224 32.4073C130.427 32.5659 130.596 32.7596 130.733 32.9882C130.869 33.215 130.963 33.4741 131.015 33.7655ZM136.981 34.8277C136.981 35.4252 136.873 35.9415 136.658 36.3767C136.442 36.8119 136.146 37.1475 135.77 37.3835C135.393 37.6196 134.964 37.7376 134.481 37.7376C133.998 37.7376 133.568 37.6196 133.192 37.3835C132.815 37.1475 132.52 36.8119 132.304 36.3767C132.088 35.9415 131.98 35.4252 131.98 34.8277C131.98 34.2302 132.088 33.7139 132.304 33.2787C132.52 32.8435 132.815 32.5078 133.192 32.2718C133.568 32.0358 133.998 31.9177 134.481 31.9177C134.964 31.9177 135.393 32.0358 135.77 32.2718C136.146 32.5078 136.442 32.8435 136.658 33.2787C136.873 33.7139 136.981 34.2302 136.981 34.8277ZM136.317 34.8277C136.317 34.3372 136.235 33.9232 136.071 33.5857C135.909 33.2482 135.689 32.9928 135.41 32.8195C135.133 32.6462 134.824 32.5595 134.481 32.5595C134.138 32.5595 133.827 32.6462 133.549 32.8195C133.272 32.9928 133.052 33.2482 132.887 33.5857C132.725 33.9232 132.644 34.3372 132.644 34.8277C132.644 35.3182 132.725 35.7322 132.887 36.0697C133.052 36.4071 133.272 36.6625 133.549 36.8359C133.827 37.0092 134.138 37.0959 134.481 37.0959C134.824 37.0959 135.133 37.0092 135.41 36.8359C135.689 36.6625 135.909 36.4071 136.071 36.0697C136.235 35.7322 136.317 35.3182 136.317 34.8277ZM142.705 31.9952V37.6602H142.041L138.954 33.2123H138.899V37.6602H138.213V31.9952H138.876L141.974 36.4541H142.03V31.9952H142.705ZM143.845 32.6037V31.9952H148.094V32.6037H146.313V37.6602H145.627V32.6037H143.845ZM148.801 37.6602H148.082L150.162 31.9952H150.87L152.951 37.6602H152.231L150.538 32.8914H150.494L148.801 37.6602ZM149.067 35.4473H151.966V36.0558H149.067V35.4473ZM158.203 33.7655H157.517C157.477 33.5682 157.406 33.3948 157.304 33.2455C157.205 33.0961 157.083 32.9707 156.939 32.8693C156.797 32.766 156.639 32.6886 156.466 32.6369C156.293 32.5853 156.112 32.5595 155.924 32.5595C155.581 32.5595 155.27 32.6462 154.992 32.8195C154.715 32.9928 154.495 33.2482 154.331 33.5857C154.168 33.9232 154.087 34.3372 154.087 34.8277C154.087 35.3182 154.168 35.7322 154.331 36.0697C154.495 36.4071 154.715 36.6625 154.992 36.8359C155.27 37.0092 155.581 37.0959 155.924 37.0959C156.112 37.0959 156.293 37.0701 156.466 37.0184C156.639 36.9668 156.797 36.8903 156.939 36.7888C157.083 36.6856 157.205 36.5593 157.304 36.4099C157.406 36.2587 157.477 36.0853 157.517 35.8899H158.203C158.151 36.1794 158.057 36.4385 157.921 36.6671C157.784 36.8958 157.615 37.0903 157.412 37.2508C157.209 37.4094 156.981 37.5301 156.729 37.6131C156.478 37.6961 156.21 37.7376 155.924 37.7376C155.441 37.7376 155.011 37.6196 154.635 37.3835C154.259 37.1475 153.963 36.8119 153.747 36.3767C153.531 35.9415 153.423 35.4252 153.423 34.8277C153.423 34.2302 153.531 33.7139 153.747 33.2787C153.963 32.8435 154.259 32.5078 154.635 32.2718C155.011 32.0358 155.441 31.9177 155.924 31.9177C156.21 31.9177 156.478 31.9592 156.729 32.0422C156.981 32.1252 157.209 32.2469 157.412 32.4073C157.615 32.5659 157.784 32.7596 157.921 32.9882C158.057 33.215 158.151 33.4741 158.203 33.7655ZM159.08 32.6037V31.9952H163.328V32.6037H161.547V37.6602H160.861V32.6037H159.08ZM166.734 37.6602V31.9952H170.13V32.6037H167.42V34.5179H169.876V35.1264H167.42V37.6602H166.734ZM176.163 34.8277C176.163 35.4252 176.055 35.9415 175.839 36.3767C175.624 36.8119 175.328 37.1475 174.951 37.3835C174.575 37.6196 174.146 37.7376 173.662 37.7376C173.179 37.7376 172.75 37.6196 172.373 37.3835C171.997 37.1475 171.701 36.8119 171.486 36.3767C171.27 35.9415 171.162 35.4252 171.162 34.8277C171.162 34.2302 171.27 33.7139 171.486 33.2787C171.701 32.8435 171.997 32.5078 172.373 32.2718C172.75 32.0358 173.179 31.9177 173.662 31.9177C174.146 31.9177 174.575 32.0358 174.951 32.2718C175.328 32.5078 175.624 32.8435 175.839 33.2787C176.055 33.7139 176.163 34.2302 176.163 34.8277ZM175.499 34.8277C175.499 34.3372 175.417 33.9232 175.253 33.5857C175.091 33.2482 174.87 32.9928 174.592 32.8195C174.315 32.6462 174.005 32.5595 173.662 32.5595C173.319 32.5595 173.009 32.6462 172.73 32.8195C172.454 32.9928 172.233 33.2482 172.069 33.5857C171.907 33.9232 171.826 34.3372 171.826 34.8277C171.826 35.3182 171.907 35.7322 172.069 36.0697C172.233 36.4071 172.454 36.6625 172.73 36.8359C173.009 37.0092 173.319 37.0959 173.662 37.0959C174.005 37.0959 174.315 37.0092 174.592 36.8359C174.87 36.6625 175.091 36.4071 175.253 36.0697C175.417 35.7322 175.499 35.3182 175.499 34.8277ZM177.394 37.6602V31.9952H179.308C179.751 31.9952 180.114 32.0708 180.398 32.222C180.682 32.3714 180.893 32.577 181.029 32.8389C181.165 33.1007 181.234 33.3985 181.234 33.7323C181.234 34.0661 181.165 34.3621 181.029 34.6202C180.893 34.8784 180.683 35.0812 180.401 35.2288C180.119 35.3744 179.758 35.4473 179.32 35.4473H177.771V34.8277H179.297C179.6 34.8277 179.843 34.7834 180.028 34.6949C180.214 34.6064 180.349 34.481 180.432 34.3187C180.516 34.1546 180.559 33.9591 180.559 33.7323C180.559 33.5055 180.516 33.3072 180.432 33.1376C180.347 32.9679 180.211 32.837 180.025 32.7448C179.839 32.6508 179.592 32.6037 179.286 32.6037H178.08V37.6602H177.394ZM180.061 35.1154L181.455 37.6602H180.658L179.286 35.1154H180.061ZM182.455 31.9952H183.273L185.199 36.6976H185.265L187.19 31.9952H188.009V37.6602H187.367V33.3561H187.312L185.542 37.6602H184.922L183.152 33.3561H183.096V37.6602H182.455V31.9952Z" fill="#171717"/>
<rect width="168.444" height="152.628" transform="translate(73.0488 47.4492)" fill="white"/>
<path d="M84.7339 56.9896V61.2383H84.1448L81.9851 58.1223H81.9457V61.2383H81.3047V56.9896H81.898L84.0597 60.1097H84.0991V56.9896H84.7339ZM86.5466 61.3088C86.3447 61.3088 86.1621 61.2715 85.9989 61.1968C85.8357 61.1207 85.7064 61.0108 85.611 60.8669C85.5169 60.7231 85.4699 60.5468 85.4699 60.3379C85.4699 60.1581 85.5045 60.0101 85.5736 59.894C85.6428 59.7778 85.7361 59.6858 85.8537 59.618C85.9712 59.5503 86.1026 59.4991 86.2478 59.4645C86.3931 59.4299 86.5411 59.4037 86.6918 59.3857C86.8827 59.3636 87.0376 59.3456 87.1565 59.3318C87.2755 59.3165 87.3619 59.2923 87.4158 59.2591C87.4698 59.2259 87.4967 59.172 87.4967 59.0973V59.0828C87.4967 58.9016 87.4456 58.7612 87.3432 58.6617C87.2423 58.5621 87.0915 58.5123 86.891 58.5123C86.6821 58.5123 86.5175 58.5586 86.3972 58.6513C86.2783 58.7426 86.196 58.8442 86.1503 58.9563L85.5674 58.8235C85.6365 58.6299 85.7375 58.4736 85.8703 58.3546C86.0044 58.2343 86.1586 58.1472 86.3329 58.0932C86.5072 58.0379 86.6904 58.0103 86.8827 58.0103C87.0099 58.0103 87.1448 58.0255 87.2872 58.0559C87.431 58.0849 87.5652 58.1389 87.6897 58.2177C87.8155 58.2965 87.9186 58.4093 87.9988 58.5559C88.079 58.7011 88.1191 58.8899 88.1191 59.1222V61.2383H87.5133V60.8026H87.4884C87.4483 60.8828 87.3882 60.9617 87.308 61.0391C87.2277 61.1166 87.1247 61.1809 86.9988 61.2321C86.873 61.2832 86.7222 61.3088 86.5466 61.3088ZM86.6814 60.8109C86.8529 60.8109 86.9995 60.777 87.1212 60.7093C87.2443 60.6415 87.3377 60.553 87.4013 60.4437C87.4663 60.3331 87.4988 60.2148 87.4988 60.089V59.6782C87.4767 59.7003 87.4338 59.7211 87.3702 59.7404C87.308 59.7584 87.2367 59.7743 87.1565 59.7882C87.0763 59.8006 86.9981 59.8124 86.9221 59.8234C86.846 59.8331 86.7824 59.8414 86.7312 59.8483C86.6109 59.8635 86.5009 59.8891 86.4014 59.9251C86.3032 59.961 86.2243 60.0129 86.1649 60.0807C86.1068 60.1471 86.0777 60.2356 86.0777 60.3462C86.0777 60.4997 86.1344 60.6159 86.2478 60.6947C86.3613 60.7722 86.5058 60.8109 86.6814 60.8109ZM88.9453 61.2383V58.0517H89.5407V58.5704H89.5801C89.6465 58.3947 89.7551 58.2578 89.9058 58.1596C90.0566 58.06 90.2371 58.0103 90.4473 58.0103C90.6603 58.0103 90.8387 58.06 90.9825 58.1596C91.1278 58.2592 91.2349 58.3961 91.3041 58.5704H91.3373C91.4134 58.4003 91.5344 58.2647 91.7003 58.1638C91.8663 58.0614 92.0641 58.0103 92.2937 58.0103C92.5827 58.0103 92.8185 58.1008 93.0011 58.282C93.185 58.4632 93.277 58.7364 93.277 59.1015V61.2383H92.6567V59.1596C92.6567 58.9438 92.5979 58.7875 92.4804 58.6907C92.3628 58.5939 92.2224 58.5455 92.0592 58.5455C91.8573 58.5455 91.7003 58.6077 91.5883 58.7322C91.4763 58.8553 91.4203 59.0137 91.4203 59.2073V61.2383H90.802V59.1201C90.802 58.9473 90.7481 58.8083 90.6402 58.7032C90.5324 58.598 90.392 58.5455 90.2191 58.5455C90.1015 58.5455 89.993 58.5766 89.8934 58.6388C89.7952 58.6997 89.7157 58.7848 89.6548 58.894C89.5953 59.0033 89.5656 59.1298 89.5656 59.2737V61.2383H88.9453ZM95.4818 61.3026C95.1678 61.3026 94.8974 61.2355 94.6706 61.1014C94.4452 60.9658 94.2709 60.7757 94.1478 60.5309C94.0261 60.2847 93.9652 59.9963 93.9652 59.6658C93.9652 59.3394 94.0261 59.0517 94.1478 58.8027C94.2709 58.5538 94.4424 58.3595 94.6623 58.2198C94.8836 58.0801 95.1422 58.0103 95.4382 58.0103C95.618 58.0103 95.7922 58.04 95.961 58.0995C96.1297 58.1589 96.2812 58.2523 96.4153 58.3795C96.5495 58.5068 96.6553 58.672 96.7327 58.8753C96.8102 59.0773 96.8489 59.3228 96.8489 59.6118V59.8317H94.3158V59.367H96.241C96.241 59.2038 96.2079 59.0593 96.1415 58.9334C96.0751 58.8062 95.9817 58.7059 95.8614 58.6326C95.7425 58.5593 95.6028 58.5227 95.4423 58.5227C95.2681 58.5227 95.1159 58.5655 94.9859 58.6513C94.8573 58.7357 94.7577 58.8463 94.6872 58.9832C94.618 59.1188 94.5835 59.2661 94.5835 59.4251V59.7882C94.5835 60.0011 94.6208 60.1823 94.6955 60.3317C94.7716 60.4811 94.8774 60.5952 95.0129 60.674C95.1484 60.7514 95.3068 60.7902 95.488 60.7902C95.6055 60.7902 95.7127 60.7736 95.8095 60.7404C95.9063 60.7058 95.99 60.6546 96.0606 60.5869C96.1311 60.5191 96.185 60.4354 96.2224 60.3358L96.8095 60.4416C96.7625 60.6145 96.6781 60.766 96.5564 60.896C96.4361 61.0246 96.2846 61.1249 96.102 61.1968C95.9209 61.2673 95.7141 61.3026 95.4818 61.3026Z" fill="#171717"/>
<rect width="152.865" height="11.684" transform="translate(80.8379 66.1328)" fill="#E6EBF5"/>
<path d="M81.3047 91.6055V87.3568H83.9684V87.9086H81.9457V89.2031H83.8294V89.7529H81.9457V91.0536H83.9933V91.6055H81.3047ZM84.7749 91.6055V88.4189H85.3703V88.9376H85.4097C85.4761 88.7619 85.5847 88.625 85.7354 88.5268C85.8862 88.4272 86.0667 88.3774 86.2769 88.3774C86.4899 88.3774 86.6683 88.4272 86.8121 88.5268C86.9573 88.6264 87.0645 88.7633 87.1337 88.9376H87.1669C87.2429 88.7675 87.364 88.6319 87.5299 88.531C87.6959 88.4286 87.8937 88.3774 88.1233 88.3774C88.4123 88.3774 88.6481 88.468 88.8307 88.6492C89.0146 88.8304 89.1066 89.1035 89.1066 89.4687V91.6055H88.4863V89.5268C88.4863 89.311 88.4275 89.1547 88.31 89.0579C88.1924 88.9611 88.052 88.9127 87.8888 88.9127C87.6869 88.9127 87.5299 88.9749 87.4179 89.0994C87.3059 89.2225 87.2499 89.3808 87.2499 89.5745V91.6055H86.6316V89.4873C86.6316 89.3145 86.5777 89.1755 86.4698 89.0703C86.3619 88.9652 86.2216 88.9127 86.0487 88.9127C85.9311 88.9127 85.8226 88.9438 85.723 89.006C85.6248 89.0669 85.5453 89.1519 85.4844 89.2612C85.4249 89.3705 85.3952 89.497 85.3952 89.6409V91.6055H84.7749ZM90.8653 91.676C90.6634 91.676 90.4808 91.6387 90.3176 91.564C90.1544 91.4879 90.0251 91.378 89.9297 91.2341C89.8356 91.0903 89.7886 90.9139 89.7886 90.7051C89.7886 90.5253 89.8232 90.3773 89.8923 90.2611C89.9615 90.145 90.0549 90.053 90.1724 89.9852C90.29 89.9175 90.4214 89.8663 90.5666 89.8317C90.7118 89.7971 90.8598 89.7709 91.0105 89.7529C91.2014 89.7307 91.3563 89.7128 91.4752 89.6989C91.5942 89.6837 91.6806 89.6595 91.7346 89.6263C91.7885 89.5931 91.8155 89.5392 91.8155 89.4645V89.45C91.8155 89.2688 91.7643 89.1284 91.662 89.0289C91.561 88.9293 91.4102 88.8795 91.2097 88.8795C91.0009 88.8795 90.8363 88.9258 90.7159 89.0185C90.597 89.1098 90.5147 89.2114 90.4691 89.3234L89.8861 89.1907C89.9553 88.997 90.0562 88.8408 90.189 88.7218C90.3232 88.6015 90.4774 88.5144 90.6516 88.4604C90.8259 88.4051 91.0092 88.3774 91.2014 88.3774C91.3286 88.3774 91.4635 88.3927 91.6059 88.4231C91.7498 88.4521 91.8839 88.5061 92.0084 88.5849C92.1343 88.6637 92.2373 88.7764 92.3175 88.9231C92.3977 89.0683 92.4378 89.2571 92.4378 89.4894V91.6055H91.8321V91.1698H91.8072C91.7671 91.25 91.7069 91.3289 91.6267 91.4063C91.5465 91.4838 91.4434 91.5481 91.3176 91.5992C91.1917 91.6504 91.041 91.676 90.8653 91.676ZM91.0002 91.1781C91.1717 91.1781 91.3183 91.1442 91.44 91.0765C91.5631 91.0087 91.6564 90.9202 91.72 90.8109C91.785 90.7003 91.8175 90.582 91.8175 90.4562V90.0454C91.7954 90.0675 91.7525 90.0883 91.6889 90.1076C91.6267 90.1256 91.5555 90.1415 91.4752 90.1553C91.395 90.1678 91.3169 90.1795 91.2408 90.1906C91.1647 90.2003 91.1011 90.2086 91.05 90.2155C90.9296 90.2307 90.8197 90.2563 90.7201 90.2923C90.6219 90.3282 90.5431 90.3801 90.4836 90.4479C90.4255 90.5142 90.3965 90.6028 90.3965 90.7134C90.3965 90.8669 90.4532 90.9831 90.5666 91.0619C90.68 91.1394 90.8245 91.1781 91.0002 91.1781ZM93.264 91.6055V88.4189H93.8843V91.6055H93.264ZM93.5773 87.9273C93.4694 87.9273 93.3768 87.8913 93.2993 87.8194C93.2232 87.7461 93.1852 87.6589 93.1852 87.558C93.1852 87.4556 93.2232 87.3685 93.2993 87.2966C93.3768 87.2233 93.4694 87.1866 93.5773 87.1866C93.6852 87.1866 93.7771 87.2233 93.8532 87.2966C93.9307 87.3685 93.9694 87.4556 93.9694 87.558C93.9694 87.6589 93.9307 87.7461 93.8532 87.8194C93.7771 87.8913 93.6852 87.9273 93.5773 87.9273ZM95.3391 87.3568V91.6055H94.7188V87.3568H95.3391Z" fill="#171717"/>
<rect width="152.865" height="11.684" transform="translate(80.8379 96.5)" fill="#E6EBF5"/>
<path d="M150.568 140.551H148.734V134.886H150.626C151.181 134.886 151.658 134.999 152.056 135.226C152.455 135.451 152.76 135.775 152.972 136.197C153.186 136.617 153.293 137.122 153.293 137.71C153.293 138.3 153.185 138.807 152.969 139.231C152.755 139.655 152.446 139.982 152.04 140.211C151.634 140.437 151.144 140.551 150.568 140.551ZM149.589 139.804H150.521C150.953 139.804 151.311 139.723 151.597 139.561C151.883 139.396 152.097 139.159 152.239 138.85C152.381 138.538 152.452 138.158 152.452 137.71C152.452 137.266 152.381 136.888 152.239 136.579C152.099 136.269 151.89 136.034 151.611 135.873C151.333 135.713 150.987 135.633 150.574 135.633H149.589V139.804ZM154.289 140.551V136.302H155.089V136.977H155.133C155.211 136.748 155.347 136.569 155.542 136.438C155.74 136.305 155.963 136.238 156.212 136.238C156.263 136.238 156.324 136.24 156.394 136.244C156.466 136.248 156.523 136.252 156.563 136.258V137.049C156.53 137.04 156.471 137.03 156.386 137.018C156.301 137.006 156.216 136.999 156.132 136.999C155.936 136.999 155.762 137.041 155.609 137.124C155.458 137.205 155.338 137.318 155.249 137.464C155.161 137.608 155.116 137.772 155.116 137.956V140.551H154.289ZM158.477 140.645C158.208 140.645 157.965 140.595 157.747 140.495C157.529 140.394 157.357 140.247 157.23 140.056C157.104 139.864 157.042 139.629 157.042 139.35C157.042 139.111 157.088 138.913 157.18 138.758C157.272 138.603 157.397 138.481 157.553 138.39C157.71 138.3 157.885 138.232 158.079 138.186C158.273 138.14 158.47 138.105 158.671 138.081C158.925 138.051 159.132 138.027 159.29 138.009C159.449 137.988 159.564 137.956 159.636 137.912C159.708 137.868 159.744 137.796 159.744 137.696V137.677C159.744 137.435 159.676 137.248 159.539 137.115C159.405 136.983 159.204 136.916 158.936 136.916C158.658 136.916 158.439 136.978 158.278 137.101C158.12 137.223 158.01 137.359 157.949 137.508L157.172 137.331C157.264 137.073 157.398 136.865 157.576 136.706C157.754 136.545 157.96 136.429 158.192 136.357C158.425 136.284 158.669 136.247 158.925 136.247C159.095 136.247 159.275 136.267 159.465 136.308C159.657 136.346 159.835 136.418 160.001 136.523C160.169 136.628 160.307 136.779 160.414 136.974C160.52 137.168 160.574 137.42 160.574 137.729V140.551H159.766V139.97H159.733C159.68 140.077 159.599 140.182 159.492 140.285C159.385 140.389 159.248 140.474 159.08 140.542C158.912 140.611 158.711 140.645 158.477 140.645ZM158.657 139.981C158.886 139.981 159.081 139.936 159.243 139.845C159.408 139.755 159.532 139.637 159.617 139.491C159.704 139.344 159.747 139.186 159.747 139.018V138.471C159.717 138.5 159.66 138.528 159.575 138.554C159.492 138.578 159.397 138.599 159.29 138.617C159.184 138.634 159.079 138.65 158.978 138.664C158.877 138.677 158.792 138.688 158.723 138.697C158.563 138.718 158.416 138.752 158.284 138.8C158.153 138.848 158.048 138.917 157.968 139.007C157.891 139.096 157.852 139.214 157.852 139.361C157.852 139.566 157.928 139.721 158.079 139.826C158.23 139.929 158.423 139.981 158.657 139.981ZM163.457 142.233C163.119 142.233 162.829 142.188 162.586 142.1C162.344 142.011 162.147 141.894 161.994 141.748C161.841 141.603 161.726 141.443 161.651 141.27L162.362 140.977C162.411 141.058 162.478 141.144 162.561 141.234C162.646 141.326 162.76 141.405 162.904 141.469C163.049 141.534 163.237 141.566 163.465 141.566C163.779 141.566 164.038 141.489 164.242 141.336C164.447 141.185 164.55 140.944 164.55 140.612V139.776H164.497C164.447 139.867 164.375 139.967 164.281 140.078C164.189 140.188 164.062 140.284 163.899 140.365C163.737 140.447 163.526 140.487 163.266 140.487C162.93 140.487 162.628 140.409 162.359 140.252C162.091 140.093 161.879 139.86 161.723 139.552C161.568 139.242 161.49 138.862 161.49 138.41C161.49 137.958 161.567 137.571 161.72 137.248C161.875 136.925 162.087 136.678 162.356 136.507C162.625 136.333 162.93 136.247 163.272 136.247C163.535 136.247 163.748 136.291 163.911 136.38C164.073 136.466 164.199 136.568 164.29 136.684C164.382 136.8 164.453 136.902 164.503 136.991H164.563V136.302H165.374V140.645C165.374 141.01 165.289 141.31 165.119 141.544C164.95 141.778 164.72 141.951 164.431 142.064C164.143 142.176 163.818 142.233 163.457 142.233ZM163.449 139.801C163.687 139.801 163.888 139.746 164.052 139.635C164.218 139.523 164.343 139.362 164.428 139.154C164.514 138.944 164.558 138.692 164.558 138.399C164.558 138.113 164.515 137.861 164.431 137.644C164.346 137.426 164.221 137.256 164.057 137.135C163.893 137.011 163.69 136.949 163.449 136.949C163.2 136.949 162.992 137.014 162.826 137.143C162.66 137.27 162.535 137.444 162.45 137.663C162.367 137.882 162.326 138.128 162.326 138.399C162.326 138.677 162.368 138.922 162.453 139.132C162.538 139.342 162.663 139.506 162.829 139.624C162.997 139.742 163.203 139.801 163.449 139.801ZM156.687 153.631C156.307 153.631 155.98 153.562 155.705 153.424C155.432 153.285 155.222 153.097 155.075 152.859C154.927 152.62 154.853 152.348 154.853 152.046C154.853 151.816 154.901 151.611 154.997 151.432C155.093 151.251 155.227 151.084 155.398 150.931C155.57 150.778 155.768 150.624 155.993 150.469L156.906 149.825C157.061 149.723 157.181 149.616 157.268 149.504C157.355 149.39 157.398 149.249 157.398 149.081C157.398 148.948 157.341 148.821 157.227 148.699C157.112 148.577 156.959 148.516 156.767 148.516C156.635 148.516 156.518 148.549 156.416 148.613C156.317 148.678 156.238 148.761 156.181 148.862C156.126 148.962 156.098 149.067 156.098 149.178C156.098 149.307 156.133 149.437 156.203 149.568C156.275 149.699 156.367 149.834 156.48 149.974C156.592 150.113 156.71 150.256 156.834 150.406L159.464 153.551H158.529L156.353 150.992C156.17 150.776 156 150.574 155.844 150.384C155.687 150.192 155.56 149.998 155.462 149.803C155.366 149.605 155.318 149.392 155.318 149.164C155.318 148.904 155.377 148.673 155.495 148.472C155.615 148.269 155.782 148.111 155.996 147.996C156.21 147.882 156.46 147.825 156.748 147.825C157.039 147.825 157.289 147.882 157.498 147.996C157.708 148.109 157.869 148.259 157.982 148.447C158.096 148.634 158.153 148.837 158.153 149.059C158.153 149.328 158.086 149.566 157.951 149.772C157.819 149.977 157.635 150.165 157.401 150.337L156.264 151.175C156.043 151.337 155.889 151.497 155.802 151.656C155.717 151.813 155.675 151.935 155.675 152.024C155.675 152.186 155.716 152.336 155.799 152.475C155.884 152.613 156.002 152.724 156.153 152.807C156.306 152.89 156.485 152.931 156.69 152.931C156.9 152.931 157.105 152.886 157.304 152.796C157.505 152.703 157.687 152.572 157.849 152.4C158.013 152.229 158.143 152.023 158.239 151.783C158.335 151.544 158.383 151.275 158.383 150.978H159.13C159.13 151.343 159.088 151.652 159.005 151.905C158.922 152.156 158.822 152.36 158.704 152.519C158.588 152.676 158.478 152.798 158.375 152.887C158.341 152.916 158.31 152.946 158.281 152.975C158.251 153.005 158.22 153.034 158.186 153.064C157.995 153.258 157.762 153.4 157.489 153.493C157.218 153.585 156.951 153.631 156.687 153.631ZM150.496 166.551H148.662V160.886H150.554C151.109 160.886 151.586 160.999 151.984 161.226C152.383 161.451 152.688 161.775 152.9 162.197C153.114 162.617 153.221 163.122 153.221 163.71C153.221 164.3 153.113 164.807 152.897 165.231C152.683 165.655 152.373 165.982 151.968 166.211C151.562 166.437 151.071 166.551 150.496 166.551ZM149.517 165.804H150.449C150.881 165.804 151.239 165.723 151.525 165.561C151.811 165.396 152.025 165.159 152.167 164.85C152.309 164.538 152.38 164.158 152.38 163.71C152.38 163.266 152.309 162.888 152.167 162.579C152.027 162.269 151.817 162.034 151.539 161.873C151.26 161.713 150.915 161.633 150.502 161.633H149.517V165.804ZM154.217 166.551V162.302H155.017V162.977H155.061C155.138 162.748 155.275 162.569 155.47 162.438C155.667 162.305 155.891 162.238 156.14 162.238C156.191 162.238 156.252 162.24 156.322 162.244C156.394 162.248 156.45 162.252 156.491 162.258V163.049C156.458 163.04 156.399 163.03 156.314 163.018C156.229 163.006 156.144 162.999 156.059 162.999C155.864 162.999 155.69 163.041 155.537 163.124C155.385 163.205 155.265 163.318 155.177 163.464C155.088 163.608 155.044 163.772 155.044 163.956V166.551H154.217ZM158.844 166.637C158.446 166.637 158.098 166.545 157.801 166.363C157.504 166.18 157.274 165.925 157.11 165.596C156.946 165.268 156.864 164.885 156.864 164.446C156.864 164.005 156.946 163.62 157.11 163.29C157.274 162.959 157.504 162.703 157.801 162.521C158.098 162.338 158.446 162.247 158.844 162.247C159.242 162.247 159.59 162.338 159.887 162.521C160.184 162.703 160.414 162.959 160.578 163.29C160.743 163.62 160.825 164.005 160.825 164.446C160.825 164.885 160.743 165.268 160.578 165.596C160.414 165.925 160.184 166.18 159.887 166.363C159.59 166.545 159.242 166.637 158.844 166.637ZM158.847 165.942C159.105 165.942 159.319 165.874 159.489 165.738C159.658 165.601 159.784 165.419 159.865 165.193C159.948 164.966 159.989 164.716 159.989 164.443C159.989 164.172 159.948 163.923 159.865 163.696C159.784 163.468 159.658 163.284 159.489 163.146C159.319 163.007 159.105 162.938 158.847 162.938C158.587 162.938 158.371 163.007 158.2 163.146C158.03 163.284 157.904 163.468 157.821 163.696C157.74 163.923 157.699 164.172 157.699 164.443C157.699 164.716 157.74 164.966 157.821 165.193C157.904 165.419 158.03 165.601 158.2 165.738C158.371 165.874 158.587 165.942 158.847 165.942ZM161.748 168.144V162.302H162.556V162.991H162.625C162.673 162.902 162.742 162.8 162.832 162.684C162.922 162.568 163.048 162.466 163.208 162.38C163.369 162.291 163.581 162.247 163.845 162.247C164.188 162.247 164.494 162.333 164.763 162.507C165.032 162.68 165.243 162.93 165.396 163.256C165.551 163.583 165.629 163.976 165.629 164.435C165.629 164.894 165.552 165.288 165.399 165.616C165.246 165.942 165.036 166.194 164.768 166.371C164.501 166.546 164.196 166.634 163.853 166.634C163.595 166.634 163.384 166.59 163.219 166.504C163.057 166.417 162.93 166.316 162.838 166.199C162.745 166.083 162.674 165.98 162.625 165.89H162.575V168.144H161.748ZM162.558 164.426C162.558 164.725 162.602 164.987 162.688 165.212C162.775 165.437 162.9 165.613 163.064 165.74C163.229 165.866 163.43 165.928 163.667 165.928C163.915 165.928 164.121 165.863 164.287 165.732C164.453 165.599 164.578 165.419 164.663 165.193C164.75 164.966 164.793 164.71 164.793 164.426C164.793 164.146 164.751 163.894 164.666 163.671C164.583 163.448 164.458 163.272 164.29 163.143C164.124 163.014 163.916 162.949 163.667 162.949C163.428 162.949 163.225 163.011 163.059 163.135C162.895 163.258 162.77 163.431 162.686 163.652C162.601 163.873 162.558 164.131 162.558 164.426Z" fill="#525252"/>
<rect x="81.3247" y="116.459" width="151.892" height="71.0775" stroke="#E6EBF5" stroke-width="0.973664"/>
</g>
<rect x="73.5357" y="23.3579" width="167.47" height="176.233" rx="1.4605" stroke="#EFF0F1" stroke-width="0.973664" shape-rendering="crispEdges"/>
</g>
<defs>
<filter id="filter0_d_5828_3676" x="69.1542" y="20.9238" width="176.234" height="184.996" filterUnits="userSpaceOnUse" color-interpolation-filters="sRGB">
<feFlood flood-opacity="0" result="BackgroundImageFix"/>
<feColorMatrix in="SourceAlpha" type="matrix" values="0 0 0 0 0 0 0 0 0 0 0 0 0 0 0 0 0 0 127 0" result="hardAlpha"/>
<feOffset dy="1.94733"/>
<feGaussianBlur stdDeviation="1.94733"/>
<feComposite in2="hardAlpha" operator="out"/>
<feColorMatrix type="matrix" values="0 0 0 0 0 0 0 0 0 0 0 0 0 0 0 0 0 0 0.05 0"/>
<feBlend mode="normal" in2="BackgroundImageFix" result="effect1_dropShadow_5828_3676"/>
<feBlend mode="normal" in="SourceGraphic" in2="effect1_dropShadow_5828_3676" result="shape"/>
</filter>
<clipPath id="clip0_5828_3676">
<rect x="1.60938" width="108.45" height="175.548" rx="1.9366" fill="white"/>
</clipPath>
<clipPath id="clip1_5828_3676">
<rect width="9.68301" height="9.68301" fill="white" transform="translate(9.35547 32.2383)"/>
</clipPath>
<clipPath id="clip2_5828_3676">
<rect width="9.68301" height="9.68301" fill="white" transform="translate(9.35547 158.117)"/>
</clipPath>
<clipPath id="clip3_5828_3676">
<rect x="73.0488" y="22.8711" width="168.444" height="177.207" rx="1.94733" fill="white"/>
</clipPath>
</defs>
</svg>
