<svg width="126" height="200" viewBox="0 0 126 200" fill="none" xmlns="http://www.w3.org/2000/svg">
<g clip-path="url(#clip0_5828_3727)">
<rect width="125.212" height="20.8423" transform="translate(0.393555 0.453125)" fill="#3E4652"/>
<path d="M7.43468 12.875V8.20508H10.1368V8.58816H7.86108V10.3462H9.92469V10.7293H7.86108V12.875H7.43468ZM15.0898 10.54C15.0898 11.0265 15.0031 11.4499 14.8298 11.8101C14.6565 12.1689 14.4179 12.4471 14.1138 12.6447C13.8113 12.8408 13.4632 12.9388 13.0695 12.9388C12.6758 12.9388 12.3269 12.8408 12.0229 12.6447C11.7204 12.4471 11.4825 12.1689 11.3092 11.8101C11.1374 11.4499 11.0515 11.0265 11.0515 10.54C11.0515 10.0536 11.1374 9.63099 11.3092 9.27223C11.4825 8.91195 11.7211 8.63376 12.0252 8.43766C12.3292 8.24004 12.6773 8.14123 13.0695 8.14123C13.4632 8.14123 13.8113 8.24004 14.1138 8.43766C14.4179 8.63376 14.6565 8.91195 14.8298 9.27223C15.0031 9.63099 15.0898 10.0536 15.0898 10.54ZM14.6748 10.54C14.6748 10.122 14.6049 9.764 14.465 9.46605C14.3251 9.16658 14.1344 8.9378 13.8927 8.7797C13.651 8.6216 13.3766 8.54256 13.0695 8.54256C12.7639 8.54256 12.4903 8.6216 12.2486 8.7797C12.0069 8.9378 11.8154 9.16582 11.674 9.46377C11.5341 9.76172 11.4642 10.1205 11.4642 10.54C11.4642 10.9581 11.5341 11.3161 11.674 11.614C11.8139 11.912 12.0046 12.1408 12.2463 12.3004C12.488 12.4585 12.7624 12.5375 13.0695 12.5375C13.3766 12.5375 13.651 12.4585 13.8927 12.3004C14.1359 12.1423 14.3274 11.9143 14.4673 11.6163C14.6071 11.3168 14.6763 10.9581 14.6748 10.54ZM16.1852 12.875V8.20508H17.6925C18.0239 8.20508 18.3005 8.26513 18.5225 8.38522C18.7459 8.50379 18.9139 8.66873 19.0264 8.88003C19.1404 9.08981 19.1974 9.33076 19.1974 9.60286C19.1974 9.87497 19.1404 10.1152 19.0264 10.3234C18.9139 10.5317 18.7467 10.6943 18.5248 10.8114C18.3028 10.9284 18.0277 10.987 17.6993 10.987H16.4155V10.597H17.6879C17.9311 10.597 18.1333 10.5568 18.2945 10.4762C18.4571 10.3956 18.578 10.2809 18.657 10.1319C18.7376 9.9829 18.7779 9.80656 18.7779 9.60286C18.7779 9.39916 18.7376 9.2213 18.657 9.06929C18.5764 8.91575 18.4548 8.79718 18.2922 8.71357C18.131 8.62996 17.9273 8.58816 17.6811 8.58816H16.6116V12.875H16.1852ZM18.2443 10.7681L19.3935 12.875H18.901L17.7632 10.7681H18.2443ZM20.3003 8.20508H20.7928L22.487 12.273H22.5281L24.2223 8.20508H24.7148V12.875H24.3135V9.10577H24.277L22.7014 12.875H22.3137L20.7381 9.10577H20.7016V12.875H20.3003V8.20508ZM29.2589 12.875H27.8908V8.20508H29.341C29.7864 8.20508 30.1672 8.29781 30.4834 8.48327C30.8011 8.66873 31.0443 8.93476 31.2131 9.28135C31.3818 9.62795 31.4662 10.0437 31.4662 10.5286C31.4662 11.0181 31.3795 11.4385 31.2062 11.7896C31.0345 12.1392 30.7836 12.4076 30.4538 12.5945C30.1254 12.7815 29.7271 12.875 29.2589 12.875ZM28.3172 12.4919H29.2338C29.6352 12.4919 29.9711 12.4129 30.2417 12.2548C30.5123 12.0967 30.7152 11.8709 30.8505 11.5775C30.9858 11.2842 31.0535 10.9345 31.0535 10.5286C31.0519 10.1258 30.985 9.7792 30.8528 9.48885C30.7221 9.1985 30.5275 8.9758 30.2691 8.82074C30.0121 8.66569 29.6944 8.58816 29.3159 8.58816H28.3172V12.4919ZM32.5639 12.875V8.20508H35.2728V8.58816H32.9903V10.3462H35.1292V10.7293H32.9903V12.4919H35.3184V12.875H32.5639ZM38.9763 9.37256C38.9504 9.11261 38.8357 8.90587 38.632 8.75234C38.4283 8.5988 38.1721 8.52203 37.8635 8.52203C37.6462 8.52203 37.4546 8.55928 37.2889 8.63376C37.1247 8.70825 36.9955 8.81162 36.9013 8.94388C36.8085 9.07461 36.7622 9.22359 36.7622 9.3908C36.7622 9.51393 36.7888 9.62187 36.842 9.7146C36.8952 9.80732 36.9666 9.88713 37.0563 9.95402C37.1475 10.0194 37.2479 10.0756 37.3573 10.1228C37.4683 10.1699 37.58 10.2094 37.6925 10.2413L38.185 10.3827C38.334 10.4237 38.483 10.4762 38.632 10.54C38.7809 10.6039 38.917 10.6845 39.0401 10.7817C39.1648 10.8775 39.2644 10.9953 39.3388 11.1352C39.4149 11.2735 39.4529 11.44 39.4529 11.6346C39.4529 11.8839 39.3883 12.1081 39.259 12.3072C39.1298 12.5064 38.9444 12.6645 38.7027 12.7815C38.461 12.897 38.1714 12.9548 37.8339 12.9548C37.5162 12.9548 37.2403 12.9024 37.0062 12.7975C36.7721 12.6911 36.5881 12.5444 36.4543 12.3574C36.3206 12.1704 36.2453 11.9538 36.2286 11.7075H36.6664C36.6816 11.8915 36.7424 12.0473 36.8488 12.175C36.9552 12.3027 37.0936 12.4 37.2638 12.4668C37.4341 12.5322 37.6241 12.5649 37.8339 12.5649C38.0665 12.5649 38.2732 12.5261 38.4541 12.4486C38.6365 12.3695 38.7794 12.2601 38.8828 12.1202C38.9877 11.9789 39.0401 11.8147 39.0401 11.6277C39.0401 11.4696 38.9991 11.3374 38.917 11.231C38.8349 11.123 38.7201 11.0326 38.5727 10.9596C38.4268 10.8866 38.2573 10.822 38.0642 10.7658L37.5055 10.6016C37.1392 10.4922 36.8549 10.3409 36.6527 10.1478C36.4505 9.95478 36.3495 9.70851 36.3495 9.40904C36.3495 9.15822 36.4163 8.9378 36.5501 8.74778C36.6854 8.55624 36.8678 8.40726 37.0974 8.30085C37.3284 8.19292 37.5876 8.13895 37.8749 8.13895C38.1653 8.13895 38.4222 8.19216 38.6457 8.29857C38.8691 8.40498 39.0462 8.55168 39.1769 8.73866C39.3092 8.92411 39.3799 9.13542 39.389 9.37256H38.9763ZM40.9696 8.20508V12.875H40.5432V8.20508H40.9696ZM45.5065 9.66443C45.4639 9.50937 45.4016 9.3642 45.3195 9.22891C45.2374 9.09209 45.1356 8.97276 45.0139 8.87091C44.8938 8.76754 44.7548 8.68697 44.5967 8.6292C44.4401 8.57144 44.2653 8.54256 44.0722 8.54256C43.7682 8.54256 43.4961 8.6216 43.2559 8.7797C43.0157 8.9378 42.8257 9.16582 42.6858 9.46377C42.5475 9.76172 42.4783 10.1205 42.4783 10.54C42.4783 10.9581 42.5482 11.3161 42.6881 11.614C42.828 11.912 43.0195 12.1408 43.2627 12.3004C43.5075 12.4585 43.7872 12.5375 44.1018 12.5375C44.3892 12.5375 44.643 12.4737 44.8634 12.346C45.0839 12.2183 45.2556 12.0359 45.3788 11.7987C45.5034 11.5616 45.5642 11.2796 45.5612 10.9528L45.698 10.9961H44.2022V10.613H45.9762V10.9961C45.9762 11.3944 45.8956 11.7387 45.7345 12.029C45.5734 12.3194 45.3522 12.5436 45.0709 12.7017C44.7897 12.8598 44.4667 12.9388 44.1018 12.9388C43.6944 12.9388 43.338 12.8408 43.0324 12.6447C42.7269 12.4471 42.489 12.1689 42.3187 11.8101C42.15 11.4499 42.0656 11.0265 42.0656 10.54C42.0656 10.1737 42.1142 9.84305 42.2115 9.54814C42.3088 9.25323 42.4464 9.00088 42.6243 8.7911C42.8036 8.58132 43.0157 8.42094 43.2604 8.30997C43.5052 8.19748 43.7758 8.14123 44.0722 8.14123C44.3276 8.14123 44.5609 8.18152 44.7722 8.26209C44.9851 8.34265 45.172 8.45363 45.3332 8.595C45.4958 8.73485 45.6288 8.89675 45.7322 9.08069C45.8371 9.26311 45.9078 9.45769 45.9443 9.66443H45.5065ZM50.736 8.20508V12.875H50.321L47.5619 8.9644H47.5254V12.875H47.099V8.20508H47.5117L50.2799 12.1202H50.3164V8.20508H50.736ZM52.0418 12.875V8.20508H54.7507V8.58816H52.4682V10.3462H54.607V10.7293H52.4682V12.4919H54.7963V12.875H52.0418ZM55.9185 12.875V8.20508H57.4258C57.7572 8.20508 58.0338 8.26513 58.2558 8.38522C58.4792 8.50379 58.6472 8.66873 58.7597 8.88003C58.8737 9.08981 58.9307 9.33076 58.9307 9.60286C58.9307 9.87497 58.8737 10.1152 58.7597 10.3234C58.6472 10.5317 58.48 10.6943 58.2581 10.8114C58.0361 10.9284 57.761 10.987 57.4326 10.987H56.1488V10.597H57.4212C57.6644 10.597 57.8666 10.5568 58.0278 10.4762C58.1904 10.3956 58.3113 10.2809 58.3903 10.1319C58.4709 9.9829 58.5112 9.80656 58.5112 9.60286C58.5112 9.39916 58.4709 9.2213 58.3903 9.06929C58.3097 8.91575 58.1881 8.79718 58.0255 8.71357C57.8643 8.62996 57.6606 8.58816 57.4144 8.58816H56.3449V12.875H55.9185ZM57.9776 10.7681L59.1268 12.875H58.6343L57.4965 10.7681H57.9776Z" fill="white"/>
<rect width="125.212" height="178.254" transform="translate(0.393555 21.2969)" fill="#545F6F"/>
<path d="M11.2723 30.6245H10.4195C10.3952 30.4846 10.3503 30.3607 10.285 30.2528C10.2196 30.1433 10.1383 30.0506 10.041 29.9746C9.94369 29.8986 9.83272 29.8416 9.70807 29.8036C9.58494 29.7641 9.45192 29.7443 9.30903 29.7443C9.05516 29.7443 8.83018 29.8081 8.63408 29.9358C8.43798 30.062 8.28444 30.2475 8.17347 30.4922C8.0625 30.7354 8.00702 31.0326 8.00702 31.3838C8.00702 31.741 8.0625 32.042 8.17347 32.2868C8.28596 32.53 8.4395 32.7139 8.63408 32.8386C8.83018 32.9617 9.0544 33.0233 9.30675 33.0233C9.4466 33.0233 9.57734 33.005 9.69895 32.9686C9.82208 32.9305 9.93229 32.8751 10.0296 32.8021C10.1284 32.7291 10.2112 32.6394 10.2781 32.533C10.3465 32.4266 10.3937 32.305 10.4195 32.1682L11.2723 32.1728C11.2404 32.3947 11.1712 32.603 11.0648 32.7975C10.9599 32.9921 10.8223 33.1639 10.6521 33.3129C10.4818 33.4603 10.2827 33.5759 10.0547 33.6595C9.82664 33.7416 9.57354 33.7826 9.29535 33.7826C8.88491 33.7826 8.51855 33.6876 8.19628 33.4976C7.874 33.3075 7.62014 33.0332 7.43468 32.6744C7.24922 32.3156 7.15649 31.8854 7.15649 31.3838C7.15649 30.8806 7.24998 30.4504 7.43696 30.0932C7.62394 29.7344 7.87856 29.46 8.20084 29.27C8.52311 29.08 8.88795 28.985 9.29535 28.985C9.55529 28.985 9.797 29.0215 10.0205 29.0944C10.2439 29.1674 10.4431 29.2746 10.6179 29.4159C10.7927 29.5558 10.9364 29.7276 11.0488 29.9313C11.1629 30.1335 11.2373 30.3645 11.2723 30.6245ZM13.5383 33.7872C13.1963 33.7872 12.8998 33.7119 12.649 33.5614C12.3982 33.4109 12.2036 33.2004 12.0653 32.9298C11.9284 32.6592 11.86 32.343 11.86 31.9812C11.86 31.6194 11.9284 31.3025 12.0653 31.0304C12.2036 30.7582 12.3982 30.5469 12.649 30.3964C12.8998 30.246 13.1963 30.1707 13.5383 30.1707C13.8803 30.1707 14.1768 30.246 14.4276 30.3964C14.6784 30.5469 14.8722 30.7582 15.009 31.0304C15.1474 31.3025 15.2165 31.6194 15.2165 31.9812C15.2165 32.343 15.1474 32.6592 15.009 32.9298C14.8722 33.2004 14.6784 33.4109 14.4276 33.5614C14.1768 33.7119 13.8803 33.7872 13.5383 33.7872ZM13.5429 33.1259C13.7283 33.1259 13.8834 33.075 14.008 32.9731C14.1327 32.8697 14.2254 32.7314 14.2862 32.5581C14.3485 32.3848 14.3797 32.1918 14.3797 31.9789C14.3797 31.7646 14.3485 31.5708 14.2862 31.3975C14.2254 31.2227 14.1327 31.0836 14.008 30.9802C13.8834 30.8768 13.7283 30.8251 13.5429 30.8251C13.3528 30.8251 13.1947 30.8768 13.0686 30.9802C12.9439 31.0836 12.8504 31.2227 12.7881 31.3975C12.7273 31.5708 12.6969 31.7646 12.6969 31.9789C12.6969 32.1918 12.7273 32.3848 12.7881 32.5581C12.8504 32.7314 12.9439 32.8697 13.0686 32.9731C13.1947 33.075 13.3528 33.1259 13.5429 33.1259ZM16.7426 29.0488V33.7188H15.9171V29.0488H16.7426ZM19.1192 33.7872C18.7771 33.7872 18.4807 33.7119 18.2299 33.5614C17.979 33.4109 17.7845 33.2004 17.6461 32.9298C17.5093 32.6592 17.4409 32.343 17.4409 31.9812C17.4409 31.6194 17.5093 31.3025 17.6461 31.0304C17.7845 30.7582 17.979 30.5469 18.2299 30.3964C18.4807 30.246 18.7771 30.1707 19.1192 30.1707C19.4612 30.1707 19.7576 30.246 20.0085 30.3964C20.2593 30.5469 20.4531 30.7582 20.5899 31.0304C20.7283 31.3025 20.7974 31.6194 20.7974 31.9812C20.7974 32.343 20.7283 32.6592 20.5899 32.9298C20.4531 33.2004 20.2593 33.4109 20.0085 33.5614C19.7576 33.7119 19.4612 33.7872 19.1192 33.7872ZM19.1237 33.1259C19.3092 33.1259 19.4642 33.075 19.5889 32.9731C19.7135 32.8697 19.8063 32.7314 19.8671 32.5581C19.9294 32.3848 19.9606 32.1918 19.9606 31.9789C19.9606 31.7646 19.9294 31.5708 19.8671 31.3975C19.8063 31.2227 19.7135 31.0836 19.5889 30.9802C19.4642 30.8768 19.3092 30.8251 19.1237 30.8251C18.9337 30.8251 18.7756 30.8768 18.6494 30.9802C18.5248 31.0836 18.4313 31.2227 18.369 31.3975C18.3082 31.5708 18.2778 31.7646 18.2778 31.9789C18.2778 32.1918 18.3082 32.3848 18.369 32.5581C18.4313 32.7314 18.5248 32.8697 18.6494 32.9731C18.7756 33.075 18.9337 33.1259 19.1237 33.1259ZM21.498 33.7188V30.2163H22.2984V30.8001H22.3349C22.3987 30.5979 22.5082 30.4421 22.6632 30.3326C22.8198 30.2216 22.9984 30.1661 23.1991 30.1661C23.2447 30.1661 23.2956 30.1684 23.3519 30.173C23.4096 30.176 23.4575 30.1813 23.4955 30.1889V30.9483C23.4605 30.9361 23.4051 30.9255 23.329 30.9163C23.2546 30.9057 23.1824 30.9004 23.1124 30.9004C22.9619 30.9004 22.8266 30.9331 22.7065 30.9984C22.588 31.0623 22.4945 31.1512 22.4261 31.2652C22.3577 31.3792 22.3235 31.5107 22.3235 31.6597V33.7188H21.498ZM28.211 30.3326C28.1897 30.1335 28.1001 29.9784 27.942 29.8674C27.7854 29.7565 27.5817 29.701 27.3309 29.701C27.1545 29.701 27.0033 29.7276 26.8771 29.7808C26.7509 29.834 26.6544 29.9062 26.5875 29.9974C26.5206 30.0886 26.4864 30.1927 26.4849 30.3098C26.4849 30.4071 26.5069 30.4915 26.551 30.5629C26.5966 30.6344 26.6582 30.6952 26.7357 30.7453C26.8132 30.794 26.8991 30.835 26.9934 30.8685C27.0876 30.9019 27.1826 30.93 27.2784 30.9528L27.7162 31.0623C27.8926 31.1033 28.0621 31.1588 28.2247 31.2287C28.3889 31.2987 28.5356 31.3868 28.6648 31.4932C28.7955 31.5997 28.8989 31.7281 28.9749 31.8786C29.0509 32.0291 29.0889 32.2054 29.0889 32.4076C29.0889 32.6812 29.019 32.9222 28.8791 33.1304C28.7393 33.3372 28.5371 33.4991 28.2726 33.6161C28.0096 33.7317 27.6911 33.7894 27.3172 33.7894C26.9539 33.7894 26.6384 33.7332 26.3709 33.6207C26.1049 33.5082 25.8966 33.344 25.7461 33.1282C25.5971 32.9123 25.5166 32.6493 25.5044 32.3392H26.3367C26.3488 32.5019 26.399 32.6372 26.4872 32.7451C26.5753 32.853 26.6901 32.9336 26.8315 32.9868C26.9744 33.04 27.134 33.0666 27.3103 33.0666C27.4943 33.0666 27.6554 33.0392 27.7937 32.9845C27.9336 32.9283 28.0431 32.8507 28.1221 32.7519C28.2011 32.6516 28.2414 32.5345 28.243 32.4008C28.2414 32.2792 28.2057 32.1788 28.1358 32.0998C28.0659 32.0192 27.9678 31.9523 27.8416 31.8991C27.717 31.8444 27.571 31.7958 27.4038 31.7532L26.8725 31.6164C26.4879 31.5176 26.1839 31.3678 25.9604 31.1672C25.7385 30.965 25.6275 30.6967 25.6275 30.3622C25.6275 30.0871 25.702 29.8462 25.851 29.6394C26.0015 29.4327 26.2059 29.2723 26.4644 29.1583C26.7228 29.0427 27.0154 28.985 27.3423 28.985C27.6737 28.985 27.964 29.0427 28.2133 29.1583C28.4641 29.2723 28.661 29.4311 28.8039 29.6349C28.9468 29.837 29.0205 30.0696 29.0251 30.3326H28.211ZM31.3344 33.7872C30.9847 33.7872 30.6845 33.7104 30.4337 33.5569C30.1844 33.4033 29.9921 33.1913 29.8568 32.9207C29.723 32.6486 29.6561 32.3354 29.6561 31.9812C29.6561 31.6255 29.7245 31.3116 29.8613 31.0395C29.9982 30.7658 30.1912 30.553 30.4405 30.401C30.6914 30.2475 30.9878 30.1707 31.3298 30.1707C31.6141 30.1707 31.8657 30.2232 32.0846 30.328C32.305 30.4314 32.4806 30.5781 32.6113 30.7681C32.742 30.9566 32.8165 31.177 32.8348 31.4294H32.0458C32.0139 31.2607 31.9379 31.12 31.8178 31.0076C31.6992 30.8935 31.5404 30.8365 31.3412 30.8365C31.1725 30.8365 31.0243 30.8821 30.8966 30.9733C30.7689 31.063 30.6693 31.1923 30.5979 31.361C30.5279 31.5297 30.493 31.7319 30.493 31.9675C30.493 32.2062 30.5279 32.4114 30.5979 32.5832C30.6678 32.7535 30.7658 32.8849 30.892 32.9777C31.0197 33.0689 31.1694 33.1145 31.3412 33.1145C31.4628 33.1145 31.5715 33.0917 31.6673 33.0461C31.7646 32.999 31.8459 32.9313 31.9113 32.8431C31.9766 32.755 32.0215 32.6478 32.0458 32.5216H32.8348C32.815 32.7694 32.742 32.9891 32.6159 33.1806C32.4897 33.3706 32.3179 33.5196 32.1005 33.6275C31.8832 33.734 31.6278 33.7872 31.3344 33.7872ZM34.338 31.6665V33.7188H33.5126V29.0488H34.3198V30.8115H34.3608C34.4429 30.6138 34.5698 30.458 34.7416 30.344C34.9149 30.2285 35.1353 30.1707 35.4029 30.1707C35.6461 30.1707 35.8582 30.2216 36.0391 30.3235C36.22 30.4253 36.3598 30.5743 36.4586 30.7704C36.559 30.9665 36.6091 31.2059 36.6091 31.4887V33.7188H35.7837V31.6164C35.7837 31.3807 35.7229 31.1976 35.6013 31.0668C35.4812 30.9346 35.3124 30.8685 35.0951 30.8685C34.9491 30.8685 34.8184 30.9004 34.7029 30.9642C34.5888 31.0266 34.4992 31.117 34.4338 31.2356C34.3699 31.3541 34.338 31.4978 34.338 31.6665ZM39.0011 33.7872C38.6499 33.7872 38.3467 33.7142 38.0913 33.5683C37.8374 33.4208 37.6421 33.2125 37.5053 32.9435C37.3684 32.6729 37.3 32.3544 37.3 31.9881C37.3 31.6278 37.3684 31.3116 37.5053 31.0395C37.6436 30.7658 37.8367 30.553 38.0844 30.401C38.3322 30.2475 38.6233 30.1707 38.9578 30.1707C39.1736 30.1707 39.3773 30.2057 39.5689 30.2756C39.7619 30.344 39.9322 30.4504 40.0796 30.5948C40.2286 30.7392 40.3457 30.9232 40.4308 31.1466C40.5159 31.3686 40.5585 31.6331 40.5585 31.9402V32.1933H37.6877V31.6369H39.7673C39.7657 31.4788 39.7315 31.3382 39.6646 31.2151C39.5978 31.0904 39.5043 30.9924 39.3842 30.9209C39.2656 30.8495 39.1273 30.8137 38.9692 30.8137C38.8004 30.8137 38.6522 30.8548 38.5245 30.9369C38.3968 31.0174 38.2973 31.1238 38.2258 31.2561C38.1559 31.3868 38.1202 31.5305 38.1186 31.6871V32.1728C38.1186 32.3765 38.1559 32.5513 38.2304 32.6972C38.3049 32.8416 38.409 32.9526 38.5428 33.0301C38.6765 33.1061 38.8331 33.1441 39.0125 33.1441C39.1326 33.1441 39.2413 33.1274 39.3386 33.094C39.4359 33.059 39.5202 33.0081 39.5917 32.9412C39.6631 32.8743 39.7171 32.7915 39.7536 32.6926L40.5243 32.7793C40.4756 32.983 40.3829 33.1609 40.2461 33.3129C40.1108 33.4634 39.9375 33.5804 39.7262 33.664C39.5149 33.7461 39.2732 33.7872 39.0011 33.7872ZM41.2568 33.7188V30.2163H42.0458V30.8115H42.0868C42.1598 30.6108 42.2806 30.4542 42.4494 30.3417C42.6181 30.2277 42.8195 30.1707 43.0536 30.1707C43.2908 30.1707 43.4907 30.2285 43.6533 30.344C43.8175 30.458 43.9331 30.6138 43.9999 30.8115H44.0364C44.114 30.6169 44.2447 30.4618 44.4286 30.3463C44.6141 30.2292 44.8337 30.1707 45.0876 30.1707C45.4099 30.1707 45.6729 30.2726 45.8766 30.4763C46.0803 30.68 46.1821 30.9771 46.1821 31.3678V33.7188H45.3544V31.4955C45.3544 31.2781 45.2966 31.1193 45.1811 31.019C45.0656 30.9171 44.9242 30.8662 44.757 30.8662C44.5578 30.8662 44.402 30.9285 44.2895 31.0532C44.1786 31.1763 44.1231 31.3367 44.1231 31.5343V33.7188H43.3136V31.4613C43.3136 31.2804 43.2589 31.136 43.1494 31.0281C43.0415 30.9201 42.9001 30.8662 42.7253 30.8662C42.6067 30.8662 42.4988 30.8966 42.4015 30.9574C42.3042 31.0167 42.2267 31.101 42.1689 31.2105C42.1111 31.3184 42.0823 31.4446 42.0823 31.589V33.7188H41.2568ZM48.5701 33.7872C48.2189 33.7872 47.9157 33.7142 47.6603 33.5683C47.4064 33.4208 47.2111 33.2125 47.0743 32.9435C46.9375 32.6729 46.869 32.3544 46.869 31.9881C46.869 31.6278 46.9375 31.3116 47.0743 31.0395C47.2126 30.7658 47.4057 30.553 47.6534 30.401C47.9012 30.2475 48.1923 30.1707 48.5268 30.1707C48.7426 30.1707 48.9463 30.2057 49.1379 30.2756C49.3309 30.344 49.5012 30.4504 49.6487 30.5948C49.7976 30.7392 49.9147 30.9232 49.9998 31.1466C50.0849 31.3686 50.1275 31.6331 50.1275 31.9402V32.1933H47.2567V31.6369H49.3363C49.3347 31.4788 49.3005 31.3382 49.2336 31.2151C49.1668 31.0904 49.0733 30.9924 48.9532 30.9209C48.8346 30.8495 48.6963 30.8137 48.5382 30.8137C48.3694 30.8137 48.2212 30.8548 48.0935 30.9369C47.9658 31.0174 47.8663 31.1238 47.7948 31.2561C47.7249 31.3868 47.6892 31.5305 47.6876 31.6871V32.1728C47.6876 32.3765 47.7249 32.5513 47.7994 32.6972C47.8739 32.8416 47.978 32.9526 48.1118 33.0301C48.2455 33.1061 48.4021 33.1441 48.5815 33.1441C48.7016 33.1441 48.8103 33.1274 48.9076 33.094C49.0049 33.059 49.0892 33.0081 49.1607 32.9412C49.2321 32.8743 49.2861 32.7915 49.3226 32.6926L50.0933 32.7793C50.0447 32.983 49.9519 33.1609 49.8151 33.3129C49.6798 33.4634 49.5065 33.5804 49.2952 33.664C49.0839 33.7461 48.8422 33.7872 48.5701 33.7872Z" fill="white"/>
<rect x="7.21577" y="40.9365" width="12.0396" height="12.0396" rx="0.401321" fill="white"/>
<rect x="7.21577" y="40.9365" width="12.0396" height="12.0396" rx="0.401321" stroke="#F9F9FF" stroke-width="0.802642"/>
<rect x="24.874" y="40.9365" width="12.0396" height="12.0396" rx="0.401321" fill="#F0FCFF"/>
<rect x="24.874" y="40.9365" width="12.0396" height="12.0396" rx="0.401321" stroke="#83D0E4" stroke-width="0.802642"/>
<rect x="42.5322" y="40.9365" width="12.0396" height="12.0396" rx="0.401321" fill="#FFDF79"/>
<rect x="42.5322" y="40.9365" width="12.0396" height="12.0396" rx="0.401321" stroke="#FB6F41" stroke-width="0.802642"/>
<rect x="60.1904" y="40.9365" width="12.0396" height="12.0396" rx="0.401321" fill="#F7F2FF"/>
<rect x="60.1904" y="40.9365" width="12.0396" height="12.0396" rx="0.401321" stroke="#F3F3FE" stroke-width="0.802642"/>
<rect x="77.8486" y="40.9365" width="12.0396" height="12.0396" rx="0.401321" fill="#EFE8D4"/>
<rect x="77.8486" y="40.9365" width="12.0396" height="12.0396" rx="0.401321" stroke="#5A4B44" stroke-width="0.802642"/>
<rect x="7.21577" y="58.5927" width="12.0396" height="12.0396" rx="0.401321" fill="#F4FFDF"/>
<rect x="7.21577" y="58.5927" width="12.0396" height="12.0396" rx="0.401321" stroke="#B3D37A" stroke-width="0.802642"/>
<rect x="24.4727" y="58.1914" width="12.8423" height="12.8423" rx="0.802642" fill="#303339"/>
<path d="M7.27506 83.457V78.7871H9.02628C9.38504 78.7871 9.68603 78.854 9.92925 78.9878C10.174 79.1215 10.3587 79.3055 10.4834 79.5396C10.6095 79.7722 10.6726 80.0367 10.6726 80.3331C10.6726 80.6326 10.6095 80.8986 10.4834 81.1312C10.3572 81.3638 10.171 81.547 9.92469 81.6807C9.67843 81.813 9.37516 81.8791 9.01488 81.8791H7.85424V81.1836H8.90087C9.11065 81.1836 9.28243 81.1472 9.4162 81.0742C9.54997 81.0012 9.64878 80.9009 9.71263 80.7732C9.778 80.6455 9.81068 80.4988 9.81068 80.3331C9.81068 80.1674 9.778 80.0215 9.71263 79.8953C9.64878 79.7691 9.54921 79.6711 9.41392 79.6012C9.28015 79.5297 9.10761 79.494 8.89631 79.494H8.12103V83.457H7.27506ZM12.3161 83.5277C12.0941 83.5277 11.8942 83.4882 11.7164 83.4091C11.54 83.3286 11.4002 83.21 11.2968 83.0534C11.195 82.8969 11.144 82.7038 11.144 82.4743C11.144 82.2766 11.1805 82.1132 11.2535 81.984C11.3265 81.8548 11.426 81.7514 11.5522 81.6739C11.6784 81.5964 11.8205 81.5378 11.9786 81.4983C12.1382 81.4573 12.3032 81.4276 12.4734 81.4094C12.6786 81.3881 12.8451 81.3691 12.9728 81.3524C13.1005 81.3341 13.1932 81.3068 13.251 81.2703C13.3103 81.2323 13.3399 81.1738 13.3399 81.0947V81.081C13.3399 80.9092 13.289 80.7762 13.1871 80.682C13.0853 80.5877 12.9386 80.5406 12.7471 80.5406C12.5449 80.5406 12.3845 80.5847 12.2659 80.6729C12.1489 80.761 12.0698 80.8652 12.0288 80.9853L11.2581 80.8758C11.3189 80.663 11.4192 80.4851 11.5591 80.3422C11.6989 80.1978 11.8699 80.0899 12.0721 80.0184C12.2743 79.9455 12.4977 79.909 12.7425 79.909C12.9112 79.909 13.0792 79.9287 13.2464 79.9683C13.4136 80.0078 13.5664 80.0732 13.7048 80.1644C13.8431 80.2541 13.9541 80.3764 14.0377 80.5315C14.1228 80.6865 14.1654 80.8804 14.1654 81.113V83.457H13.3718V82.9759H13.3445C13.2943 83.0732 13.2236 83.1644 13.1324 83.2495C13.0427 83.3331 12.9295 83.4008 12.7927 83.4525C12.6574 83.5026 12.4985 83.5277 12.3161 83.5277ZM12.5304 82.9212C12.6961 82.9212 12.8398 82.8885 12.9614 82.8231C13.083 82.7562 13.1765 82.6681 13.2419 82.5586C13.3087 82.4492 13.3422 82.3298 13.3422 82.2006V81.7879C13.3164 81.8092 13.2723 81.8289 13.2099 81.8472C13.1491 81.8654 13.0807 81.8814 13.0047 81.8951C12.9287 81.9088 12.8535 81.9209 12.779 81.9316C12.7045 81.9422 12.6399 81.9513 12.5852 81.9589C12.462 81.9756 12.3518 82.003 12.2545 82.041C12.1572 82.079 12.0805 82.1322 12.0242 82.2006C11.968 82.2675 11.9398 82.3542 11.9398 82.4606C11.9398 82.6126 11.9953 82.7274 12.1063 82.8049C12.2173 82.8824 12.3587 82.9212 12.5304 82.9212ZM16.5186 84.8434C16.2221 84.8434 15.9675 84.8031 15.7547 84.7226C15.5419 84.6435 15.3708 84.5371 15.2416 84.4033C15.1124 84.2696 15.0227 84.1213 14.9726 83.9587L15.7159 83.7785C15.7494 83.847 15.798 83.9146 15.8619 83.9815C15.9257 84.0499 16.0116 84.1061 16.1195 84.1502C16.229 84.1958 16.3665 84.2186 16.5322 84.2186C16.7663 84.2186 16.9602 84.1616 17.1137 84.0476C17.2672 83.9351 17.344 83.7497 17.344 83.4912V82.8277H17.303C17.2604 82.9128 17.1981 83.0002 17.116 83.0899C17.0354 83.1796 16.9282 83.2549 16.7945 83.3157C16.6622 83.3765 16.4958 83.4069 16.2951 83.4069C16.026 83.4069 15.782 83.3438 15.5631 83.2176C15.3458 83.0899 15.1725 82.8999 15.0432 82.6475C14.9156 82.3937 14.8517 82.076 14.8517 81.6944C14.8517 81.3098 14.9156 80.9853 15.0432 80.7208C15.1725 80.4547 15.3465 80.2533 15.5654 80.1165C15.7843 79.9782 16.0283 79.909 16.2974 79.909C16.5026 79.909 16.6713 79.944 16.8036 80.0139C16.9374 80.0823 17.0438 80.1651 17.1228 80.2624C17.2019 80.3582 17.2619 80.4486 17.303 80.5338H17.3486V79.9546H18.1626V83.514C18.1626 83.8135 18.0912 84.0613 17.9483 84.2574C17.8054 84.4535 17.61 84.6002 17.3622 84.6975C17.1145 84.7948 16.8332 84.8434 16.5186 84.8434ZM16.5254 82.7593C16.7002 82.7593 16.8492 82.7167 16.9723 82.6316C17.0955 82.5465 17.1889 82.4241 17.2528 82.2645C17.3166 82.1049 17.3486 81.9133 17.3486 81.6898C17.3486 81.4694 17.3166 81.2764 17.2528 81.1107C17.1905 80.945 17.0977 80.8165 16.9746 80.7253C16.853 80.6326 16.7033 80.5862 16.5254 80.5862C16.3415 80.5862 16.1879 80.6341 16.0648 80.7299C15.9417 80.8256 15.8489 80.9571 15.7866 81.1244C15.7243 81.29 15.6931 81.4785 15.6931 81.6898C15.6931 81.9042 15.7243 82.0919 15.7866 82.2531C15.8505 82.4127 15.9439 82.5373 16.0671 82.627C16.1917 82.7152 16.3445 82.7593 16.5254 82.7593ZM20.5591 83.5254C20.208 83.5254 19.9047 83.4525 19.6493 83.3065C19.3955 83.1591 19.2001 82.9508 19.0633 82.6818C18.9265 82.4112 18.8581 82.0927 18.8581 81.7263C18.8581 81.3661 18.9265 81.0499 19.0633 80.7778C19.2016 80.5041 19.3947 80.2913 19.6425 80.1393C19.8903 79.9858 20.1814 79.909 20.5158 79.909C20.7317 79.909 20.9354 79.944 21.1269 80.0139C21.32 80.0823 21.4902 80.1887 21.6377 80.3331C21.7867 80.4775 21.9037 80.6615 21.9888 80.8849C22.074 81.1069 22.1165 81.3714 22.1165 81.6784V81.9316H19.2457V81.3752H21.3253C21.3238 81.2171 21.2896 81.0765 21.2227 80.9533C21.1558 80.8287 21.0623 80.7306 20.9422 80.6592C20.8236 80.5877 20.6853 80.552 20.5272 80.552C20.3585 80.552 20.2103 80.5931 20.0826 80.6751C19.9549 80.7557 19.8553 80.8621 19.7839 80.9944C19.7139 81.1251 19.6782 81.2688 19.6767 81.4253V81.911C19.6767 82.1147 19.7139 82.2896 19.7884 82.4355C19.8629 82.5799 19.967 82.6909 20.1008 82.7684C20.2346 82.8444 20.3912 82.8824 20.5705 82.8824C20.6906 82.8824 20.7993 82.8657 20.8966 82.8322C20.9939 82.7973 21.0783 82.7464 21.1497 82.6795C21.2212 82.6126 21.2751 82.5297 21.3116 82.4309L22.0823 82.5176C22.0337 82.7213 21.941 82.8991 21.8041 83.0511C21.6688 83.2016 21.4956 83.3187 21.2842 83.4023C21.0729 83.4844 20.8312 83.5254 20.5591 83.5254ZM28.4413 80.3628H27.5885C27.5642 80.2229 27.5194 80.099 27.454 79.9911C27.3886 79.8816 27.3073 79.7889 27.21 79.7129C27.1127 79.6369 27.0017 79.5799 26.8771 79.5419C26.754 79.5023 26.6209 79.4826 26.4781 79.4826C26.2242 79.4826 25.9992 79.5464 25.8031 79.6741C25.607 79.8003 25.4535 79.9858 25.3425 80.2305C25.2315 80.4737 25.176 80.7709 25.176 81.1221C25.176 81.4793 25.2315 81.7803 25.3425 82.025C25.455 82.2683 25.6085 82.4522 25.8031 82.5769C25.9992 82.7 26.2234 82.7616 26.4758 82.7616C26.6156 82.7616 26.7464 82.7433 26.868 82.7068C26.9911 82.6688 27.1013 82.6133 27.1986 82.5404C27.2974 82.4674 27.3803 82.3777 27.4472 82.2713C27.5156 82.1649 27.5627 82.0433 27.5885 81.9065L28.4413 81.911C28.4094 82.133 28.3402 82.3412 28.2338 82.5358C28.1289 82.7304 27.9914 82.9022 27.8211 83.0511C27.6509 83.1986 27.4517 83.3141 27.2237 83.3977C26.9957 83.4798 26.7426 83.5209 26.4644 83.5209C26.0539 83.5209 25.6876 83.4259 25.3653 83.2358C25.043 83.0458 24.7892 82.7714 24.6037 82.4127C24.4182 82.0539 24.3255 81.6237 24.3255 81.1221C24.3255 80.6189 24.419 80.1887 24.606 79.8315C24.793 79.4727 25.0476 79.1983 25.3699 79.0083C25.6921 78.8183 26.057 78.7233 26.4644 78.7233C26.7243 78.7233 26.966 78.7597 27.1895 78.8327C27.4129 78.9057 27.6121 79.0129 27.7869 79.1542C27.9617 79.2941 28.1054 79.4659 28.2179 79.6696C28.3319 79.8717 28.4064 80.1028 28.4413 80.3628ZM30.7073 83.5254C30.3653 83.5254 30.0689 83.4502 29.818 83.2997C29.5672 83.1492 29.3726 82.9387 29.2343 82.6681C29.0975 82.3975 29.0291 82.0813 29.0291 81.7195C29.0291 81.3577 29.0975 81.0407 29.2343 80.7686C29.3726 80.4965 29.5672 80.2852 29.818 80.1347C30.0689 79.9842 30.3653 79.909 30.7073 79.909C31.0494 79.909 31.3458 79.9842 31.5966 80.1347C31.8474 80.2852 32.0413 80.4965 32.1781 80.7686C32.3164 81.0407 32.3856 81.3577 32.3856 81.7195C32.3856 82.0813 32.3164 82.3975 32.1781 82.6681C32.0413 82.9387 31.8474 83.1492 31.5966 83.2997C31.3458 83.4502 31.0494 83.5254 30.7073 83.5254ZM30.7119 82.8642C30.8973 82.8642 31.0524 82.8132 31.177 82.7114C31.3017 82.608 31.3944 82.4697 31.4552 82.2964C31.5176 82.1231 31.5487 81.93 31.5487 81.7172C31.5487 81.5029 31.5176 81.3091 31.4552 81.1358C31.3944 80.9609 31.3017 80.8218 31.177 80.7185C31.0524 80.6151 30.8973 80.5634 30.7119 80.5634C30.5219 80.5634 30.3638 80.6151 30.2376 80.7185C30.1129 80.8218 30.0194 80.9609 29.9571 81.1358C29.8963 81.3091 29.8659 81.5029 29.8659 81.7172C29.8659 81.93 29.8963 82.1231 29.9571 82.2964C30.0194 82.4697 30.1129 82.608 30.2376 82.7114C30.3638 82.8132 30.5219 82.8642 30.7119 82.8642ZM33.9116 78.7871V83.457H33.0862V78.7871H33.9116ZM36.2882 83.5254C35.9462 83.5254 35.6497 83.4502 35.3989 83.2997C35.1481 83.1492 34.9535 82.9387 34.8152 82.6681C34.6783 82.3975 34.6099 82.0813 34.6099 81.7195C34.6099 81.3577 34.6783 81.0407 34.8152 80.7686C34.9535 80.4965 35.1481 80.2852 35.3989 80.1347C35.6497 79.9842 35.9462 79.909 36.2882 79.909C36.6302 79.909 36.9267 79.9842 37.1775 80.1347C37.4283 80.2852 37.6221 80.4965 37.7589 80.7686C37.8973 81.0407 37.9664 81.3577 37.9664 81.7195C37.9664 82.0813 37.8973 82.3975 37.7589 82.6681C37.6221 82.9387 37.4283 83.1492 37.1775 83.2997C36.9267 83.4502 36.6302 83.5254 36.2882 83.5254ZM36.2928 82.8642C36.4782 82.8642 36.6333 82.8132 36.7579 82.7114C36.8826 82.608 36.9753 82.4697 37.0361 82.2964C37.0984 82.1231 37.1296 81.93 37.1296 81.7172C37.1296 81.5029 37.0984 81.3091 37.0361 81.1358C36.9753 80.9609 36.8826 80.8218 36.7579 80.7185C36.6333 80.6151 36.4782 80.5634 36.2928 80.5634C36.1027 80.5634 35.9446 80.6151 35.8185 80.7185C35.6938 80.8218 35.6003 80.9609 35.538 81.1358C35.4772 81.3091 35.4468 81.5029 35.4468 81.7172C35.4468 81.93 35.4772 82.1231 35.538 82.2964C35.6003 82.4697 35.6938 82.608 35.8185 82.7114C35.9446 82.8132 36.1027 82.8642 36.2928 82.8642ZM38.667 83.457V79.9546H39.4674V80.5383H39.5039C39.5677 80.3362 39.6772 80.1803 39.8322 80.0709C39.9888 79.9599 40.1674 79.9044 40.3681 79.9044C40.4137 79.9044 40.4646 79.9067 40.5209 79.9113C40.5786 79.9143 40.6265 79.9196 40.6645 79.9272V80.6865C40.6296 80.6744 40.5741 80.6637 40.4981 80.6546C40.4236 80.644 40.3514 80.6387 40.2814 80.6387C40.131 80.6387 39.9957 80.6713 39.8756 80.7367C39.757 80.8006 39.6635 80.8895 39.5951 81.0035C39.5267 81.1175 39.4925 81.249 39.4925 81.398V83.457H38.667Z" fill="white"/>
<rect width="99.5277" height="12.8423" transform="translate(6.81445 90.2734)" fill="#3E4652"/>
<path d="M106.342 90.2734H118.381C118.825 90.2734 119.184 90.6328 119.184 91.0761V102.313C119.184 102.756 118.825 103.116 118.381 103.116H106.342V90.2734Z" fill="#F0FCFF"/>
<path d="M7.27506 115.535V110.865H9.02628C9.38504 110.865 9.68603 110.932 9.92925 111.066C10.174 111.2 10.3587 111.384 10.4834 111.618C10.6095 111.85 10.6726 112.115 10.6726 112.411C10.6726 112.711 10.6095 112.977 10.4834 113.209C10.3572 113.442 10.171 113.625 9.92469 113.759C9.67843 113.891 9.37516 113.957 9.01488 113.957H7.85424V113.262H8.90087C9.11065 113.262 9.28243 113.225 9.4162 113.152C9.54997 113.079 9.64878 112.979 9.71263 112.851C9.778 112.724 9.81068 112.577 9.81068 112.411C9.81068 112.246 9.778 112.1 9.71263 111.973C9.64878 111.847 9.54921 111.749 9.41392 111.679C9.28015 111.608 9.10761 111.572 8.89631 111.572H8.12103V115.535H7.27506ZM12.3161 115.606C12.0941 115.606 11.8942 115.566 11.7164 115.487C11.54 115.407 11.4002 115.288 11.2968 115.132C11.195 114.975 11.144 114.782 11.144 114.552C11.144 114.355 11.1805 114.191 11.2535 114.062C11.3265 113.933 11.426 113.83 11.5522 113.752C11.6784 113.674 11.8205 113.616 11.9786 113.576C12.1382 113.535 12.3032 113.506 12.4734 113.488C12.6786 113.466 12.8451 113.447 12.9728 113.431C13.1005 113.412 13.1932 113.385 13.251 113.348C13.3103 113.31 13.3399 113.252 13.3399 113.173V113.159C13.3399 112.987 13.289 112.854 13.1871 112.76C13.0853 112.666 12.9386 112.619 12.7471 112.619C12.5449 112.619 12.3845 112.663 12.2659 112.751C12.1489 112.839 12.0698 112.943 12.0288 113.063L11.2581 112.954C11.3189 112.741 11.4192 112.563 11.5591 112.42C11.6989 112.276 11.8699 112.168 12.0721 112.097C12.2743 112.024 12.4977 111.987 12.7425 111.987C12.9112 111.987 13.0792 112.007 13.2464 112.046C13.4136 112.086 13.5664 112.151 13.7048 112.242C13.8431 112.332 13.9541 112.455 14.0377 112.61C14.1228 112.765 14.1654 112.958 14.1654 113.191V115.535H13.3718V115.054H13.3445C13.2943 115.151 13.2236 115.243 13.1324 115.328C13.0427 115.411 12.9295 115.479 12.7927 115.531C12.6574 115.581 12.4985 115.606 12.3161 115.606ZM12.5304 114.999C12.6961 114.999 12.8398 114.967 12.9614 114.901C13.083 114.834 13.1765 114.746 13.2419 114.637C13.3087 114.527 13.3422 114.408 13.3422 114.279V113.866C13.3164 113.887 13.2723 113.907 13.2099 113.925C13.1491 113.944 13.0807 113.96 13.0047 113.973C12.9287 113.987 12.8535 113.999 12.779 114.01C12.7045 114.02 12.6399 114.029 12.5852 114.037C12.462 114.054 12.3518 114.081 12.2545 114.119C12.1572 114.157 12.0805 114.21 12.0242 114.279C11.968 114.346 11.9398 114.432 11.9398 114.539C11.9398 114.691 11.9953 114.805 12.1063 114.883C12.2173 114.961 12.3587 114.999 12.5304 114.999ZM16.5186 116.922C16.2221 116.922 15.9675 116.881 15.7547 116.801C15.5419 116.722 15.3708 116.615 15.2416 116.481C15.1124 116.348 15.0227 116.199 14.9726 116.037L15.7159 115.857C15.7494 115.925 15.798 115.993 15.8619 116.06C15.9257 116.128 16.0116 116.184 16.1195 116.228C16.229 116.274 16.3665 116.297 16.5322 116.297C16.7663 116.297 16.9602 116.24 17.1137 116.126C17.2672 116.013 17.344 115.828 17.344 115.569V114.906H17.303C17.2604 114.991 17.1981 115.078 17.116 115.168C17.0354 115.258 16.9282 115.333 16.7945 115.394C16.6622 115.455 16.4958 115.485 16.2951 115.485C16.026 115.485 15.782 115.422 15.5631 115.296C15.3458 115.168 15.1725 114.978 15.0432 114.726C14.9156 114.472 14.8517 114.154 14.8517 113.773C14.8517 113.388 14.9156 113.063 15.0432 112.799C15.1725 112.533 15.3465 112.331 15.5654 112.195C15.7843 112.056 16.0283 111.987 16.2974 111.987C16.5026 111.987 16.6713 112.022 16.8036 112.092C16.9374 112.16 17.0438 112.243 17.1228 112.341C17.2019 112.436 17.2619 112.527 17.303 112.612H17.3486V112.033H18.1626V115.592C18.1626 115.892 18.0912 116.139 17.9483 116.336C17.8054 116.532 17.61 116.678 17.3622 116.776C17.1145 116.873 16.8332 116.922 16.5186 116.922ZM16.5254 114.837C16.7002 114.837 16.8492 114.795 16.9723 114.71C17.0955 114.625 17.1889 114.502 17.2528 114.343C17.3166 114.183 17.3486 113.991 17.3486 113.768C17.3486 113.548 17.3166 113.354 17.2528 113.189C17.1905 113.023 17.0977 112.895 16.9746 112.803C16.853 112.711 16.7033 112.664 16.5254 112.664C16.3415 112.664 16.1879 112.712 16.0648 112.808C15.9417 112.904 15.8489 113.035 15.7866 113.202C15.7243 113.368 15.6931 113.557 15.6931 113.768C15.6931 113.982 15.7243 114.17 15.7866 114.331C15.8505 114.491 15.9439 114.615 16.0671 114.705C16.1917 114.793 16.3445 114.837 16.5254 114.837ZM20.5591 115.604C20.208 115.604 19.9047 115.531 19.6493 115.385C19.3955 115.237 19.2001 115.029 19.0633 114.76C18.9265 114.489 18.8581 114.171 18.8581 113.804C18.8581 113.444 18.9265 113.128 19.0633 112.856C19.2016 112.582 19.3947 112.369 19.6425 112.217C19.8903 112.064 20.1814 111.987 20.5158 111.987C20.7317 111.987 20.9354 112.022 21.1269 112.092C21.32 112.16 21.4902 112.267 21.6377 112.411C21.7867 112.556 21.9037 112.74 21.9888 112.963C22.074 113.185 22.1165 113.45 22.1165 113.757V114.01H19.2457V113.453H21.3253C21.3238 113.295 21.2896 113.155 21.2227 113.031C21.1558 112.907 21.0623 112.809 20.9422 112.737C20.8236 112.666 20.6853 112.63 20.5272 112.63C20.3585 112.63 20.2103 112.671 20.0826 112.753C19.9549 112.834 19.8553 112.94 19.7839 113.073C19.7139 113.203 19.6782 113.347 19.6767 113.503V113.989C19.6767 114.193 19.7139 114.368 19.7884 114.514C19.8629 114.658 19.967 114.769 20.1008 114.847C20.2346 114.923 20.3912 114.961 20.5705 114.961C20.6906 114.961 20.7993 114.944 20.8966 114.91C20.9939 114.875 21.0783 114.824 21.1497 114.758C21.2212 114.691 21.2751 114.608 21.3116 114.509L22.0823 114.596C22.0337 114.799 21.941 114.977 21.8041 115.129C21.6688 115.28 21.4956 115.397 21.2842 115.48C21.0729 115.563 20.8312 115.604 20.5591 115.604ZM25.2901 110.865V115.535H24.4441V110.865H25.2901ZM26.1697 115.535V112.033H26.9586V112.628H26.9997C27.0726 112.427 27.1935 112.271 27.3622 112.158C27.531 112.044 27.7324 111.987 27.9665 111.987C28.2036 111.987 28.4035 112.045 28.5662 112.16C28.7304 112.274 28.8459 112.43 28.9128 112.628H28.9493C29.0268 112.433 29.1575 112.278 29.3415 112.163C29.5269 112.046 29.7466 111.987 30.0004 111.987C30.3227 111.987 30.5857 112.089 30.7894 112.293C30.9931 112.496 31.095 112.794 31.095 113.184V115.535H30.2672V113.312C30.2672 113.095 30.2095 112.936 30.0939 112.835C29.9784 112.734 29.837 112.683 29.6698 112.683C29.4707 112.683 29.3149 112.745 29.2024 112.87C29.0914 112.993 29.0359 113.153 29.0359 113.351V115.535H28.2264V113.278C28.2264 113.097 28.1717 112.952 28.0622 112.844C27.9543 112.737 27.8129 112.683 27.6381 112.683C27.5195 112.683 27.4116 112.713 27.3143 112.774C27.217 112.833 27.1395 112.917 27.0817 113.027C27.024 113.135 26.9951 113.261 26.9951 113.405V115.535H26.1697ZM32.9402 115.606C32.7183 115.606 32.5184 115.566 32.3405 115.487C32.1642 115.407 32.0243 115.288 31.921 115.132C31.8191 114.975 31.7682 114.782 31.7682 114.552C31.7682 114.355 31.8047 114.191 31.8776 114.062C31.9506 113.933 32.0502 113.83 32.1764 113.752C32.3025 113.674 32.4447 113.616 32.6028 113.576C32.7624 113.535 32.9273 113.506 33.0976 113.488C33.3028 113.466 33.4693 113.447 33.5969 113.431C33.7246 113.412 33.8174 113.385 33.8751 113.348C33.9344 113.31 33.9641 113.252 33.9641 113.173V113.159C33.9641 112.987 33.9131 112.854 33.8113 112.76C33.7094 112.666 33.5627 112.619 33.3712 112.619C33.169 112.619 33.0086 112.663 32.8901 112.751C32.773 112.839 32.694 112.943 32.6529 113.063L31.8822 112.954C31.943 112.741 32.0433 112.563 32.1832 112.42C32.3231 112.276 32.4941 112.168 32.6963 112.097C32.8984 112.024 33.1219 111.987 33.3666 111.987C33.5354 111.987 33.7034 112.007 33.8706 112.046C34.0378 112.086 34.1906 112.151 34.3289 112.242C34.4672 112.332 34.5782 112.455 34.6618 112.61C34.7469 112.765 34.7895 112.958 34.7895 113.191V115.535H33.996V115.054H33.9686C33.9185 115.151 33.8478 115.243 33.7566 115.328C33.6669 115.411 33.5536 115.479 33.4168 115.531C33.2815 115.581 33.1227 115.606 32.9402 115.606ZM33.1546 114.999C33.3203 114.999 33.4639 114.967 33.5855 114.901C33.7072 114.834 33.8006 114.746 33.866 114.637C33.9329 114.527 33.9663 114.408 33.9663 114.279V113.866C33.9405 113.887 33.8964 113.907 33.8341 113.925C33.7733 113.944 33.7049 113.96 33.6289 113.973C33.5529 113.987 33.4776 113.999 33.4031 114.01C33.3286 114.02 33.264 114.029 33.2093 114.037C33.0862 114.054 32.976 114.081 32.8787 114.119C32.7814 114.157 32.7046 114.21 32.6484 114.279C32.5921 114.346 32.564 114.432 32.564 114.539C32.564 114.691 32.6195 114.805 32.7305 114.883C32.8414 114.961 32.9828 114.999 33.1546 114.999ZM37.1427 116.922C36.8463 116.922 36.5917 116.881 36.3788 116.801C36.166 116.722 35.995 116.615 35.8658 116.481C35.7366 116.348 35.6469 116.199 35.5967 116.037L36.3401 115.857C36.3735 115.925 36.4222 115.993 36.486 116.06C36.5498 116.128 36.6357 116.184 36.7437 116.228C36.8531 116.274 36.9907 116.297 37.1564 116.297C37.3905 116.297 37.5843 116.24 37.7378 116.126C37.8914 116.013 37.9682 115.828 37.9682 115.569V114.906H37.9271C37.8845 114.991 37.8222 115.078 37.7401 115.168C37.6596 115.258 37.5524 115.333 37.4186 115.394C37.2864 115.455 37.1199 115.485 36.9192 115.485C36.6502 115.485 36.4062 115.422 36.1873 115.296C35.9699 115.168 35.7966 114.978 35.6674 114.726C35.5397 114.472 35.4759 114.154 35.4759 113.773C35.4759 113.388 35.5397 113.063 35.6674 112.799C35.7966 112.533 35.9707 112.331 36.1896 112.195C36.4085 112.056 36.6525 111.987 36.9215 111.987C37.1267 111.987 37.2955 112.022 37.4277 112.092C37.5615 112.16 37.6679 112.243 37.747 112.341C37.826 112.436 37.8861 112.527 37.9271 112.612H37.9727V112.033H38.7868V115.592C38.7868 115.892 38.7153 116.139 38.5724 116.336C38.4295 116.532 38.2342 116.678 37.9864 116.776C37.7386 116.873 37.4574 116.922 37.1427 116.922ZM37.1495 114.837C37.3244 114.837 37.4733 114.795 37.5965 114.71C37.7196 114.625 37.8131 114.502 37.8769 114.343C37.9408 114.183 37.9727 113.991 37.9727 113.768C37.9727 113.548 37.9408 113.354 37.8769 113.189C37.8146 113.023 37.7219 112.895 37.5988 112.803C37.4771 112.711 37.3274 112.664 37.1495 112.664C36.9656 112.664 36.8121 112.712 36.6889 112.808C36.5658 112.904 36.4731 113.035 36.4108 113.202C36.3484 113.368 36.3173 113.557 36.3173 113.768C36.3173 113.982 36.3484 114.17 36.4108 114.331C36.4746 114.491 36.5681 114.615 36.6912 114.705C36.8159 114.793 36.9686 114.837 37.1495 114.837ZM41.1833 115.604C40.8321 115.604 40.5289 115.531 40.2735 115.385C40.0196 115.237 39.8243 115.029 39.6874 114.76C39.5506 114.489 39.4822 114.171 39.4822 113.804C39.4822 113.444 39.5506 113.128 39.6874 112.856C39.8258 112.582 40.0188 112.369 40.2666 112.217C40.5144 112.064 40.8055 111.987 41.14 111.987C41.3558 111.987 41.5595 112.022 41.7511 112.092C41.9441 112.16 42.1144 112.267 42.2618 112.411C42.4108 112.556 42.5279 112.74 42.613 112.963C42.6981 113.185 42.7407 113.45 42.7407 113.757V114.01H39.8699V113.453H41.9494C41.9479 113.295 41.9137 113.155 41.8468 113.031C41.7799 112.907 41.6865 112.809 41.5664 112.737C41.4478 112.666 41.3095 112.63 41.1514 112.63C40.9826 112.63 40.8344 112.671 40.7067 112.753C40.579 112.834 40.4794 112.94 40.408 113.073C40.3381 113.203 40.3024 113.347 40.3008 113.503V113.989C40.3008 114.193 40.3381 114.368 40.4126 114.514C40.4871 114.658 40.5912 114.769 40.725 114.847C40.8587 114.923 41.0153 114.961 41.1947 114.961C41.3148 114.961 41.4235 114.944 41.5208 114.91C41.618 114.875 41.7024 114.824 41.7739 114.758C41.8453 114.691 41.8993 114.608 41.9358 114.509L42.7065 114.596C42.6578 114.799 42.5651 114.977 42.4283 115.129C42.293 115.28 42.1197 115.397 41.9084 115.48C41.6971 115.563 41.4554 115.604 41.1833 115.604Z" fill="white"/>
<rect width="112.37" height="12.8423" transform="translate(6.81445 122.352)" fill="#3E4652"/>
<path d="M50.1726 128.267H49.9047C49.8847 128.167 49.8486 128.075 49.7964 127.99C49.7451 127.905 49.6804 127.83 49.6025 127.767C49.5246 127.703 49.4363 127.654 49.3375 127.618C49.2387 127.583 49.1318 127.566 49.0168 127.566C48.8325 127.566 48.6643 127.614 48.5123 127.71C48.3612 127.806 48.2401 127.947 48.1489 128.133C48.0586 128.318 48.0135 128.545 48.0135 128.814C48.0135 129.085 48.0586 129.313 48.1489 129.498C48.2401 129.683 48.3612 129.824 48.5123 129.92C48.6643 130.015 48.8325 130.063 49.0168 130.063C49.1318 130.063 49.2387 130.045 49.3375 130.01C49.4363 129.975 49.5246 129.926 49.6025 129.863C49.6804 129.799 49.7451 129.725 49.7964 129.639C49.8486 129.554 49.8847 129.461 49.9047 129.361H50.1726C50.1488 129.495 50.1042 129.62 50.0386 129.736C49.974 129.851 49.8914 129.952 49.7907 130.038C49.6909 130.125 49.5759 130.192 49.4458 130.241C49.3156 130.289 49.1726 130.313 49.0168 130.313C48.7717 130.313 48.5541 130.252 48.3641 130.129C48.1741 130.006 48.0249 129.832 47.9166 129.608C47.8092 129.384 47.7555 129.119 47.7555 128.814C47.7555 128.509 47.8092 128.245 47.9166 128.02C48.0249 127.796 48.1741 127.623 48.3641 127.5C48.5541 127.377 48.7717 127.315 49.0168 127.315C49.1726 127.315 49.3156 127.339 49.4458 127.388C49.5759 127.435 49.6909 127.502 49.7907 127.59C49.8914 127.676 49.974 127.777 50.0386 127.892C50.1042 128.007 50.1488 128.132 50.1726 128.267ZM50.8387 130.273V127.355H51.1052V128.693H52.7612V127.355H53.0278V130.273H52.7612V128.932H51.1052V130.273H50.8387ZM56.2346 128.814C56.2346 129.118 56.1804 129.383 56.0721 129.608C55.9638 129.832 55.8146 130.006 55.6246 130.129C55.4355 130.252 55.218 130.313 54.9719 130.313C54.7258 130.313 54.5078 130.252 54.3177 130.129C54.1287 130.006 53.98 129.832 53.8717 129.608C53.7643 129.383 53.7106 129.118 53.7106 128.814C53.7106 128.51 53.7643 128.246 53.8717 128.022C53.98 127.797 54.1291 127.623 54.3192 127.5C54.5092 127.377 54.7268 127.315 54.9719 127.315C55.218 127.315 55.4355 127.377 55.6246 127.5C55.8146 127.623 55.9638 127.797 56.0721 128.022C56.1804 128.246 56.2346 128.51 56.2346 128.814ZM55.9752 128.814C55.9752 128.553 55.9315 128.329 55.8441 128.143C55.7567 127.956 55.6374 127.813 55.4864 127.714C55.3353 127.615 55.1638 127.566 54.9719 127.566C54.7809 127.566 54.6099 127.615 54.4588 127.714C54.3078 127.813 54.188 127.955 54.0997 128.141C54.0123 128.328 53.9686 128.552 53.9686 128.814C53.9686 129.075 54.0123 129.299 54.0997 129.485C54.1871 129.672 54.3063 129.815 54.4574 129.914C54.6085 130.013 54.78 130.063 54.9719 130.063C55.1638 130.063 55.3353 130.013 55.4864 129.914C55.6384 129.815 55.7581 129.673 55.8455 129.487C55.9329 129.3 55.9761 129.075 55.9752 128.814ZM59.312 128.814C59.312 129.118 59.2579 129.383 59.1496 129.608C59.0413 129.832 58.8921 130.006 58.7021 130.129C58.513 130.252 58.2954 130.313 58.0494 130.313C57.8033 130.313 57.5852 130.252 57.3952 130.129C57.2061 130.006 57.0575 129.832 56.9491 129.608C56.8418 129.383 56.7881 129.118 56.7881 128.814C56.7881 128.51 56.8418 128.246 56.9491 128.022C57.0575 127.797 57.2066 127.623 57.3966 127.5C57.5867 127.377 57.8042 127.315 58.0494 127.315C58.2954 127.315 58.513 127.377 58.7021 127.5C58.8921 127.623 59.0413 127.797 59.1496 128.022C59.2579 128.246 59.312 128.51 59.312 128.814ZM59.0527 128.814C59.0527 128.553 59.009 128.329 58.9215 128.143C58.8341 127.956 58.7149 127.813 58.5638 127.714C58.4128 127.615 58.2413 127.566 58.0494 127.566C57.8584 127.566 57.6874 127.615 57.5363 127.714C57.3852 127.813 57.2655 127.955 57.1772 128.141C57.0898 128.328 57.046 128.552 57.046 128.814C57.046 129.075 57.0898 129.299 57.1772 129.485C57.2646 129.672 57.3838 129.815 57.5349 129.914C57.6859 130.013 57.8574 130.063 58.0494 130.063C58.2413 130.063 58.4128 130.013 58.5638 129.914C58.7158 129.815 58.8356 129.673 58.923 129.487C59.0104 129.3 59.0536 129.075 59.0527 128.814ZM61.5814 128.084C61.5653 127.922 61.4936 127.793 61.3663 127.697C61.2389 127.601 61.0788 127.553 60.886 127.553C60.7501 127.553 60.6304 127.576 60.5268 127.623C60.4242 127.669 60.3435 127.734 60.2846 127.816C60.2266 127.898 60.1976 127.991 60.1976 128.096C60.1976 128.173 60.2143 128.24 60.2475 128.298C60.2808 128.356 60.3254 128.406 60.3815 128.448C60.4385 128.489 60.5012 128.524 60.5696 128.553C60.639 128.583 60.7088 128.607 60.7791 128.627L61.0869 128.716C61.18 128.741 61.2731 128.774 61.3663 128.814C61.4594 128.854 61.5444 128.904 61.6214 128.965C61.6993 129.025 61.7615 129.099 61.808 129.186C61.8556 129.273 61.8793 129.377 61.8793 129.498C61.8793 129.654 61.8389 129.794 61.7582 129.919C61.6774 130.043 61.5615 130.142 61.4104 130.215C61.2594 130.287 61.0784 130.323 60.8675 130.323C60.6689 130.323 60.4964 130.291 60.3501 130.225C60.2038 130.158 60.0888 130.067 60.0052 129.95C59.9216 129.833 59.8746 129.698 59.8641 129.544H60.1378C60.1473 129.659 60.1853 129.756 60.2518 129.836C60.3183 129.916 60.4048 129.977 60.5112 130.018C60.6176 130.059 60.7363 130.08 60.8675 130.08C61.0128 130.08 61.142 130.055 61.2551 130.007C61.3691 129.958 61.4584 129.889 61.523 129.802C61.5886 129.713 61.6214 129.611 61.6214 129.494C61.6214 129.395 61.5957 129.312 61.5444 129.246C61.4931 129.178 61.4214 129.122 61.3292 129.076C61.238 129.031 61.1321 128.99 61.0114 128.955L60.6622 128.853C60.4333 128.784 60.2556 128.69 60.1292 128.569C60.0029 128.448 59.9397 128.294 59.9397 128.107C59.9397 127.95 59.9815 127.813 60.0651 127.694C60.1497 127.574 60.2637 127.481 60.4071 127.415C60.5515 127.347 60.7135 127.313 60.8931 127.313C61.0746 127.313 61.2351 127.347 61.3748 127.413C61.5145 127.48 61.6252 127.571 61.7069 127.688C61.7895 127.804 61.8337 127.936 61.8394 128.084H61.5814ZM62.5608 130.273V127.355H64.2538V127.594H62.8273V128.693H64.164V128.932H62.8273V130.034H64.2823V130.273H62.5608ZM66.1569 130.273H65.8775L66.9393 127.355H67.2243L68.286 130.273H68.0067L67.0917 127.701H67.0718L66.1569 130.273ZM66.3578 129.155H67.8057V129.394H66.3578V129.155ZM69.9952 130.273V127.355H71.684V127.594H70.2617V128.693H71.5515V128.932H70.2617V130.273H69.9952ZM72.6534 127.355V130.273H72.3869V127.355H72.6534ZM73.4695 130.273V127.355H73.736V130.034H75.1269V130.273H73.4695ZM75.767 130.273V127.355H77.4601V127.594H76.0335V128.693H77.3703V128.932H76.0335V130.034H77.4886V130.273H75.767Z" fill="white"/>
<path d="M7.27506 147.613V142.943H10.2667V143.653H8.12103V144.92H10.0615V145.629H8.12103V147.613H7.27506ZM12.2716 147.682C11.9296 147.682 11.6332 147.606 11.3823 147.456C11.1315 147.305 10.9369 147.095 10.7986 146.824C10.6618 146.554 10.5934 146.238 10.5934 145.876C10.5934 145.514 10.6618 145.197 10.7986 144.925C10.9369 144.653 11.1315 144.441 11.3823 144.291C11.6332 144.14 11.9296 144.065 12.2716 144.065C12.6137 144.065 12.9101 144.14 13.1609 144.291C13.4117 144.441 13.6056 144.653 13.7424 144.925C13.8807 145.197 13.9499 145.514 13.9499 145.876C13.9499 146.238 13.8807 146.554 13.7424 146.824C13.6056 147.095 13.4117 147.305 13.1609 147.456C12.9101 147.606 12.6137 147.682 12.2716 147.682ZM12.2762 147.02C12.4616 147.02 12.6167 146.969 12.7414 146.868C12.866 146.764 12.9587 146.626 13.0195 146.453C13.0819 146.279 13.113 146.086 13.113 145.873C13.113 145.659 13.0819 145.465 13.0195 145.292C12.9587 145.117 12.866 144.978 12.7414 144.875C12.6167 144.771 12.4616 144.72 12.2762 144.72C12.0862 144.72 11.9281 144.771 11.8019 144.875C11.6772 144.978 11.5838 145.117 11.5214 145.292C11.4606 145.465 11.4302 145.659 11.4302 145.873C11.4302 146.086 11.4606 146.279 11.5214 146.453C11.5838 146.626 11.6772 146.764 11.8019 146.868C11.9281 146.969 12.0862 147.02 12.2762 147.02ZM14.6505 147.613V144.111H15.4508V144.695H15.4873C15.5512 144.492 15.6606 144.337 15.8157 144.227C15.9723 144.116 16.1509 144.061 16.3515 144.061C16.3971 144.061 16.4481 144.063 16.5043 144.068C16.5621 144.071 16.61 144.076 16.648 144.083V144.843C16.613 144.831 16.5575 144.82 16.4815 144.811C16.407 144.8 16.3348 144.795 16.2649 144.795C16.1144 144.795 15.9791 144.828 15.859 144.893C15.7404 144.957 15.6469 145.046 15.5785 145.16C15.5101 145.274 15.4759 145.405 15.4759 145.554V147.613H14.6505ZM17.1964 147.613V144.111H17.9853V144.706H18.0264C18.0993 144.505 18.2202 144.349 18.3889 144.236C18.5577 144.122 18.7591 144.065 18.9932 144.065C19.2303 144.065 19.4302 144.123 19.5929 144.239C19.7571 144.353 19.8726 144.508 19.9395 144.706H19.976C20.0535 144.511 20.1842 144.356 20.3682 144.241C20.5536 144.124 20.7733 144.065 21.0272 144.065C21.3494 144.065 21.6124 144.167 21.8161 144.371C22.0198 144.574 22.1217 144.872 22.1217 145.262V147.613H21.2939V145.39C21.2939 145.173 21.2362 145.014 21.1206 144.913C21.0051 144.812 20.8637 144.761 20.6965 144.761C20.4974 144.761 20.3416 144.823 20.2291 144.948C20.1181 145.071 20.0626 145.231 20.0626 145.429V147.613H19.2531V145.356C19.2531 145.175 19.1984 145.031 19.089 144.923C18.981 144.815 18.8396 144.761 18.6648 144.761C18.5463 144.761 18.4383 144.791 18.341 144.852C18.2437 144.911 18.1662 144.996 18.1085 145.105C18.0507 145.213 18.0218 145.339 18.0218 145.484V147.613H17.1964ZM28.5856 144.519H27.7328C27.7084 144.379 27.6636 144.255 27.5982 144.147C27.5329 144.038 27.4515 143.945 27.3542 143.869C27.2569 143.793 27.146 143.736 27.0213 143.698C26.8982 143.659 26.7652 143.639 26.6223 143.639C26.3684 143.639 26.1434 143.703 25.9473 143.83C25.7512 143.957 25.5977 144.142 25.4867 144.387C25.3757 144.63 25.3203 144.927 25.3203 145.278C25.3203 145.636 25.3757 145.937 25.4867 146.181C25.5992 146.425 25.7527 146.608 25.9473 146.733C26.1434 146.856 26.3677 146.918 26.62 146.918C26.7599 146.918 26.8906 146.9 27.0122 146.863C27.1353 146.825 27.2455 146.77 27.3428 146.697C27.4416 146.624 27.5245 146.534 27.5914 146.428C27.6598 146.321 27.7069 146.2 27.7328 146.063L28.5856 146.067C28.5536 146.289 28.4845 146.497 28.3781 146.692C28.2732 146.887 28.1356 147.058 27.9653 147.207C27.7951 147.355 27.5959 147.47 27.3679 147.554C27.1399 147.636 26.8868 147.677 26.6086 147.677C26.1982 147.677 25.8318 147.582 25.5095 147.392C25.1872 147.202 24.9334 146.928 24.7479 146.569C24.5625 146.21 24.4697 145.78 24.4697 145.278C24.4697 144.775 24.5632 144.345 24.7502 143.988C24.9372 143.629 25.1918 143.355 25.5141 143.165C25.8364 142.975 26.2012 142.88 26.6086 142.88C26.8685 142.88 27.1102 142.916 27.3337 142.989C27.5572 143.062 27.7563 143.169 27.9311 143.31C28.1059 143.45 28.2496 143.622 28.3621 143.826C28.4761 144.028 28.5506 144.259 28.5856 144.519ZM30.8515 147.682C30.5095 147.682 30.2131 147.606 29.9622 147.456C29.7114 147.305 29.5168 147.095 29.3785 146.824C29.2417 146.554 29.1733 146.238 29.1733 145.876C29.1733 145.514 29.2417 145.197 29.3785 144.925C29.5168 144.653 29.7114 144.441 29.9622 144.291C30.2131 144.14 30.5095 144.065 30.8515 144.065C31.1936 144.065 31.49 144.14 31.7408 144.291C31.9917 144.441 32.1855 144.653 32.3223 144.925C32.4606 145.197 32.5298 145.514 32.5298 145.876C32.5298 146.238 32.4606 146.554 32.3223 146.824C32.1855 147.095 31.9917 147.305 31.7408 147.456C31.49 147.606 31.1936 147.682 30.8515 147.682ZM30.8561 147.02C31.0416 147.02 31.1966 146.969 31.3213 146.868C31.4459 146.764 31.5387 146.626 31.5995 146.453C31.6618 146.279 31.6929 146.086 31.6929 145.873C31.6929 145.659 31.6618 145.465 31.5995 145.292C31.5387 145.117 31.4459 144.978 31.3213 144.875C31.1966 144.771 31.0416 144.72 30.8561 144.72C30.6661 144.72 30.508 144.771 30.3818 144.875C30.2572 144.978 30.1637 145.117 30.1013 145.292C30.0405 145.465 30.0101 145.659 30.0101 145.873C30.0101 146.086 30.0405 146.279 30.1013 146.453C30.1637 146.626 30.2572 146.764 30.3818 146.868C30.508 146.969 30.6661 147.02 30.8561 147.02ZM34.0558 142.943V147.613H33.2304V142.943H34.0558ZM36.4324 147.682C36.0904 147.682 35.7939 147.606 35.5431 147.456C35.2923 147.305 35.0977 147.095 34.9594 146.824C34.8226 146.554 34.7542 146.238 34.7542 145.876C34.7542 145.514 34.8226 145.197 34.9594 144.925C35.0977 144.653 35.2923 144.441 35.5431 144.291C35.7939 144.14 36.0904 144.065 36.4324 144.065C36.7744 144.065 37.0709 144.14 37.3217 144.291C37.5725 144.441 37.7664 144.653 37.9032 144.925C38.0415 145.197 38.1107 145.514 38.1107 145.876C38.1107 146.238 38.0415 146.554 37.9032 146.824C37.7664 147.095 37.5725 147.305 37.3217 147.456C37.0709 147.606 36.7744 147.682 36.4324 147.682ZM36.437 147.02C36.6224 147.02 36.7775 146.969 36.9021 146.868C37.0268 146.764 37.1195 146.626 37.1803 146.453C37.2427 146.279 37.2738 146.086 37.2738 145.873C37.2738 145.659 37.2427 145.465 37.1803 145.292C37.1195 145.117 37.0268 144.978 36.9021 144.875C36.7775 144.771 36.6224 144.72 36.437 144.72C36.247 144.72 36.0889 144.771 35.9627 144.875C35.838 144.978 35.7445 145.117 35.6822 145.292C35.6214 145.465 35.591 145.659 35.591 145.873C35.591 146.086 35.6214 146.279 35.6822 146.453C35.7445 146.626 35.838 146.764 35.9627 146.868C36.0889 146.969 36.247 147.02 36.437 147.02ZM38.8113 147.613V144.111H39.6116V144.695H39.6481C39.712 144.492 39.8214 144.337 39.9765 144.227C40.133 144.116 40.3117 144.061 40.5123 144.061C40.5579 144.061 40.6089 144.063 40.6651 144.068C40.7229 144.071 40.7707 144.076 40.8088 144.083V144.843C40.7738 144.831 40.7183 144.82 40.6423 144.811C40.5678 144.8 40.4956 144.795 40.4257 144.795C40.2752 144.795 40.1399 144.828 40.0198 144.893C39.9012 144.957 39.8077 145.046 39.7393 145.16C39.6709 145.274 39.6367 145.405 39.6367 145.554V147.613H38.8113Z" fill="white"/>
<rect width="99.5277" height="12.8423" transform="translate(6.81445 154.43)" fill="#3E4652"/>
<path d="M106.342 154.43H118.381C118.825 154.43 119.184 154.789 119.184 155.232V166.469C119.184 166.913 118.825 167.272 118.381 167.272H106.342V154.43Z" fill="#F0FCFF"/>
<rect x="80.3457" y="176.902" width="38.8389" height="16.2258" rx="1.16129" fill="#78BB07"/>
<path d="M94.1389 183.705C94.115 183.481 94.0141 183.307 93.8361 183.182C93.6599 183.057 93.4307 182.994 93.1485 182.994C92.95 182.994 92.7798 183.024 92.6378 183.084C92.4958 183.144 92.3872 183.225 92.3119 183.328C92.2367 183.431 92.1982 183.548 92.1965 183.679C92.1965 183.789 92.2213 183.884 92.2709 183.964C92.3222 184.045 92.3915 184.113 92.4787 184.17C92.566 184.224 92.6626 184.27 92.7687 184.308C92.8747 184.346 92.9817 184.377 93.0894 184.403L93.5821 184.526C93.7805 184.572 93.9713 184.635 94.1543 184.714C94.3391 184.792 94.5042 184.891 94.6496 185.011C94.7967 185.131 94.913 185.276 94.9985 185.445C95.0841 185.614 95.1268 185.813 95.1268 186.04C95.1268 186.348 95.0481 186.619 94.8908 186.854C94.7334 187.086 94.5059 187.268 94.2082 187.4C93.9123 187.53 93.5539 187.595 93.1331 187.595C92.7242 187.595 92.3692 187.532 92.0682 187.405C91.7688 187.279 91.5344 187.094 91.3651 186.851C91.1974 186.608 91.1068 186.312 91.0931 185.963H92.0297C92.0434 186.146 92.0998 186.298 92.199 186.42C92.2983 186.541 92.4274 186.632 92.5865 186.692C92.7473 186.752 92.9269 186.782 93.1254 186.782C93.3324 186.782 93.5137 186.751 93.6694 186.689C93.8267 186.626 93.9499 186.539 94.0389 186.428C94.1278 186.315 94.1731 186.183 94.1749 186.032C94.1731 185.896 94.1329 185.783 94.0543 185.694C93.9756 185.603 93.8652 185.528 93.7232 185.468C93.583 185.406 93.4187 185.352 93.2306 185.304L92.6327 185.15C92.1999 185.039 91.8578 184.87 91.6063 184.644C91.3565 184.417 91.2317 184.115 91.2317 183.738C91.2317 183.429 91.3155 183.158 91.4831 182.925C91.6525 182.692 91.8826 182.512 92.1734 182.384C92.4642 182.254 92.7935 182.189 93.1613 182.189C93.5342 182.189 93.8609 182.254 94.1415 182.384C94.4238 182.512 94.6453 182.691 94.8061 182.92C94.9669 183.147 95.0499 183.409 95.055 183.705H94.1389ZM97.0687 187.595C96.8189 187.595 96.5939 187.551 96.3938 187.462C96.1954 187.371 96.038 187.238 95.9217 187.061C95.807 186.885 95.7497 186.668 95.7497 186.41C95.7497 186.187 95.7908 186.003 95.8729 185.858C95.955 185.713 96.0671 185.596 96.209 185.509C96.351 185.422 96.511 185.356 96.6889 185.311C96.8685 185.265 97.0541 185.232 97.2457 185.211C97.4766 185.187 97.664 185.166 97.8077 185.147C97.9514 185.127 98.0557 185.096 98.1207 185.055C98.1874 185.012 98.2208 184.946 98.2208 184.857V184.842C98.2208 184.649 98.1635 184.499 98.0489 184.393C97.9342 184.287 97.7692 184.234 97.5536 184.234C97.3261 184.234 97.1456 184.283 97.0122 184.383C96.8805 184.482 96.7915 184.599 96.7453 184.734L95.878 184.611C95.9465 184.371 96.0594 184.171 96.2167 184.01C96.3741 183.848 96.5666 183.727 96.7941 183.646C97.0216 183.564 97.2731 183.523 97.5485 183.523C97.7384 183.523 97.9274 183.545 98.1156 183.59C98.3037 183.634 98.4757 183.708 98.6313 183.81C98.787 183.911 98.9119 184.049 99.006 184.223C99.1018 184.398 99.1497 184.616 99.1497 184.878V187.516H98.2567V186.974H98.2259C98.1695 187.084 98.0899 187.186 97.9873 187.282C97.8863 187.376 97.7589 187.452 97.6049 187.51C97.4527 187.567 97.2739 187.595 97.0687 187.595ZM97.3099 186.913C97.4963 186.913 97.658 186.876 97.7948 186.802C97.9317 186.727 98.0369 186.628 98.1104 186.505C98.1857 186.381 98.2233 186.247 98.2233 186.102V185.637C98.1943 185.661 98.1447 185.684 98.0745 185.704C98.0061 185.725 97.9291 185.743 97.8436 185.758C97.758 185.773 97.6734 185.787 97.5895 185.799C97.5057 185.811 97.433 185.821 97.3714 185.83C97.2329 185.849 97.1089 185.879 96.9994 185.922C96.8899 185.965 96.8035 186.025 96.7402 186.102C96.6769 186.177 96.6453 186.275 96.6453 186.394C96.6453 186.565 96.7077 186.695 96.8326 186.782C96.9575 186.869 97.1165 186.913 97.3099 186.913ZM103.463 183.574L102.06 187.516H101.033L99.6295 183.574H100.62L101.526 186.502H101.567L102.475 183.574H103.463ZM105.717 187.593C105.322 187.593 104.98 187.51 104.693 187.346C104.407 187.18 104.187 186.946 104.033 186.643C103.879 186.339 103.802 185.98 103.802 185.568C103.802 185.163 103.879 184.807 104.033 184.501C104.189 184.193 104.406 183.953 104.685 183.782C104.964 183.609 105.292 183.523 105.668 183.523C105.911 183.523 106.14 183.562 106.356 183.641C106.573 183.718 106.764 183.838 106.93 184C107.098 184.163 107.23 184.37 107.326 184.621C107.421 184.871 107.469 185.169 107.469 185.514V185.799H104.239V185.173H106.579C106.577 184.995 106.539 184.837 106.463 184.698C106.388 184.558 106.283 184.448 106.148 184.367C106.014 184.287 105.859 184.247 105.681 184.247C105.491 184.247 105.324 184.293 105.18 184.385C105.037 184.476 104.925 184.596 104.844 184.744C104.766 184.891 104.725 185.053 104.724 185.229V185.776C104.724 186.005 104.766 186.202 104.849 186.366C104.933 186.529 105.05 186.653 105.201 186.741C105.351 186.826 105.528 186.869 105.73 186.869C105.865 186.869 105.987 186.85 106.096 186.813C106.206 186.773 106.301 186.716 106.381 186.641C106.462 186.565 106.522 186.472 106.563 186.361L107.431 186.458C107.376 186.688 107.272 186.888 107.118 187.059C106.965 187.228 106.77 187.36 106.533 187.454C106.295 187.546 106.023 187.593 105.717 187.593Z" fill="white"/>
</g>
<defs>
<clipPath id="clip0_5828_3727">
<rect x="0.393555" y="0.453125" width="125.212" height="199.096" rx="1.60528" fill="white"/>
</clipPath>
</defs>
</svg>
