<svg width="228" height="201" viewBox="0 0 228 201" fill="none" xmlns="http://www.w3.org/2000/svg">
<rect width="125.628" height="26.0804" transform="translate(0.433594)" fill="#3E4652"/>
<path d="M9.25024 16.0391V10.1916H12.6336V10.6713H9.78416V12.8727H12.3681V13.3523H9.78416V16.0391H9.25024ZM18.8356 13.1154C18.8356 13.7245 18.7271 14.2546 18.5101 14.7057C18.2931 15.1549 17.9942 15.5032 17.6135 15.7507C17.2347 15.9962 16.7989 16.119 16.3059 16.119C15.8129 16.119 15.376 15.9962 14.9953 15.7507C14.6165 15.5032 14.3187 15.1549 14.1017 14.7057C13.8866 14.2546 13.779 13.7245 13.779 13.1154C13.779 12.5062 13.8866 11.9771 14.1017 11.5279C14.3187 11.0768 14.6175 10.7284 14.9982 10.4829C15.3789 10.2354 15.8148 10.1117 16.3059 10.1117C16.7989 10.1117 17.2347 10.2354 17.6135 10.4829C17.9942 10.7284 18.2931 11.0768 18.5101 11.5279C18.7271 11.9771 18.8356 12.5062 18.8356 13.1154ZM18.3159 13.1154C18.3159 12.5919 18.2284 12.1436 18.0532 11.7706C17.8781 11.3956 17.6392 11.1091 17.3366 10.9111C17.0339 10.7132 16.6904 10.6142 16.3059 10.6142C15.9233 10.6142 15.5806 10.7132 15.278 10.9111C14.9753 11.1091 14.7355 11.3946 14.5585 11.7677C14.3834 12.1408 14.2958 12.59 14.2958 13.1154C14.2958 13.6388 14.3834 14.0871 14.5585 14.4601C14.7336 14.8332 14.9725 15.1197 15.2751 15.3196C15.5778 15.5175 15.9214 15.6165 16.3059 15.6165C16.6904 15.6165 17.0339 15.5175 17.3366 15.3196C17.6411 15.1216 17.881 14.8361 18.0561 14.463C18.2312 14.088 18.3178 13.6388 18.3159 13.1154ZM20.2072 16.0391V10.1916H22.0945C22.5094 10.1916 22.8559 10.2668 23.1338 10.4172C23.4136 10.5657 23.6239 10.7722 23.7648 11.0368C23.9075 11.2995 23.9789 11.6012 23.9789 11.9419C23.9789 12.2826 23.9075 12.5833 23.7648 12.8441C23.6239 13.1049 23.4145 13.3086 23.1366 13.4551C22.8587 13.6017 22.5142 13.675 22.1031 13.675H20.4956V13.1867H22.0888C22.3933 13.1867 22.6465 13.1363 22.8483 13.0354C23.0519 12.9345 23.2033 12.7908 23.3022 12.6043C23.4031 12.4177 23.4536 12.1969 23.4536 11.9419C23.4536 11.6868 23.4031 11.4641 23.3022 11.2738C23.2014 11.0815 23.0491 10.933 22.8454 10.8283C22.6436 10.7237 22.3886 10.6713 22.0802 10.6713H20.7411V16.0391H20.2072ZM22.7854 13.4009L24.2245 16.0391H23.6077L22.183 13.4009H22.7854ZM25.3599 10.1916H25.9766L28.098 15.2853H28.1494L30.2708 10.1916H30.8875V16.0391H30.385V11.3194H30.3393L28.3664 16.0391H27.881L25.908 11.3194H25.8624V16.0391H25.3599V10.1916ZM34.8643 16.0391V10.1916H38.2562V10.6713H35.3982V12.8727H38.0763V13.3523H35.3982V15.5594H38.3133V16.0391H34.8643ZM39.7185 16.0391V10.1916H40.2524V15.5594H43.0391V16.0391H39.7185ZM44.3215 16.0391V10.1916H47.7135V10.6713H44.8555V12.8727H47.5336V13.3523H44.8555V15.5594H47.7706V16.0391H44.3215ZM49.1758 10.1916H49.7925L51.9139 15.2853H51.9653L54.0867 10.1916H54.7034V16.0391H54.2009V11.3194H54.1553L52.1823 16.0391H51.6969L49.724 11.3194H49.6783V16.0391H49.1758V10.1916ZM56.3385 16.0391V10.1916H59.7305V10.6713H56.8724V12.8727H59.5506V13.3523H56.8724V15.5594H59.7876V16.0391H56.3385ZM65.7468 10.1916V16.0391H65.2271L61.7724 11.1424H61.7267V16.0391H61.1928V10.1916H61.7096L65.1758 15.094H65.2214V10.1916H65.7468ZM67.0278 10.6713V10.1916H71.2677V10.6713H69.4147V16.0391H68.8808V10.6713H67.0278ZM75.7251 11.6535C75.6928 11.328 75.5491 11.0691 75.294 10.8769C75.039 10.6846 74.7182 10.5885 74.3318 10.5885C74.0596 10.5885 73.8198 10.6351 73.6123 10.7284C73.4067 10.8217 73.2449 10.9511 73.1269 11.1167C73.0108 11.2804 72.9528 11.467 72.9528 11.6763C72.9528 11.8305 72.9861 11.9657 73.0527 12.0818C73.1193 12.1979 73.2088 12.2978 73.3211 12.3816C73.4353 12.4634 73.5609 12.5338 73.698 12.5929C73.8369 12.6519 73.9768 12.7014 74.1177 12.7413L74.7344 12.9183C74.9209 12.9697 75.1075 13.0354 75.294 13.1154C75.4806 13.1953 75.6509 13.2962 75.8051 13.418C75.9612 13.5379 76.0859 13.6854 76.1791 13.8606C76.2743 14.0338 76.3219 14.2422 76.3219 14.4858C76.3219 14.798 76.241 15.0788 76.0792 15.3281C75.9174 15.5775 75.6852 15.7754 75.3825 15.922C75.0799 16.0667 74.7173 16.139 74.2947 16.139C73.8969 16.139 73.5514 16.0733 73.2583 15.942C72.9651 15.8087 72.7348 15.6251 72.5673 15.3909C72.3998 15.1568 72.3056 14.8856 72.2846 14.5772H72.8328C72.8519 14.8075 72.928 15.0026 73.0613 15.1625C73.1945 15.3224 73.3677 15.4442 73.5809 15.528C73.7941 15.6098 74.032 15.6508 74.2947 15.6508C74.5859 15.6508 74.8448 15.6022 75.0713 15.5051C75.2997 15.4062 75.4786 15.2691 75.6081 15.094C75.7394 14.917 75.8051 14.7114 75.8051 14.4773C75.8051 14.2793 75.7537 14.1137 75.6509 13.9805C75.5481 13.8453 75.4044 13.7321 75.2198 13.6407C75.037 13.5493 74.8248 13.4684 74.5831 13.398L73.8836 13.1924C73.4248 13.0554 73.0689 12.866 72.8157 12.6243C72.5626 12.3825 72.436 12.0742 72.436 11.6992C72.436 11.3851 72.5197 11.1091 72.6872 10.8712C72.8566 10.6313 73.0851 10.4448 73.3725 10.3116C73.6618 10.1764 73.9863 10.1088 74.3461 10.1088C74.7097 10.1088 75.0313 10.1755 75.3111 10.3087C75.591 10.4419 75.8127 10.6256 75.9764 10.8598C76.142 11.092 76.2305 11.3566 76.2419 11.6535H75.7251Z" fill="white"/>
<rect width="125.628" height="26.1307" transform="translate(0.433594 26.082)" fill="#545F6F"/>
<g clip-path="url(#clip0_5828_3763)">
<path d="M17.267 36.0024V42.2838H17.8951C17.9784 42.2838 18.0583 42.3169 18.1172 42.3758C18.1761 42.4347 18.2092 42.5146 18.2092 42.5979V43.226C18.2092 43.3093 18.1761 43.3892 18.1172 43.4481C18.0583 43.507 17.9784 43.5401 17.8951 43.5401H14.7544C14.6711 43.5401 14.5913 43.507 14.5324 43.4481C14.4735 43.3892 14.4404 43.3093 14.4404 43.226V42.5979C14.4404 42.5146 14.4735 42.4347 14.5324 42.3758C14.5913 42.3169 14.6711 42.2838 14.7544 42.2838H15.3826V39.7712H11.6137V42.2838H12.2419C12.3252 42.2838 12.4051 42.3169 12.464 42.3758C12.5229 42.4347 12.556 42.5146 12.556 42.5979V43.226C12.556 43.3093 12.5229 43.3892 12.464 43.4481C12.4051 43.507 12.3252 43.5401 12.2419 43.5401H9.10118C9.01788 43.5401 8.938 43.507 8.8791 43.4481C8.8202 43.3892 8.78711 43.3093 8.78711 43.226V42.5979C8.78711 42.5146 8.8202 42.4347 8.8791 42.3758C8.938 42.3169 9.01788 42.2838 9.10118 42.2838H9.72932V36.0024H9.10118C9.01788 36.0024 8.938 35.9693 8.8791 35.9104C8.8202 35.8515 8.78711 35.7716 8.78711 35.6883V35.0602C8.78711 34.9769 8.8202 34.897 8.8791 34.8381C8.938 34.7792 9.01788 34.7461 9.10118 34.7461H12.2419C12.3252 34.7461 12.4051 34.7792 12.464 34.8381C12.5229 34.897 12.556 34.9769 12.556 35.0602V35.6883C12.556 35.7716 12.5229 35.8515 12.464 35.9104C12.4051 35.9693 12.3252 36.0024 12.2419 36.0024H11.6137V38.5149H15.3826V36.0024H14.7544C14.6711 36.0024 14.5913 35.9693 14.5324 35.9104C14.4735 35.8515 14.4404 35.7716 14.4404 35.6883V35.0602C14.4404 34.9769 14.4735 34.897 14.5324 34.8381C14.5913 34.7792 14.6711 34.7461 14.7544 34.7461H17.8951C17.9784 34.7461 18.0583 34.7792 18.1172 34.8381C18.1761 34.897 18.2092 34.9769 18.2092 35.0602V35.6883C18.2092 35.7716 18.1761 35.8515 18.1172 35.9104C18.0583 35.9693 17.9784 36.0024 17.8951 36.0024H17.267Z" fill="#FAFAFA"/>
</g>
<path d="M31.2921 42.1484V36.301H32.0002V38.9049H35.118V36.301H35.8261V42.1484H35.118V39.5331H32.0002V42.1484H31.2921ZM38.9911 42.2398C38.5685 42.2398 38.204 42.1465 37.8975 41.96C37.593 41.7716 37.3579 41.5089 37.1923 41.172C37.0286 40.8331 36.9468 40.4391 36.9468 39.9899C36.9468 39.5407 37.0286 39.1448 37.1923 38.8022C37.3579 38.4576 37.5882 38.1892 37.8833 37.997C38.1802 37.8028 38.5266 37.7058 38.9226 37.7058C39.151 37.7058 39.3765 37.7438 39.5992 37.82C39.8219 37.8961 40.0247 38.0198 40.2074 38.1912C40.3901 38.3606 40.5357 38.5852 40.6442 38.865C40.7527 39.1448 40.807 39.4893 40.807 39.8986V40.1841H37.4264V39.6016H40.1217C40.1217 39.3542 40.0722 39.1334 39.9733 38.9392C39.8762 38.7451 39.7372 38.5918 39.5564 38.4795C39.3775 38.3672 39.1662 38.3111 38.9226 38.3111C38.6542 38.3111 38.4219 38.3777 38.2259 38.5109C38.0317 38.6423 37.8823 38.8136 37.7776 39.0249C37.6729 39.2361 37.6206 39.4627 37.6206 39.7044V40.0927C37.6206 40.4239 37.6777 40.7047 37.7919 40.935C37.908 41.1634 38.0689 41.3376 38.2744 41.4575C38.48 41.5755 38.7189 41.6345 38.9911 41.6345C39.1681 41.6345 39.328 41.6098 39.4707 41.5603C39.6154 41.5089 39.7401 41.4327 39.8448 41.3319C39.9495 41.2291 40.0304 41.1015 40.0875 40.9493L40.7385 41.132C40.6699 41.3528 40.5548 41.5469 40.393 41.7144C40.2312 41.8801 40.0313 42.0095 39.7934 42.1028C39.5555 42.1941 39.288 42.2398 38.9911 42.2398ZM43.1225 42.2512C42.8446 42.2512 42.5924 42.1989 42.3659 42.0942C42.1394 41.9876 41.9595 41.8344 41.8263 41.6345C41.693 41.4327 41.6264 41.1891 41.6264 40.9036C41.6264 40.6523 41.6759 40.4487 41.7749 40.2926C41.8739 40.1346 42.0062 40.0109 42.1718 39.9214C42.3374 39.8319 42.5201 39.7653 42.7199 39.7215C42.9217 39.6758 43.1244 39.6397 43.3281 39.613C43.5946 39.5788 43.8106 39.5531 43.9762 39.5359C44.1437 39.5169 44.2656 39.4855 44.3417 39.4417C44.4197 39.3979 44.4588 39.3218 44.4588 39.2133V39.1905C44.4588 38.9088 44.3817 38.6899 44.2275 38.5338C44.0752 38.3777 43.8439 38.2996 43.5337 38.2996C43.212 38.2996 42.9598 38.3701 42.7771 38.5109C42.5943 38.6518 42.4658 38.8022 42.3916 38.9621L41.752 38.7336C41.8662 38.4672 42.0185 38.2597 42.2089 38.1112C42.4011 37.9608 42.6105 37.8561 42.837 37.7971C43.0654 37.7362 43.29 37.7058 43.5108 37.7058C43.6517 37.7058 43.8135 37.7229 43.9962 37.7572C44.1809 37.7895 44.3588 37.8571 44.5301 37.9599C44.7034 38.0627 44.8471 38.2178 44.9613 38.4253C45.0755 38.6328 45.1326 38.9107 45.1326 39.259V42.1484H44.4588V41.5546H44.4245C44.3788 41.6497 44.3027 41.7516 44.1961 41.8601C44.0895 41.9686 43.9477 42.0609 43.7707 42.137C43.5936 42.2132 43.3776 42.2512 43.1225 42.2512ZM43.2253 41.6459C43.4918 41.6459 43.7164 41.5936 43.8991 41.4889C44.0838 41.3842 44.2227 41.2491 44.316 41.0835C44.4112 40.9179 44.4588 40.7437 44.4588 40.561V39.9442C44.4302 39.9785 44.3674 40.0099 44.2703 40.0385C44.1751 40.0651 44.0647 40.0889 43.9391 40.1098C43.8154 40.1289 43.6945 40.146 43.5765 40.1612C43.4604 40.1746 43.3662 40.186 43.2938 40.1955C43.1187 40.2183 42.955 40.2554 42.8027 40.3068C42.6524 40.3563 42.5306 40.4315 42.4373 40.5324C42.3459 40.6314 42.3002 40.7665 42.3002 40.9378C42.3002 41.172 42.3868 41.349 42.5601 41.4689C42.7352 41.5869 42.9569 41.6459 43.2253 41.6459ZM48.0185 42.2398C47.653 42.2398 47.3304 42.1475 47.0506 41.9629C46.7707 41.7763 46.5518 41.5136 46.3939 41.1748C46.2359 40.8341 46.1569 40.4315 46.1569 39.9671C46.1569 39.5064 46.2359 39.1067 46.3939 38.7679C46.5518 38.4291 46.7717 38.1674 47.0534 37.9827C47.3351 37.7981 47.6606 37.7058 48.0299 37.7058C48.3154 37.7058 48.541 37.7534 48.7066 37.8485C48.8741 37.9418 49.0016 38.0484 49.0892 38.1683C49.1786 38.2863 49.2481 38.3834 49.2976 38.4595H49.3547V36.301H50.0285V42.1484H49.3775V41.4746H49.2976C49.2481 41.5546 49.1777 41.6554 49.0863 41.7773C48.9949 41.8972 48.8645 42.0047 48.6951 42.0999C48.5257 42.1932 48.3002 42.2398 48.0185 42.2398ZM48.1098 41.6345C48.3801 41.6345 48.6085 41.5641 48.7951 41.4232C48.9816 41.2805 49.1234 41.0835 49.2205 40.8322C49.3176 40.579 49.3661 40.2869 49.3661 39.9557C49.3661 39.6283 49.3185 39.3418 49.2233 39.0962C49.1282 38.8488 48.9873 38.6565 48.8008 38.5195C48.6142 38.3805 48.3839 38.3111 48.1098 38.3111C47.8243 38.3111 47.5864 38.3844 47.396 38.5309C47.2076 38.6756 47.0658 38.8726 46.9706 39.1219C46.8773 39.3694 46.8307 39.6473 46.8307 39.9557C46.8307 40.2678 46.8783 40.5514 46.9735 40.8065C47.0705 41.0597 47.2133 41.2614 47.4017 41.4118C47.5921 41.5603 47.8281 41.6345 48.1098 41.6345ZM51.3562 42.1484V37.7629H52.03V42.1484H51.3562ZM51.6988 37.0319C51.5675 37.0319 51.4542 36.9872 51.359 36.8978C51.2658 36.8083 51.2191 36.7007 51.2191 36.5751C51.2191 36.4495 51.2658 36.3419 51.359 36.2525C51.4542 36.163 51.5675 36.1183 51.6988 36.1183C51.8301 36.1183 51.9424 36.163 52.0357 36.2525C52.1309 36.3419 52.1785 36.4495 52.1785 36.5751C52.1785 36.7007 52.1309 36.8083 52.0357 36.8978C51.9424 36.9872 51.8301 37.0319 51.6988 37.0319ZM53.938 39.5102V42.1484H53.2641V37.7629H53.9151V38.4481H53.9722C54.075 38.2254 54.2311 38.0465 54.4405 37.9113C54.6499 37.7743 54.9202 37.7058 55.2514 37.7058C55.5483 37.7058 55.8081 37.7667 56.0308 37.8885C56.2535 38.0084 56.4267 38.1912 56.5505 38.4367C56.6742 38.6803 56.7361 38.9887 56.7361 39.3618V42.1484H56.0622V39.4075C56.0622 39.0629 55.9728 38.7945 55.7938 38.6023C55.6149 38.4081 55.3694 38.3111 55.0572 38.3111C54.8421 38.3111 54.6499 38.3577 54.4805 38.451C54.313 38.5442 54.1807 38.6803 54.0836 38.8593C53.9865 39.0382 53.938 39.2552 53.938 39.5102ZM59.7376 43.8844C59.4121 43.8844 59.1323 43.8425 58.8981 43.7588C58.664 43.6769 58.4689 43.5684 58.3128 43.4333C58.1586 43.3 58.0359 43.1573 57.9445 43.005L58.4813 42.6281C58.5422 42.7081 58.6193 42.7994 58.7126 42.9022C58.8058 43.0069 58.9334 43.0973 59.0951 43.1734C59.2588 43.2515 59.473 43.2905 59.7376 43.2905C60.0916 43.2905 60.3838 43.2049 60.6141 43.0335C60.8444 42.8622 60.9596 42.5938 60.9596 42.2284V41.3376H60.9025C60.853 41.4175 60.7826 41.5165 60.6912 41.6345C60.6017 41.7506 60.4723 41.8544 60.3029 41.9457C60.1354 42.0352 59.9089 42.0799 59.6234 42.0799C59.2693 42.0799 58.9514 41.9962 58.6697 41.8287C58.3899 41.6612 58.1682 41.4175 58.0045 41.0977C57.8427 40.7779 57.7618 40.3896 57.7618 39.9328C57.7618 39.4836 57.8408 39.0924 57.9988 38.7593C58.1567 38.4243 58.3766 38.1655 58.6583 37.9827C58.94 37.7981 59.2655 37.7058 59.6348 37.7058C59.9203 37.7058 60.1468 37.7534 60.3143 37.8485C60.4837 37.9418 60.6132 38.0484 60.7026 38.1683C60.794 38.2863 60.8644 38.3834 60.9139 38.4595H60.9824V37.7629H61.6334V42.2741C61.6334 42.651 61.5478 42.9574 61.3764 43.1934C61.207 43.4314 60.9786 43.6055 60.6912 43.7159C60.4057 43.8282 60.0878 43.8844 59.7376 43.8844ZM59.7147 41.4746C59.985 41.4746 60.2134 41.4128 60.4 41.289C60.5865 41.1653 60.7283 40.9873 60.8254 40.7551C60.9225 40.5229 60.971 40.245 60.971 39.9214C60.971 39.6054 60.9234 39.3266 60.8282 39.0848C60.7331 38.8431 60.5922 38.6537 60.4057 38.5166C60.2191 38.3796 59.9888 38.3111 59.7147 38.3111C59.4292 38.3111 59.1913 38.3834 59.0009 38.5281C58.8125 38.6727 58.6707 38.8669 58.5755 39.1105C58.4822 39.3542 58.4356 39.6245 58.4356 39.9214C58.4356 40.2259 58.4832 40.4953 58.5784 40.7294C58.6754 40.9616 58.8182 41.1444 59.0066 41.2776C59.197 41.4089 59.433 41.4746 59.7147 41.4746Z" fill="#FAFAFA"/>
<line x1="0.433594" y1="51.7084" x2="126.062" y2="51.7084" stroke="#616B78" stroke-width="1.00503"/>
<rect width="125.628" height="26.1307" transform="translate(0.433594 52.2109)" fill="#545F6F"/>
<path d="M17.6738 68.4955C17.1355 67.5508 16.295 66.8147 15.2876 66.4058C15.7886 66.03 16.1586 65.5062 16.3454 64.9085C16.5321 64.3107 16.526 63.6694 16.328 63.0753C16.1299 62.4812 15.75 61.9645 15.242 61.5983C14.734 61.2322 14.1236 61.0352 13.4974 61.0352C12.8712 61.0352 12.2608 61.2322 11.7528 61.5983C11.2448 61.9645 10.8649 62.4812 10.6668 63.0753C10.4688 63.6694 10.4627 64.3107 10.6495 64.9085C10.8362 65.5062 11.2062 66.03 11.7072 66.4058C10.6998 66.8147 9.85931 67.5508 9.32105 68.4955C9.2877 68.5491 9.26547 68.6089 9.25569 68.6713C9.2459 68.7337 9.24876 68.7974 9.2641 68.8587C9.27943 68.92 9.30693 68.9775 9.34495 69.0279C9.38297 69.0784 9.43075 69.1206 9.48543 69.1522C9.54011 69.1838 9.60059 69.2041 9.66327 69.2118C9.72594 69.2196 9.78954 69.2147 9.85027 69.1974C9.911 69.18 9.96764 69.1507 10.0168 69.1111C10.066 69.0714 10.1067 69.0223 10.1365 68.9666C10.8478 67.737 12.1041 67.0037 13.4974 67.0037C14.8907 67.0037 16.147 67.7374 16.8584 68.9666C16.9229 69.0705 17.0254 69.1451 17.144 69.1748C17.2627 69.2045 17.3882 69.1869 17.4941 69.1257C17.6 69.0646 17.6779 68.9646 17.7115 68.847C17.745 68.7294 17.7315 68.6033 17.6738 68.4955ZM11.4559 64.02C11.4559 63.6162 11.5757 63.2215 11.8 62.8858C12.0243 62.5501 12.3431 62.2885 12.7162 62.1339C13.0892 61.9794 13.4997 61.939 13.8957 62.0178C14.2917 62.0965 14.6554 62.291 14.9409 62.5765C15.2264 62.862 15.4209 63.2257 15.4996 63.6217C15.5784 64.0177 15.538 64.4282 15.3835 64.8012C15.229 65.1743 14.9673 65.4931 14.6316 65.7174C14.2959 65.9417 13.9012 66.0615 13.4974 66.0615C12.9562 66.0608 12.4373 65.8456 12.0546 65.4628C11.6719 65.0801 11.4566 64.5612 11.4559 64.02Z" fill="#FAFAFA"/>
<path d="M31.2921 68.2773V62.4299H34.7982V63.0581H32.0002V65.0339H34.5356V65.662H32.0002V68.2773H31.2921ZM38.4086 66.4843V63.8918H39.0824V68.2773H38.4086V67.535H38.3629C38.2601 67.7577 38.1003 67.9471 37.8833 68.1032C37.6663 68.2574 37.3922 68.3344 37.061 68.3344C36.7869 68.3344 36.5432 68.2745 36.33 68.1546C36.1169 68.0327 35.9494 67.85 35.8275 67.6064C35.7057 67.3608 35.6448 67.0515 35.6448 66.6784V63.8918H36.3186V66.6328C36.3186 66.9525 36.4081 67.2076 36.587 67.3979C36.7678 67.5883 36.9982 67.6835 37.278 67.6835C37.4455 67.6835 37.6158 67.6406 37.789 67.555C37.9642 67.4693 38.1107 67.338 38.2287 67.161C38.3487 66.9839 38.4086 66.7584 38.4086 66.4843ZM40.9904 62.4299V68.2773H40.3166V62.4299H40.9904ZM42.8984 62.4299V68.2773H42.2246V62.4299H42.8984ZM51.122 62.4299V68.2773H50.4368L47.2504 63.6862H47.1933V68.2773H46.4852V62.4299H47.1705L50.3683 67.0325H50.4254V62.4299H51.122ZM53.7381 68.3801C53.4602 68.3801 53.208 68.3278 52.9815 68.2231C52.755 68.1165 52.5751 67.9633 52.4419 67.7634C52.3086 67.5616 52.242 67.318 52.242 67.0325C52.242 66.7812 52.2915 66.5776 52.3905 66.4215C52.4894 66.2635 52.6217 66.1398 52.7873 66.0503C52.9529 65.9608 53.1357 65.8942 53.3355 65.8504C53.5373 65.8048 53.74 65.7686 53.9437 65.7419C54.2102 65.7077 54.4262 65.682 54.5918 65.6648C54.7593 65.6458 54.8811 65.6144 54.9573 65.5706C55.0353 65.5268 55.0743 65.4507 55.0743 65.3422V65.3194C55.0743 65.0377 54.9972 64.8188 54.8431 64.6627C54.6908 64.5066 54.4595 64.4286 54.1493 64.4286C53.8276 64.4286 53.5754 64.499 53.3926 64.6398C53.2099 64.7807 53.0814 64.9311 53.0072 65.091L52.3676 64.8625C52.4818 64.5961 52.6341 64.3886 52.8244 64.2401C53.0167 64.0897 53.2261 63.985 53.4526 63.926C53.681 63.8651 53.9056 63.8347 54.1264 63.8347C54.2673 63.8347 54.4291 63.8518 54.6118 63.8861C54.7964 63.9184 54.9744 63.986 55.1457 64.0888C55.3189 64.1916 55.4626 64.3467 55.5768 64.5542C55.6911 64.7617 55.7482 65.0396 55.7482 65.3879V68.2773H55.0743V67.6835H55.0401C54.9944 67.7786 54.9183 67.8805 54.8117 67.989C54.7051 68.0975 54.5633 68.1898 54.3862 68.2659C54.2092 68.3421 53.9932 68.3801 53.7381 68.3801ZM53.8409 67.7748C54.1074 67.7748 54.332 67.7225 54.5147 67.6178C54.6994 67.5131 54.8383 67.378 54.9316 67.2124C55.0267 67.0468 55.0743 66.8726 55.0743 66.6899V66.0731C55.0458 66.1074 54.983 66.1388 54.8859 66.1674C54.7907 66.194 54.6803 66.2178 54.5547 66.2387C54.431 66.2578 54.3101 66.2749 54.1921 66.2901C54.076 66.3035 53.9818 66.3149 53.9094 66.3244C53.7343 66.3472 53.5706 66.3844 53.4183 66.4357C53.268 66.4852 53.1461 66.5604 53.0529 66.6613C52.9615 66.7603 52.9158 66.8954 52.9158 67.0667C52.9158 67.3009 53.0024 67.4779 53.1756 67.5978C53.3508 67.7158 53.5725 67.7748 53.8409 67.7748ZM56.978 68.2773V63.8918H57.629V64.577H57.6861C57.7775 64.3429 57.925 64.1611 58.1287 64.0317C58.3323 63.9003 58.5769 63.8347 58.8625 63.8347C59.1518 63.8347 59.3926 63.9003 59.5848 64.0317C59.779 64.1611 59.9303 64.3429 60.0388 64.577H60.0845C60.1968 64.3505 60.3652 64.1706 60.5898 64.0374C60.8144 63.9022 61.0838 63.8347 61.3979 63.8347C61.79 63.8347 62.1107 63.9574 62.3601 64.203C62.6094 64.4466 62.7341 64.8264 62.7341 65.3422V68.2773H62.0603V65.3422C62.0603 65.0186 61.9717 64.7874 61.7947 64.6484C61.6177 64.5095 61.4093 64.44 61.1694 64.44C60.8611 64.44 60.6222 64.5332 60.4528 64.7198C60.2834 64.9044 60.1987 65.1385 60.1987 65.4222V68.2773H59.5134V65.2737C59.5134 65.0243 59.4325 64.8235 59.2707 64.6712C59.1089 64.5171 58.9005 64.44 58.6455 64.44C58.4703 64.44 58.3066 64.4866 58.1544 64.5799C58.004 64.6731 57.8822 64.8026 57.7889 64.9682C57.6975 65.1319 57.6519 65.3213 57.6519 65.5364V68.2773H56.978ZM65.8048 68.3687C65.3823 68.3687 65.0178 68.2754 64.7113 68.0889C64.4067 67.9005 64.1717 67.6378 64.0061 67.3009C63.8424 66.9621 63.7605 66.568 63.7605 66.1188C63.7605 65.6696 63.8424 65.2737 64.0061 64.9311C64.1717 64.5865 64.402 64.3182 64.697 64.1259C64.994 63.9318 65.3404 63.8347 65.7363 63.8347C65.9647 63.8347 66.1903 63.8727 66.413 63.9489C66.6357 64.025 66.8384 64.1487 67.0211 64.3201C67.2039 64.4895 67.3495 64.7141 67.458 64.9939C67.5665 65.2737 67.6207 65.6182 67.6207 66.0275V66.313H64.2402V65.7305H66.9355C66.9355 65.4831 66.886 65.2623 66.787 65.0681C66.6899 64.874 66.551 64.7207 66.3702 64.6084C66.1912 64.4961 65.98 64.44 65.7363 64.44C65.4679 64.44 65.2357 64.5066 65.0396 64.6398C64.8455 64.7712 64.6961 64.9425 64.5914 65.1538C64.4867 65.3651 64.4343 65.5916 64.4343 65.8333V66.2216C64.4343 66.5528 64.4915 66.8336 64.6057 67.0639C64.7218 67.2923 64.8826 67.4665 65.0882 67.5864C65.2938 67.7044 65.5326 67.7634 65.8048 67.7634C65.9819 67.7634 66.1417 67.7387 66.2845 67.6892C66.4292 67.6378 66.5538 67.5616 66.6585 67.4608C66.7632 67.358 66.8441 67.2304 66.9012 67.0782L67.5522 67.2609C67.4837 67.4817 67.3685 67.6759 67.2067 67.8434C67.0449 68.009 66.8451 68.1384 66.6071 68.2317C66.3692 68.323 66.1018 68.3687 65.8048 68.3687Z" fill="#FAFAFA"/>
<line x1="0.433594" y1="77.8373" x2="126.062" y2="77.8373" stroke="#616B78" stroke-width="1.00503"/>
<rect width="125.628" height="26.1307" transform="translate(0.433594 78.3398)" fill="#545F6F"/>
<path d="M9.73048 88.4688V87.9453C9.44154 87.9453 9.20703 88.1798 9.20703 88.4688H9.73048ZM17.2682 88.4688H17.7916C17.7916 88.1798 17.5571 87.9453 17.2682 87.9453V88.4688ZM9.73048 88.9922H17.2682V87.9453H9.73048V88.9922ZM16.7447 88.4688V93.4939H17.7916V88.4688H16.7447ZM16.4306 93.808H10.568V94.8549H16.4306V93.808ZM10.2539 93.4939V88.4688H9.20703V93.4939H10.2539ZM10.568 93.808C10.4847 93.808 10.4048 93.7749 10.3459 93.716C10.287 93.6571 10.2539 93.5772 10.2539 93.4939H9.20703C9.20703 93.8548 9.35042 94.201 9.60565 94.4562C9.86088 94.7115 10.2071 94.8549 10.568 94.8549V93.808ZM16.7447 93.4939C16.7447 93.5772 16.7116 93.6571 16.6527 93.716C16.5938 93.7749 16.5139 93.808 16.4306 93.808V94.8549C16.7916 94.8549 17.1378 94.7115 17.393 94.4562C17.6482 94.201 17.7916 93.8548 17.7916 93.4939H16.7447Z" fill="#FAFAFA"/>
<path d="M9.73047 88.4688L13.4993 92.2376L17.2682 88.4688" stroke="#FAFAFA" stroke-width="1.0469" stroke-linecap="round" stroke-linejoin="round"/>
<path d="M31.2921 94.4062V88.5588H34.8211V89.187H32.0002V91.1628H34.6383V91.7909H32.0002V93.7781H34.8668V94.4062H31.2921ZM36.006 94.4062V90.0207H36.657V90.7059H36.7141C36.8054 90.4718 36.953 90.29 37.1566 90.1606C37.3603 90.0293 37.6049 89.9636 37.8904 89.9636C38.1797 89.9636 38.4205 90.0293 38.6128 90.1606C38.8069 90.29 38.9582 90.4718 39.0667 90.7059H39.1124C39.2247 90.4794 39.3932 90.2995 39.6178 90.1663C39.8424 90.0312 40.1117 89.9636 40.4258 89.9636C40.8179 89.9636 41.1387 90.0864 41.388 90.3319C41.6374 90.5755 41.762 90.9553 41.762 91.4711V94.4062H41.0882V91.4711C41.0882 91.1475 40.9997 90.9163 40.8227 90.7773C40.6457 90.6384 40.4372 90.5689 40.1974 90.5689C39.889 90.5689 39.6501 90.6622 39.4807 90.8487C39.3113 91.0333 39.2266 91.2674 39.2266 91.5511V94.4062H38.5414V91.4026C38.5414 91.1532 38.4605 90.9524 38.2987 90.8002C38.1369 90.646 37.9285 90.5689 37.6734 90.5689C37.4983 90.5689 37.3346 90.6155 37.1823 90.7088C37.0319 90.8021 36.9101 90.9315 36.8169 91.0971C36.7255 91.2608 36.6798 91.4502 36.6798 91.6653V94.4062H36.006ZM44.2846 94.509C44.0067 94.509 43.7545 94.4567 43.528 94.352C43.3015 94.2454 43.1216 94.0922 42.9883 93.8923C42.8551 93.6906 42.7885 93.4469 42.7885 93.1614C42.7885 92.9101 42.838 92.7065 42.9369 92.5504C43.0359 92.3924 43.1682 92.2687 43.3338 92.1792C43.4994 92.0897 43.6821 92.0231 43.882 91.9793C44.0838 91.9337 44.2865 91.8975 44.4902 91.8708C44.7566 91.8366 44.9727 91.8109 45.1383 91.7938C45.3058 91.7747 45.4276 91.7433 45.5038 91.6995C45.5818 91.6558 45.6208 91.5796 45.6208 91.4711V91.4483C45.6208 91.1666 45.5437 90.9477 45.3895 90.7916C45.2373 90.6355 45.006 90.5575 44.6957 90.5575C44.3741 90.5575 44.1218 90.6279 43.9391 90.7687C43.7564 90.9096 43.6279 91.06 43.5537 91.2199L42.9141 90.9914C43.0283 90.725 43.1806 90.5175 43.3709 90.369C43.5632 90.2186 43.7726 90.114 43.9991 90.0549C44.2275 89.994 44.4521 89.9636 44.6729 89.9636C44.8138 89.9636 44.9755 89.9807 45.1583 90.015C45.3429 90.0473 45.5209 90.1149 45.6922 90.2177C45.8654 90.3205 46.0091 90.4756 46.1233 90.6831C46.2375 90.8906 46.2946 91.1685 46.2946 91.5168V94.4062H45.6208V93.8124H45.5866C45.5409 93.9075 45.4647 94.0094 45.3581 94.1179C45.2515 94.2264 45.1097 94.3187 44.9327 94.3948C44.7557 94.471 44.5397 94.509 44.2846 94.509ZM44.3874 93.9037C44.6539 93.9037 44.8785 93.8514 45.0612 93.7467C45.2458 93.642 45.3848 93.5069 45.4781 93.3413C45.5732 93.1757 45.6208 93.0015 45.6208 92.8188V92.202C45.5923 92.2363 45.5295 92.2677 45.4324 92.2963C45.3372 92.3229 45.2268 92.3467 45.1012 92.3676C44.9774 92.3867 44.8566 92.4038 44.7386 92.419C44.6225 92.4324 44.5282 92.4438 44.4559 92.4533C44.2808 92.4761 44.1171 92.5133 43.9648 92.5647C43.8144 92.6141 43.6926 92.6893 43.5993 92.7902C43.508 92.8892 43.4623 93.0243 43.4623 93.1957C43.4623 93.4298 43.5489 93.6068 43.7221 93.7267C43.8972 93.8447 44.119 93.9037 44.3874 93.9037ZM47.5245 94.4062V90.0207H48.1983V94.4062H47.5245ZM47.8671 89.2898C47.7358 89.2898 47.6225 89.245 47.5274 89.1556C47.4341 89.0661 47.3875 88.9586 47.3875 88.8329C47.3875 88.7073 47.4341 88.5998 47.5274 88.5103C47.6225 88.4208 47.7358 88.3761 47.8671 88.3761C47.9985 88.3761 48.1108 88.4208 48.204 88.5103C48.2992 88.5998 48.3468 88.7073 48.3468 88.8329C48.3468 88.9586 48.2992 89.0661 48.204 89.1556C48.1108 89.245 47.9985 89.2898 47.8671 89.2898ZM50.1063 88.5588V94.4062H49.4325V88.5588H50.1063Z" fill="#FAFAFA"/>
<line x1="0.433594" y1="103.97" x2="126.062" y2="103.97" stroke="#616B78" stroke-width="1.00503"/>
<rect width="125.628" height="26.1307" transform="translate(0.433594 104.473)" fill="#545F6F"/>
<path d="M17.267 118.589L15.4183 117.76L15.4112 117.757C15.2911 117.705 15.1598 117.684 15.0295 117.696C14.8992 117.708 14.774 117.753 14.6653 117.826C14.6501 117.836 14.6354 117.847 14.6213 117.859L13.7455 118.604C13.2351 118.328 12.7079 117.805 12.4307 117.301L13.179 116.411C13.191 116.397 13.2021 116.382 13.2123 116.366C13.2833 116.258 13.3264 116.133 13.3378 116.005C13.3491 115.876 13.3284 115.746 13.2775 115.627C13.2763 115.624 13.2753 115.622 13.2744 115.62L12.446 113.768C12.378 113.613 12.262 113.484 12.115 113.4C11.9681 113.317 11.7981 113.282 11.6302 113.303C11.0603 113.377 10.5372 113.657 10.1585 114.09C9.77975 114.522 9.57138 115.077 9.57227 115.652C9.57227 118.856 12.1787 121.463 15.3826 121.463C15.9574 121.463 16.5128 121.255 16.9452 120.876C17.3776 120.498 17.6573 119.974 17.7322 119.405C17.7525 119.237 17.7183 119.067 17.6345 118.92C17.5507 118.773 17.4219 118.657 17.267 118.589ZM15.3826 120.52C14.092 120.519 12.8546 120.005 11.942 119.093C11.0294 118.18 10.516 116.943 10.5145 115.652C10.5136 115.327 10.624 115.011 10.8274 114.757C11.0308 114.504 11.3149 114.327 11.6326 114.257L12.3714 115.906L11.6192 116.802C11.6071 116.816 11.5958 116.831 11.5855 116.847C11.5113 116.961 11.4677 117.091 11.4589 117.226C11.4501 117.361 11.4764 117.496 11.5352 117.618C11.905 118.375 12.667 119.132 13.4318 119.503C13.5546 119.561 13.6903 119.586 13.8258 119.576C13.9613 119.566 14.0919 119.521 14.2048 119.446C14.22 119.436 14.2345 119.424 14.2484 119.412L15.129 118.664L16.7778 119.402C16.7078 119.72 16.5312 120.004 16.2774 120.207C16.0236 120.411 15.7078 120.521 15.3826 120.52Z" fill="white"/>
<path d="M31.2921 120.539V114.692H33.2679C33.7266 114.692 34.1016 114.774 34.3928 114.94C34.6859 115.104 34.9029 115.325 35.0438 115.605C35.1846 115.885 35.2551 116.197 35.2551 116.542C35.2551 116.886 35.1846 117.199 35.0438 117.481C34.9048 117.763 34.6897 117.987 34.3985 118.155C34.1073 118.321 33.7342 118.403 33.2793 118.403H31.8631V117.775H33.2564C33.5705 117.775 33.8227 117.721 34.0131 117.612C34.2034 117.504 34.3414 117.357 34.4271 117.173C34.5146 116.986 34.5584 116.776 34.5584 116.542C34.5584 116.308 34.5146 116.098 34.4271 115.914C34.3414 115.729 34.2025 115.584 34.0102 115.48C33.818 115.373 33.5629 115.32 33.245 115.32H32.0002V120.539H31.2921ZM36.9782 117.901V120.539H36.3043V114.692H36.9782V116.839H37.0353C37.1381 116.612 37.2922 116.432 37.4978 116.299C37.7053 116.164 37.9813 116.096 38.3258 116.096C38.6247 116.096 38.8864 116.156 39.111 116.276C39.3356 116.394 39.5098 116.576 39.6335 116.822C39.7591 117.065 39.8219 117.376 39.8219 117.752V120.539H39.1481V117.798C39.1481 117.45 39.0577 117.18 38.8769 116.99C38.6979 116.798 38.4495 116.702 38.1317 116.702C37.9109 116.702 37.7129 116.748 37.5378 116.842C37.3646 116.935 37.2275 117.071 37.1266 117.25C37.0277 117.429 36.9782 117.646 36.9782 117.901ZM42.8363 120.63C42.4404 120.63 42.093 120.536 41.7942 120.348C41.4972 120.159 41.265 119.896 41.0975 119.557C40.9319 119.218 40.8491 118.822 40.8491 118.369C40.8491 117.912 40.9319 117.514 41.0975 117.173C41.265 116.832 41.4972 116.567 41.7942 116.379C42.093 116.191 42.4404 116.096 42.8363 116.096C43.2322 116.096 43.5786 116.191 43.8756 116.379C44.1744 116.567 44.4066 116.832 44.5723 117.173C44.7398 117.514 44.8235 117.912 44.8235 118.369C44.8235 118.822 44.7398 119.218 44.5723 119.557C44.4066 119.896 44.1744 120.159 43.8756 120.348C43.5786 120.536 43.2322 120.63 42.8363 120.63ZM42.8363 120.025C43.137 120.025 43.3845 119.948 43.5786 119.794C43.7728 119.64 43.9165 119.437 44.0098 119.186C44.103 118.934 44.1497 118.662 44.1497 118.369C44.1497 118.076 44.103 117.803 44.0098 117.55C43.9165 117.297 43.7728 117.092 43.5786 116.936C43.3845 116.78 43.137 116.702 42.8363 116.702C42.5356 116.702 42.2881 116.78 42.0939 116.936C41.8998 117.092 41.7561 117.297 41.6628 117.55C41.5695 117.803 41.5229 118.076 41.5229 118.369C41.5229 118.662 41.5695 118.934 41.6628 119.186C41.7561 119.437 41.8998 119.64 42.0939 119.794C42.2881 119.948 42.5356 120.025 42.8363 120.025ZM46.5259 117.901V120.539H45.8521V116.153H46.5031V116.839H46.5602C46.663 116.616 46.819 116.437 47.0284 116.302C47.2378 116.165 47.5081 116.096 47.8393 116.096C48.1362 116.096 48.3961 116.157 48.6188 116.279C48.8415 116.399 49.0147 116.582 49.1384 116.827C49.2621 117.071 49.324 117.379 49.324 117.752V120.539H48.6502V117.798C48.6502 117.454 48.5607 117.185 48.3818 116.993C48.2029 116.799 47.9573 116.702 47.6451 116.702C47.4301 116.702 47.2378 116.748 47.0684 116.842C46.9009 116.935 46.7686 117.071 46.6715 117.25C46.5744 117.429 46.5259 117.646 46.5259 117.901ZM52.394 120.63C51.9715 120.63 51.6069 120.537 51.3005 120.351C50.9959 120.162 50.7609 119.9 50.5953 119.563C50.4316 119.224 50.3497 118.83 50.3497 118.381C50.3497 117.931 50.4316 117.535 50.5953 117.193C50.7609 116.848 50.9912 116.58 51.2862 116.388C51.5832 116.193 51.9296 116.096 52.3255 116.096C52.5539 116.096 52.7795 116.134 53.0022 116.211C53.2249 116.287 53.4276 116.41 53.6103 116.582C53.7931 116.751 53.9387 116.976 54.0472 117.256C54.1557 117.535 54.2099 117.88 54.2099 118.289V118.575H50.8294V117.992H53.5247C53.5247 117.745 53.4752 117.524 53.3762 117.33C53.2791 117.136 53.1402 116.982 52.9594 116.87C52.7804 116.758 52.5691 116.702 52.3255 116.702C52.0571 116.702 51.8249 116.768 51.6288 116.902C51.4347 117.033 51.2853 117.204 51.1806 117.415C51.0759 117.627 51.0235 117.853 51.0235 118.095V118.483C51.0235 118.815 51.0806 119.095 51.1949 119.326C51.311 119.554 51.4718 119.728 51.6774 119.848C51.883 119.966 52.1218 120.025 52.394 120.025C52.5711 120.025 52.7309 120 52.8737 119.951C53.0184 119.9 53.143 119.823 53.2477 119.722C53.3524 119.62 53.4333 119.492 53.4904 119.34L54.1414 119.523C54.0729 119.743 53.9577 119.938 53.7959 120.105C53.6341 120.271 53.4343 120.4 53.1963 120.493C52.9584 120.585 52.691 120.63 52.394 120.63Z" fill="#FAFAFA"/>
<line x1="0.433594" y1="130.099" x2="126.062" y2="130.099" stroke="#616B78" stroke-width="1.00503"/>
<rect width="125.628" height="26.1307" transform="translate(0.433594 130.602)" fill="#545F6F"/>
<path d="M13.4977 141.365C13.7754 141.365 14.0417 141.475 14.238 141.672C14.4343 141.868 14.5446 142.134 14.5446 142.412C14.5446 142.549 14.5176 142.685 14.4649 142.812C14.4123 142.939 14.3352 143.055 14.238 143.152C14.1408 143.249 14.0254 143.326 13.8984 143.379C13.7713 143.432 13.6352 143.459 13.4977 143.459C13.2201 143.459 12.9538 143.348 12.7575 143.152C12.5611 142.956 12.4508 142.689 12.4508 142.412C12.4508 142.134 12.5611 141.868 12.7575 141.672C12.9538 141.475 13.2201 141.365 13.4977 141.365ZM13.4977 139.48C14.2752 139.48 15.0208 139.789 15.5705 140.339C16.1202 140.889 16.4291 141.634 16.4291 142.412C16.4291 144.61 13.4977 147.856 13.4977 147.856C13.4977 147.856 10.5664 144.61 10.5664 142.412C10.5664 141.634 10.8752 140.889 11.425 140.339C11.9747 139.789 12.7203 139.48 13.4977 139.48ZM13.4977 140.318C12.9424 140.318 12.4099 140.539 12.0172 140.931C11.6245 141.324 11.4039 141.856 11.4039 142.412C11.4039 142.831 11.4039 143.668 13.4977 146.478C15.5915 143.668 15.5915 142.831 15.5915 142.412C15.5915 141.856 15.3709 141.324 14.9783 140.931C14.5856 140.539 14.053 140.318 13.4977 140.318Z" fill="white"/>
<path d="M31.5319 146.668H30.7896L32.9367 140.821H33.6676L35.8147 146.668H35.0723L33.325 141.746H33.2793L31.5319 146.668ZM31.806 144.384H34.7982V145.012H31.806V144.384ZM38.2901 146.759C37.9247 146.759 37.602 146.667 37.3222 146.482C37.0424 146.296 36.8235 146.033 36.6655 145.694C36.5075 145.354 36.4285 144.951 36.4285 144.487C36.4285 144.026 36.5075 143.626 36.6655 143.287C36.8235 142.949 37.0434 142.687 37.3251 142.502C37.6068 142.318 37.9323 142.225 38.3015 142.225C38.5871 142.225 38.8126 142.273 38.9782 142.368C39.1457 142.461 39.2733 142.568 39.3608 142.688C39.4503 142.806 39.5198 142.903 39.5693 142.979H39.6264V140.821H40.3002V146.668H39.6492V145.994H39.5693C39.5198 146.074 39.4493 146.175 39.358 146.297C39.2666 146.417 39.1362 146.524 38.9668 146.619C38.7974 146.713 38.5718 146.759 38.2901 146.759ZM38.3815 146.154C38.6518 146.154 38.8802 146.084 39.0667 145.943C39.2533 145.8 39.3951 145.603 39.4922 145.352C39.5892 145.099 39.6378 144.806 39.6378 144.475C39.6378 144.148 39.5902 143.861 39.495 143.616C39.3998 143.368 39.259 143.176 39.0724 143.039C38.8859 142.9 38.6556 142.831 38.3815 142.831C38.096 142.831 37.858 142.904 37.6677 143.05C37.4793 143.195 37.3374 143.392 37.2423 143.641C37.149 143.889 37.1024 144.167 37.1024 144.475C37.1024 144.787 37.15 145.071 37.2451 145.326C37.3422 145.579 37.485 145.781 37.6734 145.931C37.8638 146.08 38.0998 146.154 38.3815 146.154ZM43.2838 146.759C42.9184 146.759 42.5957 146.667 42.3159 146.482C42.0361 146.296 41.8172 146.033 41.6592 145.694C41.5013 145.354 41.4223 144.951 41.4223 144.487C41.4223 144.026 41.5013 143.626 41.6592 143.287C41.8172 142.949 42.0371 142.687 42.3188 142.502C42.6005 142.318 42.926 142.225 43.2953 142.225C43.5808 142.225 43.8063 142.273 43.9719 142.368C44.1395 142.461 44.267 142.568 44.3545 142.688C44.444 142.806 44.5135 142.903 44.563 142.979H44.6201V140.821H45.2939V146.668H44.6429V145.994H44.563C44.5135 146.074 44.4431 146.175 44.3517 146.297C44.2603 146.417 44.1299 146.524 43.9605 146.619C43.7911 146.713 43.5656 146.759 43.2838 146.759ZM43.3752 146.154C43.6455 146.154 43.8739 146.084 44.0605 145.943C44.247 145.8 44.3888 145.603 44.4859 145.352C44.583 145.099 44.6315 144.806 44.6315 144.475C44.6315 144.148 44.5839 143.861 44.4887 143.616C44.3936 143.368 44.2527 143.176 44.0662 143.039C43.8796 142.9 43.6493 142.831 43.3752 142.831C43.0897 142.831 42.8518 142.904 42.6614 143.05C42.473 143.195 42.3312 143.392 42.236 143.641C42.1427 143.889 42.0961 144.167 42.0961 144.475C42.0961 144.787 42.1437 145.071 42.2388 145.326C42.3359 145.579 42.4787 145.781 42.6671 145.931C42.8575 146.08 43.0935 146.154 43.3752 146.154ZM46.6216 146.668V142.282H47.2725V142.945H47.3182C47.3982 142.728 47.5428 142.552 47.7522 142.417C47.9616 142.281 48.1976 142.214 48.4603 142.214C48.5098 142.214 48.5717 142.215 48.6459 142.217C48.7201 142.219 48.7763 142.221 48.8143 142.225V142.911C48.7915 142.905 48.7392 142.896 48.6573 142.885C48.5774 142.872 48.4927 142.865 48.4032 142.865C48.19 142.865 47.9997 142.91 47.8322 142.999C47.6666 143.087 47.5352 143.208 47.4381 143.365C47.343 143.519 47.2954 143.695 47.2954 143.893V146.668H46.6216ZM51.3183 146.759C50.8958 146.759 50.5313 146.666 50.2248 146.48C49.9202 146.291 49.6852 146.028 49.5196 145.691C49.3559 145.353 49.274 144.959 49.274 144.509C49.274 144.06 49.3559 143.664 49.5196 143.322C49.6852 142.977 49.9155 142.709 50.2105 142.517C50.5075 142.322 50.8539 142.225 51.2498 142.225C51.4782 142.225 51.7038 142.263 51.9265 142.34C52.1492 142.416 52.3519 142.539 52.5346 142.711C52.7174 142.88 52.863 143.105 52.9715 143.385C53.08 143.664 53.1342 144.009 53.1342 144.418V144.704H49.7537V144.121H52.449C52.449 143.874 52.3995 143.653 52.3005 143.459C52.2034 143.265 52.0645 143.111 51.8837 142.999C51.7047 142.887 51.4935 142.831 51.2498 142.831C50.9814 142.831 50.7492 142.897 50.5531 143.03C50.359 143.162 50.2096 143.333 50.1049 143.544C50.0002 143.756 49.9478 143.982 49.9478 144.224V144.612C49.9478 144.943 50.005 145.224 50.1192 145.455C50.2353 145.683 50.3961 145.857 50.6017 145.977C50.8073 146.095 51.0461 146.154 51.3183 146.154C51.4954 146.154 51.6552 146.129 51.798 146.08C51.9427 146.028 52.0673 145.952 52.172 145.851C52.2767 145.749 52.3576 145.621 52.4147 145.469L53.0657 145.652C52.9972 145.872 52.882 146.066 52.7202 146.234C52.5584 146.4 52.3586 146.529 52.1206 146.622C51.8827 146.714 51.6153 146.759 51.3183 146.759ZM57.2657 143.265L56.6604 143.436C56.6223 143.335 56.5662 143.237 56.4919 143.142C56.4196 143.045 56.3206 142.965 56.195 142.902C56.0694 142.839 55.9085 142.808 55.7125 142.808C55.4441 142.808 55.2204 142.87 55.0415 142.993C54.8645 143.115 54.776 143.27 54.776 143.459C54.776 143.626 54.8369 143.759 54.9587 143.856C55.0805 143.953 55.2709 144.034 55.5297 144.098L56.1807 144.258C56.5728 144.353 56.865 144.499 57.0573 144.695C57.2495 144.889 57.3456 145.139 57.3456 145.446C57.3456 145.697 57.2733 145.922 57.1286 146.12C56.9859 146.318 56.786 146.474 56.5291 146.588C56.2721 146.702 55.9732 146.759 55.6325 146.759C55.1852 146.759 54.815 146.662 54.5219 146.468C54.2287 146.274 54.0431 145.99 53.9651 145.617L54.6047 145.457C54.6656 145.693 54.7807 145.87 54.9501 145.988C55.1214 146.106 55.3451 146.165 55.6211 146.165C55.9352 146.165 56.1845 146.099 56.3692 145.966C56.5557 145.83 56.649 145.669 56.649 145.48C56.649 145.328 56.5957 145.2 56.4891 145.098C56.3825 144.993 56.2188 144.915 55.998 144.863L55.2671 144.692C54.8654 144.597 54.5704 144.449 54.382 144.25C54.1954 144.048 54.1021 143.796 54.1021 143.493C54.1021 143.246 54.1716 143.027 54.3106 142.836C54.4514 142.646 54.6427 142.497 54.8845 142.388C55.1281 142.28 55.4041 142.225 55.7125 142.225C56.1465 142.225 56.4872 142.32 56.7346 142.511C56.984 142.701 57.161 142.952 57.2657 143.265ZM61.4664 143.265L60.8611 143.436C60.823 143.335 60.7669 143.237 60.6926 143.142C60.6203 143.045 60.5213 142.965 60.3957 142.902C60.2701 142.839 60.1092 142.808 59.9132 142.808C59.6448 142.808 59.4211 142.87 59.2422 142.993C59.0652 143.115 58.9767 143.27 58.9767 143.459C58.9767 143.626 59.0376 143.759 59.1594 143.856C59.2812 143.953 59.4716 144.034 59.7304 144.098L60.3814 144.258C60.7735 144.353 61.0657 144.499 61.258 144.695C61.4502 144.889 61.5463 145.139 61.5463 145.446C61.5463 145.697 61.474 145.922 61.3293 146.12C61.1866 146.318 60.9867 146.474 60.7297 146.588C60.4728 146.702 60.1739 146.759 59.8332 146.759C59.3859 146.759 59.0157 146.662 58.7225 146.468C58.4294 146.274 58.2438 145.99 58.1658 145.617L58.8053 145.457C58.8663 145.693 58.9814 145.87 59.1508 145.988C59.3221 146.106 59.5458 146.165 59.8218 146.165C60.1359 146.165 60.3852 146.099 60.5699 145.966C60.7564 145.83 60.8497 145.669 60.8497 145.48C60.8497 145.328 60.7964 145.2 60.6898 145.098C60.5832 144.993 60.4195 144.915 60.1987 144.863L59.4678 144.692C59.0661 144.597 58.7711 144.449 58.5826 144.25C58.3961 144.048 58.3028 143.796 58.3028 143.493C58.3028 143.246 58.3723 143.027 58.5113 142.836C58.6521 142.646 58.8434 142.497 59.0852 142.388C59.3288 142.28 59.6048 142.225 59.9132 142.225C60.3471 142.225 60.6879 142.32 60.9353 142.511C61.1847 142.701 61.3617 142.952 61.4664 143.265Z" fill="#FAFAFA"/>
<line x1="0.433594" y1="156.232" x2="126.062" y2="156.232" stroke="#616B78" stroke-width="1.00503"/>
<rect width="125.628" height="26.1307" transform="translate(0.433594 156.734)" fill="#545F6F"/>
<path d="M12.243 168.96H11.4055V169.798H12.243V168.96ZM13.9181 168.96H13.0806V169.798H13.9181V168.96ZM15.5931 168.96H14.7556V169.798H15.5931V168.96ZM16.4306 166.029H16.0119V165.191H15.1744V166.029H11.8243V165.191H10.9868V166.029H10.568C10.3459 166.029 10.1328 166.117 9.97577 166.274C9.81871 166.431 9.73047 166.644 9.73047 166.866V172.729C9.73047 172.951 9.81871 173.164 9.97577 173.321C10.1328 173.478 10.3459 173.567 10.568 173.567H16.4306C16.6528 173.567 16.8658 173.478 17.0229 173.321C17.1799 173.164 17.2682 172.951 17.2682 172.729V166.866C17.2682 166.644 17.1799 166.431 17.0229 166.274C16.8658 166.117 16.6528 166.029 16.4306 166.029ZM16.4306 172.729H10.568V168.123H16.4306V172.729Z" fill="white"/>
<path d="M33.0965 172.801H31.2921V166.953H33.1765C33.7437 166.953 34.2291 167.07 34.6326 167.305C35.0362 167.537 35.3455 167.871 35.5606 168.307C35.7757 168.741 35.8832 169.26 35.8832 169.866C35.8832 170.475 35.7747 170.999 35.5577 171.439C35.3407 171.877 35.0247 172.214 34.6098 172.45C34.1948 172.684 33.6904 172.801 33.0965 172.801ZM32.0002 172.173H33.0509C33.5343 172.173 33.935 172.079 34.2529 171.893C34.5708 171.706 34.8078 171.441 34.9638 171.096C35.1199 170.752 35.198 170.342 35.198 169.866C35.198 169.394 35.1209 168.987 34.9667 168.646C34.8125 168.304 34.5822 168.041 34.2757 167.858C33.9693 167.674 33.5876 167.582 33.1308 167.582H32.0002V172.173ZM38.2701 172.904C37.9922 172.904 37.74 172.851 37.5135 172.747C37.287 172.64 37.1071 172.487 36.9739 172.287C36.8406 172.085 36.774 171.841 36.774 171.556C36.774 171.305 36.8235 171.101 36.9225 170.945C37.0215 170.787 37.1538 170.663 37.3194 170.574C37.485 170.484 37.6677 170.418 37.8676 170.374C38.0693 170.328 38.272 170.292 38.4757 170.265C38.7422 170.231 38.9582 170.205 39.1238 170.188C39.2913 170.169 39.4132 170.138 39.4893 170.094C39.5673 170.05 39.6064 169.974 39.6064 169.866V169.843C39.6064 169.561 39.5293 169.342 39.3751 169.186C39.2228 169.03 38.9916 168.952 38.6813 168.952C38.3596 168.952 38.1074 169.022 37.9247 169.163C37.7419 169.304 37.6134 169.455 37.5392 169.614L36.8997 169.386C37.0139 169.119 37.1661 168.912 37.3565 168.764C37.5487 168.613 37.7581 168.508 37.9846 168.449C38.213 168.389 38.4376 168.358 38.6584 168.358C38.7993 168.358 38.9611 168.375 39.1438 168.41C39.3285 168.442 39.5064 168.509 39.6777 168.612C39.851 168.715 39.9947 168.87 40.1089 169.078C40.2231 169.285 40.2802 169.563 40.2802 169.911V172.801H39.6064V172.207H39.5721C39.5264 172.302 39.4503 172.404 39.3437 172.512C39.2371 172.621 39.0953 172.713 38.9183 172.789C38.7412 172.865 38.5252 172.904 38.2701 172.904ZM38.3729 172.298C38.6394 172.298 38.864 172.246 39.0468 172.141C39.2314 172.037 39.3703 171.901 39.4636 171.736C39.5588 171.57 39.6064 171.396 39.6064 171.213V170.597C39.5778 170.631 39.515 170.662 39.4179 170.691C39.3228 170.717 39.2124 170.741 39.0867 170.762C38.963 170.781 38.8421 170.798 38.7241 170.814C38.608 170.827 38.5138 170.838 38.4415 170.848C38.2663 170.871 38.1026 170.908 37.9504 170.959C37.8 171.009 37.6782 171.084 37.5849 171.185C37.4935 171.284 37.4478 171.419 37.4478 171.59C37.4478 171.824 37.5345 172.001 37.7077 172.121C37.8828 172.239 38.1045 172.298 38.3729 172.298ZM43.4173 168.415V168.986H41.1446V168.415H43.4173ZM41.807 167.365H42.4808V171.544C42.4808 171.735 42.5084 171.878 42.5636 171.973C42.6207 172.066 42.6931 172.129 42.7806 172.161C42.8701 172.192 42.9643 172.207 43.0633 172.207C43.1375 172.207 43.1984 172.203 43.246 172.195C43.2936 172.186 43.3317 172.178 43.3602 172.173L43.4973 172.778C43.4516 172.795 43.3878 172.812 43.306 172.829C43.2241 172.848 43.1204 172.858 42.9948 172.858C42.8044 172.858 42.6179 172.817 42.4351 172.735C42.2543 172.653 42.1039 172.529 41.984 172.361C41.866 172.194 41.807 171.982 41.807 171.727V167.365ZM46.2225 172.892C45.8 172.892 45.4355 172.799 45.129 172.612C44.8245 172.424 44.5894 172.161 44.4238 171.824C44.2601 171.485 44.1782 171.091 44.1782 170.642C44.1782 170.193 44.2601 169.797 44.4238 169.455C44.5894 169.11 44.8197 168.842 45.1147 168.649C45.4117 168.455 45.7581 168.358 46.154 168.358C46.3824 168.358 46.608 168.396 46.8307 168.472C47.0534 168.548 47.2561 168.672 47.4389 168.843C47.6216 169.013 47.7672 169.238 47.8757 169.517C47.9842 169.797 48.0384 170.142 48.0384 170.551V170.836H44.6579V170.254H47.3532C47.3532 170.007 47.3037 169.786 47.2047 169.592C47.1077 169.397 46.9687 169.244 46.7879 169.132C46.6089 169.02 46.3977 168.963 46.154 168.963C45.8856 168.963 45.6534 169.03 45.4574 169.163C45.2632 169.295 45.1138 169.466 45.0091 169.677C44.9044 169.888 44.8521 170.115 44.8521 170.357V170.745C44.8521 171.076 44.9092 171.357 45.0234 171.587C45.1395 171.816 45.3003 171.99 45.5059 172.11C45.7115 172.228 45.9504 172.287 46.2225 172.287C46.3996 172.287 46.5595 172.262 46.7022 172.213C46.8469 172.161 46.9716 172.085 47.0762 171.984C47.1809 171.881 47.2618 171.754 47.3189 171.602L47.9699 171.784C47.9014 172.005 47.7862 172.199 47.6244 172.367C47.4626 172.532 47.2628 172.662 47.0249 172.755C46.7869 172.846 46.5195 172.892 46.2225 172.892ZM51.4161 172.801V166.953H53.3919C53.8506 166.953 54.2256 167.036 54.5169 167.202C54.81 167.365 55.027 167.587 55.1678 167.867C55.3087 168.147 55.3791 168.459 55.3791 168.804C55.3791 169.148 55.3087 169.461 55.1678 169.743C55.0289 170.025 54.8138 170.249 54.5226 170.417C54.2313 170.582 53.8583 170.665 53.4033 170.665H51.9872V170.037H53.3805C53.6946 170.037 53.9468 169.983 54.1371 169.874C54.3275 169.766 54.4655 169.619 54.5511 169.435C54.6387 169.248 54.6825 169.038 54.6825 168.804C54.6825 168.569 54.6387 168.36 54.5511 168.175C54.4655 167.991 54.3265 167.846 54.1343 167.741C53.942 167.635 53.687 167.582 53.3691 167.582H52.1242V172.801H51.4161ZM56.4284 172.801V168.415H57.1022V172.801H56.4284ZM56.771 167.684C56.6397 167.684 56.5264 167.64 56.4313 167.55C56.338 167.461 56.2914 167.353 56.2914 167.227C56.2914 167.102 56.338 166.994 56.4313 166.905C56.5264 166.815 56.6397 166.771 56.771 166.771C56.9024 166.771 57.0147 166.815 57.1079 166.905C57.2031 166.994 57.2507 167.102 57.2507 167.227C57.2507 167.353 57.2031 167.461 57.1079 167.55C57.0147 167.64 56.9024 167.684 56.771 167.684ZM60.118 172.892C59.7069 172.892 59.3528 172.795 59.0559 172.601C58.759 172.407 58.5305 172.139 58.3706 171.799C58.2108 171.458 58.1308 171.069 58.1308 170.631C58.1308 170.185 58.2127 169.792 58.3764 169.452C58.542 169.109 58.7723 168.842 59.0673 168.649C59.3643 168.455 59.7107 168.358 60.1066 168.358C60.415 168.358 60.6929 168.415 60.9403 168.529C61.1878 168.644 61.3905 168.804 61.5485 169.009C61.7065 169.215 61.8045 169.455 61.8426 169.729H61.1687C61.1173 169.529 61.0031 169.352 60.8261 169.198C60.651 169.041 60.415 168.963 60.118 168.963C59.8553 168.963 59.625 169.032 59.4271 169.169C59.231 169.304 59.0778 169.495 58.9674 169.743C58.8589 169.988 58.8046 170.277 58.8046 170.608C58.8046 170.947 58.8579 171.242 58.9645 171.493C59.073 171.744 59.2253 171.939 59.4214 172.078C59.6193 172.217 59.8515 172.287 60.118 172.287C60.2931 172.287 60.4521 172.256 60.5948 172.195C60.7376 172.135 60.8585 172.047 60.9574 171.933C61.0564 171.819 61.1269 171.682 61.1687 171.522H61.8426C61.8045 171.781 61.7103 172.014 61.5599 172.221C61.4114 172.427 61.2144 172.59 60.9689 172.712C60.7252 172.832 60.4416 172.892 60.118 172.892ZM63.4557 171.202L63.4443 170.368H63.5814L65.5 168.415H66.3338L64.2894 170.482H64.2323L63.4557 171.202ZM62.8276 172.801V166.953H63.5014V172.801H62.8276ZM65.6142 172.801L63.9011 170.631L64.3808 170.163L66.4708 172.801H65.6142ZM68.8592 172.892C68.4366 172.892 68.0721 172.799 67.7656 172.612C67.4611 172.424 67.226 172.161 67.0604 171.824C66.8967 171.485 66.8149 171.091 66.8149 170.642C66.8149 170.193 66.8967 169.797 67.0604 169.455C67.226 169.11 67.4563 168.842 67.7514 168.649C68.0483 168.455 68.3947 168.358 68.7906 168.358C69.0191 168.358 69.2446 168.396 69.4673 168.472C69.69 168.548 69.8927 168.672 70.0755 168.843C70.2582 169.013 70.4038 169.238 70.5123 169.517C70.6208 169.797 70.6751 170.142 70.6751 170.551V170.836H67.2945V170.254H69.9898C69.9898 170.007 69.9403 169.786 69.8414 169.592C69.7443 169.397 69.6053 169.244 69.4245 169.132C69.2456 169.02 69.0343 168.963 68.7906 168.963C68.5223 168.963 68.29 169.03 68.094 169.163C67.8998 169.295 67.7504 169.466 67.6457 169.677C67.541 169.888 67.4887 170.115 67.4887 170.357V170.745C67.4887 171.076 67.5458 171.357 67.66 171.587C67.7761 171.816 67.9369 171.99 68.1425 172.11C68.3481 172.228 68.587 172.287 68.8592 172.287C69.0362 172.287 69.1961 172.262 69.3388 172.213C69.4835 172.161 69.6082 172.085 69.7129 171.984C69.8176 171.881 69.8985 171.754 69.9556 171.602L70.6065 171.784C70.538 172.005 70.4229 172.199 70.2611 172.367C70.0993 172.532 69.8994 172.662 69.6615 172.755C69.4235 172.846 69.1561 172.892 68.8592 172.892ZM71.7001 172.801V168.415H72.3511V169.078H72.3967C72.4767 168.861 72.6214 168.685 72.8307 168.549C73.0401 168.414 73.2761 168.347 73.5388 168.347C73.5883 168.347 73.6502 168.348 73.7244 168.35C73.7986 168.351 73.8548 168.354 73.8929 168.358V169.043C73.87 169.038 73.8177 169.029 73.7358 169.018C73.6559 169.004 73.5712 168.998 73.4817 168.998C73.2685 168.998 73.0782 169.042 72.9107 169.132C72.7451 169.219 72.6137 169.341 72.5167 169.497C72.4215 169.652 72.3739 169.828 72.3739 170.026V172.801H71.7001Z" fill="#FAFAFA"/>
<rect width="125.628" height="25.0804" transform="translate(101.941 97.4883)" fill="#3E4652"/>
<path d="M134.213 108.69C134.185 108.405 134.059 108.179 133.836 108.01C133.613 107.842 133.332 107.758 132.994 107.758C132.756 107.758 132.546 107.799 132.365 107.881C132.185 107.962 132.043 108.075 131.94 108.22C131.838 108.364 131.788 108.527 131.788 108.71C131.788 108.845 131.817 108.963 131.875 109.065C131.933 109.166 132.012 109.254 132.11 109.327C132.21 109.399 132.32 109.46 132.44 109.512C132.561 109.564 132.684 109.607 132.807 109.642L133.347 109.797C133.51 109.842 133.673 109.899 133.836 109.969C133.999 110.039 134.149 110.127 134.283 110.234C134.42 110.339 134.529 110.468 134.611 110.621C134.694 110.773 134.736 110.955 134.736 111.168C134.736 111.441 134.665 111.687 134.523 111.905C134.382 112.123 134.179 112.297 133.914 112.425C133.649 112.551 133.332 112.615 132.962 112.615C132.614 112.615 132.311 112.557 132.055 112.442C131.798 112.326 131.597 112.165 131.45 111.96C131.304 111.755 131.221 111.518 131.203 111.248H131.683C131.699 111.45 131.766 111.62 131.883 111.76C131.999 111.9 132.151 112.007 132.337 112.08C132.524 112.152 132.732 112.188 132.962 112.188C133.217 112.188 133.443 112.145 133.641 112.06C133.841 111.974 133.998 111.854 134.111 111.7C134.226 111.546 134.283 111.366 134.283 111.161C134.283 110.988 134.238 110.843 134.149 110.726C134.059 110.608 133.933 110.509 133.771 110.429C133.611 110.349 133.426 110.278 133.214 110.216L132.602 110.037C132.201 109.917 131.889 109.751 131.668 109.539C131.446 109.328 131.335 109.058 131.335 108.73C131.335 108.455 131.409 108.214 131.555 108.005C131.704 107.796 131.903 107.632 132.155 107.516C132.408 107.398 132.692 107.338 133.007 107.338C133.325 107.338 133.606 107.397 133.851 107.513C134.096 107.63 134.29 107.791 134.433 107.995C134.578 108.199 134.656 108.43 134.666 108.69H134.213ZM139.34 107.411H139.808V110.799C139.808 111.147 139.726 111.458 139.563 111.733C139.399 112.006 139.172 112.222 138.881 112.38C138.591 112.537 138.254 112.615 137.869 112.615C137.486 112.615 137.149 112.536 136.857 112.377C136.566 112.219 136.338 112.004 136.175 111.73C136.012 111.457 135.93 111.147 135.93 110.799V107.411H136.397V110.766C136.397 111.038 136.458 111.28 136.58 111.493C136.701 111.705 136.872 111.871 137.092 111.993C137.313 112.114 137.572 112.175 137.869 112.175C138.165 112.175 138.424 112.114 138.646 111.993C138.867 111.871 139.038 111.705 139.158 111.493C139.28 111.28 139.34 111.038 139.34 110.766V107.411ZM141.236 112.527V107.411H142.887C143.25 107.411 143.553 107.477 143.796 107.608C144.041 107.738 144.225 107.919 144.349 108.15C144.474 108.38 144.536 108.644 144.536 108.942C144.536 109.24 144.474 109.504 144.349 109.732C144.225 109.96 144.042 110.138 143.799 110.266C143.556 110.395 143.254 110.459 142.895 110.459H141.488V110.032H142.882C143.149 110.032 143.37 109.987 143.547 109.899C143.725 109.811 143.857 109.685 143.944 109.522C144.032 109.359 144.076 109.165 144.076 108.942C144.076 108.719 144.032 108.524 143.944 108.358C143.856 108.189 143.722 108.06 143.544 107.968C143.368 107.876 143.144 107.831 142.875 107.831H141.703V112.527H141.236ZM143.492 110.219L144.751 112.527H144.211L142.965 110.219H143.492ZM145.649 107.411L147.248 111.92H147.293L148.891 107.411H149.381L147.52 112.527H147.02L145.159 107.411H145.649ZM150.328 112.527V107.411H153.296V107.831H150.796V109.757H153.139V110.176H150.796V112.108H153.346V112.527H150.328ZM154.096 107.411H154.636L156.152 109.839H156.197L157.714 107.411H158.253L156.407 110.311V112.527H155.942V110.311L154.096 107.411ZM161.25 112.527V107.411H164.218V107.831H161.717V109.757H164.061V110.176H161.717V112.108H164.268V112.527H161.25ZM165.498 112.527V107.411H165.965V112.108H168.403V112.527H165.498ZM169.525 112.527V107.411H172.493V107.831H169.993V109.757H172.336V110.176H169.993V112.108H172.543V112.527H169.525ZM173.773 107.411H174.312L176.169 111.868H176.214L178.07 107.411H178.61V112.527H178.17V108.398H178.13L176.404 112.527H175.979L174.253 108.398H174.213V112.527H173.773V107.411ZM180.04 112.527V107.411H183.008V107.831H180.507V109.757H182.851V110.176H180.507V112.108H183.058V112.527H180.04ZM188.272 107.411V112.527H187.818L184.795 108.243H184.755V112.527H184.288V107.411H184.74L187.773 111.7H187.813V107.411H188.272ZM189.393 107.831V107.411H193.103V107.831H191.482V112.527H191.015V107.831H189.393ZM197.004 108.69C196.975 108.405 196.849 108.179 196.626 108.01C196.403 107.842 196.122 107.758 195.784 107.758C195.546 107.758 195.336 107.799 195.155 107.881C194.975 107.962 194.833 108.075 194.73 108.22C194.628 108.364 194.578 108.527 194.578 108.71C194.578 108.845 194.607 108.963 194.665 109.065C194.723 109.166 194.802 109.254 194.9 109.327C195 109.399 195.11 109.46 195.23 109.512C195.351 109.564 195.474 109.607 195.597 109.642L196.137 109.797C196.3 109.842 196.463 109.899 196.626 109.969C196.79 110.039 196.939 110.127 197.073 110.234C197.21 110.339 197.319 110.468 197.401 110.621C197.484 110.773 197.526 110.955 197.526 111.168C197.526 111.441 197.455 111.687 197.313 111.905C197.172 112.123 196.969 112.297 196.704 112.425C196.439 112.551 196.122 112.615 195.752 112.615C195.404 112.615 195.102 112.557 194.845 112.442C194.589 112.326 194.387 112.165 194.24 111.96C194.094 111.755 194.011 111.518 193.993 111.248H194.473C194.489 111.45 194.556 111.62 194.673 111.76C194.789 111.9 194.941 112.007 195.127 112.08C195.314 112.152 195.522 112.188 195.752 112.188C196.007 112.188 196.233 112.145 196.431 112.06C196.631 111.974 196.788 111.854 196.901 111.7C197.016 111.546 197.073 111.366 197.073 111.161C197.073 110.988 197.029 110.843 196.939 110.726C196.849 110.608 196.723 110.509 196.561 110.429C196.401 110.349 196.216 110.278 196.004 110.216L195.392 110.037C194.991 109.917 194.679 109.751 194.458 109.539C194.236 109.328 194.126 109.058 194.126 108.73C194.126 108.455 194.199 108.214 194.345 108.005C194.494 107.796 194.693 107.632 194.945 107.516C195.198 107.398 195.482 107.338 195.797 107.338C196.115 107.338 196.396 107.397 196.641 107.513C196.886 107.63 197.08 107.791 197.223 107.995C197.368 108.199 197.446 108.43 197.456 108.69H197.004Z" fill="white"/>
<rect width="125.628" height="26.1307" transform="translate(101.941 122.57)" fill="#545F6F"/>
<path d="M119.52 134.379C119.473 134.232 119.383 134.103 119.262 134.008C119.142 133.912 118.996 133.854 118.843 133.84L116.605 133.647L115.73 131.56C115.669 131.419 115.569 131.298 115.44 131.212C115.312 131.127 115.161 131.082 115.007 131.082C114.853 131.082 114.702 131.127 114.573 131.212C114.445 131.298 114.344 131.419 114.284 131.56L113.407 133.647L111.17 133.84C111.015 133.853 110.869 133.911 110.747 134.007C110.626 134.103 110.536 134.232 110.488 134.38C110.44 134.527 110.437 134.685 110.478 134.834C110.52 134.982 110.604 135.116 110.721 135.217L112.422 136.701L111.912 138.909C111.877 139.059 111.887 139.217 111.941 139.361C111.995 139.506 112.09 139.631 112.215 139.722C112.34 139.813 112.489 139.865 112.643 139.871C112.797 139.878 112.95 139.839 113.082 139.759L115.006 138.591L116.929 139.759C117.061 139.839 117.214 139.878 117.368 139.871C117.522 139.864 117.671 139.812 117.796 139.722C117.921 139.631 118.016 139.506 118.07 139.361C118.124 139.216 118.134 139.059 118.099 138.909L117.589 136.701L119.289 135.217C119.406 135.116 119.49 134.982 119.532 134.833C119.573 134.684 119.569 134.526 119.52 134.379ZM116.9 136.052C116.792 136.146 116.712 136.267 116.668 136.403C116.624 136.538 116.618 136.684 116.651 136.823L117.098 138.759L115.412 137.735C115.289 137.66 115.149 137.621 115.006 137.621C114.862 137.621 114.722 137.66 114.599 137.735L112.913 138.759L113.361 136.823C113.393 136.684 113.387 136.538 113.343 136.403C113.299 136.267 113.219 136.146 113.111 136.052L111.616 134.747L113.584 134.577C113.727 134.565 113.863 134.514 113.979 134.429C114.094 134.345 114.185 134.231 114.24 134.098L115.006 132.273L115.772 134.098C115.827 134.231 115.917 134.345 116.032 134.429C116.148 134.514 116.284 134.565 116.427 134.577L118.395 134.747L116.9 136.052Z" fill="white"/>
<path d="M135.998 134.251C135.963 133.962 135.824 133.737 135.581 133.577C135.337 133.417 135.038 133.337 134.684 133.337C134.425 133.337 134.199 133.379 134.005 133.463C133.813 133.547 133.662 133.662 133.554 133.809C133.447 133.955 133.394 134.122 133.394 134.308C133.394 134.464 133.431 134.599 133.505 134.711C133.581 134.821 133.678 134.914 133.796 134.988C133.914 135.06 134.038 135.12 134.168 135.168C134.297 135.213 134.416 135.25 134.524 135.279L135.118 135.439C135.271 135.479 135.44 135.534 135.627 135.605C135.815 135.675 135.995 135.771 136.166 135.893C136.339 136.013 136.482 136.167 136.594 136.355C136.707 136.544 136.763 136.775 136.763 137.049C136.763 137.365 136.68 137.651 136.514 137.906C136.351 138.161 136.111 138.364 135.795 138.514C135.481 138.664 135.099 138.74 134.65 138.74C134.231 138.74 133.869 138.672 133.562 138.537C133.258 138.402 133.018 138.213 132.843 137.971C132.669 137.73 132.571 137.449 132.549 137.129H133.28C133.299 137.35 133.373 137.533 133.502 137.677C133.634 137.82 133.799 137.927 133.999 137.997C134.201 138.066 134.418 138.1 134.65 138.1C134.92 138.1 135.163 138.056 135.378 137.969C135.593 137.879 135.764 137.755 135.889 137.597C136.015 137.438 136.078 137.251 136.078 137.038C136.078 136.844 136.023 136.686 135.915 136.564C135.806 136.442 135.664 136.343 135.487 136.267C135.31 136.191 135.118 136.124 134.913 136.067L134.193 135.861C133.736 135.73 133.375 135.543 133.108 135.299C132.842 135.055 132.709 134.737 132.709 134.343C132.709 134.015 132.797 133.73 132.974 133.486C133.153 133.24 133.393 133.05 133.694 132.915C133.996 132.778 134.334 132.709 134.707 132.709C135.084 132.709 135.419 132.777 135.712 132.912C136.005 133.045 136.238 133.228 136.409 133.46C136.582 133.692 136.673 133.956 136.683 134.251H135.998ZM139.743 134.251V134.822H137.47V134.251H139.743ZM138.133 133.2H138.806V137.38C138.806 137.571 138.834 137.714 138.889 137.809C138.946 137.902 139.019 137.965 139.106 137.997C139.196 138.028 139.29 138.043 139.389 138.043C139.463 138.043 139.524 138.039 139.572 138.031C139.619 138.022 139.657 138.014 139.686 138.009L139.823 138.614C139.777 138.631 139.713 138.648 139.632 138.665C139.55 138.684 139.446 138.694 139.32 138.694C139.13 138.694 138.944 138.653 138.761 138.571C138.58 138.489 138.43 138.365 138.31 138.197C138.192 138.03 138.133 137.818 138.133 137.563V133.2ZM142.047 138.74C141.769 138.74 141.517 138.687 141.29 138.582C141.064 138.476 140.884 138.323 140.751 138.123C140.618 137.921 140.551 137.677 140.551 137.392C140.551 137.141 140.6 136.937 140.699 136.781C140.798 136.623 140.931 136.499 141.096 136.41C141.262 136.32 141.445 136.254 141.645 136.21C141.846 136.164 142.049 136.128 142.253 136.101C142.519 136.067 142.735 136.041 142.901 136.024C143.068 136.005 143.19 135.974 143.266 135.93C143.344 135.886 143.383 135.81 143.383 135.702V135.679C143.383 135.397 143.306 135.178 143.152 135.022C143 134.866 142.769 134.788 142.458 134.788C142.137 134.788 141.884 134.858 141.702 134.999C141.519 135.14 141.39 135.29 141.316 135.45L140.677 135.222C140.791 134.955 140.943 134.748 141.133 134.599C141.326 134.449 141.535 134.344 141.762 134.285C141.99 134.225 142.215 134.194 142.435 134.194C142.576 134.194 142.738 134.211 142.921 134.245C143.105 134.278 143.283 134.345 143.455 134.448C143.628 134.551 143.772 134.706 143.886 134.914C144 135.121 144.057 135.399 144.057 135.747V138.637H143.383V138.043H143.349C143.303 138.138 143.227 138.24 143.121 138.348C143.014 138.457 142.872 138.549 142.695 138.625C142.518 138.701 142.302 138.74 142.047 138.74ZM142.15 138.134C142.416 138.134 142.641 138.082 142.824 137.977C143.008 137.872 143.147 137.737 143.241 137.572C143.336 137.406 143.383 137.232 143.383 137.049V136.433C143.355 136.467 143.292 136.498 143.195 136.527C143.1 136.553 142.989 136.577 142.864 136.598C142.74 136.617 142.619 136.634 142.501 136.65C142.385 136.663 142.291 136.674 142.218 136.684C142.043 136.707 141.88 136.744 141.727 136.795C141.577 136.845 141.455 136.92 141.362 137.021C141.271 137.12 141.225 137.255 141.225 137.426C141.225 137.66 141.311 137.837 141.485 137.957C141.66 138.075 141.882 138.134 142.15 138.134ZM145.287 138.637V134.251H145.938V134.914H145.984C146.064 134.697 146.208 134.52 146.418 134.385C146.627 134.25 146.863 134.183 147.126 134.183C147.175 134.183 147.237 134.184 147.311 134.185C147.386 134.187 147.442 134.19 147.48 134.194V134.879C147.457 134.874 147.405 134.865 147.323 134.854C147.243 134.84 147.158 134.834 147.069 134.834C146.855 134.834 146.665 134.878 146.498 134.968C146.332 135.055 146.201 135.177 146.104 135.333C146.008 135.487 145.961 135.664 145.961 135.861V138.637H145.287ZM150.461 134.251V134.822H148.188V134.251H150.461ZM148.85 133.2H149.524V137.38C149.524 137.571 149.552 137.714 149.607 137.809C149.664 137.902 149.736 137.965 149.824 137.997C149.913 138.028 150.008 138.043 150.107 138.043C150.181 138.043 150.242 138.039 150.289 138.031C150.337 138.022 150.375 138.014 150.404 138.009L150.541 138.614C150.495 138.631 150.431 138.648 150.349 138.665C150.267 138.684 150.164 138.694 150.038 138.694C149.848 138.694 149.661 138.653 149.478 138.571C149.298 138.489 149.147 138.365 149.027 138.197C148.909 138.03 148.85 137.818 148.85 137.563V133.2ZM153.827 138.637V132.789H155.803C156.26 132.789 156.634 132.867 156.928 133.023C157.221 133.178 157.438 133.39 157.579 133.66C157.719 133.93 157.79 134.238 157.79 134.582C157.79 134.927 157.719 135.232 157.579 135.499C157.438 135.765 157.222 135.975 156.93 136.127C156.639 136.277 156.267 136.353 155.814 136.353H154.215V135.713H155.791C156.103 135.713 156.355 135.667 156.545 135.576C156.737 135.485 156.876 135.355 156.962 135.188C157.049 135.018 157.093 134.816 157.093 134.582C157.093 134.348 157.049 134.144 156.962 133.968C156.874 133.793 156.734 133.658 156.542 133.563C156.35 133.466 156.096 133.417 155.78 133.417H154.535V138.637H153.827ZM156.579 136.01L158.018 138.637H157.196L155.78 136.01H156.579ZM160.169 138.74C159.891 138.74 159.639 138.687 159.412 138.582C159.186 138.476 159.006 138.323 158.873 138.123C158.739 137.921 158.673 137.677 158.673 137.392C158.673 137.141 158.722 136.937 158.821 136.781C158.92 136.623 159.053 136.499 159.218 136.41C159.384 136.32 159.567 136.254 159.766 136.21C159.968 136.164 160.171 136.128 160.375 136.101C160.641 136.067 160.857 136.041 161.023 136.024C161.19 136.005 161.312 135.974 161.388 135.93C161.466 135.886 161.505 135.81 161.505 135.702V135.679C161.505 135.397 161.428 135.178 161.274 135.022C161.122 134.866 160.89 134.788 160.58 134.788C160.258 134.788 160.006 134.858 159.823 134.999C159.641 135.14 159.512 135.29 159.438 135.45L158.798 135.222C158.913 134.955 159.065 134.748 159.255 134.599C159.448 134.449 159.657 134.344 159.883 134.285C160.112 134.225 160.336 134.194 160.557 134.194C160.698 134.194 160.86 134.211 161.043 134.245C161.227 134.278 161.405 134.345 161.577 134.448C161.75 134.551 161.894 134.706 162.008 134.914C162.122 135.121 162.179 135.399 162.179 135.747V138.637H161.505V138.043H161.471C161.425 138.138 161.349 138.24 161.243 138.348C161.136 138.457 160.994 138.549 160.817 138.625C160.64 138.701 160.424 138.74 160.169 138.74ZM160.272 138.134C160.538 138.134 160.763 138.082 160.946 137.977C161.13 137.872 161.269 137.737 161.362 137.572C161.458 137.406 161.505 137.232 161.505 137.049V136.433C161.477 136.467 161.414 136.498 161.317 136.527C161.222 136.553 161.111 136.577 160.986 136.598C160.862 136.617 160.741 136.634 160.623 136.65C160.507 136.663 160.413 136.674 160.34 136.684C160.165 136.707 160.001 136.744 159.849 136.795C159.699 136.845 159.577 136.92 159.484 137.021C159.392 137.12 159.347 137.255 159.347 137.426C159.347 137.66 159.433 137.837 159.607 137.957C159.782 138.075 160.003 138.134 160.272 138.134ZM165.316 134.251V134.822H163.043V134.251H165.316ZM163.706 133.2H164.38V137.38C164.38 137.571 164.407 137.714 164.462 137.809C164.52 137.902 164.592 137.965 164.679 137.997C164.769 138.028 164.863 138.043 164.962 138.043C165.036 138.043 165.097 138.039 165.145 138.031C165.192 138.022 165.231 138.014 165.259 138.009L165.396 138.614C165.35 138.631 165.287 138.648 165.205 138.665C165.123 138.684 165.019 138.694 164.894 138.694C164.703 138.694 164.517 138.653 164.334 138.571C164.153 138.489 164.003 138.365 163.883 138.197C163.765 138.03 163.706 137.818 163.706 137.563V133.2ZM166.33 138.637V134.251H167.004V138.637H166.33ZM166.672 133.52C166.541 133.52 166.428 133.475 166.333 133.386C166.239 133.297 166.193 133.189 166.193 133.063C166.193 132.938 166.239 132.83 166.333 132.741C166.428 132.651 166.541 132.607 166.672 132.607C166.804 132.607 166.916 132.651 167.009 132.741C167.104 132.83 167.152 132.938 167.152 133.063C167.152 133.189 167.104 133.297 167.009 133.386C166.916 133.475 166.804 133.52 166.672 133.52ZM168.912 135.999V138.637H168.238V134.251H168.889V134.936H168.946C169.049 134.714 169.205 134.535 169.414 134.4C169.623 134.263 169.894 134.194 170.225 134.194C170.522 134.194 170.782 134.255 171.004 134.377C171.227 134.497 171.4 134.679 171.524 134.925C171.648 135.169 171.71 135.477 171.71 135.85V138.637H171.036V135.896C171.036 135.551 170.946 135.283 170.767 135.091C170.588 134.896 170.343 134.799 170.031 134.799C169.816 134.799 169.623 134.846 169.454 134.939C169.287 135.033 169.154 135.169 169.057 135.348C168.96 135.526 168.912 135.743 168.912 135.999ZM174.711 140.373C174.386 140.373 174.106 140.331 173.872 140.247C173.638 140.165 173.442 140.057 173.286 139.922C173.132 139.788 173.009 139.646 172.918 139.493L173.455 139.116C173.516 139.196 173.593 139.288 173.686 139.39C173.779 139.495 173.907 139.586 174.069 139.662C174.232 139.74 174.447 139.779 174.711 139.779C175.065 139.779 175.357 139.693 175.588 139.522C175.818 139.351 175.933 139.082 175.933 138.717V137.826H175.876C175.827 137.906 175.756 138.005 175.665 138.123C175.575 138.239 175.446 138.343 175.276 138.434C175.109 138.523 174.882 138.568 174.597 138.568C174.243 138.568 173.925 138.484 173.643 138.317C173.363 138.149 173.142 137.906 172.978 137.586C172.816 137.266 172.735 136.878 172.735 136.421C172.735 135.972 172.814 135.581 172.972 135.248C173.13 134.913 173.35 134.654 173.632 134.471C173.914 134.286 174.239 134.194 174.608 134.194C174.894 134.194 175.12 134.242 175.288 134.337C175.457 134.43 175.587 134.537 175.676 134.657C175.768 134.775 175.838 134.872 175.887 134.948H175.956V134.251H176.607V138.762C176.607 139.139 176.521 139.446 176.35 139.682C176.181 139.92 175.952 140.094 175.665 140.204C175.379 140.317 175.061 140.373 174.711 140.373ZM174.688 137.963C174.959 137.963 175.187 137.901 175.374 137.777C175.56 137.654 175.702 137.476 175.799 137.243C175.896 137.011 175.945 136.733 175.945 136.41C175.945 136.094 175.897 135.815 175.802 135.573C175.707 135.331 175.566 135.142 175.379 135.005C175.193 134.868 174.962 134.799 174.688 134.799C174.403 134.799 174.165 134.872 173.975 135.016C173.786 135.161 173.644 135.355 173.549 135.599C173.456 135.842 173.409 136.113 173.409 136.41C173.409 136.714 173.457 136.984 173.552 137.218C173.649 137.45 173.792 137.633 173.98 137.766C174.171 137.897 174.407 137.963 174.688 137.963Z" fill="#FAFAFA"/>
<line x1="101.941" y1="148.197" x2="227.57" y2="148.197" stroke="#616B78" stroke-width="1.00503"/>
<rect width="125.628" height="26.1307" transform="translate(101.941 148.699)" fill="#545F6F"/>
<g clip-path="url(#clip1_5828_3763)">
<path d="M117.205 157.996L115.635 159.174V161.215L114.692 160.509L113.122 161.686V163.728L112.18 163.021L110.609 164.199V166.162H111.238V164.513L112.18 163.806L113.122 164.513V166.162H113.75V162L114.692 161.294L115.635 162V166.162H116.263V159.488L117.205 158.781L118.147 159.488V166.162H118.775V159.174L117.205 157.996Z" fill="white"/>
</g>
<path d="M135.998 160.38C135.963 160.091 135.824 159.866 135.581 159.706C135.337 159.546 135.038 159.466 134.684 159.466C134.425 159.466 134.199 159.508 134.005 159.592C133.813 159.676 133.662 159.791 133.554 159.938C133.447 160.084 133.394 160.251 133.394 160.437C133.394 160.593 133.431 160.727 133.505 160.84C133.581 160.95 133.678 161.042 133.796 161.117C133.914 161.189 134.038 161.249 134.168 161.297C134.297 161.342 134.416 161.379 134.524 161.408L135.118 161.568C135.271 161.608 135.44 161.663 135.627 161.733C135.815 161.804 135.995 161.9 136.166 162.022C136.339 162.142 136.482 162.296 136.594 162.484C136.707 162.673 136.763 162.904 136.763 163.178C136.763 163.494 136.68 163.78 136.514 164.035C136.351 164.29 136.111 164.492 135.795 164.643C135.481 164.793 135.099 164.868 134.65 164.868C134.231 164.868 133.869 164.801 133.562 164.666C133.258 164.531 133.018 164.342 132.843 164.1C132.669 163.859 132.571 163.578 132.549 163.258H133.28C133.299 163.479 133.373 163.662 133.502 163.806C133.634 163.949 133.799 164.056 133.999 164.126C134.201 164.195 134.418 164.229 134.65 164.229C134.92 164.229 135.163 164.185 135.378 164.098C135.593 164.008 135.764 163.884 135.889 163.726C136.015 163.566 136.078 163.38 136.078 163.167C136.078 162.973 136.023 162.815 135.915 162.693C135.806 162.571 135.664 162.472 135.487 162.396C135.31 162.32 135.118 162.253 134.913 162.196L134.193 161.99C133.736 161.859 133.375 161.672 133.108 161.428C132.842 161.184 132.709 160.865 132.709 160.471C132.709 160.144 132.797 159.859 132.974 159.615C133.153 159.369 133.393 159.179 133.694 159.044C133.996 158.907 134.334 158.838 134.707 158.838C135.084 158.838 135.419 158.906 135.712 159.041C136.005 159.174 136.238 159.357 136.409 159.589C136.582 159.821 136.673 160.085 136.683 160.38H135.998ZM139.617 164.857C139.206 164.857 138.852 164.76 138.555 164.566C138.258 164.372 138.03 164.104 137.87 163.763C137.71 163.423 137.63 163.033 137.63 162.596C137.63 162.15 137.712 161.757 137.876 161.416C138.041 161.074 138.272 160.806 138.567 160.614C138.864 160.42 139.21 160.323 139.606 160.323C139.914 160.323 140.192 160.38 140.44 160.494C140.687 160.608 140.89 160.768 141.048 160.974C141.206 161.18 141.304 161.419 141.342 161.693H140.668C140.617 161.494 140.502 161.317 140.325 161.162C140.15 161.006 139.914 160.928 139.617 160.928C139.355 160.928 139.124 160.997 138.926 161.134C138.73 161.269 138.577 161.46 138.467 161.708C138.358 161.953 138.304 162.242 138.304 162.573C138.304 162.912 138.357 163.207 138.464 163.458C138.572 163.709 138.725 163.904 138.921 164.043C139.119 164.182 139.351 164.252 139.617 164.252C139.792 164.252 139.951 164.221 140.094 164.16C140.237 164.099 140.358 164.012 140.457 163.898C140.556 163.783 140.626 163.646 140.668 163.487H141.342C141.304 163.745 141.21 163.979 141.059 164.186C140.911 164.392 140.714 164.555 140.468 164.677C140.225 164.797 139.941 164.857 139.617 164.857ZM143.617 164.868C143.34 164.868 143.087 164.816 142.861 164.711C142.634 164.605 142.454 164.452 142.321 164.252C142.188 164.05 142.121 163.806 142.121 163.521C142.121 163.27 142.171 163.066 142.27 162.91C142.369 162.752 142.501 162.628 142.667 162.539C142.832 162.449 143.015 162.382 143.215 162.339C143.417 162.293 143.619 162.257 143.823 162.23C144.09 162.196 144.306 162.17 144.471 162.153C144.639 162.134 144.76 162.103 144.837 162.059C144.915 162.015 144.954 161.939 144.954 161.83V161.808C144.954 161.526 144.877 161.307 144.722 161.151C144.57 160.995 144.339 160.917 144.029 160.917C143.707 160.917 143.455 160.987 143.272 161.128C143.089 161.269 142.961 161.419 142.887 161.579L142.247 161.351C142.361 161.084 142.513 160.877 142.704 160.728C142.896 160.578 143.105 160.473 143.332 160.414C143.56 160.353 143.785 160.323 144.006 160.323C144.147 160.323 144.308 160.34 144.491 160.374C144.676 160.407 144.854 160.474 145.025 160.577C145.198 160.68 145.342 160.835 145.456 161.042C145.57 161.25 145.628 161.528 145.628 161.876V164.766H144.954V164.172H144.919C144.874 164.267 144.798 164.369 144.691 164.477C144.584 164.586 144.443 164.678 144.266 164.754C144.089 164.83 143.873 164.868 143.617 164.868ZM143.72 164.263C143.987 164.263 144.211 164.211 144.394 164.106C144.579 164.001 144.718 163.866 144.811 163.701C144.906 163.535 144.954 163.361 144.954 163.178V162.561C144.925 162.596 144.862 162.627 144.765 162.656C144.67 162.682 144.56 162.706 144.434 162.727C144.31 162.746 144.189 162.763 144.071 162.778C143.955 162.792 143.861 162.803 143.789 162.813C143.614 162.836 143.45 162.873 143.298 162.924C143.147 162.974 143.025 163.049 142.932 163.15C142.841 163.249 142.795 163.384 142.795 163.555C142.795 163.789 142.882 163.966 143.055 164.086C143.23 164.204 143.452 164.263 143.72 164.263ZM147.531 158.918V164.766H146.857V158.918H147.531ZM150.604 164.857C150.182 164.857 149.817 164.764 149.511 164.577C149.206 164.389 148.971 164.126 148.805 163.789C148.642 163.45 148.56 163.056 148.56 162.607C148.56 162.158 148.642 161.762 148.805 161.419C148.971 161.075 149.201 160.806 149.496 160.614C149.793 160.42 150.14 160.323 150.536 160.323C150.764 160.323 150.99 160.361 151.212 160.437C151.435 160.513 151.638 160.637 151.82 160.808C152.003 160.978 152.149 161.202 152.257 161.482C152.366 161.762 152.42 162.106 152.42 162.516V162.801H149.039V162.219H151.735C151.735 161.971 151.685 161.751 151.586 161.556C151.489 161.362 151.35 161.209 151.169 161.097C150.991 160.984 150.779 160.928 150.536 160.928C150.267 160.928 150.035 160.995 149.839 161.128C149.645 161.259 149.495 161.431 149.391 161.642C149.286 161.853 149.234 162.08 149.234 162.322V162.71C149.234 163.041 149.291 163.322 149.405 163.552C149.521 163.781 149.682 163.955 149.887 164.075C150.093 164.193 150.332 164.252 150.604 164.252C150.781 164.252 150.941 164.227 151.084 164.177C151.228 164.126 151.353 164.05 151.458 163.949C151.562 163.846 151.643 163.719 151.7 163.566L152.351 163.749C152.283 163.97 152.168 164.164 152.006 164.332C151.844 164.497 151.644 164.627 151.406 164.72C151.168 164.811 150.901 164.857 150.604 164.857ZM155.798 164.766V158.918H157.773C158.23 158.918 158.605 158.996 158.898 159.152C159.192 159.307 159.409 159.519 159.549 159.789C159.69 160.059 159.761 160.367 159.761 160.711C159.761 161.056 159.69 161.361 159.549 161.628C159.409 161.894 159.193 162.104 158.901 162.256C158.61 162.406 158.238 162.481 157.785 162.481H156.186V161.842H157.762C158.074 161.842 158.325 161.796 158.516 161.705C158.708 161.614 158.847 161.484 158.933 161.317C159.02 161.147 159.064 160.945 159.064 160.711C159.064 160.477 159.02 160.273 158.933 160.097C158.845 159.922 158.705 159.787 158.513 159.692C158.321 159.595 158.067 159.546 157.751 159.546H156.506V164.766H155.798ZM158.55 162.139L159.989 164.766H159.167L157.751 162.139H158.55ZM162.14 164.868C161.862 164.868 161.61 164.816 161.383 164.711C161.157 164.605 160.977 164.452 160.844 164.252C160.71 164.05 160.644 163.806 160.644 163.521C160.644 163.27 160.693 163.066 160.792 162.91C160.891 162.752 161.023 162.628 161.189 162.539C161.355 162.449 161.537 162.382 161.737 162.339C161.939 162.293 162.142 162.257 162.345 162.23C162.612 162.196 162.828 162.17 162.993 162.153C163.161 162.134 163.283 162.103 163.359 162.059C163.437 162.015 163.476 161.939 163.476 161.83V161.808C163.476 161.526 163.399 161.307 163.245 161.151C163.092 160.995 162.861 160.917 162.551 160.917C162.229 160.917 161.977 160.987 161.794 161.128C161.612 161.269 161.483 161.419 161.409 161.579L160.769 161.351C160.883 161.084 161.036 160.877 161.226 160.728C161.418 160.578 161.628 160.473 161.854 160.414C162.083 160.353 162.307 160.323 162.528 160.323C162.669 160.323 162.831 160.34 163.013 160.374C163.198 160.407 163.376 160.474 163.547 160.577C163.721 160.68 163.864 160.835 163.979 161.042C164.093 161.25 164.15 161.528 164.15 161.876V164.766H163.476V164.172H163.442C163.396 164.267 163.32 164.369 163.213 164.477C163.107 164.586 162.965 164.678 162.788 164.754C162.611 164.83 162.395 164.868 162.14 164.868ZM162.243 164.263C162.509 164.263 162.734 164.211 162.916 164.106C163.101 164.001 163.24 163.866 163.333 163.701C163.428 163.535 163.476 163.361 163.476 163.178V162.561C163.447 162.596 163.385 162.627 163.288 162.656C163.192 162.682 163.082 162.706 162.956 162.727C162.833 162.746 162.712 162.763 162.594 162.778C162.478 162.792 162.383 162.803 162.311 162.813C162.136 162.836 161.972 162.873 161.82 162.924C161.67 162.974 161.548 163.049 161.455 163.15C161.363 163.249 161.317 163.384 161.317 163.555C161.317 163.789 161.404 163.966 161.577 164.086C161.752 164.204 161.974 164.263 162.243 164.263ZM167.287 160.38V160.951H165.014V160.38H167.287ZM165.677 159.329H166.35V163.509C166.35 163.7 166.378 163.842 166.433 163.938C166.49 164.031 166.563 164.094 166.65 164.126C166.74 164.157 166.834 164.172 166.933 164.172C167.007 164.172 167.068 164.168 167.116 164.16C167.163 164.151 167.201 164.143 167.23 164.137L167.367 164.743C167.321 164.76 167.257 164.777 167.176 164.794C167.094 164.813 166.99 164.823 166.864 164.823C166.674 164.823 166.487 164.782 166.305 164.7C166.124 164.618 165.974 164.493 165.854 164.326C165.736 164.158 165.677 163.947 165.677 163.692V159.329ZM168.301 164.766V160.38H168.974V164.766H168.301ZM168.643 159.649C168.512 159.649 168.399 159.604 168.303 159.515C168.21 159.425 168.163 159.318 168.163 159.192C168.163 159.067 168.21 158.959 168.303 158.87C168.399 158.78 168.512 158.735 168.643 158.735C168.774 158.735 168.887 158.78 168.98 158.87C169.075 158.959 169.123 159.067 169.123 159.192C169.123 159.318 169.075 159.425 168.98 159.515C168.887 159.604 168.774 159.649 168.643 159.649ZM170.882 162.127V164.766H170.209V160.38H170.859V161.065H170.917C171.019 160.843 171.175 160.664 171.385 160.529C171.594 160.391 171.865 160.323 172.196 160.323C172.493 160.323 172.752 160.384 172.975 160.506C173.198 160.626 173.371 160.808 173.495 161.054C173.619 161.298 173.68 161.606 173.68 161.979V164.766H173.007V162.025C173.007 161.68 172.917 161.412 172.738 161.219C172.559 161.025 172.314 160.928 172.002 160.928C171.786 160.928 171.594 160.975 171.425 161.068C171.257 161.161 171.125 161.298 171.028 161.476C170.931 161.655 170.882 161.872 170.882 162.127ZM176.682 166.502C176.356 166.502 176.077 166.46 175.843 166.376C175.608 166.294 175.413 166.186 175.257 166.05C175.103 165.917 174.98 165.774 174.889 165.622L175.426 165.245C175.487 165.325 175.564 165.417 175.657 165.519C175.75 165.624 175.878 165.714 176.04 165.791C176.203 165.869 176.417 165.908 176.682 165.908C177.036 165.908 177.328 165.822 177.558 165.651C177.789 165.479 177.904 165.211 177.904 164.846V163.955H177.847C177.797 164.035 177.727 164.134 177.636 164.252C177.546 164.368 177.417 164.472 177.247 164.563C177.08 164.652 176.853 164.697 176.568 164.697C176.214 164.697 175.896 164.613 175.614 164.446C175.334 164.278 175.113 164.035 174.949 163.715C174.787 163.395 174.706 163.007 174.706 162.55C174.706 162.101 174.785 161.71 174.943 161.377C175.101 161.042 175.321 160.783 175.603 160.6C175.884 160.415 176.21 160.323 176.579 160.323C176.865 160.323 177.091 160.371 177.259 160.466C177.428 160.559 177.558 160.666 177.647 160.785C177.738 160.904 177.809 161.001 177.858 161.077H177.927V160.38H178.578V164.891C178.578 165.268 178.492 165.575 178.321 165.811C178.151 166.049 177.923 166.223 177.636 166.333C177.35 166.445 177.032 166.502 176.682 166.502ZM176.659 164.092C176.929 164.092 177.158 164.03 177.344 163.906C177.531 163.782 177.673 163.605 177.77 163.372C177.867 163.14 177.915 162.862 177.915 162.539C177.915 162.223 177.868 161.944 177.773 161.702C177.677 161.46 177.537 161.271 177.35 161.134C177.164 160.997 176.933 160.928 176.659 160.928C176.374 160.928 176.136 161.001 175.945 161.145C175.757 161.29 175.615 161.484 175.52 161.728C175.427 161.971 175.38 162.242 175.38 162.539C175.38 162.843 175.428 163.112 175.523 163.347C175.62 163.579 175.763 163.762 175.951 163.895C176.141 164.026 176.377 164.092 176.659 164.092Z" fill="#FAFAFA"/>
<line x1="101.941" y1="174.326" x2="227.57" y2="174.326" stroke="#616B78" stroke-width="1.00503"/>
<rect width="125.628" height="26.1307" transform="translate(101.941 174.828)" fill="#545F6F"/>
<path d="M111.236 186.218V185.38C111.236 185.158 111.325 184.945 111.482 184.788C111.639 184.631 111.852 184.543 112.074 184.543H117.936C118.159 184.543 118.372 184.631 118.529 184.788C118.686 184.945 118.774 185.158 118.774 185.38V186.218M111.236 186.218V188.731M111.236 186.218H113.749M118.774 186.218V188.731M118.774 186.218H113.749M111.236 188.731V190.406C111.236 190.628 111.325 190.841 111.482 190.998C111.639 191.155 111.852 191.243 112.074 191.243H113.749M111.236 188.731H113.749M113.749 186.218V188.731M118.774 188.731V190.406C118.774 190.628 118.686 190.841 118.529 190.998C118.372 191.155 118.159 191.243 117.936 191.243H113.749M118.774 188.731H113.749M113.749 191.243V188.731M116.261 186.218V191.243" stroke="white" stroke-width="0.837521" stroke-linecap="round" stroke-linejoin="round"/>
<path d="M133.508 185.047V190.895H132.8V185.047H133.508ZM135.51 188.256V190.895H134.836V186.509H135.487V187.194H135.544C135.647 186.972 135.803 186.793 136.013 186.657C136.222 186.52 136.492 186.452 136.824 186.452C137.12 186.452 137.38 186.513 137.603 186.635C137.826 186.755 137.999 186.937 138.123 187.183C138.246 187.426 138.308 187.735 138.308 188.108V190.895H137.634V188.154C137.634 187.809 137.545 187.541 137.366 187.348C137.187 187.154 136.942 187.057 136.629 187.057C136.414 187.057 136.222 187.104 136.053 187.197C135.885 187.29 135.753 187.426 135.656 187.605C135.559 187.784 135.51 188.001 135.51 188.256ZM139.54 192.539V186.509H140.191V187.206H140.27C140.32 187.129 140.388 187.032 140.476 186.914C140.566 186.794 140.693 186.688 140.859 186.595C141.026 186.499 141.253 186.452 141.538 186.452C141.907 186.452 142.233 186.544 142.515 186.729C142.796 186.913 143.016 187.175 143.174 187.514C143.332 187.853 143.411 188.253 143.411 188.713C143.411 189.178 143.332 189.58 143.174 189.921C143.016 190.26 142.797 190.522 142.518 190.709C142.238 190.894 141.915 190.986 141.55 190.986C141.268 190.986 141.042 190.939 140.873 190.846C140.704 190.751 140.573 190.643 140.482 190.523C140.39 190.402 140.32 190.301 140.27 190.221H140.213V192.539H139.54ZM140.202 188.702C140.202 189.033 140.25 189.325 140.348 189.578C140.445 189.83 140.586 190.027 140.773 190.169C140.96 190.31 141.188 190.381 141.458 190.381C141.74 190.381 141.975 190.306 142.163 190.158C142.354 190.008 142.497 189.806 142.592 189.553C142.689 189.298 142.737 189.014 142.737 188.702C142.737 188.393 142.69 188.115 142.595 187.868C142.501 187.619 142.36 187.422 142.169 187.277C141.981 187.13 141.744 187.057 141.458 187.057C141.184 187.057 140.954 187.127 140.767 187.266C140.581 187.403 140.44 187.595 140.345 187.842C140.25 188.088 140.202 188.374 140.202 188.702ZM147.203 189.101V186.509H147.877V190.895H147.203V190.152H147.157C147.054 190.375 146.895 190.564 146.678 190.72C146.461 190.875 146.186 190.952 145.855 190.952C145.581 190.952 145.337 190.892 145.124 190.772C144.911 190.65 144.744 190.467 144.622 190.224C144.5 189.978 144.439 189.669 144.439 189.296V186.509H145.113V189.25C145.113 189.57 145.202 189.825 145.381 190.015C145.562 190.205 145.792 190.301 146.072 190.301C146.24 190.301 146.41 190.258 146.583 190.172C146.758 190.087 146.905 189.955 147.023 189.778C147.143 189.601 147.203 189.376 147.203 189.101ZM151.018 186.509V187.08H148.745V186.509H151.018ZM149.408 185.458H150.082V189.638C150.082 189.829 150.109 189.971 150.164 190.067C150.222 190.16 150.294 190.223 150.381 190.255C150.471 190.285 150.565 190.301 150.664 190.301C150.738 190.301 150.799 190.297 150.847 190.289C150.894 190.28 150.932 190.272 150.961 190.266L151.098 190.872C151.052 190.889 150.989 190.906 150.907 190.923C150.825 190.942 150.721 190.952 150.596 190.952C150.405 190.952 150.219 190.911 150.036 190.829C149.855 190.747 149.705 190.622 149.585 190.455C149.467 190.287 149.408 190.076 149.408 189.821V185.458ZM154.065 185.675V185.047H158.45V185.675H156.611V190.895H155.903V185.675H154.065ZM160.145 190.997C159.868 190.997 159.615 190.945 159.389 190.84C159.162 190.734 158.982 190.58 158.849 190.381C158.716 190.179 158.649 189.935 158.649 189.65C158.649 189.398 158.699 189.195 158.798 189.039C158.897 188.881 159.029 188.757 159.195 188.667C159.36 188.578 159.543 188.511 159.743 188.468C159.945 188.422 160.147 188.386 160.351 188.359C160.617 188.325 160.834 188.299 160.999 188.282C161.167 188.263 161.288 188.232 161.365 188.188C161.443 188.144 161.482 188.068 161.482 187.959V187.937C161.482 187.655 161.405 187.436 161.25 187.28C161.098 187.124 160.867 187.046 160.557 187.046C160.235 187.046 159.983 187.116 159.8 187.257C159.617 187.398 159.489 187.548 159.414 187.708L158.775 187.48C158.889 187.213 159.041 187.006 159.232 186.857C159.424 186.707 159.633 186.602 159.86 186.543C160.088 186.482 160.313 186.452 160.534 186.452C160.675 186.452 160.836 186.469 161.019 186.503C161.204 186.536 161.382 186.603 161.553 186.706C161.726 186.809 161.87 186.964 161.984 187.171C162.098 187.379 162.155 187.657 162.155 188.005V190.895H161.482V190.301H161.447C161.402 190.396 161.326 190.498 161.219 190.606C161.112 190.715 160.971 190.807 160.794 190.883C160.617 190.959 160.4 190.997 160.145 190.997ZM160.248 190.392C160.515 190.392 160.739 190.34 160.922 190.235C161.107 190.13 161.246 189.995 161.339 189.83C161.434 189.664 161.482 189.49 161.482 189.307V188.69C161.453 188.725 161.39 188.756 161.293 188.785C161.198 188.811 161.088 188.835 160.962 188.856C160.838 188.875 160.717 188.892 160.599 188.907C160.483 188.921 160.389 188.932 160.317 188.942C160.142 188.964 159.978 189.002 159.826 189.053C159.675 189.102 159.553 189.178 159.46 189.278C159.369 189.377 159.323 189.513 159.323 189.684C159.323 189.918 159.41 190.095 159.583 190.215C159.758 190.333 159.98 190.392 160.248 190.392ZM163.477 190.895V185.047H164.151V187.206H164.208C164.257 187.129 164.326 187.032 164.413 186.914C164.503 186.794 164.63 186.688 164.796 186.595C164.963 186.499 165.19 186.452 165.475 186.452C165.845 186.452 166.17 186.544 166.452 186.729C166.734 186.913 166.953 187.175 167.111 187.514C167.269 187.853 167.348 188.253 167.348 188.713C167.348 189.178 167.269 189.58 167.111 189.921C166.953 190.26 166.734 190.522 166.455 190.709C166.175 190.894 165.852 190.986 165.487 190.986C165.205 190.986 164.979 190.939 164.81 190.846C164.641 190.751 164.51 190.643 164.419 190.523C164.328 190.402 164.257 190.301 164.208 190.221H164.128V190.895H163.477ZM164.139 188.702C164.139 189.033 164.188 189.325 164.285 189.578C164.382 189.83 164.524 190.027 164.71 190.169C164.897 190.31 165.125 190.381 165.395 190.381C165.677 190.381 165.912 190.306 166.101 190.158C166.291 190.008 166.434 189.806 166.529 189.553C166.626 189.298 166.675 189.014 166.675 188.702C166.675 188.393 166.627 188.115 166.532 187.868C166.438 187.619 166.297 187.422 166.106 187.277C165.918 187.13 165.681 187.057 165.395 187.057C165.121 187.057 164.891 187.127 164.704 187.266C164.518 187.403 164.377 187.595 164.282 187.842C164.187 188.088 164.139 188.374 164.139 188.702ZM169.053 185.047V190.895H168.379V185.047H169.053ZM172.126 190.986C171.703 190.986 171.339 190.893 171.032 190.706C170.728 190.518 170.493 190.255 170.327 189.918C170.163 189.579 170.081 189.185 170.081 188.736C170.081 188.287 170.163 187.891 170.327 187.548C170.493 187.204 170.723 186.935 171.018 186.743C171.315 186.549 171.661 186.452 172.057 186.452C172.286 186.452 172.511 186.49 172.734 186.566C172.957 186.642 173.159 186.766 173.342 186.937C173.525 187.107 173.67 187.331 173.779 187.611C173.887 187.891 173.942 188.235 173.942 188.645V188.93H170.561V188.348H173.256C173.256 188.1 173.207 187.879 173.108 187.685C173.011 187.491 172.872 187.338 172.691 187.226C172.512 187.113 172.301 187.057 172.057 187.057C171.789 187.057 171.557 187.124 171.361 187.257C171.166 187.388 171.017 187.56 170.912 187.771C170.808 187.982 170.755 188.209 170.755 188.45V188.839C170.755 189.17 170.812 189.451 170.927 189.681C171.043 189.909 171.204 190.084 171.409 190.204C171.615 190.322 171.854 190.381 172.126 190.381C172.303 190.381 172.463 190.356 172.605 190.306C172.75 190.255 172.875 190.179 172.979 190.078C173.084 189.975 173.165 189.848 173.222 189.695L173.873 189.878C173.805 190.099 173.689 190.293 173.528 190.461C173.366 190.626 173.166 190.756 172.928 190.849C172.69 190.94 172.423 190.986 172.126 190.986Z" fill="#FAFAFA"/>
<defs>
<clipPath id="clip0_5828_3763">
<rect width="10.0503" height="10.0503" fill="white" transform="translate(8.47363 34.1211)"/>
</clipPath>
<clipPath id="clip1_5828_3763">
<rect width="10.0503" height="10.0503" fill="white" transform="translate(109.981 156.738)"/>
</clipPath>
</defs>
</svg>
