<svg width="40" height="40" viewBox="0 0 40 40" fill="none" xmlns="http://www.w3.org/2000/svg">
<path d="M12.5 16.25H15V18.75H12.5V16.25ZM17.5 16.25H27.5V18.75H17.5V16.25ZM12.5 22.5H15V25H12.5V22.5ZM12.5 28.75H15V31.25H12.5V28.75Z" fill="#4F3895"/>
<path d="M8.75 35V8.75H12.5V12.5H27.5V8.75H31.25V18.75H33.75V8.75C33.75 8.08696 33.4866 7.45107 33.0178 6.98223C32.5489 6.51339 31.913 6.25 31.25 6.25H27.5V5C27.5 4.33696 27.2366 3.70107 26.7678 3.23223C26.2989 2.76339 25.663 2.5 25 2.5H15C14.337 2.5 13.7011 2.76339 13.2322 3.23223C12.7634 3.70107 12.5 4.33696 12.5 5V6.25H8.75C8.08696 6.25 7.45107 6.51339 6.98223 6.98223C6.51339 7.45107 6.25 8.08696 6.25 8.75V35C6.25 35.663 6.51339 36.2989 6.98223 36.7678C7.45107 37.2366 8.08696 37.5 8.75 37.5H20V35H8.75ZM15 5H25V10H15V5Z" fill="#4F3895"/>
<path d="M22.5 23.7478V26.7641C23.2851 25.4514 24.4008 24.3676 25.7357 23.6208C27.0706 22.8741 28.578 22.4905 30.1075 22.5084C31.6369 22.5263 33.1349 22.9451 34.452 23.7229C35.769 24.5007 36.859 25.6103 37.6132 26.941C38.3674 28.2718 38.7593 29.777 38.7499 31.3065C38.7405 32.8361 38.3301 34.3364 37.5596 35.6578C36.7892 36.9791 35.6856 38.0753 34.3591 38.8368C33.0326 39.5984 31.5296 39.9987 30 39.9978V37.4978C31.1272 37.4993 32.2337 37.1959 33.2026 36.6198C34.1714 36.0438 34.9664 35.2164 35.5034 34.2254C36.0404 33.2343 36.2993 32.1165 36.2529 30.9903C36.2065 29.8641 35.8563 28.7714 35.2396 27.828C34.6228 26.8845 33.7624 26.1254 32.7495 25.6311C31.7365 25.1367 30.6087 24.9254 29.4855 25.0197C28.3623 25.114 27.2855 25.5102 26.3691 26.1665C25.4527 26.8228 24.7309 27.7148 24.28 28.7478H27.5V31.2478H20V23.7478H22.5Z" fill="#4F3895"/>
</svg>
