<svg width="40" height="40" viewBox="0 0 40 40" fill="none" xmlns="http://www.w3.org/2000/svg">
<path fill-rule="evenodd" clip-rule="evenodd" d="M7.08423 14.4553C5.9775 14.2296 4.9526 13.7082 4.11846 12.9466C3.28431 12.185 2.67208 11.2117 2.34683 10.13C2.02158 9.04831 1.99545 7.89872 2.27124 6.80338C2.54702 5.70805 3.11441 4.70789 3.9131 3.9092C4.71179 3.1105 5.71195 2.54312 6.80729 2.26733C7.90263 1.99155 9.05222 2.01767 10.1339 2.34292C11.2156 2.66817 12.1889 3.2804 12.9505 4.11455C13.7121 4.9487 14.2335 5.97359 14.4592 7.08033H25.5426C25.7683 5.97359 26.2897 4.9487 27.0513 4.11455C27.8129 3.2804 28.7862 2.66817 29.8679 2.34292C30.9496 2.01767 32.0992 1.99155 33.1945 2.26733C34.2898 2.54312 35.29 3.1105 36.0887 3.9092C36.8874 4.70789 37.4548 5.70805 37.7306 6.80338C38.0063 7.89872 37.9802 9.04831 37.655 10.13C37.3297 11.2117 36.7175 12.185 35.8833 12.9466C35.0492 13.7082 34.0243 14.2296 32.9176 14.4553V25.5387C34.0243 25.7644 35.0492 26.2858 35.8833 27.0474C36.7175 27.809 37.3297 28.7823 37.655 29.864C37.9802 30.9457 38.0063 32.0953 37.7306 33.1906C37.4548 34.2859 36.8874 35.2861 36.0887 36.0848C35.29 36.8835 34.2898 37.4509 33.1945 37.7267C32.0992 38.0024 30.9496 37.9763 29.8679 37.6511C28.7862 37.3258 27.8129 36.7136 27.0513 35.8794C26.2897 35.0453 25.7683 34.0204 25.5426 32.9137H14.4592C14.2335 34.0204 13.7121 35.0453 12.9505 35.8794C12.1889 36.7136 11.2156 37.3258 10.1339 37.6511C9.05222 37.9763 7.90263 38.0024 6.80729 37.7267C5.71195 37.4509 4.71179 36.8835 3.9131 36.0848C3.11441 35.2861 2.54702 34.2859 2.27124 33.1906C1.99545 32.0953 2.02158 30.9457 2.34683 29.864C2.67208 28.7823 3.28431 27.809 4.11846 27.0474C4.9526 26.2858 5.9775 25.7644 7.08423 25.5387V14.4553ZM4.58423 8.33033C4.58423 7.83787 4.68123 7.35023 4.86968 6.89526C5.05814 6.44029 5.33436 6.0269 5.68258 5.67868C6.0308 5.33046 6.4442 5.05423 6.89917 4.86578C7.35414 4.67732 7.84178 4.58033 8.33423 4.58033C8.82669 4.58033 9.31432 4.67732 9.7693 4.86578C10.2243 5.05423 10.6377 5.33046 10.9859 5.67868C11.3341 6.0269 11.6103 6.44029 11.7988 6.89526C11.9872 7.35023 12.0842 7.83787 12.0842 8.33033C12.0842 9.32489 11.6891 10.2787 10.9859 10.982C10.2826 11.6852 9.32879 12.0803 8.33423 12.0803C7.33967 12.0803 6.38584 11.6852 5.68258 10.982C4.97932 10.2787 4.58423 9.32489 4.58423 8.33033ZM9.58423 25.5387V14.4553C10.785 14.2096 11.8871 13.6165 12.7538 12.7499C13.6204 11.8832 14.2135 10.7811 14.4592 9.58033H25.5426C25.7885 10.781 26.3816 11.883 27.2483 12.7496C28.1149 13.6163 29.2169 14.2094 30.4176 14.4553V25.5387C29.2169 25.7846 28.1149 26.3777 27.2483 27.2444C26.3816 28.111 25.7885 29.213 25.5426 30.4137H14.4592C14.2133 29.213 13.6202 28.111 12.7535 27.2444C11.8869 26.3777 10.7849 25.7846 9.58423 25.5387ZM8.33423 27.9137C7.33967 27.9137 6.38584 28.3087 5.68258 29.012C4.97932 29.7153 4.58423 30.6691 4.58423 31.6637C4.58423 32.6582 4.97932 33.612 5.68258 34.3153C6.38584 35.0186 7.33967 35.4137 8.33423 35.4137C9.32879 35.4137 10.2826 35.0186 10.9859 34.3153C11.6891 33.612 12.0842 32.6582 12.0842 31.6637C12.0842 30.6691 11.6891 29.7153 10.9859 29.012C10.2826 28.3087 9.32879 27.9137 8.33423 27.9137ZM35.4176 8.33033C35.4176 9.32489 35.0225 10.2787 34.3192 10.982C33.616 11.6852 32.6621 12.0803 31.6676 12.0803C30.673 12.0803 29.7192 11.6852 29.0159 10.982C28.3127 10.2787 27.9176 9.32489 27.9176 8.33033C27.9176 7.33576 28.3127 6.38194 29.0159 5.67868C29.7192 4.97541 30.673 4.58033 31.6676 4.58033C32.6621 4.58033 33.616 4.97541 34.3192 5.67868C35.0225 6.38194 35.4176 7.33576 35.4176 8.33033ZM27.9176 31.6637C27.9176 30.6691 28.3127 29.7153 29.0159 29.012C29.7192 28.3087 30.673 27.9137 31.6676 27.9137C32.6621 27.9137 33.616 28.3087 34.3192 29.012C35.0225 29.7153 35.4176 30.6691 35.4176 31.6637C35.4176 32.6582 35.0225 33.612 34.3192 34.3153C33.616 35.0186 32.6621 35.4137 31.6676 35.4137C30.673 35.4137 29.7192 35.0186 29.0159 34.3153C28.3127 33.612 27.9176 32.6582 27.9176 31.6637Z" fill="#4F3895"/>
</svg>
