<svg width="40" height="40" viewBox="0 0 40 40" fill="none" xmlns="http://www.w3.org/2000/svg">
<g clip-path="url(#clip0_6810_5101)">
<path d="M20.0004 2.21875C16.4843 2.21875 13.0472 3.2614 10.1236 5.21485C7.2001 7.16829 4.92147 9.9448 3.57592 13.1933C2.23036 16.4417 1.8783 20.0162 2.56426 23.4648C3.25022 26.9134 4.94339 30.0811 7.42966 32.5673C9.91592 35.0536 13.0836 36.7468 16.5322 37.4327C19.9807 38.1187 23.5552 37.7666 26.8037 36.4211C30.0522 35.0755 32.8287 32.7969 34.7821 29.8733C36.7356 26.9498 37.7782 23.5126 37.7782 19.9965C37.7782 15.2816 35.9052 10.7597 32.5712 7.42574C29.2373 4.09176 24.7154 2.21875 20.0004 2.21875ZM20.0004 35.5521C16.9238 35.5521 13.9163 34.6398 11.3582 32.9305C8.80014 31.2212 6.80635 28.7918 5.62898 25.9494C4.45162 23.107 4.14357 19.9793 4.74378 16.9618C5.344 13.9443 6.82552 11.1726 9.001 8.99709C11.1765 6.82161 13.9482 5.34008 16.9657 4.73987C19.9832 4.13965 23.1109 4.44771 25.9533 5.62507C28.7957 6.80243 31.2252 8.79623 32.9344 11.3543C34.6437 13.9124 35.556 16.9199 35.556 19.9965C35.556 24.1221 33.9171 28.0787 30.9999 30.996C28.0826 33.9132 24.126 35.5521 20.0004 35.5521Z" fill="#4F3895"/>
<path d="M21.023 20.447V11.947C21.023 11.6524 20.9059 11.3697 20.6976 11.1614C20.4892 10.953 20.2066 10.8359 19.9119 10.8359C19.6172 10.8359 19.3346 10.953 19.1262 11.1614C18.9178 11.3697 18.8008 11.6524 18.8008 11.947V21.6359L25.3563 26.0804C25.4771 26.1712 25.6151 26.2365 25.7619 26.2721C25.9088 26.3078 26.0613 26.3131 26.2103 26.2878C26.3593 26.2625 26.5015 26.2071 26.6283 26.1249C26.7551 26.0428 26.8639 25.9356 26.9479 25.81C27.0319 25.6844 27.0893 25.543 27.1168 25.3944C27.1443 25.2458 27.1412 25.0932 27.1076 24.9459C27.0741 24.7985 27.0109 24.6596 26.9218 24.5375C26.8328 24.4155 26.7197 24.3128 26.5897 24.2359L21.023 20.447Z" fill="#4F3895"/>
<path d="M8.88857 19.9339C8.87841 17.935 9.41091 15.9709 10.4293 14.2509C11.4476 12.5309 12.9137 11.1195 14.6712 10.1672C16.4286 9.21495 18.4116 8.75747 20.4086 8.84356C22.4056 8.92966 24.3418 9.55611 26.0108 10.6561L26.9552 9.14501C25.3699 8.10656 23.5743 7.43212 21.6974 7.17011C19.8205 6.90811 17.9088 7.06505 16.0997 7.62967C14.2907 8.19429 12.6291 9.15257 11.2344 10.4357C9.83969 11.7188 8.74647 13.2948 8.03328 15.0506C7.32008 16.8065 7.00461 18.6984 7.10953 20.5907C7.21444 22.4829 7.73714 24.3284 8.64007 25.9946C9.54299 27.6608 10.8037 29.1064 12.3317 30.2274C13.8597 31.3485 15.6171 32.1172 17.4775 32.4783L17.7775 30.7783C15.2752 30.2676 13.0253 28.9105 11.4064 26.9353C9.78741 24.9602 8.89827 22.4877 8.88857 19.9339Z" fill="#4F3895"/>
</g>
<defs>
<clipPath id="clip0_6810_5101">
<rect width="40" height="40" fill="white"/>
</clipPath>
</defs>
</svg>
