<svg width="732" height="549" viewBox="0 0 732 549" fill="none" xmlns="http://www.w3.org/2000/svg">
<g clip-path="url(#clip0_455_3090)">
<rect width="732" height="549" fill="#F3F3F3"/>
<g filter="url(#filter0_ddd_455_3090)">
<path d="M413.58 106.14C413.58 98.0546 420.135 91.5 428.22 91.5H645.99C654.075 91.5 660.63 98.0546 660.63 106.14V369.66C660.63 377.745 654.075 384.3 645.99 384.3H428.22C420.135 384.3 413.58 377.745 413.58 369.66V106.14Z" fill="white"/>
<rect x="473.97" y="204.96" width="126.27" height="12.81" rx="6.405" fill="#C1B4E6"/>
<rect x="473.97" y="232.41" width="126.27" height="14.64" rx="7.32" fill="#C1B4E6"/>
<rect x="583.77" y="269.01" width="60.39" height="21.96" rx="10.98" fill="#4F3895"/>
<rect x="456.585" y="273.585" width="34.77" height="12.81" rx="6.405" stroke="#4F3895" stroke-width="1.83"/>
<path d="M413.58 106.14C413.58 90.9798 425.87 78.69 441.03 78.69H633.18C648.34 78.69 660.63 90.9798 660.63 106.14C660.63 105.129 654.075 104.31 645.99 104.31H428.22C420.135 104.31 413.58 105.129 413.58 106.14ZM660.63 384.3H413.58H660.63ZM413.58 384.3V91.5V384.3ZM660.63 91.5V384.3V91.5Z" fill="#FDE7FD"/>
</g>
<path d="M114.323 426.762C113.034 426.762 111.883 426.433 110.871 425.774C109.866 425.109 109.076 424.163 108.5 422.936C107.932 421.702 107.648 420.222 107.648 418.496C107.648 416.77 107.935 415.293 108.511 414.067C109.093 412.84 109.89 411.9 110.902 411.249C111.914 410.597 113.061 410.271 114.344 410.271C115.335 410.271 116.132 410.438 116.735 410.77C117.345 411.096 117.817 411.477 118.149 411.914C118.489 412.351 118.752 412.736 118.94 413.068H119.127V405.156H122.236V426.45H119.2V423.965H118.94C118.752 424.305 118.482 424.693 118.129 425.13C117.782 425.566 117.304 425.948 116.694 426.273C116.084 426.599 115.293 426.762 114.323 426.762ZM115.009 424.111C115.903 424.111 116.659 423.875 117.276 423.404C117.9 422.925 118.371 422.263 118.69 421.418C119.016 420.572 119.179 419.588 119.179 418.465C119.179 417.356 119.019 416.385 118.7 415.553C118.382 414.722 117.914 414.073 117.297 413.609C116.68 413.145 115.917 412.912 115.009 412.912C114.073 412.912 113.294 413.155 112.67 413.64C112.046 414.125 111.575 414.787 111.256 415.626C110.944 416.465 110.788 417.411 110.788 418.465C110.788 419.532 110.947 420.492 111.266 421.345C111.585 422.198 112.056 422.873 112.68 423.372C113.311 423.865 114.087 424.111 115.009 424.111ZM126.673 426.45V410.479H129.782V426.45H126.673ZM128.243 408.015C127.702 408.015 127.238 407.835 126.85 407.474C126.468 407.107 126.278 406.67 126.278 406.164C126.278 405.651 126.468 405.215 126.85 404.854C127.238 404.487 127.702 404.303 128.243 404.303C128.784 404.303 129.245 404.487 129.626 404.854C130.014 405.215 130.208 405.651 130.208 406.164C130.208 406.67 130.014 407.107 129.626 407.474C129.245 407.835 128.784 408.015 128.243 408.015ZM141.565 410.479V412.975H132.54V410.479H141.565ZM135.015 426.45V408.628C135.015 407.63 135.233 406.802 135.67 406.143C136.106 405.478 136.685 404.982 137.406 404.657C138.127 404.324 138.91 404.157 139.756 404.157C140.38 404.157 140.913 404.209 141.357 404.313C141.801 404.41 142.13 404.501 142.345 404.584L141.617 407.1C141.472 407.058 141.284 407.01 141.056 406.954C140.827 406.892 140.55 406.861 140.224 406.861C139.468 406.861 138.928 407.048 138.602 407.422C138.283 407.797 138.123 408.337 138.123 409.044V426.45H135.015ZM152.374 410.479V412.975H143.348V410.479H152.374ZM145.823 426.45V408.628C145.823 407.63 146.041 406.802 146.478 406.143C146.915 405.478 147.494 404.982 148.214 404.657C148.935 404.324 149.719 404.157 150.564 404.157C151.188 404.157 151.722 404.209 152.166 404.313C152.609 404.41 152.938 404.501 153.153 404.584L152.426 407.1C152.28 407.058 152.093 407.01 151.864 406.954C151.635 406.892 151.358 406.861 151.032 406.861C150.277 406.861 149.736 407.048 149.41 407.422C149.091 407.797 148.932 408.337 148.932 409.044V426.45H145.823ZM161.835 426.773C160.262 426.773 158.907 426.436 157.77 425.764C156.64 425.085 155.767 424.132 155.15 422.905C154.54 421.671 154.235 420.225 154.235 418.569C154.235 416.933 154.54 415.491 155.15 414.243C155.767 412.996 156.626 412.022 157.728 411.322C158.837 410.621 160.134 410.271 161.617 410.271C162.518 410.271 163.392 410.42 164.237 410.718C165.083 411.017 165.842 411.484 166.514 412.122C167.187 412.76 167.717 413.588 168.105 414.607C168.493 415.619 168.688 416.85 168.688 418.298V419.401H155.992V417.071H165.641C165.641 416.253 165.475 415.529 165.142 414.898C164.809 414.261 164.341 413.758 163.738 413.391C163.142 413.023 162.442 412.84 161.638 412.84C160.764 412.84 160.002 413.054 159.35 413.484C158.706 413.907 158.207 414.462 157.853 415.148C157.507 415.827 157.333 416.565 157.333 417.363V419.182C157.333 420.25 157.52 421.158 157.895 421.906C158.276 422.655 158.806 423.227 159.486 423.622C160.165 424.01 160.959 424.204 161.867 424.204C162.456 424.204 162.993 424.121 163.478 423.955C163.964 423.781 164.383 423.525 164.736 423.185C165.09 422.846 165.36 422.426 165.547 421.927L168.49 422.457C168.254 423.324 167.831 424.083 167.221 424.735C166.618 425.379 165.859 425.882 164.944 426.242C164.036 426.596 163 426.773 161.835 426.773ZM172.137 426.45V410.479H175.142V413.016H175.308C175.599 412.157 176.112 411.481 176.847 410.989C177.589 410.49 178.428 410.24 179.363 410.24C179.558 410.24 179.786 410.247 180.05 410.261C180.32 410.275 180.531 410.292 180.684 410.313V413.287C180.559 413.252 180.337 413.214 180.018 413.172C179.7 413.124 179.381 413.1 179.062 413.1C178.327 413.1 177.672 413.255 177.097 413.567C176.528 413.872 176.078 414.299 175.745 414.846C175.412 415.387 175.246 416.004 175.246 416.697V426.45H172.137ZM189.686 426.773C188.112 426.773 186.757 426.436 185.62 425.764C184.49 425.085 183.617 424.132 183 422.905C182.39 421.671 182.085 420.225 182.085 418.569C182.085 416.933 182.39 415.491 183 414.243C183.617 412.996 184.477 412.022 185.579 411.322C186.688 410.621 187.984 410.271 189.467 410.271C190.369 410.271 191.242 410.42 192.088 410.718C192.933 411.017 193.692 411.484 194.365 412.122C195.037 412.76 195.567 413.588 195.956 414.607C196.344 415.619 196.538 416.85 196.538 418.298V419.401H183.842V417.071H193.491C193.491 416.253 193.325 415.529 192.992 414.898C192.66 414.261 192.192 413.758 191.589 413.391C190.992 413.023 190.292 412.84 189.488 412.84C188.615 412.84 187.852 413.054 187.201 413.484C186.556 413.907 186.057 414.462 185.703 415.148C185.357 415.827 185.184 416.565 185.184 417.363V419.182C185.184 420.25 185.371 421.158 185.745 421.906C186.126 422.655 186.657 423.227 187.336 423.622C188.015 424.01 188.809 424.204 189.717 424.204C190.306 424.204 190.843 424.121 191.329 423.955C191.814 423.781 192.233 423.525 192.587 423.185C192.94 422.846 193.211 422.426 193.398 421.927L196.34 422.457C196.105 423.324 195.682 424.083 195.072 424.735C194.469 425.379 193.71 425.882 192.795 426.242C191.887 426.596 190.85 426.773 189.686 426.773ZM203.096 416.967V426.45H199.987V410.479H202.971V413.079H203.169C203.536 412.233 204.112 411.554 204.895 411.041C205.685 410.528 206.68 410.271 207.879 410.271C208.967 410.271 209.921 410.5 210.739 410.958C211.557 411.408 212.191 412.081 212.641 412.975C213.092 413.869 213.317 414.975 213.317 416.292V426.45H210.208V416.666C210.208 415.508 209.907 414.604 209.304 413.952C208.701 413.294 207.872 412.964 206.819 412.964C206.098 412.964 205.457 413.12 204.895 413.432C204.34 413.744 203.9 414.202 203.575 414.805C203.256 415.401 203.096 416.122 203.096 416.967ZM224.942 410.479V412.975H216.218V410.479H224.942ZM218.558 406.653H221.667V421.761C221.667 422.364 221.757 422.818 221.937 423.123C222.117 423.421 222.349 423.625 222.634 423.736C222.925 423.84 223.24 423.892 223.58 423.892C223.829 423.892 224.048 423.875 224.235 423.84C224.422 423.806 224.568 423.778 224.672 423.757L225.233 426.325C225.053 426.395 224.796 426.464 224.464 426.533C224.131 426.61 223.715 426.651 223.216 426.658C222.398 426.672 221.635 426.526 220.928 426.221C220.221 425.916 219.649 425.445 219.213 424.807C218.776 424.17 218.558 423.369 218.558 422.405V406.653ZM238.989 421.033L238.968 417.238H239.509L245.873 410.479H249.595L242.337 418.174H241.849L238.989 421.033ZM236.13 426.45V405.156H239.239V426.45H236.13ZM246.216 426.45L240.497 418.86L242.639 416.687L250.032 426.45H246.216ZM252.428 426.45V410.479H255.537V426.45H252.428ZM253.998 408.015C253.458 408.015 252.993 407.835 252.605 407.474C252.224 407.107 252.033 406.67 252.033 406.164C252.033 405.651 252.224 405.215 252.605 404.854C252.993 404.487 253.458 404.303 253.998 404.303C254.539 404.303 255 404.487 255.381 404.854C255.769 405.215 255.963 405.651 255.963 406.164C255.963 406.67 255.769 407.107 255.381 407.474C255 407.835 254.539 408.015 253.998 408.015ZM262.829 416.967V426.45H259.72V410.479H262.704V413.079H262.901C263.269 412.233 263.844 411.554 264.627 411.041C265.418 410.528 266.412 410.271 267.612 410.271C268.7 410.271 269.653 410.5 270.471 410.958C271.289 411.408 271.923 412.081 272.374 412.975C272.824 413.869 273.05 414.975 273.05 416.292V426.45H269.941V416.666C269.941 415.508 269.639 414.604 269.036 413.952C268.433 413.294 267.605 412.964 266.551 412.964C265.83 412.964 265.189 413.12 264.627 413.432C264.073 413.744 263.633 414.202 263.307 414.805C262.988 415.401 262.829 416.122 262.829 416.967ZM283.198 426.762C281.908 426.762 280.758 426.433 279.746 425.774C278.741 425.109 277.95 424.163 277.375 422.936C276.807 421.702 276.522 420.222 276.522 418.496C276.522 416.77 276.81 415.293 277.385 414.067C277.968 412.84 278.765 411.9 279.777 411.249C280.789 410.597 281.936 410.271 283.219 410.271C284.21 410.271 285.007 410.438 285.61 410.77C286.22 411.096 286.691 411.477 287.024 411.914C287.364 412.351 287.627 412.736 287.814 413.068H288.001V405.156H291.11V426.45H288.074V423.965H287.814C287.627 424.305 287.357 424.693 287.003 425.13C286.657 425.566 286.178 425.948 285.568 426.273C284.958 426.599 284.168 426.762 283.198 426.762ZM283.884 424.111C284.778 424.111 285.534 423.875 286.151 423.404C286.775 422.925 287.246 422.263 287.565 421.418C287.891 420.572 288.053 419.588 288.053 418.465C288.053 417.356 287.894 416.385 287.575 415.553C287.256 414.722 286.788 414.073 286.171 413.609C285.555 413.145 284.792 412.912 283.884 412.912C282.948 412.912 282.168 413.155 281.544 413.64C280.921 414.125 280.449 414.787 280.13 415.626C279.818 416.465 279.662 417.411 279.662 418.465C279.662 419.532 279.822 420.492 280.141 421.345C280.46 422.198 280.931 422.873 281.555 423.372C282.186 423.865 282.962 424.111 283.884 424.111ZM307.515 414.378L304.698 414.878C304.58 414.517 304.393 414.174 304.136 413.848C303.887 413.522 303.547 413.255 303.117 413.048C302.687 412.84 302.15 412.736 301.506 412.736C300.625 412.736 299.89 412.933 299.301 413.328C298.712 413.716 298.417 414.219 298.417 414.836C298.417 415.37 298.615 415.799 299.01 416.125C299.405 416.451 300.043 416.718 300.923 416.926L303.46 417.508C304.93 417.848 306.025 418.371 306.746 419.078C307.467 419.785 307.827 420.704 307.827 421.834C307.827 422.79 307.55 423.643 306.996 424.391C306.448 425.133 305.682 425.715 304.698 426.138C303.72 426.561 302.587 426.773 301.298 426.773C299.509 426.773 298.05 426.391 296.92 425.629C295.79 424.859 295.097 423.768 294.841 422.353L297.846 421.896C298.033 422.679 298.417 423.272 299 423.674C299.582 424.069 300.341 424.267 301.277 424.267C302.296 424.267 303.11 424.055 303.72 423.632C304.33 423.203 304.635 422.679 304.635 422.062C304.635 421.563 304.448 421.144 304.074 420.804C303.706 420.465 303.141 420.208 302.379 420.035L299.676 419.442C298.185 419.102 297.083 418.562 296.369 417.82C295.662 417.078 295.308 416.139 295.308 415.002C295.308 414.06 295.572 413.235 296.099 412.528C296.626 411.821 297.353 411.27 298.282 410.874C299.211 410.472 300.275 410.271 301.474 410.271C303.2 410.271 304.559 410.646 305.55 411.394C306.542 412.136 307.197 413.131 307.515 414.378ZM151.881 476.439V467.965H151.694C151.507 468.305 151.236 468.693 150.883 469.13C150.536 469.566 150.058 469.948 149.448 470.273C148.838 470.599 148.048 470.762 147.077 470.762C145.788 470.762 144.637 470.433 143.625 469.774C142.62 469.109 141.83 468.163 141.254 466.936C140.686 465.702 140.402 464.222 140.402 462.496C140.402 460.77 140.69 459.293 141.265 458.067C141.847 456.84 142.644 455.9 143.656 455.249C144.668 454.597 145.816 454.271 147.098 454.271C148.089 454.271 148.886 454.438 149.489 454.77C150.099 455.096 150.571 455.477 150.904 455.914C151.243 456.351 151.507 456.736 151.694 457.068H151.954V454.479H154.99V476.439H151.881ZM147.763 468.111C148.658 468.111 149.413 467.875 150.03 467.404C150.654 466.925 151.125 466.263 151.444 465.418C151.77 464.572 151.933 463.588 151.933 462.465C151.933 461.356 151.773 460.385 151.455 459.553C151.136 458.722 150.668 458.073 150.051 457.609C149.434 457.145 148.672 456.912 147.763 456.912C146.828 456.912 146.048 457.155 145.424 457.64C144.8 458.125 144.329 458.787 144.01 459.626C143.698 460.465 143.542 461.411 143.542 462.465C143.542 463.532 143.701 464.492 144.02 465.345C144.339 466.198 144.81 466.873 145.434 467.372C146.065 467.865 146.841 468.111 147.763 468.111ZM169.287 463.827V454.479H172.406V470.45H169.349V467.684H169.183C168.815 468.537 168.226 469.248 167.415 469.816C166.611 470.377 165.609 470.658 164.41 470.658C163.384 470.658 162.476 470.433 161.686 469.982C160.903 469.525 160.286 468.849 159.835 467.955C159.392 467.061 159.17 465.955 159.17 464.638V454.479H162.279V464.264C162.279 465.352 162.58 466.218 163.183 466.863C163.786 467.508 164.57 467.83 165.533 467.83C166.115 467.83 166.694 467.684 167.27 467.393C167.852 467.102 168.334 466.662 168.715 466.073C169.103 465.484 169.294 464.735 169.287 463.827ZM183.467 470.773C181.893 470.773 180.538 470.436 179.401 469.764C178.271 469.085 177.398 468.132 176.781 466.905C176.171 465.671 175.866 464.225 175.866 462.569C175.866 460.933 176.171 459.491 176.781 458.243C177.398 456.996 178.257 456.022 179.36 455.322C180.469 454.621 181.765 454.271 183.248 454.271C184.149 454.271 185.023 454.42 185.869 454.718C186.714 455.017 187.473 455.484 188.146 456.122C188.818 456.76 189.348 457.588 189.736 458.607C190.125 459.619 190.319 460.85 190.319 462.298V463.401H177.623V461.071H187.272C187.272 460.253 187.106 459.529 186.773 458.898C186.44 458.261 185.972 457.758 185.369 457.391C184.773 457.023 184.073 456.84 183.269 456.84C182.396 456.84 181.633 457.054 180.982 457.484C180.337 457.907 179.838 458.462 179.484 459.148C179.138 459.827 178.964 460.565 178.964 461.363V463.182C178.964 464.25 179.152 465.158 179.526 465.906C179.907 466.655 180.437 467.227 181.117 467.622C181.796 468.01 182.59 468.204 183.498 468.204C184.087 468.204 184.624 468.121 185.109 467.955C185.595 467.781 186.014 467.525 186.368 467.185C186.721 466.846 186.991 466.426 187.179 465.927L190.121 466.457C189.885 467.324 189.463 468.083 188.853 468.735C188.25 469.379 187.491 469.882 186.576 470.242C185.667 470.596 184.631 470.773 183.467 470.773ZM205.736 458.378L202.918 458.878C202.8 458.517 202.613 458.174 202.357 457.848C202.107 457.522 201.767 457.255 201.338 457.048C200.908 456.84 200.371 456.736 199.726 456.736C198.846 456.736 198.111 456.933 197.522 457.328C196.933 457.716 196.638 458.219 196.638 458.836C196.638 459.37 196.836 459.799 197.231 460.125C197.626 460.451 198.263 460.718 199.144 460.926L201.681 461.508C203.15 461.848 204.246 462.371 204.967 463.078C205.687 463.785 206.048 464.704 206.048 465.834C206.048 466.79 205.771 467.643 205.216 468.391C204.668 469.133 203.903 469.715 202.918 470.138C201.941 470.561 200.807 470.773 199.518 470.773C197.73 470.773 196.271 470.391 195.141 469.629C194.011 468.859 193.318 467.768 193.061 466.353L196.066 465.896C196.253 466.679 196.638 467.272 197.22 467.674C197.802 468.069 198.562 468.267 199.497 468.267C200.516 468.267 201.331 468.055 201.941 467.632C202.551 467.203 202.856 466.679 202.856 466.062C202.856 465.563 202.669 465.144 202.294 464.804C201.927 464.465 201.362 464.208 200.599 464.035L197.896 463.442C196.406 463.102 195.304 462.562 194.59 461.82C193.883 461.078 193.529 460.139 193.529 459.002C193.529 458.06 193.792 457.235 194.319 456.528C194.846 455.821 195.574 455.27 196.503 454.874C197.432 454.472 198.496 454.271 199.695 454.271C201.421 454.271 202.78 454.646 203.771 455.394C204.762 456.136 205.417 457.131 205.736 458.378ZM216.921 454.479V456.975H208.198V454.479H216.921ZM210.537 450.653H213.646V465.761C213.646 466.364 213.736 466.818 213.916 467.123C214.097 467.421 214.329 467.625 214.613 467.736C214.904 467.84 215.22 467.892 215.559 467.892C215.809 467.892 216.027 467.875 216.214 467.84C216.401 467.806 216.547 467.778 216.651 467.757L217.212 470.325C217.032 470.395 216.776 470.464 216.443 470.533C216.11 470.61 215.694 470.651 215.195 470.658C214.377 470.672 213.615 470.526 212.908 470.221C212.201 469.916 211.629 469.445 211.192 468.807C210.755 468.17 210.537 467.369 210.537 466.405V450.653ZM220.36 470.45V454.479H223.469V470.45H220.36ZM221.93 452.015C221.39 452.015 220.925 451.835 220.537 451.474C220.156 451.107 219.965 450.67 219.965 450.164C219.965 449.651 220.156 449.215 220.537 448.854C220.925 448.487 221.39 448.303 221.93 448.303C222.471 448.303 222.932 448.487 223.313 448.854C223.701 449.215 223.896 449.651 223.896 450.164C223.896 450.67 223.701 451.107 223.313 451.474C222.932 451.835 222.471 452.015 221.93 452.015ZM234.379 470.773C232.882 470.773 231.575 470.429 230.459 469.743C229.343 469.057 228.477 468.097 227.86 466.863C227.243 465.629 226.934 464.187 226.934 462.538C226.934 460.881 227.243 459.432 227.86 458.191C228.477 456.95 229.343 455.987 230.459 455.301C231.575 454.614 232.882 454.271 234.379 454.271C235.876 454.271 237.183 454.614 238.299 455.301C239.415 455.987 240.282 456.95 240.898 458.191C241.515 459.432 241.824 460.881 241.824 462.538C241.824 464.187 241.515 465.629 240.898 466.863C240.282 468.097 239.415 469.057 238.299 469.743C237.183 470.429 235.876 470.773 234.379 470.773ZM234.389 468.163C235.36 468.163 236.164 467.906 236.802 467.393C237.439 466.88 237.911 466.198 238.216 465.345C238.528 464.492 238.684 463.553 238.684 462.527C238.684 461.508 238.528 460.572 238.216 459.72C237.911 458.86 237.439 458.17 236.802 457.651C236.164 457.131 235.36 456.871 234.389 456.871C233.412 456.871 232.601 457.131 231.956 457.651C231.319 458.17 230.844 458.86 230.532 459.72C230.227 460.572 230.074 461.508 230.074 462.527C230.074 463.553 230.227 464.492 230.532 465.345C230.844 466.198 231.319 466.88 231.956 467.393C232.601 467.906 233.412 468.163 234.389 468.163ZM248.403 460.967V470.45H245.294V454.479H248.278V457.079H248.476C248.843 456.233 249.419 455.554 250.202 455.041C250.992 454.528 251.987 454.271 253.186 454.271C254.274 454.271 255.227 454.5 256.045 454.958C256.863 455.408 257.498 456.081 257.948 456.975C258.399 457.869 258.624 458.975 258.624 460.292V470.45H255.515V460.666C255.515 459.508 255.214 458.604 254.61 457.952C254.007 457.294 253.179 456.964 252.125 456.964C251.405 456.964 250.763 457.12 250.202 457.432C249.647 457.744 249.207 458.202 248.881 458.805C248.562 459.401 248.403 460.122 248.403 460.967ZM274.761 458.378L271.943 458.878C271.826 458.517 271.638 458.174 271.382 457.848C271.132 457.522 270.793 457.255 270.363 457.048C269.933 456.84 269.396 456.736 268.751 456.736C267.871 456.736 267.136 456.933 266.547 457.328C265.958 457.716 265.663 458.219 265.663 458.836C265.663 459.37 265.861 459.799 266.256 460.125C266.651 460.451 267.289 460.718 268.169 460.926L270.706 461.508C272.176 461.848 273.271 462.371 273.992 463.078C274.713 463.785 275.073 464.704 275.073 465.834C275.073 466.79 274.796 467.643 274.241 468.391C273.694 469.133 272.928 469.715 271.943 470.138C270.966 470.561 269.833 470.773 268.543 470.773C266.755 470.773 265.296 470.391 264.166 469.629C263.036 468.859 262.343 467.768 262.086 466.353L265.091 465.896C265.279 466.679 265.663 467.272 266.246 467.674C266.828 468.069 267.587 468.267 268.523 468.267C269.542 468.267 270.356 468.055 270.966 467.632C271.576 467.203 271.881 466.679 271.881 466.062C271.881 465.563 271.694 465.144 271.32 464.804C270.952 464.465 270.387 464.208 269.625 464.035L266.921 463.442C265.431 463.102 264.329 462.562 263.615 461.82C262.908 461.078 262.554 460.139 262.554 459.002C262.554 458.06 262.818 457.235 263.345 456.528C263.871 455.821 264.599 455.27 265.528 454.874C266.457 454.472 267.521 454.271 268.72 454.271C270.446 454.271 271.805 454.646 272.796 455.394C273.787 456.136 274.442 457.131 274.761 458.378Z" fill="black"/>
<path d="M111.318 62.2816C111.225 61.4914 110.845 60.8779 110.18 60.4412C109.514 60.0045 108.698 59.7861 107.731 59.7861C107.024 59.7861 106.405 59.9005 105.875 60.1293C105.35 60.358 104.939 60.6725 104.643 61.0728C104.352 61.4732 104.206 61.9281 104.206 62.4375C104.206 62.8639 104.307 63.2304 104.51 63.5371C104.718 63.8386 104.983 64.0908 105.306 64.2935C105.628 64.4911 105.966 64.6549 106.319 64.7848C106.673 64.9096 106.998 65.011 107.294 65.089L108.916 65.5257C109.332 65.6349 109.795 65.7856 110.304 65.978C110.819 66.1703 111.31 66.4329 111.778 66.7656C112.251 67.0931 112.641 67.5142 112.948 68.0289C113.255 68.5436 113.408 69.1753 113.408 69.9239C113.408 70.7869 113.182 71.5668 112.73 72.2634C112.282 72.96 111.627 73.5137 110.764 73.9244C109.907 74.3351 108.864 74.5405 107.637 74.5405C106.494 74.5405 105.503 74.3559 104.666 73.9868C103.834 73.6177 103.179 73.103 102.701 72.4428C102.228 71.7825 101.96 71.0157 101.898 70.1423H103.894C103.946 70.7453 104.149 71.2444 104.502 71.6395C104.861 72.0295 105.313 72.3206 105.859 72.5129C106.41 72.7001 107.003 72.7937 107.637 72.7937C108.376 72.7937 109.038 72.6741 109.626 72.435C110.213 72.1906 110.679 71.8527 111.022 71.4212C111.365 70.9845 111.536 70.475 111.536 69.8927C111.536 69.3624 111.388 68.9309 111.092 68.5982C110.796 68.2655 110.406 67.9951 109.922 67.7872C109.439 67.5792 108.916 67.3973 108.355 67.2413L106.39 66.6798C105.142 66.3211 104.154 65.809 103.426 65.1436C102.698 64.4781 102.334 63.6073 102.334 62.5311C102.334 61.6369 102.576 60.8571 103.06 60.1916C103.548 59.521 104.203 59.0011 105.025 58.632C105.851 58.2577 106.774 58.0705 107.793 58.0705C108.823 58.0705 109.738 58.2551 110.538 58.6242C111.339 58.9881 111.973 59.4872 112.441 60.1215C112.914 60.7557 113.164 61.4758 113.19 62.2816H111.318ZM118.961 58.2889V74.2598H117.027V58.2889H118.961ZM135.942 58.2889V74.2598H134.071L125.368 61.7201H125.212V74.2598H123.278V58.2889H125.149L133.884 70.8597H134.04V58.2889H135.942ZM151.169 63.2798C150.997 62.7547 150.771 62.2842 150.491 61.8683C150.215 61.4472 149.885 61.0884 149.5 60.7921C149.121 60.4958 148.689 60.2696 148.206 60.1137C147.722 59.9577 147.192 59.8797 146.615 59.8797C145.669 59.8797 144.808 60.1241 144.034 60.6127C143.259 61.1014 142.643 61.8215 142.185 62.7729C141.728 63.7243 141.499 64.8914 141.499 66.2743C141.499 67.6572 141.73 68.8244 142.193 69.7757C142.656 70.7271 143.282 71.4472 144.073 71.9359C144.863 72.4246 145.752 72.6689 146.74 72.6689C147.655 72.6689 148.46 72.474 149.157 72.084C149.859 71.6889 150.405 71.1326 150.795 70.4152C151.19 69.6926 151.387 68.8425 151.387 67.8652L151.98 67.9899H147.176V66.2743H153.259V67.9899C153.259 69.3052 152.978 70.449 152.417 71.4212C151.86 72.3934 151.091 73.1472 150.108 73.6827C149.131 74.213 148.008 74.4781 146.74 74.4781C145.325 74.4781 144.083 74.1454 143.012 73.4799C141.946 72.8145 141.114 71.8683 140.517 70.6414C139.924 69.4144 139.628 67.9587 139.628 66.2743C139.628 65.011 139.797 63.875 140.134 62.8665C140.478 61.8527 140.961 60.9897 141.585 60.2774C142.209 59.5652 142.947 59.0193 143.8 58.6398C144.652 58.2603 145.591 58.0705 146.615 58.0705C147.457 58.0705 148.242 58.1979 148.97 58.4526C149.703 58.7022 150.355 59.0583 150.927 59.521C151.504 59.9785 151.985 60.527 152.37 61.1664C152.755 61.8007 153.02 62.5051 153.165 63.2798H151.169ZM157.01 74.2598V58.2889H158.944V72.5441H166.368V74.2598H157.01ZM169.802 74.2598V58.2889H179.441V60.0045H171.736V65.4009H178.942V67.1165H171.736V72.5441H179.566V74.2598H169.802ZM189.981 74.2598V58.2889H195.378C196.631 58.2889 197.655 58.515 198.45 58.9673C199.251 59.4144 199.844 60.0201 200.228 60.7843C200.613 61.5485 200.805 62.4012 200.805 63.3422C200.805 64.2831 200.613 65.1384 200.228 65.9078C199.849 66.6772 199.261 67.2907 198.466 67.7482C197.67 68.2005 196.652 68.4266 195.409 68.4266H191.541V66.711H195.347C196.204 66.711 196.893 66.5628 197.413 66.2665C197.933 65.9702 198.31 65.5699 198.544 65.0656C198.783 64.5561 198.903 63.9816 198.903 63.3422C198.903 62.7027 198.783 62.1308 198.544 61.6265C198.31 61.1222 197.93 60.7271 197.405 60.4412C196.88 60.15 196.184 60.0045 195.315 60.0045H191.915V74.2598H189.981ZM203.385 74.2598H201.358L207.222 58.2889H209.218L215.083 74.2598H213.055L208.283 60.8155H208.158L203.385 74.2598ZM204.134 68.0211H212.306V69.7368H204.134V68.0211ZM228.177 63.2798C228.005 62.7547 227.779 62.2842 227.498 61.8683C227.223 61.4472 226.892 61.0884 226.508 60.7921C226.128 60.4958 225.697 60.2696 225.213 60.1137C224.73 59.9577 224.199 59.8797 223.622 59.8797C222.676 59.8797 221.816 60.1241 221.041 60.6127C220.267 61.1014 219.65 61.8215 219.193 62.7729C218.735 63.7243 218.507 64.8914 218.507 66.2743C218.507 67.6572 218.738 68.8244 219.201 69.7757C219.663 70.7271 220.29 71.4472 221.08 71.9359C221.87 72.4246 222.759 72.6689 223.747 72.6689C224.662 72.6689 225.468 72.474 226.165 72.084C226.866 71.6889 227.412 71.1326 227.802 70.4152C228.197 69.6926 228.395 68.8425 228.395 67.8652L228.988 67.9899H224.184V66.2743H230.267V67.9899C230.267 69.3052 229.986 70.449 229.424 71.4212C228.868 72.3934 228.099 73.1472 227.116 73.6827C226.139 74.213 225.016 74.4781 223.747 74.4781C222.333 74.4781 221.091 74.1454 220.02 73.4799C218.954 72.8145 218.122 71.8683 217.524 70.6414C216.931 69.4144 216.635 67.9587 216.635 66.2743C216.635 65.011 216.804 63.875 217.142 62.8665C217.485 61.8527 217.969 60.9897 218.592 60.2774C219.216 59.5652 219.955 59.0193 220.807 58.6398C221.66 58.2603 222.598 58.0705 223.622 58.0705C224.465 58.0705 225.25 58.1979 225.977 58.4526C226.71 58.7022 227.363 59.0583 227.935 59.521C228.512 59.9785 228.993 60.527 229.378 61.1664C229.762 61.8007 230.027 62.5051 230.173 63.2798H228.177ZM234.018 74.2598V58.2889H243.657V60.0045H235.952V65.4009H243.158V67.1165H235.952V72.5441H243.782V74.2598H234.018ZM254.197 74.2598V58.2889H263.774V60.0045H256.131V65.4009H263.056V67.1165H256.131V74.2598H254.197ZM281.001 66.2743C281.001 67.9587 280.696 69.4144 280.088 70.6414C279.48 71.8683 278.645 72.8145 277.585 73.4799C276.524 74.1454 275.313 74.4781 273.951 74.4781C272.589 74.4781 271.377 74.1454 270.317 73.4799C269.256 72.8145 268.422 71.8683 267.814 70.6414C267.205 69.4144 266.901 67.9587 266.901 66.2743C266.901 64.5899 267.205 63.1342 267.814 61.9073C268.422 60.6803 269.256 59.7341 270.317 59.0687C271.377 58.4032 272.589 58.0705 273.951 58.0705C275.313 58.0705 276.524 58.4032 277.585 59.0687C278.645 59.7341 279.48 60.6803 280.088 61.9073C280.696 63.1342 281.001 64.5899 281.001 66.2743ZM279.129 66.2743C279.129 64.8914 278.898 63.7243 278.435 62.7729C277.977 61.8215 277.356 61.1014 276.571 60.6127C275.791 60.1241 274.918 59.8797 273.951 59.8797C272.984 59.8797 272.108 60.1241 271.323 60.6127C270.543 61.1014 269.922 61.8215 269.459 62.7729C269.002 63.7243 268.773 64.8914 268.773 66.2743C268.773 67.6572 269.002 68.8244 269.459 69.7757C269.922 70.7271 270.543 71.4472 271.323 71.9359C272.108 72.4246 272.984 72.6689 273.951 72.6689C274.918 72.6689 275.791 72.4246 276.571 71.9359C277.356 71.4472 277.977 70.7271 278.435 69.7757C278.898 68.8244 279.129 67.6572 279.129 66.2743ZM284.692 74.2598V58.2889H290.088C291.336 58.2889 292.36 58.502 293.161 58.9283C293.961 59.3494 294.554 59.9291 294.939 60.6673C295.323 61.4056 295.516 62.2452 295.516 63.1862C295.516 64.1272 295.323 64.9616 294.939 65.6894C294.554 66.4173 293.964 66.9892 293.168 67.4051C292.373 67.8158 291.357 68.0211 290.119 68.0211H285.752V66.2743H290.057C290.909 66.2743 291.596 66.1495 292.116 65.9C292.641 65.6504 293.02 65.2969 293.254 64.8394C293.493 64.3767 293.613 63.8256 293.613 63.1862C293.613 62.5467 293.493 61.9878 293.254 61.5096C293.015 61.0313 292.633 60.6621 292.108 60.4022C291.583 60.1371 290.889 60.0045 290.026 60.0045H286.626V74.2598H284.692ZM292.209 67.0853L296.14 74.2598H293.894L290.026 67.0853H292.209ZM299.177 58.2889H301.486L306.913 71.546H307.101L312.528 58.2889H314.836V74.2598H313.027V62.1256H312.871L307.88 74.2598H306.134L301.143 62.1256H300.987V74.2598H299.177V58.2889Z" fill="black"/>
<path d="M435.644 58.2889H437.952L443.38 71.546H443.567L448.995 58.2889H451.303V74.2598H449.494V62.1256H449.338L444.347 74.2598H442.6L437.609 62.1256H437.453V74.2598H435.644V58.2889ZM466.101 58.2889H468.035V68.8633C468.035 69.9551 467.777 70.9299 467.263 71.7877C466.753 72.6403 466.033 73.3136 465.103 73.8075C464.172 74.2962 463.08 74.5405 461.827 74.5405C460.574 74.5405 459.483 74.2962 458.552 73.8075C457.621 73.3136 456.899 72.6403 456.384 71.7877C455.875 70.9299 455.62 69.9551 455.62 68.8633V58.2889H457.554V68.7074C457.554 69.4872 457.725 70.1813 458.068 70.7895C458.412 71.3926 458.9 71.8683 459.535 72.2166C460.174 72.5597 460.938 72.7313 461.827 72.7313C462.716 72.7313 463.481 72.5597 464.12 72.2166C464.759 71.8683 465.248 71.3926 465.586 70.7895C465.929 70.1813 466.101 69.4872 466.101 68.7074V58.2889ZM472.336 74.2598V58.2889H474.27V72.5441H481.694V74.2598H472.336ZM482.131 60.0045V58.2889H494.109V60.0045H489.087V74.2598H487.153V60.0045H482.131ZM499.467 58.2889V74.2598H497.533V58.2889H499.467ZM510.397 65.4165V67.1321H503.41V65.4165H510.397ZM514.324 74.2598V58.2889H519.721C520.974 58.2889 521.998 58.515 522.793 58.9673C523.594 59.4144 524.186 60.0201 524.571 60.7843C524.956 61.5485 525.148 62.4012 525.148 63.3422C525.148 64.2831 524.956 65.1384 524.571 65.9078C524.192 66.6772 523.604 67.2907 522.809 67.7482C522.013 68.2005 520.994 68.4266 519.752 68.4266H515.884V66.711H519.689C520.547 66.711 521.236 66.5628 521.756 66.2665C522.276 65.9702 522.653 65.5699 522.887 65.0656C523.126 64.5561 523.245 63.9816 523.245 63.3422C523.245 62.7027 523.126 62.1308 522.887 61.6265C522.653 61.1222 522.273 60.7271 521.748 60.4412C521.223 60.15 520.526 60.0045 519.658 60.0045H516.258V74.2598H514.324ZM527.728 74.2598H525.701L531.565 58.2889H533.561L539.426 74.2598H537.398L532.625 60.8155H532.501L527.728 74.2598ZM528.477 68.0211H536.649V69.7368H528.477V68.0211ZM552.519 63.2798C552.348 62.7547 552.122 62.2842 551.841 61.8683C551.565 61.4472 551.235 61.0884 550.851 60.7921C550.471 60.4958 550.04 60.2696 549.556 60.1137C549.073 59.9577 548.542 59.8797 547.965 59.8797C547.019 59.8797 546.159 60.1241 545.384 60.6127C544.609 61.1014 543.993 61.8215 543.536 62.7729C543.078 63.7243 542.85 64.8914 542.85 66.2743C542.85 67.6572 543.081 68.8244 543.544 69.7757C544.006 70.7271 544.633 71.4472 545.423 71.9359C546.213 72.4246 547.102 72.6689 548.09 72.6689C549.005 72.6689 549.811 72.474 550.507 72.084C551.209 71.6889 551.755 71.1326 552.145 70.4152C552.54 69.6926 552.738 68.8425 552.738 67.8652L553.33 67.9899H548.527V66.2743H554.609V67.9899C554.609 69.3052 554.329 70.449 553.767 71.4212C553.211 72.3934 552.441 73.1472 551.459 73.6827C550.481 74.213 549.359 74.4781 548.09 74.4781C546.676 74.4781 545.433 74.1454 544.362 73.4799C543.297 72.8145 542.465 71.8683 541.867 70.6414C541.274 69.4144 540.978 67.9587 540.978 66.2743C540.978 65.011 541.147 63.875 541.485 62.8665C541.828 61.8527 542.311 60.9897 542.935 60.2774C543.559 59.5652 544.297 59.0193 545.15 58.6398C546.003 58.2603 546.941 58.0705 547.965 58.0705C548.807 58.0705 549.592 58.1979 550.32 58.4526C551.053 58.7022 551.706 59.0583 552.278 59.521C552.855 59.9785 553.336 60.527 553.72 61.1664C554.105 61.8007 554.37 62.5051 554.516 63.2798H552.519ZM558.361 74.2598V58.2889H568V60.0045H560.295V65.4009H567.5V67.1165H560.295V72.5441H568.124V74.2598H558.361ZM578.54 74.2598V58.2889H588.116V60.0045H580.474V65.4009H587.399V67.1165H580.474V74.2598H578.54ZM605.343 66.2743C605.343 67.9587 605.039 69.4144 604.431 70.6414C603.823 71.8683 602.988 72.8145 601.928 73.4799C600.867 74.1454 599.656 74.4781 598.294 74.4781C596.932 74.4781 595.72 74.1454 594.66 73.4799C593.599 72.8145 592.765 71.8683 592.156 70.6414C591.548 69.4144 591.244 67.9587 591.244 66.2743C591.244 64.5899 591.548 63.1342 592.156 61.9073C592.765 60.6803 593.599 59.7341 594.66 59.0687C595.72 58.4032 596.932 58.0705 598.294 58.0705C599.656 58.0705 600.867 58.4032 601.928 59.0687C602.988 59.7341 603.823 60.6803 604.431 61.9073C605.039 63.1342 605.343 64.5899 605.343 66.2743ZM603.472 66.2743C603.472 64.8914 603.24 63.7243 602.778 62.7729C602.32 61.8215 601.699 61.1014 600.914 60.6127C600.134 60.1241 599.261 59.8797 598.294 59.8797C597.327 59.8797 596.451 60.1241 595.666 60.6127C594.886 61.1014 594.265 61.8215 593.802 62.7729C593.344 63.7243 593.116 64.8914 593.116 66.2743C593.116 67.6572 593.344 68.8244 593.802 69.7757C594.265 70.7271 594.886 71.4472 595.666 71.9359C596.451 72.4246 597.327 72.6689 598.294 72.6689C599.261 72.6689 600.134 72.4246 600.914 71.9359C601.699 71.4472 602.32 70.7271 602.778 69.7757C603.24 68.8244 603.472 67.6572 603.472 66.2743ZM609.034 74.2598V58.2889H614.431C615.679 58.2889 616.703 58.502 617.503 58.9283C618.304 59.3494 618.897 59.9291 619.281 60.6673C619.666 61.4056 619.858 62.2452 619.858 63.1862C619.858 64.1272 619.666 64.9616 619.281 65.6894C618.897 66.4173 618.307 66.9892 617.511 67.4051C616.716 67.8158 615.699 68.0211 614.462 68.0211H610.095V66.2743H614.4C615.252 66.2743 615.939 66.1495 616.458 65.9C616.984 65.6504 617.363 65.2969 617.597 64.8394C617.836 64.3767 617.956 63.8256 617.956 63.1862C617.956 62.5467 617.836 61.9878 617.597 61.5096C617.358 61.0313 616.976 60.6621 616.451 60.4022C615.926 60.1371 615.231 60.0045 614.368 60.0045H610.968V74.2598H609.034ZM616.552 67.0853L620.482 74.2598H618.236L614.368 67.0853H616.552ZM623.52 58.2889H625.829L631.256 71.546H631.443L636.871 58.2889H639.179V74.2598H637.37V62.1256H637.214L632.223 74.2598H630.476L625.485 62.1256H625.33V74.2598H623.52V58.2889Z" fill="black"/>
<path d="M505.484 414.378L502.666 414.878C502.549 414.517 502.361 414.174 502.105 413.848C501.855 413.522 501.516 413.255 501.086 413.048C500.656 412.84 500.119 412.736 499.474 412.736C498.594 412.736 497.859 412.933 497.27 413.328C496.681 413.716 496.386 414.219 496.386 414.836C496.386 415.37 496.584 415.799 496.979 416.125C497.374 416.451 498.012 416.718 498.892 416.926L501.429 417.508C502.899 417.848 503.994 418.371 504.715 419.078C505.436 419.785 505.796 420.704 505.796 421.834C505.796 422.79 505.519 423.643 504.964 424.391C504.417 425.133 503.651 425.715 502.666 426.138C501.689 426.561 500.556 426.773 499.266 426.773C497.478 426.773 496.019 426.391 494.889 425.629C493.759 424.859 493.066 423.768 492.809 422.353L495.814 421.896C496.001 422.679 496.386 423.272 496.968 423.674C497.551 424.069 498.31 424.267 499.246 424.267C500.265 424.267 501.079 424.055 501.689 423.632C502.299 423.203 502.604 422.679 502.604 422.062C502.604 421.563 502.417 421.144 502.043 420.804C501.675 420.465 501.11 420.208 500.348 420.035L497.644 419.442C496.154 419.102 495.052 418.562 494.338 417.82C493.631 417.078 493.277 416.139 493.277 415.002C493.277 414.06 493.541 413.235 494.068 412.528C494.594 411.821 495.322 411.27 496.251 410.874C497.18 410.472 498.244 410.271 499.443 410.271C501.169 410.271 502.528 410.646 503.519 411.394C504.51 412.136 505.165 413.131 505.484 414.378ZM509.214 426.45V410.479H512.323V426.45H509.214ZM510.784 408.015C510.244 408.015 509.779 407.835 509.391 407.474C509.01 407.107 508.819 406.67 508.819 406.164C508.819 405.651 509.01 405.215 509.391 404.854C509.779 404.487 510.244 404.303 510.784 404.303C511.325 404.303 511.786 404.487 512.167 404.854C512.556 405.215 512.75 405.651 512.75 406.164C512.75 406.67 512.556 407.107 512.167 407.474C511.786 407.835 511.325 408.015 510.784 408.015ZM516.506 426.45V410.479H519.49V413.079H519.688C520.02 412.198 520.564 411.512 521.32 411.02C522.076 410.521 522.98 410.271 524.034 410.271C525.101 410.271 525.995 410.521 526.716 411.02C527.444 411.519 527.981 412.205 528.328 413.079H528.494C528.876 412.226 529.482 411.547 530.314 411.041C531.146 410.528 532.137 410.271 533.288 410.271C534.736 410.271 535.918 410.725 536.833 411.633C537.755 412.542 538.216 413.911 538.216 415.741V426.45H535.107V416.032C535.107 414.95 534.813 414.167 534.224 413.682C533.634 413.197 532.931 412.954 532.113 412.954C531.101 412.954 530.314 413.266 529.753 413.89C529.191 414.507 528.91 415.3 528.91 416.271V426.45H525.812V415.834C525.812 414.968 525.541 414.271 525.001 413.744C524.46 413.217 523.756 412.954 522.89 412.954C522.301 412.954 521.757 413.11 521.258 413.422C520.765 413.727 520.367 414.153 520.062 414.701C519.764 415.248 519.615 415.883 519.615 416.604V426.45H516.506ZM542.383 426.45V410.479H545.492V426.45H542.383ZM543.953 408.015C543.413 408.015 542.948 407.835 542.56 407.474C542.179 407.107 541.988 406.67 541.988 406.164C541.988 405.651 542.179 405.215 542.56 404.854C542.948 404.487 543.413 404.303 543.953 404.303C544.494 404.303 544.955 404.487 545.336 404.854C545.724 405.215 545.918 405.651 545.918 406.164C545.918 406.67 545.724 407.107 545.336 407.474C544.955 407.835 544.494 408.015 543.953 408.015ZM552.783 405.156V426.45H549.675V405.156H552.783ZM561.614 426.804C560.602 426.804 559.687 426.617 558.869 426.242C558.051 425.861 557.403 425.31 556.924 424.589C556.453 423.868 556.217 422.984 556.217 421.938C556.217 421.036 556.391 420.295 556.737 419.712C557.084 419.13 557.552 418.669 558.141 418.33C558.73 417.99 559.389 417.733 560.116 417.56C560.844 417.387 561.586 417.255 562.342 417.165C563.298 417.054 564.075 416.964 564.671 416.895C565.267 416.818 565.7 416.697 565.97 416.531C566.241 416.364 566.376 416.094 566.376 415.72V415.647C566.376 414.739 566.119 414.035 565.606 413.536C565.1 413.037 564.345 412.788 563.34 412.788C562.293 412.788 561.468 413.02 560.865 413.484C560.269 413.942 559.857 414.451 559.628 415.013L556.706 414.347C557.053 413.377 557.559 412.593 558.224 411.997C558.896 411.394 559.669 410.958 560.543 410.687C561.416 410.41 562.335 410.271 563.298 410.271C563.936 410.271 564.612 410.348 565.326 410.5C566.047 410.646 566.719 410.916 567.343 411.311C567.974 411.706 568.49 412.271 568.892 413.006C569.294 413.734 569.495 414.68 569.495 415.845V426.45H566.459V424.267H566.334C566.133 424.669 565.832 425.064 565.43 425.452C565.028 425.84 564.511 426.163 563.88 426.419C563.25 426.675 562.494 426.804 561.614 426.804ZM562.29 424.308C563.149 424.308 563.884 424.138 564.494 423.799C565.111 423.459 565.579 423.015 565.898 422.468C566.223 421.913 566.386 421.321 566.386 420.69V418.631C566.275 418.742 566.061 418.846 565.742 418.943C565.43 419.033 565.073 419.113 564.671 419.182C564.269 419.245 563.877 419.303 563.496 419.359C563.114 419.407 562.796 419.449 562.539 419.484C561.936 419.56 561.385 419.688 560.886 419.868C560.394 420.049 559.999 420.309 559.701 420.648C559.409 420.981 559.264 421.425 559.264 421.979C559.264 422.749 559.548 423.331 560.116 423.726C560.685 424.114 561.409 424.308 562.29 424.308ZM573.636 426.45V410.479H576.641V413.016H576.807C577.099 412.157 577.612 411.481 578.346 410.989C579.088 410.49 579.927 410.24 580.863 410.24C581.057 410.24 581.285 410.247 581.549 410.261C581.819 410.275 582.031 410.292 582.183 410.313V413.287C582.058 413.252 581.836 413.214 581.518 413.172C581.199 413.124 580.88 413.1 580.561 413.1C579.826 413.1 579.171 413.255 578.596 413.567C578.027 413.872 577.577 414.299 577.244 414.846C576.911 415.387 576.745 416.004 576.745 416.697V426.45H573.636ZM481.281 476.439V467.965H481.094C480.907 468.305 480.636 468.693 480.283 469.13C479.936 469.566 479.458 469.948 478.848 470.273C478.238 470.599 477.448 470.762 476.477 470.762C475.188 470.762 474.037 470.433 473.025 469.774C472.02 469.109 471.23 468.163 470.654 466.936C470.086 465.702 469.802 464.222 469.802 462.496C469.802 460.77 470.089 459.293 470.665 458.067C471.247 456.84 472.044 455.9 473.056 455.249C474.068 454.597 475.216 454.271 476.498 454.271C477.489 454.271 478.286 454.438 478.889 454.77C479.499 455.096 479.971 455.477 480.304 455.914C480.643 456.351 480.907 456.736 481.094 457.068H481.354V454.479H484.39V476.439H481.281ZM477.163 468.111C478.058 468.111 478.813 467.875 479.43 467.404C480.054 466.925 480.525 466.263 480.844 465.418C481.17 464.572 481.333 463.588 481.333 462.465C481.333 461.356 481.173 460.385 480.855 459.553C480.536 458.722 480.068 458.073 479.451 457.609C478.834 457.145 478.071 456.912 477.163 456.912C476.228 456.912 475.448 457.155 474.824 457.64C474.2 458.125 473.729 458.787 473.41 459.626C473.098 460.465 472.942 461.411 472.942 462.465C472.942 463.532 473.101 464.492 473.42 465.345C473.739 466.198 474.21 466.873 474.834 467.372C475.465 467.865 476.241 468.111 477.163 468.111ZM498.687 463.827V454.479H501.806V470.45H498.749V467.684H498.583C498.215 468.537 497.626 469.248 496.815 469.816C496.011 470.377 495.009 470.658 493.81 470.658C492.784 470.658 491.876 470.433 491.086 469.982C490.303 469.525 489.686 468.849 489.235 467.955C488.792 467.061 488.57 465.955 488.57 464.638V454.479H491.679V464.264C491.679 465.352 491.98 466.218 492.583 466.863C493.186 467.508 493.97 467.83 494.933 467.83C495.515 467.83 496.094 467.684 496.67 467.393C497.252 467.102 497.734 466.662 498.115 466.073C498.503 465.484 498.694 464.735 498.687 463.827ZM512.867 470.773C511.293 470.773 509.938 470.436 508.801 469.764C507.671 469.085 506.798 468.132 506.181 466.905C505.571 465.671 505.266 464.225 505.266 462.569C505.266 460.933 505.571 459.491 506.181 458.243C506.798 456.996 507.657 456.022 508.759 455.322C509.869 454.621 511.165 454.271 512.648 454.271C513.549 454.271 514.423 454.42 515.268 454.718C516.114 455.017 516.873 455.484 517.546 456.122C518.218 456.76 518.748 457.588 519.136 458.607C519.525 459.619 519.719 460.85 519.719 462.298V463.401H507.023V461.071H516.672C516.672 460.253 516.506 459.529 516.173 458.898C515.84 458.261 515.372 457.758 514.769 457.391C514.173 457.023 513.473 456.84 512.669 456.84C511.796 456.84 511.033 457.054 510.382 457.484C509.737 457.907 509.238 458.462 508.884 459.148C508.538 459.827 508.364 460.565 508.364 461.363V463.182C508.364 464.25 508.552 465.158 508.926 465.906C509.307 466.655 509.837 467.227 510.517 467.622C511.196 468.01 511.99 468.204 512.898 468.204C513.487 468.204 514.024 468.121 514.509 467.955C514.995 467.781 515.414 467.525 515.768 467.185C516.121 466.846 516.391 466.426 516.579 465.927L519.521 466.457C519.285 467.324 518.863 468.083 518.253 468.735C517.65 469.379 516.891 469.882 515.976 470.242C515.067 470.596 514.031 470.773 512.867 470.773ZM535.136 458.378L532.318 458.878C532.2 458.517 532.013 458.174 531.757 457.848C531.507 457.522 531.167 457.255 530.738 457.048C530.308 456.84 529.771 456.736 529.126 456.736C528.246 456.736 527.511 456.933 526.922 457.328C526.333 457.716 526.038 458.219 526.038 458.836C526.038 459.37 526.235 459.799 526.631 460.125C527.026 460.451 527.663 460.718 528.544 460.926L531.081 461.508C532.55 461.848 533.646 462.371 534.366 463.078C535.087 463.785 535.448 464.704 535.448 465.834C535.448 466.79 535.171 467.643 534.616 468.391C534.068 469.133 533.302 469.715 532.318 470.138C531.341 470.561 530.207 470.773 528.918 470.773C527.13 470.773 525.671 470.391 524.541 469.629C523.411 468.859 522.718 467.768 522.461 466.353L525.466 465.896C525.653 466.679 526.038 467.272 526.62 467.674C527.202 468.069 527.961 468.267 528.897 468.267C529.916 468.267 530.731 468.055 531.341 467.632C531.951 467.203 532.256 466.679 532.256 466.062C532.256 465.563 532.069 465.144 531.694 464.804C531.327 464.465 530.762 464.208 529.999 464.035L527.296 463.442C525.806 463.102 524.704 462.562 523.99 461.82C523.283 461.078 522.929 460.139 522.929 459.002C522.929 458.06 523.192 457.235 523.719 456.528C524.246 455.821 524.974 455.27 525.903 454.874C526.832 454.472 527.896 454.271 529.095 454.271C530.821 454.271 532.18 454.646 533.171 455.394C534.162 456.136 534.817 457.131 535.136 458.378ZM546.321 454.479V456.975H537.598V454.479H546.321ZM539.937 450.653H543.046V465.761C543.046 466.364 543.136 466.818 543.316 467.123C543.497 467.421 543.729 467.625 544.013 467.736C544.304 467.84 544.62 467.892 544.959 467.892C545.209 467.892 545.427 467.875 545.614 467.84C545.801 467.806 545.947 467.778 546.051 467.757L546.612 470.325C546.432 470.395 546.176 470.464 545.843 470.533C545.51 470.61 545.094 470.651 544.595 470.658C543.777 470.672 543.015 470.526 542.308 470.221C541.601 469.916 541.029 469.445 540.592 468.807C540.155 468.17 539.937 467.369 539.937 466.405V450.653ZM549.76 470.45V454.479H552.869V470.45H549.76ZM551.33 452.015C550.79 452.015 550.325 451.835 549.937 451.474C549.556 451.107 549.365 450.67 549.365 450.164C549.365 449.651 549.556 449.215 549.937 448.854C550.325 448.487 550.79 448.303 551.33 448.303C551.871 448.303 552.332 448.487 552.713 448.854C553.101 449.215 553.296 449.651 553.296 450.164C553.296 450.67 553.101 451.107 552.713 451.474C552.332 451.835 551.871 452.015 551.33 452.015ZM563.779 470.773C562.282 470.773 560.975 470.429 559.859 469.743C558.743 469.057 557.877 468.097 557.26 466.863C556.643 465.629 556.334 464.187 556.334 462.538C556.334 460.881 556.643 459.432 557.26 458.191C557.877 456.95 558.743 455.987 559.859 455.301C560.975 454.614 562.282 454.271 563.779 454.271C565.276 454.271 566.583 454.614 567.699 455.301C568.815 455.987 569.682 456.95 570.298 458.191C570.915 459.432 571.224 460.881 571.224 462.538C571.224 464.187 570.915 465.629 570.298 466.863C569.682 468.097 568.815 469.057 567.699 469.743C566.583 470.429 565.276 470.773 563.779 470.773ZM563.789 468.163C564.76 468.163 565.564 467.906 566.202 467.393C566.839 466.88 567.311 466.198 567.616 465.345C567.928 464.492 568.084 463.553 568.084 462.527C568.084 461.508 567.928 460.572 567.616 459.72C567.311 458.86 566.839 458.17 566.202 457.651C565.564 457.131 564.76 456.871 563.789 456.871C562.812 456.871 562.001 457.131 561.356 457.651C560.719 458.17 560.244 458.86 559.932 459.72C559.627 460.572 559.474 461.508 559.474 462.527C559.474 463.553 559.627 464.492 559.932 465.345C560.244 466.198 560.719 466.88 561.356 467.393C562.001 467.906 562.812 468.163 563.789 468.163ZM577.803 460.967V470.45H574.694V454.479H577.678V457.079H577.876C578.243 456.233 578.819 455.554 579.602 455.041C580.392 454.528 581.387 454.271 582.586 454.271C583.674 454.271 584.627 454.5 585.445 454.958C586.263 455.408 586.898 456.081 587.348 456.975C587.799 457.869 588.024 458.975 588.024 460.292V470.45H584.915V460.666C584.915 459.508 584.614 458.604 584.01 457.952C583.407 457.294 582.579 456.964 581.525 456.964C580.804 456.964 580.163 457.12 579.602 457.432C579.047 457.744 578.607 458.202 578.281 458.805C577.962 459.401 577.803 460.122 577.803 460.967ZM604.161 458.378L601.343 458.878C601.226 458.517 601.038 458.174 600.782 457.848C600.532 457.522 600.193 457.255 599.763 457.048C599.333 456.84 598.796 456.736 598.151 456.736C597.271 456.736 596.536 456.933 595.947 457.328C595.358 457.716 595.063 458.219 595.063 458.836C595.063 459.37 595.261 459.799 595.656 460.125C596.051 460.451 596.689 460.718 597.569 460.926L600.106 461.508C601.576 461.848 602.671 462.371 603.392 463.078C604.113 463.785 604.473 464.704 604.473 465.834C604.473 466.79 604.196 467.643 603.641 468.391C603.094 469.133 602.328 469.715 601.343 470.138C600.366 470.561 599.233 470.773 597.943 470.773C596.155 470.773 594.696 470.391 593.566 469.629C592.436 468.859 591.743 467.768 591.486 466.353L594.491 465.896C594.679 466.679 595.063 467.272 595.646 467.674C596.228 468.069 596.987 468.267 597.923 468.267C598.942 468.267 599.756 468.055 600.366 467.632C600.976 467.203 601.281 466.679 601.281 466.062C601.281 465.563 601.094 465.144 600.72 464.804C600.352 464.465 599.787 464.208 599.025 464.035L596.321 463.442C594.831 463.102 593.729 462.562 593.015 461.82C592.308 461.078 591.954 460.139 591.954 459.002C591.954 458.06 592.218 457.235 592.745 456.528C593.271 455.821 593.999 455.27 594.928 454.874C595.857 454.472 596.921 454.271 598.12 454.271C599.846 454.271 601.205 454.646 602.196 455.394C603.187 456.136 603.842 457.131 604.161 458.378Z" fill="black"/>
<g clip-path="url(#clip1_455_3090)">
<path fill-rule="evenodd" clip-rule="evenodd" d="M523.38 512.4C523.38 508.517 524.922 504.793 527.668 502.048C530.413 499.302 534.137 497.76 538.02 497.76C541.903 497.76 545.627 499.302 548.372 502.048C551.118 504.793 552.66 508.517 552.66 512.4C552.66 516.283 551.118 520.006 548.372 522.752C545.627 525.497 541.903 527.04 538.02 527.04C534.137 527.04 530.413 525.497 527.668 522.752C524.922 520.006 523.38 516.283 523.38 512.4V512.4ZM537.185 518.666L545.613 508.129L544.091 506.911L536.903 515.892L531.813 511.65L530.563 513.149L537.185 518.668V518.666Z" fill="#27AE60"/>
</g>
<g clip-path="url(#clip2_455_3090)">
<path d="M213.524 502.005C207.814 496.295 198.445 496.295 192.735 502.005C187.025 507.714 187.025 517.084 192.735 522.794C198.445 528.503 207.668 528.503 213.377 522.794C219.087 517.084 219.233 507.714 213.524 502.005V502.005ZM207.229 518.548L203.129 514.449L199.03 518.548L196.981 516.498L201.08 512.399L196.981 508.3L199.03 506.25L203.129 510.35L207.229 506.25L209.278 508.3L205.179 512.399L209.278 516.498L207.229 518.548V518.548Z" fill="#EB5757"/>
</g>
<g filter="url(#filter1_ddd_455_3090)">
<rect x="86.01" y="91.5" width="247.05" height="292.8" rx="14.64" fill="white"/>
<rect x="146.4" y="142.74" width="126.27" height="12.81" rx="6.405" fill="#C1B4E6"/>
<rect x="146.4" y="170.19" width="126.27" height="12.81" rx="6.405" fill="#C1B4E6"/>
<rect x="146.4" y="197.64" width="126.27" height="14.64" rx="7.32" fill="#C1B4E6"/>
<rect x="146.4" y="226.92" width="126.27" height="14.64" rx="7.32" fill="#C1B4E6"/>
<rect x="146.4" y="256.2" width="126.27" height="12.81" rx="6.405" fill="#C1B4E6"/>
<rect x="146.4" y="283.65" width="126.27" height="12.81" rx="6.405" fill="#C1B4E6"/>
<rect x="179.34" y="311.1" width="60.39" height="21.96" rx="10.98" fill="#4F3895"/>
</g>
</g>
<defs>
<filter id="filter0_ddd_455_3090" x="229.067" y="22.8989" width="616.077" height="661.827" filterUnits="userSpaceOnUse" color-interpolation-filters="sRGB">
<feFlood flood-opacity="0" result="BackgroundImageFix"/>
<feColorMatrix in="SourceAlpha" type="matrix" values="0 0 0 0 0 0 0 0 0 0 0 0 0 0 0 0 0 0 127 0" result="hardAlpha"/>
<feOffset dy="9.4447"/>
<feGaussianBlur stdDeviation="7.51721"/>
<feColorMatrix type="matrix" values="0 0 0 0 0.215686 0 0 0 0 0 0 0 0 0 0.423529 0 0 0 0.0157037 0"/>
<feBlend mode="normal" in2="BackgroundImageFix" result="effect1_dropShadow_455_3090"/>
<feColorMatrix in="SourceAlpha" type="matrix" values="0 0 0 0 0 0 0 0 0 0 0 0 0 0 0 0 0 0 127 0" result="hardAlpha"/>
<feOffset dy="44.6477"/>
<feGaussianBlur stdDeviation="29.3855"/>
<feColorMatrix type="matrix" values="0 0 0 0 0.215686 0 0 0 0 0 0 0 0 0 0.423529 0 0 0 0.0242963 0"/>
<feBlend mode="normal" in2="effect1_dropShadow_455_3090" result="effect2_dropShadow_455_3090"/>
<feColorMatrix in="SourceAlpha" type="matrix" values="0 0 0 0 0 0 0 0 0 0 0 0 0 0 0 0 0 0 127 0" result="hardAlpha"/>
<feOffset dy="115.912"/>
<feGaussianBlur stdDeviation="92.2567"/>
<feColorMatrix type="matrix" values="0 0 0 0 0.215 0 0 0 0 0 0 0 0 0 0.425 0 0 0 0.04 0"/>
<feBlend mode="normal" in2="effect2_dropShadow_455_3090" result="effect3_dropShadow_455_3090"/>
<feBlend mode="normal" in="SourceGraphic" in2="effect3_dropShadow_455_3090" result="shape"/>
</filter>
<filter id="filter1_ddd_455_3090" x="-98.5034" y="22.8989" width="616.077" height="661.827" filterUnits="userSpaceOnUse" color-interpolation-filters="sRGB">
<feFlood flood-opacity="0" result="BackgroundImageFix"/>
<feColorMatrix in="SourceAlpha" type="matrix" values="0 0 0 0 0 0 0 0 0 0 0 0 0 0 0 0 0 0 127 0" result="hardAlpha"/>
<feOffset dy="9.4447"/>
<feGaussianBlur stdDeviation="7.51721"/>
<feColorMatrix type="matrix" values="0 0 0 0 0.215686 0 0 0 0 0 0 0 0 0 0.423529 0 0 0 0.0157037 0"/>
<feBlend mode="normal" in2="BackgroundImageFix" result="effect1_dropShadow_455_3090"/>
<feColorMatrix in="SourceAlpha" type="matrix" values="0 0 0 0 0 0 0 0 0 0 0 0 0 0 0 0 0 0 127 0" result="hardAlpha"/>
<feOffset dy="44.6477"/>
<feGaussianBlur stdDeviation="29.3855"/>
<feColorMatrix type="matrix" values="0 0 0 0 0.215686 0 0 0 0 0 0 0 0 0 0.423529 0 0 0 0.0242963 0"/>
<feBlend mode="normal" in2="effect1_dropShadow_455_3090" result="effect2_dropShadow_455_3090"/>
<feColorMatrix in="SourceAlpha" type="matrix" values="0 0 0 0 0 0 0 0 0 0 0 0 0 0 0 0 0 0 127 0" result="hardAlpha"/>
<feOffset dy="115.912"/>
<feGaussianBlur stdDeviation="92.2567"/>
<feColorMatrix type="matrix" values="0 0 0 0 0.215 0 0 0 0 0 0 0 0 0 0.425 0 0 0 0.04 0"/>
<feBlend mode="normal" in2="effect2_dropShadow_455_3090" result="effect3_dropShadow_455_3090"/>
<feBlend mode="normal" in="SourceGraphic" in2="effect3_dropShadow_455_3090" result="shape"/>
</filter>
<clipPath id="clip0_455_3090">
<rect width="732" height="549" fill="white"/>
</clipPath>
<clipPath id="clip1_455_3090">
<rect width="29.28" height="29.28" fill="white" transform="translate(523.38 497.76)"/>
</clipPath>
<clipPath id="clip2_455_3090">
<rect width="29.28" height="29.28" fill="white" transform="translate(188.49 497.76)"/>
</clipPath>
</defs>
</svg>
