<svg width="289" height="145" viewBox="0 0 289 145" fill="none" xmlns="http://www.w3.org/2000/svg">
<g filter="url(#filter0_d_3979_7902)">
<rect x="4" y="2" width="128" height="64.7546" rx="4.47656" fill="#8B6DCB"/>
<path d="M21.9316 24.3354H21.1169L17.8401 19.3665V24.3354H17.0253V18.0862H17.8401L21.1169 23.0462V18.0862H21.9316V24.3354ZM25.4603 24.416C25.0007 24.416 24.5829 24.3116 24.2068 24.1027C23.8368 23.8938 23.5443 23.5983 23.3294 23.2163C23.1205 22.8283 23.0161 22.3807 23.0161 21.8733C23.0161 21.372 23.1235 20.9303 23.3384 20.5483C23.5592 20.1603 23.8577 19.8649 24.2337 19.6619C24.6097 19.453 25.0305 19.3486 25.4961 19.3486C25.9617 19.3486 26.3824 19.453 26.7585 19.6619C27.1345 19.8649 27.43 20.1573 27.6448 20.5393C27.8657 20.9213 27.9761 21.366 27.9761 21.8733C27.9761 22.3807 27.8627 22.8283 27.6359 23.2163C27.415 23.5983 27.1136 23.8938 26.7316 24.1027C26.3496 24.3116 25.9258 24.416 25.4603 24.416ZM25.4603 23.6998C25.7527 23.6998 26.0273 23.6311 26.284 23.4939C26.5406 23.3566 26.7465 23.1507 26.9017 22.8761C27.0629 22.6015 27.1435 22.2673 27.1435 21.8733C27.1435 21.4794 27.0659 21.1452 26.9107 20.8706C26.7555 20.596 26.5526 20.3931 26.3019 20.2618C26.0512 20.1245 25.7796 20.0559 25.4871 20.0559C25.1887 20.0559 24.9141 20.1245 24.6634 20.2618C24.4187 20.3931 24.2218 20.596 24.0725 20.8706C23.9233 21.1452 23.8487 21.4794 23.8487 21.8733C23.8487 22.2732 23.9203 22.6105 24.0636 22.885C24.2128 23.1596 24.4098 23.3655 24.6545 23.5028C24.8992 23.6341 25.1678 23.6998 25.4603 23.6998ZM29.307 24.3892C29.1518 24.3892 29.0205 24.3354 28.913 24.228C28.8056 24.1206 28.7519 23.9893 28.7519 23.8341C28.7519 23.6789 28.8056 23.5476 28.913 23.4401C29.0205 23.3327 29.1518 23.279 29.307 23.279C29.4562 23.279 29.5815 23.3327 29.683 23.4401C29.7904 23.5476 29.8442 23.6789 29.8442 23.8341C29.8442 23.9893 29.7904 24.1206 29.683 24.228C29.5815 24.3354 29.4562 24.3892 29.307 24.3892ZM35.4538 24.416C34.9942 24.416 34.5764 24.3116 34.2004 24.1027C33.8303 23.8938 33.5379 23.5983 33.323 23.2163C33.1141 22.8283 33.0096 22.3807 33.0096 21.8733C33.0096 21.372 33.1171 20.9303 33.3319 20.5483C33.5528 20.1603 33.8512 19.8649 34.2273 19.6619C34.6033 19.453 35.0241 19.3486 35.4896 19.3486C35.9552 19.3486 36.376 19.453 36.752 19.6619C37.1281 19.8649 37.4235 20.1573 37.6384 20.5393C37.8592 20.9213 37.9697 21.366 37.9697 21.8733C37.9697 22.3807 37.8563 22.8283 37.6294 23.2163C37.4086 23.5983 37.1072 23.8938 36.7252 24.1027C36.3432 24.3116 35.9194 24.416 35.4538 24.416ZM35.4538 23.6998C35.7463 23.6998 36.0209 23.6311 36.2775 23.4939C36.5342 23.3566 36.7401 23.1507 36.8953 22.8761C37.0564 22.6015 37.137 22.2673 37.137 21.8733C37.137 21.4794 37.0594 21.1452 36.9042 20.8706C36.7491 20.596 36.5461 20.3931 36.2954 20.2618C36.0447 20.1245 35.7732 20.0559 35.4807 20.0559C35.1823 20.0559 34.9077 20.1245 34.657 20.2618C34.4123 20.3931 34.2153 20.596 34.0661 20.8706C33.9169 21.1452 33.8423 21.4794 33.8423 21.8733C33.8423 22.2732 33.9139 22.6105 34.0572 22.885C34.2064 23.1596 34.4033 23.3655 34.6481 23.5028C34.8928 23.6341 35.1614 23.6998 35.4538 23.6998ZM41.0374 20.1006H40.0078V24.3354H39.1931V20.1006H38.5574V19.4291H39.1931V19.08C39.1931 18.5308 39.3334 18.1309 39.6139 17.8803C39.9004 17.6236 40.357 17.4953 40.9837 17.4953V18.1757C40.6256 18.1757 40.3719 18.2473 40.2227 18.3906C40.0794 18.5279 40.0078 18.7577 40.0078 19.08V19.4291H41.0374V20.1006ZM49.5313 18.0951L47.1766 24.3354H46.2365L43.8819 18.0951H44.7503L46.711 23.476L48.6718 18.0951H49.5313ZM50.8454 18.6323C50.6902 18.6323 50.5589 18.5786 50.4515 18.4712C50.344 18.3637 50.2903 18.2324 50.2903 18.0772C50.2903 17.922 50.344 17.7907 50.4515 17.6833C50.5589 17.5759 50.6902 17.5221 50.8454 17.5221C50.9946 17.5221 51.12 17.5759 51.2215 17.6833C51.3289 17.7907 51.3826 17.922 51.3826 18.0772C51.3826 18.2324 51.3289 18.3637 51.2215 18.4712C51.12 18.5786 50.9946 18.6323 50.8454 18.6323ZM51.2394 19.4291V24.3354H50.4246V19.4291H51.2394ZM57.1045 21.6943C57.1045 21.8495 57.0955 22.0136 57.0776 22.1867H53.1562C53.186 22.6702 53.3501 23.0492 53.6486 23.3237C53.953 23.5923 54.3201 23.7266 54.7498 23.7266C55.102 23.7266 55.3944 23.6461 55.6272 23.4849C55.866 23.3178 56.0331 23.0969 56.1286 22.8224H57.006C56.8747 23.2939 56.6121 23.6789 56.2181 23.9773C55.8242 24.2698 55.3348 24.416 54.7498 24.416C54.2843 24.416 53.8664 24.3116 53.4964 24.1027C53.1323 23.8938 52.8458 23.5983 52.6369 23.2163C52.428 22.8283 52.3235 22.3807 52.3235 21.8733C52.3235 21.366 52.425 20.9213 52.6279 20.5393C52.8309 20.1573 53.1144 19.8649 53.4785 19.6619C53.8485 19.453 54.2723 19.3486 54.7498 19.3486C55.2154 19.3486 55.6272 19.45 55.9853 19.653C56.3435 19.8559 56.618 20.1364 56.809 20.4946C57.006 20.8467 57.1045 21.2466 57.1045 21.6943ZM56.2629 21.5242C56.2629 21.2138 56.1943 20.9482 56.057 20.7273C55.9197 20.5005 55.7317 20.3304 55.4929 20.217C55.2601 20.0976 55.0005 20.038 54.714 20.038C54.3022 20.038 53.95 20.1693 53.6575 20.4319C53.371 20.6945 53.2069 21.0586 53.1651 21.5242H56.2629ZM64.7157 19.4291L63.1847 24.3354H62.3431L61.1613 20.4408L59.9795 24.3354H59.1379L57.598 19.4291H58.4306L59.5587 23.5476L60.7763 19.4291H61.609L62.7997 23.5565L63.9099 19.4291H64.7157ZM67.2612 24.416C66.8851 24.416 66.5479 24.3534 66.2495 24.228C65.951 24.0967 65.7153 23.9176 65.5422 23.6908C65.3691 23.458 65.2736 23.1924 65.2557 22.894H66.0973C66.1211 23.1387 66.2345 23.3387 66.4375 23.4939C66.6464 23.649 66.918 23.7266 67.2522 23.7266C67.5626 23.7266 67.8073 23.658 67.9864 23.5207C68.1654 23.3834 68.255 23.2103 68.255 23.0014C68.255 22.7866 68.1595 22.6284 67.9685 22.5269C67.7775 22.4195 67.482 22.315 67.0821 22.2136C66.718 22.1181 66.4196 22.0226 66.1868 21.9271C65.96 21.8256 65.763 21.6794 65.5959 21.4884C65.4347 21.2914 65.3541 21.0347 65.3541 20.7184C65.3541 20.4677 65.4288 20.2379 65.578 20.029C65.7272 19.8201 65.9391 19.656 66.2136 19.5366C66.4882 19.4112 66.8016 19.3486 67.1537 19.3486C67.6969 19.3486 68.1356 19.4858 68.4698 19.7604C68.8041 20.035 68.9831 20.411 69.007 20.8885H68.1923C68.1744 20.6318 68.0699 20.4259 67.8789 20.2707C67.6939 20.1155 67.4432 20.038 67.1269 20.038C66.8344 20.038 66.6016 20.1006 66.4285 20.226C66.2554 20.3513 66.1689 20.5155 66.1689 20.7184C66.1689 20.8795 66.2196 21.0138 66.3211 21.1213C66.4285 21.2228 66.5598 21.3063 66.715 21.372C66.8762 21.4317 67.097 21.5003 67.3776 21.5779C67.7297 21.6734 68.0162 21.7689 68.2371 21.8644C68.4579 21.9539 68.6459 22.0912 68.8011 22.2762C68.9623 22.4613 69.0458 22.703 69.0518 23.0014C69.0518 23.27 68.9772 23.5118 68.828 23.7266C68.6787 23.9415 68.4668 24.1116 68.1923 24.237C67.9237 24.3563 67.6133 24.416 67.2612 24.416Z" fill="white"/>
<g clip-path="url(#clip0_3979_7902)">
<path d="M114.278 26.2061C112.853 26.2061 111.487 25.6401 110.48 24.6327C109.472 23.6252 108.906 22.2589 108.906 20.8342C108.906 19.4095 109.472 18.0431 110.48 17.0357C111.487 16.0283 112.853 15.4623 114.278 15.4623C115.703 15.4623 117.069 16.0283 118.077 17.0357C119.084 18.0431 119.65 19.4095 119.65 20.8342C119.65 22.2589 119.084 23.6252 118.077 24.6327C117.069 25.6401 115.703 26.2061 114.278 26.2061V26.2061ZM112.396 22.2416C112.364 22.2726 112.338 22.3096 112.321 22.3506C112.303 22.3915 112.294 22.4356 112.293 22.4802C112.293 22.5248 112.302 22.569 112.318 22.6102C112.335 22.6515 112.36 22.689 112.392 22.7205C112.423 22.752 112.461 22.777 112.502 22.7938C112.543 22.8107 112.588 22.8192 112.632 22.8188C112.677 22.8184 112.721 22.8092 112.762 22.7916C112.803 22.774 112.84 22.7484 112.871 22.7163L115.621 19.9659L115.621 21.8246C115.621 21.9137 115.656 21.9991 115.719 22.062C115.782 22.125 115.868 22.1604 115.957 22.1604C116.046 22.1604 116.131 22.125 116.194 22.062C116.257 21.9991 116.293 21.9137 116.293 21.8246L116.293 19.1555C116.293 19.0664 116.257 18.981 116.194 18.9181C116.131 18.8551 116.046 18.8197 115.957 18.8197L113.288 18.8197C113.199 18.8197 113.113 18.8551 113.05 18.9181C112.987 18.981 112.952 19.0664 112.952 19.1555C112.952 19.2445 112.987 19.3299 113.05 19.3929C113.113 19.4558 113.199 19.4912 113.288 19.4912L115.146 19.4912L112.396 22.2416Z" fill="white"/>
</g>
<path d="M25.0867 38.6211H19.8653V41.3769C20.0909 41.0976 20.4132 40.872 20.8322 40.7001C21.2512 40.5174 21.6971 40.4261 22.1698 40.4261C23.0293 40.4261 23.733 40.6141 24.2809 40.9901C24.8289 41.3662 25.2264 41.8496 25.4735 42.4405C25.7206 43.0207 25.8441 43.6438 25.8441 44.31C25.8441 45.5455 25.4896 46.5393 24.7805 47.2913C24.0822 48.0434 23.083 48.4194 21.783 48.4194C20.5582 48.4194 19.5805 48.1132 18.85 47.5008C18.1194 46.8885 17.7058 46.088 17.6091 45.0996H19.8008C19.8975 45.5294 20.1124 45.8732 20.4454 46.131C20.7892 46.3889 21.2243 46.5178 21.7508 46.5178C22.3847 46.5178 22.8628 46.319 23.1851 45.9215C23.5074 45.524 23.6685 44.9976 23.6685 44.3422C23.6685 43.6761 23.502 43.1711 23.169 42.8273C22.8466 42.4728 22.3685 42.2955 21.7347 42.2955C21.2834 42.2955 20.9074 42.4083 20.6066 42.6339C20.3057 42.8596 20.0909 43.1604 19.9619 43.5364H17.8025V36.6389H25.0867V38.6211ZM27.5613 42.3922C27.5613 40.5335 27.8944 39.0778 28.5605 38.0249C29.2374 36.972 30.3547 36.4455 31.9125 36.4455C33.4704 36.4455 34.5824 36.972 35.2485 38.0249C35.9253 39.0778 36.2638 40.5335 36.2638 42.3922C36.2638 44.2616 35.9253 45.7281 35.2485 46.7918C34.5824 47.8554 33.4704 48.3872 31.9125 48.3872C30.3547 48.3872 29.2374 47.8554 28.5605 46.7918C27.8944 45.7281 27.5613 44.2616 27.5613 42.3922ZM34.0398 42.3922C34.0398 41.5972 33.9861 40.9311 33.8787 40.3939C33.782 39.8459 33.5778 39.4001 33.2663 39.0563C32.9654 38.7125 32.5142 38.5406 31.9125 38.5406C31.3109 38.5406 30.8543 38.7125 30.5427 39.0563C30.2419 39.4001 30.0378 39.8459 29.9303 40.3939C29.8336 40.9311 29.7853 41.5972 29.7853 42.3922C29.7853 43.2087 29.8336 43.8963 29.9303 44.455C30.027 45.0029 30.2312 45.4488 30.5427 45.7926C30.8543 46.1256 31.3109 46.2922 31.9125 46.2922C32.5142 46.2922 32.9708 46.1256 33.2824 45.7926C33.5939 45.4488 33.7981 45.0029 33.8948 44.455C33.9915 43.8963 34.0398 43.2087 34.0398 42.3922Z" fill="white"/>
</g>
<g filter="url(#filter1_d_3979_7902)">
<rect x="147" y="70" width="135.403" height="68.6419" rx="4.73545" fill="#8B6DCB"/>
<path d="M165.966 93.0488H165.104L161.638 87.7925V93.0488H160.776V86.4381H161.638L165.104 91.685V86.4381H165.966V93.0488ZM169.699 93.1341C169.213 93.1341 168.771 93.0236 168.373 92.8026C167.982 92.5816 167.672 92.2691 167.445 91.865C167.224 91.4546 167.113 90.981 167.113 90.4443C167.113 89.914 167.227 89.4467 167.454 89.0426C167.688 88.6322 168.004 88.3197 168.401 88.105C168.799 87.884 169.244 87.7735 169.737 87.7735C170.229 87.7735 170.674 87.884 171.072 88.105C171.47 88.3197 171.783 88.6291 172.01 89.0332C172.243 89.4373 172.36 89.9076 172.36 90.4443C172.36 90.981 172.24 91.4546 172 91.865C171.767 92.2691 171.448 92.5816 171.044 92.8026C170.64 93.0236 170.191 93.1341 169.699 93.1341ZM169.699 92.3764C170.008 92.3764 170.299 92.3038 170.57 92.1586C170.842 92.0133 171.06 91.7955 171.224 91.5051C171.394 91.2146 171.479 90.861 171.479 90.4443C171.479 90.0276 171.397 89.674 171.233 89.3836C171.069 89.0931 170.854 88.8785 170.589 88.7396C170.324 88.5943 170.037 88.5217 169.727 88.5217C169.412 88.5217 169.121 88.5943 168.856 88.7396C168.597 88.8785 168.389 89.0931 168.231 89.3836C168.073 89.674 167.994 90.0276 167.994 90.4443C167.994 90.8674 168.07 91.2241 168.221 91.5145C168.379 91.805 168.588 92.0228 168.847 92.168C169.105 92.3069 169.39 92.3764 169.699 92.3764ZM173.768 93.1057C173.604 93.1057 173.465 93.0488 173.351 92.9352C173.238 92.8215 173.181 92.6826 173.181 92.5185C173.181 92.3543 173.238 92.2154 173.351 92.1017C173.465 91.9881 173.604 91.9313 173.768 91.9313C173.926 91.9313 174.059 91.9881 174.166 92.1017C174.28 92.2154 174.336 92.3543 174.336 92.5185C174.336 92.6826 174.28 92.8215 174.166 92.9352C174.059 93.0488 173.926 93.1057 173.768 93.1057ZM180.27 93.1341C179.784 93.1341 179.342 93.0236 178.945 92.8026C178.553 92.5816 178.244 92.2691 178.016 91.865C177.795 91.4546 177.685 90.981 177.685 90.4443C177.685 89.914 177.799 89.4467 178.026 89.0426C178.259 88.6322 178.575 88.3197 178.973 88.105C179.371 87.884 179.816 87.7735 180.308 87.7735C180.801 87.7735 181.246 87.884 181.644 88.105C182.042 88.3197 182.354 88.6291 182.581 89.0332C182.815 89.4373 182.932 89.9076 182.932 90.4443C182.932 90.981 182.812 91.4546 182.572 91.865C182.338 92.2691 182.019 92.5816 181.615 92.8026C181.211 93.0236 180.763 93.1341 180.27 93.1341ZM180.27 92.3764C180.58 92.3764 180.87 92.3038 181.142 92.1586C181.413 92.0133 181.631 91.7955 181.795 91.5051C181.966 91.2146 182.051 90.861 182.051 90.4443C182.051 90.0276 181.969 89.674 181.805 89.3836C181.641 89.0931 181.426 88.8785 181.161 88.7396C180.896 88.5943 180.608 88.5217 180.299 88.5217C179.983 88.5217 179.693 88.5943 179.428 88.7396C179.169 88.8785 178.96 89.0931 178.802 89.3836C178.645 89.674 178.566 90.0276 178.566 90.4443C178.566 90.8674 178.641 91.2241 178.793 91.5145C178.951 91.805 179.159 92.0228 179.418 92.168C179.677 92.3069 179.961 92.3764 180.27 92.3764ZM186.177 88.5691H185.088V93.0488H184.226V88.5691H183.554V87.8588H184.226V87.4894C184.226 86.9085 184.374 86.4855 184.671 86.2203C184.974 85.9488 185.457 85.8131 186.12 85.8131V86.5328C185.741 86.5328 185.473 86.6086 185.315 86.7601C185.164 86.9054 185.088 87.1485 185.088 87.4894V87.8588H186.177V88.5691ZM193.183 93.0488L191.61 90.3496H190.569V93.0488H189.707V86.4476H191.838C192.337 86.4476 192.756 86.5328 193.097 86.7033C193.445 86.8738 193.704 87.1043 193.874 87.3947C194.044 87.6851 194.13 88.0166 194.13 88.3891C194.13 88.8437 193.997 89.2447 193.732 89.5919C193.473 89.9392 193.082 90.1697 192.558 90.2833L194.215 93.0488H193.183ZM190.569 89.6582H191.838C192.305 89.6582 192.655 89.5446 192.889 89.3173C193.123 89.0837 193.239 88.7743 193.239 88.3891C193.239 87.9977 193.123 87.6946 192.889 87.4799C192.662 87.2653 192.311 87.1579 191.838 87.1579H190.569V89.6582ZM200.204 90.2549C200.204 90.4191 200.195 90.5927 200.176 90.7758H196.028C196.059 91.2872 196.233 91.6882 196.549 91.9786C196.871 92.2627 197.259 92.4048 197.713 92.4048C198.086 92.4048 198.395 92.3196 198.642 92.1491C198.894 91.9723 199.071 91.7387 199.172 91.4482H200.1C199.961 91.947 199.683 92.3543 199.267 92.67C198.85 92.9794 198.332 93.1341 197.713 93.1341C197.221 93.1341 196.779 93.0236 196.388 92.8026C196.002 92.5816 195.699 92.2691 195.478 91.865C195.257 91.4546 195.147 90.981 195.147 90.4443C195.147 89.9076 195.254 89.4373 195.469 89.0332C195.684 88.6291 195.983 88.3197 196.369 88.105C196.76 87.884 197.208 87.7735 197.713 87.7735C198.206 87.7735 198.642 87.8809 199.02 88.0955C199.399 88.3102 199.69 88.607 199.892 88.9858C200.1 89.3583 200.204 89.7814 200.204 90.2549ZM199.314 90.075C199.314 89.7466 199.241 89.4657 199.096 89.2321C198.951 88.9921 198.752 88.8122 198.5 88.6922C198.253 88.5659 197.979 88.5028 197.676 88.5028C197.24 88.5028 196.867 88.6417 196.558 88.9195C196.255 89.1973 196.081 89.5825 196.037 90.075H199.314ZM203.179 93.1341C202.782 93.1341 202.425 93.0678 202.109 92.9352C201.793 92.7963 201.544 92.6069 201.361 92.3669C201.178 92.1207 201.077 91.8397 201.058 91.524H201.948C201.973 91.7829 202.093 91.9944 202.308 92.1586C202.529 92.3227 202.816 92.4048 203.17 92.4048C203.498 92.4048 203.757 92.3322 203.946 92.187C204.136 92.0418 204.231 91.8587 204.231 91.6377C204.231 91.4104 204.13 91.243 203.928 91.1357C203.725 91.0221 203.413 90.9116 202.99 90.8042C202.605 90.7032 202.289 90.6022 202.043 90.5012C201.803 90.3938 201.595 90.2391 201.418 90.0371C201.247 89.8287 201.162 89.5572 201.162 89.2226C201.162 88.9574 201.241 88.7143 201.399 88.4933C201.557 88.2723 201.781 88.0987 202.071 87.9724C202.362 87.8398 202.693 87.7735 203.066 87.7735C203.64 87.7735 204.104 87.9188 204.458 88.2092C204.811 88.4996 205.001 88.8974 205.026 89.4025H204.164C204.145 89.131 204.035 88.9132 203.833 88.749C203.637 88.5849 203.372 88.5028 203.037 88.5028C202.728 88.5028 202.482 88.5691 202.299 88.7017C202.115 88.8343 202.024 89.0079 202.024 89.2226C202.024 89.3931 202.078 89.5351 202.185 89.6488C202.299 89.7561 202.437 89.8445 202.602 89.914C202.772 89.9771 203.006 90.0497 203.302 90.1318C203.675 90.2328 203.978 90.3338 204.212 90.4349C204.445 90.5296 204.644 90.6748 204.808 90.8705C204.979 91.0663 205.067 91.322 205.073 91.6377C205.073 91.9218 204.995 92.1775 204.837 92.4048C204.679 92.6321 204.455 92.8121 204.164 92.9446C203.88 93.0709 203.552 93.1341 203.179 93.1341ZM207.152 88.8153C207.322 88.5186 207.575 88.2723 207.91 88.0766C208.251 87.8746 208.645 87.7735 209.094 87.7735C209.554 87.7735 209.971 87.884 210.344 88.105C210.723 88.326 211.019 88.6385 211.234 89.0426C211.449 89.4404 211.556 89.9045 211.556 90.4349C211.556 90.9589 211.449 91.4261 211.234 91.8366C211.019 92.247 210.723 92.5658 210.344 92.7931C209.971 93.0204 209.554 93.1341 209.094 93.1341C208.652 93.1341 208.26 93.0362 207.919 92.8405C207.584 92.6384 207.329 92.389 207.152 92.0923V95.5113H206.29V87.8588H207.152V88.8153ZM210.675 90.4349C210.675 90.0434 210.596 89.7024 210.438 89.412C210.281 89.1216 210.066 88.9006 209.794 88.749C209.529 88.5975 209.236 88.5217 208.914 88.5217C208.598 88.5217 208.304 88.6007 208.033 88.7585C207.768 88.91 207.553 89.1342 207.389 89.4309C207.231 89.7214 207.152 90.0592 207.152 90.4443C207.152 90.8358 207.231 91.1799 207.389 91.4767C207.553 91.7671 207.768 91.9912 208.033 92.1491C208.304 92.3006 208.598 92.3764 208.914 92.3764C209.236 92.3764 209.529 92.3006 209.794 92.1491C210.066 91.9912 210.281 91.7671 210.438 91.4767C210.596 91.1799 210.675 90.8326 210.675 90.4349ZM214.954 93.1341C214.468 93.1341 214.026 93.0236 213.628 92.8026C213.237 92.5816 212.927 92.2691 212.7 91.865C212.479 91.4546 212.368 90.981 212.368 90.4443C212.368 89.914 212.482 89.4467 212.709 89.0426C212.943 88.6322 213.259 88.3197 213.656 88.105C214.054 87.884 214.499 87.7735 214.992 87.7735C215.484 87.7735 215.929 87.884 216.327 88.105C216.725 88.3197 217.038 88.6291 217.265 89.0332C217.498 89.4373 217.615 89.9076 217.615 90.4443C217.615 90.981 217.495 91.4546 217.255 91.865C217.022 92.2691 216.703 92.5816 216.299 92.8026C215.895 93.0236 215.446 93.1341 214.954 93.1341ZM214.954 92.3764C215.263 92.3764 215.554 92.3038 215.825 92.1586C216.097 92.0133 216.315 91.7955 216.479 91.5051C216.649 91.2146 216.734 90.861 216.734 90.4443C216.734 90.0276 216.652 89.674 216.488 89.3836C216.324 89.0931 216.109 88.8785 215.844 88.7396C215.579 88.5943 215.292 88.5217 214.982 88.5217C214.667 88.5217 214.376 88.5943 214.111 88.7396C213.852 88.8785 213.644 89.0931 213.486 89.3836C213.328 89.674 213.249 90.0276 213.249 90.4443C213.249 90.8674 213.325 91.2241 213.476 91.5145C213.634 91.805 213.843 92.0228 214.102 92.168C214.36 92.3069 214.645 92.3764 214.954 92.3764ZM221.277 87.7641C221.909 87.7641 222.42 87.9566 222.811 88.3418C223.203 88.7206 223.399 89.2699 223.399 89.9897V93.0488H222.546V90.1128C222.546 89.5951 222.417 89.2005 222.158 88.929C221.899 88.6512 221.546 88.5123 221.097 88.5123C220.643 88.5123 220.28 88.6543 220.008 88.9385C219.743 89.2226 219.61 89.6361 219.61 90.1791V93.0488H218.748V87.8588H219.61V88.5975C219.781 88.3323 220.011 88.1271 220.302 87.9819C220.598 87.8367 220.924 87.7641 221.277 87.7641ZM226.644 93.1341C226.246 93.1341 225.889 93.0678 225.574 92.9352C225.258 92.7963 225.009 92.6069 224.825 92.3669C224.642 92.1207 224.541 91.8397 224.522 91.524H225.413C225.438 91.7829 225.558 91.9944 225.773 92.1586C225.994 92.3227 226.281 92.4048 226.634 92.4048C226.963 92.4048 227.222 92.3322 227.411 92.187C227.6 92.0418 227.695 91.8587 227.695 91.6377C227.695 91.4104 227.594 91.243 227.392 91.1357C227.19 91.0221 226.877 90.9116 226.454 90.8042C226.069 90.7032 225.754 90.6022 225.507 90.5012C225.267 90.3938 225.059 90.2391 224.882 90.0371C224.712 89.8287 224.627 89.5572 224.627 89.2226C224.627 88.9574 224.705 88.7143 224.863 88.4933C225.021 88.2723 225.245 88.0987 225.536 87.9724C225.826 87.8398 226.158 87.7735 226.53 87.7735C227.105 87.7735 227.569 87.9188 227.922 88.2092C228.276 88.4996 228.465 88.8974 228.491 89.4025H227.629C227.61 89.131 227.499 88.9132 227.297 88.749C227.102 88.5849 226.836 88.5028 226.502 88.5028C226.192 88.5028 225.946 88.5691 225.763 88.7017C225.58 88.8343 225.488 89.0079 225.488 89.2226C225.488 89.3931 225.542 89.5351 225.649 89.6488C225.763 89.7561 225.902 89.8445 226.066 89.914C226.237 89.9771 226.47 90.0497 226.767 90.1318C227.139 90.2328 227.443 90.3338 227.676 90.4349C227.91 90.5296 228.109 90.6748 228.273 90.8705C228.443 91.0663 228.532 91.322 228.538 91.6377C228.538 91.9218 228.459 92.1775 228.301 92.4048C228.143 92.6321 227.919 92.8121 227.629 92.9446C227.345 93.0709 227.016 93.1341 226.644 93.1341ZM234.49 90.2549C234.49 90.4191 234.481 90.5927 234.462 90.7758H230.313C230.345 91.2872 230.519 91.6882 230.834 91.9786C231.156 92.2627 231.545 92.4048 231.999 92.4048C232.372 92.4048 232.681 92.3196 232.927 92.1491C233.18 91.9723 233.357 91.7387 233.458 91.4482H234.386C234.247 91.947 233.969 92.3543 233.552 92.67C233.136 92.9794 232.618 93.1341 231.999 93.1341C231.507 93.1341 231.065 93.0236 230.673 92.8026C230.288 92.5816 229.985 92.2691 229.764 91.865C229.543 91.4546 229.433 90.981 229.433 90.4443C229.433 89.9076 229.54 89.4373 229.755 89.0332C229.969 88.6291 230.269 88.3197 230.654 88.105C231.046 87.884 231.494 87.7735 231.999 87.7735C232.492 87.7735 232.927 87.8809 233.306 88.0955C233.685 88.3102 233.976 88.607 234.178 88.9858C234.386 89.3583 234.49 89.7814 234.49 90.2549ZM233.6 90.075C233.6 89.7466 233.527 89.4657 233.382 89.2321C233.237 88.9921 233.038 88.8122 232.785 88.6922C232.539 88.5659 232.264 88.5028 231.961 88.5028C231.526 88.5028 231.153 88.6417 230.844 88.9195C230.541 89.1973 230.367 89.5825 230.323 90.075H233.6Z" fill="white"/>
<g clip-path="url(#clip1_3979_7902)">
<path d="M263.667 95.731C262.16 95.731 260.714 95.1323 259.649 94.0666C258.583 93.0009 257.984 91.5555 257.984 90.0484C257.984 88.5413 258.583 87.0959 259.649 86.0302C260.714 84.9645 262.16 84.3658 263.667 84.3658C265.174 84.3658 266.619 84.9645 267.685 86.0302C268.751 87.0959 269.349 88.5413 269.349 90.0484C269.349 91.5555 268.751 93.0009 267.685 94.0666C266.619 95.1323 265.174 95.731 263.667 95.731V95.731ZM261.676 91.5372C261.642 91.57 261.615 91.6092 261.596 91.6525C261.578 91.6958 261.568 91.7424 261.567 91.7896C261.567 91.8368 261.576 91.8835 261.594 91.9272C261.612 91.9708 261.638 92.0105 261.671 92.0438C261.705 92.0772 261.744 92.1035 261.788 92.1214C261.832 92.1393 261.879 92.1482 261.926 92.1478C261.973 92.1474 262.019 92.1376 262.063 92.119C262.106 92.1004 262.145 92.0733 262.178 92.0394L265.088 89.13L265.088 91.0961C265.088 91.1903 265.125 91.2807 265.192 91.3473C265.258 91.4139 265.348 91.4513 265.443 91.4513C265.537 91.4513 265.627 91.4139 265.694 91.3473C265.76 91.2807 265.798 91.1903 265.798 91.0961L265.798 88.2726C265.798 88.1784 265.76 88.0881 265.694 88.0215C265.627 87.9549 265.537 87.9174 265.443 87.9174L262.619 87.9174C262.525 87.9174 262.435 87.9549 262.368 88.0215C262.301 88.0881 262.264 88.1784 262.264 88.2726C262.264 88.3668 262.301 88.4571 262.368 88.5237C262.435 88.5903 262.525 88.6278 262.619 88.6278L264.585 88.6278L261.676 91.5372Z" fill="white"/>
</g>
<path d="M160.984 110.156C161.041 109.02 161.439 108.145 162.178 107.531C162.928 106.906 163.911 106.594 165.127 106.594C165.957 106.594 166.667 106.741 167.258 107.037C167.849 107.321 168.292 107.713 168.588 108.213C168.895 108.702 169.048 109.259 169.048 109.884C169.048 110.6 168.861 111.208 168.485 111.708C168.122 112.196 167.684 112.526 167.173 112.697V112.765C167.832 112.969 168.343 113.333 168.707 113.856C169.082 114.379 169.27 115.049 169.27 115.867C169.27 116.549 169.111 117.157 168.792 117.692C168.485 118.226 168.025 118.646 167.411 118.953C166.809 119.249 166.082 119.396 165.229 119.396C163.945 119.396 162.9 119.072 162.093 118.425C161.286 117.777 160.859 116.822 160.814 115.561H163.132C163.155 116.117 163.343 116.566 163.695 116.907C164.059 117.237 164.553 117.402 165.178 117.402C165.758 117.402 166.201 117.243 166.508 116.924C166.826 116.595 166.985 116.174 166.985 115.663C166.985 114.981 166.769 114.492 166.337 114.197C165.906 113.901 165.235 113.754 164.326 113.754H163.831V111.793H164.326C165.94 111.793 166.747 111.253 166.747 110.174C166.747 109.685 166.599 109.304 166.303 109.031C166.019 108.759 165.604 108.622 165.059 108.622C164.525 108.622 164.11 108.77 163.814 109.065C163.53 109.35 163.365 109.713 163.32 110.156H160.984ZM171.906 116.618C172.997 115.708 173.866 114.953 174.514 114.35C175.162 113.736 175.702 113.1 176.134 112.441C176.565 111.782 176.781 111.134 176.781 110.497C176.781 109.918 176.645 109.463 176.372 109.134C176.099 108.804 175.679 108.639 175.111 108.639C174.542 108.639 174.105 108.832 173.798 109.219C173.491 109.594 173.332 110.111 173.321 110.77H171.002C171.048 109.406 171.451 108.372 172.213 107.668C172.985 106.963 173.963 106.611 175.145 106.611C176.44 106.611 177.435 106.957 178.128 107.65C178.821 108.332 179.168 109.236 179.168 110.361C179.168 111.248 178.929 112.094 178.452 112.901C177.975 113.708 177.429 114.413 176.815 115.015C176.202 115.606 175.401 116.322 174.412 117.163H179.441V119.141H171.019V117.368L171.906 116.618Z" fill="white"/>
</g>
<rect x="38" y="77" width="54" height="54.0003" rx="27" fill="#EED2FF"/>
<path d="M65.0078 100.25C64.0153 100.256 63.0652 100.653 62.3634 101.355C61.6616 102.057 61.2644 103.007 61.2578 104C61.2578 106.052 62.9553 107.75 65.0078 107.75C67.0591 107.75 68.7578 106.052 68.7578 104C68.7578 101.948 67.0591 100.25 65.0078 100.25Z" fill="#525252"/>
<path d="M65.0206 95.2495C55.4794 95.2495 52.6119 103.521 52.5856 103.605L52.4531 104L52.5844 104.395C52.6119 104.478 55.4794 112.75 65.0206 112.75C74.5619 112.75 77.4294 104.478 77.4556 104.395L77.5881 104L77.4569 103.605C77.4294 103.521 74.5619 95.2495 65.0206 95.2495ZM65.0206 110.25C58.3319 110.25 55.7406 105.442 55.1131 104C55.7431 102.552 58.3356 97.7495 65.0206 97.7495C71.7094 97.7495 74.3006 102.557 74.9281 104C74.2981 105.447 71.7056 110.25 65.0206 110.25V110.25Z" fill="#525252"/>
<rect x="190" y="12" width="46" height="46.0002" rx="23" fill="#EED2FF"/>
<g clip-path="url(#clip2_3979_7902)">
<path d="M225.737 23.3185C225.795 23.1734 225.809 23.0144 225.778 22.8613C225.746 22.7081 225.671 22.5676 225.56 22.4571C225.449 22.3465 225.309 22.2708 225.156 22.2394C225.003 22.208 224.844 22.2222 224.698 22.2803L201.464 31.5746C201.259 31.6565 201.081 31.7933 200.949 31.9699C200.817 32.1465 200.737 32.356 200.716 32.5755C200.696 32.7949 200.736 33.0158 200.833 33.2137C200.93 33.4116 201.08 33.579 201.266 33.6973L209.244 38.7733L211.689 42.6163C211.805 42.7907 211.984 42.9128 212.188 42.9564C212.393 43 212.607 42.9616 212.783 42.8494C212.96 42.7373 213.085 42.5604 213.133 42.3567C213.18 42.153 213.146 41.9388 213.037 41.7602L210.839 38.3069L222.809 26.3373L219.782 33.905C219.741 34.0028 219.719 34.1079 219.719 34.2142C219.718 34.3204 219.739 34.4257 219.78 34.5239C219.82 34.622 219.88 34.711 219.956 34.7857C220.032 34.8604 220.121 34.9192 220.22 34.9587C220.319 34.9983 220.424 35.0177 220.53 35.016C220.637 35.0142 220.742 34.9912 220.839 34.9484C220.936 34.9056 221.024 34.8439 221.097 34.7667C221.17 34.6896 221.227 34.5986 221.264 34.4992L225.737 23.3185V23.3185ZM221.68 25.2081L209.71 37.1777L202.78 32.7678L221.68 25.2081V25.2081Z" fill="#525252"/>
<path d="M225.802 42.1889C225.802 43.6716 225.213 45.0935 224.164 46.1419C223.116 47.1903 221.694 47.7793 220.211 47.7793C218.729 47.7793 217.307 47.1903 216.258 46.1419C215.21 45.0935 214.621 43.6716 214.621 42.1889C214.621 40.7063 215.21 39.2844 216.258 38.236C217.307 37.1876 218.729 36.5986 220.211 36.5986C221.694 36.5986 223.116 37.1876 224.164 38.236C225.213 39.2844 225.802 40.7063 225.802 42.1889V42.1889ZM222.618 39.5072C222.528 39.4533 222.429 39.4176 222.325 39.4022C222.221 39.3868 222.115 39.3921 222.014 39.4176C221.912 39.4431 221.816 39.4884 221.732 39.5509C221.648 39.6134 221.577 39.6919 221.523 39.7819L219.654 42.8965L218.78 42.0228C218.63 41.8729 218.427 41.7886 218.215 41.7886C218.003 41.7886 217.799 41.8729 217.649 42.0228C217.499 42.1728 217.415 42.3762 217.415 42.5882C217.415 42.8003 217.499 43.0037 217.649 43.1537L218.886 44.3883C219.014 44.5173 219.171 44.6151 219.343 44.6745C219.515 44.7339 219.699 44.7533 219.879 44.7311C220.06 44.7089 220.234 44.6458 220.386 44.5466C220.539 44.4473 220.667 44.3145 220.761 44.1583L222.893 40.6029C222.947 40.5129 222.983 40.4132 222.998 40.3094C223.013 40.2057 223.008 40.0999 222.983 39.9981C222.957 39.8964 222.912 39.8007 222.849 39.7164C222.787 39.6322 222.708 39.5611 222.618 39.5072V39.5072Z" fill="#525252"/>
</g>
<defs>
<filter id="filter0_d_3979_7902" x="0" y="0" width="136" height="72.7549" filterUnits="userSpaceOnUse" color-interpolation-filters="sRGB">
<feFlood flood-opacity="0" result="BackgroundImageFix"/>
<feColorMatrix in="SourceAlpha" type="matrix" values="0 0 0 0 0 0 0 0 0 0 0 0 0 0 0 0 0 0 127 0" result="hardAlpha"/>
<feOffset dy="2"/>
<feGaussianBlur stdDeviation="2"/>
<feComposite in2="hardAlpha" operator="out"/>
<feColorMatrix type="matrix" values="0 0 0 0 0 0 0 0 0 0 0 0 0 0 0 0 0 0 0.05 0"/>
<feBlend mode="normal" in2="BackgroundImageFix" result="effect1_dropShadow_3979_7902"/>
<feBlend mode="normal" in="SourceGraphic" in2="effect1_dropShadow_3979_7902" result="shape"/>
</filter>
<filter id="filter1_d_3979_7902" x="143" y="68" width="143.402" height="76.6421" filterUnits="userSpaceOnUse" color-interpolation-filters="sRGB">
<feFlood flood-opacity="0" result="BackgroundImageFix"/>
<feColorMatrix in="SourceAlpha" type="matrix" values="0 0 0 0 0 0 0 0 0 0 0 0 0 0 0 0 0 0 127 0" result="hardAlpha"/>
<feOffset dy="2"/>
<feGaussianBlur stdDeviation="2"/>
<feComposite in2="hardAlpha" operator="out"/>
<feColorMatrix type="matrix" values="0 0 0 0 0 0 0 0 0 0 0 0 0 0 0 0 0 0 0.05 0"/>
<feBlend mode="normal" in2="BackgroundImageFix" result="effect1_dropShadow_3979_7902"/>
<feBlend mode="normal" in="SourceGraphic" in2="effect1_dropShadow_3979_7902" result="shape"/>
</filter>
<clipPath id="clip0_3979_7902">
<rect width="10.7438" height="10.7437" fill="white" transform="translate(108.922 26.2075) rotate(-90)"/>
</clipPath>
<clipPath id="clip1_3979_7902">
<rect width="11.3651" height="11.3651" fill="white" transform="translate(257.988 95.7314) rotate(-90)"/>
</clipPath>
<clipPath id="clip2_3979_7902">
<rect width="25.5556" height="25.5557" fill="white" transform="translate(200.223 22.2222)"/>
</clipPath>
</defs>
</svg>
