<svg width="288" height="144" viewBox="0 0 288 144" fill="none" xmlns="http://www.w3.org/2000/svg">
<g filter="url(#filter0_d_3979_7902)">
<rect x="3" y="2" width="128" height="64.7546" rx="4.47656" fill="#8B6DCB"/>
<path d="M20.9316 24.3354H20.1169L16.8401 19.3665V24.3354H16.0253V18.0862H16.8401L20.1169 23.0462V18.0862H20.9316V24.3354ZM24.4603 24.416C24.0007 24.416 23.5829 24.3116 23.2068 24.1027C22.8368 23.8938 22.5443 23.5983 22.3294 23.2163C22.1205 22.8283 22.0161 22.3807 22.0161 21.8733C22.0161 21.372 22.1235 20.9303 22.3384 20.5483C22.5592 20.1603 22.8577 19.8649 23.2337 19.6619C23.6097 19.453 24.0305 19.3486 24.4961 19.3486C24.9617 19.3486 25.3824 19.453 25.7585 19.6619C26.1345 19.8649 26.43 20.1573 26.6448 20.5393C26.8657 20.9213 26.9761 21.366 26.9761 21.8733C26.9761 22.3807 26.8627 22.8283 26.6359 23.2163C26.415 23.5983 26.1136 23.8938 25.7316 24.1027C25.3496 24.3116 24.9258 24.416 24.4603 24.416ZM24.4603 23.6998C24.7527 23.6998 25.0273 23.6311 25.284 23.4939C25.5406 23.3566 25.7465 23.1507 25.9017 22.8761C26.0629 22.6015 26.1435 22.2673 26.1435 21.8733C26.1435 21.4794 26.0659 21.1452 25.9107 20.8706C25.7555 20.596 25.5526 20.3931 25.3019 20.2618C25.0512 20.1245 24.7796 20.0559 24.4871 20.0559C24.1887 20.0559 23.9141 20.1245 23.6634 20.2618C23.4187 20.3931 23.2218 20.596 23.0725 20.8706C22.9233 21.1452 22.8487 21.4794 22.8487 21.8733C22.8487 22.2732 22.9203 22.6105 23.0636 22.885C23.2128 23.1596 23.4098 23.3655 23.6545 23.5028C23.8992 23.6341 24.1678 23.6998 24.4603 23.6998ZM28.307 24.3892C28.1518 24.3892 28.0205 24.3354 27.913 24.228C27.8056 24.1206 27.7519 23.9893 27.7519 23.8341C27.7519 23.6789 27.8056 23.5476 27.913 23.4401C28.0205 23.3327 28.1518 23.279 28.307 23.279C28.4562 23.279 28.5815 23.3327 28.683 23.4401C28.7904 23.5476 28.8442 23.6789 28.8442 23.8341C28.8442 23.9893 28.7904 24.1206 28.683 24.228C28.5815 24.3354 28.4562 24.3892 28.307 24.3892ZM34.4538 24.416C33.9942 24.416 33.5764 24.3116 33.2004 24.1027C32.8303 23.8938 32.5379 23.5983 32.323 23.2163C32.1141 22.8283 32.0096 22.3807 32.0096 21.8733C32.0096 21.372 32.1171 20.9303 32.3319 20.5483C32.5528 20.1603 32.8512 19.8649 33.2273 19.6619C33.6033 19.453 34.0241 19.3486 34.4896 19.3486C34.9552 19.3486 35.376 19.453 35.752 19.6619C36.1281 19.8649 36.4235 20.1573 36.6384 20.5393C36.8592 20.9213 36.9697 21.366 36.9697 21.8733C36.9697 22.3807 36.8563 22.8283 36.6294 23.2163C36.4086 23.5983 36.1072 23.8938 35.7252 24.1027C35.3432 24.3116 34.9194 24.416 34.4538 24.416ZM34.4538 23.6998C34.7463 23.6998 35.0209 23.6311 35.2775 23.4939C35.5342 23.3566 35.7401 23.1507 35.8953 22.8761C36.0564 22.6015 36.137 22.2673 36.137 21.8733C36.137 21.4794 36.0594 21.1452 35.9042 20.8706C35.7491 20.596 35.5461 20.3931 35.2954 20.2618C35.0447 20.1245 34.7732 20.0559 34.4807 20.0559C34.1823 20.0559 33.9077 20.1245 33.657 20.2618C33.4123 20.3931 33.2153 20.596 33.0661 20.8706C32.9169 21.1452 32.8423 21.4794 32.8423 21.8733C32.8423 22.2732 32.9139 22.6105 33.0572 22.885C33.2064 23.1596 33.4033 23.3655 33.6481 23.5028C33.8928 23.6341 34.1614 23.6998 34.4538 23.6998ZM40.0374 20.1006H39.0078V24.3354H38.1931V20.1006H37.5574V19.4291H38.1931V19.08C38.1931 18.5308 38.3334 18.1309 38.6139 17.8803C38.9004 17.6236 39.357 17.4953 39.9837 17.4953V18.1757C39.6256 18.1757 39.3719 18.2473 39.2227 18.3906C39.0794 18.5279 39.0078 18.7577 39.0078 19.08V19.4291H40.0374V20.1006ZM48.5313 18.0951L46.1766 24.3354H45.2365L42.8819 18.0951H43.7503L45.711 23.476L47.6718 18.0951H48.5313ZM49.8454 18.6323C49.6902 18.6323 49.5589 18.5786 49.4515 18.4712C49.344 18.3637 49.2903 18.2324 49.2903 18.0772C49.2903 17.922 49.344 17.7907 49.4515 17.6833C49.5589 17.5759 49.6902 17.5221 49.8454 17.5221C49.9946 17.5221 50.12 17.5759 50.2215 17.6833C50.3289 17.7907 50.3826 17.922 50.3826 18.0772C50.3826 18.2324 50.3289 18.3637 50.2215 18.4712C50.12 18.5786 49.9946 18.6323 49.8454 18.6323ZM50.2394 19.4291V24.3354H49.4246V19.4291H50.2394ZM56.1045 21.6943C56.1045 21.8495 56.0955 22.0136 56.0776 22.1867H52.1562C52.186 22.6702 52.3501 23.0492 52.6486 23.3237C52.953 23.5923 53.3201 23.7266 53.7498 23.7266C54.102 23.7266 54.3944 23.6461 54.6272 23.4849C54.866 23.3178 55.0331 23.0969 55.1286 22.8224H56.006C55.8747 23.2939 55.6121 23.6789 55.2181 23.9773C54.8242 24.2698 54.3348 24.416 53.7498 24.416C53.2843 24.416 52.8664 24.3116 52.4964 24.1027C52.1323 23.8938 51.8458 23.5983 51.6369 23.2163C51.428 22.8283 51.3235 22.3807 51.3235 21.8733C51.3235 21.366 51.425 20.9213 51.6279 20.5393C51.8309 20.1573 52.1144 19.8649 52.4785 19.6619C52.8485 19.453 53.2723 19.3486 53.7498 19.3486C54.2154 19.3486 54.6272 19.45 54.9853 19.653C55.3435 19.8559 55.618 20.1364 55.809 20.4946C56.006 20.8467 56.1045 21.2466 56.1045 21.6943ZM55.2629 21.5242C55.2629 21.2138 55.1943 20.9482 55.057 20.7273C54.9197 20.5005 54.7317 20.3304 54.4929 20.217C54.2601 20.0976 54.0005 20.038 53.714 20.038C53.3022 20.038 52.95 20.1693 52.6575 20.4319C52.371 20.6945 52.2069 21.0586 52.1651 21.5242H55.2629ZM63.7157 19.4291L62.1847 24.3354H61.3431L60.1613 20.4408L58.9795 24.3354H58.1379L56.598 19.4291H57.4306L58.5587 23.5476L59.7763 19.4291H60.609L61.7997 23.5565L62.9099 19.4291H63.7157ZM66.2612 24.416C65.8851 24.416 65.5479 24.3534 65.2495 24.228C64.951 24.0967 64.7153 23.9176 64.5422 23.6908C64.3691 23.458 64.2736 23.1924 64.2557 22.894H65.0973C65.1211 23.1387 65.2345 23.3387 65.4375 23.4939C65.6464 23.649 65.918 23.7266 66.2522 23.7266C66.5626 23.7266 66.8073 23.658 66.9864 23.5207C67.1654 23.3834 67.255 23.2103 67.255 23.0014C67.255 22.7866 67.1595 22.6284 66.9685 22.5269C66.7775 22.4195 66.482 22.315 66.0821 22.2136C65.718 22.1181 65.4196 22.0226 65.1868 21.9271C64.96 21.8256 64.763 21.6794 64.5959 21.4884C64.4347 21.2914 64.3541 21.0347 64.3541 20.7184C64.3541 20.4677 64.4288 20.2379 64.578 20.029C64.7272 19.8201 64.9391 19.656 65.2136 19.5366C65.4882 19.4112 65.8016 19.3486 66.1537 19.3486C66.6969 19.3486 67.1356 19.4858 67.4698 19.7604C67.8041 20.035 67.9831 20.411 68.007 20.8885H67.1923C67.1744 20.6318 67.0699 20.4259 66.8789 20.2707C66.6939 20.1155 66.4432 20.038 66.1269 20.038C65.8344 20.038 65.6016 20.1006 65.4285 20.226C65.2554 20.3513 65.1689 20.5155 65.1689 20.7184C65.1689 20.8795 65.2196 21.0138 65.3211 21.1213C65.4285 21.2228 65.5598 21.3063 65.715 21.372C65.8762 21.4317 66.097 21.5003 66.3776 21.5779C66.7297 21.6734 67.0162 21.7689 67.2371 21.8644C67.4579 21.9539 67.6459 22.0912 67.8011 22.2762C67.9623 22.4613 68.0458 22.703 68.0518 23.0014C68.0518 23.27 67.9772 23.5118 67.828 23.7266C67.6787 23.9415 67.4668 24.1116 67.1923 24.237C66.9237 24.3563 66.6133 24.416 66.2612 24.416Z" fill="white"/>
<g clip-path="url(#clip0_3979_7902)">
<path d="M113.278 26.2061C111.853 26.2061 110.487 25.6401 109.48 24.6327C108.472 23.6252 107.906 22.2589 107.906 20.8342C107.906 19.4095 108.472 18.0431 109.48 17.0357C110.487 16.0283 111.853 15.4623 113.278 15.4623C114.703 15.4623 116.069 16.0283 117.077 17.0357C118.084 18.0431 118.65 19.4095 118.65 20.8342C118.65 22.2589 118.084 23.6252 117.077 24.6327C116.069 25.6401 114.703 26.2061 113.278 26.2061V26.2061ZM111.396 22.2416C111.364 22.2726 111.338 22.3096 111.321 22.3506C111.303 22.3915 111.294 22.4356 111.293 22.4802C111.293 22.5248 111.302 22.569 111.318 22.6102C111.335 22.6515 111.36 22.689 111.392 22.7205C111.423 22.752 111.461 22.777 111.502 22.7938C111.543 22.8107 111.588 22.8192 111.632 22.8188C111.677 22.8184 111.721 22.8092 111.762 22.7916C111.803 22.774 111.84 22.7484 111.871 22.7163L114.621 19.9659L114.621 21.8246C114.621 21.9137 114.656 21.9991 114.719 22.062C114.782 22.125 114.868 22.1604 114.957 22.1604C115.046 22.1604 115.131 22.125 115.194 22.062C115.257 21.9991 115.293 21.9137 115.293 21.8246L115.293 19.1555C115.293 19.0664 115.257 18.981 115.194 18.9181C115.131 18.8551 115.046 18.8197 114.957 18.8197L112.288 18.8197C112.199 18.8197 112.113 18.8551 112.05 18.9181C111.987 18.981 111.952 19.0664 111.952 19.1555C111.952 19.2445 111.987 19.3299 112.05 19.3929C112.113 19.4558 112.199 19.4912 112.288 19.4912L114.146 19.4912L111.396 22.2416Z" fill="white"/>
</g>
<path d="M24.0867 38.6211H18.8653V41.3769C19.0909 41.0976 19.4132 40.872 19.8322 40.7001C20.2512 40.5174 20.6971 40.4261 21.1698 40.4261C22.0293 40.4261 22.733 40.6141 23.2809 40.9901C23.8289 41.3662 24.2264 41.8496 24.4735 42.4405C24.7206 43.0207 24.8441 43.6438 24.8441 44.31C24.8441 45.5455 24.4896 46.5393 23.7805 47.2913C23.0822 48.0434 22.083 48.4194 20.783 48.4194C19.5582 48.4194 18.5805 48.1132 17.85 47.5008C17.1194 46.8885 16.7058 46.088 16.6091 45.0996H18.8008C18.8975 45.5294 19.1124 45.8732 19.4454 46.131C19.7892 46.3889 20.2243 46.5178 20.7508 46.5178C21.3847 46.5178 21.8628 46.319 22.1851 45.9215C22.5074 45.524 22.6685 44.9976 22.6685 44.3422C22.6685 43.6761 22.502 43.1711 22.169 42.8273C21.8466 42.4728 21.3685 42.2955 20.7347 42.2955C20.2834 42.2955 19.9074 42.4083 19.6066 42.6339C19.3057 42.8596 19.0909 43.1604 18.9619 43.5364H16.8025V36.6389H24.0867V38.6211ZM26.5613 42.3922C26.5613 40.5335 26.8944 39.0778 27.5605 38.0249C28.2374 36.972 29.3547 36.4455 30.9125 36.4455C32.4704 36.4455 33.5824 36.972 34.2485 38.0249C34.9253 39.0778 35.2638 40.5335 35.2638 42.3922C35.2638 44.2616 34.9253 45.7281 34.2485 46.7918C33.5824 47.8554 32.4704 48.3872 30.9125 48.3872C29.3547 48.3872 28.2374 47.8554 27.5605 46.7918C26.8944 45.7281 26.5613 44.2616 26.5613 42.3922ZM33.0398 42.3922C33.0398 41.5972 32.9861 40.9311 32.8787 40.3939C32.782 39.8459 32.5778 39.4001 32.2663 39.0563C31.9654 38.7125 31.5142 38.5406 30.9125 38.5406C30.3109 38.5406 29.8543 38.7125 29.5427 39.0563C29.2419 39.4001 29.0378 39.8459 28.9303 40.3939C28.8336 40.9311 28.7853 41.5972 28.7853 42.3922C28.7853 43.2087 28.8336 43.8963 28.9303 44.455C29.027 45.0029 29.2312 45.4488 29.5427 45.7926C29.8543 46.1256 30.3109 46.2922 30.9125 46.2922C31.5142 46.2922 31.9708 46.1256 32.2824 45.7926C32.5939 45.4488 32.7981 45.0029 32.8948 44.455C32.9915 43.8963 33.0398 43.2087 33.0398 42.3922Z" fill="white"/>
</g>
<g filter="url(#filter1_d_3979_7902)">
<rect x="149" y="70" width="135.403" height="68.6419" rx="4.73545" fill="#8B6DCB"/>
<path d="M167.966 93.0488H167.104L163.638 87.7925V93.0488H162.776V86.4381H163.638L167.104 91.685V86.4381H167.966V93.0488ZM171.699 93.1341C171.213 93.1341 170.771 93.0236 170.373 92.8026C169.982 92.5816 169.672 92.2691 169.445 91.865C169.224 91.4546 169.113 90.981 169.113 90.4443C169.113 89.914 169.227 89.4467 169.454 89.0426C169.688 88.6322 170.004 88.3197 170.401 88.105C170.799 87.884 171.244 87.7735 171.737 87.7735C172.229 87.7735 172.674 87.884 173.072 88.105C173.47 88.3197 173.783 88.6291 174.01 89.0332C174.243 89.4373 174.36 89.9076 174.36 90.4443C174.36 90.981 174.24 91.4546 174 91.865C173.767 92.2691 173.448 92.5816 173.044 92.8026C172.64 93.0236 172.191 93.1341 171.699 93.1341ZM171.699 92.3764C172.008 92.3764 172.299 92.3038 172.57 92.1586C172.842 92.0133 173.06 91.7955 173.224 91.5051C173.394 91.2146 173.479 90.861 173.479 90.4443C173.479 90.0276 173.397 89.674 173.233 89.3836C173.069 89.0931 172.854 88.8785 172.589 88.7396C172.324 88.5943 172.037 88.5217 171.727 88.5217C171.412 88.5217 171.121 88.5943 170.856 88.7396C170.597 88.8785 170.389 89.0931 170.231 89.3836C170.073 89.674 169.994 90.0276 169.994 90.4443C169.994 90.8674 170.07 91.2241 170.221 91.5145C170.379 91.805 170.588 92.0228 170.847 92.168C171.105 92.3069 171.39 92.3764 171.699 92.3764ZM175.768 93.1057C175.604 93.1057 175.465 93.0488 175.351 92.9352C175.238 92.8215 175.181 92.6826 175.181 92.5185C175.181 92.3543 175.238 92.2154 175.351 92.1017C175.465 91.9881 175.604 91.9313 175.768 91.9313C175.926 91.9313 176.059 91.9881 176.166 92.1017C176.28 92.2154 176.336 92.3543 176.336 92.5185C176.336 92.6826 176.28 92.8215 176.166 92.9352C176.059 93.0488 175.926 93.1057 175.768 93.1057ZM182.27 93.1341C181.784 93.1341 181.342 93.0236 180.945 92.8026C180.553 92.5816 180.244 92.2691 180.016 91.865C179.795 91.4546 179.685 90.981 179.685 90.4443C179.685 89.914 179.799 89.4467 180.026 89.0426C180.259 88.6322 180.575 88.3197 180.973 88.105C181.371 87.884 181.816 87.7735 182.308 87.7735C182.801 87.7735 183.246 87.884 183.644 88.105C184.042 88.3197 184.354 88.6291 184.581 89.0332C184.815 89.4373 184.932 89.9076 184.932 90.4443C184.932 90.981 184.812 91.4546 184.572 91.865C184.338 92.2691 184.019 92.5816 183.615 92.8026C183.211 93.0236 182.763 93.1341 182.27 93.1341ZM182.27 92.3764C182.58 92.3764 182.87 92.3038 183.142 92.1586C183.413 92.0133 183.631 91.7955 183.795 91.5051C183.966 91.2146 184.051 90.861 184.051 90.4443C184.051 90.0276 183.969 89.674 183.805 89.3836C183.641 89.0931 183.426 88.8785 183.161 88.7396C182.896 88.5943 182.608 88.5217 182.299 88.5217C181.983 88.5217 181.693 88.5943 181.428 88.7396C181.169 88.8785 180.96 89.0931 180.802 89.3836C180.645 89.674 180.566 90.0276 180.566 90.4443C180.566 90.8674 180.641 91.2241 180.793 91.5145C180.951 91.805 181.159 92.0228 181.418 92.168C181.677 92.3069 181.961 92.3764 182.27 92.3764ZM188.177 88.5691H187.088V93.0488H186.226V88.5691H185.554V87.8588H186.226V87.4894C186.226 86.9085 186.374 86.4855 186.671 86.2203C186.974 85.9488 187.457 85.8131 188.12 85.8131V86.5328C187.741 86.5328 187.473 86.6086 187.315 86.7601C187.164 86.9054 187.088 87.1485 187.088 87.4894V87.8588H188.177V88.5691ZM195.183 93.0488L193.61 90.3496H192.569V93.0488H191.707V86.4476H193.838C194.337 86.4476 194.756 86.5328 195.097 86.7033C195.445 86.8738 195.704 87.1043 195.874 87.3947C196.044 87.6851 196.13 88.0166 196.13 88.3891C196.13 88.8437 195.997 89.2447 195.732 89.5919C195.473 89.9392 195.082 90.1697 194.558 90.2833L196.215 93.0488H195.183ZM192.569 89.6582H193.838C194.305 89.6582 194.655 89.5446 194.889 89.3173C195.123 89.0837 195.239 88.7743 195.239 88.3891C195.239 87.9977 195.123 87.6946 194.889 87.4799C194.662 87.2653 194.311 87.1579 193.838 87.1579H192.569V89.6582ZM202.204 90.2549C202.204 90.4191 202.195 90.5927 202.176 90.7758H198.028C198.059 91.2872 198.233 91.6882 198.549 91.9786C198.871 92.2627 199.259 92.4048 199.713 92.4048C200.086 92.4048 200.395 92.3196 200.642 92.1491C200.894 91.9723 201.071 91.7387 201.172 91.4482H202.1C201.961 91.947 201.683 92.3543 201.267 92.67C200.85 92.9794 200.332 93.1341 199.713 93.1341C199.221 93.1341 198.779 93.0236 198.388 92.8026C198.002 92.5816 197.699 92.2691 197.478 91.865C197.257 91.4546 197.147 90.981 197.147 90.4443C197.147 89.9076 197.254 89.4373 197.469 89.0332C197.684 88.6291 197.983 88.3197 198.369 88.105C198.76 87.884 199.208 87.7735 199.713 87.7735C200.206 87.7735 200.642 87.8809 201.02 88.0955C201.399 88.3102 201.69 88.607 201.892 88.9858C202.1 89.3583 202.204 89.7814 202.204 90.2549ZM201.314 90.075C201.314 89.7466 201.241 89.4657 201.096 89.2321C200.951 88.9921 200.752 88.8122 200.5 88.6922C200.253 88.5659 199.979 88.5028 199.676 88.5028C199.24 88.5028 198.867 88.6417 198.558 88.9195C198.255 89.1973 198.081 89.5825 198.037 90.075H201.314ZM205.179 93.1341C204.782 93.1341 204.425 93.0678 204.109 92.9352C203.793 92.7963 203.544 92.6069 203.361 92.3669C203.178 92.1207 203.077 91.8397 203.058 91.524H203.948C203.973 91.7829 204.093 91.9944 204.308 92.1586C204.529 92.3227 204.816 92.4048 205.17 92.4048C205.498 92.4048 205.757 92.3322 205.946 92.187C206.136 92.0418 206.231 91.8587 206.231 91.6377C206.231 91.4104 206.13 91.243 205.928 91.1357C205.725 91.0221 205.413 90.9116 204.99 90.8042C204.605 90.7032 204.289 90.6022 204.043 90.5012C203.803 90.3938 203.595 90.2391 203.418 90.0371C203.247 89.8287 203.162 89.5572 203.162 89.2226C203.162 88.9574 203.241 88.7143 203.399 88.4933C203.557 88.2723 203.781 88.0987 204.071 87.9724C204.362 87.8398 204.693 87.7735 205.066 87.7735C205.64 87.7735 206.104 87.9188 206.458 88.2092C206.811 88.4996 207.001 88.8974 207.026 89.4025H206.164C206.145 89.131 206.035 88.9132 205.833 88.749C205.637 88.5849 205.372 88.5028 205.037 88.5028C204.728 88.5028 204.482 88.5691 204.299 88.7017C204.115 88.8343 204.024 89.0079 204.024 89.2226C204.024 89.3931 204.078 89.5351 204.185 89.6488C204.299 89.7561 204.437 89.8445 204.602 89.914C204.772 89.9771 205.006 90.0497 205.302 90.1318C205.675 90.2328 205.978 90.3338 206.212 90.4349C206.445 90.5296 206.644 90.6748 206.808 90.8705C206.979 91.0663 207.067 91.322 207.073 91.6377C207.073 91.9218 206.995 92.1775 206.837 92.4048C206.679 92.6321 206.455 92.8121 206.164 92.9446C205.88 93.0709 205.552 93.1341 205.179 93.1341ZM209.152 88.8153C209.322 88.5186 209.575 88.2723 209.91 88.0766C210.251 87.8746 210.645 87.7735 211.094 87.7735C211.554 87.7735 211.971 87.884 212.344 88.105C212.723 88.326 213.019 88.6385 213.234 89.0426C213.449 89.4404 213.556 89.9045 213.556 90.4349C213.556 90.9589 213.449 91.4261 213.234 91.8366C213.019 92.247 212.723 92.5658 212.344 92.7931C211.971 93.0204 211.554 93.1341 211.094 93.1341C210.652 93.1341 210.26 93.0362 209.919 92.8405C209.584 92.6384 209.329 92.389 209.152 92.0923V95.5113H208.29V87.8588H209.152V88.8153ZM212.675 90.4349C212.675 90.0434 212.596 89.7024 212.438 89.412C212.281 89.1216 212.066 88.9006 211.794 88.749C211.529 88.5975 211.236 88.5217 210.914 88.5217C210.598 88.5217 210.304 88.6007 210.033 88.7585C209.768 88.91 209.553 89.1342 209.389 89.4309C209.231 89.7214 209.152 90.0592 209.152 90.4443C209.152 90.8358 209.231 91.1799 209.389 91.4767C209.553 91.7671 209.768 91.9912 210.033 92.1491C210.304 92.3006 210.598 92.3764 210.914 92.3764C211.236 92.3764 211.529 92.3006 211.794 92.1491C212.066 91.9912 212.281 91.7671 212.438 91.4767C212.596 91.1799 212.675 90.8326 212.675 90.4349ZM216.954 93.1341C216.468 93.1341 216.026 93.0236 215.628 92.8026C215.237 92.5816 214.927 92.2691 214.7 91.865C214.479 91.4546 214.368 90.981 214.368 90.4443C214.368 89.914 214.482 89.4467 214.709 89.0426C214.943 88.6322 215.259 88.3197 215.656 88.105C216.054 87.884 216.499 87.7735 216.992 87.7735C217.484 87.7735 217.929 87.884 218.327 88.105C218.725 88.3197 219.038 88.6291 219.265 89.0332C219.498 89.4373 219.615 89.9076 219.615 90.4443C219.615 90.981 219.495 91.4546 219.255 91.865C219.022 92.2691 218.703 92.5816 218.299 92.8026C217.895 93.0236 217.446 93.1341 216.954 93.1341ZM216.954 92.3764C217.263 92.3764 217.554 92.3038 217.825 92.1586C218.097 92.0133 218.315 91.7955 218.479 91.5051C218.649 91.2146 218.734 90.861 218.734 90.4443C218.734 90.0276 218.652 89.674 218.488 89.3836C218.324 89.0931 218.109 88.8785 217.844 88.7396C217.579 88.5943 217.292 88.5217 216.982 88.5217C216.667 88.5217 216.376 88.5943 216.111 88.7396C215.852 88.8785 215.644 89.0931 215.486 89.3836C215.328 89.674 215.249 90.0276 215.249 90.4443C215.249 90.8674 215.325 91.2241 215.476 91.5145C215.634 91.805 215.843 92.0228 216.102 92.168C216.36 92.3069 216.645 92.3764 216.954 92.3764ZM223.277 87.7641C223.909 87.7641 224.42 87.9566 224.811 88.3418C225.203 88.7206 225.399 89.2699 225.399 89.9897V93.0488H224.546V90.1128C224.546 89.5951 224.417 89.2005 224.158 88.929C223.899 88.6512 223.546 88.5123 223.097 88.5123C222.643 88.5123 222.28 88.6543 222.008 88.9385C221.743 89.2226 221.61 89.6361 221.61 90.1791V93.0488H220.748V87.8588H221.61V88.5975C221.781 88.3323 222.011 88.1271 222.302 87.9819C222.598 87.8367 222.924 87.7641 223.277 87.7641ZM228.644 93.1341C228.246 93.1341 227.889 93.0678 227.574 92.9352C227.258 92.7963 227.009 92.6069 226.825 92.3669C226.642 92.1207 226.541 91.8397 226.522 91.524H227.413C227.438 91.7829 227.558 91.9944 227.773 92.1586C227.994 92.3227 228.281 92.4048 228.634 92.4048C228.963 92.4048 229.222 92.3322 229.411 92.187C229.6 92.0418 229.695 91.8587 229.695 91.6377C229.695 91.4104 229.594 91.243 229.392 91.1357C229.19 91.0221 228.877 90.9116 228.454 90.8042C228.069 90.7032 227.754 90.6022 227.507 90.5012C227.267 90.3938 227.059 90.2391 226.882 90.0371C226.712 89.8287 226.627 89.5572 226.627 89.2226C226.627 88.9574 226.705 88.7143 226.863 88.4933C227.021 88.2723 227.245 88.0987 227.536 87.9724C227.826 87.8398 228.158 87.7735 228.53 87.7735C229.105 87.7735 229.569 87.9188 229.922 88.2092C230.276 88.4996 230.465 88.8974 230.491 89.4025H229.629C229.61 89.131 229.499 88.9132 229.297 88.749C229.102 88.5849 228.836 88.5028 228.502 88.5028C228.192 88.5028 227.946 88.5691 227.763 88.7017C227.58 88.8343 227.488 89.0079 227.488 89.2226C227.488 89.3931 227.542 89.5351 227.649 89.6488C227.763 89.7561 227.902 89.8445 228.066 89.914C228.237 89.9771 228.47 90.0497 228.767 90.1318C229.139 90.2328 229.443 90.3338 229.676 90.4349C229.91 90.5296 230.109 90.6748 230.273 90.8705C230.443 91.0663 230.532 91.322 230.538 91.6377C230.538 91.9218 230.459 92.1775 230.301 92.4048C230.143 92.6321 229.919 92.8121 229.629 92.9446C229.345 93.0709 229.016 93.1341 228.644 93.1341ZM236.49 90.2549C236.49 90.4191 236.481 90.5927 236.462 90.7758H232.313C232.345 91.2872 232.519 91.6882 232.834 91.9786C233.156 92.2627 233.545 92.4048 233.999 92.4048C234.372 92.4048 234.681 92.3196 234.927 92.1491C235.18 91.9723 235.357 91.7387 235.458 91.4482H236.386C236.247 91.947 235.969 92.3543 235.552 92.67C235.136 92.9794 234.618 93.1341 233.999 93.1341C233.507 93.1341 233.065 93.0236 232.673 92.8026C232.288 92.5816 231.985 92.2691 231.764 91.865C231.543 91.4546 231.433 90.981 231.433 90.4443C231.433 89.9076 231.54 89.4373 231.755 89.0332C231.969 88.6291 232.269 88.3197 232.654 88.105C233.046 87.884 233.494 87.7735 233.999 87.7735C234.492 87.7735 234.927 87.8809 235.306 88.0955C235.685 88.3102 235.976 88.607 236.178 88.9858C236.386 89.3583 236.49 89.7814 236.49 90.2549ZM235.6 90.075C235.6 89.7466 235.527 89.4657 235.382 89.2321C235.237 88.9921 235.038 88.8122 234.785 88.6922C234.539 88.5659 234.264 88.5028 233.961 88.5028C233.526 88.5028 233.153 88.6417 232.844 88.9195C232.541 89.1973 232.367 89.5825 232.323 90.075H235.6Z" fill="white"/>
<g clip-path="url(#clip1_3979_7902)">
<path d="M265.667 95.731C264.16 95.731 262.714 95.1323 261.649 94.0666C260.583 93.0009 259.984 91.5555 259.984 90.0484C259.984 88.5413 260.583 87.0959 261.649 86.0302C262.714 84.9645 264.16 84.3658 265.667 84.3658C267.174 84.3658 268.619 84.9645 269.685 86.0302C270.751 87.0959 271.349 88.5413 271.349 90.0484C271.349 91.5555 270.751 93.0009 269.685 94.0666C268.619 95.1323 267.174 95.731 265.667 95.731V95.731ZM263.676 91.5372C263.642 91.57 263.615 91.6092 263.596 91.6525C263.578 91.6958 263.568 91.7424 263.567 91.7896C263.567 91.8368 263.576 91.8835 263.594 91.9272C263.612 91.9708 263.638 92.0105 263.671 92.0438C263.705 92.0772 263.744 92.1035 263.788 92.1214C263.832 92.1393 263.879 92.1482 263.926 92.1478C263.973 92.1474 264.019 92.1376 264.063 92.119C264.106 92.1004 264.145 92.0733 264.178 92.0394L267.088 89.13L267.088 91.0961C267.088 91.1903 267.125 91.2807 267.192 91.3473C267.258 91.4139 267.348 91.4513 267.443 91.4513C267.537 91.4513 267.627 91.4139 267.694 91.3473C267.76 91.2807 267.798 91.1903 267.798 91.0961L267.798 88.2726C267.798 88.1784 267.76 88.0881 267.694 88.0215C267.627 87.9549 267.537 87.9174 267.443 87.9174L264.619 87.9174C264.525 87.9174 264.435 87.9549 264.368 88.0215C264.301 88.0881 264.264 88.1784 264.264 88.2726C264.264 88.3668 264.301 88.4571 264.368 88.5237C264.435 88.5903 264.525 88.6278 264.619 88.6278L266.585 88.6278L263.676 91.5372Z" fill="white"/>
</g>
<path d="M162.984 110.156C163.041 109.02 163.439 108.145 164.178 107.531C164.928 106.906 165.911 106.594 167.127 106.594C167.957 106.594 168.667 106.741 169.258 107.037C169.849 107.321 170.292 107.713 170.588 108.213C170.895 108.702 171.048 109.259 171.048 109.884C171.048 110.6 170.861 111.208 170.485 111.708C170.122 112.196 169.684 112.526 169.173 112.697V112.765C169.832 112.969 170.343 113.333 170.707 113.856C171.082 114.379 171.27 115.049 171.27 115.867C171.27 116.549 171.111 117.157 170.792 117.692C170.485 118.226 170.025 118.646 169.411 118.953C168.809 119.249 168.082 119.396 167.229 119.396C165.945 119.396 164.9 119.072 164.093 118.425C163.286 117.777 162.859 116.822 162.814 115.561H165.132C165.155 116.117 165.343 116.566 165.695 116.907C166.059 117.237 166.553 117.402 167.178 117.402C167.758 117.402 168.201 117.243 168.508 116.924C168.826 116.595 168.985 116.174 168.985 115.663C168.985 114.981 168.769 114.492 168.337 114.197C167.906 113.901 167.235 113.754 166.326 113.754H165.831V111.793H166.326C167.94 111.793 168.747 111.253 168.747 110.174C168.747 109.685 168.599 109.304 168.303 109.031C168.019 108.759 167.604 108.622 167.059 108.622C166.525 108.622 166.11 108.77 165.814 109.065C165.53 109.35 165.365 109.713 165.32 110.156H162.984ZM173.906 116.618C174.997 115.708 175.866 114.953 176.514 114.35C177.162 113.736 177.702 113.1 178.134 112.441C178.565 111.782 178.781 111.134 178.781 110.497C178.781 109.918 178.645 109.463 178.372 109.134C178.099 108.804 177.679 108.639 177.111 108.639C176.542 108.639 176.105 108.832 175.798 109.219C175.491 109.594 175.332 110.111 175.321 110.77H173.002C173.048 109.406 173.451 108.372 174.213 107.668C174.985 106.963 175.963 106.611 177.145 106.611C178.44 106.611 179.435 106.957 180.128 107.65C180.821 108.332 181.168 109.236 181.168 110.361C181.168 111.248 180.929 112.094 180.452 112.901C179.975 113.708 179.429 114.413 178.815 115.015C178.202 115.606 177.401 116.322 176.412 117.163H181.441V119.141H173.019V117.368L173.906 116.618Z" fill="white"/>
</g>
<rect x="37" y="77" width="54" height="54.0003" rx="27" fill="#EED2FF"/>
<path d="M64.0078 100.25C63.0153 100.256 62.0652 100.653 61.3634 101.355C60.6616 102.057 60.2644 103.007 60.2578 104C60.2578 106.052 61.9553 107.75 64.0078 107.75C66.0591 107.75 67.7578 106.052 67.7578 104C67.7578 101.948 66.0591 100.25 64.0078 100.25Z" fill="#525252"/>
<path d="M64.0206 95.2495C54.4794 95.2495 51.6119 103.521 51.5856 103.605L51.4531 104L51.5844 104.395C51.6119 104.478 54.4794 112.75 64.0206 112.75C73.5619 112.75 76.4294 104.478 76.4556 104.395L76.5881 104L76.4569 103.605C76.4294 103.521 73.5619 95.2495 64.0206 95.2495ZM64.0206 110.25C57.3319 110.25 54.7406 105.442 54.1131 104C54.7431 102.552 57.3356 97.7495 64.0206 97.7495C70.7094 97.7495 73.3006 102.557 73.9281 104C73.2981 105.447 70.7056 110.25 64.0206 110.25V110.25Z" fill="#525252"/>
<rect x="192" y="12" width="46" height="46.0002" rx="23" fill="#EED2FF"/>
<g clip-path="url(#clip2_3979_7902)">
<path d="M227.737 23.3185C227.795 23.1734 227.809 23.0144 227.778 22.8613C227.746 22.7081 227.671 22.5676 227.56 22.4571C227.449 22.3465 227.309 22.2708 227.156 22.2394C227.003 22.208 226.844 22.2222 226.698 22.2803L203.464 31.5746C203.259 31.6565 203.081 31.7933 202.949 31.9699C202.817 32.1465 202.737 32.356 202.716 32.5755C202.696 32.7949 202.736 33.0158 202.833 33.2137C202.93 33.4116 203.08 33.579 203.266 33.6973L211.244 38.7733L213.689 42.6163C213.805 42.7907 213.984 42.9128 214.188 42.9564C214.393 43 214.607 42.9616 214.783 42.8494C214.96 42.7373 215.085 42.5604 215.133 42.3567C215.18 42.153 215.146 41.9388 215.037 41.7602L212.839 38.3069L224.809 26.3373L221.782 33.905C221.741 34.0028 221.719 34.1079 221.719 34.2142C221.718 34.3204 221.739 34.4257 221.78 34.5239C221.82 34.622 221.88 34.711 221.956 34.7857C222.032 34.8604 222.121 34.9192 222.22 34.9587C222.319 34.9983 222.424 35.0177 222.53 35.016C222.637 35.0142 222.742 34.9912 222.839 34.9484C222.936 34.9056 223.024 34.8439 223.097 34.7667C223.17 34.6896 223.227 34.5986 223.264 34.4992L227.737 23.3185V23.3185ZM223.68 25.2081L211.71 37.1777L204.78 32.7678L223.68 25.2081V25.2081Z" fill="#525252"/>
<path d="M227.802 42.1889C227.802 43.6716 227.213 45.0935 226.164 46.1419C225.116 47.1903 223.694 47.7793 222.211 47.7793C220.729 47.7793 219.307 47.1903 218.258 46.1419C217.21 45.0935 216.621 43.6716 216.621 42.1889C216.621 40.7063 217.21 39.2844 218.258 38.236C219.307 37.1876 220.729 36.5986 222.211 36.5986C223.694 36.5986 225.116 37.1876 226.164 38.236C227.213 39.2844 227.802 40.7063 227.802 42.1889V42.1889ZM224.618 39.5072C224.528 39.4533 224.429 39.4176 224.325 39.4022C224.221 39.3868 224.115 39.3921 224.014 39.4176C223.912 39.4431 223.816 39.4884 223.732 39.5509C223.648 39.6134 223.577 39.6919 223.523 39.7819L221.654 42.8965L220.78 42.0228C220.63 41.8729 220.427 41.7886 220.215 41.7886C220.003 41.7886 219.799 41.8729 219.649 42.0228C219.499 42.1728 219.415 42.3762 219.415 42.5882C219.415 42.8003 219.499 43.0037 219.649 43.1537L220.886 44.3883C221.014 44.5173 221.171 44.6151 221.343 44.6745C221.515 44.7339 221.699 44.7533 221.879 44.7311C222.06 44.7089 222.234 44.6458 222.386 44.5466C222.539 44.4473 222.667 44.3145 222.761 44.1583L224.893 40.6029C224.947 40.5129 224.983 40.4132 224.998 40.3094C225.013 40.2057 225.008 40.0999 224.983 39.9981C224.957 39.8964 224.912 39.8007 224.849 39.7164C224.787 39.6322 224.708 39.5611 224.618 39.5072V39.5072Z" fill="#525252"/>
</g>
<defs>
<filter id="filter0_d_3979_7902" x="0.538455" y="0.769228" width="132.923" height="69.678" filterUnits="userSpaceOnUse" color-interpolation-filters="sRGB">
<feFlood flood-opacity="0" result="BackgroundImageFix"/>
<feColorMatrix in="SourceAlpha" type="matrix" values="0 0 0 0 0 0 0 0 0 0 0 0 0 0 0 0 0 0 127 0" result="hardAlpha"/>
<feOffset dy="1.23077"/>
<feGaussianBlur stdDeviation="1.23077"/>
<feComposite in2="hardAlpha" operator="out"/>
<feColorMatrix type="matrix" values="0 0 0 0 0 0 0 0 0 0 0 0 0 0 0 0 0 0 0.05 0"/>
<feBlend mode="normal" in2="BackgroundImageFix" result="effect1_dropShadow_3979_7902"/>
<feBlend mode="normal" in="SourceGraphic" in2="effect1_dropShadow_3979_7902" result="shape"/>
</filter>
<filter id="filter1_d_3979_7902" x="145.899" y="68.4494" width="141.605" height="74.8444" filterUnits="userSpaceOnUse" color-interpolation-filters="sRGB">
<feFlood flood-opacity="0" result="BackgroundImageFix"/>
<feColorMatrix in="SourceAlpha" type="matrix" values="0 0 0 0 0 0 0 0 0 0 0 0 0 0 0 0 0 0 127 0" result="hardAlpha"/>
<feOffset dy="1.55058"/>
<feGaussianBlur stdDeviation="1.55058"/>
<feComposite in2="hardAlpha" operator="out"/>
<feColorMatrix type="matrix" values="0 0 0 0 0 0 0 0 0 0 0 0 0 0 0 0 0 0 0.05 0"/>
<feBlend mode="normal" in2="BackgroundImageFix" result="effect1_dropShadow_3979_7902"/>
<feBlend mode="normal" in="SourceGraphic" in2="effect1_dropShadow_3979_7902" result="shape"/>
</filter>
<clipPath id="clip0_3979_7902">
<rect width="10.7438" height="10.7437" fill="white" transform="translate(107.922 26.2075) rotate(-90)"/>
</clipPath>
<clipPath id="clip1_3979_7902">
<rect width="11.3651" height="11.3651" fill="white" transform="translate(259.988 95.7314) rotate(-90)"/>
</clipPath>
<clipPath id="clip2_3979_7902">
<rect width="25.5556" height="25.5557" fill="white" transform="translate(202.223 22.2222)"/>
</clipPath>
</defs>
</svg>
