<svg width="288" height="144" viewBox="0 0 288 144" fill="none" xmlns="http://www.w3.org/2000/svg">
<g filter="url(#filter0_d_3979_7902)">
<rect x="3" y="2" width="128" height="64.7546" rx="4.47656" fill="#8B6DCB"/>
<path d="M20.9316 24.3354H20.1169L16.8401 19.3665V24.3354H16.0253V18.0862H16.8401L20.1169 23.0462V18.0862H20.9316V24.3354ZM24.4603 24.416C24.0007 24.416 23.5829 24.3116 23.2068 24.1027C22.8368 23.8938 22.5443 23.5983 22.3294 23.2163C22.1205 22.8283 22.0161 22.3807 22.0161 21.8733C22.0161 21.372 22.1235 20.9303 22.3384 20.5483C22.5592 20.1603 22.8577 19.8649 23.2337 19.6619C23.6097 19.453 24.0305 19.3486 24.4961 19.3486C24.9617 19.3486 25.3824 19.453 25.7585 19.6619C26.1345 19.8649 26.43 20.1573 26.6448 20.5393C26.8657 20.9213 26.9761 21.366 26.9761 21.8733C26.9761 22.3807 26.8627 22.8283 26.6359 23.2163C26.415 23.5983 26.1136 23.8938 25.7316 24.1027C25.3496 24.3116 24.9258 24.416 24.4603 24.416ZM24.4603 23.6998C24.7527 23.6998 25.0273 23.6311 25.284 23.4939C25.5406 23.3566 25.7465 23.1507 25.9017 22.8761C26.0629 22.6015 26.1435 22.2673 26.1435 21.8733C26.1435 21.4794 26.0659 21.1452 25.9107 20.8706C25.7555 20.596 25.5526 20.3931 25.3019 20.2618C25.0512 20.1245 24.7796 20.0559 24.4871 20.0559C24.1887 20.0559 23.9141 20.1245 23.6634 20.2618C23.4187 20.3931 23.2218 20.596 23.0725 20.8706C22.9233 21.1452 22.8487 21.4794 22.8487 21.8733C22.8487 22.2732 22.9203 22.6105 23.0636 22.885C23.2128 23.1596 23.4098 23.3655 23.6545 23.5028C23.8992 23.6341 24.1678 23.6998 24.4603 23.6998ZM28.307 24.3892C28.1518 24.3892 28.0205 24.3354 27.913 24.228C27.8056 24.1206 27.7519 23.9893 27.7519 23.8341C27.7519 23.6789 27.8056 23.5476 27.913 23.4401C28.0205 23.3327 28.1518 23.279 28.307 23.279C28.4562 23.279 28.5815 23.3327 28.683 23.4401C28.7904 23.5476 28.8442 23.6789 28.8442 23.8341C28.8442 23.9893 28.7904 24.1206 28.683 24.228C28.5815 24.3354 28.4562 24.3892 28.307 24.3892ZM34.4538 24.416C33.9942 24.416 33.5764 24.3116 33.2004 24.1027C32.8303 23.8938 32.5379 23.5983 32.323 23.2163C32.1141 22.8283 32.0096 22.3807 32.0096 21.8733C32.0096 21.372 32.1171 20.9303 32.3319 20.5483C32.5528 20.1603 32.8512 19.8649 33.2273 19.6619C33.6033 19.453 34.0241 19.3486 34.4896 19.3486C34.9552 19.3486 35.376 19.453 35.752 19.6619C36.1281 19.8649 36.4235 20.1573 36.6384 20.5393C36.8592 20.9213 36.9697 21.366 36.9697 21.8733C36.9697 22.3807 36.8563 22.8283 36.6294 23.2163C36.4086 23.5983 36.1072 23.8938 35.7252 24.1027C35.3432 24.3116 34.9194 24.416 34.4538 24.416ZM34.4538 23.6998C34.7463 23.6998 35.0209 23.6311 35.2775 23.4939C35.5342 23.3566 35.7401 23.1507 35.8953 22.8761C36.0564 22.6015 36.137 22.2673 36.137 21.8733C36.137 21.4794 36.0594 21.1452 35.9042 20.8706C35.7491 20.596 35.5461 20.3931 35.2954 20.2618C35.0447 20.1245 34.7732 20.0559 34.4807 20.0559C34.1823 20.0559 33.9077 20.1245 33.657 20.2618C33.4123 20.3931 33.2153 20.596 33.0661 20.8706C32.9169 21.1452 32.8423 21.4794 32.8423 21.8733C32.8423 22.2732 32.9139 22.6105 33.0572 22.885C33.2064 23.1596 33.4033 23.3655 33.6481 23.5028C33.8928 23.6341 34.1614 23.6998 34.4538 23.6998ZM40.0374 20.1006H39.0078V24.3354H38.1931V20.1006H37.5574V19.4291H38.1931V19.08C38.1931 18.5308 38.3334 18.1309 38.6139 17.8803C38.9004 17.6236 39.357 17.4953 39.9837 17.4953V18.1757C39.6256 18.1757 39.3719 18.2473 39.2227 18.3906C39.0794 18.5279 39.0078 18.7577 39.0078 19.08V19.4291H40.0374V20.1006ZM48.5313 18.0951L46.1766 24.3354H45.2365L42.8819 18.0951H43.7503L45.711 23.476L47.6718 18.0951H48.5313ZM49.8454 18.6323C49.6902 18.6323 49.5589 18.5786 49.4515 18.4712C49.344 18.3637 49.2903 18.2324 49.2903 18.0772C49.2903 17.922 49.344 17.7907 49.4515 17.6833C49.5589 17.5759 49.6902 17.5221 49.8454 17.5221C49.9946 17.5221 50.12 17.5759 50.2215 17.6833C50.3289 17.7907 50.3826 17.922 50.3826 18.0772C50.3826 18.2324 50.3289 18.3637 50.2215 18.4712C50.12 18.5786 49.9946 18.6323 49.8454 18.6323ZM50.2394 19.4291V24.3354H49.4246V19.4291H50.2394ZM56.1045 21.6943C56.1045 21.8495 56.0955 22.0136 56.0776 22.1867H52.1562C52.186 22.6702 52.3501 23.0492 52.6486 23.3237C52.953 23.5923 53.3201 23.7266 53.7498 23.7266C54.102 23.7266 54.3944 23.6461 54.6272 23.4849C54.866 23.3178 55.0331 23.0969 55.1286 22.8224H56.006C55.8747 23.2939 55.6121 23.6789 55.2181 23.9773C54.8242 24.2698 54.3348 24.416 53.7498 24.416C53.2843 24.416 52.8664 24.3116 52.4964 24.1027C52.1323 23.8938 51.8458 23.5983 51.6369 23.2163C51.428 22.8283 51.3235 22.3807 51.3235 21.8733C51.3235 21.366 51.425 20.9213 51.6279 20.5393C51.8309 20.1573 52.1144 19.8649 52.4785 19.6619C52.8485 19.453 53.2723 19.3486 53.7498 19.3486C54.2154 19.3486 54.6272 19.45 54.9853 19.653C55.3435 19.8559 55.618 20.1364 55.809 20.4946C56.006 20.8467 56.1045 21.2466 56.1045 21.6943ZM55.2629 21.5242C55.2629 21.2138 55.1943 20.9482 55.057 20.7273C54.9197 20.5005 54.7317 20.3304 54.4929 20.217C54.2601 20.0976 54.0005 20.038 53.714 20.038C53.3022 20.038 52.95 20.1693 52.6575 20.4319C52.371 20.6945 52.2069 21.0586 52.1651 21.5242H55.2629ZM63.7157 19.4291L62.1847 24.3354H61.3431L60.1613 20.4408L58.9795 24.3354H58.1379L56.598 19.4291H57.4306L58.5587 23.5476L59.7763 19.4291H60.609L61.7997 23.5565L62.9099 19.4291H63.7157ZM66.2612 24.416C65.8851 24.416 65.5479 24.3534 65.2495 24.228C64.951 24.0967 64.7153 23.9176 64.5422 23.6908C64.3691 23.458 64.2736 23.1924 64.2557 22.894H65.0973C65.1211 23.1387 65.2345 23.3387 65.4375 23.4939C65.6464 23.649 65.918 23.7266 66.2522 23.7266C66.5626 23.7266 66.8073 23.658 66.9864 23.5207C67.1654 23.3834 67.255 23.2103 67.255 23.0014C67.255 22.7866 67.1595 22.6284 66.9685 22.5269C66.7775 22.4195 66.482 22.315 66.0821 22.2136C65.718 22.1181 65.4196 22.0226 65.1868 21.9271C64.96 21.8256 64.763 21.6794 64.5959 21.4884C64.4347 21.2914 64.3541 21.0347 64.3541 20.7184C64.3541 20.4677 64.4288 20.2379 64.578 20.029C64.7272 19.8201 64.9391 19.656 65.2136 19.5366C65.4882 19.4112 65.8016 19.3486 66.1537 19.3486C66.6969 19.3486 67.1356 19.4858 67.4698 19.7604C67.8041 20.035 67.9831 20.411 68.007 20.8885H67.1923C67.1744 20.6318 67.0699 20.4259 66.8789 20.2707C66.6939 20.1155 66.4432 20.038 66.1269 20.038C65.8344 20.038 65.6016 20.1006 65.4285 20.226C65.2554 20.3513 65.1689 20.5155 65.1689 20.7184C65.1689 20.8795 65.2196 21.0138 65.3211 21.1213C65.4285 21.2228 65.5598 21.3063 65.715 21.372C65.8762 21.4317 66.097 21.5003 66.3776 21.5779C66.7297 21.6734 67.0162 21.7689 67.2371 21.8644C67.4579 21.9539 67.6459 22.0912 67.8011 22.2762C67.9623 22.4613 68.0458 22.703 68.0518 23.0014C68.0518 23.27 67.9772 23.5118 67.828 23.7266C67.6787 23.9415 67.4668 24.1116 67.1923 24.237C66.9237 24.3563 66.6133 24.416 66.2612 24.416Z" fill="white"/>
<g clip-path="url(#clip0_3979_7902)">
<path d="M113.278 26.2061C111.853 26.2061 110.487 25.6401 109.48 24.6327C108.472 23.6252 107.906 22.2589 107.906 20.8342C107.906 19.4095 108.472 18.0431 109.48 17.0357C110.487 16.0283 111.853 15.4623 113.278 15.4623C114.703 15.4623 116.069 16.0283 117.077 17.0357C118.084 18.0431 118.65 19.4095 118.65 20.8342C118.65 22.2589 118.084 23.6252 117.077 24.6327C116.069 25.6401 114.703 26.2061 113.278 26.2061ZM111.396 22.2416C111.364 22.2726 111.338 22.3096 111.321 22.3506C111.303 22.3915 111.294 22.4356 111.293 22.4802C111.293 22.5248 111.302 22.569 111.318 22.6102C111.335 22.6515 111.36 22.689 111.392 22.7205C111.423 22.752 111.461 22.777 111.502 22.7938C111.543 22.8107 111.588 22.8192 111.632 22.8188C111.677 22.8184 111.721 22.8092 111.762 22.7916C111.803 22.774 111.84 22.7484 111.871 22.7163L114.621 19.9659L114.621 21.8246C114.621 21.9137 114.656 21.9991 114.719 22.062C114.782 22.125 114.868 22.1604 114.957 22.1604C115.046 22.1604 115.131 22.125 115.194 22.062C115.257 21.9991 115.293 21.9137 115.293 21.8246L115.293 19.1555C115.293 19.0664 115.257 18.981 115.194 18.9181C115.131 18.8551 115.046 18.8197 114.957 18.8197L112.288 18.8197C112.199 18.8197 112.113 18.8551 112.05 18.9181C111.987 18.981 111.952 19.0664 111.952 19.1555C111.952 19.2445 111.987 19.3299 112.05 19.3929C112.113 19.4558 112.199 19.4912 112.288 19.4912L114.146 19.4912L111.396 22.2416Z" fill="white"/>
</g>
<path d="M24.0867 38.6211H18.8653V41.3769C19.0909 41.0976 19.4132 40.872 19.8322 40.7001C20.2512 40.5174 20.6971 40.4261 21.1698 40.4261C22.0293 40.4261 22.733 40.6141 23.2809 40.9901C23.8289 41.3662 24.2264 41.8496 24.4735 42.4405C24.7206 43.0207 24.8441 43.6438 24.8441 44.31C24.8441 45.5455 24.4896 46.5393 23.7805 47.2913C23.0822 48.0434 22.083 48.4194 20.783 48.4194C19.5582 48.4194 18.5805 48.1132 17.85 47.5008C17.1194 46.8885 16.7058 46.088 16.6091 45.0996H18.8008C18.8975 45.5294 19.1124 45.8732 19.4454 46.131C19.7892 46.3889 20.2243 46.5178 20.7508 46.5178C21.3847 46.5178 21.8628 46.319 22.1851 45.9215C22.5074 45.524 22.6685 44.9976 22.6685 44.3422C22.6685 43.6761 22.502 43.1711 22.169 42.8273C21.8466 42.4728 21.3685 42.2955 20.7347 42.2955C20.2834 42.2955 19.9074 42.4083 19.6066 42.6339C19.3057 42.8596 19.0909 43.1604 18.9619 43.5364H16.8025V36.6389H24.0867V38.6211ZM26.5613 42.3922C26.5613 40.5335 26.8944 39.0778 27.5605 38.0249C28.2374 36.972 29.3547 36.4455 30.9125 36.4455C32.4704 36.4455 33.5824 36.972 34.2485 38.0249C34.9253 39.0778 35.2638 40.5335 35.2638 42.3922C35.2638 44.2616 34.9253 45.7281 34.2485 46.7918C33.5824 47.8554 32.4704 48.3872 30.9125 48.3872C29.3547 48.3872 28.2374 47.8554 27.5605 46.7918C26.8944 45.7281 26.5613 44.2616 26.5613 42.3922ZM33.0398 42.3922C33.0398 41.5972 32.9861 40.9311 32.8787 40.3939C32.782 39.8459 32.5778 39.4001 32.2663 39.0563C31.9654 38.7125 31.5142 38.5406 30.9125 38.5406C30.3109 38.5406 29.8543 38.7125 29.5427 39.0563C29.2419 39.4001 29.0378 39.8459 28.9303 40.3939C28.8336 40.9311 28.7853 41.5972 28.7853 42.3922C28.7853 43.2087 28.8336 43.8963 28.9303 44.455C29.027 45.0029 29.2312 45.4488 29.5427 45.7926C29.8543 46.1256 30.3109 46.2922 30.9125 46.2922C31.5142 46.2922 31.9708 46.1256 32.2824 45.7926C32.5939 45.4488 32.7981 45.0029 32.8948 44.455C32.9915 43.8963 33.0398 43.2087 33.0398 42.3922Z" fill="white"/>
</g>
<g filter="url(#filter1_d_3979_7902)">
<rect x="146" y="70" width="135.403" height="68.6419" rx="4.73545" fill="#8B6DCB"/>
<path d="M164.966 93.0488H164.104L160.638 87.7925V93.0488H159.776V86.4381H160.638L164.104 91.685V86.4381H164.966V93.0488ZM168.699 93.1341C168.213 93.1341 167.771 93.0236 167.373 92.8026C166.982 92.5816 166.672 92.2691 166.445 91.865C166.224 91.4546 166.113 90.981 166.113 90.4443C166.113 89.914 166.227 89.4467 166.454 89.0426C166.688 88.6322 167.004 88.3197 167.401 88.105C167.799 87.884 168.244 87.7735 168.737 87.7735C169.229 87.7735 169.674 87.884 170.072 88.105C170.47 88.3197 170.783 88.6291 171.01 89.0332C171.243 89.4373 171.36 89.9076 171.36 90.4443C171.36 90.981 171.24 91.4546 171 91.865C170.767 92.2691 170.448 92.5816 170.044 92.8026C169.64 93.0236 169.191 93.1341 168.699 93.1341ZM168.699 92.3764C169.008 92.3764 169.299 92.3038 169.57 92.1586C169.842 92.0133 170.06 91.7955 170.224 91.5051C170.394 91.2146 170.479 90.861 170.479 90.4443C170.479 90.0276 170.397 89.674 170.233 89.3836C170.069 89.0931 169.854 88.8785 169.589 88.7396C169.324 88.5943 169.037 88.5217 168.727 88.5217C168.412 88.5217 168.121 88.5943 167.856 88.7396C167.597 88.8785 167.389 89.0931 167.231 89.3836C167.073 89.674 166.994 90.0276 166.994 90.4443C166.994 90.8674 167.07 91.2241 167.221 91.5145C167.379 91.805 167.588 92.0228 167.847 92.168C168.105 92.3069 168.39 92.3764 168.699 92.3764ZM172.768 93.1057C172.604 93.1057 172.465 93.0488 172.351 92.9352C172.238 92.8215 172.181 92.6826 172.181 92.5185C172.181 92.3543 172.238 92.2154 172.351 92.1017C172.465 91.9881 172.604 91.9313 172.768 91.9313C172.926 91.9313 173.059 91.9881 173.166 92.1017C173.28 92.2154 173.336 92.3543 173.336 92.5185C173.336 92.6826 173.28 92.8215 173.166 92.9352C173.059 93.0488 172.926 93.1057 172.768 93.1057ZM179.27 93.1341C178.784 93.1341 178.342 93.0236 177.945 92.8026C177.553 92.5816 177.244 92.2691 177.016 91.865C176.795 91.4546 176.685 90.981 176.685 90.4443C176.685 89.914 176.799 89.4467 177.026 89.0426C177.259 88.6322 177.575 88.3197 177.973 88.105C178.371 87.884 178.816 87.7735 179.308 87.7735C179.801 87.7735 180.246 87.884 180.644 88.105C181.042 88.3197 181.354 88.6291 181.581 89.0332C181.815 89.4373 181.932 89.9076 181.932 90.4443C181.932 90.981 181.812 91.4546 181.572 91.865C181.338 92.2691 181.019 92.5816 180.615 92.8026C180.211 93.0236 179.763 93.1341 179.27 93.1341ZM179.27 92.3764C179.58 92.3764 179.87 92.3038 180.142 92.1586C180.413 92.0133 180.631 91.7955 180.795 91.5051C180.966 91.2146 181.051 90.861 181.051 90.4443C181.051 90.0276 180.969 89.674 180.805 89.3836C180.641 89.0931 180.426 88.8785 180.161 88.7396C179.896 88.5943 179.608 88.5217 179.299 88.5217C178.983 88.5217 178.693 88.5943 178.428 88.7396C178.169 88.8785 177.96 89.0931 177.802 89.3836C177.645 89.674 177.566 90.0276 177.566 90.4443C177.566 90.8674 177.641 91.2241 177.793 91.5145C177.951 91.805 178.159 92.0228 178.418 92.168C178.677 92.3069 178.961 92.3764 179.27 92.3764ZM185.177 88.5691H184.088V93.0488H183.226V88.5691H182.554V87.8588H183.226V87.4894C183.226 86.9085 183.374 86.4855 183.671 86.2203C183.974 85.9488 184.457 85.8131 185.12 85.8131V86.5328C184.741 86.5328 184.473 86.6086 184.315 86.7601C184.164 86.9054 184.088 87.1485 184.088 87.4894V87.8588H185.177V88.5691ZM192.183 93.0488L190.61 90.3496H189.569V93.0488H188.707V86.4476H190.838C191.337 86.4476 191.756 86.5328 192.097 86.7033C192.445 86.8738 192.704 87.1043 192.874 87.3947C193.044 87.6851 193.13 88.0166 193.13 88.3891C193.13 88.8437 192.997 89.2447 192.732 89.5919C192.473 89.9392 192.082 90.1697 191.558 90.2833L193.215 93.0488H192.183ZM189.569 89.6582H190.838C191.305 89.6582 191.655 89.5446 191.889 89.3173C192.123 89.0837 192.239 88.7743 192.239 88.3891C192.239 87.9977 192.123 87.6946 191.889 87.4799C191.662 87.2653 191.311 87.1579 190.838 87.1579H189.569V89.6582ZM199.204 90.2549C199.204 90.4191 199.195 90.5927 199.176 90.7758H195.028C195.059 91.2872 195.233 91.6882 195.549 91.9786C195.871 92.2627 196.259 92.4048 196.713 92.4048C197.086 92.4048 197.395 92.3196 197.642 92.1491C197.894 91.9723 198.071 91.7387 198.172 91.4482H199.1C198.961 91.947 198.683 92.3543 198.267 92.67C197.85 92.9794 197.332 93.1341 196.713 93.1341C196.221 93.1341 195.779 93.0236 195.388 92.8026C195.002 92.5816 194.699 92.2691 194.478 91.865C194.257 91.4546 194.147 90.981 194.147 90.4443C194.147 89.9076 194.254 89.4373 194.469 89.0332C194.684 88.6291 194.983 88.3197 195.369 88.105C195.76 87.884 196.208 87.7735 196.713 87.7735C197.206 87.7735 197.642 87.8809 198.02 88.0955C198.399 88.3102 198.69 88.607 198.892 88.9858C199.1 89.3583 199.204 89.7814 199.204 90.2549ZM198.314 90.075C198.314 89.7466 198.241 89.4657 198.096 89.2321C197.951 88.9921 197.752 88.8122 197.5 88.6922C197.253 88.5659 196.979 88.5028 196.676 88.5028C196.24 88.5028 195.867 88.6417 195.558 88.9195C195.255 89.1973 195.081 89.5825 195.037 90.075H198.314ZM202.179 93.1341C201.782 93.1341 201.425 93.0678 201.109 92.9352C200.793 92.7963 200.544 92.6069 200.361 92.3669C200.178 92.1207 200.077 91.8397 200.058 91.524H200.948C200.973 91.7829 201.093 91.9944 201.308 92.1586C201.529 92.3227 201.816 92.4048 202.17 92.4048C202.498 92.4048 202.757 92.3322 202.946 92.187C203.136 92.0418 203.231 91.8587 203.231 91.6377C203.231 91.4104 203.13 91.243 202.928 91.1357C202.725 91.0221 202.413 90.9116 201.99 90.8042C201.605 90.7032 201.289 90.6022 201.043 90.5012C200.803 90.3938 200.595 90.2391 200.418 90.0371C200.247 89.8287 200.162 89.5572 200.162 89.2226C200.162 88.9574 200.241 88.7143 200.399 88.4933C200.557 88.2723 200.781 88.0987 201.071 87.9724C201.362 87.8398 201.693 87.7735 202.066 87.7735C202.64 87.7735 203.104 87.9188 203.458 88.2092C203.811 88.4996 204.001 88.8974 204.026 89.4025H203.164C203.145 89.131 203.035 88.9132 202.833 88.749C202.637 88.5849 202.372 88.5028 202.037 88.5028C201.728 88.5028 201.482 88.5691 201.299 88.7017C201.115 88.8343 201.024 89.0079 201.024 89.2226C201.024 89.3931 201.078 89.5351 201.185 89.6488C201.299 89.7561 201.437 89.8445 201.602 89.914C201.772 89.9771 202.006 90.0497 202.302 90.1318C202.675 90.2328 202.978 90.3338 203.212 90.4349C203.445 90.5296 203.644 90.6748 203.808 90.8705C203.979 91.0663 204.067 91.322 204.073 91.6377C204.073 91.9218 203.995 92.1775 203.837 92.4048C203.679 92.6321 203.455 92.8121 203.164 92.9446C202.88 93.0709 202.552 93.1341 202.179 93.1341ZM206.152 88.8153C206.322 88.5186 206.575 88.2723 206.91 88.0766C207.251 87.8746 207.645 87.7735 208.094 87.7735C208.554 87.7735 208.971 87.884 209.344 88.105C209.723 88.326 210.019 88.6385 210.234 89.0426C210.449 89.4404 210.556 89.9045 210.556 90.4349C210.556 90.9589 210.449 91.4261 210.234 91.8366C210.019 92.247 209.723 92.5658 209.344 92.7931C208.971 93.0204 208.554 93.1341 208.094 93.1341C207.652 93.1341 207.26 93.0362 206.919 92.8405C206.584 92.6384 206.329 92.389 206.152 92.0923V95.5113H205.29V87.8588H206.152V88.8153ZM209.675 90.4349C209.675 90.0434 209.596 89.7024 209.438 89.412C209.281 89.1216 209.066 88.9006 208.794 88.749C208.529 88.5975 208.236 88.5217 207.914 88.5217C207.598 88.5217 207.304 88.6007 207.033 88.7585C206.768 88.91 206.553 89.1342 206.389 89.4309C206.231 89.7214 206.152 90.0592 206.152 90.4443C206.152 90.8358 206.231 91.1799 206.389 91.4767C206.553 91.7671 206.768 91.9912 207.033 92.1491C207.304 92.3006 207.598 92.3764 207.914 92.3764C208.236 92.3764 208.529 92.3006 208.794 92.1491C209.066 91.9912 209.281 91.7671 209.438 91.4767C209.596 91.1799 209.675 90.8326 209.675 90.4349ZM213.954 93.1341C213.468 93.1341 213.026 93.0236 212.628 92.8026C212.237 92.5816 211.927 92.2691 211.7 91.865C211.479 91.4546 211.368 90.981 211.368 90.4443C211.368 89.914 211.482 89.4467 211.709 89.0426C211.943 88.6322 212.259 88.3197 212.656 88.105C213.054 87.884 213.499 87.7735 213.992 87.7735C214.484 87.7735 214.929 87.884 215.327 88.105C215.725 88.3197 216.038 88.6291 216.265 89.0332C216.498 89.4373 216.615 89.9076 216.615 90.4443C216.615 90.981 216.495 91.4546 216.255 91.865C216.022 92.2691 215.703 92.5816 215.299 92.8026C214.895 93.0236 214.446 93.1341 213.954 93.1341ZM213.954 92.3764C214.263 92.3764 214.554 92.3038 214.825 92.1586C215.097 92.0133 215.315 91.7955 215.479 91.5051C215.649 91.2146 215.734 90.861 215.734 90.4443C215.734 90.0276 215.652 89.674 215.488 89.3836C215.324 89.0931 215.109 88.8785 214.844 88.7396C214.579 88.5943 214.292 88.5217 213.982 88.5217C213.667 88.5217 213.376 88.5943 213.111 88.7396C212.852 88.8785 212.644 89.0931 212.486 89.3836C212.328 89.674 212.249 90.0276 212.249 90.4443C212.249 90.8674 212.325 91.2241 212.476 91.5145C212.634 91.805 212.843 92.0228 213.102 92.168C213.36 92.3069 213.645 92.3764 213.954 92.3764ZM220.277 87.7641C220.909 87.7641 221.42 87.9566 221.811 88.3418C222.203 88.7206 222.399 89.2699 222.399 89.9897V93.0488H221.546V90.1128C221.546 89.5951 221.417 89.2005 221.158 88.929C220.899 88.6512 220.546 88.5123 220.097 88.5123C219.643 88.5123 219.28 88.6543 219.008 88.9385C218.743 89.2226 218.61 89.6361 218.61 90.1791V93.0488H217.748V87.8588H218.61V88.5975C218.781 88.3323 219.011 88.1271 219.302 87.9819C219.598 87.8367 219.924 87.7641 220.277 87.7641ZM225.644 93.1341C225.246 93.1341 224.889 93.0678 224.574 92.9352C224.258 92.7963 224.009 92.6069 223.825 92.3669C223.642 92.1207 223.541 91.8397 223.522 91.524H224.413C224.438 91.7829 224.558 91.9944 224.773 92.1586C224.994 92.3227 225.281 92.4048 225.634 92.4048C225.963 92.4048 226.222 92.3322 226.411 92.187C226.6 92.0418 226.695 91.8587 226.695 91.6377C226.695 91.4104 226.594 91.243 226.392 91.1357C226.19 91.0221 225.877 90.9116 225.454 90.8042C225.069 90.7032 224.754 90.6022 224.507 90.5012C224.267 90.3938 224.059 90.2391 223.882 90.0371C223.712 89.8287 223.627 89.5572 223.627 89.2226C223.627 88.9574 223.705 88.7143 223.863 88.4933C224.021 88.2723 224.245 88.0987 224.536 87.9724C224.826 87.8398 225.158 87.7735 225.53 87.7735C226.105 87.7735 226.569 87.9188 226.922 88.2092C227.276 88.4996 227.465 88.8974 227.491 89.4025H226.629C226.61 89.131 226.499 88.9132 226.297 88.749C226.102 88.5849 225.836 88.5028 225.502 88.5028C225.192 88.5028 224.946 88.5691 224.763 88.7017C224.58 88.8343 224.488 89.0079 224.488 89.2226C224.488 89.3931 224.542 89.5351 224.649 89.6488C224.763 89.7561 224.902 89.8445 225.066 89.914C225.237 89.9771 225.47 90.0497 225.767 90.1318C226.139 90.2328 226.443 90.3338 226.676 90.4349C226.91 90.5296 227.109 90.6748 227.273 90.8705C227.443 91.0663 227.532 91.322 227.538 91.6377C227.538 91.9218 227.459 92.1775 227.301 92.4048C227.143 92.6321 226.919 92.8121 226.629 92.9446C226.345 93.0709 226.016 93.1341 225.644 93.1341ZM233.49 90.2549C233.49 90.4191 233.481 90.5927 233.462 90.7758H229.313C229.345 91.2872 229.519 91.6882 229.834 91.9786C230.156 92.2627 230.545 92.4048 230.999 92.4048C231.372 92.4048 231.681 92.3196 231.927 92.1491C232.18 91.9723 232.357 91.7387 232.458 91.4482H233.386C233.247 91.947 232.969 92.3543 232.552 92.67C232.136 92.9794 231.618 93.1341 230.999 93.1341C230.507 93.1341 230.065 93.0236 229.673 92.8026C229.288 92.5816 228.985 92.2691 228.764 91.865C228.543 91.4546 228.433 90.981 228.433 90.4443C228.433 89.9076 228.54 89.4373 228.755 89.0332C228.969 88.6291 229.269 88.3197 229.654 88.105C230.046 87.884 230.494 87.7735 230.999 87.7735C231.492 87.7735 231.927 87.8809 232.306 88.0955C232.685 88.3102 232.976 88.607 233.178 88.9858C233.386 89.3583 233.49 89.7814 233.49 90.2549ZM232.6 90.075C232.6 89.7466 232.527 89.4657 232.382 89.2321C232.237 88.9921 232.038 88.8122 231.785 88.6922C231.539 88.5659 231.264 88.5028 230.961 88.5028C230.526 88.5028 230.153 88.6417 229.844 88.9195C229.541 89.1973 229.367 89.5825 229.323 90.075H232.6Z" fill="white"/>
<g clip-path="url(#clip1_3979_7902)">
<path d="M262.667 95.731C261.16 95.731 259.714 95.1323 258.649 94.0666C257.583 93.0009 256.984 91.5555 256.984 90.0484C256.984 88.5413 257.583 87.0959 258.649 86.0302C259.714 84.9645 261.16 84.3658 262.667 84.3658C264.174 84.3658 265.619 84.9645 266.685 86.0302C267.751 87.0959 268.349 88.5413 268.349 90.0484C268.349 91.5555 267.751 93.0009 266.685 94.0666C265.619 95.1323 264.174 95.731 262.667 95.731ZM260.676 91.5372C260.642 91.57 260.615 91.6092 260.596 91.6525C260.578 91.6958 260.568 91.7424 260.567 91.7896C260.567 91.8368 260.576 91.8835 260.594 91.9272C260.612 91.9708 260.638 92.0105 260.671 92.0438C260.705 92.0772 260.744 92.1035 260.788 92.1214C260.832 92.1393 260.879 92.1482 260.926 92.1478C260.973 92.1474 261.019 92.1376 261.063 92.119C261.106 92.1004 261.145 92.0733 261.178 92.0394L264.088 89.13L264.088 91.0961C264.088 91.1903 264.125 91.2807 264.192 91.3473C264.258 91.4139 264.348 91.4513 264.443 91.4513C264.537 91.4513 264.627 91.4139 264.694 91.3473C264.76 91.2807 264.798 91.1903 264.798 91.0961L264.798 88.2726C264.798 88.1784 264.76 88.0881 264.694 88.0215C264.627 87.9549 264.537 87.9174 264.443 87.9174L261.619 87.9174C261.525 87.9174 261.435 87.9549 261.368 88.0215C261.301 88.0881 261.264 88.1784 261.264 88.2726C261.264 88.3668 261.301 88.4571 261.368 88.5237C261.435 88.5903 261.525 88.6278 261.619 88.6278L263.585 88.6278L260.676 91.5372Z" fill="white"/>
</g>
<path d="M159.984 110.156C160.041 109.02 160.439 108.145 161.178 107.531C161.928 106.906 162.911 106.594 164.127 106.594C164.957 106.594 165.667 106.741 166.258 107.037C166.849 107.321 167.292 107.713 167.588 108.213C167.895 108.702 168.048 109.259 168.048 109.884C168.048 110.6 167.861 111.208 167.485 111.708C167.122 112.196 166.684 112.526 166.173 112.697V112.765C166.832 112.969 167.343 113.333 167.707 113.856C168.082 114.379 168.27 115.049 168.27 115.867C168.27 116.549 168.111 117.157 167.792 117.692C167.485 118.226 167.025 118.646 166.411 118.953C165.809 119.249 165.082 119.396 164.229 119.396C162.945 119.396 161.9 119.072 161.093 118.425C160.286 117.777 159.859 116.822 159.814 115.561H162.132C162.155 116.117 162.343 116.566 162.695 116.907C163.059 117.237 163.553 117.402 164.178 117.402C164.758 117.402 165.201 117.243 165.508 116.924C165.826 116.595 165.985 116.174 165.985 115.663C165.985 114.981 165.769 114.492 165.337 114.197C164.906 113.901 164.235 113.754 163.326 113.754H162.831V111.793H163.326C164.94 111.793 165.747 111.253 165.747 110.174C165.747 109.685 165.599 109.304 165.303 109.031C165.019 108.759 164.604 108.622 164.059 108.622C163.525 108.622 163.11 108.77 162.814 109.065C162.53 109.35 162.365 109.713 162.32 110.156H159.984ZM170.906 116.618C171.997 115.708 172.866 114.953 173.514 114.35C174.162 113.736 174.702 113.1 175.134 112.441C175.565 111.782 175.781 111.134 175.781 110.497C175.781 109.918 175.645 109.463 175.372 109.134C175.099 108.804 174.679 108.639 174.111 108.639C173.542 108.639 173.105 108.832 172.798 109.219C172.491 109.594 172.332 110.111 172.321 110.77H170.002C170.048 109.406 170.451 108.372 171.213 107.668C171.985 106.963 172.963 106.611 174.145 106.611C175.44 106.611 176.435 106.957 177.128 107.65C177.821 108.332 178.168 109.236 178.168 110.361C178.168 111.248 177.929 112.094 177.452 112.901C176.975 113.708 176.429 114.413 175.815 115.015C175.202 115.606 174.401 116.322 173.412 117.163H178.441V119.141H170.019V117.368L170.906 116.618Z" fill="white"/>
</g>
<rect x="37" y="77" width="54" height="54.0003" rx="27" fill="#EED2FF"/>
<path d="M64.0078 100.25C63.0153 100.256 62.0652 100.653 61.3634 101.355C60.6616 102.057 60.2644 103.007 60.2578 104C60.2578 106.052 61.9553 107.75 64.0078 107.75C66.0591 107.75 67.7578 106.052 67.7578 104C67.7578 101.948 66.0591 100.25 64.0078 100.25Z" fill="#525252"/>
<path d="M64.0206 95.2495C54.4794 95.2495 51.6119 103.521 51.5856 103.605L51.4531 104L51.5844 104.395C51.6119 104.478 54.4794 112.75 64.0206 112.75C73.5619 112.75 76.4294 104.478 76.4556 104.395L76.5881 104L76.4569 103.605C76.4294 103.521 73.5619 95.2495 64.0206 95.2495ZM64.0206 110.25C57.3319 110.25 54.7406 105.442 54.1131 104C54.7431 102.552 57.3356 97.7495 64.0206 97.7495C70.7094 97.7495 73.3006 102.557 73.9281 104C73.2981 105.447 70.7056 110.25 64.0206 110.25Z" fill="#525252"/>
<rect x="189" y="12" width="46" height="46.0002" rx="23" fill="#EED2FF"/>
<g clip-path="url(#clip2_3979_7902)">
<path d="M224.737 23.3185C224.795 23.1734 224.809 23.0144 224.778 22.8613C224.746 22.7081 224.671 22.5676 224.56 22.4571C224.449 22.3465 224.309 22.2708 224.156 22.2394C224.003 22.208 223.844 22.2222 223.698 22.2803L200.464 31.5746C200.259 31.6565 200.081 31.7933 199.949 31.9699C199.817 32.1465 199.737 32.356 199.716 32.5755C199.696 32.7949 199.736 33.0158 199.833 33.2137C199.93 33.4116 200.08 33.579 200.266 33.6973L208.244 38.7733L210.689 42.6163C210.805 42.7907 210.984 42.9128 211.188 42.9564C211.393 43 211.607 42.9616 211.783 42.8494C211.96 42.7373 212.085 42.5604 212.133 42.3567C212.18 42.153 212.146 41.9388 212.037 41.7602L209.839 38.3069L221.809 26.3373L218.782 33.905C218.741 34.0028 218.719 34.1079 218.719 34.2142C218.718 34.3204 218.739 34.4257 218.78 34.5239C218.82 34.622 218.88 34.711 218.956 34.7857C219.032 34.8604 219.121 34.9192 219.22 34.9587C219.319 34.9983 219.424 35.0177 219.53 35.016C219.637 35.0142 219.742 34.9912 219.839 34.9484C219.936 34.9056 220.024 34.8439 220.097 34.7667C220.17 34.6896 220.227 34.5986 220.264 34.4992L224.737 23.3185ZM220.68 25.2081L208.71 37.1777L201.78 32.7678L220.68 25.2081Z" fill="#525252"/>
<path d="M224.802 42.1889C224.802 43.6716 224.213 45.0935 223.164 46.1419C222.116 47.1903 220.694 47.7793 219.211 47.7793C217.729 47.7793 216.307 47.1903 215.258 46.1419C214.21 45.0935 213.621 43.6716 213.621 42.1889C213.621 40.7063 214.21 39.2844 215.258 38.236C216.307 37.1876 217.729 36.5986 219.211 36.5986C220.694 36.5986 222.116 37.1876 223.164 38.236C224.213 39.2844 224.802 40.7063 224.802 42.1889ZM221.618 39.5072C221.528 39.4533 221.429 39.4176 221.325 39.4022C221.221 39.3868 221.115 39.3921 221.014 39.4176C220.912 39.4431 220.816 39.4884 220.732 39.5509C220.648 39.6134 220.577 39.6919 220.523 39.7819L218.654 42.8965L217.78 42.0228C217.63 41.8729 217.427 41.7886 217.215 41.7886C217.003 41.7886 216.799 41.8729 216.649 42.0228C216.499 42.1728 216.415 42.3762 216.415 42.5882C216.415 42.8003 216.499 43.0037 216.649 43.1537L217.886 44.3883C218.014 44.5173 218.171 44.6151 218.343 44.6745C218.515 44.7339 218.699 44.7533 218.879 44.7311C219.06 44.7089 219.234 44.6458 219.386 44.5466C219.539 44.4473 219.667 44.3145 219.761 44.1583L221.893 40.6029C221.947 40.5129 221.983 40.4132 221.998 40.3094C222.013 40.2057 222.008 40.0999 221.983 39.9981C221.957 39.8964 221.912 39.8007 221.849 39.7164C221.787 39.6322 221.708 39.5611 221.618 39.5072Z" fill="#525252"/>
</g>
<defs>
<filter id="filter0_d_3979_7902" x="0.538455" y="0.769228" width="132.923" height="69.678" filterUnits="userSpaceOnUse" color-interpolation-filters="sRGB">
<feFlood flood-opacity="0" result="BackgroundImageFix"/>
<feColorMatrix in="SourceAlpha" type="matrix" values="0 0 0 0 0 0 0 0 0 0 0 0 0 0 0 0 0 0 127 0" result="hardAlpha"/>
<feOffset dy="1.23077"/>
<feGaussianBlur stdDeviation="1.23077"/>
<feComposite in2="hardAlpha" operator="out"/>
<feColorMatrix type="matrix" values="0 0 0 0 0 0 0 0 0 0 0 0 0 0 0 0 0 0 0.05 0"/>
<feBlend mode="normal" in2="BackgroundImageFix" result="effect1_dropShadow_3979_7902"/>
<feBlend mode="normal" in="SourceGraphic" in2="effect1_dropShadow_3979_7902" result="shape"/>
</filter>
<filter id="filter1_d_3979_7902" x="142.899" y="68.4494" width="141.605" height="74.8444" filterUnits="userSpaceOnUse" color-interpolation-filters="sRGB">
<feFlood flood-opacity="0" result="BackgroundImageFix"/>
<feColorMatrix in="SourceAlpha" type="matrix" values="0 0 0 0 0 0 0 0 0 0 0 0 0 0 0 0 0 0 127 0" result="hardAlpha"/>
<feOffset dy="1.55058"/>
<feGaussianBlur stdDeviation="1.55058"/>
<feComposite in2="hardAlpha" operator="out"/>
<feColorMatrix type="matrix" values="0 0 0 0 0 0 0 0 0 0 0 0 0 0 0 0 0 0 0.05 0"/>
<feBlend mode="normal" in2="BackgroundImageFix" result="effect1_dropShadow_3979_7902"/>
<feBlend mode="normal" in="SourceGraphic" in2="effect1_dropShadow_3979_7902" result="shape"/>
</filter>
<clipPath id="clip0_3979_7902">
<rect width="10.7438" height="10.7437" fill="white" transform="translate(107.922 26.2075) rotate(-90)"/>
</clipPath>
<clipPath id="clip1_3979_7902">
<rect width="11.3651" height="11.3651" fill="white" transform="translate(256.988 95.7314) rotate(-90)"/>
</clipPath>
<clipPath id="clip2_3979_7902">
<rect width="25.5556" height="25.5557" fill="white" transform="translate(199.223 22.2222)"/>
</clipPath>
</defs>
</svg>
