<svg width="285" height="142" viewBox="0 0 285 142" fill="none" xmlns="http://www.w3.org/2000/svg">
<g clip-path="url(#clip0_3972_6855)">
<path d="M259.043 2.8623C259.308 2.59701 259.622 2.38653 259.968 2.24292C260.314 2.09931 260.685 2.02539 261.06 2.02539C261.435 2.02539 261.806 2.09931 262.152 2.24292C262.498 2.38653 262.812 2.59701 263.077 2.8623L280.169 19.9544C280.434 20.219 280.645 20.5334 280.788 20.8795C280.932 21.2256 281.006 21.5966 281.006 21.9713C281.006 22.346 280.932 22.717 280.788 23.0631C280.645 23.4092 280.434 23.7235 280.169 23.9882L223.195 80.9619C222.922 81.2334 222.596 81.4466 222.238 81.5886L193.751 92.9833C193.233 93.1906 192.666 93.2413 192.12 93.1292C191.574 93.0172 191.072 92.7473 190.678 92.353C190.284 91.9587 190.014 91.4573 189.902 90.9111C189.79 90.3649 189.841 89.7977 190.048 89.2801L201.442 60.7932C201.585 60.435 201.798 60.1094 202.069 59.836L259.043 2.8623V2.8623ZM253.693 16.2739L266.757 29.338L274.124 21.9713L261.06 8.90721L253.693 16.2739ZM262.729 33.366L249.665 20.302L212.632 57.3349V59.0042H215.481C216.236 59.0042 216.961 59.3043 217.495 59.8386C218.029 60.3728 218.33 61.0974 218.33 61.8529V64.7016H221.178C221.934 64.7016 222.658 65.0017 223.193 65.5359C223.727 66.0702 224.027 66.7948 224.027 67.5503V70.399H225.696L262.729 33.366V33.366ZM207.117 62.8499L206.513 63.4539L197.808 85.2235L219.577 76.5179L220.181 75.914C219.638 75.711 219.169 75.3469 218.838 74.8704C218.507 74.3939 218.33 73.8278 218.33 73.2476V70.399H215.481C214.725 70.399 214.001 70.0988 213.466 69.5646C212.932 69.0304 212.632 68.3058 212.632 67.5503V64.7016H209.783C209.203 64.7012 208.637 64.5236 208.161 64.1927C207.684 63.8618 207.32 63.3934 207.117 62.8499V62.8499Z" fill="#A78EF0"/>
</g>
<path d="M189.745 93.8483C188.623 96.2575 150.057 120.549 128.241 127.313C107.073 133.875 95.188 131.32 80.4937 133.185C65.7994 135.05 46.5658 111.899 46.8496 91.5599C47.0572 76.6722 52.8265 64.9689 66.3562 58.565C83.2491 50.5692 102.8 57.7053 111.588 74.1997C120.431 90.7954 111.816 106.919 98.9956 120.676C86.1915 134.416 72.2836 138.318 53.5888 136.52C26.9457 133.959 9.49713 116.477 2.72402 90.5823C-2.09044 72.1758 9.74304 42.3722 9.74304 42.3722" stroke="#D7B2ED" stroke-width="2.73474" stroke-dasharray="10.03 10.03"/>
<path d="M70.2695 41.6807C73.4989 41.0555 74.4252 39.9723 75.1452 37.2662C75.707 40.0432 76.7273 41.0707 79.5597 42.1419C76.5488 42.8388 75.4924 43.8171 74.684 46.5564C73.9521 43.46 73.0094 42.3644 70.2695 41.6807Z" fill="#7452DA"/>
<path d="M166.227 50.9905C169.456 50.3653 170.382 49.2821 171.102 46.576C171.664 49.353 172.684 50.3806 175.517 51.4517C172.506 52.1486 171.449 53.1269 170.641 55.8662C169.909 52.7698 168.966 51.6742 166.227 50.9905Z" fill="#7452DA"/>
<path d="M171 130.415C174.229 129.789 175.156 128.706 175.876 126C176.437 128.777 177.458 129.805 180.29 130.876C177.279 131.573 176.223 132.551 175.414 135.29C174.683 132.194 173.74 131.098 171 130.415Z" fill="#7452DA"/>
<defs>
<clipPath id="clip0_3972_6855">
<rect width="91.158" height="91.158" fill="white" transform="translate(189.844 2.03003)"/>
</clipPath>
</defs>
</svg>
