<svg width="285" height="142" viewBox="0 0 285 142" fill="none" xmlns="http://www.w3.org/2000/svg">
<rect x="62" y="3" width="129.304" height="136.808" rx="64.6522" fill="#EDE6FA"/>
<path d="M149.163 108.921C146.037 108.921 143.379 107.827 141.191 105.639C139.002 103.45 137.908 100.793 137.908 97.6662C137.908 97.2285 137.939 96.7745 138.002 96.3043C138.064 95.8366 138.158 95.4151 138.283 95.0399L111.833 79.6577C110.77 80.5957 109.582 81.3298 108.269 81.86C106.956 82.3928 105.58 82.6591 104.142 82.6591C101.016 82.6591 98.358 81.5649 96.1695 79.3763C93.981 77.1878 92.8867 74.5303 92.8867 71.4038C92.8867 68.2774 93.981 65.6199 96.1695 63.4314C98.358 61.2428 101.016 60.1486 104.142 60.1486C105.58 60.1486 106.956 60.4137 108.269 60.9439C109.582 61.4767 110.77 62.212 111.833 63.15L138.283 47.7677C138.158 47.3926 138.064 46.9711 138.002 46.5034C137.939 46.0332 137.908 45.5792 137.908 45.1415C137.908 42.015 139.002 39.3575 141.191 37.169C143.379 34.9805 146.037 33.8862 149.163 33.8862C152.29 33.8862 154.947 34.9805 157.136 37.169C159.324 39.3575 160.418 42.015 160.418 45.1415C160.418 48.268 159.324 50.9255 157.136 53.114C154.947 55.3025 152.29 56.3968 149.163 56.3968C147.725 56.3968 146.349 56.1304 145.036 55.5977C143.723 55.0674 142.535 54.3333 141.472 53.3954L115.022 68.7776C115.147 69.1528 115.241 69.5742 115.303 70.042C115.366 70.5122 115.397 70.9661 115.397 71.4038C115.397 71.8416 115.366 72.2943 115.303 72.762C115.241 73.2322 115.147 73.6549 115.022 74.0301L141.472 89.4123C142.535 88.4744 143.723 87.739 145.036 87.2063C146.349 86.676 147.725 86.4109 149.163 86.4109C152.29 86.4109 154.947 87.5052 157.136 89.6937C159.324 91.8822 160.418 94.5397 160.418 97.6662C160.418 100.793 159.324 103.45 157.136 105.639C154.947 107.827 152.29 108.921 149.163 108.921Z" fill="#7E5BC6"/>
<rect x="170" width="58.2931" height="58.2931" rx="29.1466" fill="#EED2FF"/>
<path d="M210.212 11.7578H194.403C192.664 11.7578 191.242 13.1806 191.242 14.9195V19.662H194.403V16.5003H210.212V41.7935H194.403V38.6319H191.242V43.3744C191.242 45.1133 192.664 46.536 194.403 46.536H210.212C211.951 46.536 213.373 45.1133 213.373 43.3744V14.9195C213.373 13.1806 211.951 11.7578 210.212 11.7578ZM191.258 31.4707L187.226 27.4396L185.219 29.4473L191.242 35.4702L202.608 24.1041L200.6 22.0964L191.258 31.4707V31.4707Z" fill="#7E5BC6"/>
<rect x="175" y="61" width="38.6848" height="38.6848" rx="19.3424" fill="#EED2FF"/>
<g clip-path="url(#clip0_3979_7960)">
<path d="M189.102 90.8345H199.592" stroke="#7E5BC6" stroke-width="2.36407" stroke-linecap="round" stroke-linejoin="round"/>
<path d="M183.855 85.5888V71.9507C183.855 71.3942 184.077 70.8606 184.47 70.4671C184.863 70.0736 185.397 69.8525 185.954 69.8525H202.739C203.295 69.8525 203.829 70.0736 204.223 70.4671C204.616 70.8606 204.837 71.3942 204.837 71.9507V85.5888C204.837 86.1452 204.616 86.6789 204.223 87.0724C203.829 87.4659 203.295 87.6869 202.739 87.6869H185.954C185.397 87.6869 184.863 87.4659 184.47 87.0724C184.077 86.6789 183.855 86.1452 183.855 85.5888Z" stroke="#7E5BC6" stroke-width="2.36407"/>
<path d="M191.203 78.7695L193.301 80.8677L197.498 76.6714" stroke="#7E5BC6" stroke-width="2.36407" stroke-linecap="round" stroke-linejoin="round"/>
</g>
<rect x="159" y="102" width="38.4342" height="38.4342" rx="19.2171" fill="#EED2FF"/>
<g clip-path="url(#clip1_3979_7960)">
<path d="M183.964 110.613H171.592C171.006 110.613 170.444 110.846 170.03 111.26C169.616 111.674 169.383 112.236 169.383 112.822V129.612C169.383 129.903 169.44 130.19 169.551 130.458C169.662 130.726 169.825 130.969 170.03 131.175C170.235 131.38 170.479 131.542 170.747 131.653C171.015 131.765 171.302 131.822 171.592 131.822H183.964C184.254 131.822 184.541 131.765 184.809 131.653C185.077 131.542 185.321 131.38 185.526 131.175C185.731 130.969 185.894 130.726 186.005 130.458C186.116 130.19 186.173 129.903 186.173 129.612V112.822C186.173 112.236 185.94 111.674 185.526 111.26C185.112 110.846 184.55 110.613 183.964 110.613V110.613ZM177.778 130.938C177.045 130.938 176.452 130.346 176.452 129.612C176.452 128.879 177.045 128.287 177.778 128.287C178.511 128.287 179.104 128.879 179.104 129.612C179.104 130.346 178.511 130.938 177.778 130.938ZM184.406 127.403H171.15V113.264H184.406V127.403Z" fill="#7E5BC6"/>
</g>
<defs>
<clipPath id="clip0_3979_7960">
<rect width="25.178" height="25.178" fill="white" transform="translate(181.754 67.7534)"/>
</clipPath>
<clipPath id="clip1_3979_7960">
<rect width="21.2089" height="21.2089" fill="white" transform="translate(167.613 110.613)"/>
</clipPath>
</defs>
</svg>
