<svg width="285" height="142" viewBox="0 0 285 142" fill="none" xmlns="http://www.w3.org/2000/svg">
<path d="M190.656 113.487L188.28 111.218L187.503 114.41L190.656 113.487ZM165.043 107.547C165.196 107.584 165.35 107.49 165.387 107.338C165.424 107.185 165.331 107.031 165.178 106.994L165.043 107.547ZM167.399 107.534C167.247 107.497 167.093 107.591 167.056 107.744C167.018 107.896 167.112 108.05 167.265 108.087L167.399 107.534ZM169.486 108.628C169.639 108.665 169.793 108.571 169.83 108.419C169.867 108.266 169.773 108.112 169.621 108.075L169.486 108.628ZM171.842 108.616C171.689 108.578 171.535 108.672 171.498 108.825C171.461 108.977 171.555 109.131 171.707 109.168L171.842 108.616ZM173.929 109.709C174.081 109.746 174.235 109.653 174.272 109.5C174.309 109.347 174.216 109.193 174.063 109.156L173.929 109.709ZM176.284 109.697C176.132 109.66 175.978 109.753 175.941 109.906C175.904 110.059 175.997 110.213 176.15 110.25L176.284 109.697ZM178.371 110.79C178.524 110.827 178.678 110.734 178.715 110.581C178.752 110.428 178.658 110.275 178.506 110.237L178.371 110.79ZM180.727 110.778C180.574 110.741 180.42 110.834 180.383 110.987C180.346 111.14 180.44 111.294 180.592 111.331L180.727 110.778ZM182.814 111.871C182.966 111.909 183.12 111.815 183.157 111.662C183.195 111.51 183.101 111.356 182.948 111.319L182.814 111.871ZM185.17 111.859C185.017 111.822 184.863 111.916 184.826 112.068C184.789 112.221 184.882 112.375 185.035 112.412L185.17 111.859ZM187.256 112.953C187.409 112.99 187.563 112.896 187.6 112.743C187.637 112.591 187.544 112.437 187.391 112.4L187.256 112.953ZM189.612 112.94C189.46 112.903 189.306 112.997 189.268 113.149C189.231 113.302 189.325 113.456 189.478 113.493L189.612 112.94ZM163.933 107.276L165.043 107.547L165.178 106.994L164.067 106.724L163.933 107.276ZM167.265 108.087L169.486 108.628L169.621 108.075L167.399 107.534L167.265 108.087ZM171.707 109.168L173.929 109.709L174.063 109.156L171.842 108.616L171.707 109.168ZM176.15 110.25L178.371 110.79L178.506 110.237L176.284 109.697L176.15 110.25ZM180.592 111.331L182.814 111.871L182.948 111.319L180.727 110.778L180.592 111.331ZM185.035 112.412L187.256 112.953L187.391 112.4L185.17 111.859L185.035 112.412Z" fill="#7E5BC6"/>
<path d="M200 83L196.744 82.5648L197.995 85.6024L200 83ZM167.307 96.7745C167.452 96.7146 167.522 96.5483 167.462 96.4031C167.402 96.2578 167.236 96.1885 167.09 96.2484L167.307 96.7745ZM169.207 95.3767C169.061 95.4365 168.992 95.6028 169.052 95.7481C169.112 95.8934 169.278 95.9626 169.423 95.9028L169.207 95.3767ZM171.54 95.0311C171.685 94.9712 171.754 94.8049 171.694 94.6596C171.634 94.5144 171.468 94.4451 171.323 94.5049L171.54 95.0311ZM173.439 93.6332C173.294 93.6931 173.224 93.8594 173.284 94.0047C173.344 94.1499 173.51 94.2192 173.656 94.1594L173.439 93.6332ZM175.772 93.2877C175.917 93.2278 175.986 93.0615 175.927 92.9162C175.867 92.771 175.7 92.7017 175.555 92.7615L175.772 93.2877ZM177.671 91.8898C177.526 91.9497 177.457 92.116 177.517 92.2613C177.577 92.4065 177.743 92.4758 177.888 92.416L177.671 91.8898ZM180.004 91.5442C180.15 91.4844 180.219 91.3181 180.159 91.1728C180.099 91.0275 179.933 90.9583 179.788 91.0181L180.004 91.5442ZM181.904 90.1464C181.759 90.2063 181.689 90.3726 181.749 90.5178C181.809 90.6631 181.975 90.7324 182.121 90.6725L181.904 90.1464ZM184.237 89.8008C184.382 89.741 184.451 89.5747 184.391 89.4294C184.332 89.2841 184.165 89.2149 184.02 89.2747L184.237 89.8008ZM186.136 88.403C185.991 88.4629 185.922 88.6292 185.982 88.7744C186.041 88.9197 186.208 88.989 186.353 88.9291L186.136 88.403ZM188.469 88.0574C188.614 87.9976 188.684 87.8313 188.624 87.686C188.564 87.5407 188.398 87.4715 188.252 87.5313L188.469 88.0574ZM190.369 86.6596C190.223 86.7195 190.154 86.8857 190.214 87.031C190.274 87.1763 190.44 87.2456 190.585 87.1857L190.369 86.6596ZM192.702 86.314C192.847 86.2542 192.916 86.0879 192.856 85.9426C192.796 85.7973 192.63 85.7281 192.485 85.7879L192.702 86.314ZM194.601 84.9162C194.456 84.976 194.387 85.1423 194.446 85.2876C194.506 85.4329 194.673 85.5022 194.818 85.4423L194.601 84.9162ZM196.934 84.5706C197.079 84.5108 197.149 84.3445 197.089 84.1992C197.029 84.0539 196.863 83.9847 196.717 84.0445L196.934 84.5706ZM198.834 83.1728C198.688 83.2326 198.619 83.3989 198.679 83.5442C198.739 83.6895 198.905 83.7588 199.05 83.6989L198.834 83.1728ZM166.249 97.2103L167.307 96.7745L167.09 96.2484L166.032 96.6842L166.249 97.2103ZM169.423 95.9028L171.54 95.0311L171.323 94.5049L169.207 95.3767L169.423 95.9028ZM173.656 94.1594L175.772 93.2877L175.555 92.7615L173.439 93.6332L173.656 94.1594ZM177.888 92.416L180.004 91.5442L179.788 91.0181L177.671 91.8898L177.888 92.416ZM182.121 90.6725L184.237 89.8008L184.02 89.2747L181.904 90.1464L182.121 90.6725ZM186.353 88.9291L188.469 88.0574L188.252 87.5313L186.136 88.403L186.353 88.9291ZM190.585 87.1857L192.702 86.314L192.485 85.7879L190.369 86.6596L190.585 87.1857ZM194.818 85.4423L196.934 84.5706L196.717 84.0445L194.601 84.9162L194.818 85.4423Z" fill="#7E5BC6"/>
<path d="M191 53L187.922 54.1486L190.456 56.2398L191 53ZM165.402 84.4612C165.502 84.34 165.485 84.1607 165.364 84.0607C165.243 83.9607 165.064 83.9778 164.964 84.099L165.402 84.4612ZM166.439 82.3116C166.339 82.4328 166.356 82.6121 166.477 82.7121C166.598 82.8121 166.778 82.795 166.878 82.6738L166.439 82.3116ZM168.353 80.8863C168.453 80.7652 168.436 80.5858 168.315 80.4858C168.193 80.3858 168.014 80.403 167.914 80.5241L168.353 80.8863ZM169.389 78.7367C169.289 78.8579 169.306 79.0372 169.428 79.1372C169.549 79.2372 169.728 79.2201 169.828 79.0989L169.389 78.7367ZM171.303 77.3115C171.403 77.1903 171.386 77.011 171.265 76.911C171.144 76.8109 170.965 76.8281 170.865 76.9493L171.303 77.3115ZM172.34 75.1618C172.24 75.283 172.257 75.4623 172.378 75.5624C172.499 75.6624 172.679 75.6452 172.779 75.524L172.34 75.1618ZM174.254 73.7366C174.354 73.6154 174.337 73.4361 174.216 73.3361C174.094 73.2361 173.915 73.2532 173.815 73.3744L174.254 73.7366ZM175.29 71.587C175.19 71.7082 175.207 71.8875 175.329 71.9875C175.45 72.0875 175.629 72.0703 175.729 71.9492L175.29 71.587ZM177.204 70.1617C177.304 70.0406 177.287 69.8612 177.166 69.7612C177.045 69.6612 176.866 69.6784 176.766 69.7995L177.204 70.1617ZM178.241 68.0121C178.141 68.1333 178.158 68.3126 178.279 68.4126C178.4 68.5126 178.58 68.4955 178.68 68.3743L178.241 68.0121ZM180.155 66.5869C180.255 66.4657 180.238 66.2864 180.117 66.1863C179.995 66.0863 179.816 66.1035 179.716 66.2247L180.155 66.5869ZM181.191 64.4372C181.091 64.5584 181.109 64.7377 181.23 64.8378C181.351 64.9378 181.53 64.9206 181.63 64.7994L181.191 64.4372ZM183.105 63.012C183.206 62.8908 183.188 62.7115 183.067 62.6115C182.946 62.5115 182.767 62.5286 182.667 62.6498L183.105 63.012ZM184.142 60.8624C184.042 60.9835 184.059 61.1629 184.18 61.2629C184.301 61.3629 184.481 61.3457 184.581 61.2246L184.142 60.8624ZM186.056 59.4371C186.156 59.3159 186.139 59.1366 186.018 59.0366C185.896 58.9366 185.717 58.9537 185.617 59.0749L186.056 59.4371ZM187.092 57.2875C186.992 57.4087 187.01 57.588 187.131 57.688C187.252 57.788 187.431 57.7709 187.531 57.6497L187.092 57.2875ZM189.007 55.8623C189.107 55.7411 189.089 55.5618 188.968 55.4617C188.847 55.3617 188.668 55.3789 188.568 55.5001L189.007 55.8623ZM190.043 53.7126C189.943 53.8338 189.96 54.0131 190.081 54.1131C190.202 54.2132 190.382 54.196 190.482 54.0748L190.043 53.7126ZM164.665 85.3549L165.402 84.4612L164.964 84.099L164.226 84.9927L164.665 85.3549ZM166.878 82.6738L168.353 80.8863L167.914 80.5241L166.439 82.3116L166.878 82.6738ZM169.828 79.0989L171.303 77.3115L170.865 76.9493L169.389 78.7367L169.828 79.0989ZM172.779 75.524L174.254 73.7366L173.815 73.3744L172.34 75.1618L172.779 75.524ZM175.729 71.9492L177.204 70.1617L176.766 69.7995L175.29 71.587L175.729 71.9492ZM178.68 68.3743L180.155 66.5869L179.716 66.2247L178.241 68.0121L178.68 68.3743ZM181.63 64.7994L183.105 63.012L182.667 62.6498L181.191 64.4372L181.63 64.7994ZM184.581 61.2246L186.056 59.4371L185.617 59.0749L184.142 60.8624L184.581 61.2246ZM187.531 57.6497L189.007 55.8623L188.568 55.5001L187.092 57.2875L187.531 57.6497Z" fill="#7E5BC6"/>
<rect x="179" y="19.917" width="42.2061" height="42.2061" rx="21.103" transform="rotate(-23.6292 179 19.917)" fill="#EED2FF"/>
<g clip-path="url(#clip0_4134_7782)">
<path d="M209.082 16.0473L198.596 20.6349C197.443 21.1395 196.912 22.4962 197.417 23.6496L198.793 26.7954L200.89 25.8779L199.973 23.7807L210.459 19.1931L217.799 35.9708L207.313 40.5584L206.395 38.4612L204.298 39.3787L205.674 42.5246C206.179 43.678 207.536 44.2089 208.689 43.7042L219.175 39.1166C220.329 38.612 220.859 37.2554 220.355 36.1019L212.097 17.227C211.592 16.0735 210.236 15.5426 209.082 16.0473ZM202.23 34.624L198.387 33.1198L197.637 35.0342L203.381 37.2815L207.622 26.4435L205.707 25.6944L202.23 34.624V34.624Z" fill="#7E5BC6"/>
</g>
<rect x="199.945" y="70.8145" width="28.009" height="28.009" rx="14.0045" transform="rotate(-23.6292 199.945 70.8145)" fill="#EED2FF"/>
<g clip-path="url(#clip1_4134_7782)">
<path d="M217.957 86.5127L224.916 83.4682" stroke="#7E5BC6" stroke-width="1.71166" stroke-linecap="round" stroke-linejoin="round"/>
<path d="M212.953 84.5555L208.996 75.509C208.834 75.1398 208.826 74.7217 208.973 74.3465C209.12 73.9713 209.409 73.6698 209.778 73.5083L220.913 68.6371C221.282 68.4757 221.7 68.4674 222.075 68.6142C222.45 68.761 222.752 69.0509 222.913 69.42L226.871 78.4665C227.033 78.8356 227.041 79.2538 226.894 79.629C226.747 80.0042 226.457 80.3057 226.088 80.4672L214.954 85.3383C214.585 85.4998 214.167 85.5081 213.792 85.3612C213.416 85.2144 213.115 84.9246 212.953 84.5555Z" stroke="#7E5BC6" stroke-width="1.71166"/>
<path d="M215.847 77.8996L217.848 78.6825L219.414 74.6811" stroke="#7E5BC6" stroke-width="1.71166" stroke-linecap="round" stroke-linejoin="round"/>
</g>
<rect x="187.988" y="113.142" width="27.8276" height="27.8276" rx="13.9138" transform="rotate(-23.6292 187.988 113.142)" fill="#EED2FF"/>
<g clip-path="url(#clip2_4134_7782)">
<path d="M207.047 111.61L198.84 115.201C198.452 115.371 198.147 115.688 197.992 116.083C197.837 116.478 197.846 116.919 198.016 117.307L202.889 128.445C202.973 128.637 203.094 128.811 203.246 128.957C203.397 129.102 203.576 129.217 203.771 129.293C203.967 129.37 204.176 129.407 204.386 129.403C204.596 129.399 204.803 129.353 204.995 129.269L213.202 125.679C213.394 125.595 213.568 125.473 213.714 125.322C213.86 125.17 213.974 124.992 214.05 124.796C214.127 124.601 214.164 124.392 214.16 124.182C214.156 123.972 214.11 123.765 214.026 123.572L209.154 112.435C208.984 112.046 208.666 111.741 208.271 111.586C207.876 111.432 207.436 111.44 207.047 111.61V111.61ZM208.842 126.888C208.356 127.101 207.791 126.88 207.578 126.393C207.365 125.907 207.586 125.342 208.073 125.129C208.559 124.916 209.124 125.137 209.337 125.624C209.55 126.11 209.329 126.675 208.842 126.888ZM212.213 122.62L203.42 126.466L199.317 117.087L208.109 113.241L212.213 122.62Z" fill="#7E5BC6"/>
</g>
<g filter="url(#filter0_d_4134_7782)">
<path d="M56.1669 100.325C53.3432 100.002 51.0401 98.7192 49.2578 96.4763C47.4755 94.2335 46.7474 91.7021 47.0735 88.8822L54.1221 27.2731C54.4452 24.4493 55.7281 22.1463 57.9709 20.364C60.2138 18.5817 62.7451 17.8536 65.5651 18.1797L92.134 21.2194C93.5031 21.376 94.7795 21.7821 95.9632 22.4377C97.1469 23.0932 98.1538 23.9453 98.984 24.9938L104.749 30.6666L146.536 37.846C149.36 38.1691 151.663 39.452 153.445 41.6948C155.227 43.9377 155.955 46.469 155.629 49.289L149.755 100.63C149.432 103.454 148.149 105.757 145.907 107.539C143.664 109.321 141.132 110.049 138.312 109.723L56.1669 100.325Z" fill="#B394F5"/>
<rect x="57.832" y="26.813" width="71.6948" height="65.8564" transform="rotate(6.94622 57.832 26.813)" fill="white"/>
<path d="M153.364 102.253L153.365 102.252L160.928 40.7037C161.248 38.0999 160.601 35.777 158.97 33.6887C157.339 31.6004 155.243 30.4125 152.643 30.0962L152.642 30.0961L126.1 26.8343C124.836 26.679 123.608 26.768 122.409 27.0993C121.208 27.4312 120.127 27.9753 119.161 28.733L119.16 28.7339L110.953 35.1446L110.686 35.353L110.35 35.3117L69.3177 30.2693C66.7138 29.9493 64.3909 30.5962 62.3026 32.2274C60.2143 33.8586 59.0265 35.954 58.7101 38.5542L58.71 38.5552L52.407 89.8452C52.087 92.4491 52.7339 94.7719 54.3652 96.8602C55.9964 98.9485 58.0917 100.136 60.6919 100.453L60.6929 100.453L142.757 110.538C145.361 110.858 147.684 110.211 149.772 108.579C151.86 106.948 153.048 104.853 153.364 102.253Z" fill="#EDE6FA" stroke="#B394F5" stroke-width="1.63473"/>
</g>
<g filter="url(#filter1_d_4134_7782)">
<rect x="126" y="74" width="48" height="50.6628" rx="22.3754" fill="#EED2FF"/>
<path d="M157.986 112.645C156.877 112.645 155.934 112.257 155.157 111.48C154.381 110.704 153.992 109.761 153.992 108.651C153.992 108.496 154.003 108.335 154.025 108.168C154.048 108.002 154.081 107.852 154.125 107.719L144.739 102.26C144.362 102.593 143.94 102.854 143.474 103.042C143.008 103.231 142.52 103.326 142.01 103.326C140.9 103.326 139.957 102.937 139.181 102.161C138.404 101.384 138.016 100.441 138.016 99.3314C138.016 98.2219 138.404 97.2788 139.181 96.5022C139.957 95.7256 140.9 95.3372 142.01 95.3372C142.52 95.3372 143.008 95.4313 143.474 95.6195C143.94 95.8086 144.362 96.0695 144.739 96.4023L154.125 90.9437C154.081 90.8105 154.048 90.661 154.025 90.495C154.003 90.3281 153.992 90.167 153.992 90.0117C153.992 88.9022 154.381 87.9592 155.157 87.1825C155.934 86.4059 156.877 86.0176 157.986 86.0176C159.096 86.0176 160.039 86.4059 160.816 87.1825C161.592 87.9592 161.98 88.9022 161.98 90.0117C161.98 91.1212 161.592 92.0643 160.816 92.8409C160.039 93.6175 159.096 94.0059 157.986 94.0059C157.476 94.0059 156.988 93.9113 156.522 93.7223C156.056 93.5341 155.634 93.2736 155.257 92.9408L145.871 98.3994C145.915 98.5326 145.948 98.6821 145.971 98.8481C145.993 99.015 146.004 99.1761 146.004 99.3314C146.004 99.4867 145.993 99.6474 145.971 99.8133C145.948 99.9802 145.915 100.13 145.871 100.263L155.257 105.722C155.634 105.389 156.056 105.128 156.522 104.939C156.988 104.751 157.476 104.657 157.986 104.657C159.096 104.657 160.039 105.045 160.816 105.822C161.592 106.599 161.98 107.542 161.98 108.651C161.98 109.761 161.592 110.704 160.816 111.48C160.039 112.257 159.096 112.645 157.986 112.645Z" fill="#7E5BC6"/>
</g>
<defs>
<filter id="filter0_d_4134_7782" x="42.9961" y="15.9395" width="124.004" height="102.67" filterUnits="userSpaceOnUse" color-interpolation-filters="sRGB">
<feFlood flood-opacity="0" result="BackgroundImageFix"/>
<feColorMatrix in="SourceAlpha" type="matrix" values="0 0 0 0 0 0 0 0 0 0 0 0 0 0 0 0 0 0 127 0" result="hardAlpha"/>
<feOffset dy="2"/>
<feGaussianBlur stdDeviation="2"/>
<feComposite in2="hardAlpha" operator="out"/>
<feColorMatrix type="matrix" values="0 0 0 0 0 0 0 0 0 0 0 0 0 0 0 0 0 0 0.05 0"/>
<feBlend mode="normal" in2="BackgroundImageFix" result="effect1_dropShadow_4134_7782"/>
<feBlend mode="normal" in="SourceGraphic" in2="effect1_dropShadow_4134_7782" result="shape"/>
</filter>
<filter id="filter1_d_4134_7782" x="124.135" y="73.0675" width="51.7301" height="54.3931" filterUnits="userSpaceOnUse" color-interpolation-filters="sRGB">
<feFlood flood-opacity="0" result="BackgroundImageFix"/>
<feColorMatrix in="SourceAlpha" type="matrix" values="0 0 0 0 0 0 0 0 0 0 0 0 0 0 0 0 0 0 127 0" result="hardAlpha"/>
<feOffset dy="0.932513"/>
<feGaussianBlur stdDeviation="0.932513"/>
<feComposite in2="hardAlpha" operator="out"/>
<feColorMatrix type="matrix" values="0 0 0 0 0 0 0 0 0 0 0 0 0 0 0 0 0 0 0.1 0"/>
<feBlend mode="normal" in2="BackgroundImageFix" result="effect1_dropShadow_4134_7782"/>
<feBlend mode="normal" in="SourceGraphic" in2="effect1_dropShadow_4134_7782" result="shape"/>
</filter>
<clipPath id="clip0_4134_7782">
<rect width="27.4697" height="27.4697" fill="white" transform="translate(188.703 23.7144) rotate(-23.6292)"/>
</clipPath>
<clipPath id="clip1_4134_7782">
<rect width="18.2296" height="18.2296" fill="white" transform="translate(206.387 73.3345) rotate(-23.6292)"/>
</clipPath>
<clipPath id="clip2_4134_7782">
<rect width="15.3559" height="15.3559" fill="white" transform="translate(196.199 116.355) rotate(-23.6292)"/>
</clipPath>
</defs>
</svg>
