<svg width="295" height="147" viewBox="0 0 295 147" fill="none" xmlns="http://www.w3.org/2000/svg">
<g filter="url(#filter0_dd_3979_7751)">
<rect x="61.0586" y="6" width="226.547" height="130.287" rx="3.86604" fill="url(#paint0_radial_3979_7751)"/>
<rect x="61.0586" y="6" width="226.547" height="130.287" rx="3.86604" fill="white"/>
<path d="M87.3192 117.42V121.421H86.9133V118.226L85.4867 121.421H85.191L83.7644 118.238V121.421H83.3585V117.42H83.7876L85.3359 120.888L86.8843 117.42H87.3192ZM89.6261 121.468C89.3284 121.468 89.0597 121.402 88.82 121.271C88.5842 121.135 88.3967 120.946 88.2575 120.702C88.1222 120.455 88.0545 120.167 88.0545 119.838C88.0545 119.51 88.1241 119.224 88.2633 118.98C88.4025 118.733 88.5919 118.543 88.8316 118.412C89.0713 118.276 89.34 118.209 89.6377 118.209C89.9354 118.209 90.204 118.276 90.4437 118.412C90.6873 118.543 90.8767 118.733 91.012 118.98C91.1512 119.224 91.2208 119.51 91.2208 119.838C91.2208 120.163 91.1512 120.449 91.012 120.697C90.8729 120.944 90.6815 121.135 90.4379 121.271C90.1944 121.402 89.9238 121.468 89.6261 121.468ZM89.6261 121.114C89.8348 121.114 90.0281 121.068 90.206 120.975C90.3838 120.878 90.5269 120.735 90.6351 120.546C90.7472 120.352 90.8033 120.117 90.8033 119.838C90.8033 119.56 90.7492 119.326 90.6409 119.137C90.5327 118.943 90.3896 118.8 90.2118 118.707C90.0339 118.611 89.8406 118.562 89.6319 118.562C89.4231 118.562 89.2298 118.611 89.052 118.707C88.8741 118.8 88.7311 118.943 88.6228 119.137C88.5184 119.326 88.4663 119.56 88.4663 119.838C88.4663 120.117 88.5184 120.352 88.6228 120.546C88.7311 120.735 88.8722 120.878 89.0462 120.975C89.224 121.068 89.4173 121.114 89.6261 121.114ZM93.4453 118.197C93.8242 118.197 94.1335 118.315 94.3732 118.551C94.6129 118.783 94.7327 119.121 94.7327 119.566V121.421H94.3326V119.612C94.3326 119.268 94.2456 119.005 94.0716 118.823C93.9015 118.642 93.6676 118.551 93.37 118.551C93.0645 118.551 92.821 118.647 92.6393 118.841C92.4576 119.034 92.3667 119.318 92.3667 119.693V121.421H91.9608V118.255H92.3667V118.794C92.4672 118.601 92.6122 118.454 92.8016 118.354C92.9911 118.249 93.2056 118.197 93.4453 118.197Z" fill="#776181"/>
<path d="M120.035 117.368V117.704H118.91V121.421H118.504V117.704H117.373V117.368H120.035ZM123.419 118.255V121.421H123.013V120.865C122.92 121.062 122.777 121.213 122.584 121.317C122.391 121.421 122.174 121.474 121.934 121.474C121.555 121.474 121.246 121.358 121.006 121.126C120.767 120.89 120.647 120.55 120.647 120.105V118.255H121.047V120.059C121.047 120.403 121.132 120.666 121.302 120.847C121.476 121.029 121.712 121.12 122.01 121.12C122.315 121.12 122.559 121.023 122.74 120.83C122.922 120.637 123.013 120.352 123.013 119.977V118.255H123.419ZM127.21 119.676C127.21 119.815 127.207 119.921 127.199 119.995H124.572C124.583 120.235 124.641 120.439 124.746 120.61C124.85 120.78 124.987 120.909 125.158 120.998C125.328 121.083 125.513 121.126 125.714 121.126C125.977 121.126 126.197 121.062 126.375 120.934C126.557 120.807 126.677 120.635 126.735 120.418H127.164C127.087 120.727 126.92 120.981 126.665 121.178C126.414 121.371 126.097 121.468 125.714 121.468C125.417 121.468 125.15 121.402 124.914 121.271C124.678 121.135 124.493 120.946 124.357 120.702C124.226 120.455 124.16 120.167 124.16 119.838C124.16 119.51 124.226 119.222 124.357 118.974C124.489 118.727 124.672 118.537 124.908 118.406C125.144 118.274 125.413 118.209 125.714 118.209C126.016 118.209 126.279 118.274 126.503 118.406C126.731 118.537 126.905 118.715 127.025 118.939C127.149 119.16 127.21 119.405 127.21 119.676ZM126.799 119.664C126.803 119.428 126.754 119.227 126.654 119.061C126.557 118.895 126.424 118.769 126.254 118.684C126.083 118.599 125.898 118.557 125.697 118.557C125.395 118.557 125.138 118.653 124.926 118.847C124.713 119.04 124.595 119.312 124.572 119.664H126.799ZM129.043 121.468C128.68 121.468 128.382 121.385 128.15 121.218C127.922 121.048 127.795 120.818 127.768 120.528H128.185C128.204 120.706 128.288 120.851 128.434 120.963C128.585 121.072 128.786 121.126 129.038 121.126C129.258 121.126 129.43 121.073 129.554 120.969C129.681 120.865 129.745 120.735 129.745 120.581C129.745 120.472 129.71 120.383 129.641 120.314C129.571 120.244 129.482 120.19 129.374 120.151C129.269 120.109 129.126 120.064 128.945 120.018C128.709 119.956 128.518 119.894 128.371 119.832C128.224 119.771 128.098 119.68 127.994 119.56C127.893 119.436 127.843 119.272 127.843 119.067C127.843 118.912 127.889 118.769 127.982 118.638C128.075 118.506 128.206 118.402 128.376 118.325C128.547 118.247 128.74 118.209 128.956 118.209C129.297 118.209 129.571 118.296 129.78 118.47C129.989 118.64 130.101 118.876 130.116 119.177H129.71C129.699 118.992 129.625 118.843 129.49 118.731C129.358 118.615 129.177 118.557 128.945 118.557C128.74 118.557 128.574 118.605 128.446 118.702C128.318 118.798 128.255 118.918 128.255 119.061C128.255 119.185 128.291 119.287 128.365 119.369C128.442 119.446 128.537 119.508 128.649 119.554C128.761 119.597 128.912 119.645 129.101 119.699C129.329 119.761 129.511 119.821 129.646 119.879C129.782 119.937 129.898 120.022 129.994 120.134C130.091 120.246 130.141 120.395 130.145 120.581C130.145 120.751 130.099 120.903 130.006 121.039C129.913 121.17 129.784 121.274 129.617 121.352C129.451 121.429 129.26 121.468 129.043 121.468Z" fill="#776181"/>
<path d="M156.889 117.368L155.741 121.421H155.289L154.268 117.965L153.224 121.421L152.784 121.427L151.659 117.368H152.094L153.021 120.923L154.059 117.368H154.512L155.521 120.923L156.454 117.368H156.889ZM160.375 119.676C160.375 119.815 160.371 119.921 160.363 119.995H157.736C157.748 120.235 157.806 120.439 157.91 120.61C158.015 120.78 158.152 120.909 158.322 120.998C158.492 121.083 158.678 121.126 158.879 121.126C159.142 121.126 159.362 121.062 159.54 120.934C159.722 120.807 159.842 120.635 159.9 120.418H160.329C160.251 120.727 160.085 120.981 159.83 121.178C159.579 121.371 159.262 121.468 158.879 121.468C158.581 121.468 158.314 121.402 158.079 121.271C157.843 121.135 157.657 120.946 157.522 120.702C157.39 120.455 157.325 120.167 157.325 119.838C157.325 119.51 157.39 119.222 157.522 118.974C157.653 118.727 157.837 118.537 158.073 118.406C158.309 118.274 158.577 118.209 158.879 118.209C159.18 118.209 159.443 118.274 159.668 118.406C159.896 118.537 160.07 118.715 160.189 118.939C160.313 119.16 160.375 119.405 160.375 119.676ZM159.963 119.664C159.967 119.428 159.919 119.227 159.818 119.061C159.722 118.895 159.588 118.769 159.418 118.684C159.248 118.599 159.063 118.557 158.861 118.557C158.56 118.557 158.303 118.653 158.09 118.847C157.878 119.04 157.76 119.312 157.736 119.664H159.963ZM160.932 119.832C160.932 119.508 160.998 119.224 161.129 118.98C161.261 118.733 161.441 118.543 161.669 118.412C161.901 118.276 162.162 118.209 162.452 118.209C162.73 118.209 162.981 118.276 163.205 118.412C163.43 118.547 163.594 118.723 163.698 118.939V117.13H164.104V121.421H163.698V120.714C163.602 120.934 163.443 121.116 163.223 121.259C163.002 121.398 162.743 121.468 162.446 121.468C162.156 121.468 161.895 121.4 161.663 121.265C161.435 121.13 161.255 120.938 161.124 120.691C160.996 120.443 160.932 120.157 160.932 119.832ZM163.698 119.838C163.698 119.583 163.646 119.359 163.542 119.166C163.437 118.972 163.294 118.823 163.113 118.719C162.935 118.615 162.738 118.562 162.521 118.562C162.297 118.562 162.096 118.613 161.918 118.713C161.74 118.814 161.599 118.961 161.495 119.154C161.394 119.343 161.344 119.57 161.344 119.832C161.344 120.091 161.394 120.32 161.495 120.517C161.599 120.71 161.74 120.859 161.918 120.963C162.096 121.064 162.297 121.114 162.521 121.114C162.738 121.114 162.935 121.062 163.113 120.957C163.294 120.853 163.437 120.704 163.542 120.511C163.646 120.318 163.698 120.093 163.698 119.838Z" fill="#776181"/>
<path d="M190.265 117.368V117.704H189.14V121.421H188.734V117.704H187.604V117.368H190.265ZM192.414 118.197C192.654 118.197 192.868 118.247 193.058 118.348C193.251 118.448 193.402 118.603 193.51 118.812C193.622 119.017 193.678 119.268 193.678 119.566V121.421H193.278V119.612C193.278 119.268 193.191 119.005 193.017 118.823C192.847 118.642 192.613 118.551 192.316 118.551C192.01 118.551 191.767 118.647 191.585 118.841C191.403 119.034 191.312 119.318 191.312 119.693V121.421H190.906V117.13H191.312V118.794C191.413 118.605 191.56 118.458 191.753 118.354C191.95 118.249 192.171 118.197 192.414 118.197ZM197.319 118.255V121.421H196.913V120.865C196.82 121.062 196.677 121.213 196.484 121.317C196.291 121.421 196.074 121.474 195.835 121.474C195.456 121.474 195.146 121.358 194.907 121.126C194.667 120.89 194.547 120.55 194.547 120.105V118.255H194.947V120.059C194.947 120.403 195.032 120.666 195.202 120.847C195.376 121.029 195.612 121.12 195.91 121.12C196.215 121.12 196.459 121.023 196.641 120.83C196.822 120.637 196.913 120.352 196.913 119.977V118.255H197.319ZM198.652 118.818C198.741 118.62 198.876 118.468 199.058 118.359C199.243 118.251 199.469 118.197 199.736 118.197V118.62H199.626C199.332 118.62 199.096 118.7 198.919 118.858C198.741 119.017 198.652 119.282 198.652 119.653V121.421H198.246V118.255H198.652V118.818ZM201.437 121.468C201.074 121.468 200.776 121.385 200.544 121.218C200.316 121.048 200.188 120.818 200.161 120.528H200.579C200.598 120.706 200.681 120.851 200.828 120.963C200.979 121.072 201.18 121.126 201.431 121.126C201.652 121.126 201.824 121.073 201.947 120.969C202.075 120.865 202.139 120.735 202.139 120.581C202.139 120.472 202.104 120.383 202.034 120.314C201.965 120.244 201.876 120.19 201.768 120.151C201.663 120.109 201.52 120.064 201.339 120.018C201.103 119.956 200.911 119.894 200.764 119.832C200.618 119.771 200.492 119.68 200.387 119.56C200.287 119.436 200.237 119.272 200.237 119.067C200.237 118.912 200.283 118.769 200.376 118.638C200.469 118.506 200.6 118.402 200.77 118.325C200.94 118.247 201.134 118.209 201.35 118.209C201.69 118.209 201.965 118.296 202.174 118.47C202.382 118.64 202.494 118.876 202.51 119.177H202.104C202.092 118.992 202.019 118.843 201.884 118.731C201.752 118.615 201.57 118.557 201.339 118.557C201.134 118.557 200.967 118.605 200.84 118.702C200.712 118.798 200.648 118.918 200.648 119.061C200.648 119.185 200.685 119.287 200.759 119.369C200.836 119.446 200.931 119.508 201.043 119.554C201.155 119.597 201.306 119.645 201.495 119.699C201.723 119.761 201.905 119.821 202.04 119.879C202.176 119.937 202.292 120.022 202.388 120.134C202.485 120.246 202.535 120.395 202.539 120.581C202.539 120.751 202.493 120.903 202.4 121.039C202.307 121.17 202.177 121.274 202.011 121.352C201.845 121.429 201.654 121.468 201.437 121.468Z" fill="#776181"/>
<path d="M223.582 117.368V117.704H221.796V119.218H223.303V119.554H221.796V121.421H221.39V117.368H223.582ZM224.656 118.818C224.744 118.62 224.88 118.468 225.061 118.359C225.247 118.251 225.473 118.197 225.74 118.197V118.62H225.63C225.336 118.62 225.1 118.7 224.922 118.858C224.744 119.017 224.656 119.282 224.656 119.653V121.421H224.25V118.255H224.656V118.818ZM226.554 117.658C226.472 117.658 226.403 117.629 226.345 117.571C226.287 117.513 226.258 117.441 226.258 117.356C226.258 117.271 226.287 117.202 226.345 117.147C226.403 117.089 226.472 117.06 226.554 117.06C226.635 117.06 226.704 117.089 226.762 117.147C226.82 117.202 226.849 117.271 226.849 117.356C226.849 117.441 226.82 117.513 226.762 117.571C226.704 117.629 226.635 117.658 226.554 117.658ZM226.757 118.255V121.421H226.351V118.255H226.757Z" fill="#776181"/>
<path d="M256.924 121.462C256.657 121.462 256.421 121.416 256.216 121.323C256.015 121.23 255.857 121.101 255.741 120.934C255.625 120.768 255.563 120.582 255.555 120.378H255.984C256.004 120.575 256.091 120.749 256.245 120.899C256.4 121.046 256.626 121.12 256.924 121.12C257.198 121.12 257.415 121.05 257.573 120.911C257.736 120.768 257.817 120.588 257.817 120.372C257.817 120.198 257.772 120.059 257.683 119.954C257.595 119.846 257.484 119.767 257.353 119.716C257.221 119.662 257.04 119.604 256.808 119.542C256.537 119.469 256.323 119.398 256.164 119.328C256.006 119.258 255.87 119.15 255.758 119.003C255.646 118.856 255.59 118.657 255.59 118.406C255.59 118.197 255.644 118.012 255.752 117.849C255.861 117.683 256.013 117.553 256.211 117.461C256.408 117.368 256.634 117.321 256.889 117.321C257.264 117.321 257.566 117.414 257.794 117.6C258.026 117.782 258.159 118.017 258.194 118.307H257.753C257.726 118.141 257.635 117.994 257.481 117.867C257.326 117.735 257.117 117.669 256.854 117.669C256.611 117.669 256.408 117.735 256.245 117.867C256.083 117.994 256.002 118.17 256.002 118.394C256.002 118.564 256.046 118.702 256.135 118.806C256.224 118.91 256.334 118.99 256.466 119.044C256.601 119.098 256.783 119.156 257.011 119.218C257.274 119.291 257.486 119.365 257.649 119.438C257.811 119.508 257.948 119.616 258.06 119.763C258.173 119.91 258.229 120.107 258.229 120.354C258.229 120.544 258.178 120.724 258.078 120.894C257.977 121.064 257.828 121.201 257.631 121.305C257.434 121.41 257.198 121.462 256.924 121.462ZM258.827 119.832C258.827 119.508 258.891 119.224 259.019 118.98C259.15 118.733 259.33 118.543 259.558 118.412C259.79 118.276 260.051 118.209 260.341 118.209C260.643 118.209 260.902 118.278 261.118 118.417C261.338 118.557 261.497 118.734 261.594 118.951V118.255H262V121.421H261.594V120.72C261.493 120.936 261.333 121.116 261.112 121.259C260.896 121.398 260.637 121.468 260.335 121.468C260.049 121.468 259.79 121.4 259.558 121.265C259.33 121.13 259.15 120.938 259.019 120.691C258.891 120.443 258.827 120.157 258.827 119.832ZM261.594 119.838C261.594 119.583 261.541 119.359 261.437 119.166C261.333 118.972 261.19 118.823 261.008 118.719C260.83 118.615 260.633 118.562 260.416 118.562C260.192 118.562 259.991 118.613 259.813 118.713C259.635 118.814 259.494 118.961 259.39 119.154C259.289 119.343 259.239 119.57 259.239 119.832C259.239 120.091 259.289 120.32 259.39 120.517C259.494 120.71 259.635 120.859 259.813 120.963C259.991 121.064 260.192 121.114 260.416 121.114C260.633 121.114 260.83 121.062 261.008 120.957C261.19 120.853 261.333 120.704 261.437 120.511C261.541 120.318 261.594 120.093 261.594 119.838ZM263.454 118.597V120.563C263.454 120.756 263.491 120.89 263.564 120.963C263.638 121.037 263.767 121.073 263.953 121.073H264.324V121.421H263.889C263.603 121.421 263.39 121.356 263.251 121.224C263.112 121.089 263.042 120.869 263.042 120.563V118.597H262.601V118.255H263.042V117.461H263.454V118.255H264.324V118.597H263.454Z" fill="#776181"/>
<path d="M90.582 101.072L124.969 86.5078L158.951 53.334L190.506 101.072L225.297 71.9437L256.851 82.4622" stroke="#CF8CF8" stroke-width="0.809108" stroke-linecap="round"/>
<path d="M126.378 86.1026C126.378 86.8846 125.744 87.5186 124.962 87.5186C124.18 87.5186 123.546 86.8846 123.546 86.1026C123.546 85.3206 124.18 84.6867 124.962 84.6867C125.744 84.6867 126.378 85.3206 126.378 86.1026Z" fill="white" stroke="#F1D9FF" stroke-width="0.404554"/>
<path d="M93.206 100.667C93.206 101.449 92.5721 102.083 91.7901 102.083C91.0081 102.083 90.3742 101.449 90.3742 100.667C90.3742 99.8846 91.0081 99.2506 91.7901 99.2506C92.5721 99.2506 93.206 99.8846 93.206 100.667Z" fill="white" stroke="#F1D9FF" stroke-width="0.404554"/>
<path d="M160.374 53.7384C160.374 54.5204 159.74 55.1543 158.958 55.1543C158.176 55.1543 157.542 54.5204 157.542 53.7384C157.542 52.9563 158.176 52.3224 158.958 52.3224C159.74 52.3224 160.374 52.9563 160.374 53.7384Z" fill="#BF62F9" stroke="#BF62F9" stroke-width="0.404554"/>
<path d="M192.733 101.477C192.733 102.259 192.099 102.893 191.317 102.893C190.535 102.893 189.901 102.259 189.901 101.477C189.901 100.695 190.535 100.061 191.317 100.061C192.099 100.061 192.733 100.695 192.733 101.477Z" fill="white" stroke="#F1D9FF" stroke-width="0.404554"/>
<path d="M258.265 82.8668C258.265 83.6488 257.631 84.2827 256.849 84.2827C256.067 84.2827 255.433 83.6488 255.433 82.8668C255.433 82.0848 256.067 81.4508 256.849 81.4508C257.631 81.4508 258.265 82.0848 258.265 82.8668Z" fill="white" stroke="#F1D9FF" stroke-width="0.404554"/>
<path d="M226.722 72.3472C226.722 73.1293 226.088 73.7632 225.306 73.7632C224.524 73.7632 223.89 73.1293 223.89 72.3472C223.89 71.5652 224.524 70.9313 225.306 70.9313C226.088 70.9313 226.722 71.5652 226.722 72.3472Z" fill="white" stroke="#F1D9FF" stroke-width="0.404554"/>
<g opacity="0.7">
<line x1="83.1096" y1="46.2454" x2="265.556" y2="46.2454" stroke="#240631" stroke-opacity="0.1" stroke-width="0.422335" stroke-linecap="round" stroke-dasharray="2.11 2.11"/>
<line x1="83.1096" y1="64.8279" x2="265.556" y2="64.8279" stroke="#240631" stroke-opacity="0.1" stroke-width="0.422335" stroke-linecap="round" stroke-dasharray="2.11 2.11"/>
<line x1="83.1096" y1="83.4109" x2="265.556" y2="83.4109" stroke="#240631" stroke-opacity="0.1" stroke-width="0.422335" stroke-linecap="round" stroke-dasharray="2.11 2.11"/>
<line x1="83.1096" y1="101.994" x2="265.556" y2="101.994" stroke="#240631" stroke-opacity="0.1" stroke-width="0.422335" stroke-linecap="round" stroke-dasharray="2.11 2.11"/>
</g>
<g filter="url(#filter1_dd_3979_7751)">
<rect x="150.991" y="40.9247" width="15.1094" height="7.82778" rx="0.921893" fill="white"/>
<path d="M155.109 45.9302C155.445 45.6601 155.709 45.4389 155.899 45.2668C156.09 45.092 156.25 44.9105 156.38 44.7225C156.513 44.5318 156.579 44.3451 156.579 44.1623C156.579 43.9902 156.536 43.8551 156.452 43.7571C156.37 43.6565 156.236 43.6062 156.05 43.6062C155.87 43.6062 155.73 43.6631 155.629 43.777C155.531 43.8882 155.478 44.0379 155.47 44.2259H155.121C155.131 43.9293 155.221 43.7002 155.391 43.5386C155.56 43.3771 155.779 43.2963 156.046 43.2963C156.319 43.2963 156.535 43.3718 156.694 43.5227C156.856 43.6737 156.936 43.8816 156.936 44.1465C156.936 44.3663 156.87 44.5808 156.738 44.79C156.608 44.9966 156.46 45.1794 156.293 45.3383C156.126 45.4945 155.913 45.6773 155.653 45.8865H157.02V46.1884H155.109V45.9302ZM157.438 44.7543C157.438 44.2987 157.512 43.9438 157.66 43.6896C157.808 43.4327 158.068 43.3042 158.439 43.3042C158.807 43.3042 159.065 43.4327 159.213 43.6896C159.362 43.9438 159.436 44.2987 159.436 44.7543C159.436 45.2178 159.362 45.578 159.213 45.8349C159.065 46.0918 158.807 46.2202 158.439 46.2202C158.068 46.2202 157.808 46.0918 157.66 45.8349C157.512 45.578 157.438 45.2178 157.438 44.7543ZM159.078 44.7543C159.078 44.5239 159.062 44.3292 159.031 44.1703C159.002 44.0087 158.939 43.879 158.844 43.781C158.751 43.683 158.616 43.634 158.439 43.634C158.259 43.634 158.121 43.683 158.026 43.781C157.933 43.879 157.871 44.0087 157.839 44.1703C157.81 44.3292 157.795 44.5239 157.795 44.7543C157.795 44.9926 157.81 45.1926 157.839 45.3542C157.871 45.5157 157.933 45.6455 158.026 45.7435C158.121 45.8415 158.259 45.8905 158.439 45.8905C158.616 45.8905 158.751 45.8415 158.844 45.7435C158.939 45.6455 159.002 45.5157 159.031 45.3542C159.062 45.1926 159.078 44.9926 159.078 44.7543ZM161.494 46.2202L160.353 44.9569V46.2202H159.992V43.4512H160.353V44.7344L161.497 43.4512H161.954L160.699 44.8377L161.966 46.2202H161.494Z" fill="#6D07AB"/>
<rect x="150.991" y="40.9247" width="15.1094" height="7.82778" rx="0.921893" stroke="white" stroke-width="0.263398"/>
<path fill-rule="evenodd" clip-rule="evenodd" d="M158.173 50.6187C158.378 50.8244 158.712 50.8244 158.918 50.6187L160.652 48.884L156.438 48.884L158.173 50.6187Z" fill="white"/>
</g>
<path d="M78.2533 25.9453H77.4999L75.2333 22.5157V25.9453H74.48V21.346H75.2333L77.4999 24.7691V21.346H78.2533V25.9453ZM80.8219 26.0048C80.4782 26.0048 80.1677 25.9277 79.8901 25.7735C79.6126 25.6149 79.3945 25.3946 79.2359 25.1127C79.0773 24.8263 78.998 24.4959 78.998 24.1215C78.998 23.7514 79.0795 23.4232 79.2425 23.1368C79.4055 22.8505 79.628 22.6302 79.9099 22.476C80.1919 22.3218 80.5069 22.2447 80.8549 22.2447C81.2029 22.2447 81.5179 22.3218 81.7999 22.476C82.0818 22.6302 82.3043 22.8505 82.4673 23.1368C82.6303 23.4232 82.7118 23.7514 82.7118 24.1215C82.7118 24.4915 82.6281 24.8197 82.4607 25.1061C82.2933 25.3924 82.0642 25.6149 81.7734 25.7735C81.4871 25.9277 81.1699 26.0048 80.8219 26.0048ZM80.8219 25.3506C81.0157 25.3506 81.1963 25.3043 81.3637 25.2118C81.5356 25.1193 81.6743 24.9805 81.7801 24.7955C81.8858 24.6105 81.9387 24.3858 81.9387 24.1215C81.9387 23.8571 81.888 23.6347 81.7867 23.454C81.6853 23.269 81.551 23.1302 81.3836 23.0377C81.2162 22.9452 81.0355 22.8989 80.8417 22.8989C80.6479 22.8989 80.4672 22.9452 80.2998 23.0377C80.1368 23.1302 80.0069 23.269 79.9099 23.454C79.813 23.6347 79.7646 23.8571 79.7646 24.1215C79.7646 24.5135 79.8637 24.8175 80.0619 25.0334C80.2646 25.2448 80.5179 25.3506 80.8219 25.3506ZM83.7605 25.9916C83.6239 25.9916 83.5094 25.9453 83.4169 25.8528C83.3244 25.7603 83.2781 25.6457 83.2781 25.5092C83.2781 25.3726 83.3244 25.2581 83.4169 25.1655C83.5094 25.073 83.6239 25.0268 83.7605 25.0268C83.8927 25.0268 84.005 25.073 84.0975 25.1655C84.19 25.2581 84.2363 25.3726 84.2363 25.5092C84.2363 25.6457 84.19 25.7603 84.0975 25.8528C84.005 25.9453 83.8927 25.9916 83.7605 25.9916ZM88.3464 26.0048C88.0028 26.0048 87.6922 25.9277 87.4147 25.7735C87.1371 25.6149 86.919 25.3946 86.7605 25.1127C86.6019 24.8263 86.5226 24.4959 86.5226 24.1215C86.5226 23.7514 86.6041 23.4232 86.7671 23.1368C86.9301 22.8505 87.1525 22.6302 87.4345 22.476C87.7164 22.3218 88.0314 22.2447 88.3795 22.2447C88.7275 22.2447 89.0425 22.3218 89.3244 22.476C89.6064 22.6302 89.8288 22.8505 89.9918 23.1368C90.1548 23.4232 90.2364 23.7514 90.2364 24.1215C90.2364 24.4915 90.1526 24.8197 89.9852 25.1061C89.8178 25.3924 89.5887 25.6149 89.298 25.7735C89.0116 25.9277 88.6944 26.0048 88.3464 26.0048ZM88.3464 25.3506C88.5403 25.3506 88.7209 25.3043 88.8883 25.2118C89.0601 25.1193 89.1989 24.9805 89.3046 24.7955C89.4103 24.6105 89.4632 24.3858 89.4632 24.1215C89.4632 23.8571 89.4125 23.6347 89.3112 23.454C89.2099 23.269 89.0755 23.1302 88.9081 23.0377C88.7407 22.9452 88.5601 22.8989 88.3662 22.8989C88.1724 22.8989 87.9918 22.9452 87.8244 23.0377C87.6614 23.1302 87.5314 23.269 87.4345 23.454C87.3376 23.6347 87.2891 23.8571 87.2891 24.1215C87.2891 24.5135 87.3882 24.8175 87.5865 25.0334C87.7891 25.2448 88.0424 25.3506 88.3464 25.3506ZM92.5075 22.9188H91.8335V25.9453H91.0736V22.9188H90.644V22.3042H91.0736V22.0465C91.0736 21.628 91.1837 21.324 91.404 21.1346C91.6287 20.9407 91.9789 20.8438 92.4547 20.8438V21.4716C92.2256 21.4716 92.0648 21.5156 91.9723 21.6037C91.8798 21.6874 91.8335 21.835 91.8335 22.0465V22.3042H92.5075V22.9188ZM95.6451 22.8395C95.7728 22.6721 95.9469 22.5311 96.1671 22.4165C96.3874 22.302 96.6363 22.2447 96.9139 22.2447C97.231 22.2447 97.5196 22.324 97.7795 22.4826C98.0439 22.6368 98.2509 22.8549 98.4007 23.1368C98.5505 23.4188 98.6254 23.7426 98.6254 24.1082C98.6254 24.4739 98.5505 24.8021 98.4007 25.0929C98.2509 25.3792 98.0439 25.6039 97.7795 25.7669C97.5196 25.9255 97.231 26.0048 96.9139 26.0048C96.6363 26.0048 96.3896 25.9497 96.1737 25.8396C95.9579 25.725 95.7817 25.5841 95.6451 25.4167V27.6767H94.8918V22.3042H95.6451V22.8395ZM97.8588 24.1082C97.8588 23.8571 97.806 23.6413 97.7002 23.4606C97.5989 23.2756 97.4623 23.1368 97.2905 23.0443C97.1231 22.9474 96.9425 22.8989 96.7487 22.8989C96.5592 22.8989 96.3786 22.9474 96.2068 23.0443C96.0394 23.1412 95.9028 23.2822 95.7971 23.4672C95.6958 23.6523 95.6451 23.8703 95.6451 24.1215C95.6451 24.3726 95.6958 24.5928 95.7971 24.7823C95.9028 24.9673 96.0394 25.1083 96.2068 25.2052C96.3786 25.3021 96.5592 25.3506 96.7487 25.3506C96.9425 25.3506 97.1231 25.3021 97.2905 25.2052C97.4623 25.1039 97.5989 24.9585 97.7002 24.7691C97.806 24.5796 97.8588 24.3594 97.8588 24.1082ZM102.707 24.0356C102.707 24.1721 102.699 24.2955 102.681 24.4056H99.899C99.921 24.6964 100.029 24.9299 100.223 25.1061C100.417 25.2823 100.655 25.3704 100.936 25.3704C101.342 25.3704 101.628 25.2008 101.796 24.8616H102.608C102.498 25.1964 102.298 25.4717 102.007 25.6876C101.721 25.8991 101.364 26.0048 100.936 26.0048C100.588 26.0048 100.276 25.9277 99.9981 25.7735C99.725 25.6149 99.5091 25.3946 99.3505 25.1127C99.1963 24.8263 99.1192 24.4959 99.1192 24.1215C99.1192 23.747 99.1941 23.4188 99.3439 23.1368C99.4981 22.8505 99.7118 22.6302 99.9849 22.476C100.262 22.3218 100.58 22.2447 100.936 22.2447C101.28 22.2447 101.586 22.3196 101.855 22.4694C102.124 22.6192 102.333 22.8307 102.483 23.1038C102.633 23.3725 102.707 23.6831 102.707 24.0356ZM101.921 23.7977C101.917 23.5201 101.818 23.2976 101.624 23.1302C101.43 22.9628 101.19 22.8791 100.903 22.8791C100.644 22.8791 100.421 22.9628 100.236 23.1302C100.051 23.2932 99.9408 23.5157 99.9056 23.7977H101.921ZM105.028 26.0048C104.685 26.0048 104.374 25.9277 104.096 25.7735C103.819 25.6149 103.601 25.3946 103.442 25.1127C103.284 24.8263 103.204 24.4959 103.204 24.1215C103.204 23.7514 103.286 23.4232 103.449 23.1368C103.612 22.8505 103.834 22.6302 104.116 22.476C104.398 22.3218 104.713 22.2447 105.061 22.2447C105.409 22.2447 105.724 22.3218 106.006 22.476C106.288 22.6302 106.511 22.8505 106.674 23.1368C106.837 23.4232 106.918 23.7514 106.918 24.1215C106.918 24.4915 106.834 24.8197 106.667 25.1061C106.5 25.3924 106.271 25.6149 105.98 25.7735C105.693 25.9277 105.376 26.0048 105.028 26.0048ZM105.028 25.3506C105.222 25.3506 105.403 25.3043 105.57 25.2118C105.742 25.1193 105.881 24.9805 105.986 24.7955C106.092 24.6105 106.145 24.3858 106.145 24.1215C106.145 23.8571 106.094 23.6347 105.993 23.454C105.892 23.269 105.757 23.1302 105.59 23.0377C105.422 22.9452 105.242 22.8989 105.048 22.8989C104.854 22.8989 104.674 22.9452 104.506 23.0377C104.343 23.1302 104.213 23.269 104.116 23.454C104.019 23.6347 103.971 23.8571 103.971 24.1215C103.971 24.5135 104.07 24.8175 104.268 25.0334C104.471 25.2448 104.724 25.3506 105.028 25.3506ZM108.416 22.8395C108.544 22.6721 108.718 22.5311 108.938 22.4165C109.158 22.302 109.407 22.2447 109.685 22.2447C110.002 22.2447 110.291 22.324 110.551 22.4826C110.815 22.6368 111.022 22.8549 111.172 23.1368C111.322 23.4188 111.396 23.7426 111.396 24.1082C111.396 24.4739 111.322 24.8021 111.172 25.0929C111.022 25.3792 110.815 25.6039 110.551 25.7669C110.291 25.9255 110.002 26.0048 109.685 26.0048C109.407 26.0048 109.161 25.9497 108.945 25.8396C108.729 25.725 108.553 25.5841 108.416 25.4167V27.6767H107.663V22.3042H108.416V22.8395ZM110.63 24.1082C110.63 23.8571 110.577 23.6413 110.471 23.4606C110.37 23.2756 110.233 23.1368 110.062 23.0443C109.894 22.9474 109.714 22.8989 109.52 22.8989C109.33 22.8989 109.15 22.9474 108.978 23.0443C108.81 23.1412 108.674 23.2822 108.568 23.4672C108.467 23.6523 108.416 23.8703 108.416 24.1215C108.416 24.3726 108.467 24.5928 108.568 24.7823C108.674 24.9673 108.81 25.1083 108.978 25.2052C109.15 25.3021 109.33 25.3506 109.52 25.3506C109.714 25.3506 109.894 25.3021 110.062 25.2052C110.233 25.1039 110.37 24.9585 110.471 24.7691C110.577 24.5796 110.63 24.3594 110.63 24.1082ZM112.895 21.0553V25.9453H112.141V21.0553H112.895ZM117.221 24.0356C117.221 24.1721 117.212 24.2955 117.194 24.4056H114.412C114.434 24.6964 114.542 24.9299 114.736 25.1061C114.93 25.2823 115.168 25.3704 115.45 25.3704C115.855 25.3704 116.142 25.2008 116.309 24.8616H117.122C117.012 25.1964 116.811 25.4717 116.52 25.6876C116.234 25.8991 115.877 26.0048 115.45 26.0048C115.102 26.0048 114.789 25.9277 114.512 25.7735C114.238 25.6149 114.023 25.3946 113.864 25.1127C113.71 24.8263 113.633 24.4959 113.633 24.1215C113.633 23.747 113.708 23.4188 113.857 23.1368C114.012 22.8505 114.225 22.6302 114.498 22.476C114.776 22.3218 115.093 22.2447 115.45 22.2447C115.794 22.2447 116.1 22.3196 116.368 22.4694C116.637 22.6192 116.846 22.8307 116.996 23.1038C117.146 23.3725 117.221 23.6831 117.221 24.0356ZM116.435 23.7977C116.43 23.5201 116.331 23.2976 116.137 23.1302C115.943 22.9628 115.703 22.8791 115.417 22.8791C115.157 22.8791 114.934 22.9628 114.749 23.1302C114.564 23.2932 114.454 23.5157 114.419 23.7977H116.435ZM121 26.0048C120.714 26.0048 120.456 25.9541 120.227 25.8528C120.003 25.7471 119.824 25.6061 119.692 25.4299C119.56 25.2493 119.489 25.0488 119.481 24.8285H120.26C120.274 24.9827 120.346 25.1127 120.478 25.2184C120.615 25.3197 120.785 25.3704 120.987 25.3704C121.199 25.3704 121.362 25.3308 121.476 25.2515C121.595 25.1678 121.655 25.062 121.655 24.9343C121.655 24.7977 121.589 24.6964 121.456 24.6303C121.329 24.5642 121.124 24.4915 120.842 24.4122C120.569 24.3373 120.346 24.2646 120.174 24.1941C120.003 24.1237 119.853 24.0157 119.725 23.8703C119.602 23.725 119.54 23.5333 119.54 23.2954C119.54 23.1016 119.597 22.9254 119.712 22.7668C119.826 22.6038 119.989 22.476 120.201 22.3835C120.417 22.291 120.663 22.2447 120.941 22.2447C121.355 22.2447 121.688 22.3505 121.939 22.5619C122.194 22.769 122.331 23.0531 122.349 23.4144H121.595C121.582 23.2514 121.516 23.1214 121.397 23.0245C121.278 22.9276 121.117 22.8791 120.915 22.8791C120.716 22.8791 120.564 22.9166 120.459 22.9915C120.353 23.0664 120.3 23.1655 120.3 23.2888C120.3 23.3857 120.335 23.4672 120.406 23.5333C120.476 23.5994 120.562 23.6523 120.663 23.6919C120.765 23.7272 120.915 23.7734 121.113 23.8307C121.377 23.9012 121.593 23.9739 121.76 24.0488C121.932 24.1193 122.08 24.225 122.203 24.366C122.327 24.5069 122.39 24.6942 122.395 24.9277C122.395 25.1347 122.338 25.3197 122.223 25.4827C122.108 25.6457 121.945 25.7735 121.734 25.866C121.527 25.9585 121.282 26.0048 121 26.0048ZM126.506 22.3042V25.9453H125.753V25.5158C125.634 25.6656 125.478 25.7845 125.284 25.8726C125.094 25.9563 124.892 25.9982 124.676 25.9982C124.389 25.9982 124.132 25.9387 123.903 25.8198C123.678 25.7008 123.5 25.5246 123.367 25.2911C123.24 25.0576 123.176 24.7757 123.176 24.4453V22.3042H123.922V24.3329C123.922 24.6589 124.004 24.91 124.167 25.0862C124.33 25.2581 124.552 25.344 124.834 25.344C125.116 25.344 125.339 25.2581 125.502 25.0862C125.669 24.91 125.753 24.6589 125.753 24.3329V22.3042H126.506ZM128.254 22.8461C128.381 22.6699 128.555 22.5267 128.776 22.4165C129 22.302 129.249 22.2447 129.522 22.2447C129.844 22.2447 130.135 22.3218 130.395 22.476C130.655 22.6302 130.859 22.8505 131.009 23.1368C131.159 23.4188 131.234 23.7426 131.234 24.1082C131.234 24.4739 131.159 24.8021 131.009 25.0929C130.859 25.3792 130.652 25.6039 130.388 25.7669C130.128 25.9255 129.84 26.0048 129.522 26.0048C129.24 26.0048 128.989 25.9497 128.769 25.8396C128.553 25.7294 128.381 25.5885 128.254 25.4167V25.9453H127.5V21.0553H128.254V22.8461ZM130.467 24.1082C130.467 23.8571 130.414 23.6413 130.309 23.4606C130.207 23.2756 130.071 23.1368 129.899 23.0443C129.732 22.9474 129.551 22.8989 129.357 22.8989C129.168 22.8989 128.987 22.9474 128.815 23.0443C128.648 23.1412 128.511 23.2822 128.406 23.4672C128.304 23.6523 128.254 23.8703 128.254 24.1215C128.254 24.3726 128.304 24.5928 128.406 24.7823C128.511 24.9673 128.648 25.1083 128.815 25.2052C128.987 25.3021 129.168 25.3506 129.357 25.3506C129.551 25.3506 129.732 25.3021 129.899 25.2052C130.071 25.1039 130.207 24.9585 130.309 24.7691C130.414 24.5796 130.467 24.3594 130.467 24.1082ZM136.386 22.2447C136.673 22.2447 136.928 22.3042 137.153 22.4232C137.382 22.5421 137.561 22.7183 137.688 22.9518C137.82 23.1853 137.887 23.4672 137.887 23.7977V25.9453H137.14V23.91C137.14 23.584 137.058 23.3351 136.895 23.1633C136.732 22.9871 136.51 22.8989 136.228 22.8989C135.946 22.8989 135.721 22.9871 135.554 23.1633C135.391 23.3351 135.309 23.584 135.309 23.91V25.9453H134.563V23.91C134.563 23.584 134.481 23.3351 134.318 23.1633C134.155 22.9871 133.933 22.8989 133.651 22.8989C133.369 22.8989 133.144 22.9871 132.977 23.1633C132.814 23.3351 132.732 23.584 132.732 23.91V25.9453H131.979V22.3042H132.732V22.7205C132.856 22.5707 133.012 22.454 133.201 22.3703C133.391 22.2866 133.593 22.2447 133.809 22.2447C134.1 22.2447 134.36 22.3064 134.589 22.4298C134.818 22.5531 134.994 22.7315 135.118 22.965C135.228 22.7448 135.4 22.5707 135.633 22.443C135.867 22.3108 136.118 22.2447 136.386 22.2447ZM139.228 21.8218C139.092 21.8218 138.977 21.7756 138.885 21.683C138.792 21.5905 138.746 21.476 138.746 21.3394C138.746 21.2028 138.792 21.0883 138.885 20.9958C138.977 20.9033 139.092 20.857 139.228 20.857C139.361 20.857 139.473 20.9033 139.565 20.9958C139.658 21.0883 139.704 21.2028 139.704 21.3394C139.704 21.476 139.658 21.5905 139.565 21.683C139.473 21.7756 139.361 21.8218 139.228 21.8218ZM139.598 22.3042V25.9453H138.845V22.3042H139.598ZM141.466 22.9188V24.9343C141.466 25.0708 141.497 25.17 141.559 25.2316C141.625 25.2889 141.735 25.3175 141.889 25.3175H142.352V25.9453H141.757C141.418 25.9453 141.158 25.866 140.977 25.7074C140.797 25.5488 140.706 25.2911 140.706 24.9343V22.9188H140.277V22.3042H140.706V21.3989H141.466V22.3042H142.352V22.9188H141.466ZM143.925 22.9188V24.9343C143.925 25.0708 143.956 25.17 144.018 25.2316C144.084 25.2889 144.194 25.3175 144.348 25.3175H144.811V25.9453H144.216C143.877 25.9453 143.617 25.866 143.436 25.7074C143.255 25.5488 143.165 25.2911 143.165 24.9343V22.9188H142.736V22.3042H143.165V21.3989H143.925V22.3042H144.811V22.9188H143.925ZM148.842 24.0356C148.842 24.1721 148.833 24.2955 148.816 24.4056H146.034C146.056 24.6964 146.164 24.9299 146.357 25.1061C146.551 25.2823 146.789 25.3704 147.071 25.3704C147.476 25.3704 147.763 25.2008 147.93 24.8616H148.743C148.633 25.1964 148.432 25.4717 148.142 25.6876C147.855 25.8991 147.498 26.0048 147.071 26.0048C146.723 26.0048 146.41 25.9277 146.133 25.7735C145.86 25.6149 145.644 25.3946 145.485 25.1127C145.331 24.8263 145.254 24.4959 145.254 24.1215C145.254 23.747 145.329 23.4188 145.479 23.1368C145.633 22.8505 145.846 22.6302 146.119 22.476C146.397 22.3218 146.714 22.2447 147.071 22.2447C147.415 22.2447 147.721 22.3196 147.99 22.4694C148.258 22.6192 148.468 22.8307 148.617 23.1038C148.767 23.3725 148.842 23.6831 148.842 24.0356ZM148.056 23.7977C148.051 23.5201 147.952 23.2976 147.758 23.1302C147.564 22.9628 147.324 22.8791 147.038 22.8791C146.778 22.8791 146.556 22.9628 146.371 23.1302C146.186 23.2932 146.075 23.5157 146.04 23.7977H148.056ZM149.332 24.1082C149.332 23.7426 149.407 23.4188 149.557 23.1368C149.711 22.8549 149.918 22.6368 150.178 22.4826C150.442 22.324 150.735 22.2447 151.057 22.2447C151.295 22.2447 151.528 22.2976 151.758 22.4033C151.991 22.5047 152.176 22.6412 152.313 22.813V21.0553H153.073V25.9453H152.313V25.3968C152.189 25.5731 152.017 25.7184 151.797 25.833C151.581 25.9475 151.332 26.0048 151.05 26.0048C150.733 26.0048 150.442 25.9255 150.178 25.7669C149.918 25.6039 149.711 25.3792 149.557 25.0929C149.407 24.8021 149.332 24.4739 149.332 24.1082ZM152.313 24.1215C152.313 23.8703 152.26 23.6523 152.154 23.4672C152.053 23.2822 151.918 23.1412 151.751 23.0443C151.583 22.9474 151.403 22.8989 151.209 22.8989C151.015 22.8989 150.835 22.9474 150.667 23.0443C150.5 23.1368 150.363 23.2756 150.257 23.4606C150.156 23.6413 150.105 23.8571 150.105 24.1082C150.105 24.3594 150.156 24.5796 150.257 24.7691C150.363 24.9585 150.5 25.1039 150.667 25.2052C150.839 25.3021 151.02 25.3506 151.209 25.3506C151.403 25.3506 151.583 25.3021 151.751 25.2052C151.918 25.1083 152.053 24.9673 152.154 24.7823C152.26 24.5928 152.313 24.3726 152.313 24.1215ZM156.657 22.9188V24.9343C156.657 25.0708 156.688 25.17 156.75 25.2316C156.816 25.2889 156.926 25.3175 157.08 25.3175H157.543V25.9453H156.948C156.609 25.9453 156.349 25.866 156.168 25.7074C155.988 25.5488 155.898 25.2911 155.898 24.9343V22.9188H155.468V22.3042H155.898V21.3989H156.657V22.3042H157.543V22.9188H156.657ZM160.121 22.2447C160.398 22.2447 160.645 22.3042 160.861 22.4232C161.081 22.5421 161.253 22.7183 161.376 22.9518C161.504 23.1853 161.568 23.4672 161.568 23.7977V25.9453H160.821V23.91C160.821 23.584 160.74 23.3351 160.577 23.1633C160.414 22.9871 160.191 22.8989 159.909 22.8989C159.627 22.8989 159.403 22.9871 159.235 23.1633C159.072 23.3351 158.991 23.584 158.991 23.91V25.9453H158.237V21.0553H158.991V22.7271C159.118 22.5729 159.279 22.454 159.473 22.3703C159.671 22.2866 159.887 22.2447 160.121 22.2447ZM165.866 24.0356C165.866 24.1721 165.857 24.2955 165.839 24.4056H163.057C163.079 24.6964 163.187 24.9299 163.381 25.1061C163.575 25.2823 163.813 25.3704 164.095 25.3704C164.5 25.3704 164.787 25.2008 164.954 24.8616H165.767C165.657 25.1964 165.456 25.4717 165.165 25.6876C164.879 25.8991 164.522 26.0048 164.095 26.0048C163.747 26.0048 163.434 25.9277 163.157 25.7735C162.883 25.6149 162.667 25.3946 162.509 25.1127C162.355 24.8263 162.278 24.4959 162.278 24.1215C162.278 23.747 162.353 23.4188 162.502 23.1368C162.656 22.8505 162.87 22.6302 163.143 22.476C163.421 22.3218 163.738 22.2447 164.095 22.2447C164.438 22.2447 164.745 22.3196 165.013 22.4694C165.282 22.6192 165.491 22.8307 165.641 23.1038C165.791 23.3725 165.866 23.6831 165.866 24.0356ZM165.079 23.7977C165.075 23.5201 164.976 23.2976 164.782 23.1302C164.588 22.9628 164.348 22.8791 164.062 22.8791C163.802 22.8791 163.579 22.9628 163.394 23.1302C163.209 23.2932 163.099 23.5157 163.064 23.7977H165.079ZM169.85 22.9188H169.176V25.9453H168.416V22.9188H167.987V22.3042H168.416V22.0465C168.416 21.628 168.526 21.324 168.747 21.1346C168.971 20.9407 169.322 20.8438 169.797 20.8438V21.4716C169.568 21.4716 169.408 21.5156 169.315 21.6037C169.222 21.6874 169.176 21.835 169.176 22.0465V22.3042H169.85V22.9188ZM172.097 26.0048C171.754 26.0048 171.443 25.9277 171.166 25.7735C170.888 25.6149 170.67 25.3946 170.511 25.1127C170.353 24.8263 170.273 24.4959 170.273 24.1215C170.273 23.7514 170.355 23.4232 170.518 23.1368C170.681 22.8505 170.903 22.6302 171.185 22.476C171.467 22.3218 171.782 22.2447 172.13 22.2447C172.478 22.2447 172.793 22.3218 173.075 22.476C173.357 22.6302 173.58 22.8505 173.743 23.1368C173.906 23.4232 173.987 23.7514 173.987 24.1215C173.987 24.4915 173.903 24.8197 173.736 25.1061C173.569 25.3924 173.34 25.6149 173.049 25.7735C172.762 25.9277 172.445 26.0048 172.097 26.0048ZM172.097 25.3506C172.291 25.3506 172.472 25.3043 172.639 25.2118C172.811 25.1193 172.95 24.9805 173.055 24.7955C173.161 24.6105 173.214 24.3858 173.214 24.1215C173.214 23.8571 173.163 23.6347 173.062 23.454C172.961 23.269 172.826 23.1302 172.659 23.0377C172.492 22.9452 172.311 22.8989 172.117 22.8989C171.923 22.8989 171.743 22.9452 171.575 23.0377C171.412 23.1302 171.282 23.269 171.185 23.454C171.088 23.6347 171.04 23.8571 171.04 24.1215C171.04 24.5135 171.139 24.8175 171.337 25.0334C171.54 25.2448 171.793 25.3506 172.097 25.3506ZM175.485 22.8329C175.595 22.6478 175.741 22.5047 175.921 22.4033C176.106 22.2976 176.324 22.2447 176.576 22.2447V23.0245H176.384C176.089 23.0245 175.864 23.0994 175.71 23.2492C175.56 23.399 175.485 23.6589 175.485 24.0289V25.9453H174.732V22.3042H175.485V22.8329ZM181.676 22.2447C181.962 22.2447 182.218 22.3042 182.442 22.4232C182.671 22.5421 182.85 22.7183 182.978 22.9518C183.11 23.1853 183.176 23.4672 183.176 23.7977V25.9453H182.429V23.91C182.429 23.584 182.348 23.3351 182.185 23.1633C182.022 22.9871 181.799 22.8989 181.517 22.8989C181.235 22.8989 181.01 22.9871 180.843 23.1633C180.68 23.3351 180.599 23.584 180.599 23.91V25.9453H179.852V23.91C179.852 23.584 179.77 23.3351 179.607 23.1633C179.444 22.9871 179.222 22.8989 178.94 22.8989C178.658 22.8989 178.433 22.9871 178.266 23.1633C178.103 23.3351 178.021 23.584 178.021 23.91V25.9453H177.268V22.3042H178.021V22.7205C178.145 22.5707 178.301 22.454 178.491 22.3703C178.68 22.2866 178.883 22.2447 179.099 22.2447C179.389 22.2447 179.649 22.3064 179.878 22.4298C180.107 22.5531 180.284 22.7315 180.407 22.965C180.517 22.7448 180.689 22.5707 180.922 22.443C181.156 22.3108 181.407 22.2447 181.676 22.2447Z" fill="#615C64"/>
</g>
<rect x="2" y="22" width="69.7443" height="28.5582" rx="4.18607" fill="#A58CF0"/>
<path d="M15.8548 33.006V33.9793H13.9188V40.2793H12.7258V33.9793H10.7792V33.006H15.8548ZM20.0457 34.4188C20.4852 34.4188 20.8759 34.513 21.2178 34.7014C21.5666 34.8897 21.8387 35.1688 22.034 35.5386C22.2364 35.9083 22.3375 36.3549 22.3375 36.8781V40.2793H21.155V37.056C21.155 36.5397 21.0259 36.1456 20.7678 35.8735C20.5096 35.5944 20.1573 35.4549 19.7108 35.4549C19.2643 35.4549 18.9084 35.5944 18.6433 35.8735C18.3852 36.1456 18.2561 36.5397 18.2561 37.056V40.2793H17.0631V32.5351H18.2561V35.1828C18.4584 34.9386 18.7131 34.7502 19.0201 34.6176C19.334 34.4851 19.6759 34.4188 20.0457 34.4188ZM24.4663 33.749C24.25 33.749 24.0686 33.6758 23.9221 33.5293C23.7756 33.3827 23.7023 33.2014 23.7023 32.9851C23.7023 32.7688 23.7756 32.5874 23.9221 32.4409C24.0686 32.2944 24.25 32.2211 24.4663 32.2211C24.6756 32.2211 24.8535 32.2944 25 32.4409C25.1465 32.5874 25.2198 32.7688 25.2198 32.9851C25.2198 33.2014 25.1465 33.3827 25 33.5293C24.8535 33.6758 24.6756 33.749 24.4663 33.749ZM25.0523 34.513V40.2793H23.8593V34.513H25.0523ZM28.7117 40.3735C28.2582 40.3735 27.8501 40.2933 27.4873 40.1328C27.1315 39.9653 26.8489 39.7421 26.6396 39.463C26.4303 39.177 26.3187 38.8595 26.3047 38.5107H27.5396C27.5606 38.7549 27.6757 38.9607 27.885 39.1281C28.1013 39.2886 28.3699 39.3688 28.6908 39.3688C29.0257 39.3688 29.2838 39.306 29.4652 39.1805C29.6536 39.0479 29.7478 38.8805 29.7478 38.6781C29.7478 38.4618 29.6431 38.3014 29.4338 38.1967C29.2315 38.0921 28.9071 37.977 28.4606 37.8514C28.028 37.7328 27.6757 37.6177 27.4036 37.506C27.1315 37.3944 26.8943 37.2235 26.6919 36.9932C26.4966 36.763 26.3989 36.4595 26.3989 36.0828C26.3989 35.7758 26.4896 35.4967 26.671 35.2455C26.8524 34.9874 27.1105 34.7851 27.4454 34.6386C27.7873 34.4921 28.178 34.4188 28.6175 34.4188C29.2734 34.4188 29.8001 34.5862 30.1978 34.9211C30.6024 35.249 30.8187 35.699 30.8466 36.2711H29.6536C29.6327 36.013 29.528 35.8072 29.3396 35.6537C29.1513 35.5002 28.8966 35.4235 28.5757 35.4235C28.2617 35.4235 28.021 35.4828 27.8536 35.6014C27.6861 35.72 27.6024 35.8769 27.6024 36.0723C27.6024 36.2258 27.6582 36.3549 27.7699 36.4595C27.8815 36.5642 28.0175 36.6479 28.178 36.7107C28.3385 36.7665 28.5757 36.8397 28.8896 36.9304C29.3082 37.0421 29.6501 37.1572 29.9152 37.2758C30.1873 37.3874 30.421 37.5549 30.6164 37.7781C30.8117 38.0014 30.9129 38.2979 30.9199 38.6677C30.9199 38.9956 30.8292 39.2886 30.6478 39.5467C30.4664 39.8049 30.2082 40.0072 29.8734 40.1537C29.5454 40.3002 29.1582 40.3735 28.7117 40.3735ZM44.3984 33.006L42.2426 40.2793H40.8926L39.3647 34.7746L37.7426 40.2793L36.403 40.2898L34.3414 33.006H35.6077L37.1147 38.9293L38.7472 33.006H40.0868L41.6042 38.8979L43.1217 33.006H44.3984ZM50.6673 37.2549C50.6673 37.4711 50.6534 37.6665 50.6255 37.8409H46.2196C46.2545 38.3014 46.4254 38.6711 46.7324 38.9502C47.0394 39.2293 47.4161 39.3688 47.8627 39.3688C48.5045 39.3688 48.958 39.1002 49.2231 38.563H50.5103C50.3359 39.0932 50.0185 39.5293 49.558 39.8712C49.1045 40.206 48.5394 40.3735 47.8627 40.3735C47.3115 40.3735 46.8161 40.2514 46.3766 40.0072C45.944 39.756 45.6022 39.4072 45.351 38.9607C45.1068 38.5072 44.9847 37.9839 44.9847 37.3909C44.9847 36.7979 45.1033 36.2781 45.3406 35.8316C45.5847 35.3781 45.9231 35.0293 46.3557 34.7851C46.7952 34.5409 47.2975 34.4188 47.8627 34.4188C48.4068 34.4188 48.8917 34.5374 49.3173 34.7746C49.7429 35.0118 50.0743 35.3467 50.3115 35.7793C50.5487 36.2049 50.6673 36.6967 50.6673 37.2549ZM49.422 36.8781C49.415 36.4386 49.258 36.0863 48.951 35.8211C48.6441 35.556 48.2638 35.4235 47.8103 35.4235C47.3987 35.4235 47.0464 35.556 46.7534 35.8211C46.4603 36.0793 46.2859 36.4316 46.2301 36.8781H49.422ZM57.1263 37.2549C57.1263 37.4711 57.1123 37.6665 57.0844 37.8409H52.6786C52.7135 38.3014 52.8844 38.6711 53.1914 38.9502C53.4984 39.2293 53.8751 39.3688 54.3216 39.3688C54.9635 39.3688 55.417 39.1002 55.6821 38.563H56.9693C56.7949 39.0932 56.4775 39.5293 56.017 39.8712C55.5635 40.206 54.9984 40.3735 54.3216 40.3735C53.7705 40.3735 53.2751 40.2514 52.8356 40.0072C52.403 39.756 52.0612 39.4072 51.81 38.9607C51.5658 38.5072 51.4437 37.9839 51.4437 37.3909C51.4437 36.7979 51.5623 36.2781 51.7995 35.8316C52.0437 35.3781 52.3821 35.0293 52.8146 34.7851C53.2542 34.5409 53.7565 34.4188 54.3216 34.4188C54.8658 34.4188 55.3507 34.5374 55.7763 34.7746C56.2019 35.0118 56.5333 35.3467 56.7705 35.7793C57.0077 36.2049 57.1263 36.6967 57.1263 37.2549ZM55.8809 36.8781C55.874 36.4386 55.717 36.0863 55.41 35.8211C55.103 35.556 54.7228 35.4235 54.2693 35.4235C53.8577 35.4235 53.5054 35.556 53.2123 35.8211C52.9193 36.0793 52.7449 36.4316 52.6891 36.8781H55.8809ZM60.5818 37.4014L63.2399 40.2793H61.6283L59.4934 37.7991V40.2793H58.3004V32.5351H59.4934V37.0351L61.5864 34.513H63.2399L60.5818 37.4014Z" fill="white"/>
<path d="M29.7592 70.4326V71.1018H28.4279V75.4341H27.6075V71.1018H26.2689V70.4326H29.7592ZM32.641 71.4041C32.9433 71.4041 33.212 71.4689 33.447 71.5984C33.6869 71.7279 33.874 71.9198 34.0084 72.1741C34.1475 72.4284 34.2171 72.7354 34.2171 73.0952V75.4341H33.4039V73.2176C33.4039 72.8626 33.3151 72.5915 33.1376 72.4044C32.9601 72.2125 32.7178 72.1165 32.4108 72.1165C32.1037 72.1165 31.859 72.2125 31.6767 72.4044C31.4992 72.5915 31.4105 72.8626 31.4105 73.2176V75.4341H30.5901V70.1087H31.4105V71.9294C31.5496 71.7615 31.7247 71.632 31.9358 71.5408C32.1517 71.4497 32.3868 71.4041 32.641 71.4041ZM35.6809 70.9435C35.5322 70.9435 35.4074 70.8931 35.3067 70.7924C35.2059 70.6916 35.1556 70.5669 35.1556 70.4182C35.1556 70.2694 35.2059 70.1447 35.3067 70.044C35.4074 69.9432 35.5322 69.8928 35.6809 69.8928C35.8248 69.8928 35.9472 69.9432 36.0479 70.044C36.1487 70.1447 36.1991 70.2694 36.1991 70.4182C36.1991 70.5669 36.1487 70.6916 36.0479 70.7924C35.9472 70.8931 35.8248 70.9435 35.6809 70.9435ZM36.0839 71.4689V75.4341H35.2635V71.4689H36.0839ZM38.6003 75.4988C38.2885 75.4988 38.0078 75.4437 37.7583 75.3333C37.5136 75.2182 37.3193 75.0647 37.1754 74.8728C37.0315 74.6761 36.9547 74.4578 36.9451 74.2179H37.7943C37.8087 74.3858 37.8879 74.5273 38.0318 74.6425C38.1805 74.7528 38.3652 74.808 38.5859 74.808C38.8162 74.808 38.9937 74.7648 39.1184 74.6785C39.248 74.5873 39.3127 74.4722 39.3127 74.333C39.3127 74.1843 39.2408 74.074 39.0969 74.002C38.9577 73.93 38.7346 73.8509 38.4276 73.7645C38.1301 73.683 37.8879 73.6038 37.7007 73.527C37.5136 73.4503 37.3505 73.3327 37.2114 73.1744C37.0771 73.0161 37.0099 72.8074 37.0099 72.5483C37.0099 72.3372 37.0723 72.1453 37.197 71.9726C37.3217 71.7951 37.4992 71.656 37.7295 71.5552C37.9646 71.4545 38.2333 71.4041 38.5355 71.4041C38.9865 71.4041 39.3487 71.5192 39.6222 71.7495C39.9005 71.975 40.0492 72.2844 40.0684 72.6779H39.248C39.2336 72.5003 39.1616 72.3588 39.0321 72.2533C38.9025 72.1477 38.7274 72.0949 38.5067 72.0949C38.2909 72.0949 38.1253 72.1357 38.0102 72.2173C37.895 72.2988 37.8375 72.4068 37.8375 72.5411C37.8375 72.6467 37.8759 72.7354 37.9526 72.8074C38.0294 72.8794 38.1229 72.9369 38.2333 72.9801C38.3436 73.0185 38.5067 73.0689 38.7226 73.1312C39.0105 73.208 39.2456 73.2871 39.4279 73.3687C39.615 73.4455 39.7757 73.5606 39.91 73.7141C40.0444 73.8677 40.1139 74.0716 40.1187 74.3258C40.1187 74.5513 40.0564 74.7528 39.9316 74.9303C39.8069 75.1078 39.6294 75.247 39.3991 75.3477C39.1736 75.4485 38.9073 75.4988 38.6003 75.4988ZM48.1424 70.4326V75.4341H47.322V72.0086L45.7963 75.4341H45.2278L43.695 72.0086V75.4341H42.8746V70.4326H43.7597L45.5157 74.3546L47.2644 70.4326H48.1424ZM50.9406 75.4988C50.5664 75.4988 50.2281 75.4149 49.9259 75.247C49.6236 75.0743 49.3862 74.8344 49.2135 74.5273C49.0407 74.2155 48.9544 73.8557 48.9544 73.4479C48.9544 73.0449 49.0431 72.6874 49.2206 72.3756C49.3982 72.0638 49.6404 71.8239 49.9475 71.656C50.2545 71.488 50.5976 71.4041 50.9766 71.4041C51.3556 71.4041 51.6986 71.488 52.0057 71.656C52.3127 71.8239 52.555 72.0638 52.7325 72.3756C52.91 72.6874 52.9988 73.0449 52.9988 73.4479C52.9988 73.8509 52.9076 74.2083 52.7253 74.5201C52.543 74.832 52.2935 75.0743 51.9769 75.247C51.665 75.4149 51.3196 75.4988 50.9406 75.4988ZM50.9406 74.7864C51.1517 74.7864 51.3484 74.736 51.5307 74.6353C51.7178 74.5345 51.8689 74.3834 51.9841 74.1819C52.0992 73.9804 52.1568 73.7357 52.1568 73.4479C52.1568 73.16 52.1016 72.9177 51.9913 72.721C51.8809 72.5195 51.7346 72.3684 51.5523 72.2677C51.37 72.1669 51.1733 72.1165 50.9622 72.1165C50.7511 72.1165 50.5544 72.1669 50.3721 72.2677C50.1946 72.3684 50.053 72.5195 49.9475 72.721C49.8419 72.9177 49.7892 73.16 49.7892 73.4479C49.7892 73.8749 49.8971 74.2059 50.113 74.441C50.3337 74.6713 50.6096 74.7864 50.9406 74.7864ZM55.8104 71.4041C56.1222 71.4041 56.4005 71.4689 56.6452 71.5984C56.8946 71.7279 57.0889 71.9198 57.2281 72.1741C57.3672 72.4284 57.4368 72.7354 57.4368 73.0952V75.4341H56.6236V73.2176C56.6236 72.8626 56.5348 72.5915 56.3573 72.4044C56.1798 72.2125 55.9375 72.1165 55.6305 72.1165C55.3234 72.1165 55.0787 72.2125 54.8964 72.4044C54.7189 72.5915 54.6302 72.8626 54.6302 73.2176V75.4341H53.8098V71.4689H54.6302V71.9222C54.7645 71.7591 54.9348 71.632 55.1411 71.5408C55.3522 71.4497 55.5753 71.4041 55.8104 71.4041ZM59.4404 72.1381V74.333C59.4404 74.4818 59.4739 74.5897 59.5411 74.6569C59.6131 74.7192 59.733 74.7504 59.9009 74.7504H60.4047V75.4341H59.757C59.3876 75.4341 59.1045 75.3477 58.9078 75.175C58.7111 75.0023 58.6128 74.7216 58.6128 74.333V72.1381H58.145V71.4689H58.6128V70.4829H59.4404V71.4689H60.4047V72.1381H59.4404ZM63.2118 71.4041C63.514 71.4041 63.7827 71.4689 64.0178 71.5984C64.2577 71.7279 64.4448 71.9198 64.5791 72.1741C64.7182 72.4284 64.7878 72.7354 64.7878 73.0952V75.4341H63.9746V73.2176C63.9746 72.8626 63.8859 72.5915 63.7083 72.4044C63.5308 72.2125 63.2886 72.1165 62.9815 72.1165C62.6745 72.1165 62.4298 72.2125 62.2475 72.4044C62.07 72.5915 61.9812 72.8626 61.9812 73.2176V75.4341H61.1608V70.1087H61.9812V71.9294C62.1203 71.7615 62.2954 71.632 62.5065 71.5408C62.7224 71.4497 62.9575 71.4041 63.2118 71.4041Z" fill="#886FD4"/>
<rect x="20.5903" y="63.476" width="50.7946" height="18.9161" rx="2.51875" stroke="#886FD4" stroke-width="0.719643"/>
<path d="M41.0354 101.723V102.298H39.8906V106.023H39.1852V102.298H38.0343V101.723H41.0354ZM43.5133 102.558C43.7732 102.558 44.0042 102.614 44.2063 102.725C44.4126 102.837 44.5735 103.002 44.689 103.22C44.8086 103.439 44.8684 103.703 44.8684 104.012V106.023H44.1692V104.118C44.1692 103.812 44.0929 103.579 43.9403 103.418C43.7876 103.253 43.5793 103.171 43.3153 103.171C43.0513 103.171 42.8409 103.253 42.6841 103.418C42.5315 103.579 42.4552 103.812 42.4552 104.118V106.023H41.7498V101.444H42.4552V103.01C42.5748 102.866 42.7254 102.754 42.9069 102.676C43.0925 102.597 43.2947 102.558 43.5133 102.558ZM46.1271 102.162C45.9992 102.162 45.892 102.119 45.8054 102.032C45.7187 101.946 45.6754 101.838 45.6754 101.711C45.6754 101.583 45.7187 101.475 45.8054 101.389C45.892 101.302 45.9992 101.259 46.1271 101.259C46.2509 101.259 46.3561 101.302 46.4427 101.389C46.5293 101.475 46.5726 101.583 46.5726 101.711C46.5726 101.838 46.5293 101.946 46.4427 102.032C46.3561 102.119 46.2509 102.162 46.1271 102.162ZM46.4736 102.614V106.023H45.7682V102.614H46.4736ZM48.6373 106.079C48.3692 106.079 48.1279 106.032 47.9134 105.937C47.703 105.838 47.5359 105.706 47.4122 105.541C47.2884 105.372 47.2224 105.184 47.2142 104.978H47.9443C47.9567 105.122 48.0248 105.244 48.1485 105.343C48.2764 105.438 48.4352 105.485 48.625 105.485C48.823 105.485 48.9756 105.448 49.0829 105.374C49.1943 105.295 49.2499 105.196 49.2499 105.077C49.2499 104.949 49.1881 104.854 49.0643 104.792C48.9447 104.73 48.7529 104.662 48.4888 104.588C48.2331 104.518 48.0248 104.45 47.8639 104.384C47.703 104.318 47.5627 104.217 47.4431 104.08C47.3276 103.944 47.2698 103.765 47.2698 103.542C47.2698 103.361 47.3235 103.196 47.4307 103.047C47.538 102.894 47.6906 102.775 47.8886 102.688C48.0908 102.602 48.3218 102.558 48.5817 102.558C48.9694 102.558 49.2809 102.657 49.516 102.855C49.7553 103.049 49.8832 103.315 49.8997 103.654H49.1943C49.1819 103.501 49.12 103.379 49.0086 103.288C48.8972 103.198 48.7467 103.152 48.5569 103.152C48.3713 103.152 48.229 103.187 48.1299 103.257C48.0309 103.328 47.9814 103.42 47.9814 103.536C47.9814 103.627 48.0144 103.703 48.0804 103.765C48.1464 103.827 48.2269 103.876 48.3218 103.913C48.4166 103.946 48.5569 103.99 48.7425 104.043C48.9901 104.109 49.1922 104.177 49.3489 104.248C49.5098 104.314 49.648 104.413 49.7635 104.545C49.879 104.677 49.9389 104.852 49.943 105.071C49.943 105.264 49.8893 105.438 49.7821 105.59C49.6748 105.743 49.5222 105.863 49.3242 105.949C49.1303 106.036 48.9014 106.079 48.6373 106.079ZM55.4993 101.723L54.0761 104.464V106.023H53.3707V104.464L51.9413 101.723H52.7272L53.7234 103.833L54.7196 101.723H55.4993ZM59.1839 104.235C59.1839 104.363 59.1757 104.479 59.1592 104.582H56.5541C56.5747 104.854 56.6758 105.073 56.8573 105.238C57.0388 105.403 57.2616 105.485 57.5256 105.485C57.9051 105.485 58.1733 105.326 58.33 105.009H59.0911C58.988 105.322 58.8003 105.58 58.528 105.782C58.2599 105.98 57.9257 106.079 57.5256 106.079C57.1997 106.079 56.9068 106.007 56.6469 105.863C56.3912 105.714 56.189 105.508 56.0405 105.244C55.8961 104.976 55.824 104.666 55.824 104.316C55.824 103.965 55.8941 103.658 56.0343 103.394C56.1787 103.125 56.3788 102.919 56.6346 102.775C56.8944 102.63 57.1915 102.558 57.5256 102.558C57.8474 102.558 58.1341 102.628 58.3857 102.769C58.6373 102.909 58.8333 103.107 58.9736 103.363C59.1138 103.614 59.1839 103.905 59.1839 104.235ZM58.4476 104.012C58.4435 103.753 58.3506 103.544 58.1691 103.387C57.9876 103.231 57.7628 103.152 57.4947 103.152C57.2513 103.152 57.043 103.231 56.8697 103.387C56.6964 103.54 56.5933 103.748 56.5603 104.012H58.4476ZM59.643 104.303C59.643 103.961 59.7131 103.658 59.8534 103.394C59.9978 103.13 60.1916 102.925 60.435 102.781C60.6825 102.633 60.9548 102.558 61.2518 102.558C61.52 102.558 61.753 102.612 61.951 102.719C62.1532 102.822 62.3141 102.952 62.4337 103.109V102.614H63.1453V106.023H62.4337V105.516C62.3141 105.677 62.1511 105.811 61.9449 105.918C61.7386 106.026 61.5035 106.079 61.2395 106.079C60.9466 106.079 60.6784 106.005 60.435 105.856C60.1916 105.704 59.9978 105.493 59.8534 105.225C59.7131 104.953 59.643 104.646 59.643 104.303ZM62.4337 104.316C62.4337 104.08 62.3842 103.876 62.2852 103.703C62.1903 103.53 62.0645 103.398 61.9077 103.307C61.751 103.216 61.5818 103.171 61.4003 103.171C61.2188 103.171 61.0497 103.216 60.8929 103.307C60.7362 103.394 60.6083 103.524 60.5093 103.697C60.4144 103.866 60.367 104.068 60.367 104.303C60.367 104.538 60.4144 104.745 60.5093 104.922C60.6083 105.099 60.7362 105.236 60.8929 105.33C61.0538 105.421 61.223 105.467 61.4003 105.467C61.5818 105.467 61.751 105.421 61.9077 105.33C62.0645 105.24 62.1903 105.108 62.2852 104.934C62.3842 104.757 62.4337 104.551 62.4337 104.316ZM64.7772 103.109C64.8804 102.936 65.0165 102.802 65.1856 102.707C65.3589 102.608 65.5631 102.558 65.7982 102.558V103.288H65.6188C65.3424 103.288 65.132 103.359 64.9876 103.499C64.8474 103.639 64.7772 103.882 64.7772 104.229V106.023H64.0718V102.614H64.7772V103.109Z" fill="#886FD4"/>
<rect x="33.1531" y="95.6199" width="38.2817" height="15.8066" rx="2.16573" stroke="#886FD4" stroke-width="0.618781"/>
<defs>
<filter id="filter0_dd_3979_7751" x="54.2136" y="2.57749" width="240.237" height="143.977" filterUnits="userSpaceOnUse" color-interpolation-filters="sRGB">
<feFlood flood-opacity="0" result="BackgroundImageFix"/>
<feColorMatrix in="SourceAlpha" type="matrix" values="0 0 0 0 0 0 0 0 0 0 0 0 0 0 0 0 0 0 127 0" result="hardAlpha"/>
<feOffset dy="3.42251"/>
<feGaussianBlur stdDeviation="3.42251"/>
<feComposite in2="hardAlpha" operator="out"/>
<feColorMatrix type="matrix" values="0 0 0 0 0 0 0 0 0 0 0 0 0 0 0 0 0 0 0.05 0"/>
<feBlend mode="normal" in2="BackgroundImageFix" result="effect1_dropShadow_3979_7751"/>
<feColorMatrix in="SourceAlpha" type="matrix" values="0 0 0 0 0 0 0 0 0 0 0 0 0 0 0 0 0 0 127 0" result="hardAlpha"/>
<feOffset dy="1.71125"/>
<feGaussianBlur stdDeviation="1.71125"/>
<feComposite in2="hardAlpha" operator="out"/>
<feColorMatrix type="matrix" values="0 0 0 0 0 0 0 0 0 0 0 0 0 0 0 0 0 0 0.07 0"/>
<feBlend mode="normal" in2="effect1_dropShadow_3979_7751" result="effect2_dropShadow_3979_7751"/>
<feBlend mode="normal" in="SourceGraphic" in2="effect2_dropShadow_3979_7751" result="shape"/>
</filter>
<filter id="filter1_dd_3979_7751" x="148.963" y="39.7394" width="19.164" height="13.9912" filterUnits="userSpaceOnUse" color-interpolation-filters="sRGB">
<feFlood flood-opacity="0" result="BackgroundImageFix"/>
<feColorMatrix in="SourceAlpha" type="matrix" values="0 0 0 0 0 0 0 0 0 0 0 0 0 0 0 0 0 0 127 0" result="hardAlpha"/>
<feOffset dy="0.842874"/>
<feGaussianBlur stdDeviation="0.948233"/>
<feColorMatrix type="matrix" values="0 0 0 0 0.811765 0 0 0 0 0.54902 0 0 0 0 0.972549 0 0 0 0.15 0"/>
<feBlend mode="normal" in2="BackgroundImageFix" result="effect1_dropShadow_3979_7751"/>
<feColorMatrix in="SourceAlpha" type="matrix" values="0 0 0 0 0 0 0 0 0 0 0 0 0 0 0 0 0 0 127 0" result="hardAlpha"/>
<feOffset dy="0.158039"/>
<feGaussianBlur stdDeviation="0.237058"/>
<feColorMatrix type="matrix" values="0 0 0 0 0.811765 0 0 0 0 0.54902 0 0 0 0 0.972549 0 0 0 0.1 0"/>
<feBlend mode="normal" in2="effect1_dropShadow_3979_7751" result="effect2_dropShadow_3979_7751"/>
<feBlend mode="normal" in="SourceGraphic" in2="effect2_dropShadow_3979_7751" result="shape"/>
</filter>
<radialGradient id="paint0_radial_3979_7751" cx="0" cy="0" r="1" gradientUnits="userSpaceOnUse" gradientTransform="translate(278.948 11.2757) rotate(136.578) scale(53.3931 123.071)">
<stop stop-color="#FCF4FF"/>
<stop offset="1" stop-color="#FCF4FF" stop-opacity="0"/>
</radialGradient>
</defs>
</svg>
