<svg width="308" height="142" viewBox="0 0 308 142" fill="none" xmlns="http://www.w3.org/2000/svg">
<g filter="url(#filter0_dd_3980_8780)">
<rect x="14" y="31" width="285" height="79.0511" rx="9.24854" fill="white"/>
<rect x="33.0741" y="57.809" width="25.4335" height="25.4335" rx="4.04623" stroke="#A5A2A5" stroke-width="1.15607"/>
<path d="M72.7352 73.3402C72.4752 73.3402 72.2724 73.2674 72.1267 73.1217C71.9915 72.9761 71.9239 72.7733 71.9239 72.5133V62.9491C71.9239 62.6787 71.9915 62.4758 72.1267 62.3406C72.2724 62.195 72.4752 62.1222 72.7352 62.1222C72.9953 62.1222 73.1929 62.195 73.3281 62.3406C73.4737 62.4758 73.5465 62.6787 73.5465 62.9491V72.5133C73.5465 72.7733 73.4789 72.9761 73.3437 73.1217C73.2085 73.2674 73.0057 73.3402 72.7352 73.3402ZM76.8632 65.6483C76.7488 65.7939 76.624 65.8771 76.4888 65.8979C76.364 65.9187 76.2547 65.8979 76.1611 65.8355C76.0675 65.7627 76.0155 65.6639 76.0051 65.5391C75.9947 65.4039 76.0519 65.2582 76.1767 65.1022C76.364 64.863 76.4888 64.6237 76.5512 64.3845C76.624 64.1453 76.6604 63.9321 76.6604 63.7448L76.7228 64.1505C76.4108 64.1505 76.1559 64.0621 75.9583 63.8852C75.7711 63.698 75.6775 63.4536 75.6775 63.1519C75.6775 62.8607 75.7659 62.6267 75.9427 62.4498C76.1195 62.2626 76.3588 62.169 76.6604 62.169C76.9724 62.169 77.2169 62.273 77.3937 62.481C77.5809 62.6891 77.6745 62.9907 77.6745 63.386C77.6745 63.6148 77.6485 63.854 77.5965 64.1037C77.5549 64.3533 77.4769 64.6081 77.3625 64.8682C77.2481 65.1282 77.0817 65.3883 76.8632 65.6483ZM80.4409 73.3402C80.1912 73.3402 79.9988 73.2726 79.8636 73.1373C79.7284 72.9917 79.6608 72.7941 79.6608 72.5445V66.3036C79.6608 66.0435 79.7284 65.8459 79.8636 65.7107C79.9988 65.5755 80.186 65.5079 80.4253 65.5079C80.6749 65.5079 80.8621 65.5755 80.987 65.7107C81.1222 65.8459 81.1898 66.0435 81.1898 66.3036V67.583L81.0182 67.2397C81.2262 66.6884 81.5486 66.2568 81.9855 65.9447C82.4224 65.6327 82.9476 65.4767 83.5613 65.4767C84.1958 65.4767 84.7107 65.6275 85.1059 65.9291C85.5012 66.2308 85.7716 66.6936 85.9172 67.3177H85.6988C85.8964 66.7456 86.2345 66.2984 86.713 65.9759C87.1914 65.6431 87.7479 65.4767 88.3824 65.4767C88.9649 65.4767 89.4433 65.5911 89.8178 65.8199C90.1922 66.0383 90.4731 66.3764 90.6603 66.8341C90.8475 67.2813 90.9412 67.8482 90.9412 68.5347V72.5445C90.9412 72.7941 90.8683 72.9917 90.7227 73.1373C90.5875 73.2726 90.3951 73.3402 90.1454 73.3402C89.8958 73.3402 89.7034 73.2726 89.5682 73.1373C89.4329 72.9917 89.3653 72.7941 89.3653 72.5445V68.6127C89.3653 67.9678 89.2509 67.4946 89.0221 67.1929C88.8037 66.8913 88.4396 66.7404 87.9299 66.7404C87.3578 66.7404 86.9054 66.9381 86.5725 67.3333C86.2397 67.7286 86.0733 68.2747 86.0733 68.9716V72.5445C86.0733 72.7941 86.0057 72.9917 85.8704 73.1373C85.7352 73.2726 85.5428 73.3402 85.2932 73.3402C85.0435 73.3402 84.8459 73.2726 84.7003 73.1373C84.5651 72.9917 84.4974 72.7941 84.4974 72.5445V68.6127C84.4974 67.9678 84.3882 67.4946 84.1698 67.1929C83.9514 66.8913 83.5873 66.7404 83.0776 66.7404C82.5056 66.7404 82.0531 66.9381 81.7203 67.3333C81.3978 67.7286 81.2366 68.2747 81.2366 68.9716V72.5445C81.2366 73.0749 80.9714 73.3402 80.4409 73.3402ZM98.0383 73.3402C97.7887 73.3402 97.5963 73.2726 97.461 73.1373C97.3258 72.9917 97.2582 72.7941 97.2582 72.5445V66.3036C97.2582 66.0435 97.3258 65.8459 97.461 65.7107C97.5963 65.5755 97.7835 65.5079 98.0227 65.5079C98.2724 65.5079 98.4596 65.5755 98.5844 65.7107C98.7196 65.8459 98.7872 66.0435 98.7872 66.3036V67.5206L98.6156 67.2397C98.8444 66.6572 99.2033 66.2204 99.6922 65.9291C100.181 65.6275 100.743 65.4767 101.377 65.4767C101.98 65.4767 102.48 65.5911 102.875 65.8199C103.281 66.0383 103.582 66.3764 103.78 66.8341C103.978 67.2813 104.076 67.8482 104.076 68.5347V72.5445C104.076 72.7941 104.009 72.9917 103.874 73.1373C103.738 73.2726 103.546 73.3402 103.296 73.3402C103.036 73.3402 102.839 73.2726 102.703 73.1373C102.568 72.9917 102.501 72.7941 102.501 72.5445V68.6283C102.501 67.973 102.371 67.4946 102.11 67.1929C101.861 66.8913 101.466 66.7404 100.925 66.7404C100.29 66.7404 99.7806 66.9381 99.3957 67.3333C99.0213 67.7286 98.834 68.2591 98.834 68.9248V72.5445C98.834 73.0749 98.5688 73.3402 98.0383 73.3402ZM109.555 73.3714C108.786 73.3714 108.12 73.2102 107.558 72.8877C107.007 72.5653 106.575 72.1076 106.263 71.5147C105.951 70.9218 105.795 70.2249 105.795 69.424C105.795 68.8103 105.884 68.2643 106.061 67.7858C106.237 67.3073 106.487 66.8965 106.809 66.5532C107.142 66.1996 107.538 65.9343 107.995 65.7575C108.463 65.5703 108.983 65.4767 109.555 65.4767C110.315 65.4767 110.97 65.6379 111.521 65.9603C112.083 66.2828 112.52 66.7404 112.832 67.3333C113.144 67.9158 113.3 68.6127 113.3 69.424C113.3 70.0273 113.212 70.5734 113.035 71.0623C112.858 71.5511 112.603 71.9672 112.27 72.3104C111.948 72.6537 111.552 72.9189 111.084 73.1061C110.627 73.283 110.117 73.3714 109.555 73.3714ZM109.555 72.1544C109.982 72.1544 110.356 72.0504 110.679 71.8424C111.001 71.6343 111.251 71.3275 111.428 70.9218C111.615 70.5162 111.709 70.0169 111.709 69.424C111.709 68.5295 111.511 67.8534 111.116 67.3957C110.72 66.9381 110.2 66.7092 109.555 66.7092C109.119 66.7092 108.739 66.8133 108.416 67.0213C108.094 67.2189 107.839 67.5206 107.652 67.9262C107.475 68.3319 107.387 68.8311 107.387 69.424C107.387 70.3081 107.584 70.9842 107.98 71.4523C108.375 71.9204 108.9 72.1544 109.555 72.1544ZM118.239 73.3714C117.615 73.3714 117.089 73.2622 116.663 73.0437C116.236 72.8253 115.919 72.5029 115.711 72.0764C115.503 71.6499 115.399 71.1299 115.399 70.5162V66.8341H114.463C114.255 66.8341 114.094 66.7821 113.979 66.678C113.865 66.5636 113.808 66.4128 113.808 66.2256C113.808 66.0279 113.865 65.8771 113.979 65.7731C114.094 65.6691 114.255 65.6171 114.463 65.6171H115.399V64.0101C115.399 63.75 115.467 63.5524 115.602 63.4172C115.748 63.282 115.945 63.2144 116.195 63.2144C116.445 63.2144 116.637 63.282 116.772 63.4172C116.907 63.5524 116.975 63.75 116.975 64.0101V65.6171H118.8C119.008 65.6171 119.17 65.6691 119.284 65.7731C119.399 65.8771 119.456 66.0279 119.456 66.2256C119.456 66.4128 119.399 66.5636 119.284 66.678C119.17 66.7821 119.008 66.8341 118.8 66.8341H116.975V70.3914C116.975 70.9426 117.089 71.3587 117.318 71.6395C117.557 71.9204 117.942 72.0608 118.473 72.0608C118.66 72.0608 118.821 72.0452 118.956 72.014C119.102 71.9724 119.222 71.9464 119.315 71.936C119.43 71.936 119.523 71.9776 119.596 72.0608C119.669 72.1336 119.705 72.2792 119.705 72.4977C119.705 72.6537 119.674 72.7993 119.612 72.9345C119.56 73.0697 119.461 73.1581 119.315 73.1998C119.191 73.2414 119.019 73.2778 118.8 73.309C118.592 73.3506 118.405 73.3714 118.239 73.3714ZM127.24 73.3714C126.709 73.3714 126.231 73.2674 125.804 73.0593C125.388 72.8513 125.061 72.5705 124.821 72.2168C124.582 71.8632 124.463 71.4627 124.463 71.0154C124.463 70.4538 124.603 70.0117 124.884 69.6893C125.175 69.3564 125.648 69.1224 126.304 68.9872C126.969 68.8415 127.864 68.7687 128.987 68.7687H129.721V69.7361H129.003C128.254 69.7361 127.661 69.7725 127.224 69.8453C126.787 69.9181 126.475 70.0429 126.288 70.2197C126.111 70.3862 126.023 70.6202 126.023 70.9218C126.023 71.3171 126.158 71.6395 126.428 71.8892C126.699 72.1284 127.073 72.248 127.552 72.248C127.937 72.248 128.275 72.1596 128.566 71.9828C128.857 71.7956 129.086 71.5459 129.252 71.2339C129.429 70.9218 129.518 70.563 129.518 70.1573V68.3631C129.518 67.7702 129.393 67.3437 129.143 67.0837C128.894 66.8237 128.483 66.6936 127.911 66.6936C127.578 66.6936 127.229 66.7352 126.865 66.8185C126.512 66.9017 126.142 67.0421 125.758 67.2397C125.581 67.3229 125.43 67.3489 125.305 67.3177C125.18 67.2865 125.081 67.2189 125.009 67.1149C124.936 67.0005 124.894 66.8809 124.884 66.756C124.884 66.6208 124.915 66.4908 124.977 66.366C125.05 66.2412 125.17 66.1476 125.336 66.0852C125.794 65.8667 126.246 65.7107 126.694 65.6171C127.141 65.5235 127.562 65.4767 127.957 65.4767C128.654 65.4767 129.226 65.5859 129.674 65.8043C130.131 66.0227 130.469 66.3556 130.688 66.8029C130.906 67.2501 131.015 67.8274 131.015 68.5347V72.5445C131.015 72.7941 130.953 72.9917 130.828 73.1373C130.703 73.2726 130.521 73.3402 130.282 73.3402C130.053 73.3402 129.871 73.2726 129.736 73.1373C129.601 72.9917 129.533 72.7941 129.533 72.5445V71.5303H129.674C129.59 71.9152 129.434 72.248 129.206 72.5289C128.987 72.7993 128.712 73.0073 128.379 73.1529C128.046 73.2986 127.666 73.3714 127.24 73.3714ZM138.095 73.3402C137.835 73.3402 137.638 73.2726 137.503 73.1373C137.367 72.9917 137.3 72.7941 137.3 72.5445V66.3036C137.3 66.0435 137.367 65.8459 137.503 65.7107C137.638 65.5755 137.825 65.5079 138.064 65.5079C138.314 65.5079 138.501 65.5755 138.626 65.7107C138.761 65.8459 138.829 66.0435 138.829 66.3036V67.4425H138.673C138.839 66.8185 139.146 66.3452 139.593 66.0227C140.041 65.7003 140.613 65.5131 141.31 65.4611C141.497 65.4507 141.642 65.4975 141.746 65.6015C141.861 65.7055 141.923 65.8667 141.934 66.0852C141.954 66.3036 141.908 66.4804 141.793 66.6156C141.679 66.7404 141.502 66.8133 141.263 66.8341L140.966 66.8653C140.29 66.9277 139.775 67.1409 139.422 67.505C139.068 67.869 138.891 68.3683 138.891 69.0028V72.5445C138.891 72.7941 138.824 72.9917 138.688 73.1373C138.564 73.2726 138.366 73.3402 138.095 73.3402ZM146.321 73.3714C145.551 73.3714 144.886 73.2102 144.324 72.8877C143.773 72.5653 143.341 72.1076 143.029 71.5147C142.717 70.9218 142.561 70.2249 142.561 69.424C142.561 68.8103 142.649 68.2643 142.826 67.7858C143.003 67.3073 143.253 66.8965 143.575 66.5532C143.908 66.1996 144.303 65.9343 144.761 65.7575C145.229 65.5703 145.749 65.4767 146.321 65.4767C147.08 65.4767 147.736 65.6379 148.287 65.9603C148.849 66.2828 149.286 66.7404 149.598 67.3333C149.91 67.9158 150.066 68.6127 150.066 69.424C150.066 70.0273 149.977 70.5734 149.8 71.0623C149.624 71.5511 149.369 71.9672 149.036 72.3104C148.713 72.6537 148.318 72.9189 147.85 73.1061C147.392 73.283 146.883 73.3714 146.321 73.3714ZM146.321 72.1544C146.748 72.1544 147.122 72.0504 147.444 71.8424C147.767 71.6343 148.017 71.3275 148.193 70.9218C148.381 70.5162 148.474 70.0169 148.474 69.424C148.474 68.5295 148.277 67.8534 147.881 67.3957C147.486 66.9381 146.966 66.7092 146.321 66.7092C145.884 66.7092 145.505 66.8133 145.182 67.0213C144.86 67.2189 144.605 67.5206 144.418 67.9262C144.241 68.3319 144.152 68.8311 144.152 69.424C144.152 70.3081 144.35 70.9842 144.745 71.4523C145.141 71.9204 145.666 72.1544 146.321 72.1544ZM155.923 73.3714C155.257 73.3714 154.68 73.205 154.191 72.8721C153.702 72.5289 153.375 72.0764 153.208 71.5147L153.38 71.2339V72.5445C153.38 72.7941 153.312 72.9917 153.177 73.1373C153.042 73.2726 152.855 73.3402 152.616 73.3402C152.366 73.3402 152.173 73.2726 152.038 73.1373C151.903 72.9917 151.835 72.7941 151.835 72.5445V62.9179C151.835 62.6579 151.903 62.4602 152.038 62.325C152.173 62.1898 152.366 62.1222 152.616 62.1222C152.865 62.1222 153.058 62.1898 153.193 62.325C153.338 62.4602 153.411 62.6579 153.411 62.9179V67.2865H153.224C153.39 66.7352 153.718 66.2984 154.207 65.9759C154.696 65.6431 155.268 65.4767 155.923 65.4767C156.61 65.4767 157.203 65.6379 157.702 65.9603C158.201 66.2828 158.586 66.7352 158.856 67.3177C159.137 67.9002 159.278 68.6023 159.278 69.424C159.278 70.2249 159.137 70.927 158.856 71.5303C158.586 72.1232 158.196 72.5809 157.686 72.9033C157.187 73.2154 156.599 73.3714 155.923 73.3714ZM155.533 72.1544C155.97 72.1544 156.35 72.0504 156.672 71.8424C156.995 71.6343 157.244 71.3275 157.421 70.9218C157.598 70.5162 157.686 70.0169 157.686 69.424C157.686 68.5295 157.489 67.8534 157.093 67.3957C156.708 66.9381 156.188 66.7092 155.533 66.7092C155.107 66.7092 154.727 66.8133 154.394 67.0213C154.072 67.2189 153.822 67.5206 153.645 67.9262C153.468 68.3319 153.38 68.8311 153.38 69.424C153.38 70.3081 153.578 70.9842 153.973 71.4523C154.368 71.9204 154.888 72.1544 155.533 72.1544ZM164.361 73.3714C163.591 73.3714 162.926 73.2102 162.364 72.8877C161.813 72.5653 161.381 72.1076 161.069 71.5147C160.757 70.9218 160.601 70.2249 160.601 69.424C160.601 68.8103 160.689 68.2643 160.866 67.7858C161.043 67.3073 161.293 66.8965 161.615 66.5532C161.948 66.1996 162.343 65.9343 162.801 65.7575C163.269 65.5703 163.789 65.4767 164.361 65.4767C165.12 65.4767 165.776 65.6379 166.327 65.9603C166.889 66.2828 167.326 66.7404 167.638 67.3333C167.95 67.9158 168.106 68.6127 168.106 69.424C168.106 70.0273 168.017 70.5734 167.84 71.0623C167.664 71.5511 167.409 71.9672 167.076 72.3104C166.753 72.6537 166.358 72.9189 165.89 73.1061C165.433 73.283 164.923 73.3714 164.361 73.3714ZM164.361 72.1544C164.788 72.1544 165.162 72.0504 165.485 71.8424C165.807 71.6343 166.057 71.3275 166.233 70.9218C166.421 70.5162 166.514 70.0169 166.514 69.424C166.514 68.5295 166.317 67.8534 165.921 67.3957C165.526 66.9381 165.006 66.7092 164.361 66.7092C163.924 66.7092 163.545 66.8133 163.222 67.0213C162.9 67.2189 162.645 67.5206 162.458 67.9262C162.281 68.3319 162.192 68.8311 162.192 69.424C162.192 70.3081 162.39 70.9842 162.785 71.4523C163.181 71.9204 163.706 72.1544 164.361 72.1544ZM173.045 73.3714C172.42 73.3714 171.895 73.2622 171.469 73.0437C171.042 72.8253 170.725 72.5029 170.517 72.0764C170.309 71.6499 170.205 71.1299 170.205 70.5162V66.8341H169.269C169.061 66.8341 168.9 66.7821 168.785 66.678C168.671 66.5636 168.613 66.4128 168.613 66.2256C168.613 66.0279 168.671 65.8771 168.785 65.7731C168.9 65.6691 169.061 65.6171 169.269 65.6171H170.205V64.0101C170.205 63.75 170.273 63.5524 170.408 63.4172C170.553 63.282 170.751 63.2144 171.001 63.2144C171.25 63.2144 171.443 63.282 171.578 63.4172C171.713 63.5524 171.781 63.75 171.781 64.0101V65.6171H173.606C173.814 65.6171 173.975 65.6691 174.09 65.7731C174.204 65.8771 174.261 66.0279 174.261 66.2256C174.261 66.4128 174.204 66.5636 174.09 66.678C173.975 66.7821 173.814 66.8341 173.606 66.8341H171.781V70.3914C171.781 70.9426 171.895 71.3587 172.124 71.6395C172.363 71.9204 172.748 72.0608 173.279 72.0608C173.466 72.0608 173.627 72.0452 173.762 72.014C173.908 71.9724 174.027 71.9464 174.121 71.936C174.235 71.936 174.329 71.9776 174.402 72.0608C174.475 72.1336 174.511 72.2792 174.511 72.4977C174.511 72.6537 174.48 72.7993 174.418 72.9345C174.365 73.0697 174.267 73.1581 174.121 73.1998C173.996 73.2414 173.825 73.2778 173.606 73.309C173.398 73.3506 173.211 73.3714 173.045 73.3714Z" fill="#484455"/>
<path d="M247.157 65.286C250.748 70.0182 253.347 70.7483 259.312 67.6754L265.649 73.9085C255.701 80.4315 250.178 81.0302 240.509 71.8308L237.496 75.0512V62.1694H250.066L247.157 65.286Z" fill="#C3C3C3"/>
<path d="M267.322 52.1959C262.867 46.799 259.782 46.0965 254.129 45.4434V54.3775C257.223 54.8649 258.781 55.5504 260.674 58.8446L257.765 61.8573H270.231V49.0794L267.322 52.1959Z" fill="#B569B5"/>
<path d="M251.001 55.2086C247.941 56.9945 247.006 58.5241 246.534 62.065H237.496C238.01 55.9828 239.49 53.0413 244.353 48.6638L241.34 45.4434H254.118V58.3252L251.001 55.2086Z" fill="#C97BC9"/>
<path d="M228.352 92.5835C228.196 92.5835 228.077 92.543 227.996 92.462C227.915 92.3747 227.875 92.2563 227.875 92.1067V88.3668C227.875 88.211 227.915 88.0925 227.996 88.0115C228.077 87.9305 228.19 87.89 228.333 87.89C228.482 87.89 228.595 87.9305 228.669 88.0115C228.751 88.0925 228.791 88.211 228.791 88.3668V89.0493H228.698C228.797 88.6753 228.981 88.3917 229.249 88.1985C229.517 88.0053 229.86 87.8931 230.278 87.8619C230.39 87.8557 230.477 87.8837 230.539 87.9461C230.608 88.0084 230.645 88.105 230.652 88.2359C230.664 88.3668 230.636 88.4728 230.567 88.5538C230.499 88.6286 230.393 88.6722 230.25 88.6847L230.072 88.7034C229.667 88.7408 229.358 88.8686 229.146 89.0867C228.934 89.3049 228.828 89.6041 228.828 89.9843V92.1067C228.828 92.2563 228.788 92.3747 228.707 92.462C228.632 92.543 228.514 92.5835 228.352 92.5835ZM233.44 92.6022C232.941 92.6022 232.511 92.5087 232.15 92.3217C231.794 92.1285 231.517 91.8574 231.317 91.5083C231.124 91.153 231.028 90.7323 231.028 90.2461C231.028 89.7724 231.124 89.3579 231.317 89.0026C231.511 88.6473 231.776 88.3699 232.112 88.1705C232.449 87.971 232.832 87.8713 233.262 87.8713C233.58 87.8713 233.864 87.9242 234.113 88.0302C234.362 88.1299 234.574 88.2795 234.749 88.479C234.93 88.6722 235.064 88.9091 235.151 89.1896C235.244 89.4701 235.291 89.7848 235.291 90.1339C235.291 90.2399 235.26 90.3209 235.198 90.377C235.135 90.4269 235.042 90.4518 234.917 90.4518H231.776V89.8721H234.655L234.496 90.003C234.496 89.6913 234.45 89.4264 234.356 89.2083C234.269 88.9901 234.135 88.8249 233.954 88.7127C233.78 88.5943 233.561 88.5351 233.3 88.5351C233.007 88.5351 232.757 88.6037 232.552 88.7408C232.352 88.8779 232.199 89.068 232.093 89.3111C231.987 89.5542 231.935 89.8378 231.935 90.1619V90.218C231.935 90.7666 232.062 91.1811 232.318 91.4616C232.58 91.7358 232.957 91.8729 233.449 91.8729C233.636 91.8729 233.832 91.848 234.038 91.7981C234.25 91.7483 234.45 91.6641 234.637 91.5457C234.743 91.4834 234.836 91.4553 234.917 91.4616C235.004 91.4678 235.073 91.4958 235.123 91.5457C235.179 91.5956 235.213 91.6579 235.226 91.7327C235.238 91.8075 235.226 91.8854 235.188 91.9664C235.151 92.0412 235.085 92.1098 234.992 92.1721C234.78 92.3155 234.534 92.4246 234.253 92.4994C233.973 92.5679 233.702 92.6022 233.44 92.6022ZM239.378 92.6022C238.711 92.6022 238.141 92.4651 237.667 92.1908C237.193 91.9166 236.829 91.527 236.573 91.0221C236.324 90.511 236.199 89.9095 236.199 89.2176C236.199 88.7003 236.271 88.2359 236.414 87.8245C236.557 87.4069 236.763 87.0516 237.031 86.7587C237.305 86.4595 237.639 86.232 238.032 86.0761C238.43 85.9203 238.879 85.8424 239.378 85.8424C239.746 85.8424 240.098 85.8922 240.434 85.992C240.777 86.0917 241.073 86.2351 241.323 86.4221C241.429 86.4906 241.497 86.5748 241.528 86.6745C241.566 86.768 241.572 86.8584 241.547 86.9456C241.528 87.0329 241.488 87.1077 241.425 87.17C241.363 87.2261 241.282 87.2573 241.182 87.2635C241.089 87.2698 240.986 87.2355 240.874 87.1607C240.668 87.0049 240.441 86.8895 240.191 86.8148C239.942 86.74 239.68 86.7026 239.406 86.7026C238.932 86.7026 238.533 86.8023 238.209 87.0017C237.885 87.195 237.639 87.4786 237.471 87.8526C237.302 88.2266 237.218 88.6816 237.218 89.2176C237.218 89.7537 237.302 90.2118 237.471 90.592C237.639 90.966 237.885 91.2527 238.209 91.4522C238.533 91.6454 238.932 91.742 239.406 91.742C239.68 91.742 239.942 91.7046 240.191 91.6298C240.447 91.5488 240.687 91.4304 240.911 91.2746C241.023 91.206 241.123 91.1748 241.21 91.1811C241.304 91.1873 241.382 91.2185 241.444 91.2746C241.507 91.3307 241.547 91.4023 241.566 91.4896C241.591 91.5706 241.588 91.6579 241.556 91.7514C241.531 91.8387 241.472 91.9135 241.379 91.9758C241.123 92.1815 240.821 92.3373 240.472 92.4433C240.123 92.5492 239.758 92.6022 239.378 92.6022ZM242.558 92.5835C242.434 92.5835 242.334 92.5555 242.259 92.4994C242.184 92.4433 242.141 92.3685 242.128 92.275C242.116 92.1815 242.134 92.0755 242.184 91.9571L244.718 86.2725C244.78 86.1229 244.858 86.0169 244.952 85.9546C245.051 85.8922 245.161 85.8611 245.279 85.8611C245.391 85.8611 245.494 85.8922 245.588 85.9546C245.687 86.0169 245.768 86.1229 245.831 86.2725L248.364 91.9571C248.421 92.0755 248.442 92.1846 248.43 92.2843C248.417 92.3778 248.377 92.4526 248.308 92.5087C248.24 92.5586 248.143 92.5835 248.018 92.5835C247.881 92.5835 247.772 92.5492 247.691 92.4807C247.61 92.4121 247.539 92.3061 247.476 92.1628L246.822 90.6481L247.261 90.9099H243.278L243.708 90.6481L243.063 92.1628C243.001 92.3124 242.932 92.4215 242.857 92.49C242.783 92.5523 242.683 92.5835 242.558 92.5835ZM245.26 87.0017L243.849 90.3489L243.615 90.1245H246.915L246.7 90.3489L245.279 87.0017H245.26ZM249.966 92.5835C249.81 92.5835 249.689 92.5399 249.602 92.4526C249.521 92.3654 249.48 92.2438 249.48 92.088V86.4221C249.48 86.26 249.524 86.1385 249.611 86.0574C249.698 85.9702 249.82 85.9265 249.976 85.9265H252.21C252.921 85.9265 253.469 86.1042 253.856 86.4595C254.242 86.8085 254.435 87.3009 254.435 87.9367C254.435 88.5787 254.242 89.0774 253.856 89.4327C253.469 89.7817 252.921 89.9562 252.21 89.9562H250.452V92.088C250.452 92.2438 250.412 92.3654 250.331 92.4526C250.25 92.5399 250.128 92.5835 249.966 92.5835ZM250.452 89.1802H252.07C252.537 89.1802 252.89 89.0774 253.126 88.8717C253.37 88.6598 253.491 88.3481 253.491 87.9367C253.491 87.5316 253.37 87.2261 253.126 87.0204C252.89 86.8085 252.537 86.7026 252.07 86.7026H250.452V89.1802ZM257.4 92.5835C257.244 92.5835 257.122 92.5399 257.035 92.4526C256.954 92.3654 256.914 92.2438 256.914 92.088V86.74H254.931C254.801 86.74 254.698 86.7057 254.623 86.6371C254.548 86.5623 254.511 86.4595 254.511 86.3286C254.511 86.1977 254.548 86.0979 254.623 86.0294C254.698 85.9608 254.801 85.9265 254.931 85.9265H259.859C259.996 85.9265 260.102 85.9608 260.177 86.0294C260.251 86.0979 260.289 86.1977 260.289 86.3286C260.289 86.4595 260.251 86.5623 260.177 86.6371C260.102 86.7057 259.996 86.74 259.859 86.74H257.877V92.088C257.877 92.2438 257.836 92.3654 257.755 92.4526C257.68 92.5399 257.562 92.5835 257.4 92.5835ZM263.565 92.6022C262.898 92.6022 262.327 92.4651 261.854 92.1908C261.38 91.9166 261.015 91.527 260.76 91.0221C260.511 90.511 260.386 89.9095 260.386 89.2176C260.386 88.7003 260.458 88.2359 260.601 87.8245C260.744 87.4069 260.95 87.0516 261.218 86.7587C261.492 86.4595 261.826 86.232 262.218 86.0761C262.617 85.9203 263.066 85.8424 263.565 85.8424C263.933 85.8424 264.285 85.8922 264.621 85.992C264.964 86.0917 265.26 86.2351 265.509 86.4221C265.615 86.4906 265.684 86.5748 265.715 86.6745C265.753 86.768 265.759 86.8584 265.734 86.9456C265.715 87.0329 265.675 87.1077 265.612 87.17C265.55 87.2261 265.469 87.2573 265.369 87.2635C265.276 87.2698 265.173 87.2355 265.061 87.1607C264.855 87.0049 264.627 86.8895 264.378 86.8148C264.129 86.74 263.867 86.7026 263.593 86.7026C263.119 86.7026 262.72 86.8023 262.396 87.0017C262.072 87.195 261.826 87.4786 261.657 87.8526C261.489 88.2266 261.405 88.6816 261.405 89.2176C261.405 89.7537 261.489 90.2118 261.657 90.592C261.826 90.966 262.072 91.2527 262.396 91.4522C262.72 91.6454 263.119 91.742 263.593 91.742C263.867 91.742 264.129 91.7046 264.378 91.6298C264.634 91.5488 264.874 91.4304 265.098 91.2746C265.21 91.206 265.31 91.1748 265.397 91.1811C265.491 91.1873 265.569 91.2185 265.631 91.2746C265.693 91.3307 265.734 91.4023 265.753 91.4896C265.778 91.5706 265.774 91.6579 265.743 91.7514C265.718 91.8387 265.659 91.9135 265.566 91.9758C265.31 92.1815 265.008 92.3373 264.659 92.4433C264.31 92.5492 263.945 92.6022 263.565 92.6022ZM267.415 92.5835C267.259 92.5835 267.137 92.5399 267.05 92.4526C266.969 92.3654 266.929 92.2438 266.929 92.088V86.3566C266.929 86.1946 266.969 86.073 267.05 85.992C267.137 85.9047 267.259 85.8611 267.415 85.8611C267.571 85.8611 267.689 85.9047 267.77 85.992C267.857 86.073 267.901 86.1946 267.901 86.3566V88.7688H271.594V86.3566C271.594 86.1946 271.635 86.073 271.716 85.992C271.803 85.9047 271.924 85.8611 272.08 85.8611C272.236 85.8611 272.355 85.9047 272.436 85.992C272.517 86.073 272.557 86.1946 272.557 86.3566V92.088C272.557 92.2438 272.517 92.3654 272.436 92.4526C272.355 92.5399 272.236 92.5835 272.08 92.5835C271.924 92.5835 271.803 92.5399 271.716 92.4526C271.635 92.3654 271.594 92.2438 271.594 92.088V89.5823H267.901V92.088C267.901 92.2438 267.86 92.3654 267.779 92.4526C267.698 92.5399 267.577 92.5835 267.415 92.5835ZM274.059 92.5835C273.934 92.5835 273.834 92.5555 273.759 92.4994C273.685 92.4433 273.641 92.3685 273.629 92.275C273.616 92.1815 273.635 92.0755 273.685 91.9571L276.218 86.2725C276.281 86.1229 276.359 86.0169 276.452 85.9546C276.552 85.8922 276.661 85.8611 276.779 85.8611C276.892 85.8611 276.994 85.8922 277.088 85.9546C277.188 86.0169 277.269 86.1229 277.331 86.2725L279.865 91.9571C279.921 92.0755 279.943 92.1846 279.93 92.2843C279.918 92.3778 279.877 92.4526 279.809 92.5087C279.74 92.5586 279.644 92.5835 279.519 92.5835C279.382 92.5835 279.273 92.5492 279.192 92.4807C279.111 92.4121 279.039 92.3061 278.977 92.1628L278.322 90.6481L278.762 90.9099H274.779L275.209 90.6481L274.564 92.1628C274.501 92.3124 274.433 92.4215 274.358 92.49C274.283 92.5523 274.183 92.5835 274.059 92.5835ZM276.761 87.0017L275.349 90.3489L275.115 90.1245H278.416L278.201 90.3489L276.779 87.0017H276.761Z" fill="#797979"/>
</g>
<defs>
<filter id="filter0_dd_3980_8780" x="0.127197" y="21.7515" width="306.965" height="97.5483" filterUnits="userSpaceOnUse" color-interpolation-filters="sRGB">
<feFlood flood-opacity="0" result="BackgroundImageFix"/>
<feColorMatrix in="SourceAlpha" type="matrix" values="0 0 0 0 0 0 0 0 0 0 0 0 0 0 0 0 0 0 127 0" result="hardAlpha"/>
<feOffset dx="2.31213" dy="2.31213"/>
<feGaussianBlur stdDeviation="2.89017"/>
<feComposite in2="hardAlpha" operator="out"/>
<feColorMatrix type="matrix" values="0 0 0 0 0 0 0 0 0 0 0 0 0 0 0 0 0 0 0.05 0"/>
<feBlend mode="normal" in2="BackgroundImageFix" result="effect1_dropShadow_3980_8780"/>
<feColorMatrix in="SourceAlpha" type="matrix" values="0 0 0 0 0 0 0 0 0 0 0 0 0 0 0 0 0 0 127 0" result="hardAlpha"/>
<feOffset dx="-4.62427"/>
<feGaussianBlur stdDeviation="4.62427"/>
<feComposite in2="hardAlpha" operator="out"/>
<feColorMatrix type="matrix" values="0 0 0 0 0 0 0 0 0 0 0 0 0 0 0 0 0 0 0.05 0"/>
<feBlend mode="normal" in2="effect1_dropShadow_3980_8780" result="effect2_dropShadow_3980_8780"/>
<feBlend mode="normal" in="SourceGraphic" in2="effect2_dropShadow_3980_8780" result="shape"/>
</filter>
</defs>
</svg>
