<svg width="285" height="142" viewBox="0 0 285 142" fill="none" xmlns="http://www.w3.org/2000/svg">
<rect x="51" y="5" width="128.916" height="128.916" rx="64.4582" fill="#EDE6FA"/>
<path d="M128.104 70.7435V97.9058C128.104 101.746 125.093 104.86 121.316 104.86H91.9129C88.1278 104.86 85.1172 101.746 85.1172 97.9058V56.1832C85.128 54.3423 85.8641 52.5799 87.1658 51.2781C88.4676 49.9764 90.23 49.2403 92.0709 49.2295H106.946C107.461 49.2303 107.97 49.3335 108.445 49.5332C108.919 49.7329 109.349 50.0251 109.71 50.3927L126.96 67.9351C127.694 68.6856 128.104 69.6937 128.104 70.7435V70.7435Z" stroke="#7E5BC6" stroke-width="5.05728" stroke-linejoin="round"/>
<path d="M106.609 49.2295V66.2978C106.623 67.4671 107.094 68.5845 107.921 69.4114C108.748 70.2383 109.865 70.709 111.034 70.7229H128.103" stroke="#7E5BC6" stroke-width="5.05728" stroke-linecap="round" stroke-linejoin="round"/>
<path d="M102.812 49.2294V41.0114C102.823 39.1704 103.559 37.408 104.861 36.1062C106.163 34.8045 107.925 34.0684 109.766 34.0576H124.622C125.14 34.0583 125.652 34.1615 126.13 34.3611C126.607 34.5607 127.041 34.8529 127.405 35.2208L144.655 52.7632C145.389 53.5057 145.8 54.5074 145.799 55.551V82.7339C145.799 86.5743 142.789 89.6877 139.012 89.6877H129.363" stroke="#7E5BC6" stroke-width="5.05728" stroke-linejoin="round"/>
<path d="M124.309 34.0576V51.1259C124.323 52.2952 124.793 53.4127 125.62 54.2395C126.447 55.0664 127.564 55.5371 128.734 55.551H145.802" stroke="#7E5BC6" stroke-width="5.05728" stroke-linecap="round" stroke-linejoin="round"/>
<rect x="162" y="60" width="71.5094" height="76" rx="35.7547" fill="#EED2FF"/>
<path d="M181.59 84.3093L197.764 79.5889L213.922 84.3093V93.9892C213.922 98.9501 212.361 103.785 209.46 107.81C206.559 111.834 202.465 114.843 197.759 116.411C193.051 114.843 188.956 111.834 186.054 107.808C183.152 103.783 181.59 98.9469 181.59 93.9847V84.3093Z" stroke="#7E5BC6" stroke-width="3.59245" stroke-linejoin="round"/>
<path d="M189.672 96.6527L195.959 102.939L206.736 92.1621" stroke="#7E5BC6" stroke-width="3.59245" stroke-linecap="round" stroke-linejoin="round"/>
</svg>
