<svg width="285" height="142" viewBox="0 0 285 142" fill="none" xmlns="http://www.w3.org/2000/svg">
<rect x="25" y="11" width="186.111" height="125" rx="62.5" fill="#EDE6FA"/>
<g clip-path="url(#clip0_3979_7988)">
<path d="M100.425 45.4191C101.34 45.7191 101.971 46.5569 101.999 47.5104L102.199 54.3197C102.922 54.7739 103.533 55.1913 104.038 55.5845C104.59 56.0136 105.284 56.617 106.128 57.4072L112.13 56.3781C112.62 56.2939 113.125 56.3708 113.567 56.5974C114.01 56.824 114.367 57.188 114.585 57.6348L117.559 63.7618C117.953 64.5769 117.824 65.5374 117.229 66.2175L112.986 71.0527C113.144 71.9145 113.256 72.6439 113.328 73.2462C113.402 73.9013 113.469 74.7915 113.523 75.9292L118.328 80.1588C119.051 80.7921 119.295 81.8026 118.944 82.6834L116.415 89.0045C116.25 89.4147 115.967 89.7673 115.603 90.0184C115.239 90.2696 114.809 90.4083 114.367 90.4174L108.454 90.5628C108.062 91.2439 107.698 91.8173 107.356 92.2911C106.817 93.019 106.244 93.7211 105.639 94.3951L106.371 101.148C106.423 101.623 106.322 102.102 106.082 102.515C105.842 102.928 105.477 103.253 105.039 103.444L98.4979 106.302C98.0676 106.489 97.5904 106.54 97.1303 106.448C96.6701 106.356 96.249 106.126 95.9234 105.788L91.6151 101.315C90.6576 101.479 89.6909 101.585 88.7205 101.63L86.1634 101.736L82.3041 106.673C82.0197 107.034 81.6329 107.3 81.1943 107.437C80.7557 107.575 80.2859 107.576 79.8465 107.441L73.8912 105.636C73.4392 105.501 73.0403 105.229 72.7492 104.858C72.4581 104.486 72.2893 104.034 72.266 103.563L71.9513 96.4744C71.2294 95.9297 70.5229 95.3648 69.833 94.7802C69.2743 94.2848 68.7327 93.7704 68.2092 93.2379L61.4691 93.8252C61.0251 93.8636 60.5795 93.7721 60.1865 93.5619C59.7936 93.3516 59.4702 93.0316 59.2558 92.6409L56.2275 87.1023C56.0016 86.6912 55.9106 86.2196 55.9675 85.754C56.0243 85.2885 56.2261 84.8526 56.5443 84.508L60.9028 79.8037C60.7799 79.0369 60.6857 78.2657 60.6204 77.4918C60.5568 76.55 60.5216 75.6064 60.5146 74.6624L55.5017 71.14C55.0939 70.8547 54.7917 70.4427 54.642 69.9681C54.4924 69.4934 54.5037 68.9826 54.6742 68.515L56.8524 62.6097C56.9958 62.2248 57.2417 61.8864 57.5635 61.6312C57.8853 61.376 58.2708 61.2136 58.6782 61.1616L65.4417 60.2718C66.0379 59.3681 66.5275 58.6741 66.9206 58.1793C67.4609 57.5234 68.0293 56.8912 68.6242 56.2845L67.8469 50.1024C67.788 49.633 67.8795 49.157 68.1083 48.7428C68.337 48.3287 68.6912 47.9977 69.1198 47.7976L74.8413 45.1049C75.2422 44.9165 75.6891 44.848 76.128 44.9076C76.567 44.9673 76.9794 45.1524 77.3156 45.4409L82.4207 49.8171C83.2169 49.5959 83.9234 49.4382 84.5514 49.3306C85.3004 49.2007 86.2693 49.1256 87.4682 49.095L91.4004 44.0407C91.6897 43.6713 92.086 43.4002 92.5351 43.2645C92.9842 43.1287 93.4643 43.1348 93.9098 43.2821L100.425 45.4191ZM97.495 49.2033L94.0322 48.0674L90.4211 52.7205C90.2096 52.9915 89.9393 53.2109 89.6306 53.3622C89.3219 53.5134 88.9829 53.5926 88.6391 53.5936C87.1346 53.5998 86.027 53.6673 85.3555 53.7813C84.6437 53.9027 83.7088 54.1371 82.5736 54.4884C82.2027 54.601 81.8095 54.6183 81.4303 54.5385C81.051 54.4586 80.6981 54.2844 80.4041 54.0318L75.481 49.8152L72.5748 51.1846L73.2843 56.8275C73.3274 57.1635 73.2932 57.505 73.1844 57.8258C73.0756 58.1466 72.895 58.4384 72.6564 58.6788C71.6249 59.7223 70.9028 60.5055 70.5055 61.0024C69.8718 61.8386 69.2775 62.7039 68.7245 63.5954C68.5469 63.873 68.3107 64.1083 68.0325 64.2849C67.7543 64.4616 67.4408 64.5752 67.1141 64.6179L60.6683 65.4637L59.5562 68.476L64.0943 71.66C64.6969 72.0817 65.0574 72.7685 65.062 73.5006C65.0699 75.1573 65.1069 76.3893 65.1666 77.1739C65.2583 78.1748 65.3962 79.171 65.5796 80.1592C65.64 80.4983 65.621 80.8469 65.5239 81.1774C65.4269 81.5079 65.2545 81.8114 65.0202 82.064L61.012 86.3939L62.5424 89.1978L68.8644 88.6456C69.2049 88.6159 69.5477 88.6625 69.868 88.7818C70.1883 88.9012 70.4779 89.0904 70.716 89.3356C71.6556 90.3055 72.3662 90.9969 72.8268 91.3995C73.2968 91.8052 74.2146 92.5267 75.5572 93.5391C75.8238 93.7401 76.0427 93.9974 76.1984 94.2927C76.3541 94.588 76.4427 94.914 76.458 95.2475L76.7514 101.791L79.6528 102.674L83.1982 98.1372C83.4007 97.8784 83.6572 97.6667 83.9497 97.5169C84.2422 97.3671 84.5638 97.2827 84.8922 97.2696L88.5145 97.1207C89.4287 97.0863 90.5742 96.9348 91.9428 96.6601C92.3211 96.5854 92.7122 96.607 93.08 96.7228C93.4478 96.8386 93.7807 97.045 94.0479 97.323L98.1023 101.53L101.669 99.9745L101.003 93.853C100.969 93.5387 101.002 93.2207 101.1 92.9202C101.198 92.6196 101.359 92.3433 101.571 92.1096C102.553 91.0291 103.249 90.1995 103.642 89.6529C104.028 89.1178 104.506 88.3203 105.059 87.2749C105.248 86.9201 105.528 86.622 105.87 86.4114C106.213 86.2009 106.605 86.0854 107.007 86.0769L112.731 85.9386L114.118 82.4652L109.786 78.6528C109.556 78.4505 109.368 78.2035 109.236 77.9266C109.103 77.6498 109.028 77.3489 109.016 77.0422C108.981 75.9325 108.91 74.8243 108.803 73.7194C108.677 72.7467 108.511 71.7796 108.306 70.8204C108.237 70.4826 108.247 70.1333 108.336 69.8C108.424 69.4667 108.588 69.1584 108.816 68.8993L112.807 64.35L111.236 61.1124L105.802 62.0455C105.447 62.1067 105.083 62.0838 104.739 61.9786C104.394 61.8734 104.079 61.689 103.819 61.44C102.997 60.6291 102.137 59.8571 101.242 59.1267C100.465 58.5471 99.6532 58.016 98.8107 57.5365C98.4774 57.3431 98.1988 57.0681 98.0011 56.7374C97.8033 56.4067 97.6929 56.0311 97.6802 55.646L97.4929 49.1991L97.495 49.2033ZM91.3887 61.8941C98.9647 64.3791 103.116 72.471 100.659 79.9629C98.2015 87.4549 90.0646 91.5125 82.4887 89.0275C74.9096 86.5415 70.7601 78.4538 73.2175 70.9618C75.6749 63.4699 83.8087 59.4112 91.3877 61.8972L91.3887 61.8941ZM89.9824 66.1815C84.7959 64.4802 79.2302 67.2551 77.5484 72.3824C75.8665 77.5098 78.7064 83.0452 83.8929 84.7464C89.0763 86.4466 94.6431 83.6687 96.3249 78.5413C98.0067 73.414 95.1689 67.8827 89.9824 66.1815Z" fill="#7E5BC6"/>
</g>
<g clip-path="url(#clip1_3979_7988)">
<path d="M162.433 49.3136C163.347 49.6137 163.979 50.4514 164.007 51.4049L164.207 58.2142C164.929 58.6684 165.54 59.0859 166.045 59.479C166.597 59.9081 167.292 60.5116 168.135 61.3017L174.138 60.2727C174.628 60.1884 175.132 60.2654 175.575 60.4919C176.018 60.7185 176.375 61.0825 176.593 61.5293L179.566 67.6564C179.961 68.4714 179.832 69.4319 179.236 70.112L174.994 74.9472C175.152 75.809 175.264 76.5385 175.335 77.1408C175.41 77.7958 175.476 78.686 175.531 79.8237L180.336 84.0533C181.058 84.6866 181.302 85.6971 180.951 86.5779L178.423 92.8991C178.258 93.3093 177.975 93.6618 177.611 93.913C177.247 94.1641 176.817 94.3029 176.375 94.3119L170.462 94.4573C170.069 95.1385 169.706 95.7118 169.364 96.1856C168.825 96.9136 168.252 97.6157 167.647 98.2896L168.378 105.042C168.431 105.517 168.33 105.996 168.09 106.409C167.85 106.822 167.485 107.148 167.046 107.338L160.506 110.196C160.075 110.383 159.598 110.434 159.138 110.343C158.678 110.251 158.257 110.021 157.931 109.683L153.623 105.21C152.665 105.374 151.699 105.479 150.728 105.525L148.171 105.63L144.312 110.567C144.028 110.928 143.641 111.195 143.202 111.332C142.764 111.469 142.294 111.47 141.854 111.336L135.899 109.531C135.447 109.395 135.048 109.123 134.757 108.752C134.466 108.381 134.297 107.928 134.274 107.457L133.959 100.369C133.237 99.8243 132.531 99.2593 131.841 98.6747C131.282 98.1793 130.741 97.6649 130.217 97.1324L123.477 97.7197C123.033 97.7582 122.587 97.6667 122.194 97.4564C121.801 97.2461 121.478 96.9262 121.264 96.5354L118.235 90.9968C118.009 90.5858 117.918 90.1141 117.975 89.6486C118.032 89.183 118.234 88.7471 118.552 88.4025L122.911 83.6982C122.788 82.9314 122.693 82.1602 122.628 81.3864C122.565 80.4445 122.529 79.5009 122.522 78.557L117.509 75.0346C117.102 74.7493 116.799 74.3373 116.65 73.8626C116.5 73.3879 116.512 72.8771 116.682 72.4095L118.86 66.5042C119.004 66.1193 119.25 65.781 119.571 65.5258C119.893 65.2705 120.279 65.1081 120.686 65.0562L127.45 64.1663C128.046 63.2626 128.535 62.5686 128.928 62.0738C129.469 61.4179 130.037 60.7858 130.632 60.1791L129.855 53.997C129.796 53.5275 129.887 53.0515 130.116 52.6374C130.345 52.2232 130.699 51.8923 131.128 51.6921L136.849 48.9994C137.25 48.811 137.697 48.7425 138.136 48.8022C138.575 48.8618 138.987 49.047 139.323 49.3355L144.428 53.7117C145.225 53.4904 145.931 53.3327 146.559 53.2251C147.308 53.0952 148.277 53.0201 149.476 52.9895L153.408 47.9352C153.698 47.5659 154.094 47.2948 154.543 47.159C154.992 47.0232 155.472 47.0294 155.918 47.1766L162.433 49.3136ZM159.503 53.0978L156.04 51.9619L152.429 56.615C152.217 56.886 151.947 57.1054 151.638 57.2567C151.33 57.408 150.991 57.4871 150.647 57.4882C149.142 57.4943 148.035 57.5618 147.363 57.6758C146.652 57.7973 145.717 58.0316 144.581 58.3829C144.211 58.4956 143.817 58.5128 143.438 58.433C143.059 58.3532 142.706 58.1789 142.412 57.9263L137.489 53.7098L134.583 55.0791L135.292 60.7221C135.335 61.0581 135.301 61.3995 135.192 61.7203C135.083 62.0411 134.903 62.3329 134.664 62.5734C133.633 63.6169 132.911 64.4 132.513 64.8969C131.88 65.7331 131.285 66.5984 130.732 67.4899C130.555 67.7675 130.319 68.0028 130.04 68.1795C129.762 68.3561 129.449 68.4697 129.122 68.5124L122.676 69.3583L121.564 72.3706L126.102 75.5546C126.705 75.9762 127.065 76.6631 127.07 77.3951C127.078 79.0518 127.115 80.2838 127.174 81.0684C127.266 82.0693 127.404 83.0655 127.587 84.0537C127.648 84.3929 127.629 84.7414 127.532 85.0719C127.435 85.4024 127.262 85.7059 127.028 85.9585L123.02 90.2884L124.55 93.0923L130.872 92.5401C131.213 92.5104 131.556 92.557 131.876 92.6763C132.196 92.7957 132.486 92.9849 132.724 93.2302C133.663 94.2 134.374 94.8914 134.835 95.2941C135.305 95.6998 136.222 96.4212 137.565 97.4337C137.832 97.6346 138.051 97.8919 138.206 98.1872C138.362 98.4825 138.451 98.8085 138.466 99.142L138.759 105.686L141.661 106.569L145.206 102.032C145.409 101.773 145.665 101.561 145.957 101.411C146.25 101.262 146.572 101.177 146.9 101.164L150.522 101.015C151.436 100.981 152.582 100.829 153.951 100.555C154.329 100.48 154.72 100.502 155.088 100.617C155.456 100.733 155.788 100.94 156.056 101.218L160.11 105.425L163.677 103.869L163.011 97.7475C162.977 97.4332 163.01 97.1153 163.108 96.8147C163.206 96.5142 163.366 96.2379 163.579 96.0042C164.561 94.9236 165.257 94.094 165.65 93.5475C166.035 93.0123 166.514 92.2148 167.067 91.1695C167.256 90.8146 167.536 90.5166 167.878 90.306C168.22 90.0954 168.613 89.9799 169.014 89.9714L174.739 89.8332L176.126 86.3598L171.794 82.5473C171.563 82.3451 171.376 82.098 171.243 81.8211C171.111 81.5443 171.036 81.2434 171.023 80.9367C170.989 79.8271 170.918 78.7189 170.811 77.6139C170.685 76.6412 170.519 75.6741 170.314 74.7149C170.245 74.3771 170.255 74.0279 170.343 73.6946C170.432 73.3612 170.596 73.0529 170.824 72.7938L174.814 68.2445L173.244 65.0069L167.81 65.9401C167.455 66.0012 167.091 65.9783 166.746 65.8731C166.402 65.768 166.087 65.5835 165.827 65.3345C165.005 64.5236 164.145 63.7517 163.25 63.0212C162.473 62.4416 161.661 61.9105 160.819 61.4311C160.485 61.2376 160.207 60.9626 160.009 60.6319C159.811 60.3012 159.701 59.9257 159.688 59.5406L159.501 53.0937L159.503 53.0978ZM153.397 65.7887C160.972 68.2737 165.124 76.3655 162.667 83.8575C160.209 91.3494 152.072 95.4071 144.496 92.9221C136.917 90.436 132.768 82.3483 135.225 74.8564C137.683 67.3644 145.816 63.3058 153.396 65.7918L153.397 65.7887ZM151.99 70.076C146.804 68.3748 141.238 71.1496 139.556 76.277C137.874 81.4043 140.714 86.9397 145.901 88.641C151.084 90.3412 156.651 87.5632 158.333 82.4359C160.015 77.3085 157.177 71.7772 151.99 70.076Z" fill="#7E5BC6"/>
</g>
<rect x="186" y="5" width="74" height="74" rx="37" fill="#EED2FF"/>
<path d="M234.695 37.2127L232.978 39.7953C233.806 41.4468 234.211 43.2779 234.158 45.1246C234.104 46.9713 233.593 48.7759 232.671 50.3766H213.323C212.124 48.2968 211.627 45.886 211.906 43.5016C212.185 41.1173 213.225 38.8863 214.872 37.1394C216.518 35.3925 218.684 34.2227 221.048 33.8034C223.411 33.3841 225.847 33.7377 227.994 34.8117L230.577 33.0947C227.948 31.4087 224.829 30.6532 221.719 30.949C218.61 31.2449 215.69 32.575 213.425 34.7266C211.161 36.8782 209.684 39.727 209.23 42.8172C208.776 45.9075 209.372 49.0608 210.922 51.7726C211.165 52.1945 211.515 52.5454 211.936 52.7903C212.358 53.0352 212.836 53.1656 213.323 53.1685H232.657C233.149 53.1705 233.633 53.0424 234.059 52.7973C234.486 52.5521 234.84 52.1986 235.086 51.7726C236.372 49.5445 237.017 47.0044 236.951 44.4326C236.884 41.8608 236.109 39.3574 234.709 37.1988L234.695 37.2127ZM221.029 46.7611C221.288 47.0207 221.596 47.2266 221.935 47.3671C222.274 47.5076 222.637 47.5799 223.004 47.5799C223.371 47.5799 223.734 47.5076 224.073 47.3671C224.412 47.2266 224.72 47.0207 224.979 46.7611L232.88 34.9094L221.029 42.8105C220.769 43.0698 220.563 43.3777 220.423 43.7167C220.282 44.0556 220.21 44.4189 220.21 44.7858C220.21 45.1527 220.282 45.516 220.423 45.8549C220.563 46.1939 220.769 46.5018 221.029 46.7611V46.7611Z" fill="#7E5BC6"/>
<defs>
<clipPath id="clip0_3979_7988">
<rect width="65.4874" height="65.4874" fill="white" transform="translate(65.957 34.1133) rotate(18.1601)"/>
</clipPath>
<clipPath id="clip1_3979_7988">
<rect width="65.4874" height="65.4874" fill="white" transform="translate(127.965 38.0078) rotate(18.1601)"/>
</clipPath>
</defs>
</svg>
