<svg width="395" height="400" viewBox="0 0 395 400" fill="none" xmlns="http://www.w3.org/2000/svg">
<path d="M195.792 399.589C232.681 399.589 262.585 383.339 262.585 363.294C262.585 343.25 232.681 327 195.792 327C158.904 327 129 343.25 129 363.294C129 383.339 158.904 399.589 195.792 399.589Z" fill="#F8F8F8"/>
<path opacity="0.4" d="M206 370H181L186.816 8.23605C186.891 3.66497 189.731 0 193.205 0H193.779C197.269 0 200.109 3.66497 200.169 8.23605L206 370Z" fill="#D1A6EB"/>
<g style="mix-blend-mode:multiply" opacity="0.3">
<path d="M191.387 13.9325C190.893 27.2034 190.506 40.4742 190.225 53.745C189.906 67.0249 189.659 80.3047 189.601 93.5845C189.542 106.864 189.601 120.131 189.964 133.397L190.341 143.35L190.922 153.29C191.169 156.589 191.503 159.889 191.794 163.202C192.084 166.515 192.389 169.829 192.505 173.155C192.847 186.445 192.454 199.743 191.329 212.995C190.385 226.248 189.208 239.473 188.308 252.726C186.492 279.205 185.81 305.832 188.54 332.297C187.105 319.077 186.388 305.799 186.391 292.512C186.391 279.232 186.972 265.952 187.843 252.699C188.715 239.446 189.833 226.207 190.748 212.954C191.83 199.723 192.179 186.448 191.794 173.182C191.678 169.869 191.402 166.57 191.082 163.27C190.763 159.97 190.472 156.643 190.225 153.33L189.688 143.377L189.339 133.424C189.005 120.131 188.991 106.851 189.107 93.571C189.325 67.0113 190.109 40.4652 191.387 13.9325Z" fill="black"/>
<path d="M192.348 6.27839C192.754 11.566 193.103 16.8536 193.437 22.1412L194.25 38.0175C194.744 48.6107 195.122 59.1994 195.383 69.7836C195.543 80.3858 195.601 90.9881 195.383 101.577C195.165 112.165 194.744 122.781 193.539 133.316L194.12 125.391L194.483 117.453C194.643 114.748 194.657 112.165 194.744 109.515C194.831 106.864 194.875 104.227 194.889 101.577C195.049 90.9881 194.889 80.3858 194.657 69.7971C194.425 59.2084 194.178 48.6197 193.771 38.031L193.088 22.1547C192.871 16.8671 192.638 11.566 192.348 6.27839Z" fill="black"/>
<path d="M189.457 293.688C190.343 288.549 191.113 283.383 191.854 278.218C192.594 273.052 193.306 267.886 193.974 262.706C195.296 252.361 196.356 241.989 197.068 231.603C197.518 226.41 197.736 221.204 198.026 215.997C198.317 210.791 198.361 205.584 198.23 200.378V196.469C198.23 195.117 198.114 193.873 198.041 192.575L197.838 188.667C197.838 187.314 197.707 186.07 197.533 184.772C197.242 182.189 197.024 179.592 196.69 177.01L195.238 169.301C197.55 179.529 198.714 189.953 198.709 200.405C198.883 205.611 198.709 210.831 198.709 216.051C198.709 221.271 198.288 226.478 197.867 231.671C197.068 242.083 195.92 252.456 194.526 262.774C193.132 273.092 191.461 283.438 189.457 293.688Z" fill="black"/>
<path d="M198.057 116.25C197.331 122.389 196.691 128.538 196.14 134.695C195.602 140.862 195.123 147.028 195.079 153.195C194.98 156.261 195.218 159.329 195.791 162.35C195.915 163.07 196.181 163.763 196.575 164.392C196.837 164.663 196.895 164.69 197.142 164.473C197.39 164.21 197.586 163.908 197.723 163.581C198.288 162.152 198.683 160.669 198.899 159.159C199.357 156.109 199.518 153.026 199.379 149.949C199.286 146.863 198.843 143.794 198.057 140.794C199.815 146.799 200.284 153.067 199.437 159.24C199.262 160.802 198.876 162.338 198.289 163.811C198.135 164.21 197.898 164.578 197.592 164.893C197.492 165 197.367 165.085 197.225 165.139C197.084 165.193 196.931 165.215 196.779 165.204C196.491 165.141 196.237 164.982 196.067 164.757C195.611 164.061 195.3 163.29 195.152 162.486C194.544 159.418 194.281 156.3 194.368 153.182C194.368 146.988 194.934 140.808 195.573 134.655C196.212 128.502 197.055 122.362 198.057 116.25Z" fill="black"/>
<path d="M199.711 249.034C198.476 261.489 197.126 273.931 195.354 286.345C194.903 289.442 194.453 292.552 193.901 295.636C193.349 298.719 192.638 301.789 192.158 304.872C191.128 311.039 190.72 317.283 190.938 323.521C191.034 326.624 191.447 329.713 192.173 332.743C192.512 334.236 193.163 335.651 194.09 336.909C194.526 337.497 195.194 337.9 195.949 338.031C196.646 338.207 197.111 337.571 197.402 336.895C198.021 335.469 198.436 333.973 198.636 332.446C198.883 330.904 199.043 329.349 199.145 327.807C199.362 324.697 199.406 321.56 199.304 318.449C199.223 315.331 198.908 312.222 198.36 309.145C198.218 308.382 198.024 307.628 197.779 306.887C197.62 306.167 197.218 305.513 196.632 305.021C196.474 304.966 196.302 304.961 196.141 305.008C195.981 305.054 195.842 305.149 195.746 305.278C195.484 305.557 195.278 305.878 195.136 306.224C194.839 306.942 194.615 307.685 194.468 308.442C193.898 311.518 193.655 314.639 193.741 317.76C193.741 319.315 193.843 320.884 194.017 322.439C194.101 323.215 194.227 323.987 194.395 324.751C194.51 325.526 194.813 326.266 195.281 326.915C194.797 326.274 194.479 325.539 194.351 324.765C194.168 323.997 194.027 323.22 193.93 322.439C193.712 320.897 193.611 319.328 193.553 317.76C193.403 314.622 193.588 311.478 194.105 308.374C194.254 307.594 194.482 306.829 194.787 306.089C194.942 305.704 195.168 305.347 195.455 305.034C195.611 304.846 195.828 304.709 196.075 304.646C196.321 304.582 196.583 304.595 196.821 304.683C197.513 305.219 197.989 305.958 198.171 306.779C198.434 307.53 198.638 308.299 198.781 309.078C199.36 312.17 199.7 315.298 199.798 318.436C199.929 321.56 199.914 324.697 199.711 327.834C199.609 329.403 199.464 330.972 199.217 332.527C199.028 334.109 198.613 335.659 197.983 337.138C197.802 337.534 197.546 337.896 197.227 338.207C197.047 338.382 196.822 338.512 196.574 338.585C196.325 338.638 196.067 338.638 195.818 338.585C194.894 338.429 194.071 337.944 193.524 337.233C192.53 335.91 191.829 334.416 191.461 332.838C190.684 329.77 190.265 326.632 190.212 323.48C190.039 317.203 190.486 310.924 191.548 304.723C192.071 301.626 192.855 298.584 193.349 295.5C193.843 292.417 194.38 289.32 194.802 286.223C196.69 273.89 198.244 261.462 199.711 249.034Z" fill="black"/>
<path d="M188.006 370C187.57 365.546 187.173 361.093 186.815 356.639L185.827 343.251L185 329.863C184.738 325.355 184.53 320.888 184.375 316.461C184.811 320.915 185.203 325.373 185.551 329.836L186.554 343.21L187.382 356.598C187.628 361.061 187.832 365.537 188.006 370Z" fill="black"/>
<path d="M194.332 370C195.382 366.427 195.765 362.713 195.465 359.019C195.198 355.348 194.125 351.768 192.313 348.498C190.463 345.169 189.128 341.613 188.348 337.936C187.487 334.303 186.886 330.622 186.547 326.915C187.076 330.592 187.818 334.239 188.769 337.842C189.651 341.448 191.037 344.931 192.894 348.2C194.826 351.536 195.923 355.234 196.104 359.019C196.311 362.753 195.708 366.487 194.332 370Z" fill="black"/>
<path d="M199.714 261.341C199.104 270.428 198.973 279.543 199.308 288.631C199.459 293.156 199.871 297.67 200.542 302.154C201.355 306.63 202.111 311.147 202.619 315.677C203.173 320.212 203.474 324.771 203.52 329.336C203.632 333.917 203.144 338.495 202.067 342.967C200.672 347.323 199.758 351.8 199.337 356.328C198.862 360.853 198.663 365.4 198.741 369.946C198.092 360.848 199.039 351.713 201.544 342.899C202.548 338.455 202.972 333.915 202.808 329.376C202.706 324.846 202.459 320.302 201.98 315.853C201.501 311.404 200.833 306.833 200.048 302.33C199.395 297.809 199.003 293.258 198.872 288.698C198.627 279.572 198.908 270.439 199.714 261.341Z" fill="black"/>
<path d="M195.238 0.247013C195.781 5.71942 196.265 11.1963 196.691 16.6778C197.083 22.1682 197.402 27.6451 197.707 33.1356C198.012 38.626 198.172 44.1165 198.274 49.6069C198.376 55.0973 198.361 60.6148 197.853 66.0918C197.983 63.3871 197.983 60.6013 197.853 57.8561C197.722 55.1109 197.766 52.3792 197.664 49.6745C197.461 44.1841 197.218 38.6981 196.938 33.2167L195.238 0.247013Z" fill="black"/>
</g>
<path d="M360.255 99.0354L386.483 127.596L357.538 153.387L198.915 145.489L201.632 91.1633L360.255 99.0354Z" fill="white" stroke="#EDDBF7" stroke-width="1.69934"/>
<path d="M360.646 98.2041L368.524 102.884L394.011 130.142L360.646 159.594L199.16 151.134L198.023 146.295L357.843 154.253L387.692 127.656L360.646 98.2041Z" fill="#37C6D0"/>
<path opacity="0.1" d="M355.604 98.0259L363.238 102.56L387.935 128.973L355.604 157.512L199.125 149.314L198.023 144.626L352.888 152.337L381.812 126.565L355.604 98.0259Z" fill="black"/>
<path d="M189.721 120.427L31.5203 120.889L3.88081 93.8854L31.3105 66.6895L189.538 66.2298L189.721 120.427Z" fill="white" stroke="#EDDBF7" stroke-width="1.69308"/>
<path d="M2.67188 93.8899L31.1744 121.736L190.569 121.271L189.225 130.837L33.2002 131.113L5.64519 104.686L2.67188 93.8899Z" fill="#4F3895"/>
<path d="M39.3676 89.8478C39.3678 90.548 38.7536 91.1157 37.9957 91.1159C37.2379 91.1161 36.6234 90.5487 36.6232 89.8485C36.623 89.1484 37.2372 88.6003 37.9951 88.6001C38.7529 88.5999 39.3674 89.1477 39.3676 89.8478Z" fill="#4F3895"/>
<path d="M44.1704 89.8564C44.1706 90.5511 43.5564 91.1145 42.7985 91.1146C42.0407 91.1148 41.4261 90.5518 41.426 89.8571C41.4258 89.1624 42.04 88.5991 42.7979 88.5989C43.5557 88.5987 44.1702 89.1617 44.1704 89.8564Z" fill="#4F3895"/>
<path fill-rule="evenodd" clip-rule="evenodd" d="M34.7345 82.4464C33.6924 82.4466 32.8479 83.3318 32.8482 84.4235L32.8525 101.225C32.8528 102.317 33.6977 103.202 34.7398 103.201L46.0607 103.198C47.1027 103.198 47.9472 102.313 47.947 101.221L47.9426 84.4196C47.9424 83.328 47.0974 82.4432 46.0553 82.4435L34.7345 82.4464ZM37.0942 87.3874C35.7917 87.3877 34.736 88.4942 34.7364 89.8588C34.7367 91.2234 35.7929 92.3294 37.0955 92.3291L43.6993 92.3274C45.0019 92.327 46.0576 91.2205 46.0572 89.8559C46.0569 88.4913 45.0006 87.3854 43.6981 87.3857L37.0942 87.3874Z" fill="#4F3895"/>
<path d="M62.6672 94.4391L62.6693 102.779L60.1032 102.779L60.1011 94.4398L60.1006 92.5152L60.099 86.1001L60.0985 84.1755L62.6645 84.1749L71.325 84.1727L71.3255 86.0972L62.665 86.0994L62.6667 92.5146L69.7233 92.5128L69.7238 94.4373L62.6672 94.4391ZM76.8203 103.096C73.709 103.097 71.2064 100.595 71.2056 97.4841C71.2048 94.4049 73.7061 91.8702 76.8174 91.8694C79.8967 91.8686 82.4313 94.402 82.4321 97.4812C82.4329 100.593 79.8996 103.095 76.8203 103.096ZM76.8179 93.794C75.1179 93.7944 73.7711 95.4627 73.7717 97.4835C73.7722 99.5363 75.1198 101.172 76.8198 101.171C78.4878 101.171 79.8666 99.5348 79.8661 97.4819C79.8655 95.4611 78.4859 93.7935 76.8179 93.794ZM87.0994 97.48L87.1008 102.773L84.5347 102.773L84.532 92.2203L87.098 92.2196L87.0982 92.9574C87.9962 92.2835 89.0867 91.8663 90.3055 91.866C90.4659 91.8659 90.6263 91.898 90.7867 91.8979L90.7872 93.8866C90.5626 93.8225 90.3381 93.7905 90.1456 93.7906C88.4456 93.791 87.0989 95.4593 87.0994 97.48ZM105.064 91.8622C107.63 91.8615 109.716 94.0421 109.716 96.6723L109.718 102.767L107.12 102.767L107.118 96.673C107.118 95.1013 106.123 93.7864 104.872 93.7868C103.653 93.7871 102.659 95.0704 102.628 96.6742L102.66 96.6742L102.661 102.769L100.063 102.769L100.062 96.6748C100.061 95.1031 99.0665 93.7883 97.8155 93.7886C96.5966 93.7889 95.6026 95.0722 95.603 96.6439L95.6046 102.77L93.0385 102.771L93.0358 92.186L95.6019 92.1854L95.602 92.5703C96.2754 92.121 97.1094 91.8642 98.0075 91.864C99.4188 91.8636 100.67 92.5369 101.536 93.5631C102.37 92.5365 103.653 91.8625 105.064 91.8622ZM117.43 103.086C114.639 103.086 112.329 101.098 111.88 98.436C111.815 98.1473 111.815 97.8265 111.815 97.4737C111.815 97.1529 111.815 96.8322 111.879 96.5114C112.328 93.8811 114.636 91.8597 117.427 91.859C120.186 91.8583 122.496 93.8785 122.945 96.5086C123.01 96.8293 123.042 97.1501 123.042 97.4708C123.042 97.8236 123.01 98.1444 122.946 98.4331L120.348 98.4338L114.478 98.4353C114.831 100.007 116.018 101.161 117.429 101.161C118.263 101.161 119.033 100.744 119.61 100.038L122.401 100.037C121.471 101.866 119.579 103.085 117.43 103.086ZM117.428 93.7835C116.016 93.7839 114.83 94.971 114.477 96.5107L120.347 96.5092C119.994 94.9697 118.807 93.7832 117.428 93.7835ZM133.008 97.4362C133.907 98.0454 134.484 98.8792 134.484 99.8094C134.485 101.638 132.304 103.114 129.674 103.114C127.012 103.115 124.862 101.64 124.862 99.8119L127.428 99.8112C127.428 100.549 128.422 101.19 129.673 101.19C130.892 101.19 131.919 100.548 131.918 99.8101C131.918 99.0723 130.892 98.4631 129.673 98.4635C128.358 98.4638 127.171 98.0792 126.304 97.4379C125.502 96.8607 125.021 96.059 125.021 95.1609C125.02 93.3325 127.073 91.8886 129.671 91.8879C132.237 91.8873 134.322 93.3301 134.323 95.1585L131.757 95.1591C131.757 94.4214 130.794 93.8122 129.672 93.8125C128.517 93.8128 127.587 94.4224 127.587 95.1602C127.587 95.8979 128.517 96.5392 129.672 96.5389C130.955 96.5386 132.142 96.859 133.008 97.4362ZM140.538 83.5134L140.541 92.2059L143.588 92.2051L143.588 94.1297L140.541 94.1304L140.542 99.0701C140.543 100.225 141.184 101.155 141.986 101.155L142.948 101.154L142.949 103.079L141.987 103.079C139.741 103.08 137.977 101.316 137.976 99.0708L137.975 94.1311L136.371 94.1315L136.371 92.207L137.974 92.2066L137.972 83.514L140.538 83.5134ZM150.459 103.077C147.669 103.078 145.359 101.09 144.909 98.4275C144.845 98.1388 144.845 97.818 144.845 97.4652C144.844 97.1445 144.844 96.8237 144.908 96.5029C145.357 93.8726 147.666 91.8512 150.456 91.8505C153.215 91.8498 155.525 93.87 155.975 96.5001C156.039 96.8208 156.071 97.1416 156.071 97.4623C156.071 97.8152 156.039 98.1359 155.975 98.4246L153.377 98.4253L147.507 98.4268C147.86 99.9984 149.047 101.153 150.459 101.152C151.293 101.152 152.062 100.735 152.64 100.029L155.43 100.029C154.5 101.857 152.608 103.076 150.459 103.077ZM150.457 93.7751C149.046 93.7754 147.859 94.9625 147.507 96.5023L153.376 96.5008C153.023 94.9612 151.836 93.7747 150.457 93.7751ZM160.738 97.4611L160.74 102.754L158.174 102.754L158.171 92.2014L160.737 92.2007L160.737 92.9385C161.635 92.2646 162.726 91.8474 163.944 91.8471C164.105 91.847 164.265 91.879 164.426 91.879L164.426 93.8677C164.202 93.8036 163.977 93.7716 163.785 93.7716C162.085 93.7721 160.738 95.4404 160.738 97.4611Z" fill="#4F3895"/>
<g clip-path="url(#clip0_249_1876)">
<path d="M261.444 122.488L260.432 139.759C260.376 140.719 259.55 141.453 258.59 141.397L230.701 139.762C229.741 139.706 229.008 138.881 229.064 137.921L230.076 120.65L246.347 119.696L261.444 122.488Z" fill="#036C70"/>
<path d="M232.927 101.741L260.816 103.375C261.776 103.431 262.51 104.256 262.453 105.216L261.441 122.488L230.073 120.65L231.086 103.378C231.142 102.418 231.967 101.684 232.927 101.741Z" fill="#37C6D0"/>
<path d="M246.906 126.405L256.412 126.962L255.855 136.468L246.349 135.91L246.906 126.405Z" fill="#1A9BA1"/>
<path d="M252.16 118.129C255.31 118.313 258.013 115.909 258.197 112.76C258.382 109.61 255.978 106.907 252.828 106.722C249.678 106.538 246.975 108.941 246.791 112.091C246.606 115.241 249.01 117.944 252.16 118.129Z" fill="#1A9BA1"/>
<path d="M252.326 115.277C253.901 115.369 255.252 114.167 255.345 112.592C255.437 111.018 254.235 109.666 252.66 109.574C251.085 109.481 249.734 110.683 249.641 112.258C249.549 113.833 250.751 115.185 252.326 115.277Z" fill="#036C70"/>
<path opacity="0.1" d="M242.31 109.921L230.742 109.243L229.35 133.007L240.918 133.685C241.878 133.741 242.703 133.007 242.759 132.047L243.948 111.762C244.004 110.802 243.27 109.977 242.31 109.921Z" fill="black"/>
<path opacity="0.2" d="M241.305 110.816L230.688 110.194L229.295 133.957L239.912 134.579C240.872 134.636 241.698 133.902 241.754 132.942L242.943 112.657C242.999 111.697 242.265 110.872 241.305 110.816Z" fill="black"/>
<path opacity="0.2" d="M241.305 110.816L230.688 110.194L229.406 132.056L240.024 132.678C240.984 132.735 241.809 132.001 241.865 131.041L242.943 112.657C242.999 111.697 242.265 110.872 241.305 110.816Z" fill="black"/>
<path opacity="0.2" d="M240.355 110.76L230.688 110.194L229.406 132.056L239.073 132.623C240.033 132.679 240.858 131.945 240.915 130.985L241.992 112.602C242.048 111.642 241.315 110.816 240.355 110.76Z" fill="black"/>
<path d="M222.923 109.738L240.347 110.76C241.307 110.816 242.04 111.641 241.984 112.601L240.963 130.024C240.907 130.984 240.082 131.718 239.122 131.662L221.698 130.641C220.738 130.594 220.004 129.769 220.06 128.809L221.082 111.376C221.138 110.416 221.963 109.682 222.923 109.738Z" fill="url(#paint0_linear_249_1876)"/>
<path d="M234.773 117.091L229.868 116.803L229.687 119.893L234.259 120.16L234.152 121.995L229.58 121.727L229.312 126.29L227.098 126.16L227.762 114.829L234.891 115.247L234.773 117.091Z" fill="white"/>
</g>
<path d="M276.24 129.318L277.127 114.176L286.518 114.726L286.402 116.693L279.297 116.277L279.027 120.89L285.459 121.267L285.344 123.227L278.912 122.85L278.525 129.452L276.24 129.318ZM292.615 130.508C291.551 130.446 290.636 130.147 289.871 129.613C289.106 129.078 288.53 128.359 288.142 127.456C287.755 126.553 287.596 125.515 287.665 124.342C287.734 123.164 288.013 122.147 288.504 121.29C288.994 120.433 289.651 119.784 290.473 119.343C291.295 118.901 292.238 118.712 293.303 118.774C294.368 118.837 295.283 119.135 296.048 119.669C296.813 120.204 297.389 120.925 297.776 121.833C298.163 122.741 298.322 123.784 298.253 124.962C298.184 126.136 297.904 127.148 297.414 128C296.924 128.851 296.268 129.498 295.446 129.939C294.624 130.381 293.68 130.57 292.615 130.508ZM292.732 128.653C293.422 128.693 294.004 128.544 294.479 128.206C294.954 127.868 295.318 127.402 295.57 126.808C295.827 126.215 295.977 125.554 296.02 124.824C296.063 124.1 295.991 123.428 295.804 122.808C295.623 122.184 295.317 121.674 294.885 121.278C294.453 120.882 293.892 120.663 293.202 120.623C292.507 120.582 291.92 120.733 291.44 121.076C290.964 121.419 290.598 121.89 290.34 122.488C290.088 123.082 289.941 123.741 289.898 124.465C289.855 125.195 289.925 125.869 290.106 126.488C290.292 127.107 290.601 127.613 291.034 128.004C291.471 128.396 292.037 128.612 292.732 128.653ZM300.807 130.758L301.472 119.401L303.609 119.527L303.504 121.331L303.622 121.338C303.865 120.738 304.258 120.279 304.801 119.96C305.349 119.636 305.956 119.493 306.621 119.532C306.759 119.54 306.921 119.555 307.108 119.576C307.3 119.597 307.45 119.618 307.557 119.639L307.433 121.754C307.346 121.724 307.19 121.688 306.965 121.645C306.74 121.597 306.514 121.566 306.288 121.553C305.765 121.522 305.293 121.606 304.871 121.804C304.454 121.997 304.116 122.281 303.856 122.657C303.597 123.028 303.453 123.459 303.424 123.952L303.018 130.888L300.807 130.758ZM309.214 131.251L309.88 119.894L312.002 120.018L311.893 121.867L312.034 121.875C312.307 121.263 312.723 120.798 313.28 120.479C313.839 120.156 314.492 120.016 315.241 120.06C316.001 120.104 316.626 120.319 317.118 120.704C317.615 121.089 317.968 121.6 318.178 122.235L318.296 122.242C318.603 121.652 319.063 121.194 319.675 120.869C320.288 120.539 321.004 120.398 321.822 120.445C322.852 120.506 323.674 120.878 324.286 121.562C324.904 122.246 325.175 123.239 325.099 124.54L324.652 132.156L322.442 132.026L322.876 124.617C322.921 123.849 322.744 123.279 322.345 122.91C321.946 122.54 321.456 122.338 320.875 122.304C320.155 122.262 319.583 122.451 319.157 122.871C318.732 123.286 318.5 123.839 318.459 124.529L318.035 131.768L315.832 131.639L316.274 124.09C316.31 123.473 316.147 122.967 315.784 122.57C315.422 122.172 314.933 121.956 314.316 121.92C313.897 121.895 313.504 121.983 313.136 122.184C312.773 122.381 312.472 122.667 312.232 123.044C311.998 123.421 311.865 123.866 311.835 124.378L311.425 131.38L309.214 131.251ZM337.045 124.268L335.021 124.506C334.952 124.244 334.833 123.993 334.664 123.75C334.5 123.508 334.27 123.304 333.973 123.138C333.676 122.973 333.298 122.876 332.84 122.85C332.214 122.813 331.683 122.923 331.248 123.179C330.813 123.431 330.582 123.776 330.556 124.214C330.534 124.594 330.657 124.908 330.924 125.156C331.192 125.404 331.634 125.62 332.251 125.805L334.031 126.325C335.062 126.627 335.819 127.045 336.302 127.578C336.785 128.111 337.003 128.779 336.956 129.583C336.916 130.263 336.684 130.857 336.258 131.367C335.838 131.871 335.269 132.253 334.551 132.513C333.839 132.773 333.024 132.876 332.107 132.822C330.835 132.748 329.814 132.416 329.042 131.827C328.271 131.232 327.823 130.427 327.7 129.411L329.856 129.211C329.956 129.776 330.205 130.213 330.602 130.523C331 130.829 331.531 131.001 332.197 131.04C332.921 131.082 333.509 130.966 333.961 130.69C334.412 130.41 334.651 130.051 334.677 129.612C334.698 129.257 334.582 128.951 334.33 128.694C334.083 128.437 333.692 128.231 333.157 128.076L331.259 127.542C330.214 127.239 329.452 126.808 328.976 126.251C328.504 125.694 328.291 125.011 328.339 124.203C328.378 123.533 328.6 122.957 329.004 122.476C329.408 121.996 329.948 121.634 330.625 121.392C331.303 121.145 332.068 121.046 332.92 121.096C334.148 121.168 335.098 121.491 335.772 122.064C336.446 122.633 336.87 123.368 337.045 124.268Z" fill="#333333"/>
<defs>
<linearGradient id="paint0_linear_249_1876" x1="224.896" y1="108.488" x2="237.157" y2="132.923" gradientUnits="userSpaceOnUse">
<stop stop-color="#058F92"/>
<stop offset="0.5" stop-color="#038489"/>
<stop offset="1" stop-color="#026D71"/>
</linearGradient>
<clipPath id="clip0_249_1876">
<rect width="40.9435" height="38.0938" fill="white" transform="translate(221.684 101.078) rotate(3.35394)"/>
</clipPath>
</defs>
</svg>
