<svg width="612" height="630" viewBox="0 0 612 630" fill="none" xmlns="http://www.w3.org/2000/svg">
<path opacity="0.4" fill-rule="evenodd" clip-rule="evenodd" d="M24.8461 309.062C25.5584 308.808 26.3081 308.471 26.8861 307.982C27.5727 307.402 27.8519 306.655 28.0394 305.869C28.2802 304.858 28.3764 303.782 28.6683 302.77C28.7763 302.394 28.9843 302.252 29.0736 302.189C29.2992 302.03 29.5272 301.987 29.7417 302.003C29.996 302.022 30.3452 302.118 30.5749 302.544C30.6076 302.605 30.6502 302.698 30.6789 302.825C30.6997 302.919 30.7132 303.21 30.7354 303.331C30.7906 303.627 30.8369 303.924 30.8803 304.222C31.0248 305.214 31.1079 306.056 31.5644 306.968C32.1838 308.205 32.8045 308.962 33.6462 309.297C34.4601 309.621 35.4333 309.56 36.6766 309.306C36.795 309.277 36.912 309.253 37.0279 309.233C37.5761 309.137 38.1001 309.497 38.2078 310.043C38.3155 310.589 37.9671 311.121 37.4238 311.241C37.3104 311.265 37.1986 311.289 37.0881 311.311C35.4079 311.727 33.4628 313.211 32.3324 314.511C31.984 314.912 31.4739 316.033 30.9536 316.747C30.5696 317.275 30.138 317.622 29.7757 317.745C29.5329 317.828 29.3282 317.815 29.1592 317.773C28.9135 317.713 28.7096 317.58 28.5532 317.368C28.4681 317.252 28.3891 317.097 28.3514 316.899C28.3334 316.803 28.3313 316.561 28.3318 316.451C28.2257 316.087 28.0959 315.73 28.0014 315.362C27.7758 314.484 27.3332 313.928 26.8075 313.194C26.3158 312.506 25.7877 312.074 25.0135 311.73C24.9128 311.705 24.1002 311.506 23.8132 311.392C23.3939 311.225 23.1941 310.944 23.1217 310.793C22.9984 310.537 22.9858 310.313 23.0103 310.126C23.0468 309.851 23.1704 309.615 23.3898 309.424C23.5258 309.306 23.7288 309.191 24.0007 309.135C24.2107 309.091 24.7679 309.066 24.8461 309.062ZM29.6136 307.631C29.6513 307.715 29.6914 307.799 29.734 307.884C30.6412 309.696 31.6557 310.708 32.8888 311.199L32.9302 311.215C32.1052 311.827 31.3585 312.512 30.7878 313.168C30.5528 313.438 30.2416 314 29.9055 314.575C29.6001 313.582 29.1006 312.881 28.4726 312.002C27.9928 311.332 27.49 310.828 26.8722 310.417C27.3516 310.171 27.8089 309.883 28.2073 309.546C28.8705 308.986 29.309 308.336 29.6136 307.631Z" fill="#9275EA"/>
<g filter="url(#filter0_f_2279_102)">
<path fill-rule="evenodd" clip-rule="evenodd" d="M527.318 126.188C534.763 126.367 542.371 126.008 549.489 128.554C549.913 128.704 550.38 128.486 550.533 128.061C550.683 127.637 550.465 127.17 550.04 127.017C542.756 124.412 534.975 124.739 527.357 124.556C526.907 124.543 526.532 124.902 526.522 125.352C526.509 125.803 526.868 126.175 527.318 126.188Z" fill="#9275EA"/>
<path fill-rule="evenodd" clip-rule="evenodd" d="M526.649 115.379C528.97 113.244 531.502 111.645 534.564 110.852C535.001 110.739 535.262 110.294 535.151 109.858C535.037 109.421 534.59 109.159 534.156 109.272C530.827 110.134 528.069 111.858 525.546 114.178C525.213 114.483 525.19 115 525.497 115.331C525.8 115.662 526.319 115.684 526.649 115.379Z" fill="#9275EA"/>
<path fill-rule="evenodd" clip-rule="evenodd" d="M520.193 92.0687C521.257 88.4214 523.353 85.5683 526.564 83.5079C526.943 83.2647 527.054 82.7595 526.809 82.3806C526.568 82.0017 526.062 81.8914 525.683 82.1345C522.129 84.4159 519.805 87.5732 518.627 91.6114C518.5 92.0435 518.751 92.4972 519.182 92.6232C519.616 92.7495 520.069 92.5008 520.193 92.0687Z" fill="#9275EA"/>
<path fill-rule="evenodd" clip-rule="evenodd" d="M483.525 87.1191C482.892 87.8642 482.324 88.6671 481.841 89.5218C481.626 89.9024 481.247 90.7111 481.188 91.4047C481.123 92.1436 481.374 92.767 482.02 93.0953C482.879 93.5307 483.564 93.4853 484.093 93.222C484.602 92.969 485 92.4719 485.252 91.8055C485.731 90.5316 485.66 88.5848 485.408 87.4739C486.084 86.7767 486.825 86.1445 487.618 85.5825C493.525 81.3967 502.19 82.9402 508.858 89.1987C511.192 91.39 512.315 95.9919 512.899 100.957C513.809 108.688 513.29 117.322 513.219 119.852C513.202 120.477 513.261 120.848 513.294 120.922C513.447 121.286 513.718 121.381 513.907 121.416C514.181 121.465 514.4 121.413 514.576 121.322C514.815 121.196 515.01 120.976 515.102 120.635C515.151 120.447 515.164 120.186 515.157 119.907C515.151 119.713 515.112 119.502 515.151 119.363C515.405 118.474 515.712 117.607 516.012 116.733C517.014 113.796 518.31 111.044 519.749 108.295C524.322 99.5598 528.744 90.3303 536.241 83.6752C536.577 83.3765 536.61 82.8602 536.31 82.5234C536.013 82.1866 535.497 82.1559 535.157 82.4549C527.511 89.2415 522.967 98.63 518.303 107.538C517.08 109.876 515.957 112.218 515.023 114.668C515.118 110.335 515.082 104.337 514.289 99.0301C513.584 94.3104 512.243 90.1393 509.974 88.0091C502.67 81.1529 493.143 79.6657 486.675 84.2512C485.983 84.7421 485.323 85.2819 484.71 85.8674C481.325 79.7561 474.08 77.3066 467.676 80.2296C467.265 80.4166 467.086 80.901 467.272 81.3106C467.461 81.7202 467.944 81.901 468.355 81.714C474.125 79.0802 480.669 81.4307 483.525 87.1191ZM483.998 89.1651C483.734 89.5385 483.489 89.9256 483.261 90.3257C483.14 90.5405 482.931 90.9533 482.843 91.3574C482.823 91.452 482.82 91.6002 482.82 91.6687C483.045 91.7797 483.222 91.8332 483.365 91.7611C483.545 91.6723 483.636 91.4634 483.724 91.2301C483.946 90.6446 484.018 89.8684 483.998 89.1651Z" fill="#9275EA"/>
</g>
<g opacity="0.5" clip-path="url(#clip0_2279_102)" filter="url(#filter1_f_2279_102)">
<path fill-rule="evenodd" clip-rule="evenodd" d="M274.082 539.341C274.794 539.087 275.544 538.75 276.122 538.261C276.809 537.681 277.088 536.934 277.275 536.148C277.516 535.137 277.612 534.061 277.904 533.049C278.012 532.673 278.22 532.531 278.309 532.468C278.535 532.309 278.763 532.266 278.978 532.282C279.232 532.3 279.581 532.397 279.811 532.823C279.843 532.884 279.886 532.977 279.915 533.104C279.936 533.197 279.949 533.489 279.971 533.61C280.026 533.906 280.073 534.202 280.116 534.501C280.261 535.492 280.344 536.335 280.8 537.246C281.42 538.484 282.04 539.241 282.882 539.576C283.696 539.9 284.669 539.839 285.912 539.585C286.031 539.556 286.148 539.532 286.264 539.512C286.812 539.416 287.336 539.776 287.444 540.322C287.551 540.868 287.203 541.399 286.66 541.519C286.546 541.544 286.434 541.568 286.324 541.59C284.644 542.006 282.699 543.49 281.568 544.79C281.22 545.191 280.71 546.311 280.189 547.026C279.805 547.554 279.374 547.901 279.012 548.024C278.769 548.107 278.564 548.094 278.395 548.052C278.149 547.992 277.945 547.859 277.789 547.647C277.704 547.531 277.625 547.376 277.587 547.178C277.569 547.082 277.567 546.84 277.568 546.73C277.462 546.365 277.332 546.009 277.237 545.641C277.012 544.763 276.569 544.207 276.043 543.473C275.552 542.785 275.024 542.353 274.249 542.009C274.149 541.984 273.336 541.785 273.049 541.671C272.63 541.503 272.43 541.223 272.358 541.072C272.234 540.816 272.222 540.592 272.246 540.405C272.283 540.129 272.406 539.894 272.626 539.703C272.762 539.585 272.965 539.47 273.237 539.414C273.447 539.37 274.004 539.345 274.082 539.341ZM278.849 537.91C278.887 537.994 278.927 538.078 278.97 538.163C279.877 539.975 280.892 540.987 282.125 541.478L282.166 541.494C281.341 542.106 280.594 542.791 280.024 543.447C279.789 543.717 279.477 544.278 279.141 544.854C278.836 543.861 278.336 543.159 277.708 542.281C277.229 541.611 276.726 541.107 276.108 540.696C276.587 540.45 277.045 540.161 277.443 539.825C278.106 539.264 278.545 538.615 278.849 537.91Z" fill="#9275EA"/>
</g>
<g opacity="0.3" clip-path="url(#clip1_2279_102)" filter="url(#filter2_f_2279_102)">
<path fill-rule="evenodd" clip-rule="evenodd" d="M497.219 362.75C497.124 362.186 497.053 361.628 497.006 361.071C496.937 360.234 496.98 359.392 496.955 358.555C496.944 358.2 496.902 357.275 496.919 357.142C497.074 355.983 498.01 355.805 498.284 355.774C498.416 355.755 499.776 355.603 500.069 357.111C500.429 358.955 500.544 360.811 500.417 362.629C500.714 364.175 501.222 365.715 501.893 367.109C504.563 372.653 509.651 373.192 515.164 373.141C516.011 373.128 516.715 373.793 516.76 374.636C516.804 375.485 516.173 376.22 515.329 376.296C512.248 376.594 506.781 379.065 504.891 381.637C504.496 382.176 504.266 383.475 503.961 384.748C503.537 386.516 503.032 388.265 502.466 389C502.381 389.114 501.349 390.28 501.041 390.451C500.301 390.856 499.709 390.622 499.372 390.406C499.036 390.191 498.655 389.767 498.503 389.063C498.344 388.328 498.478 386.82 498.454 386.497C498.364 385.325 498.129 383.025 497.651 381.048C497.393 379.984 497.118 379.002 496.663 378.514C494.979 376.708 492.286 376.974 490.018 377.272C489.758 377.304 489.498 377.342 489.238 377.373C488.315 377.646 487.334 377.848 486.299 377.969C484.734 378.153 484.477 376.714 484.463 376.619C484.434 376.41 484.325 375.333 485.505 374.902C485.633 374.858 486.582 374.649 486.948 374.566C487.457 374.452 487.972 374.364 488.49 374.281C493.83 372.621 496.731 367.958 497.219 362.75ZM499.052 368.509C501.068 372.678 504.128 374.693 507.755 375.606H507.754C505.49 376.79 503.43 378.273 502.338 379.762C501.924 380.326 501.544 381.46 501.201 382.734C501.015 381.549 500.764 380.288 500.433 379.211C500.056 377.982 499.548 376.961 498.982 376.353C497.888 375.181 496.516 374.528 495.04 374.205C496.807 372.64 498.146 370.689 499.052 368.509Z" fill="#9275EA"/>
</g>
<g opacity="0.5" clip-path="url(#clip2_2279_102)" filter="url(#filter3_f_2279_102)">
<path fill-rule="evenodd" clip-rule="evenodd" d="M485.757 317.562C485.71 317.28 485.674 317.002 485.651 316.723C485.616 316.305 485.638 315.883 485.625 315.465C485.62 315.288 485.599 314.825 485.607 314.759C485.685 314.179 486.153 314.09 486.29 314.074C486.356 314.065 487.036 313.989 487.182 314.743C487.362 315.665 487.42 316.593 487.356 317.502C487.505 318.275 487.759 319.045 488.094 319.742C489.429 322.514 491.973 322.783 494.729 322.758C495.153 322.752 495.505 323.084 495.527 323.506C495.55 323.93 495.234 324.298 494.812 324.336C493.272 324.484 490.538 325.72 489.593 327.006C489.395 327.275 489.28 327.925 489.128 328.562C488.916 329.446 488.664 330.32 488.381 330.687C488.338 330.744 487.822 331.327 487.668 331.413C487.298 331.616 487.002 331.498 486.834 331.391C486.666 331.283 486.475 331.071 486.399 330.719C486.32 330.352 486.387 329.598 486.374 329.436C486.329 328.85 486.212 327.7 485.973 326.712C485.844 326.179 485.707 325.688 485.479 325.444C484.637 324.541 483.291 324.675 482.157 324.823C482.027 324.839 481.896 324.858 481.767 324.874C481.305 325.01 480.815 325.112 480.297 325.172C479.515 325.264 479.386 324.545 479.379 324.497C479.365 324.393 479.31 323.854 479.9 323.639C479.964 323.616 480.439 323.512 480.622 323.471C480.876 323.414 481.134 323.369 481.392 323.328C484.063 322.498 485.513 320.166 485.757 317.562ZM486.674 320.442C487.682 322.527 489.212 323.534 491.025 323.99H491.025C489.893 324.583 488.863 325.324 488.317 326.068C488.11 326.35 487.92 326.918 487.748 327.554C487.655 326.962 487.53 326.331 487.364 325.793C487.176 325.178 486.922 324.668 486.639 324.364C486.092 323.778 485.406 323.452 484.668 323.29C485.551 322.508 486.221 321.532 486.674 320.442Z" fill="#9275EA"/>
</g>
<g opacity="0.7" filter="url(#filter4_f_2279_102)">
<path fill-rule="evenodd" clip-rule="evenodd" d="M80.3034 144.273C74.9758 141.747 69.2524 139.954 63.693 138.257C62.4948 137.895 61.2133 138.55 60.9214 139.731C60.542 140.898 61.2299 142.143 62.3405 142.489C67.7297 144.129 73.2848 145.848 78.3602 148.271C79.4408 148.793 80.7808 148.327 81.329 147.226C81.877 146.125 81.3839 144.796 80.3034 144.273Z" fill="#9275EA"/>
<path fill-rule="evenodd" clip-rule="evenodd" d="M101.069 124.907C93.6339 114.178 84.8594 104.437 77.6408 93.4912C77.0045 92.4754 75.6136 92.1891 74.5986 92.8625C73.5835 93.5367 73.2598 94.9069 73.9835 95.9376C81.1975 106.911 89.9674 116.678 97.3984 127.434C98.1258 128.444 99.5223 128.695 100.541 127.998C101.473 127.287 101.797 125.917 101.069 124.907Z" fill="#9275EA"/>
<path fill-rule="evenodd" clip-rule="evenodd" d="M123.986 92.4413C123.35 97.7463 122.713 103.051 122.076 108.357C121.87 109.562 122.761 110.672 123.995 110.822C125.229 110.972 126.278 110.096 126.484 108.89C127.123 103.576 127.761 98.2634 128.399 92.9505C128.517 91.7307 127.626 90.6272 126.39 90.4836C125.242 90.3549 124.105 91.2224 123.986 92.4413Z" fill="#9275EA"/>
</g>
<path fill-rule="evenodd" clip-rule="evenodd" d="M481.143 435.864C446.469 480.638 412.951 531.058 350.119 537.502C285.545 544.124 211.588 516.84 158.146 468.989C109.751 425.655 98.3041 363.592 92.3952 306.734C87.6004 260.596 105.158 222.184 128.795 186.551C153.275 149.646 179.367 111.154 227.448 103.134C279.713 94.4172 336.413 115.132 388.661 143.208C452.915 177.734 531.409 213.411 551.604 277.32C571.98 341.798 517.718 388.634 481.143 435.864Z" fill="#E3DCF8" fill-opacity="0.6"/>
<g clip-path="url(#clip3_2279_102)">
<path d="M251 310V350.988C251 353.266 249.15 355.116 246.872 355.116H180.686C178.408 355.116 176.558 353.266 176.558 350.988V310L214.907 305.488L251 310Z" fill="#036C70"/>
<path d="M180.686 264.884H246.872C249.15 264.884 251 266.734 251 269.012V310H176.558V269.012C176.558 266.734 178.408 264.884 180.686 264.884Z" fill="#37C6D0"/>
<path d="M217.163 321.279H239.721V343.837H217.163V321.279Z" fill="#1A9BA1"/>
<path d="M228.442 300.977C235.917 300.977 241.977 294.917 241.977 287.442C241.977 279.967 235.917 273.907 228.442 273.907C220.967 273.907 214.907 279.967 214.907 287.442C214.907 294.917 220.967 300.977 228.442 300.977Z" fill="#1A9BA1"/>
<path d="M228.442 294.209C232.18 294.209 235.21 291.179 235.21 287.442C235.21 283.704 232.18 280.674 228.442 280.674C224.705 280.674 221.675 283.704 221.675 287.442C221.675 291.179 224.705 294.209 228.442 294.209Z" fill="#036C70"/>
<path opacity="0.1" d="M204.011 282.93H176.558V339.326H204.011C206.29 339.326 208.14 337.476 208.14 335.197V287.058C208.14 284.78 206.29 282.93 204.011 282.93Z" fill="black"/>
<path opacity="0.2" d="M201.756 285.186H176.558V341.581H201.756C204.034 341.581 205.884 339.732 205.884 337.453V289.314C205.884 287.036 204.034 285.186 201.756 285.186Z" fill="black"/>
<path opacity="0.2" d="M201.756 285.186H176.558V337.07H201.756C204.034 337.07 205.884 335.22 205.884 332.942V289.314C205.884 287.036 204.034 285.186 201.756 285.186Z" fill="black"/>
<path opacity="0.2" d="M199.5 285.186H176.558V337.07H199.5C201.778 337.07 203.628 335.22 203.628 332.942V289.314C203.628 287.036 201.778 285.186 199.5 285.186Z" fill="black"/>
<path d="M158.128 285.186H199.477C201.756 285.186 203.605 287.036 203.605 289.314V330.663C203.605 332.942 201.756 334.791 199.477 334.791H158.128C155.85 334.814 154 332.964 154 330.686V289.314C154 287.036 155.85 285.186 158.128 285.186Z" fill="url(#paint0_linear_2279_102)"/>
<path d="M187.183 300.931H175.543V308.263H186.394V312.617H175.543V323.444H170.287V296.555H187.206L187.183 300.931Z" fill="white"/>
</g>
<path d="M296.275 332L290.593 303.44H297.165L300.08 323.946L302.946 303.44H309.419L303.736 332H296.275ZM321.292 332.445C318.888 332.445 316.911 331.802 315.363 330.518C313.815 329.233 312.711 327.355 312.052 324.885L317.043 322.958C317.438 324.506 317.965 325.692 318.624 326.515C319.283 327.339 320.139 327.751 321.193 327.751C321.984 327.751 322.577 327.553 322.972 327.158C323.368 326.762 323.565 326.219 323.565 325.527C323.565 324.736 323.318 324.028 322.824 323.402C322.363 322.744 321.556 321.936 320.403 320.981L316.944 318.066C315.692 316.979 314.671 315.875 313.881 314.755C313.123 313.602 312.744 312.169 312.744 310.456C312.744 308.908 313.09 307.591 313.782 306.504C314.506 305.384 315.478 304.527 316.697 303.934C317.949 303.308 319.332 302.995 320.848 302.995C323.153 302.995 324.998 303.687 326.382 305.071C327.798 306.421 328.704 308.2 329.099 310.407L324.702 312.285C324.537 311.494 324.29 310.769 323.961 310.111C323.664 309.419 323.269 308.859 322.775 308.431C322.281 308.002 321.704 307.788 321.045 307.788C320.353 307.788 319.793 308.002 319.365 308.431C318.97 308.859 318.772 309.402 318.772 310.061C318.772 310.621 319.003 311.198 319.464 311.791C319.958 312.384 320.65 313.059 321.539 313.816L325.048 316.979C325.805 317.638 326.53 318.346 327.222 319.104C327.913 319.861 328.49 320.718 328.951 321.673C329.412 322.595 329.643 323.666 329.643 324.885C329.643 326.532 329.264 327.915 328.506 329.035C327.782 330.155 326.777 331.012 325.492 331.605C324.241 332.165 322.841 332.445 321.292 332.445Z" fill="#755DB8"/>
<path d="M403.682 294.234C403.682 297.944 400.507 300.952 396.591 300.952C392.675 300.952 389.5 297.944 389.5 294.234C389.5 290.523 392.675 287.619 396.591 287.619C400.507 287.619 403.682 290.523 403.682 294.234Z" fill="#4F3895"/>
<path d="M428.5 294.286C428.5 297.968 425.325 300.952 421.409 300.952C417.493 300.952 414.318 297.968 414.318 294.286C414.318 290.604 417.493 287.619 421.409 287.619C425.325 287.619 428.5 290.604 428.5 294.286Z" fill="#4F3895"/>
<path fill-rule="evenodd" clip-rule="evenodd" d="M379.75 255C374.365 255 370 259.69 370 265.476V354.524C370 360.31 374.365 365 379.75 365H438.25C443.635 365 448 360.31 448 354.524V265.476C448 259.69 443.635 255 438.25 255H379.75ZM391.938 281.19C385.207 281.19 379.75 287.053 379.75 294.286C379.75 301.518 385.207 307.381 391.938 307.381H426.062C432.793 307.381 438.25 301.518 438.25 294.286C438.25 287.053 432.793 281.19 426.062 281.19H391.938Z" fill="#4F3895"/>
<defs>
<filter id="filter0_f_2279_102" x="463.65" y="75.4518" width="90.4787" height="56.6979" filterUnits="userSpaceOnUse" color-interpolation-filters="sRGB">
<feFlood flood-opacity="0" result="BackgroundImageFix"/>
<feBlend mode="normal" in="SourceGraphic" in2="BackgroundImageFix" result="shape"/>
<feGaussianBlur stdDeviation="1.77409" result="effect1_foregroundBlur_2279_102"/>
</filter>
<filter id="filter1_f_2279_102" x="270.275" y="530.505" width="19.515" height="19.515" filterUnits="userSpaceOnUse" color-interpolation-filters="sRGB">
<feFlood flood-opacity="0" result="BackgroundImageFix"/>
<feBlend mode="normal" in="SourceGraphic" in2="BackgroundImageFix" result="shape"/>
<feGaussianBlur stdDeviation="0.887043" result="effect1_foregroundBlur_2279_102"/>
</filter>
<filter id="filter2_f_2279_102" x="481.138" y="353.73" width="39.537" height="39.537" filterUnits="userSpaceOnUse" color-interpolation-filters="sRGB">
<feFlood flood-opacity="0" result="BackgroundImageFix"/>
<feBlend mode="normal" in="SourceGraphic" in2="BackgroundImageFix" result="shape"/>
<feGaussianBlur stdDeviation="1.01376" result="effect1_foregroundBlur_2279_102"/>
</filter>
<filter id="filter3_f_2279_102" x="477.412" y="312.749" width="20.3765" height="20.3765" filterUnits="userSpaceOnUse" color-interpolation-filters="sRGB">
<feFlood flood-opacity="0" result="BackgroundImageFix"/>
<feBlend mode="normal" in="SourceGraphic" in2="BackgroundImageFix" result="shape"/>
<feGaussianBlur stdDeviation="0.658946" result="effect1_foregroundBlur_2279_102"/>
</filter>
<filter id="filter4_f_2279_102" x="56.4137" y="77.4557" width="76.673" height="81.3185" filterUnits="userSpaceOnUse" color-interpolation-filters="sRGB">
<feFlood flood-opacity="0" result="BackgroundImageFix"/>
<feBlend mode="normal" in="SourceGraphic" in2="BackgroundImageFix" result="shape"/>
<feGaussianBlur stdDeviation="1.77409" result="effect1_foregroundBlur_2279_102"/>
</filter>
<linearGradient id="paint0_linear_2279_102" x1="162.621" y1="281.955" x2="195.007" y2="338.045" gradientUnits="userSpaceOnUse">
<stop stop-color="#058F92"/>
<stop offset="0.5" stop-color="#038489"/>
<stop offset="1" stop-color="#026D71"/>
</linearGradient>
<clipPath id="clip0_2279_102">
<rect width="15.9668" height="15.9668" fill="white" transform="translate(272.049 532.279)"/>
</clipPath>
<clipPath id="clip1_2279_102">
<rect width="35.4817" height="35.4817" fill="white" transform="translate(483.165 355.757)"/>
</clipPath>
<clipPath id="clip2_2279_102">
<rect width="17.7409" height="17.7409" fill="white" transform="translate(478.73 314.066)"/>
</clipPath>
<clipPath id="clip3_2279_102">
<rect width="97" height="90.2488" fill="white" transform="translate(154 264.875)"/>
</clipPath>
</defs>
</svg>
