<svg width="310" height="250" viewBox="0 0 310 250" fill="none" xmlns="http://www.w3.org/2000/svg">
<ellipse cx="215.021" cy="152.022" rx="92.0211" ry="92.0218" fill="#F1D9FF"/>
<g filter="url(#filter0_d_335_3177)">
<g clip-path="url(#clip0_335_3177)">
<rect width="276" height="31.797" transform="translate(6 41.8066)" fill="#23282D"/>
<g clip-path="url(#clip1_335_3177)">
<path d="M29.6927 52.8418L24.7178 62.5668H20.045L22.1271 58.5365H22.0335C20.3159 60.766 17.7531 62.2341 14.1016 62.5668V58.5923C14.1016 58.5923 16.4376 58.4539 17.8109 57.0105H14.1016V52.8418H18.2702V56.2705L18.3638 56.2699L20.0671 52.8418H23.2204V56.2485H23.314L25.081 52.8418H29.6927Z" fill="white"/>
</g>
<rect x="88.8789" y="56.1855" width="22.9583" height="3.03862" rx="1.35049" fill="#C9C9C9"/>
<rect x="121.289" y="56.1855" width="22.9583" height="3.03862" rx="1.35049" fill="#C9C9C9"/>
<rect x="153.703" y="56.1855" width="22.9583" height="3.03862" rx="1.35049" fill="#C9C9C9"/>
<rect x="186.113" y="56.1855" width="22.9583" height="3.03862" rx="1.35049" fill="#C9C9C9"/>
<rect x="218.527" y="56.1855" width="22.9583" height="3.03862" rx="1.35049" fill="#C9C9C9"/>
<rect x="250.938" y="56.1855" width="22.9583" height="3.03862" rx="1.35049" fill="#C9C9C9"/>
<g clip-path="url(#clip2_335_3177)">
<rect width="276" height="134.375" transform="translate(6 73.6035)" fill="white"/>
<rect width="47.5529" height="134.084" transform="translate(234.414 73.5186)" fill="#292929"/>
<rect x="240.645" y="81.3125" width="35.08" height="7.016" rx="1.35049" fill="#484848"/>
<rect x="240.645" y="96.123" width="35.08" height="22.6071" rx="1.35049" fill="#484848"/>
<rect width="10.9138" height="134.084" transform="translate(6 73.5186)" fill="#292929"/>
<rect x="44.5617" y="89.1749" width="158.866" height="102.819" stroke="#3858E9" stroke-width="0.779556"/>
<g filter="url(#filter1_d_335_3177)">
<g clip-path="url(#clip3_335_3177)">
<rect x="53.5273" y="98.1396" width="140.936" height="84.8892" rx="3.62537" fill="white"/>
<path d="M65.7261 110.107C65.7902 110.208 65.8154 110.299 65.8017 110.382C65.7879 110.464 65.7513 110.533 65.6917 110.588C65.6321 110.648 65.5588 110.684 65.4717 110.698C65.3846 110.717 65.2975 110.707 65.2104 110.671C65.1233 110.639 65.05 110.574 64.9904 110.478L64.5161 109.715C64.4519 109.61 64.3648 109.529 64.2548 109.474C64.1494 109.424 64.0188 109.399 63.8629 109.399L64.5436 109.131C64.759 109.131 64.9309 109.17 65.0592 109.248C65.1875 109.321 65.3113 109.452 65.4304 109.639L65.7261 110.107ZM63.8698 109.399C63.4023 109.399 62.9921 109.296 62.6392 109.089C62.2909 108.883 62.0205 108.594 61.828 108.223C61.6355 107.847 61.5392 107.407 61.5392 106.903C61.5392 106.523 61.5942 106.181 61.7042 105.879C61.8142 105.572 61.97 105.311 62.1717 105.095C62.378 104.875 62.6232 104.708 62.9073 104.593C63.1961 104.474 63.5169 104.414 63.8698 104.414C64.3419 104.414 64.7521 104.518 65.1004 104.724C65.4488 104.926 65.7192 105.212 65.9117 105.583C66.1042 105.954 66.2004 106.392 66.2004 106.896C66.2004 107.277 66.1454 107.621 66.0354 107.928C65.9254 108.235 65.7673 108.498 65.5611 108.718C65.3594 108.938 65.1142 109.108 64.8254 109.227C64.5413 109.342 64.2227 109.399 63.8698 109.399ZM63.8698 108.643C64.1677 108.643 64.4198 108.574 64.6261 108.436C64.8369 108.299 64.9973 108.099 65.1073 107.838C65.2219 107.577 65.2792 107.265 65.2792 106.903C65.2792 106.353 65.1554 105.927 64.9079 105.624C64.665 105.322 64.319 105.171 63.8698 105.171C63.5765 105.171 63.3244 105.239 63.1136 105.377C62.9027 105.51 62.74 105.707 62.6255 105.968C62.5155 106.225 62.4605 106.537 62.4605 106.903C62.4605 107.449 62.5842 107.875 62.8317 108.182C63.0792 108.489 63.4252 108.643 63.8698 108.643ZM68.2296 109.399C67.95 109.399 67.7186 109.348 67.5352 109.248C67.3519 109.142 67.2144 108.986 67.1227 108.78C67.0357 108.574 66.9921 108.317 66.9921 108.01V106.346C66.9921 106.2 67.0288 106.092 67.1021 106.023C67.1754 105.95 67.2809 105.913 67.4184 105.913C67.5559 105.913 67.6613 105.95 67.7346 106.023C67.8125 106.092 67.8515 106.2 67.8515 106.346V108.024C67.8515 108.262 67.8996 108.439 67.9959 108.553C68.0921 108.668 68.2456 108.725 68.4565 108.725C68.6856 108.725 68.8736 108.647 69.0202 108.491C69.1669 108.331 69.2402 108.12 69.2402 107.859V106.346C69.2402 106.2 69.2769 106.092 69.3502 106.023C69.4236 105.95 69.529 105.913 69.6665 105.913C69.804 105.913 69.9094 105.95 69.9827 106.023C70.0606 106.092 70.0996 106.2 70.0996 106.346V108.945C70.0996 109.238 69.9598 109.385 69.6802 109.385C69.5473 109.385 69.4442 109.348 69.3708 109.275C69.2975 109.197 69.2608 109.087 69.2608 108.945V108.423L69.3571 108.629C69.2608 108.876 69.1142 109.067 68.9171 109.199C68.7246 109.332 68.4954 109.399 68.2296 109.399ZM71.4203 109.378C71.2828 109.378 71.1774 109.337 71.104 109.254C71.0307 109.172 70.994 109.057 70.994 108.911V106.388C70.994 106.236 71.0307 106.122 71.104 106.044C71.1774 105.961 71.2828 105.92 71.4203 105.92C71.5578 105.92 71.6632 105.961 71.7365 106.044C71.8144 106.122 71.8534 106.236 71.8534 106.388V108.911C71.8534 109.057 71.8167 109.172 71.7434 109.254C71.6701 109.337 71.5624 109.378 71.4203 109.378ZM71.4203 105.281C71.2599 105.281 71.1338 105.242 71.0422 105.164C70.9551 105.081 70.9115 104.969 70.9115 104.827C70.9115 104.68 70.9551 104.568 71.0422 104.49C71.1338 104.412 71.2599 104.373 71.4203 104.373C71.5853 104.373 71.7113 104.412 71.7984 104.49C71.8855 104.568 71.929 104.68 71.929 104.827C71.929 104.969 71.8855 105.081 71.7984 105.164C71.7113 105.242 71.5853 105.281 71.4203 105.281ZM72.9526 109.33C72.8655 109.33 72.7922 109.309 72.7326 109.268C72.6776 109.222 72.6409 109.165 72.6226 109.096C72.6042 109.028 72.6042 108.954 72.6226 108.876C72.6455 108.794 72.689 108.716 72.7532 108.643L74.5338 106.408V106.614H72.9113C72.8059 106.614 72.7234 106.587 72.6638 106.532C72.6088 106.472 72.5813 106.392 72.5813 106.291C72.5813 106.186 72.6088 106.106 72.6638 106.051C72.7234 105.996 72.8059 105.968 72.9113 105.968H74.9463C75.0471 105.968 75.1296 105.991 75.1938 106.037C75.258 106.078 75.2992 106.133 75.3176 106.202C75.3405 106.271 75.3428 106.344 75.3244 106.422C75.3061 106.5 75.2648 106.573 75.2007 106.642L73.3857 108.911V108.684H75.1044C75.3244 108.684 75.4344 108.792 75.4344 109.007C75.4344 109.108 75.4046 109.188 75.3451 109.248C75.2901 109.303 75.2098 109.33 75.1044 109.33H72.9526Z" fill="#211447"/>
<line x1="53.5273" y1="117.426" x2="194.464" y2="117.426" stroke="#F2F2F2" stroke-width="0.19097"/>
<rect x="61.168" y="129.3" width="6.74043" height="2.33939" rx="1.16969" fill="#E2DDF1"/>
<rect x="61.168" y="134.354" width="6.12766" height="2.33939" rx="1.16969" fill="#E2DDF1"/>
<rect x="61.168" y="139.406" width="5.51489" height="2.33939" rx="1.16969" fill="#E2DDF1"/>
<rect x="61.168" y="144.46" width="6.12766" height="2.33939" rx="1.16969" fill="#E2DDF1"/>
<rect x="61.168" y="123.633" width="47.7957" height="2.67359" rx="1.33679" fill="#E2DDF1"/>
<rect x="61.168" y="157.47" width="5.51489" height="2.33939" rx="1.16969" fill="#E2DDF1"/>
<rect x="61.168" y="162.522" width="6.12766" height="2.33939" rx="1.16969" fill="#E2DDF1"/>
<rect x="61.168" y="167.576" width="4.28936" height="2.33939" rx="1.16969" fill="#E2DDF1"/>
<rect x="61.168" y="172.629" width="12.2553" height="2.33939" rx="1.16969" fill="#E2DDF1"/>
<rect x="61.168" y="151.803" width="53.3106" height="2.67359" rx="1.33679" fill="#E2DDF1"/>
<rect x="161.617" y="171.19" width="27.4043" height="9.23193" rx="1.62256" fill="#F1ECFF"/>
<path d="M165.823 175.523C165.823 175.655 165.703 175.762 165.556 175.762C165.408 175.762 165.289 175.655 165.289 175.523C165.289 175.391 165.408 175.288 165.556 175.288C165.703 175.288 165.823 175.391 165.823 175.523Z" fill="#4F3895"/>
<path d="M166.757 175.525C166.757 175.656 166.637 175.762 166.49 175.762C166.342 175.762 166.223 175.656 166.223 175.525C166.223 175.394 166.342 175.288 166.49 175.288C166.637 175.288 166.757 175.394 166.757 175.525Z" fill="#4F3895"/>
<path fill-rule="evenodd" clip-rule="evenodd" d="M164.922 174.127C164.719 174.127 164.555 174.294 164.555 174.5V177.669C164.555 177.875 164.719 178.042 164.922 178.042H167.124C167.327 178.042 167.491 177.875 167.491 177.669V174.5C167.491 174.294 167.327 174.127 167.124 174.127H164.922ZM165.38 175.059C165.127 175.059 164.922 175.268 164.922 175.525C164.922 175.783 165.127 175.991 165.38 175.991H166.665C166.918 175.991 167.124 175.783 167.124 175.525C167.124 175.268 166.918 175.059 166.665 175.059H165.38Z" fill="#4F3895"/>
<path d="M169.8 176.451V177.801H169.384V176.451V176.139V175.101V174.789H169.8H171.202V175.101H169.8V176.139H170.942V176.451H169.8ZM172.09 177.853C171.587 177.853 171.182 177.448 171.182 176.944C171.182 176.446 171.587 176.035 172.09 176.035C172.589 176.035 172.999 176.446 172.999 176.944C172.999 177.448 172.589 177.853 172.09 177.853ZM172.09 176.347C171.815 176.347 171.597 176.617 171.597 176.944C171.597 177.276 171.815 177.541 172.09 177.541C172.36 177.541 172.584 177.276 172.584 176.944C172.584 176.617 172.36 176.347 172.09 176.347ZM173.754 176.944V177.801H173.339V176.093H173.754V176.212C173.9 176.103 174.076 176.035 174.274 176.035C174.3 176.035 174.325 176.041 174.351 176.041V176.363C174.315 176.352 174.279 176.347 174.248 176.347C173.972 176.347 173.754 176.617 173.754 176.944ZM176.663 176.035C177.078 176.035 177.415 176.389 177.415 176.814V177.801H176.995V176.814C176.995 176.56 176.834 176.347 176.631 176.347C176.434 176.347 176.273 176.555 176.268 176.814H176.273V177.801H175.853V176.814C175.853 176.56 175.692 176.347 175.489 176.347C175.292 176.347 175.131 176.555 175.131 176.809V177.801H174.716V176.087H175.131V176.15C175.24 176.077 175.375 176.035 175.52 176.035C175.749 176.035 175.951 176.145 176.091 176.311C176.226 176.145 176.434 176.035 176.663 176.035ZM178.664 177.853C178.212 177.853 177.838 177.531 177.765 177.1C177.755 177.053 177.755 177.001 177.755 176.944C177.755 176.892 177.755 176.84 177.765 176.788C177.838 176.363 178.212 176.035 178.664 176.035C179.11 176.035 179.484 176.363 179.557 176.788C179.567 176.84 179.572 176.892 179.572 176.944C179.572 177.001 179.567 177.053 179.557 177.1H179.136H178.186C178.243 177.354 178.435 177.541 178.664 177.541C178.799 177.541 178.923 177.474 179.017 177.359H179.469C179.318 177.655 179.012 177.853 178.664 177.853ZM178.664 176.347C178.435 176.347 178.243 176.539 178.186 176.788H179.136C179.079 176.539 178.887 176.347 178.664 176.347ZM181.186 176.939C181.331 177.038 181.424 177.173 181.424 177.323C181.424 177.619 181.071 177.858 180.646 177.858C180.215 177.858 179.867 177.619 179.867 177.323H180.282C180.282 177.443 180.443 177.546 180.646 177.546C180.843 177.546 181.009 177.443 181.009 177.323C181.009 177.204 180.843 177.105 180.646 177.105C180.433 177.105 180.241 177.043 180.1 176.939C179.971 176.845 179.893 176.716 179.893 176.57C179.893 176.274 180.225 176.041 180.646 176.041C181.061 176.041 181.399 176.274 181.399 176.57H180.983C180.983 176.451 180.827 176.352 180.646 176.352C180.459 176.352 180.308 176.451 180.308 176.57C180.308 176.69 180.459 176.794 180.646 176.794C180.853 176.794 181.045 176.845 181.186 176.939ZM182.405 174.686V176.093H182.898V176.404H182.405V177.204C182.405 177.391 182.509 177.541 182.639 177.541H182.794V177.853H182.639C182.275 177.853 181.99 177.567 181.99 177.204V176.404H181.73V176.093H181.99V174.686H182.405ZM184.01 177.853C183.558 177.853 183.185 177.531 183.112 177.1C183.102 177.053 183.102 177.001 183.102 176.944C183.102 176.892 183.102 176.84 183.112 176.788C183.185 176.363 183.558 176.035 184.01 176.035C184.457 176.035 184.831 176.363 184.903 176.788C184.914 176.84 184.919 176.892 184.919 176.944C184.919 177.001 184.914 177.053 184.903 177.1H184.483H183.532C183.59 177.354 183.782 177.541 184.01 177.541C184.145 177.541 184.27 177.474 184.363 177.359H184.815C184.664 177.655 184.358 177.853 184.01 177.853ZM184.01 176.347C183.782 176.347 183.59 176.539 183.532 176.788H184.483C184.426 176.539 184.233 176.347 184.01 176.347ZM185.674 176.944V177.801H185.259V176.093H185.674V176.212C185.82 176.103 185.996 176.035 186.193 176.035C186.219 176.035 186.245 176.041 186.271 176.041V176.363C186.235 176.352 186.199 176.347 186.168 176.347C185.892 176.347 185.674 176.617 185.674 176.944Z" fill="#4F3895"/>
</g>
</g>
<rect x="9.12109" y="77.4141" width="4.67733" height="4.67733" rx="1.35049" fill="#484848"/>
<rect x="9.12109" y="88.3281" width="4.67733" height="4.67733" rx="1.35049" fill="#484848"/>
<rect x="9.12109" y="99.2412" width="4.67733" height="4.67733" rx="1.35049" fill="#484848"/>
<rect x="9.12109" y="110.156" width="4.67733" height="4.67733" rx="1.35049" fill="#484848"/>
<rect x="9.12109" y="121.069" width="4.67733" height="4.67733" rx="1.35049" fill="#484848"/>
<rect x="9.12109" y="131.982" width="4.67733" height="4.67733" rx="1.35049" fill="#484848"/>
<rect x="9.12109" y="142.897" width="4.67733" height="4.67733" rx="1.35049" fill="#484848"/>
<rect x="9.12109" y="199.025" width="4.67733" height="4.67733" rx="1.35049" fill="#484848"/>
</g>
</g>
</g>
<defs>
<filter id="filter0_d_335_3177" x="1.70426" y="39.6588" width="284.591" height="174.763" filterUnits="userSpaceOnUse" color-interpolation-filters="sRGB">
<feFlood flood-opacity="0" result="BackgroundImageFix"/>
<feColorMatrix in="SourceAlpha" type="matrix" values="0 0 0 0 0 0 0 0 0 0 0 0 0 0 0 0 0 0 127 0" result="hardAlpha"/>
<feOffset dy="2.14787"/>
<feGaussianBlur stdDeviation="2.14787"/>
<feComposite in2="hardAlpha" operator="out"/>
<feColorMatrix type="matrix" values="0 0 0 0 0 0 0 0 0 0 0 0 0 0 0 0 0 0 0.08 0"/>
<feBlend mode="normal" in2="BackgroundImageFix" result="effect1_dropShadow_335_3177"/>
<feBlend mode="normal" in="SourceGraphic" in2="effect1_dropShadow_335_3177" result="shape"/>
</filter>
<filter id="filter1_d_335_3177" x="47.655" y="95.2035" width="152.682" height="96.6343" filterUnits="userSpaceOnUse" color-interpolation-filters="sRGB">
<feFlood flood-opacity="0" result="BackgroundImageFix"/>
<feColorMatrix in="SourceAlpha" type="matrix" values="0 0 0 0 0 0 0 0 0 0 0 0 0 0 0 0 0 0 127 0" result="hardAlpha"/>
<feOffset dy="2.93617"/>
<feGaussianBlur stdDeviation="2.93617"/>
<feComposite in2="hardAlpha" operator="out"/>
<feColorMatrix type="matrix" values="0 0 0 0 0 0 0 0 0 0 0 0 0 0 0 0 0 0 0.08 0"/>
<feBlend mode="normal" in2="BackgroundImageFix" result="effect1_dropShadow_335_3177"/>
<feBlend mode="normal" in="SourceGraphic" in2="effect1_dropShadow_335_3177" result="shape"/>
</filter>
<clipPath id="clip0_335_3177">
<rect x="6" y="41.8066" width="276" height="166.172" rx="4.29574" fill="white"/>
</clipPath>
<clipPath id="clip1_335_3177">
<rect width="15.5911" height="15.5911" fill="white" transform="translate(14.1016 49.9092)"/>
</clipPath>
<clipPath id="clip2_335_3177">
<rect width="276" height="134.375" fill="white" transform="translate(6 73.6035)"/>
</clipPath>
<clipPath id="clip3_335_3177">
<rect x="53.5273" y="98.1396" width="140.936" height="84.8892" rx="3.62537" fill="white"/>
</clipPath>
</defs>
</svg>
