<svg width="258" height="210" viewBox="0 0 258 210" fill="none" xmlns="http://www.w3.org/2000/svg">
<g filter="url(#filter0_dd_6272_4581)">
<rect x="22.0117" y="2" width="231.975" height="201.492" rx="3.35449" fill="white" shape-rendering="crispEdges"/>
<path d="M43.9642 17.8391H41.9594C41.9022 17.5103 41.7968 17.219 41.6431 16.9653C41.4894 16.708 41.2982 16.49 41.0695 16.3113C40.8408 16.1326 40.5799 15.9986 40.2869 15.9093C39.9974 15.8164 39.6847 15.7699 39.3488 15.7699C38.752 15.7699 38.2231 15.92 37.7621 16.2202C37.3011 16.5168 36.9401 16.9528 36.6792 17.5281C36.4184 18.0999 36.2879 18.7986 36.2879 19.6241C36.2879 20.4639 36.4184 21.1715 36.6792 21.7469C36.9437 22.3187 37.3046 22.7511 37.7621 23.0441C38.2231 23.3336 38.7502 23.4783 39.3434 23.4783C39.6722 23.4783 39.9795 23.4354 40.2654 23.3497C40.5549 23.2603 40.814 23.1299 41.0427 22.9584C41.275 22.7868 41.4698 22.576 41.627 22.3258C41.7878 22.0757 41.8986 21.7898 41.9594 21.4681L43.9642 21.4788C43.8891 22.0006 43.7265 22.4902 43.4764 22.9476C43.2298 23.4051 42.9064 23.8089 42.5061 24.1591C42.1059 24.5058 41.6377 24.7774 41.1017 24.9739C40.5656 25.1669 39.9706 25.2634 39.3166 25.2634C38.3517 25.2634 37.4905 25.04 36.7329 24.5933C35.9752 24.1466 35.3784 23.5016 34.9424 22.6582C34.5064 21.8148 34.2885 20.8034 34.2885 19.6241C34.2885 18.4412 34.5082 17.4299 34.9478 16.5901C35.3874 15.7467 35.986 15.1016 36.7436 14.6549C37.5012 14.2082 38.3589 13.9848 39.3166 13.9848C39.9277 13.9848 40.4959 14.0706 41.0213 14.2421C41.5466 14.4137 42.0148 14.6656 42.4257 14.998C42.8367 15.3268 43.1744 15.7306 43.4389 16.2095C43.7069 16.6848 43.882 17.228 43.9642 17.8391ZM49.2912 25.2741C48.4871 25.2741 47.7903 25.0972 47.2006 24.7434C46.611 24.3896 46.1535 23.8947 45.8283 23.2585C45.5067 22.6224 45.3459 21.8791 45.3459 21.0286C45.3459 20.178 45.5067 19.4329 45.8283 18.7932C46.1535 18.1535 46.611 17.6568 47.2006 17.303C47.7903 16.9492 48.4871 16.7723 49.2912 16.7723C50.0953 16.7723 50.7922 16.9492 51.3818 17.303C51.9715 17.6568 52.4271 18.1535 52.7487 18.7932C53.074 19.4329 53.2366 20.178 53.2366 21.0286C53.2366 21.8791 53.074 22.6224 52.7487 23.2585C52.4271 23.8947 51.9715 24.3896 51.3818 24.7434C50.7922 25.0972 50.0953 25.2741 49.2912 25.2741ZM49.3019 23.7195C49.7379 23.7195 50.1024 23.5998 50.3955 23.3604C50.6885 23.1174 50.9065 22.7922 51.0495 22.3848C51.196 21.9774 51.2692 21.5235 51.2692 21.0232C51.2692 20.5193 51.196 20.0637 51.0495 19.6563C50.9065 19.2453 50.6885 18.9183 50.3955 18.6753C50.1024 18.4323 49.7379 18.3108 49.3019 18.3108C48.8552 18.3108 48.4836 18.4323 48.1869 18.6753C47.8939 18.9183 47.6741 19.2453 47.5276 19.6563C47.3847 20.0637 47.3132 20.5193 47.3132 21.0232C47.3132 21.5235 47.3847 21.9774 47.5276 22.3848C47.6741 22.7922 47.8939 23.1174 48.1869 23.3604C48.4836 23.5998 48.8552 23.7195 49.3019 23.7195ZM56.8241 20.2888V25.1133H54.8836V16.8795H56.7383V18.2786H56.8348C57.0242 17.8176 57.3262 17.4513 57.7407 17.1797C58.1589 16.9081 58.6753 16.7723 59.2899 16.7723C59.8581 16.7723 60.3531 16.8938 60.7748 17.1368C61.2001 17.3798 61.5288 17.7318 61.7611 18.1928C61.997 18.6539 62.1131 19.2131 62.1096 19.8707V25.1133H60.1691V20.1709C60.1691 19.6205 60.0261 19.1899 59.7402 18.879C59.4579 18.5681 59.0666 18.4126 58.5663 18.4126C58.2268 18.4126 57.9248 18.4877 57.6603 18.6378C57.3994 18.7843 57.194 18.9969 57.0439 19.2757C56.8973 19.5544 56.8241 19.8921 56.8241 20.2888ZM68.1938 16.8795V18.3805H63.4604V16.8795H68.1938ZM64.629 14.9068H66.5695V22.6367C66.5695 22.8976 66.6088 23.0977 66.6874 23.2371C66.7696 23.3729 66.8769 23.4658 67.0091 23.5158C67.1413 23.5659 67.2878 23.5909 67.4486 23.5909C67.5701 23.5909 67.6809 23.582 67.781 23.5641C67.8846 23.5462 67.9632 23.5301 68.0169 23.5158L68.3438 25.0329C68.2402 25.0686 68.0919 25.1079 67.8989 25.1508C67.7095 25.1937 67.4772 25.2187 67.2021 25.2259C66.716 25.2401 66.2783 25.1669 65.8887 25.0061C65.4992 24.8417 65.1901 24.588 64.9614 24.2449C64.7362 23.9018 64.6254 23.473 64.629 22.9584V14.9068ZM72.186 25.2795C71.6642 25.2795 71.1943 25.1865 70.7762 25.0007C70.3616 24.8113 70.0329 24.5326 69.7898 24.1645C69.5504 23.7964 69.4307 23.3425 69.4307 22.8029C69.4307 22.3383 69.5165 21.9541 69.688 21.6504C69.8595 21.3466 70.0936 21.1036 70.3902 20.9214C70.6868 20.7391 71.021 20.6015 71.3926 20.5086C71.7679 20.4121 72.1556 20.3424 72.5559 20.2995C73.0383 20.2495 73.4296 20.2048 73.7298 20.1655C74.03 20.1226 74.248 20.0583 74.3838 19.9725C74.5232 19.8832 74.5929 19.7456 74.5929 19.5598V19.5276C74.5929 19.1238 74.4732 18.8111 74.2337 18.5895C73.9943 18.368 73.6494 18.2572 73.1991 18.2572C72.7238 18.2572 72.3468 18.3608 72.0681 18.5681C71.7929 18.7754 71.6071 19.0202 71.5106 19.3025L69.6987 19.0452C69.8417 18.5449 70.0775 18.1267 70.4063 17.7908C70.7351 17.4513 71.1371 17.1976 71.6124 17.0296C72.0877 16.8581 72.6131 16.7723 73.1884 16.7723C73.5851 16.7723 73.98 16.8188 74.3731 16.9117C74.7662 17.0046 75.1254 17.1583 75.4506 17.3727C75.7758 17.5835 76.0366 17.8712 76.2332 18.2357C76.4333 18.6002 76.5334 19.0559 76.5334 19.6027V25.1133H74.6679V23.9822H74.6036C74.4857 24.2109 74.3195 24.4253 74.1051 24.6255C73.8942 24.822 73.628 24.9811 73.3063 25.1026C72.9883 25.2205 72.6148 25.2795 72.186 25.2795ZM72.6899 23.8536C73.0794 23.8536 73.4171 23.7767 73.703 23.6231C73.9889 23.4658 74.2087 23.2585 74.3624 23.0012C74.5196 22.7439 74.5982 22.4634 74.5982 22.1596V21.1894C74.5375 21.2394 74.4338 21.2859 74.2873 21.3288C74.1444 21.3716 73.9836 21.4092 73.8049 21.4413C73.6262 21.4735 73.4493 21.5021 73.2742 21.5271C73.0991 21.5521 72.9472 21.5736 72.8185 21.5914C72.5291 21.6307 72.27 21.6951 72.0413 21.7844C71.8125 21.8737 71.6321 21.9988 71.4999 22.1596C71.3676 22.3169 71.3015 22.5206 71.3015 22.7707C71.3015 23.1281 71.432 23.3979 71.6928 23.5802C71.9537 23.7624 72.2861 23.8536 72.6899 23.8536ZM82.0762 25.2741C81.2542 25.2741 80.5484 25.0936 79.9588 24.7327C79.3727 24.3717 78.9206 23.8732 78.6025 23.2371C78.2881 22.5974 78.1308 21.8612 78.1308 21.0286C78.1308 20.1923 78.2916 19.4544 78.6133 18.8147C78.9349 18.1714 79.3888 17.6711 79.9748 17.3137C80.5645 16.9528 81.2614 16.7723 82.0654 16.7723C82.7337 16.7723 83.3252 16.8956 83.8398 17.1422C84.358 17.3852 84.7707 17.7301 85.0781 18.1768C85.3854 18.6199 85.5605 19.1381 85.6034 19.7313H83.7486C83.6736 19.3346 83.4949 19.0041 83.2126 18.7396C82.9338 18.4716 82.5604 18.3376 82.0922 18.3376C81.6956 18.3376 81.3471 18.4448 81.0469 18.6592C80.7468 18.8701 80.5127 19.1738 80.3447 19.5705C80.1803 19.9672 80.0981 20.4425 80.0981 20.9964C80.0981 21.5575 80.1803 22.0399 80.3447 22.4437C80.5091 22.844 80.7396 23.1531 81.0362 23.3711C81.3364 23.5855 81.6884 23.6927 82.0922 23.6927C82.3781 23.6927 82.6337 23.6391 82.8588 23.5319C83.0875 23.4211 83.2787 23.2621 83.4324 23.0548C83.586 22.8476 83.6915 22.5956 83.7486 22.299H85.6034C85.5569 22.8815 85.3854 23.3979 85.0888 23.8482C84.7922 24.2949 84.3883 24.6451 83.8773 24.8989C83.3663 25.149 82.7659 25.2741 82.0762 25.2741ZM91.3083 16.8795V18.3805H86.575V16.8795H91.3083ZM87.7436 14.9068H89.6841V22.6367C89.6841 22.8976 89.7234 23.0977 89.802 23.2371C89.8842 23.3729 89.9914 23.4658 90.1236 23.5158C90.2559 23.5659 90.4024 23.5909 90.5632 23.5909C90.6847 23.5909 90.7955 23.582 90.8956 23.5641C90.9992 23.5462 91.0778 23.5301 91.1314 23.5158L91.4584 25.0329C91.3548 25.0686 91.2065 25.1079 91.0135 25.1508C90.8241 25.1937 90.5918 25.2187 90.3166 25.2259C89.8306 25.2401 89.3928 25.1669 89.0033 25.0061C88.6138 24.8417 88.3046 24.588 88.0759 24.2449C87.8508 23.9018 87.74 23.473 87.7436 22.9584V14.9068ZM96.7613 25.1133V14.1349H103.794V15.8021H98.7501V18.7825H103.312V20.4496H98.7501V25.1133H96.7613ZM108.508 25.2741C107.703 25.2741 107.007 25.0972 106.417 24.7434C105.827 24.3896 105.37 23.8947 105.045 23.2585C104.723 22.6224 104.562 21.8791 104.562 21.0286C104.562 20.178 104.723 19.4329 105.045 18.7932C105.37 18.1535 105.827 17.6568 106.417 17.303C107.007 16.9492 107.703 16.7723 108.508 16.7723C109.312 16.7723 110.008 16.9492 110.598 17.303C111.188 17.6568 111.643 18.1535 111.965 18.7932C112.29 19.4329 112.453 20.178 112.453 21.0286C112.453 21.8791 112.29 22.6224 111.965 23.2585C111.643 23.8947 111.188 24.3896 110.598 24.7434C110.008 25.0972 109.312 25.2741 108.508 25.2741ZM108.518 23.7195C108.954 23.7195 109.319 23.5998 109.612 23.3604C109.905 23.1174 110.123 22.7922 110.266 22.3848C110.412 21.9774 110.486 21.5235 110.486 21.0232C110.486 20.5193 110.412 20.0637 110.266 19.6563C110.123 19.2453 109.905 18.9183 109.612 18.6753C109.319 18.4323 108.954 18.3108 108.518 18.3108C108.072 18.3108 107.7 18.4323 107.403 18.6753C107.11 18.9183 106.89 19.2453 106.744 19.6563C106.601 20.0637 106.53 20.5193 106.53 21.0232C106.53 21.5235 106.601 21.9774 106.744 22.3848C106.89 22.7922 107.11 23.1174 107.403 23.3604C107.7 23.5998 108.072 23.7195 108.518 23.7195ZM114.1 25.1133V16.8795H115.981V18.2518H116.067C116.217 17.7765 116.475 17.4102 116.839 17.1529C117.207 16.892 117.627 16.7616 118.099 16.7616C118.206 16.7616 118.326 16.7669 118.458 16.7777C118.594 16.7848 118.706 16.7973 118.796 16.8152V18.6002C118.714 18.5717 118.583 18.5466 118.404 18.5252C118.229 18.5002 118.06 18.4877 117.895 18.4877C117.541 18.4877 117.223 18.5645 116.941 18.7182C116.662 18.8683 116.442 19.0773 116.282 19.3454C116.121 19.6134 116.04 19.9225 116.04 20.2727V25.1133H114.1ZM120.085 25.1133V16.8795H121.94V18.2786H122.036C122.208 17.8069 122.492 17.4388 122.888 17.1743C123.285 16.9063 123.759 16.7723 124.309 16.7723C124.867 16.7723 125.336 16.9081 125.719 17.1797C126.105 17.4477 126.376 17.814 126.534 18.2786H126.619C126.802 17.8212 127.109 17.4567 127.541 17.1851C127.977 16.9099 128.494 16.7723 129.091 16.7723C129.848 16.7723 130.466 17.0117 130.945 17.4906C131.424 17.9695 131.664 18.6681 131.664 19.5866V25.1133H129.718V19.8868C129.718 19.3757 129.582 19.0023 129.31 18.7664C129.039 18.527 128.706 18.4073 128.313 18.4073C127.845 18.4073 127.479 18.5538 127.214 18.8468C126.954 19.1363 126.823 19.5133 126.823 19.9779V25.1133H124.92V19.8064C124.92 19.3811 124.791 19.0416 124.534 18.7879C124.28 18.5341 123.948 18.4073 123.537 18.4073C123.258 18.4073 123.005 18.4787 122.776 18.6217C122.547 18.7611 122.365 18.9594 122.229 19.2167C122.093 19.4704 122.025 19.7671 122.025 20.1066V25.1133H120.085Z" fill="#211447"/>
<line x1="22.0117" y1="36.4661" x2="253.987" y2="36.4661" stroke="#F2F2F2" stroke-width="0.419312"/>
<path d="M37.9443 52.2145V57.0938H37.3725L34.7137 53.2628H34.6661V57.0938H34.0752V52.2145H34.647L37.3154 56.055H37.363V52.2145H37.9443ZM40.1273 57.1795C39.8954 57.1795 39.6849 57.1358 39.4959 57.0485C39.3069 56.9595 39.1568 56.8317 39.0456 56.6649C38.9344 56.4965 38.8788 56.2932 38.8788 56.055C38.8788 55.8453 38.9201 55.6754 39.0027 55.5452C39.0853 55.4133 39.1957 55.3101 39.3339 55.2354C39.4721 55.1608 39.6246 55.1052 39.7913 55.0687C39.9597 55.0305 40.1288 55.0004 40.2988 54.9781C40.5212 54.9495 40.7014 54.9281 40.8396 54.9138C40.9794 54.8979 41.081 54.8717 41.1446 54.8352C41.2097 54.7987 41.2422 54.7351 41.2422 54.6446V54.6255C41.2422 54.3905 41.1779 54.2078 41.0493 54.0776C40.9222 53.9473 40.7292 53.8822 40.4703 53.8822C40.2019 53.8822 39.9915 53.941 39.839 54.0585C39.6865 54.176 39.5793 54.3015 39.5173 54.4349L38.9837 54.2443C39.079 54.022 39.206 53.8488 39.3649 53.725C39.5253 53.5995 39.7 53.5121 39.889 53.4629C40.0796 53.4121 40.267 53.3867 40.4513 53.3867C40.5688 53.3867 40.7038 53.4009 40.8563 53.4295C41.0103 53.4565 41.1589 53.5129 41.3018 53.5987C41.4463 53.6845 41.5663 53.8139 41.6616 53.987C41.7568 54.1602 41.8045 54.392 41.8045 54.6827V57.0938H41.2422V56.5982H41.2137C41.1755 56.6776 41.112 56.7626 41.0231 56.8531C40.9341 56.9437 40.8158 57.0207 40.6681 57.0842C40.5204 57.1478 40.3401 57.1795 40.1273 57.1795ZM40.213 56.6744C40.4354 56.6744 40.6228 56.6308 40.7753 56.5434C40.9293 56.456 41.0453 56.3433 41.1231 56.2051C41.2025 56.0669 41.2422 55.9216 41.2422 55.7691V55.2545C41.2184 55.2831 41.166 55.3093 41.085 55.3331C41.0056 55.3554 40.9135 55.3752 40.8086 55.3927C40.7054 55.4086 40.6045 55.4229 40.5061 55.4356C40.4092 55.4467 40.3306 55.4562 40.2702 55.4642C40.1241 55.4832 39.9875 55.5142 39.8604 55.5571C39.7349 55.5984 39.6333 55.6611 39.5555 55.7453C39.4792 55.8279 39.4411 55.9406 39.4411 56.0836C39.4411 56.279 39.5134 56.4267 39.6579 56.5267C39.804 56.6252 39.9891 56.6744 40.213 56.6744ZM42.8307 57.0938V53.4343H43.3739V54.0061H43.4216C43.4978 53.8107 43.6209 53.659 43.7909 53.551C43.9608 53.4414 44.1649 53.3867 44.4032 53.3867C44.6446 53.3867 44.8455 53.4414 45.0059 53.551C45.1679 53.659 45.2942 53.8107 45.3847 54.0061H45.4229C45.5166 53.8171 45.6571 53.667 45.8445 53.5558C46.032 53.443 46.2567 53.3867 46.5188 53.3867C46.846 53.3867 47.1136 53.4891 47.3217 53.694C47.5297 53.8973 47.6338 54.2142 47.6338 54.6446V57.0938H47.0715V54.6446C47.0715 54.3746 46.9977 54.1816 46.8499 54.0657C46.7022 53.9497 46.5283 53.8917 46.3282 53.8917C46.0709 53.8917 45.8715 53.9696 45.7302 54.1252C45.5888 54.2793 45.5181 54.4746 45.5181 54.7113V57.0938H44.9464V54.5874C44.9464 54.3793 44.8789 54.2118 44.7439 54.0847C44.6088 53.9561 44.4349 53.8917 44.2221 53.8917C44.076 53.8917 43.9394 53.9306 43.8123 54.0085C43.6868 54.0863 43.5852 54.1943 43.5074 54.3325C43.4311 54.4691 43.393 54.6271 43.393 54.8066V57.0938H42.8307ZM50.1961 57.17C49.8435 57.17 49.5393 57.0922 49.2836 56.9365C49.0295 56.7793 48.8333 56.5601 48.6951 56.279C48.5586 55.9962 48.4903 55.6675 48.4903 55.2926C48.4903 54.9178 48.5586 54.5874 48.6951 54.3015C48.8333 54.014 49.0255 53.7901 49.2717 53.6297C49.5195 53.4677 49.8085 53.3867 50.1389 53.3867C50.3295 53.3867 50.5177 53.4184 50.7036 53.482C50.8894 53.5455 51.0585 53.6487 51.211 53.7917C51.3635 53.933 51.485 54.1204 51.5755 54.3539C51.6661 54.5874 51.7113 54.8749 51.7113 55.2164V55.4546H48.8905V54.9686H51.1395C51.1395 54.7621 51.0983 54.5779 51.0157 54.4159C50.9347 54.2539 50.8187 54.126 50.6678 54.0323C50.5185 53.9386 50.3422 53.8917 50.1389 53.8917C49.915 53.8917 49.7212 53.9473 49.5576 54.0585C49.3956 54.1681 49.2709 54.311 49.1836 54.4873C49.0962 54.6636 49.0525 54.8527 49.0525 55.0544V55.3784C49.0525 55.6547 49.1002 55.889 49.1955 56.0812C49.2924 56.2718 49.4266 56.4171 49.5981 56.5172C49.7696 56.6157 49.969 56.6649 50.1961 56.6649C50.3438 56.6649 50.4772 56.6443 50.5963 56.603C50.7171 56.5601 50.8211 56.4965 50.9084 56.4124C50.9958 56.3266 51.0633 56.2202 51.111 56.0931L51.6542 56.2456C51.597 56.4298 51.5009 56.5918 51.3659 56.7316C51.2309 56.8698 51.0641 56.9778 50.8656 57.0556C50.667 57.1319 50.4439 57.17 50.1961 57.17Z" fill="#211447"/>
<rect x="33.694" y="62.9792" width="163.952" height="16.1501" rx="3.14484" stroke="#E0E0E0" stroke-width="0.419312"/>
<path d="M33.9275 88.0156V84.3562H36.1218V84.7493H34.3706V85.9858H35.9574V86.3789H34.3706V88.0156H33.9275ZM38.3812 86.8935V85.271H38.8029V88.0156H38.3812V87.551H38.3526C38.2883 87.6904 38.1882 87.8089 38.0524 87.9066C37.9166 88.0031 37.7451 88.0514 37.5378 88.0514C37.3663 88.0514 37.2138 88.0138 37.0804 87.9388C36.947 87.8626 36.8421 87.7482 36.7659 87.5957C36.6897 87.442 36.6515 87.2485 36.6515 87.015V85.271H37.0732V86.9864C37.0732 87.1865 37.1292 87.3462 37.2412 87.4653C37.3544 87.5844 37.4985 87.644 37.6736 87.644C37.7785 87.644 37.8851 87.6172 37.9935 87.5636C38.1031 87.5099 38.1948 87.4278 38.2686 87.317C38.3437 87.2062 38.3812 87.065 38.3812 86.8935ZM39.997 84.3562V88.0156H39.5753V84.3562H39.997ZM41.191 84.3562V88.0156H40.7693V84.3562H41.191ZM46.3376 84.3562V88.0156H45.9087L43.9146 85.1424H43.8789V88.0156H43.4357V84.3562H43.8646L45.8658 87.2366H45.9016V84.3562H46.3376ZM47.9748 88.08C47.8008 88.08 47.643 88.0472 47.5012 87.9817C47.3595 87.915 47.2469 87.8191 47.1635 87.694C47.0801 87.5677 47.0385 87.4152 47.0385 87.2366C47.0385 87.0793 47.0694 86.9519 47.1314 86.8542C47.1933 86.7553 47.2761 86.6779 47.3797 86.6219C47.4834 86.5659 47.5977 86.5242 47.7228 86.4968C47.8491 86.4682 47.9759 86.4456 48.1034 86.4289C48.2702 86.4075 48.4054 86.3914 48.509 86.3807C48.6139 86.3688 48.6901 86.3491 48.7377 86.3217C48.7866 86.2943 48.811 86.2467 48.811 86.1788V86.1645C48.811 85.9882 48.7628 85.8512 48.6663 85.7535C48.571 85.6558 48.4262 85.607 48.2321 85.607C48.0307 85.607 47.8729 85.651 47.7585 85.7392C47.6442 85.8273 47.5638 85.9214 47.5173 86.0215L47.1171 85.8786C47.1885 85.7118 47.2838 85.5819 47.403 85.489C47.5233 85.3949 47.6543 85.3294 47.7961 85.2925C47.939 85.2544 48.0796 85.2353 48.2178 85.2353C48.3059 85.2353 48.4072 85.246 48.5215 85.2675C48.6371 85.2877 48.7485 85.33 48.8557 85.3943C48.9641 85.4587 49.054 85.5557 49.1255 85.6856C49.197 85.8154 49.2327 85.9893 49.2327 86.2073V88.0156H48.811V87.644H48.7896C48.761 87.7035 48.7133 87.7673 48.6466 87.8352C48.5799 87.9031 48.4912 87.9608 48.3804 88.0085C48.2696 88.0561 48.1344 88.08 47.9748 88.08ZM48.0391 87.7011C48.2059 87.7011 48.3464 87.6684 48.4608 87.6029C48.5763 87.5373 48.6633 87.4528 48.7217 87.3491C48.7812 87.2455 48.811 87.1365 48.811 87.0221V86.6362C48.7931 86.6576 48.7538 86.6773 48.6931 86.6951C48.6335 86.7118 48.5644 86.7267 48.4858 86.7398C48.4084 86.7517 48.3327 86.7625 48.2589 86.772C48.1862 86.7803 48.1272 86.7875 48.082 86.7934C47.9724 86.8077 47.8699 86.8309 47.7746 86.8631C47.6805 86.8941 47.6043 86.9411 47.5459 87.0043C47.4887 87.0662 47.4601 87.1508 47.4601 87.258C47.4601 87.4045 47.5143 87.5153 47.6227 87.5904C47.7323 87.6642 47.8711 87.7011 48.0391 87.7011ZM50.0024 88.0156V85.271H50.4098V85.6999H50.4455C50.5027 85.5534 50.595 85.4396 50.7225 85.3586C50.8499 85.2764 51.003 85.2353 51.1817 85.2353C51.3628 85.2353 51.5134 85.2764 51.6338 85.3586C51.7553 85.4396 51.85 85.5534 51.9179 85.6999H51.9465C52.0167 85.5581 52.1222 85.4456 52.2627 85.3622C52.4033 85.2776 52.5719 85.2353 52.7684 85.2353C53.0138 85.2353 53.2145 85.3121 53.3706 85.4658C53.5266 85.6183 53.6046 85.8559 53.6046 86.1788V88.0156H53.183V86.1788C53.183 85.9762 53.1276 85.8315 53.0168 85.7446C52.906 85.6576 52.7756 85.6141 52.6255 85.6141C52.4325 85.6141 52.283 85.6725 52.177 85.7892C52.0709 85.9048 52.0179 86.0513 52.0179 86.2288V88.0156H51.5891V86.1359C51.5891 85.9798 51.5385 85.8541 51.4372 85.7588C51.336 85.6624 51.2055 85.6141 51.0459 85.6141C50.9363 85.6141 50.8339 85.6433 50.7386 85.7017C50.6444 85.76 50.5682 85.841 50.5098 85.9447C50.4527 86.0471 50.4241 86.1656 50.4241 86.3003V88.0156H50.0024ZM55.5264 88.0728C55.2619 88.0728 55.0338 88.0144 54.842 87.8977C54.6514 87.7798 54.5043 87.6154 54.4007 87.4045C54.2982 87.1925 54.247 86.9459 54.247 86.6648C54.247 86.3836 54.2982 86.1359 54.4007 85.9214C54.5043 85.7058 54.6485 85.5379 54.8331 85.4176C55.0189 85.2961 55.2357 85.2353 55.4835 85.2353C55.6265 85.2353 55.7676 85.2591 55.907 85.3068C56.0464 85.3544 56.1732 85.4319 56.2876 85.5391C56.4019 85.6451 56.4931 85.7856 56.561 85.9608C56.6289 86.1359 56.6628 86.3515 56.6628 86.6076V86.7863H54.5472V86.4218H56.234C56.234 86.2669 56.203 86.1287 56.1411 86.0072C56.0803 85.8857 55.9934 85.7898 55.8802 85.7195C55.7682 85.6493 55.636 85.6141 55.4835 85.6141C55.3155 85.6141 55.1702 85.6558 55.0475 85.7392C54.926 85.8214 54.8325 85.9286 54.767 86.0608C54.7015 86.193 54.6687 86.3348 54.6687 86.4861V86.7291C54.6687 86.9364 54.7044 87.1121 54.7759 87.2562C54.8486 87.3992 54.9492 87.5082 55.0779 87.5832C55.2065 87.6571 55.356 87.694 55.5264 87.694C55.6372 87.694 55.7372 87.6785 55.8266 87.6475C55.9171 87.6154 55.9951 87.5677 56.0607 87.5046C56.1262 87.4403 56.1768 87.3605 56.2125 87.2652L56.6199 87.3795C56.5771 87.5177 56.505 87.6392 56.4037 87.744C56.3025 87.8477 56.1774 87.9287 56.0285 87.987C55.8796 88.0442 55.7122 88.0728 55.5264 88.0728Z" fill="#6A676F"/>
<rect x="33.4844" y="97.7891" width="209.03" height="31.8674" rx="3.35449" fill="#F2F2F2"/>
<path d="M36.7436 139.708C36.715 139.466 36.599 139.279 36.3957 139.145C36.1924 139.012 35.9431 138.945 35.6476 138.945C35.4316 138.945 35.2426 138.98 35.0806 139.05C34.9202 139.12 34.7947 139.216 34.7042 139.338C34.6152 139.461 34.5708 139.6 34.5708 139.755C34.5708 139.886 34.6017 139.998 34.6637 140.091C34.7272 140.183 34.8082 140.26 34.9067 140.322C35.0052 140.383 35.1084 140.433 35.2164 140.473C35.3244 140.511 35.4237 140.542 35.5142 140.565L36.0098 140.699C36.1368 140.732 36.2782 140.778 36.4339 140.837C36.5911 140.896 36.7412 140.976 36.8841 141.078C37.0287 141.178 37.1478 141.306 37.2415 141.464C37.3352 141.621 37.3821 141.814 37.3821 142.043C37.3821 142.306 37.313 142.544 37.1748 142.757C37.0382 142.97 36.8381 143.139 36.5744 143.265C36.3123 143.39 35.9939 143.453 35.6191 143.453C35.2696 143.453 34.9671 143.397 34.7113 143.284C34.4572 143.171 34.2571 143.014 34.111 142.812C33.9664 142.61 33.8846 142.376 33.8656 142.109H34.4755C34.4914 142.293 34.5533 142.446 34.6613 142.567C34.7709 142.686 34.9091 142.775 35.0759 142.834C35.2442 142.891 35.4253 142.919 35.6191 142.919C35.8446 142.919 36.0471 142.883 36.2266 142.81C36.4061 142.735 36.5482 142.632 36.653 142.5C36.7579 142.367 36.8103 142.211 36.8103 142.033C36.8103 141.871 36.765 141.739 36.6745 141.638C36.5839 141.536 36.4648 141.453 36.3171 141.39C36.1694 141.326 36.0098 141.271 35.8382 141.223L35.2379 141.051C34.8567 140.942 34.5549 140.785 34.3325 140.582C34.1102 140.379 33.999 140.113 33.999 139.784C33.999 139.511 34.0728 139.273 34.2206 139.069C34.3699 138.864 34.57 138.706 34.8209 138.593C35.0735 138.478 35.3554 138.421 35.6667 138.421C35.9812 138.421 36.2607 138.478 36.5053 138.59C36.7499 138.702 36.9437 138.854 37.0866 139.048C37.2312 139.242 37.3074 139.462 37.3154 139.708H36.7436ZM39.8116 143.443C39.459 143.443 39.1548 143.366 38.8991 143.21C38.645 143.053 38.4488 142.834 38.3106 142.552C38.174 142.27 38.1057 141.941 38.1057 141.566C38.1057 141.191 38.174 140.861 38.3106 140.575C38.4488 140.287 38.641 140.064 38.8872 139.903C39.135 139.741 39.424 139.66 39.7544 139.66C39.945 139.66 40.1332 139.692 40.319 139.755C40.5049 139.819 40.674 139.922 40.8265 140.065C40.979 140.206 41.1005 140.394 41.191 140.627C41.2815 140.861 41.3268 141.148 41.3268 141.49V141.728H38.506V141.242H40.755C40.755 141.036 40.7137 140.851 40.6311 140.689C40.5501 140.527 40.4342 140.399 40.2833 140.306C40.134 140.212 39.9577 140.165 39.7544 140.165C39.5304 140.165 39.3367 140.221 39.1731 140.332C39.0111 140.442 38.8864 140.584 38.799 140.761C38.7117 140.937 38.668 141.126 38.668 141.328V141.652C38.668 141.928 38.7156 142.162 38.8109 142.355C38.9078 142.545 39.042 142.691 39.2136 142.791C39.3851 142.889 39.5844 142.938 39.8116 142.938C39.9593 142.938 40.0927 142.918 40.2118 142.876C40.3325 142.834 40.4366 142.77 40.5239 142.686C40.6113 142.6 40.6788 142.494 40.7264 142.367L41.2696 142.519C41.2125 142.703 41.1164 142.865 40.9814 143.005C40.8464 143.143 40.6796 143.251 40.481 143.329C40.2825 143.405 40.0594 143.443 39.8116 143.443ZM42.7444 138.488V143.367H42.1821V138.488H42.7444ZM45.3085 143.443C44.9559 143.443 44.6517 143.366 44.396 143.21C44.1419 143.053 43.9457 142.834 43.8075 142.552C43.671 142.27 43.6027 141.941 43.6027 141.566C43.6027 141.191 43.671 140.861 43.8075 140.575C43.9457 140.287 44.1379 140.064 44.3841 139.903C44.6319 139.741 44.9209 139.66 45.2513 139.66C45.4419 139.66 45.6301 139.692 45.816 139.755C46.0018 139.819 46.1709 139.922 46.3234 140.065C46.4759 140.206 46.5974 140.394 46.6879 140.627C46.7785 140.861 46.8237 141.148 46.8237 141.49V141.728H44.0029V141.242H46.2519C46.2519 141.036 46.2106 140.851 46.1281 140.689C46.0471 140.527 45.9311 140.399 45.7802 140.306C45.6309 140.212 45.4546 140.165 45.2513 140.165C45.0274 140.165 44.8336 140.221 44.67 140.332C44.508 140.442 44.3833 140.584 44.2959 140.761C44.2086 140.937 44.1649 141.126 44.1649 141.328V141.652C44.1649 141.928 44.2126 142.162 44.3079 142.355C44.4047 142.545 44.539 142.691 44.7105 142.791C44.882 142.889 45.0814 142.938 45.3085 142.938C45.4562 142.938 45.5896 142.918 45.7087 142.876C45.8295 142.834 45.9335 142.77 46.0208 142.686C46.1082 142.6 46.1757 142.494 46.2234 142.367L46.7666 142.519C46.7094 142.703 46.6133 142.865 46.4783 143.005C46.3433 143.143 46.1765 143.251 45.978 143.329C45.7794 143.405 45.5563 143.443 45.3085 143.443ZM49.1657 143.443C48.8226 143.443 48.5272 143.362 48.2794 143.2C48.0316 143.038 47.841 142.815 47.7076 142.531C47.5742 142.247 47.5075 141.922 47.5075 141.557C47.5075 141.185 47.5758 140.857 47.7124 140.573C47.8506 140.287 48.0428 140.064 48.2889 139.903C48.5367 139.741 48.8258 139.66 49.1562 139.66C49.4135 139.66 49.6454 139.708 49.8518 139.803C50.0583 139.898 50.2275 140.032 50.3593 140.203C50.4911 140.375 50.5729 140.575 50.6047 140.804H50.0424C49.9995 140.637 49.9042 140.489 49.7565 140.361C49.6104 140.23 49.4135 140.165 49.1657 140.165C48.9465 140.165 48.7543 140.222 48.5891 140.337C48.4255 140.449 48.2977 140.609 48.2056 140.816C48.115 141.02 48.0698 141.261 48.0698 141.537C48.0698 141.82 48.1142 142.066 48.2032 142.276C48.2937 142.486 48.4208 142.648 48.5844 142.764C48.7495 142.88 48.9433 142.938 49.1657 142.938C49.3118 142.938 49.4444 142.913 49.5636 142.862C49.6827 142.811 49.7835 142.738 49.8661 142.643C49.9487 142.548 50.0075 142.433 50.0424 142.3H50.6047C50.5729 142.516 50.4943 142.71 50.3688 142.884C50.2449 143.055 50.0805 143.192 49.8757 143.293C49.6724 143.393 49.4357 143.443 49.1657 143.443ZM53.0181 139.708V140.184H51.1217V139.708H53.0181ZM51.6744 138.831H52.2367V142.319C52.2367 142.478 52.2597 142.597 52.3058 142.676C52.3534 142.754 52.4138 142.807 52.4868 142.834C52.5615 142.859 52.6401 142.872 52.7227 142.872C52.7846 142.872 52.8355 142.868 52.8752 142.862C52.9149 142.854 52.9466 142.848 52.9705 142.843L53.0848 143.348C53.0467 143.362 52.9935 143.377 52.9252 143.391C52.8569 143.407 52.7703 143.415 52.6655 143.415C52.5067 143.415 52.351 143.381 52.1985 143.312C52.0477 143.244 51.9222 143.14 51.8221 143C51.7236 142.861 51.6744 142.684 51.6744 142.471V138.831ZM56.1129 144.739C56.0176 144.739 55.9326 144.732 55.858 144.716C55.7833 144.701 55.7317 144.687 55.7031 144.673L55.8461 144.177C55.9827 144.212 56.1034 144.225 56.2082 144.215C56.313 144.206 56.406 144.159 56.487 144.075C56.5696 143.992 56.645 143.858 56.7133 143.672L56.8181 143.386L55.4649 139.708H56.0748L57.085 142.624H57.1231L58.1332 139.708H58.7431L57.1898 143.901C57.1199 144.09 57.0333 144.246 56.9301 144.37C56.8269 144.496 56.7069 144.589 56.5703 144.649C56.4353 144.709 56.2829 144.739 56.1129 144.739ZM60.8409 143.443C60.5105 143.443 60.2207 143.365 59.9713 143.208C59.7235 143.05 59.5298 142.83 59.39 142.548C59.2518 142.265 59.1827 141.935 59.1827 141.557C59.1827 141.175 59.2518 140.843 59.39 140.558C59.5298 140.274 59.7235 140.053 59.9713 139.896C60.2207 139.739 60.5105 139.66 60.8409 139.66C61.1713 139.66 61.4603 139.739 61.7081 139.896C61.9575 140.053 62.1512 140.274 62.2894 140.558C62.4292 140.843 62.4991 141.175 62.4991 141.557C62.4991 141.935 62.4292 142.265 62.2894 142.548C62.1512 142.83 61.9575 143.05 61.7081 143.208C61.4603 143.365 61.1713 143.443 60.8409 143.443ZM60.8409 142.938C61.0918 142.938 61.2983 142.874 61.4603 142.745C61.6223 142.617 61.7423 142.448 61.8201 142.238C61.8979 142.028 61.9368 141.801 61.9368 141.557C61.9368 141.312 61.8979 141.084 61.8201 140.873C61.7423 140.662 61.6223 140.491 61.4603 140.361C61.2983 140.23 61.0918 140.165 60.8409 140.165C60.5899 140.165 60.3835 140.23 60.2215 140.361C60.0595 140.491 59.9395 140.662 59.8617 140.873C59.7839 141.084 59.745 141.312 59.745 141.557C59.745 141.801 59.7839 142.028 59.8617 142.238C59.9395 142.448 60.0595 142.617 60.2215 142.745C60.3835 142.874 60.5899 142.938 60.8409 142.938ZM65.6636 141.871V139.708H66.2258V143.367H65.6636V142.748H65.6255C65.5397 142.934 65.4063 143.092 65.2252 143.222C65.0441 143.351 64.8154 143.415 64.5391 143.415C64.3103 143.415 64.107 143.365 63.9292 143.265C63.7513 143.163 63.6115 143.011 63.5098 142.807C63.4082 142.602 63.3574 142.344 63.3574 142.033V139.708H63.9196V141.995C63.9196 142.262 63.9943 142.475 64.1436 142.633C64.2945 142.792 64.4866 142.872 64.7201 142.872C64.8599 142.872 65.0021 142.836 65.1466 142.764C65.2927 142.693 65.415 142.583 65.5135 142.436C65.6135 142.288 65.6636 142.1 65.6636 141.871ZM67.2557 143.367V139.708H67.7989V140.26H67.837C67.9037 140.079 68.0244 139.932 68.1991 139.82C68.3738 139.707 68.5708 139.651 68.79 139.651C68.8312 139.651 68.8829 139.651 68.9448 139.653C69.0068 139.655 69.0536 139.657 69.0854 139.66V140.232C69.0663 140.227 69.0226 140.22 68.9543 140.21C68.8876 140.199 68.817 140.194 68.7423 140.194C68.5644 140.194 68.4056 140.231 68.2658 140.306C68.1276 140.379 68.018 140.48 67.937 140.611C67.8576 140.739 67.8179 140.886 67.8179 141.051V143.367H67.2557ZM73.2684 139.708V140.184H71.2957V139.708H73.2684ZM71.8865 143.367V139.203C71.8865 138.993 71.9358 138.818 72.0343 138.679C72.1327 138.539 72.2606 138.434 72.4178 138.364C72.5751 138.294 72.7411 138.259 72.9158 138.259C73.0539 138.259 73.1667 138.27 73.2541 138.293C73.3414 138.315 73.4066 138.335 73.4494 138.355L73.2874 138.841C73.2588 138.831 73.2191 138.819 73.1683 138.805C73.1191 138.79 73.0539 138.783 72.9729 138.783C72.7871 138.783 72.6529 138.83 72.5703 138.924C72.4893 139.018 72.4488 139.155 72.4488 139.336V143.367H71.8865ZM75.0284 143.453C74.7965 143.453 74.5861 143.409 74.3971 143.322C74.208 143.233 74.058 143.105 73.9468 142.938C73.8356 142.77 73.78 142.567 73.78 142.328C73.78 142.119 73.8213 141.949 73.9039 141.819C73.9865 141.687 74.0969 141.584 74.235 141.509C74.3732 141.434 74.5257 141.379 74.6925 141.342C74.8608 141.304 75.03 141.274 75.1999 141.252C75.4223 141.223 75.6026 141.202 75.7408 141.187C75.8805 141.171 75.9822 141.145 76.0457 141.109C76.1108 141.072 76.1434 141.009 76.1434 140.918V140.899C76.1434 140.664 76.0791 140.481 75.9504 140.351C75.8234 140.221 75.6304 140.156 75.3715 140.156C75.1031 140.156 74.8926 140.214 74.7401 140.332C74.5877 140.449 74.4804 140.575 74.4185 140.708L73.8848 140.518C73.9801 140.295 74.1072 140.122 74.266 139.998C74.4264 139.873 74.6012 139.786 74.7902 139.736C74.9808 139.686 75.1682 139.66 75.3524 139.66C75.47 139.66 75.605 139.674 75.7574 139.703C75.9115 139.73 76.06 139.786 76.203 139.872C76.3475 139.958 76.4674 140.087 76.5627 140.26C76.658 140.434 76.7057 140.665 76.7057 140.956V143.367H76.1434V142.872H76.1148C76.0767 142.951 76.0132 143.036 75.9242 143.127C75.8353 143.217 75.7169 143.294 75.5692 143.358C75.4215 143.421 75.2412 143.453 75.0284 143.453ZM75.1142 142.948C75.3365 142.948 75.524 142.904 75.6764 142.817C75.8305 142.729 75.9464 142.617 76.0243 142.479C76.1037 142.34 76.1434 142.195 76.1434 142.043V141.528C76.1196 141.557 76.0672 141.583 75.9862 141.607C75.9067 141.629 75.8146 141.649 75.7098 141.666C75.6065 141.682 75.5057 141.696 75.4072 141.709C75.3103 141.72 75.2317 141.73 75.1714 141.738C75.0252 141.757 74.8886 141.788 74.7616 141.831C74.6361 141.872 74.5344 141.935 74.4566 142.019C74.3804 142.101 74.3423 142.214 74.3423 142.357C74.3423 142.552 74.4145 142.7 74.5591 142.8C74.7052 142.899 74.8902 142.948 75.1142 142.948ZM80.5932 139.708L79.24 143.367H78.6682L77.315 139.708H77.9249L78.935 142.624H78.9732L79.9833 139.708H80.5932ZM82.691 143.443C82.3606 143.443 82.0707 143.365 81.8214 143.208C81.5736 143.05 81.3798 142.83 81.2401 142.548C81.1019 142.265 81.0328 141.935 81.0328 141.557C81.0328 141.175 81.1019 140.843 81.2401 140.558C81.3798 140.274 81.5736 140.053 81.8214 139.896C82.0707 139.739 82.3606 139.66 82.691 139.66C83.0213 139.66 83.3104 139.739 83.5582 139.896C83.8076 140.053 84.0013 140.274 84.1395 140.558C84.2793 140.843 84.3492 141.175 84.3492 141.557C84.3492 141.935 84.2793 142.265 84.1395 142.548C84.0013 142.83 83.8076 143.05 83.5582 143.208C83.3104 143.365 83.0213 143.443 82.691 143.443ZM82.691 142.938C82.9419 142.938 83.1484 142.874 83.3104 142.745C83.4724 142.617 83.5923 142.448 83.6702 142.238C83.748 142.028 83.7869 141.801 83.7869 141.557C83.7869 141.312 83.748 141.084 83.6702 140.873C83.5923 140.662 83.4724 140.491 83.3104 140.361C83.1484 140.23 82.9419 140.165 82.691 140.165C82.44 140.165 82.2335 140.23 82.0715 140.361C81.9095 140.491 81.7896 140.662 81.7118 140.873C81.634 141.084 81.595 141.312 81.595 141.557C81.595 141.801 81.634 142.028 81.7118 142.238C81.7896 142.448 81.9095 142.617 82.0715 142.745C82.2335 142.874 82.44 142.938 82.691 142.938ZM85.2074 143.367V139.708H85.7506V140.26H85.7888C85.8555 140.079 85.9762 139.932 86.1509 139.82C86.3256 139.707 86.5226 139.651 86.7417 139.651C86.783 139.651 86.8347 139.651 86.8966 139.653C86.9585 139.655 87.0054 139.657 87.0372 139.66V140.232C87.0181 140.227 86.9744 140.22 86.9061 140.21C86.8394 140.199 86.7687 140.194 86.6941 140.194C86.5162 140.194 86.3574 140.231 86.2176 140.306C86.0794 140.379 85.9698 140.48 85.8888 140.611C85.8094 140.739 85.7697 140.886 85.7697 141.051V143.367H85.2074ZM87.7037 143.367V139.708H88.2659V143.367H87.7037ZM87.9895 139.098C87.88 139.098 87.7855 139.061 87.706 138.986C87.6282 138.911 87.5893 138.821 87.5893 138.717C87.5893 138.612 87.6282 138.522 87.706 138.447C87.7855 138.373 87.88 138.335 87.9895 138.335C88.0991 138.335 88.1929 138.373 88.2707 138.447C88.3501 138.522 88.3898 138.612 88.3898 138.717C88.3898 138.821 88.3501 138.911 88.2707 138.986C88.1929 139.061 88.0991 139.098 87.9895 139.098ZM90.8872 139.708V140.184H88.9908V139.708H90.8872ZM89.5435 138.831H90.1058V142.319C90.1058 142.478 90.1288 142.597 90.1749 142.676C90.2225 142.754 90.2829 142.807 90.3559 142.834C90.4306 142.859 90.5092 142.872 90.5918 142.872C90.6537 142.872 90.7046 142.868 90.7443 142.862C90.784 142.854 90.8157 142.848 90.8396 142.843L90.9539 143.348C90.9158 143.362 90.8626 143.377 90.7943 143.391C90.726 143.407 90.6394 143.415 90.5346 143.415C90.3758 143.415 90.2201 143.381 90.0676 143.312C89.9168 143.244 89.7913 143.14 89.6912 143C89.5927 142.861 89.5435 142.684 89.5435 142.471V138.831ZM93.228 143.443C92.8754 143.443 92.5712 143.366 92.3155 143.21C92.0614 143.053 91.8652 142.834 91.727 142.552C91.5904 142.27 91.5221 141.941 91.5221 141.566C91.5221 141.191 91.5904 140.861 91.727 140.575C91.8652 140.287 92.0574 140.064 92.3036 139.903C92.5514 139.741 92.8404 139.66 93.1708 139.66C93.3614 139.66 93.5496 139.692 93.7354 139.755C93.9213 139.819 94.0904 139.922 94.2429 140.065C94.3954 140.206 94.5169 140.394 94.6074 140.627C94.6979 140.861 94.7432 141.148 94.7432 141.49V141.728H91.9224V141.242H94.1714C94.1714 141.036 94.1301 140.851 94.0475 140.689C93.9665 140.527 93.8506 140.399 93.6997 140.306C93.5504 140.212 93.3741 140.165 93.1708 140.165C92.9468 140.165 92.7531 140.221 92.5895 140.332C92.4275 140.442 92.3028 140.584 92.2154 140.761C92.1281 140.937 92.0844 141.126 92.0844 141.328V141.652C92.0844 141.928 92.132 142.162 92.2273 142.355C92.3242 142.545 92.4584 142.691 92.63 142.791C92.8015 142.889 93.0008 142.938 93.228 142.938C93.3757 142.938 93.5091 142.918 93.6282 142.876C93.7489 142.834 93.853 142.77 93.9403 142.686C94.0277 142.6 94.0952 142.494 94.1428 142.367L94.686 142.519C94.6289 142.703 94.5328 142.865 94.3978 143.005C94.2628 143.143 94.096 143.251 93.8974 143.329C93.6989 143.405 93.4757 143.443 93.228 143.443ZM97.4854 144.739V139.708H98.0286V140.289H98.0953C98.1366 140.226 98.1938 140.145 98.2669 140.046C98.3415 139.946 98.4479 139.857 98.5861 139.779C98.7259 139.7 98.9149 139.66 99.1531 139.66C99.4613 139.66 99.7329 139.737 99.9679 139.891C100.203 140.045 100.386 140.264 100.518 140.546C100.65 140.829 100.716 141.163 100.716 141.547C100.716 141.935 100.65 142.27 100.518 142.555C100.386 142.837 100.204 143.057 99.9703 143.212C99.7368 143.366 99.4676 143.443 99.1627 143.443C98.9276 143.443 98.7394 143.405 98.598 143.327C98.4567 143.247 98.3479 143.158 98.2716 143.057C98.1954 142.956 98.1366 142.872 98.0953 142.805H98.0477V144.739H97.4854ZM98.0381 141.537C98.0381 141.814 98.0786 142.058 98.1597 142.269C98.2407 142.479 98.359 142.643 98.5146 142.762C98.6703 142.88 98.8609 142.938 99.0864 142.938C99.3215 142.938 99.5176 142.876 99.6749 142.753C99.8337 142.627 99.9528 142.459 100.032 142.247C100.113 142.035 100.154 141.798 100.154 141.537C100.154 141.28 100.114 141.048 100.035 140.842C99.9568 140.634 99.8385 140.469 99.6797 140.349C99.5224 140.226 99.3247 140.165 99.0864 140.165C98.8577 140.165 98.6655 140.223 98.5099 140.339C98.3542 140.453 98.2367 140.614 98.1573 140.82C98.0779 141.025 98.0381 141.264 98.0381 141.537ZM102.136 138.488V143.367H101.574V138.488H102.136ZM104.243 143.453C104.011 143.453 103.8 143.409 103.611 143.322C103.422 143.233 103.272 143.105 103.161 142.938C103.05 142.77 102.994 142.567 102.994 142.328C102.994 142.119 103.036 141.949 103.118 141.819C103.201 141.687 103.311 141.584 103.449 141.509C103.587 141.434 103.74 141.379 103.907 141.342C104.075 141.304 104.244 141.274 104.414 141.252C104.637 141.223 104.817 141.202 104.955 141.187C105.095 141.171 105.196 141.145 105.26 141.109C105.325 141.072 105.358 141.009 105.358 140.918V140.899C105.358 140.664 105.293 140.481 105.165 140.351C105.038 140.221 104.845 140.156 104.586 140.156C104.317 140.156 104.107 140.214 103.954 140.332C103.802 140.449 103.695 140.575 103.633 140.708L103.099 140.518C103.194 140.295 103.321 140.122 103.48 139.998C103.641 139.873 103.815 139.786 104.004 139.736C104.195 139.686 104.382 139.66 104.567 139.66C104.684 139.66 104.819 139.674 104.972 139.703C105.126 139.73 105.274 139.786 105.417 139.872C105.562 139.958 105.682 140.087 105.777 140.26C105.872 140.434 105.92 140.665 105.92 140.956V143.367H105.358V142.872H105.329C105.291 142.951 105.227 143.036 105.138 143.127C105.05 143.217 104.931 143.294 104.783 143.358C104.636 143.421 104.455 143.453 104.243 143.453ZM104.328 142.948C104.551 142.948 104.738 142.904 104.891 142.817C105.045 142.729 105.161 142.617 105.239 142.479C105.318 142.34 105.358 142.195 105.358 142.043V141.528C105.334 141.557 105.281 141.583 105.2 141.607C105.121 141.629 105.029 141.649 104.924 141.666C104.821 141.682 104.72 141.696 104.621 141.709C104.525 141.72 104.446 141.73 104.386 141.738C104.239 141.757 104.103 141.788 103.976 141.831C103.85 141.872 103.749 141.935 103.671 142.019C103.595 142.101 103.557 142.214 103.557 142.357C103.557 142.552 103.629 142.7 103.773 142.8C103.919 142.899 104.104 142.948 104.328 142.948ZM108.433 143.443C108.09 143.443 107.794 143.362 107.547 143.2C107.299 143.038 107.108 142.815 106.975 142.531C106.841 142.247 106.775 141.922 106.775 141.557C106.775 141.185 106.843 140.857 106.979 140.573C107.118 140.287 107.31 140.064 107.556 139.903C107.804 139.741 108.093 139.66 108.423 139.66C108.681 139.66 108.912 139.708 109.119 139.803C109.325 139.898 109.495 140.032 109.626 140.203C109.758 140.375 109.84 140.575 109.872 140.804H109.31C109.267 140.637 109.171 140.489 109.024 140.361C108.878 140.23 108.681 140.165 108.433 140.165C108.214 140.165 108.021 140.222 107.856 140.337C107.693 140.449 107.565 140.609 107.473 140.816C107.382 141.02 107.337 141.261 107.337 141.537C107.337 141.82 107.381 142.066 107.47 142.276C107.561 142.486 107.688 142.648 107.851 142.764C108.017 142.88 108.21 142.938 108.433 142.938C108.579 142.938 108.712 142.913 108.831 142.862C108.95 142.811 109.051 142.738 109.133 142.643C109.216 142.548 109.275 142.433 109.31 142.3H109.872C109.84 142.516 109.761 142.71 109.636 142.884C109.512 143.055 109.348 143.192 109.143 143.293C108.939 143.393 108.703 143.443 108.433 143.443ZM112.228 143.443C111.875 143.443 111.571 143.366 111.316 143.21C111.061 143.053 110.865 142.834 110.727 142.552C110.591 142.27 110.522 141.941 110.522 141.566C110.522 141.191 110.591 140.861 110.727 140.575C110.865 140.287 111.057 140.064 111.304 139.903C111.551 139.741 111.84 139.66 112.171 139.66C112.361 139.66 112.55 139.692 112.736 139.755C112.921 139.819 113.09 139.922 113.243 140.065C113.395 140.206 113.517 140.394 113.607 140.627C113.698 140.861 113.743 141.148 113.743 141.49V141.728H110.922V141.242H113.171C113.171 141.036 113.13 140.851 113.048 140.689C112.967 140.527 112.851 140.399 112.7 140.306C112.55 140.212 112.374 140.165 112.171 140.165C111.947 140.165 111.753 140.221 111.59 140.332C111.428 140.442 111.303 140.584 111.215 140.761C111.128 140.937 111.084 141.126 111.084 141.328V141.652C111.084 141.928 111.132 142.162 111.227 142.355C111.324 142.545 111.459 142.691 111.63 142.791C111.802 142.889 112.001 142.938 112.228 142.938C112.376 142.938 112.509 142.918 112.628 142.876C112.749 142.834 112.853 142.77 112.94 142.686C113.028 142.6 113.095 142.494 113.143 142.367L113.686 142.519C113.629 142.703 113.533 142.865 113.398 143.005C113.263 143.143 113.096 143.251 112.898 143.329C112.699 143.405 112.476 143.443 112.228 143.443Z" fill="#211447"/>
<rect x="33.694" y="150.819" width="5.45111" height="5.451" rx="1.04828" stroke="#BDBDBD" stroke-width="0.419312"/>
<path d="M41.5482 156.043V151.774H42.0652V153.675H44.3417V151.774H44.8587V156.043H44.3417V154.133H42.0652V156.043H41.5482ZM47.1278 156.11C46.8387 156.11 46.5851 156.041 46.3669 155.903C46.1501 155.766 45.9805 155.573 45.8583 155.326C45.7373 155.078 45.6769 154.789 45.6769 154.459C45.6769 154.125 45.7373 153.834 45.8583 153.585C45.9805 153.336 46.1501 153.143 46.3669 153.006C46.5851 152.868 46.8387 152.799 47.1278 152.799C47.4169 152.799 47.6698 152.868 47.8866 153.006C48.1048 153.143 48.2744 153.336 48.3953 153.585C48.5176 153.834 48.5787 154.125 48.5787 154.459C48.5787 154.789 48.5176 155.078 48.3953 155.326C48.2744 155.573 48.1048 155.766 47.8866 155.903C47.6698 156.041 47.4169 156.11 47.1278 156.11ZM47.1278 155.668C47.3474 155.668 47.5281 155.611 47.6698 155.499C47.8116 155.386 47.9165 155.238 47.9846 155.055C48.0527 154.871 48.0867 154.673 48.0867 154.459C48.0867 154.245 48.0527 154.045 47.9846 153.86C47.9165 153.676 47.8116 153.526 47.6698 153.412C47.5281 153.298 47.3474 153.241 47.1278 153.241C46.9082 153.241 46.7275 153.298 46.5858 153.412C46.444 153.526 46.3391 153.676 46.271 153.86C46.2029 154.045 46.1689 154.245 46.1689 154.459C46.1689 154.673 46.2029 154.871 46.271 155.055C46.3391 155.238 46.444 155.386 46.5858 155.499C46.7275 155.611 46.9082 155.668 47.1278 155.668ZM49.3297 156.043V152.841H49.805V153.341H49.8467C49.9134 153.17 50.0211 153.038 50.1698 152.943C50.3185 152.847 50.4971 152.799 50.7056 152.799C50.9168 152.799 51.0926 152.847 51.233 152.943C51.3747 153.038 51.4852 153.17 51.5645 153.341H51.5978C51.6798 153.176 51.8028 153.045 51.9668 152.947C52.1308 152.849 52.3274 152.799 52.5567 152.799C52.843 152.799 53.0772 152.889 53.2593 153.068C53.4413 153.246 53.5324 153.523 53.5324 153.9V156.043H53.0404V153.9C53.0404 153.664 52.9758 153.495 52.8465 153.393C52.7173 153.292 52.5651 153.241 52.39 153.241C52.1648 153.241 51.9904 153.309 51.8667 153.445C51.743 153.58 51.6812 153.751 51.6812 153.958V156.043H51.1809V153.85C51.1809 153.668 51.1218 153.521 51.0037 153.41C50.8856 153.297 50.7334 153.241 50.5471 153.241C50.4193 153.241 50.2998 153.275 50.1886 153.343C50.0788 153.411 49.9898 153.506 49.9217 153.627C49.855 153.746 49.8217 153.885 49.8217 154.042V156.043H49.3297ZM55.7744 156.11C55.4659 156.11 55.1997 156.042 54.976 155.905C54.7536 155.768 54.582 155.576 54.4611 155.33C54.3415 155.083 54.2818 154.795 54.2818 154.467C54.2818 154.139 54.3415 153.85 54.4611 153.6C54.582 153.348 54.7501 153.152 54.9656 153.012C55.1824 152.87 55.4353 152.799 55.7244 152.799C55.8911 152.799 56.0558 152.827 56.2184 152.883C56.381 152.938 56.529 153.029 56.6625 153.154C56.7959 153.277 56.9022 153.441 56.9814 153.646C57.0606 153.85 57.1002 154.101 57.1002 154.4V154.609H54.632V154.183H56.5999C56.5999 154.003 56.5638 153.842 56.4915 153.7C56.4206 153.558 56.3192 153.446 56.1872 153.364C56.0565 153.282 55.9023 153.241 55.7244 153.241C55.5284 153.241 55.3589 153.29 55.2157 153.387C55.074 153.483 54.9649 153.608 54.8884 153.762C54.812 153.917 54.7738 154.082 54.7738 154.259V154.542C54.7738 154.784 54.8155 154.989 54.8988 155.157C54.9836 155.324 55.1011 155.451 55.2512 155.538C55.4012 155.625 55.5757 155.668 55.7744 155.668C55.9036 155.668 56.0204 155.65 56.1246 155.614C56.2302 155.576 56.3213 155.52 56.3977 155.447C56.4741 155.372 56.5332 155.279 56.5749 155.167L57.0502 155.301C57.0002 155.462 56.9161 155.604 56.798 155.726C56.6798 155.847 56.5339 155.942 56.3602 156.01C56.1865 156.076 55.9912 156.11 55.7744 156.11Z" fill="#6A676F"/>
<rect x="33.694" y="161.499" width="5.45111" height="5.451" rx="1.04828" stroke="#BDBDBD" stroke-width="0.419312"/>
<path d="M44.9337 162.453V166.723H44.4334L42.1069 163.371H42.0652V166.723H41.5482V162.453H42.0486L44.3834 165.814H44.4251V162.453H44.9337ZM46.8438 166.798C46.6409 166.798 46.4567 166.759 46.2913 166.683C46.126 166.605 45.9946 166.493 45.8973 166.347C45.8001 166.2 45.7514 166.022 45.7514 165.814C45.7514 165.63 45.7875 165.482 45.8598 165.368C45.9321 165.252 46.0287 165.162 46.1496 165.097C46.2705 165.031 46.4039 164.983 46.5498 164.951C46.6971 164.917 46.8452 164.891 46.9939 164.871C47.1884 164.846 47.3462 164.828 47.4671 164.815C47.5894 164.801 47.6783 164.778 47.7339 164.746C47.7909 164.714 47.8194 164.659 47.8194 164.58V164.563C47.8194 164.357 47.7631 164.197 47.6505 164.083C47.5393 163.97 47.3705 163.913 47.144 163.913C46.9091 163.913 46.7249 163.964 46.5915 164.067C46.4581 164.17 46.3643 164.279 46.3101 164.396L45.8431 164.229C45.9265 164.035 46.0377 163.883 46.1767 163.775C46.317 163.665 46.4699 163.589 46.6353 163.546C46.8021 163.501 46.9661 163.479 47.1273 163.479C47.2301 163.479 47.3483 163.491 47.4817 163.516C47.6165 163.54 47.7464 163.589 47.8715 163.664C47.998 163.74 48.1029 163.853 48.1863 164.004C48.2697 164.156 48.3114 164.359 48.3114 164.613V166.723H47.8194V166.289H47.7944C47.761 166.359 47.7054 166.433 47.6276 166.512C47.5498 166.591 47.4462 166.659 47.317 166.714C47.1877 166.77 47.03 166.798 46.8438 166.798ZM46.9188 166.356C47.1134 166.356 47.2774 166.318 47.4108 166.241C47.5456 166.165 47.6471 166.066 47.7152 165.945C47.7846 165.824 47.8194 165.697 47.8194 165.564V165.113C47.7985 165.138 47.7527 165.161 47.6818 165.182C47.6123 165.202 47.5317 165.219 47.44 165.234C47.3496 165.248 47.2614 165.261 47.1752 165.272C47.0905 165.281 47.0217 165.29 46.9688 165.297C46.841 165.313 46.7215 165.341 46.6103 165.378C46.5005 165.414 46.4116 165.469 46.3435 165.543C46.2767 165.615 46.2434 165.714 46.2434 165.839C46.2434 166.01 46.3066 166.139 46.4331 166.227C46.561 166.313 46.7229 166.356 46.9188 166.356ZM50.6019 163.521V163.938H48.9425V163.521H50.6019ZM49.4261 162.753H49.9181V165.805C49.9181 165.944 49.9383 166.049 49.9786 166.118C50.0202 166.186 50.0731 166.232 50.137 166.256C50.2023 166.278 50.2711 166.289 50.3434 166.289C50.3976 166.289 50.442 166.286 50.4768 166.281C50.5115 166.274 50.5393 166.268 50.5602 166.264L50.6602 166.706C50.6269 166.718 50.5803 166.731 50.5206 166.744C50.4608 166.757 50.3851 166.764 50.2933 166.764C50.1544 166.764 50.0182 166.734 49.8847 166.675C49.7527 166.615 49.6429 166.524 49.5554 166.402C49.4692 166.279 49.4261 166.125 49.4261 165.939V162.753ZM51.3419 166.723V163.521H51.8339V166.723H51.3419ZM51.5921 162.987C51.4962 162.987 51.4135 162.954 51.344 162.889C51.2759 162.824 51.2419 162.745 51.2419 162.653C51.2419 162.562 51.2759 162.483 51.344 162.418C51.4135 162.353 51.4962 162.32 51.5921 162.32C51.688 162.32 51.77 162.353 51.8381 162.418C51.9075 162.483 51.9423 162.562 51.9423 162.653C51.9423 162.745 51.9075 162.824 51.8381 162.889C51.77 162.954 51.688 162.987 51.5921 162.987ZM55.3533 163.521L54.1692 166.723H53.6689L52.4848 163.521H53.0185L53.9024 166.072H53.9357L54.8196 163.521H55.3533ZM57.2305 166.789C56.922 166.789 56.6559 166.721 56.4321 166.585C56.2097 166.447 56.0381 166.256 55.9172 166.01C55.7977 165.762 55.7379 165.475 55.7379 165.147C55.7379 164.819 55.7977 164.53 55.9172 164.279C56.0381 164.028 56.2063 163.832 56.4217 163.692C56.6385 163.55 56.8914 163.479 57.1805 163.479C57.3473 163.479 57.512 163.507 57.6746 163.562C57.8372 163.618 57.9852 163.708 58.1186 163.833C58.252 163.957 58.3583 164.121 58.4375 164.325C58.5168 164.53 58.5564 164.781 58.5564 165.08V165.288H56.0881V164.863H58.056C58.056 164.682 58.0199 164.521 57.9476 164.38C57.8768 164.238 57.7753 164.126 57.6433 164.044C57.5126 163.962 57.3584 163.921 57.1805 163.921C56.9845 163.921 56.815 163.97 56.6718 164.067C56.5301 164.163 56.421 164.288 56.3445 164.442C56.2681 164.596 56.2299 164.762 56.2299 164.938V165.222C56.2299 165.464 56.2716 165.669 56.355 165.837C56.4397 166.003 56.5572 166.131 56.7073 166.218C56.8574 166.304 57.0318 166.347 57.2305 166.347C57.3598 166.347 57.4765 166.329 57.5807 166.293C57.6864 166.256 57.7774 166.2 57.8538 166.126C57.9303 166.051 57.9893 165.958 58.031 165.847L58.5063 165.981C58.4563 166.142 58.3722 166.283 58.2541 166.406C58.136 166.527 57.99 166.621 57.8163 166.689C57.6426 166.756 57.4473 166.789 57.2305 166.789ZM61.0225 166.723V162.453H62.4651C62.8 162.453 63.0738 162.514 63.2864 162.635C63.5004 162.754 63.6589 162.916 63.7617 163.12C63.8646 163.325 63.916 163.553 63.916 163.804C63.916 164.056 63.8646 164.284 63.7617 164.49C63.6603 164.696 63.5032 164.86 63.2906 164.982C63.078 165.103 62.8056 165.163 62.4734 165.163H61.4394V164.705H62.4567C62.686 164.705 62.8702 164.665 63.0092 164.586C63.1481 164.507 63.2489 164.4 63.3114 164.265C63.3754 164.129 63.4073 163.975 63.4073 163.804C63.4073 163.633 63.3754 163.48 63.3114 163.346C63.2489 163.211 63.1474 163.105 63.0071 163.029C62.8667 162.951 62.6805 162.912 62.4484 162.912H61.5395V166.723H61.0225ZM65.1741 162.453V166.723H64.6821V162.453H65.1741ZM67.0174 166.798C66.8145 166.798 66.6304 166.759 66.465 166.683C66.2996 166.605 66.1683 166.493 66.071 166.347C65.9737 166.2 65.9251 166.022 65.9251 165.814C65.9251 165.63 65.9612 165.482 66.0335 165.368C66.1057 165.252 66.2023 165.162 66.3232 165.097C66.4441 165.031 66.5776 164.983 66.7235 164.951C66.8708 164.917 67.0188 164.891 67.1675 164.871C67.3621 164.846 67.5198 164.828 67.6407 164.815C67.763 164.801 67.852 164.778 67.9076 164.746C67.9645 164.714 67.993 164.659 67.993 164.58V164.563C67.993 164.357 67.9367 164.197 67.8242 164.083C67.713 163.97 67.5441 163.913 67.3176 163.913C67.0827 163.913 66.8986 163.964 66.7652 164.067C66.6318 164.17 66.538 164.279 66.4838 164.396L66.0168 164.229C66.1002 164.035 66.2114 163.883 66.3503 163.775C66.4907 163.665 66.6436 163.589 66.809 163.546C66.9757 163.501 67.1397 163.479 67.3009 163.479C67.4038 163.479 67.5219 163.491 67.6553 163.516C67.7901 163.54 67.9201 163.589 68.0452 163.664C68.1716 163.74 68.2765 163.853 68.3599 164.004C68.4433 164.156 68.485 164.359 68.485 164.613V166.723H67.993V166.289H67.968C67.9347 166.359 67.8791 166.433 67.8012 166.512C67.7234 166.591 67.6199 166.659 67.4906 166.714C67.3614 166.77 67.2036 166.798 67.0174 166.798ZM67.0925 166.356C67.287 166.356 67.451 166.318 67.5844 166.241C67.7193 166.165 67.8207 166.066 67.8888 165.945C67.9583 165.824 67.993 165.697 67.993 165.564V165.113C67.9722 165.138 67.9263 165.161 67.8554 165.182C67.786 165.202 67.7054 165.219 67.6136 165.234C67.5233 165.248 67.435 165.261 67.3489 165.272C67.2641 165.281 67.1953 165.29 67.1425 165.297C67.0146 165.313 66.8951 165.341 66.7839 165.378C66.6741 165.414 66.5852 165.469 66.5171 165.543C66.4504 165.615 66.417 165.714 66.417 165.839C66.417 166.01 66.4803 166.139 66.6067 166.227C66.7346 166.313 66.8965 166.356 67.0925 166.356ZM70.6838 166.789C70.3836 166.789 70.1251 166.718 69.9083 166.577C69.6915 166.435 69.5247 166.24 69.408 165.991C69.2912 165.742 69.2329 165.458 69.2329 165.138C69.2329 164.813 69.2926 164.526 69.4122 164.277C69.5331 164.027 69.7012 163.832 69.9166 163.692C70.1334 163.55 70.3864 163.479 70.6755 163.479C70.9006 163.479 71.1035 163.521 71.2842 163.604C71.4648 163.687 71.6129 163.804 71.7282 163.954C71.8436 164.104 71.9151 164.279 71.9429 164.48H71.4509C71.4134 164.334 71.33 164.204 71.2008 164.092C71.0729 163.978 70.9006 163.921 70.6838 163.921C70.492 163.921 70.3238 163.971 70.1793 164.071C70.0362 164.17 69.9243 164.309 69.8437 164.49C69.7645 164.669 69.7249 164.88 69.7249 165.122C69.7249 165.369 69.7638 165.584 69.8416 165.768C69.9208 165.951 70.032 166.094 70.1751 166.195C70.3197 166.297 70.4892 166.347 70.6838 166.347C70.8117 166.347 70.9277 166.325 71.0319 166.281C71.1362 166.236 71.2244 166.172 71.2967 166.089C71.3689 166.006 71.4204 165.905 71.4509 165.789H71.9429C71.9151 165.978 71.8463 166.148 71.7365 166.299C71.6281 166.45 71.4843 166.569 71.305 166.658C71.1271 166.746 70.9201 166.789 70.6838 166.789ZM74.0046 166.789C73.6961 166.789 73.43 166.721 73.2062 166.585C72.9839 166.447 72.8122 166.256 72.6913 166.01C72.5718 165.762 72.512 165.475 72.512 165.147C72.512 164.819 72.5718 164.53 72.6913 164.279C72.8122 164.028 72.9804 163.832 73.1958 163.692C73.4126 163.55 73.6655 163.479 73.9546 163.479C74.1214 163.479 74.2861 163.507 74.4487 163.562C74.6113 163.618 74.7593 163.708 74.8927 163.833C75.0261 163.957 75.1324 164.121 75.2116 164.325C75.2909 164.53 75.3305 164.781 75.3305 165.08V165.288H72.8622V164.863H74.8302C74.8302 164.682 74.794 164.521 74.7218 164.38C74.6509 164.238 74.5494 164.126 74.4174 164.044C74.2868 163.962 74.1325 163.921 73.9546 163.921C73.7586 163.921 73.5891 163.97 73.446 164.067C73.3042 164.163 73.1951 164.288 73.1187 164.442C73.0422 164.596 73.004 164.762 73.004 164.938V165.222C73.004 165.464 73.0457 165.669 73.1291 165.837C73.2139 166.003 73.3313 166.131 73.4814 166.218C73.6315 166.304 73.8059 166.347 74.0046 166.347C74.1339 166.347 74.2506 166.329 74.3549 166.293C74.4605 166.256 74.5515 166.2 74.6279 166.126C74.7044 166.051 74.7634 165.958 74.8051 165.847L75.2804 165.981C75.2304 166.142 75.1463 166.283 75.0282 166.406C74.9101 166.527 74.7641 166.621 74.5904 166.689C74.4167 166.756 74.2214 166.789 74.0046 166.789Z" fill="#6A676F"/>
<rect x="33.694" y="172.174" width="5.45111" height="5.451" rx="1.04828" stroke="#BDBDBD" stroke-width="0.419312"/>
<path d="M44.9837 174.463H44.4667C44.4362 174.315 44.3827 174.184 44.3062 174.071C44.2312 173.959 44.1395 173.864 44.0311 173.788C43.924 173.71 43.8052 173.652 43.6746 173.613C43.5439 173.574 43.4077 173.554 43.266 173.554C43.0075 173.554 42.7733 173.62 42.5635 173.75C42.355 173.881 42.1889 174.073 42.0652 174.328C41.9429 174.582 41.8818 174.894 41.8818 175.264C41.8818 175.633 41.9429 175.945 42.0652 176.2C42.1889 176.454 42.355 176.647 42.5635 176.777C42.7733 176.908 43.0075 176.973 43.266 176.973C43.4077 176.973 43.5439 176.954 43.6746 176.915C43.8052 176.876 43.924 176.818 44.0311 176.742C44.1395 176.664 44.2312 176.569 44.3062 176.456C44.3827 176.342 44.4362 176.212 44.4667 176.064H44.9837C44.9448 176.282 44.8739 176.478 44.7711 176.65C44.6683 176.822 44.5404 176.969 44.3875 177.09C44.2347 177.209 44.063 177.3 43.8726 177.363C43.6836 177.426 43.4814 177.457 43.266 177.457C42.9019 177.457 42.5781 177.368 42.2945 177.19C42.011 177.012 41.788 176.759 41.6254 176.431C41.4628 176.103 41.3815 175.714 41.3815 175.264C41.3815 174.813 41.4628 174.424 41.6254 174.096C41.788 173.768 42.011 173.515 42.2945 173.338C42.5781 173.16 42.9019 173.071 43.266 173.071C43.4814 173.071 43.6836 173.102 43.8726 173.165C44.063 173.227 44.2347 173.319 44.3875 173.44C44.5404 173.559 44.6683 173.705 44.7711 173.877C44.8739 174.048 44.9448 174.244 44.9837 174.463ZM47.0533 177.465C46.7642 177.465 46.5106 177.396 46.2924 177.259C46.0756 177.121 45.906 176.929 45.7837 176.681C45.6628 176.434 45.6024 176.145 45.6024 175.814C45.6024 175.481 45.6628 175.189 45.7837 174.941C45.906 174.692 46.0756 174.499 46.2924 174.361C46.5106 174.224 46.7642 174.155 47.0533 174.155C47.3423 174.155 47.5953 174.224 47.8121 174.361C48.0303 174.499 48.1998 174.692 48.3207 174.941C48.443 175.189 48.5042 175.481 48.5042 175.814C48.5042 176.145 48.443 176.434 48.3207 176.681C48.1998 176.929 48.0303 177.121 47.8121 177.259C47.5953 177.396 47.3423 177.465 47.0533 177.465ZM47.0533 177.023C47.2729 177.023 47.4535 176.967 47.5953 176.854C47.737 176.742 47.842 176.594 47.9101 176.41C47.9782 176.227 48.0122 176.028 48.0122 175.814C48.0122 175.6 47.9782 175.401 47.9101 175.216C47.842 175.031 47.737 174.882 47.5953 174.768C47.4535 174.654 47.2729 174.597 47.0533 174.597C46.8337 174.597 46.653 174.654 46.5113 174.768C46.3695 174.882 46.2646 175.031 46.1965 175.216C46.1284 175.401 46.0943 175.6 46.0943 175.814C46.0943 176.028 46.1284 176.227 46.1965 176.41C46.2646 176.594 46.3695 176.742 46.5113 176.854C46.653 176.967 46.8337 177.023 47.0533 177.023ZM49.7472 173.129V177.398H49.2552V173.129H49.7472ZM51.1402 173.129V177.398H50.6482V173.129H51.1402ZM53.3838 177.465C53.0753 177.465 52.8092 177.397 52.5854 177.261C52.363 177.123 52.1914 176.931 52.0705 176.685C51.951 176.438 51.8912 176.15 51.8912 175.822C51.8912 175.494 51.951 175.205 52.0705 174.955C52.1914 174.704 52.3596 174.508 52.575 174.367C52.7918 174.226 53.0447 174.155 53.3338 174.155C53.5006 174.155 53.6653 174.183 53.8279 174.238C53.9905 174.294 54.1385 174.384 54.2719 174.509C54.4053 174.633 54.5116 174.797 54.5908 175.001C54.6701 175.205 54.7097 175.457 54.7097 175.756V175.964H52.2414V175.539H54.2093C54.2093 175.358 54.1732 175.197 54.1009 175.055C54.0301 174.914 53.9286 174.802 53.7966 174.72C53.6659 174.638 53.5117 174.597 53.3338 174.597C53.1378 174.597 52.9683 174.645 52.8251 174.743C52.6834 174.838 52.5743 174.964 52.4979 175.118C52.4214 175.272 52.3832 175.437 52.3832 175.614V175.897C52.3832 176.139 52.4249 176.344 52.5083 176.512C52.5931 176.679 52.7105 176.806 52.8606 176.894C53.0107 176.98 53.1851 177.023 53.3838 177.023C53.5131 177.023 53.6298 177.005 53.734 176.969C53.8397 176.931 53.9307 176.876 54.0071 176.802C54.0836 176.727 54.1426 176.634 54.1843 176.523L54.6596 176.656C54.6096 176.818 54.5255 176.959 54.4074 177.082C54.2893 177.202 54.1433 177.297 53.9696 177.365C53.7959 177.432 53.6006 177.465 53.3838 177.465ZM56.7505 178.666C56.5129 178.666 56.3086 178.635 56.1376 178.574C55.9667 178.514 55.8243 178.435 55.7103 178.337C55.5977 178.239 55.5081 178.135 55.4414 178.024L55.8333 177.749C55.8778 177.807 55.934 177.874 56.0021 177.949C56.0702 178.025 56.1634 178.091 56.2815 178.147C56.401 178.204 56.5574 178.232 56.7505 178.232C57.009 178.232 57.2224 178.17 57.3905 178.045C57.5587 177.92 57.6428 177.724 57.6428 177.457V176.806H57.6011C57.5649 176.865 57.5135 176.937 57.4468 177.023C57.3815 177.108 57.287 177.184 57.1633 177.25C57.041 177.316 56.8756 177.348 56.6671 177.348C56.4087 177.348 56.1766 177.287 55.9709 177.165C55.7666 177.043 55.6047 176.865 55.4852 176.631C55.367 176.398 55.308 176.114 55.308 175.781C55.308 175.453 55.3656 175.167 55.481 174.924C55.5963 174.679 55.7569 174.49 55.9625 174.357C56.1682 174.222 56.4059 174.155 56.6755 174.155C56.884 174.155 57.0493 174.189 57.1716 174.259C57.2953 174.327 57.3898 174.405 57.4551 174.492C57.5219 174.579 57.5733 174.649 57.6094 174.705H57.6594V174.196H58.1347V177.49C58.1347 177.765 58.0722 177.989 57.9471 178.161C57.8234 178.335 57.6567 178.462 57.4468 178.543C57.2383 178.625 57.0062 178.666 56.7505 178.666ZM56.7339 176.906C56.9312 176.906 57.098 176.861 57.2342 176.771C57.3704 176.681 57.4739 176.551 57.5448 176.381C57.6157 176.212 57.6511 176.009 57.6511 175.772C57.6511 175.542 57.6164 175.338 57.5469 175.162C57.4774 174.985 57.3745 174.847 57.2383 174.747C57.1021 174.647 56.934 174.597 56.7339 174.597C56.5254 174.597 56.3517 174.649 56.2127 174.755C56.0751 174.861 55.9716 175.002 55.9021 175.18C55.834 175.358 55.7999 175.556 55.7999 175.772C55.7999 175.995 55.8347 176.191 55.9042 176.362C55.975 176.532 56.0793 176.665 56.2169 176.763C56.3558 176.859 56.5282 176.906 56.7339 176.906ZM60.3778 177.465C60.0693 177.465 59.8032 177.397 59.5794 177.261C59.357 177.123 59.1854 176.931 59.0645 176.685C58.945 176.438 58.8852 176.15 58.8852 175.822C58.8852 175.494 58.945 175.205 59.0645 174.955C59.1854 174.704 59.3536 174.508 59.569 174.367C59.7858 174.226 60.0387 174.155 60.3278 174.155C60.4946 174.155 60.6592 174.183 60.8218 174.238C60.9845 174.294 61.1325 174.384 61.2659 174.509C61.3993 174.633 61.5056 174.797 61.5848 175.001C61.664 175.205 61.7037 175.457 61.7037 175.756V175.964H59.2354V175.539H61.2033C61.2033 175.358 61.1672 175.197 61.0949 175.055C61.0241 174.914 60.9226 174.802 60.7906 174.72C60.6599 174.638 60.5057 174.597 60.3278 174.597C60.1318 174.597 59.9623 174.645 59.8191 174.743C59.6774 174.838 59.5683 174.964 59.4918 175.118C59.4154 175.272 59.3772 175.437 59.3772 175.614V175.897C59.3772 176.139 59.4189 176.344 59.5023 176.512C59.587 176.679 59.7045 176.806 59.8546 176.894C60.0047 176.98 60.1791 177.023 60.3778 177.023C60.5071 177.023 60.6238 177.005 60.728 176.969C60.8337 176.931 60.9247 176.876 61.0011 176.802C61.0776 176.727 61.1366 176.634 61.1783 176.523L61.6536 176.656C61.6036 176.818 61.5195 176.959 61.4014 177.082C61.2833 177.202 61.1373 177.297 60.9636 177.365C60.7899 177.432 60.5946 177.465 60.3778 177.465Z" fill="#6A676F"/>
<rect x="33.694" y="182.854" width="5.45111" height="5.451" rx="1.04828" stroke="#BDBDBD" stroke-width="0.419312"/>
<path d="M41.7234 188.078H41.1813L42.749 183.809H43.2827L44.8503 188.078H44.3083L43.0325 184.484H42.9992L41.7234 188.078ZM41.9235 186.41H44.1082V186.869H41.9235V186.41ZM45.9406 186.152V188.078H45.4486V184.876H45.9239V185.376H45.9656C46.0407 185.214 46.1546 185.083 46.3075 184.985C46.4604 184.884 46.6577 184.834 46.8995 184.834C47.1163 184.834 47.306 184.879 47.4686 184.968C47.6312 185.055 47.7577 185.189 47.848 185.368C47.9384 185.546 47.9835 185.771 47.9835 186.044V188.078H47.4916V186.077C47.4916 185.825 47.4263 185.629 47.2956 185.489C47.165 185.347 46.9857 185.276 46.7578 185.276C46.6007 185.276 46.4604 185.31 46.3367 185.379C46.2144 185.447 46.1178 185.546 46.0469 185.677C45.976 185.807 45.9406 185.966 45.9406 186.152ZM49.0848 189.279C49.0014 189.279 48.927 189.272 48.8617 189.258C48.7964 189.246 48.7512 189.233 48.7262 189.221L48.8513 188.787C48.9708 188.817 49.0764 188.829 49.1681 188.82C49.2599 188.812 49.3412 188.771 49.4121 188.697C49.4843 188.625 49.5503 188.508 49.6101 188.345L49.7018 188.095L48.5177 184.876H49.0514L49.9353 187.428H49.9687L50.8525 184.876H51.3862L50.027 188.545C49.9659 188.71 49.8901 188.847 49.7998 188.956C49.7095 189.066 49.6045 189.147 49.485 189.2C49.3669 189.252 49.2335 189.279 49.0848 189.279ZM52.761 188.078L51.7854 184.876H52.3024L52.9945 187.328H53.0279L53.7116 184.876H54.237L54.9124 187.319H54.9457L55.6379 184.876H56.1548L55.1792 188.078H54.6956L53.9951 185.618H53.9451L53.2447 188.078H52.761ZM57.2972 186.152V188.078H56.8053V183.809H57.2972V185.376H57.3389C57.414 185.211 57.5265 185.08 57.6766 184.982C57.8281 184.884 58.0296 184.834 58.2812 184.834C58.4994 184.834 58.6905 184.878 58.8545 184.966C59.0185 185.052 59.1456 185.185 59.236 185.364C59.3277 185.542 59.3735 185.768 59.3735 186.044V188.078H58.8816V186.077C58.8816 185.823 58.8155 185.626 58.6835 185.487C58.5529 185.347 58.3715 185.276 58.1394 185.276C57.9782 185.276 57.8337 185.31 57.7058 185.379C57.5794 185.447 57.4793 185.546 57.4056 185.677C57.3334 185.807 57.2972 185.966 57.2972 186.152ZM61.6161 188.145C61.3076 188.145 61.0414 188.077 60.8177 187.941C60.5953 187.803 60.4237 187.611 60.3028 187.365C60.1833 187.118 60.1235 186.83 60.1235 186.502C60.1235 186.174 60.1833 185.885 60.3028 185.635C60.4237 185.383 60.5918 185.187 60.8073 185.047C61.0241 184.905 61.277 184.834 61.5661 184.834C61.7328 184.834 61.8975 184.862 62.0601 184.918C62.2227 184.973 62.3707 185.064 62.5042 185.189C62.6376 185.312 62.7439 185.476 62.8231 185.681C62.9023 185.885 62.9419 186.137 62.9419 186.435V186.644H60.4737V186.219H62.4416C62.4416 186.038 62.4055 185.877 62.3332 185.735C62.2623 185.593 62.1609 185.481 62.0289 185.399C61.8982 185.317 61.744 185.276 61.5661 185.276C61.3701 185.276 61.2006 185.325 61.0574 185.422C60.9157 185.518 60.8066 185.643 60.7301 185.798C60.6537 185.952 60.6155 186.117 60.6155 186.294V186.577C60.6155 186.819 60.6572 187.024 60.7405 187.192C60.8253 187.359 60.9428 187.486 61.0929 187.574C61.2429 187.66 61.4174 187.703 61.6161 187.703C61.7453 187.703 61.8621 187.685 61.9663 187.649C62.0719 187.611 62.163 187.556 62.2394 187.482C62.3158 187.407 62.3749 187.314 62.4166 187.203L62.8919 187.336C62.8419 187.497 62.7578 187.639 62.6397 187.761C62.5215 187.882 62.3756 187.977 62.2019 188.045C62.0282 188.111 61.8329 188.145 61.6161 188.145ZM63.6903 188.078V184.876H64.1656V185.36H64.199C64.2573 185.201 64.363 185.073 64.5158 184.974C64.6687 184.875 64.841 184.826 65.0328 184.826C65.069 184.826 65.1141 184.827 65.1683 184.828C65.2225 184.83 65.2635 184.832 65.2913 184.834V185.335C65.2747 185.331 65.2364 185.324 65.1767 185.316C65.1183 185.306 65.0565 185.301 64.9911 185.301C64.8355 185.301 64.6965 185.334 64.5742 185.399C64.4533 185.463 64.3574 185.552 64.2865 185.666C64.217 185.779 64.1823 185.907 64.1823 186.052V188.078H63.6903ZM67.1196 188.145C66.811 188.145 66.5449 188.077 66.3211 187.941C66.0988 187.803 65.9271 187.611 65.8062 187.365C65.6867 187.118 65.627 186.83 65.627 186.502C65.627 186.174 65.6867 185.885 65.8062 185.635C65.9271 185.383 66.0953 185.187 66.3107 185.047C66.5275 184.905 66.7805 184.834 67.0695 184.834C67.2363 184.834 67.401 184.862 67.5636 184.918C67.7262 184.973 67.8742 185.064 68.0076 185.189C68.141 185.312 68.2474 185.476 68.3266 185.681C68.4058 185.885 68.4454 186.137 68.4454 186.435V186.644H65.9772V186.219H67.9451C67.9451 186.038 67.909 185.877 67.8367 185.735C67.7658 185.593 67.6644 185.481 67.5323 185.399C67.4017 185.317 67.2474 185.276 67.0695 185.276C66.8736 185.276 66.704 185.325 66.5609 185.422C66.4191 185.518 66.31 185.643 66.2336 185.798C66.1572 185.952 66.1189 186.117 66.1189 186.294V186.577C66.1189 186.819 66.1606 187.024 66.244 187.192C66.3288 187.359 66.4462 187.486 66.5963 187.574C66.7464 187.66 66.9208 187.703 67.1196 187.703C67.2488 187.703 67.3656 187.685 67.4698 187.649C67.5754 187.611 67.6664 187.556 67.7429 187.482C67.8193 187.407 67.8784 187.314 67.9201 187.203L68.3954 187.336C68.3453 187.497 68.2613 187.639 68.1431 187.761C68.025 187.882 67.8791 187.977 67.7054 188.045C67.5316 188.111 67.3364 188.145 67.1196 188.145ZM72.1457 188.145C71.8566 188.145 71.6029 188.076 71.3848 187.938C71.168 187.801 70.9984 187.608 70.8761 187.361C70.7552 187.114 70.6947 186.825 70.6947 186.494C70.6947 186.16 70.7552 185.869 70.8761 185.62C70.9984 185.372 71.168 185.178 71.3848 185.041C71.6029 184.903 71.8566 184.834 72.1457 184.834C72.4347 184.834 72.6877 184.903 72.9045 185.041C73.1227 185.178 73.2922 185.372 73.4131 185.62C73.5354 185.869 73.5966 186.16 73.5966 186.494C73.5966 186.825 73.5354 187.114 73.4131 187.361C73.2922 187.608 73.1227 187.801 72.9045 187.938C72.6877 188.076 72.4347 188.145 72.1457 188.145ZM72.1457 187.703C72.3652 187.703 72.5459 187.647 72.6877 187.534C72.8294 187.421 72.9343 187.273 73.0024 187.09C73.0705 186.907 73.1046 186.708 73.1046 186.494C73.1046 186.28 73.0705 186.08 73.0024 185.895C72.9343 185.711 72.8294 185.561 72.6877 185.447C72.5459 185.333 72.3652 185.276 72.1457 185.276C71.9261 185.276 71.7454 185.333 71.6036 185.447C71.4619 185.561 71.357 185.711 71.2889 185.895C71.2208 186.08 71.1867 186.28 71.1867 186.494C71.1867 186.708 71.2208 186.907 71.2889 187.09C71.357 187.273 71.4619 187.421 71.6036 187.534C71.7454 187.647 71.9261 187.703 72.1457 187.703ZM76.3655 186.769V184.876H76.8575V188.078H76.3655V187.536H76.3321C76.2571 187.699 76.1404 187.837 75.9819 187.951C75.8235 188.064 75.6234 188.12 75.3815 188.12C75.1814 188.12 75.0035 188.076 74.8479 187.988C74.6922 187.9 74.5699 187.766 74.481 187.588C74.392 187.409 74.3476 187.183 74.3476 186.911V184.876H74.8395V186.877C74.8395 187.111 74.9049 187.297 75.0355 187.436C75.1675 187.575 75.3357 187.645 75.54 187.645C75.6623 187.645 75.7867 187.613 75.9131 187.551C76.041 187.488 76.148 187.392 76.2342 187.263C76.3217 187.134 76.3655 186.969 76.3655 186.769ZM79.1511 184.876V185.293H77.4917V184.876H79.1511ZM77.9754 184.109H78.4673V187.161C78.4673 187.3 78.4875 187.404 78.5278 187.474C78.5695 187.542 78.6223 187.588 78.6862 187.611C78.7516 187.633 78.8203 187.645 78.8926 187.645C78.9468 187.645 78.9913 187.642 79.026 187.636C79.0608 187.629 79.0886 187.624 79.1094 187.62L79.2095 188.061C79.1761 188.074 79.1296 188.086 79.0698 188.099C79.01 188.113 78.9343 188.12 78.8426 188.12C78.7036 188.12 78.5674 188.09 78.434 188.03C78.302 187.97 78.1922 187.879 78.1046 187.757C78.0185 187.635 77.9754 187.481 77.9754 187.294V184.109ZM82.1019 185.593L81.66 185.718C81.6322 185.645 81.5912 185.573 81.537 185.504C81.4842 185.433 81.4119 185.374 81.3202 185.328C81.2285 185.283 81.111 185.26 80.9679 185.26C80.7719 185.26 80.6086 185.305 80.478 185.395C80.3487 185.484 80.2841 185.597 80.2841 185.735C80.2841 185.857 80.3286 185.954 80.4175 186.025C80.5065 186.096 80.6455 186.155 80.8345 186.202L81.3098 186.319C81.5961 186.388 81.8094 186.494 81.9497 186.638C82.0901 186.779 82.1603 186.962 82.1603 187.186C82.1603 187.369 82.1075 187.533 82.0019 187.678C81.8976 187.822 81.7517 187.936 81.5641 188.02C81.3765 188.103 81.1583 188.145 80.9095 188.145C80.5829 188.145 80.3126 188.074 80.0986 187.932C79.8846 187.79 79.7491 187.583 79.6921 187.311L80.159 187.194C80.2035 187.367 80.2876 187.496 80.4113 187.582C80.5364 187.668 80.6997 187.711 80.9012 187.711C81.1305 187.711 81.3125 187.663 81.4473 187.565C81.5835 187.467 81.6516 187.348 81.6516 187.211C81.6516 187.1 81.6127 187.007 81.5349 186.932C81.4571 186.855 81.3376 186.798 81.1763 186.761L80.6427 186.636C80.3494 186.566 80.134 186.458 79.9964 186.312C79.8602 186.165 79.7921 185.981 79.7921 185.76C79.7921 185.579 79.8429 185.42 79.9443 185.281C80.0472 185.142 80.1868 185.032 80.3633 184.953C80.5412 184.874 80.7427 184.834 80.9679 184.834C81.2847 184.834 81.5335 184.904 81.7142 185.043C81.8962 185.182 82.0255 185.365 82.1019 185.593ZM82.9009 188.078V184.876H83.3928V188.078H82.9009ZM83.151 184.342C83.0551 184.342 82.9724 184.31 82.903 184.244C82.8349 184.179 82.8008 184.101 82.8008 184.009C82.8008 183.917 82.8349 183.839 82.903 183.773C82.9724 183.708 83.0551 183.675 83.151 183.675C83.2469 183.675 83.3289 183.708 83.397 183.773C83.4665 183.839 83.5012 183.917 83.5012 184.009C83.5012 184.101 83.4665 184.179 83.397 184.244C83.3289 184.31 83.2469 184.342 83.151 184.342ZM85.503 188.145C85.2362 188.145 85.0006 188.077 84.7963 187.943C84.592 187.806 84.4322 187.615 84.3169 187.367C84.2015 187.118 84.1438 186.825 84.1438 186.485C84.1438 186.149 84.2015 185.857 84.3169 185.61C84.4322 185.363 84.5927 185.171 84.7984 185.037C85.0041 184.902 85.2418 184.834 85.5114 184.834C85.7198 184.834 85.8845 184.869 86.0054 184.939C86.1277 185.007 86.2208 185.085 86.2848 185.172C86.3501 185.258 86.4008 185.329 86.437 185.385H86.4786V183.809H86.9706V188.078H86.4953V187.586H86.437C86.4008 187.645 86.3494 187.718 86.2827 187.807C86.216 187.895 86.1208 187.973 85.9971 188.043C85.8734 188.111 85.7087 188.145 85.503 188.145ZM85.5697 187.703C85.7671 187.703 85.9339 187.651 86.0701 187.549C86.2063 187.444 86.3098 187.301 86.3807 187.117C86.4515 186.932 86.487 186.719 86.487 186.477C86.487 186.238 86.4522 186.029 86.3828 185.85C86.3133 185.669 86.2104 185.529 86.0742 185.429C85.938 185.327 85.7699 185.276 85.5697 185.276C85.3613 185.276 85.1876 185.33 85.0486 185.437C84.911 185.542 84.8075 185.686 84.738 185.868C84.6699 186.049 84.6358 186.252 84.6358 186.477C84.6358 186.705 84.6706 186.912 84.74 187.098C84.8109 187.283 84.9152 187.43 85.0527 187.54C85.1917 187.649 85.3641 187.703 85.5697 187.703ZM89.2825 188.145C88.974 188.145 88.7078 188.077 88.4841 187.941C88.2617 187.803 88.0901 187.611 87.9692 187.365C87.8496 187.118 87.7899 186.83 87.7899 186.502C87.7899 186.174 87.8496 185.885 87.9692 185.635C88.0901 185.383 88.2582 185.187 88.4737 185.047C88.6905 184.905 88.9434 184.834 89.2325 184.834C89.3992 184.834 89.5639 184.862 89.7265 184.918C89.8891 184.973 90.0371 185.064 90.1706 185.189C90.304 185.312 90.4103 185.476 90.4895 185.681C90.5687 185.885 90.6083 186.137 90.6083 186.435V186.644H88.1401V186.219H90.108C90.108 186.038 90.0719 185.877 89.9996 185.735C89.9287 185.593 89.8273 185.481 89.6953 185.399C89.5646 185.317 89.4104 185.276 89.2325 185.276C89.0365 185.276 88.867 185.325 88.7238 185.422C88.5821 185.518 88.473 185.643 88.3965 185.798C88.3201 185.952 88.2819 186.117 88.2819 186.294V186.577C88.2819 186.819 88.3236 187.024 88.4069 187.192C88.4917 187.359 88.6092 187.486 88.7592 187.574C88.9093 187.66 89.0838 187.703 89.2825 187.703C89.4117 187.703 89.5285 187.685 89.6327 187.649C89.7383 187.611 89.8294 187.556 89.9058 187.482C89.9822 187.407 90.0413 187.314 90.083 187.203L90.5583 187.336C90.5083 187.497 90.4242 187.639 90.3061 187.761C90.1879 187.882 90.042 187.977 89.8683 188.045C89.6946 188.111 89.4993 188.145 89.2825 188.145Z" fill="#6A676F"/>
<rect x="5.21785" y="102.933" width="81.7186" height="21.9469" rx="3.5022" fill="white"/>
<path d="M18.0667 112.965C17.5602 112.965 17.1328 113.392 17.1328 113.899C17.1328 114.405 17.5602 114.833 18.0667 114.833C18.5732 114.833 19.0007 114.405 19.0007 113.899C19.0007 113.392 18.5732 112.965 18.0667 112.965Z" fill="#211447"/>
<path d="M20.6357 113.903C20.6357 115.322 19.4858 116.472 18.0674 116.472C16.649 116.472 15.4991 115.322 15.4991 113.903C15.4991 112.485 16.649 111.335 18.0674 111.335C19.4858 111.335 20.6357 112.485 20.6357 113.903Z" stroke="#211447" stroke-width="0.466959"/>
<path d="M34.3087 112.34C34.2808 112.105 34.1678 111.923 33.9697 111.792C33.7716 111.662 33.5286 111.597 33.2408 111.597C33.0303 111.597 32.8461 111.632 32.6882 111.7C32.5319 111.768 32.4097 111.861 32.3214 111.981C32.2348 112.1 32.1914 112.235 32.1914 112.387C32.1914 112.514 32.2216 112.623 32.282 112.714C32.3439 112.804 32.4228 112.879 32.5188 112.939C32.6147 112.998 32.7153 113.047 32.8206 113.086C32.9258 113.123 33.0225 113.153 33.1108 113.176L33.5936 113.306C33.7175 113.339 33.8552 113.384 34.0069 113.441C34.1601 113.498 34.3063 113.576 34.4456 113.675C34.5865 113.773 34.7026 113.898 34.7939 114.051C34.8852 114.205 34.9308 114.393 34.9308 114.615C34.9308 114.872 34.8635 115.105 34.7289 115.312C34.5958 115.519 34.4008 115.684 34.1438 115.806C33.8885 115.929 33.5782 115.99 33.2129 115.99C32.8724 115.99 32.5776 115.935 32.3284 115.825C32.0808 115.715 31.8858 115.562 31.7434 115.365C31.6025 115.169 31.5228 114.94 31.5043 114.68H32.0986C32.114 114.86 32.1744 115.009 32.2796 115.126C32.3864 115.242 32.5211 115.329 32.6836 115.386C32.8477 115.442 33.0241 115.47 33.2129 115.47C33.4327 115.47 33.63 115.434 33.8049 115.363C33.9798 115.29 34.1183 115.19 34.2204 115.061C34.3226 114.931 34.3737 114.78 34.3737 114.606C34.3737 114.448 34.3296 114.32 34.2413 114.221C34.1531 114.122 34.037 114.041 33.8931 113.979C33.7492 113.917 33.5936 113.863 33.4265 113.817L32.8415 113.65C32.47 113.543 32.176 113.39 31.9593 113.192C31.7426 112.994 31.6343 112.735 31.6343 112.415C31.6343 112.148 31.7062 111.916 31.8502 111.718C31.9956 111.519 32.1907 111.364 32.4352 111.254C32.6813 111.142 32.956 111.087 33.2593 111.087C33.5658 111.087 33.8382 111.142 34.0765 111.252C34.3149 111.36 34.5037 111.508 34.643 111.697C34.7838 111.886 34.8581 112.1 34.8658 112.34H34.3087ZM35.8032 115.906V112.34H36.351V115.906H35.8032ZM36.0817 111.746C35.9749 111.746 35.8829 111.71 35.8055 111.637C35.7296 111.564 35.6917 111.477 35.6917 111.375C35.6917 111.272 35.7296 111.185 35.8055 111.112C35.8829 111.04 35.9749 111.003 36.0817 111.003C36.1885 111.003 36.2798 111.04 36.3557 111.112C36.4331 111.185 36.4718 111.272 36.4718 111.375C36.4718 111.477 36.4331 111.564 36.3557 111.637C36.2798 111.71 36.1885 111.746 36.0817 111.746ZM37.9024 113.761V115.906H37.3545V112.34H37.8838V112.898H37.9303C38.0138 112.716 38.1407 112.571 38.311 112.461C38.4812 112.35 38.701 112.294 38.9703 112.294C39.2117 112.294 39.423 112.343 39.6041 112.443C39.7852 112.54 39.926 112.689 40.0266 112.888C40.1272 113.086 40.1775 113.337 40.1775 113.64V115.906H39.6296V113.678C39.6296 113.397 39.5569 113.179 39.4114 113.023C39.2659 112.865 39.0663 112.786 38.8124 112.786C38.6375 112.786 38.4812 112.824 38.3435 112.9C38.2073 112.976 38.0997 113.086 38.0208 113.232C37.9419 113.377 37.9024 113.554 37.9024 113.761ZM42.618 117.318C42.3534 117.318 42.1258 117.284 41.9355 117.216C41.7451 117.149 41.5865 117.061 41.4596 116.951C41.3342 116.843 41.2344 116.727 41.1601 116.603L41.5965 116.296C41.6461 116.361 41.7087 116.436 41.7846 116.519C41.8604 116.604 41.9641 116.678 42.0957 116.74C42.2288 116.803 42.4029 116.835 42.618 116.835C42.9059 116.835 43.1434 116.765 43.3307 116.626C43.518 116.487 43.6116 116.268 43.6116 115.971V115.247H43.5652C43.525 115.312 43.4677 115.392 43.3934 115.488C43.3207 115.583 43.2154 115.667 43.0777 115.741C42.9415 115.814 42.7573 115.851 42.5251 115.851C42.2373 115.851 41.9788 115.782 41.7498 115.646C41.5222 115.51 41.3419 115.312 41.2088 115.052C41.0773 114.792 41.0115 114.476 41.0115 114.105C41.0115 113.739 41.0757 113.421 41.2042 113.151C41.3327 112.878 41.5114 112.668 41.7405 112.519C41.9695 112.369 42.2342 112.294 42.5344 112.294C42.7666 112.294 42.9508 112.333 43.087 112.41C43.2247 112.486 43.3299 112.573 43.4027 112.67C43.477 112.766 43.5342 112.845 43.5745 112.907H43.6302V112.34H44.1595V116.008C44.1595 116.315 44.0899 116.564 43.9506 116.756C43.8128 116.949 43.6271 117.091 43.3934 117.181C43.1612 117.272 42.9028 117.318 42.618 117.318ZM42.5994 115.358C42.8192 115.358 43.0049 115.308 43.1566 115.207C43.3083 115.107 43.4236 114.962 43.5025 114.773C43.5814 114.585 43.6209 114.359 43.6209 114.095C43.6209 113.839 43.5822 113.612 43.5048 113.415C43.4274 113.219 43.3129 113.065 43.1612 112.953C43.0096 112.842 42.8223 112.786 42.5994 112.786C42.3673 112.786 42.1738 112.845 42.0191 112.963C41.8658 113.08 41.7505 113.238 41.6731 113.436C41.5973 113.634 41.5594 113.854 41.5594 114.095C41.5594 114.343 41.5981 114.562 41.6755 114.752C41.7544 114.941 41.8705 115.09 42.0237 115.198C42.1785 115.305 42.3704 115.358 42.5994 115.358ZM45.7103 111.152V115.906H45.1624V111.152H45.7103ZM48.2088 115.981C47.8652 115.981 47.5689 115.905 47.3197 115.753C47.0721 115.6 46.8809 115.386 46.7463 115.112C46.6132 114.837 46.5466 114.516 46.5466 114.151C46.5466 113.786 46.6132 113.464 46.7463 113.185C46.8809 112.905 47.0682 112.687 47.3081 112.531C47.5495 112.373 47.8312 112.294 48.1531 112.294C48.3388 112.294 48.5222 112.325 48.7033 112.387C48.8844 112.449 49.0492 112.549 49.1978 112.689C49.3464 112.826 49.4648 113.009 49.553 113.236C49.6412 113.464 49.6853 113.744 49.6853 114.077V114.309H46.9366V113.835H49.1282C49.1282 113.634 49.0879 113.455 49.0074 113.297C48.9285 113.139 48.8155 113.014 48.6685 112.923C48.523 112.832 48.3512 112.786 48.1531 112.786C47.9349 112.786 47.7461 112.84 47.5867 112.949C47.4288 113.055 47.3073 113.195 47.2222 113.366C47.1371 113.538 47.0945 113.722 47.0945 113.919V114.235C47.0945 114.504 47.1409 114.732 47.2338 114.92C47.3282 115.105 47.459 115.247 47.6261 115.344C47.7933 115.44 47.9875 115.488 48.2088 115.488C48.3528 115.488 48.4828 115.468 48.5989 115.428C48.7165 115.386 48.8179 115.324 48.903 115.242C48.9881 115.159 49.0539 115.055 49.1003 114.931L49.6296 115.08C49.5739 115.259 49.4803 115.417 49.3487 115.553C49.2172 115.688 49.0546 115.793 48.8612 115.869C48.6677 115.943 48.4503 115.981 48.2088 115.981ZM56.2576 112.638H55.6818C55.6478 112.472 55.5882 112.326 55.5031 112.201C55.4195 112.076 55.3174 111.97 55.1966 111.885C55.0775 111.799 54.9451 111.734 54.7997 111.69C54.6542 111.647 54.5025 111.625 54.3446 111.625C54.0568 111.625 53.796 111.698 53.5623 111.844C53.3301 111.989 53.1452 112.203 53.0074 112.487C52.8712 112.77 52.8031 113.117 52.8031 113.529C52.8031 113.941 52.8712 114.288 53.0074 114.571C53.1452 114.855 53.3301 115.069 53.5623 115.214C53.796 115.36 54.0568 115.433 54.3446 115.433C54.5025 115.433 54.6542 115.411 54.7997 115.368C54.9451 115.324 55.0775 115.26 55.1966 115.175C55.3174 115.088 55.4195 114.982 55.5031 114.857C55.5882 114.73 55.6478 114.585 55.6818 114.42H56.2576C56.2143 114.663 56.1353 114.881 56.0208 115.073C55.9063 115.265 55.7639 115.428 55.5936 115.563C55.4234 115.696 55.2322 115.797 55.0202 115.867C54.8097 115.936 54.5845 115.971 54.3446 115.971C53.9392 115.971 53.5785 115.872 53.2628 115.674C52.9471 115.476 52.6987 115.194 52.5176 114.829C52.3365 114.464 52.246 114.03 52.246 113.529C52.246 113.028 52.3365 112.594 52.5176 112.229C52.6987 111.864 52.9471 111.582 53.2628 111.384C53.5785 111.186 53.9392 111.087 54.3446 111.087C54.5845 111.087 54.8097 111.122 55.0202 111.191C55.2322 111.261 55.4234 111.363 55.5936 111.498C55.7639 111.631 55.9063 111.793 56.0208 111.985C56.1353 112.176 56.2143 112.393 56.2576 112.638ZM57.6615 113.761V115.906H57.1137V111.152H57.6615V112.898H57.708C57.7915 112.713 57.9169 112.567 58.0841 112.459C58.2527 112.349 58.4772 112.294 58.7573 112.294C59.0003 112.294 59.2131 112.343 59.3957 112.44C59.5783 112.536 59.72 112.684 59.8206 112.884C59.9227 113.082 59.9738 113.334 59.9738 113.64V115.906H59.4259V113.678C59.4259 113.394 59.3524 113.175 59.2054 113.021C59.0599 112.864 58.8579 112.786 58.5994 112.786C58.4199 112.786 58.2589 112.824 58.1166 112.9C57.9757 112.976 57.8643 113.086 57.7823 113.232C57.7018 113.377 57.6615 113.554 57.6615 113.761ZM62.4247 115.981C62.1028 115.981 61.8204 115.904 61.5774 115.751C61.3359 115.597 61.1471 115.383 61.0109 115.108C60.8763 114.832 60.8089 114.51 60.8089 114.142C60.8089 113.77 60.8763 113.446 61.0109 113.169C61.1471 112.892 61.3359 112.677 61.5774 112.524C61.8204 112.371 62.1028 112.294 62.4247 112.294C62.7467 112.294 63.0283 112.371 63.2698 112.524C63.5128 112.677 63.7016 112.892 63.8362 113.169C63.9724 113.446 64.0405 113.77 64.0405 114.142C64.0405 114.51 63.9724 114.832 63.8362 115.108C63.7016 115.383 63.5128 115.597 63.2698 115.751C63.0283 115.904 62.7467 115.981 62.4247 115.981ZM62.4247 115.488C62.6693 115.488 62.8705 115.426 63.0283 115.3C63.1862 115.175 63.303 115.01 63.3789 114.806C63.4547 114.602 63.4926 114.38 63.4926 114.142C63.4926 113.904 63.4547 113.681 63.3789 113.476C63.303 113.27 63.1862 113.103 63.0283 112.976C62.8705 112.85 62.6693 112.786 62.4247 112.786C62.1802 112.786 61.979 112.85 61.8211 112.976C61.6633 113.103 61.5464 113.27 61.4706 113.476C61.3947 113.681 61.3568 113.904 61.3568 114.142C61.3568 114.38 61.3947 114.602 61.4706 114.806C61.5464 115.01 61.6633 115.175 61.8211 115.3C61.979 115.426 62.1802 115.488 62.4247 115.488ZM64.8769 115.906V112.34H65.4247V115.906H64.8769ZM65.1554 111.746C65.0486 111.746 64.9566 111.71 64.8792 111.637C64.8033 111.564 64.7654 111.477 64.7654 111.375C64.7654 111.272 64.8033 111.185 64.8792 111.112C64.9566 111.04 65.0486 111.003 65.1554 111.003C65.2622 111.003 65.3535 111.04 65.4294 111.112C65.5068 111.185 65.5455 111.272 65.5455 111.375C65.5455 111.477 65.5068 111.564 65.4294 111.637C65.3535 111.71 65.2622 111.746 65.1554 111.746ZM67.8769 115.981C67.5426 115.981 67.2547 115.902 67.0132 115.744C66.7718 115.586 66.5861 115.368 66.4561 115.091C66.3261 114.814 66.2611 114.498 66.2611 114.142C66.2611 113.78 66.3276 113.46 66.4607 113.183C66.5954 112.905 66.7826 112.687 67.0225 112.531C67.264 112.373 67.5456 112.294 67.8676 112.294C68.1183 112.294 68.3443 112.34 68.5455 112.433C68.7467 112.526 68.9115 112.656 69.0399 112.823C69.1684 112.99 69.2481 113.185 69.2791 113.408H68.7312C68.6894 113.246 68.5965 113.102 68.4526 112.976C68.3102 112.85 68.1183 112.786 67.8769 112.786C67.6633 112.786 67.476 112.842 67.315 112.953C67.1556 113.063 67.031 113.219 66.9413 113.42C66.8531 113.62 66.8089 113.854 66.8089 114.123C66.8089 114.399 66.8523 114.639 66.939 114.843C67.0272 115.047 67.151 115.206 67.3104 115.319C67.4714 115.432 67.6602 115.488 67.8769 115.488C68.0192 115.488 68.1485 115.464 68.2645 115.414C68.3806 115.365 68.4789 115.293 68.5594 115.201C68.6399 115.108 68.6971 114.996 68.7312 114.866H69.2791C69.2481 115.077 69.1715 115.266 69.0492 115.435C68.9285 115.602 68.7683 115.735 68.5687 115.834C68.3706 115.932 68.14 115.981 67.8769 115.981ZM71.5751 115.981C71.2315 115.981 70.9351 115.905 70.6859 115.753C70.4383 115.6 70.2471 115.386 70.1125 115.112C69.9794 114.837 69.9128 114.516 69.9128 114.151C69.9128 113.786 69.9794 113.464 70.1125 113.185C70.2471 112.905 70.4344 112.687 70.6743 112.531C70.9157 112.373 71.1974 112.294 71.5193 112.294C71.7051 112.294 71.8885 112.325 72.0695 112.387C72.2506 112.449 72.4154 112.549 72.564 112.689C72.7126 112.826 72.831 113.009 72.9192 113.236C73.0074 113.464 73.0515 113.744 73.0515 114.077V114.309H70.3029V113.835H72.4944C72.4944 113.634 72.4541 113.455 72.3737 113.297C72.2947 113.139 72.1817 113.014 72.0347 112.923C71.8892 112.832 71.7174 112.786 71.5193 112.786C71.3011 112.786 71.1123 112.84 70.9529 112.949C70.795 113.055 70.6735 113.195 70.5884 113.366C70.5033 113.538 70.4607 113.722 70.4607 113.919V114.235C70.4607 114.504 70.5071 114.732 70.6 114.92C70.6944 115.105 70.8252 115.247 70.9923 115.344C71.1595 115.44 71.3537 115.488 71.5751 115.488C71.719 115.488 71.849 115.468 71.9651 115.428C72.0827 115.386 72.1841 115.324 72.2692 115.242C72.3543 115.159 72.4201 115.055 72.4665 114.931L72.9958 115.08C72.9401 115.259 72.8465 115.417 72.7149 115.553C72.5834 115.688 72.4209 115.793 72.2274 115.869C72.0339 115.943 71.8165 115.981 71.5751 115.981Z" fill="#211447"/>
<path d="M76.4183 114.505L77.7716 113.313C77.7829 113.303 77.7965 113.297 77.8108 113.295C77.8252 113.293 77.8396 113.296 77.8526 113.303C77.8655 113.31 77.8764 113.321 77.8841 113.335C77.8917 113.349 77.8957 113.364 77.8957 113.38V114.146H80.2501V111.518H79.5629C79.4993 111.518 79.4632 111.435 79.5024 111.38L80.5715 109.869C80.5786 109.859 80.5876 109.85 80.598 109.845C80.6084 109.839 80.6198 109.836 80.6314 109.836C80.643 109.836 80.6544 109.839 80.6648 109.845C80.6752 109.85 80.6843 109.859 80.6913 109.869L81.7604 111.38C81.7693 111.392 81.7748 111.407 81.7764 111.423C81.7779 111.439 81.7754 111.455 81.7691 111.47C81.7627 111.484 81.7529 111.497 81.7407 111.505C81.7285 111.514 81.7143 111.518 81.6999 111.518H81.0137V114.146H83.3682V113.379C83.3682 113.308 83.4424 113.268 83.4923 113.312L84.8456 114.505C84.8547 114.513 84.8621 114.523 84.8672 114.535C84.8723 114.546 84.875 114.559 84.875 114.572C84.875 114.585 84.8723 114.598 84.8672 114.609C84.8621 114.621 84.8547 114.631 84.8456 114.639L83.4934 115.832C83.4435 115.876 83.3693 115.837 83.3693 115.765V114.999H81.0148V117.627H81.7021C81.7657 117.627 81.8017 117.71 81.7625 117.766L80.6935 119.275C80.6627 119.319 80.6033 119.319 80.5736 119.275L79.5046 117.766C79.4653 117.71 79.5003 117.627 79.565 117.627H80.2501V114.999H77.8957V115.766C77.8957 115.837 77.8214 115.877 77.7716 115.834L76.4194 114.64C76.4102 114.632 76.4028 114.622 76.3977 114.61C76.3926 114.599 76.3899 114.586 76.3898 114.573C76.3897 114.56 76.3922 114.547 76.3971 114.535C76.4021 114.524 76.4093 114.513 76.4183 114.505Z" fill="#6B6B6B"/>
<rect x="5.21785" y="102.933" width="81.7186" height="21.9469" rx="3.5022" stroke="#BBABED" stroke-width="0.466959" stroke-dasharray="1.87 1.87"/>
</g>
<defs>
<filter id="filter0_dd_6272_4581" x="0.984375" y="0" width="257.004" height="209.492" filterUnits="userSpaceOnUse" color-interpolation-filters="sRGB">
<feFlood flood-opacity="0" result="BackgroundImageFix"/>
<feColorMatrix in="SourceAlpha" type="matrix" values="0 0 0 0 0 0 0 0 0 0 0 0 0 0 0 0 0 0 127 0" result="hardAlpha"/>
<feOffset dy="2"/>
<feGaussianBlur stdDeviation="2"/>
<feComposite in2="hardAlpha" operator="out"/>
<feColorMatrix type="matrix" values="0 0 0 0 0 0 0 0 0 0 0 0 0 0 0 0 0 0 0.03 0"/>
<feBlend mode="normal" in2="BackgroundImageFix" result="effect1_dropShadow_6272_4581"/>
<feColorMatrix in="SourceAlpha" type="matrix" values="0 0 0 0 0 0 0 0 0 0 0 0 0 0 0 0 0 0 127 0" result="hardAlpha"/>
<feOffset dy="1"/>
<feGaussianBlur stdDeviation="1"/>
<feComposite in2="hardAlpha" operator="out"/>
<feColorMatrix type="matrix" values="0 0 0 0 0 0 0 0 0 0 0 0 0 0 0 0 0 0 0.05 0"/>
<feBlend mode="normal" in2="effect1_dropShadow_6272_4581" result="effect2_dropShadow_6272_4581"/>
<feBlend mode="normal" in="SourceGraphic" in2="effect2_dropShadow_6272_4581" result="shape"/>
</filter>
</defs>
</svg>
