<svg width="384" height="208" viewBox="0 0 384 208" fill="none" xmlns="http://www.w3.org/2000/svg">
<g filter="url(#filter0_dd_6276_14778)">
<g clip-path="url(#clip0_6276_14778)">
<rect x="81.2266" y="73.2891" width="242.914" height="57.3212" rx="6.57849" fill="white"/>
<path d="M103.384 106.009C104.478 105.974 105.581 105.992 106.788 106.035C108.03 105.94 109.315 105.809 110.557 105.714C111.877 105.627 111.929 106.139 110.878 107.043C109.906 107.876 108.655 108.693 106.797 109.465C105.564 109.821 104.4 109.995 103.332 110.021C102.29 110.004 101.361 109.856 100.527 109.587C100.119 109.457 99.8409 109.292 99.6759 109.101C99.5456 108.944 99.5109 108.831 99.563 108.727C99.6151 108.632 99.7453 108.58 99.9537 108.597C100.18 108.606 100.483 108.675 100.866 108.788C101.777 109.031 102.637 109.153 103.445 109.188C104.252 109.188 105.069 109.092 105.928 108.866C108.369 107.876 108.976 107.182 107.439 106.973C106.571 106.825 105.624 106.747 104.695 106.739C103.809 106.669 102.793 106.678 101.838 106.739L100.805 106.687C100.544 106.652 100.266 106.565 99.9972 106.417C99.7193 106.261 99.5109 106.07 99.3632 105.879C99.233 105.688 99.1982 105.54 99.2503 105.427C99.3111 105.306 99.4588 105.271 99.6932 105.332L100.379 105.471C101.213 105.575 101.717 105.479 101.856 105.193C102.038 104.889 102.099 104.481 102.186 103.977C102.238 103.508 102.107 103.109 101.751 102.761C101.421 102.397 100.935 102.11 100.362 101.91C99.5803 101.598 98.738 101.546 97.8956 101.832C97.7133 101.902 97.5483 101.91 97.4267 101.85C97.2964 101.789 97.2096 101.667 97.1314 101.485C97.0706 101.294 97.0533 101.077 97.088 100.868C97.1401 100.599 97.2617 100.417 97.4527 100.339C97.8348 100.122 98.2777 100.078 98.7814 100.139C99.3372 100.208 99.8495 100.339 100.362 100.564C101.248 100.868 102.081 101.311 102.767 101.919C103.514 102.449 103.957 103.1 104.018 103.856C104.07 104.325 104.035 104.733 103.914 105.097C103.966 105.453 103.818 105.766 103.384 106.009ZM106.354 95.2238C109.15 93.5304 111.946 93.6433 114.187 94.4509C116.584 95.8838 118.755 97.7161 120.509 100.017C121.299 101.858 121.178 103.343 120.552 104.455C119.71 105.627 118.902 106.391 118.164 106.791C117.348 107.26 116.714 107.32 116.358 106.973C116.123 106.765 116.063 106.409 116.123 105.87C116.123 105.367 116.115 104.767 115.941 104.246C115.681 104.099 115.463 103.925 115.298 103.673C115.116 103.5 115.021 103.326 115.038 103.117C115.029 102.926 115.116 102.753 115.316 102.588C115.437 102.492 115.568 102.423 115.689 102.379C115.837 102.336 116.011 102.31 116.219 102.327C117.626 103.022 118.017 103.873 118.373 104.186C118.598 104.715 119.189 104.394 119.979 103.213C120.379 102.145 119.693 100.356 117.452 97.8463L117.391 97.7855C117.834 98.376 117.66 98.5237 117.018 98.3326C116.601 98.3934 115.958 98.4108 115.099 98.5584C114.447 99.0186 113.77 99.6786 113.067 100.669C112.285 101.85 111.269 102.866 109.992 103.63C108.603 104.09 107.535 104.064 106.97 103.691C106.588 103.17 106.397 102.544 106.284 101.771C106.041 100.92 105.842 100.009 105.737 99.0013C105.59 97.7768 105.746 96.509 106.354 95.2238ZM112.676 97.3861C113.596 96.8824 114.143 96.5958 114.196 96.2572C114.517 96.0835 114.3 95.7535 113.431 95.2325C112.719 94.8156 111.582 94.4683 110.157 94.338C108.855 94.3727 107.726 95.0588 106.979 96.3614C106.788 97.6813 106.962 98.8189 107.292 99.8523C107.509 100.729 107.917 101.424 108.586 101.884C109.393 102.11 110.349 101.641 111.226 100.582C111.877 99.4789 112.285 98.3587 112.676 97.3861Z" fill="#484455"/>
<path d="M126.67 103.99V99.9489H127.587V103.99H126.67ZM125.108 102.428V101.511H129.149V102.428H125.108Z" fill="black"/>
<path d="M139.454 95.6657C139.656 95.5794 139.828 95.5363 139.95 95.5794C140.058 95.6369 140.13 95.7519 140.137 95.9029C140.144 96.061 140.094 96.2191 140.029 96.4204C140.029 96.4204 138.937 98.9002 138.347 101.567C138.254 104.694 137.859 107.561 137.859 107.561C137.708 107.892 137.528 108.101 137.298 108.201C137.161 108.273 137.039 108.259 136.931 108.158C136.809 108.05 136.759 107.914 136.759 107.727C136.78 107.612 136.816 107.468 136.874 107.303C136.874 107.303 137.226 104.931 137.291 102.171C137.564 99.698 138.462 97.2901 138.462 97.2901L133.711 99.9568C133.496 100.029 133.309 100.029 133.186 99.9568C133.036 99.8849 132.971 99.7555 132.949 99.5902C132.913 99.2092 133.122 98.9864 133.596 98.8714L139.454 95.6657ZM145.564 101.488C146.031 101.897 146.319 102.343 146.419 102.839C146.613 103.371 146.585 103.888 146.441 104.471C146.261 105.29 145.816 105.736 145.147 105.829C144.55 105.951 143.875 105.793 143.113 105.34C142.696 105.125 142.301 104.895 141.913 104.579C141.582 104.37 141.302 104.14 141.072 103.853C140.949 103.709 140.877 103.536 140.849 103.278C140.842 103.083 140.863 102.904 140.921 102.746C140.978 102.58 141.05 102.487 141.129 102.444C141.23 102.429 141.345 102.465 141.453 102.58C141.733 102.933 141.992 103.242 142.222 103.464C142.48 103.716 142.782 103.903 143.113 104.061C144.17 104.708 144.802 104.521 145.003 103.464C145.09 102.933 145.039 102.472 144.845 102.092C144.687 101.739 144.292 101.373 143.695 101.049L143.07 100.733C142.926 100.668 142.84 100.568 142.818 100.467C142.797 100.345 142.825 100.23 142.912 100.122C142.984 100.029 143.084 99.9496 143.206 99.9065C143.329 99.8561 143.465 99.8777 143.623 99.9568L144.105 100.201C144.701 100.525 145.212 100.676 145.65 100.654C146.139 100.676 146.506 100.481 146.671 100.101C146.772 99.7339 146.664 99.3817 146.355 99.008C146.067 98.6414 145.643 98.318 145.075 98.0161C144.198 97.5273 143.357 97.3189 142.488 97.4051C142.279 97.4195 142.121 97.4051 141.977 97.3476C141.848 97.2973 141.74 97.1967 141.654 97.0817C141.56 96.9451 141.517 96.8229 141.532 96.672C141.568 96.4995 141.668 96.3485 141.855 96.2838C142.265 96.1616 142.732 96.1616 143.293 96.3054C143.925 96.4779 144.558 96.7582 145.19 97.1176C146.189 97.6567 147.023 98.1958 147.591 98.778C148.166 99.3027 148.425 99.8561 148.281 100.51C148.166 100.949 147.864 101.294 147.347 101.509C146.75 101.667 146.146 101.624 145.564 101.488ZM154.808 106.95C155.009 106.936 155.145 106.979 155.217 107.073C155.304 107.188 155.318 107.331 155.268 107.533C155.181 107.957 154.93 108.208 154.506 108.223L148.971 108.345C148.727 108.316 148.525 108.201 148.353 108.043C148.238 107.892 148.173 107.698 148.188 107.533C148.216 107.331 148.338 107.152 148.547 107.037L154.103 103.091C154.901 102.595 155.526 102.192 156.051 101.84C156.605 101.56 156.957 101.243 157.144 100.934C157.23 100.503 157.036 100.158 156.612 99.8921C156.224 99.6189 155.713 99.4464 155.088 99.3817C154.074 99.3027 153.097 99.5327 152.105 100.036C151.968 100.079 151.839 100.122 151.731 100.172C151.638 100.201 151.544 100.208 151.444 100.216C151.278 100.223 151.142 100.18 151.041 100.079C150.926 99.9783 150.876 99.849 150.876 99.7052C150.883 99.5111 151.005 99.353 151.25 99.2452C151.702 98.9577 152.263 98.7492 152.924 98.5695C153.55 98.4186 154.153 98.3683 154.743 98.397C155.792 98.4761 156.734 98.7708 157.568 99.2524C158.394 99.7483 158.833 100.345 158.768 101.035C158.495 101.524 158.021 101.962 157.338 102.336C156.626 102.724 155.814 103.27 154.8 103.91L150.552 107.109L154.808 106.95Z" fill="#484455"/>
<path d="M167.519 101.488V100.586H171.405V101.488H167.519ZM167.519 103.357V102.454H171.405V103.357H167.519Z" fill="black"/>
<path d="M191.047 104.953V98.9727H194.937V99.8808H192.13V101.504H194.735V102.413H192.13V104.045H194.96V104.953H191.047ZM197.052 102.325V104.953H195.995V100.468H197.005V101.23H197.058C197.161 100.979 197.326 100.779 197.552 100.631C197.779 100.483 198.061 100.409 198.395 100.409C198.705 100.409 198.975 100.476 199.204 100.608C199.436 100.74 199.615 100.932 199.742 101.183C199.87 101.434 199.933 101.739 199.931 102.097V104.953H198.874V102.261C198.874 101.961 198.796 101.726 198.641 101.557C198.487 101.388 198.274 101.303 198.001 101.303C197.816 101.303 197.652 101.344 197.508 101.426C197.366 101.505 197.254 101.621 197.172 101.773C197.092 101.925 197.052 102.109 197.052 102.325ZM203.246 100.468V101.285H200.667V100.468H203.246ZM201.304 99.3932H202.361V103.604C202.361 103.746 202.382 103.855 202.425 103.931C202.47 104.005 202.528 104.056 202.6 104.083C202.672 104.11 202.752 104.124 202.84 104.124C202.906 104.124 202.966 104.119 203.021 104.109C203.077 104.099 203.12 104.091 203.149 104.083L203.328 104.909C203.271 104.929 203.19 104.95 203.085 104.974C202.982 104.997 202.855 105.011 202.706 105.014C202.441 105.022 202.202 104.982 201.99 104.895C201.778 104.805 201.61 104.667 201.485 104.48C201.362 104.293 201.302 104.06 201.304 103.779V99.3932ZM206.067 105.041C205.618 105.041 205.229 104.947 204.902 104.76C204.577 104.572 204.327 104.305 204.152 103.96C203.977 103.614 203.889 103.206 203.889 102.737C203.889 102.275 203.977 101.87 204.152 101.522C204.329 101.172 204.576 100.899 204.893 100.704C205.211 100.508 205.584 100.409 206.012 100.409C206.288 100.409 206.549 100.454 206.794 100.544C207.042 100.631 207.26 100.768 207.449 100.953C207.639 101.137 207.789 101.373 207.898 101.659C208.007 101.943 208.062 102.282 208.062 102.675V103H204.385V102.287H207.049C207.047 102.085 207.003 101.904 206.917 101.747C206.831 101.587 206.712 101.462 206.558 101.37C206.406 101.279 206.229 101.233 206.026 101.233C205.81 101.233 205.621 101.285 205.457 101.391C205.294 101.494 205.166 101.63 205.075 101.799C204.985 101.967 204.939 102.151 204.937 102.351V102.973C204.937 103.234 204.985 103.458 205.08 103.645C205.176 103.83 205.309 103.972 205.48 104.071C205.652 104.169 205.852 104.217 206.082 104.217C206.236 104.217 206.375 104.196 206.5 104.153C206.624 104.108 206.732 104.043 206.824 103.957C206.915 103.872 206.984 103.766 207.031 103.639L208.018 103.75C207.956 104.011 207.837 104.239 207.662 104.433C207.489 104.626 207.267 104.776 206.996 104.883C206.725 104.988 206.416 105.041 206.067 105.041ZM208.956 104.953V100.468H209.981V101.215H210.028C210.11 100.956 210.25 100.757 210.448 100.617C210.649 100.475 210.878 100.404 211.135 100.404C211.193 100.404 211.258 100.406 211.33 100.412C211.404 100.416 211.465 100.423 211.514 100.433V101.405C211.469 101.39 211.398 101.376 211.301 101.364C211.206 101.351 211.113 101.344 211.024 101.344C210.831 101.344 210.658 101.386 210.504 101.469C210.352 101.551 210.232 101.665 210.145 101.811C210.057 101.957 210.013 102.125 210.013 102.316V104.953H208.956ZM217.801 101.653L216.838 101.758C216.81 101.661 216.763 101.57 216.694 101.484C216.628 101.398 216.539 101.329 216.426 101.277C216.313 101.224 216.175 101.198 216.011 101.198C215.791 101.198 215.606 101.246 215.456 101.341C215.308 101.436 215.235 101.56 215.237 101.712C215.235 101.842 215.283 101.948 215.38 102.03C215.48 102.112 215.643 102.179 215.871 102.232L216.636 102.395C217.06 102.487 217.376 102.632 217.582 102.83C217.791 103.029 217.896 103.289 217.898 103.61C217.896 103.892 217.813 104.141 217.649 104.357C217.488 104.572 217.263 104.739 216.975 104.86C216.687 104.98 216.356 105.041 215.982 105.041C215.433 105.041 214.991 104.926 214.656 104.696C214.321 104.464 214.122 104.142 214.058 103.73L215.088 103.63C215.135 103.833 215.234 103.986 215.386 104.089C215.538 104.192 215.736 104.244 215.979 104.244C216.23 104.244 216.432 104.192 216.584 104.089C216.737 103.986 216.814 103.858 216.814 103.706C216.814 103.578 216.765 103.472 216.665 103.388C216.568 103.304 216.416 103.24 216.21 103.195L215.445 103.035C215.014 102.945 214.696 102.794 214.49 102.582C214.283 102.368 214.181 102.097 214.183 101.77C214.181 101.494 214.256 101.254 214.408 101.052C214.562 100.847 214.775 100.69 215.048 100.579C215.322 100.466 215.638 100.409 215.997 100.409C216.522 100.409 216.936 100.521 217.238 100.745C217.541 100.969 217.729 101.272 217.801 101.653ZM221.628 103.067V100.468H222.685V104.953H221.66V104.156H221.613C221.512 104.407 221.346 104.612 221.114 104.772C220.884 104.932 220.601 105.012 220.264 105.012C219.97 105.012 219.711 104.946 219.485 104.816C219.261 104.683 219.086 104.492 218.959 104.241C218.833 103.988 218.769 103.682 218.769 103.324V100.468H219.826V103.16C219.826 103.444 219.904 103.67 220.06 103.838C220.216 104.005 220.42 104.089 220.673 104.089C220.829 104.089 220.98 104.051 221.126 103.975C221.272 103.899 221.392 103.786 221.485 103.636C221.58 103.484 221.628 103.294 221.628 103.067ZM223.772 104.953V100.468H224.783V101.23H224.835C224.929 100.973 225.083 100.772 225.299 100.628C225.515 100.482 225.773 100.409 226.073 100.409C226.377 100.409 226.633 100.483 226.841 100.631C227.051 100.777 227.199 100.977 227.285 101.23H227.332C227.431 100.981 227.599 100.782 227.834 100.634C228.072 100.484 228.353 100.409 228.678 100.409C229.091 100.409 229.428 100.54 229.688 100.801C229.949 101.062 230.08 101.442 230.08 101.942V104.953H229.02V102.106C229.02 101.828 228.946 101.624 228.798 101.496C228.65 101.365 228.469 101.3 228.255 101.3C228 101.3 227.8 101.38 227.656 101.539C227.514 101.697 227.443 101.903 227.443 102.156V104.953H226.406V102.062C226.406 101.831 226.336 101.646 226.196 101.507C226.058 101.369 225.877 101.3 225.653 101.3C225.501 101.3 225.363 101.339 225.238 101.417C225.113 101.493 225.014 101.601 224.94 101.741C224.866 101.879 224.829 102.041 224.829 102.226V104.953H223.772ZM235.148 105.041C234.71 105.041 234.331 104.944 234.009 104.752C233.688 104.559 233.439 104.289 233.262 103.943C233.087 103.596 232.999 103.191 232.999 102.728C232.999 102.265 233.087 101.859 233.262 101.51C233.439 101.162 233.688 100.891 234.009 100.698C234.331 100.506 234.71 100.409 235.148 100.409C235.586 100.409 235.966 100.506 236.287 100.698C236.608 100.891 236.857 101.162 237.032 101.51C237.209 101.859 237.298 102.265 237.298 102.728C237.298 103.191 237.209 103.596 237.032 103.943C236.857 104.289 236.608 104.559 236.287 104.752C235.966 104.944 235.586 105.041 235.148 105.041ZM235.154 104.194C235.392 104.194 235.59 104.129 235.75 103.998C235.909 103.866 236.028 103.689 236.106 103.467C236.186 103.245 236.226 102.998 236.226 102.725C236.226 102.451 236.186 102.202 236.106 101.98C236.028 101.757 235.909 101.578 235.75 101.446C235.59 101.314 235.392 101.247 235.154 101.247C234.911 101.247 234.708 101.314 234.547 101.446C234.387 101.578 234.267 101.757 234.188 101.98C234.11 102.202 234.071 102.451 234.071 102.725C234.071 102.998 234.11 103.245 234.188 103.467C234.267 103.689 234.387 103.866 234.547 103.998C234.708 104.129 234.911 104.194 235.154 104.194ZM240.467 100.468V101.285H237.815V100.468H240.467ZM238.478 104.953V100.044C238.478 99.7426 238.54 99.4915 238.665 99.291C238.791 99.0905 238.961 98.9406 239.173 98.8413C239.385 98.742 239.621 98.6923 239.88 98.6923C240.063 98.6923 240.225 98.7069 240.367 98.7361C240.509 98.7653 240.615 98.7916 240.683 98.815L240.472 99.6326C240.428 99.619 240.371 99.6054 240.303 99.5917C240.235 99.5762 240.159 99.5684 240.075 99.5684C239.879 99.5684 239.739 99.6161 239.658 99.7115C239.578 99.8049 239.538 99.9392 239.538 100.114V104.953H238.478ZM244.391 102.325V104.953H243.334V100.468H244.345V101.23H244.397C244.5 100.979 244.665 100.779 244.891 100.631C245.118 100.483 245.4 100.409 245.735 100.409C246.044 100.409 246.314 100.476 246.543 100.608C246.775 100.74 246.954 100.932 247.081 101.183C247.209 101.434 247.272 101.739 247.271 102.097V104.953H246.213V102.261C246.213 101.961 246.136 101.726 245.98 101.557C245.826 101.388 245.613 101.303 245.34 101.303C245.155 101.303 244.991 101.344 244.847 101.426C244.705 101.505 244.593 101.621 244.511 101.773C244.431 101.925 244.391 102.109 244.391 102.325ZM251.204 103.067V100.468H252.261V104.953H251.236V104.156H251.189C251.088 104.407 250.922 104.612 250.69 104.772C250.46 104.932 250.177 105.012 249.84 105.012C249.546 105.012 249.286 104.946 249.061 104.816C248.837 104.683 248.661 104.492 248.535 104.241C248.408 103.988 248.345 103.682 248.345 103.324V100.468H249.402V103.16C249.402 103.444 249.48 103.67 249.636 103.838C249.792 104.005 249.996 104.089 250.249 104.089C250.405 104.089 250.556 104.051 250.702 103.975C250.848 103.899 250.967 103.786 251.061 103.636C251.156 103.484 251.204 103.294 251.204 103.067ZM253.348 104.953V100.468H254.358V101.23H254.411C254.504 100.973 254.659 100.772 254.875 100.628C255.091 100.482 255.349 100.409 255.649 100.409C255.953 100.409 256.209 100.483 256.417 100.631C256.627 100.777 256.775 100.977 256.861 101.23H256.908C257.007 100.981 257.174 100.782 257.41 100.634C257.647 100.484 257.929 100.409 258.254 100.409C258.667 100.409 259.003 100.54 259.264 100.801C259.525 101.062 259.656 101.442 259.656 101.942V104.953H258.596V102.106C258.596 101.828 258.522 101.624 258.374 101.496C258.226 101.365 258.045 101.3 257.83 101.3C257.575 101.3 257.376 101.38 257.232 101.539C257.09 101.697 257.019 101.903 257.019 102.156V104.953H255.982V102.062C255.982 101.831 255.912 101.646 255.772 101.507C255.634 101.369 255.453 101.3 255.229 101.3C255.077 101.3 254.939 101.339 254.814 101.417C254.689 101.493 254.59 101.601 254.516 101.741C254.442 101.879 254.405 102.041 254.405 102.226V104.953H253.348ZM260.775 104.953V98.9727H261.832V101.21H261.876C261.93 101.1 262.007 100.985 262.106 100.862C262.206 100.737 262.34 100.631 262.509 100.544C262.679 100.454 262.895 100.409 263.158 100.409C263.504 100.409 263.817 100.498 264.095 100.675C264.375 100.85 264.597 101.11 264.761 101.455C264.926 101.797 265.009 102.218 265.009 102.716C265.009 103.209 264.928 103.627 264.767 103.972C264.605 104.317 264.385 104.579 264.107 104.76C263.828 104.941 263.513 105.032 263.16 105.032C262.904 105.032 262.69 104.989 262.521 104.903C262.352 104.818 262.215 104.715 262.112 104.594C262.011 104.471 261.932 104.355 261.876 104.246H261.814V104.953H260.775ZM261.811 102.71C261.811 103.001 261.852 103.255 261.934 103.473C262.018 103.691 262.137 103.861 262.293 103.984C262.451 104.104 262.642 104.165 262.866 104.165C263.099 104.165 263.295 104.102 263.452 103.978C263.61 103.851 263.729 103.679 263.809 103.461C263.891 103.241 263.931 102.991 263.931 102.71C263.931 102.432 263.891 102.185 263.812 101.969C263.732 101.753 263.613 101.583 263.455 101.461C263.298 101.338 263.101 101.277 262.866 101.277C262.64 101.277 262.448 101.336 262.29 101.455C262.133 101.574 262.013 101.74 261.931 101.954C261.851 102.168 261.811 102.42 261.811 102.71ZM267.893 105.041C267.444 105.041 267.055 104.947 266.728 104.76C266.403 104.572 266.153 104.305 265.978 103.96C265.802 103.614 265.715 103.206 265.715 102.737C265.715 102.275 265.802 101.87 265.978 101.522C266.155 101.172 266.402 100.899 266.719 100.704C267.037 100.508 267.41 100.409 267.838 100.409C268.114 100.409 268.375 100.454 268.62 100.544C268.868 100.631 269.086 100.768 269.275 100.953C269.465 101.137 269.615 101.373 269.724 101.659C269.833 101.943 269.888 102.282 269.888 102.675V103H266.211V102.287H268.874C268.873 102.085 268.829 101.904 268.743 101.747C268.657 101.587 268.538 101.462 268.384 101.37C268.232 101.279 268.055 101.233 267.852 101.233C267.636 101.233 267.447 101.285 267.283 101.391C267.119 101.494 266.992 101.63 266.9 101.799C266.811 101.967 266.765 102.151 266.763 102.351V102.973C266.763 103.234 266.811 103.458 266.906 103.645C267.002 103.83 267.135 103.972 267.306 104.071C267.478 104.169 267.678 104.217 267.908 104.217C268.062 104.217 268.201 104.196 268.325 104.153C268.45 104.108 268.558 104.043 268.65 103.957C268.741 103.872 268.81 103.766 268.857 103.639L269.844 103.75C269.782 104.011 269.663 104.239 269.488 104.433C269.314 104.626 269.093 104.776 268.822 104.883C268.551 104.988 268.242 105.041 267.893 105.041ZM270.782 104.953V100.468H271.807V101.215H271.854C271.935 100.956 272.076 100.757 272.274 100.617C272.475 100.475 272.703 100.404 272.96 100.404C273.019 100.404 273.084 100.406 273.156 100.412C273.23 100.416 273.291 100.423 273.34 100.433V101.405C273.295 101.39 273.224 101.376 273.127 101.364C273.032 101.351 272.939 101.344 272.849 101.344C272.657 101.344 272.484 101.386 272.33 101.469C272.178 101.551 272.058 101.665 271.971 101.811C271.883 101.957 271.839 102.125 271.839 102.316V104.953H270.782ZM277.587 101.653L276.624 101.758C276.597 101.661 276.549 101.57 276.481 101.484C276.415 101.398 276.325 101.329 276.212 101.277C276.099 101.224 275.961 101.198 275.797 101.198C275.577 101.198 275.392 101.246 275.243 101.341C275.095 101.436 275.022 101.56 275.024 101.712C275.022 101.842 275.069 101.948 275.167 102.03C275.266 102.112 275.429 102.179 275.657 102.232L276.422 102.395C276.847 102.487 277.162 102.632 277.368 102.83C277.577 103.029 277.682 103.289 277.684 103.61C277.682 103.892 277.599 104.141 277.436 104.357C277.274 104.572 277.049 104.739 276.761 104.86C276.473 104.98 276.142 105.041 275.768 105.041C275.219 105.041 274.777 104.926 274.442 104.696C274.108 104.464 273.908 104.142 273.844 103.73L274.875 103.63C274.921 103.833 275.021 103.986 275.172 104.089C275.324 104.192 275.522 104.244 275.765 104.244C276.016 104.244 276.218 104.192 276.37 104.089C276.524 103.986 276.6 103.858 276.6 103.706C276.6 103.578 276.551 103.472 276.451 103.388C276.354 103.304 276.202 103.24 275.996 103.195L275.231 103.035C274.801 102.945 274.482 102.794 274.276 102.582C274.07 102.368 273.967 102.097 273.969 101.77C273.967 101.494 274.042 101.254 274.194 101.052C274.348 100.847 274.561 100.69 274.834 100.579C275.108 100.466 275.425 100.409 275.783 100.409C276.308 100.409 276.722 100.521 277.024 100.745C277.328 100.969 277.515 101.272 277.587 101.653ZM281.652 102.325V104.953H280.595V98.9727H281.629V101.23H281.681C281.787 100.977 281.949 100.777 282.169 100.631C282.391 100.483 282.673 100.409 283.016 100.409C283.327 100.409 283.599 100.475 283.831 100.605C284.062 100.735 284.241 100.926 284.368 101.177C284.496 101.429 284.561 101.735 284.561 102.097V104.953H283.504V102.261C283.504 101.959 283.426 101.724 283.27 101.557C283.116 101.388 282.9 101.303 282.622 101.303C282.435 101.303 282.267 101.344 282.119 101.426C281.973 101.505 281.859 101.621 281.775 101.773C281.693 101.925 281.652 102.109 281.652 102.325ZM287.624 105.041C287.174 105.041 286.786 104.947 286.459 104.76C286.134 104.572 285.884 104.305 285.708 103.96C285.533 103.614 285.446 103.206 285.446 102.737C285.446 102.275 285.533 101.87 285.708 101.522C285.885 101.172 286.133 100.899 286.45 100.704C286.767 100.508 287.14 100.409 287.568 100.409C287.845 100.409 288.106 100.454 288.351 100.544C288.598 100.631 288.816 100.768 289.005 100.953C289.196 101.137 289.346 101.373 289.455 101.659C289.564 101.943 289.618 102.282 289.618 102.675V103H285.942V102.287H288.605C288.603 102.085 288.559 101.904 288.474 101.747C288.388 101.587 288.268 101.462 288.115 101.37C287.963 101.279 287.786 101.233 287.583 101.233C287.367 101.233 287.177 101.285 287.014 101.391C286.85 101.494 286.723 101.63 286.631 101.799C286.542 101.967 286.496 102.151 286.494 102.351V102.973C286.494 103.234 286.542 103.458 286.637 103.645C286.732 103.83 286.866 103.972 287.037 104.071C287.208 104.169 287.409 104.217 287.639 104.217C287.792 104.217 287.932 104.196 288.056 104.153C288.181 104.108 288.289 104.043 288.38 103.957C288.472 103.872 288.541 103.766 288.588 103.639L289.575 103.75C289.512 104.011 289.394 104.239 289.218 104.433C289.045 104.626 288.823 104.776 288.553 104.883C288.282 104.988 287.972 105.041 287.624 105.041ZM290.513 104.953V100.468H291.538V101.215H291.584C291.666 100.956 291.806 100.757 292.005 100.617C292.205 100.475 292.434 100.404 292.691 100.404C292.75 100.404 292.815 100.406 292.887 100.412C292.961 100.416 293.022 100.423 293.071 100.433V101.405C293.026 101.39 292.955 101.376 292.858 101.364C292.762 101.351 292.67 101.344 292.58 101.344C292.387 101.344 292.214 101.386 292.06 101.469C291.909 101.551 291.789 101.665 291.701 101.811C291.614 101.957 291.57 102.125 291.57 102.316V104.953H290.513ZM295.574 105.041C295.124 105.041 294.736 104.947 294.409 104.76C294.084 104.572 293.834 104.305 293.658 103.96C293.483 103.614 293.396 103.206 293.396 102.737C293.396 102.275 293.483 101.87 293.658 101.522C293.836 101.172 294.083 100.899 294.4 100.704C294.717 100.508 295.09 100.409 295.519 100.409C295.795 100.409 296.056 100.454 296.301 100.544C296.548 100.631 296.766 100.768 296.955 100.953C297.146 101.137 297.296 101.373 297.405 101.659C297.514 101.943 297.568 102.282 297.568 102.675V103H293.892V102.287H296.555C296.553 102.085 296.509 101.904 296.424 101.747C296.338 101.587 296.218 101.462 296.065 101.37C295.913 101.279 295.736 101.233 295.533 101.233C295.317 101.233 295.127 101.285 294.964 101.391C294.8 101.494 294.673 101.63 294.581 101.799C294.492 101.967 294.446 102.151 294.444 102.351V102.973C294.444 103.234 294.492 103.458 294.587 103.645C294.682 103.83 294.816 103.972 294.987 104.071C295.158 104.169 295.359 104.217 295.589 104.217C295.742 104.217 295.882 104.196 296.006 104.153C296.131 104.108 296.239 104.043 296.33 103.957C296.422 103.872 296.491 103.766 296.538 103.639L297.525 103.75C297.462 104.011 297.344 104.239 297.168 104.433C296.995 104.626 296.773 104.776 296.503 104.883C296.232 104.988 295.922 105.041 295.574 105.041Z" fill="#B5B5B5"/>
<rect x="180.225" y="90.6816" width="128.463" height="22.5417" rx="1.66996" stroke="#D8D1D8" stroke-width="0.660089"/>
</g>
</g>
<g filter="url(#filter1_dd_6276_14778)">
<rect x="4" y="2" width="228.604" height="57.2764" rx="6.57849" fill="white"/>
<rect x="17.5674" y="21.5908" width="18.091" height="18.0907" rx="2.87809" stroke="#A5A2A5" stroke-width="0.822311"/>
<path d="M46.8308 24.109V33.1797H45.1876V24.109H46.8308ZM49.899 24.109V25.0125C49.899 25.2724 49.8488 25.5425 49.7484 25.823C49.651 26.1006 49.5167 26.3663 49.3454 26.6203C49.1741 26.8713 48.9793 27.0868 48.7608 27.2669L48.0167 26.7841C48.1791 26.5391 48.3208 26.2748 48.4419 25.9913C48.5629 25.7049 48.6235 25.3816 48.6235 25.0214V24.109H49.899ZM50.9388 33.1797V26.3767H52.4712V27.5327H52.5509C52.6927 27.1429 52.9274 26.8388 53.2551 26.6203C53.5829 26.3988 53.9741 26.2881 54.4288 26.2881C54.8895 26.2881 55.2777 26.4003 55.5937 26.6247C55.9126 26.8462 56.137 27.1488 56.2669 27.5327H56.3378C56.4883 27.1547 56.7423 26.8535 57.0996 26.6291C57.4598 26.4018 57.8864 26.2881 58.3795 26.2881C59.0055 26.2881 59.5163 26.4859 59.912 26.8816C60.3077 27.2772 60.5055 27.8545 60.5055 28.6133V33.1797H58.8977V28.8614C58.8977 28.4391 58.7855 28.1306 58.5611 27.9357C58.3367 27.7379 58.0621 27.639 57.7373 27.639C57.3505 27.639 57.0479 27.76 56.8294 28.0021C56.6138 28.2413 56.5061 28.5528 56.5061 28.9367V33.1797H54.9337V28.7949C54.9337 28.4436 54.8275 28.1631 54.6149 27.9534C54.4052 27.7438 54.1306 27.639 53.7911 27.639C53.5607 27.639 53.3511 27.698 53.1621 27.8161C52.9732 27.9313 52.8226 28.0951 52.7104 28.3077C52.5982 28.5174 52.5421 28.7625 52.5421 29.043V33.1797H50.9388ZM66.8291 29.1935V33.1797H65.2257V26.3767H66.7582V27.5327H66.8379C66.9944 27.1518 67.2439 26.8491 67.5864 26.6247C67.9319 26.4003 68.3586 26.2881 68.8664 26.2881C69.3359 26.2881 69.7448 26.3885 70.0933 26.5893C70.4446 26.7901 70.7163 27.0809 70.9082 27.4618C71.1031 27.8427 71.199 28.3048 71.1961 28.8481V33.1797H69.5928V29.0961C69.5928 28.6414 69.4747 28.2856 69.2385 28.0287C69.0052 27.7718 68.6819 27.6434 68.2685 27.6434C67.988 27.6434 67.7385 27.7054 67.52 27.8294C67.3044 27.9505 67.1347 28.1261 67.0106 28.3565C66.8896 28.5868 66.8291 28.8658 66.8291 29.1935ZM75.7934 33.3126C75.1291 33.3126 74.5533 33.1664 74.0661 32.8741C73.5789 32.5818 73.201 32.1728 72.9323 31.6472C72.6665 31.1217 72.5337 30.5075 72.5337 29.8048C72.5337 29.102 72.6665 28.4864 72.9323 27.9578C73.201 27.4293 73.5789 27.0189 74.0661 26.7266C74.5533 26.4343 75.1291 26.2881 75.7934 26.2881C76.4578 26.2881 77.0336 26.4343 77.5208 26.7266C78.008 27.0189 78.3844 27.4293 78.6502 27.9578C78.9189 28.4864 79.0532 29.102 79.0532 29.8048C79.0532 30.5075 78.9189 31.1217 78.6502 31.6472C78.3844 32.1728 78.008 32.5818 77.5208 32.8741C77.0336 33.1664 76.4578 33.3126 75.7934 33.3126ZM75.8023 32.0281C76.1625 32.0281 76.4637 31.9292 76.7058 31.7314C76.9479 31.5306 77.1281 31.2619 77.2462 30.9253C77.3672 30.5887 77.4278 30.2137 77.4278 29.8003C77.4278 29.384 77.3672 29.0075 77.2462 28.6709C77.1281 28.3314 76.9479 28.0612 76.7058 27.8604C76.4637 27.6596 76.1625 27.5592 75.8023 27.5592C75.4332 27.5592 75.1261 27.6596 74.8811 27.8604C74.6389 28.0612 74.4573 28.3314 74.3363 28.6709C74.2182 29.0075 74.1591 29.384 74.1591 29.8003C74.1591 30.2137 74.2182 30.5887 74.3363 30.9253C74.4573 31.2619 74.6389 31.5306 74.8811 31.7314C75.1261 31.9292 75.4332 32.0281 75.8023 32.0281ZM83.8111 26.3767V27.6168H79.9003V26.3767H83.8111ZM80.8658 24.7468H82.4691V31.1335C82.4691 31.349 82.5016 31.5144 82.5666 31.6295C82.6345 31.7417 82.7231 31.8185 82.8323 31.8598C82.9416 31.9012 83.0626 31.9218 83.1955 31.9218C83.2959 31.9218 83.3874 31.9145 83.4701 31.8997C83.5557 31.8849 83.6207 31.8716 83.665 31.8598L83.9351 33.1133C83.8495 33.1428 83.727 33.1753 83.5675 33.2107C83.411 33.2461 83.2191 33.2668 82.9917 33.2727C82.5902 33.2845 82.2285 33.224 81.9066 33.0911C81.5848 32.9553 81.3294 32.7456 81.1404 32.4622C80.9544 32.1787 80.8629 31.8244 80.8658 31.3992V24.7468ZM90.2033 33.317C89.7722 33.317 89.384 33.2402 89.0385 33.0867C88.696 32.9302 88.4243 32.6999 88.2236 32.3957C88.0257 32.0916 87.9268 31.7166 87.9268 31.2708C87.9268 30.8869 87.9977 30.5695 88.1394 30.3185C88.2811 30.0675 88.4745 29.8668 88.7196 29.7162C88.9647 29.5656 89.2408 29.4519 89.5478 29.3751C89.8579 29.2954 90.1782 29.2378 90.5089 29.2024C90.9076 29.1611 91.2309 29.1242 91.4789 29.0917C91.7269 29.0562 91.907 29.0031 92.0192 28.9322C92.1344 28.8584 92.192 28.7447 92.192 28.5912V28.5646C92.192 28.231 92.0931 27.9726 91.8952 27.7895C91.6974 27.6065 91.4125 27.5149 91.0404 27.5149C90.6477 27.5149 90.3362 27.6006 90.1059 27.7718C89.8785 27.9431 89.725 28.1453 89.6453 28.3786L88.1483 28.166C88.2664 27.7526 88.4612 27.4072 88.7329 27.1296C89.0045 26.8491 89.3367 26.6395 89.7294 26.5007C90.1221 26.359 90.5562 26.2881 91.0316 26.2881C91.3593 26.2881 91.6856 26.3265 92.0104 26.4032C92.3352 26.48 92.6319 26.607 92.9006 26.7841C93.1693 26.9584 93.3849 27.196 93.5473 27.4972C93.7126 27.7984 93.7953 28.1749 93.7953 28.6266V33.1797H92.254V32.2452H92.2008C92.1034 32.4341 91.9661 32.6113 91.7889 32.7766C91.6147 32.939 91.3948 33.0704 91.129 33.1708C90.8662 33.2683 90.5577 33.317 90.2033 33.317ZM90.6197 32.1389C90.9415 32.1389 91.2205 32.0754 91.4568 31.9484C91.693 31.8185 91.8746 31.6472 92.0015 31.4346C92.1314 31.222 92.1964 30.9903 92.1964 30.7393V29.9376C92.1462 29.979 92.0606 30.0173 91.9395 30.0528C91.8214 30.0882 91.6885 30.1192 91.5409 30.1458C91.3933 30.1724 91.2471 30.196 91.1024 30.2167C90.9578 30.2373 90.8323 30.255 90.726 30.2698C90.4868 30.3023 90.2727 30.3554 90.0838 30.4293C89.8948 30.5031 89.7457 30.6064 89.6364 30.7393C89.5272 30.8692 89.4725 31.0375 89.4725 31.2442C89.4725 31.5395 89.5803 31.7624 89.7959 31.913C90.0114 32.0636 90.286 32.1389 90.6197 32.1389ZM98.5012 33.1797V26.3767H100.056V27.5105H100.127C100.251 27.1178 100.463 26.8152 100.764 26.6026C101.069 26.387 101.415 26.2792 101.805 26.2792C101.894 26.2792 101.993 26.2837 102.102 26.2925C102.214 26.2984 102.307 26.3088 102.381 26.3235V27.7984C102.313 27.7748 102.205 27.7541 102.058 27.7364C101.913 27.7157 101.773 27.7054 101.637 27.7054C101.345 27.7054 101.082 27.7689 100.849 27.8958C100.618 28.0199 100.437 28.1926 100.304 28.414C100.171 28.6355 100.104 28.8909 100.104 29.1803V33.1797H98.5012ZM106.134 33.3126C105.469 33.3126 104.893 33.1664 104.406 32.8741C103.919 32.5818 103.541 32.1728 103.272 31.6472C103.007 31.1217 102.874 30.5075 102.874 29.8048C102.874 29.102 103.007 28.4864 103.272 27.9578C103.541 27.4293 103.919 27.0189 104.406 26.7266C104.893 26.4343 105.469 26.2881 106.134 26.2881C106.798 26.2881 107.374 26.4343 107.861 26.7266C108.348 27.0189 108.724 27.4293 108.99 27.9578C109.259 28.4864 109.393 29.102 109.393 29.8048C109.393 30.5075 109.259 31.1217 108.99 31.6472C108.724 32.1728 108.348 32.5818 107.861 32.8741C107.374 33.1664 106.798 33.3126 106.134 33.3126ZM106.142 32.0281C106.503 32.0281 106.804 31.9292 107.046 31.7314C107.288 31.5306 107.468 31.2619 107.586 30.9253C107.707 30.5887 107.768 30.2137 107.768 29.8003C107.768 29.384 107.707 29.0075 107.586 28.6709C107.468 28.3314 107.288 28.0612 107.046 27.8604C106.804 27.6596 106.503 27.5592 106.142 27.5592C105.773 27.5592 105.466 27.6596 105.221 27.8604C104.979 28.0612 104.797 28.3314 104.676 28.6709C104.558 29.0075 104.499 29.384 104.499 29.8003C104.499 30.2137 104.558 30.5887 104.676 30.9253C104.797 31.2619 104.979 31.5306 105.221 31.7314C105.466 31.9292 105.773 32.0281 106.142 32.0281ZM110.825 33.1797V24.109H112.428V27.5017H112.495C112.577 27.3363 112.694 27.1606 112.845 26.9746C112.995 26.7856 113.199 26.6247 113.456 26.4918C113.713 26.356 114.04 26.2881 114.439 26.2881C114.965 26.2881 115.439 26.4224 115.861 26.6911C116.286 26.9569 116.623 27.3511 116.871 27.8737C117.122 28.3934 117.247 29.0311 117.247 29.787C117.247 30.5341 117.125 31.1689 116.879 31.6915C116.634 32.2142 116.301 32.6128 115.879 32.8874C115.456 33.162 114.978 33.2993 114.444 33.2993C114.054 33.2993 113.73 33.2343 113.474 33.1044C113.217 32.9745 113.01 32.818 112.853 32.6349C112.7 32.4489 112.58 32.2732 112.495 32.1079H112.402V33.1797H110.825ZM112.397 29.7782C112.397 30.2181 112.459 30.6035 112.583 30.9342C112.71 31.2649 112.892 31.5232 113.128 31.7092C113.367 31.8923 113.657 31.9838 113.996 31.9838C114.35 31.9838 114.647 31.8894 114.886 31.7004C115.126 31.5085 115.306 31.2471 115.427 30.9164C115.551 30.5828 115.613 30.2034 115.613 29.7782C115.613 29.3559 115.552 28.981 115.431 28.6532C115.31 28.3255 115.13 28.0686 114.891 27.8825C114.652 27.6965 114.353 27.6035 113.996 27.6035C113.654 27.6035 113.363 27.6936 113.124 27.8737C112.884 28.0538 112.703 28.3063 112.579 28.6311C112.458 28.9559 112.397 29.3382 112.397 29.7782ZM121.578 33.3126C120.913 33.3126 120.337 33.1664 119.85 32.8741C119.363 32.5818 118.985 32.1728 118.716 31.6472C118.451 31.1217 118.318 30.5075 118.318 29.8048C118.318 29.102 118.451 28.4864 118.716 27.9578C118.985 27.4293 119.363 27.0189 119.85 26.7266C120.337 26.4343 120.913 26.2881 121.578 26.2881C122.242 26.2881 122.818 26.4343 123.305 26.7266C123.792 27.0189 124.169 27.4293 124.434 27.9578C124.703 28.4864 124.837 29.102 124.837 29.8048C124.837 30.5075 124.703 31.1217 124.434 31.6472C124.169 32.1728 123.792 32.5818 123.305 32.8741C122.818 33.1664 122.242 33.3126 121.578 33.3126ZM121.586 32.0281C121.947 32.0281 122.248 31.9292 122.49 31.7314C122.732 31.5306 122.912 31.2619 123.03 30.9253C123.151 30.5887 123.212 30.2137 123.212 29.8003C123.212 29.384 123.151 29.0075 123.03 28.6709C122.912 28.3314 122.732 28.0612 122.49 27.8604C122.248 27.6596 121.947 27.5592 121.586 27.5592C121.217 27.5592 120.91 27.6596 120.665 27.8604C120.423 28.0612 120.241 28.3314 120.12 28.6709C120.002 29.0075 119.943 29.384 119.943 29.8003C119.943 30.2137 120.002 30.5887 120.12 30.9253C120.241 31.2619 120.423 31.5306 120.665 31.7314C120.91 31.9292 121.217 32.0281 121.586 32.0281ZM129.595 26.3767V27.6168H125.684V26.3767H129.595ZM126.65 24.7468H128.253V31.1335C128.253 31.349 128.286 31.5144 128.351 31.6295C128.419 31.7417 128.507 31.8185 128.616 31.8598C128.726 31.9012 128.847 31.9218 128.98 31.9218C129.08 31.9218 129.172 31.9145 129.254 31.8997C129.34 31.8849 129.405 31.8716 129.449 31.8598L129.719 33.1133C129.634 33.1428 129.511 33.1753 129.352 33.2107C129.195 33.2461 129.003 33.2668 128.776 33.2727C128.374 33.2845 128.013 33.224 127.691 33.0911C127.369 32.9553 127.114 32.7456 126.925 32.4622C126.739 32.1787 126.647 31.8244 126.65 31.3992V24.7468Z" fill="#484455"/>
<path d="M191.181 26.7957C194.339 30.9577 196.625 31.5998 201.871 28.8972L207.444 34.3792C198.695 40.1162 193.837 40.6427 185.333 32.5519L182.684 35.3842V24.0547H193.739L191.181 26.7957Z" fill="#C3C3C3"/>
<path d="M208.905 15.2748C204.986 10.5282 202.273 9.9104 197.301 9.33594V17.1935C200.022 17.6222 201.393 18.2251 203.057 21.1223L200.499 23.772H211.463V12.5338L208.905 15.2748Z" fill="#B569B5"/>
<path d="M194.561 17.9245C191.87 19.4951 191.047 20.8405 190.633 23.9547H182.684C183.136 18.6054 184.437 16.0184 188.714 12.1683L186.064 9.33594H197.303V20.6655L194.561 17.9245Z" fill="#C97BC9"/>
<path d="M173.117 49.9453V45.46H174.142V46.2075H174.189C174.271 45.9486 174.411 45.7491 174.61 45.6089C174.81 45.4668 175.039 45.3957 175.296 45.3957C175.354 45.3957 175.419 45.3987 175.491 45.4045C175.565 45.4084 175.627 45.4152 175.675 45.4249V46.3973C175.631 46.3818 175.56 46.3681 175.462 46.3565C175.367 46.3428 175.274 46.336 175.185 46.336C174.992 46.336 174.819 46.3779 174.665 46.4616C174.513 46.5433 174.393 46.6572 174.306 46.8032C174.218 46.9492 174.174 47.1176 174.174 47.3084V49.9453H173.117ZM178.179 50.0329C177.729 50.0329 177.341 49.9395 177.014 49.7526C176.688 49.5637 176.438 49.297 176.263 48.9525C176.088 48.6059 176 48.1981 176 47.7289C176 47.2675 176.088 46.8626 176.263 46.5141C176.44 46.1637 176.687 45.8912 177.005 45.6965C177.322 45.4999 177.695 45.4016 178.123 45.4016C178.4 45.4016 178.661 45.4464 178.906 45.5359C179.153 45.6235 179.371 45.7598 179.56 45.9447C179.751 46.1297 179.901 46.3652 180.01 46.6514C180.119 46.9356 180.173 47.2744 180.173 47.6676V47.9917H176.497V47.2792H179.16C179.158 47.0768 179.114 46.8967 179.028 46.739C178.943 46.5794 178.823 46.4538 178.669 46.3623C178.517 46.2708 178.34 46.2251 178.138 46.2251C177.922 46.2251 177.732 46.2776 177.568 46.3827C177.405 46.4859 177.277 46.6222 177.186 46.7916C177.096 46.959 177.051 47.143 177.049 47.3435V47.9655C177.049 48.2263 177.096 48.4502 177.192 48.6371C177.287 48.822 177.42 48.9641 177.592 49.0634C177.763 49.1608 177.964 49.2094 178.193 49.2094C178.347 49.2094 178.486 49.188 178.611 49.1452C178.735 49.1004 178.844 49.0352 178.935 48.9495C179.027 48.8639 179.096 48.7578 179.142 48.6312L180.129 48.7422C180.067 49.0031 179.948 49.2309 179.773 49.4255C179.6 49.6183 179.378 49.7682 179.107 49.8752C178.837 49.9804 178.527 50.0329 178.179 50.0329ZM186.233 45.9827H185.141C185.11 45.8036 185.052 45.6449 184.969 45.5067C184.885 45.3665 184.781 45.2478 184.656 45.1504C184.532 45.0531 184.39 44.9801 184.23 44.9314C184.072 44.8808 183.902 44.8555 183.719 44.8555C183.394 44.8555 183.106 44.9373 182.855 45.1008C182.603 45.2624 182.407 45.4999 182.265 45.8133C182.123 46.1248 182.052 46.5054 182.052 46.9551C182.052 47.4126 182.123 47.798 182.265 48.1115C182.409 48.4229 182.605 48.6585 182.855 48.8181C183.106 48.9758 183.393 49.0547 183.716 49.0547C183.895 49.0547 184.063 49.0313 184.218 48.9846C184.376 48.9359 184.517 48.8649 184.642 48.7714C184.768 48.678 184.874 48.5631 184.96 48.4268C185.048 48.2906 185.108 48.1348 185.141 47.9596L186.233 47.9655C186.192 48.2497 186.104 48.5164 185.967 48.7656C185.833 49.0148 185.657 49.2347 185.439 49.4255C185.221 49.6144 184.966 49.7623 184.674 49.8694C184.382 49.9745 184.058 50.0271 183.701 50.0271C183.176 50.0271 182.707 49.9054 182.294 49.6621C181.881 49.4187 181.556 49.0673 181.319 48.6079C181.081 48.1485 180.962 47.5975 180.962 46.9551C180.962 46.3107 181.082 45.7598 181.321 45.3023C181.561 44.8429 181.887 44.4915 182.3 44.2481C182.712 44.0048 183.18 43.8831 183.701 43.8831C184.034 43.8831 184.344 43.9298 184.63 44.0233C184.916 44.1167 185.171 44.254 185.395 44.435C185.619 44.6141 185.803 44.8341 185.947 45.095C186.093 45.3539 186.188 45.6498 186.233 45.9827ZM187.921 49.9453H186.765L188.87 43.9649H190.207L192.316 49.9453H191.159L189.562 45.1913H189.515L187.921 49.9453ZM187.959 47.6004H191.113V48.4706H187.959V47.6004ZM193.104 49.9453V43.9649H195.346C195.806 43.9649 196.191 44.0505 196.503 44.2218C196.816 44.3932 197.053 44.6287 197.212 44.9285C197.374 45.2264 197.455 45.5651 197.455 45.9447C197.455 46.3282 197.374 46.6689 197.212 46.9668C197.051 47.2646 196.812 47.4992 196.497 47.6705C196.181 47.8399 195.793 47.9246 195.332 47.9246H193.845V47.0339H195.186C195.454 47.0339 195.674 46.9872 195.846 46.8938C196.017 46.8003 196.143 46.6718 196.225 46.5083C196.309 46.3448 196.351 46.1569 196.351 45.9447C196.351 45.7325 196.309 45.5456 196.225 45.3841C196.143 45.2225 196.016 45.0969 195.843 45.0074C195.671 44.9159 195.45 44.8701 195.18 44.8701H194.187V49.9453H193.104ZM198.133 44.873V43.9649H202.904V44.873H201.056V49.9453H199.981V44.873H198.133ZM208.678 45.9827H207.586C207.555 45.8036 207.497 45.6449 207.414 45.5067C207.33 45.3665 207.226 45.2478 207.101 45.1504C206.977 45.0531 206.835 44.9801 206.675 44.9314C206.517 44.8808 206.347 44.8555 206.164 44.8555C205.839 44.8555 205.551 44.9373 205.299 45.1008C205.048 45.2624 204.852 45.4999 204.71 45.8133C204.568 46.1248 204.496 46.5054 204.496 46.9551C204.496 47.4126 204.568 47.798 204.71 48.1115C204.854 48.4229 205.05 48.6585 205.299 48.8181C205.551 48.9758 205.838 49.0547 206.161 49.0547C206.34 49.0547 206.507 49.0313 206.663 48.9846C206.821 48.9359 206.962 48.8649 207.087 48.7714C207.213 48.678 207.319 48.5631 207.405 48.4268C207.493 48.2906 207.553 48.1348 207.586 47.9596L208.678 47.9655C208.637 48.2497 208.549 48.5164 208.412 48.7656C208.278 49.0148 208.102 49.2347 207.884 49.4255C207.666 49.6144 207.411 49.7623 207.119 49.8694C206.827 49.9745 206.503 50.0271 206.146 50.0271C205.621 50.0271 205.152 49.9054 204.739 49.6621C204.326 49.4187 204.001 49.0673 203.764 48.6079C203.526 48.1485 203.407 47.5975 203.407 46.9551C203.407 46.3107 203.527 45.7598 203.766 45.3023C204.006 44.8429 204.332 44.4915 204.745 44.2481C205.157 44.0048 205.625 43.8831 206.146 43.8831C206.479 43.8831 206.789 43.9298 207.075 44.0233C207.361 44.1167 207.616 44.254 207.84 44.435C208.064 44.6141 208.248 44.8341 208.392 45.095C208.538 45.3539 208.633 45.6498 208.678 45.9827ZM209.67 49.9453V43.9649H210.754V46.4966H213.525V43.9649H214.611V49.9453H213.525V47.4048H210.754V49.9453H209.67ZM216.557 49.9453H215.401L217.506 43.9649H218.844L220.952 49.9453H219.796L218.198 45.1913H218.152L216.557 49.9453ZM216.595 47.6004H219.749V48.4706H216.595V47.6004Z" fill="#797979"/>
</g>
<g filter="url(#filter2_dd_6276_14778)">
<g clip-path="url(#clip1_6276_14778)">
<rect x="202.684" y="139.953" width="176.905" height="62.048" rx="6.57849" fill="white"/>
<path d="M229.562 158.572C229.672 158.54 229.744 158.54 229.783 158.579C229.828 158.611 229.828 158.669 229.802 158.766C229.77 158.857 229.718 158.941 229.64 159.019C229.562 159.084 229.472 159.129 229.355 159.168L225.82 160.411C225.704 160.456 225.62 160.456 225.568 160.411C225.529 160.353 225.522 160.268 225.561 160.158C225.607 160.042 225.691 159.912 225.82 159.77L230.003 155.607L227.491 156.06C227.387 156.08 227.322 156.067 227.283 156.021C227.258 155.97 227.264 155.905 227.303 155.808C227.348 155.704 227.406 155.613 227.484 155.549C227.568 155.471 227.659 155.426 227.756 155.413L230.786 154.992C230.89 154.985 230.974 155.005 231.019 155.063C231.064 155.108 231.077 155.173 231.045 155.257C231.013 155.342 230.941 155.432 230.844 155.523L226.74 159.479L229.562 158.572ZM231.323 158.708C231.194 158.734 231.103 158.721 231.051 158.669C230.993 158.618 230.993 158.533 231.032 158.423C231.032 158.423 231.472 157.122 231.984 155.918C232.366 154.739 232.327 153.496 232.327 153.496C232.314 153.399 232.333 153.322 232.392 153.27C232.443 153.212 232.528 153.186 232.638 153.199C232.741 153.212 232.832 153.257 232.91 153.328C232.987 153.393 233.026 153.47 233.039 153.574C233.039 153.574 233.091 154.778 232.761 155.911C232.262 157.064 231.848 158.3 231.848 158.3C231.815 158.41 231.751 158.501 231.66 158.572C231.563 158.643 231.446 158.689 231.323 158.708ZM236.535 154.901C236.205 154.785 235.959 154.791 235.797 154.882C235.629 154.966 235.558 155.141 235.551 155.406L235.532 155.62L236.561 156.028C236.658 156.08 236.736 156.144 236.781 156.222C236.827 156.287 236.84 156.358 236.82 156.423C236.807 156.494 236.768 156.533 236.704 156.533C236.639 156.539 236.548 156.52 236.451 156.468L235.428 156.041L234.709 158.572C234.69 158.663 234.632 158.728 234.528 158.76C234.431 158.799 234.321 158.805 234.185 158.792C234.049 158.773 233.945 158.741 233.861 158.682C233.797 158.618 233.771 158.54 233.797 158.443L234.664 155.821L234.056 155.639C233.952 155.607 233.874 155.568 233.829 155.516C233.784 155.458 233.771 155.4 233.79 155.335C233.803 155.264 233.842 155.212 233.9 155.193C233.971 155.167 234.056 155.167 234.159 155.199L234.768 155.393L234.781 155.27C234.794 154.856 234.904 154.565 235.156 154.422C235.396 154.273 235.791 154.26 236.328 154.383L236.561 154.455C236.729 154.513 236.84 154.578 236.911 154.649C236.988 154.72 237.04 154.811 237.06 154.901C237.079 155.057 236.988 155.089 236.775 154.998L236.535 154.901ZM243.243 160.307C243.359 160.333 243.469 160.372 243.56 160.417C243.663 160.469 243.722 160.521 243.741 160.566C243.773 160.644 243.605 160.663 243.236 160.631C242.848 160.605 242.433 160.573 242 160.521C241.559 160.469 241.132 160.411 240.724 160.333C239.526 160.087 238.607 159.757 237.96 159.323C237.338 158.896 237.066 158.456 237.079 157.977C237.092 157.666 237.221 157.433 237.448 157.284C237.662 157.128 237.96 157.064 238.335 157.09C238.73 157.122 239.19 157.245 239.721 157.459C240.504 157.737 241.216 158.074 241.844 158.462C242.505 158.844 242.971 159.233 243.223 159.608C243.268 159.679 243.262 159.725 243.21 159.738C243.152 159.751 243.029 159.738 242.854 159.705L238.134 158.41C238.27 159.09 239.086 159.634 240.672 159.997C241.08 160.087 241.449 160.145 241.741 160.178C242.045 160.204 242.362 160.23 242.699 160.249C242.964 160.262 243.145 160.281 243.243 160.307ZM239.857 157.867C239.319 157.666 238.911 157.595 238.62 157.64C238.322 157.685 238.16 157.854 238.134 158.119L242.142 159.304C241.967 159.019 241.676 158.76 241.274 158.52C240.879 158.268 240.4 158.054 239.857 157.867ZM251.828 162.606C251.944 162.651 252.048 162.709 252.132 162.78C252.229 162.852 252.287 162.923 252.313 162.994L252.74 164.619C252.76 164.723 252.74 164.787 252.682 164.813C252.637 164.846 252.54 164.839 252.391 164.807C252.08 164.742 251.698 164.626 251.232 164.444C250.779 164.27 250.313 164.062 249.84 163.829C248.946 163.376 248.144 162.871 247.451 162.386C246.745 161.906 246.156 161.427 245.677 160.955C245.172 160.508 244.79 160.068 244.525 159.647C244.24 159.233 244.175 158.928 244.337 158.734C244.479 158.514 244.822 158.397 245.373 158.41C245.878 158.41 246.577 158.546 247.477 158.864C248.085 159.071 248.675 159.317 249.238 159.621C249.801 159.932 250.325 160.262 250.792 160.618C250.992 160.767 251.122 160.89 251.193 160.994C251.245 161.071 251.258 161.13 251.232 161.162C251.206 161.194 251.148 161.188 251.044 161.142C250.954 161.104 250.824 161.026 250.656 160.909C250.105 160.534 249.626 160.236 249.231 160.022C248.823 159.796 248.396 159.602 247.924 159.427C246.855 159.038 246.169 158.954 245.813 159.09C245.431 159.2 245.424 159.53 245.781 160.087C246.065 160.637 246.525 161.188 247.198 161.738C247.852 162.308 248.72 162.871 249.788 163.408C250.559 163.784 251.238 164.049 251.84 164.211L251.484 162.839L249.646 162.01C249.503 161.945 249.374 161.868 249.27 161.79C249.167 161.719 249.102 161.647 249.076 161.589C249.044 161.524 249.063 161.492 249.141 161.499C249.212 161.499 249.322 161.531 249.471 161.589L251.828 162.606ZM256.981 159.226C257.078 159.142 257.162 159.116 257.24 159.155C257.318 159.168 257.382 159.239 257.434 159.356C257.434 159.356 258.328 160.786 259.254 162.114C260.011 163.35 260.445 164.619 260.445 164.619C260.471 164.716 260.464 164.807 260.432 164.898C260.4 164.988 260.341 165.059 260.251 165.118C260.166 165.169 260.095 165.176 260.037 165.144C259.979 165.111 259.94 165.053 259.92 164.956L257.745 160.929L258.062 164.826C258.011 164.975 257.913 165.053 257.758 165.066C257.609 165.079 257.48 165.027 257.363 164.904L254.145 162.243L255.382 165.577C255.395 165.655 255.369 165.713 255.304 165.759C255.246 165.804 255.155 165.83 255.026 165.823C254.909 165.817 254.806 165.784 254.735 165.733C254.657 165.674 254.618 165.61 254.605 165.526C254.605 165.526 254.43 164.477 254.113 163.428C253.524 162.308 252.715 161.078 252.715 161.078C252.643 160.974 252.63 160.903 252.663 160.864C252.695 160.819 252.779 160.819 252.915 160.858C253.084 160.909 253.278 161.013 253.485 161.194L257.622 164.425L256.878 159.757C256.845 159.627 256.845 159.517 256.858 159.446C256.878 159.356 256.923 159.284 256.981 159.226Z" fill="black"/>
<path d="M229.68 186.188V180.207H233.569V181.115H230.763V182.739H233.368V183.647H230.763V185.279H233.593V186.188H229.68ZM235.685 183.559V186.188H234.628V181.702H235.638V182.464H235.691C235.794 182.213 235.958 182.014 236.184 181.866C236.412 181.718 236.693 181.644 237.028 181.644C237.338 181.644 237.607 181.71 237.837 181.842C238.069 181.975 238.248 182.166 238.374 182.418C238.503 182.669 238.566 182.973 238.564 183.332V186.188H237.507V183.495C237.507 183.195 237.429 182.961 237.274 182.791C237.12 182.622 236.907 182.537 236.634 182.537C236.449 182.537 236.285 182.578 236.141 182.66C235.998 182.74 235.886 182.856 235.805 183.007C235.725 183.159 235.685 183.343 235.685 183.559ZM241.879 181.702V182.52H239.3V181.702H241.879ZM239.937 180.628H240.994V184.838C240.994 184.981 241.015 185.09 241.058 185.165C241.103 185.239 241.161 185.29 241.233 185.317C241.305 185.345 241.385 185.358 241.473 185.358C241.539 185.358 241.599 185.353 241.654 185.344C241.71 185.334 241.753 185.325 241.782 185.317L241.96 186.144C241.904 186.163 241.823 186.185 241.718 186.208C241.615 186.231 241.488 186.245 241.338 186.249C241.074 186.257 240.835 186.217 240.623 186.129C240.411 186.04 240.242 185.901 240.118 185.714C239.995 185.528 239.935 185.294 239.937 185.014V180.628ZM244.7 186.275C244.25 186.275 243.862 186.182 243.535 185.995C243.21 185.806 242.96 185.539 242.785 185.195C242.609 184.848 242.522 184.44 242.522 183.971C242.522 183.51 242.609 183.105 242.785 182.756C242.962 182.406 243.209 182.133 243.526 181.939C243.844 181.742 244.216 181.644 244.645 181.644C244.921 181.644 245.182 181.689 245.427 181.778C245.675 181.866 245.893 182.002 246.081 182.187C246.272 182.372 246.422 182.607 246.531 182.894C246.64 183.178 246.695 183.517 246.695 183.91V184.234H243.018V183.521H245.681C245.679 183.319 245.636 183.139 245.55 182.981C245.464 182.822 245.345 182.696 245.191 182.604C245.039 182.513 244.862 182.467 244.659 182.467C244.443 182.467 244.253 182.52 244.09 182.625C243.926 182.728 243.799 182.864 243.707 183.034C243.618 183.201 243.572 183.385 243.57 183.586V184.208C243.57 184.469 243.618 184.692 243.713 184.879C243.809 185.064 243.942 185.206 244.113 185.306C244.285 185.403 244.485 185.452 244.715 185.452C244.869 185.452 245.008 185.43 245.132 185.387C245.257 185.343 245.365 185.277 245.456 185.192C245.548 185.106 245.617 185 245.664 184.873L246.651 184.984C246.589 185.245 246.47 185.473 246.295 185.668C246.121 185.86 245.899 186.01 245.629 186.117C245.358 186.223 245.049 186.275 244.7 186.275ZM247.589 186.188V181.702H248.614V182.45H248.661C248.742 182.191 248.883 181.991 249.081 181.851C249.282 181.709 249.51 181.638 249.767 181.638C249.826 181.638 249.891 181.641 249.963 181.647C250.037 181.651 250.098 181.657 250.147 181.667V182.64C250.102 182.624 250.031 182.61 249.934 182.599C249.838 182.585 249.746 182.578 249.656 182.578C249.464 182.578 249.29 182.62 249.137 182.704C248.985 182.786 248.865 182.899 248.777 183.045C248.69 183.191 248.646 183.36 248.646 183.551V186.188H247.589ZM255.129 181.702V182.52H252.55V181.702H255.129ZM253.187 180.628H254.244V184.838C254.244 184.981 254.265 185.09 254.308 185.165C254.353 185.239 254.411 185.29 254.483 185.317C254.555 185.345 254.635 185.358 254.723 185.358C254.789 185.358 254.849 185.353 254.904 185.344C254.96 185.334 255.003 185.325 255.032 185.317L255.21 186.144C255.154 186.163 255.073 186.185 254.968 186.208C254.865 186.231 254.738 186.245 254.589 186.249C254.324 186.257 254.085 186.217 253.873 186.129C253.661 186.04 253.492 185.901 253.368 185.714C253.245 185.528 253.185 185.294 253.187 185.014V180.628ZM257.95 186.275C257.501 186.275 257.112 186.182 256.785 185.995C256.46 185.806 256.21 185.539 256.035 185.195C255.859 184.848 255.772 184.44 255.772 183.971C255.772 183.51 255.859 183.105 256.035 182.756C256.212 182.406 256.459 182.133 256.776 181.939C257.094 181.742 257.467 181.644 257.895 181.644C258.171 181.644 258.432 181.689 258.677 181.778C258.925 181.866 259.143 182.002 259.332 182.187C259.522 182.372 259.672 182.607 259.781 182.894C259.89 183.178 259.945 183.517 259.945 183.91V184.234H256.268V183.521H258.931C258.93 183.319 258.886 183.139 258.8 182.981C258.714 182.822 258.595 182.696 258.441 182.604C258.289 182.513 258.112 182.467 257.909 182.467C257.693 182.467 257.504 182.52 257.34 182.625C257.176 182.728 257.049 182.864 256.957 183.034C256.868 183.201 256.822 183.385 256.82 183.586V184.208C256.82 184.469 256.868 184.692 256.963 184.879C257.059 185.064 257.192 185.206 257.363 185.306C257.535 185.403 257.735 185.452 257.965 185.452C258.119 185.452 258.258 185.43 258.382 185.387C258.507 185.343 258.615 185.277 258.707 185.192C258.798 185.106 258.867 185 258.914 184.873L259.901 184.984C259.839 185.245 259.72 185.473 259.545 185.668C259.371 185.86 259.15 186.01 258.879 186.117C258.608 186.223 258.299 186.275 257.95 186.275ZM261.607 181.702L262.512 183.358L263.432 181.702H264.551L263.199 183.945L264.574 186.188H263.461L262.512 184.573L261.572 186.188H260.451L261.817 183.945L260.486 181.702H261.607ZM267.608 181.702V182.52H265.029V181.702H267.608ZM265.666 180.628H266.723V184.838C266.723 184.981 266.745 185.09 266.787 185.165C266.832 185.239 266.891 185.29 266.963 185.317C267.035 185.345 267.114 185.358 267.202 185.358C267.268 185.358 267.329 185.353 267.383 185.344C267.44 185.334 267.482 185.325 267.512 185.317L267.69 186.144C267.633 186.163 267.552 186.185 267.447 186.208C267.344 186.231 267.218 186.245 267.068 186.249C266.803 186.257 266.564 186.217 266.352 186.129C266.14 186.04 265.972 185.901 265.847 185.714C265.724 185.528 265.664 185.294 265.666 185.014V180.628Z" fill="#B5B5B5"/>
<rect x="218.857" y="171.307" width="127.398" height="23.7631" rx="1.66996" stroke="#D8D1D8" stroke-width="0.660089"/>
</g>
</g>
<defs>
<filter id="filter0_dd_6276_14778" x="77.2266" y="71.2891" width="250.914" height="65.3203" filterUnits="userSpaceOnUse" color-interpolation-filters="sRGB">
<feFlood flood-opacity="0" result="BackgroundImageFix"/>
<feColorMatrix in="SourceAlpha" type="matrix" values="0 0 0 0 0 0 0 0 0 0 0 0 0 0 0 0 0 0 127 0" result="hardAlpha"/>
<feOffset dy="2"/>
<feGaussianBlur stdDeviation="2"/>
<feComposite in2="hardAlpha" operator="out"/>
<feColorMatrix type="matrix" values="0 0 0 0 0 0 0 0 0 0 0 0 0 0 0 0 0 0 0.03 0"/>
<feBlend mode="normal" in2="BackgroundImageFix" result="effect1_dropShadow_6276_14778"/>
<feColorMatrix in="SourceAlpha" type="matrix" values="0 0 0 0 0 0 0 0 0 0 0 0 0 0 0 0 0 0 127 0" result="hardAlpha"/>
<feOffset dy="1"/>
<feGaussianBlur stdDeviation="1"/>
<feComposite in2="hardAlpha" operator="out"/>
<feColorMatrix type="matrix" values="0 0 0 0 0 0 0 0 0 0 0 0 0 0 0 0 0 0 0.05 0"/>
<feBlend mode="normal" in2="effect1_dropShadow_6276_14778" result="effect2_dropShadow_6276_14778"/>
<feBlend mode="normal" in="SourceGraphic" in2="effect2_dropShadow_6276_14778" result="shape"/>
</filter>
<filter id="filter1_dd_6276_14778" x="0" y="0" width="236.605" height="65.2734" filterUnits="userSpaceOnUse" color-interpolation-filters="sRGB">
<feFlood flood-opacity="0" result="BackgroundImageFix"/>
<feColorMatrix in="SourceAlpha" type="matrix" values="0 0 0 0 0 0 0 0 0 0 0 0 0 0 0 0 0 0 127 0" result="hardAlpha"/>
<feOffset dy="1"/>
<feGaussianBlur stdDeviation="1"/>
<feComposite in2="hardAlpha" operator="out"/>
<feColorMatrix type="matrix" values="0 0 0 0 0 0 0 0 0 0 0 0 0 0 0 0 0 0 0.05 0"/>
<feBlend mode="normal" in2="BackgroundImageFix" result="effect1_dropShadow_6276_14778"/>
<feColorMatrix in="SourceAlpha" type="matrix" values="0 0 0 0 0 0 0 0 0 0 0 0 0 0 0 0 0 0 127 0" result="hardAlpha"/>
<feOffset dy="2"/>
<feGaussianBlur stdDeviation="2"/>
<feComposite in2="hardAlpha" operator="out"/>
<feColorMatrix type="matrix" values="0 0 0 0 0 0 0 0 0 0 0 0 0 0 0 0 0 0 0.03 0"/>
<feBlend mode="normal" in2="effect1_dropShadow_6276_14778" result="effect2_dropShadow_6276_14778"/>
<feBlend mode="normal" in="SourceGraphic" in2="effect2_dropShadow_6276_14778" result="shape"/>
</filter>
<filter id="filter2_dd_6276_14778" x="198.684" y="137.953" width="184.904" height="70.0469" filterUnits="userSpaceOnUse" color-interpolation-filters="sRGB">
<feFlood flood-opacity="0" result="BackgroundImageFix"/>
<feColorMatrix in="SourceAlpha" type="matrix" values="0 0 0 0 0 0 0 0 0 0 0 0 0 0 0 0 0 0 127 0" result="hardAlpha"/>
<feOffset dy="2"/>
<feGaussianBlur stdDeviation="2"/>
<feComposite in2="hardAlpha" operator="out"/>
<feColorMatrix type="matrix" values="0 0 0 0 0 0 0 0 0 0 0 0 0 0 0 0 0 0 0.03 0"/>
<feBlend mode="normal" in2="BackgroundImageFix" result="effect1_dropShadow_6276_14778"/>
<feColorMatrix in="SourceAlpha" type="matrix" values="0 0 0 0 0 0 0 0 0 0 0 0 0 0 0 0 0 0 127 0" result="hardAlpha"/>
<feOffset dy="1"/>
<feGaussianBlur stdDeviation="1"/>
<feComposite in2="hardAlpha" operator="out"/>
<feColorMatrix type="matrix" values="0 0 0 0 0 0 0 0 0 0 0 0 0 0 0 0 0 0 0.05 0"/>
<feBlend mode="normal" in2="effect1_dropShadow_6276_14778" result="effect2_dropShadow_6276_14778"/>
<feBlend mode="normal" in="SourceGraphic" in2="effect2_dropShadow_6276_14778" result="shape"/>
</filter>
<clipPath id="clip0_6276_14778">
<rect x="81.2266" y="73.2891" width="242.914" height="57.3212" rx="6.57849" fill="white"/>
</clipPath>
<clipPath id="clip1_6276_14778">
<rect x="202.684" y="139.953" width="176.905" height="62.048" rx="6.57849" fill="white"/>
</clipPath>
</defs>
</svg>
