<svg width="29" height="28" viewBox="0 0 29 28" fill="none" xmlns="http://www.w3.org/2000/svg">
<path d="M26.9147 6.12442C26.9147 6.69887 26.5979 7.2677 25.9823 7.79843C25.3668 8.32916 24.4646 8.81139 23.3272 9.2176C22.1899 9.6238 20.8396 9.94602 19.3536 10.1659C17.8675 10.3857 16.2748 10.4988 14.6663 10.4988C11.4179 10.4988 8.30245 10.038 6.00543 9.2176C3.70842 8.39723 2.41797 7.28458 2.41797 6.12442C2.41797 5.54996 2.73478 4.98113 3.35032 4.4504C3.96586 3.91967 4.86807 3.43744 6.00543 3.03124C7.1428 2.62503 8.49305 2.30282 9.97909 2.08298C11.4651 1.86315 13.0579 1.75 14.6663 1.75C16.2748 1.75 17.8675 1.86315 19.3536 2.08298C20.8396 2.30282 22.1899 2.62503 23.3272 3.03124C24.4646 3.43744 25.3668 3.91967 25.9823 4.4504C26.5979 4.98113 26.9147 5.54996 26.9147 6.12442Z" stroke="#4F3895" stroke-width="1.75" stroke-linecap="round" stroke-linejoin="round"/>
<path d="M26.9147 21.875C26.9147 22.6429 26.3488 23.3972 25.2737 24.0622C24.1987 24.7272 22.6525 25.2794 20.7905 25.6634C18.9285 26.0473 16.8164 26.2494 14.6663 26.2494C12.5163 26.2494 10.4041 26.0473 8.54215 25.6634C6.68016 25.2794 5.13396 24.7272 4.05894 24.0622C2.98392 23.3972 2.41797 22.6429 2.41797 21.875" stroke="#4F3895" stroke-width="1.75" stroke-linecap="round" stroke-linejoin="round"/>
<path d="M26.9147 16.625C26.9147 17.3929 26.3487 18.1472 25.2737 18.8122C24.1987 19.4772 22.6525 20.0294 20.7905 20.4134C18.9285 20.7973 16.8164 20.9994 14.6663 20.9994C12.5163 20.9994 10.4041 20.7973 8.54215 20.4134C6.68016 20.0294 5.13396 19.4772 4.05894 18.8122C2.98392 18.1472 2.41797 17.3929 2.41797 16.625" stroke="#4F3895" stroke-width="1.75" stroke-linecap="round" stroke-linejoin="round"/>
<path d="M26.9147 11.375C26.9147 12.1429 26.3488 12.8972 25.2737 13.5622C24.1987 14.2272 22.6525 14.7794 20.7905 15.1634C18.9285 15.5473 16.8164 15.7494 14.6663 15.7494C12.5163 15.7494 10.4041 15.5473 8.54215 15.1634C6.68016 14.7794 5.13396 14.2272 4.05894 13.5622C2.98392 12.8972 2.41797 12.1429 2.41797 11.375" stroke="#4F3895" stroke-width="1.75" stroke-linecap="round" stroke-linejoin="round"/>
<path d="M2.41797 6.125V21.8729" stroke="#4F3895" stroke-width="1.75" stroke-linecap="round" stroke-linejoin="round"/>
<path d="M26.9141 6.125V21.8729" stroke="#4F3895" stroke-width="1.75" stroke-linecap="round" stroke-linejoin="round"/>
</svg>
