<svg width="28" height="28" viewBox="0 0 28 28" fill="none" xmlns="http://www.w3.org/2000/svg">
<path d="M14 26.25C7.245 26.25 1.75 20.755 1.75 14C1.75 7.245 7.245 1.75 14 1.75C20.755 1.75 26.25 7.245 26.25 14C26.25 20.755 20.755 26.25 14 26.25ZM14 3.5C8.2075 3.5 3.5 8.2075 3.5 14C3.5 19.7925 8.2075 24.5 14 24.5C19.7925 24.5 24.5 19.7925 24.5 14C24.5 8.2075 19.7925 3.5 14 3.5Z" fill="#4F3895"/>
<path d="M17.5001 18.375C17.3426 18.375 17.1851 18.34 17.0451 18.2525L12.6701 15.6275C12.5405 15.5496 12.4335 15.4392 12.3598 15.3072C12.2862 15.1752 12.2483 15.0262 12.2501 14.875V7.875C12.2501 7.385 12.6351 7 13.1251 7C13.6151 7 14.0001 7.385 14.0001 7.875V14.385L17.9551 16.7475C18.118 16.8473 18.2439 16.9976 18.3137 17.1754C18.3835 17.3533 18.3935 17.549 18.342 17.733C18.2906 17.9171 18.1806 18.0793 18.0286 18.1951C17.8767 18.311 17.6911 18.3741 17.5001 18.375Z" fill="#4F3895"/>
</svg>
