<svg width="29" height="28" viewBox="0 0 29 28" fill="none" xmlns="http://www.w3.org/2000/svg">
<path d="M14.3307 25.6693C20.7741 25.6693 25.9974 20.4459 25.9974 14.0026C25.9974 7.55928 20.7741 2.33594 14.3307 2.33594C7.88741 2.33594 2.66406 7.55928 2.66406 14.0026C2.66406 20.4459 7.88741 25.6693 14.3307 25.6693Z" stroke="#4F3895" stroke-width="1.75"/>
<path d="M16.6628 8.16927C16.6628 8.78811 16.4169 9.3816 15.9793 9.81919C15.5418 10.2568 14.9483 10.5026 14.3294 10.5026C13.7106 10.5026 13.1171 10.2568 12.6795 9.81919C12.2419 9.3816 11.9961 8.78811 11.9961 8.16927C11.9961 7.55043 12.2419 6.95694 12.6795 6.51935C13.1171 6.08177 13.7106 5.83594 14.3294 5.83594C14.9483 5.83594 15.5418 6.08177 15.9793 6.51935C16.4169 6.95694 16.6628 7.55043 16.6628 8.16927Z" stroke="#4F3895" stroke-width="1.75"/>
<path d="M21.332 11.6719C21.332 11.6719 17.2055 13.4219 14.332 13.4219C11.4585 13.4219 7.33203 11.6719 7.33203 11.6719M14.332 14.0052V15.6992M14.332 15.6992C14.3317 16.3706 14.5245 17.0279 14.8874 17.5927L17.832 22.1719M14.332 15.6992C14.3324 16.3706 14.1396 17.0279 13.7767 17.5927L10.832 22.1719" stroke="#4F3895" stroke-width="1.75" stroke-linecap="round"/>
</svg>
