<svg width="33" height="32" viewBox="0 0 33 32" fill="none" xmlns="http://www.w3.org/2000/svg">
<path d="M25.5 18L24.086 19.414L26.667 22H18.5C17.4391 22 16.4217 22.4214 15.6716 23.1716C14.9214 23.9217 14.5 24.9391 14.5 26C14.5 27.0609 14.9214 28.0783 15.6716 28.8284C16.4217 29.5786 17.4391 30 18.5 30H20.5V28H18.5C17.9696 28 17.4609 27.7893 17.0858 27.4142C16.7107 27.0391 16.5 26.5304 16.5 26C16.5 25.4696 16.7107 24.9609 17.0858 24.5858C17.4609 24.2107 17.9696 24 18.5 24H26.667L24.084 26.587L25.5 28L30.5 23L25.5 18Z" fill="#4F3895"/>
<path d="M10.5 22H4.5L4.497 6.906L15.931 14.822C16.0982 14.9377 16.2967 14.9997 16.5 14.9997C16.7033 14.9997 16.9018 14.9377 17.069 14.822L28.5 6.91V16H30.5V6C30.4992 5.46981 30.2882 4.96156 29.9133 4.58666C29.5384 4.21176 29.0302 4.00079 28.5 4H4.5C3.97009 4 3.46183 4.2103 3.08685 4.58473C2.71186 4.95915 2.50079 5.46709 2.5 5.997V22C2.50079 22.5302 2.71176 23.0384 3.08666 23.4133C3.46156 23.7882 3.96981 23.9992 4.5 24H10.5V22ZM26.299 6L16.5 12.784L6.701 6H26.299Z" fill="#4F3895"/>
</svg>
