<svg width="69" height="69" viewBox="0 0 69 69" fill="none" xmlns="http://www.w3.org/2000/svg">
<rect y="0.140625" width="68.1387" height="68.1387" rx="6.13698" fill="url(#paint0_linear_251_2158)"/>
<path d="M49.4817 27.9016L47.2196 31.304C48.3105 33.4799 48.8446 35.8924 48.774 38.3255C48.7034 40.7585 48.0303 43.136 46.815 45.2449H21.3241C19.7446 42.5048 19.0901 39.3285 19.4576 36.1871C19.8252 33.0458 21.1952 30.1064 23.3646 27.8049C25.534 25.5034 28.3874 23.9622 31.5016 23.4098C34.6158 22.8574 37.8251 23.3232 40.6537 24.7382L44.0562 22.476C40.5921 20.2547 36.4831 19.2593 32.3865 19.6491C28.2899 20.0389 24.4423 21.7913 21.4593 24.626C18.4762 27.4608 16.5301 31.214 15.9321 35.2855C15.3341 39.3569 16.1188 43.5113 18.1607 47.0841C18.4817 47.64 18.9425 48.1023 19.4975 48.4249C20.0525 48.7476 20.6822 48.9194 21.3241 48.9232H46.7966C47.4447 48.9258 48.0821 48.7571 48.644 48.4341C49.206 48.1111 49.6726 47.6454 49.9967 47.0841C51.6913 44.1486 52.5417 40.802 52.4541 37.4137C52.3664 34.0253 51.3442 30.7271 49.5001 27.8832L49.4817 27.9016ZM31.4763 40.4815C31.8179 40.8235 32.2236 41.0948 32.6701 41.2799C33.1167 41.465 33.5953 41.5603 34.0787 41.5603C34.5621 41.5603 35.0408 41.465 35.4873 41.2799C35.9339 41.0948 36.3395 40.8235 36.6811 40.4815L47.0908 24.8669L31.4763 35.2766C31.1343 35.6182 30.863 36.0239 30.6779 36.4705C30.4928 36.917 30.3975 37.3957 30.3975 37.8791C30.3975 38.3624 30.4928 38.8411 30.6779 39.2876C30.863 39.7342 31.1343 40.1399 31.4763 40.4815Z" fill="white"/>
<defs>
<linearGradient id="paint0_linear_251_2158" x1="34.0693" y1="0.140625" x2="34.0693" y2="68.2793" gradientUnits="userSpaceOnUse">
<stop stop-color="#D579CC"/>
<stop offset="1" stop-color="#AC32A0"/>
</linearGradient>
</defs>
</svg>
