<svg width="32" height="32" viewBox="0 0 32 32" fill="none" xmlns="http://www.w3.org/2000/svg">
<path d="M16.0003 29.3327C8.63633 29.3327 2.66699 23.3633 2.66699 15.9993C2.66699 8.63535 8.63633 2.66602 16.0003 2.66602C23.3643 2.66602 29.3337 8.63535 29.3337 15.9993C29.3337 23.3633 23.3643 29.3327 16.0003 29.3327ZM16.0003 26.666C18.8293 26.666 21.5424 25.5422 23.5428 23.5418C25.5432 21.5414 26.667 18.8283 26.667 15.9993C26.667 13.1704 25.5432 10.4573 23.5428 8.45688C21.5424 6.45649 18.8293 5.33268 16.0003 5.33268C13.1713 5.33268 10.4582 6.45649 8.45785 8.45688C6.45747 10.4573 5.33366 13.1704 5.33366 15.9993C5.33366 18.8283 6.45747 21.5414 8.45785 23.5418C10.4582 25.5422 13.1713 26.666 16.0003 26.666ZM17.3337 13.9993V19.9993H18.667V22.666H13.3337V19.9993H14.667V16.666H13.3337V13.9993H17.3337ZM18.0003 10.666C18.0003 11.1964 17.7896 11.7052 17.4145 12.0802C17.0395 12.4553 16.5308 12.666 16.0003 12.666C15.4699 12.666 14.9612 12.4553 14.5861 12.0802C14.211 11.7052 14.0003 11.1964 14.0003 10.666C14.0003 10.1356 14.211 9.62687 14.5861 9.2518C14.9612 8.87673 15.4699 8.66602 16.0003 8.66602C16.5308 8.66602 17.0395 8.87673 17.4145 9.2518C17.7896 9.62687 18.0003 10.1356 18.0003 10.666Z" fill="#6434D0"/>
</svg>
