<svg width="393" height="321" viewBox="0 0 393 321" fill="none" xmlns="http://www.w3.org/2000/svg">
<path fill-rule="evenodd" clip-rule="evenodd" d="M249.219 29.8316C285.732 35.5364 319.704 56.8083 337.996 88.8578C355.235 119.064 348.867 155.482 340.123 189.107C332.085 220.016 317.466 248.74 291.549 267.467C264.791 286.801 232.166 292.38 199.142 290.976C158.675 289.257 112.917 289.654 86.7777 258.764C59.219 226.197 56.0288 177.7 68.9349 137.103C80.7159 100.045 116.66 79.4161 150.124 59.5047C180.911 41.1862 213.784 24.2953 249.219 29.8316Z" fill="#EED2FF"/>
<g filter="url(#filter0_d_628_223)">
<rect x="6" y="38.5411" width="220.646" height="201.376" rx="4.60385" fill="url(#paint0_radial_628_223)"/>
<rect x="6" y="38.5411" width="220.646" height="201.376" rx="4.60385" fill="white"/>
<path d="M170.009 189.84C172.715 192.546 177.129 192.564 179.585 189.629C187.942 179.636 193.687 167.676 196.243 154.826C199.251 139.705 197.707 124.031 191.807 109.787C185.907 95.5433 175.915 83.3687 163.096 74.8031C152.203 67.5246 139.684 63.1298 126.708 61.9734C122.896 61.6337 119.788 64.7679 119.788 68.5948L119.788 77.2189C119.788 81.0457 122.902 84.1034 126.699 84.5802C135.221 85.6503 143.412 88.6897 150.606 93.4965C159.728 99.5917 166.837 108.255 171.036 118.391C175.234 128.527 176.333 139.68 174.192 150.44C172.505 158.926 168.862 166.867 163.593 173.65C161.245 176.672 161.205 181.036 163.911 183.742L170.009 189.84Z" fill="#BDD3F4"/>
<path d="M112.859 68.5948C112.859 64.7679 109.75 61.6337 105.938 61.9734C95.5228 62.9017 85.3756 65.9186 76.1118 70.8702C64.8061 76.9133 55.1652 85.6513 48.0431 96.3102C40.921 106.969 36.5375 119.22 35.281 131.978C34.0245 144.736 35.9337 157.606 40.8395 169.45C45.7452 181.293 53.4962 191.744 63.4057 199.877C73.3153 208.01 85.0776 213.573 97.6507 216.074C110.224 218.575 123.22 217.936 135.487 214.215C145.539 211.166 154.847 206.124 162.869 199.415C165.804 196.96 165.786 192.546 163.08 189.84L156.982 183.742C154.276 181.036 149.912 181.076 146.89 183.424C141.546 187.575 135.473 190.725 128.961 192.701C120.231 195.349 110.984 195.803 102.037 194.023C93.0899 192.244 84.7199 188.285 77.6684 182.498C70.6168 176.711 65.1013 169.274 61.6104 160.846C58.1195 152.418 56.761 143.26 57.6551 134.181C58.5492 125.103 61.6684 116.386 66.7365 108.801C71.8045 101.216 78.6649 94.9981 86.7099 90.6979C92.7114 87.49 99.234 85.4232 105.947 84.5802C109.744 84.1034 112.859 81.0457 112.859 77.2188V68.5948Z" fill="#F4BDBD"/>
<path d="M96.5368 134.552V132.814L103.325 123.077H106.113V132.552H107.992V134.552H106.113V137.623H103.85V134.552H96.5368ZM103.951 125.42L99.1834 132.552H103.951V125.42ZM119.396 124.875H112.628V128.895C112.911 128.518 113.328 128.201 113.88 127.945C114.446 127.69 115.045 127.562 115.678 127.562C116.81 127.562 117.726 127.804 118.426 128.289C119.14 128.774 119.645 129.387 119.941 130.127C120.251 130.868 120.406 131.649 120.406 132.471C120.406 133.468 120.211 134.357 119.82 135.138C119.443 135.906 118.871 136.512 118.103 136.956C117.349 137.401 116.419 137.623 115.315 137.623C113.847 137.623 112.668 137.259 111.779 136.532C110.89 135.805 110.358 134.841 110.183 133.643H112.426C112.574 134.276 112.904 134.781 113.416 135.158C113.928 135.522 114.567 135.704 115.335 135.704C116.291 135.704 117.005 135.414 117.477 134.835C117.961 134.256 118.204 133.488 118.204 132.532C118.204 131.562 117.961 130.821 117.477 130.309C116.992 129.784 116.278 129.521 115.335 129.521C114.675 129.521 114.116 129.69 113.658 130.026C113.214 130.35 112.89 130.794 112.688 131.36H110.506V122.854H119.396V124.875ZM122.44 126.45C122.44 125.467 122.723 124.7 123.288 124.147C123.868 123.582 124.608 123.299 125.511 123.299C126.413 123.299 127.147 123.582 127.713 124.147C128.292 124.7 128.582 125.467 128.582 126.45C128.582 127.434 128.292 128.208 127.713 128.774C127.147 129.339 126.413 129.622 125.511 129.622C124.608 129.622 123.868 129.339 123.288 128.774C122.723 128.208 122.44 127.434 122.44 126.45ZM134.764 123.561L126.703 137.623H124.44L132.501 123.561H134.764ZM125.511 124.693C124.662 124.693 124.238 125.279 124.238 126.45C124.238 127.636 124.662 128.228 125.511 128.228C125.915 128.228 126.225 128.087 126.44 127.804C126.669 127.508 126.784 127.057 126.784 126.45C126.784 125.279 126.359 124.693 125.511 124.693ZM130.663 134.714C130.663 133.73 130.945 132.963 131.511 132.41C132.09 131.845 132.831 131.562 133.734 131.562C134.622 131.562 135.35 131.845 135.915 132.41C136.495 132.963 136.784 133.73 136.784 134.714C136.784 135.697 136.495 136.471 135.915 137.037C135.35 137.603 134.622 137.885 133.734 137.885C132.831 137.885 132.09 137.603 131.511 137.037C130.945 136.471 130.663 135.697 130.663 134.714ZM133.713 132.956C132.865 132.956 132.44 133.542 132.44 134.714C132.44 135.885 132.865 136.471 133.713 136.471C134.562 136.471 134.986 135.885 134.986 134.714C134.986 133.542 134.562 132.956 133.713 132.956Z" fill="#240631" fill-opacity="0.85"/>
<path d="M82.3723 156.158C82.5431 155.934 82.7757 155.746 83.0701 155.593C83.3645 155.44 83.6972 155.363 84.0682 155.363C84.4922 155.363 84.8779 155.469 85.2253 155.681C85.5786 155.887 85.8554 156.179 86.0556 156.556C86.2558 156.932 86.3559 157.365 86.3559 157.854C86.3559 158.343 86.2558 158.781 86.0556 159.17C85.8554 159.553 85.5786 159.853 85.2253 160.071C84.8779 160.283 84.4922 160.389 84.0682 160.389C83.6972 160.389 83.3675 160.315 83.0789 160.168C82.7904 160.015 82.5549 159.827 82.3723 159.603V162.624H81.3654V155.443H82.3723V156.158ZM85.3313 157.854C85.3313 157.518 85.2606 157.23 85.1193 156.988C84.9839 156.741 84.8013 156.556 84.5717 156.432C84.3479 156.302 84.1065 156.238 83.8474 156.238C83.5942 156.238 83.3527 156.302 83.1231 156.432C82.8993 156.562 82.7168 156.75 82.5755 156.997C82.44 157.245 82.3723 157.536 82.3723 157.872C82.3723 158.207 82.44 158.502 82.5755 158.755C82.7168 159.002 82.8993 159.191 83.1231 159.32C83.3527 159.45 83.5942 159.515 83.8474 159.515C84.1065 159.515 84.3479 159.45 84.5717 159.32C84.8013 159.185 84.9839 158.991 85.1193 158.737C85.2606 158.484 85.3313 158.19 85.3313 157.854ZM91.8122 157.757C91.8122 157.939 91.8005 158.104 91.7769 158.252H88.0583C88.0877 158.64 88.232 158.952 88.4911 159.188C88.7502 159.423 89.0682 159.541 89.445 159.541C89.9868 159.541 90.3695 159.314 90.5933 158.861H91.6798C91.5325 159.309 91.2646 159.677 90.876 159.965C90.4932 160.248 90.0162 160.389 89.445 160.389C88.9799 160.389 88.5618 160.286 88.1908 160.08C87.8257 159.868 87.5372 159.574 87.3252 159.197C87.1191 158.814 87.016 158.372 87.016 157.872C87.016 157.371 87.1161 156.932 87.3163 156.556C87.5224 156.173 87.808 155.878 88.1731 155.672C88.5441 155.466 88.9681 155.363 89.445 155.363C89.9044 155.363 90.3136 155.463 90.6728 155.664C91.032 155.864 91.3117 156.146 91.5119 156.511C91.7121 156.871 91.8122 157.286 91.8122 157.757ZM90.7611 157.439C90.7552 157.068 90.6228 156.771 90.3637 156.547C90.1046 156.323 89.7836 156.211 89.4009 156.211C89.0535 156.211 88.7561 156.323 88.5088 156.547C88.2614 156.765 88.1142 157.062 88.0671 157.439H90.7611ZM94.9142 160.389C94.4549 160.389 94.0398 160.286 93.6688 160.08C93.2978 159.868 93.0063 159.574 92.7943 159.197C92.5824 158.814 92.4764 158.372 92.4764 157.872C92.4764 157.377 92.5853 156.938 92.8032 156.556C93.0211 156.173 93.3184 155.878 93.6953 155.672C94.0722 155.466 94.4932 155.363 94.9584 155.363C95.4236 155.363 95.8446 155.466 96.2215 155.672C96.5983 155.878 96.8957 156.173 97.1136 156.556C97.3315 156.938 97.4404 157.377 97.4404 157.872C97.4404 158.366 97.3285 158.805 97.1048 159.188C96.881 159.571 96.5748 159.868 96.1861 160.08C95.8034 160.286 95.3794 160.389 94.9142 160.389ZM94.9142 159.515C95.1733 159.515 95.4147 159.453 95.6385 159.329C95.8682 159.205 96.0537 159.02 96.195 158.773C96.3363 158.525 96.407 158.225 96.407 157.872C96.407 157.518 96.3392 157.221 96.2038 156.98C96.0684 156.732 95.8888 156.547 95.665 156.423C95.4412 156.299 95.1998 156.238 94.9407 156.238C94.6816 156.238 94.4402 156.299 94.2164 156.423C93.9985 156.547 93.8248 156.732 93.6953 156.98C93.5657 157.221 93.501 157.518 93.501 157.872C93.501 158.396 93.6335 158.802 93.8984 159.091C94.1693 159.373 94.5079 159.515 94.9142 159.515ZM99.4428 156.158C99.6135 155.934 99.8461 155.746 100.141 155.593C100.435 155.44 100.768 155.363 101.139 155.363C101.563 155.363 101.948 155.469 102.296 155.681C102.649 155.887 102.926 156.179 103.126 156.556C103.326 156.932 103.426 157.365 103.426 157.854C103.426 158.343 103.326 158.781 103.126 159.17C102.926 159.553 102.649 159.853 102.296 160.071C101.948 160.283 101.563 160.389 101.139 160.389C100.768 160.389 100.438 160.315 100.149 160.168C99.8608 160.015 99.6253 159.827 99.4428 159.603V162.624H98.4358V155.443H99.4428V156.158ZM102.402 157.854C102.402 157.518 102.331 157.23 102.19 156.988C102.054 156.741 101.872 156.556 101.642 156.432C101.418 156.302 101.177 156.238 100.918 156.238C100.665 156.238 100.423 156.302 100.194 156.432C99.9698 156.562 99.7872 156.75 99.6459 156.997C99.5105 157.245 99.4428 157.536 99.4428 157.872C99.4428 158.207 99.5105 158.502 99.6459 158.755C99.7872 159.002 99.9698 159.191 100.194 159.32C100.423 159.45 100.665 159.515 100.918 159.515C101.177 159.515 101.418 159.45 101.642 159.32C101.872 159.185 102.054 158.991 102.19 158.737C102.331 158.484 102.402 158.19 102.402 157.854ZM105.429 153.773V160.31H104.422V153.773H105.429ZM111.212 157.757C111.212 157.939 111.2 158.104 111.176 158.252H107.458C107.487 158.64 107.631 158.952 107.891 159.188C108.15 159.423 108.468 159.541 108.844 159.541C109.386 159.541 109.769 159.314 109.993 158.861H111.079C110.932 159.309 110.664 159.677 110.275 159.965C109.893 160.248 109.416 160.389 108.844 160.389C108.379 160.389 107.961 160.286 107.59 160.08C107.225 159.868 106.937 159.574 106.725 159.197C106.518 158.814 106.415 158.372 106.415 157.872C106.415 157.371 106.516 156.932 106.716 156.556C106.922 156.173 107.207 155.878 107.573 155.672C107.944 155.466 108.367 155.363 108.844 155.363C109.304 155.363 109.713 155.463 110.072 155.664C110.431 155.864 110.711 156.146 110.911 156.511C111.112 156.871 111.212 157.286 111.212 157.757ZM110.161 157.439C110.155 157.068 110.022 156.771 109.763 156.547C109.504 156.323 109.183 156.211 108.8 156.211C108.453 156.211 108.156 156.323 107.908 156.547C107.661 156.765 107.514 157.062 107.467 157.439H110.161ZM114.161 157.872C114.161 157.371 114.262 156.932 114.462 156.556C114.668 156.173 114.95 155.878 115.31 155.672C115.669 155.466 116.081 155.363 116.546 155.363C117.135 155.363 117.621 155.505 118.004 155.787C118.392 156.064 118.654 156.461 118.79 156.98H117.703C117.615 156.738 117.474 156.55 117.279 156.414C117.085 156.279 116.841 156.211 116.546 156.211C116.134 156.211 115.804 156.358 115.557 156.653C115.316 156.941 115.195 157.348 115.195 157.872C115.195 158.396 115.316 158.805 115.557 159.099C115.804 159.394 116.134 159.541 116.546 159.541C117.129 159.541 117.515 159.285 117.703 158.773H118.79C118.648 159.267 118.383 159.662 117.995 159.956C117.606 160.245 117.123 160.389 116.546 160.389C116.081 160.389 115.669 160.286 115.31 160.08C114.95 159.868 114.668 159.574 114.462 159.197C114.262 158.814 114.161 158.372 114.161 157.872ZM122.311 155.363C122.682 155.363 123.011 155.443 123.3 155.602C123.594 155.761 123.824 155.996 123.989 156.308C124.16 156.62 124.245 156.997 124.245 157.439V160.31H123.247V157.589C123.247 157.153 123.138 156.821 122.92 156.591C122.702 156.355 122.405 156.238 122.028 156.238C121.651 156.238 121.351 156.355 121.127 156.591C120.909 156.821 120.8 157.153 120.8 157.589V160.31H119.793V153.773H120.8V156.008C120.971 155.802 121.186 155.643 121.445 155.531C121.71 155.419 121.999 155.363 122.311 155.363ZM129.99 157.757C129.99 157.939 129.978 158.104 129.955 158.252H126.236C126.266 158.64 126.41 158.952 126.669 159.188C126.928 159.423 127.246 159.541 127.623 159.541C128.165 159.541 128.547 159.314 128.771 158.861H129.858C129.71 159.309 129.442 159.677 129.054 159.965C128.671 160.248 128.194 160.389 127.623 160.389C127.158 160.389 126.74 160.286 126.369 160.08C126.003 159.868 125.715 159.574 125.503 159.197C125.297 158.814 125.194 158.372 125.194 157.872C125.194 157.371 125.294 156.932 125.494 156.556C125.7 156.173 125.986 155.878 126.351 155.672C126.722 155.466 127.146 155.363 127.623 155.363C128.082 155.363 128.491 155.463 128.851 155.664C129.21 155.864 129.49 156.146 129.69 156.511C129.89 156.871 129.99 157.286 129.99 157.757ZM128.939 157.439C128.933 157.068 128.801 156.771 128.541 156.547C128.282 156.323 127.961 156.211 127.579 156.211C127.231 156.211 126.934 156.323 126.687 156.547C126.439 156.765 126.292 157.062 126.245 157.439H128.939ZM130.645 157.872C130.645 157.371 130.745 156.932 130.946 156.556C131.152 156.173 131.434 155.878 131.794 155.672C132.153 155.466 132.565 155.363 133.03 155.363C133.619 155.363 134.105 155.505 134.488 155.787C134.876 156.064 135.138 156.461 135.274 156.98H134.187C134.099 156.738 133.958 156.55 133.763 156.414C133.569 156.279 133.325 156.211 133.03 156.211C132.618 156.211 132.288 156.358 132.041 156.653C131.799 156.941 131.679 157.348 131.679 157.872C131.679 158.396 131.799 158.805 132.041 159.099C132.288 159.394 132.618 159.541 133.03 159.541C133.613 159.541 133.999 159.285 134.187 158.773H135.274C135.132 159.267 134.867 159.662 134.479 159.956C134.09 160.245 133.607 160.389 133.03 160.389C132.565 160.389 132.153 160.286 131.794 160.08C131.434 159.868 131.152 159.574 130.946 159.197C130.745 158.814 130.645 158.372 130.645 157.872ZM138.203 157.881L140.446 160.31H139.086L137.284 158.216V160.31H136.277V153.773H137.284V157.571L139.051 155.443H140.446L138.203 157.881ZM145.629 157.757C145.629 157.939 145.617 158.104 145.593 158.252H141.875C141.904 158.64 142.048 158.952 142.307 159.188C142.567 159.423 142.885 159.541 143.261 159.541C143.803 159.541 144.186 159.314 144.41 158.861H145.496C145.349 159.309 145.081 159.677 144.692 159.965C144.31 160.248 143.833 160.389 143.261 160.389C142.796 160.389 142.378 160.286 142.007 160.08C141.642 159.868 141.354 159.574 141.142 159.197C140.935 158.814 140.832 158.372 140.832 157.872C140.832 157.371 140.932 156.932 141.133 156.556C141.339 156.173 141.624 155.878 141.989 155.672C142.36 155.466 142.784 155.363 143.261 155.363C143.721 155.363 144.13 155.463 144.489 155.664C144.848 155.864 145.128 156.146 145.328 156.511C145.528 156.871 145.629 157.286 145.629 157.757ZM144.577 157.439C144.572 157.068 144.439 156.771 144.18 156.547C143.921 156.323 143.6 156.211 143.217 156.211C142.87 156.211 142.572 156.323 142.325 156.547C142.078 156.765 141.931 157.062 141.883 157.439H144.577ZM146.284 157.854C146.284 157.365 146.384 156.932 146.584 156.556C146.79 156.179 147.067 155.887 147.414 155.681C147.768 155.469 148.159 155.363 148.589 155.363C148.907 155.363 149.219 155.434 149.526 155.575C149.838 155.711 150.085 155.893 150.267 156.123V153.773H151.283V160.31H150.267V159.576C150.103 159.812 149.873 160.006 149.579 160.159C149.29 160.313 148.957 160.389 148.58 160.389C148.156 160.389 147.768 160.283 147.414 160.071C147.067 159.853 146.79 159.553 146.584 159.17C146.384 158.781 146.284 158.343 146.284 157.854ZM150.267 157.872C150.267 157.536 150.197 157.245 150.055 156.997C149.92 156.75 149.74 156.562 149.517 156.432C149.293 156.302 149.052 156.238 148.792 156.238C148.533 156.238 148.292 156.302 148.068 156.432C147.844 156.556 147.662 156.741 147.52 156.988C147.385 157.23 147.317 157.518 147.317 157.854C147.317 158.19 147.385 158.484 147.52 158.737C147.662 158.991 147.844 159.185 148.068 159.32C148.298 159.45 148.539 159.515 148.792 159.515C149.052 159.515 149.293 159.45 149.517 159.32C149.74 159.191 149.92 159.002 150.055 158.755C150.197 158.502 150.267 158.207 150.267 157.872ZM97.1393 169.264V171.958C97.1393 172.141 97.1805 172.273 97.263 172.356C97.3513 172.432 97.4985 172.47 97.7046 172.47H98.3229V173.31H97.5279C97.0745 173.31 96.7271 173.204 96.4857 172.992C96.2442 172.78 96.1235 172.435 96.1235 171.958V169.264H95.5494V168.443H96.1235V167.233H97.1393V168.443H98.3229V169.264H97.1393ZM101.768 168.363C102.139 168.363 102.469 168.443 102.758 168.602C103.052 168.761 103.282 168.996 103.447 169.308C103.617 169.62 103.703 169.997 103.703 170.439V173.31H102.705V170.589C102.705 170.153 102.596 169.821 102.378 169.591C102.16 169.355 101.863 169.238 101.486 169.238C101.109 169.238 100.808 169.355 100.585 169.591C100.367 169.821 100.258 170.153 100.258 170.589V173.31H99.251V166.773H100.258V169.008C100.429 168.802 100.644 168.643 100.903 168.531C101.168 168.419 101.456 168.363 101.768 168.363ZM109.448 170.757C109.448 170.939 109.436 171.104 109.412 171.252H105.694C105.723 171.64 105.867 171.952 106.127 172.188C106.386 172.423 106.704 172.541 107.08 172.541C107.622 172.541 108.005 172.314 108.229 171.861H109.315C109.168 172.309 108.9 172.677 108.511 172.965C108.129 173.248 107.652 173.389 107.08 173.389C106.615 173.389 106.197 173.286 105.826 173.08C105.461 172.868 105.173 172.574 104.961 172.197C104.755 171.814 104.651 171.372 104.651 170.872C104.651 170.371 104.752 169.932 104.952 169.556C105.158 169.173 105.443 168.878 105.809 168.672C106.18 168.466 106.604 168.363 107.08 168.363C107.54 168.363 107.949 168.463 108.308 168.664C108.667 168.864 108.947 169.146 109.147 169.511C109.348 169.871 109.448 170.286 109.448 170.757ZM108.397 170.439C108.391 170.068 108.258 169.771 107.999 169.547C107.74 169.323 107.419 169.211 107.036 169.211C106.689 169.211 106.392 169.323 106.144 169.547C105.897 169.765 105.75 170.062 105.703 170.439H108.397ZM117.194 170.757C117.194 170.939 117.182 171.104 117.158 171.252H113.44C113.469 171.64 113.613 171.952 113.873 172.188C114.132 172.423 114.45 172.541 114.826 172.541C115.368 172.541 115.751 172.314 115.975 171.861H117.061C116.914 172.309 116.646 172.677 116.257 172.965C115.875 173.248 115.398 173.389 114.826 173.389C114.361 173.389 113.943 173.286 113.572 173.08C113.207 172.868 112.919 172.574 112.707 172.197C112.5 171.814 112.397 171.372 112.397 170.872C112.397 170.371 112.498 169.932 112.698 169.556C112.904 169.173 113.189 168.878 113.555 168.672C113.926 168.466 114.349 168.363 114.826 168.363C115.286 168.363 115.695 168.463 116.054 168.664C116.413 168.864 116.693 169.146 116.893 169.511C117.094 169.871 117.194 170.286 117.194 170.757ZM116.143 170.439C116.137 170.068 116.004 169.771 115.745 169.547C115.486 169.323 115.165 169.211 114.782 169.211C114.435 169.211 114.137 169.323 113.89 169.547C113.643 169.765 113.496 170.062 113.449 170.439H116.143ZM124.076 168.363C124.459 168.363 124.8 168.443 125.101 168.602C125.407 168.761 125.645 168.996 125.816 169.308C125.993 169.62 126.081 169.997 126.081 170.439V173.31H125.083V170.589C125.083 170.153 124.974 169.821 124.756 169.591C124.538 169.355 124.241 169.238 123.864 169.238C123.487 169.238 123.187 169.355 122.963 169.591C122.745 169.821 122.636 170.153 122.636 170.589V173.31H121.638V170.589C121.638 170.153 121.529 169.821 121.311 169.591C121.094 169.355 120.796 169.238 120.419 169.238C120.042 169.238 119.742 169.355 119.518 169.591C119.3 169.821 119.192 170.153 119.192 170.589V173.31H118.185V168.443H119.192V168.999C119.356 168.799 119.565 168.643 119.819 168.531C120.072 168.419 120.343 168.363 120.631 168.363C121.02 168.363 121.367 168.446 121.674 168.611C121.98 168.775 122.215 169.014 122.38 169.326C122.527 169.032 122.757 168.799 123.069 168.628C123.381 168.452 123.717 168.363 124.076 168.363ZM127.027 170.854C127.027 170.365 127.127 169.932 127.327 169.556C127.533 169.179 127.81 168.887 128.157 168.681C128.511 168.469 128.899 168.363 129.323 168.363C129.706 168.363 130.039 168.44 130.321 168.593C130.61 168.74 130.84 168.926 131.01 169.149V168.443H132.026V173.31H131.01V172.585C130.84 172.815 130.607 173.006 130.313 173.159C130.018 173.313 129.683 173.389 129.306 173.389C128.888 173.389 128.505 173.283 128.157 173.071C127.81 172.853 127.533 172.553 127.327 172.17C127.127 171.781 127.027 171.343 127.027 170.854ZM131.01 170.872C131.01 170.536 130.94 170.245 130.798 169.997C130.663 169.75 130.483 169.562 130.26 169.432C130.036 169.302 129.794 169.238 129.535 169.238C129.276 169.238 129.035 169.302 128.811 169.432C128.587 169.556 128.405 169.741 128.263 169.988C128.128 170.23 128.06 170.518 128.06 170.854C128.06 171.19 128.128 171.484 128.263 171.737C128.405 171.991 128.587 172.185 128.811 172.32C129.041 172.45 129.282 172.515 129.535 172.515C129.794 172.515 130.036 172.45 130.26 172.32C130.483 172.191 130.663 172.002 130.798 171.755C130.94 171.502 131.01 171.207 131.01 170.872ZM133.861 167.798C133.678 167.798 133.525 167.736 133.402 167.612C133.278 167.489 133.216 167.336 133.216 167.153C133.216 166.971 133.278 166.817 133.402 166.694C133.525 166.57 133.678 166.508 133.861 166.508C134.038 166.508 134.188 166.57 134.312 166.694C134.435 166.817 134.497 166.971 134.497 167.153C134.497 167.336 134.435 167.489 134.312 167.612C134.188 167.736 134.038 167.798 133.861 167.798ZM134.356 168.443V173.31H133.349V168.443H134.356ZM136.685 166.773V173.31H135.678V166.773H136.685Z" fill="#615C64"/>
</g>
<g filter="url(#filter1_dd_628_223)">
<rect x="156.309" y="150.31" width="231.251" height="132.989" rx="3.94625" fill="url(#paint1_radial_628_223)"/>
<rect x="156.309" y="150.31" width="231.251" height="132.989" rx="3.94625" fill="white"/>
<path d="M178.792 264.108V263.735H179.798V267.979H179.378V264.108H178.792ZM180.704 264.819C180.731 264.459 180.87 264.177 181.118 263.972C181.371 263.763 181.696 263.658 182.095 263.658C182.359 263.658 182.586 263.706 182.776 263.8C182.965 263.895 183.107 264.025 183.202 264.191C183.3 264.353 183.35 264.536 183.35 264.742C183.35 264.99 183.277 265.205 183.131 265.387C182.985 265.568 182.778 265.681 182.509 265.724V265.754C182.789 265.809 183.012 265.931 183.178 266.121C183.344 266.306 183.427 266.551 183.427 266.855C183.427 267.194 183.312 267.472 183.083 267.689C182.858 267.903 182.531 268.009 182.101 268.009C181.69 268.009 181.353 267.903 181.089 267.689C180.824 267.472 180.672 267.167 180.633 266.772H181.035C181.071 267.036 181.181 267.251 181.367 267.417C181.552 267.579 181.797 267.66 182.101 267.66C182.401 267.66 182.63 267.581 182.787 267.423C182.949 267.265 183.03 267.064 183.03 266.819C183.03 266.219 182.598 265.92 181.734 265.92H181.604V265.57H181.74C182.545 265.57 182.947 265.308 182.947 264.783C182.947 264.554 182.872 264.371 182.722 264.233C182.572 264.09 182.359 264.019 182.083 264.019C181.815 264.019 181.592 264.09 181.414 264.233C181.241 264.371 181.138 264.566 181.106 264.819H180.704ZM187.152 268.021C186.88 268.021 186.639 267.974 186.43 267.879C186.225 267.784 186.063 267.652 185.945 267.482C185.826 267.313 185.763 267.123 185.755 266.914H186.193C186.213 267.115 186.302 267.293 186.46 267.447C186.618 267.597 186.848 267.672 187.152 267.672C187.432 267.672 187.653 267.601 187.815 267.459C187.981 267.313 188.064 267.129 188.064 266.908C188.064 266.731 188.018 266.588 187.928 266.482C187.837 266.371 187.724 266.29 187.59 266.239C187.456 266.184 187.271 266.125 187.034 266.062C186.758 265.987 186.539 265.914 186.377 265.843C186.215 265.772 186.077 265.661 185.962 265.511C185.848 265.361 185.791 265.158 185.791 264.901C185.791 264.688 185.846 264.499 185.957 264.333C186.067 264.163 186.223 264.031 186.424 263.937C186.625 263.842 186.856 263.794 187.117 263.794C187.5 263.794 187.807 263.889 188.04 264.079C188.277 264.264 188.413 264.505 188.449 264.801H187.999C187.971 264.631 187.878 264.481 187.721 264.351C187.563 264.217 187.35 264.15 187.081 264.15C186.833 264.15 186.625 264.217 186.46 264.351C186.294 264.481 186.211 264.661 186.211 264.89C186.211 265.063 186.256 265.203 186.347 265.31C186.438 265.416 186.55 265.497 186.685 265.553C186.823 265.608 187.008 265.667 187.241 265.73C187.509 265.805 187.726 265.88 187.892 265.955C188.058 266.026 188.198 266.137 188.312 266.287C188.427 266.437 188.484 266.638 188.484 266.89C188.484 267.084 188.433 267.267 188.33 267.441C188.228 267.614 188.076 267.755 187.874 267.861C187.673 267.968 187.432 268.021 187.152 268.021ZM192.209 266.198C192.209 266.34 192.205 266.448 192.197 266.523H189.516C189.527 266.768 189.587 266.977 189.693 267.151C189.8 267.324 189.94 267.457 190.114 267.547C190.287 267.634 190.477 267.678 190.682 267.678C190.95 267.678 191.175 267.612 191.357 267.482C191.542 267.352 191.664 267.176 191.724 266.955H192.162C192.083 267.271 191.913 267.53 191.653 267.731C191.396 267.928 191.072 268.027 190.682 268.027C190.378 268.027 190.106 267.96 189.865 267.826C189.624 267.687 189.435 267.494 189.297 267.245C189.162 266.993 189.095 266.699 189.095 266.364C189.095 266.028 189.162 265.734 189.297 265.482C189.431 265.229 189.618 265.036 189.859 264.901C190.1 264.767 190.374 264.7 190.682 264.7C190.99 264.7 191.258 264.767 191.487 264.901C191.72 265.036 191.897 265.217 192.02 265.446C192.146 265.671 192.209 265.922 192.209 266.198ZM191.789 266.186C191.793 265.945 191.743 265.74 191.641 265.57C191.542 265.401 191.406 265.272 191.232 265.186C191.059 265.099 190.869 265.055 190.664 265.055C190.356 265.055 190.094 265.154 189.877 265.351C189.66 265.549 189.539 265.827 189.516 266.186H191.789ZM193.376 265.458C193.478 265.241 193.64 265.061 193.861 264.919C194.086 264.773 194.352 264.7 194.66 264.7C194.952 264.7 195.214 264.769 195.447 264.907C195.684 265.042 195.868 265.235 195.998 265.487C196.132 265.736 196.199 266.026 196.199 266.358C196.199 266.689 196.132 266.981 195.998 267.234C195.868 267.486 195.684 267.682 195.447 267.82C195.214 267.958 194.952 268.027 194.66 268.027C194.356 268.027 194.092 267.956 193.867 267.814C193.642 267.668 193.478 267.486 193.376 267.269V269.507H192.967V264.748H193.376V265.458ZM195.779 266.358C195.779 266.089 195.725 265.858 195.619 265.665C195.516 265.468 195.374 265.318 195.193 265.215C195.011 265.113 194.806 265.061 194.577 265.061C194.356 265.061 194.153 265.115 193.967 265.221C193.786 265.328 193.642 265.48 193.535 265.677C193.429 265.874 193.376 266.103 193.376 266.364C193.376 266.624 193.429 266.853 193.535 267.05C193.642 267.247 193.786 267.399 193.967 267.506C194.153 267.612 194.356 267.666 194.577 267.666C194.806 267.666 195.011 267.614 195.193 267.512C195.374 267.405 195.516 267.253 195.619 267.056C195.725 266.855 195.779 266.622 195.779 266.358Z" fill="#776181"/>
<path d="M213.928 267.654C214.654 267.109 215.215 266.622 215.609 266.192C216.008 265.758 216.207 265.334 216.207 264.919C216.207 264.647 216.138 264.43 216 264.268C215.866 264.102 215.645 264.019 215.337 264.019C215.037 264.019 214.804 264.114 214.639 264.304C214.477 264.489 214.386 264.738 214.366 265.049H213.964C213.987 264.611 214.122 264.272 214.366 264.031C214.615 263.787 214.938 263.664 215.337 263.664C215.72 263.664 216.03 263.773 216.266 263.99C216.503 264.203 216.622 264.507 216.622 264.901C216.622 265.379 216.422 265.843 216.024 266.292C215.629 266.738 215.142 267.174 214.562 267.601H216.752V267.95H213.928V267.654ZM217.197 264.108V263.735H218.204V267.979H217.783V264.108H217.197ZM222.095 268.021C221.823 268.021 221.582 267.974 221.373 267.879C221.168 267.784 221.006 267.652 220.887 267.482C220.769 267.313 220.706 267.123 220.698 266.914H221.136C221.156 267.115 221.245 267.293 221.402 267.447C221.56 267.597 221.791 267.672 222.095 267.672C222.375 267.672 222.596 267.601 222.758 267.459C222.924 267.313 223.007 267.129 223.007 266.908C223.007 266.731 222.961 266.588 222.87 266.482C222.78 266.371 222.667 266.29 222.533 266.239C222.399 266.184 222.213 266.125 221.977 266.062C221.7 265.987 221.481 265.914 221.32 265.843C221.158 265.772 221.02 265.661 220.905 265.511C220.791 265.361 220.734 265.158 220.734 264.901C220.734 264.688 220.789 264.499 220.899 264.333C221.01 264.163 221.166 264.031 221.367 263.937C221.568 263.842 221.799 263.794 222.06 263.794C222.442 263.794 222.75 263.889 222.983 264.079C223.22 264.264 223.356 264.505 223.391 264.801H222.942C222.914 264.631 222.821 264.481 222.663 264.351C222.505 264.217 222.292 264.15 222.024 264.15C221.775 264.15 221.568 264.217 221.402 264.351C221.237 264.481 221.154 264.661 221.154 264.89C221.154 265.063 221.199 265.203 221.29 265.31C221.381 265.416 221.493 265.497 221.627 265.553C221.766 265.608 221.951 265.667 222.184 265.73C222.452 265.805 222.669 265.88 222.835 265.955C223.001 266.026 223.141 266.137 223.255 266.287C223.37 266.437 223.427 266.638 223.427 266.89C223.427 267.084 223.376 267.267 223.273 267.441C223.17 267.614 223.018 267.755 222.817 267.861C222.616 267.968 222.375 268.021 222.095 268.021ZM227.152 266.198C227.152 266.34 227.148 266.448 227.14 266.523H224.458C224.47 266.768 224.529 266.977 224.636 267.151C224.743 267.324 224.883 267.457 225.056 267.547C225.23 267.634 225.419 267.678 225.625 267.678C225.893 267.678 226.118 267.612 226.299 267.482C226.485 267.352 226.607 267.176 226.666 266.955H227.104C227.025 267.271 226.856 267.53 226.595 267.731C226.339 267.928 226.015 268.027 225.625 268.027C225.321 268.027 225.048 267.96 224.808 267.826C224.567 267.687 224.378 267.494 224.239 267.245C224.105 266.993 224.038 266.699 224.038 266.364C224.038 266.028 224.105 265.734 224.239 265.482C224.374 265.229 224.561 265.036 224.802 264.901C225.042 264.767 225.317 264.7 225.625 264.7C225.932 264.7 226.201 264.767 226.43 264.901C226.662 265.036 226.84 265.217 226.962 265.446C227.089 265.671 227.152 265.922 227.152 266.198ZM226.731 266.186C226.735 265.945 226.686 265.74 226.584 265.57C226.485 265.401 226.349 265.272 226.175 265.186C226.001 265.099 225.812 265.055 225.607 265.055C225.299 265.055 225.037 265.154 224.82 265.351C224.602 265.549 224.482 265.827 224.458 266.186H226.731ZM228.318 265.458C228.421 265.241 228.583 265.061 228.804 264.919C229.029 264.773 229.295 264.7 229.603 264.7C229.895 264.7 230.157 264.769 230.39 264.907C230.627 265.042 230.81 265.235 230.941 265.487C231.075 265.736 231.142 266.026 231.142 266.358C231.142 266.689 231.075 266.981 230.941 267.234C230.81 267.486 230.627 267.682 230.39 267.82C230.157 267.958 229.895 268.027 229.603 268.027C229.299 268.027 229.035 267.956 228.81 267.814C228.585 267.668 228.421 267.486 228.318 267.269V269.507H227.91V264.748H228.318V265.458ZM230.722 266.358C230.722 266.089 230.668 265.858 230.562 265.665C230.459 265.468 230.317 265.318 230.136 265.215C229.954 265.113 229.749 265.061 229.52 265.061C229.299 265.061 229.096 265.115 228.91 265.221C228.729 265.328 228.585 265.48 228.478 265.677C228.372 265.874 228.318 266.103 228.318 266.364C228.318 266.624 228.372 266.853 228.478 267.05C228.585 267.247 228.729 267.399 228.91 267.506C229.096 267.612 229.299 267.666 229.52 267.666C229.749 267.666 229.954 267.614 230.136 267.512C230.317 267.405 230.459 267.253 230.562 267.056C230.668 266.855 230.722 266.622 230.722 266.358Z" fill="#776181"/>
<path d="M248.946 267.654C249.672 267.109 250.233 266.622 250.627 266.192C251.026 265.758 251.225 265.334 251.225 264.919C251.225 264.647 251.156 264.43 251.018 264.268C250.884 264.102 250.663 264.019 250.355 264.019C250.055 264.019 249.822 264.114 249.657 264.304C249.495 264.489 249.404 264.738 249.384 265.049H248.982C249.005 264.611 249.14 264.272 249.384 264.031C249.633 263.787 249.956 263.664 250.355 263.664C250.738 263.664 251.048 263.773 251.284 263.99C251.521 264.203 251.639 264.507 251.639 264.901C251.639 265.379 251.44 265.843 251.042 266.292C250.647 266.738 250.16 267.174 249.58 267.601H251.77V267.95H248.946V267.654ZM253.239 265.777C252.995 265.699 252.807 265.574 252.677 265.405C252.551 265.235 252.488 265.03 252.488 264.789C252.488 264.576 252.541 264.386 252.647 264.221C252.758 264.051 252.918 263.919 253.127 263.824C253.336 263.725 253.587 263.676 253.879 263.676C254.171 263.676 254.421 263.725 254.63 263.824C254.84 263.919 254.997 264.051 255.104 264.221C255.214 264.386 255.27 264.576 255.27 264.789C255.27 265.026 255.205 265.231 255.074 265.405C254.948 265.578 254.763 265.703 254.518 265.777C254.786 265.845 254.997 265.973 255.151 266.162C255.305 266.352 255.382 266.583 255.382 266.855C255.382 267.107 255.319 267.328 255.193 267.518C255.07 267.703 254.895 267.847 254.666 267.95C254.441 268.052 254.179 268.104 253.879 268.104C253.579 268.104 253.314 268.052 253.085 267.95C252.86 267.847 252.685 267.703 252.559 267.518C252.436 267.328 252.375 267.107 252.375 266.855C252.375 266.583 252.452 266.352 252.606 266.162C252.76 265.973 252.971 265.845 253.239 265.777ZM254.867 264.836C254.867 264.576 254.778 264.375 254.601 264.233C254.423 264.09 254.182 264.019 253.879 264.019C253.575 264.019 253.334 264.09 253.156 264.233C252.979 264.371 252.89 264.572 252.89 264.836C252.89 265.081 252.981 265.276 253.162 265.422C253.344 265.568 253.583 265.641 253.879 265.641C254.175 265.641 254.413 265.568 254.595 265.422C254.776 265.276 254.867 265.081 254.867 264.836ZM253.879 265.961C253.555 265.961 253.291 266.034 253.085 266.18C252.88 266.326 252.778 266.547 252.778 266.843C252.778 267.127 252.876 267.35 253.074 267.512C253.271 267.674 253.539 267.755 253.879 267.755C254.214 267.755 254.48 267.674 254.678 267.512C254.875 267.346 254.974 267.123 254.974 266.843C254.974 266.551 254.871 266.332 254.666 266.186C254.465 266.036 254.202 265.961 253.879 265.961ZM259.682 268.021C259.299 268.021 258.952 267.932 258.64 267.755C258.329 267.573 258.082 267.322 257.9 267.003C257.723 266.679 257.634 266.314 257.634 265.908C257.634 265.501 257.723 265.138 257.9 264.819C258.082 264.495 258.329 264.244 258.64 264.067C258.952 263.885 259.299 263.794 259.682 263.794C260.069 263.794 260.418 263.885 260.73 264.067C261.042 264.244 261.286 264.495 261.464 264.819C261.641 265.138 261.73 265.501 261.73 265.908C261.73 266.314 261.641 266.679 261.464 267.003C261.286 267.322 261.042 267.573 260.73 267.755C260.418 267.932 260.069 268.021 259.682 268.021ZM259.682 267.66C259.99 267.66 260.266 267.589 260.511 267.447C260.756 267.305 260.949 267.101 261.091 266.837C261.233 266.569 261.304 266.259 261.304 265.908C261.304 265.556 261.233 265.249 261.091 264.984C260.949 264.72 260.756 264.517 260.511 264.375C260.266 264.233 259.99 264.161 259.682 264.161C259.374 264.161 259.098 264.233 258.853 264.375C258.609 264.517 258.415 264.72 258.273 264.984C258.131 265.249 258.06 265.556 258.06 265.908C258.06 266.259 258.131 266.569 258.273 266.837C258.415 267.101 258.609 267.305 258.853 267.447C259.098 267.589 259.374 267.66 259.682 267.66ZM262.299 266.364C262.299 266.028 262.366 265.736 262.5 265.487C262.634 265.235 262.82 265.042 263.057 264.907C263.294 264.769 263.564 264.7 263.868 264.7C264.266 264.7 264.594 264.799 264.85 264.996C265.111 265.193 265.278 265.462 265.353 265.801H264.91C264.854 265.568 264.734 265.387 264.548 265.257C264.367 265.122 264.14 265.055 263.868 265.055C263.651 265.055 263.455 265.105 263.282 265.203C263.108 265.302 262.97 265.45 262.867 265.647C262.769 265.841 262.719 266.079 262.719 266.364C262.719 266.648 262.769 266.888 262.867 267.086C262.97 267.283 263.108 267.431 263.282 267.53C263.455 267.628 263.651 267.678 263.868 267.678C264.14 267.678 264.367 267.612 264.548 267.482C264.734 267.348 264.854 267.163 264.91 266.926H265.353C265.278 267.257 265.111 267.524 264.85 267.725C264.59 267.926 264.262 268.027 263.868 268.027C263.564 268.027 263.294 267.96 263.057 267.826C262.82 267.687 262.634 267.494 262.5 267.245C262.366 266.993 262.299 266.699 262.299 266.364ZM266.657 265.097V267.103C266.657 267.301 266.695 267.437 266.77 267.512C266.845 267.587 266.977 267.624 267.166 267.624H267.545V267.979H267.101C266.809 267.979 266.592 267.912 266.45 267.778C266.308 267.64 266.237 267.415 266.237 267.103V265.097H265.787V264.748H266.237V263.937H266.657V264.748H267.545V265.097H266.657Z" fill="#776181"/>
<path d="M285.498 264.108V263.735H286.504V267.979H286.084V264.108H285.498ZM287.344 267.654C288.07 267.109 288.631 266.622 289.025 266.192C289.424 265.758 289.623 265.334 289.623 264.919C289.623 264.647 289.554 264.43 289.416 264.268C289.282 264.102 289.061 264.019 288.753 264.019C288.453 264.019 288.22 264.114 288.055 264.304C287.893 264.489 287.802 264.738 287.782 265.049H287.38C287.404 264.611 287.538 264.272 287.782 264.031C288.031 263.787 288.355 263.664 288.753 263.664C289.136 263.664 289.446 263.773 289.683 263.99C289.919 264.203 290.038 264.507 290.038 264.901C290.038 265.379 289.838 265.843 289.44 266.292C289.045 266.738 288.558 267.174 287.978 267.601H290.168V267.95H287.344V267.654ZM294.387 268.021C294.004 268.021 293.657 267.932 293.345 267.755C293.033 267.573 292.786 267.322 292.605 267.003C292.427 266.679 292.338 266.314 292.338 265.908C292.338 265.501 292.427 265.138 292.605 264.819C292.786 264.495 293.033 264.244 293.345 264.067C293.657 263.885 294.004 263.794 294.387 263.794C294.773 263.794 295.123 263.885 295.434 264.067C295.746 264.244 295.991 264.495 296.168 264.819C296.346 265.138 296.435 265.501 296.435 265.908C296.435 266.314 296.346 266.679 296.168 267.003C295.991 267.322 295.746 267.573 295.434 267.755C295.123 267.932 294.773 268.021 294.387 268.021ZM294.387 267.66C294.694 267.66 294.971 267.589 295.215 267.447C295.46 267.305 295.653 267.101 295.795 266.837C295.937 266.569 296.008 266.259 296.008 265.908C296.008 265.556 295.937 265.249 295.795 264.984C295.653 264.72 295.46 264.517 295.215 264.375C294.971 264.233 294.694 264.161 294.387 264.161C294.079 264.161 293.803 264.233 293.558 264.375C293.313 264.517 293.12 264.72 292.978 264.984C292.836 265.249 292.765 265.556 292.765 265.908C292.765 266.259 292.836 266.569 292.978 266.837C293.12 267.101 293.313 267.305 293.558 267.447C293.803 267.589 294.079 267.66 294.387 267.66ZM297.003 266.364C297.003 266.028 297.071 265.736 297.205 265.487C297.339 265.235 297.524 265.042 297.761 264.907C297.998 264.769 298.268 264.7 298.572 264.7C298.971 264.7 299.298 264.799 299.555 264.996C299.815 265.193 299.983 265.462 300.058 265.801H299.614C299.559 265.568 299.438 265.387 299.253 265.257C299.071 265.122 298.844 265.055 298.572 265.055C298.355 265.055 298.16 265.105 297.986 265.203C297.812 265.302 297.674 265.45 297.572 265.647C297.473 265.841 297.424 266.079 297.424 266.364C297.424 266.648 297.473 266.888 297.572 267.086C297.674 267.283 297.812 267.431 297.986 267.53C298.16 267.628 298.355 267.678 298.572 267.678C298.844 267.678 299.071 267.612 299.253 267.482C299.438 267.348 299.559 267.163 299.614 266.926H300.058C299.983 267.257 299.815 267.524 299.555 267.725C299.294 267.926 298.967 268.027 298.572 268.027C298.268 268.027 297.998 267.96 297.761 267.826C297.524 267.687 297.339 267.494 297.205 267.245C297.071 266.993 297.003 266.699 297.003 266.364ZM301.362 265.097V267.103C301.362 267.301 301.399 267.437 301.474 267.512C301.549 267.587 301.681 267.624 301.871 267.624H302.25V267.979H301.806C301.514 267.979 301.297 267.912 301.155 267.778C301.013 267.64 300.941 267.415 300.941 267.103V265.097H300.492V264.748H300.941V263.937H301.362V264.748H302.25V265.097H301.362Z" fill="#776181"/>
<path d="M319.69 264.108V263.735H320.696V267.979H320.276V264.108H319.69ZM322.17 266.849C322.213 267.105 322.312 267.303 322.466 267.441C322.62 267.579 322.831 267.648 323.099 267.648C323.47 267.648 323.744 267.504 323.922 267.216C324.103 266.924 324.186 266.442 324.171 265.772C324.096 265.989 323.952 266.16 323.738 266.287C323.529 266.409 323.289 266.47 323.016 266.47C322.602 266.47 322.268 266.346 322.016 266.097C321.767 265.849 321.643 265.503 321.643 265.061C321.643 264.797 321.694 264.558 321.797 264.345C321.899 264.132 322.055 263.964 322.264 263.842C322.474 263.72 322.73 263.658 323.034 263.658C323.594 263.658 323.985 263.842 324.206 264.209C324.427 264.572 324.538 265.095 324.538 265.777C324.538 266.515 324.427 267.07 324.206 267.441C323.989 267.812 323.614 267.997 323.081 267.997C322.691 267.997 322.387 267.893 322.17 267.684C321.953 267.47 321.824 267.192 321.785 266.849H322.17ZM323.081 266.115C323.267 266.115 323.437 266.077 323.59 266.002C323.748 265.923 323.875 265.809 323.969 265.659C324.064 265.509 324.111 265.33 324.111 265.12C324.111 264.797 324.019 264.53 323.833 264.321C323.652 264.112 323.389 264.008 323.046 264.008C322.742 264.008 322.497 264.102 322.312 264.292C322.13 264.481 322.04 264.734 322.04 265.049C322.04 265.381 322.13 265.641 322.312 265.831C322.493 266.02 322.75 266.115 323.081 266.115ZM328.891 268.021C328.508 268.021 328.161 267.932 327.849 267.755C327.537 267.573 327.291 267.322 327.109 267.003C326.931 266.679 326.843 266.314 326.843 265.908C326.843 265.501 326.931 265.138 327.109 264.819C327.291 264.495 327.537 264.244 327.849 264.067C328.161 263.885 328.508 263.794 328.891 263.794C329.277 263.794 329.627 263.885 329.938 264.067C330.25 264.244 330.495 264.495 330.672 264.819C330.85 265.138 330.939 265.501 330.939 265.908C330.939 266.314 330.85 266.679 330.672 267.003C330.495 267.322 330.25 267.573 329.938 267.755C329.627 267.932 329.277 268.021 328.891 268.021ZM328.891 267.66C329.199 267.66 329.475 267.589 329.719 267.447C329.964 267.305 330.157 267.101 330.3 266.837C330.442 266.569 330.513 266.259 330.513 265.908C330.513 265.556 330.442 265.249 330.3 264.984C330.157 264.72 329.964 264.517 329.719 264.375C329.475 264.233 329.199 264.161 328.891 264.161C328.583 264.161 328.307 264.233 328.062 264.375C327.817 264.517 327.624 264.72 327.482 264.984C327.34 265.249 327.269 265.556 327.269 265.908C327.269 266.259 327.34 266.569 327.482 266.837C327.624 267.101 327.817 267.305 328.062 267.447C328.307 267.589 328.583 267.66 328.891 267.66ZM331.508 266.364C331.508 266.028 331.575 265.736 331.709 265.487C331.843 265.235 332.029 265.042 332.265 264.907C332.502 264.769 332.772 264.7 333.076 264.7C333.475 264.7 333.802 264.799 334.059 264.996C334.319 265.193 334.487 265.462 334.562 265.801H334.118C334.063 265.568 333.942 265.387 333.757 265.257C333.575 265.122 333.349 265.055 333.076 265.055C332.859 265.055 332.664 265.105 332.49 265.203C332.317 265.302 332.178 265.45 332.076 265.647C331.977 265.841 331.928 266.079 331.928 266.364C331.928 266.648 331.977 266.888 332.076 267.086C332.178 267.283 332.317 267.431 332.49 267.53C332.664 267.628 332.859 267.678 333.076 267.678C333.349 267.678 333.575 267.612 333.757 267.482C333.942 267.348 334.063 267.163 334.118 266.926H334.562C334.487 267.257 334.319 267.524 334.059 267.725C333.798 267.926 333.471 268.027 333.076 268.027C332.772 268.027 332.502 267.96 332.265 267.826C332.029 267.687 331.843 267.494 331.709 267.245C331.575 266.993 331.508 266.699 331.508 266.364ZM335.866 265.097V267.103C335.866 267.301 335.903 267.437 335.978 267.512C336.053 267.587 336.186 267.624 336.375 267.624H336.754V267.979H336.31C336.018 267.979 335.801 267.912 335.659 267.778C335.517 267.64 335.446 267.415 335.446 267.103V265.097H334.996V264.748H335.446V263.937H335.866V264.748H336.754V265.097H335.866Z" fill="#776181"/>
<path d="M357.419 263.842V264.185H356.27V267.979H355.856V264.185H354.702V263.842H357.419ZM359.488 268.027C359.184 268.027 358.91 267.96 358.665 267.826C358.424 267.687 358.233 267.494 358.091 267.245C357.953 266.993 357.883 266.699 357.883 266.364C357.883 266.028 357.955 265.736 358.097 265.487C358.239 265.235 358.432 265.042 358.677 264.907C358.921 264.769 359.196 264.7 359.499 264.7C359.803 264.7 360.078 264.769 360.322 264.907C360.571 265.042 360.764 265.235 360.902 265.487C361.044 265.736 361.115 266.028 361.115 266.364C361.115 266.695 361.044 266.987 360.902 267.24C360.76 267.492 360.565 267.687 360.316 267.826C360.068 267.96 359.791 268.027 359.488 268.027ZM359.488 267.666C359.701 267.666 359.898 267.618 360.08 267.524C360.261 267.425 360.407 267.279 360.518 267.086C360.632 266.888 360.689 266.648 360.689 266.364C360.689 266.079 360.634 265.841 360.524 265.647C360.413 265.45 360.267 265.304 360.085 265.209C359.904 265.111 359.707 265.061 359.494 265.061C359.28 265.061 359.083 265.111 358.902 265.209C358.72 265.304 358.574 265.45 358.464 265.647C358.357 265.841 358.304 266.079 358.304 266.364C358.304 266.648 358.357 266.888 358.464 267.086C358.574 267.279 358.718 267.425 358.896 267.524C359.077 267.618 359.275 267.666 359.488 267.666ZM361.681 266.358C361.681 266.026 361.748 265.736 361.883 265.487C362.017 265.235 362.2 265.042 362.433 264.907C362.67 264.769 362.936 264.7 363.232 264.7C363.516 264.7 363.773 264.769 364.002 264.907C364.231 265.045 364.398 265.225 364.505 265.446V263.599H364.919V267.979H364.505V267.257C364.406 267.482 364.244 267.668 364.02 267.814C363.795 267.956 363.53 268.027 363.226 268.027C362.93 268.027 362.664 267.958 362.427 267.82C362.194 267.682 362.011 267.486 361.877 267.234C361.746 266.981 361.681 266.689 361.681 266.358ZM364.505 266.364C364.505 266.103 364.452 265.874 364.345 265.677C364.239 265.48 364.093 265.328 363.907 265.221C363.726 265.115 363.524 265.061 363.303 265.061C363.074 265.061 362.869 265.113 362.688 265.215C362.506 265.318 362.362 265.468 362.256 265.665C362.153 265.858 362.102 266.089 362.102 266.358C362.102 266.622 362.153 266.855 362.256 267.056C362.362 267.253 362.506 267.405 362.688 267.512C362.869 267.614 363.074 267.666 363.303 267.666C363.524 267.666 363.726 267.612 363.907 267.506C364.093 267.399 364.239 267.247 364.345 267.05C364.452 266.853 364.505 266.624 364.505 266.364ZM365.676 266.358C365.676 266.026 365.741 265.736 365.871 265.487C366.005 265.235 366.189 265.042 366.422 264.907C366.658 264.769 366.925 264.7 367.221 264.7C367.529 264.7 367.793 264.771 368.014 264.913C368.239 265.055 368.401 265.237 368.499 265.458V264.748H368.914V267.979H368.499V267.263C368.397 267.484 368.233 267.668 368.008 267.814C367.787 267.956 367.523 268.027 367.215 268.027C366.923 268.027 366.658 267.958 366.422 267.82C366.189 267.682 366.005 267.486 365.871 267.234C365.741 266.981 365.676 266.689 365.676 266.358ZM368.499 266.364C368.499 266.103 368.446 265.874 368.34 265.677C368.233 265.48 368.087 265.328 367.901 265.221C367.72 265.115 367.519 265.061 367.298 265.061C367.069 265.061 366.864 265.113 366.682 265.215C366.501 265.318 366.357 265.468 366.25 265.665C366.147 265.858 366.096 266.089 366.096 266.358C366.096 266.622 366.147 266.855 366.25 267.056C366.357 267.253 366.501 267.405 366.682 267.512C366.864 267.614 367.069 267.666 367.298 267.666C367.519 267.666 367.72 267.612 367.901 267.506C368.087 267.399 368.233 267.247 368.34 267.05C368.446 266.853 368.499 266.624 368.499 266.364ZM372.523 264.748L370.605 269.501H370.173L370.801 267.962L369.475 264.748H369.931L371.032 267.506L372.097 264.748H372.523Z" fill="#776181"/>
<path d="M186.454 247.352L221.555 229.596L243.854 224.227L258.72 209.361L289.691 238.267L328.508 216.794L361.544 227.531" stroke="#CF8CF8" stroke-width="0.825895" stroke-linecap="round"/>
<g opacity="0.7">
<line x1="178.824" y1="191.389" x2="365.058" y2="191.389" stroke="#240631" stroke-opacity="0.1" stroke-width="0.431098" stroke-linecap="round" stroke-dasharray="2.16 2.16"/>
<line x1="178.824" y1="210.357" x2="365.058" y2="210.357" stroke="#240631" stroke-opacity="0.1" stroke-width="0.431098" stroke-linecap="round" stroke-dasharray="2.16 2.16"/>
<line x1="178.824" y1="229.325" x2="365.058" y2="229.325" stroke="#240631" stroke-opacity="0.1" stroke-width="0.431098" stroke-linecap="round" stroke-dasharray="2.16 2.16"/>
<line x1="178.824" y1="248.294" x2="365.058" y2="248.294" stroke="#240631" stroke-opacity="0.1" stroke-width="0.431098" stroke-linecap="round" stroke-dasharray="2.16 2.16"/>
</g>
<path d="M179.74 173.524H178.751L175.776 169.023V173.524H174.788V167.488H175.776L178.751 171.98V167.488H179.74V173.524ZM183.111 173.602C182.66 173.602 182.252 173.501 181.888 173.298C181.524 173.09 181.237 172.801 181.029 172.431C180.821 172.055 180.717 171.622 180.717 171.13C180.717 170.645 180.824 170.214 181.038 169.838C181.252 169.462 181.544 169.173 181.914 168.971C182.284 168.769 182.697 168.667 183.154 168.667C183.611 168.667 184.024 168.769 184.394 168.971C184.764 169.173 185.056 169.462 185.27 169.838C185.484 170.214 185.591 170.645 185.591 171.13C185.591 171.616 185.481 172.047 185.261 172.423C185.042 172.798 184.741 173.09 184.359 173.298C183.984 173.501 183.567 173.602 183.111 173.602ZM183.111 172.743C183.365 172.743 183.602 172.683 183.822 172.561C184.047 172.44 184.229 172.258 184.368 172.015C184.507 171.772 184.576 171.477 184.576 171.13C184.576 170.783 184.51 170.492 184.377 170.254C184.244 170.012 184.067 169.83 183.848 169.708C183.628 169.587 183.391 169.526 183.137 169.526C182.882 169.526 182.645 169.587 182.425 169.708C182.212 169.83 182.041 170.012 181.914 170.254C181.787 170.492 181.723 170.783 181.723 171.13C181.723 171.645 181.853 172.044 182.113 172.327C182.379 172.605 182.712 172.743 183.111 172.743ZM186.967 173.585C186.788 173.585 186.638 173.524 186.516 173.403C186.395 173.281 186.334 173.131 186.334 172.952C186.334 172.772 186.395 172.622 186.516 172.501C186.638 172.379 186.788 172.318 186.967 172.318C187.141 172.318 187.288 172.379 187.409 172.501C187.531 172.622 187.592 172.772 187.592 172.952C187.592 173.131 187.531 173.281 187.409 173.403C187.288 173.524 187.141 173.585 186.967 173.585ZM192.986 173.602C192.535 173.602 192.127 173.501 191.763 173.298C191.398 173.09 191.112 172.801 190.904 172.431C190.696 172.055 190.592 171.622 190.592 171.13C190.592 170.645 190.699 170.214 190.913 169.838C191.127 169.462 191.419 169.173 191.789 168.971C192.159 168.769 192.572 168.667 193.029 168.667C193.486 168.667 193.899 168.769 194.269 168.971C194.639 169.173 194.931 169.462 195.145 169.838C195.359 170.214 195.466 170.645 195.466 171.13C195.466 171.616 195.356 172.047 195.136 172.423C194.917 172.798 194.616 173.09 194.234 173.298C193.859 173.501 193.442 173.602 192.986 173.602ZM192.986 172.743C193.24 172.743 193.477 172.683 193.697 172.561C193.922 172.44 194.104 172.258 194.243 172.015C194.382 171.772 194.451 171.477 194.451 171.13C194.451 170.783 194.385 170.492 194.252 170.254C194.119 170.012 193.942 169.83 193.723 169.708C193.503 169.587 193.266 169.526 193.012 169.526C192.757 169.526 192.52 169.587 192.3 169.708C192.086 169.83 191.916 170.012 191.789 170.254C191.662 170.492 191.598 170.783 191.598 171.13C191.598 171.645 191.728 172.044 191.988 172.327C192.254 172.605 192.587 172.743 192.986 172.743ZM198.446 169.552H197.562V173.524H196.565V169.552H196.001V168.745H196.565V168.407C196.565 167.858 196.709 167.459 196.998 167.21C197.293 166.956 197.753 166.829 198.377 166.829V167.653C198.076 167.653 197.865 167.711 197.744 167.826C197.623 167.936 197.562 168.13 197.562 168.407V168.745H198.446V169.552ZM202.564 169.448C202.732 169.228 202.96 169.043 203.249 168.893C203.538 168.743 203.865 168.667 204.229 168.667C204.645 168.667 205.024 168.771 205.365 168.98C205.712 169.182 205.984 169.468 206.18 169.838C206.377 170.208 206.475 170.633 206.475 171.113C206.475 171.593 206.377 172.024 206.18 172.405C205.984 172.781 205.712 173.076 205.365 173.29C205.024 173.498 204.645 173.602 204.229 173.602C203.865 173.602 203.541 173.53 203.258 173.385C202.975 173.235 202.743 173.05 202.564 172.83V175.796H201.575V168.745H202.564V169.448ZM205.469 171.113C205.469 170.783 205.4 170.5 205.261 170.263C205.128 170.02 204.949 169.838 204.723 169.717C204.504 169.59 204.267 169.526 204.012 169.526C203.764 169.526 203.527 169.59 203.301 169.717C203.081 169.844 202.902 170.029 202.764 170.272C202.631 170.515 202.564 170.801 202.564 171.13C202.564 171.46 202.631 171.749 202.764 171.998C202.902 172.24 203.081 172.425 203.301 172.553C203.527 172.68 203.764 172.743 204.012 172.743C204.267 172.743 204.504 172.68 204.723 172.553C204.949 172.42 205.128 172.229 205.261 171.98C205.4 171.732 205.469 171.443 205.469 171.113ZM211.832 171.018C211.832 171.197 211.821 171.359 211.798 171.503H208.147C208.176 171.885 208.317 172.191 208.572 172.423C208.826 172.654 209.138 172.769 209.508 172.769C210.04 172.769 210.416 172.547 210.636 172.102H211.702C211.558 172.541 211.295 172.902 210.913 173.186C210.537 173.463 210.069 173.602 209.508 173.602C209.052 173.602 208.641 173.501 208.277 173.298C207.918 173.09 207.635 172.801 207.427 172.431C207.225 172.055 207.123 171.622 207.123 171.13C207.123 170.639 207.222 170.208 207.418 169.838C207.621 169.462 207.901 169.173 208.259 168.971C208.624 168.769 209.04 168.667 209.508 168.667C209.959 168.667 210.361 168.766 210.714 168.962C211.066 169.159 211.341 169.436 211.538 169.795C211.734 170.148 211.832 170.555 211.832 171.018ZM210.8 170.705C210.795 170.341 210.665 170.049 210.41 169.83C210.156 169.61 209.841 169.5 209.465 169.5C209.124 169.5 208.832 169.61 208.589 169.83C208.346 170.043 208.202 170.335 208.155 170.705H210.8ZM214.878 173.602C214.427 173.602 214.019 173.501 213.655 173.298C213.291 173.09 213.005 172.801 212.797 172.431C212.589 172.055 212.484 171.622 212.484 171.13C212.484 170.645 212.591 170.214 212.805 169.838C213.019 169.462 213.311 169.173 213.681 168.971C214.051 168.769 214.465 168.667 214.921 168.667C215.378 168.667 215.792 168.769 216.162 168.971C216.532 169.173 216.824 169.462 217.037 169.838C217.251 170.214 217.358 170.645 217.358 171.13C217.358 171.616 217.248 172.047 217.029 172.423C216.809 172.798 216.508 173.09 216.127 173.298C215.751 173.501 215.335 173.602 214.878 173.602ZM214.878 172.743C215.132 172.743 215.369 172.683 215.589 172.561C215.815 172.44 215.997 172.258 216.136 172.015C216.274 171.772 216.344 171.477 216.344 171.13C216.344 170.783 216.277 170.492 216.144 170.254C216.011 170.012 215.835 169.83 215.615 169.708C215.396 169.587 215.158 169.526 214.904 169.526C214.65 169.526 214.413 169.587 214.193 169.708C213.979 169.83 213.808 170.012 213.681 170.254C213.554 170.492 213.49 170.783 213.49 171.13C213.49 171.645 213.621 172.044 213.881 172.327C214.147 172.605 214.479 172.743 214.878 172.743ZM219.324 169.448C219.492 169.228 219.72 169.043 220.009 168.893C220.299 168.743 220.625 168.667 220.989 168.667C221.406 168.667 221.784 168.771 222.125 168.98C222.472 169.182 222.744 169.468 222.941 169.838C223.137 170.208 223.236 170.633 223.236 171.113C223.236 171.593 223.137 172.024 222.941 172.405C222.744 172.781 222.472 173.076 222.125 173.29C221.784 173.498 221.406 173.602 220.989 173.602C220.625 173.602 220.301 173.53 220.018 173.385C219.735 173.235 219.504 173.05 219.324 172.83V175.796H218.336V168.745H219.324V169.448ZM222.23 171.113C222.23 170.783 222.16 170.5 222.021 170.263C221.888 170.02 221.709 169.838 221.484 169.717C221.264 169.59 221.027 169.526 220.773 169.526C220.524 169.526 220.287 169.59 220.061 169.717C219.842 169.844 219.663 170.029 219.524 170.272C219.391 170.515 219.324 170.801 219.324 171.13C219.324 171.46 219.391 171.749 219.524 171.998C219.663 172.24 219.842 172.425 220.061 172.553C220.287 172.68 220.524 172.743 220.773 172.743C221.027 172.743 221.264 172.68 221.484 172.553C221.709 172.42 221.888 172.229 222.021 171.98C222.16 171.732 222.23 171.443 222.23 171.113ZM225.202 167.106V173.524H224.213V167.106H225.202ZM230.879 171.018C230.879 171.197 230.868 171.359 230.845 171.503H227.194C227.223 171.885 227.364 172.191 227.619 172.423C227.873 172.654 228.185 172.769 228.555 172.769C229.087 172.769 229.463 172.547 229.683 172.102H230.749C230.605 172.541 230.342 172.902 229.96 173.186C229.584 173.463 229.116 173.602 228.555 173.602C228.098 173.602 227.688 173.501 227.324 173.298C226.965 173.09 226.682 172.801 226.474 172.431C226.271 172.055 226.17 171.622 226.17 171.13C226.17 170.639 226.269 170.208 226.465 169.838C226.668 169.462 226.948 169.173 227.306 168.971C227.671 168.769 228.087 168.667 228.555 168.667C229.006 168.667 229.408 168.766 229.761 168.962C230.113 169.159 230.388 169.436 230.585 169.795C230.781 170.148 230.879 170.555 230.879 171.018ZM229.847 170.705C229.842 170.341 229.711 170.049 229.457 169.83C229.203 169.61 228.888 169.5 228.512 169.5C228.171 169.5 227.879 169.61 227.636 169.83C227.393 170.043 227.249 170.335 227.202 170.705H229.847ZM233.776 171.13C233.776 170.639 233.874 170.208 234.07 169.838C234.273 169.462 234.55 169.173 234.903 168.971C235.256 168.769 235.66 168.667 236.117 168.667C236.695 168.667 237.172 168.806 237.548 169.084C237.93 169.355 238.187 169.746 238.32 170.254H237.253C237.166 170.017 237.028 169.832 236.837 169.699C236.646 169.566 236.406 169.5 236.117 169.5C235.712 169.5 235.389 169.645 235.146 169.934C234.909 170.217 234.79 170.616 234.79 171.13C234.79 171.645 234.909 172.047 235.146 172.336C235.389 172.625 235.712 172.769 236.117 172.769C236.689 172.769 237.068 172.518 237.253 172.015H238.32C238.181 172.501 237.921 172.888 237.539 173.177C237.158 173.46 236.684 173.602 236.117 173.602C235.66 173.602 235.256 173.501 234.903 173.298C234.55 173.09 234.273 172.801 234.07 172.431C233.874 172.055 233.776 171.622 233.776 171.13ZM240.294 167.106V173.524H239.305V167.106H240.294ZM242.095 168.112C241.915 168.112 241.765 168.052 241.644 167.93C241.522 167.809 241.462 167.659 241.462 167.479C241.462 167.3 241.522 167.15 241.644 167.028C241.765 166.907 241.915 166.846 242.095 166.846C242.268 166.846 242.416 166.907 242.537 167.028C242.658 167.15 242.719 167.3 242.719 167.479C242.719 167.659 242.658 167.809 242.537 167.93C242.416 168.052 242.268 168.112 242.095 168.112ZM242.58 168.745V173.524H241.592V168.745H242.58ZM243.549 171.13C243.549 170.639 243.647 170.208 243.844 169.838C244.046 169.462 244.324 169.173 244.676 168.971C245.029 168.769 245.434 168.667 245.89 168.667C246.468 168.667 246.945 168.806 247.321 169.084C247.703 169.355 247.96 169.746 248.093 170.254H247.026C246.94 170.017 246.801 169.832 246.61 169.699C246.419 169.566 246.179 169.5 245.89 169.5C245.486 169.5 245.162 169.645 244.919 169.934C244.682 170.217 244.563 170.616 244.563 171.13C244.563 171.645 244.682 172.047 244.919 172.336C245.162 172.625 245.486 172.769 245.89 172.769C246.463 172.769 246.841 172.518 247.026 172.015H248.093C247.954 172.501 247.694 172.888 247.313 173.177C246.931 173.46 246.457 173.602 245.89 173.602C245.434 173.602 245.029 173.501 244.676 173.298C244.324 173.09 244.046 172.801 243.844 172.431C243.647 172.055 243.549 171.622 243.549 171.13ZM250.969 171.139L253.172 173.524H251.836L250.067 171.469V173.524H249.078V167.106H250.067V170.836L251.801 168.745H253.172L250.969 171.139ZM258.26 171.018C258.26 171.197 258.248 171.359 258.225 171.503H254.574C254.603 171.885 254.745 172.191 254.999 172.423C255.253 172.654 255.566 172.769 255.936 172.769C256.468 172.769 256.843 172.547 257.063 172.102H258.13C257.985 172.541 257.722 172.902 257.341 173.186C256.965 173.463 256.496 173.602 255.936 173.602C255.479 173.602 255.068 173.501 254.704 173.298C254.346 173.09 254.062 172.801 253.854 172.431C253.652 172.055 253.551 171.622 253.551 171.13C253.551 170.639 253.649 170.208 253.846 169.838C254.048 169.462 254.328 169.173 254.687 168.971C255.051 168.769 255.467 168.667 255.936 168.667C256.387 168.667 256.788 168.766 257.141 168.962C257.494 169.159 257.768 169.436 257.965 169.795C258.162 170.148 258.26 170.555 258.26 171.018ZM257.228 170.705C257.222 170.341 257.092 170.049 256.838 169.83C256.583 169.61 256.268 169.5 255.892 169.5C255.551 169.5 255.259 169.61 255.016 169.83C254.774 170.043 254.629 170.335 254.583 170.705H257.228ZM258.903 171.113C258.903 170.633 259.001 170.208 259.198 169.838C259.4 169.468 259.672 169.182 260.013 168.98C260.36 168.771 260.745 168.667 261.167 168.667C261.479 168.667 261.785 168.737 262.086 168.876C262.392 169.009 262.635 169.188 262.814 169.413V167.106H263.812V173.524H262.814V172.804C262.653 173.035 262.427 173.226 262.138 173.376C261.855 173.527 261.528 173.602 261.158 173.602C260.742 173.602 260.36 173.498 260.013 173.29C259.672 173.076 259.4 172.781 259.198 172.405C259.001 172.024 258.903 171.593 258.903 171.113ZM262.814 171.13C262.814 170.801 262.745 170.515 262.606 170.272C262.473 170.029 262.297 169.844 262.077 169.717C261.858 169.59 261.621 169.526 261.366 169.526C261.112 169.526 260.875 169.59 260.655 169.717C260.435 169.838 260.256 170.02 260.117 170.263C259.984 170.5 259.918 170.783 259.918 171.113C259.918 171.443 259.984 171.732 260.117 171.98C260.256 172.229 260.435 172.42 260.655 172.553C260.881 172.68 261.118 172.743 261.366 172.743C261.621 172.743 261.858 172.68 262.077 172.553C262.297 172.425 262.473 172.24 262.606 171.998C262.745 171.749 262.814 171.46 262.814 171.13ZM268.516 169.552V172.197C268.516 172.376 268.557 172.506 268.638 172.587C268.725 172.662 268.869 172.7 269.072 172.7H269.679V173.524H268.898C268.453 173.524 268.112 173.42 267.875 173.212C267.638 173.004 267.519 172.665 267.519 172.197V169.552H266.955V168.745H267.519V167.557H268.516V168.745H269.679V169.552H268.516ZM273.061 168.667C273.426 168.667 273.749 168.745 274.033 168.902C274.322 169.058 274.547 169.289 274.709 169.595C274.877 169.902 274.961 170.272 274.961 170.705V173.524H273.981V170.853C273.981 170.425 273.874 170.098 273.66 169.873C273.446 169.642 273.154 169.526 272.784 169.526C272.414 169.526 272.119 169.642 271.899 169.873C271.685 170.098 271.578 170.425 271.578 170.853V173.524H270.59V167.106H271.578V169.301C271.746 169.098 271.957 168.942 272.211 168.832C272.472 168.722 272.755 168.667 273.061 168.667ZM280.601 171.018C280.601 171.197 280.59 171.359 280.567 171.503H276.915C276.944 171.885 277.086 172.191 277.34 172.423C277.595 172.654 277.907 172.769 278.277 172.769C278.809 172.769 279.185 172.547 279.404 172.102H280.471C280.327 172.541 280.064 172.902 279.682 173.186C279.306 173.463 278.838 173.602 278.277 173.602C277.82 173.602 277.41 173.501 277.046 173.298C276.687 173.09 276.404 172.801 276.196 172.431C275.993 172.055 275.892 171.622 275.892 171.13C275.892 170.639 275.99 170.208 276.187 169.838C276.389 169.462 276.67 169.173 277.028 168.971C277.392 168.769 277.809 168.667 278.277 168.667C278.728 168.667 279.13 168.766 279.482 168.962C279.835 169.159 280.11 169.436 280.306 169.795C280.503 170.148 280.601 170.555 280.601 171.018ZM279.569 170.705C279.563 170.341 279.433 170.049 279.179 169.83C278.925 169.61 278.609 169.5 278.234 169.5C277.893 169.5 277.601 169.61 277.358 169.83C277.115 170.043 276.97 170.335 276.924 170.705H279.569ZM284.816 167.106V173.524H283.827V167.106H284.816ZM286.617 168.112C286.437 168.112 286.287 168.052 286.166 167.93C286.044 167.809 285.983 167.659 285.983 167.479C285.983 167.3 286.044 167.15 286.166 167.028C286.287 166.907 286.437 166.846 286.617 166.846C286.79 166.846 286.937 166.907 287.059 167.028C287.18 167.15 287.241 167.3 287.241 167.479C287.241 167.659 287.18 167.809 287.059 167.93C286.937 168.052 286.79 168.112 286.617 168.112ZM287.102 168.745V173.524H286.114V168.745H287.102ZM290.811 168.667C291.187 168.667 291.522 168.745 291.817 168.902C292.118 169.058 292.352 169.289 292.52 169.595C292.687 169.902 292.771 170.272 292.771 170.705V173.524H291.791V170.853C291.791 170.425 291.684 170.098 291.47 169.873C291.256 169.642 290.964 169.526 290.594 169.526C290.224 169.526 289.929 169.642 289.71 169.873C289.496 170.098 289.389 170.425 289.389 170.853V173.524H288.4V168.745H289.389V169.292C289.551 169.095 289.756 168.942 290.005 168.832C290.259 168.722 290.528 168.667 290.811 168.667ZM295.923 171.139L298.125 173.524H296.79L295.021 171.469V173.524H294.032V167.106H295.021V170.836L296.755 168.745H298.125L295.923 171.139ZM303.214 171.018C303.214 171.197 303.202 171.359 303.179 171.503H299.528C299.557 171.885 299.698 172.191 299.953 172.423C300.207 172.654 300.519 172.769 300.889 172.769C301.421 172.769 301.797 172.547 302.017 172.102H303.084C302.939 172.541 302.676 172.902 302.294 173.186C301.919 173.463 301.45 173.602 300.889 173.602C300.433 173.602 300.022 173.501 299.658 173.298C299.3 173.09 299.016 172.801 298.808 172.431C298.606 172.055 298.505 171.622 298.505 171.13C298.505 170.639 298.603 170.208 298.799 169.838C299.002 169.462 299.282 169.173 299.641 168.971C300.005 168.769 300.421 168.667 300.889 168.667C301.34 168.667 301.742 168.766 302.095 168.962C302.448 169.159 302.722 169.436 302.919 169.795C303.115 170.148 303.214 170.555 303.214 171.018ZM302.182 170.705C302.176 170.341 302.046 170.049 301.791 169.83C301.537 169.61 301.222 169.5 300.846 169.5C300.505 169.5 300.213 169.61 299.97 169.83C299.727 170.043 299.583 170.335 299.537 170.705H302.182ZM303.857 171.113C303.857 170.633 303.955 170.208 304.152 169.838C304.354 169.468 304.626 169.182 304.967 168.98C305.314 168.771 305.698 168.667 306.12 168.667C306.433 168.667 306.739 168.737 307.04 168.876C307.346 169.009 307.589 169.188 307.768 169.413V167.106H308.766V173.524H307.768V172.804C307.606 173.035 307.381 173.226 307.092 173.376C306.808 173.527 306.482 173.602 306.112 173.602C305.696 173.602 305.314 173.498 304.967 173.29C304.626 173.076 304.354 172.781 304.152 172.405C303.955 172.024 303.857 171.593 303.857 171.113ZM307.768 171.13C307.768 170.801 307.699 170.515 307.56 170.272C307.427 170.029 307.251 169.844 307.031 169.717C306.811 169.59 306.574 169.526 306.32 169.526C306.066 169.526 305.829 169.59 305.609 169.717C305.389 169.838 305.21 170.02 305.071 170.263C304.938 170.5 304.872 170.783 304.872 171.113C304.872 171.443 304.938 171.732 305.071 171.98C305.21 172.229 305.389 172.42 305.609 172.553C305.834 172.68 306.071 172.743 306.32 172.743C306.574 172.743 306.811 172.68 307.031 172.553C307.251 172.425 307.427 172.24 307.56 171.998C307.699 171.749 307.768 171.46 307.768 171.13ZM312.82 168.112C312.641 168.112 312.49 168.052 312.369 167.93C312.247 167.809 312.187 167.659 312.187 167.479C312.187 167.3 312.247 167.15 312.369 167.028C312.49 166.907 312.641 166.846 312.82 166.846C312.993 166.846 313.141 166.907 313.262 167.028C313.384 167.15 313.444 167.3 313.444 167.479C313.444 167.659 313.384 167.809 313.262 167.93C313.141 168.052 312.993 168.112 312.82 168.112ZM313.305 168.745V173.524H312.317V168.745H313.305ZM317.014 168.667C317.39 168.667 317.726 168.745 318.02 168.902C318.321 169.058 318.555 169.289 318.723 169.595C318.89 169.902 318.974 170.272 318.974 170.705V173.524H317.994V170.853C317.994 170.425 317.887 170.098 317.673 169.873C317.46 169.642 317.168 169.526 316.798 169.526C316.428 169.526 316.133 169.642 315.913 169.873C315.699 170.098 315.592 170.425 315.592 170.853V173.524H314.603V168.745H315.592V169.292C315.754 169.095 315.959 168.942 316.208 168.832C316.462 168.722 316.731 168.667 317.014 168.667ZM323.642 169.552V172.197C323.642 172.376 323.682 172.506 323.763 172.587C323.85 172.662 323.994 172.7 324.197 172.7H324.804V173.524H324.023C323.578 173.524 323.237 173.42 323 173.212C322.763 173.004 322.644 172.665 322.644 172.197V169.552H322.081V168.745H322.644V167.557H323.642V168.745H324.804V169.552H323.642ZM328.187 168.667C328.551 168.667 328.875 168.745 329.158 168.902C329.447 169.058 329.672 169.289 329.834 169.595C330.002 169.902 330.086 170.272 330.086 170.705V173.524H329.106V170.853C329.106 170.425 328.999 170.098 328.785 169.873C328.571 169.642 328.279 169.526 327.909 169.526C327.539 169.526 327.244 169.642 327.024 169.873C326.81 170.098 326.704 170.425 326.704 170.853V173.524H325.715V167.106H326.704V169.301C326.871 169.098 327.082 168.942 327.337 168.832C327.597 168.722 327.88 168.667 328.187 168.667ZM335.726 171.018C335.726 171.197 335.715 171.359 335.692 171.503H332.041C332.07 171.885 332.211 172.191 332.466 172.423C332.72 172.654 333.032 172.769 333.402 172.769C333.934 172.769 334.31 172.547 334.53 172.102H335.596C335.452 172.541 335.189 172.902 334.807 173.186C334.431 173.463 333.963 173.602 333.402 173.602C332.945 173.602 332.535 173.501 332.171 173.298C331.812 173.09 331.529 172.801 331.321 172.431C331.118 172.055 331.017 171.622 331.017 171.13C331.017 170.639 331.116 170.208 331.312 169.838C331.514 169.462 331.795 169.173 332.153 168.971C332.518 168.769 332.934 168.667 333.402 168.667C333.853 168.667 334.255 168.766 334.608 168.962C334.96 169.159 335.235 169.436 335.431 169.795C335.628 170.148 335.726 170.555 335.726 171.018ZM334.694 170.705C334.689 170.341 334.558 170.049 334.304 169.83C334.05 169.61 333.735 169.5 333.359 169.5C333.018 169.5 332.726 169.61 332.483 169.83C332.24 170.043 332.096 170.335 332.049 170.705H334.694ZM343.332 171.018C343.332 171.197 343.32 171.359 343.297 171.503H339.646C339.675 171.885 339.816 172.191 340.071 172.423C340.325 172.654 340.637 172.769 341.007 172.769C341.539 172.769 341.915 172.547 342.135 172.102H343.201C343.057 172.541 342.794 172.902 342.412 173.186C342.036 173.463 341.568 173.602 341.007 173.602C340.551 173.602 340.14 173.501 339.776 173.298C339.417 173.09 339.134 172.801 338.926 172.431C338.724 172.055 338.622 171.622 338.622 171.13C338.622 170.639 338.721 170.208 338.917 169.838C339.12 169.462 339.4 169.173 339.759 168.971C340.123 168.769 340.539 168.667 341.007 168.667C341.458 168.667 341.86 168.766 342.213 168.962C342.565 169.159 342.84 169.436 343.037 169.795C343.233 170.148 343.332 170.555 343.332 171.018ZM342.3 170.705C342.294 170.341 342.164 170.049 341.909 169.83C341.655 169.61 341.34 169.5 340.964 169.5C340.623 169.5 340.331 169.61 340.088 169.83C339.845 170.043 339.701 170.335 339.654 170.705H342.3ZM350.089 168.667C350.465 168.667 350.8 168.745 351.095 168.902C351.396 169.058 351.63 169.289 351.797 169.595C351.971 169.902 352.058 170.272 352.058 170.705V173.524H351.078V170.853C351.078 170.425 350.971 170.098 350.757 169.873C350.543 169.642 350.251 169.526 349.881 169.526C349.511 169.526 349.216 169.642 348.996 169.873C348.782 170.098 348.675 170.425 348.675 170.853V173.524H347.695V170.853C347.695 170.425 347.588 170.098 347.374 169.873C347.161 169.642 346.869 169.526 346.499 169.526C346.129 169.526 345.834 169.642 345.614 169.873C345.4 170.098 345.293 170.425 345.293 170.853V173.524H344.304V168.745H345.293V169.292C345.455 169.095 345.66 168.942 345.909 168.832C346.157 168.722 346.423 168.667 346.707 168.667C347.088 168.667 347.429 168.748 347.73 168.91C348.031 169.072 348.262 169.306 348.424 169.613C348.568 169.324 348.794 169.095 349.1 168.928C349.407 168.754 349.736 168.667 350.089 168.667ZM352.986 171.113C352.986 170.633 353.084 170.208 353.281 169.838C353.483 169.468 353.755 169.182 354.096 168.98C354.443 168.771 354.825 168.667 355.241 168.667C355.617 168.667 355.943 168.743 356.221 168.893C356.504 169.037 356.73 169.22 356.897 169.439V168.745H357.895V173.524H356.897V172.813C356.73 173.038 356.501 173.226 356.212 173.376C355.923 173.527 355.593 173.602 355.223 173.602C354.813 173.602 354.437 173.498 354.096 173.29C353.755 173.076 353.483 172.781 353.281 172.405C353.084 172.024 352.986 171.593 352.986 171.113ZM356.897 171.13C356.897 170.801 356.828 170.515 356.689 170.272C356.556 170.029 356.38 169.844 356.16 169.717C355.94 169.59 355.703 169.526 355.449 169.526C355.195 169.526 354.958 169.59 354.738 169.717C354.518 169.838 354.339 170.02 354.2 170.263C354.067 170.5 354.001 170.783 354.001 171.113C354.001 171.443 354.067 171.732 354.2 171.98C354.339 172.229 354.518 172.42 354.738 172.553C354.963 172.68 355.2 172.743 355.449 172.743C355.703 172.743 355.94 172.68 356.16 172.553C356.38 172.425 356.556 172.24 356.689 171.998C356.828 171.749 356.897 171.46 356.897 171.13ZM359.696 168.112C359.517 168.112 359.367 168.052 359.245 167.93C359.124 167.809 359.063 167.659 359.063 167.479C359.063 167.3 359.124 167.15 359.245 167.028C359.367 166.907 359.517 166.846 359.696 166.846C359.87 166.846 360.017 166.907 360.138 167.028C360.26 167.15 360.32 167.3 360.32 167.479C360.32 167.659 360.26 167.809 360.138 167.93C360.017 168.052 359.87 168.112 359.696 168.112ZM360.182 168.745V173.524H359.193V168.745H360.182ZM362.468 167.106V173.524H361.48V167.106H362.468Z" fill="#615C64"/>
<circle cx="222.381" cy="229.596" r="1.44532" fill="white" stroke="#F1D9FF" stroke-width="0.412947"/>
<circle cx="258.72" cy="209.774" r="1.44532" fill="#BF62F9" stroke="#BF62F9" stroke-width="0.412947"/>
<rect x="252.796" y="196.693" width="15.4231" height="7.99009" rx="0.94102" fill="white"/>
<path d="M253.1 198.181V197.524H254.587V203.243H253.859V198.181H253.1ZM255.823 200.324C255.823 199.417 255.971 198.711 256.266 198.205C256.561 197.693 257.078 197.437 257.816 197.437C258.549 197.437 259.063 197.693 259.358 198.205C259.654 198.711 259.801 199.417 259.801 200.324C259.801 201.247 259.654 201.964 259.358 202.476C259.063 202.987 258.549 203.243 257.816 203.243C257.078 203.243 256.561 202.987 256.266 202.476C255.971 201.964 255.823 201.247 255.823 200.324ZM259.089 200.324C259.089 199.866 259.058 199.478 258.995 199.162C258.937 198.84 258.813 198.582 258.623 198.387C258.438 198.191 258.169 198.094 257.816 198.094C257.458 198.094 257.183 198.191 256.994 198.387C256.809 198.582 256.685 198.84 256.622 199.162C256.564 199.478 256.535 199.866 256.535 200.324C256.535 200.799 256.564 201.197 256.622 201.519C256.685 201.84 256.809 202.099 256.994 202.294C257.183 202.489 257.458 202.586 257.816 202.586C258.169 202.586 258.438 202.489 258.623 202.294C258.813 202.099 258.937 201.84 258.995 201.519C259.058 201.197 259.089 200.799 259.089 200.324ZM263.898 203.243L261.628 200.728V203.243H260.908V197.73H261.628V200.285L263.906 197.73H264.815L262.316 200.49L264.839 203.243H263.898Z" fill="#6D07AB"/>
<rect x="252.796" y="196.693" width="15.4231" height="7.99009" rx="0.94102" stroke="white" stroke-width="0.268863"/>
<circle cx="328.921" cy="217.207" r="1.44532" fill="white" stroke="#F1D9FF" stroke-width="0.412947"/>
<circle cx="290.104" cy="238.68" r="1.44532" fill="white" stroke="#F1D9FF" stroke-width="0.412947"/>
<circle cx="186.867" cy="247.765" r="1.44532" fill="white" stroke="#F1D9FF" stroke-width="0.412947"/>
<circle cx="362.783" cy="227.944" r="1.44532" fill="white" stroke="#F1D9FF" stroke-width="0.412947"/>
</g>
<defs>
<filter id="filter0_d_628_223" x="0.218877" y="34.6871" width="228.354" height="209.084" filterUnits="userSpaceOnUse" color-interpolation-filters="sRGB">
<feFlood flood-opacity="0" result="BackgroundImageFix"/>
<feColorMatrix in="SourceAlpha" type="matrix" values="0 0 0 0 0 0 0 0 0 0 0 0 0 0 0 0 0 0 127 0" result="hardAlpha"/>
<feOffset dx="-1.92704"/>
<feGaussianBlur stdDeviation="1.92704"/>
<feComposite in2="hardAlpha" operator="out"/>
<feColorMatrix type="matrix" values="0 0 0 0 0 0 0 0 0 0 0 0 0 0 0 0 0 0 0.05 0"/>
<feBlend mode="normal" in2="BackgroundImageFix" result="effect1_dropShadow_628_223"/>
<feBlend mode="normal" in="SourceGraphic" in2="effect1_dropShadow_628_223" result="shape"/>
</filter>
<filter id="filter1_dd_628_223" x="146.398" y="143.702" width="246.117" height="146.203" filterUnits="userSpaceOnUse" color-interpolation-filters="sRGB">
<feFlood flood-opacity="0" result="BackgroundImageFix"/>
<feColorMatrix in="SourceAlpha" type="matrix" values="0 0 0 0 0 0 0 0 0 0 0 0 0 0 0 0 0 0 127 0" result="hardAlpha"/>
<feOffset dx="1.65179"/>
<feGaussianBlur stdDeviation="1.65179"/>
<feComposite in2="hardAlpha" operator="out"/>
<feColorMatrix type="matrix" values="0 0 0 0 0 0 0 0 0 0 0 0 0 0 0 0 0 0 0.05 0"/>
<feBlend mode="normal" in2="BackgroundImageFix" result="effect1_dropShadow_628_223"/>
<feColorMatrix in="SourceAlpha" type="matrix" values="0 0 0 0 0 0 0 0 0 0 0 0 0 0 0 0 0 0 127 0" result="hardAlpha"/>
<feOffset dx="-3.30358"/>
<feGaussianBlur stdDeviation="3.30358"/>
<feComposite in2="hardAlpha" operator="out"/>
<feColorMatrix type="matrix" values="0 0 0 0 0 0 0 0 0 0 0 0 0 0 0 0 0 0 0.05 0"/>
<feBlend mode="normal" in2="effect1_dropShadow_628_223" result="effect2_dropShadow_628_223"/>
<feBlend mode="normal" in="SourceGraphic" in2="effect2_dropShadow_628_223" result="shape"/>
</filter>
<radialGradient id="paint0_radial_628_223" cx="0" cy="0" r="1" gradientUnits="userSpaceOnUse" gradientTransform="translate(218.214 46.6954) rotate(123.657) scale(68.1495 145.151)">
<stop stop-color="#FCF4FF"/>
<stop offset="1" stop-color="#FCF4FF" stop-opacity="0"/>
</radialGradient>
<radialGradient id="paint1_radial_628_223" cx="0" cy="0" r="1" gradientUnits="userSpaceOnUse" gradientTransform="translate(378.722 155.695) rotate(136.579) scale(54.501 125.624)">
<stop stop-color="#FCF4FF"/>
<stop offset="1" stop-color="#FCF4FF" stop-opacity="0"/>
</radialGradient>
</defs>
</svg>
