<svg width="32" height="32" viewBox="0 0 32 32" fill="none" xmlns="http://www.w3.org/2000/svg">
<path d="M22.1227 9.87836C21.5601 9.31595 20.7972 9 20.0017 9C19.2062 9 18.4433 9.31595 17.8807 9.87836L17.4157 10.3424L18.8297 11.7564L19.2947 11.2924C19.4833 11.1102 19.7359 11.0094 19.9981 11.0117C20.2603 11.014 20.5111 11.1191 20.6965 11.3045C20.8819 11.4899 20.9871 11.7408 20.9894 12.003C20.9917 12.2652 20.8909 12.5178 20.7087 12.7064L17.4157 15.9994L18.8297 17.4134L22.1227 14.1204C22.6851 13.5578 23.0011 12.7949 23.0011 11.9994C23.0011 11.2039 22.6851 10.4409 22.1227 9.87836ZM12.7087 20.7064C12.5201 20.8885 12.2675 20.9893 12.0053 20.987C11.7431 20.9848 11.4923 20.8796 11.3069 20.6942C11.1215 20.5088 11.0163 20.258 11.014 19.9958C11.0118 19.7336 11.1126 19.481 11.2947 19.2924L14.5877 15.9994L13.1737 14.5854L9.88071 17.8784C9.59418 18.1551 9.36563 18.4861 9.2084 18.8521C9.05118 19.2182 8.96842 19.6118 8.96496 20.0102C8.9615 20.4085 9.0374 20.8035 9.18824 21.1722C9.33909 21.5409 9.56185 21.8759 9.84352 22.1575C10.1252 22.4392 10.4602 22.662 10.8288 22.8128C11.1975 22.9637 11.5926 23.0396 11.9909 23.0361C12.3893 23.0326 12.7829 22.9499 13.1489 22.7927C13.5149 22.6354 13.846 22.4069 14.1227 22.1204L14.5877 21.6564L13.1737 20.2424L12.7087 20.7064ZM14.1227 9.87936C13.5546 9.34613 12.8013 9.05484 12.0223 9.06712C11.2432 9.0794 10.4995 9.3943 9.94851 9.94518C9.3975 10.4961 9.08243 11.2397 9.06996 12.0187C9.0575 12.7978 9.34861 13.5511 9.88171 14.1194L10.3457 14.5844L11.7597 13.1704L11.2957 12.7054C11.1136 12.5168 11.0128 12.2642 11.015 12.002C11.0173 11.7398 11.1225 11.4889 11.3079 11.3035C11.4933 11.1181 11.7441 11.013 12.0063 11.0107C12.2685 11.0084 12.5211 11.1092 12.7097 11.2914L16.0017 14.5854L17.4157 13.1714L14.1227 9.87936Z" fill="#A3A3A3"/>
<path d="M22.1209 17.8791L21.6569 17.4141L20.2429 18.8281L20.7069 19.2931C20.8891 19.4817 20.9899 19.7343 20.9876 19.9965C20.9853 20.2587 20.8802 20.5095 20.6948 20.6949C20.5093 20.8803 20.2585 20.9855 19.9963 20.9877C19.7341 20.99 19.4815 20.8892 19.2929 20.7071L15.9999 17.4141L14.5859 18.8281L17.8789 22.1211C18.4447 22.6675 19.2026 22.9699 19.9891 22.9631C20.7757 22.9562 21.5282 22.6407 22.0844 22.0845C22.6406 21.5283 22.9561 20.7759 22.963 19.9893C22.9698 19.2027 22.6674 18.4449 22.1209 17.8791Z" fill="#A3A3A3"/>
<path d="M16 31.0003C15.8229 31.0004 15.649 30.9535 15.496 30.8643L3.496 23.8643C3.34502 23.7762 3.21978 23.6501 3.13275 23.4985C3.04572 23.3469 2.99995 23.1751 3 23.0003V9.0003C2.99995 8.82549 3.04572 8.65373 3.13275 8.50213C3.21978 8.35053 3.34502 8.2244 3.496 8.1363L15.496 1.1363C15.649 1.04704 15.8229 1 16 1C16.1771 1 16.351 1.04704 16.504 1.1363L28.504 8.1363L27.496 9.8643L16 3.1583L5 9.5743V22.4263L16 28.8433L27 22.4263V15.0003H29V23.0003C29.0001 23.1751 28.9543 23.3469 28.8673 23.4985C28.7802 23.6501 28.655 23.7762 28.504 23.8643L16.504 30.8643C16.351 30.9535 16.1771 31.0004 16 31.0003Z" fill="#A3A3A3"/>
</svg>
