<svg width="32" height="32" viewBox="0 0 32 32" fill="none" xmlns="http://www.w3.org/2000/svg">
<path d="M28 16V6C28 5.46957 27.7893 4.96086 27.4142 4.58579C27.0391 4.21071 26.5304 4 26 4H6C5.46957 4 4.96086 4.21071 4.58579 4.58579C4.21071 4.96086 4 5.46957 4 6V26C4 26.5304 4.21071 27.0391 4.58579 27.4142C4.96086 27.7893 5.46957 28 6 28H16" stroke="#A3A3A3" stroke-width="2.33333" stroke-linecap="round" stroke-linejoin="round"/>
<path d="M21.332 25.3359C23.5412 25.3359 25.332 23.5451 25.332 21.3359C25.332 19.1268 23.5412 17.3359 21.332 17.3359C19.1229 17.3359 17.332 19.1268 17.332 21.3359C17.332 23.5451 19.1229 25.3359 21.332 25.3359Z" stroke="#A3A3A3" stroke-width="2.33333"/>
<path d="M24.6654 23.9974L27.9987 26.6641M9.33203 10.6641H22.6654M9.33203 15.9974H14.6654" stroke="#A3A3A3" stroke-width="2.33333" stroke-linecap="round" stroke-linejoin="round"/>
</svg>
