<svg width="260" height="260" viewBox="0 0 260 260" fill="none" xmlns="http://www.w3.org/2000/svg">
<path d="M97.5 138.125H49.644C51.154 148.181 54.745 157.811 60.187 166.401C65.629 174.991 72.803 182.352 81.25 188.013L95.794 197.763L86.856 211.25L72.312 201.5C60.07 193.342 50.031 182.288 43.086 169.319C36.141 156.35 32.505 141.868 32.5 127.156V73.125C32.5 68.8152 34.212 64.682 37.26 61.6345C40.307 58.5871 44.44 56.875 48.75 56.875H97.5C101.81 56.875 105.943 58.5871 108.99 61.6345C112.038 64.682 113.75 68.8152 113.75 73.125V121.875C113.75 126.185 112.038 130.318 108.99 133.365C105.943 136.413 101.81 138.125 97.5 138.125Z" fill="url(#paint0_linear_2842_5341)"/>
<path d="M211.25 138.125H163.394C164.904 148.181 168.494 157.811 173.937 166.401C179.379 174.991 186.553 182.352 195 188.013L209.544 197.763L200.688 211.25L186.062 201.5C173.82 193.342 163.781 182.288 156.836 169.319C149.891 156.35 146.255 141.868 146.25 127.156V73.125C146.25 68.8152 147.962 64.682 151.01 61.6345C154.057 58.5871 158.19 56.875 162.5 56.875H211.25C215.56 56.875 219.693 58.5871 222.741 61.6345C225.788 64.682 227.5 68.8152 227.5 73.125V121.875C227.5 126.185 225.788 130.318 222.741 133.365C219.693 136.413 215.56 138.125 211.25 138.125Z" fill="url(#paint1_linear_2842_5341)"/>
<defs>
<linearGradient id="paint0_linear_2842_5341" x1="73.125" y1="211.25" x2="73.125" y2="56.875" gradientUnits="userSpaceOnUse">
<stop stop-color="#634AB0" stop-opacity="0"/>
<stop offset="1" stop-color="#634AB0"/>
</linearGradient>
<linearGradient id="paint1_linear_2842_5341" x1="186.875" y1="211.25" x2="186.875" y2="56.875" gradientUnits="userSpaceOnUse">
<stop stop-color="#634AB0" stop-opacity="0"/>
<stop offset="1" stop-color="#634AB0"/>
</linearGradient>
</defs>
</svg>
