<svg width="30" height="30" viewBox="0 0 30 30" fill="none" xmlns="http://www.w3.org/2000/svg">
<circle cx="15" cy="15" r="15" fill="#3F2AFF"/>
<path fill-rule="evenodd" clip-rule="evenodd" d="M12.4995 8.75C12.6354 8.75003 12.7675 8.79429 12.8759 8.87608C12.9843 8.95788 13.0631 9.07275 13.1004 9.20333L13.7779 11.575C13.9238 12.0858 14.1974 12.5509 14.573 12.9265C14.9486 13.3021 15.4138 13.5758 15.9245 13.7217L18.2962 14.3992C18.4267 14.4365 18.5415 14.5154 18.6232 14.6238C18.7049 14.7322 18.7491 14.8643 18.7491 15C18.7491 15.1357 18.7049 15.2678 18.6232 15.3762C18.5415 15.4846 18.4267 15.5635 18.2962 15.6008L15.9245 16.2783C15.4138 16.4242 14.9486 16.6979 14.573 17.0735C14.1974 17.4491 13.9238 17.9142 13.7779 18.425L13.1004 20.7967C13.063 20.9272 12.9841 21.0419 12.8757 21.1236C12.7673 21.2054 12.6353 21.2496 12.4995 21.2496C12.3638 21.2496 12.2318 21.2054 12.1234 21.1236C12.015 21.0419 11.9361 20.9272 11.8987 20.7967L11.2212 18.425C11.0753 17.9142 10.8017 17.4491 10.4261 17.0735C10.0505 16.6979 9.58531 16.4242 9.07455 16.2783L6.70288 15.6008C6.57239 15.5635 6.45761 15.4846 6.3759 15.3762C6.29419 15.2678 6.25 15.1357 6.25 15C6.25 14.8643 6.29419 14.7322 6.3759 14.6238C6.45761 14.5154 6.57239 14.4365 6.70288 14.3992L9.07455 13.7217C9.58531 13.5758 10.0505 13.3021 10.4261 12.9265C10.8017 12.5509 11.0753 12.0858 11.2212 11.575L11.8987 9.20333C11.936 9.07275 12.0148 8.95788 12.1232 8.87608C12.2316 8.79429 12.3637 8.75003 12.4995 8.75ZM19.9996 6.25C20.139 6.24992 20.2744 6.29647 20.3844 6.38224C20.4943 6.46801 20.5724 6.58807 20.6062 6.72333L20.8212 7.58667C21.0179 8.37 21.6296 8.98167 22.4129 9.17833L23.2762 9.39333C23.4117 9.4269 23.5321 9.50488 23.6182 9.61483C23.7042 9.72479 23.7509 9.86038 23.7509 10C23.7509 10.1396 23.7042 10.2752 23.6182 10.3852C23.5321 10.4951 23.4117 10.5731 23.2762 10.6067L22.4129 10.8217C21.6296 11.0183 21.0179 11.63 20.8212 12.4133L20.6062 13.2767C20.5727 13.4122 20.4947 13.5326 20.3847 13.6186C20.2748 13.7047 20.1392 13.7514 19.9996 13.7514C19.8599 13.7514 19.7243 13.7047 19.6144 13.6186C19.5044 13.5326 19.4265 13.4122 19.3929 13.2767L19.1779 12.4133C19.0817 12.0287 18.8828 11.6774 18.6025 11.3971C18.3221 11.1167 17.9709 10.9178 17.5862 10.8217L16.7229 10.6067C16.5874 10.5731 16.467 10.4951 16.3809 10.3852C16.2949 10.2752 16.2482 10.1396 16.2482 10C16.2482 9.86038 16.2949 9.72479 16.3809 9.61483C16.467 9.50488 16.5874 9.4269 16.7229 9.39333L17.5862 9.17833C17.9709 9.08218 18.3221 8.88329 18.6025 8.60294C18.8828 8.32258 19.0817 7.97131 19.1779 7.58667L19.3929 6.72333C19.4267 6.58807 19.5048 6.46801 19.6147 6.38224C19.7247 6.29647 19.8601 6.24992 19.9996 6.25ZM18.7495 17.5C18.8808 17.4999 19.0088 17.5412 19.1153 17.6179C19.2218 17.6946 19.3014 17.803 19.3429 17.9275L19.6712 18.9133C19.7962 19.2858 20.0879 19.5792 20.4612 19.7033L21.4471 20.0325C21.5712 20.0742 21.6791 20.1538 21.7556 20.2601C21.832 20.3664 21.8731 20.4941 21.8731 20.625C21.8731 20.7559 21.832 20.8836 21.7556 20.9899C21.6791 21.0962 21.5712 21.1758 21.4471 21.2175L20.4612 21.5467C20.0887 21.6717 19.7954 21.9633 19.6712 22.3367L19.3421 23.3225C19.3004 23.4466 19.2208 23.5545 19.1144 23.631C19.0081 23.7075 18.8805 23.7486 18.7495 23.7486C18.6186 23.7486 18.491 23.7075 18.3847 23.631C18.2783 23.5545 18.1987 23.4466 18.157 23.3225L17.8279 22.3367C17.7665 22.1527 17.6632 21.9856 17.5261 21.8485C17.3889 21.7114 17.2218 21.6081 17.0379 21.5467L16.052 21.2175C15.9279 21.1758 15.82 21.0962 15.7435 20.9899C15.6671 20.8836 15.626 20.7559 15.626 20.625C15.626 20.4941 15.6671 20.3664 15.7435 20.2601C15.82 20.1538 15.9279 20.0742 16.052 20.0325L17.0379 19.7033C17.4104 19.5783 17.7037 19.2867 17.8279 18.9133L18.157 17.9275C18.1985 17.8031 18.278 17.6949 18.3843 17.6182C18.4907 17.5414 18.6184 17.5001 18.7495 17.5Z" fill="white"/>
</svg>
