<svg width="36" height="36" viewBox="0 0 36 36" fill="none" xmlns="http://www.w3.org/2000/svg">
<g clip-path="url(#clip0_6808_5097)">
<path d="M11.4375 14.7109H13.6252V16.8986H11.4375V14.7109ZM15.8129 14.7109H24.5636V16.8986H15.8129V14.7109ZM11.4375 20.1801H13.6252V22.3678H11.4375V20.1801ZM11.4375 25.6493H13.6252V27.837H11.4375V25.6493Z" fill="#6434D0" fill-opacity="0.5"/>
<path d="M8.15643 31.135V8.16449H11.438V11.446H24.564V8.16449H27.8456V16.9152H30.0332V8.16449C30.0332 7.58428 29.8028 7.02784 29.3925 6.61757C28.9822 6.2073 28.4258 5.97682 27.8456 5.97682H24.564V4.88298C24.564 4.30278 24.3336 3.74633 23.9233 3.33607C23.513 2.9258 22.9566 2.69531 22.3764 2.69531H13.6256C13.0454 2.69531 12.489 2.9258 12.0787 3.33607C11.6684 3.74633 11.438 4.30278 11.438 4.88298V5.97682H8.15643C7.57622 5.97682 7.01978 6.2073 6.60951 6.61757C6.19924 7.02784 5.96875 7.58428 5.96875 8.16449V31.135C5.96875 31.7152 6.19924 32.2717 6.60951 32.6819C7.01978 33.0922 7.57622 33.3227 8.15643 33.3227H18.001V31.135H8.15643ZM13.6256 4.88298H22.3764V9.25832H13.6256V4.88298Z" fill="#6434D0"/>
<path d="M20.1877 21.2882V23.9276C20.8747 22.7789 21.851 21.8305 23.0192 21.1771C24.1873 20.5236 25.5064 20.188 26.8448 20.2036C28.1832 20.2193 29.494 20.5858 30.6465 21.2664C31.7991 21.947 32.7529 22.918 33.4128 24.0825C34.0728 25.247 34.4158 26.5642 34.4075 27.9026C34.3993 29.2411 34.0402 30.5539 33.366 31.7102C32.6917 32.8665 31.7261 33.8257 30.5653 34.4921C29.4045 35.1585 28.0892 35.5088 26.7507 35.5081V33.3204C27.7371 33.3217 28.7054 33.0562 29.5532 32.5521C30.401 32.048 31.0967 31.324 31.5666 30.4568C32.0365 29.5896 32.2631 28.6114 32.2225 27.6259C32.1818 26.6404 31.8755 25.6842 31.3358 24.8586C30.796 24.0331 30.0431 23.3688 29.1567 22.9362C28.2703 22.5036 27.2834 22.3187 26.3005 22.4012C25.3176 22.4837 24.3753 22.8305 23.5734 23.4048C22.7715 23.9791 22.1399 24.7596 21.7453 25.6635H24.563V27.8512H18V21.2882H20.1877Z" fill="#6434D0" fill-opacity="0.5"/>
</g>
<defs>
<clipPath id="clip0_6808_5097">
<rect width="35.0029" height="35.0027" fill="white" transform="translate(0.498047 0.5)"/>
</clipPath>
</defs>
</svg>
