<svg width="36" height="36" viewBox="0 0 36 36" fill="none" xmlns="http://www.w3.org/2000/svg">
<g clip-path="url(#clip0_6827_4969)">
<path d="M18.0009 2.4375C14.9243 2.4375 11.9168 3.34982 9.35867 5.05908C6.80057 6.76835 4.80678 9.1978 3.62942 12.0402C2.45205 14.8826 2.144 18.0103 2.74422 21.0278C3.34443 24.0453 4.82595 26.817 7.00144 28.9925C9.17692 31.168 11.9487 32.6495 14.9661 33.2497C17.9836 33.8499 21.1113 33.5419 23.9537 32.3645C26.7961 31.1872 29.2256 29.1934 30.9348 26.6353C32.6441 24.0772 33.5564 21.0697 33.5564 17.9931C33.5564 13.8675 31.9175 9.91085 29.0003 6.99362C26.0831 4.07638 22.1265 2.4375 18.0009 2.4375ZM18.0009 31.6042C15.3089 31.6042 12.6773 30.8059 10.4389 29.3103C8.20061 27.8147 6.45604 25.6889 5.42585 23.2018C4.39566 20.7147 4.12611 17.978 4.6513 15.3377C5.17649 12.6974 6.47282 10.2721 8.37637 8.36855C10.2799 6.465 12.7052 5.16867 15.3455 4.64348C17.9858 4.11829 20.7225 4.38784 23.2096 5.41803C25.6967 6.44822 27.8225 8.19279 29.3181 10.4311C30.8137 12.6695 31.612 15.301 31.612 17.9931C31.612 21.6029 30.178 25.065 27.6254 27.6176C25.0728 30.1701 21.6108 31.6042 18.0009 31.6042Z" fill="#6434D0"/>
<path d="M18.8956 18.3785V10.941C18.8956 10.6831 18.7932 10.4358 18.6109 10.2535C18.4285 10.0712 18.1812 9.96875 17.9234 9.96875C17.6655 9.96875 17.4183 10.0712 17.2359 10.2535C17.0536 10.4358 16.9512 10.6831 16.9512 10.941V19.4188L22.6873 23.3076C22.7929 23.3871 22.9137 23.4442 23.0422 23.4754C23.1707 23.5066 23.3042 23.5113 23.4345 23.4892C23.5648 23.467 23.6893 23.4185 23.8003 23.3466C23.9112 23.2747 24.0064 23.181 24.0799 23.0711C24.1534 22.9612 24.2037 22.8374 24.2277 22.7074C24.2517 22.5774 24.249 22.4439 24.2197 22.3149C24.1903 22.186 24.135 22.0644 24.0571 21.9576C23.9792 21.8508 23.8803 21.761 23.7664 21.6938L18.8956 18.3785Z" fill="#6434D0"/>
<path d="M8.27897 17.9246C8.27008 16.1756 8.73601 14.457 9.62708 12.952C10.5182 11.447 11.801 10.212 13.3387 9.37875C14.8765 8.5455 16.6116 8.14521 18.359 8.22054C20.1064 8.29588 21.8006 8.84402 23.2609 9.80653L24.0873 8.4843C22.7002 7.57567 21.129 6.98552 19.4867 6.75627C17.8444 6.52702 16.1717 6.66434 14.5887 7.15839C13.0058 7.65243 11.5519 8.49092 10.3316 9.61363C9.11119 10.7363 8.15463 12.1154 7.53058 13.6517C6.90654 15.1881 6.6305 16.8436 6.7223 18.4993C6.8141 20.155 7.27146 21.7698 8.06152 23.2277C8.85158 24.6856 9.95474 25.9505 11.2917 26.9314C12.6287 27.9123 14.1664 28.585 15.7942 28.901L16.0567 27.4135C13.8673 26.9666 11.8986 25.7791 10.482 24.0509C9.06545 22.3226 8.28745 20.1592 8.27897 17.9246Z" fill="#6434D0" fill-opacity="0.5"/>
</g>
<defs>
<clipPath id="clip0_6827_4969">
<rect width="35" height="35" fill="white" transform="translate(0.5 0.5)"/>
</clipPath>
</defs>
</svg>
