<svg width="168" height="28" viewBox="0 0 168 28" fill="none" xmlns="http://www.w3.org/2000/svg">
<path d="M8.27757 10.185C8.27757 11.074 7.49745 11.7947 6.53513 11.7947C5.57281 11.7947 4.79269 11.074 4.79269 10.185C4.79269 9.29596 5.57281 8.60023 6.53513 8.60023C7.49745 8.60023 8.27757 9.29596 8.27757 10.185Z" fill="#4F3895"/>
<path d="M14.3761 10.1975C14.3761 11.0796 13.596 11.7947 12.6337 11.7947C11.6713 11.7947 10.8912 11.0796 10.8912 10.1975C10.8912 9.31534 11.6713 8.60023 12.6337 8.60023C13.596 8.60023 14.3761 9.31534 14.3761 10.1975Z" fill="#4F3895"/>
<path fill-rule="evenodd" clip-rule="evenodd" d="M2.39683 0.785156C1.07364 0.785156 0.000976562 1.9089 0.000976562 3.29511V24.6297C0.000976562 26.0159 1.07364 27.1396 2.39683 27.1396H16.772C18.0952 27.1396 19.1678 26.0159 19.1678 24.6297V3.29511C19.1678 1.9089 18.0952 0.785156 16.772 0.785156H2.39683ZM5.39165 7.06003C3.73766 7.06003 2.39683 8.46471 2.39683 10.1975C2.39683 11.9302 3.73766 13.3349 5.39165 13.3349H13.7772C15.4311 13.3349 16.772 11.9302 16.772 10.1975C16.772 8.46471 15.4311 7.06003 13.7772 7.06003H5.39165Z" fill="#4F3895"/>
<path d="M38.2447 15.3012H47.2052V12.8574H38.2447V4.7115H49.2417V2.26772H34.9863V25.8909H38.2447V15.3012Z" fill="#4F3895"/>
<path d="M56.2134 26.2982C60.1235 26.2982 63.3411 23.1213 63.3411 19.1705C63.3411 15.2605 60.1235 12.0428 56.2134 12.0428C52.2627 12.0428 49.0858 15.2605 49.0858 19.1705C49.0858 23.1213 52.2627 26.2982 56.2134 26.2982ZM56.2134 14.4866C58.3314 14.4866 60.0827 16.6046 60.0827 19.1705C60.0827 21.7772 58.3314 23.8544 56.2134 23.8544C54.0548 23.8544 52.3441 21.7772 52.3441 19.1705C52.3441 16.6046 54.0548 14.4866 56.2134 14.4866Z" fill="#4F3895"/>
<path d="M69.2676 19.1705C69.2676 16.6046 70.9782 14.4866 73.1369 14.4866C73.3813 14.4866 73.6664 14.5273 73.9515 14.6088V12.0836C73.7478 12.0836 73.5442 12.0428 73.3405 12.0428C71.7928 12.0428 70.408 12.5723 69.2676 13.4276V12.4909H66.0092V25.8909H69.2676V19.1705Z" fill="#4F3895"/>
<path d="M92.0809 12.0428C90.2888 12.0428 88.6596 12.8982 87.6007 14.2015C86.501 12.8982 84.9125 12.0428 83.1204 12.0428C81.98 12.0428 80.921 12.3687 80.0657 12.9389V12.4501H76.8073V25.8909H80.0657V18.1116C80.0657 16.1158 81.3283 14.4866 82.876 14.4866C84.4645 14.4866 85.7271 16.1565 85.7271 18.1523V25.8909H89.0262V18.1523H88.9855C89.0262 16.1158 90.2888 14.4866 91.8365 14.4866C93.425 14.4866 94.6876 16.1565 94.6876 18.1523V25.8909H97.9867V18.1523C97.9867 14.8125 95.3393 12.0428 92.0809 12.0428Z" fill="#4F3895"/>
<path d="M107.779 26.2982C110.508 26.2982 112.911 24.7505 114.092 22.4289H110.549C109.816 23.3249 108.838 23.8544 107.779 23.8544C105.987 23.8544 104.48 22.3882 104.032 20.3924H114.785C114.866 20.0258 114.907 19.6186 114.907 19.1705C114.907 18.7632 114.866 18.3559 114.785 17.9486C114.215 14.6088 111.282 12.0428 107.779 12.0428C104.236 12.0428 101.303 14.6088 100.733 17.9486C100.652 18.3559 100.652 18.7632 100.652 19.1705C100.652 19.6186 100.652 20.0258 100.733 20.3924C101.303 23.773 104.236 26.2982 107.779 26.2982ZM107.779 14.4866C109.531 14.4866 111.038 15.9936 111.486 17.9486H104.032C104.48 15.9936 105.987 14.4866 107.779 14.4866Z" fill="#4F3895"/>
<path d="M127.562 19.1298C126.463 18.3967 124.956 17.9894 123.327 17.9894C121.86 17.9894 120.679 17.1748 120.679 16.238C120.679 15.3012 121.86 14.5273 123.327 14.5273C124.752 14.5273 125.974 15.3012 125.974 16.238H129.232C129.232 13.9164 126.585 12.0836 123.327 12.0836C120.027 12.0836 117.421 13.9164 117.421 16.238C117.421 17.3784 118.032 18.3967 119.05 19.1298C120.15 19.9444 121.657 20.4331 123.327 20.4331C124.874 20.4331 126.178 21.207 126.178 22.1438C126.178 23.0806 124.874 23.8952 123.327 23.8952C121.738 23.8952 120.475 23.0806 120.475 22.1438H117.217C117.217 24.4654 119.946 26.3389 123.327 26.3389C126.666 26.3389 129.436 24.4654 129.436 22.1438C129.436 20.9626 128.703 19.9037 127.562 19.1298Z" fill="#4F3895"/>
<path d="M137.128 1.45312H133.87V12.4909H131.834V14.9346H133.87V21.207C133.87 24.0581 136.11 26.2982 138.961 26.2982H140.183V23.8544H138.961C137.943 23.8544 137.128 22.6733 137.128 21.207V14.9346H140.998V12.4909H137.128V1.45312Z" fill="#4F3895"/>
<path d="M149.72 26.2982C152.448 26.2982 154.852 24.7505 156.033 22.4289H152.489C151.756 23.3249 150.779 23.8544 149.72 23.8544C147.928 23.8544 146.421 22.3882 145.972 20.3924H156.725C156.807 20.0258 156.847 19.6186 156.847 19.1705C156.847 18.7632 156.807 18.3559 156.725 17.9486C156.155 14.6088 153.222 12.0428 149.72 12.0428C146.176 12.0428 143.244 14.6088 142.673 17.9486C142.592 18.3559 142.592 18.7632 142.592 19.1705C142.592 19.6186 142.592 20.0258 142.673 20.3924C143.244 23.773 146.176 26.2982 149.72 26.2982ZM149.72 14.4866C151.471 14.4866 152.978 15.9936 153.426 17.9486H145.972C146.421 15.9936 147.928 14.4866 149.72 14.4866Z" fill="#4F3895"/>
<path d="M162.774 19.1705C162.774 16.6046 164.484 14.4866 166.643 14.4866C166.887 14.4866 167.173 14.5273 167.458 14.6088V12.0836C167.254 12.0836 167.05 12.0428 166.847 12.0428C165.299 12.0428 163.914 12.5723 162.774 13.4276V12.4909H159.515V25.8909H162.774V19.1705Z" fill="#4F3895"/>
</svg>
