<svg width="145" height="29" viewBox="0 0 145 29" fill="none" xmlns="http://www.w3.org/2000/svg">
<g clip-path="url(#clip0_5589_13930)">
<path fill-rule="evenodd" clip-rule="evenodd" d="M99.6371 21.8868C98.7094 21.8868 97.8147 21.5548 97.152 20.891C96.4893 20.2271 96.0585 19.2313 96.0585 17.8704C96.0585 16.5095 96.4893 15.5137 97.152 14.8499C97.8147 14.186 98.7094 13.8541 99.6371 13.8541C100.565 13.8541 101.46 14.186 102.122 14.8499C102.785 15.5137 103.216 16.5095 103.216 17.8704C103.216 19.2313 102.785 20.2271 102.122 20.891C101.46 21.5548 100.565 21.8868 99.6371 21.8868ZM99.6371 9.47266C94.8657 9.47266 91.2539 12.9911 91.2539 17.8704C91.2539 22.7166 94.8657 26.2682 99.6371 26.2682C104.409 26.2682 108.02 22.7166 108.02 17.8704C108.02 12.9911 104.409 9.47266 99.6371 9.47266Z" fill="#0A1551"/>
<path fill-rule="evenodd" clip-rule="evenodd" d="M59.975 21.8868C59.0472 21.8868 58.1526 21.5548 57.4899 20.891C56.8272 20.2271 56.3964 19.2313 56.3964 17.8704C56.3964 16.5095 56.8272 15.5137 57.4899 14.8499C58.1526 14.186 59.0472 13.8541 59.975 13.8541C60.9028 13.8541 61.7975 14.186 62.4602 14.8499C63.1229 15.5137 63.5536 16.5095 63.5536 17.8704C63.5536 19.2313 63.1229 20.2271 62.4602 20.891C61.8306 21.5548 60.9359 21.8868 59.975 21.8868ZM59.975 9.47266C55.2035 9.47266 51.5918 12.9911 51.5918 17.8704C51.5918 22.7166 55.2035 26.2682 59.975 26.2682C64.7465 26.2682 68.3583 22.7166 68.3583 17.8704C68.3583 12.9911 64.7465 9.47266 59.975 9.47266Z" fill="#0A1551"/>
<path fill-rule="evenodd" clip-rule="evenodd" d="M121.043 26.2663H125.814V16.74C125.814 15.9433 126.046 15.2795 126.477 14.7816C126.908 14.3169 127.537 13.985 128.366 13.985C129.227 13.985 129.824 14.2837 130.188 14.7152C130.553 15.1467 130.752 15.8106 130.752 16.6072V26.2331H135.49V16.74C135.49 15.9765 135.722 15.2795 136.153 14.8148C136.583 14.3169 137.213 14.0181 138.008 14.0181C138.87 14.0181 139.466 14.3169 139.831 14.7484C140.195 15.1799 140.394 15.8437 140.394 16.6404V26.2663H145.033V15.7774C145.033 13.653 144.337 12.093 143.21 11.064C142.117 10.0682 140.659 9.60351 139.168 9.60351C138.108 9.60351 137.147 9.76947 136.285 10.201C135.556 10.5661 134.893 11.1304 134.33 11.8606C133.402 10.3669 131.746 9.57031 129.757 9.57031C128.3 9.57031 126.643 10.1346 125.582 11.2631V10.0018H121.01V26.2663H121.043Z" fill="#0A1551"/>
<path fill-rule="evenodd" clip-rule="evenodd" d="M119.255 10.0058V14.852L118.891 14.7856C118.46 14.686 118.062 14.6528 117.698 14.6528C116.704 14.6528 115.809 14.8852 115.146 15.5158C114.517 16.1133 114.053 17.1091 114.053 18.7023V26.2371H109.314V10.039H113.92V11.5659C115.047 10.205 116.836 9.90625 117.963 9.90625C118.327 9.90625 118.659 9.93944 118.957 9.97264L119.255 10.0058Z" fill="#0A1551"/>
<path fill-rule="evenodd" clip-rule="evenodd" d="M33.8652 18.2672H38.471L38.5373 18.3336C38.5704 18.3668 38.6036 18.4332 38.6036 18.4664C38.703 19.4621 39.1006 20.2256 39.697 20.7567C40.2935 21.2546 41.0556 21.4869 41.8508 21.4869C42.8118 21.4869 43.607 21.1218 44.1703 20.4911C44.7005 19.8605 44.9987 18.9974 44.9987 18.0349V4.55859H50.0021V18.1676C50.0021 22.5159 46.6555 26.1671 41.884 26.1671C39.4982 26.1671 37.5101 25.3705 36.1184 24.0096C34.7599 22.6818 33.9315 20.7567 33.8984 18.4332L33.8652 18.2672Z" fill="#0A1551"/>
<path fill-rule="evenodd" clip-rule="evenodd" d="M90.5592 6.78391L90.8243 6.8503V3.19909L90.6917 3.13271C90.4929 3.03313 90.1947 2.96675 89.8633 2.90036C89.4989 2.83397 89.1012 2.80078 88.6705 2.80078C87.0468 2.80078 85.1913 3.33187 84.2303 4.32765C83.2694 5.29024 82.7393 6.68434 82.7393 8.34397V9.10741H80.3535V13.2565H82.7393V26.2349H87.5439V13.2897H90.7911V9.1406H87.5439V8.44355C87.5439 7.68012 87.809 7.24861 88.1403 7.01626C88.4717 6.75072 88.9356 6.65114 89.3663 6.65114C90.029 6.65114 90.3935 6.75072 90.5592 6.78391Z" fill="#0A1551"/>
<path fill-rule="evenodd" clip-rule="evenodd" d="M78.6973 22.2875L78.9292 22.2211V25.9055L78.8298 25.9719C78.6641 26.0715 78.3659 26.1378 78.0346 26.2042C77.7032 26.2706 77.3056 26.3038 76.9411 26.3038C75.4169 26.3038 73.6938 25.7727 72.7992 24.7769C71.9045 23.7812 71.4075 22.3871 71.4075 20.7274V13.3586H69.1543V9.17634H71.4075V4.69531H75.9139V9.20953H78.9623V13.3918H75.9139V20.661C75.9139 21.4245 76.1458 21.856 76.4772 22.0883C76.8085 22.3539 77.2393 22.4534 77.6038 22.4534C78.2002 22.4203 78.5316 22.3207 78.6973 22.2875Z" fill="#0A1551"/>
<path d="M7.15722 26.8661C7.68739 27.3972 7.3229 28.2934 6.56079 28.2934H1.72303C0.762111 28.2934 0 27.5632 0 26.6338V21.9868C0 21.2566 0.927788 20.8915 1.45795 21.3893L7.15722 26.8661Z" fill="#0A1551"/>
<path d="M14.6799 27.2651C13.2551 25.871 13.2551 23.5807 14.6799 22.1866L19.8159 17.1081C21.2407 15.714 23.5602 15.714 24.985 17.1081C26.4098 18.5022 26.4098 20.7925 24.985 22.1866L19.849 27.2651C18.4242 28.6592 16.1048 28.6592 14.6799 27.2651Z" fill="#FFB21D"/>
<path d="M1.094 14.5182C-0.330814 13.1241 -0.330814 10.8338 1.094 9.43969L8.81452 1.83854C10.2393 0.444445 12.5588 0.444445 13.9836 1.83854C15.4084 3.23264 15.4084 5.52294 13.9836 6.91704L6.26311 14.5182C4.83829 15.9455 2.51882 15.9455 1.094 14.5182Z" fill="#0099FF"/>
<path d="M8.15064 20.6244C6.72583 19.2303 6.72583 16.94 8.15064 15.5459L19.8805 3.99479C21.3054 2.60069 23.6248 2.60069 25.0496 3.99479C26.4745 5.38889 26.4745 7.67919 25.0496 9.07329L13.3197 20.6244C11.8949 22.0185 9.6086 22.0185 8.15064 20.6244Z" fill="#FF6100"/>
</g>
<defs>
<clipPath id="clip0_5589_13930">
<rect width="145" height="27.55" fill="white" transform="translate(0 0.777344)"/>
</clipPath>
</defs>
</svg>
