<svg width="137" height="31" viewBox="0 0 137 31" fill="none" xmlns="http://www.w3.org/2000/svg">
<g clip-path="url(#clip0_5589_13943)">
<path d="M88.4897 21.4619C85.6379 21.4619 84.1734 19.1138 84.1734 16.2297C84.1734 13.3456 85.6121 11.1251 88.4897 11.1251C91.4187 11.1251 92.8066 13.4477 92.8066 16.2297C92.7809 19.1648 91.3164 21.4619 88.4897 21.4619ZM60.5864 11.1251C62.2562 11.1251 62.9501 12.095 62.9501 12.9372C62.9501 14.9791 60.8688 15.8723 56.5268 16C56.5268 13.4732 57.9655 11.1251 60.5864 11.1251ZM42.0866 21.4619C39.3888 21.4619 38.2582 19.2669 38.2582 16.2297C38.2582 13.218 39.4145 11.1251 42.0866 11.1251C44.8102 11.1251 46.0949 13.2946 46.0949 16.2297C46.0949 19.2924 44.7588 21.4619 42.0866 21.4619ZM19.2704 8.13895H15.0566L22.0454 24.1673C20.7093 27.128 19.9899 27.8681 19.0649 27.8681C18.0885 27.8681 17.1635 27.0769 16.4955 26.3878L14.6455 28.838C15.9045 30.1652 17.626 30.9309 19.3989 30.9309C21.6086 30.9309 23.3044 29.6547 24.2808 27.3577L32.3487 8.11339H28.2119L23.9981 19.5987L19.2704 8.13895ZM130.885 11.1251C132.94 11.1251 133.351 12.5289 133.351 15.8213V24.4736H137V13.5498C137 9.61928 134.302 7.90924 131.81 7.90924C129.6 7.90924 127.57 9.28746 126.44 11.8397C125.797 9.38956 123.742 7.90924 121.352 7.90924C119.271 7.90924 117.19 9.2364 116.06 11.7121V8.13895H112.411V24.448H116.06V17.4803C116.06 13.9581 117.909 11.1251 120.427 11.1251C122.483 11.1251 122.868 12.5289 122.868 15.8213V24.4736H126.517L126.491 17.4803C126.491 13.9581 128.367 11.1251 130.885 11.1251ZM101.771 8.13895H99.9239V24.448H103.572V18.195C103.572 14.2389 105.319 11.559 107.915 11.559C108.582 11.559 109.148 11.5845 109.764 11.8397L110.33 7.98579C109.867 7.93473 109.456 7.88368 109.045 7.88368C106.476 7.88368 104.625 9.64477 103.546 11.9163V8.13895H101.771ZM88.4897 7.88368C83.6595 7.88368 80.3961 11.559 80.3961 16.2042C80.3961 21.028 83.7109 24.6267 88.4897 24.6267C93.3462 24.6267 96.6605 20.9259 96.6605 16.2042C96.6348 11.5335 93.269 7.88368 88.4897 7.88368ZM60.7916 21.4619C58.8904 21.4619 57.4774 20.492 56.8863 18.5267C61.7165 18.3226 66.4444 17.1485 66.4444 12.8862C66.4444 10.436 64.0293 7.90924 60.5607 7.90924C55.8843 7.90924 52.7239 11.7121 52.7239 16.2297C52.7239 20.9514 55.8329 24.6523 60.4835 24.6523C63.7207 24.6523 65.7762 23.3506 67.3951 21.4619L65.6224 19.0627C63.7464 20.977 62.5905 21.4619 60.7916 21.4619ZM42.8061 7.88368C40.9561 7.88368 39.1062 8.95564 38.3867 10.6402V8.13895H34.7382V30.8543H38.3867V22.738C39.1576 23.9121 40.9304 24.6778 42.4977 24.6778C47.3539 24.6778 49.9233 21.079 49.9233 16.2297C49.8976 11.4314 47.3796 7.88368 42.8061 7.88368ZM17.2149 1.60507H0V5.15275H6.73179V24.448H10.5602V5.15275H17.2149V1.60507ZM71.4547 8.13895H69.2706V11.4059H71.4547V24.448H75.1034V11.4059H78.6492V8.13895H75.1034V5.58664C75.1034 3.95317 75.7716 3.39167 77.2876 3.39167C77.8523 3.39167 78.3662 3.54481 79.0602 3.77451L79.8822 0.711762C79.2145 0.328919 77.8781 0.175781 77.0046 0.175781C73.5103 0.175781 71.4547 2.26866 71.4547 5.89293V8.13895Z" fill="#262627"/>
</g>
<defs>
<clipPath id="clip0_5589_13943">
<rect width="137" height="30.7551" fill="white" transform="translate(0 0.175781)"/>
</clipPath>
</defs>
</svg>
