<svg width="162" height="38" viewBox="0 0 162 38" fill="none" xmlns="http://www.w3.org/2000/svg">
<path d="M18.9624 37.9249C29.4351 37.9249 37.9249 29.4351 37.9249 18.9624C37.9249 8.4898 29.4351 0 18.9624 0C8.4898 0 0 8.4898 0 18.9624C0 29.4351 8.4898 37.9249 18.9624 37.9249Z" fill="#FF6154"/>
<path d="M21.491 9.4812H12.3259V28.4437H16.1184V22.7549H21.491C25.1571 22.7549 28.1279 19.7842 28.1279 16.1181C28.1279 12.452 25.1571 9.4812 21.491 9.4812ZM21.491 18.9625H16.1184V13.2737H21.491C23.0618 13.2737 24.3354 14.5474 24.3354 16.1181C24.3354 17.6888 23.0618 18.9625 21.491 18.9625Z" fill="white"/>
<path d="M50.5673 25.2832V12.6416H56.3746C59.0751 12.6416 60.5447 14.4667 60.5447 16.6442C60.5447 18.8218 59.0562 20.6279 56.3746 20.6279H53.211V25.2832H50.5673ZM57.8473 16.6442C57.8473 15.6013 57.0462 14.9676 56.0032 14.9676H53.211V18.3003H56.0032C57.0446 18.3003 57.8473 17.6666 57.8473 16.6427V16.6442Z" fill="black"/>
<path d="M62.1535 25.2832V16.0675H64.5175V17.2779C65.1701 16.4957 66.2683 15.8446 67.3855 15.8446V18.1533C67.218 18.1154 67.0126 18.098 66.7329 18.098C65.9507 18.098 64.9078 18.5452 64.5159 19.122V25.2848H62.1519L62.1535 25.2832Z" fill="black"/>
<path d="M68.2808 20.5537C68.2808 18.0033 70.068 15.8431 73.0293 15.8431C75.9906 15.8431 77.7952 18.0033 77.7952 20.5537C77.7952 23.1041 76.008 25.2832 73.0293 25.2832C70.0506 25.2832 68.2808 23.1041 68.2808 20.5537ZM75.338 20.5537C75.338 19.1568 74.5178 17.9464 73.0293 17.9464C71.5407 17.9464 70.738 19.1568 70.738 20.5537C70.738 21.9506 71.5565 23.1784 73.0293 23.1784C74.502 23.1784 75.338 21.968 75.338 20.5537Z" fill="black"/>
<path d="M85.751 25.2832V23.9053C85.043 24.7997 84.076 25.2832 82.976 25.2832C80.7226 25.2832 78.9922 23.5703 78.9922 20.5537C78.9922 17.537 80.6878 15.8431 82.976 15.8431C84.038 15.8431 85.043 16.2903 85.751 17.221V12.6416H88.134V25.2832H85.751ZM85.751 22.1544V18.9703C85.359 18.3746 84.502 17.9463 83.72 17.9463C82.361 17.9463 81.4305 19.0082 81.4305 20.5537C81.4305 22.0991 82.361 23.1784 83.72 23.1784C84.502 23.1784 85.359 22.7501 85.751 22.1544Z" fill="black"/>
<path d="M96.556 25.2833V23.9243C95.941 24.5943 94.862 25.2833 93.392 25.2833C91.419 25.2833 90.488 24.2024 90.488 22.4531V16.0675H92.852V21.5224C92.852 22.7708 93.504 23.18 94.509 23.18C95.423 23.18 96.148 22.6775 96.557 22.156V16.0675H98.923V25.2833H96.556Z" fill="black"/>
<path d="M100.696 20.5537C100.696 17.7978 102.706 15.8431 105.462 15.8431C107.306 15.8431 108.423 16.6443 109.019 17.4628L107.472 18.915C107.043 18.2814 106.392 17.9464 105.574 17.9464C104.139 17.9464 103.134 18.9893 103.134 20.5537C103.134 22.1181 104.139 23.1784 105.574 23.1784C106.392 23.1784 107.045 22.8055 107.472 22.1908L109.019 23.643C108.423 24.4631 107.306 25.2817 105.462 25.2817C102.706 25.2817 100.696 23.327 100.696 20.5521V20.5537Z" fill="black"/>
<path d="M111.052 22.807V18.1344H109.563V16.0675H111.052V13.6102H113.417V16.0675H115.241V18.1344H113.417V22.1749C113.417 22.7517 113.714 23.18 114.236 23.18C114.59 23.18 114.926 23.0488 115.054 22.9003L115.558 24.7064C115.204 25.024 114.571 25.2848 113.585 25.2848C111.927 25.2848 111.053 24.4283 111.053 22.8086L111.052 22.807Z" fill="black"/>
<path d="M130.384 25.2832V19.8283H124.519V25.2832H121.877V12.6416H124.519V17.5197H130.384V12.6416H133.047V25.2832H130.384Z" fill="black"/>
<path d="M141.508 25.2833V23.9243C140.893 24.5943 139.814 25.2833 138.345 25.2833C136.371 25.2833 135.44 24.2024 135.44 22.4531V16.0675H137.804V21.5224C137.804 22.7708 138.457 23.18 139.462 23.18C140.375 23.18 141.1 22.6775 141.51 22.156V16.0675H143.875V25.2833H141.51H141.508Z" fill="black"/>
<path d="M152.293 25.2832V19.623C152.293 18.3746 151.642 17.9464 150.635 17.9464C149.705 17.9464 148.998 18.4678 148.587 18.9893V25.2817H146.223V16.0659H148.587V17.2211C149.166 16.551 150.283 15.8431 151.735 15.8431C153.728 15.8431 154.676 16.9603 154.676 18.7096V25.2817H152.293V25.2832Z" fill="black"/>
<path d="M157.493 22.807V18.1344H156.005V16.0675H157.493V13.6102H159.859V16.0675H161.682V18.1344H159.859V22.1749C159.859 22.7517 160.156 23.18 160.677 23.18C161.031 23.18 161.368 23.0488 161.498 22.9003L162 24.7064C161.646 25.024 161.012 25.2848 160.026 25.2848C158.369 25.2848 157.495 24.4283 157.495 22.8086L157.493 22.807Z" fill="black"/>
</svg>
