<svg width="32" height="32" viewBox="0 0 32 32" fill="none" xmlns="http://www.w3.org/2000/svg">
<path opacity="0.1" fill-rule="evenodd" clip-rule="evenodd" d="M0 16C0 7.16344 7.16344 0 16 0C24.8366 0 32 7.16344 32 16C32 24.8366 24.8366 32 16 32C7.16344 32 0 24.8366 0 16Z" fill="#FCF7FF"/>
<path d="M19.4443 17.4903L19.9126 14.4369H16.983V12.4563C16.983 11.6208 17.3915 10.8058 18.7036 10.8058H20.0364V8.20631C20.0364 8.20631 18.8274 8 17.6721 8C15.2583 8 13.682 9.46274 13.682 12.1097V14.4369H11V17.4903H13.682V24.8721C14.2205 24.9567 14.7714 25 15.3325 25C15.8937 25 16.4445 24.9567 16.983 24.8721V17.4903H19.4443Z" fill="#FCF7FF"/>
</svg>
