<svg width="30" height="30" viewBox="0 0 30 30" fill="none" xmlns="http://www.w3.org/2000/svg">
<circle cx="15" cy="15" r="15" fill="#FF5A5F"/>
<path fill-rule="evenodd" clip-rule="evenodd" d="M6.25 9.6875C6.25 8.82417 6.95 8.125 7.8125 8.125H22.1875C23.05 8.125 23.75 8.825 23.75 9.6875V20.3125C23.75 21.175 23.05 21.875 22.1875 21.875H7.8125C7.3981 21.875 7.00067 21.7104 6.70765 21.4174C6.41462 21.1243 6.25 20.7269 6.25 20.3125V9.6875ZM22.5 12.8125C22.5 12.7296 22.4671 12.6501 22.4085 12.5915C22.3499 12.5329 22.2704 12.5 22.1875 12.5H15.9375C15.8546 12.5 15.7751 12.5329 15.7165 12.5915C15.6579 12.6501 15.625 12.7296 15.625 12.8125V14.0625C15.625 14.235 15.765 14.375 15.9375 14.375H22.1875C22.2704 14.375 22.3499 14.3421 22.4085 14.2835C22.4671 14.2249 22.5 14.1454 22.5 14.0625V12.8125ZM22.5 15.9375C22.5 15.8546 22.4671 15.7751 22.4085 15.7165C22.3499 15.6579 22.2704 15.625 22.1875 15.625H15.9375C15.8546 15.625 15.7751 15.6579 15.7165 15.7165C15.6579 15.7751 15.625 15.8546 15.625 15.9375V17.1875C15.625 17.36 15.765 17.5 15.9375 17.5H22.1875C22.2704 17.5 22.3499 17.4671 22.4085 17.4085C22.4671 17.3499 22.5 17.2704 22.5 17.1875V15.9375ZM22.5 19.0625C22.5 18.9796 22.4671 18.9001 22.4085 18.8415C22.3499 18.7829 22.2704 18.75 22.1875 18.75H15.9375C15.8546 18.75 15.7751 18.7829 15.7165 18.8415C15.6579 18.9001 15.625 18.9796 15.625 19.0625V20.3125C15.625 20.485 15.765 20.625 15.9375 20.625H22.1875C22.2704 20.625 22.3499 20.5921 22.4085 20.5335C22.4671 20.4749 22.5 20.3954 22.5 20.3125V19.0625ZM14.0625 20.625C14.1454 20.625 14.2249 20.5921 14.2835 20.5335C14.3421 20.4749 14.375 20.3954 14.375 20.3125V19.0625C14.375 18.9796 14.3421 18.9001 14.2835 18.8415C14.2249 18.7829 14.1454 18.75 14.0625 18.75H7.8125C7.72962 18.75 7.65013 18.7829 7.59153 18.8415C7.53292 18.9001 7.5 18.9796 7.5 19.0625V20.3125C7.5 20.485 7.64 20.625 7.8125 20.625H14.0625ZM7.8125 17.5H14.0625C14.1454 17.5 14.2249 17.4671 14.2835 17.4085C14.3421 17.3499 14.375 17.2704 14.375 17.1875V15.9375C14.375 15.8546 14.3421 15.7751 14.2835 15.7165C14.2249 15.6579 14.1454 15.625 14.0625 15.625H7.8125C7.72962 15.625 7.65013 15.6579 7.59153 15.7165C7.53292 15.7751 7.5 15.8546 7.5 15.9375V17.1875C7.5 17.36 7.64 17.5 7.8125 17.5ZM7.8125 14.375H14.0625C14.1454 14.375 14.2249 14.3421 14.2835 14.2835C14.3421 14.2249 14.375 14.1454 14.375 14.0625V12.8125C14.375 12.7296 14.3421 12.6501 14.2835 12.5915C14.2249 12.5329 14.1454 12.5 14.0625 12.5H7.8125C7.72962 12.5 7.65013 12.5329 7.59153 12.5915C7.53292 12.6501 7.5 12.7296 7.5 12.8125V14.0625C7.5 14.235 7.64 14.375 7.8125 14.375Z" fill="white"/>
</svg>
