<svg width="29" height="28" viewBox="0 0 29 28" fill="none" xmlns="http://www.w3.org/2000/svg">
<path d="M18.4167 2.33594H10.3667C9.9 2.33594 9.43333 2.56927 9.08333 2.91927C8.73333 3.26927 8.5 3.73594 8.5 4.2026V19.1359C8.5 19.6026 8.73333 20.0693 9.08333 20.4193C9.43333 20.7693 9.9 21.0026 10.3667 21.0026H21.8C22.2667 21.0026 22.7333 20.7693 23.0833 20.4193C23.4333 20.0693 23.6667 19.6026 23.6667 19.1359V7.58594L18.4167 2.33594Z" stroke="#6434D0" stroke-width="2.33333" stroke-linecap="round" stroke-linejoin="round"/>
<path d="M3.83398 8.86927V23.8026C3.83398 24.2693 4.06732 24.7359 4.41732 25.0859C4.76732 25.4359 5.23398 25.6693 5.70065 25.6693H17.134M17.834 2.33594V8.16927H23.6673" stroke="#6434D0" stroke-width="2.33333" stroke-linecap="round" stroke-linejoin="round"/>
</svg>
