<svg width="29" height="28" viewBox="0 0 29 28" fill="none" xmlns="http://www.w3.org/2000/svg">
<path d="M20.168 24.4974L22.268 26.5624C22.8513 27.1457 23.668 26.6791 23.668 25.9907V20.9974L26.9346 17.0307C27.0646 16.8574 27.1438 16.6513 27.1633 16.4355C27.1827 16.2197 27.1417 16.0028 27.0448 15.809C26.9479 15.6152 26.799 15.4522 26.6147 15.3383C26.4303 15.2244 26.218 15.1641 26.0013 15.1641H17.8346C16.9013 15.1641 16.318 16.3307 16.9013 17.0307L20.168 20.9974V24.4974ZM17.8346 23.3307H2.66797V19.8307C2.66797 16.6807 8.8513 15.1641 12.0013 15.1641C12.7013 15.1641 13.518 15.2807 14.4513 15.3974C14.218 16.0974 14.3346 16.9141 14.568 17.6141C13.7513 17.4974 12.818 17.3807 12.0013 17.3807C8.5013 17.3807 4.88464 19.1307 4.88464 19.8307V21.1141H17.2513L17.8346 21.8141V23.3307ZM12.0013 4.66406C9.43464 4.66406 7.33464 6.76406 7.33464 9.33073C7.33464 11.8974 9.43464 13.9974 12.0013 13.9974C14.568 13.9974 16.668 11.8974 16.668 9.33073C16.668 6.76406 14.568 4.66406 12.0013 4.66406ZM12.0013 11.6641C10.718 11.6641 9.66797 10.6141 9.66797 9.33073C9.66797 8.0474 10.718 6.9974 12.0013 6.9974C13.2846 6.9974 14.3346 8.0474 14.3346 9.33073C14.3346 10.6141 13.2846 11.6641 12.0013 11.6641Z" fill="#4F3895"/>
</svg>
