<svg width="28" height="28" viewBox="0 0 28 28" fill="none" xmlns="http://www.w3.org/2000/svg">
<path d="M13.125 24.5547C13.5625 24.5547 14.0091 24.541 14.4648 24.5137C14.6927 25.1152 14.9753 25.6758 15.3125 26.1953C14.9479 26.2318 14.5833 26.2591 14.2188 26.2773C13.8542 26.2956 13.4896 26.3047 13.125 26.3047C11.9036 26.3047 10.7096 26.2044 9.54297 26.0039C9.20573 25.9492 8.82292 25.8717 8.39453 25.7715C7.96615 25.6712 7.52865 25.5391 7.08203 25.375C6.63542 25.2109 6.19792 25.0241 5.76953 24.8145C5.34115 24.6048 4.95833 24.3542 4.62109 24.0625C4.28385 23.7708 4.01497 23.4564 3.81445 23.1191C3.61393 22.7819 3.50911 22.3854 3.5 21.9297V6.17969C3.5 5.76953 3.58659 5.40495 3.75977 5.08594C3.93294 4.76693 4.16536 4.46615 4.45703 4.18359C4.76693 3.8737 5.13607 3.60026 5.56445 3.36328C5.99284 3.1263 6.46224 2.92122 6.97266 2.74805C7.48307 2.57487 8.00716 2.42448 8.54492 2.29688C9.08268 2.16927 9.625 2.07357 10.1719 2.00977C10.7188 1.94596 11.2383 1.89583 11.7305 1.85938C12.2227 1.82292 12.6875 1.80469 13.125 1.80469C13.7812 1.80469 14.5059 1.84115 15.2988 1.91406C16.0918 1.98698 16.8893 2.11003 17.6914 2.2832C18.4935 2.45638 19.2546 2.70247 19.9746 3.02148C20.6947 3.34049 21.3008 3.72786 21.793 4.18359C22.0755 4.44792 22.3034 4.7487 22.4766 5.08594C22.6497 5.42318 22.7409 5.78776 22.75 6.17969V14H21V8.77734C20.4531 9.11458 19.8561 9.39714 19.209 9.625C18.5618 9.85286 17.8919 10.0352 17.1992 10.1719C16.5065 10.3086 15.8138 10.4043 15.1211 10.459C14.4284 10.5137 13.763 10.5456 13.125 10.5547C12.4961 10.5547 11.8353 10.5273 11.1426 10.4727C10.4499 10.418 9.7526 10.3177 9.05078 10.1719C8.34896 10.026 7.67904 9.84375 7.04102 9.625C6.40299 9.40625 5.80599 9.1237 5.25 8.77734V21.9297C5.25 22.112 5.3138 22.2806 5.44141 22.4355C5.56901 22.5905 5.70117 22.7181 5.83789 22.8184C6.26628 23.1556 6.78581 23.4336 7.39648 23.6523C8.00716 23.8711 8.6543 24.0488 9.33789 24.1855C10.0215 24.3223 10.6914 24.418 11.3477 24.4727C12.0039 24.5273 12.5964 24.5547 13.125 24.5547ZM13.125 3.55469C12.6602 3.55469 12.1771 3.56836 11.6758 3.5957C11.1745 3.62305 10.6641 3.67773 10.1445 3.75977C9.625 3.8418 9.1237 3.94206 8.64062 4.06055C8.15755 4.17904 7.69727 4.32943 7.25977 4.51172C7.12305 4.56641 6.94076 4.64844 6.71289 4.75781C6.48503 4.86719 6.26172 4.99935 6.04297 5.1543C5.82422 5.30924 5.63737 5.46875 5.48242 5.63281C5.32747 5.79688 5.25 5.97917 5.25 6.17969C5.25 6.2526 5.26367 6.32096 5.29102 6.38477C5.31836 6.44857 5.35482 6.51237 5.40039 6.57617C5.60091 6.86784 5.88802 7.1276 6.26172 7.35547C6.63542 7.58333 7.05469 7.7793 7.51953 7.94336C7.98438 8.10742 8.47656 8.24414 8.99609 8.35352C9.51562 8.46289 10.0306 8.54948 10.541 8.61328C11.0514 8.67708 11.5254 8.72721 11.9629 8.76367C12.4004 8.80013 12.7878 8.8138 13.125 8.80469C13.444 8.80469 13.8268 8.79102 14.2734 8.76367C14.7201 8.73633 15.1986 8.69076 15.709 8.62695C16.2194 8.56315 16.7298 8.47201 17.2402 8.35352C17.7507 8.23503 18.2474 8.09831 18.7305 7.94336C19.2135 7.78841 19.6283 7.59701 19.9746 7.36914C20.321 7.14128 20.6126 6.87695 20.8496 6.57617C20.8952 6.51237 20.9316 6.44857 20.959 6.38477C20.9863 6.32096 21 6.2526 21 6.17969C21 5.98828 20.9225 5.80599 20.7676 5.63281C20.6126 5.45964 20.4258 5.30013 20.207 5.1543C19.9883 5.00846 19.765 4.88086 19.5371 4.77148C19.3092 4.66211 19.127 4.57552 18.9902 4.51172C18.5618 4.33854 18.1016 4.19271 17.6094 4.07422C17.1172 3.95573 16.6159 3.85547 16.1055 3.77344C15.5951 3.69141 15.0892 3.63672 14.5879 3.60938C14.0866 3.58203 13.599 3.5638 13.125 3.55469ZM26.168 21.041C26.2227 21.3145 26.25 21.5924 26.25 21.875C26.25 22.1576 26.2227 22.4355 26.168 22.709L27.8633 23.4062L27.1934 25.0332L25.498 24.3223C25.179 24.7871 24.7871 25.179 24.3223 25.498L25.0332 27.1934L23.4062 27.8633L22.709 26.168C22.4355 26.2227 22.1576 26.25 21.875 26.25C21.5924 26.25 21.3145 26.2227 21.041 26.168L20.3438 27.8633L18.7168 27.1934L19.4277 25.498C18.9629 25.179 18.571 24.7871 18.252 24.3223L16.5566 25.0332L15.8867 23.4062L17.582 22.709C17.5273 22.4355 17.5 22.1576 17.5 21.875C17.5 21.5924 17.5273 21.3145 17.582 21.041L15.8867 20.3438L16.5566 18.7168L18.252 19.4277C18.571 18.9629 18.9629 18.571 19.4277 18.252L18.7168 16.5566L20.3438 15.8867L21.041 17.582C21.3145 17.5273 21.5924 17.5 21.875 17.5C22.1576 17.5 22.4355 17.5273 22.709 17.582L23.4062 15.8867L25.0332 16.5566L24.3223 18.252C24.7871 18.571 25.179 18.9629 25.498 19.4277L27.1934 18.7168L27.8633 20.3438L26.168 21.041ZM21.875 24.5C22.2396 24.5 22.5814 24.4316 22.9004 24.2949C23.2194 24.1582 23.4974 23.9714 23.7344 23.7344C23.9714 23.4974 24.1582 23.2194 24.2949 22.9004C24.4316 22.5814 24.5 22.2396 24.5 21.875C24.5 21.5104 24.4316 21.1686 24.2949 20.8496C24.1582 20.5306 23.9714 20.2526 23.7344 20.0156C23.4974 19.7786 23.2194 19.5918 22.9004 19.4551C22.5814 19.3184 22.2396 19.25 21.875 19.25C21.5104 19.25 21.1686 19.3184 20.8496 19.4551C20.5306 19.5918 20.2526 19.7786 20.0156 20.0156C19.7786 20.2526 19.5918 20.5306 19.4551 20.8496C19.3184 21.1686 19.25 21.5104 19.25 21.875C19.25 22.2396 19.3184 22.5814 19.4551 22.9004C19.5918 23.2194 19.7786 23.4974 20.0156 23.7344C20.2526 23.9714 20.5306 24.1582 20.8496 24.2949C21.1686 24.4316 21.5104 24.5 21.875 24.5Z" fill="#4F3895"/>
</svg>
