<svg width="381" height="320" viewBox="0 0 381 320" fill="none" xmlns="http://www.w3.org/2000/svg">
<path fill-rule="evenodd" clip-rule="evenodd" d="M273.524 138.448C284.347 169.326 264.244 201.233 246.074 227.31C230.805 249.221 207.487 260.931 182.51 269.061C157.178 277.306 130.852 282.693 105.525 273.059C76.1287 261.876 43.3167 244.536 35.4901 213.135C27.8116 182.329 54.9438 157.243 69.8924 130.098C83.7154 104.996 91.3656 72.2581 117.969 63.361C144.777 54.3953 171.095 75.011 197.089 87.5584C225.566 101.304 262.802 107.859 273.524 138.448Z" fill="#FCF7FF"/>
<g filter="url(#filter0_d_4139_7392)">
<rect x="72.9258" y="95" width="248.075" height="171.762" rx="9.02089" fill="white"/>
<path d="M98.2437 135.335V125.38H102.055C102.774 125.38 103.372 125.493 103.848 125.72C104.328 125.944 104.686 126.25 104.923 126.639C105.163 127.028 105.282 127.469 105.282 127.961C105.282 128.366 105.205 128.713 105.049 129.001C104.894 129.287 104.685 129.518 104.422 129.697C104.16 129.875 103.866 130.003 103.542 130.081V130.178C103.895 130.197 104.234 130.306 104.558 130.504C104.885 130.698 105.153 130.973 105.36 131.33C105.568 131.686 105.671 132.117 105.671 132.623C105.671 133.138 105.547 133.602 105.297 134.013C105.048 134.422 104.672 134.744 104.169 134.981C103.667 135.217 103.035 135.335 102.273 135.335H98.2437ZM100.047 133.829H101.987C102.641 133.829 103.113 133.704 103.401 133.454C103.693 133.201 103.839 132.877 103.839 132.482C103.839 132.187 103.766 131.921 103.62 131.685C103.474 131.445 103.267 131.257 102.998 131.121C102.729 130.982 102.408 130.912 102.035 130.912H100.047V133.829ZM100.047 129.614H101.831C102.142 129.614 102.423 129.557 102.672 129.444C102.922 129.327 103.118 129.164 103.26 128.953C103.406 128.739 103.479 128.486 103.479 128.195C103.479 127.809 103.343 127.491 103.071 127.242C102.802 126.992 102.401 126.867 101.87 126.867H100.047V129.614ZM109.311 135.486C108.838 135.486 108.412 135.402 108.033 135.233C107.657 135.062 107.359 134.809 107.138 134.475C106.921 134.141 106.812 133.73 106.812 133.24C106.812 132.819 106.89 132.471 107.046 132.195C107.201 131.92 107.414 131.699 107.683 131.534C107.952 131.369 108.255 131.244 108.592 131.16C108.932 131.072 109.284 131.009 109.646 130.97C110.084 130.925 110.439 130.884 110.711 130.849C110.983 130.81 111.181 130.751 111.304 130.674C111.431 130.593 111.494 130.468 111.494 130.299V130.27C111.494 129.904 111.385 129.62 111.168 129.42C110.951 129.219 110.638 129.118 110.23 129.118C109.799 129.118 109.457 129.212 109.204 129.4C108.955 129.588 108.786 129.81 108.699 130.066L107.056 129.833C107.185 129.379 107.399 129 107.697 128.695C107.995 128.387 108.36 128.157 108.791 128.005C109.222 127.849 109.698 127.772 110.22 127.772C110.58 127.772 110.938 127.814 111.294 127.898C111.651 127.982 111.977 128.122 112.271 128.316C112.566 128.507 112.803 128.768 112.981 129.099C113.163 129.429 113.253 129.842 113.253 130.338V135.335H111.562V134.31H111.503C111.396 134.517 111.246 134.712 111.051 134.893C110.86 135.071 110.619 135.216 110.327 135.326C110.039 135.433 109.7 135.486 109.311 135.486ZM109.768 134.193C110.121 134.193 110.428 134.123 110.687 133.984C110.946 133.841 111.145 133.654 111.285 133.42C111.427 133.187 111.499 132.932 111.499 132.657V131.777C111.443 131.823 111.349 131.865 111.217 131.904C111.087 131.942 110.941 131.976 110.779 132.006C110.617 132.035 110.457 132.061 110.298 132.083C110.139 132.106 110.001 132.126 109.885 132.142C109.622 132.177 109.387 132.236 109.18 132.317C108.972 132.398 108.809 132.511 108.689 132.657C108.569 132.8 108.509 132.984 108.509 133.211C108.509 133.535 108.627 133.78 108.864 133.945C109.1 134.11 109.402 134.193 109.768 134.193ZM118.28 135.481C117.534 135.481 116.894 135.318 116.36 134.99C115.828 134.663 115.418 134.211 115.13 133.634C114.845 133.054 114.702 132.386 114.702 131.631C114.702 130.873 114.848 130.204 115.139 129.624C115.431 129.04 115.843 128.587 116.374 128.263C116.909 127.935 117.541 127.772 118.27 127.772C118.876 127.772 119.412 127.883 119.879 128.107C120.349 128.327 120.723 128.64 121.002 129.045C121.281 129.447 121.439 129.917 121.478 130.455H119.796C119.728 130.095 119.566 129.795 119.31 129.556C119.058 129.313 118.719 129.191 118.294 129.191C117.935 129.191 117.619 129.288 117.346 129.483C117.074 129.674 116.862 129.949 116.71 130.309C116.561 130.669 116.486 131.1 116.486 131.602C116.486 132.111 116.561 132.548 116.71 132.915C116.859 133.278 117.068 133.558 117.337 133.756C117.609 133.95 117.928 134.047 118.294 134.047C118.554 134.047 118.785 133.999 118.989 133.901C119.197 133.801 119.37 133.657 119.51 133.469C119.649 133.281 119.745 133.052 119.796 132.783H121.478C121.436 133.312 121.281 133.78 121.012 134.188C120.743 134.593 120.376 134.911 119.913 135.141C119.45 135.368 118.905 135.481 118.28 135.481ZM124.527 132.992L124.523 130.868H124.805L127.488 127.869H129.544L126.243 131.544H125.879L124.527 132.992ZM122.923 135.335V125.38H124.683V135.335H122.923ZM127.609 135.335L125.179 131.938L126.365 130.698L129.714 135.335H127.609ZM133.657 138.291C133.025 138.291 132.482 138.205 132.028 138.033C131.574 137.865 131.21 137.638 130.934 137.353C130.659 137.068 130.468 136.752 130.361 136.405L131.945 136.021C132.017 136.167 132.12 136.311 132.257 136.453C132.393 136.599 132.576 136.719 132.806 136.813C133.039 136.91 133.332 136.959 133.686 136.959C134.185 136.959 134.598 136.838 134.925 136.594C135.253 136.355 135.416 135.959 135.416 135.408V133.994H135.329C135.238 134.175 135.105 134.362 134.93 134.553C134.758 134.744 134.53 134.904 134.245 135.034C133.963 135.164 133.608 135.229 133.18 135.229C132.607 135.229 132.086 135.094 131.62 134.825C131.156 134.553 130.787 134.148 130.511 133.61C130.239 133.069 130.103 132.391 130.103 131.578C130.103 130.758 130.239 130.066 130.511 129.502C130.787 128.935 131.158 128.506 131.625 128.214C132.091 127.919 132.611 127.772 133.185 127.772C133.622 127.772 133.982 127.846 134.264 127.995C134.549 128.141 134.776 128.318 134.945 128.525C135.113 128.729 135.241 128.922 135.329 129.104H135.426V127.869H137.161V135.457C137.161 136.095 137.009 136.624 136.704 137.042C136.4 137.46 135.983 137.772 135.455 137.98C134.927 138.187 134.327 138.291 133.657 138.291ZM133.671 133.848C134.044 133.848 134.361 133.757 134.624 133.576C134.886 133.394 135.086 133.133 135.222 132.793C135.358 132.453 135.426 132.045 135.426 131.568C135.426 131.098 135.358 130.687 135.222 130.333C135.089 129.98 134.891 129.706 134.629 129.512C134.369 129.314 134.05 129.215 133.671 129.215C133.279 129.215 132.952 129.317 132.689 129.522C132.427 129.726 132.229 130.006 132.096 130.363C131.963 130.716 131.897 131.118 131.897 131.568C131.897 132.025 131.963 132.425 132.096 132.769C132.232 133.109 132.432 133.375 132.694 133.566C132.96 133.754 133.285 133.848 133.671 133.848ZM138.965 135.335V127.869H140.671V129.113H140.749C140.885 128.682 141.118 128.35 141.449 128.117C141.783 127.88 142.163 127.762 142.591 127.762C142.688 127.762 142.797 127.767 142.917 127.776C143.04 127.783 143.142 127.794 143.223 127.811V129.429C143.149 129.403 143.03 129.381 142.868 129.361C142.709 129.339 142.555 129.327 142.406 129.327C142.086 129.327 141.797 129.397 141.541 129.536C141.288 129.672 141.089 129.862 140.943 130.105C140.797 130.348 140.724 130.628 140.724 130.946V135.335H138.965ZM147.342 135.481C146.612 135.481 145.981 135.321 145.446 135C144.911 134.679 144.496 134.23 144.201 133.654C143.91 133.077 143.764 132.403 143.764 131.631C143.764 130.86 143.91 130.184 144.201 129.604C144.496 129.024 144.911 128.574 145.446 128.253C145.981 127.932 146.612 127.772 147.342 127.772C148.071 127.772 148.703 127.932 149.237 128.253C149.772 128.574 150.185 129.024 150.477 129.604C150.772 130.184 150.919 130.86 150.919 131.631C150.919 132.403 150.772 133.077 150.477 133.654C150.185 134.23 149.772 134.679 149.237 135C148.703 135.321 148.071 135.481 147.342 135.481ZM147.351 134.072C147.747 134.072 148.077 133.963 148.343 133.746C148.609 133.526 148.806 133.231 148.936 132.861C149.069 132.492 149.135 132.08 149.135 131.626C149.135 131.17 149.069 130.756 148.936 130.387C148.806 130.014 148.609 129.718 148.343 129.497C148.077 129.277 147.747 129.167 147.351 129.167C146.946 129.167 146.609 129.277 146.34 129.497C146.074 129.718 145.875 130.014 145.742 130.387C145.613 130.756 145.548 131.17 145.548 131.626C145.548 132.08 145.613 132.492 145.742 132.861C145.875 133.231 146.074 133.526 146.34 133.746C146.609 133.963 146.946 134.072 147.351 134.072ZM157.172 132.195V127.869H158.932V135.335H157.225V134.008H157.148C156.979 134.426 156.702 134.768 156.316 135.034C155.934 135.3 155.462 135.433 154.902 135.433C154.412 135.433 153.98 135.324 153.604 135.107C153.231 134.887 152.94 134.567 152.729 134.149C152.518 133.728 152.413 133.219 152.413 132.623V127.869H154.173V132.351C154.173 132.824 154.302 133.2 154.562 133.479C154.821 133.757 155.161 133.897 155.582 133.897C155.842 133.897 156.093 133.833 156.336 133.707C156.579 133.581 156.778 133.393 156.934 133.143C157.093 132.89 157.172 132.574 157.172 132.195ZM162.501 130.96V135.335H160.741V127.869H162.423V129.138H162.511C162.682 128.72 162.956 128.387 163.332 128.141C163.711 127.895 164.18 127.772 164.737 127.772C165.252 127.772 165.701 127.882 166.083 128.102C166.469 128.323 166.767 128.642 166.978 129.06C167.192 129.478 167.297 129.985 167.294 130.581V135.335H165.534V130.854C165.534 130.354 165.405 129.964 165.145 129.682C164.889 129.4 164.534 129.259 164.081 129.259C163.773 129.259 163.499 129.327 163.259 129.463C163.023 129.596 162.836 129.789 162.7 130.042C162.567 130.295 162.501 130.601 162.501 130.96ZM171.854 135.467C171.267 135.467 170.742 135.316 170.279 135.015C169.815 134.713 169.449 134.276 169.18 133.702C168.911 133.129 168.776 132.432 168.776 131.612C168.776 130.782 168.913 130.082 169.185 129.512C169.46 128.938 169.831 128.506 170.298 128.214C170.765 127.919 171.285 127.772 171.858 127.772C172.296 127.772 172.656 127.846 172.938 127.995C173.219 128.141 173.443 128.318 173.608 128.525C173.774 128.729 173.902 128.922 173.992 129.104H174.065V125.38H175.83V135.335H174.099V134.159H173.992C173.902 134.341 173.77 134.533 173.599 134.738C173.427 134.938 173.2 135.11 172.918 135.253C172.636 135.395 172.281 135.467 171.854 135.467ZM172.345 134.023C172.717 134.023 173.035 133.922 173.297 133.722C173.56 133.517 173.759 133.234 173.895 132.871C174.031 132.508 174.099 132.085 174.099 131.602C174.099 131.119 174.031 130.7 173.895 130.343C173.762 129.987 173.565 129.71 173.302 129.512C173.043 129.314 172.724 129.215 172.345 129.215C171.952 129.215 171.625 129.317 171.363 129.522C171.1 129.726 170.902 130.008 170.77 130.367C170.637 130.727 170.57 131.139 170.57 131.602C170.57 132.069 170.637 132.485 170.77 132.851C170.906 133.214 171.105 133.501 171.367 133.712C171.633 133.919 171.959 134.023 172.345 134.023ZM189.7 128.739H187.882C187.83 128.441 187.734 128.177 187.595 127.947C187.456 127.713 187.282 127.516 187.075 127.354C186.867 127.192 186.631 127.07 186.365 126.989C186.103 126.905 185.819 126.863 185.514 126.863C184.973 126.863 184.494 126.999 184.075 127.271C183.657 127.54 183.33 127.935 183.094 128.457C182.857 128.976 182.739 129.609 182.739 130.358C182.739 131.119 182.857 131.761 183.094 132.283C183.333 132.801 183.661 133.193 184.075 133.459C184.494 133.722 184.972 133.853 185.509 133.853C185.808 133.853 186.086 133.814 186.346 133.736C186.608 133.655 186.843 133.537 187.05 133.381C187.261 133.226 187.438 133.035 187.58 132.808C187.726 132.581 187.827 132.322 187.882 132.03L189.7 132.04C189.632 132.513 189.484 132.957 189.257 133.372C189.034 133.786 188.74 134.153 188.378 134.47C188.015 134.785 187.59 135.031 187.104 135.209C186.618 135.384 186.078 135.472 185.485 135.472C184.61 135.472 183.829 135.269 183.142 134.864C182.455 134.459 181.914 133.874 181.519 133.109C181.123 132.344 180.925 131.427 180.925 130.358C180.925 129.285 181.125 128.368 181.523 127.606C181.922 126.842 182.465 126.257 183.152 125.852C183.839 125.446 184.617 125.244 185.485 125.244C186.039 125.244 186.555 125.322 187.031 125.477C187.507 125.633 187.932 125.861 188.305 126.163C188.677 126.461 188.984 126.827 189.223 127.261C189.466 127.692 189.625 128.185 189.7 128.739ZM194.53 135.481C193.801 135.481 193.169 135.321 192.635 135C192.1 134.679 191.685 134.23 191.39 133.654C191.098 133.077 190.953 132.403 190.953 131.631C190.953 130.86 191.098 130.184 191.39 129.604C191.685 129.024 192.1 128.574 192.635 128.253C193.169 127.932 193.801 127.772 194.53 127.772C195.26 127.772 195.892 127.932 196.426 128.253C196.961 128.574 197.374 129.024 197.666 129.604C197.961 130.184 198.108 130.86 198.108 131.631C198.108 132.403 197.961 133.077 197.666 133.654C197.374 134.23 196.961 134.679 196.426 135C195.892 135.321 195.26 135.481 194.53 135.481ZM194.54 134.072C194.935 134.072 195.266 133.963 195.532 133.746C195.798 133.526 195.995 133.231 196.125 132.861C196.258 132.492 196.324 132.08 196.324 131.626C196.324 131.17 196.258 130.756 196.125 130.387C195.995 130.014 195.798 129.718 195.532 129.497C195.266 129.277 194.935 129.167 194.54 129.167C194.135 129.167 193.798 129.277 193.529 129.497C193.263 129.718 193.064 130.014 192.931 130.387C192.801 130.756 192.737 131.17 192.737 131.626C192.737 132.08 192.801 132.492 192.931 132.861C193.064 133.231 193.263 133.526 193.529 133.746C193.798 133.963 194.135 134.072 194.54 134.072ZM201.361 125.38V135.335H199.602V125.38H201.361ZM206.428 135.481C205.699 135.481 205.067 135.321 204.532 135C203.997 134.679 203.583 134.23 203.288 133.654C202.996 133.077 202.85 132.403 202.85 131.631C202.85 130.86 202.996 130.184 203.288 129.604C203.583 129.024 203.997 128.574 204.532 128.253C205.067 127.932 205.699 127.772 206.428 127.772C207.157 127.772 207.789 127.932 208.324 128.253C208.858 128.574 209.272 129.024 209.563 129.604C209.858 130.184 210.006 130.86 210.006 131.631C210.006 132.403 209.858 133.077 209.563 133.654C209.272 134.23 208.858 134.679 208.324 135C207.789 135.321 207.157 135.481 206.428 135.481ZM206.438 134.072C206.833 134.072 207.163 133.963 207.429 133.746C207.695 133.526 207.893 133.231 208.022 132.861C208.155 132.492 208.222 132.08 208.222 131.626C208.222 131.17 208.155 130.756 208.022 130.387C207.893 130.014 207.695 129.718 207.429 129.497C207.163 129.277 206.833 129.167 206.438 129.167C206.032 129.167 205.695 129.277 205.426 129.497C205.161 129.718 204.961 130.014 204.829 130.387C204.699 130.756 204.634 131.17 204.634 131.626C204.634 132.08 204.699 132.492 204.829 132.861C204.961 133.231 205.161 133.526 205.426 133.746C205.695 133.963 206.032 134.072 206.438 134.072ZM211.499 135.335V127.869H213.205V129.113H213.283C213.419 128.682 213.653 128.35 213.983 128.117C214.317 127.88 214.698 127.762 215.126 127.762C215.223 127.762 215.331 127.767 215.451 127.776C215.574 127.783 215.676 127.794 215.757 127.811V129.429C215.683 129.403 215.565 129.381 215.403 129.361C215.244 129.339 215.09 129.327 214.941 129.327C214.62 129.327 214.332 129.397 214.076 129.536C213.823 129.672 213.623 129.862 213.478 130.105C213.332 130.348 213.259 130.628 213.259 130.946V135.335H211.499Z" fill="#211447"/>
<g clip-path="url(#clip0_4139_7392)">
<path d="M113.664 164.461L115.116 155.612H115.98L114.528 164.461H113.664ZM109.637 162.007L109.775 161.143H116.378L116.239 162.007H109.637ZM110.553 164.461L112.005 155.612H112.869L111.417 164.461H110.553ZM110.156 158.931L110.294 158.066H116.896L116.758 158.931H110.156ZM118.298 164.461L122.256 156.632V156.563H117.693V155.612H123.363V156.615L119.422 164.461H118.298ZM125.129 164.461V155.612H130.435V156.563H126.2V159.553H130.037V160.503H126.2V164.461H125.129ZM132.391 164.461L136.349 156.632V156.563H131.786V155.612H137.455V156.615L133.515 164.461H132.391ZM139.222 164.461V155.612H144.528V156.563H140.293V159.553H144.13V160.503H140.293V164.461H139.222ZM146.363 164.461V155.612H151.669V156.563H147.435V159.553H151.272V160.503H147.435V164.461H146.363ZM152.762 164.461H151.639L154.888 155.612H155.994L159.244 164.461H158.12L155.476 157.012H155.407L152.762 164.461ZM153.177 161.005H157.705V161.955H153.177V161.005Z" fill="#453F56"/>
<rect x="267.793" y="144.378" width="30.4196" height="30.4194" fill="#1E0D62"/>
</g>
<rect x="97.642" y="144.758" width="198.643" height="29.6589" rx="5.70365" stroke="#D9D8D9" stroke-width="0.760487"/>
<path d="M98.2437 202.965V193.009H104.621V194.521H100.047V197.224H104.184V198.735H100.047V202.965H98.2437ZM108.895 203.11C108.166 203.11 107.534 202.95 107 202.629C106.465 202.308 106.05 201.86 105.755 201.283C105.464 200.706 105.318 200.032 105.318 199.26C105.318 198.489 105.464 197.813 105.755 197.233C106.05 196.653 106.465 196.203 107 195.882C107.534 195.561 108.166 195.401 108.895 195.401C109.625 195.401 110.257 195.561 110.791 195.882C111.326 196.203 111.739 196.653 112.031 197.233C112.326 197.813 112.473 198.489 112.473 199.26C112.473 200.032 112.326 200.706 112.031 201.283C111.739 201.86 111.326 202.308 110.791 202.629C110.257 202.95 109.625 203.11 108.895 203.11ZM108.905 201.701C109.301 201.701 109.631 201.592 109.897 201.375C110.163 201.155 110.36 200.86 110.49 200.49C110.623 200.121 110.689 199.709 110.689 199.256C110.689 198.799 110.623 198.385 110.49 198.016C110.36 197.643 110.163 197.347 109.897 197.126C109.631 196.906 109.301 196.796 108.905 196.796C108.5 196.796 108.163 196.906 107.894 197.126C107.628 197.347 107.429 197.643 107.296 198.016C107.167 198.385 107.102 198.799 107.102 199.256C107.102 199.709 107.167 200.121 107.296 200.49C107.429 200.86 107.628 201.155 107.894 201.375C108.163 201.592 108.5 201.701 108.905 201.701ZM115.726 198.59V202.965H113.967V195.498H115.649V196.767H115.736C115.908 196.349 116.182 196.017 116.558 195.77C116.937 195.524 117.405 195.401 117.963 195.401C118.478 195.401 118.927 195.511 119.309 195.731C119.695 195.952 119.993 196.271 120.204 196.689C120.417 197.107 120.523 197.614 120.519 198.21V202.965H118.76V198.483C118.76 197.984 118.63 197.593 118.371 197.311C118.115 197.029 117.76 196.888 117.306 196.888C116.998 196.888 116.725 196.956 116.485 197.092C116.248 197.225 116.062 197.418 115.926 197.671C115.793 197.924 115.726 198.23 115.726 198.59ZM126.037 195.498V196.859H121.744V195.498H126.037ZM122.804 193.709H124.564V200.719C124.564 200.955 124.6 201.137 124.671 201.263C124.745 201.386 124.843 201.471 124.962 201.516C125.082 201.561 125.215 201.584 125.361 201.584C125.471 201.584 125.572 201.576 125.662 201.56C125.756 201.544 125.828 201.529 125.876 201.516L126.173 202.892C126.079 202.924 125.944 202.96 125.769 202.999C125.598 203.038 125.387 203.06 125.137 203.067C124.697 203.08 124.3 203.013 123.947 202.867C123.593 202.718 123.313 202.488 123.106 202.177C122.901 201.866 122.801 201.477 122.804 201.01V193.709ZM139.503 196.368H137.685C137.633 196.07 137.538 195.806 137.398 195.576C137.259 195.342 137.086 195.145 136.878 194.983C136.671 194.821 136.434 194.699 136.168 194.618C135.906 194.534 135.622 194.492 135.318 194.492C134.777 194.492 134.297 194.628 133.879 194.9C133.461 195.169 133.134 195.564 132.897 196.086C132.66 196.605 132.542 197.238 132.542 197.987C132.542 198.748 132.66 199.39 132.897 199.912C133.137 200.43 133.464 200.822 133.879 201.088C134.297 201.351 134.775 201.482 135.313 201.482C135.611 201.482 135.89 201.443 136.149 201.365C136.412 201.284 136.646 201.166 136.854 201.01C137.065 200.855 137.241 200.664 137.384 200.437C137.53 200.21 137.63 199.951 137.685 199.659L139.503 199.669C139.435 200.142 139.288 200.586 139.061 201.001C138.837 201.416 138.544 201.782 138.181 202.099C137.818 202.414 137.393 202.66 136.907 202.838C136.421 203.013 135.882 203.101 135.289 203.101C134.414 203.101 133.633 202.898 132.946 202.493C132.259 202.088 131.717 201.503 131.322 200.738C130.927 199.973 130.729 199.056 130.729 197.987C130.729 196.914 130.928 195.997 131.327 195.236C131.725 194.471 132.268 193.886 132.955 193.481C133.642 193.076 134.42 192.873 135.289 192.873C135.843 192.873 136.358 192.951 136.834 193.106C137.311 193.262 137.735 193.49 138.108 193.792C138.481 194.09 138.787 194.456 139.027 194.89C139.27 195.321 139.429 195.814 139.503 196.368ZM144.334 203.11C143.605 203.11 142.973 202.95 142.438 202.629C141.903 202.308 141.488 201.86 141.194 201.283C140.902 200.706 140.756 200.032 140.756 199.26C140.756 198.489 140.902 197.813 141.194 197.233C141.488 196.653 141.903 196.203 142.438 195.882C142.973 195.561 143.605 195.401 144.334 195.401C145.063 195.401 145.695 195.561 146.23 195.882C146.764 196.203 147.178 196.653 147.469 197.233C147.764 197.813 147.912 198.489 147.912 199.26C147.912 200.032 147.764 200.706 147.469 201.283C147.178 201.86 146.764 202.308 146.23 202.629C145.695 202.95 145.063 203.11 144.334 203.11ZM144.344 201.701C144.739 201.701 145.069 201.592 145.335 201.375C145.601 201.155 145.799 200.86 145.928 200.49C146.061 200.121 146.128 199.709 146.128 199.256C146.128 198.799 146.061 198.385 145.928 198.016C145.799 197.643 145.601 197.347 145.335 197.126C145.069 196.906 144.739 196.796 144.344 196.796C143.938 196.796 143.601 196.906 143.332 197.126C143.067 197.347 142.867 197.643 142.735 198.016C142.605 198.385 142.54 198.799 142.54 199.256C142.54 199.709 142.605 200.121 142.735 200.49C142.867 200.86 143.067 201.155 143.332 201.375C143.601 201.592 143.938 201.701 144.344 201.701ZM151.165 193.009V202.965H149.405V193.009H151.165ZM156.231 203.11C155.502 203.11 154.87 202.95 154.335 202.629C153.801 202.308 153.386 201.86 153.091 201.283C152.799 200.706 152.654 200.032 152.654 199.26C152.654 198.489 152.799 197.813 153.091 197.233C153.386 196.653 153.801 196.203 154.335 195.882C154.87 195.561 155.502 195.401 156.231 195.401C156.96 195.401 157.592 195.561 158.127 195.882C158.662 196.203 159.075 196.653 159.367 197.233C159.662 197.813 159.809 198.489 159.809 199.26C159.809 200.032 159.662 200.706 159.367 201.283C159.075 201.86 158.662 202.308 158.127 202.629C157.592 202.95 156.96 203.11 156.231 203.11ZM156.241 201.701C156.636 201.701 156.967 201.592 157.233 201.375C157.498 201.155 157.696 200.86 157.826 200.49C157.959 200.121 158.025 199.709 158.025 199.256C158.025 198.799 157.959 198.385 157.826 198.016C157.696 197.643 157.498 197.347 157.233 197.126C156.967 196.906 156.636 196.796 156.241 196.796C155.836 196.796 155.499 196.906 155.23 197.126C154.964 197.347 154.765 197.643 154.632 198.016C154.502 198.385 154.438 198.799 154.438 199.256C154.438 199.709 154.502 200.121 154.632 200.49C154.765 200.86 154.964 201.155 155.23 201.375C155.499 201.592 155.836 201.701 156.241 201.701ZM161.303 202.965V195.498H163.009V196.742H163.087C163.223 196.311 163.456 195.979 163.787 195.746C164.12 195.509 164.501 195.391 164.929 195.391C165.026 195.391 165.135 195.396 165.255 195.406C165.378 195.412 165.48 195.423 165.561 195.44V197.058C165.486 197.032 165.368 197.01 165.206 196.99C165.047 196.968 164.893 196.956 164.744 196.956C164.423 196.956 164.135 197.026 163.879 197.165C163.626 197.301 163.427 197.491 163.281 197.734C163.135 197.977 163.062 198.257 163.062 198.575V202.965H161.303Z" fill="#211447"/>
<g clip-path="url(#clip1_4139_7392)">
<path d="M113.664 232.091L115.116 223.241H115.98L114.528 232.091H113.664ZM109.637 229.636L109.775 228.772H116.378L116.239 229.636H109.637ZM110.553 232.091L112.005 223.241H112.869L111.417 232.091H110.553ZM110.156 226.56L110.294 225.696H116.896L116.758 226.56H110.156ZM118.298 232.091L122.256 224.261V224.192H117.693V223.241H123.363V224.244L119.422 232.091H118.298ZM125.129 232.091V223.241H130.435V224.192H126.2V227.182H130.037V228.133H126.2V232.091H125.129ZM132.391 232.091L136.349 224.261V224.192H131.786V223.241H137.455V224.244L133.515 232.091H132.391ZM139.222 232.091V223.241H144.528V224.192H140.293V227.182H144.13V228.133H140.293V232.091H139.222ZM146.363 232.091V223.241H151.669V224.192H147.435V227.182H151.272V228.133H147.435V232.091H146.363ZM152.762 232.091H151.639L154.888 223.241H155.994L159.244 232.091H158.12L155.476 224.641H155.407L152.762 232.091ZM153.177 228.634H157.705V229.584H153.177V228.634Z" fill="#453F56"/>
<rect x="267.793" y="212.007" width="30.4196" height="30.4194" fill="#D8CFFE"/>
</g>
<rect x="97.642" y="212.387" width="198.643" height="29.6589" rx="5.70365" stroke="#D9D8D9" stroke-width="0.760487"/>
</g>
<path d="M27.3429 236.046C30.1211 238.825 42.3173 231.149 54.5605 218.906C57.4329 216.034 60.0464 213.185 62.3302 210.43C69.8174 201.483 73.82 193.831 71.701 191.712C69.582 189.593 61.8829 193.596 52.8888 201.13C50.1576 203.39 47.3323 205.98 44.4834 208.829C32.2402 221.074 24.5646 233.27 27.3429 236.046Z" fill="#A58CF0"/>
<path d="M52.8888 201.132L52.9359 201.179C52.9359 201.179 57.9745 208.784 62.2125 210.456C62.2527 210.454 62.2923 210.446 62.3302 210.432C69.8174 201.485 73.82 193.834 71.701 191.714C69.582 189.595 61.8829 193.598 52.8888 201.132Z" fill="#AFAEB3"/>
<path d="M91.9947 166.727C93.0074 172.138 92.6521 177.717 90.9611 182.956C89.6571 186.93 87.1306 190.391 83.7423 192.844C79.6691 195.759 71.6662 199.437 68.2193 193.652C66.1003 190.102 67.0185 184.705 69.0481 181.317C70.0522 179.657 71.4271 178.252 73.0651 177.212C74.7032 176.172 76.5598 175.525 78.4895 175.323C80.7853 175.311 83.0785 175.167 85.3575 174.889C88.8327 174.089 92.7787 170.642 91.9947 166.727Z" fill="#F8A839"/>
<defs>
<filter id="filter0_d_4139_7392" x="54.884" y="85.9791" width="284.158" height="207.845" filterUnits="userSpaceOnUse" color-interpolation-filters="sRGB">
<feFlood flood-opacity="0" result="BackgroundImageFix"/>
<feColorMatrix in="SourceAlpha" type="matrix" values="0 0 0 0 0 0 0 0 0 0 0 0 0 0 0 0 0 0 127 0" result="hardAlpha"/>
<feOffset dy="9.02089"/>
<feGaussianBlur stdDeviation="9.02089"/>
<feComposite in2="hardAlpha" operator="out"/>
<feColorMatrix type="matrix" values="0 0 0 0 0 0 0 0 0 0 0 0 0 0 0 0 0 0 0.1 0"/>
<feBlend mode="normal" in2="BackgroundImageFix" result="effect1_dropShadow_4139_7392"/>
<feBlend mode="normal" in="SourceGraphic" in2="effect1_dropShadow_4139_7392" result="shape"/>
</filter>
<clipPath id="clip0_4139_7392">
<rect x="97.2617" y="144.377" width="199.404" height="30.4194" rx="6.08389" fill="white"/>
</clipPath>
<clipPath id="clip1_4139_7392">
<rect x="97.2617" y="212.007" width="199.404" height="30.4194" rx="6.08389" fill="white"/>
</clipPath>
</defs>
</svg>
