<svg width="70" height="70" viewBox="0 0 70 70" fill="none" xmlns="http://www.w3.org/2000/svg">
<rect width="70" height="70" rx="6.13698" fill="url(#paint0_linear_6169_4142)"/>
<g clip-path="url(#clip0_6169_4142)">
<path d="M54.0767 45.1413C53.4648 44.7113 46.7697 40.2595 45.9491 39.7583C45.5916 39.5395 45.1553 39.4327 44.681 39.4327C44.0691 39.4327 43.3916 39.6108 42.7304 39.9589C42.086 40.2983 40.1341 41.4089 39.1791 41.9545C38.3378 41.3639 36.3616 39.8502 33.2478 36.7333C30.1535 33.6402 28.626 31.6477 28.0316 30.802C28.576 29.8477 29.6854 27.8958 30.0229 27.2533C30.6623 26.042 30.7348 24.8327 30.216 24.017C29.7292 23.2483 25.2954 16.5245 24.8379 15.892C24.4073 15.2952 23.6341 14.9727 22.7954 14.9727C22.1335 14.9727 21.4317 15.1727 20.8229 15.5964C20.7642 15.6383 14.8816 19.9033 14.9598 22.3289C15.1767 29.1427 21.7979 37.1502 27.3141 42.6683C32.8303 48.1864 40.8385 54.8095 47.6791 55.0276H47.7353C50.1303 55.0276 54.3404 49.2195 54.381 49.162C55.4854 47.5839 55.0829 45.8464 54.0767 45.1413ZM52.3498 47.7058C50.7641 49.9021 48.5128 52.1959 47.6316 52.524C42.9429 52.304 36.3635 48.1834 29.0816 40.9003C21.8004 33.6165 17.6804 27.0446 17.4629 22.3715C17.7791 21.4878 20.0728 19.2221 22.2491 17.6484C22.4103 17.5371 22.6091 17.4728 22.7947 17.4728C22.8359 17.4728 22.8703 17.4765 22.8972 17.4815C23.6003 18.5034 27.3747 24.2172 28.0597 25.2853C28.0622 25.3978 28.0241 25.6833 27.8097 26.0909C27.5816 26.5252 26.871 27.7915 25.8603 29.5627L25.0741 30.9409L25.986 32.2396C26.666 33.2052 28.2835 35.3046 31.4791 38.5009C34.6885 41.7115 36.7803 43.324 37.7422 44.0002L39.041 44.9121L40.4191 44.1246C41.7548 43.3614 43.3685 42.4471 43.8935 42.1715C44.3148 41.9496 44.6029 41.9321 44.681 41.9321C44.6935 41.9321 44.7042 41.9321 44.7129 41.9334C45.6698 42.534 51.5073 46.4096 52.5379 47.1165C52.5548 47.2165 52.5391 47.4339 52.3498 47.7058ZM40.1503 29.7078C40.3116 29.8709 40.5385 29.9704 40.7904 29.9635L41.2479 29.9528C41.2566 29.9528 41.2629 29.9491 41.2729 29.9485L50.2379 29.9879C50.7423 29.976 51.1604 29.5585 51.1723 29.0528L51.1729 28.4116C51.0966 27.8166 50.6285 27.4678 50.1235 27.4791L44.2053 27.4634L54.4378 17.2447C54.926 16.7566 54.926 15.9646 54.4378 15.4765C53.9497 14.989 53.1585 14.989 52.6703 15.4765L42.4097 25.7234L42.4441 19.6752C42.4553 19.1703 42.0548 18.7303 41.5498 18.7421L40.9085 18.7427C40.4023 18.7552 39.9841 19.0559 39.9735 19.5609L39.9478 28.5846C39.9478 28.5934 39.9822 28.5996 39.9822 28.6084L39.9322 29.0659C39.9272 29.3196 39.9866 29.5452 40.1503 29.7078Z" fill="white"/>
</g>
<defs>
<linearGradient id="paint0_linear_6169_4142" x1="35" y1="0" x2="35" y2="70" gradientUnits="userSpaceOnUse">
<stop stop-color="#71B1CD"/>
<stop offset="1" stop-color="#3287AC"/>
</linearGradient>
<clipPath id="clip0_6169_4142">
<rect width="40" height="40" fill="white" transform="translate(15 15)"/>
</clipPath>
</defs>
</svg>
