<svg width="70" height="70" viewBox="0 0 70 70" fill="none" xmlns="http://www.w3.org/2000/svg">
<rect width="70" height="70" rx="6.13698" fill="url(#paint0_linear_6169_4159)"/>
<path d="M32.1875 35.8297L28.5453 32.1875L26.5625 34.1703L32.1875 39.7953L43.4375 28.5453L41.4547 26.5625L32.1875 35.8297Z" fill="white"/>
<path d="M35 54.6875L26.315 50.0567C23.8391 48.7395 21.7686 46.7729 20.3257 44.368C18.8828 41.9632 18.122 39.2108 18.125 36.4062V18.125C18.1258 17.3793 18.4223 16.6644 18.9496 16.1371C19.4769 15.6098 20.1918 15.3132 20.9375 15.3125H49.0625C49.8082 15.3132 50.5231 15.6098 51.0504 16.1371C51.5777 16.6644 51.8743 17.3793 51.875 18.125V36.4062C51.878 39.2108 51.1172 41.9632 49.6743 44.368C48.2315 46.7729 46.1609 48.7395 43.685 50.0567L35 54.6875ZM20.9375 18.125V36.4062C20.9352 38.701 21.5578 40.953 22.7386 42.9206C23.9194 44.8883 25.6137 46.4972 27.6397 47.5747L35 51.4995L42.3603 47.5761C44.3865 46.4985 46.081 44.8893 47.2618 42.9214C48.4426 40.9535 49.0651 38.7012 49.0625 36.4062V18.125H20.9375Z" fill="white"/>
<defs>
<linearGradient id="paint0_linear_6169_4159" x1="35" y1="0" x2="35" y2="70" gradientUnits="userSpaceOnUse">
<stop stop-color="#D579CC"/>
<stop offset="1" stop-color="#AC32A0"/>
</linearGradient>
</defs>
</svg>
