<svg width="70" height="70" viewBox="0 0 70 70" fill="none" xmlns="http://www.w3.org/2000/svg">
<rect width="70" height="70" rx="6.6208" fill="url(#paint0_linear_6169_4127)"/>
<path d="M35 16.25C24.6444 16.25 16.25 24.6444 16.25 35C16.25 45.3556 24.6444 53.75 35 53.75C45.3556 53.75 53.75 45.3556 53.75 35C53.75 24.6444 45.3556 16.25 35 16.25Z" stroke="white" stroke-width="2.8125" stroke-linecap="round" stroke-linejoin="round"/>
<path d="M27.5 52.19V38.75L35 25.625L42.5 38.75V52.19" stroke="white" stroke-width="2.8125" stroke-linecap="round" stroke-linejoin="round"/>
<path d="M27.5 38.75C27.5 38.75 29.6131 40.625 31.25 40.625C32.8869 40.625 35 38.75 35 38.75C35 38.75 37.1131 40.625 38.75 40.625C40.3869 40.625 42.5 38.75 42.5 38.75" stroke="white" stroke-width="2.8125" stroke-linecap="round" stroke-linejoin="round"/>
<defs>
<linearGradient id="paint0_linear_6169_4127" x1="35" y1="0" x2="35" y2="70" gradientUnits="userSpaceOnUse">
<stop stop-color="#E87941"/>
<stop offset="1" stop-color="#DE3282"/>
</linearGradient>
</defs>
</svg>
