<svg width="70" height="70" viewBox="0 0 70 70" fill="none" xmlns="http://www.w3.org/2000/svg">
<rect width="70" height="70" rx="6.4" fill="url(#paint0_linear_6169_4151)"/>
<path d="M45.1953 15.2266H24.8047C23.2534 15.2266 21.9922 16.4878 21.9922 18.0391V51.7891C21.9922 53.3403 23.2534 54.6016 24.8047 54.6016H45.1953C46.7466 54.6016 48.0078 53.3403 48.0078 51.7891V18.0391C48.0078 16.4878 46.7466 15.2266 45.1953 15.2266ZM44.8438 51.4375H25.1562V18.3906H44.8438V51.4375ZM33.2422 46.9551C33.2422 47.4213 33.4274 47.8684 33.757 48.198C34.0867 48.5277 34.5338 48.7129 35 48.7129C35.4662 48.7129 35.9133 48.5277 36.243 48.198C36.5726 47.8684 36.7578 47.4213 36.7578 46.9551C36.7578 46.4889 36.5726 46.0418 36.243 45.7121C35.9133 45.3825 35.4662 45.1973 35 45.1973C34.5338 45.1973 34.0867 45.3825 33.757 45.7121C33.4274 46.0418 33.2422 46.4889 33.2422 46.9551Z" fill="white"/>
<defs>
<linearGradient id="paint0_linear_6169_4151" x1="35" y1="0" x2="35" y2="70" gradientUnits="userSpaceOnUse">
<stop stop-color="#FEE609"/>
<stop offset="1" stop-color="#F7A300"/>
</linearGradient>
</defs>
</svg>
