<svg width="531" height="250" viewBox="0 0 531 250" fill="none" xmlns="http://www.w3.org/2000/svg">
<g clip-path="url(#clip0_1125_3385)">
<path fill-rule="evenodd" clip-rule="evenodd" d="M231.622 222.468C186.455 254.689 132.678 251.283 93.0324 228.165C52.7226 204.661 25.3217 162.428 44.3593 113.274C64.3637 61.6234 119.058 26.2167 174.279 18.3913C233.021 10.0671 291.987 26.0244 306.082 76.1852C320.261 126.645 283.262 185.631 231.622 222.468Z" fill="#FCF7FF"/>
<g filter="url(#filter0_dd_1125_3385)">
<rect x="171.047" y="26.6173" width="359.586" height="206.793" rx="6.13629" fill="url(#paint0_radial_1125_3385)"/>
<rect x="171.047" y="26.6173" width="359.586" height="206.793" rx="6.13629" fill="white"/>
<path d="M212.742 202.355V208.706H212.097V203.634L209.833 208.706H209.364L207.099 203.653V208.706H206.455V202.355H207.136L209.594 207.859L212.051 202.355H212.742ZM216.403 208.78C215.931 208.78 215.504 208.675 215.124 208.467C214.749 208.252 214.452 207.951 214.231 207.565C214.016 207.172 213.909 206.715 213.909 206.193C213.909 205.672 214.019 205.217 214.24 204.831C214.461 204.438 214.762 204.137 215.142 203.929C215.523 203.714 215.949 203.607 216.422 203.607C216.894 203.607 217.321 203.714 217.701 203.929C218.088 204.137 218.388 204.438 218.603 204.831C218.824 205.217 218.934 205.672 218.934 206.193C218.934 206.709 218.824 207.163 218.603 207.555C218.382 207.948 218.078 208.252 217.692 208.467C217.305 208.675 216.876 208.78 216.403 208.78ZM216.403 208.218C216.735 208.218 217.041 208.144 217.324 207.997C217.606 207.844 217.833 207.617 218.005 207.316C218.183 207.009 218.272 206.635 218.272 206.193C218.272 205.751 218.186 205.38 218.014 205.079C217.842 204.773 217.615 204.546 217.333 204.398C217.051 204.245 216.744 204.168 216.412 204.168C216.081 204.168 215.774 204.245 215.492 204.398C215.21 204.546 214.983 204.773 214.811 205.079C214.645 205.38 214.562 205.751 214.562 206.193C214.562 206.635 214.645 207.009 214.811 207.316C214.983 207.617 215.207 207.844 215.483 207.997C215.765 208.144 216.072 208.218 216.403 208.218ZM222.465 203.588C223.067 203.588 223.558 203.775 223.938 204.15C224.318 204.518 224.509 205.055 224.509 205.761V208.706H223.874V205.834C223.874 205.288 223.735 204.871 223.459 204.582C223.189 204.294 222.818 204.15 222.346 204.15C221.861 204.15 221.474 204.303 221.186 204.61C220.897 204.917 220.753 205.368 220.753 205.963V208.706H220.109V203.68H220.753V204.536C220.913 204.23 221.143 203.996 221.444 203.837C221.744 203.671 222.085 203.588 222.465 203.588Z" fill="#776181"/>
<path d="M264.673 202.272V202.806H262.887V208.706H262.243V202.806H260.448V202.272H264.673ZM270.044 203.68V208.706H269.4V207.822C269.252 208.135 269.025 208.375 268.718 208.54C268.412 208.706 268.068 208.789 267.688 208.789C267.086 208.789 266.595 208.605 266.215 208.237C265.834 207.862 265.644 207.322 265.644 206.617V203.68H266.279V206.543C266.279 207.089 266.414 207.506 266.684 207.795C266.96 208.083 267.335 208.227 267.807 208.227C268.292 208.227 268.679 208.074 268.967 207.767C269.255 207.46 269.4 207.009 269.4 206.414V203.68H270.044ZM276.062 205.935C276.062 206.156 276.056 206.325 276.043 206.442H271.874C271.892 206.822 271.984 207.147 272.15 207.417C272.316 207.687 272.534 207.893 272.804 208.034C273.074 208.169 273.368 208.237 273.687 208.237C274.104 208.237 274.454 208.135 274.736 207.933C275.025 207.73 275.215 207.457 275.307 207.114H275.988C275.866 207.604 275.602 208.006 275.197 208.319C274.798 208.626 274.295 208.78 273.687 208.78C273.215 208.78 272.791 208.675 272.417 208.467C272.043 208.252 271.748 207.951 271.533 207.565C271.325 207.172 271.22 206.715 271.22 206.193C271.22 205.672 271.325 205.214 271.533 204.822C271.742 204.429 272.033 204.128 272.408 203.92C272.782 203.711 273.209 203.607 273.687 203.607C274.166 203.607 274.583 203.711 274.939 203.92C275.301 204.128 275.577 204.411 275.767 204.766C275.964 205.116 276.062 205.506 276.062 205.935ZM275.408 205.917C275.415 205.543 275.338 205.224 275.178 204.96C275.025 204.696 274.813 204.496 274.543 204.361C274.273 204.226 273.979 204.159 273.66 204.159C273.181 204.159 272.773 204.312 272.435 204.619C272.098 204.926 271.911 205.359 271.874 205.917H275.408ZM278.971 208.78C278.394 208.78 277.922 208.648 277.554 208.384C277.192 208.114 276.989 207.749 276.946 207.288H277.609C277.64 207.571 277.771 207.801 278.005 207.979C278.244 208.151 278.563 208.237 278.962 208.237C279.312 208.237 279.585 208.154 279.781 207.988C279.984 207.822 280.085 207.617 280.085 207.371C280.085 207.199 280.03 207.058 279.919 206.948C279.809 206.837 279.668 206.752 279.496 206.69C279.33 206.623 279.103 206.552 278.815 206.478C278.44 206.38 278.137 206.282 277.903 206.184C277.67 206.086 277.471 205.942 277.305 205.751C277.146 205.555 277.066 205.294 277.066 204.969C277.066 204.723 277.139 204.496 277.287 204.288C277.434 204.079 277.643 203.913 277.913 203.791C278.183 203.668 278.489 203.607 278.833 203.607C279.373 203.607 279.809 203.745 280.14 204.021C280.471 204.291 280.649 204.665 280.674 205.144H280.03C280.011 204.849 279.895 204.613 279.68 204.435C279.471 204.251 279.183 204.159 278.815 204.159C278.489 204.159 278.226 204.236 278.023 204.389C277.821 204.542 277.719 204.733 277.719 204.96C277.719 205.156 277.778 205.319 277.894 205.448C278.017 205.57 278.167 205.668 278.345 205.742C278.523 205.81 278.763 205.886 279.063 205.972C279.425 206.07 279.714 206.166 279.928 206.258C280.143 206.35 280.327 206.485 280.481 206.663C280.634 206.841 280.714 207.077 280.72 207.371C280.72 207.641 280.646 207.884 280.499 208.098C280.352 208.307 280.146 208.473 279.882 208.595C279.619 208.718 279.315 208.78 278.971 208.78Z" fill="#776181"/>
<path d="M323.167 202.272L321.344 208.706H320.626L319.006 203.22L317.35 208.706L316.65 208.715L314.864 202.272H315.555L317.027 207.914L318.675 202.272H319.393L320.994 207.914L322.476 202.272H323.167ZM328.699 205.935C328.699 206.156 328.693 206.325 328.681 206.442H324.511C324.53 206.822 324.622 207.147 324.787 207.417C324.953 207.687 325.171 207.893 325.441 208.034C325.711 208.169 326.005 208.237 326.325 208.237C326.742 208.237 327.092 208.135 327.374 207.933C327.662 207.73 327.852 207.457 327.945 207.114H328.626C328.503 207.604 328.239 208.006 327.834 208.319C327.435 208.626 326.932 208.78 326.325 208.78C325.852 208.78 325.429 208.675 325.054 208.467C324.68 208.252 324.385 207.951 324.171 207.565C323.962 207.172 323.858 206.715 323.858 206.193C323.858 205.672 323.962 205.214 324.171 204.822C324.379 204.429 324.671 204.128 325.045 203.92C325.419 203.711 325.846 203.607 326.325 203.607C326.803 203.607 327.22 203.711 327.576 203.92C327.938 204.128 328.215 204.411 328.405 204.766C328.601 205.116 328.699 205.506 328.699 205.935ZM328.046 205.917C328.052 205.543 327.975 205.224 327.816 204.96C327.662 204.696 327.451 204.496 327.181 204.361C326.911 204.226 326.616 204.159 326.297 204.159C325.818 204.159 325.41 204.312 325.073 204.619C324.735 204.926 324.548 205.359 324.511 205.917H328.046ZM329.584 206.184C329.584 205.668 329.688 205.217 329.897 204.831C330.105 204.438 330.39 204.137 330.753 203.929C331.121 203.714 331.535 203.607 331.995 203.607C332.437 203.607 332.836 203.714 333.192 203.929C333.548 204.144 333.808 204.423 333.974 204.766V201.895H334.618V208.706H333.974V207.583C333.821 207.933 333.569 208.221 333.219 208.448C332.87 208.669 332.458 208.78 331.986 208.78C331.526 208.78 331.112 208.672 330.743 208.457C330.381 208.243 330.096 207.939 329.887 207.546C329.685 207.153 329.584 206.699 329.584 206.184ZM333.974 206.193C333.974 205.788 333.891 205.432 333.726 205.125C333.56 204.819 333.333 204.582 333.044 204.417C332.762 204.251 332.449 204.168 332.106 204.168C331.75 204.168 331.431 204.248 331.148 204.407C330.866 204.567 330.642 204.8 330.476 205.107C330.317 205.408 330.237 205.767 330.237 206.184C330.237 206.595 330.317 206.957 330.476 207.27C330.642 207.577 330.866 207.813 331.148 207.979C331.431 208.138 331.75 208.218 332.106 208.218C332.449 208.218 332.762 208.135 333.044 207.97C333.333 207.804 333.56 207.568 333.726 207.261C333.891 206.954 333.974 206.598 333.974 206.193Z" fill="#776181"/>
<path d="M376.142 202.272V202.806H374.356V208.706H373.712V202.806H371.917V202.272H376.142ZM379.552 203.588C379.933 203.588 380.273 203.668 380.574 203.828C380.881 203.987 381.12 204.233 381.292 204.564C381.47 204.889 381.559 205.288 381.559 205.761V208.706H380.924V205.834C380.924 205.288 380.786 204.871 380.509 204.582C380.239 204.294 379.868 204.15 379.396 204.15C378.911 204.15 378.524 204.303 378.236 204.61C377.947 204.917 377.803 205.368 377.803 205.963V208.706H377.159V201.895H377.803V204.536C377.963 204.236 378.196 204.002 378.503 203.837C378.816 203.671 379.166 203.588 379.552 203.588ZM387.337 203.68V208.706H386.693V207.822C386.546 208.135 386.319 208.375 386.012 208.54C385.705 208.706 385.361 208.789 384.981 208.789C384.38 208.789 383.889 208.605 383.508 208.237C383.128 207.862 382.938 207.322 382.938 206.617V203.68H383.573V206.543C383.573 207.089 383.708 207.506 383.978 207.795C384.254 208.083 384.628 208.227 385.101 208.227C385.585 208.227 385.972 208.074 386.26 207.767C386.549 207.46 386.693 207.009 386.693 206.414V203.68H387.337ZM389.453 204.573C389.594 204.26 389.809 204.018 390.097 203.846C390.391 203.674 390.75 203.588 391.174 203.588V204.26H390.999C390.533 204.26 390.158 204.386 389.876 204.638C389.594 204.889 389.453 205.309 389.453 205.899V208.706H388.808V203.68H389.453V204.573ZM393.874 208.78C393.297 208.78 392.824 208.648 392.456 208.384C392.094 208.114 391.892 207.749 391.849 207.288H392.511C392.542 207.571 392.674 207.801 392.907 207.979C393.146 208.151 393.466 208.237 393.864 208.237C394.214 208.237 394.487 208.154 394.684 207.988C394.886 207.822 394.987 207.617 394.987 207.371C394.987 207.199 394.932 207.058 394.822 206.948C394.711 206.837 394.57 206.752 394.398 206.69C394.233 206.623 394.006 206.552 393.717 206.478C393.343 206.38 393.039 206.282 392.806 206.184C392.573 206.086 392.373 205.942 392.208 205.751C392.048 205.555 391.968 205.294 391.968 204.969C391.968 204.723 392.042 204.496 392.189 204.288C392.336 204.079 392.545 203.913 392.815 203.791C393.085 203.668 393.392 203.607 393.736 203.607C394.276 203.607 394.711 203.745 395.043 204.021C395.374 204.291 395.552 204.665 395.576 205.144H394.932C394.914 204.849 394.797 204.613 394.582 204.435C394.374 204.251 394.085 204.159 393.717 204.159C393.392 204.159 393.128 204.236 392.926 204.389C392.723 204.542 392.622 204.733 392.622 204.96C392.622 205.156 392.68 205.319 392.797 205.448C392.919 205.57 393.07 205.668 393.248 205.742C393.426 205.81 393.665 205.886 393.966 205.972C394.328 206.07 394.616 206.166 394.831 206.258C395.046 206.35 395.23 206.485 395.383 206.663C395.537 206.841 395.616 207.077 395.622 207.371C395.622 207.641 395.549 207.884 395.402 208.098C395.254 208.307 395.049 208.473 394.785 208.595C394.521 208.718 394.217 208.78 393.874 208.78Z" fill="#776181"/>
<path d="M429.028 202.272V202.806H426.193V205.208H428.586V205.742H426.193V208.706H425.549V202.272H429.028ZM430.732 204.573C430.874 204.26 431.088 204.018 431.377 203.846C431.671 203.674 432.03 203.588 432.454 203.588V204.26H432.279C431.812 204.26 431.438 204.386 431.156 204.638C430.874 204.889 430.732 205.309 430.732 205.899V208.706H430.088V203.68H430.732V204.573ZM433.745 202.732C433.616 202.732 433.506 202.686 433.414 202.594C433.322 202.502 433.276 202.389 433.276 202.254C433.276 202.119 433.322 202.008 433.414 201.922C433.506 201.83 433.616 201.784 433.745 201.784C433.874 201.784 433.984 201.83 434.076 201.922C434.169 202.008 434.215 202.119 434.215 202.254C434.215 202.389 434.169 202.502 434.076 202.594C433.984 202.686 433.874 202.732 433.745 202.732ZM434.067 203.68V208.706H433.423V203.68H434.067Z" fill="#776181"/>
<path d="M481.946 208.77C481.522 208.77 481.148 208.697 480.823 208.549C480.503 208.402 480.252 208.197 480.068 207.933C479.884 207.669 479.786 207.374 479.773 207.049H480.454C480.485 207.362 480.623 207.638 480.869 207.878C481.114 208.111 481.473 208.227 481.946 208.227C482.381 208.227 482.725 208.117 482.976 207.896C483.234 207.669 483.363 207.384 483.363 207.04C483.363 206.764 483.292 206.543 483.151 206.377C483.01 206.205 482.835 206.08 482.627 206C482.418 205.914 482.13 205.822 481.761 205.724C481.332 205.607 480.991 205.494 480.74 205.383C480.488 205.273 480.273 205.101 480.095 204.868C479.917 204.635 479.828 204.318 479.828 203.92C479.828 203.588 479.914 203.294 480.086 203.036C480.258 202.772 480.5 202.567 480.813 202.419C481.126 202.272 481.485 202.198 481.89 202.198C482.486 202.198 482.964 202.346 483.326 202.64C483.694 202.929 483.906 203.303 483.961 203.763H483.262C483.219 203.499 483.075 203.266 482.829 203.064C482.584 202.855 482.252 202.751 481.835 202.751C481.448 202.751 481.126 202.855 480.869 203.064C480.611 203.266 480.482 203.545 480.482 203.901C480.482 204.171 480.553 204.389 480.694 204.555C480.835 204.72 481.01 204.846 481.218 204.932C481.433 205.018 481.722 205.11 482.084 205.208C482.501 205.325 482.838 205.441 483.096 205.558C483.354 205.668 483.572 205.84 483.75 206.073C483.928 206.307 484.017 206.62 484.017 207.012C484.017 207.313 483.937 207.598 483.777 207.868C483.618 208.138 483.381 208.356 483.068 208.522C482.755 208.688 482.381 208.77 481.946 208.77ZM484.967 206.184C484.967 205.668 485.068 205.217 485.271 204.831C485.479 204.438 485.765 204.137 486.127 203.929C486.495 203.714 486.909 203.607 487.369 203.607C487.848 203.607 488.259 203.717 488.603 203.938C488.953 204.159 489.204 204.441 489.358 204.785V203.68H490.002V208.706H489.358V207.592C489.198 207.936 488.943 208.221 488.594 208.448C488.25 208.669 487.839 208.78 487.36 208.78C486.906 208.78 486.495 208.672 486.127 208.457C485.765 208.243 485.479 207.939 485.271 207.546C485.068 207.153 484.967 206.699 484.967 206.184ZM489.358 206.193C489.358 205.788 489.275 205.432 489.109 205.125C488.943 204.819 488.716 204.582 488.428 204.417C488.146 204.251 487.833 204.168 487.489 204.168C487.133 204.168 486.814 204.248 486.532 204.407C486.249 204.567 486.026 204.8 485.86 205.107C485.7 205.408 485.621 205.767 485.621 206.184C485.621 206.595 485.7 206.957 485.86 207.27C486.026 207.577 486.249 207.813 486.532 207.979C486.814 208.138 487.133 208.218 487.489 208.218C487.833 208.218 488.146 208.135 488.428 207.97C488.716 207.804 488.943 207.568 489.109 207.261C489.275 206.954 489.358 206.598 489.358 206.193ZM492.31 204.223V207.344C492.31 207.65 492.369 207.862 492.485 207.979C492.602 208.095 492.807 208.154 493.102 208.154H493.691V208.706H493.001C492.547 208.706 492.209 208.602 491.988 208.393C491.767 208.178 491.657 207.828 491.657 207.344V204.223H490.957V203.68H491.657V202.419H492.31V203.68H493.691V204.223H492.31Z" fill="#776181"/>
<path d="M217.914 177.514L272.494 154.398L326.432 101.744L376.517 177.514L431.74 131.282L481.825 147.977" stroke="#CF8CF8" stroke-width="1.28424" stroke-linecap="round"/>
<circle cx="272.49" cy="153.756" r="2.24742" fill="white" stroke="#F1D9FF" stroke-width="0.642119"/>
<circle cx="219.826" cy="176.871" r="2.24742" fill="white" stroke="#F1D9FF" stroke-width="0.642119"/>
<circle cx="326.436" cy="102.386" r="2.24742" fill="#BF62F9" stroke="#BF62F9" stroke-width="0.642119"/>
<circle cx="377.795" cy="178.156" r="2.24742" fill="white" stroke="#F1D9FF" stroke-width="0.642119"/>
<circle cx="481.818" cy="148.619" r="2.24742" fill="white" stroke="#F1D9FF" stroke-width="0.642119"/>
<circle cx="431.733" cy="131.924" r="2.24742" fill="white" stroke="#F1D9FF" stroke-width="0.642119"/>
<g opacity="0.7">
<line x1="206.046" y1="90.4938" x2="495.634" y2="90.4938" stroke="#240631" stroke-opacity="0.1" stroke-width="0.670342" stroke-linecap="round" stroke-dasharray="3.35 3.35"/>
<line x1="206.046" y1="119.989" x2="495.634" y2="119.989" stroke="#240631" stroke-opacity="0.1" stroke-width="0.670342" stroke-linecap="round" stroke-dasharray="3.35 3.35"/>
<line x1="206.046" y1="149.484" x2="495.634" y2="149.484" stroke="#240631" stroke-opacity="0.1" stroke-width="0.670342" stroke-linecap="round" stroke-dasharray="3.35 3.35"/>
<line x1="206.046" y1="178.979" x2="495.634" y2="178.979" stroke="#240631" stroke-opacity="0.1" stroke-width="0.670342" stroke-linecap="round" stroke-dasharray="3.35 3.35"/>
</g>
<g filter="url(#filter1_dd_1125_3385)">
<rect x="313.795" y="82.0478" width="23.9824" height="12.4243" rx="1.46325" fill="white"/>
<path d="M320.329 90.2311C320.863 89.8023 321.282 89.4513 321.584 89.1781C321.887 88.9006 322.141 88.6127 322.347 88.3142C322.557 88.0115 322.662 87.7152 322.662 87.4251C322.662 87.1519 322.595 86.9375 322.461 86.7819C322.33 86.6222 322.118 86.5423 321.824 86.5423C321.538 86.5423 321.315 86.6327 321.155 86.8135C321 86.99 320.916 87.2275 320.903 87.526H320.348C320.365 87.0552 320.508 86.6915 320.777 86.4351C321.046 86.1787 321.393 86.0505 321.818 86.0505C322.251 86.0505 322.593 86.1703 322.845 86.4099C323.102 86.6495 323.23 86.9795 323.23 87.3999C323.23 87.7488 323.125 88.0893 322.915 88.4214C322.709 88.7493 322.473 89.0393 322.208 89.2916C321.944 89.5396 321.605 89.8296 321.193 90.1617H323.362V90.641H320.329V90.2311ZM324.026 88.3646C324.026 87.6416 324.143 87.0783 324.379 86.6747C324.614 86.267 325.026 86.0631 325.615 86.0631C326.199 86.0631 326.609 86.267 326.844 86.6747C327.08 87.0783 327.197 87.6416 327.197 88.3646C327.197 89.1003 327.08 89.672 326.844 90.0798C326.609 90.4875 326.199 90.6914 325.615 90.6914C325.026 90.6914 324.614 90.4875 324.379 90.0798C324.143 89.672 324.026 89.1003 324.026 88.3646ZM326.63 88.3646C326.63 87.9989 326.605 87.6899 326.554 87.4377C326.508 87.1813 326.409 86.9753 326.258 86.8198C326.111 86.6642 325.896 86.5865 325.615 86.5865C325.329 86.5865 325.11 86.6642 324.959 86.8198C324.812 86.9753 324.713 87.1813 324.663 87.4377C324.616 87.6899 324.593 87.9989 324.593 88.3646C324.593 88.743 324.616 89.0604 324.663 89.3168C324.713 89.5732 324.812 89.7792 324.959 89.9347C325.11 90.0903 325.329 90.168 325.615 90.168C325.896 90.168 326.111 90.0903 326.258 89.9347C326.409 89.7792 326.508 89.5732 326.554 89.3168C326.605 89.0604 326.63 88.743 326.63 88.3646ZM330.463 90.6914L328.654 88.6862V90.6914H328.08V86.2964H328.654V88.3331L330.47 86.2964H331.195L329.202 88.4971L331.214 90.6914H330.463Z" fill="#6D07AB"/>
<rect x="313.795" y="82.0478" width="23.9824" height="12.4243" rx="1.46325" stroke="white" stroke-width="0.418073"/>
<path fill-rule="evenodd" clip-rule="evenodd" d="M325.197 97.4345C325.524 97.761 326.053 97.761 326.379 97.4345L329.133 94.6812L322.444 94.6812L325.197 97.4345Z" fill="white"/>
</g>
<path d="M198.354 59.1648H197.158L193.56 53.7212V59.1648H192.365V51.8647H193.56L197.158 57.2978V51.8647H198.354V59.1648ZM202.431 59.2592C201.885 59.2592 201.392 59.1368 200.952 58.8921C200.511 58.6404 200.165 58.2907 199.914 57.8432C199.662 57.3887 199.536 56.8643 199.536 56.2699C199.536 55.6826 199.665 55.1616 199.924 54.7071C200.183 54.2526 200.536 53.903 200.983 53.6582C201.431 53.4135 201.931 53.2911 202.483 53.2911C203.036 53.2911 203.536 53.4135 203.983 53.6582C204.431 53.903 204.784 54.2526 205.042 54.7071C205.301 55.1616 205.431 55.6826 205.431 56.2699C205.431 56.8573 205.298 57.3782 205.032 57.8327C204.766 58.2872 204.403 58.6404 203.941 58.8921C203.487 59.1368 202.983 59.2592 202.431 59.2592ZM202.431 58.2208C202.738 58.2208 203.025 58.1474 203.291 58.0006C203.564 57.8537 203.784 57.6334 203.952 57.3398C204.119 57.0461 204.203 56.6895 204.203 56.2699C204.203 55.8504 204.123 55.4973 203.962 55.2106C203.801 54.9169 203.588 54.6966 203.322 54.5498C203.057 54.4029 202.77 54.3295 202.462 54.3295C202.155 54.3295 201.868 54.4029 201.602 54.5498C201.343 54.6966 201.137 54.9169 200.983 55.2106C200.83 55.4973 200.753 55.8504 200.753 56.2699C200.753 56.8922 200.91 57.3747 201.225 57.7174C201.546 58.053 201.948 58.2208 202.431 58.2208ZM207.095 59.2382C206.878 59.2382 206.696 59.1648 206.55 59.018C206.403 58.8711 206.329 58.6893 206.329 58.4725C206.329 58.2558 206.403 58.074 206.55 57.9271C206.696 57.7803 206.878 57.7069 207.095 57.7069C207.305 57.7069 207.483 57.7803 207.63 57.9271C207.777 58.074 207.85 58.2558 207.85 58.4725C207.85 58.6893 207.777 58.8711 207.63 59.018C207.483 59.1648 207.305 59.2382 207.095 59.2382ZM214.374 59.2592C213.829 59.2592 213.336 59.1368 212.895 58.8921C212.455 58.6404 212.108 58.2907 211.857 57.8432C211.605 57.3887 211.479 56.8643 211.479 56.2699C211.479 55.6826 211.608 55.1616 211.867 54.7071C212.126 54.2526 212.479 53.903 212.926 53.6582C213.374 53.4135 213.874 53.2911 214.426 53.2911C214.979 53.2911 215.479 53.4135 215.926 53.6582C216.374 53.903 216.727 54.2526 216.986 54.7071C217.244 55.1616 217.374 55.6826 217.374 56.2699C217.374 56.8573 217.241 57.3782 216.975 57.8327C216.709 58.2872 216.346 58.6404 215.884 58.8921C215.43 59.1368 214.926 59.2592 214.374 59.2592ZM214.374 58.2208C214.682 58.2208 214.968 58.1474 215.234 58.0006C215.507 57.8537 215.727 57.6334 215.895 57.3398C216.063 57.0461 216.147 56.6895 216.147 56.2699C216.147 55.8504 216.066 55.4973 215.905 55.2106C215.744 54.9169 215.531 54.6966 215.265 54.5498C215 54.4029 214.713 54.3295 214.405 54.3295C214.098 54.3295 213.811 54.4029 213.545 54.5498C213.287 54.6966 213.08 54.9169 212.926 55.2106C212.773 55.4973 212.696 55.8504 212.696 56.2699C212.696 56.8922 212.853 57.3747 213.168 57.7174C213.489 58.053 213.891 58.2208 214.374 58.2208ZM220.979 54.361H219.909V59.1648H218.703V54.361H218.021V53.3855H218.703V52.9765C218.703 52.3122 218.877 51.8297 219.227 51.529C219.584 51.2214 220.14 51.0675 220.895 51.0675V52.064C220.531 52.064 220.276 52.1339 220.129 52.2737C219.982 52.4066 219.909 52.6408 219.909 52.9765V53.3855H220.979V54.361ZM225.959 54.2351C226.161 53.9694 226.438 53.7456 226.787 53.5638C227.137 53.382 227.532 53.2911 227.972 53.2911C228.476 53.2911 228.934 53.417 229.346 53.6687C229.766 53.9135 230.095 54.2596 230.332 54.7071C230.57 55.1546 230.689 55.6686 230.689 56.2489C230.689 56.8293 230.57 57.3503 230.332 57.8118C230.095 58.2663 229.766 58.6229 229.346 58.8816C228.934 59.1333 228.476 59.2592 227.972 59.2592C227.532 59.2592 227.14 59.1718 226.798 58.997C226.455 58.8152 226.175 58.5914 225.959 58.3257V61.9128H224.763V53.3855H225.959V54.2351ZM229.472 56.2489C229.472 55.8504 229.388 55.5077 229.221 55.2211C229.06 54.9274 228.843 54.7071 228.57 54.5603C228.305 54.4064 228.018 54.3295 227.71 54.3295C227.41 54.3295 227.123 54.4064 226.85 54.5603C226.584 54.7141 226.368 54.9379 226.2 55.2315C226.039 55.5252 225.959 55.8714 225.959 56.2699C225.959 56.6685 226.039 57.0181 226.2 57.3188C226.368 57.6125 226.584 57.8362 226.85 57.9901C227.123 58.1439 227.41 58.2208 227.71 58.2208C228.018 58.2208 228.305 58.1439 228.57 57.9901C228.843 57.8292 229.06 57.5985 229.221 57.2978C229.388 56.9971 229.472 56.6475 229.472 56.2489ZM237.168 56.1336C237.168 56.3503 237.154 56.5461 237.126 56.7209H232.711C232.745 57.1824 232.917 57.553 233.224 57.8327C233.532 58.1124 233.91 58.2523 234.357 58.2523C235.001 58.2523 235.455 57.9831 235.721 57.4447H237.011C236.836 57.9761 236.518 58.4131 236.056 58.7557C235.602 59.0914 235.035 59.2592 234.357 59.2592C233.805 59.2592 233.308 59.1368 232.868 58.8921C232.434 58.6404 232.092 58.2907 231.84 57.8432C231.595 57.3887 231.473 56.8643 231.473 56.2699C231.473 55.6756 231.592 55.1546 231.829 54.7071C232.074 54.2526 232.413 53.903 232.847 53.6582C233.287 53.4135 233.791 53.2911 234.357 53.2911C234.903 53.2911 235.389 53.41 235.815 53.6478C236.242 53.8855 236.574 54.2211 236.812 54.6547C237.049 55.0812 237.168 55.5742 237.168 56.1336ZM235.92 55.756C235.913 55.3155 235.756 54.9623 235.448 54.6966C235.14 54.4309 234.759 54.2981 234.305 54.2981C233.892 54.2981 233.539 54.4309 233.245 54.6966C232.952 54.9553 232.777 55.3085 232.721 55.756H235.92ZM240.852 59.2592C240.306 59.2592 239.813 59.1368 239.373 58.8921C238.932 58.6404 238.586 58.2907 238.334 57.8432C238.083 57.3887 237.957 56.8643 237.957 56.2699C237.957 55.6826 238.086 55.1616 238.345 54.7071C238.604 54.2526 238.957 53.903 239.404 53.6582C239.852 53.4135 240.352 53.2911 240.904 53.2911C241.457 53.2911 241.956 53.4135 242.404 53.6582C242.852 53.903 243.205 54.2526 243.463 54.7071C243.722 55.1616 243.851 55.6826 243.851 56.2699C243.851 56.8573 243.719 57.3782 243.453 57.8327C243.187 58.2872 242.824 58.6404 242.362 58.8921C241.908 59.1368 241.404 59.2592 240.852 59.2592ZM240.852 58.2208C241.159 58.2208 241.446 58.1474 241.712 58.0006C241.984 57.8537 242.205 57.6334 242.373 57.3398C242.54 57.0461 242.624 56.6895 242.624 56.2699C242.624 55.8504 242.544 55.4973 242.383 55.2106C242.222 54.9169 242.009 54.6966 241.743 54.5498C241.478 54.4029 241.191 54.3295 240.883 54.3295C240.575 54.3295 240.289 54.4029 240.023 54.5498C239.764 54.6966 239.558 54.9169 239.404 55.2106C239.25 55.4973 239.173 55.8504 239.173 56.2699C239.173 56.8922 239.331 57.3747 239.645 57.7174C239.967 58.053 240.369 58.2208 240.852 58.2208ZM246.229 54.2351C246.432 53.9694 246.708 53.7456 247.058 53.5638C247.407 53.382 247.802 53.2911 248.243 53.2911C248.746 53.2911 249.204 53.417 249.617 53.6687C250.037 53.9135 250.365 54.2596 250.603 54.7071C250.841 55.1546 250.96 55.6686 250.96 56.2489C250.96 56.8293 250.841 57.3503 250.603 57.8118C250.365 58.2663 250.037 58.6229 249.617 58.8816C249.204 59.1333 248.746 59.2592 248.243 59.2592C247.802 59.2592 247.411 59.1718 247.068 58.997C246.726 58.8152 246.446 58.5914 246.229 58.3257V61.9128H245.033V53.3855H246.229V54.2351ZM249.743 56.2489C249.743 55.8504 249.659 55.5077 249.491 55.2211C249.33 54.9274 249.114 54.7071 248.841 54.5603C248.575 54.4064 248.288 54.3295 247.981 54.3295C247.68 54.3295 247.393 54.4064 247.121 54.5603C246.855 54.7141 246.638 54.9379 246.47 55.2315C246.31 55.5252 246.229 55.8714 246.229 56.2699C246.229 56.6685 246.31 57.0181 246.47 57.3188C246.638 57.6125 246.855 57.8362 247.121 57.9901C247.393 58.1439 247.68 58.2208 247.981 58.2208C248.288 58.2208 248.575 58.1439 248.841 57.9901C249.114 57.8292 249.33 57.5985 249.491 57.2978C249.659 56.9971 249.743 56.6475 249.743 56.2489ZM253.338 51.4032V59.1648H252.142V51.4032H253.338ZM260.204 56.1336C260.204 56.3503 260.19 56.5461 260.162 56.7209H255.747C255.782 57.1824 255.953 57.553 256.261 57.8327C256.568 58.1124 256.946 58.2523 257.393 58.2523C258.037 58.2523 258.491 57.9831 258.757 57.4447H260.047C259.872 57.9761 259.554 58.4131 259.093 58.7557C258.638 59.0914 258.072 59.2592 257.393 59.2592C256.841 59.2592 256.345 59.1368 255.904 58.8921C255.47 58.6404 255.128 58.2907 254.876 57.8432C254.631 57.3887 254.509 56.8643 254.509 56.2699C254.509 55.6756 254.628 55.1546 254.866 54.7071C255.11 54.2526 255.449 53.903 255.883 53.6582C256.324 53.4135 256.827 53.2911 257.393 53.2911C257.939 53.2911 258.425 53.41 258.851 53.6478C259.278 53.8855 259.61 54.2211 259.848 54.6547C260.085 55.0812 260.204 55.5742 260.204 56.1336ZM258.956 55.756C258.949 55.3155 258.792 54.9623 258.484 54.6966C258.177 54.4309 257.795 54.2981 257.341 54.2981C256.928 54.2981 256.575 54.4309 256.282 54.6966C255.988 54.9553 255.813 55.3085 255.757 55.756H258.956ZM266.203 59.2592C265.749 59.2592 265.34 59.1788 264.976 59.018C264.62 58.8501 264.336 58.6264 264.127 58.3467C263.917 58.06 263.805 57.7418 263.791 57.3922H265.029C265.05 57.6369 265.165 57.8432 265.375 58.011C265.592 58.1719 265.861 58.2523 266.182 58.2523C266.518 58.2523 266.777 58.1893 266.959 58.0635C267.147 57.9306 267.242 57.7628 267.242 57.56C267.242 57.3433 267.137 57.1824 266.927 57.0775C266.724 56.9727 266.399 56.8573 265.952 56.7314C265.518 56.6126 265.165 56.4972 264.892 56.3853C264.62 56.2734 264.382 56.1021 264.179 55.8714C263.983 55.6406 263.885 55.3364 263.885 54.9588C263.885 54.6512 263.976 54.3715 264.158 54.1197C264.34 53.861 264.599 53.6582 264.934 53.5114C265.277 53.3646 265.668 53.2911 266.109 53.2911C266.766 53.2911 267.294 53.459 267.693 53.7946C268.098 54.1232 268.315 54.5743 268.343 55.1476H267.147C267.126 54.8889 267.021 54.6826 266.833 54.5288C266.644 54.375 266.389 54.2981 266.067 54.2981C265.752 54.2981 265.511 54.3575 265.343 54.4764C265.175 54.5952 265.092 54.7526 265.092 54.9483C265.092 55.1022 265.148 55.2315 265.259 55.3364C265.371 55.4413 265.508 55.5252 265.668 55.5882C265.829 55.6441 266.067 55.7175 266.382 55.8084C266.801 55.9203 267.144 56.0357 267.41 56.1545C267.682 56.2664 267.917 56.4342 268.112 56.658C268.308 56.8818 268.409 57.1789 268.416 57.5495C268.416 57.8782 268.326 58.1719 268.144 58.4306C267.962 58.6893 267.703 58.8921 267.368 59.0389C267.039 59.1858 266.651 59.2592 266.203 59.2592ZM274.942 53.3855V59.1648H273.747V58.483C273.558 58.7208 273.31 58.9096 273.002 59.0494C272.701 59.1823 272.38 59.2487 272.037 59.2487C271.582 59.2487 271.173 59.1543 270.81 58.9655C270.453 58.7767 270.17 58.497 269.96 58.1264C269.757 57.7558 269.656 57.3083 269.656 56.7839V53.3855H270.841V56.6056C270.841 57.123 270.971 57.5216 271.229 57.8013C271.488 58.074 271.841 58.2103 272.289 58.2103C272.736 58.2103 273.089 58.074 273.348 57.8013C273.614 57.5216 273.747 57.123 273.747 56.6056V53.3855H274.942ZM277.716 54.2456C277.918 53.9659 278.195 53.7387 278.544 53.5638C278.901 53.382 279.296 53.2911 279.729 53.2911C280.24 53.2911 280.701 53.4135 281.114 53.6582C281.527 53.903 281.852 54.2526 282.089 54.7071C282.327 55.1546 282.446 55.6686 282.446 56.2489C282.446 56.8293 282.327 57.3503 282.089 57.8118C281.852 58.2663 281.523 58.6229 281.104 58.8816C280.691 59.1333 280.233 59.2592 279.729 59.2592C279.282 59.2592 278.883 59.1718 278.534 58.997C278.191 58.8222 277.918 58.5984 277.716 58.3257V59.1648H276.52V51.4032H277.716V54.2456ZM281.229 56.2489C281.229 55.8504 281.145 55.5077 280.978 55.2211C280.817 54.9274 280.6 54.7071 280.327 54.5603C280.062 54.4064 279.775 54.3295 279.467 54.3295C279.167 54.3295 278.88 54.4064 278.607 54.5603C278.341 54.7141 278.125 54.9379 277.957 55.2315C277.796 55.5252 277.716 55.8714 277.716 56.2699C277.716 56.6685 277.796 57.0181 277.957 57.3188C278.125 57.6125 278.341 57.8362 278.607 57.9901C278.88 58.1439 279.167 58.2208 279.467 58.2208C279.775 58.2208 280.062 58.1439 280.327 57.9901C280.6 57.8292 280.817 57.5985 280.978 57.2978C281.145 56.9971 281.229 56.6475 281.229 56.2489ZM290.624 53.2911C291.079 53.2911 291.485 53.3855 291.841 53.5743C292.205 53.7631 292.488 54.0428 292.691 54.4134C292.9 54.784 293.005 55.2315 293.005 55.756V59.1648H291.82V55.9343C291.82 55.4168 291.691 55.0218 291.432 54.7491C291.173 54.4694 290.82 54.3295 290.373 54.3295C289.925 54.3295 289.569 54.4694 289.303 54.7491C289.044 55.0218 288.915 55.4168 288.915 55.9343V59.1648H287.73V55.9343C287.73 55.4168 287.6 55.0218 287.341 54.7491C287.083 54.4694 286.73 54.3295 286.282 54.3295C285.835 54.3295 285.478 54.4694 285.212 54.7491C284.954 55.0218 284.824 55.4168 284.824 55.9343V59.1648H283.628V53.3855H284.824V54.0463C285.02 53.8086 285.268 53.6233 285.569 53.4904C285.87 53.3576 286.191 53.2911 286.534 53.2911C286.995 53.2911 287.408 53.389 287.772 53.5848C288.135 53.7806 288.415 54.0638 288.611 54.4344C288.785 54.0848 289.058 53.8086 289.429 53.6058C289.799 53.396 290.198 53.2911 290.624 53.2911ZM295.135 52.6199C294.918 52.6199 294.737 52.5464 294.59 52.3996C294.443 52.2528 294.37 52.071 294.37 51.8542C294.37 51.6374 294.443 51.4556 294.59 51.3088C294.737 51.1619 294.918 51.0885 295.135 51.0885C295.345 51.0885 295.523 51.1619 295.67 51.3088C295.817 51.4556 295.89 51.6374 295.89 51.8542C295.89 52.071 295.817 52.2528 295.67 52.3996C295.523 52.5464 295.345 52.6199 295.135 52.6199ZM295.723 53.3855V59.1648H294.527V53.3855H295.723ZM298.687 54.361V57.56C298.687 57.7768 298.736 57.9341 298.834 58.032C298.939 58.1229 299.114 58.1684 299.359 58.1684H300.093V59.1648H299.149C298.611 59.1648 298.198 59.0389 297.911 58.7872C297.625 58.5355 297.481 58.1264 297.481 57.56V54.361H296.799V53.3855H297.481V51.9486H298.687V53.3855H300.093V54.361H298.687ZM302.59 54.361V57.56C302.59 57.7768 302.639 57.9341 302.737 58.032C302.842 58.1229 303.016 58.1684 303.261 58.1684H303.995V59.1648H303.051C302.513 59.1648 302.1 59.0389 301.814 58.7872C301.527 58.5355 301.384 58.1264 301.384 57.56V54.361H300.702V53.3855H301.384V51.9486H302.59V53.3855H303.995V54.361H302.59ZM310.394 56.1336C310.394 56.3503 310.38 56.5461 310.352 56.7209H305.937C305.972 57.1824 306.143 57.553 306.451 57.8327C306.758 58.1124 307.136 58.2523 307.583 58.2523C308.227 58.2523 308.681 57.9831 308.947 57.4447H310.237C310.062 57.9761 309.744 58.4131 309.282 58.7557C308.828 59.0914 308.262 59.2592 307.583 59.2592C307.031 59.2592 306.534 59.1368 306.094 58.8921C305.66 58.6404 305.318 58.2907 305.066 57.8432C304.821 57.3887 304.699 56.8643 304.699 56.2699C304.699 55.6756 304.818 55.1546 305.056 54.7071C305.3 54.2526 305.639 53.903 306.073 53.6582C306.513 53.4135 307.017 53.2911 307.583 53.2911C308.129 53.2911 308.615 53.41 309.041 53.6478C309.468 53.8855 309.8 54.2211 310.038 54.6547C310.275 55.0812 310.394 55.5742 310.394 56.1336ZM309.146 55.756C309.139 55.3155 308.982 54.9623 308.674 54.6966C308.366 54.4309 307.985 54.2981 307.531 54.2981C307.118 54.2981 306.765 54.4309 306.472 54.6966C306.178 54.9553 306.003 55.3085 305.947 55.756H309.146ZM311.172 56.2489C311.172 55.6686 311.291 55.1546 311.529 54.7071C311.774 54.2596 312.102 53.9135 312.515 53.6687C312.934 53.417 313.399 53.2911 313.91 53.2911C314.288 53.2911 314.658 53.375 315.022 53.5429C315.392 53.7037 315.686 53.9205 315.903 54.1932V51.4032H317.109V59.1648H315.903V58.2942C315.707 58.5739 315.434 58.8047 315.085 58.9865C314.742 59.1683 314.347 59.2592 313.899 59.2592C313.396 59.2592 312.934 59.1333 312.515 58.8816C312.102 58.6229 311.774 58.2663 311.529 57.8118C311.291 57.3503 311.172 56.8293 311.172 56.2489ZM315.903 56.2699C315.903 55.8714 315.819 55.5252 315.651 55.2315C315.49 54.9379 315.277 54.7141 315.011 54.5603C314.746 54.4064 314.459 54.3295 314.151 54.3295C313.844 54.3295 313.557 54.4064 313.291 54.5603C313.025 54.7071 312.809 54.9274 312.641 55.2211C312.48 55.5077 312.4 55.8504 312.4 56.2489C312.4 56.6475 312.48 56.9971 312.641 57.2978C312.809 57.5985 313.025 57.8292 313.291 57.9901C313.564 58.1439 313.85 58.2208 314.151 58.2208C314.459 58.2208 314.746 58.1439 315.011 57.9901C315.277 57.8362 315.49 57.6125 315.651 57.3188C315.819 57.0181 315.903 56.6685 315.903 56.2699ZM322.799 54.361V57.56C322.799 57.7768 322.848 57.9341 322.946 58.032C323.051 58.1229 323.226 58.1684 323.47 58.1684H324.205V59.1648H323.261C322.722 59.1648 322.31 59.0389 322.023 58.7872C321.736 58.5355 321.593 58.1264 321.593 57.56V54.361H320.911V53.3855H321.593V51.9486H322.799V53.3855H324.205V54.361H322.799ZM328.296 53.2911C328.736 53.2911 329.128 53.3855 329.471 53.5743C329.82 53.7631 330.093 54.0428 330.289 54.4134C330.492 54.784 330.593 55.2315 330.593 55.756V59.1648H329.408V55.9343C329.408 55.4168 329.278 55.0218 329.02 54.7491C328.761 54.4694 328.408 54.3295 327.96 54.3295C327.513 54.3295 327.156 54.4694 326.89 54.7491C326.632 55.0218 326.502 55.4168 326.502 55.9343V59.1648H325.307V51.4032H326.502V54.0568C326.705 53.8121 326.96 53.6233 327.268 53.4904C327.583 53.3576 327.925 53.2911 328.296 53.2911ZM337.415 56.1336C337.415 56.3503 337.401 56.5461 337.373 56.7209H332.957C332.992 57.1824 333.163 57.553 333.471 57.8327C333.779 58.1124 334.156 58.2523 334.604 58.2523C335.247 58.2523 335.702 57.9831 335.967 57.4447H337.258C337.083 57.9761 336.765 58.4131 336.303 58.7557C335.849 59.0914 335.282 59.2592 334.604 59.2592C334.052 59.2592 333.555 59.1368 333.115 58.8921C332.681 58.6404 332.338 58.2907 332.087 57.8432C331.842 57.3887 331.72 56.8643 331.72 56.2699C331.72 55.6756 331.838 55.1546 332.076 54.7071C332.321 54.2526 332.66 53.903 333.094 53.6582C333.534 53.4135 334.038 53.2911 334.604 53.2911C335.149 53.2911 335.635 53.41 336.062 53.6478C336.488 53.8855 336.821 54.2211 337.058 54.6547C337.296 55.0812 337.415 55.5742 337.415 56.1336ZM336.167 55.756C336.16 55.3155 336.002 54.9623 335.695 54.6966C335.387 54.4309 335.006 54.2981 334.551 54.2981C334.139 54.2981 333.786 54.4309 333.492 54.6966C333.198 54.9553 333.024 55.3085 332.968 55.756H336.167ZM343.739 54.361H342.669V59.1648H341.463V54.361H340.781V53.3855H341.463V52.9765C341.463 52.3122 341.638 51.8297 341.987 51.529C342.344 51.2214 342.9 51.0675 343.655 51.0675V52.064C343.292 52.064 343.036 52.1339 342.889 52.2737C342.743 52.4066 342.669 52.6408 342.669 52.9765V53.3855H343.739V54.361ZM347.306 59.2592C346.76 59.2592 346.267 59.1368 345.827 58.8921C345.386 58.6404 345.04 58.2907 344.788 57.8432C344.537 57.3887 344.411 56.8643 344.411 56.2699C344.411 55.6826 344.54 55.1616 344.799 54.7071C345.057 54.2526 345.411 53.903 345.858 53.6582C346.306 53.4135 346.806 53.2911 347.358 53.2911C347.91 53.2911 348.41 53.4135 348.858 53.6582C349.305 53.903 349.658 54.2526 349.917 54.7071C350.176 55.1616 350.305 55.6826 350.305 56.2699C350.305 56.8573 350.172 57.3782 349.907 57.8327C349.641 58.2872 349.277 58.6404 348.816 58.8921C348.361 59.1368 347.858 59.2592 347.306 59.2592ZM347.306 58.2208C347.613 58.2208 347.9 58.1474 348.166 58.0006C348.438 57.8537 348.659 57.6334 348.826 57.3398C348.994 57.0461 349.078 56.6895 349.078 56.2699C349.078 55.8504 348.998 55.4973 348.837 55.2106C348.676 54.9169 348.463 54.6966 348.197 54.5498C347.931 54.4029 347.645 54.3295 347.337 54.3295C347.029 54.3295 346.743 54.4029 346.477 54.5498C346.218 54.6966 346.012 54.9169 345.858 55.2106C345.704 55.4973 345.627 55.8504 345.627 56.2699C345.627 56.8922 345.785 57.3747 346.099 57.7174C346.421 58.053 346.823 58.2208 347.306 58.2208ZM352.683 54.2246C352.858 53.9309 353.089 53.7037 353.375 53.5429C353.669 53.375 354.015 53.2911 354.414 53.2911V54.5288H354.109C353.641 54.5288 353.284 54.6477 353.04 54.8854C352.802 55.1232 352.683 55.5357 352.683 56.1231V59.1648H351.487V53.3855H352.683V54.2246ZM362.509 53.2911C362.963 53.2911 363.369 53.3855 363.725 53.5743C364.089 53.7631 364.372 54.0428 364.575 54.4134C364.785 54.784 364.89 55.2315 364.89 55.756V59.1648H363.704V55.9343C363.704 55.4168 363.575 55.0218 363.316 54.7491C363.058 54.4694 362.704 54.3295 362.257 54.3295C361.809 54.3295 361.453 54.4694 361.187 54.7491C360.928 55.0218 360.799 55.4168 360.799 55.9343V59.1648H359.614V55.9343C359.614 55.4168 359.484 55.0218 359.226 54.7491C358.967 54.4694 358.614 54.3295 358.166 54.3295C357.719 54.3295 357.362 54.4694 357.097 54.7491C356.838 55.0218 356.708 55.4168 356.708 55.9343V59.1648H355.513V53.3855H356.708V54.0463C356.904 53.8086 357.152 53.6233 357.453 53.4904C357.754 53.3576 358.075 53.2911 358.418 53.2911C358.88 53.2911 359.292 53.389 359.656 53.5848C360.019 53.7806 360.299 54.0638 360.495 54.4344C360.67 54.0848 360.942 53.8086 361.313 53.6058C361.684 53.396 362.082 53.2911 362.509 53.2911Z" fill="#615C64"/>
</g>
<rect x="4.6875" y="50.2144" width="131.463" height="52.5972" rx="7.86573" fill="#A58CF0"/>
<path d="M30.726 69.3462V71.175H27.0881V83.0129H24.8463V71.175H21.1888V69.3462H30.726ZM38.6006 72.0009C39.4265 72.0009 40.1606 72.1779 40.803 72.5319C41.4585 72.8858 41.9698 73.4102 42.3368 74.105C42.717 74.7998 42.9071 75.6388 42.9071 76.622V83.0129H40.685V76.9563C40.685 75.9862 40.4425 75.2455 39.9575 74.7343C39.4724 74.2099 38.8104 73.9477 37.9714 73.9477C37.1323 73.9477 36.4638 74.2099 35.9656 74.7343C35.4805 75.2455 35.238 75.9862 35.238 76.9563V83.0129H32.9963V68.4613H35.238V73.4364C35.6182 72.9776 36.0967 72.6236 36.6735 72.3745C37.2634 72.1255 37.9058 72.0009 38.6006 72.0009ZM46.9071 70.7424C46.5007 70.7424 46.1599 70.6048 45.8846 70.3295C45.6093 70.0542 45.4716 69.7133 45.4716 69.3069C45.4716 68.9005 45.6093 68.5597 45.8846 68.2844C46.1599 68.0091 46.5007 67.8714 46.9071 67.8714C47.3004 67.8714 47.6347 68.0091 47.91 68.2844C48.1853 68.5597 48.3229 68.9005 48.3229 69.3069C48.3229 69.7133 48.1853 70.0542 47.91 70.3295C47.6347 70.6048 47.3004 70.7424 46.9071 70.7424ZM48.0083 72.1779V83.0129H45.7666V72.1779H48.0083ZM54.8844 83.1899C54.0322 83.1899 53.2653 83.0392 52.5836 82.7376C51.915 82.423 51.3841 82.0035 50.9908 81.4791C50.5975 80.9416 50.3878 80.3451 50.3616 79.6897H52.682C52.7213 80.1485 52.9376 80.5352 53.3309 80.8499C53.7373 81.1514 54.242 81.3021 54.845 81.3021C55.4743 81.3021 55.9593 81.1842 56.3002 80.9482C56.6541 80.6991 56.8311 80.3845 56.8311 80.0043C56.8311 79.5979 56.6345 79.2964 56.2412 79.0997C55.861 78.9031 55.2514 78.6868 54.4124 78.4508C53.5996 78.228 52.9376 78.0116 52.4263 77.8019C51.915 77.5921 51.4693 77.271 51.0891 76.8383C50.7221 76.4057 50.5385 75.8355 50.5385 75.1275C50.5385 74.5507 50.709 74.0263 51.0498 73.5544C51.3907 73.0693 51.8757 72.6892 52.505 72.4139C53.1473 72.1386 53.8815 72.0009 54.7074 72.0009C55.9397 72.0009 56.9294 72.3156 57.6767 72.9448C58.437 73.561 58.8434 74.4065 58.8959 75.4815H56.6541C56.6148 74.9965 56.4182 74.6097 56.0642 74.3213C55.7103 74.0329 55.2318 73.8887 54.6287 73.8887C54.0388 73.8887 53.5865 74.0001 53.2719 74.223C52.9573 74.4459 52.7999 74.7408 52.7999 75.1079C52.7999 75.3963 52.9048 75.6388 53.1146 75.8355C53.3243 76.0321 53.58 76.1894 53.8815 76.3074C54.183 76.4123 54.6287 76.5499 55.2187 76.7204C56.0052 76.9301 56.6476 77.1464 57.1458 77.3693C57.657 77.579 58.0962 77.8937 58.4633 78.3132C58.8303 78.7327 59.0204 79.2898 59.0335 79.9846C59.0335 80.6008 58.8631 81.1514 58.5223 81.6364C58.1814 82.1215 57.6964 82.5017 57.0671 82.777C56.4509 83.0523 55.7234 83.1899 54.8844 83.1899ZM84.3601 69.3462L80.3092 83.0129H77.7725L74.9016 72.6695L71.8536 83.0129L69.3366 83.0326L65.4627 69.3462H67.8421L70.6737 80.4762L73.7414 69.3462H76.2584L79.1097 80.4172L81.961 69.3462H84.3601ZM96.1395 77.33C96.1395 77.7363 96.1133 78.1034 96.0608 78.4312H87.7821C87.8477 79.2964 88.1689 79.9912 88.7457 80.5156C89.3225 81.04 90.0304 81.3021 90.8694 81.3021C92.0755 81.3021 92.9276 80.7974 93.4258 79.788H95.8445C95.5168 80.7843 94.9203 81.6037 94.0551 82.246C93.2029 82.8753 92.1411 83.1899 90.8694 83.1899C89.8338 83.1899 88.903 82.9605 88.0771 82.5017C87.2643 82.0297 86.622 81.3742 86.15 80.5352C85.6912 79.6831 85.4618 78.6999 85.4618 77.5856C85.4618 76.4713 85.6846 75.4946 86.1303 74.6556C86.5892 73.8035 87.225 73.148 88.0378 72.6892C88.8637 72.2303 89.8076 72.0009 90.8694 72.0009C91.892 72.0009 92.8031 72.2238 93.6028 72.6695C94.4025 73.1152 95.0252 73.7445 95.4709 74.5573C95.9166 75.357 96.1395 76.2812 96.1395 77.33ZM93.7994 76.622C93.7863 75.7961 93.4914 75.1341 92.9145 74.6359C92.3377 74.1378 91.6232 73.8887 90.7711 73.8887C89.9977 73.8887 89.3356 74.1378 88.785 74.6359C88.2344 75.121 87.9067 75.783 87.8018 76.622H93.7994ZM108.276 77.33C108.276 77.7363 108.25 78.1034 108.197 78.4312H99.9187C99.9843 79.2964 100.305 79.9912 100.882 80.5156C101.459 81.04 102.167 81.3021 103.006 81.3021C104.212 81.3021 105.064 80.7974 105.562 79.788H107.981C107.653 80.7843 107.057 81.6037 106.192 82.246C105.34 82.8753 104.278 83.1899 103.006 83.1899C101.97 83.1899 101.04 82.9605 100.214 82.5017C99.4009 82.0297 98.7585 81.3742 98.2866 80.5352C97.8277 79.6831 97.5983 78.6999 97.5983 77.5856C97.5983 76.4713 97.8212 75.4946 98.2669 74.6556C98.7257 73.8035 99.3616 73.148 100.174 72.6892C101 72.2303 101.944 72.0009 103.006 72.0009C104.029 72.0009 104.94 72.2238 105.739 72.6695C106.539 73.1152 107.162 73.7445 107.607 74.5573C108.053 75.357 108.276 76.2812 108.276 77.33ZM105.936 76.622C105.923 75.7961 105.628 75.1341 105.051 74.6359C104.474 74.1378 103.76 73.8887 102.908 73.8887C102.134 73.8887 101.472 74.1378 100.922 74.6359C100.371 75.121 100.043 75.783 99.9384 76.622H105.936ZM114.769 77.6053L119.764 83.0129H116.735L112.724 78.3525V83.0129H110.482V68.4613H112.724V76.917L116.657 72.1779H119.764L114.769 77.6053Z" fill="white"/>
<path d="M58.4216 140.124V141.382H55.92V149.522H54.3784V141.382H51.8633V140.124H58.4216ZM63.8366 141.95C64.4046 141.95 64.9094 142.071 65.3511 142.315C65.8019 142.558 66.1534 142.919 66.4059 143.397C66.6673 143.874 66.798 144.451 66.798 145.127V149.522H65.27V145.357C65.27 144.69 65.1032 144.181 64.7697 143.829C64.4361 143.469 63.9809 143.288 63.4039 143.288C62.827 143.288 62.3672 143.469 62.0247 143.829C61.6911 144.181 61.5243 144.69 61.5243 145.357V149.522H59.9828V139.516H61.5243V142.937C61.7858 142.621 62.1148 142.378 62.5115 142.207C62.9171 142.035 63.3588 141.95 63.8366 141.95ZM69.5486 141.084C69.2692 141.084 69.0348 140.99 68.8455 140.8C68.6562 140.611 68.5615 140.377 68.5615 140.097C68.5615 139.818 68.6562 139.583 68.8455 139.394C69.0348 139.205 69.2692 139.11 69.5486 139.11C69.8191 139.11 70.049 139.205 70.2383 139.394C70.4276 139.583 70.5222 139.818 70.5222 140.097C70.5222 140.377 70.4276 140.611 70.2383 140.8C70.049 140.99 69.8191 141.084 69.5486 141.084ZM70.3059 142.071V149.522H68.7643V142.071H70.3059ZM75.0342 149.644C74.4483 149.644 73.9209 149.54 73.4521 149.333C72.9924 149.116 72.6273 148.828 72.3568 148.467C72.0864 148.098 71.9421 147.688 71.9241 147.237H73.5197C73.5468 147.552 73.6955 147.818 73.966 148.035C74.2454 148.242 74.5925 148.346 75.0072 148.346C75.4399 148.346 75.7734 148.265 76.0078 148.102C76.2512 147.931 76.3729 147.715 76.3729 147.453C76.3729 147.174 76.2377 146.966 75.9673 146.831C75.7058 146.696 75.2866 146.547 74.7097 146.385C74.1508 146.232 73.6955 146.083 73.3439 145.939C72.9924 145.794 72.6859 145.574 72.4244 145.276C72.172 144.979 72.0458 144.586 72.0458 144.1C72.0458 143.703 72.163 143.342 72.3974 143.018C72.6318 142.684 72.9653 142.423 73.398 142.234C73.8398 142.044 74.3446 141.95 74.9125 141.95C75.7599 141.95 76.4405 142.166 76.9544 142.599C77.4773 143.022 77.7567 143.604 77.7928 144.343H76.2512C76.2242 144.01 76.089 143.744 75.8456 143.545C75.6022 143.347 75.2731 143.248 74.8584 143.248C74.4528 143.248 74.1418 143.324 73.9254 143.478C73.709 143.631 73.6009 143.834 73.6009 144.086C73.6009 144.284 73.673 144.451 73.8172 144.586C73.9615 144.722 74.1373 144.83 74.3446 144.911C74.5519 144.983 74.8584 145.078 75.2641 145.195C75.805 145.339 76.2467 145.488 76.5893 145.641C76.9409 145.785 77.2429 146.002 77.4953 146.29C77.7477 146.579 77.8784 146.962 77.8874 147.44C77.8874 147.863 77.7702 148.242 77.5358 148.576C77.3015 148.909 76.9679 149.171 76.5352 149.36C76.1115 149.549 75.6112 149.644 75.0342 149.644ZM92.964 140.124V149.522H91.4225V143.085L88.5558 149.522H87.4875L84.6072 143.085V149.522H83.0657V140.124H84.729L88.0284 147.494L91.3143 140.124H92.964ZM98.2219 149.644C97.5188 149.644 96.8832 149.486 96.3153 149.171C95.7474 148.846 95.3011 148.395 94.9766 147.818C94.6521 147.232 94.4898 146.556 94.4898 145.79C94.4898 145.033 94.6566 144.361 94.9901 143.775C95.3237 143.189 95.7789 142.738 96.3559 142.423C96.9328 142.107 97.5774 141.95 98.2896 141.95C99.0017 141.95 99.6463 142.107 100.223 142.423C100.8 142.738 101.255 143.189 101.589 143.775C101.923 144.361 102.089 145.033 102.089 145.79C102.089 146.547 101.918 147.219 101.575 147.805C101.233 148.391 100.764 148.846 100.169 149.171C99.5832 149.486 98.9341 149.644 98.2219 149.644ZM98.2219 148.305C98.6186 148.305 98.9882 148.21 99.3308 148.021C99.6824 147.832 99.9663 147.548 100.183 147.169C100.399 146.791 100.507 146.331 100.507 145.79C100.507 145.249 100.404 144.794 100.196 144.424C99.9889 144.046 99.7139 143.762 99.3713 143.572C99.0288 143.383 98.6592 143.288 98.2625 143.288C97.8659 143.288 97.4963 143.383 97.1537 143.572C96.8201 143.762 96.5542 144.046 96.3559 144.424C96.1575 144.794 96.0584 145.249 96.0584 145.79C96.0584 146.592 96.2612 147.214 96.6669 147.656C97.0816 148.089 97.5999 148.305 98.2219 148.305ZM107.372 141.95C107.958 141.95 108.481 142.071 108.941 142.315C109.41 142.558 109.775 142.919 110.036 143.397C110.298 143.874 110.428 144.451 110.428 145.127V149.522H108.9V145.357C108.9 144.69 108.734 144.181 108.4 143.829C108.067 143.469 107.611 143.288 107.034 143.288C106.457 143.288 105.998 143.469 105.655 143.829C105.322 144.181 105.155 144.69 105.155 145.357V149.522H103.613V142.071H105.155V142.923C105.407 142.617 105.727 142.378 106.115 142.207C106.511 142.035 106.931 141.95 107.372 141.95ZM114.193 143.329V147.453C114.193 147.733 114.256 147.935 114.383 148.062C114.518 148.179 114.743 148.237 115.059 148.237H116.005V149.522H114.788C114.094 149.522 113.562 149.36 113.193 149.035C112.823 148.711 112.638 148.183 112.638 147.453V143.329H111.759V142.071H112.638V140.219H114.193V142.071H116.005V143.329H114.193ZM121.28 141.95C121.848 141.95 122.353 142.071 122.794 142.315C123.245 142.558 123.597 142.919 123.849 143.397C124.11 143.874 124.241 144.451 124.241 145.127V149.522H122.713V145.357C122.713 144.69 122.546 144.181 122.213 143.829C121.879 143.469 121.424 143.288 120.847 143.288C120.27 143.288 119.81 143.469 119.468 143.829C119.134 144.181 118.968 144.69 118.968 145.357V149.522H117.426V139.516H118.968V142.937C119.229 142.621 119.558 142.378 119.955 142.207C120.36 142.035 120.802 141.95 121.28 141.95Z" fill="#886FD4"/>
<rect x="41.1917" y="127.085" width="94.2834" height="34.8745" rx="4.73279" stroke="#886FD4" stroke-width="1.35223"/>
<path d="M79.9441 198.128V199.209H77.7931V206.209H76.4676V199.209H74.305V198.128H79.9441ZM84.6002 199.698C85.0886 199.698 85.5226 199.802 85.9024 200.012C86.29 200.221 86.5923 200.531 86.8094 200.942C87.0341 201.353 87.1465 201.849 87.1465 202.43V206.209H85.8327V202.628C85.8327 202.054 85.6893 201.616 85.4025 201.314C85.1157 201.004 84.7242 200.849 84.2282 200.849C83.7321 200.849 83.3367 201.004 83.0422 201.314C82.7554 201.616 82.612 202.054 82.612 202.628V206.209H81.2865V197.605H82.612V200.546C82.8368 200.275 83.1197 200.066 83.4608 199.919C83.8096 199.771 84.1894 199.698 84.6002 199.698ZM89.5116 198.953C89.2714 198.953 89.0698 198.872 88.907 198.709C88.7443 198.547 88.6629 198.345 88.6629 198.105C88.6629 197.864 88.7443 197.663 88.907 197.5C89.0698 197.337 89.2714 197.256 89.5116 197.256C89.7442 197.256 89.9418 197.337 90.1046 197.5C90.2674 197.663 90.3488 197.864 90.3488 198.105C90.3488 198.345 90.2674 198.547 90.1046 198.709C89.9418 198.872 89.7442 198.953 89.5116 198.953ZM90.1628 199.802V206.209H88.8373V199.802H90.1628ZM94.2284 206.313C93.7246 206.313 93.2711 206.224 92.868 206.046C92.4727 205.86 92.1588 205.612 91.9263 205.302C91.6937 204.984 91.5697 204.631 91.5542 204.244H92.9262C92.9494 204.515 93.0773 204.744 93.3099 204.93C93.5502 205.108 93.8486 205.197 94.2052 205.197C94.5772 205.197 94.864 205.127 95.0656 204.988C95.2748 204.841 95.3795 204.655 95.3795 204.43C95.3795 204.19 95.2632 204.011 95.0307 203.895C94.8059 203.779 94.4454 203.651 93.9494 203.511C93.4688 203.379 93.0773 203.252 92.775 203.128C92.4727 203.004 92.2092 202.814 91.9844 202.558C91.7674 202.302 91.6588 201.965 91.6588 201.546C91.6588 201.205 91.7596 200.895 91.9611 200.616C92.1627 200.329 92.4495 200.105 92.8215 199.942C93.2014 199.779 93.6354 199.698 94.1238 199.698C94.8524 199.698 95.4376 199.884 95.8795 200.256C96.329 200.62 96.5693 201.12 96.6003 201.756H95.2748C95.2516 201.469 95.1353 201.24 94.926 201.07C94.7167 200.899 94.4338 200.814 94.0773 200.814C93.7284 200.814 93.461 200.88 93.275 201.011C93.089 201.143 92.9959 201.318 92.9959 201.535C92.9959 201.705 93.058 201.849 93.182 201.965C93.306 202.081 93.4571 202.174 93.6354 202.244C93.8137 202.306 94.0773 202.387 94.4261 202.488C94.8912 202.612 95.271 202.74 95.5655 202.872C95.8678 202.996 96.1275 203.182 96.3445 203.43C96.5616 203.678 96.674 204.007 96.6817 204.418C96.6817 204.782 96.5809 205.108 96.3794 205.395C96.1779 205.682 95.8911 205.906 95.519 206.069C95.1547 206.232 94.7245 206.313 94.2284 206.313ZM107.122 198.128L104.448 203.279V206.209H103.122V203.279L100.437 198.128H101.913L103.785 202.093L105.657 198.128H107.122ZM114.046 202.849C114.046 203.089 114.03 203.306 113.999 203.5H109.104C109.143 204.011 109.333 204.422 109.674 204.732C110.015 205.042 110.434 205.197 110.93 205.197C111.643 205.197 112.147 204.899 112.441 204.302H113.871C113.678 204.891 113.325 205.375 112.813 205.755C112.309 206.127 111.682 206.313 110.93 206.313C110.317 206.313 109.767 206.178 109.279 205.906C108.798 205.627 108.418 205.24 108.139 204.744C107.868 204.24 107.732 203.659 107.732 203C107.732 202.341 107.864 201.763 108.128 201.267C108.399 200.763 108.775 200.376 109.255 200.105C109.744 199.833 110.302 199.698 110.93 199.698C111.534 199.698 112.073 199.829 112.546 200.093C113.019 200.356 113.387 200.729 113.65 201.209C113.914 201.682 114.046 202.228 114.046 202.849ZM112.662 202.43C112.654 201.942 112.48 201.55 112.139 201.256C111.798 200.961 111.375 200.814 110.872 200.814C110.414 200.814 110.023 200.961 109.697 201.256C109.372 201.542 109.178 201.934 109.116 202.43H112.662ZM114.908 202.976C114.908 202.333 115.04 201.763 115.304 201.267C115.575 200.771 115.939 200.387 116.397 200.116C116.862 199.837 117.373 199.698 117.931 199.698C118.435 199.698 118.873 199.798 119.245 200C119.625 200.194 119.927 200.438 120.152 200.732V199.802H121.489V206.209H120.152V205.255C119.927 205.558 119.621 205.81 119.234 206.011C118.846 206.213 118.404 206.313 117.908 206.313C117.358 206.313 116.854 206.174 116.397 205.895C115.939 205.608 115.575 205.213 115.304 204.709C115.04 204.197 114.908 203.62 114.908 202.976ZM120.152 203C120.152 202.558 120.059 202.174 119.873 201.849C119.695 201.523 119.458 201.275 119.164 201.104C118.869 200.934 118.551 200.849 118.21 200.849C117.869 200.849 117.552 200.934 117.257 201.104C116.962 201.267 116.722 201.511 116.536 201.837C116.358 202.155 116.269 202.535 116.269 202.976C116.269 203.418 116.358 203.806 116.536 204.139C116.722 204.472 116.962 204.728 117.257 204.907C117.559 205.077 117.877 205.162 118.21 205.162C118.551 205.162 118.869 205.077 119.164 204.907C119.458 204.736 119.695 204.488 119.873 204.162C120.059 203.829 120.152 203.442 120.152 203ZM124.556 200.732C124.749 200.407 125.005 200.155 125.323 199.977C125.649 199.791 126.032 199.698 126.474 199.698V201.07H126.137C125.618 201.07 125.222 201.201 124.951 201.465C124.687 201.728 124.556 202.186 124.556 202.837V206.209H123.23V199.802H124.556V200.732Z" fill="#886FD4"/>
<rect x="65.1282" y="186.814" width="70.4406" height="29.7897" rx="4.06947" stroke="#886FD4" stroke-width="1.1627"/>
</g>
<defs>
<filter id="filter0_dd_1125_3385" x="160.182" y="21.185" width="381.315" height="228.522" filterUnits="userSpaceOnUse" color-interpolation-filters="sRGB">
<feFlood flood-opacity="0" result="BackgroundImageFix"/>
<feColorMatrix in="SourceAlpha" type="matrix" values="0 0 0 0 0 0 0 0 0 0 0 0 0 0 0 0 0 0 127 0" result="hardAlpha"/>
<feOffset dy="5.4323"/>
<feGaussianBlur stdDeviation="5.4323"/>
<feComposite in2="hardAlpha" operator="out"/>
<feColorMatrix type="matrix" values="0 0 0 0 0 0 0 0 0 0 0 0 0 0 0 0 0 0 0.05 0"/>
<feBlend mode="normal" in2="BackgroundImageFix" result="effect1_dropShadow_1125_3385"/>
<feColorMatrix in="SourceAlpha" type="matrix" values="0 0 0 0 0 0 0 0 0 0 0 0 0 0 0 0 0 0 127 0" result="hardAlpha"/>
<feOffset dy="2.71615"/>
<feGaussianBlur stdDeviation="2.71615"/>
<feComposite in2="hardAlpha" operator="out"/>
<feColorMatrix type="matrix" values="0 0 0 0 0 0 0 0 0 0 0 0 0 0 0 0 0 0 0.07 0"/>
<feBlend mode="normal" in2="effect1_dropShadow_1125_3385" result="effect2_dropShadow_1125_3385"/>
<feBlend mode="normal" in="SourceGraphic" in2="effect2_dropShadow_1125_3385" result="shape"/>
</filter>
<filter id="filter1_dd_1125_3385" x="310.576" y="80.1665" width="30.4187" height="22.2073" filterUnits="userSpaceOnUse" color-interpolation-filters="sRGB">
<feFlood flood-opacity="0" result="BackgroundImageFix"/>
<feColorMatrix in="SourceAlpha" type="matrix" values="0 0 0 0 0 0 0 0 0 0 0 0 0 0 0 0 0 0 127 0" result="hardAlpha"/>
<feOffset dy="1.33783"/>
<feGaussianBlur stdDeviation="1.50506"/>
<feColorMatrix type="matrix" values="0 0 0 0 0.811765 0 0 0 0 0.54902 0 0 0 0 0.972549 0 0 0 0.15 0"/>
<feBlend mode="normal" in2="BackgroundImageFix" result="effect1_dropShadow_1125_3385"/>
<feColorMatrix in="SourceAlpha" type="matrix" values="0 0 0 0 0 0 0 0 0 0 0 0 0 0 0 0 0 0 127 0" result="hardAlpha"/>
<feOffset dy="0.250844"/>
<feGaussianBlur stdDeviation="0.376265"/>
<feColorMatrix type="matrix" values="0 0 0 0 0.811765 0 0 0 0 0.54902 0 0 0 0 0.972549 0 0 0 0.1 0"/>
<feBlend mode="normal" in2="effect1_dropShadow_1125_3385" result="effect2_dropShadow_1125_3385"/>
<feBlend mode="normal" in="SourceGraphic" in2="effect2_dropShadow_1125_3385" result="shape"/>
</filter>
<radialGradient id="paint0_radial_1125_3385" cx="0" cy="0" r="1" gradientUnits="userSpaceOnUse" gradientTransform="translate(516.891 34.991) rotate(136.579) scale(84.7471 195.341)">
<stop stop-color="#FCF4FF"/>
<stop offset="1" stop-color="#FCF4FF" stop-opacity="0"/>
</radialGradient>
<clipPath id="clip0_1125_3385">
<rect width="530.973" height="250" fill="white"/>
</clipPath>
</defs>
</svg>
