<svg width="430" height="250" viewBox="0 0 430 250" fill="none" xmlns="http://www.w3.org/2000/svg">
<g clip-path="url(#clip0_1125_3387)">
<path fill-rule="evenodd" clip-rule="evenodd" d="M183.823 198.913C147.982 224.48 105.31 221.778 73.8513 203.434C41.8653 184.782 20.1225 151.271 35.2289 112.267C51.1025 71.2818 94.5025 43.1864 138.321 36.977C184.933 30.3716 231.723 43.0338 242.907 82.8367C254.158 122.877 224.799 169.682 183.823 198.913Z" fill="#FCF7FF"/>
<g filter="url(#filter0_dd_1125_3387)">
<rect x="163.836" y="53.8027" width="247.774" height="126.726" rx="8.66541" fill="#8B6DCB"/>
<path d="M192.876 96.802C192.078 96.802 191.362 96.6634 190.727 96.3861C190.103 96.0973 189.612 95.7044 189.253 95.2076C188.895 94.6992 188.71 94.1158 188.699 93.4572H190.38C190.438 94.0233 190.669 94.5028 191.073 94.8957C191.489 95.2769 192.09 95.4676 192.876 95.4676C193.627 95.4676 194.216 95.2827 194.643 94.913C195.082 94.5317 195.302 94.0464 195.302 93.4572C195.302 92.995 195.175 92.6195 194.921 92.3307C194.666 92.0418 194.349 91.8223 193.967 91.6721C193.586 91.5219 193.072 91.3602 192.425 91.1869C191.628 90.9789 190.986 90.7709 190.501 90.5629C190.027 90.355 189.617 90.0315 189.271 89.5924C188.936 89.1418 188.768 88.541 188.768 87.79C188.768 87.1314 188.936 86.548 189.271 86.0396C189.606 85.5312 190.074 85.1384 190.675 84.8611C191.287 84.5838 191.986 84.4452 192.772 84.4452C193.904 84.4452 194.828 84.7282 195.544 85.2944C196.272 85.8605 196.683 86.6115 196.775 87.5474H195.042C194.984 87.0852 194.741 86.6808 194.314 86.3342C193.886 85.9761 193.32 85.797 192.616 85.797C191.957 85.797 191.42 85.9703 191.004 86.3169C190.588 86.652 190.38 87.1257 190.38 87.738C190.38 88.1771 190.501 88.5352 190.744 88.8125C190.998 89.0898 191.304 89.3036 191.662 89.4538C192.032 89.5924 192.546 89.7542 193.205 89.939C194.002 90.1586 194.643 90.3781 195.129 90.5976C195.614 90.8056 196.03 91.1349 196.376 91.5855C196.723 92.0245 196.896 92.6253 196.896 93.3879C196.896 93.9771 196.74 94.5317 196.428 95.0516C196.116 95.5716 195.654 95.9933 195.042 96.3168C194.43 96.6403 193.707 96.802 192.876 96.802ZM207.64 87.1834V96.6807H206.063V95.2769C205.762 95.7622 205.341 96.1435 204.798 96.4208C204.266 96.6865 203.677 96.8194 203.03 96.8194C202.29 96.8194 201.626 96.6692 201.037 96.3688C200.448 96.0568 199.98 95.5947 199.633 94.9823C199.298 94.3699 199.13 93.6247 199.13 92.7466V87.1834H200.69V92.5387C200.69 93.4745 200.927 94.1966 201.401 94.705C201.875 95.2018 202.522 95.4502 203.342 95.4502C204.185 95.4502 204.85 95.1903 205.335 94.6703C205.82 94.1504 206.063 93.3936 206.063 92.4V87.1834H207.64ZM211.88 88.9512C212.203 88.385 212.677 87.9229 213.301 87.5647C213.925 87.2065 214.635 87.0275 215.433 87.0275C216.288 87.0275 217.056 87.2296 217.738 87.634C218.419 88.0384 218.957 88.6103 219.349 89.3498C219.742 90.0777 219.939 90.9269 219.939 91.8974C219.939 92.8564 219.742 93.7114 219.349 94.4624C218.957 95.2134 218.414 95.7969 217.72 96.2128C217.039 96.6287 216.276 96.8367 215.433 96.8367C214.612 96.8367 213.89 96.6576 213.266 96.2994C212.654 95.9413 212.192 95.4849 211.88 94.9303V96.6807H210.303V83.8559H211.88V88.9512ZM218.327 91.8974C218.327 91.1811 218.182 90.5572 217.894 90.0257C217.605 89.4942 217.212 89.0898 216.715 88.8125C216.23 88.5352 215.693 88.3966 215.103 88.3966C214.526 88.3966 213.988 88.541 213.492 88.8299C213.006 89.1072 212.614 89.5173 212.313 90.0603C212.024 90.5918 211.88 91.21 211.88 91.9147C211.88 92.6311 212.024 93.2608 212.313 93.8038C212.614 94.3353 213.006 94.7454 213.492 95.0343C213.988 95.3116 214.526 95.4502 215.103 95.4502C215.693 95.4502 216.23 95.3116 216.715 95.0343C217.212 94.7454 217.605 94.3353 217.894 93.8038C218.182 93.2608 218.327 92.6253 218.327 91.8974ZM233.436 87.0101C234.175 87.0101 234.834 87.1661 235.411 87.4781C235.989 87.7785 236.445 88.2348 236.78 88.8472C237.116 89.4595 237.283 90.2048 237.283 91.0829V96.6807H235.723V91.3082C235.723 90.3608 235.486 89.6386 235.013 89.1418C234.551 88.6334 233.921 88.3793 233.124 88.3793C232.303 88.3793 231.651 88.645 231.165 89.1765C230.68 89.6964 230.437 90.4532 230.437 91.4468V96.6807H228.878V91.3082C228.878 90.3608 228.641 89.6386 228.167 89.1418C227.705 88.6334 227.075 88.3793 226.278 88.3793C225.458 88.3793 224.805 88.645 224.32 89.1765C223.834 89.6964 223.592 90.4532 223.592 91.4468V96.6807H222.015V87.1834H223.592V88.5526C223.904 88.0558 224.32 87.6745 224.84 87.4087C225.371 87.143 225.954 87.0101 226.59 87.0101C227.387 87.0101 228.092 87.1892 228.704 87.5474C229.317 87.9056 229.773 88.4313 230.073 89.1245C230.339 88.4544 230.778 87.9344 231.391 87.5647C232.003 87.195 232.685 87.0101 233.436 87.0101ZM240.685 85.641C240.384 85.641 240.13 85.537 239.922 85.329C239.714 85.1211 239.61 84.8669 239.61 84.5665C239.61 84.2661 239.714 84.0119 239.922 83.8039C240.13 83.596 240.384 83.492 240.685 83.492C240.973 83.492 241.216 83.596 241.413 83.8039C241.62 84.0119 241.724 84.2661 241.724 84.5665C241.724 84.8669 241.62 85.1211 241.413 85.329C241.216 85.537 240.973 85.641 240.685 85.641ZM241.447 87.1834V96.6807H239.87V87.1834H241.447ZM247.497 96.8367C246.769 96.8367 246.117 96.7154 245.539 96.4728C244.961 96.2186 244.505 95.872 244.17 95.4329C243.835 94.9823 243.65 94.4682 243.615 93.8905H245.244C245.29 94.3642 245.51 94.7512 245.903 95.0516C246.307 95.352 246.833 95.5022 247.48 95.5022C248.081 95.5022 248.554 95.3694 248.901 95.1036C249.248 94.8379 249.421 94.5028 249.421 94.0984C249.421 93.6825 249.236 93.3763 248.866 93.1799C248.497 92.9719 247.925 92.7697 247.151 92.5733C246.446 92.3885 245.868 92.2036 245.418 92.0187C244.979 91.8223 244.597 91.5392 244.274 91.1695C243.962 90.7882 243.806 90.2914 243.806 89.6791C243.806 89.1938 243.95 88.749 244.239 88.3446C244.528 87.9402 244.938 87.6225 245.47 87.3914C246.001 87.1488 246.608 87.0275 247.289 87.0275C248.341 87.0275 249.19 87.2932 249.837 87.8247C250.484 88.3562 250.831 89.084 250.877 90.0084H249.3C249.265 89.5115 249.063 89.1129 248.693 88.8125C248.335 88.5121 247.85 88.3619 247.237 88.3619C246.671 88.3619 246.221 88.4832 245.886 88.7259C245.55 88.9685 245.383 89.2862 245.383 89.6791C245.383 89.991 245.481 90.251 245.678 90.459C245.886 90.6554 246.14 90.8171 246.44 90.9442C246.752 91.0598 247.18 91.1926 247.723 91.3428C248.404 91.5277 248.959 91.7126 249.386 91.8974C249.814 92.0707 250.178 92.3365 250.478 92.6946C250.79 93.0528 250.952 93.5207 250.963 94.0984C250.963 94.6184 250.819 95.0863 250.53 95.5022C250.241 95.9182 249.831 96.2475 249.3 96.4901C248.78 96.7212 248.179 96.8367 247.497 96.8367ZM256.552 96.8367C255.824 96.8367 255.171 96.7154 254.594 96.4728C254.016 96.2186 253.559 95.872 253.224 95.4329C252.889 94.9823 252.705 94.4682 252.67 93.8905H254.299C254.345 94.3642 254.565 94.7512 254.958 95.0516C255.362 95.352 255.888 95.5022 256.535 95.5022C257.135 95.5022 257.609 95.3694 257.956 95.1036C258.302 94.8379 258.476 94.5028 258.476 94.0984C258.476 93.6825 258.291 93.3763 257.921 93.1799C257.551 92.9719 256.979 92.7697 256.205 92.5733C255.501 92.3885 254.923 92.2036 254.472 92.0187C254.033 91.8223 253.652 91.5392 253.328 91.1695C253.016 90.7882 252.86 90.2914 252.86 89.6791C252.86 89.1938 253.005 88.749 253.294 88.3446C253.583 87.9402 253.993 87.6225 254.524 87.3914C255.056 87.1488 255.662 87.0275 256.344 87.0275C257.395 87.0275 258.245 87.2932 258.892 87.8247C259.539 88.3562 259.885 89.084 259.931 90.0084H258.354C258.32 89.5115 258.117 89.1129 257.748 88.8125C257.39 88.5121 256.904 88.3619 256.292 88.3619C255.726 88.3619 255.275 88.4832 254.94 88.7259C254.605 88.9685 254.438 89.2862 254.438 89.6791C254.438 89.991 254.536 90.251 254.732 90.459C254.94 90.6554 255.194 90.8171 255.495 90.9442C255.807 91.0598 256.234 91.1926 256.777 91.3428C257.459 91.5277 258.014 91.7126 258.441 91.8974C258.869 92.0707 259.232 92.3365 259.533 92.6946C259.845 93.0528 260.007 93.5207 260.018 94.0984C260.018 94.6184 259.874 95.0863 259.585 95.5022C259.296 95.9182 258.886 96.2475 258.354 96.4901C257.834 96.7212 257.234 96.8367 256.552 96.8367ZM263.059 85.641C262.759 85.641 262.504 85.537 262.296 85.329C262.088 85.1211 261.984 84.8669 261.984 84.5665C261.984 84.2661 262.088 84.0119 262.296 83.8039C262.504 83.596 262.759 83.492 263.059 83.492C263.348 83.492 263.59 83.596 263.787 83.8039C263.995 84.0119 264.099 84.2661 264.099 84.5665C264.099 84.8669 263.995 85.1211 263.787 85.329C263.59 85.537 263.348 85.641 263.059 85.641ZM263.822 87.1834V96.6807H262.244V87.1834H263.822ZM270.652 96.8367C269.762 96.8367 268.953 96.6345 268.225 96.2301C267.509 95.8257 266.943 95.2538 266.527 94.5144C266.122 93.7634 265.92 92.8968 265.92 91.9147C265.92 90.9442 266.128 90.0892 266.544 89.3498C266.972 88.5988 267.549 88.0269 268.277 87.634C269.005 87.2296 269.82 87.0275 270.721 87.0275C271.622 87.0275 272.437 87.2296 273.164 87.634C273.892 88.0269 274.464 88.593 274.88 89.3325C275.308 90.0719 275.521 90.9327 275.521 91.9147C275.521 92.8968 275.302 93.7634 274.863 94.5144C274.435 95.2538 273.852 95.8257 273.112 96.2301C272.373 96.6345 271.553 96.8367 270.652 96.8367ZM270.652 95.4502C271.218 95.4502 271.749 95.3174 272.246 95.0516C272.743 94.7859 273.141 94.3873 273.442 93.8558C273.754 93.3243 273.91 92.6773 273.91 91.9147C273.91 91.1522 273.76 90.5052 273.459 89.9737C273.159 89.4422 272.766 89.0494 272.281 88.7952C271.795 88.5295 271.27 88.3966 270.704 88.3966C270.126 88.3966 269.594 88.5295 269.109 88.7952C268.635 89.0494 268.254 89.4422 267.965 89.9737C267.676 90.5052 267.532 91.1522 267.532 91.9147C267.532 92.6889 267.671 93.3417 267.948 93.8731C268.237 94.4046 268.618 94.8032 269.092 95.069C269.565 95.3231 270.085 95.4502 270.652 95.4502ZM282.222 87.0101C283.378 87.0101 284.314 87.3625 285.03 88.0673C285.746 88.7605 286.105 89.7657 286.105 91.0829V96.6807H284.545V91.3082C284.545 90.3608 284.308 89.6386 283.834 89.1418C283.36 88.6334 282.713 88.3793 281.893 88.3793C281.061 88.3793 280.397 88.6392 279.9 89.1591C279.415 89.6791 279.172 90.4359 279.172 91.4295V96.6807H277.595V87.1834H279.172V88.5352C279.484 88.05 279.906 87.6745 280.437 87.4087C280.98 87.143 281.575 87.0101 282.222 87.0101ZM299.662 96.6807L296.785 91.7414H294.878V96.6807H293.301V84.6011H297.201C298.113 84.6011 298.882 84.7571 299.506 85.0691C300.141 85.381 300.615 85.8027 300.927 86.3342C301.239 86.8657 301.395 87.4723 301.395 88.154C301.395 88.9858 301.152 89.7195 300.667 90.355C300.193 90.9904 299.477 91.4122 298.518 91.6201L301.551 96.6807H299.662ZM294.878 90.4763H297.201C298.056 90.4763 298.697 90.2683 299.124 89.8524C299.552 89.4249 299.766 88.8587 299.766 88.154C299.766 87.4376 299.552 86.883 299.124 86.4902C298.708 86.0974 298.067 85.901 297.201 85.901H294.878V90.4763ZM303.256 91.8974C303.256 90.9269 303.452 90.0777 303.845 89.3498C304.238 88.6103 304.775 88.0384 305.457 87.634C306.15 87.2296 306.919 87.0275 307.762 87.0275C308.594 87.0275 309.316 87.2065 309.928 87.5647C310.541 87.9229 310.997 88.3735 311.297 88.9165V87.1834H312.892V96.6807H311.297V94.913C310.985 95.4676 310.518 95.9297 309.894 96.2994C309.281 96.6576 308.565 96.8367 307.745 96.8367C306.901 96.8367 306.139 96.6287 305.457 96.2128C304.775 95.7969 304.238 95.2134 303.845 94.4624C303.452 93.7114 303.256 92.8564 303.256 91.8974ZM311.297 91.9147C311.297 91.1984 311.153 90.5745 310.864 90.043C310.575 89.5115 310.182 89.1072 309.686 88.8299C309.2 88.541 308.663 88.3966 308.074 88.3966C307.485 88.3966 306.947 88.5352 306.462 88.8125C305.977 89.0898 305.59 89.4942 305.301 90.0257C305.012 90.5572 304.868 91.1811 304.868 91.8974C304.868 92.6253 305.012 93.2608 305.301 93.8038C305.59 94.3353 305.977 94.7454 306.462 95.0343C306.947 95.3116 307.485 95.4502 308.074 95.4502C308.663 95.4502 309.2 95.3116 309.686 95.0343C310.182 94.7454 310.575 94.3353 310.864 93.8038C311.153 93.2608 311.297 92.6311 311.297 91.9147ZM317.481 88.4832V94.0811C317.481 94.5433 317.579 94.8725 317.775 95.069C317.972 95.2538 318.313 95.3463 318.798 95.3463H319.959V96.6807H318.538C317.66 96.6807 317.001 96.4785 316.562 96.0741C316.123 95.6698 315.904 95.0054 315.904 94.0811V88.4832H314.673V87.1834H315.904V84.7918H317.481V87.1834H319.959V88.4832H317.481ZM330.535 91.5681C330.535 91.8685 330.518 92.1863 330.483 92.5213H322.892C322.95 93.4572 323.268 94.1909 323.846 94.7223C324.435 95.2423 325.145 95.5022 325.977 95.5022C326.659 95.5022 327.225 95.3463 327.676 95.0343C328.138 94.7108 328.461 94.2833 328.646 93.7518H330.345C330.091 94.6646 329.582 95.4098 328.82 95.9875C328.057 96.5536 327.11 96.8367 325.977 96.8367C325.076 96.8367 324.267 96.6345 323.551 96.2301C322.846 95.8257 322.292 95.2538 321.887 94.5144C321.483 93.7634 321.281 92.8968 321.281 91.9147C321.281 90.9327 321.477 90.0719 321.87 89.3325C322.263 88.593 322.812 88.0269 323.516 87.634C324.233 87.2296 325.053 87.0275 325.977 87.0275C326.879 87.0275 327.676 87.2239 328.369 87.6167C329.062 88.0095 329.594 88.5526 329.963 89.2458C330.345 89.9275 330.535 90.7016 330.535 91.5681ZM328.906 91.2388C328.906 90.638 328.773 90.1239 328.508 89.6964C328.242 89.2574 327.878 88.9281 327.416 88.7085C326.965 88.4775 326.463 88.3619 325.908 88.3619C325.111 88.3619 324.429 88.6161 323.863 89.1245C323.308 89.6329 322.991 90.3376 322.91 91.2388H328.906Z" fill="white"/>
<g clip-path="url(#clip1_1125_3387)">
<path d="M377.328 101.079C374.57 101.079 371.925 99.9839 369.975 98.0338C368.025 96.0837 366.93 93.4388 366.93 90.6809C366.93 87.9231 368.025 85.2782 369.975 83.3281C371.925 81.378 374.57 80.2824 377.328 80.2824C380.086 80.2824 382.731 81.378 384.681 83.3281C386.631 85.2782 387.727 87.9231 387.727 90.6809C387.727 93.4388 386.631 96.0837 384.681 98.0338C382.731 99.9839 380.086 101.079 377.328 101.079V101.079ZM373.685 93.4053C373.623 93.4653 373.573 93.537 373.539 93.6163C373.505 93.6956 373.487 93.7808 373.486 93.8671C373.486 93.9534 373.502 94.039 373.535 94.1189C373.567 94.1988 373.616 94.2713 373.677 94.3323C373.738 94.3934 373.81 94.4416 373.89 94.4743C373.97 94.507 374.056 94.5234 374.142 94.5227C374.228 94.5219 374.314 94.504 374.393 94.4699C374.472 94.4359 374.544 94.3864 374.604 94.3243L379.928 89.0003L379.928 92.5981C379.928 92.7705 379.996 92.9358 380.118 93.0577C380.24 93.1796 380.405 93.248 380.578 93.248C380.75 93.248 380.915 93.1796 381.037 93.0577C381.159 92.9358 381.228 92.7705 381.228 92.5981L381.228 87.4314C381.228 87.259 381.159 87.0937 381.037 86.9718C380.915 86.8499 380.75 86.7815 380.578 86.7815L375.411 86.7815C375.239 86.7815 375.073 86.8499 374.951 86.9718C374.83 87.0937 374.761 87.259 374.761 87.4314C374.761 87.6037 374.83 87.7691 374.951 87.8909C375.073 88.0128 375.239 88.0813 375.411 88.0813L379.009 88.0813L373.685 93.4053Z" fill="white"/>
</g>
<path d="M204.65 124.683H194.543V130.018C194.979 129.477 195.603 129.04 196.414 128.708C197.226 128.354 198.089 128.177 199.004 128.177C200.667 128.177 202.03 128.541 203.09 129.269C204.151 129.997 204.92 130.933 205.399 132.077C205.877 133.2 206.116 134.406 206.116 135.695C206.116 138.087 205.43 140.011 204.057 141.467C202.706 142.922 200.771 143.65 198.255 143.65C195.884 143.65 193.992 143.057 192.577 141.872C191.163 140.687 190.363 139.137 190.175 137.224H194.418C194.605 138.056 195.021 138.721 195.666 139.22C196.331 139.72 197.174 139.969 198.193 139.969C199.42 139.969 200.345 139.584 200.969 138.815C201.593 138.045 201.905 137.026 201.905 135.758C201.905 134.468 201.583 133.491 200.938 132.825C200.314 132.139 199.388 131.796 198.161 131.796C197.288 131.796 196.56 132.014 195.978 132.451C195.395 132.888 194.979 133.47 194.73 134.198H190.55V120.846H204.65V124.683ZM211.874 143.869C211.083 143.869 210.428 143.629 209.908 143.151C209.409 142.652 209.16 142.038 209.16 141.311C209.16 140.583 209.409 139.98 209.908 139.501C210.428 139.002 211.083 138.753 211.874 138.753C212.643 138.753 213.277 139.002 213.776 139.501C214.276 139.98 214.525 140.583 214.525 141.311C214.525 142.038 214.276 142.652 213.776 143.151C213.277 143.629 212.643 143.869 211.874 143.869ZM217.544 131.983C217.544 128.385 218.189 125.567 219.478 123.529C220.788 121.491 222.951 120.472 225.967 120.472C228.982 120.472 231.135 121.491 232.424 123.529C233.734 125.567 234.389 128.385 234.389 131.983C234.389 135.602 233.734 138.441 232.424 140.499C231.135 142.558 228.982 143.588 225.967 143.588C222.951 143.588 220.788 142.558 219.478 140.499C218.189 138.441 217.544 135.602 217.544 131.983ZM230.084 131.983C230.084 130.444 229.98 129.155 229.772 128.115C229.585 127.054 229.19 126.191 228.587 125.526C228.005 124.86 227.131 124.527 225.967 124.527C224.802 124.527 223.918 124.86 223.315 125.526C222.733 126.191 222.338 127.054 222.13 128.115C221.942 129.155 221.849 130.444 221.849 131.983C221.849 133.564 221.942 134.895 222.13 135.976C222.317 137.037 222.712 137.9 223.315 138.565C223.918 139.21 224.802 139.532 225.967 139.532C227.131 139.532 228.015 139.21 228.618 138.565C229.221 137.9 229.616 137.037 229.804 135.976C229.991 134.895 230.084 133.564 230.084 131.983ZM237.212 126.493C237.212 124.912 237.67 123.675 238.585 122.78C239.521 121.886 240.716 121.439 242.172 121.439C243.628 121.439 244.813 121.886 245.728 122.78C246.664 123.675 247.132 124.912 247.132 126.493C247.132 128.094 246.664 129.342 245.728 130.236C244.813 131.13 243.628 131.578 242.172 131.578C240.716 131.578 239.521 131.13 238.585 130.236C237.67 129.342 237.212 128.094 237.212 126.493ZM257.24 121.813L244.98 143.65H240.737L252.966 121.813H257.24ZM242.141 124.059C240.997 124.059 240.425 124.871 240.425 126.493C240.425 128.136 240.997 128.957 242.141 128.957C242.702 128.957 243.139 128.76 243.451 128.364C243.763 127.948 243.919 127.325 243.919 126.493C243.919 124.871 243.326 124.059 242.141 124.059ZM250.907 138.94C250.907 137.338 251.364 136.101 252.279 135.227C253.215 134.333 254.411 133.886 255.867 133.886C257.323 133.886 258.498 134.333 259.392 135.227C260.307 136.101 260.765 137.338 260.765 138.94C260.765 140.541 260.307 141.789 259.392 142.683C258.498 143.577 257.323 144.025 255.867 144.025C254.39 144.025 253.195 143.577 252.279 142.683C251.364 141.789 250.907 140.541 250.907 138.94ZM255.836 136.506C254.65 136.506 254.058 137.318 254.058 138.94C254.058 140.583 254.65 141.404 255.836 141.404C257 141.404 257.583 140.583 257.583 138.94C257.583 137.318 257 136.506 255.836 136.506Z" fill="white"/>
</g>
<path d="M64.3419 27.8483C68.401 20.7377 65.9273 11.6828 58.8166 7.62361C51.7059 3.56448 42.651 6.03824 38.5919 13.1489C34.5328 20.2595 37.0065 29.3144 44.1172 33.3736C51.2278 37.4327 60.2827 34.959 64.3419 27.8483Z" fill="#8464E3"/>
<path opacity="0.5" d="M64.3419 27.8483C68.401 20.7377 65.9273 11.6828 58.8166 7.62361C51.7059 3.56448 42.651 6.03824 38.5919 13.1489C34.5328 20.2595 37.0065 29.3144 44.1172 33.3736C51.2278 37.4327 60.2827 34.959 64.3419 27.8483Z" fill="white"/>
<path d="M52.5823 15.8594C52.8372 16.3938 52.928 16.9918 52.8432 17.5778C52.7585 18.1638 52.502 18.7115 52.1061 19.1518C51.7102 19.5922 51.1928 19.9053 50.619 20.0517C50.0453 20.198 49.4411 20.1711 48.8827 19.9743C48.3242 19.7775 47.8366 19.4196 47.4815 18.9458C47.1264 18.472 46.9196 17.9036 46.8873 17.3124C46.855 16.7212 46.9986 16.1337 47.3 15.624C47.6014 15.1144 48.0471 14.7055 48.5808 14.449C48.936 14.2783 49.3215 14.1793 49.715 14.1578C50.1086 14.1363 50.5025 14.1927 50.8742 14.3237C51.246 14.4548 51.5882 14.6578 51.8813 14.9214C52.1744 15.1849 52.4126 15.5036 52.5823 15.8594V15.8594Z" fill="white"/>
<path d="M59.6257 24.0483C57.789 20.2217 53.9515 18.2429 51.0543 19.6751C48.157 21.1073 47.2824 25.2728 49.0863 29.1102L59.6257 24.0483Z" fill="white"/>
<path d="M60.1041 46.2203C59.1246 47.1396 58.4398 48.3288 58.1364 49.6374C57.833 50.9461 57.9246 52.3153 58.3997 53.5718C58.8747 54.8284 59.7119 55.9158 60.8051 56.6963C61.8984 57.4769 63.1987 57.9157 64.5414 57.957C65.8841 57.9983 67.2089 57.6404 68.3481 56.9286C69.4873 56.2167 70.3898 55.1829 70.9412 53.958C71.4927 52.733 71.6684 51.372 71.4461 50.0472C71.2237 48.7224 70.6134 47.4933 69.6923 46.5155C68.4591 45.2064 66.7569 44.44 64.9592 44.3847C63.1616 44.3293 61.4155 44.9895 60.1041 46.2203V46.2203Z" fill="#8464E3"/>
<path opacity="0.5" d="M60.1041 46.2203C59.1246 47.1396 58.4398 48.3288 58.1364 49.6374C57.833 50.9461 57.9246 52.3153 58.3997 53.5718C58.8747 54.8284 59.7119 55.9158 60.8051 56.6963C61.8984 57.4769 63.1987 57.9157 64.5414 57.957C65.8841 57.9983 67.2089 57.6404 68.3481 56.9286C69.4873 56.2167 70.3898 55.1829 70.9412 53.958C71.4927 52.733 71.6684 51.372 71.4461 50.0472C71.2237 48.7224 70.6134 47.4933 69.6923 46.5155C68.4591 45.2064 66.7569 44.44 64.9592 44.3847C63.1616 44.3293 61.4155 44.9895 60.1041 46.2203V46.2203Z" fill="white"/>
<path d="M66.9261 51.0089C66.7282 51.1963 66.4792 51.3207 66.2105 51.3665C65.9418 51.4123 65.6656 51.3774 65.4168 51.2661C65.168 51.1549 64.9578 50.9723 64.8128 50.7416C64.6678 50.5109 64.5945 50.2423 64.6021 49.9698C64.6098 49.6974 64.698 49.4334 64.8558 49.2112C65.0135 48.9889 65.2337 48.8185 65.4883 48.7214C65.743 48.6243 66.0207 48.6049 66.2864 48.6657C66.552 48.7265 66.7937 48.8647 66.9808 49.0629C67.2314 49.3283 67.3664 49.6823 67.3561 50.0472C67.3459 50.4121 67.1912 50.758 66.9261 51.0089V51.0089Z" fill="white"/>
<path d="M64.3438 55.2181C65.7651 53.8843 66.0931 51.9382 65.0763 50.8449C64.0595 49.7517 62.1135 49.9812 60.7031 51.3041L64.3438 55.2181Z" fill="white"/>
<path d="M35.0195 54.0312C35.5854 55.2495 36.5001 56.2726 37.6476 56.9709C38.7952 57.6692 40.1242 58.0114 41.4663 57.9541C42.8084 57.8968 44.1034 57.4427 45.1873 56.6492C46.2713 55.8557 47.0955 54.7585 47.5556 53.4964C48.0157 52.2343 48.0911 50.8641 47.7722 49.5592C47.4533 48.2542 46.7545 47.0732 45.7641 46.1656C44.7738 45.258 43.5364 44.6645 42.2087 44.4604C40.8809 44.2562 39.5225 44.4506 38.3052 45.0188C36.6755 45.7795 35.4143 47.1557 34.7982 48.8454C34.1822 50.5351 34.2618 52.4002 35.0195 54.0312V54.0312Z" fill="#8464E3"/>
<path opacity="0.5" d="M35.0195 54.0312C35.5854 55.2495 36.5001 56.2726 37.6476 56.9709C38.7952 57.6692 40.1242 58.0114 41.4663 57.9541C42.8084 57.8968 44.1034 57.4427 45.1873 56.6492C46.2713 55.8557 47.0955 54.7585 47.5556 53.4964C48.0157 52.2343 48.0911 50.8641 47.7722 49.5592C47.4533 48.2542 46.7545 47.0732 45.7641 46.1656C44.7738 45.258 43.5364 44.6645 42.2087 44.4604C40.8809 44.2562 39.5225 44.4506 38.3052 45.0188C36.6755 45.7795 35.4143 47.1557 34.7982 48.8454C34.1822 50.5351 34.2618 52.4002 35.0195 54.0312V54.0312Z" fill="white"/>
<path d="M41.6977 49.0581C41.8136 49.3048 41.8537 49.5803 41.8129 49.8497C41.7722 50.1192 41.6524 50.3705 41.4688 50.5719C41.2852 50.7733 41.046 50.9157 40.7814 50.9811C40.5168 51.0465 40.2388 51.032 39.9825 50.9393C39.7262 50.8466 39.5032 50.68 39.3416 50.4606C39.18 50.2411 39.0871 49.9787 39.0747 49.7064C39.0623 49.4342 39.131 49.1643 39.272 48.9311C39.413 48.6979 39.62 48.5117 39.8668 48.3962C40.1974 48.2414 40.5759 48.2242 40.9192 48.3483C41.2625 48.4724 41.5425 48.7277 41.6977 49.0581V49.0581Z" fill="white"/>
<path d="M44.8834 52.8333C44.0623 51.0656 42.3172 50.1441 40.9603 50.767C39.6033 51.3898 39.2114 53.3097 40.0255 55.0637L44.8834 52.8333Z" fill="white"/>
<path d="M40.2826 83.4031C40.2464 84.1624 40.4362 84.9154 40.8281 85.5668C41.22 86.2181 41.7963 86.7386 42.4841 87.0624C43.1719 87.3861 43.9403 87.4985 44.692 87.3854C45.4437 87.2723 46.145 86.9387 46.707 86.4268C47.2691 85.915 47.6667 85.248 47.8495 84.5101C48.0323 83.7722 47.9921 82.9967 47.734 82.2817C47.4759 81.5667 47.0115 80.9443 46.3995 80.4933C45.7876 80.0423 45.0556 79.783 44.2962 79.7482C43.2796 79.7016 42.2859 80.0602 41.5334 80.7455C40.7809 81.4307 40.3311 82.3865 40.2826 83.4031V83.4031Z" fill="#8464E3"/>
<path opacity="0.5" d="M40.2826 83.4031C40.2464 84.1624 40.4362 84.9154 40.8281 85.5668C41.22 86.2181 41.7963 86.7386 42.4841 87.0624C43.1719 87.3861 43.9403 87.4985 44.692 87.3854C45.4437 87.2723 46.145 86.9387 46.707 86.4268C47.2691 85.915 47.6667 85.248 47.8495 84.5101C48.0323 83.7722 47.9921 82.9967 47.734 82.2817C47.4759 81.5667 47.0115 80.9443 46.3995 80.4933C45.7876 80.0423 45.0556 79.783 44.2962 79.7482C43.2796 79.7016 42.2859 80.0602 41.5334 80.7455C40.7809 81.4307 40.3311 82.3865 40.2826 83.4031V83.4031Z" fill="white"/>
<path d="M44.9358 82.6654C44.9291 82.8195 44.8769 82.9681 44.7857 83.0925C44.6945 83.2169 44.5685 83.3114 44.4235 83.3642C44.2786 83.4169 44.1213 83.4255 43.9715 83.3888C43.8217 83.3521 43.6862 83.2718 43.582 83.158C43.4779 83.0443 43.4098 82.9022 43.3864 82.7498C43.3631 82.5973 43.3854 82.4414 43.4507 82.3016C43.516 82.1619 43.6213 82.0447 43.7532 81.9648C43.8851 81.8849 44.0378 81.846 44.1918 81.8529C44.3982 81.8621 44.5925 81.9529 44.7319 82.1052C44.8714 82.2576 44.9447 82.459 44.9358 82.6654V82.6654Z" fill="white"/>
<path d="M45.5454 85.3946C45.598 84.2929 44.9652 83.3727 44.1215 83.3286C43.2777 83.2845 42.5771 84.144 42.5246 85.237L45.5454 85.3946Z" fill="white"/>
<path d="M98.9177 69.8431C106.5 66.7535 110.142 58.1021 107.052 50.5197C103.963 42.9374 95.3114 39.2954 87.729 42.385C80.1467 45.4747 76.5047 54.1261 79.5943 61.7084C82.684 69.2908 91.3354 72.9328 98.9177 69.8431Z" fill="#8464E3"/>
<path opacity="0.5" d="M98.9177 69.8431C106.5 66.7535 110.142 58.1021 107.052 50.5197C103.963 42.9374 95.3114 39.2954 87.729 42.385C80.1467 45.4747 76.5047 54.1261 79.5943 61.7084C82.684 69.2908 91.3354 72.9328 98.9177 69.8431Z" fill="white"/>
<path d="M95.4609 51.0223C92.181 49.6338 88.4966 50.8474 87.283 53.7446C86.8914 54.7606 86.8028 55.8683 87.0279 56.9336C87.253 57.9989 87.7821 58.9761 88.5512 59.7468C88.1564 60.2175 87.659 60.5915 87.0971 60.8401C87.5246 61.0118 87.9827 61.0945 88.4432 61.0832C88.9038 61.072 89.3572 60.9669 89.7757 60.7745C90.1777 61.0469 90.6063 61.2777 91.0549 61.4633C94.3348 62.8518 98.0192 61.6382 99.2327 58.741C100.446 55.8437 98.7626 52.4108 95.4609 51.0223Z" fill="white"/>
<path d="M68.6804 78.5538C72.4415 77.0212 74.248 72.7298 72.7155 68.9687C71.1829 65.2076 66.8915 63.4011 63.1304 64.9336C59.3693 66.4662 57.5627 70.7576 59.0953 74.5187C60.6279 78.2798 64.9193 80.0864 68.6804 78.5538Z" fill="#8464E3"/>
<path opacity="0.5" d="M68.6804 78.5538C72.4415 77.0212 74.248 72.7298 72.7155 68.9687C71.1829 65.2076 66.8915 63.4011 63.1304 64.9336C59.3693 66.4662 57.5627 70.7576 59.0953 74.5187C60.6279 78.2798 64.9193 80.0864 68.6804 78.5538Z" fill="white"/>
<path d="M66.97 69.2181C65.343 68.5293 63.5154 69.1313 62.9135 70.5684C62.7192 71.0724 62.6752 71.6219 62.7869 72.1503C62.8985 72.6787 63.161 73.1634 63.5425 73.5457C63.3467 73.7792 63.0999 73.9647 62.8213 74.088C63.0333 74.1732 63.2605 74.2142 63.4889 74.2086C63.7174 74.203 63.9423 74.1509 64.1499 74.0555C64.3493 74.1906 64.5619 74.3051 64.7844 74.3972C66.4114 75.0859 68.239 74.4839 68.8409 73.0468C69.4429 71.6097 68.6077 69.9068 66.97 69.2181Z" fill="white"/>
<path d="M64.9301 229.503C67.6022 224.822 65.9737 218.861 61.2928 216.189C56.6119 213.517 50.6511 215.145 47.9789 219.826C45.3068 224.507 46.9353 230.468 51.6162 233.14C56.2971 235.812 62.258 234.184 64.9301 229.503Z" fill="#8464E3"/>
<path opacity="0.5" d="M64.9301 229.503C67.6022 224.822 65.9737 218.861 61.2928 216.189C56.6119 213.517 50.6511 215.145 47.9789 219.826C45.3068 224.507 46.9353 230.468 51.6162 233.14C56.2971 235.812 62.258 234.184 64.9301 229.503Z" fill="white"/>
<path d="M57.1894 221.61C57.3572 221.961 57.417 222.355 57.3612 222.741C57.3054 223.127 57.1366 223.487 56.876 223.777C56.6154 224.067 56.2747 224.273 55.897 224.369C55.5194 224.466 55.1216 224.448 54.754 224.318C54.3864 224.189 54.0654 223.953 53.8316 223.641C53.5978 223.329 53.4617 222.955 53.4404 222.566C53.4192 222.177 53.5137 221.79 53.7122 221.455C53.9106 221.119 54.204 220.85 54.5553 220.681C54.7891 220.569 55.0429 220.504 55.3019 220.489C55.561 220.475 55.8203 220.512 56.0651 220.599C56.3098 220.685 56.535 220.819 56.728 220.992C56.9209 221.166 57.0777 221.375 57.1894 221.61V221.61Z" fill="white"/>
<path d="M61.8211 227C60.612 224.481 58.0858 223.178 56.1785 224.121C54.2713 225.064 53.6955 227.806 54.883 230.332L61.8211 227Z" fill="white"/>
<path d="M76.8503 244.514C79.7003 243.352 81.0693 240.101 79.908 237.251C78.7466 234.401 75.4948 233.032 72.6448 234.193C69.7948 235.354 68.4258 238.606 69.5871 241.456C70.7485 244.306 74.0003 245.675 76.8503 244.514Z" fill="#8464E3"/>
<path opacity="0.5" d="M76.8503 244.514C79.7003 243.352 81.0693 240.101 79.908 237.251C78.7466 234.401 75.4948 233.032 72.6448 234.193C69.7948 235.354 68.4258 238.606 69.5871 241.456C70.7485 244.306 74.0003 245.675 76.8503 244.514Z" fill="white"/>
<path d="M75.5436 237.438C74.3108 236.916 72.9259 237.373 72.4697 238.462C72.3226 238.843 72.2892 239.26 72.3738 239.66C72.4584 240.061 72.6573 240.428 72.9464 240.718C72.798 240.895 72.611 241.035 72.3999 241.129C72.5606 241.193 72.7327 241.224 72.9058 241.22C73.0789 241.216 73.2494 241.176 73.4067 241.104C73.5578 241.206 73.7189 241.293 73.8875 241.363C75.1203 241.885 76.5052 241.429 76.9613 240.34C77.4175 239.251 76.7846 237.96 75.5436 237.438Z" fill="white"/>
<path d="M89.0262 138.948H49.5691L12.8125 101.808H125.783L89.0262 138.948Z" fill="#A491DF"/>
<path d="M89.0461 138.948L82.0272 196.16H56.5862L49.5781 138.948H89.0461Z" fill="#A491DF"/>
<path opacity="0.2" d="M125.795 101.808L89.0496 138.948H49.5816L12.8359 101.808H125.795Z" fill="#A491DF"/>
<path opacity="0.2" d="M64.6363 196.16H56.5897L49.5816 138.948L12.8359 101.808H34.9315L60.7879 138.948L64.6363 196.16Z" fill="#A491DF"/>
<path d="M125.417 98.2552H13.1789C12.1222 98.2552 11.2656 99.1118 11.2656 100.168V103.437C11.2656 104.494 12.1222 105.351 13.1789 105.351H125.417C126.473 105.351 127.33 104.494 127.33 103.437V100.168C127.33 99.1118 126.473 98.2552 125.417 98.2552Z" fill="#A491DF"/>
<path d="M81.9591 194.815H56.6493C55.7557 194.815 55.0312 195.54 55.0312 196.433V198.609C55.0312 199.502 55.7557 200.227 56.6493 200.227H81.9591C82.8528 200.227 83.5772 199.502 83.5772 198.609V196.433C83.5772 195.54 82.8528 194.815 81.9591 194.815Z" fill="#A491DF"/>
<path opacity="0.2" d="M81.9591 194.815H56.6493C55.7557 194.815 55.0312 195.54 55.0312 196.433V198.609C55.0312 199.502 55.7557 200.227 56.6493 200.227H81.9591C82.8528 200.227 83.5772 199.502 83.5772 198.609V196.433C83.5772 195.54 82.8528 194.815 81.9591 194.815Z" fill="#A491DF"/>
<rect x="374.492" y="154.915" width="55.2372" height="55.2372" rx="27.6186" fill="#C1B2F1"/>
<g clip-path="url(#clip2_1125_3387)">
<path fill-rule="evenodd" clip-rule="evenodd" d="M390.919 171.77C390.919 171.427 390.783 171.099 390.541 170.857C390.299 170.614 389.97 170.478 389.628 170.478C389.285 170.478 388.956 170.614 388.714 170.857C388.472 171.099 388.336 171.427 388.336 171.77V193.297C388.336 194.01 388.915 194.588 389.628 194.588H414.599C414.941 194.588 415.27 194.452 415.512 194.21C415.754 193.968 415.89 193.639 415.89 193.297C415.89 192.954 415.754 192.626 415.512 192.383C415.27 192.141 414.941 192.005 414.599 192.005H390.919V171.77ZM415.512 176.127C415.74 175.882 415.864 175.558 415.858 175.224C415.852 174.889 415.717 174.57 415.48 174.333C415.243 174.096 414.924 173.961 414.589 173.955C414.255 173.949 413.931 174.073 413.686 174.301L405.558 182.43L401.304 178.176C401.062 177.934 400.733 177.799 400.391 177.799C400.049 177.799 399.72 177.934 399.478 178.176L393.881 183.773C393.653 184.018 393.529 184.342 393.535 184.677C393.541 185.011 393.676 185.33 393.913 185.567C394.15 185.804 394.469 185.939 394.803 185.945C395.138 185.951 395.462 185.827 395.707 185.599L400.391 180.914L404.645 185.168C404.887 185.41 405.215 185.546 405.558 185.546C405.9 185.546 406.228 185.41 406.47 185.168L415.512 176.127V176.127Z" fill="white"/>
</g>
</g>
<defs>
<filter id="filter0_dd_1125_3387" x="151.21" y="47.49" width="273.024" height="151.976" filterUnits="userSpaceOnUse" color-interpolation-filters="sRGB">
<feFlood flood-opacity="0" result="BackgroundImageFix"/>
<feColorMatrix in="SourceAlpha" type="matrix" values="0 0 0 0 0 0 0 0 0 0 0 0 0 0 0 0 0 0 127 0" result="hardAlpha"/>
<feOffset dy="6.31272"/>
<feGaussianBlur stdDeviation="6.31272"/>
<feComposite in2="hardAlpha" operator="out"/>
<feColorMatrix type="matrix" values="0 0 0 0 0 0 0 0 0 0 0 0 0 0 0 0 0 0 0.05 0"/>
<feBlend mode="normal" in2="BackgroundImageFix" result="effect1_dropShadow_1125_3387"/>
<feColorMatrix in="SourceAlpha" type="matrix" values="0 0 0 0 0 0 0 0 0 0 0 0 0 0 0 0 0 0 127 0" result="hardAlpha"/>
<feOffset dy="3.15636"/>
<feGaussianBlur stdDeviation="3.15636"/>
<feComposite in2="hardAlpha" operator="out"/>
<feColorMatrix type="matrix" values="0 0 0 0 0 0 0 0 0 0 0 0 0 0 0 0 0 0 0.07 0"/>
<feBlend mode="normal" in2="effect1_dropShadow_1125_3387" result="effect2_dropShadow_1125_3387"/>
<feBlend mode="normal" in="SourceGraphic" in2="effect2_dropShadow_1125_3387" result="shape"/>
</filter>
<clipPath id="clip0_1125_3387">
<rect width="429.422" height="250" fill="white"/>
</clipPath>
<clipPath id="clip1_1125_3387">
<rect width="20.797" height="20.797" fill="white" transform="translate(366.93 101.079) rotate(-90)"/>
</clipPath>
<clipPath id="clip2_1125_3387">
<rect width="27.5545" height="27.5545" fill="white" transform="translate(388.336 168.756)"/>
</clipPath>
</defs>
</svg>
