<svg width="29" height="28" viewBox="0 0 29 28" fill="none" xmlns="http://www.w3.org/2000/svg">
<path d="M17.125 11.375H22.375V13.125H17.125V11.375ZM11.875 18.375H10.125V16.625H8.375V18.375H6.625V20.125H8.375V21.875H10.125V20.125H11.875V18.375ZM6.625 7.875H11.875V9.625H6.625V7.875ZM17.125 14.875H22.375V16.625H17.125V14.875Z" fill="#A3A3A3"/>
<path d="M24.125 2.625H4.875C4.41101 2.62546 3.96616 2.80999 3.63807 3.13807C3.30999 3.46616 3.12546 3.91101 3.125 4.375V23.625C3.12546 24.089 3.30999 24.5338 3.63807 24.8619C3.96616 25.19 4.41101 25.3745 4.875 25.375H24.125C24.589 25.3745 25.0338 25.19 25.3619 24.8619C25.69 24.5338 25.8745 24.089 25.875 23.625V4.375C25.8745 3.91101 25.69 3.46616 25.3619 3.13807C25.0338 2.80999 24.589 2.62546 24.125 2.625ZM13.625 4.375V13.125H4.875V4.375H13.625ZM4.875 14.875H13.625V23.625H4.875V14.875ZM15.375 23.625V4.375H24.125V23.625H15.375Z" fill="#A3A3A3"/>
</svg>
