<svg width="20" height="28" viewBox="0 0 20 28" fill="none" xmlns="http://www.w3.org/2000/svg">
<path d="M15.6353 1.51953H3.74969C2.96145 1.56688 2.22372 1.92333 1.69676 2.51145C1.1698 3.09957 0.896181 3.87186 0.935331 4.66056V23.3434C0.896181 24.1321 1.1698 24.9044 1.69676 25.4925C2.22372 26.0806 2.96145 26.4371 3.74969 26.4844H15.6353C16.4236 26.4371 17.1613 26.0806 17.6883 25.4925C18.2152 24.9044 18.4888 24.1321 18.4497 23.3434V4.66056C18.4888 3.87186 18.2152 3.09957 17.6883 2.51145C17.1613 1.92333 16.4236 1.56688 15.6353 1.51953ZM17.1933 23.3434C17.2316 23.7988 17.09 24.2512 16.7988 24.6035C16.5075 24.9558 16.0899 25.18 15.6353 25.228H3.74969C3.29513 25.18 2.87748 24.9558 2.58625 24.6035C2.29502 24.2512 2.1534 23.7988 2.19174 23.3434V4.66056C2.1534 4.20508 2.29502 3.75272 2.58625 3.40042C2.87748 3.04813 3.29513 2.82395 3.74969 2.77594H5.672V3.41671C5.672 3.74993 5.80437 4.0695 6.03999 4.30513C6.27561 4.54075 6.59519 4.67312 6.92841 4.67312H12.4566C12.7898 4.67312 13.1094 4.54075 13.345 4.30513C13.5807 4.0695 13.713 3.74993 13.713 3.41671V2.77594H15.6353C16.0899 2.82395 16.5075 3.04813 16.7988 3.40042C17.09 3.75272 17.2316 4.20508 17.1933 4.66056V23.3434Z" fill="#A3A3A3"/>
<path d="M7.17996 22.7095H12.2056C12.3722 22.7095 12.532 22.6434 12.6498 22.5255C12.7676 22.4077 12.8338 22.2479 12.8338 22.0813C12.8338 21.9147 12.7676 21.7549 12.6498 21.6371C12.532 21.5193 12.3722 21.4531 12.2056 21.4531H7.17996C7.01335 21.4531 6.85357 21.5193 6.73575 21.6371C6.61794 21.7549 6.55176 21.9147 6.55176 22.0813C6.55176 22.2479 6.61794 22.4077 6.73575 22.5255C6.85357 22.6434 7.01335 22.7095 7.17996 22.7095Z" fill="#A3A3A3"/>
</svg>
