<svg width="28" height="28" viewBox="0 0 28 28" fill="none" xmlns="http://www.w3.org/2000/svg">
<g clip-path="url(#clip0_5613_15064)">
<path d="M24 15.0006V11.0006C24 10.4702 23.7893 9.96149 23.4142 9.58642C23.0391 9.21135 22.5304 9.00063 22 9.00063H3C2.46957 9.00063 1.96086 9.21135 1.58579 9.58642C1.21071 9.96149 1 10.4702 1 11.0006V25.0006C1 25.5311 1.21071 26.0398 1.58579 26.4148C1.96086 26.7899 2.46957 27.0006 3 27.0006H22C22.5304 27.0006 23.0391 26.7899 23.4142 26.4148C23.7893 26.0398 24 25.5311 24 25.0006V20.0006M7.68 4.00063L19.02 1.04063C19.1474 1.00473 19.2808 0.995017 19.4121 1.01208C19.5434 1.02915 19.6698 1.07264 19.7839 1.13992C19.8979 1.20721 19.9971 1.2969 20.0755 1.40358C20.1539 1.51027 20.2098 1.63173 20.24 1.76063L20.8 4.00063" stroke="#A3A3A3" stroke-width="2" stroke-linecap="round" stroke-linejoin="round"/>
<path d="M26 15H21C20.4477 15 20 15.4477 20 16V19C20 19.5523 20.4477 20 21 20H26C26.5523 20 27 19.5523 27 19V16C27 15.4477 26.5523 15 26 15Z" stroke="#A3A3A3" stroke-width="2" stroke-linecap="round" stroke-linejoin="round"/>
</g>
<defs>
<clipPath id="clip0_5613_15064">
<rect width="28" height="28" fill="white"/>
</clipPath>
</defs>
</svg>
