<svg width="28" height="28" viewBox="0 0 28 28" fill="none" xmlns="http://www.w3.org/2000/svg">
<path fill-rule="evenodd" clip-rule="evenodd" d="M6.41678 0H6.55883C7.78537 0 8.80976 6.10584e-08 9.62107 0.109268C10.4788 0.224 11.2533 0.478049 11.8747 1.09951C12.4976 1.72234 12.7516 2.49678 12.8663 3.35317C12.9756 4.16585 12.9756 5.19024 12.9756 6.41678V21.5832C12.9756 22.8111 12.9756 23.8341 12.8663 24.6455C12.7516 25.5032 12.4976 26.2777 11.8747 26.8991C11.2533 27.522 10.4788 27.776 9.62107 27.8907C8.80976 28 7.78537 28 6.55883 28H6.41678C5.19024 28 4.16585 28 3.35454 27.8907C2.49678 27.776 1.72234 27.522 1.10088 26.8991C0.478049 26.2777 0.224 25.5032 0.109268 24.6455C6.10584e-08 23.8341 0 22.8111 0 21.5832V6.41678C0 5.19024 6.10584e-08 4.16585 0.109268 3.35454C0.224 2.49678 0.478049 1.72234 1.09951 1.10088C1.72234 0.478049 2.49678 0.224 3.35317 0.109268C4.16585 6.10584e-08 5.19024 0 6.41678 0ZM3.62634 2.14029C2.99668 2.22498 2.72624 2.37112 2.54868 2.55005C2.37112 2.72761 2.22498 2.99668 2.13893 3.62634C2.05151 4.28605 2.04878 5.17112 2.04878 6.4878V21.5122C2.04878 22.8289 2.05151 23.714 2.14029 24.3737C2.22498 25.0033 2.37112 25.2738 2.55005 25.4513C2.72761 25.6289 2.99668 25.775 3.62634 25.8611C4.28605 25.9485 5.17112 25.9512 6.4878 25.9512C7.80449 25.9512 8.68956 25.9485 9.34927 25.8597C9.97893 25.775 10.2494 25.6289 10.4269 25.45C10.6045 25.2724 10.7506 25.0033 10.8367 24.3737C10.9241 23.714 10.9268 22.8289 10.9268 21.5122V6.4878C10.9268 5.17112 10.9241 4.28605 10.8353 3.62634C10.7506 2.99668 10.6045 2.72624 10.4256 2.54868C10.248 2.37112 9.97893 2.22498 9.34927 2.13893C8.68956 2.05151 7.80449 2.04878 6.4878 2.04878C5.17112 2.04878 4.28605 2.05151 3.62634 2.14029ZM21.4412 12.2927H21.5832C22.8111 12.2927 23.8341 12.2927 24.6455 12.402C25.5032 12.5167 26.2777 12.7707 26.8991 13.3936C27.522 14.015 27.776 14.7895 27.8907 15.6472C28 16.4585 28 17.4829 28 18.7095V21.5832C28 22.8111 28 23.8341 27.8907 24.6455C27.776 25.5032 27.522 26.2777 26.8991 26.8991C26.2777 27.522 25.5032 27.776 24.6455 27.8907C23.8341 28 22.8111 28 21.5832 28H21.4412C20.2146 28 19.1902 28 18.3789 27.8907C17.5212 27.776 16.7467 27.522 16.1253 26.8991C15.5024 26.2777 15.2484 25.5032 15.1337 24.6455C15.0244 23.8341 15.0244 22.8111 15.0244 21.5832V18.7095C15.0244 17.4816 15.0244 16.4585 15.1337 15.6472C15.2484 14.7895 15.5024 14.015 16.1253 13.3936C16.7467 12.7707 17.5212 12.5167 18.3789 12.402C19.1902 12.2927 20.2133 12.2927 21.4412 12.2927ZM18.6507 14.4316C18.0211 14.5177 17.7506 14.6638 17.5731 14.8414C17.3955 15.0189 17.2494 15.2894 17.1633 15.9204C17.0759 16.5787 17.0732 17.4638 17.0732 18.7805V21.5122C17.0732 22.8289 17.0759 23.714 17.1633 24.3737C17.2494 25.0033 17.3955 25.2738 17.5731 25.4513C17.7506 25.6289 18.0211 25.775 18.6521 25.8611C19.3104 25.9485 20.1955 25.9512 21.5122 25.9512C22.8289 25.9512 23.714 25.9485 24.3737 25.8597C25.0033 25.775 25.2738 25.6289 25.4513 25.45C25.6289 25.2724 25.775 25.0033 25.8611 24.3737C25.9485 23.714 25.9512 22.8289 25.9512 21.5122V18.7805C25.9512 17.4638 25.9485 16.5787 25.8597 15.919C25.775 15.2894 25.6289 15.0189 25.45 14.8414C25.2724 14.6638 25.0033 14.5177 24.3737 14.4316C23.714 14.3442 22.8289 14.3415 21.5122 14.3415C20.1955 14.3415 19.3104 14.3442 18.6507 14.4316ZM20.1122 0C19.5044 0 18.9977 -2.5441e-08 18.5824 0.027317C18.158 0.0449908 17.7394 0.132676 17.3436 0.286829C16.8878 0.475439 16.4735 0.752003 16.1246 1.10072C15.7756 1.44944 15.4988 1.86349 15.3099 2.31922C15.146 2.71532 15.0818 3.12507 15.0531 3.55805C15.0244 3.97327 15.0244 4.48 15.0244 5.0878V5.1561C15.0244 5.7639 15.0244 6.27063 15.0517 6.68585C15.0818 7.11883 15.1473 7.52859 15.3112 7.92468C15.4998 8.38054 15.7764 8.79477 16.1251 9.14373C16.4738 9.49268 16.8879 9.76952 17.3436 9.95844C17.7397 10.1223 18.1495 10.1865 18.5824 10.2152C18.9977 10.2439 19.5044 10.2439 20.1122 10.2439H22.9122C23.52 10.2439 24.0267 10.2439 24.442 10.2166C24.8663 10.1985 25.2848 10.1108 25.6808 9.95707C26.1366 9.76846 26.5509 9.4919 26.8998 9.14318C27.2488 8.79446 27.5256 8.38041 27.7145 7.92468C27.8784 7.52859 27.9426 7.11883 27.9713 6.68585C28 6.27063 28 5.7639 28 5.1561V5.0878C28 4.48 28 3.97327 27.9727 3.55805C27.955 3.13363 27.8673 2.71504 27.7132 2.31922C27.5246 1.86337 27.248 1.44913 26.8993 1.10018C26.5506 0.751221 26.1365 0.47438 25.6808 0.285463C25.2847 0.121561 24.8749 0.0573659 24.442 0.028683C24.0267 3.81615e-08 23.52 0 22.9122 0H20.1122ZM18.1276 2.17854C18.2328 2.13483 18.3926 2.09522 18.7218 2.072C19.0591 2.04878 19.4962 2.04878 20.1463 2.04878H22.878C23.5282 2.04878 23.9653 2.04878 24.3026 2.072C24.6318 2.09522 24.7916 2.13483 24.8968 2.17854C25.3161 2.352 25.648 2.6839 25.8215 3.10322C25.8652 3.20839 25.9048 3.36819 25.928 3.69737C25.9512 4.03473 25.9512 4.47181 25.9512 5.12195C25.9512 5.7721 25.9512 6.20917 25.928 6.54654C25.9048 6.87571 25.8652 7.03551 25.8215 7.14068C25.7357 7.34802 25.6098 7.5364 25.4512 7.69506C25.2925 7.85373 25.1041 7.97956 24.8968 8.06537C24.7916 8.10907 24.6318 8.14868 24.3026 8.1719C23.9653 8.19512 23.5282 8.19512 22.878 8.19512H20.1463C19.4962 8.19512 19.0591 8.19512 18.7218 8.1719C18.3926 8.14868 18.2328 8.10907 18.1276 8.06537C17.9203 7.97956 17.7319 7.85373 17.5732 7.69506C17.4146 7.5364 17.2887 7.34802 17.2029 7.14068C17.1592 7.03551 17.1196 6.87571 17.0964 6.54654C17.0741 6.07202 17.0664 5.59694 17.0732 5.12195C17.0732 4.47181 17.0732 4.03473 17.0964 3.69737C17.1196 3.36819 17.1592 3.20839 17.2029 3.10322C17.3764 2.6839 17.7083 2.352 18.1276 2.17854Z" fill="#A3A3A3"/>
</svg>
