<svg width="439" height="234" viewBox="0 0 439 234" fill="none" xmlns="http://www.w3.org/2000/svg">
<rect width="438.153" height="233.157" rx="4.31312" fill="white"/>
<path d="M33.7743 31.177H32.5285C32.4548 30.8187 32.3259 30.5039 32.1417 30.2326C31.9609 29.9613 31.7398 29.7336 31.4786 29.5494C31.2208 29.3619 30.9344 29.2212 30.6196 29.1275C30.3048 29.0337 29.9766 28.9868 29.635 28.9868C29.0121 28.9868 28.4479 29.1442 27.9422 29.459C27.4398 29.7738 27.0396 30.2376 26.7416 30.8505C26.4469 31.4633 26.2995 32.2151 26.2995 33.106C26.2995 33.9968 26.4469 34.7486 26.7416 35.3614C27.0396 35.9743 27.4398 36.4381 27.9422 36.7529C28.4479 37.0677 29.0121 37.2251 29.635 37.2251C29.9766 37.2251 30.3048 37.1782 30.6196 37.0845C30.9344 36.9907 31.2208 36.8517 31.4786 36.6675C31.7398 36.48 31.9609 36.2506 32.1417 35.9793C32.3259 35.7047 32.4548 35.3899 32.5285 35.0349H33.7743C33.6805 35.5607 33.5097 36.0312 33.2619 36.4465C33.0141 36.8618 32.706 37.2151 32.3376 37.5064C31.9692 37.7944 31.5556 38.0138 31.0968 38.1645C30.6414 38.3152 30.1541 38.3905 29.635 38.3905C28.7576 38.3905 27.9773 38.1762 27.2942 37.7475C26.611 37.3189 26.0735 36.7094 25.6817 35.919C25.2898 35.1287 25.0939 34.191 25.0939 33.106C25.0939 32.0209 25.2898 31.0832 25.6817 30.2929C26.0735 29.5025 26.611 28.893 27.2942 28.4644C27.9773 28.0357 28.7576 27.8214 29.635 27.8214C30.1541 27.8214 30.6414 27.8967 31.0968 28.0474C31.5556 28.1981 31.9692 28.4192 32.3376 28.7105C32.706 28.9985 33.0141 29.3502 33.2619 29.7654C33.5097 30.1773 33.6805 30.6479 33.7743 31.177ZM37.8972 38.4307C37.4083 38.4307 36.9645 38.3386 36.566 38.1544C36.1675 37.9669 35.851 37.6973 35.6166 37.3457C35.3822 36.9907 35.265 36.562 35.265 36.0597C35.265 35.6176 35.352 35.2593 35.5262 34.9847C35.7003 34.7067 35.9331 34.4891 36.2244 34.3317C36.5158 34.1743 36.8373 34.057 37.1889 33.98C37.5439 33.8996 37.9006 33.836 38.2589 33.7891C38.7277 33.7289 39.1078 33.6836 39.3992 33.6535C39.6939 33.62 39.9082 33.5648 40.0422 33.4877C40.1795 33.4107 40.2482 33.2767 40.2482 33.0859V33.0457C40.2482 32.55 40.1125 32.1649 39.8413 31.8903C39.5733 31.6157 39.1665 31.4784 38.6206 31.4784C38.0546 31.4784 37.6109 31.6023 37.2894 31.8501C36.9679 32.0979 36.7418 32.3625 36.6112 32.6438L35.486 32.2419C35.6869 31.7731 35.9549 31.4081 36.2897 31.1468C36.628 30.8823 36.9964 30.6981 37.3949 30.5943C37.7968 30.4871 38.1919 30.4335 38.5804 30.4335C38.8282 30.4335 39.1129 30.4637 39.4344 30.5239C39.7592 30.5809 40.0723 30.6998 40.3737 30.8806C40.6785 31.0614 40.9313 31.3344 41.1323 31.6994C41.3332 32.0644 41.4337 32.5534 41.4337 33.1662V38.2499H40.2482V37.205H40.1879C40.1075 37.3725 39.9735 37.5516 39.786 37.7425C39.5985 37.9334 39.349 38.0958 39.0375 38.2298C38.7261 38.3637 38.346 38.4307 37.8972 38.4307ZM38.0781 37.3658C38.5469 37.3658 38.9421 37.2737 39.2636 37.0895C39.5884 36.9053 39.8329 36.6675 39.997 36.3762C40.1644 36.0848 40.2482 35.7784 40.2482 35.4569V34.3718C40.1979 34.4321 40.0874 34.4874 39.9166 34.5376C39.7492 34.5845 39.5549 34.6264 39.3339 34.6632C39.1162 34.6967 38.9036 34.7268 38.6959 34.7536C38.4916 34.7771 38.3259 34.7972 38.1986 34.8139C37.8905 34.8541 37.6025 34.9194 37.3346 35.0098C37.07 35.0969 36.8557 35.2292 36.6916 35.4067C36.5309 35.5808 36.4505 35.8186 36.4505 36.12C36.4505 36.5319 36.6029 36.8433 36.9076 37.0543C37.2157 37.262 37.6059 37.3658 38.0781 37.3658ZM43.5975 38.2499V30.534H44.7428V31.6994H44.8232C44.9638 31.3176 45.2183 31.0079 45.5867 30.7701C45.9551 30.5323 46.3704 30.4134 46.8325 30.4134C46.9196 30.4134 47.0284 30.4151 47.159 30.4185C47.2896 30.4218 47.3884 30.4268 47.4554 30.4335V31.6391C47.4152 31.6291 47.3231 31.614 47.1791 31.5939C47.0385 31.5705 46.8895 31.5588 46.7321 31.5588C46.357 31.5588 46.0221 31.6375 45.7274 31.7949C45.436 31.9489 45.205 32.1632 45.0342 32.4378C44.8667 32.7091 44.783 33.0189 44.783 33.3672V38.2499H43.5975ZM51.5394 38.4106C50.8964 38.4106 50.3288 38.2482 49.8365 37.9234C49.3442 37.5952 48.9591 37.133 48.6811 36.5369C48.4032 35.9375 48.2642 35.2292 48.2642 34.412C48.2642 33.6016 48.4032 32.8983 48.6811 32.3022C48.9591 31.7061 49.3459 31.2456 49.8415 30.9208C50.3372 30.5959 50.9098 30.4335 51.5595 30.4335C52.0618 30.4335 52.4587 30.5173 52.75 30.6847C53.0447 30.8488 53.2691 31.0363 53.4232 31.2473C53.5806 31.4549 53.7028 31.6257 53.7899 31.7597H53.8903V27.962H55.0759V38.2499H53.9305V37.0644H53.7899C53.7028 37.205 53.5789 37.3825 53.4181 37.5968C53.2574 37.8078 53.028 37.997 52.7299 38.1645C52.4319 38.3286 52.035 38.4106 51.5394 38.4106ZM51.7002 37.3457C52.1757 37.3457 52.5776 37.2218 52.9058 36.9739C53.234 36.7228 53.4835 36.3762 53.6542 35.9341C53.825 35.4887 53.9104 34.9746 53.9104 34.3919C53.9104 33.8159 53.8267 33.3119 53.6593 32.8799C53.4918 32.4445 53.244 32.1063 52.9158 31.8652C52.5876 31.6207 52.1824 31.4985 51.7002 31.4985C51.1978 31.4985 50.7792 31.6274 50.4443 31.8853C50.1128 32.1398 49.8633 32.4864 49.6958 32.9251C49.5317 33.3605 49.4497 33.8494 49.4497 34.3919C49.4497 34.9412 49.5334 35.4401 49.7009 35.8889C49.8717 36.3343 50.1228 36.6893 50.4544 36.9539C50.7893 37.2151 51.2045 37.3457 51.7002 37.3457ZM69.7089 27.962V38.2499H68.5033L62.8972 30.1723H62.7968V38.2499H61.551V27.962H62.7566L68.3827 36.0597H68.4832V27.962H69.7089ZM76.9036 35.0952V30.534H78.0891V38.2499H76.9036V36.9438H76.8232C76.6424 37.3356 76.3611 37.6688 75.9793 37.9435C75.5975 38.2147 75.1153 38.3503 74.5326 38.3503C74.0504 38.3503 73.6217 38.2449 73.2466 38.0339C72.8715 37.8195 72.5768 37.498 72.3625 37.0694C72.1482 36.6374 72.041 36.0932 72.041 35.4368V30.534H73.2265V35.3564C73.2265 35.919 73.3839 36.3678 73.6987 36.7027C74.0169 37.0376 74.4221 37.205 74.9144 37.205C75.2091 37.205 75.5088 37.1297 75.8136 36.979C76.1216 36.8283 76.3795 36.5972 76.5871 36.2857C76.7981 35.9743 76.9036 35.5774 76.9036 35.0952ZM80.2605 38.2499V30.534H81.4058V31.7396H81.5063C81.667 31.3277 81.9266 31.0079 82.2849 30.7801C82.6432 30.5491 83.0736 30.4335 83.5759 30.4335C84.0849 30.4335 84.5086 30.5491 84.8468 30.7801C85.1884 31.0079 85.4546 31.3277 85.6455 31.7396H85.7259C85.9235 31.3411 86.2199 31.0246 86.615 30.7902C87.0102 30.5524 87.4841 30.4335 88.0366 30.4335C88.7265 30.4335 89.2908 30.6495 89.7295 31.0815C90.1682 31.5102 90.3876 32.1783 90.3876 33.0859V38.2499H89.2021V33.0859C89.2021 32.5165 89.0463 32.1097 88.7349 31.8652C88.4234 31.6207 88.0567 31.4985 87.6348 31.4985C87.0923 31.4985 86.672 31.6626 86.3739 31.9908C86.0759 32.3156 85.9268 32.7275 85.9268 33.2265V38.2499H84.7212V32.9653C84.7212 32.5266 84.5789 32.1733 84.2942 31.9054C84.0096 31.6341 83.6429 31.4985 83.1941 31.4985C82.886 31.4985 82.598 31.5805 82.3301 31.7446C82.0655 31.9087 81.8512 32.1364 81.6871 32.4278C81.5264 32.7158 81.446 33.049 81.446 33.4275V38.2499H80.2605ZM92.7159 38.2499V27.962H93.9014V31.7597H94.0019C94.089 31.6257 94.2095 31.4549 94.3636 31.2473C94.521 31.0363 94.7453 30.8488 95.0367 30.6847C95.3314 30.5173 95.7299 30.4335 96.2323 30.4335C96.882 30.4335 97.4546 30.5959 97.9503 30.9208C98.4459 31.2456 98.8327 31.7061 99.1106 32.3022C99.3886 32.8983 99.5276 33.6016 99.5276 34.412C99.5276 35.2292 99.3886 35.9375 99.1106 36.5369C98.8327 37.133 98.4476 37.5952 97.9553 37.9234C97.463 38.2482 96.8953 38.4106 96.2524 38.4106C95.7567 38.4106 95.3599 38.3286 95.0618 38.1645C94.7638 37.997 94.5344 37.8078 94.3736 37.5968C94.2129 37.3825 94.089 37.205 94.0019 37.0644H93.8612V38.2499H92.7159ZM93.8813 34.3919C93.8813 34.9746 93.9667 35.4887 94.1375 35.9341C94.3083 36.3762 94.5578 36.7228 94.886 36.9739C95.2142 37.2218 95.6161 37.3457 96.0916 37.3457C96.5872 37.3457 97.0008 37.2151 97.3324 36.9539C97.6673 36.6893 97.9184 36.3343 98.0859 35.8889C98.2567 35.4401 98.3421 34.9412 98.3421 34.3919C98.3421 33.8494 98.2584 33.3605 98.0909 32.9251C97.9268 32.4864 97.6773 32.1398 97.3424 31.8853C97.0109 31.6274 96.5939 31.4985 96.0916 31.4985C95.6094 31.4985 95.2041 31.6207 94.876 31.8652C94.5478 32.1063 94.2999 32.4445 94.1325 32.8799C93.9651 33.3119 93.8813 33.8159 93.8813 34.3919ZM104.576 38.4106C103.833 38.4106 103.191 38.2465 102.652 37.9183C102.116 37.5868 101.703 37.1246 101.411 36.5319C101.123 35.9358 100.979 35.2426 100.979 34.4522C100.979 33.6619 101.123 32.9653 101.411 32.3625C101.703 31.7563 102.108 31.2841 102.627 30.9459C103.149 30.6043 103.759 30.4335 104.456 30.4335C104.857 30.4335 105.254 30.5005 105.646 30.6345C106.038 30.7684 106.395 30.9861 106.716 31.2875C107.038 31.5856 107.294 31.9807 107.485 32.473C107.675 32.9653 107.771 33.5715 107.771 34.2915V34.7938H101.823V33.769H106.565C106.565 33.3337 106.478 32.9452 106.304 32.6036C106.133 32.262 105.889 31.9924 105.571 31.7949C105.256 31.5973 104.884 31.4985 104.456 31.4985C103.983 31.4985 103.575 31.6157 103.23 31.8501C102.888 32.0812 102.625 32.3826 102.441 32.7543C102.257 33.126 102.165 33.5246 102.165 33.9499V34.6331C102.165 35.2158 102.265 35.7097 102.466 36.1149C102.671 36.5168 102.954 36.8232 103.315 37.0342C103.677 37.2419 104.097 37.3457 104.576 37.3457C104.888 37.3457 105.169 37.3021 105.42 37.2151C105.675 37.1246 105.894 36.9907 106.078 36.8132C106.262 36.6324 106.405 36.408 106.505 36.1401L107.65 36.4616C107.53 36.85 107.327 37.1916 107.043 37.4863C106.758 37.7777 106.406 38.0054 105.988 38.1695C105.569 38.3303 105.098 38.4106 104.576 38.4106ZM109.574 38.2499V30.534H110.72V31.6994H110.8C110.941 31.3176 111.195 31.0079 111.564 30.7701C111.932 30.5323 112.347 30.4134 112.809 30.4134C112.896 30.4134 113.005 30.4151 113.136 30.4185C113.266 30.4218 113.365 30.4268 113.432 30.4335V31.6391C113.392 31.6291 113.3 31.614 113.156 31.5939C113.015 31.5705 112.866 31.5588 112.709 31.5588C112.334 31.5588 111.999 31.6375 111.704 31.7949C111.413 31.9489 111.182 32.1632 111.011 32.4378C110.844 32.7091 110.76 33.0189 110.76 33.3672V38.2499H109.574Z" fill="#333333"/>
<g filter="url(#filter0_d_2219_4847)">
<rect x="24.25" y="49.3331" width="276.486" height="37.6677" rx="4.04165" fill="white"/>
<path d="M40.3879 63.8488V72.667H39.3201V64.9683H39.2685L37.1156 66.3978V65.3128L39.3201 63.8488H40.3879ZM42.924 72.667V71.892L45.8347 68.7057C46.1763 68.3325 46.4576 68.0082 46.6786 67.7326C46.8997 67.4542 47.0633 67.193 47.1695 66.949C47.2786 66.7021 47.3331 66.4438 47.3331 66.1739C47.3331 65.8639 47.2585 65.5955 47.1092 65.3688C46.9628 65.142 46.7619 64.9669 46.5064 64.8435C46.2509 64.72 45.9639 64.6583 45.6453 64.6583C45.3065 64.6583 45.0109 64.7286 44.7583 64.8693C44.5085 65.0071 44.3148 65.2008 44.177 65.4506C44.0421 65.7003 43.9746 65.9931 43.9746 66.3289H42.9585C42.9585 65.8123 43.0776 65.3587 43.3159 64.9683C43.5541 64.5779 43.8785 64.2737 44.2889 64.0555C44.7023 63.8374 45.1659 63.7283 45.6797 63.7283C46.1964 63.7283 46.6542 63.8374 47.0532 64.0555C47.4522 64.2737 47.7651 64.5679 47.9919 64.9382C48.2187 65.3085 48.332 65.7204 48.332 66.1739C48.332 66.4983 48.2732 66.8155 48.1555 67.1255C48.0407 67.4326 47.8397 67.7757 47.5527 68.1546C47.2685 68.5306 46.8738 68.9899 46.3686 69.5324L44.388 71.6508V71.7197H48.487V72.667H42.924ZM53.2449 72.7876C52.6765 72.7876 52.1699 72.69 51.725 72.4948C51.2829 72.2996 50.9313 72.0283 50.6701 71.681C50.4117 71.3308 50.2711 70.9246 50.2481 70.4625H51.3331C51.3561 70.7466 51.4537 70.9921 51.6259 71.1987C51.7982 71.4025 52.0235 71.5604 52.3019 71.6724C52.5804 71.7843 52.8889 71.8403 53.2277 71.8403C53.6066 71.8403 53.9424 71.7743 54.2352 71.6422C54.528 71.5102 54.7576 71.3265 54.9241 71.0911C55.0906 70.8557 55.1739 70.583 55.1739 70.273C55.1739 69.9486 55.0935 69.663 54.9327 69.4162C54.772 69.1664 54.5366 68.9712 54.2266 68.8306C53.9166 68.6899 53.5377 68.6196 53.0899 68.6196H52.3837V67.6723H53.0899C53.4401 67.6723 53.7472 67.6092 54.0113 67.4829C54.2783 67.3566 54.4864 67.1786 54.6356 66.949C54.7878 66.7193 54.8638 66.4495 54.8638 66.1395C54.8638 65.841 54.7978 65.5812 54.6658 65.3602C54.5337 65.1391 54.3472 64.9669 54.106 64.8435C53.8678 64.72 53.5865 64.6583 53.2621 64.6583C52.9578 64.6583 52.6708 64.7143 52.401 64.8262C52.134 64.9353 51.9158 65.0946 51.7465 65.3042C51.5771 65.5109 51.4853 65.7606 51.4709 66.0534H50.4375C50.4548 65.5912 50.594 65.1865 50.8552 64.8392C51.1164 64.489 51.458 64.2163 51.88 64.0211C52.3048 63.8259 52.7713 63.7283 53.2793 63.7283C53.8247 63.7283 54.2926 63.8388 54.683 64.0598C55.0734 64.278 55.3734 64.5665 55.5829 64.9253C55.7924 65.2841 55.8972 65.6716 55.8972 66.0878C55.8972 66.5844 55.7666 67.0078 55.5054 67.358C55.2471 67.7082 54.8954 67.9508 54.4505 68.0857V68.1546C55.0074 68.2464 55.4422 68.4832 55.7551 68.865C56.068 69.2439 56.2245 69.7133 56.2245 70.273C56.2245 70.7524 56.0938 71.1829 55.8326 71.5647C55.5743 71.9436 55.2212 72.2422 54.7734 72.4603C54.3256 72.6785 53.8161 72.7876 53.2449 72.7876ZM57.7788 70.8586V69.9802L61.654 63.8488H62.2912V65.2095H61.8607L58.9328 69.8424V69.9113H64.1513V70.8586H57.7788ZM61.9296 72.667V70.5916V70.1826V63.8488H62.9457V72.667H61.9296ZM72.2752 63.8488V72.667H71.2074V64.9683H71.1557L69.0028 66.3978V65.3128L71.2074 63.8488H72.2752ZM74.8113 72.667V71.892L77.7219 68.7057C78.0635 68.3325 78.3448 68.0082 78.5659 67.7326C78.7869 67.4542 78.9505 67.193 79.0567 66.949C79.1658 66.7021 79.2203 66.4438 79.2203 66.1739C79.2203 65.8639 79.1457 65.5955 78.9964 65.3688C78.85 65.142 78.6491 64.9669 78.3936 64.8435C78.1382 64.72 77.8511 64.6583 77.5325 64.6583C77.1938 64.6583 76.8981 64.7286 76.6455 64.8693C76.3958 65.0071 76.202 65.2008 76.0642 65.4506C75.9293 65.7003 75.8619 65.9931 75.8619 66.3289H74.8457C74.8457 65.8123 74.9648 65.3587 75.2031 64.9683C75.4413 64.5779 75.7657 64.2737 76.1762 64.0555C76.5895 63.8374 77.0531 63.7283 77.5669 63.7283C78.0836 63.7283 78.5415 63.8374 78.9405 64.0555C79.3395 64.2737 79.6523 64.5679 79.8791 64.9382C80.1059 65.3085 80.2193 65.7204 80.2193 66.1739C80.2193 66.4983 80.1604 66.8155 80.0427 67.1255C79.9279 67.4326 79.727 67.7757 79.4399 68.1546C79.1557 68.5306 78.7611 68.9899 78.2558 69.5324L76.2752 71.6508V71.7197H80.3743V72.667H74.8113ZM85.1321 72.7876C84.5638 72.7876 84.0571 72.69 83.6122 72.4948C83.1701 72.2996 82.8185 72.0283 82.5573 71.681C82.2989 71.3308 82.1583 70.9246 82.1353 70.4625H83.2204C83.2433 70.7466 83.3409 70.9921 83.5132 71.1987C83.6854 71.4025 83.9107 71.5604 84.1892 71.6724C84.4676 71.7843 84.7762 71.8403 85.1149 71.8403C85.4938 71.8403 85.8296 71.7743 86.1224 71.6422C86.4152 71.5102 86.6449 71.3265 86.8113 71.0911C86.9778 70.8557 87.0611 70.583 87.0611 70.273C87.0611 69.9486 86.9807 69.663 86.82 69.4162C86.6592 69.1664 86.4238 68.9712 86.1138 68.8306C85.8038 68.6899 85.4249 68.6196 84.9771 68.6196H84.271V67.6723H84.9771C85.3273 67.6723 85.6344 67.6092 85.8985 67.4829C86.1655 67.3566 86.3736 67.1786 86.5229 66.949C86.675 66.7193 86.7511 66.4495 86.7511 66.1395C86.7511 65.841 86.685 65.5812 86.553 65.3602C86.421 65.1391 86.2344 64.9669 85.9933 64.8435C85.755 64.72 85.4737 64.6583 85.1493 64.6583C84.8451 64.6583 84.558 64.7143 84.2882 64.8262C84.0212 64.9353 83.8031 65.0946 83.6337 65.3042C83.4644 65.5109 83.3725 65.7606 83.3581 66.0534H82.3248C82.342 65.5912 82.4812 65.1865 82.7424 64.8392C83.0036 64.489 83.3452 64.2163 83.7672 64.0211C84.192 63.8259 84.6585 63.7283 85.1666 63.7283C85.712 63.7283 86.1798 63.8388 86.5702 64.0598C86.9606 64.278 87.2606 64.5665 87.4701 64.9253C87.6797 65.2841 87.7844 65.6716 87.7844 66.0878C87.7844 66.5844 87.6538 67.0078 87.3926 67.358C87.1343 67.7082 86.7826 67.9508 86.3377 68.0857V68.1546C86.8946 68.2464 87.3295 68.4832 87.6424 68.865C87.9552 69.2439 88.1117 69.7133 88.1117 70.273C88.1117 70.7524 87.9811 71.1829 87.7199 71.5647C87.4615 71.9436 87.1084 72.2422 86.6606 72.4603C86.2129 72.6785 85.7033 72.7876 85.1321 72.7876ZM89.6661 70.8586V69.9802L93.5412 63.8488H94.1785V65.2095H93.7479L90.82 69.8424V69.9113H96.0385V70.8586H89.6661ZM93.8168 72.667V70.5916V70.1826V63.8488H94.8329V72.667H93.8168ZM104.162 63.8488V72.667H103.095V64.9683H103.043L100.89 66.3978V65.3128L103.095 63.8488H104.162ZM106.698 72.667V71.892L109.609 68.7057C109.951 68.3325 110.232 68.0082 110.453 67.7326C110.674 67.4542 110.838 67.193 110.944 66.949C111.053 66.7021 111.108 66.4438 111.108 66.1739C111.108 65.8639 111.033 65.5955 110.884 65.3688C110.737 65.142 110.536 64.9669 110.281 64.8435C110.025 64.72 109.738 64.6583 109.42 64.6583C109.081 64.6583 108.785 64.7286 108.533 64.8693C108.283 65.0071 108.089 65.2008 107.951 65.4506C107.817 65.7003 107.749 65.9931 107.749 66.3289H106.733C106.733 65.8123 106.852 65.3587 107.09 64.9683C107.329 64.5779 107.653 64.2737 108.063 64.0555C108.477 63.8374 108.94 63.7283 109.454 63.7283C109.971 63.7283 110.429 63.8374 110.828 64.0555C111.227 64.2737 111.54 64.5679 111.766 64.9382C111.993 65.3085 112.106 65.7204 112.106 66.1739C112.106 66.4983 112.048 66.8155 111.93 67.1255C111.815 67.4326 111.614 67.7757 111.327 68.1546C111.043 68.5306 110.648 68.9899 110.143 69.5324L108.162 71.6508V71.7197H112.261V72.667H106.698ZM117.019 72.7876C116.451 72.7876 115.944 72.69 115.499 72.4948C115.057 72.2996 114.706 72.0283 114.445 71.681C114.186 71.3308 114.046 70.9246 114.023 70.4625H115.108C115.131 70.7466 115.228 70.9921 115.4 71.1987C115.573 71.4025 115.798 71.5604 116.076 71.6724C116.355 71.7843 116.663 71.8403 117.002 71.8403C117.381 71.8403 117.717 71.7743 118.01 71.6422C118.302 71.5102 118.532 71.3265 118.699 71.0911C118.865 70.8557 118.948 70.583 118.948 70.273C118.948 69.9486 118.868 69.663 118.707 69.4162C118.546 69.1664 118.311 68.9712 118.001 68.8306C117.691 68.6899 117.312 68.6196 116.864 68.6196H116.158V67.6723H116.864C117.215 67.6723 117.522 67.6092 117.786 67.4829C118.053 67.3566 118.261 67.1786 118.41 66.949C118.562 66.7193 118.638 66.4495 118.638 66.1395C118.638 65.841 118.572 65.5812 118.44 65.3602C118.308 65.1391 118.122 64.9669 117.88 64.8435C117.642 64.72 117.361 64.6583 117.037 64.6583C116.732 64.6583 116.445 64.7143 116.175 64.8262C115.908 64.9353 115.69 65.0946 115.521 65.3042C115.352 65.5109 115.26 65.7606 115.245 66.0534H114.212C114.229 65.5912 114.368 65.1865 114.63 64.8392C114.891 64.489 115.232 64.2163 115.654 64.0211C116.079 63.8259 116.546 63.7283 117.054 63.7283C117.599 63.7283 118.067 63.8388 118.457 64.0598C118.848 64.278 119.148 64.5665 119.357 64.9253C119.567 65.2841 119.672 65.6716 119.672 66.0878C119.672 66.5844 119.541 67.0078 119.28 67.358C119.022 67.7082 118.67 67.9508 118.225 68.0857V68.1546C118.782 68.2464 119.217 68.4832 119.53 68.865C119.842 69.2439 119.999 69.7133 119.999 70.273C119.999 70.7524 119.868 71.1829 119.607 71.5647C119.349 71.9436 118.996 72.2422 118.548 72.4603C118.1 72.6785 117.591 72.7876 117.019 72.7876ZM121.553 70.8586V69.9802L125.428 63.8488H126.066V65.2095H125.635L122.707 69.8424V69.9113H127.926V70.8586H121.553ZM125.704 72.667V70.5916V70.1826V63.8488H126.72V72.667H125.704ZM136.05 63.8488V72.667H134.982V64.9683H134.93L132.777 66.3978V65.3128L134.982 63.8488H136.05ZM138.586 72.667V71.892L141.496 68.7057C141.838 68.3325 142.119 68.0082 142.34 67.7326C142.561 67.4542 142.725 67.193 142.831 66.949C142.94 66.7021 142.995 66.4438 142.995 66.1739C142.995 65.8639 142.92 65.5955 142.771 65.3688C142.624 65.142 142.424 64.9669 142.168 64.8435C141.913 64.72 141.626 64.6583 141.307 64.6583C140.968 64.6583 140.673 64.7286 140.42 64.8693C140.17 65.0071 139.976 65.2008 139.839 65.4506C139.704 65.7003 139.636 65.9931 139.636 66.3289H138.62C138.62 65.8123 138.739 65.3587 138.978 64.9683C139.216 64.5779 139.54 64.2737 139.951 64.0555C140.364 63.8374 140.828 63.7283 141.341 63.7283C141.858 63.7283 142.316 63.8374 142.715 64.0555C143.114 64.2737 143.427 64.5679 143.654 64.9382C143.88 65.3085 143.994 65.7204 143.994 66.1739C143.994 66.4983 143.935 66.8155 143.817 67.1255C143.702 67.4326 143.501 67.7757 143.214 68.1546C142.93 68.5306 142.536 68.9899 142.03 69.5324L140.05 71.6508V71.7197H144.149V72.667H138.586ZM148.907 72.7876C148.338 72.7876 147.832 72.69 147.387 72.4948C146.945 72.2996 146.593 72.0283 146.332 71.681C146.073 71.3308 145.933 70.9246 145.91 70.4625H146.995C147.018 70.7466 147.115 70.9921 147.288 71.1987C147.46 71.4025 147.685 71.5604 147.964 71.6724C148.242 71.7843 148.551 71.8403 148.889 71.8403C149.268 71.8403 149.604 71.7743 149.897 71.6422C150.19 71.5102 150.419 71.3265 150.586 71.0911C150.752 70.8557 150.836 70.583 150.836 70.273C150.836 69.9486 150.755 69.663 150.594 69.4162C150.434 69.1664 150.198 68.9712 149.888 68.8306C149.578 68.6899 149.199 68.6196 148.752 68.6196H148.045V67.6723H148.752C149.102 67.6723 149.409 67.6092 149.673 67.4829C149.94 67.3566 150.148 67.1786 150.297 66.949C150.449 66.7193 150.526 66.4495 150.526 66.1395C150.526 65.841 150.46 65.5812 150.327 65.3602C150.195 65.1391 150.009 64.9669 149.768 64.8435C149.529 64.72 149.248 64.6583 148.924 64.6583C148.62 64.6583 148.332 64.7143 148.063 64.8262C147.796 64.9353 147.578 65.0946 147.408 65.3042C147.239 65.5109 147.147 65.7606 147.133 66.0534H146.099C146.116 65.5912 146.256 65.1865 146.517 64.8392C146.778 64.489 147.12 64.2163 147.542 64.0211C147.966 63.8259 148.433 63.7283 148.941 63.7283C149.486 63.7283 149.954 63.8388 150.345 64.0598C150.735 64.278 151.035 64.5665 151.245 64.9253C151.454 65.2841 151.559 65.6716 151.559 66.0878C151.559 66.5844 151.428 67.0078 151.167 67.358C150.909 67.7082 150.557 67.9508 150.112 68.0857V68.1546C150.669 68.2464 151.104 68.4832 151.417 68.865C151.73 69.2439 151.886 69.7133 151.886 70.273C151.886 70.7524 151.756 71.1829 151.494 71.5647C151.236 71.9436 150.883 72.2422 150.435 72.4603C149.987 72.6785 149.478 72.7876 148.907 72.7876ZM153.441 70.8586V69.9802L157.316 63.8488H157.953V65.2095H157.522L154.594 69.8424V69.9113H159.813V70.8586H153.441ZM157.591 72.667V70.5916V70.1826V63.8488H158.607V72.667H157.591Z" fill="#828282"/>
<g filter="url(#filter1_dd_2219_4847)">
<rect x="185.625" y="58.9923" width="35.6954" height="18.3494" rx="2.02083" fill="white"/>
<path d="M208.264 63.0341C206.016 63.0341 204.008 64.2001 204.008 66.3546C204.008 68.8253 207.57 68.9959 207.57 70.2371C207.57 70.7598 206.972 71.2276 205.95 71.2276C204.499 71.2276 203.415 70.5739 203.415 70.5739L202.951 72.7479C202.951 72.7479 204.2 73.3001 205.858 73.3001C208.315 73.3001 210.249 72.0768 210.249 69.8855C210.249 67.2748 206.672 67.1092 206.672 65.9571C206.672 65.5477 207.163 65.0992 208.182 65.0992C209.332 65.0992 210.27 65.5746 210.27 65.5746L210.724 63.4748C210.724 63.4748 209.703 63.0341 208.264 63.0341ZM187.701 63.1925L187.646 63.5095C187.646 63.5095 188.592 63.6827 189.444 64.0282C190.54 64.4244 190.618 64.6551 190.803 65.3715L192.815 73.1367H195.513L199.669 63.1925H196.977L194.307 69.9536L193.217 64.2226C193.117 63.5667 192.611 63.1925 191.992 63.1925H187.701ZM200.751 63.1925L198.64 73.1367H201.206L203.31 63.1925H200.751ZM215.065 63.1925C214.446 63.1925 214.118 63.5242 213.878 64.1037L210.118 73.1367H212.809L213.33 71.6312H216.609L216.925 73.1367H219.3L217.228 63.1925H215.065ZM215.415 65.8791L216.213 69.6107H214.076L215.415 65.8791Z" fill="#1434CB"/>
</g>
<rect x="229.404" y="57.4557" width="29.6235" height="21.4224" rx="2.02083" fill="#3C2511"/>
<path d="M247.129 62.9232H241.305V73.4104H247.129V62.9232Z" fill="#FF5F00"/>
<path d="M241.672 68.1668C241.671 67.1569 241.9 66.1599 242.34 65.2514C242.781 64.343 243.421 63.5468 244.214 62.9233C243.232 62.1499 242.053 61.669 240.812 61.5354C239.57 61.4019 238.316 61.6211 237.192 62.168C236.069 62.715 235.122 63.5676 234.459 64.6284C233.797 65.6892 233.445 66.9154 233.445 68.1668C233.445 69.4183 233.797 70.6445 234.459 71.7053C235.122 72.7661 236.069 73.6187 237.192 74.1657C238.316 74.7126 239.57 74.9318 240.812 74.7983C242.053 74.6647 243.232 74.1838 244.214 73.4104C243.421 72.7869 242.781 71.9907 242.34 71.0822C241.9 70.1738 241.671 69.1768 241.672 68.1668Z" fill="#EB001B"/>
<path d="M254.986 68.1668C254.986 69.4183 254.634 70.6445 253.972 71.7053C253.309 72.7661 252.362 73.6187 251.239 74.1656C250.116 74.7126 248.861 74.9318 247.62 74.7983C246.378 74.6647 245.199 74.1838 244.217 73.4104C245.009 72.7862 245.649 71.99 246.09 71.0816C246.53 70.1733 246.759 69.1767 246.759 68.1668C246.759 67.157 246.53 66.1604 246.09 65.252C245.649 64.3437 245.009 63.5475 244.217 62.9233C245.199 62.1499 246.378 61.669 247.62 61.5354C248.861 61.4019 250.116 61.6211 251.239 62.168C252.362 62.715 253.309 63.5676 253.972 64.6284C254.634 65.6892 254.986 66.9154 254.986 68.1668Z" fill="#F79E1B"/>
<path d="M254.348 72.2996V72.0849H254.435V72.0412H254.215V72.0849H254.301V72.2996H254.348ZM254.776 72.2996V72.0408H254.708L254.631 72.2188L254.553 72.0408H254.486V72.2996H254.533V72.1044L254.606 72.2727H254.655L254.728 72.1039V72.2996H254.776Z" fill="#F79E1B"/>
<g clip-path="url(#clip0_2219_4847)">
<path d="M267.111 78.9175H288.612V57.4163H267.111V78.9175Z" fill="#006FCF"/>
<path d="M274.902 75.5149L283.404 75.533L284.739 74.0434L286.084 75.5273H288.615V73.354L287.03 71.6448L288.615 69.9512V67.823L274.902 67.8107V75.5149Z" fill="white"/>
<path fill-rule="evenodd" clip-rule="evenodd" d="M275.814 74.6708V68.659H280.912V70.0439H277.465V70.984H280.83V72.3459H277.465V73.2692H280.912V74.6708L275.814 74.6708Z" fill="#006FCF"/>
<path d="M286.52 68.6591L284.791 70.5646L283.068 68.6591H280.885L283.705 71.6615L280.885 74.6708H283.009L284.745 72.7463L286.499 74.6708H288.609V74.5854L285.849 71.6615L288.609 68.7065V68.6591H286.52Z" fill="#006FCF"/>
<path d="M285.498 60.9727L284.792 62.9477L284.088 60.9727H280.008V63.6088L278.847 60.9727H275.541L272.146 68.6769H288.614V60.9727H285.498Z" fill="white"/>
<path fill-rule="evenodd" clip-rule="evenodd" d="M276.395 65.2659L277.195 63.3538L277.994 65.2659H276.395ZM276.165 61.8101L273.498 67.8168H275.328L275.831 66.614H278.558L279.06 67.8168H280.935L278.279 61.8101H276.165Z" fill="#006FCF"/>
<path d="M280.912 67.8151L282.53 67.8151V63.6891L284.064 67.8151H285.518L287.021 63.7031V67.8291L288.614 67.8151V61.8085H286.139L284.807 65.5101L283.484 61.8173L280.912 61.8085V67.8151Z" fill="#006FCF"/>
</g>
</g>
<path d="M318.148 41.5005V31.2126H324.357V32.3178H319.394V35.7939H324.036V36.8991H319.394V40.3953H324.437V41.5005H318.148ZM327.326 33.7846L329.174 36.9393L331.023 33.7846H332.389L329.898 37.6425L332.389 41.5005H331.023L329.174 38.5066L327.326 41.5005H325.959L328.411 37.6425L325.959 33.7846H327.326ZM334.081 44.3939V33.7846H335.226V35.0103H335.367C335.454 34.8763 335.575 34.7056 335.729 34.4979C335.886 34.2869 336.11 34.0994 336.402 33.9353C336.696 33.7679 337.095 33.6841 337.597 33.6841C338.247 33.6841 338.82 33.8466 339.315 34.1714C339.811 34.4962 340.198 34.9567 340.476 35.5528C340.754 36.1489 340.893 36.8522 340.893 37.6626C340.893 38.4798 340.754 39.1881 340.476 39.7875C340.198 40.3836 339.813 40.8458 339.32 41.174C338.828 41.4988 338.26 41.6612 337.617 41.6612C337.122 41.6612 336.725 41.5792 336.427 41.4151C336.129 41.2476 335.899 41.0584 335.739 40.8475C335.578 40.6331 335.454 40.4556 335.367 40.315H335.266V44.3939H334.081ZM335.246 37.6425C335.246 38.2253 335.332 38.7393 335.503 39.1847C335.673 39.6268 335.923 39.9734 336.251 40.2246C336.579 40.4724 336.981 40.5963 337.457 40.5963C337.952 40.5963 338.366 40.4657 338.697 40.2045C339.032 39.9399 339.284 39.5849 339.451 39.1395C339.622 38.6908 339.707 38.1918 339.707 37.6425C339.707 37.1 339.623 36.6111 339.456 36.1757C339.292 35.737 339.042 35.3904 338.708 35.1359C338.376 34.878 337.959 34.7491 337.457 34.7491C336.974 34.7491 336.569 34.8713 336.241 35.1158C335.913 35.3569 335.665 35.6952 335.498 36.1305C335.33 36.5625 335.246 37.0665 335.246 37.6425ZM342.701 41.5005V33.7846H343.887V41.5005H342.701ZM343.304 32.4986C343.073 32.4986 342.874 32.4199 342.706 32.2625C342.542 32.1051 342.46 31.9159 342.46 31.6949C342.46 31.4739 342.542 31.2846 342.706 31.1272C342.874 30.9698 343.073 30.8911 343.304 30.8911C343.535 30.8911 343.733 30.9698 343.897 31.1272C344.064 31.2846 344.148 31.4739 344.148 31.6949C344.148 31.9159 344.064 32.1051 343.897 32.2625C343.733 32.4199 343.535 32.4986 343.304 32.4986ZM346.058 41.5005V33.7846H347.203V34.95H347.284C347.424 34.5682 347.679 34.2585 348.047 34.0207C348.416 33.7829 348.831 33.664 349.293 33.664C349.38 33.664 349.489 33.6657 349.619 33.6691C349.75 33.6724 349.849 33.6774 349.916 33.6841V34.8897C349.876 34.8797 349.784 34.8646 349.64 34.8445C349.499 34.8211 349.35 34.8094 349.193 34.8094C348.817 34.8094 348.483 34.8881 348.188 35.0455C347.896 35.1995 347.665 35.4138 347.495 35.6885C347.327 35.9597 347.243 36.2695 347.243 36.6178V41.5005H346.058ZM353.592 41.6813C353.103 41.6813 352.659 41.5892 352.261 41.405C351.862 41.2175 351.546 40.9479 351.311 40.5963C351.077 40.2413 350.959 39.8126 350.959 39.3103C350.959 38.8682 351.047 38.5099 351.221 38.2353C351.395 37.9573 351.628 37.7397 351.919 37.5823C352.21 37.4249 352.532 37.3077 352.883 37.2306C353.238 37.1503 353.595 37.0866 353.953 37.0397C354.422 36.9795 354.802 36.9343 355.094 36.9041C355.388 36.8706 355.603 36.8154 355.737 36.7383C355.874 36.6613 355.943 36.5274 355.943 36.3365V36.2963C355.943 35.8006 355.807 35.4155 355.536 35.1409C355.268 34.8663 354.861 34.729 354.315 34.729C353.749 34.729 353.305 34.8529 352.984 35.1007C352.662 35.3485 352.436 35.6131 352.306 35.8944L351.181 35.4925C351.381 35.0237 351.649 34.6587 351.984 34.3975C352.322 34.1329 352.691 33.9487 353.089 33.8449C353.491 33.7377 353.886 33.6841 354.275 33.6841C354.523 33.6841 354.807 33.7143 355.129 33.7746C355.454 33.8315 355.767 33.9504 356.068 34.1312C356.373 34.3121 356.626 34.585 356.827 34.95C357.028 35.3151 357.128 35.804 357.128 36.4168V41.5005H355.943V40.4556H355.882C355.802 40.6231 355.668 40.8022 355.481 40.9931C355.293 41.184 355.043 41.3464 354.732 41.4804C354.421 41.6144 354.04 41.6813 353.592 41.6813ZM353.773 40.6164C354.241 40.6164 354.637 40.5243 354.958 40.3401C355.283 40.1559 355.527 39.9181 355.691 39.6268C355.859 39.3354 355.943 39.029 355.943 38.7075V37.6225C355.892 37.6827 355.782 37.738 355.611 37.7882C355.444 37.8351 355.249 37.877 355.028 37.9138C354.811 37.9473 354.598 37.9774 354.39 38.0042C354.186 38.0277 354.02 38.0478 353.893 38.0645C353.585 38.1047 353.297 38.17 353.029 38.2604C352.765 38.3475 352.55 38.4798 352.386 38.6573C352.225 38.8314 352.145 39.0692 352.145 39.3706C352.145 39.7825 352.297 40.0939 352.602 40.3049C352.91 40.5126 353.3 40.6164 353.773 40.6164ZM362.648 33.7846V34.7893H358.649V33.7846H362.648ZM359.814 31.936H361V39.2902C361 39.6251 361.048 39.8763 361.146 40.0437C361.246 40.2078 361.373 40.3183 361.527 40.3753C361.685 40.4288 361.851 40.4556 362.025 40.4556C362.155 40.4556 362.262 40.4489 362.346 40.4355C362.43 40.4188 362.497 40.4054 362.547 40.3953L362.788 41.4603C362.708 41.4904 362.596 41.5206 362.452 41.5507C362.308 41.5842 362.125 41.601 361.904 41.601C361.569 41.601 361.241 41.529 360.92 41.385C360.601 41.2409 360.337 41.0216 360.126 40.7269C359.918 40.4322 359.814 40.0605 359.814 39.6117V31.936ZM364.431 41.5005V33.7846H365.616V41.5005H364.431ZM365.034 32.4986C364.803 32.4986 364.603 32.4199 364.436 32.2625C364.272 32.1051 364.19 31.9159 364.19 31.6949C364.19 31.4739 364.272 31.2846 364.436 31.1272C364.603 30.9698 364.803 30.8911 365.034 30.8911C365.265 30.8911 365.462 30.9698 365.626 31.1272C365.794 31.2846 365.878 31.4739 365.878 31.6949C365.878 31.9159 365.794 32.1051 365.626 32.2625C365.462 32.4199 365.265 32.4986 365.034 32.4986ZM370.922 41.6612C370.226 41.6612 369.615 41.4955 369.089 41.1639C368.566 40.8324 368.158 40.3686 367.863 39.7725C367.572 39.1763 367.426 38.4798 367.426 37.6827C367.426 36.879 367.572 36.1774 367.863 35.5779C368.158 34.9785 368.566 34.513 369.089 34.1815C369.615 33.8499 370.226 33.6841 370.922 33.6841C371.619 33.6841 372.228 33.8499 372.751 34.1815C373.277 34.513 373.685 34.9785 373.977 35.5779C374.271 36.1774 374.419 36.879 374.419 37.6827C374.419 38.4798 374.271 39.1763 373.977 39.7725C373.685 40.3686 373.277 40.8324 372.751 41.1639C372.228 41.4955 371.619 41.6612 370.922 41.6612ZM370.922 40.5963C371.451 40.5963 371.887 40.4607 372.228 40.1894C372.57 39.9181 372.823 39.5615 372.987 39.1194C373.151 38.6774 373.233 38.1985 373.233 37.6827C373.233 37.167 373.151 36.6864 372.987 36.241C372.823 35.7956 372.57 35.4356 372.228 35.161C371.887 34.8864 371.451 34.7491 370.922 34.7491C370.393 34.7491 369.958 34.8864 369.616 35.161C369.275 35.4356 369.022 35.7956 368.858 36.241C368.694 36.6864 368.612 37.167 368.612 37.6827C368.612 38.1985 368.694 38.6774 368.858 39.1194C369.022 39.5615 369.275 39.9181 369.616 40.1894C369.958 40.4607 370.393 40.5963 370.922 40.5963ZM377.414 36.8589V41.5005H376.228V33.7846H377.374V34.9902H377.474C377.655 34.5984 377.929 34.2836 378.298 34.0458C378.666 33.8047 379.142 33.6841 379.725 33.6841C380.247 33.6841 380.704 33.7913 381.096 34.0056C381.488 34.2166 381.792 34.5381 382.01 34.9701C382.228 35.3988 382.337 35.9413 382.337 36.5977V41.5005H381.151V36.6781C381.151 36.0719 380.994 35.5997 380.679 35.2615C380.364 34.9199 379.932 34.7491 379.383 34.7491C379.004 34.7491 378.666 34.8311 378.368 34.9952C378.073 35.1593 377.841 35.3988 377.67 35.7136C377.499 36.0284 377.414 36.4101 377.414 36.8589Z" fill="#333333"/>
<g filter="url(#filter2_d_2219_4847)">
<rect x="316.902" y="52.5837" width="96.9997" height="31.1666" rx="4.04165" fill="white"/>
<path d="M330.095 63.8488H331.37L334.366 71.1686H334.47L337.467 63.8488H338.741V72.667H337.742V65.9673H337.656L334.9 72.667H333.936L331.18 65.9673H331.094V72.667H330.095V63.8488ZM340.882 63.8488H342.157L345.153 71.1686H345.257L348.254 63.8488H349.528V72.667H348.529V65.9673H348.443L345.687 72.667H344.723L341.967 65.9673H341.881V72.667H340.882V63.8488ZM358.059 63.4355L355.217 73.9932H354.287L357.129 63.4355H358.059ZM362.053 63.8488H363.276L365.722 67.9651H365.825L368.271 63.8488H369.494L366.308 69.0329V72.667H365.24V69.0329L362.053 63.8488ZM370.117 63.8488H371.34L373.786 67.9651H373.889L376.334 63.8488H377.557L374.371 69.0329V72.667H373.303V69.0329L370.117 63.8488Z" fill="#828282"/>
</g>
<path d="M33.7743 110.095H32.5285C32.4548 109.736 32.3259 109.422 32.1417 109.15C31.9609 108.879 31.7398 108.651 31.4786 108.467C31.2208 108.28 30.9344 108.139 30.6196 108.045C30.3048 107.951 29.9766 107.905 29.635 107.905C29.0121 107.905 28.4479 108.062 27.9422 108.377C27.4398 108.692 27.0396 109.155 26.7416 109.768C26.4469 110.381 26.2995 111.133 26.2995 112.024C26.2995 112.914 26.4469 113.666 26.7416 114.279C27.0396 114.892 27.4398 115.356 27.9422 115.671C28.4479 115.985 29.0121 116.143 29.635 116.143C29.9766 116.143 30.3048 116.096 30.6196 116.002C30.9344 115.908 31.2208 115.769 31.4786 115.585C31.7398 115.398 31.9609 115.168 32.1417 114.897C32.3259 114.622 32.4548 114.308 32.5285 113.953H33.7743C33.6805 114.478 33.5097 114.949 33.2619 115.364C33.0141 115.779 32.706 116.133 32.3376 116.424C31.9692 116.712 31.5556 116.932 31.0968 117.082C30.6414 117.233 30.1541 117.308 29.635 117.308C28.7576 117.308 27.9773 117.094 27.2942 116.665C26.611 116.237 26.0735 115.627 25.6817 114.837C25.2898 114.046 25.0939 113.109 25.0939 112.024C25.0939 110.939 25.2898 110.001 25.6817 109.211C26.0735 108.42 26.611 107.811 27.2942 107.382C27.9773 106.953 28.7576 106.739 29.635 106.739C30.1541 106.739 30.6414 106.814 31.0968 106.965C31.5556 107.116 31.9692 107.337 32.3376 107.628C32.706 107.916 33.0141 108.268 33.2619 108.683C33.5097 109.095 33.6805 109.566 33.7743 110.095ZM36.2094 106.88L39.2636 115.54H39.3841L42.4383 106.88H43.7444L39.9668 117.168H38.6809L34.9033 106.88H36.2094ZM53.1419 110.095H51.8961C51.8224 109.736 51.6935 109.422 51.5093 109.15C51.3284 108.879 51.1074 108.651 50.8462 108.467C50.5883 108.28 50.302 108.139 49.9872 108.045C49.6724 107.951 49.3442 107.905 49.0026 107.905C48.3797 107.905 47.8154 108.062 47.3097 108.377C46.8074 108.692 46.4072 109.155 46.1092 109.768C45.8145 110.381 45.6671 111.133 45.6671 112.024C45.6671 112.914 45.8145 113.666 46.1092 114.279C46.4072 114.892 46.8074 115.356 47.3097 115.671C47.8154 115.985 48.3797 116.143 49.0026 116.143C49.3442 116.143 49.6724 116.096 49.9872 116.002C50.302 115.908 50.5883 115.769 50.8462 115.585C51.1074 115.398 51.3284 115.168 51.5093 114.897C51.6935 114.622 51.8224 114.308 51.8961 113.953H53.1419C53.0481 114.478 52.8773 114.949 52.6295 115.364C52.3817 115.779 52.0736 116.133 51.7052 116.424C51.3368 116.712 50.9232 116.932 50.4644 117.082C50.009 117.233 49.5217 117.308 49.0026 117.308C48.1252 117.308 47.3449 117.094 46.6617 116.665C45.9785 116.237 45.441 115.627 45.0492 114.837C44.6574 114.046 44.4615 113.109 44.4615 112.024C44.4615 110.939 44.6574 110.001 45.0492 109.211C45.441 108.42 45.9785 107.811 46.6617 107.382C47.3449 106.953 48.1252 106.739 49.0026 106.739C49.5217 106.739 50.009 106.814 50.4644 106.965C50.9232 107.116 51.3368 107.337 51.7052 107.628C52.0736 107.916 52.3817 108.268 52.6295 108.683C52.8773 109.095 53.0481 109.566 53.1419 110.095Z" fill="#333333"/>
<g filter="url(#filter3_d_2219_4847)">
<rect x="24.25" y="128.251" width="96.9997" height="31.1666" rx="4.04165" fill="white"/>
<path d="M44.5387 142.272H43.4709C43.4077 141.965 43.2972 141.695 43.1393 141.462C42.9843 141.23 42.7949 141.035 42.571 140.877C42.3499 140.716 42.1045 140.595 41.8347 140.515C41.5649 140.435 41.2835 140.394 40.9908 140.394C40.4568 140.394 39.9732 140.529 39.5397 140.799C39.1091 141.069 38.7661 141.467 38.5106 141.992C38.258 142.517 38.1317 143.162 38.1317 143.925C38.1317 144.689 38.258 145.333 38.5106 145.858C38.7661 146.384 39.1091 146.781 39.5397 147.051C39.9732 147.321 40.4568 147.456 40.9908 147.456C41.2835 147.456 41.5649 147.416 41.8347 147.335C42.1045 147.255 42.3499 147.136 42.571 146.978C42.7949 146.817 42.9843 146.621 43.1393 146.388C43.2972 146.153 43.4077 145.883 43.4709 145.579H44.5387C44.4583 146.029 44.3119 146.433 44.0995 146.788C43.8871 147.144 43.623 147.447 43.3072 147.697C42.9915 147.944 42.637 148.132 42.2437 148.261C41.8533 148.39 41.4357 148.455 40.9908 148.455C40.2387 148.455 39.5699 148.271 38.9843 147.904C38.3987 147.536 37.938 147.014 37.6021 146.336C37.2663 145.659 37.0984 144.855 37.0984 143.925C37.0984 142.995 37.2663 142.191 37.6021 141.514C37.938 140.837 38.3987 140.314 38.9843 139.947C39.5699 139.579 40.2387 139.396 40.9908 139.396C41.4357 139.396 41.8533 139.46 42.2437 139.589C42.637 139.718 42.9915 139.908 43.3072 140.158C43.623 140.404 43.8871 140.706 44.0995 141.062C44.3119 141.415 44.4583 141.818 44.5387 142.272ZM46.6259 139.516L49.2438 146.939H49.3471L51.965 139.516H53.0845L49.8466 148.334H48.7443L45.5064 139.516H46.6259ZM61.1395 142.272H60.0716C60.0085 141.965 59.898 141.695 59.7401 141.462C59.5851 141.23 59.3956 141.035 59.1717 140.877C58.9507 140.716 58.7053 140.595 58.4355 140.515C58.1656 140.435 57.8843 140.394 57.5915 140.394C57.0576 140.394 56.5739 140.529 56.1405 140.799C55.7099 141.069 55.3669 141.467 55.1114 141.992C54.8588 142.517 54.7325 143.162 54.7325 143.925C54.7325 144.689 54.8588 145.333 55.1114 145.858C55.3669 146.384 55.7099 146.781 56.1405 147.051C56.5739 147.321 57.0576 147.456 57.5915 147.456C57.8843 147.456 58.1656 147.416 58.4355 147.335C58.7053 147.255 58.9507 147.136 59.1717 146.978C59.3956 146.817 59.5851 146.621 59.7401 146.388C59.898 146.153 60.0085 145.883 60.0716 145.579H61.1395C61.0591 146.029 60.9127 146.433 60.7003 146.788C60.4879 147.144 60.2238 147.447 59.908 147.697C59.5923 147.944 59.2378 148.132 58.8445 148.261C58.4541 148.39 58.0365 148.455 57.5915 148.455C56.8395 148.455 56.1706 148.271 55.5851 147.904C54.9995 147.536 54.5388 147.014 54.2029 146.336C53.8671 145.659 53.6991 144.855 53.6991 143.925C53.6991 142.995 53.8671 142.191 54.2029 141.514C54.5388 140.837 54.9995 140.314 55.5851 139.947C56.1706 139.579 56.8395 139.396 57.5915 139.396C58.0365 139.396 58.4541 139.46 58.8445 139.589C59.2378 139.718 59.5923 139.908 59.908 140.158C60.2238 140.404 60.4879 140.706 60.7003 141.062C60.9127 141.415 61.0591 141.818 61.1395 142.272Z" fill="#828282"/>
</g>
<path d="M146.94 110.095H145.695C145.621 109.736 145.492 109.422 145.308 109.15C145.127 108.879 144.906 108.651 144.645 108.467C144.387 108.28 144.1 108.139 143.786 108.045C143.471 107.951 143.143 107.905 142.801 107.905C142.178 107.905 141.614 108.062 141.108 108.377C140.606 108.692 140.206 109.155 139.908 109.768C139.613 110.381 139.466 111.133 139.466 112.024C139.466 112.914 139.613 113.666 139.908 114.279C140.206 114.892 140.606 115.356 141.108 115.671C141.614 115.985 142.178 116.143 142.801 116.143C143.143 116.143 143.471 116.096 143.786 116.002C144.1 115.908 144.387 115.769 144.645 115.585C144.906 115.398 145.127 115.168 145.308 114.897C145.492 114.622 145.621 114.308 145.695 113.953H146.94C146.847 114.478 146.676 114.949 146.428 115.364C146.18 115.779 145.872 116.133 145.504 116.424C145.135 116.712 144.722 116.932 144.263 117.082C143.807 117.233 143.32 117.308 142.801 117.308C141.924 117.308 141.143 117.094 140.46 116.665C139.777 116.237 139.239 115.627 138.848 114.837C138.456 114.046 138.26 113.109 138.26 112.024C138.26 110.939 138.456 110.001 138.848 109.211C139.239 108.42 139.777 107.811 140.46 107.382C141.143 106.953 141.924 106.739 142.801 106.739C143.32 106.739 143.807 106.814 144.263 106.965C144.722 107.116 145.135 107.337 145.504 107.628C145.872 107.916 146.18 108.268 146.428 108.683C146.676 109.095 146.847 109.566 146.94 110.095ZM151.927 117.328C151.231 117.328 150.62 117.163 150.094 116.831C149.571 116.499 149.163 116.036 148.868 115.44C148.577 114.843 148.431 114.147 148.431 113.35C148.431 112.546 148.577 111.845 148.868 111.245C149.163 110.646 149.571 110.18 150.094 109.849C150.62 109.517 151.231 109.351 151.927 109.351C152.624 109.351 153.233 109.517 153.756 109.849C154.282 110.18 154.69 110.646 154.981 111.245C155.276 111.845 155.424 112.546 155.424 113.35C155.424 114.147 155.276 114.843 154.981 115.44C154.69 116.036 154.282 116.499 153.756 116.831C153.233 117.163 152.624 117.328 151.927 117.328ZM151.927 116.263C152.456 116.263 152.892 116.128 153.233 115.857C153.575 115.585 153.828 115.229 153.992 114.787C154.156 114.344 154.238 113.866 154.238 113.35C154.238 112.834 154.156 112.354 153.992 111.908C153.828 111.463 153.575 111.103 153.233 110.828C152.892 110.554 152.456 110.416 151.927 110.416C151.398 110.416 150.963 110.554 150.621 110.828C150.28 111.103 150.027 111.463 149.863 111.908C149.699 112.354 149.617 112.834 149.617 113.35C149.617 113.866 149.699 114.344 149.863 114.787C150.027 115.229 150.28 115.585 150.621 115.857C150.963 116.128 151.398 116.263 151.927 116.263ZM162.096 114.013V109.452H163.281V117.168H162.096V115.862H162.015C161.835 116.253 161.553 116.587 161.171 116.861C160.79 117.132 160.307 117.268 159.725 117.268C159.243 117.268 158.814 117.163 158.439 116.952C158.064 116.737 157.769 116.416 157.555 115.987C157.34 115.555 157.233 115.011 157.233 114.355V109.452H158.419V114.274C158.419 114.837 158.576 115.286 158.891 115.62C159.209 115.955 159.614 116.123 160.107 116.123C160.401 116.123 160.701 116.047 161.006 115.897C161.314 115.746 161.572 115.515 161.779 115.203C161.99 114.892 162.096 114.495 162.096 114.013ZM166.638 112.526V117.168H165.453V109.452H166.598V110.657H166.698C166.879 110.266 167.154 109.951 167.522 109.713C167.891 109.472 168.366 109.351 168.949 109.351C169.471 109.351 169.928 109.458 170.32 109.673C170.712 109.884 171.017 110.205 171.235 110.637C171.452 111.066 171.561 111.608 171.561 112.265V117.168H170.376V112.345C170.376 111.739 170.218 111.267 169.903 110.929C169.589 110.587 169.157 110.416 168.607 110.416C168.229 110.416 167.891 110.498 167.593 110.662C167.298 110.826 167.065 111.066 166.894 111.381C166.724 111.695 166.638 112.077 166.638 112.526ZM177.083 109.452V110.456H173.084V109.452H177.083ZM174.25 107.603H175.435V114.957C175.435 115.292 175.484 115.543 175.581 115.711C175.681 115.875 175.809 115.985 175.963 116.042C176.12 116.096 176.286 116.123 176.46 116.123C176.591 116.123 176.698 116.116 176.782 116.103C176.865 116.086 176.932 116.073 176.983 116.062L177.224 117.127C177.143 117.158 177.031 117.188 176.887 117.218C176.743 117.251 176.561 117.268 176.34 117.268C176.005 117.268 175.676 117.196 175.355 117.052C175.037 116.908 174.772 116.689 174.561 116.394C174.354 116.099 174.25 115.728 174.25 115.279V107.603ZM178.866 117.168V109.452H180.012V110.617H180.092C180.233 110.235 180.487 109.926 180.856 109.688C181.224 109.45 181.639 109.331 182.101 109.331C182.188 109.331 182.297 109.333 182.428 109.336C182.558 109.34 182.657 109.345 182.724 109.351V110.557C182.684 110.547 182.592 110.532 182.448 110.512C182.307 110.488 182.158 110.476 182.001 110.476C181.626 110.476 181.291 110.555 180.996 110.713C180.705 110.867 180.474 111.081 180.303 111.356C180.136 111.627 180.052 111.937 180.052 112.285V117.168H178.866ZM185.128 120.061C184.927 120.061 184.748 120.044 184.59 120.011C184.433 119.981 184.324 119.951 184.264 119.92L184.565 118.876C184.853 118.949 185.108 118.976 185.329 118.956C185.55 118.936 185.746 118.837 185.917 118.66C186.091 118.485 186.25 118.202 186.394 117.811L186.615 117.208L183.762 109.452H185.048L187.177 115.6H187.258L189.388 109.452H190.674L187.398 118.293C187.251 118.691 187.069 119.021 186.851 119.282C186.633 119.547 186.38 119.743 186.092 119.87C185.808 119.997 185.486 120.061 185.128 120.061Z" fill="#333333"/>
<g filter="url(#filter4_d_2219_4847)">
<rect x="137.416" y="128.251" width="154.593" height="31.3228" rx="4.04165" fill="white"/>
<path d="M151.677 139.594V148.412H150.609V139.594H151.677ZM154.696 144.434V148.412H153.68V141.799H154.662V142.832H154.748C154.903 142.496 155.138 142.226 155.454 142.023C155.77 141.816 156.177 141.713 156.677 141.713C157.124 141.713 157.516 141.804 157.852 141.988C158.188 142.169 158.449 142.444 158.636 142.815C158.822 143.182 158.916 143.647 158.916 144.21V148.412H157.9V144.279C157.9 143.759 157.765 143.354 157.495 143.065C157.225 142.772 156.855 142.625 156.384 142.625C156.06 142.625 155.77 142.696 155.514 142.836C155.262 142.977 155.062 143.182 154.916 143.452C154.769 143.722 154.696 144.049 154.696 144.434ZM163.27 148.55C162.719 148.55 162.232 148.411 161.81 148.132C161.388 147.851 161.058 147.455 160.82 146.944C160.582 146.43 160.463 145.823 160.463 145.123C160.463 144.428 160.582 143.825 160.82 143.314C161.058 142.803 161.39 142.409 161.815 142.13C162.239 141.852 162.73 141.713 163.287 141.713C163.718 141.713 164.058 141.784 164.308 141.928C164.56 142.068 164.752 142.229 164.885 142.41C165.019 142.588 165.124 142.734 165.199 142.849H165.285V139.594H166.301V148.412H165.319V147.396H165.199C165.124 147.517 165.018 147.669 164.88 147.852C164.742 148.033 164.546 148.196 164.29 148.339C164.035 148.48 163.695 148.55 163.27 148.55ZM163.408 147.637C163.815 147.637 164.16 147.531 164.441 147.319C164.722 147.103 164.936 146.806 165.083 146.427C165.229 146.046 165.302 145.605 165.302 145.105C165.302 144.612 165.23 144.18 165.087 143.809C164.943 143.436 164.731 143.146 164.45 142.94C164.168 142.73 163.821 142.625 163.408 142.625C162.977 142.625 162.618 142.736 162.331 142.957C162.047 143.175 161.833 143.472 161.69 143.848C161.549 144.221 161.479 144.64 161.479 145.105C161.479 145.576 161.55 146.004 161.694 146.389C161.84 146.77 162.056 147.075 162.34 147.301C162.627 147.525 162.983 147.637 163.408 147.637ZM168.303 148.412V141.799H169.319V148.412H168.303ZM168.82 140.696C168.622 140.696 168.451 140.629 168.308 140.494C168.167 140.359 168.097 140.197 168.097 140.007C168.097 139.818 168.167 139.656 168.308 139.521C168.451 139.386 168.622 139.319 168.82 139.319C169.018 139.319 169.187 139.386 169.328 139.521C169.472 139.656 169.543 139.818 169.543 140.007C169.543 140.197 169.472 140.359 169.328 140.494C169.187 140.629 169.018 140.696 168.82 140.696ZM173.127 148.567C172.708 148.567 172.327 148.488 171.986 148.33C171.644 148.17 171.373 147.939 171.172 147.637C170.971 147.333 170.871 146.966 170.871 146.535C170.871 146.156 170.945 145.849 171.094 145.614C171.244 145.375 171.443 145.189 171.693 145.054C171.943 144.919 172.218 144.818 172.52 144.752C172.824 144.683 173.13 144.629 173.437 144.589C173.839 144.537 174.164 144.498 174.414 144.472C174.667 144.444 174.851 144.396 174.965 144.33C175.083 144.264 175.142 144.15 175.142 143.986V143.951C175.142 143.527 175.026 143.197 174.793 142.961C174.563 142.726 174.215 142.608 173.747 142.608C173.262 142.608 172.881 142.714 172.606 142.927C172.33 143.139 172.136 143.366 172.025 143.607L171.06 143.263C171.232 142.861 171.462 142.548 171.749 142.324C172.039 142.097 172.355 141.939 172.696 141.85C173.041 141.758 173.379 141.713 173.712 141.713C173.925 141.713 174.169 141.738 174.444 141.79C174.723 141.839 174.991 141.941 175.25 142.096C175.511 142.251 175.727 142.485 175.9 142.798C176.072 143.11 176.158 143.53 176.158 144.055V148.412H175.142V147.517H175.09C175.021 147.66 174.906 147.814 174.746 147.977C174.585 148.141 174.371 148.28 174.104 148.395C173.837 148.51 173.511 148.567 173.127 148.567ZM173.282 147.654C173.684 147.654 174.022 147.575 174.298 147.418C174.576 147.26 174.786 147.056 174.927 146.806C175.07 146.556 175.142 146.294 175.142 146.018V145.088C175.099 145.14 175.004 145.187 174.858 145.23C174.714 145.27 174.548 145.306 174.358 145.338C174.172 145.367 173.989 145.392 173.811 145.415C173.636 145.436 173.494 145.453 173.385 145.467C173.121 145.502 172.874 145.558 172.645 145.635C172.418 145.71 172.234 145.823 172.093 145.975C171.956 146.124 171.887 146.328 171.887 146.587C171.887 146.94 172.017 147.207 172.279 147.387C172.543 147.565 172.877 147.654 173.282 147.654Z" fill="#828282"/>
<path d="M269.506 142.082L274.199 146.79C274.255 146.846 274.316 146.885 274.381 146.908C274.446 146.932 274.516 146.943 274.591 146.943C274.665 146.943 274.735 146.932 274.8 146.908C274.865 146.885 274.926 146.846 274.982 146.79L279.689 142.082C279.82 141.952 279.885 141.789 279.885 141.593C279.885 141.398 279.815 141.23 279.675 141.091C279.536 140.951 279.373 140.881 279.186 140.881C279 140.881 278.837 140.951 278.697 141.091L274.591 145.197L270.484 141.091C270.353 140.96 270.193 140.895 270.002 140.895C269.811 140.895 269.646 140.965 269.506 141.105C269.366 141.244 269.296 141.407 269.296 141.593C269.296 141.78 269.366 141.943 269.506 142.082Z" fill="#828282"/>
</g>
<rect x="24.25" y="175.74" width="83.2499" height="33.1666" rx="4.04165" fill="#0071DF"/>
<path d="M37.6208 197.824V187.536H41.097C41.904 187.536 42.5638 187.682 43.0762 187.973C43.5919 188.261 43.9737 188.651 44.2215 189.143C44.4693 189.636 44.5932 190.185 44.5932 190.791C44.5932 191.397 44.4693 191.948 44.2215 192.444C43.977 192.939 43.5986 193.335 43.0862 193.629C42.5738 193.921 41.9174 194.066 41.1171 194.066H38.6255V192.961H41.0769C41.6294 192.961 42.0732 192.866 42.4081 192.675C42.7429 192.484 42.9857 192.226 43.1364 191.901C43.2905 191.573 43.3675 191.203 43.3675 190.791C43.3675 190.379 43.2905 190.011 43.1364 189.686C42.9857 189.361 42.7413 189.107 42.403 188.922C42.0648 188.735 41.616 188.641 41.0568 188.641H38.8666V197.824H37.6208ZM48.7099 198.005C48.2209 198.005 47.7772 197.912 47.3787 197.728C46.9802 197.541 46.6637 197.271 46.4293 196.92C46.1948 196.565 46.0776 196.136 46.0776 195.634C46.0776 195.191 46.1647 194.833 46.3388 194.559C46.513 194.281 46.7457 194.063 47.0371 193.906C47.3284 193.748 47.6499 193.631 48.0016 193.554C48.3566 193.473 48.7132 193.41 49.0715 193.363C49.5404 193.303 49.9205 193.257 50.2118 193.227C50.5066 193.194 50.7209 193.139 50.8548 193.062C50.9921 192.985 51.0608 192.851 51.0608 192.66V192.62C51.0608 192.124 50.9252 191.739 50.6539 191.464C50.386 191.19 49.9791 191.052 49.4332 191.052C48.8673 191.052 48.4235 191.176 48.102 191.424C47.7805 191.672 47.5545 191.936 47.4239 192.218L46.2987 191.816C46.4996 191.347 46.7675 190.982 47.1024 190.721C47.4406 190.456 47.809 190.272 48.2075 190.168C48.6094 190.061 49.0046 190.007 49.393 190.007C49.6409 190.007 49.9255 190.038 50.247 190.098C50.5719 190.155 50.885 190.274 51.1864 190.454C51.4911 190.635 51.744 190.908 51.9449 191.273C52.1458 191.638 52.2463 192.127 52.2463 192.74V197.824H51.0608V196.779H51.0005C50.9201 196.946 50.7862 197.125 50.5986 197.316C50.4111 197.507 50.1616 197.67 49.8502 197.804C49.5387 197.938 49.1586 198.005 48.7099 198.005ZM48.8907 196.94C49.3596 196.94 49.7547 196.848 50.0762 196.663C50.4011 196.479 50.6455 196.241 50.8096 195.95C50.9771 195.659 51.0608 195.352 51.0608 195.031V193.946C51.0106 194.006 50.9 194.061 50.7293 194.111C50.5618 194.158 50.3676 194.2 50.1465 194.237C49.9289 194.271 49.7162 194.301 49.5086 194.327C49.3043 194.351 49.1385 194.371 49.0113 194.388C48.7032 194.428 48.4152 194.493 48.1472 194.584C47.8827 194.671 47.6684 194.803 47.5043 194.981C47.3435 195.155 47.2631 195.392 47.2631 195.694C47.2631 196.106 47.4155 196.417 47.7203 196.628C48.0284 196.836 48.4185 196.94 48.8907 196.94ZM54.8974 200.717C54.6965 200.717 54.5173 200.7 54.3599 200.667C54.2025 200.637 54.0937 200.607 54.0334 200.577L54.3348 199.532C54.6228 199.605 54.8773 199.632 55.0983 199.612C55.3194 199.592 55.5153 199.493 55.6861 199.316C55.8602 199.142 56.0193 198.859 56.1633 198.467L56.3843 197.864L53.531 190.108H54.817L56.9469 196.256H57.0273L59.1572 190.108H60.4432L57.168 198.949C57.0206 199.347 56.8381 199.677 56.6204 199.939C56.4027 200.203 56.1499 200.399 55.8619 200.526C55.5772 200.654 55.2557 200.717 54.8974 200.717ZM74.3051 187.536V197.824H73.0995L67.4935 189.746H67.393V197.824H66.1472V187.536H67.3528L72.979 195.634H73.0794V187.536H74.3051ZM79.7718 197.984C79.0752 197.984 78.4641 197.819 77.9383 197.487C77.4159 197.156 77.0073 196.692 76.7126 196.096C76.4212 195.5 76.2756 194.803 76.2756 194.006C76.2756 193.202 76.4212 192.501 76.7126 191.901C77.0073 191.302 77.4159 190.836 77.9383 190.505C78.4641 190.173 79.0752 190.007 79.7718 190.007C80.4684 190.007 81.0779 190.173 81.6003 190.505C82.1261 190.836 82.5347 191.302 82.826 191.901C83.1207 192.501 83.2681 193.202 83.2681 194.006C83.2681 194.803 83.1207 195.5 82.826 196.096C82.5347 196.692 82.1261 197.156 81.6003 197.487C81.0779 197.819 80.4684 197.984 79.7718 197.984ZM79.7718 196.92C80.3009 196.92 80.7363 196.784 81.0779 196.513C81.4195 196.241 81.6723 195.885 81.8364 195.443C82.0005 195.001 82.0826 194.522 82.0826 194.006C82.0826 193.49 82.0005 193.01 81.8364 192.564C81.6723 192.119 81.4195 191.759 81.0779 191.484C80.7363 191.21 80.3009 191.072 79.7718 191.072C79.2427 191.072 78.8073 191.21 78.4657 191.484C78.1242 191.759 77.8713 192.119 77.7072 192.564C77.5431 193.01 77.4611 193.49 77.4611 194.006C77.4611 194.522 77.5431 195.001 77.7072 195.443C77.8713 195.885 78.1242 196.241 78.4657 196.513C78.8073 196.784 79.2427 196.92 79.7718 196.92ZM86.5634 197.824L84.2125 190.108H85.4583L87.126 196.015H87.2064L88.8541 190.108H90.1199L91.7475 195.995H91.8279L93.4956 190.108H94.7414L92.3905 197.824H91.2251L89.5372 191.896H89.4167L87.7288 197.824H86.5634Z" fill="white"/>
<defs>
<filter id="filter0_d_2219_4847" x="23.2396" y="48.3227" width="278.507" height="39.6886" filterUnits="userSpaceOnUse" color-interpolation-filters="sRGB">
<feFlood flood-opacity="0" result="BackgroundImageFix"/>
<feColorMatrix in="SourceAlpha" type="matrix" values="0 0 0 0 0 0 0 0 0 0 0 0 0 0 0 0 0 0 127 0" result="hardAlpha"/>
<feMorphology radius="1.01041" operator="dilate" in="SourceAlpha" result="effect1_dropShadow_2219_4847"/>
<feOffset/>
<feComposite in2="hardAlpha" operator="out"/>
<feColorMatrix type="matrix" values="0 0 0 0 0 0 0 0 0 0 0 0 0 0 0 0 0 0 0.1 0"/>
<feBlend mode="normal" in2="BackgroundImageFix" result="effect1_dropShadow_2219_4847"/>
<feBlend mode="normal" in="SourceGraphic" in2="effect1_dropShadow_2219_4847" result="shape"/>
</filter>
<filter id="filter1_dd_2219_4847" x="183.604" y="56.9715" width="39.737" height="24.4118" filterUnits="userSpaceOnUse" color-interpolation-filters="sRGB">
<feFlood flood-opacity="0" result="BackgroundImageFix"/>
<feColorMatrix in="SourceAlpha" type="matrix" values="0 0 0 0 0 0 0 0 0 0 0 0 0 0 0 0 0 0 127 0" result="hardAlpha"/>
<feOffset dy="2.02083"/>
<feGaussianBlur stdDeviation="1.01041"/>
<feComposite in2="hardAlpha" operator="out"/>
<feColorMatrix type="matrix" values="0 0 0 0 0 0 0 0 0 0 0 0 0 0 0 0 0 0 0.05 0"/>
<feBlend mode="normal" in2="BackgroundImageFix" result="effect1_dropShadow_2219_4847"/>
<feColorMatrix in="SourceAlpha" type="matrix" values="0 0 0 0 0 0 0 0 0 0 0 0 0 0 0 0 0 0 127 0" result="hardAlpha"/>
<feOffset dy="-1.01041"/>
<feGaussianBlur stdDeviation="0.505207"/>
<feComposite in2="hardAlpha" operator="out"/>
<feColorMatrix type="matrix" values="0 0 0 0 0 0 0 0 0 0 0 0 0 0 0 0 0 0 0.02 0"/>
<feBlend mode="normal" in2="effect1_dropShadow_2219_4847" result="effect2_dropShadow_2219_4847"/>
<feBlend mode="normal" in="SourceGraphic" in2="effect2_dropShadow_2219_4847" result="shape"/>
</filter>
<filter id="filter2_d_2219_4847" x="315.892" y="51.5733" width="99.0208" height="33.1875" filterUnits="userSpaceOnUse" color-interpolation-filters="sRGB">
<feFlood flood-opacity="0" result="BackgroundImageFix"/>
<feColorMatrix in="SourceAlpha" type="matrix" values="0 0 0 0 0 0 0 0 0 0 0 0 0 0 0 0 0 0 127 0" result="hardAlpha"/>
<feMorphology radius="1.01041" operator="dilate" in="SourceAlpha" result="effect1_dropShadow_2219_4847"/>
<feOffset/>
<feComposite in2="hardAlpha" operator="out"/>
<feColorMatrix type="matrix" values="0 0 0 0 0 0 0 0 0 0 0 0 0 0 0 0 0 0 0.1 0"/>
<feBlend mode="normal" in2="BackgroundImageFix" result="effect1_dropShadow_2219_4847"/>
<feBlend mode="normal" in="SourceGraphic" in2="effect1_dropShadow_2219_4847" result="shape"/>
</filter>
<filter id="filter3_d_2219_4847" x="23.2396" y="127.24" width="99.0208" height="33.1875" filterUnits="userSpaceOnUse" color-interpolation-filters="sRGB">
<feFlood flood-opacity="0" result="BackgroundImageFix"/>
<feColorMatrix in="SourceAlpha" type="matrix" values="0 0 0 0 0 0 0 0 0 0 0 0 0 0 0 0 0 0 127 0" result="hardAlpha"/>
<feMorphology radius="1.01041" operator="dilate" in="SourceAlpha" result="effect1_dropShadow_2219_4847"/>
<feOffset/>
<feComposite in2="hardAlpha" operator="out"/>
<feColorMatrix type="matrix" values="0 0 0 0 0 0 0 0 0 0 0 0 0 0 0 0 0 0 0.1 0"/>
<feBlend mode="normal" in2="BackgroundImageFix" result="effect1_dropShadow_2219_4847"/>
<feBlend mode="normal" in="SourceGraphic" in2="effect1_dropShadow_2219_4847" result="shape"/>
</filter>
<filter id="filter4_d_2219_4847" x="136.406" y="127.24" width="156.615" height="33.3437" filterUnits="userSpaceOnUse" color-interpolation-filters="sRGB">
<feFlood flood-opacity="0" result="BackgroundImageFix"/>
<feColorMatrix in="SourceAlpha" type="matrix" values="0 0 0 0 0 0 0 0 0 0 0 0 0 0 0 0 0 0 127 0" result="hardAlpha"/>
<feMorphology radius="1.01041" operator="dilate" in="SourceAlpha" result="effect1_dropShadow_2219_4847"/>
<feOffset/>
<feComposite in2="hardAlpha" operator="out"/>
<feColorMatrix type="matrix" values="0 0 0 0 0 0 0 0 0 0 0 0 0 0 0 0 0 0 0.1 0"/>
<feBlend mode="normal" in2="BackgroundImageFix" result="effect1_dropShadow_2219_4847"/>
<feBlend mode="normal" in="SourceGraphic" in2="effect1_dropShadow_2219_4847" result="shape"/>
</filter>
<clipPath id="clip0_2219_4847">
<rect x="267.111" y="57.4164" width="21.5011" height="21.5011" rx="2.82936" fill="white"/>
</clipPath>
</defs>
</svg>
