<svg width="484" height="280" viewBox="0 0 484 280" fill="none" xmlns="http://www.w3.org/2000/svg">
<path fill-rule="evenodd" clip-rule="evenodd" d="M230.939 16.0019C336.527 15.6433 395.547 66.4385 428.473 113.632C461.818 161.425 479.221 219.005 393.595 249.135C305.517 280.127 183.343 262.542 97.9266 229.943C26.1568 202.552 16.0495 156.671 41.9922 114.944C71.2405 67.9005 126.745 16.3557 230.939 16.0019Z" fill="#FCF7FF"/>
<g filter="url(#filter0_dd_5186_13117)">
<rect x="67" y="55" width="360" height="169.652" rx="4.82817" fill="white" shape-rendering="crispEdges"/>
<path d="M97.5805 78.2897V85.3125H96.6066L93.0369 80.162H92.9718V85.3125H91.9122V78.2897H92.8929L96.466 83.4471H96.5312V78.2897H97.5805ZM102.38 83.1282V80.0454H103.409V85.3125H102.401V84.4004H102.346C102.225 84.6815 102.031 84.9159 101.763 85.1033C101.498 85.2885 101.168 85.3811 100.772 85.3811C100.434 85.3811 100.134 85.3068 99.8737 85.1582C99.6154 85.0073 99.4119 84.7844 99.2633 84.4895C99.117 84.1946 99.0438 83.83 99.0438 83.3956V80.0454H100.069V83.2722C100.069 83.6311 100.169 83.9169 100.367 84.1295C100.566 84.3421 100.825 84.4484 101.142 84.4484C101.334 84.4484 101.525 84.4004 101.715 84.3043C101.907 84.2083 102.066 84.0632 102.192 83.8688C102.32 83.6745 102.383 83.4276 102.38 83.1282ZM104.787 85.3125V80.0454H105.771V80.9027H105.836C105.946 80.6123 106.125 80.386 106.374 80.2237C106.624 80.0591 106.922 79.9768 107.269 79.9768C107.621 79.9768 107.916 80.0591 108.154 80.2237C108.394 80.3883 108.571 80.6146 108.686 80.9027H108.74C108.866 80.6215 109.066 80.3975 109.341 80.2306C109.615 80.0614 109.942 79.9768 110.321 79.9768C110.799 79.9768 111.189 80.1266 111.491 80.426C111.795 80.7255 111.947 81.177 111.947 81.7805V85.3125H110.921V81.8765C110.921 81.5199 110.824 81.2616 110.63 81.1016C110.436 80.9415 110.204 80.8615 109.934 80.8615C109.6 80.8615 109.341 80.9644 109.155 81.1701C108.97 81.3736 108.878 81.6354 108.878 81.9554V85.3125H107.856V81.8114C107.856 81.5256 107.767 81.2959 107.588 81.1221C107.41 80.9484 107.178 80.8615 106.892 80.8615C106.698 80.8615 106.518 80.913 106.354 81.0158C106.192 81.1164 106.06 81.257 105.959 81.4376C105.861 81.6182 105.812 81.8274 105.812 82.0651V85.3125H104.787ZM113.403 85.3125V78.2897H114.428V80.8992H114.49C114.55 80.7895 114.635 80.6626 114.747 80.5186C114.859 80.3746 115.015 80.2489 115.214 80.1414C115.413 80.0317 115.676 79.9768 116.002 79.9768C116.428 79.9768 116.807 80.0843 117.141 80.2992C117.475 80.514 117.736 80.8238 117.926 81.2284C118.118 81.6331 118.214 82.12 118.214 82.6892C118.214 83.2585 118.119 83.7465 117.93 84.1535C117.74 84.5581 117.479 84.8701 117.148 85.0896C116.816 85.3068 116.438 85.4154 116.013 85.4154C115.693 85.4154 115.431 85.3617 115.227 85.2542C115.026 85.1468 114.869 85.021 114.754 84.877C114.64 84.733 114.552 84.605 114.49 84.4929H114.404V85.3125H113.403ZM114.408 82.679C114.408 83.0493 114.462 83.3739 114.569 83.6528C114.677 83.9317 114.832 84.15 115.035 84.3078C115.239 84.4632 115.488 84.541 115.783 84.541C116.089 84.541 116.345 84.4598 116.551 84.2975C116.757 84.1329 116.912 83.91 117.017 83.6288C117.125 83.3476 117.179 83.031 117.179 82.679C117.179 82.3315 117.126 82.0194 117.021 81.7428C116.918 81.4662 116.763 81.2479 116.555 81.0879C116.349 80.9278 116.092 80.8478 115.783 80.8478C115.486 80.8478 115.234 80.9244 115.029 81.0776C114.825 81.2307 114.671 81.4445 114.566 81.7188C114.46 81.9931 114.408 82.3132 114.408 82.679ZM121.636 85.4188C121.117 85.4188 120.67 85.3079 120.295 85.0862C119.922 84.8621 119.634 84.5478 119.431 84.1432C119.23 83.7363 119.129 83.2596 119.129 82.7132C119.129 82.1737 119.23 81.6982 119.431 81.2867C119.634 80.8752 119.918 80.5541 120.281 80.3232C120.647 80.0923 121.074 79.9768 121.564 79.9768C121.861 79.9768 122.149 80.026 122.428 80.1243C122.707 80.2226 122.957 80.3769 123.179 80.5872C123.4 80.7975 123.575 81.0707 123.703 81.4068C123.831 81.7405 123.895 82.1463 123.895 82.6241V82.9876H119.708V82.2195H122.891C122.891 81.9497 122.836 81.7108 122.726 81.5028C122.616 81.2925 122.462 81.1267 122.263 81.0056C122.067 80.8844 121.836 80.8238 121.57 80.8238C121.282 80.8238 121.031 80.8947 120.816 81.0364C120.603 81.1759 120.439 81.3587 120.322 81.5851C120.208 81.8091 120.151 82.0526 120.151 82.3155V82.9156C120.151 83.2676 120.213 83.5671 120.336 83.814C120.462 84.0609 120.637 84.2495 120.861 84.3798C121.085 84.5078 121.346 84.5718 121.646 84.5718C121.84 84.5718 122.017 84.5444 122.177 84.4895C122.337 84.4324 122.476 84.3478 122.592 84.2358C122.709 84.1237 122.798 83.9854 122.86 83.8208L123.83 83.9957C123.752 84.2815 123.613 84.5318 123.412 84.7467C123.213 84.9593 122.963 85.125 122.661 85.2439C122.361 85.3605 122.02 85.4188 121.636 85.4188ZM125.033 85.3125V80.0454H126.024V80.8821H126.079C126.175 80.5986 126.344 80.3757 126.586 80.2134C126.831 80.0488 127.108 79.9665 127.416 79.9665C127.48 79.9665 127.556 79.9688 127.643 79.9734C127.732 79.978 127.801 79.9837 127.852 79.9905V80.9713C127.811 80.9598 127.737 80.9473 127.632 80.9335C127.527 80.9175 127.422 80.9095 127.317 80.9095C127.074 80.9095 126.858 80.961 126.669 81.0638C126.481 81.1644 126.333 81.305 126.223 81.4856C126.113 81.6639 126.058 81.8674 126.058 82.096V85.3125H125.033ZM133.513 85.4188C133.019 85.4188 132.588 85.3056 132.22 85.0793C131.852 84.853 131.567 84.5364 131.363 84.1295C131.16 83.7225 131.058 83.247 131.058 82.703C131.058 82.1566 131.16 81.6788 131.363 81.2696C131.567 80.8604 131.852 80.5426 132.22 80.3163C132.588 80.09 133.019 79.9768 133.513 79.9768C134.007 79.9768 134.438 80.09 134.806 80.3163C135.174 80.5426 135.46 80.8604 135.663 81.2696C135.867 81.6788 135.968 82.1566 135.968 82.703C135.968 83.247 135.867 83.7225 135.663 84.1295C135.46 84.5364 135.174 84.853 134.806 85.0793C134.438 85.3056 134.007 85.4188 133.513 85.4188ZM133.517 84.5581C133.837 84.5581 134.102 84.4735 134.312 84.3043C134.522 84.1352 134.678 83.91 134.778 83.6288C134.881 83.3476 134.933 83.0379 134.933 82.6995C134.933 82.3635 134.881 82.0549 134.778 81.7737C134.678 81.4902 134.522 81.2627 134.312 81.0913C134.102 80.9198 133.837 80.8341 133.517 80.8341C133.194 80.8341 132.927 80.9198 132.714 81.0913C132.504 81.2627 132.347 81.4902 132.244 81.7737C132.144 82.0549 132.093 82.3635 132.093 82.6995C132.093 83.0379 132.144 83.3476 132.244 83.6288C132.347 83.91 132.504 84.1352 132.714 84.3043C132.927 84.4735 133.194 84.5581 133.517 84.5581ZM139.62 80.0454V80.8684H136.643V80.0454H139.62ZM137.459 85.3125V79.435C137.459 79.1058 137.531 78.8326 137.675 78.6155C137.819 78.396 138.01 78.2326 138.248 78.1251C138.486 78.0154 138.744 77.9605 139.023 77.9605C139.229 77.9605 139.405 77.9777 139.551 78.0119C139.697 78.044 139.806 78.0737 139.877 78.1011L139.637 78.9309C139.589 78.9172 139.527 78.9012 139.451 78.8829C139.376 78.8624 139.285 78.8521 139.177 78.8521C138.928 78.8521 138.75 78.9138 138.642 79.0372C138.537 79.1607 138.484 79.339 138.484 79.5722V85.3125H137.459ZM147.18 81.3313L146.251 81.4959C146.212 81.377 146.15 81.2639 146.065 81.1564C145.983 81.049 145.871 80.961 145.729 80.8924C145.588 80.8238 145.41 80.7895 145.198 80.7895C144.907 80.7895 144.665 80.8547 144.471 80.985C144.277 81.113 144.179 81.2787 144.179 81.4822C144.179 81.6582 144.245 81.8 144.375 81.9074C144.505 82.0148 144.715 82.1029 145.006 82.1714L145.842 82.3635C146.327 82.4755 146.688 82.6481 146.926 82.8813C147.164 83.1144 147.283 83.4174 147.283 83.79C147.283 84.1055 147.191 84.3866 147.008 84.6335C146.828 84.8781 146.575 85.0702 146.251 85.2096C145.928 85.3491 145.554 85.4188 145.129 85.4188C144.539 85.4188 144.058 85.2931 143.686 85.0416C143.313 84.7878 143.084 84.4278 143 83.9614L143.991 83.8106C144.052 84.0689 144.179 84.2643 144.371 84.3969C144.563 84.5272 144.814 84.5924 145.122 84.5924C145.458 84.5924 145.727 84.5227 145.928 84.3832C146.129 84.2415 146.23 84.0689 146.23 83.8654C146.23 83.7008 146.168 83.5625 146.045 83.4505C145.924 83.3385 145.737 83.2539 145.486 83.1967L144.594 83.0013C144.103 82.8893 143.739 82.711 143.504 82.4663C143.271 82.2217 143.154 81.912 143.154 81.5371C143.154 81.2262 143.241 80.9541 143.415 80.7209C143.588 80.4878 143.828 80.306 144.135 80.1757C144.441 80.0431 144.792 79.9768 145.188 79.9768C145.757 79.9768 146.205 80.1003 146.532 80.3472C146.859 80.5918 147.075 80.9198 147.18 81.3313ZM150.869 80.0454V80.8684H147.992V80.0454H150.869ZM148.763 78.7835H149.789V83.766C149.789 83.9649 149.818 84.1146 149.878 84.2152C149.937 84.3135 150.014 84.3809 150.107 84.4175C150.203 84.4518 150.307 84.4689 150.419 84.4689C150.502 84.4689 150.574 84.4632 150.635 84.4518C150.697 84.4404 150.745 84.4312 150.78 84.4244L150.965 85.2714C150.905 85.2942 150.821 85.3171 150.711 85.3399C150.601 85.3651 150.464 85.3788 150.299 85.3811C150.03 85.3857 149.778 85.3376 149.545 85.2371C149.312 85.1365 149.123 84.981 148.979 84.7707C148.835 84.5604 148.763 84.2963 148.763 83.9786V78.7835ZM155.339 83.1282V80.0454H156.368V85.3125H155.36V84.4004H155.305C155.184 84.6815 154.99 84.9159 154.722 85.1033C154.457 85.2885 154.127 85.3811 153.731 85.3811C153.393 85.3811 153.093 85.3068 152.833 85.1582C152.574 85.0073 152.371 84.7844 152.222 84.4895C152.076 84.1946 152.003 83.83 152.003 83.3956V80.0454H153.028V83.2722C153.028 83.6311 153.128 83.9169 153.326 84.1295C153.525 84.3421 153.784 84.4484 154.101 84.4484C154.293 84.4484 154.484 84.4004 154.674 84.3043C154.866 84.2083 155.025 84.0632 155.151 83.8688C155.279 83.6745 155.342 83.4276 155.339 83.1282ZM159.717 85.4154C159.292 85.4154 158.913 85.3068 158.579 85.0896C158.248 84.8701 157.987 84.5581 157.797 84.1535C157.61 83.7465 157.516 83.2585 157.516 82.6892C157.516 82.12 157.611 81.6331 157.801 81.2284C157.993 80.8238 158.256 80.514 158.589 80.2992C158.923 80.0843 159.301 79.9768 159.724 79.9768C160.051 79.9768 160.314 80.0317 160.513 80.1414C160.714 80.2489 160.87 80.3746 160.979 80.5186C161.091 80.6626 161.178 80.7895 161.24 80.8992H161.302V78.2897H162.327V85.3125H161.326V84.4929H161.24C161.178 84.605 161.089 84.733 160.973 84.877C160.858 85.021 160.7 85.1468 160.499 85.2542C160.298 85.3617 160.038 85.4154 159.717 85.4154ZM159.944 84.541C160.239 84.541 160.488 84.4632 160.691 84.3078C160.897 84.15 161.053 83.9317 161.158 83.6528C161.265 83.3739 161.319 83.0493 161.319 82.679C161.319 82.3132 161.266 81.9931 161.161 81.7188C161.056 81.4445 160.902 81.2307 160.698 81.0776C160.495 80.9244 160.243 80.8478 159.944 80.8478C159.635 80.8478 159.378 80.9278 159.172 81.0879C158.966 81.2479 158.811 81.4662 158.706 81.7428C158.603 82.0194 158.552 82.3315 158.552 82.679C158.552 83.031 158.604 83.3476 158.709 83.6288C158.814 83.91 158.97 84.1329 159.176 84.2975C159.384 84.4598 159.64 84.541 159.944 84.541ZM166.06 85.4188C165.541 85.4188 165.095 85.3079 164.72 85.0862C164.347 84.8621 164.059 84.5478 163.856 84.1432C163.654 83.7363 163.554 83.2596 163.554 82.7132C163.554 82.1737 163.654 81.6982 163.856 81.2867C164.059 80.8752 164.342 80.5541 164.706 80.3232C165.072 80.0923 165.499 79.9768 165.988 79.9768C166.286 79.9768 166.574 80.026 166.853 80.1243C167.131 80.2226 167.382 80.3769 167.604 80.5872C167.825 80.7975 168 81.0707 168.128 81.4068C168.256 81.7405 168.32 82.1463 168.32 82.6241V82.9876H164.133V82.2195H167.315C167.315 81.9497 167.261 81.7108 167.151 81.5028C167.041 81.2925 166.887 81.1267 166.688 81.0056C166.491 80.8844 166.26 80.8238 165.995 80.8238C165.707 80.8238 165.456 80.8947 165.241 81.0364C165.028 81.1759 164.864 81.3587 164.747 81.5851C164.633 81.8091 164.576 82.0526 164.576 82.3155V82.9156C164.576 83.2676 164.637 83.5671 164.761 83.814C164.887 84.0609 165.061 84.2495 165.285 84.3798C165.509 84.5078 165.771 84.5718 166.071 84.5718C166.265 84.5718 166.442 84.5444 166.602 84.4895C166.762 84.4324 166.901 84.3478 167.017 84.2358C167.134 84.1237 167.223 83.9854 167.285 83.8208L168.255 83.9957C168.177 84.2815 168.038 84.5318 167.837 84.7467C167.638 84.9593 167.387 85.125 167.086 85.2439C166.786 85.3605 166.444 85.4188 166.06 85.4188ZM170.483 82.1852V85.3125H169.458V80.0454H170.442V80.9027H170.507C170.628 80.6238 170.818 80.3997 171.076 80.2306C171.337 80.0614 171.665 79.9768 172.06 79.9768C172.419 79.9768 172.734 80.0523 173.003 80.2031C173.273 80.3517 173.482 80.5735 173.631 80.8684C173.78 81.1633 173.854 81.5279 173.854 81.9623V85.3125H172.829V82.0857C172.829 81.7039 172.729 81.4056 172.53 81.1907C172.331 80.9735 172.058 80.865 171.711 80.865C171.473 80.865 171.262 80.9164 171.076 81.0193C170.893 81.1221 170.748 81.273 170.641 81.4719C170.536 81.6685 170.483 81.9063 170.483 82.1852ZM177.688 80.0454V80.8684H174.811V80.0454H177.688ZM175.582 78.7835H176.607V83.766C176.607 83.9649 176.637 84.1146 176.697 84.2152C176.756 84.3135 176.833 84.3809 176.926 84.4175C177.022 84.4518 177.126 84.4689 177.238 84.4689C177.321 84.4689 177.393 84.4632 177.454 84.4518C177.516 84.4404 177.564 84.4312 177.598 84.4244L177.784 85.2714C177.724 85.2942 177.64 85.3171 177.53 85.3399C177.42 85.3651 177.283 85.3788 177.118 85.3811C176.849 85.3857 176.597 85.3376 176.364 85.2371C176.131 85.1365 175.942 84.981 175.798 84.7707C175.654 84.5604 175.582 84.2963 175.582 83.9786V78.7835ZM182.684 81.3313L181.755 81.4959C181.716 81.377 181.654 81.2639 181.569 81.1564C181.487 81.049 181.375 80.961 181.233 80.8924C181.092 80.8238 180.914 80.7895 180.702 80.7895C180.411 80.7895 180.169 80.8547 179.975 80.985C179.781 81.113 179.683 81.2787 179.683 81.4822C179.683 81.6582 179.749 81.8 179.879 81.9074C180.009 82.0148 180.219 82.1029 180.51 82.1714L181.346 82.3635C181.831 82.4755 182.192 82.6481 182.43 82.8813C182.668 83.1144 182.787 83.4174 182.787 83.79C182.787 84.1055 182.695 84.3866 182.512 84.6335C182.332 84.8781 182.079 85.0702 181.755 85.2096C181.432 85.3491 181.058 85.4188 180.633 85.4188C180.043 85.4188 179.562 85.2931 179.19 85.0416C178.817 84.7878 178.588 84.4278 178.504 83.9614L179.495 83.8106C179.557 84.0689 179.683 84.2643 179.875 84.3969C180.067 84.5272 180.318 84.5924 180.626 84.5924C180.962 84.5924 181.231 84.5227 181.432 84.3832C181.633 84.2415 181.734 84.0689 181.734 83.8654C181.734 83.7008 181.672 83.5625 181.549 83.4505C181.428 83.3385 181.241 83.2539 180.99 83.1967L180.098 83.0013C179.607 82.8893 179.243 82.711 179.008 82.4663C178.775 82.2217 178.658 81.912 178.658 81.5371C178.658 81.2262 178.745 80.9541 178.919 80.7209C179.092 80.4878 179.332 80.306 179.639 80.1757C179.945 80.0431 180.296 79.9768 180.692 79.9768C181.261 79.9768 181.709 80.1003 182.036 80.3472C182.363 80.5918 182.579 80.9198 182.684 81.3313Z" fill="#333333"/>
<rect x="91.9255" y="92.5114" width="310.149" height="23.545" rx="2.35448" fill="#F7F7F7"/>
<rect x="91.9255" y="92.5114" width="310.149" height="23.545" rx="2.35448" stroke="#EFEFEF" stroke-width="1.56965"/>
<g opacity="0.3">
<path d="M91.5658 131.385V130.473H97.001V131.385H94.8098V137.496H93.7536V131.385H91.5658ZM99.5745 137.602C99.0807 137.602 98.6498 137.489 98.2817 137.263C97.9137 137.037 97.6279 136.72 97.4244 136.313C97.221 135.906 97.1193 135.431 97.1193 134.887C97.1193 134.34 97.221 133.862 97.4244 133.453C97.6279 133.044 97.9137 132.726 98.2817 132.5C98.6498 132.274 99.0807 132.16 99.5745 132.16C100.068 132.16 100.499 132.274 100.867 132.5C101.235 132.726 101.521 133.044 101.725 133.453C101.928 133.862 102.03 134.34 102.03 134.887C102.03 135.431 101.928 135.906 101.725 136.313C101.521 136.72 101.235 137.037 100.867 137.263C100.499 137.489 100.068 137.602 99.5745 137.602ZM99.5779 136.742C99.898 136.742 100.163 136.657 100.373 136.488C100.584 136.319 100.739 136.094 100.84 135.812C100.943 135.531 100.994 135.221 100.994 134.883C100.994 134.547 100.943 134.238 100.84 133.957C100.739 133.674 100.584 133.446 100.373 133.275C100.163 133.103 99.898 133.018 99.5779 133.018C99.2556 133.018 98.9881 133.103 98.7755 133.275C98.5652 133.446 98.4086 133.674 98.3057 133.957C98.2051 134.238 98.1548 134.547 98.1548 134.883C98.1548 135.221 98.2051 135.531 98.3057 135.812C98.4086 136.094 98.5652 136.319 98.7755 136.488C98.9881 136.657 99.2556 136.742 99.5779 136.742ZM105.633 132.229V133.052H102.756V132.229H105.633ZM103.527 130.967H104.553V135.95C104.553 136.148 104.582 136.298 104.642 136.399C104.701 136.497 104.778 136.565 104.872 136.601C104.968 136.635 105.072 136.653 105.184 136.653C105.266 136.653 105.338 136.647 105.4 136.635C105.461 136.624 105.509 136.615 105.544 136.608L105.729 137.455C105.669 137.478 105.585 137.501 105.475 137.524C105.365 137.549 105.228 137.562 105.064 137.565C104.794 137.569 104.542 137.521 104.309 137.421C104.076 137.32 103.887 137.165 103.743 136.954C103.599 136.744 103.527 136.48 103.527 136.162V130.967ZM108.3 137.613C107.966 137.613 107.664 137.551 107.395 137.428C107.125 137.302 106.911 137.12 106.753 136.882C106.598 136.645 106.52 136.353 106.52 136.008C106.52 135.711 106.577 135.466 106.692 135.274C106.806 135.082 106.96 134.93 107.155 134.818C107.349 134.706 107.566 134.621 107.806 134.564C108.046 134.507 108.291 134.464 108.54 134.434C108.855 134.397 109.111 134.368 109.308 134.345C109.505 134.32 109.647 134.28 109.737 134.225C109.826 134.17 109.87 134.081 109.87 133.957V133.933C109.87 133.634 109.786 133.402 109.617 133.237C109.45 133.073 109.201 132.99 108.869 132.99C108.524 132.99 108.252 133.067 108.053 133.22C107.856 133.371 107.72 133.539 107.645 133.724L106.681 133.505C106.796 133.185 106.962 132.926 107.182 132.73C107.404 132.531 107.659 132.387 107.947 132.298C108.235 132.206 108.538 132.16 108.855 132.16C109.066 132.16 109.289 132.186 109.524 132.236C109.762 132.284 109.984 132.373 110.189 132.503C110.397 132.634 110.568 132.82 110.7 133.062C110.833 133.302 110.899 133.614 110.899 133.998V137.496H109.898V136.776H109.857C109.79 136.909 109.691 137.039 109.558 137.167C109.426 137.295 109.255 137.401 109.047 137.486C108.839 137.57 108.59 137.613 108.3 137.613ZM108.523 136.79C108.806 136.79 109.049 136.734 109.25 136.622C109.453 136.51 109.607 136.363 109.713 136.183C109.82 136 109.874 135.804 109.874 135.596V134.917C109.837 134.954 109.766 134.988 109.661 135.02C109.558 135.05 109.441 135.076 109.308 135.099C109.175 135.12 109.046 135.139 108.921 135.157C108.795 135.173 108.69 135.187 108.605 135.199C108.406 135.224 108.224 135.266 108.06 135.325C107.897 135.385 107.767 135.471 107.669 135.583C107.573 135.692 107.525 135.839 107.525 136.022C107.525 136.275 107.619 136.467 107.806 136.598C107.994 136.726 108.232 136.79 108.523 136.79ZM113.29 130.473V137.496H112.265V130.473H113.29ZM122.06 132.692C121.994 132.484 121.905 132.298 121.792 132.133C121.683 131.966 121.551 131.824 121.398 131.708C121.245 131.589 121.07 131.499 120.873 131.437C120.679 131.375 120.465 131.344 120.232 131.344C119.837 131.344 119.48 131.446 119.162 131.649C118.845 131.853 118.593 132.151 118.408 132.544C118.225 132.935 118.134 133.414 118.134 133.981C118.134 134.55 118.226 135.032 118.411 135.425C118.597 135.818 118.85 136.116 119.173 136.32C119.495 136.523 119.862 136.625 120.273 136.625C120.655 136.625 120.988 136.547 121.271 136.392C121.557 136.236 121.778 136.017 121.933 135.734C122.091 135.448 122.17 135.112 122.17 134.725L122.444 134.777H120.435V133.902H123.195V134.701C123.195 135.291 123.069 135.803 122.818 136.238C122.569 136.67 122.223 137.003 121.782 137.239C121.343 137.474 120.84 137.592 120.273 137.592C119.638 137.592 119.08 137.446 118.6 137.153C118.122 136.861 117.75 136.446 117.482 135.908C117.215 135.369 117.081 134.729 117.081 133.988C117.081 133.428 117.159 132.925 117.314 132.479C117.47 132.034 117.688 131.655 117.969 131.344C118.253 131.031 118.585 130.792 118.967 130.628C119.351 130.461 119.77 130.377 120.225 130.377C120.605 130.377 120.958 130.433 121.285 130.545C121.614 130.657 121.907 130.816 122.163 131.022C122.421 131.228 122.635 131.472 122.804 131.756C122.973 132.037 123.088 132.349 123.147 132.692H122.06ZM124.788 137.496V132.229H125.813V137.496H124.788ZM125.306 131.416C125.127 131.416 124.974 131.357 124.846 131.238C124.72 131.117 124.657 130.973 124.657 130.806C124.657 130.637 124.72 130.493 124.846 130.374C124.974 130.253 125.127 130.192 125.306 130.192C125.484 130.192 125.636 130.253 125.762 130.374C125.89 130.493 125.954 130.637 125.954 130.806C125.954 130.973 125.89 131.117 125.762 131.238C125.636 131.357 125.484 131.416 125.306 131.416ZM129.699 132.229V133.052H126.723V132.229H129.699ZM127.539 137.496V131.619C127.539 131.289 127.611 131.016 127.755 130.799C127.899 130.58 128.09 130.416 128.327 130.309C128.565 130.199 128.824 130.144 129.102 130.144C129.308 130.144 129.484 130.161 129.631 130.196C129.777 130.228 129.885 130.257 129.956 130.285L129.716 131.115C129.668 131.101 129.607 131.085 129.531 131.067C129.456 131.046 129.364 131.036 129.257 131.036C129.008 131.036 128.829 131.097 128.722 131.221C128.617 131.344 128.564 131.523 128.564 131.756V137.496H127.539ZM133.216 132.229V133.052H130.339V132.229H133.216ZM131.11 130.967H132.136V135.95C132.136 136.148 132.165 136.298 132.225 136.399C132.284 136.497 132.361 136.565 132.454 136.601C132.55 136.635 132.654 136.653 132.766 136.653C132.849 136.653 132.921 136.647 132.982 136.635C133.044 136.624 133.092 136.615 133.127 136.608L133.312 137.455C133.252 137.478 133.168 137.501 133.058 137.524C132.948 137.549 132.811 137.562 132.646 137.565C132.377 137.569 132.125 137.521 131.892 137.421C131.659 137.32 131.47 137.165 131.326 136.954C131.182 136.744 131.11 136.48 131.11 136.162V130.967ZM138.212 133.515L137.283 133.68C137.244 133.561 137.182 133.447 137.097 133.34C137.015 133.233 136.903 133.145 136.761 133.076C136.62 133.007 136.442 132.973 136.23 132.973C135.94 132.973 135.697 133.038 135.503 133.169C135.309 133.297 135.211 133.462 135.211 133.666C135.211 133.842 135.277 133.984 135.407 134.091C135.537 134.198 135.747 134.286 136.038 134.355L136.875 134.547C137.359 134.659 137.72 134.832 137.958 135.065C138.196 135.298 138.315 135.601 138.315 135.974C138.315 136.289 138.223 136.57 138.04 136.817C137.86 137.062 137.607 137.254 137.283 137.393C136.96 137.533 136.586 137.602 136.161 137.602C135.571 137.602 135.09 137.477 134.718 137.225C134.345 136.971 134.116 136.611 134.032 136.145L135.023 135.994C135.085 136.252 135.211 136.448 135.403 136.581C135.595 136.711 135.846 136.776 136.154 136.776C136.49 136.776 136.759 136.706 136.96 136.567C137.161 136.425 137.262 136.252 137.262 136.049C137.262 135.884 137.2 135.746 137.077 135.634C136.956 135.522 136.769 135.437 136.518 135.38L135.626 135.185C135.135 135.073 134.771 134.895 134.536 134.65C134.303 134.405 134.186 134.096 134.186 133.721C134.186 133.41 134.273 133.138 134.447 132.905C134.62 132.671 134.86 132.49 135.167 132.359C135.473 132.227 135.824 132.16 136.22 132.16C136.789 132.16 137.237 132.284 137.564 132.531C137.891 132.775 138.107 133.103 138.212 133.515ZM142.08 137.496V130.473H144.583C145.13 130.473 145.582 130.573 145.941 130.772C146.3 130.971 146.569 131.243 146.747 131.588C146.925 131.931 147.014 132.317 147.014 132.747C147.014 133.179 146.924 133.567 146.743 133.913C146.565 134.256 146.295 134.528 145.934 134.729C145.575 134.928 145.124 135.027 144.58 135.027H142.858V134.129H144.484C144.829 134.129 145.109 134.069 145.324 133.95C145.539 133.829 145.696 133.665 145.797 133.457C145.898 133.249 145.948 133.012 145.948 132.747C145.948 132.482 145.898 132.246 145.797 132.04C145.696 131.835 145.538 131.673 145.32 131.557C145.105 131.44 144.822 131.382 144.47 131.382H143.139V137.496H142.08ZM148.174 137.496V132.229H149.165V133.066H149.22C149.316 132.782 149.485 132.559 149.728 132.397C149.972 132.232 150.249 132.15 150.557 132.15C150.621 132.15 150.697 132.152 150.784 132.157C150.873 132.162 150.943 132.167 150.993 132.174V133.155C150.952 133.143 150.879 133.131 150.774 133.117C150.668 133.101 150.563 133.093 150.458 133.093C150.216 133.093 150 133.145 149.81 133.247C149.622 133.348 149.474 133.489 149.364 133.669C149.254 133.848 149.2 134.051 149.2 134.28V137.496H148.174ZM151.88 137.496V132.229H152.906V137.496H151.88ZM152.398 131.416C152.22 131.416 152.067 131.357 151.939 131.238C151.813 131.117 151.75 130.973 151.75 130.806C151.75 130.637 151.813 130.493 151.939 130.374C152.067 130.253 152.22 130.192 152.398 130.192C152.576 130.192 152.728 130.253 152.854 130.374C152.982 130.493 153.046 130.637 153.046 130.806C153.046 130.973 152.982 131.117 152.854 131.238C152.728 131.357 152.576 131.416 152.398 131.416ZM154.175 137.496V136.793L157.028 133.169V133.121H154.268V132.229H158.307V132.977L155.564 136.557V136.605H158.403V137.496H154.175ZM161.732 137.602C161.213 137.602 160.766 137.492 160.391 137.27C160.019 137.046 159.731 136.731 159.527 136.327C159.326 135.92 159.225 135.443 159.225 134.897C159.225 134.357 159.326 133.882 159.527 133.47C159.731 133.059 160.014 132.738 160.378 132.507C160.743 132.276 161.171 132.16 161.66 132.16C161.957 132.16 162.245 132.21 162.524 132.308C162.803 132.406 163.053 132.56 163.275 132.771C163.497 132.981 163.672 133.254 163.8 133.59C163.928 133.924 163.992 134.33 163.992 134.808V135.171H159.805V134.403H162.987C162.987 134.133 162.932 133.894 162.823 133.686C162.713 133.476 162.558 133.31 162.36 133.189C162.163 133.068 161.932 133.007 161.667 133.007C161.379 133.007 161.127 133.078 160.913 133.22C160.7 133.359 160.535 133.542 160.419 133.769C160.304 133.993 160.247 134.236 160.247 134.499V135.099C160.247 135.451 160.309 135.751 160.432 135.998C160.558 136.244 160.733 136.433 160.957 136.563C161.181 136.691 161.443 136.755 161.742 136.755C161.937 136.755 162.114 136.728 162.274 136.673C162.434 136.616 162.572 136.531 162.689 136.419C162.805 136.307 162.895 136.169 162.956 136.004L163.927 136.179C163.849 136.465 163.71 136.715 163.508 136.93C163.309 137.143 163.059 137.309 162.757 137.428C162.458 137.544 162.116 137.602 161.732 137.602Z" fill="#333333"/>
<rect x="91.9255" y="144.695" width="310.149" height="23.545" rx="2.35448" fill="#F7F7F7"/>
<rect x="91.9255" y="144.695" width="310.149" height="23.545" rx="2.35448" stroke="#EFEFEF" stroke-width="1.56965"/>
</g>
<rect x="91.1406" y="178.684" width="62.969" height="26.6563" rx="4.82817" fill="#A58CF0"/>
<path d="M110.134 190.42C110.102 190.12 109.967 189.887 109.73 189.72C109.494 189.553 109.188 189.47 108.811 189.47C108.545 189.47 108.318 189.51 108.128 189.59C107.938 189.67 107.793 189.778 107.693 189.915C107.592 190.053 107.541 190.209 107.538 190.385C107.538 190.532 107.572 190.658 107.638 190.766C107.706 190.873 107.799 190.965 107.916 191.04C108.032 191.113 108.161 191.175 108.303 191.225C108.445 191.276 108.588 191.318 108.732 191.352L109.39 191.517C109.655 191.579 109.91 191.662 110.155 191.767C110.402 191.872 110.622 192.005 110.817 192.165C111.013 192.325 111.169 192.518 111.283 192.744C111.397 192.971 111.454 193.236 111.454 193.54C111.454 193.951 111.349 194.314 111.139 194.627C110.929 194.938 110.625 195.181 110.227 195.357C109.831 195.531 109.352 195.618 108.79 195.618C108.244 195.618 107.769 195.533 107.367 195.364C106.967 195.195 106.654 194.948 106.427 194.624C106.203 194.299 106.082 193.903 106.064 193.437H107.316C107.334 193.682 107.409 193.885 107.542 194.047C107.674 194.21 107.847 194.331 108.06 194.411C108.275 194.491 108.515 194.531 108.78 194.531C109.056 194.531 109.299 194.49 109.507 194.408C109.717 194.323 109.882 194.206 110.001 194.058C110.119 193.907 110.18 193.731 110.182 193.53C110.18 193.347 110.126 193.196 110.021 193.077C109.916 192.956 109.768 192.855 109.579 192.775C109.391 192.693 109.172 192.62 108.92 192.556L108.121 192.35C107.543 192.201 107.086 191.976 106.75 191.675C106.416 191.371 106.249 190.967 106.249 190.464C106.249 190.05 106.361 189.688 106.585 189.377C106.811 189.066 107.119 188.825 107.508 188.654C107.896 188.48 108.336 188.393 108.828 188.393C109.326 188.393 109.763 188.48 110.138 188.654C110.515 188.825 110.811 189.064 111.026 189.37C111.241 189.674 111.352 190.024 111.358 190.42H110.134ZM115.891 193.297V190.245H117.132V195.512H115.929V194.576H115.874C115.755 194.87 115.559 195.112 115.287 195.299C115.018 195.487 114.685 195.58 114.289 195.58C113.944 195.58 113.639 195.504 113.374 195.351C113.111 195.195 112.905 194.97 112.757 194.675C112.608 194.378 112.534 194.019 112.534 193.598V190.245H113.775V193.406C113.775 193.74 113.867 194.005 114.049 194.202C114.232 194.398 114.472 194.497 114.77 194.497C114.952 194.497 115.13 194.452 115.301 194.363C115.473 194.274 115.613 194.141 115.723 193.965C115.835 193.787 115.891 193.564 115.891 193.297ZM118.464 195.512V188.489H119.705V191.116H119.756C119.82 190.988 119.911 190.852 120.027 190.708C120.144 190.561 120.302 190.437 120.5 190.334C120.699 190.229 120.953 190.176 121.262 190.176C121.669 190.176 122.036 190.28 122.362 190.488C122.692 190.694 122.952 190.999 123.144 191.404C123.339 191.806 123.436 192.3 123.436 192.885C123.436 193.463 123.341 193.955 123.151 194.36C122.961 194.764 122.703 195.073 122.376 195.285C122.049 195.498 121.679 195.604 121.265 195.604C120.963 195.604 120.713 195.554 120.514 195.453C120.315 195.353 120.155 195.232 120.034 195.09C119.915 194.946 119.823 194.81 119.756 194.682H119.684V195.512H118.464ZM119.681 192.878C119.681 193.219 119.729 193.517 119.825 193.773C119.923 194.029 120.064 194.229 120.247 194.373C120.432 194.515 120.656 194.586 120.919 194.586C121.193 194.586 121.423 194.513 121.608 194.366C121.793 194.218 121.933 194.015 122.026 193.759C122.122 193.501 122.17 193.207 122.17 192.878C122.17 192.551 122.124 192.261 122.03 192.007C121.936 191.753 121.797 191.555 121.611 191.411C121.426 191.266 121.195 191.194 120.919 191.194C120.654 191.194 120.428 191.264 120.243 191.404C120.058 191.543 119.917 191.739 119.821 191.99C119.728 192.242 119.681 192.538 119.681 192.878ZM124.491 195.512V190.245H125.678V191.14H125.739C125.849 190.838 126.031 190.602 126.284 190.433C126.538 190.262 126.841 190.176 127.193 190.176C127.55 190.176 127.85 190.263 128.095 190.437C128.342 190.608 128.516 190.842 128.616 191.14H128.671C128.788 190.847 128.984 190.614 129.261 190.44C129.54 190.264 129.87 190.176 130.252 190.176C130.737 190.176 131.132 190.329 131.438 190.636C131.745 190.942 131.898 191.389 131.898 191.976V195.512H130.653V192.168C130.653 191.841 130.566 191.603 130.393 191.452C130.219 191.298 130.006 191.222 129.755 191.222C129.455 191.222 129.221 191.316 129.052 191.503C128.885 191.688 128.801 191.929 128.801 192.227V195.512H127.584V192.117C127.584 191.845 127.502 191.628 127.337 191.465C127.175 191.303 126.962 191.222 126.699 191.222C126.521 191.222 126.359 191.268 126.212 191.359C126.066 191.448 125.95 191.575 125.863 191.74C125.776 191.902 125.732 192.092 125.732 192.309V195.512H124.491ZM133.157 195.512V190.245H134.399V195.512H133.157ZM133.781 189.497C133.585 189.497 133.416 189.432 133.274 189.302C133.132 189.169 133.061 189.01 133.061 188.825C133.061 188.638 133.132 188.479 133.274 188.348C133.416 188.216 133.585 188.149 133.781 188.149C133.98 188.149 134.149 188.216 134.289 188.348C134.431 188.479 134.501 188.638 134.501 188.825C134.501 189.01 134.431 189.169 134.289 189.302C134.149 189.432 133.98 189.497 133.781 189.497ZM138.305 190.245V191.205H135.277V190.245H138.305ZM136.025 188.983H137.266V193.927C137.266 194.094 137.291 194.222 137.342 194.312C137.394 194.398 137.463 194.458 137.547 194.49C137.632 194.522 137.726 194.538 137.829 194.538C137.906 194.538 137.977 194.532 138.041 194.521C138.107 194.509 138.158 194.499 138.192 194.49L138.401 195.46C138.335 195.483 138.24 195.508 138.117 195.536C137.995 195.563 137.847 195.579 137.671 195.584C137.36 195.593 137.08 195.546 136.831 195.443C136.581 195.338 136.384 195.176 136.237 194.956C136.093 194.737 136.023 194.462 136.025 194.133V188.983Z" fill="white"/>
<rect x="372" y="29.0352" width="74.2058" height="74.2058" rx="37.1029" fill="#EED2FF"/>
<path d="M409.103 74.8334C404.32 74.8334 400.407 70.9202 400.407 66.1374C400.407 61.3546 404.32 57.4414 409.103 57.4414C413.886 57.4414 417.799 61.3546 417.799 66.1374C417.799 70.9202 413.886 74.8334 409.103 74.8334ZM409.103 60.3401C405.915 60.3401 403.306 62.9489 403.306 66.1374C403.306 69.3259 405.915 71.9347 409.103 71.9347C412.292 71.9347 414.901 69.3259 414.901 66.1374C414.901 62.9489 412.292 60.3401 409.103 60.3401Z" fill="black"/>
<path d="M409.103 80.6273C399.856 80.6273 391.74 75.0039 388.899 66.5977C388.784 66.2994 388.784 65.9685 388.899 65.6702C391.74 57.293 399.885 51.6406 409.103 51.6406C418.321 51.6406 426.466 57.264 429.307 65.6702C429.423 65.96 429.423 66.3079 429.307 66.5977C426.466 74.9749 418.321 80.6273 409.103 80.6273ZM391.798 66.1339C394.378 73.0907 401.277 77.7286 409.103 77.7286C416.929 77.7286 423.799 73.0907 426.408 66.1339C423.828 59.1771 416.929 54.5393 409.103 54.5393C401.277 54.5393 394.407 59.1771 391.798 66.1339Z" fill="black"/>
<path d="M426.496 84.9772C426.306 84.9796 426.117 84.9421 425.943 84.8672C425.768 84.7923 425.611 84.6817 425.481 84.5424L390.697 49.7585C390.118 49.1787 390.118 48.2802 390.697 47.7004C391.277 47.1207 392.176 47.1207 392.756 47.7004L427.511 82.5134C428.09 83.0931 428.09 83.9917 427.511 84.5714C427.221 84.8613 426.844 85.0062 426.496 85.0062V84.9772Z" fill="black"/>
</g>
<defs>
<filter id="filter0_dd_5186_13117" x="58.7478" y="24.909" width="395.71" height="212.122" filterUnits="userSpaceOnUse" color-interpolation-filters="sRGB">
<feFlood flood-opacity="0" result="BackgroundImageFix"/>
<feColorMatrix in="SourceAlpha" type="matrix" values="0 0 0 0 0 0 0 0 0 0 0 0 0 0 0 0 0 0 127 0" result="hardAlpha"/>
<feOffset dy="4.12611"/>
<feGaussianBlur stdDeviation="4.12611"/>
<feComposite in2="hardAlpha" operator="out"/>
<feColorMatrix type="matrix" values="0 0 0 0 0 0 0 0 0 0 0 0 0 0 0 0 0 0 0.05 0"/>
<feBlend mode="normal" in2="BackgroundImageFix" result="effect1_dropShadow_5186_13117"/>
<feColorMatrix in="SourceAlpha" type="matrix" values="0 0 0 0 0 0 0 0 0 0 0 0 0 0 0 0 0 0 127 0" result="hardAlpha"/>
<feOffset dy="2.06305"/>
<feGaussianBlur stdDeviation="2.06305"/>
<feComposite in2="hardAlpha" operator="out"/>
<feColorMatrix type="matrix" values="0 0 0 0 0 0 0 0 0 0 0 0 0 0 0 0 0 0 0.07 0"/>
<feBlend mode="normal" in2="effect1_dropShadow_5186_13117" result="effect2_dropShadow_5186_13117"/>
<feBlend mode="normal" in="SourceGraphic" in2="effect2_dropShadow_5186_13117" result="shape"/>
</filter>
</defs>
</svg>
