<svg width="626" height="373" viewBox="0 0 626 373" fill="none" xmlns="http://www.w3.org/2000/svg">
<g filter="url(#filter0_dd_5222_13532)">
<rect x="12" y="6" width="495.936" height="161.739" rx="6.65128" fill="white" shape-rendering="crispEdges"/>
<path d="M46.3187 47.6055V37.9309H47.7784V42.1352H52.6016V37.9309H54.066V47.6055H52.6016V43.387H47.7784V47.6055H46.3187ZM59.2056 47.7519C58.4907 47.7519 57.875 47.5992 57.3586 47.2937C56.8452 46.9851 56.4484 46.552 56.1681 45.9946C55.891 45.434 55.7524 44.7774 55.7524 44.0247C55.7524 43.2815 55.891 42.6265 56.1681 42.0596C56.4484 41.4927 56.8389 41.0502 57.3397 40.7322C57.8435 40.4141 58.4325 40.255 59.1064 40.255C59.5158 40.255 59.9126 40.3228 60.2968 40.4582C60.681 40.5936 61.0259 40.8062 61.3314 41.0959C61.6369 41.3856 61.8778 41.762 62.0541 42.2249C62.2305 42.6847 62.3187 43.2437 62.3187 43.9019V44.4026H56.5508V43.3445H60.9346C60.9346 42.9729 60.859 42.6438 60.7078 42.3572C60.5566 42.0675 60.3441 41.8391 60.0701 41.6722C59.7992 41.5053 59.4812 41.4219 59.1159 41.4219C58.719 41.4219 58.3726 41.5195 58.0766 41.7147C57.7837 41.9068 57.557 42.1588 57.3963 42.4706C57.2389 42.7792 57.1601 43.1146 57.1601 43.4768V44.3034C57.1601 44.7884 57.2452 45.201 57.4152 45.5411C57.5885 45.8812 57.8294 46.1411 58.138 46.3206C58.4466 46.4969 58.8072 46.5851 59.2198 46.5851C59.4875 46.5851 59.7315 46.5473 59.952 46.4717C60.1724 46.393 60.363 46.2765 60.5236 46.1222C60.6842 45.9678 60.807 45.7773 60.892 45.5506L62.2289 45.7915C62.1218 46.1851 61.9297 46.53 61.6526 46.826C61.3786 47.1189 61.0338 47.3472 60.6181 47.511C60.2055 47.6716 59.7347 47.7519 59.2056 47.7519ZM65.2983 37.9309V47.6055H63.8858V37.9309H65.2983ZM68.6109 37.9309V47.6055H67.1985V37.9309H68.6109ZM73.5675 47.7519C72.8873 47.7519 72.2936 47.596 71.7866 47.2842C71.2796 46.9725 70.8859 46.5363 70.6056 45.9757C70.3253 45.4151 70.1852 44.7601 70.1852 44.0106C70.1852 43.2579 70.3253 42.5997 70.6056 42.036C70.8859 41.4722 71.2796 41.0345 71.7866 40.7227C72.2936 40.4109 72.8873 40.255 73.5675 40.255C74.2478 40.255 74.8414 40.4109 75.3484 40.7227C75.8555 41.0345 76.2491 41.4722 76.5294 42.036C76.8097 42.5997 76.9498 43.2579 76.9498 44.0106C76.9498 44.7601 76.8097 45.4151 76.5294 45.9757C76.2491 46.5363 75.8555 46.9725 75.3484 47.2842C74.8414 47.596 74.2478 47.7519 73.5675 47.7519ZM73.5722 46.5662C74.0131 46.5662 74.3785 46.4497 74.6682 46.2166C74.9579 45.9836 75.1721 45.6734 75.3106 45.286C75.4524 44.8987 75.5232 44.4719 75.5232 44.0058C75.5232 43.5429 75.4524 43.1177 75.3106 42.7304C75.1721 42.3399 74.9579 42.0265 74.6682 41.7903C74.3785 41.5541 74.0131 41.436 73.5722 41.436C73.1282 41.436 72.7597 41.5541 72.4668 41.7903C72.1771 42.0265 71.9614 42.3399 71.8197 42.7304C71.6811 43.1177 71.6118 43.5429 71.6118 44.0058C71.6118 44.4719 71.6811 44.8987 71.8197 45.286C71.9614 45.6734 72.1771 45.9836 72.4668 46.2166C72.7597 46.4497 73.1282 46.5662 73.5722 46.5662ZM80.3641 46.2828L80.2932 46.7977C80.246 47.1756 80.1657 47.5693 80.0523 47.9787C79.9421 48.3912 79.8271 48.7739 79.7074 49.1266C79.5909 49.4793 79.4949 49.7596 79.4193 49.9674H78.4178C78.4587 49.7722 78.5154 49.5076 78.5879 49.1738C78.6603 48.8431 78.7312 48.4731 78.8004 48.0637C78.8697 47.6543 78.9217 47.237 78.9563 46.8118L79.0036 46.2828H80.3641ZM87.2964 47.6055L85.1612 40.3495H86.6209L88.0428 45.6781H88.1137L89.5403 40.3495H91L92.4172 45.6545H92.488L93.9005 40.3495H95.3602L93.2297 47.6055H91.7889L90.315 42.3666H90.2064L88.7325 47.6055H87.2964ZM98.113 43.2973V47.6055H96.7006V37.9309H98.0941V41.5305H98.1839C98.3539 41.14 98.6138 40.8298 98.9633 40.5999C99.3129 40.37 99.7695 40.255 100.333 40.255C100.831 40.255 101.265 40.3574 101.637 40.5621C102.012 40.7668 102.302 41.0723 102.506 41.4785C102.714 41.8816 102.818 42.3855 102.818 42.9902V47.6055H101.406V43.1603C101.406 42.628 101.269 42.2155 100.995 41.9226C100.721 41.6266 100.34 41.4785 99.8514 41.4785C99.5176 41.4785 99.2184 41.5494 98.9539 41.6911C98.6925 41.8328 98.4862 42.0407 98.335 42.3147C98.187 42.5855 98.113 42.913 98.113 43.2973ZM106.814 47.7661C106.355 47.7661 105.939 47.6811 105.567 47.511C105.196 47.3378 104.901 47.0874 104.684 46.7599C104.47 46.4324 104.363 46.0308 104.363 45.5553C104.363 45.1459 104.442 44.8089 104.599 44.5444C104.756 44.2798 104.969 44.0704 105.237 43.9161C105.504 43.7618 105.804 43.6452 106.134 43.5665C106.465 43.4878 106.802 43.4279 107.145 43.387C107.58 43.3366 107.932 43.2957 108.203 43.2642C108.474 43.2295 108.671 43.1744 108.794 43.0988C108.917 43.0233 108.978 42.9004 108.978 42.7304V42.6973C108.978 42.2848 108.862 41.9651 108.628 41.7384C108.399 41.5116 108.055 41.3982 107.599 41.3982C107.123 41.3982 106.748 41.5037 106.474 41.7147C106.204 41.9226 106.016 42.1541 105.912 42.4092L104.585 42.1068C104.742 41.6659 104.972 41.3101 105.274 41.0392C105.58 40.7652 105.931 40.5668 106.328 40.444C106.725 40.318 107.142 40.255 107.58 40.255C107.869 40.255 108.177 40.2897 108.501 40.359C108.828 40.4251 109.134 40.5479 109.417 40.7274C109.704 40.9069 109.939 41.1636 110.121 41.4974C110.304 41.8281 110.395 42.258 110.395 42.7871V47.6055H109.016V46.6134H108.959C108.868 46.7961 108.731 46.9756 108.548 47.152C108.366 47.3283 108.131 47.4748 107.844 47.5913C107.558 47.7078 107.214 47.7661 106.814 47.7661ZM107.122 46.6323C107.512 46.6323 107.846 46.5552 108.123 46.4009C108.403 46.2466 108.616 46.045 108.761 45.7962C108.909 45.5443 108.983 45.275 108.983 44.9884V44.0531C108.932 44.1035 108.835 44.1507 108.69 44.1948C108.548 44.2357 108.386 44.272 108.203 44.3034C108.021 44.3318 107.843 44.3586 107.67 44.3838C107.496 44.4058 107.351 44.4247 107.235 44.4404C106.961 44.4751 106.711 44.5333 106.484 44.6152C106.26 44.6971 106.081 44.8152 105.945 44.9695C105.813 45.1207 105.747 45.3222 105.747 45.5742C105.747 45.9238 105.876 46.1883 106.134 46.3678C106.392 46.5442 106.722 46.6323 107.122 46.6323ZM115.664 40.3495V41.4833H111.7V40.3495H115.664ZM112.763 38.6111H114.176V45.475C114.176 45.749 114.216 45.9552 114.298 46.0938C114.38 46.2292 114.486 46.3221 114.615 46.3725C114.747 46.4198 114.89 46.4434 115.045 46.4434C115.158 46.4434 115.257 46.4355 115.342 46.4198C115.427 46.404 115.494 46.3914 115.541 46.382L115.796 47.5488C115.714 47.5803 115.597 47.6118 115.446 47.6433C115.295 47.6779 115.106 47.6968 114.879 47.6999C114.508 47.7062 114.161 47.6401 113.84 47.5015C113.519 47.363 113.259 47.1488 113.061 46.8591C112.862 46.5694 112.763 46.2056 112.763 45.7679V38.6111ZM118.804 37.9309V38.8379C118.804 39.1056 118.753 39.3874 118.653 39.6834C118.555 39.9763 118.416 40.2582 118.237 40.529C118.057 40.7999 117.846 41.0329 117.604 41.2282L116.905 40.7274C117.091 40.4566 117.251 40.1684 117.387 39.863C117.525 39.5575 117.594 39.2205 117.594 38.852V37.9309H118.804ZM124.69 42.121L123.41 42.3477C123.356 42.184 123.271 42.0281 123.155 41.8801C123.041 41.7321 122.887 41.6108 122.692 41.5163C122.496 41.4219 122.252 41.3746 121.959 41.3746C121.559 41.3746 121.226 41.4644 120.958 41.6439C120.69 41.8202 120.556 42.0486 120.556 42.3288C120.556 42.5713 120.646 42.7666 120.826 42.9146C121.005 43.0626 121.295 43.1839 121.695 43.2784L122.847 43.5429C123.515 43.6972 124.013 43.935 124.34 44.2562C124.668 44.5774 124.832 44.9947 124.832 45.508C124.832 45.9426 124.706 46.33 124.454 46.6701C124.205 47.0071 123.857 47.2716 123.41 47.4638C122.966 47.6559 122.451 47.7519 121.865 47.7519C121.052 47.7519 120.389 47.5787 119.876 47.2323C119.363 46.8827 119.048 46.3867 118.931 45.7442L120.297 45.5364C120.382 45.8923 120.556 46.1615 120.821 46.3442C121.085 46.5237 121.43 46.6134 121.855 46.6134C122.318 46.6134 122.688 46.5174 122.966 46.3253C123.243 46.13 123.381 45.8923 123.381 45.612C123.381 45.3852 123.296 45.1947 123.126 45.0404C122.959 44.8861 122.703 44.7695 122.356 44.6908L121.128 44.4215C120.451 44.2672 119.95 44.0216 119.626 43.6846C119.305 43.3476 119.144 42.9209 119.144 42.4044C119.144 41.9761 119.264 41.6014 119.503 41.2801C119.742 40.9589 120.073 40.7085 120.495 40.529C120.917 40.3464 121.4 40.255 121.945 40.255C122.729 40.255 123.347 40.4251 123.797 40.7652C124.247 41.1022 124.545 41.5541 124.69 42.121ZM130.798 50.3264C130.587 50.3264 130.395 50.3091 130.222 50.2745C130.048 50.243 129.919 50.2084 129.834 50.1706L130.174 49.0132C130.433 49.0825 130.662 49.1124 130.864 49.103C131.066 49.0935 131.243 49.0179 131.398 48.8762C131.555 48.7345 131.694 48.503 131.813 48.1818L131.988 47.6999L129.333 40.3495H130.845L132.683 45.9804H132.758L134.596 40.3495H136.112L133.122 48.5739C132.983 48.9518 132.807 49.2714 132.593 49.5328C132.379 49.7974 132.124 49.9958 131.828 50.128C131.532 50.2603 131.188 50.3264 130.798 50.3264ZM140.249 47.7519C139.569 47.7519 138.975 47.596 138.468 47.2842C137.961 46.9725 137.568 46.5363 137.287 45.9757C137.007 45.4151 136.867 44.7601 136.867 44.0106C136.867 43.2579 137.007 42.5997 137.287 42.036C137.568 41.4722 137.961 41.0345 138.468 40.7227C138.975 40.4109 139.569 40.255 140.249 40.255C140.929 40.255 141.523 40.4109 142.03 40.7227C142.537 41.0345 142.931 41.4722 143.211 42.036C143.491 42.5997 143.632 43.2579 143.632 44.0106C143.632 44.7601 143.491 45.4151 143.211 45.9757C142.931 46.5363 142.537 46.9725 142.03 47.2842C141.523 47.596 140.929 47.7519 140.249 47.7519ZM140.254 46.5662C140.695 46.5662 141.06 46.4497 141.35 46.2166C141.64 45.9836 141.854 45.6734 141.992 45.286C142.134 44.8987 142.205 44.4719 142.205 44.0058C142.205 43.5429 142.134 43.1177 141.992 42.7304C141.854 42.3399 141.64 42.0265 141.35 41.7903C141.06 41.5541 140.695 41.436 140.254 41.436C139.81 41.436 139.441 41.5541 139.149 41.7903C138.859 42.0265 138.643 42.3399 138.501 42.7304C138.363 43.1177 138.294 43.5429 138.294 44.0058C138.294 44.4719 138.363 44.8987 138.501 45.286C138.643 45.6734 138.859 45.9836 139.149 46.2166C139.441 46.4497 139.81 46.5662 140.254 46.5662ZM149.805 44.5963V40.3495H151.222V47.6055H149.833V46.3489H149.757C149.59 46.7363 149.323 47.0591 148.954 47.3173C148.589 47.5724 148.134 47.6999 147.589 47.6999C147.123 47.6999 146.71 47.5976 146.351 47.3929C145.996 47.185 145.715 46.878 145.511 46.4717C145.309 46.0655 145.208 45.5632 145.208 44.9648V40.3495H146.621V44.7947C146.621 45.2892 146.758 45.6828 147.032 45.9757C147.306 46.2686 147.661 46.415 148.099 46.415C148.364 46.415 148.627 46.3489 148.888 46.2166C149.153 46.0844 149.372 45.8844 149.545 45.6167C149.721 45.349 149.808 45.0089 149.805 44.5963ZM153.12 47.6055V40.3495H154.485V41.5022H154.56C154.693 41.1116 154.926 40.8046 155.26 40.581C155.596 40.3542 155.978 40.2409 156.403 40.2409C156.491 40.2409 156.595 40.244 156.714 40.2503C156.837 40.2566 156.933 40.2645 157.003 40.2739V41.625C156.946 41.6092 156.845 41.5919 156.7 41.573C156.555 41.551 156.411 41.54 156.266 41.54C155.932 41.54 155.634 41.6108 155.373 41.7525C155.115 41.8911 154.91 42.0848 154.759 42.3336C154.608 42.5792 154.532 42.8595 154.532 43.1744V47.6055H153.12ZM163.158 43.2973V47.6055H161.745V40.3495H163.101V41.5305H163.191C163.358 41.1463 163.619 40.8377 163.975 40.6046C164.334 40.3716 164.786 40.255 165.331 40.255C165.825 40.255 166.258 40.359 166.63 40.5668C167.002 40.7715 167.29 41.077 167.494 41.4833C167.699 41.8895 167.802 42.3918 167.802 42.9902V47.6055H166.389V43.1603C166.389 42.6343 166.252 42.2233 165.978 41.9273C165.704 41.6281 165.328 41.4785 164.849 41.4785C164.522 41.4785 164.23 41.5494 163.975 41.6911C163.723 41.8328 163.523 42.0407 163.375 42.3147C163.23 42.5855 163.158 42.913 163.158 43.2973ZM171.807 47.7661C171.348 47.7661 170.932 47.6811 170.56 47.511C170.189 47.3378 169.894 47.0874 169.677 46.7599C169.463 46.4324 169.356 46.0308 169.356 45.5553C169.356 45.1459 169.434 44.8089 169.592 44.5444C169.749 44.2798 169.962 44.0704 170.23 43.9161C170.497 43.7618 170.796 43.6452 171.127 43.5665C171.458 43.4878 171.795 43.4279 172.138 43.387C172.573 43.3366 172.925 43.2957 173.196 43.2642C173.467 43.2295 173.664 43.1744 173.787 43.0988C173.91 43.0233 173.971 42.9004 173.971 42.7304V42.6973C173.971 42.2848 173.854 41.9651 173.621 41.7384C173.392 41.5116 173.048 41.3982 172.592 41.3982C172.116 41.3982 171.741 41.5037 171.467 41.7147C171.196 41.9226 171.009 42.1541 170.905 42.4092L169.578 42.1068C169.735 41.6659 169.965 41.3101 170.267 41.0392C170.573 40.7652 170.924 40.5668 171.321 40.444C171.718 40.318 172.135 40.255 172.573 40.255C172.862 40.255 173.169 40.2897 173.494 40.359C173.821 40.4251 174.127 40.5479 174.41 40.7274C174.697 40.9069 174.932 41.1636 175.114 41.4974C175.297 41.8281 175.388 42.258 175.388 42.7871V47.6055H174.009V46.6134H173.952C173.861 46.7961 173.724 46.9756 173.541 47.152C173.358 47.3283 173.124 47.4748 172.837 47.5913C172.551 47.7078 172.207 47.7661 171.807 47.7661ZM172.114 46.6323C172.505 46.6323 172.839 46.5552 173.116 46.4009C173.396 46.2466 173.609 46.045 173.754 45.7962C173.902 45.5443 173.976 45.275 173.976 44.9884V44.0531C173.925 44.1035 173.828 44.1507 173.683 44.1948C173.541 44.2357 173.379 44.272 173.196 44.3034C173.014 44.3318 172.836 44.3586 172.662 44.3838C172.489 44.4058 172.344 44.4247 172.228 44.4404C171.954 44.4751 171.703 44.5333 171.477 44.6152C171.253 44.6971 171.074 44.8152 170.938 44.9695C170.806 45.1207 170.74 45.3222 170.74 45.5742C170.74 45.9238 170.869 46.1883 171.127 46.3678C171.385 46.5442 171.715 46.6323 172.114 46.6323ZM177.269 47.6055V40.3495H178.625V41.5305H178.715C178.866 41.1305 179.113 40.8188 179.457 40.5952C179.8 40.3684 180.211 40.255 180.69 40.255C181.175 40.255 181.581 40.3684 181.908 40.5952C182.239 40.8219 182.483 41.1337 182.641 41.5305H182.716C182.889 41.1431 183.165 40.8345 183.543 40.6046C183.921 40.3716 184.371 40.255 184.894 40.255C185.552 40.255 186.089 40.4613 186.505 40.8739C186.924 41.2864 187.133 41.9084 187.133 42.7398V47.6055H185.721V42.8721C185.721 42.3808 185.587 42.0249 185.319 41.8045C185.051 41.584 184.732 41.4738 184.36 41.4738C183.9 41.4738 183.543 41.6155 183.288 41.899C183.033 42.1793 182.905 42.5398 182.905 42.9807V47.6055H181.497V42.7823C181.497 42.3887 181.375 42.0722 181.129 41.8328C180.883 41.5935 180.564 41.4738 180.17 41.4738C179.902 41.4738 179.655 41.5447 179.428 41.6864C179.205 41.825 179.024 42.0186 178.885 42.2674C178.75 42.5162 178.682 42.8044 178.682 43.1319V47.6055H177.269ZM192.153 47.7519C191.438 47.7519 190.823 47.5992 190.306 47.2937C189.793 46.9851 189.396 46.552 189.116 45.9946C188.839 45.434 188.7 44.7774 188.7 44.0247C188.7 43.2815 188.839 42.6265 189.116 42.0596C189.396 41.4927 189.787 41.0502 190.287 40.7322C190.791 40.4141 191.38 40.255 192.054 40.255C192.464 40.255 192.86 40.3228 193.245 40.4582C193.629 40.5936 193.974 40.8062 194.279 41.0959C194.585 41.3856 194.826 41.762 195.002 42.2249C195.178 42.6847 195.266 43.2437 195.266 43.9019V44.4026H189.499V43.3445H193.882C193.882 42.9729 193.807 42.6438 193.656 42.3572C193.504 42.0675 193.292 41.8391 193.018 41.6722C192.747 41.5053 192.429 41.4219 192.064 41.4219C191.667 41.4219 191.32 41.5195 191.024 41.7147C190.731 41.9068 190.505 42.1588 190.344 42.4706C190.187 42.7792 190.108 43.1146 190.108 43.4768V44.3034C190.108 44.7884 190.193 45.201 190.363 45.5411C190.536 45.8812 190.777 46.1411 191.086 46.3206C191.394 46.4969 191.755 46.5851 192.168 46.5851C192.435 46.5851 192.679 46.5473 192.9 46.4717C193.12 46.393 193.311 46.2765 193.471 46.1222C193.632 45.9678 193.755 45.7773 193.84 45.5506L195.177 45.7915C195.07 46.1851 194.877 46.53 194.6 46.826C194.326 47.1189 193.982 47.3472 193.566 47.511C193.153 47.6716 192.682 47.7519 192.153 47.7519ZM198.378 44.8231V44.7333C198.385 44.1476 198.443 43.6815 198.553 43.335C198.666 42.9886 198.827 42.7083 199.035 42.4942C199.243 42.28 199.493 42.0848 199.786 41.9084C199.975 41.7887 200.145 41.6549 200.296 41.5069C200.447 41.3589 200.567 41.1888 200.655 40.9967C200.743 40.8046 200.788 40.592 200.788 40.359C200.788 40.0787 200.721 39.8362 200.589 39.6315C200.457 39.4268 200.28 39.2693 200.06 39.1591C199.843 39.0457 199.6 38.989 199.333 38.989C199.09 38.989 198.859 39.0394 198.638 39.1402C198.418 39.241 198.235 39.3984 198.09 39.6126C197.945 39.8236 197.862 40.096 197.84 40.4298H196.404C196.426 39.863 196.569 39.3843 196.834 38.9938C197.098 38.6001 197.448 38.3025 197.882 38.1009C198.32 37.8994 198.803 37.7986 199.333 37.7986C199.912 37.7986 200.419 37.9073 200.854 38.1246C201.288 38.3387 201.625 38.6395 201.865 39.0268C202.107 39.411 202.228 39.8598 202.228 40.3731C202.228 40.7259 202.173 41.0439 202.063 41.3274C201.953 41.6077 201.795 41.858 201.591 42.0785C201.389 42.2989 201.147 42.4942 200.863 42.6642C200.595 42.8312 200.378 43.0044 200.211 43.1839C200.047 43.3634 199.928 43.576 199.852 43.8216C199.777 44.0672 199.736 44.3712 199.729 44.7333V44.8231H198.378ZM199.092 47.6952C198.833 47.6952 198.611 47.6039 198.426 47.4212C198.24 47.2354 198.147 47.0118 198.147 46.7504C198.147 46.4922 198.24 46.2717 198.426 46.0891C198.611 45.9033 198.833 45.8104 199.092 45.8104C199.347 45.8104 199.567 45.9033 199.753 46.0891C199.942 46.2717 200.036 46.4922 200.036 46.7504C200.036 46.9236 199.992 47.0827 199.904 47.2276C199.819 47.3693 199.706 47.4826 199.564 47.5677C199.422 47.6527 199.265 47.6952 199.092 47.6952Z" fill="#333333"/>
<rect x="46.337" y="57.0109" width="427.261" height="32.4355" rx="3.24352" fill="#F7F7F7"/>
<path d="M111.834 78.1667C111.834 78.3877 111.921 78.5996 112.078 78.7559C112.234 78.9122 112.446 79 112.667 79H114.334V80.6667H112.25C111.792 80.6667 111 80.2917 111 79.8333C111 80.2917 110.209 80.6667 109.75 80.6667H107.667V79H109.334C109.555 79 109.767 78.9122 109.923 78.7559C110.079 78.5996 110.167 78.3877 110.167 78.1667V66.5C110.167 66.279 110.079 66.067 109.923 65.9107C109.767 65.7545 109.555 65.6667 109.334 65.6667H107.667V64H109.75C110.209 64 111 64.375 111 64.8333C111 64.375 111.792 64 112.25 64H114.334V65.6667H112.667C112.446 65.6667 112.234 65.7545 112.078 65.9107C111.921 66.067 111.834 66.279 111.834 66.5V78.1667Z" fill="#9F9F9F"/>
<path d="M62.4501 77H61.3145L64.5991 68.0545H65.7173L69.002 77H67.8663L65.1932 69.4697H65.1233L62.4501 77ZM62.8695 73.5057H67.447V74.4666H62.8695V73.5057ZM71.2864 72.9641V77H70.2556V70.2909H71.2515V71.3392H71.3388C71.4961 70.9985 71.7348 70.7248 72.0551 70.518C72.3755 70.3084 72.789 70.2036 73.2956 70.2036C73.7499 70.2036 74.1474 70.2967 74.4881 70.4831C74.8288 70.6665 75.0938 70.9461 75.283 71.3217C75.4723 71.6945 75.5669 72.1662 75.5669 72.7369V77H74.5361V72.8068C74.5361 72.2798 74.3993 71.8692 74.1255 71.5751C73.8518 71.2781 73.4762 71.1295 72.9986 71.1295C72.6696 71.1295 72.3755 71.2009 72.1163 71.3436C71.8601 71.4863 71.6577 71.6945 71.5092 71.9682C71.3607 72.2419 71.2864 72.5739 71.2864 72.9641ZM79.984 77.1398C79.4249 77.1398 78.9313 76.9985 78.5033 76.7161C78.0752 76.4307 77.7403 76.0289 77.4986 75.5105C77.257 74.9893 77.1361 74.3734 77.1361 73.6629C77.1361 72.9582 77.257 72.3467 77.4986 71.8284C77.7403 71.3101 78.0767 70.9097 78.5076 70.6272C78.9386 70.3448 79.4365 70.2036 80.0014 70.2036C80.4382 70.2036 80.7833 70.2763 81.0366 70.4219C81.2929 70.5646 81.488 70.7277 81.6219 70.9112C81.7588 71.0917 81.8651 71.2402 81.9408 71.3567H82.0282V68.0545H83.059V77H82.0631V75.9692H81.9408C81.8651 76.0915 81.7573 76.2458 81.6176 76.4322C81.4778 76.6156 81.2783 76.7801 81.0192 76.9257C80.76 77.0684 80.4149 77.1398 79.984 77.1398ZM80.1237 76.2138C80.5372 76.2138 80.8867 76.106 81.172 75.8906C81.4574 75.6722 81.6744 75.3708 81.8229 74.9864C81.9714 74.5991 82.0456 74.1521 82.0456 73.6455C82.0456 73.1446 81.9728 72.7064 81.8272 72.3307C81.6816 71.9522 81.4661 71.6581 81.1808 71.4484C80.8954 71.2358 80.5431 71.1295 80.1237 71.1295C79.687 71.1295 79.323 71.2417 79.0318 71.4659C78.7435 71.6872 78.5266 71.9886 78.381 72.37C78.2383 72.7486 78.1669 73.1737 78.1669 73.6455C78.1669 74.123 78.2397 74.5569 78.3853 74.9471C78.5338 75.3344 78.7522 75.643 79.0405 75.8731C79.3317 76.1002 79.6928 76.2138 80.1237 76.2138ZM85.09 77V70.2909H86.0859V71.3043H86.1558C86.2781 70.9723 86.4994 70.7029 86.8197 70.4962C87.14 70.2895 87.5011 70.1861 87.903 70.1861C87.9787 70.1861 88.0733 70.1875 88.1869 70.1904C88.3005 70.1934 88.3864 70.1977 88.4446 70.2036V71.2518C88.4097 71.2431 88.3296 71.23 88.2044 71.2125C88.0821 71.1922 87.9525 71.182 87.8156 71.182C87.4895 71.182 87.1983 71.2504 86.942 71.3873C86.6887 71.5212 86.4878 71.7076 86.3393 71.9463C86.1937 72.1822 86.1209 72.4516 86.1209 72.7544V77H85.09ZM92.2752 77.1398C91.6288 77.1398 91.0712 76.9971 90.6023 76.7117C90.1364 76.4234 89.7768 76.0216 89.5235 75.5062C89.273 74.9879 89.1478 74.3851 89.1478 73.6979C89.1478 73.0107 89.273 72.405 89.5235 71.8808C89.7768 71.3538 90.1291 70.9432 90.5805 70.6491C91.0348 70.3521 91.5647 70.2036 92.1704 70.2036C92.5198 70.2036 92.8649 70.2618 93.2056 70.3783C93.5463 70.4947 93.8564 70.684 94.136 70.9461C94.4155 71.2053 94.6383 71.5489 94.8043 71.9769C94.9702 72.405 95.0532 72.932 95.0532 73.5581V73.9949H89.8816V73.1038H94.0049C94.0049 72.7253 93.9292 72.3875 93.7778 72.0905C93.6293 71.7935 93.4167 71.5591 93.1401 71.3873C92.8664 71.2154 92.5431 71.1295 92.1704 71.1295C91.7598 71.1295 91.4046 71.2315 91.1046 71.4353C90.8076 71.6362 90.579 71.8983 90.4189 72.2215C90.2587 72.5447 90.1786 72.8913 90.1786 73.2611V73.8551C90.1786 74.3618 90.266 74.7913 90.4407 75.1436C90.6184 75.4931 90.8644 75.7595 91.1789 75.943C91.4934 76.1235 91.8588 76.2138 92.2752 76.2138C92.5461 76.2138 92.7907 76.1759 93.009 76.1002C93.2304 76.0216 93.4211 75.9051 93.5812 75.7508C93.7414 75.5935 93.8652 75.3984 93.9525 75.1655L94.9484 75.445C94.8436 75.7828 94.6674 76.0798 94.4199 76.3361C94.1724 76.5894 93.8666 76.7874 93.5026 76.9301C93.1386 77.0699 92.7295 77.1398 92.2752 77.1398ZM98.1413 77L96.0972 70.2909H97.1804L98.6305 75.4276H98.7004L100.133 70.2909H101.234L102.649 75.4101H102.719L104.169 70.2909H105.252L103.208 77H102.195L100.727 71.8459H100.622L99.1547 77H98.1413Z" fill="#333333"/>
<rect x="46.337" y="57.0109" width="427.261" height="32.4355" rx="3.24352" stroke="#EFEFEF" stroke-width="2.16235"/>
<path d="M66.1642 126.484V116.81H69.7922C70.5354 116.81 71.159 116.948 71.6628 117.225C72.1699 117.503 72.5525 117.884 72.8108 118.369C73.0721 118.851 73.2028 119.398 73.2028 120.013C73.2028 120.633 73.0721 121.184 72.8108 121.666C72.5494 122.148 72.1636 122.527 71.6534 122.804C71.1432 123.078 70.5149 123.215 69.7685 123.215H67.3641V121.775H69.5324C69.967 121.775 70.3228 121.699 70.6 121.548C70.8771 121.397 71.0818 121.189 71.2141 120.924C71.3495 120.66 71.4172 120.356 71.4172 120.013C71.4172 119.669 71.3495 119.367 71.2141 119.106C71.0818 118.844 70.8755 118.641 70.5952 118.496C70.3181 118.348 69.9607 118.274 69.5229 118.274H67.9168V126.484H66.1642ZM74.6495 126.484V119.228H76.3076V120.438H76.3832C76.5155 120.019 76.7422 119.696 77.0635 119.469C77.3878 119.239 77.7579 119.125 78.1736 119.125C78.2681 119.125 78.3736 119.129 78.4901 119.139C78.6098 119.145 78.709 119.156 78.7877 119.172V120.745C78.7153 120.72 78.6003 120.698 78.4429 120.679C78.2885 120.657 78.1389 120.646 77.9941 120.646C77.6823 120.646 77.402 120.713 77.1532 120.849C76.9076 120.981 76.7139 121.165 76.5722 121.401C76.4305 121.638 76.3596 121.91 76.3596 122.219V126.484H74.6495ZM82.8373 126.626C82.1098 126.626 81.4815 126.475 80.9524 126.173C80.4265 125.867 80.0218 125.436 79.7384 124.878C79.455 124.318 79.3132 123.658 79.3132 122.899C79.3132 122.153 79.455 121.497 79.7384 120.934C80.025 120.367 80.4249 119.926 80.9383 119.611C81.4516 119.293 82.0547 119.134 82.7475 119.134C83.1947 119.134 83.6167 119.206 84.0135 119.351C84.4135 119.493 84.7662 119.713 85.0717 120.013C85.3803 120.312 85.6228 120.693 85.7992 121.156C85.9755 121.616 86.0637 122.164 86.0637 122.8V123.324H80.1163V122.171H84.4245C84.4214 121.844 84.3505 121.553 84.2119 121.298C84.0734 121.039 83.8797 120.836 83.6309 120.688C83.3853 120.54 83.0987 120.466 82.7711 120.466C82.4216 120.466 82.1145 120.551 81.85 120.721C81.5854 120.888 81.3792 121.109 81.2311 121.383C81.0863 121.653 81.0123 121.951 81.0091 122.275V123.282C81.0091 123.704 81.0863 124.066 81.2406 124.368C81.3949 124.667 81.6106 124.897 81.8878 125.058C82.1649 125.215 82.4893 125.294 82.8609 125.294C83.1097 125.294 83.3349 125.259 83.5364 125.19C83.738 125.118 83.9128 125.012 84.0608 124.874C84.2088 124.735 84.3206 124.563 84.3962 124.359L85.9929 124.538C85.8921 124.96 85.7 125.329 85.4165 125.644C85.1363 125.955 84.7772 126.198 84.3395 126.371C83.9017 126.541 83.401 126.626 82.8373 126.626ZM93.7838 119.228L91.1998 126.484H89.3102L86.7263 119.228H88.5497L90.2172 124.618H90.2928L91.9651 119.228H93.7838Z" fill="#A58CF0"/>
<rect x="45.6716" y="104.248" width="68.0763" height="36.4712" rx="6.23558" stroke="#A58CF0" stroke-width="0.831411"/>
<rect x="403.771" y="103.832" width="70.9077" height="37.3026" rx="6.65128" fill="#A58CF0"/>
<path d="M432.63 116.81V126.484H431.071L426.513 119.895H426.432V126.484H424.68V116.81H426.248L430.802 123.404H430.887V116.81H432.63ZM437.677 126.626C436.949 126.626 436.321 126.475 435.792 126.173C435.266 125.867 434.861 125.436 434.578 124.878C434.294 124.318 434.152 123.658 434.152 122.899C434.152 122.153 434.294 121.497 434.578 120.934C434.864 120.367 435.264 119.926 435.777 119.611C436.291 119.293 436.894 119.134 437.587 119.134C438.034 119.134 438.456 119.206 438.853 119.351C439.253 119.493 439.605 119.713 439.911 120.013C440.22 120.312 440.462 120.693 440.638 121.156C440.815 121.616 440.903 122.164 440.903 122.8V123.324H434.956V122.171H439.264C439.261 121.844 439.19 121.553 439.051 121.298C438.913 121.039 438.719 120.836 438.47 120.688C438.224 120.54 437.938 120.466 437.61 120.466C437.261 120.466 436.954 120.551 436.689 120.721C436.425 120.888 436.218 121.109 436.07 121.383C435.926 121.653 435.852 121.951 435.848 122.275V123.282C435.848 123.704 435.926 124.066 436.08 124.368C436.234 124.667 436.45 124.897 436.727 125.058C437.004 125.215 437.329 125.294 437.7 125.294C437.949 125.294 438.174 125.259 438.376 125.19C438.577 125.118 438.752 125.012 438.9 124.874C439.048 124.735 439.16 124.563 439.235 124.359L440.832 124.538C440.731 124.96 440.539 125.329 440.256 125.644C439.975 125.955 439.616 126.198 439.179 126.371C438.741 126.541 438.24 126.626 437.677 126.626ZM443.592 119.228L445.056 121.907L446.545 119.228H448.354L446.167 122.856L448.392 126.484H446.592L445.056 123.872L443.535 126.484H441.721L443.932 122.856L441.778 119.228H443.592ZM453.3 119.228V120.551H449.128V119.228H453.3ZM450.158 117.49H451.868V124.302C451.868 124.532 451.903 124.708 451.972 124.831C452.045 124.951 452.139 125.033 452.256 125.077C452.372 125.121 452.501 125.143 452.643 125.143C452.75 125.143 452.848 125.135 452.936 125.119C453.027 125.103 453.097 125.089 453.144 125.077L453.432 126.414C453.341 126.445 453.21 126.48 453.04 126.517C452.873 126.555 452.668 126.577 452.426 126.584C451.997 126.596 451.612 126.532 451.268 126.39C450.925 126.245 450.653 126.021 450.451 125.719C450.253 125.417 450.155 125.039 450.158 124.585V117.49Z" fill="white"/>
</g>
<g filter="url(#filter1_dd_5222_13532)">
<rect x="117.95" y="191.258" width="495.936" height="164.13" rx="6.65115" fill="white" shape-rendering="crispEdges"/>
<path d="M153.086 232.863H151.537L155.018 223.189H156.705L160.186 232.863H158.637L155.902 224.946H155.826L153.086 232.863ZM153.346 229.075H158.372V230.303H153.346V229.075ZM161.47 232.863V225.607H162.835V226.76H162.911C163.043 226.37 163.276 226.063 163.61 225.839C163.947 225.612 164.328 225.499 164.753 225.499C164.841 225.499 164.945 225.502 165.065 225.508C165.187 225.515 165.283 225.522 165.353 225.532V226.883C165.296 226.867 165.195 226.85 165.05 226.831C164.906 226.809 164.761 226.798 164.616 226.798C164.282 226.798 163.984 226.869 163.723 227.01C163.465 227.149 163.26 227.343 163.109 227.591C162.958 227.837 162.882 228.117 162.882 228.432V232.863H161.47ZM169.442 233.01C168.728 233.01 168.112 232.857 167.595 232.552C167.082 232.243 166.685 231.81 166.405 231.252C166.128 230.692 165.989 230.035 165.989 229.283C165.989 228.539 166.128 227.884 166.405 227.318C166.685 226.751 167.076 226.308 167.576 225.99C168.08 225.672 168.669 225.513 169.343 225.513C169.753 225.513 170.149 225.581 170.534 225.716C170.918 225.852 171.263 226.064 171.568 226.354C171.874 226.644 172.114 227.02 172.291 227.483C172.467 227.943 172.555 228.502 172.555 229.16V229.661H166.788V228.602H171.171C171.171 228.231 171.096 227.902 170.945 227.615C170.793 227.325 170.581 227.097 170.307 226.93C170.036 226.763 169.718 226.68 169.353 226.68C168.956 226.68 168.609 226.777 168.313 226.973C168.021 227.165 167.794 227.417 167.633 227.728C167.476 228.037 167.397 228.372 167.397 228.735V229.561C167.397 230.046 167.482 230.459 167.652 230.799C167.825 231.139 168.066 231.399 168.375 231.578C168.683 231.755 169.044 231.843 169.457 231.843C169.724 231.843 169.968 231.805 170.189 231.73C170.409 231.651 170.6 231.534 170.76 231.38C170.921 231.226 171.044 231.035 171.129 230.808L172.466 231.049C172.359 231.443 172.166 231.788 171.889 232.084C171.615 232.377 171.271 232.605 170.855 232.769C170.442 232.929 169.971 233.01 169.442 233.01ZM178.536 235.584C178.325 235.584 178.133 235.567 177.959 235.532C177.786 235.501 177.657 235.466 177.572 235.428L177.912 234.271C178.17 234.34 178.4 234.37 178.602 234.361C178.803 234.351 178.981 234.276 179.136 234.134C179.293 233.992 179.432 233.761 179.551 233.44L179.726 232.958L177.071 225.607H178.583L180.421 231.238H180.496L182.334 225.607H183.85L180.86 233.832C180.721 234.21 180.545 234.529 180.331 234.791C180.117 235.055 179.862 235.254 179.566 235.386C179.27 235.518 178.926 235.584 178.536 235.584ZM187.987 233.01C187.307 233.01 186.713 232.854 186.206 232.542C185.699 232.23 185.305 231.794 185.025 231.234C184.745 230.673 184.605 230.018 184.605 229.268C184.605 228.516 184.745 227.858 185.025 227.294C185.305 226.73 185.699 226.292 186.206 225.981C186.713 225.669 187.307 225.513 187.987 225.513C188.667 225.513 189.261 225.669 189.768 225.981C190.275 226.292 190.669 226.73 190.949 227.294C191.229 227.858 191.369 228.516 191.369 229.268C191.369 230.018 191.229 230.673 190.949 231.234C190.669 231.794 190.275 232.23 189.768 232.542C189.261 232.854 188.667 233.01 187.987 233.01ZM187.992 231.824C188.433 231.824 188.798 231.708 189.088 231.474C189.377 231.241 189.591 230.931 189.73 230.544C189.872 230.157 189.943 229.73 189.943 229.264C189.943 228.801 189.872 228.376 189.73 227.988C189.591 227.598 189.377 227.284 189.088 227.048C188.798 226.812 188.433 226.694 187.992 226.694C187.548 226.694 187.179 226.812 186.886 227.048C186.597 227.284 186.381 227.598 186.239 227.988C186.101 228.376 186.031 228.801 186.031 229.264C186.031 229.73 186.101 230.157 186.239 230.544C186.381 230.931 186.597 231.241 186.886 231.474C187.179 231.708 187.548 231.824 187.992 231.824ZM197.542 229.854V225.607H198.959V232.863H197.57V231.607H197.495C197.328 231.994 197.06 232.317 196.692 232.575C196.326 232.83 195.871 232.958 195.327 232.958C194.861 232.958 194.448 232.855 194.089 232.651C193.733 232.443 193.453 232.136 193.248 231.73C193.047 231.323 192.946 230.821 192.946 230.223V225.607H194.358V230.053C194.358 230.547 194.495 230.941 194.769 231.234C195.043 231.526 195.399 231.673 195.837 231.673C196.101 231.673 196.364 231.607 196.626 231.474C196.89 231.342 197.109 231.142 197.282 230.875C197.459 230.607 197.545 230.267 197.542 229.854ZM204.377 232.863V225.607H205.743V226.76H205.818C205.95 226.37 206.184 226.063 206.517 225.839C206.854 225.612 207.235 225.499 207.661 225.499C207.749 225.499 207.853 225.502 207.972 225.508C208.095 225.515 208.191 225.522 208.26 225.532V226.883C208.204 226.867 208.103 226.85 207.958 226.831C207.813 226.809 207.668 226.798 207.524 226.798C207.19 226.798 206.892 226.869 206.631 227.01C206.372 227.149 206.168 227.343 206.017 227.591C205.865 227.837 205.79 228.117 205.79 228.432V232.863H204.377ZM212.35 233.01C211.635 233.01 211.02 232.857 210.503 232.552C209.99 232.243 209.593 231.81 209.313 231.252C209.036 230.692 208.897 230.035 208.897 229.283C208.897 228.539 209.036 227.884 209.313 227.318C209.593 226.751 209.983 226.308 210.484 225.99C210.988 225.672 211.577 225.513 212.251 225.513C212.66 225.513 213.057 225.581 213.441 225.716C213.825 225.852 214.17 226.064 214.476 226.354C214.781 226.644 215.022 227.02 215.199 227.483C215.375 227.943 215.463 228.502 215.463 229.16V229.661H209.695V228.602H214.079C214.079 228.231 214.003 227.902 213.852 227.615C213.701 227.325 213.489 227.097 213.215 226.93C212.944 226.763 212.626 226.68 212.26 226.68C211.864 226.68 211.517 226.777 211.221 226.973C210.928 227.165 210.701 227.417 210.541 227.728C210.383 228.037 210.305 228.372 210.305 228.735V229.561C210.305 230.046 210.39 230.459 210.56 230.799C210.733 231.139 210.974 231.399 211.282 231.578C211.591 231.755 211.952 231.843 212.364 231.843C212.632 231.843 212.876 231.805 213.096 231.73C213.317 231.651 213.507 231.534 213.668 231.38C213.829 231.226 213.951 231.035 214.036 230.808L215.373 231.049C215.266 231.443 215.074 231.788 214.797 232.084C214.523 232.377 214.178 232.605 213.763 232.769C213.35 232.929 212.879 233.01 212.35 233.01ZM219.142 233.024C218.682 233.024 218.266 232.939 217.895 232.769C217.523 232.596 217.229 232.345 217.011 232.018C216.797 231.69 216.69 231.289 216.69 230.813C216.69 230.404 216.769 230.067 216.926 229.802C217.084 229.538 217.296 229.328 217.564 229.174C217.832 229.02 218.131 228.903 218.462 228.824C218.792 228.746 219.129 228.686 219.472 228.645C219.907 228.595 220.26 228.554 220.531 228.522C220.801 228.487 220.998 228.432 221.121 228.357C221.244 228.281 221.305 228.158 221.305 227.988V227.955C221.305 227.543 221.189 227.223 220.956 226.996C220.726 226.77 220.383 226.656 219.926 226.656C219.45 226.656 219.076 226.762 218.802 226.973C218.531 227.181 218.343 227.412 218.24 227.667L216.912 227.365C217.07 226.924 217.299 226.568 217.602 226.297C217.907 226.023 218.258 225.825 218.655 225.702C219.052 225.576 219.469 225.513 219.907 225.513C220.197 225.513 220.504 225.548 220.828 225.617C221.156 225.683 221.461 225.806 221.745 225.985C222.031 226.165 222.266 226.422 222.448 226.755C222.631 227.086 222.722 227.516 222.722 228.045V232.863H221.343V231.871H221.286C221.195 232.054 221.058 232.233 220.875 232.41C220.693 232.586 220.458 232.733 220.172 232.849C219.885 232.966 219.542 233.024 219.142 233.024ZM219.449 231.89C219.839 231.89 220.173 231.813 220.45 231.659C220.731 231.504 220.943 231.303 221.088 231.054C221.236 230.802 221.31 230.533 221.31 230.246V229.311C221.26 229.361 221.162 229.409 221.017 229.453C220.875 229.494 220.713 229.53 220.531 229.561C220.348 229.59 220.17 229.616 219.997 229.642C219.824 229.664 219.679 229.683 219.562 229.698C219.288 229.733 219.038 229.791 218.811 229.873C218.588 229.955 218.408 230.073 218.273 230.227C218.14 230.379 218.074 230.58 218.074 230.832C218.074 231.182 218.203 231.446 218.462 231.626C218.72 231.802 219.049 231.89 219.449 231.89ZM227.32 233.005C226.734 233.005 226.211 232.855 225.752 232.556C225.295 232.254 224.936 231.824 224.675 231.267C224.416 230.706 224.287 230.034 224.287 229.25C224.287 228.465 224.418 227.795 224.679 227.237C224.944 226.68 225.306 226.253 225.766 225.957C226.226 225.661 226.747 225.513 227.329 225.513C227.78 225.513 228.142 225.589 228.416 225.74C228.693 225.888 228.907 226.061 229.058 226.259C229.213 226.458 229.332 226.633 229.417 226.784H229.502V223.189H230.915V232.863H229.535V231.734H229.417C229.332 231.889 229.209 232.065 229.049 232.263C228.891 232.462 228.674 232.635 228.397 232.783C228.12 232.931 227.761 233.005 227.32 233.005ZM227.632 231.8C228.038 231.8 228.381 231.693 228.661 231.479C228.945 231.262 229.159 230.961 229.304 230.577C229.452 230.193 229.526 229.746 229.526 229.235C229.526 228.732 229.453 228.291 229.309 227.913C229.164 227.535 228.951 227.24 228.671 227.029C228.391 226.818 228.044 226.713 227.632 226.713C227.207 226.713 226.852 226.823 226.569 227.044C226.285 227.264 226.071 227.565 225.926 227.946C225.785 228.327 225.714 228.757 225.714 229.235C225.714 229.72 225.786 230.157 225.931 230.544C226.076 230.931 226.29 231.238 226.574 231.465C226.86 231.689 227.213 231.8 227.632 231.8ZM233.823 235.584C233.612 235.584 233.42 235.567 233.247 235.532C233.074 235.501 232.945 235.466 232.86 235.428L233.2 234.271C233.458 234.34 233.688 234.37 233.89 234.361C234.091 234.351 234.269 234.276 234.423 234.134C234.581 233.992 234.719 233.761 234.839 233.44L235.014 232.958L232.359 225.607H233.871L235.708 231.238H235.784L237.621 225.607H239.138L236.148 233.832C236.009 234.21 235.833 234.529 235.618 234.791C235.404 235.055 235.149 235.254 234.853 235.386C234.557 235.518 234.214 235.584 233.823 235.584ZM247.373 225.607V226.741H243.409V225.607H247.373ZM244.472 223.869H245.885V230.733C245.885 231.007 245.925 231.213 246.007 231.352C246.089 231.487 246.195 231.58 246.324 231.63C246.456 231.678 246.599 231.701 246.754 231.701C246.867 231.701 246.966 231.693 247.051 231.678C247.136 231.662 247.202 231.649 247.25 231.64L247.505 232.807C247.423 232.838 247.306 232.87 247.155 232.901C247.004 232.936 246.815 232.955 246.588 232.958C246.217 232.964 245.87 232.898 245.549 232.759C245.228 232.621 244.968 232.407 244.77 232.117C244.571 231.827 244.472 231.463 244.472 231.026V223.869ZM251.913 233.01C251.233 233.01 250.639 232.854 250.132 232.542C249.625 232.23 249.232 231.794 248.951 231.234C248.671 230.673 248.531 230.018 248.531 229.268C248.531 228.516 248.671 227.858 248.951 227.294C249.232 226.73 249.625 226.292 250.132 225.981C250.639 225.669 251.233 225.513 251.913 225.513C252.594 225.513 253.187 225.669 253.694 225.981C254.201 226.292 254.595 226.73 254.875 227.294C255.155 227.858 255.296 228.516 255.296 229.268C255.296 230.018 255.155 230.673 254.875 231.234C254.595 231.794 254.201 232.23 253.694 232.542C253.187 232.854 252.594 233.01 251.913 233.01ZM251.918 231.824C252.359 231.824 252.724 231.708 253.014 231.474C253.304 231.241 253.518 230.931 253.656 230.544C253.798 230.157 253.869 229.73 253.869 229.264C253.869 228.801 253.798 228.376 253.656 227.988C253.518 227.598 253.304 227.284 253.014 227.048C252.724 226.812 252.359 226.694 251.918 226.694C251.474 226.694 251.106 226.812 250.813 227.048C250.523 227.284 250.307 227.598 250.165 227.988C250.027 228.376 249.958 228.801 249.958 229.264C249.958 229.73 250.027 230.157 250.165 230.544C250.307 230.931 250.523 231.241 250.813 231.474C251.106 231.708 251.474 231.824 251.918 231.824ZM260.506 232.863V223.189H261.918V226.784H262.003C262.085 226.633 262.203 226.458 262.358 226.259C262.512 226.061 262.726 225.888 263 225.74C263.274 225.589 263.636 225.513 264.087 225.513C264.672 225.513 265.195 225.661 265.655 225.957C266.115 226.253 266.475 226.68 266.737 227.237C267.001 227.795 267.133 228.465 267.133 229.25C267.133 230.034 267.003 230.706 266.741 231.267C266.48 231.824 266.121 232.254 265.664 232.556C265.208 232.855 264.687 233.005 264.101 233.005C263.66 233.005 263.299 232.931 263.019 232.783C262.742 232.635 262.525 232.462 262.367 232.263C262.21 232.065 262.088 231.889 262.003 231.734H261.885V232.863H260.506ZM261.89 229.235C261.89 229.746 261.964 230.193 262.112 230.577C262.26 230.961 262.474 231.262 262.754 231.479C263.035 231.693 263.378 231.8 263.784 231.8C264.206 231.8 264.559 231.689 264.842 231.465C265.126 231.238 265.34 230.931 265.485 230.544C265.633 230.157 265.707 229.72 265.707 229.235C265.707 228.757 265.634 228.327 265.49 227.946C265.348 227.565 265.134 227.264 264.847 227.044C264.564 226.823 264.209 226.713 263.784 226.713C263.375 226.713 263.028 226.818 262.745 227.029C262.465 227.24 262.252 227.535 262.107 227.913C261.962 228.291 261.89 228.732 261.89 229.235ZM271.847 233.01C271.132 233.01 270.516 232.857 270 232.552C269.486 232.243 269.09 231.81 268.809 231.252C268.532 230.692 268.394 230.035 268.394 229.283C268.394 228.539 268.532 227.884 268.809 227.318C269.09 226.751 269.48 226.308 269.981 225.99C270.485 225.672 271.074 225.513 271.747 225.513C272.157 225.513 272.554 225.581 272.938 225.716C273.322 225.852 273.667 226.064 273.972 226.354C274.278 226.644 274.519 227.02 274.695 227.483C274.872 227.943 274.96 228.502 274.96 229.16V229.661H269.192V228.602H273.576C273.576 228.231 273.5 227.902 273.349 227.615C273.198 227.325 272.985 227.097 272.711 226.93C272.44 226.763 272.122 226.68 271.757 226.68C271.36 226.68 271.014 226.777 270.718 226.973C270.425 227.165 270.198 227.417 270.037 227.728C269.88 228.037 269.801 228.372 269.801 228.735V229.561C269.801 230.046 269.886 230.459 270.056 230.799C270.23 231.139 270.47 231.399 270.779 231.578C271.088 231.755 271.448 231.843 271.861 231.843C272.129 231.843 272.373 231.805 272.593 231.73C272.813 231.651 273.004 231.534 273.165 231.38C273.325 231.226 273.448 231.035 273.533 230.808L274.87 231.049C274.763 231.443 274.571 231.788 274.294 232.084C274.02 232.377 273.675 232.605 273.259 232.769C272.847 232.929 272.376 233.01 271.847 233.01ZM279.569 235.735C278.993 235.735 278.497 235.66 278.081 235.509C277.668 235.357 277.331 235.157 277.07 234.909C276.809 234.66 276.613 234.388 276.484 234.091L277.698 233.591C277.783 233.729 277.897 233.876 278.038 234.03C278.183 234.188 278.379 234.321 278.624 234.432C278.873 234.542 279.193 234.597 279.583 234.597C280.118 234.597 280.561 234.466 280.911 234.205C281.26 233.947 281.435 233.534 281.435 232.967V231.541H281.345C281.26 231.695 281.137 231.867 280.977 232.056C280.819 232.244 280.602 232.408 280.325 232.547C280.048 232.685 279.687 232.755 279.243 232.755C278.67 232.755 278.153 232.621 277.694 232.353C277.237 232.082 276.875 231.684 276.607 231.158C276.343 230.629 276.21 229.979 276.21 229.207C276.21 228.435 276.341 227.774 276.602 227.223C276.867 226.672 277.229 226.25 277.689 225.957C278.149 225.661 278.67 225.513 279.252 225.513C279.703 225.513 280.067 225.589 280.344 225.74C280.621 225.888 280.837 226.061 280.991 226.259C281.148 226.458 281.27 226.633 281.355 226.784H281.458V225.607H282.843V233.024C282.843 233.647 282.698 234.159 282.408 234.559C282.118 234.959 281.726 235.255 281.232 235.447C280.74 235.639 280.186 235.735 279.569 235.735ZM279.555 231.583C279.961 231.583 280.304 231.489 280.585 231.3C280.868 231.108 281.082 230.834 281.227 230.478C281.375 230.119 281.449 229.689 281.449 229.188C281.449 228.7 281.377 228.27 281.232 227.899C281.087 227.527 280.874 227.237 280.594 227.029C280.314 226.818 279.967 226.713 279.555 226.713C279.13 226.713 278.775 226.823 278.492 227.044C278.208 227.261 277.994 227.557 277.849 227.932C277.708 228.306 277.637 228.725 277.637 229.188C277.637 229.664 277.709 230.081 277.854 230.44C277.999 230.799 278.213 231.079 278.497 231.281C278.783 231.482 279.136 231.583 279.555 231.583ZM284.737 232.863V225.607H286.149V232.863H284.737ZM285.45 224.488C285.204 224.488 284.993 224.406 284.817 224.242C284.644 224.075 284.557 223.877 284.557 223.647C284.557 223.414 284.644 223.216 284.817 223.052C284.993 222.885 285.204 222.802 285.45 222.802C285.696 222.802 285.905 222.885 286.078 223.052C286.255 223.216 286.343 223.414 286.343 223.647C286.343 223.877 286.255 224.075 286.078 224.242C285.905 224.406 285.696 224.488 285.45 224.488ZM289.462 228.555V232.863H288.049V225.607H289.405V226.788H289.495C289.662 226.404 289.923 226.096 290.279 225.863C290.638 225.63 291.09 225.513 291.635 225.513C292.129 225.513 292.562 225.617 292.934 225.825C293.305 226.029 293.594 226.335 293.798 226.741C294.003 227.147 294.105 227.65 294.105 228.248V232.863H292.693V228.418C292.693 227.892 292.556 227.481 292.282 227.185C292.008 226.886 291.632 226.736 291.153 226.736C290.825 226.736 290.534 226.807 290.279 226.949C290.027 227.091 289.827 227.299 289.679 227.573C289.534 227.843 289.462 228.171 289.462 228.555ZM297.837 231.541L297.766 232.056C297.719 232.433 297.639 232.827 297.525 233.236C297.415 233.649 297.3 234.032 297.181 234.384C297.064 234.737 296.968 235.017 296.892 235.225H295.891C295.932 235.03 295.989 234.765 296.061 234.432C296.133 234.101 296.204 233.731 296.274 233.321C296.343 232.912 296.395 232.495 296.429 232.07L296.477 231.541H297.837Z" fill="#333333"/>
<rect x="303.852" y="218.219" width="59.2902" height="19.2902" rx="4.64511" fill="#4F3895"/>
<path d="M310.377 232.863H308.828L312.309 223.189H313.996L317.477 232.863H315.928L313.193 224.946H313.117L310.377 232.863ZM310.637 229.075H315.663V230.303H310.637V229.075ZM320.173 228.555V232.863H318.761V225.607H320.117V226.788H320.206C320.373 226.404 320.635 226.096 320.99 225.863C321.349 225.63 321.801 225.513 322.346 225.513C322.841 225.513 323.274 225.617 323.645 225.825C324.017 226.029 324.305 226.335 324.51 226.741C324.714 227.147 324.817 227.65 324.817 228.248V232.863H323.404V228.418C323.404 227.892 323.267 227.481 322.993 227.185C322.719 226.886 322.343 226.736 321.864 226.736C321.537 226.736 321.245 226.807 320.99 226.949C320.738 227.091 320.538 227.299 320.39 227.573C320.246 227.843 320.173 228.171 320.173 228.555ZM329.427 233.005C328.841 233.005 328.319 232.855 327.859 232.556C327.402 232.254 327.043 231.824 326.782 231.267C326.524 230.706 326.394 230.034 326.394 229.25C326.394 228.465 326.525 227.795 326.787 227.237C327.051 226.68 327.413 226.253 327.873 225.957C328.333 225.661 328.854 225.513 329.437 225.513C329.887 225.513 330.249 225.589 330.523 225.74C330.8 225.888 331.014 226.061 331.166 226.259C331.32 226.458 331.44 226.633 331.525 226.784H331.61V223.189H333.022V232.863H331.643V231.734H331.525C331.44 231.889 331.317 232.065 331.156 232.263C330.999 232.462 330.781 232.635 330.504 232.783C330.227 232.931 329.868 233.005 329.427 233.005ZM329.739 231.8C330.145 231.8 330.488 231.693 330.769 231.479C331.052 231.262 331.266 230.961 331.411 230.577C331.559 230.193 331.633 229.746 331.633 229.235C331.633 228.732 331.561 228.291 331.416 227.913C331.271 227.535 331.058 227.24 330.778 227.029C330.498 226.818 330.151 226.713 329.739 226.713C329.314 226.713 328.96 226.823 328.676 227.044C328.393 227.264 328.178 227.565 328.034 227.946C327.892 228.327 327.821 228.757 327.821 229.235C327.821 229.72 327.893 230.157 328.038 230.544C328.183 230.931 328.397 231.238 328.681 231.465C328.967 231.689 329.32 231.8 329.739 231.8ZM335.038 232.863V225.607H336.403V226.76H336.479C336.611 226.37 336.844 226.063 337.178 225.839C337.515 225.612 337.896 225.499 338.321 225.499C338.409 225.499 338.513 225.502 338.633 225.508C338.756 225.515 338.852 225.522 338.921 225.532V226.883C338.864 226.867 338.763 226.85 338.619 226.831C338.474 226.809 338.329 226.798 338.184 226.798C337.85 226.798 337.553 226.869 337.291 227.01C337.033 227.149 336.828 227.343 336.677 227.591C336.526 227.837 336.45 228.117 336.45 228.432V232.863H335.038ZM343.011 233.01C342.296 233.01 341.68 232.857 341.164 232.552C340.65 232.243 340.253 231.81 339.973 231.252C339.696 230.692 339.557 230.035 339.557 229.283C339.557 228.539 339.696 227.884 339.973 227.318C340.253 226.751 340.644 226.308 341.145 225.99C341.648 225.672 342.237 225.513 342.911 225.513C343.321 225.513 343.718 225.581 344.102 225.716C344.486 225.852 344.831 226.064 345.136 226.354C345.442 226.644 345.683 227.02 345.859 227.483C346.035 227.943 346.124 228.502 346.124 229.16V229.661H340.356V228.602H344.739C344.739 228.231 344.664 227.902 344.513 227.615C344.362 227.325 344.149 227.097 343.875 226.93C343.604 226.763 343.286 226.68 342.921 226.68C342.524 226.68 342.178 226.777 341.882 226.973C341.589 227.165 341.362 227.417 341.201 227.728C341.044 228.037 340.965 228.372 340.965 228.735V229.561C340.965 230.046 341.05 230.459 341.22 230.799C341.393 231.139 341.634 231.399 341.943 231.578C342.252 231.755 342.612 231.843 343.025 231.843C343.292 231.843 343.536 231.805 343.757 231.73C343.977 231.651 344.168 231.534 344.328 231.38C344.489 231.226 344.612 231.035 344.697 230.808L346.034 231.049C345.927 231.443 345.735 231.788 345.457 232.084C345.183 232.377 344.839 232.605 344.423 232.769C344.01 232.929 343.54 233.01 343.011 233.01ZM349.251 232.863L347.116 225.607H348.575L349.997 230.936H350.068L351.495 225.607H352.954L354.371 230.912H354.442L355.855 225.607H357.314L355.184 232.863H353.743L352.269 227.625H352.161L350.687 232.863H349.251Z" fill="white"/>
<path d="M370.28 230.081V229.991C370.287 229.405 370.345 228.939 370.455 228.593C370.568 228.247 370.729 227.966 370.937 227.752C371.145 227.538 371.395 227.343 371.688 227.166C371.877 227.047 372.047 226.913 372.198 226.765C372.349 226.617 372.469 226.447 372.557 226.255C372.645 226.063 372.689 225.85 372.689 225.617C372.689 225.337 372.623 225.094 372.491 224.889C372.359 224.685 372.182 224.527 371.962 224.417C371.745 224.304 371.502 224.247 371.235 224.247C370.992 224.247 370.761 224.297 370.54 224.398C370.32 224.499 370.137 224.656 369.992 224.871C369.847 225.082 369.764 225.354 369.742 225.688H368.306C368.328 225.121 368.471 224.642 368.736 224.252C369 223.858 369.35 223.56 369.784 223.359C370.222 223.157 370.705 223.057 371.235 223.057C371.814 223.057 372.321 223.165 372.756 223.383C373.19 223.597 373.527 223.897 373.766 224.285C374.009 224.669 374.13 225.118 374.13 225.631C374.13 225.984 374.075 226.302 373.965 226.585C373.855 226.866 373.697 227.116 373.493 227.336C373.291 227.557 373.048 227.752 372.765 227.922C372.497 228.089 372.28 228.262 372.113 228.442C371.949 228.621 371.83 228.834 371.754 229.079C371.679 229.325 371.638 229.629 371.631 229.991V230.081H370.28ZM370.994 232.953C370.735 232.953 370.513 232.862 370.328 232.679C370.142 232.493 370.049 232.27 370.049 232.008C370.049 231.75 370.142 231.53 370.328 231.347C370.513 231.161 370.735 231.068 370.994 231.068C371.249 231.068 371.469 231.161 371.655 231.347C371.844 231.53 371.938 231.75 371.938 232.008C371.938 232.181 371.894 232.341 371.806 232.485C371.721 232.627 371.608 232.74 371.466 232.825C371.324 232.911 371.167 232.953 370.994 232.953Z" fill="#333333"/>
<rect x="152.367" y="242.181" width="427.101" height="34.8379" rx="3.48383" fill="#F7F7F7"/>
<rect x="152.367" y="242.181" width="427.101" height="34.8379" rx="3.48383" stroke="#EFEFEF" stroke-width="2.32256"/>
<path d="M172.113 314.133V304.458H175.741C176.485 304.458 177.108 304.597 177.612 304.874C178.119 305.151 178.502 305.532 178.76 306.017C179.021 306.499 179.152 307.047 179.152 307.661C179.152 308.282 179.021 308.833 178.76 309.315C178.498 309.796 178.113 310.176 177.602 310.453C177.092 310.727 176.464 310.864 175.718 310.864H173.313V309.423H175.481C175.916 309.423 176.272 309.348 176.549 309.196C176.826 309.045 177.031 308.837 177.163 308.573C177.299 308.308 177.366 308.004 177.366 307.661C177.366 307.318 177.299 307.016 177.163 306.754C177.031 306.493 176.825 306.29 176.544 306.145C176.267 305.997 175.91 305.923 175.472 305.923H173.866V314.133H172.113ZM180.599 314.133V306.877H182.257V308.086H182.332C182.464 307.667 182.691 307.345 183.012 307.118C183.337 306.888 183.707 306.773 184.123 306.773C184.217 306.773 184.323 306.778 184.439 306.787C184.559 306.794 184.658 306.805 184.737 306.82V308.393C184.664 308.368 184.549 308.346 184.392 308.327C184.237 308.305 184.088 308.294 183.943 308.294C183.631 308.294 183.351 308.362 183.102 308.497C182.857 308.63 182.663 308.814 182.521 309.05C182.379 309.286 182.309 309.559 182.309 309.867V314.133H180.599ZM188.786 314.275C188.059 314.275 187.43 314.123 186.901 313.821C186.375 313.516 185.971 313.084 185.687 312.527C185.404 311.966 185.262 311.306 185.262 310.547C185.262 309.801 185.404 309.146 185.687 308.582C185.974 308.015 186.374 307.575 186.887 307.26C187.4 306.942 188.004 306.783 188.696 306.783C189.144 306.783 189.566 306.855 189.962 307C190.362 307.142 190.715 307.362 191.021 307.661C191.329 307.96 191.572 308.341 191.748 308.804C191.924 309.264 192.013 309.812 192.013 310.448V310.973H186.065V309.82H190.373C190.37 309.492 190.299 309.201 190.161 308.946C190.022 308.688 189.829 308.485 189.58 308.337C189.334 308.189 189.048 308.115 188.72 308.115C188.37 308.115 188.063 308.2 187.799 308.37C187.534 308.537 187.328 308.757 187.18 309.031C187.035 309.302 186.961 309.6 186.958 309.924V310.93C186.958 311.352 187.035 311.714 187.189 312.017C187.344 312.316 187.56 312.546 187.837 312.706C188.114 312.864 188.438 312.942 188.81 312.942C189.059 312.942 189.284 312.908 189.485 312.838C189.687 312.766 189.862 312.661 190.01 312.522C190.158 312.383 190.269 312.212 190.345 312.007L191.942 312.187C191.841 312.609 191.649 312.977 191.365 313.292C191.085 313.604 190.726 313.846 190.288 314.019C189.851 314.189 189.35 314.275 188.786 314.275ZM199.732 306.877L197.148 314.133H195.259L192.675 306.877H194.498L196.166 312.267H196.242L197.914 306.877H199.732Z" fill="#A58CF0"/>
<rect x="151.622" y="291.896" width="68.0755" height="36.4709" rx="6.23545" stroke="#A58CF0" stroke-width="0.831393"/>
<rect x="509.723" y="291.48" width="70.9069" height="37.3023" rx="6.65115" fill="#A58CF0"/>
<path d="M538.58 304.458V314.133H537.021L532.463 307.543H532.383V314.133H530.63V304.458H532.198L536.752 311.053H536.837V304.458H538.58ZM543.626 314.275C542.899 314.275 542.271 314.123 541.742 313.821C541.216 313.516 540.811 313.084 540.528 312.527C540.244 311.966 540.102 311.306 540.102 310.547C540.102 309.801 540.244 309.146 540.528 308.582C540.814 308.015 541.214 307.575 541.727 307.26C542.241 306.942 542.844 306.783 543.537 306.783C543.984 306.783 544.406 306.855 544.803 307C545.203 307.142 545.555 307.362 545.861 307.661C546.169 307.96 546.412 308.341 546.588 308.804C546.765 309.264 546.853 309.812 546.853 310.448V310.973H540.905V309.82H545.214C545.21 309.492 545.14 309.201 545.001 308.946C544.862 308.688 544.669 308.485 544.42 308.337C544.174 308.189 543.888 308.115 543.56 308.115C543.211 308.115 542.904 308.2 542.639 308.37C542.375 308.537 542.168 308.757 542.02 309.031C541.875 309.302 541.801 309.6 541.798 309.924V310.93C541.798 311.352 541.875 311.714 542.03 312.017C542.184 312.316 542.4 312.546 542.677 312.706C542.954 312.864 543.278 312.942 543.65 312.942C543.899 312.942 544.124 312.908 544.326 312.838C544.527 312.766 544.702 312.661 544.85 312.522C544.998 312.383 545.11 312.212 545.185 312.007L546.782 312.187C546.681 312.609 546.489 312.977 546.206 313.292C545.925 313.604 545.566 313.846 545.129 314.019C544.691 314.189 544.19 314.275 543.626 314.275ZM549.542 306.877L551.006 309.555L552.494 306.877H554.303L552.116 310.505L554.341 314.133H552.541L551.006 311.521L549.485 314.133H547.671L549.882 310.505L547.728 306.877H549.542ZM559.249 306.877V308.2H555.078V306.877H559.249ZM556.108 305.139H557.818V311.95C557.818 312.18 557.853 312.357 557.922 312.479C557.994 312.599 558.089 312.681 558.205 312.725C558.322 312.769 558.451 312.791 558.593 312.791C558.7 312.791 558.797 312.783 558.886 312.768C558.977 312.752 559.046 312.738 559.093 312.725L559.382 314.062C559.29 314.093 559.16 314.128 558.989 314.166C558.823 314.204 558.618 314.226 558.375 314.232C557.947 314.245 557.561 314.18 557.218 314.038C556.875 313.893 556.602 313.67 556.401 313.368C556.202 313.065 556.105 312.687 556.108 312.234V305.139Z" fill="white"/>
</g>
<defs>
<filter id="filter0_dd_5222_13532" x="0.631759" y="0.315879" width="518.672" height="184.475" filterUnits="userSpaceOnUse" color-interpolation-filters="sRGB">
<feFlood flood-opacity="0" result="BackgroundImageFix"/>
<feColorMatrix in="SourceAlpha" type="matrix" values="0 0 0 0 0 0 0 0 0 0 0 0 0 0 0 0 0 0 127 0" result="hardAlpha"/>
<feOffset dy="5.68412"/>
<feGaussianBlur stdDeviation="5.68412"/>
<feComposite in2="hardAlpha" operator="out"/>
<feColorMatrix type="matrix" values="0 0 0 0 0 0 0 0 0 0 0 0 0 0 0 0 0 0 0.05 0"/>
<feBlend mode="normal" in2="BackgroundImageFix" result="effect1_dropShadow_5222_13532"/>
<feColorMatrix in="SourceAlpha" type="matrix" values="0 0 0 0 0 0 0 0 0 0 0 0 0 0 0 0 0 0 127 0" result="hardAlpha"/>
<feOffset dy="2.84206"/>
<feGaussianBlur stdDeviation="2.84206"/>
<feComposite in2="hardAlpha" operator="out"/>
<feColorMatrix type="matrix" values="0 0 0 0 0 0 0 0 0 0 0 0 0 0 0 0 0 0 0.07 0"/>
<feBlend mode="normal" in2="effect1_dropShadow_5222_13532" result="effect2_dropShadow_5222_13532"/>
<feBlend mode="normal" in="SourceGraphic" in2="effect2_dropShadow_5222_13532" result="shape"/>
</filter>
<filter id="filter1_dd_5222_13532" x="106.582" y="185.574" width="518.672" height="186.865" filterUnits="userSpaceOnUse" color-interpolation-filters="sRGB">
<feFlood flood-opacity="0" result="BackgroundImageFix"/>
<feColorMatrix in="SourceAlpha" type="matrix" values="0 0 0 0 0 0 0 0 0 0 0 0 0 0 0 0 0 0 127 0" result="hardAlpha"/>
<feOffset dy="5.684"/>
<feGaussianBlur stdDeviation="5.684"/>
<feComposite in2="hardAlpha" operator="out"/>
<feColorMatrix type="matrix" values="0 0 0 0 0 0 0 0 0 0 0 0 0 0 0 0 0 0 0.05 0"/>
<feBlend mode="normal" in2="BackgroundImageFix" result="effect1_dropShadow_5222_13532"/>
<feColorMatrix in="SourceAlpha" type="matrix" values="0 0 0 0 0 0 0 0 0 0 0 0 0 0 0 0 0 0 127 0" result="hardAlpha"/>
<feOffset dy="2.842"/>
<feGaussianBlur stdDeviation="2.842"/>
<feComposite in2="hardAlpha" operator="out"/>
<feColorMatrix type="matrix" values="0 0 0 0 0 0 0 0 0 0 0 0 0 0 0 0 0 0 0.07 0"/>
<feBlend mode="normal" in2="effect1_dropShadow_5222_13532" result="effect2_dropShadow_5222_13532"/>
<feBlend mode="normal" in="SourceGraphic" in2="effect2_dropShadow_5222_13532" result="shape"/>
</filter>
</defs>
</svg>
