<svg width="295" height="184" viewBox="0 0 295 184" fill="none" xmlns="http://www.w3.org/2000/svg">
<path fill-rule="evenodd" clip-rule="evenodd" d="M125.578 177.457C81.2335 178.496 47.2597 152.887 31.4993 120.763C15.4748 88.1004 16.4134 49.0225 51.1344 25.7198C87.6186 1.23373 139.688 2.2954 179.677 21.3144C222.216 41.5461 253.96 77.4823 240.663 115.861C227.286 154.468 176.275 176.268 125.578 177.457Z" fill="#FCF7FF"/>
<rect y="27.5312" width="115" height="115" rx="57.5" fill="#EDE6FA"/>
<path d="M79.0751 100.442V84.4141C77.534 84.7224 75.9929 85.0306 74.4518 85.0306H72.9107V103.524H42.0886V81.9484C42.0886 73.3182 48.8695 66.5373 57.4996 66.5373C57.8079 62.5305 59.6572 59.14 62.1229 56.366C61.1983 55.1332 59.349 54.2085 57.4996 54.2085C54.1092 54.2085 51.3352 56.9825 51.3352 60.3729V61.2976C42.0886 64.0716 35.9242 72.3935 35.9242 81.9484V100.442L29.7598 106.606V109.688H85.2395V106.606L79.0751 100.442ZM51.3352 112.77C51.3352 116.161 54.1092 118.935 57.4996 118.935C60.8901 118.935 63.664 116.161 63.664 112.77H51.3352ZM85.2395 68.0784C85.2395 73.9346 80.308 78.8662 74.4518 78.8662C68.5956 78.8662 63.664 73.9346 63.664 68.0784C63.664 62.2222 68.5956 57.2907 74.4518 57.2907C80.308 57.2907 85.2395 62.2222 85.2395 68.0784Z" fill="#7E5BC6"/>
<rect x="214" y="72.5312" width="81.0007" height="76.8487" rx="38.4243" fill="#EED2FF"/>
<path d="M230.742 101.94L242.926 110.712L278.258 95.3608L230.742 101.94Z" fill="#A890D9"/>
<path d="M246.582 113.879L242.439 126.55L252.917 118.509L246.582 113.879Z" fill="#8B6DCB"/>
<path d="M242.927 110.712L242.439 126.551L246.582 113.88L278.259 95.3608L242.927 110.712Z" fill="#7E5BC6"/>
<path d="M258.033 122.652L278.257 95.3608L246.58 113.88L258.033 122.652Z" fill="#A890D9"/>
<path d="M118 106.881C118 106.881 150.42 99.3438 172.58 106.881C202.47 117.048 95.0095 122.103 131.542 135.523C160.269 146.076 205 125.473 205 125.473" stroke="#B8A4E3" stroke-width="2" stroke-linecap="round" stroke-dasharray="8 8"/>
</svg>
