<svg width="202" height="192" viewBox="0 0 202 192" fill="none" xmlns="http://www.w3.org/2000/svg">
<path fill-rule="evenodd" clip-rule="evenodd" d="M138.91 144.533C106.078 168.054 67.8491 166.773 40.0896 151.38C11.865 135.73 -6.78063 106.682 7.78969 71.8258C23.0999 35.1993 62.7816 9.248 102.271 2.62458C144.278 -4.42113 185.945 5.55364 194.951 40.4339C204.01 75.5218 176.446 117.641 138.91 144.533Z" fill="#FCF7FF"/>
<rect x="32.5" y="47" width="119.304" height="126.228" rx="59.6522" fill="#EDE6FA"/>
<path d="M112.922 144.73C110.038 144.73 107.586 143.72 105.566 141.701C103.547 139.682 102.537 137.23 102.537 134.345C102.537 133.941 102.566 133.522 102.624 133.088C102.682 132.657 102.768 132.268 102.884 131.922L78.4792 117.729C77.4984 118.595 76.4022 119.272 75.1907 119.761C73.9791 120.253 72.7098 120.499 71.3829 120.499C68.4982 120.499 66.0462 119.489 64.027 117.47C62.0077 115.45 60.998 112.998 60.998 110.114C60.998 107.229 62.0077 104.777 64.027 102.758C66.0462 100.738 68.4982 99.7288 71.3829 99.7288C72.7098 99.7288 73.9791 99.9735 75.1907 100.463C76.4022 100.954 77.4984 101.633 78.4792 102.498L102.884 88.3055C102.768 87.9594 102.682 87.5705 102.624 87.139C102.566 86.7051 102.537 86.2862 102.537 85.8824C102.537 82.9977 103.547 80.5457 105.566 78.5265C107.586 76.5072 110.038 75.4976 112.922 75.4976C115.807 75.4976 118.259 76.5072 120.278 78.5265C122.297 80.5457 123.307 82.9977 123.307 85.8824C123.307 88.7671 122.297 91.219 120.278 93.2383C118.259 95.2576 115.807 96.2672 112.922 96.2672C111.595 96.2672 110.326 96.0215 109.114 95.5299C107.903 95.0407 106.807 94.3633 105.826 93.4979L81.4216 107.691C81.5369 108.037 81.6235 108.426 81.6812 108.857C81.7389 109.291 81.7677 109.71 81.7677 110.114C81.7677 110.518 81.7389 110.935 81.6812 111.367C81.6235 111.801 81.5369 112.191 81.4216 112.537L105.826 126.729C106.807 125.864 107.903 125.186 109.114 124.694C110.326 124.205 111.595 123.96 112.922 123.96C115.807 123.96 118.259 124.97 120.278 126.989C122.297 129.008 123.307 131.46 123.307 134.345C123.307 137.23 122.297 139.682 120.278 141.701C118.259 143.72 115.807 144.73 112.922 144.73Z" fill="#7E5BC6"/>
<rect x="125.707" y="41.2715" width="64.2931" height="64.2931" rx="32.1466" fill="#EED2FF"/>
<path d="M170.06 54.2393H152.624C150.706 54.2393 149.137 55.8084 149.137 57.7263V62.957H152.624V59.4699H170.06V87.3665H152.624V83.8794H149.137V89.11C149.137 91.0279 150.706 92.5971 152.624 92.5971H170.06C171.977 92.5971 173.547 91.0279 173.547 89.11V57.7263C173.547 55.8084 171.977 54.2393 170.06 54.2393ZM149.154 75.9812L144.708 71.5352L142.494 73.7495L149.137 80.3923L161.673 67.8563L159.459 65.642L149.154 75.9812Z" fill="#7E5BC6"/>
<rect x="129.316" y="112" width="38.6848" height="38.6848" rx="19.3424" fill="#EED2FF"/>
<g clip-path="url(#clip0_2278_4483)">
<path d="M143.418 141.834H153.909" stroke="#7E5BC6" stroke-width="2.36407" stroke-linecap="round" stroke-linejoin="round"/>
<path d="M138.172 136.589V122.951C138.172 122.394 138.393 121.861 138.786 121.467C139.18 121.074 139.714 120.853 140.27 120.853H157.055C157.612 120.853 158.145 121.074 158.539 121.467C158.932 121.861 159.154 122.394 159.154 122.951V136.589C159.154 137.145 158.932 137.679 158.539 138.072C158.145 138.466 157.612 138.687 157.055 138.687H140.27C139.714 138.687 139.18 138.466 138.786 138.072C138.393 137.679 138.172 137.145 138.172 136.589Z" stroke="#7E5BC6" stroke-width="2.36407"/>
<path d="M145.518 129.77L147.616 131.868L151.812 127.671" stroke="#7E5BC6" stroke-width="2.36407" stroke-linecap="round" stroke-linejoin="round"/>
</g>
<rect x="105" y="153.297" width="38.4342" height="38.4342" rx="19.2171" fill="#EED2FF"/>
<g clip-path="url(#clip1_2278_4483)">
<path d="M129.962 161.91H117.59C117.004 161.91 116.442 162.143 116.028 162.557C115.614 162.972 115.381 163.533 115.381 164.119V180.91C115.381 181.2 115.438 181.487 115.549 181.755C115.66 182.023 115.823 182.267 116.028 182.472C116.233 182.677 116.477 182.84 116.745 182.951C117.013 183.062 117.3 183.119 117.59 183.119H129.962C130.252 183.119 130.539 183.062 130.807 182.951C131.075 182.84 131.319 182.677 131.524 182.472C131.729 182.267 131.892 182.023 132.003 181.755C132.114 181.487 132.171 181.2 132.171 180.91V164.119C132.171 163.533 131.938 162.972 131.524 162.557C131.11 162.143 130.548 161.91 129.962 161.91V161.91ZM123.776 182.235C123.043 182.235 122.45 181.643 122.45 180.91C122.45 180.176 123.043 179.584 123.776 179.584C124.51 179.584 125.102 180.176 125.102 180.91C125.102 181.643 124.51 182.235 123.776 182.235ZM130.404 178.701H117.148V164.561H130.404V178.701Z" fill="#7E5BC6"/>
</g>
<defs>
<clipPath id="clip0_2278_4483">
<rect width="25.178" height="25.178" fill="white" transform="translate(136.07 118.753)"/>
</clipPath>
<clipPath id="clip1_2278_4483">
<rect width="21.2089" height="21.2089" fill="white" transform="translate(113.613 161.91)"/>
</clipPath>
</defs>
</svg>
