<svg width="223" height="166" viewBox="0 0 223 166" fill="none" xmlns="http://www.w3.org/2000/svg">
<path fill-rule="evenodd" clip-rule="evenodd" d="M135.774 135.171C103.628 158.363 67.5753 159.022 42.091 146.212C16.1796 133.186 -0.0388254 107.391 15.4004 74.6608C31.6236 40.2691 70.3572 14.5157 107.981 6.53194C148.003 -1.96082 186.886 5.20288 193.717 36.8216C200.589 68.6287 172.526 108.657 135.774 135.171Z" fill="#FCF7FF"/>
<rect x="25" y="48" width="166" height="117.917" rx="58.9586" fill="#EDE6FA"/>
<g clip-path="url(#clip0_2281_4488)">
<path d="M92.2439 78.6868C93.0595 78.9543 93.6225 79.7012 93.6478 80.5513L93.8256 86.6222C94.47 87.0272 95.0146 87.3994 95.465 87.7499C95.957 88.1325 96.5763 88.6705 97.3284 89.375L102.68 88.4575C103.117 88.3824 103.567 88.451 103.961 88.653C104.356 88.855 104.674 89.1795 104.869 89.5779L107.52 95.0405C107.871 95.7672 107.756 96.6236 107.226 97.2299L103.443 101.541C103.584 102.309 103.684 102.959 103.748 103.496C103.814 104.081 103.873 104.874 103.922 105.889L108.206 109.659C108.85 110.224 109.068 111.125 108.755 111.91L106.501 117.546C106.353 117.912 106.101 118.226 105.776 118.45C105.452 118.674 105.068 118.798 104.674 118.806L99.4024 118.935C99.0527 119.543 98.7283 120.054 98.4239 120.476C97.9434 121.125 97.4325 121.751 96.893 122.352L97.545 128.373C97.5916 128.796 97.5014 129.223 97.2877 129.591C97.074 129.96 96.7481 130.25 96.3575 130.419L90.526 132.968C90.1423 133.134 89.7169 133.18 89.3066 133.098C88.8964 133.016 88.5209 132.811 88.2306 132.51L84.3895 128.522C83.5359 128.668 82.674 128.762 81.8088 128.803L79.529 128.897L76.0882 133.298C75.8346 133.62 75.4897 133.858 75.0987 133.98C74.7077 134.102 74.2888 134.104 73.8971 133.984L68.5875 132.374C68.1845 132.254 67.8288 132.011 67.5693 131.68C67.3098 131.349 67.1593 130.946 67.1385 130.526L66.858 124.206C66.2143 123.72 65.5845 123.217 64.9693 122.695C64.4712 122.254 63.9884 121.795 63.5216 121.32L57.5124 121.844C57.1165 121.878 56.7193 121.797 56.3689 121.609C56.0186 121.422 55.7303 121.136 55.5391 120.788L52.8392 115.85C52.6377 115.484 52.5567 115.063 52.6073 114.648C52.658 114.233 52.8379 113.844 53.1216 113.537L57.0075 109.343C56.8979 108.659 56.8139 107.972 56.7557 107.282C56.699 106.442 56.6676 105.601 56.6614 104.759L52.192 101.619C51.8285 101.364 51.559 100.997 51.4256 100.574C51.2922 100.151 51.3023 99.6952 51.4543 99.2783L53.3963 94.0133C53.5242 93.6702 53.7434 93.3685 54.0303 93.141C54.3172 92.9134 54.6609 92.7686 55.0241 92.7223L61.0542 91.929C61.5858 91.1232 62.0223 90.5045 62.3728 90.0633C62.8544 89.4786 63.3612 88.9149 63.8916 88.374L63.1986 82.8623C63.1461 82.4438 63.2277 82.0194 63.4316 81.6501C63.6356 81.2809 63.9513 80.9858 64.3335 80.8074L69.4346 78.4067C69.792 78.2387 70.1904 78.1776 70.5818 78.2308C70.9731 78.2839 71.3408 78.4491 71.6406 78.7063L76.1921 82.6079C76.902 82.4107 77.5318 82.2701 78.0917 82.1742C78.7596 82.0583 79.6233 81.9914 80.6922 81.9641L84.1981 77.4579C84.456 77.1285 84.8093 76.8869 85.2097 76.7658C85.6102 76.6448 86.0382 76.6502 86.4354 76.7815L92.2439 78.6868ZM89.6318 82.0606L86.5445 81.0479L83.325 85.1965C83.1364 85.4381 82.8954 85.6337 82.6202 85.7686C82.345 85.9034 82.0427 85.974 81.7362 85.9749C80.3949 85.9804 79.4074 86.0406 78.8087 86.1422C78.1741 86.2505 77.3405 86.4595 76.3284 86.7727C75.9978 86.8731 75.6472 86.8885 75.3091 86.8173C74.9709 86.7461 74.6563 86.5908 74.3942 86.3656L70.0049 82.6062L67.4139 83.8271L68.0464 88.8581C68.0848 89.1577 68.0543 89.4621 67.9573 89.7482C67.8603 90.0342 67.6993 90.2943 67.4866 90.5087C66.5669 91.4391 65.9231 92.1373 65.5689 92.5803C65.004 93.3258 64.4741 94.0973 63.9811 94.8922C63.8227 95.1396 63.6121 95.3494 63.3641 95.5069C63.1161 95.6644 62.8366 95.7657 62.5453 95.8038L56.7984 96.5579L55.8069 99.2435L59.8529 102.082C60.3902 102.458 60.7116 103.071 60.7157 103.723C60.7228 105.2 60.7557 106.299 60.8089 106.998C60.8908 107.891 61.0136 108.779 61.1771 109.66C61.231 109.962 61.2141 110.273 61.1275 110.568C61.041 110.862 60.8873 111.133 60.6785 111.358L57.1049 115.218L58.4693 117.718L64.1058 117.226C64.4093 117.2 64.715 117.241 65.0005 117.347C65.2861 117.454 65.5443 117.623 65.7566 117.841C66.5944 118.706 67.2278 119.322 67.6385 119.681C68.0575 120.043 68.8758 120.686 70.0729 121.589C70.3105 121.768 70.5057 121.997 70.6445 122.261C70.7834 122.524 70.8624 122.815 70.876 123.112L71.1375 128.946L73.7243 129.733L76.8853 125.688C77.0659 125.458 77.2945 125.269 77.5553 125.135C77.8161 125.002 78.1028 124.927 78.3956 124.915L81.6251 124.782C82.4402 124.751 83.4615 124.616 84.6817 124.371C85.019 124.305 85.3676 124.324 85.6956 124.427C86.0235 124.531 86.3203 124.715 86.5585 124.963L90.1732 128.714L93.3534 127.326L92.7595 121.869C92.7289 121.589 92.7583 121.305 92.8457 121.037C92.933 120.769 93.0764 120.523 93.2662 120.314C94.1414 119.351 94.7619 118.611 95.1122 118.124C95.4561 117.647 95.8829 116.936 96.376 116.004C96.5442 115.688 96.7938 115.422 97.0989 115.234C97.4041 115.046 97.7538 114.943 98.112 114.936L103.216 114.813L104.453 111.716L100.59 108.317C100.385 108.136 100.217 107.916 100.099 107.669C99.9812 107.423 99.9144 107.154 99.9031 106.881C99.8727 105.892 99.8094 104.903 99.7135 103.918C99.6012 103.051 99.4535 102.189 99.2709 101.334C99.2092 101.033 99.2181 100.721 99.297 100.424C99.3758 100.127 99.5224 99.8519 99.7252 99.6209L103.283 95.5649L101.883 92.6784L97.038 93.5103C96.7217 93.5649 96.397 93.5444 96.09 93.4507C95.783 93.3569 95.5022 93.1924 95.2703 92.9705C94.5371 92.2475 93.7704 91.5593 92.9728 90.908C92.28 90.3912 91.556 89.9177 90.8048 89.4903C90.5077 89.3178 90.2593 89.0726 90.083 88.7778C89.9067 88.483 89.8083 88.1481 89.7969 87.8048L89.63 82.0569L89.6318 82.0606ZM84.1877 93.3754C90.9421 95.5909 94.6436 102.805 92.4526 109.485C90.2617 116.164 83.0072 119.782 76.2527 117.567C69.4955 115.35 65.7959 108.139 67.9868 101.46C70.1778 94.7803 77.4295 91.1617 84.1868 93.3781L84.1877 93.3754ZM82.9339 97.1978C78.3098 95.681 73.3476 98.155 71.8481 102.726C70.3486 107.298 72.8806 112.233 77.5047 113.75C82.126 115.265 87.0891 112.789 88.5886 108.217C90.0881 103.646 87.558 98.7145 82.9339 97.1978Z" fill="#7E5BC6"/>
</g>
<g clip-path="url(#clip1_2281_4488)">
<path d="M147.527 82.1587C148.343 82.4262 148.906 83.1731 148.931 84.0233L149.109 90.0942C149.753 90.4991 150.298 90.8713 150.748 91.2218C151.24 91.6044 151.86 92.1424 152.612 92.8469L157.963 91.9294C158.4 91.8543 158.85 91.9229 159.244 92.1249C159.639 92.3269 159.958 92.6515 160.152 93.0498L162.803 98.5125C163.154 99.2392 163.039 100.095 162.509 100.702L158.726 105.013C158.867 105.781 158.967 106.431 159.031 106.968C159.097 107.552 159.156 108.346 159.205 109.36L163.489 113.131C164.133 113.696 164.351 114.597 164.038 115.382L161.784 121.018C161.636 121.384 161.384 121.698 161.06 121.922C160.735 122.146 160.352 122.27 159.957 122.278L154.686 122.407C154.336 123.015 154.012 123.526 153.707 123.948C153.227 124.597 152.716 125.223 152.176 125.824L152.828 131.845C152.875 132.268 152.785 132.695 152.571 133.063C152.357 133.432 152.031 133.722 151.641 133.891L145.809 136.44C145.426 136.606 145 136.652 144.59 136.57C144.18 136.488 143.804 136.283 143.514 135.982L139.673 131.994C138.819 132.14 137.957 132.234 137.092 132.275L134.812 132.369L131.371 136.77C131.118 137.092 130.773 137.33 130.382 137.452C129.991 137.574 129.572 137.576 129.18 137.456L123.871 135.846C123.468 135.726 123.112 135.483 122.853 135.152C122.593 134.821 122.443 134.418 122.422 133.997L122.141 127.678C121.498 127.192 120.868 126.689 120.253 126.167C119.754 125.726 119.272 125.267 118.805 124.792L112.796 125.316C112.4 125.35 112.002 125.269 111.652 125.081C111.302 124.894 111.013 124.608 110.822 124.26L108.122 119.322C107.921 118.956 107.84 118.535 107.891 118.12C107.941 117.705 108.121 117.316 108.405 117.009L112.291 112.815C112.181 112.131 112.097 111.444 112.039 110.754C111.982 109.914 111.951 109.073 111.945 108.231L107.475 105.091C107.112 104.836 106.842 104.469 106.709 104.046C106.575 103.623 106.585 103.167 106.737 102.75L108.68 97.4852C108.807 97.1421 109.027 96.8404 109.314 96.6129C109.6 96.3853 109.944 96.2405 110.307 96.1942L116.337 95.4009C116.869 94.5952 117.305 93.9764 117.656 93.5353C118.138 92.9505 118.644 92.3869 119.175 91.846L118.482 86.3342C118.429 85.9157 118.511 85.4913 118.715 85.122C118.919 84.7528 119.235 84.4578 119.617 84.2793L124.718 81.8786C125.075 81.7106 125.474 81.6496 125.865 81.7027C126.256 81.7559 126.624 81.921 126.924 82.1782L131.475 86.0799C132.185 85.8826 132.815 85.742 133.375 85.6461C134.043 85.5302 134.907 85.4633 135.975 85.436L139.481 80.9298C139.739 80.6005 140.093 80.3588 140.493 80.2377C140.893 80.1167 141.321 80.1222 141.719 80.2535L147.527 82.1587ZM144.915 85.5325L141.828 84.5199L138.608 88.6684C138.42 88.91 138.179 89.1056 137.903 89.2405C137.628 89.3754 137.326 89.4459 137.019 89.4469C135.678 89.4524 134.691 89.5125 134.092 89.6141C133.457 89.7224 132.624 89.9314 131.612 90.2446C131.281 90.345 130.93 90.3604 130.592 90.2892C130.254 90.2181 129.939 90.0627 129.677 89.8375L125.288 86.0781L122.697 87.299L123.33 92.3301C123.368 92.6297 123.338 92.934 123.241 93.2201C123.144 93.5061 122.982 93.7662 122.77 93.9806C121.85 94.911 121.206 95.6092 120.852 96.0522C120.287 96.7977 119.757 97.5692 119.264 98.3641C119.106 98.6115 118.895 98.8214 118.647 98.9788C118.399 99.1363 118.12 99.2376 117.828 99.2757L112.082 100.03L111.09 102.715L115.136 105.554C115.673 105.93 115.995 106.543 115.999 107.195C116.006 108.672 116.039 109.771 116.092 110.47C116.174 111.363 116.297 112.251 116.46 113.132C116.514 113.434 116.497 113.745 116.411 114.04C116.324 114.334 116.17 114.605 115.962 114.83L112.388 118.69L113.753 121.19L119.389 120.698C119.693 120.671 119.998 120.713 120.284 120.819C120.569 120.926 120.828 121.094 121.04 121.313C121.878 122.178 122.511 122.794 122.922 123.153C123.341 123.515 124.159 124.158 125.356 125.061C125.594 125.24 125.789 125.469 125.928 125.733C126.067 125.996 126.146 126.287 126.159 126.584L126.421 132.418L129.008 133.205L132.168 129.16C132.349 128.93 132.578 128.741 132.838 128.607C133.099 128.474 133.386 128.399 133.679 128.387L136.908 128.254C137.723 128.223 138.745 128.088 139.965 127.843C140.302 127.777 140.651 127.796 140.979 127.899C141.307 128.003 141.603 128.187 141.842 128.434L145.456 132.186L148.637 130.798L148.043 125.341C148.012 125.06 148.042 124.777 148.129 124.509C148.216 124.241 148.36 123.995 148.549 123.786C149.425 122.823 150.045 122.083 150.395 121.596C150.739 121.119 151.166 120.408 151.659 119.476C151.827 119.16 152.077 118.894 152.382 118.706C152.687 118.518 153.037 118.415 153.395 118.408L158.499 118.284L159.736 115.188L155.874 111.789C155.668 111.608 155.501 111.388 155.383 111.141C155.264 110.894 155.198 110.626 155.186 110.353C155.156 109.363 155.093 108.375 154.997 107.39C154.884 106.523 154.737 105.661 154.554 104.806C154.492 104.504 154.501 104.193 154.58 103.896C154.659 103.599 154.806 103.324 155.008 103.093L158.566 99.0368L157.166 96.1503L152.321 96.9823C152.005 97.0368 151.68 97.0164 151.373 96.9226C151.066 96.8288 150.785 96.6643 150.554 96.4424C149.82 95.7194 149.054 95.0312 148.256 94.3799C147.563 93.8631 146.839 93.3897 146.088 92.9622C145.791 92.7897 145.543 92.5446 145.366 92.2497C145.19 91.9549 145.091 91.62 145.08 91.2767L144.913 85.5289L144.915 85.5325ZM139.471 96.8473C146.225 99.0628 149.927 106.277 147.736 112.957C145.545 119.636 138.29 123.254 131.536 121.038C124.779 118.822 121.079 111.611 123.27 104.932C125.461 98.2522 132.713 94.6336 139.47 96.8501L139.471 96.8473ZM138.217 100.67C133.593 99.153 128.631 101.627 127.131 106.198C125.632 110.77 128.164 115.705 132.788 117.222C137.409 118.737 142.372 116.261 143.872 111.689C145.371 107.118 142.841 102.186 138.217 100.67Z" fill="#7E5BC6"/>
</g>
<rect x="150" y="16.2627" width="73" height="73" rx="36.5" fill="#EED2FF"/>
<path d="M198.04 48.0394L196.346 50.587C197.163 52.2162 197.563 54.0226 197.51 55.8443C197.457 57.6661 196.953 59.4463 196.043 61.0253H176.957C175.774 58.9736 175.284 56.5954 175.559 54.2433C175.835 51.8911 176.86 49.6903 178.485 47.967C180.109 46.2437 182.246 45.0897 184.577 44.6761C186.909 44.2625 189.312 44.6113 191.43 45.6708L193.978 43.9769C191.384 42.3137 188.307 41.5684 185.24 41.8603C182.173 42.1521 179.292 43.4643 177.058 45.5868C174.825 47.7093 173.367 50.5196 172.92 53.5681C172.472 56.6167 173.059 59.7273 174.588 62.4024C174.829 62.8187 175.174 63.1648 175.589 63.4064C176.005 63.648 176.476 63.7766 176.957 63.7795H196.03C196.515 63.7814 196.992 63.6551 197.413 63.4133C197.834 63.1714 198.183 62.8227 198.426 62.4024C199.695 60.2045 200.331 57.6987 200.266 55.1616C200.2 52.6246 199.435 50.155 198.054 48.0256L198.04 48.0394ZM184.559 57.4587C184.814 57.7147 185.118 57.9179 185.452 58.0565C185.787 58.1951 186.145 58.2664 186.507 58.2664C186.869 58.2664 187.227 58.1951 187.562 58.0565C187.896 57.9179 188.2 57.7147 188.456 57.4587L196.25 45.7672L184.559 53.5615C184.302 53.8173 184.099 54.121 183.961 54.4554C183.822 54.7897 183.751 55.1481 183.751 55.5101C183.751 55.872 183.822 56.2304 183.961 56.5648C184.099 56.8991 184.302 57.2029 184.559 57.4587Z" fill="#7E5BC6"/>
<defs>
<clipPath id="clip0_2281_4488">
<rect width="58.3862" height="58.3862" fill="white" transform="translate(61.5137 68.6069) rotate(18.1601)"/>
</clipPath>
<clipPath id="clip1_2281_4488">
<rect width="58.3862" height="58.3862" fill="white" transform="translate(116.797 72.0789) rotate(18.1601)"/>
</clipPath>
</defs>
</svg>
