<svg width="457" height="280" viewBox="0 0 457 280" fill="none" xmlns="http://www.w3.org/2000/svg">
<g clip-path="url(#clip0_1127_3618)">
<path fill-rule="evenodd" clip-rule="evenodd" d="M306.707 66.0178C330.892 93.9659 340.183 129.935 337.525 166.798C334.946 202.573 321.952 237.871 292.809 258.78C263.634 279.712 226.623 277.89 191.244 271.747C148.436 264.314 99.4966 259.245 78.0072 221.483C54.42 180.034 62.9191 127.772 85.3678 85.6956C108.128 43.0347 146.873 6.41468 195.036 2.13284C239.977 -1.8626 277.184 31.8995 306.707 66.0178Z" fill="#FCF7FF"/>
<g filter="url(#filter0_dd_1127_3618)">
<rect x="134.891" y="12.2628" width="321.898" height="109.123" rx="4.31713" fill="white" shape-rendering="crispEdges"/>
<path d="M157.697 39.5314H156.691L158.951 33.2519H160.046L162.305 39.5314H161.3L159.524 34.3925H159.475L157.697 39.5314ZM157.866 37.0723H161.128V37.8695H157.866V37.0723ZM163.139 39.5314V34.8218H164.025V35.5699H164.074C164.16 35.3164 164.311 35.1172 164.527 34.972C164.746 34.8248 164.994 34.7513 165.269 34.7513C165.327 34.7513 165.394 34.7533 165.472 34.7574C165.552 34.7615 165.614 34.7666 165.659 34.7727V35.6496C165.622 35.6394 165.557 35.6282 165.463 35.6159C165.369 35.6016 165.275 35.5944 165.181 35.5944C164.964 35.5944 164.771 35.6404 164.601 35.7324C164.433 35.8224 164.301 35.9481 164.202 36.1096C164.104 36.269 164.055 36.4509 164.055 36.6553V39.5314H163.139ZM168.313 39.6264C167.849 39.6264 167.45 39.5273 167.115 39.329C166.781 39.1287 166.524 38.8476 166.342 38.4858C166.162 38.122 166.072 37.6958 166.072 37.2072C166.072 36.7248 166.162 36.2997 166.342 35.9317C166.524 35.5638 166.777 35.2766 167.102 35.0701C167.429 34.8637 167.812 34.7605 168.249 34.7605C168.515 34.7605 168.772 34.8044 169.022 34.8923C169.271 34.9802 169.495 35.1182 169.693 35.3062C169.891 35.4943 170.048 35.7386 170.162 36.039C170.277 36.3375 170.334 36.7003 170.334 37.1275V37.4525H166.59V36.7657H169.436C169.436 36.5245 169.387 36.3109 169.288 36.1249C169.19 35.9368 169.052 35.7886 168.875 35.6803C168.699 35.572 168.492 35.5178 168.255 35.5178C167.998 35.5178 167.773 35.5812 167.581 35.7079C167.39 35.8326 167.243 35.9961 167.139 36.1985C167.037 36.3988 166.986 36.6165 166.986 36.8516V37.3881C166.986 37.7029 167.041 37.9707 167.151 38.1915C167.264 38.4122 167.42 38.5809 167.62 38.6974C167.821 38.8119 168.055 38.8691 168.323 38.8691C168.496 38.8691 168.655 38.8446 168.798 38.7955C168.941 38.7444 169.065 38.6688 169.169 38.5686C169.273 38.4684 169.353 38.3448 169.408 38.1976L170.276 38.354C170.206 38.6095 170.082 38.8333 169.902 39.0255C169.724 39.2156 169.5 39.3638 169.23 39.47C168.962 39.5743 168.657 39.6264 168.313 39.6264ZM174.216 41.2975C174.079 41.2975 173.954 41.2862 173.842 41.2637C173.729 41.2433 173.645 41.2208 173.59 41.1963L173.811 40.4451C173.979 40.4901 174.128 40.5095 174.259 40.5033C174.389 40.4972 174.505 40.4481 174.605 40.3562C174.707 40.2642 174.797 40.1139 174.875 39.9054L174.988 39.5927L173.265 34.8218H174.246L175.439 38.4766H175.488L176.681 34.8218H177.665L175.724 40.1599C175.634 40.4052 175.52 40.6127 175.381 40.7824C175.242 40.9541 175.076 41.0828 174.884 41.1687C174.692 41.2545 174.469 41.2975 174.216 41.2975ZM180.35 39.6264C179.909 39.6264 179.523 39.5252 179.194 39.3229C178.865 39.1205 178.61 38.8374 178.428 38.4736C178.246 38.1097 178.155 37.6845 178.155 37.198C178.155 36.7095 178.246 36.2823 178.428 35.9164C178.61 35.5505 178.865 35.2664 179.194 35.064C179.523 34.8616 179.909 34.7605 180.35 34.7605C180.792 34.7605 181.177 34.8616 181.506 35.064C181.835 35.2664 182.091 35.5505 182.273 35.9164C182.455 36.2823 182.546 36.7095 182.546 37.198C182.546 37.6845 182.455 38.1097 182.273 38.4736C182.091 38.8374 181.835 39.1205 181.506 39.3229C181.177 39.5252 180.792 39.6264 180.35 39.6264ZM180.353 38.8568C180.64 38.8568 180.877 38.7812 181.065 38.6299C181.253 38.4787 181.392 38.2773 181.482 38.0259C181.574 37.7745 181.62 37.4975 181.62 37.195C181.62 36.8945 181.574 36.6185 181.482 36.3671C181.392 36.1136 181.253 35.9103 181.065 35.757C180.877 35.6036 180.64 35.527 180.353 35.527C180.065 35.527 179.826 35.6036 179.636 35.757C179.448 35.9103 179.308 36.1136 179.216 36.3671C179.126 36.6185 179.081 36.8945 179.081 37.195C179.081 37.4975 179.126 37.7745 179.216 38.0259C179.308 38.2773 179.448 38.4787 179.636 38.6299C179.826 38.7812 180.065 38.8568 180.353 38.8568ZM186.552 37.5782V34.8218H187.472V39.5314H186.571V38.7158H186.522C186.413 38.9672 186.24 39.1767 186 39.3443C185.763 39.5099 185.468 39.5927 185.114 39.5927C184.812 39.5927 184.544 39.5263 184.311 39.3934C184.08 39.2585 183.898 39.0592 183.765 38.7955C183.634 38.5318 183.569 38.2058 183.569 37.8174V34.8218H184.486V37.707C184.486 38.0279 184.575 38.2835 184.753 38.4736C184.93 38.6637 185.161 38.7587 185.445 38.7587C185.617 38.7587 185.788 38.7158 185.958 38.6299C186.129 38.5441 186.271 38.4143 186.384 38.2405C186.498 38.0668 186.554 37.846 186.552 37.5782ZM192.01 33.2519V39.5314H191.063V33.2519H192.01ZM194.233 36.7351V39.5314H193.316V34.8218H194.196V35.5883H194.254C194.363 35.3389 194.532 35.1386 194.763 34.9874C194.996 34.8361 195.29 34.7605 195.643 34.7605C195.964 34.7605 196.245 34.8279 196.487 34.9628C196.728 35.0957 196.915 35.294 197.048 35.5577C197.181 35.8213 197.247 36.1474 197.247 36.5358V39.5314H196.33V36.6461C196.33 36.3048 196.241 36.038 196.064 35.8459C195.886 35.6517 195.641 35.5546 195.331 35.5546C195.118 35.5546 194.929 35.6006 194.763 35.6926C194.6 35.7845 194.47 35.9195 194.374 36.0973C194.28 36.2731 194.233 36.4857 194.233 36.7351ZM200.24 39.6234C199.859 39.6234 199.52 39.5263 199.222 39.3321C198.925 39.1358 198.692 38.8568 198.523 38.495C198.355 38.1312 198.271 37.6948 198.271 37.1858C198.271 36.6768 198.356 36.2414 198.526 35.8796C198.697 35.5178 198.932 35.2408 199.231 35.0487C199.529 34.8565 199.868 34.7605 200.246 34.7605C200.538 34.7605 200.773 34.8095 200.951 34.9076C201.131 35.0037 201.27 35.1161 201.368 35.2449C201.468 35.3737 201.546 35.4871 201.601 35.5852H201.656V33.2519H202.573V39.5314H201.678V38.7986H201.601C201.546 38.8987 201.466 39.0132 201.362 39.142C201.26 39.2708 201.119 39.3832 200.939 39.4792C200.759 39.5753 200.526 39.6234 200.24 39.6234ZM200.442 38.8415C200.706 38.8415 200.928 38.772 201.11 38.633C201.294 38.492 201.433 38.2967 201.527 38.0474C201.623 37.798 201.671 37.5077 201.671 37.1766C201.671 36.8495 201.624 36.5633 201.53 36.3181C201.436 36.0728 201.298 35.8816 201.117 35.7447C200.935 35.6077 200.71 35.5393 200.442 35.5393C200.166 35.5393 199.936 35.6108 199.752 35.7539C199.568 35.897 199.429 36.0922 199.335 36.3395C199.243 36.5869 199.197 36.8659 199.197 37.1766C199.197 37.4914 199.244 37.7745 199.338 38.0259C199.432 38.2773 199.571 38.4766 199.755 38.6238C199.941 38.7689 200.17 38.8415 200.442 38.8415ZM203.881 39.5314V34.8218H204.798V39.5314H203.881ZM204.344 34.0951C204.185 34.0951 204.048 34.042 203.934 33.9357C203.821 33.8273 203.765 33.6985 203.765 33.5493C203.765 33.3981 203.821 33.2693 203.934 33.163C204.048 33.0547 204.185 33.0005 204.344 33.0005C204.504 33.0005 204.64 33.0547 204.752 33.163C204.867 33.2693 204.924 33.3981 204.924 33.5493C204.924 33.6985 204.867 33.8273 204.752 33.9357C204.64 34.042 204.504 34.0951 204.344 34.0951ZM207.402 39.6356C207.104 39.6356 206.834 39.5804 206.593 39.47C206.351 39.3576 206.16 39.1951 206.019 38.9825C205.88 38.7699 205.811 38.5093 205.811 38.2007C205.811 37.9349 205.862 37.7162 205.964 37.5445C206.066 37.3728 206.204 37.2369 206.378 37.1367C206.552 37.0366 206.746 36.9609 206.961 36.9098C207.175 36.8587 207.394 36.8199 207.617 36.7933C207.899 36.7606 208.128 36.734 208.304 36.7136C208.479 36.6911 208.607 36.6553 208.687 36.6063C208.767 36.5572 208.806 36.4775 208.806 36.3671V36.3457C208.806 36.0779 208.731 35.8704 208.58 35.7232C208.43 35.576 208.207 35.5025 207.911 35.5025C207.602 35.5025 207.359 35.5709 207.181 35.7079C207.006 35.8428 206.884 35.993 206.816 36.1586L205.955 35.9624C206.057 35.6762 206.206 35.4452 206.403 35.2694C206.601 35.0916 206.829 34.9628 207.086 34.8831C207.344 34.8013 207.615 34.7605 207.899 34.7605C208.087 34.7605 208.286 34.7829 208.497 34.8279C208.709 34.8708 208.908 34.9506 209.092 35.0671C209.278 35.1836 209.43 35.3502 209.548 35.5669C209.667 35.7815 209.726 36.0605 209.726 36.4039V39.5314H208.831V38.8875H208.794C208.735 39.006 208.646 39.1226 208.527 39.237C208.409 39.3515 208.257 39.4465 208.071 39.5222C207.885 39.5978 207.662 39.6356 207.402 39.6356ZM207.601 38.8997C207.855 38.8997 208.072 38.8497 208.251 38.7495C208.433 38.6493 208.571 38.5185 208.665 38.357C208.761 38.1935 208.809 38.0187 208.809 37.8327V37.2256C208.777 37.2583 208.713 37.289 208.619 37.3176C208.527 37.3442 208.422 37.3677 208.304 37.3881C208.185 37.4065 208.07 37.4239 207.957 37.4403C207.845 37.4546 207.751 37.4668 207.675 37.4771C207.497 37.4995 207.335 37.5374 207.187 37.5905C207.042 37.6437 206.926 37.7203 206.838 37.8205C206.752 37.9186 206.709 38.0494 206.709 38.2129C206.709 38.4398 206.793 38.6115 206.961 38.728C207.128 38.8425 207.342 38.8997 207.601 38.8997ZM211.864 36.7351V39.5314H210.947V34.8218H211.827V35.5883H211.886C211.994 35.3389 212.164 35.1386 212.395 34.9874C212.628 34.8361 212.921 34.7605 213.275 34.7605C213.595 34.7605 213.877 34.8279 214.118 34.9628C214.359 35.0957 214.546 35.294 214.679 35.5577C214.812 35.8213 214.878 36.1474 214.878 36.5358V39.5314H213.961V36.6461C213.961 36.3048 213.872 36.038 213.695 35.8459C213.517 35.6517 213.272 35.5546 212.962 35.5546C212.749 35.5546 212.56 35.6006 212.395 35.6926C212.231 35.7845 212.101 35.9195 212.005 36.0973C211.911 36.2731 211.864 36.4857 211.864 36.7351ZM217.11 37.7254V37.6672C217.114 37.287 217.152 36.9844 217.224 36.7596C217.297 36.5347 217.402 36.3528 217.536 36.2138C217.671 36.0748 217.834 35.9481 218.024 35.8336C218.147 35.7559 218.257 35.6691 218.355 35.573C218.453 35.4769 218.531 35.3665 218.588 35.2418C218.645 35.1172 218.674 34.9792 218.674 34.8279C218.674 34.646 218.631 34.4886 218.545 34.3557C218.459 34.2229 218.345 34.1207 218.202 34.0491C218.061 33.9755 217.903 33.9387 217.73 33.9387C217.572 33.9387 217.422 33.9714 217.279 34.0368C217.136 34.1023 217.017 34.2045 216.923 34.3435C216.829 34.4804 216.775 34.6572 216.761 34.8739H215.829C215.843 34.506 215.936 34.1953 216.108 33.9418C216.279 33.6863 216.506 33.4931 216.788 33.3623C217.072 33.2315 217.386 33.1661 217.73 33.1661C218.106 33.1661 218.435 33.2366 218.717 33.3776C218.999 33.5166 219.218 33.7118 219.373 33.9633C219.53 34.2126 219.609 34.5039 219.609 34.8371C219.609 35.066 219.573 35.2725 219.502 35.4565C219.43 35.6384 219.328 35.8009 219.195 35.944C219.064 36.0871 218.907 36.2138 218.723 36.3242C218.549 36.4325 218.408 36.545 218.3 36.6615C218.194 36.778 218.116 36.916 218.067 37.0754C218.018 37.2348 217.991 37.4321 217.987 37.6672V37.7254H217.11ZM217.573 39.5896C217.406 39.5896 217.262 39.5304 217.141 39.4118C217.02 39.2912 216.96 39.1461 216.96 38.9764C216.96 38.8088 217.02 38.6657 217.141 38.5471C217.262 38.4265 217.406 38.3662 217.573 38.3662C217.739 38.3662 217.882 38.4265 218.003 38.5471C218.125 38.6657 218.186 38.8088 218.186 38.9764C218.186 39.0888 218.158 39.1921 218.101 39.2861C218.045 39.3781 217.972 39.4517 217.88 39.5068C217.788 39.562 217.686 39.5896 217.573 39.5896Z" fill="#333333"/>
<path d="M162.48 50.6261C162.48 52.284 161.136 53.6279 159.478 53.6279C157.821 53.6279 156.477 52.284 156.477 50.6261C156.477 48.9682 157.821 47.6243 159.478 47.6243C161.136 47.6243 162.48 48.9682 162.48 50.6261ZM156.954 50.6261C156.954 52.0201 158.084 53.1502 159.478 53.1502C160.872 53.1502 162.002 52.0201 162.002 50.6261C162.002 49.2321 160.872 48.102 159.478 48.102C158.084 48.102 156.954 49.2321 156.954 50.6261Z" fill="#D9D9D9"/>
<path d="M164.959 47.1954H165.721L167.245 49.7602H167.309L168.833 47.1954H169.595L167.609 50.4256V52.6899H166.944V50.4256L164.959 47.1954ZM171.514 52.7758C171.117 52.7758 170.775 52.6882 170.487 52.5129C170.201 52.3358 169.98 52.089 169.824 51.7724C169.67 51.454 169.593 51.0838 169.593 50.6617C169.593 50.2396 169.67 49.8676 169.824 49.5456C169.98 49.2219 170.196 48.9697 170.473 48.789C170.752 48.6066 171.078 48.5154 171.45 48.5154C171.665 48.5154 171.877 48.5512 172.086 48.6227C172.295 48.6942 172.486 48.8105 172.657 48.9715C172.829 49.1307 172.966 49.3417 173.068 49.6046C173.17 49.8676 173.221 50.1913 173.221 50.5758V50.8441H170.044V50.2968H172.577C172.577 50.0643 172.53 49.8568 172.437 49.6744C172.346 49.492 172.216 49.348 172.046 49.2424C171.877 49.1369 171.679 49.0842 171.45 49.0842C171.198 49.0842 170.98 49.1468 170.795 49.272C170.613 49.3954 170.473 49.5563 170.374 49.7549C170.276 49.9534 170.227 50.1663 170.227 50.3934V50.7583C170.227 51.0695 170.28 51.3333 170.388 51.5497C170.497 51.7643 170.648 51.928 170.841 52.0407C171.034 52.1516 171.259 52.207 171.514 52.207C171.681 52.207 171.831 52.1838 171.965 52.1373C172.101 52.089 172.218 52.0174 172.317 51.9226C172.415 51.8261 172.491 51.7062 172.545 51.5631L173.156 51.7348C173.092 51.9423 172.984 52.1247 172.832 52.2821C172.68 52.4378 172.492 52.5594 172.268 52.647C172.045 52.7329 171.793 52.7758 171.514 52.7758ZM177.103 49.492L176.534 49.6529C176.498 49.5581 176.446 49.466 176.376 49.3766C176.308 49.2854 176.215 49.2103 176.097 49.1512C175.979 49.0922 175.828 49.0627 175.643 49.0627C175.391 49.0627 175.181 49.1208 175.013 49.2371C174.847 49.3516 174.763 49.4973 174.763 49.6744C174.763 49.8318 174.821 49.9561 174.935 50.0473C175.05 50.1385 175.228 50.2145 175.472 50.2754L176.083 50.4256C176.452 50.515 176.726 50.6519 176.907 50.8361C177.088 51.0185 177.178 51.2537 177.178 51.5417C177.178 51.7778 177.11 51.9888 176.974 52.1748C176.84 52.3608 176.652 52.5075 176.411 52.6148C176.169 52.7221 175.888 52.7758 175.568 52.7758C175.148 52.7758 174.8 52.6846 174.525 52.5021C174.249 52.3197 174.075 52.0532 174.001 51.7026L174.602 51.5524C174.66 51.7742 174.768 51.9405 174.927 52.0514C175.088 52.1623 175.298 52.2178 175.557 52.2178C175.853 52.2178 176.087 52.1552 176.26 52.03C176.436 51.903 176.523 51.7509 176.523 51.5739C176.523 51.4308 176.473 51.3109 176.373 51.2144C176.273 51.116 176.119 51.0427 175.912 50.9944L175.225 50.8334C174.847 50.744 174.57 50.6053 174.393 50.4175C174.218 50.228 174.13 49.991 174.13 49.7066C174.13 49.4741 174.195 49.2684 174.326 49.0895C174.458 48.9107 174.638 48.7703 174.865 48.6683C175.094 48.5664 175.354 48.5154 175.643 48.5154C176.051 48.5154 176.371 48.6048 176.604 48.7837C176.838 48.9625 177.004 49.1986 177.103 49.492Z" fill="#4F4F4F"/>
<path d="M162.48 64.7847C162.48 66.4425 161.136 67.7865 159.478 67.7865C157.821 67.7865 156.477 66.4425 156.477 64.7847C156.477 63.1268 157.821 61.7828 159.478 61.7828C161.136 61.7828 162.48 63.1268 162.48 64.7847ZM156.954 64.7847C156.954 66.1787 158.084 67.3088 159.478 67.3088C160.872 67.3088 162.002 66.1787 162.002 64.7847C162.002 63.3906 160.872 62.2606 159.478 62.2606C158.084 62.2606 156.954 63.3906 156.954 64.7847Z" fill="#A58CF0"/>
<circle cx="159.477" cy="64.7846" r="1.50091" fill="#A58CF0"/>
<path d="M169.788 61.354V66.8485H169.144L166.15 62.5344H166.096V66.8485H165.431V61.354H166.075L169.08 65.6788H169.133V61.354H169.788ZM172.708 66.9344C172.336 66.9344 172.009 66.8458 171.728 66.6688C171.449 66.4917 171.231 66.244 171.074 65.9256C170.918 65.6072 170.84 65.2352 170.84 64.8095C170.84 64.3803 170.918 64.0056 171.074 63.6854C171.231 63.3652 171.449 63.1166 171.728 62.9396C172.009 62.7625 172.336 62.674 172.708 62.674C173.08 62.674 173.405 62.7625 173.684 62.9396C173.965 63.1166 174.183 63.3652 174.339 63.6854C174.496 64.0056 174.575 64.3803 174.575 64.8095C174.575 65.2352 174.496 65.6072 174.339 65.9256C174.183 66.244 173.965 66.4917 173.684 66.6688C173.405 66.8458 173.08 66.9344 172.708 66.9344ZM172.708 66.3656C172.99 66.3656 173.223 66.2932 173.405 66.1483C173.588 66.0034 173.723 65.8129 173.81 65.5768C173.898 65.3407 173.942 65.085 173.942 64.8095C173.942 64.5341 173.898 64.2774 173.81 64.0395C173.723 63.8017 173.588 63.6094 173.405 63.4627C173.223 63.3161 172.99 63.2427 172.708 63.2427C172.425 63.2427 172.192 63.3161 172.01 63.4627C171.828 63.6094 171.693 63.8017 171.605 64.0395C171.517 64.2774 171.473 64.5341 171.473 64.8095C171.473 65.085 171.517 65.3407 171.605 65.5768C171.693 65.8129 171.828 66.0034 172.01 66.1483C172.192 66.2932 172.425 66.3656 172.708 66.3656Z" fill="#4F4F4F"/>
<path d="M170.049 94.7998V88.5203H172.404C172.886 88.5203 173.291 88.6103 173.618 88.7902C173.947 88.97 174.195 89.2174 174.363 89.5322C174.533 89.8449 174.618 90.2006 174.618 90.5992C174.618 91.0019 174.533 91.3596 174.363 91.6723C174.193 91.9851 173.943 92.2314 173.612 92.4113C173.281 92.5891 172.873 92.678 172.389 92.678H170.828V91.7429H172.235C172.517 91.7429 172.748 91.6938 172.928 91.5957C173.108 91.4976 173.241 91.3627 173.327 91.191C173.415 91.0193 173.459 90.822 173.459 90.5992C173.459 90.3764 173.415 90.1802 173.327 90.0105C173.241 89.8408 173.107 89.709 172.925 89.615C172.745 89.5189 172.513 89.4709 172.229 89.4709H171.187V94.7998H170.049ZM175.557 94.7998V90.0902H176.633V90.8751H176.682C176.768 90.6033 176.915 90.3938 177.123 90.2466C177.334 90.0974 177.574 90.0228 177.844 90.0228C177.905 90.0228 177.974 90.0258 178.049 90.032C178.127 90.036 178.191 90.0432 178.243 90.0534V91.0744C178.196 91.0581 178.121 91.0438 178.019 91.0315C177.919 91.0172 177.821 91.0101 177.727 91.0101C177.525 91.0101 177.343 91.054 177.182 91.1419C177.022 91.2277 176.897 91.3473 176.805 91.5006C176.713 91.6539 176.667 91.8308 176.667 92.0311V94.7998H175.557ZM180.871 94.8918C180.399 94.8918 179.991 94.7937 179.648 94.5974C179.306 94.3992 179.044 94.1191 178.86 93.7573C178.676 93.3935 178.584 92.9652 178.584 92.4726C178.584 91.9882 178.676 91.563 178.86 91.1971C179.046 90.8292 179.305 90.543 179.638 90.3386C179.972 90.1321 180.363 90.0289 180.813 90.0289C181.103 90.0289 181.377 90.0759 181.634 90.1699C181.894 90.2619 182.123 90.405 182.321 90.5992C182.522 90.7934 182.679 91.0407 182.793 91.3412C182.908 91.6396 182.965 91.9953 182.965 92.4082V92.7486H179.105V92.0004H181.901C181.899 91.7878 181.853 91.5988 181.763 91.4332C181.673 91.2656 181.548 91.1337 181.386 91.0376C181.227 90.9416 181.041 90.8935 180.828 90.8935C180.601 90.8935 180.402 90.9487 180.23 91.0591C180.058 91.1674 179.925 91.3105 179.829 91.4884C179.734 91.6642 179.686 91.8573 179.684 92.0679V92.721C179.684 92.9949 179.734 93.2299 179.835 93.4262C179.935 93.6204 180.075 93.7696 180.255 93.8738C180.435 93.976 180.645 94.0271 180.886 94.0271C181.048 94.0271 181.194 94.0047 181.325 93.9597C181.456 93.9127 181.569 93.8442 181.665 93.7543C181.761 93.6643 181.834 93.5529 181.883 93.42L182.919 93.5366C182.854 93.8105 182.729 94.0496 182.545 94.254C182.363 94.4564 182.13 94.6138 181.846 94.7262C181.562 94.8366 181.237 94.8918 180.871 94.8918ZM187.976 90.0902L186.299 94.7998H185.072L183.395 90.0902H184.579L185.661 93.5887H185.71L186.796 90.0902H187.976Z" fill="#A58CF0"/>
<rect x="156.746" y="79.7525" width="44.3631" height="24.0946" rx="4.04731" stroke="#A58CF0" stroke-width="0.539641"/>
<rect x="389.297" y="79.4827" width="45.9028" height="24.6343" rx="4.31713" fill="#A58CF0"/>
<path d="M408.03 88.5203V94.7998H407.018L404.059 90.5225H404.007V94.7998H402.869V88.5203H403.887L406.843 92.8007H406.898V88.5203H408.03ZM411.305 94.8918C410.833 94.8918 410.425 94.7937 410.082 94.5974C409.74 94.3992 409.478 94.1191 409.294 93.7573C409.11 93.3935 409.018 92.9652 409.018 92.4726C409.018 91.9882 409.11 91.563 409.294 91.1971C409.48 90.8292 409.739 90.543 410.072 90.3386C410.406 90.1321 410.797 90.0289 411.247 90.0289C411.537 90.0289 411.811 90.0759 412.069 90.1699C412.328 90.2619 412.557 90.405 412.755 90.5992C412.956 90.7934 413.113 91.0407 413.228 91.3412C413.342 91.6396 413.399 91.9953 413.399 92.4082V92.7486H409.539V92.0004H412.335C412.333 91.7878 412.287 91.5988 412.197 91.4332C412.107 91.2656 411.982 91.1337 411.82 91.0376C411.661 90.9416 411.475 90.8935 411.262 90.8935C411.035 90.8935 410.836 90.9487 410.664 91.0591C410.493 91.1674 410.359 91.3105 410.263 91.4884C410.169 91.6642 410.121 91.8573 410.118 92.0679V92.721C410.118 92.9949 410.169 93.2299 410.269 93.4262C410.369 93.6204 410.509 93.7696 410.689 93.8738C410.869 93.976 411.079 94.0271 411.32 94.0271C411.482 94.0271 411.628 94.0047 411.759 93.9597C411.89 93.9127 412.003 93.8442 412.099 93.7543C412.195 93.6643 412.268 93.5529 412.317 93.42L413.353 93.5366C413.288 93.8105 413.163 94.0496 412.979 94.254C412.797 94.4564 412.564 94.6138 412.28 94.7262C411.996 94.8366 411.671 94.8918 411.305 94.8918ZM415.145 90.0902L416.095 91.8287L417.061 90.0902H418.235L416.816 92.445L418.26 94.7998H417.092L416.095 93.1042L415.108 94.7998H413.93L415.365 92.445L413.967 90.0902H415.145ZM421.446 90.0902V90.9487H418.738V90.0902H421.446ZM419.407 88.9619H420.517V93.3832C420.517 93.5325 420.539 93.6469 420.584 93.7267C420.631 93.8043 420.692 93.8575 420.768 93.8861C420.844 93.9147 420.927 93.929 421.019 93.929C421.089 93.929 421.152 93.9239 421.209 93.9137C421.269 93.9035 421.314 93.8943 421.344 93.8861L421.531 94.7538C421.472 94.7743 421.387 94.7967 421.277 94.8213C421.169 94.8458 421.036 94.8601 420.878 94.8642C420.6 94.8724 420.35 94.8305 420.127 94.7385C419.904 94.6445 419.728 94.4993 419.597 94.3031C419.468 94.1069 419.405 93.8616 419.407 93.5672V88.9619Z" fill="white"/>
</g>
<g filter="url(#filter1_dd_1127_3618)">
<rect x="73.5781" y="144.088" width="321.898" height="108.903" rx="4.31713" fill="white" shape-rendering="crispEdges"/>
<path d="M97.8868 171.356H95.8539V165.077H97.9512C98.5665 165.077 99.0949 165.202 99.5364 165.454C99.9779 165.703 100.316 166.062 100.551 166.53C100.788 166.996 100.907 167.555 100.907 168.207C100.907 168.861 100.787 169.424 100.548 169.894C100.311 170.364 99.9677 170.726 99.518 170.979C99.0683 171.23 98.5246 171.356 97.8868 171.356ZM96.8014 170.528H97.8347C98.313 170.528 98.7106 170.438 99.0274 170.259C99.3442 170.077 99.5814 169.814 99.7387 169.471C99.8961 169.125 99.9748 168.704 99.9748 168.207C99.9748 167.715 99.8961 167.297 99.7387 166.953C99.5834 166.61 99.3514 166.349 99.0427 166.171C98.7341 165.994 98.3508 165.905 97.8929 165.905H96.8014V170.528ZM103.995 171.451C103.554 171.451 103.168 171.35 102.839 171.148C102.51 170.945 102.255 170.662 102.073 170.298C101.891 169.935 101.8 169.509 101.8 169.023C101.8 168.534 101.891 168.107 102.073 167.741C102.255 167.375 102.51 167.091 102.839 166.889C103.168 166.686 103.554 166.585 103.995 166.585C104.437 166.585 104.822 166.686 105.151 166.889C105.48 167.091 105.736 167.375 105.918 167.741C106.1 168.107 106.191 168.534 106.191 169.023C106.191 169.509 106.1 169.935 105.918 170.298C105.736 170.662 105.48 170.945 105.151 171.148C104.822 171.35 104.437 171.451 103.995 171.451ZM103.998 170.682C104.285 170.682 104.522 170.606 104.71 170.455C104.898 170.303 105.037 170.102 105.127 169.851C105.219 169.599 105.265 169.322 105.265 169.02C105.265 168.719 105.219 168.443 105.127 168.192C105.037 167.938 104.898 167.735 104.71 167.582C104.522 167.428 104.285 167.352 103.998 167.352C103.71 167.352 103.471 167.428 103.281 167.582C103.093 167.735 102.953 167.938 102.861 168.192C102.771 168.443 102.726 168.719 102.726 169.02C102.726 169.322 102.771 169.599 102.861 169.851C102.953 170.102 103.093 170.303 103.281 170.455C103.471 170.606 103.71 170.682 103.998 170.682ZM110.079 173.122C109.942 173.122 109.817 173.111 109.704 173.089C109.592 173.068 109.508 173.046 109.453 173.021L109.674 172.27C109.841 172.315 109.991 172.334 110.121 172.328C110.252 172.322 110.368 172.273 110.468 172.181C110.57 172.089 110.66 171.939 110.738 171.73L110.851 171.418L109.128 166.647H110.109L111.302 170.301H111.351L112.544 166.647H113.528L111.587 171.985C111.497 172.23 111.383 172.438 111.244 172.607C111.105 172.779 110.939 172.908 110.747 172.994C110.555 173.079 110.332 173.122 110.079 173.122ZM116.213 171.451C115.772 171.451 115.386 171.35 115.057 171.148C114.728 170.945 114.473 170.662 114.291 170.298C114.109 169.935 114.018 169.509 114.018 169.023C114.018 168.534 114.109 168.107 114.291 167.741C114.473 167.375 114.728 167.091 115.057 166.889C115.386 166.686 115.772 166.585 116.213 166.585C116.655 166.585 117.04 166.686 117.369 166.889C117.698 167.091 117.954 167.375 118.136 167.741C118.318 168.107 118.408 168.534 118.408 169.023C118.408 169.509 118.318 169.935 118.136 170.298C117.954 170.662 117.698 170.945 117.369 171.148C117.04 171.35 116.655 171.451 116.213 171.451ZM116.216 170.682C116.502 170.682 116.739 170.606 116.928 170.455C117.116 170.303 117.255 170.102 117.345 169.851C117.437 169.599 117.483 169.322 117.483 169.02C117.483 168.719 117.437 168.443 117.345 168.192C117.255 167.938 117.116 167.735 116.928 167.582C116.739 167.428 116.502 167.352 116.216 167.352C115.928 167.352 115.689 167.428 115.499 167.582C115.311 167.735 115.171 167.938 115.079 168.192C114.989 168.443 114.944 168.719 114.944 169.02C114.944 169.322 114.989 169.599 115.079 169.851C115.171 170.102 115.311 170.303 115.499 170.455C115.689 170.606 115.928 170.682 116.216 170.682ZM122.415 169.403V166.647H123.335V171.356H122.434V170.541H122.385C122.276 170.792 122.102 171.002 121.863 171.169C121.626 171.335 121.331 171.418 120.977 171.418C120.675 171.418 120.407 171.351 120.174 171.218C119.943 171.083 119.761 170.884 119.628 170.62C119.497 170.357 119.432 170.031 119.432 169.642V166.647H120.349V169.532C120.349 169.853 120.438 170.108 120.615 170.298C120.793 170.488 121.024 170.584 121.308 170.584C121.48 170.584 121.651 170.541 121.82 170.455C121.992 170.369 122.134 170.239 122.247 170.065C122.361 169.892 122.417 169.671 122.415 169.403ZM127.769 168.56V171.356H126.852V165.077H127.756V167.413H127.815C127.925 167.16 128.094 166.958 128.321 166.809C128.547 166.66 128.844 166.585 129.21 166.585C129.533 166.585 129.815 166.652 130.056 166.785C130.299 166.917 130.487 167.116 130.62 167.379C130.755 167.641 130.823 167.968 130.823 168.361V171.356H129.906V168.471C129.906 168.126 129.817 167.858 129.639 167.668C129.461 167.475 129.214 167.379 128.897 167.379C128.68 167.379 128.486 167.425 128.314 167.517C128.145 167.609 128.011 167.744 127.913 167.922C127.817 168.098 127.769 168.311 127.769 168.56ZM133.416 171.46C133.118 171.46 132.848 171.405 132.607 171.295C132.366 171.182 132.175 171.02 132.034 170.807C131.895 170.595 131.825 170.334 131.825 170.025C131.825 169.76 131.876 169.541 131.978 169.369C132.081 169.198 132.219 169.062 132.392 168.962C132.566 168.861 132.76 168.786 132.975 168.735C133.19 168.684 133.408 168.645 133.631 168.618C133.913 168.585 134.142 168.559 134.318 168.538C134.494 168.516 134.621 168.48 134.701 168.431C134.781 168.382 134.821 168.302 134.821 168.192V168.17C134.821 167.903 134.745 167.695 134.594 167.548C134.445 167.401 134.222 167.327 133.925 167.327C133.617 167.327 133.374 167.396 133.196 167.533C133.02 167.668 132.898 167.818 132.831 167.983L131.969 167.787C132.071 167.501 132.221 167.27 132.417 167.094C132.615 166.916 132.843 166.788 133.101 166.708C133.358 166.626 133.629 166.585 133.913 166.585C134.101 166.585 134.301 166.608 134.511 166.653C134.724 166.696 134.922 166.775 135.106 166.892C135.292 167.008 135.444 167.175 135.563 167.392C135.681 167.606 135.741 167.885 135.741 168.229V171.356H134.845V170.712H134.809C134.749 170.831 134.66 170.947 134.542 171.062C134.423 171.176 134.271 171.271 134.085 171.347C133.899 171.423 133.676 171.46 133.416 171.46ZM133.616 170.725C133.869 170.725 134.086 170.674 134.266 170.574C134.448 170.474 134.586 170.343 134.68 170.182C134.776 170.018 134.824 169.844 134.824 169.658V169.05C134.791 169.083 134.728 169.114 134.634 169.142C134.542 169.169 134.436 169.193 134.318 169.213C134.199 169.231 134.084 169.249 133.971 169.265C133.859 169.279 133.765 169.292 133.689 169.302C133.512 169.324 133.349 169.362 133.202 169.415C133.057 169.468 132.94 169.545 132.852 169.645C132.766 169.743 132.724 169.874 132.724 170.038C132.724 170.265 132.807 170.436 132.975 170.553C133.143 170.667 133.356 170.725 133.616 170.725ZM140.822 166.647L139.114 171.356H138.133L136.422 166.647H137.406L138.599 170.271H138.648L139.838 166.647H140.822ZM143.553 171.451C143.089 171.451 142.69 171.352 142.354 171.154C142.021 170.954 141.764 170.672 141.582 170.311C141.402 169.947 141.312 169.521 141.312 169.032C141.312 168.55 141.402 168.124 141.582 167.757C141.764 167.389 142.017 167.101 142.342 166.895C142.669 166.689 143.051 166.585 143.489 166.585C143.754 166.585 144.012 166.629 144.261 166.717C144.511 166.805 144.735 166.943 144.933 167.131C145.131 167.319 145.288 167.563 145.402 167.864C145.516 168.162 145.574 168.525 145.574 168.952V169.277H141.83V168.591H144.675C144.675 168.349 144.626 168.136 144.528 167.95C144.43 167.762 144.292 167.613 144.114 167.505C143.938 167.397 143.732 167.343 143.495 167.343C143.237 167.343 143.012 167.406 142.82 167.533C142.63 167.657 142.483 167.821 142.379 168.023C142.277 168.224 142.226 168.441 142.226 168.676V169.213C142.226 169.528 142.281 169.796 142.391 170.016C142.504 170.237 142.66 170.406 142.86 170.522C143.061 170.637 143.295 170.694 143.562 170.694C143.736 170.694 143.895 170.669 144.038 170.62C144.181 170.569 144.304 170.494 144.409 170.393C144.513 170.293 144.593 170.17 144.648 170.022L145.515 170.179C145.446 170.434 145.321 170.658 145.141 170.85C144.964 171.04 144.74 171.189 144.47 171.295C144.202 171.399 143.897 171.451 143.553 171.451ZM152.905 166.647L151.197 171.356H150.216L148.505 166.647H149.489L150.682 170.271H150.731L151.921 166.647H152.905ZM153.766 171.356V166.647H154.683V171.356H153.766ZM154.229 165.92C154.07 165.92 153.933 165.867 153.819 165.76C153.706 165.652 153.65 165.523 153.65 165.374C153.65 165.223 153.706 165.094 153.819 164.988C153.933 164.879 154.07 164.825 154.229 164.825C154.389 164.825 154.525 164.879 154.637 164.988C154.752 165.094 154.809 165.223 154.809 165.374C154.809 165.523 154.752 165.652 154.637 165.76C154.525 165.867 154.389 165.92 154.229 165.92ZM159.446 167.796L158.615 167.944C158.58 167.837 158.525 167.736 158.449 167.64C158.376 167.544 158.275 167.465 158.149 167.404C158.022 167.343 157.864 167.312 157.673 167.312C157.414 167.312 157.197 167.37 157.023 167.487C156.85 167.601 156.763 167.749 156.763 167.931C156.763 168.089 156.821 168.215 156.938 168.312C157.054 168.408 157.242 168.486 157.502 168.548L158.25 168.719C158.683 168.819 159.006 168.974 159.219 169.182C159.431 169.391 159.538 169.662 159.538 169.995C159.538 170.277 159.456 170.528 159.292 170.749C159.131 170.968 158.905 171.14 158.615 171.264C158.327 171.389 157.992 171.451 157.612 171.451C157.085 171.451 156.655 171.339 156.321 171.114C155.988 170.887 155.784 170.565 155.708 170.148L156.594 170.013C156.649 170.244 156.763 170.419 156.935 170.538C157.106 170.654 157.33 170.712 157.606 170.712C157.907 170.712 158.147 170.65 158.327 170.525C158.506 170.399 158.596 170.244 158.596 170.062C158.596 169.915 158.541 169.791 158.431 169.691C158.322 169.591 158.156 169.515 157.931 169.464L157.134 169.29C156.694 169.189 156.369 169.03 156.159 168.811C155.95 168.593 155.846 168.316 155.846 167.98C155.846 167.702 155.924 167.459 156.079 167.251C156.234 167.042 156.449 166.88 156.723 166.763C156.997 166.645 157.311 166.585 157.664 166.585C158.173 166.585 158.574 166.696 158.866 166.916C159.159 167.135 159.352 167.428 159.446 167.796ZM161.916 171.46C161.618 171.46 161.348 171.405 161.107 171.295C160.866 171.182 160.674 171.02 160.533 170.807C160.394 170.595 160.325 170.334 160.325 170.025C160.325 169.76 160.376 169.541 160.478 169.369C160.58 169.198 160.718 169.062 160.892 168.962C161.066 168.861 161.26 168.786 161.475 168.735C161.689 168.684 161.908 168.645 162.131 168.618C162.413 168.585 162.642 168.559 162.818 168.538C162.994 168.516 163.121 168.48 163.201 168.431C163.281 168.382 163.321 168.302 163.321 168.192V168.17C163.321 167.903 163.245 167.695 163.094 167.548C162.944 167.401 162.722 167.327 162.425 167.327C162.117 167.327 161.873 167.396 161.696 167.533C161.52 167.668 161.398 167.818 161.331 167.983L160.469 167.787C160.571 167.501 160.72 167.27 160.917 167.094C161.115 166.916 161.343 166.788 161.6 166.708C161.858 166.626 162.129 166.585 162.413 166.585C162.601 166.585 162.8 166.608 163.011 166.653C163.223 166.696 163.422 166.775 163.606 166.892C163.792 167.008 163.944 167.175 164.063 167.392C164.181 167.606 164.24 167.885 164.24 168.229V171.356H163.345V170.712H163.308C163.249 170.831 163.16 170.947 163.042 171.062C162.923 171.176 162.771 171.271 162.585 171.347C162.399 171.423 162.176 171.46 161.916 171.46ZM162.116 170.725C162.369 170.725 162.586 170.674 162.766 170.574C162.948 170.474 163.085 170.343 163.18 170.182C163.276 170.018 163.324 169.844 163.324 169.658V169.05C163.291 169.083 163.228 169.114 163.134 169.142C163.042 169.169 162.936 169.193 162.818 169.213C162.699 169.231 162.584 169.249 162.471 169.265C162.359 169.279 162.265 169.292 162.189 169.302C162.011 169.324 161.849 169.362 161.702 169.415C161.557 169.468 161.44 169.545 161.352 169.645C161.266 169.743 161.223 169.874 161.223 170.038C161.223 170.265 161.307 170.436 161.475 170.553C161.642 170.667 161.856 170.725 162.116 170.725ZM166.464 169.55V169.492C166.468 169.112 166.506 168.809 166.578 168.584C166.651 168.36 166.755 168.178 166.89 168.039C167.025 167.9 167.188 167.773 167.378 167.658C167.5 167.581 167.611 167.494 167.709 167.398C167.807 167.302 167.885 167.191 167.942 167.067C167.999 166.942 168.028 166.804 168.028 166.653C168.028 166.471 167.985 166.313 167.899 166.181C167.813 166.048 167.699 165.945 167.556 165.874C167.415 165.8 167.257 165.764 167.083 165.764C166.926 165.764 166.776 165.796 166.633 165.862C166.49 165.927 166.371 166.029 166.277 166.168C166.183 166.305 166.129 166.482 166.115 166.699H165.182C165.197 166.331 165.29 166.02 165.461 165.767C165.633 165.511 165.86 165.318 166.142 165.187C166.426 165.056 166.74 164.991 167.083 164.991C167.46 164.991 167.789 165.061 168.071 165.202C168.353 165.341 168.572 165.537 168.727 165.788C168.884 166.037 168.963 166.329 168.963 166.662C168.963 166.891 168.927 167.097 168.856 167.281C168.784 167.463 168.682 167.626 168.549 167.769C168.418 167.912 168.261 168.039 168.077 168.149C167.903 168.257 167.762 168.37 167.654 168.486C167.547 168.603 167.47 168.741 167.421 168.9C167.372 169.06 167.345 169.257 167.341 169.492V169.55H166.464ZM166.927 171.414C166.759 171.414 166.615 171.355 166.495 171.237C166.374 171.116 166.314 170.971 166.314 170.801C166.314 170.634 166.374 170.491 166.495 170.372C166.615 170.251 166.759 170.191 166.927 170.191C167.093 170.191 167.236 170.251 167.356 170.372C167.479 170.491 167.54 170.634 167.54 170.801C167.54 170.914 167.512 171.017 167.454 171.111C167.399 171.203 167.326 171.276 167.234 171.332C167.142 171.387 167.04 171.414 166.927 171.414Z" fill="#333333"/>
<path d="M101.168 182.341C101.168 183.999 99.8237 185.343 98.1659 185.343C96.508 185.343 95.1641 183.999 95.1641 182.341C95.1641 180.683 96.508 179.339 98.1659 179.339C99.8237 179.339 101.168 180.683 101.168 182.341ZM95.6418 182.341C95.6418 183.735 96.7719 184.865 98.1659 184.865C99.5599 184.865 100.69 183.735 100.69 182.341C100.69 180.947 99.5599 179.817 98.1659 179.817C96.7719 179.817 95.6418 180.947 95.6418 182.341Z" fill="#A58CF0"/>
<circle cx="98.165" cy="182.341" r="1.50091" fill="#A58CF0"/>
<path d="M103.646 178.91H104.408L105.932 181.475H105.996L107.52 178.91H108.282L106.297 182.14V184.405H105.632V182.14L103.646 178.91ZM110.202 184.491C109.805 184.491 109.462 184.403 109.174 184.228C108.888 184.051 108.667 183.804 108.512 183.487C108.358 183.169 108.281 182.799 108.281 182.377C108.281 181.954 108.358 181.582 108.512 181.26C108.667 180.937 108.884 180.685 109.161 180.504C109.44 180.321 109.765 180.23 110.138 180.23C110.352 180.23 110.564 180.266 110.773 180.338C110.983 180.409 111.173 180.525 111.345 180.686C111.517 180.846 111.653 181.057 111.755 181.319C111.857 181.582 111.908 181.906 111.908 182.291V182.559H108.732V182.012H111.264C111.264 181.779 111.218 181.572 111.125 181.389C111.034 181.207 110.903 181.063 110.733 180.957C110.565 180.852 110.366 180.799 110.138 180.799C109.885 180.799 109.667 180.862 109.483 180.987C109.3 181.11 109.16 181.271 109.062 181.47C108.963 181.668 108.914 181.881 108.914 182.108V182.473C108.914 182.784 108.968 183.048 109.075 183.265C109.184 183.479 109.335 183.643 109.528 183.756C109.722 183.866 109.946 183.922 110.202 183.922C110.368 183.922 110.518 183.899 110.653 183.852C110.789 183.804 110.906 183.732 111.004 183.637C111.102 183.541 111.178 183.421 111.232 183.278L111.844 183.45C111.779 183.657 111.671 183.84 111.519 183.997C111.367 184.153 111.179 184.274 110.956 184.362C110.732 184.448 110.481 184.491 110.202 184.491ZM115.79 181.207L115.222 181.368C115.186 181.273 115.133 181.181 115.063 181.091C114.995 181 114.902 180.925 114.784 180.866C114.666 180.807 114.515 180.778 114.331 180.778C114.079 180.778 113.868 180.836 113.7 180.952C113.534 181.066 113.451 181.212 113.451 181.389C113.451 181.547 113.508 181.671 113.623 181.762C113.737 181.853 113.916 181.929 114.159 181.99L114.771 182.14C115.139 182.23 115.414 182.367 115.594 182.551C115.775 182.733 115.865 182.969 115.865 183.257C115.865 183.493 115.797 183.704 115.662 183.89C115.527 184.076 115.34 184.222 115.098 184.33C114.857 184.437 114.576 184.491 114.256 184.491C113.835 184.491 113.488 184.399 113.212 184.217C112.937 184.035 112.762 183.768 112.689 183.417L113.29 183.267C113.347 183.489 113.455 183.655 113.615 183.766C113.775 183.877 113.986 183.933 114.245 183.933C114.54 183.933 114.774 183.87 114.948 183.745C115.123 183.618 115.211 183.466 115.211 183.289C115.211 183.146 115.161 183.026 115.061 182.929C114.96 182.831 114.807 182.758 114.599 182.709L113.912 182.548C113.535 182.459 113.258 182.32 113.081 182.132C112.905 181.943 112.818 181.706 112.818 181.421C112.818 181.189 112.883 180.983 113.014 180.804C113.146 180.626 113.326 180.485 113.553 180.383C113.782 180.281 114.041 180.23 114.331 180.23C114.739 180.23 115.059 180.32 115.291 180.499C115.526 180.677 115.692 180.913 115.79 181.207Z" fill="#4F4F4F"/>
<path d="M101.168 196.453C101.168 198.111 99.8237 199.455 98.1659 199.455C96.508 199.455 95.1641 198.111 95.1641 196.453C95.1641 194.795 96.508 193.451 98.1659 193.451C99.8237 193.451 101.168 194.795 101.168 196.453ZM95.6418 196.453C95.6418 197.847 96.7719 198.977 98.1659 198.977C99.5599 198.977 100.69 197.847 100.69 196.453C100.69 195.059 99.5599 193.929 98.1659 193.929C96.7719 193.929 95.6418 195.059 95.6418 196.453Z" fill="#D9D9D9"/>
<path d="M108.35 192.959V198.453H107.707L104.712 194.139H104.659V198.453H103.993V192.959H104.637L107.642 197.284H107.696V192.959H108.35ZM111.27 198.539C110.898 198.539 110.572 198.451 110.291 198.273C110.012 198.096 109.794 197.849 109.636 197.53C109.481 197.212 109.403 196.84 109.403 196.414C109.403 195.985 109.481 195.61 109.636 195.29C109.794 194.97 110.012 194.721 110.291 194.544C110.572 194.367 110.898 194.279 111.27 194.279C111.642 194.279 111.968 194.367 112.247 194.544C112.527 194.721 112.746 194.97 112.901 195.29C113.059 195.61 113.137 195.985 113.137 196.414C113.137 196.84 113.059 197.212 112.901 197.53C112.746 197.849 112.527 198.096 112.247 198.273C111.968 198.451 111.642 198.539 111.27 198.539ZM111.27 197.97C111.553 197.97 111.785 197.898 111.968 197.753C112.15 197.608 112.285 197.418 112.373 197.182C112.46 196.945 112.504 196.69 112.504 196.414C112.504 196.139 112.46 195.882 112.373 195.644C112.285 195.406 112.15 195.214 111.968 195.067C111.785 194.921 111.553 194.847 111.27 194.847C110.988 194.847 110.755 194.921 110.573 195.067C110.39 195.214 110.255 195.406 110.167 195.644C110.08 195.882 110.036 196.139 110.036 196.414C110.036 196.69 110.08 196.945 110.167 197.182C110.255 197.418 110.39 197.608 110.573 197.753C110.755 197.898 110.988 197.97 111.27 197.97Z" fill="#4F4F4F"/>
<path d="M108.737 226.405V220.125H111.091C111.574 220.125 111.978 220.215 112.306 220.395C112.635 220.575 112.883 220.822 113.051 221.137C113.22 221.45 113.305 221.805 113.305 222.204C113.305 222.607 113.22 222.964 113.051 223.277C112.881 223.59 112.631 223.836 112.299 224.016C111.968 224.194 111.56 224.283 111.076 224.283H109.515V223.348H110.923C111.205 223.348 111.436 223.299 111.616 223.201C111.796 223.102 111.928 222.968 112.014 222.796C112.102 222.624 112.146 222.427 112.146 222.204C112.146 221.981 112.102 221.785 112.014 221.615C111.928 221.446 111.795 221.314 111.613 221.22C111.433 221.124 111.201 221.076 110.917 221.076H109.874V226.405H108.737ZM114.244 226.405V221.695H115.32V222.48H115.369C115.455 222.208 115.602 221.999 115.811 221.851C116.021 221.702 116.262 221.628 116.531 221.628C116.593 221.628 116.661 221.631 116.737 221.637C116.815 221.641 116.879 221.648 116.93 221.658V222.679C116.883 222.663 116.808 222.649 116.706 222.636C116.606 222.622 116.509 222.615 116.415 222.615C116.213 222.615 116.031 222.659 115.869 222.747C115.71 222.833 115.584 222.952 115.492 223.105C115.4 223.259 115.354 223.436 115.354 223.636V226.405H114.244ZM119.558 226.497C119.086 226.497 118.679 226.399 118.335 226.202C117.994 226.004 117.731 225.724 117.547 225.362C117.363 224.998 117.271 224.57 117.271 224.077C117.271 223.593 117.363 223.168 117.547 222.802C117.733 222.434 117.993 222.148 118.326 221.943C118.659 221.737 119.051 221.634 119.5 221.634C119.79 221.634 120.064 221.681 120.322 221.775C120.582 221.867 120.811 222.01 121.009 222.204C121.209 222.398 121.366 222.646 121.481 222.946C121.595 223.244 121.653 223.6 121.653 224.013V224.353H117.792V223.605H120.589C120.587 223.393 120.541 223.204 120.451 223.038C120.361 222.87 120.235 222.739 120.074 222.643C119.914 222.546 119.728 222.498 119.516 222.498C119.289 222.498 119.089 222.554 118.918 222.664C118.746 222.772 118.612 222.915 118.516 223.093C118.422 223.269 118.374 223.462 118.372 223.673V224.326C118.372 224.6 118.422 224.835 118.522 225.031C118.622 225.225 118.762 225.374 118.942 225.479C119.122 225.581 119.333 225.632 119.574 225.632C119.735 225.632 119.881 225.61 120.012 225.565C120.143 225.518 120.257 225.449 120.353 225.359C120.449 225.269 120.521 225.158 120.57 225.025L121.607 225.141C121.541 225.415 121.417 225.654 121.233 225.859C121.051 226.061 120.818 226.219 120.534 226.331C120.249 226.441 119.924 226.497 119.558 226.497ZM126.664 221.695L124.986 226.405H123.76L122.083 221.695H123.266L124.349 225.194H124.398L125.483 221.695H126.664Z" fill="#A58CF0"/>
<rect x="95.4339" y="211.357" width="44.3631" height="24.0946" rx="4.04731" stroke="#A58CF0" stroke-width="0.539641"/>
<rect x="327.984" y="211.088" width="45.9028" height="24.6343" rx="4.31713" fill="#A58CF0"/>
<path d="M346.717 220.125V226.405H345.705L342.747 222.127H342.694V226.405H341.557V220.125H342.575L345.531 224.406H345.586V220.125H346.717ZM349.993 226.497C349.52 226.497 349.113 226.399 348.769 226.202C348.428 226.004 348.165 225.724 347.981 225.362C347.797 224.998 347.705 224.57 347.705 224.077C347.705 223.593 347.797 223.168 347.981 222.802C348.167 222.434 348.427 222.148 348.76 221.943C349.093 221.737 349.485 221.634 349.934 221.634C350.225 221.634 350.498 221.681 350.756 221.775C351.016 221.867 351.245 222.01 351.443 222.204C351.643 222.398 351.801 222.646 351.915 222.946C352.03 223.244 352.087 223.6 352.087 224.013V224.353H348.226V223.605H351.023C351.021 223.393 350.975 223.204 350.885 223.038C350.795 222.87 350.669 222.739 350.508 222.643C350.348 222.546 350.162 222.498 349.95 222.498C349.723 222.498 349.523 222.554 349.352 222.664C349.18 222.772 349.046 222.915 348.95 223.093C348.856 223.269 348.808 223.462 348.806 223.673V224.326C348.806 224.6 348.856 224.835 348.956 225.031C349.056 225.225 349.196 225.374 349.376 225.479C349.556 225.581 349.767 225.632 350.008 225.632C350.169 225.632 350.316 225.61 350.446 225.565C350.577 225.518 350.691 225.449 350.787 225.359C350.883 225.269 350.955 225.158 351.004 225.025L352.041 225.141C351.975 225.415 351.851 225.654 351.667 225.859C351.485 226.061 351.252 226.219 350.968 226.331C350.683 226.441 350.358 226.497 349.993 226.497ZM353.832 221.695L354.783 223.434L355.748 221.695H356.923L355.503 224.05L356.947 226.405H355.779L354.783 224.709L353.795 226.405H352.618L354.053 224.05L352.655 221.695H353.832ZM360.133 221.695V222.554H357.426V221.695H360.133ZM358.094 220.567H359.204V224.988C359.204 225.137 359.227 225.252 359.271 225.332C359.319 225.409 359.38 225.462 359.455 225.491C359.531 225.52 359.615 225.534 359.707 225.534C359.776 225.534 359.84 225.529 359.897 225.519C359.956 225.508 360.001 225.499 360.032 225.491L360.219 226.359C360.16 226.379 360.075 226.402 359.964 226.426C359.856 226.451 359.723 226.465 359.566 226.469C359.288 226.477 359.037 226.435 358.815 226.343C358.592 226.249 358.415 226.104 358.284 225.908C358.155 225.712 358.092 225.466 358.094 225.172V220.567Z" fill="white"/>
</g>
<g clip-path="url(#clip1_1127_3618)">
<path fill-rule="evenodd" clip-rule="evenodd" d="M51.0167 169.422C50.7517 169.529 50.5126 169.645 50.3261 169.765C48.1815 171.159 46.3093 172.874 44.2885 174.43C38.5692 178.832 34.2287 184.923 32.14 191.819C31.9389 192.484 32.3168 193.186 32.9815 193.387C33.6462 193.588 34.3464 193.213 34.5475 192.548C36.4848 186.15 40.518 180.503 45.8221 176.421C47.7913 174.907 49.6099 173.234 51.6999 171.873C52.0119 171.67 52.5606 171.535 53.0445 171.369C53.5714 171.185 54.0479 170.977 54.3527 170.752C54.8566 170.38 55.0804 169.918 55.1067 169.451C55.1247 169.119 55.0515 168.744 54.7659 168.351C54.649 168.191 54.4124 167.958 53.9921 167.759C53.353 167.453 51.8433 167.019 49.8645 166.447C46.6202 165.516 42.0416 164.178 38.1782 162.312C35.7553 161.144 33.6118 159.784 32.355 158.149C31.9322 157.597 31.1416 157.495 30.5897 157.918C30.0398 158.338 29.9359 159.131 30.3587 159.683C31.8173 161.58 34.2665 163.22 37.0839 164.579C41.0813 166.506 45.8162 167.901 49.1709 168.866C49.8156 169.052 50.4544 169.245 51.0167 169.422Z" fill="#D5C9F8"/>
<path fill-rule="evenodd" clip-rule="evenodd" d="M47.9464 168.41C38.372 176.447 29.4944 177.745 22.8826 174.638C12.9323 169.962 8.38198 155.61 14.356 140.555C29.3058 102.879 75.9991 88.2411 112.664 90.61C113.359 90.6535 113.955 90.1281 114.001 89.435C114.047 88.7418 113.519 88.1441 112.826 88.098C75.1833 85.666 27.3654 100.944 12.0167 139.625C5.46058 156.148 10.8924 171.784 21.8122 176.915C29.1149 180.345 38.9899 179.214 49.5625 170.338C50.0933 169.89 50.1629 169.095 49.7181 168.566C49.2727 168.033 48.4772 167.963 47.9464 168.41Z" fill="#D5C9F8"/>
</g>
</g>
<defs>
<filter id="filter0_dd_1127_3618" x="127.512" y="8.57344" width="336.656" height="123.88" filterUnits="userSpaceOnUse" color-interpolation-filters="sRGB">
<feFlood flood-opacity="0" result="BackgroundImageFix"/>
<feColorMatrix in="SourceAlpha" type="matrix" values="0 0 0 0 0 0 0 0 0 0 0 0 0 0 0 0 0 0 127 0" result="hardAlpha"/>
<feOffset dy="3.68937"/>
<feGaussianBlur stdDeviation="3.68937"/>
<feComposite in2="hardAlpha" operator="out"/>
<feColorMatrix type="matrix" values="0 0 0 0 0 0 0 0 0 0 0 0 0 0 0 0 0 0 0.05 0"/>
<feBlend mode="normal" in2="BackgroundImageFix" result="effect1_dropShadow_1127_3618"/>
<feColorMatrix in="SourceAlpha" type="matrix" values="0 0 0 0 0 0 0 0 0 0 0 0 0 0 0 0 0 0 127 0" result="hardAlpha"/>
<feOffset dy="1.84469"/>
<feGaussianBlur stdDeviation="1.84469"/>
<feComposite in2="hardAlpha" operator="out"/>
<feColorMatrix type="matrix" values="0 0 0 0 0 0 0 0 0 0 0 0 0 0 0 0 0 0 0.07 0"/>
<feBlend mode="normal" in2="effect1_dropShadow_1127_3618" result="effect2_dropShadow_1127_3618"/>
<feBlend mode="normal" in="SourceGraphic" in2="effect2_dropShadow_1127_3618" result="shape"/>
</filter>
<filter id="filter1_dd_1127_3618" x="66.1994" y="140.398" width="336.656" height="123.66" filterUnits="userSpaceOnUse" color-interpolation-filters="sRGB">
<feFlood flood-opacity="0" result="BackgroundImageFix"/>
<feColorMatrix in="SourceAlpha" type="matrix" values="0 0 0 0 0 0 0 0 0 0 0 0 0 0 0 0 0 0 127 0" result="hardAlpha"/>
<feOffset dy="3.68937"/>
<feGaussianBlur stdDeviation="3.68937"/>
<feComposite in2="hardAlpha" operator="out"/>
<feColorMatrix type="matrix" values="0 0 0 0 0 0 0 0 0 0 0 0 0 0 0 0 0 0 0.05 0"/>
<feBlend mode="normal" in2="BackgroundImageFix" result="effect1_dropShadow_1127_3618"/>
<feColorMatrix in="SourceAlpha" type="matrix" values="0 0 0 0 0 0 0 0 0 0 0 0 0 0 0 0 0 0 127 0" result="hardAlpha"/>
<feOffset dy="1.84469"/>
<feGaussianBlur stdDeviation="1.84469"/>
<feComposite in2="hardAlpha" operator="out"/>
<feColorMatrix type="matrix" values="0 0 0 0 0 0 0 0 0 0 0 0 0 0 0 0 0 0 0.07 0"/>
<feBlend mode="normal" in2="effect1_dropShadow_1127_3618" result="effect2_dropShadow_1127_3618"/>
<feBlend mode="normal" in="SourceGraphic" in2="effect2_dropShadow_1127_3618" result="shape"/>
</filter>
<clipPath id="clip0_1127_3618">
<rect width="456.788" height="280" fill="white"/>
</clipPath>
<clipPath id="clip1_1127_3618">
<rect width="132.847" height="132.847" fill="white" transform="translate(65.8516 219.174) rotate(-141.999)"/>
</clipPath>
</defs>
</svg>
