<svg width="458" height="280" viewBox="0 0 458 280" fill="none" xmlns="http://www.w3.org/2000/svg">
<g clip-path="url(#clip0_1127_3619)">
<path fill-rule="evenodd" clip-rule="evenodd" d="M232.963 26.7496C338.55 26.391 397.57 77.1862 430.497 124.379C463.842 172.172 481.244 229.753 395.618 259.883C307.54 290.875 185.366 273.29 99.9501 240.691C28.1802 213.299 18.0729 167.419 44.0157 125.692C73.264 78.6482 128.769 27.1034 232.963 26.7496Z" fill="#FCF7FF"/>
<g filter="url(#filter0_dd_1127_3619)">
<rect width="337.021" height="112.759" rx="4.51995" fill="white" shape-rendering="crispEdges"/>
<path d="M23.8792 28.0798H22.8263L25.1922 21.5054H26.3382L28.7041 28.0798H27.6512L25.7925 22.6995H25.7411L23.8792 28.0798ZM24.0558 25.5053H27.4714V26.3399H24.0558V25.5053ZM29.5765 28.0798V23.149H30.5043V23.9323H30.5556C30.6455 23.6669 30.8039 23.4582 31.0307 23.3063C31.2597 23.1522 31.5187 23.0751 31.8076 23.0751C31.8675 23.0751 31.9381 23.0773 32.0195 23.0816C32.1029 23.0858 32.1682 23.0912 32.2153 23.0976V24.0157C32.1768 24.005 32.1083 23.9933 32.0098 23.9804C31.9114 23.9654 31.8129 23.9579 31.7145 23.9579C31.4876 23.9579 31.2854 24.0061 31.1078 24.1024C30.9323 24.1966 30.7932 24.3282 30.6904 24.4973C30.5877 24.6642 30.5364 24.8547 30.5364 25.0687V28.0798H29.5765ZM34.9945 28.1793C34.5087 28.1793 34.0903 28.0756 33.7393 27.868C33.3905 27.6582 33.1208 27.364 32.9304 26.9852C32.742 26.6042 32.6479 26.158 32.6479 25.6465C32.6479 25.1414 32.742 24.6963 32.9304 24.3111C33.1208 23.9258 33.3862 23.6252 33.7265 23.409C34.0689 23.1928 34.4691 23.0848 34.9271 23.0848C35.2053 23.0848 35.475 23.1308 35.7361 23.2228C35.9972 23.3148 36.2315 23.4593 36.4391 23.6562C36.6467 23.8531 36.8104 24.1088 36.9303 24.4234C37.0501 24.7359 37.11 25.1158 37.11 25.563V25.9033H33.1904V25.1842H36.1694C36.1694 24.9317 36.1181 24.7081 36.0154 24.5133C35.9126 24.3164 35.7682 24.1613 35.582 24.0478C35.3979 23.9344 35.1818 23.8777 34.9335 23.8777C34.6639 23.8777 34.4285 23.944 34.2273 24.0767C34.0282 24.2073 33.8742 24.3785 33.765 24.5904C33.658 24.8001 33.6045 25.028 33.6045 25.2741V25.8359C33.6045 26.1655 33.6623 26.4458 33.7779 26.677C33.8956 26.9081 34.0593 27.0847 34.269 27.2067C34.4787 27.3265 34.7238 27.3864 35.0041 27.3864C35.1861 27.3864 35.3519 27.3608 35.5017 27.3094C35.6515 27.2559 35.781 27.1767 35.8902 27.0718C35.9993 26.967 36.0828 26.8375 36.1406 26.6834L37.049 26.8471C36.9763 27.1146 36.8457 27.349 36.6574 27.5502C36.4712 27.7492 36.2369 27.9043 35.9544 28.0156C35.674 28.1248 35.3541 28.1793 34.9945 28.1793ZM41.1741 29.9289C41.0307 29.9289 40.9002 29.9171 40.7825 29.8936C40.6648 29.8722 40.577 29.8487 40.5193 29.823L40.7504 29.0365C40.9259 29.0836 41.0821 29.1039 41.2191 29.0975C41.356 29.091 41.477 29.0397 41.5818 28.9434C41.6888 28.8471 41.783 28.6898 41.8643 28.4715L41.9831 28.144L40.179 23.149H41.2062L42.455 26.9755H42.5064L43.7551 23.149H44.7856L42.7536 28.7379C42.6594 28.9947 42.5395 29.212 42.394 29.3896C42.2485 29.5694 42.0751 29.7042 41.874 29.7941C41.6728 29.884 41.4395 29.9289 41.1741 29.9289ZM47.5969 28.1793C47.1347 28.1793 46.7313 28.0734 46.3867 27.8615C46.0421 27.6497 45.7746 27.3533 45.5841 26.9723C45.3937 26.5914 45.2984 26.1462 45.2984 25.6369C45.2984 25.1254 45.3937 24.6781 45.5841 24.295C45.7746 23.9119 46.0421 23.6145 46.3867 23.4026C46.7313 23.1907 47.1347 23.0848 47.5969 23.0848C48.0592 23.0848 48.4626 23.1907 48.8072 23.4026C49.1517 23.6145 49.4193 23.9119 49.6097 24.295C49.8002 24.6781 49.8954 25.1254 49.8954 25.6369C49.8954 26.1462 49.8002 26.5914 49.6097 26.9723C49.4193 27.3533 49.1517 27.6497 48.8072 27.8615C48.4626 28.0734 48.0592 28.1793 47.5969 28.1793ZM47.6001 27.3736C47.8998 27.3736 48.148 27.2944 48.3449 27.136C48.5418 26.9777 48.6873 26.7669 48.7815 26.5036C48.8778 26.2404 48.926 25.9504 48.926 25.6337C48.926 25.3191 48.8778 25.0301 48.7815 24.7669C48.6873 24.5015 48.5418 24.2886 48.3449 24.1281C48.148 23.9676 47.8998 23.8873 47.6001 23.8873C47.2984 23.8873 47.048 23.9676 46.849 24.1281C46.6521 24.2886 46.5055 24.5015 46.4092 24.7669C46.315 25.0301 46.2679 25.3191 46.2679 25.6337C46.2679 25.9504 46.315 26.2404 46.4092 26.5036C46.5055 26.7669 46.6521 26.9777 46.849 27.136C47.048 27.2944 47.2984 27.3736 47.6001 27.3736ZM54.0904 26.0349V23.149H55.0534V28.0798H54.1096V27.2259H54.0583C53.9448 27.4892 53.7629 27.7085 53.5125 27.884C53.2643 28.0574 52.955 28.144 52.5848 28.144C52.268 28.144 51.9877 28.0745 51.7437 27.9354C51.5019 27.7941 51.3114 27.5855 51.1723 27.3094C51.0353 27.0333 50.9668 26.692 50.9668 26.2853V23.149H51.9267V26.1698C51.9267 26.5058 52.0198 26.7733 52.206 26.9723C52.3922 27.1713 52.634 27.2709 52.9315 27.2709C53.1112 27.2709 53.2899 27.2259 53.4676 27.136C53.6473 27.0462 53.7961 26.9103 53.9138 26.7283C54.0336 26.5464 54.0925 26.3153 54.0904 26.0349ZM60.8029 30.0316C60.4112 30.0316 60.0742 29.9803 59.7917 29.8775C59.5113 29.7748 59.2823 29.6389 59.1047 29.4698C58.927 29.3008 58.7944 29.1157 58.7066 28.9145L59.5316 28.5742C59.5894 28.6684 59.6665 28.7679 59.7628 28.8728C59.8612 28.9798 59.9939 29.0707 60.1608 29.1456C60.3299 29.2205 60.5471 29.258 60.8125 29.258C61.1763 29.258 61.477 29.1692 61.7146 28.9915C61.9521 28.816 62.0709 28.5357 62.0709 28.1505V27.181H62.0099C61.9521 27.2858 61.8687 27.4025 61.7595 27.5309C61.6525 27.6593 61.5048 27.7706 61.3165 27.8648C61.1282 27.9589 60.8831 28.006 60.5814 28.006C60.1919 28.006 59.8409 27.915 59.5284 27.7331C59.2181 27.5491 58.972 27.2784 58.7901 26.921C58.6103 26.5614 58.5204 26.1195 58.5204 25.5951C58.5204 25.0708 58.6092 24.6214 58.7869 24.2469C58.9666 23.8723 59.2128 23.5856 59.5252 23.3865C59.8377 23.1854 60.1919 23.0848 60.5878 23.0848C60.8938 23.0848 61.141 23.1361 61.3293 23.2389C61.5177 23.3394 61.6643 23.4572 61.7691 23.592C61.8761 23.7268 61.9585 23.8456 62.0163 23.9483H62.0869V23.149H63.0275V28.189C63.0275 28.6127 62.9291 28.9605 62.7322 29.2323C62.5353 29.5041 62.2689 29.7053 61.9329 29.8358C61.599 29.9664 61.2223 30.0316 60.8029 30.0316ZM60.7932 27.2099C61.0693 27.2099 61.3026 27.1457 61.4931 27.0173C61.6857 26.8867 61.8312 26.7005 61.9296 26.4587C62.0302 26.2147 62.0805 25.9226 62.0805 25.5823C62.0805 25.2506 62.0313 24.9585 61.9329 24.7059C61.8344 24.4534 61.69 24.2565 61.4995 24.1152C61.309 23.9719 61.0736 23.9002 60.7932 23.9002C60.5043 23.9002 60.2636 23.9751 60.0709 24.1249C59.8783 24.2725 59.7328 24.4737 59.6344 24.7284C59.5381 24.9831 59.4899 25.2677 59.4899 25.5823C59.4899 25.9055 59.5391 26.189 59.6376 26.433C59.736 26.677 59.8815 26.8675 60.0742 27.0044C60.2689 27.1414 60.5086 27.2099 60.7932 27.2099ZM64.3148 28.0798V23.149H65.2426V23.9323H65.2939C65.3838 23.6669 65.5422 23.4582 65.769 23.3063C65.998 23.1522 66.257 23.0751 66.5459 23.0751C66.6058 23.0751 66.6765 23.0773 66.7578 23.0816C66.8412 23.0858 66.9065 23.0912 66.9536 23.0976V24.0157C66.9151 24.005 66.8466 23.9933 66.7481 23.9804C66.6497 23.9654 66.5513 23.9579 66.4528 23.9579C66.226 23.9579 66.0237 24.0061 65.8461 24.1024C65.6706 24.1966 65.5315 24.3282 65.4288 24.4973C65.326 24.6642 65.2747 24.8547 65.2747 25.0687V28.0798H64.3148ZM69.1751 28.189C68.8626 28.189 68.5801 28.1312 68.3276 28.0156C68.075 27.8979 67.8749 27.7278 67.7273 27.5052C67.5817 27.2826 67.509 27.0098 67.509 26.6866C67.509 26.4084 67.5625 26.1794 67.6695 25.9996C67.7765 25.8199 67.9209 25.6775 68.1028 25.5727C68.2848 25.4678 68.4881 25.3886 68.7128 25.3351C68.9375 25.2816 69.1665 25.241 69.3998 25.2131C69.6951 25.1789 69.9348 25.1511 70.1189 25.1297C70.3029 25.1061 70.4367 25.0687 70.5201 25.0173C70.6036 24.9659 70.6453 24.8825 70.6453 24.7669V24.7444C70.6453 24.4641 70.5661 24.2469 70.4078 24.0928C70.2515 23.9387 70.0183 23.8616 69.7079 23.8616C69.3848 23.8616 69.1301 23.9333 68.9439 24.0767C68.7599 24.218 68.6325 24.3753 68.5619 24.5486L67.6598 24.3432C67.7668 24.0436 67.9231 23.8017 68.1285 23.6177C68.3361 23.4315 68.5747 23.2966 68.8444 23.2132C69.1141 23.1276 69.3976 23.0848 69.6951 23.0848C69.892 23.0848 70.1007 23.1083 70.3211 23.1554C70.5437 23.2003 70.7513 23.2838 70.9439 23.4058C71.1386 23.5278 71.2981 23.7022 71.4222 23.9291C71.5463 24.1538 71.6084 24.4459 71.6084 24.8054V28.0798H70.671V27.4057H70.6325C70.5704 27.5298 70.4773 27.6518 70.3532 27.7717C70.2291 27.8915 70.0696 27.991 69.8749 28.0702C69.6801 28.1494 69.4469 28.189 69.1751 28.189ZM69.3837 27.4185C69.6491 27.4185 69.8759 27.3661 70.0643 27.2612C70.2547 27.1564 70.3992 27.0194 70.4977 26.8503C70.5982 26.6791 70.6485 26.4961 70.6485 26.3014V25.6658C70.6143 25.7 70.5479 25.7321 70.4495 25.7621C70.3532 25.7899 70.243 25.8145 70.1189 25.8359C69.9947 25.8552 69.8738 25.8734 69.7561 25.8905C69.6384 25.9055 69.5399 25.9183 69.4608 25.929C69.2746 25.9525 69.1044 25.9921 68.9503 26.0478C68.7984 26.1034 68.6764 26.1837 68.5844 26.2885C68.4945 26.3913 68.4496 26.5282 68.4496 26.6995C68.4496 26.937 68.5373 27.1168 68.7128 27.2388C68.8883 27.3586 69.1119 27.4185 69.3837 27.4185ZM74.7327 28.1761C74.3346 28.1761 73.9794 28.0745 73.6669 27.8712C73.3566 27.6657 73.1126 27.3736 72.935 26.9948C72.7595 26.6138 72.6718 26.1569 72.6718 25.624C72.6718 25.0911 72.7606 24.6353 72.9382 24.2565C73.118 23.8777 73.3641 23.5877 73.6765 23.3865C73.989 23.1854 74.3432 23.0848 74.7391 23.0848C75.0452 23.0848 75.2913 23.1361 75.4775 23.2389C75.6658 23.3394 75.8113 23.4572 75.9141 23.592C76.0189 23.7268 76.1002 23.8456 76.158 23.9483H76.2158V21.5054H77.1757V28.0798H76.2383V27.3126H76.158C76.1002 27.4175 76.0168 27.5373 75.9076 27.6721C75.8006 27.807 75.653 27.9247 75.4646 28.0253C75.2763 28.1258 75.0323 28.1761 74.7327 28.1761ZM74.9446 27.3575C75.2207 27.3575 75.4539 27.2848 75.6444 27.1392C75.837 26.9916 75.9825 26.7872 76.081 26.5261C76.1816 26.265 76.2319 25.9611 76.2319 25.6144C76.2319 25.272 76.1826 24.9724 76.0842 24.7156C75.9857 24.4587 75.8413 24.2586 75.6508 24.1152C75.4603 23.9719 75.2249 23.9002 74.9446 23.9002C74.6557 23.9002 74.4149 23.9751 74.2223 24.1249C74.0297 24.2747 73.8841 24.4791 73.7857 24.738C73.6894 24.997 73.6412 25.2891 73.6412 25.6144C73.6412 25.944 73.6905 26.2404 73.7889 26.5036C73.8874 26.7669 74.0329 26.9755 74.2255 27.1296C74.4202 27.2816 74.6599 27.3575 74.9446 27.3575ZM81.6691 26.0349V23.149H82.6322V28.0798H81.6884V27.2259H81.637C81.5236 27.4892 81.3417 27.7085 81.0913 27.884C80.843 28.0574 80.5338 28.144 80.1635 28.144C79.8468 28.144 79.5665 28.0745 79.3225 27.9354C79.0806 27.7941 78.8902 27.5855 78.7511 27.3094C78.6141 27.0333 78.5456 26.692 78.5456 26.2853V23.149H79.5055V26.1698C79.5055 26.5058 79.5986 26.7733 79.7847 26.9723C79.9709 27.1713 80.2128 27.2709 80.5102 27.2709C80.69 27.2709 80.8687 27.2259 81.0464 27.136C81.2261 27.0462 81.3749 26.9103 81.4926 26.7283C81.6124 26.5464 81.6713 26.3153 81.6691 26.0349ZM85.3568 28.189C85.0444 28.189 84.7619 28.1312 84.5093 28.0156C84.2568 27.8979 84.0567 27.7278 83.909 27.5052C83.7635 27.2826 83.6907 27.0098 83.6907 26.6866C83.6907 26.4084 83.7442 26.1794 83.8513 25.9996C83.9583 25.8199 84.1027 25.6775 84.2846 25.5727C84.4665 25.4678 84.6699 25.3886 84.8946 25.3351C85.1193 25.2816 85.3483 25.241 85.5815 25.2131C85.8769 25.1789 86.1166 25.1511 86.3006 25.1297C86.4847 25.1061 86.6184 25.0687 86.7019 25.0173C86.7854 24.9659 86.8271 24.8825 86.8271 24.7669V24.7444C86.8271 24.4641 86.7479 24.2469 86.5896 24.0928C86.4333 23.9387 86.2 23.8616 85.8897 23.8616C85.5666 23.8616 85.3119 23.9333 85.1257 24.0767C84.9417 24.218 84.8143 24.3753 84.7437 24.5486L83.8416 24.3432C83.9486 24.0436 84.1049 23.8017 84.3103 23.6177C84.5179 23.4315 84.7565 23.2966 85.0262 23.2132C85.2958 23.1276 85.5794 23.0848 85.8769 23.0848C86.0738 23.0848 86.2824 23.1083 86.5029 23.1554C86.7254 23.2003 86.933 23.2838 87.1257 23.4058C87.3204 23.5278 87.4798 23.7022 87.604 23.9291C87.7281 24.1538 87.7902 24.4459 87.7902 24.8054V28.0798H86.8528V27.4057H86.8143C86.7522 27.5298 86.6591 27.6518 86.535 27.7717C86.4108 27.8915 86.2514 27.991 86.0567 28.0702C85.8619 28.1494 85.6286 28.189 85.3568 28.189ZM85.5655 27.4185C85.8309 27.4185 86.0577 27.3661 86.2461 27.2612C86.4365 27.1564 86.581 27.0194 86.6794 26.8503C86.78 26.6791 86.8303 26.4961 86.8303 26.3014V25.6658C86.7961 25.7 86.7297 25.7321 86.6313 25.7621C86.535 25.7899 86.4248 25.8145 86.3006 25.8359C86.1765 25.8552 86.0556 25.8734 85.9379 25.8905C85.8202 25.9055 85.7217 25.9183 85.6425 25.929C85.4564 25.9525 85.2862 25.9921 85.1321 26.0478C84.9802 26.1034 84.8582 26.1837 84.7662 26.2885C84.6763 26.3913 84.6313 26.5282 84.6313 26.6995C84.6313 26.937 84.7191 27.1168 84.8946 27.2388C85.0701 27.3586 85.2937 27.4185 85.5655 27.4185ZM91.3703 23.149V23.9194H88.677V23.149H91.3703ZM89.3993 21.9676H90.3591V26.632C90.3591 26.8182 90.3869 26.9584 90.4426 27.0526C90.4982 27.1446 90.5699 27.2077 90.6577 27.242C90.7476 27.2741 90.8449 27.2901 90.9498 27.2901C91.0268 27.2901 91.0943 27.2848 91.152 27.2741C91.2098 27.2634 91.2548 27.2548 91.2869 27.2484L91.4602 28.0413C91.4046 28.0627 91.3254 28.0841 91.2227 28.1055C91.1199 28.1291 90.9915 28.1419 90.8374 28.144C90.5849 28.1483 90.3495 28.1034 90.1312 28.0092C89.9129 27.915 89.7363 27.7695 89.6015 27.5726C89.4667 27.3757 89.3993 27.1285 89.3993 26.8311V21.9676ZM94.5043 28.1793C94.0185 28.1793 93.6001 28.0756 93.2491 27.868C92.9003 27.6582 92.6306 27.364 92.4401 26.9852C92.2518 26.6042 92.1576 26.158 92.1576 25.6465C92.1576 25.1414 92.2518 24.6963 92.4401 24.3111C92.6306 23.9258 92.896 23.6252 93.2363 23.409C93.5787 23.1928 93.9789 23.0848 94.4369 23.0848C94.7151 23.0848 94.9847 23.1308 95.2458 23.2228C95.5069 23.3148 95.7413 23.4593 95.9489 23.6562C96.1565 23.8531 96.3202 24.1088 96.44 24.4234C96.5599 24.7359 96.6198 25.1158 96.6198 25.563V25.9033H92.7002V25.1842H95.6792C95.6792 24.9317 95.6279 24.7081 95.5251 24.5133C95.4224 24.3164 95.2779 24.1613 95.0917 24.0478C94.9077 23.9344 94.6915 23.8777 94.4433 23.8777C94.1736 23.8777 93.9382 23.944 93.737 24.0767C93.538 24.2073 93.3839 24.3785 93.2748 24.5904C93.1678 24.8001 93.1143 25.028 93.1143 25.2741V25.8359C93.1143 26.1655 93.1721 26.4458 93.2876 26.677C93.4053 26.9081 93.569 27.0847 93.7788 27.2067C93.9885 27.3265 94.2336 27.3864 94.5139 27.3864C94.6958 27.3864 94.8617 27.3608 95.0115 27.3094C95.1613 27.2559 95.2908 27.1767 95.3999 27.0718C95.5091 26.967 95.5925 26.8375 95.6503 26.6834L96.5588 26.8471C96.486 27.1146 96.3555 27.349 96.1672 27.5502C95.981 27.7492 95.7466 27.9043 95.4641 28.0156C95.1838 28.1248 94.8638 28.1793 94.5043 28.1793ZM99.5306 28.1761C99.1326 28.1761 98.7773 28.0745 98.4649 27.8712C98.1545 27.6657 97.9106 27.3736 97.7329 26.9948C97.5574 26.6138 97.4697 26.1569 97.4697 25.624C97.4697 25.0911 97.5585 24.6353 97.7361 24.2565C97.9159 23.8777 98.162 23.5877 98.4745 23.3865C98.787 23.1854 99.1411 23.0848 99.5371 23.0848C99.8431 23.0848 100.089 23.1361 100.275 23.2389C100.464 23.3394 100.609 23.4572 100.712 23.592C100.817 23.7268 100.898 23.8456 100.956 23.9483H101.014V21.5054H101.974V28.0798H101.036V27.3126H100.956C100.898 27.4175 100.815 27.5373 100.706 27.6721C100.599 27.807 100.451 27.9247 100.263 28.0253C100.074 28.1258 99.8303 28.1761 99.5306 28.1761ZM99.7425 27.3575C100.019 27.3575 100.252 27.2848 100.442 27.1392C100.635 26.9916 100.78 26.7872 100.879 26.5261C100.98 26.265 101.03 25.9611 101.03 25.6144C101.03 25.272 100.981 24.9724 100.882 24.7156C100.784 24.4587 100.639 24.2586 100.449 24.1152C100.258 23.9719 100.023 23.9002 99.7425 23.9002C99.4536 23.9002 99.2128 23.9751 99.0202 24.1249C98.8276 24.2747 98.6821 24.4791 98.5836 24.738C98.4873 24.997 98.4392 25.2891 98.4392 25.6144C98.4392 25.944 98.4884 26.2404 98.5868 26.5036C98.6853 26.7669 98.8308 26.9755 99.0234 27.1296C99.2182 27.2816 99.4579 27.3575 99.7425 27.3575ZM104.393 26.189V26.128C104.398 25.73 104.437 25.4132 104.512 25.1778C104.589 24.9424 104.698 24.7519 104.84 24.6064C104.981 24.4609 105.151 24.3282 105.35 24.2083C105.478 24.127 105.594 24.0361 105.697 23.9355C105.799 23.8349 105.881 23.7193 105.941 23.5888C106.001 23.4582 106.03 23.3138 106.03 23.1554C106.03 22.9649 105.986 22.8001 105.896 22.661C105.806 22.5219 105.686 22.4149 105.536 22.34C105.388 22.263 105.224 22.2244 105.042 22.2244C104.877 22.2244 104.72 22.2587 104.57 22.3272C104.42 22.3957 104.296 22.5027 104.197 22.6482C104.099 22.7916 104.042 22.9767 104.027 23.2035H103.051C103.066 22.8183 103.164 22.493 103.344 22.2277C103.523 21.9601 103.761 21.7579 104.056 21.6209C104.354 21.484 104.682 21.4155 105.042 21.4155C105.436 21.4155 105.78 21.4893 106.075 21.637C106.371 21.7825 106.6 21.9869 106.762 22.2501C106.927 22.5112 107.01 22.8162 107.01 23.165C107.01 23.4047 106.972 23.6209 106.897 23.8135C106.822 24.004 106.715 24.1741 106.576 24.3239C106.439 24.4737 106.274 24.6064 106.082 24.722C105.9 24.8354 105.752 24.9531 105.639 25.0751C105.528 25.1971 105.446 25.3415 105.395 25.5085C105.344 25.6754 105.316 25.8819 105.311 26.128V26.189H104.393ZM104.878 28.1408C104.703 28.1408 104.552 28.0788 104.425 27.9546C104.299 27.8284 104.236 27.6764 104.236 27.4988C104.236 27.3233 104.299 27.1735 104.425 27.0494C104.552 26.9231 104.703 26.86 104.878 26.86C105.051 26.86 105.201 26.9231 105.327 27.0494C105.456 27.1735 105.52 27.3233 105.52 27.4988C105.52 27.6165 105.49 27.7246 105.43 27.823C105.372 27.9193 105.295 27.9964 105.199 28.0542C105.103 28.1119 104.996 28.1408 104.878 28.1408Z" fill="#333333"/>
<path d="M28.8873 40.273C28.8873 42.0087 27.4802 43.4158 25.7444 43.4158C24.0087 43.4158 22.6016 42.0087 22.6016 40.273C22.6016 38.5372 24.0087 37.1301 25.7444 37.1301C27.4802 37.1301 28.8873 38.5372 28.8873 40.273ZM23.1017 40.273C23.1017 41.7325 24.2849 42.9157 25.7444 42.9157C27.2039 42.9157 28.3871 41.7325 28.3871 40.273C28.3871 38.8135 27.2039 37.6303 25.7444 37.6303C24.2849 37.6303 23.1017 38.8135 23.1017 40.273Z" fill="#D9D9D9"/>
<path d="M31.4835 37.5872H32.2812L33.8767 40.2725H33.9441L35.5396 37.5872H36.3373L34.2587 40.9691V43.3398H33.5621V40.9691L31.4835 37.5872ZM38.3471 43.4297C37.9314 43.4297 37.5728 43.338 37.2713 43.1545C36.9717 42.9691 36.7404 42.7106 36.5775 42.3792C36.4164 42.0459 36.3359 41.6582 36.3359 41.2163C36.3359 40.7744 36.4164 40.3849 36.5775 40.0478C36.7404 39.7088 36.967 39.4448 37.2572 39.2557C37.5494 39.0647 37.8902 38.9692 38.2797 38.9692C38.5044 38.9692 38.7263 39.0066 38.9454 39.0815C39.1645 39.1564 39.3639 39.2781 39.5437 39.4467C39.7235 39.6133 39.8667 39.8343 39.9735 40.1096C40.0802 40.3849 40.1336 40.7238 40.1336 41.1264V41.4073H36.8078V40.8343H39.4594C39.4594 40.5908 39.4107 40.3736 39.3134 40.1826C39.2179 39.9916 39.0812 39.8409 38.9033 39.7304C38.7272 39.6199 38.5194 39.5647 38.2797 39.5647C38.0156 39.5647 37.7872 39.6302 37.5943 39.7613C37.4033 39.8905 37.2563 40.059 37.1533 40.2669C37.0503 40.4747 36.9988 40.6976 36.9988 40.9354V41.3174C36.9988 41.6433 37.055 41.9195 37.1673 42.1461C37.2816 42.3708 37.4398 42.5421 37.642 42.6601C37.8443 42.7762 38.0793 42.8342 38.3471 42.8342C38.5212 42.8342 38.6785 42.8099 38.819 42.7612C38.9613 42.7106 39.084 42.6357 39.187 42.5365C39.2899 42.4354 39.3695 42.3099 39.4257 42.1601L40.0661 42.3399C39.9987 42.5571 39.8854 42.7481 39.7263 42.9129C39.5671 43.0758 39.3705 43.2031 39.1364 43.2949C38.9023 43.3848 38.6392 43.4297 38.3471 43.4297ZM44.1981 39.9916L43.6026 40.1601C43.5651 40.0609 43.5099 39.9645 43.4368 39.8708C43.3657 39.7753 43.2683 39.6967 43.1447 39.6349C43.0211 39.5731 42.8629 39.5422 42.67 39.5422C42.406 39.5422 42.1859 39.603 42.0099 39.7248C41.8358 39.8446 41.7487 39.9972 41.7487 40.1826C41.7487 40.3474 41.8086 40.4776 41.9285 40.5731C42.0483 40.6686 42.2356 40.7481 42.4902 40.8118L43.1307 40.9691C43.5164 41.0627 43.8039 41.206 43.993 41.3989C44.1821 41.5899 44.2767 41.8361 44.2767 42.1376C44.2767 42.3848 44.2056 42.6058 44.0632 42.8005C43.9228 42.9953 43.7262 43.1488 43.4734 43.2612C43.2206 43.3736 42.9266 43.4297 42.5914 43.4297C42.1513 43.4297 41.7871 43.3342 41.4987 43.1432C41.2103 42.9522 41.0277 42.6732 40.951 42.3062L41.5802 42.1489C41.6401 42.3811 41.7534 42.5552 41.92 42.6713C42.0886 42.7874 42.3086 42.8455 42.5801 42.8455C42.8891 42.8455 43.1344 42.7799 43.3161 42.6488C43.4996 42.5159 43.5913 42.3567 43.5913 42.1713C43.5913 42.0215 43.5389 41.8961 43.434 41.7949C43.3292 41.6919 43.1681 41.6152 42.9509 41.5646L42.2318 41.3961C41.8367 41.3024 41.5464 41.1573 41.3611 40.9607C41.1775 40.7622 41.0858 40.5141 41.0858 40.2163C41.0858 39.9729 41.1541 39.7575 41.2908 39.5703C41.4294 39.383 41.6176 39.236 41.8554 39.1293C42.0951 39.0225 42.3667 38.9692 42.67 38.9692C43.097 38.9692 43.4322 39.0628 43.6756 39.2501C43.9209 39.4373 44.0951 39.6845 44.1981 39.9916Z" fill="#4F4F4F"/>
<path d="M28.8873 54.5329C28.8873 56.2686 27.4802 57.6757 25.7444 57.6757C24.0087 57.6757 22.6016 56.2686 22.6016 54.5329C22.6016 52.7971 24.0087 51.39 25.7444 51.39C27.4802 51.39 28.8873 52.7971 28.8873 54.5329ZM23.1017 54.5329C23.1017 55.9924 24.2849 57.1755 25.7444 57.1755C27.2039 57.1755 28.3871 55.9924 28.3871 54.5329C28.3871 53.0734 27.2039 51.8902 25.7444 51.8902C24.2849 51.8902 23.1017 53.0734 23.1017 54.5329Z" fill="#A58CF0"/>
<circle cx="25.7433" cy="54.5329" r="1.57143" fill="#A58CF0"/>
<path d="M36.5395 51.8471V57.5997H35.8654L32.7307 53.083H32.6745V57.5997H31.9779V51.8471H32.652L35.798 56.375H35.8542V51.8471H36.5395ZM39.5964 57.6896C39.2069 57.6896 38.8651 57.5969 38.5711 57.4115C38.279 57.2261 38.0505 56.9668 37.8857 56.6335C37.7228 56.3001 37.6413 55.9106 37.6413 55.465C37.6413 55.0155 37.7228 54.6232 37.8857 54.288C38.0505 53.9528 38.279 53.6925 38.5711 53.5071C38.8651 53.3217 39.2069 53.2291 39.5964 53.2291C39.9859 53.2291 40.3267 53.3217 40.6188 53.5071C40.9128 53.6925 41.1413 53.9528 41.3042 54.288C41.469 54.6232 41.5514 55.0155 41.5514 55.465C41.5514 55.9106 41.469 56.3001 41.3042 56.6335C41.1413 56.9668 40.9128 57.2261 40.6188 57.4115C40.3267 57.5969 39.9859 57.6896 39.5964 57.6896ZM39.5964 57.0941C39.8922 57.0941 40.1357 57.0183 40.3267 56.8666C40.5177 56.7149 40.6591 56.5155 40.7508 56.2683C40.8426 56.0211 40.8885 55.7533 40.8885 55.465C40.8885 55.1766 40.8426 54.9079 40.7508 54.6588C40.6591 54.4097 40.5177 54.2084 40.3267 54.0549C40.1357 53.9013 39.8922 53.8245 39.5964 53.8245C39.3005 53.8245 39.057 53.9013 38.866 54.0549C38.675 54.2084 38.5336 54.4097 38.4419 54.6588C38.3501 54.9079 38.3043 55.1766 38.3043 55.465C38.3043 55.7533 38.3501 56.0211 38.4419 56.2683C38.5336 56.5155 38.675 56.7149 38.866 56.8666C39.057 57.0183 39.3005 57.0941 39.5964 57.0941Z" fill="#4F4F4F"/>
<path d="M36.8125 85.1595V78.5851H39.278C39.783 78.5851 40.2068 78.6792 40.5492 78.8676C40.8937 79.0559 41.1538 79.3149 41.3293 79.6444C41.5069 79.9719 41.5957 80.3443 41.5957 80.7616C41.5957 81.1832 41.5069 81.5577 41.3293 81.8851C41.1516 82.2126 40.8895 82.4705 40.5428 82.6588C40.1961 82.845 39.7691 82.9381 39.2619 82.9381H37.6279V81.959H39.1014C39.3967 81.959 39.6386 81.9076 39.8269 81.8049C40.0152 81.7022 40.1543 81.5609 40.2442 81.3811C40.3362 81.2014 40.3823 80.9949 40.3823 80.7616C40.3823 80.5283 40.3362 80.3229 40.2442 80.1452C40.1543 79.9676 40.0142 79.8296 39.8237 79.7311C39.6354 79.6305 39.3924 79.5802 39.095 79.5802H38.0035V85.1595H36.8125ZM42.5788 85.1595V80.2287H43.7056V81.0505H43.757C43.8469 80.7659 44.0009 80.5465 44.2192 80.3924C44.4397 80.2362 44.6911 80.1581 44.9736 80.1581C45.0378 80.1581 45.1095 80.1613 45.1887 80.1677C45.27 80.172 45.3375 80.1795 45.391 80.1902V81.2592C45.3417 81.242 45.2636 81.2271 45.1566 81.2142C45.0518 81.1992 44.9501 81.1917 44.8516 81.1917C44.6398 81.1917 44.4493 81.2378 44.2802 81.3298C44.1133 81.4197 43.9817 81.5449 43.8854 81.7054C43.7891 81.8659 43.7409 82.051 43.7409 82.2607V85.1595H42.5788ZM48.1429 85.2559C47.6485 85.2559 47.2216 85.1531 46.862 84.9477C46.5046 84.7401 46.2296 84.4469 46.037 84.0681C45.8444 83.6871 45.7481 83.2388 45.7481 82.723C45.7481 82.2158 45.8444 81.7707 46.037 81.3876C46.2318 81.0023 46.5036 80.7027 46.8524 80.4887C47.2012 80.2726 47.6111 80.1645 48.0819 80.1645C48.3858 80.1645 48.6726 80.2137 48.9422 80.3122C49.214 80.4085 49.4537 80.5583 49.6613 80.7616C49.8711 80.9649 50.0358 81.2238 50.1557 81.5384C50.2755 81.8509 50.3355 82.2233 50.3355 82.6556V83.0119H46.2938V82.2286H49.2215C49.2194 82.0061 49.1712 81.8081 49.0771 81.6348C48.9829 81.4593 48.8513 81.3212 48.6822 81.2206C48.5153 81.1201 48.3205 81.0698 48.098 81.0698C47.8604 81.0698 47.6517 81.1275 47.472 81.2431C47.2922 81.3565 47.152 81.5063 47.0514 81.6925C46.953 81.8766 46.9027 82.0788 46.9006 82.2993V82.983C46.9006 83.2698 46.953 83.5159 47.0579 83.7214C47.1627 83.9247 47.3093 84.0809 47.4977 84.1901C47.686 84.2971 47.9064 84.3506 48.159 84.3506C48.328 84.3506 48.481 84.327 48.618 84.28C48.755 84.2307 48.8738 84.159 48.9743 84.0649C49.0749 83.9707 49.1509 83.8541 49.2023 83.715L50.2873 83.8369C50.2188 84.1237 50.0883 84.3741 49.8957 84.5881C49.7052 84.8 49.4612 84.9648 49.1637 85.0825C48.8663 85.1981 48.526 85.2559 48.1429 85.2559ZM55.5817 80.2287L53.8257 85.1595H52.5417L50.7857 80.2287H52.0248L53.158 83.8915H53.2094L54.3458 80.2287H55.5817Z" fill="#A58CF0"/>
<rect x="22.8841" y="69.9221" width="46.5547" height="24.4749" rx="4.23746" stroke="#A58CF0" stroke-width="0.564994"/>
<rect x="266.305" y="69.6396" width="48.1197" height="25.0399" rx="4.51995" fill="#A58CF0"/>
<path d="M285.918 78.5851V85.1595H284.859L281.761 80.6813H281.707V85.1595H280.516V78.5851H281.581L284.676 83.0665H284.734V78.5851H285.918ZM289.348 85.2559C288.853 85.2559 288.426 85.1531 288.067 84.9477C287.709 84.7401 287.434 84.4469 287.242 84.0681C287.049 83.6871 286.953 83.2388 286.953 82.723C286.953 82.2158 287.049 81.7707 287.242 81.3876C287.437 81.0023 287.708 80.7027 288.057 80.4887C288.406 80.2726 288.816 80.1645 289.287 80.1645C289.591 80.1645 289.877 80.2137 290.147 80.3122C290.419 80.4085 290.659 80.5583 290.866 80.7616C291.076 80.9649 291.241 81.2238 291.36 81.5384C291.48 81.8509 291.54 82.2233 291.54 82.6556V83.0119H287.499V82.2286H290.426C290.424 82.0061 290.376 81.8081 290.282 81.6348C290.188 81.4593 290.056 81.3212 289.887 81.2206C289.72 81.1201 289.525 81.0698 289.303 81.0698C289.065 81.0698 288.857 81.1275 288.677 81.2431C288.497 81.3565 288.357 81.5063 288.256 81.6925C288.158 81.8766 288.107 82.0788 288.105 82.2993V82.983C288.105 83.2698 288.158 83.5159 288.263 83.7214C288.368 83.9247 288.514 84.0809 288.702 84.1901C288.891 84.2971 289.111 84.3506 289.364 84.3506C289.533 84.3506 289.686 84.327 289.823 84.28C289.96 84.2307 290.079 84.159 290.179 84.0649C290.28 83.9707 290.356 83.8541 290.407 83.715L291.492 83.8369C291.424 84.1237 291.293 84.3741 291.1 84.5881C290.91 84.8 290.666 84.9648 290.369 85.0825C290.071 85.1981 289.731 85.2559 289.348 85.2559ZM293.368 80.2287L294.363 82.0489L295.374 80.2287H296.604L295.117 82.6941L296.629 85.1595H295.406L294.363 83.3843L293.329 85.1595H292.096L293.599 82.6941L292.135 80.2287H293.368ZM299.965 80.2287V81.1275H297.13V80.2287H299.965ZM297.83 79.0473H298.992V83.6764C298.992 83.8327 299.015 83.9525 299.063 84.036C299.112 84.1173 299.176 84.1729 299.255 84.2029C299.334 84.2329 299.422 84.2479 299.518 84.2479C299.591 84.2479 299.657 84.2425 299.717 84.2318C299.779 84.2211 299.827 84.2115 299.859 84.2029L300.054 85.1114C299.992 85.1328 299.904 85.1563 299.788 85.182C299.675 85.2077 299.536 85.2227 299.371 85.227C299.08 85.2355 298.817 85.1916 298.584 85.0953C298.351 84.9969 298.166 84.8449 298.029 84.6395C297.894 84.434 297.828 84.1772 297.83 83.869V79.0473Z" fill="white"/>
</g>
<g filter="url(#filter1_dd_1127_3619)">
<rect x="120.898" y="69.5441" width="337.021" height="104.573" rx="4.51995" fill="white" shape-rendering="crispEdges"/>
<path d="M145.51 97.6239L143.686 91.0494H144.73L146.01 96.1408H146.071L147.404 91.0494H148.437L149.77 96.144H149.831L151.108 91.0494H152.155L150.328 97.6239H149.33L147.946 92.6995H147.895L146.511 97.6239H145.51ZM153.942 94.6962V97.6239H152.982V91.0494H153.929V93.4956H153.99C154.106 93.2302 154.282 93.0194 154.52 92.8632C154.757 92.707 155.068 92.6288 155.451 92.6288C155.789 92.6288 156.084 92.6984 156.337 92.8375C156.591 92.9766 156.788 93.1842 156.927 93.4603C157.069 93.7342 157.139 94.0766 157.139 94.4875V97.6239H156.179V94.6031C156.179 94.2414 156.086 93.9611 155.9 93.762C155.714 93.5609 155.455 93.4603 155.123 93.4603C154.896 93.4603 154.693 93.5084 154.513 93.6047C154.336 93.701 154.196 93.8423 154.093 94.0285C153.992 94.2125 153.942 94.4351 153.942 94.6962ZM159.855 97.733C159.543 97.733 159.26 97.6753 159.008 97.5597C158.755 97.442 158.555 97.2719 158.407 97.0493C158.262 96.8267 158.189 96.5538 158.189 96.2307C158.189 95.9525 158.243 95.7235 158.35 95.5437C158.457 95.3639 158.601 95.2216 158.783 95.1167C158.965 95.0119 159.168 94.9327 159.393 94.8792C159.618 94.8257 159.847 94.785 160.08 94.7572C160.375 94.723 160.615 94.6951 160.799 94.6737C160.983 94.6502 161.117 94.6127 161.2 94.5614C161.284 94.51 161.325 94.4265 161.325 94.311V94.2885C161.325 94.0082 161.246 93.7909 161.088 93.6368C160.932 93.4828 160.698 93.4057 160.388 93.4057C160.065 93.4057 159.81 93.4774 159.624 93.6208C159.44 93.762 159.313 93.9193 159.242 94.0927L158.34 93.8872C158.447 93.5876 158.603 93.3458 158.809 93.1617C159.016 92.9755 159.255 92.8407 159.524 92.7572C159.794 92.6716 160.078 92.6288 160.375 92.6288C160.572 92.6288 160.781 92.6524 161.001 92.6995C161.224 92.7444 161.431 92.8279 161.624 92.9499C161.819 93.0718 161.978 93.2463 162.102 93.4731C162.226 93.6978 162.288 93.99 162.288 94.3495V97.6239H161.351V96.9498H161.313C161.25 97.0739 161.157 97.1959 161.033 97.3157C160.909 97.4356 160.75 97.5351 160.555 97.6143C160.36 97.6935 160.127 97.733 159.855 97.733ZM160.064 96.9626C160.329 96.9626 160.556 96.9102 160.744 96.8053C160.935 96.7004 161.079 96.5635 161.178 96.3944C161.278 96.2232 161.329 96.0402 161.329 95.8455V95.2098C161.294 95.2441 161.228 95.2762 161.13 95.3061C161.033 95.334 160.923 95.3586 160.799 95.38C160.675 95.3992 160.554 95.4174 160.436 95.4345C160.318 95.4495 160.22 95.4624 160.141 95.4731C159.955 95.4966 159.785 95.5362 159.63 95.5918C159.478 95.6475 159.356 95.7277 159.264 95.8326C159.175 95.9353 159.13 96.0723 159.13 96.2435C159.13 96.4811 159.217 96.6608 159.393 96.7828C159.568 96.9027 159.792 96.9626 160.064 96.9626ZM165.869 92.693V93.4635H163.175V92.693H165.869ZM163.898 91.5117H164.857V96.1761C164.857 96.3623 164.885 96.5025 164.941 96.5966C164.997 96.6887 165.068 96.7518 165.156 96.786C165.246 96.8181 165.343 96.8342 165.448 96.8342C165.525 96.8342 165.593 96.8288 165.65 96.8181C165.708 96.8074 165.753 96.7989 165.785 96.7925L165.959 97.5854C165.903 97.6068 165.824 97.6282 165.721 97.6496C165.618 97.6731 165.49 97.686 165.336 97.6881C165.083 97.6924 164.848 97.6474 164.629 97.5533C164.411 97.4591 164.235 97.3136 164.1 97.1167C163.965 96.9198 163.898 96.6726 163.898 96.3751V91.5117ZM170.758 97.733C170.445 97.733 170.163 97.6753 169.91 97.5597C169.658 97.442 169.458 97.2719 169.31 97.0493C169.164 96.8267 169.092 96.5538 169.092 96.2307C169.092 95.9525 169.145 95.7235 169.252 95.5437C169.359 95.3639 169.504 95.2216 169.686 95.1167C169.867 95.0119 170.071 94.9327 170.295 94.8792C170.52 94.8257 170.749 94.785 170.982 94.7572C171.278 94.723 171.518 94.6951 171.702 94.6737C171.886 94.6502 172.019 94.6127 172.103 94.5614C172.186 94.51 172.228 94.4265 172.228 94.311V94.2885C172.228 94.0082 172.149 93.7909 171.99 93.6368C171.834 93.4828 171.601 93.4057 171.291 93.4057C170.967 93.4057 170.713 93.4774 170.527 93.6208C170.343 93.762 170.215 93.9193 170.145 94.0927L169.243 93.8872C169.35 93.5876 169.506 93.3458 169.711 93.1617C169.919 92.9755 170.157 92.8407 170.427 92.7572C170.697 92.6716 170.98 92.6288 171.278 92.6288C171.475 92.6288 171.683 92.6524 171.904 92.6995C172.126 92.7444 172.334 92.8279 172.527 92.9499C172.721 93.0718 172.881 93.2463 173.005 93.4731C173.129 93.6978 173.191 93.99 173.191 94.3495V97.6239H172.254V96.9498H172.215C172.153 97.0739 172.06 97.1959 171.936 97.3157C171.812 97.4356 171.652 97.5351 171.458 97.6143C171.263 97.6935 171.03 97.733 170.758 97.733ZM170.966 96.9626C171.232 96.9626 171.459 96.9102 171.647 96.8053C171.837 96.7004 171.982 96.5635 172.08 96.3944C172.181 96.2232 172.231 96.0402 172.231 95.8455V95.2098C172.197 95.2441 172.131 95.2762 172.032 95.3061C171.936 95.334 171.826 95.3586 171.702 95.38C171.577 95.3992 171.457 95.4174 171.339 95.4345C171.221 95.4495 171.123 95.4624 171.043 95.4731C170.857 95.4966 170.687 95.5362 170.533 95.5918C170.381 95.6475 170.259 95.7277 170.167 95.8326C170.077 95.9353 170.032 96.0723 170.032 96.2435C170.032 96.4811 170.12 96.6608 170.295 96.7828C170.471 96.9027 170.695 96.9626 170.966 96.9626ZM174.47 97.6239V92.693H175.397V93.4763H175.449C175.539 93.211 175.697 93.0023 175.924 92.8503C176.153 92.6963 176.412 92.6192 176.701 92.6192C176.761 92.6192 176.831 92.6213 176.912 92.6256C176.996 92.6299 177.061 92.6353 177.108 92.6417V93.5598C177.07 93.5491 177.001 93.5373 176.903 93.5245C176.804 93.5095 176.706 93.502 176.608 93.502C176.381 93.502 176.178 93.5502 176.001 93.6465C175.825 93.7406 175.686 93.8723 175.583 94.0413C175.481 94.2083 175.429 94.3987 175.429 94.6127V97.6239H174.47ZM179.888 97.7234C179.402 97.7234 178.983 97.6196 178.632 97.412C178.284 97.2023 178.014 96.908 177.823 96.5292C177.635 96.1483 177.541 95.7021 177.541 95.1906C177.541 94.6855 177.635 94.2404 177.823 93.8551C178.014 93.4699 178.279 93.1692 178.62 92.9531C178.962 92.7369 179.362 92.6288 179.82 92.6288C180.098 92.6288 180.368 92.6749 180.629 92.7669C180.89 92.8589 181.125 93.0034 181.332 93.2003C181.54 93.3971 181.703 93.6529 181.823 93.9675C181.943 94.2799 182.003 94.6598 182.003 95.1071V95.4474H178.083V94.7283H181.062C181.062 94.4758 181.011 94.2521 180.908 94.0574C180.806 93.8605 180.661 93.7053 180.475 93.5919C180.291 93.4785 180.075 93.4218 179.827 93.4218C179.557 93.4218 179.321 93.4881 179.12 93.6208C178.921 93.7513 178.767 93.9225 178.658 94.1344C178.551 94.3442 178.498 94.5721 178.498 94.8182V95.38C178.498 95.7096 178.555 95.9899 178.671 96.221C178.789 96.4522 178.952 96.6287 179.162 96.7507C179.372 96.8706 179.617 96.9305 179.897 96.9305C180.079 96.9305 180.245 96.9048 180.395 96.8535C180.545 96.8 180.674 96.7208 180.783 96.6159C180.892 96.511 180.976 96.3816 181.034 96.2275L181.942 96.3912C181.869 96.6587 181.739 96.893 181.55 97.0942C181.364 97.2933 181.13 97.4484 180.847 97.5597C180.567 97.6688 180.247 97.7234 179.888 97.7234ZM186.067 99.473C185.924 99.473 185.793 99.4612 185.676 99.4377C185.558 99.4163 185.47 99.3927 185.412 99.367L185.643 98.5805C185.819 98.6276 185.975 98.648 186.112 98.6415C186.249 98.6351 186.37 98.5837 186.475 98.4874C186.582 98.3911 186.676 98.2338 186.757 98.0155L186.876 97.6881L185.072 92.693H186.099L187.348 96.5196H187.399L188.648 92.693H189.679L187.647 98.282C187.552 98.5388 187.433 98.756 187.287 98.9337C187.142 99.1134 186.968 99.2483 186.767 99.3381C186.566 99.428 186.333 99.473 186.067 99.473ZM192.49 97.7234C192.028 97.7234 191.624 97.6175 191.28 97.4056C190.935 97.1937 190.668 96.8973 190.477 96.5164C190.287 96.1354 190.191 95.6903 190.191 95.1809C190.191 94.6695 190.287 94.2222 190.477 93.8391C190.668 93.456 190.935 93.1585 191.28 92.9466C191.624 92.7348 192.028 92.6288 192.49 92.6288C192.952 92.6288 193.356 92.7348 193.7 92.9466C194.045 93.1585 194.312 93.456 194.503 93.8391C194.693 94.2222 194.788 94.6695 194.788 95.1809C194.788 95.6903 194.693 96.1354 194.503 96.5164C194.312 96.8973 194.045 97.1937 193.7 97.4056C193.356 97.6175 192.952 97.7234 192.49 97.7234ZM192.493 96.9177C192.793 96.9177 193.041 96.8385 193.238 96.6801C193.435 96.5217 193.58 96.3109 193.675 96.0477C193.771 95.7845 193.819 95.4945 193.819 95.1777C193.819 94.8631 193.771 94.5742 193.675 94.311C193.58 94.0456 193.435 93.8327 193.238 93.6722C193.041 93.5116 192.793 93.4314 192.493 93.4314C192.191 93.4314 191.941 93.5116 191.742 93.6722C191.545 93.8327 191.398 94.0456 191.302 94.311C191.208 94.5742 191.161 94.8631 191.161 95.1777C191.161 95.4945 191.208 95.7845 191.302 96.0477C191.398 96.3109 191.545 96.5217 191.742 96.6801C191.941 96.8385 192.191 96.9177 192.493 96.9177ZM198.983 95.579V92.693H199.946V97.6239H199.003V96.77H198.951C198.838 97.0332 198.656 97.2526 198.406 97.4281C198.157 97.6014 197.848 97.6881 197.478 97.6881C197.161 97.6881 196.881 97.6186 196.637 97.4794C196.395 97.3382 196.204 97.1295 196.065 96.8535C195.928 96.5774 195.86 96.236 195.86 95.8294V92.693H196.82V95.7138C196.82 96.0498 196.913 96.3174 197.099 96.5164C197.285 96.7154 197.527 96.8149 197.825 96.8149C198.004 96.8149 198.183 96.77 198.361 96.6801C198.54 96.5902 198.689 96.4543 198.807 96.2724C198.927 96.0905 198.986 95.8594 198.983 95.579ZM207.323 93.8969L206.454 94.051C206.417 93.9397 206.359 93.8337 206.28 93.7331C206.203 93.6326 206.098 93.5502 205.966 93.486C205.833 93.4218 205.667 93.3897 205.468 93.3897C205.196 93.3897 204.969 93.4506 204.787 93.5726C204.606 93.6925 204.515 93.8476 204.515 94.0381C204.515 94.2029 204.576 94.3356 204.698 94.4362C204.82 94.5368 205.016 94.6192 205.288 94.6834L206.071 94.8631C206.525 94.968 206.863 95.1296 207.086 95.3479C207.308 95.5662 207.42 95.8497 207.42 96.1986C207.42 96.4939 207.334 96.7571 207.163 96.9883C206.994 97.2173 206.757 97.397 206.454 97.5276C206.152 97.6581 205.802 97.7234 205.404 97.7234C204.852 97.7234 204.401 97.6057 204.052 97.3703C203.703 97.1327 203.489 96.7957 203.41 96.3591L204.338 96.2178C204.396 96.4597 204.515 96.6427 204.694 96.7668C204.874 96.8888 205.108 96.9498 205.397 96.9498C205.712 96.9498 205.963 96.8845 206.152 96.7539C206.34 96.6213 206.434 96.4597 206.434 96.2692C206.434 96.1151 206.376 95.9856 206.261 95.8808C206.147 95.7759 205.973 95.6967 205.738 95.6432L204.903 95.4602C204.443 95.3554 204.103 95.1884 203.882 94.9594C203.664 94.7304 203.555 94.4405 203.555 94.0895C203.555 93.7984 203.636 93.5437 203.799 93.3255C203.961 93.1072 204.186 92.937 204.473 92.815C204.76 92.6909 205.088 92.6288 205.458 92.6288C205.991 92.6288 206.411 92.7444 206.717 92.9755C207.023 93.2045 207.225 93.5116 207.323 93.8969ZM210.777 92.693V93.4635H208.083V92.693H210.777ZM208.806 91.5117H209.766V96.1761C209.766 96.3623 209.793 96.5025 209.849 96.5966C209.905 96.6887 209.976 96.7518 210.064 96.786C210.154 96.8181 210.251 96.8342 210.356 96.8342C210.433 96.8342 210.501 96.8288 210.559 96.8181C210.616 96.8074 210.661 96.7989 210.693 96.7925L210.867 97.5854C210.811 97.6068 210.732 97.6282 210.629 97.6496C210.526 97.6731 210.398 97.686 210.244 97.6881C209.991 97.6924 209.756 97.6474 209.538 97.5533C209.319 97.4591 209.143 97.3136 209.008 97.1167C208.873 96.9198 208.806 96.6726 208.806 96.3751V91.5117ZM214.962 95.579V92.693H215.925V97.6239H214.981V96.77H214.93C214.817 97.0332 214.635 97.2526 214.384 97.4281C214.136 97.6014 213.827 97.6881 213.457 97.6881C213.14 97.6881 212.859 97.6186 212.615 97.4794C212.374 97.3382 212.183 97.1295 212.044 96.8535C211.907 96.5774 211.839 96.236 211.839 95.8294V92.693H212.798V95.7138C212.798 96.0498 212.892 96.3174 213.078 96.5164C213.264 96.7154 213.506 96.8149 213.803 96.8149C213.983 96.8149 214.162 96.77 214.339 96.6801C214.519 96.5902 214.668 96.4543 214.786 96.2724C214.905 96.0905 214.964 95.8594 214.962 95.579ZM219.061 97.7202C218.663 97.7202 218.307 97.6186 217.995 97.4152C217.685 97.2098 217.441 96.9177 217.263 96.5389C217.088 96.1579 217 95.701 217 95.1681C217 94.6352 217.089 94.1794 217.266 93.8006C217.446 93.4218 217.692 93.1318 218.005 92.9306C218.317 92.7294 218.671 92.6288 219.067 92.6288C219.373 92.6288 219.619 92.6802 219.806 92.7829C219.994 92.8835 220.139 93.0012 220.242 93.1361C220.347 93.2709 220.428 93.3897 220.486 93.4924H220.544V91.0494H221.504V97.6239H220.566V96.8567H220.486C220.428 96.9615 220.345 97.0814 220.236 97.2162C220.129 97.351 219.981 97.4687 219.793 97.5693C219.604 97.6699 219.36 97.7202 219.061 97.7202ZM219.273 96.9016C219.549 96.9016 219.782 96.8288 219.972 96.6833C220.165 96.5356 220.311 96.3313 220.409 96.0702C220.51 95.8091 220.56 95.5052 220.56 95.1585C220.56 94.8161 220.511 94.5164 220.412 94.2596C220.314 94.0028 220.169 93.8027 219.979 93.6593C219.788 93.5159 219.553 93.4442 219.273 93.4442C218.984 93.4442 218.743 93.5191 218.55 93.6689C218.358 93.8188 218.212 94.0231 218.114 94.2821C218.017 94.541 217.969 94.8332 217.969 95.1585C217.969 95.4881 218.018 95.7845 218.117 96.0477C218.215 96.3109 218.361 96.5196 218.554 96.6737C218.748 96.8256 218.988 96.9016 219.273 96.9016ZM222.874 97.6239V92.693H223.833V97.6239H222.874ZM223.358 91.9322C223.191 91.9322 223.048 91.8766 222.928 91.7653C222.811 91.6519 222.752 91.517 222.752 91.3608C222.752 91.2024 222.811 91.0676 222.928 90.9563C223.048 90.8429 223.191 90.7862 223.358 90.7862C223.525 90.7862 223.668 90.8429 223.785 90.9563C223.905 91.0676 223.965 91.2024 223.965 91.3608C223.965 91.517 223.905 91.6519 223.785 91.7653C223.668 91.8766 223.525 91.9322 223.358 91.9322ZM226.085 94.6962V97.6239H225.125V92.693H226.046V93.4956H226.107C226.221 93.2345 226.398 93.0248 226.64 92.8664C226.884 92.708 227.191 92.6288 227.561 92.6288C227.897 92.6288 228.192 92.6995 228.444 92.8407C228.697 92.9798 228.892 93.1874 229.032 93.4635C229.171 93.7396 229.24 94.0809 229.24 94.4875V97.6239H228.28V94.6031C228.28 94.2457 228.187 93.9664 228.001 93.7652C227.815 93.5619 227.559 93.4603 227.234 93.4603C227.011 93.4603 226.813 93.5084 226.64 93.6047C226.469 93.701 226.333 93.8423 226.232 94.0285C226.134 94.2125 226.085 94.4351 226.085 94.6962ZM232.595 99.5757C232.203 99.5757 231.866 99.5243 231.584 99.4216C231.303 99.3189 231.074 99.183 230.897 99.0139C230.719 98.8448 230.586 98.6597 230.499 98.4586L231.324 98.1183C231.381 98.2124 231.459 98.312 231.555 98.4168C231.653 98.5238 231.786 98.6148 231.953 98.6897C232.122 98.7646 232.339 98.802 232.605 98.802C232.968 98.802 233.269 98.7132 233.507 98.5356C233.744 98.3601 233.863 98.0797 233.863 97.6945V96.725H233.802C233.744 96.8299 233.661 96.9466 233.552 97.075C233.445 97.2034 233.297 97.3147 233.109 97.4088C232.92 97.503 232.675 97.5501 232.373 97.5501C231.984 97.5501 231.633 97.4591 231.32 97.2772C231.01 97.0931 230.764 96.8224 230.582 96.465C230.402 96.1055 230.312 95.6635 230.312 95.1392C230.312 94.6149 230.401 94.1655 230.579 93.7909C230.759 93.4164 231.005 93.1296 231.317 92.9306C231.63 92.7294 231.984 92.6288 232.38 92.6288C232.686 92.6288 232.933 92.6802 233.121 92.7829C233.31 92.8835 233.456 93.0012 233.561 93.1361C233.668 93.2709 233.751 93.3897 233.808 93.4924H233.879V92.693H234.82V97.733C234.82 98.1568 234.721 98.5046 234.524 98.7764C234.327 99.0482 234.061 99.2493 233.725 99.3799C233.391 99.5104 233.014 99.5757 232.595 99.5757ZM232.585 96.7539C232.861 96.7539 233.095 96.6897 233.285 96.5613C233.478 96.4308 233.623 96.2446 233.722 96.0028C233.822 95.7588 233.873 95.4667 233.873 95.1264C233.873 94.7947 233.823 94.5025 233.725 94.25C233.626 93.9975 233.482 93.8006 233.292 93.6593C233.101 93.5159 232.866 93.4442 232.585 93.4442C232.296 93.4442 232.056 93.5191 231.863 93.6689C231.67 93.8166 231.525 94.0178 231.426 94.2725C231.33 94.5271 231.282 94.8118 231.282 95.1264C231.282 95.4495 231.331 95.7331 231.43 95.9771C231.528 96.221 231.674 96.4115 231.866 96.5485C232.061 96.6855 232.301 96.7539 232.585 96.7539ZM239.459 94.6962V97.6239H238.499V92.693H239.421V93.4956H239.482C239.595 93.2345 239.773 93.0248 240.014 92.8664C240.258 92.708 240.566 92.6288 240.936 92.6288C241.272 92.6288 241.566 92.6995 241.819 92.8407C242.071 92.9798 242.267 93.1874 242.406 93.4635C242.545 93.7396 242.615 94.0809 242.615 94.4875V97.6239H241.655V94.6031C241.655 94.2457 241.562 93.9664 241.376 93.7652C241.189 93.5619 240.934 93.4603 240.608 93.4603C240.386 93.4603 240.188 93.5084 240.014 93.6047C239.843 93.701 239.707 93.8423 239.607 94.0285C239.508 94.2125 239.459 94.4351 239.459 94.6962ZM245.979 97.7234C245.517 97.7234 245.113 97.6175 244.769 97.4056C244.424 97.1937 244.157 96.8973 243.966 96.5164C243.776 96.1354 243.681 95.6903 243.681 95.1809C243.681 94.6695 243.776 94.2222 243.966 93.8391C244.157 93.456 244.424 93.1585 244.769 92.9466C245.113 92.7348 245.517 92.6288 245.979 92.6288C246.441 92.6288 246.845 92.7348 247.189 92.9466C247.534 93.1585 247.801 93.456 247.992 93.8391C248.182 94.2222 248.278 94.6695 248.278 95.1809C248.278 95.6903 248.182 96.1354 247.992 96.5164C247.801 96.8973 247.534 97.1937 247.189 97.4056C246.845 97.6175 246.441 97.7234 245.979 97.7234ZM245.982 96.9177C246.282 96.9177 246.53 96.8385 246.727 96.6801C246.924 96.5217 247.069 96.3109 247.164 96.0477C247.26 95.7845 247.308 95.4945 247.308 95.1777C247.308 94.8631 247.26 94.5742 247.164 94.311C247.069 94.0456 246.924 93.8327 246.727 93.6722C246.53 93.5116 246.282 93.4314 245.982 93.4314C245.68 93.4314 245.43 93.5116 245.231 93.6722C245.034 93.8327 244.888 94.0456 244.791 94.311C244.697 94.5742 244.65 94.8631 244.65 95.1777C244.65 95.4945 244.697 95.7845 244.791 96.0477C244.888 96.3109 245.034 96.5217 245.231 96.6801C245.43 96.8385 245.68 96.9177 245.982 96.9177ZM250.268 97.6239L248.817 92.693H249.809L250.775 96.3141H250.823L251.793 92.693H252.785L253.748 96.2981H253.796L254.756 92.693H255.748L254.3 97.6239H253.321L252.319 94.0638H252.245L251.244 97.6239H250.268ZM257.708 95.7331V95.6721C257.713 95.274 257.752 94.9573 257.827 94.7219C257.904 94.4865 258.013 94.296 258.154 94.1505C258.296 94.0049 258.466 93.8723 258.665 93.7524C258.793 93.6711 258.909 93.5801 259.012 93.4795C259.114 93.379 259.196 93.2634 259.256 93.1328C259.315 93.0023 259.345 92.8578 259.345 92.6995C259.345 92.509 259.301 92.3442 259.211 92.2051C259.121 92.066 259.001 91.959 258.851 91.8841C258.703 91.807 258.539 91.7685 258.357 91.7685C258.192 91.7685 258.035 91.8027 257.885 91.8712C257.735 91.9397 257.611 92.0467 257.512 92.1923C257.414 92.3356 257.357 92.5208 257.342 92.7476H256.366C256.381 92.3624 256.479 92.0371 256.659 91.7717C256.838 91.5042 257.076 91.302 257.371 91.165C257.669 91.028 257.997 90.9595 258.357 90.9595C258.751 90.9595 259.095 91.0334 259.39 91.181C259.686 91.3266 259.915 91.531 260.077 91.7942C260.242 92.0553 260.325 92.3603 260.325 92.7091C260.325 92.9488 260.287 93.1649 260.212 93.3576C260.137 93.548 260.03 93.7182 259.891 93.868C259.754 94.0178 259.589 94.1505 259.397 94.266C259.215 94.3795 259.067 94.4972 258.954 94.6192C258.843 94.7411 258.761 94.8856 258.71 95.0525C258.658 95.2195 258.631 95.426 258.626 95.6721V95.7331H257.708ZM258.193 97.6849C258.018 97.6849 257.867 97.6228 257.74 97.4987C257.614 97.3724 257.551 97.2205 257.551 97.0429C257.551 96.8674 257.614 96.7176 257.74 96.5934C257.867 96.4672 258.018 96.404 258.193 96.404C258.366 96.404 258.516 96.4672 258.642 96.5934C258.771 96.7176 258.835 96.8674 258.835 97.0429C258.835 97.1606 258.805 97.2686 258.745 97.3671C258.687 97.4634 258.61 97.5404 258.514 97.5982C258.418 97.656 258.311 97.6849 258.193 97.6849Z" fill="#333333"/>
<rect x="144.035" y="104.304" width="172.121" height="17.1185" rx="3.74468" stroke="#F2F2F2" stroke-width="1.06991"/>
<path d="M157.711 146.517V139.942H160.176C160.681 139.942 161.105 140.037 161.448 140.225C161.792 140.413 162.052 140.672 162.228 141.002C162.405 141.329 162.494 141.702 162.494 142.119C162.494 142.54 162.405 142.915 162.228 143.242C162.05 143.57 161.788 143.828 161.441 144.016C161.095 144.202 160.668 144.295 160.16 144.295H158.526V143.316H160C160.295 143.316 160.537 143.265 160.725 143.162C160.914 143.059 161.053 142.918 161.143 142.738C161.235 142.559 161.281 142.352 161.281 142.119C161.281 141.886 161.235 141.68 161.143 141.503C161.053 141.325 160.913 141.187 160.722 141.088C160.534 140.988 160.291 140.938 159.993 140.938H158.902V146.517H157.711ZM163.477 146.517V141.586H164.604V142.408H164.655C164.745 142.123 164.899 141.904 165.118 141.75C165.338 141.593 165.59 141.515 165.872 141.515C165.936 141.515 166.008 141.519 166.087 141.525C166.168 141.529 166.236 141.537 166.289 141.547V142.616C166.24 142.599 166.162 142.584 166.055 142.572C165.95 142.557 165.849 142.549 165.75 142.549C165.538 142.549 165.348 142.595 165.179 142.687C165.012 142.777 164.88 142.902 164.784 143.063C164.688 143.223 164.639 143.408 164.639 143.618V146.517H163.477ZM169.041 146.613C168.547 146.613 168.12 146.51 167.76 146.305C167.403 146.097 167.128 145.804 166.935 145.425C166.743 145.044 166.647 144.596 166.647 144.08C166.647 143.573 166.743 143.128 166.935 142.745C167.13 142.36 167.402 142.06 167.751 141.846C168.1 141.63 168.51 141.522 168.98 141.522C169.284 141.522 169.571 141.571 169.841 141.669C170.112 141.766 170.352 141.916 170.56 142.119C170.769 142.322 170.934 142.581 171.054 142.896C171.174 143.208 171.234 143.581 171.234 144.013V144.369H167.192V143.586H170.12C170.118 143.363 170.07 143.165 169.976 142.992C169.881 142.817 169.75 142.679 169.581 142.578C169.414 142.477 169.219 142.427 168.996 142.427C168.759 142.427 168.55 142.485 168.37 142.6C168.191 142.714 168.05 142.864 167.95 143.05C167.851 143.234 167.801 143.436 167.799 143.657V144.34C167.799 144.627 167.851 144.873 167.956 145.079C168.061 145.282 168.208 145.438 168.396 145.547C168.584 145.654 168.805 145.708 169.057 145.708C169.226 145.708 169.379 145.684 169.516 145.637C169.653 145.588 169.772 145.516 169.873 145.422C169.973 145.328 170.049 145.211 170.101 145.072L171.186 145.194C171.117 145.481 170.987 145.731 170.794 145.945C170.604 146.157 170.36 146.322 170.062 146.44C169.765 146.555 169.424 146.613 169.041 146.613ZM176.48 141.586L174.724 146.517H173.44L171.684 141.586H172.923L174.056 145.249H174.108L175.244 141.586H176.48Z" fill="#A58CF0"/>
<rect x="143.782" y="131.279" width="46.5547" height="24.4749" rx="4.23746" stroke="#A58CF0" stroke-width="0.564994"/>
<rect x="387.203" y="130.997" width="48.1197" height="25.0399" rx="4.51995" fill="#A58CF0"/>
<path d="M406.817 139.942V146.517H405.757L402.66 142.039H402.605V146.517H401.414V139.942H402.48L405.574 144.424H405.632V139.942H406.817ZM410.246 146.613C409.752 146.613 409.325 146.51 408.965 146.305C408.608 146.097 408.333 145.804 408.14 145.425C407.948 145.044 407.851 144.596 407.851 144.08C407.851 143.573 407.948 143.128 408.14 142.745C408.335 142.36 408.607 142.06 408.956 141.846C409.304 141.63 409.714 141.522 410.185 141.522C410.489 141.522 410.776 141.571 411.045 141.669C411.317 141.766 411.557 141.916 411.765 142.119C411.974 142.322 412.139 142.581 412.259 142.896C412.379 143.208 412.439 143.581 412.439 144.013V144.369H408.397V143.586H411.325C411.323 143.363 411.274 143.165 411.18 142.992C411.086 142.817 410.955 142.679 410.785 142.578C410.619 142.477 410.424 142.427 410.201 142.427C409.964 142.427 409.755 142.485 409.575 142.6C409.395 142.714 409.255 142.864 409.155 143.05C409.056 143.234 409.006 143.436 409.004 143.657V144.34C409.004 144.627 409.056 144.873 409.161 145.079C409.266 145.282 409.413 145.438 409.601 145.547C409.789 145.654 410.01 145.708 410.262 145.708C410.431 145.708 410.584 145.684 410.721 145.637C410.858 145.588 410.977 145.516 411.078 145.422C411.178 145.328 411.254 145.211 411.305 145.072L412.391 145.194C412.322 145.481 412.192 145.731 411.999 145.945C411.808 146.157 411.564 146.322 411.267 146.44C410.969 146.555 410.629 146.613 410.246 146.613ZM414.266 141.586L415.261 143.406L416.272 141.586H417.502L416.016 144.051L417.528 146.517H416.305L415.261 144.742L414.228 146.517H412.995L414.497 144.051L413.033 141.586H414.266ZM420.863 141.586V142.485H418.028V141.586H420.863ZM418.728 140.405H419.89V145.034C419.89 145.19 419.914 145.31 419.961 145.393C420.01 145.475 420.074 145.53 420.154 145.56C420.233 145.59 420.321 145.605 420.417 145.605C420.49 145.605 420.556 145.6 420.616 145.589C420.678 145.578 420.725 145.569 420.757 145.56L420.953 146.469C420.891 146.49 420.802 146.514 420.686 146.539C420.573 146.565 420.434 146.58 420.269 146.584C419.978 146.593 419.716 146.549 419.483 146.453C419.249 146.354 419.064 146.202 418.927 145.997C418.792 145.791 418.726 145.535 418.728 145.226V140.405Z" fill="white"/>
</g>
<g filter="url(#filter2_dd_1127_3619)">
<rect x="31.0234" y="165.836" width="337.021" height="112.529" rx="4.51995" fill="white" shape-rendering="crispEdges"/>
<path d="M55.6346 193.916L53.8112 187.341H54.8545L56.1354 192.432H56.1964L57.5286 187.341H58.5623L59.8945 192.436H59.9555L61.2332 187.341H62.2797L60.4531 193.916H59.4547L58.0711 188.991H58.0198L56.6362 193.916H55.6346ZM64.067 190.988V193.916H63.1071V187.341H64.0541V189.787H64.1151C64.2307 189.522 64.4072 189.311 64.6448 189.155C64.8823 188.999 65.1927 188.92 65.5757 188.92C65.9139 188.92 66.2092 188.99 66.4618 189.129C66.7164 189.268 66.9133 189.476 67.0524 189.752C67.1937 190.026 67.2643 190.368 67.2643 190.779V193.916H66.3045V190.895C66.3045 190.533 66.2114 190.253 66.0252 190.054C65.839 189.852 65.58 189.752 65.2483 189.752C65.0215 189.752 64.8181 189.8 64.6384 189.896C64.4607 189.993 64.3206 190.134 64.2178 190.32C64.1173 190.504 64.067 190.727 64.067 190.988ZM70.6703 194.015C70.1845 194.015 69.7661 193.911 69.4151 193.704C69.0663 193.494 68.7966 193.2 68.6062 192.821C68.4178 192.44 68.3237 191.994 68.3237 191.482C68.3237 190.977 68.4178 190.532 68.6062 190.147C68.7966 189.762 69.062 189.461 69.4023 189.245C69.7447 189.029 70.1449 188.92 70.6029 188.92C70.8811 188.92 71.1508 188.966 71.4119 189.059C71.673 189.151 71.9073 189.295 72.1149 189.492C72.3225 189.689 72.4862 189.945 72.6061 190.259C72.7259 190.572 72.7858 190.951 72.7858 191.399V191.739H68.8662V191.02H71.8453C71.8453 190.767 71.7939 190.544 71.6912 190.349C71.5884 190.152 71.444 189.997 71.2578 189.884C71.0737 189.77 70.8576 189.713 70.6093 189.713C70.3397 189.713 70.1043 189.78 69.9031 189.912C69.7041 190.043 69.55 190.214 69.4408 190.426C69.3338 190.636 69.2803 190.864 69.2803 191.11V191.672C69.2803 192.001 69.3381 192.282 69.4537 192.513C69.5714 192.744 69.7351 192.92 69.9448 193.042C70.1546 193.162 70.3996 193.222 70.68 193.222C70.8619 193.222 71.0277 193.196 71.1775 193.145C71.3273 193.092 71.4568 193.012 71.566 192.908C71.6751 192.803 71.7586 192.673 71.8164 192.519L72.7249 192.683C72.6521 192.95 72.5215 193.185 72.3332 193.386C72.147 193.585 71.9127 193.74 71.6302 193.851C71.3498 193.96 71.0299 194.015 70.6703 194.015ZM73.8508 193.916V188.985H74.7786V189.768H74.8299C74.9198 189.503 75.0782 189.294 75.305 189.142C75.534 188.988 75.793 188.911 76.0819 188.911C76.1418 188.911 76.2125 188.913 76.2938 188.917C76.3772 188.922 76.4425 188.927 76.4896 188.933V189.851C76.4511 189.841 76.3826 189.829 76.2842 189.816C76.1857 189.801 76.0873 189.794 75.9888 189.794C75.762 189.794 75.5597 189.842 75.3821 189.938C75.2066 190.032 75.0675 190.164 74.9648 190.333C74.862 190.5 74.8107 190.69 74.8107 190.904V193.916H73.8508ZM79.2688 194.015C78.783 194.015 78.3646 193.911 78.0136 193.704C77.6648 193.494 77.3951 193.2 77.2047 192.821C77.0163 192.44 76.9222 191.994 76.9222 191.482C76.9222 190.977 77.0163 190.532 77.2047 190.147C77.3951 189.762 77.6605 189.461 78.0008 189.245C78.3432 189.029 78.7434 188.92 79.2014 188.92C79.4796 188.92 79.7493 188.966 80.0104 189.059C80.2715 189.151 80.5058 189.295 80.7134 189.492C80.921 189.689 81.0847 189.945 81.2046 190.259C81.3244 190.572 81.3843 190.951 81.3843 191.399V191.739H77.4647V191.02H80.4438C80.4438 190.767 80.3924 190.544 80.2897 190.349C80.1869 190.152 80.0425 189.997 79.8563 189.884C79.6722 189.77 79.4561 189.713 79.2078 189.713C78.9382 189.713 78.7028 189.78 78.5016 189.912C78.3026 190.043 78.1485 190.214 78.0393 190.426C77.9323 190.636 77.8788 190.864 77.8788 191.11V191.672C77.8788 192.001 77.9366 192.282 78.0522 192.513C78.1699 192.744 78.3336 192.92 78.5433 193.042C78.7531 193.162 78.9981 193.222 79.2785 193.222C79.4604 193.222 79.6262 193.196 79.776 193.145C79.9258 193.092 80.0553 193.012 80.1645 192.908C80.2736 192.803 80.3571 192.673 80.4149 192.519L81.3234 192.683C81.2506 192.95 81.12 193.185 80.9317 193.386C80.7455 193.585 80.5112 193.74 80.2287 193.851C79.9483 193.96 79.6284 194.015 79.2688 194.015ZM86.2767 194.025C85.9642 194.025 85.6817 193.967 85.4292 193.851C85.1767 193.734 84.9766 193.563 84.8289 193.341C84.6834 193.118 84.6106 192.845 84.6106 192.522C84.6106 192.244 84.6641 192.015 84.7711 191.835C84.8781 191.656 85.0226 191.513 85.2045 191.408C85.3864 191.303 85.5897 191.224 85.8144 191.171C86.0391 191.117 86.2681 191.077 86.5014 191.049C86.7967 191.015 87.0364 190.987 87.2205 190.965C87.4045 190.942 87.5383 190.904 87.6218 190.853C87.7052 190.802 87.747 190.718 87.747 190.603V190.58C87.747 190.3 87.6678 190.083 87.5094 189.928C87.3532 189.774 87.1199 189.697 86.8096 189.697C86.4864 189.697 86.2317 189.769 86.0455 189.912C85.8615 190.054 85.7342 190.211 85.6635 190.384L84.7615 190.179C84.8685 189.879 85.0247 189.637 85.2302 189.453C85.4378 189.267 85.6764 189.132 85.946 189.049C86.2157 188.963 86.4993 188.92 86.7967 188.92C86.9936 188.92 87.2023 188.944 87.4227 188.991C87.6453 189.036 87.8529 189.119 88.0455 189.241C88.2403 189.363 88.3997 189.538 88.5238 189.765C88.6479 189.989 88.71 190.282 88.71 190.641V193.916H87.7726V193.241H87.7341C87.672 193.366 87.579 193.488 87.4548 193.607C87.3307 193.727 87.1713 193.827 86.9765 193.906C86.7818 193.985 86.5485 194.025 86.2767 194.025ZM86.4853 193.254C86.7507 193.254 86.9776 193.202 87.1659 193.097C87.3564 192.992 87.5008 192.855 87.5993 192.686C87.6999 192.515 87.7502 192.332 87.7502 192.137V191.501C87.7159 191.536 87.6496 191.568 87.5511 191.598C87.4548 191.626 87.3446 191.65 87.2205 191.672C87.0964 191.691 86.9754 191.709 86.8577 191.726C86.74 191.741 86.6416 191.754 86.5624 191.765C86.3762 191.788 86.2061 191.828 86.052 191.883C85.9 191.939 85.778 192.019 85.686 192.124C85.5961 192.227 85.5512 192.364 85.5512 192.535C85.5512 192.773 85.6389 192.952 85.8144 193.074C85.9899 193.194 86.2135 193.254 86.4853 193.254ZM89.9885 193.916V188.985H90.9162V189.768H90.9676C91.0575 189.503 91.2158 189.294 91.4427 189.142C91.6717 188.988 91.9306 188.911 92.2196 188.911C92.2795 188.911 92.3501 188.913 92.4314 188.917C92.5149 188.922 92.5802 188.927 92.6272 188.933V189.851C92.5887 189.841 92.5202 189.829 92.4218 189.816C92.3233 189.801 92.2249 189.794 92.1265 189.794C91.8996 189.794 91.6974 189.842 91.5197 189.938C91.3442 190.032 91.2051 190.164 91.1024 190.333C90.9997 190.5 90.9483 190.69 90.9483 190.904V193.916H89.9885ZM95.4065 194.015C94.9207 194.015 94.5023 193.911 94.1513 193.704C93.8024 193.494 93.5328 193.2 93.3423 192.821C93.154 192.44 93.0598 191.994 93.0598 191.482C93.0598 190.977 93.154 190.532 93.3423 190.147C93.5328 189.762 93.7982 189.461 94.1384 189.245C94.4809 189.029 94.8811 188.92 95.3391 188.92C95.6173 188.92 95.8869 188.966 96.148 189.059C96.4091 189.151 96.6435 189.295 96.8511 189.492C97.0587 189.689 97.2224 189.945 97.3422 190.259C97.4621 190.572 97.522 190.951 97.522 191.399V191.739H93.6023V191.02H96.5814C96.5814 190.767 96.53 190.544 96.4273 190.349C96.3246 190.152 96.1801 189.997 95.9939 189.884C95.8099 189.77 95.5937 189.713 95.3455 189.713C95.0758 189.713 94.8404 189.78 94.6392 189.912C94.4402 190.043 94.2861 190.214 94.177 190.426C94.07 190.636 94.0165 190.864 94.0165 191.11V191.672C94.0165 192.001 94.0742 192.282 94.1898 192.513C94.3075 192.744 94.4712 192.92 94.681 193.042C94.8907 193.162 95.1357 193.222 95.4161 193.222C95.598 193.222 95.7639 193.196 95.9137 193.145C96.0635 193.092 96.193 193.012 96.3021 192.908C96.4113 192.803 96.4947 192.673 96.5525 192.519L97.461 192.683C97.3882 192.95 97.2577 193.185 97.0694 193.386C96.8832 193.585 96.6488 193.74 96.3663 193.851C96.086 193.96 95.766 194.015 95.4065 194.015ZM101.586 195.765C101.443 195.765 101.312 195.753 101.194 195.729C101.077 195.708 100.989 195.684 100.931 195.659L101.162 194.872C101.338 194.919 101.494 194.94 101.631 194.933C101.768 194.927 101.889 194.875 101.994 194.779C102.101 194.683 102.195 194.525 102.276 194.307L102.395 193.98L100.591 188.985H101.618L102.867 192.811H102.918L104.167 188.985H105.198L103.166 194.574C103.071 194.83 102.951 195.048 102.806 195.225C102.66 195.405 102.487 195.54 102.286 195.63C102.085 195.72 101.851 195.765 101.586 195.765ZM108.009 194.015C107.547 194.015 107.143 193.909 106.799 193.697C106.454 193.485 106.187 193.189 105.996 192.808C105.806 192.427 105.71 191.982 105.71 191.473C105.71 190.961 105.806 190.514 105.996 190.131C106.187 189.748 106.454 189.45 106.799 189.238C107.143 189.026 107.547 188.92 108.009 188.92C108.471 188.92 108.875 189.026 109.219 189.238C109.564 189.45 109.831 189.748 110.022 190.131C110.212 190.514 110.307 190.961 110.307 191.473C110.307 191.982 110.212 192.427 110.022 192.808C109.831 193.189 109.564 193.485 109.219 193.697C108.875 193.909 108.471 194.015 108.009 194.015ZM108.012 193.209C108.312 193.209 108.56 193.13 108.757 192.972C108.954 192.813 109.099 192.603 109.193 192.339C109.29 192.076 109.338 191.786 109.338 191.469C109.338 191.155 109.29 190.866 109.193 190.603C109.099 190.337 108.954 190.124 108.757 189.964C108.56 189.803 108.312 189.723 108.012 189.723C107.71 189.723 107.46 189.803 107.261 189.964C107.064 190.124 106.917 190.337 106.821 190.603C106.727 190.866 106.68 191.155 106.68 191.469C106.68 191.786 106.727 192.076 106.821 192.339C106.917 192.603 107.064 192.813 107.261 192.972C107.46 193.13 107.71 193.209 108.012 193.209ZM114.502 191.871V188.985H115.465V193.916H114.522V193.062H114.47C114.357 193.325 114.175 193.544 113.924 193.72C113.676 193.893 113.367 193.98 112.997 193.98C112.68 193.98 112.4 193.91 112.156 193.771C111.914 193.63 111.723 193.421 111.584 193.145C111.447 192.869 111.379 192.528 111.379 192.121V188.985H112.339V192.005C112.339 192.341 112.432 192.609 112.618 192.808C112.804 193.007 113.046 193.107 113.343 193.107C113.523 193.107 113.702 193.062 113.88 192.972C114.059 192.882 114.208 192.746 114.326 192.564C114.446 192.382 114.504 192.151 114.502 191.871ZM120.216 193.916L118.765 188.985H119.757L120.724 192.606H120.772L121.741 188.985H122.733L123.696 192.59H123.744L124.704 188.985H125.696L124.248 193.916H123.269L122.268 190.355H122.194L121.192 193.916H120.216ZM128.534 194.015C128.072 194.015 127.668 193.909 127.324 193.697C126.979 193.485 126.712 193.189 126.521 192.808C126.331 192.427 126.236 191.982 126.236 191.473C126.236 190.961 126.331 190.514 126.521 190.131C126.712 189.748 126.979 189.45 127.324 189.238C127.668 189.026 128.072 188.92 128.534 188.92C128.996 188.92 129.4 189.026 129.744 189.238C130.089 189.45 130.356 189.748 130.547 190.131C130.737 190.514 130.833 190.961 130.833 191.473C130.833 191.982 130.737 192.427 130.547 192.808C130.356 193.189 130.089 193.485 129.744 193.697C129.4 193.909 128.996 194.015 128.534 194.015ZM128.537 193.209C128.837 193.209 129.085 193.13 129.282 192.972C129.479 192.813 129.624 192.603 129.719 192.339C129.815 192.076 129.863 191.786 129.863 191.469C129.863 191.155 129.815 190.866 129.719 190.603C129.624 190.337 129.479 190.124 129.282 189.964C129.085 189.803 128.837 189.723 128.537 189.723C128.236 189.723 127.985 189.803 127.786 189.964C127.589 190.124 127.443 190.337 127.346 190.603C127.252 190.866 127.205 191.155 127.205 191.469C127.205 191.786 127.252 192.076 127.346 192.339C127.443 192.603 127.589 192.813 127.786 192.972C127.985 193.13 128.236 193.209 128.537 193.209ZM131.904 193.916V188.985H132.832V189.768H132.883C132.973 189.503 133.131 189.294 133.358 189.142C133.587 188.988 133.846 188.911 134.135 188.911C134.195 188.911 134.266 188.913 134.347 188.917C134.43 188.922 134.496 188.927 134.543 188.933V189.851C134.504 189.841 134.436 189.829 134.337 189.816C134.239 189.801 134.14 189.794 134.042 189.794C133.815 189.794 133.613 189.842 133.435 189.938C133.26 190.032 133.121 190.164 133.018 190.333C132.915 190.5 132.864 190.69 132.864 190.904V193.916H131.904ZM136.256 192.243L136.25 191.071H136.417L138.381 188.985H139.531L137.29 191.36H137.139L136.256 192.243ZM135.373 193.916V187.341H136.333V193.916H135.373ZM138.487 193.916L136.722 191.572L137.383 190.901L139.665 193.916H138.487ZM140.405 193.916V188.985H141.365V193.916H140.405ZM140.89 188.224C140.723 188.224 140.58 188.168 140.46 188.057C140.342 187.943 140.283 187.809 140.283 187.652C140.283 187.494 140.342 187.359 140.46 187.248C140.58 187.135 140.723 187.078 140.89 187.078C141.057 187.078 141.199 187.135 141.317 187.248C141.437 187.359 141.497 187.494 141.497 187.652C141.497 187.809 141.437 187.943 141.317 188.057C141.199 188.168 141.057 188.224 140.89 188.224ZM143.616 190.988V193.916H142.657V188.985H143.578V189.787H143.639C143.752 189.526 143.93 189.316 144.172 189.158C144.416 189 144.723 188.92 145.093 188.92C145.429 188.92 145.723 188.991 145.976 189.132C146.228 189.271 146.424 189.479 146.563 189.755C146.702 190.031 146.772 190.373 146.772 190.779V193.916H145.812V190.895C145.812 190.537 145.719 190.258 145.533 190.057C145.347 189.854 145.091 189.752 144.766 189.752C144.543 189.752 144.345 189.8 144.172 189.896C144.001 189.993 143.865 190.134 143.764 190.32C143.666 190.504 143.616 190.727 143.616 190.988ZM150.127 195.867C149.735 195.867 149.398 195.816 149.115 195.713C148.835 195.611 148.606 195.475 148.428 195.306C148.251 195.136 148.118 194.951 148.03 194.75L148.855 194.41C148.913 194.504 148.99 194.604 149.087 194.708C149.185 194.815 149.318 194.906 149.485 194.981C149.654 195.056 149.871 195.094 150.136 195.094C150.5 195.094 150.801 195.005 151.038 194.827C151.276 194.652 151.395 194.371 151.395 193.986V193.017H151.334C151.276 193.122 151.192 193.238 151.083 193.367C150.976 193.495 150.829 193.606 150.64 193.7C150.452 193.795 150.207 193.842 149.905 193.842C149.516 193.842 149.165 193.751 148.852 193.569C148.542 193.385 148.296 193.114 148.114 192.757C147.934 192.397 147.844 191.955 147.844 191.431C147.844 190.907 147.933 190.457 148.111 190.083C148.29 189.708 148.537 189.421 148.849 189.222C149.161 189.021 149.516 188.92 149.912 188.92C150.218 188.92 150.465 188.972 150.653 189.075C150.841 189.175 150.988 189.293 151.093 189.428C151.2 189.563 151.282 189.681 151.34 189.784H151.411V188.985H152.351V194.025C152.351 194.448 152.253 194.796 152.056 195.068C151.859 195.34 151.593 195.541 151.257 195.672C150.923 195.802 150.546 195.867 150.127 195.867ZM150.117 193.046C150.393 193.046 150.626 192.981 150.817 192.853C151.009 192.722 151.155 192.536 151.253 192.294C151.354 192.05 151.404 191.758 151.404 191.418C151.404 191.086 151.355 190.794 151.257 190.542C151.158 190.289 151.014 190.092 150.823 189.951C150.633 189.808 150.397 189.736 150.117 189.736C149.828 189.736 149.587 189.811 149.395 189.961C149.202 190.108 149.057 190.309 148.958 190.564C148.862 190.819 148.814 191.103 148.814 191.418C148.814 191.741 148.863 192.025 148.961 192.269C149.06 192.513 149.205 192.703 149.398 192.84C149.593 192.977 149.832 193.046 150.117 193.046ZM156.991 190.988V193.916H156.031V188.985H156.952V189.787H157.013C157.127 189.526 157.304 189.316 157.546 189.158C157.79 189 158.097 188.92 158.468 188.92C158.804 188.92 159.098 188.991 159.35 189.132C159.603 189.271 159.799 189.479 159.938 189.755C160.077 190.031 160.146 190.373 160.146 190.779V193.916H159.187V190.895C159.187 190.537 159.094 190.258 158.907 190.057C158.721 189.854 158.465 189.752 158.14 189.752C157.918 189.752 157.72 189.8 157.546 189.896C157.375 189.993 157.239 190.134 157.139 190.32C157.04 190.504 156.991 190.727 156.991 190.988ZM163.511 194.015C163.048 194.015 162.645 193.909 162.3 193.697C161.956 193.485 161.688 193.189 161.498 192.808C161.307 192.427 161.212 191.982 161.212 191.473C161.212 190.961 161.307 190.514 161.498 190.131C161.688 189.748 161.956 189.45 162.3 189.238C162.645 189.026 163.048 188.92 163.511 188.92C163.973 188.92 164.376 189.026 164.721 189.238C165.066 189.45 165.333 189.748 165.524 190.131C165.714 190.514 165.809 190.961 165.809 191.473C165.809 191.982 165.714 192.427 165.524 192.808C165.333 193.189 165.066 193.485 164.721 193.697C164.376 193.909 163.973 194.015 163.511 194.015ZM163.514 193.209C163.814 193.209 164.062 193.13 164.259 192.972C164.456 192.813 164.601 192.603 164.695 192.339C164.792 192.076 164.84 191.786 164.84 191.469C164.84 191.155 164.792 190.866 164.695 190.603C164.601 190.337 164.456 190.124 164.259 189.964C164.062 189.803 163.814 189.723 163.514 189.723C163.212 189.723 162.962 189.803 162.763 189.964C162.566 190.124 162.419 190.337 162.323 190.603C162.229 190.866 162.182 191.155 162.182 191.469C162.182 191.786 162.229 192.076 162.323 192.339C162.419 192.603 162.566 192.813 162.763 192.972C162.962 193.13 163.212 193.209 163.514 193.209ZM167.8 193.916L166.349 188.985H167.34L168.307 192.606H168.355L169.324 188.985H170.316L171.279 192.59H171.328L172.287 188.985H173.279L171.832 193.916H170.852L169.851 190.355H169.777L168.775 193.916H167.8ZM175.24 192.025V191.964C175.244 191.566 175.284 191.249 175.359 191.014C175.436 190.778 175.545 190.588 175.686 190.442C175.827 190.297 175.998 190.164 176.197 190.044C176.325 189.963 176.441 189.872 176.543 189.771C176.646 189.671 176.727 189.555 176.787 189.424C176.847 189.294 176.877 189.149 176.877 188.991C176.877 188.801 176.832 188.636 176.742 188.497C176.652 188.358 176.533 188.251 176.383 188.176C176.235 188.099 176.07 188.06 175.888 188.06C175.724 188.06 175.566 188.094 175.417 188.163C175.267 188.231 175.143 188.338 175.044 188.484C174.946 188.627 174.889 188.812 174.874 189.039H173.898C173.913 188.654 174.01 188.329 174.19 188.063C174.37 187.796 174.608 187.594 174.903 187.457C175.2 187.32 175.529 187.251 175.888 187.251C176.282 187.251 176.627 187.325 176.922 187.473C177.217 187.618 177.446 187.823 177.609 188.086C177.774 188.347 177.856 188.652 177.856 189.001C177.856 189.24 177.819 189.457 177.744 189.649C177.669 189.84 177.562 190.01 177.423 190.16C177.286 190.309 177.121 190.442 176.929 190.558C176.747 190.671 176.599 190.789 176.486 190.911C176.374 191.033 176.293 191.177 176.242 191.344C176.19 191.511 176.162 191.718 176.158 191.964V192.025H175.24ZM175.725 193.977C175.549 193.977 175.398 193.914 175.272 193.79C175.146 193.664 175.083 193.512 175.083 193.334C175.083 193.159 175.146 193.009 175.272 192.885C175.398 192.759 175.549 192.696 175.725 192.696C175.898 192.696 176.048 192.759 176.174 192.885C176.303 193.009 176.367 193.159 176.367 193.334C176.367 193.452 176.337 193.56 176.277 193.659C176.219 193.755 176.142 193.832 176.046 193.89C175.949 193.948 175.842 193.977 175.725 193.977Z" fill="#333333"/>
<path d="M59.9107 205.993C59.9107 207.729 58.5036 209.136 56.7679 209.136C55.0321 209.136 53.625 207.729 53.625 205.993C53.625 204.258 55.0321 202.851 56.7679 202.851C58.5036 202.851 59.9107 204.258 59.9107 205.993ZM54.1252 205.993C54.1252 207.453 55.3083 208.636 56.7679 208.636C58.2274 208.636 59.4105 207.453 59.4105 205.993C59.4105 204.534 58.2274 203.351 56.7679 203.351C55.3083 203.351 54.1252 204.534 54.1252 205.993Z" fill="#A58CF0"/>
<circle cx="56.7667" cy="205.993" r="1.57143" fill="#A58CF0"/>
<path d="M62.5069 203.308H63.3047L64.9001 205.993H64.9675L66.563 203.308H67.3607L65.2821 206.69V209.06H64.5855V206.69L62.5069 203.308ZM69.3705 209.15C68.9548 209.15 68.5962 209.058 68.2947 208.875C67.9951 208.69 67.7638 208.431 67.6009 208.1C67.4399 207.766 67.3593 207.379 67.3593 206.937C67.3593 206.495 67.4399 206.105 67.6009 205.768C67.7638 205.429 67.9904 205.165 68.2807 204.976C68.5728 204.785 68.9136 204.69 69.3031 204.69C69.5278 204.69 69.7497 204.727 69.9688 204.802C70.1879 204.877 70.3874 204.999 70.5671 205.167C70.7469 205.334 70.8901 205.555 70.9969 205.83C71.1036 206.105 71.157 206.444 71.157 206.847V207.128H67.8312V206.555H70.4829C70.4829 206.311 70.4342 206.094 70.3368 205.903C70.2413 205.712 70.1046 205.561 69.9267 205.451C69.7507 205.34 69.5428 205.285 69.3031 205.285C69.0391 205.285 68.8106 205.351 68.6177 205.482C68.4267 205.611 68.2797 205.779 68.1767 205.987C68.0737 206.195 68.0222 206.418 68.0222 206.656V207.038C68.0222 207.364 68.0784 207.64 68.1908 207.867C68.305 208.091 68.4632 208.263 68.6655 208.381C68.8677 208.497 69.1027 208.555 69.3705 208.555C69.5447 208.555 69.702 208.53 69.8424 208.482C69.9847 208.431 70.1074 208.356 70.2104 208.257C70.3134 208.156 70.393 208.03 70.4491 207.881L71.0896 208.06C71.0222 208.278 70.9089 208.469 70.7497 208.633C70.5905 208.796 70.3939 208.924 70.1598 209.015C69.9258 209.105 69.6627 209.15 69.3705 209.15ZM75.2215 205.712L74.626 205.881C74.5886 205.781 74.5333 205.685 74.4603 205.591C74.3891 205.496 74.2918 205.417 74.1682 205.355C74.0446 205.294 73.8863 205.263 73.6935 205.263C73.4294 205.263 73.2094 205.324 73.0334 205.445C72.8592 205.565 72.7721 205.718 72.7721 205.903C72.7721 206.068 72.832 206.198 72.9519 206.294C73.0717 206.389 73.259 206.469 73.5137 206.532L74.1541 206.69C74.5399 206.783 74.8273 206.926 75.0165 207.119C75.2056 207.31 75.3002 207.557 75.3002 207.858C75.3002 208.105 75.229 208.326 75.0867 208.521C74.9462 208.716 74.7496 208.869 74.4968 208.982C74.244 209.094 73.95 209.15 73.6148 209.15C73.1747 209.15 72.8105 209.055 72.5221 208.864C72.2337 208.673 72.0512 208.394 71.9744 208.027L72.6036 207.869C72.6635 208.102 72.7768 208.276 72.9435 208.392C73.112 208.508 73.332 208.566 73.6036 208.566C73.9125 208.566 74.1579 208.5 74.3395 208.369C74.523 208.236 74.6148 208.077 74.6148 207.892C74.6148 207.742 74.5623 207.617 74.4575 207.515C74.3526 207.412 74.1916 207.336 73.9743 207.285L73.2553 207.117C72.8601 207.023 72.5699 206.878 72.3845 206.681C72.201 206.483 72.1092 206.235 72.1092 205.937C72.1092 205.693 72.1776 205.478 72.3143 205.291C72.4528 205.103 72.641 204.956 72.8789 204.85C73.1186 204.743 73.3901 204.69 73.6935 204.69C74.1204 204.69 74.4556 204.783 74.699 204.971C74.9444 205.158 75.1185 205.405 75.2215 205.712Z" fill="#4F4F4F"/>
<path d="M59.9107 220.205C59.9107 221.941 58.5036 223.348 56.7679 223.348C55.0321 223.348 53.625 221.941 53.625 220.205C53.625 218.469 55.0321 217.062 56.7679 217.062C58.5036 217.062 59.9107 218.469 59.9107 220.205ZM54.1252 220.205C54.1252 221.665 55.3083 222.848 56.7679 222.848C58.2274 222.848 59.4105 221.665 59.4105 220.205C59.4105 218.746 58.2274 217.562 56.7679 217.562C55.3083 217.562 54.1252 218.746 54.1252 220.205Z" fill="#D9D9D9"/>
<path d="M67.4302 217.452V223.205H66.756L63.6213 218.688H63.5651V223.205H62.8685V217.452H63.5426L66.6886 221.98H66.7448V217.452H67.4302ZM70.487 223.295C70.0975 223.295 69.7557 223.202 69.4617 223.017C69.1696 222.831 68.9411 222.572 68.7763 222.239C68.6134 221.905 68.532 221.516 68.532 221.07C68.532 220.621 68.6134 220.229 68.7763 219.893C68.9411 219.558 69.1696 219.298 69.4617 219.112C69.7557 218.927 70.0975 218.834 70.487 218.834C70.8765 218.834 71.2173 218.927 71.5094 219.112C71.8034 219.298 72.0319 219.558 72.1948 219.893C72.3596 220.229 72.442 220.621 72.442 221.07C72.442 221.516 72.3596 221.905 72.1948 222.239C72.0319 222.572 71.8034 222.831 71.5094 223.017C71.2173 223.202 70.8765 223.295 70.487 223.295ZM70.487 222.699C70.7829 222.699 71.0263 222.624 71.2173 222.472C71.4083 222.32 71.5497 222.121 71.6414 221.874C71.7332 221.626 71.7791 221.359 71.7791 221.07C71.7791 220.782 71.7332 220.513 71.6414 220.264C71.5497 220.015 71.4083 219.814 71.2173 219.66C71.0263 219.507 70.7829 219.43 70.487 219.43C70.1911 219.43 69.9477 219.507 69.7567 219.66C69.5657 219.814 69.4243 220.015 69.3325 220.264C69.2408 220.513 69.1949 220.782 69.1949 221.07C69.1949 221.359 69.2408 221.626 69.3325 221.874C69.4243 222.121 69.5657 222.32 69.7567 222.472C69.9477 222.624 70.1911 222.699 70.487 222.699Z" fill="#4F4F4F"/>
<path d="M67.836 250.765V244.19H70.3014C70.8065 244.19 71.2302 244.285 71.5726 244.473C71.9172 244.661 72.1772 244.92 72.3527 245.25C72.5303 245.577 72.6191 245.95 72.6191 246.367C72.6191 246.789 72.5303 247.163 72.3527 247.49C72.1751 247.818 71.9129 248.076 71.5662 248.264C71.2195 248.45 70.7925 248.543 70.2853 248.543H68.6513V247.564H70.1248C70.4202 247.564 70.662 247.513 70.8503 247.41C71.0387 247.308 71.1778 247.166 71.2677 246.986C71.3597 246.807 71.4057 246.6 71.4057 246.367C71.4057 246.134 71.3597 245.928 71.2677 245.751C71.1778 245.573 71.0376 245.435 70.8471 245.336C70.6588 245.236 70.4159 245.186 70.1184 245.186H69.0269V250.765H67.836ZM73.6023 250.765V245.834H74.729V246.656H74.7804C74.8703 246.371 75.0244 246.152 75.2427 245.998C75.4631 245.842 75.7146 245.763 75.9971 245.763C76.0613 245.763 76.133 245.767 76.2122 245.773C76.2935 245.777 76.3609 245.785 76.4144 245.796V246.865C76.3652 246.847 76.2871 246.832 76.1801 246.82C76.0752 246.805 75.9735 246.797 75.8751 246.797C75.6632 246.797 75.4727 246.843 75.3037 246.935C75.1367 247.025 75.0051 247.15 74.9088 247.311C74.8125 247.471 74.7644 247.656 74.7644 247.866V250.765H73.6023ZM79.1663 250.861C78.672 250.861 78.245 250.758 77.8855 250.553C77.5281 250.345 77.2531 250.052 77.0605 249.673C76.8678 249.292 76.7715 248.844 76.7715 248.328C76.7715 247.821 76.8678 247.376 77.0605 246.993C77.2552 246.608 77.527 246.308 77.8758 246.094C78.2247 245.878 78.6345 245.77 79.1053 245.77C79.4092 245.77 79.696 245.819 79.9657 245.917C80.2375 246.014 80.4772 246.164 80.6848 246.367C80.8945 246.57 81.0593 246.829 81.1791 247.144C81.299 247.456 81.3589 247.829 81.3589 248.261V248.617H77.3173V247.834H80.245C80.2428 247.611 80.1947 247.413 80.1005 247.24C80.0063 247.065 79.8747 246.927 79.7057 246.826C79.5387 246.725 79.344 246.675 79.1214 246.675C78.8838 246.675 78.6752 246.733 78.4954 246.848C78.3156 246.962 78.1755 247.112 78.0749 247.298C77.9764 247.482 77.9261 247.684 77.924 247.905V248.588C77.924 248.875 77.9764 249.121 78.0813 249.327C78.1862 249.53 78.3328 249.686 78.5211 249.795C78.7094 249.902 78.9299 249.956 79.1824 249.956C79.3515 249.956 79.5045 249.932 79.6414 249.885C79.7784 249.836 79.8972 249.764 79.9978 249.67C80.0984 249.576 80.1743 249.459 80.2257 249.32L81.3107 249.442C81.2423 249.729 81.1117 249.979 80.9191 250.193C80.7286 250.405 80.4847 250.57 80.1872 250.688C79.8897 250.803 79.5494 250.861 79.1663 250.861ZM86.6052 245.834L84.8492 250.765H83.5651L81.8091 245.834H83.0483L84.1815 249.497H84.2328L85.3692 245.834H86.6052Z" fill="#A58CF0"/>
<rect x="53.9075" y="235.527" width="46.5547" height="24.4749" rx="4.23746" stroke="#A58CF0" stroke-width="0.564994"/>
<rect x="297.328" y="235.245" width="48.1197" height="25.0399" rx="4.51995" fill="#A58CF0"/>
<path d="M316.942 244.19V250.765H315.882L312.785 246.287H312.73V250.765H311.539V244.19H312.605L315.699 248.672H315.757V244.19H316.942ZM320.371 250.861C319.877 250.861 319.45 250.758 319.09 250.553C318.733 250.345 318.458 250.052 318.265 249.673C318.073 249.292 317.976 248.844 317.976 248.328C317.976 247.821 318.073 247.376 318.265 246.993C318.46 246.608 318.732 246.308 319.081 246.094C319.429 245.878 319.839 245.77 320.31 245.77C320.614 245.77 320.901 245.819 321.17 245.917C321.442 246.014 321.682 246.164 321.89 246.367C322.099 246.57 322.264 246.829 322.384 247.144C322.504 247.456 322.564 247.829 322.564 248.261V248.617H318.522V247.834H321.45C321.448 247.611 321.399 247.413 321.305 247.24C321.211 247.065 321.08 246.927 320.91 246.826C320.744 246.725 320.549 246.675 320.326 246.675C320.089 246.675 319.88 246.733 319.7 246.848C319.52 246.962 319.38 247.112 319.28 247.298C319.181 247.482 319.131 247.684 319.129 247.905V248.588C319.129 248.875 319.181 249.121 319.286 249.327C319.391 249.53 319.538 249.686 319.726 249.795C319.914 249.902 320.135 249.956 320.387 249.956C320.556 249.956 320.709 249.932 320.846 249.885C320.983 249.836 321.102 249.764 321.203 249.67C321.303 249.576 321.379 249.459 321.43 249.32L322.516 249.442C322.447 249.729 322.317 249.979 322.124 250.193C321.933 250.405 321.689 250.57 321.392 250.688C321.094 250.803 320.754 250.861 320.371 250.861ZM324.391 245.834L325.386 247.654L326.397 245.834H327.627L326.141 248.299L327.653 250.765H326.43L325.386 248.99L324.353 250.765H323.12L324.622 248.299L323.158 245.834H324.391ZM330.988 245.834V246.733H328.153V245.834H330.988ZM328.853 244.653H330.015V249.282C330.015 249.438 330.039 249.558 330.086 249.641C330.135 249.723 330.199 249.778 330.279 249.808C330.358 249.838 330.446 249.853 330.542 249.853C330.615 249.853 330.681 249.848 330.741 249.837C330.803 249.826 330.85 249.817 330.882 249.808L331.078 250.717C331.016 250.738 330.927 250.762 330.811 250.787C330.698 250.813 330.559 250.828 330.394 250.832C330.103 250.841 329.841 250.797 329.608 250.701C329.374 250.602 329.189 250.45 329.052 250.245C328.917 250.039 328.851 249.783 328.853 249.474V244.653Z" fill="white"/>
</g>
</g>
<defs>
<filter id="filter0_dd_1127_3619" x="-7.72541" y="-3.86271" width="352.474" height="128.21" filterUnits="userSpaceOnUse" color-interpolation-filters="sRGB">
<feFlood flood-opacity="0" result="BackgroundImageFix"/>
<feColorMatrix in="SourceAlpha" type="matrix" values="0 0 0 0 0 0 0 0 0 0 0 0 0 0 0 0 0 0 127 0" result="hardAlpha"/>
<feOffset dy="3.86271"/>
<feGaussianBlur stdDeviation="3.86271"/>
<feComposite in2="hardAlpha" operator="out"/>
<feColorMatrix type="matrix" values="0 0 0 0 0 0 0 0 0 0 0 0 0 0 0 0 0 0 0.05 0"/>
<feBlend mode="normal" in2="BackgroundImageFix" result="effect1_dropShadow_1127_3619"/>
<feColorMatrix in="SourceAlpha" type="matrix" values="0 0 0 0 0 0 0 0 0 0 0 0 0 0 0 0 0 0 127 0" result="hardAlpha"/>
<feOffset dy="1.93135"/>
<feGaussianBlur stdDeviation="1.93135"/>
<feComposite in2="hardAlpha" operator="out"/>
<feColorMatrix type="matrix" values="0 0 0 0 0 0 0 0 0 0 0 0 0 0 0 0 0 0 0.07 0"/>
<feBlend mode="normal" in2="effect1_dropShadow_1127_3619" result="effect2_dropShadow_1127_3619"/>
<feBlend mode="normal" in="SourceGraphic" in2="effect2_dropShadow_1127_3619" result="shape"/>
</filter>
<filter id="filter1_dd_1127_3619" x="113.173" y="65.6814" width="352.474" height="120.023" filterUnits="userSpaceOnUse" color-interpolation-filters="sRGB">
<feFlood flood-opacity="0" result="BackgroundImageFix"/>
<feColorMatrix in="SourceAlpha" type="matrix" values="0 0 0 0 0 0 0 0 0 0 0 0 0 0 0 0 0 0 127 0" result="hardAlpha"/>
<feOffset dy="3.86271"/>
<feGaussianBlur stdDeviation="3.86271"/>
<feComposite in2="hardAlpha" operator="out"/>
<feColorMatrix type="matrix" values="0 0 0 0 0 0 0 0 0 0 0 0 0 0 0 0 0 0 0.05 0"/>
<feBlend mode="normal" in2="BackgroundImageFix" result="effect1_dropShadow_1127_3619"/>
<feColorMatrix in="SourceAlpha" type="matrix" values="0 0 0 0 0 0 0 0 0 0 0 0 0 0 0 0 0 0 127 0" result="hardAlpha"/>
<feOffset dy="1.93135"/>
<feGaussianBlur stdDeviation="1.93135"/>
<feComposite in2="hardAlpha" operator="out"/>
<feColorMatrix type="matrix" values="0 0 0 0 0 0 0 0 0 0 0 0 0 0 0 0 0 0 0.07 0"/>
<feBlend mode="normal" in2="effect1_dropShadow_1127_3619" result="effect2_dropShadow_1127_3619"/>
<feBlend mode="normal" in="SourceGraphic" in2="effect2_dropShadow_1127_3619" result="shape"/>
</filter>
<filter id="filter2_dd_1127_3619" x="23.298" y="161.973" width="352.474" height="127.98" filterUnits="userSpaceOnUse" color-interpolation-filters="sRGB">
<feFlood flood-opacity="0" result="BackgroundImageFix"/>
<feColorMatrix in="SourceAlpha" type="matrix" values="0 0 0 0 0 0 0 0 0 0 0 0 0 0 0 0 0 0 127 0" result="hardAlpha"/>
<feOffset dy="3.86271"/>
<feGaussianBlur stdDeviation="3.86271"/>
<feComposite in2="hardAlpha" operator="out"/>
<feColorMatrix type="matrix" values="0 0 0 0 0 0 0 0 0 0 0 0 0 0 0 0 0 0 0.05 0"/>
<feBlend mode="normal" in2="BackgroundImageFix" result="effect1_dropShadow_1127_3619"/>
<feColorMatrix in="SourceAlpha" type="matrix" values="0 0 0 0 0 0 0 0 0 0 0 0 0 0 0 0 0 0 127 0" result="hardAlpha"/>
<feOffset dy="1.93135"/>
<feGaussianBlur stdDeviation="1.93135"/>
<feComposite in2="hardAlpha" operator="out"/>
<feColorMatrix type="matrix" values="0 0 0 0 0 0 0 0 0 0 0 0 0 0 0 0 0 0 0.07 0"/>
<feBlend mode="normal" in2="effect1_dropShadow_1127_3619" result="effect2_dropShadow_1127_3619"/>
<feBlend mode="normal" in="SourceGraphic" in2="effect2_dropShadow_1127_3619" result="shape"/>
</filter>
<clipPath id="clip0_1127_3619">
<rect width="457.921" height="280" fill="white"/>
</clipPath>
</defs>
</svg>
