<svg width="452" height="280" viewBox="0 0 452 280" fill="none" xmlns="http://www.w3.org/2000/svg">
<g clip-path="url(#clip0_1127_3620)">
<path fill-rule="evenodd" clip-rule="evenodd" d="M218.911 240.303C168.94 275.95 109.445 272.182 65.5833 246.606C20.987 220.602 -9.32788 173.878 11.7343 119.497C33.866 62.3537 94.3762 23.1817 155.47 14.5242C220.458 5.31471 285.695 22.969 301.289 78.464C316.975 134.289 276.042 199.548 218.911 240.303Z" fill="#FCF7FF"/>
<g filter="url(#filter0_dd_1127_3620)">
<rect width="407.373" height="168.624" transform="translate(43.9219 64.7843)" fill="white"/>
<path d="M59.3518 83.5959V92.0164H58.0813V83.5959H59.3518ZM61.4336 92.0164V83.5959H66.6552V84.6896H62.704V87.2552H66.281V88.3448H62.704V92.0164H61.4336Z" fill="#4F4F4F"/>
<path d="M78.0874 122.444V130.864H77.1006L72.5122 124.253H72.4299V130.864H71.4103V122.444H72.3971L77.002 129.072H77.0842V122.444H78.0874ZM81.8546 131.012C81.4544 131.012 81.0912 130.937 80.765 130.786C80.4389 130.633 80.1798 130.412 79.988 130.124C79.7961 129.834 79.7002 129.483 79.7002 129.072C79.7002 128.71 79.7714 128.417 79.9139 128.192C80.0565 127.964 80.247 127.786 80.4855 127.657C80.7239 127.529 80.9871 127.433 81.2749 127.37C81.5654 127.304 81.8573 127.252 82.1506 127.213C82.5344 127.164 82.8455 127.127 83.0839 127.102C83.3251 127.075 83.5006 127.03 83.6102 126.967C83.7226 126.904 83.7788 126.794 83.7788 126.638V126.605C83.7788 126.199 83.6678 125.884 83.4458 125.659C83.2265 125.434 82.8934 125.322 82.4467 125.322C81.9834 125.322 81.6202 125.424 81.3571 125.626C81.094 125.829 80.9089 126.046 80.802 126.276L79.8811 125.947C80.0455 125.563 80.2648 125.265 80.5389 125.051C80.8157 124.834 81.1173 124.683 81.4434 124.598C81.7724 124.511 82.0958 124.467 82.4138 124.467C82.6166 124.467 82.8496 124.492 83.1127 124.541C83.3786 124.588 83.6349 124.685 83.8816 124.833C84.131 124.981 84.338 125.204 84.5024 125.503C84.6669 125.802 84.7491 126.202 84.7491 126.704V130.864H83.7788V130.009H83.7294C83.6637 130.146 83.554 130.293 83.4005 130.449C83.247 130.605 83.0428 130.738 82.7879 130.848C82.533 130.958 82.2219 131.012 81.8546 131.012ZM82.0026 130.141C82.3863 130.141 82.7098 130.065 82.9729 129.915C83.2388 129.764 83.4389 129.569 83.5732 129.331C83.7103 129.092 83.7788 128.842 83.7788 128.578V127.69C83.7377 127.74 83.6472 127.785 83.5074 127.826C83.3704 127.864 83.2114 127.899 83.0305 127.929C82.8523 127.956 82.6783 127.981 82.5083 128.003C82.3411 128.022 82.2054 128.038 82.1013 128.052C81.8491 128.085 81.6134 128.138 81.3941 128.213C81.1776 128.284 81.0021 128.392 80.8678 128.537C80.7363 128.68 80.6705 128.874 80.6705 129.121C80.6705 129.458 80.7952 129.713 81.0446 129.886C81.2968 130.056 81.6161 130.141 82.0026 130.141ZM86.5201 130.864V124.549H87.4576V125.536H87.5398C87.6714 125.199 87.8838 124.937 88.1771 124.751C88.4704 124.561 88.8226 124.467 89.2338 124.467C89.6504 124.467 89.9971 124.561 90.274 124.751C90.5536 124.937 90.7715 125.199 90.9277 125.536H90.9935C91.1552 125.21 91.3978 124.951 91.7212 124.759C92.0447 124.564 92.4325 124.467 92.8848 124.467C93.4494 124.467 93.9113 124.644 94.2704 124.997C94.6294 125.348 94.809 125.895 94.809 126.638V130.864H93.8387V126.638C93.8387 126.172 93.7112 125.839 93.4563 125.639C93.2014 125.439 92.9012 125.339 92.5559 125.339C92.1118 125.339 91.7678 125.473 91.5239 125.741C91.2799 126.007 91.1579 126.345 91.1579 126.753V130.864H90.1712V126.539C90.1712 126.18 90.0547 125.891 89.8217 125.672C89.5887 125.45 89.2886 125.339 88.9213 125.339C88.6691 125.339 88.4334 125.406 88.2141 125.54C87.9976 125.674 87.8221 125.861 87.6878 126.099C87.5563 126.335 87.4905 126.608 87.4905 126.917V130.864H86.5201ZM99.2309 130.996C98.6224 130.996 98.0975 130.862 97.6562 130.593C97.2177 130.322 96.8791 129.943 96.6407 129.458C96.4049 128.97 96.2871 128.403 96.2871 127.756C96.2871 127.109 96.4049 126.539 96.6407 126.046C96.8791 125.55 97.2108 125.163 97.6357 124.886C98.0633 124.607 98.5621 124.467 99.1323 124.467C99.4612 124.467 99.786 124.522 100.107 124.631C100.427 124.741 100.719 124.919 100.982 125.166C101.246 125.41 101.455 125.733 101.612 126.136C101.768 126.539 101.846 127.035 101.846 127.625V128.036H96.9778V127.197H100.859C100.859 126.841 100.788 126.523 100.645 126.243C100.506 125.964 100.305 125.743 100.045 125.581C99.7874 125.419 99.4831 125.339 99.1323 125.339C98.7458 125.339 98.4114 125.434 98.129 125.626C97.8495 125.815 97.6343 126.062 97.4835 126.366C97.3328 126.671 97.2574 126.997 97.2574 127.345V127.904C97.2574 128.381 97.3396 128.785 97.5041 129.117C97.6713 129.446 97.9029 129.697 98.1989 129.869C98.495 130.039 98.839 130.124 99.2309 130.124C99.4858 130.124 99.7161 130.089 99.9217 130.017C100.13 129.943 100.31 129.834 100.46 129.689C100.611 129.541 100.728 129.357 100.81 129.138L101.747 129.401C101.649 129.719 101.483 129.998 101.25 130.239C101.017 130.478 100.729 130.664 100.386 130.799C100.044 130.93 99.6585 130.996 99.2309 130.996Z" fill="black"/>
<path d="M156.562 125.211L159.871 128.519L163.179 125.211" stroke="#A3A3A3" stroke-width="1.65401" stroke-linecap="round" stroke-linejoin="round"/>
<rect x="57.5698" y="111.662" width="121.732" height="30.4051" rx="2.89452" stroke="#D9D8D9" stroke-width="0.827004"/>
<path d="M203.016 130.996C202.424 130.996 201.914 130.856 201.487 130.577C201.059 130.297 200.73 129.912 200.5 129.421C200.27 128.931 200.155 128.37 200.155 127.74C200.155 127.098 200.272 126.532 200.508 126.042C200.747 125.548 201.078 125.163 201.503 124.886C201.931 124.607 202.43 124.467 203 124.467C203.444 124.467 203.844 124.549 204.2 124.714C204.557 124.878 204.849 125.108 205.076 125.404C205.304 125.7 205.445 126.046 205.5 126.44H204.529C204.455 126.153 204.291 125.898 204.036 125.676C203.784 125.451 203.444 125.339 203.016 125.339C202.638 125.339 202.306 125.437 202.021 125.635C201.739 125.829 201.518 126.105 201.359 126.461C201.203 126.815 201.125 127.23 201.125 127.707C201.125 128.195 201.202 128.62 201.355 128.981C201.511 129.343 201.731 129.624 202.013 129.824C202.298 130.024 202.632 130.124 203.016 130.124C203.268 130.124 203.497 130.081 203.703 129.993C203.908 129.905 204.082 129.779 204.225 129.615C204.368 129.45 204.469 129.253 204.529 129.022H205.5C205.445 129.395 205.309 129.731 205.093 130.03C204.879 130.326 204.595 130.562 204.241 130.737C203.891 130.91 203.482 130.996 203.016 130.996ZM209.484 130.996C208.913 130.996 208.413 130.86 207.983 130.589C207.555 130.318 207.221 129.938 206.98 129.45C206.741 128.962 206.622 128.392 206.622 127.74C206.622 127.082 206.741 126.508 206.98 126.017C207.221 125.526 207.555 125.145 207.983 124.874C208.413 124.603 208.913 124.467 209.484 124.467C210.054 124.467 210.553 124.603 210.98 124.874C211.411 125.145 211.745 125.526 211.983 126.017C212.225 126.508 212.345 127.082 212.345 127.74C212.345 128.392 212.225 128.962 211.983 129.45C211.745 129.938 211.411 130.318 210.98 130.589C210.553 130.86 210.054 130.996 209.484 130.996ZM209.484 130.124C209.917 130.124 210.273 130.013 210.553 129.791C210.832 129.569 211.039 129.277 211.173 128.916C211.308 128.554 211.375 128.162 211.375 127.74C211.375 127.318 211.308 126.924 211.173 126.56C211.039 126.195 210.832 125.9 210.553 125.676C210.273 125.451 209.917 125.339 209.484 125.339C209.051 125.339 208.694 125.451 208.415 125.676C208.135 125.9 207.928 126.195 207.794 126.56C207.659 126.924 207.592 127.318 207.592 127.74C207.592 128.162 207.659 128.554 207.794 128.916C207.928 129.277 208.135 129.569 208.415 129.791C208.694 130.013 209.051 130.124 209.484 130.124ZM214.797 127.065V130.864H213.826V124.549H214.764V125.536H214.846C214.994 125.215 215.219 124.958 215.52 124.763C215.822 124.566 216.211 124.467 216.688 124.467C217.116 124.467 217.49 124.555 217.81 124.73C218.131 124.903 218.381 125.166 218.559 125.519C218.737 125.87 218.826 126.314 218.826 126.852V130.864H217.856V126.917C217.856 126.421 217.727 126.035 217.469 125.758C217.212 125.478 216.858 125.339 216.408 125.339C216.099 125.339 215.822 125.406 215.578 125.54C215.337 125.674 215.146 125.87 215.006 126.128C214.867 126.386 214.797 126.698 214.797 127.065ZM223.346 124.549V125.371H220.073V124.549H223.346ZM221.027 123.036H221.997V129.055C221.997 129.329 222.037 129.535 222.116 129.672C222.199 129.806 222.303 129.897 222.429 129.943C222.558 129.987 222.693 130.009 222.836 130.009C222.943 130.009 223.03 130.004 223.099 129.993C223.167 129.979 223.222 129.968 223.263 129.96L223.461 130.832C223.395 130.856 223.303 130.881 223.185 130.906C223.067 130.933 222.918 130.947 222.737 130.947C222.463 130.947 222.194 130.888 221.931 130.77C221.671 130.652 221.454 130.472 221.282 130.231C221.112 129.99 221.027 129.686 221.027 129.319V123.036ZM226.664 131.012C226.263 131.012 225.9 130.937 225.574 130.786C225.248 130.633 224.989 130.412 224.797 130.124C224.605 129.834 224.509 129.483 224.509 129.072C224.509 128.71 224.58 128.417 224.723 128.192C224.866 127.964 225.056 127.786 225.294 127.657C225.533 127.529 225.796 127.433 226.084 127.37C226.374 127.304 226.666 127.252 226.96 127.213C227.343 127.164 227.655 127.127 227.893 127.102C228.134 127.075 228.31 127.03 228.419 126.967C228.532 126.904 228.588 126.794 228.588 126.638V126.605C228.588 126.199 228.477 125.884 228.255 125.659C228.036 125.434 227.702 125.322 227.256 125.322C226.792 125.322 226.429 125.424 226.166 125.626C225.903 125.829 225.718 126.046 225.611 126.276L224.69 125.947C224.855 125.563 225.074 125.265 225.348 125.051C225.625 124.834 225.926 124.683 226.252 124.598C226.581 124.511 226.905 124.467 227.223 124.467C227.426 124.467 227.659 124.492 227.922 124.541C228.188 124.588 228.444 124.685 228.691 124.833C228.94 124.981 229.147 125.204 229.311 125.503C229.476 125.802 229.558 126.202 229.558 126.704V130.864H228.588V130.009H228.538C228.473 130.146 228.363 130.293 228.21 130.449C228.056 130.605 227.852 130.738 227.597 130.848C227.342 130.958 227.031 131.012 226.664 131.012ZM226.812 130.141C227.195 130.141 227.519 130.065 227.782 129.915C228.048 129.764 228.248 129.569 228.382 129.331C228.519 129.092 228.588 128.842 228.588 128.578V127.69C228.547 127.74 228.456 127.785 228.316 127.826C228.179 127.864 228.02 127.899 227.84 127.929C227.661 127.956 227.487 127.981 227.317 128.003C227.15 128.022 227.014 128.038 226.91 128.052C226.658 128.085 226.422 128.138 226.203 128.213C225.987 128.284 225.811 128.392 225.677 128.537C225.545 128.68 225.48 128.874 225.48 129.121C225.48 129.458 225.604 129.713 225.854 129.886C226.106 130.056 226.425 130.141 226.812 130.141ZM231.329 130.864V124.549H232.3V130.864H231.329ZM231.823 123.497C231.633 123.497 231.47 123.432 231.333 123.303C231.199 123.175 231.132 123.02 231.132 122.839C231.132 122.658 231.199 122.503 231.333 122.374C231.47 122.245 231.633 122.181 231.823 122.181C232.012 122.181 232.173 122.245 232.308 122.374C232.445 122.503 232.513 122.658 232.513 122.839C232.513 123.02 232.445 123.175 232.308 123.303C232.173 123.432 232.012 123.497 231.823 123.497ZM235.047 127.065V130.864H234.077V124.549H235.014V125.536H235.096C235.244 125.215 235.469 124.958 235.771 124.763C236.072 124.566 236.461 124.467 236.938 124.467C237.366 124.467 237.74 124.555 238.061 124.73C238.381 124.903 238.631 125.166 238.809 125.519C238.987 125.87 239.076 126.314 239.076 126.852V130.864H238.106V126.917C238.106 126.421 237.977 126.035 237.72 125.758C237.462 125.478 237.108 125.339 236.659 125.339C236.349 125.339 236.072 125.406 235.828 125.54C235.587 125.674 235.397 125.87 235.257 126.128C235.117 126.386 235.047 126.698 235.047 127.065ZM245.323 125.964L244.451 126.21C244.396 126.065 244.315 125.924 244.209 125.787C244.104 125.647 243.962 125.532 243.781 125.441C243.6 125.351 243.368 125.306 243.086 125.306C242.7 125.306 242.378 125.395 242.12 125.573C241.865 125.748 241.738 125.972 241.738 126.243C241.738 126.484 241.825 126.675 242.001 126.815C242.176 126.954 242.45 127.071 242.823 127.164L243.76 127.394C244.325 127.531 244.746 127.741 245.023 128.023C245.299 128.303 245.438 128.663 245.438 129.105C245.438 129.467 245.334 129.79 245.125 130.075C244.92 130.36 244.632 130.585 244.262 130.749C243.892 130.914 243.462 130.996 242.971 130.996C242.327 130.996 241.794 130.856 241.372 130.577C240.949 130.297 240.682 129.889 240.57 129.351L241.491 129.121C241.579 129.461 241.744 129.716 241.988 129.886C242.235 130.056 242.557 130.141 242.955 130.141C243.407 130.141 243.766 130.045 244.032 129.853C244.3 129.658 244.435 129.425 244.435 129.154C244.435 128.935 244.358 128.751 244.204 128.603C244.051 128.452 243.815 128.34 243.497 128.266L242.445 128.019C241.866 127.882 241.441 127.67 241.17 127.382C240.902 127.091 240.767 126.728 240.767 126.292C240.767 125.936 240.867 125.621 241.067 125.347C241.27 125.073 241.546 124.857 241.894 124.701C242.245 124.545 242.642 124.467 243.086 124.467C243.711 124.467 244.202 124.604 244.558 124.878C244.917 125.152 245.172 125.514 245.323 125.964Z" fill="black"/>
<path d="M285.719 125.211L289.027 128.519L292.335 125.211" stroke="#A3A3A3" stroke-width="1.65401" stroke-linecap="round" stroke-linejoin="round"/>
<rect x="186.742" y="111.662" width="121.732" height="30.4051" rx="2.89452" stroke="#D9D8D9" stroke-width="0.827004"/>
<path d="M330.107 130.864H329.038L332.13 122.444H333.183L336.275 130.864H335.206L332.689 123.776H332.623L330.107 130.864ZM330.502 127.575H334.811V128.48H330.502V127.575ZM338.359 128.562L338.343 127.361H338.54L341.303 124.549H342.503L339.56 127.526H339.477L338.359 128.562ZM337.455 130.864V122.444H338.425V130.864H337.455ZM341.467 130.864L339 127.74L339.691 127.065L342.701 130.864H341.467ZM345.611 131.012C345.211 131.012 344.847 130.937 344.521 130.786C344.195 130.633 343.936 130.412 343.744 130.124C343.552 129.834 343.456 129.483 343.456 129.072C343.456 128.71 343.528 128.417 343.67 128.192C343.813 127.964 344.003 127.786 344.242 127.657C344.48 127.529 344.743 127.433 345.031 127.37C345.322 127.304 345.613 127.252 345.907 127.213C346.291 127.164 346.602 127.127 346.84 127.102C347.081 127.075 347.257 127.03 347.366 126.967C347.479 126.904 347.535 126.794 347.535 126.638V126.605C347.535 126.199 347.424 125.884 347.202 125.659C346.983 125.434 346.65 125.322 346.203 125.322C345.74 125.322 345.376 125.424 345.113 125.626C344.85 125.829 344.665 126.046 344.558 126.276L343.637 125.947C343.802 125.563 344.021 125.265 344.295 125.051C344.572 124.834 344.873 124.683 345.2 124.598C345.529 124.511 345.852 124.467 346.17 124.467C346.373 124.467 346.606 124.492 346.869 124.541C347.135 124.588 347.391 124.685 347.638 124.833C347.887 124.981 348.094 125.204 348.259 125.503C348.423 125.802 348.505 126.202 348.505 126.704V130.864H347.535V130.009H347.486C347.42 130.146 347.31 130.293 347.157 130.449C347.003 130.605 346.799 130.738 346.544 130.848C346.289 130.958 345.978 131.012 345.611 131.012ZM345.759 130.141C346.143 130.141 346.466 130.065 346.729 129.915C346.995 129.764 347.195 129.569 347.329 129.331C347.466 129.092 347.535 128.842 347.535 128.578V127.69C347.494 127.74 347.403 127.785 347.264 127.826C347.127 127.864 346.968 127.899 346.787 127.929C346.608 127.956 346.434 127.981 346.264 128.003C346.097 128.022 345.962 128.038 345.857 128.052C345.605 128.085 345.37 128.138 345.15 128.213C344.934 128.284 344.758 128.392 344.624 128.537C344.492 128.68 344.427 128.874 344.427 129.121C344.427 129.458 344.551 129.713 344.801 129.886C345.053 130.056 345.372 130.141 345.759 130.141ZM354.75 125.964L353.878 126.21C353.823 126.065 353.742 125.924 353.635 125.787C353.531 125.647 353.389 125.532 353.208 125.441C353.027 125.351 352.795 125.306 352.513 125.306C352.126 125.306 351.804 125.395 351.547 125.573C351.292 125.748 351.164 125.972 351.164 126.243C351.164 126.484 351.252 126.675 351.428 126.815C351.603 126.954 351.877 127.071 352.25 127.164L353.187 127.394C353.752 127.531 354.173 127.741 354.45 128.023C354.726 128.303 354.865 128.663 354.865 129.105C354.865 129.467 354.761 129.79 354.552 130.075C354.347 130.36 354.059 130.585 353.689 130.749C353.319 130.914 352.888 130.996 352.398 130.996C351.754 130.996 351.221 130.856 350.798 130.577C350.376 130.297 350.109 129.889 349.997 129.351L350.918 129.121C351.005 129.461 351.171 129.716 351.415 129.886C351.662 130.056 351.984 130.141 352.381 130.141C352.834 130.141 353.193 130.045 353.459 129.853C353.727 129.658 353.862 129.425 353.862 129.154C353.862 128.935 353.785 128.751 353.631 128.603C353.478 128.452 353.242 128.34 352.924 128.266L351.872 128.019C351.293 127.882 350.868 127.67 350.597 127.382C350.328 127.091 350.194 126.728 350.194 126.292C350.194 125.936 350.294 125.621 350.494 125.347C350.697 125.073 350.973 124.857 351.321 124.701C351.671 124.545 352.069 124.467 352.513 124.467C353.138 124.467 353.629 124.604 353.985 124.878C354.344 125.152 354.599 125.514 354.75 125.964ZM357.296 127.065V130.864H356.325V122.444H357.296V125.536H357.378C357.526 125.21 357.748 124.951 358.044 124.759C358.343 124.564 358.74 124.467 359.236 124.467C359.667 124.467 360.044 124.553 360.367 124.726C360.69 124.896 360.941 125.158 361.119 125.511C361.3 125.862 361.391 126.309 361.391 126.852V130.864H360.42V126.917C360.42 126.416 360.29 126.028 360.03 125.754C359.772 125.477 359.415 125.339 358.957 125.339C358.639 125.339 358.354 125.406 358.102 125.54C357.852 125.674 357.655 125.87 357.51 126.128C357.367 126.386 357.296 126.698 357.296 127.065Z" fill="black"/>
<rect x="315.921" y="111.662" width="121.732" height="30.4051" rx="2.89452" stroke="#D9D8D9" stroke-width="0.827004"/>
<path d="M57.6661 162.386V161.292H64.1829V162.386H61.5556V169.713H60.2892V162.386H57.6661ZM65.8545 169.713V161.292H67.1249V164.951H71.3228V161.292H72.5974V169.713H71.3228V166.041H67.1249V169.713H65.8545ZM74.6791 169.713V161.292H79.9583V162.386H75.9496V164.951H79.6829V166.041H75.9496V168.619H80.0077V169.713H74.6791ZM88.6833 161.292V169.713H87.5156L83.2355 163.537H83.1574V169.713H81.8869V161.292H83.0628L87.347 167.476H87.4251V161.292H88.6833Z" fill="#4F4F4F"/>
<g opacity="0.8">
<path d="M76.0152 202.245C75.9659 201.829 75.7658 201.505 75.4149 201.275C75.0641 201.045 74.6337 200.93 74.1239 200.93C73.7511 200.93 73.4249 200.99 73.1453 201.111C72.8685 201.231 72.652 201.397 72.4957 201.608C72.3422 201.819 72.2655 202.059 72.2655 202.328C72.2655 202.552 72.3189 202.746 72.4258 202.907C72.5355 203.066 72.6753 203.199 72.8452 203.306C73.0151 203.41 73.1933 203.497 73.3797 203.565C73.5661 203.631 73.7374 203.684 73.8936 203.726L74.7488 203.956C74.9681 204.013 75.2121 204.093 75.4807 204.194C75.7521 204.296 76.0111 204.434 76.2578 204.609C76.5072 204.782 76.7128 205.004 76.8745 205.276C77.0362 205.547 77.1171 205.88 77.1171 206.275C77.1171 206.73 76.9978 207.141 76.7594 207.508C76.5237 207.875 76.1783 208.167 75.7233 208.384C75.271 208.6 74.7214 208.709 74.0746 208.709C73.4715 208.709 72.9494 208.611 72.5081 208.417C72.0695 208.222 71.7241 207.951 71.472 207.603C71.2225 207.255 71.0814 206.85 71.0485 206.39H72.101C72.1284 206.708 72.2353 206.971 72.4217 207.179C72.6108 207.385 72.8493 207.538 73.1371 207.64C73.4277 207.738 73.7401 207.788 74.0746 207.788C74.4638 207.788 74.8133 207.725 75.123 207.599C75.4327 207.47 75.678 207.292 75.859 207.064C76.0399 206.834 76.1303 206.565 76.1303 206.258C76.1303 205.979 76.0522 205.751 75.896 205.576C75.7397 205.4 75.5341 205.258 75.2792 205.148C75.0243 205.038 74.7488 204.943 74.4528 204.86L73.4167 204.564C72.7589 204.375 72.2381 204.105 71.8543 203.754C71.4706 203.403 71.2787 202.944 71.2787 202.377C71.2787 201.905 71.4062 201.494 71.6611 201.143C71.9187 200.79 72.2641 200.516 72.6972 200.321C73.133 200.124 73.6195 200.025 74.1568 200.025C74.6995 200.025 75.1819 200.122 75.604 200.317C76.0262 200.509 76.3606 200.772 76.6073 201.106C76.8567 201.441 76.9883 201.821 77.002 202.245H76.0152ZM79.5665 206.258L79.5501 205.058H79.7474L82.5104 202.245H83.7109L80.7671 205.222H80.6849L79.5665 206.258ZM78.662 208.561V200.14H79.6323V208.561H78.662ZM82.6748 208.561L80.2079 205.436L80.8987 204.762L83.9083 208.561H82.6748ZM84.9598 208.561V202.245H85.9301V208.561H84.9598ZM85.4532 201.193C85.2641 201.193 85.101 201.128 84.9639 201C84.8296 200.871 84.7625 200.716 84.7625 200.535C84.7625 200.354 84.8296 200.199 84.9639 200.07C85.101 199.942 85.2641 199.877 85.4532 199.877C85.6423 199.877 85.8041 199.942 85.9384 200.07C86.0754 200.199 86.1439 200.354 86.1439 200.535C86.1439 200.716 86.0754 200.871 85.9384 201C85.8041 201.128 85.6423 201.193 85.4532 201.193ZM87.7073 210.929V202.245H88.6448V203.249H88.7599C88.8312 203.139 88.9298 202.999 89.0559 202.829C89.1848 202.657 89.3684 202.503 89.6069 202.369C89.8481 202.232 90.1743 202.163 90.5854 202.163C91.1172 202.163 91.5859 202.296 91.9916 202.562C92.3972 202.828 92.7138 203.205 92.9413 203.693C93.1688 204.181 93.2826 204.756 93.2826 205.419C93.2826 206.088 93.1688 206.668 92.9413 207.159C92.7138 207.647 92.3986 208.025 91.9957 208.293C91.5927 208.559 91.1281 208.692 90.6019 208.692C90.1962 208.692 89.8714 208.625 89.6274 208.491C89.3835 208.354 89.1957 208.199 89.0642 208.026C88.9326 207.851 88.8312 207.705 88.7599 207.59H88.6777V210.929H87.7073ZM88.6612 205.403C88.6612 205.88 88.7311 206.301 88.8709 206.665C89.0107 207.027 89.2149 207.311 89.4835 207.516C89.7521 207.719 90.0811 207.821 90.4703 207.821C90.876 207.821 91.2145 207.714 91.4858 207.5C91.7599 207.283 91.9655 206.993 92.1026 206.628C92.2424 206.261 92.3123 205.853 92.3123 205.403C92.3123 204.959 92.2437 204.559 92.1067 204.202C91.9724 203.843 91.7682 203.56 91.4941 203.351C91.2227 203.14 90.8814 203.035 90.4703 203.035C90.0756 203.035 89.7439 203.135 89.4753 203.335C89.2067 203.532 89.0039 203.809 88.8668 204.165C88.7297 204.519 88.6612 204.932 88.6612 205.403ZM100.766 202.245V203.068H97.4928V202.245H100.766ZM98.4467 200.732H99.417V206.752C99.417 207.026 99.4567 207.231 99.5362 207.368C99.6184 207.503 99.7226 207.593 99.8487 207.64C99.9775 207.684 100.113 207.705 100.256 207.705C100.363 207.705 100.45 207.7 100.519 207.689C100.587 207.675 100.642 207.664 100.683 207.656L100.881 208.528C100.815 208.552 100.723 208.577 100.605 208.602C100.487 208.629 100.338 208.643 100.157 208.643C99.883 208.643 99.6143 208.584 99.3512 208.466C99.0908 208.348 98.8743 208.169 98.7016 207.927C98.5316 207.686 98.4467 207.382 98.4467 207.015V200.732ZM104.723 208.692C104.153 208.692 103.653 208.557 103.222 208.285C102.795 208.014 102.46 207.634 102.219 207.146C101.981 206.658 101.861 206.088 101.861 205.436C101.861 204.778 101.981 204.204 102.219 203.713C102.46 203.223 102.795 202.842 103.222 202.57C103.653 202.299 104.153 202.163 104.723 202.163C105.293 202.163 105.792 202.299 106.219 202.57C106.65 202.842 106.984 203.223 107.223 203.713C107.464 204.204 107.585 204.778 107.585 205.436C107.585 206.088 107.464 206.658 107.223 207.146C106.984 207.634 106.65 208.014 106.219 208.285C105.792 208.557 105.293 208.692 104.723 208.692ZM104.723 207.821C105.156 207.821 105.512 207.71 105.792 207.488C106.071 207.266 106.278 206.974 106.413 206.612C106.547 206.25 106.614 205.858 106.614 205.436C106.614 205.014 106.547 204.62 106.413 204.256C106.278 203.891 106.071 203.597 105.792 203.372C105.512 203.147 105.156 203.035 104.723 203.035C104.29 203.035 103.933 203.147 103.654 203.372C103.374 203.597 103.167 203.891 103.033 204.256C102.899 204.62 102.832 205.014 102.832 205.436C102.832 205.858 102.899 206.25 103.033 206.612C103.167 206.974 103.374 207.266 103.654 207.488C103.933 207.71 104.29 207.821 104.723 207.821ZM115.134 202.245V203.068H111.73V202.245H115.134ZM112.75 208.561V201.374C112.75 201.012 112.835 200.71 113.005 200.469C113.174 200.228 113.395 200.047 113.667 199.926C113.938 199.806 114.224 199.746 114.526 199.746C114.764 199.746 114.959 199.765 115.11 199.803C115.26 199.841 115.373 199.877 115.447 199.91L115.167 200.749C115.118 200.732 115.049 200.712 114.962 200.687C114.877 200.662 114.764 200.65 114.624 200.65C114.304 200.65 114.072 200.731 113.93 200.893C113.79 201.054 113.72 201.291 113.72 201.604V208.561H112.75ZM116.494 208.561V202.245H117.465V208.561H116.494ZM116.988 201.193C116.798 201.193 116.635 201.128 116.498 201C116.364 200.871 116.297 200.716 116.297 200.535C116.297 200.354 116.364 200.199 116.498 200.07C116.635 199.942 116.798 199.877 116.988 199.877C117.177 199.877 117.338 199.942 117.473 200.07C117.61 200.199 117.678 200.354 117.678 200.535C117.678 200.716 117.61 200.871 117.473 201C117.338 201.128 117.177 201.193 116.988 201.193ZM121.89 208.692C121.281 208.692 120.756 208.558 120.315 208.289C119.876 208.018 119.538 207.64 119.299 207.155C119.064 206.667 118.946 206.099 118.946 205.452C118.946 204.805 119.064 204.235 119.299 203.742C119.538 203.246 119.869 202.859 120.294 202.583C120.722 202.303 121.221 202.163 121.791 202.163C122.12 202.163 122.445 202.218 122.765 202.328C123.086 202.437 123.378 202.615 123.641 202.862C123.904 203.106 124.114 203.429 124.27 203.832C124.426 204.235 124.504 204.731 124.504 205.321V205.732H119.636V204.893H123.518C123.518 204.537 123.446 204.219 123.304 203.939C123.164 203.66 122.964 203.439 122.704 203.277C122.446 203.116 122.142 203.035 121.791 203.035C121.404 203.035 121.07 203.131 120.788 203.323C120.508 203.512 120.293 203.758 120.142 204.063C119.991 204.367 119.916 204.693 119.916 205.041V205.6C119.916 206.077 119.998 206.482 120.163 206.813C120.33 207.142 120.562 207.393 120.858 207.566C121.154 207.736 121.498 207.821 121.89 207.821C122.144 207.821 122.375 207.785 122.58 207.714C122.789 207.64 122.968 207.53 123.119 207.385C123.27 207.237 123.386 207.053 123.468 206.834L124.406 207.097C124.307 207.415 124.141 207.695 123.908 207.936C123.675 208.174 123.388 208.361 123.045 208.495C122.702 208.626 122.317 208.692 121.89 208.692ZM126.951 200.14V208.561H125.981V200.14H126.951ZM131.113 208.692C130.586 208.692 130.122 208.559 129.719 208.293C129.316 208.025 129.001 207.647 128.773 207.159C128.546 206.668 128.432 206.088 128.432 205.419C128.432 204.756 128.546 204.181 128.773 203.693C129.001 203.205 129.317 202.828 129.723 202.562C130.129 202.296 130.597 202.163 131.129 202.163C131.54 202.163 131.865 202.232 132.104 202.369C132.345 202.503 132.528 202.657 132.655 202.829C132.783 202.999 132.883 203.139 132.955 203.249H133.037V200.14H134.007V208.561H133.07V207.59H132.955C132.883 207.705 132.782 207.851 132.65 208.026C132.519 208.199 132.331 208.354 132.087 208.491C131.843 208.625 131.518 208.692 131.113 208.692ZM131.244 207.821C131.634 207.821 131.962 207.719 132.231 207.516C132.5 207.311 132.704 207.027 132.844 206.665C132.983 206.301 133.053 205.88 133.053 205.403C133.053 204.932 132.985 204.519 132.848 204.165C132.711 203.809 132.508 203.532 132.239 203.335C131.971 203.135 131.639 203.035 131.244 203.035C130.833 203.035 130.491 203.14 130.216 203.351C129.945 203.56 129.741 203.843 129.604 204.202C129.47 204.559 129.402 204.959 129.402 205.403C129.402 205.853 129.471 206.261 129.608 206.628C129.748 206.993 129.953 207.283 130.225 207.5C130.499 207.714 130.839 207.821 131.244 207.821ZM140.146 204.762V208.561H139.175V202.245H140.113V203.232H140.195C140.343 202.911 140.568 202.654 140.869 202.459C141.171 202.262 141.56 202.163 142.037 202.163C142.465 202.163 142.839 202.251 143.16 202.426C143.48 202.599 143.73 202.862 143.908 203.216C144.086 203.567 144.175 204.011 144.175 204.548V208.561H143.205V204.614C143.205 204.117 143.076 203.731 142.818 203.454C142.561 203.175 142.207 203.035 141.757 203.035C141.448 203.035 141.171 203.102 140.927 203.236C140.686 203.371 140.495 203.567 140.355 203.824C140.216 204.082 140.146 204.394 140.146 204.762ZM148.514 208.692C147.944 208.692 147.443 208.557 147.013 208.285C146.585 208.014 146.251 207.634 146.01 207.146C145.771 206.658 145.652 206.088 145.652 205.436C145.652 204.778 145.771 204.204 146.01 203.713C146.251 203.223 146.585 202.842 147.013 202.57C147.443 202.299 147.944 202.163 148.514 202.163C149.084 202.163 149.583 202.299 150.01 202.57C150.441 202.842 150.775 203.223 151.014 203.713C151.255 204.204 151.375 204.778 151.375 205.436C151.375 206.088 151.255 206.658 151.014 207.146C150.775 207.634 150.441 208.014 150.01 208.285C149.583 208.557 149.084 208.692 148.514 208.692ZM148.514 207.821C148.947 207.821 149.303 207.71 149.583 207.488C149.862 207.266 150.069 206.974 150.204 206.612C150.338 206.25 150.405 205.858 150.405 205.436C150.405 205.014 150.338 204.62 150.204 204.256C150.069 203.891 149.862 203.597 149.583 203.372C149.303 203.147 148.947 203.035 148.514 203.035C148.081 203.035 147.724 203.147 147.445 203.372C147.165 203.597 146.958 203.891 146.824 204.256C146.69 204.62 146.622 205.014 146.622 205.436C146.622 205.858 146.69 206.25 146.824 206.612C146.958 206.974 147.165 207.266 147.445 207.488C147.724 207.71 148.081 207.821 148.514 207.821ZM157.083 204.762V208.561H156.113V202.245H157.05V203.232H157.133C157.281 202.911 157.505 202.654 157.807 202.459C158.108 202.262 158.498 202.163 158.975 202.163C159.402 202.163 159.776 202.251 160.097 202.426C160.418 202.599 160.667 202.862 160.845 203.216C161.023 203.567 161.112 204.011 161.112 204.548V208.561H160.142V204.614C160.142 204.117 160.013 203.731 159.756 203.454C159.498 203.175 159.144 203.035 158.695 203.035C158.385 203.035 158.108 203.102 157.864 203.236C157.623 203.371 157.433 203.567 157.293 203.824C157.153 204.082 157.083 204.394 157.083 204.762ZM165.533 208.692C164.925 208.692 164.4 208.558 163.959 208.289C163.52 208.018 163.182 207.64 162.943 207.155C162.707 206.667 162.59 206.099 162.59 205.452C162.59 204.805 162.707 204.235 162.943 203.742C163.182 203.246 163.513 202.859 163.938 202.583C164.366 202.303 164.865 202.163 165.435 202.163C165.764 202.163 166.088 202.218 166.409 202.328C166.73 202.437 167.022 202.615 167.285 202.862C167.548 203.106 167.758 203.429 167.914 203.832C168.07 204.235 168.148 204.731 168.148 205.321V205.732H163.28V204.893H167.162C167.162 204.537 167.09 204.219 166.948 203.939C166.808 203.66 166.608 203.439 166.348 203.277C166.09 203.116 165.786 203.035 165.435 203.035C165.048 203.035 164.714 203.131 164.432 203.323C164.152 203.512 163.937 203.758 163.786 204.063C163.635 204.367 163.56 204.693 163.56 205.041V205.6C163.56 206.077 163.642 206.482 163.807 206.813C163.974 207.142 164.205 207.393 164.501 207.566C164.797 207.736 165.141 207.821 165.533 207.821C165.788 207.821 166.019 207.785 166.224 207.714C166.432 207.64 166.612 207.53 166.763 207.385C166.914 207.237 167.03 207.053 167.112 206.834L168.05 207.097C167.951 207.415 167.785 207.695 167.552 207.936C167.319 208.174 167.031 208.361 166.689 208.495C166.346 208.626 165.961 208.692 165.533 208.692ZM170.178 202.245L171.691 204.827L173.204 202.245H174.323L172.284 205.403L174.323 208.561H173.204L171.691 206.11L170.178 208.561H169.06L171.067 205.403L169.06 202.245H170.178ZM178.454 202.245V203.068H175.181V202.245H178.454ZM176.135 200.732H177.105V206.752C177.105 207.026 177.145 207.231 177.225 207.368C177.307 207.503 177.411 207.593 177.537 207.64C177.666 207.684 177.802 207.705 177.944 207.705C178.051 207.705 178.139 207.7 178.207 207.689C178.276 207.675 178.331 207.664 178.372 207.656L178.569 208.528C178.503 208.552 178.411 208.577 178.294 208.602C178.176 208.629 178.026 208.643 177.845 208.643C177.571 208.643 177.303 208.584 177.04 208.466C176.779 208.348 176.563 208.169 176.39 207.927C176.22 207.686 176.135 207.382 176.135 207.015V200.732ZM183.301 208.561V200.14H184.272V203.249H184.354C184.425 203.139 184.524 202.999 184.65 202.829C184.779 202.657 184.962 202.503 185.201 202.369C185.442 202.232 185.768 202.163 186.179 202.163C186.711 202.163 187.18 202.296 187.586 202.562C187.991 202.828 188.308 203.205 188.535 203.693C188.763 204.181 188.877 204.756 188.877 205.419C188.877 206.088 188.763 206.668 188.535 207.159C188.308 207.647 187.993 208.025 187.59 208.293C187.187 208.559 186.722 208.692 186.196 208.692C185.79 208.692 185.465 208.625 185.221 208.491C184.978 208.354 184.79 208.199 184.658 208.026C184.527 207.851 184.425 207.705 184.354 207.59H184.239V208.561H183.301ZM184.255 205.403C184.255 205.88 184.325 206.301 184.465 206.665C184.605 207.027 184.809 207.311 185.078 207.516C185.346 207.719 185.675 207.821 186.064 207.821C186.47 207.821 186.809 207.714 187.08 207.5C187.354 207.283 187.56 206.993 187.697 206.628C187.836 206.261 187.906 205.853 187.906 205.403C187.906 204.959 187.838 204.559 187.701 204.202C187.566 203.843 187.362 203.56 187.088 203.351C186.817 203.14 186.475 203.035 186.064 203.035C185.67 203.035 185.338 203.135 185.069 203.335C184.801 203.532 184.598 203.809 184.461 204.165C184.324 204.519 184.255 204.932 184.255 205.403ZM194.341 205.979V202.245H195.311V208.561H194.341V207.492H194.275C194.127 207.812 193.897 208.085 193.584 208.31C193.272 208.532 192.877 208.643 192.4 208.643C192.005 208.643 191.655 208.557 191.348 208.384C191.041 208.208 190.799 207.945 190.624 207.594C190.449 207.241 190.361 206.795 190.361 206.258V202.245H191.331V206.192C191.331 206.653 191.46 207.02 191.718 207.294C191.978 207.568 192.31 207.705 192.713 207.705C192.954 207.705 193.199 207.644 193.449 207.52C193.701 207.397 193.912 207.208 194.082 206.953C194.254 206.698 194.341 206.373 194.341 205.979ZM199.835 202.245V203.068H196.562V202.245H199.835ZM197.516 200.732H198.486V206.752C198.486 207.026 198.526 207.231 198.606 207.368C198.688 207.503 198.792 207.593 198.918 207.64C199.047 207.684 199.182 207.705 199.325 207.705C199.432 207.705 199.52 207.7 199.588 207.689C199.657 207.675 199.712 207.664 199.753 207.656L199.95 208.528C199.884 208.552 199.792 208.577 199.675 208.602C199.557 208.629 199.407 208.643 199.226 208.643C198.952 208.643 198.684 208.584 198.42 208.466C198.16 208.348 197.944 208.169 197.771 207.927C197.601 207.686 197.516 207.382 197.516 207.015V200.732ZM204.041 202.245V203.068H200.768V202.245H204.041ZM201.722 200.732H202.692V206.752C202.692 207.026 202.732 207.231 202.812 207.368C202.894 207.503 202.998 207.593 203.124 207.64C203.253 207.684 203.389 207.705 203.531 207.705C203.638 207.705 203.726 207.7 203.794 207.689C203.863 207.675 203.918 207.664 203.959 207.656L204.156 208.528C204.09 208.552 203.998 208.577 203.881 208.602C203.763 208.629 203.613 208.643 203.432 208.643C203.158 208.643 202.89 208.584 202.627 208.466C202.366 208.348 202.15 208.169 201.977 207.927C201.807 207.686 201.722 207.382 201.722 207.015V200.732ZM207.998 208.692C207.428 208.692 206.928 208.557 206.498 208.285C206.07 208.014 205.736 207.634 205.494 207.146C205.256 206.658 205.137 206.088 205.137 205.436C205.137 204.778 205.256 204.204 205.494 203.713C205.736 203.223 206.07 202.842 206.498 202.57C206.928 202.299 207.428 202.163 207.998 202.163C208.568 202.163 209.067 202.299 209.495 202.57C209.925 202.842 210.26 203.223 210.498 203.713C210.739 204.204 210.86 204.778 210.86 205.436C210.86 206.088 210.739 206.658 210.498 207.146C210.26 207.634 209.925 208.014 209.495 208.285C209.067 208.557 208.568 208.692 207.998 208.692ZM207.998 207.821C208.431 207.821 208.788 207.71 209.067 207.488C209.347 207.266 209.554 206.974 209.688 206.612C209.822 206.25 209.89 205.858 209.89 205.436C209.89 205.014 209.822 204.62 209.688 204.256C209.554 203.891 209.347 203.597 209.067 203.372C208.788 203.147 208.431 203.035 207.998 203.035C207.565 203.035 207.209 203.147 206.929 203.372C206.65 203.597 206.443 203.891 206.308 204.256C206.174 204.62 206.107 205.014 206.107 205.436C206.107 205.858 206.174 206.25 206.308 206.612C206.443 206.974 206.65 207.266 206.929 207.488C207.209 207.71 207.565 207.821 207.998 207.821ZM213.311 204.762V208.561H212.341V202.245H213.279V203.232H213.361C213.509 202.911 213.734 202.654 214.035 202.459C214.337 202.262 214.726 202.163 215.203 202.163C215.63 202.163 216.004 202.251 216.325 202.426C216.646 202.599 216.895 202.862 217.073 203.216C217.252 203.567 217.341 204.011 217.341 204.548V208.561H216.37V204.614C216.37 204.117 216.242 203.731 215.984 203.454C215.726 203.175 215.373 203.035 214.923 203.035C214.613 203.035 214.337 203.102 214.093 203.236C213.851 203.371 213.661 203.567 213.521 203.824C213.381 204.082 213.311 204.394 213.311 204.762Z" fill="black"/>
<path d="M269.359 202.907L272.667 206.215L275.975 202.907" stroke="#A3A3A3" stroke-width="1.65401" stroke-linecap="round" stroke-linejoin="round"/>
<rect x="57.5698" y="189.358" width="234.529" height="30.4051" rx="2.89452" stroke="#D9D8D9" stroke-width="0.827004"/>
<path d="M313.379 208.561V200.14H318.461V201.045H314.399V203.89H318.198V204.795H314.399V207.656H318.527V208.561H313.379ZM320.167 208.561V202.245H321.105V203.232H321.187C321.318 202.895 321.531 202.633 321.824 202.447C322.117 202.258 322.47 202.163 322.881 202.163C323.297 202.163 323.644 202.258 323.921 202.447C324.201 202.633 324.418 202.895 324.575 203.232H324.641C324.802 202.906 325.045 202.647 325.368 202.455C325.692 202.26 326.08 202.163 326.532 202.163C327.096 202.163 327.558 202.34 327.917 202.694C328.276 203.044 328.456 203.591 328.456 204.334V208.561H327.486V204.334C327.486 203.868 327.358 203.535 327.103 203.335C326.848 203.135 326.548 203.035 326.203 203.035C325.759 203.035 325.415 203.169 325.171 203.438C324.927 203.704 324.805 204.041 324.805 204.449V208.561H323.818V204.235C323.818 203.876 323.702 203.587 323.469 203.368C323.236 203.146 322.936 203.035 322.568 203.035C322.316 203.035 322.08 203.102 321.861 203.236C321.645 203.371 321.469 203.557 321.335 203.795C321.203 204.031 321.137 204.304 321.137 204.614V208.561H320.167ZM332.089 208.709C331.688 208.709 331.325 208.633 330.999 208.483C330.673 208.329 330.414 208.108 330.222 207.821C330.03 207.53 329.934 207.179 329.934 206.768C329.934 206.406 330.005 206.113 330.148 205.888C330.29 205.661 330.481 205.483 330.719 205.354C330.958 205.225 331.221 205.129 331.509 205.066C331.799 205 332.091 204.948 332.385 204.91C332.768 204.86 333.079 204.823 333.318 204.799C333.559 204.771 333.735 204.726 333.844 204.663C333.957 204.6 334.013 204.49 334.013 204.334V204.301C334.013 203.895 333.902 203.58 333.68 203.355C333.46 203.131 333.127 203.018 332.681 203.018C332.217 203.018 331.854 203.12 331.591 203.323C331.328 203.525 331.143 203.742 331.036 203.972L330.115 203.643C330.279 203.26 330.499 202.961 330.773 202.747C331.05 202.53 331.351 202.38 331.677 202.295C332.006 202.207 332.33 202.163 332.648 202.163C332.851 202.163 333.084 202.188 333.347 202.237C333.613 202.284 333.869 202.381 334.116 202.529C334.365 202.677 334.572 202.9 334.736 203.199C334.901 203.498 334.983 203.898 334.983 204.4V208.561H334.013V207.705H333.963C333.898 207.843 333.788 207.989 333.634 208.145C333.481 208.302 333.277 208.435 333.022 208.544C332.767 208.654 332.456 208.709 332.089 208.709ZM332.237 207.837C332.62 207.837 332.944 207.762 333.207 207.611C333.473 207.46 333.673 207.266 333.807 207.027C333.944 206.789 334.013 206.538 334.013 206.275V205.387C333.972 205.436 333.881 205.481 333.741 205.522C333.604 205.561 333.445 205.595 333.264 205.625C333.086 205.652 332.912 205.677 332.742 205.699C332.575 205.718 332.439 205.735 332.335 205.748C332.083 205.781 331.847 205.835 331.628 205.909C331.412 205.98 331.236 206.088 331.102 206.234C330.97 206.376 330.904 206.571 330.904 206.817C330.904 207.155 331.029 207.409 331.279 207.582C331.531 207.752 331.85 207.837 332.237 207.837ZM336.754 208.561V202.245H337.724V208.561H336.754ZM337.247 201.193C337.058 201.193 336.895 201.128 336.758 201C336.624 200.871 336.557 200.716 336.557 200.535C336.557 200.354 336.624 200.199 336.758 200.07C336.895 199.942 337.058 199.877 337.247 199.877C337.437 199.877 337.598 199.942 337.733 200.07C337.87 200.199 337.938 200.354 337.938 200.535C337.938 200.716 337.87 200.871 337.733 201C337.598 201.128 337.437 201.193 337.247 201.193ZM340.472 200.14V208.561H339.502V200.14H340.472Z" fill="black"/>
<path d="M414.898 202.907L418.206 206.215L421.514 202.907" stroke="#A3A3A3" stroke-width="1.65401" stroke-linecap="round" stroke-linejoin="round"/>
<rect x="299.539" y="189.358" width="138.11" height="30.4051" rx="2.89452" stroke="#D9D8D9" stroke-width="0.827004"/>
</g>
</g>
</g>
<defs>
<filter id="filter0_dd_1127_3620" x="35.8654" y="60.756" width="423.488" height="184.738" filterUnits="userSpaceOnUse" color-interpolation-filters="sRGB">
<feFlood flood-opacity="0" result="BackgroundImageFix"/>
<feColorMatrix in="SourceAlpha" type="matrix" values="0 0 0 0 0 0 0 0 0 0 0 0 0 0 0 0 0 0 127 0" result="hardAlpha"/>
<feOffset dy="4.02826"/>
<feGaussianBlur stdDeviation="4.02826"/>
<feComposite in2="hardAlpha" operator="out"/>
<feColorMatrix type="matrix" values="0 0 0 0 0 0 0 0 0 0 0 0 0 0 0 0 0 0 0.05 0"/>
<feBlend mode="normal" in2="BackgroundImageFix" result="effect1_dropShadow_1127_3620"/>
<feColorMatrix in="SourceAlpha" type="matrix" values="0 0 0 0 0 0 0 0 0 0 0 0 0 0 0 0 0 0 127 0" result="hardAlpha"/>
<feOffset dy="2.01413"/>
<feGaussianBlur stdDeviation="2.01413"/>
<feComposite in2="hardAlpha" operator="out"/>
<feColorMatrix type="matrix" values="0 0 0 0 0 0 0 0 0 0 0 0 0 0 0 0 0 0 0.07 0"/>
<feBlend mode="normal" in2="effect1_dropShadow_1127_3620" result="effect2_dropShadow_1127_3620"/>
<feBlend mode="normal" in="SourceGraphic" in2="effect2_dropShadow_1127_3620" result="shape"/>
</filter>
<clipPath id="clip0_1127_3620">
<rect width="451.294" height="280" fill="white"/>
</clipPath>
</defs>
</svg>
