<svg width="24" height="25" viewBox="0 0 24 25" fill="none" xmlns="http://www.w3.org/2000/svg">
<g id="stars-02">
<path id="Icon" d="M4.5 22.8398V17.8398M4.5 7.83984V2.83984M2 5.33984H7M2 20.3398H7M13 3.83984L11.2658 8.34871C10.9838 9.08194 10.8428 9.44855 10.6235 9.75693C10.4292 10.0302 10.1904 10.269 9.91709 10.4634C9.60871 10.6826 9.24209 10.8237 8.50886 11.1057L4 12.8398L8.50886 14.574C9.24209 14.856 9.60871 14.997 9.91709 15.2163C10.1904 15.4107 10.4292 15.6494 10.6235 15.9228C10.8428 16.2311 10.9838 16.5978 11.2658 17.331L13 21.8398L14.7342 17.331C15.0162 16.5978 15.1572 16.2311 15.3765 15.9228C15.5708 15.6494 15.8096 15.4107 16.0829 15.2163C16.3913 14.997 16.7579 14.856 17.4911 14.574L22 12.8398L17.4911 11.1057C16.7579 10.8237 16.3913 10.6826 16.0829 10.4634C15.8096 10.269 15.5708 10.0302 15.3765 9.75693C15.1572 9.44855 15.0162 9.08194 14.7342 8.3487L13 3.83984Z" stroke="#5B2FBD" stroke-width="2" stroke-linecap="round" stroke-linejoin="round"/>
</g>
</svg>
