<svg width="64" height="64" xmlns="http://www.w3.org/2000/svg">

 <g>
  <title>background</title>
  <rect fill="none" id="canvas_background" height="402" width="582" y="-1" x="-1"/>
 </g>
 <g>
  <title>Layer 1</title>
  <rect id="svg_2" y="8.5" x="1" width="62" height="47" fill="#E1E6E9"/>
  <path id="svg_3" fill="#193651" d="m64,56.5l-64,0l0,-49l64,0l0,49zm-62,-2l60,0l0,-45l-60,0l0,45z"/>
  <path id="svg_4" fill="#FFFFFF" d="m32,50.8l-25,-4l0,-46l25,4.1l0,45.9c0.1,0 0,0 0,0z"/>
  <path id="svg_5" fill="#193651" d="m32,51.8l-0.2,0l-25.8,-4.2l0,-48l27,4.4l0,46.7c0.1,0.6 -0.4,1.1 -1,1.1zm-24,-5.9l23,3.7l0,-43.9l-23,-3.7l0,43.9z"/>
  <path id="svg_6" fill="#FFFFFF" d="m32.2,50.8l24.9,-4l0,-46l-25,4.1l0,45.9c0,0 0,0 0.1,0z"/>
  <path id="svg_7" fill="#193651" d="m32.2,51.8c-0.6,0 -1.1,-0.5 -1.1,-1.1l0,-46.7l27,-4.4l0,48l-25.9,4.2zm0.9,-46.1l0,43.9l23,-3.7l0,-43.9l-23,3.7z"/>
  <line id="svg_8" y2="11.2" y1="9.9" x2="43.3" x1="51.6" fill="#FFFFFF"/>
  <rect id="svg_9" y="6.4" x="46.4" width="2" transform="matrix(0.1562,0.9877,-0.9877,0.1562,50.4932,-37.926) " height="8.4" fill="#193651"/>
  <line id="svg_10" y2="21.4" y1="20.1" x2="43.3" x1="51.6" fill="#FFFFFF"/>
  <rect id="svg_11" y="16.5" x="46.4" width="2" transform="matrix(0.1562,0.9877,-0.9877,0.1562,60.5108,-29.3687) " height="8.4" fill="#193651"/>
  <line id="svg_12" y2="31.5" y1="30.2" x2="43.3" x1="51.6" fill="#FFFFFF"/>
  <rect id="svg_13" y="26.7" x="46.4" width="2" transform="matrix(0.1562,0.9877,-0.9877,0.1562,70.5282,-20.8113) " height="8.4" fill="#193651"/>
  <line id="svg_14" y2="41.7" y1="40.4" x2="43.3" x1="51.6" fill="#FFFFFF"/>
  <rect id="svg_15" y="36.8" x="46.4" width="2" transform="matrix(0.1562,0.9877,-0.9877,0.1562,80.5455,-12.2539) " height="8.4" fill="#193651"/>
  <line id="svg_16" y2="11.2" y1="9.9" x2="20.9" x1="12.6" fill="#FFFFFF"/>
  <rect id="svg_17" y="9.6" x="12.6" width="8.4" transform="matrix(0.9878,0.1559,-0.1559,0.9878,1.8555,-2.4804) " height="2" fill="#193651"/>
  <line id="svg_18" y2="21.4" y1="20.1" x2="20.9" x1="12.6" fill="#FFFFFF"/>
  <rect id="svg_19" y="19.7" x="12.6" width="8.4" transform="matrix(0.9878,0.1559,-0.1559,0.9878,3.4371,-2.3569) " height="2" fill="#193651"/>
  <line id="svg_20" y2="31.5" y1="30.2" x2="20.9" x1="12.6" fill="#FFFFFF"/>
  <rect id="svg_21" y="29.9" x="12.6" width="8.4" transform="matrix(0.9878,0.1559,-0.1559,0.9878,5.0171,-2.2325) " height="2" fill="#193651"/>
  <line id="svg_22" y2="41.7" y1="40.4" x2="20.9" x1="12.6" fill="#FFFFFF"/>
  <rect id="svg_23" y="40" x="12.6" width="8.4" transform="matrix(0.9878,0.1559,-0.1559,0.9878,6.5984,-2.1086) " height="2" fill="#193651"/>
  <path id="svg_24" fill="#FFFFFF" d="m37.9,23l0,-5.8c0,-1.1 -0.9,-2 -2,-2l-7.8,0c-1.1,0 -2,0.9 -2,2l0,5.8l11.8,0z"/>
  <path id="svg_25" fill="#193651" d="m38.9,24l-13.8,0l0,-6.8c0,-1.7 1.3,-3 3,-3l7.8,0c1.7,0 3,1.3 3,3l0,6.8zm-11.8,-2l9.8,0l0,-4.8c0,-0.6 -0.4,-1 -1,-1l-7.8,0c-0.6,0 -1,0.4 -1,1l0,4.8z"/>
  <polygon id="svg_26" points="26.1,23 26.1,55.5 32,62.8 32,23  " fill="#FDBF5E"/>
  <polygon id="svg_27" points="32,23 32,62.8 37.9,55.5 37.9,23  " fill="#FDBF5E"/>
  <path id="svg_28" fill="#193651" d="m32,64.4l-6.9,-8.5l0,-33.9l13.8,0l0,33.8l-6.9,8.6zm-4.9,-9.2l4.9,6l4.9,-6l0,-31.2l-9.8,0l0,31.2z"/>
  <line id="svg_29" y2="32.5" y1="32.5" x2="31" x1="33" fill="#FFFFFF"/>
  <rect id="svg_30" y="31.5" x="31" width="2" height="2" fill="#193651"/>
  <line id="svg_31" y2="40.1" y1="40.1" x2="31" x1="33" fill="#FFFFFF"/>
  <rect id="svg_32" y="39.1" x="31" width="2" height="2" fill="#193651"/>
  <line id="svg_33" y2="47.7" y1="47.7" x2="31" x1="33" fill="#FFFFFF"/>
  <rect id="svg_34" y="46.7" x="31" width="2" height="2" fill="#193651"/>
  <rect id="svg_35" y="8.5" x="1" width="62" height="47" fill="#E1E6E9"/>
  <path id="svg_36" fill="#FFFFFF" d="m32,50.8l-25,-4l0,-46l25,4.1l0,45.9c0.1,0 0,0 0,0z"/>
  <path id="svg_37" fill="#FFFFFF" d="m32.2,50.8l24.9,-4l0,-46l-25,4.1l0,45.9c0,0 0,0 0.1,0z"/>
  <line id="svg_38" y2="11.2" y1="9.9" x2="43.3" x1="51.6" fill="#FFFFFF"/>
  <rect id="svg_39" y="6.4" x="46.4" width="2" transform="matrix(0.1562,0.9877,-0.9877,0.1562,50.4932,-37.926) " height="8.4" fill="#193651"/>
  <line id="svg_40" y2="21.4" y1="20.1" x2="43.3" x1="51.6" fill="#FFFFFF"/>
  <rect id="svg_41" y="16.5" x="46.4" width="2" transform="matrix(0.1562,0.9877,-0.9877,0.1562,60.5108,-29.3687) " height="8.4" fill="#193651"/>
  <line id="svg_42" y2="31.5" y1="30.2" x2="43.3" x1="51.6" fill="#FFFFFF"/>
  <rect id="svg_43" y="26.7" x="46.4" width="2" transform="matrix(0.1562,0.9877,-0.9877,0.1562,70.5282,-20.8113) " height="8.4" fill="#193651"/>
  <line id="svg_44" y2="41.7" y1="40.4" x2="43.3" x1="51.6" fill="#FFFFFF"/>
  <rect id="svg_45" y="36.8" x="46.4" width="2" transform="matrix(0.1562,0.9877,-0.9877,0.1562,80.5455,-12.2539) " height="8.4" fill="#193651"/>
  <line id="svg_46" y2="11.2" y1="9.9" x2="20.9" x1="12.6" fill="#FFFFFF"/>
  <rect id="svg_47" y="9.6" x="12.6" width="8.4" transform="matrix(0.9878,0.1559,-0.1559,0.9878,1.8555,-2.4804) " height="2" fill="#193651"/>
  <line id="svg_48" y2="21.4" y1="20.1" x2="20.9" x1="12.6" fill="#FFFFFF"/>
  <rect id="svg_49" y="19.7" x="12.6" width="8.4" transform="matrix(0.9878,0.1559,-0.1559,0.9878,3.4371,-2.3569) " height="2" fill="#193651"/>
  <line id="svg_50" y2="31.5" y1="30.2" x2="20.9" x1="12.6" fill="#FFFFFF"/>
  <rect id="svg_51" y="29.9" x="12.6" width="8.4" transform="matrix(0.9878,0.1559,-0.1559,0.9878,5.0171,-2.2325) " height="2" fill="#193651"/>
  <line id="svg_52" y2="41.7" y1="40.4" x2="20.9" x1="12.6" fill="#FFFFFF"/>
  <rect id="svg_53" y="40" x="12.6" width="8.4" transform="matrix(0.9878,0.1559,-0.1559,0.9878,6.5984,-2.1086) " height="2" fill="#193651"/>
  <path id="svg_54" fill="#FFFFFF" d="m37.9,23l0,-5.8c0,-1.1 -0.9,-2 -2,-2l-7.8,0c-1.1,0 -2,0.9 -2,2l0,5.8l11.8,0z"/>
  <polygon id="svg_55" points="26.1,23 26.1,55.5 32,62.8 32,23  " fill="#6d5cae"/>
  <polygon id="svg_56" points="32,23 32,62.8 37.9,55.5 37.9,23  " fill="#6d5cae"/>
  <path id="svg_57" fill="#193651" d="m58.1,7.5l0,-7.9l-26,4.2l-26.1,-4.2l0,7.9l-6,0l0,49l25.6,0l6.4,7.8l6.4,-7.8l25.6,0l0,-49l-5.9,0zm-33,47l-23.1,0l0,-45l4,0l0,38.1l19.1,3.1l0,3.8zm0,-37.3l0,31.5l-17.1,-2.8l0,-43.9l23,3.7l0,8.5l-3,0c-1.6,0 -2.9,1.4 -2.9,3zm11.8,38l-4.9,6l-4.9,-6l0,-31.2l9.8,0l0,31.2zm0,-33.2l-9.8,0l0,-4.8c0,-0.6 0.4,-1 1,-1l7.8,0c0.6,0 1,0.4 1,1l0,4.8zm-1,-7.8l-2.8,0l0,-8.5l23,-3.7l0,43.9l-17.2,2.8l0,-31.5c0,-1.6 -1.3,-3 -3,-3zm26.1,40.3l-23.1,0l0,-3.8l19.2,-3.1l0,-38.1l3.9,0l0,45z"/>
  <line id="svg_58" y2="32.5" y1="32.5" x2="31" x1="33" fill="#FFFFFF"/>
  <rect id="svg_59" y="31.5" x="31" width="2" height="2" fill="#193651"/>
  <line id="svg_60" y2="40.1" y1="40.1" x2="31" x1="33" fill="#FFFFFF"/>
  <rect id="svg_61" y="39.1" x="31" width="2" height="2" fill="#193651"/>
  <line id="svg_62" y2="47.7" y1="47.7" x2="31" x1="33" fill="#FFFFFF"/>
  <rect id="svg_63" y="46.7" x="31" width="2" height="2" fill="#193651"/>
 </g>
</svg>