<?xml version="1.0" ?><!DOCTYPE svg  PUBLIC '-//W3C//DTD SVG 1.1//EN'  'http://www.w3.org/Graphics/SVG/1.1/DTD/svg11.dtd'><svg enable-background="new 0 0 64 64" id="Layer_1" version="1.1" viewBox="0 0 64 64" xml:space="preserve" xmlns="http://www.w3.org/2000/svg" xmlns:xlink="http://www.w3.org/1999/xlink"><g><rect fill="#4FBF9F" height="30.1" width="10.6" x="47.2" y="32.9"/><path d="M58.8,64H46.2V31.9h12.6V64z M48.2,62h8.6V33.9h-8.6V62z" fill="#193651"/><rect fill="#FDBF5E" height="55.6" width="10.6" x="26.7" y="7.4"/><path d="M38.3,64H25.7V6.4h12.6V64z M27.7,62h8.6V8.4h-8.6V62z" fill="#193651"/><rect fill="#D3D7DA" height="15.5" width="10.6" x="6.2" y="47.5"/><path d="M17.8,64H5.2V46.5h12.6V64z M7.2,62h8.6V48.5H7.2V62z" fill="#193651"/><line fill="#FFFFFF" x1="33" x2="31" y1="36" y2="36"/><rect fill="#193651" height="2" width="2" x="31" y="35"/><line fill="#FFFFFF" x1="33" x2="31" y1="44.7" y2="44.7"/><rect fill="#193651" height="2" width="2" x="31" y="43.7"/><line fill="#FFFFFF" x1="33" x2="31" y1="53.4" y2="53.4"/><rect fill="#193651" height="2" width="2" x="31" y="52.4"/><path d="M32,1L32,1c-5.8,0-10.5,4.7-10.5,10.5l0,0C21.5,17.3,26.2,22,32,22l0,0c5.8,0,10.5-4.7,10.5-10.5l0,0   C42.5,5.7,37.8,1,32,1z" fill="#FFFFFF"/><path d="M32,23c-6.4,0-11.5-5.2-11.5-11.5C20.5,5.2,25.6,0,32,0s11.5,5.2,11.5,11.5C43.5,17.9,38.4,23,32,23z M32,2   c-5.3,0-9.5,4.3-9.5,9.5S26.8,21,32,21s9.5-4.3,9.5-9.5S37.3,2,32,2z" fill="#193651"/><path d="M32,17.6c-1.9,0-3.5-1.6-3.5-3.5h2c0,0.8,0.7,1.5,1.5,1.5c0.8,0,1.5-0.7,1.5-1.5c0-0.8-0.7-1.5-1.5-1.5   c-1.9,0-3.5-1.6-3.5-3.5c0-1.9,1.6-3.5,3.5-3.5s3.5,1.6,3.5,3.5h-2c0-0.8-0.7-1.5-1.5-1.5c-0.8,0-1.5,0.7-1.5,1.5   c0,0.8,0.7,1.5,1.5,1.5c1.9,0,3.5,1.6,3.5,3.5C35.5,16,33.9,17.6,32,17.6z" fill="#193651"/><rect fill="#193651" height="1.3" width="2" x="31" y="4.8"/><rect fill="#193651" height="1.3" width="2" x="31" y="16.9"/><path d="M52.5,23.3L52.5,23.3c-5.8,0-10.5,4.7-10.5,10.5l0,0c0,5.8,4.7,10.5,10.5,10.5l0,0   c5.8,0,10.5-4.7,10.5-10.5l0,0C63,28.1,58.3,23.3,52.5,23.3z" fill="#FFFFFF"/><path d="M52.5,45.4c-6.4,0-11.5-5.2-11.5-11.5c0-6.4,5.2-11.5,11.5-11.5S64,27.5,64,33.9   C64,40.2,58.8,45.4,52.5,45.4z M52.5,24.3c-5.3,0-9.5,4.3-9.5,9.5c0,5.2,4.3,9.5,9.5,9.5s9.5-4.3,9.5-9.5   C62,28.6,57.7,24.3,52.5,24.3z" fill="#193651"/><path d="M52.5,39.9c-1.9,0-3.5-1.6-3.5-3.5h2c0,0.8,0.7,1.5,1.5,1.5c0.8,0,1.5-0.7,1.5-1.5c0-0.8-0.7-1.5-1.5-1.5   c-1.9,0-3.5-1.6-3.5-3.5c0-1.9,1.6-3.5,3.5-3.5s3.5,1.6,3.5,3.5h-2c0-0.8-0.7-1.5-1.5-1.5c-0.8,0-1.5,0.7-1.5,1.5   c0,0.8,0.7,1.5,1.5,1.5c1.9,0,3.5,1.6,3.5,3.5C56,38.4,54.4,39.9,52.5,39.9z" fill="#193651"/><rect fill="#193651" height="1.3" width="2" x="51.5" y="27.1"/><rect fill="#193651" height="1.3" width="2" x="51.5" y="39.3"/><path d="M11.5,29.8L11.5,29.8C5.7,29.8,1,34.5,1,40.3l0,0c0,5.8,4.7,10.5,10.5,10.5h0c5.8,0,10.5-4.7,10.5-10.5l0,0   C22,34.5,17.3,29.8,11.5,29.8z" fill="#FFFFFF"/><path d="M11.5,51.8C5.2,51.8,0,46.6,0,40.3c0-6.4,5.2-11.5,11.5-11.5S23,33.9,23,40.3C23,46.6,17.9,51.8,11.5,51.8z    M11.5,30.8C6.3,30.8,2,35,2,40.3s4.3,9.5,9.5,9.5s9.5-4.3,9.5-9.5S16.8,30.8,11.5,30.8z" fill="#193651"/><path d="M11.5,46.4c-1.9,0-3.5-1.6-3.5-3.5h2c0,0.8,0.7,1.5,1.5,1.5c0.8,0,1.5-0.7,1.5-1.5c0-0.8-0.7-1.5-1.5-1.5   c-1.9,0-3.5-1.6-3.5-3.5c0-1.9,1.6-3.5,3.5-3.5s3.5,1.6,3.5,3.5h-2c0-0.8-0.7-1.5-1.5-1.5c-0.8,0-1.5,0.7-1.5,1.5   c0,0.8,0.7,1.5,1.5,1.5c1.9,0,3.5,1.6,3.5,3.5C15,44.8,13.5,46.4,11.5,46.4z" fill="#193651"/><rect fill="#193651" height="1.3" width="2" x="10.5" y="33.6"/><rect fill="#193651" height="1.3" width="2" x="10.5" y="45.7"/><rect fill="#4FBF9F" height="30.1" width="10.6" x="47.2" y="32.9"/><rect fill="#FDBF5E" height="55.6" width="10.6" x="26.7" y="7.4"/><rect fill="#D3D7DA" height="15.5" width="10.6" x="6.2" y="47.5"/><line fill="#FFFFFF" x1="33" x2="31" y1="36" y2="36"/><rect fill="#193651" height="2" width="2" x="31" y="35"/><line fill="#FFFFFF" x1="33" x2="31" y1="44.7" y2="44.7"/><rect fill="#193651" height="2" width="2" x="31" y="43.7"/><line fill="#FFFFFF" x1="33" x2="31" y1="53.4" y2="53.4"/><rect fill="#193651" height="2" width="2" x="31" y="52.4"/><path d="M32,1L32,1c-5.8,0-10.5,4.7-10.5,10.5l0,0C21.5,17.3,26.2,22,32,22l0,0c5.8,0,10.5-4.7,10.5-10.5l0,0   C42.5,5.7,37.8,1,32,1z" fill="#FFFFFF"/><path d="M43.5,11.5C43.5,5.2,38.4,0,32,0S20.5,5.2,20.5,11.5c0,4,2.1,7.6,5.2,9.6V64h12.6V21.1   C41.4,19.1,43.5,15.5,43.5,11.5z M36.3,62h-8.6V22.2C29,22.7,30.5,23,32,23c1.5,0,3-0.3,4.3-0.8V62z M32,21c-5.3,0-9.5-4.3-9.5-9.5   C22.5,6.3,26.8,2,32,2s9.5,4.3,9.5,9.5C41.5,16.8,37.3,21,32,21z" fill="#193651"/><path d="M32,17.6c-1.9,0-3.5-1.6-3.5-3.5h2c0,0.8,0.7,1.5,1.5,1.5c0.8,0,1.5-0.7,1.5-1.5c0-0.8-0.7-1.5-1.5-1.5   c-1.9,0-3.5-1.6-3.5-3.5c0-1.9,1.6-3.5,3.5-3.5s3.5,1.6,3.5,3.5h-2c0-0.8-0.7-1.5-1.5-1.5c-0.8,0-1.5,0.7-1.5,1.5   c0,0.8,0.7,1.5,1.5,1.5c1.9,0,3.5,1.6,3.5,3.5C35.5,16,33.9,17.6,32,17.6z" fill="#193651"/><rect fill="#193651" height="1.3" width="2" x="31" y="4.8"/><rect fill="#193651" height="1.3" width="2" x="31" y="16.9"/><path d="M52.5,23.3L52.5,23.3c-5.8,0-10.5,4.7-10.5,10.5l0,0c0,5.8,4.7,10.5,10.5,10.5l0,0   c5.8,0,10.5-4.7,10.5-10.5l0,0C63,28.1,58.3,23.3,52.5,23.3z" fill="#FFFFFF"/><path d="M64,33.9c0-6.4-5.2-11.5-11.5-11.5S41,27.5,41,33.9c0,4,2.1,7.6,5.2,9.6V64h12.6V43.5   C61.9,41.4,64,37.9,64,33.9z M56.8,62h-8.6V44.5c1.3,0.5,2.8,0.8,4.3,0.8s3-0.3,4.3-0.8V62z M52.5,43.4c-5.3,0-9.5-4.3-9.5-9.5   c0-5.3,4.3-9.5,9.5-9.5s9.5,4.3,9.5,9.5C62,39.1,57.7,43.4,52.5,43.4z" fill="#193651"/><path d="M52.5,39.9c-1.9,0-3.5-1.6-3.5-3.5h2c0,0.8,0.7,1.5,1.5,1.5c0.8,0,1.5-0.7,1.5-1.5c0-0.8-0.7-1.5-1.5-1.5   c-1.9,0-3.5-1.6-3.5-3.5c0-1.9,1.6-3.5,3.5-3.5s3.5,1.6,3.5,3.5h-2c0-0.8-0.7-1.5-1.5-1.5c-0.8,0-1.5,0.7-1.5,1.5   c0,0.8,0.7,1.5,1.5,1.5c1.9,0,3.5,1.6,3.5,3.5C56,38.4,54.4,39.9,52.5,39.9z" fill="#193651"/><rect fill="#193651" height="1.3" width="2" x="51.5" y="27.1"/><rect fill="#193651" height="1.3" width="2" x="51.5" y="39.3"/><path d="M11.5,29.8L11.5,29.8C5.7,29.8,1,34.5,1,40.3l0,0c0,5.8,4.7,10.5,10.5,10.5h0c5.8,0,10.5-4.7,10.5-10.5l0,0   C22,34.5,17.3,29.8,11.5,29.8z" fill="#FFFFFF"/><path d="M23,40.3c0-6.4-5.2-11.5-11.5-11.5S0,33.9,0,40.3c0,4,2.1,7.6,5.2,9.6V64h12.6V49.9   C21,47.9,23,44.3,23,40.3z M15.8,62H7.2V51c1.3,0.5,2.8,0.8,4.3,0.8s3-0.3,4.3-0.8V62z M11.5,49.8c-5.2,0-9.5-4.3-9.5-9.5   c0-5.3,4.3-9.5,9.5-9.5S21,35,21,40.3C21,45.5,16.8,49.8,11.5,49.8z" fill="#193651"/><path d="M11.5,46.4c-1.9,0-3.5-1.6-3.5-3.5h2c0,0.8,0.7,1.5,1.5,1.5c0.8,0,1.5-0.7,1.5-1.5c0-0.8-0.7-1.5-1.5-1.5   c-1.9,0-3.5-1.6-3.5-3.5c0-1.9,1.6-3.5,3.5-3.5s3.5,1.6,3.5,3.5h-2c0-0.8-0.7-1.5-1.5-1.5c-0.8,0-1.5,0.7-1.5,1.5   c0,0.8,0.7,1.5,1.5,1.5c1.9,0,3.5,1.6,3.5,3.5C15,44.8,13.5,46.4,11.5,46.4z" fill="#193651"/><rect fill="#193651" height="1.3" width="2" x="10.5" y="33.6"/><rect fill="#193651" height="1.3" width="2" x="10.5" y="45.7"/></g></svg>