<?xml version="1.0" ?><!DOCTYPE svg  PUBLIC '-//W3C//DTD SVG 1.1//EN'  'http://www.w3.org/Graphics/SVG/1.1/DTD/svg11.dtd'><svg enable-background="new 0 0 64 64" id="Layer_1" version="1.1" viewBox="0 0 64 64" xml:space="preserve" xmlns="http://www.w3.org/2000/svg" xmlns:xlink="http://www.w3.org/1999/xlink"><g><rect fill="#FFFFFF" height="62" width="50" x="1" y="1"/><path d="M52,64H0V0h52V64z M2,62h48V2H2V62z" fill="#193651"/><rect fill="#FDBF5E" height="54" width="42" x="5" y="5"/><line fill="#FFFFFF" x1="31.5" x2="9" y1="55" y2="55"/><rect fill="#193651" height="2" width="22.5" x="9" y="54"/><line fill="#FFFFFF" x1="31.5" x2="9" y1="49.5" y2="49.5"/><rect fill="#193651" height="2" width="22.5" x="9" y="48.5"/><line fill="#FFFFFF" x1="31.5" x2="9" y1="44.1" y2="44.1"/><rect fill="#193651" height="2" width="22.5" x="9" y="43.1"/><circle cx="26" cy="23.9" fill="#FFFFFF" r="14.5"/><path d="M26,39.4c-8.6,0-15.5-7-15.5-15.5S17.4,8.4,26,8.4s15.5,7,15.5,15.5S34.6,39.4,26,39.4z M26,10.4   c-7.5,0-13.5,6.1-13.5,13.5S18.5,37.4,26,37.4c7.5,0,13.5-6.1,13.5-13.5S33.5,10.4,26,10.4z" fill="#193651"/><line fill="#FFFFFF" x1="26" x2="26" y1="9.4" y2="11.4"/><rect fill="#193651" height="2" width="2" x="25" y="9.4"/><line fill="#FFFFFF" x1="26" x2="26" y1="36.4" y2="38.4"/><rect fill="#193651" height="2" width="2" x="25" y="36.4"/><line fill="#FFFFFF" x1="26" x2="26" y1="9.4" y2="12.4"/><rect fill="#193651" height="3" width="2" x="25" y="9.4"/><line fill="#FFFFFF" x1="26" x2="26" y1="35.4" y2="38.4"/><rect fill="#193651" height="3" width="2" x="25" y="35.4"/><line fill="#FFFFFF" x1="40.5" x2="37.5" y1="23.9" y2="23.9"/><rect fill="#193651" height="2" width="3" x="37.5" y="22.9"/><line fill="#FFFFFF" x1="14.5" x2="11.5" y1="23.9" y2="23.9"/><rect fill="#193651" height="2" width="3" x="11.5" y="22.9"/><line fill="#FFFFFF" x1="36.3" x2="34.1" y1="34.2" y2="32"/><rect fill="#193651" height="2" transform="matrix(0.7071 0.7071 -0.7071 0.7071 33.7102 -15.1923)" width="3" x="33.7" y="32.1"/><line fill="#FFFFFF" x1="17.9" x2="15.7" y1="15.8" y2="13.6"/><rect fill="#193651" height="2" transform="matrix(0.7071 0.7072 -0.7072 0.7071 15.3084 -7.5687)" width="3" x="15.3" y="13.7"/><line fill="#FFFFFF" x1="15.7" x2="17.9" y1="34.2" y2="32"/><rect fill="#193651" height="3" transform="matrix(0.7071 0.7071 -0.7071 0.7071 28.3197 -2.1809)" width="2" x="15.8" y="31.6"/><line fill="#FFFFFF" x1="34.1" x2="36.3" y1="15.7" y2="13.6"/><rect fill="#193651" height="3" transform="matrix(0.7071 0.7071 -0.7071 0.7071 20.6955 -20.5866)" width="2" x="34.2" y="13.2"/><polyline fill="#FFFFFF" points="26,15.4 26,23.9 31.5,23.9  "/><polygon fill="#193651" points="31.5,24.9 25,24.9 25,15.4 27,15.4 27,22.9 31.5,22.9  "/><circle cx="52.7" cy="49.4" fill="#FFFFFF" r="10.3"/><path d="M52.7,60.7c-6.2,0-11.3-5.1-11.3-11.3c0-6.2,5.1-11.3,11.3-11.3c6.2,0,11.3,5.1,11.3,11.3   C64,55.6,58.9,60.7,52.7,60.7z M52.7,40.1c-5.1,0-9.3,4.2-9.3,9.3c0,5.1,4.2,9.3,9.3,9.3c5.1,0,9.3-4.2,9.3-9.3   C62,44.3,57.8,40.1,52.7,40.1z" fill="#193651"/><polygon fill="#193651" points="50.8,54.7 46.1,50.1 47.5,48.6 50.8,51.9 57.9,44.8 59.3,46.2  "/><rect fill="#FFFFFF" height="62" width="50" x="1" y="1"/><rect fill="#FDBF5E" height="54" width="42" x="5" y="5"/><line fill="#FFFFFF" x1="31.5" x2="9" y1="55" y2="55"/><rect fill="#193651" height="2" width="22.5" x="9" y="54"/><line fill="#FFFFFF" x1="31.5" x2="9" y1="49.5" y2="49.5"/><rect fill="#193651" height="2" width="22.5" x="9" y="48.5"/><line fill="#FFFFFF" x1="31.5" x2="9" y1="44.1" y2="44.1"/><rect fill="#193651" height="2" width="22.5" x="9" y="43.1"/><circle cx="26" cy="23.9" fill="#FFFFFF" r="14.5"/><line fill="#FFFFFF" x1="26" x2="26" y1="9.4" y2="11.4"/><rect fill="#193651" height="2" width="2" x="25" y="9.4"/><line fill="#FFFFFF" x1="26" x2="26" y1="36.4" y2="38.4"/><rect fill="#193651" height="2" width="2" x="25" y="36.4"/><line fill="#FFFFFF" x1="26" x2="26" y1="9.4" y2="12.4"/><line fill="#FFFFFF" x1="26" x2="26" y1="35.4" y2="38.4"/><line fill="#FFFFFF" x1="40.5" x2="37.5" y1="23.9" y2="23.9"/><line fill="#FFFFFF" x1="14.5" x2="11.5" y1="23.9" y2="23.9"/><line fill="#FFFFFF" x1="36.3" x2="34.1" y1="34.2" y2="32"/><line fill="#FFFFFF" x1="17.9" x2="15.7" y1="15.8" y2="13.6"/><line fill="#FFFFFF" x1="15.7" x2="17.9" y1="34.2" y2="32"/><line fill="#FFFFFF" x1="34.1" x2="36.3" y1="15.7" y2="13.6"/><path d="M26,8.4c-8.6,0-15.5,7-15.5,15.5c0,8.6,7,15.5,15.5,15.5s15.5-7,15.5-15.5C41.5,15.3,34.6,8.4,26,8.4z    M36.2,32.7l-1.4-1.4l-1.4,1.4l1.4,1.4c-2.1,1.8-4.8,3-7.8,3.2v-1.9h-2v1.9c-3-0.2-5.7-1.4-7.8-3.2l1.4-1.4l-1.4-1.4l-1.4,1.4   c-1.8-2.1-3-4.8-3.2-7.8h1.9v-2h-1.9c0.2-3,1.4-5.7,3.2-7.8l1.4,1.4l1.4-1.4l-1.4-1.4c2.1-1.8,4.8-3,7.8-3.2v1.9h2v-1.9   c3,0.2,5.7,1.4,7.8,3.2L33.4,15l1.4,1.4l1.4-1.4c1.8,2.1,3,4.8,3.2,7.8h-2v2h2C39.2,27.9,38.1,30.6,36.2,32.7z" fill="#193651"/><polyline fill="#FFFFFF" points="26,15.4 26,23.9 31.5,23.9  "/><polygon fill="#193651" points="31.5,24.9 25,24.9 25,15.4 27,15.4 27,22.9 31.5,22.9  "/><circle cx="52.7" cy="49.4" fill="#FFFFFF" r="10.3"/><path d="M52,38.1V0H0v64h52v-3.3c0.2,0,11,0.6,12-11.3C63,37.5,52.2,38.1,52,38.1z M50,62H2V2h48v36.4   c-4.9,1.2-8.6,5.7-8.6,11c0,5.3,3.7,9.8,8.6,11V62z M52.7,58.7c-5.1,0-9.3-4.2-9.3-9.3c0-5.1,4.2-9.3,9.3-9.3   c5.1,0,9.3,4.2,9.3,9.3C62,54.5,57.8,58.7,52.7,58.7z" fill="#193651"/><polygon fill="#193651" points="50.8,54.7 46.1,50.1 47.5,48.6 50.8,51.9 57.9,44.8 59.3,46.2  "/></g></svg>