<?xml version="1.0" ?><!DOCTYPE svg  PUBLIC '-//W3C//DTD SVG 1.1//EN'  'http://www.w3.org/Graphics/SVG/1.1/DTD/svg11.dtd'><svg enable-background="new 0 0 64 64" id="Layer_1" version="1.1" viewBox="0 0 64 64" xml:space="preserve" xmlns="http://www.w3.org/2000/svg" xmlns:xlink="http://www.w3.org/1999/xlink"><g><rect fill="#E1E6E9" height="47" width="62" x="1" y="8.5"/><path d="M64,56.5H0v-49h64V56.5z M2,54.5h60v-45H2V54.5z" fill="#193651"/><path d="M32,50.8L7,46.8v-46l25,4.1v45.9C32.1,50.8,32,50.8,32,50.8z" fill="#FFFFFF"/><path d="M32,51.8l-0.2,0L6,47.6v-48l27,4.4v46.7C33.1,51.3,32.6,51.8,32,51.8z M8,45.9l23,3.7V5.7L8,2V45.9z" fill="#193651"/><path d="M32.2,50.8l24.9-4v-46l-25,4.1v45.9C32.1,50.8,32.1,50.8,32.2,50.8z" fill="#FFFFFF"/><path d="M32.2,51.8c-0.6,0-1.1-0.5-1.1-1.1V4l27-4.4v48L32.2,51.8z M33.1,5.7v43.9l23-3.7V2L33.1,5.7z" fill="#193651"/><line fill="#FFFFFF" x1="51.6" x2="43.3" y1="9.9" y2="11.2"/><rect fill="#193651" height="8.4" transform="matrix(0.1562 0.9877 -0.9877 0.1562 50.4932 -37.926)" width="2" x="46.4" y="6.4"/><line fill="#FFFFFF" x1="51.6" x2="43.3" y1="20.1" y2="21.4"/><rect fill="#193651" height="8.4" transform="matrix(0.1562 0.9877 -0.9877 0.1562 60.5108 -29.3687)" width="2" x="46.4" y="16.5"/><line fill="#FFFFFF" x1="51.6" x2="43.3" y1="30.2" y2="31.5"/><rect fill="#193651" height="8.4" transform="matrix(0.1562 0.9877 -0.9877 0.1562 70.5282 -20.8113)" width="2" x="46.4" y="26.7"/><line fill="#FFFFFF" x1="51.6" x2="43.3" y1="40.4" y2="41.7"/><rect fill="#193651" height="8.4" transform="matrix(0.1562 0.9877 -0.9877 0.1562 80.5455 -12.2539)" width="2" x="46.4" y="36.8"/><line fill="#FFFFFF" x1="12.6" x2="20.9" y1="9.9" y2="11.2"/><rect fill="#193651" height="2" transform="matrix(0.9878 0.1559 -0.1559 0.9878 1.8555 -2.4804)" width="8.4" x="12.6" y="9.6"/><line fill="#FFFFFF" x1="12.6" x2="20.9" y1="20.1" y2="21.4"/><rect fill="#193651" height="2" transform="matrix(0.9878 0.1559 -0.1559 0.9878 3.4371 -2.3569)" width="8.4" x="12.6" y="19.7"/><line fill="#FFFFFF" x1="12.6" x2="20.9" y1="30.2" y2="31.5"/><rect fill="#193651" height="2" transform="matrix(0.9878 0.1559 -0.1559 0.9878 5.0171 -2.2325)" width="8.4" x="12.6" y="29.9"/><line fill="#FFFFFF" x1="12.6" x2="20.9" y1="40.4" y2="41.7"/><rect fill="#193651" height="2" transform="matrix(0.9878 0.1559 -0.1559 0.9878 6.5984 -2.1086)" width="8.4" x="12.6" y="40"/><path d="M37.9,23v-5.8c0-1.1-0.9-2-2-2h-7.8c-1.1,0-2,0.9-2,2V23H37.9z" fill="#FFFFFF"/><path d="M38.9,24H25.1v-6.8c0-1.7,1.3-3,3-3h7.8c1.7,0,3,1.3,3,3V24z M27.1,22h9.8v-4.8c0-0.6-0.4-1-1-1h-7.8   c-0.6,0-1,0.4-1,1V22z" fill="#193651"/><polygon fill="#FDBF5E" points="26.1,23 26.1,55.5 32,62.8 32,23  "/><polygon fill="#FDBF5E" points="32,23 32,62.8 37.9,55.5 37.9,23  "/><path d="M32,64.4l-6.9-8.5V22h13.8v33.8L32,64.4z M27.1,55.2l4.9,6l4.9-6V24h-9.8V55.2z" fill="#193651"/><line fill="#FFFFFF" x1="33" x2="31" y1="32.5" y2="32.5"/><rect fill="#193651" height="2" width="2" x="31" y="31.5"/><line fill="#FFFFFF" x1="33" x2="31" y1="40.1" y2="40.1"/><rect fill="#193651" height="2" width="2" x="31" y="39.1"/><line fill="#FFFFFF" x1="33" x2="31" y1="47.7" y2="47.7"/><rect fill="#193651" height="2" width="2" x="31" y="46.7"/><rect fill="#E1E6E9" height="47" width="62" x="1" y="8.5"/><path d="M32,50.8L7,46.8v-46l25,4.1v45.9C32.1,50.8,32,50.8,32,50.8z" fill="#FFFFFF"/><path d="M32.2,50.8l24.9-4v-46l-25,4.1v45.9C32.1,50.8,32.1,50.8,32.2,50.8z" fill="#FFFFFF"/><line fill="#FFFFFF" x1="51.6" x2="43.3" y1="9.9" y2="11.2"/><rect fill="#193651" height="8.4" transform="matrix(0.1562 0.9877 -0.9877 0.1562 50.4932 -37.926)" width="2" x="46.4" y="6.4"/><line fill="#FFFFFF" x1="51.6" x2="43.3" y1="20.1" y2="21.4"/><rect fill="#193651" height="8.4" transform="matrix(0.1562 0.9877 -0.9877 0.1562 60.5108 -29.3687)" width="2" x="46.4" y="16.5"/><line fill="#FFFFFF" x1="51.6" x2="43.3" y1="30.2" y2="31.5"/><rect fill="#193651" height="8.4" transform="matrix(0.1562 0.9877 -0.9877 0.1562 70.5282 -20.8113)" width="2" x="46.4" y="26.7"/><line fill="#FFFFFF" x1="51.6" x2="43.3" y1="40.4" y2="41.7"/><rect fill="#193651" height="8.4" transform="matrix(0.1562 0.9877 -0.9877 0.1562 80.5455 -12.2539)" width="2" x="46.4" y="36.8"/><line fill="#FFFFFF" x1="12.6" x2="20.9" y1="9.9" y2="11.2"/><rect fill="#193651" height="2" transform="matrix(0.9878 0.1559 -0.1559 0.9878 1.8555 -2.4804)" width="8.4" x="12.6" y="9.6"/><line fill="#FFFFFF" x1="12.6" x2="20.9" y1="20.1" y2="21.4"/><rect fill="#193651" height="2" transform="matrix(0.9878 0.1559 -0.1559 0.9878 3.4371 -2.3569)" width="8.4" x="12.6" y="19.7"/><line fill="#FFFFFF" x1="12.6" x2="20.9" y1="30.2" y2="31.5"/><rect fill="#193651" height="2" transform="matrix(0.9878 0.1559 -0.1559 0.9878 5.0171 -2.2325)" width="8.4" x="12.6" y="29.9"/><line fill="#FFFFFF" x1="12.6" x2="20.9" y1="40.4" y2="41.7"/><rect fill="#193651" height="2" transform="matrix(0.9878 0.1559 -0.1559 0.9878 6.5984 -2.1086)" width="8.4" x="12.6" y="40"/><path d="M37.9,23v-5.8c0-1.1-0.9-2-2-2h-7.8c-1.1,0-2,0.9-2,2V23H37.9z" fill="#FFFFFF"/><polygon fill="#FDBF5E" points="26.1,23 26.1,55.5 32,62.8 32,23  "/><polygon fill="#FDBF5E" points="32,23 32,62.8 37.9,55.5 37.9,23  "/><path d="M58.1,7.5v-7.9l-26,4.2L6-0.4v7.9H0v49h25.6l6.4,7.8l6.4-7.8H64v-49H58.1z M25.1,54.5H2v-45h4v38.1   l19.1,3.1V54.5z M25.1,17.2v31.5L8,45.9V2l23,3.7v8.5h-3C26.4,14.2,25.1,15.6,25.1,17.2z M36.9,55.2l-4.9,6l-4.9-6V24h9.8V55.2z    M36.9,22h-9.8v-4.8c0-0.6,0.4-1,1-1h7.8c0.6,0,1,0.4,1,1V22z M35.9,14.2h-2.8V5.7l23-3.7v43.9l-17.2,2.8V17.2   C38.9,15.6,37.6,14.2,35.9,14.2z M62,54.5H38.9v-3.8l19.2-3.1V9.5H62V54.5z" fill="#193651"/><line fill="#FFFFFF" x1="33" x2="31" y1="32.5" y2="32.5"/><rect fill="#193651" height="2" width="2" x="31" y="31.5"/><line fill="#FFFFFF" x1="33" x2="31" y1="40.1" y2="40.1"/><rect fill="#193651" height="2" width="2" x="31" y="39.1"/><line fill="#FFFFFF" x1="33" x2="31" y1="47.7" y2="47.7"/><rect fill="#193651" height="2" width="2" x="31" y="46.7"/></g></svg>