<?xml version="1.0" ?><!DOCTYPE svg  PUBLIC '-//W3C//DTD SVG 1.1//EN'  'http://www.w3.org/Graphics/SVG/1.1/DTD/svg11.dtd'><svg enable-background="new 0 0 64 64" id="Layer_1" version="1.1" viewBox="0 0 64 64" xml:space="preserve" xmlns="http://www.w3.org/2000/svg" xmlns:xlink="http://www.w3.org/1999/xlink"><g><line fill="#FFFFFF" x1="31.7" x2="31.7" y1="9.9" y2="6.5"/><rect fill="#193651" height="3.4" width="2" x="30.7" y="6.5"/><line fill="#FFFFFF" x1="31.7" x2="31.7" y1="13.7" y2="11.7"/><rect fill="#193651" height="2" width="2" x="30.7" y="11.7"/><path d="M31.7,6.5L31.7,6.5c1.4,0,2.5-1.1,2.5-2.5l0,0c0-1.4-1.1-2.5-2.5-2.5l0,0c-1.4,0-2.5,1.1-2.5,2.5l0,0   C29.2,5.4,30.3,6.5,31.7,6.5z" fill="#E1E6E9"/><path d="M31.7,7.5c-1.9,0-3.5-1.6-3.5-3.5c0-1.9,1.6-3.5,3.5-3.5c1.9,0,3.5,1.6,3.5,3.5C35.2,5.9,33.6,7.5,31.7,7.5   z M31.7,2.5c-0.8,0-1.5,0.7-1.5,1.5c0,0.8,0.7,1.5,1.5,1.5c0.8,0,1.5-0.7,1.5-1.5C33.2,3.2,32.5,2.5,31.7,2.5z" fill="#193651"/><line fill="#FFFFFF" x1="10.7" x2="7.8" y1="22.4" y2="20.7"/><rect fill="#193651" height="2" transform="matrix(0.8661 0.4999 -0.4999 0.8661 12.0253 -1.7213)" width="3.4" x="7.5" y="20.6"/><line fill="#FFFFFF" x1="14" x2="12.3" y1="24.3" y2="23.3"/><rect fill="#193651" height="2" transform="matrix(0.866 0.5 -0.5 0.866 13.676 -3.3682)" width="2" x="12.1" y="22.8"/><path d="M7.8,20.7L7.8,20.7c0.7-1.2,0.3-2.7-0.9-3.4l0,0c-1.2-0.7-2.7-0.3-3.4,0.9l0,0c-0.7,1.2-0.3,2.7,0.9,3.4   l0,0C5.6,22.3,7.1,21.9,7.8,20.7z" fill="#4FBF9F"/><path d="M5.6,23c-0.6,0-1.2-0.2-1.7-0.5c-0.8-0.5-1.4-1.2-1.6-2.1c-0.2-0.9-0.1-1.8,0.3-2.7c0.6-1.1,1.8-1.8,3-1.8   c0.6,0,1.2,0.2,1.7,0.5c1.7,1,2.2,3.1,1.3,4.8C8,22.3,6.9,23,5.6,23z M5.6,18c-0.5,0-1,0.3-1.3,0.8c-0.2,0.3-0.3,0.8-0.1,1.1   c0.1,0.4,0.4,0.7,0.7,0.9c0.7,0.4,1.7,0.1,2-0.5c0.4-0.7,0.2-1.6-0.5-2C6.1,18.1,5.9,18,5.6,18z" fill="#193651"/><line fill="#FFFFFF" x1="53" x2="55.9" y1="46.9" y2="48.5"/><rect fill="#193651" height="2" transform="matrix(0.866 0.5001 -0.5001 0.866 31.1555 -20.8432)" width="3.4" x="52.8" y="46.7"/><line fill="#FFFFFF" x1="49.7" x2="51.4" y1="45" y2="46"/><rect fill="#193651" height="2" transform="matrix(0.866 0.5001 -0.5001 0.866 29.5092 -19.1964)" width="2" x="49.6" y="44.5"/><path d="M55.9,48.5L55.9,48.5c-0.7,1.2-0.3,2.7,0.9,3.4l0,0c1.2,0.7,2.7,0.3,3.4-0.9l0,0c0.7-1.2,0.3-2.7-0.9-3.4   l0,0C58.1,46.9,56.6,47.3,55.9,48.5z" fill="#2EA2DB"/><path d="M58.1,53.3L58.1,53.3c-0.6,0-1.2-0.2-1.7-0.5c-1.7-1-2.2-3.1-1.3-4.8c0.6-1.1,1.8-1.8,3-1.8   c0.6,0,1.2,0.2,1.7,0.5c0.8,0.5,1.4,1.2,1.6,2.1c0.2,0.9,0.1,1.8-0.3,2.7C60.5,52.6,59.3,53.3,58.1,53.3z M58.1,48.3   c-0.5,0-1,0.3-1.3,0.8c-0.4,0.7-0.2,1.6,0.5,2c0.2,0.1,0.5,0.2,0.7,0.2l0,0c0.5,0,1-0.3,1.3-0.8c0.2-0.3,0.3-0.8,0.2-1.1   c-0.1-0.4-0.4-0.7-0.7-0.9C58.6,48.4,58.3,48.3,58.1,48.3z" fill="#193651"/><line fill="#FFFFFF" x1="11.1" x2="8.2" y1="46.9" y2="48.6"/><rect fill="#193651" height="3.4" transform="matrix(0.5 0.866 -0.866 0.5 46.1378 15.5425)" width="2" x="8.6" y="46"/><line fill="#FFFFFF" x1="14.4" x2="12.6" y1="45" y2="46"/><rect fill="#193651" height="2" transform="matrix(0.5 0.866 -0.866 0.5 46.1386 11.0432)" width="2" x="12.5" y="44.5"/><path d="M8.2,48.6L8.2,48.6c-0.7-1.2-2.2-1.6-3.4-0.9l0,0c-1.2,0.7-1.6,2.2-0.9,3.4l0,0C4.5,52.3,6,52.7,7.2,52l0,0   C8.4,51.3,8.8,49.8,8.2,48.6z" fill="#F16051"/><line fill="#FFFFFF" x1="53.4" x2="56.3" y1="22.5" y2="20.8"/><rect fill="#193651" height="3.4" transform="matrix(0.5 0.866 -0.866 0.5 46.1369 -36.6914)" width="2" x="53.8" y="19.9"/><line fill="#FFFFFF" x1="50.1" x2="51.8" y1="24.4" y2="23.4"/><rect fill="#193651" height="2" transform="matrix(0.5 0.866 -0.866 0.5 46.137 -32.1916)" width="2" x="49.9" y="22.9"/><path d="M56.3,20.8L56.3,20.8c0.7,1.2,2.2,1.6,3.4,0.9l0,0c1.2-0.7,1.6-2.2,0.9-3.4l0,0c-0.7-1.2-2.2-1.6-3.4-0.9   l0,0C56,18,55.6,19.6,56.3,20.8z" fill="#FDBF5E"/><path d="M58.5,23L58.5,23c-1.2,0-2.4-0.7-3-1.8c-1-1.7-0.4-3.8,1.3-4.8c0.5-0.3,1.1-0.5,1.7-0.5   c1.2,0,2.4,0.7,3,1.8c0.5,0.8,0.6,1.8,0.3,2.7c-0.2,0.9-0.8,1.7-1.6,2.1C59.7,22.9,59.1,23,58.5,23z M58.5,18   c-0.3,0-0.5,0.1-0.7,0.2c-0.7,0.4-1,1.3-0.5,2c0.3,0.5,0.8,0.8,1.3,0.8l0,0c0.3,0,0.5-0.1,0.7-0.2c0.3-0.2,0.6-0.5,0.7-0.9   c0.1-0.4,0-0.8-0.2-1.1C59.5,18.3,59,18,58.5,18z" fill="#193651"/><path d="M23.2,54.1l0-1.3c0-1.7-0.5-3.3-1.4-4.6l-2.6-3.8c-1-1.5-1.6-3.4-1.6-5.3l0-15.3c0-1.5,1.3-2.7,2.9-2.7   c1.6,0,2.9,1.2,2.9,2.7v-1.5c0-1.5,1.3-2.7,2.9-2.7c1.6,0,2.9,1.2,2.9,2.7v-1c0-1.5,1.3-2.7,2.9-2.7c1.6,0,2.9,1.2,2.9,2.7v1   c0-1.5,1.3-2.7,2.9-2.7s2.9,1.2,2.9,2.7V25" fill="#FFFFFF"/><path d="M24.2,54.1h-2v-1.3c0-1.4-0.4-2.9-1.2-4L18.5,45c-1.1-1.7-1.8-3.8-1.8-5.9l0-15.3c0-2,1.8-3.7,3.9-3.7   c0.9,0,1.6,0.3,2.3,0.7c0.6-1.3,2-2.2,3.6-2.2c0,0,0,0,0,0c0.9,0,1.8,0.3,2.5,0.8c0.7-1.1,1.9-1.8,3.4-1.8c0,0,0,0,0,0   c1,0,2,0.4,2.8,1.1c0.2,0.2,0.5,0.5,0.6,0.8c0.7-0.5,1.5-0.8,2.5-0.8c2.2,0,3.9,1.7,3.9,3.7V25h-2v-2.7c0-0.9-0.9-1.7-1.9-1.7   c-1.1,0-1.9,0.8-1.9,1.7h-2v-1c0-0.4-0.2-0.9-0.5-1.2c-0.4-0.3-0.9-0.5-1.4-0.5c-1.1,0-1.9,0.8-1.9,1.7v1h-2c0-0.4-0.2-0.9-0.5-1.2   c-0.4-0.3-0.9-0.5-1.4-0.5c-1.1,0-1.9,0.8-1.9,1.7v1.5h-2c0-0.9-0.9-1.7-1.9-1.7c-1.1,0-1.9,0.8-1.9,1.7l0,15.3   c0,1.7,0.5,3.4,1.4,4.8l2.6,3.8c1,1.5,1.6,3.3,1.6,5.2V54.1z" fill="#193651"/><rect fill="#E1E6E9" height="8.3" width="17.6" x="22.8" y="54.2"/><path d="M21.9,63.5l0-10.3l19.6,0l0,10.3L21.9,63.5z M23.8,55.2l0,6.3l15.6,0l0-6.3L23.8,55.2z" fill="#193651"/><path d="M32.3,30.6c-2.2,0-3.9-1.9-3.9-4.3v-3.9h2v3.9c0,1.2,0.9,2.3,1.9,2.3c1.1,0,1.9-1,1.9-2.3v-3.9h2v3.9   C36.3,28.6,34.5,30.6,32.3,30.6z" fill="#193651"/><line fill="#FFFFFF" x1="41.1" x2="41.1" y1="32.4" y2="37.7"/><rect fill="#193651" height="5.3" width="2" x="40.1" y="32.4"/><path d="M26.5,30.6c-2.2,0-3.9-1.9-3.9-4.3l0-2.5l2,0l0,2.5c0,1.2,0.9,2.3,1.9,2.3c1.1,0,1.9-1,1.9-2.3h2   C30.4,28.6,28.6,30.6,26.5,30.6z" fill="#193651"/><path d="M20.6,30.6c-1.1,0-2.1-0.5-2.8-1.3c-0.7-0.8-1.1-1.9-1.1-3v-0.6h2v0.6c0,0.6,0.2,1.2,0.6,1.6   c0.4,0.4,0.8,0.6,1.3,0.6c1.1,0,1.9-1,1.9-2.3l2,0C24.5,28.6,22.8,30.6,20.6,30.6L20.6,30.6z" fill="#193651"/><line fill="#FFFFFF" x1="35.6" x2="35.6" y1="59.3" y2="57.3"/><rect fill="#193651" height="2" width="2" x="34.6" y="57.3"/><line fill="#FFFFFF" x1="31.7" x2="31.7" y1="59.3" y2="57.3"/><rect fill="#193651" height="2" width="2" x="30.7" y="57.3"/><line fill="#FFFFFF" x1="27.7" x2="27.7" y1="59.3" y2="57.3"/><rect fill="#193651" height="2" width="2" x="26.7" y="57.3"/><path d="M39.8,54.1l0.7-2.9c0.6-2.3,1.6-4.5,3.3-6.2c1.6-1.6,2.5-3.9,2.5-6.3v-8c0-3.1-2.5-5.7-5.7-5.7l-7.9,0   c-2.1,0-3.8,1.7-3.8,3.8l0,0c0,2.1,1.7,3.8,3.8,3.8l6,0v3.9" fill="#FFFFFF"/><path d="M40.8,54.4l-1.9-0.5l0.7-2.9c0.7-2.6,1.9-4.9,3.5-6.7c1.4-1.5,2.2-3.5,2.2-5.6v-8c0-2.6-2.1-4.7-4.7-4.7   h-7.9c-1.5,0-2.8,1.2-2.8,2.8c0,1.5,1.2,2.8,2.8,2.8h7v4.9h-2v-2.9h-5c-2.6,0-4.8-2.1-4.8-4.8c0-2.6,2.1-4.8,4.8-4.8h7.9   c3.7,0,6.7,3,6.7,6.7v8c0,2.6-1,5.1-2.8,7c-1.4,1.5-2.5,3.5-3,5.8L40.8,54.4z" fill="#193651"/><path d="M37.6,42.3L37.6,42.3c-2.6,0-4.7,2.1-4.7,4.7v1" fill="#FFFFFF"/><path d="M33.9,48.1h-2v-1c0-3.2,2.6-5.7,5.7-5.7v2c-2,0-3.7,1.7-3.7,3.7V48.1z" fill="#193651"/><line fill="#FFFFFF" x1="31.7" x2="31.7" y1="9.9" y2="6.5"/><line fill="#FFFFFF" x1="31.7" x2="31.7" y1="13.7" y2="11.7"/><rect fill="#193651" height="2" width="2" x="30.7" y="11.7"/><path d="M31.7,6.5L31.7,6.5c1.4,0,2.5-1.1,2.5-2.5l0,0c0-1.4-1.1-2.5-2.5-2.5l0,0c-1.4,0-2.5,1.1-2.5,2.5l0,0   C29.2,5.4,30.3,6.5,31.7,6.5z" fill="#E1E6E9"/><line fill="#FFFFFF" x1="10.7" x2="7.8" y1="22.4" y2="20.7"/><line fill="#FFFFFF" x1="14" x2="12.3" y1="24.3" y2="23.3"/><rect fill="#193651" height="2" transform="matrix(0.866 0.5 -0.5 0.866 13.676 -3.3682)" width="2" x="12.1" y="22.8"/><path d="M7.8,20.7L7.8,20.7c0.7-1.2,0.3-2.7-0.9-3.4l0,0c-1.2-0.7-2.7-0.3-3.4,0.9l0,0c-0.7,1.2-0.3,2.7,0.9,3.4   l0,0C5.6,22.3,7.1,21.9,7.8,20.7z" fill="#4FBF9F"/><line fill="#FFFFFF" x1="53" x2="55.9" y1="46.9" y2="48.5"/><line fill="#FFFFFF" x1="49.7" x2="51.4" y1="45" y2="46"/><rect fill="#193651" height="2" transform="matrix(0.866 0.5001 -0.5001 0.866 29.5092 -19.1964)" width="2" x="49.6" y="44.5"/><path d="M55.9,48.5L55.9,48.5c-0.7,1.2-0.3,2.7,0.9,3.4l0,0c1.2,0.7,2.7,0.3,3.4-0.9l0,0c0.7-1.2,0.3-2.7-0.9-3.4   l0,0C58.1,46.9,56.6,47.3,55.9,48.5z" fill="#2EA2DB"/><path d="M59.8,46.8c-2-1-3.5-0.1-4.1,0.5L53.5,46l-1,1.7l2.2,1.3c-0.3,1.5,0.3,3,1.6,3.8c0.5,0.3,3,1.3,4.8-1.3   C62.4,49.1,60.6,47.2,59.8,46.8z M59.4,50.5c-0.3,0.5-0.8,0.8-1.3,0.8c-1.4,0-1.7-1.5-1.3-2.3c0.3-0.5,0.8-0.8,1.3-0.8   C58.3,48.3,60.1,48.5,59.4,50.5z" fill="#193651"/><line fill="#FFFFFF" x1="11.1" x2="8.2" y1="46.9" y2="48.6"/><line fill="#FFFFFF" x1="14.4" x2="12.6" y1="45" y2="46"/><rect fill="#193651" height="2" transform="matrix(0.5 0.866 -0.866 0.5 46.1386 11.0432)" width="2" x="12.5" y="44.5"/><path d="M8.2,48.6L8.2,48.6c-0.7-1.2-2.2-1.6-3.4-0.9l0,0c-1.2,0.7-1.6,2.2-0.9,3.4l0,0C4.5,52.3,6,52.7,7.2,52l0,0   C8.4,51.3,8.8,49.8,8.2,48.6z" fill="#F16051"/><line fill="#FFFFFF" x1="53.4" x2="56.3" y1="22.5" y2="20.8"/><line fill="#FFFFFF" x1="50.1" x2="51.8" y1="24.4" y2="23.4"/><rect fill="#193651" height="2" transform="matrix(0.5 0.866 -0.866 0.5 46.137 -32.1916)" width="2" x="49.9" y="22.9"/><path d="M56.3,20.8L56.3,20.8c0.7,1.2,2.2,1.6,3.4,0.9l0,0c1.2-0.7,1.6-2.2,0.9-3.4l0,0c-0.7-1.2-2.2-1.6-3.4-0.9   l0,0C56,18,55.6,19.6,56.3,20.8z" fill="#FDBF5E"/><path d="M23.2,54.1l0-1.3c0-1.7-0.5-3.3-1.4-4.6l-2.6-3.8c-1-1.5-1.6-3.4-1.6-5.3l0-15.3c0-1.5,1.3-2.7,2.9-2.7   c1.6,0,2.9,1.2,2.9,2.7v-1.5c0-1.5,1.3-2.7,2.9-2.7c1.6,0,2.9,1.2,2.9,2.7v-1c0-1.5,1.3-2.7,2.9-2.7c1.6,0,2.9,1.2,2.9,2.7v1   c0-1.5,1.3-2.7,2.9-2.7s2.9,1.2,2.9,2.7V25" fill="#FFFFFF"/><rect fill="#E1E6E9" height="8.3" width="17.6" x="22.8" y="54.2"/><path d="M32.3,30.6c-2.2,0-3.9-1.9-3.9-4.3v-3.9h2v3.9c0,1.2,0.9,2.3,1.9,2.3c1.1,0,1.9-1,1.9-2.3v-3.9h2v3.9   C36.3,28.6,34.5,30.6,32.3,30.6z" fill="#193651"/><line fill="#FFFFFF" x1="41.1" x2="41.1" y1="32.4" y2="37.7"/><rect fill="#193651" height="5.3" width="2" x="40.1" y="32.4"/><line fill="#FFFFFF" x1="35.6" x2="35.6" y1="59.3" y2="57.3"/><rect fill="#193651" height="2" width="2" x="34.6" y="57.3"/><line fill="#FFFFFF" x1="31.7" x2="31.7" y1="59.3" y2="57.3"/><rect fill="#193651" height="2" width="2" x="30.7" y="57.3"/><line fill="#FFFFFF" x1="27.7" x2="27.7" y1="59.3" y2="57.3"/><rect fill="#193651" height="2" width="2" x="26.7" y="57.3"/><path d="M39.8,54.1l0.7-2.9c0.6-2.3,1.6-4.5,3.3-6.2c1.6-1.6,2.5-3.9,2.5-6.3v-8c0-3.1-2.5-5.7-5.7-5.7l-7.9,0   c-2.1,0-3.8,1.7-3.8,3.8l0,0c0,2.1,1.7,3.8,3.8,3.8l6,0v3.9" fill="#FFFFFF"/><path d="M42.1,24.2v-1.8c0-2-1.8-3.7-3.9-3.7c-0.9,0-1.8,0.3-2.5,0.8c-0.2-0.3-1.6-2-3.4-1.8c0,0,0,0,0,0   c-1.4,0-2.7,0.7-3.4,1.8c-0.7-0.5-1.6-0.8-2.5-0.8c0,0,0,0,0,0c-1.6,0-3,0.9-3.6,2.2c-0.6-0.4-1.4-0.7-2.3-0.7   c-4.9,0.2-3.9,5.6-3.9,5.6l0,13.4c0,2.1,0.6,4.2,1.8,5.9l2.6,3.8c0.8,1.2,1.2,2.6,1.2,4v0.3h-0.4l0,10.3h19.6l0-10.3h-0.4l0.4-1.7   c0.6-2.3,1.6-4.3,3-5.8c1.8-1.9,2.8-4.4,2.8-7v-8C47.4,27.5,45.1,24.8,42.1,24.2z M26.5,20.6c0.5,0,1,0.2,1.4,0.5   c0.3,0.3,0.5,0.7,0.5,1.2h2v-1c0-0.9,0.9-1.7,1.9-1.7c0.5,0,1,0.2,1.4,0.5c0.3,0.3,0.5,0.7,0.5,1.2v1h2c0-0.9,0.9-1.7,1.9-1.7   c1.1,0,1.9,0.8,1.9,1.7V24h-7.4c-1.7,0-3.2,0.9-4.1,2.3h-0.3c0,1.2-0.9,2.3-1.9,2.3c-1.1,0-1.9-1-1.9-2.3l0-3.9   C24.5,21.4,25.4,20.6,26.5,20.6z M18.7,23.8c0-0.9,0.9-1.7,1.9-1.7c1.1,0,1.9,0.8,1.9,1.7l0,2.5c0,0,0,0,0,0c0,1.2-0.9,2.3-1.9,2.3   c-0.5,0-1-0.2-1.3-0.6c-0.4-0.4-0.6-1-0.6-1.6L18.7,23.8z M23.9,61.5l0-6.3l15.6,0l0,6.3H23.9z M45.4,38.7c0,2.1-0.8,4.1-2.2,5.6   c-1.7,1.7-2.9,4-3.5,6.7l-0.5,2.2l-14.8,0v-0.3c0-1.8-0.6-3.7-1.6-5.2l-2.6-3.8c-0.9-1.4-1.4-3-1.4-4.8l0-9.2   c0.6,0.4,1.2,0.6,1.9,0.6h0c1.2,0,2.2-0.6,2.9-1.4c0.7,0.9,1.8,1.4,2.9,1.4c0.6,0,1.2-0.2,1.7-0.5c0.6,2,2.4,3.5,4.6,3.5h5v2.9h2   v-4.9h-7c-1.5,0-2.8-1.2-2.8-2.8c0-1.5,1.2-2.8,2.8-2.8h7.9c2.6,0,4.7,2.1,4.7,4.7V38.7z" fill="#193651"/><path d="M37.6,42.3L37.6,42.3c-2.6,0-4.7,2.1-4.7,4.7v1" fill="#FFFFFF"/><path d="M33.9,48.1h-2v-1c0-3.2,2.6-5.7,5.7-5.7v2c-2,0-3.7,1.7-3.7,3.7V48.1z" fill="#193651"/><path d="M11.6,47.8l-1-1.7l-2.2,1.3c-0.6-0.6-1.5-1-2.4-1c-1.9,0-3.5,1.6-3.5,3.5c0,1.9,1.6,3.5,3.5,3.5   c1.9,0,3.5-1.6,3.5-3.5c0-0.3,0-0.5-0.1-0.8L11.6,47.8z M6,51.3c-0.8,0-1.5-0.7-1.5-1.5c0-0.8,0.7-1.5,1.5-1.5   c0.8,0,1.5,0.7,1.5,1.5C7.5,50.6,6.8,51.3,6,51.3z" fill="#183651"/><path d="M11.2,21.6l-2.3-1.3C9,20,9,19.7,9,19.4c0-1.9-1.6-3.5-3.5-3.5c-1.9,0-3.5,1.6-3.5,3.5   c0,1.9,1.6,3.5,3.5,3.5c0.9,0,1.7-0.4,2.4-0.9l2.3,1.3L11.2,21.6z M5.5,20.9c-0.8,0-1.5-0.7-1.5-1.5c0-0.8,0.7-1.5,1.5-1.5   c0.8,0,1.5,0.7,1.5,1.5C7,20.2,6.4,20.9,5.5,20.9z" fill="#183651"/><path d="M35.3,4c0-1.9-1.6-3.5-3.5-3.5S28.3,2.1,28.3,4c0,1.5,1,2.8,2.4,3.3v2.6h2V7.4C34.2,7,35.3,5.6,35.3,4z    M31.8,5.5c-0.8,0-1.5-0.7-1.5-1.5c0-0.8,0.7-1.5,1.5-1.5c0.8,0,1.5,0.7,1.5,1.5C33.3,4.8,32.6,5.5,31.8,5.5z" fill="#183651"/><path d="M58.5,15.9c-1.9,0-3.5,1.6-3.5,3.5c0,0.3,0.1,0.6,0.1,0.9l-2.2,1.3l1,1.7l2.3-1.3c0.6,0.6,1.4,0.9,2.3,0.9   c1.9,0,3.5-1.6,3.5-3.5C62,17.5,60.4,15.9,58.5,15.9z M58.5,20.9c-0.8,0-1.5-0.7-1.5-1.5c0-0.8,0.7-1.5,1.5-1.5   c0.8,0,1.5,0.7,1.5,1.5C60,20.2,59.3,20.9,58.5,20.9z" fill="#183651"/></g></svg>