<?xml version="1.0" ?><!DOCTYPE svg  PUBLIC '-//W3C//DTD SVG 1.1//EN'  'http://www.w3.org/Graphics/SVG/1.1/DTD/svg11.dtd'><svg enable-background="new 0 0 64 64" id="Layer_1" version="1.1" viewBox="0 0 64 64" xml:space="preserve" xmlns="http://www.w3.org/2000/svg" xmlns:xlink="http://www.w3.org/1999/xlink"><g><rect fill="#FFFFFF" height="39.5" width="54.1" x="5" y="16.4"/><path d="M60,57H4V15.4H60V57z M6,55H58V17.4H6V55z" fill="#193651"/><path d="M1,54.8c0,4.3,3.3,7.7,7.5,7.7h47.1c4.1,0,7.5-3.4,7.5-7.7H1z" fill="#FFFFFF"/><path d="M55.5,63.5H8.5c-4.7,0-8.5-3.9-8.5-8.7v-1h64v1C64,59.6,60.2,63.5,55.5,63.5z M2.1,55.8   c0.5,3.2,3.2,5.7,6.4,5.7h47.1c3.2,0,5.9-2.5,6.4-5.7H2.1z" fill="#193651"/><line fill="#2EA2DB" x1="27.9" x2="36.1" y1="58.7" y2="58.7"/><rect fill="#193651" height="2" width="8.2" x="27.9" y="57.7"/><line fill="#2EA2DB" x1="40.4" x2="42.4" y1="58.7" y2="58.7"/><rect fill="#193651" height="2" width="2" x="40.4" y="57.7"/><line fill="#2EA2DB" x1="21.6" x2="23.6" y1="58.7" y2="58.7"/><rect fill="#193651" height="2" width="2" x="21.6" y="57.7"/><path d="M32,5.7L32,5.7c-9.9,0-17.8,8-17.8,17.8l0,0c0,9.9,8,17.8,17.8,17.8l0,0c9.9,0,17.8-8,17.8-17.8l0,0   C49.8,13.7,41.9,5.7,32,5.7z" fill="#FFFFFF"/><path d="M32,42.4c-10.4,0-18.8-8.5-18.8-18.8c0-10.4,8.5-18.8,18.8-18.8s18.8,8.5,18.8,18.8   C50.8,33.9,42.4,42.4,32,42.4z M32,6.7c-9.3,0-16.8,7.6-16.8,16.8c0,9.3,7.6,16.8,16.8,16.8s16.8-7.6,16.8-16.8   C48.8,14.3,41.3,6.7,32,6.7z" fill="#193651"/><path d="M32,36.4c-7.1,0-12.8-5.8-12.8-12.8S24.9,10.7,32,10.7c7.1,0,12.8,5.8,12.8,12.8S39.1,36.4,32,36.4z" fill="#FFFFFF"/><path d="M32,37.4c-7.6,0-13.8-6.2-13.8-13.8c0-7.6,6.2-13.8,13.8-13.8c7.6,0,13.8,6.2,13.8,13.8   C45.8,31.2,39.6,37.4,32,37.4z M32,11.7c-6.5,0-11.8,5.3-11.8,11.8c0,6.5,5.3,11.8,11.8,11.8c6.5,0,11.8-5.3,11.8-11.8   C43.8,17,38.5,11.7,32,11.7z" fill="#193651"/><path d="M32,31.4c-4.3,0-7.8-3.5-7.8-7.8c0-4.3,3.5-7.8,7.8-7.8c4.3,0,7.8,3.5,7.8,7.8C39.8,27.9,36.3,31.4,32,31.4   z" fill="#F16051"/><line fill="#FFFFFF" x1="32" x2="32" y1="13.7" y2="0.5"/><rect fill="#193651" height="13.2" width="2" x="31" y="0.5"/><line fill="#FFFFFF" x1="32" x2="32" y1="46.6" y2="33.4"/><rect fill="#193651" height="13.2" width="2" x="31" y="33.4"/><line fill="#FFFFFF" x1="41.8" x2="55.1" y1="23.5" y2="23.5"/><rect fill="#193651" height="2" width="13.2" x="41.8" y="22.5"/><line fill="#FFFFFF" x1="8.9" x2="22.2" y1="23.5" y2="23.5"/><rect fill="#193651" height="2" width="13.2" x="8.9" y="22.5"/><line fill="#FDBF5E" x1="32.1" x2="48" y1="23.5" y2="39.5"/><rect fill="#2EA2DB" height="2" transform="matrix(0.7071 0.7071 -0.7071 0.7071 34.0195 -19.0953)" width="22.6" x="28.8" y="30.5"/><polygon fill="#FDBF5E" points="47.3,38.8 50.9,38 55.2,42.3 51.6,43.1  "/><polygon fill="#FDBF5E" points="47.3,38.8 46.5,42.3 50.9,46.7 51.6,43.1  "/><rect fill="#FFFFFF" height="39.5" width="54.1" x="5" y="16.4"/><path d="M1,54.8c0,4.3,3.3,7.7,7.5,7.7h47.1c4.1,0,7.5-3.4,7.5-7.7H1z" fill="#FFFFFF"/><line fill="#2EA2DB" x1="27.9" x2="36.1" y1="58.7" y2="58.7"/><rect fill="#193651" height="2" width="8.2" x="27.9" y="57.7"/><line fill="#2EA2DB" x1="40.4" x2="42.4" y1="58.7" y2="58.7"/><rect fill="#193651" height="2" width="2" x="40.4" y="57.7"/><line fill="#2EA2DB" x1="21.6" x2="23.6" y1="58.7" y2="58.7"/><rect fill="#193651" height="2" width="2" x="21.6" y="57.7"/><path d="M32,5.7L32,5.7c-9.9,0-17.8,8-17.8,17.8l0,0c0,9.9,8,17.8,17.8,17.8l0,0c9.9,0,17.8-8,17.8-17.8l0,0   C49.8,13.7,41.9,5.7,32,5.7z" fill="#FFFFFF"/><path d="M32,36.4c-7.1,0-12.8-5.8-12.8-12.8S24.9,10.7,32,10.7c7.1,0,12.8,5.8,12.8,12.8S39.1,36.4,32,36.4z" fill="#FFFFFF"/><path d="M32,31.4c-4.3,0-7.8-3.5-7.8-7.8c0-4.3,3.5-7.8,7.8-7.8c4.3,0,7.8,3.5,7.8,7.8C39.8,27.9,36.3,31.4,32,31.4   z" fill="#F16051"/><line fill="#FFFFFF" x1="32" x2="32" y1="13.7" y2="0.5"/><rect fill="#193651" height="13.2" width="2" x="31" y="0.5"/><line fill="#FFFFFF" x1="32" x2="32" y1="46.6" y2="33.4"/><path d="M60,53.8V15.4H49c-3-6.3-9.5-10.7-17-10.7S18.1,9.1,15,15.4H4v38.4H0v1c0,4.8,3.8,8.7,8.5,8.7h47.1   c4.7,0,8.5-3.9,8.5-8.7v-1H60z M32,6.7c9.3,0,16.8,7.6,16.8,16.8c0,8.9-7,16.3-15.8,16.8v-3c7.2-0.5,12.8-6.5,12.8-13.8   c0-7.6-6.2-13.8-13.8-13.8c-7.6,0-13.8,6.2-13.8,13.8c0,7.3,5.7,13.3,12.8,13.8v3c-8.8-0.5-15.8-7.8-15.8-16.8   C15.2,14.3,22.7,6.7,32,6.7z M31,35.3c-6.1-0.5-10.8-5.6-10.8-11.8c0-6.5,5.3-11.8,11.8-11.8c6.5,0,11.8,5.3,11.8,11.8   c0,6.2-4.8,11.3-10.8,11.8v-1.9h-2V35.3z M6,17.4h8.2c-0.7,1.9-1,4-1,6.1c0,10.1,7.9,18.3,17.8,18.8v4.3h2v-4.3   c9.9-0.5,17.8-8.7,17.8-18.8c0-2.1-0.4-4.2-1-6.1H58v36.4H6V17.4z M55.5,61.5H8.5c-3.2,0-5.9-2.5-6.4-5.7h59.9   C61.5,59.1,58.8,61.5,55.5,61.5z" fill="#193651"/><line fill="#FFFFFF" x1="41.8" x2="55.1" y1="23.5" y2="23.5"/><rect fill="#193651" height="2" width="13.2" x="41.8" y="22.5"/><line fill="#FFFFFF" x1="8.9" x2="22.2" y1="23.5" y2="23.5"/><rect fill="#193651" height="2" width="13.2" x="8.9" y="22.5"/><line fill="#FDBF5E" x1="32.1" x2="48" y1="23.5" y2="39.5"/><rect fill="#2EA2DB" height="2" transform="matrix(0.7071 0.7071 -0.7071 0.7071 34.0195 -19.0953)" width="22.6" x="28.8" y="30.5"/><polygon fill="#FDBF5E" points="47.3,38.8 50.9,38 55.2,42.3 51.6,43.1  "/><polygon fill="#FDBF5E" points="47.3,38.8 46.5,42.3 50.9,46.7 51.6,43.1  "/></g></svg>