<?xml version="1.0" encoding="utf-8"?>
<!-- Generator: Adobe Illustrator 16.0.0, SVG Export Plug-In . SVG Version: 6.00 Build 0)  -->
<!DOCTYPE svg PUBLIC "-//W3C//DTD SVG 1.1//EN" "http://www.w3.org/Graphics/SVG/1.1/DTD/svg11.dtd">
<svg version="1.1" id="Layer_1" xmlns="http://www.w3.org/2000/svg" xmlns:xlink="http://www.w3.org/1999/xlink" x="0px" y="0px"
	 width="1998px" height="188px" viewBox="0 0 1998 188" enable-background="new 0 0 1998 188" xml:space="preserve">
<g>
	<g>
		<path fill="#FF2B06" d="M16.931,161.896L9.364,150.99h7.211l4.05,6.009l4.006-6.009h6.988l-7.567,10.771l8.501,12.24h-7.21
			l-4.807-7.255l-4.807,7.255H8.652L16.931,161.896z"/>
		<path d="M62.507,160.382H40.029v-4.763h22.478V160.382z M62.507,169.907H40.029v-4.763h22.478V169.907z"/>
		<path d="M79.73,147.43h-6.32v-5.208h6.32V147.43z M73.41,150.99h6.32v23.012h-6.32V150.99z"/>
		<path d="M83.824,150.99h6.009v3.205h0.133c1.603-2.582,4.362-3.828,7.033-3.828c6.721,0,8.412,3.783,8.412,9.48v14.154h-6.32
			v-12.997c0-3.783-1.113-5.652-4.05-5.652c-3.427,0-4.896,1.914-4.896,6.587v12.062h-6.321V150.99z"/>
		<path d="M125.75,171.064h-0.089c-1.469,2.492-4.05,3.561-6.988,3.561c-6.943,0-10.326-5.964-10.326-12.329
			c0-6.187,3.427-11.929,10.193-11.929c2.715,0,5.386,1.157,6.854,3.427h-0.044h0.089v-11.573h6.32v31.78h-6.009V171.064z
			 M120.231,155.13c-4.14,0-5.564,3.561-5.564,7.344c0,3.605,1.647,7.388,5.564,7.388c4.184,0,5.43-3.649,5.43-7.433
			C125.662,158.69,124.326,155.13,120.231,155.13z"/>
		<path d="M140.837,164.032c0.178,4.006,2.136,5.831,5.653,5.831c2.537,0,4.584-1.558,4.985-2.982h5.564
			c-1.781,5.43-5.564,7.745-10.771,7.745c-7.255,0-11.75-4.985-11.75-12.106c0-6.899,4.762-12.151,11.75-12.151
			c7.833,0,11.617,6.587,11.172,13.665H140.837z M151.119,160.026c-0.579-3.205-1.958-4.896-5.03-4.896
			c-4.006,0-5.163,3.116-5.252,4.896H151.119z"/>
		<path d="M160.286,150.99h6.009v2.938h0.089c1.513-2.448,4.006-3.561,6.854-3.561c7.21,0,10.46,5.831,10.46,12.374
			c0,6.143-3.383,11.884-10.104,11.884c-2.76,0-5.386-1.202-6.899-3.472h-0.089v10.949h-6.321V150.99z M177.378,162.563
			c0-3.65-1.469-7.433-5.519-7.433c-4.139,0-5.475,3.694-5.475,7.433s1.424,7.299,5.519,7.299
			C176.043,169.862,177.378,166.302,177.378,162.563z"/>
		<path d="M191.797,164.032c0.178,4.006,2.136,5.831,5.653,5.831c2.537,0,4.584-1.558,4.985-2.982h5.564
			c-1.781,5.43-5.564,7.745-10.771,7.745c-7.255,0-11.75-4.985-11.75-12.106c0-6.899,4.762-12.151,11.75-12.151
			c7.833,0,11.617,6.587,11.172,13.665H191.797z M202.079,160.026c-0.579-3.205-1.958-4.896-5.03-4.896
			c-4.006,0-5.163,3.116-5.252,4.896H202.079z"/>
		<path d="M211.246,150.99h6.009v3.205h0.133c1.603-2.582,4.362-3.828,7.033-3.828c6.721,0,8.412,3.783,8.412,9.48v14.154h-6.32
			v-12.997c0-3.783-1.113-5.652-4.05-5.652c-3.427,0-4.896,1.914-4.896,6.587v12.062h-6.321V150.99z"/>
		<path d="M253.172,171.064h-0.089c-1.469,2.492-4.05,3.561-6.988,3.561c-6.943,0-10.326-5.964-10.326-12.329
			c0-6.187,3.427-11.929,10.193-11.929c2.715,0,5.386,1.157,6.854,3.427h-0.044h0.089v-11.573h6.32v31.78h-6.009V171.064z
			 M247.653,155.13c-4.14,0-5.564,3.561-5.564,7.344c0,3.605,1.647,7.388,5.564,7.388c4.184,0,5.43-3.649,5.43-7.433
			C253.083,158.69,251.748,155.13,247.653,155.13z"/>
		<path d="M268.259,164.032c0.178,4.006,2.136,5.831,5.653,5.831c2.537,0,4.584-1.558,4.985-2.982h5.564
			c-1.781,5.43-5.564,7.745-10.771,7.745c-7.255,0-11.75-4.985-11.75-12.106c0-6.899,4.762-12.151,11.75-12.151
			c7.833,0,11.617,6.587,11.172,13.665H268.259z M278.541,160.026c-0.579-3.205-1.958-4.896-5.03-4.896
			c-4.006,0-5.163,3.116-5.252,4.896H278.541z"/>
		<path d="M287.708,150.99h6.009v3.205h0.133c1.603-2.582,4.362-3.828,7.033-3.828c6.721,0,8.412,3.783,8.412,9.48v14.154h-6.32
			v-12.997c0-3.783-1.113-5.652-4.05-5.652c-3.427,0-4.896,1.914-4.896,6.587v12.062h-6.321V150.99z"/>
		<path d="M321.222,150.99h4.629v4.229h-4.629v11.395c0,2.137,0.534,2.67,2.67,2.67c0.667,0,1.291-0.044,1.958-0.178v4.94
			c-1.068,0.178-2.448,0.223-3.694,0.223c-3.873,0-7.255-0.89-7.255-5.475v-13.576h-3.828v-4.229h3.828v-6.899h6.321V150.99z"/>
		<path d="M328.164,142.222h6.32v31.78h-6.32V142.222z"/>
		<path d="M349.929,176.895c-1.38,3.695-3.561,5.208-7.923,5.208c-1.291,0-2.582-0.089-3.872-0.223v-5.208
			c1.202,0.089,2.448,0.267,3.694,0.223c2.181-0.223,2.893-2.493,2.181-4.317l-8.101-21.587h6.766l5.208,15.757h0.089L353,150.99
			h6.543L349.929,176.895z"/>
		<path d="M383.443,150.367c7.255,0,11.929,4.807,11.929,12.151c0,7.299-4.674,12.106-11.929,12.106
			c-7.211,0-11.884-4.807-11.884-12.106C371.559,155.174,376.232,150.367,383.443,150.367z M383.443,169.862
			c4.317,0,5.608-3.694,5.608-7.344c0-3.694-1.291-7.389-5.608-7.389c-4.273,0-5.564,3.694-5.564,7.389
			C377.879,166.168,379.17,169.862,383.443,169.862z"/>
		<path d="M397.684,150.99h6.009v4.273h0.089c1.157-2.893,4.273-4.896,7.344-4.896c0.445,0,0.979,0.089,1.379,0.223v5.875
			c-0.579-0.133-1.513-0.222-2.27-0.222c-4.629,0-6.231,3.338-6.231,7.389v10.371h-6.321V150.99z"/>
		<path d="M436.228,172.533c0,3.783-1.335,10.192-11.929,10.192c-4.54,0-9.836-2.136-10.148-7.388h6.276
			c0.579,2.359,2.492,3.161,4.718,3.161c3.517,0,5.119-2.404,5.074-5.698v-3.027h-0.089c-1.38,2.404-4.14,3.561-6.899,3.561
			c-6.899,0-9.836-5.252-9.836-11.573c0-5.964,3.427-11.395,9.881-11.395c3.026,0,5.341,1.024,6.854,3.694h0.089v-3.071h6.009
			V172.533z M430.219,162.207c0-3.739-1.291-7.077-5.386-7.077c-3.561,0-5.119,3.116-5.119,6.543c0,3.293,1.246,6.899,5.119,6.899
			C428.439,168.572,430.219,165.5,430.219,162.207z"/>
		<path d="M439.253,158.067c0.356-5.92,5.652-7.7,10.815-7.7c4.585,0,10.104,1.024,10.104,6.543v11.973
			c0,2.092,0.223,4.184,0.801,5.119h-6.41c-0.223-0.712-0.4-1.469-0.445-2.226c-2.003,2.092-4.941,2.849-7.745,2.849
			c-4.362,0-7.833-2.181-7.833-6.899c0-5.208,3.917-6.454,7.833-6.988c3.873-0.579,7.478-0.445,7.478-3.026
			c0-2.715-1.87-3.116-4.095-3.116c-2.403,0-3.961,0.979-4.184,3.472H439.253z M453.852,162.741
			c-1.068,0.935-3.294,0.979-5.252,1.335c-1.958,0.401-3.739,1.068-3.739,3.383c0,2.359,1.825,2.938,3.873,2.938
			c4.94,0,5.119-3.917,5.119-5.296V162.741z"/>
		<path d="M464.176,150.99h6.009v3.205h0.133c1.603-2.582,4.362-3.828,7.033-3.828c6.721,0,8.412,3.783,8.412,9.48v14.154h-6.32
			v-12.997c0-3.783-1.113-5.652-4.05-5.652c-3.427,0-4.896,1.914-4.896,6.587v12.062h-6.321V150.99z"/>
		<path d="M495.287,147.43h-6.32v-5.208h6.32V147.43z M488.966,150.99h6.32v23.012h-6.32V150.99z"/>
		<path d="M497.957,169.239l11.973-13.486h-11.083v-4.763h19.406v4.763l-11.973,13.486h12.818v4.763h-21.142V169.239z"/>
		<path d="M526.798,164.032c0.178,4.006,2.137,5.831,5.652,5.831c2.537,0,4.585-1.558,4.985-2.982h5.563
			c-1.78,5.43-5.563,7.745-10.771,7.745c-7.255,0-11.75-4.985-11.75-12.106c0-6.899,4.763-12.151,11.75-12.151
			c7.834,0,11.617,6.587,11.173,13.665H526.798z M537.079,160.026c-0.578-3.205-1.958-4.896-5.029-4.896
			c-4.006,0-5.163,3.116-5.252,4.896H537.079z"/>
		<path d="M562.672,171.064h-0.09c-1.469,2.492-4.05,3.561-6.987,3.561c-6.944,0-10.327-5.964-10.327-12.329
			c0-6.187,3.428-11.929,10.193-11.929c2.715,0,5.386,1.157,6.854,3.427h-0.045h0.089v-11.573h6.321v31.78h-6.009V171.064z
			 M557.152,155.13c-4.14,0-5.563,3.561-5.563,7.344c0,3.605,1.646,7.388,5.563,7.388c4.184,0,5.43-3.649,5.43-7.433
			C562.582,158.69,561.247,155.13,557.152,155.13z"/>
		<path d="M591.733,148.097h-9.524v-5.875h26.038v5.875h-9.525v25.905h-6.988V148.097z"/>
		<path d="M611.004,142.222h23.769v5.875h-16.78v6.81h15.4v5.43h-15.4v7.789h17.136v5.875h-24.124V142.222z"/>
		<path d="M638.064,142.222h13.709c8.234,0,14.421,5.164,14.421,15.712c0,9.213-4.718,16.068-14.421,16.068h-13.709V142.222z
			 M645.053,168.126h6.231c4.05,0,7.923-2.492,7.923-9.525c0-6.41-2.226-10.504-9.17-10.504h-4.984V168.126z"/>
		<path d="M686.177,164.032c0.178,4.006,2.137,5.831,5.652,5.831c2.537,0,4.585-1.558,4.985-2.982h5.563
			c-1.78,5.43-5.563,7.745-10.771,7.745c-7.255,0-11.75-4.985-11.75-12.106c0-6.899,4.763-12.151,11.75-12.151
			c7.834,0,11.617,6.587,11.173,13.665H686.177z M696.458,160.026c-0.578-3.205-1.958-4.896-5.029-4.896
			c-4.006,0-5.163,3.116-5.252,4.896H696.458z"/>
		<path d="M717.466,174.002h-7.033l-7.878-23.012h6.632l4.852,15.712h0.089l4.852-15.712h6.276L717.466,174.002z"/>
		<path d="M731.307,164.032c0.178,4.006,2.137,5.831,5.652,5.831c2.537,0,4.585-1.558,4.985-2.982h5.563
			c-1.78,5.43-5.563,7.745-10.771,7.745c-7.255,0-11.75-4.985-11.75-12.106c0-6.899,4.763-12.151,11.75-12.151
			c7.834,0,11.617,6.587,11.172,13.665H731.307z M741.588,160.026c-0.578-3.205-1.958-4.896-5.029-4.896
			c-4.006,0-5.163,3.116-5.252,4.896H741.588z"/>
		<path d="M750.756,150.99h6.009v3.205h0.134c1.603-2.582,4.362-3.828,7.032-3.828c6.722,0,8.413,3.783,8.413,9.48v14.154h-6.32
			v-12.997c0-3.783-1.113-5.652-4.051-5.652c-3.428,0-4.896,1.914-4.896,6.587v12.062h-6.32V150.99z"/>
		<path d="M784.27,150.99h4.629v4.229h-4.629v11.395c0,2.137,0.534,2.67,2.671,2.67c0.668,0,1.291-0.044,1.958-0.178v4.94
			c-1.067,0.178-2.447,0.223-3.694,0.223c-3.872,0-7.255-0.89-7.255-5.475v-13.576h-3.828v-4.229h3.828v-6.899h6.32V150.99z"/>
	</g>
</g>
<g>
	<g>
		<path fill="#FF2B06" d="M35.981,37.08H6.327V9.959h91.879V37.08H68.562v78.695H35.981V37.08z"/>
		<path fill="#FF2B06" d="M103.27,9.959h89.192V37.08h-56.59v13.186h56.59v25.203h-56.59v13.187h56.605v27.12H103.27V9.959z"/>
		<path fill="#FF2B06" d="M197.949,9.959h53.5c35.266,0,47.729,26.084,47.729,52.753c0,32.466-17.191,53.063-54.096,53.063h-47.134
			V9.959z M230.549,88.656h12.75c20.309,0,23.278-16.456,23.278-26.396c0-6.656-2.086-25.179-25.652-25.179h-10.376V88.656z"/>
	</g>
	<g>
		<g>
			<path fill="#FF2B06" d="M346.024,74.999l-9.945-16.492l-9.698,16.492h-23.887l22.677-33.346L303.335,9.756h23.895l8.849,15.767
				l9.103-15.767h23.888l-21.829,31.896l22.677,33.346H346.024z"/>
		</g>
	</g>
</g>
<text transform="matrix(1 0 0 1 382.1338 115.792)" font-family="'Helvetica'" font-size="146.9047">UniversitéParisDauphine</text>
</svg>
