<svg width="30" height="30" viewBox="0 0 30 30" fill="none" xmlns="http://www.w3.org/2000/svg">
<circle cx="15" cy="15" r="15" fill="#FF5A5F"/>
<path d="M6.25 12.225V19.375C6.25 20.038 6.51339 20.6739 6.98223 21.1427C7.45107 21.6116 8.08696 21.875 8.75 21.875H21.25C21.913 21.875 22.5489 21.6116 23.0178 21.1427C23.4866 20.6739 23.75 20.038 23.75 19.375V12.225L16.31 16.8025C15.916 17.0449 15.4626 17.1732 15 17.1732C14.5374 17.1732 14.084 17.0449 13.69 16.8025L6.25 12.225Z" fill="white"/>
<path d="M23.75 10.7567V10.625C23.75 9.96196 23.4866 9.32607 23.0178 8.85723C22.5489 8.38839 21.913 8.125 21.25 8.125H8.75C8.08696 8.125 7.45107 8.38839 6.98223 8.85723C6.51339 9.32607 6.25 9.96196 6.25 10.625V10.7567L14.345 15.7383C14.542 15.8595 14.7687 15.9237 15 15.9237C15.2313 15.9237 15.458 15.8595 15.655 15.7383L23.75 10.7567Z" fill="white"/>
</svg>
