<svg width="69" height="69" viewBox="0 0 69 69" fill="none" xmlns="http://www.w3.org/2000/svg">
<rect width="69" height="69" rx="6.4" fill="url(#paint0_linear_6803_5069)"/>
<path d="M37.6641 32.7861C38.2207 33.0059 38.7627 33.2476 39.29 33.5112C39.8174 33.7749 40.3301 34.0752 40.8281 34.4121C40.5059 34.7637 40.2129 35.1299 39.9492 35.5107C39.6855 35.8916 39.4438 36.3018 39.2241 36.7412C38.0962 36.0088 36.895 35.4521 35.6206 35.0713C34.3462 34.6904 33.0352 34.5 31.6875 34.5C30.3984 34.5 29.1533 34.6685 27.9521 35.0054C26.751 35.3423 25.6304 35.811 24.5903 36.4116C23.5503 37.0122 22.6055 37.7446 21.7559 38.6089C20.9062 39.4731 20.1738 40.4253 19.5586 41.4653C18.9434 42.5054 18.4673 43.626 18.1304 44.8271C17.7935 46.0283 17.625 47.2734 17.625 48.5625H14.8125C14.8125 46.8047 15.0688 45.1128 15.5815 43.4868C16.0942 41.8608 16.834 40.3594 17.8008 38.9824C18.7676 37.6055 19.9102 36.3823 21.2285 35.313C22.5469 34.2437 24.041 33.4014 25.7109 32.7861C24.0557 31.7021 22.7666 30.3398 21.8438 28.6992C20.9209 27.0586 20.4521 25.2422 20.4375 23.25C20.4375 21.6973 20.7305 20.2397 21.3164 18.8774C21.9023 17.5151 22.7007 16.3213 23.7114 15.2959C24.7222 14.2705 25.916 13.4648 27.293 12.8789C28.6699 12.293 30.1348 12 31.6875 12C33.2402 12 34.6978 12.293 36.0601 12.8789C37.4224 13.4648 38.6162 14.2632 39.6416 15.2739C40.667 16.2847 41.4727 17.4785 42.0586 18.8555C42.6445 20.2324 42.9375 21.6973 42.9375 23.25C42.9375 24.2168 42.8203 25.1616 42.5859 26.0845C42.3516 27.0073 42 27.8789 41.5312 28.6992C41.0625 29.5195 40.5132 30.2739 39.8833 30.9624C39.2534 31.6509 38.5137 32.2588 37.6641 32.7861ZM23.25 23.25C23.25 24.4219 23.4697 25.5132 23.9092 26.5239C24.3486 27.5347 24.9492 28.4282 25.7109 29.2046C26.4727 29.981 27.3662 30.5889 28.3916 31.0283C29.417 31.4678 30.5156 31.6875 31.6875 31.6875C32.8447 31.6875 33.936 31.4678 34.9614 31.0283C35.9868 30.5889 36.8804 29.9883 37.6421 29.2266C38.4038 28.4648 39.0117 27.5713 39.4658 26.5459C39.9199 25.5205 40.1396 24.4219 40.125 23.25C40.125 22.0928 39.9053 21.0015 39.4658 19.9761C39.0264 18.9507 38.4258 18.0571 37.6641 17.2954C36.9023 16.5337 36.0015 15.9258 34.9614 15.4717C33.9214 15.0176 32.8301 14.7979 31.6875 14.8125C30.5156 14.8125 29.4243 15.0322 28.4136 15.4717C27.4028 15.9111 26.5093 16.5117 25.7329 17.2734C24.9565 18.0352 24.3486 18.936 23.9092 19.9761C23.4697 21.0161 23.25 22.1074 23.25 23.25ZM55.5938 41.5312C55.5938 42.293 55.4766 43.0327 55.2422 43.7505C55.0078 44.4683 54.6563 45.1348 54.1875 45.75V57L48.5625 54.1875L42.9375 57V45.75C42.4834 45.1348 42.1392 44.4683 41.9048 43.7505C41.6704 43.0327 41.5459 42.293 41.5312 41.5312C41.5312 40.5645 41.7144 39.6563 42.0806 38.8066C42.4468 37.957 42.9448 37.2173 43.5747 36.5874C44.2046 35.9575 44.9517 35.4521 45.8159 35.0713C46.6802 34.6904 47.5957 34.5 48.5625 34.5C49.5293 34.5 50.4375 34.6831 51.2871 35.0493C52.1367 35.4155 52.8765 35.9209 53.5063 36.5654C54.1362 37.21 54.6416 37.957 55.0225 38.8066C55.4033 39.6563 55.5938 40.5645 55.5938 41.5312ZM48.5625 37.3125C47.9766 37.3125 47.4272 37.4224 46.9146 37.6421C46.4019 37.8618 45.9551 38.1621 45.5742 38.543C45.1934 38.9238 44.8931 39.3706 44.6733 39.8833C44.4536 40.396 44.3438 40.9453 44.3438 41.5312C44.3438 42.1172 44.4536 42.6665 44.6733 43.1792C44.8931 43.6919 45.1934 44.1387 45.5742 44.5195C45.9551 44.9004 46.4019 45.2007 46.9146 45.4204C47.4272 45.6401 47.9766 45.75 48.5625 45.75C49.1484 45.75 49.6978 45.6401 50.2104 45.4204C50.7231 45.2007 51.1699 44.9004 51.5508 44.5195C51.9316 44.1387 52.2319 43.6919 52.4517 43.1792C52.6714 42.6665 52.7812 42.1172 52.7812 41.5312C52.7812 40.9453 52.6714 40.396 52.4517 39.8833C52.2319 39.3706 51.9316 38.9238 51.5508 38.543C51.1699 38.1621 50.7231 37.8618 50.2104 37.6421C49.6978 37.4224 49.1484 37.3125 48.5625 37.3125ZM51.375 52.4517V47.9692C50.4961 48.3647 49.5586 48.5625 48.5625 48.5625C47.5664 48.5625 46.6289 48.3647 45.75 47.9692V52.4517C46.2188 52.2173 46.6875 51.9902 47.1562 51.7705C47.625 51.5508 48.0937 51.3091 48.5625 51.0454C49.0313 51.2944 49.5 51.5288 49.9688 51.7485C50.4375 51.9683 50.9062 52.2026 51.375 52.4517Z" fill="white"/>
<defs>
<linearGradient id="paint0_linear_6803_5069" x1="34.5" y1="0" x2="34.5" y2="69" gradientUnits="userSpaceOnUse">
<stop stop-color="#BB57EA"/>
<stop offset="1" stop-color="#5E4BF5"/>
</linearGradient>
</defs>
</svg>
