<svg width="155" height="40" viewBox="0 0 155 40" fill="none" xmlns="http://www.w3.org/2000/svg">
<g clip-path="url(#clip0_3858_4636)">
<mask id="mask0_3858_4636" style="mask-type:luminance" maskUnits="userSpaceOnUse" x="0" y="-1" width="155" height="41">
<path d="M154.631 -0.00195312H0V39.9981H154.631V-0.00195312Z" fill="white"/>
</mask>
<g mask="url(#mask0_3858_4636)">
<path d="M50.709 33.5552V9.15009H66.8679V13.4043H55.869V19.2196H65.7954V23.4738H55.869V33.5552H50.709ZM70.2432 33.5552V15.2514H75.3197V33.5552H70.2432ZM72.7935 12.8919C72.0386 12.8919 71.3911 12.6416 70.851 12.1411C70.3186 11.6327 70.0526 11.025 70.0526 10.3179C70.0526 9.61881 70.3186 9.019 70.851 8.51852C71.3911 8.01006 72.0386 7.75586 72.7935 7.75586C73.5482 7.75586 74.1917 8.01006 74.724 8.51852C75.2641 9.019 75.5342 9.61881 75.5342 10.3179C75.5342 11.025 75.2641 11.6327 74.724 12.1411C74.1917 12.6416 73.5482 12.8919 72.7935 12.8919ZM84.4628 9.15009V33.5552H79.3863V9.15009H84.4628ZM93.6056 9.15009V33.5552H88.5294V9.15009H93.6056ZM105.942 33.9128C104.091 33.9128 102.49 33.5195 101.14 32.7329C99.7973 31.9386 98.7605 30.8341 98.0298 29.4202C97.2988 27.9982 96.9334 26.3497 96.9334 24.4748C96.9334 22.584 97.2988 20.9316 98.0298 19.5175C98.7605 18.0955 99.7973 16.9912 101.14 16.2047C102.49 15.4102 104.091 15.013 105.942 15.013C107.793 15.013 109.39 15.4102 110.733 16.2047C112.083 16.9912 113.124 18.0955 113.855 19.5175C114.586 20.9316 114.951 22.584 114.951 24.4748C114.951 26.3497 114.586 27.9982 113.855 29.4202C113.124 30.8341 112.083 31.9386 110.733 32.7329C109.39 33.5195 107.793 33.9128 105.942 33.9128ZM105.966 29.9802C106.808 29.9802 107.511 29.7418 108.075 29.2653C108.639 28.7807 109.064 28.1214 109.351 27.287C109.644 26.4529 109.791 25.5036 109.791 24.4391C109.791 23.3745 109.644 22.4251 109.351 21.591C109.064 20.7568 108.639 20.0974 108.075 19.6128C107.511 19.1282 106.808 18.8859 105.966 18.8859C105.116 18.8859 104.401 19.1282 103.821 19.6128C103.249 20.0974 102.816 20.7568 102.522 21.591C102.236 22.4251 102.093 23.3745 102.093 24.4391C102.093 25.5036 102.236 26.4529 102.522 27.287C102.816 28.1214 103.249 28.7807 103.821 29.2653C104.401 29.7418 105.116 29.9802 105.966 29.9802ZM129.99 25.7618V15.2514H135.066V33.5552H130.192V30.2304H130.002C129.589 31.3029 128.901 32.1649 127.94 32.8164C126.987 33.4677 125.823 33.7936 124.449 33.7936C123.225 33.7936 122.149 33.5155 121.219 32.9595C120.29 32.4033 119.563 31.6129 119.039 30.588C118.522 29.5633 118.26 28.3359 118.252 26.9058V15.2514H123.329V26.0001C123.337 27.0806 123.627 27.9345 124.199 28.5622C124.77 29.1898 125.537 29.5037 126.499 29.5037C127.11 29.5037 127.682 29.3646 128.214 29.0865C128.747 28.8006 129.176 28.3794 129.501 27.8234C129.835 27.2672 129.998 26.58 129.99 25.7618ZM148.863 15.2514V19.0647H137.84V15.2514H148.863ZM140.343 10.8661H145.419V27.9305C145.419 28.3992 145.49 28.7649 145.634 29.0269C145.776 29.2811 145.975 29.4599 146.229 29.5633C146.492 29.6664 146.793 29.7182 147.135 29.7182C147.373 29.7182 147.612 29.6983 147.85 29.6586C148.088 29.6108 148.271 29.5751 148.398 29.5512L149.197 33.3289C148.942 33.4084 148.585 33.4996 148.124 33.603C147.663 33.7141 147.103 33.7815 146.444 33.8054C145.22 33.8532 144.148 33.6903 143.226 33.3168C142.313 32.9434 141.602 32.3635 141.093 31.577C140.585 30.7907 140.334 29.7976 140.343 28.5979V10.8661Z" fill="#111827"/>
<path d="M34.6285 6.17188H7.7829C5.85546 6.17188 4.29297 7.73437 4.29297 9.66181C4.29297 11.5892 5.85546 13.1517 7.7829 13.1517H34.6285C36.556 13.1517 38.1185 11.5892 38.1185 9.66181C38.1185 7.73437 36.556 6.17188 34.6285 6.17188Z" fill="#EC4899"/>
<path d="M34.6285 17.1777H7.7829C5.85546 17.1777 4.29297 18.7402 4.29297 20.6677C4.29297 22.5951 5.85546 24.1576 7.7829 24.1576H34.6285C36.556 24.1576 38.1185 22.5951 38.1185 20.6677C38.1185 18.7402 36.556 17.1777 34.6285 17.1777Z" fill="#38BDF8"/>
<path d="M21.7426 28.1855H7.7829C5.85547 28.1855 4.29297 29.748 4.29297 31.6755C4.29297 33.6029 5.85547 35.1654 7.7829 35.1654H21.7426C23.6701 35.1654 25.2326 33.6029 25.2326 31.6755C25.2326 29.748 23.6701 28.1855 21.7426 28.1855Z" fill="#FBBF24"/>
<path d="M34.629 28.1855H30.3337C28.4062 28.1855 26.8438 29.748 26.8438 31.6755C26.8438 33.6029 28.4062 35.1654 30.3337 35.1654H34.629C36.5564 35.1654 38.1189 33.6029 38.1189 31.6755C38.1189 29.748 36.5564 28.1855 34.629 28.1855Z" fill="#34D399"/>
</g>
</g>
<defs>
<clipPath id="clip0_3858_4636">
<rect width="154.631" height="40" fill="white"/>
</clipPath>
</defs>
</svg>
