
<svg width="336" height="167" viewBox="0 0 336 167" fill="none" xmlns="http://www.w3.org/2000/svg">
<g clip-path="url(#clip0_3421_30985)">
<rect width="336" height="167" rx="4" fill="#F7F3FF"/>
<rect width="168" height="167" fill="white"/>
<path d="M36.2319 81.5826C36.2319 82.1353 35.7469 82.5834 35.1485 82.5834C34.5502 82.5834 34.0652 82.1353 34.0652 81.5826C34.0652 81.0298 34.5502 80.5973 35.1485 80.5973C35.7469 80.5973 36.2319 81.0298 36.2319 81.5826Z" fill="#6434D0"/>
<path d="M40.0237 81.5904C40.0237 82.1388 39.5386 82.5834 38.9403 82.5834C38.342 82.5834 37.8569 82.1388 37.8569 81.5904C37.8569 81.0419 38.342 80.5973 38.9403 80.5973C39.5386 80.5973 40.0237 81.0419 40.0237 81.5904Z" fill="#6434D0"/>
<path fill-rule="evenodd" clip-rule="evenodd" d="M32.5756 75.7383C31.7529 75.7383 31.0859 76.437 31.0859 77.2988V90.5635C31.0859 91.4254 31.7529 92.1241 32.5756 92.1241H41.5133C42.336 92.1241 43.0029 91.4254 43.0029 90.5635V77.2988C43.0029 76.437 42.336 75.7383 41.5133 75.7383H32.5756ZM34.4376 79.6397C33.4092 79.6397 32.5756 80.513 32.5756 81.5904C32.5756 82.6677 33.4092 83.541 34.4376 83.541H39.6513C40.6796 83.541 41.5133 82.6677 41.5133 81.5904C41.5133 80.513 40.6796 79.6397 39.6513 79.6397H34.4376Z" fill="#6434D0"/>
<path d="M52.2084 89.9316V76.3587H61.3271V78.6719H54.8465V82.1702H60.2374V84.3113H54.8465V89.9316H52.2084ZM67.3483 90.1228C66.5326 90.1228 65.7998 89.989 65.1498 89.7214C64.4999 89.441 63.9455 89.0586 63.4867 88.5743C63.0406 88.0901 62.6965 87.5357 62.4544 86.9112C62.2122 86.2867 62.0911 85.6304 62.0911 84.9422C62.0911 84.2412 62.2122 83.5785 62.4544 82.954C62.6965 82.3295 63.0406 81.7751 63.4867 81.2909C63.9455 80.8066 64.4999 80.4306 65.1498 80.163C65.7998 79.8826 66.5326 79.7424 67.3483 79.7424C68.1639 79.7424 68.8903 79.8826 69.5276 80.163C70.1775 80.4306 70.7319 80.8066 71.1907 81.2909C71.6495 81.7751 71.9936 82.3295 72.223 82.954C72.4652 83.5785 72.5863 84.2412 72.5863 84.9422C72.5863 85.6304 72.4652 86.2867 72.223 86.9112C71.9936 87.5357 71.6495 88.0901 71.1907 88.5743C70.7447 89.0586 70.1967 89.441 69.5467 89.7214C68.8967 89.989 68.1639 90.1228 67.3483 90.1228ZM64.7293 84.9422C64.7293 85.5284 64.844 86.0509 65.0734 86.5097C65.3028 86.9558 65.615 87.3063 66.0101 87.5612C66.4052 87.816 66.8512 87.9435 67.3483 87.9435C67.8325 87.9435 68.2722 87.816 68.6673 87.5612C69.0624 87.2935 69.3746 86.9367 69.604 86.4906C69.8462 86.0318 69.9673 85.5093 69.9673 84.923C69.9673 84.3495 69.8462 83.8334 69.604 83.3746C69.3746 82.9158 69.0624 82.5589 68.6673 82.304C68.2722 82.0492 67.8325 81.9217 67.3483 81.9217C66.8512 81.9217 66.4052 82.0555 66.0101 82.3232C65.615 82.578 65.3028 82.9349 65.0734 83.3937C64.844 83.8398 64.7293 84.3559 64.7293 84.9422ZM80.6621 82.132C79.8846 82.132 79.1901 82.2849 78.5783 82.5908C77.9666 82.8839 77.5269 83.3109 77.2593 83.8716V89.9316H74.6976V79.9144H77.049V82.0555C77.4058 81.3673 77.8583 80.8257 78.4063 80.4306C78.9543 80.0355 79.5342 79.8189 80.1459 79.7806C80.2861 79.7806 80.3944 79.7806 80.4709 79.7806C80.5474 79.7806 80.6111 79.787 80.6621 79.7997V82.132ZM98.0338 89.9316H95.4722V84.3113C95.4722 83.5211 95.332 82.9413 95.0516 82.5717C94.784 82.1893 94.408 81.9982 93.9237 81.9982C93.4267 81.9982 92.9488 82.1957 92.49 82.5908C92.0439 82.9731 91.7253 83.4765 91.5341 84.101V89.9316H88.9725V84.3113C88.9725 83.5084 88.8323 82.9222 88.5519 82.5526C88.2843 82.183 87.9083 81.9982 87.424 81.9982C86.927 81.9982 86.4491 82.1893 85.9903 82.5717C85.5442 82.954 85.2256 83.4574 85.0344 84.0819V89.9316H82.4728V79.9144H84.7859V81.7688C85.1682 81.1188 85.678 80.6218 86.3152 80.2777C86.9525 79.9208 87.6853 79.7424 88.5137 79.7424C89.3421 79.7424 89.9857 79.9463 90.4445 80.3541C90.916 80.762 91.2155 81.2654 91.343 81.8644C91.7508 81.1762 92.2669 80.6536 92.8914 80.2968C93.5286 79.9272 94.2423 79.7424 95.0325 79.7424C95.657 79.7424 96.1604 79.8571 96.5427 80.0865C96.9378 80.3032 97.2437 80.6026 97.4603 80.985C97.677 81.3546 97.8236 81.7751 97.9 82.2467C97.9892 82.7182 98.0338 83.1962 98.0338 83.6805V89.9316ZM105.292 90.1228C104.489 90.1228 103.762 89.989 103.112 89.7214C102.463 89.441 101.908 89.065 101.449 88.5935C100.991 88.1092 100.634 87.5612 100.379 86.9494C100.137 86.3249 100.016 85.6686 100.016 84.9804C100.016 84.0246 100.226 83.1516 100.646 82.3614C101.08 81.5712 101.691 80.9404 102.482 80.4688C103.285 79.9845 104.228 79.7424 105.311 79.7424C106.407 79.7424 107.344 79.9845 108.121 80.4688C108.898 80.9404 109.491 81.5712 109.899 82.3614C110.32 83.1388 110.53 83.9799 110.53 84.8848C110.53 85.0377 110.523 85.197 110.511 85.3627C110.498 85.5157 110.485 85.6431 110.472 85.7451H102.73C102.781 86.2548 102.928 86.7009 103.17 87.0832C103.425 87.4656 103.743 87.7587 104.126 87.9626C104.521 88.1538 104.941 88.2494 105.387 88.2494C105.897 88.2494 106.375 88.1283 106.821 87.8861C107.28 87.6313 107.592 87.2999 107.758 86.8921L109.956 87.5038C109.714 88.0136 109.364 88.466 108.905 88.8611C108.459 89.2562 107.93 89.5684 107.318 89.7978C106.706 90.0145 106.031 90.1228 105.292 90.1228ZM102.673 84.1201H107.911C107.86 83.6104 107.713 83.1707 107.471 82.8011C107.242 82.4187 106.936 82.1256 106.554 81.9217C106.171 81.705 105.744 81.5967 105.273 81.5967C104.814 81.5967 104.393 81.705 104.011 81.9217C103.641 82.1256 103.336 82.4187 103.093 82.8011C102.864 83.1707 102.724 83.6104 102.673 84.1201ZM116.162 90.1228C115.308 90.1228 114.493 89.9826 113.715 89.7022C112.938 89.4219 112.269 89.0077 111.708 88.4596L112.626 86.7965C113.225 87.2808 113.811 87.6376 114.384 87.867C114.971 88.0964 115.531 88.2111 116.067 88.2111C116.564 88.2111 116.959 88.1219 117.252 87.9435C117.558 87.7651 117.711 87.4974 117.711 87.1406C117.711 86.8984 117.628 86.7136 117.462 86.5862C117.296 86.446 117.054 86.3249 116.736 86.223C116.43 86.121 116.054 86.0063 115.608 85.8789C114.869 85.6367 114.251 85.401 113.754 85.1716C113.256 84.9422 112.881 84.6554 112.626 84.3113C112.383 83.9545 112.262 83.502 112.262 82.954C112.262 82.2913 112.428 81.7242 112.759 81.2526C113.104 80.7683 113.575 80.3924 114.174 80.1247C114.786 79.8571 115.5 79.7233 116.315 79.7233C117.029 79.7233 117.704 79.838 118.342 80.0674C118.979 80.284 119.559 80.6409 120.081 81.1379L119.049 82.7628C118.539 82.3678 118.055 82.081 117.596 81.9026C117.137 81.7114 116.672 81.6158 116.2 81.6158C115.933 81.6158 115.678 81.6477 115.436 81.7114C115.206 81.7751 115.015 81.8835 114.862 82.0364C114.722 82.1766 114.652 82.3805 114.652 82.6481C114.652 82.8903 114.716 83.0815 114.843 83.2216C114.983 83.3491 115.187 83.4638 115.455 83.5657C115.735 83.6677 116.073 83.7824 116.468 83.9099C117.271 84.1393 117.946 84.375 118.494 84.6172C119.055 84.8593 119.476 85.1588 119.756 85.5157C120.037 85.8598 120.177 86.3377 120.177 86.9494C120.177 87.9435 119.814 88.7209 119.087 89.2817C118.361 89.8424 117.386 90.1228 116.162 90.1228ZM128.248 89.4155C128.031 89.5047 127.77 89.6067 127.464 89.7214C127.158 89.8361 126.827 89.9253 126.47 89.989C126.126 90.0655 125.776 90.1037 125.419 90.1037C124.947 90.1037 124.514 90.0209 124.119 89.8552C123.724 89.6895 123.405 89.4282 123.163 89.0714C122.934 88.7018 122.819 88.2239 122.819 87.6376V81.8835H121.5V79.9144H122.819V76.6646H125.381V79.9144H127.483V81.8835H125.381V86.7774C125.393 87.1215 125.489 87.37 125.667 87.5229C125.846 87.6759 126.069 87.7523 126.336 87.7523C126.604 87.7523 126.865 87.7077 127.12 87.6185C127.375 87.5293 127.579 87.4528 127.732 87.3891L128.248 89.4155ZM134.498 90.1228C133.695 90.1228 132.969 89.989 132.319 89.7214C131.669 89.441 131.114 89.065 130.655 88.5935C130.197 88.1092 129.84 87.5612 129.585 86.9494C129.343 86.3249 129.222 85.6686 129.222 84.9804C129.222 84.0246 129.432 83.1516 129.853 82.3614C130.286 81.5712 130.898 80.9404 131.688 80.4688C132.491 79.9845 133.434 79.7424 134.517 79.7424C135.613 79.7424 136.55 79.9845 137.327 80.4688C138.105 80.9404 138.697 81.5712 139.105 82.3614C139.526 83.1388 139.736 83.9799 139.736 84.8848C139.736 85.0377 139.73 85.197 139.717 85.3627C139.704 85.5157 139.691 85.6431 139.679 85.7451H131.936C131.987 86.2548 132.134 86.7009 132.376 87.0832C132.631 87.4656 132.949 87.7587 133.332 87.9626C133.727 88.1538 134.147 88.2494 134.594 88.2494C135.103 88.2494 135.581 88.1283 136.027 87.8861C136.486 87.6313 136.798 87.2999 136.964 86.8921L139.162 87.5038C138.92 88.0136 138.57 88.466 138.111 88.8611C137.665 89.2562 137.136 89.5684 136.524 89.7978C135.913 90.0145 135.237 90.1228 134.498 90.1228ZM131.879 84.1201H137.117C137.066 83.6104 136.919 83.1707 136.677 82.8011C136.448 82.4187 136.142 82.1256 135.76 81.9217C135.377 81.705 134.95 81.5967 134.479 81.5967C134.02 81.5967 133.599 81.705 133.217 81.9217C132.848 82.1256 132.542 82.4187 132.299 82.8011C132.07 83.1707 131.93 83.6104 131.879 84.1201ZM147.643 82.132C146.866 82.132 146.171 82.2849 145.56 82.5908C144.948 82.8839 144.508 83.3109 144.24 83.8716V89.9316H141.679V79.9144H144.03V82.0555C144.387 81.3673 144.839 80.8257 145.387 80.4306C145.935 80.0355 146.515 79.8189 147.127 79.7806C147.267 79.7806 147.376 79.7806 147.452 79.7806C147.529 79.7806 147.592 79.787 147.643 79.7997V82.132Z" fill="#5B2FBD"/>
<rect width="168" height="167" transform="translate(168)" fill="#F9FAFB"/>
<path d="M223.717 75.541H218.406C213.628 75.541 213.26 77.5993 213.26 80.356V85.4833C213.26 88.3503 213.628 90.2983 218.424 90.2983H223.717C228.495 90.2983 228.863 88.24 228.863 85.5017V80.356C228.863 77.6177 228.495 75.541 223.717 75.541ZM206.387 79.2349C206.387 76.8091 207.342 75.541 208.96 75.541C210.577 75.541 211.532 76.8091 211.532 79.2349V86.6044C211.532 89.0302 210.577 90.2983 208.96 90.2983C207.342 90.2983 206.387 89.0302 206.387 86.6044V79.2349Z" fill="#1A1A19"/>
<path d="M283.481 86.6239C281.956 86.6239 281.165 85.3559 281.165 83.8121C281.165 82.2684 281.937 81.0555 283.481 81.0555C285.061 81.0555 285.797 82.3052 285.797 83.7938C285.797 85.3926 285.006 86.6239 283.481 86.6239ZM268.485 81.0555C269.385 81.0555 269.753 81.5701 269.753 82.0295C269.753 83.1322 268.632 83.61 266.298 83.6835C266.298 82.3235 267.07 81.0555 268.485 81.0555ZM258.524 86.6239C257.072 86.6239 256.466 85.4478 256.466 83.8121C256.466 82.1949 257.091 81.0739 258.524 81.0739C259.994 81.0739 260.674 82.2317 260.674 83.8121C260.693 85.4478 259.958 86.6239 258.524 86.6239ZM246.266 79.4566H244.006L247.773 88.0758C247.056 89.6746 246.67 90.0606 246.174 90.0606C245.641 90.0606 245.145 89.6379 244.796 89.2703L243.804 90.5935C244.484 91.3102 245.402 91.7145 246.358 91.7145C247.553 91.7145 248.453 91.0346 248.986 89.7849L253.323 79.4383H251.1L248.839 85.6132L246.266 79.4566ZM306.288 81.0555C307.39 81.0555 307.611 81.809 307.611 83.5732V88.2228H309.577V82.3419C309.577 80.2285 308.125 79.3096 306.784 79.3096C305.589 79.3096 304.505 80.0447 303.899 81.423C303.549 80.0998 302.447 79.3096 301.16 79.3096C300.039 79.3096 298.918 80.0263 298.312 81.3495V79.4566H296.345V88.2228H298.312V84.4737C298.312 82.5808 299.304 81.0555 300.664 81.0555C301.767 81.0555 301.969 81.809 301.969 83.5732V88.2228H303.935L303.917 84.4554C303.917 82.5808 304.928 81.0555 306.288 81.0555ZM290.556 79.4566H289.637V88.2228H291.604V84.8597C291.604 82.7279 292.541 81.2944 293.938 81.2944C294.305 81.2944 294.599 81.3128 294.93 81.4414L295.243 79.3647C294.985 79.3464 294.765 79.3096 294.544 79.3096C293.166 79.3096 292.174 80.2652 291.585 81.4782V79.4566H290.556ZM283.481 79.328C280.89 79.328 279.125 81.3128 279.125 83.7938C279.125 86.385 280.908 88.3147 283.481 88.3147C286.091 88.3147 287.873 86.3299 287.873 83.7938C287.873 81.276 286.054 79.328 283.481 79.328ZM268.595 86.6239C267.566 86.6239 266.812 86.1094 266.5 85.0434C269.091 84.9332 271.646 84.3083 271.646 82.0111C271.646 80.6879 270.341 79.328 268.485 79.328C265.967 79.328 264.276 81.3679 264.276 83.7938C264.276 86.3299 265.949 88.3147 268.448 88.3147C270.194 88.3147 271.297 87.6163 272.16 86.6056L271.205 85.3191C270.176 86.3666 269.551 86.6239 268.595 86.6239ZM258.91 79.328C257.918 79.328 256.925 79.8977 256.539 80.8166V79.475H254.573V91.6962H256.539V87.3039C256.962 87.9287 257.899 88.3514 258.745 88.3514C261.354 88.3514 262.733 86.4218 262.733 83.8121C262.733 81.2209 261.373 79.328 258.91 79.328ZM245.145 75.9465H235.883V77.8578H239.503V88.2228H241.562V77.8578H245.145V75.9465ZM274.329 79.4566H273.153V81.2209H274.329V88.2228H276.295V81.2209H278.207V79.4566H276.295V78.0783C276.295 77.1962 276.663 76.9021 277.471 76.9021C277.784 76.9021 278.06 76.9756 278.427 77.1043L278.868 75.4503C278.501 75.2481 277.784 75.1562 277.324 75.1562C275.45 75.1562 274.347 76.2773 274.347 78.2253V79.4566H274.329Z" fill="#1A1A19"/>
<circle cx="167.992" cy="83.9916" r="14.9916" fill="white"/>
<path d="M162.022 79.2737L164.292 86.1392H164.382L166.648 79.2737H168.385L165.31 87.9961H163.36L160.289 79.2737H162.022ZM174.274 81.6715C174.235 81.2995 174.067 81.0099 173.772 80.8027C173.479 80.5954 173.099 80.4918 172.63 80.4918C172.301 80.4918 172.019 80.5414 171.783 80.6408C171.547 80.7402 171.367 80.8751 171.242 81.0454C171.117 81.2158 171.053 81.4103 171.05 81.6289C171.05 81.8106 171.092 81.9682 171.174 82.1016C171.259 82.2351 171.374 82.3487 171.519 82.4424C171.664 82.5332 171.824 82.6099 172 82.6724C172.176 82.7348 172.354 82.7873 172.533 82.8299L173.35 83.0344C173.68 83.111 173.996 83.2147 174.3 83.3453C174.607 83.4759 174.881 83.6406 175.122 83.8393C175.366 84.0381 175.559 84.278 175.701 84.5591C175.843 84.8402 175.914 85.1695 175.914 85.5472C175.914 86.0583 175.784 86.5083 175.522 86.8973C175.261 87.2834 174.883 87.5858 174.389 87.8044C173.898 88.0202 173.303 88.1281 172.605 88.1281C171.926 88.1281 171.337 88.0231 170.837 87.813C170.341 87.6028 169.952 87.2962 169.67 86.893C169.392 86.4898 169.242 85.9986 169.219 85.4194H170.774C170.796 85.7232 170.89 85.9759 171.055 86.1775C171.219 86.3791 171.434 86.5296 171.698 86.629C171.965 86.7283 172.263 86.778 172.592 86.778C172.936 86.778 173.237 86.7269 173.495 86.6247C173.756 86.5196 173.961 86.3748 174.108 86.1903C174.256 86.0029 174.331 85.7843 174.334 85.5344C174.331 85.3073 174.265 85.1199 174.134 84.9722C174.003 84.8217 173.82 84.6968 173.584 84.5974C173.352 84.4952 173.079 84.4043 172.767 84.3248L171.774 84.0693C171.056 83.8847 170.488 83.6051 170.071 83.2303C169.656 82.8527 169.449 82.3515 169.449 81.7269C169.449 81.2129 169.588 80.7629 169.866 80.3768C170.147 79.9906 170.529 79.6911 171.012 79.4781C171.495 79.2623 172.041 79.1544 172.652 79.1544C173.271 79.1544 173.813 79.2623 174.279 79.4781C174.747 79.6911 175.115 79.9878 175.382 80.3682C175.649 80.7459 175.786 81.1803 175.795 81.6715H174.274Z" fill="#101828"/>
</g>
<rect x="0.718612" y="0.718612" width="334.563" height="165.563" rx="3.28139" stroke="#EAECF0" stroke-width="1.43722"/>
<defs>
<clipPath id="clip0_3421_30985">
<rect width="336" height="167" rx="4" fill="white"/>
</clipPath>
</defs>
</svg>
