<svg width="168" height="29" viewBox="0 0 168 29" fill="none" xmlns="http://www.w3.org/2000/svg">
<g clip-path="url(#clip0_5589_13948)">
<path fill-rule="evenodd" clip-rule="evenodd" d="M41.7964 12.2264H39.2832V10.0797H41.7964V8.17834C41.7964 6.7063 42.2304 5.54607 43.0984 4.6976C43.9664 3.84913 45.1674 3.42491 46.7016 3.42491C47.3475 3.42491 47.9581 3.52713 48.5334 3.73158C49.1087 3.93603 49.5781 4.22226 49.9414 4.59027L48.8514 6.4303C48.3467 5.98051 47.7209 5.75562 46.9741 5.75562C46.3079 5.75562 45.778 5.98563 45.3844 6.44564C44.9908 6.90565 44.794 7.53432 44.794 8.33168V10.0797H49.0936V12.2264H44.794V25.4134H41.7964V12.2264ZM56.2324 25.72C53.911 25.72 52.0842 25.0096 50.7519 23.5887C49.4197 22.1677 48.7535 20.2204 48.7535 17.7465C48.7535 15.2727 49.4197 13.3253 50.7519 11.9044C52.0842 10.4835 53.911 9.77304 56.2324 9.77304C58.5538 9.77304 60.3857 10.4835 61.7281 11.9044C63.0704 13.3253 63.7416 15.2727 63.7416 17.7465C63.7416 20.2204 63.0704 22.1677 61.7281 23.5887C60.3857 25.0096 58.5538 25.72 56.2324 25.72ZM56.2324 23.42C57.6253 23.42 58.7254 22.914 59.5328 21.902C60.3403 20.8899 60.744 19.5048 60.744 17.7465C60.744 15.9883 60.3403 14.6031 59.5328 13.5911C58.7254 12.5791 57.6253 12.0731 56.2324 12.0731C54.8194 12.0731 53.7193 12.5791 52.932 13.5911C52.1448 14.6031 51.7512 15.9883 51.7512 17.7465C51.7512 19.5048 52.1448 20.8899 52.932 21.902C53.7193 22.914 54.8194 23.42 56.2324 23.42ZM66.0964 13.8211C66.0964 12.0833 66.0661 10.8362 66.0056 10.0797H68.8215C68.9022 10.8975 68.9426 11.7971 68.9426 12.7784V13.0851H69.0334C69.4372 12.0424 70.0781 11.2297 70.9562 10.6471C71.8343 10.0644 72.8688 9.77304 74.0598 9.77304C74.3827 9.77304 74.6754 9.80371 74.9378 9.86504V12.3184C74.7965 12.2775 74.4837 12.2571 73.9992 12.2571C73.111 12.2571 72.2884 12.5178 71.5315 13.0391C70.7745 13.5605 70.179 14.2658 69.745 15.1552C69.311 16.0445 69.094 17.0207 69.094 18.0839V25.4134H66.0964V13.8211ZM76.4145 14.0051C76.4145 12.4513 76.3641 11.1429 76.2631 10.0797H78.9277C79.0084 10.8362 79.0488 11.7357 79.0488 12.7784H79.1396C79.5232 11.8584 80.1439 11.1275 81.0018 10.5857C81.8597 10.0439 82.8337 9.77304 83.9237 9.77304C84.9936 9.77304 85.912 10.0337 86.6791 10.5551C87.4462 11.0764 87.9609 11.8073 88.2233 12.7478C88.6472 11.8277 89.2881 11.102 90.146 10.5704C91.0039 10.0388 91.9678 9.77304 93.0377 9.77304C94.7131 9.77304 96.0202 10.3199 96.9588 11.4137C97.8975 12.5076 98.3668 14.0153 98.3668 15.9372V25.4134H95.3692V16.2132C95.3692 14.9456 95.1017 13.9642 94.5668 13.2691C94.0318 12.574 93.2698 12.2264 92.2807 12.2264C91.2714 12.2264 90.4488 12.5995 89.813 13.3458C89.1771 14.092 88.8592 15.058 88.8592 16.2438V25.4134H85.8918V16.3358C85.8918 13.5962 84.9027 12.2264 82.9245 12.2264C82.2786 12.2264 81.6881 12.4104 81.1532 12.7784C80.6183 13.1464 80.1893 13.6473 79.8663 14.2811C79.5434 14.9149 79.3819 15.5998 79.3819 16.3358V25.4134H76.4145V14.0051ZM105.748 25.72C104.557 25.72 103.487 25.4747 102.538 24.984C101.59 24.4934 100.923 23.8391 100.54 23.0213L102.447 21.7026C102.791 22.2342 103.255 22.6533 103.84 22.96C104.426 23.2667 105.062 23.42 105.748 23.42C106.535 23.42 107.186 23.1951 107.701 22.7453C108.216 22.2955 108.473 21.7231 108.473 21.0279C108.473 20.4759 108.271 20.021 107.867 19.6632C107.464 19.3055 106.717 18.9221 105.627 18.5132C103.871 17.8385 102.634 17.1485 101.918 16.4432C101.201 15.7378 100.843 14.8638 100.843 13.8211C100.843 12.5944 101.322 11.6131 102.281 10.8771C103.24 10.141 104.517 9.77304 106.111 9.77304C107.141 9.77304 108.079 9.98771 108.927 10.4171C109.775 10.8464 110.441 11.4495 110.926 12.2264L109.139 13.5758C108.796 13.0851 108.367 12.712 107.852 12.4564C107.338 12.2009 106.767 12.0731 106.141 12.0731C105.455 12.0731 104.895 12.2264 104.461 12.5331C104.027 12.8398 103.81 13.2384 103.81 13.7291C103.81 14.2402 104.032 14.6645 104.476 15.0018C104.92 15.3392 105.788 15.7634 107.08 16.2745C108.695 16.9083 109.83 17.5676 110.487 18.2526C111.143 18.9375 111.471 19.8217 111.471 20.9053C111.471 22.3569 110.946 23.5222 109.896 24.4014C108.846 25.2805 107.464 25.72 105.748 25.72ZM119.397 25.72C117.984 25.72 116.878 25.2856 116.081 24.4167C115.284 23.5478 114.885 22.3466 114.885 20.8133V12.4104H112.16V10.0797H114.885V6.17155H117.883V10.0797H122.213V12.4104H117.883V20.4453C117.883 21.4471 118.08 22.1831 118.473 22.6533C118.867 23.1235 119.467 23.3587 120.275 23.3587C121.082 23.3587 121.799 23.236 122.425 22.9907L122.606 25.168C121.859 25.536 120.79 25.72 119.397 25.72ZM129.321 25.72C128.332 25.72 127.449 25.5156 126.672 25.1067C125.895 24.6978 125.289 24.1305 124.855 23.4047C124.421 22.6789 124.204 21.856 124.204 20.9359C124.204 19.3821 124.789 18.1912 125.96 17.3632C127.131 16.5352 128.796 16.1212 130.956 16.1212H133.802V15.3545C133.802 14.3322 133.53 13.5451 132.985 12.9931C132.44 12.4411 131.643 12.1651 130.593 12.1651C129.685 12.1651 128.837 12.344 128.049 12.7018C127.262 13.0596 126.616 13.5758 126.112 14.2505L124.689 12.4411C125.415 11.5824 126.298 10.9231 127.338 10.4631C128.378 10.003 129.503 9.77304 130.714 9.77304C132.652 9.77304 134.156 10.2484 135.226 11.1991C136.295 12.1498 136.83 13.494 136.83 15.2318V22.3466C136.83 23.2667 136.951 24.2889 137.194 25.4134H134.559C134.358 24.9227 134.216 24.2378 134.136 23.3587H134.075C132.924 24.9329 131.34 25.72 129.321 25.72ZM129.897 23.3587C130.987 23.3587 131.91 23.0571 132.667 22.454C133.424 21.8508 133.802 21.12 133.802 20.2613V18.2372H130.835C129.644 18.2372 128.731 18.4672 128.095 18.9272C127.459 19.3872 127.141 20.0568 127.141 20.9359C127.141 21.6924 127.388 22.2853 127.883 22.7146C128.378 23.144 129.049 23.3587 129.897 23.3587ZM146.422 25.72C144.141 25.72 142.364 25.0147 141.093 23.604C139.821 22.1933 139.185 20.2408 139.185 17.7465C139.185 15.2318 139.821 13.2742 141.093 11.8738C142.364 10.4733 144.141 9.77304 146.422 9.77304C147.734 9.77304 148.89 10.0286 149.889 10.5397C150.888 11.0508 151.67 11.7869 152.235 12.7478L150.449 14.3731C150.025 13.678 149.47 13.1362 148.784 12.7478C148.097 12.3593 147.35 12.1651 146.543 12.1651C145.17 12.1651 144.1 12.6558 143.333 13.6371C142.566 14.6185 142.183 15.9883 142.183 17.7465C142.183 19.4844 142.566 20.849 143.333 21.8406C144.1 22.8322 145.17 23.328 146.543 23.328C147.35 23.328 148.097 23.1338 148.784 22.7453C149.47 22.3569 150.025 21.8151 150.449 21.1199L152.235 22.7453C151.67 23.7062 150.888 24.4422 149.889 24.9534C148.89 25.4645 147.734 25.72 146.422 25.72ZM163.795 25.4134L158.981 17.8999L156.891 19.9853V25.4134H153.863V3.37891H156.891V16.3358L163.068 10.0797H166.732L161.009 15.8452L167.186 25.4134H163.795Z" fill="#15232B"/>
<path d="M24.4584 0.585938C24.9207 0.585938 25.2954 0.960673 25.2954 1.42293V27.6754C25.2954 28.1376 24.9207 28.5124 24.4584 28.5124H1.02254C0.560283 28.5124 0.185547 28.1376 0.185547 27.6754V1.42293C0.185547 0.960673 0.560283 0.585938 1.02254 0.585938L24.4584 0.585938ZM28.6434 3.37858C29.1057 3.37858 29.4804 3.75332 29.4804 4.21558V24.8827C29.4804 25.345 29.1057 25.7197 28.6434 25.7197H26.6904V3.37858H28.6434ZM32.8284 6.17122C33.2906 6.17122 33.6654 6.54596 33.6654 7.00822V22.0901C33.6654 22.5523 33.2906 22.9271 32.8284 22.9271H30.8754V6.17122H32.8284Z" fill="#21B573"/>
<path d="M10.1794 20.7894C10.2121 20.8362 10.2296 20.8919 10.2296 20.949V23.7875C10.2296 23.9416 10.1047 24.0665 9.9506 24.0665H6.03493C5.8862 24.0665 5.76562 23.946 5.76562 23.7972V23.6735C5.76562 23.5823 5.8102 23.4968 5.88501 23.4446L9.79099 20.7202C9.91737 20.632 10.0913 20.663 10.1794 20.7894ZM16.6165 14.2704C16.7706 14.2704 16.8955 14.3953 16.8955 14.5494C16.8955 14.6412 16.8503 14.7272 16.7746 14.7793L6.20277 22.0531C6.07583 22.1404 5.90212 22.1083 5.81477 21.9814C5.78276 21.9349 5.76562 21.8797 5.76562 21.8232V17.4975C5.76562 17.4118 5.80493 17.331 5.87226 17.2781L9.62454 14.33C9.6737 14.2914 9.7344 14.2704 9.79691 14.2704H16.6165ZM18.9208 5.05469C19.0749 5.05469 19.1998 5.1796 19.1998 5.33369C19.1998 5.4184 19.1613 5.49852 19.0952 5.55147L6.21901 15.8622C6.09874 15.9585 5.92316 15.9391 5.82684 15.8188C5.78722 15.7693 5.76562 15.7078 5.76562 15.6444V5.33369C5.76562 5.1796 5.89054 5.05469 6.04462 5.05469H18.9208Z" fill="white"/>
</g>
<defs>
<clipPath id="clip0_5589_13948">
<rect width="167" height="27.9264" fill="white" transform="translate(0.185547 0.589844)"/>
</clipPath>
</defs>
</svg>
