
<svg width="336" height="167" viewBox="0 0 336 167" fill="none" xmlns="http://www.w3.org/2000/svg">
<g clip-path="url(#clip0_3421_53230)">
<path d="M36.2319 81.5826C36.2319 82.1353 35.7469 82.5834 35.1485 82.5834C34.5502 82.5834 34.0652 82.1353 34.0652 81.5826C34.0652 81.0298 34.5502 80.5973 35.1485 80.5973C35.7469 80.5973 36.2319 81.0298 36.2319 81.5826Z" fill="#6434D0"/>
<path d="M40.0237 81.5904C40.0237 82.1388 39.5386 82.5834 38.9403 82.5834C38.342 82.5834 37.8569 82.1388 37.8569 81.5904C37.8569 81.0419 38.342 80.5973 38.9403 80.5973C39.5386 80.5973 40.0237 81.0419 40.0237 81.5904Z" fill="#6434D0"/>
<path fill-rule="evenodd" clip-rule="evenodd" d="M32.5756 75.7383C31.7529 75.7383 31.0859 76.437 31.0859 77.2988V90.5635C31.0859 91.4254 31.7529 92.1241 32.5756 92.1241H41.5133C42.336 92.1241 43.0029 91.4254 43.0029 90.5635V77.2988C43.0029 76.437 42.336 75.7383 41.5133 75.7383H32.5756ZM34.4376 79.6397C33.4092 79.6397 32.5756 80.513 32.5756 81.5904C32.5756 82.6677 33.4092 83.541 34.4376 83.541H39.6513C40.6796 83.541 41.5133 82.6677 41.5133 81.5904C41.5133 80.513 40.6796 79.6397 39.6513 79.6397H34.4376Z" fill="#6434D0"/>
<path d="M52.2084 89.9316V76.3587H61.3271V78.6719H54.8465V82.1702H60.2374V84.3113H54.8465V89.9316H52.2084ZM67.3483 90.1228C66.5326 90.1228 65.7998 89.989 65.1498 89.7214C64.4999 89.441 63.9455 89.0586 63.4867 88.5743C63.0406 88.0901 62.6965 87.5357 62.4544 86.9112C62.2122 86.2867 62.0911 85.6304 62.0911 84.9422C62.0911 84.2412 62.2122 83.5785 62.4544 82.954C62.6965 82.3295 63.0406 81.7751 63.4867 81.2909C63.9455 80.8066 64.4999 80.4306 65.1498 80.163C65.7998 79.8826 66.5326 79.7424 67.3483 79.7424C68.1639 79.7424 68.8903 79.8826 69.5276 80.163C70.1775 80.4306 70.7319 80.8066 71.1907 81.2909C71.6495 81.7751 71.9936 82.3295 72.223 82.954C72.4652 83.5785 72.5863 84.2412 72.5863 84.9422C72.5863 85.6304 72.4652 86.2867 72.223 86.9112C71.9936 87.5357 71.6495 88.0901 71.1907 88.5743C70.7447 89.0586 70.1967 89.441 69.5467 89.7214C68.8967 89.989 68.1639 90.1228 67.3483 90.1228ZM64.7293 84.9422C64.7293 85.5284 64.844 86.0509 65.0734 86.5097C65.3028 86.9558 65.615 87.3063 66.0101 87.5612C66.4052 87.816 66.8512 87.9435 67.3483 87.9435C67.8325 87.9435 68.2722 87.816 68.6673 87.5612C69.0624 87.2935 69.3746 86.9367 69.604 86.4906C69.8462 86.0318 69.9673 85.5093 69.9673 84.923C69.9673 84.3495 69.8462 83.8334 69.604 83.3746C69.3746 82.9158 69.0624 82.5589 68.6673 82.304C68.2722 82.0492 67.8325 81.9217 67.3483 81.9217C66.8512 81.9217 66.4052 82.0555 66.0101 82.3232C65.615 82.578 65.3028 82.9349 65.0734 83.3937C64.844 83.8398 64.7293 84.3559 64.7293 84.9422ZM80.6621 82.132C79.8846 82.132 79.1901 82.2849 78.5783 82.5908C77.9666 82.8839 77.5269 83.3109 77.2593 83.8716V89.9316H74.6976V79.9144H77.049V82.0555C77.4058 81.3673 77.8583 80.8257 78.4063 80.4306C78.9543 80.0355 79.5342 79.8189 80.1459 79.7806C80.2861 79.7806 80.3944 79.7806 80.4709 79.7806C80.5474 79.7806 80.6111 79.787 80.6621 79.7997V82.132ZM98.0338 89.9316H95.4722V84.3113C95.4722 83.5211 95.332 82.9413 95.0516 82.5717C94.784 82.1893 94.408 81.9982 93.9237 81.9982C93.4267 81.9982 92.9488 82.1957 92.49 82.5908C92.0439 82.9731 91.7253 83.4765 91.5341 84.101V89.9316H88.9725V84.3113C88.9725 83.5084 88.8323 82.9222 88.5519 82.5526C88.2843 82.183 87.9083 81.9982 87.424 81.9982C86.927 81.9982 86.4491 82.1893 85.9903 82.5717C85.5442 82.954 85.2256 83.4574 85.0344 84.0819V89.9316H82.4728V79.9144H84.7859V81.7688C85.1682 81.1188 85.678 80.6218 86.3152 80.2777C86.9525 79.9208 87.6853 79.7424 88.5137 79.7424C89.3421 79.7424 89.9857 79.9463 90.4445 80.3541C90.916 80.762 91.2155 81.2654 91.343 81.8644C91.7508 81.1762 92.2669 80.6536 92.8914 80.2968C93.5286 79.9272 94.2423 79.7424 95.0325 79.7424C95.657 79.7424 96.1604 79.8571 96.5427 80.0865C96.9378 80.3032 97.2437 80.6026 97.4603 80.985C97.677 81.3546 97.8236 81.7751 97.9 82.2467C97.9892 82.7182 98.0338 83.1962 98.0338 83.6805V89.9316ZM105.292 90.1228C104.489 90.1228 103.762 89.989 103.112 89.7214C102.463 89.441 101.908 89.065 101.449 88.5935C100.991 88.1092 100.634 87.5612 100.379 86.9494C100.137 86.3249 100.016 85.6686 100.016 84.9804C100.016 84.0246 100.226 83.1516 100.646 82.3614C101.08 81.5712 101.691 80.9404 102.482 80.4688C103.285 79.9845 104.228 79.7424 105.311 79.7424C106.407 79.7424 107.344 79.9845 108.121 80.4688C108.898 80.9404 109.491 81.5712 109.899 82.3614C110.32 83.1388 110.53 83.9799 110.53 84.8848C110.53 85.0377 110.523 85.197 110.511 85.3627C110.498 85.5157 110.485 85.6431 110.472 85.7451H102.73C102.781 86.2548 102.928 86.7009 103.17 87.0832C103.425 87.4656 103.743 87.7587 104.126 87.9626C104.521 88.1538 104.941 88.2494 105.387 88.2494C105.897 88.2494 106.375 88.1283 106.821 87.8861C107.28 87.6313 107.592 87.2999 107.758 86.8921L109.956 87.5038C109.714 88.0136 109.364 88.466 108.905 88.8611C108.459 89.2562 107.93 89.5684 107.318 89.7978C106.706 90.0145 106.031 90.1228 105.292 90.1228ZM102.673 84.1201H107.911C107.86 83.6104 107.713 83.1707 107.471 82.8011C107.242 82.4187 106.936 82.1256 106.554 81.9217C106.171 81.705 105.744 81.5967 105.273 81.5967C104.814 81.5967 104.393 81.705 104.011 81.9217C103.641 82.1256 103.336 82.4187 103.093 82.8011C102.864 83.1707 102.724 83.6104 102.673 84.1201ZM116.162 90.1228C115.308 90.1228 114.493 89.9826 113.715 89.7022C112.938 89.4219 112.269 89.0077 111.708 88.4596L112.626 86.7965C113.225 87.2808 113.811 87.6376 114.384 87.867C114.971 88.0964 115.531 88.2111 116.067 88.2111C116.564 88.2111 116.959 88.1219 117.252 87.9435C117.558 87.7651 117.711 87.4974 117.711 87.1406C117.711 86.8984 117.628 86.7136 117.462 86.5862C117.296 86.446 117.054 86.3249 116.736 86.223C116.43 86.121 116.054 86.0063 115.608 85.8789C114.869 85.6367 114.251 85.401 113.754 85.1716C113.256 84.9422 112.881 84.6554 112.626 84.3113C112.383 83.9545 112.262 83.502 112.262 82.954C112.262 82.2913 112.428 81.7242 112.759 81.2526C113.104 80.7683 113.575 80.3924 114.174 80.1247C114.786 79.8571 115.5 79.7233 116.315 79.7233C117.029 79.7233 117.704 79.838 118.342 80.0674C118.979 80.284 119.559 80.6409 120.081 81.1379L119.049 82.7628C118.539 82.3678 118.055 82.081 117.596 81.9026C117.137 81.7114 116.672 81.6158 116.2 81.6158C115.933 81.6158 115.678 81.6477 115.436 81.7114C115.206 81.7751 115.015 81.8835 114.862 82.0364C114.722 82.1766 114.652 82.3805 114.652 82.6481C114.652 82.8903 114.716 83.0815 114.843 83.2216C114.983 83.3491 115.187 83.4638 115.455 83.5657C115.735 83.6677 116.073 83.7824 116.468 83.9099C117.271 84.1393 117.946 84.375 118.494 84.6172C119.055 84.8593 119.476 85.1588 119.756 85.5157C120.037 85.8598 120.177 86.3377 120.177 86.9494C120.177 87.9435 119.814 88.7209 119.087 89.2817C118.361 89.8424 117.386 90.1228 116.162 90.1228ZM128.248 89.4155C128.031 89.5047 127.77 89.6067 127.464 89.7214C127.158 89.8361 126.827 89.9253 126.47 89.989C126.126 90.0655 125.776 90.1037 125.419 90.1037C124.947 90.1037 124.514 90.0209 124.119 89.8552C123.724 89.6895 123.405 89.4282 123.163 89.0714C122.934 88.7018 122.819 88.2239 122.819 87.6376V81.8835H121.5V79.9144H122.819V76.6646H125.381V79.9144H127.483V81.8835H125.381V86.7774C125.393 87.1215 125.489 87.37 125.667 87.5229C125.846 87.6759 126.069 87.7523 126.336 87.7523C126.604 87.7523 126.865 87.7077 127.12 87.6185C127.375 87.5293 127.579 87.4528 127.732 87.3891L128.248 89.4155ZM134.498 90.1228C133.695 90.1228 132.969 89.989 132.319 89.7214C131.669 89.441 131.114 89.065 130.655 88.5935C130.197 88.1092 129.84 87.5612 129.585 86.9494C129.343 86.3249 129.222 85.6686 129.222 84.9804C129.222 84.0246 129.432 83.1516 129.853 82.3614C130.286 81.5712 130.898 80.9404 131.688 80.4688C132.491 79.9845 133.434 79.7424 134.517 79.7424C135.613 79.7424 136.55 79.9845 137.327 80.4688C138.105 80.9404 138.697 81.5712 139.105 82.3614C139.526 83.1388 139.736 83.9799 139.736 84.8848C139.736 85.0377 139.73 85.197 139.717 85.3627C139.704 85.5157 139.691 85.6431 139.679 85.7451H131.936C131.987 86.2548 132.134 86.7009 132.376 87.0832C132.631 87.4656 132.949 87.7587 133.332 87.9626C133.727 88.1538 134.147 88.2494 134.594 88.2494C135.103 88.2494 135.581 88.1283 136.027 87.8861C136.486 87.6313 136.798 87.2999 136.964 86.8921L139.162 87.5038C138.92 88.0136 138.57 88.466 138.111 88.8611C137.665 89.2562 137.136 89.5684 136.524 89.7978C135.913 90.0145 135.237 90.1228 134.498 90.1228ZM131.879 84.1201H137.117C137.066 83.6104 136.919 83.1707 136.677 82.8011C136.448 82.4187 136.142 82.1256 135.76 81.9217C135.377 81.705 134.95 81.5967 134.479 81.5967C134.02 81.5967 133.599 81.705 133.217 81.9217C132.848 82.1256 132.542 82.4187 132.299 82.8011C132.07 83.1707 131.93 83.6104 131.879 84.1201ZM147.643 82.132C146.866 82.132 146.171 82.2849 145.56 82.5908C144.948 82.8839 144.508 83.3109 144.24 83.8716V89.9316H141.679V79.9144H144.03V82.0555C144.387 81.3673 144.839 80.8257 145.387 80.4306C145.935 80.0355 146.515 79.8189 147.127 79.7806C147.267 79.7806 147.376 79.7806 147.452 79.7806C147.529 79.7806 147.592 79.787 147.643 79.7997V82.132Z" fill="#5B2FBD"/>
<rect width="168" height="167" transform="translate(168)" fill="#F9FAFB"/>
<path fill-rule="evenodd" clip-rule="evenodd" d="M272.16 87.5874C271.679 87.5874 271.221 87.412 270.883 87.0727C270.546 86.7343 270.319 86.2223 270.319 85.5302C270.319 84.8295 270.546 84.3179 270.883 83.9818C271.22 83.6448 271.678 83.4727 272.16 83.4727C272.642 83.4727 273.1 83.6448 273.437 83.9818C273.774 84.3179 274.001 84.8295 274.001 85.5302C274.001 86.2307 273.774 86.7423 273.437 87.0783C273.1 87.4154 272.642 87.5874 272.16 87.5874ZM272.16 81.2363C269.717 81.2363 267.866 83.034 267.866 85.5302C267.866 88.0101 269.716 89.8239 272.16 89.8239C274.604 89.8239 276.454 88.0101 276.454 85.5302C276.454 83.034 274.603 81.2363 272.16 81.2363Z" fill="#0A1551"/>
<path fill-rule="evenodd" clip-rule="evenodd" d="M251.843 87.5874C251.361 87.5874 250.903 87.412 250.566 87.0727C250.229 86.7343 250.001 86.2223 250.001 85.5302C250.001 84.8295 250.229 84.3179 250.565 83.9818C250.902 83.6448 251.361 83.4727 251.843 83.4727C252.325 83.4727 252.783 83.6448 253.12 83.9818C253.456 84.3179 253.684 84.8295 253.684 85.5302C253.684 86.2307 253.456 86.7423 253.12 87.0783C252.783 87.4154 252.325 87.5874 251.843 87.5874ZM251.843 81.2363C249.399 81.2363 247.549 83.034 247.549 85.5302C247.549 88.0101 249.399 89.8239 251.843 89.8239C254.286 89.8239 256.136 88.0101 256.136 85.5302C256.136 83.034 254.286 81.2363 251.843 81.2363Z" fill="#0A1551"/>
<path fill-rule="evenodd" clip-rule="evenodd" d="M283.132 89.8244H285.57V84.9571C285.57 84.5572 285.695 84.2085 285.916 83.962C286.135 83.7175 286.457 83.5624 286.877 83.5624C287.317 83.5624 287.617 83.7083 287.808 83.9331C288.004 84.162 288.105 84.4933 288.105 84.8931V89.8244H290.527V84.9571C290.527 84.5657 290.652 84.2164 290.872 83.9671C291.09 83.72 291.409 83.5624 291.819 83.5624C292.268 83.5624 292.566 83.7086 292.755 83.9326C292.948 84.1608 293.046 84.492 293.046 84.8931V89.8244H295.421V84.4605C295.421 83.3666 295.06 82.5726 294.494 82.0531C293.931 81.5362 293.18 81.3066 292.424 81.3066C291.888 81.3066 291.396 81.3978 290.954 81.6199C290.578 81.8088 290.245 82.0891 289.955 82.4763C289.484 81.7113 288.626 81.3066 287.61 81.3066C286.87 81.3066 286.014 81.6002 285.474 82.171V81.531H283.132V89.8244Z" fill="#0A1551"/>
<path fill-rule="evenodd" clip-rule="evenodd" d="M282.214 81.5103V83.9946L282.024 83.9562C281.797 83.9104 281.601 83.8953 281.419 83.8953C280.902 83.8953 280.443 84.0218 280.114 84.3291C279.786 84.6345 279.56 85.1427 279.56 85.9629V89.8237H277.129V81.5271H279.497V82.3036C280.082 81.5998 280.991 81.4629 281.562 81.4629C281.745 81.4629 281.911 81.4797 282.068 81.4955L282.214 81.5103Z" fill="#0A1551"/>
<path fill-rule="evenodd" clip-rule="evenodd" d="M238.46 85.7345H240.824L240.851 85.7607C240.869 85.7783 240.882 85.8033 240.884 85.8313C240.93 86.348 241.133 86.7378 241.438 86.9974C241.741 87.2558 242.133 87.3761 242.541 87.3761C243.04 87.3761 243.447 87.1928 243.729 86.8743C244.009 86.5576 244.155 86.1183 244.155 85.6204V78.7227H246.711V85.6917C246.711 87.9229 245.001 89.7886 242.559 89.7886C241.339 89.7886 240.317 89.3841 239.599 88.6821C238.898 87.9962 238.48 87.0174 238.461 85.8281L238.46 85.7345Z" fill="#0A1551"/>
<path fill-rule="evenodd" clip-rule="evenodd" d="M267.52 79.8641L267.655 79.9026V78.0209L267.593 77.9928C267.497 77.9496 267.344 77.9104 267.168 77.882C266.989 77.8532 266.778 77.834 266.563 77.834C265.725 77.834 264.783 78.1113 264.295 78.6109C263.807 79.1101 263.538 79.8218 263.538 80.6734V81.0616H262.313V83.1881H263.538V89.8222H265.997V83.1881H267.655V81.0616H265.997V80.7033C265.997 80.3205 266.13 80.1003 266.302 79.9721C266.478 79.8396 266.71 79.7934 266.921 79.7934C267.239 79.7934 267.424 79.8367 267.52 79.8641Z" fill="#0A1551"/>
<path fill-rule="evenodd" clip-rule="evenodd" d="M261.435 87.7856L261.562 87.7469V89.6358L261.503 89.6642C261.414 89.7077 261.27 89.7469 261.104 89.7756C260.936 89.8045 260.738 89.8238 260.536 89.8238C259.748 89.8238 258.867 89.5453 258.409 89.0437C257.951 88.5424 257.698 87.828 257.698 86.9732V83.2211H256.547V81.0886H257.698V78.7832H260.003V81.0886H261.562V83.2211H260.003V86.9431C260.003 87.3273 260.129 87.5484 260.29 87.6772C260.456 87.81 260.674 87.8566 260.872 87.8566C261.171 87.8566 261.345 87.8131 261.435 87.7856Z" fill="#0A1551"/>
<path d="M224.767 90.1298C225.045 90.3962 224.849 90.8527 224.454 90.8527H221.985C221.498 90.8527 221.102 90.4726 221.102 90.0055V87.6378C221.102 87.2595 221.578 87.0713 221.855 87.3376L224.767 90.1298Z" fill="#0A1551"/>
<path d="M228.628 90.3352C227.897 89.6169 227.897 88.4525 228.628 87.7342L231.266 85.1422C231.996 84.4239 233.181 84.4239 233.912 85.1422C234.643 85.8604 234.643 87.0249 233.912 87.7431L231.275 90.3352C230.544 91.0534 229.359 91.0534 228.628 90.3352Z" fill="#FFB21D"/>
<path d="M221.659 83.8204C220.929 83.1022 220.929 81.9377 221.659 81.2195L225.623 77.3239C226.354 76.6056 227.539 76.6056 228.27 77.3239C229.001 78.042 229.001 79.2066 228.27 79.9247L224.306 83.8204C223.575 84.5387 222.39 84.5387 221.659 83.8204Z" fill="#0099FF"/>
<path d="M225.287 86.9321C224.557 86.2138 224.557 85.0494 225.287 84.3311L231.285 78.4372C232.016 77.7189 233.201 77.7189 233.932 78.4372C234.662 79.1553 234.662 80.3199 233.932 81.038L227.934 86.9321C227.203 87.6504 226.018 87.6504 225.287 86.9321Z" fill="#FF6100"/>
<circle cx="167.992" cy="83.9916" r="14.9916" fill="white"/>
<path d="M162.022 79.2737L164.292 86.1392H164.382L166.648 79.2737H168.385L165.31 87.9961H163.36L160.289 79.2737H162.022ZM174.274 81.6715C174.235 81.2995 174.067 81.0099 173.772 80.8027C173.479 80.5954 173.099 80.4918 172.63 80.4918C172.301 80.4918 172.019 80.5414 171.783 80.6408C171.547 80.7402 171.367 80.8751 171.242 81.0454C171.117 81.2158 171.053 81.4103 171.05 81.6289C171.05 81.8106 171.092 81.9682 171.174 82.1016C171.259 82.2351 171.374 82.3487 171.519 82.4424C171.664 82.5332 171.824 82.6099 172 82.6724C172.176 82.7348 172.354 82.7873 172.533 82.8299L173.35 83.0344C173.68 83.111 173.996 83.2147 174.3 83.3453C174.607 83.4759 174.881 83.6406 175.122 83.8393C175.366 84.0381 175.559 84.278 175.701 84.5591C175.843 84.8402 175.914 85.1695 175.914 85.5472C175.914 86.0583 175.784 86.5083 175.522 86.8973C175.261 87.2834 174.883 87.5858 174.389 87.8044C173.898 88.0202 173.303 88.1281 172.605 88.1281C171.926 88.1281 171.337 88.0231 170.837 87.813C170.341 87.6028 169.952 87.2962 169.67 86.893C169.392 86.4898 169.242 85.9986 169.219 85.4194H170.774C170.796 85.7232 170.89 85.9759 171.055 86.1775C171.219 86.3791 171.434 86.5296 171.698 86.629C171.965 86.7283 172.263 86.778 172.592 86.778C172.936 86.778 173.237 86.7269 173.495 86.6247C173.756 86.5196 173.961 86.3748 174.108 86.1903C174.256 86.0029 174.331 85.7843 174.334 85.5344C174.331 85.3073 174.265 85.1199 174.134 84.9722C174.003 84.8217 173.82 84.6968 173.584 84.5974C173.352 84.4952 173.079 84.4043 172.767 84.3248L171.774 84.0693C171.056 83.8847 170.488 83.6051 170.071 83.2303C169.656 82.8527 169.449 82.3515 169.449 81.7269C169.449 81.2129 169.588 80.7629 169.866 80.3768C170.147 79.9906 170.529 79.6911 171.012 79.4781C171.495 79.2623 172.041 79.1544 172.652 79.1544C173.271 79.1544 173.813 79.2623 174.279 79.4781C174.747 79.6911 175.115 79.9878 175.382 80.3682C175.649 80.7459 175.786 81.1803 175.795 81.6715H174.274Z" fill="#101828"/>
</g>
<rect x="0.718612" y="0.718612" width="334.563" height="165.563" rx="3.28139" stroke="#EAECF0" stroke-width="1.43722"/>
<defs>
<clipPath id="clip0_3421_53230">
<rect width="336" height="167" rx="4" fill="white"/>
</clipPath>
</defs>
</svg>
