
<svg width="336" height="167" viewBox="0 0 336 167" fill="none" xmlns="http://www.w3.org/2000/svg">
<g clip-path="url(#clip0_3421_53190)">
<path fill-rule="evenodd" clip-rule="evenodd" d="M104.16 87.5874C103.679 87.5874 103.221 87.412 102.883 87.0727C102.546 86.7343 102.319 86.2223 102.319 85.5302C102.319 84.8295 102.546 84.3179 102.883 83.9818C103.22 83.6448 103.678 83.4727 104.16 83.4727C104.642 83.4727 105.1 83.6448 105.437 83.9818C105.774 84.3179 106.001 84.8295 106.001 85.5302C106.001 86.2307 105.774 86.7423 105.437 87.0783C105.1 87.4154 104.642 87.5874 104.16 87.5874ZM104.16 81.2363C101.717 81.2363 99.8662 83.034 99.8662 85.5302C99.8662 88.0101 101.716 89.8239 104.16 89.8239C106.604 89.8239 108.454 88.0101 108.454 85.5302C108.454 83.034 106.603 81.2363 104.16 81.2363Z" fill="#0A1551"/>
<path fill-rule="evenodd" clip-rule="evenodd" d="M83.8425 87.5874C83.3614 87.5874 82.9033 87.412 82.5655 87.0727C82.2288 86.7343 82.0012 86.2223 82.0012 85.5302C82.0012 84.8295 82.229 84.3179 82.5652 83.9818C82.9024 83.6448 83.3606 83.4727 83.8425 83.4727C84.3246 83.4727 84.7828 83.6448 85.12 83.9818C85.4562 84.3179 85.6839 84.8295 85.6839 85.5302C85.6839 86.2307 85.4562 86.7423 85.12 87.0783C84.7828 87.4154 84.3246 87.5874 83.8425 87.5874ZM83.8425 81.2363C81.3993 81.2363 79.5488 83.034 79.5488 85.5302C79.5488 88.0101 81.3989 89.8239 83.8425 89.8239C86.2863 89.8239 88.1364 88.0101 88.1364 85.5302C88.1364 83.034 86.2859 81.2363 83.8425 81.2363Z" fill="#0A1551"/>
<path fill-rule="evenodd" clip-rule="evenodd" d="M115.132 89.8244H117.57V84.9571C117.57 84.5572 117.695 84.2085 117.916 83.962C118.135 83.7175 118.457 83.5624 118.877 83.5624C119.317 83.5624 119.617 83.7083 119.808 83.9331C120.004 84.162 120.105 84.4933 120.105 84.8931V89.8244H122.527V84.9571C122.527 84.5657 122.652 84.2164 122.872 83.9671C123.09 83.72 123.409 83.5624 123.819 83.5624C124.268 83.5624 124.566 83.7086 124.755 83.9326C124.948 84.1608 125.046 84.492 125.046 84.8931V89.8244H127.421V84.4605C127.421 83.3666 127.06 82.5726 126.494 82.0531C125.931 81.5362 125.18 81.3066 124.424 81.3066C123.888 81.3066 123.396 81.3978 122.954 81.6199C122.578 81.8088 122.245 82.0891 121.955 82.4763C121.484 81.7113 120.626 81.3066 119.61 81.3066C118.87 81.3066 118.014 81.6002 117.474 82.171V81.531H115.132V89.8244Z" fill="#0A1551"/>
<path fill-rule="evenodd" clip-rule="evenodd" d="M114.214 81.5103V83.9946L114.024 83.9562C113.797 83.9104 113.601 83.8953 113.419 83.8953C112.902 83.8953 112.443 84.0218 112.114 84.3291C111.786 84.6345 111.56 85.1427 111.56 85.9629V89.8237H109.129V81.5271H111.497V82.3036C112.082 81.5998 112.991 81.4629 113.562 81.4629C113.745 81.4629 113.911 81.4797 114.068 81.4955L114.214 81.5103Z" fill="#0A1551"/>
<path fill-rule="evenodd" clip-rule="evenodd" d="M70.46 85.7345H72.8244L72.8512 85.7607C72.8692 85.7783 72.8818 85.8033 72.8842 85.8313C72.93 86.348 73.1335 86.7378 73.4379 86.9974C73.7409 87.2558 74.1328 87.3761 74.5414 87.3761C75.0398 87.3761 75.4475 87.1928 75.729 86.8743C76.0091 86.5576 76.1549 86.1183 76.1549 85.6204V78.7227H78.7113V85.6917C78.7113 87.9229 77.0011 89.7886 74.5592 89.7886C73.3395 89.7886 72.3165 89.3841 71.5992 88.6821C70.8984 87.9962 70.48 87.0174 70.4615 85.8281L70.46 85.7345Z" fill="#0A1551"/>
<path fill-rule="evenodd" clip-rule="evenodd" d="M99.5197 79.8641L99.6547 79.9026V78.0209L99.5926 77.9928C99.4975 77.9496 99.3445 77.9104 99.1679 77.882C98.9891 77.8532 98.778 77.834 98.5628 77.834C97.7248 77.834 96.7827 78.1113 96.2948 78.6109C95.8073 79.1101 95.5383 79.8218 95.5383 80.6734V81.0616H94.3135V83.1881H95.5383V89.8222H97.9967V83.1881H99.6547V81.0616H97.9967V80.7033C97.9967 80.3205 98.1305 80.1003 98.3017 79.9721C98.4781 79.8396 98.7099 79.7934 98.9215 79.7934C99.2394 79.7934 99.4238 79.8367 99.5197 79.8641Z" fill="#0A1551"/>
<path fill-rule="evenodd" clip-rule="evenodd" d="M93.4347 87.7856L93.5616 87.7469V89.6358L93.5032 89.6642C93.4138 89.7077 93.2702 89.7469 93.1041 89.7756C92.936 89.8045 92.7377 89.8238 92.5356 89.8238C91.748 89.8238 90.8673 89.5453 90.4089 89.0437C89.9507 88.5424 89.698 87.828 89.698 86.9732V83.2211H88.5469V81.0886H89.698V78.7832H92.0034V81.0886H93.5616V83.2211H92.0034V86.9431C92.0034 87.3273 92.1292 87.5484 92.29 87.6772C92.4558 87.81 92.6736 87.8566 92.8725 87.8566C93.1713 87.8566 93.3446 87.8131 93.4347 87.7856Z" fill="#0A1551"/>
<path d="M56.7671 90.1298C57.045 90.3962 56.8487 90.8527 56.454 90.8527H53.9851C53.4979 90.8527 53.1016 90.4726 53.1016 90.0055V87.6378C53.1016 87.2595 53.5776 87.0713 53.8554 87.3376L56.7671 90.1298Z" fill="#0A1551"/>
<path d="M60.6281 90.3352C59.8974 89.6169 59.8974 88.4525 60.6281 87.7342L63.2658 85.1422C63.9965 84.4239 65.1814 84.4239 65.9123 85.1422C66.6432 85.8604 66.6432 87.0249 65.9123 87.7431L63.2748 90.3352C62.5439 91.0534 61.359 91.0534 60.6281 90.3352Z" fill="#FFB21D"/>
<path d="M53.6595 83.8204C52.9286 83.1022 52.9286 81.9377 53.6595 81.2195L57.6235 77.3239C58.3543 76.6056 59.5393 76.6056 60.2701 77.3239C61.0008 78.042 61.0008 79.2066 60.2701 79.9247L56.3061 83.8204C55.5752 84.5387 54.3903 84.5387 53.6595 83.8204Z" fill="#0099FF"/>
<path d="M57.2874 86.9321C56.5565 86.2138 56.5565 85.0494 57.2874 84.3311L63.285 78.4372C64.0158 77.7189 65.2008 77.7189 65.9317 78.4372C66.6624 79.1553 66.6624 80.3199 65.9317 81.038L59.9341 86.9321C59.2032 87.6504 58.0183 87.6504 57.2874 86.9321Z" fill="#FF6100"/>
<rect width="168" height="167" transform="translate(168)" fill="#F9FAFB"/>
<path d="M223.717 75.541H218.406C213.628 75.541 213.26 77.5993 213.26 80.356V85.4833C213.26 88.3503 213.628 90.2983 218.424 90.2983H223.717C228.495 90.2983 228.863 88.24 228.863 85.5017V80.356C228.863 77.6177 228.495 75.541 223.717 75.541ZM206.387 79.2349C206.387 76.8091 207.342 75.541 208.96 75.541C210.577 75.541 211.532 76.8091 211.532 79.2349V86.6044C211.532 89.0302 210.577 90.2983 208.96 90.2983C207.342 90.2983 206.387 89.0302 206.387 86.6044V79.2349Z" fill="#1A1A19"/>
<path d="M283.481 86.6239C281.956 86.6239 281.165 85.3559 281.165 83.8121C281.165 82.2684 281.937 81.0555 283.481 81.0555C285.061 81.0555 285.797 82.3052 285.797 83.7938C285.797 85.3926 285.006 86.6239 283.481 86.6239ZM268.485 81.0555C269.385 81.0555 269.753 81.5701 269.753 82.0295C269.753 83.1322 268.632 83.61 266.298 83.6835C266.298 82.3235 267.07 81.0555 268.485 81.0555ZM258.524 86.6239C257.072 86.6239 256.466 85.4478 256.466 83.8121C256.466 82.1949 257.091 81.0739 258.524 81.0739C259.994 81.0739 260.674 82.2317 260.674 83.8121C260.693 85.4478 259.958 86.6239 258.524 86.6239ZM246.266 79.4566H244.006L247.773 88.0758C247.056 89.6746 246.67 90.0606 246.174 90.0606C245.641 90.0606 245.145 89.6379 244.796 89.2703L243.804 90.5935C244.484 91.3102 245.402 91.7145 246.358 91.7145C247.553 91.7145 248.453 91.0346 248.986 89.7849L253.323 79.4383H251.1L248.839 85.6132L246.266 79.4566ZM306.288 81.0555C307.39 81.0555 307.611 81.809 307.611 83.5732V88.2228H309.577V82.3419C309.577 80.2285 308.125 79.3096 306.784 79.3096C305.589 79.3096 304.505 80.0447 303.899 81.423C303.549 80.0998 302.447 79.3096 301.16 79.3096C300.039 79.3096 298.918 80.0263 298.312 81.3495V79.4566H296.345V88.2228H298.312V84.4737C298.312 82.5808 299.304 81.0555 300.664 81.0555C301.767 81.0555 301.969 81.809 301.969 83.5732V88.2228H303.935L303.917 84.4554C303.917 82.5808 304.928 81.0555 306.288 81.0555ZM290.556 79.4566H289.637V88.2228H291.604V84.8597C291.604 82.7279 292.541 81.2944 293.938 81.2944C294.305 81.2944 294.599 81.3128 294.93 81.4414L295.243 79.3647C294.985 79.3464 294.765 79.3096 294.544 79.3096C293.166 79.3096 292.174 80.2652 291.585 81.4782V79.4566H290.556ZM283.481 79.328C280.89 79.328 279.125 81.3128 279.125 83.7938C279.125 86.385 280.908 88.3147 283.481 88.3147C286.091 88.3147 287.873 86.3299 287.873 83.7938C287.873 81.276 286.054 79.328 283.481 79.328ZM268.595 86.6239C267.566 86.6239 266.812 86.1094 266.5 85.0434C269.091 84.9332 271.646 84.3083 271.646 82.0111C271.646 80.6879 270.341 79.328 268.485 79.328C265.967 79.328 264.276 81.3679 264.276 83.7938C264.276 86.3299 265.949 88.3147 268.448 88.3147C270.194 88.3147 271.297 87.6163 272.16 86.6056L271.205 85.3191C270.176 86.3666 269.551 86.6239 268.595 86.6239ZM258.91 79.328C257.918 79.328 256.925 79.8977 256.539 80.8166V79.475H254.573V91.6962H256.539V87.3039C256.962 87.9287 257.899 88.3514 258.745 88.3514C261.354 88.3514 262.733 86.4218 262.733 83.8121C262.733 81.2209 261.373 79.328 258.91 79.328ZM245.145 75.9465H235.883V77.8578H239.503V88.2228H241.562V77.8578H245.145V75.9465ZM274.329 79.4566H273.153V81.2209H274.329V88.2228H276.295V81.2209H278.207V79.4566H276.295V78.0783C276.295 77.1962 276.663 76.9021 277.471 76.9021C277.784 76.9021 278.06 76.9756 278.427 77.1043L278.868 75.4503C278.501 75.2481 277.784 75.1562 277.324 75.1562C275.45 75.1562 274.347 76.2773 274.347 78.2253V79.4566H274.329Z" fill="#1A1A19"/>
<circle cx="167.992" cy="83.9916" r="14.9916" fill="white"/>
<path d="M162.022 79.2737L164.292 86.1392H164.382L166.648 79.2737H168.385L165.31 87.9961H163.36L160.289 79.2737H162.022ZM174.274 81.6715C174.235 81.2995 174.067 81.0099 173.772 80.8027C173.479 80.5954 173.099 80.4918 172.63 80.4918C172.301 80.4918 172.019 80.5414 171.783 80.6408C171.547 80.7402 171.367 80.8751 171.242 81.0454C171.117 81.2158 171.053 81.4103 171.05 81.6289C171.05 81.8106 171.092 81.9682 171.174 82.1016C171.259 82.2351 171.374 82.3487 171.519 82.4424C171.664 82.5332 171.824 82.6099 172 82.6724C172.176 82.7348 172.354 82.7873 172.533 82.8299L173.35 83.0344C173.68 83.111 173.996 83.2147 174.3 83.3453C174.607 83.4759 174.881 83.6406 175.122 83.8393C175.366 84.0381 175.559 84.278 175.701 84.5591C175.843 84.8402 175.914 85.1695 175.914 85.5472C175.914 86.0583 175.784 86.5083 175.522 86.8973C175.261 87.2834 174.883 87.5858 174.389 87.8044C173.898 88.0202 173.303 88.1281 172.605 88.1281C171.926 88.1281 171.337 88.0231 170.837 87.813C170.341 87.6028 169.952 87.2962 169.67 86.893C169.392 86.4898 169.242 85.9986 169.219 85.4194H170.774C170.796 85.7232 170.89 85.9759 171.055 86.1775C171.219 86.3791 171.434 86.5296 171.698 86.629C171.965 86.7283 172.263 86.778 172.592 86.778C172.936 86.778 173.237 86.7269 173.495 86.6247C173.756 86.5196 173.961 86.3748 174.108 86.1903C174.256 86.0029 174.331 85.7843 174.334 85.5344C174.331 85.3073 174.265 85.1199 174.134 84.9722C174.003 84.8217 173.82 84.6968 173.584 84.5974C173.352 84.4952 173.079 84.4043 172.767 84.3248L171.774 84.0693C171.056 83.8847 170.488 83.6051 170.071 83.2303C169.656 82.8527 169.449 82.3515 169.449 81.7269C169.449 81.2129 169.588 80.7629 169.866 80.3768C170.147 79.9906 170.529 79.6911 171.012 79.4781C171.495 79.2623 172.041 79.1544 172.652 79.1544C173.271 79.1544 173.813 79.2623 174.279 79.4781C174.747 79.6911 175.115 79.9878 175.382 80.3682C175.649 80.7459 175.786 81.1803 175.795 81.6715H174.274Z" fill="#101828"/>
</g>
<rect x="0.718612" y="0.718612" width="334.563" height="165.563" rx="3.28139" stroke="#EAECF0" stroke-width="1.43722"/>
<defs>
<clipPath id="clip0_3421_53190">
<rect width="336" height="167" rx="4" fill="white"/>
</clipPath>
</defs>
</svg>
