<svg width="200" height="33" viewBox="0 0 200 33" fill="none" xmlns="http://www.w3.org/2000/svg">
<path d="M33.9467 1.61914H23.6826C14.4484 1.61914 13.7381 5.59694 13.7381 10.9244V20.8333C13.7381 26.3739 14.4484 30.1386 23.7181 30.1386H33.9467C43.1809 30.1386 43.8912 26.1608 43.8912 20.8689V10.9244C43.8912 5.63246 43.1809 1.61914 33.9467 1.61914ZM0.455078 8.75788C0.455078 4.06975 2.30191 1.61914 5.42732 1.61914C8.55273 1.61914 10.3996 4.06975 10.3996 8.75788V22.9998C10.3996 27.688 8.55273 30.1386 5.42732 30.1386C2.30191 30.1386 0.455078 27.688 0.455078 22.9998V8.75788Z" fill="#1A1A19"/>
<path d="M149.445 23.037C146.497 23.037 144.97 20.5864 144.97 17.6031C144.97 14.6197 146.461 12.2757 149.445 12.2757C152.499 12.2757 153.92 14.6908 153.92 17.5676C153.92 20.6575 152.392 23.037 149.445 23.037ZM120.463 12.2757C122.204 12.2757 122.914 13.2701 122.914 14.158C122.914 16.289 120.748 17.2124 116.237 17.3545C116.237 14.7263 117.729 12.2757 120.463 12.2757ZM101.214 23.037C98.408 23.037 97.236 20.764 97.236 17.6031C97.236 14.4777 98.4435 12.3112 101.214 12.3112C104.055 12.3112 105.369 14.5487 105.369 17.6031C105.405 20.764 103.984 23.037 101.214 23.037ZM77.5246 9.18577H73.1561L80.4369 25.8428C79.0518 28.9327 78.3059 29.6786 77.347 29.6786C76.317 29.6786 75.3581 28.8617 74.6833 28.1514L72.7654 30.7085C74.0795 32.0936 75.8553 32.875 77.7021 32.875C80.0107 32.875 81.751 31.5609 82.7809 29.1458L91.1627 9.15025H86.8653L82.4968 21.0837L77.5246 9.18577ZM193.52 12.2757C195.651 12.2757 196.077 13.7318 196.077 17.1414V26.1269H199.877V14.7618C199.877 10.6774 197.072 8.90164 194.479 8.90164C192.17 8.90164 190.075 10.3223 188.903 12.986C188.228 10.4288 186.097 8.90164 183.611 8.90164C181.445 8.90164 179.278 10.2868 178.106 12.8439V9.18577H174.306V26.1269H178.106V18.8817C178.106 15.2235 180.024 12.2757 182.652 12.2757C184.783 12.2757 185.174 13.7318 185.174 17.1414V26.1269H188.974L188.938 18.8461C188.938 15.2235 190.892 12.2757 193.52 12.2757ZM163.118 9.18577H161.342V26.1269H165.143V19.6275C165.143 15.5076 166.954 12.7374 169.653 12.7374C170.363 12.7374 170.932 12.7729 171.571 13.0215L172.175 9.00819C171.678 8.97267 171.251 8.90164 170.825 8.90164C168.162 8.90164 166.244 10.7485 165.107 13.0925V9.18577H163.118ZM149.445 8.93715C144.437 8.93715 141.027 12.7729 141.027 17.5676C141.027 22.5753 144.472 26.3045 149.445 26.3045C154.488 26.3045 157.933 22.4688 157.933 17.5676C157.933 12.7019 154.417 8.93715 149.445 8.93715ZM120.677 23.037C118.688 23.037 117.232 22.0426 116.628 19.9827C121.635 19.7696 126.572 18.562 126.572 14.1225C126.572 11.5653 124.051 8.93715 120.463 8.93715C115.598 8.93715 112.33 12.8794 112.33 17.5676C112.33 22.4688 115.562 26.3045 120.392 26.3045C123.766 26.3045 125.897 24.9549 127.567 23.0015L125.72 20.5154C123.731 22.5398 122.523 23.037 120.677 23.037ZM101.96 8.93715C100.042 8.93715 98.1239 10.0382 97.378 11.814V9.22128H93.5778V32.8395H97.378V24.3511C98.1949 25.5587 100.006 26.3756 101.64 26.3756C106.683 26.3756 109.347 22.6464 109.347 17.6031C109.347 12.5953 106.719 8.93715 101.96 8.93715ZM75.3581 2.40219H57.458V6.09587H64.4547V26.1269H68.4325V6.09587H75.3581V2.40219ZM131.758 9.18577H129.485V12.5953H131.758V26.1269H135.558V12.5953H139.251V9.18577H135.558V6.52206C135.558 4.81729 136.268 4.24903 137.831 4.24903C138.435 4.24903 138.967 4.39109 139.678 4.63971L140.53 1.44326C139.82 1.05258 138.435 0.875 137.547 0.875C133.924 0.875 131.793 3.04148 131.793 6.80619V9.18577H131.758Z" fill="#1A1A19"/>
</svg>
