<svg width="70" height="70" viewBox="0 0 70 70" fill="none" xmlns="http://www.w3.org/2000/svg">
<rect width="70" height="70" rx="6.4" fill="url(#paint0_linear_6169_4134)"/>
<path d="M24.875 26C24.5766 26 24.2905 26.1185 24.0795 26.3295C23.8685 26.5405 23.75 26.8266 23.75 27.125C23.75 27.4234 23.8685 27.7095 24.0795 27.9205C24.2905 28.1315 24.5766 28.25 24.875 28.25H40.625C40.9234 28.25 41.2095 28.1315 41.4205 27.9205C41.6315 27.7095 41.75 27.4234 41.75 27.125C41.75 26.8266 41.6315 26.5405 41.4205 26.3295C41.2095 26.1185 40.9234 26 40.625 26H24.875ZM27.125 39.5C28.0201 39.5 28.8786 39.1444 29.5115 38.5115C30.1444 37.8786 30.5 37.0201 30.5 36.125C30.5 35.2299 30.1444 34.3714 29.5115 33.7385C28.8786 33.1056 28.0201 32.75 27.125 32.75C26.2299 32.75 25.3714 33.1056 24.7385 33.7385C24.1056 34.3714 23.75 35.2299 23.75 36.125C23.75 37.0201 24.1056 37.8786 24.7385 38.5115C25.3714 39.1444 26.2299 39.5 27.125 39.5ZM27.125 37.25C26.8266 37.25 26.5405 37.1315 26.3295 36.9205C26.1185 36.7095 26 36.4234 26 36.125C26 35.8266 26.1185 35.5405 26.3295 35.3295C26.5405 35.1185 26.8266 35 27.125 35C27.4234 35 27.7095 35.1185 27.9205 35.3295C28.1315 35.5405 28.25 35.8266 28.25 36.125C28.25 36.4234 28.1315 36.7095 27.9205 36.9205C27.7095 37.1315 27.4234 37.25 27.125 37.25ZM33.875 35C33.5766 35 33.2905 35.1185 33.0795 35.3295C32.8685 35.5405 32.75 35.8266 32.75 36.125C32.75 36.4234 32.8685 36.7095 33.0795 36.9205C33.2905 37.1315 33.5766 37.25 33.875 37.25H40.625C40.9234 37.25 41.2095 37.1315 41.4205 36.9205C41.6315 36.7095 41.75 36.4234 41.75 36.125C41.75 35.8266 41.6315 35.5405 41.4205 35.3295C41.2095 35.1185 40.9234 35 40.625 35H33.875Z" fill="white"/>
<path d="M19.25 26C19.25 24.2098 19.9612 22.4929 21.227 21.227C22.4929 19.9612 24.2098 19.25 26 19.25H39.5C41.2902 19.25 43.0071 19.9612 44.273 21.227C45.5388 22.4929 46.25 24.2098 46.25 26V39.5C46.25 41.2902 45.5388 43.0071 44.273 44.273C43.0071 45.5388 41.2902 46.25 39.5 46.25H26C24.2098 46.25 22.4929 45.5388 21.227 44.273C19.9612 43.0071 19.25 41.2902 19.25 39.5V26ZM26 21.5C24.8065 21.5 23.6619 21.9741 22.818 22.818C21.9741 23.6619 21.5 24.8065 21.5 26V39.5C21.4976 40.2834 21.7009 41.0537 22.0894 41.734C22.4779 42.4143 23.0381 42.9807 23.714 43.3767C24.3845 43.775 25.1652 44 26 44H39.5C40.2834 44.0021 41.0536 43.7988 41.7338 43.4103C42.4141 43.0218 42.9805 42.4618 43.3767 41.786C43.775 41.1155 44 40.3347 44 39.5V26C44 24.8065 43.5259 23.6619 42.682 22.818C41.8381 21.9741 40.6935 21.5 39.5 21.5H26Z" fill="white"/>
<path d="M30.4998 50.7498C29.5499 50.7509 28.6105 50.551 27.7435 50.1632C26.8764 49.7754 26.1011 49.2085 25.4688 48.4998H40.6248C42.7133 48.4998 44.7164 47.6701 46.1932 46.1932C47.6701 44.7164 48.4998 42.7133 48.4998 40.6248V25.4688C49.8813 26.7063 50.7498 28.5017 50.7498 30.4998V40.6248C50.7498 43.3101 49.683 45.8854 47.7842 47.7842C45.8854 49.683 43.3101 50.7498 40.6248 50.7498H30.4998Z" fill="white"/>
<defs>
<linearGradient id="paint0_linear_6169_4134" x1="35" y1="0" x2="35" y2="70" gradientUnits="userSpaceOnUse">
<stop stop-color="#BB57EA"/>
<stop offset="1" stop-color="#5E4BF5"/>
</linearGradient>
</defs>
</svg>
