<svg width="216" height="306" viewBox="0 0 216 306" fill="none" xmlns="http://www.w3.org/2000/svg">
<line x1="80.4191" y1="171.395" x2="63.4198" y2="232.507" stroke="url(#paint0_linear_7842_6908)" stroke-opacity="0.5" stroke-width="2.94593" stroke-dasharray="8.84 8.84"/>
<g clip-path="url(#clip0_7842_6908)">
<rect x="18.7773" y="42.3594" width="160.59" height="160.398" rx="80.199" transform="rotate(-15 18.7773 42.3594)" fill="white"/>
<path d="M115.404 219.678C115.404 219.678 126.036 293.733 141.795 362.133C141.795 362.133 167.004 362.544 226.085 336.471C222.109 328.049 219.247 319.145 217.572 309.983C212.789 284.96 212.89 256.373 198.303 232.789C182.164 206.736 170.899 201.225 170.899 201.225L116.736 213.169L115.404 219.678Z" fill="#263238"/>
<path d="M108.347 118.209L153.327 107.415C154.1 107.221 154.907 107.211 155.683 107.387C156.46 107.563 157.184 107.92 157.797 108.428C158.41 108.937 158.894 109.582 159.211 110.313C159.528 111.043 159.668 111.838 159.619 112.633C158.807 128.127 158.955 167.361 177.062 205.191L114.49 221.957L97.8141 163.504C97.8141 163.504 89.5923 152.388 103.259 122.509C103.728 121.455 104.429 120.521 105.31 119.776C106.191 119.032 107.229 118.496 108.347 118.209Z" fill="#6A55AB"/>
<path opacity="0.9" d="M108.347 118.209L153.327 107.415C154.1 107.221 154.907 107.211 155.683 107.387C156.46 107.563 157.184 107.92 157.797 108.428C158.41 108.937 158.894 109.582 159.211 110.313C159.528 111.043 159.668 111.838 159.619 112.633C158.807 128.127 158.955 167.361 177.062 205.191L114.49 221.957L97.8141 163.504C97.8141 163.504 89.5923 152.388 103.259 122.509C103.728 121.455 104.429 120.521 105.31 119.776C106.191 119.032 107.229 118.496 108.347 118.209Z" fill="white"/>
<path d="M62.5675 177.225L48.8785 175.842L42.2271 167.521C42.0221 167.265 41.7794 167.041 41.5075 166.858L27.7519 157.138C27.39 156.889 26.9505 156.78 26.5143 156.829C26.078 156.879 25.6742 157.084 25.3772 157.407C25.2112 157.591 25.0852 157.808 25.0074 158.043C24.9295 158.279 24.9014 158.527 24.9248 158.774C24.9482 159.021 25.0226 159.26 25.1433 159.477C25.264 159.693 25.4284 159.882 25.6261 160.032L33.0757 165.656L33.6101 176C33.6571 176.846 33.8995 177.67 34.3183 178.407C34.7371 179.144 35.321 179.774 36.024 180.247L37.2582 181.07C37.8283 181.454 38.4648 181.728 39.1351 181.878L47.0967 183.607L60.6492 186.373L62.5675 177.225Z" fill="#FFB573"/>
<path d="M103.391 119.537C103.391 119.537 86.9995 130.116 89.8028 171.627C89.8422 172.245 89.7521 172.864 89.5383 173.445C89.3244 174.026 88.9915 174.555 88.561 175C88.1304 175.444 87.6117 175.794 87.038 176.026C86.4644 176.258 85.8486 176.368 85.23 176.348L55.5841 175.098L54.6794 186.072C54.6794 186.072 87.2311 198.167 99.2557 191.904C111.28 185.64 103.391 119.537 103.391 119.537Z" fill="#6A55AB"/>
<path opacity="0.1" d="M89.5791 157.359C89.9666 162.33 90.9918 167.231 92.6296 171.94C95.045 178.581 96.9904 185.384 98.4515 192.298C98.7295 192.195 99.001 192.076 99.2645 191.94C111.289 185.677 103.391 119.541 103.391 119.541C103.391 119.541 90.8442 127.639 89.5791 157.359Z" fill="black"/>
<path d="M142.087 68.8075C139.879 65.1344 139.928 60.7516 136.005 57.8527C133.951 56.233 132.453 54.0139 131.717 51.5035C127.472 38.6586 110.34 38.8444 98.5815 41.9253C85.6171 45.399 92.149 49.2943 81.8971 54.8028C71.6452 60.3114 81.2154 72.219 85.2146 75.2723C89.2137 78.3256 88.2732 85.7087 84.9596 97.6078C84.9596 97.6078 81.6745 111.439 114.192 96.9236C114.192 96.9236 158.697 96.2896 142.087 68.8075Z" fill="#263238"/>
<path d="M129.307 83.8567C129.156 92.1644 130.223 107.172 136.735 111.579C131.294 117.647 125.084 122.977 118.262 127.436C107.976 121.662 111.94 117.279 111.94 117.279C120.501 113.482 118.969 105.678 116.37 99.6976L129.307 83.8567Z" fill="#FFB573"/>
<path opacity="0.2" d="M125.887 93.7295C125.701 92.2541 125.314 90.8111 124.737 89.4406L116.395 99.6634C116.923 100.864 117.371 102.099 117.735 103.359C121.381 101.963 126.195 97.6844 125.887 93.7295Z" fill="black"/>
<path d="M129.769 68.8925C129.639 82.5604 129.879 88.3511 123.369 95.6887C113.57 106.739 96.8255 103.605 92.8607 90.1778C89.2912 78.0956 90.0705 57.7169 103.131 51.6656C106 50.2802 109.178 49.6564 112.358 49.8542C115.538 50.0521 118.614 51.0648 121.29 52.7951C123.965 54.5255 126.151 56.9151 127.636 59.7343C129.121 62.5534 129.856 65.7073 129.769 68.8925Z" fill="#FFB573"/>
<path d="M133.561 79.4989C132.932 82.0645 131.313 84.2767 129.058 85.652C126.041 87.4391 123.637 84.9897 123.692 81.6716C123.748 78.6852 125.401 74.2223 128.775 73.7028C129.965 73.5816 131.154 73.9365 132.083 74.6898C133.012 75.4431 133.605 76.5336 133.732 77.7228C133.785 78.3203 133.727 78.9224 133.561 79.4989Z" fill="#FFB573"/>
<path d="M117.25 44.6558C120.541 48.0035 116.646 56.755 104.453 59.061C95.26 60.8251 86.3433 73.4041 84.61 62.63C82.9801 52.8944 104.602 42.5916 117.25 44.6558Z" fill="#263238"/>
<path d="M111.405 49.2039C106.332 55.5795 112.715 63.2899 116.717 66.4824C120.718 69.6749 126.317 72.1771 124.174 78.9211C122.031 85.6651 122.491 93.2499 133.28 87.5276C144.068 81.8053 139.835 71.876 134.278 63.8568C128.721 55.8377 117.433 41.6287 111.405 49.2039Z" fill="#263238"/>
<path d="M100.216 76.1539C99.3639 78.7379 98.1565 81.1908 96.6287 83.4423C97.2137 83.8204 97.8743 84.0661 98.5642 84.162C99.2541 84.2579 99.9567 84.2018 100.623 83.9976L100.216 76.1539Z" fill="#ED893E"/>
<path d="M114.103 68.0065C114.195 68.0081 114.285 67.9839 114.364 67.9366C114.463 67.8333 114.519 67.6957 114.52 67.5523C114.52 67.4088 114.466 67.2707 114.367 67.1666C113.667 66.4297 112.799 65.8727 111.837 65.5431C110.876 65.2135 109.849 65.1209 108.844 65.2733C108.704 65.31 108.584 65.3976 108.507 65.5187C108.429 65.6399 108.4 65.7857 108.425 65.9274C108.46 66.0622 108.545 66.1788 108.662 66.2541C108.779 66.3295 108.921 66.3582 109.058 66.3345C109.893 66.2236 110.742 66.3112 111.537 66.5903C112.331 66.8694 113.049 67.3321 113.631 67.9407C113.699 67.987 113.777 68.017 113.859 68.0284C113.941 68.0399 114.024 68.0323 114.103 68.0065Z" fill="#263238"/>
<path d="M90.606 69.4154C90.6962 69.4065 90.7844 69.3829 90.8669 69.3454C91.4586 68.7571 92.1812 68.3173 92.9755 68.0619C93.7699 67.8065 94.6134 67.7429 95.4371 67.8762C95.5062 67.895 95.5784 67.8998 95.6495 67.8904C95.7205 67.881 95.789 67.8576 95.8509 67.8215C95.9127 67.7854 95.9668 67.7373 96.01 67.6801C96.0531 67.6229 96.0845 67.5577 96.1022 67.4883C96.1294 67.3475 96.1031 67.2017 96.0283 67.0794C95.9535 66.9571 95.8356 66.8673 95.6979 66.8275C94.6956 66.6547 93.6666 66.724 92.6965 67.0295C91.7264 67.3351 90.8434 67.868 90.1211 68.584C90.0666 68.6304 90.0219 68.6871 89.9895 68.7509C89.9572 68.8146 89.9378 68.8842 89.9325 68.9556C89.9272 69.0269 89.9361 69.0985 89.9588 69.1664C89.9814 69.2342 90.0173 69.2969 90.0644 69.3508C90.1354 69.4268 90.2258 69.482 90.3258 69.5106C90.4258 69.5392 90.5318 69.5402 90.6322 69.5132L90.606 69.4154Z" fill="#263238"/>
<path d="M108.024 73.88C108.075 74.9849 107.533 75.899 106.83 75.9477C106.126 75.9964 105.473 75.1228 105.433 73.9973C105.394 72.8718 105.919 71.962 106.627 71.9296C107.335 71.8972 107.886 72.7807 108.024 73.88Z" fill="#263238"/>
<path d="M95.4162 74.5669C95.4838 75.6674 94.9466 76.5979 94.2224 76.6346C93.4981 76.6714 92.8653 75.8098 92.7933 74.693C92.7212 73.5762 93.2835 72.674 93.987 72.6253C94.6906 72.5766 95.3768 73.4414 95.4162 74.5669Z" fill="#263238"/>
<path d="M94.326 72.6611L91.625 72.0391C91.625 72.0391 93.1042 74.0372 94.326 72.6611Z" fill="#263238"/>
<path d="M106.857 72.0049L104.156 71.3828C104.156 71.3828 105.635 73.381 106.857 72.0049Z" fill="#263238"/>
<path d="M136.468 108.676C135.804 108.8 135.178 109.079 134.641 109.49C134.104 109.901 133.672 110.433 133.379 111.042C130.598 116.838 123.71 135.358 131.553 164.63C137.81 187.982 145.076 209.683 149.382 221.97C149.827 223.251 150.549 224.418 151.497 225.388C152.445 226.358 153.595 227.106 154.866 227.581C156.136 228.055 157.496 228.243 158.847 228.131C160.199 228.02 161.509 227.611 162.685 226.935L186.554 213.216C186.554 213.216 169.573 190.413 164.659 162.681C161.234 143.376 161.372 122.365 161.769 111.387C161.804 110.469 161.632 109.554 161.264 108.711C160.896 107.869 160.342 107.121 159.643 106.523C158.945 105.925 158.121 105.492 157.232 105.258C156.343 105.024 155.412 104.994 154.51 105.17L136.468 108.676Z" fill="#6A55AB"/>
<path d="M112.681 114.899C112.904 114.837 113.14 114.844 113.359 114.918C113.579 114.991 113.771 115.129 113.912 115.312C114.053 115.496 114.137 115.717 114.151 115.948C114.166 116.179 114.112 116.409 113.995 116.609C110.616 122.391 104.177 138.675 111.382 172.086C117.574 200.804 121.699 221.092 123.851 231.666C124.035 232.591 123.992 233.546 123.727 234.451C123.461 235.356 122.98 236.183 122.326 236.861C121.671 237.54 120.862 238.05 119.968 238.348C119.073 238.646 118.12 238.723 117.189 238.572L114.779 238.187C114.779 238.187 113.916 221.919 103.979 188.489C94.043 155.059 88.4899 154.816 97.2406 132.616C98.0972 130.464 100.041 125.976 101.602 122.411C102.315 120.807 103.376 119.381 104.708 118.238C106.04 117.095 107.611 116.263 109.305 115.803L112.681 114.899Z" fill="#6A55AB"/>
<path d="M137.582 111.215L108.81 118.121C108.912 126.326 109.988 142.607 116.64 150.734C116.632 150.702 127.609 129.181 137.582 111.215Z" fill="#FFB573"/>
<path d="M150.174 204.2L169.174 195.788L170.426 197.2C170.783 197.63 171.036 198.136 171.164 198.68C171.291 199.224 171.291 199.79 171.161 200.333C171.032 200.877 170.778 201.383 170.42 201.811C170.061 202.239 169.607 202.578 169.095 202.801L156.538 208.123C155.788 208.444 154.951 208.497 154.166 208.275C153.381 208.053 152.696 207.568 152.226 206.901L150.174 204.2Z" fill="#6A55AB"/>
<path opacity="0.2" d="M150.174 204.2L169.174 195.788L170.426 197.2C170.783 197.63 171.036 198.136 171.164 198.68C171.291 199.224 171.291 199.79 171.161 200.333C171.032 200.877 170.778 201.383 170.42 201.811C170.061 202.239 169.607 202.578 169.095 202.801L156.538 208.123C155.788 208.444 154.951 208.497 154.166 208.275C153.381 208.053 152.696 207.568 152.226 206.901L150.174 204.2Z" fill="black"/>
<path d="M185.648 186.529L183.769 198.305L175.842 207.858C175.339 208.462 175.035 209.207 174.97 209.99C174.904 210.774 175.082 211.558 175.478 212.237C175.753 212.717 176.127 213.132 176.575 213.454C177.023 213.777 177.535 214.001 178.077 214.11L184.034 215.276C184.952 215.46 185.906 215.303 186.717 214.835C187.527 214.367 188.14 213.619 188.439 212.732L190.624 206.274C190.974 205.221 191.109 204.109 191.023 203.003L190.771 200.17L194.436 187.757L185.648 186.529Z" fill="#FFB573"/>
<path opacity="0.1" d="M157.258 117.825L153.203 121.219C153.203 121.219 151.695 136.007 163.215 152.059C162.058 141.331 161.543 130.543 161.672 119.753L157.258 117.825Z" fill="black"/>
<path d="M130.359 129.704C137.813 124.91 143.812 126.816 143.812 126.816C144.452 116.158 141.04 112.231 139.349 108.139L136.476 108.699C135.811 108.824 135.186 109.103 134.649 109.514C134.112 109.925 133.68 110.456 133.387 111.065C130.605 116.862 123.718 135.382 131.561 164.653C133.549 172.073 135.624 179.295 137.709 186.164C133.19 153.188 140.303 138.506 140.303 138.506C139.45 136.362 138.107 134.449 136.379 132.92C134.652 131.391 132.59 130.29 130.359 129.704Z" fill="#6A55AB"/>
<path d="M112.687 114.901L110.078 115.6C106.139 119.557 101.046 125.99 100.86 132.926C101.682 132.205 102.723 131.779 103.815 131.718C104.907 131.656 105.989 131.963 106.887 132.588C103.795 135.38 101.58 139.009 100.51 143.035C103.846 156.168 108.147 169.036 113.378 181.535C112.737 178.491 112.074 175.365 111.356 172.097C104.151 138.686 110.622 122.393 113.969 116.62C114.084 116.422 114.139 116.195 114.126 115.967C114.113 115.739 114.033 115.52 113.897 115.336C113.76 115.153 113.572 115.014 113.357 114.937C113.142 114.859 112.909 114.847 112.687 114.901Z" fill="#6A55AB"/>
<path opacity="0.2" d="M130.359 129.704C137.813 124.91 143.812 126.816 143.812 126.816C144.452 116.158 141.04 112.231 139.349 108.139L136.476 108.699C135.811 108.824 135.186 109.103 134.649 109.514C134.112 109.925 133.68 110.456 133.387 111.065C130.605 116.862 123.718 135.382 131.561 164.653C133.549 172.073 135.624 179.295 137.709 186.164C133.19 153.188 140.303 138.506 140.303 138.506C139.45 136.362 138.107 134.449 136.379 132.92C134.652 131.391 132.59 130.29 130.359 129.704Z" fill="black"/>
<path opacity="0.2" d="M112.687 114.901L110.078 115.6C106.139 119.557 101.046 125.99 100.86 132.926C101.682 132.205 102.723 131.779 103.815 131.718C104.907 131.656 105.989 131.963 106.887 132.588C103.795 135.38 101.58 139.009 100.51 143.035C103.846 156.168 108.147 169.036 113.378 181.535C112.737 178.491 112.074 175.365 111.356 172.097C104.151 138.686 110.622 122.393 113.969 116.62C114.084 116.422 114.139 116.195 114.126 115.967C114.113 115.739 114.033 115.52 113.897 115.336C113.76 115.153 113.572 115.014 113.357 114.937C113.142 114.859 112.909 114.847 112.687 114.901Z" fill="black"/>
<path d="M157.976 105.534C157.976 105.534 164.088 104.211 181.17 124.977C198.253 145.743 206.949 160.979 193.712 193.767L183.623 191.926C183.623 191.926 186.996 167.723 183.578 156.859C180.16 145.995 167.02 137.788 160.029 132.18C155.197 128.301 148.796 121.242 157.976 105.534Z" fill="#6A55AB"/>
<path d="M105.327 89.0751C104.78 89.2203 104.222 89.3174 103.657 89.3653C103.619 89.3692 103.581 89.3654 103.544 89.3541C103.507 89.3429 103.473 89.3243 103.443 89.2996C103.414 89.2749 103.39 89.2445 103.372 89.2103C103.355 89.176 103.344 89.1387 103.342 89.1003C103.342 89.0249 103.368 88.952 103.417 88.8943C103.465 88.8365 103.532 88.7977 103.607 88.7846C104.867 88.6977 106.089 88.3174 107.176 87.6741C108.263 87.0308 109.185 86.1424 109.867 85.0796C109.885 85.0438 109.91 85.0119 109.94 84.9857C109.971 84.9595 110.006 84.9395 110.044 84.9269C110.082 84.9143 110.122 84.9093 110.162 84.9121C110.202 84.915 110.241 84.9258 110.277 84.9437C110.312 84.9617 110.344 84.9865 110.371 85.0168C110.397 85.0471 110.417 85.0822 110.429 85.1202C110.442 85.1582 110.447 85.1983 110.444 85.2383C110.441 85.2782 110.431 85.3172 110.413 85.353C109.262 87.2036 107.439 88.5373 105.327 89.0751Z" fill="#263238"/>
</g>
<rect x="21.7314" y="44.0649" width="155.766" height="155.574" rx="77.787" transform="rotate(-15 21.7314 44.0649)" stroke="#D1DCF8" stroke-width="4.824"/>
<path d="M54 84C54 92.836 46.836 100 38 100C29.164 100 22 92.836 22 84C22 75.164 29.164 68 38 68C46.836 68 54 75.164 54 84Z" fill="#C8E6C9"/>
<path d="M46.4672 76.4688L35.6112 87.3376L31.1296 82.8688L28.8672 85.1311L35.6144 91.8623L48.7304 78.7311L46.4672 76.4688Z" fill="#4CAF50"/>
<g clip-path="url(#clip1_7842_6908)">
<rect x="5" y="230" width="76" height="76" rx="38" fill="white"/>
<path d="M22.9444 291.727L18.2955 302.912L9.86201 297.708L6.38672 301.211C6.38672 301.211 16.8763 313.352 21.8163 312.496C25.4553 311.878 30.0041 297.03 30.0041 297.03L22.9444 291.727Z" fill="#FFBF9D"/>
<path d="M9.82108 298.333C9.97115 297.198 9.82218 296.044 9.38894 294.985C8.67933 293.488 8.12893 292.424 7.77412 291.56C7.41931 290.695 7.0645 290.099 6.47771 290.927C5.89091 291.755 6.27756 292.82 6.6733 293.529C7.06905 294.239 7.50119 294.589 6.79158 294.944C6.08196 295.299 4.18966 294.553 3.28444 294.08C1.9261 293.47 0.51656 292.981 -0.927748 292.62C-2.0695 292.347 -2.34698 292.897 -2.34698 292.897C-2.50434 292.769 -2.69024 292.68 -2.88896 292.639C-3.08769 292.598 -3.2934 292.605 -3.48873 292.66C-3.58029 292.672 -3.66787 292.705 -3.74425 292.756C-3.82063 292.808 -3.88362 292.877 -3.92805 292.958C-3.97247 293.039 -3.99704 293.129 -3.99975 293.221C-4.00246 293.313 -3.98321 293.405 -3.94361 293.488L-3.62974 293.761C-3.71749 293.832 -3.78895 293.92 -3.83917 294.021C-3.88939 294.121 -3.91719 294.232 -3.92065 294.344C-3.92411 294.457 -3.90315 294.568 -3.85921 294.672C-3.81527 294.776 -3.74939 294.868 -3.66613 294.944C-3.0384 295.535 -0.00434065 297.218 -0.00434065 297.218C-0.00434065 297.218 -2.43795 296.072 -3.0293 296.149C-3.62064 296.227 -3.48418 296.864 -3.15666 297.059C-2.82915 297.255 2.59303 300.13 3.30264 300.644C4.01225 301.158 7.15093 301.867 7.15093 301.867L9.82108 298.333Z" fill="#FFBF9D"/>
<path d="M7.00888 298.585C7.00888 298.585 6.79054 298.467 6.61314 298.13C6.39449 297.688 6.31669 297.189 6.39024 296.702C6.46979 296.226 6.62327 295.765 6.84512 295.337C7.00888 295.014 7.1317 294.823 7.15899 294.837C7.18629 294.85 7.12261 295.064 6.99979 295.405C6.83638 295.835 6.71749 296.28 6.64498 296.733C6.57921 297.179 6.62612 297.634 6.78144 298.057C6.89061 298.376 7.03617 298.558 7.00888 298.585Z" fill="#FF9A6C"/>
<path d="M20.2171 306.225C19.6904 305.788 19.2626 305.243 18.9616 304.628C18.5951 304.052 18.3577 303.404 18.2656 302.727C18.3339 302.704 18.6295 303.555 19.1754 304.515C19.7212 305.474 20.2716 306.18 20.2171 306.225Z" fill="#FF9A6C"/>
<path d="M43.3994 248.667C40.9157 248.422 38.8233 249.518 36.8536 251.042C34.8876 252.608 33.4478 254.738 32.7279 257.146C31.9163 259.665 31.9467 262.379 32.8143 264.879C33.2546 266.12 33.9425 267.259 34.8362 268.226C35.73 269.194 36.811 269.969 38.0136 270.506C41.316 271.907 45.3599 271.056 48.0664 268.687C50.773 266.317 52.1604 262.65 52.0421 259.061C52.003 256.57 51.1784 254.155 49.6858 252.161C48.9346 251.175 47.989 250.355 46.9076 249.75C45.8262 249.145 44.6321 248.769 43.3994 248.645" fill="#263238"/>
<path d="M36.9945 257.495C37.2902 256.531 37.0764 255.494 37.1492 254.488C37.3129 252.278 38.9687 250.394 40.9383 249.403C42.7806 248.493 45.1096 248.493 47.4476 249.071C49.0707 249.44 50.5543 250.265 51.7235 251.45C52.4718 252.256 53.0159 253.23 53.3103 254.289C53.6047 255.349 53.6408 256.464 53.4157 257.541L42.0983 256.685C41.1591 257.68 40.0635 258.514 38.855 259.155C38.4997 259.344 38.1015 259.436 37.6996 259.424C37.501 259.411 37.3102 259.343 37.1491 259.226C36.9881 259.109 36.8635 258.949 36.7898 258.764C36.6442 258.368 36.8671 257.914 36.9945 257.495Z" fill="#263238"/>
<path d="M47.9083 252.134L38.2694 254.886C37.8136 254.945 37.3971 255.175 37.1034 255.528C36.8098 255.882 36.6608 256.333 36.6864 256.792L38.274 277.958C38.3833 279.404 38.9651 280.774 39.9297 281.856L40.9487 282.993C41.4799 283.598 42.1536 284.06 42.9087 284.338C43.6638 284.617 44.4764 284.702 45.2728 284.587C46.0692 284.472 46.8243 284.159 47.4696 283.679C48.1149 283.198 48.63 282.564 48.9682 281.833C49.0532 281.652 49.1158 281.461 49.1547 281.265C49.1547 281.074 49.2138 280.942 49.2138 280.783L49.2548 278.704C49.2184 276.812 49.1001 274.896 49.1047 274.915C49.1092 274.933 53.0712 274.128 53.7399 268.897C54.072 266.299 53.8127 262.073 53.4897 258.594C53.1986 255.478 51.0106 251.711 47.9083 252.134Z" fill="#FFBF9D"/>
<path d="M52.7234 262.929C52.7309 263.103 52.6698 263.273 52.5532 263.403C52.4367 263.532 52.274 263.61 52.1002 263.621C52.0157 263.631 51.93 263.624 51.8483 263.6C51.7666 263.576 51.6905 263.536 51.6247 263.482C51.5589 263.428 51.5046 263.361 51.4652 263.286C51.4257 263.211 51.4019 263.128 51.3952 263.043C51.3876 262.869 51.4486 262.698 51.5651 262.568C51.6815 262.438 51.8442 262.359 52.0183 262.347C52.103 262.338 52.1885 262.347 52.27 262.371C52.3515 262.396 52.4272 262.436 52.4928 262.491C52.5585 262.545 52.6126 262.611 52.6522 262.687C52.6918 262.762 52.716 262.845 52.7234 262.929Z" fill="#263238"/>
<path d="M52.6547 260.813C52.5728 260.904 52.0588 260.545 51.3401 260.567C50.6214 260.59 50.1074 260.968 50.0255 260.881C49.9436 260.795 50.0664 260.681 50.2893 260.508C50.5947 260.284 50.9614 260.159 51.3401 260.149C51.7133 260.14 52.0802 260.247 52.3908 260.454C52.591 260.613 52.6547 260.772 52.6547 260.813Z" fill="#263238"/>
<path d="M45.9656 263.094C45.9731 263.267 45.9126 263.436 45.797 263.566C45.6814 263.695 45.5199 263.774 45.347 263.785C45.2622 263.795 45.1763 263.788 45.0943 263.765C45.0123 263.741 44.936 263.701 44.8698 263.647C44.8036 263.593 44.7489 263.526 44.7089 263.451C44.669 263.375 44.6447 263.293 44.6373 263.208C44.6298 263.033 44.6908 262.863 44.8072 262.733C44.9237 262.603 45.0864 262.523 45.2605 262.512C45.3453 262.502 45.4311 262.51 45.5128 262.534C45.5945 262.559 45.6705 262.599 45.7363 262.654C45.802 262.708 45.8562 262.775 45.8956 262.851C45.935 262.926 45.9588 263.009 45.9656 263.094Z" fill="#263238"/>
<path d="M45.8349 261.137C45.753 261.228 45.239 260.869 44.5203 260.892C43.8015 260.914 43.2875 261.292 43.2056 261.206C43.1238 261.119 43.242 261.01 43.4695 260.833C43.7743 260.608 44.1416 260.484 44.5203 260.478C44.8921 260.464 45.2586 260.569 45.5665 260.778C45.7803 260.942 45.8621 261.096 45.8349 261.137Z" fill="#263238"/>
<path d="M48.3489 266.436C48.7235 266.305 49.1133 266.223 49.5088 266.19C49.6908 266.19 49.8636 266.127 49.8909 265.999C49.899 265.809 49.8499 265.62 49.7499 265.458C49.5634 265.003 49.3678 264.548 49.1677 264.093C48.3534 262.128 47.7575 260.509 47.8349 260.477C47.9122 260.445 48.64 262.01 49.4543 263.975L50.0138 265.367C50.1377 265.583 50.1797 265.837 50.132 266.081C50.108 266.147 50.0693 266.206 50.0188 266.254C49.9683 266.302 49.9074 266.338 49.8409 266.359C49.739 266.39 49.6335 266.408 49.527 266.413C49.1368 266.47 48.741 266.478 48.3489 266.436Z" fill="#263238"/>
<path d="M49.1093 274.917C46.6603 275.028 44.2287 274.457 42.0859 273.266C42.0859 273.266 43.9464 276.818 49.1411 276.172L49.1093 274.917Z" fill="#FF9A6C"/>
<path d="M45.6375 259.003C45.5692 259.203 44.8505 259.13 44.0136 259.257C43.1766 259.385 42.4988 259.635 42.3805 259.462C42.3259 259.38 42.4397 259.194 42.708 259.007C43.0677 258.763 43.4786 258.604 43.9092 258.543C44.3397 258.483 44.7785 258.522 45.1917 258.657C45.5056 258.762 45.6648 258.912 45.6375 259.003Z" fill="#263238"/>
<path d="M52.3301 257.701C52.2118 257.865 51.7115 257.701 51.1156 257.701C50.5197 257.701 50.0193 257.842 49.8965 257.674C49.8465 257.596 49.8965 257.428 50.133 257.269C50.4226 257.073 50.7639 256.969 51.1133 256.969C51.4627 256.969 51.8041 257.073 52.0936 257.269C52.3119 257.451 52.3847 257.619 52.3301 257.701Z" fill="#263238"/>
<path d="M35.1149 256.063C35.9201 253.01 40.0686 248.643 43.2254 248.712L48.3929 251.473C48.271 252.337 47.9185 253.152 47.3726 253.832C46.8267 254.512 46.1074 255.033 45.2906 255.339C44.4127 255.653 43.3482 255.794 42.857 256.572C42.3657 257.35 42.7296 258.496 42.2656 259.301C41.6288 260.452 39.7229 260.493 39.2634 261.721C39.0587 262.258 39.2088 262.881 38.9996 263.418C38.7176 264.128 36.9981 265.097 36.2703 264.905C35.5425 264.714 35.4652 263.468 35.1968 262.831C34.8605 262.112 34.7818 261.3 34.9739 260.53C35.2104 259.078 34.7283 257.532 35.1149 256.063Z" fill="#263238"/>
<path d="M38.4314 265.468C38.4314 265.082 37.9447 264.181 37.558 264.136C36.53 264.004 34.6923 264.136 34.7514 266.742C34.8378 270.29 38.3904 269.471 38.3904 269.371C38.3904 269.271 38.4769 266.806 38.4314 265.468Z" fill="#FFBF9D"/>
<path d="M37.2724 268.064C37.2724 268.064 37.2087 268.109 37.1086 268.159C36.9628 268.218 36.7996 268.218 36.6537 268.159C36.2762 268.032 35.9487 267.445 35.9123 266.795C35.8942 266.483 35.9471 266.172 36.0669 265.885C36.0964 265.772 36.1534 265.669 36.2328 265.584C36.3122 265.499 36.4116 265.435 36.5218 265.398C36.5922 265.377 36.6675 265.382 36.7348 265.411C36.8021 265.44 36.8571 265.492 36.8903 265.557C36.9403 265.657 36.9176 265.73 36.9358 265.735C36.9539 265.739 37.0131 265.671 36.9812 265.525C36.9552 265.44 36.9046 265.364 36.8357 265.307C36.7865 265.271 36.7305 265.245 36.6712 265.231C36.6118 265.217 36.5501 265.215 36.49 265.225C36.3452 265.257 36.2111 265.326 36.1004 265.425C35.9897 265.524 35.9062 265.649 35.8577 265.789C35.7154 266.101 35.6498 266.443 35.6666 266.785C35.7076 267.5 36.0897 268.15 36.6037 268.296C36.6995 268.322 36.8 268.326 36.8977 268.308C36.9954 268.29 37.0877 268.25 37.1677 268.191C37.2678 268.15 37.286 268.068 37.2724 268.064Z" fill="#FF9A6C"/>
<path d="M47.2852 250.498C47.7127 251.917 50.0144 253.614 51.0698 254.669C53.053 256.68 53.4624 257.366 53.7763 262.152C54.5269 260.441 55.0773 258.777 54.8817 256.916C54.7115 255.033 53.857 253.277 52.4799 251.981C51.7887 251.347 50.9596 250.882 50.058 250.624C49.1564 250.366 48.2071 250.321 47.2852 250.493" fill="#263238"/>
<path d="M38.1436 247.093C37.2166 246.435 36.118 246.062 34.9822 246.019C33.3494 245.9 31.7251 246.343 30.3788 247.274C29.7413 247.717 29.2138 248.299 28.8368 248.978C28.4599 249.656 28.2435 250.412 28.2045 251.186C28.2006 251.959 28.4078 252.719 28.8038 253.382C29.1998 254.046 29.7696 254.589 30.4516 254.953C29.7875 255.886 28.9092 256.645 27.8906 257.168C28.0973 257.355 28.3395 257.499 28.6028 257.592C28.8661 257.684 29.1452 257.722 29.4236 257.705C29.987 257.671 30.5437 257.564 31.0793 257.386C30.8102 258.016 30.3268 258.53 29.7147 258.838C30.6481 258.879 31.5762 258.677 32.4076 258.251C33.2183 257.833 33.972 257.314 34.6501 256.704C36.7614 254.983 38.4551 252.806 39.6038 250.336C39.6048 249.723 39.4751 249.116 39.2233 248.557C38.9715 247.998 38.6034 247.498 38.1436 247.093Z" fill="#263238"/>
<path d="M38.9477 269.843C38.9685 270.147 38.8987 270.451 38.7471 270.715C38.5955 270.98 38.3689 271.193 38.096 271.329C37.823 271.465 37.5159 271.517 37.2135 271.478C36.9111 271.439 36.627 271.312 36.397 271.112C36.167 270.911 36.0015 270.648 35.9214 270.354C35.8413 270.059 35.8501 269.748 35.9469 269.459C36.0436 269.17 36.2239 268.916 36.4649 268.729C36.7059 268.543 36.9969 268.431 37.301 268.41C37.5033 268.396 37.7063 268.422 37.8986 268.486C38.0908 268.55 38.2685 268.652 38.4215 268.785C38.5744 268.918 38.6996 269.08 38.7899 269.262C38.8802 269.443 38.9338 269.641 38.9477 269.843Z" fill="#455A64"/>
<path d="M33.7539 255.433C35.1777 252.222 37.3929 250.239 39.5445 249.352L33.7539 255.433Z" fill="#263238"/>
<path d="M39.5445 249.352C39.4491 249.412 39.3486 249.463 39.2443 249.506C39.0487 249.602 38.7894 249.747 38.4392 249.961C37.5788 250.491 36.7964 251.139 36.1147 251.885C35.4332 252.632 34.8395 253.455 34.3453 254.337C34.1588 254.678 34.0086 254.956 33.9131 255.151C33.8674 255.254 33.8142 255.352 33.7539 255.447C33.784 255.338 33.8252 255.233 33.8767 255.133C33.9586 254.928 34.0996 254.646 34.2816 254.301C34.7624 253.402 35.3521 252.567 36.0374 251.812C36.7245 251.058 37.5221 250.413 38.4028 249.897C38.6687 249.743 38.9436 249.605 39.2261 249.483C39.3296 249.433 39.436 249.389 39.5445 249.352Z" fill="#455A64"/>
<path d="M31.8594 258.292C31.8594 258.292 31.8594 258.292 31.9049 258.292L32.0413 258.319C32.1596 258.347 32.337 258.379 32.5644 258.415C33.2081 258.505 33.8602 258.517 34.5068 258.451C35.4656 258.35 36.4056 258.116 37.2997 257.755C38.3937 257.309 39.4418 256.757 40.4293 256.109C41.4892 255.431 42.4763 254.744 43.3542 254.107C44.1314 253.535 44.8657 252.907 45.5513 252.229C46.011 251.768 46.4338 251.272 46.8158 250.746C46.9523 250.564 47.0524 250.409 47.1206 250.291L47.1979 250.177L47.2252 250.141C47.2252 250.141 47.2252 250.141 47.2252 250.186L47.1525 250.304C47.0663 250.462 46.9706 250.614 46.8659 250.759C46.4958 251.297 46.0804 251.802 45.6241 252.269C44.9434 252.96 44.2104 253.597 43.4315 254.175C42.5536 254.83 41.5665 255.508 40.5021 256.191C39.5074 256.841 38.4516 257.392 37.3498 257.837C36.4466 258.196 35.497 258.424 34.5295 258.515C33.8773 258.575 33.22 258.552 32.5735 258.447C32.3461 258.406 32.1732 258.365 32.055 258.333L31.9231 258.292H31.8594Z" fill="#455A64"/>
<path d="M48.6253 268.421C48.5076 268.727 48.355 269.019 48.1704 269.29C47.9771 269.562 47.696 269.76 47.3743 269.849C47.1702 269.888 46.9599 269.88 46.7592 269.827C46.5584 269.773 46.3722 269.675 46.2144 269.54C46.0249 269.397 45.8849 269.198 45.8141 268.971C45.7707 268.753 45.7945 268.526 45.8823 268.321C45.9719 268.119 46.0816 267.927 46.2098 267.748C46.2688 267.638 46.3613 267.551 46.4737 267.498C46.6049 267.468 46.7423 267.488 46.8603 267.552C47.5108 267.807 48.0203 268.13 48.648 268.421" fill="#FF9A6C"/>
<path d="M47.9908 269.567C47.9908 269.567 47.9408 269.658 47.7861 269.744C47.5612 269.852 47.3107 269.894 47.0629 269.867C46.6878 269.831 46.3354 269.671 46.0621 269.412C45.8866 269.26 45.764 269.056 45.7119 268.83C45.6693 268.584 45.7093 268.331 45.8256 268.111C45.9347 267.906 46.0643 267.712 46.2122 267.533C46.2547 267.476 46.3115 267.43 46.3769 267.402C46.4424 267.373 46.5142 267.362 46.5852 267.37C46.6965 267.391 46.8039 267.429 46.9036 267.483L47.8498 267.938C48.1503 268.056 48.4358 268.208 48.7004 268.393C48.3848 268.324 48.0792 268.215 47.7907 268.07L46.8218 267.661C46.7436 267.618 46.6591 267.589 46.5716 267.574C46.4988 267.574 46.4579 267.574 46.3942 267.661C46.2639 267.828 46.1482 268.006 46.0485 268.193C45.9509 268.365 45.9156 268.566 45.9484 268.761C45.9906 268.937 46.0859 269.096 46.2213 269.216C46.4508 269.443 46.7444 269.594 47.0626 269.649C47.3808 269.703 47.708 269.659 47.9999 269.521L47.9908 269.567Z" fill="#263238"/>
<path d="M54.0433 277.888L48.894 277.297L38.1907 278.68L33.2734 280.931L39.942 286.586L48.6848 285.103L52.524 282.692L54.0433 277.888Z" fill="#FFBF9D"/>
<path d="M35.6272 279.533C35.2633 279.624 28.4538 280.988 26.8162 282.348C25.1786 283.709 21.8125 292.856 21.8125 292.856L29.7001 297.692L30.8009 295.24L31.4332 308.227C31.4332 308.227 26.6888 314.286 26.9572 314.881C27.279 315.579 27.6756 316.239 28.1399 316.851C29.5467 318.712 31.386 320.201 33.4984 321.191C37.6605 323.174 46.5262 326.331 53.7178 321.646L55.4509 309.86C55.4509 309.86 59.6722 301.867 59.6722 297.323C59.6722 296.295 59.7086 294.689 59.5994 292.856C59.231 286.62 58.3121 277.531 58.3121 277.531H52.2395C52.2395 277.531 48.0728 284.614 42.687 283.254C37.3012 281.894 35.6272 279.533 35.6272 279.533Z" fill="#4F3895"/>
<path d="M58.3086 277.57C61.4928 278.098 63.7171 280.754 67.6882 286.973L58.3086 292.65V277.57Z" fill="#4F3895"/>
<path d="M30.0513 287.344C30.0154 287.479 30.0016 287.618 30.0104 287.758C30.0104 288.022 30.0104 288.404 30.0104 288.877C30.0104 289.823 30.0832 291.151 30.2333 292.566C30.3834 293.98 30.5972 295.295 30.7837 296.205C30.8747 296.66 30.9565 297.046 31.0248 297.301C31.0486 297.438 31.0899 297.571 31.1476 297.697C31.1124 297.186 31.044 296.679 30.9429 296.178C30.7973 295.245 30.6154 293.958 30.4607 292.538C30.3061 291.119 30.2242 289.809 30.1741 288.868C30.1629 288.358 30.1219 287.849 30.0513 287.344Z" fill="#263238"/>
<path d="M58.3086 284.031C58.3094 284.202 58.3323 284.372 58.3768 284.536C58.4451 284.909 58.5315 285.364 58.6361 285.901C58.8545 287.052 59.1547 288.63 59.3685 290.418C59.5461 291.928 59.6402 293.446 59.6505 294.967V296.354C59.6311 296.525 59.6311 296.697 59.6505 296.868C59.6952 296.702 59.7181 296.531 59.7187 296.359C59.7506 296.031 59.7779 295.558 59.7961 294.994C59.8327 293.459 59.7597 291.924 59.5777 290.4C59.3885 288.878 59.1213 287.368 58.7771 285.874C58.6452 285.3 58.5315 284.841 58.4451 284.509C58.4166 284.345 58.3708 284.185 58.3086 284.031Z" fill="#263238"/>
<path d="M49.006 290.773H42.1055V302.728H49.006V290.773Z" fill="white"/>
<path d="M49.0183 302.75H42.0859V290.773H49.0183V302.75Z" fill="white"/>
<path d="M46.5302 298.662C46.2525 298.301 45.9958 297.924 45.7614 297.534C45.1502 296.628 44.4784 295.765 43.7509 294.95C43.0213 294.139 42.2371 293.379 41.4037 292.675C41.0406 292.394 40.6957 292.09 40.3711 291.766C40.7773 291.976 41.1587 292.231 41.5083 292.525C43.2583 293.88 44.7473 295.541 45.9024 297.429C46.158 297.815 46.3686 298.228 46.5302 298.662Z" fill="#263238"/>
<path d="M64.1719 299.139L59.9871 291.633L66.7238 287.539C67.1105 287.926 70.4266 295.313 71.2726 296.891C73.1922 300.485 72.7146 302.828 71.1862 303.851C69.0574 305.279 53.3049 314.368 53.3049 314.368L50.9531 310.77C50.9531 310.77 63.4168 299.898 64.1719 299.139Z" fill="#FFBF9D"/>
<path d="M68.123 298.177C67.3936 298.218 66.6684 298.314 65.9533 298.464C65.2597 298.689 64.5845 298.967 63.9336 299.296C64.4933 298.791 65.165 298.426 65.8934 298.231C66.6218 298.037 67.386 298.018 68.123 298.177Z" fill="#FF9A6C"/>
</g>
<rect x="6.2393" y="231.239" width="73.5214" height="73.5214" rx="36.7607" stroke="#D1DCF8" stroke-width="2.4786"/>
<path d="M24 244C24 250.627 18.627 256 12 256C5.373 256 0 250.627 0 244C0 237.373 5.373 232 12 232C18.627 232 24 237.373 24 244Z" fill="#C8E6C9"/>
<path d="M18.3484 238.352L10.2064 246.503L6.84524 243.152L5.14844 244.848L10.2088 249.897L20.0458 240.048L18.3484 238.352Z" fill="#4CAF50"/>
<defs>
<linearGradient id="paint0_linear_7842_6908" x1="70.5003" y1="201.556" x2="69.5369" y2="201.288" gradientUnits="userSpaceOnUse">
<stop stop-color="#8867EB" stop-opacity="0.4"/>
<stop offset="1" stop-color="#8867EB" stop-opacity="0.6"/>
</linearGradient>
<clipPath id="clip0_7842_6908">
<rect x="18.7773" y="42.3594" width="160.59" height="160.398" rx="80.199" transform="rotate(-15 18.7773 42.3594)" fill="white"/>
</clipPath>
<clipPath id="clip1_7842_6908">
<rect x="5" y="230" width="76" height="76" rx="38" fill="white"/>
</clipPath>
</defs>
</svg>
