<svg width="218" height="382" viewBox="0 0 218 382" fill="none" xmlns="http://www.w3.org/2000/svg">
<line x1="82.467" y1="170.209" x2="63.4653" y2="303.563" stroke="#8867EB" stroke-opacity="0.2" stroke-width="2.96363" stroke-dasharray="8.89 8.89"/>
<line x1="142.325" y1="49.0707" x2="89.0244" y2="100.071" stroke="url(#paint0_linear_7842_7022)" stroke-opacity="0.3" stroke-width="2.96363" stroke-dasharray="8.89 8.89"/>
<g clip-path="url(#clip0_7842_7022)">
<rect x="6.9375" y="275.57" width="105.518" height="106.493" rx="52.7591" transform="rotate(-7.06256 6.9375 275.57)" fill="white"/>
<path d="M96.8164 346.273C96.8164 346.273 107.672 347.746 113.04 360.09C116.911 368.994 123.585 381.535 123.585 381.535L106.904 386.501L96.8164 346.273Z" fill="#6A55AB"/>
<path d="M41.9797 355.576C41.9797 355.576 49.3018 350.871 58.0901 346.532L61.0177 346.17L78.8504 345.096C84.863 344.993 90.8739 345.384 96.8224 346.266C96.8224 346.266 105.959 378.617 107.76 384.984C109.704 391.905 111.674 399.043 111.674 399.043L122.053 436.279C124.145 438.396 123.978 440.875 124.02 443.32C105.277 454.453 83.4714 458.788 56.928 451.975C56.5164 451.408 56.2655 450.74 56.2021 450.042C56.1386 449.344 56.2648 448.642 56.5675 448.01C55.8682 440.257 54.3355 423.403 54.0818 418.192C54.0818 418.192 49.3468 402.846 46.5656 397.073C43.2619 390.182 37.7443 379.13 37.0099 373.203C36.3182 367.751 41.9797 355.576 41.9797 355.576Z" fill="#6A55AB"/>
<path d="M99.8737 356.89C99.9863 356.876 102.714 366.24 105.964 377.834C109.213 389.428 111.754 398.864 111.644 398.902C111.535 398.94 108.804 389.552 105.553 377.95C102.303 366.348 99.7631 356.92 99.8737 356.89Z" fill="#263238"/>
<path d="M97.8786 369.259C98.3961 368.281 98.8436 367.268 99.2178 366.227C99.5447 365.108 99.176 361.209 100.175 359.975C101.173 358.741 104.263 355.01 105.445 353.605C106.626 352.201 106.943 351.329 107.867 352.064C108.357 352.538 108.686 353.154 108.806 353.826C108.926 354.497 108.831 355.189 108.534 355.803C107.951 357.288 105.622 359.978 106.178 361.305C106.735 362.633 106.855 363.933 109.234 363.622C111.612 363.311 117.946 360.517 121.069 359.354C125.455 357.717 126.673 359.044 126.673 359.044C126.673 359.044 128.859 358.234 129.451 359.19C130.043 360.145 128.622 361.661 127.991 362.302C127.36 362.944 128.2 365.11 123.586 368.728C122.975 369.204 124.619 370.152 119.944 372.952C117.276 374.549 115.517 376.04 112.349 377.037C105.646 379.158 103.168 383.475 103.168 383.475C103.007 383.495 92.2427 375.38 93.8409 373.646L97.8786 369.259Z" fill="#FFBF9D"/>
<path d="M126.631 358.893C126.631 358.893 126.815 358.993 126.866 359.338C126.869 359.577 126.817 359.813 126.713 360.029C126.609 360.244 126.457 360.433 126.269 360.58C125.085 361.457 123.836 362.245 122.535 362.937C121.247 363.64 119.921 364.27 118.563 364.825C118.013 365.091 117.429 365.282 116.828 365.391C116.813 365.271 119.344 364.206 122.333 362.562C123.816 361.741 125.18 360.959 126.07 360.359C126.244 360.25 126.394 360.106 126.509 359.935C126.624 359.765 126.703 359.572 126.739 359.37C126.701 359.064 126.592 358.906 126.631 358.893Z" fill="#FF9A6C"/>
<path d="M127.877 362.487C127.49 362.975 127.038 363.407 126.533 363.772C125.375 364.721 124.154 365.589 122.879 366.373C121.607 367.172 120.282 367.882 118.912 368.498C118.357 368.78 117.768 368.99 117.16 369.123C117.144 368.994 119.71 367.884 122.66 366.057C125.61 364.23 127.8 362.398 127.877 362.487Z" fill="#FF9A6C"/>
<path d="M118.698 371.893C119.42 371.238 120.215 370.668 121.068 370.195C121.848 369.605 122.693 369.105 123.587 368.707C122.934 369.447 122.161 370.07 121.3 370.55C120.519 371.148 119.638 371.603 118.698 371.893Z" fill="#FF9A6C"/>
<path d="M50.5475 400.578C50.5475 400.578 62.6901 419.489 71.1891 419.604C79.6881 419.719 84.946 409.823 87.4822 406.103C90.7604 401.32 106.898 378.259 106.898 378.259L95.9929 371.444L72.7794 392.695L66.9573 385.249L50.5475 400.578Z" fill="#FFBF9D"/>
<path d="M56.9221 369.313C63.5453 378.676 70.8899 388.39 70.8899 388.39L49.7313 403.947C49.7313 403.947 38.3147 384.897 38.1755 384.367C38.1755 384.367 33.4841 372.404 35.5266 365.095C36.7201 361.36 38.9553 358.043 41.9694 355.534" fill="#6A55AB"/>
<path d="M41.9793 355.572L41.8776 355.674L41.5476 355.976C41.2699 356.239 40.8141 356.647 40.342 357.187C38.8722 358.75 37.6441 360.523 36.6984 362.449C36.046 363.809 35.6009 365.26 35.3779 366.753C35.1567 368.51 35.1521 370.288 35.3641 372.046C35.8606 376.235 36.8692 380.348 38.3675 384.291C38.6895 384.913 39.1239 385.651 39.5192 386.337C39.9145 387.023 40.346 387.737 40.7614 388.454L43.3511 392.812C45.1151 395.779 46.9493 398.851 48.8336 401.998L49.9163 403.816L49.6148 403.755L70.7684 388.223L70.7339 388.472C66.5504 382.719 63.0836 377.938 60.6416 374.574L57.8493 370.69C57.5502 370.253 57.3073 369.94 57.1327 369.651C57.0407 369.54 56.9625 369.418 56.8999 369.288C56.8999 369.288 56.9952 369.399 57.1779 369.621L57.9388 370.621C58.6153 371.534 59.583 372.819 60.8065 374.455C63.2788 377.8 66.7899 382.542 71.0096 388.259L71.117 388.4L70.9751 388.508L49.8637 404.116L49.6766 404.254L49.5522 404.04L48.5097 402.218L43.0352 393.031L40.4596 388.654L39.1772 386.543C38.7639 385.778 38.3816 385.196 37.9974 384.403C36.4928 380.425 35.4877 376.275 35.0053 372.05C34.8065 370.264 34.8244 368.46 35.0583 366.678C35.3115 365.183 35.7871 363.734 36.4693 362.379C37.4507 360.449 38.7214 358.68 40.2375 357.135C40.7669 356.596 41.1995 356.199 41.4963 355.958L41.8384 355.687L41.9793 355.572Z" fill="#263238"/>
<path d="M46.5316 336.32C47.3911 335.348 48.7295 334.945 49.601 334.005C50.0165 333.502 50.3266 332.921 50.513 332.296C50.6993 331.671 50.758 331.015 50.6856 330.367C50.5318 329.07 50.1877 327.803 49.6644 326.606L61.7841 338.742C61.2208 340.353 60.3614 341.845 59.2502 343.14C58.6982 343.78 57.9902 344.268 57.1947 344.556C56.3992 344.843 55.543 344.92 54.7089 344.78C53.0286 344.4 51.754 342.549 52.2865 340.915C51.6564 341.659 50.7698 342.138 49.8028 342.258C48.8358 342.377 47.8592 342.129 47.0667 341.562C46.3139 340.929 45.8371 340.028 45.7372 339.05C45.6373 338.071 45.9222 337.092 46.5316 336.32Z" fill="#263238"/>
<path d="M71.9181 293.332C74.6948 294.916 75.3462 296.746 75.5723 297.78C75.6092 298.077 75.656 298.455 75.3744 298.621C75.2465 298.681 75.1028 298.699 74.9642 298.672L66.1441 297.086" fill="#263238"/>
<path d="M52.654 330.08C50.2208 326.873 48.0639 323.466 46.2066 319.895C44.3488 316.291 43.3909 312.29 43.4147 308.236C43.4365 307.621 43.9427 303.401 44.5218 303.264C44.9481 303.211 44.9772 306.94 45.3337 307.247C48.3976 310.028 50.252 313.987 51.2357 318.038C52.1516 321.998 52.6286 326.047 52.658 330.112" fill="#263238"/>
<path d="M85.4948 326.091C84.3428 321.538 81.2134 312.363 78.2892 304.118C76.837 299.867 73.8274 296.326 69.8672 294.207C65.9069 292.088 61.2905 291.549 56.9488 292.699L56.0559 292.94C46.6516 296.131 44.1027 306.075 47.5281 315.597L58.2381 347.663L58.9321 348.19C63.7039 351.837 68.9142 353.486 74.1894 352.694C76.0426 352.405 77.7219 351.437 78.8999 349.977C80.0779 348.518 80.6701 346.672 80.561 344.799C80.5963 344.689 79.0891 339.51 79.0891 339.51C79.0891 339.51 87.8941 335.504 85.4948 326.091Z" fill="#FFBF9D"/>
<path d="M79.108 339.478C74.8583 340.617 70.3677 340.486 66.1914 339.102C66.1914 339.102 70.9533 345.371 79.8803 342.02L79.108 339.478Z" fill="#FF9A6C"/>
<path d="M77.7255 313.613C77.8258 313.959 77.7881 314.329 77.6203 314.647C77.4524 314.965 77.1676 315.206 76.826 315.317C76.6614 315.376 76.4867 315.4 76.3124 315.389C76.138 315.379 75.9677 315.333 75.8116 315.254C75.6555 315.176 75.5167 315.067 75.4038 314.934C75.2908 314.801 75.2059 314.646 75.1542 314.479C75.0517 314.134 75.0885 313.762 75.2566 313.444C75.4247 313.125 75.7109 312.885 76.0537 312.775C76.2183 312.717 76.393 312.692 76.5674 312.703C76.7417 312.714 76.912 312.76 77.0681 312.838C77.2243 312.917 77.363 313.026 77.4759 313.159C77.5889 313.292 77.6738 313.447 77.7255 313.613Z" fill="#263238"/>
<path d="M77.4467 308.751C77.3268 308.97 76.1321 308.489 74.7274 308.883C73.3227 309.278 72.4501 310.276 72.2783 310.142C72.1066 310.008 72.2265 309.724 72.621 309.283C73.1162 308.69 73.7815 308.262 74.5273 308.059C75.263 307.858 76.0437 307.899 76.7547 308.175C77.2691 308.373 77.5081 308.653 77.4467 308.751Z" fill="#263238"/>
<path d="M65.5649 316.931C65.6649 317.276 65.6268 317.645 65.4587 317.962C65.2905 318.279 65.0056 318.517 64.6644 318.627C64.4997 318.685 64.325 318.71 64.1507 318.699C63.9764 318.688 63.8061 318.642 63.65 318.564C63.4938 318.486 63.3551 318.377 63.2422 318.244C63.1292 318.11 63.0443 317.956 62.9926 317.789C62.9368 317.616 62.9157 317.433 62.9304 317.252C62.9452 317.07 62.9955 316.894 63.0786 316.732C63.1617 316.57 63.2758 316.426 63.4145 316.308C63.5533 316.19 63.7139 316.101 63.8871 316.045C64.0553 315.988 64.2334 315.965 64.4105 315.979C64.5876 315.993 64.76 316.043 64.9171 316.126C65.0742 316.209 65.2126 316.324 65.324 316.462C65.4354 316.6 65.5174 316.76 65.5649 316.931Z" fill="#263238"/>
<path d="M63.7053 312.884C63.5935 313.102 62.3988 312.621 60.9861 313.016C59.5733 313.412 58.7088 314.409 58.537 314.275C58.3653 314.141 58.4852 313.857 58.8878 313.415C59.3764 312.813 60.0435 312.382 60.793 312.183C61.5262 311.983 62.3043 312.024 63.0124 312.3C63.5329 312.48 63.7989 312.782 63.7053 312.884Z" fill="#263238"/>
<path d="M71.7261 322.582C72.4011 322.126 73.1328 321.761 73.9026 321.495C74.2535 321.362 74.5754 321.191 74.5666 320.923C74.4954 320.537 74.3091 320.181 74.032 319.903C73.4589 319.1 72.8567 318.26 72.2173 317.384C69.674 313.795 67.7271 310.803 67.8699 310.703C68.0128 310.604 70.1921 313.429 72.7354 317.018L74.5118 319.558C74.8541 319.944 75.0559 320.434 75.0843 320.949C75.0668 321.092 75.017 321.23 74.9387 321.351C74.8604 321.473 74.7556 321.575 74.6322 321.65C74.4488 321.763 74.2509 321.851 74.0439 321.911C73.3031 322.232 72.5242 322.458 71.7261 322.582Z" fill="#263238"/>
<path d="M62.964 308.255C62.869 308.675 61.3813 308.663 59.7182 309.082C58.0551 309.5 56.7306 310.146 56.4605 309.812C56.3341 309.648 56.5285 309.24 57.0356 308.785C57.7121 308.214 58.5127 307.81 59.3735 307.604C60.2342 307.398 61.1311 307.397 61.9926 307.599C62.6438 307.78 63.0044 308.054 62.964 308.255Z" fill="#263238"/>
<path d="M77.0131 306.371C76.8106 306.779 75.5692 306.778 74.1956 307.161C72.8221 307.543 71.7167 308.113 71.3491 307.848C71.1864 307.721 71.2863 307.341 71.695 306.882C72.2866 306.298 73.0256 305.885 73.8334 305.687C74.634 305.459 75.4822 305.459 76.2831 305.685C76.8437 305.926 77.0947 306.173 77.0131 306.371Z" fill="#263238"/>
<path d="M50.1363 322.3C49.9614 322.272 43.3191 322.115 45.2342 328.477C47.1493 334.838 52.971 331.601 52.948 331.416C52.9251 331.231 50.1363 322.3 50.1363 322.3Z" fill="#FFBF9D"/>
<path d="M50.3778 329.624C50.3778 329.624 50.2852 329.734 50.1312 329.875C49.9137 330.061 49.6336 330.157 49.3479 330.144C48.6232 330.095 47.7446 329.199 47.3669 328.062C47.1813 327.525 47.1107 326.955 47.1596 326.389C47.1571 326.172 47.2073 325.959 47.3057 325.766C47.4041 325.573 47.5479 325.407 47.7247 325.282C47.838 325.21 47.9735 325.181 48.1063 325.2C48.2392 325.22 48.3606 325.286 48.4484 325.388C48.5899 325.542 48.5908 325.681 48.623 325.677C48.6551 325.673 48.7277 325.533 48.5751 325.291C48.4941 325.144 48.3645 325.03 48.2086 324.969C48.1044 324.927 47.9929 324.908 47.8809 324.912C47.769 324.916 47.6591 324.943 47.5582 324.992C47.3155 325.121 47.1095 325.309 46.9594 325.539C46.8094 325.769 46.7202 326.033 46.7003 326.307C46.5985 326.938 46.6506 327.584 46.8521 328.191C47.2789 329.461 48.285 330.463 49.2641 330.456C49.4463 330.454 49.6256 330.41 49.7881 330.328C49.9506 330.245 50.092 330.127 50.2015 329.981C50.3937 329.753 50.3778 329.624 50.3778 329.624Z" fill="#FF9A6C"/>
<path d="M71.0175 294.87C71.8428 293.952 67.7973 291.619 64.9761 291.258C60.7115 290.717 54.6875 291.463 51.558 293.557C47.7877 296.082 45.0058 299.269 44.1303 303.804C43.3436 308.371 43.7619 313.065 45.3439 317.422C45.7126 318.781 46.4291 320.021 47.4228 321.019C48.7223 322.148 50.1806 322.45 51.1896 324.464C51.426 325.148 51.8581 325.748 52.4322 326.188C53.9532 327.062 54.9802 325.464 55.2591 324.091C55.8534 321.175 55.0796 318.16 54.3218 315.273C53.8846 313.195 53.1192 311.2 52.0544 309.363C51.4202 308.397 50.622 307.556 50.0732 306.555C49.7527 306.074 49.5387 305.53 49.4455 304.96C49.3524 304.39 49.3822 303.806 49.533 303.249C49.6217 303.011 49.7358 302.783 49.8735 302.57C50.4876 301.528 51.3716 300.671 52.4322 300.09C53.4928 299.508 54.6906 299.224 55.8993 299.267C59.7893 299.422 66.3363 299.403 67.5213 297.696C69.2168 295.232 69.4062 293.927 69.4062 293.927L71.0175 294.87Z" fill="#263238"/>
<path d="M45.7559 323.412C45.6002 323.341 45.4252 323.379 45.2776 323.308C35.7403 318.503 39.4249 309.75 38.8612 307.639C38.0844 304.665 35.8205 309.461 34.1789 305.769C32.005 300.812 36.6604 296.928 42.5315 292.64C44.9952 290.84 51.6433 288.408 57.9537 287.798C63.6016 287.245 68.282 289.956 71.1976 292.265C71.8697 292.357 72.5143 292.592 73.0877 292.954C74.5578 294.405 74.3598 295.246 74.3598 295.246C74.3598 295.246 60.783 292.772 53.5373 304.024C46.2915 315.277 50.236 321.738 47.6787 322.651L45.7559 323.412Z" fill="#455A64"/>
<path d="M46.0325 296.313C45.8957 296.452 45.7476 296.579 45.5898 296.694C45.4419 296.819 45.2638 296.963 45.0656 297.143C44.8674 297.323 44.6299 297.515 44.3904 297.757C43.8214 298.316 43.2895 298.911 42.7982 299.539C42.1955 300.301 41.6484 301.106 41.1611 301.947C40.6865 302.785 40.2704 303.655 39.9159 304.551C39.6374 305.3 39.4049 306.065 39.2198 306.842C39.13 307.172 39.0784 307.48 39.0298 307.748C38.9813 308.015 38.9358 308.241 38.9105 308.432C38.9033 308.628 38.8782 308.822 38.8354 309.013C38.8384 308.815 38.852 308.617 38.8763 308.42C38.8929 308.186 38.9213 307.954 38.9615 307.723C39.009 307.448 39.0445 307.141 39.1253 306.805C39.2957 306.017 39.5189 305.242 39.7933 304.484C40.1387 303.559 40.5544 302.661 41.0367 301.799C41.524 300.949 42.0792 300.14 42.6969 299.38C43.2013 298.76 43.7517 298.178 44.3433 297.641C44.5639 297.429 44.7953 297.228 45.0366 297.04C45.2428 296.86 45.4299 296.722 45.5798 296.614C45.7207 296.499 45.8723 296.398 46.0325 296.313Z" fill="#263238"/>
<path d="M71.5647 292.334C71.5647 292.334 71.5245 292.339 71.4441 292.349L71.0893 292.32C70.7827 292.284 70.3214 292.252 69.7364 292.21C69.1514 292.168 68.4216 292.144 67.5832 292.166C66.6336 292.187 65.6864 292.269 64.7473 292.411C62.2994 292.779 59.9328 293.564 57.7505 294.732C56.4557 295.418 55.2296 296.226 54.0888 297.145C52.8642 298.136 51.7434 299.249 50.7439 300.467C49.7436 301.698 48.8769 303.032 48.1582 304.446C47.4965 305.772 46.9599 307.156 46.5554 308.581C45.8942 311.027 45.5124 313.54 45.4174 316.072C45.3165 318.224 45.378 319.972 45.4219 321.183C45.4464 321.777 45.471 322.239 45.4797 322.573C45.4976 322.717 45.5126 322.838 45.5235 322.927C45.5345 323.015 45.5395 323.055 45.5395 323.055C45.5395 323.055 45.5335 323.007 45.5235 322.927C45.5136 322.846 45.4976 322.717 45.4797 322.573C45.4398 322.251 45.38 321.768 45.3807 321.18C45.3126 319.972 45.2351 318.226 45.3179 316.06C45.3994 313.529 45.7731 311.016 46.4318 308.572C46.8304 307.13 47.3651 305.729 48.0286 304.389C48.7521 302.964 49.626 301.621 50.6354 300.383C51.6429 299.154 52.7735 298.031 54.0095 297.033C55.1619 296.111 56.3982 295.298 57.7023 294.607C59.9079 293.441 62.298 292.665 64.7675 292.311C65.7107 292.173 66.6623 292.102 67.6155 292.097C68.4307 292.086 69.1876 292.131 69.7716 292.165C70.3556 292.198 70.8219 292.271 71.1295 292.315L71.4792 292.37L71.5647 292.334Z" fill="#263238"/>
<path d="M48.7679 319.002C48.2372 319.292 47.6286 319.407 47.0285 319.332C46.41 319.313 45.8127 319.101 45.3203 318.727C45.8686 318.901 46.4308 319.028 47.0006 319.106C47.5917 319.13 48.1837 319.095 48.7679 319.002Z" fill="#263238"/>
<path d="M50.284 312.341C50.0673 312.416 49.837 312.445 49.6084 312.424C48.4775 312.364 47.4006 311.922 46.5539 311.169C46.3629 311.033 46.2022 310.858 46.082 310.656C47.2488 311.678 48.732 312.267 50.282 312.325L50.284 312.341Z" fill="#263238"/>
<path d="M53.7493 303.61C53.2163 303.099 52.6499 302.623 52.054 302.187C51.4331 301.831 50.7886 301.518 50.125 301.25C50.8582 301.384 51.5577 301.661 52.1837 302.066C52.8097 302.47 53.3499 302.994 53.7734 303.607L53.7493 303.61Z" fill="#263238"/>
<path d="M58.4815 298.951C58.1392 298.372 57.7593 297.817 57.3444 297.287C56.8927 296.794 56.4097 296.33 55.8984 295.898C56.5257 296.182 57.0732 296.617 57.4923 297.163C57.9601 297.671 58.2993 298.285 58.4815 298.951Z" fill="#263238"/>
<path d="M66.7685 295.694C66.6667 295.03 66.4436 294.39 66.1101 293.807C65.7268 293.259 65.2475 292.784 64.6953 292.406C64.8938 292.447 65.0804 292.533 65.2409 292.657C65.6552 292.929 66.0059 293.286 66.2691 293.706C66.5326 294.126 66.705 294.597 66.7752 295.088C66.822 295.288 66.8197 295.495 66.7685 295.694Z" fill="#263238"/>
<path d="M72.2648 295.318C72.1937 294.797 72.0915 294.281 71.9589 293.772C71.766 293.285 71.5436 292.811 71.293 292.352C71.7053 292.712 72.0003 293.187 72.1399 293.717C72.3373 294.227 72.3807 294.784 72.2648 295.318Z" fill="#263238"/>
<path d="M73.1841 326.14C73.0876 326.152 68.6658 325.066 68.6658 325.066C68.6658 325.066 67.7423 327.631 69.3646 328.597C70.987 329.564 72.6979 328.609 72.8967 327.907C73.0405 327.326 73.1367 326.736 73.1841 326.14Z" fill="#FF9A6C"/>
<path d="M72.4963 328.397C72.4963 328.397 72.3884 328.647 71.9862 328.828C71.4233 329.034 70.8209 329.108 70.2248 329.046C69.6161 328.957 69.0571 328.66 68.6425 328.205C68.4329 327.915 68.2831 327.585 68.2021 327.236C68.121 326.888 68.1102 326.526 68.1702 326.173C68.2195 325.745 68.3241 325.326 68.4812 324.926L68.5427 324.763L68.7196 324.806C70.2989 325.144 71.851 325.599 73.3632 326.167C71.7575 325.976 70.1684 325.666 68.6095 325.237L68.8479 325.117C68.7094 325.48 68.6191 325.859 68.5793 326.245C68.4705 326.848 68.6003 327.47 68.9413 327.98C69.292 328.373 69.7608 328.642 70.2774 328.746C70.8189 328.817 71.369 328.788 71.8999 328.659C72.1035 328.583 72.3027 328.496 72.4963 328.397Z" fill="#263238"/>
</g>
<rect x="8.87007" y="277.077" width="102.053" height="103.027" rx="51.0264" transform="rotate(-7.06256 8.87007 277.077)" stroke="#D1DCF8" stroke-width="3.46536"/>
<path d="M118 272.5C118 281.336 110.836 288.5 102 288.5C93.164 288.5 86 281.336 86 272.5C86 263.664 93.164 256.5 102 256.5C110.836 256.5 118 263.664 118 272.5Z" fill="#C8E6C9"/>
<path d="M110.467 264.969L99.6112 275.838L95.1296 271.369L92.8672 273.631L99.6144 280.362L112.73 267.231L110.467 264.969Z" fill="#4CAF50"/>
<g clip-path="url(#clip1_7842_7022)">
<rect x="22.1094" y="71" width="113.917" height="112.448" rx="56.2239" transform="rotate(11.3386 22.1094 71)" fill="white"/>
<path d="M101.769 170.39C101.769 170.39 108.418 166.588 110.104 166.053C111.791 165.518 114.276 166.536 116.636 166.644C118.996 166.751 122.569 165.869 123.295 166.477C124.17 167.204 122.706 169.222 118.918 169.894L119.96 170.013L122.389 170.705C122.389 170.705 123.581 169.532 124.369 169.697C125.493 169.922 125.272 170.86 125.272 170.86C125.272 170.86 127.379 169.189 127.505 171.474C127.505 171.474 129.663 171.118 129.494 172.663C129.494 172.663 129.691 173.986 125.339 173.441C125.339 173.441 121.005 176.135 120.041 176.301C119.077 176.467 116.074 175.371 116.074 175.371C116.074 175.371 114.906 176.491 113.95 176.357C112.121 176.099 107.537 174.853 107.537 174.853L105.248 176.666L101.769 170.39Z" fill="#FFBF9D"/>
<path d="M115.982 175.39C116.157 175.161 116.353 174.949 116.565 174.756C117.12 174.222 117.554 173.576 117.838 172.86C117.98 172.314 118.01 171.744 117.926 171.186C117.843 170.628 117.648 170.092 117.353 169.611C117.205 169.324 117.037 169.04 116.883 168.753C116.718 168.455 116.528 168.172 116.314 167.907C116.222 167.794 116.094 167.717 115.951 167.688C115.808 167.659 115.659 167.681 115.531 167.75C115.397 167.841 115.285 167.961 115.203 168.102C115.122 168.242 115.073 168.399 115.06 168.561C114.992 169.023 115.025 169.495 115.156 169.944C115.288 170.392 115.515 170.807 115.823 171.159L115.954 171.308L115.779 171.407C115.25 171.701 114.761 172.062 114.325 172.483L114.221 172.584L114.12 172.481C113.085 171.437 111.856 170.606 110.502 170.035C109.513 169.618 108.897 169.488 108.906 169.445C109.057 169.457 109.206 169.487 109.35 169.534C109.762 169.627 110.167 169.747 110.562 169.893C111.97 170.424 113.251 171.243 114.324 172.297L114.118 172.3C114.565 171.848 115.075 171.462 115.631 171.153L115.582 171.4C115.238 171.013 114.982 170.556 114.833 170.061C114.684 169.565 114.645 169.043 114.719 168.531C114.738 168.32 114.805 168.117 114.915 167.937C115.025 167.756 115.174 167.603 115.352 167.489C115.552 167.372 115.789 167.335 116.015 167.385C116.22 167.441 116.405 167.556 116.545 167.716C116.772 167.995 116.972 168.295 117.142 168.612C117.32 168.911 117.485 169.207 117.637 169.507C117.942 170.023 118.138 170.596 118.212 171.191C118.286 171.786 118.236 172.389 118.067 172.964C117.756 173.702 117.277 174.358 116.669 174.879C116.46 175.074 116.229 175.245 115.982 175.39Z" fill="#FF9A6C"/>
<path d="M122.794 170.463C122.152 171.191 121.427 171.84 120.634 172.399C120.315 172.643 120.029 172.92 119.719 173.089C119.434 173.267 119.1 173.353 118.764 173.334C118.552 173.311 118.347 173.243 118.162 173.136C118.036 173.059 117.97 173.007 117.981 172.984C117.992 172.961 118.067 173.001 118.209 173.03C118.393 173.097 118.587 173.136 118.783 173.145C119.065 173.128 119.338 173.034 119.569 172.872C119.837 172.689 120.126 172.432 120.439 172.187C121.157 171.526 121.947 170.948 122.794 170.463Z" fill="#FF9A6C"/>
<path d="M119.964 175.799C119.91 175.717 121.276 174.733 122.786 173.316C124.297 171.898 125.367 170.623 125.454 170.641C124.799 171.726 123.975 172.701 123.013 173.528C122.128 174.446 121.098 175.213 119.964 175.799Z" fill="#FF9A6C"/>
<path d="M123.967 174.302C124.541 173.758 125.151 173.252 125.792 172.787C126.375 172.25 127.012 171.776 127.694 171.371C127.227 172.019 126.654 172.584 125.998 173.04C124.979 173.863 124.023 174.371 123.967 174.302Z" fill="#FF9A6C"/>
<path d="M117.855 169.875C117.872 169.789 118.406 169.78 119.063 169.867C119.72 169.954 120.248 170.105 120.238 170.186C120.228 170.267 119.68 170.28 119.023 170.193C118.613 170.188 118.211 170.079 117.855 169.875Z" fill="#FF9A6C"/>
<path d="M48.9743 119.593C49.8402 115.915 50.163 112.128 51.2017 108.485C52.2405 104.841 54.1654 101.26 57.3783 99.2593C60.5912 97.2587 65.2905 97.3536 67.764 100.225L67.6069 103.506C62.8993 117.378 59.5086 131.823 54.8257 145.7C54.2138 147.503 52.2714 148.834 51.0227 150.291C49.774 151.748 47.722 152.698 45.8855 152.124C43.4702 151.364 42.4977 148.498 42.3138 145.99C41.6654 136.866 46.8837 128.482 48.9743 119.593Z" fill="#263238"/>
<path d="M26.3544 215.32C26.6691 215.383 42.6895 234.317 43.4292 236.038C44.169 237.759 42.6379 248.468 43.9584 259.01C45.2788 269.553 52.9584 285.935 52.9584 285.935L63.9733 285.075C63.9733 285.075 63.7395 241.773 63.1765 234.624C62.6136 227.476 59.4856 215.094 59.4856 215.094L56.5771 208.438L57.9287 198.688L31.8612 192.819C31.5403 192.755 24.4104 200.139 23.8497 208.186C23.5316 212.237 26.3544 215.32 26.3544 215.32Z" fill="#263238"/>
<path d="M87.3405 224.247C84.9583 216.502 73.4188 202.531 73.4188 202.531L70.9383 201.391L55.2422 198C55.2422 198 54.1917 205.352 54.1212 205.671C54.0507 205.991 57.7988 224.756 57.7988 224.756L66.1636 233.495L67.4511 235.781C67.4511 235.781 63.3887 243.235 61.4081 249.302C59.4276 255.37 56.0112 274.232 56.0112 274.232L66.3768 278.371C66.3768 278.371 81.0486 251.783 83.0271 247.295C85.0056 242.806 90.8886 235.75 87.3405 224.247Z" fill="#263238"/>
<path d="M13.9447 206.101C12.6433 207.081 11.4798 208.232 10.4855 209.522C9.63307 210.828 9.35277 213.507 9.36072 214.876C9.3769 217.068 9.40507 217.504 10.3729 217.415C11.0271 217.354 11.0093 213.537 11.0093 213.537C11.0093 213.537 10.8254 220.857 11.9347 221.728C12.0798 221.825 12.2459 221.886 12.4193 221.906C12.5927 221.927 12.7684 221.905 12.932 221.844C12.932 221.844 12.662 223.639 13.9223 223.693C15.1826 223.746 15.05 222.359 15.05 222.359C15.1879 222.469 15.3489 222.548 15.5211 222.587C15.6933 222.627 15.8723 222.628 16.0447 222.589C16.2171 222.55 16.3786 222.473 16.5172 222.363C16.6557 222.253 16.7678 222.114 16.845 221.955C17.506 220.739 18.3414 216.477 18.3414 216.477L21.1405 214.875L21.7252 213.368C21.971 212.721 22.0341 212.019 21.9076 211.338C21.6839 210.162 21.3755 209.004 20.9848 207.872C20.599 206.787 25.4778 196.063 25.4778 196.063L28.2594 190.066L19.9157 185.928L13.9447 206.101Z" fill="#FFBF9D"/>
<path d="M101.69 169.602L91.2021 173.148C91.2021 173.148 89.4838 165.967 88.2219 156.765C86.8383 146.698 82.3715 145.731 82.3715 145.731L75.434 165.858L76.7035 174.51C76.7035 174.51 79.3847 184.157 81.512 185.745C88.9551 191.269 106.601 179.272 106.601 179.272L101.69 169.602Z" fill="#6A55AB"/>
<path d="M82.2781 168.553C84.3718 163.395 87.5435 154.844 85.6921 149.479C84.8792 147.834 83.7168 146.387 82.2861 145.239C79.5973 143.506 71.457 139.986 71.2473 139.655L58.9046 137.18L47.0612 138.394C45.5366 138.73 45.3966 139.652 45.2168 141.189L42.4956 159.754L40.6475 177.359C39.1997 179.392 35.2155 186.04 32.4927 190.431C31.2165 192.473 31.8323 192.795 31.8323 192.795C44.0112 201.85 57.3496 205.314 72.0565 202.145C73.9379 201.79 73.6437 200.184 73.6434 198.201C73.6494 193.785 73.3103 195.412 73.6958 192.241C74.1879 188.186 77.7295 178.047 77.8778 177.788C78.0261 177.529 79.5788 175.228 82.2781 168.553Z" fill="#6A55AB"/>
<path d="M47.3459 138.35C47.3459 138.35 38.5341 139.716 34.3214 151.569C30.1086 163.422 24.8988 172.148 22.0314 179.245C19.787 184.803 14.0393 202.614 14.0393 202.614L22.1649 205.887L38.2886 173.915L42.9129 163.499L46.524 155.095L47.3459 138.35Z" fill="#6A55AB"/>
<path d="M81.6062 163.724C81.4727 163.727 81.3392 163.718 81.2075 163.695L80.0621 163.549L75.8766 162.973C72.3403 162.489 67.4487 161.848 62.0337 161.224C56.6187 160.601 51.7086 160.117 48.1537 159.789L43.9434 159.401L42.7991 159.28C42.6647 159.271 42.532 159.244 42.4042 159.201C42.5387 159.187 42.6744 159.186 42.809 159.199L43.9595 159.256C44.9568 159.309 46.3949 159.404 48.1785 159.537C51.7383 159.808 56.6559 160.255 62.0771 160.88C67.4982 161.505 72.3787 162.201 75.9236 162.739C77.6862 163.009 79.1167 163.238 80.1017 163.416L81.2248 163.641C81.355 163.652 81.4832 163.68 81.6062 163.724Z" fill="white"/>
<path d="M42.9071 151.056C42.9935 151.074 42.5659 156.952 41.9463 164.204C41.3267 171.455 40.7448 177.335 40.6498 177.328C40.5547 177.322 40.991 171.433 41.6056 164.206C42.2203 156.979 42.8182 151.051 42.9071 151.056Z" fill="#263238"/>
<path d="M81.5781 153.742C81.5781 153.742 81.6126 153.826 81.6434 153.993C81.6742 154.159 81.7136 154.411 81.7529 154.727C81.839 155.387 81.9373 156.305 81.9811 157.463C82.0931 160.48 81.8918 163.501 81.3804 166.477C80.8831 169.456 80.0948 172.38 79.027 175.205C78.6104 176.29 78.2335 177.145 77.9555 177.731C77.8212 178.039 77.663 178.335 77.4823 178.618C77.5761 178.295 77.6951 177.98 77.8382 177.675C78.0792 177.082 78.4204 176.213 78.8048 175.128C79.8057 172.298 80.5592 169.386 81.057 166.425C81.5572 163.477 81.7888 160.49 81.7491 157.5C81.7299 156.347 81.6785 155.419 81.6529 154.778C81.6006 154.435 81.5756 154.089 81.5781 153.742Z" fill="#263238"/>
<path d="M66.7966 200.727C66.4335 200.78 66.0674 200.81 65.7004 200.815C64.998 200.86 63.9735 200.88 62.7132 200.858C56.1122 200.722 49.5936 199.365 43.487 196.855C42.301 196.367 41.3903 195.947 40.7621 195.622C40.4299 195.471 40.1087 195.297 39.8008 195.102C40.1502 195.208 40.4903 195.343 40.8177 195.504C41.4595 195.794 42.4023 196.182 43.576 196.635C49.6925 199.017 56.1621 200.366 62.7207 200.628C63.9946 200.678 64.9932 200.692 65.6993 200.693C66.0653 200.673 66.4324 200.685 66.7966 200.727Z" fill="#263238"/>
<path d="M68.651 183.194C68.3846 183.375 68.1038 183.533 67.8113 183.668C67.2607 183.949 66.4569 184.34 65.4531 184.8C63.4455 185.72 60.6182 186.886 57.4279 187.973C54.2377 189.06 51.2748 189.846 49.1205 190.345C48.044 190.591 47.1675 190.769 46.5613 190.878C46.2488 190.956 45.9297 191.003 45.6083 191.021C45.908 190.904 46.218 190.816 46.5342 190.757L49.0638 190.115C51.2021 189.568 54.1342 188.744 57.317 187.662C60.4998 186.58 63.3321 185.453 65.3606 184.589L67.7583 183.548C68.0436 183.401 68.3426 183.283 68.651 183.194Z" fill="#263238"/>
<g opacity="0.3">
<path d="M81.8555 156.977C81.8555 156.977 83.5951 166.005 82.3094 169.952C81.4935 172.401 80.1676 174.649 78.419 176.548C78.419 176.548 80.879 169.337 81.2793 166.285C81.6795 163.232 81.8555 156.977 81.8555 156.977Z" fill="black"/>
</g>
<path d="M88.8174 178.477C88.7464 177.462 88.9131 176.445 89.3042 175.506C89.6953 174.567 90.3001 173.732 91.0705 173.068C90.5235 173.887 90.0343 174.744 89.6064 175.631C89.2761 176.56 89.0124 177.511 88.8174 178.477Z" fill="#263238"/>
<path d="M60.8329 101.737C61.4362 100.957 62.1555 100.274 62.9658 99.7126C63.3738 99.4348 63.8391 99.2525 64.3272 99.1792C64.8154 99.1059 65.3138 99.1436 65.7853 99.2894C66.0083 99.3565 66.2101 99.4803 66.371 99.6487C66.5319 99.8171 66.6463 100.024 66.7032 100.25C66.7783 100.708 66.3596 101.228 65.8906 101.102L65.7807 101.169C64.6101 101.885 63.4235 102.584 62.2233 103.255C61.9315 103.44 61.6073 103.569 61.2677 103.635C61.096 103.663 60.9198 103.644 60.7584 103.579C60.597 103.514 60.4568 103.405 60.3532 103.265C60.0782 102.78 60.4624 102.176 60.8329 101.737Z" fill="#455A64"/>
<path d="M58.3342 104.724C60.2625 102.985 62.5563 101.702 65.0467 100.968C67.537 100.234 70.1604 100.068 72.7232 100.483C75.7337 100.965 76.8677 101.809 78.9274 102.774C81.001 103.678 82.6922 105.28 83.7071 107.302C84.8539 109.746 85.7117 112.416 85.5313 115.108C85.4314 117.892 85.0717 120.661 84.457 123.379C83.8457 126.105 82.4928 128.608 80.5477 130.613L73.4006 130.592C69.5483 130.051 65.6417 129.492 62.0652 127.96C58.4887 126.427 55.2017 123.772 53.7901 120.15C51.8386 115.092 54.2368 108.255 58.3342 104.724Z" fill="#263238"/>
<path d="M64.5207 105.766L74.4129 103.718L76.7814 104.424C82.2147 105.405 84.8801 112.057 84.1619 116.471C83.3398 121.371 82.1407 127.319 80.7268 130.784C77.8842 137.757 71.589 137.298 71.589 137.298C71.589 137.298 71.0353 141.179 70.6477 143.625L65.5111 149.2L56.641 138.723L61.6336 107.838C61.7646 107.193 62.135 106.62 62.6704 106.236C63.2059 105.851 63.8668 105.684 64.5207 105.766Z" fill="#FFBF9D"/>
<path d="M80.7359 122.12C80.6835 122.365 80.537 122.579 80.3281 122.716C80.1191 122.853 79.8646 122.902 79.6196 122.853C79.4995 122.834 79.3845 122.791 79.2812 122.727C79.1779 122.663 79.0884 122.579 79.0179 122.48C78.9475 122.381 78.8976 122.269 78.871 122.151C78.8445 122.032 78.8419 121.909 78.8634 121.79C78.917 121.548 79.0628 121.336 79.2699 121.2C79.4771 121.065 79.7291 121.015 79.9723 121.062C80.0929 121.079 80.2087 121.121 80.313 121.184C80.4172 121.247 80.5076 121.33 80.5789 121.429C80.6502 121.528 80.7008 121.64 80.7278 121.759C80.7548 121.877 80.7575 122 80.7359 122.12Z" fill="#263238"/>
<path d="M82.0753 118.629C81.9345 118.723 81.3534 118.035 80.3537 117.803C79.354 117.57 78.5033 117.907 78.4367 117.759C78.3701 117.61 78.5652 117.502 78.9369 117.345C79.437 117.141 79.989 117.101 80.5132 117.231C81.0344 117.351 81.5038 117.634 81.8534 118.039C82.0939 118.344 82.1481 118.586 82.0753 118.629Z" fill="#263238"/>
<path d="M74.1929 125.395C74.7577 125.347 75.3263 125.375 75.8839 125.477C76.1431 125.529 76.4023 125.517 76.4802 125.353C76.5645 125.095 76.5685 124.819 76.4917 124.559L76.1854 122.437C75.7882 119.424 75.5611 116.971 75.6796 116.956C75.7981 116.941 76.2289 119.371 76.6261 122.384C76.722 123.122 76.8105 123.833 76.8942 124.505C76.9823 124.85 76.9477 125.215 76.7961 125.538C76.7372 125.62 76.6607 125.687 76.5722 125.735C76.4837 125.783 76.3855 125.81 76.2849 125.814C76.1346 125.818 75.9843 125.805 75.8369 125.776C75.2756 125.715 74.7236 125.587 74.1929 125.395Z" fill="#263238"/>
<path d="M71.6105 137.261C68.187 136.515 65.0374 134.835 62.5117 132.406C62.5117 132.406 63.9507 138.036 71.3294 139.047L71.6105 137.261Z" fill="#FF9A6C"/>
<path d="M82.3581 115.028C82.1309 115.233 81.404 114.888 80.4869 114.756C79.5698 114.623 78.781 114.683 78.6293 114.415C78.5652 114.287 78.6986 114.07 79.0925 113.866C79.5881 113.659 80.1327 113.599 80.6615 113.693C81.1904 113.775 81.6851 114.006 82.0881 114.358C82.3842 114.674 82.4557 114.926 82.3581 115.028Z" fill="#263238"/>
<path d="M70.0123 119.956C69.9633 120.199 70.011 120.452 70.1452 120.661C70.2794 120.87 70.4896 121.019 70.7314 121.076C70.8491 121.108 70.972 121.117 71.093 121.101C71.214 121.085 71.3307 121.046 71.4362 120.984C71.5417 120.923 71.634 120.841 71.7076 120.744C71.7812 120.646 71.8347 120.535 71.8649 120.417C71.9137 120.175 71.8667 119.923 71.7338 119.714C71.6009 119.506 71.3924 119.357 71.152 119.299C71.034 119.265 70.9105 119.256 70.7888 119.271C70.6672 119.286 70.5498 119.326 70.4436 119.387C70.3374 119.448 70.2445 119.53 70.1704 119.628C70.0964 119.726 70.0426 119.837 70.0123 119.956Z" fill="#263238"/>
<path d="M68.4872 115.817C68.5809 115.958 69.3896 115.574 70.4215 115.775C71.4533 115.975 72.0678 116.625 72.1974 116.523C72.3271 116.42 72.1852 116.231 71.9113 115.932C71.5321 115.548 71.0441 115.289 70.5131 115.19C69.9896 115.085 69.4461 115.149 68.9614 115.373C68.5861 115.548 68.4428 115.75 68.4872 115.817Z" fill="#263238"/>
<path d="M69.661 112.708C69.8127 112.976 70.6361 112.904 71.5679 113.09C72.4998 113.277 73.2613 113.578 73.4947 113.374C73.5923 113.272 73.5146 113.019 73.2111 112.739C72.7879 112.382 72.2762 112.145 71.7297 112.053C71.1833 111.962 70.6222 112.019 70.1056 112.219C69.7501 112.36 69.5919 112.572 69.661 112.708Z" fill="#263238"/>
<path d="M60.722 120.324C60.8309 119.781 60.5255 118.359 60.0071 118.159C58.6422 117.603 56.0489 117.121 55.1781 120.728C54.003 125.628 59.1873 125.833 59.2343 125.695C59.2813 125.556 60.3026 122.192 60.722 120.324Z" fill="#FFBF9D"/>
<path d="M58.3068 123.566C58.3068 123.566 58.2031 123.603 58.0426 123.635C57.8179 123.677 57.5856 123.631 57.3946 123.505C56.9196 123.185 56.683 122.252 56.8748 121.359C56.9584 120.93 57.1427 120.527 57.4123 120.183C57.4969 120.045 57.6133 119.929 57.7519 119.845C57.8905 119.761 58.0471 119.712 58.2088 119.701C58.3144 119.7 58.4172 119.735 58.4999 119.801C58.5826 119.866 58.6401 119.958 58.6629 120.062C58.6899 120.215 58.6158 120.296 58.6627 120.318C58.7096 120.341 58.7899 120.26 58.7999 120.051C58.7998 119.921 58.7574 119.795 58.6791 119.693C58.5658 119.559 58.4061 119.475 58.2324 119.455C58.021 119.449 57.8113 119.495 57.6227 119.591C57.4341 119.687 57.2726 119.828 57.1532 120.003C56.8374 120.376 56.6218 120.823 56.5267 121.302C56.325 122.308 56.6022 123.359 57.2649 123.736C57.3878 123.807 57.5254 123.849 57.6671 123.858C57.8088 123.868 57.9508 123.845 58.0821 123.79C58.2697 123.687 58.3229 123.582 58.3068 123.566Z" fill="#FF9A6C"/>
<path d="M59.8344 118.145L60.868 119.681C67.2582 115.409 80.2607 104.189 79.5272 104.87C77.1984 103.497 74.5623 102.73 71.8603 102.639C67.6732 102.615 59.6036 103.289 58.8754 108.105C58.1471 112.921 59.8344 118.145 59.8344 118.145Z" fill="#263238"/>
<path d="M52.7467 115.762C52.7815 115.666 52.8258 115.574 52.8789 115.487C53.0178 115.232 53.1782 114.989 53.3582 114.761C54.0357 113.928 54.8876 113.253 55.8539 112.784C57.2861 112.093 58.8269 111.655 60.4083 111.489C62.1662 111.238 64.1227 111.148 66.1054 110.705C67.9759 110.287 69.7918 109.654 71.5167 108.818C72.9216 108.137 74.2626 107.332 75.5235 106.412C76.3698 105.78 77.1807 105.103 77.9526 104.382L78.5738 103.781C78.6409 103.706 78.7168 103.64 78.7998 103.583C78.7998 103.583 78.7442 103.668 78.612 103.815C78.4799 103.962 78.2872 104.186 78.0217 104.454C77.2746 105.203 76.4784 105.901 75.6382 106.544C74.3821 107.502 73.0366 108.337 71.6203 109.038C69.8825 109.897 68.0479 110.544 66.1559 110.966C64.2633 111.324 62.3535 111.583 60.4341 111.744C58.8777 111.889 57.357 112.296 55.9366 112.948C54.9815 113.391 54.1298 114.03 53.436 114.822C52.9555 115.393 52.7763 115.774 52.7467 115.762Z" fill="#455A64"/>
<path d="M54.0628 116.804C54.1176 116.428 54.2489 116.068 54.4485 115.745C54.9929 114.859 55.7911 114.158 56.7393 113.733C58.1485 113.142 59.6606 112.837 61.1885 112.834C63.0289 112.792 64.859 112.545 66.6449 112.098C68.4265 111.635 70.1438 110.953 71.7575 110.068C73.0784 109.346 74.3243 108.495 75.4768 107.527C76.252 106.865 76.9842 106.154 77.6689 105.398L78.2185 104.77C78.2777 104.695 78.3452 104.627 78.4198 104.567C78.3767 104.653 78.3218 104.733 78.2568 104.804L77.7454 105.465C77.0853 106.245 76.3683 106.974 75.6002 107.648C74.4503 108.645 73.1992 109.52 71.8673 110.257C70.2445 111.168 68.5101 111.865 66.7077 112.329C64.9043 112.778 63.0553 113.019 61.197 113.047C59.6994 113.046 58.2157 113.335 56.8281 113.898C55.8892 114.291 55.0869 114.952 54.5213 115.798C54.3398 116.119 54.1865 116.456 54.0628 116.804Z" fill="#455A64"/>
<path d="M58.4782 126.612C58.4856 126.575 58.0684 126.446 57.3699 126.12C56.3853 125.637 55.5246 124.935 54.854 124.068C53.8784 122.76 53.2306 121.236 52.9652 119.626C52.6016 117.662 52.5709 115.65 52.8744 113.676C53.0301 112.659 53.2904 111.662 53.651 110.699C54.0042 109.808 54.4403 108.952 54.9534 108.142C55.8417 106.779 56.9512 105.574 58.2362 104.576C59.4475 103.681 60.7407 102.902 62.0986 102.25C62.0986 102.25 61.9911 102.273 61.7973 102.344C61.6035 102.414 61.3133 102.516 60.9577 102.689C59.9452 103.151 58.9852 103.72 58.0943 104.387C56.7606 105.376 55.6092 106.59 54.6918 107.974C54.1559 108.795 53.7035 109.668 53.3413 110.579C52.9685 111.565 52.6991 112.586 52.5374 113.628C52.2117 115.631 52.2361 117.675 52.6097 119.67C52.9012 121.315 53.5913 122.864 54.6194 124.182C55.3313 125.088 56.2539 125.806 57.3069 126.274C57.5864 126.391 57.8734 126.489 58.1659 126.568C58.2682 126.594 58.3728 126.608 58.4782 126.612Z" fill="#455A64"/>
<path d="M70.7054 125.879C70.5966 125.763 70.457 125.682 70.3031 125.644C70.1543 125.634 70.0069 125.677 69.8871 125.766C69.5917 125.95 69.3584 126.218 69.2174 126.537C69.0764 126.855 69.0342 127.208 69.0962 127.55C69.1583 127.893 69.3218 128.209 69.5655 128.457C69.8093 128.705 70.122 128.875 70.4631 128.944C71.142 129.08 72.021 128.858 72.6807 127.713C72.0527 127.163 71.3322 126.434 70.7054 125.879Z" fill="#FF9A6C"/>
<path d="M70.4524 128.989C70.1142 128.849 69.8106 128.637 69.5627 128.368C69.3117 128.07 69.1757 127.692 69.1793 127.302C69.1847 127.068 69.2385 126.838 69.3374 126.626C69.4363 126.413 69.5781 126.224 69.7539 126.069C69.9404 125.908 70.1676 125.767 70.328 125.832C70.5357 125.938 70.7245 126.078 70.887 126.245L71.8 127.07C72.0698 127.338 72.3691 127.575 72.6922 127.776C72.467 127.47 72.2088 127.19 71.9223 126.941L71.0352 126.082C70.8663 125.887 70.661 125.726 70.4306 125.608C70.2762 125.562 70.1101 125.577 69.9665 125.65C69.8368 125.714 69.7167 125.796 69.6096 125.893C69.4086 126.071 69.2477 126.289 69.1378 126.534C69.0278 126.778 68.9713 127.044 68.9719 127.312C68.9782 127.753 69.1503 128.175 69.454 128.494C69.5746 128.644 69.7263 128.766 69.8987 128.851C70.0711 128.937 70.26 128.984 70.4524 128.989Z" fill="#263238"/>
</g>
<rect x="23.5435" y="73.1536" width="110.258" height="108.789" rx="54.3943" transform="rotate(11.3386 23.5435 73.1536)" stroke="#D1DCF8" stroke-width="3.65915"/>
<path d="M135 100C135 108.836 127.836 116 119 116C110.164 116 103 108.836 103 100C103 91.164 110.164 84 119 84C127.836 84 135 91.164 135 100Z" fill="#E6CAC8"/>
<path d="M124.938 92.3047L126.683 94.0505L113.069 107.665L111.323 105.919L124.938 92.3047Z" fill="#F44336"/>
<path d="M126.684 105.922L124.938 107.667L111.325 94.0502L113.071 92.3049L126.684 105.922Z" fill="#F44336"/>
<g clip-path="url(#clip2_7842_7022)">
<rect x="139" y="0.742188" width="71.3194" height="73.5139" rx="35.6597" fill="white"/>
<path d="M181.594 48.4757L181.854 27.3441C182.088 22.0893 179.229 17.5753 173.97 17.4844L173.481 17.506C171.12 17.6023 168.882 18.5844 167.213 20.2567C165.544 21.929 164.566 24.1687 164.474 26.5297C164.292 31.087 164.154 36.1208 164.288 38.5554C164.557 43.5935 169.634 44.187 169.634 44.187C169.634 44.187 169.664 47.2541 169.66 48.7357L168.477 52.2013L172.627 51.1919L181.594 48.4757Z" fill="#AE7461"/>
<path d="M169.637 44.1703C171.97 44.0711 174.225 43.3043 176.135 41.9609C176.135 41.9609 174.71 45.8164 169.663 45.5695L169.637 44.1703Z" fill="#6F4439"/>
<path d="M166.082 30.8837C166.089 31.0718 166.169 31.2499 166.304 31.3801C166.44 31.5103 166.622 31.5825 166.81 31.5812C166.902 31.5841 166.993 31.5687 167.079 31.536C167.164 31.5033 167.243 31.4538 167.309 31.3906C167.376 31.3273 167.429 31.2514 167.466 31.1674C167.503 31.0834 167.523 30.9928 167.525 30.9011C167.518 30.7137 167.439 30.5363 167.304 30.4062C167.169 30.2761 166.989 30.2035 166.801 30.2036C166.709 30.2001 166.617 30.2151 166.531 30.2475C166.445 30.28 166.366 30.3293 166.299 30.3927C166.232 30.456 166.178 30.5321 166.141 30.6164C166.104 30.7007 166.084 30.7916 166.082 30.8837Z" fill="#263238"/>
<path d="M165.645 28.7152C165.74 28.8062 166.268 28.3774 167.044 28.347C167.819 28.3167 168.404 28.6806 168.482 28.5853C168.56 28.49 168.426 28.373 168.17 28.2041C167.825 27.9867 167.421 27.8808 167.014 27.9008C166.61 27.9151 166.221 28.0577 165.905 28.308C165.675 28.503 165.601 28.6763 165.645 28.7152Z" fill="#263238"/>
<path d="M173.055 30.8841C173.059 31.0722 173.138 31.2509 173.273 31.3814C173.409 31.512 173.59 31.5839 173.778 31.5816C173.87 31.5851 173.962 31.5701 174.048 31.5376C174.134 31.5051 174.212 31.4557 174.279 31.3923C174.346 31.3289 174.399 31.2528 174.436 31.1685C174.472 31.0842 174.492 30.9934 174.493 30.9015C174.488 30.7149 174.411 30.5375 174.278 30.4072C174.144 30.2769 173.965 30.2039 173.778 30.204C173.686 30.1993 173.593 30.2134 173.506 30.2454C173.419 30.2773 173.339 30.3266 173.272 30.3901C173.204 30.4536 173.15 30.5301 173.113 30.615C173.075 30.6999 173.056 30.7914 173.055 30.8841Z" fill="#263238"/>
<path d="M173.244 28.5746C173.335 28.6656 173.864 28.2367 174.639 28.2064C175.415 28.1761 175.999 28.5443 176.077 28.4447C176.155 28.345 176.021 28.2324 175.766 28.0634C175.42 27.8461 175.016 27.7402 174.609 27.7602C174.205 27.7745 173.817 27.9171 173.5 28.1674C173.27 28.3494 173.197 28.5356 173.244 28.5746Z" fill="#263238"/>
<path d="M170.715 34.6443C170.301 34.5335 169.875 34.4739 169.446 34.4667C169.247 34.4667 169.056 34.4234 169.013 34.2891C168.984 34.0866 169.02 33.8803 169.117 33.6999C169.286 33.2104 169.459 32.7036 169.641 32.1664C170.364 30.0004 170.88 28.2026 170.793 28.1723C170.707 28.1419 170.048 29.9051 169.325 32.0711C169.147 32.6083 168.983 33.1194 168.827 33.609C168.71 33.8517 168.683 34.1284 168.753 34.3887C168.785 34.4572 168.832 34.5177 168.89 34.5656C168.949 34.6136 169.017 34.6479 169.091 34.666C169.202 34.6908 169.315 34.7025 169.429 34.7006C169.858 34.7356 170.291 34.7167 170.715 34.6443Z" fill="#263238"/>
<path d="M172.916 26.1792C173.029 26.3698 173.783 26.1315 174.684 26.0752C175.585 26.0189 176.369 26.1272 176.455 25.9192C176.49 25.8196 176.33 25.6506 176.001 25.486C175.565 25.3125 175.096 25.2399 174.629 25.2737C174.161 25.3074 173.708 25.4467 173.302 25.681C172.981 25.8716 172.847 26.0622 172.916 26.1792Z" fill="#263238"/>
<path d="M165.504 26.433C165.673 26.6063 166.297 26.407 167.059 26.3767C167.822 26.3464 168.463 26.459 168.606 26.2727C168.666 26.1818 168.562 26.0042 168.276 25.8395C167.884 25.6419 167.445 25.5537 167.007 25.5839C166.571 25.5977 166.147 25.7311 165.781 25.9695C165.517 26.1861 165.435 26.3507 165.504 26.433Z" fill="#263238"/>
<path d="M181.601 31.0892C181.688 31.0502 185.024 29.9238 185.067 33.3721C185.11 36.8204 181.627 36.1446 181.601 36.0493C181.575 35.954 181.601 31.0892 181.601 31.0892Z" fill="#AE7461"/>
<path d="M182.656 34.7375C182.656 34.7375 182.717 34.7808 182.816 34.8241C182.955 34.8796 183.11 34.8796 183.25 34.8241C183.613 34.6855 183.917 34.105 183.925 33.4812C183.936 33.1824 183.875 32.8855 183.748 32.6148C183.715 32.5126 183.658 32.4195 183.583 32.3428C183.508 32.2662 183.416 32.208 183.314 32.1729C183.245 32.156 183.172 32.1636 183.107 32.1943C183.042 32.2251 182.99 32.2772 182.959 32.3419C182.916 32.4372 182.938 32.5065 182.92 32.5152C182.903 32.5238 182.847 32.4545 182.873 32.3116C182.891 32.2258 182.938 32.1491 183.007 32.095C183.053 32.0583 183.106 32.0313 183.162 32.0156C183.219 32 183.278 31.996 183.336 32.004C183.478 32.032 183.611 32.095 183.722 32.1873C183.833 32.2796 183.919 32.3983 183.973 32.5325C184.121 32.8311 184.195 33.1609 184.19 33.4942C184.19 34.1917 183.821 34.8458 183.323 34.9931C183.231 35.0206 183.133 35.0271 183.038 35.0122C182.943 34.9972 182.852 34.961 182.773 34.9064C182.66 34.8241 182.643 34.7462 182.656 34.7375Z" fill="#6F4439"/>
<path d="M157.51 21.9912C157.573 21.7882 157.708 21.6155 157.891 21.506C158.296 21.3159 158.745 21.2396 159.19 21.2851C160.29 21.2496 161.366 20.9652 162.34 20.4533C161.996 20.291 161.68 20.0746 161.404 19.8122C161.107 19.5455 160.89 19.2022 160.776 18.82C160.662 18.4378 160.656 18.0316 160.759 17.6462C160.774 17.5744 160.806 17.5072 160.851 17.45C160.897 17.3929 160.956 17.3473 161.023 17.3169C161.248 17.2433 161.456 17.4599 161.603 17.6332C161.8 17.9059 162.067 18.1203 162.376 18.2537C162.685 18.3872 163.024 18.4347 163.358 18.3913C163.816 18.3572 164.26 18.2194 164.657 17.9884L164.696 17.9407L165.221 17.4036C166.52 16.104 167.612 15.1986 168.755 14.722C170.432 14.0246 173.248 13.717 175.011 14.1589C176.774 14.6007 178.368 16.0087 178.633 17.8064C179.607 16.94 181.089 16.94 182.293 17.4209H182.323C183.666 17.8844 184.442 19.288 184.849 20.6483C184.875 20.7219 184.892 20.7955 184.914 20.8692C185.371 21.5855 185.996 22.1802 186.733 22.602C186.863 22.6756 187.011 22.7666 187.028 22.9139C187.024 22.9881 187.002 23.0602 186.962 23.1232C186.923 23.1861 186.868 23.2379 186.803 23.2735C186.484 23.5062 186.117 23.6646 185.728 23.737C185.847 24.0586 185.992 24.3701 186.162 24.6684C186.318 24.924 186.499 25.2272 186.37 25.4958C186.311 25.5946 186.223 25.673 186.119 25.7202C186.014 25.7675 185.898 25.7814 185.785 25.7601C185.559 25.7131 185.347 25.6186 185.161 25.4828C185.312 25.838 185.464 26.1933 185.62 26.5485C185.135 26.6356 184.637 26.6089 184.165 26.4705C183.892 27.7701 183.705 30.1094 183.389 30.9802C182.471 31.0061 182.25 30.9065 181.791 31.0668C181.193 31.2704 181.431 32.3274 180.651 32.0372C180.253 31.8856 179.629 30.391 179.49 29.9925C178.58 27.3144 178.256 24.4718 178.542 21.6576C177.98 21.0717 177.311 20.5995 176.57 20.267L176.631 20.319C175.215 19.8468 173.599 19.3833 172.299 20.0591C171.264 20.5876 170.666 21.6706 169.899 22.5414C169.253 23.3335 168.446 23.9797 167.533 24.4374C166.619 24.8951 165.618 25.154 164.597 25.1969C164.415 26.7218 164.389 29.2127 164.328 30.6379L163.08 27.8048C162.981 27.6358 162.899 27.4712 162.816 27.3023L162.79 27.2503C162.668 26.9749 162.532 26.7059 162.383 26.4445C162.227 26.6169 162.01 26.7203 161.778 26.7321C161.546 26.7439 161.319 26.663 161.146 26.5073C160.974 26.3517 160.87 26.1339 160.859 25.9019C160.847 25.67 160.928 25.4429 161.083 25.2705C161.205 25.1051 161.351 24.959 161.517 24.8373C161.344 25.0087 161.13 25.1324 160.895 25.1962C160.661 25.26 160.414 25.2617 160.178 25.2012C159.946 25.132 159.743 24.9885 159.601 24.7929C159.458 24.5972 159.384 24.3602 159.39 24.1182C159.401 23.9536 159.456 23.795 159.549 23.6587C159.641 23.5224 159.769 23.4133 159.918 23.3428C159.292 23.4001 158.663 23.2688 158.112 22.9659C157.752 22.7666 157.397 22.4374 157.51 21.9912Z" fill="#263238"/>
<path d="M177.051 18.3984C177.234 18.5282 177.407 18.6731 177.566 18.8316C177.969 19.3103 178.242 19.8847 178.359 20.4995C178.451 20.9267 178.499 21.3622 178.502 21.7991C178.502 22.2669 178.48 22.7651 178.45 23.2893C178.408 23.8413 178.401 24.3955 178.428 24.9485C178.449 25.2399 178.491 25.5295 178.554 25.8149C178.602 26.1226 178.727 26.4132 178.918 26.6596C179.008 26.757 179.121 26.8294 179.247 26.8697C179.373 26.9099 179.508 26.9167 179.637 26.8892C179.884 26.8406 180.108 26.711 180.274 26.521C180.544 26.1375 180.707 25.6889 180.746 25.2214H180.638C180.794 25.6012 181.006 25.9559 181.266 26.2741C181.515 26.5693 181.869 26.757 182.254 26.7982C182.432 26.8134 182.612 26.7805 182.773 26.7029C182.924 26.6228 183.046 26.4989 183.124 26.3477C183.196 26.2148 183.232 26.0655 183.228 25.9145C183.218 25.7679 183.158 25.629 183.059 25.5203L183.007 25.5723C183.313 25.9126 183.686 26.1855 184.103 26.3737C184.213 26.4229 184.326 26.4649 184.441 26.4993L184.558 26.5297C184.558 26.5297 184.524 26.508 184.446 26.482C184.368 26.456 184.259 26.4084 184.116 26.3391C183.715 26.1386 183.356 25.862 183.059 25.5246L183.007 25.5723C183.092 25.6771 183.141 25.8057 183.149 25.9401C183.157 26.0744 183.122 26.2079 183.051 26.3217C182.979 26.4549 182.869 26.5636 182.734 26.6336C182.587 26.7028 182.424 26.7312 182.262 26.7159C181.904 26.673 181.575 26.4948 181.344 26.2178C181.095 25.9059 180.892 25.5602 180.742 25.1911L180.668 25.0264L180.633 25.2041C180.6 25.6452 180.451 26.0696 180.2 26.4344C180.051 26.6054 179.85 26.7226 179.628 26.7679C179.518 26.7905 179.404 26.784 179.297 26.7491C179.189 26.7141 179.093 26.652 179.018 26.5687C178.841 26.3383 178.724 26.0672 178.68 25.7802C178.618 25.4948 178.577 25.2052 178.558 24.9138C178.523 24.3671 178.523 23.8187 178.558 23.272C178.584 22.7435 178.61 22.2453 178.602 21.7731C178.594 21.3355 178.54 20.8999 178.441 20.4735C178.308 19.8619 178.017 19.2958 177.597 18.8316C177.441 18.6566 177.257 18.51 177.051 18.3984Z" fill="#455A64"/>
<path d="M161.488 23.4668C161.488 23.4668 161.488 23.4668 161.527 23.5015L161.653 23.5838C161.723 23.6322 161.795 23.677 161.87 23.7181C161.97 23.7776 162.074 23.8312 162.181 23.8784C162.862 24.1765 163.606 24.3015 164.347 24.2422C165.449 24.1542 166.501 23.7512 167.38 23.0813C168.444 22.2578 169.328 21.226 169.979 20.0488C170.343 19.4337 170.633 18.8012 170.958 18.2207C171.245 17.6483 171.613 17.1202 172.05 16.6525C172.45 16.2374 172.947 15.9278 173.497 15.7515C173.746 15.6801 174.004 15.648 174.263 15.6562C174.503 15.6658 174.741 15.7081 174.97 15.7818C175.363 15.9115 175.723 16.1243 176.027 16.4056C176.259 16.616 176.455 16.8634 176.607 17.1377C176.726 17.3776 176.816 17.6306 176.876 17.8915C176.876 17.8915 176.876 17.8915 176.876 17.8395C176.876 17.7875 176.876 17.7442 176.85 17.6835C176.806 17.487 176.739 17.2965 176.65 17.1161C176.504 16.8317 176.31 16.574 176.079 16.3536C175.769 16.0628 175.402 15.8412 175 15.7038C174.765 15.6254 174.52 15.5787 174.272 15.5652C174.003 15.5528 173.734 15.5835 173.475 15.6562C172.907 15.8313 172.393 16.1473 171.98 16.5745C171.527 17.0411 171.143 17.5707 170.841 18.1471C170.516 18.7319 170.222 19.3644 169.866 19.9709C169.229 21.1419 168.363 22.1731 167.319 23.0033C166.457 23.6668 165.423 24.071 164.339 24.1686C163.61 24.2341 162.876 24.1226 162.199 23.8437C161.954 23.7342 161.716 23.6083 161.488 23.4668Z" fill="#455A64"/>
<path d="M161 21.2591C161 21.2591 161.061 21.3111 161.182 21.3848C161.354 21.4865 161.534 21.5748 161.719 21.649C161.999 21.7647 162.289 21.8546 162.586 21.9176C162.943 21.9959 163.307 22.0408 163.673 22.0519C164.04 22.0555 164.407 22.0265 164.769 21.9653C165.064 21.9113 165.353 21.8331 165.635 21.7313C165.825 21.6632 166.009 21.5807 166.185 21.4844C166.252 21.4557 166.315 21.4178 166.372 21.3718C166.372 21.3501 166.086 21.4974 165.609 21.6533C165.326 21.7421 165.036 21.8102 164.743 21.857C164.389 21.9114 164.031 21.9361 163.673 21.9306C163.314 21.9204 162.956 21.8813 162.603 21.8136C162.316 21.7539 162.033 21.6728 161.758 21.571C161.282 21.3978 161.009 21.2418 161 21.2591Z" fill="#455A64"/>
<path d="M170.781 36.4538C170.842 36.4538 173.506 35.4141 173.506 35.4141C173.506 35.4141 174.277 36.9519 173.341 37.6581C172.406 38.3642 171.275 37.9223 171.097 37.4978C170.965 37.1587 170.859 36.8096 170.781 36.4538Z" fill="#6F4439"/>
<path d="M171.386 37.8025C171.508 37.8489 171.632 37.8879 171.758 37.9195C172.106 37.9666 172.459 37.946 172.798 37.8588C172.97 37.8101 173.131 37.7263 173.269 37.6128C173.407 37.4992 173.521 37.3583 173.602 37.1989C173.683 37.0395 173.731 36.8649 173.742 36.6863C173.752 36.5076 173.726 36.3287 173.664 36.1607C173.605 35.923 173.518 35.6932 173.405 35.4762L173.543 35.5238C172.733 35.8271 172.023 36.0827 171.511 36.2603C171.245 36.3727 170.965 36.4527 170.68 36.4986C170.927 36.3464 171.19 36.2215 171.464 36.126C171.958 35.9137 172.659 35.6278 173.461 35.3159L173.552 35.2812L173.599 35.3636C173.724 35.5982 173.82 35.8469 173.885 36.1043C173.95 36.3193 173.971 36.545 173.947 36.7681C173.923 36.9913 173.855 37.2075 173.747 37.4039C173.531 37.7156 173.212 37.9411 172.846 38.0408C172.482 38.1259 172.104 38.1259 171.741 38.0408C171.472 37.9411 171.373 37.8068 171.386 37.8025Z" fill="#263238"/>
<path d="M147.252 79.0108L156.349 84.7291C159.628 86.4619 162.007 85.2056 162.795 82.4331L162.713 72.2615C162.713 72.2615 156.93 69.1814 156.05 69.0471C155.756 69.0038 155.318 74.956 155.318 74.956L146.546 72.4997L144.332 76.9834L147.252 79.0108Z" fill="#AE7461"/>
<path d="M146.457 71.2985C146.4 71.1989 143.953 67.3087 142.558 65.8488C141.163 64.3889 141.137 62.7947 140.149 62.6647C139.161 62.5348 138.984 63.9167 139.456 65.3376C139.928 66.7585 141.189 67.5036 140.842 68.0018C140.496 68.5 132.585 67.1787 132.585 67.1787C132.585 67.1787 131.563 66.1347 130.762 67.0098C130.762 67.0098 129.488 66.7065 129.588 67.6986C129.687 68.6906 132.001 68.7989 132.001 68.7989L133.149 70.8436L135.808 71.8313C135.934 72.543 136.267 73.2017 136.766 73.7244C137.207 74.1947 137.708 74.6054 138.256 74.9461C138.364 74.9677 140.734 76.4233 141.938 76.7179C143.143 77.0124 144.745 77.2637 144.745 77.2637L146.933 72.8883C146.925 72.3244 146.76 71.7738 146.457 71.2985Z" fill="#AE7461"/>
<path d="M144.342 72.9168C143.945 72.7868 143.54 72.6841 143.129 72.6092C142.666 72.5548 142.197 72.5976 141.751 72.7349C141.186 72.9123 140.675 73.2297 140.266 73.6576L140.079 73.8525V73.5839C140.079 72.8778 140.079 72.1111 140.114 71.3096C140.114 71.2317 140.114 71.145 140.114 71.0627C140.158 70.6057 140.117 70.1444 139.993 69.7024C139.937 69.516 139.809 69.3594 139.638 69.2669C139.466 69.1743 139.265 69.1534 139.079 69.2086C138.997 69.2366 138.925 69.2842 138.866 69.3472C138.817 69.418 138.786 69.4998 138.775 69.5855C138.732 69.7718 138.702 69.9667 138.671 70.1486L138.511 71.1753C138.424 71.7732 138.351 72.2713 138.294 72.6699C138.279 72.8547 138.24 73.0367 138.178 73.2114C138.172 73.0262 138.18 72.8408 138.204 72.6569C138.234 72.3017 138.282 71.7905 138.355 71.158C138.39 70.8374 138.433 70.4909 138.485 70.1183C138.511 69.932 138.541 69.7414 138.58 69.5422C138.58 69.4902 138.606 69.4382 138.619 69.3862C138.638 69.3244 138.669 69.267 138.71 69.2173C138.791 69.1247 138.894 69.0546 139.009 69.0136C139.125 68.9715 139.248 68.9543 139.37 68.9632C139.493 68.9722 139.612 69.0071 139.72 69.0656C139.943 69.1863 140.115 69.3853 140.201 69.6245C140.34 70.0947 140.387 70.5875 140.339 71.0757C140.339 71.1623 140.339 71.2533 140.318 71.3356C140.318 72.137 140.283 72.9038 140.266 73.6099L140.084 73.5406C140.53 73.0694 141.096 72.7281 141.721 72.5529C142.19 72.4191 142.683 72.391 143.164 72.4706C143.344 72.4953 143.521 72.5389 143.692 72.6006C143.821 72.6348 143.946 72.6827 144.065 72.7435C144.163 72.7911 144.256 72.8492 144.342 72.9168Z" fill="#6F4439"/>
<path d="M159.999 52.1875C158.496 53.3008 157.274 54.856 156.893 57.6978L154.562 71.5604L161.195 73.4405L163.486 57.6762L159.999 52.1875Z" fill="#6434D0"/>
<path d="M167.42 48.0472L159.995 52.1843C159.371 56.3258 160.311 79.7057 160.311 79.7057L159.965 102.12C170.362 107.27 182.366 105.386 195.089 101.253C195.22 100.39 195.127 99.5066 194.82 98.6887L192.78 79.0429C192.78 79.0429 193.308 63.8808 193.308 63.5732C193.308 63.2657 194.448 49.1519 194.448 49.1519L182.231 45.5C182.231 45.5 177.033 49.8017 172.917 50.0053C169.357 50.1829 169.543 46.9729 169.543 46.9729L167.42 48.0472Z" fill="#6434D0"/>
<path d="M159.782 57.7109C159.817 57.9358 159.832 58.1635 159.825 58.3911C159.825 58.8676 159.825 59.4871 159.864 60.2365C159.864 61.8394 159.907 63.9751 159.938 66.336C159.968 68.697 160.02 70.8717 160.076 72.4312C160.102 73.1806 160.124 73.8001 160.141 74.2766C160.164 74.5028 160.164 74.7306 160.141 74.9568C160.096 74.7354 160.067 74.5109 160.055 74.2853C160.011 73.8521 159.964 73.2196 159.916 72.4399C159.821 70.8803 159.743 68.723 159.713 66.3403C159.682 63.9577 159.687 61.8004 159.713 60.2365C159.713 59.4871 159.739 58.8676 159.747 58.3911C159.738 58.1638 159.75 57.9361 159.782 57.7109Z" fill="#263238"/>
<path d="M185.581 83.1974C185.581 83.1974 187.635 82.6386 189.753 81.9888L194.471 80.295L193.006 71.8172L202.909 68.3516C202.909 68.3516 204.616 80.7325 204.209 83.8862C203.802 86.9706 202.082 87.7028 199.673 88.4869C197.265 89.2709 179.642 88.3959 179.395 88.7771C179.148 89.1583 181.799 85.2898 181.799 85.2898L185.581 83.1974Z" fill="#AE7461"/>
<path d="M194.453 49.1406C194.734 49.2359 198.044 50.2106 199.846 54.9542C201.648 59.6978 204.031 72.0831 204.031 72.0831L192.733 74.3661L191.039 59.0133L194.453 49.1406Z" fill="#6434D0"/>
<path d="M190.346 60.2656C190.401 60.4447 190.438 60.6291 190.454 60.8158C190.511 61.2187 190.584 61.7212 190.671 62.3233C190.849 63.597 191.104 65.3558 191.447 67.2835C191.789 69.2113 192.131 70.9571 192.395 72.2134C192.517 72.8112 192.616 73.3094 192.698 73.7079C192.75 73.887 192.779 74.0718 192.785 74.2581C192.712 74.0863 192.655 73.9079 192.616 73.7253C192.517 73.3787 192.387 72.8588 192.239 72.248C191.936 70.9961 191.563 69.2589 191.226 67.3225C190.888 65.3861 190.649 63.623 190.511 62.345C190.441 61.7039 190.389 61.184 190.363 60.8245C190.34 60.6392 190.334 60.452 190.346 60.2656Z" fill="#263238"/>
<path d="M194.138 50.4531C193.143 51.0483 192.274 51.8342 191.583 52.7656C190.891 53.6971 190.391 54.7558 190.109 55.8812C190.111 55.5343 190.171 55.1901 190.287 54.8631C190.524 54.0597 190.901 53.3044 191.4 52.6321C191.899 51.9529 192.514 51.3664 193.215 50.8993C193.494 50.6962 193.806 50.5451 194.138 50.4531Z" fill="#263238"/>
</g>
<rect x="140.198" y="1.94044" width="68.9229" height="71.1174" rx="34.4615" stroke="#D1DCF8" stroke-width="2.3965"/>
<path d="M217.997 13.9089C217.997 21.1801 212.102 27.0755 204.831 27.0755C197.559 27.0755 191.664 21.1801 191.664 13.9089C191.664 6.63756 197.559 0.742188 204.831 0.742188C212.102 0.742188 217.997 6.63756 217.997 13.9089Z" fill="#C8E6C9"/>
<path d="M211.796 7.71094L202.862 16.6551L199.174 12.9776L197.312 14.8394L202.865 20.3786L213.658 9.5727L211.796 7.71094Z" fill="#4CAF50"/>
<defs>
<linearGradient id="paint0_linear_7842_7022" x1="114.65" y1="73.5" x2="113.959" y2="72.7775" gradientUnits="userSpaceOnUse">
<stop stop-color="#8867EB" stop-opacity="0.4"/>
<stop offset="1" stop-color="#8867EB"/>
</linearGradient>
<clipPath id="clip0_7842_7022">
<rect x="6.9375" y="275.57" width="105.518" height="106.493" rx="52.7591" transform="rotate(-7.06256 6.9375 275.57)" fill="white"/>
</clipPath>
<clipPath id="clip1_7842_7022">
<rect x="22.1094" y="71" width="113.917" height="112.448" rx="56.2239" transform="rotate(11.3386 22.1094 71)" fill="white"/>
</clipPath>
<clipPath id="clip2_7842_7022">
<rect x="139" y="0.742188" width="71.3194" height="73.5139" rx="35.6597" fill="white"/>
</clipPath>
</defs>
</svg>
