<svg width="134" height="285" viewBox="0 0 134 285" fill="none" xmlns="http://www.w3.org/2000/svg">
<rect x="53.9648" y="102" width="81" height="81" rx="5.29805" transform="rotate(10.6454 53.9648 102)" fill="url(#paint0_linear_9388_8954)"/>
<path d="M64.8514 120.518C65.058 119.419 66.1165 118.696 67.2156 118.902L99.058 124.888C100.157 125.094 100.881 126.153 100.674 127.252L94.6888 159.094C94.4822 160.193 93.4237 160.917 92.3246 160.71L60.4822 154.725C59.3831 154.518 58.6595 153.46 58.8661 152.361L64.8514 120.518Z" stroke="white" stroke-width="4.05"/>
<path d="M75.8456 139.043C76.2588 136.845 78.3758 135.397 80.574 135.811L112.416 141.796C114.615 142.209 116.062 144.326 115.649 146.524L109.663 178.367C109.25 180.565 107.133 182.012 104.935 181.599L73.0925 175.614C70.8942 175.2 69.4471 173.083 69.8603 170.885L75.8456 139.043Z" fill="white"/>
<line x1="86.7495" y1="135.942" x2="112.621" y2="140.805" stroke="url(#paint1_linear_9388_8954)" stroke-width="2.025"/>
<line x1="73.3427" y1="146.851" x2="68.4797" y2="172.723" stroke="#A093C7" stroke-width="2.025"/>
<rect x="14" y="12.2734" width="52.9805" height="52.9805" rx="5.29805" transform="rotate(-13.3916 14 12.2734)" fill="url(#paint2_linear_9388_8954)"/>
<g clip-path="url(#clip0_9388_8954)">
<path d="M28.7014 19.6986C28.1034 19.841 27.5945 20.2491 27.2867 20.833C26.9788 21.417 26.8973 22.129 27.0601 22.8125L33.1953 48.5824C33.358 49.2659 33.7517 49.8648 34.2896 50.2474C34.8275 50.63 35.4657 50.765 36.0637 50.6226L63.1222 44.1806C63.7202 44.0382 64.2291 43.6301 64.5369 43.0462C64.8447 42.4622 64.9262 41.7502 64.7635 41.0667L58.6283 15.2968C58.4655 14.6133 58.0719 14.0144 57.534 13.6318C56.9961 13.2492 56.3579 13.1142 55.7599 13.2566L28.7014 19.6986ZM55.1463 10.6796C56.3424 10.3949 57.6187 10.6648 58.6946 11.43C59.7704 12.1952 60.5577 13.393 60.8831 14.7599L67.0184 40.5299C67.3438 41.8968 67.1808 43.3209 66.5652 44.4888C65.9496 45.6567 64.9318 46.4728 63.7357 46.7575L36.6772 53.1996C35.4812 53.4843 34.2048 53.2144 33.129 52.4492C32.0531 51.684 31.2659 50.4862 30.9404 49.1193L24.8052 23.3493C24.4797 21.9824 24.6428 20.5583 25.2584 19.3904C25.874 18.2225 26.8918 17.4064 28.0879 17.1216L55.1463 10.6796Z" fill="white"/>
<path d="M56.1586 25.6703C56.0921 25.3909 55.8432 25.1669 55.4668 25.0477C55.0904 24.9285 54.6173 24.9238 54.1515 25.0347L50.639 25.8709C50.1733 25.9818 49.753 26.1992 49.4707 26.4752C49.1884 26.7513 49.0671 27.0633 49.1337 27.3428L51.1407 35.7727C51.2072 36.0522 51.456 36.2761 51.8324 36.3953C52.2088 36.5145 52.682 36.5192 53.1478 36.4083L56.6602 35.5721C57.126 35.4612 57.5463 35.2438 57.8286 34.9678C58.1109 34.6918 58.2321 34.3797 58.1656 34.1002L56.1586 25.6703Z" fill="white"/>
<path d="M58.6174 25.0818C58.5509 24.8023 58.4686 24.5387 58.3886 24.3489C58.3086 24.1592 58.2375 24.0588 58.1909 24.0699L57.8397 24.1535C57.7931 24.1646 57.7749 24.2862 57.789 24.4917C57.8031 24.6972 57.8484 24.9696 57.9149 25.249L59.9219 33.6789C59.9884 33.9584 60.0708 34.222 60.1507 34.4118C60.2307 34.6016 60.3018 34.702 60.3484 34.6909L60.6996 34.6072C60.7462 34.5962 60.7645 34.4745 60.7504 34.269C60.7362 34.0636 60.6909 33.7912 60.6244 33.5117L58.6174 25.0818Z" fill="white"/>
</g>
<rect y="243.016" width="41.8789" height="41.8789" rx="5.29805" transform="rotate(-11.0377 0 243.016)" fill="url(#paint3_linear_9388_8954)"/>
<g clip-path="url(#clip1_9388_8954)">
<path d="M11.3413 249.354C10.8643 249.447 10.4492 249.752 10.1871 250.204C9.92502 250.655 9.83753 251.215 9.94385 251.76L13.9528 272.312C14.0592 272.857 14.3506 273.343 14.763 273.662C15.1754 273.982 15.6751 274.109 16.152 274.016L37.7317 269.807C38.2087 269.714 38.6238 269.408 38.8859 268.957C39.148 268.506 39.2355 267.946 39.1291 267.401L35.1202 246.849C35.0138 246.304 34.7224 245.818 34.31 245.498C33.8976 245.178 33.3979 245.051 32.921 245.144L11.3413 249.354ZM32.5201 243.089C33.474 242.903 34.4732 243.158 35.2981 243.797C36.123 244.436 36.7058 245.408 36.9185 246.498L40.9275 267.05C41.1401 268.14 40.9651 269.26 40.441 270.162C39.9169 271.064 39.0865 271.676 38.1326 271.862L16.5529 276.071C15.599 276.257 14.5998 276.003 13.7749 275.364C12.95 274.724 12.3672 273.753 12.1545 272.663L8.14554 252.11C7.9329 251.02 8.10788 249.901 8.63202 248.998C9.15615 248.096 9.98648 247.484 10.9404 247.298L32.5201 243.089Z" fill="white"/>
<path d="M32.891 255.246C32.833 254.949 32.6299 254.693 32.3262 254.534C32.0226 254.375 31.6433 254.327 31.2719 254.399L28.4708 254.946C28.0994 255.018 27.7662 255.206 27.5445 255.467C27.3229 255.728 27.2309 256.042 27.2889 256.339L29.0373 265.303C29.0953 265.6 29.2984 265.856 29.602 266.015C29.9057 266.174 30.2849 266.222 30.6564 266.15L33.4574 265.603C33.8289 265.531 34.1621 265.343 34.3837 265.082C34.6054 264.821 34.6974 264.507 34.6394 264.21L32.891 255.246Z" fill="white"/>
<path d="M35.1583 266.82C35.1511 266.783 35.1072 266.754 35.0364 266.741C34.9657 266.728 34.8737 266.73 34.7809 266.748L34.0806 266.885C33.9877 266.903 33.9016 266.935 33.841 266.974C33.7805 267.013 33.7505 267.056 33.7578 267.093L33.9763 268.214C33.9836 268.251 34.0274 268.279 34.0982 268.293C34.169 268.306 34.2609 268.303 34.3538 268.285L35.0541 268.149C35.1469 268.131 35.2331 268.099 35.2936 268.059C35.3542 268.02 35.3841 267.978 35.3769 267.94L35.1583 266.82Z" fill="white"/>
</g>
<defs>
<linearGradient id="paint0_linear_9388_8954" x1="136.501" y1="144.794" x2="24.104" y2="141.609" gradientUnits="userSpaceOnUse">
<stop stop-color="#6434D0"/>
<stop offset="1" stop-color="#EEEBF7"/>
</linearGradient>
<linearGradient id="paint1_linear_9388_8954" x1="112.5" y1="141" x2="87.5" y2="136" gradientUnits="userSpaceOnUse">
<stop stop-color="#614DA0"/>
<stop offset="1" stop-color="#9586C0"/>
</linearGradient>
<linearGradient id="paint2_linear_9388_8954" x1="67.985" y1="40.2643" x2="-5.53135" y2="38.1809" gradientUnits="userSpaceOnUse">
<stop stop-color="#6434D0"/>
<stop offset="1" stop-color="#EEEBF7"/>
</linearGradient>
<linearGradient id="paint3_linear_9388_8954" x1="42.673" y1="265.141" x2="-15.4387" y2="263.494" gradientUnits="userSpaceOnUse">
<stop stop-color="#6434D0"/>
<stop offset="1" stop-color="#EEEBF7"/>
</linearGradient>
<clipPath id="clip0_9388_8954">
<rect width="37.0863" height="42.3844" fill="white" transform="translate(22.9648 15.6328) rotate(-13.3916)"/>
</clipPath>
<clipPath id="clip1_9388_8954">
<rect width="29.3152" height="33.5031" fill="white" transform="translate(6.94531 245.953) rotate(-11.0377)"/>
</clipPath>
</defs>
</svg>
