<svg width="285" height="166" viewBox="0 0 285 166" fill="none" xmlns="http://www.w3.org/2000/svg">
<g filter="url(#filter0_d_4070_7548)">
<rect x="48" y="8" width="197.557" height="135.745" rx="7.18389" fill="white"/>
<path d="M68.1609 39.3799V31.4517H71.1959C71.7688 31.4517 72.245 31.5421 72.6243 31.7227C73.0063 31.9008 73.2915 32.1447 73.4799 32.4544C73.6708 32.7641 73.7663 33.115 73.7663 33.5073C73.7663 33.8299 73.7044 34.1061 73.5805 34.3358C73.4566 34.5629 73.2902 34.7474 73.0811 34.8893C72.8721 35.0313 72.6385 35.1332 72.3805 35.1952V35.2726C72.6618 35.2881 72.9314 35.3745 73.1895 35.5319C73.4502 35.6868 73.6631 35.9062 73.8283 36.19C73.9934 36.4739 74.076 36.8172 74.076 37.2198C74.076 37.6301 73.9767 37.9992 73.7779 38.3269C73.5792 38.6521 73.2799 38.9089 72.8798 39.0973C72.4798 39.2857 71.9766 39.3799 71.3701 39.3799H68.1609ZM69.5971 38.1798H71.1417C71.663 38.1798 72.0385 38.0805 72.2682 37.8817C72.5005 37.6804 72.6166 37.4224 72.6166 37.1075C72.6166 36.8727 72.5585 36.661 72.4424 36.4726C72.3263 36.2817 72.1611 36.132 71.9469 36.0236C71.7327 35.9126 71.4772 35.8571 71.1804 35.8571H69.5971V38.1798ZM69.5971 34.8235H71.0178C71.2656 34.8235 71.4888 34.7784 71.6875 34.688C71.8862 34.5951 72.0424 34.4648 72.1559 34.297C72.2721 34.1267 72.3301 33.9254 72.3301 33.6931C72.3301 33.386 72.2217 33.1331 72.0049 32.9344C71.7907 32.7357 71.472 32.6363 71.0488 32.6363H69.5971V34.8235ZM76.9746 39.4999C76.5978 39.4999 76.2584 39.4328 75.9564 39.2986C75.6571 39.1618 75.4196 38.9605 75.2441 38.6947C75.0712 38.4289 74.9848 38.1011 74.9848 37.7114C74.9848 37.3759 75.0467 37.0985 75.1706 36.8791C75.2945 36.6597 75.4635 36.4843 75.6777 36.3526C75.8919 36.221 76.1332 36.1217 76.4016 36.0546C76.6726 35.9849 76.9526 35.9345 77.2417 35.9036C77.5901 35.8674 77.8727 35.8352 78.0895 35.8068C78.3062 35.7758 78.4637 35.7294 78.5617 35.6674C78.6624 35.6029 78.7127 35.5036 78.7127 35.3694V35.3461C78.7127 35.0545 78.6263 34.8287 78.4533 34.6687C78.2804 34.5087 78.0314 34.4287 77.7062 34.4287C77.363 34.4287 77.0907 34.5035 76.8894 34.6532C76.6907 34.8029 76.5565 34.9797 76.4868 35.1835L75.1783 34.9977C75.2816 34.6364 75.4519 34.3345 75.6893 34.0919C75.9268 33.8467 76.2171 33.6635 76.5603 33.5422C76.9036 33.4183 77.283 33.3564 77.6985 33.3564C77.9849 33.3564 78.2701 33.3899 78.554 33.457C78.8379 33.5241 79.0972 33.6351 79.3321 33.7899C79.5669 33.9422 79.7553 34.1499 79.8973 34.4132C80.0418 34.6764 80.1141 35.0055 80.1141 35.4003V39.3799H78.7669V38.5631H78.7205C78.6353 38.7282 78.5153 38.8831 78.3604 39.0276C78.2082 39.1695 78.0159 39.2844 77.7836 39.3721C77.5539 39.4573 77.2842 39.4999 76.9746 39.4999ZM77.3384 38.4702C77.6197 38.4702 77.8636 38.4147 78.0701 38.3037C78.2766 38.1901 78.4353 38.0405 78.5462 37.8546C78.6598 37.6688 78.7166 37.4662 78.7166 37.2469V36.5462C78.6727 36.5823 78.5979 36.6159 78.4921 36.6468C78.3888 36.6778 78.2727 36.7049 78.1436 36.7281C78.0146 36.7514 77.8869 36.772 77.7604 36.7901C77.6339 36.8081 77.5243 36.8236 77.4314 36.8365C77.2223 36.8649 77.0352 36.9114 76.87 36.9759C76.7049 37.0404 76.5745 37.1307 76.479 37.2469C76.3836 37.3604 76.3358 37.5075 76.3358 37.6882C76.3358 37.9463 76.43 38.1411 76.6184 38.2727C76.8068 38.4043 77.0468 38.4702 77.3384 38.4702ZM84.1169 39.496C83.5233 39.496 83.0136 39.3657 82.5877 39.105C82.1645 38.8444 81.838 38.4844 81.6083 38.025C81.3812 37.563 81.2677 37.0314 81.2677 36.4301C81.2677 35.8262 81.3838 35.2932 81.6161 34.8313C81.8484 34.3667 82.1761 34.0054 82.5994 33.7473C83.0252 33.4867 83.5284 33.3564 84.1091 33.3564C84.5917 33.3564 85.0188 33.4454 85.3905 33.6235C85.7647 33.799 86.0628 34.048 86.2847 34.3706C86.5067 34.6906 86.6331 35.0648 86.6641 35.4932H85.3247C85.2705 35.2068 85.1414 34.968 84.9375 34.7771C84.7362 34.5835 84.4665 34.4867 84.1285 34.4867C83.842 34.4867 83.5904 34.5642 83.3736 34.719C83.1568 34.8713 82.9878 35.0906 82.8665 35.3771C82.7478 35.6636 82.6884 36.0068 82.6884 36.4068C82.6884 36.812 82.7478 37.1604 82.8665 37.452C82.9852 37.7411 83.1516 37.9643 83.3658 38.1218C83.5826 38.2766 83.8368 38.354 84.1285 38.354C84.3349 38.354 84.5195 38.3153 84.682 38.2379C84.8472 38.1579 84.9853 38.043 85.0963 37.8934C85.2072 37.7437 85.2834 37.5617 85.3247 37.3475H86.6641C86.6305 37.7682 86.5067 38.1411 86.2924 38.4663C86.0782 38.7889 85.7866 39.0418 85.4176 39.225C85.0485 39.4057 84.6149 39.496 84.1169 39.496ZM89.0923 37.514L89.0884 35.8223H89.3129L91.4498 33.4338H93.0873L90.4588 36.3604H90.1685L89.0923 37.514ZM87.8148 39.3799V31.4517H89.2161V39.3799H87.8148ZM91.5466 39.3799L89.611 36.6739L90.5556 35.6868L93.2228 39.3799H91.5466ZM96.3623 41.7336C95.8591 41.7336 95.4268 41.6652 95.0655 41.5284C94.7042 41.3942 94.4138 41.2135 94.1945 40.9864C93.9751 40.7593 93.8228 40.5077 93.7377 40.2315L94.9997 39.9257C95.0564 40.0419 95.139 40.1567 95.2474 40.2703C95.3558 40.3864 95.5016 40.4819 95.6849 40.5567C95.8707 40.6341 96.1042 40.6729 96.3855 40.6729C96.783 40.6729 97.112 40.5761 97.3727 40.3825C97.6333 40.1915 97.7637 39.8767 97.7637 39.438V38.3114H97.694C97.6217 38.456 97.5159 38.6044 97.3766 38.7566C97.2398 38.9089 97.0578 39.0366 96.8307 39.1399C96.6062 39.2431 96.3236 39.2947 95.9829 39.2947C95.5261 39.2947 95.1119 39.1876 94.7403 38.9734C94.3712 38.7566 94.077 38.434 93.8577 38.0056C93.6409 37.5746 93.5325 37.0352 93.5325 36.3875C93.5325 35.7345 93.6409 35.1835 93.8577 34.7345C94.077 34.2828 94.3725 33.9409 94.7442 33.7086C95.1158 33.4738 95.53 33.3564 95.9868 33.3564C96.3352 33.3564 96.6217 33.4157 96.8462 33.5344C97.0733 33.6506 97.254 33.7912 97.3882 33.9564C97.5224 34.119 97.6243 34.2725 97.694 34.417H97.7714V33.4338H99.1534V39.4767C99.1534 39.9851 99.0321 40.4057 98.7895 40.7387C98.5469 41.0716 98.2153 41.3206 97.7946 41.4858C97.374 41.651 96.8965 41.7336 96.3623 41.7336ZM96.3739 38.1953C96.6707 38.1953 96.9236 38.123 97.1327 37.9785C97.3417 37.834 97.5004 37.6262 97.6088 37.3553C97.7172 37.0843 97.7714 36.7591 97.7714 36.3797C97.7714 36.0055 97.7172 35.6778 97.6088 35.3965C97.503 35.1151 97.3456 34.8971 97.1365 34.7422C96.9301 34.5848 96.6759 34.5061 96.3739 34.5061C96.0617 34.5061 95.801 34.5874 95.592 34.75C95.3829 34.9126 95.2255 35.1358 95.1197 35.4197C95.0139 35.701 94.961 36.021 94.961 36.3797C94.961 36.7436 95.0139 37.0623 95.1197 37.3359C95.2281 37.6069 95.3868 37.8185 95.5958 37.9708C95.8074 38.1205 96.0668 38.1953 96.3739 38.1953ZM100.59 39.3799V33.4338H101.948V34.4248H102.01C102.119 34.0815 102.305 33.817 102.568 33.6312C102.834 33.4428 103.137 33.3486 103.478 33.3486C103.555 33.3486 103.641 33.3525 103.737 33.3602C103.835 33.3654 103.916 33.3744 103.981 33.3873V34.6764C103.921 34.6558 103.827 34.6377 103.698 34.6222C103.572 34.6042 103.449 34.5951 103.33 34.5951C103.075 34.5951 102.845 34.6506 102.641 34.7616C102.44 34.87 102.281 35.021 102.165 35.2145C102.049 35.4081 101.991 35.6313 101.991 35.8842V39.3799H100.59ZM107.261 39.496C106.68 39.496 106.177 39.3683 105.751 39.1128C105.325 38.8573 104.995 38.4998 104.76 38.0405C104.528 37.5811 104.411 37.0443 104.411 36.4301C104.411 35.8158 104.528 35.2777 104.76 34.8158C104.995 34.3538 105.325 33.9951 105.751 33.7396C106.177 33.4841 106.68 33.3564 107.261 33.3564C107.841 33.3564 108.345 33.4841 108.77 33.7396C109.196 33.9951 109.525 34.3538 109.758 34.8158C109.992 35.2777 110.11 35.8158 110.11 36.4301C110.11 37.0443 109.992 37.5811 109.758 38.0405C109.525 38.4998 109.196 38.8573 108.77 39.1128C108.345 39.3683 107.841 39.496 107.261 39.496ZM107.268 38.3734C107.583 38.3734 107.846 38.2869 108.058 38.114C108.27 37.9385 108.427 37.7037 108.53 37.4095C108.636 37.1153 108.689 36.7875 108.689 36.4262C108.689 36.0623 108.636 35.7332 108.53 35.439C108.427 35.1422 108.27 34.9061 108.058 34.7306C107.846 34.5551 107.583 34.4674 107.268 34.4674C106.946 34.4674 106.677 34.5551 106.463 34.7306C106.252 34.9061 106.093 35.1422 105.987 35.439C105.884 35.7332 105.832 36.0623 105.832 36.4262C105.832 36.7875 105.884 37.1153 105.987 37.4095C106.093 37.7037 106.252 37.9385 106.463 38.114C106.677 38.2869 106.946 38.3734 107.268 38.3734ZM115.089 36.8791V33.4338H116.49V39.3799H115.132V38.3231H115.07C114.936 38.656 114.715 38.9282 114.408 39.1399C114.103 39.3515 113.728 39.4573 113.281 39.4573C112.892 39.4573 112.547 39.3709 112.248 39.1979C111.951 39.0224 111.719 38.7682 111.551 38.4353C111.383 38.0998 111.299 37.6946 111.299 37.2198V33.4338H112.701V37.003C112.701 37.3798 112.804 37.6792 113.01 37.9011C113.217 38.123 113.488 38.234 113.823 38.234C114.03 38.234 114.23 38.1837 114.423 38.083C114.617 37.9824 114.776 37.8327 114.899 37.634C115.026 37.4327 115.089 37.1811 115.089 36.8791ZM119.333 35.8958V39.3799H117.931V33.4338H119.271V34.4441H119.341C119.477 34.1112 119.695 33.8467 119.995 33.6506C120.297 33.4544 120.67 33.3564 121.114 33.3564C121.524 33.3564 121.881 33.4441 122.186 33.6196C122.493 33.7951 122.73 34.0493 122.898 34.3822C123.069 34.7151 123.152 35.119 123.15 35.5939V39.3799H121.748V35.8107C121.748 35.4132 121.645 35.1022 121.439 34.8777C121.235 34.6532 120.952 34.5409 120.591 34.5409C120.346 34.5409 120.128 34.5951 119.937 34.7035C119.748 34.8093 119.6 34.9629 119.492 35.1642C119.386 35.3655 119.333 35.6094 119.333 35.8958ZM126.781 39.4844C126.314 39.4844 125.896 39.3644 125.527 39.1244C125.158 38.8844 124.866 38.536 124.652 38.0792C124.438 37.6224 124.331 37.0675 124.331 36.4146C124.331 35.7539 124.439 35.1964 124.656 34.7422C124.875 34.2854 125.171 33.9409 125.542 33.7086C125.914 33.4738 126.328 33.3564 126.785 33.3564C127.133 33.3564 127.42 33.4157 127.644 33.5344C127.869 33.6506 128.047 33.7912 128.178 33.9564C128.31 34.119 128.412 34.2725 128.484 34.417H128.542V31.4517H129.948V39.3799H128.569V38.4431H128.484C128.412 38.5876 128.307 38.7411 128.171 38.9037C128.034 39.0637 127.853 39.2005 127.629 39.3141C127.404 39.4276 127.122 39.4844 126.781 39.4844ZM127.172 38.3347C127.469 38.3347 127.722 38.2547 127.931 38.0947C128.14 37.9321 128.298 37.7062 128.407 37.4172C128.515 37.1282 128.569 36.7914 128.569 36.4068C128.569 36.0223 128.515 35.6881 128.407 35.4042C128.301 35.1203 128.144 34.8997 127.935 34.7422C127.728 34.5848 127.474 34.5061 127.172 34.5061C126.86 34.5061 126.599 34.5874 126.39 34.75C126.181 34.9126 126.024 35.1371 125.918 35.4236C125.812 35.71 125.759 36.0378 125.759 36.4068C125.759 36.7785 125.812 37.1101 125.918 37.4017C126.026 37.6908 126.185 37.9192 126.394 38.0869C126.605 38.2521 126.865 38.3347 127.172 38.3347ZM140.993 34.1267H139.545C139.504 33.8893 139.428 33.6789 139.317 33.4957C139.206 33.3099 139.068 33.1525 138.903 33.0234C138.737 32.8944 138.549 32.7976 138.337 32.7331C138.128 32.666 137.902 32.6324 137.66 32.6324C137.229 32.6324 136.847 32.7408 136.514 32.9576C136.181 33.1718 135.92 33.4867 135.732 33.9022C135.544 34.3151 135.449 34.8197 135.449 35.4158C135.449 36.0223 135.544 36.5333 135.732 36.9488C135.923 37.3617 136.184 37.674 136.514 37.8856C136.847 38.0947 137.228 38.1992 137.656 38.1992C137.893 38.1992 138.115 38.1682 138.322 38.1063C138.531 38.0418 138.718 37.9476 138.883 37.8237C139.051 37.6998 139.192 37.5475 139.305 37.3669C139.421 37.1862 139.501 36.9798 139.545 36.7475L140.993 36.7552C140.939 37.132 140.821 37.4856 140.641 37.8159C140.463 38.1463 140.229 38.4379 139.94 38.6908C139.651 38.9412 139.313 39.1373 138.926 39.2792C138.539 39.4186 138.109 39.4883 137.637 39.4883C136.94 39.4883 136.318 39.327 135.771 39.0044C135.224 38.6818 134.793 38.216 134.478 37.6069C134.163 36.9978 134.006 36.2675 134.006 35.4158C134.006 34.5616 134.164 33.8312 134.482 33.2247C134.799 32.6157 135.231 32.1498 135.779 31.8272C136.326 31.5046 136.945 31.3433 137.637 31.3433C138.078 31.3433 138.488 31.4053 138.868 31.5292C139.247 31.653 139.585 31.835 139.882 32.075C140.179 32.3124 140.423 32.6041 140.614 32.9499C140.807 33.2931 140.934 33.6854 140.993 34.1267ZM144.84 39.496C144.259 39.496 143.756 39.3683 143.33 39.1128C142.904 38.8573 142.574 38.4998 142.339 38.0405C142.107 37.5811 141.991 37.0443 141.991 36.4301C141.991 35.8158 142.107 35.2777 142.339 34.8158C142.574 34.3538 142.904 33.9951 143.33 33.7396C143.756 33.4841 144.259 33.3564 144.84 33.3564C145.421 33.3564 145.924 33.4841 146.35 33.7396C146.776 33.9951 147.105 34.3538 147.337 34.8158C147.572 35.2777 147.689 35.8158 147.689 36.4301C147.689 37.0443 147.572 37.5811 147.337 38.0405C147.105 38.4998 146.776 38.8573 146.35 39.1128C145.924 39.3683 145.421 39.496 144.84 39.496ZM144.848 38.3734C145.163 38.3734 145.426 38.2869 145.637 38.114C145.849 37.9385 146.006 37.7037 146.11 37.4095C146.215 37.1153 146.268 36.7875 146.268 36.4262C146.268 36.0623 146.215 35.7332 146.11 35.439C146.006 35.1422 145.849 34.9061 145.637 34.7306C145.426 34.5551 145.163 34.4674 144.848 34.4674C144.525 34.4674 144.257 34.5551 144.042 34.7306C143.831 34.9061 143.672 35.1422 143.566 35.439C143.463 35.7332 143.411 36.0623 143.411 36.4262C143.411 36.7875 143.463 37.1153 143.566 37.4095C143.672 37.7037 143.831 37.9385 144.042 38.114C144.257 38.2869 144.525 38.3734 144.848 38.3734ZM150.28 31.4517V39.3799H148.879V31.4517H150.28ZM154.315 39.496C153.734 39.496 153.231 39.3683 152.805 39.1128C152.379 38.8573 152.049 38.4998 151.814 38.0405C151.582 37.5811 151.465 37.0443 151.465 36.4301C151.465 35.8158 151.582 35.2777 151.814 34.8158C152.049 34.3538 152.379 33.9951 152.805 33.7396C153.231 33.4841 153.734 33.3564 154.315 33.3564C154.895 33.3564 155.399 33.4841 155.824 33.7396C156.25 33.9951 156.579 34.3538 156.812 34.8158C157.046 35.2777 157.164 35.8158 157.164 36.4301C157.164 37.0443 157.046 37.5811 156.812 38.0405C156.579 38.4998 156.25 38.8573 155.824 39.1128C155.399 39.3683 154.895 39.496 154.315 39.496ZM154.322 38.3734C154.637 38.3734 154.9 38.2869 155.112 38.114C155.324 37.9385 155.481 37.7037 155.584 37.4095C155.69 37.1153 155.743 36.7875 155.743 36.4262C155.743 36.0623 155.69 35.7332 155.584 35.439C155.481 35.1422 155.324 34.9061 155.112 34.7306C154.9 34.5551 154.637 34.4674 154.322 34.4674C154 34.4674 153.731 34.5551 153.517 34.7306C153.306 34.9061 153.147 35.1422 153.041 35.439C152.938 35.7332 152.886 36.0623 152.886 36.4262C152.886 36.7875 152.938 37.1153 153.041 37.4095C153.147 37.7037 153.306 37.9385 153.517 38.114C153.731 38.2869 154 38.3734 154.322 38.3734ZM158.353 39.3799V33.4338H159.712V34.4248H159.774C159.882 34.0815 160.068 33.817 160.331 33.6312C160.597 33.4428 160.9 33.3486 161.241 33.3486C161.319 33.3486 161.405 33.3525 161.5 33.3602C161.599 33.3654 161.68 33.3744 161.744 33.3873V34.6764C161.685 34.6558 161.591 34.6377 161.462 34.6222C161.335 34.6042 161.213 34.5951 161.094 34.5951C160.838 34.5951 160.609 34.6506 160.405 34.7616C160.204 34.87 160.045 35.021 159.929 35.2145C159.813 35.4081 159.755 35.6313 159.755 35.8842V39.3799H158.353Z" fill="#211447"/>
<g clip-path="url(#clip0_4070_7548)">
<path d="M80.4425 62.6475L81.5987 55.6002H82.2869L81.1307 62.6475H80.4425ZM77.2355 60.693L77.3456 60.0047H82.6035L82.4934 60.693H77.2355ZM77.965 62.6475L79.1212 55.6002H79.8094L78.6532 62.6475H77.965ZM77.6484 58.2429L77.7585 57.5547H83.0164L82.9063 58.2429H77.6484ZM84.133 62.6475L87.285 56.4123V56.3572H83.6513V55.6002H88.1659V56.3985L85.0277 62.6475H84.133ZM89.5725 62.6475V55.6002H93.798V56.3572H90.4258V58.7384H93.4815V59.4955H90.4258V62.6475H89.5725ZM95.356 62.6475L98.508 56.4123V56.3572H94.8742V55.6002H99.3889V56.3985L96.2506 62.6475H95.356ZM100.795 62.6475V55.6002H105.021V56.3572H101.649V58.7384H104.704V59.4955H101.649V62.6475H100.795ZM106.483 62.6475V55.6002H110.708V56.3572H107.336V58.7384H110.392V59.4955H107.336V62.6475H106.483ZM111.579 62.6475H110.684L113.272 55.6002H114.153L116.74 62.6475H115.846L113.74 56.7151H113.685L111.579 62.6475ZM111.909 59.8946H115.515V60.6517H111.909V59.8946Z" fill="#453F56"/>
<rect x="203.18" y="46.8025" width="24.2249" height="24.2249" fill="#1E0D62"/>
</g>
<rect x="67.6817" y="47.1053" width="158.192" height="23.6193" rx="4.54217" stroke="#D9D8D9" stroke-width="0.605622"/>
<path d="M68.1609 92.7173V84.7891H73.2398V85.9931H69.5971V88.1454H72.8914V89.3494H69.5971V92.7173H68.1609ZM76.6436 92.8334C76.0629 92.8334 75.5596 92.7057 75.1338 92.4502C74.708 92.1947 74.3776 91.8372 74.1428 91.3779C73.9105 90.9185 73.7944 90.3817 73.7944 89.7675C73.7944 89.1532 73.9105 88.6151 74.1428 88.1532C74.3776 87.6912 74.708 87.3325 75.1338 87.077C75.5596 86.8215 76.0629 86.6938 76.6436 86.6938C77.2242 86.6938 77.7275 86.8215 78.1533 87.077C78.5792 87.3325 78.9082 87.6912 79.1405 88.1532C79.3753 88.6151 79.4927 89.1532 79.4927 89.7675C79.4927 90.3817 79.3753 90.9185 79.1405 91.3779C78.9082 91.8372 78.5792 92.1947 78.1533 92.4502C77.7275 92.7057 77.2242 92.8334 76.6436 92.8334ZM76.6513 91.7108C76.9662 91.7108 77.2294 91.6243 77.441 91.4514C77.6527 91.2759 77.8101 91.0411 77.9133 90.7469C78.0191 90.4527 78.072 90.1249 78.072 89.7636C78.072 89.3997 78.0191 89.0706 77.9133 88.7764C77.8101 88.4797 77.6527 88.2435 77.441 88.068C77.2294 87.8925 76.9662 87.8048 76.6513 87.8048C76.3287 87.8048 76.0603 87.8925 75.8461 88.068C75.6345 88.2435 75.4758 88.4797 75.37 88.7764C75.2667 89.0706 75.2151 89.3997 75.2151 89.7636C75.2151 90.1249 75.2667 90.4527 75.37 90.7469C75.4758 91.0411 75.6345 91.2759 75.8461 91.4514C76.0603 91.6243 76.3287 91.7108 76.6513 91.7108ZM82.0835 89.2332V92.7173H80.6822V86.7712H82.0216V87.7816H82.0913C82.228 87.4486 82.4461 87.1841 82.7455 86.988C83.0474 86.7918 83.4204 86.6938 83.8643 86.6938C84.2746 86.6938 84.632 86.7815 84.9366 86.957C85.2437 87.1325 85.4811 87.3867 85.6489 87.7196C85.8192 88.0525 85.9031 88.4564 85.9005 88.9313V92.7173H84.4991V89.1481C84.4991 88.7506 84.3959 88.4396 84.1894 88.2151C83.9856 87.9906 83.703 87.8783 83.3417 87.8783C83.0965 87.8783 82.8784 87.9325 82.6874 88.0409C82.499 88.1467 82.3506 88.3003 82.2422 88.5016C82.1364 88.7029 82.0835 88.9468 82.0835 89.2332ZM90.2943 86.7712V87.8551H86.876V86.7712H90.2943ZM87.7199 85.3466H89.1213V90.9288C89.1213 91.1172 89.1497 91.2617 89.2065 91.3624C89.2658 91.4604 89.3432 91.5275 89.4387 91.5637C89.5342 91.5998 89.64 91.6179 89.7562 91.6179C89.8439 91.6179 89.9239 91.6114 89.9962 91.5985C90.071 91.5856 90.1278 91.574 90.1665 91.5637L90.4027 92.6592C90.3278 92.685 90.2207 92.7134 90.0814 92.7444C89.9446 92.7754 89.7768 92.7934 89.5781 92.7986C89.2271 92.8089 88.911 92.756 88.6297 92.6399C88.3484 92.5211 88.1251 92.3379 87.96 92.0902C87.7974 91.8424 87.7174 91.5327 87.7199 91.1611V85.3466ZM101.018 87.4641H99.5705C99.5293 87.2267 99.4531 87.0163 99.3421 86.8331C99.2312 86.6473 99.0931 86.4899 98.9279 86.3608C98.7628 86.2318 98.5744 86.135 98.3627 86.0705C98.1537 86.0034 97.9279 85.9698 97.6853 85.9698C97.2543 85.9698 96.8723 86.0782 96.5394 86.295C96.2065 86.5092 95.9458 86.8241 95.7574 87.2396C95.569 87.6525 95.4749 88.1571 95.4749 88.7532C95.4749 89.3597 95.569 89.8707 95.7574 90.2862C95.9484 90.6991 96.2091 91.0114 96.5394 91.223C96.8723 91.4321 97.253 91.5366 97.6814 91.5366C97.9188 91.5366 98.1408 91.5056 98.3473 91.4437C98.5563 91.3792 98.7434 91.285 98.9086 91.1611C99.0763 91.0372 99.217 90.8849 99.3305 90.7043C99.4467 90.5236 99.5267 90.3172 99.5705 90.0849L101.018 90.0926C100.964 90.4694 100.847 90.823 100.666 91.1533C100.488 91.4837 100.254 91.7753 99.9654 92.0282C99.6764 92.2786 99.3383 92.4747 98.9512 92.6166C98.564 92.756 98.1343 92.8257 97.6621 92.8257C96.9652 92.8257 96.3433 92.6644 95.7962 92.3418C95.249 92.0192 94.818 91.5534 94.5032 90.9443C94.1883 90.3352 94.0309 89.6049 94.0309 88.7532C94.0309 87.899 94.1896 87.1686 94.5071 86.5621C94.8245 85.9531 95.2568 85.4872 95.8039 85.1646C96.351 84.842 96.9704 84.6807 97.6621 84.6807C98.1034 84.6807 98.5137 84.7427 98.8931 84.8666C99.2725 84.9904 99.6105 85.1724 99.9073 85.4124C100.204 85.6498 100.448 85.9415 100.639 86.2873C100.833 86.6305 100.959 87.0228 101.018 87.4641ZM104.865 92.8334C104.285 92.8334 103.781 92.7057 103.356 92.4502C102.93 92.1947 102.599 91.8372 102.365 91.3779C102.132 90.9185 102.016 90.3817 102.016 89.7675C102.016 89.1532 102.132 88.6151 102.365 88.1532C102.599 87.6912 102.93 87.3325 103.356 87.077C103.781 86.8215 104.285 86.6938 104.865 86.6938C105.446 86.6938 105.949 86.8215 106.375 87.077C106.801 87.3325 107.13 87.6912 107.362 88.1532C107.597 88.6151 107.715 89.1532 107.715 89.7675C107.715 90.3817 107.597 90.9185 107.362 91.3779C107.13 91.8372 106.801 92.1947 106.375 92.4502C105.949 92.7057 105.446 92.8334 104.865 92.8334ZM104.873 91.7108C105.188 91.7108 105.451 91.6243 105.663 91.4514C105.874 91.2759 106.032 91.0411 106.135 90.7469C106.241 90.4527 106.294 90.1249 106.294 89.7636C106.294 89.3997 106.241 89.0706 106.135 88.7764C106.032 88.4797 105.874 88.2435 105.663 88.068C105.451 87.8925 105.188 87.8048 104.873 87.8048C104.55 87.8048 104.282 87.8925 104.068 88.068C103.856 88.2435 103.698 88.4797 103.592 88.7764C103.488 89.0706 103.437 89.3997 103.437 89.7636C103.437 90.1249 103.488 90.4527 103.592 90.7469C103.698 91.0411 103.856 91.2759 104.068 91.4514C104.282 91.6243 104.55 91.7108 104.873 91.7108ZM110.305 84.7891V92.7173H108.904V84.7891H110.305ZM114.34 92.8334C113.759 92.8334 113.256 92.7057 112.83 92.4502C112.404 92.1947 112.074 91.8372 111.839 91.3779C111.607 90.9185 111.491 90.3817 111.491 89.7675C111.491 89.1532 111.607 88.6151 111.839 88.1532C112.074 87.6912 112.404 87.3325 112.83 87.077C113.256 86.8215 113.759 86.6938 114.34 86.6938C114.921 86.6938 115.424 86.8215 115.85 87.077C116.276 87.3325 116.605 87.6912 116.837 88.1532C117.072 88.6151 117.189 89.1532 117.189 89.7675C117.189 90.3817 117.072 90.9185 116.837 91.3779C116.605 91.8372 116.276 92.1947 115.85 92.4502C115.424 92.7057 114.921 92.8334 114.34 92.8334ZM114.348 91.7108C114.663 91.7108 114.926 91.6243 115.137 91.4514C115.349 91.2759 115.507 91.0411 115.61 90.7469C115.716 90.4527 115.768 90.1249 115.768 89.7636C115.768 89.3997 115.716 89.0706 115.61 88.7764C115.507 88.4797 115.349 88.2435 115.137 88.068C114.926 87.8925 114.663 87.8048 114.348 87.8048C114.025 87.8048 113.757 87.8925 113.543 88.068C113.331 88.2435 113.172 88.4797 113.066 88.7764C112.963 89.0706 112.912 89.3997 112.912 89.7636C112.912 90.1249 112.963 90.4527 113.066 90.7469C113.172 91.0411 113.331 91.2759 113.543 91.4514C113.757 91.6243 114.025 91.7108 114.348 91.7108ZM118.379 92.7173V86.7712H119.737V87.7622H119.799C119.908 87.419 120.094 87.1544 120.357 86.9686C120.623 86.7802 120.926 86.686 121.266 86.686C121.344 86.686 121.43 86.6899 121.526 86.6976C121.624 86.7028 121.705 86.7118 121.77 86.7247V88.0138C121.71 87.9932 121.616 87.9751 121.487 87.9596C121.361 87.9416 121.238 87.9325 121.119 87.9325C120.864 87.9325 120.634 87.988 120.43 88.099C120.229 88.2074 120.07 88.3584 119.954 88.5519C119.838 88.7455 119.78 88.9687 119.78 89.2216V92.7173H118.379Z" fill="#211447"/>
<g clip-path="url(#clip1_4070_7548)">
<path d="M80.4425 115.985L81.5987 108.938H82.2869L81.1307 115.985H80.4425ZM77.2355 114.031L77.3456 113.342H82.6035L82.4934 114.031H77.2355ZM77.965 115.985L79.1212 108.938H79.8094L78.6532 115.985H77.965ZM77.6484 111.581L77.7585 110.892H83.0164L82.9063 111.581H77.6484ZM84.133 115.985L87.285 109.75V109.695H83.6513V108.938H88.1659V109.736L85.0277 115.985H84.133ZM89.5725 115.985V108.938H93.798V109.695H90.4258V112.076H93.4815V112.833H90.4258V115.985H89.5725ZM95.356 115.985L98.508 109.75V109.695H94.8742V108.938H99.3889V109.736L96.2506 115.985H95.356ZM100.795 115.985V108.938H105.021V109.695H101.649V112.076H104.704V112.833H101.649V115.985H100.795ZM106.483 115.985V108.938H110.708V109.695H107.336V112.076H110.392V112.833H107.336V115.985H106.483ZM111.579 115.985H110.684L113.272 108.938H114.153L116.74 115.985H115.846L113.74 110.053H113.685L111.579 115.985ZM111.909 113.232H115.515V113.989H111.909V113.232Z" fill="#453F56"/>
<rect x="203.18" y="100.14" width="24.2249" height="24.2249" fill="#D8CFFE"/>
</g>
<rect x="67.6817" y="100.443" width="158.192" height="23.6193" rx="4.54217" stroke="#D9D8D9" stroke-width="0.605622"/>
</g>
<path d="M21.2566 112.875C23.4691 115.088 33.1816 108.975 42.9316 99.2251C45.2191 96.9376 47.3004 94.6688 49.1191 92.4751C55.0816 85.3501 58.2691 79.2563 56.5816 77.5688C54.8941 75.8813 48.7629 79.0688 41.6004 85.0688C39.4254 86.8688 37.1754 88.9313 34.9066 91.2001C25.1566 100.952 19.0441 110.664 21.2566 112.875Z" fill="#A58CF0"/>
<path d="M41.6004 85.0705L41.6379 85.108C41.6379 85.108 45.6504 91.1643 49.0254 92.4955C49.0574 92.4939 49.0889 92.4876 49.1191 92.4768C55.0816 85.3518 58.2691 79.258 56.5816 77.5705C54.8941 75.883 48.7629 79.0705 41.6004 85.0705Z" fill="#AFAEB3"/>
<path d="M72.7384 57.6711C73.5449 61.9806 73.2619 66.4232 71.9153 70.5955C70.8769 73.7608 68.8649 76.517 66.1666 78.4705C62.9228 80.7918 56.5497 83.7205 53.8047 79.1136C52.1172 76.2861 52.8484 71.9886 54.4647 69.2905C55.2643 67.9683 56.3593 66.8493 57.6637 66.0211C58.9682 65.1929 60.4467 64.678 61.9834 64.5168C63.8117 64.5077 65.6379 64.3925 67.4528 64.1718C70.2203 63.5343 73.3628 60.7893 72.7384 57.6711Z" fill="#F8A839"/>
<defs>
<filter id="filter0_d_4070_7548" x="33.6322" y="0.816111" width="226.294" height="164.48" filterUnits="userSpaceOnUse" color-interpolation-filters="sRGB">
<feFlood flood-opacity="0" result="BackgroundImageFix"/>
<feColorMatrix in="SourceAlpha" type="matrix" values="0 0 0 0 0 0 0 0 0 0 0 0 0 0 0 0 0 0 127 0" result="hardAlpha"/>
<feOffset dy="7.18389"/>
<feGaussianBlur stdDeviation="7.18389"/>
<feComposite in2="hardAlpha" operator="out"/>
<feColorMatrix type="matrix" values="0 0 0 0 0 0 0 0 0 0 0 0 0 0 0 0 0 0 0.1 0"/>
<feBlend mode="normal" in2="BackgroundImageFix" result="effect1_dropShadow_4070_7548"/>
<feBlend mode="normal" in="SourceGraphic" in2="effect1_dropShadow_4070_7548" result="shape"/>
</filter>
<clipPath id="clip0_4070_7548">
<rect x="67.3789" y="46.8025" width="158.797" height="24.2249" rx="4.84498" fill="white"/>
</clipPath>
<clipPath id="clip1_4070_7548">
<rect x="67.3789" y="100.14" width="158.797" height="24.2249" rx="4.84498" fill="white"/>
</clipPath>
</defs>
</svg>
