<svg width="298" height="142" viewBox="0 0 298 142" fill="none" xmlns="http://www.w3.org/2000/svg">
<g filter="url(#filter0_dd_3980_8797)">
<g clip-path="url(#clip0_3980_8797)">
<rect x="17" y="25" width="213.371" height="52.1943" rx="5.99007" fill="white"/>
<path d="M37.1746 54.7918C38.1709 54.7602 39.1752 54.776 40.2743 54.8155C41.405 54.7285 42.5753 54.6099 43.706 54.5229C44.9079 54.4439 44.9553 54.9104 43.9986 55.7328C43.113 56.4918 41.9743 57.2351 40.2822 57.9389C39.1593 58.2631 38.0998 58.4212 37.1272 58.4449C36.1783 58.4291 35.3323 58.2947 34.5732 58.0496C34.2015 57.931 33.9485 57.7807 33.7983 57.6068C33.6796 57.4644 33.648 57.3616 33.6955 57.2668C33.7429 57.1798 33.8615 57.1323 34.0513 57.1481C34.2569 57.1561 34.5336 57.2193 34.8815 57.3221C35.7118 57.5435 36.4946 57.6542 37.23 57.6858C37.9654 57.6858 38.7086 57.5989 39.4915 57.3933C41.7134 56.4918 42.2669 55.8593 40.8673 55.6695C40.0766 55.5351 39.2147 55.4639 38.3686 55.456C37.5621 55.3927 36.6369 55.4006 35.7672 55.456L34.8262 55.4086C34.589 55.3769 34.3359 55.2979 34.0908 55.1634C33.8378 55.0211 33.648 54.8471 33.5136 54.6732C33.395 54.4992 33.3634 54.3648 33.4108 54.262C33.4662 54.1513 33.6006 54.1197 33.8141 54.175L34.4387 54.3015C35.1978 54.3964 35.6565 54.3095 35.783 54.0485C35.949 53.7718 36.0044 53.4001 36.0834 52.9415C36.1309 52.5145 36.0123 52.1508 35.6881 51.8345C35.3876 51.5024 34.9448 51.2414 34.4229 51.0596C33.7113 50.7749 32.9443 50.7275 32.1773 50.9884C32.0112 51.0517 31.861 51.0596 31.7503 51.0042C31.6317 50.9489 31.5526 50.8382 31.4814 50.6721C31.4261 50.4982 31.4103 50.3005 31.4419 50.1107C31.4893 49.8656 31.6 49.6995 31.774 49.6284C32.1219 49.4307 32.5252 49.3912 32.9838 49.4465C33.4899 49.5098 33.9564 49.6284 34.4229 49.834C35.2295 50.1107 35.9886 50.514 36.6132 51.0675C37.2932 51.5498 37.6965 52.1429 37.7519 52.8308C37.7993 53.2578 37.7677 53.6294 37.657 53.9615C37.7044 54.2857 37.57 54.5704 37.1746 54.7918ZM39.8789 44.971C42.425 43.4291 44.9712 43.5319 47.0112 44.2673C49.1936 45.572 51.1704 47.2404 52.7677 49.3358C53.4872 51.0121 53.3765 52.3643 52.8072 53.3764C52.0402 54.4439 51.3048 55.1397 50.6327 55.5034C49.8894 55.9304 49.3122 55.9858 48.988 55.6695C48.7745 55.4797 48.7192 55.1555 48.7745 54.6653C48.7745 54.2067 48.7666 53.6611 48.6085 53.1866C48.3713 53.0522 48.1736 52.8941 48.0233 52.6647C47.8573 52.5066 47.7703 52.3485 47.7861 52.1587C47.7782 51.9847 47.8573 51.8266 48.0392 51.6763C48.1499 51.5894 48.2685 51.5261 48.3792 51.4866C48.5136 51.447 48.6717 51.4233 48.8615 51.4391C50.1425 52.0717 50.4983 52.8466 50.8225 53.1313C51.0281 53.6136 51.5658 53.321 52.2853 52.2457C52.6491 51.2731 52.0244 49.6442 49.9843 47.359L49.929 47.3037C50.3323 47.8413 50.1741 47.9758 49.589 47.8018C49.2094 47.8572 48.6243 47.873 47.8415 48.0074C47.2484 48.4265 46.6317 49.0274 45.9912 49.9289C45.2795 51.0042 44.3544 51.9294 43.192 52.6252C41.9269 53.0443 40.9543 53.0206 40.4403 52.6806C40.0924 52.2061 39.9184 51.6368 39.8156 50.9331C39.5942 50.1582 39.4124 49.3279 39.3175 48.4107C39.1831 47.2957 39.3254 46.1413 39.8789 44.971ZM45.6354 46.9399C46.4735 46.4813 46.9717 46.2204 47.0191 45.912C47.3117 45.7538 47.114 45.4534 46.3233 44.9789C45.6749 44.5994 44.6391 44.2831 43.3423 44.1645C42.1562 44.1961 41.1282 44.8208 40.4482 46.0069C40.2743 47.2088 40.4324 48.2446 40.7329 49.1856C40.9306 49.9842 41.3022 50.6168 41.9111 51.0359C42.6464 51.2414 43.5162 50.8145 44.3149 49.8498C44.9079 48.8456 45.2795 47.8255 45.6354 46.9399Z" fill="#484455"/>
<path d="M58.5236 52.8501C58.4288 52.8501 58.3564 52.8251 58.3065 52.7752C58.2616 52.7203 58.2391 52.6479 58.2391 52.5581V51.2253H56.9288C56.8389 51.2253 56.769 51.2028 56.7191 51.1579C56.6692 51.108 56.6442 51.0381 56.6442 50.9482C56.6442 50.8584 56.6692 50.791 56.7191 50.7461C56.769 50.6961 56.8389 50.6712 56.9288 50.6712H58.2391V49.3758C58.2391 49.286 58.2616 49.2161 58.3065 49.1662C58.3564 49.1163 58.4313 49.0913 58.5311 49.0913C58.621 49.0913 58.6883 49.1163 58.7333 49.1662C58.7832 49.2161 58.8081 49.286 58.8081 49.3758V50.6712H60.1185C60.2133 50.6712 60.2832 50.6961 60.3281 50.7461C60.378 50.791 60.403 50.8584 60.403 50.9482C60.403 51.0381 60.378 51.108 60.3281 51.1579C60.2832 51.2028 60.2133 51.2253 60.1185 51.2253H58.8081V52.5581C58.8081 52.6479 58.7832 52.7203 58.7333 52.7752C58.6883 52.8251 58.6185 52.8501 58.5236 52.8501Z" fill="black"/>
<path d="M70.208 45.3718C70.3912 45.2932 70.5483 45.254 70.6596 45.2932C70.7577 45.3456 70.8232 45.4503 70.8297 45.5878C70.8363 45.7317 70.7905 45.8757 70.7316 46.059C70.7316 46.059 69.7367 48.317 69.2001 50.7451C69.115 53.5922 68.755 56.2036 68.755 56.2036C68.6176 56.5046 68.4539 56.6944 68.2445 56.7861C68.1202 56.8515 68.0089 56.8384 67.9107 56.7468C67.7995 56.6486 67.7536 56.5243 67.7536 56.3541C67.7733 56.2494 67.806 56.1185 67.8584 55.9679C67.8584 55.9679 68.1791 53.8081 68.238 51.2949C68.4867 49.0435 69.3048 46.8509 69.3048 46.8509L64.9786 49.2791C64.7823 49.3445 64.6121 49.3445 64.5008 49.2791C64.3634 49.2136 64.3045 49.0958 64.2849 48.9453C64.2521 48.5984 64.4419 48.3955 64.8739 48.2908L70.208 45.3718ZM75.7711 50.6731C76.1965 51.0462 76.4583 51.452 76.55 51.9036C76.7267 52.3879 76.7005 52.8591 76.5696 53.3893C76.406 54.1354 76.0002 54.5412 75.3915 54.6262C74.8483 54.7375 74.2331 54.5935 73.5393 54.1812C73.1597 53.9848 72.7998 53.7754 72.4463 53.4874C72.1453 53.2976 71.89 53.0882 71.6806 52.8264C71.5693 52.6955 71.5039 52.5384 71.4777 52.3028C71.4711 52.1261 71.4908 51.9625 71.5431 51.8185C71.5955 51.668 71.6609 51.5829 71.7329 51.5436C71.8246 51.5305 71.9293 51.5632 72.0275 51.668C72.2827 51.9887 72.5183 52.2701 72.7278 52.473C72.9634 52.7021 73.2383 52.8722 73.5393 53.0162C74.5014 53.6052 75.0774 53.4351 75.2606 52.473C75.3392 51.9887 75.2934 51.5698 75.1166 51.2229C74.9727 50.9022 74.6127 50.5684 74.0695 50.2739L73.5001 49.9859C73.3692 49.927 73.2906 49.8354 73.271 49.7438C73.2513 49.6325 73.2775 49.5278 73.3561 49.4296C73.4215 49.3445 73.5131 49.2725 73.6244 49.2333C73.7357 49.1874 73.86 49.2071 74.004 49.2791L74.4425 49.5016C74.9857 49.7961 75.4504 49.9336 75.8497 49.9139C76.2947 49.9336 76.6285 49.7569 76.779 49.41C76.8707 49.0762 76.7725 48.7555 76.4911 48.4151C76.2293 48.0814 75.8431 47.7868 75.3261 47.512C74.5276 47.0669 73.7618 46.8771 72.9699 46.9556C72.7801 46.9687 72.6361 46.9556 72.5052 46.9033C72.3874 46.8575 72.2892 46.7658 72.2107 46.6611C72.1256 46.5368 72.0864 46.4255 72.0994 46.2881C72.1322 46.131 72.2238 45.9935 72.394 45.9346C72.767 45.8234 73.1924 45.8234 73.7029 45.9543C74.2789 46.1113 74.8548 46.3666 75.4308 46.6938C76.3405 47.1847 77.0997 47.6756 77.6168 48.2057C78.1404 48.6835 78.376 49.1874 78.2451 49.783C78.1404 50.1823 77.8655 50.4964 77.3943 50.6928C76.851 50.8368 76.3013 50.7975 75.7711 50.6731ZM84.1879 55.6473C84.3711 55.6342 84.4955 55.6734 84.5609 55.7585C84.6395 55.8632 84.6525 55.9941 84.6067 56.1774C84.5282 56.5635 84.2991 56.7926 83.913 56.8057L78.8734 56.917C78.6509 56.8908 78.4676 56.7861 78.3105 56.6421C78.2058 56.5046 78.1469 56.3279 78.16 56.1774C78.1862 55.9941 78.2975 55.8305 78.4873 55.7258L83.5465 52.1326C84.2729 51.681 84.8423 51.3145 85.3201 50.9938C85.8241 50.7386 86.1448 50.4506 86.3149 50.1692C86.3935 49.7765 86.2168 49.4623 85.8306 49.2202C85.4772 48.9715 85.0125 48.8144 84.4431 48.7555C83.5203 48.6835 82.6302 48.8929 81.727 49.3511C81.6026 49.3903 81.4848 49.4296 81.3866 49.4754C81.3016 49.5016 81.2165 49.5081 81.1248 49.5147C80.9743 49.5212 80.85 49.482 80.7583 49.3903C80.6536 49.2987 80.6078 49.1809 80.6078 49.05C80.6143 48.8733 80.7256 48.7293 80.9481 48.6311C81.3605 48.3693 81.871 48.1795 82.4731 48.0159C83.0425 47.8785 83.5923 47.8327 84.129 47.8588C85.0845 47.9308 85.9419 48.1992 86.7011 48.6377C87.4538 49.0893 87.853 49.6325 87.7941 50.2608C87.5454 50.7059 87.1134 51.1051 86.4917 51.4454C85.8437 51.7989 85.1041 52.2963 84.1813 52.8788L80.3133 55.7912L84.1879 55.6473Z" fill="#484455"/>
<path d="M95.6631 50.4765C95.5733 50.4765 95.5034 50.4541 95.4535 50.4091C95.4036 50.3592 95.3786 50.2893 95.3786 50.1995C95.3786 50.1096 95.4036 50.0422 95.4535 49.9973C95.5034 49.9474 95.5733 49.9224 95.6631 49.9224H98.8528C98.9477 49.9224 99.0176 49.9474 99.0625 49.9973C99.1124 50.0422 99.1374 50.1096 99.1374 50.1995C99.1374 50.2893 99.1124 50.3592 99.0625 50.4091C99.0176 50.4541 98.9477 50.4765 98.8528 50.4765H95.6631ZM95.6631 51.9665C95.5733 51.9665 95.5034 51.9441 95.4535 51.8992C95.4036 51.8492 95.3786 51.7794 95.3786 51.6895C95.3786 51.5997 95.4036 51.5323 95.4535 51.4873C95.5034 51.4424 95.5733 51.4199 95.6631 51.4199H98.8528C98.9477 51.4199 99.0176 51.4424 99.0625 51.4873C99.1124 51.5323 99.1374 51.5997 99.1374 51.6895C99.1374 51.7843 99.1124 51.8542 99.0625 51.8992C99.0176 51.9441 98.9477 51.9665 98.8528 51.9665H95.6631Z" fill="black"/>
<path d="M117.877 53.0972C117.742 53.0972 117.637 53.0622 117.563 52.9923C117.493 52.9175 117.458 52.8126 117.458 52.6779V48.2377C117.458 48.1029 117.493 48.0006 117.563 47.9307C117.637 47.8559 117.742 47.8184 117.877 47.8184H120.61C120.715 47.8184 120.795 47.8459 120.85 47.9008C120.905 47.9507 120.932 48.0256 120.932 48.1254C120.932 48.2302 120.905 48.3101 120.85 48.365C120.795 48.4199 120.715 48.4474 120.61 48.4474H118.206V50.1021H120.445C120.555 50.1021 120.635 50.1296 120.685 50.1845C120.74 50.2394 120.767 50.3168 120.767 50.4166C120.767 50.5214 120.74 50.6013 120.685 50.6562C120.635 50.7061 120.555 50.7311 120.445 50.7311H118.206V52.4682H120.61C120.715 52.4682 120.795 52.4957 120.85 52.5506C120.905 52.6055 120.932 52.6829 120.932 52.7827C120.932 52.8875 120.905 52.9674 120.85 53.0223C120.795 53.0722 120.715 53.0972 120.61 53.0972H117.877ZM122.159 53.1496C122.039 53.1496 121.947 53.1171 121.882 53.0522C121.817 52.9824 121.785 52.8875 121.785 52.7677V49.7727C121.785 49.6479 121.817 49.553 121.882 49.4882C121.947 49.4233 122.037 49.3908 122.151 49.3908C122.271 49.3908 122.361 49.4233 122.421 49.4882C122.486 49.553 122.518 49.6479 122.518 49.7727V50.3567L122.436 50.2219C122.546 49.9424 122.718 49.7327 122.953 49.593C123.187 49.4482 123.457 49.3758 123.761 49.3758C124.051 49.3758 124.29 49.4307 124.48 49.5406C124.675 49.6454 124.82 49.8076 124.914 50.0273C125.009 50.2419 125.057 50.514 125.057 50.8434V52.7677C125.057 52.8875 125.024 52.9824 124.959 53.0522C124.894 53.1171 124.802 53.1496 124.682 53.1496C124.557 53.1496 124.463 53.1171 124.398 53.0522C124.333 52.9824 124.3 52.8875 124.3 52.7677V50.8883C124.3 50.5739 124.238 50.3442 124.113 50.1995C123.993 50.0547 123.804 49.9823 123.544 49.9823C123.24 49.9823 122.995 50.0772 122.81 50.2669C122.631 50.4565 122.541 50.7111 122.541 51.0306V52.7677C122.541 53.0223 122.414 53.1496 122.159 53.1496ZM127.656 53.1646C127.357 53.1646 127.105 53.1121 126.9 53.0073C126.695 52.9025 126.543 52.7477 126.443 52.5431C126.343 52.3384 126.293 52.0888 126.293 51.7943V50.0273H125.844C125.744 50.0273 125.667 50.0023 125.612 49.9524C125.557 49.8975 125.53 49.8251 125.53 49.7352C125.53 49.6404 125.557 49.568 125.612 49.5181C125.667 49.4682 125.744 49.4432 125.844 49.4432H126.293V48.672C126.293 48.5472 126.326 48.4524 126.391 48.3875C126.461 48.3226 126.555 48.2901 126.675 48.2901C126.795 48.2901 126.887 48.3226 126.952 48.3875C127.017 48.4524 127.05 48.5472 127.05 48.672V49.4432H127.926C128.025 49.4432 128.103 49.4682 128.158 49.5181C128.213 49.568 128.24 49.6404 128.24 49.7352C128.24 49.8251 128.213 49.8975 128.158 49.9524C128.103 50.0023 128.025 50.0273 127.926 50.0273H127.05V51.7344C127.05 51.999 127.105 52.1987 127.214 52.3334C127.329 52.4682 127.514 52.5356 127.768 52.5356C127.858 52.5356 127.936 52.5281 128.001 52.5131C128.07 52.4932 128.128 52.4807 128.173 52.4757C128.228 52.4757 128.273 52.4957 128.308 52.5356C128.342 52.5705 128.36 52.6404 128.36 52.7453C128.36 52.8201 128.345 52.89 128.315 52.9549C128.29 53.0198 128.243 53.0622 128.173 53.0822C128.113 53.1022 128.03 53.1196 127.926 53.1346C127.826 53.1546 127.736 53.1646 127.656 53.1646ZM130.512 53.1646C130.112 53.1646 129.768 53.0897 129.478 52.9399C129.194 52.7852 128.972 52.568 128.812 52.2885C128.657 52.004 128.58 51.667 128.58 51.2777C128.58 50.8983 128.657 50.5664 128.812 50.2818C128.967 49.9973 129.179 49.7752 129.448 49.6154C129.718 49.4557 130.025 49.3758 130.369 49.3758C130.624 49.3758 130.851 49.4183 131.051 49.5031C131.25 49.583 131.42 49.7028 131.56 49.8625C131.705 50.0173 131.812 50.207 131.882 50.4316C131.957 50.6562 131.994 50.9083 131.994 51.1878C131.994 51.2727 131.969 51.3376 131.919 51.3825C131.869 51.4224 131.794 51.4424 131.695 51.4424H129.179V50.9782H131.485L131.358 51.083C131.358 50.8334 131.32 50.6213 131.245 50.4466C131.175 50.2719 131.068 50.1396 130.923 50.0497C130.784 49.9549 130.609 49.9075 130.399 49.9075C130.165 49.9075 129.965 49.9624 129.8 50.0722C129.64 50.182 129.518 50.3342 129.433 50.5289C129.348 50.7236 129.306 50.9507 129.306 51.2103V51.2552C129.306 51.6945 129.408 52.0264 129.613 52.2511C129.823 52.4707 130.125 52.5805 130.519 52.5805C130.669 52.5805 130.826 52.5606 130.991 52.5206C131.16 52.4807 131.32 52.4133 131.47 52.3185C131.555 52.2685 131.63 52.2461 131.695 52.2511C131.764 52.2561 131.819 52.2785 131.859 52.3185C131.904 52.3584 131.932 52.4083 131.942 52.4682C131.952 52.5281 131.942 52.5905 131.912 52.6554C131.882 52.7153 131.829 52.7702 131.754 52.8201C131.585 52.9349 131.388 53.0223 131.163 53.0822C130.938 53.1371 130.721 53.1646 130.512 53.1646ZM133.2 53.1496C133.076 53.1496 132.981 53.1171 132.916 53.0522C132.851 52.9824 132.819 52.8875 132.819 52.7677V49.7727C132.819 49.6479 132.851 49.553 132.916 49.4882C132.981 49.4233 133.071 49.3908 133.185 49.3908C133.305 49.3908 133.395 49.4233 133.455 49.4882C133.52 49.553 133.552 49.6479 133.552 49.7727V50.3193H133.477C133.557 50.0198 133.705 49.7926 133.919 49.6379C134.134 49.4832 134.408 49.3933 134.743 49.3684C134.833 49.3634 134.903 49.3858 134.952 49.4357C135.007 49.4857 135.037 49.563 135.042 49.6679C135.052 49.7727 135.03 49.8575 134.975 49.9224C134.92 49.9823 134.835 50.0173 134.72 50.0273L134.578 50.0422C134.254 50.0722 134.007 50.1745 133.837 50.3492C133.667 50.5239 133.582 50.7635 133.582 51.068V52.7677C133.582 52.8875 133.55 52.9824 133.485 53.0522C133.425 53.1171 133.33 53.1496 133.2 53.1496ZM138.866 53.1646C138.647 53.1646 138.42 53.1396 138.185 53.0897C137.955 53.0398 137.743 52.9549 137.549 52.8351C137.484 52.7902 137.439 52.7403 137.414 52.6854C137.389 52.6304 137.379 52.5755 137.384 52.5206C137.394 52.4607 137.416 52.4108 137.451 52.3709C137.491 52.3259 137.539 52.2985 137.593 52.2885C137.653 52.2785 137.716 52.291 137.781 52.3259C137.975 52.4358 138.163 52.5131 138.342 52.5581C138.522 52.598 138.699 52.618 138.874 52.618C139.138 52.618 139.338 52.5705 139.473 52.4757C139.608 52.3809 139.675 52.2536 139.675 52.0938C139.675 51.964 139.63 51.8642 139.54 51.7943C139.45 51.7195 139.316 51.662 139.136 51.6221L138.425 51.4798C138.115 51.415 137.881 51.3001 137.721 51.1354C137.561 50.9707 137.481 50.761 137.481 50.5065C137.481 50.2768 137.544 50.0772 137.668 49.9075C137.793 49.7377 137.968 49.608 138.192 49.5181C138.417 49.4233 138.677 49.3758 138.971 49.3758C139.191 49.3758 139.398 49.4033 139.593 49.4582C139.787 49.5131 139.967 49.5955 140.132 49.7053C140.197 49.7402 140.239 49.7877 140.259 49.8476C140.279 49.9025 140.282 49.9574 140.267 50.0123C140.257 50.0672 140.232 50.1171 140.192 50.162C140.152 50.202 140.102 50.2269 140.042 50.2369C139.987 50.2419 139.925 50.2269 139.855 50.192C139.705 50.0971 139.555 50.0298 139.405 49.9898C139.261 49.9499 139.116 49.9299 138.971 49.9299C138.707 49.9299 138.507 49.9798 138.372 50.0797C138.242 50.1745 138.178 50.3043 138.178 50.469C138.178 50.5938 138.217 50.6961 138.297 50.776C138.377 50.8559 138.502 50.9133 138.672 50.9482L139.383 51.0905C139.707 51.1554 139.952 51.2652 140.117 51.4199C140.287 51.5747 140.371 51.7843 140.371 52.0489C140.371 52.3933 140.234 52.6654 139.96 52.8651C139.685 53.0647 139.321 53.1646 138.866 53.1646ZM142.516 53.1646C142.221 53.1646 141.974 53.1096 141.774 52.9998C141.58 52.89 141.432 52.7278 141.333 52.5131C141.238 52.2935 141.19 52.019 141.19 51.6895V49.7727C141.19 49.6429 141.223 49.5481 141.288 49.4882C141.353 49.4233 141.445 49.3908 141.565 49.3908C141.685 49.3908 141.777 49.4233 141.842 49.4882C141.912 49.5481 141.947 49.6429 141.947 49.7727V51.697C141.947 51.9915 142.006 52.2086 142.126 52.3484C142.246 52.4882 142.436 52.5581 142.695 52.5581C142.98 52.5581 143.209 52.4632 143.384 52.2735C143.564 52.0789 143.654 51.8243 143.654 51.5098V49.7727C143.654 49.6429 143.686 49.5481 143.751 49.4882C143.816 49.4233 143.911 49.3908 144.036 49.3908C144.155 49.3908 144.248 49.4233 144.313 49.4882C144.378 49.5481 144.41 49.6429 144.41 49.7727V52.7677C144.41 53.0223 144.288 53.1496 144.043 53.1496C143.928 53.1496 143.838 53.1171 143.774 53.0522C143.709 52.9824 143.676 52.8875 143.676 52.7677V52.1313L143.774 52.296C143.674 52.5755 143.514 52.7902 143.294 52.9399C143.075 53.0897 142.815 53.1646 142.516 53.1646ZM145.865 53.1496C145.745 53.1496 145.653 53.1171 145.588 53.0522C145.523 52.9824 145.491 52.8875 145.491 52.7677V49.7727C145.491 49.6479 145.523 49.553 145.588 49.4882C145.653 49.4233 145.743 49.3908 145.858 49.3908C145.977 49.3908 146.067 49.4233 146.127 49.4882C146.192 49.553 146.224 49.6479 146.224 49.7727V50.3867L146.142 50.2219C146.242 49.9574 146.397 49.7502 146.606 49.6005C146.816 49.4507 147.068 49.3758 147.363 49.3758C147.667 49.3758 147.914 49.4482 148.104 49.593C148.294 49.7377 148.423 49.9599 148.493 50.2594H148.388C148.483 49.9848 148.645 49.7702 148.875 49.6154C149.105 49.4557 149.372 49.3758 149.676 49.3758C149.956 49.3758 150.185 49.4307 150.365 49.5406C150.545 49.6454 150.68 49.8076 150.769 50.0273C150.859 50.2419 150.904 50.514 150.904 50.8434V52.7677C150.904 52.8875 150.869 52.9824 150.799 53.0522C150.735 53.1171 150.642 53.1496 150.522 53.1496C150.403 53.1496 150.31 53.1171 150.245 53.0522C150.18 52.9824 150.148 52.8875 150.148 52.7677V50.8808C150.148 50.5714 150.093 50.3442 149.983 50.1995C149.878 50.0547 149.704 49.9823 149.459 49.9823C149.185 49.9823 148.967 50.0772 148.808 50.2669C148.648 50.4565 148.568 50.7186 148.568 51.0531V52.7677C148.568 52.8875 148.536 52.9824 148.471 53.0522C148.406 53.1171 148.314 53.1496 148.194 53.1496C148.074 53.1496 147.979 53.1171 147.909 53.0522C147.844 52.9824 147.812 52.8875 147.812 52.7677V50.8808C147.812 50.5714 147.759 50.3442 147.655 50.1995C147.55 50.0547 147.375 49.9823 147.13 49.9823C146.856 49.9823 146.639 50.0772 146.479 50.2669C146.324 50.4565 146.247 50.7186 146.247 51.0531V52.7677C146.247 53.0223 146.12 53.1496 145.865 53.1496ZM155.523 53.1646C155.154 53.1646 154.834 53.0872 154.565 52.9324C154.3 52.7777 154.093 52.5581 153.943 52.2735C153.794 51.989 153.719 51.6546 153.719 51.2702C153.719 50.9757 153.761 50.7136 153.846 50.484C153.931 50.2544 154.051 50.0572 154.205 49.8925C154.365 49.7228 154.555 49.5955 154.774 49.5106C154.999 49.4208 155.249 49.3758 155.523 49.3758C155.888 49.3758 156.202 49.4532 156.467 49.608C156.736 49.7627 156.946 49.9823 157.096 50.2669C157.245 50.5464 157.32 50.8808 157.32 51.2702C157.32 51.5597 157.278 51.8218 157.193 52.0564C157.108 52.291 156.986 52.4907 156.826 52.6554C156.671 52.8201 156.482 52.9474 156.257 53.0373C156.037 53.1221 155.793 53.1646 155.523 53.1646ZM155.523 52.5805C155.728 52.5805 155.908 52.5306 156.062 52.4308C156.217 52.3309 156.337 52.1837 156.422 51.989C156.512 51.7943 156.556 51.5547 156.556 51.2702C156.556 50.8409 156.462 50.5164 156.272 50.2968C156.082 50.0772 155.833 49.9674 155.523 49.9674C155.314 49.9674 155.131 50.0173 154.977 50.1171C154.822 50.212 154.7 50.3567 154.61 50.5514C154.525 50.7461 154.482 50.9857 154.482 51.2702C154.482 51.6945 154.577 52.019 154.767 52.2436C154.957 52.4682 155.209 52.5805 155.523 52.5805ZM158.732 53.1496C158.612 53.1496 158.517 53.1171 158.447 53.0522C158.383 52.9824 158.35 52.8875 158.35 52.7677V50.0273H157.931C157.836 50.0273 157.761 50.0023 157.706 49.9524C157.651 49.8975 157.624 49.8251 157.624 49.7352C157.624 49.6404 157.651 49.568 157.706 49.5181C157.761 49.4682 157.836 49.4432 157.931 49.4432H158.567L158.35 49.6454V49.3758C158.35 48.8817 158.472 48.5098 158.717 48.2602C158.962 48.0056 159.319 47.8559 159.788 47.8109L160.02 47.796C160.105 47.786 160.172 47.7985 160.222 47.8334C160.272 47.8683 160.304 47.9133 160.319 47.9682C160.334 48.0231 160.334 48.0805 160.319 48.1404C160.309 48.1953 160.284 48.2452 160.244 48.2901C160.205 48.3351 160.155 48.36 160.095 48.365L159.952 48.3725C159.658 48.3975 159.443 48.4823 159.309 48.6271C159.174 48.7668 159.106 48.9815 159.106 49.271V49.563L159.002 49.4432H159.833C159.937 49.4432 160.015 49.4682 160.065 49.5181C160.12 49.568 160.147 49.6404 160.147 49.7352C160.147 49.8251 160.12 49.8975 160.065 49.9524C160.015 50.0023 159.937 50.0273 159.833 50.0273H159.106V52.7677C159.106 53.0223 158.982 53.1496 158.732 53.1496ZM163.077 53.1496C162.958 53.1496 162.865 53.1171 162.8 53.0522C162.735 52.9824 162.703 52.8875 162.703 52.7677V49.7727C162.703 49.6479 162.735 49.553 162.8 49.4882C162.865 49.4233 162.955 49.3908 163.07 49.3908C163.19 49.3908 163.28 49.4233 163.339 49.4882C163.404 49.553 163.437 49.6479 163.437 49.7727V50.3567L163.354 50.2219C163.464 49.9424 163.636 49.7327 163.871 49.593C164.106 49.4482 164.375 49.3758 164.68 49.3758C164.969 49.3758 165.209 49.4307 165.399 49.5406C165.593 49.6454 165.738 49.8076 165.833 50.0273C165.928 50.2419 165.975 50.514 165.975 50.8434V52.7677C165.975 52.8875 165.943 52.9824 165.878 53.0522C165.813 53.1171 165.721 53.1496 165.601 53.1496C165.476 53.1496 165.381 53.1171 165.316 53.0522C165.251 52.9824 165.219 52.8875 165.219 52.7677V50.8883C165.219 50.5739 165.156 50.3442 165.032 50.1995C164.912 50.0547 164.722 49.9823 164.463 49.9823C164.158 49.9823 163.914 50.0772 163.729 50.2669C163.549 50.4565 163.459 50.7111 163.459 51.0306V52.7677C163.459 53.0223 163.332 53.1496 163.077 53.1496ZM168.32 53.1646C168.025 53.1646 167.778 53.1096 167.579 52.9998C167.384 52.89 167.237 52.7278 167.137 52.5131C167.042 52.2935 166.995 52.019 166.995 51.6895V49.7727C166.995 49.6429 167.027 49.5481 167.092 49.4882C167.157 49.4233 167.249 49.3908 167.369 49.3908C167.489 49.3908 167.581 49.4233 167.646 49.4882C167.716 49.5481 167.751 49.6429 167.751 49.7727V51.697C167.751 51.9915 167.811 52.2086 167.931 52.3484C168.05 52.4882 168.24 52.5581 168.5 52.5581C168.784 52.5581 169.014 52.4632 169.189 52.2735C169.368 52.0789 169.458 51.8243 169.458 51.5098V49.7727C169.458 49.6429 169.491 49.5481 169.555 49.4882C169.62 49.4233 169.715 49.3908 169.84 49.3908C169.96 49.3908 170.052 49.4233 170.117 49.4882C170.182 49.5481 170.214 49.6429 170.214 49.7727V52.7677C170.214 53.0223 170.092 53.1496 169.847 53.1496C169.733 53.1496 169.643 53.1171 169.578 53.0522C169.513 52.9824 169.481 52.8875 169.481 52.7677V52.1313L169.578 52.296C169.478 52.5755 169.318 52.7902 169.099 52.9399C168.879 53.0897 168.62 53.1646 168.32 53.1646ZM171.669 53.1496C171.55 53.1496 171.457 53.1171 171.392 53.0522C171.328 52.9824 171.295 52.8875 171.295 52.7677V49.7727C171.295 49.6479 171.328 49.553 171.392 49.4882C171.457 49.4233 171.547 49.3908 171.662 49.3908C171.782 49.3908 171.872 49.4233 171.932 49.4882C171.996 49.553 172.029 49.6479 172.029 49.7727V50.3867L171.947 50.2219C172.046 49.9574 172.201 49.7502 172.411 49.6005C172.62 49.4507 172.872 49.3758 173.167 49.3758C173.471 49.3758 173.719 49.4482 173.908 49.593C174.098 49.7377 174.228 49.9599 174.298 50.2594H174.193C174.288 49.9848 174.45 49.7702 174.679 49.6154C174.909 49.4557 175.176 49.3758 175.481 49.3758C175.76 49.3758 175.99 49.4307 176.17 49.5406C176.349 49.6454 176.484 49.8076 176.574 50.0273C176.664 50.2419 176.709 50.514 176.709 50.8434V52.7677C176.709 52.8875 176.674 52.9824 176.604 53.0522C176.539 53.1171 176.447 53.1496 176.327 53.1496C176.207 53.1496 176.115 53.1171 176.05 53.0522C175.985 52.9824 175.952 52.8875 175.952 52.7677V50.8808C175.952 50.5714 175.897 50.3442 175.788 50.1995C175.683 50.0547 175.508 49.9823 175.264 49.9823C174.989 49.9823 174.772 50.0772 174.612 50.2669C174.452 50.4565 174.372 50.7186 174.372 51.0531V52.7677C174.372 52.8875 174.34 52.9824 174.275 53.0522C174.21 53.1171 174.118 53.1496 173.998 53.1496C173.878 53.1496 173.783 53.1171 173.714 53.0522C173.649 52.9824 173.616 52.8875 173.616 52.7677V50.8808C173.616 50.5714 173.564 50.3442 173.459 50.1995C173.354 50.0547 173.179 49.9823 172.935 49.9823C172.66 49.9823 172.443 50.0772 172.283 50.2669C172.129 50.4565 172.051 50.7186 172.051 51.0531V52.7677C172.051 53.0223 171.924 53.1496 171.669 53.1496ZM179.728 53.1646C179.408 53.1646 179.131 53.0847 178.897 52.925C178.662 52.7602 178.505 52.5431 178.425 52.2735L178.507 52.1388V52.7677C178.507 52.8875 178.475 52.9824 178.41 53.0522C178.345 53.1171 178.255 53.1496 178.14 53.1496C178.021 53.1496 177.928 53.1171 177.863 53.0522C177.798 52.9824 177.766 52.8875 177.766 52.7677V48.1479C177.766 48.0231 177.798 47.9282 177.863 47.8633C177.928 47.7985 178.021 47.766 178.14 47.766C178.26 47.766 178.352 47.7985 178.417 47.8633C178.487 47.9282 178.522 48.0231 178.522 48.1479V50.2444H178.432C178.512 49.9798 178.669 49.7702 178.904 49.6154C179.139 49.4557 179.413 49.3758 179.728 49.3758C180.057 49.3758 180.342 49.4532 180.581 49.608C180.821 49.7627 181.006 49.9798 181.135 50.2594C181.27 50.5389 181.338 50.8759 181.338 51.2702C181.338 51.6546 181.27 51.9915 181.135 52.281C181.006 52.5655 180.818 52.7852 180.574 52.9399C180.334 53.0897 180.052 53.1646 179.728 53.1646ZM179.541 52.5805C179.75 52.5805 179.932 52.5306 180.087 52.4308C180.242 52.3309 180.362 52.1837 180.446 51.989C180.531 51.7943 180.574 51.5547 180.574 51.2702C180.574 50.8409 180.479 50.5164 180.289 50.2968C180.105 50.0772 179.855 49.9674 179.541 49.9674C179.336 49.9674 179.154 50.0173 178.994 50.1171C178.839 50.212 178.719 50.3567 178.635 50.5514C178.55 50.7461 178.507 50.9857 178.507 51.2702C178.507 51.6945 178.602 52.019 178.792 52.2436C178.981 52.4682 179.231 52.5805 179.541 52.5805ZM183.904 53.1646C183.505 53.1646 183.161 53.0897 182.871 52.9399C182.587 52.7852 182.364 52.568 182.205 52.2885C182.05 52.004 181.973 51.667 181.973 51.2777C181.973 50.8983 182.05 50.5664 182.205 50.2818C182.359 49.9973 182.572 49.7752 182.841 49.6154C183.111 49.4557 183.418 49.3758 183.762 49.3758C184.017 49.3758 184.244 49.4183 184.444 49.5031C184.643 49.583 184.813 49.7028 184.953 49.8625C185.097 50.0173 185.205 50.207 185.275 50.4316C185.35 50.6562 185.387 50.9083 185.387 51.1878C185.387 51.2727 185.362 51.3376 185.312 51.3825C185.262 51.4224 185.187 51.4424 185.087 51.4424H182.572V50.9782H184.878L184.751 51.083C184.751 50.8334 184.713 50.6213 184.638 50.4466C184.568 50.2719 184.461 50.1396 184.316 50.0497C184.176 49.9549 184.002 49.9075 183.792 49.9075C183.557 49.9075 183.358 49.9624 183.193 50.0722C183.033 50.182 182.911 50.3342 182.826 50.5289C182.741 50.7236 182.699 50.9507 182.699 51.2103V51.2552C182.699 51.6945 182.801 52.0264 183.006 52.2511C183.216 52.4707 183.518 52.5805 183.912 52.5805C184.062 52.5805 184.219 52.5606 184.384 52.5206C184.553 52.4807 184.713 52.4133 184.863 52.3185C184.948 52.2685 185.023 52.2461 185.087 52.2511C185.157 52.2561 185.212 52.2785 185.252 52.3185C185.297 52.3584 185.325 52.4083 185.335 52.4682C185.345 52.5281 185.335 52.5905 185.305 52.6554C185.275 52.7153 185.222 52.7702 185.147 52.8201C184.978 52.9349 184.78 53.0223 184.556 53.0822C184.331 53.1371 184.114 53.1646 183.904 53.1646ZM186.593 53.1496C186.468 53.1496 186.374 53.1171 186.309 53.0522C186.244 52.9824 186.211 52.8875 186.211 52.7677V49.7727C186.211 49.6479 186.244 49.553 186.309 49.4882C186.374 49.4233 186.463 49.3908 186.578 49.3908C186.698 49.3908 186.788 49.4233 186.848 49.4882C186.913 49.553 186.945 49.6479 186.945 49.7727V50.3193H186.87C186.95 50.0198 187.097 49.7926 187.312 49.6379C187.527 49.4832 187.801 49.3933 188.136 49.3684C188.226 49.3634 188.295 49.3858 188.345 49.4357C188.4 49.4857 188.43 49.563 188.435 49.6679C188.445 49.7727 188.423 49.8575 188.368 49.9224C188.313 49.9823 188.228 50.0173 188.113 50.0273L187.971 50.0422C187.647 50.0722 187.399 50.1745 187.23 50.3492C187.06 50.5239 186.975 50.7635 186.975 51.068V52.7677C186.975 52.8875 186.943 52.9824 186.878 53.0522C186.818 53.1171 186.723 53.1496 186.593 53.1496ZM190.248 53.1646C190.029 53.1646 189.802 53.1396 189.567 53.0897C189.337 53.0398 189.125 52.9549 188.931 52.8351C188.866 52.7902 188.821 52.7403 188.796 52.6854C188.771 52.6304 188.761 52.5755 188.766 52.5206C188.776 52.4607 188.798 52.4108 188.833 52.3709C188.873 52.3259 188.921 52.2985 188.976 52.2885C189.035 52.2785 189.098 52.291 189.163 52.3259C189.357 52.4358 189.545 52.5131 189.724 52.5581C189.904 52.598 190.081 52.618 190.256 52.618C190.52 52.618 190.72 52.5705 190.855 52.4757C190.99 52.3809 191.057 52.2536 191.057 52.0938C191.057 51.964 191.012 51.8642 190.922 51.7943C190.832 51.7195 190.698 51.662 190.518 51.6221L189.807 51.4798C189.497 51.415 189.263 51.3001 189.103 51.1354C188.943 50.9707 188.863 50.761 188.863 50.5065C188.863 50.2768 188.926 50.0772 189.05 49.9075C189.175 49.7377 189.35 49.608 189.575 49.5181C189.799 49.4233 190.059 49.3758 190.353 49.3758C190.573 49.3758 190.78 49.4033 190.975 49.4582C191.169 49.5131 191.349 49.5955 191.514 49.7053C191.579 49.7402 191.621 49.7877 191.641 49.8476C191.661 49.9025 191.664 49.9574 191.649 50.0123C191.639 50.0672 191.614 50.1171 191.574 50.162C191.534 50.202 191.484 50.2269 191.424 50.2369C191.369 50.2419 191.307 50.2269 191.237 50.192C191.087 50.0971 190.937 50.0298 190.788 49.9898C190.643 49.9499 190.498 49.9299 190.353 49.9299C190.089 49.9299 189.889 49.9798 189.754 50.0797C189.624 50.1745 189.56 50.3043 189.56 50.469C189.56 50.5938 189.6 50.6961 189.679 50.776C189.759 50.8559 189.884 50.9133 190.054 50.9482L190.765 51.0905C191.09 51.1554 191.334 51.2652 191.499 51.4199C191.669 51.5747 191.753 51.7843 191.753 52.0489C191.753 52.3933 191.616 52.6654 191.342 52.8651C191.067 53.0647 190.703 53.1646 190.248 53.1646ZM194.944 53.1496C194.824 53.1496 194.731 53.1171 194.666 53.0522C194.602 52.9824 194.569 52.8875 194.569 52.7677V48.1479C194.569 48.0231 194.602 47.9282 194.666 47.8633C194.731 47.7985 194.824 47.766 194.944 47.766C195.063 47.766 195.156 47.7985 195.221 47.8633C195.29 47.9282 195.325 48.0231 195.325 48.1479V50.2219H195.221C195.33 49.9424 195.503 49.7327 195.737 49.593C195.972 49.4482 196.241 49.3758 196.546 49.3758C196.835 49.3758 197.075 49.4307 197.265 49.5406C197.459 49.6454 197.604 49.8076 197.699 50.0273C197.794 50.2419 197.841 50.514 197.841 50.8434V52.7677C197.841 52.8875 197.809 52.9824 197.744 53.0522C197.679 53.1171 197.587 53.1496 197.467 53.1496C197.342 53.1496 197.247 53.1171 197.182 53.0522C197.117 52.9824 197.085 52.8875 197.085 52.7677V50.8883C197.085 50.5739 197.023 50.3442 196.898 50.1995C196.778 50.0547 196.588 49.9823 196.329 49.9823C196.024 49.9823 195.78 50.0772 195.595 50.2669C195.415 50.4565 195.325 50.7111 195.325 51.0306V52.7677C195.325 53.0223 195.198 53.1496 194.944 53.1496ZM200.598 53.1646C200.199 53.1646 199.854 53.0897 199.565 52.9399C199.28 52.7852 199.058 52.568 198.898 52.2885C198.743 52.004 198.666 51.667 198.666 51.2777C198.666 50.8983 198.743 50.5664 198.898 50.2818C199.053 49.9973 199.265 49.7752 199.535 49.6154C199.804 49.4557 200.111 49.3758 200.456 49.3758C200.71 49.3758 200.937 49.4183 201.137 49.5031C201.337 49.583 201.506 49.7028 201.646 49.8625C201.791 50.0173 201.898 50.207 201.968 50.4316C202.043 50.6562 202.08 50.9083 202.08 51.1878C202.08 51.2727 202.056 51.3376 202.006 51.3825C201.956 51.4224 201.881 51.4424 201.781 51.4424H199.265V50.9782H201.571L201.444 51.083C201.444 50.8334 201.407 50.6213 201.332 50.4466C201.262 50.2719 201.154 50.1396 201.01 50.0497C200.87 49.9549 200.695 49.9075 200.486 49.9075C200.251 49.9075 200.051 49.9624 199.887 50.0722C199.727 50.182 199.605 50.3342 199.52 50.5289C199.435 50.7236 199.392 50.9507 199.392 51.2103V51.2552C199.392 51.6945 199.495 52.0264 199.699 52.2511C199.909 52.4707 200.211 52.5805 200.605 52.5805C200.755 52.5805 200.912 52.5606 201.077 52.5206C201.247 52.4807 201.407 52.4133 201.556 52.3185C201.641 52.2685 201.716 52.2461 201.781 52.2511C201.851 52.2561 201.906 52.2785 201.946 52.3185C201.991 52.3584 202.018 52.4083 202.028 52.4682C202.038 52.5281 202.028 52.5905 201.998 52.6554C201.968 52.7153 201.916 52.7702 201.841 52.8201C201.671 52.9349 201.474 53.0223 201.249 53.0822C201.025 53.1371 200.808 53.1646 200.598 53.1646ZM203.287 53.1496C203.162 53.1496 203.067 53.1171 203.002 53.0522C202.937 52.9824 202.905 52.8875 202.905 52.7677V49.7727C202.905 49.6479 202.937 49.553 203.002 49.4882C203.067 49.4233 203.157 49.3908 203.272 49.3908C203.392 49.3908 203.481 49.4233 203.541 49.4882C203.606 49.553 203.639 49.6479 203.639 49.7727V50.3193H203.564C203.644 50.0198 203.791 49.7926 204.006 49.6379C204.22 49.4832 204.495 49.3933 204.829 49.3684C204.919 49.3634 204.989 49.3858 205.039 49.4357C205.094 49.4857 205.124 49.563 205.129 49.6679C205.139 49.7727 205.116 49.8575 205.061 49.9224C205.006 49.9823 204.922 50.0173 204.807 50.0273L204.664 50.0422C204.34 50.0722 204.093 50.1745 203.923 50.3492C203.754 50.5239 203.669 50.7635 203.669 51.068V52.7677C203.669 52.8875 203.636 52.9824 203.571 53.0522C203.511 53.1171 203.417 53.1496 203.287 53.1496ZM207.362 53.1646C206.962 53.1646 206.618 53.0897 206.328 52.9399C206.044 52.7852 205.822 52.568 205.662 52.2885C205.507 52.004 205.43 51.667 205.43 51.2777C205.43 50.8983 205.507 50.5664 205.662 50.2818C205.817 49.9973 206.029 49.7752 206.298 49.6154C206.568 49.4557 206.875 49.3758 207.219 49.3758C207.474 49.3758 207.701 49.4183 207.901 49.5031C208.1 49.583 208.27 49.7028 208.41 49.8625C208.555 50.0173 208.662 50.207 208.732 50.4316C208.807 50.6562 208.844 50.9083 208.844 51.1878C208.844 51.2727 208.819 51.3376 208.769 51.3825C208.719 51.4224 208.644 51.4424 208.545 51.4424H206.029V50.9782H208.335L208.208 51.083C208.208 50.8334 208.17 50.6213 208.095 50.4466C208.026 50.2719 207.918 50.1396 207.773 50.0497C207.634 49.9549 207.459 49.9075 207.249 49.9075C207.015 49.9075 206.815 49.9624 206.65 50.0722C206.491 50.182 206.368 50.3342 206.283 50.5289C206.199 50.7236 206.156 50.9507 206.156 51.2103V51.2552C206.156 51.6945 206.258 52.0264 206.463 52.2511C206.673 52.4707 206.975 52.5805 207.369 52.5805C207.519 52.5805 207.676 52.5606 207.841 52.5206C208.011 52.4807 208.17 52.4133 208.32 52.3185C208.405 52.2685 208.48 52.2461 208.545 52.2511C208.615 52.2561 208.669 52.2785 208.709 52.3185C208.754 52.3584 208.782 52.4083 208.792 52.4682C208.802 52.5281 208.792 52.5905 208.762 52.6554C208.732 52.7153 208.679 52.7702 208.605 52.8201C208.435 52.9349 208.238 53.0223 208.013 53.0822C207.788 53.1371 207.571 53.1646 207.362 53.1646Z" fill="#B5B5B5"/>
<rect x="107.527" y="40.3874" width="111.632" height="21.4199" rx="6.31099" stroke="#D8D1D8" stroke-width="0.601046"/>
</g>
</g>
<g filter="url(#filter1_dd_3980_8797)">
<rect x="65.6523" y="61.7593" width="226.599" height="56.4983" rx="5.99007" fill="white"/>
<path d="M90.1201 78.7119C90.2203 78.6824 90.2852 78.6824 90.3205 78.7178C90.3618 78.7473 90.3618 78.8003 90.3382 78.8887C90.3087 78.9713 90.2616 79.0479 90.1908 79.1187C90.1201 79.1776 90.0376 79.2189 89.9315 79.2542L86.7127 80.3861C86.6066 80.4274 86.5299 80.4274 86.4828 80.3861C86.4474 80.3331 86.4415 80.2564 86.4769 80.1562C86.5182 80.0501 86.5948 79.9322 86.7127 79.8025L90.521 76.0119L88.2336 76.4246C88.1393 76.4422 88.0804 76.4305 88.045 76.3892C88.0214 76.342 88.0273 76.2831 88.0627 76.1946C88.104 76.1003 88.157 76.0178 88.2278 75.9588C88.3044 75.8881 88.3869 75.8468 88.4754 75.835L91.2343 75.4519C91.3286 75.446 91.4053 75.4636 91.4465 75.5167C91.4878 75.558 91.4996 75.6169 91.4701 75.6936C91.4406 75.7702 91.3758 75.8527 91.2873 75.9353L87.5498 79.5372L90.1201 78.7119ZM91.7236 78.8357C91.6057 78.8593 91.5232 78.8475 91.476 78.8003C91.4229 78.7532 91.4229 78.6765 91.4583 78.5763C91.4583 78.5763 91.8592 77.3914 92.3249 76.2949C92.6727 75.2219 92.6373 74.0901 92.6373 74.0901C92.6256 74.0016 92.6432 73.9309 92.6963 73.8837C92.7435 73.8307 92.8201 73.8071 92.9203 73.8189C93.0146 73.8307 93.0972 73.8719 93.1679 73.9368C93.2386 73.9957 93.274 74.0665 93.2858 74.1608C93.2858 74.1608 93.333 75.2573 93.0323 76.289C92.5784 77.3383 92.2011 78.4643 92.2011 78.4643C92.1716 78.5645 92.1127 78.647 92.0301 78.7119C91.9417 78.7767 91.8356 78.818 91.7236 78.8357ZM96.4692 75.3693C96.1685 75.2632 95.9445 75.2691 95.7972 75.3516C95.6439 75.4283 95.579 75.5874 95.5731 75.8291L95.5555 76.0237L96.4928 76.3951C96.5812 76.4422 96.652 76.5012 96.6932 76.5719C96.7345 76.6309 96.7463 76.6957 96.7286 76.7547C96.7168 76.8195 96.6814 76.8549 96.6225 76.8549C96.5635 76.8608 96.481 76.8431 96.3926 76.796L95.4611 76.4069L94.8068 78.7119C94.7891 78.7944 94.736 78.8534 94.6417 78.8828C94.5533 78.9182 94.4531 78.9241 94.3293 78.9123C94.2055 78.8946 94.1111 78.8652 94.0345 78.8121C93.9755 78.7532 93.952 78.6824 93.9755 78.594L94.7655 76.2064L94.2114 76.0414C94.117 76.0119 94.0463 75.9765 94.005 75.9294C93.9638 75.8763 93.952 75.8233 93.9697 75.7643C93.9814 75.6995 94.0168 75.6523 94.0699 75.6346C94.1347 75.611 94.2114 75.611 94.3057 75.6405L94.8598 75.8174L94.8716 75.7053C94.8834 75.3281 94.9836 75.0628 95.2135 74.9331C95.4317 74.7975 95.7913 74.7857 96.2806 74.8977L96.4928 74.9626C96.6461 75.0156 96.7463 75.0746 96.8111 75.1394C96.8819 75.2043 96.929 75.2868 96.9467 75.3693C96.9644 75.5108 96.8819 75.5403 96.6873 75.4578L96.4692 75.3693ZM102.577 80.2918C102.683 80.3154 102.783 80.3507 102.865 80.392C102.96 80.4392 103.013 80.4863 103.031 80.5276C103.06 80.5983 102.907 80.616 102.571 80.5865C102.217 80.563 101.84 80.5335 101.445 80.4863C101.044 80.4392 100.655 80.3861 100.283 80.3154C99.1928 80.0914 98.3557 79.7907 97.7661 79.3957C97.2002 79.0066 96.9526 78.6058 96.9644 78.1695C96.9762 77.8866 97.0941 77.6743 97.3004 77.5387C97.495 77.3973 97.7661 77.3383 98.1081 77.3619C98.4677 77.3914 98.8862 77.5034 99.3696 77.6979C100.083 77.9514 100.731 78.258 101.303 78.6117C101.905 78.9595 102.329 79.3132 102.559 79.6551C102.6 79.72 102.594 79.7612 102.547 79.773C102.494 79.7848 102.382 79.773 102.223 79.7435L97.9253 78.5645C98.0491 79.1835 98.7919 79.6787 100.236 80.0088C100.608 80.0914 100.944 80.1444 101.209 80.1739C101.486 80.1975 101.775 80.221 102.081 80.2387C102.323 80.2505 102.488 80.2682 102.577 80.2918ZM99.4934 78.0693C99.0041 77.8866 98.6327 77.8217 98.3674 77.863C98.0963 77.9042 97.9489 78.0575 97.9253 78.2992L101.574 79.378C101.415 79.1187 101.15 78.8828 100.784 78.6647C100.425 78.4348 99.9886 78.2403 99.4934 78.0693ZM110.394 82.3846C110.5 82.4258 110.594 82.4789 110.671 82.5437C110.759 82.6086 110.812 82.6734 110.836 82.7383L111.225 84.218C111.242 84.3123 111.225 84.3712 111.172 84.3948C111.13 84.4243 111.042 84.4184 110.906 84.3889C110.624 84.33 110.276 84.2239 109.851 84.0588C109.439 83.8996 109.014 83.711 108.584 83.4988C107.77 83.0861 107.039 82.6263 106.408 82.1841C105.766 81.7479 105.229 81.3117 104.793 80.8813C104.333 80.4745 103.986 80.0737 103.744 79.6905C103.484 79.3132 103.426 79.0361 103.573 78.8593C103.703 78.6588 104.015 78.5527 104.516 78.5645C104.976 78.5645 105.613 78.6883 106.432 78.9772C106.986 79.1658 107.523 79.3898 108.036 79.6669C108.548 79.9499 109.026 80.2505 109.45 80.5748C109.633 80.7103 109.751 80.8224 109.816 80.9167C109.863 80.9874 109.875 81.0405 109.851 81.07C109.828 81.0994 109.775 81.0935 109.68 81.0523C109.598 81.0169 109.48 80.9462 109.327 80.84C108.825 80.4981 108.389 80.2269 108.03 80.0324C107.658 79.8261 107.269 79.6492 106.839 79.49C105.866 79.1363 105.241 79.0597 104.917 79.1835C104.569 79.2837 104.563 79.5844 104.888 80.0914C105.147 80.5924 105.565 81.0935 106.179 81.5946C106.774 82.1134 107.564 82.6263 108.537 83.1156C109.238 83.4575 109.857 83.6992 110.405 83.8466L110.081 82.5968L108.407 81.8422C108.277 81.7833 108.159 81.7125 108.065 81.6418C107.971 81.5769 107.912 81.5121 107.888 81.459C107.859 81.4001 107.876 81.3706 107.947 81.3765C108.012 81.3765 108.112 81.406 108.248 81.459L110.394 82.3846ZM115.086 79.3073C115.175 79.2307 115.251 79.2071 115.322 79.2424C115.393 79.2542 115.452 79.3191 115.499 79.4252C115.499 79.4252 116.312 80.728 117.155 81.9365C117.845 83.0625 118.24 84.218 118.24 84.218C118.264 84.3064 118.258 84.3889 118.228 84.4715C118.199 84.554 118.146 84.6188 118.063 84.6719C117.987 84.7191 117.922 84.725 117.869 84.6955C117.816 84.666 117.78 84.6129 117.763 84.5245L115.782 80.8577L116.071 84.4066C116.023 84.5422 115.935 84.6129 115.794 84.6247C115.658 84.6365 115.54 84.5894 115.434 84.4774L112.504 82.0544L113.63 85.0905C113.642 85.1612 113.618 85.2143 113.559 85.2555C113.506 85.2968 113.424 85.3204 113.306 85.3145C113.2 85.3086 113.105 85.2791 113.041 85.2319C112.97 85.1789 112.934 85.1199 112.923 85.0433C112.923 85.0433 112.763 84.0883 112.475 83.1333C111.938 82.1134 111.201 80.9933 111.201 80.9933C111.136 80.899 111.125 80.8341 111.154 80.7988C111.184 80.7575 111.26 80.7575 111.384 80.7929C111.537 80.84 111.714 80.9344 111.903 81.0994L115.67 84.0411L114.992 79.7907C114.962 79.6728 114.962 79.5726 114.974 79.5077C114.992 79.4252 115.033 79.3604 115.086 79.3073Z" fill="black"/>
<path d="M90.7286 103.127C90.5938 103.127 90.489 103.092 90.4141 103.023C90.3442 102.948 90.3093 102.843 90.3093 102.708V98.268C90.3093 98.1332 90.3442 98.0309 90.4141 97.961C90.489 97.8861 90.5938 97.8487 90.7286 97.8487H93.4616C93.5664 97.8487 93.6463 97.8761 93.7012 97.9311C93.7561 97.981 93.7835 98.0559 93.7835 98.1557C93.7835 98.2605 93.7561 98.3404 93.7012 98.3953C93.6463 98.4502 93.5664 98.4777 93.4616 98.4777H91.0581V100.132H93.2968C93.4067 100.132 93.4865 100.16 93.5364 100.215C93.5914 100.27 93.6188 100.347 93.6188 100.447C93.6188 100.552 93.5914 100.632 93.5364 100.686C93.4865 100.736 93.4067 100.761 93.2968 100.761H91.0581V102.498H93.4616C93.5664 102.498 93.6463 102.526 93.7012 102.581C93.7561 102.636 93.7835 102.713 93.7835 102.813C93.7835 102.918 93.7561 102.998 93.7012 103.053C93.6463 103.102 93.5664 103.127 93.4616 103.127H90.7286ZM95.0105 103.18C94.8907 103.18 94.7984 103.147 94.7335 103.083C94.6686 103.013 94.6361 102.918 94.6361 102.798V99.803C94.6361 99.6782 94.6686 99.5833 94.7335 99.5184C94.7984 99.4535 94.8882 99.4211 95.003 99.4211C95.1228 99.4211 95.2127 99.4535 95.2726 99.5184C95.3375 99.5833 95.3699 99.6782 95.3699 99.803V100.387L95.2875 100.252C95.3974 99.9727 95.5696 99.763 95.8042 99.6233C96.0388 99.4785 96.3084 99.4061 96.6128 99.4061C96.9024 99.4061 97.142 99.461 97.3317 99.5708C97.5263 99.6757 97.6711 99.8379 97.7659 100.058C97.8608 100.272 97.9082 100.544 97.9082 100.874V102.798C97.9082 102.918 97.8758 103.013 97.8109 103.083C97.746 103.147 97.6536 103.18 97.5338 103.18C97.409 103.18 97.3142 103.147 97.2493 103.083C97.1844 103.013 97.152 102.918 97.152 102.798V100.919C97.152 100.604 97.0896 100.375 96.9648 100.23C96.845 100.085 96.6553 100.013 96.3957 100.013C96.0912 100.013 95.8466 100.107 95.6619 100.297C95.4822 100.487 95.3924 100.741 95.3924 101.061V102.798C95.3924 103.053 95.2651 103.18 95.0105 103.18ZM100.508 103.195C100.208 103.195 99.9561 103.142 99.7514 103.038C99.5468 102.933 99.3945 102.778 99.2947 102.573C99.1949 102.369 99.1449 102.119 99.1449 101.825V100.058H98.6957C98.5958 100.058 98.5185 100.033 98.4636 99.9827C98.4087 99.9277 98.3812 99.8554 98.3812 99.7655C98.3812 99.6707 98.4087 99.5983 98.4636 99.5484C98.5185 99.4985 98.5958 99.4735 98.6957 99.4735H99.1449V98.7023C99.1449 98.5775 99.1774 98.4826 99.2423 98.4178C99.3122 98.3529 99.407 98.3204 99.5268 98.3204C99.6466 98.3204 99.7389 98.3529 99.8038 98.4178C99.8687 98.4826 99.9012 98.5775 99.9012 98.7023V99.4735H100.777C100.877 99.4735 100.954 99.4985 101.009 99.5484C101.064 99.5983 101.092 99.6707 101.092 99.7655C101.092 99.8554 101.064 99.9277 101.009 99.9827C100.954 100.033 100.877 100.058 100.777 100.058H99.9012V101.765C99.9012 102.029 99.9561 102.229 100.066 102.364C100.181 102.498 100.365 102.566 100.62 102.566C100.71 102.566 100.787 102.558 100.852 102.543C100.922 102.523 100.979 102.511 101.024 102.506C101.079 102.506 101.124 102.526 101.159 102.566C101.194 102.601 101.212 102.671 101.212 102.776C101.212 102.85 101.197 102.92 101.167 102.985C101.142 103.05 101.094 103.092 101.024 103.112C100.964 103.132 100.882 103.15 100.777 103.165C100.677 103.185 100.588 103.195 100.508 103.195ZM103.363 103.195C102.964 103.195 102.619 103.12 102.33 102.97C102.045 102.815 101.823 102.598 101.663 102.319C101.509 102.034 101.431 101.697 101.431 101.308C101.431 100.929 101.509 100.597 101.663 100.312C101.818 100.028 102.03 99.8055 102.3 99.6457C102.569 99.486 102.876 99.4061 103.221 99.4061C103.475 99.4061 103.703 99.4485 103.902 99.5334C104.102 99.6133 104.272 99.7331 104.411 99.8928C104.556 100.048 104.663 100.237 104.733 100.462C104.808 100.686 104.846 100.939 104.846 101.218C104.846 101.303 104.821 101.368 104.771 101.413C104.721 101.453 104.646 101.473 104.546 101.473H102.03V101.008H104.336L104.209 101.113C104.209 100.864 104.172 100.652 104.097 100.477C104.027 100.302 103.92 100.17 103.775 100.08C103.635 99.9852 103.46 99.9377 103.251 99.9377C103.016 99.9377 102.816 99.9926 102.652 100.102C102.492 100.212 102.37 100.365 102.285 100.559C102.2 100.754 102.158 100.981 102.158 101.241V101.285C102.158 101.725 102.26 102.057 102.465 102.281C102.674 102.501 102.976 102.611 103.371 102.611C103.52 102.611 103.678 102.591 103.842 102.551C104.012 102.511 104.172 102.444 104.321 102.349C104.406 102.299 104.481 102.276 104.546 102.281C104.616 102.286 104.671 102.309 104.711 102.349C104.756 102.389 104.783 102.439 104.793 102.498C104.803 102.558 104.793 102.621 104.763 102.686C104.733 102.746 104.681 102.8 104.606 102.85C104.436 102.965 104.239 103.053 104.014 103.112C103.79 103.167 103.573 103.195 103.363 103.195ZM106.052 103.18C105.927 103.18 105.832 103.147 105.767 103.083C105.703 103.013 105.67 102.918 105.67 102.798V99.803C105.67 99.6782 105.703 99.5833 105.767 99.5184C105.832 99.4535 105.922 99.4211 106.037 99.4211C106.157 99.4211 106.247 99.4535 106.307 99.5184C106.371 99.5833 106.404 99.6782 106.404 99.803V100.35H106.329C106.409 100.05 106.556 99.8229 106.771 99.6682C106.985 99.5134 107.26 99.4236 107.594 99.3986C107.684 99.3936 107.754 99.4161 107.804 99.466C107.859 99.5159 107.889 99.5933 107.894 99.6981C107.904 99.803 107.881 99.8878 107.826 99.9527C107.772 100.013 107.687 100.048 107.572 100.058L107.43 100.073C107.105 100.102 106.858 100.205 106.688 100.379C106.519 100.554 106.434 100.794 106.434 101.098V102.798C106.434 102.918 106.401 103.013 106.336 103.083C106.277 103.147 106.182 103.18 106.052 103.18ZM111.995 103.195C111.695 103.195 111.443 103.142 111.239 103.038C111.034 102.933 110.882 102.778 110.782 102.573C110.682 102.369 110.632 102.119 110.632 101.825V100.058H110.183C110.083 100.058 110.006 100.033 109.951 99.9827C109.896 99.9277 109.868 99.8554 109.868 99.7655C109.868 99.6707 109.896 99.5983 109.951 99.5484C110.006 99.4985 110.083 99.4735 110.183 99.4735H110.632V98.7023C110.632 98.5775 110.665 98.4826 110.73 98.4178C110.799 98.3529 110.894 98.3204 111.014 98.3204C111.134 98.3204 111.226 98.3529 111.291 98.4178C111.356 98.4826 111.388 98.5775 111.388 98.7023V99.4735H112.265C112.364 99.4735 112.442 99.4985 112.497 99.5484C112.552 99.5983 112.579 99.6707 112.579 99.7655C112.579 99.8554 112.552 99.9277 112.497 99.9827C112.442 100.033 112.364 100.058 112.265 100.058H111.388V101.765C111.388 102.029 111.443 102.229 111.553 102.364C111.668 102.498 111.853 102.566 112.107 102.566C112.197 102.566 112.275 102.558 112.339 102.543C112.409 102.523 112.467 102.511 112.512 102.506C112.567 102.506 112.611 102.526 112.646 102.566C112.681 102.601 112.699 102.671 112.699 102.776C112.699 102.85 112.684 102.92 112.654 102.985C112.629 103.05 112.582 103.092 112.512 103.112C112.452 103.132 112.369 103.15 112.265 103.165C112.165 103.185 112.075 103.195 111.995 103.195ZM114.85 103.195C114.451 103.195 114.107 103.12 113.817 102.97C113.533 102.815 113.31 102.598 113.151 102.319C112.996 102.034 112.919 101.697 112.919 101.308C112.919 100.929 112.996 100.597 113.151 100.312C113.305 100.028 113.518 99.8055 113.787 99.6457C114.057 99.486 114.364 99.4061 114.708 99.4061C114.963 99.4061 115.19 99.4485 115.389 99.5334C115.589 99.6133 115.759 99.7331 115.899 99.8928C116.043 100.048 116.151 100.237 116.221 100.462C116.295 100.686 116.333 100.939 116.333 101.218C116.333 101.303 116.308 101.368 116.258 101.413C116.208 101.453 116.133 101.473 116.033 101.473H113.518V101.008H115.824L115.696 101.113C115.696 100.864 115.659 100.652 115.584 100.477C115.514 100.302 115.407 100.17 115.262 100.08C115.122 99.9852 114.948 99.9377 114.738 99.9377C114.503 99.9377 114.304 99.9926 114.139 100.102C113.979 100.212 113.857 100.365 113.772 100.559C113.687 100.754 113.645 100.981 113.645 101.241V101.285C113.645 101.725 113.747 102.057 113.952 102.281C114.162 102.501 114.464 102.611 114.858 102.611C115.008 102.611 115.165 102.591 115.33 102.551C115.499 102.511 115.659 102.444 115.809 102.349C115.894 102.299 115.969 102.276 116.033 102.281C116.103 102.286 116.158 102.309 116.198 102.349C116.243 102.389 116.271 102.439 116.281 102.498C116.29 102.558 116.281 102.621 116.251 102.686C116.221 102.746 116.168 102.8 116.093 102.85C115.924 102.965 115.726 103.053 115.502 103.112C115.277 103.167 115.06 103.195 114.85 103.195ZM117.255 103.172C117.166 103.172 117.091 103.147 117.031 103.097C116.976 103.043 116.946 102.975 116.941 102.895C116.941 102.815 116.976 102.728 117.046 102.633L118.311 101.053V101.428L117.128 99.9527C117.048 99.8629 117.011 99.778 117.016 99.6981C117.021 99.6133 117.053 99.5459 117.113 99.496C117.173 99.446 117.245 99.4211 117.33 99.4211C117.425 99.4211 117.502 99.4386 117.562 99.4735C117.627 99.5035 117.687 99.5559 117.742 99.6307L118.738 100.896H118.468L119.472 99.6307C119.527 99.5559 119.584 99.5035 119.644 99.4735C119.709 99.4386 119.786 99.4211 119.876 99.4211C119.966 99.4211 120.038 99.4485 120.093 99.5035C120.153 99.5534 120.183 99.6208 120.183 99.7056C120.188 99.7855 120.153 99.8703 120.078 99.9602L118.895 101.413V101.076L120.161 102.633C120.235 102.723 120.27 102.81 120.265 102.895C120.265 102.975 120.235 103.043 120.176 103.097C120.116 103.147 120.041 103.172 119.951 103.172C119.861 103.172 119.784 103.155 119.719 103.12C119.659 103.085 119.599 103.033 119.539 102.963L118.468 101.615H118.723L117.66 102.963C117.605 103.028 117.545 103.08 117.48 103.12C117.42 103.155 117.345 103.172 117.255 103.172ZM122.685 103.195C122.386 103.195 122.134 103.142 121.929 103.038C121.724 102.933 121.572 102.778 121.472 102.573C121.372 102.369 121.323 102.119 121.323 101.825V100.058H120.873C120.773 100.058 120.696 100.033 120.641 99.9827C120.586 99.9277 120.559 99.8554 120.559 99.7655C120.559 99.6707 120.586 99.5983 120.641 99.5484C120.696 99.4985 120.773 99.4735 120.873 99.4735H121.323V98.7023C121.323 98.5775 121.355 98.4826 121.42 98.4178C121.49 98.3529 121.585 98.3204 121.704 98.3204C121.824 98.3204 121.917 98.3529 121.981 98.4178C122.046 98.4826 122.079 98.5775 122.079 98.7023V99.4735H122.955C123.055 99.4735 123.132 99.4985 123.187 99.5484C123.242 99.5983 123.269 99.6707 123.269 99.7655C123.269 99.8554 123.242 99.9277 123.187 99.9827C123.132 100.033 123.055 100.058 122.955 100.058H122.079V101.765C122.079 102.029 122.134 102.229 122.243 102.364C122.358 102.498 122.543 102.566 122.798 102.566C122.887 102.566 122.965 102.558 123.03 102.543C123.1 102.523 123.157 102.511 123.202 102.506C123.257 102.506 123.302 102.526 123.337 102.566C123.372 102.601 123.389 102.671 123.389 102.776C123.389 102.85 123.374 102.92 123.344 102.985C123.319 103.05 123.272 103.092 123.202 103.112C123.142 103.132 123.06 103.15 122.955 103.165C122.855 103.185 122.765 103.195 122.685 103.195Z" fill="#B5B5B5"/>
<rect x="80.3786" y="90.3088" width="116.002" height="21.6377" rx="4.50785" stroke="#D8D1D8" stroke-width="0.601046"/>
<path d="M251.124 85.8118C254 89.6015 256.081 90.1862 260.858 87.7253L265.933 92.717C257.966 97.9409 253.543 98.4203 245.799 91.0531L243.387 93.6321V83.3159H253.453L251.124 85.8118Z" fill="#C3C3C3"/>
<path d="M267.261 75.3296C263.693 71.0075 261.223 70.445 256.695 69.9219V77.0767C259.173 77.467 260.421 78.016 261.937 80.6541L259.607 83.0667H269.591V72.8337L267.261 75.3296Z" fill="#B569B5"/>
<path d="M254.202 77.7422C251.752 79.1724 251.002 80.3974 250.625 83.2331H243.387C243.798 78.3623 244.983 76.0066 248.878 72.5009L246.465 69.9219H256.698V80.2381L254.202 77.7422Z" fill="#C97BC9"/>
<path d="M236.062 106.665C235.937 106.665 235.842 106.633 235.777 106.568C235.713 106.498 235.68 106.403 235.68 106.283V103.288C235.68 103.164 235.713 103.069 235.777 103.004C235.842 102.939 235.932 102.906 236.047 102.906C236.167 102.906 236.257 102.939 236.317 103.004C236.381 103.069 236.414 103.164 236.414 103.288V103.835H236.339C236.419 103.535 236.566 103.308 236.781 103.154C236.995 102.999 237.27 102.909 237.604 102.884C237.694 102.879 237.764 102.901 237.814 102.951C237.869 103.001 237.899 103.079 237.904 103.183C237.914 103.288 237.891 103.373 237.836 103.438C237.782 103.498 237.697 103.533 237.582 103.543L237.44 103.558C237.115 103.588 236.868 103.69 236.698 103.865C236.529 104.04 236.444 104.279 236.444 104.584V106.283C236.444 106.403 236.411 106.498 236.346 106.568C236.287 106.633 236.192 106.665 236.062 106.665ZM240.137 106.68C239.737 106.68 239.393 106.605 239.103 106.456C238.819 106.301 238.597 106.084 238.437 105.804C238.282 105.52 238.205 105.183 238.205 104.793C238.205 104.414 238.282 104.082 238.437 103.797C238.592 103.513 238.804 103.291 239.074 103.131C239.343 102.971 239.65 102.891 239.994 102.891C240.249 102.891 240.476 102.934 240.676 103.019C240.876 103.099 241.045 103.218 241.185 103.378C241.33 103.533 241.437 103.723 241.507 103.947C241.582 104.172 241.619 104.424 241.619 104.703C241.619 104.788 241.594 104.853 241.544 104.898C241.494 104.938 241.42 104.958 241.32 104.958H238.804V104.494H241.11L240.983 104.599C240.983 104.349 240.945 104.137 240.871 103.962C240.801 103.787 240.693 103.655 240.549 103.565C240.409 103.471 240.234 103.423 240.024 103.423C239.79 103.423 239.59 103.478 239.425 103.588C239.266 103.698 239.143 103.85 239.059 104.045C238.974 104.239 238.931 104.466 238.931 104.726V104.771C238.931 105.21 239.034 105.542 239.238 105.767C239.448 105.986 239.75 106.096 240.144 106.096C240.294 106.096 240.451 106.076 240.616 106.036C240.786 105.996 240.945 105.929 241.095 105.834C241.18 105.784 241.255 105.762 241.32 105.767C241.39 105.772 241.445 105.794 241.485 105.834C241.529 105.874 241.557 105.924 241.567 105.984C241.577 106.044 241.567 106.106 241.537 106.171C241.507 106.231 241.455 106.286 241.38 106.336C241.21 106.451 241.013 106.538 240.788 106.598C240.564 106.653 240.346 106.68 240.137 106.68ZM244.892 106.68C244.358 106.68 243.901 106.57 243.522 106.351C243.143 106.131 242.851 105.819 242.646 105.415C242.446 105.005 242.346 104.524 242.346 103.97C242.346 103.555 242.404 103.183 242.519 102.854C242.633 102.52 242.798 102.235 243.013 102C243.232 101.761 243.499 101.579 243.814 101.454C244.133 101.329 244.493 101.267 244.892 101.267C245.187 101.267 245.469 101.307 245.738 101.386C246.013 101.466 246.25 101.581 246.45 101.731C246.534 101.786 246.589 101.853 246.614 101.933C246.644 102.008 246.649 102.08 246.629 102.15C246.614 102.22 246.582 102.28 246.532 102.33C246.482 102.375 246.417 102.4 246.337 102.405C246.262 102.41 246.18 102.382 246.09 102.322C245.925 102.198 245.743 102.105 245.544 102.045C245.344 101.985 245.134 101.956 244.915 101.956C244.535 101.956 244.216 102.035 243.956 102.195C243.697 102.35 243.499 102.577 243.365 102.876C243.23 103.176 243.163 103.54 243.163 103.97C243.163 104.399 243.23 104.766 243.365 105.07C243.499 105.37 243.697 105.599 243.956 105.759C244.216 105.914 244.535 105.991 244.915 105.991C245.134 105.991 245.344 105.961 245.544 105.901C245.748 105.837 245.94 105.742 246.12 105.617C246.21 105.562 246.29 105.537 246.36 105.542C246.435 105.547 246.497 105.572 246.547 105.617C246.597 105.662 246.629 105.719 246.644 105.789C246.664 105.854 246.662 105.924 246.637 105.999C246.617 106.069 246.569 106.129 246.495 106.179C246.29 106.343 246.048 106.468 245.768 106.553C245.489 106.638 245.197 106.68 244.892 106.68ZM247.439 106.665C247.339 106.665 247.259 106.643 247.2 106.598C247.14 106.553 247.105 106.493 247.095 106.418C247.085 106.343 247.1 106.258 247.14 106.164L249.169 101.611C249.219 101.491 249.281 101.406 249.356 101.357C249.436 101.307 249.523 101.282 249.618 101.282C249.708 101.282 249.79 101.307 249.865 101.357C249.945 101.406 250.01 101.491 250.06 101.611L252.089 106.164C252.134 106.258 252.151 106.346 252.141 106.426C252.131 106.5 252.099 106.56 252.044 106.605C251.989 106.645 251.912 106.665 251.812 106.665C251.702 106.665 251.615 106.638 251.55 106.583C251.485 106.528 251.428 106.443 251.378 106.328L250.853 105.115L251.205 105.325H248.016L248.36 105.115L247.843 106.328C247.794 106.448 247.739 106.535 247.679 106.59C247.619 106.64 247.539 106.665 247.439 106.665ZM249.603 102.195L248.472 104.876L248.285 104.696H250.928L250.756 104.876L249.618 102.195H249.603ZM253.372 106.665C253.247 106.665 253.15 106.63 253.08 106.56C253.015 106.49 252.982 106.393 252.982 106.268V101.731C252.982 101.601 253.017 101.504 253.087 101.439C253.157 101.369 253.254 101.334 253.379 101.334H255.169C255.738 101.334 256.177 101.476 256.487 101.761C256.796 102.04 256.951 102.435 256.951 102.944C256.951 103.458 256.796 103.857 256.487 104.142C256.177 104.421 255.738 104.561 255.169 104.561H253.761V106.268C253.761 106.393 253.729 106.49 253.664 106.56C253.599 106.63 253.502 106.665 253.372 106.665ZM253.761 103.94H255.056C255.431 103.94 255.713 103.857 255.903 103.693C256.097 103.523 256.195 103.273 256.195 102.944C256.195 102.619 256.097 102.375 255.903 102.21C255.713 102.04 255.431 101.956 255.056 101.956H253.761V103.94ZM259.325 106.665C259.2 106.665 259.103 106.63 259.033 106.56C258.968 106.49 258.935 106.393 258.935 106.268V101.985H257.348C257.243 101.985 257.161 101.958 257.101 101.903C257.041 101.843 257.011 101.761 257.011 101.656C257.011 101.551 257.041 101.471 257.101 101.416C257.161 101.362 257.243 101.334 257.348 101.334H261.294C261.404 101.334 261.489 101.362 261.549 101.416C261.608 101.471 261.638 101.551 261.638 101.656C261.638 101.761 261.608 101.843 261.549 101.903C261.489 101.958 261.404 101.985 261.294 101.985H259.707V106.268C259.707 106.393 259.674 106.49 259.609 106.56C259.549 106.63 259.455 106.665 259.325 106.665ZM264.262 106.68C263.728 106.68 263.271 106.57 262.892 106.351C262.512 106.131 262.22 105.819 262.016 105.415C261.816 105.005 261.716 104.524 261.716 103.97C261.716 103.555 261.774 103.183 261.888 102.854C262.003 102.52 262.168 102.235 262.383 102C262.602 101.761 262.869 101.579 263.184 101.454C263.503 101.329 263.863 101.267 264.262 101.267C264.556 101.267 264.838 101.307 265.108 101.386C265.383 101.466 265.62 101.581 265.819 101.731C265.904 101.786 265.959 101.853 265.984 101.933C266.014 102.008 266.019 102.08 265.999 102.15C265.984 102.22 265.952 102.28 265.902 102.33C265.852 102.375 265.787 102.4 265.707 102.405C265.632 102.41 265.55 102.382 265.46 102.322C265.295 102.198 265.113 102.105 264.913 102.045C264.714 101.985 264.504 101.956 264.284 101.956C263.905 101.956 263.586 102.035 263.326 102.195C263.066 102.35 262.869 102.577 262.734 102.876C262.6 103.176 262.532 103.54 262.532 103.97C262.532 104.399 262.6 104.766 262.734 105.07C262.869 105.37 263.066 105.599 263.326 105.759C263.586 105.914 263.905 105.991 264.284 105.991C264.504 105.991 264.714 105.961 264.913 105.901C265.118 105.837 265.31 105.742 265.49 105.617C265.58 105.562 265.66 105.537 265.729 105.542C265.804 105.547 265.867 105.572 265.917 105.617C265.967 105.662 265.999 105.719 266.014 105.789C266.034 105.854 266.031 105.924 266.007 105.999C265.987 106.069 265.939 106.129 265.864 106.179C265.66 106.343 265.418 106.468 265.138 106.553C264.858 106.638 264.566 106.68 264.262 106.68ZM267.345 106.665C267.22 106.665 267.123 106.63 267.053 106.56C266.988 106.49 266.956 106.393 266.956 106.268V101.678C266.956 101.549 266.988 101.451 267.053 101.386C267.123 101.317 267.22 101.282 267.345 101.282C267.47 101.282 267.565 101.317 267.63 101.386C267.7 101.451 267.735 101.549 267.735 101.678V103.61H270.692V101.678C270.692 101.549 270.725 101.451 270.789 101.386C270.859 101.317 270.957 101.282 271.081 101.282C271.206 101.282 271.301 101.317 271.366 101.386C271.431 101.451 271.463 101.549 271.463 101.678V106.268C271.463 106.393 271.431 106.49 271.366 106.56C271.301 106.63 271.206 106.665 271.081 106.665C270.957 106.665 270.859 106.63 270.789 106.56C270.725 106.49 270.692 106.393 270.692 106.268V104.262H267.735V106.268C267.735 106.393 267.702 106.49 267.637 106.56C267.572 106.63 267.475 106.665 267.345 106.665ZM272.666 106.665C272.566 106.665 272.486 106.643 272.426 106.598C272.366 106.553 272.331 106.493 272.321 106.418C272.311 106.343 272.326 106.258 272.366 106.164L274.395 101.611C274.445 101.491 274.508 101.406 274.583 101.357C274.663 101.307 274.75 101.282 274.845 101.282C274.935 101.282 275.017 101.307 275.092 101.357C275.172 101.406 275.237 101.491 275.287 101.611L277.316 106.164C277.361 106.258 277.378 106.346 277.368 106.426C277.358 106.5 277.326 106.56 277.271 106.605C277.216 106.645 277.138 106.665 277.039 106.665C276.929 106.665 276.841 106.638 276.777 106.583C276.712 106.528 276.654 106.443 276.604 106.328L276.08 105.115L276.432 105.325H273.242L273.587 105.115L273.07 106.328C273.02 106.448 272.965 106.535 272.905 106.59C272.846 106.64 272.766 106.665 272.666 106.665ZM274.83 102.195L273.699 104.876L273.512 104.696H276.155L275.983 104.876L274.845 102.195H274.83Z" fill="#797979"/>
</g>
<path d="M23.6647 111.912L27.174 107.665C27.8149 106.89 29.0578 107.116 29.3845 108.067L31.1493 113.208C31.3404 113.765 31.8848 114.121 32.4716 114.073L39.333 113.515C40.499 113.42 41.1772 114.804 40.3878 115.667L35.7776 120.71C35.3415 121.187 34.6194 121.267 34.0896 120.896L23.9197 113.788C23.3033 113.357 23.1857 112.492 23.6647 111.912Z" fill="#B39BFD"/>
<path d="M40.5883 112.015L30.1508 105.918C29.7066 105.659 29.1804 106.095 29.3524 106.579L31.7066 113.213C31.7893 113.446 32.0166 113.595 32.2632 113.579L40.3466 113.042C40.8894 113.006 41.0581 112.29 40.5883 112.015Z" fill="#B39BFD"/>
<path d="M67.5148 125.803L65.1291 117.345C64.8348 116.301 65.883 115.383 66.8784 115.813L74.5819 119.136C75.1175 119.367 75.7414 119.21 76.1028 118.752L84.0433 108.69C84.6973 107.861 86.0159 108.128 86.2956 109.146L89.3139 120.13C89.5045 120.824 89.0902 121.539 88.3939 121.718L69.0756 126.7C68.3979 126.875 67.7048 126.476 67.5148 125.803Z" fill="#E69494"/>
<path d="M83.143 107.423L65.6868 113.867C65.2116 114.042 65.2041 114.712 65.6751 114.898L74.8978 118.542C75.1213 118.631 75.3762 118.564 75.5282 118.378L83.7617 108.289C84.1169 107.854 83.6702 107.228 83.143 107.423Z" fill="#E69494"/>
<path d="M4.20517 16.8667C4.22225 16.8331 4.27628 16.8326 4.29495 16.8648L5.0742 18.2103C5.17517 18.3847 5.09779 18.5989 4.90142 18.6885L1.8189 20.0961C1.62254 20.1857 1.3813 20.117 1.28032 19.9427L0.50146 18.5978C0.482408 18.5649 0.513975 18.5272 0.555427 18.5341C0.787711 18.5728 1.092 18.6177 2.13017 18.7601C2.3452 18.79 2.73245 18.8828 2.99474 18.7613C3.26041 18.6425 3.40327 18.3019 3.49729 18.1358C3.97075 17.3032 4.10549 17.057 4.20517 16.8667ZM2.87242 18.5501C3.04586 18.4743 3.18056 18.1665 3.25855 18.0294C3.8749 16.9468 3.91773 16.8573 4.05302 16.5959C4.07885 16.5467 4.07737 16.4891 4.04918 16.4404L3.97678 16.3154C3.8758 16.1411 3.63456 16.0723 3.4382 16.162L0.355676 17.5695C0.159313 17.6592 0.0819255 17.8734 0.182903 18.0478L0.255303 18.1728C0.2835 18.2215 0.334986 18.2553 0.395492 18.266C0.713306 18.3197 0.820535 18.3415 2.17078 18.5261C2.34175 18.5495 2.70204 18.6313 2.87242 18.5501Z" fill="#A894E7"/>
<defs>
<filter id="filter0_dd_3980_8797" x="8.0149" y="19.0099" width="227.598" height="64.1745" filterUnits="userSpaceOnUse" color-interpolation-filters="sRGB">
<feFlood flood-opacity="0" result="BackgroundImageFix"/>
<feColorMatrix in="SourceAlpha" type="matrix" values="0 0 0 0 0 0 0 0 0 0 0 0 0 0 0 0 0 0 127 0" result="hardAlpha"/>
<feOffset dx="1.49752" dy="1.49752"/>
<feGaussianBlur stdDeviation="1.8719"/>
<feComposite in2="hardAlpha" operator="out"/>
<feColorMatrix type="matrix" values="0 0 0 0 0 0 0 0 0 0 0 0 0 0 0 0 0 0 0.05 0"/>
<feBlend mode="normal" in2="BackgroundImageFix" result="effect1_dropShadow_3980_8797"/>
<feColorMatrix in="SourceAlpha" type="matrix" values="0 0 0 0 0 0 0 0 0 0 0 0 0 0 0 0 0 0 127 0" result="hardAlpha"/>
<feOffset dx="-2.99503"/>
<feGaussianBlur stdDeviation="2.99503"/>
<feComposite in2="hardAlpha" operator="out"/>
<feColorMatrix type="matrix" values="0 0 0 0 0 0 0 0 0 0 0 0 0 0 0 0 0 0 0.05 0"/>
<feBlend mode="normal" in2="effect1_dropShadow_3980_8797" result="effect2_dropShadow_3980_8797"/>
<feBlend mode="normal" in="SourceGraphic" in2="effect2_dropShadow_3980_8797" result="shape"/>
</filter>
<filter id="filter1_dd_3980_8797" x="56.6672" y="55.7692" width="240.824" height="68.4787" filterUnits="userSpaceOnUse" color-interpolation-filters="sRGB">
<feFlood flood-opacity="0" result="BackgroundImageFix"/>
<feColorMatrix in="SourceAlpha" type="matrix" values="0 0 0 0 0 0 0 0 0 0 0 0 0 0 0 0 0 0 127 0" result="hardAlpha"/>
<feOffset dx="1.49752" dy="1.49752"/>
<feGaussianBlur stdDeviation="1.8719"/>
<feComposite in2="hardAlpha" operator="out"/>
<feColorMatrix type="matrix" values="0 0 0 0 0 0 0 0 0 0 0 0 0 0 0 0 0 0 0.05 0"/>
<feBlend mode="normal" in2="BackgroundImageFix" result="effect1_dropShadow_3980_8797"/>
<feColorMatrix in="SourceAlpha" type="matrix" values="0 0 0 0 0 0 0 0 0 0 0 0 0 0 0 0 0 0 127 0" result="hardAlpha"/>
<feOffset dx="-2.99503"/>
<feGaussianBlur stdDeviation="2.99503"/>
<feComposite in2="hardAlpha" operator="out"/>
<feColorMatrix type="matrix" values="0 0 0 0 0 0 0 0 0 0 0 0 0 0 0 0 0 0 0.05 0"/>
<feBlend mode="normal" in2="effect1_dropShadow_3980_8797" result="effect2_dropShadow_3980_8797"/>
<feBlend mode="normal" in="SourceGraphic" in2="effect2_dropShadow_3980_8797" result="shape"/>
</filter>
<clipPath id="clip0_3980_8797">
<rect x="17" y="25" width="213.371" height="52.1943" rx="5.99007" fill="white"/>
</clipPath>
</defs>
</svg>
