<svg width="285" height="142" viewBox="0 0 285 142" fill="none" xmlns="http://www.w3.org/2000/svg">
<path d="M191.917 138.09L259.596 23.4272C261.247 20.6302 259.725 17.0334 256.568 16.2713L204.865 3.79138C202.896 3.31594 200.839 4.11941 199.712 5.80396L129.365 111.044C127.66 113.594 128.732 117.067 131.578 118.213L185.948 140.116C188.166 141.01 190.702 140.148 191.917 138.09Z" fill="#F4F0FF"/>
<path d="M152.775 82.5554L136.706 106.658C135.876 107.904 136.367 109.598 137.735 110.207L188.142 132.641C189.26 133.139 190.574 132.722 191.2 131.671L207.364 104.557C208.131 103.27 207.554 101.602 206.156 101.064L155.654 81.6402C154.598 81.2343 153.402 81.6145 152.775 82.5554Z" fill="#ECE6FF"/>
<path d="M172.274 112.063L174.388 109.042L158.074 102.396L156.262 105.115L172.274 112.063Z" fill="#D2C4FF"/>
<path d="M185.575 127.472L187.388 124.45L181.043 121.731L179.23 124.45L185.575 127.472Z" fill="#D2C4FF"/>
<path d="M191.912 112.97L193.423 109.949L161.399 96.9583L159.586 99.3752L191.912 112.97Z" fill="#D2C4FF"/>
<path d="M174.006 51.0168L159.782 72.3529C158.915 73.6531 159.492 75.4218 160.958 75.9616L211.165 94.4444C212.265 94.8493 213.497 94.4066 214.088 93.3941L228.442 68.787C229.229 67.4378 228.548 65.7075 227.053 65.2556L176.716 50.0439C175.697 49.736 174.597 50.131 174.006 51.0168Z" fill="#ECE6FF"/>
<path d="M208.234 90.0088L209.744 87.2898L203.702 84.5708L202.191 87.2898L208.234 90.0088Z" fill="white"/>
<path d="M194.641 76.1113L196.454 73.3923L180.139 68.2563L178.629 70.3711L194.641 76.1113Z" fill="white"/>
<path d="M213.977 76.4132L215.488 73.6942L183.464 62.8181L181.953 65.5371L213.977 76.4132Z" fill="white"/>
<path d="M170.86 63.265C172.364 61.3536 174.553 59.5341 176.6 60.8481C178.96 62.3632 177.031 66.1135 174.788 67.7967C173.158 69.0191 171.131 70.1034 169.652 68.7031C168.072 67.2073 169.515 64.9747 170.86 63.265Z" fill="white"/>
<path d="M148.722 96.4163C150.073 94.3934 152.113 92.4087 154.256 93.5592C156.727 94.8857 155.096 98.775 152.991 100.628C151.462 101.974 149.525 103.213 147.941 101.932C146.25 100.564 147.514 98.2257 148.722 96.4163Z" fill="#D2C4FF"/>
<path d="M234.261 57.5715L246.802 36.2524C247.612 34.8752 246.886 33.1049 245.343 32.6921L198.129 20.0651C197.125 19.7968 196.063 20.1993 195.489 21.0651L182.251 41.0483C181.351 42.4064 182.025 44.2477 183.589 44.7035L231.501 58.6665C232.563 58.976 233.7 58.525 234.261 57.5715Z" fill="#ECE6FF"/>
<path d="M233.002 42.8785L234.512 40.1595L203.093 31.3982L201.582 34.1172L233.002 42.8785Z" fill="#D2C4FF"/>
<path d="M214.573 43.181L215.782 40.7641L200.072 36.2324L198.863 38.3472L214.573 43.181Z" fill="#D2C4FF"/>
<path d="M228.17 54.9635L229.983 52.5466L223.94 50.7339L222.43 52.8487L228.17 54.9635Z" fill="#D2C4FF"/>
<g filter="url(#filter0_dd_3972_7221)">
<path fill-rule="evenodd" clip-rule="evenodd" d="M26.4171 16.7957C23.4253 16.7957 21 19.221 21 22.2128V83.1552C21 86.1469 23.4253 88.5723 26.4171 88.5723H151.889L158.145 99.4065C159.187 101.212 161.793 101.212 162.836 99.4065L169.091 88.5723H181.482C184.473 88.5723 186.899 86.1469 186.899 83.1552V22.2128C186.899 19.221 184.473 16.7957 181.482 16.7957H26.4171Z" fill="white"/>
</g>
<path d="M42.1061 38.3071C41.9734 38.3071 41.8691 38.2692 41.7933 38.1934C41.7174 38.1175 41.6795 38.0164 41.6795 37.89C41.6795 37.7573 41.7174 37.6562 41.7933 37.5867C41.8691 37.5171 41.9734 37.4824 42.1061 37.4824H43.2627V32.4391H43.7556L42.3715 33.3207C42.2704 33.3776 42.1756 33.3997 42.0871 33.387C42.005 33.3744 41.9323 33.3396 41.8691 33.2828C41.8122 33.2259 41.7712 33.1564 41.7459 33.0742C41.7269 32.992 41.7332 32.9067 41.7648 32.8182C41.8028 32.7298 41.8691 32.6571 41.9639 32.6002L43.2721 31.7755C43.3796 31.7123 43.4807 31.6617 43.5755 31.6238C43.6766 31.5795 43.7714 31.5574 43.8599 31.5574C43.9673 31.5574 44.0558 31.589 44.1253 31.6522C44.2012 31.7091 44.2391 31.8071 44.2391 31.9461V37.4824H45.3008C45.4399 37.4824 45.5473 37.5171 45.6232 37.5867C45.699 37.6562 45.7369 37.7573 45.7369 37.89C45.7369 38.0227 45.699 38.127 45.6232 38.2028C45.5473 38.2724 45.4399 38.3071 45.3008 38.3071H42.1061ZM49.165 38.3924C48.3876 38.3924 47.7935 38.0986 47.3827 37.5108C46.9782 36.9167 46.776 36.0667 46.776 34.9607C46.776 34.2086 46.8676 33.5798 47.0509 33.0742C47.2342 32.5686 47.5028 32.1863 47.8567 31.9271C48.2106 31.668 48.6467 31.5385 49.165 31.5385C49.9486 31.5385 50.5427 31.8292 50.9472 32.4106C51.3517 32.9857 51.5539 33.8326 51.5539 34.9512C51.5539 35.6907 51.4623 36.3163 51.279 36.8283C51.0957 37.3402 50.8271 37.7289 50.4732 37.9943C50.1193 38.2597 49.6832 38.3924 49.165 38.3924ZM49.165 37.5772C49.6516 37.5772 50.0087 37.3655 50.2362 36.942C50.47 36.5123 50.5869 35.8487 50.5869 34.9512C50.5869 34.0475 50.47 33.3902 50.2362 32.9794C50.0087 32.5623 49.6516 32.3537 49.165 32.3537C48.6846 32.3537 48.3276 32.5623 48.0937 32.9794C47.8599 33.3902 47.743 34.0475 47.743 34.9512C47.743 35.8487 47.8599 36.5123 48.0937 36.942C48.3276 37.3655 48.6846 37.5772 49.165 37.5772ZM54.8492 38.3924C54.0719 38.3924 53.4778 38.0986 53.067 37.5108C52.6625 36.9167 52.4603 36.0667 52.4603 34.9607C52.4603 34.2086 52.5519 33.5798 52.7352 33.0742C52.9185 32.5686 53.1871 32.1863 53.541 31.9271C53.8949 31.668 54.331 31.5385 54.8492 31.5385C55.6329 31.5385 56.227 31.8292 56.6314 32.4106C57.0359 32.9857 57.2381 33.8326 57.2381 34.9512C57.2381 35.6907 57.1465 36.3163 56.9632 36.8283C56.78 37.3402 56.5114 37.7289 56.1574 37.9943C55.8035 38.2597 55.3674 38.3924 54.8492 38.3924ZM54.8492 37.5772C55.3358 37.5772 55.6929 37.3655 55.9204 36.942C56.1543 36.5123 56.2712 35.8487 56.2712 34.9512C56.2712 34.0475 56.1543 33.3902 55.9204 32.9794C55.6929 32.5623 55.3358 32.3537 54.8492 32.3537C54.3689 32.3537 54.0118 32.5623 53.778 32.9794C53.5441 33.3902 53.4272 34.0475 53.4272 34.9512C53.4272 35.8487 53.5441 36.5123 53.778 36.942C54.0118 37.3655 54.3689 37.5772 54.8492 37.5772ZM60.5335 37.9943C60.4134 37.9943 60.3217 37.9627 60.2585 37.8995C60.2017 37.83 60.1732 37.7383 60.1732 37.6246V35.9371H58.5142C58.4005 35.9371 58.312 35.9087 58.2488 35.8518C58.1856 35.7886 58.154 35.7001 58.154 35.5864C58.154 35.4726 58.1856 35.3873 58.2488 35.3304C58.312 35.2672 58.4005 35.2356 58.5142 35.2356H60.1732V33.5956C60.1732 33.4818 60.2017 33.3934 60.2585 33.3302C60.3217 33.267 60.4165 33.2354 60.5429 33.2354C60.6567 33.2354 60.742 33.267 60.7989 33.3302C60.8621 33.3934 60.8937 33.4818 60.8937 33.5956V35.2356H62.5527C62.6728 35.2356 62.7612 35.2672 62.8181 35.3304C62.8813 35.3873 62.9129 35.4726 62.9129 35.5864C62.9129 35.7001 62.8813 35.7886 62.8181 35.8518C62.7612 35.9087 62.6728 35.9371 62.5527 35.9371H60.8937V37.6246C60.8937 37.7383 60.8621 37.83 60.7989 37.8995C60.742 37.9627 60.6535 37.9943 60.5335 37.9943ZM67.0204 38.3735C66.8687 38.3735 66.7518 38.3324 66.6696 38.2502C66.5875 38.1618 66.5464 38.0417 66.5464 37.89V32.0409C66.5464 31.8829 66.5875 31.7628 66.6696 31.6807C66.7518 31.5985 66.8687 31.5574 67.0204 31.5574C67.1721 31.5574 67.289 31.5985 67.3712 31.6807C67.4596 31.7628 67.5039 31.8829 67.5039 32.0409V34.6668H67.3712C67.5102 34.3129 67.7282 34.0475 68.0253 33.8705C68.3223 33.6872 68.6636 33.5956 69.0491 33.5956C69.4157 33.5956 69.719 33.6651 69.9592 33.8042C70.2057 33.9369 70.3889 34.1423 70.509 34.4204C70.6291 34.6921 70.6891 35.0366 70.6891 35.4537V37.89C70.6891 38.0417 70.648 38.1618 70.5659 38.2502C70.4837 38.3324 70.3668 38.3735 70.2151 38.3735C70.0571 38.3735 69.9371 38.3324 69.8549 38.2502C69.7727 38.1618 69.7317 38.0417 69.7317 37.89V35.5105C69.7317 35.1124 69.6527 34.8217 69.4947 34.6384C69.343 34.4551 69.1028 34.3635 68.7742 34.3635C68.3887 34.3635 68.079 34.4836 67.8452 34.7237C67.6176 34.9639 67.5039 35.2862 67.5039 35.6907V37.89C67.5039 38.2123 67.3427 38.3735 67.0204 38.3735ZM73.4873 38.3924C73.165 38.3924 72.8743 38.3292 72.6152 38.2028C72.3624 38.0765 72.1633 37.9058 72.0179 37.6909C71.8726 37.4761 71.7999 37.2327 71.7999 36.961C71.7999 36.6197 71.8852 36.3511 72.0559 36.1552C72.2328 35.9529 72.5204 35.8107 72.9185 35.7286C73.323 35.6401 73.8665 35.5959 74.5491 35.5959H74.9946V36.1836H74.5586C74.1035 36.1836 73.7433 36.2057 73.4779 36.25C73.2124 36.2942 73.0228 36.3701 72.9091 36.4775C72.8016 36.5786 72.7479 36.7208 72.7479 36.9041C72.7479 37.1443 72.8301 37.3402 72.9944 37.4919C73.1587 37.6372 73.3862 37.7099 73.6769 37.7099C73.9108 37.7099 74.1162 37.6562 74.2931 37.5487C74.4701 37.435 74.6091 37.2833 74.7102 37.0937C74.8177 36.9041 74.8714 36.6861 74.8714 36.4396V35.3494C74.8714 34.9892 74.7956 34.73 74.6439 34.572C74.4922 34.414 74.2426 34.335 73.895 34.335C73.6927 34.335 73.481 34.3603 73.2598 34.4109C73.0449 34.4614 72.8206 34.5468 72.5867 34.6668C72.4793 34.7174 72.3877 34.7332 72.3118 34.7142C72.236 34.6953 72.1759 34.6542 72.1317 34.591C72.0875 34.5215 72.0622 34.4488 72.0559 34.373C72.0559 34.2908 72.0748 34.2118 72.1127 34.136C72.157 34.0601 72.2297 34.0032 72.3308 33.9653C72.6089 33.8326 72.8838 33.7378 73.1555 33.6809C73.4273 33.624 73.6833 33.5956 73.9234 33.5956C74.3469 33.5956 74.6944 33.662 74.9662 33.7947C75.2443 33.9274 75.4497 34.1296 75.5824 34.4014C75.7151 34.6732 75.7815 35.0239 75.7815 35.4537V37.89C75.7815 38.0417 75.7436 38.1618 75.6677 38.2502C75.5919 38.3324 75.4813 38.3735 75.3359 38.3735C75.1969 38.3735 75.0863 38.3324 75.0041 38.2502C74.922 38.1618 74.8809 38.0417 74.8809 37.89V37.2738H74.9662C74.9156 37.5077 74.8208 37.7099 74.6818 37.8805C74.5491 38.0449 74.3816 38.1712 74.1794 38.2597C73.9771 38.3482 73.7465 38.3924 73.4873 38.3924ZM78.8456 38.3735C78.7129 38.3735 78.596 38.3387 78.4949 38.2692C78.4001 38.1997 78.3211 38.0923 78.2579 37.9469L76.6747 34.2687C76.6242 34.1549 76.6052 34.0475 76.6179 33.9464C76.6305 33.8452 76.6779 33.7662 76.7601 33.7094C76.8422 33.6462 76.9528 33.6146 77.0919 33.6146C77.2119 33.6146 77.3067 33.643 77.3763 33.6999C77.4458 33.7568 77.509 33.8547 77.5659 33.9938L78.9973 37.5203H78.7319L80.1918 33.9938C80.2487 33.8547 80.3119 33.7568 80.3814 33.6999C80.4572 33.643 80.5615 33.6146 80.6942 33.6146C80.808 33.6146 80.8965 33.6462 80.9597 33.7094C81.0292 33.7662 81.0703 33.8452 81.0829 33.9464C81.1019 34.0412 81.0861 34.1454 81.0355 34.2592L79.4334 37.9469C79.3765 38.0923 79.2975 38.1997 79.1964 38.2692C79.0953 38.3387 78.9784 38.3735 78.8456 38.3735ZM84.0666 38.3924C83.561 38.3924 83.125 38.2976 82.7584 38.1081C82.3982 37.9121 82.1169 37.6372 81.9147 37.2833C81.7188 36.9231 81.6208 36.4965 81.6208 36.0035C81.6208 35.5232 81.7188 35.1029 81.9147 34.7427C82.1106 34.3824 82.3792 34.1012 82.7205 33.899C83.0618 33.6967 83.4504 33.5956 83.8865 33.5956C84.2088 33.5956 84.4964 33.6493 84.7492 33.7568C85.002 33.8579 85.2169 34.0096 85.3938 34.2118C85.5771 34.4077 85.713 34.6479 85.8015 34.9323C85.8963 35.2167 85.9437 35.5358 85.9437 35.8897C85.9437 35.9972 85.9121 36.0793 85.8489 36.1362C85.7857 36.1868 85.6909 36.2121 85.5645 36.2121H82.3792V35.6243H85.299L85.1379 35.757C85.1379 35.441 85.0905 35.1724 84.9957 34.9512C84.9072 34.73 84.7713 34.5626 84.588 34.4488C84.4111 34.3287 84.1899 34.2687 83.9244 34.2687C83.6274 34.2687 83.3746 34.3382 83.166 34.4772C82.9638 34.6163 82.809 34.809 82.7015 35.0555C82.5941 35.302 82.5404 35.5895 82.5404 35.9182V35.9751C82.5404 36.5312 82.6699 36.9515 82.9291 37.2359C83.1945 37.514 83.5768 37.653 84.0761 37.653C84.2657 37.653 84.4648 37.6277 84.6734 37.5772C84.8882 37.5266 85.0905 37.4413 85.2801 37.3212C85.3875 37.258 85.4823 37.2296 85.5645 37.2359C85.653 37.2422 85.7225 37.2707 85.773 37.3212C85.8299 37.3718 85.8647 37.435 85.8773 37.5108C85.8899 37.5867 85.8773 37.6657 85.8394 37.7478C85.8015 37.8237 85.7351 37.8932 85.6403 37.9564C85.4254 38.1017 85.1758 38.2123 84.8914 38.2882C84.607 38.3577 84.3321 38.3924 84.0666 38.3924ZM91.1082 38.3924C90.8301 38.3924 90.5425 38.3608 90.2455 38.2976C89.9548 38.2344 89.6862 38.127 89.4397 37.9753C89.3575 37.9185 89.3007 37.8553 89.2691 37.7857C89.2375 37.7162 89.2248 37.6467 89.2311 37.5772C89.2438 37.5013 89.2722 37.4381 89.3165 37.3876C89.367 37.3307 89.427 37.2959 89.4966 37.2833C89.5724 37.2707 89.6514 37.2865 89.7336 37.3307C89.98 37.4697 90.217 37.5677 90.4446 37.6246C90.6721 37.6751 90.8964 37.7004 91.1176 37.7004C91.4526 37.7004 91.7054 37.6404 91.876 37.5203C92.0467 37.4002 92.132 37.2391 92.132 37.0368C92.132 36.8725 92.0751 36.7461 91.9614 36.6576C91.8476 36.5628 91.677 36.4901 91.4494 36.4396L90.5488 36.2595C90.157 36.1773 89.86 36.0319 89.6577 35.8234C89.4555 35.6148 89.3544 35.3494 89.3544 35.0271C89.3544 34.7364 89.4334 34.4836 89.5914 34.2687C89.7494 34.0538 89.9706 33.8895 90.255 33.7757C90.5394 33.6556 90.868 33.5956 91.2409 33.5956C91.519 33.5956 91.7812 33.6304 92.0277 33.6999C92.2742 33.7694 92.5017 33.8737 92.7103 34.0127C92.7924 34.057 92.8461 34.117 92.8714 34.1928C92.8967 34.2624 92.8999 34.3319 92.8809 34.4014C92.8683 34.4709 92.8367 34.5341 92.7861 34.591C92.7355 34.6416 92.6723 34.6732 92.5965 34.6858C92.527 34.6921 92.448 34.6732 92.3595 34.6289C92.1699 34.5088 91.9803 34.4235 91.7907 34.373C91.6074 34.3224 91.4242 34.2971 91.2409 34.2971C90.9059 34.2971 90.6531 34.3603 90.4825 34.4867C90.3182 34.6068 90.236 34.7711 90.236 34.9797C90.236 35.1377 90.2866 35.2672 90.3877 35.3684C90.4888 35.4695 90.6468 35.5421 90.8617 35.5864L91.7623 35.7665C92.1731 35.8487 92.4827 35.9877 92.6913 36.1836C92.9062 36.3795 93.0136 36.645 93.0136 36.9799C93.0136 37.416 92.8398 37.7605 92.4922 38.0133C92.1446 38.266 91.6833 38.3924 91.1082 38.3924ZM95.7284 38.3924C95.3556 38.3924 95.0427 38.3229 94.7899 38.1839C94.5434 38.0449 94.357 37.8395 94.2306 37.5677C94.1105 37.2896 94.0505 36.942 94.0505 36.5249V34.098C94.0505 33.9337 94.0916 33.8136 94.1737 33.7378C94.2559 33.6556 94.3728 33.6146 94.5245 33.6146C94.6762 33.6146 94.7931 33.6556 94.8752 33.7378C94.9637 33.8136 95.008 33.9337 95.008 34.098V36.5344C95.008 36.9073 95.0838 37.1822 95.2355 37.3591C95.3872 37.5361 95.6273 37.6246 95.956 37.6246C96.3162 37.6246 96.6069 37.5045 96.8281 37.2643C97.0556 37.0179 97.1694 36.6955 97.1694 36.2974V34.098C97.1694 33.9337 97.2105 33.8136 97.2926 33.7378C97.3748 33.6556 97.4949 33.6146 97.6529 33.6146C97.8045 33.6146 97.9215 33.6556 98.0036 33.7378C98.0858 33.8136 98.1269 33.9337 98.1269 34.098V37.89C98.1269 38.2123 97.972 38.3735 97.6623 38.3735C97.517 38.3735 97.4032 38.3324 97.3211 38.2502C97.2389 38.1618 97.1978 38.0417 97.1978 37.89V37.0842L97.3211 37.2928C97.1947 37.6467 96.9924 37.9185 96.7143 38.1081C96.4363 38.2976 96.1076 38.3924 95.7284 38.3924ZM101.96 38.3924C101.555 38.3924 101.205 38.2913 100.908 38.0891C100.611 37.8805 100.412 37.6056 100.31 37.2643L100.415 37.0937V37.89C100.415 38.0417 100.374 38.1618 100.291 38.2502C100.209 38.3324 100.096 38.3735 99.9502 38.3735C99.7985 38.3735 99.6816 38.3324 99.5994 38.2502C99.5173 38.1618 99.4762 38.0417 99.4762 37.89V32.0409C99.4762 31.8829 99.5173 31.7628 99.5994 31.6807C99.6816 31.5985 99.7985 31.5574 99.9502 31.5574C100.102 31.5574 100.219 31.5985 100.301 31.6807C100.389 31.7628 100.434 31.8829 100.434 32.0409V34.6953H100.32C100.421 34.3603 100.62 34.0949 100.917 33.899C101.214 33.6967 101.562 33.5956 101.96 33.5956C102.377 33.5956 102.737 33.6936 103.041 33.8895C103.344 34.0854 103.578 34.3603 103.742 34.7142C103.913 35.0682 103.998 35.4947 103.998 35.994C103.998 36.4807 103.913 36.9073 103.742 37.2738C103.578 37.6341 103.341 37.9121 103.031 38.1081C102.728 38.2976 102.371 38.3924 101.96 38.3924ZM101.723 37.653C101.988 37.653 102.219 37.5898 102.415 37.4634C102.611 37.337 102.763 37.1506 102.87 36.9041C102.977 36.6576 103.031 36.3543 103.031 35.994C103.031 35.4505 102.911 35.0397 102.671 34.7616C102.437 34.4836 102.121 34.3445 101.723 34.3445C101.464 34.3445 101.233 34.4077 101.031 34.5341C100.835 34.6542 100.683 34.8375 100.576 35.084C100.468 35.3304 100.415 35.6338 100.415 35.994C100.415 36.5312 100.535 36.942 100.775 37.2264C101.015 37.5108 101.331 37.653 101.723 37.653ZM105.57 38.3735C105.418 38.3735 105.301 38.3324 105.219 38.2502C105.137 38.1618 105.096 38.0417 105.096 37.89V34.098C105.096 33.94 105.137 33.82 105.219 33.7378C105.301 33.6556 105.415 33.6146 105.561 33.6146C105.712 33.6146 105.826 33.6556 105.902 33.7378C105.984 33.82 106.025 33.94 106.025 34.098V34.8754L105.921 34.6668C106.047 34.3319 106.243 34.0696 106.509 33.88C106.774 33.6904 107.093 33.5956 107.466 33.5956C107.852 33.5956 108.164 33.6872 108.405 33.8705C108.645 34.0538 108.809 34.335 108.898 34.7142H108.765C108.885 34.3666 109.09 34.0949 109.381 33.899C109.672 33.6967 110.01 33.5956 110.395 33.5956C110.749 33.5956 111.04 33.6651 111.268 33.8042C111.495 33.9369 111.666 34.1423 111.779 34.4204C111.893 34.6921 111.95 35.0366 111.95 35.4537V37.89C111.95 38.0417 111.906 38.1618 111.817 38.2502C111.735 38.3324 111.618 38.3735 111.467 38.3735C111.315 38.3735 111.198 38.3324 111.116 38.2502C111.034 38.1618 110.993 38.0417 110.993 37.89V35.5011C110.993 35.1092 110.923 34.8217 110.784 34.6384C110.651 34.4551 110.43 34.3635 110.12 34.3635C109.773 34.3635 109.498 34.4836 109.296 34.7237C109.093 34.9639 108.992 35.2957 108.992 35.7191V37.89C108.992 38.0417 108.951 38.1618 108.869 38.2502C108.787 38.3324 108.67 38.3735 108.518 38.3735C108.367 38.3735 108.247 38.3324 108.158 38.2502C108.076 38.1618 108.035 38.0417 108.035 37.89V35.5011C108.035 35.1092 107.969 34.8217 107.836 34.6384C107.703 34.4551 107.482 34.3635 107.172 34.3635C106.825 34.3635 106.55 34.4836 106.347 34.7237C106.152 34.9639 106.054 35.2957 106.054 35.7191V37.89C106.054 38.2123 105.892 38.3735 105.57 38.3735ZM113.763 38.364C113.611 38.364 113.494 38.3198 113.412 38.2313C113.33 38.1365 113.289 38.0069 113.289 37.8426V34.1454C113.289 33.9811 113.33 33.8547 113.412 33.7662C113.494 33.6778 113.611 33.6335 113.763 33.6335C113.914 33.6335 114.031 33.6778 114.113 33.7662C114.202 33.8547 114.246 33.9811 114.246 34.1454V37.8426C114.246 38.0069 114.205 38.1365 114.123 38.2313C114.041 38.3198 113.921 38.364 113.763 38.364ZM113.763 32.6476C113.573 32.6476 113.425 32.6002 113.317 32.5054C113.216 32.4106 113.166 32.2779 113.166 32.1073C113.166 31.9303 113.216 31.7976 113.317 31.7091C113.425 31.6143 113.573 31.5669 113.763 31.5669C113.952 31.5669 114.098 31.6143 114.199 31.7091C114.306 31.7976 114.36 31.9303 114.36 32.1073C114.36 32.2779 114.306 32.4106 114.199 32.5054C114.098 32.6002 113.952 32.6476 113.763 32.6476ZM117.566 38.3924C117.187 38.3924 116.867 38.3261 116.608 38.1934C116.349 38.0607 116.156 37.8647 116.03 37.6056C115.904 37.3465 115.84 37.0305 115.84 36.6576V34.4204H115.272C115.145 34.4204 115.047 34.3888 114.978 34.3256C114.908 34.256 114.873 34.1644 114.873 34.0506C114.873 33.9306 114.908 33.8389 114.978 33.7757C115.047 33.7125 115.145 33.6809 115.272 33.6809H115.84V32.7045C115.84 32.5465 115.881 32.4264 115.964 32.3443C116.052 32.2621 116.172 32.221 116.324 32.221C116.476 32.221 116.592 32.2621 116.675 32.3443C116.757 32.4264 116.798 32.5465 116.798 32.7045V33.6809H117.907C118.033 33.6809 118.131 33.7125 118.201 33.7757C118.27 33.8389 118.305 33.9306 118.305 34.0506C118.305 34.1644 118.27 34.256 118.201 34.3256C118.131 34.3888 118.033 34.4204 117.907 34.4204H116.798V36.5818C116.798 36.9167 116.867 37.1695 117.006 37.3402C117.152 37.5108 117.386 37.5961 117.708 37.5961C117.822 37.5961 117.92 37.5867 118.002 37.5677C118.09 37.5424 118.163 37.5266 118.22 37.5203C118.289 37.5203 118.346 37.5456 118.391 37.5961C118.435 37.6404 118.457 37.7289 118.457 37.8616C118.457 37.9564 118.438 38.0449 118.4 38.127C118.368 38.2092 118.308 38.2629 118.22 38.2882C118.144 38.3134 118.04 38.3356 117.907 38.3545C117.781 38.3798 117.667 38.3924 117.566 38.3924ZM120.843 38.3924C120.464 38.3924 120.145 38.3261 119.886 38.1934C119.626 38.0607 119.434 37.8647 119.307 37.6056C119.181 37.3465 119.118 37.0305 119.118 36.6576V34.4204H118.549C118.422 34.4204 118.324 34.3888 118.255 34.3256C118.185 34.256 118.151 34.1644 118.151 34.0506C118.151 33.9306 118.185 33.8389 118.255 33.7757C118.324 33.7125 118.422 33.6809 118.549 33.6809H119.118V32.7045C119.118 32.5465 119.159 32.4264 119.241 32.3443C119.329 32.2621 119.449 32.221 119.601 32.221C119.753 32.221 119.87 32.2621 119.952 32.3443C120.034 32.4264 120.075 32.5465 120.075 32.7045V33.6809H121.184C121.311 33.6809 121.409 33.7125 121.478 33.7757C121.548 33.8389 121.582 33.9306 121.582 34.0506C121.582 34.1644 121.548 34.256 121.478 34.3256C121.409 34.3888 121.311 34.4204 121.184 34.4204H120.075V36.5818C120.075 36.9167 120.145 37.1695 120.284 37.3402C120.429 37.5108 120.663 37.5961 120.985 37.5961C121.099 37.5961 121.197 37.5867 121.279 37.5677C121.368 37.5424 121.44 37.5266 121.497 37.5203C121.567 37.5203 121.624 37.5456 121.668 37.5961C121.712 37.6404 121.734 37.7289 121.734 37.8616C121.734 37.9564 121.715 38.0449 121.677 38.127C121.646 38.2092 121.586 38.2629 121.497 38.2882C121.421 38.3134 121.317 38.3356 121.184 38.3545C121.058 38.3798 120.944 38.3924 120.843 38.3924ZM124.458 38.3924C123.953 38.3924 123.517 38.2976 123.15 38.1081C122.79 37.9121 122.508 37.6372 122.306 37.2833C122.11 36.9231 122.012 36.4965 122.012 36.0035C122.012 35.5232 122.11 35.1029 122.306 34.7427C122.502 34.3824 122.771 34.1012 123.112 33.899C123.453 33.6967 123.842 33.5956 124.278 33.5956C124.6 33.5956 124.888 33.6493 125.141 33.7568C125.394 33.8579 125.608 34.0096 125.785 34.2118C125.969 34.4077 126.105 34.6479 126.193 34.9323C126.288 35.2167 126.335 35.5358 126.335 35.8897C126.335 35.9972 126.304 36.0793 126.24 36.1362C126.177 36.1868 126.082 36.2121 125.956 36.2121H122.771V35.6243H125.691L125.529 35.757C125.529 35.441 125.482 35.1724 125.387 34.9512C125.299 34.73 125.163 34.5626 124.98 34.4488C124.803 34.3287 124.581 34.2687 124.316 34.2687C124.019 34.2687 123.766 34.3382 123.558 34.4772C123.355 34.6163 123.201 34.809 123.093 35.0555C122.986 35.302 122.932 35.5895 122.932 35.9182V35.9751C122.932 36.5312 123.061 36.9515 123.321 37.2359C123.586 37.514 123.968 37.653 124.468 37.653C124.657 37.653 124.856 37.6277 125.065 37.5772C125.28 37.5266 125.482 37.4413 125.672 37.3212C125.779 37.258 125.874 37.2296 125.956 37.2359C126.044 37.2422 126.114 37.2707 126.165 37.3212C126.221 37.3718 126.256 37.435 126.269 37.5108C126.281 37.5867 126.269 37.6657 126.231 37.7478C126.193 37.8237 126.127 37.8932 126.032 37.9564C125.817 38.1017 125.567 38.2123 125.283 38.2882C124.999 38.3577 124.724 38.3924 124.458 38.3924ZM129.142 38.3924C128.738 38.3924 128.381 38.2976 128.071 38.1081C127.768 37.9121 127.531 37.6341 127.36 37.2738C127.189 36.9073 127.104 36.4807 127.104 35.994C127.104 35.4947 127.189 35.0682 127.36 34.7142C127.531 34.3603 127.768 34.0854 128.071 33.8895C128.381 33.6936 128.738 33.5956 129.142 33.5956C129.547 33.5956 129.894 33.6967 130.185 33.899C130.482 34.0949 130.681 34.3603 130.782 34.6953H130.678V32.0409C130.678 31.8829 130.719 31.7628 130.801 31.6807C130.883 31.5985 131 31.5574 131.152 31.5574C131.304 31.5574 131.421 31.5985 131.503 31.6807C131.591 31.7628 131.636 31.8829 131.636 32.0409V37.89C131.636 38.0417 131.594 38.1618 131.512 38.2502C131.43 38.3324 131.313 38.3735 131.162 38.3735C131.01 38.3735 130.893 38.3324 130.811 38.2502C130.729 38.1618 130.688 38.0417 130.688 37.89V37.0558L130.792 37.2643C130.691 37.6056 130.492 37.8805 130.195 38.0891C129.904 38.2913 129.553 38.3924 129.142 38.3924ZM129.389 37.653C129.648 37.653 129.875 37.5898 130.071 37.4634C130.267 37.337 130.419 37.1506 130.526 36.9041C130.64 36.6576 130.697 36.3543 130.697 35.994C130.697 35.4505 130.577 35.0397 130.337 34.7616C130.097 34.4836 129.781 34.3445 129.389 34.3445C129.123 34.3445 128.893 34.4077 128.697 34.5341C128.501 34.6542 128.346 34.8375 128.232 35.084C128.125 35.3304 128.071 35.6338 128.071 35.994C128.071 36.5312 128.191 36.942 128.431 37.2264C128.671 37.5108 128.991 37.653 129.389 37.653ZM137.451 38.3924C137.072 38.3924 136.753 38.3261 136.494 38.1934C136.235 38.0607 136.042 37.8647 135.916 37.6056C135.789 37.3465 135.726 37.0305 135.726 36.6576V34.4204H135.157C135.031 34.4204 134.933 34.3888 134.863 34.3256C134.794 34.256 134.759 34.1644 134.759 34.0506C134.759 33.9306 134.794 33.8389 134.863 33.7757C134.933 33.7125 135.031 33.6809 135.157 33.6809H135.726V32.7045C135.726 32.5465 135.767 32.4264 135.849 32.3443C135.938 32.2621 136.058 32.221 136.21 32.221C136.361 32.221 136.478 32.2621 136.56 32.3443C136.642 32.4264 136.684 32.5465 136.684 32.7045V33.6809H137.793C137.919 33.6809 138.017 33.7125 138.087 33.7757C138.156 33.8389 138.191 33.9306 138.191 34.0506C138.191 34.1644 138.156 34.256 138.087 34.3256C138.017 34.3888 137.919 34.4204 137.793 34.4204H136.684V36.5818C136.684 36.9167 136.753 37.1695 136.892 37.3402C137.037 37.5108 137.271 37.5961 137.594 37.5961C137.707 37.5961 137.805 37.5867 137.887 37.5677C137.976 37.5424 138.049 37.5266 138.105 37.5203C138.175 37.5203 138.232 37.5456 138.276 37.5961C138.32 37.6404 138.342 37.7289 138.342 37.8616C138.342 37.9564 138.324 38.0449 138.286 38.127C138.254 38.2092 138.194 38.2629 138.105 38.2882C138.03 38.3134 137.925 38.3356 137.793 38.3545C137.666 38.3798 137.552 38.3924 137.451 38.3924ZM139.499 38.3735C139.348 38.3735 139.231 38.3324 139.149 38.2502C139.066 38.1618 139.025 38.0417 139.025 37.89V32.0409C139.025 31.8829 139.066 31.7628 139.149 31.6807C139.231 31.5985 139.348 31.5574 139.499 31.5574C139.651 31.5574 139.768 31.5985 139.85 31.6807C139.939 31.7628 139.983 31.8829 139.983 32.0409V34.6668H139.85C139.989 34.3129 140.207 34.0475 140.504 33.8705C140.801 33.6872 141.142 33.5956 141.528 33.5956C141.895 33.5956 142.198 33.6651 142.438 33.8042C142.685 33.9369 142.868 34.1423 142.988 34.4204C143.108 34.6921 143.168 35.0366 143.168 35.4537V37.89C143.168 38.0417 143.127 38.1618 143.045 38.2502C142.963 38.3324 142.846 38.3735 142.694 38.3735C142.536 38.3735 142.416 38.3324 142.334 38.2502C142.252 38.1618 142.211 38.0417 142.211 37.89V35.5105C142.211 35.1124 142.132 34.8217 141.974 34.6384C141.822 34.4551 141.582 34.3635 141.253 34.3635C140.868 34.3635 140.558 34.4836 140.324 34.7237C140.097 34.9639 139.983 35.2862 139.983 35.6907V37.89C139.983 38.2123 139.822 38.3735 139.499 38.3735ZM146.658 38.3924C146.153 38.3924 145.717 38.2976 145.35 38.1081C144.99 37.9121 144.709 37.6372 144.506 37.2833C144.31 36.9231 144.212 36.4965 144.212 36.0035C144.212 35.5232 144.31 35.1029 144.506 34.7427C144.702 34.3824 144.971 34.1012 145.312 33.899C145.653 33.6967 146.042 33.5956 146.478 33.5956C146.8 33.5956 147.088 33.6493 147.341 33.7568C147.594 33.8579 147.808 34.0096 147.985 34.2118C148.169 34.4077 148.305 34.6479 148.393 34.9323C148.488 35.2167 148.535 35.5358 148.535 35.8897C148.535 35.9972 148.504 36.0793 148.44 36.1362C148.377 36.1868 148.282 36.2121 148.156 36.2121H144.971V35.6243H147.891L147.729 35.757C147.729 35.441 147.682 35.1724 147.587 34.9512C147.499 34.73 147.363 34.5626 147.18 34.4488C147.003 34.3287 146.781 34.2687 146.516 34.2687C146.219 34.2687 145.966 34.3382 145.758 34.4772C145.555 34.6163 145.401 34.809 145.293 35.0555C145.186 35.302 145.132 35.5895 145.132 35.9182V35.9751C145.132 36.5312 145.262 36.9515 145.521 37.2359C145.786 37.514 146.168 37.653 146.668 37.653C146.857 37.653 147.056 37.6277 147.265 37.5772C147.48 37.5266 147.682 37.4413 147.872 37.3212C147.979 37.258 148.074 37.2296 148.156 37.2359C148.245 37.2422 148.314 37.2707 148.365 37.3212C148.422 37.3718 148.456 37.435 148.469 37.5108C148.482 37.5867 148.469 37.6657 148.431 37.7478C148.393 37.8237 148.327 37.8932 148.232 37.9564C148.017 38.1017 147.767 38.2123 147.483 38.2882C147.199 38.3577 146.924 38.3924 146.658 38.3924ZM150.053 38.364C149.901 38.364 149.784 38.3198 149.702 38.2313C149.62 38.1365 149.579 38.0069 149.579 37.8426V34.1454C149.579 33.9811 149.62 33.8547 149.702 33.7662C149.784 33.6778 149.901 33.6335 150.053 33.6335C150.205 33.6335 150.322 33.6778 150.404 33.7662C150.492 33.8547 150.537 33.9811 150.537 34.1454V37.8426C150.537 38.0069 150.495 38.1365 150.413 38.2313C150.331 38.3198 150.211 38.364 150.053 38.364ZM150.053 32.6476C149.863 32.6476 149.715 32.6002 149.608 32.5054C149.506 32.4106 149.456 32.2779 149.456 32.1073C149.456 31.9303 149.506 31.7976 149.608 31.7091C149.715 31.6143 149.863 31.5669 150.053 31.5669C150.243 31.5669 150.388 31.6143 150.489 31.7091C150.597 31.7976 150.65 31.9303 150.65 32.1073C150.65 32.2779 150.597 32.4106 150.489 32.5054C150.388 32.6002 150.243 32.6476 150.053 32.6476ZM152.368 38.3735C152.21 38.3735 152.09 38.3324 152.008 38.2502C151.925 38.1618 151.884 38.0417 151.884 37.89V34.098C151.884 33.94 151.925 33.82 152.008 33.7378C152.09 33.6556 152.203 33.6146 152.349 33.6146C152.5 33.6146 152.614 33.6556 152.69 33.7378C152.772 33.82 152.813 33.94 152.813 34.098V34.7901H152.719C152.82 34.4109 153.006 34.1233 153.278 33.9274C153.55 33.7315 153.897 33.6177 154.321 33.5861C154.434 33.5798 154.523 33.6082 154.586 33.6714C154.656 33.7346 154.693 33.8326 154.7 33.9653C154.712 34.098 154.684 34.2055 154.614 34.2876C154.545 34.3635 154.438 34.4077 154.292 34.4204L154.112 34.4393C153.701 34.4772 153.388 34.6068 153.174 34.828C152.959 35.0492 152.851 35.3526 152.851 35.7381V37.89C152.851 38.0417 152.81 38.1618 152.728 38.2502C152.652 38.3324 152.532 38.3735 152.368 38.3735ZM41.7933 51.3735C41.6353 51.3735 41.5152 51.3324 41.433 51.2502C41.3509 51.1618 41.3098 51.0417 41.3098 50.89V47.098C41.3098 46.94 41.3509 46.82 41.433 46.7378C41.5152 46.6556 41.629 46.6146 41.7743 46.6146C41.926 46.6146 42.0397 46.6556 42.1156 46.7378C42.1977 46.82 42.2388 46.94 42.2388 47.098V47.7901H42.144C42.2451 47.4109 42.4316 47.1233 42.7033 46.9274C42.9751 46.7315 43.3227 46.6177 43.7461 46.5861C43.8599 46.5798 43.9484 46.6082 44.0116 46.6714C44.0811 46.7346 44.119 46.8326 44.1253 46.9653C44.138 47.098 44.1095 47.2055 44.04 47.2876C43.9705 47.3635 43.8631 47.4077 43.7177 47.4204L43.5376 47.4393C43.1268 47.4772 42.8139 47.6068 42.5991 47.828C42.3842 48.0492 42.2767 48.3526 42.2767 48.7381V50.89C42.2767 51.0417 42.2357 51.1618 42.1535 51.2502C42.0777 51.3324 41.9576 51.3735 41.7933 51.3735ZM46.9524 51.3924C46.4468 51.3924 46.0107 51.2976 45.6441 51.1081C45.2839 50.9121 45.0026 50.6372 44.8004 50.2833C44.6045 49.9231 44.5065 49.4965 44.5065 49.0035C44.5065 48.5232 44.6045 48.1029 44.8004 47.7427C44.9963 47.3824 45.2649 47.1012 45.6062 46.899C45.9475 46.6967 46.3362 46.5956 46.7722 46.5956C47.0946 46.5956 47.3821 46.6493 47.6349 46.7568C47.8877 46.8579 48.1026 47.0096 48.2795 47.2118C48.4628 47.4077 48.5987 47.6479 48.6872 47.9323C48.782 48.2167 48.8294 48.5358 48.8294 48.8897C48.8294 48.9972 48.7978 49.0793 48.7346 49.1362C48.6714 49.1868 48.5766 49.2121 48.4502 49.2121H45.2649V48.6243H48.1847L48.0236 48.757C48.0236 48.441 47.9762 48.1724 47.8814 47.9512C47.7929 47.73 47.657 47.5626 47.4737 47.4488C47.2968 47.3287 47.0756 47.2687 46.8102 47.2687C46.5131 47.2687 46.2603 47.3382 46.0518 47.4772C45.8495 47.6163 45.6947 47.809 45.5872 48.0555C45.4798 48.302 45.4261 48.5895 45.4261 48.9182V48.9751C45.4261 49.5312 45.5556 49.9515 45.8148 50.2359C46.0802 50.514 46.4626 50.653 46.9618 50.653C47.1514 50.653 47.3505 50.6277 47.5591 50.5772C47.7739 50.5266 47.9762 50.4413 48.1658 50.3212C48.2732 50.258 48.368 50.2296 48.4502 50.2359C48.5387 50.2422 48.6082 50.2707 48.6587 50.3212C48.7156 50.3718 48.7504 50.435 48.763 50.5108C48.7757 50.5867 48.763 50.6657 48.7251 50.7478C48.6872 50.8237 48.6208 50.8932 48.526 50.9564C48.3111 51.1017 48.0615 51.2123 47.7771 51.2882C47.4927 51.3577 47.2178 51.3924 46.9524 51.3924ZM51.4943 51.3924C51.2162 51.3924 50.9286 51.3608 50.6316 51.2976C50.3409 51.2344 50.0723 51.127 49.8258 50.9753C49.7436 50.9185 49.6868 50.8553 49.6552 50.7857C49.6236 50.7162 49.6109 50.6467 49.6172 50.5772C49.6299 50.5013 49.6583 50.4381 49.7026 50.3876C49.7531 50.3307 49.8132 50.2959 49.8827 50.2833C49.9585 50.2707 50.0375 50.2865 50.1197 50.3307C50.3662 50.4697 50.6032 50.5677 50.8307 50.6246C51.0582 50.6751 51.2826 50.7004 51.5038 50.7004C51.8387 50.7004 52.0915 50.6404 52.2621 50.5203C52.4328 50.4002 52.5181 50.2391 52.5181 50.0368C52.5181 49.8725 52.4612 49.7461 52.3475 49.6576C52.2337 49.5628 52.0631 49.4901 51.8356 49.4396L50.935 49.2595C50.5431 49.1773 50.2461 49.0319 50.0438 48.8234C49.8416 48.6148 49.7405 48.3494 49.7405 48.0271C49.7405 47.7364 49.8195 47.4836 49.9775 47.2687C50.1355 47.0538 50.3567 46.8895 50.6411 46.7757C50.9255 46.6556 51.2541 46.5956 51.627 46.5956C51.9051 46.5956 52.1673 46.6304 52.4138 46.6999C52.6603 46.7694 52.8878 46.8737 53.0964 47.0127C53.1785 47.057 53.2323 47.117 53.2575 47.1928C53.2828 47.2624 53.286 47.3319 53.267 47.4014C53.2544 47.4709 53.2228 47.5341 53.1722 47.591C53.1217 47.6416 53.0585 47.6732 52.9826 47.6858C52.9131 47.6921 52.8341 47.6732 52.7456 47.6289C52.556 47.5088 52.3664 47.4235 52.1768 47.373C51.9936 47.3224 51.8103 47.2971 51.627 47.2971C51.292 47.2971 51.0392 47.3603 50.8686 47.4867C50.7043 47.6068 50.6221 47.7711 50.6221 47.9797C50.6221 48.1377 50.6727 48.2672 50.7738 48.3684C50.8749 48.4695 51.0329 48.5421 51.2478 48.5864L52.1484 48.7665C52.5592 48.8487 52.8689 48.9877 53.0774 49.1836C53.2923 49.3795 53.3997 49.645 53.3997 49.9799C53.3997 50.416 53.2259 50.7605 52.8783 51.0133C52.5307 51.266 52.0694 51.3924 51.4943 51.3924ZM54.939 53.0799C54.7874 53.0799 54.6704 53.0388 54.5883 52.9566C54.5061 52.8745 54.465 52.7544 54.465 52.5964V47.098C54.465 46.94 54.5061 46.82 54.5883 46.7378C54.6704 46.6556 54.7842 46.6146 54.9296 46.6146C55.0812 46.6146 55.1982 46.6556 55.2803 46.7378C55.3625 46.82 55.4036 46.94 55.4036 47.098V47.9228L55.2993 47.7237C55.4004 47.3824 55.5995 47.1107 55.8965 46.9084C56.1936 46.6999 56.5443 46.5956 56.9488 46.5956C57.3596 46.5956 57.7167 46.6936 58.02 46.8895C58.3297 47.0854 58.5667 47.3603 58.731 47.7142C58.9017 48.0682 58.987 48.4947 58.987 48.994C58.987 49.4807 58.9017 49.9073 58.731 50.2738C58.5667 50.6341 58.3329 50.9121 58.0295 51.1081C57.7261 51.2976 57.3659 51.3924 56.9488 51.3924C56.5506 51.3924 56.203 51.2913 55.906 51.0891C55.609 50.8869 55.4099 50.6183 55.3088 50.2833H55.4225V52.5964C55.4225 52.7544 55.3783 52.8745 55.2898 52.9566C55.2076 53.0388 55.0907 53.0799 54.939 53.0799ZM56.7118 50.653C56.9772 50.653 57.2079 50.5898 57.4038 50.4634C57.5997 50.337 57.7514 50.1506 57.8589 49.9041C57.9663 49.6576 58.02 49.3543 58.02 48.994C58.02 48.4505 57.8999 48.0397 57.6598 47.7616C57.4259 47.4836 57.1099 47.3445 56.7118 47.3445C56.4527 47.3445 56.222 47.4077 56.0198 47.5341C55.8238 47.6542 55.6722 47.8375 55.5647 48.084C55.4573 48.3304 55.4036 48.6338 55.4036 48.994C55.4036 49.5312 55.5236 49.942 55.7638 50.2264C56.004 50.5108 56.32 50.653 56.7118 50.653ZM62.0757 51.3924C61.608 51.3924 61.2036 51.2945 60.8623 51.0986C60.5273 50.9027 60.2651 50.6246 60.0755 50.2643C59.8859 49.9041 59.7911 49.4807 59.7911 48.994C59.7911 48.6211 59.8448 48.2894 59.9522 47.9986C60.0597 47.7079 60.2113 47.4583 60.4073 47.2497C60.6095 47.0348 60.8497 46.8737 61.1277 46.7662C61.4121 46.6525 61.7281 46.5956 62.0757 46.5956C62.5371 46.5956 62.9352 46.6936 63.2702 46.8895C63.6115 47.0854 63.8769 47.3635 64.0665 47.7237C64.2561 48.0776 64.3509 48.5011 64.3509 48.994C64.3509 49.3606 64.2972 49.6924 64.1898 49.9894C64.0823 50.2865 63.9275 50.5393 63.7252 50.7478C63.5293 50.9564 63.2892 51.1175 63.0048 51.2313C62.7267 51.3387 62.417 51.3924 62.0757 51.3924ZM62.0757 50.653C62.3348 50.653 62.5624 50.5898 62.7583 50.4634C62.9542 50.337 63.1059 50.1506 63.2133 49.9041C63.3271 49.6576 63.384 49.3543 63.384 48.994C63.384 48.4505 63.2639 48.0397 63.0237 47.7616C62.7836 47.4836 62.4676 47.3445 62.0757 47.3445C61.8103 47.3445 61.5796 47.4077 61.3837 47.5341C61.1878 47.6542 61.0329 47.8375 60.9192 48.084C60.8117 48.3304 60.758 48.6338 60.758 48.994C60.758 49.5312 60.8781 49.942 61.1183 50.2264C61.3584 50.5108 61.6776 50.653 62.0757 50.653ZM65.9002 51.3735C65.7485 51.3735 65.6316 51.3324 65.5495 51.2502C65.4673 51.1618 65.4262 51.0417 65.4262 50.89V47.098C65.4262 46.94 65.4673 46.82 65.5495 46.7378C65.6316 46.6556 65.7454 46.6146 65.8907 46.6146C66.0424 46.6146 66.1562 46.6556 66.232 46.7378C66.3142 46.82 66.3552 46.94 66.3552 47.098V47.8375L66.251 47.6668C66.39 47.3129 66.608 47.0475 66.9051 46.8705C67.2021 46.6872 67.5434 46.5956 67.9289 46.5956C68.2955 46.5956 68.5988 46.6651 68.839 46.8042C69.0855 46.9369 69.2687 47.1423 69.3888 47.4204C69.5089 47.6921 69.5689 48.0366 69.5689 48.4537V50.89C69.5689 51.0417 69.5279 51.1618 69.4457 51.2502C69.3635 51.3324 69.2466 51.3735 69.0949 51.3735C68.9369 51.3735 68.8169 51.3324 68.7347 51.2502C68.6526 51.1618 68.6115 51.0417 68.6115 50.89V48.5105C68.6115 48.1124 68.5325 47.8217 68.3745 47.6384C68.2228 47.4551 67.9826 47.3635 67.654 47.3635C67.2685 47.3635 66.9588 47.4836 66.725 47.7237C66.4974 47.9639 66.3837 48.2862 66.3837 48.6907V50.89C66.3837 51.2123 66.2225 51.3735 65.9002 51.3735ZM72.5094 51.3924C72.2313 51.3924 71.9437 51.3608 71.6467 51.2976C71.356 51.2344 71.0874 51.127 70.8409 50.9753C70.7587 50.9185 70.7018 50.8553 70.6702 50.7857C70.6386 50.7162 70.626 50.6467 70.6323 50.5772C70.645 50.5013 70.6734 50.4381 70.7176 50.3876C70.7682 50.3307 70.8282 50.2959 70.8978 50.2833C70.9736 50.2707 71.0526 50.2865 71.1348 50.3307C71.3812 50.4697 71.6182 50.5677 71.8458 50.6246C72.0733 50.6751 72.2976 50.7004 72.5188 50.7004C72.8538 50.7004 73.1066 50.6404 73.2772 50.5203C73.4479 50.4002 73.5332 50.2391 73.5332 50.0368C73.5332 49.8725 73.4763 49.7461 73.3625 49.6576C73.2488 49.5628 73.0781 49.4901 72.8506 49.4396L71.95 49.2595C71.5582 49.1773 71.2612 49.0319 71.0589 48.8234C70.8567 48.6148 70.7556 48.3494 70.7556 48.0271C70.7556 47.7364 70.8346 47.4836 70.9926 47.2687C71.1506 47.0538 71.3718 46.8895 71.6562 46.7757C71.9406 46.6556 72.2692 46.5956 72.6421 46.5956C72.9201 46.5956 73.1824 46.6304 73.4289 46.6999C73.6754 46.7694 73.9029 46.8737 74.1115 47.0127C74.1936 47.057 74.2473 47.117 74.2726 47.1928C74.2979 47.2624 74.3011 47.3319 74.2821 47.4014C74.2695 47.4709 74.2379 47.5341 74.1873 47.591C74.1367 47.6416 74.0735 47.6732 73.9977 47.6858C73.9282 47.6921 73.8492 47.6732 73.7607 47.6289C73.5711 47.5088 73.3815 47.4235 73.1919 47.373C73.0086 47.3224 72.8253 47.2971 72.6421 47.2971C72.3071 47.2971 72.0543 47.3603 71.8837 47.4867C71.7194 47.6068 71.6372 47.7711 71.6372 47.9797C71.6372 48.1377 71.6878 48.2672 71.7889 48.3684C71.89 48.4695 72.048 48.5421 72.2629 48.5864L73.1635 48.7665C73.5743 48.8487 73.8839 48.9877 74.0925 49.1836C74.3074 49.3795 74.4148 49.645 74.4148 49.9799C74.4148 50.416 74.241 50.7605 73.8934 51.0133C73.5458 51.266 73.0845 51.3924 72.5094 51.3924ZM77.651 51.3924C77.1454 51.3924 76.7094 51.2976 76.3428 51.1081C75.9826 50.9121 75.7013 50.6372 75.4991 50.2833C75.3032 49.9231 75.2052 49.4965 75.2052 49.0035C75.2052 48.5232 75.3032 48.1029 75.4991 47.7427C75.695 47.3824 75.9636 47.1012 76.3049 46.899C76.6462 46.6967 77.0348 46.5956 77.4709 46.5956C77.7932 46.5956 78.0808 46.6493 78.3336 46.7568C78.5864 46.8579 78.8013 47.0096 78.9782 47.2118C79.1615 47.4077 79.2974 47.6479 79.3859 47.9323C79.4807 48.2167 79.5281 48.5358 79.5281 48.8897C79.5281 48.9972 79.4965 49.0793 79.4333 49.1362C79.3701 49.1868 79.2753 49.2121 79.1489 49.2121H75.9636V48.6243H78.8834L78.7223 48.757C78.7223 48.441 78.6749 48.1724 78.5801 47.9512C78.4916 47.73 78.3557 47.5626 78.1724 47.4488C77.9955 47.3287 77.7743 47.2687 77.5088 47.2687C77.2118 47.2687 76.959 47.3382 76.7504 47.4772C76.5482 47.6163 76.3934 47.809 76.2859 48.0555C76.1785 48.302 76.1248 48.5895 76.1248 48.9182V48.9751C76.1248 49.5312 76.2543 49.9515 76.5134 50.2359C76.7789 50.514 77.1612 50.653 77.6605 50.653C77.8501 50.653 78.0492 50.6277 78.2577 50.5772C78.4726 50.5266 78.6749 50.4413 78.8645 50.3212C78.9719 50.258 79.0667 50.2296 79.1489 50.2359C79.2373 50.2422 79.3069 50.2707 79.3574 50.3212C79.4143 50.3718 79.4491 50.435 79.4617 50.5108C79.4743 50.5867 79.4617 50.6657 79.4238 50.7478C79.3859 50.8237 79.3195 50.8932 79.2247 50.9564C79.0098 51.1017 78.7602 51.2123 78.4758 51.2882C78.1914 51.3577 77.9165 51.3924 77.651 51.3924Z" fill="black"/>
<rect x="40.9753" y="63.1794" width="72.4537" height="12.8656" rx="5.07853" fill="#E6F4FD"/>
<path d="M47.7927 71.2345C47.358 71.2345 46.9862 71.1452 46.6774 70.9664C46.3687 70.7876 46.131 70.5337 45.9644 70.2046C45.8019 69.8715 45.7207 69.4794 45.7207 69.0284C45.7207 68.6912 45.7674 68.3885 45.8608 68.1204C45.9543 67.8482 46.0883 67.6166 46.263 67.4256C46.4418 67.2306 46.6592 67.0823 46.9151 66.9808C47.1751 66.8792 47.4677 66.8284 47.7927 66.8284C48.0324 66.8284 48.262 66.8609 48.4813 66.9259C48.7048 66.9909 48.8978 67.0844 49.0603 67.2062C49.1294 67.2509 49.1741 67.3058 49.1944 67.3708C49.2187 67.4317 49.2228 67.4906 49.2066 67.5475C49.1944 67.6044 49.168 67.6532 49.1273 67.6938C49.0867 67.7303 49.0339 67.7507 48.9689 67.7547C48.9079 67.7588 48.8409 67.7364 48.7678 67.6877C48.6337 67.5861 48.4854 67.511 48.3229 67.4622C48.1604 67.4134 47.9897 67.3891 47.811 67.3891C47.5022 67.3891 47.2422 67.4541 47.0309 67.5841C46.8196 67.71 46.6592 67.8949 46.5495 68.1387C46.4398 68.3824 46.3849 68.679 46.3849 69.0284C46.3849 69.3778 46.4398 69.6764 46.5495 69.9243C46.6592 70.168 46.8196 70.3549 47.0309 70.4849C47.2422 70.6109 47.5022 70.6739 47.811 70.6739C47.9897 70.6739 48.1604 70.6495 48.3229 70.6007C48.4895 70.5479 48.6459 70.4707 48.7922 70.3692C48.8653 70.3245 48.9303 70.3041 48.9872 70.3082C49.0481 70.3123 49.0989 70.3326 49.1395 70.3692C49.1802 70.4057 49.2066 70.4524 49.2187 70.5093C49.235 70.5621 49.233 70.619 49.2127 70.68C49.1964 70.7368 49.1578 70.7856 49.0969 70.8262C48.9303 70.9603 48.7332 71.0619 48.5057 71.1309C48.2782 71.2 48.0405 71.2345 47.7927 71.2345ZM50.223 71.2223C50.1255 71.2223 50.0503 71.1959 49.9975 71.1431C49.9447 71.0862 49.9183 71.009 49.9183 70.9115V67.1514C49.9183 67.0498 49.9447 66.9726 49.9975 66.9198C50.0503 66.867 50.1255 66.8406 50.223 66.8406C50.3205 66.8406 50.3956 66.867 50.4485 66.9198C50.5053 66.9726 50.5338 67.0498 50.5338 67.1514V68.8395H50.4485C50.5378 68.612 50.678 68.4413 50.869 68.3276C51.0599 68.2098 51.2793 68.1509 51.5271 68.1509C51.7628 68.1509 51.9578 68.1955 52.1122 68.2849C52.2706 68.3702 52.3885 68.5023 52.4656 68.681C52.5428 68.8558 52.5814 69.0772 52.5814 69.3453V70.9115C52.5814 71.009 52.555 71.0862 52.5022 71.1431C52.4494 71.1959 52.3742 71.2223 52.2767 71.2223C52.1752 71.2223 52.098 71.1959 52.0451 71.1431C51.9923 71.0862 51.9659 71.009 51.9659 70.9115V69.3819C51.9659 69.1259 51.9151 68.939 51.8136 68.8212C51.7161 68.7034 51.5617 68.6445 51.3504 68.6445C51.1026 68.6445 50.9035 68.7217 50.7532 68.8761C50.6069 69.0305 50.5338 69.2377 50.5338 69.4977V70.9115C50.5338 71.1187 50.4302 71.2223 50.223 71.2223ZM54.8252 71.2345C54.5001 71.2345 54.2198 71.1736 53.9842 71.0517C53.7526 70.9258 53.5718 70.749 53.4418 70.5215C53.3158 70.2899 53.2528 70.0157 53.2528 69.6988C53.2528 69.39 53.3158 69.1198 53.4418 68.8883C53.5677 68.6567 53.7404 68.4759 53.9598 68.3459C54.1792 68.2159 54.429 68.1509 54.7094 68.1509C54.9166 68.1509 55.1014 68.1854 55.2639 68.2545C55.4265 68.3195 55.5646 68.417 55.6784 68.547C55.7962 68.6729 55.8835 68.8273 55.9404 69.0101C56.0014 69.193 56.0318 69.3981 56.0318 69.6257C56.0318 69.6947 56.0115 69.7475 55.9709 69.7841C55.9303 69.8166 55.8693 69.8329 55.7881 69.8329H53.7404V69.455H55.6174L55.5138 69.5403C55.5138 69.3372 55.4833 69.1645 55.4224 69.0223C55.3655 68.8801 55.2782 68.7725 55.1603 68.6993C55.0466 68.6221 54.9044 68.5835 54.7337 68.5835C54.5428 68.5835 54.3803 68.6282 54.2462 68.7176C54.1162 68.807 54.0167 68.9309 53.9476 69.0894C53.8785 69.2478 53.844 69.4327 53.844 69.6439V69.6805C53.844 70.038 53.9273 70.3082 54.0939 70.491C54.2645 70.6698 54.5103 70.7592 54.8313 70.7592C54.9531 70.7592 55.0811 70.7429 55.2152 70.7104C55.3533 70.6779 55.4833 70.6231 55.6052 70.5459C55.6743 70.5053 55.7352 70.487 55.7881 70.491C55.8449 70.4951 55.8896 70.5134 55.9221 70.5459C55.9587 70.5784 55.981 70.619 55.9892 70.6678C55.9973 70.7165 55.9892 70.7673 55.9648 70.8201C55.9404 70.8689 55.8977 70.9136 55.8368 70.9542C55.6987 71.0476 55.5382 71.1187 55.3554 71.1675C55.1725 71.2122 54.9958 71.2345 54.8252 71.2345ZM58.0131 71.2345C57.7084 71.2345 57.4443 71.1716 57.2209 71.0456C57.0015 70.9156 56.8308 70.7348 56.7089 70.5032C56.5871 70.2676 56.5261 69.9913 56.5261 69.6744C56.5261 69.4388 56.5607 69.2275 56.6297 69.0406C56.6988 68.8497 56.7963 68.6892 56.9222 68.5592C57.0523 68.4292 57.2087 68.3296 57.3915 68.2605C57.5784 68.1874 57.7856 68.1509 58.0131 68.1509C58.1553 68.1509 58.3036 68.1732 58.458 68.2179C58.6164 68.2585 58.7627 68.3276 58.8968 68.4251C58.9496 68.4576 58.9821 68.4982 58.9943 68.547C59.0105 68.5917 59.0126 68.6384 59.0004 68.6871C58.9923 68.7359 58.9699 68.7786 58.9333 68.8151C58.9008 68.8476 58.8602 68.8679 58.8115 68.8761C58.7627 68.8801 58.7099 68.8659 58.653 68.8334C58.5555 68.7643 58.456 68.7156 58.3544 68.6871C58.2528 68.6546 58.1553 68.6384 58.0619 68.6384C57.9156 68.6384 57.7856 68.6628 57.6718 68.7115C57.5621 68.7562 57.4687 68.8232 57.3915 68.9126C57.3143 68.9979 57.2554 69.1056 57.2148 69.2356C57.1782 69.3656 57.1599 69.5139 57.1599 69.6805C57.1599 70.0137 57.2371 70.2757 57.3915 70.4667C57.55 70.6536 57.7734 70.747 58.0619 70.747C58.1553 70.747 58.2528 70.7328 58.3544 70.7043C58.456 70.6759 58.5555 70.6271 58.653 70.5581C58.7099 70.5256 58.7627 70.5134 58.8115 70.5215C58.8602 70.5296 58.8988 70.552 58.9273 70.5885C58.9598 70.621 58.9801 70.6617 58.9882 70.7104C59.0004 70.7551 58.9984 70.8018 58.9821 70.8506C58.9659 70.8994 58.9313 70.94 58.8785 70.9725C58.7485 71.0659 58.6063 71.133 58.4519 71.1736C58.3016 71.2142 58.1553 71.2345 58.0131 71.2345ZM59.8523 71.2223C59.7548 71.2223 59.6797 71.1959 59.6269 71.1431C59.574 71.0862 59.5476 71.009 59.5476 70.9115V67.1514C59.5476 67.0498 59.574 66.9726 59.6269 66.9198C59.6797 66.867 59.7548 66.8406 59.8523 66.8406C59.9498 66.8406 60.025 66.867 60.0778 66.9198C60.1347 66.9726 60.1631 67.0498 60.1631 67.1514V69.5038H60.1753L61.315 68.3702C61.38 68.3052 61.4389 68.2545 61.4917 68.2179C61.5445 68.1813 61.6136 68.163 61.6989 68.163C61.7842 68.163 61.8492 68.1854 61.8939 68.2301C61.9386 68.2748 61.9609 68.3296 61.9609 68.3946C61.9609 68.4556 61.9305 68.5185 61.8695 68.5835L60.6629 69.778V69.4916L61.9792 70.8018C62.0442 70.8668 62.0747 70.9319 62.0706 70.9969C62.0666 71.0619 62.0402 71.1167 61.9914 71.1614C61.9427 71.202 61.8817 71.2223 61.8086 71.2223C61.7151 71.2223 61.64 71.2041 61.5831 71.1675C61.5303 71.1309 61.4673 71.0761 61.3942 71.003L60.1753 69.8207H60.1631V70.9115C60.1631 71.1187 60.0595 71.2223 59.8523 71.2223ZM65.2476 71.2345C65.0403 71.2345 64.8535 71.1939 64.6869 71.1127C64.5244 71.0314 64.3964 70.9217 64.3029 70.7836C64.2095 70.6454 64.1628 70.489 64.1628 70.3143C64.1628 70.0949 64.2176 69.9222 64.3273 69.7963C64.4411 69.6663 64.6259 69.5749 64.8819 69.5221C65.1419 69.4652 65.4913 69.4367 65.9301 69.4367H66.2165V69.8146H65.9362C65.6437 69.8146 65.4121 69.8288 65.2415 69.8572C65.0708 69.8857 64.9489 69.9344 64.8758 70.0035C64.8067 70.0685 64.7722 70.1599 64.7722 70.2777C64.7722 70.4321 64.825 70.5581 64.9307 70.6556C65.0363 70.749 65.1825 70.7958 65.3694 70.7958C65.5198 70.7958 65.6518 70.7612 65.7656 70.6921C65.8793 70.619 65.9687 70.5215 66.0337 70.3996C66.1028 70.2777 66.1373 70.1376 66.1373 69.9791V69.2783C66.1373 69.0467 66.0886 68.8801 65.991 68.7786C65.8935 68.677 65.7331 68.6262 65.5096 68.6262C65.3796 68.6262 65.2435 68.6425 65.1013 68.675C64.9632 68.7075 64.8189 68.7623 64.6686 68.8395C64.5995 68.872 64.5406 68.8822 64.4919 68.87C64.4431 68.8578 64.4045 68.8314 64.3761 68.7907C64.3476 68.7461 64.3314 68.6993 64.3273 68.6506C64.3273 68.5978 64.3395 68.547 64.3639 68.4982C64.3923 68.4495 64.439 68.4129 64.5041 68.3885C64.6828 68.3032 64.8596 68.2423 65.0343 68.2057C65.209 68.1691 65.3735 68.1509 65.5279 68.1509C65.8001 68.1509 66.0236 68.1935 66.1983 68.2788C66.377 68.3641 66.5091 68.4942 66.5944 68.6689C66.6797 68.8436 66.7224 69.069 66.7224 69.3453V70.9115C66.7224 71.009 66.698 71.0862 66.6492 71.1431C66.6005 71.1959 66.5294 71.2223 66.4359 71.2223C66.3465 71.2223 66.2754 71.1959 66.2226 71.1431C66.1698 71.0862 66.1434 71.009 66.1434 70.9115V70.5154H66.1983C66.1658 70.6657 66.1048 70.7958 66.0154 70.9054C65.9301 71.0111 65.8224 71.0923 65.6924 71.1492C65.5624 71.2061 65.4141 71.2345 65.2476 71.2345ZM68.5269 71.2345C68.21 71.2345 67.9703 71.1431 67.8078 70.9603C67.6493 70.7734 67.5701 70.5053 67.5701 70.1559V67.1514C67.5701 67.0498 67.5965 66.9726 67.6493 66.9198C67.7022 66.867 67.7773 66.8406 67.8748 66.8406C67.9723 66.8406 68.0475 66.867 68.1003 66.9198C68.1572 66.9726 68.1856 67.0498 68.1856 67.1514V70.1193C68.1856 70.3224 68.2263 70.4748 68.3075 70.5764C68.3928 70.6739 68.5147 70.7226 68.6732 70.7226C68.7097 70.7226 68.7422 70.7226 68.7707 70.7226C68.7991 70.7186 68.8276 70.7145 68.856 70.7104C68.9048 70.7064 68.9393 70.7206 68.9596 70.7531C68.9799 70.7815 68.9901 70.8425 68.9901 70.9359C68.9901 71.0212 68.9718 71.0883 68.9352 71.137C68.8987 71.1817 68.8398 71.2102 68.7585 71.2223C68.7219 71.2264 68.6833 71.2284 68.6427 71.2284C68.6021 71.2325 68.5635 71.2345 68.5269 71.2345ZM70.3897 71.2345C70.0728 71.2345 69.8331 71.1431 69.6706 70.9603C69.5121 70.7734 69.4329 70.5053 69.4329 70.1559V67.1514C69.4329 67.0498 69.4593 66.9726 69.5121 66.9198C69.565 66.867 69.6401 66.8406 69.7376 66.8406C69.8351 66.8406 69.9103 66.867 69.9631 66.9198C70.02 66.9726 70.0484 67.0498 70.0484 67.1514V70.1193C70.0484 70.3224 70.0891 70.4748 70.1703 70.5764C70.2556 70.6739 70.3775 70.7226 70.536 70.7226C70.5725 70.7226 70.605 70.7226 70.6335 70.7226C70.6619 70.7186 70.6904 70.7145 70.7188 70.7104C70.7676 70.7064 70.8021 70.7206 70.8224 70.7531C70.8427 70.7815 70.8529 70.8425 70.8529 70.9359C70.8529 71.0212 70.8346 71.0883 70.798 71.137C70.7615 71.1817 70.7025 71.2102 70.6213 71.2223C70.5847 71.2264 70.5461 71.2284 70.5055 71.2284C70.4649 71.2325 70.4263 71.2345 70.3897 71.2345ZM73.9447 71.2345C73.7659 71.2345 73.5811 71.2142 73.3901 71.1736C73.2032 71.133 73.0306 71.0639 72.8721 70.9664C72.8193 70.9298 72.7827 70.8892 72.7624 70.8445C72.7421 70.7998 72.734 70.7551 72.738 70.7104C72.7462 70.6617 72.7644 70.621 72.7929 70.5885C72.8254 70.552 72.864 70.5296 72.9087 70.5215C72.9574 70.5134 73.0082 70.5235 73.061 70.552C73.2195 70.6414 73.3718 70.7043 73.5181 70.7409C73.6644 70.7734 73.8086 70.7897 73.9508 70.7897C74.1661 70.7897 74.3286 70.7511 74.4383 70.6739C74.548 70.5967 74.6029 70.4931 74.6029 70.3631C74.6029 70.2574 74.5663 70.1762 74.4932 70.1193C74.42 70.0583 74.3104 70.0116 74.1641 69.9791L73.5851 69.8633C73.3332 69.8105 73.1423 69.7171 73.0123 69.583C72.8823 69.4489 72.8173 69.2783 72.8173 69.0711C72.8173 68.8842 72.868 68.7217 72.9696 68.5835C73.0712 68.4454 73.2134 68.3398 73.3962 68.2666C73.579 68.1894 73.7903 68.1509 74.03 68.1509C74.2088 68.1509 74.3774 68.1732 74.5358 68.2179C74.6943 68.2626 74.8406 68.3296 74.9746 68.419C75.0274 68.4474 75.062 68.486 75.0782 68.5348C75.0945 68.5795 75.0965 68.6242 75.0843 68.6689C75.0762 68.7136 75.0559 68.7542 75.0234 68.7907C74.9909 68.8232 74.9502 68.8436 74.9015 68.8517C74.8568 68.8558 74.806 68.8436 74.7491 68.8151C74.6273 68.7379 74.5054 68.6831 74.3835 68.6506C74.2657 68.6181 74.1478 68.6018 74.03 68.6018C73.8147 68.6018 73.6522 68.6425 73.5425 68.7237C73.4368 68.8009 73.384 68.9065 73.384 69.0406C73.384 69.1422 73.4165 69.2255 73.4815 69.2905C73.5465 69.3555 73.6481 69.4022 73.7862 69.4306L74.3652 69.5464C74.6293 69.5992 74.8284 69.6886 74.9624 69.8146C75.1006 69.9405 75.1696 70.1112 75.1696 70.3265C75.1696 70.6068 75.0579 70.8283 74.8345 70.9908C74.611 71.1533 74.3144 71.2345 73.9447 71.2345ZM76.9149 71.2345C76.6752 71.2345 76.4741 71.1898 76.3116 71.1005C76.1531 71.0111 76.0332 70.879 75.952 70.7043C75.8748 70.5256 75.8362 70.3021 75.8362 70.034V68.4738C75.8362 68.3682 75.8626 68.291 75.9154 68.2423C75.9682 68.1894 76.0434 68.163 76.1409 68.163C76.2384 68.163 76.3136 68.1894 76.3664 68.2423C76.4233 68.291 76.4517 68.3682 76.4517 68.4738V70.0401C76.4517 70.2798 76.5005 70.4565 76.598 70.5703C76.6955 70.684 76.8499 70.7409 77.0611 70.7409C77.2927 70.7409 77.4796 70.6637 77.6218 70.5093C77.7681 70.3509 77.8412 70.1437 77.8412 69.8877V68.4738C77.8412 68.3682 77.8676 68.291 77.9204 68.2423C77.9732 68.1894 78.0504 68.163 78.152 68.163C78.2495 68.163 78.3247 68.1894 78.3775 68.2423C78.4303 68.291 78.4567 68.3682 78.4567 68.4738V70.9115C78.4567 71.1187 78.3572 71.2223 78.1581 71.2223C78.0647 71.2223 77.9915 71.1959 77.9387 71.1431C77.8859 71.0862 77.8595 71.009 77.8595 70.9115V70.3935L77.9387 70.5276C77.8575 70.7551 77.7274 70.9298 77.5487 71.0517C77.3699 71.1736 77.1586 71.2345 76.9149 71.2345ZM80.9208 71.2345C80.6608 71.2345 80.4353 71.1695 80.2444 71.0395C80.0534 70.9054 79.9254 70.7287 79.8604 70.5093L79.9275 70.3996V70.9115C79.9275 71.009 79.9011 71.0862 79.8483 71.1431C79.7954 71.1959 79.7223 71.2223 79.6289 71.2223C79.5314 71.2223 79.4562 71.1959 79.4034 71.1431C79.3506 71.0862 79.3242 71.009 79.3242 70.9115V67.1514C79.3242 67.0498 79.3506 66.9726 79.4034 66.9198C79.4562 66.867 79.5314 66.8406 79.6289 66.8406C79.7264 66.8406 79.8015 66.867 79.8544 66.9198C79.9112 66.9726 79.9397 67.0498 79.9397 67.1514V68.8578H79.8665C79.9315 68.6425 80.0595 68.4718 80.2505 68.3459C80.4414 68.2159 80.6649 68.1509 80.9208 68.1509C81.189 68.1509 81.4206 68.2138 81.6156 68.3398C81.8106 68.4657 81.9609 68.6425 82.0666 68.87C82.1763 69.0975 82.2311 69.3717 82.2311 69.6927C82.2311 70.0055 82.1763 70.2798 82.0666 70.5154C81.9609 70.747 81.8086 70.9258 81.6095 71.0517C81.4145 71.1736 81.1849 71.2345 80.9208 71.2345ZM80.7685 70.7592C80.9391 70.7592 81.0874 70.7186 81.2134 70.6373C81.3393 70.556 81.4368 70.4362 81.5059 70.2777C81.575 70.1193 81.6095 69.9243 81.6095 69.6927C81.6095 69.3433 81.5323 69.0792 81.3779 68.9004C81.2276 68.7217 81.0244 68.6323 80.7685 68.6323C80.6019 68.6323 80.4536 68.6729 80.3236 68.7542C80.1977 68.8314 80.1002 68.9492 80.0311 69.1076C79.962 69.2661 79.9275 69.4611 79.9275 69.6927C79.9275 70.038 80.0047 70.3021 80.1591 70.4849C80.3134 70.6678 80.5166 70.7592 80.7685 70.7592ZM83.2417 71.2223C83.1441 71.2223 83.069 71.1959 83.0162 71.1431C82.9633 71.0862 82.9369 71.009 82.9369 70.9115V68.4738C82.9369 68.3723 82.9633 68.2951 83.0162 68.2423C83.069 68.1894 83.1421 68.163 83.2356 68.163C83.3331 68.163 83.4062 68.1894 83.455 68.2423C83.5078 68.2951 83.5342 68.3723 83.5342 68.4738V68.9736L83.4671 68.8395C83.5484 68.6242 83.6743 68.4556 83.845 68.3337C84.0156 68.2118 84.2208 68.1509 84.4605 68.1509C84.7083 68.1509 84.9094 68.2098 85.0638 68.3276C85.2182 68.4454 85.3239 68.6262 85.3807 68.87H85.2954C85.3726 68.6465 85.5046 68.4718 85.6915 68.3459C85.8784 68.2159 86.0958 68.1509 86.3436 68.1509C86.5711 68.1509 86.758 68.1955 86.9043 68.2849C87.0506 68.3702 87.1602 68.5023 87.2334 68.681C87.3065 68.8558 87.3431 69.0772 87.3431 69.3453V70.9115C87.3431 71.009 87.3146 71.0862 87.2578 71.1431C87.2049 71.1959 87.1298 71.2223 87.0323 71.2223C86.9348 71.2223 86.8596 71.1959 86.8068 71.1431C86.754 71.0862 86.7276 71.009 86.7276 70.9115V69.3758C86.7276 69.1239 86.6829 68.939 86.5935 68.8212C86.5082 68.7034 86.366 68.6445 86.1669 68.6445C85.9434 68.6445 85.7667 68.7217 85.6367 68.8761C85.5067 69.0305 85.4417 69.2438 85.4417 69.516V70.9115C85.4417 71.009 85.4153 71.0862 85.3624 71.1431C85.3096 71.1959 85.2345 71.2223 85.137 71.2223C85.0395 71.2223 84.9623 71.1959 84.9054 71.1431C84.8526 71.0862 84.8262 71.009 84.8262 70.9115V69.3758C84.8262 69.1239 84.7835 68.939 84.6982 68.8212C84.6129 68.7034 84.4707 68.6445 84.2716 68.6445C84.0481 68.6445 83.8714 68.7217 83.7414 68.8761C83.6154 69.0305 83.5525 69.2438 83.5525 69.516V70.9115C83.5525 71.1187 83.4489 71.2223 83.2417 71.2223ZM88.5084 71.2163C88.4109 71.2163 88.3357 71.1878 88.2829 71.1309C88.2301 71.07 88.2036 70.9867 88.2036 70.8811V68.5043C88.2036 68.3987 88.2301 68.3174 88.2829 68.2605C88.3357 68.2037 88.4109 68.1752 88.5084 68.1752C88.6059 68.1752 88.681 68.2037 88.7338 68.2605C88.7907 68.3174 88.8192 68.3987 88.8192 68.5043V70.8811C88.8192 70.9867 88.7928 71.07 88.7399 71.1309C88.6871 71.1878 88.6099 71.2163 88.5084 71.2163ZM88.5084 67.5414C88.3865 67.5414 88.291 67.511 88.2219 67.45C88.1569 67.3891 88.1244 67.3038 88.1244 67.1941C88.1244 67.0803 88.1569 66.995 88.2219 66.9381C88.291 66.8772 88.3865 66.8467 88.5084 66.8467C88.6302 66.8467 88.7237 66.8772 88.7887 66.9381C88.8578 66.995 88.8923 67.0803 88.8923 67.1941C88.8923 67.3038 88.8578 67.3891 88.7887 67.45C88.7237 67.511 88.6302 67.5414 88.5084 67.5414ZM90.7277 71.2345C90.5489 71.2345 90.364 71.2142 90.1731 71.1736C89.9862 71.133 89.8135 71.0639 89.6551 70.9664C89.6023 70.9298 89.5657 70.8892 89.5454 70.8445C89.5251 70.7998 89.5169 70.7551 89.521 70.7104C89.5291 70.6617 89.5474 70.621 89.5759 70.5885C89.6084 70.552 89.647 70.5296 89.6916 70.5215C89.7404 70.5134 89.7912 70.5235 89.844 70.552C90.0024 70.6414 90.1548 70.7043 90.3011 70.7409C90.4473 70.7734 90.5916 70.7897 90.7338 70.7897C90.9491 70.7897 91.1116 70.7511 91.2213 70.6739C91.331 70.5967 91.3858 70.4931 91.3858 70.3631C91.3858 70.2574 91.3493 70.1762 91.2761 70.1193C91.203 70.0583 91.0933 70.0116 90.9471 69.9791L90.3681 69.8633C90.1162 69.8105 89.9253 69.7171 89.7952 69.583C89.6652 69.4489 89.6002 69.2783 89.6002 69.0711C89.6002 68.8842 89.651 68.7217 89.7526 68.5835C89.8542 68.4454 89.9964 68.3398 90.1792 68.2666C90.362 68.1894 90.5733 68.1509 90.813 68.1509C90.9917 68.1509 91.1604 68.1732 91.3188 68.2179C91.4773 68.2626 91.6235 68.3296 91.7576 68.419C91.8104 68.4474 91.8449 68.486 91.8612 68.5348C91.8774 68.5795 91.8795 68.6242 91.8673 68.6689C91.8592 68.7136 91.8388 68.7542 91.8063 68.7907C91.7738 68.8232 91.7332 68.8436 91.6845 68.8517C91.6398 68.8558 91.589 68.8436 91.5321 68.8151C91.4102 68.7379 91.2883 68.6831 91.1664 68.6506C91.0486 68.6181 90.9308 68.6018 90.813 68.6018C90.5977 68.6018 90.4351 68.6425 90.3254 68.7237C90.2198 68.8009 90.167 68.9065 90.167 69.0406C90.167 69.1422 90.1995 69.2255 90.2645 69.2905C90.3295 69.3555 90.4311 69.4022 90.5692 69.4306L91.1482 69.5464C91.4122 69.5992 91.6113 69.6886 91.7454 69.8146C91.8835 69.9405 91.9526 70.1112 91.9526 70.3265C91.9526 70.6068 91.8409 70.8283 91.6174 70.9908C91.394 71.1533 91.0974 71.2345 90.7277 71.2345ZM93.6796 71.2345C93.5008 71.2345 93.3159 71.2142 93.125 71.1736C92.9381 71.133 92.7654 71.0639 92.607 70.9664C92.5542 70.9298 92.5176 70.8892 92.4973 70.8445C92.477 70.7998 92.4688 70.7551 92.4729 70.7104C92.481 70.6617 92.4993 70.621 92.5278 70.5885C92.5603 70.552 92.5989 70.5296 92.6435 70.5215C92.6923 70.5134 92.7431 70.5235 92.7959 70.552C92.9543 70.6414 93.1067 70.7043 93.253 70.7409C93.3992 70.7734 93.5435 70.7897 93.6857 70.7897C93.901 70.7897 94.0635 70.7511 94.1732 70.6739C94.2829 70.5967 94.3377 70.4931 94.3377 70.3631C94.3377 70.2574 94.3012 70.1762 94.228 70.1193C94.1549 70.0583 94.0452 70.0116 93.899 69.9791L93.32 69.8633C93.0681 69.8105 92.8772 69.7171 92.7471 69.583C92.6171 69.4489 92.5521 69.2783 92.5521 69.0711C92.5521 68.8842 92.6029 68.7217 92.7045 68.5835C92.8061 68.4454 92.9483 68.3398 93.1311 68.2666C93.3139 68.1894 93.5252 68.1509 93.7649 68.1509C93.9436 68.1509 94.1123 68.1732 94.2707 68.2179C94.4292 68.2626 94.5754 68.3296 94.7095 68.419C94.7623 68.4474 94.7968 68.486 94.8131 68.5348C94.8293 68.5795 94.8314 68.6242 94.8192 68.6689C94.8111 68.7136 94.7907 68.7542 94.7582 68.7907C94.7257 68.8232 94.6851 68.8436 94.6364 68.8517C94.5917 68.8558 94.5409 68.8436 94.484 68.8151C94.3621 68.7379 94.2402 68.6831 94.1183 68.6506C94.0005 68.6181 93.8827 68.6018 93.7649 68.6018C93.5496 68.6018 93.387 68.6425 93.2773 68.7237C93.1717 68.8009 93.1189 68.9065 93.1189 69.0406C93.1189 69.1422 93.1514 69.2255 93.2164 69.2905C93.2814 69.3555 93.383 69.4022 93.5211 69.4306L94.1001 69.5464C94.3642 69.5992 94.5632 69.6886 94.6973 69.8146C94.8354 69.9405 94.9045 70.1112 94.9045 70.3265C94.9045 70.6068 94.7928 70.8283 94.5693 70.9908C94.3459 71.1533 94.0493 71.2345 93.6796 71.2345ZM95.8941 71.2163C95.7965 71.2163 95.7214 71.1878 95.6686 71.1309C95.6158 71.07 95.5893 70.9867 95.5893 70.8811V68.5043C95.5893 68.3987 95.6158 68.3174 95.6686 68.2605C95.7214 68.2037 95.7965 68.1752 95.8941 68.1752C95.9916 68.1752 96.0667 68.2037 96.1195 68.2605C96.1764 68.3174 96.2049 68.3987 96.2049 68.5043V70.8811C96.2049 70.9867 96.1785 71.07 96.1256 71.1309C96.0728 71.1878 95.9956 71.2163 95.8941 71.2163ZM95.8941 67.5414C95.7722 67.5414 95.6767 67.511 95.6076 67.45C95.5426 67.3891 95.5101 67.3038 95.5101 67.1941C95.5101 67.0803 95.5426 66.995 95.6076 66.9381C95.6767 66.8772 95.7722 66.8467 95.8941 66.8467C96.0159 66.8467 96.1094 66.8772 96.1744 66.9381C96.2435 66.995 96.278 67.0803 96.278 67.1941C96.278 67.3038 96.2435 67.3891 96.1744 67.45C96.1094 67.511 96.0159 67.5414 95.8941 67.5414ZM98.3632 71.2345C98.0626 71.2345 97.8026 71.1716 97.5832 71.0456C97.3678 70.9197 97.1992 70.7409 97.0773 70.5093C96.9555 70.2777 96.8945 70.0055 96.8945 69.6927C96.8945 69.453 96.929 69.2397 96.9981 69.0528C97.0672 68.8659 97.1647 68.7054 97.2906 68.5714C97.4206 68.4332 97.575 68.3296 97.7538 68.2605C97.9366 68.1874 98.1398 68.1509 98.3632 68.1509C98.6598 68.1509 98.9158 68.2138 99.1311 68.3398C99.3505 68.4657 99.5211 68.6445 99.643 68.8761C99.7649 69.1036 99.8258 69.3758 99.8258 69.6927C99.8258 69.9283 99.7913 70.1416 99.7222 70.3326C99.6532 70.5235 99.5536 70.6861 99.4236 70.8201C99.2977 70.9542 99.1433 71.0578 98.9605 71.1309C98.7817 71.2 98.5826 71.2345 98.3632 71.2345ZM98.3632 70.7592C98.5298 70.7592 98.6761 70.7186 98.802 70.6373C98.928 70.556 99.0255 70.4362 99.0945 70.2777C99.1677 70.1193 99.2042 69.9243 99.2042 69.6927C99.2042 69.3433 99.127 69.0792 98.9726 68.9004C98.8183 68.7217 98.6151 68.6323 98.3632 68.6323C98.1926 68.6323 98.0443 68.6729 97.9183 68.7542C97.7924 68.8314 97.6929 68.9492 97.6197 69.1076C97.5507 69.2661 97.5161 69.4611 97.5161 69.6927C97.5161 70.038 97.5933 70.3021 97.7477 70.4849C97.9021 70.6678 98.1073 70.7592 98.3632 70.7592ZM100.822 71.2223C100.724 71.2223 100.649 71.1959 100.596 71.1431C100.544 71.0862 100.517 71.009 100.517 70.9115V68.4738C100.517 68.3723 100.544 68.2951 100.596 68.2423C100.649 68.1894 100.722 68.163 100.816 68.163C100.913 68.163 100.986 68.1894 101.035 68.2423C101.088 68.2951 101.114 68.3723 101.114 68.4738V68.9492L101.047 68.8395C101.137 68.612 101.277 68.4413 101.468 68.3276C101.659 68.2098 101.878 68.1509 102.126 68.1509C102.362 68.1509 102.557 68.1955 102.711 68.2849C102.869 68.3702 102.987 68.5023 103.065 68.681C103.142 68.8558 103.18 69.0772 103.18 69.3453V70.9115C103.18 71.009 103.154 71.0862 103.101 71.1431C103.048 71.1959 102.973 71.2223 102.876 71.2223C102.774 71.2223 102.697 71.1959 102.644 71.1431C102.591 71.0862 102.565 71.009 102.565 70.9115V69.3819C102.565 69.1259 102.514 68.939 102.412 68.8212C102.315 68.7034 102.161 68.6445 101.949 68.6445C101.701 68.6445 101.502 68.7217 101.352 68.8761C101.206 69.0305 101.133 69.2377 101.133 69.4977V70.9115C101.133 71.1187 101.029 71.2223 100.822 71.2223ZM105.071 71.2345C104.892 71.2345 104.707 71.2142 104.516 71.1736C104.329 71.133 104.156 71.0639 103.998 70.9664C103.945 70.9298 103.909 70.8892 103.888 70.8445C103.868 70.7998 103.86 70.7551 103.864 70.7104C103.872 70.6617 103.89 70.621 103.919 70.5885C103.951 70.552 103.99 70.5296 104.035 70.5215C104.083 70.5134 104.134 70.5235 104.187 70.552C104.345 70.6414 104.498 70.7043 104.644 70.7409C104.79 70.7734 104.934 70.7897 105.077 70.7897C105.292 70.7897 105.454 70.7511 105.564 70.6739C105.674 70.5967 105.729 70.4931 105.729 70.3631C105.729 70.2574 105.692 70.1762 105.619 70.1193C105.546 70.0583 105.436 70.0116 105.29 69.9791L104.711 69.8633C104.459 69.8105 104.268 69.7171 104.138 69.583C104.008 69.4489 103.943 69.2783 103.943 69.0711C103.943 68.8842 103.994 68.7217 104.095 68.5835C104.197 68.4454 104.339 68.3398 104.522 68.2666C104.705 68.1894 104.916 68.1509 105.156 68.1509C105.335 68.1509 105.503 68.1732 105.662 68.2179C105.82 68.2626 105.966 68.3296 106.1 68.419C106.153 68.4474 106.188 68.486 106.204 68.5348C106.22 68.5795 106.222 68.6242 106.21 68.6689C106.202 68.7136 106.182 68.7542 106.149 68.7907C106.117 68.8232 106.076 68.8436 106.027 68.8517C105.983 68.8558 105.932 68.8436 105.875 68.8151C105.753 68.7379 105.631 68.6831 105.509 68.6506C105.392 68.6181 105.274 68.6018 105.156 68.6018C104.941 68.6018 104.778 68.6425 104.668 68.7237C104.563 68.8009 104.51 68.9065 104.51 69.0406C104.51 69.1422 104.542 69.2255 104.607 69.2905C104.672 69.3555 104.774 69.4022 104.912 69.4306L105.491 69.5464C105.755 69.5992 105.954 69.6886 106.088 69.8146C106.226 69.9405 106.295 70.1112 106.295 70.3265C106.295 70.6068 106.184 70.8283 105.96 70.9908C105.737 71.1533 105.44 71.2345 105.071 71.2345Z" fill="black"/>
<rect x="40.9753" y="63.1794" width="72.4537" height="12.8656" rx="5.07853" stroke="#B1DCF6" stroke-width="0.677138"/>
<path d="M132.867 71.5925C132.766 71.5925 132.687 71.564 132.63 71.5071C132.577 71.4503 132.551 71.371 132.551 71.2695V67.5764C132.551 67.4707 132.579 67.3915 132.636 67.3387C132.693 67.2818 132.772 67.2534 132.874 67.2534H134.33C134.793 67.2534 135.151 67.3631 135.403 67.5825C135.655 67.8018 135.78 68.1127 135.78 68.5149C135.78 68.7749 135.724 68.9983 135.61 69.1852C135.496 69.3721 135.329 69.5143 135.11 69.6118C134.895 69.7093 134.635 69.7581 134.33 69.7581L134.385 69.6728H134.543C134.706 69.6728 134.846 69.7134 134.964 69.7947C135.086 69.8759 135.195 70.0059 135.293 70.1847L135.817 71.1598C135.858 71.2329 135.876 71.304 135.872 71.3731C135.872 71.4381 135.847 71.4909 135.799 71.5315C135.754 71.5722 135.689 71.5925 135.604 71.5925C135.514 71.5925 135.441 71.5742 135.384 71.5376C135.332 71.497 135.283 71.4381 135.238 71.3609L134.598 70.1786C134.513 70.0202 134.415 69.9145 134.306 69.8617C134.196 69.8048 134.052 69.7764 133.873 69.7764H133.184V71.2695C133.184 71.371 133.158 71.4503 133.105 71.5071C133.052 71.564 132.973 71.5925 132.867 71.5925ZM133.184 69.301H134.226C134.535 69.301 134.769 69.236 134.927 69.106C135.086 68.976 135.165 68.783 135.165 68.5271C135.165 68.2752 135.086 68.0842 134.927 67.9542C134.769 67.8242 134.535 67.7592 134.226 67.7592H133.184V69.301ZM137.932 71.6047C137.607 71.6047 137.327 71.5437 137.091 71.4218C136.859 71.2959 136.679 71.1191 136.549 70.8916C136.423 70.66 136.36 70.3858 136.36 70.0689C136.36 69.7601 136.423 69.49 136.549 69.2584C136.675 69.0268 136.847 68.846 137.067 68.716C137.286 68.586 137.536 68.521 137.816 68.521C138.023 68.521 138.208 68.5555 138.371 68.6246C138.533 68.6896 138.671 68.7871 138.785 68.9171C138.903 69.043 138.99 69.1974 139.047 69.3803C139.108 69.5631 139.139 69.7683 139.139 69.9958C139.139 70.0648 139.118 70.1177 139.078 70.1542C139.037 70.1867 138.976 70.203 138.895 70.203H136.847V69.8251H138.724L138.621 69.9105C138.621 69.7073 138.59 69.5346 138.529 69.3924C138.472 69.2502 138.385 69.1426 138.267 69.0694C138.153 68.9923 138.011 68.9537 137.841 68.9537C137.65 68.9537 137.487 68.9983 137.353 69.0877C137.223 69.1771 137.123 69.301 137.054 69.4595C136.985 69.6179 136.951 69.8028 136.951 70.0141V70.0506C136.951 70.4082 137.034 70.6783 137.201 70.8612C137.371 71.0399 137.617 71.1293 137.938 71.1293C138.06 71.1293 138.188 71.1131 138.322 71.0805C138.46 71.048 138.59 70.9932 138.712 70.916C138.781 70.8754 138.842 70.8571 138.895 70.8612C138.952 70.8652 138.996 70.8835 139.029 70.916C139.065 70.9485 139.088 70.9891 139.096 71.0379C139.104 71.0866 139.096 71.1374 139.072 71.1902C139.047 71.239 139.005 71.2837 138.944 71.3243C138.805 71.4178 138.645 71.4889 138.462 71.5376C138.279 71.5823 138.103 71.6047 137.932 71.6047ZM140.127 71.5925C140.029 71.5925 139.954 71.5661 139.901 71.5132C139.848 71.4564 139.822 71.3792 139.822 71.2817V68.844C139.822 68.7424 139.848 68.6652 139.901 68.6124C139.954 68.5596 140.027 68.5332 140.12 68.5332C140.218 68.5332 140.291 68.5596 140.34 68.6124C140.393 68.6652 140.419 68.7424 140.419 68.844V69.3437L140.352 69.2096C140.433 68.9943 140.559 68.8257 140.73 68.7038C140.901 68.5819 141.106 68.521 141.345 68.521C141.593 68.521 141.794 68.5799 141.949 68.6977C142.103 68.8155 142.209 68.9963 142.266 69.2401H142.18C142.258 69.0166 142.39 68.8419 142.576 68.716C142.763 68.586 142.981 68.521 143.229 68.521C143.456 68.521 143.643 68.5657 143.789 68.655C143.935 68.7404 144.045 68.8724 144.118 69.0512C144.191 69.2259 144.228 69.4473 144.228 69.7154V71.2817C144.228 71.3792 144.2 71.4564 144.143 71.5132C144.09 71.5661 144.015 71.5925 143.917 71.5925C143.82 71.5925 143.745 71.5661 143.692 71.5132C143.639 71.4564 143.612 71.3792 143.612 71.2817V69.7459C143.612 69.494 143.568 69.3092 143.478 69.1913C143.393 69.0735 143.251 69.0146 143.052 69.0146C142.828 69.0146 142.652 69.0918 142.522 69.2462C142.392 69.4006 142.327 69.6139 142.327 69.8861V71.2817C142.327 71.3792 142.3 71.4564 142.247 71.5132C142.195 71.5661 142.119 71.5925 142.022 71.5925C141.924 71.5925 141.847 71.5661 141.79 71.5132C141.737 71.4564 141.711 71.3792 141.711 71.2817V69.7459C141.711 69.494 141.668 69.3092 141.583 69.1913C141.498 69.0735 141.356 69.0146 141.156 69.0146C140.933 69.0146 140.756 69.0918 140.626 69.2462C140.5 69.4006 140.437 69.6139 140.437 69.8861V71.2817C140.437 71.4889 140.334 71.5925 140.127 71.5925ZM145.393 71.5864C145.296 71.5864 145.221 71.5579 145.168 71.5011C145.115 71.4401 145.089 71.3568 145.089 71.2512V68.8744C145.089 68.7688 145.115 68.6875 145.168 68.6307C145.221 68.5738 145.296 68.5453 145.393 68.5453C145.491 68.5453 145.566 68.5738 145.619 68.6307C145.676 68.6875 145.704 68.7688 145.704 68.8744V71.2512C145.704 71.3568 145.678 71.4401 145.625 71.5011C145.572 71.5579 145.495 71.5864 145.393 71.5864ZM145.393 67.9115C145.271 67.9115 145.176 67.8811 145.107 67.8201C145.042 67.7592 145.009 67.6739 145.009 67.5642C145.009 67.4504 145.042 67.3651 145.107 67.3082C145.176 67.2473 145.271 67.2168 145.393 67.2168C145.515 67.2168 145.609 67.2473 145.674 67.3082C145.743 67.3651 145.777 67.4504 145.777 67.5642C145.777 67.6739 145.743 67.7592 145.674 67.8201C145.609 67.8811 145.515 67.9115 145.393 67.9115ZM146.875 71.5925C146.778 71.5925 146.702 71.5661 146.65 71.5132C146.597 71.4564 146.57 71.3792 146.57 71.2817V68.844C146.57 68.7424 146.597 68.6652 146.65 68.6124C146.702 68.5596 146.776 68.5332 146.869 68.5332C146.967 68.5332 147.04 68.5596 147.088 68.6124C147.141 68.6652 147.168 68.7424 147.168 68.844V69.3193L147.101 69.2096C147.19 68.9821 147.33 68.8115 147.521 68.6977C147.712 68.5799 147.931 68.521 148.179 68.521C148.415 68.521 148.61 68.5657 148.764 68.655C148.923 68.7404 149.041 68.8724 149.118 69.0512C149.195 69.2259 149.234 69.4473 149.234 69.7154V71.2817C149.234 71.3792 149.207 71.4564 149.154 71.5132C149.102 71.5661 149.026 71.5925 148.929 71.5925C148.827 71.5925 148.75 71.5661 148.697 71.5132C148.645 71.4564 148.618 71.3792 148.618 71.2817V69.752C148.618 69.496 148.567 69.3092 148.466 69.1913C148.368 69.0735 148.214 69.0146 148.003 69.0146C147.755 69.0146 147.556 69.0918 147.405 69.2462C147.259 69.4006 147.186 69.6078 147.186 69.8678V71.2817C147.186 71.4889 147.082 71.5925 146.875 71.5925ZM151.215 71.6047C150.955 71.6047 150.726 71.5437 150.527 71.4218C150.332 71.2959 150.179 71.1171 150.07 70.8855C149.96 70.6499 149.905 70.3756 149.905 70.0628C149.905 69.7418 149.96 69.4676 150.07 69.2401C150.179 69.0126 150.332 68.8358 150.527 68.7099C150.726 68.5839 150.955 68.521 151.215 68.521C151.475 68.521 151.699 68.586 151.886 68.716C152.077 68.8419 152.205 69.0126 152.27 69.2279H152.203V67.5215C152.203 67.4199 152.229 67.3427 152.282 67.2899C152.335 67.2371 152.41 67.2107 152.507 67.2107C152.605 67.2107 152.68 67.2371 152.733 67.2899C152.79 67.3427 152.818 67.4199 152.818 67.5215V71.2817C152.818 71.3792 152.792 71.4564 152.739 71.5132C152.686 71.5661 152.611 71.5925 152.513 71.5925C152.416 71.5925 152.341 71.5661 152.288 71.5132C152.235 71.4564 152.209 71.3792 152.209 71.2817V70.7454L152.276 70.8794C152.211 71.0988 152.083 71.2756 151.892 71.4096C151.705 71.5396 151.479 71.6047 151.215 71.6047ZM151.374 71.1293C151.54 71.1293 151.687 71.0887 151.813 71.0074C151.938 70.9262 152.036 70.8063 152.105 70.6479C152.178 70.4894 152.215 70.2944 152.215 70.0628C152.215 69.7134 152.138 69.4493 151.983 69.2706C151.829 69.0918 151.626 69.0024 151.374 69.0024C151.203 69.0024 151.055 69.043 150.929 69.1243C150.803 69.2015 150.703 69.3193 150.63 69.4778C150.561 69.6362 150.527 69.8312 150.527 70.0628C150.527 70.4082 150.604 70.6722 150.758 70.8551C150.913 71.0379 151.118 71.1293 151.374 71.1293ZM156.246 71.6047C155.929 71.6047 155.689 71.5132 155.527 71.3304C155.368 71.1435 155.289 70.8754 155.289 70.526V67.5215C155.289 67.4199 155.316 67.3427 155.368 67.2899C155.421 67.2371 155.496 67.2107 155.594 67.2107C155.691 67.2107 155.767 67.2371 155.819 67.2899C155.876 67.3427 155.905 67.4199 155.905 67.5215V70.4894C155.905 70.6925 155.945 70.8449 156.027 70.9465C156.112 71.044 156.234 71.0927 156.392 71.0927C156.429 71.0927 156.461 71.0927 156.49 71.0927C156.518 71.0887 156.547 71.0846 156.575 71.0805C156.624 71.0765 156.658 71.0907 156.679 71.1232C156.699 71.1516 156.709 71.2126 156.709 71.306C156.709 71.3914 156.691 71.4584 156.654 71.5071C156.618 71.5518 156.559 71.5803 156.478 71.5925C156.441 71.5965 156.402 71.5986 156.362 71.5986C156.321 71.6026 156.283 71.6047 156.246 71.6047ZM158.103 71.6047C157.896 71.6047 157.709 71.564 157.542 71.4828C157.38 71.4015 157.252 71.2918 157.158 71.1537C157.065 71.0155 157.018 70.8591 157.018 70.6844C157.018 70.465 157.073 70.2924 157.183 70.1664C157.296 70.0364 157.481 69.945 157.737 69.8922C157.997 69.8353 158.347 69.8069 158.785 69.8069H159.072V70.1847H158.791C158.499 70.1847 158.267 70.1989 158.097 70.2274C157.926 70.2558 157.804 70.3045 157.731 70.3736C157.662 70.4386 157.627 70.53 157.627 70.6479C157.627 70.8022 157.68 70.9282 157.786 71.0257C157.891 71.1191 158.038 71.1659 158.225 71.1659C158.375 71.1659 158.507 71.1313 158.621 71.0623C158.735 70.9891 158.824 70.8916 158.889 70.7697C158.958 70.6479 158.993 70.5077 158.993 70.3492V69.6484C158.993 69.4168 158.944 69.2502 158.846 69.1487C158.749 69.0471 158.588 68.9963 158.365 68.9963C158.235 68.9963 158.099 69.0126 157.956 69.0451C157.818 69.0776 157.674 69.1324 157.524 69.2096C157.455 69.2421 157.396 69.2523 157.347 69.2401C157.298 69.2279 157.26 69.2015 157.231 69.1609C157.203 69.1162 157.187 69.0694 157.183 69.0207C157.183 68.9679 157.195 68.9171 157.219 68.8683C157.248 68.8196 157.294 68.783 157.359 68.7586C157.538 68.6733 157.715 68.6124 157.889 68.5758C158.064 68.5392 158.229 68.521 158.383 68.521C158.655 68.521 158.879 68.5636 159.053 68.6489C159.232 68.7343 159.364 68.8643 159.45 69.039C159.535 69.2137 159.578 69.4392 159.578 69.7154V71.2817C159.578 71.3792 159.553 71.4564 159.504 71.5132C159.456 71.5661 159.385 71.5925 159.291 71.5925C159.202 71.5925 159.131 71.5661 159.078 71.5132C159.025 71.4564 158.999 71.3792 158.999 71.2817V70.8855H159.053C159.021 71.0359 158.96 71.1659 158.871 71.2756C158.785 71.3812 158.678 71.4625 158.548 71.5193C158.418 71.5762 158.269 71.6047 158.103 71.6047ZM161.693 71.6047C161.449 71.6047 161.244 71.562 161.077 71.4767C160.911 71.3914 160.787 71.2654 160.706 71.0988C160.624 70.9323 160.584 70.7291 160.584 70.4894V69.0512H160.218C160.137 69.0512 160.074 69.0309 160.029 68.9902C159.985 68.9455 159.962 68.8866 159.962 68.8135C159.962 68.7363 159.985 68.6774 160.029 68.6368C160.074 68.5961 160.137 68.5758 160.218 68.5758H160.584V67.9481C160.584 67.8465 160.61 67.7693 160.663 67.7165C160.72 67.6637 160.797 67.6373 160.895 67.6373C160.992 67.6373 161.067 67.6637 161.12 67.7165C161.173 67.7693 161.199 67.8465 161.199 67.9481V68.5758H161.912C161.994 68.5758 162.057 68.5961 162.101 68.6368C162.146 68.6774 162.168 68.7363 162.168 68.8135C162.168 68.8866 162.146 68.9455 162.101 68.9902C162.057 69.0309 161.994 69.0512 161.912 69.0512H161.199V70.4407C161.199 70.656 161.244 70.8185 161.333 70.9282C161.427 71.0379 161.577 71.0927 161.784 71.0927C161.857 71.0927 161.92 71.0866 161.973 71.0745C162.03 71.0582 162.077 71.048 162.113 71.044C162.158 71.044 162.195 71.0602 162.223 71.0927C162.252 71.1212 162.266 71.1781 162.266 71.2634C162.266 71.3243 162.254 71.3812 162.229 71.434C162.209 71.4868 162.17 71.5214 162.113 71.5376C162.065 71.5539 161.998 71.5681 161.912 71.5803C161.831 71.5965 161.758 71.6047 161.693 71.6047ZM164.017 71.6047C163.692 71.6047 163.412 71.5437 163.176 71.4218C162.944 71.2959 162.764 71.1191 162.634 70.8916C162.508 70.66 162.445 70.3858 162.445 70.0689C162.445 69.7601 162.508 69.49 162.634 69.2584C162.76 69.0268 162.932 68.846 163.152 68.716C163.371 68.586 163.621 68.521 163.901 68.521C164.108 68.521 164.293 68.5555 164.456 68.6246C164.618 68.6896 164.756 68.7871 164.87 68.9171C164.988 69.043 165.075 69.1974 165.132 69.3803C165.193 69.5631 165.224 69.7683 165.224 69.9958C165.224 70.0648 165.203 70.1177 165.163 70.1542C165.122 70.1867 165.061 70.203 164.98 70.203H162.932V69.8251H164.809L164.706 69.9105C164.706 69.7073 164.675 69.5346 164.614 69.3924C164.557 69.2502 164.47 69.1426 164.352 69.0694C164.238 68.9923 164.096 68.9537 163.926 68.9537C163.735 68.9537 163.572 68.9983 163.438 69.0877C163.308 69.1771 163.208 69.301 163.139 69.4595C163.07 69.6179 163.036 69.8028 163.036 70.0141V70.0506C163.036 70.4082 163.119 70.6783 163.286 70.8612C163.456 71.0399 163.702 71.1293 164.023 71.1293C164.145 71.1293 164.273 71.1131 164.407 71.0805C164.545 71.048 164.675 70.9932 164.797 70.916C164.866 70.8754 164.927 70.8571 164.98 70.8612C165.037 70.8652 165.081 70.8835 165.114 70.916C165.151 70.9485 165.173 70.9891 165.181 71.0379C165.189 71.0866 165.181 71.1374 165.157 71.1902C165.132 71.239 165.09 71.2837 165.029 71.3243C164.89 71.4178 164.73 71.4889 164.547 71.5376C164.364 71.5823 164.188 71.6047 164.017 71.6047ZM166.205 71.5925C166.104 71.5925 166.027 71.5661 165.974 71.5132C165.921 71.4564 165.895 71.3792 165.895 71.2817V68.844C165.895 68.7424 165.921 68.6652 165.974 68.6124C166.027 68.5596 166.1 68.5332 166.193 68.5332C166.291 68.5332 166.364 68.5596 166.413 68.6124C166.465 68.6652 166.492 68.7424 166.492 68.844V69.2888H166.431C166.496 69.0451 166.616 68.8602 166.791 68.7343C166.965 68.6083 167.189 68.5352 167.461 68.5149C167.534 68.5108 167.591 68.5291 167.632 68.5697C167.676 68.6103 167.701 68.6733 167.705 68.7586C167.713 68.844 167.694 68.913 167.65 68.9658C167.605 69.0146 167.536 69.043 167.443 69.0512L167.327 69.0634C167.063 69.0877 166.862 69.171 166.723 69.3132C166.585 69.4554 166.516 69.6504 166.516 69.8983V71.2817C166.516 71.3792 166.49 71.4564 166.437 71.5132C166.388 71.5661 166.311 71.5925 166.205 71.5925Z" fill="black"/>
<path d="M132.051 72.1227H167.735V72.2933H132.051V72.1227Z" fill="black"/>
<defs>
<filter id="filter0_dd_3972_7221" x="12.8743" y="11.3786" width="178.764" height="94.7993" filterUnits="userSpaceOnUse" color-interpolation-filters="sRGB">
<feFlood flood-opacity="0" result="BackgroundImageFix"/>
<feColorMatrix in="SourceAlpha" type="matrix" values="0 0 0 0 0 0 0 0 0 0 0 0 0 0 0 0 0 0 127 0" result="hardAlpha"/>
<feOffset dx="1.35428" dy="1.35428"/>
<feGaussianBlur stdDeviation="1.69284"/>
<feComposite in2="hardAlpha" operator="out"/>
<feColorMatrix type="matrix" values="0 0 0 0 0 0 0 0 0 0 0 0 0 0 0 0 0 0 0.05 0"/>
<feBlend mode="normal" in2="BackgroundImageFix" result="effect1_dropShadow_3972_7221"/>
<feColorMatrix in="SourceAlpha" type="matrix" values="0 0 0 0 0 0 0 0 0 0 0 0 0 0 0 0 0 0 127 0" result="hardAlpha"/>
<feOffset dx="-2.70855"/>
<feGaussianBlur stdDeviation="2.70855"/>
<feComposite in2="hardAlpha" operator="out"/>
<feColorMatrix type="matrix" values="0 0 0 0 0 0 0 0 0 0 0 0 0 0 0 0 0 0 0.05 0"/>
<feBlend mode="normal" in2="effect1_dropShadow_3972_7221" result="effect2_dropShadow_3972_7221"/>
<feBlend mode="normal" in="SourceGraphic" in2="effect2_dropShadow_3972_7221" result="shape"/>
</filter>
</defs>
</svg>
