<svg width="293" height="142" viewBox="0 0 293 142" fill="none" xmlns="http://www.w3.org/2000/svg">
<g filter="url(#filter0_dd_3980_8780)">
<rect x="15" y="32" width="270" height="77" rx="9.08628" fill="white"/>
<rect x="33.7398" y="58.0064" width="24.9873" height="24.9873" rx="3.97525" stroke="#A5A2A5" stroke-width="1.13578"/>
<path d="M72.7064 73.5458C72.4509 73.5458 72.2516 73.4742 72.1085 73.3312C71.9757 73.1881 71.9093 72.9888 71.9093 72.7334V63.337C71.9093 63.0713 71.9757 62.8721 72.1085 62.7392C72.2516 62.5961 72.4509 62.5246 72.7064 62.5246C72.9618 62.5246 73.156 62.5961 73.2888 62.7392C73.4319 62.8721 73.5034 63.0713 73.5034 63.337V72.7334C73.5034 72.9888 73.437 73.1881 73.3042 73.3312C73.1713 73.4742 72.9721 73.5458 72.7064 73.5458ZM76.7619 65.9888C76.6495 66.1319 76.5269 66.2137 76.3941 66.2341C76.2714 66.2545 76.1641 66.2341 76.0722 66.1728C75.9802 66.1012 75.9291 66.0042 75.9189 65.8815C75.9087 65.7487 75.9649 65.6056 76.0875 65.4523C76.2714 65.2173 76.3941 64.9823 76.4554 64.7472C76.5269 64.5122 76.5627 64.3027 76.5627 64.1188L76.624 64.5173C76.3174 64.5173 76.067 64.4304 75.8729 64.2567C75.6889 64.0728 75.597 63.8326 75.597 63.5363C75.597 63.2502 75.6838 63.0202 75.8576 62.8465C76.0313 62.6626 76.2663 62.5706 76.5627 62.5706C76.8692 62.5706 77.1094 62.6728 77.2831 62.8772C77.467 63.0815 77.559 63.3779 77.559 63.7662C77.559 63.991 77.5335 64.2261 77.4824 64.4713C77.4415 64.7166 77.3649 64.9669 77.2524 65.2224C77.14 65.4779 76.9765 65.7334 76.7619 65.9888ZM80.2768 73.5458C80.0316 73.5458 79.8425 73.4794 79.7097 73.3465C79.5768 73.2034 79.5104 73.0093 79.5104 72.764V66.6326C79.5104 66.3772 79.5768 66.183 79.7097 66.0502C79.8425 65.9173 80.0265 65.8509 80.2615 65.8509C80.5068 65.8509 80.6907 65.9173 80.8133 66.0502C80.9462 66.183 81.0126 66.3772 81.0126 66.6326V67.8896L80.844 67.5523C81.0484 67.0107 81.3651 66.5867 81.7943 66.2801C82.2235 65.9735 82.7396 65.8202 83.3425 65.8202C83.9659 65.8202 84.4717 65.9684 84.86 66.2648C85.2484 66.5611 85.5141 67.0158 85.6571 67.629H85.4425C85.6367 67.0669 85.9688 66.6275 86.4389 66.3107C86.9089 65.9837 87.4557 65.8202 88.079 65.8202C88.6513 65.8202 89.1214 65.9326 89.4892 66.1575C89.8571 66.3721 90.133 66.7042 90.317 67.1538C90.5009 67.5932 90.5929 68.1502 90.5929 68.8246V72.764C90.5929 73.0093 90.5214 73.2034 90.3783 73.3465C90.2454 73.4794 90.0564 73.5458 89.8111 73.5458C89.5659 73.5458 89.3768 73.4794 89.244 73.3465C89.1111 73.2034 89.0447 73.0093 89.0447 72.764V68.9013C89.0447 68.2677 88.9323 67.8027 88.7075 67.5064C88.4929 67.21 88.1352 67.0618 87.6345 67.0618C87.0724 67.0618 86.6279 67.256 86.3009 67.6443C85.9739 68.0326 85.8104 68.5691 85.8104 69.2538V72.764C85.8104 73.0093 85.744 73.2034 85.6111 73.3465C85.4783 73.4794 85.2892 73.5458 85.044 73.5458C84.7987 73.5458 84.6046 73.4794 84.4615 73.3465C84.3286 73.2034 84.2622 73.0093 84.2622 72.764V68.9013C84.2622 68.2677 84.1549 67.8027 83.9403 67.5064C83.7257 67.21 83.3681 67.0618 82.8673 67.0618C82.3053 67.0618 81.8608 67.256 81.5338 67.6443C81.217 68.0326 81.0586 68.5691 81.0586 69.2538V72.764C81.0586 73.2852 80.798 73.5458 80.2768 73.5458ZM97.5655 73.5458C97.3203 73.5458 97.1312 73.4794 96.9984 73.3465C96.8655 73.2034 96.7991 73.0093 96.7991 72.764V66.6326C96.7991 66.3772 96.8655 66.183 96.9984 66.0502C97.1312 65.9173 97.3152 65.8509 97.5502 65.8509C97.7955 65.8509 97.9794 65.9173 98.102 66.0502C98.2349 66.183 98.3013 66.3772 98.3013 66.6326V67.8283L98.1327 67.5523C98.3575 66.9801 98.7101 66.5509 99.1904 66.2648C99.6706 65.9684 100.222 65.8202 100.846 65.8202C101.439 65.8202 101.929 65.9326 102.317 66.1575C102.716 66.3721 103.012 66.7042 103.206 67.1538C103.401 67.5932 103.498 68.1502 103.498 68.8246V72.764C103.498 73.0093 103.431 73.2034 103.298 73.3465C103.166 73.4794 102.976 73.5458 102.731 73.5458C102.476 73.5458 102.282 73.4794 102.149 73.3465C102.016 73.2034 101.949 73.0093 101.949 72.764V68.9166C101.949 68.2728 101.822 67.8027 101.566 67.5064C101.321 67.21 100.933 67.0618 100.401 67.0618C99.7779 67.0618 99.2772 67.256 98.8991 67.6443C98.5312 68.0326 98.3473 68.5538 98.3473 69.2078V72.764C98.3473 73.2852 98.0867 73.5458 97.5655 73.5458ZM108.881 73.5764C108.124 73.5764 107.47 73.418 106.919 73.1013C106.377 72.7845 105.953 72.3348 105.646 71.7523C105.34 71.1699 105.186 70.4852 105.186 69.6983C105.186 69.0954 105.273 68.5589 105.447 68.0888C105.621 67.6188 105.866 67.2151 106.183 66.8779C106.51 66.5304 106.898 66.2699 107.348 66.0961C107.808 65.9122 108.319 65.8202 108.881 65.8202C109.627 65.8202 110.27 65.9786 110.812 66.2954C111.364 66.6122 111.793 67.0618 112.1 67.6443C112.406 68.2166 112.559 68.9012 112.559 69.6983C112.559 70.291 112.473 70.8275 112.299 71.3078C112.125 71.7881 111.875 72.1969 111.548 72.5341C111.231 72.8713 110.843 73.1319 110.383 73.3158C109.933 73.4896 109.432 73.5764 108.881 73.5764ZM108.881 72.3808C109.3 72.3808 109.667 72.2786 109.984 72.0742C110.301 71.8699 110.546 71.5684 110.72 71.1699C110.904 70.7713 110.996 70.2808 110.996 69.6983C110.996 68.8195 110.802 68.1553 110.413 67.7056C110.025 67.256 109.514 67.0312 108.881 67.0312C108.451 67.0312 108.078 67.1334 107.762 67.3377C107.445 67.5319 107.194 67.8283 107.011 68.2268C106.837 68.6253 106.75 69.1158 106.75 69.6983C106.75 70.5669 106.944 71.2312 107.332 71.691C107.721 72.1509 108.237 72.3808 108.881 72.3808ZM117.412 73.5764C116.798 73.5764 116.282 73.4691 115.863 73.2545C115.444 73.0399 115.133 72.7231 114.928 72.3042C114.724 71.8852 114.622 71.3742 114.622 70.7713V67.1538H113.702C113.498 67.1538 113.339 67.1027 113.227 67.0005C113.115 66.8881 113.058 66.7399 113.058 66.556C113.058 66.3618 113.115 66.2137 113.227 66.1115C113.339 66.0093 113.498 65.9582 113.702 65.9582H114.622V64.3794C114.622 64.1239 114.688 63.9297 114.821 63.7969C114.964 63.664 115.158 63.5976 115.404 63.5976C115.649 63.5976 115.838 63.664 115.971 63.7969C116.104 63.9297 116.17 64.1239 116.17 64.3794V65.9582H117.963C118.168 65.9582 118.326 66.0093 118.439 66.1115C118.551 66.2137 118.607 66.3618 118.607 66.556C118.607 66.7399 118.551 66.8881 118.439 67.0005C118.326 67.1027 118.168 67.1538 117.963 67.1538H116.17V70.6487C116.17 71.1903 116.282 71.5991 116.507 71.875C116.742 72.1509 117.12 72.2888 117.642 72.2888C117.825 72.2888 117.984 72.2735 118.117 72.2429C118.26 72.202 118.377 72.1764 118.469 72.1662C118.582 72.1662 118.674 72.2071 118.745 72.2888C118.817 72.3604 118.852 72.5034 118.852 72.718C118.852 72.8713 118.822 73.0144 118.761 73.1472C118.709 73.2801 118.612 73.3669 118.469 73.4078C118.347 73.4487 118.178 73.4845 117.963 73.5151C117.759 73.556 117.575 73.5764 117.412 73.5764ZM126.255 73.5764C125.734 73.5764 125.263 73.4742 124.844 73.2699C124.436 73.0655 124.114 72.7896 123.879 72.4421C123.644 72.0947 123.526 71.7013 123.526 71.2618C123.526 70.71 123.664 70.2757 123.94 69.9589C124.226 69.6319 124.691 69.402 125.335 69.2691C125.989 69.1261 126.868 69.0545 127.971 69.0545H128.692V70.0049H127.987C127.251 70.0049 126.669 70.0407 126.239 70.1122C125.81 70.1837 125.504 70.3064 125.32 70.4801C125.146 70.6436 125.059 70.8735 125.059 71.1699C125.059 71.5582 125.192 71.875 125.458 72.1202C125.723 72.3553 126.091 72.4728 126.561 72.4728C126.939 72.4728 127.271 72.3859 127.558 72.2122C127.844 72.0283 128.069 71.783 128.232 71.4764C128.406 71.1699 128.493 70.8173 128.493 70.4188V68.656C128.493 68.0735 128.37 67.6545 128.125 67.3991C127.879 67.1436 127.476 67.0158 126.914 67.0158C126.587 67.0158 126.244 67.0567 125.887 67.1385C125.539 67.2202 125.177 67.3582 124.798 67.5523C124.625 67.6341 124.477 67.6596 124.354 67.629C124.231 67.5983 124.134 67.5319 124.063 67.4297C123.991 67.3173 123.95 67.1998 123.94 67.0772C123.94 66.9443 123.971 66.8166 124.032 66.694C124.104 66.5713 124.221 66.4794 124.385 66.418C124.834 66.2034 125.279 66.0502 125.718 65.9582C126.158 65.8662 126.571 65.8202 126.96 65.8202C127.644 65.8202 128.207 65.9275 128.646 66.1421C129.096 66.3567 129.428 66.6837 129.642 67.1231C129.857 67.5626 129.964 68.1297 129.964 68.8246V72.764C129.964 73.0093 129.903 73.2034 129.78 73.3465C129.658 73.4794 129.479 73.5458 129.244 73.5458C129.019 73.5458 128.84 73.4794 128.707 73.3465C128.574 73.2034 128.508 73.0093 128.508 72.764V71.7677H128.646C128.564 72.1458 128.411 72.4728 128.186 72.7487C127.971 73.0144 127.701 73.2188 127.374 73.3618C127.047 73.5049 126.674 73.5764 126.255 73.5764ZM136.92 73.5458C136.664 73.5458 136.47 73.4794 136.337 73.3465C136.205 73.2034 136.138 73.0093 136.138 72.764V66.6326C136.138 66.3772 136.205 66.183 136.337 66.0502C136.47 65.9173 136.654 65.8509 136.889 65.8509C137.135 65.8509 137.318 65.9173 137.441 66.0502C137.574 66.183 137.64 66.3772 137.64 66.6326V67.7516H137.487C137.651 67.1385 137.952 66.6735 138.391 66.3567C138.831 66.0399 139.393 65.856 140.078 65.8049C140.262 65.7947 140.405 65.8407 140.507 65.9429C140.619 66.045 140.681 66.2034 140.691 66.418C140.711 66.6326 140.665 66.8064 140.553 66.9392C140.44 67.0618 140.267 67.1334 140.032 67.1538L139.74 67.1845C139.076 67.2458 138.57 67.4553 138.223 67.8129C137.875 68.1706 137.702 68.6611 137.702 69.2845V72.764C137.702 73.0093 137.635 73.2034 137.502 73.3465C137.38 73.4794 137.186 73.5458 136.92 73.5458ZM145.001 73.5764C144.245 73.5764 143.591 73.418 143.039 73.1013C142.498 72.7845 142.074 72.3348 141.767 71.7523C141.46 71.1699 141.307 70.4852 141.307 69.6983C141.307 69.0954 141.394 68.5589 141.568 68.0888C141.741 67.6188 141.987 67.2151 142.303 66.8779C142.63 66.5304 143.019 66.2699 143.468 66.0961C143.928 65.9122 144.439 65.8202 145.001 65.8202C145.747 65.8202 146.391 65.9786 146.933 66.2954C147.484 66.6122 147.914 67.0618 148.22 67.6443C148.527 68.2166 148.68 68.9012 148.68 69.6983C148.68 70.291 148.593 70.8275 148.42 71.3078C148.246 71.7881 147.995 72.1969 147.668 72.5341C147.352 72.8713 146.963 73.1319 146.503 73.3158C146.054 73.4896 145.553 73.5764 145.001 73.5764ZM145.001 72.3808C145.42 72.3808 145.788 72.2786 146.105 72.0742C146.422 71.8699 146.667 71.5684 146.841 71.1699C147.025 70.7713 147.117 70.2808 147.117 69.6983C147.117 68.8195 146.922 68.1553 146.534 67.7056C146.146 67.256 145.635 67.0312 145.001 67.0312C144.572 67.0312 144.199 67.1334 143.882 67.3377C143.566 67.5319 143.315 67.8283 143.131 68.2268C142.957 68.6253 142.871 69.1158 142.871 69.6983C142.871 70.5669 143.065 71.2312 143.453 71.691C143.841 72.1509 144.357 72.3808 145.001 72.3808ZM154.435 73.5764C153.781 73.5764 153.214 73.4129 152.733 73.0859C152.253 72.7487 151.931 72.3042 151.768 71.7523L151.936 71.4764V72.764C151.936 73.0093 151.87 73.2034 151.737 73.3465C151.604 73.4794 151.42 73.5458 151.185 73.5458C150.94 73.5458 150.751 73.4794 150.618 73.3465C150.485 73.2034 150.419 73.0093 150.419 72.764V63.3064C150.419 63.0509 150.485 62.8567 150.618 62.7239C150.751 62.591 150.94 62.5246 151.185 62.5246C151.43 62.5246 151.62 62.591 151.752 62.7239C151.895 62.8567 151.967 63.0509 151.967 63.3064V67.5983H151.783C151.947 67.0567 152.268 66.6275 152.749 66.3107C153.229 65.9837 153.791 65.8202 154.435 65.8202C155.109 65.8202 155.692 65.9786 156.182 66.2954C156.673 66.6122 157.051 67.0567 157.317 67.629C157.593 68.2013 157.73 68.891 157.73 69.6983C157.73 70.4852 157.593 71.175 157.317 71.7677C157.051 72.3502 156.668 72.7998 156.167 73.1166C155.676 73.4231 155.099 73.5764 154.435 73.5764ZM154.052 72.3808C154.481 72.3808 154.854 72.2786 155.171 72.0742C155.487 71.8699 155.733 71.5684 155.906 71.1699C156.08 70.7713 156.167 70.2808 156.167 69.6983C156.167 68.8195 155.973 68.1553 155.585 67.7056C155.206 67.256 154.695 67.0312 154.052 67.0312C153.633 67.0312 153.26 67.1334 152.933 67.3377C152.616 67.5319 152.371 67.8283 152.197 68.2268C152.023 68.6253 151.936 69.1158 151.936 69.6983C151.936 70.5669 152.13 71.2312 152.519 71.691C152.907 72.1509 153.418 72.3808 154.052 72.3808ZM162.725 73.5764C161.969 73.5764 161.315 73.418 160.763 73.1013C160.221 72.7845 159.797 72.3348 159.491 71.7523C159.184 71.1699 159.031 70.4852 159.031 69.6983C159.031 69.0954 159.118 68.5589 159.291 68.0888C159.465 67.6188 159.71 67.2151 160.027 66.8779C160.354 66.5304 160.742 66.2699 161.192 66.0961C161.652 65.9122 162.163 65.8202 162.725 65.8202C163.471 65.8202 164.115 65.9786 164.656 66.2954C165.208 66.6122 165.637 67.0618 165.944 67.6443C166.25 68.2166 166.404 68.9012 166.404 69.6983C166.404 70.291 166.317 70.8275 166.143 71.3078C165.969 71.7881 165.719 72.1969 165.392 72.5341C165.075 72.8713 164.687 73.1319 164.227 73.3158C163.777 73.4896 163.277 73.5764 162.725 73.5764ZM162.725 72.3808C163.144 72.3808 163.512 72.2786 163.828 72.0742C164.145 71.8699 164.391 71.5684 164.564 71.1699C164.748 70.7713 164.84 70.2808 164.84 69.6983C164.84 68.8195 164.646 68.1553 164.258 67.7056C163.869 67.256 163.358 67.0312 162.725 67.0312C162.296 67.0312 161.923 67.1334 161.606 67.3377C161.289 67.5319 161.039 67.8283 160.855 68.2268C160.681 68.6253 160.594 69.1158 160.594 69.6983C160.594 70.5669 160.788 71.2312 161.177 71.691C161.565 72.1509 162.081 72.3808 162.725 72.3808ZM171.256 73.5764C170.643 73.5764 170.127 73.4691 169.708 73.2545C169.289 73.0399 168.977 72.7231 168.773 72.3042C168.568 71.8852 168.466 71.3742 168.466 70.7713V67.1538H167.546C167.342 67.1538 167.184 67.1027 167.071 67.0005C166.959 66.8881 166.903 66.7399 166.903 66.556C166.903 66.3618 166.959 66.2137 167.071 66.1115C167.184 66.0093 167.342 65.9582 167.546 65.9582H168.466V64.3794C168.466 64.1239 168.532 63.9297 168.665 63.7969C168.808 63.664 169.003 63.5976 169.248 63.5976C169.493 63.5976 169.682 63.664 169.815 63.7969C169.948 63.9297 170.014 64.1239 170.014 64.3794V65.9582H171.808C172.012 65.9582 172.17 66.0093 172.283 66.1115C172.395 66.2137 172.451 66.3618 172.451 66.556C172.451 66.7399 172.395 66.8881 172.283 67.0005C172.17 67.1027 172.012 67.1538 171.808 67.1538H170.014V70.6487C170.014 71.1903 170.127 71.5991 170.351 71.875C170.586 72.1509 170.965 72.2888 171.486 72.2888C171.67 72.2888 171.828 72.2735 171.961 72.2429C172.104 72.202 172.222 72.1764 172.313 72.1662C172.426 72.1662 172.518 72.2071 172.589 72.2888C172.661 72.3604 172.697 72.5034 172.697 72.718C172.697 72.8713 172.666 73.0144 172.605 73.1472C172.554 73.2801 172.457 73.3669 172.313 73.4078C172.191 73.4487 172.022 73.4845 171.808 73.5151C171.603 73.556 171.419 73.5764 171.256 73.5764Z" fill="#484455"/>
<path d="M234.066 65.3524C237.594 70.0016 240.147 70.7189 246.007 67.6999L252.233 73.8236C242.46 80.2322 237.033 80.8204 227.534 71.7824L224.574 74.9463V62.2905H236.924L234.066 65.3524Z" fill="#C3C3C3"/>
<path d="M253.88 52.492C249.503 47.1897 246.472 46.4996 240.918 45.8579V54.6353C243.958 55.1142 245.489 55.7876 247.348 59.024L244.49 61.9839H256.738V49.4301L253.88 52.492Z" fill="#B569B5"/>
<path d="M237.842 55.4518C234.836 57.2064 233.917 58.7092 233.454 62.188H224.574C225.079 56.2125 226.533 53.3226 231.31 49.0219L228.351 45.8579H240.904V58.5137L237.842 55.4518Z" fill="#C97BC9"/>
<path d="M215.589 92.3465C215.436 92.3465 215.32 92.3067 215.24 92.2271C215.161 92.1414 215.121 92.025 215.121 91.8781V88.2038C215.121 88.0507 215.161 87.9343 215.24 87.8547C215.32 87.7751 215.43 87.7353 215.571 87.7353C215.718 87.7353 215.828 87.7751 215.902 87.8547C215.981 87.9343 216.021 88.0507 216.021 88.2038V88.8743H215.929C216.027 88.5069 216.208 88.2283 216.471 88.0384C216.735 87.8486 217.071 87.7384 217.482 87.7078C217.592 87.7016 217.678 87.7292 217.739 87.7904C217.806 87.8517 217.843 87.9466 217.849 88.0752C217.861 88.2038 217.834 88.3079 217.766 88.3875C217.699 88.461 217.595 88.5039 217.454 88.5161L217.28 88.5345C216.882 88.5712 216.578 88.6968 216.37 88.9111C216.162 89.1254 216.058 89.4194 216.058 89.7929V91.8781C216.058 92.025 216.018 92.1414 215.938 92.2271C215.865 92.3067 215.749 92.3465 215.589 92.3465ZM220.588 92.3649C220.098 92.3649 219.676 92.273 219.321 92.0893C218.972 91.8995 218.699 91.6331 218.503 91.2902C218.313 90.9411 218.218 90.5278 218.218 90.0501C218.218 89.5847 218.313 89.1775 218.503 88.8284C218.693 88.4794 218.953 88.2069 219.284 88.0109C219.615 87.8149 219.991 87.717 220.414 87.717C220.726 87.717 221.005 87.769 221.25 87.8731C221.495 87.9711 221.703 88.1181 221.874 88.314C222.052 88.5039 222.184 88.7366 222.269 89.0121C222.361 89.2877 222.407 89.5969 222.407 89.9399C222.407 90.044 222.376 90.1236 222.315 90.1787C222.254 90.2277 222.162 90.2522 222.04 90.2522H218.953V89.6827H221.782L221.626 89.8113C221.626 89.5051 221.58 89.2448 221.489 89.0305C221.403 88.8162 221.271 88.6539 221.094 88.5437C220.922 88.4273 220.708 88.3691 220.451 88.3691C220.163 88.3691 219.918 88.4365 219.716 88.5712C219.52 88.7059 219.37 88.8927 219.266 89.1315C219.162 89.3704 219.109 89.649 219.109 89.9674V90.0226C219.109 90.5614 219.235 90.9687 219.486 91.2442C219.743 91.5137 220.114 91.6484 220.598 91.6484C220.781 91.6484 220.974 91.6239 221.176 91.5749C221.384 91.5259 221.58 91.4433 221.764 91.3269C221.868 91.2657 221.96 91.2381 222.04 91.2442C222.125 91.2504 222.193 91.2779 222.242 91.3269C222.297 91.3759 222.331 91.4371 222.343 91.5106C222.355 91.5841 222.343 91.6607 222.306 91.7403C222.269 91.8138 222.205 91.8811 222.113 91.9424C221.905 92.0832 221.663 92.1904 221.387 92.2639C221.112 92.3312 220.846 92.3649 220.588 92.3649ZM226.422 92.3649C225.767 92.3649 225.207 92.2302 224.741 91.9607C224.276 91.6913 223.918 91.3085 223.667 90.8125C223.422 90.3104 223.299 89.7194 223.299 89.0397C223.299 88.5314 223.37 88.0752 223.51 87.671C223.651 87.2607 223.853 86.9117 224.117 86.6239C224.386 86.3299 224.714 86.1064 225.1 85.9533C225.491 85.8002 225.932 85.7237 226.422 85.7237C226.784 85.7237 227.13 85.7727 227.46 85.8706C227.797 85.9686 228.088 86.1095 228.333 86.2932C228.437 86.3605 228.504 86.4432 228.535 86.5412C228.572 86.633 228.578 86.7218 228.553 86.8076C228.535 86.8933 228.495 86.9668 228.434 87.028C228.373 87.0831 228.293 87.1138 228.195 87.1199C228.103 87.126 228.002 87.0923 227.892 87.0188C227.69 86.8657 227.466 86.7525 227.221 86.679C226.976 86.6055 226.719 86.5687 226.45 86.5687C225.984 86.5687 225.592 86.6667 225.274 86.8627C224.956 87.0525 224.714 87.3312 224.548 87.6986C224.383 88.066 224.3 88.513 224.3 89.0397C224.3 89.5663 224.383 90.0164 224.548 90.39C224.714 90.7574 224.956 91.0391 225.274 91.2351C225.592 91.4249 225.984 91.5198 226.45 91.5198C226.719 91.5198 226.976 91.4831 227.221 91.4096C227.472 91.33 227.708 91.2136 227.929 91.0605C228.039 90.9932 228.137 90.9626 228.223 90.9687C228.314 90.9748 228.391 91.0054 228.452 91.0605C228.514 91.1156 228.553 91.1861 228.572 91.2718C228.596 91.3514 228.593 91.4371 228.563 91.529C228.538 91.6147 228.48 91.6882 228.388 91.7495C228.137 91.9515 227.84 92.1046 227.497 92.2087C227.154 92.3128 226.796 92.3649 226.422 92.3649ZM229.547 92.3465C229.424 92.3465 229.326 92.319 229.253 92.2639C229.179 92.2087 229.137 92.1353 229.124 92.0434C229.112 91.9515 229.13 91.8474 229.179 91.7311L231.669 86.1462C231.73 85.9992 231.806 85.8951 231.898 85.8339C231.996 85.7727 232.103 85.742 232.22 85.742C232.33 85.742 232.431 85.7727 232.523 85.8339C232.621 85.8951 232.701 85.9992 232.762 86.1462L235.251 91.7311C235.306 91.8474 235.328 91.9546 235.315 92.0526C235.303 92.1444 235.263 92.2179 235.196 92.273C235.129 92.322 235.034 92.3465 234.911 92.3465C234.777 92.3465 234.669 92.3128 234.59 92.2455C234.51 92.1781 234.44 92.074 234.378 91.9332L233.735 90.4451L234.167 90.7023H230.254L230.677 90.4451L230.043 91.9332C229.982 92.0801 229.914 92.1873 229.841 92.2547C229.767 92.3159 229.669 92.3465 229.547 92.3465ZM232.201 86.8627L230.814 90.1512L230.585 89.9307H233.827L233.616 90.1512L232.22 86.8627H232.201ZM236.825 92.3465C236.672 92.3465 236.552 92.3037 236.467 92.2179C236.387 92.1322 236.347 92.0128 236.347 91.8597V86.2932C236.347 86.134 236.39 86.0145 236.476 85.9349C236.562 85.8492 236.681 85.8063 236.834 85.8063H239.029C239.728 85.8063 240.266 85.9809 240.646 86.3299C241.026 86.6728 241.216 87.1566 241.216 87.7813C241.216 88.412 241.026 88.9019 240.646 89.251C240.266 89.5939 239.728 89.7654 239.029 89.7654H237.303V91.8597C237.303 92.0128 237.263 92.1322 237.183 92.2179C237.103 92.3037 236.984 92.3465 236.825 92.3465ZM237.303 89.0029H238.892C239.351 89.0029 239.697 88.9019 239.93 88.6998C240.168 88.4916 240.288 88.1854 240.288 87.7813C240.288 87.3832 240.168 87.0831 239.93 86.8811C239.697 86.6728 239.351 86.5687 238.892 86.5687H237.303V89.0029ZM244.128 92.3465C243.975 92.3465 243.855 92.3037 243.77 92.2179C243.69 92.1322 243.65 92.0128 243.65 91.8597V86.6055H241.703C241.574 86.6055 241.473 86.5718 241.4 86.5044C241.326 86.431 241.29 86.3299 241.29 86.2013C241.29 86.0727 241.326 85.9747 241.4 85.9074C241.473 85.84 241.574 85.8063 241.703 85.8063H246.544C246.678 85.8063 246.783 85.84 246.856 85.9074C246.93 85.9747 246.966 86.0727 246.966 86.2013C246.966 86.3299 246.93 86.431 246.856 86.5044C246.783 86.5718 246.678 86.6055 246.544 86.6055H244.596V91.8597C244.596 92.0128 244.557 92.1322 244.477 92.2179C244.403 92.3037 244.287 92.3465 244.128 92.3465ZM250.185 92.3649C249.53 92.3649 248.969 92.2302 248.504 91.9607C248.038 91.6913 247.68 91.3085 247.429 90.8125C247.184 90.3104 247.062 89.7194 247.062 89.0397C247.062 88.5314 247.132 88.0752 247.273 87.671C247.414 87.2607 247.616 86.9117 247.879 86.6239C248.149 86.3299 248.476 86.1064 248.862 85.9533C249.254 85.8002 249.695 85.7237 250.185 85.7237C250.546 85.7237 250.892 85.7727 251.223 85.8706C251.56 85.9686 251.85 86.1095 252.095 86.2932C252.199 86.3605 252.267 86.4432 252.297 86.5412C252.334 86.633 252.34 86.7218 252.316 86.8076C252.297 86.8933 252.258 86.9668 252.196 87.028C252.135 87.0831 252.056 87.1138 251.958 87.1199C251.866 87.126 251.765 87.0923 251.654 87.0188C251.452 86.8657 251.229 86.7525 250.984 86.679C250.739 86.6055 250.482 86.5687 250.212 86.5687C249.747 86.5687 249.355 86.6667 249.037 86.8627C248.718 87.0525 248.476 87.3312 248.311 87.6986C248.146 88.066 248.063 88.513 248.063 89.0397C248.063 89.5663 248.146 90.0164 248.311 90.39C248.476 90.7574 248.718 91.0391 249.037 91.2351C249.355 91.4249 249.747 91.5198 250.212 91.5198C250.482 91.5198 250.739 91.4831 250.984 91.4096C251.235 91.33 251.471 91.2136 251.691 91.0605C251.801 90.9932 251.899 90.9626 251.985 90.9687C252.077 90.9748 252.154 91.0054 252.215 91.0605C252.276 91.1156 252.316 91.1861 252.334 91.2718C252.359 91.3514 252.356 91.4371 252.325 91.529C252.301 91.6147 252.242 91.6882 252.151 91.7495C251.899 91.9515 251.602 92.1046 251.259 92.2087C250.917 92.3128 250.558 92.3649 250.185 92.3649ZM253.967 92.3465C253.814 92.3465 253.695 92.3037 253.609 92.2179C253.529 92.1322 253.49 92.0128 253.49 91.8597V86.2289C253.49 86.0697 253.529 85.9502 253.609 85.8706C253.695 85.7849 253.814 85.742 253.967 85.742C254.12 85.742 254.237 85.7849 254.316 85.8706C254.402 85.9502 254.445 86.0697 254.445 86.2289V88.5988H258.073V86.2289C258.073 86.0697 258.113 85.9502 258.193 85.8706C258.278 85.7849 258.398 85.742 258.551 85.742C258.704 85.742 258.82 85.7849 258.9 85.8706C258.98 85.9502 259.019 86.0697 259.019 86.2289V91.8597C259.019 92.0128 258.98 92.1322 258.9 92.2179C258.82 92.3037 258.704 92.3465 258.551 92.3465C258.398 92.3465 258.278 92.3037 258.193 92.2179C258.113 92.1322 258.073 92.0128 258.073 91.8597V89.3979H254.445V91.8597C254.445 92.0128 254.405 92.1322 254.325 92.2179C254.246 92.3037 254.126 92.3465 253.967 92.3465ZM260.495 92.3465C260.372 92.3465 260.274 92.319 260.201 92.2639C260.127 92.2087 260.084 92.1353 260.072 92.0434C260.06 91.9515 260.078 91.8474 260.127 91.7311L262.616 86.1462C262.678 85.9992 262.754 85.8951 262.846 85.8339C262.944 85.7727 263.051 85.742 263.168 85.742C263.278 85.742 263.379 85.7727 263.471 85.8339C263.569 85.8951 263.648 85.9992 263.71 86.1462L266.199 91.7311C266.254 91.8474 266.275 91.9546 266.263 92.0526C266.251 92.1444 266.211 92.2179 266.144 92.273C266.076 92.322 265.982 92.3465 265.859 92.3465C265.724 92.3465 265.617 92.3128 265.538 92.2455C265.458 92.1781 265.388 92.074 265.326 91.9332L264.683 90.4451L265.115 90.7023H261.202L261.624 90.4451L260.991 91.9332C260.929 92.0801 260.862 92.1873 260.789 92.2547C260.715 92.3159 260.617 92.3465 260.495 92.3465ZM263.149 86.8627L261.762 90.1512L261.533 89.9307H264.775L264.564 90.1512L263.168 86.8627H263.149Z" fill="#797979"/>
</g>
<defs>
<filter id="filter0_dd_3980_8780" x="1.37058" y="22.9137" width="291.58" height="95.1726" filterUnits="userSpaceOnUse" color-interpolation-filters="sRGB">
<feFlood flood-opacity="0" result="BackgroundImageFix"/>
<feColorMatrix in="SourceAlpha" type="matrix" values="0 0 0 0 0 0 0 0 0 0 0 0 0 0 0 0 0 0 127 0" result="hardAlpha"/>
<feOffset dx="2.27157" dy="2.27157"/>
<feGaussianBlur stdDeviation="2.83946"/>
<feComposite in2="hardAlpha" operator="out"/>
<feColorMatrix type="matrix" values="0 0 0 0 0 0 0 0 0 0 0 0 0 0 0 0 0 0 0.05 0"/>
<feBlend mode="normal" in2="BackgroundImageFix" result="effect1_dropShadow_3980_8780"/>
<feColorMatrix in="SourceAlpha" type="matrix" values="0 0 0 0 0 0 0 0 0 0 0 0 0 0 0 0 0 0 127 0" result="hardAlpha"/>
<feOffset dx="-4.54314"/>
<feGaussianBlur stdDeviation="4.54314"/>
<feComposite in2="hardAlpha" operator="out"/>
<feColorMatrix type="matrix" values="0 0 0 0 0 0 0 0 0 0 0 0 0 0 0 0 0 0 0.05 0"/>
<feBlend mode="normal" in2="effect1_dropShadow_3980_8780" result="effect2_dropShadow_3980_8780"/>
<feBlend mode="normal" in="SourceGraphic" in2="effect2_dropShadow_3980_8780" result="shape"/>
</filter>
</defs>
</svg>
