<svg width="312" height="153" viewBox="0 0 312 153" fill="none" xmlns="http://www.w3.org/2000/svg">
<g filter="url(#filter0_dd_3890_9047)">
<rect x="77.0742" y="3.1748" width="229.352" height="78.9874" rx="3.07595" fill="white" shape-rendering="crispEdges"/>
<path d="M93.3226 22.4785H92.606L94.2161 18.0044H94.996L96.6061 22.4785H95.8895L94.6246 18.8171H94.5897L93.3226 22.4785ZM93.4428 20.7264H95.7672V21.2944H93.4428V20.7264ZM97.1998 22.4785V19.1229H97.8311V19.656H97.8661C97.9273 19.4754 98.035 19.3334 98.1894 19.23C98.3452 19.1251 98.5215 19.0727 98.7181 19.0727C98.7589 19.0727 98.8069 19.0741 98.8623 19.0771C98.9191 19.08 98.9635 19.0836 98.9955 19.088V19.7128C98.9693 19.7055 98.9227 19.6975 98.8557 19.6887C98.7887 19.6786 98.7217 19.6735 98.6547 19.6735C98.5004 19.6735 98.3627 19.7062 98.2418 19.7718C98.1224 19.8358 98.0277 19.9254 97.9578 20.0405C97.8879 20.1541 97.853 20.2837 97.853 20.4293V22.4785H97.1998ZM100.887 22.5462C100.556 22.5462 100.272 22.4756 100.033 22.3343C99.7953 22.1916 99.6118 21.9913 99.4822 21.7336C99.354 21.4743 99.2899 21.1707 99.2899 20.8226C99.2899 20.4789 99.354 20.1759 99.4822 19.9138C99.6118 19.6516 99.7924 19.447 100.024 19.2999C100.257 19.1528 100.529 19.0792 100.841 19.0792C101.03 19.0792 101.214 19.1106 101.392 19.1732C101.569 19.2358 101.729 19.3341 101.87 19.4681C102.011 19.6021 102.123 19.7761 102.204 19.9902C102.286 20.2029 102.327 20.4614 102.327 20.7658V20.9973H99.6591V20.508H101.686C101.686 20.3361 101.651 20.1839 101.582 20.0514C101.512 19.9174 101.413 19.8118 101.287 19.7346C101.161 19.6574 101.014 19.6188 100.845 19.6188C100.662 19.6188 100.502 19.664 100.365 19.7543C100.229 19.8431 100.124 19.9596 100.05 20.1038C99.9773 20.2466 99.9409 20.4017 99.9409 20.5692V20.9515C99.9409 21.1758 99.9803 21.3665 100.059 21.5238C100.139 21.6811 100.25 21.8013 100.393 21.8843C100.536 21.9659 100.703 22.0066 100.893 22.0066C101.017 22.0066 101.13 21.9892 101.232 21.9542C101.334 21.9178 101.422 21.8639 101.496 21.7925C101.571 21.7212 101.627 21.6331 101.667 21.5282L102.285 21.6396C102.236 21.8217 102.147 21.9811 102.019 22.1181C101.892 22.2535 101.732 22.3591 101.54 22.4348C101.349 22.5091 101.132 22.5462 100.887 22.5462ZM105.092 23.7369C104.995 23.7369 104.906 23.7288 104.826 23.7128C104.746 23.6983 104.686 23.6822 104.647 23.6648L104.804 23.1295C104.923 23.1616 105.03 23.1754 105.123 23.171C105.216 23.1667 105.298 23.1317 105.37 23.0662C105.443 23.0006 105.507 22.8936 105.562 22.745L105.643 22.5222L104.415 19.1229H105.114L105.964 21.727H105.999L106.849 19.1229H107.55L106.167 22.9264C106.103 23.1011 106.021 23.249 105.922 23.3698C105.823 23.4922 105.705 23.5839 105.569 23.6451C105.432 23.7063 105.273 23.7369 105.092 23.7369ZM109.463 22.5462C109.149 22.5462 108.874 22.4741 108.64 22.33C108.405 22.1858 108.223 21.9841 108.093 21.7248C107.964 21.4656 107.899 21.1626 107.899 20.816C107.899 20.4679 107.964 20.1635 108.093 19.9028C108.223 19.6421 108.405 19.4397 108.64 19.2955C108.874 19.1513 109.149 19.0792 109.463 19.0792C109.778 19.0792 110.052 19.1513 110.287 19.2955C110.521 19.4397 110.703 19.6421 110.833 19.9028C110.963 20.1635 111.027 20.4679 111.027 20.816C111.027 21.1626 110.963 21.4656 110.833 21.7248C110.703 21.9841 110.521 22.1858 110.287 22.33C110.052 22.4741 109.778 22.5462 109.463 22.5462ZM109.465 21.9979C109.669 21.9979 109.838 21.944 109.972 21.8362C110.106 21.7285 110.205 21.585 110.269 21.4059C110.335 21.2267 110.368 21.0294 110.368 20.8138C110.368 20.5997 110.335 20.4031 110.269 20.224C110.205 20.0434 110.106 19.8985 109.972 19.7892C109.838 19.68 109.669 19.6254 109.465 19.6254C109.26 19.6254 109.09 19.68 108.954 19.7892C108.82 19.8985 108.72 20.0434 108.655 20.224C108.591 20.4031 108.559 20.5997 108.559 20.8138C108.559 21.0294 108.591 21.2267 108.655 21.4059C108.72 21.585 108.82 21.7285 108.954 21.8362C109.09 21.944 109.26 21.9979 109.465 21.9979ZM113.882 21.0869V19.1229H114.538V22.4785H113.895V21.8974H113.86C113.783 22.0765 113.659 22.2258 113.489 22.3453C113.32 22.4632 113.109 22.5222 112.858 22.5222C112.642 22.5222 112.451 22.4749 112.285 22.3802C112.121 22.2841 111.991 22.1421 111.896 21.9542C111.803 21.7663 111.756 21.534 111.756 21.2573V19.1229H112.41V21.1787C112.41 21.4073 112.473 21.5894 112.6 21.7248C112.726 21.8603 112.891 21.928 113.093 21.928C113.216 21.928 113.337 21.8974 113.458 21.8362C113.581 21.7751 113.682 21.6826 113.762 21.5588C113.844 21.435 113.884 21.2777 113.882 21.0869ZM117.771 18.0044V22.4785H117.096V18.0044H117.771ZM119.355 20.4861V22.4785H118.701V19.1229H119.328V19.6691H119.37C119.447 19.4914 119.568 19.3487 119.733 19.2409C119.899 19.1331 120.108 19.0792 120.36 19.0792C120.588 19.0792 120.788 19.1273 120.96 19.2234C121.132 19.3181 121.265 19.4594 121.36 19.6472C121.455 19.8351 121.502 20.0674 121.502 20.3441V22.4785H120.849V20.4228C120.849 20.1796 120.786 19.9895 120.659 19.8526C120.532 19.7142 120.358 19.6451 120.137 19.6451C119.985 19.6451 119.851 19.6778 119.733 19.7434C119.616 19.8089 119.524 19.905 119.455 20.0317C119.388 20.157 119.355 20.3085 119.355 20.4861ZM123.634 22.5441C123.363 22.5441 123.122 22.4749 122.909 22.3365C122.698 22.1967 122.532 21.9979 122.411 21.7401C122.291 21.4809 122.232 21.1699 122.232 20.8073C122.232 20.4446 122.292 20.1344 122.413 19.8766C122.535 19.6188 122.703 19.4215 122.916 19.2846C123.128 19.1477 123.369 19.0792 123.639 19.0792C123.847 19.0792 124.014 19.1142 124.141 19.1841C124.269 19.2526 124.368 19.3327 124.438 19.4244C124.51 19.5162 124.565 19.597 124.604 19.6669H124.644V18.0044H125.297V22.4785H124.659V21.9564H124.604C124.565 22.0278 124.508 22.1093 124.434 22.2011C124.361 22.2928 124.261 22.3729 124.132 22.4414C124.004 22.5098 123.838 22.5441 123.634 22.5441ZM123.778 21.987C123.966 21.987 124.125 21.9375 124.255 21.8384C124.386 21.7379 124.485 21.5988 124.552 21.4212C124.62 21.2435 124.655 21.0367 124.655 20.8007C124.655 20.5677 124.621 20.3638 124.554 20.189C124.487 20.0143 124.389 19.8781 124.259 19.7805C124.129 19.6829 123.969 19.6341 123.778 19.6341C123.582 19.6341 123.418 19.6851 123.287 19.7871C123.156 19.889 123.057 20.0281 122.99 20.2043C122.924 20.3805 122.892 20.5793 122.892 20.8007C122.892 21.025 122.925 21.2267 122.992 21.4059C123.059 21.585 123.158 21.727 123.289 21.8319C123.422 21.9353 123.585 21.987 123.778 21.987ZM126.229 22.4785V19.1229H126.882V22.4785H126.229ZM126.559 18.6052C126.445 18.6052 126.348 18.5673 126.266 18.4916C126.186 18.4144 126.146 18.3226 126.146 18.2163C126.146 18.1085 126.186 18.0168 126.266 17.941C126.348 17.8639 126.445 17.8253 126.559 17.8253C126.673 17.8253 126.769 17.8639 126.85 17.941C126.931 18.0168 126.972 18.1085 126.972 18.2163C126.972 18.3226 126.931 18.4144 126.85 18.4916C126.769 18.5673 126.673 18.6052 126.559 18.6052ZM128.738 22.5528C128.525 22.5528 128.333 22.5135 128.161 22.4348C127.989 22.3547 127.853 22.2389 127.752 22.0875C127.653 21.936 127.604 21.7503 127.604 21.5304C127.604 21.3411 127.64 21.1852 127.713 21.0629C127.786 20.9405 127.884 20.8437 128.008 20.7723C128.132 20.701 128.27 20.6471 128.423 20.6107C128.576 20.5743 128.732 20.5466 128.89 20.5276C129.091 20.5043 129.255 20.4854 129.38 20.4708C129.505 20.4548 129.596 20.4293 129.653 20.3944C129.71 20.3594 129.738 20.3026 129.738 20.224V20.2087C129.738 20.0179 129.684 19.8701 129.576 19.7652C129.47 19.6603 129.311 19.6079 129.1 19.6079C128.88 19.6079 128.707 19.6567 128.58 19.7543C128.455 19.8504 128.368 19.9575 128.32 20.0754L127.706 19.9356C127.779 19.7317 127.886 19.5671 128.025 19.4419C128.167 19.3152 128.329 19.2234 128.513 19.1666C128.696 19.1084 128.889 19.0792 129.091 19.0792C129.225 19.0792 129.367 19.0953 129.517 19.1273C129.669 19.1579 129.81 19.2147 129.941 19.2977C130.074 19.3807 130.182 19.4994 130.267 19.6538C130.351 19.8067 130.394 20.0055 130.394 20.2502V22.4785H129.756V22.0197H129.729C129.687 22.1042 129.624 22.1872 129.539 22.2688C129.455 22.3504 129.346 22.4181 129.214 22.472C129.081 22.5258 128.923 22.5528 128.738 22.5528ZM128.88 22.0285C129.06 22.0285 129.215 21.9928 129.343 21.9214C129.472 21.8501 129.571 21.7569 129.638 21.6418C129.706 21.5253 129.74 21.4008 129.74 21.2682V20.8357C129.717 20.859 129.672 20.8808 129.605 20.9012C129.539 20.9201 129.464 20.9369 129.38 20.9515C129.295 20.9646 129.213 20.9769 129.133 20.9886C129.053 20.9988 128.986 21.0075 128.932 21.0148C128.805 21.0308 128.69 21.0578 128.585 21.0956C128.481 21.1335 128.398 21.1881 128.336 21.2595C128.274 21.3294 128.244 21.4226 128.244 21.5391C128.244 21.7008 128.304 21.8231 128.423 21.9061C128.542 21.9877 128.695 22.0285 128.88 22.0285ZM131.917 20.4861V22.4785H131.264V19.1229H131.891V19.6691H131.932C132.009 19.4914 132.13 19.3487 132.295 19.2409C132.461 19.1331 132.67 19.0792 132.922 19.0792C133.15 19.0792 133.351 19.1273 133.522 19.2234C133.694 19.3181 133.828 19.4594 133.922 19.6472C134.017 19.8351 134.064 20.0674 134.064 20.3441V22.4785H133.411V20.4228C133.411 20.1796 133.348 19.9895 133.221 19.8526C133.094 19.7142 132.92 19.6451 132.699 19.6451C132.547 19.6451 132.413 19.6778 132.295 19.7434C132.178 19.8089 132.086 19.905 132.017 20.0317C131.95 20.157 131.917 20.3085 131.917 20.4861ZM135.655 21.1918V21.1503C135.658 20.8794 135.685 20.6638 135.735 20.5036C135.788 20.3434 135.862 20.2138 135.958 20.1148C136.054 20.0157 136.17 19.9254 136.306 19.8439C136.393 19.7885 136.472 19.7266 136.542 19.6582C136.612 19.5897 136.667 19.5111 136.708 19.4222C136.748 19.3334 136.769 19.2351 136.769 19.1273C136.769 18.9977 136.738 18.8855 136.677 18.7909C136.616 18.6962 136.534 18.6234 136.432 18.5724C136.332 18.52 136.22 18.4938 136.096 18.4938C135.984 18.4938 135.877 18.5171 135.775 18.5637C135.673 18.6103 135.588 18.6831 135.521 18.7821C135.454 18.8797 135.416 19.0057 135.406 19.1601H134.741C134.752 18.8979 134.818 18.6765 134.94 18.4959C135.063 18.3139 135.224 18.1763 135.425 18.083C135.628 17.9898 135.851 17.9432 136.096 17.9432C136.364 17.9432 136.598 17.9935 136.799 18.094C137 18.193 137.156 18.3321 137.267 18.5112C137.379 18.6889 137.435 18.8965 137.435 19.1339C137.435 19.297 137.41 19.4441 137.359 19.5751C137.308 19.7048 137.235 19.8206 137.14 19.9225C137.047 20.0245 136.935 20.1148 136.804 20.1934C136.68 20.2706 136.579 20.3507 136.502 20.4337C136.427 20.5167 136.371 20.615 136.336 20.7286C136.301 20.8422 136.282 20.9828 136.279 21.1503V21.1918H135.655ZM135.985 22.52C135.865 22.52 135.762 22.4778 135.676 22.3933C135.591 22.3074 135.548 22.204 135.548 22.0831C135.548 21.9637 135.591 21.8617 135.676 21.7773C135.762 21.6913 135.865 21.6484 135.985 21.6484C136.102 21.6484 136.204 21.6913 136.29 21.7773C136.378 21.8617 136.421 21.9637 136.421 22.0831C136.421 22.1632 136.401 22.2368 136.36 22.3037C136.321 22.3693 136.269 22.4217 136.203 22.461C136.137 22.5004 136.065 22.52 135.985 22.52Z" fill="#333333"/>
<path d="M96.7307 31.4713C96.7307 32.6525 95.7732 33.6101 94.5919 33.6101C93.4107 33.6101 92.4531 32.6525 92.4531 31.4713C92.4531 30.2901 93.4107 29.3325 94.5919 29.3325C95.7732 29.3325 96.7307 30.2901 96.7307 31.4713ZM92.7935 31.4713C92.7935 32.4646 93.5987 33.2697 94.5919 33.2697C95.5852 33.2697 96.3903 32.4646 96.3903 31.4713C96.3903 30.4781 95.5852 29.6729 94.5919 29.6729C93.5987 29.6729 92.7935 30.4781 92.7935 31.4713Z" fill="#D9D9D9"/>
<path d="M98.497 29.1018H99.0399L100.126 30.9292H100.172L101.257 29.1018H101.8L100.386 31.4033V33.0166H99.9116V31.4033L98.497 29.1018ZM103.168 33.0778C102.885 33.0778 102.641 33.0153 102.436 32.8904C102.232 32.7643 102.074 32.5884 101.964 32.3629C101.854 32.136 101.799 31.8722 101.799 31.5715C101.799 31.2707 101.854 31.0057 101.964 30.7763C102.074 30.5456 102.229 30.3659 102.426 30.2372C102.625 30.1072 102.857 30.0422 103.122 30.0422C103.275 30.0422 103.426 30.0677 103.575 30.1187C103.724 30.1697 103.86 30.2525 103.982 30.3672C104.105 30.4806 104.202 30.631 104.275 30.8183C104.347 31.0057 104.384 31.2363 104.384 31.5103V31.7015H102.12V31.3115H103.925C103.925 31.1458 103.892 30.998 103.825 30.868C103.76 30.738 103.667 30.6355 103.546 30.5603C103.427 30.4851 103.285 30.4475 103.122 30.4475C102.942 30.4475 102.787 30.4921 102.656 30.5813C102.526 30.6692 102.426 30.7839 102.355 30.9254C102.285 31.0668 102.25 31.2185 102.25 31.3803V31.6403C102.25 31.862 102.289 32.05 102.365 32.2042C102.443 32.3571 102.55 32.4737 102.688 32.554C102.826 32.633 102.986 32.6725 103.168 32.6725C103.286 32.6725 103.393 32.656 103.489 32.6228C103.586 32.5884 103.669 32.5374 103.739 32.4699C103.81 32.4011 103.864 32.3157 103.902 32.2138L104.338 32.3361C104.292 32.4839 104.215 32.6139 104.106 32.726C103.998 32.8369 103.864 32.9236 103.705 32.986C103.546 33.0472 103.367 33.0778 103.168 33.0778ZM107.15 30.738L106.744 30.8527C106.719 30.7852 106.681 30.7196 106.632 30.6558C106.583 30.5908 106.517 30.5373 106.433 30.4953C106.349 30.4532 106.241 30.4322 106.11 30.4322C105.93 30.4322 105.78 30.4736 105.661 30.5564C105.542 30.638 105.483 30.7419 105.483 30.868C105.483 30.9802 105.524 31.0687 105.605 31.1337C105.687 31.1987 105.814 31.2529 105.987 31.2962L106.423 31.4033C106.686 31.467 106.881 31.5645 107.01 31.6957C107.139 31.8257 107.203 31.9933 107.203 32.1985C107.203 32.3667 107.155 32.5171 107.058 32.6496C106.962 32.7821 106.828 32.8866 106.656 32.9631C106.484 33.0395 106.284 33.0778 106.056 33.0778C105.757 33.0778 105.509 33.0128 105.313 32.8828C105.116 32.7528 104.992 32.5629 104.94 32.3132L105.368 32.2061C105.409 32.3641 105.486 32.4826 105.599 32.5617C105.714 32.6407 105.864 32.6802 106.049 32.6802C106.259 32.6802 106.426 32.6356 106.549 32.5464C106.674 32.4559 106.737 32.3476 106.737 32.2214C106.737 32.1194 106.701 32.0341 106.63 31.9653C106.558 31.8952 106.449 31.8429 106.301 31.8085L105.812 31.6938C105.543 31.6301 105.345 31.5313 105.219 31.3975C105.094 31.2624 105.032 31.0936 105.032 30.891C105.032 30.7253 105.078 30.5787 105.171 30.4513C105.265 30.3239 105.394 30.2238 105.555 30.1512C105.719 30.0786 105.903 30.0422 106.11 30.0422C106.4 30.0422 106.628 30.106 106.794 30.2334C106.961 30.3608 107.08 30.529 107.15 30.738Z" fill="#4F4F4F"/>
<path d="M96.7307 42.0094C96.7307 43.1906 95.7732 44.1482 94.5919 44.1482C93.4107 44.1482 92.4531 43.1906 92.4531 42.0094C92.4531 40.8282 93.4107 39.8706 94.5919 39.8706C95.7732 39.8706 96.7307 40.8282 96.7307 42.0094ZM92.7935 42.0094C92.7935 43.0026 93.5987 43.8078 94.5919 43.8078C95.5852 43.8078 96.3903 43.0026 96.3903 42.0094C96.3903 41.0162 95.5852 40.211 94.5919 40.211C93.5987 40.211 92.7935 41.0162 92.7935 42.0094Z" fill="#A58CF0"/>
<circle cx="94.5967" cy="42.0093" r="1.0694" fill="#A58CF0"/>
<path d="M101.938 39.6398V43.5547H101.479L99.3457 40.4809H99.3075V43.5547H98.8334V39.6398H99.2922L101.433 42.7213H101.471V39.6398H101.938ZM104.018 43.6159C103.753 43.6159 103.52 43.5528 103.32 43.4266C103.122 43.3005 102.966 43.124 102.854 42.8971C102.743 42.6703 102.688 42.4052 102.688 42.1019C102.688 41.7961 102.743 41.5291 102.854 41.301C102.966 41.0729 103.122 40.8957 103.32 40.7696C103.52 40.6434 103.753 40.5803 104.018 40.5803C104.283 40.5803 104.515 40.6434 104.714 40.7696C104.914 40.8957 105.069 41.0729 105.18 41.301C105.292 41.5291 105.348 41.7961 105.348 42.1019C105.348 42.4052 105.292 42.6703 105.18 42.8971C105.069 43.124 104.914 43.3005 104.714 43.4266C104.515 43.5528 104.283 43.6159 104.018 43.6159ZM104.018 43.2106C104.219 43.2106 104.385 43.159 104.515 43.0558C104.645 42.9525 104.741 42.8168 104.804 42.6486C104.866 42.4804 104.897 42.2982 104.897 42.1019C104.897 41.9057 104.866 41.7228 104.804 41.5533C104.741 41.3838 104.645 41.2468 104.515 41.1423C104.385 41.0378 104.219 40.9856 104.018 40.9856C103.817 40.9856 103.651 41.0378 103.521 41.1423C103.391 41.2468 103.295 41.3838 103.232 41.5533C103.17 41.7228 103.139 41.9057 103.139 42.1019C103.139 42.2982 103.17 42.4804 103.232 42.6486C103.295 42.8168 103.391 42.9525 103.521 43.0558C103.651 43.159 103.817 43.2106 104.018 43.2106Z" fill="#4F4F4F"/>
<path d="M102.121 63.7827V59.3086H103.799C104.142 59.3086 104.431 59.3727 104.664 59.5008C104.898 59.629 105.075 59.8052 105.195 60.0295C105.316 60.2524 105.376 60.5058 105.376 60.7898C105.376 61.0767 105.316 61.3316 105.195 61.5544C105.074 61.7772 104.895 61.9527 104.66 62.0809C104.424 62.2076 104.133 62.271 103.788 62.271H102.676V61.6046H103.679C103.88 61.6046 104.044 61.5697 104.172 61.4998C104.301 61.4299 104.395 61.3337 104.456 61.2114C104.519 61.0891 104.55 60.9485 104.55 60.7898C104.55 60.631 104.519 60.4912 104.456 60.3703C104.395 60.2494 104.3 60.1555 104.17 60.0885C104.042 60.0201 103.877 59.9858 103.674 59.9858H102.931V63.7827H102.121ZM106.045 63.7827V60.4271H106.812V60.9864H106.847C106.908 60.7927 107.013 60.6434 107.161 60.5385C107.311 60.4322 107.483 60.3791 107.675 60.3791C107.719 60.3791 107.767 60.3813 107.821 60.3856C107.877 60.3885 107.922 60.3936 107.959 60.4009V61.1284C107.925 61.1167 107.872 61.1065 107.799 61.0978C107.728 61.0876 107.659 61.0825 107.592 61.0825C107.448 61.0825 107.318 61.1138 107.203 61.1765C107.089 61.2376 107 61.3228 106.934 61.4321C106.869 61.5413 106.836 61.6673 106.836 61.81V63.7827H106.045ZM109.832 63.8483C109.495 63.8483 109.205 63.7783 108.96 63.6385C108.717 63.4973 108.53 63.2977 108.399 63.0399C108.267 62.7807 108.202 62.4756 108.202 62.1246C108.202 61.7794 108.267 61.4765 108.399 61.2158C108.531 60.9536 108.716 60.7497 108.953 60.6041C109.191 60.457 109.47 60.3834 109.79 60.3834C109.997 60.3834 110.192 60.4169 110.376 60.4839C110.561 60.5495 110.724 60.6514 110.865 60.7898C111.008 60.9281 111.12 61.1044 111.201 61.3185C111.283 61.5311 111.324 61.7845 111.324 62.0787V62.3212H108.573V61.7882H110.566C110.564 61.6367 110.531 61.502 110.467 61.384C110.403 61.2646 110.314 61.1706 110.199 61.1022C110.085 61.0337 109.953 60.9995 109.801 60.9995C109.639 60.9995 109.497 61.0388 109.375 61.1175C109.253 61.1947 109.157 61.2966 109.089 61.4233C109.022 61.5486 108.988 61.6862 108.986 61.8362V62.3015C108.986 62.4967 109.022 62.6642 109.093 62.804C109.165 62.9424 109.264 63.0487 109.393 63.123C109.521 63.1958 109.671 63.2322 109.843 63.2322C109.958 63.2322 110.062 63.2162 110.155 63.1841C110.248 63.1506 110.329 63.1018 110.397 63.0378C110.466 62.9737 110.518 62.8943 110.553 62.7996L111.291 62.8826C111.244 63.0778 111.156 63.2482 111.024 63.3939C110.895 63.538 110.729 63.6502 110.526 63.7303C110.324 63.8089 110.092 63.8483 109.832 63.8483ZM114.894 60.4271L113.699 63.7827H112.825L111.63 60.4271H112.473L113.245 62.9198H113.28L114.053 60.4271H114.894Z" fill="#A58CF0"/>
<rect x="92.6454" y="52.8988" width="32.0712" height="16.7674" rx="2.88371" stroke="#A58CF0" stroke-width="0.384494"/>
<rect x="258.59" y="52.7065" width="32.4557" height="17.1519" rx="3.07595" fill="#A58CF0"/>
<path d="M271.934 59.3086V63.7827H271.213L269.105 60.7352H269.068V63.7827H268.258V59.3086H268.983L271.089 62.3583H271.128V59.3086H271.934ZM274.268 63.8483C273.932 63.8483 273.641 63.7783 273.396 63.6385C273.153 63.4973 272.966 63.2977 272.835 63.0399C272.704 62.7807 272.638 62.4756 272.638 62.1246C272.638 61.7794 272.704 61.4765 272.835 61.2158C272.968 60.9536 273.153 60.7497 273.39 60.6041C273.627 60.457 273.906 60.3834 274.227 60.3834C274.433 60.3834 274.629 60.4169 274.812 60.4839C274.997 60.5495 275.16 60.6514 275.301 60.7898C275.444 60.9281 275.556 61.1044 275.638 61.3185C275.719 61.5311 275.76 61.7845 275.76 62.0787V62.3212H273.01V61.7882H275.002C275.001 61.6367 274.968 61.502 274.904 61.384C274.84 61.2646 274.75 61.1706 274.635 61.1022C274.522 61.0337 274.389 60.9995 274.238 60.9995C274.076 60.9995 273.934 61.0388 273.812 61.1175C273.689 61.1947 273.594 61.2966 273.525 61.4233C273.458 61.5486 273.424 61.6862 273.423 61.8362V62.3015C273.423 62.4967 273.458 62.6642 273.53 62.804C273.601 62.9424 273.701 63.0487 273.829 63.123C273.957 63.1958 274.107 63.2322 274.279 63.2322C274.394 63.2322 274.498 63.2162 274.591 63.1841C274.685 63.1506 274.766 63.1018 274.834 63.0378C274.902 62.9737 274.954 62.8943 274.989 62.7996L275.727 62.8826C275.681 63.0778 275.592 63.2482 275.461 63.3939C275.331 63.538 275.165 63.6502 274.963 63.7303C274.76 63.8089 274.529 63.8483 274.268 63.8483ZM277.004 60.4271L277.681 61.6658L278.369 60.4271H279.206L278.194 62.1049L279.223 63.7827H278.391L277.681 62.5746L276.978 63.7827H276.139L277.161 62.1049L276.165 60.4271H277.004ZM281.493 60.4271V61.0388H279.564V60.4271H281.493ZM280.04 59.6232H280.831V62.7734C280.831 62.8797 280.847 62.9613 280.879 63.0181C280.913 63.0734 280.957 63.1113 281.01 63.1317C281.064 63.1521 281.124 63.1623 281.19 63.1623C281.239 63.1623 281.284 63.1586 281.325 63.1514C281.367 63.1441 281.399 63.1375 281.421 63.1317L281.554 63.7499C281.512 63.7645 281.452 63.7805 281.373 63.798C281.296 63.8155 281.201 63.8257 281.089 63.8286C280.891 63.8344 280.713 63.8046 280.554 63.739C280.395 63.672 280.269 63.5686 280.176 63.4288C280.084 63.289 280.039 63.1142 280.04 62.9045V59.6232Z" fill="white"/>
</g>
<g filter="url(#filter1_dd_3890_9047)">
<rect x="42" y="72" width="213.527" height="73.0824" rx="2.86372" fill="white" shape-rendering="crispEdges"/>
<path d="M58.1264 89.4551H56.7779V85.2897H58.1691C58.5773 85.2897 58.9278 85.3731 59.2206 85.5398C59.5135 85.7053 59.7379 85.9432 59.8939 86.2537C60.0511 86.5629 60.1298 86.9337 60.1298 87.3663C60.1298 87.8002 60.0505 88.173 59.8918 88.4849C59.7345 88.7968 59.5067 89.0368 59.2084 89.2049C58.9101 89.3717 58.5495 89.4551 58.1264 89.4551ZM57.4064 88.9059H58.0918C58.4091 88.9059 58.6728 88.8463 58.883 88.7269C59.0932 88.6063 59.2505 88.432 59.3549 88.2042C59.4593 87.9751 59.5115 87.6958 59.5115 87.3663C59.5115 87.0395 59.4593 86.7622 59.3549 86.5344C59.2518 86.3066 59.0979 86.1337 58.8932 86.0158C58.6884 85.8978 58.4342 85.8388 58.1305 85.8388H57.4064V88.9059ZM62.1784 89.5181C61.8855 89.5181 61.63 89.451 61.4117 89.3168C61.1933 89.1825 61.0239 88.9947 60.9032 88.7534C60.7825 88.512 60.7222 88.23 60.7222 87.9073C60.7222 87.5832 60.7825 87.2998 60.9032 87.0571C61.0239 86.8144 61.1933 86.6259 61.4117 86.4917C61.63 86.3575 61.8855 86.2903 62.1784 86.2903C62.4713 86.2903 62.7269 86.3575 62.9452 86.4917C63.1635 86.6259 63.333 86.8144 63.4537 87.0571C63.5744 87.2998 63.6347 87.5832 63.6347 87.9073C63.6347 88.23 63.5744 88.512 63.4537 88.7534C63.333 88.9947 63.1635 89.1825 62.9452 89.3168C62.7269 89.451 62.4713 89.5181 62.1784 89.5181ZM62.1805 89.0076C62.3703 89.0076 62.5276 88.9575 62.6523 88.8571C62.7771 88.7568 62.8693 88.6232 62.9289 88.4564C62.99 88.2897 63.0205 88.1059 63.0205 87.9053C63.0205 87.7059 62.99 87.5229 62.9289 87.3561C62.8693 87.188 62.7771 87.0531 62.6523 86.9514C62.5276 86.8497 62.3703 86.7988 62.1805 86.7988C61.9893 86.7988 61.8306 86.8497 61.7045 86.9514C61.5798 87.0531 61.4869 87.188 61.4259 87.3561C61.3662 87.5229 61.3364 87.7059 61.3364 87.9053C61.3364 88.1059 61.3662 88.2897 61.4259 88.4564C61.4869 88.6232 61.5798 88.7568 61.7045 88.8571C61.8306 88.9575 61.9893 89.0076 62.1805 89.0076ZM66.2137 90.6266C66.1228 90.6266 66.0401 90.6191 65.9655 90.6042C65.891 90.5907 65.8354 90.5758 65.7988 90.5595L65.9452 90.0612C66.0564 90.091 66.1554 90.1039 66.2421 90.0998C66.3289 90.0958 66.4055 90.0632 66.472 90.0022C66.5398 89.9412 66.5994 89.8415 66.651 89.7032L66.7262 89.4958L65.5832 86.331H66.234L67.0252 88.7554H67.0577L67.8489 86.331H68.5018L67.2143 89.872C67.1547 90.0347 67.0788 90.1724 66.9865 90.2849C66.8943 90.3988 66.7845 90.4842 66.6571 90.5412C66.5296 90.5981 66.3818 90.6266 66.2137 90.6266ZM70.283 89.5181C69.9901 89.5181 69.7345 89.451 69.5162 89.3168C69.2979 89.1825 69.1284 88.9947 69.0077 88.7534C68.8871 88.512 68.8267 88.23 68.8267 87.9073C68.8267 87.5832 68.8871 87.2998 69.0077 87.0571C69.1284 86.8144 69.2979 86.6259 69.5162 86.4917C69.7345 86.3575 69.9901 86.2903 70.283 86.2903C70.5759 86.2903 70.8315 86.3575 71.0498 86.4917C71.2681 86.6259 71.4376 86.8144 71.5582 87.0571C71.6789 87.2998 71.7392 87.5832 71.7392 87.9073C71.7392 88.23 71.6789 88.512 71.5582 88.7534C71.4376 88.9947 71.2681 89.1825 71.0498 89.3168C70.8315 89.451 70.5759 89.5181 70.283 89.5181ZM70.285 89.0076C70.4748 89.0076 70.6321 88.9575 70.7569 88.8571C70.8816 88.7568 70.9738 88.6232 71.0335 88.4564C71.0945 88.2897 71.125 88.1059 71.125 87.9053C71.125 87.7059 71.0945 87.5229 71.0335 87.3561C70.9738 87.188 70.8816 87.0531 70.7569 86.9514C70.6321 86.8497 70.4748 86.7988 70.285 86.7988C70.0938 86.7988 69.9352 86.8497 69.8091 86.9514C69.6843 87.0531 69.5915 87.188 69.5304 87.3561C69.4708 87.5229 69.4409 87.7059 69.4409 87.9053C69.4409 88.1059 69.4708 88.2897 69.5304 88.4564C69.5915 88.6232 69.6843 88.7568 69.8091 88.8571C69.9352 88.9575 70.0938 89.0076 70.285 89.0076ZM74.397 88.1595V86.331H75.0072V89.4551H74.4092V88.9141H74.3767C74.3048 89.0808 74.1896 89.2198 74.0309 89.331C73.8736 89.4408 73.6777 89.4958 73.4431 89.4958C73.2425 89.4958 73.0648 89.4517 72.9103 89.3636C72.757 89.2741 72.6364 89.1419 72.5482 88.9669C72.4614 88.792 72.4181 88.5758 72.4181 88.3181V86.331H73.0262V88.2449C73.0262 88.4578 73.0852 88.6273 73.2031 88.7534C73.3211 88.8795 73.4743 88.9425 73.6628 88.9425C73.7767 88.9425 73.8899 88.9141 74.0025 88.8571C74.1164 88.8002 74.2106 88.7141 74.2852 88.5988C74.3611 88.4836 74.3984 88.3371 74.397 88.1595ZM77.9482 87.6002V89.4551H77.3401V85.2897H77.9401V86.8395H77.9787C78.0519 86.6714 78.1638 86.5378 78.3143 86.4388C78.4648 86.3398 78.6614 86.2903 78.9041 86.2903C79.1184 86.2903 79.3055 86.3344 79.4655 86.4225C79.6268 86.5107 79.7516 86.6422 79.8397 86.8171C79.9292 86.9907 79.974 87.2076 79.974 87.468V89.4551H79.3658V87.5412C79.3658 87.312 79.3068 87.1344 79.1889 87.0083C79.0709 86.8808 78.9068 86.8171 78.6967 86.8171C78.553 86.8171 78.4241 86.8476 78.3102 86.9086C78.1977 86.9697 78.1089 87.0592 78.0438 87.1771C77.9801 87.2937 77.9482 87.4347 77.9482 87.6002ZM81.6946 89.5242C81.4967 89.5242 81.3177 89.4876 81.1577 89.4144C80.9977 89.3398 80.8709 89.232 80.7774 89.091C80.6851 88.95 80.639 88.7771 80.639 88.5724C80.639 88.3961 80.6729 88.251 80.7407 88.1371C80.8085 88.0232 80.9001 87.933 81.0153 87.8666C81.1306 87.8002 81.2594 87.75 81.4018 87.7161C81.5441 87.6822 81.6892 87.6564 81.837 87.6388C82.0241 87.6171 82.176 87.5995 82.2926 87.5859C82.4092 87.571 82.494 87.5473 82.5468 87.5147C82.5997 87.4822 82.6262 87.4293 82.6262 87.3561V87.3419C82.6262 87.1642 82.576 87.0266 82.4757 86.929C82.3767 86.8314 82.2289 86.7825 82.0323 86.7825C81.8275 86.7825 81.6662 86.828 81.5482 86.9188C81.4316 87.0083 81.3509 87.108 81.3062 87.2178L80.7346 87.0876C80.8024 86.8978 80.9014 86.7446 81.0316 86.628C81.1631 86.51 81.3143 86.4246 81.4851 86.3717C81.656 86.3175 81.8357 86.2903 82.0241 86.2903C82.1489 86.2903 82.2811 86.3053 82.4207 86.3351C82.5618 86.3636 82.6933 86.4164 82.8153 86.4937C82.9387 86.571 83.0397 86.6815 83.1184 86.8253C83.197 86.9676 83.2363 87.1527 83.2363 87.3805V89.4551H82.6424V89.028H82.618C82.5787 89.1066 82.5197 89.1839 82.4411 89.2598C82.3624 89.3358 82.2614 89.3988 82.138 89.449C82.0146 89.4991 81.8668 89.5242 81.6946 89.5242ZM81.8268 89.0361C81.995 89.0361 82.1387 89.0029 82.258 88.9364C82.3787 88.87 82.4702 88.7832 82.5326 88.6761C82.5963 88.5676 82.6282 88.4517 82.6282 88.3283V87.9256C82.6065 87.9473 82.5645 87.9676 82.5021 87.9866C82.4411 88.0042 82.3712 88.0198 82.2926 88.0334C82.214 88.0456 82.1373 88.0571 82.0628 88.068C81.9882 88.0775 81.9258 88.0856 81.8757 88.0924C81.7577 88.1073 81.6499 88.1324 81.5523 88.1676C81.456 88.2029 81.3787 88.2537 81.3204 88.3202C81.2635 88.3853 81.235 88.472 81.235 88.5805C81.235 88.731 81.2906 88.8449 81.4018 88.9222C81.5129 88.9981 81.6546 89.0361 81.8268 89.0361ZM86.607 86.331L85.4741 89.4551H84.8233L83.6884 86.331H84.3412L85.1324 88.7351H85.165L85.9541 86.331H86.607ZM88.4187 89.5181C88.1109 89.5181 87.8458 89.4524 87.6234 89.3208C87.4024 89.188 87.2316 89.0015 87.1109 88.7615C86.9916 88.5202 86.9319 88.2375 86.9319 87.9134C86.9319 87.5934 86.9916 87.3114 87.1109 87.0673C87.2316 86.8232 87.3997 86.6327 87.6153 86.4958C87.8322 86.3588 88.0858 86.2903 88.376 86.2903C88.5522 86.2903 88.7231 86.3195 88.8885 86.3778C89.0539 86.4361 89.2024 86.5276 89.3339 86.6524C89.4655 86.7771 89.5692 86.9392 89.6451 87.1385C89.7211 87.3364 89.759 87.5771 89.759 87.8605V88.0761H87.2756V87.6205H89.1631C89.1631 87.4605 89.1305 87.3188 89.0655 87.1954C89.0004 87.0707 88.9088 86.9724 88.7909 86.9005C88.6743 86.8286 88.5373 86.7927 88.38 86.7927C88.2092 86.7927 88.06 86.8347 87.9326 86.9188C87.8065 87.0015 87.7089 87.11 87.6397 87.2442C87.5719 87.3771 87.538 87.5215 87.538 87.6775V88.0334C87.538 88.2422 87.5746 88.4198 87.6478 88.5663C87.7224 88.7127 87.8261 88.8246 87.959 88.9019C88.0919 88.9778 88.2472 89.0158 88.4248 89.0158C88.54 89.0158 88.6451 88.9995 88.74 88.9669C88.835 88.933 88.917 88.8829 88.9861 88.8164C89.0553 88.75 89.1082 88.668 89.1448 88.5703L89.7204 88.6741C89.6743 88.8436 89.5916 88.992 89.4722 89.1195C89.3543 89.2456 89.2058 89.3439 89.0268 89.4144C88.8492 89.4836 88.6465 89.5181 88.4187 89.5181ZM94.6221 86.331L93.4892 89.4551H92.8383L91.7034 86.331H92.3563L93.1475 88.7351H93.18L93.9692 86.331H94.6221ZM95.1936 89.4551V86.331H95.8017V89.4551H95.1936ZM95.5007 85.849C95.3949 85.849 95.3041 85.8137 95.2282 85.7432C95.1536 85.6714 95.1163 85.5859 95.1163 85.487C95.1163 85.3866 95.1536 85.3012 95.2282 85.2307C95.3041 85.1588 95.3949 85.1229 95.5007 85.1229C95.6065 85.1229 95.6966 85.1588 95.7712 85.2307C95.8471 85.3012 95.8851 85.3866 95.8851 85.487C95.8851 85.5859 95.8471 85.6714 95.7712 85.7432C95.6966 85.8137 95.6065 85.849 95.5007 85.849ZM98.9609 87.0937L98.4097 87.1914C98.3866 87.1208 98.35 87.0537 98.2998 86.99C98.251 86.9263 98.1846 86.8741 98.1005 86.8334C98.0164 86.7927 97.9114 86.7724 97.7853 86.7724C97.6131 86.7724 97.4693 86.811 97.3541 86.8883C97.2388 86.9642 97.1812 87.0625 97.1812 87.1832C97.1812 87.2876 97.2198 87.3717 97.2971 87.4354C97.3744 87.4992 97.4992 87.5514 97.6714 87.592L98.1676 87.7059C98.4551 87.7724 98.6693 87.8747 98.8103 88.013C98.9514 88.1514 99.0219 88.331 99.0219 88.552C99.0219 88.7391 98.9676 88.9059 98.8592 89.0524C98.752 89.1975 98.6022 89.3113 98.4097 89.3941C98.2185 89.4768 97.9968 89.5181 97.7446 89.5181C97.3948 89.5181 97.1093 89.4436 96.8883 89.2944C96.6673 89.1439 96.5317 88.9303 96.4815 88.6537L97.0693 88.5642C97.1059 88.7175 97.1812 88.8334 97.2951 88.912C97.409 88.9893 97.5575 89.028 97.7405 89.028C97.9398 89.028 98.0992 88.9866 98.2185 88.9039C98.3378 88.8198 98.3975 88.7175 98.3975 88.5968C98.3975 88.4991 98.3609 88.4171 98.2876 88.3507C98.2158 88.2842 98.1053 88.2341 97.9561 88.2002L97.4273 88.0842C97.1358 88.0178 96.9202 87.912 96.7805 87.7669C96.6422 87.6219 96.5731 87.4381 96.5731 87.2158C96.5731 87.0314 96.6246 86.87 96.7276 86.7317C96.8307 86.5934 96.9731 86.4856 97.1548 86.4083C97.3364 86.3297 97.5446 86.2903 97.7792 86.2903C98.1168 86.2903 98.3825 86.3636 98.5764 86.51C98.7703 86.6551 98.8985 86.8497 98.9609 87.0937ZM100.6 89.5242C100.402 89.5242 100.223 89.4876 100.063 89.4144C99.9027 89.3398 99.7759 89.232 99.6824 89.091C99.5902 88.95 99.5441 88.7771 99.5441 88.5724C99.5441 88.3961 99.578 88.251 99.6458 88.1371C99.7136 88.0232 99.8051 87.933 99.9203 87.8666C100.036 87.8002 100.164 87.75 100.307 87.7161C100.449 87.6822 100.594 87.6564 100.742 87.6388C100.929 87.6171 101.081 87.5995 101.198 87.5859C101.314 87.571 101.399 87.5473 101.452 87.5147C101.505 87.4822 101.531 87.4293 101.531 87.3561V87.3419C101.531 87.1642 101.481 87.0266 101.381 86.929C101.282 86.8314 101.134 86.7825 100.937 86.7825C100.733 86.7825 100.571 86.828 100.453 86.9188C100.337 87.0083 100.256 87.108 100.211 87.2178L99.6397 87.0876C99.7075 86.8978 99.8064 86.7446 99.9366 86.628C100.068 86.51 100.219 86.4246 100.39 86.3717C100.561 86.3175 100.741 86.2903 100.929 86.2903C101.054 86.2903 101.186 86.3053 101.326 86.3351C101.467 86.3636 101.598 86.4164 101.72 86.4937C101.844 86.571 101.945 86.6815 102.023 86.8253C102.102 86.9676 102.141 87.1527 102.141 87.3805V89.4551H101.547V89.028H101.523C101.484 89.1066 101.425 89.1839 101.346 89.2598C101.267 89.3358 101.166 89.3988 101.043 89.449C100.92 89.4991 100.772 89.5242 100.6 89.5242ZM100.732 89.0361C100.9 89.0361 101.044 89.0029 101.163 88.9364C101.284 88.87 101.375 88.7832 101.438 88.6761C101.501 88.5676 101.533 88.4517 101.533 88.3283V87.9256C101.512 87.9473 101.469 87.9676 101.407 87.9866C101.346 88.0042 101.276 88.0198 101.198 88.0334C101.119 88.0456 101.042 88.0571 100.968 88.068C100.893 88.0775 100.831 88.0856 100.781 88.0924C100.663 88.1073 100.555 88.1324 100.457 88.1676C100.361 88.2029 100.284 88.2537 100.225 88.3202C100.168 88.3853 100.14 88.472 100.14 88.5805C100.14 88.731 100.196 88.8449 100.307 88.9222C100.418 88.9981 100.56 89.0361 100.732 89.0361ZM103.616 88.2571V88.2185C103.619 87.9663 103.644 87.7656 103.692 87.6164C103.74 87.4673 103.81 87.3466 103.899 87.2544C103.989 87.1622 104.096 87.0781 104.223 87.0022C104.304 86.9507 104.377 86.8931 104.442 86.8293C104.507 86.7656 104.559 86.6924 104.597 86.6097C104.635 86.527 104.654 86.4354 104.654 86.3351C104.654 86.2144 104.625 86.11 104.568 86.0219C104.511 85.9337 104.435 85.8659 104.34 85.8185C104.247 85.7697 104.143 85.7453 104.027 85.7453C103.923 85.7453 103.823 85.767 103.728 85.8103C103.633 85.8537 103.555 85.9215 103.492 86.0137C103.43 86.1046 103.394 86.2219 103.385 86.3656H102.766C102.776 86.1215 102.837 85.9154 102.951 85.7473C103.065 85.5778 103.216 85.4497 103.403 85.3629C103.591 85.2761 103.799 85.2327 104.027 85.2327C104.277 85.2327 104.495 85.2795 104.682 85.3731C104.869 85.4653 105.014 85.5948 105.117 85.7615C105.222 85.927 105.274 86.1202 105.274 86.3412C105.274 86.4931 105.25 86.63 105.203 86.752C105.155 86.8727 105.088 86.9805 104.999 87.0754C104.913 87.1703 104.808 87.2544 104.686 87.3276C104.571 87.3995 104.477 87.4741 104.406 87.5514C104.335 87.6286 104.284 87.7202 104.251 87.8259C104.218 87.9317 104.201 88.0625 104.198 88.2185V88.2571H103.616ZM103.924 89.4937C103.812 89.4937 103.717 89.4544 103.637 89.3758C103.557 89.2958 103.517 89.1995 103.517 89.0869C103.517 88.9758 103.557 88.8808 103.637 88.8022C103.717 88.7222 103.812 88.6822 103.924 88.6822C104.033 88.6822 104.128 88.7222 104.208 88.8022C104.29 88.8808 104.33 88.9758 104.33 89.0869C104.33 89.1615 104.311 89.23 104.273 89.2924C104.237 89.3534 104.188 89.4022 104.127 89.4388C104.066 89.4754 103.998 89.4937 103.924 89.4937Z" fill="#333333"/>
<path d="M60.3028 97.772C60.3028 98.8717 59.4113 99.7632 58.3115 99.7632C57.2118 99.7632 56.3203 98.8717 56.3203 97.772C56.3203 96.6723 57.2118 95.7808 58.3115 95.7808C59.4113 95.7808 60.3028 96.6723 60.3028 97.772ZM56.6372 97.772C56.6372 98.6967 57.3868 99.4463 58.3115 99.4463C59.2362 99.4463 59.9859 98.6967 59.9859 97.772C59.9859 96.8473 59.2362 96.0977 58.3115 96.0977C57.3868 96.0977 56.6372 96.8473 56.6372 97.772Z" fill="#A58CF0"/>
<ellipse cx="58.312" cy="97.7715" rx="0.995614" ry="0.995614" fill="#A58CF0"/>
<path d="M61.9484 96.1692H62.4539L63.4647 97.8706H63.5074L64.5183 96.1692H65.0237L63.7067 98.3119V99.814H63.2654V98.3119L61.9484 96.1692ZM66.297 99.8709C66.0336 99.8709 65.8064 99.8128 65.6154 99.6965C65.4256 99.5791 65.2791 99.4153 65.1759 99.2053C65.0738 98.9941 65.0228 98.7485 65.0228 98.4685C65.0228 98.1885 65.0738 97.9418 65.1759 97.7282C65.2791 97.5135 65.4226 97.3462 65.6065 97.2263C65.7916 97.1053 66.0075 97.0448 66.2543 97.0448C66.3967 97.0448 66.5373 97.0685 66.6761 97.116C66.8149 97.1635 66.9413 97.2406 67.0552 97.3474C67.1691 97.453 67.2598 97.593 67.3275 97.7674C67.3951 97.9418 67.4289 98.1565 67.4289 98.4116V98.5896H65.3218V98.2265H67.0018C67.0018 98.0723 66.9709 97.9346 66.9092 97.8136C66.8487 97.6926 66.7621 97.5971 66.6494 97.5271C66.5379 97.4571 66.4062 97.4221 66.2543 97.4221C66.087 97.4221 65.9423 97.4636 65.8201 97.5467C65.6991 97.6285 65.6059 97.7353 65.5407 97.867C65.4754 97.9987 65.4428 98.1399 65.4428 98.2906V98.5326C65.4428 98.7391 65.4784 98.9141 65.5496 99.0576C65.622 99.2 65.7222 99.3085 65.8503 99.3833C65.9785 99.4568 66.1274 99.4936 66.297 99.4936C66.4074 99.4936 66.507 99.4782 66.596 99.4474C66.6862 99.4153 66.7639 99.3679 66.8292 99.305C66.8944 99.2409 66.9448 99.1614 66.9804 99.0665L67.3862 99.1804C67.3435 99.318 67.2717 99.4391 67.1708 99.5435C67.07 99.6467 66.9454 99.7274 66.7971 99.7855C66.6488 99.8424 66.4821 99.8709 66.297 99.8709ZM70.0041 97.6926L69.6268 97.7994C69.603 97.7365 69.568 97.6754 69.5218 97.6161C69.4767 97.5556 69.415 97.5058 69.3367 97.4666C69.2584 97.4274 69.1581 97.4079 69.0359 97.4079C68.8686 97.4079 68.7292 97.4464 68.6177 97.5235C68.5074 97.5995 68.4522 97.6962 68.4522 97.8136C68.4522 97.918 68.4902 98.0005 68.5661 98.061C68.642 98.1215 68.7607 98.1719 68.922 98.2123L69.3278 98.3119C69.5722 98.3713 69.7543 98.462 69.8741 98.5842C69.994 98.7052 70.0539 98.8613 70.0539 99.0523C70.0539 99.2089 70.0088 99.3489 69.9186 99.4723C69.8297 99.5957 69.7051 99.6929 69.5449 99.7641C69.3847 99.8353 69.1985 99.8709 68.9861 99.8709C68.7073 99.8709 68.4765 99.8104 68.2938 99.6894C68.1111 99.5684 67.9954 99.3916 67.9468 99.1591L68.3454 99.0594C68.3834 99.2065 68.4552 99.3168 68.5608 99.3904C68.6675 99.464 68.8069 99.5007 68.979 99.5007C69.1747 99.5007 69.3302 99.4592 69.4452 99.3762C69.5615 99.2919 69.6197 99.1911 69.6197 99.0736C69.6197 98.9787 69.5864 98.8992 69.52 98.8352C69.4536 98.7699 69.3515 98.7213 69.2139 98.6892L68.7583 98.5824C68.508 98.5231 68.3241 98.4312 68.2066 98.3066C68.0903 98.1808 68.0322 98.0236 68.0322 97.835C68.0322 97.6808 68.0755 97.5443 68.1621 97.4257C68.2499 97.307 68.3691 97.2139 68.5198 97.1463C68.6717 97.0786 68.8437 97.0448 69.0359 97.0448C69.3064 97.0448 69.5188 97.1041 69.673 97.2228C69.8285 97.3414 69.9388 97.498 70.0041 97.6926Z" fill="#4F4F4F"/>
<path d="M60.3028 107.173C60.3028 108.273 59.4113 109.164 58.3115 109.164C57.2118 109.164 56.3203 108.273 56.3203 107.173C56.3203 106.073 57.2118 105.182 58.3115 105.182C59.4113 105.182 60.3028 106.073 60.3028 107.173ZM56.6372 107.173C56.6372 108.098 57.3868 108.847 58.3115 108.847C59.2362 108.847 59.9859 108.098 59.9859 107.173C59.9859 106.248 59.2362 105.499 58.3115 105.499C57.3868 105.499 56.6372 106.248 56.6372 107.173Z" fill="#D9D9D9"/>
<path d="M65.0659 105.528V109.173H64.6388L62.6527 106.311H62.6171V109.173H62.1757V105.528H62.6028L64.5961 108.397H64.6317V105.528H65.0659ZM67.0026 109.23C66.7558 109.23 66.5393 109.171 66.353 109.054C66.1679 108.936 66.0232 108.772 65.9188 108.561C65.8156 108.349 65.764 108.103 65.764 107.82C65.764 107.536 65.8156 107.287 65.9188 107.075C66.0232 106.862 66.1679 106.697 66.353 106.58C66.5393 106.462 66.7558 106.404 67.0026 106.404C67.2494 106.404 67.4653 106.462 67.6504 106.58C67.8367 106.697 67.9814 106.862 68.0846 107.075C68.189 107.287 68.2412 107.536 68.2412 107.82C68.2412 108.103 68.189 108.349 68.0846 108.561C67.9814 108.772 67.8367 108.936 67.6504 109.054C67.4653 109.171 67.2494 109.23 67.0026 109.23ZM67.0026 108.853C67.1901 108.853 67.3443 108.804 67.4653 108.708C67.5863 108.612 67.6759 108.486 67.734 108.329C67.7922 108.173 67.8212 108.003 67.8212 107.82C67.8212 107.638 67.7922 107.467 67.734 107.31C67.6759 107.152 67.5863 107.024 67.4653 106.927C67.3443 106.83 67.1901 106.781 67.0026 106.781C66.8151 106.781 66.6609 106.83 66.5399 106.927C66.4189 107.024 66.3293 107.152 66.2712 107.31C66.213 107.467 66.184 107.638 66.184 107.82C66.184 108.003 66.213 108.173 66.2712 108.329C66.3293 108.486 66.4189 108.612 66.5399 108.708C66.6609 108.804 66.8151 108.853 67.0026 108.853Z" fill="#4F4F4F"/>
<path d="M65.321 126.764V122.598H66.883C67.203 122.598 67.4715 122.658 67.6885 122.777C67.9068 122.897 68.0715 123.061 68.1827 123.269C68.2952 123.477 68.3515 123.713 68.3515 123.977C68.3515 124.244 68.2952 124.482 68.1827 124.689C68.0701 124.897 67.904 125.06 67.6844 125.179C67.4647 125.297 67.1942 125.356 66.8729 125.356H65.8376V124.736H66.7712C66.9583 124.736 67.1115 124.703 67.2308 124.638C67.3501 124.573 67.4383 124.484 67.4952 124.37C67.5535 124.256 67.5827 124.125 67.5827 123.977C67.5827 123.829 67.5535 123.699 67.4952 123.587C67.4383 123.474 67.3495 123.387 67.2288 123.324C67.1095 123.261 66.9556 123.229 66.7671 123.229H66.0756V126.764H65.321ZM68.9744 126.764V123.64H69.6883V124.16H69.7208C69.7778 123.98 69.8754 123.841 70.0137 123.743C70.1534 123.644 70.3127 123.595 70.4917 123.595C70.5323 123.595 70.5778 123.597 70.6279 123.601C70.6795 123.604 70.7222 123.608 70.7561 123.615V124.292C70.7249 124.282 70.6754 124.272 70.6076 124.264C70.5412 124.255 70.4767 124.25 70.4144 124.25C70.2801 124.25 70.1595 124.279 70.0523 124.337C69.9466 124.394 69.8632 124.474 69.8022 124.575C69.7412 124.677 69.7106 124.794 69.7106 124.927V126.764H68.9744ZM72.4996 126.825C72.1864 126.825 71.9159 126.76 71.6881 126.629C71.4617 126.498 71.2874 126.312 71.1654 126.072C71.0434 125.831 70.9823 125.547 70.9823 125.22C70.9823 124.899 71.0434 124.617 71.1654 124.374C71.2888 124.13 71.461 123.94 71.682 123.804C71.903 123.667 72.1627 123.599 72.461 123.599C72.6535 123.599 72.8352 123.63 73.0061 123.692C73.1783 123.754 73.3301 123.848 73.4617 123.977C73.5945 124.106 73.6989 124.27 73.7749 124.469C73.8508 124.667 73.8888 124.903 73.8888 125.177V125.403H71.3281V124.907H73.183C73.1817 124.766 73.1511 124.64 73.0915 124.53C73.0318 124.419 72.9484 124.332 72.8413 124.268C72.7356 124.204 72.6122 124.172 72.4711 124.172C72.3206 124.172 72.1884 124.209 72.0745 124.282C71.9606 124.354 71.8718 124.449 71.8081 124.567C71.7457 124.684 71.7139 124.812 71.7125 124.951V125.385C71.7125 125.566 71.7457 125.722 71.8122 125.852C71.8786 125.981 71.9715 126.08 72.0908 126.149C72.2101 126.217 72.3498 126.251 72.5098 126.251C72.6169 126.251 72.7139 126.236 72.8006 126.206C72.8874 126.175 72.9627 126.13 73.0264 126.07C73.0901 126.01 73.1383 125.937 73.1708 125.848L73.8583 125.926C73.8149 126.107 73.7322 126.266 73.6101 126.402C73.4895 126.536 73.3349 126.64 73.1464 126.715C72.9579 126.788 72.7423 126.825 72.4996 126.825ZM77.2127 123.64L76.1001 126.764H75.2866L74.174 123.64H74.9591L75.6771 125.96H75.7096L76.4296 123.64H77.2127Z" fill="#A58CF0"/>
<rect x="56.4993" y="117.079" width="29.8244" height="16.3695" rx="2.68474" stroke="#A58CF0" stroke-width="0.357965"/>
<rect x="211.027" y="116.9" width="30.1823" height="16.7274" rx="2.86372" fill="#A58CF0"/>
<path d="M223.451 122.598V126.764H222.78L220.817 123.926H220.783V126.764H220.028V122.598H220.703L222.664 125.438H222.701V122.598H223.451ZM225.624 126.825C225.311 126.825 225.04 126.76 224.812 126.629C224.586 126.498 224.412 126.312 224.29 126.072C224.168 125.831 224.106 125.547 224.106 125.22C224.106 124.899 224.168 124.617 224.29 124.374C224.413 124.13 224.585 123.94 224.806 123.804C225.027 123.667 225.287 123.599 225.585 123.599C225.778 123.599 225.959 123.63 226.13 123.692C226.302 123.754 226.454 123.848 226.586 123.977C226.719 124.106 226.823 124.27 226.899 124.469C226.975 124.667 227.013 124.903 227.013 125.177V125.403H224.452V124.907H226.307C226.306 124.766 226.275 124.64 226.216 124.53C226.156 124.419 226.073 124.332 225.965 124.268C225.86 124.204 225.736 124.172 225.595 124.172C225.445 124.172 225.313 124.209 225.199 124.282C225.085 124.354 224.996 124.449 224.932 124.567C224.87 124.684 224.838 124.812 224.837 124.951V125.385C224.837 125.566 224.87 125.722 224.936 125.852C225.003 125.981 225.096 126.08 225.215 126.149C225.334 126.217 225.474 126.251 225.634 126.251C225.741 126.251 225.838 126.236 225.925 126.206C226.012 126.175 226.087 126.13 226.151 126.07C226.214 126.01 226.262 125.937 226.295 125.848L226.982 125.926C226.939 126.107 226.856 126.266 226.734 126.402C226.614 126.536 226.459 126.64 226.271 126.715C226.082 126.788 225.866 126.825 225.624 126.825ZM228.171 123.64L228.801 124.793L229.442 123.64H230.221L229.279 125.202L230.237 126.764H229.462L228.801 125.639L228.146 126.764H227.365L228.317 125.202L227.39 123.64H228.171ZM232.35 123.64V124.209H230.554V123.64H232.35ZM230.998 122.891H231.734V125.824C231.734 125.923 231.749 125.999 231.779 126.052C231.81 126.103 231.851 126.139 231.901 126.158C231.951 126.177 232.007 126.186 232.068 126.186C232.114 126.186 232.156 126.183 232.194 126.176C232.233 126.169 232.263 126.163 232.283 126.158L232.407 126.733C232.368 126.747 232.312 126.762 232.239 126.778C232.167 126.794 232.079 126.804 231.974 126.806C231.79 126.812 231.624 126.784 231.476 126.723C231.328 126.661 231.211 126.564 231.124 126.434C231.039 126.304 230.996 126.141 230.998 125.946V122.891Z" fill="white"/>
</g>
<g clip-path="url(#clip0_3890_9047)">
<path fill-rule="evenodd" clip-rule="evenodd" d="M45.8241 83.6928C45.6893 83.7473 45.5677 83.806 45.4728 83.8671C44.382 84.5761 43.4297 85.4488 42.4018 86.2399C39.4927 88.4789 37.285 91.5774 36.2225 95.0851C36.1203 95.4231 36.3125 95.7803 36.6506 95.8826C36.9887 95.9848 37.3448 95.7939 37.4471 95.4558C38.4325 92.2014 40.484 89.3292 43.1819 87.253C44.1835 86.4824 45.1085 85.6315 46.1716 84.9396C46.3303 84.8362 46.6094 84.7674 46.8555 84.6831C47.1235 84.5892 47.3659 84.4835 47.5209 84.369C47.7772 84.18 47.8911 83.9452 47.9045 83.7077C47.9136 83.5386 47.8764 83.3477 47.7311 83.1481C47.6717 83.0668 47.5513 82.9482 47.3375 82.8467C47.0124 82.6911 46.2445 82.4702 45.238 82.1797C43.5878 81.7059 41.2589 81.0255 39.2938 80.0762C38.0614 79.4822 36.9711 78.7901 36.3319 77.9587C36.1168 77.678 35.7147 77.6262 35.434 77.8412C35.1543 78.055 35.1014 78.4584 35.3165 78.7391C36.0584 79.704 37.3042 80.538 38.7372 81.2293C40.7705 82.2094 43.1789 82.919 44.8852 83.41C45.2131 83.5044 45.5381 83.6025 45.8241 83.6928Z" fill="#D5C9F8"/>
<path fill-rule="evenodd" clip-rule="evenodd" d="M44.2675 83.1783C39.3975 87.2662 34.882 87.9264 31.5189 86.3458C26.4577 83.9672 24.1432 76.6675 27.1819 69.0096C34.786 49.8462 58.5364 42.4005 77.1856 43.6054C77.5392 43.6276 77.8422 43.3603 77.8657 43.0077C77.8891 42.6552 77.6206 42.3511 77.268 42.3277C58.1214 41.0906 33.799 48.862 25.992 68.5369C22.6572 76.9408 25.4201 84.8941 30.9744 87.5043C34.6889 89.2488 39.7118 88.6735 45.0895 84.1586C45.3595 83.931 45.3949 83.5264 45.1686 83.2574C44.9421 82.9861 44.5375 82.9507 44.2675 83.1783Z" fill="#D5C9F8"/>
</g>
<defs>
<filter id="filter0_dd_3890_9047" x="71.8169" y="0.546126" width="239.866" height="89.502" filterUnits="userSpaceOnUse" color-interpolation-filters="sRGB">
<feFlood flood-opacity="0" result="BackgroundImageFix"/>
<feColorMatrix in="SourceAlpha" type="matrix" values="0 0 0 0 0 0 0 0 0 0 0 0 0 0 0 0 0 0 127 0" result="hardAlpha"/>
<feOffset dy="2.62868"/>
<feGaussianBlur stdDeviation="2.62868"/>
<feComposite in2="hardAlpha" operator="out"/>
<feColorMatrix type="matrix" values="0 0 0 0 0 0 0 0 0 0 0 0 0 0 0 0 0 0 0.05 0"/>
<feBlend mode="normal" in2="BackgroundImageFix" result="effect1_dropShadow_3890_9047"/>
<feColorMatrix in="SourceAlpha" type="matrix" values="0 0 0 0 0 0 0 0 0 0 0 0 0 0 0 0 0 0 127 0" result="hardAlpha"/>
<feOffset dy="1.31434"/>
<feGaussianBlur stdDeviation="1.31434"/>
<feComposite in2="hardAlpha" operator="out"/>
<feColorMatrix type="matrix" values="0 0 0 0 0 0 0 0 0 0 0 0 0 0 0 0 0 0 0.07 0"/>
<feBlend mode="normal" in2="effect1_dropShadow_3890_9047" result="effect2_dropShadow_3890_9047"/>
<feBlend mode="normal" in="SourceGraphic" in2="effect2_dropShadow_3890_9047" result="shape"/>
</filter>
<filter id="filter1_dd_3890_9047" x="37.1054" y="69.5527" width="223.317" height="82.8717" filterUnits="userSpaceOnUse" color-interpolation-filters="sRGB">
<feFlood flood-opacity="0" result="BackgroundImageFix"/>
<feColorMatrix in="SourceAlpha" type="matrix" values="0 0 0 0 0 0 0 0 0 0 0 0 0 0 0 0 0 0 127 0" result="hardAlpha"/>
<feOffset dy="2.44731"/>
<feGaussianBlur stdDeviation="2.44731"/>
<feComposite in2="hardAlpha" operator="out"/>
<feColorMatrix type="matrix" values="0 0 0 0 0 0 0 0 0 0 0 0 0 0 0 0 0 0 0.05 0"/>
<feBlend mode="normal" in2="BackgroundImageFix" result="effect1_dropShadow_3890_9047"/>
<feColorMatrix in="SourceAlpha" type="matrix" values="0 0 0 0 0 0 0 0 0 0 0 0 0 0 0 0 0 0 127 0" result="hardAlpha"/>
<feOffset dy="1.22365"/>
<feGaussianBlur stdDeviation="1.22365"/>
<feComposite in2="hardAlpha" operator="out"/>
<feColorMatrix type="matrix" values="0 0 0 0 0 0 0 0 0 0 0 0 0 0 0 0 0 0 0.07 0"/>
<feBlend mode="normal" in2="effect1_dropShadow_3890_9047" result="effect2_dropShadow_3890_9047"/>
<feBlend mode="normal" in="SourceGraphic" in2="effect2_dropShadow_3890_9047" result="shape"/>
</filter>
<clipPath id="clip0_3890_9047">
<rect width="67.5719" height="67.5719" fill="white" transform="translate(53.375 108.999) rotate(-141.999)"/>
</clipPath>
</defs>
</svg>
