<svg width="298" height="142" viewBox="0 0 298 142" fill="none" xmlns="http://www.w3.org/2000/svg">
<g filter="url(#filter0_dd_3979_8533)">
<rect width="285" height="121.995" transform="translate(6.5 10.25)" fill="white"/>
<path d="M17.494 23.6782V29.6777H16.5888V23.6782H17.494ZM18.9773 29.6777V23.6782H22.6977V24.4574H19.8825V26.2854H22.4311V27.0617H19.8825V29.6777H18.9773Z" fill="#4F4F4F"/>
<path d="M30.8433 51.8198V57.8193H30.1403L26.871 53.1088H26.8124V57.8193H26.0859V51.8198H26.789L30.07 56.5421H30.1285V51.8198H30.8433ZM33.5275 57.9248C33.2423 57.9248 32.9835 57.8711 32.7511 57.7637C32.5187 57.6543 32.3342 57.4971 32.1975 57.292C32.0608 57.085 31.9924 56.835 31.9924 56.5421C31.9924 56.2843 32.0432 56.0753 32.1447 55.9152C32.2463 55.7531 32.382 55.6261 32.5519 55.5344C32.7218 55.4426 32.9093 55.3742 33.1144 55.3293C33.3214 55.2824 33.5294 55.2453 33.7384 55.218C34.0118 55.1828 34.2335 55.1565 34.4034 55.1389C34.5752 55.1193 34.7002 55.0871 34.7783 55.0422C34.8584 54.9973 34.8984 54.9192 34.8984 54.8078V54.7844C34.8984 54.4954 34.8193 54.2708 34.6612 54.1106C34.5049 53.9505 34.2676 53.8704 33.9493 53.8704C33.6192 53.8704 33.3605 53.9427 33.173 54.0872C32.9855 54.2317 32.8537 54.386 32.7775 54.5501L32.1213 54.3157C32.2385 54.0423 32.3947 53.8294 32.59 53.6771C32.7873 53.5228 33.0021 53.4154 33.2345 53.3548C33.4689 53.2923 33.6993 53.2611 33.9259 53.2611C34.0704 53.2611 34.2364 53.2787 34.4239 53.3138C34.6133 53.347 34.7959 53.4164 34.9717 53.5218C35.1494 53.6273 35.2968 53.7864 35.414 53.9993C35.5312 54.2122 35.5898 54.4973 35.5898 54.8547V57.8193H34.8984V57.21H34.8633C34.8164 57.3077 34.7383 57.4121 34.6289 57.5235C34.5196 57.6348 34.3741 57.7295 34.1924 57.8076C34.0108 57.8857 33.7891 57.9248 33.5275 57.9248ZM33.6329 57.3038C33.9063 57.3038 34.1368 57.25 34.3243 57.1426C34.5137 57.0352 34.6563 56.8966 34.752 56.7266C34.8496 56.5567 34.8984 56.378 34.8984 56.1906V55.5578C34.8691 55.5929 34.8047 55.6252 34.7051 55.6545C34.6074 55.6818 34.4942 55.7062 34.3653 55.7277C34.2383 55.7472 34.1143 55.7648 33.9932 55.7804C33.8741 55.7941 33.7774 55.8058 33.7032 55.8156C33.5235 55.839 33.3556 55.8771 33.1994 55.9298C33.0451 55.9806 32.9201 56.0578 32.8244 56.1613C32.7306 56.2628 32.6838 56.4015 32.6838 56.5772C32.6838 56.8175 32.7726 56.9991 32.9503 57.1221C33.13 57.2432 33.3575 57.3038 33.6329 57.3038ZM36.8517 57.8193V53.3197H37.5196V54.0228H37.5782C37.6719 53.7825 37.8233 53.596 38.0322 53.4632C38.2412 53.3285 38.4922 53.2611 38.7851 53.2611C39.082 53.2611 39.329 53.3285 39.5263 53.4632C39.7255 53.596 39.8807 53.7825 39.992 54.0228H40.0389C40.1541 53.7903 40.327 53.6058 40.5574 53.4691C40.7879 53.3304 41.0642 53.2611 41.3865 53.2611C41.7888 53.2611 42.1179 53.3871 42.3737 53.639C42.6295 53.889 42.7575 54.2786 42.7575 54.8078V57.8193H42.0661V54.8078C42.0661 54.4758 41.9753 54.2386 41.7937 54.096C41.612 53.9534 41.3982 53.8821 41.1521 53.8821C40.8357 53.8821 40.5906 53.9778 40.4168 54.1692C40.243 54.3587 40.1561 54.5989 40.1561 54.8899V57.8193H39.453V54.7375C39.453 54.4817 39.37 54.2757 39.204 54.1194C39.038 53.9612 38.8242 53.8821 38.5625 53.8821C38.3828 53.8821 38.2148 53.93 38.0586 54.0257C37.9043 54.1214 37.7793 54.2542 37.6836 54.4241C37.5899 54.592 37.543 54.7864 37.543 55.0071V57.8193H36.8517ZM45.9081 57.9131C45.4745 57.9131 45.1005 57.8174 44.7861 57.626C44.4736 57.4326 44.2324 57.1631 44.0625 56.8175C43.8946 56.4698 43.8106 56.0656 43.8106 55.6047C43.8106 55.1438 43.8946 54.7375 44.0625 54.386C44.2324 54.0325 44.4688 53.7571 44.7715 53.5599C45.0761 53.3607 45.4316 53.2611 45.8378 53.2611C46.0721 53.2611 46.3036 53.3002 46.5321 53.3783C46.7606 53.4564 46.9686 53.5833 47.156 53.7591C47.3435 53.9329 47.4929 54.1634 47.6043 54.4505C47.7156 54.7375 47.7712 55.091 47.7712 55.5109V55.8039H44.3027V55.2063H47.0682C47.0682 54.9524 47.0174 54.7258 46.9158 54.5266C46.8162 54.3274 46.6737 54.1702 46.4881 54.055C46.3045 53.9397 46.0878 53.8821 45.8378 53.8821C45.5624 53.8821 45.3242 53.9505 45.123 54.0872C44.9238 54.222 44.7705 54.3977 44.6631 54.6145C44.5557 54.8313 44.502 55.0637 44.502 55.3117V55.7101C44.502 56.0499 44.5605 56.338 44.6777 56.5743C44.7969 56.8087 44.9619 56.9874 45.1728 57.1104C45.3837 57.2315 45.6288 57.292 45.9081 57.292C46.0897 57.292 46.2538 57.2666 46.4002 57.2159C46.5487 57.1631 46.6766 57.085 46.784 56.9815C46.8914 56.876 46.9744 56.7452 47.033 56.589L47.7009 56.7764C47.6306 57.003 47.5125 57.2022 47.3465 57.3741C47.1805 57.544 46.9754 57.6768 46.7313 57.7725C46.4872 57.8662 46.2128 57.9131 45.9081 57.9131Z" fill="black"/>
<path d="M85.0039 54.1406L87.3609 56.4976L89.7178 54.1406" stroke="#A3A3A3" stroke-width="1.17848" stroke-linecap="round" stroke-linejoin="round"/>
<rect x="16.2243" y="44.4001" width="84.9829" height="21.8386" rx="2.06234" stroke="#D9D8D9" stroke-width="0.589241"/>
<path d="M118.105 57.9131C117.683 57.9131 117.32 57.8135 117.016 57.6143C116.711 57.4151 116.476 57.1407 116.312 56.7911C116.148 56.4415 116.066 56.0421 116.066 55.5929C116.066 55.1359 116.15 54.7327 116.318 54.3831C116.488 54.0315 116.725 53.7571 117.027 53.5599C117.332 53.3607 117.687 53.2611 118.094 53.2611C118.41 53.2611 118.695 53.3197 118.949 53.4369C119.203 53.554 119.411 53.7181 119.573 53.929C119.735 54.1399 119.836 54.386 119.875 54.6672H119.183C119.131 54.4622 119.013 54.2805 118.832 54.1224C118.652 53.9622 118.41 53.8821 118.105 53.8821C117.836 53.8821 117.599 53.9524 117.396 54.0931C117.195 54.2317 117.038 54.428 116.925 54.6819C116.813 54.9338 116.758 55.2297 116.758 55.5695C116.758 55.9171 116.812 56.2198 116.922 56.4776C117.033 56.7354 117.189 56.9356 117.39 57.0782C117.594 57.2207 117.832 57.292 118.105 57.292C118.285 57.292 118.448 57.2608 118.595 57.1983C118.741 57.1358 118.865 57.046 118.967 56.9288C119.068 56.8116 119.14 56.671 119.183 56.5069H119.875C119.836 56.7725 119.739 57.0118 119.585 57.2247C119.432 57.4356 119.23 57.6035 118.978 57.7285C118.728 57.8516 118.437 57.9131 118.105 57.9131ZM122.713 57.9131C122.307 57.9131 121.951 57.8164 121.644 57.6231C121.339 57.4297 121.101 57.1592 120.929 56.8116C120.759 56.464 120.674 56.0578 120.674 55.5929C120.674 55.1242 120.759 54.7151 120.929 54.3655C121.101 54.0159 121.339 53.7445 121.644 53.5511C121.951 53.3578 122.307 53.2611 122.713 53.2611C123.12 53.2611 123.475 53.3578 123.78 53.5511C124.086 53.7445 124.325 54.0159 124.494 54.3655C124.666 54.7151 124.752 55.1242 124.752 55.5929C124.752 56.0578 124.666 56.464 124.494 56.8116C124.325 57.1592 124.086 57.4297 123.78 57.6231C123.475 57.8164 123.12 57.9131 122.713 57.9131ZM122.713 57.292C123.022 57.292 123.276 57.2129 123.475 57.0547C123.674 56.8966 123.822 56.6886 123.917 56.4308C124.013 56.173 124.061 55.8937 124.061 55.5929C124.061 55.2922 124.013 55.0119 123.917 54.7522C123.822 54.4924 123.674 54.2825 123.475 54.1224C123.276 53.9622 123.022 53.8821 122.713 53.8821C122.405 53.8821 122.151 53.9622 121.952 54.1224C121.752 54.2825 121.605 54.4924 121.509 54.7522C121.414 55.0119 121.366 55.2922 121.366 55.5929C121.366 55.8937 121.414 56.173 121.509 56.4308C121.605 56.6886 121.752 56.8966 121.952 57.0547C122.151 57.2129 122.405 57.292 122.713 57.292ZM126.499 55.1125V57.8193H125.808V53.3197H126.475V54.0228H126.534C126.64 53.7943 126.8 53.6107 127.015 53.472C127.229 53.3314 127.507 53.2611 127.846 53.2611C128.151 53.2611 128.418 53.3236 128.646 53.4486C128.875 53.5716 129.052 53.7591 129.179 54.011C129.306 54.261 129.37 54.5774 129.37 54.9602V57.8193H128.678V55.0071C128.678 54.6536 128.587 54.3782 128.403 54.1809C128.219 53.9817 127.968 53.8821 127.647 53.8821C127.427 53.8821 127.229 53.93 127.056 54.0257C126.884 54.1214 126.748 54.261 126.648 54.4446C126.549 54.6282 126.499 54.8508 126.499 55.1125ZM132.59 53.3197V53.9056H130.258V53.3197H132.59ZM130.938 52.2416H131.629V56.5304C131.629 56.7257 131.657 56.8721 131.714 56.9698C131.773 57.0655 131.847 57.1299 131.937 57.1631C132.029 57.1944 132.125 57.21 132.227 57.21C132.303 57.21 132.365 57.2061 132.414 57.1983C132.463 57.1885 132.502 57.1807 132.531 57.1749L132.672 57.7959C132.625 57.8135 132.56 57.8311 132.476 57.8486C132.392 57.8682 132.285 57.8779 132.156 57.8779C131.961 57.8779 131.77 57.8359 131.582 57.752C131.397 57.668 131.242 57.5401 131.119 57.3682C130.998 57.1963 130.938 56.9796 130.938 56.7179V52.2416ZM134.954 57.9248C134.669 57.9248 134.41 57.8711 134.178 57.7637C133.945 57.6543 133.761 57.4971 133.624 57.292C133.487 57.085 133.419 56.835 133.419 56.5421C133.419 56.2843 133.47 56.0753 133.571 55.9152C133.673 55.7531 133.809 55.6261 133.979 55.5344C134.148 55.4426 134.336 55.3742 134.541 55.3293C134.748 55.2824 134.956 55.2453 135.165 55.218C135.438 55.1828 135.66 55.1565 135.83 55.1389C136.002 55.1193 136.127 55.0871 136.205 55.0422C136.285 54.9973 136.325 54.9192 136.325 54.8078V54.7844C136.325 54.4954 136.246 54.2708 136.088 54.1106C135.932 53.9505 135.694 53.8704 135.376 53.8704C135.046 53.8704 134.787 53.9427 134.6 54.0872C134.412 54.2317 134.28 54.386 134.204 54.5501L133.548 54.3157C133.665 54.0423 133.821 53.8294 134.017 53.6771C134.214 53.5228 134.429 53.4154 134.661 53.3548C134.895 53.2923 135.126 53.2611 135.352 53.2611C135.497 53.2611 135.663 53.2787 135.851 53.3138C136.04 53.347 136.223 53.4164 136.398 53.5218C136.576 53.6273 136.723 53.7864 136.841 53.9993C136.958 54.2122 137.016 54.4973 137.016 54.8547V57.8193H136.325V57.21H136.29C136.243 57.3077 136.165 57.4121 136.056 57.5235C135.946 57.6348 135.801 57.7295 135.619 57.8076C135.437 57.8857 135.216 57.9248 134.954 57.9248ZM135.06 57.3038C135.333 57.3038 135.563 57.25 135.751 57.1426C135.94 57.0352 136.083 56.8966 136.179 56.7266C136.276 56.5567 136.325 56.378 136.325 56.1906V55.5578C136.296 55.5929 136.231 55.6252 136.132 55.6545C136.034 55.6818 135.921 55.7062 135.792 55.7277C135.665 55.7472 135.541 55.7648 135.42 55.7804C135.301 55.7941 135.204 55.8058 135.13 55.8156C134.95 55.839 134.782 55.8771 134.626 55.9298C134.472 55.9806 134.347 56.0578 134.251 56.1613C134.157 56.2628 134.11 56.4015 134.11 56.5772C134.11 56.8175 134.199 56.9991 134.377 57.1221C134.557 57.2432 134.784 57.3038 135.06 57.3038ZM138.278 57.8193V53.3197H138.97V57.8193H138.278ZM138.63 52.5697C138.495 52.5697 138.379 52.5238 138.281 52.4321C138.186 52.3403 138.138 52.2299 138.138 52.101C138.138 51.9721 138.186 51.8618 138.281 51.77C138.379 51.6782 138.495 51.6323 138.63 51.6323C138.765 51.6323 138.88 51.6782 138.976 51.77C139.073 51.8618 139.122 51.9721 139.122 52.101C139.122 52.2299 139.073 52.3403 138.976 52.4321C138.88 52.5238 138.765 52.5697 138.63 52.5697ZM140.927 55.1125V57.8193H140.236V53.3197H140.904V54.0228H140.962C141.068 53.7943 141.228 53.6107 141.443 53.472C141.658 53.3314 141.935 53.2611 142.275 53.2611C142.579 53.2611 142.846 53.3236 143.075 53.4486C143.303 53.5716 143.481 53.7591 143.608 54.011C143.735 54.261 143.798 54.5774 143.798 54.9602V57.8193H143.107V55.0071C143.107 54.6536 143.015 54.3782 142.831 54.1809C142.648 53.9817 142.396 53.8821 142.076 53.8821C141.855 53.8821 141.658 53.93 141.484 54.0257C141.312 54.1214 141.176 54.261 141.077 54.4446C140.977 54.6282 140.927 54.8508 140.927 55.1125ZM148.249 54.3274L147.628 54.5032C147.589 54.3997 147.531 54.2991 147.455 54.2014C147.381 54.1018 147.279 54.0198 147.15 53.9554C147.021 53.8909 146.856 53.8587 146.655 53.8587C146.38 53.8587 146.15 53.9222 145.967 54.0491C145.785 54.1741 145.694 54.3333 145.694 54.5266C145.694 54.6985 145.757 54.8342 145.882 54.9338C146.007 55.0334 146.202 55.1164 146.468 55.1828L147.136 55.3469C147.538 55.4445 147.838 55.5939 148.035 55.7951C148.232 55.9943 148.331 56.2511 148.331 56.5655C148.331 56.8233 148.257 57.0538 148.108 57.2569C147.962 57.46 147.757 57.6201 147.493 57.7373C147.229 57.8545 146.923 57.9131 146.573 57.9131C146.114 57.9131 145.734 57.8135 145.434 57.6143C145.133 57.4151 144.942 57.1241 144.862 56.7413L145.518 56.5772C145.581 56.8194 145.699 57.001 145.873 57.1221C146.049 57.2432 146.278 57.3038 146.561 57.3038C146.884 57.3038 147.139 57.2354 147.329 57.0987C147.52 56.96 147.616 56.794 147.616 56.6007C147.616 56.4444 147.561 56.3136 147.452 56.2081C147.343 56.1007 147.175 56.0206 146.948 55.9679L146.198 55.7921C145.786 55.6945 145.483 55.5431 145.29 55.3381C145.099 55.1311 145.003 54.8723 145.003 54.5618C145.003 54.3079 145.074 54.0833 145.217 53.888C145.361 53.6927 145.558 53.5394 145.806 53.4281C146.056 53.3168 146.339 53.2611 146.655 53.2611C147.1 53.2611 147.45 53.3587 147.704 53.554C147.96 53.7493 148.141 54.0071 148.249 54.3274Z" fill="black"/>
<path d="M175.281 54.1411L177.638 56.4981L179.995 54.1411" stroke="#A3A3A3" stroke-width="1.17848" stroke-linecap="round" stroke-linejoin="round"/>
<rect x="106.509" y="44.4001" width="84.9829" height="21.8386" rx="2.06234" stroke="#D9D8D9" stroke-width="0.589241"/>
<path d="M206.902 57.8193H206.141L208.344 51.8198H209.094L211.296 57.8193H210.535L208.742 52.7689H208.695L206.902 57.8193ZM207.183 55.4758H210.254V56.1202H207.183V55.4758ZM212.782 56.1788L212.77 55.3234H212.911L214.879 53.3197H215.735L213.637 55.4406H213.579L212.782 56.1788ZM212.137 57.8193V51.8198H212.829V57.8193H212.137ZM214.996 57.8193L213.239 55.5929L213.731 55.1125L215.875 57.8193H214.996ZM217.949 57.9248C217.663 57.9248 217.405 57.8711 217.172 57.7637C216.94 57.6543 216.755 57.4971 216.619 57.292C216.482 57.085 216.414 56.835 216.414 56.5421C216.414 56.2843 216.464 56.0753 216.566 55.9152C216.667 55.7531 216.803 55.6261 216.973 55.5344C217.143 55.4426 217.33 55.3742 217.535 55.3293C217.743 55.2824 217.95 55.2453 218.159 55.218C218.433 55.1828 218.655 55.1565 218.824 55.1389C218.996 55.1193 219.121 55.0871 219.199 55.0422C219.279 54.9973 219.32 54.9192 219.32 54.8078V54.7844C219.32 54.4954 219.24 54.2708 219.082 54.1106C218.926 53.9505 218.689 53.8704 218.37 53.8704C218.04 53.8704 217.782 53.9427 217.594 54.0872C217.407 54.2317 217.275 54.386 217.199 54.5501L216.542 54.3157C216.66 54.0423 216.816 53.8294 217.011 53.6771C217.208 53.5228 217.423 53.4154 217.656 53.3548C217.89 53.2923 218.12 53.2611 218.347 53.2611C218.491 53.2611 218.657 53.2787 218.845 53.3138C219.034 53.347 219.217 53.4164 219.393 53.5218C219.57 53.6273 219.718 53.7864 219.835 53.9993C219.952 54.2122 220.011 54.4973 220.011 54.8547V57.8193H219.32V57.21H219.284C219.238 57.3077 219.159 57.4121 219.05 57.5235C218.941 57.6348 218.795 57.7295 218.614 57.8076C218.432 57.8857 218.21 57.9248 217.949 57.9248ZM218.054 57.3038C218.327 57.3038 218.558 57.25 218.745 57.1426C218.935 57.0352 219.077 56.8966 219.173 56.7266C219.271 56.5567 219.32 56.378 219.32 56.1906V55.5578C219.29 55.5929 219.226 55.6252 219.126 55.6545C219.029 55.6818 218.915 55.7062 218.786 55.7277C218.659 55.7472 218.535 55.7648 218.414 55.7804C218.295 55.7941 218.199 55.8058 218.124 55.8156C217.945 55.839 217.777 55.8771 217.62 55.9298C217.466 55.9806 217.341 56.0578 217.245 56.1613C217.152 56.2628 217.105 56.4015 217.105 56.5772C217.105 56.8175 217.194 56.9991 217.371 57.1221C217.551 57.2432 217.779 57.3038 218.054 57.3038ZM224.46 54.3274L223.839 54.5032C223.8 54.3997 223.742 54.2991 223.666 54.2014C223.592 54.1018 223.49 54.0198 223.361 53.9554C223.233 53.8909 223.068 53.8587 222.866 53.8587C222.591 53.8587 222.362 53.9222 222.178 54.0491C221.996 54.1741 221.906 54.3333 221.906 54.5266C221.906 54.6985 221.968 54.8342 222.093 54.9338C222.218 55.0334 222.413 55.1164 222.679 55.1828L223.347 55.3469C223.749 55.4445 224.049 55.5939 224.246 55.7951C224.443 55.9943 224.542 56.2511 224.542 56.5655C224.542 56.8233 224.468 57.0538 224.319 57.2569C224.173 57.46 223.968 57.6201 223.704 57.7373C223.441 57.8545 223.134 57.9131 222.784 57.9131C222.325 57.9131 221.946 57.8135 221.645 57.6143C221.344 57.4151 221.154 57.1241 221.074 56.7413L221.73 56.5772C221.792 56.8194 221.91 57.001 222.084 57.1221C222.26 57.2432 222.489 57.3038 222.773 57.3038C223.095 57.3038 223.351 57.2354 223.54 57.0987C223.732 56.96 223.827 56.794 223.827 56.6007C223.827 56.4444 223.773 56.3136 223.663 56.2081C223.554 56.1007 223.386 56.0206 223.159 55.9679L222.409 55.7921C221.997 55.6945 221.695 55.5431 221.501 55.3381C221.31 55.1311 221.214 54.8723 221.214 54.5618C221.214 54.3079 221.285 54.0833 221.428 53.888C221.573 53.6927 221.769 53.5394 222.017 53.4281C222.267 53.3168 222.55 53.2611 222.866 53.2611C223.312 53.2611 223.661 53.3587 223.915 53.554C224.171 53.7493 224.353 54.0071 224.46 54.3274ZM226.274 55.1125V57.8193H225.583V51.8198H226.274V54.0228H226.333C226.438 53.7903 226.596 53.6058 226.807 53.4691C227.02 53.3304 227.303 53.2611 227.657 53.2611C227.963 53.2611 228.232 53.3226 228.462 53.4456C228.693 53.5667 228.872 53.7532 228.998 54.0052C229.127 54.2552 229.192 54.5735 229.192 54.9602V57.8193H228.5V55.0071C228.5 54.6497 228.408 54.3733 228.222 54.178C228.039 53.9808 227.784 53.8821 227.458 53.8821C227.231 53.8821 227.028 53.93 226.848 54.0257C226.671 54.1214 226.53 54.261 226.426 54.4446C226.325 54.6282 226.274 54.8508 226.274 55.1125Z" fill="black"/>
<rect x="196.795" y="44.4001" width="84.9829" height="21.8386" rx="2.06234" stroke="#D9D8D9" stroke-width="0.589241"/>
<path d="M16.2929 80.7411V79.9619H20.9361V80.7411H19.0642V85.9614H18.1619V80.7411H16.2929ZM22.1272 85.9614V79.9619H23.0324V82.5691H26.0234V79.9619H26.9315V85.9614H26.0234V83.3454H23.0324V85.9614H22.1272ZM28.4147 85.9614V79.9619H32.1762V80.7411H29.3199V82.5691H31.9799V83.3454H29.3199V85.1822H32.2113V85.9614H28.4147ZM38.3927 79.9619V85.9614H37.5607L34.5112 81.5614H34.4555V85.9614H33.5503V79.9619H34.3881L37.4406 84.3678H37.4963V79.9619H38.3927Z" fill="#4F4F4F"/>
<g opacity="0.8">
<path d="M29.3669 109.603C29.3317 109.307 29.1892 109.076 28.9392 108.912C28.6892 108.748 28.3826 108.666 28.0193 108.666C27.7537 108.666 27.5213 108.709 27.3221 108.795C27.1249 108.881 26.9706 108.999 26.8593 109.149C26.7499 109.3 26.6952 109.471 26.6952 109.662C26.6952 109.822 26.7333 109.96 26.8095 110.075C26.8876 110.188 26.9872 110.283 27.1083 110.359C27.2293 110.433 27.3563 110.495 27.4891 110.544C27.6219 110.591 27.744 110.629 27.8553 110.658L28.4646 110.822C28.6208 110.863 28.7947 110.92 28.9861 110.992C29.1794 111.064 29.364 111.163 29.5397 111.288C29.7174 111.411 29.8639 111.569 29.9791 111.762C30.0944 111.956 30.152 112.193 30.152 112.474C30.152 112.798 30.067 113.091 29.8971 113.353C29.7292 113.615 29.4831 113.823 29.1589 113.977C28.8366 114.131 28.4451 114.208 27.9842 114.208C27.5545 114.208 27.1825 114.139 26.868 114C26.5556 113.862 26.3095 113.668 26.1298 113.42C25.9521 113.172 25.8515 112.884 25.8281 112.556H26.578C26.5976 112.783 26.6737 112.97 26.8065 113.119C26.9413 113.265 27.1112 113.375 27.3163 113.447C27.5233 113.517 27.7459 113.552 27.9842 113.552C28.2615 113.552 28.5105 113.507 28.7312 113.418C28.9519 113.326 29.1267 113.199 29.2556 113.037C29.3845 112.873 29.4489 112.681 29.4489 112.463C29.4489 112.263 29.3932 112.101 29.2819 111.976C29.1706 111.851 29.0241 111.75 28.8425 111.672C28.6609 111.593 28.4646 111.525 28.2537 111.467L27.5155 111.256C27.0467 111.121 26.6757 110.928 26.4023 110.678C26.1288 110.429 25.9921 110.101 25.9921 109.697C25.9921 109.361 26.083 109.068 26.2646 108.818C26.4482 108.566 26.6942 108.371 27.0028 108.232C27.3133 108.092 27.66 108.021 28.0428 108.021C28.4295 108.021 28.7732 108.091 29.0739 108.229C29.3747 108.366 29.613 108.554 29.7887 108.792C29.9664 109.03 30.0602 109.301 30.07 109.603H29.3669ZM31.8972 112.463L31.8855 111.607H32.0261L33.9947 109.603H34.8501L32.7526 111.724H32.694L31.8972 112.463ZM31.2527 114.103V108.103H31.9441V114.103H31.2527ZM34.1119 114.103L32.3542 111.877L32.8464 111.396L34.9907 114.103H34.1119ZM35.7399 114.103V109.603H36.4313V114.103H35.7399ZM36.0915 108.853C35.9567 108.853 35.8405 108.808 35.7429 108.716C35.6472 108.624 35.5993 108.514 35.5993 108.385C35.5993 108.256 35.6472 108.145 35.7429 108.054C35.8405 107.962 35.9567 107.916 36.0915 107.916C36.2262 107.916 36.3414 107.962 36.4371 108.054C36.5348 108.145 36.5836 108.256 36.5836 108.385C36.5836 108.514 36.5348 108.624 36.4371 108.716C36.3414 108.808 36.2262 108.853 36.0915 108.853ZM37.6975 115.79V109.603H38.3655V110.318H38.4475C38.4983 110.24 38.5686 110.14 38.6584 110.019C38.7502 109.896 38.881 109.787 39.051 109.691C39.2228 109.594 39.4552 109.545 39.7482 109.545C40.127 109.545 40.461 109.64 40.75 109.829C41.0391 110.018 41.2647 110.287 41.4267 110.635C41.5888 110.982 41.6699 111.392 41.6699 111.865C41.6699 112.341 41.5888 112.754 41.4267 113.104C41.2647 113.452 41.0401 113.721 40.753 113.913C40.4659 114.102 40.1349 114.197 39.7599 114.197C39.4708 114.197 39.2394 114.149 39.0656 114.053C38.8918 113.956 38.758 113.845 38.6643 113.722C38.5705 113.597 38.4983 113.494 38.4475 113.412H38.3889V115.79H37.6975ZM38.3772 111.853C38.3772 112.193 38.427 112.493 38.5266 112.753C38.6262 113.01 38.7717 113.212 38.9631 113.359C39.1545 113.503 39.3888 113.576 39.6661 113.576C39.9552 113.576 40.1964 113.5 40.3897 113.347C40.585 113.193 40.7315 112.986 40.8291 112.726C40.9287 112.464 40.9785 112.173 40.9785 111.853C40.9785 111.537 40.9297 111.252 40.8321 110.998C40.7364 110.742 40.5909 110.54 40.3956 110.391C40.2022 110.241 39.9591 110.166 39.6661 110.166C39.3849 110.166 39.1486 110.237 38.9572 110.38C38.7658 110.52 38.6213 110.718 38.5237 110.971C38.426 111.223 38.3772 111.517 38.3772 111.853ZM47.0015 109.603V110.189H44.6697V109.603H47.0015ZM45.3493 108.525H46.0407V112.814C46.0407 113.009 46.069 113.156 46.1256 113.253C46.1842 113.349 46.2584 113.414 46.3482 113.447C46.44 113.478 46.5367 113.494 46.6383 113.494C46.7144 113.494 46.7769 113.49 46.8258 113.482C46.8746 113.472 46.9136 113.464 46.9429 113.459L47.0835 114.08C47.0367 114.097 46.9712 114.115 46.8873 114.132C46.8033 114.152 46.6969 114.162 46.568 114.162C46.3727 114.162 46.1813 114.12 45.9938 114.036C45.8083 113.952 45.654 113.824 45.5309 113.652C45.4098 113.48 45.3493 113.263 45.3493 113.002V108.525ZM49.8211 114.197C49.4149 114.197 49.0585 114.1 48.7519 113.907C48.4472 113.713 48.2089 113.443 48.0371 113.095C47.8672 112.748 47.7822 112.341 47.7822 111.877C47.7822 111.408 47.8672 110.999 48.0371 110.649C48.2089 110.3 48.4472 110.028 48.7519 109.835C49.0585 109.641 49.4149 109.545 49.8211 109.545C50.2273 109.545 50.5828 109.641 50.8875 109.835C51.1941 110.028 51.4323 110.3 51.6022 110.649C51.7741 110.999 51.86 111.408 51.86 111.877C51.86 112.341 51.7741 112.748 51.6022 113.095C51.4323 113.443 51.1941 113.713 50.8875 113.907C50.5828 114.1 50.2273 114.197 49.8211 114.197ZM49.8211 113.576C50.1297 113.576 50.3836 113.497 50.5828 113.338C50.782 113.18 50.9294 112.972 51.0251 112.714C51.1208 112.457 51.1687 112.177 51.1687 111.877C51.1687 111.576 51.1208 111.296 51.0251 111.036C50.9294 110.776 50.782 110.566 50.5828 110.406C50.3836 110.246 50.1297 110.166 49.8211 110.166C49.5126 110.166 49.2587 110.246 49.0595 110.406C48.8603 110.566 48.7128 110.776 48.6171 111.036C48.5214 111.296 48.4736 111.576 48.4736 111.877C48.4736 112.177 48.5214 112.457 48.6171 112.714C48.7128 112.972 48.8603 113.18 49.0595 113.338C49.2587 113.497 49.5126 113.576 49.8211 113.576ZM57.2393 109.603V110.189H54.8137V109.603H57.2393ZM55.5402 114.103V108.982C55.5402 108.725 55.6007 108.51 55.7218 108.338C55.8429 108.166 56.0001 108.037 56.1934 107.951C56.3868 107.865 56.5909 107.822 56.8057 107.822C56.9756 107.822 57.1143 107.836 57.2217 107.863C57.3291 107.891 57.4092 107.916 57.4619 107.939L57.2627 108.537C57.2275 108.525 57.1787 108.511 57.1162 108.493C57.0557 108.476 56.9756 108.467 56.876 108.467C56.6475 108.467 56.4825 108.524 56.3809 108.64C56.2813 108.755 56.2315 108.924 56.2315 109.146V114.103H55.5402ZM58.2082 114.103V109.603H58.8995V114.103H58.2082ZM58.5597 108.853C58.425 108.853 58.3088 108.808 58.2111 108.716C58.1154 108.624 58.0676 108.514 58.0676 108.385C58.0676 108.256 58.1154 108.145 58.2111 108.054C58.3088 107.962 58.425 107.916 58.5597 107.916C58.6945 107.916 58.8097 107.962 58.9054 108.054C59.003 108.145 59.0519 108.256 59.0519 108.385C59.0519 108.514 59.003 108.624 58.9054 108.716C58.8097 108.808 58.6945 108.853 58.5597 108.853ZM62.0524 114.197C61.6188 114.197 61.2448 114.101 60.9304 113.91C60.6179 113.716 60.3767 113.447 60.2068 113.101C60.0388 112.754 59.9549 112.349 59.9549 111.888C59.9549 111.427 60.0388 111.021 60.2068 110.67C60.3767 110.316 60.613 110.041 60.9157 109.844C61.2204 109.644 61.5758 109.545 61.9821 109.545C62.2164 109.545 62.4478 109.584 62.6763 109.662C62.9048 109.74 63.1128 109.867 63.3003 110.043C63.4878 110.217 63.6372 110.447 63.7485 110.734C63.8598 111.021 63.9155 111.375 63.9155 111.795V112.088H60.447V111.49H63.2124C63.2124 111.236 63.1617 111.01 63.0601 110.81C62.9605 110.611 62.8179 110.454 62.6324 110.339C62.4488 110.223 62.232 110.166 61.9821 110.166C61.7067 110.166 61.4684 110.234 61.2673 110.371C61.0681 110.506 60.9148 110.681 60.8073 110.898C60.6999 111.115 60.6462 111.347 60.6462 111.595V111.994C60.6462 112.334 60.7048 112.622 60.822 112.858C60.9411 113.092 61.1061 113.271 61.3171 113.394C61.528 113.515 61.7731 113.576 62.0524 113.576C62.234 113.576 62.398 113.55 62.5445 113.5C62.6929 113.447 62.8209 113.369 62.9283 113.265C63.0357 113.16 63.1187 113.029 63.1773 112.873L63.8452 113.06C63.7749 113.287 63.6567 113.486 63.4907 113.658C63.3247 113.828 63.1197 113.96 62.8755 114.056C62.6314 114.15 62.357 114.197 62.0524 114.197ZM65.6585 108.103V114.103H64.9672V108.103H65.6585ZM68.6239 114.197C68.2489 114.197 67.9179 114.102 67.6308 113.913C67.3437 113.721 67.1191 113.452 66.957 113.104C66.7949 112.754 66.7139 112.341 66.7139 111.865C66.7139 111.392 66.7949 110.982 66.957 110.635C67.1191 110.287 67.3447 110.018 67.6337 109.829C67.9228 109.64 68.2567 109.545 68.6356 109.545C68.9286 109.545 69.16 109.594 69.3299 109.691C69.5017 109.787 69.6326 109.896 69.7224 110.019C69.8142 110.14 69.8855 110.24 69.9363 110.318H69.9949V108.103H70.6862V114.103H70.0183V113.412H69.9363C69.8855 113.494 69.8132 113.597 69.7195 113.722C69.6258 113.845 69.492 113.956 69.3182 114.053C69.1444 114.149 68.9129 114.197 68.6239 114.197ZM68.7176 113.576C68.995 113.576 69.2293 113.503 69.4207 113.359C69.6121 113.212 69.7576 113.01 69.8572 112.753C69.9568 112.493 70.0066 112.193 70.0066 111.853C70.0066 111.517 69.9578 111.223 69.8601 110.971C69.7625 110.718 69.618 110.52 69.4266 110.38C69.2352 110.237 68.9989 110.166 68.7176 110.166C68.4247 110.166 68.1806 110.241 67.9853 110.391C67.7919 110.54 67.6464 110.742 67.5488 110.998C67.4531 111.252 67.4052 111.537 67.4052 111.853C67.4052 112.173 67.4541 112.464 67.5517 112.726C67.6513 112.986 67.7978 113.193 67.9911 113.347C68.1864 113.5 68.4286 113.576 68.7176 113.576ZM75.0599 111.396V114.103H74.3686V109.603H75.0365V110.306H75.0951C75.2005 110.078 75.3607 109.894 75.5755 109.756C75.7903 109.615 76.0677 109.545 76.4075 109.545C76.7121 109.545 76.9787 109.607 77.2072 109.732C77.4357 109.855 77.6134 110.043 77.7404 110.295C77.8673 110.545 77.9308 110.861 77.9308 111.244V114.103H77.2394V111.291C77.2394 110.937 77.1476 110.662 76.9641 110.465C76.7805 110.265 76.5286 110.166 76.2083 110.166C75.9876 110.166 75.7903 110.214 75.6165 110.309C75.4447 110.405 75.3089 110.545 75.2093 110.728C75.1097 110.912 75.0599 111.135 75.0599 111.396ZM81.0221 114.197C80.6159 114.197 80.2595 114.1 79.9529 113.907C79.6482 113.713 79.4099 113.443 79.2381 113.095C79.0682 112.748 78.9832 112.341 78.9832 111.877C78.9832 111.408 79.0682 110.999 79.2381 110.649C79.4099 110.3 79.6482 110.028 79.9529 109.835C80.2595 109.641 80.6159 109.545 81.0221 109.545C81.4283 109.545 81.7838 109.641 82.0884 109.835C82.3951 110.028 82.6333 110.3 82.8032 110.649C82.9751 110.999 83.061 111.408 83.061 111.877C83.061 112.341 82.9751 112.748 82.8032 113.095C82.6333 113.443 82.3951 113.713 82.0884 113.907C81.7838 114.1 81.4283 114.197 81.0221 114.197ZM81.0221 113.576C81.3307 113.576 81.5846 113.497 81.7838 113.338C81.983 113.18 82.1304 112.972 82.2261 112.714C82.3218 112.457 82.3697 112.177 82.3697 111.877C82.3697 111.576 82.3218 111.296 82.2261 111.036C82.1304 110.776 81.983 110.566 81.7838 110.406C81.5846 110.246 81.3307 110.166 81.0221 110.166C80.7135 110.166 80.4597 110.246 80.2604 110.406C80.0612 110.566 79.9138 110.776 79.8181 111.036C79.7224 111.296 79.6746 111.576 79.6746 111.877C79.6746 112.177 79.7224 112.457 79.8181 112.714C79.9138 112.972 80.0612 113.18 80.2604 113.338C80.4597 113.497 80.7135 113.576 81.0221 113.576ZM87.1278 111.396V114.103H86.4365V109.603H87.1044V110.306H87.163C87.2685 110.078 87.4286 109.894 87.6434 109.756C87.8583 109.615 88.1356 109.545 88.4754 109.545C88.7801 109.545 89.0466 109.607 89.2751 109.732C89.5036 109.855 89.6814 110.043 89.8083 110.295C89.9352 110.545 89.9987 110.861 89.9987 111.244V114.103H89.3074V111.291C89.3074 110.937 89.2156 110.662 89.032 110.465C88.8484 110.265 88.5965 110.166 88.2762 110.166C88.0555 110.166 87.8583 110.214 87.6844 110.309C87.5126 110.405 87.3768 110.545 87.2772 110.728C87.1776 110.912 87.1278 111.135 87.1278 111.396ZM93.1486 114.197C92.7151 114.197 92.3411 114.101 92.0266 113.91C91.7142 113.716 91.473 113.447 91.3031 113.101C91.1351 112.754 91.0511 112.349 91.0511 111.888C91.0511 111.427 91.1351 111.021 91.3031 110.67C91.473 110.316 91.7093 110.041 92.012 109.844C92.3167 109.644 92.6721 109.545 93.0783 109.545C93.3127 109.545 93.5441 109.584 93.7726 109.662C94.0011 109.74 94.2091 109.867 94.3966 110.043C94.5841 110.217 94.7335 110.447 94.8448 110.734C94.9561 111.021 95.0118 111.375 95.0118 111.795V112.088H91.5433V111.49H94.3087C94.3087 111.236 94.2579 111.01 94.1564 110.81C94.0568 110.611 93.9142 110.454 93.7287 110.339C93.5451 110.223 93.3283 110.166 93.0783 110.166C92.8029 110.166 92.5647 110.234 92.3635 110.371C92.1643 110.506 92.011 110.681 91.9036 110.898C91.7962 111.115 91.7425 111.347 91.7425 111.595V111.994C91.7425 112.334 91.8011 112.622 91.9182 112.858C92.0374 113.092 92.2024 113.271 92.4133 113.394C92.6242 113.515 92.8693 113.576 93.1486 113.576C93.3302 113.576 93.4943 113.55 93.6408 113.5C93.7892 113.447 93.9171 113.369 94.0245 113.265C94.1319 113.16 94.2149 113.029 94.2735 112.873L94.9415 113.06C94.8711 113.287 94.753 113.486 94.587 113.658C94.421 113.828 94.2159 113.96 93.9718 114.056C93.7277 114.15 93.4533 114.197 93.1486 114.197ZM96.4582 109.603L97.5362 111.443L98.6143 109.603H99.4111L97.9581 111.853L99.4111 114.103H98.6143L97.5362 112.357L96.4582 114.103H95.6614L97.0909 111.853L95.6614 109.603H96.4582ZM102.354 109.603V110.189H100.023V109.603H102.354ZM100.702 108.525H101.394V112.814C101.394 113.009 101.422 113.156 101.479 113.253C101.537 113.349 101.611 113.414 101.701 113.447C101.793 113.478 101.89 113.494 101.991 113.494C102.067 113.494 102.13 113.49 102.179 113.482C102.228 113.472 102.267 113.464 102.296 113.459L102.436 114.08C102.39 114.097 102.324 114.115 102.24 114.132C102.156 114.152 102.05 114.162 101.921 114.162C101.726 114.162 101.534 114.12 101.347 114.036C101.161 113.952 101.007 113.824 100.884 113.652C100.763 113.48 100.702 113.263 100.702 113.002V108.525ZM105.808 114.103V108.103H106.5V110.318H106.558C106.609 110.24 106.679 110.14 106.769 110.019C106.861 109.896 106.992 109.787 107.162 109.691C107.334 109.594 107.566 109.545 107.859 109.545C108.238 109.545 108.572 109.64 108.861 109.829C109.15 110.018 109.375 110.287 109.538 110.635C109.7 110.982 109.781 111.392 109.781 111.865C109.781 112.341 109.7 112.754 109.538 113.104C109.375 113.452 109.151 113.721 108.864 113.913C108.577 114.102 108.246 114.197 107.871 114.197C107.582 114.197 107.35 114.149 107.176 114.053C107.003 113.956 106.869 113.845 106.775 113.722C106.681 113.597 106.609 113.494 106.558 113.412H106.476V114.103H105.808ZM106.488 111.853C106.488 112.193 106.538 112.493 106.637 112.753C106.737 113.01 106.882 113.212 107.074 113.359C107.265 113.503 107.5 113.576 107.777 113.576C108.066 113.576 108.307 113.5 108.5 113.347C108.696 113.193 108.842 112.986 108.94 112.726C109.039 112.464 109.089 112.173 109.089 111.853C109.089 111.537 109.04 111.252 108.943 110.998C108.847 110.742 108.702 110.54 108.506 110.391C108.313 110.241 108.07 110.166 107.777 110.166C107.496 110.166 107.259 110.237 107.068 110.38C106.877 110.52 106.732 110.718 106.634 110.971C106.537 111.223 106.488 111.517 106.488 111.853ZM113.674 112.263V109.603H114.365V114.103H113.674V113.341H113.627C113.522 113.57 113.358 113.764 113.135 113.924C112.912 114.083 112.631 114.162 112.291 114.162C112.01 114.162 111.76 114.1 111.541 113.977C111.323 113.852 111.151 113.665 111.026 113.415C110.901 113.163 110.838 112.845 110.838 112.463V109.603H111.53V112.416C111.53 112.744 111.621 113.005 111.805 113.201C111.99 113.396 112.227 113.494 112.514 113.494C112.686 113.494 112.86 113.45 113.038 113.362C113.218 113.274 113.368 113.139 113.489 112.958C113.612 112.776 113.674 112.545 113.674 112.263ZM117.588 109.603V110.189H115.257V109.603H117.588ZM115.936 108.525H116.628V112.814C116.628 113.009 116.656 113.156 116.712 113.253C116.771 113.349 116.845 113.414 116.935 113.447C117.027 113.478 117.124 113.494 117.225 113.494C117.301 113.494 117.364 113.49 117.413 113.482C117.461 113.472 117.501 113.464 117.53 113.459L117.67 114.08C117.624 114.097 117.558 114.115 117.474 114.132C117.39 114.152 117.284 114.162 117.155 114.162C116.96 114.162 116.768 114.12 116.581 114.036C116.395 113.952 116.241 113.824 116.118 113.652C115.997 113.48 115.936 113.263 115.936 113.002V108.525ZM120.585 109.603V110.189H118.253V109.603H120.585ZM118.933 108.525H119.624V112.814C119.624 113.009 119.653 113.156 119.709 113.253C119.768 113.349 119.842 113.414 119.932 113.447C120.024 113.478 120.12 113.494 120.222 113.494C120.298 113.494 120.361 113.49 120.409 113.482C120.458 113.472 120.497 113.464 120.527 113.459L120.667 114.08C120.62 114.097 120.555 114.115 120.471 114.132C120.387 114.152 120.281 114.162 120.152 114.162C119.956 114.162 119.765 114.12 119.578 114.036C119.392 113.952 119.238 113.824 119.115 113.652C118.994 113.48 118.933 113.263 118.933 113.002V108.525ZM123.405 114.197C122.999 114.197 122.642 114.1 122.336 113.907C122.031 113.713 121.793 113.443 121.621 113.095C121.451 112.748 121.366 112.341 121.366 111.877C121.366 111.408 121.451 110.999 121.621 110.649C121.793 110.3 122.031 110.028 122.336 109.835C122.642 109.641 122.999 109.545 123.405 109.545C123.811 109.545 124.167 109.641 124.471 109.835C124.778 110.028 125.016 110.3 125.186 110.649C125.358 110.999 125.444 111.408 125.444 111.877C125.444 112.341 125.358 112.748 125.186 113.095C125.016 113.443 124.778 113.713 124.471 113.907C124.167 114.1 123.811 114.197 123.405 114.197ZM123.405 113.576C123.713 113.576 123.967 113.497 124.167 113.338C124.366 113.18 124.513 112.972 124.609 112.714C124.705 112.457 124.752 112.177 124.752 111.877C124.752 111.576 124.705 111.296 124.609 111.036C124.513 110.776 124.366 110.566 124.167 110.406C123.967 110.246 123.713 110.166 123.405 110.166C123.096 110.166 122.842 110.246 122.643 110.406C122.444 110.566 122.297 110.776 122.201 111.036C122.105 111.296 122.057 111.576 122.057 111.877C122.057 112.177 122.105 112.457 122.201 112.714C122.297 112.972 122.444 113.18 122.643 113.338C122.842 113.497 123.096 113.576 123.405 113.576ZM127.19 111.396V114.103H126.499V109.603H127.167V110.306H127.226C127.331 110.078 127.491 109.894 127.706 109.756C127.921 109.615 128.198 109.545 128.538 109.545C128.843 109.545 129.109 109.607 129.338 109.732C129.566 109.855 129.744 110.043 129.871 110.295C129.998 110.545 130.061 110.861 130.061 111.244V114.103H129.37V111.291C129.37 110.937 129.278 110.662 129.095 110.465C128.911 110.265 128.659 110.166 128.339 110.166C128.118 110.166 127.921 110.214 127.747 110.309C127.575 110.405 127.439 110.545 127.34 110.728C127.24 110.912 127.19 111.135 127.19 111.396Z" fill="black"/>
<path d="M161.875 110.424L164.232 112.781L166.589 110.424" stroke="#A3A3A3" stroke-width="1.17848" stroke-linecap="round" stroke-linejoin="round"/>
<rect x="16.2243" y="100.684" width="161.849" height="21.8386" rx="2.06234" stroke="#D9D8D9" stroke-width="0.589241"/>
<path d="M193.238 114.103V108.103H196.859V108.748H193.965V110.775H196.672V111.42H193.965V113.459H196.906V114.103H193.238ZM198.075 114.103V109.603H198.743V110.306H198.801C198.895 110.066 199.046 109.88 199.255 109.747C199.464 109.612 199.715 109.545 200.008 109.545C200.305 109.545 200.552 109.612 200.749 109.747C200.949 109.88 201.104 110.066 201.215 110.306H201.262C201.377 110.074 201.55 109.889 201.781 109.753C202.011 109.614 202.287 109.545 202.61 109.545C203.012 109.545 203.341 109.671 203.597 109.923C203.853 110.173 203.981 110.562 203.981 111.092V114.103H203.289V111.092C203.289 110.76 203.198 110.522 203.017 110.38C202.835 110.237 202.621 110.166 202.375 110.166C202.059 110.166 201.814 110.262 201.64 110.453C201.466 110.642 201.379 110.883 201.379 111.174V114.103H200.676V111.021C200.676 110.765 200.593 110.559 200.427 110.403C200.261 110.245 200.047 110.166 199.786 110.166C199.606 110.166 199.438 110.214 199.282 110.309C199.127 110.405 199.002 110.538 198.907 110.708C198.813 110.876 198.766 111.07 198.766 111.291V114.103H198.075ZM206.569 114.208C206.284 114.208 206.025 114.155 205.792 114.047C205.56 113.938 205.375 113.781 205.239 113.576C205.102 113.369 205.034 113.119 205.034 112.826C205.034 112.568 205.084 112.359 205.186 112.199C205.288 112.037 205.423 111.91 205.593 111.818C205.763 111.726 205.951 111.658 206.156 111.613C206.363 111.566 206.571 111.529 206.78 111.502C207.053 111.467 207.275 111.44 207.445 111.423C207.617 111.403 207.742 111.371 207.82 111.326C207.9 111.281 207.94 111.203 207.94 111.092V111.068C207.94 110.779 207.861 110.554 207.702 110.394C207.546 110.234 207.309 110.154 206.991 110.154C206.661 110.154 206.402 110.226 206.214 110.371C206.027 110.515 205.895 110.67 205.819 110.834L205.163 110.599C205.28 110.326 205.436 110.113 205.631 109.961C205.829 109.806 206.043 109.699 206.276 109.639C206.51 109.576 206.741 109.545 206.967 109.545C207.112 109.545 207.278 109.562 207.465 109.598C207.655 109.631 207.837 109.7 208.013 109.806C208.191 109.911 208.338 110.07 208.455 110.283C208.573 110.496 208.631 110.781 208.631 111.138V114.103H207.94V113.494H207.905C207.858 113.591 207.78 113.696 207.67 113.807C207.561 113.918 207.415 114.013 207.234 114.091C207.052 114.169 206.83 114.208 206.569 114.208ZM206.674 113.587C206.948 113.587 207.178 113.534 207.366 113.426C207.555 113.319 207.698 113.18 207.793 113.01C207.891 112.84 207.94 112.662 207.94 112.474V111.841C207.91 111.877 207.846 111.909 207.746 111.938C207.649 111.965 207.535 111.99 207.407 112.011C207.28 112.031 207.156 112.048 207.035 112.064C206.915 112.078 206.819 112.09 206.745 112.099C206.565 112.123 206.397 112.161 206.241 112.214C206.086 112.264 205.961 112.341 205.866 112.445C205.772 112.547 205.725 112.685 205.725 112.861C205.725 113.101 205.814 113.283 205.992 113.406C206.171 113.527 206.399 113.587 206.674 113.587ZM209.893 114.103V109.603H210.584V114.103H209.893ZM210.244 108.853C210.11 108.853 209.994 108.808 209.896 108.716C209.8 108.624 209.752 108.514 209.752 108.385C209.752 108.256 209.8 108.145 209.896 108.054C209.994 107.962 210.11 107.916 210.244 107.916C210.379 107.916 210.494 107.962 210.59 108.054C210.688 108.145 210.737 108.256 210.737 108.385C210.737 108.514 210.688 108.624 210.59 108.716C210.494 108.808 210.379 108.853 210.244 108.853ZM212.542 108.103V114.103H211.851V108.103H212.542Z" fill="black"/>
<path d="M265.57 110.424L267.927 112.781L270.284 110.424" stroke="#A3A3A3" stroke-width="1.17848" stroke-linecap="round" stroke-linejoin="round"/>
<rect x="183.377" y="100.684" width="98.4032" height="21.8386" rx="2.06234" stroke="#D9D8D9" stroke-width="0.589241"/>
</g>
</g>
<defs>
<filter id="filter0_dd_3979_8533" x="0.759729" y="7.37986" width="296.481" height="133.476" filterUnits="userSpaceOnUse" color-interpolation-filters="sRGB">
<feFlood flood-opacity="0" result="BackgroundImageFix"/>
<feColorMatrix in="SourceAlpha" type="matrix" values="0 0 0 0 0 0 0 0 0 0 0 0 0 0 0 0 0 0 127 0" result="hardAlpha"/>
<feOffset dy="2.87014"/>
<feGaussianBlur stdDeviation="2.87014"/>
<feComposite in2="hardAlpha" operator="out"/>
<feColorMatrix type="matrix" values="0 0 0 0 0 0 0 0 0 0 0 0 0 0 0 0 0 0 0.05 0"/>
<feBlend mode="normal" in2="BackgroundImageFix" result="effect1_dropShadow_3979_8533"/>
<feColorMatrix in="SourceAlpha" type="matrix" values="0 0 0 0 0 0 0 0 0 0 0 0 0 0 0 0 0 0 127 0" result="hardAlpha"/>
<feOffset dy="1.43507"/>
<feGaussianBlur stdDeviation="1.43507"/>
<feComposite in2="hardAlpha" operator="out"/>
<feColorMatrix type="matrix" values="0 0 0 0 0 0 0 0 0 0 0 0 0 0 0 0 0 0 0.07 0"/>
<feBlend mode="normal" in2="effect1_dropShadow_3979_8533" result="effect2_dropShadow_3979_8533"/>
<feBlend mode="normal" in="SourceGraphic" in2="effect2_dropShadow_3979_8533" result="shape"/>
</filter>
</defs>
</svg>
