<svg width="69" height="69" viewBox="0 0 69 69" fill="none" xmlns="http://www.w3.org/2000/svg">
<rect width="69" height="69" rx="6.6208" fill="url(#paint0_linear_433_5053)"/>
<path d="M14.8125 25.3594C14.8125 23.6811 15.4792 22.0715 16.666 20.8847C17.8527 19.698 19.4623 19.0313 21.1406 19.0312H47.8594C49.5377 19.0312 51.1473 19.698 52.334 20.8847C53.5208 22.0715 54.1875 23.6811 54.1875 25.3594V43.6406C54.1875 45.319 53.5208 46.9285 52.334 48.1153C51.1473 49.302 49.5377 49.9688 47.8594 49.9688H21.1406C19.4623 49.9688 17.8527 49.302 16.666 48.1153C15.4792 46.9285 14.8125 45.319 14.8125 43.6406V25.3594ZM21.1406 21.8438C20.2082 21.8438 19.314 22.2141 18.6547 22.8735C17.9954 23.5328 17.625 24.427 17.625 25.3594V27.4688H51.375V25.3594C51.375 24.427 51.0046 23.5328 50.3453 22.8735C49.686 22.2141 48.7918 21.8438 47.8594 21.8438H21.1406ZM17.625 43.6406C17.625 44.573 17.9954 45.4672 18.6547 46.1265C19.314 46.7859 20.2082 47.1563 21.1406 47.1563H47.8594C48.7918 47.1563 49.686 46.7859 50.3453 46.1265C51.0046 45.4672 51.375 44.573 51.375 43.6406V30.2813H17.625V43.6406ZM41.5312 38.7188H45.75C46.123 38.7188 46.4806 38.8669 46.7444 39.1306C47.0081 39.3944 47.1562 39.752 47.1562 40.125C47.1562 40.498 47.0081 40.8556 46.7444 41.1194C46.4806 41.3831 46.123 41.5313 45.75 41.5313H41.5312C41.1583 41.5313 40.8006 41.3831 40.5369 41.1194C40.2732 40.8556 40.125 40.498 40.125 40.125C40.125 39.752 40.2732 39.3944 40.5369 39.1306C40.8006 38.8669 41.1583 38.7188 41.5312 38.7188Z" fill="white"/>
<defs>
<linearGradient id="paint0_linear_433_5053" x1="34.5" y1="0" x2="34.5" y2="69" gradientUnits="userSpaceOnUse">
<stop stop-color="#E87941"/>
<stop offset="1" stop-color="#DE3282"/>
</linearGradient>
</defs>
</svg>
