<svg width="69" height="69" viewBox="0 0 69 69" fill="none" xmlns="http://www.w3.org/2000/svg">
<rect width="69" height="69" rx="6.4" fill="url(#paint0_linear_433_5026)"/>
<path d="M32.5379 32.8626C30.8073 32.8626 29.1156 32.3494 27.6767 31.3879C26.2378 30.4264 25.1163 29.0599 24.454 27.461C23.7917 25.8622 23.6184 24.1028 23.9561 22.4055C24.2937 20.7082 25.127 19.1491 26.3507 17.9254C27.5745 16.7017 29.1336 15.8683 30.8309 15.5307C32.5282 15.1931 34.2876 15.3663 35.8864 16.0286C37.4853 16.6909 38.8518 17.8124 39.8133 19.2513C40.7748 20.6902 41.2879 22.382 41.2879 24.1126C41.2879 26.4332 40.3661 28.6588 38.7251 30.2997C37.0842 31.9407 34.8586 32.8626 32.5379 32.8626ZM32.5379 17.9626C31.3018 17.9626 30.0934 18.3291 29.0656 19.0159C28.0378 19.7026 27.2367 20.6787 26.7637 21.8208C26.2906 22.9628 26.1669 24.2195 26.408 25.4319C26.6492 26.6442 27.2444 27.7579 28.1185 28.632C28.9926 29.506 30.1062 30.1013 31.3186 30.3425C32.531 30.5836 33.7877 30.4598 34.9297 29.9868C36.0717 29.5138 37.0479 28.7127 37.7346 27.6849C38.4214 26.6571 38.7879 25.4487 38.7879 24.2126C38.7879 23.3918 38.6263 22.5791 38.3122 21.8208C37.9981 21.0625 37.5377 20.3735 36.9573 19.7931C36.377 19.2128 35.688 18.7524 34.9297 18.4383C34.1714 18.1242 33.3587 17.9626 32.5379 17.9626ZM39.5004 34.3751C32.736 32.8529 25.6592 33.586 19.3504 36.4626C18.4828 36.877 17.7508 37.5294 17.2396 38.3438C16.7284 39.1582 16.459 40.101 16.4629 41.0626V48.5001C16.4629 48.6642 16.4953 48.8268 16.5581 48.9784C16.6209 49.1301 16.713 49.2679 16.829 49.3839C16.9451 49.5 17.0829 49.5921 17.2346 49.6549C17.3862 49.7177 17.5488 49.7501 17.7129 49.7501C17.8771 49.7501 18.0396 49.7177 18.1913 49.6549C18.3429 49.5921 18.4807 49.5 18.5968 49.3839C18.7129 49.2679 18.805 49.1301 18.8678 48.9784C18.9306 48.8268 18.9629 48.6642 18.9629 48.5001V41.0626C18.952 40.5759 19.0835 40.0967 19.341 39.6837C19.5986 39.2707 19.9711 38.9419 20.4129 38.7376C24.2133 36.9828 28.3521 36.0825 32.5379 36.1001C34.8833 36.0971 37.2207 36.374 39.5004 36.9251V34.3751ZM39.6754 46.2626H47.3504V48.0126H39.6754V46.2626Z" fill="white"/>
<path d="M53.4625 38.8375H47V41.3375H52.2125V51.8H34.5V41.3375H42.375V41.8625C42.375 42.194 42.5067 42.512 42.7411 42.7464C42.9755 42.9808 43.2935 43.1125 43.625 43.1125C43.9565 43.1125 44.2745 42.9808 44.5089 42.7464C44.7433 42.512 44.875 42.194 44.875 41.8625V37C44.875 36.6685 44.7433 36.3505 44.5089 36.1161C44.2745 35.8817 43.9565 35.75 43.625 35.75C43.2935 35.75 42.9755 35.8817 42.7411 36.1161C42.5067 36.3505 42.375 36.6685 42.375 37V38.8375H33.25C32.9185 38.8375 32.6005 38.9692 32.3661 39.2036C32.1317 39.438 32 39.756 32 40.0875V53.05C32 53.3815 32.1317 53.6995 32.3661 53.9339C32.6005 54.1683 32.9185 54.3 33.25 54.3H53.4625C53.794 54.3 54.112 54.1683 54.3464 53.9339C54.5808 53.6995 54.7125 53.3815 54.7125 53.05V40.0875C54.7125 39.756 54.5808 39.438 54.3464 39.2036C54.112 38.9692 53.794 38.8375 53.4625 38.8375Z" fill="white"/>
<defs>
<linearGradient id="paint0_linear_433_5026" x1="34.5" y1="0" x2="34.5" y2="69" gradientUnits="userSpaceOnUse">
<stop stop-color="#BB57EA"/>
<stop offset="1" stop-color="#5E4BF5"/>
</linearGradient>
</defs>
</svg>
