<svg width="69" height="69" viewBox="0 0 69 69" fill="none" xmlns="http://www.w3.org/2000/svg">
<rect width="69" height="69" rx="6.13698" fill="url(#paint0_linear_433_5064)"/>
<path d="M39.0477 18.2348C39.5561 17.7137 40.163 17.2988 40.833 17.014C41.503 16.7292 42.2229 16.5803 42.9509 16.5758C43.6789 16.5713 44.4006 16.7113 45.074 16.9878C45.7475 17.2643 46.3594 17.6717 46.8743 18.1864C47.3892 18.7011 47.7967 19.3129 48.0734 19.9863C48.3501 20.6597 48.4903 21.3813 48.486 22.1094C48.4817 22.8374 48.333 23.5573 48.0484 24.2274C47.7638 24.8975 47.3491 25.5044 46.8282 26.013L43.9662 28.8728L44.1597 29.0663C44.5777 29.4842 44.9094 29.9803 45.1356 30.5264C45.3619 31.0725 45.4783 31.6578 45.4783 32.2489C45.4783 32.84 45.3619 33.4253 45.1356 33.9714C44.9094 34.5175 44.5777 35.0137 44.1597 35.4315L40.9197 38.6693C40.7075 38.8742 40.4233 38.9876 40.1283 38.985C39.8334 38.9825 39.5512 38.8642 39.3426 38.6556C39.134 38.447 39.0157 38.1648 39.0132 37.8699C39.0106 37.5749 39.124 37.2907 39.3289 37.0785L42.5689 33.8385C42.9907 33.4166 43.2277 32.8444 43.2277 32.2478C43.2277 31.6512 42.9907 31.079 42.5689 30.657L42.3754 30.4635L27.4219 45.4193C27.2772 45.5633 27.0959 45.6652 26.8977 45.714L17.8977 47.964C17.7022 48.0126 17.4973 48.0078 17.3044 47.9501C17.1115 47.8925 16.9375 47.7841 16.8007 47.6363C16.664 47.4885 16.5694 47.3067 16.5268 47.1099C16.4843 46.913 16.4954 46.7084 16.5589 46.5173L19.3714 38.0798C19.4263 37.9146 19.5187 37.7644 19.6414 37.641L39.0499 18.2348H39.0477ZM45.2352 19.8255C44.6256 19.2169 43.7994 18.875 42.9379 18.875C42.0765 18.875 41.2503 19.2169 40.6407 19.8255L21.4212 39.0428L19.3399 45.2843L26.0494 43.608L45.2352 24.4223C45.8445 23.8126 46.1868 22.9859 46.1868 22.1239C46.1868 21.2619 45.8445 20.4352 45.2352 19.8255ZM19.2387 49.9485L19.3534 50.034C21.0252 51.249 23.5024 52.4978 26.6254 52.4978C28.2972 52.4978 29.8294 51.9128 31.1907 51.1388C32.5474 50.3648 33.8074 49.3613 34.9279 48.45L35.1912 48.2363C36.2352 47.3858 37.1307 46.659 37.9542 46.173C38.8609 45.6375 39.4032 45.57 39.7699 45.6915C40.3662 45.8895 40.7059 46.3508 41.2977 48.3218C41.4934 48.9788 41.8444 49.6943 42.3574 50.2725C42.8727 50.8508 43.6377 51.375 44.6254 51.375C45.6919 51.375 46.7472 50.8598 47.5617 50.3805C48.0994 50.0633 48.6754 49.665 49.1434 49.3455C49.3752 49.188 49.5777 49.0463 49.7374 48.9405C50.3404 48.5513 50.8489 48.2993 51.1977 48.1463C51.3709 48.0698 51.5037 48.018 51.5892 47.9888L51.6792 47.9573L51.6927 47.9528C51.9791 47.8689 52.2205 47.6748 52.3638 47.4129C52.507 47.1511 52.5404 46.8431 52.4565 46.5567C52.3727 46.2702 52.1785 46.0288 51.9167 45.8856C51.6549 45.7423 51.3469 45.7089 51.0604 45.7928H51.0582L51.0514 45.7973L51.0357 45.8018L50.9884 45.8175L50.8309 45.8693C50.6484 45.9347 50.4683 46.0068 50.2909 46.0853C49.6734 46.3596 49.079 46.6832 48.5134 47.0528C48.2502 47.226 47.9959 47.3993 47.7439 47.5748C47.3133 47.8802 46.8712 48.1692 46.4187 48.441C45.6514 48.8955 45.0462 49.1228 44.6254 49.1228C44.4904 49.1228 44.2879 49.0553 44.0404 48.7763C43.7699 48.4538 43.5698 48.0783 43.4532 47.6738C42.9132 45.8738 42.3282 44.1728 40.4832 43.5563C39.1602 43.1153 37.8732 43.608 36.8112 44.2335C35.8324 44.8118 34.8042 45.651 33.8029 46.4655L33.5104 46.704C32.3809 47.6198 31.2514 48.513 30.0769 49.1835C28.9069 49.8495 27.7662 50.2478 26.6254 50.2478C24.9469 50.2478 23.4844 49.7978 22.2739 49.1903L19.2387 49.9485Z" fill="white"/>
<defs>
<linearGradient id="paint0_linear_433_5064" x1="34.5" y1="0" x2="34.5" y2="69" gradientUnits="userSpaceOnUse">
<stop stop-color="#71CD98"/>
<stop offset="1" stop-color="#56AC32"/>
</linearGradient>
</defs>
</svg>
