<svg width="20" height="20" viewBox="0 0 20 20" fill="none" xmlns="http://www.w3.org/2000/svg">
<g id="alert-octagon" clip-path="url(#clip0_1798_38409)">
<path id="Icon" d="M9.9999 6.66669V10M9.9999 13.3334H10.0082M1.66656 7.10231V12.8977C1.66656 13.1016 1.66656 13.2035 1.68959 13.2994C1.71 13.3844 1.74367 13.4657 1.78936 13.5403C1.8409 13.6244 1.91296 13.6964 2.05709 13.8405L6.15937 17.9428C6.3035 18.087 6.37556 18.159 6.45966 18.2106C6.53422 18.2562 6.61551 18.2899 6.70054 18.3103C6.79644 18.3334 6.89836 18.3334 7.10218 18.3334H12.8976C13.1014 18.3334 13.2034 18.3334 13.2993 18.3103C13.3843 18.2899 13.4656 18.2562 13.5401 18.2106C13.6242 18.159 13.6963 18.087 13.8404 17.9428L17.9427 13.8405C18.0868 13.6964 18.1589 13.6244 18.2104 13.5403C18.2561 13.4657 18.2898 13.3844 18.3102 13.2994C18.3332 13.2035 18.3332 13.1016 18.3332 12.8977V7.10231C18.3332 6.89848 18.3332 6.79657 18.3102 6.70066C18.2898 6.61563 18.2561 6.53434 18.2104 6.45978C18.1589 6.37569 18.0868 6.30362 17.9427 6.1595L13.8404 2.05721C13.6963 1.91308 13.6242 1.84102 13.5401 1.78949C13.4656 1.7438 13.3843 1.71013 13.2993 1.68971C13.2034 1.66669 13.1014 1.66669 12.8976 1.66669H7.10218C6.89836 1.66669 6.79644 1.66669 6.70054 1.68971C6.61551 1.71013 6.53422 1.7438 6.45966 1.78949C6.37556 1.84102 6.3035 1.91308 6.15937 2.05721L2.05709 6.1595C1.91296 6.30362 1.8409 6.37569 1.78936 6.45978C1.74367 6.53434 1.71 6.61563 1.68959 6.70066C1.66656 6.79657 1.66656 6.89848 1.66656 7.10231Z" stroke="#6434D0" stroke-width="1.66667" stroke-linecap="round" stroke-linejoin="round"/>
</g>
<defs>
<clipPath id="clip0_1798_38409">
<rect width="20" height="20" fill="white"/>
</clipPath>
</defs>
</svg>
