<svg width="20" height="20" viewBox="0 0 20 20" fill="none" xmlns="http://www.w3.org/2000/svg">
<g id="bank-note-01" clip-path="url(#clip0_1798_38437)">
<path id="Icon" d="M4.9999 9.16668V12.5M14.9999 7.50001V10.8333M14.1666 3.33334C16.2072 3.33334 17.3108 3.64564 17.86 3.88788C17.9331 3.92014 17.9697 3.93627 18.0752 4.03699C18.1385 4.09736 18.254 4.2745 18.2837 4.35675C18.3332 4.49396 18.3332 4.56896 18.3332 4.71896V13.676C18.3332 14.4333 18.3332 14.8119 18.2197 15.0066C18.1041 15.2045 17.9927 15.2966 17.7765 15.3727C17.564 15.4475 17.1349 15.365 16.2767 15.2001C15.6761 15.0847 14.9637 15 14.1666 15C11.6666 15 9.16657 16.6667 5.83323 16.6667C3.79264 16.6667 2.68895 16.3544 2.1398 16.1121C2.06667 16.0799 2.0301 16.0638 1.92456 15.963C1.8613 15.9027 1.74583 15.7255 1.71612 15.6433C1.66656 15.5061 1.66656 15.4311 1.66656 15.2811L1.66657 6.32405C1.66657 5.56675 1.66657 5.1881 1.78013 4.99346C1.89565 4.79548 2.00706 4.70344 2.22328 4.62735C2.43585 4.55255 2.86493 4.635 3.72309 4.79988C4.32375 4.91529 5.03613 5.00001 5.83323 5.00001C8.33323 5.00001 10.8332 3.33334 14.1666 3.33334ZM12.0832 10C12.0832 11.1506 11.1505 12.0833 9.9999 12.0833C8.84931 12.0833 7.91657 11.1506 7.91657 10C7.91657 8.84942 8.84931 7.91668 9.9999 7.91668C11.1505 7.91668 12.0832 8.84942 12.0832 10Z" stroke="#6434D0" stroke-width="1.66667" stroke-linecap="round" stroke-linejoin="round"/>
</g>
<defs>
<clipPath id="clip0_1798_38437">
<rect width="20" height="20" fill="white"/>
</clipPath>
</defs>
</svg>
