<svg width="20" height="20" viewBox="0 0 20 20" fill="none" xmlns="http://www.w3.org/2000/svg">
<g id="code-browser" clip-path="url(#clip0_1798_38416)">
<path id="Icon" d="M18.3332 7.5H1.66656M11.6666 14.5833L13.7499 12.5L11.6666 10.4167M8.33323 10.4167L6.2499 12.5L8.33323 14.5833M1.66657 6.5L1.66657 13.5C1.66656 14.9001 1.66656 15.6002 1.93905 16.135C2.17873 16.6054 2.56118 16.9878 3.03159 17.2275C3.56637 17.5 4.26643 17.5 5.66656 17.5H14.3332C15.7334 17.5 16.4334 17.5 16.9682 17.2275C17.4386 16.9878 17.8211 16.6054 18.0608 16.135C18.3332 15.6002 18.3332 14.9001 18.3332 13.5V6.5C18.3332 5.09987 18.3332 4.3998 18.0608 3.86503C17.8211 3.39462 17.4386 3.01217 16.9682 2.77249C16.4334 2.5 15.7334 2.5 14.3332 2.5L5.66657 2.5C4.26643 2.5 3.56637 2.5 3.03159 2.77248C2.56118 3.01217 2.17873 3.39462 1.93905 3.86502C1.66657 4.3998 1.66657 5.09987 1.66657 6.5Z" stroke="#6434D0" stroke-width="1.66667" stroke-linecap="round" stroke-linejoin="round"/>
</g>
<defs>
<clipPath id="clip0_1798_38416">
<rect width="20" height="20" fill="white"/>
</clipPath>
</defs>
</svg>
