<svg width="593" height="660" viewBox="0 0 593 660" fill="none" xmlns="http://www.w3.org/2000/svg">
<g clip-path="url(#clip0_1766_43053)">
<rect width="593" height="660" rx="4" fill="#F7F3FF"/>
<g clip-path="url(#clip1_1766_43053)">
<g filter="url(#filter0_b_1766_43053)">
<rect width="78.6684" height="78.6684" rx="4.49534" transform="matrix(0.849057 -0.528302 0.795122 0.606449 231.217 325.85)" fill="url(#paint0_linear_1766_43053)"/>
<rect x="0.923893" y="0.0439124" width="77.5446" height="77.5446" rx="3.93342" transform="matrix(0.849057 -0.528302 0.795122 0.606449 231.322 326.356)" stroke="url(#paint1_linear_1766_43053)" stroke-width="1.12383"/>
</g>
<g clip-path="url(#clip2_1766_43053)">
<path d="M270 313.866L256.718 333.77C255.98 334.877 257.596 336.092 259.26 335.681L289.124 328.299C291.748 327.651 293.879 326.325 295.081 324.592L308.77 304.874C309.533 303.775 307.943 302.543 306.268 302.938L276.18 310.022C273.434 310.668 271.212 312.051 270 313.867" fill="#FFCC00"/>
<path d="M298.451 328.611L318.654 344.02C318.876 344.19 319.153 344.32 319.46 344.4C319.767 344.481 320.095 344.509 320.416 344.482C320.737 344.455 321.04 344.374 321.3 344.246C321.56 344.118 321.769 343.947 321.907 343.748L337.353 321.92C337.523 321.675 337.58 321.398 337.518 321.124C337.456 320.851 337.278 320.593 337.005 320.385L316.803 304.977C316.581 304.807 316.304 304.677 315.997 304.597C315.69 304.516 315.361 304.488 315.041 304.515C314.72 304.542 314.417 304.623 314.157 304.751C313.897 304.879 313.688 305.05 313.549 305.249L298.104 327.077C297.934 327.322 297.876 327.599 297.938 327.873C298 328.146 298.178 328.403 298.451 328.611Z" fill="#31C2F2"/>
<path d="M293.829 332.931L289.483 340.603L281.103 355.266C280.575 356.197 278.687 356.462 277.683 355.696L258.721 341.234C258.359 340.957 258.244 340.595 258.276 340.25C258.283 340.104 258.32 339.96 258.385 339.823C258.545 339.441 259.008 339.077 259.613 338.928L291.22 331.107C292.837 330.705 294.465 331.82 293.83 332.931" fill="#ED3049"/>
<path d="M293.829 332.931L289.883 339.896L258.274 340.249C258.281 340.103 258.318 339.96 258.383 339.823C258.542 339.441 259.006 339.077 259.61 338.927L291.217 331.107C292.835 330.704 294.464 331.821 293.829 332.931Z" fill="#C62842"/>
</g>
</g>
<g filter="url(#filter1_b_1766_43053)">
<rect width="78.6684" height="78.6684" rx="4.49534" transform="matrix(0.857493 -0.514496 0.8 0.6 229.694 446.209)" fill="url(#paint2_linear_1766_43053)"/>
<rect x="0.931374" y="0.0480463" width="77.5446" height="77.5446" rx="3.93342" transform="matrix(0.857493 -0.514496 0.8 0.6 229.788 446.707)" stroke="url(#paint3_linear_1766_43053)" stroke-width="1.12383"/>
</g>
<path d="M260.384 460.092C254.418 455.542 251.436 453.267 250.397 450.758C249.483 448.551 249.594 446.225 250.713 444.115C251.985 441.715 255.17 439.734 261.54 435.77L278.221 425.39C284.591 421.427 287.776 419.445 291.37 418.817C294.532 418.264 297.901 418.424 300.996 419.274C304.514 420.241 307.496 422.516 313.462 427.065L329.084 438.98C335.049 443.53 338.032 445.805 339.07 448.314C339.984 450.521 339.874 452.847 338.755 454.957C337.483 457.357 334.298 459.338 327.928 463.302L311.246 473.682C304.876 477.645 301.691 479.627 298.097 480.255C294.936 480.808 291.566 480.648 288.472 479.798C284.954 478.831 281.971 476.557 276.006 472.007L260.384 460.092Z" fill="url(#paint4_linear_1766_43053)"/>
<path d="M299.817 431.687C294.675 431.74 290.095 433.016 286.271 435.133L286.266 435.923C290.275 434.478 294.66 433.848 299.421 433.77C294.464 434.493 289.693 435.889 285.489 437.98C284.151 438.55 283.195 439.145 282.047 439.859C280.899 440.574 279.943 441.169 278.984 442.027C275.537 444.697 273.038 447.825 271.49 451.149C272.086 447.893 273.44 444.953 275.935 442.351L274.793 442.275C271.348 444.681 269.04 447.69 268.443 451.209C271.25 457.854 276.346 464.125 283.161 469.587C289.06 470.113 294.971 469.057 299.179 466.439C299.179 466.439 299.004 464.45 298.635 462.844C295.58 463.958 291.959 464.375 288.345 463.739C290.442 463.483 292.538 463.228 294.445 462.828C296.925 462.334 299.025 461.552 301.126 460.769C302.845 459.962 304.565 459.154 306.096 458.201C307.626 457.249 308.967 456.153 310.308 455.056C311.651 453.696 312.994 452.336 313.958 450.687C314.729 449.42 315.311 448.009 315.893 446.598C316.445 449.139 315.475 451.578 313.556 453.559C315.838 453.975 318.692 454.297 318.692 454.297C322.901 451.678 325.025 447.734 324.865 443.638C317.667 438.413 309.129 434.285 299.817 431.687ZM294.291 457.941C292.378 459.132 288.952 458.903 286.869 457.314C284.786 455.726 284.804 453.355 286.717 452.164C288.63 450.974 292.056 451.202 294.139 452.791C296.222 454.38 296.204 456.751 294.291 457.941ZM306.917 450.085C305.004 451.275 301.578 451.047 299.495 449.458C297.412 447.87 297.43 445.498 299.343 444.308C301.256 443.118 304.682 443.346 306.765 444.935C308.848 446.524 308.83 448.895 306.917 450.085Z" fill="white"/>
<g filter="url(#filter2_b_1766_43053)">
<rect width="78.6684" height="78.6684" rx="4.49534" transform="matrix(0.857493 -0.514496 0.8 0.6 51.0039 311.365)" fill="url(#paint5_linear_1766_43053)"/>
<rect x="0.931374" y="0.0480463" width="77.5446" height="77.5446" rx="3.93342" transform="matrix(0.857493 -0.514496 0.8 0.6 51.0982 311.864)" stroke="url(#paint6_linear_1766_43053)" stroke-width="1.12383"/>
</g>
<path d="M74.7488 316.979C76.1338 320.325 80.1107 323.358 88.0645 329.424L92.325 332.674C100.279 338.74 104.256 341.774 108.946 343.062C113.073 344.196 117.565 344.409 121.78 343.672C126.572 342.834 130.819 340.192 139.312 334.907L143.862 332.076C152.355 326.792 156.602 324.149 158.298 320.95C159.79 318.136 159.937 315.036 158.719 312.093C157.334 308.747 153.357 305.714 145.403 299.648L141.142 296.398C133.189 290.332 129.212 287.298 124.521 286.01C120.395 284.876 115.902 284.663 111.687 285.4C106.895 286.238 102.649 288.88 94.1553 294.165L89.6058 296.996C81.1125 302.28 76.8659 304.923 75.1698 308.122C73.6778 310.936 73.5305 314.036 74.7488 316.979Z" fill="url(#paint7_linear_1766_43053)"/>
<path d="M76.9921 320.283C79.1651 322.637 82.7155 325.345 88.0646 329.424L92.3252 332.674C100.279 338.74 104.256 341.774 108.947 343.062C113.073 344.196 117.565 344.409 121.78 343.672C126.572 342.834 130.819 340.192 139.312 334.907L143.862 332.076C152.355 326.792 156.602 324.149 158.298 320.95C159.79 318.136 159.937 315.036 158.719 312.093C157.334 308.747 153.357 305.714 145.403 299.648L141.143 296.398C133.189 290.332 129.212 287.298 124.521 286.01C120.539 284.916 116.215 284.679 112.128 285.326L76.9921 320.283Z" fill="url(#paint8_linear_1766_43053)"/>
<path d="M156.667 308.999C157.623 310.065 158.293 311.064 158.719 312.093C159.937 315.036 159.79 318.136 158.298 320.95C156.653 324.053 152.607 326.633 144.613 331.609L141.698 333.423L136.083 329.14L156.667 308.999Z" fill="url(#paint9_linear_1766_43053)"/>
<path d="M94.1555 294.165L89.606 296.996C87.9536 298.024 86.462 298.952 85.1186 299.804L92.1557 305.171L112.121 285.328C111.976 285.351 111.832 285.375 111.687 285.4C109.027 285.865 106.535 286.886 103.391 288.607C100.872 289.986 97.9337 291.814 94.1555 294.165Z" fill="url(#paint10_linear_1766_43053)"/>
<path d="M145.711 299.882C151.046 303.952 154.553 306.641 156.666 308.999L149.507 316.004L136.947 306.423L144.417 298.895L145.711 299.882Z" fill="url(#paint11_linear_1766_43053)"/>
<path fill-rule="evenodd" clip-rule="evenodd" d="M110.071 312.235C108.93 311.365 109.488 310.41 111.137 309.384C113.503 307.912 117.164 306.566 120.729 306.009L113.854 300.765C110.306 301.636 107.373 302.934 104.789 304.542C98.4707 308.474 97.3695 313.453 102.547 317.403C110.621 323.561 121.162 315.219 124.644 317.874C125.989 318.901 125.183 320.01 123.44 321.095C120.856 322.702 116.562 323.997 112.602 324.597L119.564 329.908C123.629 328.999 127.053 327.558 129.73 325.892C136.204 321.863 137.642 316.796 132.405 312.802C123.657 306.172 113.348 314.734 110.071 312.235Z" fill="white"/>
<g filter="url(#filter3_b_1766_43053)">
<rect width="78.6684" height="78.6684" rx="4.49534" transform="matrix(0.857493 -0.514496 0.8 0.6 592.131 228.305)" fill="url(#paint12_linear_1766_43053)"/>
<rect x="0.931374" y="0.0480463" width="77.5446" height="77.5446" rx="3.93342" transform="matrix(0.857493 -0.514496 0.8 0.6 592.225 228.803)" stroke="url(#paint13_linear_1766_43053)" stroke-width="1.12383"/>
</g>
<g filter="url(#filter4_b_1766_43053)">
<rect width="78.6684" height="78.6684" rx="4.49534" transform="matrix(0.857493 -0.514496 0.8 0.6 48.7563 431.616)" fill="url(#paint14_linear_1766_43053)"/>
<rect x="0.931374" y="0.0480463" width="77.5446" height="77.5446" rx="3.93342" transform="matrix(0.857493 -0.514496 0.8 0.6 48.8506 432.114)" stroke="url(#paint15_linear_1766_43053)" stroke-width="1.12383"/>
</g>
<g clip-path="url(#clip3_1766_43053)">
<path d="M100.428 437.863L100.067 437.587C99.1532 436.89 99.1768 435.826 100.121 435.151L107.001 430.235L131.146 434.594L118.862 425.226L115.924 426.602L115.752 426.472C114.828 425.766 114.864 424.687 115.836 424.015L122.193 419.615L123.093 420.302C123.515 420.624 123.541 421.108 123.154 421.45L121.802 422.644L141.694 437.816L140.327 439.566C139.185 441.028 136.728 441.753 134.401 441.313L110.625 436.824L123.914 446.96L127.49 445.488L127.711 445.715C128.404 446.426 128.268 447.376 127.386 447.978L120.157 452.911C119.17 452.296 119.087 451.248 119.97 450.565L120.865 449.874L103.146 436.359L100.428 437.863Z" fill="black"/>
<path fill-rule="evenodd" clip-rule="evenodd" d="M99.4591 412.375L71.1542 432.665C69.4588 433.88 69.4185 435.794 71.0619 437.047L98.6043 458.054C100.148 459.232 102.216 460.023 104.482 460.303L118.608 462.047C120.892 462.329 123.228 461.814 124.845 460.67L156.472 438.312C158.093 437.166 158.14 435.348 156.58 434.158L125.267 410.275C124.302 409.539 122.877 409.173 121.45 409.295L104.099 410.775C102.331 410.926 100.693 411.491 99.4591 412.375ZM76.2062 434.441C75.494 434.48 75.0867 433.892 75.5795 433.537L102.29 414.253C103.141 413.638 104.283 413.254 105.511 413.168L115.068 412.501C115.431 412.475 115.641 412.777 115.384 412.956L86.6053 433.002C85.7343 433.608 84.576 433.979 83.3405 434.048L76.2062 434.441ZM90.0246 437.579C89.1021 436.876 89.1359 435.799 90.1017 435.127L120.527 413.931C121.468 413.275 123.018 413.3 123.917 413.986L151.031 434.666C151.951 435.368 151.92 436.442 150.958 437.116L120.798 458.233C119.753 458.965 118.028 458.938 117.027 458.175L90.0246 437.579Z" fill="black"/>
</g>
<g filter="url(#filter5_b_1766_43053)">
<rect width="78.6684" height="78.6684" rx="4.49534" transform="matrix(0.857493 -0.514496 0.8 0.6 230.818 203.477)" fill="url(#paint16_linear_1766_43053)"/>
<rect x="0.931374" y="0.0480463" width="77.5446" height="77.5446" rx="3.93342" transform="matrix(0.857493 -0.514496 0.8 0.6 230.912 203.976)" stroke="url(#paint17_linear_1766_43053)" stroke-width="1.12383"/>
</g>
<g clip-path="url(#clip4_1766_43053)">
<path d="M301.808 190.963L295.443 186.109C295.948 185.25 296.084 184.301 295.836 183.372C295.588 182.443 294.966 181.572 294.042 180.861L293.896 180.75C291.189 178.685 286.651 178.469 283.761 180.268L283.605 180.365C280.714 182.164 280.565 185.296 283.272 187.36L283.418 187.472C284.351 188.177 285.545 188.692 286.862 188.956C288.178 189.22 289.563 189.223 290.854 188.964L297.219 193.818C295.008 195.707 293.579 197.984 293.077 200.42L260.84 201.648C260.523 201.223 260.13 200.827 259.674 200.468C258.584 199.634 257.172 199.033 255.616 198.741C254.061 198.45 252.431 198.481 250.935 198.831C249.438 199.18 248.141 199.833 247.208 200.707C246.275 201.58 245.747 202.634 245.692 203.737C245.637 204.839 246.057 205.939 246.899 206.899C247.741 207.859 248.966 208.634 250.421 209.128C251.876 209.621 253.494 209.81 255.071 209.671C256.648 209.532 258.114 209.071 259.281 208.346C260.297 207.708 261.044 206.89 261.446 205.975L293.178 204.756C294.577 210.497 300.89 215.186 309.088 216.576L308.735 224.039C308.149 224.217 307.607 224.454 307.127 224.744C304.455 226.41 304.32 229.306 306.825 231.215C309.329 233.125 313.526 233.324 316.2 231.661C318.874 229.998 319.014 227.101 316.513 225.19C316.063 224.856 315.546 224.568 314.979 224.335L315.328 216.953C323.82 216.595 330.905 212.612 333.087 206.967C335.269 201.321 332.087 195.206 325.112 191.637C318.137 188.068 308.84 187.8 301.808 190.963ZM320.453 208.355C319.458 209.009 318.277 209.515 316.978 209.841C315.679 210.167 314.29 210.307 312.892 210.254C311.494 210.201 310.115 209.954 308.838 209.53C307.56 209.105 306.409 208.51 305.453 207.781C304.498 207.052 303.756 206.203 303.272 205.285C302.788 204.366 302.573 203.396 302.637 202.433C302.702 201.469 303.046 200.531 303.649 199.674C304.251 198.817 305.101 198.059 306.147 197.443C310.394 194.988 316.813 195.37 320.668 198.307C324.523 201.245 324.43 205.683 320.457 208.347" fill="#FF7A59"/>
</g>
<g filter="url(#filter6_b_1766_43053)">
<rect width="78.6684" height="78.6684" rx="4.49534" transform="matrix(0.857493 -0.514496 0.8 0.6 587.073 354.071)" fill="url(#paint18_linear_1766_43053)"/>
<rect x="0.931374" y="0.0480463" width="77.5446" height="77.5446" rx="3.93342" transform="matrix(0.857493 -0.514496 0.8 0.6 587.168 354.57)" stroke="url(#paint19_linear_1766_43053)" stroke-width="1.12383"/>
</g>
<g filter="url(#filter7_b_1766_43053)">
<rect width="78.6684" height="78.6684" rx="4.49534" transform="matrix(0.857493 -0.514496 0.8 0.6 407.925 586.705)" fill="url(#paint20_linear_1766_43053)"/>
<rect x="0.931374" y="0.0480463" width="77.5446" height="77.5446" rx="3.93342" transform="matrix(0.857493 -0.514496 0.8 0.6 408.019 587.203)" stroke="url(#paint21_linear_1766_43053)" stroke-width="1.12383"/>
</g>
<g clip-path="url(#clip5_1766_43053)">
<path d="M443.916 588.561L458.275 579.945L471.672 589.993L457.312 598.609L443.916 588.561Z" fill="#4F3895"/>
<path d="M459.774 579.046L474.134 570.43L487.531 580.478L473.171 589.094L459.774 579.046Z" fill="#4F3895"/>
<path d="M458.711 599.658L473.071 591.042L486.467 601.09L472.108 609.706L458.711 599.658Z" fill="#4F3895"/>
<path d="M474.571 590.143L488.93 581.527L502.327 591.575L487.968 600.19L474.571 590.143Z" fill="#4F3895"/>
</g>
<g clip-path="url(#clip6_1766_43053)" filter="url(#filter8_d_1766_43053)">
<path d="M439.015 601.573C432.829 596.855 429.736 594.496 428.659 591.893C427.711 589.605 427.826 587.193 428.986 585.004C430.305 582.516 433.608 580.461 440.214 576.351L455.548 566.81C462.154 562.699 465.456 560.644 469.183 559.993C472.462 559.419 475.956 559.585 479.165 560.467C482.814 561.469 485.907 563.828 492.093 568.547L506.453 579.499C512.639 584.217 515.732 586.577 516.809 589.179C517.757 591.467 517.642 593.879 516.482 596.068C515.163 598.556 511.86 600.611 505.254 604.721L489.92 614.262C483.314 618.373 480.012 620.428 476.284 621.079C473.006 621.653 469.512 621.487 466.303 620.605C462.654 619.603 459.561 617.244 453.375 612.525L439.015 601.573Z" fill="white"/>
<path d="M470.931 573.275L467.877 586.663L447.973 587.56L447.975 587.561L448.001 587.561L459.615 596.42L479.553 595.75L482.887 582.393L470.931 573.275Z" fill="#EA4335"/>
<path d="M471.894 569.881L470.931 573.275L482.887 582.393L485.522 571.414L481.46 568.316C481.46 568.316 474.52 564.599 471.894 569.881Z" fill="#FBBC05"/>
<path d="M482.887 582.393L498.393 594.22L505.582 589.748C505.582 589.748 507.43 588.324 505.394 586.567L485.525 571.413L482.887 582.393Z" fill="#34A853"/>
<path d="M475.463 608.506L459.616 596.42L459.59 596.42L475.463 608.506Z" fill="#C5221F"/>
<path d="M447.975 587.562L443.005 587.876C435.111 589.139 439.77 594.273 439.77 594.273L443.832 597.371L459.59 596.42L447.975 587.562Z" fill="#C5221F"/>
<path d="M447.975 587.561L459.59 596.42L459.616 596.42L448.001 587.561L447.975 587.561Z" fill="#C5221F"/>
<path d="M443.834 597.372L463.703 612.527C466.034 614.104 468.276 612.978 468.276 612.978L475.465 608.505L459.59 596.42L443.834 597.372Z" fill="#4285F4"/>
</g>
<g filter="url(#filter9_b_1766_43053)">
<rect width="78.6684" height="78.6684" rx="4.49534" transform="matrix(0.857493 -0.514496 0.8 0.6 230.818 85.4745)" fill="url(#paint22_linear_1766_43053)"/>
<rect x="0.931374" y="0.0480463" width="77.5446" height="77.5446" rx="3.93342" transform="matrix(0.857493 -0.514496 0.8 0.6 230.912 85.9729)" stroke="url(#paint23_linear_1766_43053)" stroke-width="1.12383"/>
</g>
<g clip-path="url(#clip7_1766_43053)">
<path d="M322.273 73.0229C335.992 83.4865 335.25 99.3683 320.587 108.492C305.924 117.615 282.914 116.513 269.195 106.049C255.463 95.5761 256.218 79.7037 270.881 70.5802C285.543 61.4567 308.541 62.5498 322.273 73.0229Z" fill="#283544"/>
<path d="M301.885 76.9993C301.819 77.1497 300.041 80.5683 303.743 83.3918C308.127 86.5108 313.796 85.0342 313.868 84.9895C313.875 85.0945 315.253 86.9213 315.624 89.5036C316.056 91.658 316.358 93.9134 314.137 95.2952C312.025 96.6095 310.1 96.1918 307.663 97.7083C305.046 99.3369 305.471 100.687 303.467 101.934C301.247 103.316 297.817 102.876 294.695 102.418C290.621 101.811 285.527 100.05 282.054 97.4763C280.206 96.1174 278.823 94.5117 278.321 92.7295C277.636 90.2319 278.748 87.5548 281.481 85.789C283.548 84.4159 286.782 84.2575 288.082 83.4487C289.328 82.6736 290.381 80.2511 293.016 78.6115C294.154 77.9046 297.486 76.2454 301.885 76.9993ZM286.264 82.3116C284.231 81.2858 283.623 79.3728 283.543 77.9613C283.513 76.2129 284.614 74.3281 286.311 73.2724C288.073 74.4667 289.009 76.1312 288.964 77.7958C289.139 79.4541 288.204 81.3664 286.264 82.3116Z" fill="white"/>
</g>
<g filter="url(#filter10_b_1766_43053)">
<rect width="78.6684" height="78.6684" rx="4.49534" transform="matrix(0.857493 -0.514496 0.8 0.6 43.1372 557.485)" fill="url(#paint24_linear_1766_43053)"/>
<rect x="0.931374" y="0.0480463" width="77.5446" height="77.5446" rx="3.93342" transform="matrix(0.857493 -0.514496 0.8 0.6 43.2315 557.984)" stroke="url(#paint25_linear_1766_43053)" stroke-width="1.12383"/>
</g>
<g clip-path="url(#clip8_1766_43053)">
<path d="M118.594 562.061C116.262 565.269 112.229 567.782 107.357 569.053C102.632 567.328 98.8531 564.447 96.839 561.034C99.168 557.824 103.207 555.311 108.078 554.04C112.803 555.765 116.581 558.648 118.594 562.061ZM129.762 542.093L114.26 551.738L114.963 537.094C110.981 536.44 106.871 536.246 102.845 536.522L102.142 551.166L87.6345 540.101C84.2486 541.57 81.249 543.438 78.7834 545.609L93.2907 556.674L72.0711 555.67C71.2642 558.4 71.1292 561.239 71.6686 564.033L92.8891 565.036L77.3879 574.681C79.8253 577.07 82.3511 579.169 85.6722 581L101.174 571.354L100.47 585.999C104.459 586.654 108.555 586.848 112.588 586.573L113.291 571.928L127.799 582.993C131.183 581.523 134.183 579.656 136.649 577.486L122.141 566.42L143.363 567.424C144.169 564.691 144.304 561.858 143.763 559.061L122.543 558.058L138.046 548.412C135.803 546.019 132.989 543.873 129.762 542.093Z" fill="#FF4A00"/>
</g>
<g filter="url(#filter11_b_1766_43053)">
<rect width="78.6684" height="78.6684" rx="4.49534" transform="matrix(0.857493 -0.514496 0.8 0.6 229.694 567.6)" fill="url(#paint26_linear_1766_43053)"/>
<rect x="0.931374" y="0.0480463" width="77.5446" height="77.5446" rx="3.93342" transform="matrix(0.857493 -0.514496 0.8 0.6 229.788 568.098)" stroke="url(#paint27_linear_1766_43053)" stroke-width="1.12383"/>
</g>
<g clip-path="url(#clip9_1766_43053)" filter="url(#filter12_d_1766_43053)">
<path d="M261.015 582.573C254.829 577.855 251.736 575.496 250.658 572.893C249.711 570.605 249.825 568.193 250.986 566.004C252.305 563.516 255.608 561.461 262.214 557.351L277.547 547.81C284.153 543.699 287.456 541.644 291.183 540.993C294.462 540.419 297.956 540.585 301.165 541.467C304.814 542.469 307.907 544.828 314.093 549.547L328.453 560.499C334.639 565.217 337.732 567.577 338.809 570.179C339.757 572.467 339.642 574.879 338.482 577.068C337.163 579.556 333.86 581.611 327.254 585.721L311.92 595.262C305.314 599.373 302.011 601.428 298.284 602.079C295.006 602.653 291.512 602.487 288.302 601.605C284.654 600.603 281.561 598.244 275.375 593.525L261.015 582.573Z" fill="white"/>
<path d="M288.438 566.728L271.034 562.54C271.045 562.246 271.159 561.987 271.318 561.761C269.98 563.419 271.126 565.524 271.126 565.524L278.944 588.085C279.396 588.663 279.91 589.12 280.424 589.483L293.506 581.344L288.438 566.728Z" fill="#34A853"/>
<path d="M288.437 566.728L309.03 571.684L322.111 563.545C321.639 563.155 321.031 562.757 320.242 562.388L288.454 554.742C288.454 554.742 285.529 553.744 283.001 554.492C283.341 554.407 283.73 554.353 284.155 554.376L288.437 566.728Z" fill="#FBBC05"/>
<path d="M288.438 566.728L284.156 554.377C283.73 554.354 283.341 554.407 283.001 554.492C282.629 554.603 282.264 554.75 281.915 554.945L281.569 555.161L272.429 560.847L272.083 561.063C271.766 561.279 271.515 561.515 271.318 561.761C271.162 561.986 271.045 562.247 271.035 562.541L288.438 566.728Z" fill="#188038"/>
<path d="M293.508 581.342L297.742 593.554C297.742 593.554 297.428 593.613 296.932 593.64C298.516 593.573 299.551 593.124 299.551 593.124L325.023 577.275C326.429 576.4 326.219 575.835 326.219 575.835C326.221 575.83 326.221 575.827 326.224 575.823L309.03 571.684L293.508 581.342Z" fill="#4285F4"/>
<path d="M293.508 581.342L280.427 589.482C281.948 590.551 283.474 590.781 283.474 590.781L284.765 591.084C284.847 591.098 284.895 591.106 284.895 591.106L287.725 591.782L294.046 593.274C294.275 593.352 294.502 593.411 294.727 593.463C294.807 593.478 294.888 593.499 294.968 593.511C294.991 593.515 295.014 593.52 295.036 593.524C295.727 593.639 296.363 593.663 296.935 593.639C297.433 593.613 297.745 593.552 297.745 593.552L293.508 581.342Z" fill="#1967D2"/>
<path d="M309.03 571.684L322.111 563.545C323.502 564.696 323.678 565.765 323.678 565.765L323.986 566.681C323.998 566.738 324.003 566.772 324.003 566.772L324.693 568.78L326.207 573.263C326.295 573.428 326.358 573.59 326.41 573.749C326.424 573.805 326.445 573.863 326.455 573.919C326.459 573.935 326.463 573.951 326.467 573.967C326.562 574.452 326.533 574.891 326.44 575.28C326.352 575.619 326.233 575.826 326.233 575.826L309.03 571.684Z" fill="#EA4335"/>
</g>
<g filter="url(#filter13_b_1766_43053)">
<rect width="78.6684" height="78.6684" rx="4.49534" transform="matrix(0.857493 -0.514496 0.8 0.6 -126.562 299.003)" fill="url(#paint28_linear_1766_43053)"/>
<rect x="0.931374" y="0.0480463" width="77.5446" height="77.5446" rx="3.93342" transform="matrix(0.857493 -0.514496 0.8 0.6 -126.468 299.502)" stroke="url(#paint29_linear_1766_43053)" stroke-width="1.12383"/>
</g>
<g clip-path="url(#clip10_1766_43053)">
<path d="M121.177 176.457C118.16 173.338 115.164 171.871 110.877 171.465C106.114 170.969 100.961 172.766 95.644 176.075L80.3814 185.572C79.2983 186.246 79.152 187.361 79.9726 188.26L111.496 221.167C112.137 221.793 113.376 221.919 114.163 221.429L123.616 215.547L126.812 218.939C127.361 219.494 128.408 219.611 129.196 219.121L137.172 214.158C138.157 213.546 138.297 212.562 137.563 211.865L129.432 203.346C128.698 202.649 128.937 201.604 129.823 201.053L131.005 200.318C138.685 195.539 141.83 189.482 135.093 181.889C132.268 178.779 128.92 176.635 124.915 176.308C123.677 176.182 122.525 176.258 121.177 176.457Z" fill="#009CDE"/>
<path d="M121.177 176.457C118.16 173.338 115.164 171.871 110.877 171.465C106.114 170.969 100.961 172.766 95.644 176.075L80.3814 185.572C79.2983 186.246 79.152 187.361 79.9726 188.26L111.496 221.167C112.137 221.793 113.376 221.919 114.163 221.429L123.616 215.547L112.192 203.697C111.371 202.798 111.517 201.683 112.6 201.009L117.13 198.19C125.992 192.676 129.555 185.847 121.72 177.144C121.633 176.942 121.356 176.73 121.177 176.457Z" fill="#012169"/>
<path d="M99.3107 190.191C98.7617 189.635 98.8155 188.449 99.7017 187.898L111.715 180.423C113.093 179.565 114.564 178.778 115.931 178.184C117.199 177.651 119.631 176.778 121.171 176.589C118.154 173.47 115.158 172.003 110.871 171.597C106.114 170.969 100.961 172.766 95.644 176.075L80.3814 185.572C79.2983 186.246 79.152 187.361 79.9726 188.26L111.496 221.167C112.137 221.793 113.376 221.919 114.163 221.429L123.616 215.547L99.3107 190.191Z" fill="#003087"/>
</g>
<g filter="url(#filter14_b_1766_43053)">
<rect width="78.6684" height="78.6684" rx="4.49534" transform="matrix(0.857493 -0.514496 0.8 0.6 588.862 478.92)" fill="url(#paint30_linear_1766_43053)"/>
<rect x="0.931374" y="0.0480463" width="77.5446" height="77.5446" rx="3.93342" transform="matrix(0.857493 -0.514496 0.8 0.6 588.956 479.418)" stroke="url(#paint31_linear_1766_43053)" stroke-width="1.12383"/>
</g>
<g filter="url(#filter15_b_1766_43053)">
<rect width="78.6684" height="78.6684" rx="4.49534" transform="matrix(0.857493 -0.514496 0.8 0.6 408.384 461.959)" fill="url(#paint32_linear_1766_43053)"/>
<rect x="0.931374" y="0.0480463" width="77.5446" height="77.5446" rx="3.93342" transform="matrix(0.857493 -0.514496 0.8 0.6 408.478 462.458)" stroke="url(#paint33_linear_1766_43053)" stroke-width="1.12383"/>
</g>
<g clip-path="url(#clip11_1766_43053)">
<mask id="mask0_1766_43053" style="mask-type:alpha" maskUnits="userSpaceOnUse" x="429" y="441" width="91" height="56">
<path d="M453.142 441.358L431.339 454.924C429.223 456.24 429.113 458.554 431.095 460.066L476.734 494.875C478.716 496.387 482.068 496.546 484.184 495.229L517.529 474.481C519.645 473.165 519.755 470.851 517.774 469.339L482.944 442.774L453.142 441.358Z" fill="white"/>
</mask>
<g mask="url(#mask0_1766_43053)">
<path d="M453.142 441.358L431.339 454.924C429.223 456.24 429.113 458.554 431.095 460.066L476.734 494.875C478.716 496.387 482.068 496.546 484.184 495.229L517.529 474.481C519.645 473.165 519.755 470.851 517.774 469.339L482.944 442.774L467.961 443.78L453.142 441.358Z" fill="#0F9D58"/>
</g>
<mask id="mask1_1766_43053" style="mask-type:alpha" maskUnits="userSpaceOnUse" x="429" y="441" width="91" height="56">
<path d="M453.142 441.358L431.339 454.924C429.223 456.24 429.113 458.554 431.095 460.066L476.734 494.875C478.716 496.387 482.068 496.546 484.184 495.229L517.529 474.481C519.645 473.165 519.755 470.851 517.774 469.339L482.944 442.774L453.142 441.358Z" fill="white"/>
</mask>
<g mask="url(#mask1_1766_43053)">
<path d="M463.574 470.629L480.989 483.911L501.509 471.143L484.094 457.861L463.574 470.629ZM487.564 476.493L481.152 480.483L478.149 478.193L484.562 474.203L487.564 476.493ZM482.76 472.829L476.348 476.819L473.345 474.529L479.757 470.539L482.76 472.829ZM477.956 469.165L471.544 473.155L468.541 470.865L474.953 466.875L477.956 469.165ZM496.542 470.907L490.129 474.897L487.127 472.607L493.539 468.617L496.542 470.907ZM491.737 467.243L485.325 471.233L482.322 468.943L488.735 464.953L491.737 467.243ZM486.933 463.579L480.521 467.569L477.518 465.279L483.931 461.289L486.933 463.579Z" fill="#F1F1F1"/>
</g>
<mask id="mask2_1766_43053" style="mask-type:alpha" maskUnits="userSpaceOnUse" x="429" y="441" width="91" height="56">
<path d="M453.142 441.358L431.339 454.924C429.223 456.24 429.113 458.554 431.095 460.066L476.734 494.875C478.716 496.387 482.068 496.546 484.184 495.229L517.529 474.481C519.645 473.165 519.755 470.851 517.774 469.339L482.944 442.774L453.142 441.358Z" fill="white"/>
</mask>
<g mask="url(#mask2_1766_43053)">
<path d="M467.627 450.845L495.247 452.156L482.945 442.773L467.627 450.845Z" fill="url(#paint34_linear_1766_43053)"/>
</g>
<mask id="mask3_1766_43053" style="mask-type:alpha" maskUnits="userSpaceOnUse" x="429" y="441" width="91" height="56">
<path d="M453.142 441.358L431.339 454.924C429.223 456.24 429.113 458.554 431.095 460.066L476.734 494.875C478.716 496.387 482.068 496.546 484.184 495.229L517.529 474.481C519.645 473.165 519.755 470.851 517.774 469.339L482.944 442.774L453.142 441.358Z" fill="white"/>
</mask>
<g mask="url(#mask3_1766_43053)">
<path d="M453.143 441.357L463.952 449.601C465.943 451.119 469.277 451.278 471.403 449.955L482.945 442.773L453.143 441.357Z" fill="#87CEAC"/>
</g>
<mask id="mask4_1766_43053" style="mask-type:alpha" maskUnits="userSpaceOnUse" x="429" y="441" width="91" height="56">
<path d="M453.142 441.358L431.339 454.924C429.223 456.24 429.113 458.554 431.095 460.066L476.734 494.875C478.716 496.387 482.068 496.546 484.184 495.229L517.529 474.481C519.645 473.165 519.755 470.851 517.774 469.339L482.944 442.774L453.142 441.358Z" fill="white"/>
</mask>
<g mask="url(#mask4_1766_43053)">
<path d="M431.339 454.924C429.223 456.24 429.113 458.554 431.095 460.066L431.395 460.295C429.413 458.783 429.523 456.469 431.64 455.153L453.442 441.587L453.142 441.358L431.339 454.924Z" fill="white" fill-opacity="0.2"/>
</g>
<mask id="mask5_1766_43053" style="mask-type:alpha" maskUnits="userSpaceOnUse" x="429" y="441" width="91" height="56">
<path d="M453.142 441.358L431.339 454.924C429.223 456.24 429.113 458.554 431.095 460.066L476.734 494.875C478.716 496.387 482.068 496.546 484.184 495.229L517.529 474.481C519.645 473.165 519.755 470.851 517.774 469.339L482.944 442.774L453.142 441.358Z" fill="white"/>
</mask>
<g mask="url(#mask5_1766_43053)">
<path d="M517.229 474.252L483.884 495C481.768 496.317 478.415 496.157 476.434 494.646L476.734 494.875C478.716 496.386 482.068 496.546 484.184 495.229L517.529 474.481C519.645 473.165 519.755 470.851 517.774 469.339L517.473 469.11C519.455 470.622 519.345 472.936 517.229 474.252Z" fill="#263238" fill-opacity="0.2"/>
</g>
<mask id="mask6_1766_43053" style="mask-type:alpha" maskUnits="userSpaceOnUse" x="429" y="441" width="91" height="56">
<path d="M453.142 441.358L431.339 454.924C429.223 456.24 429.113 458.554 431.095 460.066L476.734 494.875C478.716 496.387 482.068 496.546 484.184 495.229L517.529 474.481C519.645 473.165 519.755 470.851 517.774 469.339L482.944 442.774L453.142 441.358Z" fill="white"/>
</mask>
<g mask="url(#mask6_1766_43053)">
<path d="M471.403 449.955C469.277 451.278 465.943 451.119 463.952 449.601L464.252 449.83C466.243 451.348 469.577 451.507 471.703 450.184L483.245 443.002L482.945 442.773L471.403 449.955Z" fill="#263238" fill-opacity="0.1"/>
</g>
<path d="M453.142 441.358L431.339 454.924C429.223 456.24 429.113 458.554 431.095 460.066L476.734 494.875C478.716 496.387 482.068 496.546 484.184 495.229L517.529 474.481C519.645 473.165 519.755 470.851 517.774 469.339L482.944 442.774L453.142 441.358Z" fill="url(#paint35_radial_1766_43053)"/>
</g>
<g filter="url(#filter16_b_1766_43053)">
<rect width="78.6684" height="78.6684" rx="4.49534" transform="matrix(0.857493 -0.514496 0.8 0.6 408.384 216.963)" fill="url(#paint36_linear_1766_43053)"/>
<rect x="0.931374" y="0.0480463" width="77.5446" height="77.5446" rx="3.93342" transform="matrix(0.857493 -0.514496 0.8 0.6 408.478 217.462)" stroke="url(#paint37_linear_1766_43053)" stroke-width="1.12383"/>
</g>
<g filter="url(#filter17_d_1766_43053)">
<path d="M440.015 231.573C433.829 226.855 430.736 224.496 429.659 221.893C428.711 219.605 428.826 217.193 429.986 215.004C431.305 212.516 434.608 210.461 441.214 206.351L456.548 196.81C463.154 192.699 466.456 190.644 470.183 189.993C473.462 189.419 476.956 189.585 480.165 190.467C483.814 191.469 486.907 193.828 493.093 198.547L507.453 209.499C513.639 214.217 516.732 216.577 517.809 219.179C518.757 221.467 518.642 223.879 517.482 226.068C516.163 228.556 512.86 230.611 506.254 234.721L490.92 244.262C484.314 248.373 481.012 250.428 477.284 251.079C474.006 251.653 470.512 251.487 467.303 250.605C463.654 249.603 460.561 247.244 454.375 242.525L440.015 231.573Z" fill="white"/>
<path d="M468.383 237.458L475.473 242.865C476.919 243.968 479.354 244.075 480.912 243.106L488.432 238.427L478.725 231.023L468.383 237.458Z" fill="#188038"/>
<path d="M498.088 232.421L505.601 227.746C507.158 226.778 507.251 225.097 505.806 223.995L498.714 218.586L488.379 225.016L498.088 232.421Z" fill="#1967D2"/>
<path d="M488.377 225.018L478.725 231.023L488.434 238.428L498.086 232.423L488.377 225.018Z" fill="#34A853"/>
<path d="M441.863 213.323C440.306 214.292 440.213 215.972 441.658 217.074L468.383 237.458L478.725 231.023L459.164 216.103L468.815 210.098L459.034 202.638L441.863 213.323Z" fill="#FBBC05"/>
<path d="M479.152 203.666L468.818 210.097L488.379 225.016L498.714 218.586L479.152 203.666Z" fill="#4285F4"/>
<path d="M468.817 210.096L479.15 203.667L459.037 202.637L468.817 210.096Z" fill="#EA4335"/>
</g>
<g filter="url(#filter18_b_1766_43053)">
<rect width="78.6684" height="78.6684" rx="4.49534" transform="matrix(0.857493 -0.514496 0.8 0.6 408.384 338.337)" fill="url(#paint38_linear_1766_43053)"/>
<rect x="0.931374" y="0.0480463" width="77.5446" height="77.5446" rx="3.93342" transform="matrix(0.857493 -0.514496 0.8 0.6 408.478 338.836)" stroke="url(#paint39_linear_1766_43053)" stroke-width="1.12383"/>
</g>
<circle cx="31.257" cy="31.257" r="31.257" transform="matrix(0.849057 -0.528302 0.795122 0.606449 421.342 339.093)" fill="#0F287F"/>
<path fill-rule="evenodd" clip-rule="evenodd" d="M449.054 336.602L444.901 346.561L459.705 344.726L455.553 354.685L470.357 352.849L474.509 342.89L489.313 341.054L493.466 331.095L478.662 332.93L482.814 322.971L468.01 324.806L463.858 334.766L449.054 336.602ZM463.858 334.766L478.662 332.93L474.509 342.89L459.705 344.726L463.858 334.766Z" fill="#DAF8FE"/>
<path d="M473.907 355.557L478.06 345.598L492.864 343.762L488.711 353.722L473.907 355.557Z" fill="#DAF8FE"/>
<g filter="url(#filter19_b_1766_43053)">
<rect width="78.6684" height="78.6684" rx="4.49534" transform="matrix(0.857493 -0.514496 0.8 0.6 413.544 91.1968)" fill="url(#paint40_linear_1766_43053)"/>
<rect x="0.931374" y="0.0480463" width="77.5446" height="77.5446" rx="3.93342" transform="matrix(0.857493 -0.514496 0.8 0.6 413.638 91.6952)" stroke="url(#paint41_linear_1766_43053)" stroke-width="1.12383"/>
</g>
<g clip-path="url(#clip12_1766_43053)">
<path d="M456.822 89.5051L453.402 98.3226L466.845 97.0224L470.266 88.204L456.822 89.5051ZM473.687 79.3861L470.267 88.2044L483.711 86.9041L487.131 78.0857L473.687 79.3861ZM463.426 105.841L476.869 104.54L480.29 95.722L466.846 97.0231L463.426 105.841ZM483.711 86.9041L480.291 95.7224L493.735 94.422L497.155 85.6038L483.711 86.9041ZM478.551 105.801L491.995 104.5L495.415 95.6824L481.972 96.9827L478.551 105.801Z" fill="#4F3895"/>
</g>
<g clip-path="url(#clip13_1766_43053)">
<mask id="mask7_1766_43053" style="mask-type:alpha" maskUnits="userSpaceOnUse" x="447" y="76" width="73" height="46">
<path d="M480.998 117.713C472.801 122.813 460.063 122.301 452.546 116.568C445.194 110.96 445.561 102.437 453.249 97.293C451.557 91.4622 454.185 85.2255 460.982 80.9962C469.76 75.5341 482.669 75.1774 492.166 79.6226C498.941 75.473 509.394 75.9151 515.573 80.6285C521.584 85.2131 521.13 92.7423 515.185 96.4197L480.998 117.713Z" fill="#C4C4C4"/>
</mask>
<g mask="url(#mask7_1766_43053)">
<path d="M480.998 117.713C476.35 120.605 470.242 121.692 464.454 121.047L483.198 92.5782L519.867 87.2941C520.337 90.5828 519.056 94.0323 515.427 96.2691C509.993 99.6718 489.022 112.72 480.998 117.713Z" fill="url(#paint42_linear_1766_43053)"/>
<path d="M492.124 79.6028L483.198 92.5781L519.867 87.294C519.526 84.9048 518.103 82.5577 515.573 80.6285C509.394 75.9151 498.941 75.473 492.166 79.6226C492.152 79.616 492.138 79.6094 492.124 79.6028Z" fill="url(#paint43_linear_1766_43053)"/>
<path d="M452.392 97.9031L483.198 92.5782L492.124 79.6029C482.63 75.1785 469.747 75.5422 460.982 80.9963C454.185 85.2255 451.557 91.4623 453.249 97.293C452.953 97.4915 452.667 97.6949 452.392 97.9031Z" fill="url(#paint44_linear_1766_43053)"/>
<path d="M464.454 121.047L483.198 92.5782L452.392 97.9031C445.544 103.09 445.478 111.177 452.546 116.568C455.8 119.05 460.034 120.554 464.454 121.047Z" fill="url(#paint45_linear_1766_43053)"/>
</g>
</g>
<path d="M129.222 379.682C128.262 378.961 128.342 377.496 129.374 376.884L132.102 375.267L131.815 374.783L137.27 371.549L137.557 372.033L143.012 368.798L142.725 368.315L148.18 365.081L148.466 365.564L153.921 362.33L153.635 361.847L159.09 358.613L159.376 359.096L164.831 355.862L164.544 355.379L169.999 352.145L170.286 352.628L175.741 349.394L175.454 348.911L180.909 345.677L181.196 346.16L186.65 342.926L186.364 342.443L191.819 339.208L192.105 339.692L197.56 336.458L197.273 335.974L202.728 332.74L203.015 333.224L205.742 331.607C206.333 331.256 207.077 331.3 207.623 331.716L210.316 333.766L210.656 333.319L216.041 337.419L215.701 337.866L221.086 341.967L221.426 341.52L226.811 345.62L226.471 346.067L231.856 350.168L232.196 349.721L237.581 353.821L237.241 354.268L242.626 358.369L242.966 357.922L248.351 362.022L248.01 362.469L253.395 366.57L253.736 366.123L259.121 370.223L258.78 370.67L264.165 374.771L264.506 374.324L269.891 378.424L269.55 378.871L274.935 382.972L275.276 382.525L280.661 386.625L280.32 387.072L283.013 389.123C283.96 389.844 283.881 391.295 282.86 391.908L280.171 393.525L280.46 394.007L275.082 397.241L274.792 396.759L269.414 399.993L269.703 400.475L264.324 403.709L264.035 403.227L258.656 406.461L258.946 406.943L253.567 410.177L253.278 409.695L247.899 412.929L248.189 413.411L242.81 416.645L242.521 416.163L237.142 419.397L237.431 419.879L232.053 423.113L231.763 422.631L226.385 425.865L226.674 426.347L221.296 429.581L221.006 429.099L215.628 432.333L215.917 432.815L210.539 436.049L210.249 435.567L207.56 437.184C206.971 437.538 206.228 437.5 205.679 437.087L202.948 435.037L202.611 435.487L197.15 431.386L197.487 430.937L192.026 426.836L191.688 427.286L186.227 423.185L186.565 422.736L181.103 418.636L180.766 419.085L175.305 414.985L175.642 414.535L170.181 410.435L169.844 410.884L164.382 406.784L164.72 406.334L159.259 402.234L158.921 402.683L153.46 398.583L153.797 398.134L148.336 394.033L147.999 394.483L142.538 390.382L142.875 389.933L137.414 385.832L137.076 386.282L131.615 382.181L131.953 381.732L129.222 379.682Z" stroke="#9777E0" stroke-width="1.12383" stroke-dasharray="6.74 6.74"/>
<path d="M197.948 377.678L213.992 389.711" stroke="#9777E0" stroke-width="1.12383" stroke-linecap="round" stroke-linejoin="round"/>
<path d="M214.568 378.536L197.371 388.854" stroke="#9777E0" stroke-width="1.12383" stroke-linecap="round" stroke-linejoin="round"/>
<path d="M305.664 392.016C304.701 391.303 304.768 389.842 305.793 389.22L308.521 387.564L308.23 387.084L313.686 383.773L313.978 384.253L319.435 380.942L319.143 380.461L324.6 377.15L324.892 377.63L330.349 374.319L330.057 373.838L335.514 370.527L335.806 371.007L341.263 367.696L340.971 367.216L346.428 363.904L346.72 364.384L352.176 361.073L351.885 360.593L357.342 357.281L357.633 357.762L363.09 354.45L362.799 353.97L368.256 350.658L368.547 351.139L374.004 347.827L373.713 347.347L379.17 344.036L379.461 344.516L382.189 342.86C382.779 342.502 383.528 342.54 384.079 342.956L386.85 345.046L387.188 344.597L392.73 348.777L392.392 349.226L397.934 353.405L398.272 352.957L403.814 357.137L403.475 357.585L409.017 361.765L409.356 361.317L414.897 365.497L414.559 365.945L420.101 370.125L420.439 369.677L425.981 373.857L425.643 374.305L431.184 378.485L431.523 378.037L437.065 382.217L436.726 382.665L442.268 386.845L442.606 386.397L448.148 390.577L447.81 391.025L453.352 395.205L453.69 394.757L459.232 398.937L458.894 399.385L461.664 401.475C462.622 402.197 462.54 403.66 461.509 404.271L458.781 405.889L459.067 406.372L453.611 409.607L453.324 409.124L447.867 412.359L448.154 412.842L442.697 416.077L442.411 415.594L436.954 418.829L437.241 419.313L431.784 422.548L431.497 422.064L426.041 425.3L426.327 425.783L420.87 429.018L420.584 428.535L415.127 431.77L415.414 432.253L409.957 435.488L409.671 435.005L404.214 438.24L404.5 438.724L399.044 441.959L398.757 441.475L393.3 444.711L393.587 445.194L388.13 448.429L387.844 447.946L385.115 449.563C384.532 449.909 383.798 449.872 383.253 449.468L380.482 447.416L380.147 447.868L374.605 443.764L374.94 443.312L369.397 439.209L369.063 439.66L363.521 435.557L363.855 435.105L358.313 431.001L357.979 431.453L352.437 427.349L352.771 426.898L347.229 422.794L346.895 423.245L341.353 419.142L341.687 418.69L336.145 414.586L335.811 415.038L330.269 410.934L330.603 410.483L325.061 406.379L324.727 406.831L319.185 402.727L319.519 402.275L313.977 398.172L313.643 398.623L308.101 394.52L308.435 394.068L305.664 392.016Z" stroke="#9777E0" stroke-width="1.12383" stroke-dasharray="6.74 6.74"/>
<path d="M374.39 388.917L390.434 400.95" stroke="#9777E0" stroke-width="1.12383" stroke-linecap="round" stroke-linejoin="round"/>
<path d="M391.01 389.774L373.813 400.092" stroke="#9777E0" stroke-width="1.12383" stroke-linecap="round" stroke-linejoin="round"/>
<path d="M485.456 407.771C484.501 407.05 484.579 405.593 485.605 404.978L488.374 403.321L488.085 402.839L493.623 399.525L493.911 400.007L499.449 396.693L499.16 396.211L504.697 392.897L504.986 393.379L510.523 390.065L510.235 389.583L515.772 386.269L516.06 386.751L521.598 383.437L521.309 382.955L526.847 379.641L527.135 380.123L532.672 376.81L532.384 376.327L537.921 373.013L538.21 373.496L543.747 370.182L543.458 369.699L548.996 366.385L549.284 366.868L554.822 363.554L554.533 363.071L560.07 359.757L560.359 360.24L563.128 358.583C563.717 358.23 564.46 358.27 565.008 358.683L567.78 360.774L568.118 360.325L573.662 364.506L573.323 364.955L578.867 369.136L579.205 368.687L584.748 372.868L584.41 373.317L589.953 377.498L590.291 377.049L595.835 381.23L595.496 381.679L601.039 385.86L601.378 385.411L606.921 389.592L606.583 390.041L612.126 394.222L612.464 393.774L618.007 397.955L617.669 398.403L623.212 402.584L623.551 402.136L629.094 406.317L628.756 406.765L634.299 410.946L634.637 410.498L640.18 414.679L639.842 415.127L642.614 417.218C643.569 417.938 643.491 419.396 642.464 420.01L639.696 421.667L639.984 422.149L634.447 425.463L634.158 424.981L628.621 428.295L628.91 428.777L623.372 432.091L623.084 431.609L617.546 434.923L617.835 435.405L612.298 438.719L612.009 438.237L606.472 441.551L606.76 442.033L601.223 445.347L600.934 444.865L595.397 448.179L595.686 448.661L590.148 451.975L589.86 451.493L584.322 454.807L584.611 455.289L579.074 458.603L578.785 458.121L573.248 461.435L573.536 461.917L567.999 465.231L567.711 464.749L564.942 466.406C564.353 466.758 563.609 466.719 563.061 466.305L560.289 464.215L559.951 464.663L554.408 460.482L554.746 460.034L549.203 455.853L548.865 456.301L543.321 452.12L543.66 451.672L538.117 447.491L537.778 447.939L532.235 443.758L532.573 443.31L527.03 439.128L526.692 439.577L521.148 435.396L521.487 434.947L515.944 430.766L515.605 431.215L510.062 427.034L510.4 426.585L504.857 422.404L504.519 422.853L498.976 418.672L499.314 418.223L493.771 414.042L493.432 414.491L487.889 410.31L488.227 409.861L485.456 407.771Z" stroke="#9777E0" stroke-width="1.12383" stroke-dasharray="6.74 6.74"/>
<path d="M554.203 404.651L570.247 416.684" stroke="#9777E0" stroke-width="1.12383" stroke-linecap="round" stroke-linejoin="round"/>
<path d="M570.824 405.508L553.627 415.826" stroke="#9777E0" stroke-width="1.12383" stroke-linecap="round" stroke-linejoin="round"/>
<path d="M490.616 160.63C489.661 159.91 489.739 158.452 490.766 157.838L493.534 156.181L493.246 155.699L498.783 152.385L499.072 152.867L504.609 149.553L504.32 149.071L509.858 145.757L510.146 146.239L515.684 142.925L515.395 142.443L520.932 139.129L521.221 139.611L526.758 136.297L526.47 135.815L532.007 132.501L532.296 132.983L537.833 129.669L537.544 129.187L543.082 125.873L543.37 126.355L548.907 123.041L548.619 122.559L554.156 119.245L554.445 119.727L559.982 116.413L559.694 115.931L565.231 112.617L565.519 113.099L568.288 111.442C568.877 111.09 569.621 111.129 570.169 111.543L572.94 113.633L573.279 113.185L578.822 117.366L578.484 117.814L584.027 121.995L584.365 121.547L589.909 125.728L589.57 126.176L595.113 130.357L595.452 129.909L600.995 134.09L600.657 134.538L606.2 138.719L606.538 138.271L612.081 142.452L611.743 142.9L617.286 147.082L617.625 146.633L623.168 150.814L622.83 151.263L628.373 155.444L628.711 154.995L634.254 159.176L633.916 159.625L639.459 163.806L639.798 163.357L645.341 167.538L645.002 167.987L647.774 170.077C648.729 170.797 648.651 172.255 647.625 172.87L644.856 174.527L645.145 175.009L639.607 178.323L639.319 177.841L633.781 181.155L634.07 181.637L628.533 184.951L628.244 184.469L622.707 187.783L622.995 188.265L617.458 191.579L617.169 191.096L611.632 194.41L611.921 194.893L606.383 198.207L606.095 197.724L600.557 201.038L600.846 201.521L595.309 204.835L595.02 204.352L589.483 207.666L589.771 208.149L584.234 211.463L583.946 210.98L578.408 214.294L578.697 214.776L573.16 218.09L572.871 217.608L570.102 219.265C569.513 219.618 568.769 219.578 568.221 219.165L565.45 217.074L565.111 217.523L559.568 213.342L559.907 212.893L554.363 208.712L554.025 209.161L548.482 204.98L548.82 204.531L543.277 200.35L542.939 200.799L537.395 196.618L537.734 196.169L532.19 191.988L531.852 192.436L526.309 188.255L526.647 187.807L521.104 183.626L520.766 184.074L515.222 179.893L515.561 179.445L510.018 175.264L509.679 175.712L504.136 171.531L504.474 171.083L498.931 166.902L498.593 167.35L493.05 163.169L493.388 162.721L490.616 160.63Z" stroke="#9777E0" stroke-width="1.12383" stroke-dasharray="6.74 6.74"/>
<path d="M559.364 157.51L575.408 169.543" stroke="#9777E0" stroke-width="1.12383" stroke-linecap="round" stroke-linejoin="round"/>
<path d="M575.984 158.367L558.787 168.686" stroke="#9777E0" stroke-width="1.12383" stroke-linecap="round" stroke-linejoin="round"/>
<path d="M483.248 284.141C482.281 283.426 482.353 281.957 483.385 281.34L486.153 279.683L485.865 279.201L491.401 275.888L491.69 276.37L497.226 273.057L496.937 272.574L502.473 269.261L502.762 269.743L508.298 266.43L508.01 265.948L513.546 262.634L513.835 263.117L519.371 259.803L519.082 259.321L524.618 256.008L524.907 256.49L530.443 253.177L530.155 252.694L535.691 249.381L535.979 249.863L541.516 246.55L541.227 246.068L546.763 242.754L547.052 243.237L552.588 239.923L552.3 239.441L557.836 236.128L558.124 236.61L560.892 234.953C561.477 234.604 562.214 234.64 562.761 235.045L565.531 237.096L565.866 236.645L571.406 240.747L571.072 241.199L576.612 245.301L576.947 244.85L582.487 248.952L582.153 249.404L587.693 253.506L588.027 253.055L593.568 257.157L593.233 257.609L598.774 261.711L599.108 261.259L604.649 265.362L604.314 265.814L609.855 269.916L610.189 269.464L615.729 273.567L615.395 274.019L620.935 278.121L621.27 277.669L626.81 281.772L626.476 282.223L632.016 286.326L632.35 285.874L637.891 289.977L637.556 290.428L640.327 292.48C641.293 293.195 641.221 294.663 640.189 295.281L637.421 296.938L637.71 297.42L632.173 300.733L631.885 300.251L626.349 303.564L626.637 304.046L621.101 307.36L620.812 306.878L615.276 310.191L615.565 310.673L610.028 313.986L609.74 313.504L604.204 316.818L604.492 317.3L598.956 320.613L598.667 320.131L593.131 323.444L593.42 323.926L587.884 327.24L587.595 326.758L582.059 330.071L582.347 330.553L576.811 333.866L576.523 333.384L570.986 336.698L571.275 337.18L565.739 340.493L565.45 340.011L562.682 341.668C562.098 342.017 561.36 341.981 560.813 341.576L558.043 339.525L557.709 339.976L552.168 335.874L552.503 335.422L546.962 331.32L546.628 331.771L541.087 327.669L541.422 327.217L535.881 323.115L535.547 323.566L530.007 319.464L530.341 319.012L524.801 314.91L524.466 315.361L518.926 311.259L519.26 310.807L513.72 306.705L513.385 307.156L507.845 303.054L508.179 302.602L502.639 298.5L502.305 298.951L496.764 294.849L497.099 294.397L491.558 290.295L491.224 290.746L485.684 286.644L486.018 286.192L483.248 284.141Z" stroke="#9777E0" stroke-width="1.12383" stroke-dasharray="6.74 6.74"/>
<path d="M553.079 281.029L569.123 293.062" stroke="#9777E0" stroke-width="1.12383" stroke-linecap="round" stroke-linejoin="round"/>
<path d="M569.7 281.886L552.503 292.204" stroke="#9777E0" stroke-width="1.12383" stroke-linecap="round" stroke-linejoin="round"/>
<path d="M-58.8994 488.782C-59.8658 488.067 -59.7937 486.599 -58.762 485.981L-55.9938 484.324L-56.2824 483.842L-50.7462 480.529L-50.4576 481.011L-44.9214 477.698L-45.21 477.216L-39.6737 473.902L-39.3852 474.384L-33.8489 471.071L-34.1375 470.589L-28.6013 467.276L-28.3127 467.758L-22.7765 464.444L-23.0651 463.962L-17.5288 460.649L-17.2403 461.131L-11.704 457.818L-11.9926 457.336L-6.45637 454.022L-6.16781 454.505L-0.631577 451.191L-0.920143 450.709L4.61608 447.396L4.90465 447.878L10.4409 444.565L10.1523 444.082L15.6885 440.769L15.9771 441.251L18.7452 439.595C19.3295 439.245 20.0668 439.281 20.6141 439.686L23.3843 441.737L23.7187 441.286L29.259 445.388L28.9247 445.84L34.465 449.942L34.7994 449.491L40.3398 453.593L40.0054 454.045L45.5458 458.147L45.8802 457.696L51.4206 461.798L51.0862 462.25L56.6266 466.352L56.9609 465.901L62.5013 470.003L62.1669 470.455L67.7073 474.557L68.0417 474.106L73.5821 478.208L73.2477 478.66L78.7881 482.762L79.1225 482.311L84.6628 486.413L84.3285 486.865L89.8688 490.967L90.2032 490.516L95.7436 494.618L95.4092 495.07L98.1794 497.121C99.1458 497.836 99.0737 499.305 98.0419 499.922L95.2738 501.579L95.5624 502.061L90.0262 505.374L89.7376 504.892L84.2014 508.205L84.4899 508.688L78.9537 512.001L78.6651 511.519L73.1289 514.832L73.4175 515.314L67.8812 518.628L67.5927 518.145L62.0564 521.459L62.345 521.941L56.8088 525.254L56.5202 524.772L50.984 528.085L51.2726 528.568L45.7363 531.881L45.4478 531.399L39.9115 534.712L40.2001 535.194L34.6639 538.508L34.3753 538.025L28.8391 541.339L29.1277 541.821L23.5914 545.134L23.3029 544.652L20.5348 546.309C19.9505 546.658 19.2131 546.622 18.6659 546.217L15.8957 544.166L15.5613 544.617L10.0209 540.515L10.3553 540.063L4.81494 535.961L4.48055 536.412L-1.05983 532.31L-0.725437 531.858L-6.26582 527.756L-6.60021 528.208L-12.1406 524.105L-11.8062 523.653L-17.3466 519.551L-17.681 520.003L-23.2214 515.9L-22.887 515.448L-28.4273 511.346L-28.7617 511.798L-34.3021 507.695L-33.9677 507.244L-39.5081 503.141L-39.8425 503.593L-45.3829 499.49L-45.0485 499.039L-50.5889 494.936L-50.9233 495.388L-56.4636 491.285L-56.1293 490.834L-58.8994 488.782Z" stroke="#9777E0" stroke-width="1.12383" stroke-dasharray="6.74 6.74"/>
<path d="M10.9321 485.67L26.9762 497.703" stroke="#9777E0" stroke-width="1.12383" stroke-linecap="round" stroke-linejoin="round"/>
<path d="M27.5525 486.527L10.3554 496.845" stroke="#9777E0" stroke-width="1.12383" stroke-linecap="round" stroke-linejoin="round"/>
<path d="M305.692 271.777C304.723 271.063 304.793 269.592 305.827 268.973L308.594 267.317L308.306 266.835L313.841 263.522L314.129 264.004L319.664 260.692L319.376 260.21L324.911 256.897L325.199 257.379L330.734 254.067L330.446 253.584L335.981 250.272L336.269 250.754L341.804 247.441L341.516 246.959L347.051 243.647L347.339 244.129L352.875 240.816L352.586 240.334L358.121 237.021L358.41 237.503L363.945 234.191L363.656 233.709L369.191 230.396L369.48 230.878L375.015 227.566L374.726 227.083L380.261 223.771L380.55 224.253L383.317 222.597C383.905 222.245 384.647 222.284 385.195 222.695L387.925 224.745L388.263 224.296L393.723 228.395L393.385 228.844L398.845 232.944L399.183 232.495L404.643 236.594L404.306 237.044L409.766 241.143L410.103 240.694L415.563 244.794L415.226 245.243L420.686 249.342L421.023 248.893L426.483 252.993L426.146 253.442L431.606 257.542L431.944 257.092L437.404 261.192L437.066 261.641L442.526 265.741L442.864 265.292L448.324 269.391L447.987 269.84L453.447 273.94L453.784 273.491L459.244 277.59L458.907 278.04L461.637 280.089C462.601 280.813 462.516 282.285 461.476 282.893L458.708 284.511L458.992 284.996L453.457 288.232L453.173 287.747L447.638 290.984L447.922 291.469L442.387 294.705L442.104 294.22L436.569 297.456L436.852 297.942L431.317 301.178L431.034 300.693L425.499 303.929L425.783 304.414L420.248 307.651L419.964 307.166L414.429 310.402L414.713 310.887L409.178 314.123L408.894 313.638L403.359 316.875L403.643 317.36L398.108 320.596L397.825 320.111L392.29 323.347L392.573 323.833L387.038 327.069L386.755 326.584L383.987 328.202C383.406 328.542 382.679 328.503 382.137 328.104L379.406 326.092L379.073 326.545L373.613 322.521L373.946 322.069L368.486 318.045L368.152 318.498L362.692 314.475L363.026 314.022L357.565 309.999L357.232 310.451L351.772 306.428L352.105 305.975L346.645 301.952L346.311 302.404L340.851 298.381L341.184 297.929L335.724 293.905L335.391 294.358L329.93 290.334L330.264 289.882L324.803 285.859L324.47 286.311L319.01 282.288L319.343 281.835L313.883 277.812L313.55 278.264L308.089 274.241L308.423 273.789L305.692 271.777Z" stroke="#9777E0" stroke-width="1.12383" stroke-dasharray="6.74 6.74"/>
<path d="M375.513 268.667L391.557 280.7" stroke="#9777E0" stroke-width="1.12383" stroke-linecap="round" stroke-linejoin="round"/>
<path d="M392.134 269.524L374.937 279.842" stroke="#9777E0" stroke-width="1.12383" stroke-linecap="round" stroke-linejoin="round"/>
<path d="M128.127 258.274C127.156 257.565 127.219 256.095 128.247 255.472L127.955 254.991L128.247 255.472L130.975 253.816L130.683 253.336L136.139 250.025L136.43 250.506L141.886 247.195L141.594 246.715L147.05 243.404L147.341 243.885L152.797 240.574L152.505 240.094L157.961 236.783L158.252 237.264L163.708 233.953L163.416 233.473L168.872 230.162L169.163 230.642L174.618 227.332L174.327 226.852L179.782 223.541L180.074 224.021L185.529 220.711L185.238 220.23L190.693 216.92L190.985 217.4L196.44 214.09L196.149 213.609L201.604 210.299L201.896 210.779L204.624 209.124C205.214 208.766 205.962 208.804 206.513 209.219L209.285 211.31L209.623 210.861L215.166 215.042L214.828 215.491L220.371 219.672L220.709 219.223L226.252 223.404L225.914 223.852L231.457 228.033L231.795 227.585L237.339 231.766L237 232.214L242.543 236.395L242.882 235.947L248.425 240.128L248.086 240.576L253.629 244.757L253.968 244.309L259.511 248.489L259.172 248.938L264.716 253.119L265.054 252.67L270.597 256.851L270.259 257.3L275.802 261.481L276.14 261.032L281.683 265.213L281.345 265.662L284.116 267.752C285.07 268.472 284.994 269.927 283.97 270.543L281.28 272.16L281.57 272.641L276.191 275.876L275.901 275.394L270.523 278.628L270.812 279.11L265.433 282.344L265.144 281.862L259.765 285.097L260.054 285.578L254.675 288.812L254.386 288.331L249.007 291.565L249.297 292.046L243.918 295.281L243.628 294.799L238.249 298.033L238.539 298.515L233.16 301.749L232.87 301.267L227.491 304.502L227.781 304.983L222.402 308.217L222.112 307.736L216.734 310.97L217.023 311.451L211.644 314.686L211.355 314.204L208.665 315.821C208.084 316.171 207.35 316.138 206.802 315.738L203.992 313.685L203.661 314.139L198.041 310.035L198.373 309.581L192.753 305.476L192.422 305.93L186.802 301.826L187.133 301.372L181.514 297.267L181.182 297.721L175.563 293.616L175.894 293.163L170.275 289.058L169.943 289.512L164.323 285.407L164.655 284.954L159.035 280.849L158.704 281.303L153.084 277.198L153.416 276.744L147.796 272.64L147.465 273.094L141.845 268.989L142.176 268.535L136.557 264.431L136.225 264.885L130.606 260.78L130.937 260.326L128.127 258.274Z" stroke="#9777E0" stroke-width="1.12383" stroke-dasharray="6.74 6.74"/>
<path d="M196.824 257.428L212.868 269.461" stroke="#9777E0" stroke-width="1.12383" stroke-linecap="round" stroke-linejoin="round"/>
<path d="M213.444 258.286L196.247 268.604" stroke="#9777E0" stroke-width="1.12383" stroke-linecap="round" stroke-linejoin="round"/>
<path d="M-48.3918 244.814C-49.3395 244.092 -49.2601 242.642 -48.2391 242.028L-45.5502 240.411L-45.8397 239.93L-40.4618 236.696L-40.1723 237.178L-34.7943 233.944L-35.0839 233.463L-29.706 230.229L-29.4164 230.711L-24.0385 227.477L-24.3281 226.995L-18.9501 223.762L-18.6606 224.243L-13.2827 221.01L-13.5722 220.528L-8.1943 217.295L-7.90475 217.776L-2.52683 214.543L-2.81638 214.061L2.56153 210.828L2.85109 211.309L8.22901 208.076L7.93945 207.594L13.3174 204.36L13.6069 204.842L18.9848 201.608L18.6953 201.127L24.0732 197.893L24.3628 198.375L27.0517 196.758C27.6434 196.402 28.3923 196.443 28.9417 196.862L31.6338 198.912L31.9743 198.465L37.3586 202.565L37.0182 203.012L42.4026 207.112L42.743 206.665L48.1274 210.765L47.787 211.212L53.1713 215.312L53.5118 214.865L58.8961 218.965L58.5557 219.412L63.9401 223.512L64.2805 223.065L69.6649 227.165L69.3245 227.612L74.7088 231.712L75.0493 231.265L80.4336 235.365L80.0932 235.812L85.4776 239.912L85.818 239.465L91.2024 243.565L90.862 244.012L96.2463 248.112L96.5867 247.665L101.971 251.765L101.631 252.212L104.323 254.262C105.271 254.984 105.191 256.434 104.17 257.048L101.481 258.665L101.771 259.147L96.3929 262.38L96.1034 261.899L90.7255 265.132L91.015 265.614L85.6371 268.847L85.3476 268.366L79.9696 271.599L80.2592 272.081L74.8813 275.315L74.5917 274.833L69.2138 278.067L69.5034 278.548L64.1254 281.782L63.8359 281.3L58.458 284.534L58.7475 285.015L53.3696 288.249L53.08 287.767L47.7021 291.001L47.9917 291.482L42.6138 294.716L42.3242 294.234L36.9463 297.468L37.2358 297.95L31.8579 301.183L31.5684 300.702L28.8794 302.318C28.2877 302.674 27.5388 302.633 26.9895 302.215L24.2973 300.165L23.9569 300.612L18.5725 296.512L18.9129 296.065L13.5286 291.965L13.1881 292.412L7.80376 288.312L8.14418 287.865L2.75981 283.764L2.41938 284.212L-2.965 280.111L-2.62457 279.664L-8.00895 275.564L-8.34937 276.011L-13.7337 271.911L-13.3933 271.464L-18.7777 267.364L-19.1181 267.811L-24.5025 263.711L-24.1621 263.264L-29.5464 259.164L-29.8869 259.611L-35.2712 255.511L-34.9308 255.064L-40.3152 250.964L-40.6556 251.411L-46.04 247.311L-45.6996 246.864L-48.3918 244.814Z" stroke="#9777E0" stroke-width="1.12383" stroke-dasharray="6.74 6.74"/>
<path d="M20.3816 242.818L36.4256 254.851" stroke="#9777E0" stroke-width="1.12383" stroke-linecap="round" stroke-linejoin="round"/>
<path d="M37.002 243.676L19.8049 253.994" stroke="#9777E0" stroke-width="1.12383" stroke-linecap="round" stroke-linejoin="round"/>
<path d="M489.466 532.619C488.519 531.897 488.598 530.447 489.619 529.833L492.308 528.216L492.018 527.735L497.396 524.501L497.686 524.983L503.064 521.749L502.774 521.267L508.152 518.034L508.442 518.515L513.82 515.282L513.53 514.8L518.908 511.567L519.198 512.048L524.575 508.815L524.286 508.333L529.664 505.1L529.953 505.581L535.331 502.348L535.042 501.866L540.42 498.632L540.709 499.114L546.087 495.88L545.798 495.399L551.176 492.165L551.465 492.647L556.843 489.413L556.553 488.932L561.931 485.698L562.221 486.18L564.91 484.563C565.502 484.207 566.25 484.248 566.8 484.666L569.492 486.717L569.832 486.269L575.217 490.37L574.876 490.817L580.261 494.917L580.601 494.47L585.986 498.57L585.645 499.017L591.029 503.117L591.37 502.67L596.754 506.77L596.414 507.217L601.798 511.317L602.139 510.87L607.523 514.97L607.183 515.417L612.567 519.517L612.907 519.07L618.292 523.17L617.951 523.617L623.336 527.717L623.676 527.27L629.061 531.37L628.72 531.817L634.104 535.917L634.445 535.47L639.829 539.57L639.489 540.017L642.181 542.067C643.129 542.789 643.049 544.239 642.028 544.853L639.339 546.47L639.629 546.952L634.251 550.185L633.962 549.704L628.584 552.937L628.873 553.419L623.495 556.652L623.206 556.171L617.828 559.404L618.117 559.886L612.739 563.119L612.45 562.638L607.072 565.871L607.362 566.353L601.984 569.587L601.694 569.105L596.316 572.339L596.606 572.82L591.228 576.054L590.938 575.572L585.56 578.806L585.85 579.287L580.472 582.521L580.182 582.039L574.804 585.273L575.094 585.754L569.716 588.988L569.427 588.506L566.738 590.123C566.146 590.479 565.397 590.438 564.848 590.02L562.155 587.97L561.815 588.417L556.431 584.317L556.771 583.87L551.387 579.77L551.046 580.217L545.662 576.117L546.002 575.669L540.618 571.569L540.278 572.016L534.893 567.916L535.234 567.469L529.849 563.369L529.509 563.816L524.124 559.716L524.465 559.269L519.08 555.169L518.74 555.616L513.356 551.516L513.696 551.069L508.312 546.969L507.971 547.416L502.587 543.316L502.927 542.869L497.543 538.769L497.203 539.216L491.818 535.116L492.159 534.669L489.466 532.619Z" stroke="#9777E0" stroke-width="1.12383" stroke-dasharray="6.74 6.74"/>
<path d="M558.24 530.623L574.284 542.656" stroke="#9777E0" stroke-width="1.12383" stroke-linecap="round" stroke-linejoin="round"/>
<path d="M574.86 531.481L557.663 541.799" stroke="#9777E0" stroke-width="1.12383" stroke-linecap="round" stroke-linejoin="round"/>
<path d="M127.003 139.164C126.033 138.45 126.104 136.979 127.137 136.361L129.905 134.705L129.616 134.222L135.151 130.91L135.44 131.392L140.975 128.079L140.686 127.597L146.221 124.285L146.51 124.767L152.045 121.454L151.756 120.972L157.291 117.659L157.58 118.141L163.115 114.829L162.826 114.347L168.361 111.034L168.65 111.516L174.185 108.204L173.896 107.721L179.431 104.409L179.72 104.891L185.255 101.578L184.966 101.096L190.501 97.7836L190.79 98.2658L196.325 94.9532L196.036 94.471L201.571 91.1584L201.86 91.6405L204.628 89.9842C205.215 89.6324 205.958 89.6713 206.505 90.0827L209.235 92.1325L209.573 91.6831L215.033 95.7827L214.696 96.2321L220.156 100.332L220.493 99.8823L225.953 103.982L225.616 104.431L231.076 108.531L231.413 108.081L236.873 112.181L236.536 112.63L241.996 116.73L242.334 116.281L247.794 120.38L247.456 120.83L252.917 124.929L253.254 124.48L258.714 128.579L258.377 129.029L263.837 133.128L264.174 132.679L269.634 136.779L269.297 137.228L274.757 141.328L275.094 140.878L280.555 144.978L280.217 145.427L282.947 147.477C283.911 148.201 283.826 149.672 282.786 150.28L280.019 151.899L280.302 152.384L274.767 155.62L274.484 155.135L268.949 158.371L269.232 158.856L263.698 162.093L263.414 161.608L257.879 164.844L258.163 165.329L252.628 168.565L252.344 168.08L246.809 171.317L247.093 171.802L241.558 175.038L241.274 174.553L235.74 177.79L236.023 178.275L230.488 181.511L230.205 181.026L224.67 184.262L224.953 184.747L219.419 187.984L219.135 187.499L213.6 190.735L213.884 191.22L208.349 194.456L208.065 193.971L205.298 195.59C204.717 195.929 203.989 195.891 203.447 195.491L200.717 193.48L200.383 193.932L194.923 189.909L195.256 189.456L189.796 185.433L189.463 185.885L184.002 181.862L184.336 181.41L178.876 177.386L178.542 177.839L173.082 173.815L173.415 173.363L167.955 169.34L167.622 169.792L162.161 165.769L162.495 165.316L157.034 161.293L156.701 161.745L151.241 157.722L151.574 157.27L146.114 153.246L145.78 153.699L140.32 149.675L140.653 149.223L135.193 145.2L134.86 145.652L129.4 141.629L129.733 141.176L127.003 139.164Z" stroke="#9777E0" stroke-width="1.12383" stroke-dasharray="6.74 6.74"/>
<path d="M195.7 137.178L211.744 149.211" stroke="#9777E0" stroke-width="1.12383" stroke-linecap="round" stroke-linejoin="round"/>
<path d="M212.32 138.035L195.123 148.354" stroke="#9777E0" stroke-width="1.12383" stroke-linecap="round" stroke-linejoin="round"/>
<path d="M307.929 151.529C306.963 150.813 307.035 149.345 308.067 148.727L310.835 147.071L310.546 146.589L316.083 143.275L316.371 143.757L321.907 140.444L321.619 139.962L327.155 136.649L327.444 137.131L332.98 133.817L332.691 133.335L338.228 130.022L338.516 130.504L344.052 127.191L343.764 126.709L349.3 123.395L349.589 123.878L355.125 120.564L354.836 120.082L360.372 116.769L360.661 117.251L366.197 113.938L365.909 113.455L371.445 110.142L371.734 110.624L377.27 107.311L376.981 106.829L382.517 103.515L382.806 103.998L385.574 102.341C386.158 101.991 386.896 102.027 387.443 102.433L390.213 104.484L390.548 104.032L396.088 108.135L395.754 108.586L401.294 112.689L401.628 112.237L407.169 116.34L406.834 116.791L412.375 120.894L412.709 120.442L418.249 124.545L417.915 124.996L423.455 129.099L423.79 128.647L429.33 132.75L428.996 133.201L434.536 137.304L434.871 136.852L440.411 140.954L440.077 141.406L445.617 145.509L445.951 145.057L451.492 149.159L451.157 149.611L456.698 153.714L457.032 153.262L462.572 157.364L462.238 157.816L465.008 159.867C465.975 160.583 465.903 162.051 464.871 162.668L462.103 164.325L462.391 164.807L456.855 168.121L456.566 167.638L451.03 170.952L451.319 171.434L445.783 174.747L445.494 174.265L439.958 177.578L440.246 178.061L434.71 181.374L434.422 180.892L428.885 184.205L429.174 184.687L423.638 188.001L423.349 187.518L417.813 190.832L418.101 191.314L412.565 194.627L412.277 194.145L406.74 197.458L407.029 197.941L401.493 201.254L401.204 200.772L395.668 204.085L395.957 204.567L390.42 207.881L390.132 207.398L387.364 209.055C386.779 209.405 386.042 209.369 385.495 208.963L382.725 206.912L382.39 207.364L376.85 203.261L377.184 202.81L371.644 198.707L371.309 199.159L365.769 195.056L366.103 194.605L360.563 190.502L360.229 190.954L354.688 186.851L355.023 186.4L349.482 182.297L349.148 182.749L343.608 178.646L343.942 178.195L338.402 174.092L338.067 174.544L332.527 170.441L332.861 169.99L327.321 165.887L326.986 166.339L321.446 162.237L321.78 161.785L316.24 157.682L315.906 158.134L310.365 154.032L310.7 153.58L307.929 151.529Z" stroke="#9777E0" stroke-width="1.12383" stroke-dasharray="6.74 6.74"/>
<path d="M375.513 149.54L391.557 161.573" stroke="#9777E0" stroke-width="1.12383" stroke-linecap="round" stroke-linejoin="round"/>
<path d="M392.134 150.397L374.937 160.716" stroke="#9777E0" stroke-width="1.12383" stroke-linecap="round" stroke-linejoin="round"/>
<path d="M-51.7431 365.06C-52.6968 364.341 -52.6204 362.885 -51.5967 362.27L-48.9075 360.653L-49.1971 360.171L-43.8188 356.938L-43.5293 357.419L-38.151 354.185L-38.4406 353.704L-33.0623 350.47L-32.7728 350.952L-27.3945 347.718L-27.6841 347.236L-22.3058 344.003L-22.0163 344.484L-16.638 341.25L-16.9275 340.769L-11.5493 337.535L-11.2597 338.017L-5.88147 334.783L-6.17103 334.301L-0.79277 331.067L-0.50322 331.549L4.87504 328.315L4.58549 327.834L9.96375 324.6L10.2533 325.082L15.6316 321.848L15.342 321.366L20.7203 318.132L21.0098 318.614L23.6989 316.997C24.2836 316.646 25.0225 316.681 25.5708 317.087L28.3421 319.139L28.6765 318.688L34.2193 322.792L33.8849 323.243L39.4277 327.348L39.762 326.896L45.3048 331L44.9704 331.452L50.5132 335.556L50.8476 335.104L56.3903 339.209L56.0559 339.66L61.5987 343.765L61.9331 343.313L67.4758 347.417L67.1414 347.869L72.6842 351.973L73.0186 351.521L78.5613 355.626L78.227 356.077L83.7697 360.181L84.1041 359.73L89.6469 363.834L89.3125 364.286L94.8552 368.39L95.1896 367.938L100.732 372.043L100.398 372.494L103.169 374.546C104.129 375.257 104.066 376.711 103.05 377.337L100.36 378.992L100.655 379.47L95.2765 382.78L94.9819 382.302L89.6034 385.612L89.8979 386.09L84.5194 389.4L84.2249 388.922L78.8464 392.232L79.1409 392.71L73.7624 396.02L73.4679 395.542L68.0893 398.852L68.3838 399.33L63.0053 402.641L62.7108 402.162L57.3323 405.472L57.6268 405.951L52.2483 409.261L51.9538 408.782L46.5752 412.092L46.8698 412.571L41.4912 415.881L41.1967 415.402L35.8182 418.712L36.1127 419.191L30.7342 422.501L30.4397 422.022L27.7504 423.677C27.1594 424.041 26.4058 424.005 25.8518 423.587L23.0805 421.497L22.7421 421.946L17.1997 417.765L17.538 417.317L11.9955 413.136L11.6572 413.585L6.11467 409.404L6.45304 408.956L0.910553 404.775L0.572178 405.224L-4.97031 401.043L-4.63194 400.595L-10.1744 396.414L-10.5128 396.863L-16.0553 392.682L-15.7169 392.234L-21.2594 388.053L-21.5978 388.502L-27.1403 384.321L-26.8019 383.873L-32.3444 379.692L-32.6828 380.141L-38.2253 375.96L-37.8869 375.512L-43.4294 371.331L-43.7678 371.78L-49.3103 367.599L-48.9719 367.151L-51.7431 365.06Z" stroke="#9777E0" stroke-width="1.12383" stroke-dasharray="6.74 6.74"/>
<path d="M18.134 361.945L34.1781 373.978" stroke="#9777E0" stroke-width="1.12383" stroke-linecap="round" stroke-linejoin="round"/>
<path d="M34.7544 362.802L17.5573 373.121" stroke="#9777E0" stroke-width="1.12383" stroke-linecap="round" stroke-linejoin="round"/>
<path d="M126.986 499.913C126.021 499.198 126.091 497.732 127.121 497.114L129.809 495.497L129.519 495.016L134.896 491.783L135.185 492.265L140.561 489.032L140.272 488.55L145.648 485.318L145.938 485.799L151.314 482.567L151.024 482.085L156.401 478.853L156.69 479.334L162.067 476.102L161.777 475.62L167.153 472.387L167.443 472.869L172.819 469.636L172.53 469.155L177.906 465.922L178.196 466.404L183.572 463.171L183.282 462.69L188.659 459.457L188.948 459.939L194.324 456.706L194.035 456.225L199.411 452.992L199.701 453.473L202.389 451.857C202.974 451.506 203.712 451.541 204.261 451.947L207.031 453.998L207.365 453.547L212.906 457.65L212.572 458.101L218.112 462.204L218.447 461.752L223.987 465.855L223.653 466.306L229.193 470.409L229.528 469.957L235.068 474.06L234.734 474.512L240.275 478.614L240.609 478.163L246.15 482.265L245.815 482.717L251.356 486.82L251.69 486.368L257.231 490.471L256.897 490.922L262.437 495.025L262.772 494.573L268.312 498.676L267.978 499.128L273.518 503.23L273.853 502.779L279.393 506.881L279.059 507.333L281.829 509.384C282.795 510.099 282.724 511.565 281.695 512.184L279.007 513.8L279.296 514.282L273.92 517.514L273.63 517.033L268.254 520.265L268.544 520.747L263.167 523.979L262.878 523.498L257.501 526.73L257.791 527.212L252.415 530.445L252.125 529.963L246.749 533.196L247.038 533.677L241.662 536.91L241.373 536.428L235.996 539.661L236.286 540.142L230.91 543.375L230.62 542.893L225.244 546.126L225.533 546.608L220.157 549.84L219.867 549.359L214.491 552.591L214.781 553.073L209.404 556.305L209.115 555.824L206.427 557.44C205.842 557.792 205.103 557.756 204.555 557.35L201.785 555.299L201.45 555.75L195.91 551.648L196.244 551.196L190.703 547.094L190.369 547.545L184.828 543.442L185.163 542.991L179.622 538.888L179.288 539.34L173.747 535.237L174.081 534.786L168.541 530.683L168.206 531.135L162.666 527.032L163 526.58L157.46 522.478L157.125 522.929L151.585 518.827L151.919 518.375L146.378 514.272L146.044 514.724L140.503 510.621L140.838 510.17L135.297 506.067L134.963 506.519L129.422 502.416L129.756 501.964L126.986 499.913Z" stroke="#9777E0" stroke-width="1.12383" stroke-dasharray="6.74 6.74"/>
<path d="M197.948 497.929L213.992 509.962" stroke="#9777E0" stroke-width="1.12383" stroke-linecap="round" stroke-linejoin="round"/>
<path d="M214.568 498.786L197.371 509.104" stroke="#9777E0" stroke-width="1.12383" stroke-linecap="round" stroke-linejoin="round"/>
<path d="M307.923 515.647C306.958 514.932 307.029 513.466 308.058 512.847L310.746 511.231L310.456 510.75L315.832 507.518L316.121 507.999L321.496 504.767L321.207 504.286L326.582 501.054L326.872 501.535L332.247 498.303L331.958 497.821L337.333 494.589L337.623 495.071L342.998 491.839L342.709 491.357L348.084 488.125L348.374 488.607L353.749 485.375L353.459 484.893L358.835 481.661L359.124 482.143L364.5 478.911L364.21 478.429L369.586 475.197L369.875 475.679L375.251 472.446L374.961 471.965L380.337 468.733L380.626 469.214L383.314 467.598C383.903 467.244 384.649 467.283 385.198 467.697L387.968 469.787L388.307 469.338L393.848 473.518L393.509 473.967L399.051 478.146L399.389 477.698L404.93 481.877L404.592 482.326L410.133 486.505L410.472 486.057L416.013 490.236L415.675 490.685L421.216 494.865L421.554 494.416L427.096 498.596L426.757 499.044L432.299 503.224L432.637 502.775L438.178 506.955L437.84 507.403L443.381 511.583L443.72 511.134L449.261 515.314L448.923 515.763L454.464 519.942L454.802 519.494L460.343 523.673L460.005 524.122L462.776 526.212C463.735 526.935 463.651 528.402 462.614 529.011L459.479 530.852L459.763 531.337L453.492 535.018L453.208 534.534L446.937 538.216L447.221 538.7L440.95 542.382L440.666 541.897L434.395 545.579L434.679 546.064L428.408 549.746L428.124 549.261L421.853 552.943L422.137 553.427L415.866 557.109L415.582 556.625L409.311 560.307L409.595 560.791L403.324 564.473L403.04 563.988L396.769 567.67L397.053 568.155L390.782 571.837L390.498 571.352L387.362 573.193C386.78 573.535 386.049 573.496 385.506 573.094L382.735 571.042L382.401 571.494L376.859 567.391L377.193 566.939L371.652 562.836L371.317 563.287L365.776 559.184L366.11 558.732L360.569 554.629L360.234 555.08L354.693 550.977L355.027 550.525L349.485 546.422L349.151 546.874L343.609 542.77L343.944 542.319L338.402 538.215L338.068 538.667L332.526 534.564L332.861 534.112L327.319 530.009L326.985 530.46L321.443 526.357L321.777 525.905L316.236 521.802L315.901 522.253L310.36 518.15L310.694 517.698L307.923 515.647Z" stroke="#9777E0" stroke-width="1.12383" stroke-dasharray="6.74 6.74"/>
<path d="M375.513 512.539L391.557 524.572" stroke="#9777E0" stroke-width="1.12383" stroke-linecap="round" stroke-linejoin="round"/>
<path d="M392.134 513.396L374.937 523.714" stroke="#9777E0" stroke-width="1.12383" stroke-linecap="round" stroke-linejoin="round"/>
<ellipse cx="296" cy="330" rx="360" ry="368" fill="url(#paint46_radial_1766_43053)"/>
</g>
<defs>
<filter id="filter0_b_1766_43053" x="217.645" y="270.041" width="156.488" height="117.765" filterUnits="userSpaceOnUse" color-interpolation-filters="sRGB">
<feFlood flood-opacity="0" result="BackgroundImageFix"/>
<feGaussianBlur in="BackgroundImageFix" stdDeviation="7.86684"/>
<feComposite in2="SourceAlpha" operator="in" result="effect1_backgroundBlur_1766_43053"/>
<feBlend mode="normal" in="SourceGraphic" in2="effect1_backgroundBlur_1766_43053" result="shape"/>
</filter>
<filter id="filter1_b_1766_43053" x="216.139" y="391.458" width="157.501" height="116.229" filterUnits="userSpaceOnUse" color-interpolation-filters="sRGB">
<feFlood flood-opacity="0" result="BackgroundImageFix"/>
<feGaussianBlur in="BackgroundImageFix" stdDeviation="7.86684"/>
<feComposite in2="SourceAlpha" operator="in" result="effect1_backgroundBlur_1766_43053"/>
<feBlend mode="normal" in="SourceGraphic" in2="effect1_backgroundBlur_1766_43053" result="shape"/>
</filter>
<filter id="filter2_b_1766_43053" x="37.4494" y="256.614" width="157.501" height="116.229" filterUnits="userSpaceOnUse" color-interpolation-filters="sRGB">
<feFlood flood-opacity="0" result="BackgroundImageFix"/>
<feGaussianBlur in="BackgroundImageFix" stdDeviation="7.86684"/>
<feComposite in2="SourceAlpha" operator="in" result="effect1_backgroundBlur_1766_43053"/>
<feBlend mode="normal" in="SourceGraphic" in2="effect1_backgroundBlur_1766_43053" result="shape"/>
</filter>
<filter id="filter3_b_1766_43053" x="578.576" y="173.554" width="157.501" height="116.229" filterUnits="userSpaceOnUse" color-interpolation-filters="sRGB">
<feFlood flood-opacity="0" result="BackgroundImageFix"/>
<feGaussianBlur in="BackgroundImageFix" stdDeviation="7.86684"/>
<feComposite in2="SourceAlpha" operator="in" result="effect1_backgroundBlur_1766_43053"/>
<feBlend mode="normal" in="SourceGraphic" in2="effect1_backgroundBlur_1766_43053" result="shape"/>
</filter>
<filter id="filter4_b_1766_43053" x="35.2019" y="376.864" width="157.501" height="116.229" filterUnits="userSpaceOnUse" color-interpolation-filters="sRGB">
<feFlood flood-opacity="0" result="BackgroundImageFix"/>
<feGaussianBlur in="BackgroundImageFix" stdDeviation="7.86684"/>
<feComposite in2="SourceAlpha" operator="in" result="effect1_backgroundBlur_1766_43053"/>
<feBlend mode="normal" in="SourceGraphic" in2="effect1_backgroundBlur_1766_43053" result="shape"/>
</filter>
<filter id="filter5_b_1766_43053" x="217.263" y="148.726" width="157.501" height="116.229" filterUnits="userSpaceOnUse" color-interpolation-filters="sRGB">
<feFlood flood-opacity="0" result="BackgroundImageFix"/>
<feGaussianBlur in="BackgroundImageFix" stdDeviation="7.86684"/>
<feComposite in2="SourceAlpha" operator="in" result="effect1_backgroundBlur_1766_43053"/>
<feBlend mode="normal" in="SourceGraphic" in2="effect1_backgroundBlur_1766_43053" result="shape"/>
</filter>
<filter id="filter6_b_1766_43053" x="573.519" y="299.32" width="157.501" height="116.229" filterUnits="userSpaceOnUse" color-interpolation-filters="sRGB">
<feFlood flood-opacity="0" result="BackgroundImageFix"/>
<feGaussianBlur in="BackgroundImageFix" stdDeviation="7.86684"/>
<feComposite in2="SourceAlpha" operator="in" result="effect1_backgroundBlur_1766_43053"/>
<feBlend mode="normal" in="SourceGraphic" in2="effect1_backgroundBlur_1766_43053" result="shape"/>
</filter>
<filter id="filter7_b_1766_43053" x="394.37" y="531.953" width="157.501" height="116.229" filterUnits="userSpaceOnUse" color-interpolation-filters="sRGB">
<feFlood flood-opacity="0" result="BackgroundImageFix"/>
<feGaussianBlur in="BackgroundImageFix" stdDeviation="7.86684"/>
<feComposite in2="SourceAlpha" operator="in" result="effect1_backgroundBlur_1766_43053"/>
<feBlend mode="normal" in="SourceGraphic" in2="effect1_backgroundBlur_1766_43053" result="shape"/>
</filter>
<filter id="filter8_d_1766_43053" x="412" y="549" width="121.468" height="85.0719" filterUnits="userSpaceOnUse" color-interpolation-filters="sRGB">
<feFlood flood-opacity="0" result="BackgroundImageFix"/>
<feColorMatrix in="SourceAlpha" type="matrix" values="0 0 0 0 0 0 0 0 0 0 0 0 0 0 0 0 0 0 127 0" result="hardAlpha"/>
<feOffset dy="1"/>
<feGaussianBlur stdDeviation="1"/>
<feColorMatrix type="matrix" values="0 0 0 0 0.0627451 0 0 0 0 0.0941176 0 0 0 0 0.156863 0 0 0 0.05 0"/>
<feBlend mode="normal" in2="BackgroundImageFix" result="effect1_dropShadow_1766_43053"/>
<feBlend mode="normal" in="SourceGraphic" in2="effect1_dropShadow_1766_43053" result="shape"/>
</filter>
<filter id="filter9_b_1766_43053" x="217.263" y="30.7232" width="157.501" height="116.229" filterUnits="userSpaceOnUse" color-interpolation-filters="sRGB">
<feFlood flood-opacity="0" result="BackgroundImageFix"/>
<feGaussianBlur in="BackgroundImageFix" stdDeviation="7.86684"/>
<feComposite in2="SourceAlpha" operator="in" result="effect1_backgroundBlur_1766_43053"/>
<feBlend mode="normal" in="SourceGraphic" in2="effect1_backgroundBlur_1766_43053" result="shape"/>
</filter>
<filter id="filter10_b_1766_43053" x="29.5827" y="502.734" width="157.501" height="116.229" filterUnits="userSpaceOnUse" color-interpolation-filters="sRGB">
<feFlood flood-opacity="0" result="BackgroundImageFix"/>
<feGaussianBlur in="BackgroundImageFix" stdDeviation="7.86684"/>
<feComposite in2="SourceAlpha" operator="in" result="effect1_backgroundBlur_1766_43053"/>
<feBlend mode="normal" in="SourceGraphic" in2="effect1_backgroundBlur_1766_43053" result="shape"/>
</filter>
<filter id="filter11_b_1766_43053" x="216.139" y="512.848" width="157.501" height="116.229" filterUnits="userSpaceOnUse" color-interpolation-filters="sRGB">
<feFlood flood-opacity="0" result="BackgroundImageFix"/>
<feGaussianBlur in="BackgroundImageFix" stdDeviation="7.86684"/>
<feComposite in2="SourceAlpha" operator="in" result="effect1_backgroundBlur_1766_43053"/>
<feBlend mode="normal" in="SourceGraphic" in2="effect1_backgroundBlur_1766_43053" result="shape"/>
</filter>
<filter id="filter12_d_1766_43053" x="234" y="530" width="121.468" height="85.0719" filterUnits="userSpaceOnUse" color-interpolation-filters="sRGB">
<feFlood flood-opacity="0" result="BackgroundImageFix"/>
<feColorMatrix in="SourceAlpha" type="matrix" values="0 0 0 0 0 0 0 0 0 0 0 0 0 0 0 0 0 0 127 0" result="hardAlpha"/>
<feOffset dy="1"/>
<feGaussianBlur stdDeviation="1"/>
<feColorMatrix type="matrix" values="0 0 0 0 0.0627451 0 0 0 0 0.0941176 0 0 0 0 0.156863 0 0 0 0.05 0"/>
<feBlend mode="normal" in2="BackgroundImageFix" result="effect1_dropShadow_1766_43053"/>
<feBlend mode="normal" in="SourceGraphic" in2="effect1_dropShadow_1766_43053" result="shape"/>
</filter>
<filter id="filter13_b_1766_43053" x="-140.117" y="244.252" width="157.501" height="116.229" filterUnits="userSpaceOnUse" color-interpolation-filters="sRGB">
<feFlood flood-opacity="0" result="BackgroundImageFix"/>
<feGaussianBlur in="BackgroundImageFix" stdDeviation="7.86684"/>
<feComposite in2="SourceAlpha" operator="in" result="effect1_backgroundBlur_1766_43053"/>
<feBlend mode="normal" in="SourceGraphic" in2="effect1_backgroundBlur_1766_43053" result="shape"/>
</filter>
<filter id="filter14_b_1766_43053" x="575.308" y="424.169" width="157.501" height="116.229" filterUnits="userSpaceOnUse" color-interpolation-filters="sRGB">
<feFlood flood-opacity="0" result="BackgroundImageFix"/>
<feGaussianBlur in="BackgroundImageFix" stdDeviation="7.86684"/>
<feComposite in2="SourceAlpha" operator="in" result="effect1_backgroundBlur_1766_43053"/>
<feBlend mode="normal" in="SourceGraphic" in2="effect1_backgroundBlur_1766_43053" result="shape"/>
</filter>
<filter id="filter15_b_1766_43053" x="394.829" y="407.208" width="157.501" height="116.229" filterUnits="userSpaceOnUse" color-interpolation-filters="sRGB">
<feFlood flood-opacity="0" result="BackgroundImageFix"/>
<feGaussianBlur in="BackgroundImageFix" stdDeviation="7.86684"/>
<feComposite in2="SourceAlpha" operator="in" result="effect1_backgroundBlur_1766_43053"/>
<feBlend mode="normal" in="SourceGraphic" in2="effect1_backgroundBlur_1766_43053" result="shape"/>
</filter>
<filter id="filter16_b_1766_43053" x="394.829" y="162.212" width="157.501" height="116.229" filterUnits="userSpaceOnUse" color-interpolation-filters="sRGB">
<feFlood flood-opacity="0" result="BackgroundImageFix"/>
<feGaussianBlur in="BackgroundImageFix" stdDeviation="7.86684"/>
<feComposite in2="SourceAlpha" operator="in" result="effect1_backgroundBlur_1766_43053"/>
<feBlend mode="normal" in="SourceGraphic" in2="effect1_backgroundBlur_1766_43053" result="shape"/>
</filter>
<filter id="filter17_d_1766_43053" x="413" y="179" width="121.468" height="85.0719" filterUnits="userSpaceOnUse" color-interpolation-filters="sRGB">
<feFlood flood-opacity="0" result="BackgroundImageFix"/>
<feColorMatrix in="SourceAlpha" type="matrix" values="0 0 0 0 0 0 0 0 0 0 0 0 0 0 0 0 0 0 127 0" result="hardAlpha"/>
<feOffset dy="1"/>
<feGaussianBlur stdDeviation="1"/>
<feColorMatrix type="matrix" values="0 0 0 0 0.0627451 0 0 0 0 0.0941176 0 0 0 0 0.156863 0 0 0 0.05 0"/>
<feBlend mode="normal" in2="BackgroundImageFix" result="effect1_dropShadow_1766_43053"/>
<feBlend mode="normal" in="SourceGraphic" in2="effect1_dropShadow_1766_43053" result="shape"/>
</filter>
<filter id="filter18_b_1766_43053" x="394.829" y="283.586" width="157.501" height="116.229" filterUnits="userSpaceOnUse" color-interpolation-filters="sRGB">
<feFlood flood-opacity="0" result="BackgroundImageFix"/>
<feGaussianBlur in="BackgroundImageFix" stdDeviation="7.86684"/>
<feComposite in2="SourceAlpha" operator="in" result="effect1_backgroundBlur_1766_43053"/>
<feBlend mode="normal" in="SourceGraphic" in2="effect1_backgroundBlur_1766_43053" result="shape"/>
</filter>
<filter id="filter19_b_1766_43053" x="399.989" y="36.4455" width="157.501" height="116.229" filterUnits="userSpaceOnUse" color-interpolation-filters="sRGB">
<feFlood flood-opacity="0" result="BackgroundImageFix"/>
<feGaussianBlur in="BackgroundImageFix" stdDeviation="7.86684"/>
<feComposite in2="SourceAlpha" operator="in" result="effect1_backgroundBlur_1766_43053"/>
<feBlend mode="normal" in="SourceGraphic" in2="effect1_backgroundBlur_1766_43053" result="shape"/>
</filter>
<linearGradient id="paint0_linear_1766_43053" x1="9.09242" y1="-9.50489" x2="87.7927" y2="39.6942" gradientUnits="userSpaceOnUse">
<stop stop-color="#EEE6FF"/>
<stop offset="1" stop-color="#E1D1FF"/>
</linearGradient>
<linearGradient id="paint1_linear_1766_43053" x1="9.26086" y1="15.6142" x2="75.7993" y2="56.0507" gradientUnits="userSpaceOnUse">
<stop stop-color="#DCCBFF"/>
<stop offset="1" stop-color="#C6A9FF"/>
</linearGradient>
<linearGradient id="paint2_linear_1766_43053" x1="9.09242" y1="-9.50489" x2="87.7927" y2="39.6942" gradientUnits="userSpaceOnUse">
<stop stop-color="#EEE6FF"/>
<stop offset="1" stop-color="#E1D1FF"/>
</linearGradient>
<linearGradient id="paint3_linear_1766_43053" x1="9.26086" y1="15.6142" x2="75.7993" y2="56.0507" gradientUnits="userSpaceOnUse">
<stop stop-color="#DCCBFF"/>
<stop offset="1" stop-color="#C6A9FF"/>
</linearGradient>
<linearGradient id="paint4_linear_1766_43053" x1="269.881" y1="430.58" x2="300.759" y2="480.207" gradientUnits="userSpaceOnUse">
<stop stop-color="#687EC9"/>
<stop offset="1" stop-color="#5971C3"/>
</linearGradient>
<linearGradient id="paint5_linear_1766_43053" x1="9.09242" y1="-9.50489" x2="87.7927" y2="39.6942" gradientUnits="userSpaceOnUse">
<stop stop-color="#EEE6FF"/>
<stop offset="1" stop-color="#E1D1FF"/>
</linearGradient>
<linearGradient id="paint6_linear_1766_43053" x1="9.26086" y1="15.6142" x2="75.7993" y2="56.0507" gradientUnits="userSpaceOnUse">
<stop stop-color="#DCCBFF"/>
<stop offset="1" stop-color="#C6A9FF"/>
</linearGradient>
<linearGradient id="paint7_linear_1766_43053" x1="65.3416" y1="312.093" x2="93.6069" y2="306.474" gradientUnits="userSpaceOnUse">
<stop stop-color="#392993"/>
<stop offset="1" stop-color="#4B47B9"/>
</linearGradient>
<linearGradient id="paint8_linear_1766_43053" x1="79.0116" y1="319.751" x2="146.782" y2="313.589" gradientUnits="userSpaceOnUse">
<stop stop-color="#594BB9"/>
<stop offset="1" stop-color="#60A8F2"/>
</linearGradient>
<linearGradient id="paint9_linear_1766_43053" x1="136.291" y1="329.298" x2="160.947" y2="308.477" gradientUnits="userSpaceOnUse">
<stop stop-color="#61A2EF"/>
<stop offset="1" stop-color="#58E6FD"/>
</linearGradient>
<linearGradient id="paint10_linear_1766_43053" x1="88.6428" y1="302.492" x2="107.218" y2="272.199" gradientUnits="userSpaceOnUse">
<stop stop-color="#534EBE"/>
<stop offset="1" stop-color="#6875E2"/>
</linearGradient>
<linearGradient id="paint11_linear_1766_43053" x1="137.051" y1="306.503" x2="157.069" y2="310.085" gradientUnits="userSpaceOnUse">
<stop stop-color="#71A5F3"/>
<stop offset="1" stop-color="#6CC3FA"/>
</linearGradient>
<linearGradient id="paint12_linear_1766_43053" x1="9.09242" y1="-9.50489" x2="87.7927" y2="39.6942" gradientUnits="userSpaceOnUse">
<stop stop-color="#EEE6FF"/>
<stop offset="1" stop-color="#E1D1FF"/>
</linearGradient>
<linearGradient id="paint13_linear_1766_43053" x1="9.26086" y1="15.6142" x2="75.7993" y2="56.0507" gradientUnits="userSpaceOnUse">
<stop stop-color="#DCCBFF"/>
<stop offset="1" stop-color="#C6A9FF"/>
</linearGradient>
<linearGradient id="paint14_linear_1766_43053" x1="9.09242" y1="-9.50489" x2="87.7927" y2="39.6942" gradientUnits="userSpaceOnUse">
<stop stop-color="#EEE6FF"/>
<stop offset="1" stop-color="#E1D1FF"/>
</linearGradient>
<linearGradient id="paint15_linear_1766_43053" x1="9.26086" y1="15.6142" x2="75.7993" y2="56.0507" gradientUnits="userSpaceOnUse">
<stop stop-color="#DCCBFF"/>
<stop offset="1" stop-color="#C6A9FF"/>
</linearGradient>
<linearGradient id="paint16_linear_1766_43053" x1="9.09242" y1="-9.50489" x2="87.7927" y2="39.6942" gradientUnits="userSpaceOnUse">
<stop stop-color="#EEE6FF"/>
<stop offset="1" stop-color="#E1D1FF"/>
</linearGradient>
<linearGradient id="paint17_linear_1766_43053" x1="9.26086" y1="15.6142" x2="75.7993" y2="56.0507" gradientUnits="userSpaceOnUse">
<stop stop-color="#DCCBFF"/>
<stop offset="1" stop-color="#C6A9FF"/>
</linearGradient>
<linearGradient id="paint18_linear_1766_43053" x1="9.09242" y1="-9.50489" x2="87.7927" y2="39.6942" gradientUnits="userSpaceOnUse">
<stop stop-color="#EEE6FF"/>
<stop offset="1" stop-color="#E1D1FF"/>
</linearGradient>
<linearGradient id="paint19_linear_1766_43053" x1="9.26086" y1="15.6142" x2="75.7993" y2="56.0507" gradientUnits="userSpaceOnUse">
<stop stop-color="#DCCBFF"/>
<stop offset="1" stop-color="#C6A9FF"/>
</linearGradient>
<linearGradient id="paint20_linear_1766_43053" x1="9.09242" y1="-9.50489" x2="87.7927" y2="39.6942" gradientUnits="userSpaceOnUse">
<stop stop-color="#EEE6FF"/>
<stop offset="1" stop-color="#E1D1FF"/>
</linearGradient>
<linearGradient id="paint21_linear_1766_43053" x1="9.26086" y1="15.6142" x2="75.7993" y2="56.0507" gradientUnits="userSpaceOnUse">
<stop stop-color="#DCCBFF"/>
<stop offset="1" stop-color="#C6A9FF"/>
</linearGradient>
<linearGradient id="paint22_linear_1766_43053" x1="9.09242" y1="-9.50489" x2="87.7927" y2="39.6942" gradientUnits="userSpaceOnUse">
<stop stop-color="#EEE6FF"/>
<stop offset="1" stop-color="#E1D1FF"/>
</linearGradient>
<linearGradient id="paint23_linear_1766_43053" x1="9.26086" y1="15.6142" x2="75.7993" y2="56.0507" gradientUnits="userSpaceOnUse">
<stop stop-color="#DCCBFF"/>
<stop offset="1" stop-color="#C6A9FF"/>
</linearGradient>
<linearGradient id="paint24_linear_1766_43053" x1="9.09242" y1="-9.50489" x2="87.7927" y2="39.6942" gradientUnits="userSpaceOnUse">
<stop stop-color="#EEE6FF"/>
<stop offset="1" stop-color="#E1D1FF"/>
</linearGradient>
<linearGradient id="paint25_linear_1766_43053" x1="9.26086" y1="15.6142" x2="75.7993" y2="56.0507" gradientUnits="userSpaceOnUse">
<stop stop-color="#DCCBFF"/>
<stop offset="1" stop-color="#C6A9FF"/>
</linearGradient>
<linearGradient id="paint26_linear_1766_43053" x1="9.09242" y1="-9.50489" x2="87.7927" y2="39.6942" gradientUnits="userSpaceOnUse">
<stop stop-color="#EEE6FF"/>
<stop offset="1" stop-color="#E1D1FF"/>
</linearGradient>
<linearGradient id="paint27_linear_1766_43053" x1="9.26086" y1="15.6142" x2="75.7993" y2="56.0507" gradientUnits="userSpaceOnUse">
<stop stop-color="#DCCBFF"/>
<stop offset="1" stop-color="#C6A9FF"/>
</linearGradient>
<linearGradient id="paint28_linear_1766_43053" x1="9.09242" y1="-9.50489" x2="87.7927" y2="39.6942" gradientUnits="userSpaceOnUse">
<stop stop-color="#EEE6FF"/>
<stop offset="1" stop-color="#E1D1FF"/>
</linearGradient>
<linearGradient id="paint29_linear_1766_43053" x1="9.26086" y1="15.6142" x2="75.7993" y2="56.0507" gradientUnits="userSpaceOnUse">
<stop stop-color="#DCCBFF"/>
<stop offset="1" stop-color="#C6A9FF"/>
</linearGradient>
<linearGradient id="paint30_linear_1766_43053" x1="9.09242" y1="-9.50489" x2="87.7927" y2="39.6942" gradientUnits="userSpaceOnUse">
<stop stop-color="#EEE6FF"/>
<stop offset="1" stop-color="#E1D1FF"/>
</linearGradient>
<linearGradient id="paint31_linear_1766_43053" x1="9.26086" y1="15.6142" x2="75.7993" y2="56.0507" gradientUnits="userSpaceOnUse">
<stop stop-color="#DCCBFF"/>
<stop offset="1" stop-color="#C6A9FF"/>
</linearGradient>
<linearGradient id="paint32_linear_1766_43053" x1="9.09242" y1="-9.50489" x2="87.7927" y2="39.6942" gradientUnits="userSpaceOnUse">
<stop stop-color="#EEE6FF"/>
<stop offset="1" stop-color="#E1D1FF"/>
</linearGradient>
<linearGradient id="paint33_linear_1766_43053" x1="9.26086" y1="15.6142" x2="75.7993" y2="56.0507" gradientUnits="userSpaceOnUse">
<stop stop-color="#DCCBFF"/>
<stop offset="1" stop-color="#C6A9FF"/>
</linearGradient>
<linearGradient id="paint34_linear_1766_43053" x1="475.907" y1="447.281" x2="483.492" y2="459.472" gradientUnits="userSpaceOnUse">
<stop stop-color="#263238" stop-opacity="0.2"/>
<stop offset="1" stop-color="#263238" stop-opacity="0.02"/>
</linearGradient>
<radialGradient id="paint35_radial_1766_43053" cx="0" cy="0" r="1" gradientUnits="userSpaceOnUse" gradientTransform="translate(429.842 457.31) rotate(-31.8908) scale(77.9408 72.8726)">
<stop stop-color="white" stop-opacity="0.1"/>
<stop offset="1" stop-color="white" stop-opacity="0"/>
</radialGradient>
<linearGradient id="paint36_linear_1766_43053" x1="9.09242" y1="-9.50489" x2="87.7927" y2="39.6942" gradientUnits="userSpaceOnUse">
<stop stop-color="#EEE6FF"/>
<stop offset="1" stop-color="#E1D1FF"/>
</linearGradient>
<linearGradient id="paint37_linear_1766_43053" x1="9.26086" y1="15.6142" x2="75.7993" y2="56.0507" gradientUnits="userSpaceOnUse">
<stop stop-color="#DCCBFF"/>
<stop offset="1" stop-color="#C6A9FF"/>
</linearGradient>
<linearGradient id="paint38_linear_1766_43053" x1="9.09242" y1="-9.50489" x2="87.7927" y2="39.6942" gradientUnits="userSpaceOnUse">
<stop stop-color="#EEE6FF"/>
<stop offset="1" stop-color="#E1D1FF"/>
</linearGradient>
<linearGradient id="paint39_linear_1766_43053" x1="9.26086" y1="15.6142" x2="75.7993" y2="56.0507" gradientUnits="userSpaceOnUse">
<stop stop-color="#DCCBFF"/>
<stop offset="1" stop-color="#C6A9FF"/>
</linearGradient>
<linearGradient id="paint40_linear_1766_43053" x1="9.09242" y1="-9.50489" x2="87.7927" y2="39.6942" gradientUnits="userSpaceOnUse">
<stop stop-color="#EEE6FF"/>
<stop offset="1" stop-color="#E1D1FF"/>
</linearGradient>
<linearGradient id="paint41_linear_1766_43053" x1="9.26086" y1="15.6142" x2="75.7993" y2="56.0507" gradientUnits="userSpaceOnUse">
<stop stop-color="#DCCBFF"/>
<stop offset="1" stop-color="#C6A9FF"/>
</linearGradient>
<linearGradient id="paint42_linear_1766_43053" x1="472.178" y1="119.923" x2="498.385" y2="81.2725" gradientUnits="userSpaceOnUse">
<stop stop-color="#2086B8"/>
<stop offset="1" stop-color="#46D3F6"/>
</linearGradient>
<linearGradient id="paint43_linear_1766_43053" x1="500.085" y1="90.2653" x2="502.456" y2="76.3932" gradientUnits="userSpaceOnUse">
<stop stop-color="#1694DB"/>
<stop offset="1" stop-color="#62C3FE"/>
</linearGradient>
<linearGradient id="paint44_linear_1766_43053" x1="449.151" y1="91.6354" x2="489.975" y2="78.1124" gradientUnits="userSpaceOnUse">
<stop stop-color="#0D3D78"/>
<stop offset="1" stop-color="#063B83"/>
</linearGradient>
<linearGradient id="paint45_linear_1766_43053" x1="454.859" y1="119.226" x2="465.223" y2="91.1735" gradientUnits="userSpaceOnUse">
<stop stop-color="#16589B"/>
<stop offset="1" stop-color="#1464B7"/>
</linearGradient>
<radialGradient id="paint46_radial_1766_43053" cx="0" cy="0" r="1" gradientUnits="userSpaceOnUse" gradientTransform="translate(296 330) rotate(90) scale(368 360)">
<stop offset="0.505" stop-color="white" stop-opacity="0"/>
<stop offset="1" stop-color="#F7F3FF"/>
</radialGradient>
<clipPath id="clip0_1766_43053">
<rect width="593" height="660" rx="4" fill="white"/>
</clipPath>
<clipPath id="clip1_1766_43053">
<rect width="79.8286" height="76.8561" rx="4.49534" transform="matrix(0.849057 -0.528302 0.795122 0.606449 232.081 326.55)" fill="white"/>
</clipPath>
<clipPath id="clip2_1766_43053">
<rect width="68.5084" height="68.5084" fill="white" transform="matrix(0.849057 -0.528302 0.795122 0.606449 239 326.193)"/>
</clipPath>
<clipPath id="clip3_1766_43053">
<rect width="71.4447" height="71.4447" fill="white" transform="matrix(0.849057 -0.528302 0.795122 0.606449 55 432.744)"/>
</clipPath>
<clipPath id="clip4_1766_43053">
<rect width="68.1654" height="68.1654" fill="white" transform="matrix(0.849057 -0.528302 0.795122 0.606449 240 204.012)"/>
</clipPath>
<clipPath id="clip5_1766_43053">
<rect width="56.1917" height="56.1917" fill="white" transform="matrix(0.857493 -0.514496 0.8 0.6 426.552 587.666)"/>
</clipPath>
<clipPath id="clip6_1766_43053">
<rect width="71.4447" height="71.4447" fill="white" transform="matrix(0.849057 -0.528302 0.795122 0.606449 414 587.744)"/>
</clipPath>
<clipPath id="clip7_1766_43053">
<rect width="71.4447" height="71.4447" fill="white" transform="matrix(0.849057 -0.528302 0.795122 0.606449 237 86.7444)"/>
</clipPath>
<clipPath id="clip8_1766_43053">
<rect width="71.4447" height="71.4447" fill="white" transform="matrix(0.849057 -0.528302 0.795122 0.606449 49 558.744)"/>
</clipPath>
<clipPath id="clip9_1766_43053">
<rect width="71.4447" height="71.4447" fill="white" transform="matrix(0.849057 -0.528302 0.795122 0.606449 236 568.744)"/>
</clipPath>
<clipPath id="clip10_1766_43053">
<rect width="71.4447" height="71.4447" fill="white" transform="matrix(0.849057 -0.528302 0.795122 0.606449 57 192.744)"/>
</clipPath>
<clipPath id="clip11_1766_43053">
<rect width="68.4189" height="68.4189" fill="white" transform="matrix(0.849057 -0.528302 0.795122 0.606449 418 462.146)"/>
</clipPath>
<clipPath id="clip12_1766_43053">
<rect width="56.1917" height="56.1917" fill="white" transform="matrix(0.857493 -0.514496 0.8 0.6 432.171 92.1577)"/>
</clipPath>
<clipPath id="clip13_1766_43053">
<rect width="71.4447" height="71.4447" fill="white" transform="matrix(0.849057 -0.528302 0.795122 0.606449 420 91.7444)"/>
</clipPath>
</defs>
</svg>
