<svg width="20" height="20" viewBox="0 0 20 20" fill="none" xmlns="http://www.w3.org/2000/svg">
<g id="mail-02" clip-path="url(#clip0_1798_38393)">
<path id="Icon" d="M17.9165 15L12.3809 10M7.61895 10L2.08326 15M1.66656 5.83337L8.47066 10.5962C9.02164 10.9819 9.29713 11.1748 9.59679 11.2495C9.86148 11.3154 10.1383 11.3154 10.403 11.2495C10.7027 11.1748 10.9782 10.9819 11.5291 10.5962L18.3332 5.83337M5.66657 16.6667H14.3332C15.7334 16.6667 16.4334 16.6667 16.9682 16.3942C17.4386 16.1545 17.8211 15.7721 18.0607 15.3017C18.3332 14.7669 18.3332 14.0668 18.3332 12.6667V7.33337C18.3332 5.93324 18.3332 5.23318 18.0607 4.6984C17.8211 4.22799 17.4386 3.84554 16.9682 3.60586C16.4334 3.33337 15.7334 3.33337 14.3332 3.33337H5.66657C4.26643 3.33337 3.56637 3.33337 3.03159 3.60586C2.56118 3.84554 2.17873 4.22799 1.93905 4.6984C1.66656 5.23318 1.66656 5.93324 1.66656 7.33337V12.6667C1.66656 14.0668 1.66656 14.7669 1.93905 15.3017C2.17873 15.7721 2.56118 16.1545 3.03159 16.3942C3.56637 16.6667 4.26643 16.6667 5.66657 16.6667Z" stroke="#6434D0" stroke-width="1.66667" stroke-linecap="round" stroke-linejoin="round"/>
</g>
<defs>
<clipPath id="clip0_1798_38393">
<rect width="20" height="20" fill="white"/>
</clipPath>
</defs>
</svg>
