<svg width="20" height="20" viewBox="0 0 20 20" fill="none" xmlns="http://www.w3.org/2000/svg">
<g id="pen-tool-02">
<path id="Icon" d="M10.8332 5L5.41808 6.08303C5.11559 6.14353 4.96434 6.17377 4.84117 6.24733C4.73228 6.31236 4.63967 6.40139 4.5704 6.50763C4.49204 6.6278 4.45584 6.77774 4.38346 7.07761L1.66656 18.3333M1.66656 18.3333L12.9223 15.6164C13.2222 15.5441 13.3721 15.5079 13.4923 15.4295C13.5985 15.3602 13.6875 15.2676 13.7526 15.1587C13.8261 15.0356 13.8564 14.8843 13.9169 14.5818L14.9999 9.16666M1.66656 18.3333L7.98823 12.0117M17.3904 6.55719L13.4427 2.60947C13.1127 2.27946 12.9477 2.11445 12.7574 2.05263C12.59 1.99825 12.4098 1.99825 12.2424 2.05263C12.0521 2.11445 11.8871 2.27946 11.5571 2.60947L10.9427 3.22385C10.6127 3.55387 10.4477 3.71888 10.3859 3.90915C10.3315 4.07652 10.3315 4.25681 10.3859 4.42418C10.4477 4.61445 10.6127 4.77946 10.9427 5.10947L14.8904 9.05719C15.2204 9.3872 15.3854 9.55221 15.5757 9.61403C15.7431 9.66841 15.9234 9.66841 16.0907 9.61403C16.281 9.55221 16.446 9.3872 16.776 9.05719L17.3904 8.44281C17.7204 8.11279 17.8854 7.94778 17.9473 7.75751C18.0016 7.59014 18.0016 7.40985 17.9473 7.24248C17.8854 7.05221 17.7204 6.8872 17.3904 6.55719ZM9.16656 9.16666C10.087 9.16666 10.8332 9.91286 10.8332 10.8333C10.8332 11.7538 10.087 12.5 9.16657 12.5C8.24609 12.5 7.4999 11.7538 7.4999 10.8333C7.4999 9.91286 8.24609 9.16666 9.16656 9.16666Z" stroke="#6434D0" stroke-width="1.66667" stroke-linecap="round" stroke-linejoin="round"/>
</g>
</svg>
