<svg width="381" height="320" viewBox="0 0 381 320" fill="none" xmlns="http://www.w3.org/2000/svg">
<path fill-rule="evenodd" clip-rule="evenodd" d="M273.523 138.448C284.346 169.326 264.243 201.233 246.073 227.31C230.804 249.221 207.486 260.931 182.509 269.061C157.177 277.306 130.851 282.693 105.524 273.059C76.1275 261.876 43.3155 244.536 35.4889 213.135C27.8104 182.329 54.9426 157.243 69.8912 130.098C83.7142 104.996 91.3644 72.258 117.968 63.3609C144.776 54.3952 171.094 75.0109 197.088 87.5583C225.565 101.304 262.801 107.859 273.523 138.448Z" fill="#FCF7FF"/>
<g clip-path="url(#clip0_518_137)">
<path d="M329.436 77.5019C329.734 77.2034 330.087 76.9666 330.477 76.8051C330.866 76.6435 331.284 76.5603 331.705 76.5603C332.127 76.5603 332.544 76.6435 332.934 76.8051C333.323 76.9666 333.677 77.2034 333.974 77.5019L353.205 96.7327C353.504 97.0304 353.741 97.3841 353.902 97.7735C354.064 98.1629 354.147 98.5803 354.147 99.0019C354.147 99.4235 354.064 99.841 353.902 100.23C353.741 100.62 353.504 100.973 353.205 101.271L289.103 165.374C288.795 165.679 288.429 165.919 288.026 166.079L255.974 178.899C255.392 179.133 254.754 179.19 254.139 179.064C253.525 178.937 252.961 178.634 252.517 178.19C252.073 177.746 251.77 177.182 251.644 176.568C251.518 175.953 251.575 175.315 251.808 174.733L264.628 142.681C264.788 142.278 265.028 141.912 265.333 141.604L329.436 77.5019ZM323.417 92.5917L338.115 107.29L346.404 99.0019L331.705 84.3032L323.417 92.5917ZM333.583 111.822L318.885 97.1237L277.218 138.79V140.669H280.423C281.273 140.669 282.088 141.006 282.69 141.607C283.291 142.208 283.628 143.024 283.628 143.874V147.079H286.833C287.683 147.079 288.499 147.417 289.1 148.018C289.701 148.619 290.039 149.434 290.039 150.284V153.489H291.917L333.583 111.822ZM271.013 144.996L270.333 145.675L260.539 170.169L285.032 160.374L285.712 159.694C285.1 159.466 284.573 159.056 284.201 158.52C283.829 157.984 283.629 157.347 283.628 156.694V153.489H280.423C279.573 153.489 278.758 153.151 278.157 152.55C277.556 151.949 277.218 151.134 277.218 150.284V147.079H274.013C273.36 147.078 272.723 146.879 272.187 146.506C271.651 146.134 271.241 145.607 271.013 144.996Z" fill="#A78EF0"/>
</g>
<path d="M182.274 217.525L182.729 218.994L182.274 217.525ZM128.552 224.132L128.358 222.606L128.552 224.132ZM90.6982 177.298L89.1599 177.277L90.6982 177.298ZM112.646 140.175L111.987 138.784L112.646 140.175ZM163.537 157.766L162.18 158.489L163.537 157.766ZM149.369 210.058L148.244 209.009L149.369 210.058ZM98.2806 227.884L98.1334 229.416L98.2806 227.884ZM41.0514 176.198L39.563 176.588L41.0514 176.198ZM45.1706 128.005C44.9052 128.812 45.3444 129.682 46.1515 129.947C46.9587 130.212 47.8282 129.773 48.0935 128.966L45.1706 128.005ZM44.3375 142.201C44.534 141.374 44.0233 140.545 43.1966 140.348C42.37 140.152 41.5406 140.663 41.344 141.489L44.3375 142.201ZM38.8226 155.318C38.7216 156.162 39.3237 156.928 40.1674 157.029C41.011 157.129 41.7768 156.527 41.8777 155.684L38.8226 155.318ZM41.4654 169.235C41.3965 168.388 40.6541 167.758 39.8073 167.827C38.9604 167.896 38.3297 168.638 38.3987 169.485L41.4654 169.235ZM41.0298 181.63C41.2898 182.439 42.1563 182.884 42.9652 182.624C43.7741 182.364 44.2191 181.497 43.9591 180.688L41.0298 181.63ZM47.6328 190.134C47.2756 189.363 46.3611 189.027 45.5902 189.384C44.8192 189.741 44.4838 190.656 44.8409 191.427L47.6328 190.134ZM49.9181 200.66C50.38 201.373 51.3325 201.576 52.0457 201.115C52.7588 200.653 52.9625 199.7 52.5006 198.987L49.9181 200.66ZM58.6182 206.99C58.0495 206.359 57.0767 206.308 56.4454 206.877C55.8142 207.445 55.7635 208.418 56.3323 209.05L58.6182 206.99ZM64.0573 216.279C64.7256 216.803 65.6927 216.687 66.2174 216.018C66.742 215.35 66.6255 214.383 65.9572 213.858L64.0573 216.279ZM74.3735 219.34C73.6235 218.941 72.6918 219.225 72.2925 219.975C71.8931 220.725 72.1774 221.657 72.9273 222.056L74.3735 219.34ZM82.6537 226.209C83.4603 226.476 84.3307 226.039 84.5978 225.232C84.8648 224.426 84.4274 223.555 83.6208 223.288L82.6537 226.209ZM93.4118 225.696C92.5737 225.555 91.7808 226.121 91.6407 226.959C91.5006 227.797 92.0664 228.59 92.9044 228.73L93.4118 225.696ZM105.282 229.858C106.131 229.879 106.837 229.208 106.857 228.358C106.878 227.509 106.207 226.803 105.357 226.782L105.282 229.858ZM119.076 225.798C118.241 225.953 117.689 226.756 117.844 227.591C118 228.427 118.803 228.978 119.638 228.823L119.076 225.798ZM133.382 224.265C134.143 223.886 134.452 222.962 134.073 222.202C133.694 221.441 132.77 221.132 132.01 221.511L133.382 224.265ZM143.304 213.824C142.666 214.385 142.603 215.357 143.164 215.995C143.725 216.634 144.697 216.696 145.336 216.135L143.304 213.824ZM153.774 207.442C154.327 206.797 154.252 205.826 153.607 205.273C152.962 204.72 151.991 204.795 151.438 205.44L153.774 207.442ZM157.269 197.896C156.789 198.596 156.967 199.554 157.668 200.034C158.369 200.515 159.326 200.336 159.807 199.636L157.269 197.896ZM164.815 191.059C165.182 190.293 164.859 189.374 164.093 189.007C163.327 188.64 162.408 188.963 162.041 189.729L164.815 191.059ZM165.19 180.927C164.998 181.755 165.513 182.582 166.341 182.773C167.169 182.965 167.995 182.449 168.187 181.622L165.19 180.927ZM169.085 171.553C169.036 170.704 168.309 170.056 167.461 170.106C166.612 170.155 165.964 170.882 166.014 171.73L169.085 171.553ZM164.097 162.727C164.394 163.523 165.28 163.927 166.076 163.63C166.872 163.333 167.277 162.447 166.979 161.651L164.097 162.727ZM162.214 152.656C161.729 151.958 160.77 151.786 160.072 152.272C159.375 152.757 159.203 153.716 159.689 154.414L162.214 152.656ZM153.345 147.316C153.984 147.875 154.956 147.811 155.516 147.171C156.075 146.532 156.01 145.56 155.371 145L153.345 147.316ZM146.854 139.248C146.095 138.864 145.17 139.168 144.786 139.926C144.403 140.685 144.707 141.61 145.465 141.994L146.854 139.248ZM136.512 138.824C137.343 139.002 138.161 138.473 138.339 137.642C138.517 136.811 137.988 135.993 137.157 135.815L136.512 138.824ZM126.895 134.994C126.046 135.039 125.395 135.762 125.439 136.611C125.483 137.459 126.207 138.111 127.055 138.067L126.895 134.994ZM117.729 139.804C118.537 139.54 118.979 138.672 118.716 137.864C118.453 137.056 117.584 136.615 116.776 136.878L117.729 139.804ZM106.811 141.66C106.098 142.122 105.895 143.075 106.358 143.788C106.82 144.501 107.773 144.704 108.486 144.241L106.811 141.66ZM100.37 151.513C100.902 150.85 100.796 149.882 100.133 149.35C99.4705 148.818 98.5022 148.924 97.9703 149.587L100.37 151.513ZM92.1451 159.936C91.8487 160.732 92.2539 161.618 93.0501 161.915C93.8464 162.211 94.7323 161.806 95.0287 161.01L92.1451 159.936ZM92.5683 171.757C92.6601 170.912 92.0498 170.153 91.2051 170.061C90.3604 169.97 89.6012 170.58 89.5094 171.425L92.5683 171.757ZM89.495 182.966C89.6035 183.809 90.3745 184.404 91.2172 184.296C92.06 184.188 92.6552 183.416 92.5468 182.574L89.495 182.966ZM95.1424 192.854C94.8461 192.058 93.9603 191.653 93.164 191.949C92.3677 192.245 91.9624 193.131 92.2588 193.927L95.1424 192.854ZM97.1738 204.048C97.6139 204.775 98.5599 205.007 99.2867 204.567C100.013 204.127 100.246 203.181 99.8057 202.454L97.1738 204.048ZM106.148 211.041C105.581 210.408 104.608 210.355 103.976 210.922C103.343 211.49 103.29 212.462 103.857 213.095L106.148 211.041ZM112.296 220.634C112.995 221.117 113.953 220.941 114.436 220.242C114.919 219.543 114.744 218.585 114.045 218.102L112.296 220.634ZM123.409 222.37C122.577 222.198 121.763 222.733 121.592 223.566C121.42 224.398 121.956 225.211 122.788 225.383L123.409 222.37ZM135.41 225.039C136.258 224.985 136.901 224.254 136.848 223.406C136.794 222.558 136.063 221.914 135.215 221.968L135.41 225.039ZM148.82 221.448C147.971 221.48 147.308 222.194 147.341 223.043C147.373 223.892 148.087 224.555 148.936 224.522L148.82 221.448ZM162.61 223.455C163.453 223.345 164.046 222.573 163.936 221.731C163.827 220.888 163.054 220.294 162.212 220.404L162.61 223.455ZM175.36 217.878C174.537 218.087 174.038 218.924 174.247 219.747C174.456 220.571 175.293 221.069 176.117 220.86L175.36 217.878ZM187.482 217.37C188.279 217.075 188.686 216.19 188.391 215.393C188.096 214.596 187.211 214.189 186.415 214.484L187.482 217.37ZM195.459 210.765C194.683 211.111 194.335 212.021 194.681 212.797C195.027 213.573 195.937 213.921 196.713 213.575L195.459 210.765ZM205.714 209.322C206.475 208.945 206.786 208.022 206.408 207.26C206.03 206.499 205.107 206.188 204.346 206.566L205.714 209.322ZM213.097 202.054C212.348 202.454 212.064 203.386 212.465 204.136C212.865 204.885 213.797 205.168 214.546 204.768L213.097 202.054ZM223.245 199.983C223.984 199.564 224.244 198.626 223.826 197.886C223.407 197.147 222.469 196.887 221.729 197.305L223.245 199.983ZM230.248 192.353C229.518 192.788 229.28 193.733 229.715 194.462C230.151 195.192 231.096 195.43 231.825 194.994L230.248 192.353ZM240.288 189.792C241.005 189.337 241.218 188.387 240.763 187.669C240.307 186.952 239.357 186.739 238.639 187.194L240.288 189.792ZM246.81 181.759C246.118 182.252 245.957 183.213 246.451 183.905C246.944 184.597 247.905 184.757 248.597 184.264L246.81 181.759ZM48.9487 121.956C47.5188 121.388 47.5188 121.388 47.5188 121.388C47.5188 121.389 47.5187 121.389 47.5187 121.389C47.5186 121.389 47.5185 121.389 47.5184 121.389C47.5183 121.39 47.518 121.39 47.5177 121.391C47.5171 121.393 47.5162 121.395 47.5151 121.398C47.5129 121.403 47.5098 121.411 47.5057 121.422C47.4976 121.442 47.4857 121.472 47.4703 121.512C47.4395 121.591 47.3945 121.707 47.3366 121.858C47.2208 122.161 47.0532 122.605 46.844 123.176C46.4257 124.318 45.8408 125.966 45.1706 128.005L48.0935 128.966C48.7518 126.964 49.3251 125.348 49.7331 124.235C49.937 123.678 50.0995 123.248 50.2105 122.958C50.266 122.813 50.3086 122.703 50.337 122.63C50.3512 122.593 50.3619 122.566 50.3689 122.548C50.3724 122.54 50.3749 122.533 50.3766 122.529C50.3774 122.527 50.378 122.525 50.3783 122.525C50.3785 122.524 50.3786 122.524 50.3786 122.524C50.3786 122.524 50.3787 122.524 50.3787 122.524C50.3786 122.524 50.3786 122.524 50.3786 122.524C50.3786 122.524 50.3786 122.524 48.9487 121.956ZM41.344 141.489C40.3142 145.82 39.3937 150.544 38.8226 155.318L41.8777 155.684C42.4316 151.054 43.3275 146.448 44.3375 142.201L41.344 141.489ZM38.3987 169.485C38.5985 171.941 38.9721 174.328 39.563 176.588L42.5398 175.809C42.002 173.753 41.6535 171.547 41.4654 169.235L38.3987 169.485ZM39.563 176.588C40.0109 178.3 40.4999 179.981 41.0298 181.63L43.9591 180.688C43.447 179.095 42.9737 177.468 42.5398 175.809L39.563 176.588ZM44.8409 191.427C46.3461 194.676 48.0393 197.759 49.9181 200.66L52.5006 198.987C50.7041 196.213 49.0801 193.258 47.6328 190.134L44.8409 191.427ZM56.3323 209.05C58.7075 211.686 61.2838 214.101 64.0573 216.279L65.9572 213.858C63.3258 211.793 60.8782 209.498 58.6182 206.99L56.3323 209.05ZM72.9273 222.056C75.9929 223.688 79.2365 225.078 82.6537 226.209L83.6208 223.288C80.3662 222.21 77.283 220.889 74.3735 219.34L72.9273 222.056ZM92.9044 228.73C94.6128 229.016 96.3559 229.245 98.1334 229.416L98.4279 226.353C96.7202 226.189 95.0481 225.969 93.4118 225.696L92.9044 228.73ZM98.1334 229.416C100.581 229.651 102.962 229.801 105.282 229.858L105.357 226.782C103.118 226.727 100.811 226.582 98.4279 226.353L98.1334 229.416ZM119.638 228.823C124.465 227.927 129.023 226.438 133.382 224.265L132.01 221.511C127.921 223.55 123.638 224.951 119.076 225.798L119.638 228.823ZM145.336 216.135C147.08 214.601 148.798 212.927 150.495 211.107L148.244 209.009C146.611 210.76 144.967 212.363 143.304 213.824L145.336 216.135ZM150.495 211.107C151.617 209.902 152.712 208.68 153.774 207.442L151.438 205.44C150.406 206.643 149.339 207.833 148.244 209.009L150.495 211.107ZM159.807 199.636C161.719 196.846 163.413 193.984 164.815 191.059L162.041 189.729C160.717 192.49 159.107 195.215 157.269 197.896L159.807 199.636ZM168.187 181.622C168.951 178.323 169.283 174.96 169.085 171.553L166.014 171.73C166.192 174.82 165.894 177.888 165.19 180.927L168.187 181.622ZM166.979 161.651C166.406 160.115 165.713 158.578 164.895 157.042L162.18 158.489C162.936 159.909 163.572 161.322 164.097 162.727L166.979 161.651ZM164.895 157.042C164.079 155.51 163.182 154.047 162.214 152.656L159.689 154.414C160.588 155.705 161.42 157.065 162.18 158.489L164.895 157.042ZM155.371 145C152.757 142.714 149.893 140.785 146.854 139.248L145.465 141.994C148.275 143.415 150.925 145.199 153.345 147.316L155.371 145ZM137.157 135.815C133.811 135.098 130.364 134.813 126.895 134.994L127.055 138.067C130.25 137.9 133.426 138.163 136.512 138.824L137.157 135.815ZM116.776 136.878C115.164 137.403 113.565 138.038 111.987 138.784L113.304 141.566C114.764 140.874 116.242 140.288 117.729 139.804L116.776 136.878ZM111.987 138.784C110.144 139.657 108.42 140.616 106.811 141.66L108.486 144.241C109.974 143.276 111.578 142.382 113.304 141.566L111.987 138.784ZM97.9703 149.587C95.4749 152.695 93.55 156.163 92.1451 159.936L95.0287 161.01C96.3266 157.524 98.0937 154.348 100.37 151.513L97.9703 149.587ZM89.5094 171.425C89.3026 173.327 89.1877 175.28 89.1599 177.277L92.2365 177.32C92.2631 175.412 92.3727 173.557 92.5683 171.757L89.5094 171.425ZM89.1599 177.277C89.1336 179.164 89.2505 181.066 89.495 182.966L92.5468 182.574C92.3195 180.807 92.2123 179.051 92.2365 177.32L89.1599 177.277ZM92.2588 193.927C93.5656 197.439 95.236 200.848 97.1738 204.048L99.8057 202.454C97.9625 199.411 96.3783 196.175 95.1424 192.854L92.2588 193.927ZM103.857 213.095C106.487 216.028 109.34 218.592 112.296 220.634L114.045 218.102C111.313 216.215 108.639 213.818 106.148 211.041L103.857 213.095ZM122.788 225.383C124.787 225.795 126.787 225.907 128.746 225.658L128.358 222.606C126.776 222.807 125.118 222.722 123.409 222.37L122.788 225.383ZM128.746 225.658C131.01 225.371 133.218 225.178 135.41 225.039L135.215 221.968C132.974 222.11 130.699 222.308 128.358 222.606L128.746 225.658ZM148.936 224.522C153.212 224.36 157.695 224.096 162.61 223.455L162.212 220.404C157.428 221.028 153.05 221.287 148.82 221.448L148.936 224.522ZM176.117 220.86C178.234 220.323 180.435 219.705 182.729 218.994L181.818 216.055C179.574 216.751 177.425 217.354 175.36 217.878L176.117 220.86ZM182.729 218.994C184.252 218.522 185.842 217.977 187.482 217.37L186.415 214.484C184.817 215.075 183.281 215.602 181.818 216.055L182.729 218.994ZM196.713 213.575C199.651 212.264 202.672 210.831 205.714 209.322L204.346 206.566C201.336 208.059 198.354 209.473 195.459 210.765L196.713 213.575ZM214.546 204.768C217.499 203.192 220.417 201.583 223.245 199.983L221.729 197.305C218.922 198.894 216.025 200.491 213.097 202.054L214.546 204.768ZM231.825 194.994C234.887 193.166 237.74 191.409 240.288 189.792L238.639 187.194C236.117 188.795 233.288 190.537 230.248 192.353L231.825 194.994ZM248.597 184.264C249.718 183.464 250.643 182.766 251.324 182.2C251.664 181.919 251.962 181.653 252.201 181.413C252.399 181.213 252.694 180.897 252.868 180.523L250.079 179.224C250.15 179.072 250.198 179.062 250.016 179.246C249.875 179.388 249.659 179.584 249.359 179.833C248.76 180.33 247.904 180.978 246.81 181.759L248.597 184.264Z" fill="#D7B2ED"/>
<path d="M82.0513 120.168C86.6762 119.273 88.0029 117.722 89.0341 113.846C89.8386 117.823 91.2999 119.295 95.3564 120.829C91.0442 121.827 89.5313 123.228 88.3736 127.151C87.3253 122.717 85.9752 121.148 82.0513 120.168Z" fill="#7452DA"/>
<path d="M219.487 133.502C224.112 132.607 225.439 131.055 226.47 127.18C227.275 131.157 228.736 132.628 232.792 134.162C228.48 135.16 226.967 136.561 225.809 140.485C224.761 136.05 223.411 134.481 219.487 133.502Z" fill="#7452DA"/>
<path d="M118.974 253.502C123.599 252.606 124.926 251.055 125.957 247.179C126.762 251.157 128.223 252.628 132.279 254.162C127.967 255.16 126.454 256.561 125.297 260.485C124.248 256.05 122.898 254.481 118.974 253.502Z" fill="#7452DA"/>
<defs>
<clipPath id="clip0_518_137">
<rect width="102.564" height="102.564" fill="white" transform="translate(251.577 76.5659)"/>
</clipPath>
</defs>
</svg>
