<svg width="350" height="320" viewBox="0 0 350 320" fill="none" xmlns="http://www.w3.org/2000/svg">
<path fill-rule="evenodd" clip-rule="evenodd" d="M125.45 95.634C151.006 83.7905 158.338 40.3558 186.519 40.2334C213.491 40.1162 225.88 74.5968 243.47 95.1213C260.161 114.596 287.404 131.115 286.365 156.733C285.318 182.516 255.079 195.259 238.602 215.059C226.121 230.056 218.54 248.871 201.619 258.565C183.724 268.816 162.979 271.443 142.381 270.18C119.149 268.757 95.7267 264.809 76.998 250.927C55.7156 235.153 37.6153 213.856 31.5715 188.049C25.1599 160.672 23.2197 126.325 43.2088 106.648C63.415 86.7566 99.7324 107.552 125.45 95.634Z" fill="#FCF7FF"/>
<rect x="100.435" y="118.621" width="143" height="100" rx="7" stroke="#A78EF0" stroke-width="2" stroke-linecap="round" stroke-dasharray="10 10"/>
<rect x="171.435" y="142.621" width="145" height="102" rx="4" fill="#A58CF0"/>
<rect x="184.435" y="156.621" width="90" height="10" rx="4" fill="#D1C4F7"/>
<rect x="184.435" y="216.621" width="115" height="14" rx="4" fill="#E6DFFB"/>
<rect x="184.435" y="175.621" width="62" height="3" rx="1.5" fill="#BBA5FE"/>
<rect x="184.435" y="183.621" width="62" height="3" rx="1.5" fill="#BBA5FE"/>
<rect x="184.435" y="191.621" width="62" height="3" rx="1.5" fill="#C9B8FF"/>
<rect x="184.435" y="199.621" width="62" height="3" rx="1.5" fill="#BBA5FE"/>
</svg>
