<svg width="626" height="493" viewBox="0 0 626 493" fill="none" xmlns="http://www.w3.org/2000/svg">
<g clip-path="url(#clip0_3986_8973)">
<path fill-rule="evenodd" clip-rule="evenodd" d="M342.227 117.342C398.208 110.541 438.882 31.7522 492.66 49.0826C544.13 65.6694 546.54 139.566 567.443 189.92C587.277 237.7 629.037 286.384 611.307 334.9C593.462 383.73 528.004 389.339 484.433 417.067C451.428 438.071 425.417 469.455 387.211 477.512C346.807 486.032 305.662 478.143 267.186 462.881C223.791 445.668 181.583 423.492 154.427 385.177C123.569 341.638 102.169 289.483 106.517 236.188C111.13 179.65 128.548 112.524 178.736 87.2182C229.47 61.638 285.892 124.185 342.227 117.342Z" fill="#F1D9FF"/>
<path d="M158.044 315.097L163.87 312.728C165.612 312.02 167.511 313.325 167.474 315.206L167.337 322.05C167.315 323.166 168.003 324.173 169.05 324.559L178.099 327.895C180.331 328.717 180.398 331.85 178.203 332.767L169.587 336.368C168.375 336.875 166.974 336.404 166.314 335.267L156.767 318.838C155.967 317.462 156.57 315.697 158.044 315.097Z" fill="#9179DB"/>
<path d="M181.492 326.249L170.784 312.202C170.15 311.371 168.825 311.78 168.771 312.824L168.265 322.546C168.239 323.03 168.529 323.476 168.982 323.651L180.196 327.976C181.252 328.383 182.178 327.149 181.492 326.249Z" fill="#9179DB"/>
<path d="M278.999 366.089L281.966 353.691C282.443 351.701 284.915 351.002 286.363 352.447L295.223 361.291C296.07 362.137 297.383 362.3 298.412 361.688L312.051 353.57C314.095 352.353 316.572 354.273 315.903 356.556L311.467 371.7C311.098 372.961 309.85 373.753 308.552 373.551L281.143 369.286C279.632 369.051 278.643 367.576 278.999 366.089Z" fill="#9179DB"/>
<path d="M312.907 349.696L285.815 347.715C284.772 347.638 284.2 348.905 284.948 349.636L296.259 360.694C296.618 361.046 297.167 361.115 297.603 360.865L313.385 351.788C314.344 351.237 314.011 349.777 312.907 349.696Z" fill="#9179DB"/>
<path d="M192.226 388.445L195.266 369.827C195.621 367.651 198.341 366.862 199.806 368.508L211.772 381.954C212.56 382.84 213.845 383.085 214.905 382.552L239.336 370.255C241.254 369.289 243.455 370.916 243.094 373.033L239.008 397.038C238.763 398.479 237.385 399.44 235.948 399.173L194.332 391.442C192.932 391.182 191.996 389.851 192.226 388.445Z" fill="#E69494"/>
<path d="M238.713 367.123L199.281 363.866C198.255 363.781 197.666 365.008 198.374 365.756L212.867 381.059C213.203 381.414 213.73 381.511 214.17 381.298L239.109 369.252C240.138 368.755 239.852 367.218 238.713 367.123Z" fill="#E69494"/>
<path d="M77.9741 293.722L64.9736 263.531C64.1645 261.652 65.7265 259.612 67.7516 259.904L99.0451 264.408C100.23 264.578 101.38 263.923 101.838 262.817L117.24 225.604C118.149 223.406 121.282 223.462 122.113 225.691L136.197 263.505C136.656 264.737 136.131 266.118 134.969 266.733L81.6047 295.001C80.2534 295.716 78.5789 295.127 77.9741 293.722Z" fill="#9179DB"/>
<path d="M114.516 222.56L63.2543 255.308C62.3728 255.871 62.6732 257.227 63.71 257.366L98.8205 262.049C99.3186 262.115 99.8001 261.843 99.9992 261.381L116.151 223.95C116.589 222.934 115.448 221.964 114.516 222.56Z" fill="#9179DB"/>
<path d="M423.454 116.564L430.591 107.927C431.894 106.349 434.421 106.809 435.086 108.744L438.675 119.198C439.063 120.331 440.17 121.055 441.364 120.958L455.317 119.822C457.688 119.629 459.067 122.443 457.462 124.199L448.087 134.454C447.2 135.424 445.731 135.586 444.654 134.833L423.973 120.378C422.719 119.501 422.48 117.742 423.454 116.564Z" fill="#9179DB"/>
<path d="M457.86 116.773L436.634 104.375C435.731 103.847 434.661 104.733 435.011 105.719L439.798 119.208C439.966 119.682 440.429 119.986 440.93 119.953L457.368 118.862C458.472 118.789 458.815 117.331 457.86 116.773Z" fill="#9179DB"/>
<path d="M499.867 135.407L495.016 118.208C494.417 116.086 496.549 114.219 498.573 115.093L514.239 121.851C515.328 122.321 516.597 122 517.332 121.069L533.479 100.608C534.809 98.9223 537.491 99.4658 538.059 101.536L544.197 123.872C544.585 125.282 543.742 126.736 542.326 127.102L503.041 137.232C501.663 137.587 500.254 136.777 499.867 135.407Z" fill="#E69494"/>
<path d="M531.636 98.03L496.138 111.135C495.172 111.492 495.156 112.853 496.114 113.232L514.869 120.643C515.324 120.822 515.842 120.687 516.151 120.309L532.894 99.7923C533.617 98.9069 532.708 97.6343 531.636 98.03Z" fill="#E69494"/>
<path d="M472.119 45.2876C472.186 45.1326 472.397 45.13 472.47 45.2789L475.515 51.4893C475.91 52.2941 475.608 53.2828 474.84 53.6966L462.793 60.1933C462.025 60.6072 461.082 60.29 460.688 59.4852L457.643 53.2778C457.569 53.126 457.692 52.9519 457.854 52.9836C458.762 53.1622 459.952 53.3695 464.009 54.0269C464.85 54.1651 466.363 54.5931 467.388 54.0326C468.427 53.4842 468.985 51.9121 469.352 51.1456C471.203 47.3023 471.729 46.1658 472.119 45.2876ZM466.91 53.0577C467.588 52.7076 468.114 51.2871 468.419 50.6542C470.828 45.6573 470.996 45.2444 471.524 44.0377C471.625 43.8105 471.619 43.5448 471.509 43.3201L471.226 42.743C470.832 41.9383 469.889 41.6211 469.121 42.035L457.074 48.5316C456.306 48.9455 456.004 49.9342 456.398 50.739L456.681 51.316C456.792 51.5407 456.993 51.6971 457.229 51.7463C458.471 51.9942 458.891 52.0946 464.168 52.9468C464.836 53.0549 466.244 53.4322 466.91 53.0577Z" fill="#9179DB"/>
<g filter="url(#filter0_dd_3986_8973)">
<g clip-path="url(#clip1_3986_8973)">
<rect x="140.449" y="187.186" width="378.182" height="89.2417" rx="10.2418" fill="white"/>
<path d="M174.943 238.123C176.646 238.069 178.363 238.096 180.242 238.164C182.176 238.015 184.177 237.812 186.11 237.664C188.165 237.529 188.246 238.326 186.61 239.732C185.096 241.03 183.149 242.301 180.256 243.504C178.336 244.059 176.524 244.329 174.862 244.37C173.239 244.342 171.793 244.113 170.495 243.694C169.859 243.491 169.427 243.234 169.17 242.936C168.967 242.693 168.913 242.517 168.994 242.355C169.075 242.206 169.278 242.125 169.602 242.152C169.954 242.166 170.427 242.274 171.022 242.45C172.442 242.828 173.78 243.018 175.037 243.072C176.295 243.072 177.566 242.923 178.904 242.571C182.703 241.03 183.649 239.949 181.256 239.624C179.904 239.394 178.431 239.273 176.984 239.259C175.605 239.151 174.023 239.164 172.536 239.259L170.927 239.178C170.522 239.124 170.089 238.989 169.67 238.759C169.237 238.515 168.913 238.218 168.683 237.921C168.48 237.623 168.426 237.393 168.507 237.218C168.602 237.028 168.832 236.974 169.197 237.069L170.265 237.285C171.563 237.447 172.347 237.299 172.563 236.853C172.847 236.379 172.942 235.744 173.077 234.96C173.158 234.23 172.955 233.608 172.401 233.067C171.887 232.499 171.13 232.053 170.238 231.742C169.021 231.255 167.71 231.174 166.398 231.62C166.114 231.729 165.857 231.742 165.668 231.647C165.465 231.553 165.33 231.364 165.208 231.08C165.114 230.782 165.087 230.444 165.141 230.12C165.222 229.701 165.411 229.417 165.709 229.295C166.304 228.957 166.993 228.889 167.777 228.984C168.642 229.092 169.44 229.295 170.238 229.646C171.617 230.12 172.915 230.809 173.983 231.756C175.145 232.58 175.835 233.594 175.93 234.77C176.011 235.501 175.957 236.136 175.767 236.704C175.848 237.258 175.619 237.745 174.943 238.123ZM179.566 221.332C183.92 218.695 188.273 218.871 191.761 220.129C195.493 222.359 198.873 225.212 201.604 228.795C202.834 231.661 202.645 233.973 201.671 235.703C200.36 237.529 199.102 238.718 197.953 239.34C196.682 240.07 195.695 240.165 195.141 239.624C194.776 239.3 194.682 238.745 194.776 237.907C194.776 237.123 194.763 236.19 194.492 235.379C194.087 235.149 193.749 234.879 193.492 234.487C193.208 234.216 193.059 233.946 193.086 233.621C193.073 233.324 193.208 233.053 193.519 232.797C193.708 232.648 193.911 232.54 194.1 232.472C194.33 232.405 194.6 232.364 194.925 232.391C197.115 233.473 197.723 234.798 198.278 235.284C198.629 236.109 199.549 235.609 200.779 233.77C201.401 232.107 200.333 229.322 196.845 225.415L196.75 225.32C197.44 226.24 197.169 226.469 196.169 226.172C195.52 226.267 194.519 226.294 193.181 226.523C192.167 227.24 191.112 228.267 190.017 229.809C188.8 231.647 187.219 233.229 185.231 234.419C183.068 235.136 181.405 235.095 180.526 234.514C179.931 233.702 179.634 232.729 179.458 231.526C179.08 230.201 178.769 228.781 178.607 227.213C178.377 225.307 178.62 223.333 179.566 221.332ZM189.409 224.698C190.842 223.914 191.694 223.468 191.775 222.941C192.275 222.67 191.937 222.157 190.585 221.345C189.476 220.696 187.705 220.156 185.488 219.953C183.46 220.007 181.703 221.075 180.54 223.103C180.242 225.158 180.513 226.929 181.027 228.538C181.365 229.903 182 230.985 183.041 231.701C184.298 232.053 185.786 231.323 187.151 229.674C188.165 227.957 188.8 226.212 189.409 224.698Z" fill="#484455"/>
<path d="M211.193 234.522V228.23H212.621V234.522H211.193ZM208.761 232.089V230.662H215.053V232.089H208.761Z" fill="black"/>
<path d="M231.094 222.017C231.408 221.883 231.676 221.816 231.867 221.883C232.034 221.972 232.146 222.151 232.158 222.386C232.169 222.633 232.09 222.879 231.99 223.192C231.99 223.192 230.289 227.053 229.371 231.204C229.226 236.072 228.61 240.537 228.61 240.537C228.375 241.052 228.095 241.377 227.737 241.533C227.525 241.645 227.334 241.623 227.167 241.466C226.976 241.298 226.898 241.086 226.898 240.795C226.932 240.616 226.988 240.392 227.077 240.134C227.077 240.134 227.625 236.442 227.726 232.144C228.151 228.295 229.55 224.546 229.55 224.546L222.153 228.698C221.818 228.81 221.527 228.81 221.336 228.698C221.101 228.586 221.001 228.384 220.967 228.127C220.911 227.534 221.236 227.187 221.974 227.008L231.094 222.017ZM240.606 231.081C241.334 231.719 241.781 232.413 241.938 233.185C242.24 234.013 242.195 234.819 241.972 235.725C241.692 237.001 240.998 237.695 239.957 237.84C239.028 238.031 237.977 237.784 236.79 237.079C236.141 236.744 235.526 236.386 234.922 235.893C234.407 235.569 233.97 235.211 233.612 234.763C233.422 234.539 233.31 234.271 233.265 233.868C233.254 233.566 233.288 233.286 233.377 233.04C233.467 232.782 233.579 232.637 233.702 232.57C233.858 232.547 234.038 232.603 234.205 232.782C234.642 233.331 235.045 233.812 235.403 234.159C235.806 234.55 236.276 234.841 236.79 235.088C238.435 236.095 239.42 235.804 239.733 234.159C239.868 233.331 239.789 232.614 239.487 232.021C239.241 231.473 238.626 230.902 237.697 230.399L236.723 229.906C236.499 229.806 236.365 229.649 236.332 229.492C236.298 229.302 236.343 229.123 236.477 228.955C236.589 228.81 236.746 228.687 236.936 228.619C237.126 228.541 237.339 228.575 237.585 228.698L238.335 229.078C239.263 229.582 240.058 229.817 240.741 229.783C241.502 229.817 242.072 229.515 242.33 228.922C242.486 228.351 242.318 227.803 241.837 227.221C241.39 226.65 240.729 226.146 239.845 225.676C238.48 224.915 237.171 224.591 235.817 224.725C235.492 224.748 235.246 224.725 235.022 224.636C234.821 224.557 234.653 224.401 234.519 224.222C234.373 224.009 234.306 223.819 234.328 223.584C234.384 223.315 234.541 223.08 234.832 222.979C235.47 222.789 236.197 222.789 237.07 223.013C238.055 223.282 239.04 223.718 240.024 224.278C241.58 225.117 242.878 225.956 243.762 226.863C244.657 227.679 245.06 228.541 244.836 229.559C244.657 230.242 244.187 230.779 243.382 231.115C242.453 231.361 241.513 231.294 240.606 231.081ZM254.997 239.586C255.311 239.564 255.523 239.631 255.635 239.776C255.769 239.955 255.792 240.179 255.713 240.492C255.579 241.153 255.187 241.544 254.527 241.567L245.911 241.757C245.53 241.712 245.217 241.533 244.948 241.287C244.769 241.052 244.668 240.75 244.691 240.492C244.736 240.179 244.926 239.899 245.25 239.72L253.901 233.577C255.143 232.805 256.116 232.178 256.933 231.63C257.795 231.193 258.343 230.701 258.634 230.22C258.768 229.548 258.466 229.011 257.806 228.597C257.202 228.172 256.407 227.903 255.434 227.803C253.856 227.679 252.334 228.038 250.79 228.821C250.577 228.888 250.376 228.955 250.208 229.033C250.062 229.078 249.917 229.089 249.76 229.101C249.503 229.112 249.29 229.045 249.133 228.888C248.954 228.731 248.876 228.53 248.876 228.306C248.887 228.004 249.077 227.758 249.458 227.59C250.163 227.142 251.036 226.818 252.065 226.538C253.039 226.303 253.979 226.225 254.897 226.269C256.53 226.393 257.996 226.851 259.294 227.601C260.581 228.373 261.264 229.302 261.163 230.376C260.738 231.137 259.999 231.82 258.936 232.402C257.828 233.006 256.564 233.857 254.986 234.853L248.372 239.832L254.997 239.586Z" fill="#484455"/>
<path d="M274.79 230.626V229.221H280.841V230.626H274.79ZM274.79 233.535V232.13H280.841V233.535H274.79Z" fill="black"/>
<path d="M311.418 236.307V226.996H317.474V228.41H313.105V230.938H317.16V232.352H313.105V234.893H317.51V236.307H311.418ZM320.768 232.215V236.307H319.122V229.324H320.695V230.511H320.777C320.937 230.12 321.194 229.809 321.545 229.579C321.9 229.348 322.338 229.233 322.859 229.233C323.341 229.233 323.761 229.336 324.118 229.542C324.479 229.748 324.758 230.047 324.955 230.438C325.155 230.829 325.253 231.303 325.25 231.861V236.307H323.605V232.115C323.605 231.649 323.483 231.284 323.241 231.02C323.001 230.756 322.67 230.624 322.245 230.624C321.957 230.624 321.701 230.688 321.477 230.815C321.256 230.94 321.081 231.12 320.954 231.356C320.83 231.593 320.768 231.879 320.768 232.215ZM330.41 229.324V230.597H326.396V229.324H330.41ZM327.387 227.651H329.033V234.207C329.033 234.428 329.066 234.598 329.133 234.716C329.203 234.831 329.293 234.91 329.406 234.952C329.518 234.995 329.642 235.016 329.778 235.016C329.881 235.016 329.975 235.008 330.06 234.993C330.148 234.978 330.215 234.964 330.26 234.952L330.538 236.239C330.45 236.269 330.324 236.303 330.16 236.339C330 236.375 329.803 236.397 329.569 236.403C329.157 236.415 328.786 236.353 328.455 236.216C328.125 236.077 327.863 235.862 327.669 235.571C327.478 235.28 327.384 234.916 327.387 234.48V227.651ZM334.803 236.444C334.103 236.444 333.498 236.298 332.989 236.007C332.483 235.713 332.094 235.298 331.821 234.761C331.548 234.222 331.412 233.587 331.412 232.857C331.412 232.138 331.548 231.508 331.821 230.965C332.097 230.42 332.482 229.995 332.976 229.692C333.47 229.386 334.05 229.233 334.717 229.233C335.147 229.233 335.553 229.303 335.935 229.442C336.32 229.579 336.66 229.791 336.954 230.079C337.251 230.367 337.484 230.733 337.654 231.179C337.823 231.621 337.908 232.149 337.908 232.761V233.266H332.185V232.156H336.331C336.328 231.841 336.259 231.561 336.126 231.315C335.993 231.067 335.806 230.871 335.567 230.729C335.331 230.586 335.055 230.515 334.74 230.515C334.403 230.515 334.108 230.597 333.853 230.761C333.598 230.921 333.4 231.133 333.257 231.397C333.118 231.658 333.047 231.944 333.044 232.256V233.225C333.044 233.631 333.118 233.979 333.267 234.27C333.415 234.558 333.623 234.78 333.889 234.934C334.156 235.086 334.468 235.161 334.826 235.161C335.065 235.161 335.282 235.128 335.476 235.061C335.67 234.992 335.838 234.89 335.981 234.757C336.123 234.623 336.231 234.458 336.303 234.261L337.84 234.434C337.743 234.84 337.558 235.195 337.285 235.498C337.016 235.798 336.67 236.031 336.249 236.198C335.828 236.362 335.346 236.444 334.803 236.444ZM339.301 236.307V229.324H340.896V230.488H340.969C341.096 230.085 341.315 229.774 341.624 229.556C341.936 229.335 342.292 229.224 342.692 229.224C342.783 229.224 342.885 229.229 342.997 229.238C343.112 229.244 343.207 229.254 343.283 229.27V230.783C343.213 230.759 343.103 230.738 342.951 230.72C342.803 230.699 342.659 230.688 342.519 230.688C342.219 230.688 341.949 230.753 341.71 230.883C341.474 231.011 341.287 231.188 341.151 231.415C341.014 231.643 340.946 231.905 340.946 232.202V236.307H339.301ZM353.071 231.17L351.571 231.334C351.528 231.182 351.454 231.04 351.348 230.906C351.245 230.773 351.106 230.665 350.93 230.583C350.754 230.502 350.539 230.461 350.284 230.461C349.942 230.461 349.654 230.535 349.421 230.683C349.19 230.832 349.077 231.024 349.08 231.261C349.077 231.464 349.151 231.629 349.302 231.756C349.457 231.884 349.711 231.988 350.066 232.07L351.257 232.325C351.918 232.467 352.409 232.693 352.73 233.002C353.054 233.311 353.218 233.716 353.221 234.216C353.218 234.655 353.089 235.043 352.835 235.38C352.583 235.713 352.233 235.974 351.785 236.162C351.336 236.35 350.821 236.444 350.239 236.444C349.384 236.444 348.696 236.265 348.175 235.907C347.654 235.546 347.343 235.045 347.243 234.402L348.848 234.248C348.92 234.563 349.075 234.801 349.311 234.961C349.548 235.122 349.855 235.202 350.234 235.202C350.625 235.202 350.939 235.122 351.175 234.961C351.415 234.801 351.535 234.602 351.535 234.366C351.535 234.166 351.457 234.001 351.303 233.87C351.151 233.74 350.915 233.64 350.593 233.57L349.402 233.32C348.733 233.181 348.237 232.946 347.916 232.616C347.594 232.282 347.435 231.861 347.438 231.352C347.435 230.921 347.552 230.549 347.788 230.233C348.028 229.915 348.36 229.67 348.784 229.497C349.211 229.321 349.704 229.233 350.262 229.233C351.08 229.233 351.724 229.407 352.194 229.756C352.667 230.105 352.959 230.576 353.071 231.17ZM359.029 233.37V229.324H360.675V236.307H359.079V235.066H359.006C358.849 235.457 358.59 235.777 358.229 236.025C357.871 236.274 357.43 236.398 356.906 236.398C356.448 236.398 356.044 236.297 355.692 236.093C355.344 235.887 355.071 235.589 354.874 235.198C354.677 234.804 354.578 234.328 354.578 233.77V229.324H356.224V233.516C356.224 233.958 356.345 234.31 356.588 234.57C356.83 234.831 357.148 234.961 357.542 234.961C357.785 234.961 358.02 234.902 358.247 234.784C358.474 234.666 358.661 234.49 358.806 234.257C358.955 234.02 359.029 233.725 359.029 233.37ZM362.367 236.307V229.324H363.94V230.511H364.022C364.167 230.111 364.408 229.798 364.745 229.574C365.081 229.347 365.483 229.233 365.95 229.233C366.422 229.233 366.821 229.348 367.145 229.579C367.473 229.806 367.703 230.117 367.836 230.511H367.909C368.064 230.123 368.324 229.814 368.691 229.583C369.061 229.35 369.499 229.233 370.005 229.233C370.647 229.233 371.172 229.436 371.578 229.842C371.984 230.248 372.187 230.841 372.187 231.62V236.307H370.537V231.875C370.537 231.441 370.422 231.124 370.191 230.924C369.961 230.721 369.679 230.62 369.346 230.62C368.949 230.62 368.638 230.744 368.414 230.993C368.192 231.238 368.082 231.558 368.082 231.952V236.307H366.468V231.806C366.468 231.446 366.359 231.158 366.141 230.943C365.925 230.727 365.643 230.62 365.295 230.62C365.058 230.62 364.843 230.68 364.649 230.802C364.455 230.92 364.301 231.088 364.186 231.306C364.07 231.521 364.013 231.773 364.013 232.061V236.307H362.367ZM380.078 236.444C379.396 236.444 378.805 236.293 378.305 235.993C377.805 235.693 377.417 235.274 377.141 234.734C376.869 234.195 376.732 233.564 376.732 232.843C376.732 232.122 376.869 231.49 377.141 230.947C377.417 230.405 377.805 229.983 378.305 229.683C378.805 229.383 379.396 229.233 380.078 229.233C380.76 229.233 381.351 229.383 381.851 229.683C382.351 229.983 382.738 230.405 383.011 230.947C383.286 231.49 383.424 232.122 383.424 232.843C383.424 233.564 383.286 234.195 383.011 234.734C382.738 235.274 382.351 235.693 381.851 235.993C381.351 236.293 380.76 236.444 380.078 236.444ZM380.087 235.125C380.457 235.125 380.766 235.024 381.015 234.821C381.263 234.614 381.448 234.339 381.569 233.993C381.694 233.648 381.756 233.263 381.756 232.838C381.756 232.411 381.694 232.025 381.569 231.679C381.448 231.33 381.263 231.053 381.015 230.847C380.766 230.641 380.457 230.538 380.087 230.538C379.708 230.538 379.393 230.641 379.142 230.847C378.893 231.053 378.707 231.33 378.582 231.679C378.461 232.025 378.401 232.411 378.401 232.838C378.401 233.263 378.461 233.648 378.582 233.993C378.707 234.339 378.893 234.614 379.142 234.821C379.393 235.024 379.708 235.125 380.087 235.125ZM388.358 229.324V230.597H384.23V229.324H388.358ZM385.262 236.307V228.665C385.262 228.195 385.359 227.804 385.553 227.492C385.75 227.18 386.014 226.946 386.344 226.792C386.674 226.637 387.041 226.56 387.444 226.56C387.729 226.56 387.982 226.583 388.203 226.628C388.425 226.674 388.588 226.715 388.694 226.751L388.367 228.024C388.297 228.003 388.21 227.981 388.103 227.96C387.997 227.936 387.879 227.924 387.749 227.924C387.443 227.924 387.226 227.998 387.099 228.147C386.974 228.292 386.912 228.501 386.912 228.774V236.307H385.262ZM394.468 232.215V236.307H392.822V229.324H394.395V230.511H394.477C394.638 230.12 394.894 229.809 395.246 229.579C395.6 229.348 396.038 229.233 396.56 229.233C397.041 229.233 397.461 229.336 397.819 229.542C398.179 229.748 398.458 230.047 398.655 230.438C398.855 230.829 398.954 231.303 398.951 231.861V236.307H397.305V232.115C397.305 231.649 397.184 231.284 396.941 231.02C396.702 230.756 396.37 230.624 395.946 230.624C395.658 230.624 395.402 230.688 395.177 230.815C394.956 230.94 394.782 231.12 394.655 231.356C394.53 231.593 394.468 231.879 394.468 232.215ZM405.075 233.37V229.324H406.72V236.307H405.125V235.066H405.052C404.894 235.457 404.635 235.777 404.275 236.025C403.917 236.274 403.476 236.398 402.952 236.398C402.494 236.398 402.089 236.297 401.738 236.093C401.389 235.887 401.116 235.589 400.919 235.198C400.722 234.804 400.624 234.328 400.624 233.77V229.324H402.27V233.516C402.27 233.958 402.391 234.31 402.633 234.57C402.876 234.831 403.194 234.961 403.588 234.961C403.83 234.961 404.065 234.902 404.293 234.784C404.52 234.666 404.706 234.49 404.852 234.257C405 234.02 405.075 233.725 405.075 233.37ZM408.413 236.307V229.324H409.986V230.511H410.068C410.213 230.111 410.454 229.798 410.79 229.574C411.127 229.347 411.528 229.233 411.995 229.233C412.468 229.233 412.867 229.348 413.191 229.579C413.518 229.806 413.749 230.117 413.882 230.511H413.955C414.109 230.123 414.37 229.814 414.737 229.583C415.106 229.35 415.544 229.233 416.05 229.233C416.693 229.233 417.217 229.436 417.623 229.842C418.03 230.248 418.233 230.841 418.233 231.62V236.307H416.582V231.875C416.582 231.441 416.467 231.124 416.237 230.924C416.006 230.721 415.725 230.62 415.391 230.62C414.994 230.62 414.684 230.744 414.459 230.993C414.238 231.238 414.127 231.558 414.127 231.952V236.307H412.513V231.806C412.513 231.446 412.404 231.158 412.186 230.943C411.971 230.727 411.689 230.62 411.341 230.62C411.104 230.62 410.889 230.68 410.695 230.802C410.501 230.92 410.346 231.088 410.231 231.306C410.116 231.521 410.058 231.773 410.058 232.061V236.307H408.413ZM419.975 236.307V226.996H421.621V230.479H421.689C421.774 230.309 421.894 230.129 422.048 229.938C422.203 229.744 422.412 229.579 422.675 229.442C422.939 229.303 423.276 229.233 423.685 229.233C424.224 229.233 424.711 229.371 425.144 229.647C425.581 229.92 425.926 230.324 426.181 230.861C426.438 231.394 426.567 232.049 426.567 232.825C426.567 233.591 426.441 234.243 426.19 234.78C425.938 235.316 425.596 235.725 425.162 236.007C424.729 236.289 424.238 236.43 423.689 236.43C423.289 236.43 422.957 236.363 422.694 236.23C422.43 236.096 422.218 235.936 422.057 235.748C421.9 235.557 421.777 235.377 421.689 235.207H421.593V236.307H419.975ZM421.589 232.816C421.589 233.267 421.653 233.663 421.78 234.002C421.91 234.342 422.097 234.607 422.339 234.798C422.585 234.986 422.882 235.08 423.23 235.08C423.594 235.08 423.898 234.983 424.144 234.789C424.389 234.592 424.574 234.323 424.699 233.984C424.826 233.642 424.89 233.252 424.89 232.816C424.89 232.382 424.827 231.997 424.703 231.661C424.579 231.324 424.394 231.061 424.148 230.87C423.903 230.679 423.597 230.583 423.23 230.583C422.879 230.583 422.58 230.676 422.335 230.861C422.089 231.046 421.903 231.305 421.775 231.638C421.651 231.972 421.589 232.364 421.589 232.816ZM431.058 236.444C430.358 236.444 429.753 236.298 429.244 236.007C428.738 235.713 428.348 235.298 428.075 234.761C427.803 234.222 427.666 233.587 427.666 232.857C427.666 232.138 427.803 231.508 428.075 230.965C428.351 230.42 428.736 229.995 429.23 229.692C429.724 229.386 430.304 229.233 430.971 229.233C431.402 229.233 431.808 229.303 432.19 229.442C432.575 229.579 432.914 229.791 433.208 230.079C433.505 230.367 433.738 230.733 433.908 231.179C434.078 231.621 434.163 232.149 434.163 232.761V233.266H428.439V232.156H432.585C432.582 231.841 432.514 231.561 432.381 231.315C432.247 231.067 432.061 230.871 431.821 230.729C431.585 230.586 431.309 230.515 430.994 230.515C430.658 230.515 430.362 230.597 430.107 230.761C429.853 230.921 429.654 231.133 429.512 231.397C429.372 231.658 429.301 231.944 429.298 232.256V233.225C429.298 233.631 429.372 233.979 429.521 234.27C429.67 234.558 429.877 234.78 430.144 234.934C430.411 235.086 430.723 235.161 431.08 235.161C431.32 235.161 431.537 235.128 431.73 235.061C431.924 234.992 432.093 234.89 432.235 234.757C432.378 234.623 432.485 234.458 432.558 234.261L434.095 234.434C433.998 234.84 433.813 235.195 433.54 235.498C433.27 235.798 432.925 236.031 432.503 236.198C432.082 236.362 431.6 236.444 431.058 236.444ZM435.555 236.307V229.324H437.151V230.488H437.223C437.351 230.085 437.569 229.774 437.878 229.556C438.19 229.335 438.546 229.224 438.947 229.224C439.037 229.224 439.139 229.229 439.251 229.238C439.366 229.244 439.462 229.254 439.538 229.27V230.783C439.468 230.759 439.357 230.738 439.206 230.72C439.057 230.699 438.913 230.688 438.774 230.688C438.474 230.688 438.204 230.753 437.965 230.883C437.728 231.011 437.542 231.188 437.405 231.415C437.269 231.643 437.201 231.905 437.201 232.202V236.307H435.555ZM446.15 231.17L444.65 231.334C444.607 231.182 444.533 231.04 444.427 230.906C444.324 230.773 444.185 230.665 444.009 230.583C443.833 230.502 443.618 230.461 443.363 230.461C443.021 230.461 442.733 230.535 442.499 230.683C442.269 230.832 442.155 231.024 442.158 231.261C442.155 231.464 442.23 231.629 442.381 231.756C442.536 231.884 442.79 231.988 443.145 232.07L444.336 232.325C444.997 232.467 445.488 232.693 445.809 233.002C446.133 233.311 446.297 233.716 446.3 234.216C446.297 234.655 446.168 235.043 445.914 235.38C445.662 235.713 445.312 235.974 444.863 236.162C444.415 236.35 443.9 236.444 443.318 236.444C442.463 236.444 441.775 236.265 441.254 235.907C440.732 235.546 440.422 235.045 440.322 234.402L441.927 234.248C441.999 234.563 442.154 234.801 442.39 234.961C442.627 235.122 442.934 235.202 443.313 235.202C443.704 235.202 444.018 235.122 444.254 234.961C444.494 234.801 444.613 234.602 444.613 234.366C444.613 234.166 444.536 234.001 444.382 233.87C444.23 233.74 443.994 233.64 443.672 233.57L442.481 233.32C441.811 233.181 441.316 232.946 440.995 232.616C440.673 232.282 440.514 231.861 440.517 231.352C440.514 230.921 440.631 230.549 440.867 230.233C441.107 229.915 441.439 229.67 441.863 229.497C442.29 229.321 442.783 229.233 443.34 229.233C444.159 229.233 444.803 229.407 445.273 229.756C445.745 230.105 446.038 230.576 446.15 231.17ZM452.478 232.215V236.307H450.833V226.996H452.442V230.511H452.524C452.688 230.117 452.941 229.806 453.283 229.579C453.629 229.348 454.068 229.233 454.602 229.233C455.087 229.233 455.509 229.335 455.87 229.538C456.231 229.741 456.509 230.038 456.706 230.429C456.907 230.82 457.007 231.297 457.007 231.861V236.307H455.361V232.115C455.361 231.646 455.24 231.28 454.997 231.02C454.758 230.756 454.421 230.624 453.988 230.624C453.697 230.624 453.436 230.688 453.206 230.815C452.979 230.94 452.8 231.12 452.669 231.356C452.542 231.593 452.478 231.879 452.478 232.215ZM461.776 236.444C461.075 236.444 460.471 236.298 459.962 236.007C459.455 235.713 459.066 235.298 458.793 234.761C458.52 234.222 458.384 233.587 458.384 232.857C458.384 232.138 458.52 231.508 458.793 230.965C459.069 230.42 459.454 229.995 459.948 229.692C460.442 229.386 461.022 229.233 461.689 229.233C462.12 229.233 462.526 229.303 462.908 229.442C463.292 229.579 463.632 229.791 463.926 230.079C464.223 230.367 464.456 230.733 464.626 231.179C464.796 231.621 464.881 232.149 464.881 232.761V233.266H459.157V232.156H463.303C463.3 231.841 463.232 231.561 463.099 231.315C462.965 231.067 462.779 230.871 462.539 230.729C462.303 230.586 462.027 230.515 461.712 230.515C461.375 230.515 461.08 230.597 460.825 230.761C460.571 230.921 460.372 231.133 460.23 231.397C460.09 231.658 460.019 231.944 460.016 232.256V233.225C460.016 233.631 460.09 233.979 460.239 234.27C460.387 234.558 460.595 234.78 460.862 234.934C461.128 235.086 461.441 235.161 461.798 235.161C462.038 235.161 462.254 235.128 462.448 235.061C462.642 234.992 462.811 234.89 462.953 234.757C463.095 234.623 463.203 234.458 463.276 234.261L464.812 234.434C464.715 234.84 464.531 235.195 464.258 235.498C463.988 235.798 463.643 236.031 463.221 236.198C462.8 236.362 462.318 236.444 461.776 236.444ZM466.273 236.307V229.324H467.869V230.488H467.941C468.069 230.085 468.287 229.774 468.596 229.556C468.908 229.335 469.264 229.224 469.664 229.224C469.755 229.224 469.857 229.229 469.969 229.238C470.084 229.244 470.18 229.254 470.255 229.27V230.783C470.186 230.759 470.075 230.738 469.924 230.72C469.775 230.699 469.631 230.688 469.492 230.688C469.192 230.688 468.922 230.753 468.682 230.883C468.446 231.011 468.26 231.188 468.123 231.415C467.987 231.643 467.919 231.905 467.919 232.202V236.307H466.273ZM474.153 236.444C473.453 236.444 472.848 236.298 472.339 236.007C471.833 235.713 471.443 235.298 471.17 234.761C470.898 234.222 470.761 233.587 470.761 232.857C470.761 232.138 470.898 231.508 471.17 230.965C471.446 230.42 471.831 229.995 472.325 229.692C472.819 229.386 473.4 229.233 474.066 229.233C474.497 229.233 474.903 229.303 475.285 229.442C475.67 229.579 476.009 229.791 476.303 230.079C476.6 230.367 476.834 230.733 477.003 231.179C477.173 231.621 477.258 232.149 477.258 232.761V233.266H471.534V232.156H475.68C475.677 231.841 475.609 231.561 475.476 231.315C475.342 231.067 475.156 230.871 474.917 230.729C474.68 230.586 474.404 230.515 474.089 230.515C473.753 230.515 473.457 230.597 473.203 230.761C472.948 230.921 472.749 231.133 472.607 231.397C472.468 231.658 472.396 231.944 472.393 232.256V233.225C472.393 233.631 472.468 233.979 472.616 234.27C472.765 234.558 472.972 234.78 473.239 234.934C473.506 235.086 473.818 235.161 474.175 235.161C474.415 235.161 474.632 235.128 474.826 235.061C475.02 234.992 475.188 234.89 475.33 234.757C475.473 234.623 475.58 234.458 475.653 234.261L477.19 234.434C477.093 234.84 476.908 235.195 476.635 235.498C476.365 235.798 476.02 236.031 475.598 236.198C475.177 236.362 474.695 236.444 474.153 236.444Z" fill="#B5B5B5"/>
<rect x="294.572" y="214.544" width="199.858" height="34.5257" rx="10.7905" stroke="#D8D1D8" stroke-width="1.02767"/>
</g>
</g>
<g filter="url(#filter1_dd_3986_8973)">
<rect x="20.2148" y="76.1978" width="355.903" height="89.172" rx="10.2418" fill="white"/>
<rect x="41.3393" y="106.701" width="28.165" height="28.165" rx="4.48079" stroke="#A5A2A5" stroke-width="1.28023"/>
<path d="M86.8964 110.939V125.061H84.3382V110.939H86.8964ZM91.6732 110.939V112.346C91.6732 112.75 91.595 113.171 91.4387 113.608C91.287 114.04 91.0779 114.454 90.8113 114.849C90.5446 115.24 90.2412 115.575 89.9011 115.856L88.7426 115.104C88.9955 114.723 89.2161 114.311 89.4046 113.87C89.5931 113.424 89.6873 112.921 89.6873 112.36V110.939H91.6732ZM93.2919 125.061V114.47H95.6777V116.269H95.8018C96.0225 115.663 96.3879 115.189 96.8982 114.849C97.4084 114.504 98.0175 114.332 98.7255 114.332C99.4426 114.332 100.047 114.506 100.539 114.856C101.035 115.201 101.385 115.672 101.587 116.269H101.697C101.932 115.681 102.327 115.212 102.883 114.863C103.444 114.509 104.108 114.332 104.876 114.332C105.851 114.332 106.646 114.64 107.262 115.256C107.878 115.872 108.186 116.77 108.186 117.952V125.061H105.683V118.338C105.683 117.681 105.508 117.2 105.159 116.897C104.81 116.589 104.382 116.435 103.876 116.435C103.274 116.435 102.803 116.623 102.463 117C102.127 117.373 101.959 117.858 101.959 118.455V125.061H99.5115V118.235C99.5115 117.688 99.3461 117.251 99.0151 116.924C98.6887 116.598 98.2612 116.435 97.7325 116.435C97.374 116.435 97.0476 116.527 96.7534 116.711C96.4592 116.89 96.2247 117.145 96.05 117.476C95.8754 117.802 95.788 118.184 95.788 118.621V125.061H93.2919ZM118.031 118.855V125.061H115.535V114.47H117.921V116.269H118.045C118.288 115.676 118.677 115.205 119.21 114.856C119.748 114.506 120.412 114.332 121.203 114.332C121.934 114.332 122.57 114.488 123.113 114.801C123.66 115.113 124.083 115.566 124.382 116.159C124.685 116.752 124.834 117.471 124.83 118.317V125.061H122.334V118.703C122.334 117.996 122.15 117.442 121.782 117.042C121.419 116.642 120.915 116.442 120.272 116.442C119.835 116.442 119.447 116.538 119.107 116.731C118.771 116.92 118.507 117.193 118.314 117.552C118.125 117.91 118.031 118.345 118.031 118.855ZM131.987 125.268C130.953 125.268 130.057 125.04 129.298 124.585C128.54 124.13 127.951 123.493 127.533 122.675C127.119 121.857 126.912 120.901 126.912 119.807C126.912 118.713 127.119 117.754 127.533 116.931C127.951 116.108 128.54 115.47 129.298 115.014C130.057 114.559 130.953 114.332 131.987 114.332C133.022 114.332 133.918 114.559 134.676 115.014C135.435 115.47 136.021 116.108 136.435 116.931C136.853 117.754 137.062 118.713 137.062 119.807C137.062 120.901 136.853 121.857 136.435 122.675C136.021 123.493 135.435 124.13 134.676 124.585C133.918 125.04 133.022 125.268 131.987 125.268ZM132.001 123.268C132.562 123.268 133.031 123.114 133.408 122.806C133.785 122.494 134.065 122.075 134.249 121.551C134.437 121.027 134.532 120.443 134.532 119.8C134.532 119.152 134.437 118.566 134.249 118.042C134.065 117.513 133.785 117.092 133.408 116.78C133.031 116.467 132.562 116.311 132.001 116.311C131.426 116.311 130.948 116.467 130.567 116.78C130.19 117.092 129.907 117.513 129.719 118.042C129.535 118.566 129.443 119.152 129.443 119.8C129.443 120.443 129.535 121.027 129.719 121.551C129.907 122.075 130.19 122.494 130.567 122.806C130.948 123.114 131.426 123.268 132.001 123.268ZM144.47 114.47V116.4H138.381V114.47H144.47ZM139.884 111.932H142.38V121.875C142.38 122.211 142.431 122.468 142.532 122.648C142.638 122.822 142.776 122.942 142.946 123.006C143.116 123.071 143.304 123.103 143.511 123.103C143.667 123.103 143.81 123.091 143.939 123.068C144.072 123.045 144.173 123.025 144.242 123.006L144.663 124.958C144.529 125.004 144.339 125.054 144.09 125.109C143.847 125.164 143.548 125.197 143.194 125.206C142.569 125.224 142.006 125.13 141.505 124.923C141.004 124.712 140.606 124.385 140.312 123.944C140.022 123.503 139.88 122.951 139.884 122.289V111.932ZM154.421 125.275C153.75 125.275 153.146 125.155 152.608 124.916C152.075 124.673 151.652 124.314 151.339 123.841C151.031 123.367 150.877 122.783 150.877 122.089C150.877 121.492 150.988 120.997 151.208 120.607C151.429 120.216 151.73 119.903 152.111 119.669C152.493 119.434 152.923 119.257 153.401 119.138C153.884 119.014 154.382 118.924 154.897 118.869C155.518 118.805 156.021 118.747 156.407 118.697C156.793 118.641 157.074 118.559 157.249 118.448C157.428 118.333 157.518 118.156 157.518 117.917V117.876C157.518 117.357 157.364 116.954 157.056 116.669C156.748 116.384 156.304 116.242 155.725 116.242C155.113 116.242 154.628 116.375 154.27 116.642C153.916 116.908 153.677 117.223 153.553 117.586L151.222 117.255C151.406 116.612 151.709 116.074 152.132 115.642C152.555 115.205 153.072 114.879 153.684 114.663C154.295 114.442 154.971 114.332 155.711 114.332C156.221 114.332 156.729 114.392 157.235 114.511C157.74 114.631 158.202 114.828 158.621 115.104C159.039 115.375 159.375 115.745 159.627 116.214C159.885 116.683 160.014 117.269 160.014 117.973V125.061H157.614V123.606H157.531C157.38 123.9 157.166 124.176 156.89 124.434C156.619 124.686 156.276 124.891 155.863 125.047C155.453 125.199 154.973 125.275 154.421 125.275ZM155.07 123.441C155.571 123.441 156.005 123.342 156.373 123.144C156.741 122.942 157.023 122.675 157.221 122.344C157.423 122.013 157.524 121.652 157.524 121.262V120.014C157.446 120.078 157.313 120.138 157.124 120.193C156.941 120.248 156.734 120.296 156.504 120.338C156.274 120.379 156.046 120.416 155.821 120.448C155.596 120.48 155.401 120.508 155.235 120.531C154.863 120.581 154.529 120.664 154.235 120.779C153.941 120.894 153.709 121.055 153.539 121.262C153.369 121.464 153.284 121.726 153.284 122.048C153.284 122.507 153.452 122.855 153.787 123.089C154.123 123.323 154.55 123.441 155.07 123.441ZM167.34 125.061V114.47H169.76V116.235H169.871C170.064 115.624 170.395 115.152 170.864 114.821C171.337 114.486 171.877 114.318 172.484 114.318C172.622 114.318 172.776 114.325 172.946 114.339C173.121 114.348 173.265 114.364 173.38 114.387V116.683C173.275 116.646 173.107 116.614 172.877 116.587C172.652 116.554 172.433 116.538 172.222 116.538C171.767 116.538 171.358 116.637 170.995 116.835C170.636 117.028 170.353 117.297 170.146 117.642C169.94 117.986 169.836 118.384 169.836 118.834V125.061H167.34ZM179.223 125.268C178.188 125.268 177.292 125.04 176.533 124.585C175.775 124.13 175.186 123.493 174.768 122.675C174.354 121.857 174.148 120.901 174.148 119.807C174.148 118.713 174.354 117.754 174.768 116.931C175.186 116.108 175.775 115.47 176.533 115.014C177.292 114.559 178.188 114.332 179.223 114.332C180.257 114.332 181.153 114.559 181.912 115.014C182.67 115.47 183.256 116.108 183.67 116.931C184.088 117.754 184.298 118.713 184.298 119.807C184.298 120.901 184.088 121.857 183.67 122.675C183.256 123.493 182.67 124.13 181.912 124.585C181.153 125.04 180.257 125.268 179.223 125.268ZM179.236 123.268C179.797 123.268 180.266 123.114 180.643 122.806C181.02 122.494 181.3 122.075 181.484 121.551C181.673 121.027 181.767 120.443 181.767 119.8C181.767 119.152 181.673 118.566 181.484 118.042C181.3 117.513 181.02 117.092 180.643 116.78C180.266 116.467 179.797 116.311 179.236 116.311C178.662 116.311 178.184 116.467 177.802 116.78C177.425 117.092 177.142 117.513 176.954 118.042C176.77 118.566 176.678 119.152 176.678 119.8C176.678 120.443 176.77 121.027 176.954 121.551C177.142 122.075 177.425 122.494 177.802 122.806C178.184 123.114 178.662 123.268 179.236 123.268ZM186.527 125.061V110.939H189.023V116.221H189.126C189.255 115.964 189.436 115.69 189.671 115.401C189.905 115.106 190.222 114.856 190.622 114.649C191.022 114.437 191.533 114.332 192.153 114.332C192.971 114.332 193.709 114.541 194.367 114.959C195.029 115.373 195.553 115.987 195.939 116.8C196.329 117.609 196.525 118.602 196.525 119.779C196.525 120.942 196.334 121.931 195.953 122.744C195.571 123.558 195.052 124.178 194.394 124.606C193.737 125.033 192.992 125.247 192.16 125.247C191.553 125.247 191.05 125.146 190.65 124.944C190.25 124.742 189.928 124.498 189.685 124.213C189.446 123.923 189.259 123.65 189.126 123.392H188.981V125.061H186.527ZM188.974 119.765C188.974 120.45 189.071 121.05 189.264 121.565C189.462 122.08 189.744 122.482 190.112 122.772C190.484 123.057 190.935 123.199 191.464 123.199C192.015 123.199 192.477 123.052 192.85 122.758C193.222 122.459 193.502 122.052 193.691 121.537C193.884 121.018 193.98 120.427 193.98 119.765C193.98 119.108 193.886 118.524 193.698 118.014C193.509 117.504 193.229 117.104 192.857 116.814C192.484 116.525 192.02 116.38 191.464 116.38C190.93 116.38 190.478 116.52 190.105 116.8C189.733 117.081 189.45 117.474 189.257 117.979C189.069 118.485 188.974 119.08 188.974 119.765ZM203.267 125.268C202.233 125.268 201.336 125.04 200.578 124.585C199.819 124.13 199.231 123.493 198.812 122.675C198.399 121.857 198.192 120.901 198.192 119.807C198.192 118.713 198.399 117.754 198.812 116.931C199.231 116.108 199.819 115.47 200.578 115.014C201.336 114.559 202.233 114.332 203.267 114.332C204.301 114.332 205.198 114.559 205.956 115.014C206.715 115.47 207.301 116.108 207.714 116.931C208.133 117.754 208.342 118.713 208.342 119.807C208.342 120.901 208.133 121.857 207.714 122.675C207.301 123.493 206.715 124.13 205.956 124.585C205.198 125.04 204.301 125.268 203.267 125.268ZM203.281 123.268C203.841 123.268 204.31 123.114 204.687 122.806C205.064 122.494 205.345 122.075 205.529 121.551C205.717 121.027 205.811 120.443 205.811 119.8C205.811 119.152 205.717 118.566 205.529 118.042C205.345 117.513 205.064 117.092 204.687 116.78C204.31 116.467 203.841 116.311 203.281 116.311C202.706 116.311 202.228 116.467 201.846 116.78C201.469 117.092 201.187 117.513 200.998 118.042C200.814 118.566 200.722 119.152 200.722 119.8C200.722 120.443 200.814 121.027 200.998 121.551C201.187 122.075 201.469 122.494 201.846 122.806C202.228 123.114 202.706 123.268 203.281 123.268ZM215.749 114.47V116.4H209.661V114.47H215.749ZM211.164 111.932H213.66V121.875C213.66 122.211 213.711 122.468 213.812 122.648C213.917 122.822 214.055 122.942 214.225 123.006C214.395 123.071 214.584 123.103 214.791 123.103C214.947 123.103 215.09 123.091 215.218 123.068C215.352 123.045 215.453 123.025 215.522 123.006L215.942 124.958C215.809 125.004 215.618 125.054 215.37 125.109C215.126 125.164 214.828 125.197 214.474 125.206C213.848 125.224 213.285 125.13 212.784 124.923C212.283 124.712 211.886 124.385 211.591 123.944C211.302 123.503 211.159 122.951 211.164 122.289V111.932Z" fill="#484455"/>
<path d="M311.487 115.07C316.404 121.549 319.962 122.549 328.13 118.341L336.807 126.876C323.185 135.808 315.622 136.628 302.383 124.031L298.258 128.441V110.802H315.47L311.487 115.07Z" fill="#C3C3C3"/>
<path d="M339.081 97.147C332.98 89.7571 328.756 88.7952 321.016 87.9009V100.134C325.252 100.802 327.386 101.74 329.977 106.251L325.994 110.376H343.064V92.8795L339.081 97.147Z" fill="#B569B5"/>
<path d="M316.75 101.273C312.56 103.718 311.279 105.812 310.633 110.661H298.258C298.962 102.333 300.988 98.3051 307.646 92.311L303.521 87.9014H321.017V105.54L316.75 101.273Z" fill="#C97BC9"/>
<path d="M283.506 150.667V143.683H285.101V144.847H285.174C285.302 144.444 285.52 144.134 285.829 143.915C286.141 143.694 286.497 143.583 286.897 143.583C286.988 143.583 287.09 143.588 287.202 143.597C287.317 143.603 287.413 143.614 287.488 143.629V145.143C287.419 145.119 287.308 145.097 287.156 145.079C287.008 145.058 286.864 145.047 286.725 145.047C286.424 145.047 286.155 145.112 285.915 145.243C285.679 145.37 285.492 145.547 285.356 145.775C285.22 146.002 285.152 146.264 285.152 146.561V150.667H283.506ZM291.386 150.803C290.685 150.803 290.081 150.657 289.572 150.366C289.065 150.072 288.676 149.657 288.403 149.121C288.13 148.581 287.994 147.946 287.994 147.216C287.994 146.498 288.13 145.867 288.403 145.325C288.679 144.779 289.064 144.355 289.558 144.052C290.052 143.746 290.632 143.593 291.299 143.593C291.73 143.593 292.136 143.662 292.518 143.802C292.902 143.938 293.242 144.15 293.536 144.438C293.833 144.726 294.066 145.093 294.236 145.538C294.406 145.981 294.491 146.508 294.491 147.12V147.625H288.767V146.516H292.913C292.91 146.201 292.842 145.92 292.709 145.675C292.575 145.426 292.389 145.231 292.149 145.088C291.913 144.946 291.637 144.875 291.322 144.875C290.985 144.875 290.69 144.956 290.435 145.12C290.181 145.281 289.982 145.493 289.84 145.757C289.7 146.017 289.629 146.304 289.626 146.616V147.584C289.626 147.99 289.7 148.339 289.849 148.63C289.997 148.918 290.205 149.139 290.472 149.294C290.738 149.445 291.051 149.521 291.408 149.521C291.648 149.521 291.864 149.488 292.058 149.421C292.252 149.351 292.421 149.25 292.563 149.116C292.705 148.983 292.813 148.818 292.886 148.621L294.422 148.793C294.325 149.2 294.141 149.554 293.868 149.857C293.598 150.157 293.253 150.391 292.831 150.557C292.41 150.721 291.928 150.803 291.386 150.803ZM303.925 144.497H302.225C302.176 144.218 302.087 143.971 301.957 143.756C301.826 143.538 301.664 143.353 301.47 143.202C301.276 143.05 301.055 142.936 300.807 142.861C300.561 142.782 300.296 142.742 300.011 142.742C299.505 142.742 299.056 142.87 298.665 143.124C298.274 143.376 297.968 143.746 297.747 144.234C297.526 144.718 297.415 145.311 297.415 146.011C297.415 146.723 297.526 147.323 297.747 147.811C297.971 148.296 298.277 148.663 298.665 148.912C299.056 149.157 299.503 149.28 300.006 149.28C300.285 149.28 300.546 149.244 300.788 149.171C301.034 149.095 301.254 148.984 301.448 148.839C301.645 148.693 301.81 148.515 301.943 148.302C302.079 148.09 302.173 147.848 302.225 147.575L303.925 147.584C303.862 148.027 303.724 148.442 303.512 148.83C303.302 149.218 303.028 149.56 302.689 149.857C302.349 150.151 301.952 150.382 301.498 150.548C301.043 150.712 300.538 150.794 299.984 150.794C299.165 150.794 298.435 150.604 297.792 150.226C297.15 149.847 296.644 149.3 296.274 148.584C295.904 147.869 295.719 147.011 295.719 146.011C295.719 145.008 295.906 144.15 296.278 143.438C296.651 142.723 297.159 142.176 297.801 141.797C298.444 141.418 299.171 141.228 299.984 141.228C300.502 141.228 300.984 141.301 301.429 141.447C301.875 141.592 302.272 141.806 302.62 142.088C302.969 142.367 303.255 142.709 303.48 143.115C303.707 143.518 303.856 143.979 303.925 144.497ZM306.553 150.667H304.753L308.031 141.356H310.113L313.395 150.667H311.595L309.108 143.265H309.035L306.553 150.667ZM306.612 147.016H311.522V148.371H306.612V147.016ZM314.621 150.667V141.356H318.113C318.828 141.356 319.428 141.489 319.913 141.756C320.401 142.023 320.77 142.389 321.018 142.856C321.27 143.32 321.395 143.847 321.395 144.438C321.395 145.035 321.27 145.566 321.018 146.029C320.767 146.493 320.395 146.858 319.904 147.125C319.413 147.389 318.809 147.52 318.09 147.52H315.776V146.134H317.863C318.281 146.134 318.624 146.061 318.89 145.916C319.157 145.77 319.354 145.57 319.481 145.316C319.612 145.061 319.677 144.768 319.677 144.438C319.677 144.108 319.612 143.817 319.481 143.565C319.354 143.314 319.156 143.118 318.886 142.979C318.619 142.836 318.275 142.765 317.854 142.765H316.308V150.667H314.621ZM322.451 142.77V141.356H329.88V142.77H327.002V150.667H325.329V142.77H322.451ZM338.869 144.497H337.169C337.12 144.218 337.031 143.971 336.9 143.756C336.77 143.538 336.608 143.353 336.414 143.202C336.22 143.05 335.999 142.936 335.75 142.861C335.505 142.782 335.24 142.742 334.955 142.742C334.448 142.742 334 142.87 333.609 143.124C333.218 143.376 332.912 143.746 332.691 144.234C332.469 144.718 332.359 145.311 332.359 146.011C332.359 146.723 332.469 147.323 332.691 147.811C332.915 148.296 333.221 148.663 333.609 148.912C334 149.157 334.447 149.28 334.95 149.28C335.229 149.28 335.49 149.244 335.732 149.171C335.978 149.095 336.197 148.984 336.391 148.839C336.588 148.693 336.753 148.515 336.887 148.302C337.023 148.09 337.117 147.848 337.169 147.575L338.869 147.584C338.805 148.027 338.667 148.442 338.455 148.83C338.246 149.218 337.972 149.56 337.632 149.857C337.293 150.151 336.896 150.382 336.441 150.548C335.987 150.712 335.482 150.794 334.927 150.794C334.109 150.794 333.379 150.604 332.736 150.226C332.094 149.847 331.587 149.3 331.218 148.584C330.848 147.869 330.663 147.011 330.663 146.011C330.663 145.008 330.849 144.15 331.222 143.438C331.595 142.723 332.103 142.176 332.745 141.797C333.388 141.418 334.115 141.228 334.927 141.228C335.446 141.228 335.928 141.301 336.373 141.447C336.819 141.592 337.216 141.806 337.564 142.088C337.913 142.367 338.199 142.709 338.423 143.115C338.651 143.518 338.799 143.979 338.869 144.497ZM340.414 150.667V141.356H342.1V145.297H346.415V141.356H348.106V150.667H346.415V146.711H342.1V150.667H340.414ZM351.136 150.667H349.336L352.613 141.356H354.696L357.978 150.667H356.178L353.691 143.265H353.618L351.136 150.667ZM351.195 147.016H356.105V148.371H351.195V147.016Z" fill="#797979"/>
</g>
<g filter="url(#filter2_dd_3986_8973)">
<g clip-path="url(#clip2_3986_8973)">
<rect x="329.543" y="290.98" width="275.415" height="96.6008" rx="10.2418" fill="white"/>
<path d="M371.383 319.966C371.554 319.915 371.665 319.915 371.726 319.976C371.796 320.026 371.796 320.117 371.756 320.268C371.706 320.409 371.625 320.54 371.504 320.661C371.383 320.762 371.242 320.833 371.061 320.893L365.557 322.828C365.376 322.899 365.245 322.899 365.164 322.828C365.104 322.738 365.093 322.607 365.154 322.435C365.224 322.254 365.356 322.052 365.557 321.831L372.068 315.349L368.158 316.055C367.996 316.085 367.896 316.065 367.835 315.994C367.795 315.914 367.805 315.813 367.865 315.662C367.936 315.501 368.027 315.359 368.148 315.259C368.279 315.138 368.42 315.067 368.571 315.047L373.288 314.392C373.449 314.382 373.58 314.412 373.651 314.503C373.722 314.573 373.742 314.674 373.691 314.805C373.641 314.936 373.53 315.077 373.379 315.218L366.988 321.377L371.383 319.966ZM374.125 320.178C373.923 320.218 373.782 320.198 373.701 320.117C373.611 320.036 373.611 319.905 373.671 319.734C373.671 319.734 374.357 317.708 375.153 315.833C375.748 313.999 375.687 312.063 375.687 312.063C375.667 311.912 375.697 311.791 375.788 311.711C375.868 311.62 376 311.58 376.171 311.6C376.332 311.62 376.473 311.691 376.594 311.801C376.715 311.902 376.776 312.023 376.796 312.184C376.796 312.184 376.876 314.059 376.362 315.823C375.586 317.617 374.941 319.543 374.941 319.543C374.891 319.714 374.79 319.855 374.649 319.966C374.498 320.077 374.316 320.147 374.125 320.178ZM382.239 314.251C381.725 314.069 381.342 314.079 381.09 314.22C380.828 314.352 380.717 314.624 380.707 315.037L380.676 315.37L382.279 316.005C382.43 316.085 382.551 316.186 382.622 316.307C382.692 316.408 382.712 316.519 382.682 316.619C382.662 316.73 382.602 316.791 382.501 316.791C382.4 316.801 382.259 316.771 382.108 316.69L380.515 316.025L379.396 319.966C379.366 320.107 379.275 320.208 379.114 320.258C378.963 320.319 378.792 320.329 378.58 320.309C378.368 320.278 378.207 320.228 378.076 320.137C377.975 320.036 377.935 319.915 377.975 319.764L379.326 315.682L378.378 315.4C378.217 315.349 378.096 315.289 378.026 315.208C377.955 315.118 377.935 315.027 377.965 314.926C377.985 314.815 378.046 314.735 378.136 314.704C378.247 314.664 378.378 314.664 378.54 314.714L379.487 315.017L379.507 314.825C379.527 314.18 379.699 313.727 380.092 313.505C380.465 313.273 381.08 313.253 381.916 313.444L382.279 313.555C382.541 313.646 382.712 313.747 382.823 313.858C382.944 313.969 383.025 314.11 383.055 314.251C383.085 314.493 382.944 314.543 382.612 314.402L382.239 314.251ZM392.681 322.667C392.863 322.707 393.034 322.768 393.175 322.839C393.336 322.919 393.427 323 393.457 323.07C393.508 323.191 393.246 323.222 392.671 323.171C392.066 323.131 391.421 323.08 390.746 323C390.06 322.919 389.395 322.828 388.76 322.707C386.896 322.324 385.464 321.81 384.456 321.135C383.489 320.47 383.065 319.784 383.085 319.039C383.106 318.555 383.307 318.192 383.66 317.96C383.993 317.718 384.456 317.617 385.041 317.658C385.656 317.708 386.371 317.9 387.198 318.232C388.418 318.666 389.526 319.19 390.504 319.794C391.532 320.389 392.258 320.994 392.651 321.579C392.721 321.689 392.711 321.76 392.631 321.78C392.54 321.8 392.349 321.78 392.076 321.73L384.728 319.714C384.94 320.772 386.21 321.619 388.68 322.183C389.315 322.324 389.889 322.415 390.343 322.466C390.816 322.506 391.31 322.546 391.834 322.576C392.248 322.597 392.53 322.627 392.681 322.667ZM387.41 318.867C386.573 318.555 385.938 318.444 385.484 318.514C385.021 318.585 384.769 318.847 384.728 319.26L390.968 321.105C390.696 320.661 390.242 320.258 389.617 319.885C389.002 319.492 388.256 319.159 387.41 318.867ZM406.047 326.245C406.228 326.316 406.389 326.407 406.52 326.518C406.672 326.628 406.762 326.739 406.803 326.85L407.468 329.38C407.498 329.541 407.468 329.642 407.377 329.683C407.307 329.733 407.155 329.723 406.924 329.672C406.44 329.572 405.845 329.39 405.119 329.108C404.414 328.836 403.688 328.513 402.952 328.15C401.561 327.445 400.311 326.659 399.233 325.903C398.134 325.157 397.217 324.411 396.471 323.675C395.685 322.98 395.09 322.294 394.677 321.639C394.233 320.994 394.133 320.52 394.385 320.218C394.606 319.875 395.141 319.694 395.997 319.714C396.784 319.714 397.872 319.926 399.273 320.419C400.221 320.742 401.138 321.125 402.015 321.599C402.892 322.083 403.708 322.597 404.434 323.151C404.746 323.383 404.948 323.574 405.059 323.736C405.14 323.857 405.16 323.947 405.119 323.998C405.079 324.048 404.988 324.038 404.827 323.967C404.686 323.907 404.484 323.786 404.222 323.605C403.366 323.02 402.62 322.556 402.005 322.224C401.37 321.871 400.705 321.568 399.969 321.296C398.306 320.692 397.237 320.561 396.683 320.772C396.088 320.944 396.078 321.458 396.632 322.324C397.076 323.181 397.792 324.038 398.84 324.895C399.858 325.782 401.208 326.659 402.872 327.495C404.071 328.08 405.129 328.493 406.067 328.745L405.512 326.608L402.65 325.318C402.428 325.217 402.227 325.096 402.065 324.975C401.904 324.865 401.803 324.754 401.763 324.663C401.712 324.562 401.743 324.512 401.864 324.522C401.975 324.522 402.146 324.572 402.378 324.663L406.047 326.245ZM414.07 320.984C414.221 320.853 414.352 320.813 414.473 320.873C414.594 320.893 414.695 321.004 414.776 321.185C414.776 321.185 416.167 323.413 417.608 325.479C418.787 327.405 419.463 329.38 419.463 329.38C419.503 329.531 419.493 329.672 419.442 329.814C419.392 329.955 419.301 330.066 419.16 330.156C419.029 330.237 418.918 330.247 418.828 330.197C418.737 330.146 418.676 330.055 418.646 329.904L415.259 323.635L415.753 329.703C415.673 329.935 415.521 330.055 415.28 330.076C415.048 330.096 414.846 330.015 414.665 329.824L409.655 325.681L411.58 330.872C411.6 330.993 411.56 331.084 411.459 331.154C411.369 331.225 411.228 331.265 411.026 331.255C410.845 331.245 410.683 331.194 410.572 331.114C410.451 331.023 410.391 330.922 410.371 330.791C410.371 330.791 410.099 329.158 409.605 327.526C408.688 325.782 407.428 323.867 407.428 323.867C407.317 323.705 407.297 323.594 407.347 323.534C407.397 323.463 407.528 323.463 407.74 323.524C408.002 323.605 408.304 323.766 408.627 324.048L415.068 329.078L413.909 321.81C413.858 321.609 413.858 321.437 413.878 321.327C413.909 321.185 413.979 321.075 414.07 320.984Z" fill="black"/>
<path d="M371.567 362.793V353.482H377.622V354.896H373.253V357.424H377.309V358.838H373.253V361.379H377.659V362.793H371.567ZM380.916 358.701V362.793H379.27V355.81H380.843V356.996H380.925C381.086 356.606 381.342 356.295 381.694 356.065C382.048 355.834 382.486 355.719 383.007 355.719C383.489 355.719 383.909 355.822 384.267 356.028C384.627 356.234 384.906 356.533 385.103 356.924C385.303 357.315 385.402 357.789 385.399 358.347V362.793H383.753V358.601C383.753 358.135 383.632 357.769 383.389 357.506C383.15 357.242 382.818 357.11 382.394 357.11C382.106 357.11 381.85 357.174 381.625 357.301C381.404 357.425 381.23 357.606 381.103 357.842C380.978 358.079 380.916 358.365 380.916 358.701ZM390.559 355.81V357.083H386.544V355.81H390.559ZM387.536 354.137H389.181V360.693C389.181 360.914 389.215 361.084 389.281 361.202C389.351 361.317 389.442 361.396 389.554 361.438C389.666 361.481 389.79 361.502 389.927 361.502C390.03 361.502 390.124 361.494 390.209 361.479C390.297 361.464 390.363 361.45 390.409 361.438L390.686 362.725C390.598 362.755 390.472 362.788 390.309 362.825C390.148 362.861 389.951 362.882 389.718 362.888C389.306 362.901 388.934 362.838 388.604 362.702C388.274 362.563 388.011 362.347 387.817 362.056C387.626 361.766 387.532 361.402 387.536 360.965V354.137ZM394.952 362.929C394.251 362.929 393.647 362.784 393.138 362.493C392.631 362.199 392.242 361.784 391.969 361.247C391.696 360.708 391.56 360.073 391.56 359.342C391.56 358.624 391.696 357.994 391.969 357.451C392.245 356.906 392.63 356.481 393.124 356.178C393.618 355.872 394.198 355.719 394.865 355.719C395.296 355.719 395.702 355.789 396.084 355.928C396.469 356.065 396.808 356.277 397.102 356.565C397.399 356.853 397.632 357.219 397.802 357.665C397.972 358.107 398.057 358.635 398.057 359.247V359.752H392.333V358.642H396.479C396.476 358.327 396.408 358.047 396.275 357.801C396.141 357.553 395.955 357.357 395.715 357.215C395.479 357.072 395.203 357.001 394.888 357.001C394.552 357.001 394.256 357.083 394.001 357.247C393.747 357.407 393.548 357.619 393.406 357.883C393.266 358.144 393.195 358.43 393.192 358.742V359.711C393.192 360.117 393.266 360.465 393.415 360.756C393.563 361.044 393.771 361.265 394.038 361.42C394.305 361.572 394.617 361.647 394.974 361.647C395.214 361.647 395.43 361.614 395.624 361.547C395.818 361.478 395.987 361.376 396.129 361.243C396.272 361.109 396.379 360.944 396.452 360.747L397.988 360.92C397.892 361.326 397.707 361.681 397.434 361.984C397.164 362.284 396.819 362.517 396.397 362.684C395.976 362.848 395.494 362.929 394.952 362.929ZM399.449 362.793V355.81H401.045V356.974H401.117C401.245 356.571 401.463 356.26 401.772 356.042C402.084 355.821 402.44 355.71 402.84 355.71C402.931 355.71 403.033 355.714 403.145 355.724C403.26 355.73 403.356 355.74 403.431 355.755V357.269C403.362 357.245 403.251 357.224 403.1 357.206C402.951 357.184 402.807 357.174 402.668 357.174C402.368 357.174 402.098 357.239 401.858 357.369C401.622 357.497 401.436 357.674 401.299 357.901C401.163 358.129 401.095 358.391 401.095 358.688V362.793H399.449ZM411.187 355.81V357.083H407.173V355.81H411.187ZM408.164 354.137H409.81V360.693C409.81 360.914 409.843 361.084 409.91 361.202C409.98 361.317 410.071 361.396 410.183 361.438C410.295 361.481 410.419 361.502 410.555 361.502C410.659 361.502 410.752 361.494 410.837 361.479C410.925 361.464 410.992 361.45 411.037 361.438L411.315 362.725C411.227 362.755 411.101 362.788 410.937 362.825C410.777 362.861 410.58 362.882 410.346 362.888C409.934 362.901 409.563 362.838 409.233 362.702C408.902 362.563 408.64 362.347 408.446 362.056C408.255 361.766 408.161 361.402 408.164 360.965V354.137ZM415.58 362.929C414.88 362.929 414.275 362.784 413.766 362.493C413.26 362.199 412.871 361.784 412.598 361.247C412.325 360.708 412.189 360.073 412.189 359.342C412.189 358.624 412.325 357.994 412.598 357.451C412.874 356.906 413.259 356.481 413.753 356.178C414.247 355.872 414.827 355.719 415.494 355.719C415.924 355.719 416.33 355.789 416.712 355.928C417.097 356.065 417.437 356.277 417.731 356.565C418.028 356.853 418.261 357.219 418.431 357.665C418.6 358.107 418.685 358.635 418.685 359.247V359.752H412.962V358.642H417.108C417.105 358.327 417.037 358.047 416.903 357.801C416.77 357.553 416.583 357.357 416.344 357.215C416.108 357.072 415.832 357.001 415.517 357.001C415.18 357.001 414.885 357.083 414.63 357.247C414.375 357.407 414.177 357.619 414.035 357.883C413.895 358.144 413.824 358.43 413.821 358.742V359.711C413.821 360.117 413.895 360.465 414.044 360.756C414.192 361.044 414.4 361.265 414.666 361.42C414.933 361.572 415.245 361.647 415.603 361.647C415.842 361.647 416.059 361.614 416.253 361.547C416.447 361.478 416.615 361.376 416.758 361.243C416.9 361.109 417.008 360.944 417.08 360.747L418.617 360.92C418.52 361.326 418.335 361.681 418.062 361.984C417.793 362.284 417.447 362.517 417.026 362.684C416.605 362.848 416.123 362.929 415.58 362.929ZM421.273 355.81L422.683 358.388L424.115 355.81H425.856L423.751 359.301L425.892 362.793H424.16L422.683 360.279L421.219 362.793H419.473L421.601 359.301L419.528 355.81H421.273ZM430.616 355.81V357.083H426.601V355.81H430.616ZM427.593 354.137H429.238V360.693C429.238 360.914 429.272 361.084 429.338 361.202C429.408 361.317 429.499 361.396 429.611 361.438C429.723 361.481 429.848 361.502 429.984 361.502C430.087 361.502 430.181 361.494 430.266 361.479C430.354 361.464 430.42 361.45 430.466 361.438L430.743 362.725C430.655 362.755 430.529 362.788 430.366 362.825C430.205 362.861 430.008 362.882 429.775 362.888C429.363 362.901 428.991 362.838 428.661 362.702C428.331 362.563 428.068 362.347 427.874 362.056C427.684 361.766 427.59 361.402 427.593 360.965V354.137Z" fill="#B5B5B5"/>
<rect x="354.721" y="339.795" width="198.34" height="36.9961" rx="7.70751" stroke="#D8D1D8" stroke-width="1.02767"/>
</g>
</g>
</g>
<defs>
<filter id="filter0_dd_3986_8973" x="125.087" y="176.944" width="402.508" height="109.725" filterUnits="userSpaceOnUse" color-interpolation-filters="sRGB">
<feFlood flood-opacity="0" result="BackgroundImageFix"/>
<feColorMatrix in="SourceAlpha" type="matrix" values="0 0 0 0 0 0 0 0 0 0 0 0 0 0 0 0 0 0 127 0" result="hardAlpha"/>
<feOffset dx="2.56045" dy="2.56045"/>
<feGaussianBlur stdDeviation="3.20056"/>
<feComposite in2="hardAlpha" operator="out"/>
<feColorMatrix type="matrix" values="0 0 0 0 0 0 0 0 0 0 0 0 0 0 0 0 0 0 0.05 0"/>
<feBlend mode="normal" in2="BackgroundImageFix" result="effect1_dropShadow_3986_8973"/>
<feColorMatrix in="SourceAlpha" type="matrix" values="0 0 0 0 0 0 0 0 0 0 0 0 0 0 0 0 0 0 127 0" result="hardAlpha"/>
<feOffset dx="-5.1209"/>
<feGaussianBlur stdDeviation="5.1209"/>
<feComposite in2="hardAlpha" operator="out"/>
<feColorMatrix type="matrix" values="0 0 0 0 0 0 0 0 0 0 0 0 0 0 0 0 0 0 0.05 0"/>
<feBlend mode="normal" in2="effect1_dropShadow_3986_8973" result="effect2_dropShadow_3986_8973"/>
<feBlend mode="normal" in="SourceGraphic" in2="effect2_dropShadow_3986_8973" result="shape"/>
</filter>
<filter id="filter1_dd_3986_8973" x="4.85213" y="65.9559" width="380.227" height="109.655" filterUnits="userSpaceOnUse" color-interpolation-filters="sRGB">
<feFlood flood-opacity="0" result="BackgroundImageFix"/>
<feColorMatrix in="SourceAlpha" type="matrix" values="0 0 0 0 0 0 0 0 0 0 0 0 0 0 0 0 0 0 127 0" result="hardAlpha"/>
<feOffset dx="2.56045" dy="2.56045"/>
<feGaussianBlur stdDeviation="3.20056"/>
<feComposite in2="hardAlpha" operator="out"/>
<feColorMatrix type="matrix" values="0 0 0 0 0 0 0 0 0 0 0 0 0 0 0 0 0 0 0.05 0"/>
<feBlend mode="normal" in2="BackgroundImageFix" result="effect1_dropShadow_3986_8973"/>
<feColorMatrix in="SourceAlpha" type="matrix" values="0 0 0 0 0 0 0 0 0 0 0 0 0 0 0 0 0 0 127 0" result="hardAlpha"/>
<feOffset dx="-5.1209"/>
<feGaussianBlur stdDeviation="5.1209"/>
<feComposite in2="hardAlpha" operator="out"/>
<feColorMatrix type="matrix" values="0 0 0 0 0 0 0 0 0 0 0 0 0 0 0 0 0 0 0.05 0"/>
<feBlend mode="normal" in2="effect1_dropShadow_3986_8973" result="effect2_dropShadow_3986_8973"/>
<feBlend mode="normal" in="SourceGraphic" in2="effect2_dropShadow_3986_8973" result="shape"/>
</filter>
<filter id="filter2_dd_3986_8973" x="314.18" y="280.739" width="299.738" height="117.084" filterUnits="userSpaceOnUse" color-interpolation-filters="sRGB">
<feFlood flood-opacity="0" result="BackgroundImageFix"/>
<feColorMatrix in="SourceAlpha" type="matrix" values="0 0 0 0 0 0 0 0 0 0 0 0 0 0 0 0 0 0 127 0" result="hardAlpha"/>
<feOffset dx="2.56045" dy="2.56045"/>
<feGaussianBlur stdDeviation="3.20056"/>
<feComposite in2="hardAlpha" operator="out"/>
<feColorMatrix type="matrix" values="0 0 0 0 0 0 0 0 0 0 0 0 0 0 0 0 0 0 0.05 0"/>
<feBlend mode="normal" in2="BackgroundImageFix" result="effect1_dropShadow_3986_8973"/>
<feColorMatrix in="SourceAlpha" type="matrix" values="0 0 0 0 0 0 0 0 0 0 0 0 0 0 0 0 0 0 127 0" result="hardAlpha"/>
<feOffset dx="-5.1209"/>
<feGaussianBlur stdDeviation="5.1209"/>
<feComposite in2="hardAlpha" operator="out"/>
<feColorMatrix type="matrix" values="0 0 0 0 0 0 0 0 0 0 0 0 0 0 0 0 0 0 0.05 0"/>
<feBlend mode="normal" in2="effect1_dropShadow_3986_8973" result="effect2_dropShadow_3986_8973"/>
<feBlend mode="normal" in="SourceGraphic" in2="effect2_dropShadow_3986_8973" result="shape"/>
</filter>
<clipPath id="clip0_3986_8973">
<rect width="626" height="493" fill="white"/>
</clipPath>
<clipPath id="clip1_3986_8973">
<rect x="140.449" y="187.186" width="378.182" height="89.2417" rx="10.2418" fill="white"/>
</clipPath>
<clipPath id="clip2_3986_8973">
<rect x="329.543" y="290.98" width="275.415" height="96.6008" rx="10.2418" fill="white"/>
</clipPath>
</defs>
</svg>
