<svg width="632" height="501" viewBox="0 0 632 501" fill="none" xmlns="http://www.w3.org/2000/svg">
<g clip-path="url(#clip0_5895_13625)">
<path fill-rule="evenodd" clip-rule="evenodd" d="M345.507 119.104C402.024 112.238 443.088 32.6939 497.381 50.1904C549.345 66.9362 551.778 141.541 572.882 192.378C592.906 240.615 635.066 289.766 617.166 338.747C599.15 388.045 533.064 393.708 489.075 421.702C455.755 442.907 429.494 474.592 390.921 482.726C350.131 491.328 308.591 483.363 269.747 467.955C225.935 450.577 183.323 428.189 155.907 389.506C124.753 345.55 103.148 292.895 107.538 239.089C112.195 182.009 129.779 114.239 180.449 88.6916C231.669 62.8662 288.632 126.013 345.507 119.104Z" fill="#F1D9FF"/>
<path d="M159.557 318.755L165.438 316.364C167.198 315.649 169.115 316.967 169.077 318.866L168.939 325.775C168.917 326.902 169.611 327.918 170.668 328.308L179.804 331.675C182.057 332.506 182.125 335.669 179.909 336.595L171.211 340.23C169.986 340.742 168.573 340.266 167.906 339.119L158.267 322.532C157.46 321.143 158.068 319.361 159.557 318.755Z" fill="#9179DB"/>
<path d="M183.23 330.013L172.419 315.831C171.779 314.993 170.441 315.406 170.386 316.459L169.875 326.275C169.85 326.764 170.142 327.214 170.599 327.391L181.921 331.757C182.987 332.168 183.923 330.922 183.23 330.013Z" fill="#9179DB"/>
<path d="M281.672 370.235L284.668 357.718C285.148 355.71 287.644 355.003 289.106 356.463L298.051 365.391C298.907 366.245 300.232 366.41 301.271 365.792L315.041 357.596C317.105 356.368 319.605 358.306 318.93 360.611L314.451 375.9C314.078 377.173 312.819 377.973 311.508 377.769L283.837 373.463C282.311 373.225 281.313 371.737 281.672 370.235Z" fill="#9179DB"/>
<path d="M315.907 353.686L288.555 351.685C287.502 351.608 286.925 352.887 287.68 353.625L299.1 364.789C299.462 365.144 300.017 365.214 300.456 364.961L316.389 355.798C317.358 355.241 317.021 353.767 315.907 353.686Z" fill="#9179DB"/>
<path d="M194.065 392.807L197.134 374.01C197.493 371.814 200.239 371.016 201.718 372.678L213.798 386.253C214.594 387.147 215.892 387.395 216.961 386.857L241.626 374.442C243.563 373.467 245.785 375.109 245.421 377.247L241.295 401.482C241.048 402.937 239.657 403.907 238.206 403.637L196.191 395.832C194.777 395.569 193.833 394.226 194.065 392.807Z" fill="#E69494"/>
<path d="M240.998 371.281L201.188 367.992C200.152 367.906 199.558 369.145 200.273 369.9L214.904 385.35C215.243 385.708 215.775 385.805 216.219 385.591L241.398 373.43C242.437 372.928 242.148 371.376 240.998 371.281Z" fill="#E69494"/>
<path d="M78.7182 297.175L65.5931 266.695C64.7762 264.797 66.3531 262.738 68.3976 263.033L99.9912 267.58C101.187 267.752 102.348 267.091 102.81 265.974L118.36 228.404C119.279 226.185 122.441 226.242 123.28 228.492L137.5 266.669C137.963 267.912 137.432 269.306 136.26 269.927L82.3836 298.466C81.0194 299.189 79.3288 298.593 78.7182 297.175Z" fill="#9179DB"/>
<path d="M115.61 225.33L63.8572 258.392C62.9672 258.961 63.2705 260.331 64.3173 260.47L99.7643 265.198C100.267 265.265 100.753 264.99 100.954 264.524L117.261 226.734C117.703 225.708 116.552 224.729 115.61 225.33Z" fill="#9179DB"/>
<path d="M427.517 118.318L434.722 109.598C436.038 108.006 438.59 108.47 439.26 110.424L442.883 120.978C443.276 122.121 444.394 122.853 445.598 122.755L459.685 121.608C462.079 121.413 463.471 124.254 461.851 126.027L452.386 136.38C451.49 137.359 450.008 137.523 448.92 136.763L428.041 122.169C426.775 121.284 426.534 119.508 427.517 118.318Z" fill="#9179DB"/>
<path d="M462.253 118.53L440.824 106.013C439.912 105.48 438.832 106.375 439.185 107.37L444.018 120.989C444.188 121.467 444.655 121.774 445.161 121.741L461.756 120.639C462.871 120.565 463.217 119.094 462.253 118.53Z" fill="#9179DB"/>
<path d="M504.659 137.342L499.761 119.977C499.157 117.835 501.309 115.951 503.352 116.832L519.168 123.656C520.268 124.13 521.549 123.806 522.29 122.866L538.593 102.209C539.936 100.507 542.643 101.056 543.217 103.146L549.414 125.696C549.805 127.12 548.954 128.588 547.525 128.956L507.863 139.184C506.472 139.543 505.049 138.725 504.659 137.342Z" fill="#E69494"/>
<path d="M536.733 99.6066L500.895 112.837C499.919 113.198 499.904 114.572 500.871 114.954L519.805 122.436C520.264 122.618 520.788 122.481 521.1 122.099L538.003 101.386C538.733 100.492 537.816 99.207 536.733 99.6066Z" fill="#E69494"/>
<path d="M476.648 46.5678C476.715 46.4106 476.928 46.408 477.002 46.5589L480.077 52.8576C480.475 53.6738 480.17 54.6765 479.395 55.0962L467.232 61.6852C466.457 62.1049 465.505 61.7832 465.107 60.967L462.033 54.6715C461.958 54.5175 462.083 54.3409 462.246 54.3731C463.163 54.5542 464.364 54.7645 468.46 55.4312C469.308 55.5713 470.836 56.0054 471.871 55.437C472.92 54.8808 473.483 53.2863 473.854 52.509C475.723 48.6111 476.254 47.4585 476.648 46.5678ZM471.389 54.4483C472.073 54.0931 472.605 52.6524 472.912 52.0106C475.344 46.9427 475.513 46.524 476.047 45.3002C476.149 45.0697 476.143 44.8003 476.032 44.5723L475.746 43.9871C475.348 43.1709 474.396 42.8493 473.621 43.269L461.458 49.8579C460.683 50.2776 460.378 51.2804 460.776 52.0966L461.062 52.6818C461.173 52.9097 461.376 53.0684 461.615 53.1182C462.869 53.3696 463.292 53.4715 468.62 54.3357C469.295 54.4454 470.716 54.8281 471.389 54.4483Z" fill="#9179DB"/>
<g filter="url(#filter0_dd_5895_13625)">
<g clip-path="url(#clip1_5895_13625)">
<rect x="141.797" y="189.617" width="381.807" height="90.0971" rx="10.34" fill="white"/>
<path d="M176.623 241.044C178.343 240.989 180.076 241.016 181.973 241.085C183.925 240.934 185.945 240.73 187.897 240.58C189.972 240.443 190.054 241.248 188.402 242.668C186.873 243.978 184.908 245.261 181.987 246.476C180.049 247.036 178.22 247.309 176.541 247.35C174.903 247.322 173.443 247.09 172.132 246.667C171.491 246.462 171.054 246.203 170.795 245.903C170.59 245.657 170.535 245.48 170.617 245.316C170.699 245.166 170.904 245.084 171.231 245.111C171.586 245.125 172.064 245.234 172.665 245.411C174.098 245.794 175.449 245.985 176.718 246.039C177.988 246.039 179.271 245.889 180.622 245.534C184.458 243.978 185.413 242.886 182.997 242.559C181.632 242.327 180.144 242.204 178.684 242.19C177.292 242.081 175.695 242.095 174.193 242.19L172.569 242.108C172.159 242.054 171.723 241.917 171.3 241.685C170.863 241.439 170.535 241.139 170.303 240.839C170.098 240.539 170.044 240.307 170.126 240.129C170.221 239.938 170.453 239.883 170.822 239.979L171.9 240.197C173.21 240.361 174.002 240.211 174.221 239.761C174.507 239.283 174.603 238.641 174.739 237.85C174.821 237.113 174.616 236.485 174.057 235.939C173.538 235.365 172.774 234.915 171.873 234.601C170.644 234.11 169.32 234.028 167.996 234.478C167.71 234.587 167.45 234.601 167.259 234.506C167.055 234.41 166.918 234.219 166.795 233.932C166.7 233.632 166.672 233.291 166.727 232.963C166.809 232.54 167 232.253 167.3 232.131C167.901 231.789 168.597 231.721 169.389 231.817C170.262 231.926 171.068 232.131 171.873 232.485C173.265 232.963 174.575 233.659 175.654 234.615C176.828 235.447 177.524 236.471 177.619 237.659C177.701 238.396 177.647 239.037 177.455 239.61C177.537 240.17 177.305 240.661 176.623 241.044ZM181.291 224.091C185.686 221.429 190.081 221.607 193.603 222.876C197.37 225.128 200.782 228.008 203.539 231.626C204.781 234.519 204.59 236.853 203.608 238.6C202.284 240.443 201.014 241.644 199.854 242.272C198.571 243.009 197.575 243.105 197.015 242.559C196.646 242.231 196.551 241.671 196.646 240.825C196.646 240.034 196.633 239.092 196.36 238.273C195.95 238.041 195.609 237.768 195.35 237.372C195.063 237.099 194.913 236.826 194.94 236.498C194.927 236.198 195.063 235.925 195.377 235.666C195.568 235.516 195.773 235.406 195.964 235.338C196.196 235.27 196.469 235.229 196.797 235.256C199.008 236.348 199.622 237.686 200.182 238.177C200.536 239.01 201.465 238.505 202.707 236.649C203.335 234.97 202.256 232.158 198.735 228.213L198.639 228.118C199.335 229.046 199.062 229.278 198.052 228.978C197.397 229.073 196.387 229.1 195.036 229.332C194.012 230.056 192.947 231.093 191.842 232.649C190.613 234.506 189.016 236.103 187.01 237.304C184.826 238.027 183.147 237.986 182.26 237.399C181.659 236.58 181.359 235.598 181.182 234.383C180.8 233.045 180.486 231.612 180.322 230.029C180.09 228.104 180.335 226.111 181.291 224.091ZM191.228 227.49C192.674 226.698 193.534 226.248 193.616 225.715C194.121 225.442 193.78 224.924 192.415 224.105C191.296 223.45 189.508 222.904 187.269 222.699C185.222 222.753 183.447 223.832 182.274 225.879C181.973 227.954 182.246 229.742 182.765 231.366C183.106 232.745 183.748 233.837 184.799 234.56C186.068 234.915 187.57 234.178 188.948 232.513C189.972 230.779 190.613 229.019 191.228 227.49Z" fill="#484455"/>
<path d="M213.224 238.292V231.94H214.665V238.292H213.224ZM210.768 235.837V234.396H217.12V235.837H210.768Z" fill="black"/>
<path d="M233.313 224.782C233.629 224.647 233.9 224.579 234.092 224.647C234.262 224.737 234.375 224.918 234.386 225.155C234.397 225.404 234.318 225.652 234.216 225.969C234.216 225.969 232.499 229.866 231.573 234.058C231.426 238.972 230.805 243.48 230.805 243.48C230.567 244 230.285 244.327 229.923 244.485C229.709 244.598 229.517 244.576 229.347 244.418C229.155 244.248 229.076 244.034 229.076 243.74C229.11 243.559 229.166 243.333 229.257 243.073C229.257 243.073 229.81 239.345 229.912 235.007C230.341 231.12 231.754 227.336 231.754 227.336L224.286 231.527C223.947 231.64 223.653 231.64 223.461 231.527C223.224 231.414 223.122 231.211 223.088 230.951C223.032 230.352 223.359 230.002 224.105 229.821L233.313 224.782ZM242.916 233.933C243.65 234.577 244.102 235.278 244.26 236.057C244.565 236.893 244.52 237.707 244.294 238.622C244.012 239.91 243.311 240.61 242.26 240.757C241.323 240.949 240.261 240.701 239.063 239.989C238.408 239.65 237.787 239.289 237.176 238.791C236.657 238.464 236.216 238.102 235.855 237.65C235.663 237.424 235.55 237.153 235.504 236.747C235.493 236.442 235.527 236.159 235.617 235.911C235.708 235.651 235.821 235.504 235.945 235.436C236.103 235.413 236.284 235.47 236.453 235.651C236.894 236.204 237.301 236.69 237.662 237.04C238.069 237.436 238.543 237.729 239.063 237.978C240.724 238.995 241.718 238.701 242.034 237.04C242.17 236.204 242.091 235.481 241.786 234.882C241.537 234.329 240.916 233.753 239.978 233.244L238.995 232.747C238.769 232.645 238.634 232.487 238.6 232.329C238.566 232.137 238.611 231.956 238.747 231.787C238.86 231.64 239.018 231.516 239.21 231.448C239.402 231.369 239.617 231.403 239.865 231.527L240.622 231.911C241.56 232.42 242.362 232.657 243.051 232.623C243.82 232.657 244.396 232.352 244.656 231.753C244.814 231.177 244.644 230.623 244.158 230.036C243.707 229.46 243.04 228.951 242.147 228.477C240.769 227.708 239.447 227.381 238.08 227.516C237.753 227.539 237.504 227.516 237.278 227.426C237.075 227.347 236.905 227.189 236.77 227.008C236.623 226.793 236.555 226.601 236.578 226.364C236.634 226.093 236.792 225.856 237.086 225.754C237.73 225.562 238.464 225.562 239.346 225.788C240.34 226.059 241.334 226.5 242.328 227.064C243.899 227.912 245.209 228.759 246.102 229.674C247.005 230.499 247.412 231.369 247.186 232.397C247.005 233.086 246.531 233.628 245.718 233.967C244.78 234.216 243.831 234.148 242.916 233.933ZM257.445 242.52C257.761 242.497 257.976 242.565 258.089 242.712C258.224 242.892 258.247 243.118 258.168 243.435C258.032 244.101 257.637 244.497 256.97 244.519L248.271 244.711C247.887 244.666 247.57 244.485 247.299 244.237C247.118 244 247.017 243.695 247.039 243.435C247.085 243.118 247.277 242.836 247.604 242.655L256.337 236.453C257.591 235.673 258.574 235.041 259.399 234.487C260.269 234.046 260.823 233.549 261.116 233.063C261.252 232.386 260.947 231.843 260.28 231.425C259.67 230.996 258.868 230.725 257.885 230.623C256.292 230.499 254.756 230.86 253.197 231.651C252.982 231.719 252.779 231.787 252.609 231.866C252.462 231.911 252.315 231.922 252.157 231.934C251.897 231.945 251.683 231.877 251.525 231.719C251.344 231.561 251.265 231.358 251.265 231.132C251.276 230.827 251.468 230.578 251.852 230.409C252.564 229.957 253.445 229.629 254.485 229.347C255.467 229.109 256.416 229.03 257.343 229.075C258.992 229.2 260.472 229.663 261.783 230.42C263.082 231.199 263.771 232.137 263.67 233.222C263.24 233.99 262.495 234.679 261.421 235.267C260.303 235.877 259.026 236.735 257.433 237.741L250.756 242.768L257.445 242.52Z" fill="#484455"/>
<path d="M277.427 234.359V232.941H283.536V234.359H277.427ZM277.427 237.296V235.878H283.536V237.296H277.427Z" fill="black"/>
<path d="M314.412 239.666V230.266H320.525V231.693H316.114V234.245H320.208V235.673H316.114V238.239H320.562V239.666H314.412ZM323.851 235.535V239.666H322.189V232.616H323.777V233.814H323.86C324.022 233.419 324.28 233.106 324.635 232.873C324.993 232.641 325.436 232.524 325.962 232.524C326.448 232.524 326.872 232.628 327.233 232.836C327.597 233.044 327.879 233.346 328.078 233.741C328.28 234.135 328.379 234.614 328.376 235.177V239.666H326.715V235.434C326.715 234.963 326.592 234.594 326.347 234.328C326.106 234.062 325.771 233.929 325.342 233.929C325.052 233.929 324.793 233.993 324.567 234.121C324.343 234.247 324.167 234.429 324.039 234.668C323.913 234.906 323.851 235.196 323.851 235.535ZM333.586 232.616V233.901H329.533V232.616H333.586ZM330.533 230.927H332.195V237.546C332.195 237.769 332.228 237.94 332.296 238.06C332.366 238.176 332.458 238.255 332.571 238.298C332.684 238.341 332.81 238.363 332.948 238.363C333.052 238.363 333.146 238.355 333.232 238.34C333.321 238.324 333.388 238.31 333.434 238.298L333.714 239.597C333.625 239.628 333.498 239.661 333.333 239.698C333.171 239.735 332.972 239.756 332.736 239.762C332.32 239.775 331.945 239.712 331.612 239.574C331.278 239.433 331.014 239.216 330.818 238.922C330.625 238.629 330.53 238.262 330.533 237.821V230.927ZM338.02 239.804C337.314 239.804 336.703 239.657 336.189 239.363C335.678 239.066 335.285 238.647 335.01 238.105C334.734 237.561 334.596 236.92 334.596 236.182C334.596 235.457 334.734 234.821 335.01 234.273C335.288 233.722 335.677 233.294 336.175 232.988C336.674 232.679 337.26 232.524 337.933 232.524C338.368 232.524 338.778 232.595 339.163 232.735C339.552 232.873 339.895 233.087 340.191 233.378C340.491 233.669 340.727 234.039 340.898 234.489C341.07 234.935 341.155 235.468 341.155 236.086V236.595H335.377V235.475H339.563C339.56 235.157 339.491 234.874 339.356 234.626C339.221 234.375 339.033 234.178 338.792 234.034C338.553 233.89 338.274 233.819 337.956 233.819C337.617 233.819 337.318 233.901 337.061 234.066C336.804 234.229 336.604 234.443 336.46 234.709C336.319 234.972 336.247 235.261 336.244 235.576V236.554C336.244 236.964 336.319 237.316 336.469 237.61C336.619 237.9 336.829 238.124 337.098 238.28C337.367 238.433 337.682 238.509 338.043 238.509C338.285 238.509 338.504 238.476 338.7 238.408C338.896 238.338 339.065 238.236 339.209 238.101C339.353 237.966 339.462 237.799 339.535 237.601L341.086 237.775C340.989 238.185 340.802 238.543 340.527 238.849C340.254 239.152 339.905 239.388 339.48 239.556C339.055 239.721 338.568 239.804 338.02 239.804ZM342.561 239.666V232.616H344.172V233.791H344.245C344.374 233.384 344.594 233.07 344.906 232.85C345.222 232.627 345.581 232.515 345.985 232.515C346.077 232.515 346.179 232.52 346.292 232.529C346.409 232.535 346.505 232.546 346.582 232.561V234.089C346.511 234.065 346.4 234.043 346.247 234.025C346.097 234.004 345.951 233.993 345.811 233.993C345.508 233.993 345.235 234.059 344.994 234.19C344.755 234.319 344.567 234.498 344.429 234.727C344.291 234.957 344.222 235.222 344.222 235.521V239.666H342.561ZM356.464 234.48L354.949 234.645C354.906 234.492 354.831 234.348 354.724 234.213C354.62 234.079 354.479 233.97 354.302 233.887C354.124 233.805 353.907 233.763 353.65 233.763C353.304 233.763 353.014 233.838 352.778 233.988C352.545 234.138 352.431 234.333 352.434 234.571C352.431 234.776 352.506 234.943 352.659 235.072C352.815 235.2 353.072 235.306 353.43 235.388L354.632 235.645C355.299 235.789 355.795 236.017 356.119 236.329C356.447 236.641 356.612 237.05 356.615 237.555C356.612 237.998 356.482 238.39 356.225 238.73C355.971 239.066 355.617 239.329 355.165 239.519C354.712 239.709 354.192 239.804 353.604 239.804C352.741 239.804 352.047 239.623 351.52 239.262C350.994 238.898 350.68 238.392 350.579 237.743L352.2 237.587C352.273 237.905 352.429 238.145 352.668 238.307C352.906 238.47 353.217 238.551 353.6 238.551C353.994 238.551 354.311 238.47 354.55 238.307C354.791 238.145 354.912 237.945 354.912 237.706C354.912 237.504 354.834 237.337 354.678 237.206C354.525 237.074 354.286 236.973 353.962 236.903L352.76 236.65C352.083 236.51 351.583 236.273 351.259 235.939C350.934 235.602 350.774 235.177 350.777 234.663C350.774 234.229 350.892 233.852 351.13 233.534C351.372 233.213 351.707 232.965 352.135 232.79C352.567 232.613 353.064 232.524 353.627 232.524C354.453 232.524 355.103 232.7 355.578 233.052C356.055 233.404 356.35 233.88 356.464 234.48ZM362.479 236.701V232.616H364.14V239.666H362.529V238.413H362.456C362.296 238.808 362.035 239.131 361.671 239.381C361.31 239.632 360.864 239.758 360.335 239.758C359.873 239.758 359.465 239.655 359.11 239.45C358.758 239.242 358.482 238.941 358.283 238.546C358.085 238.148 357.985 237.668 357.985 237.105V232.616H359.647V236.848C359.647 237.295 359.769 237.65 360.014 237.913C360.259 238.176 360.58 238.307 360.978 238.307C361.222 238.307 361.46 238.248 361.689 238.128C361.919 238.009 362.107 237.832 362.254 237.596C362.404 237.357 362.479 237.059 362.479 236.701ZM365.849 239.666V232.616H367.437V233.814H367.519C367.666 233.41 367.909 233.095 368.249 232.868C368.589 232.639 368.994 232.524 369.465 232.524C369.943 232.524 370.345 232.641 370.673 232.873C371.003 233.103 371.236 233.416 371.37 233.814H371.444C371.6 233.422 371.863 233.11 372.233 232.878C372.606 232.642 373.049 232.524 373.56 232.524C374.208 232.524 374.738 232.729 375.148 233.139C375.558 233.549 375.763 234.148 375.763 234.934V239.666H374.097V235.191C374.097 234.753 373.98 234.434 373.748 234.232C373.515 234.027 373.231 233.924 372.894 233.924C372.493 233.924 372.18 234.05 371.953 234.301C371.73 234.548 371.618 234.871 371.618 235.269V239.666H369.989V235.122C369.989 234.758 369.878 234.467 369.658 234.25C369.441 234.033 369.156 233.924 368.804 233.924C368.566 233.924 368.349 233.985 368.153 234.108C367.957 234.227 367.801 234.397 367.685 234.617C367.568 234.834 367.51 235.088 367.51 235.379V239.666H365.849ZM383.729 239.804C383.041 239.804 382.444 239.652 381.939 239.349C381.435 239.046 381.043 238.623 380.764 238.078C380.489 237.533 380.351 236.897 380.351 236.169C380.351 235.44 380.489 234.802 380.764 234.255C381.043 233.707 381.435 233.282 381.939 232.979C382.444 232.676 383.041 232.524 383.729 232.524C384.418 232.524 385.015 232.676 385.519 232.979C386.024 233.282 386.414 233.707 386.69 234.255C386.968 234.802 387.108 235.44 387.108 236.169C387.108 236.897 386.968 237.533 386.69 238.078C386.414 238.623 386.024 239.046 385.519 239.349C385.015 239.652 384.418 239.804 383.729 239.804ZM383.739 238.473C384.112 238.473 384.424 238.37 384.675 238.165C384.926 237.957 385.113 237.679 385.235 237.33C385.36 236.981 385.423 236.592 385.423 236.164C385.423 235.733 385.36 235.342 385.235 234.994C385.113 234.642 384.926 234.362 384.675 234.154C384.424 233.946 384.112 233.842 383.739 233.842C383.356 233.842 383.038 233.946 382.784 234.154C382.533 234.362 382.345 234.642 382.219 234.994C382.097 235.342 382.036 235.733 382.036 236.164C382.036 236.592 382.097 236.981 382.219 237.33C382.345 237.679 382.533 237.957 382.784 238.165C383.038 238.37 383.356 238.473 383.739 238.473ZM392.089 232.616V233.901H387.921V232.616H392.089ZM388.963 239.666V231.951C388.963 231.476 389.061 231.082 389.257 230.766C389.456 230.451 389.722 230.216 390.055 230.059C390.389 229.903 390.759 229.825 391.166 229.825C391.454 229.825 391.709 229.848 391.933 229.894C392.156 229.94 392.321 229.981 392.428 230.018L392.098 231.303C392.027 231.282 391.939 231.261 391.832 231.239C391.725 231.215 391.605 231.202 391.474 231.202C391.165 231.202 390.946 231.277 390.817 231.427C390.692 231.574 390.629 231.785 390.629 232.061V239.666H388.963ZM398.257 235.535V239.666H396.596V232.616H398.184V233.814H398.267C398.429 233.419 398.687 233.106 399.042 232.873C399.4 232.641 399.842 232.524 400.369 232.524C400.855 232.524 401.279 232.628 401.64 232.836C402.004 233.044 402.286 233.346 402.485 233.741C402.687 234.135 402.786 234.614 402.783 235.177V239.666H401.121V235.434C401.121 234.963 400.999 234.594 400.754 234.328C400.513 234.062 400.177 233.929 399.749 233.929C399.458 233.929 399.2 233.993 398.973 234.121C398.75 234.247 398.574 234.429 398.446 234.668C398.32 234.906 398.257 235.196 398.257 235.535ZM408.965 236.701V232.616H410.627V239.666H409.016V238.413H408.943C408.783 238.808 408.522 239.131 408.158 239.381C407.797 239.632 407.351 239.758 406.822 239.758C406.36 239.758 405.951 239.655 405.597 239.45C405.245 239.242 404.969 238.941 404.77 238.546C404.571 238.148 404.472 237.668 404.472 237.105V232.616H406.134V236.848C406.134 237.295 406.256 237.65 406.501 237.913C406.746 238.176 407.067 238.307 407.465 238.307C407.709 238.307 407.947 238.248 408.176 238.128C408.406 238.009 408.594 237.832 408.741 237.596C408.891 237.357 408.965 237.059 408.965 236.701ZM412.336 239.666V232.616H413.924V233.814H414.006C414.153 233.41 414.396 233.095 414.736 232.868C415.076 232.639 415.481 232.524 415.952 232.524C416.43 232.524 416.832 232.641 417.159 232.873C417.49 233.103 417.723 233.416 417.857 233.814H417.931C418.087 233.422 418.35 233.11 418.72 232.878C419.093 232.642 419.535 232.524 420.046 232.524C420.695 232.524 421.225 232.729 421.635 233.139C422.045 233.549 422.25 234.148 422.25 234.934V239.666H420.584V235.191C420.584 234.753 420.467 234.434 420.235 234.232C420.002 234.027 419.718 233.924 419.381 233.924C418.98 233.924 418.666 234.05 418.44 234.301C418.217 234.548 418.105 234.871 418.105 235.269V239.666H416.476V235.122C416.476 234.758 416.365 234.467 416.145 234.25C415.928 234.033 415.643 233.924 415.291 233.924C415.053 233.924 414.836 233.985 414.64 234.108C414.444 234.227 414.288 234.397 414.172 234.617C414.055 234.834 413.997 235.088 413.997 235.379V239.666H412.336ZM424.009 239.666V230.266H425.67V233.782H425.739C425.825 233.61 425.946 233.428 426.102 233.236C426.258 233.04 426.469 232.873 426.735 232.735C427.001 232.595 427.341 232.524 427.754 232.524C428.299 232.524 428.79 232.663 429.227 232.942C429.668 233.217 430.017 233.626 430.274 234.167C430.534 234.706 430.664 235.367 430.664 236.15C430.664 236.924 430.537 237.582 430.283 238.124C430.029 238.665 429.683 239.079 429.246 239.363C428.808 239.648 428.312 239.79 427.759 239.79C427.355 239.79 427.02 239.723 426.753 239.588C426.487 239.453 426.273 239.291 426.111 239.101C425.952 238.909 425.828 238.727 425.739 238.555H425.643V239.666H424.009ZM425.638 236.141C425.638 236.597 425.702 236.996 425.831 237.339C425.962 237.682 426.151 237.949 426.395 238.142C426.643 238.332 426.943 238.427 427.295 238.427C427.662 238.427 427.97 238.329 428.218 238.133C428.465 237.934 428.652 237.663 428.777 237.321C428.906 236.975 428.97 236.582 428.97 236.141C428.97 235.703 428.908 235.315 428.782 234.975C428.657 234.636 428.47 234.369 428.222 234.177C427.974 233.984 427.665 233.887 427.295 233.887C426.94 233.887 426.639 233.981 426.391 234.167C426.143 234.354 425.955 234.616 425.826 234.952C425.701 235.289 425.638 235.685 425.638 236.141ZM435.198 239.804C434.491 239.804 433.88 239.657 433.366 239.363C432.855 239.066 432.462 238.647 432.187 238.105C431.911 237.561 431.774 236.92 431.774 236.182C431.774 235.457 431.911 234.821 432.187 234.273C432.465 233.722 432.854 233.294 433.352 232.988C433.851 232.679 434.437 232.524 435.11 232.524C435.545 232.524 435.955 232.595 436.34 232.735C436.729 232.873 437.072 233.087 437.369 233.378C437.668 233.669 437.904 234.039 438.075 234.489C438.247 234.935 438.332 235.468 438.332 236.086V236.595H432.554V235.475H436.74C436.737 235.157 436.668 234.874 436.533 234.626C436.399 234.375 436.21 234.178 435.969 234.034C435.73 233.89 435.451 233.819 435.133 233.819C434.794 233.819 434.495 233.901 434.238 234.066C433.981 234.229 433.781 234.443 433.637 234.709C433.496 234.972 433.424 235.261 433.421 235.576V236.554C433.421 236.964 433.496 237.316 433.646 237.61C433.796 237.9 434.006 238.124 434.275 238.28C434.544 238.433 434.859 238.509 435.22 238.509C435.462 238.509 435.681 238.476 435.877 238.408C436.073 238.338 436.242 238.236 436.386 238.101C436.53 237.966 436.639 237.799 436.712 237.601L438.264 237.775C438.166 238.185 437.979 238.543 437.704 238.849C437.431 239.152 437.082 239.388 436.657 239.556C436.232 239.721 435.745 239.804 435.198 239.804ZM439.738 239.666V232.616H441.349V233.791H441.422C441.551 233.384 441.771 233.07 442.083 232.85C442.399 232.627 442.758 232.515 443.162 232.515C443.254 232.515 443.356 232.52 443.47 232.529C443.586 232.535 443.682 232.546 443.759 232.561V234.089C443.688 234.065 443.577 234.043 443.424 234.025C443.274 234.004 443.128 233.993 442.988 233.993C442.685 233.993 442.412 234.059 442.171 234.19C441.932 234.319 441.744 234.498 441.606 234.727C441.468 234.957 441.4 235.222 441.4 235.521V239.666H439.738ZM450.435 234.48L448.92 234.645C448.877 234.492 448.802 234.348 448.695 234.213C448.591 234.079 448.45 233.97 448.273 233.887C448.095 233.805 447.878 233.763 447.621 233.763C447.275 233.763 446.985 233.838 446.749 233.988C446.516 234.138 446.402 234.333 446.405 234.571C446.402 234.776 446.477 234.943 446.63 235.072C446.786 235.2 447.043 235.306 447.401 235.388L448.603 235.645C449.27 235.789 449.766 236.017 450.09 236.329C450.418 236.641 450.583 237.05 450.586 237.555C450.583 237.998 450.453 238.39 450.196 238.73C449.942 239.066 449.589 239.329 449.136 239.519C448.683 239.709 448.163 239.804 447.575 239.804C446.712 239.804 446.018 239.623 445.491 239.262C444.965 238.898 444.651 238.392 444.55 237.743L446.171 237.587C446.244 237.905 446.4 238.145 446.639 238.307C446.877 238.47 447.188 238.551 447.571 238.551C447.965 238.551 448.282 238.47 448.521 238.307C448.762 238.145 448.883 237.945 448.883 237.706C448.883 237.504 448.805 237.337 448.649 237.206C448.496 237.074 448.258 236.973 447.933 236.903L446.731 236.65C446.054 236.51 445.554 236.273 445.23 235.939C444.905 235.602 444.745 235.177 444.748 234.663C444.745 234.229 444.863 233.852 445.101 233.534C445.343 233.213 445.678 232.965 446.106 232.79C446.538 232.613 447.035 232.524 447.598 232.524C448.424 232.524 449.074 232.7 449.549 233.052C450.026 233.404 450.321 233.88 450.435 234.48ZM456.824 235.535V239.666H455.162V230.266H456.787V233.814H456.87C457.035 233.416 457.29 233.103 457.636 232.873C457.985 232.641 458.429 232.524 458.967 232.524C459.457 232.524 459.884 232.627 460.248 232.832C460.612 233.037 460.893 233.337 461.092 233.731C461.294 234.126 461.395 234.608 461.395 235.177V239.666H459.734V235.434C459.734 234.96 459.611 234.591 459.366 234.328C459.125 234.062 458.785 233.929 458.347 233.929C458.054 233.929 457.791 233.993 457.558 234.121C457.329 234.247 457.148 234.429 457.016 234.668C456.888 234.906 456.824 235.196 456.824 235.535ZM466.21 239.804C465.503 239.804 464.893 239.657 464.379 239.363C463.868 239.066 463.474 238.647 463.199 238.105C462.924 237.561 462.786 236.92 462.786 236.182C462.786 235.457 462.924 234.821 463.199 234.273C463.477 233.722 463.866 233.294 464.365 232.988C464.864 232.679 465.449 232.524 466.123 232.524C466.557 232.524 466.967 232.595 467.353 232.735C467.741 232.873 468.084 233.087 468.381 233.378C468.681 233.669 468.916 234.039 469.088 234.489C469.259 234.935 469.345 235.468 469.345 236.086V236.595H463.566V235.475H467.752C467.749 235.157 467.68 234.874 467.546 234.626C467.411 234.375 467.223 234.178 466.981 234.034C466.742 233.89 466.464 233.819 466.146 233.819C465.806 233.819 465.508 233.901 465.251 234.066C464.994 234.229 464.793 234.443 464.649 234.709C464.509 234.972 464.437 235.261 464.434 235.576V236.554C464.434 236.964 464.509 237.316 464.659 237.61C464.808 237.9 465.018 238.124 465.287 238.28C465.557 238.433 465.872 238.509 466.233 238.509C466.475 238.509 466.693 238.476 466.889 238.408C467.085 238.338 467.255 238.236 467.399 238.101C467.542 237.966 467.651 237.799 467.725 237.601L469.276 237.775C469.178 238.185 468.991 238.543 468.716 238.849C468.444 239.152 468.095 239.388 467.669 239.556C467.244 239.721 466.758 239.804 466.21 239.804ZM470.75 239.666V232.616H472.361V233.791H472.435C472.563 233.384 472.784 233.07 473.096 232.85C473.411 232.627 473.77 232.515 474.174 232.515C474.266 232.515 474.369 232.52 474.482 232.529C474.598 232.535 474.695 232.546 474.771 232.561V234.089C474.701 234.065 474.589 234.043 474.436 234.025C474.286 234.004 474.141 233.993 474 233.993C473.697 233.993 473.425 234.059 473.183 234.19C472.944 234.319 472.756 234.498 472.618 234.727C472.481 234.957 472.412 235.222 472.412 235.521V239.666H470.75ZM478.706 239.804C477.999 239.804 477.388 239.657 476.874 239.363C476.363 239.066 475.97 238.647 475.695 238.105C475.419 237.561 475.282 236.92 475.282 236.182C475.282 235.457 475.419 234.821 475.695 234.273C475.973 233.722 476.362 233.294 476.861 232.988C477.359 232.679 477.945 232.524 478.618 232.524C479.053 232.524 479.463 232.595 479.849 232.735C480.237 232.873 480.58 233.087 480.877 233.378C481.177 233.669 481.412 234.039 481.583 234.489C481.755 234.935 481.841 235.468 481.841 236.086V236.595H476.062V235.475H480.248C480.245 235.157 480.176 234.874 480.041 234.626C479.907 234.375 479.718 234.178 479.477 234.034C479.238 233.89 478.96 233.819 478.641 233.819C478.302 233.819 478.003 233.901 477.746 234.066C477.489 234.229 477.289 234.443 477.145 234.709C477.004 234.972 476.932 235.261 476.929 235.576V236.554C476.929 236.964 477.004 237.316 477.154 237.61C477.304 237.9 477.514 238.124 477.783 238.28C478.052 238.433 478.368 238.509 478.729 238.509C478.97 238.509 479.189 238.476 479.385 238.408C479.581 238.338 479.751 238.236 479.894 238.101C480.038 237.966 480.147 237.799 480.22 237.601L481.772 237.775C481.674 238.185 481.487 238.543 481.212 238.849C480.939 239.152 480.591 239.388 480.165 239.556C479.74 239.721 479.253 239.804 478.706 239.804Z" fill="#B5B5B5"/>
<rect x="297.402" y="216.81" width="201.163" height="35.7128" rx="10.8939" stroke="#D8D1D8" stroke-width="1.03752"/>
</g>
</g>
<g filter="url(#filter1_dd_5895_13625)">
<rect x="20.4062" y="77.5654" width="359.314" height="90.0267" rx="10.34" fill="white"/>
<rect x="41.7322" y="108.361" width="28.4349" height="28.4349" rx="4.52374" stroke="#A5A2A5" stroke-width="1.2925"/>
<path d="M87.7272 112.458V126.715H85.1445V112.458H87.7272ZM92.5498 112.458V113.878C92.5498 114.286 92.4709 114.711 92.3131 115.152C92.16 115.588 91.9488 116.006 91.6796 116.405C91.4104 116.799 91.1041 117.138 90.7607 117.421L89.5912 116.662C89.8464 116.277 90.0692 115.862 90.2595 115.416C90.4498 114.966 90.5449 114.458 90.5449 113.892V112.458H92.5498ZM94.184 126.715V116.022H96.5927V117.839H96.718C96.9408 117.226 97.3097 116.748 97.8249 116.405C98.34 116.057 98.955 115.883 99.6697 115.883C100.394 115.883 101.004 116.059 101.501 116.412C102.002 116.76 102.355 117.236 102.559 117.839H102.67C102.907 117.245 103.306 116.771 103.867 116.419C104.434 116.061 105.104 115.883 105.879 115.883C106.863 115.883 107.666 116.194 108.288 116.816C108.91 117.437 109.221 118.345 109.221 119.538V126.715H106.694V119.927C106.694 119.264 106.517 118.779 106.165 118.472C105.812 118.161 105.38 118.006 104.87 118.006C104.262 118.006 103.786 118.196 103.443 118.577C103.104 118.953 102.935 119.442 102.935 120.046V126.715H100.463V119.823C100.463 119.271 100.296 118.83 99.9621 118.5C99.6326 118.171 99.2009 118.006 98.6672 118.006C98.3052 118.006 97.9757 118.099 97.6787 118.284C97.3817 118.465 97.145 118.723 96.9686 119.057C96.7923 119.387 96.7041 119.772 96.7041 120.213V126.715H94.184ZM119.16 120.449V126.715H116.64V116.022H119.049V117.839H119.174C119.42 117.24 119.812 116.765 120.351 116.412C120.894 116.059 121.564 115.883 122.362 115.883C123.1 115.883 123.743 116.041 124.291 116.356C124.843 116.672 125.27 117.129 125.572 117.728C125.878 118.326 126.029 119.053 126.024 119.906V126.715H123.504V120.296C123.504 119.582 123.318 119.022 122.947 118.619C122.581 118.215 122.072 118.013 121.423 118.013C120.982 118.013 120.59 118.11 120.246 118.305C119.907 118.496 119.641 118.772 119.446 119.134C119.255 119.496 119.16 119.934 119.16 120.449ZM133.25 126.924C132.206 126.924 131.301 126.694 130.535 126.234C129.769 125.775 129.175 125.132 128.753 124.306C128.335 123.48 128.127 122.515 128.127 121.41C128.127 120.306 128.335 119.338 128.753 118.507C129.175 117.676 129.769 117.031 130.535 116.572C131.301 116.112 132.206 115.883 133.25 115.883C134.294 115.883 135.199 116.112 135.965 116.572C136.731 117.031 137.323 117.676 137.74 118.507C138.163 119.338 138.374 120.306 138.374 121.41C138.374 122.515 138.163 123.48 137.74 124.306C137.323 125.132 136.731 125.775 135.965 126.234C135.199 126.694 134.294 126.924 133.25 126.924ZM133.264 124.905C133.83 124.905 134.304 124.749 134.684 124.438C135.065 124.123 135.348 123.701 135.534 123.171C135.724 122.642 135.819 122.053 135.819 121.403C135.819 120.749 135.724 120.157 135.534 119.628C135.348 119.094 135.065 118.67 134.684 118.354C134.304 118.038 133.83 117.881 133.264 117.881C132.684 117.881 132.201 118.038 131.816 118.354C131.436 118.67 131.15 119.094 130.96 119.628C130.774 120.157 130.681 120.749 130.681 121.403C130.681 122.053 130.774 122.642 130.96 123.171C131.15 123.701 131.436 124.123 131.816 124.438C132.201 124.749 132.684 124.905 133.264 124.905ZM145.852 116.022V117.971H139.705V116.022H145.852ZM141.223 113.46H143.743V123.499C143.743 123.837 143.794 124.097 143.896 124.278C144.003 124.455 144.142 124.575 144.314 124.64C144.486 124.705 144.676 124.738 144.885 124.738C145.042 124.738 145.186 124.726 145.316 124.703C145.451 124.68 145.553 124.659 145.623 124.64L146.047 126.61C145.913 126.657 145.72 126.708 145.469 126.764C145.223 126.819 144.922 126.852 144.564 126.861C143.933 126.88 143.365 126.784 142.859 126.576C142.353 126.362 141.952 126.033 141.655 125.587C141.362 125.142 141.218 124.585 141.223 123.916V113.46ZM155.899 126.931C155.222 126.931 154.612 126.81 154.069 126.569C153.53 126.323 153.103 125.961 152.788 125.483C152.477 125.005 152.321 124.415 152.321 123.714C152.321 123.111 152.433 122.612 152.655 122.218C152.878 121.823 153.182 121.508 153.567 121.271C153.953 121.034 154.387 120.856 154.869 120.735C155.356 120.61 155.86 120.519 156.38 120.463C157.006 120.398 157.515 120.34 157.904 120.289C158.294 120.234 158.577 120.15 158.754 120.039C158.935 119.923 159.025 119.744 159.025 119.503V119.461C159.025 118.937 158.87 118.53 158.559 118.243C158.248 117.955 157.8 117.811 157.215 117.811C156.598 117.811 156.108 117.946 155.746 118.215C155.389 118.484 155.148 118.802 155.022 119.169L152.669 118.834C152.855 118.185 153.161 117.642 153.588 117.205C154.015 116.765 154.537 116.435 155.155 116.217C155.772 115.994 156.454 115.883 157.201 115.883C157.716 115.883 158.229 115.943 158.74 116.064C159.25 116.184 159.717 116.384 160.139 116.662C160.561 116.936 160.9 117.31 161.155 117.783C161.415 118.257 161.545 118.848 161.545 119.558V126.715H159.123V125.246H159.039C158.886 125.543 158.67 125.821 158.392 126.081C158.118 126.337 157.772 126.543 157.354 126.701C156.941 126.854 156.456 126.931 155.899 126.931ZM156.554 125.079C157.06 125.079 157.498 124.979 157.87 124.78C158.241 124.575 158.526 124.306 158.726 123.972C158.93 123.638 159.032 123.274 159.032 122.879V121.619C158.953 121.684 158.819 121.744 158.628 121.8C158.443 121.856 158.234 121.904 158.002 121.946C157.77 121.988 157.54 122.025 157.313 122.058C157.085 122.09 156.888 122.118 156.721 122.141C156.345 122.192 156.009 122.276 155.712 122.392C155.415 122.508 155.18 122.67 155.008 122.879C154.837 123.083 154.751 123.348 154.751 123.673C154.751 124.137 154.92 124.487 155.259 124.724C155.598 124.961 156.029 125.079 156.554 125.079ZM168.942 126.715V116.022H171.385V117.804H171.497C171.692 117.187 172.026 116.711 172.499 116.377C172.977 116.038 173.523 115.869 174.135 115.869C174.274 115.869 174.43 115.876 174.602 115.89C174.778 115.899 174.924 115.915 175.04 115.938V118.257C174.933 118.219 174.764 118.187 174.532 118.159C174.305 118.127 174.084 118.11 173.871 118.11C173.411 118.11 172.998 118.21 172.631 118.41C172.269 118.605 171.984 118.876 171.775 119.224C171.566 119.572 171.462 119.974 171.462 120.429V126.715H168.942ZM180.938 126.924C179.894 126.924 178.989 126.694 178.223 126.234C177.458 125.775 176.863 125.132 176.441 124.306C176.023 123.48 175.815 122.515 175.815 121.41C175.815 120.306 176.023 119.338 176.441 118.507C176.863 117.676 177.458 117.031 178.223 116.572C178.989 116.112 179.894 115.883 180.938 115.883C181.983 115.883 182.888 116.112 183.653 116.572C184.419 117.031 185.011 117.676 185.428 118.507C185.851 119.338 186.062 120.306 186.062 121.41C186.062 122.515 185.851 123.48 185.428 124.306C185.011 125.132 184.419 125.775 183.653 126.234C182.888 126.694 181.983 126.924 180.938 126.924ZM180.952 124.905C181.518 124.905 181.992 124.749 182.372 124.438C182.753 124.123 183.036 123.701 183.222 123.171C183.412 122.642 183.507 122.053 183.507 121.403C183.507 120.749 183.412 120.157 183.222 119.628C183.036 119.094 182.753 118.67 182.372 118.354C181.992 118.038 181.518 117.881 180.952 117.881C180.372 117.881 179.889 118.038 179.504 118.354C179.124 118.67 178.838 119.094 178.648 119.628C178.462 120.157 178.37 120.749 178.37 121.403C178.37 122.053 178.462 122.642 178.648 123.171C178.838 123.701 179.124 124.123 179.504 124.438C179.889 124.749 180.372 124.905 180.952 124.905ZM188.312 126.715V112.458H190.832V117.79H190.937C191.067 117.53 191.25 117.254 191.487 116.962C191.723 116.665 192.044 116.412 192.447 116.203C192.851 115.989 193.366 115.883 193.993 115.883C194.819 115.883 195.564 116.094 196.227 116.516C196.896 116.934 197.425 117.554 197.815 118.375C198.209 119.192 198.406 120.194 198.406 121.382C198.406 122.557 198.214 123.554 197.829 124.376C197.443 125.197 196.919 125.824 196.255 126.255C195.592 126.687 194.84 126.903 194 126.903C193.387 126.903 192.879 126.801 192.475 126.596C192.071 126.392 191.747 126.146 191.501 125.859C191.259 125.566 191.071 125.29 190.937 125.03H190.791V126.715H188.312ZM190.784 121.368C190.784 122.06 190.881 122.666 191.076 123.185C191.276 123.705 191.561 124.111 191.932 124.404C192.308 124.691 192.763 124.835 193.297 124.835C193.854 124.835 194.32 124.687 194.696 124.39C195.072 124.088 195.355 123.677 195.545 123.158C195.74 122.633 195.838 122.037 195.838 121.368C195.838 120.705 195.743 120.115 195.552 119.6C195.362 119.085 195.079 118.681 194.703 118.389C194.327 118.097 193.858 117.95 193.297 117.95C192.758 117.95 192.301 118.092 191.925 118.375C191.549 118.658 191.264 119.055 191.069 119.565C190.879 120.076 190.784 120.677 190.784 121.368ZM205.213 126.924C204.169 126.924 203.264 126.694 202.498 126.234C201.732 125.775 201.138 125.132 200.716 124.306C200.298 123.48 200.089 122.515 200.089 121.41C200.089 120.306 200.298 119.338 200.716 118.507C201.138 117.676 201.732 117.031 202.498 116.572C203.264 116.112 204.169 115.883 205.213 115.883C206.257 115.883 207.162 116.112 207.928 116.572C208.694 117.031 209.286 117.676 209.703 118.507C210.126 119.338 210.337 120.306 210.337 121.41C210.337 122.515 210.126 123.48 209.703 124.306C209.286 125.132 208.694 125.775 207.928 126.234C207.162 126.694 206.257 126.924 205.213 126.924ZM205.227 124.905C205.793 124.905 206.267 124.749 206.647 124.438C207.028 124.123 207.311 123.701 207.496 123.171C207.687 122.642 207.782 122.053 207.782 121.403C207.782 120.749 207.687 120.157 207.496 119.628C207.311 119.094 207.028 118.67 206.647 118.354C206.267 118.038 205.793 117.881 205.227 117.881C204.647 117.881 204.164 118.038 203.779 118.354C203.398 118.67 203.113 119.094 202.923 119.628C202.737 120.157 202.644 120.749 202.644 121.403C202.644 122.053 202.737 122.642 202.923 123.171C203.113 123.701 203.398 124.123 203.779 124.438C204.164 124.749 204.647 124.905 205.227 124.905ZM217.815 116.022V117.971H211.668V116.022H217.815ZM213.186 113.46H215.706V123.499C215.706 123.837 215.757 124.097 215.859 124.278C215.966 124.455 216.105 124.575 216.277 124.64C216.448 124.705 216.639 124.738 216.847 124.738C217.005 124.738 217.149 124.726 217.279 124.703C217.414 124.68 217.516 124.659 217.585 124.64L218.01 126.61C217.875 126.657 217.683 126.708 217.432 126.764C217.186 126.819 216.885 126.852 216.527 126.861C215.896 126.88 215.328 126.784 214.822 126.576C214.316 126.362 213.914 126.033 213.617 125.587C213.325 125.142 213.181 124.585 213.186 123.916V113.46Z" fill="#484455"/>
<path d="M314.606 116.382C319.57 122.923 323.162 123.933 331.408 119.685L340.169 128.301C326.416 137.319 318.781 138.146 305.415 125.429L301.25 129.881V112.073H318.627L314.606 116.382Z" fill="#C3C3C3"/>
<path d="M342.465 98.2878C336.306 90.8271 332.042 89.8561 324.227 88.9531V101.304C328.504 101.977 330.658 102.925 333.274 107.479L329.253 111.644H346.486V93.9795L342.465 98.2878Z" fill="#B569B5"/>
<path d="M319.919 102.453C315.689 104.921 314.396 107.036 313.744 111.931H301.25C301.961 103.523 304.006 99.4565 310.728 93.4051L306.564 88.9531H324.228V106.761L319.919 102.453Z" fill="#C97BC9"/>
<path d="M286.221 153.205V146.155H287.832V147.33H287.905C288.034 146.923 288.254 146.609 288.566 146.389C288.881 146.166 289.241 146.054 289.645 146.054C289.737 146.054 289.839 146.059 289.952 146.068C290.069 146.074 290.165 146.085 290.242 146.1V147.628C290.171 147.604 290.06 147.583 289.907 147.564C289.757 147.543 289.611 147.532 289.47 147.532C289.168 147.532 288.895 147.598 288.654 147.729C288.415 147.858 288.227 148.037 288.089 148.266C287.951 148.496 287.882 148.761 287.882 149.06V153.205H286.221ZM294.176 153.343C293.469 153.343 292.859 153.196 292.345 152.902C291.834 152.605 291.441 152.186 291.165 151.645C290.89 151.1 290.752 150.459 290.752 149.721C290.752 148.996 290.89 148.36 291.165 147.812C291.444 147.261 291.832 146.833 292.331 146.527C292.83 146.218 293.416 146.063 294.089 146.063C294.524 146.063 294.934 146.134 295.319 146.274C295.708 146.412 296.05 146.626 296.347 146.917C296.647 147.208 296.883 147.578 297.054 148.028C297.225 148.474 297.311 149.007 297.311 149.625V150.134H291.532V149.015H295.718C295.715 148.696 295.646 148.413 295.512 148.165C295.377 147.915 295.189 147.717 294.947 147.573C294.709 147.43 294.43 147.358 294.112 147.358C293.772 147.358 293.474 147.44 293.217 147.605C292.96 147.768 292.759 147.982 292.616 148.248C292.475 148.511 292.403 148.8 292.4 149.116V150.093C292.4 150.503 292.475 150.855 292.625 151.149C292.775 151.44 292.984 151.663 293.254 151.819C293.523 151.972 293.838 152.048 294.199 152.048C294.441 152.048 294.66 152.015 294.856 151.947C295.051 151.877 295.221 151.775 295.365 151.64C295.509 151.505 295.617 151.339 295.691 151.14L297.242 151.314C297.144 151.724 296.958 152.082 296.682 152.388C296.41 152.691 296.061 152.927 295.636 153.095C295.21 153.26 294.724 153.343 294.176 153.343ZM306.836 146.977H305.12C305.071 146.695 304.98 146.446 304.849 146.229C304.717 146.008 304.553 145.822 304.358 145.669C304.162 145.516 303.938 145.401 303.687 145.324C303.44 145.245 303.172 145.205 302.884 145.205C302.373 145.205 301.92 145.334 301.526 145.591C301.131 145.845 300.822 146.218 300.599 146.71C300.375 147.2 300.263 147.798 300.263 148.505C300.263 149.224 300.375 149.83 300.599 150.323C300.825 150.812 301.134 151.182 301.526 151.433C301.92 151.681 302.372 151.805 302.88 151.805C303.161 151.805 303.424 151.768 303.669 151.695C303.917 151.619 304.139 151.507 304.335 151.36C304.534 151.213 304.7 151.033 304.835 150.818C304.973 150.604 305.068 150.359 305.12 150.084L306.836 150.093C306.772 150.54 306.633 150.959 306.418 151.351C306.207 151.742 305.93 152.088 305.588 152.388C305.245 152.685 304.844 152.917 304.385 153.086C303.926 153.251 303.417 153.334 302.857 153.334C302.031 153.334 301.293 153.142 300.644 152.76C299.996 152.377 299.485 151.825 299.111 151.103C298.738 150.381 298.551 149.515 298.551 148.505C298.551 147.492 298.74 146.626 299.116 145.907C299.492 145.185 300.005 144.633 300.654 144.25C301.302 143.868 302.037 143.677 302.857 143.677C303.38 143.677 303.867 143.75 304.316 143.897C304.766 144.044 305.167 144.259 305.519 144.544C305.871 144.826 306.16 145.171 306.386 145.581C306.616 145.988 306.766 146.453 306.836 146.977ZM309.489 153.205H307.671L310.981 143.805H313.083L316.397 153.205H314.579L312.069 145.733H311.995L309.489 153.205ZM309.549 149.519H314.506V150.887H309.549V149.519ZM317.635 153.205V143.805H321.16C321.882 143.805 322.488 143.94 322.977 144.209C323.47 144.478 323.842 144.849 324.093 145.32C324.347 145.788 324.474 146.32 324.474 146.917C324.474 147.52 324.347 148.055 324.093 148.523C323.839 148.992 323.464 149.36 322.968 149.63C322.473 149.896 321.862 150.029 321.137 150.029H318.801V148.629H320.907C321.33 148.629 321.675 148.556 321.945 148.409C322.214 148.262 322.413 148.06 322.541 147.803C322.673 147.546 322.739 147.251 322.739 146.917C322.739 146.583 322.673 146.29 322.541 146.036C322.413 145.782 322.212 145.584 321.94 145.444C321.671 145.3 321.324 145.228 320.898 145.228H319.338V153.205H317.635ZM325.54 145.233V143.805H333.039V145.233H330.134V153.205H328.445V145.233H325.54ZM342.115 146.977H340.398C340.349 146.695 340.259 146.446 340.127 146.229C339.996 146.008 339.832 145.822 339.636 145.669C339.44 145.516 339.217 145.401 338.966 145.324C338.718 145.245 338.45 145.205 338.163 145.205C337.652 145.205 337.199 145.334 336.804 145.591C336.41 145.845 336.101 146.218 335.877 146.71C335.654 147.2 335.542 147.798 335.542 148.505C335.542 149.224 335.654 149.83 335.877 150.323C336.104 150.812 336.413 151.182 336.804 151.433C337.199 151.681 337.65 151.805 338.158 151.805C338.44 151.805 338.703 151.768 338.948 151.695C339.196 151.619 339.417 151.507 339.613 151.36C339.812 151.213 339.979 151.033 340.114 150.818C340.251 150.604 340.346 150.359 340.398 150.084L342.115 150.093C342.05 150.54 341.911 150.959 341.697 151.351C341.486 151.742 341.209 152.088 340.866 152.388C340.524 152.685 340.123 152.917 339.664 153.086C339.205 153.251 338.695 153.334 338.135 153.334C337.309 153.334 336.572 153.142 335.923 152.76C335.274 152.377 334.763 151.825 334.39 151.103C334.017 150.381 333.83 149.515 333.83 148.505C333.83 147.492 334.018 146.626 334.395 145.907C334.771 145.185 335.284 144.633 335.932 144.25C336.581 143.868 337.315 143.677 338.135 143.677C338.659 143.677 339.145 143.75 339.595 143.897C340.045 144.044 340.446 144.259 340.797 144.544C341.149 144.826 341.438 145.171 341.665 145.581C341.894 145.988 342.044 146.453 342.115 146.977ZM343.674 153.205V143.805H345.377V147.784H349.733V143.805H351.44V153.205H349.733V149.212H345.377V153.205H343.674ZM354.499 153.205H352.682L355.991 143.805H358.093L361.407 153.205H359.589L357.079 145.733H357.005L354.499 153.205ZM354.559 149.519H359.516V150.887H354.559V149.519Z" fill="#797979"/>
</g>
<g filter="url(#filter2_dd_5895_13625)">
<g clip-path="url(#clip2_5895_13625)">
<rect x="332.703" y="294.406" width="278.055" height="97.5267" rx="10.34" fill="white"/>
<path d="M374.947 323.669C375.12 323.618 375.232 323.618 375.293 323.679C375.364 323.73 375.364 323.822 375.324 323.974C375.273 324.117 375.191 324.249 375.069 324.371C374.947 324.473 374.805 324.544 374.621 324.605L369.065 326.559C368.882 326.63 368.75 326.63 368.668 326.559C368.607 326.468 368.597 326.335 368.658 326.162C368.729 325.979 368.862 325.776 369.065 325.552L375.639 319.008L371.691 319.721C371.528 319.751 371.426 319.731 371.365 319.66C371.324 319.578 371.335 319.477 371.396 319.324C371.467 319.161 371.558 319.019 371.681 318.917C371.813 318.795 371.955 318.724 372.108 318.703L376.87 318.042C377.033 318.032 377.165 318.062 377.237 318.154C377.308 318.225 377.328 318.327 377.277 318.459C377.227 318.591 377.115 318.734 376.962 318.876L370.51 325.094L374.947 323.669ZM377.715 323.883C377.511 323.924 377.369 323.903 377.288 323.822C377.196 323.74 377.196 323.608 377.257 323.435C377.257 323.435 377.949 321.39 378.753 319.497C379.353 317.645 379.292 315.691 379.292 315.691C379.272 315.538 379.302 315.416 379.394 315.335C379.475 315.243 379.608 315.203 379.781 315.223C379.944 315.243 380.086 315.314 380.208 315.426C380.33 315.528 380.391 315.65 380.412 315.813C380.412 315.813 380.493 317.706 379.974 319.487C379.191 321.298 378.539 323.242 378.539 323.242C378.488 323.415 378.387 323.557 378.244 323.669C378.092 323.781 377.908 323.852 377.715 323.883ZM385.907 317.899C385.388 317.716 385.001 317.726 384.747 317.869C384.482 318.001 384.37 318.276 384.36 318.693L384.33 319.029L385.948 319.67C386.1 319.751 386.222 319.853 386.293 319.975C386.365 320.077 386.385 320.189 386.355 320.291C386.334 320.403 386.273 320.464 386.171 320.464C386.07 320.474 385.927 320.443 385.775 320.362L384.167 319.69L383.037 323.669C383.007 323.812 382.915 323.913 382.752 323.964C382.6 324.025 382.427 324.035 382.213 324.015C381.999 323.985 381.836 323.934 381.704 323.842C381.602 323.74 381.562 323.618 381.602 323.466L382.966 319.344L382.009 319.059C381.847 319.008 381.724 318.947 381.653 318.866C381.582 318.774 381.562 318.683 381.592 318.581C381.612 318.469 381.674 318.388 381.765 318.357C381.877 318.316 382.009 318.316 382.172 318.367L383.129 318.673L383.149 318.479C383.169 317.828 383.342 317.37 383.739 317.146C384.116 316.912 384.737 316.892 385.581 317.085L385.948 317.197C386.212 317.289 386.385 317.39 386.497 317.502C386.619 317.614 386.701 317.757 386.731 317.899C386.762 318.143 386.619 318.194 386.283 318.052L385.907 317.899ZM396.449 326.396C396.632 326.437 396.805 326.498 396.948 326.569C397.111 326.651 397.202 326.732 397.233 326.803C397.284 326.925 397.019 326.956 396.439 326.905C395.829 326.864 395.177 326.814 394.495 326.732C393.804 326.651 393.132 326.559 392.491 326.437C390.608 326.05 389.163 325.531 388.146 324.85C387.169 324.178 386.741 323.486 386.762 322.733C386.782 322.244 386.985 321.878 387.342 321.644C387.677 321.4 388.146 321.298 388.736 321.339C389.357 321.39 390.079 321.583 390.913 321.919C392.145 322.356 393.264 322.886 394.251 323.496C395.289 324.097 396.022 324.707 396.419 325.297C396.49 325.409 396.48 325.48 396.398 325.501C396.307 325.521 396.113 325.501 395.839 325.45L388.42 323.415C388.634 324.483 389.916 325.338 392.409 325.908C393.05 326.05 393.631 326.142 394.088 326.193C394.567 326.234 395.065 326.274 395.595 326.305C396.012 326.325 396.297 326.356 396.449 326.396ZM391.127 322.56C390.283 322.244 389.641 322.133 389.184 322.204C388.715 322.275 388.461 322.54 388.42 322.957L394.719 324.819C394.445 324.371 393.987 323.964 393.356 323.588C392.735 323.191 391.982 322.855 391.127 322.56ZM409.943 330.009C410.126 330.08 410.289 330.172 410.421 330.284C410.574 330.396 410.665 330.508 410.706 330.619L411.378 333.174C411.408 333.336 411.378 333.438 411.286 333.479C411.215 333.53 411.062 333.52 410.828 333.469C410.34 333.367 409.739 333.184 409.007 332.899C408.294 332.624 407.562 332.299 406.819 331.932C405.415 331.22 404.153 330.426 403.064 329.663C401.955 328.91 401.029 328.157 400.276 327.414C399.482 326.712 398.881 326.02 398.464 325.358C398.016 324.707 397.915 324.229 398.169 323.924C398.393 323.578 398.932 323.394 399.797 323.415C400.591 323.415 401.69 323.628 403.105 324.127C404.061 324.453 404.987 324.839 405.872 325.318C406.758 325.806 407.582 326.325 408.315 326.885C408.63 327.119 408.834 327.312 408.946 327.475C409.027 327.597 409.047 327.689 409.007 327.74C408.966 327.79 408.874 327.78 408.712 327.709C408.569 327.648 408.366 327.526 408.101 327.343C407.236 326.753 406.483 326.284 405.862 325.949C405.221 325.592 404.55 325.287 403.807 325.012C402.128 324.402 401.049 324.27 400.489 324.483C399.889 324.656 399.879 325.175 400.438 326.05C400.886 326.915 401.609 327.78 402.667 328.645C403.695 329.541 405.058 330.426 406.737 331.271C407.948 331.861 409.017 332.278 409.963 332.533L409.404 330.375L406.514 329.073C406.29 328.971 406.086 328.849 405.923 328.727C405.76 328.615 405.659 328.503 405.618 328.411C405.567 328.309 405.598 328.259 405.72 328.269C405.832 328.269 406.005 328.32 406.239 328.411L409.943 330.009ZM418.043 324.697C418.196 324.565 418.328 324.524 418.45 324.585C418.572 324.605 418.674 324.717 418.755 324.9C418.755 324.9 420.16 327.149 421.615 329.235C422.806 331.179 423.487 333.174 423.487 333.174C423.528 333.326 423.518 333.469 423.467 333.611C423.416 333.754 423.325 333.866 423.182 333.957C423.05 334.039 422.938 334.049 422.846 333.998C422.755 333.947 422.694 333.855 422.663 333.703L419.244 327.373L419.743 333.499C419.661 333.733 419.508 333.855 419.264 333.876C419.03 333.896 418.827 333.815 418.644 333.621L413.586 329.439L415.53 334.68C415.55 334.802 415.509 334.893 415.408 334.965C415.316 335.036 415.173 335.077 414.97 335.066C414.787 335.056 414.624 335.005 414.512 334.924C414.39 334.832 414.329 334.731 414.308 334.598C414.308 334.598 414.034 332.95 413.535 331.301C412.609 329.541 411.337 327.607 411.337 327.607C411.225 327.444 411.205 327.333 411.256 327.271C411.307 327.2 411.439 327.2 411.652 327.261C411.917 327.343 412.222 327.506 412.548 327.79L419.051 332.868L417.88 325.531C417.829 325.328 417.829 325.155 417.85 325.043C417.88 324.9 417.952 324.789 418.043 324.697Z" fill="black"/>
<path d="M375.134 367.363V357.963H381.248V359.391H376.837V361.943H380.931V363.37H376.837V365.936H381.285V367.363H375.134ZM384.573 363.232V367.363H382.912V360.313H384.5V361.511H384.582C384.745 361.117 385.003 360.803 385.358 360.57C385.716 360.338 386.158 360.222 386.684 360.222C387.171 360.222 387.595 360.326 387.956 360.534C388.32 360.742 388.602 361.043 388.8 361.438C389.002 361.833 389.102 362.311 389.099 362.874V367.363H387.437V363.131C387.437 362.66 387.315 362.292 387.07 362.025C386.828 361.759 386.493 361.626 386.065 361.626C385.774 361.626 385.516 361.69 385.289 361.819C385.066 361.944 384.89 362.126 384.761 362.365C384.636 362.604 384.573 362.893 384.573 363.232ZM394.308 360.313V361.598H390.255V360.313H394.308ZM391.256 358.624H392.917V365.243C392.917 365.466 392.951 365.638 393.018 365.757C393.089 365.873 393.181 365.953 393.294 365.996C393.407 366.038 393.533 366.06 393.67 366.06C393.774 366.06 393.869 366.052 393.955 366.037C394.044 366.022 394.111 366.008 394.157 365.996L394.437 367.294C394.348 367.325 394.221 367.359 394.056 367.395C393.894 367.432 393.695 367.454 393.459 367.46C393.043 367.472 392.668 367.409 392.335 367.271C392.001 367.131 391.736 366.913 391.541 366.62C391.348 366.326 391.253 365.959 391.256 365.518V358.624ZM398.743 367.501C398.036 367.501 397.426 367.354 396.912 367.06C396.401 366.764 396.008 366.344 395.732 365.803C395.457 365.258 395.319 364.617 395.319 363.88C395.319 363.154 395.457 362.518 395.732 361.97C396.011 361.419 396.399 360.991 396.898 360.685C397.397 360.376 397.983 360.222 398.656 360.222C399.09 360.222 399.5 360.292 399.886 360.433C400.275 360.57 400.617 360.785 400.914 361.075C401.214 361.366 401.45 361.736 401.621 362.186C401.792 362.633 401.878 363.165 401.878 363.783V364.293H396.099V363.173H400.285C400.282 362.855 400.213 362.571 400.079 362.324C399.944 362.073 399.756 361.875 399.514 361.732C399.276 361.588 398.997 361.516 398.679 361.516C398.339 361.516 398.041 361.598 397.784 361.764C397.527 361.926 397.326 362.14 397.183 362.406C397.042 362.669 396.97 362.959 396.967 363.274V364.251C396.967 364.661 397.042 365.013 397.192 365.307C397.342 365.598 397.551 365.821 397.821 365.977C398.09 366.13 398.405 366.207 398.766 366.207C399.008 366.207 399.227 366.173 399.422 366.106C399.618 366.035 399.788 365.933 399.932 365.798C400.076 365.664 400.184 365.497 400.258 365.298L401.809 365.472C401.711 365.882 401.525 366.24 401.249 366.546C400.977 366.849 400.628 367.085 400.203 367.253C399.777 367.418 399.291 367.501 398.743 367.501ZM403.284 367.363V360.313H404.895V361.488H404.968C405.097 361.081 405.317 360.768 405.629 360.547C405.944 360.324 406.304 360.212 406.708 360.212C406.799 360.212 406.902 360.217 407.015 360.226C407.131 360.232 407.228 360.243 407.304 360.258V361.787C407.234 361.762 407.122 361.741 406.969 361.722C406.819 361.701 406.674 361.69 406.533 361.69C406.23 361.69 405.958 361.756 405.716 361.888C405.478 362.016 405.289 362.195 405.152 362.425C405.014 362.654 404.945 362.919 404.945 363.219V367.363H403.284ZM415.135 360.313V361.598H411.082V360.313H415.135ZM412.082 358.624H413.744V365.243C413.744 365.466 413.777 365.638 413.845 365.757C413.915 365.873 414.007 365.953 414.12 365.996C414.233 366.038 414.359 366.06 414.497 366.06C414.601 366.06 414.695 366.052 414.781 366.037C414.87 366.022 414.937 366.008 414.983 365.996L415.263 367.294C415.174 367.325 415.047 367.359 414.882 367.395C414.72 367.432 414.521 367.454 414.285 367.46C413.869 367.472 413.494 367.409 413.161 367.271C412.827 367.131 412.563 366.913 412.367 366.62C412.174 366.326 412.079 365.959 412.082 365.518V358.624ZM419.569 367.501C418.863 367.501 418.252 367.354 417.738 367.06C417.227 366.764 416.834 366.344 416.559 365.803C416.283 365.258 416.145 364.617 416.145 363.88C416.145 363.154 416.283 362.518 416.559 361.97C416.837 361.419 417.226 360.991 417.724 360.685C418.223 360.376 418.809 360.222 419.482 360.222C419.917 360.222 420.327 360.292 420.712 360.433C421.101 360.57 421.444 360.785 421.74 361.075C422.04 361.366 422.276 361.736 422.447 362.186C422.619 362.633 422.704 363.165 422.704 363.783V364.293H416.926V363.173H421.112C421.109 362.855 421.04 362.571 420.905 362.324C420.77 362.073 420.582 361.875 420.341 361.732C420.102 361.588 419.823 361.516 419.505 361.516C419.166 361.516 418.867 361.598 418.61 361.764C418.353 361.926 418.153 362.14 418.009 362.406C417.868 362.669 417.796 362.959 417.793 363.274V364.251C417.793 364.661 417.868 365.013 418.018 365.307C418.168 365.598 418.378 365.821 418.647 365.977C418.916 366.13 419.231 366.207 419.592 366.207C419.834 366.207 420.053 366.173 420.249 366.106C420.445 366.035 420.614 365.933 420.758 365.798C420.902 365.664 421.011 365.497 421.084 365.298L422.635 365.472C422.538 365.882 422.351 366.24 422.076 366.546C421.803 366.849 421.454 367.085 421.029 367.253C420.604 367.418 420.117 367.501 419.569 367.501ZM425.317 360.313L426.74 362.916L428.186 360.313H429.944L427.819 363.838L429.98 367.363H428.232L426.74 364.825L425.262 367.363H423.5L425.648 363.838L423.555 360.313H425.317ZM434.749 360.313V361.598H430.696V360.313H434.749ZM431.697 358.624H433.358V365.243C433.358 365.466 433.392 365.638 433.459 365.757C433.53 365.873 433.622 365.953 433.735 365.996C433.848 366.038 433.974 366.06 434.111 366.06C434.215 366.06 434.31 366.052 434.396 366.037C434.485 366.022 434.552 366.008 434.598 365.996L434.878 367.294C434.789 367.325 434.662 367.359 434.497 367.395C434.335 367.432 434.136 367.454 433.9 367.46C433.484 367.472 433.109 367.409 432.776 367.271C432.442 367.131 432.177 366.913 431.982 366.62C431.789 366.326 431.694 365.959 431.697 365.518V358.624Z" fill="#B5B5B5"/>
<rect x="358.124" y="343.688" width="200.241" height="37.3506" rx="7.78139" stroke="#D8D1D8" stroke-width="1.03752"/>
</g>
</g>
</g>
<defs>
<filter id="filter0_dd_5895_13625" x="126.287" y="179.277" width="406.362" height="110.777" filterUnits="userSpaceOnUse" color-interpolation-filters="sRGB">
<feFlood flood-opacity="0" result="BackgroundImageFix"/>
<feColorMatrix in="SourceAlpha" type="matrix" values="0 0 0 0 0 0 0 0 0 0 0 0 0 0 0 0 0 0 127 0" result="hardAlpha"/>
<feOffset dx="2.58499" dy="2.58499"/>
<feGaussianBlur stdDeviation="3.23124"/>
<feComposite in2="hardAlpha" operator="out"/>
<feColorMatrix type="matrix" values="0 0 0 0 0 0 0 0 0 0 0 0 0 0 0 0 0 0 0.05 0"/>
<feBlend mode="normal" in2="BackgroundImageFix" result="effect1_dropShadow_5895_13625"/>
<feColorMatrix in="SourceAlpha" type="matrix" values="0 0 0 0 0 0 0 0 0 0 0 0 0 0 0 0 0 0 127 0" result="hardAlpha"/>
<feOffset dx="-5.16999"/>
<feGaussianBlur stdDeviation="5.16999"/>
<feComposite in2="hardAlpha" operator="out"/>
<feColorMatrix type="matrix" values="0 0 0 0 0 0 0 0 0 0 0 0 0 0 0 0 0 0 0.05 0"/>
<feBlend mode="normal" in2="effect1_dropShadow_5895_13625" result="effect2_dropShadow_5895_13625"/>
<feBlend mode="normal" in="SourceGraphic" in2="effect2_dropShadow_5895_13625" result="shape"/>
</filter>
<filter id="filter1_dd_5895_13625" x="4.89629" y="67.2255" width="383.87" height="110.706" filterUnits="userSpaceOnUse" color-interpolation-filters="sRGB">
<feFlood flood-opacity="0" result="BackgroundImageFix"/>
<feColorMatrix in="SourceAlpha" type="matrix" values="0 0 0 0 0 0 0 0 0 0 0 0 0 0 0 0 0 0 127 0" result="hardAlpha"/>
<feOffset dx="2.58499" dy="2.58499"/>
<feGaussianBlur stdDeviation="3.23124"/>
<feComposite in2="hardAlpha" operator="out"/>
<feColorMatrix type="matrix" values="0 0 0 0 0 0 0 0 0 0 0 0 0 0 0 0 0 0 0.05 0"/>
<feBlend mode="normal" in2="BackgroundImageFix" result="effect1_dropShadow_5895_13625"/>
<feColorMatrix in="SourceAlpha" type="matrix" values="0 0 0 0 0 0 0 0 0 0 0 0 0 0 0 0 0 0 127 0" result="hardAlpha"/>
<feOffset dx="-5.16999"/>
<feGaussianBlur stdDeviation="5.16999"/>
<feComposite in2="hardAlpha" operator="out"/>
<feColorMatrix type="matrix" values="0 0 0 0 0 0 0 0 0 0 0 0 0 0 0 0 0 0 0.05 0"/>
<feBlend mode="normal" in2="effect1_dropShadow_5895_13625" result="effect2_dropShadow_5895_13625"/>
<feBlend mode="normal" in="SourceGraphic" in2="effect2_dropShadow_5895_13625" result="shape"/>
</filter>
<filter id="filter2_dd_5895_13625" x="317.193" y="284.066" width="302.612" height="118.206" filterUnits="userSpaceOnUse" color-interpolation-filters="sRGB">
<feFlood flood-opacity="0" result="BackgroundImageFix"/>
<feColorMatrix in="SourceAlpha" type="matrix" values="0 0 0 0 0 0 0 0 0 0 0 0 0 0 0 0 0 0 127 0" result="hardAlpha"/>
<feOffset dx="2.58499" dy="2.58499"/>
<feGaussianBlur stdDeviation="3.23124"/>
<feComposite in2="hardAlpha" operator="out"/>
<feColorMatrix type="matrix" values="0 0 0 0 0 0 0 0 0 0 0 0 0 0 0 0 0 0 0.05 0"/>
<feBlend mode="normal" in2="BackgroundImageFix" result="effect1_dropShadow_5895_13625"/>
<feColorMatrix in="SourceAlpha" type="matrix" values="0 0 0 0 0 0 0 0 0 0 0 0 0 0 0 0 0 0 127 0" result="hardAlpha"/>
<feOffset dx="-5.16999"/>
<feGaussianBlur stdDeviation="5.16999"/>
<feComposite in2="hardAlpha" operator="out"/>
<feColorMatrix type="matrix" values="0 0 0 0 0 0 0 0 0 0 0 0 0 0 0 0 0 0 0.05 0"/>
<feBlend mode="normal" in2="effect1_dropShadow_5895_13625" result="effect2_dropShadow_5895_13625"/>
<feBlend mode="normal" in="SourceGraphic" in2="effect2_dropShadow_5895_13625" result="shape"/>
</filter>
<clipPath id="clip0_5895_13625">
<rect width="632" height="500" fill="white" transform="translate(0 0.637207)"/>
</clipPath>
<clipPath id="clip1_5895_13625">
<rect x="141.797" y="189.617" width="381.807" height="90.0971" rx="10.34" fill="white"/>
</clipPath>
<clipPath id="clip2_5895_13625">
<rect x="332.703" y="294.406" width="278.055" height="97.5267" rx="10.34" fill="white"/>
</clipPath>
</defs>
</svg>
