<svg width="30" height="30" viewBox="0 0 30 30" fill="none" xmlns="http://www.w3.org/2000/svg">
<circle cx="15" cy="15" r="15" fill="#FF5C00"/>
<path d="M14.5583 6.43333C14.6755 6.31629 14.8344 6.25055 15 6.25055C15.1656 6.25055 15.3245 6.31629 15.4417 6.43333L17.9417 8.93333C18.0521 9.05181 18.1122 9.20852 18.1093 9.37043C18.1065 9.53235 18.0409 9.68684 17.9264 9.80135C17.8118 9.91586 17.6574 9.98146 17.4954 9.98431C17.3335 9.98717 17.1768 9.92707 17.0583 9.81667L15.625 8.38333V11.25H14.375V8.38333L12.9417 9.81667C12.8232 9.92707 12.6665 9.98717 12.5046 9.98431C12.3426 9.98146 12.1882 9.91586 12.0736 9.80135C11.9591 9.68684 11.8935 9.53235 11.8907 9.37043C11.8878 9.20852 11.9479 9.05181 12.0583 8.93333L14.5583 6.43333ZM14.375 11.25V17.5C14.375 17.6658 14.4408 17.8247 14.5581 17.9419C14.6753 18.0592 14.8342 18.125 15 18.125C15.1658 18.125 15.3247 18.0592 15.4419 17.9419C15.5592 17.8247 15.625 17.6658 15.625 17.5V11.25H18.75C19.413 11.25 20.0489 11.5134 20.5178 11.9822C20.9866 12.4511 21.25 13.087 21.25 13.75V21.25C21.25 21.913 20.9866 22.5489 20.5178 23.0178C20.0489 23.4866 19.413 23.75 18.75 23.75H11.25C10.587 23.75 9.95107 23.4866 9.48223 23.0178C9.01339 22.5489 8.75 21.913 8.75 21.25V13.75C8.75 13.087 9.01339 12.4511 9.48223 11.9822C9.95107 11.5134 10.587 11.25 11.25 11.25H14.375Z" fill="white"/>
</svg>
