<?xml version="1.0" encoding="UTF-8"?>
<!DOCTYPE svg PUBLIC "-//W3C//DTD SVG 1.1//EN" "http://www.w3.org/Graphics/SVG/1.1/DTD/svg11.dtd">
<svg xmlns="http://www.w3.org/2000/svg" version="1.1" width="2061" height="2061" viewBox="889 49 2061 2061" style="shape-rendering:geometricPrecision; text-rendering:geometricPrecision; image-rendering:optimizeQuality; fill-rule:evenodd; clip-rule:evenodd" xmlns:xlink="http://www.w3.org/1999/xlink">
<g><path style="opacity:0.988" fill="#fe3620" d="M 1916.5,74.5 C 1937.14,84.9035 1957.3,96.2368 1977,108.5C 1978,108.5 1979,108.5 1980,108.5C 2035.28,139.887 2090.45,171.387 2145.5,203C 2304.6,291.51 2464.1,381.01 2624,471.5C 2624.67,486.833 2624.67,502.167 2624,517.5C 2604.31,527.931 2584.47,538.264 2564.5,548.5C 2348.35,427.052 2132.85,306.052 1918,185.5C 1657.47,332.182 1396.97,479.016 1136.5,626C 1396.27,772.606 1656.6,920.106 1917.5,1068.5C 2212.71,902.391 2506.54,736.724 2799,571.5C 2814.68,579.984 2830.51,588.318 2846.5,596.5C 2847.83,716.5 2847.83,836.5 2846.5,956.5C 2537.46,1131.21 2228.79,1305.71 1920.5,1480C 1919.87,1480.75 1919.37,1481.58 1919,1482.5C 1646.68,1328.77 1370.68,1173.11 1091,1015.5C 1090.17,1078.17 1090.33,1140.84 1091.5,1203.5C 1366.93,1359.63 1642.43,1515.63 1918,1671.5C 2211.11,1506.7 2503.94,1341.53 2796.5,1176C 2800.48,1172.58 2804.82,1171.92 2809.5,1174C 2822.16,1180.33 2834.49,1187.16 2846.5,1194.5C 2847.83,1316.17 2847.83,1437.83 2846.5,1559.5C 2702.83,1640.61 2557.67,1722.95 2411,1806.5C 2410.67,1806.17 2410.33,1805.83 2410,1805.5C 2327.09,1853.72 2244.75,1900.38 2163,1945.5C 2082.27,1991.98 2000.77,2038.32 1918.5,2084.5C 1607.04,1908.22 1298.37,1733.22 992.5,1559.5C 991.167,1538.17 991.167,1516.83 992.5,1495.5C 1006.78,1488.69 1020.78,1481.36 1034.5,1473.5C 1328.64,1640.5 1623.14,1807.16 1918,1973.5C 2195.51,1816.84 2472.18,1660.51 2748,1504.5C 2748.83,1441.16 2748.67,1377.83 2747.5,1314.5C 2470.65,1471.14 2194.15,1627.14 1918,1782.5C 1758.02,1692.24 1597.86,1601.4 1437.5,1510C 1288.36,1425.81 1140.02,1341.98 992.5,1258.5C 991.167,1136.5 991.167,1014.5 992.5,892.5C 1006.43,885.287 1020.26,877.953 1034,870.5C 1171.41,947.259 1309.07,1025.26 1447,1104.5C 1447.33,1104.17 1447.67,1103.83 1448,1103.5C 1604.14,1192.95 1760.81,1281.62 1918,1369.5C 2053.13,1294.27 2187.79,1218.27 2322,1141.5C 2463.47,1062.51 2605.3,982.506 2747.5,901.5C 2748.67,837.836 2748.83,774.169 2748,710.5C 2612.35,787.469 2475.85,864.969 2338.5,943C 2198.24,1021.71 2058.07,1100.54 1918,1179.5C 1607.91,1003.77 1299.41,828.77 992.5,654.5C 991.167,635.167 991.167,615.833 992.5,596.5C 1139.24,513.602 1286.58,430.768 1434.5,348C 1494.56,312.761 1554.06,279.261 1613,247.5C 1695.37,200.486 1777.7,153.486 1860,106.5C 1860.33,106.833 1860.67,107.167 1861,107.5C 1879.48,96.348 1897.98,85.348 1916.5,74.5 Z"/></g>
</svg>
