<svg width="64" height="64" viewBox="0 0 64 64" fill="none" xmlns="http://www.w3.org/2000/svg">
<path d="M32 4C16.5562 4 4 16.5563 4 32C4 47.4438 16.5562 60 32 60C47.4437 60 60 47.4438 60 32C60 16.5563 47.4437 4 32 4Z" fill="#FDDD4C"/>
<path d="M19.7377 39.3003C19.1254 38.3734 20.6653 36.9705 20.039 35.7927C19.6779 35.1133 19.0878 34.69 18.379 34.6011C17.6988 34.5158 16.9981 34.7648 16.5515 35.2515C15.8463 36.0188 15.7366 37.0634 15.873 37.433C15.923 37.5685 16.0014 37.6055 16.0576 37.6134C16.4417 37.6639 16.6578 36.6782 16.7904 36.4729C17.157 35.907 17.9895 35.7358 18.5645 36.1077C19.6546 36.8128 18.7093 37.9524 18.7909 38.9149C18.8703 39.8521 19.4542 40.2287 19.9784 40.2683C20.4883 40.2877 20.8449 40.0043 20.935 39.7975C21.1508 39.3038 20.2414 40.063 19.7377 39.3003Z" fill="black"/>
<path d="M42.5154 30.7917C42.2295 30.7521 41.9169 30.7531 41.5918 30.7917C41.3449 30.4802 41.1238 29.9759 40.999 29.3872C40.777 28.34 40.8002 27.5814 41.4198 27.4829C42.0393 27.3843 42.3389 28.0179 42.5609 29.0651C42.7098 29.7691 42.6812 30.4159 42.5154 30.7917Z" fill="black"/>
<path d="M35.7292 31.4147C35.7537 31.6519 35.7624 31.8918 35.7554 32.1127C36.3549 32.1479 36.7796 32.4327 36.8927 32.6133C36.9506 32.7066 36.9274 32.7673 36.9087 32.7955C36.8467 32.892 36.7137 32.8771 36.4351 32.8459C36.1917 32.8185 35.9296 32.7945 35.6573 32.807C35.509 33.2616 35.0696 33.3041 34.7609 32.9679C34.5452 33.0337 34.1215 33.3042 33.9953 33.0102C33.9942 32.8643 34.1467 32.6523 34.423 32.465C34.2344 32.1053 34.108 31.7201 34.0334 31.3214C33.6417 31.3919 33.2894 31.5016 33.0132 31.5876C32.8835 31.628 32.3705 31.8597 32.3104 31.5986C32.2703 31.4182 32.5511 31.1207 32.848 30.906C33.1797 30.6705 33.5477 30.5031 33.9292 30.4065C33.921 29.8385 34.0659 29.4423 34.4785 29.3766C34.9902 29.2952 35.3073 29.6892 35.5268 30.4187C36.1452 30.5905 36.7627 31.0165 37.0353 31.4569C37.1414 31.6276 37.1619 31.7596 37.0933 31.8291C36.9219 32.0068 35.9724 31.4918 35.7292 31.4147Z" fill="black"/>
<path d="M39.7954 33.9676C40.1877 34.1577 40.6192 34.0829 40.76 33.8004C40.9009 33.5179 40.6967 33.1351 40.3045 32.945C39.9122 32.7549 39.4807 32.8297 39.3399 33.1122C39.199 33.3947 39.4032 33.7775 39.7954 33.9676Z" fill="black"/>
<path d="M41.7263 32.5648C41.7335 32.1328 41.9982 31.7878 42.3165 31.7931C42.6348 31.7992 42.8871 32.153 42.8799 32.5842C42.8728 33.0154 42.608 33.3604 42.2898 33.3551C41.9715 33.3498 41.7192 32.996 41.7263 32.5648Z" fill="black"/>
<path fill-rule="evenodd" clip-rule="evenodd" d="M50.357 37.8563C50.3632 37.8783 50.3544 37.8473 50.357 37.8563C50.9962 37.8563 52 38.5814 52 40.3335C52 42.0768 51.2672 44.0515 51.0942 44.4897C48.4545 50.7342 42.1543 54.2102 34.6497 53.9902C27.6532 53.7851 21.6864 50.141 19.0752 44.2002C17.4964 44.202 15.8685 43.5164 14.6311 42.434C13.3269 41.2936 12.5227 39.8178 12.3658 38.2787C12.2437 37.0801 12.3926 35.9652 12.7732 34.9928L11.3067 33.7661C4.59555 28.1728 25.5858 5.1433 32.2988 10.9231C32.3327 10.9522 34.5828 13.131 34.5882 13.1363C37.825 11.7797 46.4977 9.1968 46.5075 15.2096C46.5111 17.2063 45.222 19.5348 43.1564 21.6476C45.5435 23.8329 44.914 26.937 45.2942 29.785L46.1233 30.012C47.7039 30.4494 48.8281 31.0328 49.3781 31.603C49.9282 32.1724 50.201 32.7242 50.2999 33.371C50.3926 33.8928 50.3802 34.8141 49.683 35.8446C49.934 36.5094 50.1632 37.1721 50.357 37.8563ZM18.9567 42.5801C19.1911 42.5854 19.4238 42.5704 19.652 42.5317C22.1045 42.119 22.7464 39.4896 22.3426 36.9077C21.8861 33.9922 19.8883 32.9644 18.5323 32.8914C18.1552 32.872 17.8049 32.9054 17.516 32.9626C15.0956 33.444 13.7289 35.4768 13.9982 38.1168C14.2415 40.506 16.6896 42.5203 18.9567 42.5801ZM13.4749 33.679C14.287 32.5147 15.6144 31.6726 17.1211 31.383C19.0387 26.3019 22.2409 21.6204 26.4791 18.3987C29.6243 15.8089 33.0165 13.9512 33.0165 13.9512C33.0165 13.9512 31.1898 11.8603 30.638 11.7063C27.244 10.8017 19.9141 15.7913 15.2338 22.3842C13.3402 25.0515 10.6292 29.7753 11.9254 32.205C12.085 32.5059 12.9899 33.2794 13.4749 33.679ZM40.9909 41.4132C40.9963 41.4678 40.9624 41.5241 40.9133 41.5444C40.9133 41.5444 38.1863 42.7966 33.8545 41.474C34.0102 42.7724 35.5849 43.2645 36.685 43.4425C42.0527 44.3542 47.0709 41.3244 48.2004 40.5614C48.3944 40.4304 48.1981 40.7672 48.163 40.8166C46.7803 42.5775 43.0627 44.6164 38.2264 44.6155C36.1171 44.6147 34.0087 43.8816 33.2349 42.7544C32.034 41.0058 33.1752 38.4529 35.1766 38.7187C38.5596 39.0958 42.0278 38.8125 45.1595 37.3776C47.8902 36.1262 48.9217 34.7499 48.7665 33.635C48.526 31.907 45.9641 31.6368 44.6692 31.2167C44.1058 31.0328 43.8277 30.8858 43.7644 29.8395C43.7367 29.3828 43.6565 27.7891 43.6271 27.13C43.5754 25.9763 43.4345 24.3985 42.4432 23.7473C42.1846 23.5775 41.8976 23.4956 41.5953 23.4798C41.3544 23.4683 41.2115 23.5014 41.1347 23.5192C41.1174 23.5232 41.1035 23.5264 41.0925 23.5282C40.5573 23.618 40.2292 23.8889 39.8424 24.2082C39.8201 24.2266 39.7976 24.2452 39.7749 24.2639C38.5384 25.2811 37.4945 25.4475 36.3328 25.3982C35.9711 25.3831 35.5982 25.3469 35.2049 25.3088C34.8431 25.2737 34.464 25.237 34.0604 25.2134L33.5674 25.1852C31.6222 25.0867 29.5361 26.7446 29.1893 29.0994C28.8018 31.7279 30.271 33.338 31.2265 34.385C31.4626 34.6437 31.6673 34.8681 31.8049 35.0649C31.8932 35.1837 31.9957 35.3509 31.9957 35.5102C31.9957 35.7003 31.8709 35.8508 31.7488 35.9793C29.7643 37.9936 29.1295 41.1941 29.8775 43.8614C29.9711 44.194 30.0897 44.5126 30.2296 44.8171C31.9841 48.8642 37.4276 50.7491 42.7445 49.0349C46.4708 47.8334 49.7632 44.9301 50.4336 40.9248C50.5932 39.8812 50.3588 39.4781 50.0396 39.2836C49.7017 39.0786 49.297 39.1499 49.297 39.1499C49.297 39.1499 49.1124 37.9029 48.59 36.7695C47.0397 37.9769 45.0445 38.8252 43.5254 39.2555C41.0915 39.9447 38.4625 40.2131 35.9474 39.8881C34.9273 39.7562 34.2419 39.6677 33.9481 40.6098C37.3028 41.8224 40.8536 41.3032 40.8536 41.3032C40.9223 41.2962 40.9838 41.3455 40.9909 41.4132ZM31.3119 17.8812C29.4772 18.8079 27.4286 20.4579 25.765 22.356C25.7062 22.4238 25.7936 22.5171 25.8658 22.4652C27.3029 21.4329 29.2731 20.4737 31.854 19.8524C34.7451 19.1564 37.5283 19.4485 39.2284 19.8331C39.314 19.8524 39.3675 19.7072 39.2917 19.665C38.1684 19.0428 36.4443 18.6204 35.2211 18.6116C35.1614 18.6108 35.1275 18.5421 35.1632 18.4946C35.3745 18.2139 35.6642 17.9367 35.929 17.736C35.9878 17.6903 35.9522 17.5961 35.8773 17.6005C34.3557 17.6928 30.8805 19.2774 30.8929 19.2197C30.9821 18.7973 31.2629 18.2394 31.4082 17.9789C31.443 17.9173 31.3752 17.8496 31.3119 17.8812Z" fill="black"/>
</svg>
