<svg width="130" height="130" viewBox="0 0 130 130" fill="none" xmlns="http://www.w3.org/2000/svg">
<g clip-path="url(#clip0_10725_1639)">
<path d="M108 46.0629C107.998 45.4606 107.984 44.8615 107.957 44.2653V10.2743L98.5604 19.6714C90.8694 10.2573 79.1694 4.24438 66.0644 4.24438C52.4264 4.24438 40.3104 10.7541 32.6514 20.8354L48.0544 36.4004C49.5639 33.6087 51.7083 31.2109 54.2939 29.3999C56.983 27.3014 60.7932 25.5856 66.0639 25.5856C66.7006 25.5856 67.1921 25.66 67.5532 25.8002C74.0836 26.3156 79.7442 29.9196 83.0772 35.1505L72.1742 46.0535C85.9842 45.9993 101.585 45.9675 107.999 46.0605" fill="#1C3AA9"/>
<path d="M65.8195 4.24609C65.2172 4.24809 64.6181 4.26199 64.0219 4.28899H30.0309L39.428 13.6861C30.0139 21.3771 24.001 33.0771 24.001 46.1821C24.001 59.8201 30.5108 71.9361 40.592 79.5951L56.157 64.1921C53.3653 62.6826 50.9675 60.5382 49.1565 57.9526C47.0581 55.2635 45.3422 51.4533 45.3422 46.1826C45.3422 45.5459 45.4166 45.0544 45.5568 44.6933C46.0722 38.1629 49.6762 32.5023 54.9071 29.1693L65.8101 40.0723C65.7559 26.2623 65.724 10.6613 65.8171 4.24729" fill="#4285F4"/>
<path d="M24.002 46.1809C24.004 46.7832 24.0179 47.3823 24.0449 47.9785V81.9695L33.442 72.5724C41.133 81.9865 52.833 87.9994 65.938 87.9994C79.576 87.9994 91.692 81.4897 99.351 71.4084L83.948 55.8434C82.4385 58.6351 80.2941 61.0329 77.7085 62.8439C75.0194 64.9424 71.2092 66.6582 65.9385 66.6582C65.3017 66.6582 64.8103 66.5838 64.4492 66.4436C57.9188 65.9282 52.2582 62.3242 48.9252 57.0933L59.8282 46.1903C46.0182 46.2445 30.4172 46.2763 24.0032 46.1833" fill="#ABABAB"/>
<path d="M31.0785 104.24C30.057 104.24 29.1412 104.434 28.331 104.821C27.5208 105.2 26.834 105.741 26.2704 106.446C25.7156 107.15 25.2885 108.005 24.9891 109.008C24.6985 110.003 24.5532 111.117 24.5532 112.35V115.903C24.5532 117.145 24.6985 118.263 24.9891 119.258C25.2885 120.254 25.7112 121.103 26.2572 121.808C26.8032 122.512 27.4636 123.054 28.2385 123.432C29.0134 123.811 29.8852 124 30.8539 124C31.849 124 32.7208 123.855 33.4693 123.565C34.2266 123.274 34.8606 122.856 35.3714 122.31C35.8821 121.755 36.274 121.086 36.547 120.302C36.8288 119.518 36.9961 118.629 37.0489 117.634H34.6052C34.5436 118.4 34.4379 119.056 34.2882 119.602C34.1385 120.139 33.9184 120.584 33.6278 120.936C33.346 121.279 32.9761 121.535 32.5182 121.702C32.0691 121.861 31.5143 121.94 30.8539 121.94C30.1494 121.94 29.5506 121.786 29.0575 121.478C28.5643 121.161 28.1637 120.729 27.8555 120.183C27.5561 119.637 27.3359 118.999 27.195 118.268C27.0629 117.537 26.9969 116.749 26.9969 115.903V112.324C26.9969 111.417 27.0761 110.593 27.2346 109.854C27.4019 109.114 27.6529 108.484 27.9875 107.965C28.3222 107.445 28.7449 107.044 29.2556 106.763C29.7664 106.472 30.374 106.327 31.0784 106.327C31.6684 106.327 32.1747 106.415 32.5974 106.591C33.0201 106.758 33.3724 107.023 33.6541 107.384C33.9359 107.736 34.1517 108.185 34.3014 108.731C34.4511 109.277 34.5524 109.928 34.6052 110.686H37.0489C37.0049 109.647 36.8419 108.726 36.5602 107.925C36.2784 107.124 35.8865 106.45 35.3846 105.904C34.8826 105.358 34.2706 104.944 33.5486 104.662C32.8353 104.381 32.012 104.24 31.0785 104.24ZM90.7305 104.24C89.709 104.24 88.7932 104.434 87.983 104.821C87.1728 105.2 86.486 105.741 85.9224 106.446C85.3676 107.15 84.9405 108.005 84.6411 109.008C84.3505 110.003 84.2052 111.117 84.2052 112.35V115.903C84.2052 117.145 84.3505 118.263 84.6411 119.258C84.9405 120.254 85.3632 121.103 85.9092 121.808C86.4552 122.512 87.1156 123.054 87.8905 123.432C88.6654 123.811 89.5372 124 90.5059 124C91.5009 124 92.3727 123.855 93.1213 123.565C93.8786 123.274 94.5126 122.856 95.0234 122.31C95.5341 121.755 95.926 121.086 96.199 120.302C96.4808 119.518 96.6481 118.629 96.7009 117.634H94.2573C94.1957 118.4 94.09 119.056 93.9403 119.602C93.7906 120.139 93.5705 120.584 93.2799 120.936C92.9981 121.279 92.6282 121.535 92.1703 121.702C91.7212 121.861 91.1664 121.94 90.506 121.94C89.8015 121.94 89.2027 121.786 88.7096 121.478C88.2164 121.161 87.8158 120.729 87.5076 120.183C87.2082 119.637 86.988 118.999 86.8471 118.268C86.715 117.537 86.649 116.749 86.649 115.903V112.324C86.649 111.417 86.7283 110.593 86.8867 109.854C87.0541 109.114 87.305 108.484 87.6397 107.965C87.9743 107.445 88.397 107.044 88.9077 106.763C89.4184 106.472 90.0261 106.327 90.7305 106.327C91.3205 106.327 91.8268 106.415 92.2495 106.591C92.6721 106.758 93.0244 107.023 93.3062 107.384C93.5879 107.736 93.8037 108.185 93.9534 108.731C94.1031 109.277 94.2044 109.928 94.2572 110.686H96.7008C96.6567 109.647 96.4939 108.726 96.2121 107.925C95.9303 107.124 95.5384 106.45 95.0365 105.904C94.5345 105.358 93.9225 104.944 93.2005 104.662C92.4872 104.381 91.664 104.24 90.7305 104.24ZM45.0015 104.504L38.8065 123.736H41.2898L42.7824 118.717H49.2812L50.8002 123.736H53.2835L47.0753 104.504H45.0015ZM55.8985 104.504V123.736H58.3157V116.207H62.0274C62.952 116.207 63.771 116.079 64.4843 115.824C65.1976 115.56 65.7964 115.181 66.2807 114.688C66.7738 114.195 67.1437 113.587 67.3902 112.865C67.6456 112.134 67.7732 111.307 67.7732 110.382C67.7732 109.528 67.6456 108.744 67.3902 108.031C67.1436 107.309 66.7782 106.688 66.2939 106.168C65.8096 105.64 65.2064 105.23 64.4843 104.94C63.771 104.649 62.9521 104.504 62.0274 104.504L55.8985 104.504ZM69.6225 104.504V106.591H74.6683V123.736H77.0855V106.591H82.1445V104.504H69.6225ZM99.9635 104.504V123.736H102.381V114.847H110.121V123.736H112.551V104.504H110.121V112.773H102.381V104.504H99.9635ZM121.718 104.504L115.523 123.736H118.007L119.499 118.717H125.998L127.517 123.736H130L123.792 104.504H121.718ZM58.3155 106.591H62.0272C62.6172 106.591 63.1191 106.697 63.533 106.908C63.9557 107.119 64.2991 107.401 64.5633 107.754C64.8363 108.106 65.0344 108.515 65.1577 108.982C65.2898 109.44 65.3558 109.915 65.3558 110.409C65.3558 110.954 65.2898 111.456 65.1577 111.914C65.0344 112.363 64.8363 112.755 64.5633 113.09C64.2991 113.416 63.9557 113.671 63.533 113.856C63.1191 114.041 62.6172 114.133 62.0272 114.133H58.3155V106.591ZM46.0315 107.886L48.6601 116.63H43.4162L46.0315 107.886ZM122.748 107.886L125.377 116.63H120.133L122.748 107.886ZM8.96848 109.18C8.36087 109.18 7.83688 109.334 7.39658 109.642C6.96509 109.951 6.60404 110.369 6.31348 110.897L6.27385 109.444H4.00195V123.736H6.33995V113.512C6.5601 112.905 6.87271 112.425 7.27778 112.072C7.69166 111.72 8.21562 111.544 8.84968 111.544C9.05222 111.544 9.23274 111.553 9.39124 111.571C9.54975 111.58 9.72146 111.601 9.90639 111.637L9.89318 109.365C9.85795 109.347 9.80072 109.329 9.72146 109.312C9.65102 109.285 9.57176 109.263 9.4837 109.246C9.39563 109.228 9.30318 109.215 9.20631 109.206C9.11824 109.188 9.03893 109.18 8.96848 109.18ZM16.8278 109.18C16.1497 109.18 15.4937 109.299 14.8597 109.537C14.2257 109.775 13.6621 110.166 13.169 110.712C12.6847 111.25 12.2928 111.954 11.9934 112.826C11.694 113.689 11.5443 114.75 11.5443 116.009V117.621C11.5443 118.713 11.672 119.659 11.9273 120.461C12.1827 121.262 12.5482 121.927 13.0236 122.455C13.508 122.975 14.0935 123.362 14.7804 123.618C15.4673 123.873 16.2378 124.001 17.092 124.001C17.7085 124.001 18.2588 123.939 18.7431 123.816C19.2363 123.692 19.6722 123.534 20.0508 123.34C20.4295 123.138 20.7553 122.909 21.0283 122.653C21.3013 122.398 21.5346 122.134 21.7284 121.861L20.5132 120.381C20.3194 120.619 20.1125 120.839 19.8924 121.042C19.6722 121.236 19.43 121.407 19.1659 121.557C18.9017 121.698 18.6111 121.808 18.2941 121.887C17.9771 121.966 17.6204 122.006 17.2242 122.006C16.1411 122.006 15.3089 121.658 14.7277 120.963C14.1553 120.267 13.8691 119.153 13.8691 117.621V117.29H21.8473V115.93C21.8473 114.838 21.7548 113.874 21.5699 113.037C21.385 112.201 21.09 111.496 20.6849 110.924C20.2798 110.351 19.7603 109.92 19.1262 109.629C18.4922 109.33 17.7261 109.18 16.8278 109.18ZM16.8278 111.188C17.3385 111.188 17.7612 111.28 18.0959 111.465C18.4305 111.65 18.6947 111.91 18.8884 112.245C19.091 112.579 19.2363 112.98 19.3243 113.447C19.4212 113.905 19.4828 114.411 19.5092 114.966V115.283H13.8822C13.9175 114.481 14.0143 113.816 14.1728 113.288C14.3313 112.76 14.5383 112.341 14.7937 112.033C15.0578 111.716 15.3616 111.496 15.7051 111.373C16.0485 111.25 16.4227 111.188 16.8278 111.188Z" fill="#A6A6A6"/>
</g>
<defs>
<clipPath id="clip0_10725_1639">
<rect width="130" height="130" fill="white"/>
</clipPath>
</defs>
</svg>
