<svg width="43" height="43" viewBox="0 0 43 43" fill="none" xmlns="http://www.w3.org/2000/svg">
<path d="M32 34C29.8 34 28 32.2 28 30C28 27.8 29.8 26 32 26C34.2 26 36 27.8 36 30C36 32.2 34.2 34 32 34Z" fill="#37474F"/>
<path d="M32.0008 39.9996C29.0008 39.9996 26.1008 38.5996 24.2008 36.2996L27.3008 33.7996C28.4008 35.1996 30.2008 36.0996 32.0008 36.0996C35.3008 36.0996 38.0008 33.3996 38.0008 30.0996C38.0008 26.7996 35.3008 24.0996 32.0008 24.0996C31.0008 24.0996 30.0008 24.3996 29.1008 24.7996L27.4008 25.7996L20.3008 12.9996L23.8008 11.0996L29.1008 20.4996C30.1008 20.1996 31.1008 19.9996 32.1008 19.9996C37.6008 19.9996 42.1008 24.4996 42.1008 29.9996C42.1008 35.4996 37.5008 39.9996 32.0008 39.9996Z" fill="#37474F"/>
<path d="M11 39.9998C5.5 39.9998 1 35.4998 1 29.9998C1 25.3998 4.1 21.4998 8.5 20.2998L9.5 24.1998C6.9 24.8998 5 27.2998 5 29.9998C5 33.2998 7.7 35.9998 11 35.9998C14.3 35.9998 17 33.2998 17 29.9998V27.9998H32V31.9998H20.8C19.9 36.5998 15.8 39.9998 11 39.9998Z" fill="#37474F"/>
<path d="M11 34C8.8 34 7 32.2 7 30C7 27.8 8.8 26 11 26C13.2 26 15 27.8 15 30C15 32.2 13.2 34 11 34Z" fill="#E91E63"/>
<path d="M22 16C19.8 16 18 14.2 18 12C18 9.8 19.8 8 22 8C24.2 8 26 9.8 26 12C26 14.2 24.2 16 22 16Z" fill="#37474F"/>
<path d="M12.7008 31L9.30078 29L15.2008 19.3C13.2008 17.4 12.0008 14.8 12.0008 12C12.0008 6.5 16.5008 2 22.0008 2C27.5008 2 32.0008 6.5 32.0008 12C32.0008 12.9 31.9008 13.7 31.7008 14.5L27.8008 13.5C27.9008 13 28.0008 12.5 28.0008 12C28.0008 8.7 25.3008 6 22.0008 6C18.7008 6 16.0008 8.7 16.0008 12C16.0008 14.1 17.1008 16 18.9008 17.1L20.6008 18.1L12.7008 31Z" fill="#E91E63"/>
</svg>
