<svg width="69" height="69" viewBox="0 0 69 69" fill="none" xmlns="http://www.w3.org/2000/svg">
<rect width="69" height="69" rx="6.4" fill="url(#paint0_linear_320_7234)"/>
<path d="M21.6417 32.0901C21.6417 31.0245 22.0651 30.0026 22.8185 29.2491C23.572 28.4956 24.594 28.0723 25.6596 28.0723C26.7252 28.0723 27.7472 28.4956 28.5007 29.2491C29.2541 30.0026 29.6775 31.0245 29.6775 32.0901C29.6775 33.1557 29.2541 34.1777 28.5007 34.9312C27.7472 35.6847 26.7252 36.108 25.6596 36.108C24.594 36.108 23.572 35.6847 22.8185 34.9312C22.0651 34.1777 21.6417 33.1557 21.6417 32.0901ZM25.6596 30.483C25.2334 30.483 24.8246 30.6523 24.5232 30.9537C24.2218 31.2551 24.0525 31.6639 24.0525 32.0901C24.0525 32.5164 24.2218 32.9251 24.5232 33.2265C24.8246 33.5279 25.2334 33.6973 25.6596 33.6973C26.0858 33.6973 26.4946 33.5279 26.796 33.2265C27.0974 32.9251 27.2667 32.5164 27.2667 32.0901C27.2667 31.6639 27.0974 31.2551 26.796 30.9537C26.4946 30.6523 26.0858 30.483 25.6596 30.483ZM25.6596 39.3223C24.594 39.3223 23.572 39.7456 22.8185 40.4991C22.0651 41.2526 21.6417 42.2745 21.6417 43.3401C21.6417 44.4057 22.0651 45.4277 22.8185 46.1812C23.572 46.9347 24.594 47.358 25.6596 47.358C26.7252 47.358 27.7472 46.9347 28.5007 46.1812C29.2541 45.4277 29.6775 44.4057 29.6775 43.3401C29.6775 42.2745 29.2541 41.2526 28.5007 40.4991C27.7472 39.7456 26.7252 39.3223 25.6596 39.3223ZM24.0525 43.3401C24.0525 42.9139 24.2218 42.5051 24.5232 42.2037C24.8246 41.9023 25.2334 41.733 25.6596 41.733C26.0858 41.733 26.4946 41.9023 26.796 42.2037C27.0974 42.5051 27.2667 42.9139 27.2667 43.3401C27.2667 43.7664 27.0974 44.1751 26.796 44.4765C26.4946 44.7779 26.0858 44.9473 25.6596 44.9473C25.2334 44.9473 24.8246 44.7779 24.5232 44.4765C24.2218 44.1751 24.0525 43.7664 24.0525 43.3401ZM32.8917 31.6883C32.8917 31.3687 33.0187 31.0621 33.2448 30.836C33.4708 30.61 33.7774 30.483 34.0971 30.483H46.1507C46.4704 30.483 46.7769 30.61 47.003 30.836C47.229 31.0621 47.356 31.3687 47.356 31.6883C47.356 32.008 47.229 32.3146 47.003 32.5407C46.7769 32.7667 46.4704 32.8937 46.1507 32.8937H34.0971C33.7774 32.8937 33.4708 32.7667 33.2448 32.5407C33.0187 32.3146 32.8917 32.008 32.8917 31.6883ZM34.0971 41.733C33.7774 41.733 33.4708 41.86 33.2448 42.086C33.0187 42.3121 32.8917 42.6187 32.8917 42.9383C32.8917 43.258 33.0187 43.5646 33.2448 43.7907C33.4708 44.0167 33.7774 44.1437 34.0971 44.1437H46.1507C46.4704 44.1437 46.7769 44.0167 47.003 43.7907C47.229 43.5646 47.356 43.258 47.356 42.9383C47.356 42.6187 47.229 42.3121 47.003 42.086C46.7769 41.86 46.4704 41.733 46.1507 41.733H34.0971ZM21.6417 23.6526C21.6417 23.3329 21.7687 23.0264 21.9948 22.8003C22.2208 22.5743 22.5274 22.4473 22.8471 22.4473H46.1507C46.4704 22.4473 46.7769 22.5743 47.003 22.8003C47.229 23.0264 47.356 23.3329 47.356 23.6526C47.356 23.9723 47.229 24.2789 47.003 24.5049C46.7769 24.731 46.4704 24.858 46.1507 24.858H22.8471C22.5274 24.858 22.2208 24.731 21.9948 24.5049C21.7687 24.2789 21.6417 23.9723 21.6417 23.6526ZM22.8471 16.8223C21.2487 16.8223 19.7158 17.4572 18.5855 18.5875C17.4553 19.7177 16.8203 21.2506 16.8203 22.8491V46.1526C16.8203 47.751 17.4553 49.284 18.5855 50.4142C19.7158 51.5444 21.2487 52.1794 22.8471 52.1794H46.1507C47.7491 52.1794 49.282 51.5444 50.4123 50.4142C51.5425 49.284 52.1775 47.751 52.1775 46.1526V22.8491C52.1775 21.2506 51.5425 19.7177 50.4123 18.5875C49.282 17.4572 47.7491 16.8223 46.1507 16.8223H22.8471ZM19.231 22.8491C19.231 21.89 19.612 20.9702 20.2901 20.2921C20.9683 19.614 21.8881 19.233 22.8471 19.233H46.1507C47.1097 19.233 48.0295 19.614 48.7076 20.2921C49.3858 20.9702 49.7667 21.89 49.7667 22.8491V46.1526C49.7667 47.1117 49.3858 48.0314 48.7076 48.7096C48.0295 49.3877 47.1097 49.7687 46.1507 49.7687H22.8471C21.8881 49.7687 20.9683 49.3877 20.2901 48.7096C19.612 48.0314 19.231 47.1117 19.231 46.1526V22.8491Z" fill="white"/>
<defs>
<linearGradient id="paint0_linear_320_7234" x1="34.5" y1="0" x2="34.5" y2="69" gradientUnits="userSpaceOnUse">
<stop stop-color="#09A6FE"/>
<stop offset="1" stop-color="#0054F7"/>
</linearGradient>
</defs>
</svg>
