<svg width="70" height="70" viewBox="0 0 70 70" fill="none" xmlns="http://www.w3.org/2000/svg">
<rect width="70" height="70" rx="6.13698" fill="url(#paint0_linear_320_7227)"/>
<path d="M54.689 20.9367C54.6846 19.4781 54.1126 18.0784 53.0942 17.0341C52.0758 15.9899 50.6909 15.383 49.2328 15.3421C47.7747 15.3011 46.358 15.8293 45.2826 16.8148C44.2072 17.8003 43.5576 19.1656 43.4713 20.6217L25.9818 24.1191C25.5729 23.2692 24.9563 22.536 24.1891 21.9875C23.4219 21.4389 22.5287 21.0926 21.5922 20.9805C20.6558 20.8685 19.7061 20.9943 18.8312 21.3464C17.9562 21.6984 17.184 22.2654 16.5862 22.9948C15.9883 23.7243 15.5839 24.5927 15.4104 25.5197C15.2369 26.4468 15.3 27.4027 15.5937 28.2989C15.8874 29.1952 16.4022 30.003 17.0907 30.6476C17.7792 31.2922 18.6191 31.7529 19.5327 31.987V43.6364C18.5731 43.8823 17.6956 44.3778 16.9894 45.0725C16.2832 45.7672 15.7734 46.6364 15.5118 47.5919C15.2502 48.5473 15.2461 49.555 15.4998 50.5126C15.7536 51.4701 16.2562 52.3435 16.9567 53.044C17.6572 53.7444 18.5306 54.2471 19.4881 54.5009C20.4457 54.7546 21.4534 54.7505 22.4088 54.4889C23.3643 54.2273 24.2335 53.7175 24.9282 53.0113C25.6229 52.3051 26.1184 51.4276 26.3643 50.468H38.0137C38.2474 51.3822 38.708 52.2227 39.3526 52.9119C39.9973 53.601 40.8054 54.1164 41.702 54.4105C42.5987 54.7046 43.555 54.7678 44.4826 54.5944C45.4102 54.4209 46.279 54.0164 47.0089 53.4182C47.7387 52.82 48.3059 52.0474 48.658 51.1719C49.0102 50.2964 49.1358 49.3463 49.0235 48.4094C48.9111 47.4724 48.5643 46.5789 48.0152 45.8115C47.466 45.0441 46.7322 44.4276 45.8816 44.0189L49.379 26.5294C50.8106 26.4508 52.158 25.8278 53.1452 24.7881C54.1324 23.7483 54.6847 22.3705 54.689 20.9367ZM49.064 18.1242C49.6202 18.1242 50.164 18.2892 50.6265 18.5982C51.089 18.9073 51.4495 19.3465 51.6624 19.8604C51.8753 20.3743 51.931 20.9398 51.8224 21.4854C51.7139 22.031 51.446 22.5321 51.0527 22.9255C50.6594 23.3188 50.1582 23.5867 49.6127 23.6952C49.0671 23.8037 48.5016 23.748 47.9877 23.5351C47.4738 23.3223 47.0345 22.9618 46.7255 22.4993C46.4164 22.0368 46.2515 21.493 46.2515 20.9367C46.2522 20.191 46.5488 19.4761 47.0761 18.9488C47.6033 18.4215 48.3183 18.125 49.064 18.1242ZM18.1265 26.5617C18.1265 26.0055 18.2914 25.4617 18.6005 24.9992C18.9095 24.5367 19.3488 24.1762 19.8627 23.9633C20.3766 23.7504 20.9421 23.6947 21.4877 23.8033C22.0332 23.9118 22.5344 24.1797 22.9277 24.573C23.3211 24.9663 23.5889 25.4675 23.6974 26.013C23.806 26.5586 23.7503 27.1241 23.5374 27.638C23.3245 28.1519 22.964 28.5912 22.5015 28.9002C22.039 29.2093 21.4952 29.3742 20.939 29.3742C20.1933 29.3735 19.4783 29.0769 18.9511 28.5496C18.4238 28.0224 18.1272 27.3074 18.1265 26.5617ZM20.939 51.8742C20.3827 51.8742 19.839 51.7093 19.3764 51.4002C18.9139 51.0912 18.5534 50.6519 18.3406 50.138C18.1277 49.6241 18.072 49.0586 18.1805 48.513C18.289 47.9675 18.5569 47.4663 18.9502 47.073C19.3436 46.6796 19.8447 46.4118 20.3903 46.3033C20.9359 46.1947 21.5014 46.2504 22.0153 46.4633C22.5292 46.6762 22.9684 47.0367 23.2775 47.4992C23.5865 47.9617 23.7515 48.5055 23.7515 49.0617C23.7507 49.8074 23.4542 50.5224 22.9269 51.0496C22.3996 51.5769 21.6847 51.8735 20.939 51.8742ZM38.0137 47.6555H26.3643C26.1124 46.6886 25.6072 45.8065 24.9007 45.1C24.1942 44.3935 23.3121 43.8883 22.3452 43.6364V31.987C23.4942 31.6882 24.5187 31.0323 25.271 30.1139C26.0233 29.1955 26.4648 28.062 26.5316 26.8767L44.0212 23.3794C44.5723 24.5131 45.4879 25.4292 46.6213 25.9809L43.124 43.4691C41.9387 43.5359 40.8052 43.9774 39.8868 44.7297C38.9684 45.482 38.3125 46.5065 38.0137 47.6555ZM43.439 51.8742C42.8827 51.8742 42.3389 51.7093 41.8764 51.4002C41.4139 51.0912 41.0534 50.6519 40.8406 50.138C40.6277 49.6241 40.572 49.0586 40.6805 48.513C40.789 47.9675 41.0569 47.4663 41.4502 47.073C41.8436 46.6796 42.3447 46.4118 42.8903 46.3033C43.4359 46.1947 44.0014 46.2504 44.5153 46.4633C45.0292 46.6762 45.4684 47.0367 45.7775 47.4992C46.0865 47.9617 46.2515 48.5055 46.2515 49.0617C46.2507 49.8074 45.9542 50.5224 45.4269 51.0496C44.8996 51.5769 44.1847 51.8735 43.439 51.8742Z" fill="white"/>
<defs>
<linearGradient id="paint0_linear_320_7227" x1="35" y1="0" x2="35" y2="70" gradientUnits="userSpaceOnUse">
<stop stop-color="#D579CC"/>
<stop offset="1" stop-color="#AC32A0"/>
</linearGradient>
</defs>
</svg>
