<svg width="70" height="70" viewBox="0 0 70 70" fill="none" xmlns="http://www.w3.org/2000/svg">
<rect width="70" height="70" rx="6.6208" fill="url(#paint0_linear_320_7193)"/>
<path d="M51.7569 26.6188C48.5506 20.2231 42.1306 16.25 35 16.25C24.6613 16.25 16.25 24.6613 16.25 35C16.25 45.3387 24.6613 53.75 35 53.75C42.1306 53.75 48.5506 49.7769 51.7569 43.3812C51.9717 42.9528 52.0143 42.4582 51.8759 41.9993C51.7374 41.5404 51.4285 41.1519 51.0125 40.9137L40.6569 35L51.0106 29.0881C51.875 28.5931 52.2031 27.5094 51.7569 26.6188ZM35.945 33.3725C35.6577 33.5362 35.4189 33.773 35.2528 34.0588C35.0867 34.3447 34.9992 34.6694 34.9992 35C34.9992 35.3306 35.0867 35.6553 35.2528 35.9412C35.4189 36.227 35.6577 36.4638 35.945 36.6275L47.5194 43.2369C46.1619 45.3186 44.3054 47.0277 42.1189 48.2089C39.9324 49.3901 37.4852 50.0058 35 50C26.7294 50 20 43.2706 20 35C20 26.7294 26.7294 20 35 20C37.485 19.9941 39.932 20.6096 42.1185 21.7905C44.305 22.9713 46.1616 24.68 47.5194 26.7612L35.945 33.3725Z" fill="white"/>
<path d="M34.0625 29.375C35.6158 29.375 36.875 28.1158 36.875 26.5625C36.875 25.0092 35.6158 23.75 34.0625 23.75C32.5092 23.75 31.25 25.0092 31.25 26.5625C31.25 28.1158 32.5092 29.375 34.0625 29.375Z" fill="white"/>
<defs>
<linearGradient id="paint0_linear_320_7193" x1="35" y1="0" x2="35" y2="70" gradientUnits="userSpaceOnUse">
<stop stop-color="#E87941"/>
<stop offset="1" stop-color="#DE3282"/>
</linearGradient>
</defs>
</svg>
