<svg width="70" height="70" viewBox="0 0 70 70" fill="none" xmlns="http://www.w3.org/2000/svg">
<rect width="70" height="70" rx="6.4" fill="url(#paint0_linear_320_7202)"/>
<g clip-path="url(#clip0_320_7202)">
<path d="M34.9983 47.8577C34.9983 48.4909 34.8736 49.1178 34.6313 49.7028C34.389 50.2877 34.0339 50.8193 33.5862 51.267C33.1385 51.7147 32.6069 52.0698 32.022 52.3121C31.437 52.5544 30.8101 52.6791 30.1769 52.6791C28.8982 52.6791 27.6718 52.1712 26.7676 51.267C25.8634 50.3628 25.3555 49.1364 25.3555 47.8577M34.9983 47.8577C34.9983 47.2245 34.8736 46.5976 34.6313 46.0126C34.389 45.4277 34.0339 44.8961 33.5862 44.4484C33.1385 44.0007 32.6069 43.6456 32.022 43.4033C31.437 43.161 30.8101 43.0363 30.1769 43.0363M34.9983 47.8577H55.8912M30.1769 43.0363C28.8982 43.0363 27.6718 43.5442 26.7676 44.4484C25.8634 45.3526 25.3555 46.579 25.3555 47.8577M30.1769 43.0363V15.7148M25.3555 47.8577H14.1055M55.8912 47.8577L49.4626 41.4291M55.8912 47.8577L49.4626 54.2863M30.1769 15.7148L44.6412 23.7506L30.1769 31.7863V15.7148Z" stroke="white" stroke-width="3.21429" stroke-linecap="round" stroke-linejoin="round"/>
</g>
<defs>
<linearGradient id="paint0_linear_320_7202" x1="35" y1="0" x2="35" y2="70" gradientUnits="userSpaceOnUse">
<stop stop-color="#BB57EA"/>
<stop offset="1" stop-color="#5E4BF5"/>
</linearGradient>
<clipPath id="clip0_320_7202">
<rect width="45" height="45" fill="white" transform="translate(12.5 12.5)"/>
</clipPath>
</defs>
</svg>
