<svg width="70" height="70" viewBox="0 0 70 70" fill="none" xmlns="http://www.w3.org/2000/svg">
<rect width="70" height="70" rx="6.13698" fill="url(#paint0_linear_320_7212)"/>
<path d="M34.9987 42.0317L36.9675 44.0005L33.3112 47.6567H44.8425V50.4692H33.3112L36.9675 54.1255L34.9987 56.0942L27.9675 49.063L34.9987 42.0317ZM22.7109 45.2984L33.9469 34.0625L35.9367 36.0509L24.7008 47.2869L22.7109 45.2984Z" fill="white"/>
<path d="M44.8424 43.4375H42.0299V36.4062C42.0299 35.9844 42.1705 35.7031 42.4517 35.4219L48.2174 29.6562C50.608 27.2656 51.8736 24.0312 51.8736 20.6563V18.125H49.2017C45.8267 18.125 42.5924 19.3906 40.2017 21.7812L34.4361 27.5469C34.2955 27.8281 34.0142 27.9688 33.5924 27.9688H23.0455L19.3892 32.6094L26.8424 33.7344L26.4205 36.5469L16.5767 35.1406C16.0142 35 15.5924 34.7188 15.4517 34.2969C15.3111 33.875 15.3111 33.3125 15.5924 32.8906L21.2174 25.8594C21.4986 25.2969 21.9205 25.1562 22.3424 25.1562H33.0299L38.3736 19.8125C41.1861 16.8594 45.1236 15.3125 49.2017 15.3125H51.8736C53.4205 15.3125 54.6861 16.5781 54.6861 18.125V20.7969C54.6861 24.875 53.1392 28.8125 50.1861 31.7656L44.8424 36.9688V43.4375Z" fill="white"/>
<defs>
<linearGradient id="paint0_linear_320_7212" x1="35" y1="0" x2="35" y2="70" gradientUnits="userSpaceOnUse">
<stop stop-color="#71B1CD"/>
<stop offset="1" stop-color="#3287AC"/>
</linearGradient>
</defs>
</svg>
