<svg width="69" height="69" viewBox="0 0 69 69" fill="none" xmlns="http://www.w3.org/2000/svg">
<rect width="69" height="69" rx="6.4" fill="url(#paint0_linear_6803_5085)"/>
<g clip-path="url(#clip0_6803_5085)">
<path d="M51.0004 28.7522C51.5107 30.2041 51.8259 31.7173 51.9379 33.2522H33.8629L22.3754 47.0897C19.5293 44.3159 17.712 40.6561 17.2226 36.7122C16.7331 32.7682 17.6007 28.7752 19.6825 25.3899C21.7643 22.0046 24.9363 19.4288 28.6768 18.086C32.4173 16.7433 36.5034 16.7138 40.2629 18.0022C40.395 17.1731 40.6389 16.3657 40.9879 15.6022C36.6957 14.1181 32.0272 14.1332 27.7448 15.645C23.4623 17.1568 19.819 20.076 17.4099 23.9259C15.0008 27.7757 13.9682 32.3287 14.4809 36.8411C14.9935 41.3536 17.0211 45.5589 20.2324 48.7702C23.4437 51.9815 27.649 54.009 32.1615 54.5217C36.6739 55.0343 41.2269 54.0018 45.0767 51.5927C48.9265 49.1836 51.8458 45.5403 53.3576 41.2578C54.8694 36.9754 54.8845 32.3068 53.4004 28.0147C52.6375 28.368 51.8301 28.6161 51.0004 28.7522ZM34.5004 52.0022C30.8363 52.0003 27.2664 50.841 24.3004 48.6897L35.0379 35.7522H51.9379C51.622 40.1627 49.6483 44.2902 46.4133 47.3048C43.1784 50.3194 38.9222 51.9977 34.5004 52.0022Z" fill="white"/>
<path d="M49.5 25.7578C52.9518 25.7578 55.75 22.9596 55.75 19.5078C55.75 16.056 52.9518 13.2578 49.5 13.2578C46.0482 13.2578 43.25 16.056 43.25 19.5078C43.25 22.9596 46.0482 25.7578 49.5 25.7578Z" fill="white"/>
</g>
<defs>
<linearGradient id="paint0_linear_6803_5085" x1="34.5" y1="0" x2="34.5" y2="69" gradientUnits="userSpaceOnUse">
<stop stop-color="#FEE609"/>
<stop offset="1" stop-color="#F7A300"/>
</linearGradient>
<clipPath id="clip0_6803_5085">
<rect width="45" height="45" fill="white" transform="translate(12 12)"/>
</clipPath>
</defs>
</svg>
