<svg width="341" height="320" viewBox="0 0 341 320" fill="none" xmlns="http://www.w3.org/2000/svg">
<path fill-rule="evenodd" clip-rule="evenodd" d="M183.232 24.8818C213.697 29.6417 242.042 47.3903 257.304 74.1314C271.689 99.3346 266.375 129.721 259.079 157.776C252.373 183.566 240.175 207.532 218.55 223.158C196.225 239.289 169.004 243.944 141.449 242.773C107.684 241.338 69.5053 241.67 47.6958 215.896C24.7016 188.723 22.0398 148.259 32.8083 114.386C42.638 83.466 72.6288 66.2535 100.55 49.6401C126.237 34.3557 153.666 20.2625 183.232 24.8818Z" fill="#EED2FF"/>
<path d="M274.614 128.794L251.85 265.379C251.53 267.298 249.348 268.259 247.717 267.199L72.8405 153.562C71.7684 152.865 71.3321 151.512 71.7955 150.32L82.1259 123.757C82.5363 122.702 83.5616 122.015 84.6936 122.036L272.004 125.651C273.651 125.683 274.885 127.169 274.614 128.794Z" fill="#A58CF0"/>
<rect x="161.87" y="110.821" width="55.3339" height="69.5048" rx="2.69921" fill="white"/>
<rect x="153.772" y="106.098" width="55.3339" height="69.5048" rx="2.69921" fill="#D9E4EC"/>
<rect x="81" y="98" width="119" height="70" rx="2.69921" fill="#E6F4FD"/>
<path d="M62.5332 145.459L83.544 266.998C83.7677 268.292 84.8904 269.237 86.2037 269.237H247.062C248.737 269.237 250.008 267.727 249.722 266.076L228.053 141.238C227.828 139.944 226.706 139 225.393 139H172.304C171.117 139 170.069 139.775 169.722 140.91L167.178 149.236C166.831 150.371 165.784 151.146 164.597 151.146H124.678C123.516 151.146 122.485 150.403 122.117 149.301L119.989 142.916C119.614 141.792 118.55 141.043 117.365 141.071L65.1295 142.3C63.4811 142.339 62.2524 143.834 62.5332 145.459Z" fill="#BFAEF4"/>
<circle cx="259.369" cy="257.25" r="50.1018" transform="rotate(-16.779 259.369 257.25)" fill="white"/>
<path d="M287.134 214.197C263.434 198.721 231.673 205.389 216.197 229.089C200.721 252.793 207.388 284.55 231.091 300.028C254.79 315.503 286.552 308.835 302.027 285.135C317.503 261.432 310.836 229.675 287.134 214.197ZM289.891 287.308L281.949 281.573C277.497 285.993 271.959 289.062 265.76 290.363C247.498 294.197 229.311 281.464 225.321 262.46L238.435 259.707C240.974 271.802 251.826 278.857 262.858 276.541C265.6 275.965 268.129 274.816 270.344 273.195L262.233 267.339L284.709 262.62L289.891 287.308ZM279.106 251.168C276.7 239.71 265.938 233.016 254.923 235.328C252.102 235.917 249.437 237.095 247.104 238.787L255.573 244.145L232.947 248.895L228.332 226.913L235.289 231.313C239.92 226.703 245.743 223.585 252.174 222.234C270.409 218.406 288.42 230.408 292.201 248.417L279.106 251.166L279.106 251.168Z" fill="#EED2FF"/>
</svg>
