<svg width="429" height="320" viewBox="0 0 429 320" fill="none" xmlns="http://www.w3.org/2000/svg">
<path fill-rule="evenodd" clip-rule="evenodd" d="M227.335 28.0644C258.281 27.0033 289.593 39.0766 309.702 62.4268C328.655 84.4342 329.161 115.227 327.271 144.107C325.534 170.656 318.037 196.448 299.665 215.835C280.698 235.85 254.732 245.532 227.335 249.565C193.764 254.507 156.174 262.011 129.79 240.84C101.974 218.52 91.6958 179.345 95.9099 144.107C99.7567 111.942 126.079 89.4259 150.474 67.8864C172.917 48.0701 197.303 29.0941 227.335 28.0644Z" stroke="#ECCCFF" stroke-linecap="round" stroke-dasharray="8 8"/>
<path d="M284.997 295.575L397.006 105.807C399.739 101.178 397.219 95.2254 391.994 93.9641L306.426 73.3097C303.166 72.5229 299.762 73.8526 297.898 76.6406L181.472 250.813C178.651 255.034 180.424 260.782 185.134 262.68L275.118 298.929C278.788 300.407 282.986 298.982 284.997 295.575Z" fill="#F4F0FF"/>
<path d="M220.224 203.664L193.63 243.555C192.255 245.617 193.068 248.42 195.332 249.428L278.756 286.556C280.607 287.38 282.781 286.69 283.818 284.95L310.569 240.078C311.839 237.947 310.884 235.186 308.569 234.296L224.988 202.149C223.241 201.477 221.262 202.107 220.224 203.664Z" fill="#ECE6FF"/>
<path d="M252.5 252.5L256 247.5L229 236.5L226 241L252.5 252.5Z" fill="#D2C4FF"/>
<path d="M274.5 278L277.5 273L267 268.5L264 273L274.5 278Z" fill="#D2C4FF"/>
<path d="M285 254L287.5 249L234.5 227.5L231.5 231.5L285 254Z" fill="#D2C4FF"/>
<path d="M255.355 151.468L231.814 186.78C230.379 188.932 231.333 191.859 233.76 192.752L316.853 223.341C318.673 224.012 320.712 223.279 321.69 221.603L345.446 180.878C346.749 178.645 345.623 175.782 343.148 175.034L259.84 149.858C258.153 149.348 256.332 150.002 255.355 151.468Z" fill="#ECE6FF"/>
<path d="M312 216L314.5 211.5L304.5 207L302 211.5L312 216Z" fill="white"/>
<path d="M289.5 193L292.5 188.5L265.5 180L263 183.5L289.5 193Z" fill="white"/>
<path d="M321.5 193.5L324 189L271 171L268.5 175.5L321.5 193.5Z" fill="white"/>
<path d="M250.143 171.739C252.632 168.576 256.256 165.565 259.643 167.739C263.549 170.247 260.356 176.454 256.643 179.239C253.947 181.262 250.591 183.057 248.143 180.739C245.529 178.264 247.917 174.569 250.143 171.739Z" fill="white"/>
<path d="M213.503 226.605C215.738 223.257 219.116 219.972 222.662 221.876C226.752 224.072 224.052 230.509 220.568 233.575C218.038 235.802 214.832 237.853 212.211 235.733C209.411 233.469 211.504 229.599 213.503 226.605Z" fill="#D2C4FF"/>
<path d="M355.078 162.317L375.833 127.033C377.174 124.754 375.974 121.824 373.419 121.141L295.279 100.243C293.619 99.7992 291.86 100.465 290.911 101.898L269.001 134.971C267.512 137.218 268.627 140.266 271.216 141.02L350.511 164.129C352.269 164.641 354.15 163.895 355.078 162.317Z" fill="#ECE6FF"/>
<path d="M353 138L355.5 133.5L303.5 119L301 123.5L353 138Z" fill="#D2C4FF"/>
<path d="M322.5 138.5L324.5 134.5L298.5 127L296.5 130.5L322.5 138.5Z" fill="#D2C4FF"/>
<path d="M345 158L348 154L338 151L335.5 154.5L345 158Z" fill="#D2C4FF"/>
<g filter="url(#filter0_dd_522_225)">
<path fill-rule="evenodd" clip-rule="evenodd" d="M32.5484 34C27.275 34 23 38.275 23 43.5484V150.968C23 156.241 27.275 160.516 32.5484 160.516H253.711L264.736 179.613C266.574 182.796 271.168 182.796 273.006 179.613L284.031 160.516H305.871C311.144 160.516 315.419 156.241 315.419 150.968V43.5484C315.419 38.275 311.144 34 305.871 34H32.5484Z" fill="white"/>
</g>
<path d="M65.9009 69.87C66.1683 69.87 66.3688 69.9312 66.5025 70.0538C66.6361 70.1763 66.703 70.349 66.703 70.5718C66.703 71.0508 66.4356 71.2903 65.9009 71.2903H60.3199C59.774 71.2903 59.5011 71.0508 59.5011 70.5718C59.5011 70.349 59.5679 70.1763 59.7016 70.0538C59.8464 69.9312 60.0525 69.87 60.3199 69.87H62.2415V61.5318L60.5204 62.618C60.409 62.6848 60.2976 62.7182 60.1862 62.7182C59.9968 62.7182 59.8297 62.6347 59.6849 62.4676C59.5512 62.3005 59.4844 62.1111 59.4844 61.8994C59.4844 61.6432 59.5958 61.4427 59.8186 61.2979L62.3919 59.6603C62.6481 59.5044 62.8932 59.4264 63.1271 59.4264C63.3722 59.4264 63.5727 59.5044 63.7287 59.6603C63.8846 59.8163 63.9626 60.028 63.9626 60.2953V69.87H65.9009ZM72.6451 71.424C71.2749 71.424 70.2278 70.9115 69.5037 69.8867C68.7907 68.8618 68.4343 67.3691 68.4343 65.4085C68.4343 63.4367 68.7907 61.9384 69.5037 60.9136C70.2278 59.8887 71.2749 59.3763 72.6451 59.3763C74.0153 59.3763 75.0569 59.8887 75.7698 60.9136C76.4939 61.9273 76.8559 63.42 76.8559 65.3918C76.8559 67.3635 76.4939 68.8618 75.7698 69.8867C75.0569 70.9115 74.0153 71.424 72.6451 71.424ZM72.6451 70.0371C73.5029 70.0371 74.1323 69.6639 74.5333 68.9175C74.9343 68.1711 75.1348 66.9959 75.1348 65.3918C75.1348 63.7876 74.9343 62.618 74.5333 61.8827C74.1323 61.1364 73.5029 60.7632 72.6451 60.7632C71.7873 60.7632 71.1579 61.1364 70.7569 61.8827C70.3559 62.618 70.1554 63.7876 70.1554 65.3918C70.1554 66.9848 70.3559 68.16 70.7569 68.9175C71.1579 69.6639 71.7873 70.0371 72.6451 70.0371ZM82.6644 71.424C81.2942 71.424 80.247 70.9115 79.523 69.8867C78.81 68.8618 78.4535 67.3691 78.4535 65.4085C78.4535 63.4367 78.81 61.9384 79.523 60.9136C80.247 59.8887 81.2942 59.3763 82.6644 59.3763C84.0346 59.3763 85.0761 59.8887 85.7891 60.9136C86.5132 61.9273 86.8752 63.42 86.8752 65.3918C86.8752 67.3635 86.5132 68.8618 85.7891 69.8867C85.0761 70.9115 84.0346 71.424 82.6644 71.424ZM82.6644 70.0371C83.5221 70.0371 84.1515 69.6639 84.5526 68.9175C84.9536 68.1711 85.1541 66.9959 85.1541 65.3918C85.1541 63.7876 84.9536 62.618 84.5526 61.8827C84.1515 61.1364 83.5221 60.7632 82.6644 60.7632C81.8066 60.7632 81.1772 61.1364 80.7762 61.8827C80.3752 62.618 80.1746 63.7876 80.1746 65.3918C80.1746 66.9848 80.3752 68.16 80.7762 68.9175C81.1772 69.6639 81.8066 70.0371 82.6644 70.0371ZM96.1259 65.9098C96.3041 65.9098 96.4545 65.971 96.577 66.0936C96.6996 66.205 96.7608 66.3498 96.7608 66.528C96.7608 66.7063 96.6996 66.8566 96.577 66.9792C96.4545 67.0906 96.3041 67.1463 96.1259 67.1463H93.3019V69.9702C93.3019 70.1485 93.2407 70.2988 93.1181 70.4214C93.0067 70.5439 92.8619 70.6052 92.6837 70.6052C92.5054 70.6052 92.355 70.5439 92.2325 70.4214C92.1211 70.2988 92.0654 70.1485 92.0654 69.9702V67.1463H89.2415C89.0632 67.1463 88.9128 67.085 88.7903 66.9625C88.6678 66.8399 88.6065 66.6951 88.6065 66.528C88.6065 66.3498 88.6678 66.205 88.7903 66.0936C88.9128 65.971 89.0632 65.9098 89.2415 65.9098H92.0654V63.0858C92.0654 62.9076 92.1211 62.7572 92.2325 62.6347C92.355 62.5121 92.5054 62.4509 92.6837 62.4509C92.8619 62.4509 93.0067 62.5121 93.1181 62.6347C93.2407 62.7572 93.3019 62.9076 93.3019 63.0858V65.9098H96.1259ZM107.677 62.9354C109.615 62.9354 110.584 64.0327 110.584 66.2273V70.5718C110.584 70.8168 110.506 71.0118 110.35 71.1566C110.195 71.3014 109.988 71.3738 109.732 71.3738C109.476 71.3738 109.27 71.3014 109.114 71.1566C108.969 71.0118 108.897 70.8168 108.897 70.5718V66.244C108.897 65.5756 108.758 65.0854 108.479 64.7735C108.212 64.4616 107.788 64.3056 107.209 64.3056C106.53 64.3056 105.984 64.5173 105.572 64.9406C105.159 65.3639 104.953 65.932 104.953 66.645V70.5718C104.953 70.8168 104.875 71.0118 104.719 71.1566C104.575 71.3014 104.374 71.3738 104.118 71.3738C103.862 71.3738 103.655 71.3014 103.5 71.1566C103.344 71.0118 103.266 70.8168 103.266 70.5718V60.2285C103.266 59.9834 103.344 59.7885 103.5 59.6436C103.667 59.4988 103.878 59.4264 104.134 59.4264C104.38 59.4264 104.575 59.4988 104.719 59.6436C104.875 59.7773 104.953 59.9611 104.953 60.1951V64.3725C105.232 63.9046 105.605 63.5481 106.073 63.3031C106.541 63.058 107.075 62.9354 107.677 62.9354ZM116.319 62.9354C117.399 62.9354 118.201 63.2084 118.725 63.7542C119.26 64.3001 119.527 65.13 119.527 66.244V70.5718C119.527 70.828 119.455 71.0285 119.31 71.1733C119.165 71.307 118.964 71.3738 118.708 71.3738C118.463 71.3738 118.268 71.3014 118.123 71.1566C117.979 71.0118 117.906 70.8168 117.906 70.5718V69.9535C117.694 70.4214 117.377 70.7834 116.954 71.0396C116.542 71.2847 116.057 71.4073 115.5 71.4073C114.965 71.4073 114.475 71.3014 114.029 71.0898C113.595 70.867 113.25 70.5662 112.993 70.1874C112.737 69.8087 112.609 69.3798 112.609 68.9008C112.598 68.2993 112.748 67.8314 113.06 67.4972C113.372 67.1519 113.879 66.9068 114.581 66.762C115.283 66.606 116.257 66.528 117.505 66.528H117.889V66.0434C117.889 65.4196 117.761 64.9685 117.505 64.69C117.249 64.4115 116.837 64.2722 116.269 64.2722C115.879 64.2722 115.511 64.3223 115.166 64.4226C114.82 64.5229 114.442 64.6677 114.029 64.8571C113.729 65.0242 113.517 65.1077 113.395 65.1077C113.227 65.1077 113.088 65.0464 112.977 64.9239C112.877 64.8014 112.826 64.6454 112.826 64.456C112.826 64.2889 112.871 64.1441 112.96 64.0216C113.06 63.8879 113.216 63.7598 113.428 63.6372C113.818 63.4256 114.275 63.2585 114.798 63.136C115.322 63.0023 115.829 62.9354 116.319 62.9354ZM115.801 70.154C116.413 70.154 116.915 69.9479 117.305 69.5358C117.694 69.1125 117.889 68.5722 117.889 67.9149V67.4805H117.589C116.72 67.4805 116.051 67.5195 115.583 67.5974C115.116 67.6754 114.781 67.8091 114.581 67.9985C114.38 68.1767 114.28 68.4385 114.28 68.7838C114.28 69.1849 114.425 69.5135 114.715 69.7697C115.004 70.0259 115.366 70.154 115.801 70.154ZM127.634 63.4702C127.701 63.3031 127.795 63.1805 127.918 63.1025C128.052 63.0246 128.191 62.9856 128.336 62.9856C128.547 62.9856 128.731 63.058 128.887 63.2028C129.054 63.3476 129.138 63.5203 129.138 63.7208C129.138 63.8322 129.115 63.938 129.071 64.0383L125.879 70.8057C125.801 70.9839 125.679 71.1232 125.512 71.2234C125.356 71.3126 125.189 71.3571 125.01 71.3571C124.832 71.3571 124.659 71.3126 124.492 71.2234C124.336 71.1232 124.219 70.9839 124.141 70.8057L120.95 64.0383C120.905 63.9492 120.883 63.8433 120.883 63.7208C120.883 63.5203 120.972 63.3476 121.15 63.2028C121.329 63.058 121.529 62.9856 121.752 62.9856C122.075 62.9856 122.315 63.1415 122.47 63.4534L125.06 69.2016L127.634 63.4702ZM136.786 69.235C136.942 69.235 137.07 69.2963 137.17 69.4188C137.27 69.5413 137.32 69.6973 137.32 69.8867C137.32 70.2097 137.12 70.4826 136.719 70.7054C136.329 70.9282 135.9 71.1009 135.432 71.2234C134.975 71.346 134.535 71.4073 134.112 71.4073C132.82 71.4073 131.801 71.0341 131.054 70.2877C130.308 69.5302 129.935 68.4998 129.935 67.1964C129.935 66.3609 130.096 65.6201 130.419 64.974C130.753 64.3279 131.216 63.8266 131.806 63.4702C132.408 63.1137 133.087 62.9354 133.845 62.9354C134.936 62.9354 135.8 63.2863 136.435 63.9882C137.07 64.69 137.387 65.6368 137.387 66.8288C137.387 67.2744 137.187 67.4972 136.786 67.4972H131.622C131.734 69.2239 132.564 70.0872 134.112 70.0872C134.524 70.0872 134.881 70.0315 135.181 69.9201C135.482 69.8087 135.8 69.6639 136.134 69.4856C136.167 69.4634 136.256 69.4188 136.401 69.352C136.557 69.274 136.685 69.235 136.786 69.235ZM133.878 64.172C133.232 64.172 132.714 64.378 132.324 64.7902C131.934 65.2024 131.7 65.7817 131.622 66.528H135.933C135.9 65.7705 135.705 65.1913 135.349 64.7902C135.003 64.378 134.513 64.172 133.878 64.172ZM146.493 71.4073C145.357 71.4073 144.427 71.1733 143.703 70.7054C143.502 70.5829 143.358 70.4548 143.268 70.3211C143.19 70.1874 143.151 70.0371 143.151 69.87C143.151 69.6917 143.202 69.5413 143.302 69.4188C143.402 69.2963 143.53 69.235 143.686 69.235C143.831 69.235 144.059 69.3241 144.371 69.5023C144.705 69.6806 145.029 69.8254 145.34 69.9368C145.663 70.0482 146.065 70.1039 146.544 70.1039C147.078 70.1039 147.496 70.0092 147.797 69.8198C148.098 69.6305 148.248 69.3631 148.248 69.0178C148.248 68.795 148.187 68.6167 148.064 68.4831C147.953 68.3494 147.752 68.2324 147.463 68.1322C147.173 68.0208 146.744 67.9038 146.176 67.7813C145.196 67.5696 144.488 67.2855 144.054 66.9291C143.63 66.5614 143.419 66.0657 143.419 65.4419C143.419 64.9629 143.558 64.534 143.837 64.1553C144.115 63.7654 144.499 63.4646 144.99 63.2529C145.48 63.0413 146.037 62.9354 146.66 62.9354C147.106 62.9354 147.541 62.9967 147.964 63.1192C148.387 63.2306 148.76 63.3977 149.083 63.6205C149.451 63.8656 149.635 64.1497 149.635 64.4727C149.635 64.651 149.579 64.8014 149.468 64.9239C149.367 65.0464 149.245 65.1077 149.1 65.1077C149 65.1077 148.9 65.0854 148.799 65.0409C148.699 64.9963 148.565 64.9239 148.398 64.8236C148.098 64.6454 147.813 64.5062 147.546 64.4059C147.29 64.3056 146.967 64.2555 146.577 64.2555C146.109 64.2555 145.73 64.3558 145.441 64.5563C145.162 64.7568 145.023 65.0297 145.023 65.3751C145.023 65.687 145.151 65.932 145.407 66.1103C145.675 66.2774 146.17 66.4389 146.894 66.5949C147.641 66.7508 148.226 66.9291 148.649 67.1296C149.072 67.3301 149.373 67.5807 149.551 67.8815C149.741 68.1711 149.835 68.5443 149.835 69.0011C149.835 69.7251 149.529 70.31 148.916 70.7556C148.315 71.19 147.507 71.4073 146.493 71.4073ZM158.03 62.9689C158.286 62.9689 158.487 63.0413 158.632 63.1861C158.788 63.3309 158.866 63.5314 158.866 63.7876V70.5885C158.866 70.8224 158.788 71.0118 158.632 71.1566C158.476 71.3014 158.27 71.3738 158.013 71.3738C157.779 71.3738 157.59 71.307 157.445 71.1733C157.3 71.0285 157.228 70.8391 157.228 70.6052V69.9702C156.972 70.4381 156.615 70.7946 156.159 71.0396C155.713 71.2847 155.212 71.4073 154.655 71.4073C152.672 71.4073 151.68 70.3156 151.68 68.1322V63.7876C151.68 63.5314 151.753 63.3309 151.898 63.1861C152.054 63.0413 152.265 62.9689 152.533 62.9689C152.789 62.9689 152.989 63.0413 153.134 63.1861C153.29 63.3309 153.368 63.5314 153.368 63.7876V68.1154C153.368 68.7727 153.502 69.2573 153.769 69.5692C154.037 69.8811 154.449 70.0371 155.006 70.0371C155.663 70.0371 156.186 69.8254 156.576 69.4021C156.977 68.9788 157.178 68.4162 157.178 67.7144V63.7876C157.178 63.5426 157.256 63.3476 157.412 63.2028C157.568 63.0468 157.774 62.9689 158.03 62.9689ZM165.605 62.9354C166.318 62.9354 166.948 63.1081 167.493 63.4534C168.039 63.7988 168.463 64.2889 168.763 64.9239C169.075 65.5589 169.231 66.2997 169.231 67.1463C169.231 67.9818 169.075 68.7226 168.763 69.3687C168.463 70.0148 168.034 70.5161 167.477 70.8725C166.931 71.229 166.307 71.4073 165.605 71.4073C164.993 71.4073 164.452 71.2791 163.984 71.0229C163.517 70.7556 163.16 70.3768 162.915 69.8867V70.5551C162.915 70.8001 162.837 71.0006 162.681 71.1566C162.536 71.3014 162.336 71.3738 162.079 71.3738C161.823 71.3738 161.617 71.3014 161.461 71.1566C161.305 71.0006 161.227 70.8001 161.227 70.5551V60.2285C161.227 59.9834 161.305 59.7885 161.461 59.6436C161.628 59.4988 161.84 59.4264 162.096 59.4264C162.341 59.4264 162.536 59.4988 162.681 59.6436C162.837 59.7773 162.915 59.9611 162.915 60.1951V64.4727C163.16 63.9826 163.517 63.6038 163.984 63.3365C164.452 63.0691 164.993 62.9354 165.605 62.9354ZM165.204 70.0705C165.928 70.0705 166.491 69.8143 166.892 69.3018C167.304 68.7894 167.51 68.0709 167.51 67.1463C167.51 66.2328 167.31 65.531 166.909 65.0409C166.508 64.5396 165.939 64.2889 165.204 64.2889C164.469 64.2889 163.901 64.5396 163.5 65.0409C163.11 65.5422 162.915 66.2551 162.915 67.1797C162.915 68.1043 163.11 68.8173 163.5 69.3185C163.901 69.8198 164.469 70.0705 165.204 70.0705ZM180.457 62.9354C182.284 62.9354 183.198 64.0327 183.198 66.2273V70.5718C183.198 70.828 183.12 71.0285 182.964 71.1733C182.808 71.307 182.602 71.3738 182.345 71.3738C182.1 71.3738 181.9 71.307 181.744 71.1733C181.588 71.0285 181.51 70.828 181.51 70.5718V66.244C181.51 65.5644 181.387 65.0743 181.142 64.7735C180.897 64.4616 180.513 64.3056 179.989 64.3056C179.377 64.3056 178.892 64.5173 178.536 64.9406C178.179 65.3528 178.001 65.9209 178.001 66.645V70.5718C178.001 70.828 177.923 71.0285 177.767 71.1733C177.611 71.307 177.405 71.3738 177.149 71.3738C176.904 71.3738 176.703 71.307 176.547 71.1733C176.391 71.0285 176.313 70.828 176.313 70.5718V66.244C176.313 65.5644 176.191 65.0743 175.946 64.7735C175.7 64.4616 175.316 64.3056 174.793 64.3056C174.18 64.3056 173.69 64.5173 173.322 64.9406C172.966 65.3528 172.787 65.9209 172.787 66.645V70.5718C172.787 70.828 172.709 71.0285 172.553 71.1733C172.397 71.307 172.197 71.3738 171.952 71.3738C171.707 71.3738 171.501 71.307 171.334 71.1733C171.178 71.0285 171.1 70.828 171.1 70.5718V63.7709C171.1 63.5259 171.183 63.3309 171.35 63.1861C171.517 63.0413 171.718 62.9689 171.952 62.9689C172.186 62.9689 172.375 63.0413 172.52 63.1861C172.676 63.3198 172.754 63.5091 172.754 63.7542V64.3725C172.999 63.9046 173.339 63.5481 173.773 63.3031C174.208 63.058 174.709 62.9354 175.277 62.9354C175.901 62.9354 176.413 63.0636 176.814 63.3198C177.227 63.576 177.533 63.9714 177.733 64.5062C177.979 64.0271 178.341 63.6484 178.82 63.3699C179.299 63.0803 179.844 62.9354 180.457 62.9354ZM186.361 71.3738C186.116 71.3738 185.91 71.307 185.742 71.1733C185.587 71.0396 185.509 70.8391 185.509 70.5718V63.7876C185.509 63.5203 185.587 63.3198 185.742 63.1861C185.91 63.0413 186.116 62.9689 186.361 62.9689C186.606 62.9689 186.806 63.0413 186.962 63.1861C187.118 63.3198 187.196 63.5203 187.196 63.7876V70.5718C187.196 70.8391 187.118 71.0396 186.962 71.1733C186.806 71.307 186.606 71.3738 186.361 71.3738ZM186.361 61.3313C186.038 61.3313 185.781 61.2422 185.592 61.064C185.403 60.8857 185.308 60.6518 185.308 60.3622C185.308 60.0725 185.403 59.8442 185.592 59.6771C185.781 59.4988 186.038 59.4097 186.361 59.4097C186.673 59.4097 186.923 59.4988 187.113 59.6771C187.313 59.8442 187.413 60.0725 187.413 60.3622C187.413 60.6518 187.319 60.8857 187.129 61.064C186.94 61.2422 186.684 61.3313 186.361 61.3313ZM193.777 70.0872C194.023 70.1095 194.195 70.1763 194.295 70.2877C194.407 70.388 194.463 70.5328 194.463 70.7222C194.463 70.9449 194.373 71.1176 194.195 71.2402C194.028 71.3516 193.777 71.3961 193.443 71.3738L192.992 71.3404C192.09 71.2736 191.416 71.0006 190.97 70.5216C190.525 70.0315 190.302 69.313 190.302 68.3661V64.4393H189.299C188.809 64.4393 188.564 64.2221 188.564 63.7876C188.564 63.5871 188.625 63.4312 188.748 63.3198C188.882 63.1972 189.065 63.136 189.299 63.136H190.302V61.4149C190.302 61.1586 190.374 60.9581 190.519 60.8133C190.675 60.6685 190.881 60.5961 191.137 60.5961C191.394 60.5961 191.6 60.6685 191.756 60.8133C191.912 60.9581 191.99 61.1586 191.99 61.4149V63.136H193.644C193.878 63.136 194.056 63.1972 194.179 63.3198C194.312 63.4312 194.379 63.5871 194.379 63.7876C194.379 63.9993 194.312 64.1608 194.179 64.2722C194.056 64.3836 193.878 64.4393 193.644 64.4393H191.99V68.4831C191.99 69.0066 192.095 69.3909 192.307 69.636C192.53 69.8811 192.864 70.0203 193.31 70.0538L193.777 70.0872ZM199.636 70.0872C199.881 70.1095 200.053 70.1763 200.154 70.2877C200.265 70.388 200.321 70.5328 200.321 70.7222C200.321 70.9449 200.232 71.1176 200.053 71.2402C199.886 71.3516 199.636 71.3961 199.301 71.3738L198.85 71.3404C197.948 71.2736 197.274 71.0006 196.828 70.5216C196.383 70.0315 196.16 69.313 196.16 68.3661V64.4393H195.157C194.667 64.4393 194.422 64.2221 194.422 63.7876C194.422 63.5871 194.484 63.4312 194.606 63.3198C194.74 63.1972 194.924 63.136 195.157 63.136H196.16V61.4149C196.16 61.1586 196.232 60.9581 196.377 60.8133C196.533 60.6685 196.739 60.5961 196.996 60.5961C197.252 60.5961 197.458 60.6685 197.614 60.8133C197.77 60.9581 197.848 61.1586 197.848 61.4149V63.136H199.502C199.736 63.136 199.914 63.1972 200.037 63.3198C200.17 63.4312 200.237 63.5871 200.237 63.7876C200.237 63.9993 200.17 64.1608 200.037 64.2722C199.914 64.3836 199.736 64.4393 199.502 64.4393H197.848V68.4831C197.848 69.0066 197.954 69.3909 198.165 69.636C198.388 69.8811 198.722 70.0203 199.168 70.0538L199.636 70.0872ZM207.916 69.235C208.072 69.235 208.2 69.2963 208.3 69.4188C208.401 69.5413 208.451 69.6973 208.451 69.8867C208.451 70.2097 208.25 70.4826 207.849 70.7054C207.459 70.9282 207.03 71.1009 206.562 71.2234C206.106 71.346 205.666 71.4073 205.242 71.4073C203.95 71.4073 202.931 71.0341 202.185 70.2877C201.438 69.5302 201.065 68.4998 201.065 67.1964C201.065 66.3609 201.227 65.6201 201.55 64.974C201.884 64.3279 202.346 63.8266 202.936 63.4702C203.538 63.1137 204.218 62.9354 204.975 62.9354C206.067 62.9354 206.93 63.2863 207.565 63.9882C208.2 64.69 208.517 65.6368 208.517 66.8288C208.517 67.2744 208.317 67.4972 207.916 67.4972H202.753C202.864 69.2239 203.694 70.0872 205.242 70.0872C205.655 70.0872 206.011 70.0315 206.312 69.9201C206.613 69.8087 206.93 69.6639 207.264 69.4856C207.298 69.4634 207.387 69.4188 207.532 69.352C207.688 69.274 207.816 69.235 207.916 69.235ZM205.008 64.172C204.362 64.172 203.844 64.378 203.454 64.7902C203.065 65.2024 202.831 65.7817 202.753 66.528H207.064C207.03 65.7705 206.835 65.1913 206.479 64.7902C206.134 64.378 205.643 64.172 205.008 64.172ZM217.044 59.4264C217.301 59.4264 217.507 59.4988 217.663 59.6436C217.819 59.7885 217.897 59.9834 217.897 60.2285V70.5551C217.897 70.8113 217.819 71.0118 217.663 71.1566C217.518 71.3014 217.317 71.3738 217.061 71.3738C216.805 71.3738 216.599 71.3014 216.443 71.1566C216.298 71.0118 216.226 70.8113 216.226 70.5551V69.8867C215.981 70.3768 215.624 70.7556 215.156 71.0229C214.688 71.2791 214.148 71.4073 213.535 71.4073C212.834 71.4073 212.204 71.229 211.647 70.8725C211.101 70.5161 210.672 70.0148 210.361 69.3687C210.06 68.7226 209.909 67.9818 209.909 67.1463C209.909 66.2997 210.06 65.5589 210.361 64.9239C210.672 64.2889 211.101 63.7988 211.647 63.4534C212.193 63.1081 212.822 62.9354 213.535 62.9354C214.148 62.9354 214.683 63.0691 215.14 63.3365C215.607 63.5927 215.964 63.9603 216.209 64.4393V60.1951C216.209 59.9611 216.281 59.7773 216.426 59.6436C216.582 59.4988 216.788 59.4264 217.044 59.4264ZM213.936 70.0705C214.66 70.0705 215.223 69.8198 215.624 69.3185C216.025 68.8173 216.226 68.1043 216.226 67.1797C216.226 66.2551 216.025 65.5422 215.624 65.0409C215.234 64.5396 214.672 64.2889 213.936 64.2889C213.201 64.2889 212.627 64.5396 212.215 65.0409C211.814 65.531 211.614 66.2328 211.614 67.1463C211.614 68.0597 211.82 68.7783 212.232 69.3018C212.644 69.8143 213.212 70.0705 213.936 70.0705ZM228.649 70.0872C228.894 70.1095 229.067 70.1763 229.167 70.2877C229.279 70.388 229.334 70.5328 229.334 70.7222C229.334 70.9449 229.245 71.1176 229.067 71.2402C228.9 71.3516 228.649 71.3961 228.315 71.3738L227.864 71.3404C226.961 71.2736 226.288 71.0006 225.842 70.5216C225.396 70.0315 225.174 69.313 225.174 68.3661V64.4393H224.171C223.681 64.4393 223.436 64.2221 223.436 63.7876C223.436 63.5871 223.497 63.4312 223.62 63.3198C223.753 63.1972 223.937 63.136 224.171 63.136H225.174V61.4149C225.174 61.1586 225.246 60.9581 225.391 60.8133C225.547 60.6685 225.753 60.5961 226.009 60.5961C226.265 60.5961 226.471 60.6685 226.627 60.8133C226.783 60.9581 226.861 61.1586 226.861 61.4149V63.136H228.515C228.749 63.136 228.928 63.1972 229.05 63.3198C229.184 63.4312 229.251 63.5871 229.251 63.7876C229.251 63.9993 229.184 64.1608 229.05 64.2722C228.928 64.3836 228.749 64.4393 228.515 64.4393H226.861V68.4831C226.861 69.0066 226.967 69.3909 227.179 69.636C227.401 69.8811 227.736 70.0203 228.181 70.0538L228.649 70.0872ZM234.958 62.9354C236.896 62.9354 237.865 64.0327 237.865 66.2273V70.5718C237.865 70.8168 237.787 71.0118 237.631 71.1566C237.475 71.3014 237.269 71.3738 237.013 71.3738C236.757 71.3738 236.551 71.3014 236.395 71.1566C236.25 71.0118 236.178 70.8168 236.178 70.5718V66.244C236.178 65.5756 236.038 65.0854 235.76 64.7735C235.492 64.4616 235.069 64.3056 234.49 64.3056C233.81 64.3056 233.264 64.5173 232.852 64.9406C232.44 65.3639 232.234 65.932 232.234 66.645V70.5718C232.234 70.8168 232.156 71.0118 232 71.1566C231.855 71.3014 231.655 71.3738 231.399 71.3738C231.142 71.3738 230.936 71.3014 230.78 71.1566C230.624 71.0118 230.546 70.8168 230.546 70.5718V60.2285C230.546 59.9834 230.624 59.7885 230.78 59.6436C230.947 59.4988 231.159 59.4264 231.415 59.4264C231.66 59.4264 231.855 59.4988 232 59.6436C232.156 59.7773 232.234 59.9611 232.234 60.1951V64.3725C232.513 63.9046 232.886 63.5481 233.354 63.3031C233.821 63.058 234.356 62.9354 234.958 62.9354ZM246.557 69.235C246.713 69.235 246.841 69.2963 246.941 69.4188C247.042 69.5413 247.092 69.6973 247.092 69.8867C247.092 70.2097 246.891 70.4826 246.49 70.7054C246.1 70.9282 245.671 71.1009 245.204 71.2234C244.747 71.346 244.307 71.4073 243.884 71.4073C242.591 71.4073 241.572 71.0341 240.826 70.2877C240.079 69.5302 239.706 68.4998 239.706 67.1964C239.706 66.3609 239.868 65.6201 240.191 64.974C240.525 64.3279 240.987 63.8266 241.578 63.4702C242.179 63.1137 242.859 62.9354 243.616 62.9354C244.708 62.9354 245.571 63.2863 246.206 63.9882C246.841 64.69 247.159 65.6368 247.159 66.8288C247.159 67.2744 246.958 67.4972 246.557 67.4972H241.394C241.505 69.2239 242.335 70.0872 243.884 70.0872C244.296 70.0872 244.652 70.0315 244.953 69.9201C245.254 69.8087 245.571 69.6639 245.905 69.4856C245.939 69.4634 246.028 69.4188 246.173 69.352C246.329 69.274 246.457 69.235 246.557 69.235ZM243.65 64.172C243.003 64.172 242.485 64.378 242.096 64.7902C241.706 65.2024 241.472 65.7817 241.394 66.528H245.705C245.671 65.7705 245.477 65.1913 245.12 64.7902C244.775 64.378 244.285 64.172 243.65 64.172ZM249.871 71.3738C249.625 71.3738 249.419 71.307 249.252 71.1733C249.096 71.0396 249.018 70.8391 249.018 70.5718V63.7876C249.018 63.5203 249.096 63.3198 249.252 63.1861C249.419 63.0413 249.625 62.9689 249.871 62.9689C250.116 62.9689 250.316 63.0413 250.472 63.1861C250.628 63.3198 250.706 63.5203 250.706 63.7876V70.5718C250.706 70.8391 250.628 71.0396 250.472 71.1733C250.316 71.307 250.116 71.3738 249.871 71.3738ZM249.871 61.3313C249.548 61.3313 249.291 61.2422 249.102 61.064C248.913 60.8857 248.818 60.6518 248.818 60.3622C248.818 60.0725 248.913 59.8442 249.102 59.6771C249.291 59.4988 249.548 59.4097 249.871 59.4097C250.182 59.4097 250.433 59.4988 250.623 59.6771C250.823 59.8442 250.923 60.0725 250.923 60.3622C250.923 60.6518 250.829 60.8857 250.639 61.064C250.45 61.2422 250.194 61.3313 249.871 61.3313ZM257.343 62.9689C257.878 62.9354 258.145 63.1638 258.145 63.654C258.145 63.899 258.084 64.0828 257.961 64.2054C257.839 64.3279 257.627 64.4003 257.326 64.4226L256.825 64.4727C256.123 64.5396 255.6 64.7846 255.254 65.208C254.92 65.6313 254.753 66.1437 254.753 66.7453V70.5718C254.753 70.8391 254.675 71.0396 254.519 71.1733C254.363 71.307 254.163 71.3738 253.917 71.3738C253.672 71.3738 253.466 71.307 253.299 71.1733C253.143 71.0396 253.065 70.8391 253.065 70.5718V63.7709C253.065 63.5147 253.143 63.3198 253.299 63.1861C253.466 63.0413 253.672 62.9689 253.917 62.9689C254.14 62.9689 254.324 63.0413 254.469 63.1861C254.625 63.3198 254.703 63.5091 254.703 63.7542V64.5563C254.926 64.0661 255.249 63.6929 255.672 63.4367C256.095 63.1805 256.574 63.0301 257.109 62.9856L257.343 62.9689ZM63.0603 85.9689C63.595 85.9354 63.8623 86.1638 63.8623 86.654C63.8623 86.899 63.8011 87.0828 63.6785 87.2054C63.556 87.3279 63.3443 87.4003 63.0436 87.4226L62.5423 87.4727C61.8405 87.5396 61.3169 87.7846 60.9716 88.208C60.6374 88.6313 60.4703 89.1437 60.4703 89.7453V93.5718C60.4703 93.8391 60.3923 94.0396 60.2363 94.1733C60.0804 94.307 59.8799 94.3738 59.6348 94.3738C59.3897 94.3738 59.1836 94.307 59.0165 94.1733C58.8606 94.0396 58.7826 93.8391 58.7826 93.5718V86.7709C58.7826 86.5147 58.8606 86.3198 59.0165 86.1861C59.1836 86.0413 59.3897 85.9689 59.6348 85.9689C59.8576 85.9689 60.0414 86.0413 60.1862 86.1861C60.3422 86.3198 60.4201 86.5091 60.4201 86.7542V87.5563C60.6429 87.0661 60.966 86.6929 61.3893 86.4367C61.8126 86.1805 62.2916 86.0301 62.8263 85.9856L63.0603 85.9689ZM71.1218 92.235C71.2777 92.235 71.4058 92.2963 71.5061 92.4188C71.6064 92.5413 71.6565 92.6973 71.6565 92.8867C71.6565 93.2097 71.456 93.4826 71.0549 93.7054C70.665 93.9282 70.2362 94.1009 69.7683 94.2234C69.3116 94.346 68.8715 94.4073 68.4482 94.4073C67.156 94.4073 66.1367 94.0341 65.3904 93.2877C64.644 92.5302 64.2708 91.4998 64.2708 90.1964C64.2708 89.3609 64.4323 88.6201 64.7554 87.974C65.0896 87.3279 65.5519 86.8266 66.1423 86.4702C66.7438 86.1137 67.4234 85.9354 68.1809 85.9354C69.2726 85.9354 70.1359 86.2863 70.7709 86.9882C71.4058 87.69 71.7233 88.6368 71.7233 89.8288C71.7233 90.2744 71.5228 90.4972 71.1218 90.4972H65.9585C66.0699 92.2239 66.8998 93.0872 68.4482 93.0872C68.8604 93.0872 69.2169 93.0315 69.5176 92.9201C69.8184 92.8087 70.1359 92.6639 70.4701 92.4856C70.5035 92.4634 70.5926 92.4188 70.7375 92.352C70.8934 92.274 71.0215 92.235 71.1218 92.235ZM68.2143 87.172C67.5682 87.172 67.0502 87.378 66.6603 87.7902C66.2704 88.2024 66.0365 88.7817 65.9585 89.528H70.2696C70.2362 88.7705 70.0412 88.1913 69.6847 87.7902C69.3394 87.378 68.8493 87.172 68.2143 87.172ZM76.4237 94.4073C75.2874 94.4073 74.3573 94.1733 73.6332 93.7054C73.4327 93.5829 73.2879 93.4548 73.1987 93.3211C73.1208 93.1874 73.0818 93.0371 73.0818 92.87C73.0818 92.6917 73.1319 92.5413 73.2322 92.4188C73.3324 92.2963 73.4605 92.235 73.6165 92.235C73.7613 92.235 73.9897 92.3241 74.3016 92.5023C74.6358 92.6806 74.9588 92.8254 75.2707 92.9368C75.5938 93.0482 75.9948 93.1039 76.4738 93.1039C77.0085 93.1039 77.4263 93.0092 77.7271 92.8198C78.0278 92.6305 78.1782 92.3631 78.1782 92.0178C78.1782 91.795 78.117 91.6167 77.9944 91.4831C77.883 91.3494 77.6825 91.2324 77.3929 91.1322C77.1032 91.0208 76.6743 90.9038 76.1062 90.7813C75.1259 90.5696 74.4185 90.2855 73.9841 89.9291C73.5608 89.5614 73.3491 89.0657 73.3491 88.4419C73.3491 87.9629 73.4884 87.534 73.7669 87.1553C74.0454 86.7654 74.4297 86.4646 74.9198 86.2529C75.41 86.0413 75.967 85.9354 76.5908 85.9354C77.0364 85.9354 77.4708 85.9967 77.8942 86.1192C78.3175 86.2306 78.6907 86.3977 79.0137 86.6205C79.3813 86.8656 79.5651 87.1497 79.5651 87.4727C79.5651 87.651 79.5094 87.8014 79.398 87.9239C79.2978 88.0464 79.1752 88.1077 79.0304 88.1077C78.9302 88.1077 78.8299 88.0854 78.7296 88.0409C78.6294 87.9963 78.4957 87.9239 78.3286 87.8236C78.0278 87.6454 77.7438 87.5062 77.4764 87.4059C77.2202 87.3056 76.8971 87.2555 76.5073 87.2555C76.0394 87.2555 75.6606 87.3558 75.371 87.5563C75.0925 87.7568 74.9533 88.0297 74.9533 88.3751C74.9533 88.687 75.0814 88.932 75.3376 89.1103C75.6049 89.2774 76.1007 89.4389 76.8247 89.5949C77.5711 89.7508 78.1559 89.9291 78.5793 90.1296C79.0026 90.3301 79.3033 90.5807 79.4816 90.8815C79.671 91.1711 79.7656 91.5443 79.7656 92.0011C79.7656 92.7251 79.4593 93.31 78.8466 93.7556C78.2451 94.19 77.4374 94.4073 76.4237 94.4073ZM86.0221 85.9354C86.7239 85.9354 87.3477 86.1137 87.8936 86.4702C88.4506 86.8266 88.8795 87.3279 89.1802 87.974C89.4922 88.6201 89.6481 89.3665 89.6481 90.2131C89.6481 91.0486 89.4977 91.7838 89.1969 92.4188C88.8962 93.0538 88.4673 93.5439 87.9103 93.8893C87.3645 94.2346 86.7351 94.4073 86.0221 94.4073C85.4094 94.4073 84.8691 94.2791 84.4013 94.0229C83.9334 93.7556 83.5769 93.3768 83.3319 92.8867V96.6129C83.3319 96.8469 83.2539 97.0307 83.0979 97.1643C82.9531 97.3092 82.7582 97.3816 82.5131 97.3816C82.2569 97.3816 82.0452 97.3092 81.8781 97.1643C81.7222 97.0195 81.6442 96.8246 81.6442 96.5795V86.7876C81.6442 86.5426 81.7222 86.3476 81.8781 86.2028C82.0341 86.0468 82.2402 85.9689 82.4964 85.9689C82.7414 85.9689 82.942 86.0468 83.0979 86.2028C83.2539 86.3476 83.3319 86.5426 83.3319 86.7876V87.4727C83.5769 86.9826 83.9334 86.6038 84.4013 86.3365C84.8691 86.0691 85.4094 85.9354 86.0221 85.9354ZM85.6211 93.0705C86.3563 93.0705 86.9244 92.8254 87.3255 92.3353C87.7265 91.834 87.927 91.1266 87.927 90.2131C87.927 89.2885 87.7209 88.57 87.3088 88.0576C86.9077 87.5451 86.3452 87.2889 85.6211 87.2889C84.8859 87.2889 84.3177 87.5396 83.9167 88.0409C83.5268 88.5422 83.3319 89.2551 83.3319 90.1797C83.3319 91.1043 83.5268 91.8173 83.9167 92.3185C84.3177 92.8198 84.8859 93.0705 85.6211 93.0705ZM95.059 94.4073C94.257 94.4073 93.5496 94.2346 92.9369 93.8893C92.3354 93.5439 91.8675 93.0538 91.5333 92.4188C91.2102 91.7727 91.0487 91.0263 91.0487 90.1797C91.0487 89.3219 91.2102 88.5756 91.5333 87.9406C91.8675 87.2945 92.3354 86.7988 92.9369 86.4534C93.5496 86.1081 94.257 85.9354 95.059 85.9354C95.8611 85.9354 96.5629 86.1081 97.1645 86.4534C97.7771 86.7988 98.245 87.2945 98.5681 87.9406C98.9023 88.5756 99.0694 89.3219 99.0694 90.1797C99.0694 91.0263 98.9023 91.7727 98.5681 92.4188C98.245 93.0538 97.7771 93.5439 97.1645 93.8893C96.5629 94.2346 95.8611 94.4073 95.059 94.4073ZM95.059 93.0705C95.8054 93.0705 96.3735 92.8254 96.7634 92.3353C97.1645 91.8451 97.365 91.1266 97.365 90.1797C97.365 89.244 97.1645 88.531 96.7634 88.0409C96.3624 87.5396 95.7943 87.2889 95.059 87.2889C94.3238 87.2889 93.7557 87.5396 93.3547 88.0409C92.9536 88.531 92.7531 89.244 92.7531 90.1797C92.7531 91.1266 92.9481 91.8451 93.3379 92.3353C93.739 92.8254 94.3127 93.0705 95.059 93.0705ZM105.343 85.9354C107.293 85.9354 108.267 87.0327 108.267 89.2273V93.5718C108.267 93.828 108.189 94.0285 108.033 94.1733C107.889 94.307 107.682 94.3738 107.415 94.3738C107.159 94.3738 106.953 94.3014 106.797 94.1566C106.652 94.0118 106.58 93.8168 106.58 93.5718V89.3108C106.58 88.6201 106.44 88.1133 106.162 87.7902C105.894 87.4672 105.471 87.3056 104.892 87.3056C104.212 87.3056 103.667 87.5173 103.254 87.9406C102.842 88.3639 102.636 88.932 102.636 89.645V93.5718C102.636 93.8168 102.558 94.0118 102.402 94.1566C102.257 94.3014 102.057 94.3738 101.801 94.3738C101.544 94.3738 101.338 94.3014 101.182 94.1566C101.026 94.0118 100.948 93.8168 100.948 93.5718V86.7709C100.948 86.537 101.026 86.3476 101.182 86.2028C101.349 86.0468 101.556 85.9689 101.801 85.9689C102.046 85.9689 102.241 86.0413 102.385 86.1861C102.53 86.3309 102.603 86.5203 102.603 86.7542V87.4393C102.87 86.9492 103.243 86.576 103.722 86.3198C104.201 86.0636 104.742 85.9354 105.343 85.9354ZM113.417 94.4073C112.28 94.4073 111.35 94.1733 110.626 93.7054C110.426 93.5829 110.281 93.4548 110.192 93.3211C110.114 93.1874 110.075 93.0371 110.075 92.87C110.075 92.6917 110.125 92.5413 110.225 92.4188C110.325 92.2963 110.454 92.235 110.609 92.235C110.754 92.235 110.983 92.3241 111.295 92.5023C111.629 92.6806 111.952 92.8254 112.264 92.9368C112.587 93.0482 112.988 93.1039 113.467 93.1039C114.002 93.1039 114.419 93.0092 114.72 92.8198C115.021 92.6305 115.171 92.3631 115.171 92.0178C115.171 91.795 115.11 91.6167 114.987 91.4831C114.876 91.3494 114.676 91.2324 114.386 91.1322C114.096 91.0208 113.667 90.9038 113.099 90.7813C112.119 90.5696 111.412 90.2855 110.977 89.9291C110.554 89.5614 110.342 89.0657 110.342 88.4419C110.342 87.9629 110.481 87.534 110.76 87.1553C111.038 86.7654 111.423 86.4646 111.913 86.2529C112.403 86.0413 112.96 85.9354 113.584 85.9354C114.029 85.9354 114.464 85.9967 114.887 86.1192C115.31 86.2306 115.684 86.3977 116.007 86.6205C116.374 86.8656 116.558 87.1497 116.558 87.4727C116.558 87.651 116.502 87.8014 116.391 87.9239C116.291 88.0464 116.168 88.1077 116.023 88.1077C115.923 88.1077 115.823 88.0854 115.723 88.0409C115.622 87.9963 115.489 87.9239 115.322 87.8236C115.021 87.6454 114.737 87.5062 114.469 87.4059C114.213 87.3056 113.89 87.2555 113.5 87.2555C113.032 87.2555 112.654 87.3558 112.364 87.5563C112.086 87.7568 111.946 88.0297 111.946 88.3751C111.946 88.687 112.074 88.932 112.331 89.1103C112.598 89.2774 113.094 89.4389 113.818 89.5949C114.564 89.7508 115.149 89.9291 115.572 90.1296C115.996 90.3301 116.296 90.5807 116.475 90.8815C116.664 91.1711 116.759 91.5443 116.759 92.0011C116.759 92.7251 116.452 93.31 115.84 93.7556C115.238 94.19 114.43 94.4073 113.417 94.4073ZM125.02 92.235C125.176 92.235 125.304 92.2963 125.405 92.4188C125.505 92.5413 125.555 92.6973 125.555 92.8867C125.555 93.2097 125.354 93.4826 124.953 93.7054C124.564 93.9282 124.135 94.1009 123.667 94.2234C123.21 94.346 122.77 94.4073 122.347 94.4073C121.055 94.4073 120.035 94.0341 119.289 93.2877C118.542 92.5302 118.169 91.4998 118.169 90.1964C118.169 89.3609 118.331 88.6201 118.654 87.974C118.988 87.3279 119.45 86.8266 120.041 86.4702C120.642 86.1137 121.322 85.9354 122.079 85.9354C123.171 85.9354 124.034 86.2863 124.669 86.9882C125.304 87.69 125.622 88.6368 125.622 89.8288C125.622 90.2744 125.421 90.4972 125.02 90.4972H119.857C119.968 92.2239 120.798 93.0872 122.347 93.0872C122.759 93.0872 123.115 93.0315 123.416 92.9201C123.717 92.8087 124.034 92.6639 124.369 92.4856C124.402 92.4634 124.491 92.4188 124.636 92.352C124.792 92.274 124.92 92.235 125.02 92.235ZM122.113 87.172C121.467 87.172 120.949 87.378 120.559 87.7902C120.169 88.2024 119.935 88.7817 119.857 89.528H124.168C124.135 88.7705 123.94 88.1913 123.583 87.7902C123.238 87.378 122.748 87.172 122.113 87.172Z" fill="black"/>
<rect x="58.2097" y="115.758" width="127.71" height="22.6774" rx="8.95161" fill="#E6F4FD"/>
<path d="M72.5335 131.021C71.8102 131.021 71.18 130.867 70.6429 130.559C70.1058 130.244 69.694 129.797 69.4076 129.217C69.1211 128.629 68.9779 127.938 68.9779 127.144C68.9779 126.356 69.1211 125.672 69.4076 125.092C69.694 124.505 70.1058 124.057 70.6429 123.749C71.18 123.434 71.8102 123.276 72.5335 123.276C73.0061 123.276 73.4537 123.352 73.8762 123.502C74.2987 123.645 74.6675 123.856 74.9826 124.136C75.1187 124.243 75.1867 124.386 75.1867 124.565C75.1867 124.694 75.1509 124.805 75.0793 124.898C75.0077 124.984 74.9218 125.027 74.8215 125.027C74.6998 125.027 74.5816 124.981 74.467 124.888C74.1233 124.63 73.8082 124.451 73.5217 124.351C73.2424 124.243 72.9238 124.189 72.5657 124.189C71.778 124.189 71.1728 124.444 70.7503 124.952C70.3278 125.461 70.1165 126.191 70.1165 127.144C70.1165 128.103 70.3278 128.837 70.7503 129.346C71.1728 129.854 71.778 130.108 72.5657 130.108C72.9094 130.108 73.221 130.055 73.5002 129.947C73.7867 129.84 74.109 129.661 74.467 129.41C74.6102 129.317 74.7284 129.27 74.8215 129.27C74.9218 129.27 75.0077 129.317 75.0793 129.41C75.1509 129.496 75.1867 129.603 75.1867 129.732C75.1867 129.911 75.1187 130.055 74.9826 130.162C74.6675 130.441 74.2987 130.656 73.8762 130.807C73.4537 130.95 73.0061 131.021 72.5335 131.021ZM79.2124 125.564C80.4584 125.564 81.0815 126.27 81.0815 127.681V130.474C81.0815 130.631 81.0313 130.756 80.9311 130.849C80.8308 130.943 80.6983 130.989 80.5336 130.989C80.3689 130.989 80.2364 130.943 80.1362 130.849C80.0431 130.756 79.9965 130.631 79.9965 130.474V127.691C79.9965 127.262 79.907 126.947 79.728 126.746C79.5561 126.546 79.284 126.445 78.9116 126.445C78.4747 126.445 78.1238 126.581 77.8589 126.853C77.5939 127.126 77.4614 127.491 77.4614 127.949V130.474C77.4614 130.631 77.4113 130.756 77.311 130.849C77.2179 130.943 77.089 130.989 76.9243 130.989C76.7596 130.989 76.6271 130.943 76.5269 130.849C76.4266 130.756 76.3765 130.631 76.3765 130.474V123.824C76.3765 123.667 76.4266 123.541 76.5269 123.448C76.6343 123.355 76.7704 123.309 76.9351 123.309C77.0926 123.309 77.2179 123.355 77.311 123.448C77.4113 123.534 77.4614 123.652 77.4614 123.803V126.488C77.6405 126.187 77.8804 125.958 78.1811 125.801C78.4819 125.643 78.8256 125.564 79.2124 125.564ZM86.6691 129.614C86.7694 129.614 86.8517 129.654 86.9162 129.732C86.9806 129.811 87.0128 129.911 87.0128 130.033C87.0128 130.241 86.8839 130.416 86.6261 130.559C86.3755 130.703 86.0998 130.814 85.799 130.892C85.5054 130.971 85.2225 131.011 84.9504 131.011C84.1197 131.011 83.4644 130.771 82.9846 130.291C82.5048 129.804 82.2649 129.142 82.2649 128.304C82.2649 127.767 82.3687 127.29 82.5764 126.875C82.7913 126.46 83.0885 126.137 83.468 125.908C83.8547 125.679 84.2916 125.564 84.7785 125.564C85.4803 125.564 86.0353 125.79 86.4435 126.241C86.8517 126.692 87.0558 127.301 87.0558 128.067C87.0558 128.354 86.9269 128.497 86.6691 128.497H83.3498C83.4215 129.607 83.955 130.162 84.9504 130.162C85.2154 130.162 85.4445 130.126 85.6379 130.055C85.8312 129.983 86.0353 129.89 86.2502 129.775C86.2717 129.761 86.3289 129.732 86.422 129.689C86.5223 129.639 86.6047 129.614 86.6691 129.614ZM84.8 126.359C84.3847 126.359 84.0517 126.492 83.801 126.757C83.5504 127.022 83.4 127.394 83.3498 127.874H86.1213C86.0998 127.387 85.9745 127.015 85.7453 126.757C85.5233 126.492 85.2082 126.359 84.8 126.359ZM90.4964 131.011C89.988 131.011 89.5404 130.9 89.1537 130.678C88.7741 130.456 88.4769 130.141 88.2621 129.732C88.0544 129.324 87.9506 128.851 87.9506 128.314C87.9506 127.77 88.058 127.29 88.2728 126.875C88.4948 126.46 88.8028 126.137 89.1966 125.908C89.5905 125.679 90.0417 125.564 90.5501 125.564C90.8223 125.564 91.0944 125.604 91.3665 125.683C91.6458 125.761 91.8929 125.869 92.1077 126.005C92.3369 126.162 92.4515 126.345 92.4515 126.553C92.4515 126.674 92.4192 126.778 92.3548 126.864C92.2903 126.943 92.208 126.982 92.1077 126.982C92.0433 126.982 91.9788 126.968 91.9144 126.939C91.8499 126.904 91.7676 126.853 91.6673 126.789C91.4883 126.674 91.32 126.589 91.1624 126.531C91.012 126.467 90.8294 126.435 90.6146 126.435C90.1276 126.435 89.7481 126.599 89.4759 126.929C89.211 127.258 89.0785 127.716 89.0785 128.304C89.0785 128.891 89.211 129.346 89.4759 129.668C89.7409 129.983 90.1169 130.141 90.6038 130.141C90.8187 130.141 91.0085 130.108 91.1732 130.044C91.3379 129.979 91.5062 129.893 91.678 129.786C91.7568 129.736 91.8356 129.693 91.9144 129.657C91.9931 129.621 92.0647 129.603 92.1292 129.603C92.2295 129.603 92.3118 129.646 92.3763 129.732C92.4407 129.811 92.4729 129.911 92.4729 130.033C92.4729 130.133 92.4443 130.226 92.387 130.312C92.3369 130.391 92.2474 130.474 92.1185 130.559C91.9036 130.703 91.653 130.814 91.3665 130.892C91.0801 130.971 90.79 131.011 90.4964 131.011ZM97.8482 130.087C97.9771 130.194 98.0415 130.327 98.0415 130.484C98.0415 130.62 97.995 130.738 97.9019 130.839C97.8088 130.939 97.6978 130.989 97.5689 130.989C97.4328 130.989 97.3111 130.939 97.2037 130.839L94.5289 128.476V130.463C94.5289 130.635 94.4788 130.767 94.3785 130.86C94.2783 130.946 94.1494 130.989 93.9918 130.989C93.8343 130.989 93.7018 130.946 93.5944 130.86C93.4941 130.767 93.444 130.635 93.444 130.463V123.835C93.444 123.663 93.4941 123.534 93.5944 123.448C93.7018 123.355 93.8343 123.309 93.9918 123.309C94.1494 123.309 94.2783 123.355 94.3785 123.448C94.4788 123.534 94.5289 123.663 94.5289 123.835V128.046L96.9781 125.758C97.0998 125.65 97.218 125.597 97.3326 125.597C97.4686 125.597 97.5868 125.647 97.6871 125.747C97.7873 125.847 97.8374 125.965 97.8374 126.102C97.8374 126.238 97.7766 126.363 97.6548 126.478L95.7428 128.228L97.8482 130.087ZM104.028 125.564C104.722 125.564 105.238 125.74 105.575 126.091C105.918 126.442 106.09 126.975 106.09 127.691V130.474C106.09 130.638 106.044 130.767 105.951 130.86C105.857 130.946 105.729 130.989 105.564 130.989C105.406 130.989 105.281 130.943 105.188 130.849C105.095 130.756 105.048 130.631 105.048 130.474V130.076C104.912 130.377 104.708 130.61 104.436 130.774C104.171 130.932 103.859 131.011 103.501 131.011C103.158 131.011 102.843 130.943 102.556 130.807C102.277 130.663 102.055 130.47 101.89 130.226C101.725 129.983 101.643 129.707 101.643 129.399C101.636 129.013 101.733 128.712 101.933 128.497C102.134 128.275 102.459 128.117 102.911 128.024C103.362 127.924 103.988 127.874 104.79 127.874H105.037V127.562C105.037 127.161 104.955 126.871 104.79 126.692C104.626 126.513 104.361 126.424 103.996 126.424C103.745 126.424 103.509 126.456 103.287 126.52C103.065 126.585 102.821 126.678 102.556 126.8C102.363 126.907 102.227 126.961 102.148 126.961C102.04 126.961 101.951 126.922 101.879 126.843C101.815 126.764 101.783 126.664 101.783 126.542C101.783 126.435 101.811 126.341 101.869 126.263C101.933 126.177 102.033 126.094 102.169 126.016C102.42 125.88 102.714 125.772 103.05 125.693C103.387 125.607 103.713 125.564 104.028 125.564ZM103.695 130.205C104.089 130.205 104.411 130.072 104.662 129.808C104.912 129.535 105.037 129.188 105.037 128.766V128.486H104.844C104.286 128.486 103.856 128.511 103.555 128.561C103.254 128.612 103.039 128.698 102.911 128.819C102.782 128.934 102.717 129.102 102.717 129.324C102.717 129.582 102.81 129.793 102.997 129.958C103.183 130.123 103.415 130.205 103.695 130.205ZM108.122 130.989C107.965 130.989 107.832 130.946 107.725 130.86C107.624 130.774 107.574 130.645 107.574 130.474V123.835C107.574 123.663 107.624 123.534 107.725 123.448C107.832 123.355 107.965 123.309 108.122 123.309C108.28 123.309 108.409 123.355 108.509 123.448C108.609 123.534 108.659 123.663 108.659 123.835V130.474C108.659 130.645 108.609 130.774 108.509 130.86C108.409 130.946 108.28 130.989 108.122 130.989ZM110.724 130.989C110.566 130.989 110.434 130.946 110.326 130.86C110.226 130.774 110.176 130.645 110.176 130.474V123.835C110.176 123.663 110.226 123.534 110.326 123.448C110.434 123.355 110.566 123.309 110.724 123.309C110.881 123.309 111.01 123.355 111.11 123.448C111.211 123.534 111.261 123.663 111.261 123.835V130.474C111.261 130.645 111.211 130.774 111.11 130.86C111.01 130.946 110.881 130.989 110.724 130.989ZM117.436 131.011C116.705 131.011 116.107 130.86 115.642 130.559C115.513 130.481 115.42 130.398 115.363 130.312C115.313 130.226 115.287 130.13 115.287 130.022C115.287 129.908 115.32 129.811 115.384 129.732C115.449 129.654 115.531 129.614 115.631 129.614C115.724 129.614 115.871 129.671 116.072 129.786C116.286 129.901 116.494 129.994 116.695 130.065C116.902 130.137 117.16 130.173 117.468 130.173C117.812 130.173 118.08 130.112 118.274 129.99C118.467 129.868 118.564 129.697 118.564 129.475C118.564 129.331 118.524 129.217 118.446 129.131C118.374 129.045 118.245 128.97 118.059 128.905C117.873 128.834 117.597 128.758 117.232 128.68C116.602 128.544 116.147 128.361 115.868 128.132C115.595 127.895 115.459 127.577 115.459 127.176C115.459 126.868 115.549 126.592 115.728 126.349C115.907 126.098 116.154 125.905 116.469 125.769C116.784 125.632 117.142 125.564 117.543 125.564C117.83 125.564 118.109 125.604 118.381 125.683C118.653 125.754 118.893 125.862 119.101 126.005C119.337 126.162 119.455 126.345 119.455 126.553C119.455 126.667 119.42 126.764 119.348 126.843C119.283 126.922 119.205 126.961 119.112 126.961C119.047 126.961 118.983 126.947 118.918 126.918C118.854 126.889 118.768 126.843 118.66 126.778C118.467 126.664 118.284 126.574 118.113 126.51C117.948 126.445 117.74 126.413 117.49 126.413C117.189 126.413 116.945 126.478 116.759 126.606C116.58 126.735 116.491 126.911 116.491 127.133C116.491 127.333 116.573 127.491 116.738 127.605C116.909 127.713 117.228 127.817 117.694 127.917C118.173 128.017 118.549 128.132 118.822 128.261C119.094 128.39 119.287 128.551 119.402 128.744C119.523 128.93 119.584 129.17 119.584 129.464C119.584 129.929 119.387 130.305 118.993 130.592C118.607 130.871 118.088 131.011 117.436 131.011ZM124.852 125.586C125.017 125.586 125.146 125.632 125.239 125.726C125.339 125.819 125.389 125.948 125.389 126.112V130.484C125.389 130.635 125.339 130.756 125.239 130.849C125.139 130.943 125.006 130.989 124.842 130.989C124.691 130.989 124.569 130.946 124.476 130.86C124.383 130.767 124.337 130.645 124.337 130.495V130.087C124.172 130.388 123.943 130.617 123.649 130.774C123.363 130.932 123.041 131.011 122.682 131.011C121.408 131.011 120.77 130.309 120.77 128.905V126.112C120.77 125.948 120.817 125.819 120.91 125.726C121.01 125.632 121.146 125.586 121.318 125.586C121.483 125.586 121.612 125.632 121.705 125.726C121.805 125.819 121.855 125.948 121.855 126.112V128.894C121.855 129.317 121.941 129.628 122.113 129.829C122.285 130.03 122.55 130.13 122.908 130.13C123.331 130.13 123.667 129.994 123.918 129.722C124.176 129.449 124.304 129.088 124.304 128.637V126.112C124.304 125.955 124.355 125.829 124.455 125.736C124.555 125.636 124.688 125.586 124.852 125.586ZM129.722 125.564C130.18 125.564 130.585 125.675 130.936 125.897C131.287 126.119 131.559 126.435 131.752 126.843C131.953 127.251 132.053 127.727 132.053 128.271C132.053 128.809 131.953 129.285 131.752 129.7C131.559 130.115 131.283 130.438 130.925 130.667C130.574 130.896 130.173 131.011 129.722 131.011C129.328 131.011 128.981 130.928 128.68 130.764C128.379 130.592 128.15 130.348 127.993 130.033V130.463C127.993 130.62 127.942 130.749 127.842 130.849C127.749 130.943 127.62 130.989 127.455 130.989C127.291 130.989 127.158 130.943 127.058 130.849C126.958 130.749 126.908 130.62 126.908 130.463V123.824C126.908 123.667 126.958 123.541 127.058 123.448C127.165 123.355 127.302 123.309 127.466 123.309C127.624 123.309 127.749 123.355 127.842 123.448C127.942 123.534 127.993 123.652 127.993 123.803V126.553C128.15 126.238 128.379 125.994 128.68 125.822C128.981 125.65 129.328 125.564 129.722 125.564ZM129.464 130.151C129.93 130.151 130.291 129.987 130.549 129.657C130.814 129.328 130.947 128.866 130.947 128.271C130.947 127.684 130.818 127.233 130.56 126.918C130.302 126.596 129.937 126.435 129.464 126.435C128.992 126.435 128.626 126.596 128.369 126.918C128.118 127.24 127.993 127.699 127.993 128.293C127.993 128.887 128.118 129.346 128.369 129.668C128.626 129.99 128.992 130.151 129.464 130.151ZM139.27 125.564C140.444 125.564 141.031 126.27 141.031 127.681V130.474C141.031 130.638 140.981 130.767 140.881 130.86C140.781 130.946 140.648 130.989 140.484 130.989C140.326 130.989 140.197 130.946 140.097 130.86C139.997 130.767 139.946 130.638 139.946 130.474V127.691C139.946 127.255 139.868 126.939 139.71 126.746C139.553 126.546 139.305 126.445 138.969 126.445C138.575 126.445 138.264 126.581 138.034 126.853C137.805 127.118 137.691 127.484 137.691 127.949V130.474C137.691 130.638 137.64 130.767 137.54 130.86C137.44 130.946 137.307 130.989 137.143 130.989C136.985 130.989 136.856 130.946 136.756 130.86C136.656 130.767 136.606 130.638 136.606 130.474V127.691C136.606 127.255 136.527 126.939 136.369 126.746C136.212 126.546 135.965 126.445 135.628 126.445C135.234 126.445 134.919 126.581 134.683 126.853C134.454 127.118 134.339 127.484 134.339 127.949V130.474C134.339 130.638 134.289 130.767 134.189 130.86C134.088 130.946 133.96 130.989 133.802 130.989C133.644 130.989 133.512 130.946 133.405 130.86C133.304 130.767 133.254 130.638 133.254 130.474V126.102C133.254 125.944 133.308 125.819 133.415 125.726C133.523 125.632 133.652 125.586 133.802 125.586C133.952 125.586 134.074 125.632 134.167 125.726C134.268 125.812 134.318 125.933 134.318 126.091V126.488C134.475 126.187 134.694 125.958 134.973 125.801C135.252 125.643 135.574 125.564 135.94 125.564C136.341 125.564 136.67 125.647 136.928 125.812C137.193 125.976 137.39 126.23 137.519 126.574C137.676 126.266 137.909 126.023 138.217 125.844C138.525 125.658 138.876 125.564 139.27 125.564ZM143.065 130.989C142.907 130.989 142.775 130.946 142.667 130.86C142.567 130.774 142.517 130.645 142.517 130.474V126.112C142.517 125.94 142.567 125.812 142.667 125.726C142.775 125.632 142.907 125.586 143.065 125.586C143.222 125.586 143.351 125.632 143.452 125.726C143.552 125.812 143.602 125.94 143.602 126.112V130.474C143.602 130.645 143.552 130.774 143.452 130.86C143.351 130.946 143.222 130.989 143.065 130.989ZM143.065 124.533C142.857 124.533 142.692 124.476 142.571 124.361C142.449 124.247 142.388 124.096 142.388 123.91C142.388 123.724 142.449 123.577 142.571 123.47C142.692 123.355 142.857 123.298 143.065 123.298C143.265 123.298 143.426 123.355 143.548 123.47C143.677 123.577 143.742 123.724 143.742 123.91C143.742 124.096 143.681 124.247 143.559 124.361C143.437 124.476 143.273 124.533 143.065 124.533ZM146.945 131.011C146.214 131.011 145.616 130.86 145.151 130.559C145.022 130.481 144.929 130.398 144.872 130.312C144.821 130.226 144.796 130.13 144.796 130.022C144.796 129.908 144.829 129.811 144.893 129.732C144.957 129.654 145.04 129.614 145.14 129.614C145.233 129.614 145.38 129.671 145.58 129.786C145.795 129.901 146.003 129.994 146.204 130.065C146.411 130.137 146.669 130.173 146.977 130.173C147.321 130.173 147.589 130.112 147.783 129.99C147.976 129.868 148.073 129.697 148.073 129.475C148.073 129.331 148.033 129.217 147.954 129.131C147.883 129.045 147.754 128.97 147.568 128.905C147.382 128.834 147.106 128.758 146.741 128.68C146.11 128.544 145.656 128.361 145.376 128.132C145.104 127.895 144.968 127.577 144.968 127.176C144.968 126.868 145.058 126.592 145.237 126.349C145.416 126.098 145.663 125.905 145.978 125.769C146.293 125.632 146.651 125.564 147.052 125.564C147.339 125.564 147.618 125.604 147.89 125.683C148.162 125.754 148.402 125.862 148.61 126.005C148.846 126.162 148.964 126.345 148.964 126.553C148.964 126.667 148.928 126.764 148.857 126.843C148.792 126.922 148.714 126.961 148.62 126.961C148.556 126.961 148.492 126.947 148.427 126.918C148.363 126.889 148.277 126.843 148.169 126.778C147.976 126.664 147.793 126.574 147.621 126.51C147.457 126.445 147.249 126.413 146.998 126.413C146.698 126.413 146.454 126.478 146.268 126.606C146.089 126.735 145.999 126.911 145.999 127.133C145.999 127.333 146.082 127.491 146.246 127.605C146.418 127.713 146.737 127.817 147.203 127.917C147.682 128.017 148.058 128.132 148.33 128.261C148.603 128.39 148.796 128.551 148.91 128.744C149.032 128.93 149.093 129.17 149.093 129.464C149.093 129.929 148.896 130.305 148.502 130.592C148.116 130.871 147.596 131.011 146.945 131.011ZM152.127 131.011C151.396 131.011 150.798 130.86 150.333 130.559C150.204 130.481 150.111 130.398 150.054 130.312C150.004 130.226 149.978 130.13 149.978 130.022C149.978 129.908 150.011 129.811 150.075 129.732C150.14 129.654 150.222 129.614 150.322 129.614C150.415 129.614 150.562 129.671 150.763 129.786C150.977 129.901 151.185 129.994 151.386 130.065C151.593 130.137 151.851 130.173 152.159 130.173C152.503 130.173 152.771 130.112 152.965 129.99C153.158 129.868 153.255 129.697 153.255 129.475C153.255 129.331 153.215 129.217 153.137 129.131C153.065 129.045 152.936 128.97 152.75 128.905C152.564 128.834 152.288 128.758 151.923 128.68C151.293 128.544 150.838 128.361 150.559 128.132C150.286 127.895 150.15 127.577 150.15 127.176C150.15 126.868 150.24 126.592 150.419 126.349C150.598 126.098 150.845 125.905 151.16 125.769C151.475 125.632 151.833 125.564 152.234 125.564C152.521 125.564 152.8 125.604 153.072 125.683C153.344 125.754 153.584 125.862 153.792 126.005C154.028 126.162 154.146 126.345 154.146 126.553C154.146 126.667 154.111 126.764 154.039 126.843C153.974 126.922 153.896 126.961 153.803 126.961C153.738 126.961 153.674 126.947 153.609 126.918C153.545 126.889 153.459 126.843 153.351 126.778C153.158 126.664 152.975 126.574 152.804 126.51C152.639 126.445 152.431 126.413 152.181 126.413C151.88 126.413 151.636 126.478 151.45 126.606C151.271 126.735 151.182 126.911 151.182 127.133C151.182 127.333 151.264 127.491 151.429 127.605C151.6 127.713 151.919 127.817 152.385 127.917C152.864 128.017 153.24 128.132 153.513 128.261C153.785 128.39 153.978 128.551 154.093 128.744C154.214 128.93 154.275 129.17 154.275 129.464C154.275 129.929 154.078 130.305 153.684 130.592C153.298 130.871 152.779 131.011 152.127 131.011ZM156.031 130.989C155.873 130.989 155.741 130.946 155.633 130.86C155.533 130.774 155.483 130.645 155.483 130.474V126.112C155.483 125.94 155.533 125.812 155.633 125.726C155.741 125.632 155.873 125.586 156.031 125.586C156.188 125.586 156.317 125.632 156.417 125.726C156.518 125.812 156.568 125.94 156.568 126.112V130.474C156.568 130.645 156.518 130.774 156.417 130.86C156.317 130.946 156.188 130.989 156.031 130.989ZM156.031 124.533C155.823 124.533 155.658 124.476 155.537 124.361C155.415 124.247 155.354 124.096 155.354 123.91C155.354 123.724 155.415 123.577 155.537 123.47C155.658 123.355 155.823 123.298 156.031 123.298C156.231 123.298 156.392 123.355 156.514 123.47C156.643 123.577 156.707 123.724 156.707 123.91C156.707 124.096 156.647 124.247 156.525 124.361C156.403 124.476 156.238 124.533 156.031 124.533ZM160.362 131.011C159.846 131.011 159.391 130.9 158.997 130.678C158.611 130.456 158.31 130.141 158.095 129.732C157.887 129.317 157.784 128.837 157.784 128.293C157.784 127.741 157.887 127.262 158.095 126.853C158.31 126.438 158.611 126.119 158.997 125.897C159.391 125.675 159.846 125.564 160.362 125.564C160.877 125.564 161.328 125.675 161.715 125.897C162.109 126.119 162.41 126.438 162.618 126.853C162.832 127.262 162.94 127.741 162.94 128.293C162.94 128.837 162.832 129.317 162.618 129.732C162.41 130.141 162.109 130.456 161.715 130.678C161.328 130.9 160.877 131.011 160.362 131.011ZM160.362 130.151C160.842 130.151 161.207 129.994 161.457 129.679C161.715 129.364 161.844 128.902 161.844 128.293C161.844 127.691 161.715 127.233 161.457 126.918C161.2 126.596 160.834 126.435 160.362 126.435C159.889 126.435 159.524 126.596 159.266 126.918C159.008 127.233 158.879 127.691 158.879 128.293C158.879 128.902 159.005 129.364 159.255 129.679C159.513 129.994 159.882 130.151 160.362 130.151ZM166.973 125.564C168.226 125.564 168.853 126.27 168.853 127.681V130.474C168.853 130.638 168.803 130.767 168.702 130.86C168.609 130.946 168.477 130.989 168.305 130.989C168.14 130.989 168.008 130.943 167.907 130.849C167.814 130.756 167.768 130.631 167.768 130.474V127.734C167.768 127.29 167.678 126.964 167.499 126.757C167.327 126.549 167.055 126.445 166.683 126.445C166.246 126.445 165.895 126.581 165.63 126.853C165.365 127.126 165.233 127.491 165.233 127.949V130.474C165.233 130.631 165.183 130.756 165.082 130.849C164.989 130.943 164.86 130.989 164.696 130.989C164.531 130.989 164.398 130.943 164.298 130.849C164.198 130.756 164.148 130.631 164.148 130.474V126.102C164.148 125.951 164.198 125.829 164.298 125.736C164.406 125.636 164.538 125.586 164.696 125.586C164.853 125.586 164.978 125.632 165.072 125.726C165.165 125.819 165.211 125.94 165.211 126.091V126.531C165.383 126.216 165.623 125.976 165.931 125.812C166.239 125.647 166.586 125.564 166.973 125.564ZM172.163 131.011C171.433 131.011 170.835 130.86 170.369 130.559C170.24 130.481 170.147 130.398 170.09 130.312C170.04 130.226 170.015 130.13 170.015 130.022C170.015 129.908 170.047 129.811 170.111 129.732C170.176 129.654 170.258 129.614 170.358 129.614C170.452 129.614 170.598 129.671 170.799 129.786C171.014 129.901 171.221 129.994 171.422 130.065C171.63 130.137 171.887 130.173 172.195 130.173C172.539 130.173 172.808 130.112 173.001 129.99C173.194 129.868 173.291 129.697 173.291 129.475C173.291 129.331 173.252 129.217 173.173 129.131C173.101 129.045 172.972 128.97 172.786 128.905C172.6 128.834 172.324 128.758 171.959 128.68C171.329 128.544 170.874 128.361 170.595 128.132C170.323 127.895 170.187 127.577 170.187 127.176C170.187 126.868 170.276 126.592 170.455 126.349C170.634 126.098 170.881 125.905 171.196 125.769C171.511 125.632 171.869 125.564 172.27 125.564C172.557 125.564 172.836 125.604 173.108 125.683C173.38 125.754 173.62 125.862 173.828 126.005C174.064 126.162 174.183 126.345 174.183 126.553C174.183 126.667 174.147 126.764 174.075 126.843C174.011 126.922 173.932 126.961 173.839 126.961C173.774 126.961 173.71 126.947 173.645 126.918C173.581 126.889 173.495 126.843 173.388 126.778C173.194 126.664 173.012 126.574 172.84 126.51C172.675 126.445 172.467 126.413 172.217 126.413C171.916 126.413 171.673 126.478 171.486 126.606C171.307 126.735 171.218 126.911 171.218 127.133C171.218 127.333 171.3 127.491 171.465 127.605C171.637 127.713 171.955 127.817 172.421 127.917C172.901 128.017 173.277 128.132 173.549 128.261C173.821 128.39 174.014 128.551 174.129 128.744C174.251 128.93 174.311 129.17 174.311 129.464C174.311 129.929 174.115 130.305 173.721 130.592C173.334 130.871 172.815 131.011 172.163 131.011Z" fill="black"/>
<rect x="58.2097" y="115.758" width="127.71" height="22.6774" rx="8.95161" stroke="#B1DCF6" stroke-width="1.19355"/>
<path d="M225.531 130.248C225.595 130.341 225.628 130.441 225.628 130.549C225.628 130.678 225.574 130.789 225.466 130.882C225.366 130.968 225.248 131.011 225.112 131.011C224.911 131.011 224.75 130.921 224.629 130.742L223.189 128.508C223.024 128.25 222.849 128.071 222.663 127.971C222.477 127.863 222.233 127.81 221.932 127.81H220.718V130.431C220.718 130.603 220.668 130.739 220.568 130.839C220.475 130.939 220.342 130.989 220.171 130.989C220.006 130.989 219.873 130.939 219.773 130.839C219.673 130.739 219.623 130.603 219.623 130.431V123.9C219.623 123.735 219.669 123.606 219.762 123.513C219.863 123.413 219.999 123.362 220.171 123.362H222.845C223.683 123.362 224.321 123.549 224.757 123.921C225.201 124.293 225.423 124.838 225.423 125.554C225.423 126.148 225.255 126.632 224.919 127.004C224.582 127.369 224.102 127.602 223.479 127.702C223.665 127.752 223.834 127.842 223.984 127.971C224.134 128.1 224.281 128.279 224.424 128.508L225.531 130.248ZM222.716 126.918C223.275 126.918 223.687 126.811 223.952 126.596C224.224 126.374 224.36 126.034 224.36 125.575C224.36 125.117 224.227 124.784 223.963 124.576C223.698 124.361 223.282 124.254 222.716 124.254H220.708V126.918H222.716ZM231.014 129.614C231.114 129.614 231.196 129.654 231.261 129.732C231.325 129.811 231.358 129.911 231.358 130.033C231.358 130.241 231.229 130.416 230.971 130.56C230.72 130.703 230.445 130.814 230.144 130.893C229.85 130.971 229.567 131.011 229.295 131.011C228.464 131.011 227.809 130.771 227.329 130.291C226.85 129.804 226.61 129.142 226.61 128.304C226.61 127.767 226.713 127.29 226.921 126.875C227.136 126.46 227.433 126.137 227.813 125.908C228.199 125.679 228.636 125.565 229.123 125.565C229.825 125.565 230.38 125.79 230.788 126.241C231.196 126.692 231.401 127.301 231.401 128.067C231.401 128.354 231.272 128.497 231.014 128.497H227.695C227.766 129.607 228.3 130.162 229.295 130.162C229.56 130.162 229.789 130.126 229.983 130.055C230.176 129.983 230.38 129.89 230.595 129.775C230.616 129.761 230.674 129.732 230.767 129.689C230.867 129.639 230.949 129.614 231.014 129.614ZM229.145 126.359C228.729 126.359 228.396 126.492 228.146 126.757C227.895 127.022 227.745 127.394 227.695 127.874H230.466C230.445 127.387 230.319 127.015 230.09 126.757C229.868 126.492 229.553 126.359 229.145 126.359ZM238.612 125.565C239.786 125.565 240.373 126.27 240.373 127.681V130.474C240.373 130.638 240.323 130.767 240.223 130.86C240.123 130.946 239.99 130.989 239.825 130.989C239.668 130.989 239.539 130.946 239.439 130.86C239.338 130.767 239.288 130.638 239.288 130.474V127.691C239.288 127.255 239.21 126.94 239.052 126.746C238.894 126.546 238.647 126.445 238.311 126.445C237.917 126.445 237.605 126.581 237.376 126.854C237.147 127.119 237.033 127.484 237.033 127.949V130.474C237.033 130.638 236.982 130.767 236.882 130.86C236.782 130.946 236.649 130.989 236.485 130.989C236.327 130.989 236.198 130.946 236.098 130.86C235.998 130.767 235.948 130.638 235.948 130.474V127.691C235.948 127.255 235.869 126.94 235.711 126.746C235.554 126.546 235.307 126.445 234.97 126.445C234.576 126.445 234.261 126.581 234.025 126.854C233.796 127.119 233.681 127.484 233.681 127.949V130.474C233.681 130.638 233.631 130.767 233.531 130.86C233.43 130.946 233.301 130.989 233.144 130.989C232.986 130.989 232.854 130.946 232.746 130.86C232.646 130.767 232.596 130.638 232.596 130.474V126.102C232.596 125.944 232.65 125.819 232.757 125.726C232.865 125.633 232.994 125.586 233.144 125.586C233.294 125.586 233.416 125.633 233.509 125.726C233.609 125.812 233.66 125.933 233.66 126.091V126.488C233.817 126.188 234.036 125.958 234.315 125.801C234.594 125.643 234.916 125.565 235.282 125.565C235.683 125.565 236.012 125.647 236.27 125.812C236.535 125.976 236.732 126.231 236.861 126.574C237.018 126.266 237.251 126.023 237.559 125.844C237.867 125.658 238.218 125.565 238.612 125.565ZM242.407 130.989C242.249 130.989 242.117 130.946 242.009 130.86C241.909 130.774 241.859 130.646 241.859 130.474V126.112C241.859 125.941 241.909 125.812 242.009 125.726C242.117 125.633 242.249 125.586 242.407 125.586C242.564 125.586 242.693 125.633 242.793 125.726C242.894 125.812 242.944 125.941 242.944 126.112V130.474C242.944 130.646 242.894 130.774 242.793 130.86C242.693 130.946 242.564 130.989 242.407 130.989ZM242.407 124.533C242.199 124.533 242.034 124.476 241.913 124.361C241.791 124.247 241.73 124.097 241.73 123.91C241.73 123.724 241.791 123.577 241.913 123.47C242.034 123.355 242.199 123.298 242.407 123.298C242.607 123.298 242.768 123.355 242.89 123.47C243.019 123.577 243.084 123.724 243.084 123.91C243.084 124.097 243.023 124.247 242.901 124.361C242.779 124.476 242.614 124.533 242.407 124.533ZM247.286 125.565C248.539 125.565 249.165 126.27 249.165 127.681V130.474C249.165 130.638 249.115 130.767 249.015 130.86C248.922 130.946 248.789 130.989 248.618 130.989C248.453 130.989 248.32 130.943 248.22 130.85C248.127 130.757 248.081 130.631 248.081 130.474V127.734C248.081 127.29 247.991 126.965 247.812 126.757C247.64 126.549 247.368 126.445 246.996 126.445C246.559 126.445 246.208 126.581 245.943 126.854C245.678 127.126 245.545 127.491 245.545 127.949V130.474C245.545 130.631 245.495 130.757 245.395 130.85C245.302 130.943 245.173 130.989 245.008 130.989C244.844 130.989 244.711 130.943 244.611 130.85C244.511 130.757 244.46 130.631 244.46 130.474V126.102C244.46 125.951 244.511 125.83 244.611 125.736C244.718 125.636 244.851 125.586 245.008 125.586C245.166 125.586 245.291 125.633 245.384 125.726C245.477 125.819 245.524 125.941 245.524 126.091V126.531C245.696 126.216 245.936 125.976 246.244 125.812C246.552 125.647 246.899 125.565 247.286 125.565ZM254.936 123.309C255.1 123.309 255.233 123.355 255.333 123.448C255.433 123.542 255.484 123.667 255.484 123.824V130.463C255.484 130.628 255.433 130.757 255.333 130.85C255.24 130.943 255.111 130.989 254.946 130.989C254.782 130.989 254.649 130.943 254.549 130.85C254.456 130.757 254.409 130.628 254.409 130.463V130.033C254.252 130.348 254.023 130.592 253.722 130.764C253.421 130.928 253.074 131.011 252.68 131.011C252.229 131.011 251.824 130.896 251.466 130.667C251.115 130.438 250.839 130.116 250.639 129.7C250.446 129.285 250.349 128.809 250.349 128.272C250.349 127.727 250.446 127.251 250.639 126.843C250.839 126.435 251.115 126.12 251.466 125.898C251.817 125.676 252.222 125.565 252.68 125.565C253.074 125.565 253.418 125.651 253.711 125.822C254.012 125.987 254.241 126.223 254.399 126.531V123.803C254.399 123.653 254.445 123.534 254.538 123.448C254.639 123.355 254.771 123.309 254.936 123.309ZM252.938 130.151C253.403 130.151 253.765 129.99 254.023 129.668C254.28 129.346 254.409 128.887 254.409 128.293C254.409 127.699 254.28 127.24 254.023 126.918C253.772 126.596 253.41 126.435 252.938 126.435C252.465 126.435 252.096 126.596 251.831 126.918C251.573 127.233 251.445 127.684 251.445 128.272C251.445 128.859 251.577 129.321 251.842 129.657C252.107 129.987 252.472 130.151 252.938 130.151ZM260.376 130.989C260.219 130.989 260.086 130.946 259.979 130.86C259.879 130.774 259.829 130.646 259.829 130.474V123.835C259.829 123.663 259.879 123.534 259.979 123.448C260.086 123.355 260.219 123.309 260.376 123.309C260.534 123.309 260.663 123.355 260.763 123.448C260.863 123.534 260.914 123.663 260.914 123.835V130.474C260.914 130.646 260.863 130.774 260.763 130.86C260.663 130.946 260.534 130.989 260.376 130.989ZM264.632 125.565C265.327 125.565 265.843 125.74 266.179 126.091C266.523 126.442 266.695 126.975 266.695 127.691V130.474C266.695 130.638 266.648 130.767 266.555 130.86C266.462 130.946 266.333 130.989 266.168 130.989C266.011 130.989 265.885 130.943 265.792 130.85C265.699 130.757 265.653 130.631 265.653 130.474V130.076C265.517 130.377 265.313 130.61 265.04 130.774C264.775 130.932 264.464 131.011 264.106 131.011C263.762 131.011 263.447 130.943 263.161 130.807C262.881 130.663 262.659 130.47 262.495 130.227C262.33 129.983 262.248 129.707 262.248 129.399C262.24 129.013 262.337 128.712 262.538 128.497C262.738 128.275 263.064 128.118 263.515 128.024C263.966 127.924 264.593 127.874 265.395 127.874H265.642V127.563C265.642 127.162 265.56 126.872 265.395 126.692C265.23 126.513 264.965 126.424 264.6 126.424C264.349 126.424 264.113 126.456 263.891 126.521C263.669 126.585 263.426 126.678 263.161 126.8C262.967 126.907 262.831 126.961 262.752 126.961C262.645 126.961 262.555 126.922 262.484 126.843C262.419 126.764 262.387 126.664 262.387 126.542C262.387 126.435 262.416 126.342 262.473 126.263C262.538 126.177 262.638 126.095 262.774 126.016C263.025 125.88 263.318 125.772 263.655 125.693C263.991 125.608 264.317 125.565 264.632 125.565ZM264.299 130.205C264.693 130.205 265.015 130.073 265.266 129.808C265.517 129.536 265.642 129.188 265.642 128.766V128.486H265.449C264.89 128.486 264.46 128.511 264.16 128.562C263.859 128.612 263.644 128.698 263.515 128.819C263.386 128.934 263.322 129.102 263.322 129.324C263.322 129.582 263.415 129.793 263.601 129.958C263.787 130.123 264.02 130.205 264.299 130.205ZM270.746 130.162C270.904 130.176 271.015 130.219 271.079 130.291C271.151 130.355 271.187 130.449 271.187 130.57C271.187 130.714 271.129 130.825 271.015 130.903C270.907 130.975 270.746 131.004 270.531 130.989L270.241 130.968C269.661 130.925 269.228 130.749 268.941 130.441C268.655 130.126 268.512 129.664 268.512 129.056V126.531H267.867C267.552 126.531 267.395 126.392 267.395 126.112C267.395 125.984 267.434 125.883 267.513 125.812C267.599 125.733 267.717 125.693 267.867 125.693H268.512V124.587C268.512 124.422 268.558 124.293 268.651 124.2C268.752 124.107 268.884 124.061 269.049 124.061C269.214 124.061 269.346 124.107 269.446 124.2C269.547 124.293 269.597 124.422 269.597 124.587V125.693H270.66C270.811 125.693 270.925 125.733 271.004 125.812C271.09 125.883 271.133 125.984 271.133 126.112C271.133 126.248 271.09 126.352 271.004 126.424C270.925 126.496 270.811 126.531 270.66 126.531H269.597V129.131C269.597 129.467 269.665 129.715 269.801 129.872C269.944 130.03 270.159 130.119 270.445 130.141L270.746 130.162ZM276.069 129.614C276.169 129.614 276.252 129.654 276.316 129.732C276.381 129.811 276.413 129.911 276.413 130.033C276.413 130.241 276.284 130.416 276.026 130.56C275.776 130.703 275.5 130.814 275.199 130.893C274.905 130.971 274.623 131.011 274.35 131.011C273.52 131.011 272.864 130.771 272.385 130.291C271.905 129.804 271.665 129.142 271.665 128.304C271.665 127.767 271.769 127.29 271.976 126.875C272.191 126.46 272.488 126.137 272.868 125.908C273.255 125.679 273.692 125.565 274.179 125.565C274.88 125.565 275.435 125.79 275.844 126.241C276.252 126.692 276.456 127.301 276.456 128.067C276.456 128.354 276.327 128.497 276.069 128.497H272.75C272.821 129.607 273.355 130.162 274.35 130.162C274.615 130.162 274.845 130.126 275.038 130.055C275.231 129.983 275.435 129.89 275.65 129.775C275.672 129.761 275.729 129.732 275.822 129.689C275.922 129.639 276.005 129.614 276.069 129.614ZM274.2 126.359C273.785 126.359 273.452 126.492 273.201 126.757C272.95 127.022 272.8 127.394 272.75 127.874H275.521C275.5 127.387 275.374 127.015 275.145 126.757C274.923 126.492 274.608 126.359 274.2 126.359ZM280.401 125.586C280.745 125.565 280.917 125.711 280.917 126.026C280.917 126.184 280.878 126.302 280.799 126.381C280.72 126.46 280.584 126.506 280.391 126.521L280.068 126.553C279.617 126.596 279.281 126.753 279.059 127.025C278.844 127.298 278.736 127.627 278.736 128.014V130.474C278.736 130.646 278.686 130.774 278.586 130.86C278.486 130.946 278.357 130.989 278.199 130.989C278.042 130.989 277.909 130.946 277.802 130.86C277.702 130.774 277.651 130.646 277.651 130.474V126.102C277.651 125.937 277.702 125.812 277.802 125.726C277.909 125.633 278.042 125.586 278.199 125.586C278.342 125.586 278.461 125.633 278.554 125.726C278.654 125.812 278.704 125.933 278.704 126.091V126.607C278.847 126.291 279.055 126.052 279.327 125.887C279.599 125.722 279.907 125.625 280.251 125.597L280.401 125.586Z" fill="black"/>
<path d="M218.742 132.01H280.831V132.547H218.742V132.01Z" fill="black"/>
<defs>
<filter id="filter0_dd_522_225" x="8.67742" y="24.4516" width="315.097" height="167.097" filterUnits="userSpaceOnUse" color-interpolation-filters="sRGB">
<feFlood flood-opacity="0" result="BackgroundImageFix"/>
<feColorMatrix in="SourceAlpha" type="matrix" values="0 0 0 0 0 0 0 0 0 0 0 0 0 0 0 0 0 0 127 0" result="hardAlpha"/>
<feOffset dx="2.3871" dy="2.3871"/>
<feGaussianBlur stdDeviation="2.98387"/>
<feComposite in2="hardAlpha" operator="out"/>
<feColorMatrix type="matrix" values="0 0 0 0 0 0 0 0 0 0 0 0 0 0 0 0 0 0 0.05 0"/>
<feBlend mode="normal" in2="BackgroundImageFix" result="effect1_dropShadow_522_225"/>
<feColorMatrix in="SourceAlpha" type="matrix" values="0 0 0 0 0 0 0 0 0 0 0 0 0 0 0 0 0 0 127 0" result="hardAlpha"/>
<feOffset dx="-4.77419"/>
<feGaussianBlur stdDeviation="4.77419"/>
<feComposite in2="hardAlpha" operator="out"/>
<feColorMatrix type="matrix" values="0 0 0 0 0 0 0 0 0 0 0 0 0 0 0 0 0 0 0.05 0"/>
<feBlend mode="normal" in2="effect1_dropShadow_522_225" result="effect2_dropShadow_522_225"/>
<feBlend mode="normal" in="SourceGraphic" in2="effect2_dropShadow_522_225" result="shape"/>
</filter>
</defs>
</svg>
