<svg width="486" height="280" viewBox="0 0 486 280" fill="none" xmlns="http://www.w3.org/2000/svg">
<path fill-rule="evenodd" clip-rule="evenodd" d="M205.351 10.3902C241.217 15.8067 260.728 50.4721 281.955 79.8852C301.266 106.643 327.12 134.964 318.176 166.727C309.471 197.646 270.36 202.254 242.837 218.816C208.425 239.523 180.633 283.276 141.854 272.828C99.7885 261.495 78.6214 214.585 69.2293 172.044C59.929 129.919 65.1681 84.3414 92.9551 51.3424C119.977 19.2521 163.869 4.12565 205.351 10.3902Z" fill="#FCF7FF"/>
<g filter="url(#filter0_dd_5186_13137)">
<rect x="16" y="20" width="337.02" height="102.565" rx="4.27926" fill="white" shape-rendering="crispEdges"/>
<path d="M43.1042 40.8928V47.1172H42.241L39.0772 42.5522H39.0194V47.1172H38.0803V40.8928H38.9495L42.1164 45.4638H42.1742V40.8928H43.1042ZM47.3584 45.1812V42.4489H48.2702V47.1172H47.3766V46.3087H47.328C47.2206 46.558 47.0484 46.7656 46.8113 46.9318C46.5763 47.0959 46.2835 47.178 45.933 47.178C45.6331 47.178 45.3677 47.1121 45.1367 46.9804C44.9077 46.8467 44.7274 46.6491 44.5957 46.3878C44.466 46.1264 44.4012 45.8032 44.4012 45.4182V42.4489H45.3099V45.3088C45.3099 45.6269 45.3981 45.8802 45.5743 46.0686C45.7506 46.2571 45.9796 46.3513 46.2612 46.3513C46.4314 46.3513 46.6006 46.3087 46.7688 46.2236C46.939 46.1385 47.0798 46.0099 47.1912 45.8377C47.3047 45.6654 47.3604 45.4466 47.3584 45.1812ZM49.4912 47.1172V42.4489H50.3634V43.2087H50.4212C50.5184 42.9514 50.6775 42.7508 50.8984 42.6069C51.1192 42.4611 51.3836 42.3881 51.6916 42.3881C52.0036 42.3881 52.265 42.4611 52.4757 42.6069C52.6885 42.7528 52.8455 42.9534 52.9468 43.2087H52.9954C53.1069 42.9595 53.2842 42.7609 53.5273 42.613C53.7704 42.4631 54.0602 42.3881 54.3965 42.3881C54.82 42.3881 55.1655 42.5208 55.4329 42.7863C55.7024 43.0517 55.8371 43.4519 55.8371 43.9868V47.1172H54.9284V44.0719C54.9284 43.7558 54.8423 43.5268 54.6701 43.385C54.4978 43.2432 54.2922 43.1722 54.0531 43.1722C53.7573 43.1722 53.5273 43.2634 53.3632 43.4458C53.1991 43.6261 53.117 43.8581 53.117 44.1418V47.1172H52.2113V44.0141C52.2113 43.7608 52.1323 43.5572 51.9743 43.4032C51.8162 43.2492 51.6106 43.1722 51.3573 43.1722C51.1851 43.1722 51.026 43.2178 50.8801 43.309C50.7363 43.3982 50.6198 43.5228 50.5306 43.6828C50.4435 43.8429 50.3999 44.0283 50.3999 44.239V47.1172H49.4912ZM57.1281 47.1172V40.8928H58.0368V43.2057H58.0915C58.1442 43.1084 58.2202 42.996 58.3194 42.8683C58.4187 42.7407 58.5565 42.6292 58.7328 42.534C58.9091 42.4367 59.1421 42.3881 59.4318 42.3881C59.8087 42.3881 60.145 42.4833 60.4408 42.6738C60.7367 42.8643 60.9687 43.1388 61.1368 43.4974C61.307 43.8561 61.3921 44.2876 61.3921 44.7922C61.3921 45.2967 61.308 45.7293 61.1399 46.0899C60.9717 46.4486 60.7407 46.7251 60.4469 46.9196C60.1531 47.1121 59.8178 47.2084 59.4409 47.2084C59.1573 47.2084 58.9253 47.1608 58.7449 47.0655C58.5666 46.9703 58.4268 46.8589 58.3255 46.7312C58.2242 46.6036 58.1462 46.4901 58.0915 46.3908H58.0155V47.1172H57.1281ZM58.0186 44.783C58.0186 45.1113 58.0662 45.399 58.1614 45.6462C58.2566 45.8934 58.3944 46.0869 58.5747 46.2267C58.7551 46.3645 58.9759 46.4334 59.2373 46.4334C59.5088 46.4334 59.7357 46.3614 59.9181 46.2176C60.1004 46.0717 60.2382 45.8741 60.3314 45.6249C60.4267 45.3757 60.4743 45.0951 60.4743 44.783C60.4743 44.4751 60.4277 44.1985 60.3345 43.9533C60.2433 43.7082 60.1055 43.5147 59.9211 43.3728C59.7388 43.231 59.5108 43.1601 59.2373 43.1601C58.9739 43.1601 58.751 43.228 58.5687 43.3637C58.3883 43.4995 58.2516 43.6889 58.1584 43.9321C58.0652 44.1752 58.0186 44.4589 58.0186 44.783ZM64.4245 47.2114C63.9646 47.2114 63.5685 47.1131 63.2362 46.9166C62.9059 46.718 62.6506 46.4394 62.4703 46.0808C62.292 45.7201 62.2028 45.2977 62.2028 44.8134C62.2028 44.3353 62.292 43.9138 62.4703 43.5491C62.6506 43.1844 62.9019 42.8997 63.224 42.6951C63.5482 42.4904 63.9271 42.3881 64.3607 42.3881C64.6241 42.3881 64.8794 42.4317 65.1266 42.5188C65.3738 42.6059 65.5957 42.7427 65.7922 42.9291C65.9887 43.1155 66.1437 43.3576 66.2572 43.6555C66.3707 43.9513 66.4274 44.3109 66.4274 44.7344V45.0566H62.7165V44.3758H65.5369C65.5369 44.1367 65.4883 43.925 65.391 43.7406C65.2938 43.5542 65.157 43.4073 64.9807 43.2999C64.8065 43.1925 64.6018 43.1388 64.3668 43.1388C64.1115 43.1388 63.8886 43.2016 63.6982 43.3272C63.5097 43.4508 63.3638 43.6129 63.2605 43.8135C63.1592 44.0121 63.1085 44.2279 63.1085 44.4609V44.9928C63.1085 45.3048 63.1633 45.5702 63.2727 45.789C63.3841 46.0079 63.5391 46.175 63.7377 46.2905C63.9362 46.404 64.1682 46.4607 64.4337 46.4607C64.6059 46.4607 64.7629 46.4364 64.9047 46.3878C65.0466 46.3371 65.1692 46.2621 65.2725 46.1629C65.3758 46.0636 65.4548 45.941 65.5096 45.7951L66.3697 45.9501C66.3008 46.2034 66.1772 46.4253 65.9989 46.6157C65.8226 46.8041 65.6007 46.951 65.3333 47.0564C65.0678 47.1597 64.7649 47.2114 64.4245 47.2114ZM67.4357 47.1172V42.4489H68.314V43.1905H68.3626C68.4477 42.9392 68.5977 42.7417 68.8125 42.5978C69.0293 42.4519 69.2744 42.379 69.548 42.379C69.6047 42.379 69.6716 42.381 69.7485 42.3851C69.8276 42.3891 69.8894 42.3942 69.9339 42.4003V43.2695C69.8975 43.2594 69.8326 43.2482 69.7394 43.2361C69.6462 43.2219 69.553 43.2148 69.4598 43.2148C69.245 43.2148 69.0536 43.2604 68.8854 43.3516C68.7193 43.4407 68.5876 43.5653 68.4903 43.7254C68.393 43.8834 68.3444 44.0638 68.3444 44.2664V47.1172H67.4357ZM74.9517 47.2114C74.5141 47.2114 74.1322 47.1111 73.8059 46.9105C73.4797 46.7099 73.2265 46.4293 73.0461 46.0686C72.8658 45.708 72.7756 45.2865 72.7756 44.8043C72.7756 44.3201 72.8658 43.8966 73.0461 43.5339C73.2265 43.1712 73.4797 42.8896 73.8059 42.689C74.1322 42.4884 74.5141 42.3881 74.9517 42.3881C75.3894 42.3881 75.7713 42.4884 76.0975 42.689C76.4238 42.8896 76.677 43.1712 76.8574 43.5339C77.0377 43.8966 77.1278 44.3201 77.1278 44.8043C77.1278 45.2865 77.0377 45.708 76.8574 46.0686C76.677 46.4293 76.4238 46.7099 76.0975 46.9105C75.7713 47.1111 75.3894 47.2114 74.9517 47.2114ZM74.9548 46.4486C75.2384 46.4486 75.4735 46.3736 75.6599 46.2236C75.8463 46.0737 75.9841 45.8741 76.0732 45.6249C76.1644 45.3757 76.21 45.1012 76.21 44.8013C76.21 44.5034 76.1644 44.2299 76.0732 43.9807C75.9841 43.7294 75.8463 43.5278 75.6599 43.3759C75.4735 43.2239 75.2384 43.1479 74.9548 43.1479C74.6691 43.1479 74.432 43.2239 74.2436 43.3759C74.0572 43.5278 73.9184 43.7294 73.8272 43.9807C73.7381 44.2299 73.6935 44.5034 73.6935 44.8013C73.6935 45.1012 73.7381 45.3757 73.8272 45.6249C73.9184 45.8741 74.0572 46.0737 74.2436 46.2236C74.432 46.3736 74.6691 46.4486 74.9548 46.4486ZM80.3639 42.4489V43.1783H77.7258V42.4489H80.3639ZM78.4492 47.1172V41.9079C78.4492 41.6161 78.513 41.374 78.6406 41.1815C78.7683 40.987 78.9375 40.8421 79.1482 40.7469C79.3589 40.6497 79.5879 40.601 79.8351 40.601C80.0174 40.601 80.1734 40.6162 80.3031 40.6466C80.4328 40.675 80.529 40.7013 80.5918 40.7256L80.3791 41.4611C80.3365 41.449 80.2818 41.4348 80.215 41.4186C80.1481 41.4004 80.0671 41.3912 79.9718 41.3912C79.751 41.3912 79.5929 41.4459 79.4977 41.5554C79.4045 41.6648 79.3579 41.8228 79.3579 42.0295V47.1172H78.4492ZM85.7456 42.4489V43.1783H83.1957V42.4489H85.7456ZM83.8795 41.3305H84.7883V45.7465C84.7883 45.9228 84.8146 46.0555 84.8673 46.1446C84.92 46.2318 84.9879 46.2915 85.0709 46.3239C85.156 46.3543 85.2482 46.3695 85.3475 46.3695C85.4204 46.3695 85.4843 46.3645 85.539 46.3543C85.5937 46.3442 85.6362 46.3361 85.6666 46.33L85.8307 47.0807C85.7781 47.101 85.7031 47.1212 85.6058 47.1415C85.5086 47.1638 85.387 47.1759 85.2411 47.178C85.002 47.182 84.7792 47.1395 84.5725 47.0503C84.3658 46.9612 84.1987 46.8234 84.071 46.637C83.9434 46.4506 83.8795 46.2166 83.8795 45.9349V41.3305ZM86.7509 47.1172V42.4489H87.6292V43.1905H87.6778C87.7629 42.9392 87.9129 42.7417 88.1277 42.5978C88.3445 42.4519 88.5896 42.379 88.8632 42.379C88.9199 42.379 88.9867 42.381 89.0637 42.3851C89.1428 42.3891 89.2046 42.3942 89.2491 42.4003V43.2695C89.2127 43.2594 89.1478 43.2482 89.0546 43.2361C88.9614 43.2219 88.8682 43.2148 88.775 43.2148C88.5602 43.2148 88.3688 43.2604 88.2006 43.3516C88.0345 43.4407 87.9027 43.5653 87.8055 43.7254C87.7082 43.8834 87.6596 44.0638 87.6596 44.2664V47.1172H86.7509ZM91.3523 47.2205C91.0565 47.2205 90.789 47.1658 90.5499 47.0564C90.3109 46.945 90.1214 46.7839 89.9816 46.5732C89.8438 46.3624 89.7749 46.1041 89.7749 45.7982C89.7749 45.5348 89.8256 45.318 89.9269 45.1478C90.0282 44.9776 90.165 44.8428 90.3372 44.7435C90.5094 44.6443 90.7019 44.5693 90.9146 44.5186C91.1274 44.468 91.3442 44.4295 91.565 44.4031C91.8447 44.3707 92.0716 44.3444 92.2458 44.3241C92.4201 44.3018 92.5467 44.2664 92.6257 44.2177C92.7048 44.1691 92.7443 44.0901 92.7443 43.9807V43.9594C92.7443 43.694 92.6693 43.4883 92.5194 43.3424C92.3715 43.1966 92.1506 43.1236 91.8568 43.1236C91.5509 43.1236 91.3098 43.1915 91.1335 43.3272C90.9592 43.461 90.8387 43.6099 90.7718 43.774L89.9178 43.5795C90.0191 43.2958 90.167 43.0669 90.3615 42.8926C90.558 42.7164 90.784 42.5887 91.0393 42.5097C91.2946 42.4286 91.563 42.3881 91.8447 42.3881C92.0311 42.3881 92.2286 42.4104 92.4373 42.455C92.648 42.4975 92.8446 42.5765 93.0269 42.692C93.2113 42.8075 93.3623 42.9727 93.4798 43.1874C93.5973 43.4002 93.6561 43.6768 93.6561 44.0172V47.1172H92.7686V46.4789H92.7321C92.6734 46.5965 92.5852 46.712 92.4677 46.8254C92.3502 46.9389 92.1992 47.0331 92.0149 47.1081C91.8305 47.183 91.6096 47.2205 91.3523 47.2205ZM91.5499 46.4911C91.8011 46.4911 92.0159 46.4415 92.1942 46.3422C92.3745 46.2429 92.5113 46.1132 92.6045 45.9532C92.6997 45.7911 92.7473 45.6178 92.7473 45.4334V44.8317C92.7149 44.8641 92.6521 44.8945 92.5589 44.9228C92.4677 44.9492 92.3634 44.9725 92.2458 44.9928C92.1283 45.011 92.0138 45.0282 91.9024 45.0444C91.791 45.0586 91.6978 45.0708 91.6228 45.0809C91.4465 45.1032 91.2854 45.1407 91.1396 45.1933C90.9957 45.246 90.8802 45.322 90.7931 45.4213C90.708 45.5185 90.6654 45.6482 90.6654 45.8103C90.6654 46.0352 90.7485 46.2054 90.9146 46.3209C91.0808 46.4344 91.2925 46.4911 91.5499 46.4911ZM98.6929 42.4489L97 47.1172H96.0274L94.3315 42.4489H95.3071L96.4894 46.0413H96.538L97.7173 42.4489H98.6929ZM101.4 47.2114C100.94 47.2114 100.544 47.1131 100.212 46.9166C99.8815 46.718 99.6262 46.4394 99.4458 46.0808C99.2675 45.7201 99.1784 45.2977 99.1784 44.8134C99.1784 44.3353 99.2675 43.9138 99.4458 43.5491C99.6262 43.1844 99.8774 42.8997 100.2 42.6951C100.524 42.4904 100.903 42.3881 101.336 42.3881C101.6 42.3881 101.855 42.4317 102.102 42.5188C102.349 42.6059 102.571 42.7427 102.768 42.9291C102.964 43.1155 103.119 43.3576 103.233 43.6555C103.346 43.9513 103.403 44.3109 103.403 44.7344V45.0566H99.692V44.3758H102.512C102.512 44.1367 102.464 43.925 102.367 43.7406C102.269 43.5542 102.133 43.4073 101.956 43.2999C101.782 43.1925 101.577 43.1388 101.342 43.1388C101.087 43.1388 100.864 43.2016 100.674 43.3272C100.485 43.4508 100.339 43.6129 100.236 43.8135C100.135 44.0121 100.084 44.2279 100.084 44.4609V44.9928C100.084 45.3048 100.139 45.5702 100.248 45.789C100.36 46.0079 100.515 46.175 100.713 46.2905C100.912 46.404 101.144 46.4607 101.409 46.4607C101.581 46.4607 101.738 46.4364 101.88 46.3878C102.022 46.3371 102.145 46.2621 102.248 46.1629C102.351 46.0636 102.43 45.941 102.485 45.7951L103.345 45.9501C103.276 46.2034 103.153 46.4253 102.974 46.6157C102.798 46.8041 102.576 46.951 102.309 47.0564C102.043 47.1597 101.74 47.2114 101.4 47.2114ZM105.32 40.8928V47.1172H104.411V40.8928H105.32ZM107.451 40.8928V47.1172H106.542V40.8928H107.451ZM110.686 47.2114C110.226 47.2114 109.83 47.1131 109.497 46.9166C109.167 46.718 108.912 46.4394 108.731 46.0808C108.553 45.7201 108.464 45.2977 108.464 44.8134C108.464 44.3353 108.553 43.9138 108.731 43.5491C108.912 43.1844 109.163 42.8997 109.485 42.6951C109.809 42.4904 110.188 42.3881 110.622 42.3881C110.885 42.3881 111.141 42.4317 111.388 42.5188C111.635 42.6059 111.857 42.7427 112.053 42.9291C112.25 43.1155 112.405 43.3576 112.518 43.6555C112.632 43.9513 112.689 44.3109 112.689 44.7344V45.0566H108.978V44.3758H111.798C111.798 44.1367 111.749 43.925 111.652 43.7406C111.555 43.5542 111.418 43.4073 111.242 43.2999C111.068 43.1925 110.863 43.1388 110.628 43.1388C110.373 43.1388 110.15 43.2016 109.959 43.3272C109.771 43.4508 109.625 43.6129 109.522 43.8135C109.42 44.0121 109.37 44.2279 109.37 44.4609V44.9928C109.37 45.3048 109.424 45.5702 109.534 45.789C109.645 46.0079 109.8 46.175 109.999 46.2905C110.197 46.404 110.429 46.4607 110.695 46.4607C110.867 46.4607 111.024 46.4364 111.166 46.3878C111.308 46.3371 111.43 46.2621 111.534 46.1629C111.637 46.0636 111.716 45.941 111.771 45.7951L112.631 45.9501C112.562 46.2034 112.438 46.4253 112.26 46.6157C112.084 46.8041 111.862 46.951 111.594 47.0564C111.329 47.1597 111.026 47.2114 110.686 47.2114ZM113.697 47.1172V42.4489H114.575V43.1905H114.624C114.709 42.9392 114.859 42.7417 115.074 42.5978C115.29 42.4519 115.536 42.379 115.809 42.379C115.866 42.379 115.933 42.381 116.01 42.3851C116.089 42.3891 116.151 42.3942 116.195 42.4003V43.2695C116.159 43.2594 116.094 43.2482 116.001 43.2361C115.907 43.2219 115.814 43.2148 115.721 43.2148C115.506 43.2148 115.315 43.2604 115.147 43.3516C114.98 43.4407 114.849 43.5653 114.751 43.7254C114.654 43.8834 114.606 44.0638 114.606 44.2664V47.1172H113.697ZM120.48 43.5886L119.656 43.7345C119.622 43.6291 119.567 43.5288 119.492 43.4336C119.419 43.3384 119.32 43.2604 119.194 43.1996C119.068 43.1388 118.911 43.1084 118.723 43.1084C118.466 43.1084 118.251 43.1662 118.079 43.2817C117.906 43.3951 117.82 43.542 117.82 43.7223C117.82 43.8784 117.878 44.004 117.994 44.0992C118.109 44.1944 118.296 44.2724 118.553 44.3332L119.294 44.5034C119.724 44.6027 120.044 44.7557 120.255 44.9624C120.466 45.169 120.571 45.4375 120.571 45.7678C120.571 46.0474 120.49 46.2966 120.328 46.5154C120.168 46.7322 119.944 46.9024 119.656 47.026C119.37 47.1496 119.039 47.2114 118.662 47.2114C118.139 47.2114 117.713 47.1 117.383 46.8771C117.052 46.6522 116.85 46.3331 116.775 45.9197L117.653 45.786C117.708 46.015 117.82 46.1882 117.991 46.3057C118.161 46.4212 118.383 46.4789 118.656 46.4789C118.954 46.4789 119.192 46.4171 119.37 46.2936C119.549 46.1679 119.638 46.015 119.638 45.8346C119.638 45.6887 119.583 45.5662 119.474 45.4669C119.366 45.3676 119.201 45.2926 118.978 45.242L118.188 45.0687C117.752 44.9695 117.43 44.8114 117.222 44.5946C117.015 44.3778 116.912 44.1033 116.912 43.771C116.912 43.4954 116.989 43.2543 117.143 43.0476C117.297 42.841 117.509 42.6799 117.781 42.5644C118.052 42.4469 118.363 42.3881 118.714 42.3881C119.218 42.3881 119.616 42.4975 119.905 42.7164C120.195 42.9332 120.387 43.2239 120.48 43.5886Z" fill="#333333"/>
<rect x="38.0921" y="52.9534" width="292.837" height="19.6828" rx="2.0868" fill="#F7F7F7"/>
<rect x="38.0921" y="52.9534" width="292.837" height="19.6828" rx="2.0868" stroke="#EFEFEF" stroke-width="1.3912"/>
<path d="M50.8483 97.168V90.9436H53.1824C53.6606 90.9436 54.0618 91.0327 54.386 91.211C54.7122 91.3893 54.9584 91.6345 55.1245 91.9465C55.2927 92.2565 55.3768 92.6091 55.3768 93.0042C55.3768 93.4034 55.2927 93.7579 55.1245 94.0679C54.9564 94.3779 54.7082 94.6221 54.3799 94.8004C54.0517 94.9767 53.6475 95.0648 53.1673 95.0648H51.6203V94.1378H53.0153C53.2949 94.1378 53.5239 94.0892 53.7022 93.992C53.8805 93.8947 54.0122 93.761 54.0973 93.5908C54.1844 93.4206 54.228 93.225 54.228 93.0042C54.228 92.7833 54.1844 92.5888 54.0973 92.4207C54.0122 92.2525 53.8794 92.1218 53.6991 92.0286C53.5208 91.9334 53.2908 91.8858 53.0092 91.8858H51.9759V97.168H50.8483ZM56.3076 97.168V92.4997H57.3743V93.2777H57.423C57.5081 93.0082 57.6539 92.8006 57.8606 92.6547C58.0693 92.5068 58.3074 92.4328 58.5748 92.4328C58.6356 92.4328 58.7035 92.4359 58.7785 92.4419C58.8555 92.446 58.9193 92.4531 58.9699 92.4632V93.4753C58.9233 93.4591 58.8494 93.4449 58.7481 93.4327C58.6488 93.4185 58.5526 93.4115 58.4593 93.4115C58.2588 93.4115 58.0784 93.455 57.9184 93.5421C57.7603 93.6272 57.6357 93.7458 57.5445 93.8977C57.4534 94.0497 57.4078 94.225 57.4078 94.4235V97.168H56.3076ZM61.5753 97.2591C61.1073 97.2591 60.7031 97.1619 60.3627 96.9674C60.0243 96.7708 59.7639 96.4933 59.5816 96.1346C59.3992 95.774 59.3081 95.3495 59.3081 94.8612C59.3081 94.381 59.3992 93.9595 59.5816 93.5968C59.766 93.2321 60.0233 92.9485 60.3536 92.7459C60.6838 92.5412 61.0718 92.4389 61.5176 92.4389C61.8053 92.4389 62.0768 92.4855 62.3321 92.5787C62.5894 92.6699 62.8164 92.8117 63.0129 93.0042C63.2115 93.1967 63.3675 93.4418 63.4809 93.7397C63.5944 94.0355 63.6511 94.3881 63.6511 94.7974V95.1347H59.8247V94.3931H62.5965C62.5945 94.1824 62.5489 93.995 62.4598 93.8309C62.3706 93.6647 62.246 93.534 62.0859 93.4388C61.9279 93.3436 61.7435 93.296 61.5328 93.296C61.3079 93.296 61.1103 93.3507 60.9401 93.4601C60.7699 93.5675 60.6372 93.7093 60.542 93.8856C60.4488 94.0598 60.4012 94.2513 60.3991 94.46V95.1074C60.3991 95.3789 60.4488 95.6119 60.5481 95.8064C60.6474 95.9989 60.7861 96.1468 60.9644 96.2501C61.1428 96.3514 61.3514 96.4021 61.5905 96.4021C61.7506 96.4021 61.8955 96.3798 62.0251 96.3352C62.1548 96.2886 62.2673 96.2207 62.3625 96.1316C62.4577 96.0424 62.5297 95.932 62.5783 95.8003L63.6056 95.9158C63.5407 96.1873 63.4171 96.4244 63.2348 96.627C63.0544 96.8276 62.8235 96.9836 62.5418 97.095C62.2602 97.2044 61.938 97.2591 61.5753 97.2591ZM68.618 92.4997L66.9556 97.168H65.7399L64.0774 92.4997H65.2506L66.3234 95.9675H66.372L67.4479 92.4997H68.618Z" fill="#A58CF0"/>
<rect x="37.6639" y="82.1581" width="44.1407" height="23.0236" rx="4.01181" stroke="#A58CF0" stroke-width="0.534908"/>
<rect x="285.949" y="81.8906" width="45.6756" height="23.5585" rx="4.27926" fill="#A58CF0"/>
<path d="M304.516 90.9436V97.168H303.513L300.58 92.9282H300.529V97.168H299.401V90.9436H300.41L303.34 95.1864H303.395V90.9436H304.516ZM307.763 97.2591C307.295 97.2591 306.891 97.1619 306.55 96.9674C306.212 96.7708 305.951 96.4933 305.769 96.1346C305.587 95.774 305.495 95.3495 305.495 94.8612C305.495 94.381 305.587 93.9595 305.769 93.5968C305.953 93.2321 306.211 92.9485 306.541 92.7459C306.871 92.5412 307.259 92.4389 307.705 92.4389C307.993 92.4389 308.264 92.4855 308.52 92.5787C308.777 92.6699 309.004 92.8117 309.2 93.0042C309.399 93.1967 309.555 93.4418 309.668 93.7397C309.782 94.0355 309.839 94.3881 309.839 94.7974V95.1347H306.012V94.3931H308.784C308.782 94.1824 308.736 93.995 308.647 93.8309C308.558 93.6647 308.433 93.534 308.273 93.4388C308.115 93.3436 307.931 93.296 307.72 93.296C307.495 93.296 307.298 93.3507 307.128 93.4601C306.957 93.5675 306.825 93.7093 306.729 93.8856C306.636 94.0598 306.589 94.2513 306.587 94.46V95.1074C306.587 95.3789 306.636 95.6119 306.736 95.8064C306.835 95.9989 306.974 96.1468 307.152 96.2501C307.33 96.3514 307.539 96.4021 307.778 96.4021C307.938 96.4021 308.083 96.3798 308.213 96.3352C308.342 96.2886 308.455 96.2207 308.55 96.1316C308.645 96.0424 308.717 95.932 308.766 95.8003L309.793 95.9158C309.728 96.1873 309.605 96.4244 309.422 96.627C309.242 96.8276 309.011 96.9836 308.729 97.095C308.448 97.2044 308.125 97.2591 307.763 97.2591ZM311.569 92.4997L312.511 94.2229L313.468 92.4997H314.632L313.225 94.8338L314.657 97.168H313.499L312.511 95.4873L311.532 97.168H310.365L311.788 94.8338L310.402 92.4997H311.569ZM317.814 92.4997V93.3507H315.131V92.4997H317.814ZM315.793 91.3812H316.893V95.7638C316.893 95.9117 316.916 96.0252 316.96 96.1042C317.007 96.1812 317.068 96.2339 317.143 96.2623C317.218 96.2906 317.301 96.3048 317.392 96.3048C317.461 96.3048 317.524 96.2998 317.58 96.2896C317.639 96.2795 317.684 96.2704 317.714 96.2623L317.899 97.1224C317.841 97.1426 317.757 97.1649 317.647 97.1892C317.54 97.2136 317.408 97.2277 317.252 97.2318C316.977 97.2399 316.728 97.1984 316.507 97.1072C316.287 97.014 316.111 96.8701 315.982 96.6756C315.854 96.4811 315.791 96.238 315.793 95.9462V91.3812Z" fill="white"/>
</g>
<g filter="url(#filter1_dd_5186_13137)">
<rect x="141" y="90" width="337.02" height="102.565" rx="4.27926" fill="white" shape-rendering="crispEdges"/>
<path d="M168.25 112.917H167.302C167.265 112.714 167.197 112.536 167.098 112.382C166.999 112.228 166.877 112.097 166.733 111.99C166.59 111.883 166.429 111.802 166.25 111.747C166.074 111.692 165.887 111.665 165.688 111.665C165.329 111.665 165.008 111.755 164.725 111.935C164.443 112.116 164.22 112.38 164.056 112.729C163.894 113.077 163.813 113.503 163.813 114.005C163.813 114.512 163.894 114.939 164.056 115.288C164.22 115.636 164.444 115.899 164.728 116.078C165.011 116.256 165.33 116.345 165.685 116.345C165.881 116.345 166.068 116.319 166.244 116.266C166.422 116.211 166.584 116.131 166.727 116.026C166.871 115.921 166.993 115.792 167.092 115.64C167.193 115.486 167.263 115.31 167.302 115.111L168.25 115.114C168.199 115.42 168.101 115.702 167.955 115.959C167.811 116.215 167.626 116.435 167.399 116.622C167.174 116.806 166.917 116.949 166.627 117.05C166.337 117.152 166.021 117.202 165.679 117.202C165.14 117.202 164.66 117.075 164.238 116.819C163.817 116.562 163.485 116.194 163.241 115.716C163 115.238 162.88 114.668 162.88 114.005C162.88 113.34 163.001 112.77 163.244 112.294C163.488 111.816 163.82 111.449 164.241 111.194C164.663 110.936 165.142 110.808 165.679 110.808C166.009 110.808 166.317 110.855 166.603 110.951C166.891 111.044 167.149 111.182 167.378 111.364C167.607 111.544 167.796 111.765 167.946 112.026C168.096 112.286 168.197 112.583 168.25 112.917ZM171.267 117.211C170.83 117.211 170.448 117.111 170.121 116.911C169.795 116.71 169.542 116.429 169.362 116.069C169.181 115.708 169.091 115.287 169.091 114.804C169.091 114.32 169.181 113.897 169.362 113.534C169.542 113.171 169.795 112.89 170.121 112.689C170.448 112.488 170.83 112.388 171.267 112.388C171.705 112.388 172.087 112.488 172.413 112.689C172.739 112.89 172.993 113.171 173.173 113.534C173.353 113.897 173.443 114.32 173.443 114.804C173.443 115.287 173.353 115.708 173.173 116.069C172.993 116.429 172.739 116.71 172.413 116.911C172.087 117.111 171.705 117.211 171.267 117.211ZM171.27 116.449C171.554 116.449 171.789 116.374 171.975 116.224C172.162 116.074 172.3 115.874 172.389 115.625C172.48 115.376 172.526 115.101 172.526 114.801C172.526 114.503 172.48 114.23 172.389 113.981C172.3 113.729 172.162 113.528 171.975 113.376C171.789 113.224 171.554 113.148 171.27 113.148C170.985 113.148 170.748 113.224 170.559 113.376C170.373 113.528 170.234 113.729 170.143 113.981C170.054 114.23 170.009 114.503 170.009 114.801C170.009 115.101 170.054 115.376 170.143 115.625C170.234 115.874 170.373 116.074 170.559 116.224C170.748 116.374 170.985 116.449 171.27 116.449ZM177.956 113.589L177.132 113.735C177.098 113.629 177.043 113.529 176.968 113.434C176.895 113.338 176.796 113.26 176.67 113.2C176.545 113.139 176.388 113.108 176.199 113.108C175.942 113.108 175.727 113.166 175.555 113.282C175.383 113.395 175.297 113.542 175.297 113.722C175.297 113.878 175.354 114.004 175.47 114.099C175.585 114.194 175.772 114.272 176.029 114.333L176.771 114.503C177.2 114.603 177.52 114.756 177.731 114.962C177.942 115.169 178.047 115.437 178.047 115.768C178.047 116.047 177.966 116.297 177.804 116.515C177.644 116.732 177.42 116.902 177.132 117.026C176.847 117.15 176.515 117.211 176.138 117.211C175.616 117.211 175.189 117.1 174.859 116.877C174.529 116.652 174.326 116.333 174.251 115.92L175.129 115.786C175.184 116.015 175.297 116.188 175.467 116.306C175.637 116.421 175.859 116.479 176.132 116.479C176.43 116.479 176.668 116.417 176.847 116.294C177.025 116.168 177.114 116.015 177.114 115.835C177.114 115.689 177.059 115.566 176.95 115.467C176.843 115.368 176.677 115.293 176.455 115.242L175.664 115.069C175.229 114.969 174.907 114.811 174.698 114.595C174.491 114.378 174.388 114.103 174.388 113.771C174.388 113.495 174.465 113.254 174.619 113.048C174.773 112.841 174.986 112.68 175.257 112.564C175.529 112.447 175.84 112.388 176.19 112.388C176.695 112.388 177.092 112.498 177.382 112.716C177.671 112.933 177.863 113.224 177.956 113.589ZM181.225 112.449V113.178H178.675V112.449H181.225ZM179.359 111.33H180.268V115.746C180.268 115.923 180.294 116.055 180.347 116.145C180.4 116.232 180.468 116.292 180.551 116.324C180.636 116.354 180.728 116.37 180.827 116.37C180.9 116.37 180.964 116.364 181.019 116.354C181.073 116.344 181.116 116.336 181.146 116.33L181.311 117.081C181.258 117.101 181.183 117.121 181.086 117.142C180.988 117.164 180.867 117.176 180.721 117.178C180.482 117.182 180.259 117.139 180.052 117.05C179.846 116.961 179.678 116.823 179.551 116.637C179.423 116.451 179.359 116.217 179.359 115.935V111.33ZM184.496 118.868V112.449H185.383V113.206H185.459C185.512 113.108 185.588 112.996 185.687 112.868C185.786 112.741 185.924 112.629 186.1 112.534C186.277 112.437 186.51 112.388 186.799 112.388C187.176 112.388 187.513 112.483 187.808 112.674C188.104 112.864 188.336 113.139 188.504 113.497C188.675 113.856 188.76 114.288 188.76 114.792C188.76 115.297 188.676 115.729 188.507 116.09C188.339 116.449 188.108 116.725 187.814 116.92C187.521 117.112 187.185 117.208 186.809 117.208C186.525 117.208 186.293 117.161 186.113 117.066C185.934 116.97 185.794 116.859 185.693 116.731C185.592 116.604 185.514 116.49 185.459 116.391H185.404V118.868H184.496ZM185.386 114.783C185.386 115.111 185.434 115.399 185.529 115.646C185.624 115.893 185.762 116.087 185.942 116.227C186.123 116.364 186.344 116.433 186.605 116.433C186.876 116.433 187.103 116.361 187.286 116.218C187.468 116.072 187.606 115.874 187.699 115.625C187.794 115.376 187.842 115.095 187.842 114.783C187.842 114.475 187.795 114.198 187.702 113.953C187.611 113.708 187.473 113.515 187.289 113.373C187.106 113.231 186.878 113.16 186.605 113.16C186.341 113.16 186.119 113.228 185.936 113.364C185.756 113.499 185.619 113.689 185.526 113.932C185.433 114.175 185.386 114.459 185.386 114.783ZM191.79 117.211C191.33 117.211 190.934 117.113 190.601 116.917C190.271 116.718 190.016 116.439 189.836 116.081C189.657 115.72 189.568 115.298 189.568 114.813C189.568 114.335 189.657 113.914 189.836 113.549C190.016 113.184 190.267 112.9 190.589 112.695C190.914 112.49 191.292 112.388 191.726 112.388C191.989 112.388 192.245 112.432 192.492 112.519C192.739 112.606 192.961 112.743 193.157 112.929C193.354 113.116 193.509 113.358 193.623 113.655C193.736 113.951 193.793 114.311 193.793 114.734V115.057H190.082V114.376H192.902C192.902 114.137 192.854 113.925 192.756 113.741C192.659 113.554 192.522 113.407 192.346 113.3C192.172 113.193 191.967 113.139 191.732 113.139C191.477 113.139 191.254 113.202 191.063 113.327C190.875 113.451 190.729 113.613 190.626 113.814C190.524 114.012 190.474 114.228 190.474 114.461V114.993C190.474 115.305 190.529 115.57 190.638 115.789C190.749 116.008 190.904 116.175 191.103 116.291C191.302 116.404 191.534 116.461 191.799 116.461C191.971 116.461 192.128 116.436 192.27 116.388C192.412 116.337 192.534 116.262 192.638 116.163C192.741 116.064 192.82 115.941 192.875 115.795L193.735 115.95C193.666 116.203 193.542 116.425 193.364 116.616C193.188 116.804 192.966 116.951 192.699 117.056C192.433 117.16 192.13 117.211 191.79 117.211ZM194.801 117.117V112.449H195.679V113.19H195.728C195.813 112.939 195.963 112.742 196.178 112.598C196.395 112.452 196.64 112.379 196.913 112.379C196.97 112.379 197.037 112.381 197.114 112.385C197.193 112.389 197.255 112.394 197.299 112.4V113.269C197.263 113.259 197.198 113.248 197.105 113.236C197.012 113.222 196.918 113.215 196.825 113.215C196.61 113.215 196.419 113.26 196.251 113.352C196.085 113.441 195.953 113.565 195.856 113.725C195.758 113.883 195.71 114.064 195.71 114.266V117.117H194.801ZM200.351 118.868V112.449H201.238V113.206H201.314C201.367 113.108 201.443 112.996 201.542 112.868C201.641 112.741 201.779 112.629 201.955 112.534C202.132 112.437 202.365 112.388 202.654 112.388C203.031 112.388 203.368 112.483 203.663 112.674C203.959 112.864 204.191 113.139 204.359 113.497C204.53 113.856 204.615 114.288 204.615 114.792C204.615 115.297 204.531 115.729 204.362 116.09C204.194 116.449 203.963 116.725 203.67 116.92C203.376 117.112 203.04 117.208 202.664 117.208C202.38 117.208 202.148 117.161 201.968 117.066C201.789 116.97 201.649 116.859 201.548 116.731C201.447 116.604 201.369 116.49 201.314 116.391H201.259V118.868H200.351ZM201.241 114.783C201.241 115.111 201.289 115.399 201.384 115.646C201.479 115.893 201.617 116.087 201.797 116.227C201.978 116.364 202.199 116.433 202.46 116.433C202.731 116.433 202.958 116.361 203.141 116.218C203.323 116.072 203.461 115.874 203.554 115.625C203.649 115.376 203.697 115.095 203.697 114.783C203.697 114.475 203.65 114.198 203.557 113.953C203.466 113.708 203.328 113.515 203.144 113.373C202.961 113.231 202.733 113.16 202.46 113.16C202.196 113.16 201.974 113.228 201.791 113.364C201.611 113.499 201.474 113.689 201.381 113.932C201.288 114.175 201.241 114.459 201.241 114.783ZM207.645 117.211C207.185 117.211 206.789 117.113 206.456 116.917C206.126 116.718 205.871 116.439 205.691 116.081C205.512 115.72 205.423 115.298 205.423 114.813C205.423 114.335 205.512 113.914 205.691 113.549C205.871 113.184 206.122 112.9 206.444 112.695C206.769 112.49 207.147 112.388 207.581 112.388C207.844 112.388 208.1 112.432 208.347 112.519C208.594 112.606 208.816 112.743 209.013 112.929C209.209 113.116 209.364 113.358 209.478 113.655C209.591 113.951 209.648 114.311 209.648 114.734V115.057H205.937V114.376H208.757C208.757 114.137 208.709 113.925 208.611 113.741C208.514 113.554 208.377 113.407 208.201 113.3C208.027 113.193 207.822 113.139 207.587 113.139C207.332 113.139 207.109 113.202 206.918 113.327C206.73 113.451 206.584 113.613 206.481 113.814C206.38 114.012 206.329 114.228 206.329 114.461V114.993C206.329 115.305 206.384 115.57 206.493 115.789C206.604 116.008 206.759 116.175 206.958 116.291C207.157 116.404 207.389 116.461 207.654 116.461C207.826 116.461 207.983 116.436 208.125 116.388C208.267 116.337 208.389 116.262 208.493 116.163C208.596 116.064 208.675 115.941 208.73 115.795L209.59 115.95C209.521 116.203 209.397 116.425 209.219 116.616C209.043 116.804 208.821 116.951 208.554 117.056C208.288 117.16 207.985 117.211 207.645 117.211ZM210.656 117.117V112.449H211.534V113.19H211.583C211.668 112.939 211.818 112.742 212.033 112.598C212.25 112.452 212.495 112.379 212.768 112.379C212.825 112.379 212.892 112.381 212.969 112.385C213.048 112.389 213.11 112.394 213.154 112.4V113.269C213.118 113.259 213.053 113.248 212.96 113.236C212.867 113.222 212.773 113.215 212.68 113.215C212.465 113.215 212.274 113.26 212.106 113.352C211.94 113.441 211.808 113.565 211.711 113.725C211.613 113.883 211.565 114.064 211.565 114.266V117.117H210.656ZM217.439 113.589L216.615 113.735C216.581 113.629 216.526 113.529 216.451 113.434C216.378 113.338 216.279 113.26 216.153 113.2C216.028 113.139 215.871 113.108 215.682 113.108C215.425 113.108 215.21 113.166 215.038 113.282C214.866 113.395 214.779 113.542 214.779 113.722C214.779 113.878 214.837 114.004 214.953 114.099C215.068 114.194 215.255 114.272 215.512 114.333L216.254 114.503C216.683 114.603 217.003 114.756 217.214 114.962C217.425 115.169 217.53 115.437 217.53 115.768C217.53 116.047 217.449 116.297 217.287 116.515C217.127 116.732 216.903 116.902 216.615 117.026C216.33 117.15 215.998 117.211 215.621 117.211C215.099 117.211 214.672 117.1 214.342 116.877C214.012 116.652 213.809 116.333 213.734 115.92L214.612 115.786C214.667 116.015 214.779 116.188 214.95 116.306C215.12 116.421 215.342 116.479 215.615 116.479C215.913 116.479 216.151 116.417 216.33 116.294C216.508 116.168 216.597 116.015 216.597 115.835C216.597 115.689 216.542 115.566 216.433 115.467C216.325 115.368 216.16 115.293 215.937 115.242L215.147 115.069C214.712 114.969 214.389 114.811 214.181 114.595C213.974 114.378 213.871 114.103 213.871 113.771C213.871 113.495 213.948 113.254 214.102 113.048C214.256 112.841 214.468 112.68 214.74 112.564C215.011 112.447 215.323 112.388 215.673 112.388C216.178 112.388 216.575 112.498 216.864 112.716C217.154 112.933 217.346 113.224 217.439 113.589ZM220.496 117.211C220.058 117.211 219.676 117.111 219.35 116.911C219.024 116.71 218.77 116.429 218.59 116.069C218.41 115.708 218.319 115.287 218.319 114.804C218.319 114.32 218.41 113.897 218.59 113.534C218.77 113.171 219.024 112.89 219.35 112.689C219.676 112.488 220.058 112.388 220.496 112.388C220.933 112.388 221.315 112.488 221.641 112.689C221.968 112.89 222.221 113.171 222.401 113.534C222.581 113.897 222.672 114.32 222.672 114.804C222.672 115.287 222.581 115.708 222.401 116.069C222.221 116.429 221.968 116.71 221.641 116.911C221.315 117.111 220.933 117.211 220.496 117.211ZM220.499 116.449C220.782 116.449 221.017 116.374 221.204 116.224C221.39 116.074 221.528 115.874 221.617 115.625C221.708 115.376 221.754 115.101 221.754 114.801C221.754 114.503 221.708 114.23 221.617 113.981C221.528 113.729 221.39 113.528 221.204 113.376C221.017 113.224 220.782 113.148 220.499 113.148C220.213 113.148 219.976 113.224 219.787 113.376C219.601 113.528 219.462 113.729 219.371 113.981C219.282 114.23 219.237 114.503 219.237 114.801C219.237 115.101 219.282 115.376 219.371 115.625C219.462 115.874 219.601 116.074 219.787 116.224C219.976 116.374 220.213 116.449 220.499 116.449ZM224.595 114.345V117.117H223.686V112.449H224.558V113.209H224.616C224.723 112.962 224.892 112.763 225.121 112.613C225.352 112.463 225.642 112.388 225.993 112.388C226.311 112.388 226.59 112.455 226.829 112.589C227.068 112.72 227.253 112.917 227.385 113.178C227.516 113.44 227.582 113.763 227.582 114.148V117.117H226.674V114.257C226.674 113.919 226.585 113.654 226.409 113.464C226.233 113.272 225.991 113.175 225.683 113.175C225.472 113.175 225.285 113.221 225.121 113.312C224.958 113.403 224.83 113.537 224.735 113.713C224.641 113.887 224.595 114.098 224.595 114.345Z" fill="#333333"/>
<rect x="163.092" y="122.953" width="292.837" height="19.6828" rx="2.0868" fill="#F7F7F7"/>
<rect x="163.092" y="122.953" width="292.837" height="19.6828" rx="2.0868" stroke="#EFEFEF" stroke-width="1.3912"/>
<path d="M175.848 167.168V160.944H178.182C178.661 160.944 179.062 161.033 179.386 161.211C179.712 161.389 179.958 161.635 180.125 161.947C180.293 162.257 180.377 162.609 180.377 163.004C180.377 163.403 180.293 163.758 180.125 164.068C179.956 164.378 179.708 164.622 179.38 164.8C179.052 164.977 178.647 165.065 178.167 165.065H176.62V164.138H178.015C178.295 164.138 178.524 164.089 178.702 163.992C178.88 163.895 179.012 163.761 179.097 163.591C179.184 163.421 179.228 163.225 179.228 163.004C179.228 162.783 179.184 162.589 179.097 162.421C179.012 162.252 178.879 162.122 178.699 162.029C178.521 161.933 178.291 161.886 178.009 161.886H176.976V167.168H175.848ZM181.308 167.168V162.5H182.374V163.278H182.423C182.508 163.008 182.654 162.801 182.861 162.655C183.069 162.507 183.307 162.433 183.575 162.433C183.636 162.433 183.704 162.436 183.778 162.442C183.855 162.446 183.919 162.453 183.97 162.463V163.475C183.923 163.459 183.849 163.445 183.748 163.433C183.649 163.419 183.553 163.411 183.459 163.411C183.259 163.411 183.078 163.455 182.918 163.542C182.76 163.627 182.636 163.746 182.545 163.898C182.453 164.05 182.408 164.225 182.408 164.424V167.168H181.308ZM186.575 167.259C186.107 167.259 185.703 167.162 185.363 166.967C185.024 166.771 184.764 166.493 184.582 166.135C184.399 165.774 184.308 165.349 184.308 164.861C184.308 164.381 184.399 163.96 184.582 163.597C184.766 163.232 185.023 162.948 185.354 162.746C185.684 162.541 186.072 162.439 186.518 162.439C186.805 162.439 187.077 162.485 187.332 162.579C187.589 162.67 187.816 162.812 188.013 163.004C188.211 163.197 188.367 163.442 188.481 163.74C188.594 164.036 188.651 164.388 188.651 164.797V165.135H184.825V164.393H187.597C187.595 164.182 187.549 163.995 187.46 163.831C187.371 163.665 187.246 163.534 187.086 163.439C186.928 163.344 186.744 163.296 186.533 163.296C186.308 163.296 186.11 163.351 185.94 163.46C185.77 163.567 185.637 163.709 185.542 163.886C185.449 164.06 185.401 164.251 185.399 164.46V165.107C185.399 165.379 185.449 165.612 185.548 165.806C185.647 165.999 185.786 166.147 185.964 166.25C186.143 166.351 186.351 166.402 186.591 166.402C186.751 166.402 186.895 166.38 187.025 166.335C187.155 166.289 187.267 166.221 187.363 166.132C187.458 166.042 187.53 165.932 187.578 165.8L188.606 165.916C188.541 166.187 188.417 166.424 188.235 166.627C188.054 166.828 187.823 166.984 187.542 167.095C187.26 167.204 186.938 167.259 186.575 167.259ZM193.618 162.5L191.956 167.168H190.74L189.077 162.5H190.251L191.323 165.967H191.372L192.448 162.5H193.618Z" fill="#A58CF0"/>
<rect x="162.664" y="152.158" width="44.1407" height="23.0236" rx="4.01181" stroke="#A58CF0" stroke-width="0.534908"/>
<rect x="410.949" y="151.891" width="45.6756" height="23.5585" rx="4.27926" fill="#A58CF0"/>
<path d="M429.516 160.944V167.168H428.513L425.58 162.928H425.529V167.168H424.401V160.944H425.41L428.34 165.186H428.395V160.944H429.516ZM432.763 167.259C432.295 167.259 431.891 167.162 431.55 166.967C431.212 166.771 430.951 166.493 430.769 166.135C430.587 165.774 430.495 165.349 430.495 164.861C430.495 164.381 430.587 163.96 430.769 163.597C430.953 163.232 431.211 162.948 431.541 162.746C431.871 162.541 432.259 162.439 432.705 162.439C432.993 162.439 433.264 162.485 433.52 162.579C433.777 162.67 434.004 162.812 434.2 163.004C434.399 163.197 434.555 163.442 434.668 163.74C434.782 164.036 434.839 164.388 434.839 164.797V165.135H431.012V164.393H433.784C433.782 164.182 433.736 163.995 433.647 163.831C433.558 163.665 433.433 163.534 433.273 163.439C433.115 163.344 432.931 163.296 432.72 163.296C432.495 163.296 432.298 163.351 432.128 163.46C431.957 163.567 431.825 163.709 431.729 163.886C431.636 164.06 431.589 164.251 431.587 164.46V165.107C431.587 165.379 431.636 165.612 431.736 165.806C431.835 165.999 431.974 166.147 432.152 166.25C432.33 166.351 432.539 166.402 432.778 166.402C432.938 166.402 433.083 166.38 433.213 166.335C433.342 166.289 433.455 166.221 433.55 166.132C433.645 166.042 433.717 165.932 433.766 165.8L434.793 165.916C434.728 166.187 434.605 166.424 434.422 166.627C434.242 166.828 434.011 166.984 433.729 167.095C433.448 167.204 433.125 167.259 432.763 167.259ZM436.569 162.5L437.511 164.223L438.468 162.5H439.632L438.225 164.834L439.657 167.168H438.499L437.511 165.487L436.532 167.168H435.365L436.788 164.834L435.402 162.5H436.569ZM442.814 162.5V163.351H440.131V162.5H442.814ZM440.793 161.381H441.893V165.764C441.893 165.912 441.916 166.025 441.96 166.104C442.007 166.181 442.068 166.234 442.143 166.262C442.218 166.291 442.301 166.305 442.392 166.305C442.461 166.305 442.524 166.3 442.58 166.29C442.639 166.279 442.684 166.27 442.714 166.262L442.899 167.122C442.841 167.143 442.757 167.165 442.647 167.189C442.54 167.214 442.408 167.228 442.252 167.232C441.977 167.24 441.728 167.198 441.507 167.107C441.287 167.014 441.111 166.87 440.982 166.676C440.854 166.481 440.791 166.238 440.793 165.946V161.381Z" fill="white"/>
</g>
<g filter="url(#filter2_dd_5186_13137)">
<rect x="12" y="149" width="352.02" height="107.883" rx="4.46973" fill="white" shape-rendering="crispEdges"/>
<path d="M34.7423 171.222V170.377H39.7739V171.222H37.7454V176.879H36.7676V171.222H34.7423ZM42.1564 176.977C41.6992 176.977 41.3003 176.873 40.9596 176.663C40.6188 176.454 40.3543 176.16 40.1659 175.784C39.9776 175.407 39.8834 174.967 39.8834 174.463C39.8834 173.957 39.9776 173.515 40.1659 173.136C40.3543 172.757 40.6188 172.463 40.9596 172.254C41.3003 172.044 41.6992 171.939 42.1564 171.939C42.6135 171.939 43.0124 172.044 43.3532 172.254C43.6939 172.463 43.9584 172.757 44.1468 173.136C44.3351 173.515 44.4293 173.957 44.4293 174.463C44.4293 174.967 44.3351 175.407 44.1468 175.784C43.9584 176.16 43.6939 176.454 43.3532 176.663C43.0124 176.873 42.6135 176.977 42.1564 176.977ZM42.1595 176.181C42.4558 176.181 42.7013 176.102 42.896 175.946C43.0907 175.789 43.2346 175.581 43.3278 175.32C43.423 175.06 43.4706 174.773 43.4706 174.46C43.4706 174.149 43.423 173.863 43.3278 173.603C43.2346 173.34 43.0907 173.13 42.896 172.971C42.7013 172.812 42.4558 172.733 42.1595 172.733C41.8611 172.733 41.6135 172.812 41.4167 172.971C41.222 173.13 41.077 173.34 40.9818 173.603C40.8887 173.863 40.8421 174.149 40.8421 174.46C40.8421 174.773 40.8887 175.06 40.9818 175.32C41.077 175.581 41.222 175.789 41.4167 175.946C41.6135 176.102 41.8611 176.181 42.1595 176.181ZM47.765 172.003V172.765H45.1015V172.003H47.765ZM45.8158 170.835H46.765V175.447C46.765 175.631 46.7925 175.77 46.8475 175.863C46.9025 175.954 46.9734 176.016 47.0602 176.05C47.1491 176.082 47.2454 176.098 47.3491 176.098C47.4253 176.098 47.4919 176.093 47.5491 176.082C47.6062 176.072 47.6507 176.063 47.6824 176.057L47.8538 176.841C47.7988 176.862 47.7205 176.883 47.6189 176.904C47.5173 176.928 47.3904 176.94 47.238 176.942C46.9883 176.947 46.7555 176.902 46.5396 176.809C46.3237 176.716 46.1491 176.572 46.0158 176.377C45.8825 176.183 45.8158 175.938 45.8158 175.644V170.835ZM50.2339 176.987C49.9249 176.987 49.6456 176.93 49.3959 176.815C49.1461 176.699 48.9483 176.531 48.8022 176.311C48.6583 176.091 48.5864 175.821 48.5864 175.501C48.5864 175.226 48.6393 175 48.7451 174.822C48.8509 174.644 48.9938 174.503 49.1736 174.4C49.3535 174.296 49.5546 174.218 49.7768 174.165C49.999 174.112 50.2255 174.072 50.4562 174.044C50.7482 174.01 50.9852 173.983 51.1672 173.962C51.3493 173.938 51.4815 173.901 51.5641 173.85C51.6466 173.8 51.6879 173.717 51.6879 173.603V173.581C51.6879 173.303 51.6096 173.089 51.453 172.936C51.2985 172.784 51.0678 172.708 50.7609 172.708C50.4413 172.708 50.1895 172.778 50.0054 172.92C49.8234 173.06 49.6974 173.216 49.6276 173.387L48.7356 173.184C48.8414 172.887 48.9959 172.648 49.199 172.466C49.4043 172.282 49.6403 172.149 49.907 172.066C50.1736 171.982 50.454 171.939 50.7482 171.939C50.9429 171.939 51.1493 171.963 51.3672 172.009C51.5873 172.054 51.7926 172.136 51.9831 172.257C52.1757 172.377 52.3334 172.55 52.4561 172.774C52.5788 172.996 52.6402 173.285 52.6402 173.641V176.879H51.7133V176.212H51.6752C51.6138 176.335 51.5217 176.456 51.399 176.574C51.2762 176.693 51.1186 176.791 50.926 176.869C50.7334 176.948 50.5027 176.987 50.2339 176.987ZM50.4403 176.225C50.7027 176.225 50.927 176.173 51.1133 176.069C51.3016 175.966 51.4445 175.83 51.5418 175.663C51.6413 175.494 51.691 175.313 51.691 175.12V174.492C51.6572 174.526 51.5916 174.557 51.4942 174.587C51.399 174.614 51.29 174.639 51.1672 174.66C51.0445 174.679 50.9249 174.697 50.8085 174.714C50.6921 174.729 50.5948 174.741 50.5165 174.752C50.3323 174.775 50.1641 174.814 50.0117 174.869C49.8615 174.924 49.7408 175.004 49.6498 175.108C49.5609 175.209 49.5165 175.345 49.5165 175.514C49.5165 175.749 49.6033 175.927 49.7768 176.047C49.9503 176.166 50.1715 176.225 50.4403 176.225ZM54.8537 170.377V176.879H53.9045V170.377H54.8537ZM60.598 176.977C60.1175 176.977 59.7038 176.875 59.3567 176.669C59.0117 176.462 58.7451 176.171 58.5567 175.796C58.3705 175.42 58.2774 174.978 58.2774 174.473C58.2774 173.973 58.3705 173.533 58.5567 173.152C58.7451 172.771 59.0075 172.474 59.344 172.26C59.6826 172.046 60.0784 171.939 60.5313 171.939C60.8064 171.939 61.0731 171.985 61.3313 172.076C61.5895 172.167 61.8212 172.31 62.0265 172.504C62.2318 172.699 62.3937 172.952 62.5122 173.263C62.6307 173.572 62.69 173.948 62.69 174.39V174.727H58.8139V174.015H61.7598C61.7598 173.766 61.709 173.545 61.6074 173.352C61.5059 173.157 61.363 173.004 61.1789 172.892C60.9969 172.78 60.7831 172.723 60.5376 172.723C60.271 172.723 60.0382 172.789 59.8392 172.92C59.6424 173.049 59.49 173.219 59.3821 173.428C59.2763 173.636 59.2234 173.861 59.2234 174.104V174.66C59.2234 174.986 59.2805 175.263 59.3948 175.492C59.5112 175.72 59.6731 175.895 59.8805 176.015C60.0879 176.134 60.3302 176.193 60.6075 176.193C60.7874 176.193 60.9514 176.168 61.0995 176.117C61.2477 176.064 61.3757 175.986 61.4836 175.882C61.5916 175.778 61.6741 175.65 61.7313 175.498L62.6296 175.66C62.5577 175.924 62.4286 176.156 62.2424 176.355C62.0582 176.552 61.8265 176.705 61.5471 176.815C61.2699 176.923 60.9535 176.977 60.598 176.977ZM64.3788 172.003L65.455 173.901L66.5407 172.003H67.5787L66.0581 174.441L67.5914 176.879H66.5534L65.455 175.057L64.3598 176.879H63.3185L64.8359 174.441L63.3376 172.003H64.3788ZM68.5533 178.707V172.003H69.4803V172.793H69.5596C69.6146 172.692 69.694 172.574 69.7977 172.441C69.9014 172.308 70.0453 172.191 70.2294 172.092C70.4136 171.99 70.657 171.939 70.9596 171.939C71.3532 171.939 71.7045 172.039 72.0135 172.238C72.3225 172.437 72.5648 172.723 72.7405 173.098C72.9183 173.473 73.0072 173.923 73.0072 174.45C73.0072 174.977 72.9193 175.429 72.7437 175.806C72.568 176.181 72.3267 176.469 72.0199 176.673C71.713 176.874 71.3628 176.974 70.9691 176.974C70.6728 176.974 70.4305 176.924 70.2421 176.825C70.0559 176.725 69.9099 176.609 69.8041 176.476C69.6982 176.342 69.6168 176.224 69.5596 176.12H69.5025V178.707H68.5533ZM69.4834 174.441C69.4834 174.784 69.5332 175.084 69.6326 175.342C69.7321 175.601 69.876 175.803 70.0644 175.949C70.2527 176.093 70.4834 176.165 70.7564 176.165C71.04 176.165 71.277 176.09 71.4675 175.939C71.658 175.787 71.8019 175.581 71.8992 175.32C71.9987 175.06 72.0484 174.767 72.0484 174.441C72.0484 174.119 71.9998 173.83 71.9024 173.574C71.8072 173.318 71.6633 173.116 71.4707 172.968C71.2802 172.82 71.0421 172.746 70.7564 172.746C70.4813 172.746 70.2485 172.817 70.058 172.958C69.8697 173.1 69.7268 173.298 69.6295 173.552C69.5321 173.806 69.4834 174.102 69.4834 174.441ZM76.1721 176.977C75.6917 176.977 75.278 176.875 74.9309 176.669C74.5859 176.462 74.3193 176.171 74.1309 175.796C73.9447 175.42 73.8516 174.978 73.8516 174.473C73.8516 173.973 73.9447 173.533 74.1309 173.152C74.3193 172.771 74.5817 172.474 74.9182 172.26C75.2568 172.046 75.6526 171.939 76.1055 171.939C76.3806 171.939 76.6473 171.985 76.9055 172.076C77.1637 172.167 77.3954 172.31 77.6007 172.504C77.806 172.699 77.9679 172.952 78.0864 173.263C78.2049 173.572 78.2642 173.948 78.2642 174.39V174.727H74.3881V174.015H77.334C77.334 173.766 77.2832 173.545 77.1816 173.352C77.0801 173.157 76.9372 173.004 76.7531 172.892C76.5711 172.78 76.3573 172.723 76.1118 172.723C75.8452 172.723 75.6124 172.789 75.4134 172.92C75.2166 173.049 75.0642 173.219 74.9563 173.428C74.8505 173.636 74.7976 173.861 74.7976 174.104V174.66C74.7976 174.986 74.8547 175.263 74.969 175.492C75.0854 175.72 75.2473 175.895 75.4547 176.015C75.6621 176.134 75.9044 176.193 76.1817 176.193C76.3616 176.193 76.5256 176.168 76.6737 176.117C76.8219 176.064 76.9499 175.986 77.0578 175.882C77.1658 175.778 77.2483 175.65 77.3055 175.498L78.2038 175.66C78.1319 175.924 78.0028 176.156 77.8166 176.355C77.6324 176.552 77.4007 176.705 77.1213 176.815C76.8441 176.923 76.5277 176.977 76.1721 176.977ZM80.2665 173.984V176.879H79.3173V172.003H80.2284V172.796H80.2887C80.4009 172.538 80.5765 172.331 80.8157 172.174C81.0569 172.018 81.3606 171.939 81.7268 171.939C82.059 171.939 82.35 172.009 82.5998 172.149C82.8495 172.286 83.0431 172.492 83.1807 172.765C83.3183 173.038 83.387 173.375 83.387 173.777V176.879H82.4379V173.892C82.4379 173.538 82.3458 173.262 82.1617 173.063C81.9776 172.862 81.7246 172.762 81.403 172.762C81.1829 172.762 80.9871 172.809 80.8157 172.904C80.6464 173 80.512 173.139 80.4125 173.323C80.3152 173.505 80.2665 173.726 80.2665 173.984ZM88.3139 173.193L87.4536 173.346C87.4176 173.236 87.3605 173.131 87.2822 173.031C87.206 172.932 87.1023 172.85 86.9711 172.787C86.8399 172.723 86.6758 172.692 86.479 172.692C86.2102 172.692 85.9859 172.752 85.806 172.873C85.6261 172.991 85.5362 173.145 85.5362 173.333C85.5362 173.496 85.5965 173.627 85.7171 173.727C85.8378 173.826 86.0325 173.908 86.3013 173.971L87.0758 174.149C87.5245 174.253 87.8589 174.412 88.079 174.628C88.2991 174.844 88.4091 175.124 88.4091 175.469C88.4091 175.761 88.3245 176.022 88.1552 176.25C87.988 176.477 87.7541 176.655 87.4536 176.784C87.1552 176.913 86.8092 176.977 86.4155 176.977C85.8695 176.977 85.424 176.861 85.0791 176.628C84.7341 176.393 84.5225 176.06 84.4442 175.628L85.3616 175.488C85.4187 175.728 85.5362 175.909 85.714 176.031C85.8917 176.152 86.1235 176.212 86.4092 176.212C86.7203 176.212 86.969 176.148 87.1552 176.019C87.3414 175.887 87.4346 175.728 87.4346 175.539C87.4346 175.387 87.3774 175.259 87.2631 175.155C87.151 175.051 86.9785 174.973 86.7457 174.92L85.9203 174.739C85.4653 174.636 85.1288 174.471 84.9108 174.244C84.6949 174.018 84.587 173.731 84.587 173.384C84.587 173.096 84.6674 172.844 84.8283 172.628C84.9891 172.412 85.2113 172.244 85.4949 172.123C85.7785 172.001 86.1034 171.939 86.4695 171.939C86.9965 171.939 87.4113 172.054 87.7139 172.282C88.0166 172.509 88.2165 172.812 88.3139 173.193ZM91.5543 176.977C91.0739 176.977 90.6601 176.875 90.3131 176.669C89.9681 176.462 89.7014 176.171 89.5131 175.796C89.3268 175.42 89.2337 174.978 89.2337 174.473C89.2337 173.973 89.3268 173.533 89.5131 173.152C89.7014 172.771 89.9639 172.474 90.3004 172.26C90.639 172.046 91.0347 171.939 91.4876 171.939C91.7627 171.939 92.0294 171.985 92.2876 172.076C92.5458 172.167 92.7775 172.31 92.9828 172.504C93.1881 172.699 93.35 172.952 93.4685 173.263C93.587 173.572 93.6463 173.948 93.6463 174.39V174.727H89.7702V174.015H92.7162C92.7162 173.766 92.6654 173.545 92.5638 173.352C92.4622 173.157 92.3193 173.004 92.1352 172.892C91.9532 172.78 91.7395 172.723 91.494 172.723C91.2273 172.723 90.9945 172.789 90.7956 172.92C90.5988 173.049 90.4464 173.219 90.3384 173.428C90.2326 173.636 90.1797 173.861 90.1797 174.104V174.66C90.1797 174.986 90.2369 175.263 90.3511 175.492C90.4675 175.72 90.6294 175.895 90.8368 176.015C91.0442 176.134 91.2866 176.193 91.5638 176.193C91.7437 176.193 91.9077 176.168 92.0559 176.117C92.204 176.064 92.332 175.986 92.44 175.882C92.5479 175.778 92.6305 175.65 92.6876 175.498L93.586 175.66C93.514 175.924 93.3849 176.156 93.1987 176.355C93.0146 176.552 92.7828 176.705 92.5035 176.815C92.2262 176.923 91.9098 176.977 91.5543 176.977Z" fill="#333333"/>
<rect x="35.0752" y="183.84" width="305.87" height="20.5588" rx="2.17968" fill="#F7F7F7"/>
<path d="M48.7891 191.124V197.465H47.9098L44.6868 192.814H44.6279V197.465H43.6712V191.124H44.5567L47.7829 195.781H47.8417V191.124H48.7891ZM53.123 195.493V192.709H54.0518V197.465H53.1415V196.641H53.092C52.9826 196.895 52.8072 197.107 52.5657 197.276C52.3262 197.443 52.028 197.527 51.6709 197.527C51.3654 197.527 51.095 197.46 50.8597 197.326C50.6264 197.189 50.4427 196.988 50.3086 196.722C50.1765 196.456 50.1104 196.126 50.1104 195.734V192.709H51.0362V195.623C51.0362 195.947 51.126 196.205 51.3055 196.397C51.4851 196.589 51.7184 196.685 52.0053 196.685C52.1786 196.685 52.351 196.641 52.5223 196.555C52.6957 196.468 52.8392 196.337 52.9527 196.161C53.0683 195.986 53.125 195.763 53.123 195.493ZM55.2957 197.465V192.709H56.1843V193.483H56.2431C56.3422 193.221 56.5042 193.017 56.7292 192.87C56.9542 192.722 57.2235 192.647 57.5373 192.647C57.8551 192.647 58.1214 192.722 58.3361 192.87C58.5528 193.019 58.7128 193.223 58.816 193.483H58.8655C58.979 193.229 59.1597 193.027 59.4073 192.876C59.655 192.724 59.9502 192.647 60.2928 192.647C60.7242 192.647 61.0762 192.782 61.3486 193.053C61.6231 193.323 61.7604 193.731 61.7604 194.276V197.465H60.8347V194.363C60.8347 194.041 60.7469 193.807 60.5715 193.663C60.396 193.518 60.1865 193.446 59.943 193.446C59.6416 193.446 59.4073 193.539 59.2402 193.725C59.073 193.908 58.9894 194.145 58.9894 194.434V197.465H58.0667V194.304C58.0667 194.046 57.9862 193.838 57.8252 193.681C57.6642 193.524 57.4547 193.446 57.1967 193.446C57.0213 193.446 56.8592 193.493 56.7106 193.585C56.5641 193.676 56.4454 193.803 56.3546 193.966C56.2658 194.129 56.2214 194.318 56.2214 194.533V197.465H55.2957ZM63.0755 197.465V191.124H64.0012V193.48H64.057C64.1106 193.381 64.188 193.266 64.2892 193.136C64.3903 193.006 64.5307 192.893 64.7102 192.796C64.8898 192.697 65.1272 192.647 65.4224 192.647C65.8063 192.647 66.1489 192.744 66.4503 192.938C66.7516 193.132 66.988 193.412 67.1593 193.777C67.3327 194.143 67.4194 194.582 67.4194 195.096C67.4194 195.61 67.3337 196.051 67.1624 196.418C66.9911 196.784 66.7558 197.065 66.4565 197.264C66.1572 197.46 65.8156 197.558 65.4316 197.558C65.1427 197.558 64.9063 197.509 64.7226 197.412C64.541 197.315 64.3986 197.202 64.2954 197.072C64.1922 196.942 64.1127 196.826 64.057 196.725H63.9796V197.465H63.0755ZM63.9827 195.087C63.9827 195.421 64.0312 195.714 64.1282 195.966C64.2252 196.218 64.3655 196.415 64.5492 196.558C64.733 196.698 64.9579 196.768 65.2242 196.768C65.5008 196.768 65.732 196.695 65.9177 196.548C66.1035 196.4 66.2439 196.199 66.3388 195.945C66.4358 195.691 66.4843 195.405 66.4843 195.087C66.4843 194.773 66.4369 194.492 66.3419 194.242C66.249 193.992 66.1087 193.795 65.9208 193.65C65.7351 193.506 65.5029 193.434 65.2242 193.434C64.9559 193.434 64.7288 193.503 64.5431 193.641C64.3594 193.779 64.22 193.972 64.1251 194.22C64.0301 194.468 63.9827 194.757 63.9827 195.087ZM70.5085 197.561C70.04 197.561 69.6365 197.461 69.2979 197.26C68.9615 197.058 68.7014 196.774 68.5177 196.409C68.3361 196.042 68.2453 195.611 68.2453 195.118C68.2453 194.631 68.3361 194.202 68.5177 193.83C68.7014 193.458 68.9574 193.168 69.2856 192.96C69.6158 192.751 70.0018 192.647 70.4435 192.647C70.7118 192.647 70.9719 192.692 71.2237 192.78C71.4756 192.869 71.7016 193.008 71.9018 193.198C72.102 193.388 72.2599 193.635 72.3755 193.938C72.4911 194.24 72.5489 194.606 72.5489 195.037V195.366H68.7685V194.672H71.6417C71.6417 194.429 71.5922 194.213 71.4931 194.025C71.394 193.835 71.2547 193.685 71.0751 193.576C70.8976 193.467 70.6891 193.412 70.4497 193.412C70.1896 193.412 69.9626 193.476 69.7686 193.604C69.5766 193.73 69.428 193.895 69.3227 194.099C69.2195 194.302 69.1679 194.521 69.1679 194.759V195.301C69.1679 195.619 69.2236 195.889 69.3351 196.112C69.4486 196.335 69.6065 196.505 69.8088 196.623C70.0111 196.738 70.2474 196.796 70.5178 196.796C70.6933 196.796 70.8532 196.771 70.9977 196.722C71.1422 196.67 71.2671 196.594 71.3724 196.493C71.4776 196.392 71.5581 196.267 71.6139 196.118L72.4901 196.276C72.4199 196.534 72.294 196.76 72.1123 196.954C71.9328 197.146 71.7067 197.296 71.4343 197.403C71.1639 197.508 70.8553 197.561 70.5085 197.561ZM73.576 197.465V192.709H74.4708V193.465H74.5203C74.607 193.209 74.7598 193.007 74.9786 192.861C75.1994 192.712 75.4492 192.638 75.7278 192.638C75.7856 192.638 75.8537 192.64 75.9322 192.644C76.0127 192.648 76.0756 192.653 76.121 192.66V193.545C76.0839 193.535 76.0178 193.523 75.9229 193.511C75.8279 193.497 75.733 193.489 75.638 193.489C75.4193 193.489 75.2242 193.536 75.0529 193.629C74.8836 193.72 74.7495 193.846 74.6504 194.01C74.5513 194.171 74.5018 194.354 74.5018 194.561V197.465H73.576ZM81.2328 197.561C80.7869 197.561 80.3978 197.459 80.0655 197.254C79.7332 197.05 79.4752 196.764 79.2915 196.397C79.1078 196.029 79.0159 195.6 79.0159 195.109C79.0159 194.615 79.1078 194.184 79.2915 193.815C79.4752 193.445 79.7332 193.158 80.0655 192.954C80.3978 192.749 80.7869 192.647 81.2328 192.647C81.6786 192.647 82.0677 192.749 82.4 192.954C82.7323 193.158 82.9903 193.445 83.174 193.815C83.3577 194.184 83.4496 194.615 83.4496 195.109C83.4496 195.6 83.3577 196.029 83.174 196.397C82.9903 196.764 82.7323 197.05 82.4 197.254C82.0677 197.459 81.6786 197.561 81.2328 197.561ZM81.2359 196.784C81.5248 196.784 81.7643 196.707 81.9542 196.555C82.1441 196.402 82.2844 196.199 82.3752 195.945C82.4681 195.691 82.5146 195.411 82.5146 195.106C82.5146 194.802 82.4681 194.524 82.3752 194.27C82.2844 194.014 82.1441 193.808 81.9542 193.654C81.7643 193.499 81.5248 193.421 81.2359 193.421C80.9448 193.421 80.7033 193.499 80.5114 193.654C80.3215 193.808 80.1801 194.014 80.0872 194.27C79.9964 194.524 79.951 194.802 79.951 195.106C79.951 195.411 79.9964 195.691 80.0872 195.945C80.1801 196.199 80.3215 196.402 80.5114 196.555C80.7033 196.707 80.9448 196.784 81.2359 196.784ZM86.7462 192.709V193.452H84.0588V192.709H86.7462ZM84.7956 197.465V192.158C84.7956 191.861 84.8607 191.614 84.9907 191.418C85.1207 191.22 85.2931 191.072 85.5078 190.975C85.7224 190.876 85.9557 190.827 86.2075 190.827C86.3932 190.827 86.5522 190.842 86.6843 190.873C86.8164 190.902 86.9144 190.929 86.9784 190.954L86.7617 191.703C86.7183 191.691 86.6626 191.676 86.5945 191.66C86.5264 191.641 86.4438 191.632 86.3468 191.632C86.1218 191.632 85.9608 191.687 85.8638 191.799C85.7689 191.91 85.7214 192.071 85.7214 192.282V197.465H84.7956ZM92.2287 192.709V193.452H89.631V192.709H92.2287ZM90.3277 191.57H91.2534V196.068C91.2534 196.248 91.2802 196.383 91.3339 196.474C91.3876 196.563 91.4567 196.624 91.5413 196.657C91.628 196.688 91.7219 196.703 91.8231 196.703C91.8974 196.703 91.9624 196.698 92.0181 196.688C92.0739 196.677 92.1172 196.669 92.1482 196.663L92.3154 197.428C92.2617 197.448 92.1853 197.469 92.0863 197.49C91.9872 197.512 91.8633 197.525 91.7147 197.527C91.4712 197.531 91.2441 197.488 91.0336 197.397C90.823 197.306 90.6528 197.166 90.5227 196.976C90.3927 196.786 90.3277 196.547 90.3277 196.26V191.57ZM93.2527 197.465V192.709H94.1475V193.465H94.1971C94.2837 193.209 94.4365 193.007 94.6553 192.861C94.8761 192.712 95.1259 192.638 95.4045 192.638C95.4623 192.638 95.5305 192.64 95.6089 192.644C95.6894 192.648 95.7523 192.653 95.7978 192.66V193.545C95.7606 193.535 95.6946 193.523 95.5996 193.511C95.5047 193.497 95.4097 193.489 95.3148 193.489C95.096 193.489 94.9009 193.536 94.7296 193.629C94.5603 193.72 94.4262 193.846 94.3271 194.01C94.228 194.171 94.1785 194.354 94.1785 194.561V197.465H93.2527ZM97.9403 197.57C97.6389 197.57 97.3665 197.514 97.1229 197.403C96.8793 197.289 96.6863 197.125 96.5439 196.911C96.4036 196.696 96.3334 196.433 96.3334 196.121C96.3334 195.853 96.385 195.632 96.4882 195.459C96.5914 195.285 96.7307 195.148 96.9062 195.047C97.0816 194.946 97.2777 194.869 97.4944 194.818C97.7112 194.766 97.932 194.727 98.157 194.7C98.4419 194.667 98.673 194.64 98.8505 194.619C99.0281 194.597 99.1571 194.561 99.2376 194.511C99.3181 194.462 99.3583 194.381 99.3583 194.27V194.248C99.3583 193.978 99.2819 193.768 99.1292 193.619C98.9785 193.471 98.7535 193.397 98.4542 193.397C98.1426 193.397 97.8969 193.466 97.7174 193.604C97.5398 193.74 97.417 193.892 97.3489 194.059L96.4789 193.861C96.5821 193.572 96.7328 193.339 96.9309 193.161C97.1312 192.982 97.3613 192.852 97.6214 192.771C97.8815 192.689 98.1549 192.647 98.4419 192.647C98.6317 192.647 98.833 192.67 99.0456 192.715C99.2603 192.759 99.4605 192.839 99.6462 192.957C99.8341 193.075 99.9879 193.243 100.108 193.462C100.227 193.678 100.287 193.96 100.287 194.307V197.465H99.3831V196.815H99.3459C99.2861 196.934 99.1963 197.052 99.0766 197.168C98.9568 197.283 98.8031 197.379 98.6152 197.456C98.4274 197.532 98.2024 197.57 97.9403 197.57ZM98.1415 196.827C98.3975 196.827 98.6163 196.776 98.7979 196.675C98.9816 196.574 99.1209 196.442 99.2159 196.279C99.3129 196.114 99.3614 195.937 99.3614 195.75V195.137C99.3284 195.17 99.2644 195.201 99.1694 195.229C99.0766 195.256 98.9703 195.28 98.8505 195.301C98.7308 195.319 98.6142 195.337 98.5007 195.353C98.3872 195.368 98.2922 195.38 98.2158 195.39C98.0363 195.413 97.8722 195.451 97.7235 195.505C97.577 195.559 97.4593 195.636 97.3706 195.737C97.2839 195.836 97.2406 195.968 97.2406 196.134C97.2406 196.363 97.3252 196.536 97.4944 196.654C97.6637 196.769 97.8794 196.827 98.1415 196.827ZM105.418 192.709L103.694 197.465H102.703L100.975 192.709H101.969L103.174 196.369H103.223L104.424 192.709H105.418ZM108.176 197.561C107.708 197.561 107.304 197.461 106.966 197.26C106.629 197.058 106.369 196.774 106.185 196.409C106.004 196.042 105.913 195.611 105.913 195.118C105.913 194.631 106.004 194.202 106.185 193.83C106.369 193.458 106.625 193.168 106.953 192.96C107.283 192.751 107.669 192.647 108.111 192.647C108.379 192.647 108.639 192.692 108.891 192.78C109.143 192.869 109.369 193.008 109.569 193.198C109.77 193.388 109.927 193.635 110.043 193.938C110.159 194.24 110.216 194.606 110.216 195.037V195.366H106.436V194.672H109.309C109.309 194.429 109.26 194.213 109.161 194.025C109.062 193.835 108.922 193.685 108.743 193.576C108.565 193.467 108.357 193.412 108.117 193.412C107.857 193.412 107.63 193.476 107.436 193.604C107.244 193.73 107.096 193.895 106.99 194.099C106.887 194.302 106.835 194.521 106.835 194.759V195.301C106.835 195.619 106.891 195.889 107.003 196.112C107.116 196.335 107.274 196.505 107.476 196.623C107.679 196.738 107.915 196.796 108.185 196.796C108.361 196.796 108.521 196.771 108.665 196.722C108.81 196.67 108.935 196.594 109.04 196.493C109.145 196.392 109.226 196.267 109.281 196.118L110.158 196.276C110.087 196.534 109.962 196.76 109.78 196.954C109.6 197.146 109.374 197.296 109.102 197.403C108.831 197.508 108.523 197.561 108.176 197.561ZM112.169 191.124V197.465H111.244V191.124H112.169ZM114.341 191.124V197.465H113.415V191.124H114.341ZM117.636 197.561C117.167 197.561 116.763 197.461 116.425 197.26C116.089 197.058 115.828 196.774 115.645 196.409C115.463 196.042 115.372 195.611 115.372 195.118C115.372 194.631 115.463 194.202 115.645 193.83C115.828 193.458 116.084 193.168 116.413 192.96C116.743 192.751 117.129 192.647 117.571 192.647C117.839 192.647 118.099 192.692 118.351 192.78C118.603 192.869 118.829 193.008 119.029 193.198C119.229 193.388 119.387 193.635 119.503 193.938C119.618 194.24 119.676 194.606 119.676 195.037V195.366H115.896V194.672H118.769C118.769 194.429 118.719 194.213 118.62 194.025C118.521 193.835 118.382 193.685 118.202 193.576C118.025 193.467 117.816 193.412 117.577 193.412C117.317 193.412 117.09 193.476 116.896 193.604C116.704 193.73 116.555 193.895 116.45 194.099C116.347 194.302 116.295 194.521 116.295 194.759V195.301C116.295 195.619 116.351 195.889 116.462 196.112C116.576 196.335 116.734 196.505 116.936 196.623C117.138 196.738 117.374 196.796 117.645 196.796C117.82 196.796 117.98 196.771 118.125 196.722C118.269 196.67 118.394 196.594 118.499 196.493C118.605 196.392 118.685 196.267 118.741 196.118L119.617 196.276C119.547 196.534 119.421 196.76 119.239 196.954C119.06 197.146 118.834 197.296 118.561 197.403C118.291 197.508 117.982 197.561 117.636 197.561ZM120.703 197.465V192.709H121.598V193.465H121.647C121.734 193.209 121.887 193.007 122.106 192.861C122.326 192.712 122.576 192.638 122.855 192.638C122.913 192.638 122.981 192.64 123.059 192.644C123.14 192.648 123.203 192.653 123.248 192.66V193.545C123.211 193.535 123.145 193.523 123.05 193.511C122.955 193.497 122.86 193.489 122.765 193.489C122.546 193.489 122.351 193.536 122.18 193.629C122.011 193.72 121.876 193.846 121.777 194.01C121.678 194.171 121.629 194.354 121.629 194.561V197.465H120.703ZM127.613 193.87L126.774 194.019C126.739 193.912 126.683 193.809 126.607 193.712C126.532 193.615 126.431 193.536 126.303 193.474C126.175 193.412 126.015 193.381 125.823 193.381C125.561 193.381 125.342 193.44 125.167 193.558C124.991 193.673 124.904 193.823 124.904 194.006C124.904 194.165 124.963 194.293 125.08 194.39C125.198 194.487 125.388 194.567 125.65 194.629L126.405 194.802C126.843 194.903 127.169 195.059 127.384 195.27C127.598 195.48 127.706 195.754 127.706 196.09C127.706 196.375 127.623 196.629 127.458 196.852C127.295 197.073 127.067 197.246 126.774 197.372C126.483 197.498 126.145 197.561 125.761 197.561C125.229 197.561 124.794 197.447 124.458 197.22C124.121 196.991 123.915 196.666 123.839 196.245L124.733 196.109C124.789 196.342 124.904 196.518 125.077 196.638C125.251 196.756 125.477 196.815 125.755 196.815C126.059 196.815 126.301 196.752 126.483 196.626C126.664 196.498 126.755 196.342 126.755 196.158C126.755 196.01 126.699 195.885 126.588 195.784C126.479 195.683 126.31 195.606 126.083 195.555L125.278 195.378C124.835 195.277 124.506 195.116 124.294 194.895C124.083 194.674 123.978 194.395 123.978 194.056C123.978 193.775 124.056 193.53 124.213 193.319C124.37 193.109 124.587 192.944 124.863 192.827C125.14 192.707 125.457 192.647 125.814 192.647C126.328 192.647 126.733 192.759 127.028 192.982C127.323 193.202 127.518 193.499 127.613 193.87ZM134.078 191.124L135.595 193.604H135.645L137.162 191.124H138.271L136.295 194.294L138.283 197.465H137.168L135.645 195.019H135.595L134.072 197.465H132.958L134.979 194.294L132.97 191.124H134.078ZM149.101 193.186H148.135C148.098 192.98 148.029 192.798 147.927 192.641C147.826 192.484 147.702 192.351 147.556 192.242C147.409 192.132 147.245 192.05 147.064 191.994C146.884 191.938 146.693 191.91 146.491 191.91C146.125 191.91 145.798 192.002 145.509 192.186C145.222 192.37 144.995 192.639 144.828 192.994C144.663 193.349 144.58 193.783 144.58 194.294C144.58 194.81 144.663 195.246 144.828 195.601C144.995 195.956 145.223 196.224 145.512 196.406C145.801 196.588 146.126 196.678 146.488 196.678C146.688 196.678 146.878 196.652 147.057 196.598C147.239 196.542 147.403 196.461 147.55 196.353C147.696 196.246 147.82 196.115 147.921 195.96C148.024 195.803 148.096 195.624 148.135 195.421L149.101 195.424C149.049 195.736 148.949 196.023 148.8 196.285C148.654 196.545 148.465 196.77 148.234 196.96C148.005 197.148 147.743 197.294 147.447 197.397C147.152 197.5 146.83 197.552 146.481 197.552C145.932 197.552 145.443 197.421 145.014 197.161C144.585 196.899 144.246 196.525 143.998 196.038C143.753 195.55 143.63 194.969 143.63 194.294C143.63 193.617 143.754 193.036 144.001 192.551C144.249 192.064 144.588 191.691 145.017 191.43C145.446 191.168 145.934 191.037 146.481 191.037C146.818 191.037 147.132 191.086 147.423 191.183C147.716 191.278 147.979 191.418 148.212 191.604C148.445 191.788 148.638 192.013 148.791 192.279C148.944 192.543 149.047 192.845 149.101 193.186ZM152.174 197.561C151.729 197.561 151.34 197.459 151.007 197.254C150.675 197.05 150.417 196.764 150.233 196.397C150.05 196.029 149.958 195.6 149.958 195.109C149.958 194.615 150.05 194.184 150.233 193.815C150.417 193.445 150.675 193.158 151.007 192.954C151.34 192.749 151.729 192.647 152.174 192.647C152.62 192.647 153.009 192.749 153.342 192.954C153.674 193.158 153.932 193.445 154.116 193.815C154.299 194.184 154.391 194.615 154.391 195.109C154.391 195.6 154.299 196.029 154.116 196.397C153.932 196.764 153.674 197.05 153.342 197.254C153.009 197.459 152.62 197.561 152.174 197.561ZM152.178 196.784C152.467 196.784 152.706 196.707 152.896 196.555C153.086 196.402 153.226 196.199 153.317 195.945C153.41 195.691 153.456 195.411 153.456 195.106C153.456 194.802 153.41 194.524 153.317 194.27C153.226 194.014 153.086 193.808 152.896 193.654C152.706 193.499 152.467 193.421 152.178 193.421C151.887 193.421 151.645 193.499 151.453 193.654C151.263 193.808 151.122 194.014 151.029 194.27C150.938 194.524 150.893 194.802 150.893 195.106C150.893 195.411 150.938 195.691 151.029 195.945C151.122 196.199 151.263 196.402 151.453 196.555C151.645 196.707 151.887 196.784 152.178 196.784ZM158.988 193.87L158.149 194.019C158.114 193.912 158.058 193.809 157.982 193.712C157.908 193.615 157.807 193.536 157.679 193.474C157.551 193.412 157.391 193.381 157.199 193.381C156.937 193.381 156.718 193.44 156.542 193.558C156.367 193.673 156.279 193.823 156.279 194.006C156.279 194.165 156.338 194.293 156.456 194.39C156.573 194.487 156.763 194.567 157.025 194.629L157.781 194.802C158.218 194.903 158.545 195.059 158.759 195.27C158.974 195.48 159.081 195.754 159.081 196.09C159.081 196.375 158.999 196.629 158.833 196.852C158.67 197.073 158.442 197.246 158.149 197.372C157.858 197.498 157.521 197.561 157.137 197.561C156.604 197.561 156.17 197.447 155.833 197.22C155.497 196.991 155.29 196.666 155.214 196.245L156.109 196.109C156.165 196.342 156.279 196.518 156.453 196.638C156.626 196.756 156.852 196.815 157.131 196.815C157.434 196.815 157.677 196.752 157.858 196.626C158.04 196.498 158.131 196.342 158.131 196.158C158.131 196.01 158.075 195.885 157.963 195.784C157.854 195.683 157.686 195.606 157.459 195.555L156.654 195.378C156.21 195.277 155.882 195.116 155.669 194.895C155.459 194.674 155.353 194.395 155.353 194.056C155.353 193.775 155.432 193.53 155.589 193.319C155.746 193.109 155.962 192.944 156.239 192.827C156.516 192.707 156.832 192.647 157.189 192.647C157.703 192.647 158.108 192.759 158.403 192.982C158.698 193.202 158.893 193.499 158.988 193.87ZM162.319 192.709V193.452H159.721V192.709H162.319ZM160.418 191.57H161.344V196.068C161.344 196.248 161.371 196.383 161.424 196.474C161.478 196.563 161.547 196.624 161.632 196.657C161.718 196.688 161.812 196.703 161.913 196.703C161.988 196.703 162.053 196.698 162.108 196.688C162.164 196.677 162.208 196.669 162.238 196.663L162.406 197.428C162.352 197.448 162.276 197.469 162.177 197.49C162.077 197.512 161.954 197.525 161.805 197.527C161.561 197.531 161.334 197.488 161.124 197.397C160.913 197.306 160.743 197.166 160.613 196.976C160.483 196.786 160.418 196.547 160.418 196.26V191.57ZM165.65 199.248V192.709H166.554V193.48H166.632C166.686 193.381 166.763 193.266 166.864 193.136C166.965 193.006 167.106 192.893 167.285 192.796C167.465 192.697 167.702 192.647 167.997 192.647C168.381 192.647 168.724 192.744 169.025 192.938C169.327 193.132 169.563 193.412 169.734 193.777C169.908 194.143 169.994 194.582 169.994 195.096C169.994 195.61 169.909 196.051 169.737 196.418C169.566 196.784 169.331 197.065 169.031 197.264C168.732 197.46 168.39 197.558 168.007 197.558C167.718 197.558 167.481 197.509 167.298 197.412C167.116 197.315 166.973 197.202 166.87 197.072C166.767 196.942 166.688 196.826 166.632 196.725H166.576V199.248H165.65ZM166.558 195.087C166.558 195.421 166.606 195.714 166.703 195.966C166.8 196.218 166.94 196.415 167.124 196.558C167.308 196.698 167.533 196.768 167.799 196.768C168.076 196.768 168.307 196.695 168.493 196.548C168.678 196.4 168.819 196.199 168.914 195.945C169.011 195.691 169.059 195.405 169.059 195.087C169.059 194.773 169.012 194.492 168.917 194.242C168.824 193.992 168.684 193.795 168.496 193.65C168.31 193.506 168.078 193.434 167.799 193.434C167.531 193.434 167.304 193.503 167.118 193.641C166.934 193.779 166.795 193.972 166.7 194.22C166.605 194.468 166.558 194.757 166.558 195.087ZM173.081 197.561C172.613 197.561 172.209 197.461 171.871 197.26C171.534 197.058 171.274 196.774 171.09 196.409C170.909 196.042 170.818 195.611 170.818 195.118C170.818 194.631 170.909 194.202 171.09 193.83C171.274 193.458 171.53 193.168 171.858 192.96C172.188 192.751 172.574 192.647 173.016 192.647C173.284 192.647 173.545 192.692 173.796 192.78C174.048 192.869 174.274 193.008 174.474 193.198C174.675 193.388 174.833 193.635 174.948 193.938C175.064 194.24 175.121 194.606 175.121 195.037V195.366H171.341V194.672H174.214C174.214 194.429 174.165 194.213 174.066 194.025C173.967 193.835 173.827 193.685 173.648 193.576C173.47 193.467 173.262 193.412 173.022 193.412C172.762 193.412 172.535 193.476 172.341 193.604C172.149 193.73 172.001 193.895 171.895 194.099C171.792 194.302 171.741 194.521 171.741 194.759V195.301C171.741 195.619 171.796 195.889 171.908 196.112C172.021 196.335 172.179 196.505 172.381 196.623C172.584 196.738 172.82 196.796 173.09 196.796C173.266 196.796 173.426 196.771 173.57 196.722C173.715 196.67 173.84 196.594 173.945 196.493C174.05 196.392 174.131 196.267 174.186 196.118L175.063 196.276C174.992 196.534 174.867 196.76 174.685 196.954C174.505 197.146 174.279 197.296 174.007 197.403C173.736 197.508 173.428 197.561 173.081 197.561ZM176.149 197.465V192.709H177.043V193.465H177.093C177.18 193.209 177.332 193.007 177.551 192.861C177.772 192.712 178.022 192.638 178.3 192.638C178.358 192.638 178.426 192.64 178.505 192.644C178.585 192.648 178.648 192.653 178.694 192.66V193.545C178.656 193.535 178.59 193.523 178.495 193.511C178.401 193.497 178.306 193.489 178.211 193.489C177.992 193.489 177.797 193.536 177.625 193.629C177.456 193.72 177.322 193.846 177.223 194.01C177.124 194.171 177.074 194.354 177.074 194.561V197.465H176.149ZM181.802 199.248V192.709H182.706V193.48H182.784C182.837 193.381 182.915 193.266 183.016 193.136C183.117 193.006 183.257 192.893 183.437 192.796C183.616 192.697 183.854 192.647 184.149 192.647C184.533 192.647 184.876 192.744 185.177 192.938C185.478 193.132 185.715 193.412 185.886 193.777C186.059 194.143 186.146 194.582 186.146 195.096C186.146 195.61 186.06 196.051 185.889 196.418C185.718 196.784 185.482 197.065 185.183 197.264C184.884 197.46 184.542 197.558 184.158 197.558C183.869 197.558 183.633 197.509 183.449 197.412C183.268 197.315 183.125 197.202 183.022 197.072C182.919 196.942 182.839 196.826 182.784 196.725H182.728V199.248H181.802ZM182.709 195.087C182.709 195.421 182.758 195.714 182.855 195.966C182.952 196.218 183.092 196.415 183.276 196.558C183.46 196.698 183.685 196.768 183.951 196.768C184.227 196.768 184.459 196.695 184.644 196.548C184.83 196.4 184.971 196.199 185.065 195.945C185.163 195.691 185.211 195.405 185.211 195.087C185.211 194.773 185.164 194.492 185.069 194.242C184.976 193.992 184.835 193.795 184.648 193.65C184.462 193.506 184.23 193.434 183.951 193.434C183.683 193.434 183.455 193.503 183.27 193.641C183.086 193.779 182.947 193.972 182.852 194.22C182.757 194.468 182.709 194.757 182.709 195.087ZM189.233 197.561C188.764 197.561 188.361 197.461 188.022 197.26C187.686 197.058 187.426 196.774 187.242 196.409C187.06 196.042 186.97 195.611 186.97 195.118C186.97 194.631 187.06 194.202 187.242 193.83C187.426 193.458 187.682 193.168 188.01 192.96C188.34 192.751 188.726 192.647 189.168 192.647C189.436 192.647 189.696 192.692 189.948 192.78C190.2 192.869 190.426 193.008 190.626 193.198C190.826 193.388 190.984 193.635 191.1 193.938C191.215 194.24 191.273 194.606 191.273 195.037V195.366H187.493V194.672H190.366C190.366 194.429 190.317 194.213 190.217 194.025C190.118 193.835 189.979 193.685 189.799 193.576C189.622 193.467 189.413 193.412 189.174 193.412C188.914 193.412 188.687 193.476 188.493 193.604C188.301 193.73 188.152 193.895 188.047 194.099C187.944 194.302 187.892 194.521 187.892 194.759V195.301C187.892 195.619 187.948 195.889 188.059 196.112C188.173 196.335 188.331 196.505 188.533 196.623C188.735 196.738 188.972 196.796 189.242 196.796C189.418 196.796 189.578 196.771 189.722 196.722C189.867 196.67 189.991 196.594 190.097 196.493C190.202 196.392 190.282 196.267 190.338 196.118L191.214 196.276C191.144 196.534 191.018 196.76 190.837 196.954C190.657 197.146 190.431 197.296 190.159 197.403C189.888 197.508 189.58 197.561 189.233 197.561ZM192.3 197.465V192.709H193.195V193.465H193.245C193.331 193.209 193.484 193.007 193.703 192.861C193.924 192.712 194.174 192.638 194.452 192.638C194.51 192.638 194.578 192.64 194.657 192.644C194.737 192.648 194.8 192.653 194.845 192.66V193.545C194.808 193.535 194.742 193.523 194.647 193.511C194.552 193.497 194.457 193.489 194.362 193.489C194.144 193.489 193.949 193.536 193.777 193.629C193.608 193.72 193.474 193.846 193.375 194.01C193.276 194.171 193.226 194.354 193.226 194.561V197.465H192.3ZM199.21 193.87L198.371 194.019C198.336 193.912 198.28 193.809 198.204 193.712C198.13 193.615 198.028 193.536 197.901 193.474C197.773 193.412 197.613 193.381 197.421 193.381C197.158 193.381 196.94 193.44 196.764 193.558C196.589 193.673 196.501 193.823 196.501 194.006C196.501 194.165 196.56 194.293 196.678 194.39C196.795 194.487 196.985 194.567 197.247 194.629L198.003 194.802C198.44 194.903 198.766 195.059 198.981 195.27C199.196 195.48 199.303 195.754 199.303 196.09C199.303 196.375 199.22 196.629 199.055 196.852C198.892 197.073 198.664 197.246 198.371 197.372C198.08 197.498 197.743 197.561 197.359 197.561C196.826 197.561 196.392 197.447 196.055 197.22C195.719 196.991 195.512 196.666 195.436 196.245L196.331 196.109C196.386 196.342 196.501 196.518 196.674 196.638C196.848 196.756 197.074 196.815 197.352 196.815C197.656 196.815 197.898 196.752 198.08 196.626C198.262 196.498 198.353 196.342 198.353 196.158C198.353 196.01 198.297 195.885 198.185 195.784C198.076 195.683 197.908 195.606 197.681 195.555L196.876 195.378C196.432 195.277 196.104 195.116 195.891 194.895C195.681 194.674 195.575 194.395 195.575 194.056C195.575 193.775 195.654 193.53 195.811 193.319C195.967 193.109 196.184 192.944 196.461 192.827C196.737 192.707 197.054 192.647 197.411 192.647C197.925 192.647 198.33 192.759 198.625 192.982C198.92 193.202 199.115 193.499 199.21 193.87ZM202.324 197.561C201.878 197.561 201.489 197.459 201.157 197.254C200.825 197.05 200.567 196.764 200.383 196.397C200.199 196.029 200.107 195.6 200.107 195.109C200.107 194.615 200.199 194.184 200.383 193.815C200.567 193.445 200.825 193.158 201.157 192.954C201.489 192.749 201.878 192.647 202.324 192.647C202.77 192.647 203.159 192.749 203.491 192.954C203.824 193.158 204.082 193.445 204.265 193.815C204.449 194.184 204.541 194.615 204.541 195.109C204.541 195.6 204.449 196.029 204.265 196.397C204.082 196.764 203.824 197.05 203.491 197.254C203.159 197.459 202.77 197.561 202.324 197.561ZM202.327 196.784C202.616 196.784 202.856 196.707 203.046 196.555C203.235 196.402 203.376 196.199 203.467 195.945C203.559 195.691 203.606 195.411 203.606 195.106C203.606 194.802 203.559 194.524 203.467 194.27C203.376 194.014 203.235 193.808 203.046 193.654C202.856 193.499 202.616 193.421 202.327 193.421C202.036 193.421 201.795 193.499 201.603 193.654C201.413 193.808 201.271 194.014 201.179 194.27C201.088 194.524 201.042 194.802 201.042 195.106C201.042 195.411 201.088 195.691 201.179 195.945C201.271 196.199 201.413 196.402 201.603 196.555C201.795 196.707 202.036 196.784 202.327 196.784ZM206.5 194.641V197.465H205.574V192.709H206.463V193.483H206.522C206.631 193.231 206.802 193.029 207.036 192.876C207.271 192.724 207.567 192.647 207.924 192.647C208.248 192.647 208.532 192.715 208.776 192.852C209.019 192.986 209.208 193.186 209.342 193.452C209.476 193.719 209.544 194.048 209.544 194.44V197.465H208.618V194.551C208.618 194.207 208.528 193.937 208.348 193.743C208.169 193.547 207.922 193.449 207.608 193.449C207.394 193.449 207.203 193.496 207.036 193.588C206.871 193.681 206.739 193.818 206.642 193.997C206.548 194.175 206.5 194.389 206.5 194.641Z" fill="#333333"/>
<rect x="35.0752" y="183.84" width="305.87" height="20.5588" rx="2.17968" stroke="#EFEFEF" stroke-width="1.45312"/>
<path d="M48.3991 229.535V223.034H50.8371C51.3366 223.034 51.7556 223.127 52.0942 223.313C52.4349 223.499 52.6921 223.755 52.8656 224.081C53.0413 224.405 53.1291 224.773 53.1291 225.186C53.1291 225.603 53.0413 225.973 52.8656 226.297C52.69 226.621 52.4307 226.876 52.0879 227.062C51.745 227.246 51.3228 227.338 50.8212 227.338H49.2054V226.37H50.6625C50.9546 226.37 51.1937 226.319 51.3799 226.218C51.5662 226.116 51.7037 225.977 51.7926 225.799C51.8836 225.621 51.9291 225.417 51.9291 225.186C51.9291 224.955 51.8836 224.752 51.7926 224.577C51.7037 224.401 51.5651 224.264 51.3768 224.167C51.1905 224.068 50.9503 224.018 50.6561 224.018H49.5768V229.535H48.3991ZM54.1013 229.535V224.659H55.2156V225.472H55.2663C55.3552 225.19 55.5076 224.973 55.7235 224.821C55.9415 224.666 56.1901 224.589 56.4695 224.589C56.533 224.589 56.6039 224.592 56.6822 224.599C56.7626 224.603 56.8293 224.61 56.8822 224.621V225.678C56.8335 225.661 56.7563 225.646 56.6504 225.634C56.5467 225.619 56.4462 225.611 56.3489 225.611C56.1393 225.611 55.951 225.657 55.7838 225.748C55.6187 225.837 55.4886 225.961 55.3933 226.119C55.2981 226.278 55.2505 226.461 55.2505 226.669V229.535H54.1013ZM59.6035 229.63C59.1147 229.63 58.6924 229.529 58.3369 229.326C57.9835 229.12 57.7115 228.83 57.5211 228.456C57.3306 228.079 57.2353 227.636 57.2353 227.126C57.2353 226.624 57.3306 226.184 57.5211 225.805C57.7136 225.424 57.9824 225.128 58.3274 224.916C58.6723 224.702 59.0776 224.596 59.5432 224.596C59.8437 224.596 60.1273 224.644 60.394 224.742C60.6628 224.837 60.8998 224.985 61.1051 225.186C61.3125 225.387 61.4754 225.643 61.594 225.954C61.7125 226.263 61.7717 226.632 61.7717 227.059V227.411H57.775V226.637H60.6702C60.6681 226.417 60.6204 226.221 60.5273 226.05C60.4342 225.876 60.304 225.739 60.1369 225.64C59.9718 225.541 59.7792 225.491 59.5591 225.491C59.3242 225.491 59.1178 225.548 58.9401 225.662C58.7623 225.774 58.6237 225.923 58.5242 226.107C58.4268 226.289 58.3771 226.489 58.375 226.707V227.383C58.375 227.666 58.4268 227.91 58.5305 228.113C58.6342 228.314 58.7792 228.469 58.9655 228.576C59.1517 228.682 59.3697 228.735 59.6194 228.735C59.7866 228.735 59.9379 228.712 60.0734 228.665C60.2088 228.617 60.3263 228.546 60.4257 228.453C60.5252 228.36 60.6003 228.244 60.6511 228.107L61.7241 228.227C61.6564 228.511 61.5273 228.758 61.3368 228.97C61.1485 229.18 60.9072 229.343 60.613 229.459C60.3189 229.573 59.9824 229.63 59.6035 229.63ZM66.9597 224.659L65.2232 229.535H63.9534L62.217 224.659H63.4423L64.5629 228.281H64.6137L65.7375 224.659H66.9597Z" fill="#A58CF0"/>
<rect x="34.628" y="214.346" width="46.2596" height="24.3807" rx="4.19037" stroke="#A58CF0" stroke-width="0.558716"/>
<rect x="293.854" y="214.066" width="47.8184" height="24.9394" rx="4.46973" fill="#A58CF0"/>
<path d="M313.247 223.034V229.535H312.199L309.136 225.107H309.082V229.535H307.904V223.034H308.958L312.018 227.465H312.075V223.034H313.247ZM316.638 229.63C316.149 229.63 315.727 229.529 315.371 229.326C315.018 229.12 314.746 228.83 314.555 228.456C314.365 228.079 314.27 227.636 314.27 227.126C314.27 226.624 314.365 226.184 314.555 225.805C314.748 225.424 315.017 225.128 315.362 224.916C315.707 224.702 316.112 224.596 316.578 224.596C316.878 224.596 317.162 224.644 317.428 224.742C317.697 224.837 317.934 224.985 318.139 225.186C318.347 225.387 318.51 225.643 318.628 225.954C318.747 226.263 318.806 226.632 318.806 227.059V227.411H314.809V226.637H317.704C317.702 226.417 317.655 226.221 317.562 226.05C317.469 225.876 317.338 225.739 317.171 225.64C317.006 225.541 316.814 225.491 316.593 225.491C316.358 225.491 316.152 225.548 315.974 225.662C315.797 225.774 315.658 225.923 315.559 226.107C315.461 226.289 315.411 226.489 315.409 226.707V227.383C315.409 227.666 315.461 227.91 315.565 228.113C315.669 228.314 315.814 228.469 316 228.576C316.186 228.682 316.404 228.735 316.654 228.735C316.821 228.735 316.972 228.712 317.108 228.665C317.243 228.617 317.361 228.546 317.46 228.453C317.56 228.36 317.635 228.244 317.685 228.107L318.758 228.227C318.691 228.511 318.562 228.758 318.371 228.97C318.183 229.18 317.942 229.343 317.647 229.459C317.353 229.573 317.017 229.63 316.638 229.63ZM320.613 224.659L321.597 226.459L322.597 224.659H323.813L322.343 227.097L323.838 229.535H322.629L321.597 227.78L320.575 229.535H319.356L320.842 227.097L319.394 224.659H320.613ZM327.137 224.659V225.548H324.334V224.659H327.137ZM325.026 223.491H326.175V228.069C326.175 228.223 326.198 228.342 326.245 228.424C326.293 228.504 326.357 228.56 326.435 228.589C326.514 228.619 326.6 228.634 326.696 228.634C326.767 228.634 326.833 228.628 326.892 228.618C326.954 228.607 327 228.598 327.032 228.589L327.226 229.488C327.164 229.509 327.076 229.532 326.962 229.557C326.85 229.583 326.712 229.598 326.549 229.602C326.262 229.61 326.002 229.567 325.772 229.472C325.541 229.374 325.358 229.224 325.223 229.021C325.089 228.818 325.024 228.564 325.026 228.259V223.491Z" fill="white"/>
</g>
<defs>
<filter id="filter0_dd_5186_13137" x="8.68597" y="16.343" width="351.648" height="117.194" filterUnits="userSpaceOnUse" color-interpolation-filters="sRGB">
<feFlood flood-opacity="0" result="BackgroundImageFix"/>
<feColorMatrix in="SourceAlpha" type="matrix" values="0 0 0 0 0 0 0 0 0 0 0 0 0 0 0 0 0 0 127 0" result="hardAlpha"/>
<feOffset dy="3.65702"/>
<feGaussianBlur stdDeviation="3.65702"/>
<feComposite in2="hardAlpha" operator="out"/>
<feColorMatrix type="matrix" values="0 0 0 0 0 0 0 0 0 0 0 0 0 0 0 0 0 0 0.05 0"/>
<feBlend mode="normal" in2="BackgroundImageFix" result="effect1_dropShadow_5186_13137"/>
<feColorMatrix in="SourceAlpha" type="matrix" values="0 0 0 0 0 0 0 0 0 0 0 0 0 0 0 0 0 0 127 0" result="hardAlpha"/>
<feOffset dy="1.82851"/>
<feGaussianBlur stdDeviation="1.82851"/>
<feComposite in2="hardAlpha" operator="out"/>
<feColorMatrix type="matrix" values="0 0 0 0 0 0 0 0 0 0 0 0 0 0 0 0 0 0 0.07 0"/>
<feBlend mode="normal" in2="effect1_dropShadow_5186_13137" result="effect2_dropShadow_5186_13137"/>
<feBlend mode="normal" in="SourceGraphic" in2="effect2_dropShadow_5186_13137" result="shape"/>
</filter>
<filter id="filter1_dd_5186_13137" x="133.686" y="86.343" width="351.648" height="117.194" filterUnits="userSpaceOnUse" color-interpolation-filters="sRGB">
<feFlood flood-opacity="0" result="BackgroundImageFix"/>
<feColorMatrix in="SourceAlpha" type="matrix" values="0 0 0 0 0 0 0 0 0 0 0 0 0 0 0 0 0 0 127 0" result="hardAlpha"/>
<feOffset dy="3.65702"/>
<feGaussianBlur stdDeviation="3.65702"/>
<feComposite in2="hardAlpha" operator="out"/>
<feColorMatrix type="matrix" values="0 0 0 0 0 0 0 0 0 0 0 0 0 0 0 0 0 0 0.05 0"/>
<feBlend mode="normal" in2="BackgroundImageFix" result="effect1_dropShadow_5186_13137"/>
<feColorMatrix in="SourceAlpha" type="matrix" values="0 0 0 0 0 0 0 0 0 0 0 0 0 0 0 0 0 0 127 0" result="hardAlpha"/>
<feOffset dy="1.82851"/>
<feGaussianBlur stdDeviation="1.82851"/>
<feComposite in2="hardAlpha" operator="out"/>
<feColorMatrix type="matrix" values="0 0 0 0 0 0 0 0 0 0 0 0 0 0 0 0 0 0 0.07 0"/>
<feBlend mode="normal" in2="effect1_dropShadow_5186_13137" result="effect2_dropShadow_5186_13137"/>
<feBlend mode="normal" in="SourceGraphic" in2="effect2_dropShadow_5186_13137" result="shape"/>
</filter>
<filter id="filter2_dd_5186_13137" x="4.36044" y="145.18" width="367.299" height="123.162" filterUnits="userSpaceOnUse" color-interpolation-filters="sRGB">
<feFlood flood-opacity="0" result="BackgroundImageFix"/>
<feColorMatrix in="SourceAlpha" type="matrix" values="0 0 0 0 0 0 0 0 0 0 0 0 0 0 0 0 0 0 127 0" result="hardAlpha"/>
<feOffset dy="3.81978"/>
<feGaussianBlur stdDeviation="3.81978"/>
<feComposite in2="hardAlpha" operator="out"/>
<feColorMatrix type="matrix" values="0 0 0 0 0 0 0 0 0 0 0 0 0 0 0 0 0 0 0.05 0"/>
<feBlend mode="normal" in2="BackgroundImageFix" result="effect1_dropShadow_5186_13137"/>
<feColorMatrix in="SourceAlpha" type="matrix" values="0 0 0 0 0 0 0 0 0 0 0 0 0 0 0 0 0 0 127 0" result="hardAlpha"/>
<feOffset dy="1.90989"/>
<feGaussianBlur stdDeviation="1.90989"/>
<feComposite in2="hardAlpha" operator="out"/>
<feColorMatrix type="matrix" values="0 0 0 0 0 0 0 0 0 0 0 0 0 0 0 0 0 0 0.07 0"/>
<feBlend mode="normal" in2="effect1_dropShadow_5186_13137" result="effect2_dropShadow_5186_13137"/>
<feBlend mode="normal" in="SourceGraphic" in2="effect2_dropShadow_5186_13137" result="shape"/>
</filter>
</defs>
</svg>
