<svg width="30" height="30" viewBox="0 0 30 30" fill="none" xmlns="http://www.w3.org/2000/svg">
<circle cx="15" cy="15" r="15" fill="#5B2FBD"/>
<path d="M20.625 15.625H21.875C22.0408 15.625 22.1997 15.5592 22.3169 15.4419C22.4342 15.3247 22.5 15.1658 22.5 15C22.5 14.8342 22.4342 14.6753 22.3169 14.5581C22.1997 14.4408 22.0408 14.375 21.875 14.375H20.625C20.4592 14.375 20.3003 14.4408 20.1831 14.5581C20.0658 14.6753 20 14.8342 20 15C20 15.1658 20.0658 15.3247 20.1831 15.4419C20.3003 15.5592 20.4592 15.625 20.625 15.625ZM15 10C15 9.83424 15.0658 9.67527 15.1831 9.55806C15.3003 9.44085 15.4592 9.375 15.625 9.375H21.875C22.0408 9.375 22.1997 9.44085 22.3169 9.55806C22.4342 9.67527 22.5 9.83424 22.5 10C22.5 10.1658 22.4342 10.3247 22.3169 10.4419C22.1997 10.5592 22.0408 10.625 21.875 10.625H15.625C15.4592 10.625 15.3003 10.5592 15.1831 10.4419C15.0658 10.3247 15 10.1658 15 10ZM15 20C15 19.8342 15.0658 19.6753 15.1831 19.5581C15.3003 19.4408 15.4592 19.375 15.625 19.375H21.875C22.0408 19.375 22.1997 19.4408 22.3169 19.5581C22.4342 19.6753 22.5 19.8342 22.5 20C22.5 20.1658 22.4342 20.3247 22.3169 20.4419C22.1997 20.5592 22.0408 20.625 21.875 20.625H15.625C15.4592 20.625 15.3003 20.5592 15.1831 20.4419C15.0658 20.3247 15 20.1658 15 20ZM8.125 10.625H9.375C9.54076 10.625 9.69973 10.5592 9.81694 10.4419C9.93415 10.3247 10 10.1658 10 10C10 9.83424 9.93415 9.67527 9.81694 9.55806C9.69973 9.44085 9.54076 9.375 9.375 9.375H8.125C7.95924 9.375 7.80027 9.44085 7.68306 9.55806C7.56585 9.67527 7.5 9.83424 7.5 10C7.5 10.1658 7.56585 10.3247 7.68306 10.4419C7.80027 10.5592 7.95924 10.625 8.125 10.625ZM9.375 20.625H8.125C7.95924 20.625 7.80027 20.5592 7.68306 20.4419C7.56585 20.3247 7.5 20.1658 7.5 20C7.5 19.8342 7.56585 19.6753 7.68306 19.5581C7.80027 19.4408 7.95924 19.375 8.125 19.375H9.375C9.54076 19.375 9.69973 19.4408 9.81694 19.5581C9.93415 19.6753 10 19.8342 10 20C10 20.1658 9.93415 20.3247 9.81694 20.4419C9.69973 20.5592 9.54076 20.625 9.375 20.625ZM7.5 15C7.5 14.8342 7.56585 14.6753 7.68306 14.5581C7.80027 14.4408 7.95924 14.375 8.125 14.375H14.375C14.5408 14.375 14.6997 14.4408 14.8169 14.5581C14.9342 14.6753 15 14.8342 15 15C15 15.1658 14.9342 15.3247 14.8169 15.4419C14.6997 15.5592 14.5408 15.625 14.375 15.625H8.125C7.95924 15.625 7.80027 15.5592 7.68306 15.4419C7.56585 15.3247 7.5 15.1658 7.5 15ZM12.5 8.125C12.0027 8.125 11.5258 8.32254 11.1742 8.67417C10.8225 9.02581 10.625 9.50272 10.625 10C10.625 10.4973 10.8225 10.9742 11.1742 11.3258C11.5258 11.6775 12.0027 11.875 12.5 11.875C12.9973 11.875 13.4742 11.6775 13.8258 11.3258C14.1775 10.9742 14.375 10.4973 14.375 10C14.375 9.50272 14.1775 9.02581 13.8258 8.67417C13.4742 8.32254 12.9973 8.125 12.5 8.125ZM15.625 15C15.625 14.5027 15.8225 14.0258 16.1742 13.6742C16.5258 13.3225 17.0027 13.125 17.5 13.125C17.9973 13.125 18.4742 13.3225 18.8258 13.6742C19.1775 14.0258 19.375 14.5027 19.375 15C19.375 15.4973 19.1775 15.9742 18.8258 16.3258C18.4742 16.6775 17.9973 16.875 17.5 16.875C17.0027 16.875 16.5258 16.6775 16.1742 16.3258C15.8225 15.9742 15.625 15.4973 15.625 15ZM12.5 18.125C12.0027 18.125 11.5258 18.3225 11.1742 18.6742C10.8225 19.0258 10.625 19.5027 10.625 20C10.625 20.4973 10.8225 20.9742 11.1742 21.3258C11.5258 21.6775 12.0027 21.875 12.5 21.875C12.9973 21.875 13.4742 21.6775 13.8258 21.3258C14.1775 20.9742 14.375 20.4973 14.375 20C14.375 19.5027 14.1775 19.0258 13.8258 18.6742C13.4742 18.3225 12.9973 18.125 12.5 18.125Z" fill="white"/>
</svg>
